<?xml version="1.0" encoding="utf-8" standalone="no"?>
<!DOCTYPE svg PUBLIC "-//W3C//DTD SVG 1.1//EN"
  "http://www.w3.org/Graphics/SVG/1.1/DTD/svg11.dtd">
<svg xmlns:xlink="http://www.w3.org/1999/xlink" width="460.8pt" height="345.6pt" viewBox="0 0 460.8 345.6" xmlns="http://www.w3.org/2000/svg" version="1.1">
 <metadata>
  <rdf:RDF xmlns:dc="http://purl.org/dc/elements/1.1/" xmlns:cc="http://creativecommons.org/ns#" xmlns:rdf="http://www.w3.org/1999/02/22-rdf-syntax-ns#">
   <cc:Work>
    <dc:type rdf:resource="http://purl.org/dc/dcmitype/StillImage"/>
    <dc:date>2024-01-22T08:50:51.140602</dc:date>
    <dc:format>image/svg+xml</dc:format>
    <dc:creator>
     <cc:Agent>
      <dc:title>Matplotlib v3.7.1, https://matplotlib.org/</dc:title>
     </cc:Agent>
    </dc:creator>
   </cc:Work>
  </rdf:RDF>
 </metadata>
 <defs>
  <style type="text/css">*{stroke-linejoin: round; stroke-linecap: butt}</style>
 </defs>
 <g id="figure_1">
  <g id="patch_1">
   <path d="M 0 345.6 
L 460.8 345.6 
L 460.8 0 
L 0 0 
z
" style="fill: #ffffff"/>
  </g>
  <g id="axes_1">
   <g id="patch_2">
    <path d="M 57.6 307.584 
L 343.296 307.584 
L 343.296 41.472 
L 57.6 41.472 
z
" style="fill: #ffffff"/>
   </g>
   <g id="PathCollection_1">
    <path clip-path="url(#p708415c48c)" style="fill: #0000b6"/>
   </g>
   <g id="PathCollection_2">
    <path clip-path="url(#p708415c48c)" style="fill: #0018ff"/>
   </g>
   <g id="PathCollection_3">
    <path d="M 57.62857 42.558099 
L 57.968449 42.213988 
L 58.684174 41.472 
L 57.62857 41.472 
" clip-path="url(#p708415c48c)" style="fill: #0080ff"/>
   </g>
   <g id="PathCollection_4">
    <path d="M 58.684174 41.472 
L 57.968449 42.213988 
L 57.62857 42.558099 
L 57.62857 44.7984 
L 57.62857 48.1248 
L 57.62857 51.4512 
L 57.62857 54.7776 
L 57.62857 58.104 
L 57.62857 61.4304 
L 57.62857 64.7568 
L 57.62857 68.0832 
L 57.62857 71.4096 
L 57.62857 74.736 
L 57.62857 78.0624 
L 57.62857 81.3888 
L 57.62857 84.7152 
L 57.62857 88.0416 
L 57.62857 91.368 
L 57.62857 94.6944 
L 57.62857 94.797543 
L 57.66652 94.77725 
L 57.816121 94.6944 
L 58.643254 94.234104 
L 59.556035 93.72012 
L 60.090656 93.416555 
L 60.311731 93.287827 
L 60.969152 92.913074 
L 61.682339 92.497458 
L 62.50206 92.028066 
L 63.626112 91.368 
L 63.71357 91.3161 
L 63.735825 91.302607 
L 64.900352 90.610954 
L 65.862053 90.025567 
L 66.449426 89.673994 
L 67.176635 89.229286 
L 67.285113 89.1643 
L 67.526846 89.01588 
L 68.621942 88.337646 
L 68.742812 88.26329 
L 69.096249 88.0416 
L 70.417907 87.205995 
L 70.635577 87.06732 
L 72.01367 86.181565 
L 72.669327 85.750117 
L 73.019208 85.52431 
L 74.247636 84.7152 
L 74.356266 84.642863 
L 74.452606 84.57722 
L 75.724886 83.723157 
L 76.157551 83.426907 
L 76.684508 83.072823 
L 77.716759 82.36308 
L 78.168 82.049975 
L 78.421129 81.875596 
L 79.114379 81.3888 
L 79.882574 80.844726 
L 80.485931 80.41452 
L 81.294972 79.832279 
L 81.733344 79.509759 
L 82.216345 79.160672 
L 83.442113 78.257918 
L 83.576512 78.160286 
L 83.708317 78.0624 
L 84.887349 77.176773 
L 85.280489 76.876004 
L 85.842179 76.45364 
L 86.80964 75.71028 
L 87.265471 75.356664 
L 88.060803 74.736 
L 88.664716 74.26033 
L 88.895567 74.075023 
L 89.288949 73.76172 
L 90.323012 72.930102 
L 90.961155 72.406129 
L 91.289055 72.141252 
L 92.179124 71.4096 
L 92.537437 71.11159 
L 92.98412 70.732461 
L 93.92017 69.947116 
L 94.582368 69.382005 
L 94.734183 69.254483 
L 94.963995 69.05748 
L 95.901281 68.245888 
L 96.088218 68.0832 
L 97.053339 67.234806 
L 97.193875 67.10892 
L 97.619333 66.729269 
L 98.040052 66.347709 
L 99.072964 65.420831 
L 99.798611 64.7568 
L 100.218684 64.36773 
L 100.398415 64.198611 
L 101.214055 63.442224 
L 102.311627 62.40468 
L 102.594655 62.134314 
L 103.325208 61.4304 
L 103.335402 61.420516 
L 103.33993 61.416013 
L 103.33993 58.104 
L 103.33993 54.7776 
L 103.33993 51.4512 
L 103.33993 48.1248 
L 103.33993 44.7984 
L 103.33993 41.472 
L 101.816218 41.472 
L 100.292506 41.472 
L 98.768794 41.472 
L 97.245082 41.472 
L 95.72137 41.472 
L 94.197658 41.472 
L 92.673946 41.472 
L 91.150234 41.472 
L 89.626522 41.472 
L 88.10281 41.472 
L 86.579098 41.472 
L 85.055386 41.472 
L 83.531674 41.472 
L 82.007962 41.472 
L 80.48425 41.472 
L 78.960538 41.472 
L 77.436826 41.472 
L 75.913114 41.472 
L 74.389402 41.472 
L 72.86569 41.472 
L 71.341978 41.472 
L 69.818266 41.472 
L 68.294554 41.472 
L 66.770842 41.472 
L 65.24713 41.472 
L 63.723418 41.472 
L 62.199706 41.472 
L 60.675994 41.472 
L 59.152282 41.472 
" clip-path="url(#p708415c48c)" style="fill: #00e4f8"/>
   </g>
   <g id="PathCollection_5">
    <path d="M 103.33993 61.416013 
L 103.335402 61.420516 
L 103.325208 61.4304 
L 102.594655 62.134314 
L 102.311627 62.40468 
L 101.214055 63.442224 
L 100.398415 64.198611 
L 100.218684 64.36773 
L 99.798611 64.7568 
L 99.072964 65.420831 
L 98.040052 66.347709 
L 97.619333 66.729269 
L 97.193875 67.10892 
L 97.053339 67.234806 
L 96.088218 68.0832 
L 95.901281 68.245888 
L 94.963995 69.05748 
L 94.734183 69.254483 
L 94.582368 69.382005 
L 93.92017 69.947116 
L 92.98412 70.732461 
L 92.537437 71.11159 
L 92.179124 71.4096 
L 91.289055 72.141252 
L 90.961155 72.406129 
L 90.323012 72.930102 
L 89.288949 73.76172 
L 88.895567 74.075023 
L 88.664716 74.26033 
L 88.060803 74.736 
L 87.265471 75.356664 
L 86.80964 75.71028 
L 85.842179 76.45364 
L 85.280489 76.876004 
L 84.887349 77.176773 
L 83.708317 78.0624 
L 83.576512 78.160286 
L 83.442113 78.257918 
L 82.216345 79.160672 
L 81.733344 79.509759 
L 81.294972 79.832279 
L 80.485931 80.41452 
L 79.882574 80.844726 
L 79.114379 81.3888 
L 78.421129 81.875596 
L 78.168 82.049975 
L 77.716759 82.36308 
L 76.684508 83.072823 
L 76.157551 83.426907 
L 75.724886 83.723157 
L 74.452606 84.57722 
L 74.356266 84.642863 
L 74.247636 84.7152 
L 73.019208 85.52431 
L 72.669327 85.750117 
L 72.01367 86.181565 
L 70.635577 87.06732 
L 70.417907 87.205995 
L 69.096249 88.0416 
L 68.742812 88.26329 
L 68.621942 88.337646 
L 67.526846 89.01588 
L 67.285113 89.1643 
L 67.176635 89.229286 
L 66.449426 89.673994 
L 65.862053 90.025567 
L 64.900352 90.610954 
L 63.735825 91.302607 
L 63.71357 91.3161 
L 63.626112 91.368 
L 62.50206 92.028066 
L 61.682339 92.497458 
L 60.969152 92.913074 
L 60.311731 93.287827 
L 60.090656 93.416555 
L 59.556035 93.72012 
L 58.643254 94.234104 
L 57.816121 94.6944 
L 57.66652 94.77725 
L 57.62857 94.797543 
L 57.62857 98.0208 
L 57.62857 101.3472 
L 57.62857 104.6736 
L 57.62857 108 
L 57.62857 111.3264 
L 57.62857 114.6528 
L 57.62857 117.9792 
L 57.62857 121.3056 
L 57.62857 124.632 
L 57.62857 127.9584 
L 57.62857 131.2848 
L 57.62857 134.6112 
L 57.62857 137.503786 
L 57.715302 137.48048 
L 58.809601 137.189498 
L 59.595136 136.97081 
L 60.449177 136.742173 
L 60.928211 136.608304 
L 61.518389 136.450224 
L 63.081872 136.011751 
L 63.34457 135.940905 
L 64.145023 135.715554 
L 64.220016 135.695318 
L 64.608771 135.58548 
L 65.914025 135.21425 
L 66.265445 135.114817 
L 67.997715 134.6112 
L 68.184613 134.556828 
L 68.222052 134.545639 
L 68.438076 134.481418 
L 68.734973 134.393386 
L 70.51982 133.867751 
L 71.2903 133.63692 
L 72.28233 133.337674 
L 72.488498 133.272765 
L 73.201896 133.056757 
L 73.641112 132.918383 
L 74.954744 132.518993 
L 75.72534 132.27445 
L 76.080331 132.166108 
L 77.19532 131.812028 
L 77.618871 131.682222 
L 78.861201 131.2848 
L 78.954804 131.25458 
L 78.967051 131.250473 
L 80.27496 130.827902 
L 80.769869 130.661267 
L 81.824517 130.317968 
L 82.216559 130.185398 
L 82.922703 129.955364 
L 84.36493 129.465727 
L 84.689995 129.35903 
L 85.471326 129.092607 
L 85.561378 129.063026 
L 85.942102 128.93268 
L 87.183185 128.504656 
L 88.742709 127.9584 
L 89.258823 127.776551 
L 89.377838 127.733524 
L 90.203439 127.436714 
L 91.027154 127.143964 
L 91.465429 126.98412 
L 91.588056 126.939518 
L 91.622977 126.926358 
L 93.42354 126.268432 
L 93.923173 126.078656 
L 94.436409 125.890325 
L 95.29439 125.564134 
L 96.024973 125.294794 
L 97.205141 124.842504 
L 97.279779 124.81487 
L 97.756486 124.632 
L 98.616216 124.298909 
L 98.990292 124.14845 
L 100.117236 123.708253 
L 100.496888 123.554814 
L 101.197339 123.280933 
L 102.717828 122.663704 
L 102.949165 122.572499 
L 103.33993 122.408441 
L 103.33993 121.3056 
L 103.33993 117.9792 
L 103.33993 114.6528 
L 103.33993 111.3264 
L 103.33993 108 
L 103.33993 104.6736 
L 103.33993 101.3472 
L 103.33993 98.0208 
L 103.33993 94.6944 
L 103.33993 91.368 
L 103.33993 88.0416 
L 103.33993 84.7152 
L 103.33993 81.3888 
L 103.33993 78.0624 
L 103.33993 74.736 
L 103.33993 71.4096 
L 103.33993 68.0832 
L 103.33993 64.7568 
L 103.33993 61.4304 
" clip-path="url(#p708415c48c)" style="fill: #53ffa4"/>
   </g>
   <g id="PathCollection_6">
    <path d="M 103.33993 122.408441 
L 102.949165 122.572499 
L 102.717828 122.663704 
L 101.197339 123.280933 
L 100.496888 123.554814 
L 100.117236 123.708253 
L 98.990292 124.14845 
L 98.616216 124.298909 
L 97.756486 124.632 
L 97.279779 124.81487 
L 97.205141 124.842504 
L 96.024973 125.294794 
L 95.29439 125.564134 
L 94.436409 125.890325 
L 93.923173 126.078656 
L 93.42354 126.268432 
L 91.622977 126.926358 
L 91.588056 126.939518 
L 91.465429 126.98412 
L 91.027154 127.143964 
L 90.203439 127.436714 
L 89.377838 127.733524 
L 89.258823 127.776551 
L 88.742709 127.9584 
L 87.183185 128.504656 
L 85.942102 128.93268 
L 85.561378 129.063026 
L 85.471326 129.092607 
L 84.689995 129.35903 
L 84.36493 129.465727 
L 82.922703 129.955364 
L 82.216559 130.185398 
L 81.824517 130.317968 
L 80.769869 130.661267 
L 80.27496 130.827902 
L 78.967051 131.250473 
L 78.954804 131.25458 
L 78.861201 131.2848 
L 77.618871 131.682222 
L 77.19532 131.812028 
L 76.080331 132.166108 
L 75.72534 132.27445 
L 74.954744 132.518993 
L 73.641112 132.918383 
L 73.201896 133.056757 
L 72.488498 133.272765 
L 72.28233 133.337674 
L 71.2903 133.63692 
L 70.51982 133.867751 
L 68.734973 134.393386 
L 68.438076 134.481418 
L 68.222052 134.545639 
L 68.184613 134.556828 
L 67.997715 134.6112 
L 66.265445 135.114817 
L 65.914025 135.21425 
L 64.608771 135.58548 
L 64.220016 135.695318 
L 64.145023 135.715554 
L 63.34457 135.940905 
L 63.081872 136.011751 
L 61.518389 136.450224 
L 60.928211 136.608304 
L 60.449177 136.742173 
L 59.595136 136.97081 
L 58.809601 137.189498 
L 57.715302 137.48048 
L 57.62857 137.503786 
L 57.62857 137.9376 
L 57.62857 141.264 
L 57.62857 144.5904 
L 57.62857 147.9168 
L 57.62857 151.2432 
L 57.62857 154.5696 
L 57.62857 157.896 
L 57.62857 161.2224 
L 57.62857 164.5488 
L 57.62857 167.8752 
L 57.62857 171.2016 
L 57.62857 174.528 
L 57.62857 174.654371 
L 57.684858 174.650883 
L 59.133394 174.545079 
L 59.168497 174.542663 
L 59.180298 174.541856 
L 59.369026 174.528 
L 61.834092 174.347183 
L 61.98652 174.335224 
L 62.453136 174.298832 
L 64.482039 174.149617 
L 64.800936 174.124523 
L 65.777831 174.048106 
L 66.299591 174.007495 
L 67.611519 173.910356 
L 69.107381 173.792988 
L 69.758446 173.74485 
L 70.418151 173.692615 
L 72.182981 173.55372 
L 72.411139 173.535675 
L 72.423032 173.534601 
L 73.295238 173.465513 
L 73.354843 173.460134 
L 75.351398 173.301725 
L 75.5175 173.286662 
L 76.296975 173.224722 
L 76.519328 173.204579 
L 78.289771 173.063656 
L 78.612816 173.034245 
L 79.297896 172.97963 
L 79.685961 172.944335 
L 81.226196 172.821336 
L 81.709011 172.777203 
L 82.297974 172.730095 
L 82.854813 172.679248 
L 84.16061 172.574625 
L 84.806113 172.51538 
L 85.297181 172.475971 
L 86.025959 172.409151 
L 87.092945 172.323375 
L 87.904152 172.248613 
L 88.295488 172.217102 
L 89.199478 172.133874 
L 90.023131 172.067434 
L 91.003162 171.976733 
L 91.292864 171.953325 
L 92.375454 171.853235 
L 92.951094 171.80664 
L 94.103176 171.69956 
L 94.289276 171.68447 
L 95.553972 171.567044 
L 95.876757 171.540824 
L 97.20423 171.416907 
L 97.284691 171.41036 
L 98.735125 171.275102 
L 98.800038 171.26981 
L 99.527535 171.2016 
L 100.279033 171.130592 
L 100.306535 171.127661 
L 101.72118 170.994125 
L 101.921036 170.972773 
L 103.272178 170.84452 
L 103.33993 170.836662 
L 103.33993 167.8752 
L 103.33993 164.5488 
L 103.33993 161.2224 
L 103.33993 157.896 
L 103.33993 154.5696 
L 103.33993 151.2432 
L 103.33993 147.9168 
L 103.33993 144.5904 
L 103.33993 141.264 
L 103.33993 137.9376 
L 103.33993 134.6112 
L 103.33993 131.2848 
L 103.33993 127.9584 
L 103.33993 124.632 
" clip-path="url(#p708415c48c)" style="fill: #a4ff53"/>
   </g>
   <g id="PathCollection_7">
    <path d="M 103.33993 170.836662 
L 103.272178 170.84452 
L 101.921036 170.972773 
L 101.72118 170.994125 
L 100.306535 171.127661 
L 100.279033 171.130592 
L 99.527535 171.2016 
L 98.800038 171.26981 
L 98.735125 171.275102 
L 97.284691 171.41036 
L 97.20423 171.416907 
L 95.876757 171.540824 
L 95.553972 171.567044 
L 94.289276 171.68447 
L 94.103176 171.69956 
L 92.951094 171.80664 
L 92.375454 171.853235 
L 91.292864 171.953325 
L 91.003162 171.976733 
L 90.023131 172.067434 
L 89.199478 172.133874 
L 88.295488 172.217102 
L 87.904152 172.248613 
L 87.092945 172.323375 
L 86.025959 172.409151 
L 85.297181 172.475971 
L 84.806113 172.51538 
L 84.16061 172.574625 
L 82.854813 172.679248 
L 82.297974 172.730095 
L 81.709011 172.777203 
L 81.226196 172.821336 
L 79.685961 172.944335 
L 79.297896 172.97963 
L 78.612816 173.034245 
L 78.289771 173.063656 
L 76.519328 173.204579 
L 76.296975 173.224722 
L 75.5175 173.286662 
L 75.351398 173.301725 
L 73.354843 173.460134 
L 73.295238 173.465513 
L 72.423032 173.534601 
L 72.411139 173.535675 
L 72.182981 173.55372 
L 70.418151 173.692615 
L 69.758446 173.74485 
L 69.107381 173.792988 
L 67.611519 173.910356 
L 66.299591 174.007495 
L 65.777831 174.048106 
L 64.800936 174.124523 
L 64.482039 174.149617 
L 62.453136 174.298832 
L 61.98652 174.335224 
L 61.834092 174.347183 
L 59.369026 174.528 
L 59.180298 174.541856 
L 59.168497 174.542663 
L 59.133394 174.545079 
L 57.684858 174.650883 
L 57.62857 174.654371 
L 57.62857 177.8544 
L 57.62857 181.1808 
L 57.62857 184.5072 
L 57.62857 187.8336 
L 57.62857 191.16 
L 57.62857 194.4864 
L 57.62857 197.8128 
L 57.62857 201.1392 
L 57.62857 204.4656 
L 57.62857 207.792 
L 57.62857 208.559948 
L 57.992861 208.587281 
L 58.253251 208.604962 
L 60.207072 208.74581 
L 60.490685 208.76628 
L 61.113715 208.811413 
L 61.144092 208.8139 
L 63.187034 208.962974 
L 63.316483 208.973674 
L 64.119157 209.032677 
L 64.298554 209.047574 
L 66.133466 209.183447 
L 66.408077 209.20647 
L 67.12348 209.259838 
L 67.456039 209.287847 
L 69.077259 209.409684 
L 69.500894 209.44571 
L 70.126648 209.493088 
L 70.616653 209.534951 
L 72.018327 209.641869 
L 72.594976 209.691618 
L 73.128622 209.732631 
L 73.780509 209.789132 
L 74.956581 209.880197 
L 75.690367 209.944426 
L 76.129362 209.978676 
L 76.947722 210.050644 
L 77.891929 210.124868 
L 78.787114 210.204378 
L 79.128826 210.231445 
L 80.118417 210.319755 
L 80.824275 210.376094 
L 81.885264 210.471728 
L 82.126971 210.491169 
L 83.292721 210.596746 
L 83.753518 210.634094 
L 84.984869 210.746745 
L 85.12375 210.758089 
L 86.470771 210.881913 
L 86.679552 210.899098 
L 88.085982 211.029709 
L 88.119116 211.032458 
L 89.04011 211.1184 
L 89.602588 211.17065 
L 89.652836 211.175848 
L 91.113328 211.312907 
L 91.188628 211.320753 
L 92.523592 211.446636 
L 92.839489 211.479796 
L 94.106189 211.600478 
L 94.292872 211.62022 
L 95.441147 211.730151 
L 96.030346 211.792922 
L 97.097512 211.896156 
L 97.398786 211.928493 
L 98.355133 212.021459 
L 99.225573 212.11559 
L 100.087241 212.200237 
L 100.506437 212.245912 
L 101.265421 212.320839 
L 102.425347 212.448183 
L 103.075316 212.513033 
L 103.33993 212.540806 
L 103.33993 211.1184 
L 103.33993 207.792 
L 103.33993 204.4656 
L 103.33993 201.1392 
L 103.33993 197.8128 
L 103.33993 194.4864 
L 103.33993 191.16 
L 103.33993 187.8336 
L 103.33993 184.5072 
L 103.33993 181.1808 
L 103.33993 177.8544 
L 103.33993 174.528 
L 103.33993 171.2016 
" clip-path="url(#p708415c48c)" style="fill: #f8f500"/>
   </g>
   <g id="PathCollection_8">
    <path d="M 103.33993 212.540806 
L 103.075316 212.513033 
L 102.425347 212.448183 
L 101.265421 212.320839 
L 100.506437 212.245912 
L 100.087241 212.200237 
L 99.225573 212.11559 
L 98.355133 212.021459 
L 97.398786 211.928493 
L 97.097512 211.896156 
L 96.030346 211.792922 
L 95.441147 211.730151 
L 94.292872 211.62022 
L 94.106189 211.600478 
L 92.839489 211.479796 
L 92.523592 211.446636 
L 91.188628 211.320753 
L 91.113328 211.312907 
L 89.652836 211.175848 
L 89.602588 211.17065 
L 89.04011 211.1184 
L 88.119116 211.032458 
L 88.085982 211.029709 
L 86.679552 210.899098 
L 86.470771 210.881913 
L 85.12375 210.758089 
L 84.984869 210.746745 
L 83.753518 210.634094 
L 83.292721 210.596746 
L 82.126971 210.491169 
L 81.885264 210.471728 
L 80.824275 210.376094 
L 80.118417 210.319755 
L 79.128826 210.231445 
L 78.787114 210.204378 
L 77.891929 210.124868 
L 76.947722 210.050644 
L 76.129362 209.978676 
L 75.690367 209.944426 
L 74.956581 209.880197 
L 73.780509 209.789132 
L 73.128622 209.732631 
L 72.594976 209.691618 
L 72.018327 209.641869 
L 70.616653 209.534951 
L 70.126648 209.493088 
L 69.500894 209.44571 
L 69.077259 209.409684 
L 67.456039 209.287847 
L 67.12348 209.259838 
L 66.408077 209.20647 
L 66.133466 209.183447 
L 64.298554 209.047574 
L 64.119157 209.032677 
L 63.316483 208.973674 
L 63.187034 208.962974 
L 61.144092 208.8139 
L 61.113715 208.811413 
L 60.490685 208.76628 
L 60.207072 208.74581 
L 58.253251 208.604962 
L 57.992861 208.587281 
L 57.62857 208.559948 
L 57.62857 211.1184 
L 57.62857 214.4448 
L 57.62857 217.7712 
L 57.62857 221.0976 
L 57.62857 224.424 
L 57.62857 227.7504 
L 57.62857 231.0768 
L 57.62857 234.4032 
L 57.62857 237.7296 
L 57.62857 240.934131 
L 57.680117 240.943467 
L 58.289566 241.056 
L 59.005979 241.188296 
L 59.37561 241.257948 
L 61.131075 241.584501 
L 61.531061 241.660633 
L 63.225062 241.983194 
L 63.472277 242.03028 
L 64.145259 242.159108 
L 64.237097 242.177408 
L 66.093527 242.534639 
L 66.433189 242.60282 
L 67.084586 242.728829 
L 67.583095 242.829221 
L 68.889627 243.083301 
L 69.599088 243.227236 
L 70.021764 243.309872 
L 70.935924 243.495949 
L 71.680953 243.642387 
L 72.767563 243.865228 
L 72.956724 243.902609 
L 74.295842 244.178152 
L 74.467352 244.212228 
L 75.288136 244.3824 
L 75.889469 244.50702 
L 75.938773 244.517637 
L 77.249991 244.790276 
L 77.6648 244.880089 
L 78.820181 245.122139 
L 79.112989 245.185885 
L 80.028088 245.378241 
L 81.042092 245.60022 
L 81.748506 245.749845 
L 82.290035 245.869052 
L 82.800949 245.977637 
L 84.427312 246.337659 
L 84.674361 246.390571 
L 85.470017 246.567694 
L 85.568402 246.588838 
L 86.219121 246.73452 
L 87.371434 246.992318 
L 88.867513 247.333425 
L 89.326121 247.437158 
L 89.806679 247.54589 
L 89.909062 247.569067 
L 90.513116 247.7088 
L 91.987051 248.04851 
L 92.23398 248.106645 
L 93.42389 248.386948 
L 94.053406 248.533707 
L 94.651579 248.676175 
L 94.680554 248.68308 
L 96.590493 249.137826 
L 96.89958 249.214253 
L 97.56055 249.372539 
L 98.064469 249.497595 
L 99.333142 249.803177 
L 100.094906 249.993761 
L 100.472737 250.085303 
L 101.499166 250.343048 
L 102.06959 250.482066 
L 103.293787 250.792009 
L 103.33993 250.80324 
L 103.33993 247.7088 
L 103.33993 244.3824 
L 103.33993 241.056 
L 103.33993 237.7296 
L 103.33993 234.4032 
L 103.33993 231.0768 
L 103.33993 227.7504 
L 103.33993 224.424 
L 103.33993 221.0976 
L 103.33993 217.7712 
L 103.33993 214.4448 
" clip-path="url(#p708415c48c)" style="fill: #ff9400"/>
   </g>
   <g id="PathCollection_9">
    <path d="M 103.33993 250.80324 
L 103.293787 250.792009 
L 102.06959 250.482066 
L 101.499166 250.343048 
L 100.472737 250.085303 
L 100.094906 249.993761 
L 99.333142 249.803177 
L 98.064469 249.497595 
L 97.56055 249.372539 
L 96.89958 249.214253 
L 96.590493 249.137826 
L 94.680554 248.68308 
L 94.651579 248.676175 
L 94.053406 248.533707 
L 93.42389 248.386948 
L 92.23398 248.106645 
L 91.987051 248.04851 
L 90.513116 247.7088 
L 89.909062 247.569067 
L 89.806679 247.54589 
L 89.326121 247.437158 
L 88.867513 247.333425 
L 87.371434 246.992318 
L 86.219121 246.73452 
L 85.568402 246.588838 
L 85.470017 246.567694 
L 84.674361 246.390571 
L 84.427312 246.337659 
L 82.800949 245.977637 
L 82.290035 245.869052 
L 81.748506 245.749845 
L 81.042092 245.60022 
L 80.028088 245.378241 
L 79.112989 245.185885 
L 78.820181 245.122139 
L 77.6648 244.880089 
L 77.249991 244.790276 
L 75.938773 244.517637 
L 75.889469 244.50702 
L 75.288136 244.3824 
L 74.467352 244.212228 
L 74.295842 244.178152 
L 72.956724 243.902609 
L 72.767563 243.865228 
L 71.680953 243.642387 
L 70.935924 243.495949 
L 70.021764 243.309872 
L 69.599088 243.227236 
L 68.889627 243.083301 
L 67.583095 242.829221 
L 67.084586 242.728829 
L 66.433189 242.60282 
L 66.093527 242.534639 
L 64.237097 242.177408 
L 64.145259 242.159108 
L 63.472277 242.03028 
L 63.225062 241.983194 
L 61.531061 241.660633 
L 61.131075 241.584501 
L 59.37561 241.257948 
L 59.005979 241.188296 
L 58.289566 241.056 
L 57.680117 240.943467 
L 57.62857 240.934131 
L 57.62857 241.056 
L 57.62857 244.3824 
L 57.62857 247.7088 
L 57.62857 251.0352 
L 57.62857 254.3616 
L 57.62857 257.688 
L 57.62857 261.0144 
L 57.62857 264.3408 
L 57.62857 267.6672 
L 57.62857 270.9936 
L 57.62857 273.499162 
L 57.962643 273.590688 
L 58.520306 273.748526 
L 59.483999 274.020039 
L 60.536758 274.32 
L 61.800177 274.68128 
L 62.974857 275.020942 
L 63.919323 275.29428 
L 64.156579 275.363446 
L 64.208438 275.378844 
L 66.040133 275.915203 
L 66.466532 276.042554 
L 67.042978 276.212123 
L 67.732157 276.418638 
L 68.722856 276.711377 
L 69.696551 277.00491 
L 69.927 277.073322 
L 71.264827 277.477973 
L 71.400583 277.518458 
L 71.820995 277.6464 
L 72.8084 277.94834 
L 72.930171 277.986245 
L 74.073108 278.336896 
L 74.811486 278.567848 
L 75.687008 278.838075 
L 76.167892 278.989198 
L 76.740509 279.166523 
L 78.368665 279.68069 
L 78.563065 279.741259 
L 79.373817 279.99852 
L 79.424855 280.014826 
L 80.990085 280.51539 
L 82.404719 280.9728 
L 83.085834 281.193294 
L 83.234163 281.241828 
L 84.167715 281.54795 
L 84.919353 281.793642 
L 85.383682 281.94708 
L 85.494708 281.983775 
L 85.522805 281.993219 
L 87.356459 282.602151 
L 87.809922 282.75555 
L 88.360814 282.939403 
L 89.122028 283.197846 
L 89.996657 283.491162 
L 91.066267 283.856661 
L 91.224106 283.909861 
L 92.3593 284.2992 
L 92.631074 284.392793 
L 92.733224 284.428609 
L 94.084262 284.896844 
L 94.327303 284.982488 
L 95.259801 285.306845 
L 96.361744 285.697195 
L 96.94133 285.900104 
L 97.592847 286.132079 
L 97.882579 286.233886 
L 99.048743 286.65132 
L 99.619687 286.856167 
L 101.740929 287.6256 
L 101.794623 287.645128 
L 101.867405 287.671887 
L 103.110067 288.12741 
L 103.33993 288.213439 
L 103.33993 287.6256 
L 103.33993 284.2992 
L 103.33993 280.9728 
L 103.33993 277.6464 
L 103.33993 274.32 
L 103.33993 270.9936 
L 103.33993 267.6672 
L 103.33993 264.3408 
L 103.33993 261.0144 
L 103.33993 257.688 
L 103.33993 254.3616 
L 103.33993 251.0352 
" clip-path="url(#p708415c48c)" style="fill: #ff3800"/>
   </g>
   <g id="PathCollection_10">
    <path d="M 103.33993 288.213439 
L 103.110067 288.12741 
L 101.867405 287.671887 
L 101.794623 287.645128 
L 101.740929 287.6256 
L 99.619687 286.856167 
L 99.048743 286.65132 
L 97.882579 286.233886 
L 97.592847 286.132079 
L 96.94133 285.900104 
L 96.361744 285.697195 
L 95.259801 285.306845 
L 94.327303 284.982488 
L 94.084262 284.896844 
L 92.733224 284.428609 
L 92.631074 284.392793 
L 92.3593 284.2992 
L 91.224106 283.909861 
L 91.066267 283.856661 
L 89.996657 283.491162 
L 89.122028 283.197846 
L 88.360814 282.939403 
L 87.809922 282.75555 
L 87.356459 282.602151 
L 85.522805 281.993219 
L 85.494708 281.983775 
L 85.383682 281.94708 
L 84.919353 281.793642 
L 84.167715 281.54795 
L 83.234163 281.241828 
L 83.085834 281.193294 
L 82.404719 280.9728 
L 80.990085 280.51539 
L 79.424855 280.014826 
L 79.373817 279.99852 
L 78.563065 279.741259 
L 78.368665 279.68069 
L 76.740509 279.166523 
L 76.167892 278.989198 
L 75.687008 278.838075 
L 74.811486 278.567848 
L 74.073108 278.336896 
L 72.930171 277.986245 
L 72.8084 277.94834 
L 71.820995 277.6464 
L 71.400583 277.518458 
L 71.264827 277.477973 
L 69.927 277.073322 
L 69.696551 277.00491 
L 68.722856 276.711377 
L 67.732157 276.418638 
L 67.042978 276.212123 
L 66.466532 276.042554 
L 66.040133 275.915203 
L 64.208438 275.378844 
L 64.156579 275.363446 
L 63.919323 275.29428 
L 62.974857 275.020942 
L 61.800177 274.68128 
L 60.536758 274.32 
L 59.483999 274.020039 
L 58.520306 273.748526 
L 57.962643 273.590688 
L 57.62857 273.499162 
L 57.62857 274.32 
L 57.62857 277.6464 
L 57.62857 280.9728 
L 57.62857 284.2992 
L 57.62857 287.6256 
L 57.62857 290.952 
L 57.62857 294.2784 
L 57.62857 297.6048 
L 57.62857 300.9312 
L 57.62857 304.2576 
L 57.62857 307.584 
L 59.152282 307.584 
L 60.675994 307.584 
L 62.199706 307.584 
L 63.723418 307.584 
L 65.24713 307.584 
L 66.770842 307.584 
L 68.294554 307.584 
L 69.818266 307.584 
L 71.341978 307.584 
L 72.86569 307.584 
L 74.389402 307.584 
L 75.913114 307.584 
L 77.436826 307.584 
L 78.960538 307.584 
L 80.48425 307.584 
L 82.007962 307.584 
L 83.531674 307.584 
L 85.055386 307.584 
L 86.579098 307.584 
L 88.10281 307.584 
L 89.626522 307.584 
L 91.150234 307.584 
L 92.673946 307.584 
L 94.197658 307.584 
L 95.72137 307.584 
L 97.245082 307.584 
L 98.768794 307.584 
L 100.292506 307.584 
L 101.816218 307.584 
L 103.33993 307.584 
L 103.33993 304.2576 
L 103.33993 300.9312 
L 103.33993 297.6048 
L 103.33993 294.2784 
L 103.33993 290.952 
" clip-path="url(#p708415c48c)" style="fill: #b60000"/>
   </g>
   <g id="PathCollection_11">
    <path clip-path="url(#p708415c48c)" style="fill: #0000b6"/>
   </g>
   <g id="PathCollection_12">
    <path clip-path="url(#p708415c48c)" style="fill: #0018ff"/>
   </g>
   <g id="PathCollection_13">
    <path clip-path="url(#p708415c48c)" style="fill: #0080ff"/>
   </g>
   <g id="PathCollection_14">
    <path d="M 100.4544 64.102451 
L 102.767841 61.962861 
L 102.875227 61.865603 
L 102.932323 61.81088 
L 103.02054 61.722254 
L 105.602314 59.2128 
L 106.522858 58.293068 
L 108.17761 56.61472 
L 111.268949 53.322857 
L 113.928247 50.3424 
L 115.813255 48.14504 
L 118.864979 44.46625 
L 119.111711 44.176356 
L 119.197917 44.07008 
L 119.295634 43.942576 
L 121.279096 41.472 
L 116.64384 41.472 
L 108.54912 41.472 
L 100.4544 41.472 
L 100.4544 50.3424 
L 100.4544 59.2128 
" clip-path="url(#p708415c48c)" style="fill: #00e4f8"/>
   </g>
   <g id="PathCollection_15">
    <path d="M 121.279096 41.472 
L 119.295634 43.942576 
L 119.197917 44.07008 
L 119.111711 44.176356 
L 118.864979 44.46625 
L 115.813255 48.14504 
L 113.928247 50.3424 
L 111.268949 53.322857 
L 108.17761 56.61472 
L 106.522858 58.293068 
L 105.602314 59.2128 
L 103.02054 61.722254 
L 102.932323 61.81088 
L 102.875227 61.865603 
L 102.767841 61.962861 
L 100.4544 64.102451 
L 100.4544 68.0832 
L 100.4544 76.9536 
L 100.4544 85.824 
L 100.4544 94.6944 
L 100.4544 103.5648 
L 100.4544 112.4352 
L 100.4544 121.3056 
L 100.4544 123.544996 
L 101.200701 123.279981 
L 106.029878 121.3056 
L 107.85007 120.539563 
L 110.280329 119.408497 
L 115.120701 117.276049 
L 118.840707 115.493663 
L 119.263674 115.306081 
L 119.819243 115.03328 
L 124.845797 112.483875 
L 124.939863 112.4352 
L 125.978607 111.872336 
L 129.772152 109.83712 
L 130.23035 109.582844 
L 130.656116 109.324611 
L 134.238967 107.283624 
L 140.320759 103.5648 
L 140.705793 103.3213 
L 141.897795 102.502073 
L 147.265787 98.916735 
L 149.544194 97.29248 
L 150.041882 96.956915 
L 153.09307 94.6944 
L 154.561167 93.534093 
L 156.378722 92.09632 
L 160.063346 89.052198 
L 163.686574 85.824 
L 164.816709 84.777813 
L 166.069151 83.556783 
L 168.855438 80.945997 
L 170.240953 79.55168 
L 172.233198 77.44095 
L 172.719587 76.9536 
L 172.892061 76.765311 
L 175.139806 74.35552 
L 177.054675 72.190129 
L 180.459577 68.0832 
L 181.097967 67.279923 
L 182.302521 65.699763 
L 184.620513 62.740166 
L 185.305177 61.81088 
L 186.005678 60.797222 
L 186.644338 59.920802 
L 187.197433 59.2128 
L 187.537273 58.726468 
L 187.733716 58.412744 
L 188.99024 56.61472 
L 191.591324 52.638158 
L 193.012123 50.3424 
L 195.803915 45.614461 
L 196.685848 44.07008 
L 197.920408 41.83293 
L 198.119572 41.472 
L 197.59104 41.472 
L 189.49632 41.472 
L 181.4016 41.472 
L 173.30688 41.472 
L 165.21216 41.472 
L 157.11744 41.472 
L 149.02272 41.472 
L 140.928 41.472 
L 132.83328 41.472 
L 124.73856 41.472 
" clip-path="url(#p708415c48c)" style="fill: #53ffa4"/>
   </g>
   <g id="PathCollection_16">
    <path d="M 198.119572 41.472 
L 197.920408 41.83293 
L 196.685848 44.07008 
L 195.803915 45.614461 
L 193.012123 50.3424 
L 191.591324 52.638158 
L 188.99024 56.61472 
L 187.733716 58.412744 
L 187.537273 58.726468 
L 187.197433 59.2128 
L 186.644338 59.920802 
L 186.005678 60.797222 
L 185.305177 61.81088 
L 184.620513 62.740166 
L 182.302521 65.699763 
L 181.097967 67.279923 
L 180.459577 68.0832 
L 177.054675 72.190129 
L 175.139806 74.35552 
L 172.892061 76.765311 
L 172.719587 76.9536 
L 172.233198 77.44095 
L 170.240953 79.55168 
L 168.855438 80.945997 
L 166.069151 83.556783 
L 164.816709 84.777813 
L 163.686574 85.824 
L 160.063346 89.052198 
L 156.378722 92.09632 
L 154.561167 93.534093 
L 153.09307 94.6944 
L 150.041882 96.956915 
L 149.544194 97.29248 
L 147.265787 98.916735 
L 141.897795 102.502073 
L 140.705793 103.3213 
L 140.320759 103.5648 
L 134.238967 107.283624 
L 130.656116 109.324611 
L 130.23035 109.582844 
L 129.772152 109.83712 
L 125.978607 111.872336 
L 124.939863 112.4352 
L 124.845797 112.483875 
L 119.819243 115.03328 
L 119.263674 115.306081 
L 118.840707 115.493663 
L 115.120701 117.276049 
L 110.280329 119.408497 
L 107.85007 120.539563 
L 106.029878 121.3056 
L 101.200701 123.279981 
L 100.4544 123.544996 
L 100.4544 130.176 
L 100.4544 139.0464 
L 100.4544 147.9168 
L 100.4544 156.7872 
L 100.4544 165.6576 
L 100.4544 171.083499 
L 101.806406 170.95119 
L 105.057773 170.702093 
L 112.824596 169.842825 
L 114.813718 169.68631 
L 118.636352 169.256697 
L 119.842377 169.162638 
L 127.793965 168.25568 
L 129.917937 168.008549 
L 132.873666 167.677134 
L 137.994201 166.989268 
L 142.63084 166.430529 
L 143.592469 166.319052 
L 148.320545 165.6576 
L 155.00921 164.700662 
L 161.51069 163.663479 
L 165.368092 163.05952 
L 167.45128 162.710919 
L 168.008036 162.593808 
L 177.167033 161.017254 
L 180.044059 160.378652 
L 182.58899 159.928506 
L 187.665647 158.793298 
L 190.803939 158.220122 
L 196.838941 156.7872 
L 197.527259 156.618464 
L 197.67095 156.575793 
L 204.050969 154.995755 
L 208.601819 153.591708 
L 212.210678 152.634199 
L 215.786826 151.479297 
L 216.786233 151.210581 
L 218.846778 150.51488 
L 223.793325 148.787448 
L 224.472675 148.561621 
L 226.106753 147.9168 
L 232.3668 145.330518 
L 232.393378 145.31872 
L 240.413805 141.620675 
L 245.062372 139.0464 
L 245.963261 138.527609 
L 246.484775 138.185495 
L 251.01729 135.499444 
L 254.902766 132.77408 
L 256.840052 131.349788 
L 257.409561 130.959346 
L 258.362997 130.176 
L 261.137324 127.865743 
L 261.420469 127.57792 
L 263.886691 125.374178 
L 267.970553 121.3056 
L 269.238376 119.984972 
L 273.36864 115.03328 
L 274.102176 114.095885 
L 275.378962 112.4352 
L 277.002992 110.044567 
L 277.114762 109.83712 
L 279.514019 106.146278 
L 281.051593 103.5648 
L 283.187662 99.789355 
L 284.428032 97.29248 
L 285.33853 95.281949 
L 285.656233 94.6944 
L 285.823286 94.326884 
L 286.865329 92.09632 
L 288.608329 87.98866 
L 289.419097 85.824 
L 291.173564 80.84829 
L 291.674219 79.55168 
L 291.766581 79.28378 
L 292.166298 78.327247 
L 292.627569 76.9536 
L 293.296505 74.588803 
L 293.344694 74.35552 
L 294.979116 68.748388 
L 295.161338 68.0832 
L 296.066632 64.540926 
L 296.781375 61.81088 
L 296.806191 61.738298 
L 297.505635 59.2128 
L 297.777415 57.960386 
L 297.929002 56.991658 
L 298.014326 56.61472 
L 298.252347 55.35038 
L 299.364003 50.3424 
L 299.999579 47.249081 
L 300.596425 44.07008 
L 300.851764 42.366483 
L 301.034716 41.472 
L 294.72768 41.472 
L 286.63296 41.472 
L 278.53824 41.472 
L 270.44352 41.472 
L 262.3488 41.472 
L 254.25408 41.472 
L 246.15936 41.472 
L 238.06464 41.472 
L 229.96992 41.472 
L 221.8752 41.472 
L 213.78048 41.472 
L 205.68576 41.472 
" clip-path="url(#p708415c48c)" style="fill: #a4ff53"/>
   </g>
   <g id="PathCollection_17">
    <path d="M 301.034716 41.472 
L 300.851764 42.366483 
L 300.596425 44.07008 
L 299.999579 47.249081 
L 299.364003 50.3424 
L 298.252347 55.35038 
L 298.014326 56.61472 
L 297.929002 56.991658 
L 297.777415 57.960386 
L 297.505635 59.2128 
L 296.806191 61.738298 
L 296.781375 61.81088 
L 296.066632 64.540926 
L 295.161338 68.0832 
L 294.979116 68.748388 
L 293.344694 74.35552 
L 293.296505 74.588803 
L 292.627569 76.9536 
L 292.166298 78.327247 
L 291.766581 79.28378 
L 291.674219 79.55168 
L 291.173564 80.84829 
L 289.419097 85.824 
L 288.608329 87.98866 
L 286.865329 92.09632 
L 285.823286 94.326884 
L 285.656233 94.6944 
L 285.33853 95.281949 
L 284.428032 97.29248 
L 283.187662 99.789355 
L 281.051593 103.5648 
L 279.514019 106.146278 
L 277.114762 109.83712 
L 277.002992 110.044567 
L 275.378962 112.4352 
L 274.102176 114.095885 
L 273.36864 115.03328 
L 269.238376 119.984972 
L 267.970553 121.3056 
L 263.886691 125.374178 
L 261.420469 127.57792 
L 261.137324 127.865743 
L 258.362997 130.176 
L 257.409561 130.959346 
L 256.840052 131.349788 
L 254.902766 132.77408 
L 251.01729 135.499444 
L 246.484775 138.185495 
L 245.963261 138.527609 
L 245.062372 139.0464 
L 240.413805 141.620675 
L 232.393378 145.31872 
L 232.3668 145.330518 
L 226.106753 147.9168 
L 224.472675 148.561621 
L 223.793325 148.787448 
L 218.846778 150.51488 
L 216.786233 151.210581 
L 215.786826 151.479297 
L 212.210678 152.634199 
L 208.601819 153.591708 
L 204.050969 154.995755 
L 197.67095 156.575793 
L 197.527259 156.618464 
L 196.838941 156.7872 
L 190.803939 158.220122 
L 187.665647 158.793298 
L 182.58899 159.928506 
L 180.044059 160.378652 
L 177.167033 161.017254 
L 168.008036 162.593808 
L 167.45128 162.710919 
L 165.368092 163.05952 
L 161.51069 163.663479 
L 155.00921 164.700662 
L 148.320545 165.6576 
L 143.592469 166.319052 
L 142.63084 166.430529 
L 137.994201 166.989268 
L 132.873666 167.677134 
L 129.917937 168.008549 
L 127.793965 168.25568 
L 119.842377 169.162638 
L 118.636352 169.256697 
L 114.813718 169.68631 
L 112.824596 169.842825 
L 105.057773 170.702093 
L 101.806406 170.95119 
L 100.4544 171.083499 
L 100.4544 174.528 
L 100.4544 183.3984 
L 100.4544 192.2688 
L 100.4544 201.1392 
L 100.4544 210.0096 
L 100.4544 212.225485 
L 101.334571 212.338143 
L 106.0194 212.781731 
L 111.737342 213.503335 
L 115.192197 213.850002 
L 118.247263 214.251546 
L 120.642057 214.498652 
L 130.006547 215.782394 
L 130.625536 215.850312 
L 133.640844 216.28192 
L 134.650766 216.419302 
L 135.956427 216.623375 
L 143.457731 217.731741 
L 150.34898 218.88 
L 155.277788 219.715029 
L 161.600131 220.914719 
L 164.565653 221.47808 
L 167.374722 222.029221 
L 168.280393 222.242248 
L 176.742349 223.985725 
L 180.319553 224.887785 
L 182.319664 225.321609 
L 188.823845 227.013484 
L 189.936441 227.268104 
L 191.653731 227.7504 
L 197.033134 229.226371 
L 198.30336 229.634882 
L 202.801344 230.911216 
L 211.174474 233.765072 
L 211.472249 233.856955 
L 211.929689 234.02272 
L 213.724341 234.625228 
L 218.938433 236.6208 
L 220.127284 237.054719 
L 220.540467 237.226643 
L 225.314 239.21888 
L 226.977336 239.90015 
L 228.052177 240.417702 
L 231.34244 241.860122 
L 237.635799 245.021265 
L 238.235479 245.303991 
L 238.570351 245.4912 
L 244.866446 248.911678 
L 248.240559 250.997129 
L 248.891087 251.368104 
L 249.478027 251.76352 
L 251.58041 253.148006 
L 252.91805 254.029931 
L 253.454345 254.3616 
L 253.787208 254.573516 
L 257.159857 256.95968 
L 258.887683 258.15438 
L 261.107387 259.947773 
L 263.036862 261.411693 
L 265.160657 263.232 
L 268.165372 265.728453 
L 272.036909 269.50432 
L 273.373128 270.772634 
L 273.869975 271.251785 
L 274.606367 272.1024 
L 276.912154 274.515583 
L 277.058458 274.70048 
L 279.776256 277.697559 
L 282.418349 280.9728 
L 284.4317 283.384997 
L 287.146947 287.24512 
L 288.442389 289.02189 
L 288.949763 289.8432 
L 289.923712 291.336891 
L 290.67794 292.44128 
L 291.412171 293.476419 
L 294.526184 298.7136 
L 294.651166 298.916022 
L 295.14333 299.813226 
L 297.67985 304.348937 
L 297.969894 304.98592 
L 298.212895 305.491719 
L 299.2919 307.584 
L 302.8224 307.584 
L 310.91712 307.584 
L 319.01184 307.584 
L 327.10656 307.584 
L 335.20128 307.584 
L 343.296 307.584 
L 343.296 298.7136 
L 343.296 289.8432 
L 343.296 280.9728 
L 343.296 272.1024 
L 343.296 263.232 
L 343.296 254.3616 
L 343.296 245.4912 
L 343.296 236.6208 
L 343.296 227.7504 
L 343.296 218.88 
L 343.296 210.0096 
L 343.296 201.1392 
L 343.296 192.2688 
L 343.296 183.3984 
L 343.296 174.528 
L 343.296 165.6576 
L 343.296 156.7872 
L 343.296 147.9168 
L 343.296 139.0464 
L 343.296 130.176 
L 343.296 121.3056 
L 343.296 112.4352 
L 343.296 103.5648 
L 343.296 94.6944 
L 343.296 85.824 
L 343.296 76.9536 
L 343.296 68.0832 
L 343.296 59.2128 
L 343.296 50.3424 
L 343.296 41.472 
L 335.20128 41.472 
L 327.10656 41.472 
L 319.01184 41.472 
L 310.91712 41.472 
L 302.8224 41.472 
" clip-path="url(#p708415c48c)" style="fill: #f8f500"/>
   </g>
   <g id="PathCollection_18">
    <path d="M 299.2919 307.584 
L 298.212895 305.491719 
L 297.969894 304.98592 
L 297.67985 304.348937 
L 295.14333 299.813226 
L 294.651166 298.916022 
L 294.526184 298.7136 
L 291.412171 293.476419 
L 290.67794 292.44128 
L 289.923712 291.336891 
L 288.949763 289.8432 
L 288.442389 289.02189 
L 287.146947 287.24512 
L 284.4317 283.384997 
L 282.418349 280.9728 
L 279.776256 277.697559 
L 277.058458 274.70048 
L 276.912154 274.515583 
L 274.606367 272.1024 
L 273.869975 271.251785 
L 273.373128 270.772634 
L 272.036909 269.50432 
L 268.165372 265.728453 
L 265.160657 263.232 
L 263.036862 261.411693 
L 261.107387 259.947773 
L 258.887683 258.15438 
L 257.159857 256.95968 
L 253.787208 254.573516 
L 253.454345 254.3616 
L 252.91805 254.029931 
L 251.58041 253.148006 
L 249.478027 251.76352 
L 248.891087 251.368104 
L 248.240559 250.997129 
L 244.866446 248.911678 
L 238.570351 245.4912 
L 238.235479 245.303991 
L 237.635799 245.021265 
L 231.34244 241.860122 
L 228.052177 240.417702 
L 226.977336 239.90015 
L 225.314 239.21888 
L 220.540467 237.226643 
L 220.127284 237.054719 
L 218.938433 236.6208 
L 213.724341 234.625228 
L 211.929689 234.02272 
L 211.472249 233.856955 
L 211.174474 233.765072 
L 202.801344 230.911216 
L 198.30336 229.634882 
L 197.033134 229.226371 
L 191.653731 227.7504 
L 189.936441 227.268104 
L 188.823845 227.013484 
L 182.319664 225.321609 
L 180.319553 224.887785 
L 176.742349 223.985725 
L 168.280393 222.242248 
L 167.374722 222.029221 
L 164.565653 221.47808 
L 161.600131 220.914719 
L 155.277788 219.715029 
L 150.34898 218.88 
L 143.457731 217.731741 
L 135.956427 216.623375 
L 134.650766 216.419302 
L 133.640844 216.28192 
L 130.625536 215.850312 
L 130.006547 215.782394 
L 120.642057 214.498652 
L 118.247263 214.251546 
L 115.192197 213.850002 
L 111.737342 213.503335 
L 106.0194 212.781731 
L 101.334571 212.338143 
L 100.4544 212.225485 
L 100.4544 218.88 
L 100.4544 227.7504 
L 100.4544 236.6208 
L 100.4544 245.4912 
L 100.4544 250.076183 
L 102.372723 250.566231 
L 103.646694 250.863403 
L 107.082363 251.76352 
L 111.648734 252.954667 
L 112.898073 253.281976 
L 116.72258 254.3616 
L 121.674148 255.752554 
L 125.717173 256.95968 
L 129.450537 258.068496 
L 131.084197 258.604703 
L 134.218171 259.568194 
L 139.072092 261.198249 
L 141.947953 262.11431 
L 145.109817 263.232 
L 148.565218 264.442347 
L 149.633863 264.848813 
L 154.160251 266.472563 
L 161.816848 269.50432 
L 162.366296 269.719914 
L 168.067501 272.1024 
L 170.033566 272.914998 
L 170.782838 273.248077 
L 174.008887 274.70048 
L 177.579671 276.290567 
L 180.096653 277.520489 
L 182.315921 278.553912 
L 187.117804 280.9728 
L 188.754 281.786253 
L 191.707137 283.39547 
L 195.846142 285.589027 
L 198.740005 287.24512 
L 201.252813 288.742724 
L 203.158822 289.8432 
L 204.269248 290.486163 
L 207.399085 292.44128 
L 209.969283 294.019607 
L 212.702194 295.860934 
L 214.433526 296.985931 
L 216.8995 298.7136 
L 219.95591 300.816807 
L 225.463083 304.98592 
L 226.274961 305.586923 
L 228.781619 307.584 
L 229.96992 307.584 
L 238.06464 307.584 
L 246.15936 307.584 
L 254.25408 307.584 
L 262.3488 307.584 
L 270.44352 307.584 
L 278.53824 307.584 
L 286.63296 307.584 
L 294.72768 307.584 
" clip-path="url(#p708415c48c)" style="fill: #ff9400"/>
   </g>
   <g id="PathCollection_19">
    <path d="M 228.781619 307.584 
L 226.274961 305.586923 
L 225.463083 304.98592 
L 219.95591 300.816807 
L 216.8995 298.7136 
L 214.433526 296.985931 
L 212.702194 295.860934 
L 209.969283 294.019607 
L 207.399085 292.44128 
L 204.269248 290.486163 
L 203.158822 289.8432 
L 201.252813 288.742724 
L 198.740005 287.24512 
L 195.846142 285.589027 
L 191.707137 283.39547 
L 188.754 281.786253 
L 187.117804 280.9728 
L 182.315921 278.553912 
L 180.096653 277.520489 
L 177.579671 276.290567 
L 174.008887 274.70048 
L 170.782838 273.248077 
L 170.033566 272.914998 
L 168.067501 272.1024 
L 162.366296 269.719914 
L 161.816848 269.50432 
L 154.160251 266.472563 
L 149.633863 264.848813 
L 148.565218 264.442347 
L 145.109817 263.232 
L 141.947953 262.11431 
L 139.072092 261.198249 
L 134.218171 259.568194 
L 131.084197 258.604703 
L 129.450537 258.068496 
L 125.717173 256.95968 
L 121.674148 255.752554 
L 116.72258 254.3616 
L 112.898073 253.281976 
L 111.648734 252.954667 
L 107.082363 251.76352 
L 103.646694 250.863403 
L 102.372723 250.566231 
L 100.4544 250.076183 
L 100.4544 254.3616 
L 100.4544 263.232 
L 100.4544 272.1024 
L 100.4544 280.9728 
L 100.4544 287.170471 
L 102.294507 287.826764 
L 107.699167 289.8432 
L 108.165266 290.017434 
L 113.450531 292.067979 
L 114.411196 292.44128 
L 118.40928 294.043028 
L 121.759502 295.449072 
L 126.089321 297.233402 
L 129.477971 298.7136 
L 132.355655 299.977184 
L 133.511531 300.507953 
L 137.609573 302.350017 
L 143.148547 304.98592 
L 144.861823 305.798415 
L 148.474067 307.584 
L 149.02272 307.584 
L 157.11744 307.584 
L 165.21216 307.584 
L 173.30688 307.584 
L 181.4016 307.584 
L 189.49632 307.584 
L 197.59104 307.584 
L 205.68576 307.584 
L 213.78048 307.584 
L 221.8752 307.584 
" clip-path="url(#p708415c48c)" style="fill: #ff3800"/>
   </g>
   <g id="PathCollection_20">
    <path d="M 148.474067 307.584 
L 144.861823 305.798415 
L 143.148547 304.98592 
L 137.609573 302.350017 
L 133.511531 300.507953 
L 132.355655 299.977184 
L 129.477971 298.7136 
L 126.089321 297.233402 
L 121.759502 295.449072 
L 118.40928 294.043028 
L 114.411196 292.44128 
L 113.450531 292.067979 
L 108.165266 290.017434 
L 107.699167 289.8432 
L 102.294507 287.826764 
L 100.4544 287.170471 
L 100.4544 289.8432 
L 100.4544 298.7136 
L 100.4544 307.584 
L 108.54912 307.584 
L 116.64384 307.584 
L 124.73856 307.584 
L 132.83328 307.584 
L 140.928 307.584 
" clip-path="url(#p708415c48c)" style="fill: #b60000"/>
   </g>
   <g id="matplotlib.axis_1">
    <g id="xtick_1">
     <g id="line2d_1">
      <defs>
       <path id="ma899e709ac" d="M 0 0 
L 0 3.5 
" style="stroke: #000000; stroke-width: 0.8"/>
      </defs>
      <g>
       <use xlink:href="#ma899e709ac" x="57.6" y="307.584" style="stroke: #000000; stroke-width: 0.8"/>
      </g>
     </g>
     <g id="text_1">
      <!-- 0.0 -->
      <g transform="translate(51.26875 321.385562) scale(0.1 -0.1)">
       <defs>
        <path id="Calibri-30" d="M 3022 2031 
Q 3022 1566 2948 1181 
Q 2875 797 2704 520 
Q 2534 244 2259 92 
Q 1984 -59 1581 -59 
Q 1200 -59 939 77 
Q 678 213 518 477 
Q 359 741 292 1127 
Q 225 1513 225 2013 
Q 225 2475 300 2861 
Q 375 3247 544 3523 
Q 713 3800 988 3951 
Q 1263 4103 1663 4103 
Q 2047 4103 2308 3967 
Q 2569 3831 2728 3567 
Q 2888 3303 2955 2917 
Q 3022 2531 3022 2031 
z
M 2472 1994 
Q 2472 2297 2450 2537 
Q 2428 2778 2386 2962 
Q 2344 3147 2276 3280 
Q 2209 3413 2115 3498 
Q 2022 3584 1901 3623 
Q 1781 3663 1631 3663 
Q 1366 3663 1200 3538 
Q 1034 3413 939 3194 
Q 844 2975 809 2681 
Q 775 2388 775 2050 
Q 775 1597 822 1280 
Q 869 963 970 763 
Q 1072 563 1230 472 
Q 1388 381 1613 381 
Q 1788 381 1920 437 
Q 2053 494 2148 598 
Q 2244 703 2306 850 
Q 2369 997 2406 1175 
Q 2444 1353 2458 1561 
Q 2472 1769 2472 1994 
z
" transform="scale(0.015625)"/>
        <path id="Calibri-2e" d="M 1144 341 
Q 1144 119 1070 45 
Q 997 -28 803 -28 
Q 616 -28 544 44 
Q 472 116 472 331 
Q 472 553 545 626 
Q 619 700 813 700 
Q 1000 700 1072 628 
Q 1144 556 1144 341 
z
" transform="scale(0.015625)"/>
       </defs>
       <use xlink:href="#Calibri-30"/>
       <use xlink:href="#Calibri-2e" x="50.683594"/>
       <use xlink:href="#Calibri-30" x="75.927734"/>
      </g>
     </g>
    </g>
    <g id="xtick_2">
     <g id="line2d_2">
      <g>
       <use xlink:href="#ma899e709ac" x="86.1696" y="307.584" style="stroke: #000000; stroke-width: 0.8"/>
      </g>
     </g>
     <g id="text_2">
      <!-- 0.1 -->
      <g transform="translate(79.83835 321.385562) scale(0.1 -0.1)">
       <defs>
        <path id="Calibri-31" d="M 2897 213 
Q 2897 153 2887 112 
Q 2878 72 2862 47 
Q 2847 22 2826 11 
Q 2806 0 2784 0 
L 672 0 
Q 650 0 631 11 
Q 613 22 595 47 
Q 578 72 568 112 
Q 559 153 559 213 
Q 559 269 568 309 
Q 578 350 592 376 
Q 606 403 626 417 
Q 647 431 672 431 
L 1516 431 
L 1516 3506 
L 734 3041 
Q 675 3009 639 3003 
Q 603 2997 581 3017 
Q 559 3038 551 3084 
Q 544 3131 544 3203 
Q 544 3256 548 3293 
Q 553 3331 562 3356 
Q 572 3381 589 3400 
Q 606 3419 634 3438 
L 1566 4034 
Q 1578 4044 1597 4050 
Q 1616 4056 1644 4062 
Q 1672 4069 1709 4070 
Q 1747 4072 1803 4072 
Q 1878 4072 1928 4065 
Q 1978 4059 2006 4048 
Q 2034 4038 2043 4020 
Q 2053 4003 2053 3984 
L 2053 431 
L 2784 431 
Q 2809 431 2831 417 
Q 2853 403 2867 376 
Q 2881 350 2889 309 
Q 2897 269 2897 213 
z
" transform="scale(0.015625)"/>
       </defs>
       <use xlink:href="#Calibri-30"/>
       <use xlink:href="#Calibri-2e" x="50.683594"/>
       <use xlink:href="#Calibri-31" x="75.927734"/>
      </g>
     </g>
    </g>
    <g id="xtick_3">
     <g id="line2d_3">
      <g>
       <use xlink:href="#ma899e709ac" x="114.7392" y="307.584" style="stroke: #000000; stroke-width: 0.8"/>
      </g>
     </g>
     <g id="text_3">
      <!-- 0.2 -->
      <g transform="translate(108.40795 321.385562) scale(0.1 -0.1)">
       <defs>
        <path id="Calibri-32" d="M 2888 231 
Q 2888 175 2880 131 
Q 2872 88 2858 58 
Q 2844 28 2820 14 
Q 2797 0 2769 0 
L 534 0 
Q 491 0 458 11 
Q 425 22 401 47 
Q 378 72 367 119 
Q 356 166 356 234 
Q 356 297 361 344 
Q 366 391 381 427 
Q 397 463 420 498 
Q 444 534 481 575 
L 1266 1406 
Q 1538 1694 1702 1922 
Q 1866 2150 1955 2337 
Q 2044 2525 2072 2678 
Q 2100 2831 2100 2966 
Q 2100 3100 2056 3220 
Q 2013 3341 1930 3431 
Q 1847 3522 1722 3575 
Q 1597 3628 1434 3628 
Q 1244 3628 1092 3575 
Q 941 3522 827 3459 
Q 713 3397 636 3344 
Q 559 3291 522 3291 
Q 500 3291 483 3303 
Q 466 3316 455 3344 
Q 444 3372 437 3419 
Q 431 3466 431 3531 
Q 431 3578 434 3612 
Q 438 3647 445 3672 
Q 453 3697 465 3719 
Q 478 3741 515 3773 
Q 553 3806 645 3862 
Q 738 3919 877 3973 
Q 1016 4028 1183 4065 
Q 1350 4103 1534 4103 
Q 1828 4103 2048 4020 
Q 2269 3938 2414 3794 
Q 2559 3650 2631 3459 
Q 2703 3269 2703 3053 
Q 2703 2859 2668 2667 
Q 2634 2475 2523 2251 
Q 2413 2028 2203 1754 
Q 1994 1481 1647 1125 
L 1006 456 
L 2766 456 
Q 2791 456 2814 442 
Q 2838 428 2855 400 
Q 2872 372 2880 330 
Q 2888 288 2888 231 
z
" transform="scale(0.015625)"/>
       </defs>
       <use xlink:href="#Calibri-30"/>
       <use xlink:href="#Calibri-2e" x="50.683594"/>
       <use xlink:href="#Calibri-32" x="75.927734"/>
      </g>
     </g>
    </g>
    <g id="xtick_4">
     <g id="line2d_4">
      <g>
       <use xlink:href="#ma899e709ac" x="143.3088" y="307.584" style="stroke: #000000; stroke-width: 0.8"/>
      </g>
     </g>
     <g id="text_4">
      <!-- 0.3 -->
      <g transform="translate(136.97755 321.385562) scale(0.1 -0.1)">
       <defs>
        <path id="Calibri-33" d="M 2856 1156 
Q 2856 878 2759 654 
Q 2663 431 2481 272 
Q 2300 113 2034 27 
Q 1769 -59 1434 -59 
Q 1231 -59 1054 -26 
Q 878 6 740 51 
Q 603 97 512 145 
Q 422 194 398 216 
Q 375 238 362 259 
Q 350 281 340 312 
Q 331 344 326 389 
Q 322 434 322 500 
Q 322 613 344 656 
Q 366 700 406 700 
Q 434 700 517 650 
Q 600 600 729 542 
Q 859 484 1032 434 
Q 1206 384 1419 384 
Q 1625 384 1781 437 
Q 1938 491 2044 587 
Q 2150 684 2203 817 
Q 2256 950 2256 1106 
Q 2256 1278 2189 1415 
Q 2122 1553 1992 1653 
Q 1863 1753 1673 1806 
Q 1484 1859 1244 1859 
L 859 1859 
Q 834 1859 811 1870 
Q 788 1881 770 1906 
Q 753 1931 742 1972 
Q 731 2013 731 2078 
Q 731 2138 740 2177 
Q 750 2216 767 2239 
Q 784 2263 806 2273 
Q 828 2284 856 2284 
L 1209 2284 
Q 1416 2284 1580 2337 
Q 1744 2391 1858 2491 
Q 1972 2591 2033 2730 
Q 2094 2869 2094 3041 
Q 2094 3166 2053 3280 
Q 2013 3394 1931 3478 
Q 1850 3563 1723 3611 
Q 1597 3659 1431 3659 
Q 1250 3659 1098 3604 
Q 947 3550 828 3487 
Q 709 3425 631 3370 
Q 553 3316 522 3316 
Q 500 3316 483 3323 
Q 466 3331 455 3354 
Q 444 3378 439 3420 
Q 434 3463 434 3531 
Q 434 3578 437 3614 
Q 441 3650 450 3676 
Q 459 3703 471 3725 
Q 484 3747 514 3776 
Q 544 3806 634 3862 
Q 725 3919 858 3973 
Q 991 4028 1164 4065 
Q 1338 4103 1538 4103 
Q 1819 4103 2031 4031 
Q 2244 3959 2386 3828 
Q 2528 3697 2598 3514 
Q 2669 3331 2669 3109 
Q 2669 2919 2619 2755 
Q 2569 2591 2472 2464 
Q 2375 2338 2234 2248 
Q 2094 2159 1909 2125 
L 1909 2119 
Q 2119 2097 2292 2014 
Q 2466 1931 2591 1806 
Q 2716 1681 2786 1514 
Q 2856 1347 2856 1156 
z
" transform="scale(0.015625)"/>
       </defs>
       <use xlink:href="#Calibri-30"/>
       <use xlink:href="#Calibri-2e" x="50.683594"/>
       <use xlink:href="#Calibri-33" x="75.927734"/>
      </g>
     </g>
    </g>
    <g id="xtick_5">
     <g id="line2d_5">
      <g>
       <use xlink:href="#ma899e709ac" x="171.8784" y="307.584" style="stroke: #000000; stroke-width: 0.8"/>
      </g>
     </g>
     <g id="text_5">
      <!-- 0.4 -->
      <g transform="translate(165.54715 321.385562) scale(0.1 -0.1)">
       <defs>
        <path id="Calibri-34" d="M 3059 1150 
Q 3059 1047 3028 987 
Q 2997 928 2941 928 
L 2484 928 
L 2484 78 
Q 2484 53 2471 36 
Q 2459 19 2428 6 
Q 2397 -6 2347 -12 
Q 2297 -19 2219 -19 
Q 2144 -19 2094 -12 
Q 2044 -6 2014 6 
Q 1984 19 1973 36 
Q 1963 53 1963 78 
L 1963 928 
L 294 928 
Q 256 928 231 937 
Q 206 947 186 972 
Q 166 997 158 1044 
Q 150 1091 150 1166 
Q 150 1225 153 1272 
Q 156 1319 165 1358 
Q 175 1397 190 1433 
Q 206 1469 228 1509 
L 1684 3966 
Q 1700 3991 1729 4009 
Q 1759 4028 1806 4040 
Q 1853 4053 1922 4058 
Q 1991 4063 2084 4063 
Q 2188 4063 2264 4055 
Q 2341 4047 2387 4034 
Q 2434 4022 2459 4001 
Q 2484 3981 2484 3953 
L 2484 1372 
L 2941 1372 
Q 2994 1372 3026 1317 
Q 3059 1263 3059 1150 
z
M 1963 3591 
L 1956 3591 
L 641 1372 
L 1963 1372 
L 1963 3591 
z
" transform="scale(0.015625)"/>
       </defs>
       <use xlink:href="#Calibri-30"/>
       <use xlink:href="#Calibri-2e" x="50.683594"/>
       <use xlink:href="#Calibri-34" x="75.927734"/>
      </g>
     </g>
    </g>
    <g id="xtick_6">
     <g id="line2d_6">
      <g>
       <use xlink:href="#ma899e709ac" x="200.448" y="307.584" style="stroke: #000000; stroke-width: 0.8"/>
      </g>
     </g>
     <g id="text_6">
      <!-- 0.5 -->
      <g transform="translate(194.11675 321.385562) scale(0.1 -0.1)">
       <defs>
        <path id="Calibri-35" d="M 2869 1300 
Q 2869 975 2759 722 
Q 2650 469 2450 295 
Q 2250 122 1973 31 
Q 1697 -59 1359 -59 
Q 1172 -59 1003 -32 
Q 834 -6 703 33 
Q 572 72 487 109 
Q 403 147 379 169 
Q 356 191 347 209 
Q 338 228 330 254 
Q 322 281 319 322 
Q 316 363 316 419 
Q 316 472 320 514 
Q 325 556 337 582 
Q 350 609 367 621 
Q 384 634 406 634 
Q 438 634 503 595 
Q 569 556 680 511 
Q 791 466 955 425 
Q 1119 384 1344 384 
Q 1553 384 1728 434 
Q 1903 484 2029 590 
Q 2156 697 2228 858 
Q 2300 1019 2300 1250 
Q 2300 1444 2239 1592 
Q 2178 1741 2051 1839 
Q 1925 1938 1731 1986 
Q 1538 2034 1269 2034 
Q 1078 2034 940 2015 
Q 803 1997 684 1997 
Q 597 1997 559 2037 
Q 522 2078 522 2194 
L 522 3841 
Q 522 3944 570 3994 
Q 619 4044 709 4044 
L 2500 4044 
Q 2525 4044 2548 4030 
Q 2572 4016 2587 3987 
Q 2603 3959 2611 3915 
Q 2619 3872 2619 3813 
Q 2619 3700 2587 3637 
Q 2556 3575 2500 3575 
L 991 3575 
L 991 2441 
Q 1100 2456 1214 2459 
Q 1328 2463 1478 2463 
Q 1825 2463 2084 2380 
Q 2344 2297 2517 2145 
Q 2691 1994 2780 1778 
Q 2869 1563 2869 1300 
z
" transform="scale(0.015625)"/>
       </defs>
       <use xlink:href="#Calibri-30"/>
       <use xlink:href="#Calibri-2e" x="50.683594"/>
       <use xlink:href="#Calibri-35" x="75.927734"/>
      </g>
     </g>
    </g>
    <g id="xtick_7">
     <g id="line2d_7">
      <g>
       <use xlink:href="#ma899e709ac" x="229.0176" y="307.584" style="stroke: #000000; stroke-width: 0.8"/>
      </g>
     </g>
     <g id="text_7">
      <!-- 0.6 -->
      <g transform="translate(222.68635 321.385562) scale(0.1 -0.1)">
       <defs>
        <path id="Calibri-36" d="M 2991 1309 
Q 2991 1044 2909 795 
Q 2828 547 2659 358 
Q 2491 169 2231 55 
Q 1972 -59 1619 -59 
Q 1366 -59 1172 3 
Q 978 66 834 181 
Q 691 297 595 465 
Q 500 634 442 850 
Q 384 1066 359 1322 
Q 334 1578 334 1872 
Q 334 2131 362 2397 
Q 391 2663 462 2909 
Q 534 3156 657 3373 
Q 781 3591 967 3752 
Q 1153 3913 1412 4006 
Q 1672 4100 2016 4100 
Q 2131 4100 2250 4086 
Q 2369 4072 2469 4048 
Q 2569 4025 2637 3997 
Q 2706 3969 2728 3951 
Q 2750 3934 2761 3914 
Q 2772 3894 2778 3870 
Q 2784 3847 2787 3817 
Q 2791 3788 2791 3744 
Q 2791 3688 2789 3647 
Q 2788 3606 2777 3581 
Q 2766 3556 2748 3543 
Q 2731 3531 2703 3531 
Q 2669 3531 2609 3553 
Q 2550 3575 2465 3601 
Q 2381 3628 2261 3650 
Q 2141 3672 1981 3672 
Q 1691 3672 1481 3553 
Q 1272 3434 1139 3234 
Q 1006 3034 942 2770 
Q 878 2506 869 2219 
Q 950 2266 1051 2312 
Q 1153 2359 1273 2396 
Q 1394 2434 1528 2457 
Q 1663 2481 1816 2481 
Q 2144 2481 2369 2392 
Q 2594 2303 2733 2145 
Q 2872 1988 2931 1773 
Q 2991 1559 2991 1309 
z
M 2447 1259 
Q 2447 1441 2411 1589 
Q 2375 1738 2290 1841 
Q 2206 1944 2065 2000 
Q 1925 2056 1719 2056 
Q 1603 2056 1487 2036 
Q 1372 2016 1264 1980 
Q 1156 1944 1057 1895 
Q 959 1847 878 1791 
Q 878 1388 929 1116 
Q 981 844 1079 680 
Q 1178 516 1325 445 
Q 1472 375 1669 375 
Q 1869 375 2016 450 
Q 2163 525 2259 651 
Q 2356 778 2401 936 
Q 2447 1094 2447 1259 
z
" transform="scale(0.015625)"/>
       </defs>
       <use xlink:href="#Calibri-30"/>
       <use xlink:href="#Calibri-2e" x="50.683594"/>
       <use xlink:href="#Calibri-36" x="75.927734"/>
      </g>
     </g>
    </g>
    <g id="xtick_8">
     <g id="line2d_8">
      <g>
       <use xlink:href="#ma899e709ac" x="257.5872" y="307.584" style="stroke: #000000; stroke-width: 0.8"/>
      </g>
     </g>
     <g id="text_8">
      <!-- 0.7 -->
      <g transform="translate(251.25595 321.385562) scale(0.1 -0.1)">
       <defs>
        <path id="Calibri-37" d="M 2947 3813 
Q 2947 3756 2942 3711 
Q 2938 3666 2930 3623 
Q 2922 3581 2908 3542 
Q 2894 3503 2875 3459 
L 1419 103 
Q 1403 66 1379 42 
Q 1356 19 1320 5 
Q 1284 -9 1228 -14 
Q 1172 -19 1091 -19 
Q 984 -19 925 -9 
Q 866 0 839 20 
Q 813 41 816 70 
Q 819 100 838 141 
L 2369 3572 
L 428 3572 
Q 369 3572 339 3634 
Q 309 3697 309 3809 
Q 309 3869 317 3912 
Q 325 3956 340 3986 
Q 356 4016 378 4030 
Q 400 4044 428 4044 
L 2784 4044 
Q 2828 4044 2861 4034 
Q 2894 4025 2911 3997 
Q 2928 3969 2937 3925 
Q 2947 3881 2947 3813 
z
" transform="scale(0.015625)"/>
       </defs>
       <use xlink:href="#Calibri-30"/>
       <use xlink:href="#Calibri-2e" x="50.683594"/>
       <use xlink:href="#Calibri-37" x="75.927734"/>
      </g>
     </g>
    </g>
    <g id="xtick_9">
     <g id="line2d_9">
      <g>
       <use xlink:href="#ma899e709ac" x="286.1568" y="307.584" style="stroke: #000000; stroke-width: 0.8"/>
      </g>
     </g>
     <g id="text_9">
      <!-- 0.8 -->
      <g transform="translate(279.82555 321.385562) scale(0.1 -0.1)">
       <defs>
        <path id="Calibri-38" d="M 2981 1038 
Q 2981 775 2887 570 
Q 2794 366 2617 225 
Q 2441 84 2181 12 
Q 1922 -59 1588 -59 
Q 1275 -59 1028 6 
Q 781 72 609 200 
Q 438 328 347 515 
Q 256 703 256 944 
Q 256 1134 318 1293 
Q 381 1453 498 1587 
Q 616 1722 787 1839 
Q 959 1956 1175 2063 
Q 988 2159 844 2267 
Q 700 2375 600 2501 
Q 500 2628 448 2772 
Q 397 2916 397 3084 
Q 397 3297 473 3483 
Q 550 3669 704 3806 
Q 859 3944 1098 4023 
Q 1338 4103 1656 4103 
Q 1963 4103 2186 4029 
Q 2409 3956 2554 3829 
Q 2700 3703 2769 3531 
Q 2838 3359 2838 3163 
Q 2838 3003 2786 2856 
Q 2734 2709 2634 2578 
Q 2534 2447 2389 2333 
Q 2244 2219 2056 2119 
Q 2278 2009 2451 1893 
Q 2625 1778 2742 1645 
Q 2859 1513 2920 1364 
Q 2981 1216 2981 1038 
z
M 2306 3113 
Q 2306 3244 2261 3350 
Q 2216 3456 2128 3531 
Q 2041 3606 1911 3645 
Q 1781 3684 1616 3684 
Q 1278 3684 1104 3531 
Q 931 3378 931 3113 
Q 931 2991 973 2886 
Q 1016 2781 1105 2687 
Q 1194 2594 1330 2505 
Q 1466 2416 1653 2319 
Q 1969 2481 2137 2678 
Q 2306 2875 2306 3113 
z
M 2438 981 
Q 2438 1125 2384 1242 
Q 2331 1359 2223 1461 
Q 2116 1563 1955 1658 
Q 1794 1753 1581 1856 
Q 1384 1759 1236 1662 
Q 1088 1566 992 1462 
Q 897 1359 848 1245 
Q 800 1131 800 994 
Q 800 691 1008 525 
Q 1216 359 1628 359 
Q 2028 359 2233 526 
Q 2438 694 2438 981 
z
" transform="scale(0.015625)"/>
       </defs>
       <use xlink:href="#Calibri-30"/>
       <use xlink:href="#Calibri-2e" x="50.683594"/>
       <use xlink:href="#Calibri-38" x="75.927734"/>
      </g>
     </g>
    </g>
    <g id="xtick_10">
     <g id="line2d_10">
      <g>
       <use xlink:href="#ma899e709ac" x="314.7264" y="307.584" style="stroke: #000000; stroke-width: 0.8"/>
      </g>
     </g>
     <g id="text_10">
      <!-- 0.9 -->
      <g transform="translate(308.39515 321.385562) scale(0.1 -0.1)">
       <defs>
        <path id="Calibri-39" d="M 2919 2181 
Q 2919 1919 2887 1650 
Q 2856 1381 2781 1132 
Q 2706 884 2579 667 
Q 2453 450 2261 287 
Q 2069 125 1805 33 
Q 1541 -59 1191 -59 
Q 1056 -59 929 -42 
Q 803 -25 701 0 
Q 600 25 531 53 
Q 463 81 431 109 
Q 400 138 386 186 
Q 372 234 372 316 
Q 372 384 376 425 
Q 381 466 390 487 
Q 400 509 417 517 
Q 434 525 459 525 
Q 494 525 556 501 
Q 619 478 714 450 
Q 809 422 937 398 
Q 1066 375 1225 375 
Q 1528 375 1745 492 
Q 1963 609 2100 806 
Q 2238 1003 2306 1262 
Q 2375 1522 2381 1809 
Q 2216 1713 1984 1638 
Q 1753 1563 1453 1563 
Q 1116 1563 886 1655 
Q 656 1747 517 1906 
Q 378 2066 317 2284 
Q 256 2503 256 2763 
Q 256 3031 334 3273 
Q 413 3516 578 3700 
Q 744 3884 1000 3993 
Q 1256 4103 1613 4103 
Q 1866 4103 2061 4039 
Q 2256 3975 2400 3854 
Q 2544 3734 2644 3564 
Q 2744 3394 2805 3178 
Q 2866 2963 2892 2711 
Q 2919 2459 2919 2181 
z
M 2372 2241 
Q 2372 2641 2319 2914 
Q 2266 3188 2162 3356 
Q 2059 3525 1909 3600 
Q 1759 3675 1563 3675 
Q 1359 3675 1215 3601 
Q 1072 3528 980 3404 
Q 888 3281 844 3125 
Q 800 2969 800 2803 
Q 800 2619 839 2466 
Q 878 2313 965 2206 
Q 1053 2100 1193 2042 
Q 1334 1984 1541 1984 
Q 1775 1984 1994 2054 
Q 2213 2125 2372 2241 
z
" transform="scale(0.015625)"/>
       </defs>
       <use xlink:href="#Calibri-30"/>
       <use xlink:href="#Calibri-2e" x="50.683594"/>
       <use xlink:href="#Calibri-39" x="75.927734"/>
      </g>
     </g>
    </g>
    <g id="xtick_11">
     <g id="line2d_11">
      <g>
       <use xlink:href="#ma899e709ac" x="343.296" y="307.584" style="stroke: #000000; stroke-width: 0.8"/>
      </g>
     </g>
     <g id="text_11">
      <!-- 1.0 -->
      <g transform="translate(336.96475 321.385562) scale(0.1 -0.1)">
       <use xlink:href="#Calibri-31"/>
       <use xlink:href="#Calibri-2e" x="50.683594"/>
       <use xlink:href="#Calibri-30" x="75.927734"/>
      </g>
     </g>
    </g>
    <g id="text_12">
     <!-- $\mathit{p}$ (cm$^2$/cm$^2$) -->
     <g transform="translate(174.148 336.263687) scale(0.1 -0.1)">
      <defs>
       <path id="DejaVuSans-Oblique-70" d="M 3175 2156 
Q 3175 2616 2975 2859 
Q 2775 3103 2400 3103 
Q 2144 3103 1911 2972 
Q 1678 2841 1497 2591 
Q 1319 2344 1212 1994 
Q 1106 1644 1106 1300 
Q 1106 863 1306 627 
Q 1506 391 1875 391 
Q 2147 391 2380 519 
Q 2613 647 2778 891 
Q 2956 1147 3065 1494 
Q 3175 1841 3175 2156 
z
M 1394 2969 
Q 1625 3272 1939 3428 
Q 2253 3584 2638 3584 
Q 3175 3584 3472 3232 
Q 3769 2881 3769 2247 
Q 3769 1728 3584 1258 
Q 3400 788 3053 416 
Q 2822 169 2531 39 
Q 2241 -91 1919 -91 
Q 1547 -91 1294 64 
Q 1041 219 916 525 
L 556 -1331 
L -19 -1331 
L 922 3500 
L 1497 3500 
L 1394 2969 
z
" transform="scale(0.015625)"/>
       <path id="Calibri-20" transform="scale(0.015625)"/>
       <path id="Calibri-28" d="M 1547 4306 
Q 1250 3678 1104 3017 
Q 959 2356 959 1688 
Q 959 1016 1107 356 
Q 1256 -303 1541 -938 
Q 1556 -975 1557 -1001 
Q 1559 -1028 1537 -1045 
Q 1516 -1063 1470 -1070 
Q 1425 -1078 1347 -1078 
Q 1291 -1078 1250 -1075 
Q 1209 -1072 1179 -1062 
Q 1150 -1053 1131 -1040 
Q 1113 -1028 1103 -1013 
Q 934 -694 806 -367 
Q 678 -41 590 296 
Q 503 634 459 979 
Q 416 1325 416 1678 
Q 416 2031 464 2375 
Q 513 2719 602 3058 
Q 691 3397 819 3725 
Q 947 4053 1106 4375 
Q 1109 4388 1123 4397 
Q 1138 4406 1163 4415 
Q 1188 4425 1231 4429 
Q 1275 4434 1344 4434 
Q 1416 4434 1459 4425 
Q 1503 4416 1528 4400 
Q 1553 4384 1556 4359 
Q 1559 4334 1547 4306 
z
" transform="scale(0.015625)"/>
       <path id="Calibri-63" d="M 2500 506 
Q 2500 453 2497 414 
Q 2494 375 2486 348 
Q 2478 322 2467 301 
Q 2456 281 2417 242 
Q 2378 203 2284 145 
Q 2191 88 2073 42 
Q 1956 -3 1818 -31 
Q 1681 -59 1534 -59 
Q 1231 -59 997 41 
Q 763 141 605 333 
Q 447 525 364 804 
Q 281 1084 281 1450 
Q 281 1866 382 2164 
Q 484 2463 661 2653 
Q 838 2844 1077 2936 
Q 1316 3028 1594 3028 
Q 1728 3028 1854 3003 
Q 1981 2978 2087 2937 
Q 2194 2897 2276 2844 
Q 2359 2791 2396 2753 
Q 2434 2716 2448 2694 
Q 2463 2672 2472 2642 
Q 2481 2613 2484 2575 
Q 2488 2538 2488 2481 
Q 2488 2359 2459 2311 
Q 2431 2263 2391 2263 
Q 2344 2263 2283 2314 
Q 2222 2366 2128 2428 
Q 2034 2491 1901 2542 
Q 1769 2594 1588 2594 
Q 1216 2594 1017 2308 
Q 819 2022 819 1478 
Q 819 1206 870 1001 
Q 922 797 1022 659 
Q 1122 522 1267 455 
Q 1413 388 1600 388 
Q 1778 388 1912 444 
Q 2047 500 2145 567 
Q 2244 634 2311 689 
Q 2378 744 2416 744 
Q 2438 744 2453 731 
Q 2469 719 2480 689 
Q 2491 659 2495 614 
Q 2500 569 2500 506 
z
" transform="scale(0.015625)"/>
       <path id="Calibri-6d" d="M 4650 78 
Q 4650 53 4637 36 
Q 4625 19 4597 6 
Q 4569 -6 4519 -12 
Q 4469 -19 4394 -19 
Q 4316 -19 4266 -12 
Q 4216 -6 4186 6 
Q 4156 19 4143 36 
Q 4131 53 4131 78 
L 4131 1788 
Q 4131 1966 4100 2112 
Q 4069 2259 4000 2365 
Q 3931 2472 3825 2528 
Q 3719 2584 3575 2584 
Q 3397 2584 3217 2446 
Q 3038 2309 2822 2044 
L 2822 78 
Q 2822 53 2809 36 
Q 2797 19 2767 6 
Q 2738 -6 2688 -12 
Q 2638 -19 2563 -19 
Q 2491 -19 2439 -12 
Q 2388 -6 2358 6 
Q 2328 19 2317 36 
Q 2306 53 2306 78 
L 2306 1788 
Q 2306 1966 2272 2112 
Q 2238 2259 2169 2365 
Q 2100 2472 1995 2528 
Q 1891 2584 1747 2584 
Q 1569 2584 1387 2446 
Q 1206 2309 994 2044 
L 994 78 
Q 994 53 981 36 
Q 969 19 941 6 
Q 913 -6 863 -12 
Q 813 -19 734 -19 
Q 659 -19 609 -12 
Q 559 -6 529 6 
Q 500 19 489 36 
Q 478 53 478 78 
L 478 2891 
Q 478 2916 487 2933 
Q 497 2950 525 2964 
Q 553 2978 597 2983 
Q 641 2988 713 2988 
Q 781 2988 826 2983 
Q 872 2978 897 2964 
Q 922 2950 933 2933 
Q 944 2916 944 2891 
L 944 2519 
Q 1181 2784 1404 2907 
Q 1628 3031 1856 3031 
Q 2031 3031 2170 2990 
Q 2309 2950 2415 2876 
Q 2522 2803 2597 2701 
Q 2672 2600 2722 2475 
Q 2863 2628 2989 2734 
Q 3116 2841 3233 2906 
Q 3350 2972 3461 3001 
Q 3572 3031 3684 3031 
Q 3956 3031 4140 2936 
Q 4325 2841 4439 2681 
Q 4553 2522 4601 2308 
Q 4650 2094 4650 1856 
L 4650 78 
z
" transform="scale(0.015625)"/>
       <path id="DejaVuSans-32" d="M 1228 531 
L 3431 531 
L 3431 0 
L 469 0 
L 469 531 
Q 828 903 1448 1529 
Q 2069 2156 2228 2338 
Q 2531 2678 2651 2914 
Q 2772 3150 2772 3378 
Q 2772 3750 2511 3984 
Q 2250 4219 1831 4219 
Q 1534 4219 1204 4116 
Q 875 4013 500 3803 
L 500 4441 
Q 881 4594 1212 4672 
Q 1544 4750 1819 4750 
Q 2544 4750 2975 4387 
Q 3406 4025 3406 3419 
Q 3406 3131 3298 2873 
Q 3191 2616 2906 2266 
Q 2828 2175 2409 1742 
Q 1991 1309 1228 531 
z
" transform="scale(0.015625)"/>
       <path id="Calibri-2f" d="M 525 -753 
Q 513 -794 492 -817 
Q 472 -841 440 -853 
Q 409 -866 364 -872 
Q 319 -878 253 -878 
Q 175 -878 123 -867 
Q 72 -856 44 -836 
Q 16 -816 9 -786 
Q 3 -756 22 -716 
L 1913 4469 
Q 1925 4509 1945 4532 
Q 1966 4556 1995 4570 
Q 2025 4584 2072 4589 
Q 2119 4594 2184 4594 
Q 2263 4594 2313 4583 
Q 2363 4572 2391 4553 
Q 2419 4534 2425 4503 
Q 2431 4472 2416 4431 
L 525 -753 
z
" transform="scale(0.015625)"/>
       <path id="Calibri-29" d="M 1522 1678 
Q 1522 1325 1478 979 
Q 1434 634 1346 296 
Q 1259 -41 1132 -367 
Q 1006 -694 838 -1013 
Q 828 -1028 809 -1040 
Q 791 -1053 761 -1062 
Q 731 -1072 690 -1075 
Q 650 -1078 594 -1078 
Q 513 -1078 467 -1070 
Q 422 -1063 401 -1045 
Q 381 -1028 382 -1001 
Q 384 -975 400 -938 
Q 688 -306 834 355 
Q 981 1016 981 1688 
Q 981 2356 834 3017 
Q 688 3678 394 4306 
Q 381 4334 384 4359 
Q 388 4384 413 4400 
Q 438 4416 481 4425 
Q 525 4434 597 4434 
Q 663 4434 706 4429 
Q 750 4425 776 4415 
Q 803 4406 815 4397 
Q 828 4388 834 4375 
Q 1156 3734 1339 3057 
Q 1522 2381 1522 1678 
z
" transform="scale(0.015625)"/>
      </defs>
      <use xlink:href="#DejaVuSans-Oblique-70" transform="translate(0 0.765625)"/>
      <use xlink:href="#Calibri-20" transform="translate(63.476562 0.765625)"/>
      <use xlink:href="#Calibri-28" transform="translate(84.958984 0.765625)"/>
      <use xlink:href="#Calibri-63" transform="translate(115.28125 0.765625)"/>
      <use xlink:href="#Calibri-6d" transform="translate(157.566406 0.765625)"/>
      <use xlink:href="#DejaVuSans-32" transform="translate(238.40625 39.046875) scale(0.7)"/>
      <use xlink:href="#Calibri-2f" transform="translate(285.676758 0.765625)"/>
      <use xlink:href="#Calibri-63" transform="translate(324.299805 0.765625)"/>
      <use xlink:href="#Calibri-6d" transform="translate(366.584961 0.765625)"/>
      <use xlink:href="#DejaVuSans-32" transform="translate(447.424805 39.046875) scale(0.7)"/>
      <use xlink:href="#Calibri-29" transform="translate(494.695312 0.765625)"/>
     </g>
    </g>
   </g>
   <g id="matplotlib.axis_2">
    <g id="ytick_1">
     <g id="line2d_12">
      <defs>
       <path id="m766983c750" d="M 0 0 
L -3.5 0 
" style="stroke: #000000; stroke-width: 0.8"/>
      </defs>
      <g>
       <use xlink:href="#m766983c750" x="57.6" y="275.65056" style="stroke: #000000; stroke-width: 0.8"/>
      </g>
     </g>
     <g id="text_13">
      <!-- 25 -->
      <g transform="translate(40.4625 279.051341) scale(0.1 -0.1)">
       <use xlink:href="#Calibri-32"/>
       <use xlink:href="#Calibri-35" x="50.683594"/>
      </g>
     </g>
    </g>
    <g id="ytick_2">
     <g id="line2d_13">
      <g>
       <use xlink:href="#m766983c750" x="57.6" y="242.38656" style="stroke: #000000; stroke-width: 0.8"/>
      </g>
     </g>
     <g id="text_14">
      <!-- 50 -->
      <g transform="translate(40.4625 245.787341) scale(0.1 -0.1)">
       <use xlink:href="#Calibri-35"/>
       <use xlink:href="#Calibri-30" x="50.683594"/>
      </g>
     </g>
    </g>
    <g id="ytick_3">
     <g id="line2d_14">
      <g>
       <use xlink:href="#m766983c750" x="57.6" y="209.12256" style="stroke: #000000; stroke-width: 0.8"/>
      </g>
     </g>
     <g id="text_15">
      <!-- 75 -->
      <g transform="translate(40.4625 212.523341) scale(0.1 -0.1)">
       <use xlink:href="#Calibri-37"/>
       <use xlink:href="#Calibri-35" x="50.683594"/>
      </g>
     </g>
    </g>
    <g id="ytick_4">
     <g id="line2d_15">
      <g>
       <use xlink:href="#m766983c750" x="57.6" y="175.85856" style="stroke: #000000; stroke-width: 0.8"/>
      </g>
     </g>
     <g id="text_16">
      <!-- 100 -->
      <g transform="translate(35.39375 179.259341) scale(0.1 -0.1)">
       <use xlink:href="#Calibri-31"/>
       <use xlink:href="#Calibri-30" x="50.683594"/>
       <use xlink:href="#Calibri-30" x="101.367188"/>
      </g>
     </g>
    </g>
    <g id="ytick_5">
     <g id="line2d_16">
      <g>
       <use xlink:href="#m766983c750" x="57.6" y="142.59456" style="stroke: #000000; stroke-width: 0.8"/>
      </g>
     </g>
     <g id="text_17">
      <!-- 125 -->
      <g transform="translate(35.39375 145.995341) scale(0.1 -0.1)">
       <use xlink:href="#Calibri-31"/>
       <use xlink:href="#Calibri-32" x="50.683594"/>
       <use xlink:href="#Calibri-35" x="101.367188"/>
      </g>
     </g>
    </g>
    <g id="ytick_6">
     <g id="line2d_17">
      <g>
       <use xlink:href="#m766983c750" x="57.6" y="109.33056" style="stroke: #000000; stroke-width: 0.8"/>
      </g>
     </g>
     <g id="text_18">
      <!-- 150 -->
      <g transform="translate(35.39375 112.731341) scale(0.1 -0.1)">
       <use xlink:href="#Calibri-31"/>
       <use xlink:href="#Calibri-35" x="50.683594"/>
       <use xlink:href="#Calibri-30" x="101.367188"/>
      </g>
     </g>
    </g>
    <g id="ytick_7">
     <g id="line2d_18">
      <g>
       <use xlink:href="#m766983c750" x="57.6" y="76.06656" style="stroke: #000000; stroke-width: 0.8"/>
      </g>
     </g>
     <g id="text_19">
      <!-- 175 -->
      <g transform="translate(35.39375 79.467341) scale(0.1 -0.1)">
       <use xlink:href="#Calibri-31"/>
       <use xlink:href="#Calibri-37" x="50.683594"/>
       <use xlink:href="#Calibri-35" x="101.367188"/>
      </g>
     </g>
    </g>
    <g id="ytick_8">
     <g id="line2d_19">
      <g>
       <use xlink:href="#m766983c750" x="57.6" y="42.80256" style="stroke: #000000; stroke-width: 0.8"/>
      </g>
     </g>
     <g id="text_20">
      <!-- 200 -->
      <g transform="translate(35.39375 46.203341) scale(0.1 -0.1)">
       <use xlink:href="#Calibri-32"/>
       <use xlink:href="#Calibri-30" x="50.683594"/>
       <use xlink:href="#Calibri-30" x="101.367188"/>
      </g>
     </g>
    </g>
    <g id="text_21">
     <!-- $\mathit{Z}$$_{a}$ (nm) -->
     <g transform="translate(29.59375 191.028) rotate(-90) scale(0.1 -0.1)">
      <defs>
       <path id="DejaVuSans-Oblique-5a" d="M 838 4666 
L 4500 4666 
L 4409 4184 
L 794 531 
L 3769 531 
L 3669 0 
L -141 0 
L -50 481 
L 3566 4134 
L 738 4134 
L 838 4666 
z
" transform="scale(0.015625)"/>
       <path id="DejaVuSans-Oblique-61" d="M 3438 1997 
L 3047 0 
L 2472 0 
L 2578 531 
Q 2325 219 2001 64 
Q 1678 -91 1281 -91 
Q 834 -91 548 182 
Q 263 456 263 884 
Q 263 1497 752 1853 
Q 1241 2209 2100 2209 
L 2900 2209 
L 2931 2363 
Q 2938 2388 2941 2417 
Q 2944 2447 2944 2509 
Q 2944 2788 2717 2942 
Q 2491 3097 2081 3097 
Q 1800 3097 1504 3025 
Q 1209 2953 897 2809 
L 997 3341 
Q 1322 3463 1633 3523 
Q 1944 3584 2234 3584 
Q 2853 3584 3176 3315 
Q 3500 3047 3500 2534 
Q 3500 2431 3484 2292 
Q 3469 2153 3438 1997 
z
M 2816 1759 
L 2241 1759 
Q 1534 1759 1195 1570 
Q 856 1381 856 984 
Q 856 709 1029 553 
Q 1203 397 1509 397 
Q 1978 397 2328 733 
Q 2678 1069 2791 1631 
L 2816 1759 
z
" transform="scale(0.015625)"/>
       <path id="Calibri-6e" d="M 2900 78 
Q 2900 53 2887 36 
Q 2875 19 2847 6 
Q 2819 -6 2769 -12 
Q 2719 -19 2644 -19 
Q 2566 -19 2516 -12 
Q 2466 -6 2437 6 
Q 2409 19 2396 36 
Q 2384 53 2384 78 
L 2384 1725 
Q 2384 1966 2346 2112 
Q 2309 2259 2237 2365 
Q 2166 2472 2052 2528 
Q 1938 2584 1788 2584 
Q 1594 2584 1400 2446 
Q 1206 2309 994 2044 
L 994 78 
Q 994 53 981 36 
Q 969 19 941 6 
Q 913 -6 863 -12 
Q 813 -19 734 -19 
Q 659 -19 609 -12 
Q 559 -6 529 6 
Q 500 19 489 36 
Q 478 53 478 78 
L 478 2891 
Q 478 2916 487 2933 
Q 497 2950 525 2964 
Q 553 2978 597 2983 
Q 641 2988 713 2988 
Q 781 2988 826 2983 
Q 872 2978 897 2964 
Q 922 2950 933 2933 
Q 944 2916 944 2891 
L 944 2519 
Q 1181 2784 1417 2907 
Q 1653 3031 1894 3031 
Q 2175 3031 2367 2936 
Q 2559 2841 2678 2681 
Q 2797 2522 2848 2308 
Q 2900 2094 2900 1794 
L 2900 78 
z
" transform="scale(0.015625)"/>
      </defs>
      <use xlink:href="#DejaVuSans-Oblique-5a" transform="translate(0 0.09375)"/>
      <use xlink:href="#DejaVuSans-Oblique-61" transform="translate(69.462891 -16.3125) scale(0.7)"/>
      <use xlink:href="#Calibri-20" transform="translate(115.092773 0.09375)"/>
      <use xlink:href="#Calibri-28" transform="translate(136.575195 0.09375)"/>
      <use xlink:href="#Calibri-6e" transform="translate(166.897461 0.09375)"/>
      <use xlink:href="#Calibri-6d" transform="translate(219.436523 0.09375)"/>
      <use xlink:href="#Calibri-29" transform="translate(299.319336 0.09375)"/>
     </g>
    </g>
   </g>
   <g id="patch_3">
    <path d="M 57.6 307.584 
L 57.6 41.472 
" style="fill: none; stroke: #000000; stroke-width: 0.8; stroke-linejoin: miter; stroke-linecap: square"/>
   </g>
   <g id="patch_4">
    <path d="M 343.296 307.584 
L 343.296 41.472 
" style="fill: none; stroke: #000000; stroke-width: 0.8; stroke-linejoin: miter; stroke-linecap: square"/>
   </g>
   <g id="patch_5">
    <path d="M 57.6 307.584 
L 343.296 307.584 
" style="fill: none; stroke: #000000; stroke-width: 0.8; stroke-linejoin: miter; stroke-linecap: square"/>
   </g>
   <g id="patch_6">
    <path d="M 57.6 41.472 
L 343.296 41.472 
" style="fill: none; stroke: #000000; stroke-width: 0.8; stroke-linejoin: miter; stroke-linecap: square"/>
   </g>
   <g id="text_22">
    <!-- $\lambda$ = 770 nm -->
    <g transform="translate(177.348 35.472) scale(0.1 -0.1)">
     <defs>
      <path id="DejaVuSans-Oblique-3bb" d="M 2350 4316 
L 3125 0 
L 2516 0 
L 2038 2588 
L 328 0 
L -281 0 
L 1903 3356 
L 1794 3975 
Q 1725 4369 1391 4369 
L 1091 4369 
L 1184 4863 
L 1550 4856 
Q 2253 4847 2350 4316 
z
" transform="scale(0.015625)"/>
      <path id="Calibri-3d" d="M 2891 2409 
Q 2891 2284 2855 2236 
Q 2819 2188 2772 2188 
L 409 2188 
Q 363 2188 328 2236 
Q 294 2284 294 2409 
Q 294 2522 325 2575 
Q 356 2628 409 2628 
L 2772 2628 
Q 2828 2628 2859 2575 
Q 2891 2522 2891 2409 
z
M 2891 1194 
Q 2891 1069 2855 1022 
Q 2819 975 2772 975 
L 409 975 
Q 363 975 328 1022 
Q 294 1069 294 1194 
Q 294 1309 325 1362 
Q 356 1416 409 1416 
L 2772 1416 
Q 2828 1416 2859 1362 
Q 2891 1309 2891 1194 
z
" transform="scale(0.015625)"/>
     </defs>
     <use xlink:href="#DejaVuSans-Oblique-3bb" transform="translate(0 0.015625)"/>
     <use xlink:href="#Calibri-20" transform="translate(59.179688 0.015625)"/>
     <use xlink:href="#Calibri-3d" transform="translate(81.787109 0.015625)"/>
     <use xlink:href="#Calibri-20" transform="translate(131.591797 0.015625)"/>
     <use xlink:href="#Calibri-37" transform="translate(154.199219 0.015625)"/>
     <use xlink:href="#Calibri-37" transform="translate(204.882812 0.015625)"/>
     <use xlink:href="#Calibri-30" transform="translate(255.566406 0.015625)"/>
     <use xlink:href="#Calibri-20" transform="translate(306.25 0.015625)"/>
     <use xlink:href="#Calibri-6e" transform="translate(328.857422 0.015625)"/>
     <use xlink:href="#Calibri-6d" transform="translate(381.396484 0.015625)"/>
    </g>
   </g>
  </g>
  <g id="axes_2">
   <g id="patch_7">
    <path d="M 361.152 307.584 
L 374.4576 307.584 
L 374.4576 41.472 
L 361.152 41.472 
z
" style="fill: #ffffff"/>
   </g>
   <g id="QuadMesh_1">
    <path d="M 361.152 307.584 
L 374.4576 307.584 
L 374.4576 280.9728 
L 361.152 280.9728 
L 361.152 307.584 
" clip-path="url(#p1f6d07323e)" style="fill: #0000b6"/>
    <path d="M 361.152 280.9728 
L 374.4576 280.9728 
L 374.4576 254.3616 
L 361.152 254.3616 
L 361.152 280.9728 
" clip-path="url(#p1f6d07323e)" style="fill: #0018ff"/>
    <path d="M 361.152 254.3616 
L 374.4576 254.3616 
L 374.4576 227.7504 
L 361.152 227.7504 
L 361.152 254.3616 
" clip-path="url(#p1f6d07323e)" style="fill: #0080ff"/>
    <path d="M 361.152 227.7504 
L 374.4576 227.7504 
L 374.4576 201.1392 
L 361.152 201.1392 
L 361.152 227.7504 
" clip-path="url(#p1f6d07323e)" style="fill: #00e4f8"/>
    <path d="M 361.152 201.1392 
L 374.4576 201.1392 
L 374.4576 174.528 
L 361.152 174.528 
L 361.152 201.1392 
" clip-path="url(#p1f6d07323e)" style="fill: #53ffa4"/>
    <path d="M 361.152 174.528 
L 374.4576 174.528 
L 374.4576 147.9168 
L 361.152 147.9168 
L 361.152 174.528 
" clip-path="url(#p1f6d07323e)" style="fill: #a4ff53"/>
    <path d="M 361.152 147.9168 
L 374.4576 147.9168 
L 374.4576 121.3056 
L 361.152 121.3056 
L 361.152 147.9168 
" clip-path="url(#p1f6d07323e)" style="fill: #f8f500"/>
    <path d="M 361.152 121.3056 
L 374.4576 121.3056 
L 374.4576 94.6944 
L 361.152 94.6944 
L 361.152 121.3056 
" clip-path="url(#p1f6d07323e)" style="fill: #ff9400"/>
    <path d="M 361.152 94.6944 
L 374.4576 94.6944 
L 374.4576 68.0832 
L 361.152 68.0832 
L 361.152 94.6944 
" clip-path="url(#p1f6d07323e)" style="fill: #ff3800"/>
    <path d="M 361.152 68.0832 
L 374.4576 68.0832 
L 374.4576 41.472 
L 361.152 41.472 
L 361.152 68.0832 
" clip-path="url(#p1f6d07323e)" style="fill: #b60000"/>
   </g>
   <g id="matplotlib.axis_3"/>
   <g id="matplotlib.axis_4">
    <g id="ytick_9">
     <g id="line2d_20">
      <defs>
       <path id="m310e522318" d="M 0 0 
L 3.5 0 
" style="stroke: #000000; stroke-width: 0.8"/>
      </defs>
      <g>
       <use xlink:href="#m310e522318" x="374.4576" y="307.584" style="stroke: #000000; stroke-width: 0.8"/>
      </g>
     </g>
     <g id="text_23">
      <!-- 0 -->
      <g transform="translate(381.4576 310.984781) scale(0.1 -0.1)">
       <use xlink:href="#Calibri-30"/>
      </g>
     </g>
    </g>
    <g id="ytick_10">
     <g id="line2d_21">
      <g>
       <use xlink:href="#m310e522318" x="374.4576" y="280.9728" style="stroke: #000000; stroke-width: 0.8"/>
      </g>
     </g>
     <g id="text_24">
      <!-- 0.1 -->
      <g transform="translate(381.4576 284.373581) scale(0.1 -0.1)">
       <use xlink:href="#Calibri-30"/>
       <use xlink:href="#Calibri-2e" x="50.683594"/>
       <use xlink:href="#Calibri-31" x="75.927734"/>
      </g>
     </g>
    </g>
    <g id="ytick_11">
     <g id="line2d_22">
      <g>
       <use xlink:href="#m310e522318" x="374.4576" y="254.3616" style="stroke: #000000; stroke-width: 0.8"/>
      </g>
     </g>
     <g id="text_25">
      <!-- 0.2 -->
      <g transform="translate(381.4576 257.762381) scale(0.1 -0.1)">
       <use xlink:href="#Calibri-30"/>
       <use xlink:href="#Calibri-2e" x="50.683594"/>
       <use xlink:href="#Calibri-32" x="75.927734"/>
      </g>
     </g>
    </g>
    <g id="ytick_12">
     <g id="line2d_23">
      <g>
       <use xlink:href="#m310e522318" x="374.4576" y="227.7504" style="stroke: #000000; stroke-width: 0.8"/>
      </g>
     </g>
     <g id="text_26">
      <!-- 0.3 -->
      <g transform="translate(381.4576 231.151181) scale(0.1 -0.1)">
       <use xlink:href="#Calibri-30"/>
       <use xlink:href="#Calibri-2e" x="50.683594"/>
       <use xlink:href="#Calibri-33" x="75.927734"/>
      </g>
     </g>
    </g>
    <g id="ytick_13">
     <g id="line2d_24">
      <g>
       <use xlink:href="#m310e522318" x="374.4576" y="201.1392" style="stroke: #000000; stroke-width: 0.8"/>
      </g>
     </g>
     <g id="text_27">
      <!-- 0.4 -->
      <g transform="translate(381.4576 204.539981) scale(0.1 -0.1)">
       <use xlink:href="#Calibri-30"/>
       <use xlink:href="#Calibri-2e" x="50.683594"/>
       <use xlink:href="#Calibri-34" x="75.927734"/>
      </g>
     </g>
    </g>
    <g id="ytick_14">
     <g id="line2d_25">
      <g>
       <use xlink:href="#m310e522318" x="374.4576" y="174.528" style="stroke: #000000; stroke-width: 0.8"/>
      </g>
     </g>
     <g id="text_28">
      <!-- 0.5 -->
      <g transform="translate(381.4576 177.928781) scale(0.1 -0.1)">
       <use xlink:href="#Calibri-30"/>
       <use xlink:href="#Calibri-2e" x="50.683594"/>
       <use xlink:href="#Calibri-35" x="75.927734"/>
      </g>
     </g>
    </g>
    <g id="ytick_15">
     <g id="line2d_26">
      <g>
       <use xlink:href="#m310e522318" x="374.4576" y="147.9168" style="stroke: #000000; stroke-width: 0.8"/>
      </g>
     </g>
     <g id="text_29">
      <!-- 0.6 -->
      <g transform="translate(381.4576 151.317581) scale(0.1 -0.1)">
       <use xlink:href="#Calibri-30"/>
       <use xlink:href="#Calibri-2e" x="50.683594"/>
       <use xlink:href="#Calibri-36" x="75.927734"/>
      </g>
     </g>
    </g>
    <g id="ytick_16">
     <g id="line2d_27">
      <g>
       <use xlink:href="#m310e522318" x="374.4576" y="121.3056" style="stroke: #000000; stroke-width: 0.8"/>
      </g>
     </g>
     <g id="text_30">
      <!-- 0.7 -->
      <g transform="translate(381.4576 124.706381) scale(0.1 -0.1)">
       <use xlink:href="#Calibri-30"/>
       <use xlink:href="#Calibri-2e" x="50.683594"/>
       <use xlink:href="#Calibri-37" x="75.927734"/>
      </g>
     </g>
    </g>
    <g id="ytick_17">
     <g id="line2d_28">
      <g>
       <use xlink:href="#m310e522318" x="374.4576" y="94.6944" style="stroke: #000000; stroke-width: 0.8"/>
      </g>
     </g>
     <g id="text_31">
      <!-- 0.8 -->
      <g transform="translate(381.4576 98.095181) scale(0.1 -0.1)">
       <use xlink:href="#Calibri-30"/>
       <use xlink:href="#Calibri-2e" x="50.683594"/>
       <use xlink:href="#Calibri-38" x="75.927734"/>
      </g>
     </g>
    </g>
    <g id="ytick_18">
     <g id="line2d_29">
      <g>
       <use xlink:href="#m310e522318" x="374.4576" y="68.0832" style="stroke: #000000; stroke-width: 0.8"/>
      </g>
     </g>
     <g id="text_32">
      <!-- 0.9 -->
      <g transform="translate(381.4576 71.483981) scale(0.1 -0.1)">
       <use xlink:href="#Calibri-30"/>
       <use xlink:href="#Calibri-2e" x="50.683594"/>
       <use xlink:href="#Calibri-39" x="75.927734"/>
      </g>
     </g>
    </g>
    <g id="ytick_19">
     <g id="line2d_30">
      <g>
       <use xlink:href="#m310e522318" x="374.4576" y="41.472" style="stroke: #000000; stroke-width: 0.8"/>
      </g>
     </g>
     <g id="text_33">
      <!-- 1.0 -->
      <g transform="translate(381.4576 44.872781) scale(0.1 -0.1)">
       <use xlink:href="#Calibri-31"/>
       <use xlink:href="#Calibri-2e" x="50.683594"/>
       <use xlink:href="#Calibri-30" x="75.927734"/>
      </g>
     </g>
    </g>
   </g>
   <g id="LineCollection_1"/>
   <g id="patch_8">
    <path d="M 361.152 307.584 
L 367.8048 307.584 
L 374.4576 307.584 
L 374.4576 41.472 
L 367.8048 41.472 
L 361.152 41.472 
L 361.152 307.584 
z
" style="fill: none; stroke: #000000; stroke-width: 0.8; stroke-linejoin: miter; stroke-linecap: square"/>
   </g>
   <g id="text_34">
    <!-- $\mathit{E}_{\mathrm{dis}}$/$\mathit{E}_{\mathrm{i}}$ -->
    <g transform="translate(353.2548 35.472) scale(0.1 -0.1)">
     <defs>
      <path id="DejaVuSans-Oblique-45" d="M 1081 4666 
L 4031 4666 
L 3928 4134 
L 1606 4134 
L 1338 2753 
L 3566 2753 
L 3463 2222 
L 1234 2222 
L 909 531 
L 3284 531 
L 3181 0 
L 172 0 
L 1081 4666 
z
" transform="scale(0.015625)"/>
      <path id="DejaVuSans-64" d="M 2906 2969 
L 2906 4863 
L 3481 4863 
L 3481 0 
L 2906 0 
L 2906 525 
Q 2725 213 2448 61 
Q 2172 -91 1784 -91 
Q 1150 -91 751 415 
Q 353 922 353 1747 
Q 353 2572 751 3078 
Q 1150 3584 1784 3584 
Q 2172 3584 2448 3432 
Q 2725 3281 2906 2969 
z
M 947 1747 
Q 947 1113 1208 752 
Q 1469 391 1925 391 
Q 2381 391 2643 752 
Q 2906 1113 2906 1747 
Q 2906 2381 2643 2742 
Q 2381 3103 1925 3103 
Q 1469 3103 1208 2742 
Q 947 2381 947 1747 
z
" transform="scale(0.015625)"/>
      <path id="DejaVuSans-69" d="M 603 3500 
L 1178 3500 
L 1178 0 
L 603 0 
L 603 3500 
z
M 603 4863 
L 1178 4863 
L 1178 4134 
L 603 4134 
L 603 4863 
z
" transform="scale(0.015625)"/>
      <path id="DejaVuSans-73" d="M 2834 3397 
L 2834 2853 
Q 2591 2978 2328 3040 
Q 2066 3103 1784 3103 
Q 1356 3103 1142 2972 
Q 928 2841 928 2578 
Q 928 2378 1081 2264 
Q 1234 2150 1697 2047 
L 1894 2003 
Q 2506 1872 2764 1633 
Q 3022 1394 3022 966 
Q 3022 478 2636 193 
Q 2250 -91 1575 -91 
Q 1294 -91 989 -36 
Q 684 19 347 128 
L 347 722 
Q 666 556 975 473 
Q 1284 391 1588 391 
Q 1994 391 2212 530 
Q 2431 669 2431 922 
Q 2431 1156 2273 1281 
Q 2116 1406 1581 1522 
L 1381 1569 
Q 847 1681 609 1914 
Q 372 2147 372 2553 
Q 372 3047 722 3315 
Q 1072 3584 1716 3584 
Q 2034 3584 2315 3537 
Q 2597 3491 2834 3397 
z
" transform="scale(0.015625)"/>
     </defs>
     <use xlink:href="#DejaVuSans-Oblique-45" transform="translate(0 0.09375)"/>
     <use xlink:href="#DejaVuSans-64" transform="translate(63.183594 -16.3125) scale(0.7)"/>
     <use xlink:href="#DejaVuSans-69" transform="translate(107.617188 -16.3125) scale(0.7)"/>
     <use xlink:href="#DejaVuSans-73" transform="translate(127.06543 -16.3125) scale(0.7)"/>
     <use xlink:href="#Calibri-2f" transform="translate(166.269531 0.09375)"/>
     <use xlink:href="#DejaVuSans-Oblique-45" transform="translate(204.892578 0.09375)"/>
     <use xlink:href="#DejaVuSans-69" transform="translate(268.076172 -16.3125) scale(0.7)"/>
    </g>
   </g>
  </g>
 </g>
 <defs>
  <clipPath id="p708415c48c">
   <rect x="57.6" y="41.472" width="285.696" height="266.112"/>
  </clipPath>
  <clipPath id="p1f6d07323e">
   <rect x="361.152" y="41.472" width="13.3056" height="266.112"/>
  </clipPath>
 </defs>
</svg>
