<?xml version="1.0" encoding="utf-8" standalone="no"?>
<!DOCTYPE svg PUBLIC "-//W3C//DTD SVG 1.1//EN"
  "http://www.w3.org/Graphics/SVG/1.1/DTD/svg11.dtd">
<svg xmlns:xlink="http://www.w3.org/1999/xlink" width="460.8pt" height="345.6pt" viewBox="0 0 460.8 345.6" xmlns="http://www.w3.org/2000/svg" version="1.1">
 <metadata>
  <rdf:RDF xmlns:dc="http://purl.org/dc/elements/1.1/" xmlns:cc="http://creativecommons.org/ns#" xmlns:rdf="http://www.w3.org/1999/02/22-rdf-syntax-ns#">
   <cc:Work>
    <dc:type rdf:resource="http://purl.org/dc/dcmitype/StillImage"/>
    <dc:date>2024-01-22T08:50:57.910149</dc:date>
    <dc:format>image/svg+xml</dc:format>
    <dc:creator>
     <cc:Agent>
      <dc:title>Matplotlib v3.7.1, https://matplotlib.org/</dc:title>
     </cc:Agent>
    </dc:creator>
   </cc:Work>
  </rdf:RDF>
 </metadata>
 <defs>
  <style type="text/css">*{stroke-linejoin: round; stroke-linecap: butt}</style>
 </defs>
 <g id="figure_1">
  <g id="patch_1">
   <path d="M 0 345.6 
L 460.8 345.6 
L 460.8 0 
L 0 0 
z
" style="fill: #ffffff"/>
  </g>
  <g id="axes_1">
   <g id="patch_2">
    <path d="M 57.6 307.584 
L 343.296 307.584 
L 343.296 41.472 
L 57.6 41.472 
z
" style="fill: #ffffff"/>
   </g>
   <g id="PathCollection_1">
    <path clip-path="url(#p0af56a8d60)" style="fill: #0000b6"/>
   </g>
   <g id="PathCollection_2">
    <path clip-path="url(#p0af56a8d60)" style="fill: #0018ff"/>
   </g>
   <g id="PathCollection_3">
    <path clip-path="url(#p0af56a8d60)" style="fill: #0080ff"/>
   </g>
   <g id="PathCollection_4">
    <path d="M 57.62857 91.79749 
L 57.702511 91.757703 
L 58.394926 91.368 
L 58.995792 91.026368 
L 59.422798 90.777438 
L 60.452064 90.187793 
L 60.955904 89.892749 
L 61.405788 89.634806 
L 62.458596 89.01588 
L 62.953005 88.722783 
L 64.092847 88.0416 
L 64.613364 87.728165 
L 64.784388 87.623159 
L 65.695761 87.06732 
L 66.186333 86.765565 
L 66.408351 86.625689 
L 67.057292 86.22492 
L 67.824648 85.741047 
L 68.556464 85.286973 
L 69.45615 84.7152 
L 69.778929 84.507877 
L 69.868776 84.448986 
L 70.91263 83.777897 
L 72.141904 82.96889 
L 72.49138 82.742422 
L 73.065027 82.36308 
L 74.020748 81.722161 
L 74.444285 81.438429 
L 74.517843 81.3888 
L 75.746599 80.552883 
L 75.946117 80.41452 
L 76.311474 80.161937 
L 76.553105 79.99164 
L 77.893859 79.060145 
L 78.907943 78.339597 
L 79.000835 78.274788 
L 79.299449 78.0624 
L 80.190672 77.421494 
L 81.075906 76.77076 
L 81.679806 76.332872 
L 82.44312 75.768919 
L 82.471629 75.748227 
L 82.522771 75.71028 
L 83.663959 74.855622 
L 83.822696 74.736 
L 84.908983 73.910029 
L 85.100367 73.76172 
L 85.450383 73.491411 
L 85.724042 73.276263 
L 86.985558 72.296939 
L 88.102477 71.411353 
L 88.103057 71.410901 
L 88.104696 71.4096 
L 89.217337 70.516313 
L 90.52765 69.442355 
L 90.743768 69.267345 
L 90.998459 69.05748 
L 91.223285 68.872894 
L 92.167345 68.0832 
L 92.355069 67.925497 
L 92.42929 67.861966 
L 93.316259 67.10892 
L 93.628671 66.841052 
L 93.836725 66.659077 
L 94.457196 66.124682 
L 95.521834 65.192405 
L 95.80756 64.944962 
L 96.020547 64.7568 
L 97.067512 63.820929 
L 97.496616 63.431104 
L 97.968205 63.009044 
L 98.630447 62.40468 
L 99.232451 61.849669 
L 99.367309 61.726401 
L 99.685187 61.4304 
L 100.700484 60.475065 
L 100.720734 60.45612 
L 100.736034 60.441594 
L 100.752888 60.425343 
L 102.232416 59.012599 
L 103.166227 58.104 
L 103.312582 57.959868 
L 103.33993 57.932097 
L 103.33993 54.7776 
L 103.33993 51.4512 
L 103.33993 48.1248 
L 103.33993 44.7984 
L 103.33993 41.472 
L 101.816218 41.472 
L 100.292506 41.472 
L 98.768794 41.472 
L 97.245082 41.472 
L 95.72137 41.472 
L 94.197658 41.472 
L 92.673946 41.472 
L 91.150234 41.472 
L 89.626522 41.472 
L 88.10281 41.472 
L 86.579098 41.472 
L 85.055386 41.472 
L 83.531674 41.472 
L 82.007962 41.472 
L 80.48425 41.472 
L 78.960538 41.472 
L 77.436826 41.472 
L 75.913114 41.472 
L 74.389402 41.472 
L 72.86569 41.472 
L 71.341978 41.472 
L 69.818266 41.472 
L 68.294554 41.472 
L 66.770842 41.472 
L 65.24713 41.472 
L 63.723418 41.472 
L 62.199706 41.472 
L 60.675994 41.472 
L 59.152282 41.472 
L 57.62857 41.472 
L 57.62857 44.7984 
L 57.62857 48.1248 
L 57.62857 51.4512 
L 57.62857 54.7776 
L 57.62857 58.104 
L 57.62857 61.4304 
L 57.62857 64.7568 
L 57.62857 68.0832 
L 57.62857 71.4096 
L 57.62857 74.736 
L 57.62857 78.0624 
L 57.62857 81.3888 
L 57.62857 84.7152 
L 57.62857 88.0416 
L 57.62857 91.368 
" clip-path="url(#p0af56a8d60)" style="fill: #00e4f8"/>
   </g>
   <g id="PathCollection_5">
    <path d="M 103.33993 57.932097 
L 103.312582 57.959868 
L 103.166227 58.104 
L 102.232416 59.012599 
L 100.752888 60.425343 
L 100.736034 60.441594 
L 100.720734 60.45612 
L 100.700484 60.475065 
L 99.685187 61.4304 
L 99.367309 61.726401 
L 99.232451 61.849669 
L 98.630447 62.40468 
L 97.968205 63.009044 
L 97.496616 63.431104 
L 97.067512 63.820929 
L 96.020547 64.7568 
L 95.80756 64.944962 
L 95.521834 65.192405 
L 94.457196 66.124682 
L 93.836725 66.659077 
L 93.628671 66.841052 
L 93.316259 67.10892 
L 92.42929 67.861966 
L 92.355069 67.925497 
L 92.167345 68.0832 
L 91.223285 68.872894 
L 90.998459 69.05748 
L 90.743768 69.267345 
L 90.52765 69.442355 
L 89.217337 70.516313 
L 88.104696 71.4096 
L 88.103057 71.410901 
L 88.102477 71.411353 
L 86.985558 72.296939 
L 85.724042 73.276263 
L 85.450383 73.491411 
L 85.100367 73.76172 
L 84.908983 73.910029 
L 83.822696 74.736 
L 83.663959 74.855622 
L 82.522771 75.71028 
L 82.471629 75.748227 
L 82.44312 75.768919 
L 81.679806 76.332872 
L 81.075906 76.77076 
L 80.190672 77.421494 
L 79.299449 78.0624 
L 79.000835 78.274788 
L 78.907943 78.339597 
L 77.893859 79.060145 
L 76.553105 79.99164 
L 76.311474 80.161937 
L 75.946117 80.41452 
L 75.746599 80.552883 
L 74.517843 81.3888 
L 74.444285 81.438429 
L 74.020748 81.722161 
L 73.065027 82.36308 
L 72.49138 82.742422 
L 72.141904 82.96889 
L 70.91263 83.777897 
L 69.868776 84.448986 
L 69.778929 84.507877 
L 69.45615 84.7152 
L 68.556464 85.286973 
L 67.824648 85.741047 
L 67.057292 86.22492 
L 66.408351 86.625689 
L 66.186333 86.765565 
L 65.695761 87.06732 
L 64.784388 87.623159 
L 64.613364 87.728165 
L 64.092847 88.0416 
L 62.953005 88.722783 
L 62.458596 89.01588 
L 61.405788 89.634806 
L 60.955904 89.892749 
L 60.452064 90.187793 
L 59.422798 90.777438 
L 58.995792 91.026368 
L 58.394926 91.368 
L 57.702511 91.757703 
L 57.62857 91.79749 
L 57.62857 94.6944 
L 57.62857 98.0208 
L 57.62857 101.3472 
L 57.62857 104.6736 
L 57.62857 108 
L 57.62857 111.3264 
L 57.62857 114.6528 
L 57.62857 117.9792 
L 57.62857 121.3056 
L 57.62857 124.632 
L 57.62857 127.9584 
L 57.62857 131.2848 
L 57.62857 134.6112 
L 57.62857 135.105893 
L 57.831155 135.053463 
L 59.024255 134.72697 
L 59.221448 134.673745 
L 59.258583 134.663772 
L 59.449047 134.6112 
L 61.214097 134.123758 
L 61.55399 134.027302 
L 62.936705 133.63692 
L 63.237924 133.551324 
L 63.296684 133.533878 
L 64.106341 133.302975 
L 64.356748 133.228584 
L 65.931049 132.777857 
L 66.521042 132.601356 
L 66.994811 132.465221 
L 67.874456 132.20191 
L 68.616583 131.987819 
L 69.749687 131.646242 
L 69.879702 131.608596 
L 70.953154 131.2848 
L 71.294412 131.18096 
L 71.405729 131.145624 
L 72.760503 130.730418 
L 72.984418 130.659049 
L 73.965012 130.35832 
L 74.959544 130.040129 
L 75.637232 129.830784 
L 76.224812 129.642011 
L 76.627324 129.517585 
L 78.440948 128.93268 
L 78.494883 128.915164 
L 79.025106 128.743899 
L 79.957401 128.434811 
L 80.730996 128.181524 
L 80.854251 128.141388 
L 81.401679 127.9584 
L 82.954437 127.436425 
L 84.278994 126.98412 
L 84.564172 126.886037 
L 84.632339 126.861644 
L 85.426404 126.587433 
L 85.733809 126.47734 
L 87.192607 125.971346 
L 87.896914 125.717163 
L 88.283181 125.582635 
L 89.371063 125.189688 
L 89.811413 125.035635 
L 90.920234 124.632 
L 91.135241 124.552984 
L 91.16756 124.540683 
L 92.420933 124.07965 
L 93.034354 123.845196 
L 93.981727 123.493951 
L 94.447524 123.315093 
L 95.020705 123.102386 
L 96.722667 122.446077 
L 96.823195 122.408471 
L 97.155099 122.27988 
L 98.103592 121.907119 
L 99.0316 121.543247 
L 99.629111 121.3056 
L 101.142798 120.69665 
L 102.038265 120.33132 
L 102.758071 120.035351 
L 102.966674 119.946424 
L 103.33993 119.7885 
L 103.33993 117.9792 
L 103.33993 114.6528 
L 103.33993 111.3264 
L 103.33993 108 
L 103.33993 104.6736 
L 103.33993 101.3472 
L 103.33993 98.0208 
L 103.33993 94.6944 
L 103.33993 91.368 
L 103.33993 88.0416 
L 103.33993 84.7152 
L 103.33993 81.3888 
L 103.33993 78.0624 
L 103.33993 74.736 
L 103.33993 71.4096 
L 103.33993 68.0832 
L 103.33993 64.7568 
L 103.33993 61.4304 
L 103.33993 58.104 
" clip-path="url(#p0af56a8d60)" style="fill: #53ffa4"/>
   </g>
   <g id="PathCollection_6">
    <path d="M 103.33993 119.7885 
L 102.966674 119.946424 
L 102.758071 120.035351 
L 102.038265 120.33132 
L 101.142798 120.69665 
L 99.629111 121.3056 
L 99.0316 121.543247 
L 98.103592 121.907119 
L 97.155099 122.27988 
L 96.823195 122.408471 
L 96.722667 122.446077 
L 95.020705 123.102386 
L 94.447524 123.315093 
L 93.981727 123.493951 
L 93.034354 123.845196 
L 92.420933 124.07965 
L 91.16756 124.540683 
L 91.135241 124.552984 
L 90.920234 124.632 
L 89.811413 125.035635 
L 89.371063 125.189688 
L 88.283181 125.582635 
L 87.896914 125.717163 
L 87.192607 125.971346 
L 85.733809 126.47734 
L 85.426404 126.587433 
L 84.632339 126.861644 
L 84.564172 126.886037 
L 84.278994 126.98412 
L 82.954437 127.436425 
L 81.401679 127.9584 
L 80.854251 128.141388 
L 80.730996 128.181524 
L 79.957401 128.434811 
L 79.025106 128.743899 
L 78.494883 128.915164 
L 78.440948 128.93268 
L 76.627324 129.517585 
L 76.224812 129.642011 
L 75.637232 129.830784 
L 74.959544 130.040129 
L 73.965012 130.35832 
L 72.984418 130.659049 
L 72.760503 130.730418 
L 71.405729 131.145624 
L 71.294412 131.18096 
L 70.953154 131.2848 
L 69.879702 131.608596 
L 69.749687 131.646242 
L 68.616583 131.987819 
L 67.874456 132.20191 
L 66.994811 132.465221 
L 66.521042 132.601356 
L 65.931049 132.777857 
L 64.356748 133.228584 
L 64.106341 133.302975 
L 63.296684 133.533878 
L 63.237924 133.551324 
L 62.936705 133.63692 
L 61.55399 134.027302 
L 61.214097 134.123758 
L 59.449047 134.6112 
L 59.258583 134.663772 
L 59.221448 134.673745 
L 59.024255 134.72697 
L 57.831155 135.053463 
L 57.62857 135.105893 
L 57.62857 137.9376 
L 57.62857 141.264 
L 57.62857 144.5904 
L 57.62857 147.9168 
L 57.62857 151.2432 
L 57.62857 154.5696 
L 57.62857 157.896 
L 57.62857 161.2224 
L 57.62857 164.5488 
L 57.62857 167.8752 
L 57.62857 171.2016 
L 57.62857 172.775494 
L 57.92363 172.756701 
L 58.459797 172.713355 
L 59.801482 172.618862 
L 60.416562 172.568919 
L 60.928576 172.532819 
L 61.615432 172.477121 
L 62.747378 172.397217 
L 63.508324 172.335237 
L 63.932819 172.30524 
L 64.772891 172.236905 
L 65.691593 172.171905 
L 66.600835 172.097613 
L 66.93634 172.073849 
L 67.93223 171.992584 
L 68.634077 171.942811 
L 69.694117 171.855921 
L 69.939114 171.838527 
L 71.09351 171.744028 
L 71.574775 171.709817 
L 72.788195 171.610033 
L 72.94112 171.59915 
L 74.256791 171.491101 
L 74.513629 171.4728 
L 75.883095 171.359814 
L 75.942331 171.355588 
L 77.42214 171.233661 
L 77.450581 171.231629 
L 77.813345 171.2016 
L 78.942679 171.107476 
L 78.979049 171.104036 
L 80.385918 170.986933 
L 80.591506 170.96745 
L 81.942102 170.854493 
L 82.076238 170.841753 
L 83.319281 170.737928 
L 83.763428 170.69566 
L 84.940643 170.596856 
L 85.174357 170.574566 
L 86.250554 170.484359 
L 86.937724 170.418686 
L 87.938271 170.334409 
L 88.273439 170.302306 
L 89.179666 170.226075 
L 90.114478 170.136348 
L 90.934955 170.066988 
L 91.373517 170.024798 
L 92.106545 169.962913 
L 93.293774 169.848459 
L 93.930663 169.79442 
L 94.474625 169.74186 
L 95.031112 169.694705 
L 96.475704 169.55482 
L 96.92536 169.516524 
L 97.5768 169.453296 
L 97.953287 169.421275 
L 99.660363 169.255224 
L 99.91901 169.233112 
L 100.680081 169.158907 
L 100.872984 169.142437 
L 102.84785 168.949453 
L 102.911576 168.943984 
L 103.33993 168.898339 
L 103.33993 167.8752 
L 103.33993 164.5488 
L 103.33993 161.2224 
L 103.33993 157.896 
L 103.33993 154.5696 
L 103.33993 151.2432 
L 103.33993 147.9168 
L 103.33993 144.5904 
L 103.33993 141.264 
L 103.33993 137.9376 
L 103.33993 134.6112 
L 103.33993 131.2848 
L 103.33993 127.9584 
L 103.33993 124.632 
L 103.33993 121.3056 
" clip-path="url(#p0af56a8d60)" style="fill: #a4ff53"/>
   </g>
   <g id="PathCollection_7">
    <path d="M 103.33993 168.898339 
L 102.911576 168.943984 
L 102.84785 168.949453 
L 100.872984 169.142437 
L 100.680081 169.158907 
L 99.91901 169.233112 
L 99.660363 169.255224 
L 97.953287 169.421275 
L 97.5768 169.453296 
L 96.92536 169.516524 
L 96.475704 169.55482 
L 95.031112 169.694705 
L 94.474625 169.74186 
L 93.930663 169.79442 
L 93.293774 169.848459 
L 92.106545 169.962913 
L 91.373517 170.024798 
L 90.934955 170.066988 
L 90.114478 170.136348 
L 89.179666 170.226075 
L 88.273439 170.302306 
L 87.938271 170.334409 
L 86.937724 170.418686 
L 86.250554 170.484359 
L 85.174357 170.574566 
L 84.940643 170.596856 
L 83.763428 170.69566 
L 83.319281 170.737928 
L 82.076238 170.841753 
L 81.942102 170.854493 
L 80.591506 170.96745 
L 80.385918 170.986933 
L 78.979049 171.104036 
L 78.942679 171.107476 
L 77.813345 171.2016 
L 77.450581 171.231629 
L 77.42214 171.233661 
L 75.942331 171.355588 
L 75.883095 171.359814 
L 74.513629 171.4728 
L 74.256791 171.491101 
L 72.94112 171.59915 
L 72.788195 171.610033 
L 71.574775 171.709817 
L 71.09351 171.744028 
L 69.939114 171.838527 
L 69.694117 171.855921 
L 68.634077 171.942811 
L 67.93223 171.992584 
L 66.93634 172.073849 
L 66.600835 172.097613 
L 65.691593 172.171905 
L 64.772891 172.236905 
L 63.932819 172.30524 
L 63.508324 172.335237 
L 62.747378 172.397217 
L 61.615432 172.477121 
L 60.928576 172.532819 
L 60.416562 172.568919 
L 59.801482 172.618862 
L 58.459797 172.713355 
L 57.92363 172.756701 
L 57.62857 172.775494 
L 57.62857 174.528 
L 57.62857 177.8544 
L 57.62857 181.1808 
L 57.62857 184.5072 
L 57.62857 187.8336 
L 57.62857 191.16 
L 57.62857 194.4864 
L 57.62857 197.8128 
L 57.62857 201.1392 
L 57.62857 204.4656 
L 57.62857 207.15984 
L 57.908639 207.180584 
L 58.526908 207.226497 
L 59.686861 207.308598 
L 61.49689 207.444416 
L 61.842765 207.469231 
L 62.504108 207.51674 
L 65.088408 207.713503 
L 65.166621 207.719199 
L 65.315623 207.730063 
L 66.11725 207.792 
L 68.122854 207.947262 
L 68.500401 207.97814 
L 68.704759 207.994871 
L 70.924749 208.169286 
L 71.843524 208.245531 
L 73.246905 208.357032 
L 73.720497 208.396867 
L 75.195689 208.521097 
L 75.855063 208.574275 
L 76.509911 208.630177 
L 78.102356 208.76628 
L 78.498777 208.800064 
L 78.521066 208.80219 
L 79.385921 208.876443 
L 79.460561 208.883595 
L 81.429913 209.053932 
L 81.619741 209.072304 
L 82.383553 209.138864 
L 82.636165 209.163424 
L 84.357939 209.314588 
L 84.719878 209.350128 
L 85.379816 209.408506 
L 85.815542 209.45149 
L 87.282752 209.58226 
L 87.821533 209.635946 
L 88.374661 209.685621 
L 88.998837 209.748109 
L 90.20424 209.857188 
L 90.92476 209.930054 
L 91.368038 209.970476 
L 92.1862 210.053607 
L 93.12229 210.139624 
L 94.029619 210.232762 
L 94.359893 210.263347 
L 95.377789 210.368332 
L 96.03678 210.42983 
L 97.136172 210.544398 
L 97.350172 210.564525 
L 98.573771 210.692648 
L 98.947585 210.728081 
L 100.244484 210.865303 
L 100.338817 210.874316 
L 101.774322 211.026939 
L 101.854573 211.034666 
L 102.633883 211.1184 
L 103.325893 211.19238 
L 103.33993 211.193956 
L 103.33993 211.1184 
L 103.33993 207.792 
L 103.33993 204.4656 
L 103.33993 201.1392 
L 103.33993 197.8128 
L 103.33993 194.4864 
L 103.33993 191.16 
L 103.33993 187.8336 
L 103.33993 184.5072 
L 103.33993 181.1808 
L 103.33993 177.8544 
L 103.33993 174.528 
L 103.33993 171.2016 
" clip-path="url(#p0af56a8d60)" style="fill: #f8f500"/>
   </g>
   <g id="PathCollection_8">
    <path d="M 103.33993 211.193956 
L 103.325893 211.19238 
L 102.633883 211.1184 
L 101.854573 211.034666 
L 101.774322 211.026939 
L 100.338817 210.874316 
L 100.244484 210.865303 
L 98.947585 210.728081 
L 98.573771 210.692648 
L 97.350172 210.564525 
L 97.136172 210.544398 
L 96.03678 210.42983 
L 95.377789 210.368332 
L 94.359893 210.263347 
L 94.029619 210.232762 
L 93.12229 210.139624 
L 92.1862 210.053607 
L 91.368038 209.970476 
L 90.92476 209.930054 
L 90.20424 209.857188 
L 88.998837 209.748109 
L 88.374661 209.685621 
L 87.821533 209.635946 
L 87.282752 209.58226 
L 85.815542 209.45149 
L 85.379816 209.408506 
L 84.719878 209.350128 
L 84.357939 209.314588 
L 82.636165 209.163424 
L 82.383553 209.138864 
L 81.619741 209.072304 
L 81.429913 209.053932 
L 79.460561 208.883595 
L 79.385921 208.876443 
L 78.521066 208.80219 
L 78.498777 208.800064 
L 78.102356 208.76628 
L 76.509911 208.630177 
L 75.855063 208.574275 
L 75.195689 208.521097 
L 73.720497 208.396867 
L 73.246905 208.357032 
L 71.843524 208.245531 
L 70.924749 208.169286 
L 68.704759 207.994871 
L 68.500401 207.97814 
L 68.122854 207.947262 
L 66.11725 207.792 
L 65.315623 207.730063 
L 65.166621 207.719199 
L 65.088408 207.713503 
L 62.504108 207.51674 
L 61.842765 207.469231 
L 61.49689 207.444416 
L 59.686861 207.308598 
L 58.526908 207.226497 
L 57.908639 207.180584 
L 57.62857 207.15984 
L 57.62857 207.792 
L 57.62857 211.1184 
L 57.62857 214.4448 
L 57.62857 217.7712 
L 57.62857 221.0976 
L 57.62857 224.424 
L 57.62857 227.7504 
L 57.62857 231.0768 
L 57.62857 234.4032 
L 57.62857 237.7296 
L 57.62857 239.987253 
L 58.072646 240.070079 
L 58.079614 240.07133 
L 58.134958 240.08172 
L 59.869561 240.407389 
L 61.53237 240.725963 
L 61.914978 240.798531 
L 62.38568 240.88783 
L 62.497019 240.908961 
L 63.254296 241.056 
L 64.894886 241.374522 
L 65.796954 241.553187 
L 66.556851 241.703735 
L 67.396132 241.868412 
L 68.204753 242.03028 
L 69.27395 242.24429 
L 69.418298 242.274391 
L 70.188815 242.429438 
L 70.474799 242.489271 
L 72.062072 242.81037 
L 72.588469 242.921326 
L 73.122309 243.0299 
L 73.839328 243.181539 
L 74.845254 243.387232 
L 75.76133 243.582434 
L 76.0535 243.642502 
L 77.211293 243.890042 
L 77.623341 243.975219 
L 78.936978 244.258229 
L 78.98231 244.267652 
L 79.51312 244.3824 
L 80.396796 244.57332 
L 80.591774 244.617136 
L 81.909015 244.903894 
L 82.115773 244.950616 
L 83.166282 245.180083 
L 83.981969 245.365436 
L 84.833311 245.552832 
L 85.29759 245.658924 
L 85.930346 245.798684 
L 87.380501 246.131935 
L 87.755039 246.215307 
L 88.482479 246.383424 
L 88.688808 246.429513 
L 90.001032 246.73452 
L 90.560302 246.864415 
L 91.086583 246.986714 
L 92.156132 247.240559 
L 92.978196 247.433677 
L 94.127705 247.7088 
L 95.201857 247.96573 
L 95.387182 248.010994 
L 96.303096 248.234835 
L 97.244535 248.462636 
L 97.786925 248.596669 
L 98.136393 248.68308 
L 99.672415 249.062514 
L 99.930778 249.128735 
L 100.621662 249.3004 
L 101.074983 249.417019 
L 102.405166 249.749473 
L 103.131735 249.937923 
L 103.33993 249.989919 
L 103.33993 247.7088 
L 103.33993 244.3824 
L 103.33993 241.056 
L 103.33993 237.7296 
L 103.33993 234.4032 
L 103.33993 231.0768 
L 103.33993 227.7504 
L 103.33993 224.424 
L 103.33993 221.0976 
L 103.33993 217.7712 
L 103.33993 214.4448 
" clip-path="url(#p0af56a8d60)" style="fill: #ff9400"/>
   </g>
   <g id="PathCollection_9">
    <path d="M 103.33993 249.989919 
L 103.131735 249.937923 
L 102.405166 249.749473 
L 101.074983 249.417019 
L 100.621662 249.3004 
L 99.930778 249.128735 
L 99.672415 249.062514 
L 98.136393 248.68308 
L 97.786925 248.596669 
L 97.244535 248.462636 
L 96.303096 248.234835 
L 95.387182 248.010994 
L 95.201857 247.96573 
L 94.127705 247.7088 
L 92.978196 247.433677 
L 92.156132 247.240559 
L 91.086583 246.986714 
L 90.560302 246.864415 
L 90.001032 246.73452 
L 88.688808 246.429513 
L 88.482479 246.383424 
L 87.755039 246.215307 
L 87.380501 246.131935 
L 85.930346 245.798684 
L 85.29759 245.658924 
L 84.833311 245.552832 
L 83.981969 245.365436 
L 83.166282 245.180083 
L 82.115773 244.950616 
L 81.909015 244.903894 
L 80.591774 244.617136 
L 80.396796 244.57332 
L 79.51312 244.3824 
L 78.98231 244.267652 
L 78.936978 244.258229 
L 77.623341 243.975219 
L 77.211293 243.890042 
L 76.0535 243.642502 
L 75.76133 243.582434 
L 74.845254 243.387232 
L 73.839328 243.181539 
L 73.122309 243.0299 
L 72.588469 242.921326 
L 72.062072 242.81037 
L 70.474799 242.489271 
L 70.188815 242.429438 
L 69.418298 242.274391 
L 69.27395 242.24429 
L 68.204753 242.03028 
L 67.396132 241.868412 
L 66.556851 241.703735 
L 65.796954 241.553187 
L 64.894886 241.374522 
L 63.254296 241.056 
L 62.497019 240.908961 
L 62.38568 240.88783 
L 61.914978 240.798531 
L 61.53237 240.725963 
L 59.869561 240.407389 
L 58.134958 240.08172 
L 58.079614 240.07133 
L 58.072646 240.070079 
L 57.62857 239.987253 
L 57.62857 241.056 
L 57.62857 244.3824 
L 57.62857 247.7088 
L 57.62857 251.0352 
L 57.62857 254.3616 
L 57.62857 257.688 
L 57.62857 261.0144 
L 57.62857 264.3408 
L 57.62857 267.6672 
L 57.62857 270.9936 
L 57.62857 273.00752 
L 58.032057 273.120159 
L 58.161563 273.156427 
L 58.823475 273.34572 
L 59.890931 273.652065 
L 62.192744 274.32 
L 62.19801 274.321534 
L 62.203039 274.323014 
L 62.209872 274.325028 
L 64.498022 274.997392 
L 65.497246 275.29428 
L 66.225146 275.511303 
L 66.374339 275.556653 
L 67.124702 275.781397 
L 67.491499 275.89326 
L 68.903073 276.317947 
L 69.607198 276.533979 
L 70.006437 276.654652 
L 71.032354 276.970464 
L 71.575989 277.135532 
L 72.843228 277.528017 
L 72.885693 277.540971 
L 73.22495 277.6464 
L 74.243696 277.964489 
L 74.58483 278.073038 
L 75.762006 278.442803 
L 76.083737 278.54566 
L 76.906175 278.804859 
L 78.150605 279.204644 
L 78.635696 279.358459 
L 79.327766 279.581858 
L 79.563349 279.656809 
L 80.616721 279.99852 
L 81.311659 280.224603 
L 83.422577 280.918845 
L 83.500164 280.944307 
L 83.546391 280.959492 
L 83.586462 280.9728 
L 85.376053 281.567777 
L 85.77345 281.701319 
L 86.503194 281.94708 
L 87.502013 282.284394 
L 87.735779 282.364784 
L 88.425431 282.598844 
L 88.926933 282.771935 
L 90.137065 283.184637 
L 90.995327 283.482774 
L 91.286222 283.582481 
L 92.546995 284.022056 
L 92.766295 284.097594 
L 93.340759 284.2992 
L 94.143966 284.582178 
L 94.259177 284.623436 
L 95.389732 285.023195 
L 96.183976 285.309111 
L 96.998466 285.598975 
L 97.528055 285.790595 
L 98.007232 285.961757 
L 99.834888 286.62658 
L 99.849891 286.631975 
L 99.902798 286.65132 
L 101.312495 287.170101 
L 102.028313 287.433809 
L 102.543903 287.6256 
L 103.223913 287.878874 
L 103.33993 287.922977 
L 103.33993 287.6256 
L 103.33993 284.2992 
L 103.33993 280.9728 
L 103.33993 277.6464 
L 103.33993 274.32 
L 103.33993 270.9936 
L 103.33993 267.6672 
L 103.33993 264.3408 
L 103.33993 261.0144 
L 103.33993 257.688 
L 103.33993 254.3616 
L 103.33993 251.0352 
" clip-path="url(#p0af56a8d60)" style="fill: #ff3800"/>
   </g>
   <g id="PathCollection_10">
    <path d="M 103.33993 287.922977 
L 103.223913 287.878874 
L 102.543903 287.6256 
L 102.028313 287.433809 
L 101.312495 287.170101 
L 99.902798 286.65132 
L 99.849891 286.631975 
L 99.834888 286.62658 
L 98.007232 285.961757 
L 97.528055 285.790595 
L 96.998466 285.598975 
L 96.183976 285.309111 
L 95.389732 285.023195 
L 94.259177 284.623436 
L 94.143966 284.582178 
L 93.340759 284.2992 
L 92.766295 284.097594 
L 92.546995 284.022056 
L 91.286222 283.582481 
L 90.995327 283.482774 
L 90.137065 283.184637 
L 88.926933 282.771935 
L 88.425431 282.598844 
L 87.735779 282.364784 
L 87.502013 282.284394 
L 86.503194 281.94708 
L 85.77345 281.701319 
L 85.376053 281.567777 
L 83.586462 280.9728 
L 83.546391 280.959492 
L 83.500164 280.944307 
L 83.422577 280.918845 
L 81.311659 280.224603 
L 80.616721 279.99852 
L 79.563349 279.656809 
L 79.327766 279.581858 
L 78.635696 279.358459 
L 78.150605 279.204644 
L 76.906175 278.804859 
L 76.083737 278.54566 
L 75.762006 278.442803 
L 74.58483 278.073038 
L 74.243696 277.964489 
L 73.22495 277.6464 
L 72.885693 277.540971 
L 72.843228 277.528017 
L 71.575989 277.135532 
L 71.032354 276.970464 
L 70.006437 276.654652 
L 69.607198 276.533979 
L 68.903073 276.317947 
L 67.491499 275.89326 
L 67.124702 275.781397 
L 66.374339 275.556653 
L 66.225146 275.511303 
L 65.497246 275.29428 
L 64.498022 274.997392 
L 62.209872 274.325028 
L 62.203039 274.323014 
L 62.19801 274.321534 
L 62.192744 274.32 
L 59.890931 273.652065 
L 58.823475 273.34572 
L 58.161563 273.156427 
L 58.032057 273.120159 
L 57.62857 273.00752 
L 57.62857 274.32 
L 57.62857 277.6464 
L 57.62857 280.9728 
L 57.62857 284.2992 
L 57.62857 287.6256 
L 57.62857 290.952 
L 57.62857 294.2784 
L 57.62857 297.6048 
L 57.62857 300.9312 
L 57.62857 304.2576 
L 57.62857 307.584 
L 59.152282 307.584 
L 60.675994 307.584 
L 62.199706 307.584 
L 63.723418 307.584 
L 65.24713 307.584 
L 66.770842 307.584 
L 68.294554 307.584 
L 69.818266 307.584 
L 71.341978 307.584 
L 72.86569 307.584 
L 74.389402 307.584 
L 75.913114 307.584 
L 77.436826 307.584 
L 78.960538 307.584 
L 80.48425 307.584 
L 82.007962 307.584 
L 83.531674 307.584 
L 85.055386 307.584 
L 86.579098 307.584 
L 88.10281 307.584 
L 89.626522 307.584 
L 91.150234 307.584 
L 92.673946 307.584 
L 94.197658 307.584 
L 95.72137 307.584 
L 97.245082 307.584 
L 98.768794 307.584 
L 100.292506 307.584 
L 101.816218 307.584 
L 103.33993 307.584 
L 103.33993 304.2576 
L 103.33993 300.9312 
L 103.33993 297.6048 
L 103.33993 294.2784 
L 103.33993 290.952 
" clip-path="url(#p0af56a8d60)" style="fill: #b60000"/>
   </g>
   <g id="PathCollection_11">
    <path clip-path="url(#p0af56a8d60)" style="fill: #0000b6"/>
   </g>
   <g id="PathCollection_12">
    <path clip-path="url(#p0af56a8d60)" style="fill: #0018ff"/>
   </g>
   <g id="PathCollection_13">
    <path clip-path="url(#p0af56a8d60)" style="fill: #0080ff"/>
   </g>
   <g id="PathCollection_14">
    <path d="M 100.4544 60.680895 
L 101.189224 60.018039 
L 102.038349 59.2128 
L 104.107821 57.196869 
L 104.695928 56.61472 
L 109.614136 51.509472 
L 110.681249 50.3424 
L 114.852013 45.602021 
L 116.15423 44.07008 
L 117.513822 42.425348 
L 118.298062 41.472 
L 116.64384 41.472 
L 108.54912 41.472 
L 100.4544 41.472 
L 100.4544 50.3424 
L 100.4544 59.2128 
" clip-path="url(#p0af56a8d60)" style="fill: #00e4f8"/>
   </g>
   <g id="PathCollection_15">
    <path d="M 118.298062 41.472 
L 117.513822 42.425348 
L 116.15423 44.07008 
L 114.852013 45.602021 
L 110.681249 50.3424 
L 109.614136 51.509472 
L 104.695928 56.61472 
L 104.107821 57.196869 
L 102.038349 59.2128 
L 101.189224 60.018039 
L 100.4544 60.680895 
L 100.4544 68.0832 
L 100.4544 76.9536 
L 100.4544 85.824 
L 100.4544 94.6944 
L 100.4544 103.5648 
L 100.4544 112.4352 
L 100.4544 120.9678 
L 100.60673 120.902603 
L 106.129865 118.654519 
L 114.155968 115.03328 
L 114.213758 115.006412 
L 119.62385 112.4352 
L 121.330743 111.589212 
L 122.031418 111.206413 
L 124.661947 109.83712 
L 128.552402 107.744105 
L 132.027298 105.69707 
L 133.3609 104.96065 
L 135.711376 103.5648 
L 139.055194 101.512532 
L 145.371278 97.29248 
L 145.877467 96.940991 
L 147.003661 96.202679 
L 149.094724 94.6944 
L 152.076382 92.406235 
L 152.479162 92.09632 
L 158.46 87.295211 
L 160.156849 85.824 
L 163.928788 82.428768 
L 166.959774 79.55168 
L 167.09604 79.43078 
L 169.632826 76.9536 
L 170.733379 75.785473 
L 172.102349 74.35552 
L 175.559409 70.551578 
L 177.659785 68.0832 
L 180.217393 64.950312 
L 182.673009 61.81088 
L 183.502433 60.700778 
L 184.69365 59.2128 
L 185.42046 58.200971 
L 185.838024 57.552278 
L 186.509837 56.61472 
L 190.203144 51.116956 
L 190.694833 50.3424 
L 193.066999 46.429559 
L 194.530635 44.07008 
L 194.673742 43.822062 
L 196.026077 41.472 
L 189.49632 41.472 
L 181.4016 41.472 
L 173.30688 41.472 
L 165.21216 41.472 
L 157.11744 41.472 
L 149.02272 41.472 
L 140.928 41.472 
L 132.83328 41.472 
L 124.73856 41.472 
" clip-path="url(#p0af56a8d60)" style="fill: #53ffa4"/>
   </g>
   <g id="PathCollection_16">
    <path d="M 196.026077 41.472 
L 194.673742 43.822062 
L 194.530635 44.07008 
L 193.066999 46.429559 
L 190.694833 50.3424 
L 190.203144 51.116956 
L 186.509837 56.61472 
L 185.838024 57.552278 
L 185.42046 58.200971 
L 184.69365 59.2128 
L 183.502433 60.700778 
L 182.673009 61.81088 
L 180.217393 64.950312 
L 177.659785 68.0832 
L 175.559409 70.551578 
L 172.102349 74.35552 
L 170.733379 75.785473 
L 169.632826 76.9536 
L 167.09604 79.43078 
L 166.959774 79.55168 
L 163.928788 82.428768 
L 160.156849 85.824 
L 158.46 87.295211 
L 152.479162 92.09632 
L 152.076382 92.406235 
L 149.094724 94.6944 
L 147.003661 96.202679 
L 145.877467 96.940991 
L 145.371278 97.29248 
L 139.055194 101.512532 
L 135.711376 103.5648 
L 133.3609 104.96065 
L 132.027298 105.69707 
L 128.552402 107.744105 
L 124.661947 109.83712 
L 122.031418 111.206413 
L 121.330743 111.589212 
L 119.62385 112.4352 
L 114.213758 115.006412 
L 114.155968 115.03328 
L 106.129865 118.654519 
L 100.60673 120.902603 
L 100.4544 120.9678 
L 100.4544 121.3056 
L 100.4544 130.176 
L 100.4544 139.0464 
L 100.4544 147.9168 
L 100.4544 156.7872 
L 100.4544 165.6576 
L 100.4544 169.152023 
L 102.557298 168.964665 
L 103.419052 168.906341 
L 109.840214 168.25568 
L 113.451928 167.883013 
L 116.351501 167.594536 
L 121.944717 166.925741 
L 126.47311 166.444922 
L 127.490992 166.340889 
L 133.01444 165.6576 
L 138.309396 165.007533 
L 139.206023 164.875985 
L 144.207799 164.16888 
L 150.35883 163.316403 
L 151.600437 163.153401 
L 152.236618 163.05952 
L 161.556783 161.651945 
L 163.51892 161.266762 
L 166.718531 160.772391 
L 170.318127 160.062351 
L 175.53941 159.233663 
L 180.898063 158.119335 
L 181.846732 157.964822 
L 187.472654 156.7872 
L 189.163441 156.422422 
L 190.046732 156.184045 
L 196.779993 154.641529 
L 198.594539 154.132386 
L 202.449638 153.240975 
L 211.265701 150.672559 
L 211.451788 150.626512 
L 211.818152 150.51488 
L 213.827945 149.938092 
L 219.809634 147.9168 
L 220.973389 147.507463 
L 226.765776 145.31872 
L 227.379856 145.078542 
L 227.756607 144.901846 
L 231.587915 143.326896 
L 236.156072 141.137857 
L 238.885356 139.945762 
L 240.588218 139.0464 
L 245.202204 136.514189 
L 247.712905 134.936409 
L 249.554663 133.896659 
L 251.225711 132.77408 
L 254.658724 130.35967 
L 254.750682 130.299281 
L 254.907055 130.176 
L 255.770571 129.487656 
L 258.290827 127.57792 
L 259.268537 126.800569 
L 260.809053 125.379089 
L 263.134798 123.385003 
L 265.302182 121.3056 
L 267.987468 118.614195 
L 271.081579 115.03328 
L 272.451214 113.346504 
L 273.175678 112.4352 
L 274.46186 110.611252 
L 275.073726 109.83712 
L 275.563654 109.175573 
L 277.606545 106.029652 
L 278.799861 104.256933 
L 279.225718 103.5648 
L 282.119399 98.618725 
L 282.79892 97.29248 
L 283.309023 96.203154 
L 284.148632 94.6944 
L 284.585673 93.765125 
L 285.388425 92.09632 
L 287.648537 86.936895 
L 288.077825 85.824 
L 289.03481 83.191992 
L 290.480528 79.55168 
L 290.741355 78.818424 
L 291.068903 78.05482 
L 291.448131 76.9536 
L 292.185395 74.433318 
L 292.214937 74.35552 
L 292.253359 74.242177 
L 294.12818 68.0832 
L 294.385988 67.179233 
L 295.830365 61.81088 
L 295.9318 61.52123 
L 296.586014 59.2128 
L 296.9151 57.746317 
L 297.098594 56.614731 
L 297.098596 56.61472 
L 297.098604 56.614682 
L 298.528137 50.3424 
L 299.335591 46.521466 
L 299.807606 44.07008 
L 300.012265 42.747537 
L 300.279863 41.472 
L 294.72768 41.472 
L 286.63296 41.472 
L 278.53824 41.472 
L 270.44352 41.472 
L 262.3488 41.472 
L 254.25408 41.472 
L 246.15936 41.472 
L 238.06464 41.472 
L 229.96992 41.472 
L 221.8752 41.472 
L 213.78048 41.472 
L 205.68576 41.472 
L 197.59104 41.472 
" clip-path="url(#p0af56a8d60)" style="fill: #a4ff53"/>
   </g>
   <g id="PathCollection_17">
    <path d="M 300.279863 41.472 
L 300.012265 42.747537 
L 299.807606 44.07008 
L 299.335591 46.521466 
L 298.528137 50.3424 
L 297.098604 56.614682 
L 297.098596 56.61472 
L 297.098594 56.614731 
L 296.9151 57.746317 
L 296.586014 59.2128 
L 295.9318 61.52123 
L 295.830365 61.81088 
L 294.385988 67.179233 
L 294.12818 68.0832 
L 292.253359 74.242177 
L 292.214937 74.35552 
L 292.185395 74.433318 
L 291.448131 76.9536 
L 291.068903 78.05482 
L 290.741355 78.818424 
L 290.480528 79.55168 
L 289.03481 83.191992 
L 288.077825 85.824 
L 287.648537 86.936895 
L 285.388425 92.09632 
L 284.585673 93.765125 
L 284.148632 94.6944 
L 283.309023 96.203154 
L 282.79892 97.29248 
L 282.119399 98.618725 
L 279.225718 103.5648 
L 278.799861 104.256933 
L 277.606545 106.029652 
L 275.563654 109.175573 
L 275.073726 109.83712 
L 274.46186 110.611252 
L 273.175678 112.4352 
L 272.451214 113.346504 
L 271.081579 115.03328 
L 267.987468 118.614195 
L 265.302182 121.3056 
L 263.134798 123.385003 
L 260.809053 125.379089 
L 259.268537 126.800569 
L 258.290827 127.57792 
L 255.770571 129.487656 
L 254.907055 130.176 
L 254.750682 130.299281 
L 254.658724 130.35967 
L 251.225711 132.77408 
L 249.554663 133.896659 
L 247.712905 134.936409 
L 245.202204 136.514189 
L 240.588218 139.0464 
L 238.885356 139.945762 
L 236.156072 141.137857 
L 231.587915 143.326896 
L 227.756607 144.901846 
L 227.379856 145.078542 
L 226.765776 145.31872 
L 220.973389 147.507463 
L 219.809634 147.9168 
L 213.827945 149.938092 
L 211.818152 150.51488 
L 211.451788 150.626512 
L 211.265701 150.672559 
L 202.449638 153.240975 
L 198.594539 154.132386 
L 196.779993 154.641529 
L 190.046732 156.184045 
L 189.163441 156.422422 
L 187.472654 156.7872 
L 181.846732 157.964822 
L 180.898063 158.119335 
L 175.53941 159.233663 
L 170.318127 160.062351 
L 166.718531 160.772391 
L 163.51892 161.266762 
L 161.556783 161.651945 
L 152.236618 163.05952 
L 151.600437 163.153401 
L 150.35883 163.316403 
L 144.207799 164.16888 
L 139.206023 164.875985 
L 138.309396 165.007533 
L 133.01444 165.6576 
L 127.490992 166.340889 
L 126.47311 166.444922 
L 121.944717 166.925741 
L 116.351501 167.594536 
L 113.451928 167.883013 
L 109.840214 168.25568 
L 103.419052 168.906341 
L 102.557298 168.964665 
L 100.4544 169.152023 
L 100.4544 174.528 
L 100.4544 183.3984 
L 100.4544 192.2688 
L 100.4544 201.1392 
L 100.4544 210.0096 
L 100.4544 210.880358 
L 100.801193 210.92706 
L 107.124304 211.57095 
L 110.368709 212.003552 
L 115.673952 212.575494 
L 117.721132 212.859638 
L 121.732278 213.30396 
L 128.659488 214.306253 
L 131.100594 214.59352 
L 134.775733 215.148471 
L 136.092944 215.307978 
L 142.262983 216.28192 
L 145.530084 216.791087 
L 156.261258 218.667454 
L 156.882684 218.773443 
L 157.223806 218.83172 
L 157.47529 218.88 
L 168.541507 221.04303 
L 170.53285 221.47808 
L 177.635622 223.006855 
L 179.824982 223.579367 
L 182.729536 224.237271 
L 187.45291 225.511179 
L 190.808214 226.312793 
L 195.74674 227.7504 
L 197.411952 228.224188 
L 197.821483 228.360051 
L 203.58266 230.05503 
L 209.77547 232.232009 
L 211.837215 232.891418 
L 214.864638 234.02272 
L 215.401822 234.208795 
L 221.522034 236.6208 
L 221.662498 236.673603 
L 221.712112 236.694826 
L 227.594077 239.21888 
L 227.597656 239.220387 
L 227.600047 239.221568 
L 231.649699 241.047249 
L 236.100429 243.338767 
L 238.824004 244.65907 
L 240.276402 245.4912 
L 245.136153 248.198152 
L 247.824923 249.897542 
L 249.395217 250.815666 
L 250.771169 251.76352 
L 254.477834 254.260037 
L 254.612834 254.3616 
L 254.780225 254.492215 
L 255.185216 254.784248 
L 258.196145 256.95968 
L 259.279619 257.724887 
L 260.713583 258.90594 
L 263.243071 260.866156 
L 265.950755 263.232 
L 268.484393 265.378861 
L 272.638939 269.50432 
L 273.766446 270.594105 
L 274.321705 271.139643 
L 275.140425 272.1024 
L 277.312746 274.416137 
L 277.534005 274.70048 
L 279.903858 277.35998 
L 282.771477 280.9728 
L 284.600164 283.200389 
L 287.401625 287.24512 
L 288.619455 288.941518 
L 289.167819 289.8432 
L 290.211026 291.467305 
L 290.866168 292.44128 
L 291.512511 293.366464 
L 294.646781 298.7136 
L 294.69668 298.795611 
L 294.902411 299.175861 
L 297.72559 304.298814 
L 298.034142 304.98592 
L 298.290506 305.526947 
L 299.336769 307.584 
L 302.8224 307.584 
L 310.91712 307.584 
L 319.01184 307.584 
L 327.10656 307.584 
L 335.20128 307.584 
L 343.296 307.584 
L 343.296 298.7136 
L 343.296 289.8432 
L 343.296 280.9728 
L 343.296 272.1024 
L 343.296 263.232 
L 343.296 254.3616 
L 343.296 245.4912 
L 343.296 236.6208 
L 343.296 227.7504 
L 343.296 218.88 
L 343.296 210.0096 
L 343.296 201.1392 
L 343.296 192.2688 
L 343.296 183.3984 
L 343.296 174.528 
L 343.296 165.6576 
L 343.296 156.7872 
L 343.296 147.9168 
L 343.296 139.0464 
L 343.296 130.176 
L 343.296 121.3056 
L 343.296 112.4352 
L 343.296 103.5648 
L 343.296 94.6944 
L 343.296 85.824 
L 343.296 76.9536 
L 343.296 68.0832 
L 343.296 59.2128 
L 343.296 50.3424 
L 343.296 41.472 
L 335.20128 41.472 
L 327.10656 41.472 
L 319.01184 41.472 
L 310.91712 41.472 
L 302.8224 41.472 
" clip-path="url(#p0af56a8d60)" style="fill: #f8f500"/>
   </g>
   <g id="PathCollection_18">
    <path d="M 299.336769 307.584 
L 298.290506 305.526947 
L 298.034142 304.98592 
L 297.72559 304.298814 
L 294.902411 299.175861 
L 294.69668 298.795611 
L 294.646781 298.7136 
L 291.512511 293.366464 
L 290.866168 292.44128 
L 290.211026 291.467305 
L 289.167819 289.8432 
L 288.619455 288.941518 
L 287.401625 287.24512 
L 284.600164 283.200389 
L 282.771477 280.9728 
L 279.903858 277.35998 
L 277.534005 274.70048 
L 277.312746 274.416137 
L 275.140425 272.1024 
L 274.321705 271.139643 
L 273.766446 270.594105 
L 272.638939 269.50432 
L 268.484393 265.378861 
L 265.950755 263.232 
L 263.243071 260.866156 
L 260.713583 258.90594 
L 259.279619 257.724887 
L 258.196145 256.95968 
L 255.185216 254.784248 
L 254.780225 254.492215 
L 254.612834 254.3616 
L 254.477834 254.260037 
L 250.771169 251.76352 
L 249.395217 250.815666 
L 247.824923 249.897542 
L 245.136153 248.198152 
L 240.276402 245.4912 
L 238.824004 244.65907 
L 236.100429 243.338767 
L 231.649699 241.047249 
L 227.600047 239.221568 
L 227.597656 239.220387 
L 227.594077 239.21888 
L 221.712112 236.694826 
L 221.662498 236.673603 
L 221.522034 236.6208 
L 215.401822 234.208795 
L 214.864638 234.02272 
L 211.837215 232.891418 
L 209.77547 232.232009 
L 203.58266 230.05503 
L 197.821483 228.360051 
L 197.411952 228.224188 
L 195.74674 227.7504 
L 190.808214 226.312793 
L 187.45291 225.511179 
L 182.729536 224.237271 
L 179.824982 223.579367 
L 177.635622 223.006855 
L 170.53285 221.47808 
L 168.541507 221.04303 
L 157.47529 218.88 
L 157.223806 218.83172 
L 156.882684 218.773443 
L 156.261258 218.667454 
L 145.530084 216.791087 
L 142.262983 216.28192 
L 136.092944 215.307978 
L 134.775733 215.148471 
L 131.100594 214.59352 
L 128.659488 214.306253 
L 121.732278 213.30396 
L 117.721132 212.859638 
L 115.673952 212.575494 
L 110.368709 212.003552 
L 107.124304 211.57095 
L 100.801193 210.92706 
L 100.4544 210.880358 
L 100.4544 218.88 
L 100.4544 227.7504 
L 100.4544 236.6208 
L 100.4544 245.4912 
L 100.4544 249.254019 
L 102.032679 249.666626 
L 104.253329 250.198637 
L 110.086223 251.76352 
L 112.721733 252.467627 
L 114.382765 252.913402 
L 119.397064 254.3616 
L 122.667705 255.301573 
L 128.100522 256.95968 
L 129.949941 257.521236 
L 130.779687 257.799104 
L 134.450754 258.95288 
L 138.193257 260.235199 
L 142.409835 261.608168 
L 146.912746 263.232 
L 148.771581 263.896404 
L 149.360052 264.124432 
L 154.5645 266.029576 
L 162.644825 269.289049 
L 162.88724 269.382707 
L 163.176634 269.50432 
L 163.624467 269.698748 
L 169.272408 272.1024 
L 170.769258 272.732363 
L 171.34514 272.992845 
L 175.071762 274.70048 
L 177.872317 275.969879 
L 179.889275 276.971858 
L 182.454357 278.187671 
L 187.892749 280.9728 
L 188.990078 281.527552 
L 191.036027 282.66005 
L 195.951932 285.309153 
L 199.28239 287.24512 
L 202.104874 288.954248 
L 203.620711 289.8432 
L 204.520389 290.372168 
L 207.78275 292.44128 
L 210.094335 293.882572 
L 212.602422 295.596982 
L 214.488233 296.841198 
L 217.122498 298.7136 
L 220.025423 300.740633 
L 225.555586 304.98592 
L 226.325602 305.563937 
L 228.826317 307.584 
L 229.96992 307.584 
L 238.06464 307.584 
L 246.15936 307.584 
L 254.25408 307.584 
L 262.3488 307.584 
L 270.44352 307.584 
L 278.53824 307.584 
L 286.63296 307.584 
L 294.72768 307.584 
" clip-path="url(#p0af56a8d60)" style="fill: #ff9400"/>
   </g>
   <g id="PathCollection_19">
    <path d="M 228.826317 307.584 
L 226.325602 305.563937 
L 225.555586 304.98592 
L 220.025423 300.740633 
L 217.122498 298.7136 
L 214.488233 296.841198 
L 212.602422 295.596982 
L 210.094335 293.882572 
L 207.78275 292.44128 
L 204.520389 290.372168 
L 203.620711 289.8432 
L 202.104874 288.954248 
L 199.28239 287.24512 
L 195.951932 285.309153 
L 191.036027 282.66005 
L 188.990078 281.527552 
L 187.892749 280.9728 
L 182.454357 278.187671 
L 179.889275 276.971858 
L 177.872317 275.969879 
L 175.071762 274.70048 
L 171.34514 272.992845 
L 170.769258 272.732363 
L 169.272408 272.1024 
L 163.624467 269.698748 
L 163.176634 269.50432 
L 162.88724 269.382707 
L 162.644825 269.289049 
L 154.5645 266.029576 
L 149.360052 264.124432 
L 148.771581 263.896404 
L 146.912746 263.232 
L 142.409835 261.608168 
L 138.193257 260.235199 
L 134.450754 258.95288 
L 130.779687 257.799104 
L 129.949941 257.521236 
L 128.100522 256.95968 
L 122.667705 255.301573 
L 119.397064 254.3616 
L 114.382765 252.913402 
L 112.721733 252.467627 
L 110.086223 251.76352 
L 104.253329 250.198637 
L 102.032679 249.666626 
L 100.4544 249.254019 
L 100.4544 254.3616 
L 100.4544 263.232 
L 100.4544 272.1024 
L 100.4544 280.9728 
L 100.4544 286.866748 
L 102.495407 287.606612 
L 108.396771 289.8432 
L 108.479726 289.874698 
L 109.531236 290.288988 
L 114.98611 292.44128 
L 118.477822 293.861696 
L 121.476289 295.138721 
L 126.197908 297.114409 
L 129.805797 298.7136 
L 132.396912 299.868037 
L 133.4561 300.361304 
L 137.670349 302.283417 
L 143.269817 304.98592 
L 144.912011 305.775635 
L 148.519963 307.584 
L 149.02272 307.584 
L 157.11744 307.584 
L 165.21216 307.584 
L 173.30688 307.584 
L 181.4016 307.584 
L 189.49632 307.584 
L 197.59104 307.584 
L 205.68576 307.584 
L 213.78048 307.584 
L 221.8752 307.584 
" clip-path="url(#p0af56a8d60)" style="fill: #ff3800"/>
   </g>
   <g id="PathCollection_20">
    <path d="M 148.519963 307.584 
L 144.912011 305.775635 
L 143.269817 304.98592 
L 137.670349 302.283417 
L 133.4561 300.361304 
L 132.396912 299.868037 
L 129.805797 298.7136 
L 126.197908 297.114409 
L 121.476289 295.138721 
L 118.477822 293.861696 
L 114.98611 292.44128 
L 109.531236 290.288988 
L 108.479726 289.874698 
L 108.396771 289.8432 
L 102.495407 287.606612 
L 100.4544 286.866748 
L 100.4544 289.8432 
L 100.4544 298.7136 
L 100.4544 307.584 
L 108.54912 307.584 
L 116.64384 307.584 
L 124.73856 307.584 
L 132.83328 307.584 
L 140.928 307.584 
" clip-path="url(#p0af56a8d60)" style="fill: #b60000"/>
   </g>
   <g id="matplotlib.axis_1">
    <g id="xtick_1">
     <g id="line2d_1">
      <defs>
       <path id="ma379b50983" d="M 0 0 
L 0 3.5 
" style="stroke: #000000; stroke-width: 0.8"/>
      </defs>
      <g>
       <use xlink:href="#ma379b50983" x="57.6" y="307.584" style="stroke: #000000; stroke-width: 0.8"/>
      </g>
     </g>
     <g id="text_1">
      <!-- 0.0 -->
      <g transform="translate(51.26875 321.385562) scale(0.1 -0.1)">
       <defs>
        <path id="Calibri-30" d="M 3022 2031 
Q 3022 1566 2948 1181 
Q 2875 797 2704 520 
Q 2534 244 2259 92 
Q 1984 -59 1581 -59 
Q 1200 -59 939 77 
Q 678 213 518 477 
Q 359 741 292 1127 
Q 225 1513 225 2013 
Q 225 2475 300 2861 
Q 375 3247 544 3523 
Q 713 3800 988 3951 
Q 1263 4103 1663 4103 
Q 2047 4103 2308 3967 
Q 2569 3831 2728 3567 
Q 2888 3303 2955 2917 
Q 3022 2531 3022 2031 
z
M 2472 1994 
Q 2472 2297 2450 2537 
Q 2428 2778 2386 2962 
Q 2344 3147 2276 3280 
Q 2209 3413 2115 3498 
Q 2022 3584 1901 3623 
Q 1781 3663 1631 3663 
Q 1366 3663 1200 3538 
Q 1034 3413 939 3194 
Q 844 2975 809 2681 
Q 775 2388 775 2050 
Q 775 1597 822 1280 
Q 869 963 970 763 
Q 1072 563 1230 472 
Q 1388 381 1613 381 
Q 1788 381 1920 437 
Q 2053 494 2148 598 
Q 2244 703 2306 850 
Q 2369 997 2406 1175 
Q 2444 1353 2458 1561 
Q 2472 1769 2472 1994 
z
" transform="scale(0.015625)"/>
        <path id="Calibri-2e" d="M 1144 341 
Q 1144 119 1070 45 
Q 997 -28 803 -28 
Q 616 -28 544 44 
Q 472 116 472 331 
Q 472 553 545 626 
Q 619 700 813 700 
Q 1000 700 1072 628 
Q 1144 556 1144 341 
z
" transform="scale(0.015625)"/>
       </defs>
       <use xlink:href="#Calibri-30"/>
       <use xlink:href="#Calibri-2e" x="50.683594"/>
       <use xlink:href="#Calibri-30" x="75.927734"/>
      </g>
     </g>
    </g>
    <g id="xtick_2">
     <g id="line2d_2">
      <g>
       <use xlink:href="#ma379b50983" x="86.1696" y="307.584" style="stroke: #000000; stroke-width: 0.8"/>
      </g>
     </g>
     <g id="text_2">
      <!-- 0.1 -->
      <g transform="translate(79.83835 321.385562) scale(0.1 -0.1)">
       <defs>
        <path id="Calibri-31" d="M 2897 213 
Q 2897 153 2887 112 
Q 2878 72 2862 47 
Q 2847 22 2826 11 
Q 2806 0 2784 0 
L 672 0 
Q 650 0 631 11 
Q 613 22 595 47 
Q 578 72 568 112 
Q 559 153 559 213 
Q 559 269 568 309 
Q 578 350 592 376 
Q 606 403 626 417 
Q 647 431 672 431 
L 1516 431 
L 1516 3506 
L 734 3041 
Q 675 3009 639 3003 
Q 603 2997 581 3017 
Q 559 3038 551 3084 
Q 544 3131 544 3203 
Q 544 3256 548 3293 
Q 553 3331 562 3356 
Q 572 3381 589 3400 
Q 606 3419 634 3438 
L 1566 4034 
Q 1578 4044 1597 4050 
Q 1616 4056 1644 4062 
Q 1672 4069 1709 4070 
Q 1747 4072 1803 4072 
Q 1878 4072 1928 4065 
Q 1978 4059 2006 4048 
Q 2034 4038 2043 4020 
Q 2053 4003 2053 3984 
L 2053 431 
L 2784 431 
Q 2809 431 2831 417 
Q 2853 403 2867 376 
Q 2881 350 2889 309 
Q 2897 269 2897 213 
z
" transform="scale(0.015625)"/>
       </defs>
       <use xlink:href="#Calibri-30"/>
       <use xlink:href="#Calibri-2e" x="50.683594"/>
       <use xlink:href="#Calibri-31" x="75.927734"/>
      </g>
     </g>
    </g>
    <g id="xtick_3">
     <g id="line2d_3">
      <g>
       <use xlink:href="#ma379b50983" x="114.7392" y="307.584" style="stroke: #000000; stroke-width: 0.8"/>
      </g>
     </g>
     <g id="text_3">
      <!-- 0.2 -->
      <g transform="translate(108.40795 321.385562) scale(0.1 -0.1)">
       <defs>
        <path id="Calibri-32" d="M 2888 231 
Q 2888 175 2880 131 
Q 2872 88 2858 58 
Q 2844 28 2820 14 
Q 2797 0 2769 0 
L 534 0 
Q 491 0 458 11 
Q 425 22 401 47 
Q 378 72 367 119 
Q 356 166 356 234 
Q 356 297 361 344 
Q 366 391 381 427 
Q 397 463 420 498 
Q 444 534 481 575 
L 1266 1406 
Q 1538 1694 1702 1922 
Q 1866 2150 1955 2337 
Q 2044 2525 2072 2678 
Q 2100 2831 2100 2966 
Q 2100 3100 2056 3220 
Q 2013 3341 1930 3431 
Q 1847 3522 1722 3575 
Q 1597 3628 1434 3628 
Q 1244 3628 1092 3575 
Q 941 3522 827 3459 
Q 713 3397 636 3344 
Q 559 3291 522 3291 
Q 500 3291 483 3303 
Q 466 3316 455 3344 
Q 444 3372 437 3419 
Q 431 3466 431 3531 
Q 431 3578 434 3612 
Q 438 3647 445 3672 
Q 453 3697 465 3719 
Q 478 3741 515 3773 
Q 553 3806 645 3862 
Q 738 3919 877 3973 
Q 1016 4028 1183 4065 
Q 1350 4103 1534 4103 
Q 1828 4103 2048 4020 
Q 2269 3938 2414 3794 
Q 2559 3650 2631 3459 
Q 2703 3269 2703 3053 
Q 2703 2859 2668 2667 
Q 2634 2475 2523 2251 
Q 2413 2028 2203 1754 
Q 1994 1481 1647 1125 
L 1006 456 
L 2766 456 
Q 2791 456 2814 442 
Q 2838 428 2855 400 
Q 2872 372 2880 330 
Q 2888 288 2888 231 
z
" transform="scale(0.015625)"/>
       </defs>
       <use xlink:href="#Calibri-30"/>
       <use xlink:href="#Calibri-2e" x="50.683594"/>
       <use xlink:href="#Calibri-32" x="75.927734"/>
      </g>
     </g>
    </g>
    <g id="xtick_4">
     <g id="line2d_4">
      <g>
       <use xlink:href="#ma379b50983" x="143.3088" y="307.584" style="stroke: #000000; stroke-width: 0.8"/>
      </g>
     </g>
     <g id="text_4">
      <!-- 0.3 -->
      <g transform="translate(136.97755 321.385562) scale(0.1 -0.1)">
       <defs>
        <path id="Calibri-33" d="M 2856 1156 
Q 2856 878 2759 654 
Q 2663 431 2481 272 
Q 2300 113 2034 27 
Q 1769 -59 1434 -59 
Q 1231 -59 1054 -26 
Q 878 6 740 51 
Q 603 97 512 145 
Q 422 194 398 216 
Q 375 238 362 259 
Q 350 281 340 312 
Q 331 344 326 389 
Q 322 434 322 500 
Q 322 613 344 656 
Q 366 700 406 700 
Q 434 700 517 650 
Q 600 600 729 542 
Q 859 484 1032 434 
Q 1206 384 1419 384 
Q 1625 384 1781 437 
Q 1938 491 2044 587 
Q 2150 684 2203 817 
Q 2256 950 2256 1106 
Q 2256 1278 2189 1415 
Q 2122 1553 1992 1653 
Q 1863 1753 1673 1806 
Q 1484 1859 1244 1859 
L 859 1859 
Q 834 1859 811 1870 
Q 788 1881 770 1906 
Q 753 1931 742 1972 
Q 731 2013 731 2078 
Q 731 2138 740 2177 
Q 750 2216 767 2239 
Q 784 2263 806 2273 
Q 828 2284 856 2284 
L 1209 2284 
Q 1416 2284 1580 2337 
Q 1744 2391 1858 2491 
Q 1972 2591 2033 2730 
Q 2094 2869 2094 3041 
Q 2094 3166 2053 3280 
Q 2013 3394 1931 3478 
Q 1850 3563 1723 3611 
Q 1597 3659 1431 3659 
Q 1250 3659 1098 3604 
Q 947 3550 828 3487 
Q 709 3425 631 3370 
Q 553 3316 522 3316 
Q 500 3316 483 3323 
Q 466 3331 455 3354 
Q 444 3378 439 3420 
Q 434 3463 434 3531 
Q 434 3578 437 3614 
Q 441 3650 450 3676 
Q 459 3703 471 3725 
Q 484 3747 514 3776 
Q 544 3806 634 3862 
Q 725 3919 858 3973 
Q 991 4028 1164 4065 
Q 1338 4103 1538 4103 
Q 1819 4103 2031 4031 
Q 2244 3959 2386 3828 
Q 2528 3697 2598 3514 
Q 2669 3331 2669 3109 
Q 2669 2919 2619 2755 
Q 2569 2591 2472 2464 
Q 2375 2338 2234 2248 
Q 2094 2159 1909 2125 
L 1909 2119 
Q 2119 2097 2292 2014 
Q 2466 1931 2591 1806 
Q 2716 1681 2786 1514 
Q 2856 1347 2856 1156 
z
" transform="scale(0.015625)"/>
       </defs>
       <use xlink:href="#Calibri-30"/>
       <use xlink:href="#Calibri-2e" x="50.683594"/>
       <use xlink:href="#Calibri-33" x="75.927734"/>
      </g>
     </g>
    </g>
    <g id="xtick_5">
     <g id="line2d_5">
      <g>
       <use xlink:href="#ma379b50983" x="171.8784" y="307.584" style="stroke: #000000; stroke-width: 0.8"/>
      </g>
     </g>
     <g id="text_5">
      <!-- 0.4 -->
      <g transform="translate(165.54715 321.385562) scale(0.1 -0.1)">
       <defs>
        <path id="Calibri-34" d="M 3059 1150 
Q 3059 1047 3028 987 
Q 2997 928 2941 928 
L 2484 928 
L 2484 78 
Q 2484 53 2471 36 
Q 2459 19 2428 6 
Q 2397 -6 2347 -12 
Q 2297 -19 2219 -19 
Q 2144 -19 2094 -12 
Q 2044 -6 2014 6 
Q 1984 19 1973 36 
Q 1963 53 1963 78 
L 1963 928 
L 294 928 
Q 256 928 231 937 
Q 206 947 186 972 
Q 166 997 158 1044 
Q 150 1091 150 1166 
Q 150 1225 153 1272 
Q 156 1319 165 1358 
Q 175 1397 190 1433 
Q 206 1469 228 1509 
L 1684 3966 
Q 1700 3991 1729 4009 
Q 1759 4028 1806 4040 
Q 1853 4053 1922 4058 
Q 1991 4063 2084 4063 
Q 2188 4063 2264 4055 
Q 2341 4047 2387 4034 
Q 2434 4022 2459 4001 
Q 2484 3981 2484 3953 
L 2484 1372 
L 2941 1372 
Q 2994 1372 3026 1317 
Q 3059 1263 3059 1150 
z
M 1963 3591 
L 1956 3591 
L 641 1372 
L 1963 1372 
L 1963 3591 
z
" transform="scale(0.015625)"/>
       </defs>
       <use xlink:href="#Calibri-30"/>
       <use xlink:href="#Calibri-2e" x="50.683594"/>
       <use xlink:href="#Calibri-34" x="75.927734"/>
      </g>
     </g>
    </g>
    <g id="xtick_6">
     <g id="line2d_6">
      <g>
       <use xlink:href="#ma379b50983" x="200.448" y="307.584" style="stroke: #000000; stroke-width: 0.8"/>
      </g>
     </g>
     <g id="text_6">
      <!-- 0.5 -->
      <g transform="translate(194.11675 321.385562) scale(0.1 -0.1)">
       <defs>
        <path id="Calibri-35" d="M 2869 1300 
Q 2869 975 2759 722 
Q 2650 469 2450 295 
Q 2250 122 1973 31 
Q 1697 -59 1359 -59 
Q 1172 -59 1003 -32 
Q 834 -6 703 33 
Q 572 72 487 109 
Q 403 147 379 169 
Q 356 191 347 209 
Q 338 228 330 254 
Q 322 281 319 322 
Q 316 363 316 419 
Q 316 472 320 514 
Q 325 556 337 582 
Q 350 609 367 621 
Q 384 634 406 634 
Q 438 634 503 595 
Q 569 556 680 511 
Q 791 466 955 425 
Q 1119 384 1344 384 
Q 1553 384 1728 434 
Q 1903 484 2029 590 
Q 2156 697 2228 858 
Q 2300 1019 2300 1250 
Q 2300 1444 2239 1592 
Q 2178 1741 2051 1839 
Q 1925 1938 1731 1986 
Q 1538 2034 1269 2034 
Q 1078 2034 940 2015 
Q 803 1997 684 1997 
Q 597 1997 559 2037 
Q 522 2078 522 2194 
L 522 3841 
Q 522 3944 570 3994 
Q 619 4044 709 4044 
L 2500 4044 
Q 2525 4044 2548 4030 
Q 2572 4016 2587 3987 
Q 2603 3959 2611 3915 
Q 2619 3872 2619 3813 
Q 2619 3700 2587 3637 
Q 2556 3575 2500 3575 
L 991 3575 
L 991 2441 
Q 1100 2456 1214 2459 
Q 1328 2463 1478 2463 
Q 1825 2463 2084 2380 
Q 2344 2297 2517 2145 
Q 2691 1994 2780 1778 
Q 2869 1563 2869 1300 
z
" transform="scale(0.015625)"/>
       </defs>
       <use xlink:href="#Calibri-30"/>
       <use xlink:href="#Calibri-2e" x="50.683594"/>
       <use xlink:href="#Calibri-35" x="75.927734"/>
      </g>
     </g>
    </g>
    <g id="xtick_7">
     <g id="line2d_7">
      <g>
       <use xlink:href="#ma379b50983" x="229.0176" y="307.584" style="stroke: #000000; stroke-width: 0.8"/>
      </g>
     </g>
     <g id="text_7">
      <!-- 0.6 -->
      <g transform="translate(222.68635 321.385562) scale(0.1 -0.1)">
       <defs>
        <path id="Calibri-36" d="M 2991 1309 
Q 2991 1044 2909 795 
Q 2828 547 2659 358 
Q 2491 169 2231 55 
Q 1972 -59 1619 -59 
Q 1366 -59 1172 3 
Q 978 66 834 181 
Q 691 297 595 465 
Q 500 634 442 850 
Q 384 1066 359 1322 
Q 334 1578 334 1872 
Q 334 2131 362 2397 
Q 391 2663 462 2909 
Q 534 3156 657 3373 
Q 781 3591 967 3752 
Q 1153 3913 1412 4006 
Q 1672 4100 2016 4100 
Q 2131 4100 2250 4086 
Q 2369 4072 2469 4048 
Q 2569 4025 2637 3997 
Q 2706 3969 2728 3951 
Q 2750 3934 2761 3914 
Q 2772 3894 2778 3870 
Q 2784 3847 2787 3817 
Q 2791 3788 2791 3744 
Q 2791 3688 2789 3647 
Q 2788 3606 2777 3581 
Q 2766 3556 2748 3543 
Q 2731 3531 2703 3531 
Q 2669 3531 2609 3553 
Q 2550 3575 2465 3601 
Q 2381 3628 2261 3650 
Q 2141 3672 1981 3672 
Q 1691 3672 1481 3553 
Q 1272 3434 1139 3234 
Q 1006 3034 942 2770 
Q 878 2506 869 2219 
Q 950 2266 1051 2312 
Q 1153 2359 1273 2396 
Q 1394 2434 1528 2457 
Q 1663 2481 1816 2481 
Q 2144 2481 2369 2392 
Q 2594 2303 2733 2145 
Q 2872 1988 2931 1773 
Q 2991 1559 2991 1309 
z
M 2447 1259 
Q 2447 1441 2411 1589 
Q 2375 1738 2290 1841 
Q 2206 1944 2065 2000 
Q 1925 2056 1719 2056 
Q 1603 2056 1487 2036 
Q 1372 2016 1264 1980 
Q 1156 1944 1057 1895 
Q 959 1847 878 1791 
Q 878 1388 929 1116 
Q 981 844 1079 680 
Q 1178 516 1325 445 
Q 1472 375 1669 375 
Q 1869 375 2016 450 
Q 2163 525 2259 651 
Q 2356 778 2401 936 
Q 2447 1094 2447 1259 
z
" transform="scale(0.015625)"/>
       </defs>
       <use xlink:href="#Calibri-30"/>
       <use xlink:href="#Calibri-2e" x="50.683594"/>
       <use xlink:href="#Calibri-36" x="75.927734"/>
      </g>
     </g>
    </g>
    <g id="xtick_8">
     <g id="line2d_8">
      <g>
       <use xlink:href="#ma379b50983" x="257.5872" y="307.584" style="stroke: #000000; stroke-width: 0.8"/>
      </g>
     </g>
     <g id="text_8">
      <!-- 0.7 -->
      <g transform="translate(251.25595 321.385562) scale(0.1 -0.1)">
       <defs>
        <path id="Calibri-37" d="M 2947 3813 
Q 2947 3756 2942 3711 
Q 2938 3666 2930 3623 
Q 2922 3581 2908 3542 
Q 2894 3503 2875 3459 
L 1419 103 
Q 1403 66 1379 42 
Q 1356 19 1320 5 
Q 1284 -9 1228 -14 
Q 1172 -19 1091 -19 
Q 984 -19 925 -9 
Q 866 0 839 20 
Q 813 41 816 70 
Q 819 100 838 141 
L 2369 3572 
L 428 3572 
Q 369 3572 339 3634 
Q 309 3697 309 3809 
Q 309 3869 317 3912 
Q 325 3956 340 3986 
Q 356 4016 378 4030 
Q 400 4044 428 4044 
L 2784 4044 
Q 2828 4044 2861 4034 
Q 2894 4025 2911 3997 
Q 2928 3969 2937 3925 
Q 2947 3881 2947 3813 
z
" transform="scale(0.015625)"/>
       </defs>
       <use xlink:href="#Calibri-30"/>
       <use xlink:href="#Calibri-2e" x="50.683594"/>
       <use xlink:href="#Calibri-37" x="75.927734"/>
      </g>
     </g>
    </g>
    <g id="xtick_9">
     <g id="line2d_9">
      <g>
       <use xlink:href="#ma379b50983" x="286.1568" y="307.584" style="stroke: #000000; stroke-width: 0.8"/>
      </g>
     </g>
     <g id="text_9">
      <!-- 0.8 -->
      <g transform="translate(279.82555 321.385562) scale(0.1 -0.1)">
       <defs>
        <path id="Calibri-38" d="M 2981 1038 
Q 2981 775 2887 570 
Q 2794 366 2617 225 
Q 2441 84 2181 12 
Q 1922 -59 1588 -59 
Q 1275 -59 1028 6 
Q 781 72 609 200 
Q 438 328 347 515 
Q 256 703 256 944 
Q 256 1134 318 1293 
Q 381 1453 498 1587 
Q 616 1722 787 1839 
Q 959 1956 1175 2063 
Q 988 2159 844 2267 
Q 700 2375 600 2501 
Q 500 2628 448 2772 
Q 397 2916 397 3084 
Q 397 3297 473 3483 
Q 550 3669 704 3806 
Q 859 3944 1098 4023 
Q 1338 4103 1656 4103 
Q 1963 4103 2186 4029 
Q 2409 3956 2554 3829 
Q 2700 3703 2769 3531 
Q 2838 3359 2838 3163 
Q 2838 3003 2786 2856 
Q 2734 2709 2634 2578 
Q 2534 2447 2389 2333 
Q 2244 2219 2056 2119 
Q 2278 2009 2451 1893 
Q 2625 1778 2742 1645 
Q 2859 1513 2920 1364 
Q 2981 1216 2981 1038 
z
M 2306 3113 
Q 2306 3244 2261 3350 
Q 2216 3456 2128 3531 
Q 2041 3606 1911 3645 
Q 1781 3684 1616 3684 
Q 1278 3684 1104 3531 
Q 931 3378 931 3113 
Q 931 2991 973 2886 
Q 1016 2781 1105 2687 
Q 1194 2594 1330 2505 
Q 1466 2416 1653 2319 
Q 1969 2481 2137 2678 
Q 2306 2875 2306 3113 
z
M 2438 981 
Q 2438 1125 2384 1242 
Q 2331 1359 2223 1461 
Q 2116 1563 1955 1658 
Q 1794 1753 1581 1856 
Q 1384 1759 1236 1662 
Q 1088 1566 992 1462 
Q 897 1359 848 1245 
Q 800 1131 800 994 
Q 800 691 1008 525 
Q 1216 359 1628 359 
Q 2028 359 2233 526 
Q 2438 694 2438 981 
z
" transform="scale(0.015625)"/>
       </defs>
       <use xlink:href="#Calibri-30"/>
       <use xlink:href="#Calibri-2e" x="50.683594"/>
       <use xlink:href="#Calibri-38" x="75.927734"/>
      </g>
     </g>
    </g>
    <g id="xtick_10">
     <g id="line2d_10">
      <g>
       <use xlink:href="#ma379b50983" x="314.7264" y="307.584" style="stroke: #000000; stroke-width: 0.8"/>
      </g>
     </g>
     <g id="text_10">
      <!-- 0.9 -->
      <g transform="translate(308.39515 321.385562) scale(0.1 -0.1)">
       <defs>
        <path id="Calibri-39" d="M 2919 2181 
Q 2919 1919 2887 1650 
Q 2856 1381 2781 1132 
Q 2706 884 2579 667 
Q 2453 450 2261 287 
Q 2069 125 1805 33 
Q 1541 -59 1191 -59 
Q 1056 -59 929 -42 
Q 803 -25 701 0 
Q 600 25 531 53 
Q 463 81 431 109 
Q 400 138 386 186 
Q 372 234 372 316 
Q 372 384 376 425 
Q 381 466 390 487 
Q 400 509 417 517 
Q 434 525 459 525 
Q 494 525 556 501 
Q 619 478 714 450 
Q 809 422 937 398 
Q 1066 375 1225 375 
Q 1528 375 1745 492 
Q 1963 609 2100 806 
Q 2238 1003 2306 1262 
Q 2375 1522 2381 1809 
Q 2216 1713 1984 1638 
Q 1753 1563 1453 1563 
Q 1116 1563 886 1655 
Q 656 1747 517 1906 
Q 378 2066 317 2284 
Q 256 2503 256 2763 
Q 256 3031 334 3273 
Q 413 3516 578 3700 
Q 744 3884 1000 3993 
Q 1256 4103 1613 4103 
Q 1866 4103 2061 4039 
Q 2256 3975 2400 3854 
Q 2544 3734 2644 3564 
Q 2744 3394 2805 3178 
Q 2866 2963 2892 2711 
Q 2919 2459 2919 2181 
z
M 2372 2241 
Q 2372 2641 2319 2914 
Q 2266 3188 2162 3356 
Q 2059 3525 1909 3600 
Q 1759 3675 1563 3675 
Q 1359 3675 1215 3601 
Q 1072 3528 980 3404 
Q 888 3281 844 3125 
Q 800 2969 800 2803 
Q 800 2619 839 2466 
Q 878 2313 965 2206 
Q 1053 2100 1193 2042 
Q 1334 1984 1541 1984 
Q 1775 1984 1994 2054 
Q 2213 2125 2372 2241 
z
" transform="scale(0.015625)"/>
       </defs>
       <use xlink:href="#Calibri-30"/>
       <use xlink:href="#Calibri-2e" x="50.683594"/>
       <use xlink:href="#Calibri-39" x="75.927734"/>
      </g>
     </g>
    </g>
    <g id="xtick_11">
     <g id="line2d_11">
      <g>
       <use xlink:href="#ma379b50983" x="343.296" y="307.584" style="stroke: #000000; stroke-width: 0.8"/>
      </g>
     </g>
     <g id="text_11">
      <!-- 1.0 -->
      <g transform="translate(336.96475 321.385562) scale(0.1 -0.1)">
       <use xlink:href="#Calibri-31"/>
       <use xlink:href="#Calibri-2e" x="50.683594"/>
       <use xlink:href="#Calibri-30" x="75.927734"/>
      </g>
     </g>
    </g>
    <g id="text_12">
     <!-- $\mathit{p}$ (cm$^2$/cm$^2$) -->
     <g transform="translate(174.148 336.263687) scale(0.1 -0.1)">
      <defs>
       <path id="DejaVuSans-Oblique-70" d="M 3175 2156 
Q 3175 2616 2975 2859 
Q 2775 3103 2400 3103 
Q 2144 3103 1911 2972 
Q 1678 2841 1497 2591 
Q 1319 2344 1212 1994 
Q 1106 1644 1106 1300 
Q 1106 863 1306 627 
Q 1506 391 1875 391 
Q 2147 391 2380 519 
Q 2613 647 2778 891 
Q 2956 1147 3065 1494 
Q 3175 1841 3175 2156 
z
M 1394 2969 
Q 1625 3272 1939 3428 
Q 2253 3584 2638 3584 
Q 3175 3584 3472 3232 
Q 3769 2881 3769 2247 
Q 3769 1728 3584 1258 
Q 3400 788 3053 416 
Q 2822 169 2531 39 
Q 2241 -91 1919 -91 
Q 1547 -91 1294 64 
Q 1041 219 916 525 
L 556 -1331 
L -19 -1331 
L 922 3500 
L 1497 3500 
L 1394 2969 
z
" transform="scale(0.015625)"/>
       <path id="Calibri-20" transform="scale(0.015625)"/>
       <path id="Calibri-28" d="M 1547 4306 
Q 1250 3678 1104 3017 
Q 959 2356 959 1688 
Q 959 1016 1107 356 
Q 1256 -303 1541 -938 
Q 1556 -975 1557 -1001 
Q 1559 -1028 1537 -1045 
Q 1516 -1063 1470 -1070 
Q 1425 -1078 1347 -1078 
Q 1291 -1078 1250 -1075 
Q 1209 -1072 1179 -1062 
Q 1150 -1053 1131 -1040 
Q 1113 -1028 1103 -1013 
Q 934 -694 806 -367 
Q 678 -41 590 296 
Q 503 634 459 979 
Q 416 1325 416 1678 
Q 416 2031 464 2375 
Q 513 2719 602 3058 
Q 691 3397 819 3725 
Q 947 4053 1106 4375 
Q 1109 4388 1123 4397 
Q 1138 4406 1163 4415 
Q 1188 4425 1231 4429 
Q 1275 4434 1344 4434 
Q 1416 4434 1459 4425 
Q 1503 4416 1528 4400 
Q 1553 4384 1556 4359 
Q 1559 4334 1547 4306 
z
" transform="scale(0.015625)"/>
       <path id="Calibri-63" d="M 2500 506 
Q 2500 453 2497 414 
Q 2494 375 2486 348 
Q 2478 322 2467 301 
Q 2456 281 2417 242 
Q 2378 203 2284 145 
Q 2191 88 2073 42 
Q 1956 -3 1818 -31 
Q 1681 -59 1534 -59 
Q 1231 -59 997 41 
Q 763 141 605 333 
Q 447 525 364 804 
Q 281 1084 281 1450 
Q 281 1866 382 2164 
Q 484 2463 661 2653 
Q 838 2844 1077 2936 
Q 1316 3028 1594 3028 
Q 1728 3028 1854 3003 
Q 1981 2978 2087 2937 
Q 2194 2897 2276 2844 
Q 2359 2791 2396 2753 
Q 2434 2716 2448 2694 
Q 2463 2672 2472 2642 
Q 2481 2613 2484 2575 
Q 2488 2538 2488 2481 
Q 2488 2359 2459 2311 
Q 2431 2263 2391 2263 
Q 2344 2263 2283 2314 
Q 2222 2366 2128 2428 
Q 2034 2491 1901 2542 
Q 1769 2594 1588 2594 
Q 1216 2594 1017 2308 
Q 819 2022 819 1478 
Q 819 1206 870 1001 
Q 922 797 1022 659 
Q 1122 522 1267 455 
Q 1413 388 1600 388 
Q 1778 388 1912 444 
Q 2047 500 2145 567 
Q 2244 634 2311 689 
Q 2378 744 2416 744 
Q 2438 744 2453 731 
Q 2469 719 2480 689 
Q 2491 659 2495 614 
Q 2500 569 2500 506 
z
" transform="scale(0.015625)"/>
       <path id="Calibri-6d" d="M 4650 78 
Q 4650 53 4637 36 
Q 4625 19 4597 6 
Q 4569 -6 4519 -12 
Q 4469 -19 4394 -19 
Q 4316 -19 4266 -12 
Q 4216 -6 4186 6 
Q 4156 19 4143 36 
Q 4131 53 4131 78 
L 4131 1788 
Q 4131 1966 4100 2112 
Q 4069 2259 4000 2365 
Q 3931 2472 3825 2528 
Q 3719 2584 3575 2584 
Q 3397 2584 3217 2446 
Q 3038 2309 2822 2044 
L 2822 78 
Q 2822 53 2809 36 
Q 2797 19 2767 6 
Q 2738 -6 2688 -12 
Q 2638 -19 2563 -19 
Q 2491 -19 2439 -12 
Q 2388 -6 2358 6 
Q 2328 19 2317 36 
Q 2306 53 2306 78 
L 2306 1788 
Q 2306 1966 2272 2112 
Q 2238 2259 2169 2365 
Q 2100 2472 1995 2528 
Q 1891 2584 1747 2584 
Q 1569 2584 1387 2446 
Q 1206 2309 994 2044 
L 994 78 
Q 994 53 981 36 
Q 969 19 941 6 
Q 913 -6 863 -12 
Q 813 -19 734 -19 
Q 659 -19 609 -12 
Q 559 -6 529 6 
Q 500 19 489 36 
Q 478 53 478 78 
L 478 2891 
Q 478 2916 487 2933 
Q 497 2950 525 2964 
Q 553 2978 597 2983 
Q 641 2988 713 2988 
Q 781 2988 826 2983 
Q 872 2978 897 2964 
Q 922 2950 933 2933 
Q 944 2916 944 2891 
L 944 2519 
Q 1181 2784 1404 2907 
Q 1628 3031 1856 3031 
Q 2031 3031 2170 2990 
Q 2309 2950 2415 2876 
Q 2522 2803 2597 2701 
Q 2672 2600 2722 2475 
Q 2863 2628 2989 2734 
Q 3116 2841 3233 2906 
Q 3350 2972 3461 3001 
Q 3572 3031 3684 3031 
Q 3956 3031 4140 2936 
Q 4325 2841 4439 2681 
Q 4553 2522 4601 2308 
Q 4650 2094 4650 1856 
L 4650 78 
z
" transform="scale(0.015625)"/>
       <path id="DejaVuSans-32" d="M 1228 531 
L 3431 531 
L 3431 0 
L 469 0 
L 469 531 
Q 828 903 1448 1529 
Q 2069 2156 2228 2338 
Q 2531 2678 2651 2914 
Q 2772 3150 2772 3378 
Q 2772 3750 2511 3984 
Q 2250 4219 1831 4219 
Q 1534 4219 1204 4116 
Q 875 4013 500 3803 
L 500 4441 
Q 881 4594 1212 4672 
Q 1544 4750 1819 4750 
Q 2544 4750 2975 4387 
Q 3406 4025 3406 3419 
Q 3406 3131 3298 2873 
Q 3191 2616 2906 2266 
Q 2828 2175 2409 1742 
Q 1991 1309 1228 531 
z
" transform="scale(0.015625)"/>
       <path id="Calibri-2f" d="M 525 -753 
Q 513 -794 492 -817 
Q 472 -841 440 -853 
Q 409 -866 364 -872 
Q 319 -878 253 -878 
Q 175 -878 123 -867 
Q 72 -856 44 -836 
Q 16 -816 9 -786 
Q 3 -756 22 -716 
L 1913 4469 
Q 1925 4509 1945 4532 
Q 1966 4556 1995 4570 
Q 2025 4584 2072 4589 
Q 2119 4594 2184 4594 
Q 2263 4594 2313 4583 
Q 2363 4572 2391 4553 
Q 2419 4534 2425 4503 
Q 2431 4472 2416 4431 
L 525 -753 
z
" transform="scale(0.015625)"/>
       <path id="Calibri-29" d="M 1522 1678 
Q 1522 1325 1478 979 
Q 1434 634 1346 296 
Q 1259 -41 1132 -367 
Q 1006 -694 838 -1013 
Q 828 -1028 809 -1040 
Q 791 -1053 761 -1062 
Q 731 -1072 690 -1075 
Q 650 -1078 594 -1078 
Q 513 -1078 467 -1070 
Q 422 -1063 401 -1045 
Q 381 -1028 382 -1001 
Q 384 -975 400 -938 
Q 688 -306 834 355 
Q 981 1016 981 1688 
Q 981 2356 834 3017 
Q 688 3678 394 4306 
Q 381 4334 384 4359 
Q 388 4384 413 4400 
Q 438 4416 481 4425 
Q 525 4434 597 4434 
Q 663 4434 706 4429 
Q 750 4425 776 4415 
Q 803 4406 815 4397 
Q 828 4388 834 4375 
Q 1156 3734 1339 3057 
Q 1522 2381 1522 1678 
z
" transform="scale(0.015625)"/>
      </defs>
      <use xlink:href="#DejaVuSans-Oblique-70" transform="translate(0 0.765625)"/>
      <use xlink:href="#Calibri-20" transform="translate(63.476562 0.765625)"/>
      <use xlink:href="#Calibri-28" transform="translate(84.958984 0.765625)"/>
      <use xlink:href="#Calibri-63" transform="translate(115.28125 0.765625)"/>
      <use xlink:href="#Calibri-6d" transform="translate(157.566406 0.765625)"/>
      <use xlink:href="#DejaVuSans-32" transform="translate(238.40625 39.046875) scale(0.7)"/>
      <use xlink:href="#Calibri-2f" transform="translate(285.676758 0.765625)"/>
      <use xlink:href="#Calibri-63" transform="translate(324.299805 0.765625)"/>
      <use xlink:href="#Calibri-6d" transform="translate(366.584961 0.765625)"/>
      <use xlink:href="#DejaVuSans-32" transform="translate(447.424805 39.046875) scale(0.7)"/>
      <use xlink:href="#Calibri-29" transform="translate(494.695312 0.765625)"/>
     </g>
    </g>
   </g>
   <g id="matplotlib.axis_2">
    <g id="ytick_1">
     <g id="line2d_12">
      <defs>
       <path id="mae3d62b45a" d="M 0 0 
L -3.5 0 
" style="stroke: #000000; stroke-width: 0.8"/>
      </defs>
      <g>
       <use xlink:href="#mae3d62b45a" x="57.6" y="275.65056" style="stroke: #000000; stroke-width: 0.8"/>
      </g>
     </g>
     <g id="text_13">
      <!-- 25 -->
      <g transform="translate(40.4625 279.051341) scale(0.1 -0.1)">
       <use xlink:href="#Calibri-32"/>
       <use xlink:href="#Calibri-35" x="50.683594"/>
      </g>
     </g>
    </g>
    <g id="ytick_2">
     <g id="line2d_13">
      <g>
       <use xlink:href="#mae3d62b45a" x="57.6" y="242.38656" style="stroke: #000000; stroke-width: 0.8"/>
      </g>
     </g>
     <g id="text_14">
      <!-- 50 -->
      <g transform="translate(40.4625 245.787341) scale(0.1 -0.1)">
       <use xlink:href="#Calibri-35"/>
       <use xlink:href="#Calibri-30" x="50.683594"/>
      </g>
     </g>
    </g>
    <g id="ytick_3">
     <g id="line2d_14">
      <g>
       <use xlink:href="#mae3d62b45a" x="57.6" y="209.12256" style="stroke: #000000; stroke-width: 0.8"/>
      </g>
     </g>
     <g id="text_15">
      <!-- 75 -->
      <g transform="translate(40.4625 212.523341) scale(0.1 -0.1)">
       <use xlink:href="#Calibri-37"/>
       <use xlink:href="#Calibri-35" x="50.683594"/>
      </g>
     </g>
    </g>
    <g id="ytick_4">
     <g id="line2d_15">
      <g>
       <use xlink:href="#mae3d62b45a" x="57.6" y="175.85856" style="stroke: #000000; stroke-width: 0.8"/>
      </g>
     </g>
     <g id="text_16">
      <!-- 100 -->
      <g transform="translate(35.39375 179.259341) scale(0.1 -0.1)">
       <use xlink:href="#Calibri-31"/>
       <use xlink:href="#Calibri-30" x="50.683594"/>
       <use xlink:href="#Calibri-30" x="101.367188"/>
      </g>
     </g>
    </g>
    <g id="ytick_5">
     <g id="line2d_16">
      <g>
       <use xlink:href="#mae3d62b45a" x="57.6" y="142.59456" style="stroke: #000000; stroke-width: 0.8"/>
      </g>
     </g>
     <g id="text_17">
      <!-- 125 -->
      <g transform="translate(35.39375 145.995341) scale(0.1 -0.1)">
       <use xlink:href="#Calibri-31"/>
       <use xlink:href="#Calibri-32" x="50.683594"/>
       <use xlink:href="#Calibri-35" x="101.367188"/>
      </g>
     </g>
    </g>
    <g id="ytick_6">
     <g id="line2d_17">
      <g>
       <use xlink:href="#mae3d62b45a" x="57.6" y="109.33056" style="stroke: #000000; stroke-width: 0.8"/>
      </g>
     </g>
     <g id="text_18">
      <!-- 150 -->
      <g transform="translate(35.39375 112.731341) scale(0.1 -0.1)">
       <use xlink:href="#Calibri-31"/>
       <use xlink:href="#Calibri-35" x="50.683594"/>
       <use xlink:href="#Calibri-30" x="101.367188"/>
      </g>
     </g>
    </g>
    <g id="ytick_7">
     <g id="line2d_18">
      <g>
       <use xlink:href="#mae3d62b45a" x="57.6" y="76.06656" style="stroke: #000000; stroke-width: 0.8"/>
      </g>
     </g>
     <g id="text_19">
      <!-- 175 -->
      <g transform="translate(35.39375 79.467341) scale(0.1 -0.1)">
       <use xlink:href="#Calibri-31"/>
       <use xlink:href="#Calibri-37" x="50.683594"/>
       <use xlink:href="#Calibri-35" x="101.367188"/>
      </g>
     </g>
    </g>
    <g id="ytick_8">
     <g id="line2d_19">
      <g>
       <use xlink:href="#mae3d62b45a" x="57.6" y="42.80256" style="stroke: #000000; stroke-width: 0.8"/>
      </g>
     </g>
     <g id="text_20">
      <!-- 200 -->
      <g transform="translate(35.39375 46.203341) scale(0.1 -0.1)">
       <use xlink:href="#Calibri-32"/>
       <use xlink:href="#Calibri-30" x="50.683594"/>
       <use xlink:href="#Calibri-30" x="101.367188"/>
      </g>
     </g>
    </g>
    <g id="text_21">
     <!-- $\mathit{Z}$$_{a}$ (nm) -->
     <g transform="translate(29.59375 191.028) rotate(-90) scale(0.1 -0.1)">
      <defs>
       <path id="DejaVuSans-Oblique-5a" d="M 838 4666 
L 4500 4666 
L 4409 4184 
L 794 531 
L 3769 531 
L 3669 0 
L -141 0 
L -50 481 
L 3566 4134 
L 738 4134 
L 838 4666 
z
" transform="scale(0.015625)"/>
       <path id="DejaVuSans-Oblique-61" d="M 3438 1997 
L 3047 0 
L 2472 0 
L 2578 531 
Q 2325 219 2001 64 
Q 1678 -91 1281 -91 
Q 834 -91 548 182 
Q 263 456 263 884 
Q 263 1497 752 1853 
Q 1241 2209 2100 2209 
L 2900 2209 
L 2931 2363 
Q 2938 2388 2941 2417 
Q 2944 2447 2944 2509 
Q 2944 2788 2717 2942 
Q 2491 3097 2081 3097 
Q 1800 3097 1504 3025 
Q 1209 2953 897 2809 
L 997 3341 
Q 1322 3463 1633 3523 
Q 1944 3584 2234 3584 
Q 2853 3584 3176 3315 
Q 3500 3047 3500 2534 
Q 3500 2431 3484 2292 
Q 3469 2153 3438 1997 
z
M 2816 1759 
L 2241 1759 
Q 1534 1759 1195 1570 
Q 856 1381 856 984 
Q 856 709 1029 553 
Q 1203 397 1509 397 
Q 1978 397 2328 733 
Q 2678 1069 2791 1631 
L 2816 1759 
z
" transform="scale(0.015625)"/>
       <path id="Calibri-6e" d="M 2900 78 
Q 2900 53 2887 36 
Q 2875 19 2847 6 
Q 2819 -6 2769 -12 
Q 2719 -19 2644 -19 
Q 2566 -19 2516 -12 
Q 2466 -6 2437 6 
Q 2409 19 2396 36 
Q 2384 53 2384 78 
L 2384 1725 
Q 2384 1966 2346 2112 
Q 2309 2259 2237 2365 
Q 2166 2472 2052 2528 
Q 1938 2584 1788 2584 
Q 1594 2584 1400 2446 
Q 1206 2309 994 2044 
L 994 78 
Q 994 53 981 36 
Q 969 19 941 6 
Q 913 -6 863 -12 
Q 813 -19 734 -19 
Q 659 -19 609 -12 
Q 559 -6 529 6 
Q 500 19 489 36 
Q 478 53 478 78 
L 478 2891 
Q 478 2916 487 2933 
Q 497 2950 525 2964 
Q 553 2978 597 2983 
Q 641 2988 713 2988 
Q 781 2988 826 2983 
Q 872 2978 897 2964 
Q 922 2950 933 2933 
Q 944 2916 944 2891 
L 944 2519 
Q 1181 2784 1417 2907 
Q 1653 3031 1894 3031 
Q 2175 3031 2367 2936 
Q 2559 2841 2678 2681 
Q 2797 2522 2848 2308 
Q 2900 2094 2900 1794 
L 2900 78 
z
" transform="scale(0.015625)"/>
      </defs>
      <use xlink:href="#DejaVuSans-Oblique-5a" transform="translate(0 0.09375)"/>
      <use xlink:href="#DejaVuSans-Oblique-61" transform="translate(69.462891 -16.3125) scale(0.7)"/>
      <use xlink:href="#Calibri-20" transform="translate(115.092773 0.09375)"/>
      <use xlink:href="#Calibri-28" transform="translate(136.575195 0.09375)"/>
      <use xlink:href="#Calibri-6e" transform="translate(166.897461 0.09375)"/>
      <use xlink:href="#Calibri-6d" transform="translate(219.436523 0.09375)"/>
      <use xlink:href="#Calibri-29" transform="translate(299.319336 0.09375)"/>
     </g>
    </g>
   </g>
   <g id="patch_3">
    <path d="M 57.6 307.584 
L 57.6 41.472 
" style="fill: none; stroke: #000000; stroke-width: 0.8; stroke-linejoin: miter; stroke-linecap: square"/>
   </g>
   <g id="patch_4">
    <path d="M 343.296 307.584 
L 343.296 41.472 
" style="fill: none; stroke: #000000; stroke-width: 0.8; stroke-linejoin: miter; stroke-linecap: square"/>
   </g>
   <g id="patch_5">
    <path d="M 57.6 307.584 
L 343.296 307.584 
" style="fill: none; stroke: #000000; stroke-width: 0.8; stroke-linejoin: miter; stroke-linecap: square"/>
   </g>
   <g id="patch_6">
    <path d="M 57.6 41.472 
L 343.296 41.472 
" style="fill: none; stroke: #000000; stroke-width: 0.8; stroke-linejoin: miter; stroke-linecap: square"/>
   </g>
   <g id="text_22">
    <!-- $\lambda$ = 780 nm -->
    <g transform="translate(177.348 35.472) scale(0.1 -0.1)">
     <defs>
      <path id="DejaVuSans-Oblique-3bb" d="M 2350 4316 
L 3125 0 
L 2516 0 
L 2038 2588 
L 328 0 
L -281 0 
L 1903 3356 
L 1794 3975 
Q 1725 4369 1391 4369 
L 1091 4369 
L 1184 4863 
L 1550 4856 
Q 2253 4847 2350 4316 
z
" transform="scale(0.015625)"/>
      <path id="Calibri-3d" d="M 2891 2409 
Q 2891 2284 2855 2236 
Q 2819 2188 2772 2188 
L 409 2188 
Q 363 2188 328 2236 
Q 294 2284 294 2409 
Q 294 2522 325 2575 
Q 356 2628 409 2628 
L 2772 2628 
Q 2828 2628 2859 2575 
Q 2891 2522 2891 2409 
z
M 2891 1194 
Q 2891 1069 2855 1022 
Q 2819 975 2772 975 
L 409 975 
Q 363 975 328 1022 
Q 294 1069 294 1194 
Q 294 1309 325 1362 
Q 356 1416 409 1416 
L 2772 1416 
Q 2828 1416 2859 1362 
Q 2891 1309 2891 1194 
z
" transform="scale(0.015625)"/>
     </defs>
     <use xlink:href="#DejaVuSans-Oblique-3bb" transform="translate(0 0.015625)"/>
     <use xlink:href="#Calibri-20" transform="translate(59.179688 0.015625)"/>
     <use xlink:href="#Calibri-3d" transform="translate(81.787109 0.015625)"/>
     <use xlink:href="#Calibri-20" transform="translate(131.591797 0.015625)"/>
     <use xlink:href="#Calibri-37" transform="translate(154.199219 0.015625)"/>
     <use xlink:href="#Calibri-38" transform="translate(204.882812 0.015625)"/>
     <use xlink:href="#Calibri-30" transform="translate(255.566406 0.015625)"/>
     <use xlink:href="#Calibri-20" transform="translate(306.25 0.015625)"/>
     <use xlink:href="#Calibri-6e" transform="translate(328.857422 0.015625)"/>
     <use xlink:href="#Calibri-6d" transform="translate(381.396484 0.015625)"/>
    </g>
   </g>
  </g>
  <g id="axes_2">
   <g id="patch_7">
    <path d="M 361.152 307.584 
L 374.4576 307.584 
L 374.4576 41.472 
L 361.152 41.472 
z
" style="fill: #ffffff"/>
   </g>
   <g id="QuadMesh_1">
    <path d="M 361.152 307.584 
L 374.4576 307.584 
L 374.4576 280.9728 
L 361.152 280.9728 
L 361.152 307.584 
" clip-path="url(#p28b7dc5f43)" style="fill: #0000b6"/>
    <path d="M 361.152 280.9728 
L 374.4576 280.9728 
L 374.4576 254.3616 
L 361.152 254.3616 
L 361.152 280.9728 
" clip-path="url(#p28b7dc5f43)" style="fill: #0018ff"/>
    <path d="M 361.152 254.3616 
L 374.4576 254.3616 
L 374.4576 227.7504 
L 361.152 227.7504 
L 361.152 254.3616 
" clip-path="url(#p28b7dc5f43)" style="fill: #0080ff"/>
    <path d="M 361.152 227.7504 
L 374.4576 227.7504 
L 374.4576 201.1392 
L 361.152 201.1392 
L 361.152 227.7504 
" clip-path="url(#p28b7dc5f43)" style="fill: #00e4f8"/>
    <path d="M 361.152 201.1392 
L 374.4576 201.1392 
L 374.4576 174.528 
L 361.152 174.528 
L 361.152 201.1392 
" clip-path="url(#p28b7dc5f43)" style="fill: #53ffa4"/>
    <path d="M 361.152 174.528 
L 374.4576 174.528 
L 374.4576 147.9168 
L 361.152 147.9168 
L 361.152 174.528 
" clip-path="url(#p28b7dc5f43)" style="fill: #a4ff53"/>
    <path d="M 361.152 147.9168 
L 374.4576 147.9168 
L 374.4576 121.3056 
L 361.152 121.3056 
L 361.152 147.9168 
" clip-path="url(#p28b7dc5f43)" style="fill: #f8f500"/>
    <path d="M 361.152 121.3056 
L 374.4576 121.3056 
L 374.4576 94.6944 
L 361.152 94.6944 
L 361.152 121.3056 
" clip-path="url(#p28b7dc5f43)" style="fill: #ff9400"/>
    <path d="M 361.152 94.6944 
L 374.4576 94.6944 
L 374.4576 68.0832 
L 361.152 68.0832 
L 361.152 94.6944 
" clip-path="url(#p28b7dc5f43)" style="fill: #ff3800"/>
    <path d="M 361.152 68.0832 
L 374.4576 68.0832 
L 374.4576 41.472 
L 361.152 41.472 
L 361.152 68.0832 
" clip-path="url(#p28b7dc5f43)" style="fill: #b60000"/>
   </g>
   <g id="matplotlib.axis_3"/>
   <g id="matplotlib.axis_4">
    <g id="ytick_9">
     <g id="line2d_20">
      <defs>
       <path id="m15b127d199" d="M 0 0 
L 3.5 0 
" style="stroke: #000000; stroke-width: 0.8"/>
      </defs>
      <g>
       <use xlink:href="#m15b127d199" x="374.4576" y="307.584" style="stroke: #000000; stroke-width: 0.8"/>
      </g>
     </g>
     <g id="text_23">
      <!-- 0 -->
      <g transform="translate(381.4576 310.984781) scale(0.1 -0.1)">
       <use xlink:href="#Calibri-30"/>
      </g>
     </g>
    </g>
    <g id="ytick_10">
     <g id="line2d_21">
      <g>
       <use xlink:href="#m15b127d199" x="374.4576" y="280.9728" style="stroke: #000000; stroke-width: 0.8"/>
      </g>
     </g>
     <g id="text_24">
      <!-- 0.1 -->
      <g transform="translate(381.4576 284.373581) scale(0.1 -0.1)">
       <use xlink:href="#Calibri-30"/>
       <use xlink:href="#Calibri-2e" x="50.683594"/>
       <use xlink:href="#Calibri-31" x="75.927734"/>
      </g>
     </g>
    </g>
    <g id="ytick_11">
     <g id="line2d_22">
      <g>
       <use xlink:href="#m15b127d199" x="374.4576" y="254.3616" style="stroke: #000000; stroke-width: 0.8"/>
      </g>
     </g>
     <g id="text_25">
      <!-- 0.2 -->
      <g transform="translate(381.4576 257.762381) scale(0.1 -0.1)">
       <use xlink:href="#Calibri-30"/>
       <use xlink:href="#Calibri-2e" x="50.683594"/>
       <use xlink:href="#Calibri-32" x="75.927734"/>
      </g>
     </g>
    </g>
    <g id="ytick_12">
     <g id="line2d_23">
      <g>
       <use xlink:href="#m15b127d199" x="374.4576" y="227.7504" style="stroke: #000000; stroke-width: 0.8"/>
      </g>
     </g>
     <g id="text_26">
      <!-- 0.3 -->
      <g transform="translate(381.4576 231.151181) scale(0.1 -0.1)">
       <use xlink:href="#Calibri-30"/>
       <use xlink:href="#Calibri-2e" x="50.683594"/>
       <use xlink:href="#Calibri-33" x="75.927734"/>
      </g>
     </g>
    </g>
    <g id="ytick_13">
     <g id="line2d_24">
      <g>
       <use xlink:href="#m15b127d199" x="374.4576" y="201.1392" style="stroke: #000000; stroke-width: 0.8"/>
      </g>
     </g>
     <g id="text_27">
      <!-- 0.4 -->
      <g transform="translate(381.4576 204.539981) scale(0.1 -0.1)">
       <use xlink:href="#Calibri-30"/>
       <use xlink:href="#Calibri-2e" x="50.683594"/>
       <use xlink:href="#Calibri-34" x="75.927734"/>
      </g>
     </g>
    </g>
    <g id="ytick_14">
     <g id="line2d_25">
      <g>
       <use xlink:href="#m15b127d199" x="374.4576" y="174.528" style="stroke: #000000; stroke-width: 0.8"/>
      </g>
     </g>
     <g id="text_28">
      <!-- 0.5 -->
      <g transform="translate(381.4576 177.928781) scale(0.1 -0.1)">
       <use xlink:href="#Calibri-30"/>
       <use xlink:href="#Calibri-2e" x="50.683594"/>
       <use xlink:href="#Calibri-35" x="75.927734"/>
      </g>
     </g>
    </g>
    <g id="ytick_15">
     <g id="line2d_26">
      <g>
       <use xlink:href="#m15b127d199" x="374.4576" y="147.9168" style="stroke: #000000; stroke-width: 0.8"/>
      </g>
     </g>
     <g id="text_29">
      <!-- 0.6 -->
      <g transform="translate(381.4576 151.317581) scale(0.1 -0.1)">
       <use xlink:href="#Calibri-30"/>
       <use xlink:href="#Calibri-2e" x="50.683594"/>
       <use xlink:href="#Calibri-36" x="75.927734"/>
      </g>
     </g>
    </g>
    <g id="ytick_16">
     <g id="line2d_27">
      <g>
       <use xlink:href="#m15b127d199" x="374.4576" y="121.3056" style="stroke: #000000; stroke-width: 0.8"/>
      </g>
     </g>
     <g id="text_30">
      <!-- 0.7 -->
      <g transform="translate(381.4576 124.706381) scale(0.1 -0.1)">
       <use xlink:href="#Calibri-30"/>
       <use xlink:href="#Calibri-2e" x="50.683594"/>
       <use xlink:href="#Calibri-37" x="75.927734"/>
      </g>
     </g>
    </g>
    <g id="ytick_17">
     <g id="line2d_28">
      <g>
       <use xlink:href="#m15b127d199" x="374.4576" y="94.6944" style="stroke: #000000; stroke-width: 0.8"/>
      </g>
     </g>
     <g id="text_31">
      <!-- 0.8 -->
      <g transform="translate(381.4576 98.095181) scale(0.1 -0.1)">
       <use xlink:href="#Calibri-30"/>
       <use xlink:href="#Calibri-2e" x="50.683594"/>
       <use xlink:href="#Calibri-38" x="75.927734"/>
      </g>
     </g>
    </g>
    <g id="ytick_18">
     <g id="line2d_29">
      <g>
       <use xlink:href="#m15b127d199" x="374.4576" y="68.0832" style="stroke: #000000; stroke-width: 0.8"/>
      </g>
     </g>
     <g id="text_32">
      <!-- 0.9 -->
      <g transform="translate(381.4576 71.483981) scale(0.1 -0.1)">
       <use xlink:href="#Calibri-30"/>
       <use xlink:href="#Calibri-2e" x="50.683594"/>
       <use xlink:href="#Calibri-39" x="75.927734"/>
      </g>
     </g>
    </g>
    <g id="ytick_19">
     <g id="line2d_30">
      <g>
       <use xlink:href="#m15b127d199" x="374.4576" y="41.472" style="stroke: #000000; stroke-width: 0.8"/>
      </g>
     </g>
     <g id="text_33">
      <!-- 1.0 -->
      <g transform="translate(381.4576 44.872781) scale(0.1 -0.1)">
       <use xlink:href="#Calibri-31"/>
       <use xlink:href="#Calibri-2e" x="50.683594"/>
       <use xlink:href="#Calibri-30" x="75.927734"/>
      </g>
     </g>
    </g>
   </g>
   <g id="LineCollection_1"/>
   <g id="patch_8">
    <path d="M 361.152 307.584 
L 367.8048 307.584 
L 374.4576 307.584 
L 374.4576 41.472 
L 367.8048 41.472 
L 361.152 41.472 
L 361.152 307.584 
z
" style="fill: none; stroke: #000000; stroke-width: 0.8; stroke-linejoin: miter; stroke-linecap: square"/>
   </g>
   <g id="text_34">
    <!-- $\mathit{E}_{\mathrm{dis}}$/$\mathit{E}_{\mathrm{i}}$ -->
    <g transform="translate(353.2548 35.472) scale(0.1 -0.1)">
     <defs>
      <path id="DejaVuSans-Oblique-45" d="M 1081 4666 
L 4031 4666 
L 3928 4134 
L 1606 4134 
L 1338 2753 
L 3566 2753 
L 3463 2222 
L 1234 2222 
L 909 531 
L 3284 531 
L 3181 0 
L 172 0 
L 1081 4666 
z
" transform="scale(0.015625)"/>
      <path id="DejaVuSans-64" d="M 2906 2969 
L 2906 4863 
L 3481 4863 
L 3481 0 
L 2906 0 
L 2906 525 
Q 2725 213 2448 61 
Q 2172 -91 1784 -91 
Q 1150 -91 751 415 
Q 353 922 353 1747 
Q 353 2572 751 3078 
Q 1150 3584 1784 3584 
Q 2172 3584 2448 3432 
Q 2725 3281 2906 2969 
z
M 947 1747 
Q 947 1113 1208 752 
Q 1469 391 1925 391 
Q 2381 391 2643 752 
Q 2906 1113 2906 1747 
Q 2906 2381 2643 2742 
Q 2381 3103 1925 3103 
Q 1469 3103 1208 2742 
Q 947 2381 947 1747 
z
" transform="scale(0.015625)"/>
      <path id="DejaVuSans-69" d="M 603 3500 
L 1178 3500 
L 1178 0 
L 603 0 
L 603 3500 
z
M 603 4863 
L 1178 4863 
L 1178 4134 
L 603 4134 
L 603 4863 
z
" transform="scale(0.015625)"/>
      <path id="DejaVuSans-73" d="M 2834 3397 
L 2834 2853 
Q 2591 2978 2328 3040 
Q 2066 3103 1784 3103 
Q 1356 3103 1142 2972 
Q 928 2841 928 2578 
Q 928 2378 1081 2264 
Q 1234 2150 1697 2047 
L 1894 2003 
Q 2506 1872 2764 1633 
Q 3022 1394 3022 966 
Q 3022 478 2636 193 
Q 2250 -91 1575 -91 
Q 1294 -91 989 -36 
Q 684 19 347 128 
L 347 722 
Q 666 556 975 473 
Q 1284 391 1588 391 
Q 1994 391 2212 530 
Q 2431 669 2431 922 
Q 2431 1156 2273 1281 
Q 2116 1406 1581 1522 
L 1381 1569 
Q 847 1681 609 1914 
Q 372 2147 372 2553 
Q 372 3047 722 3315 
Q 1072 3584 1716 3584 
Q 2034 3584 2315 3537 
Q 2597 3491 2834 3397 
z
" transform="scale(0.015625)"/>
     </defs>
     <use xlink:href="#DejaVuSans-Oblique-45" transform="translate(0 0.09375)"/>
     <use xlink:href="#DejaVuSans-64" transform="translate(63.183594 -16.3125) scale(0.7)"/>
     <use xlink:href="#DejaVuSans-69" transform="translate(107.617188 -16.3125) scale(0.7)"/>
     <use xlink:href="#DejaVuSans-73" transform="translate(127.06543 -16.3125) scale(0.7)"/>
     <use xlink:href="#Calibri-2f" transform="translate(166.269531 0.09375)"/>
     <use xlink:href="#DejaVuSans-Oblique-45" transform="translate(204.892578 0.09375)"/>
     <use xlink:href="#DejaVuSans-69" transform="translate(268.076172 -16.3125) scale(0.7)"/>
    </g>
   </g>
  </g>
 </g>
 <defs>
  <clipPath id="p0af56a8d60">
   <rect x="57.6" y="41.472" width="285.696" height="266.112"/>
  </clipPath>
  <clipPath id="p28b7dc5f43">
   <rect x="361.152" y="41.472" width="13.3056" height="266.112"/>
  </clipPath>
 </defs>
</svg>
