<?xml version="1.0" encoding="utf-8" standalone="no"?>
<!DOCTYPE svg PUBLIC "-//W3C//DTD SVG 1.1//EN"
  "http://www.w3.org/Graphics/SVG/1.1/DTD/svg11.dtd">
<svg xmlns:xlink="http://www.w3.org/1999/xlink" width="460.8pt" height="345.6pt" viewBox="0 0 460.8 345.6" xmlns="http://www.w3.org/2000/svg" version="1.1">
 <metadata>
  <rdf:RDF xmlns:dc="http://purl.org/dc/elements/1.1/" xmlns:cc="http://creativecommons.org/ns#" xmlns:rdf="http://www.w3.org/1999/02/22-rdf-syntax-ns#">
   <cc:Work>
    <dc:type rdf:resource="http://purl.org/dc/dcmitype/StillImage"/>
    <dc:date>2024-01-22T08:51:01.458330</dc:date>
    <dc:format>image/svg+xml</dc:format>
    <dc:creator>
     <cc:Agent>
      <dc:title>Matplotlib v3.7.1, https://matplotlib.org/</dc:title>
     </cc:Agent>
    </dc:creator>
   </cc:Work>
  </rdf:RDF>
 </metadata>
 <defs>
  <style type="text/css">*{stroke-linejoin: round; stroke-linecap: butt}</style>
 </defs>
 <g id="figure_1">
  <g id="patch_1">
   <path d="M 0 345.6 
L 460.8 345.6 
L 460.8 0 
L 0 0 
z
" style="fill: #ffffff"/>
  </g>
  <g id="axes_1">
   <g id="patch_2">
    <path d="M 57.6 307.584 
L 343.296 307.584 
L 343.296 41.472 
L 57.6 41.472 
z
" style="fill: #ffffff"/>
   </g>
   <g id="PathCollection_1">
    <path clip-path="url(#p7004a6b890)" style="fill: #0000b6"/>
   </g>
   <g id="PathCollection_2">
    <path clip-path="url(#p7004a6b890)" style="fill: #0018ff"/>
   </g>
   <g id="PathCollection_3">
    <path clip-path="url(#p7004a6b890)" style="fill: #0080ff"/>
   </g>
   <g id="PathCollection_4">
    <path d="M 57.62857 90.293663 
L 57.856806 90.16509 
L 58.449068 89.832823 
L 59.868944 89.01588 
L 60.088718 88.888387 
L 61.536523 88.0416 
L 61.937298 87.804314 
L 63.172096 87.06732 
L 63.254433 87.017764 
L 63.290789 86.995348 
L 64.06705 86.526295 
L 64.555643 86.224777 
L 65.637726 85.567907 
L 66.738999 84.883025 
L 66.796083 84.848234 
L 67.009811 84.7152 
L 68.007192 84.087863 
L 68.822402 83.562859 
L 69.516175 83.12305 
L 70.204913 82.677396 
L 70.362675 82.577294 
L 70.692394 82.36308 
L 71.693706 81.706856 
L 72.175514 81.3888 
L 73.119345 80.760682 
L 73.448127 80.537638 
L 73.630901 80.41452 
L 75.030983 79.46303 
L 75.741015 78.969435 
L 76.045754 78.761474 
L 77.050398 78.0624 
L 77.342655 77.856817 
L 77.623525 77.654819 
L 78.733804 76.867411 
L 79.259342 76.487566 
L 79.639311 76.217822 
L 80.338576 75.71028 
L 81.014308 75.215313 
L 81.664526 74.736 
L 82.686708 73.971927 
L 82.966179 73.76172 
L 84.185184 72.836272 
L 84.888129 72.291118 
L 85.180365 72.068298 
L 86.028819 71.4096 
L 86.433544 71.091843 
L 86.893582 70.723053 
L 87.831618 69.980299 
L 88.471903 69.464314 
L 88.665247 69.311052 
L 88.97853 69.05748 
L 89.884869 68.316814 
L 89.965959 68.251072 
L 90.169178 68.0832 
L 91.104736 67.307133 
L 91.339238 67.10892 
L 91.561075 66.922116 
L 91.760192 66.751606 
L 93.077011 65.636727 
L 94.095654 64.7568 
L 94.18315 64.680338 
L 94.218047 64.64934 
L 95.25612 63.741117 
L 96.75388 62.40468 
L 96.776376 62.384406 
L 97.087736 62.106149 
L 97.83001 61.4304 
L 98.295426 61.00235 
L 98.886667 60.45612 
L 99.558853 59.82877 
L 100.054748 59.357089 
L 100.458447 58.978583 
L 101.376791 58.104 
L 101.681639 57.810204 
L 102.170786 57.329946 
L 103.033806 56.490594 
L 103.33993 56.18354 
L 103.33993 54.7776 
L 103.33993 51.4512 
L 103.33993 48.1248 
L 103.33993 44.7984 
L 103.33993 41.472 
L 101.816218 41.472 
L 100.292506 41.472 
L 98.768794 41.472 
L 97.245082 41.472 
L 95.72137 41.472 
L 94.197658 41.472 
L 92.673946 41.472 
L 91.150234 41.472 
L 89.626522 41.472 
L 88.10281 41.472 
L 86.579098 41.472 
L 85.055386 41.472 
L 83.531674 41.472 
L 82.007962 41.472 
L 80.48425 41.472 
L 78.960538 41.472 
L 77.436826 41.472 
L 75.913114 41.472 
L 74.389402 41.472 
L 72.86569 41.472 
L 71.341978 41.472 
L 69.818266 41.472 
L 68.294554 41.472 
L 66.770842 41.472 
L 65.24713 41.472 
L 63.723418 41.472 
L 62.199706 41.472 
L 60.675994 41.472 
L 59.152282 41.472 
L 57.62857 41.472 
L 57.62857 44.7984 
L 57.62857 48.1248 
L 57.62857 51.4512 
L 57.62857 54.7776 
L 57.62857 58.104 
L 57.62857 61.4304 
L 57.62857 64.7568 
L 57.62857 68.0832 
L 57.62857 71.4096 
L 57.62857 74.736 
L 57.62857 78.0624 
L 57.62857 81.3888 
L 57.62857 84.7152 
L 57.62857 88.0416 
" clip-path="url(#p7004a6b890)" style="fill: #00e4f8"/>
   </g>
   <g id="PathCollection_5">
    <path d="M 103.33993 56.18354 
L 103.033806 56.490594 
L 102.170786 57.329946 
L 101.681639 57.810204 
L 101.376791 58.104 
L 100.458447 58.978583 
L 100.054748 59.357089 
L 99.558853 59.82877 
L 98.886667 60.45612 
L 98.295426 61.00235 
L 97.83001 61.4304 
L 97.087736 62.106149 
L 96.776376 62.384406 
L 96.75388 62.40468 
L 95.25612 63.741117 
L 94.218047 64.64934 
L 94.18315 64.680338 
L 94.095654 64.7568 
L 93.077011 65.636727 
L 91.760192 66.751606 
L 91.561075 66.922116 
L 91.339238 67.10892 
L 91.104736 67.307133 
L 90.169178 68.0832 
L 89.965959 68.251072 
L 89.884869 68.316814 
L 88.97853 69.05748 
L 88.665247 69.311052 
L 88.471903 69.464314 
L 87.831618 69.980299 
L 86.893582 70.723053 
L 86.433544 71.091843 
L 86.028819 71.4096 
L 85.180365 72.068298 
L 84.888129 72.291118 
L 84.185184 72.836272 
L 82.966179 73.76172 
L 82.686708 73.971927 
L 81.664526 74.736 
L 81.014308 75.215313 
L 80.338576 75.71028 
L 79.639311 76.217822 
L 79.259342 76.487566 
L 78.733804 76.867411 
L 77.623525 77.654819 
L 77.342655 77.856817 
L 77.050398 78.0624 
L 76.045754 78.761474 
L 75.741015 78.969435 
L 75.030983 79.46303 
L 73.630901 80.41452 
L 73.448127 80.537638 
L 73.119345 80.760682 
L 72.175514 81.3888 
L 71.693706 81.706856 
L 70.692394 82.36308 
L 70.362675 82.577294 
L 70.204913 82.677396 
L 69.516175 83.12305 
L 68.822402 83.562859 
L 68.007192 84.087863 
L 67.009811 84.7152 
L 66.796083 84.848234 
L 66.738999 84.883025 
L 65.637726 85.567907 
L 64.555643 86.224777 
L 64.06705 86.526295 
L 63.290789 86.995348 
L 63.254433 87.017764 
L 63.172096 87.06732 
L 61.937298 87.804314 
L 61.536523 88.0416 
L 60.088718 88.888387 
L 59.868944 89.01588 
L 58.449068 89.832823 
L 57.856806 90.16509 
L 57.62857 90.293663 
L 57.62857 91.368 
L 57.62857 94.6944 
L 57.62857 98.0208 
L 57.62857 101.3472 
L 57.62857 104.6736 
L 57.62857 108 
L 57.62857 111.3264 
L 57.62857 114.6528 
L 57.62857 117.9792 
L 57.62857 121.3056 
L 57.62857 124.632 
L 57.62857 127.9584 
L 57.62857 131.2848 
L 57.62857 133.904455 
L 57.997298 133.806234 
L 58.201284 133.751246 
L 58.616814 133.63692 
L 60.04817 133.240605 
L 60.319824 133.16197 
L 60.996489 132.973954 
L 61.491653 132.830543 
L 62.747326 132.480305 
L 63.540471 132.249008 
L 63.887911 132.151753 
L 64.998437 131.827719 
L 65.4391 131.703889 
L 66.765255 131.314244 
L 66.775861 131.311253 
L 66.86584 131.2848 
L 68.123708 130.911828 
L 68.521841 130.788612 
L 69.659654 130.448846 
L 69.996752 130.344099 
L 70.800997 130.103791 
L 72.0633 129.710089 
L 72.539706 129.56672 
L 73.23286 129.349649 
L 73.470231 129.278168 
L 74.569299 128.93268 
L 75.234136 128.722264 
L 77.116616 128.116762 
L 77.341103 128.044959 
L 77.48262 127.99981 
L 77.505729 127.992477 
L 77.610333 127.9584 
L 79.34241 127.393693 
L 79.720014 127.267328 
L 80.570932 126.98412 
L 81.429811 126.696245 
L 81.629518 126.626569 
L 82.340981 126.387159 
L 82.801322 126.226422 
L 84.066206 125.798932 
L 84.888892 125.509493 
L 85.201737 125.403337 
L 86.4227 124.973429 
L 86.693256 124.881218 
L 87.395652 124.632 
L 88.057814 124.394854 
L 88.154621 124.35893 
L 89.31149 123.944257 
L 90.07123 123.661161 
L 90.908632 123.35865 
L 91.428778 123.163949 
L 91.920106 122.9863 
L 93.741374 122.301709 
L 93.7546 122.296889 
L 93.799641 122.27988 
L 95.264231 121.718975 
L 95.906941 121.473406 
L 96.339827 121.3056 
L 98.034232 120.641362 
L 98.813951 120.33132 
L 99.686137 119.981843 
L 99.93191 119.879701 
L 100.601938 119.610048 
L 101.179183 119.369905 
L 102.254124 118.935189 
L 103.236749 118.523006 
L 103.33993 118.480064 
L 103.33993 117.9792 
L 103.33993 114.6528 
L 103.33993 111.3264 
L 103.33993 108 
L 103.33993 104.6736 
L 103.33993 101.3472 
L 103.33993 98.0208 
L 103.33993 94.6944 
L 103.33993 91.368 
L 103.33993 88.0416 
L 103.33993 84.7152 
L 103.33993 81.3888 
L 103.33993 78.0624 
L 103.33993 74.736 
L 103.33993 71.4096 
L 103.33993 68.0832 
L 103.33993 64.7568 
L 103.33993 61.4304 
L 103.33993 58.104 
" clip-path="url(#p7004a6b890)" style="fill: #53ffa4"/>
   </g>
   <g id="PathCollection_6">
    <path d="M 103.33993 118.480064 
L 103.236749 118.523006 
L 102.254124 118.935189 
L 101.179183 119.369905 
L 100.601938 119.610048 
L 99.93191 119.879701 
L 99.686137 119.981843 
L 98.813951 120.33132 
L 98.034232 120.641362 
L 96.339827 121.3056 
L 95.906941 121.473406 
L 95.264231 121.718975 
L 93.799641 122.27988 
L 93.7546 122.296889 
L 93.741374 122.301709 
L 91.920106 122.9863 
L 91.428778 123.163949 
L 90.908632 123.35865 
L 90.07123 123.661161 
L 89.31149 123.944257 
L 88.154621 124.35893 
L 88.057814 124.394854 
L 87.395652 124.632 
L 86.693256 124.881218 
L 86.4227 124.973429 
L 85.201737 125.403337 
L 84.888892 125.509493 
L 84.066206 125.798932 
L 82.801322 126.226422 
L 82.340981 126.387159 
L 81.629518 126.626569 
L 81.429811 126.696245 
L 80.570932 126.98412 
L 79.720014 127.267328 
L 79.34241 127.393693 
L 77.610333 127.9584 
L 77.505729 127.992477 
L 77.48262 127.99981 
L 77.341103 128.044959 
L 77.116616 128.116762 
L 75.234136 128.722264 
L 74.569299 128.93268 
L 73.470231 129.278168 
L 73.23286 129.349649 
L 72.539706 129.56672 
L 72.0633 129.710089 
L 70.800997 130.103791 
L 69.996752 130.344099 
L 69.659654 130.448846 
L 68.521841 130.788612 
L 68.123708 130.911828 
L 66.86584 131.2848 
L 66.775861 131.311253 
L 66.765255 131.314244 
L 65.4391 131.703889 
L 64.998437 131.827719 
L 63.887911 132.151753 
L 63.540471 132.249008 
L 62.747326 132.480305 
L 61.491653 132.830543 
L 60.996489 132.973954 
L 60.319824 133.16197 
L 60.04817 133.240605 
L 58.616814 133.63692 
L 58.201284 133.751246 
L 57.997298 133.806234 
L 57.62857 133.904455 
L 57.62857 134.6112 
L 57.62857 137.9376 
L 57.62857 141.264 
L 57.62857 144.5904 
L 57.62857 147.9168 
L 57.62857 151.2432 
L 57.62857 154.5696 
L 57.62857 157.896 
L 57.62857 161.2224 
L 57.62857 164.5488 
L 57.62857 167.8752 
L 57.62857 171.2016 
L 57.62857 171.837495 
L 57.747864 171.830336 
L 58.905099 171.741222 
L 59.384828 171.709269 
L 60.597462 171.615495 
L 60.752563 171.605155 
L 62.061136 171.504111 
L 62.330056 171.486166 
L 63.689426 171.380753 
L 63.756559 171.376269 
L 65.21899 171.263031 
L 65.273597 171.25938 
L 66.016614 171.2016 
L 66.759806 171.14344 
L 66.782256 171.14144 
L 68.215687 171.029427 
L 68.380141 171.014754 
L 69.762232 170.906277 
L 69.876233 170.896086 
L 71.156085 170.795779 
L 71.543774 170.761061 
L 72.763879 170.665011 
L 72.971027 170.646424 
L 74.094636 170.558101 
L 74.709483 170.502834 
L 75.764722 170.419512 
L 76.066665 170.392318 
L 77.031283 170.316263 
L 77.877336 170.239927 
L 78.764737 170.169642 
L 79.163173 170.133622 
L 79.965962 170.070132 
L 81.047404 169.972183 
L 81.763895 169.915258 
L 82.260581 169.870182 
L 82.89861 169.819566 
L 84.219762 169.69944 
L 84.762168 169.656211 
L 85.35892 169.601841 
L 85.82916 169.564418 
L 87.394489 169.421528 
L 87.759526 169.392342 
L 88.45822 169.32843 
L 88.757539 169.304534 
L 90.571665 169.138268 
L 90.755938 169.123487 
L 91.558515 169.049776 
L 91.683675 169.039751 
L 93.751294 168.84948 
L 93.751365 168.849473 
L 93.751391 168.849471 
L 94.746737 168.756526 
L 96.514379 168.592291 
L 97.517108 168.494232 
L 98.149846 168.434893 
L 99.271953 168.330189 
L 101.298852 168.131068 
L 101.560518 168.106421 
L 102.023894 168.062995 
L 103.312337 167.935438 
L 103.33993 167.932627 
L 103.33993 167.8752 
L 103.33993 164.5488 
L 103.33993 161.2224 
L 103.33993 157.896 
L 103.33993 154.5696 
L 103.33993 151.2432 
L 103.33993 147.9168 
L 103.33993 144.5904 
L 103.33993 141.264 
L 103.33993 137.9376 
L 103.33993 134.6112 
L 103.33993 131.2848 
L 103.33993 127.9584 
L 103.33993 124.632 
L 103.33993 121.3056 
" clip-path="url(#p7004a6b890)" style="fill: #a4ff53"/>
   </g>
   <g id="PathCollection_7">
    <path d="M 103.33993 167.932627 
L 103.312337 167.935438 
L 102.023894 168.062995 
L 101.560518 168.106421 
L 101.298852 168.131068 
L 99.271953 168.330189 
L 98.149846 168.434893 
L 97.517108 168.494232 
L 96.514379 168.592291 
L 94.746737 168.756526 
L 93.751391 168.849471 
L 93.751365 168.849473 
L 93.751294 168.84948 
L 91.683675 169.039751 
L 91.558515 169.049776 
L 90.755938 169.123487 
L 90.571665 169.138268 
L 88.757539 169.304534 
L 88.45822 169.32843 
L 87.759526 169.392342 
L 87.394489 169.421528 
L 85.82916 169.564418 
L 85.35892 169.601841 
L 84.762168 169.656211 
L 84.219762 169.69944 
L 82.89861 169.819566 
L 82.260581 169.870182 
L 81.763895 169.915258 
L 81.047404 169.972183 
L 79.965962 170.070132 
L 79.163173 170.133622 
L 78.764737 170.169642 
L 77.877336 170.239927 
L 77.031283 170.316263 
L 76.066665 170.392318 
L 75.764722 170.419512 
L 74.709483 170.502834 
L 74.094636 170.558101 
L 72.971027 170.646424 
L 72.763879 170.665011 
L 71.543774 170.761061 
L 71.156085 170.795779 
L 69.876233 170.896086 
L 69.762232 170.906277 
L 68.380141 171.014754 
L 68.215687 171.029427 
L 66.782256 171.14144 
L 66.759806 171.14344 
L 66.016614 171.2016 
L 65.273597 171.25938 
L 65.21899 171.263031 
L 63.756559 171.376269 
L 63.689426 171.380753 
L 62.330056 171.486166 
L 62.061136 171.504111 
L 60.752563 171.605155 
L 60.597462 171.615495 
L 59.384828 171.709269 
L 58.905099 171.741222 
L 57.747864 171.830336 
L 57.62857 171.837495 
L 57.62857 174.528 
L 57.62857 177.8544 
L 57.62857 181.1808 
L 57.62857 184.5072 
L 57.62857 187.8336 
L 57.62857 191.16 
L 57.62857 194.4864 
L 57.62857 197.8128 
L 57.62857 201.1392 
L 57.62857 204.4656 
L 57.62857 206.458029 
L 58.012221 206.487613 
L 58.219932 206.501004 
L 60.150154 206.644045 
L 60.261288 206.651283 
L 61.102616 206.714088 
L 61.167794 206.718355 
L 62.489116 206.81772 
L 63.216771 206.872303 
L 63.420109 206.88843 
L 64.323891 206.957148 
L 66.026999 207.086791 
L 67.032164 207.167674 
L 67.657493 207.215928 
L 68.831328 207.306613 
L 69.215857 207.336361 
L 70.999758 207.482542 
L 71.629582 207.53193 
L 71.835195 207.548075 
L 74.351019 207.757292 
L 74.421574 207.762908 
L 74.767528 207.792 
L 77.049499 207.983556 
L 77.209318 207.997727 
L 77.713865 208.042517 
L 77.993636 208.067376 
L 79.990842 208.238172 
L 81.086849 208.33691 
L 81.697375 208.391962 
L 82.765638 208.484699 
L 84.470056 208.640547 
L 84.804039 208.669871 
L 85.533495 208.737503 
L 85.843539 208.76628 
L 87.582807 208.927212 
L 87.689138 208.938167 
L 88.502101 209.013955 
L 88.670532 209.031388 
L 90.503642 209.203568 
L 90.792652 209.233784 
L 91.4952 209.300274 
L 91.858608 209.338444 
L 93.421034 209.487439 
L 93.897802 209.538027 
L 94.486775 209.594622 
L 95.050927 209.654763 
L 96.334864 209.779086 
L 97.004651 209.851223 
L 97.476771 209.897292 
L 98.247656 209.980711 
L 99.245007 210.078784 
L 100.113264 210.173717 
L 100.465131 210.208588 
L 101.448973 210.316673 
L 102.151329 210.386822 
L 103.22371 210.505872 
L 103.33993 210.516935 
L 103.33993 207.792 
L 103.33993 204.4656 
L 103.33993 201.1392 
L 103.33993 197.8128 
L 103.33993 194.4864 
L 103.33993 191.16 
L 103.33993 187.8336 
L 103.33993 184.5072 
L 103.33993 181.1808 
L 103.33993 177.8544 
L 103.33993 174.528 
L 103.33993 171.2016 
" clip-path="url(#p7004a6b890)" style="fill: #f8f500"/>
   </g>
   <g id="PathCollection_8">
    <path d="M 103.33993 210.516935 
L 103.22371 210.505872 
L 102.151329 210.386822 
L 101.448973 210.316673 
L 100.465131 210.208588 
L 100.113264 210.173717 
L 99.245007 210.078784 
L 98.247656 209.980711 
L 97.476771 209.897292 
L 97.004651 209.851223 
L 96.334864 209.779086 
L 95.050927 209.654763 
L 94.486775 209.594622 
L 93.897802 209.538027 
L 93.421034 209.487439 
L 91.858608 209.338444 
L 91.4952 209.300274 
L 90.792652 209.233784 
L 90.503642 209.203568 
L 88.670532 209.031388 
L 88.502101 209.013955 
L 87.689138 208.938167 
L 87.582807 208.927212 
L 85.843539 208.76628 
L 85.533495 208.737503 
L 84.804039 208.669871 
L 84.470056 208.640547 
L 82.765638 208.484699 
L 81.697375 208.391962 
L 81.086849 208.33691 
L 79.990842 208.238172 
L 77.993636 208.067376 
L 77.713865 208.042517 
L 77.209318 207.997727 
L 77.049499 207.983556 
L 74.767528 207.792 
L 74.421574 207.762908 
L 74.351019 207.757292 
L 71.835195 207.548075 
L 71.629582 207.53193 
L 70.999758 207.482542 
L 69.215857 207.336361 
L 68.831328 207.306613 
L 67.657493 207.215928 
L 67.032164 207.167674 
L 66.026999 207.086791 
L 64.323891 206.957148 
L 63.420109 206.88843 
L 63.216771 206.872303 
L 62.489116 206.81772 
L 61.167794 206.718355 
L 61.102616 206.714088 
L 60.261288 206.651283 
L 60.150154 206.644045 
L 58.219932 206.501004 
L 58.012221 206.487613 
L 57.62857 206.458029 
L 57.62857 207.792 
L 57.62857 211.1184 
L 57.62857 214.4448 
L 57.62857 217.7712 
L 57.62857 221.0976 
L 57.62857 224.424 
L 57.62857 227.7504 
L 57.62857 231.0768 
L 57.62857 234.4032 
L 57.62857 237.7296 
L 57.62857 239.513118 
L 57.979571 239.579535 
L 58.279819 239.634265 
L 60.19158 239.998482 
L 60.243687 240.008049 
L 60.628364 240.08172 
L 61.255837 240.202492 
L 62.812212 240.502132 
L 63.177407 240.572469 
L 65.139912 240.959047 
L 65.316379 240.99338 
L 65.631838 241.056 
L 67.814163 241.4904 
L 69.053101 241.741929 
L 70.119309 241.958449 
L 70.303096 241.995425 
L 70.472947 242.03028 
L 72.252189 242.395327 
L 72.498658 242.447982 
L 73.205074 242.593695 
L 73.609794 242.680446 
L 75.033743 242.975746 
L 75.672388 243.113671 
L 76.135517 243.210237 
L 76.98413 243.394126 
L 77.810194 243.567304 
L 78.848917 243.794107 
L 79.063573 243.839356 
L 80.366233 244.124759 
L 80.581378 244.170361 
L 81.541761 244.3824 
L 81.989229 244.48113 
L 82.028395 244.490095 
L 83.348471 244.782347 
L 83.75806 244.876622 
L 84.912737 245.134222 
L 85.211139 245.20329 
L 86.110821 245.404691 
L 87.159152 245.648711 
L 87.83367 245.800883 
L 88.396968 245.932745 
L 88.867561 246.03928 
L 90.568967 246.439842 
L 90.751939 246.481591 
L 91.586 246.679082 
L 91.618504 246.686524 
L 91.820035 246.73452 
L 93.349031 247.098343 
L 95.580734 247.639247 
L 95.667557 247.660139 
L 95.752556 247.680599 
L 95.867566 247.7088 
L 97.807582 248.184176 
L 98.148709 248.269521 
L 99.800705 248.68308 
L 99.841542 248.693294 
L 99.848501 248.695099 
L 100.696055 248.908317 
L 100.861719 248.951444 
L 102.572426 249.384329 
L 103.050506 249.509809 
L 103.33993 249.583015 
L 103.33993 247.7088 
L 103.33993 244.3824 
L 103.33993 241.056 
L 103.33993 237.7296 
L 103.33993 234.4032 
L 103.33993 231.0768 
L 103.33993 227.7504 
L 103.33993 224.424 
L 103.33993 221.0976 
L 103.33993 217.7712 
L 103.33993 214.4448 
L 103.33993 211.1184 
" clip-path="url(#p7004a6b890)" style="fill: #ff9400"/>
   </g>
   <g id="PathCollection_9">
    <path d="M 103.33993 249.583015 
L 103.050506 249.509809 
L 102.572426 249.384329 
L 100.861719 248.951444 
L 100.696055 248.908317 
L 99.848501 248.695099 
L 99.841542 248.693294 
L 99.800705 248.68308 
L 98.148709 248.269521 
L 97.807582 248.184176 
L 95.867566 247.7088 
L 95.752556 247.680599 
L 95.667557 247.660139 
L 95.580734 247.639247 
L 93.349031 247.098343 
L 91.820035 246.73452 
L 91.618504 246.686524 
L 91.586 246.679082 
L 90.751939 246.481591 
L 90.568967 246.439842 
L 88.867561 246.03928 
L 88.396968 245.932745 
L 87.83367 245.800883 
L 87.159152 245.648711 
L 86.110821 245.404691 
L 85.211139 245.20329 
L 84.912737 245.134222 
L 83.75806 244.876622 
L 83.348471 244.782347 
L 82.028395 244.490095 
L 81.989229 244.48113 
L 81.541761 244.3824 
L 80.581378 244.170361 
L 80.366233 244.124759 
L 79.063573 243.839356 
L 78.848917 243.794107 
L 77.810194 243.567304 
L 76.98413 243.394126 
L 76.135517 243.210237 
L 75.672388 243.113671 
L 75.033743 242.975746 
L 73.609794 242.680446 
L 73.205074 242.593695 
L 72.498658 242.447982 
L 72.252189 242.395327 
L 70.472947 242.03028 
L 70.303096 241.995425 
L 70.119309 241.958449 
L 69.053101 241.741929 
L 67.814163 241.4904 
L 65.631838 241.056 
L 65.316379 240.99338 
L 65.139912 240.959047 
L 63.177407 240.572469 
L 62.812212 240.502132 
L 61.255837 240.202492 
L 60.628364 240.08172 
L 60.243687 240.008049 
L 60.19158 239.998482 
L 58.279819 239.634265 
L 57.979571 239.579535 
L 57.62857 239.513118 
L 57.62857 241.056 
L 57.62857 244.3824 
L 57.62857 247.7088 
L 57.62857 251.0352 
L 57.62857 254.3616 
L 57.62857 257.688 
L 57.62857 261.0144 
L 57.62857 264.3408 
L 57.62857 267.6672 
L 57.62857 270.9936 
L 57.62857 272.761148 
L 57.982881 272.860981 
L 58.260897 272.939572 
L 59.668221 273.34572 
L 60.093502 273.468887 
L 61.037877 273.745407 
L 61.815288 273.972385 
L 62.396352 274.14218 
L 62.498691 274.172134 
L 62.998163 274.32 
L 64.691798 274.822167 
L 66.266668 275.29428 
L 66.317546 275.309585 
L 66.328073 275.312813 
L 67.165589 275.565905 
L 67.370412 275.628916 
L 68.99307 276.121477 
L 69.56236 276.297665 
L 70.046176 276.445209 
L 70.915389 276.715119 
L 71.663574 276.944325 
L 72.799834 277.299313 
L 72.924278 277.337616 
L 73.909317 277.6464 
L 74.328871 277.778543 
L 74.470794 277.824088 
L 75.799519 278.245094 
L 76.041512 278.323118 
L 76.988885 278.624295 
L 78.040897 278.965143 
L 78.672022 279.167006 
L 79.287042 279.367223 
L 79.643585 279.481647 
L 81.223475 279.99852 
L 81.471636 280.079941 
L 82.244808 280.336369 
L 83.164449 280.640732 
L 83.701976 280.818802 
L 84.161781 280.9728 
L 85.602454 281.455808 
L 85.924339 281.564876 
L 87.049828 281.94708 
L 87.574659 282.125801 
L 87.698587 282.168767 
L 88.457739 282.428564 
L 88.828788 282.557677 
L 90.207136 283.031666 
L 90.959744 283.295237 
L 91.317277 283.418807 
L 92.453633 283.818239 
L 92.833778 283.950271 
L 93.819984 284.2992 
L 94.173812 284.424874 
L 94.225009 284.443355 
L 95.454562 284.881666 
L 96.094555 285.113897 
L 97.027025 285.448454 
L 97.495561 285.619338 
L 98.069422 285.825992 
L 99.750517 286.44239 
L 99.877153 286.488293 
L 100.319475 286.65132 
L 101.030443 286.915051 
L 102.144499 287.328746 
L 102.936258 287.6256 
L 103.280699 287.754905 
L 103.33993 287.777596 
L 103.33993 287.6256 
L 103.33993 284.2992 
L 103.33993 280.9728 
L 103.33993 277.6464 
L 103.33993 274.32 
L 103.33993 270.9936 
L 103.33993 267.6672 
L 103.33993 264.3408 
L 103.33993 261.0144 
L 103.33993 257.688 
L 103.33993 254.3616 
L 103.33993 251.0352 
" clip-path="url(#p7004a6b890)" style="fill: #ff3800"/>
   </g>
   <g id="PathCollection_10">
    <path d="M 103.33993 287.777596 
L 103.280699 287.754905 
L 102.936258 287.6256 
L 102.144499 287.328746 
L 101.030443 286.915051 
L 100.319475 286.65132 
L 99.877153 286.488293 
L 99.750517 286.44239 
L 98.069422 285.825992 
L 97.495561 285.619338 
L 97.027025 285.448454 
L 96.094555 285.113897 
L 95.454562 284.881666 
L 94.225009 284.443355 
L 94.173812 284.424874 
L 93.819984 284.2992 
L 92.833778 283.950271 
L 92.453633 283.818239 
L 91.317277 283.418807 
L 90.959744 283.295237 
L 90.207136 283.031666 
L 88.828788 282.557677 
L 88.457739 282.428564 
L 87.698587 282.168767 
L 87.574659 282.125801 
L 87.049828 281.94708 
L 85.924339 281.564876 
L 85.602454 281.455808 
L 84.161781 280.9728 
L 83.701976 280.818802 
L 83.164449 280.640732 
L 82.244808 280.336369 
L 81.471636 280.079941 
L 81.223475 279.99852 
L 79.643585 279.481647 
L 79.287042 279.367223 
L 78.672022 279.167006 
L 78.040897 278.965143 
L 76.988885 278.624295 
L 76.041512 278.323118 
L 75.799519 278.245094 
L 74.470794 277.824088 
L 74.328871 277.778543 
L 73.909317 277.6464 
L 72.924278 277.337616 
L 72.799834 277.299313 
L 71.663574 276.944325 
L 70.915389 276.715119 
L 70.046176 276.445209 
L 69.56236 276.297665 
L 68.99307 276.121477 
L 67.370412 275.628916 
L 67.165589 275.565905 
L 66.328073 275.312813 
L 66.317546 275.309585 
L 66.266668 275.29428 
L 64.691798 274.822167 
L 62.998163 274.32 
L 62.498691 274.172134 
L 62.396352 274.14218 
L 61.815288 273.972385 
L 61.037877 273.745407 
L 60.093502 273.468887 
L 59.668221 273.34572 
L 58.260897 272.939572 
L 57.982881 272.860981 
L 57.62857 272.761148 
L 57.62857 274.32 
L 57.62857 277.6464 
L 57.62857 280.9728 
L 57.62857 284.2992 
L 57.62857 287.6256 
L 57.62857 290.952 
L 57.62857 294.2784 
L 57.62857 297.6048 
L 57.62857 300.9312 
L 57.62857 304.2576 
L 57.62857 307.584 
L 59.152282 307.584 
L 60.675994 307.584 
L 62.199706 307.584 
L 63.723418 307.584 
L 65.24713 307.584 
L 66.770842 307.584 
L 68.294554 307.584 
L 69.818266 307.584 
L 71.341978 307.584 
L 72.86569 307.584 
L 74.389402 307.584 
L 75.913114 307.584 
L 77.436826 307.584 
L 78.960538 307.584 
L 80.48425 307.584 
L 82.007962 307.584 
L 83.531674 307.584 
L 85.055386 307.584 
L 86.579098 307.584 
L 88.10281 307.584 
L 89.626522 307.584 
L 91.150234 307.584 
L 92.673946 307.584 
L 94.197658 307.584 
L 95.72137 307.584 
L 97.245082 307.584 
L 98.768794 307.584 
L 100.292506 307.584 
L 101.816218 307.584 
L 103.33993 307.584 
L 103.33993 304.2576 
L 103.33993 300.9312 
L 103.33993 297.6048 
L 103.33993 294.2784 
L 103.33993 290.952 
" clip-path="url(#p7004a6b890)" style="fill: #b60000"/>
   </g>
   <g id="PathCollection_11">
    <path clip-path="url(#p7004a6b890)" style="fill: #0000b6"/>
   </g>
   <g id="PathCollection_12">
    <path clip-path="url(#p7004a6b890)" style="fill: #0018ff"/>
   </g>
   <g id="PathCollection_13">
    <path clip-path="url(#p7004a6b890)" style="fill: #0080ff"/>
   </g>
   <g id="PathCollection_14">
    <path d="M 100.4544 58.979136 
L 102.210987 57.287887 
L 102.883389 56.641092 
L 102.910357 56.61472 
L 108.781593 50.59715 
L 109.017378 50.3424 
L 114.372132 44.332468 
L 114.597897 44.07008 
L 116.710912 41.545499 
L 116.77211 41.472 
L 116.64384 41.472 
L 108.54912 41.472 
L 100.4544 41.472 
L 100.4544 50.3424 
" clip-path="url(#p7004a6b890)" style="fill: #00e4f8"/>
   </g>
   <g id="PathCollection_15">
    <path d="M 116.77211 41.472 
L 116.710912 41.545499 
L 114.597897 44.07008 
L 114.372132 44.332468 
L 109.017378 50.3424 
L 108.781593 50.59715 
L 102.910357 56.61472 
L 102.883389 56.641092 
L 102.210987 57.287887 
L 100.4544 58.979136 
L 100.4544 59.2128 
L 100.4544 68.0832 
L 100.4544 76.9536 
L 100.4544 85.824 
L 100.4544 94.6944 
L 100.4544 103.5648 
L 100.4544 112.4352 
L 100.4544 119.646605 
L 101.200257 119.332394 
L 105.264218 117.705921 
L 111.281374 115.03328 
L 112.771223 114.351637 
L 116.865783 112.4352 
L 119.521032 111.139952 
L 120.602966 110.55803 
L 122.009124 109.83712 
L 127.707969 106.818754 
L 132.698365 103.921724 
L 132.9222 103.800043 
L 133.324191 103.5648 
L 138.224464 100.602197 
L 143.248773 97.29248 
L 144.605901 96.36382 
L 145.451353 95.817319 
L 147.029921 94.6944 
L 150.012277 92.439235 
L 150.488403 92.09632 
L 151.191467 91.561543 
L 153.800987 89.458253 
L 157.652696 86.410547 
L 158.338497 85.824 
L 163.485377 81.255698 
L 165.304692 79.55168 
L 165.8079 79.111001 
L 168.045864 76.9536 
L 169.637341 75.287975 
L 170.541724 74.35552 
L 174.806461 69.726479 
L 176.22303 68.0832 
L 179.77767 63.787 
L 181.343341 61.81088 
L 181.878115 61.104014 
L 183.410752 59.2128 
L 184.342483 57.933364 
L 184.876121 57.115665 
L 185.239586 56.61472 
L 189.503904 50.350711 
L 189.509247 50.3424 
L 189.535866 50.299064 
L 193.448036 44.07008 
L 193.819727 43.434419 
L 194.963179 41.472 
L 189.49632 41.472 
L 181.4016 41.472 
L 173.30688 41.472 
L 165.21216 41.472 
L 157.11744 41.472 
L 149.02272 41.472 
L 140.928 41.472 
L 132.83328 41.472 
L 124.73856 41.472 
" clip-path="url(#p7004a6b890)" style="fill: #53ffa4"/>
   </g>
   <g id="PathCollection_16">
    <path d="M 194.963179 41.472 
L 193.819727 43.434419 
L 193.448036 44.07008 
L 189.535866 50.299064 
L 189.509247 50.3424 
L 189.503904 50.350711 
L 185.239586 56.61472 
L 184.876121 57.115665 
L 184.342483 57.933364 
L 183.410752 59.2128 
L 181.878115 61.104014 
L 181.343341 61.81088 
L 179.77767 63.787 
L 176.22303 68.0832 
L 174.806461 69.726479 
L 170.541724 74.35552 
L 169.637341 75.287975 
L 168.045864 76.9536 
L 165.8079 79.111001 
L 165.304692 79.55168 
L 163.485377 81.255698 
L 158.338497 85.824 
L 157.652696 86.410547 
L 153.800987 89.458253 
L 151.191467 91.561543 
L 150.488403 92.09632 
L 150.012277 92.439235 
L 147.029921 94.6944 
L 145.451353 95.817319 
L 144.605901 96.36382 
L 143.248773 97.29248 
L 138.224464 100.602197 
L 133.324191 103.5648 
L 132.9222 103.800043 
L 132.698365 103.921724 
L 127.707969 106.818754 
L 122.009124 109.83712 
L 120.602966 110.55803 
L 119.521032 111.139952 
L 116.865783 112.4352 
L 112.771223 114.351637 
L 111.281374 115.03328 
L 105.264218 117.705921 
L 101.200257 119.332394 
L 100.4544 119.646605 
L 100.4544 121.3056 
L 100.4544 130.176 
L 100.4544 139.0464 
L 100.4544 147.9168 
L 100.4544 156.7872 
L 100.4544 165.6576 
L 100.4544 168.18958 
L 102.599117 168.007836 
L 103.618684 167.895553 
L 111.721956 167.097768 
L 113.623669 166.917353 
L 124.612505 165.6576 
L 124.698943 165.647765 
L 124.712762 165.64589 
L 124.785264 165.636401 
L 135.68395 164.355768 
L 137.496648 164.100089 
L 145.15544 163.05952 
L 146.483578 162.875144 
L 146.738957 162.829023 
L 151.074452 162.215172 
L 152.379928 161.978686 
L 160.74834 160.766032 
L 163.937119 160.160392 
L 166.35197 159.802631 
L 171.441065 158.831807 
L 174.71797 158.333508 
L 181.318606 157.006766 
L 181.475355 156.982324 
L 182.440187 156.7872 
L 188.368934 155.551781 
L 191.332836 154.774699 
L 196.406245 153.652758 
L 199.047917 152.932949 
L 201.64069 152.35451 
L 208.145272 150.51488 
L 210.132862 149.935365 
L 211.869065 149.451801 
L 216.540824 147.9168 
L 219.583811 146.876725 
L 223.818894 145.31872 
L 226.624524 144.25083 
L 228.291213 143.487514 
L 231.20773 142.321096 
L 237.958369 139.162855 
L 238.111538 139.097792 
L 238.211237 139.0464 
L 244.82146 135.50691 
L 248.307349 133.363773 
L 248.813847 133.084854 
L 249.286767 132.77408 
L 250.756386 131.763623 
L 253.150905 130.176 
L 253.581591 129.870754 
L 256.669521 127.57792 
L 258.60366 126.071981 
L 261.558259 123.39702 
L 262.758458 122.389372 
L 263.90989 121.3056 
L 267.354182 117.920225 
L 269.893586 115.03328 
L 271.606303 112.962994 
L 272.03305 112.4352 
L 272.802431 111.364477 
L 274.030098 109.83712 
L 274.996897 108.554506 
L 278.290388 103.5648 
L 278.445169 103.318575 
L 278.981943 102.390958 
L 281.578846 98.026373 
L 281.960763 97.29248 
L 282.250761 96.683505 
L 283.373818 94.6944 
L 283.955276 93.478984 
L 284.630241 92.09632 
L 287.163381 86.405249 
L 287.390928 85.824 
L 287.906023 84.428945 
L 289.870479 79.55168 
L 290.220789 78.582136 
L 290.510245 77.916133 
L 290.845936 76.9536 
L 291.50358 74.742798 
L 291.652619 74.35552 
L 291.845424 73.795151 
L 293.608246 68.0832 
L 294.093611 66.405735 
L 295.346843 61.81088 
L 295.488505 61.411183 
L 296.118756 59.2128 
L 296.478116 57.637836 
L 296.646973 56.61472 
L 296.823759 55.887696 
L 298.104335 50.3424 
L 299.001597 46.155467 
L 299.408226 44.07008 
L 299.585711 42.941152 
L 299.89785 41.472 
L 294.72768 41.472 
L 286.63296 41.472 
L 278.53824 41.472 
L 270.44352 41.472 
L 262.3488 41.472 
L 254.25408 41.472 
L 246.15936 41.472 
L 238.06464 41.472 
L 229.96992 41.472 
L 221.8752 41.472 
L 213.78048 41.472 
L 205.68576 41.472 
L 197.59104 41.472 
" clip-path="url(#p7004a6b890)" style="fill: #a4ff53"/>
   </g>
   <g id="PathCollection_17">
    <path d="M 299.89785 41.472 
L 299.585711 42.941152 
L 299.408226 44.07008 
L 299.001597 46.155467 
L 298.104335 50.3424 
L 296.823759 55.887696 
L 296.646973 56.61472 
L 296.478116 57.637836 
L 296.118756 59.2128 
L 295.488505 61.411183 
L 295.346843 61.81088 
L 294.093611 66.405735 
L 293.608246 68.0832 
L 291.845424 73.795151 
L 291.652619 74.35552 
L 291.50358 74.742798 
L 290.845936 76.9536 
L 290.510245 77.916133 
L 290.220789 78.582136 
L 289.870479 79.55168 
L 287.906023 84.428945 
L 287.390928 85.824 
L 287.163381 86.405249 
L 284.630241 92.09632 
L 283.955276 93.478984 
L 283.373818 94.6944 
L 282.250761 96.683505 
L 281.960763 97.29248 
L 281.578846 98.026373 
L 278.981943 102.390958 
L 278.445169 103.318575 
L 278.290388 103.5648 
L 274.996897 108.554506 
L 274.030098 109.83712 
L 272.802431 111.364477 
L 272.03305 112.4352 
L 271.606303 112.962994 
L 269.893586 115.03328 
L 267.354182 117.920225 
L 263.90989 121.3056 
L 262.758458 122.389372 
L 261.558259 123.39702 
L 258.60366 126.071981 
L 256.669521 127.57792 
L 253.581591 129.870754 
L 253.150905 130.176 
L 250.756386 131.763623 
L 249.286767 132.77408 
L 248.813847 133.084854 
L 248.307349 133.363773 
L 244.82146 135.50691 
L 238.211237 139.0464 
L 238.111538 139.097792 
L 237.958369 139.162855 
L 231.20773 142.321096 
L 228.291213 143.487514 
L 226.624524 144.25083 
L 223.818894 145.31872 
L 219.583811 146.876725 
L 216.540824 147.9168 
L 211.869065 149.451801 
L 210.132862 149.935365 
L 208.145272 150.51488 
L 201.64069 152.35451 
L 199.047917 152.932949 
L 196.406245 153.652758 
L 191.332836 154.774699 
L 188.368934 155.551781 
L 182.440187 156.7872 
L 181.475355 156.982324 
L 181.318606 157.006766 
L 174.71797 158.333508 
L 171.441065 158.831807 
L 166.35197 159.802631 
L 163.937119 160.160392 
L 160.74834 160.766032 
L 152.379928 161.978686 
L 151.074452 162.215172 
L 146.738957 162.829023 
L 146.483578 162.875144 
L 145.15544 163.05952 
L 137.496648 164.100089 
L 135.68395 164.355768 
L 124.785264 165.636401 
L 124.712762 165.64589 
L 124.698943 165.647765 
L 124.612505 165.6576 
L 113.623669 166.917353 
L 111.721956 167.097768 
L 103.618684 167.895553 
L 102.599117 168.007836 
L 100.4544 168.18958 
L 100.4544 174.528 
L 100.4544 183.3984 
L 100.4544 192.2688 
L 100.4544 201.1392 
L 100.4544 210.0096 
L 100.4544 210.208211 
L 100.533605 210.219142 
L 107.671382 210.971448 
L 109.677479 211.246085 
L 115.913555 211.94161 
L 117.457259 212.161546 
L 122.271506 212.713061 
L 127.978977 213.560531 
L 131.336662 213.968989 
L 134.516088 214.461563 
L 136.624569 214.725409 
L 146.23776 216.28192 
L 146.54397 216.330879 
L 147.636991 216.526485 
L 154.625488 217.748888 
L 158.221499 218.378861 
L 160.772929 218.88 
L 169.473468 220.620008 
L 173.319629 221.47808 
L 178.076454 222.523779 
L 179.576934 222.923144 
L 182.932851 223.699389 
L 186.757603 224.749245 
L 191.237746 225.842101 
L 197.579839 227.720768 
L 197.60025 227.726034 
L 197.67975 227.7504 
L 203.967626 229.633175 
L 209.063471 231.451782 
L 212.017925 232.41334 
L 216.133095 233.974376 
L 216.180782 233.990488 
L 216.260385 234.02272 
L 222.306128 236.425199 
L 222.751011 236.6208 
L 228.322134 239.03937 
L 228.681358 239.21888 
L 231.801736 240.645026 
L 235.311317 242.474039 
L 239.113067 244.342307 
L 241.094323 245.4912 
L 245.269448 247.845514 
L 247.616088 249.345055 
L 249.642623 250.544552 
L 251.392837 251.76352 
L 254.826376 254.101831 
L 255.167985 254.3616 
L 255.587843 254.692706 
L 256.586677 255.420379 
L 258.695236 256.95968 
L 259.472023 257.514045 
L 260.515376 258.381574 
L 263.344746 260.597169 
L 266.331783 263.232 
L 268.64073 265.207543 
L 272.929497 269.50432 
L 273.957862 270.50722 
L 274.540809 271.085251 
L 275.398177 272.1024 
L 277.506892 274.36794 
L 277.763523 274.70048 
L 279.966521 277.194203 
L 282.941791 280.9728 
L 284.682274 283.110412 
L 287.524214 287.24512 
L 288.705059 288.902662 
L 289.27263 289.8432 
L 290.347654 291.529321 
L 290.956483 292.44128 
L 291.561078 293.313243 
L 294.704195 298.7136 
L 294.718641 298.737514 
L 294.779601 298.85096 
L 297.747147 304.275191 
L 298.064117 304.98592 
L 298.326402 305.543241 
L 299.35728 307.584 
L 302.8224 307.584 
L 310.91712 307.584 
L 319.01184 307.584 
L 327.10656 307.584 
L 335.20128 307.584 
L 343.296 307.584 
L 343.296 298.7136 
L 343.296 289.8432 
L 343.296 280.9728 
L 343.296 272.1024 
L 343.296 263.232 
L 343.296 254.3616 
L 343.296 245.4912 
L 343.296 236.6208 
L 343.296 227.7504 
L 343.296 218.88 
L 343.296 210.0096 
L 343.296 201.1392 
L 343.296 192.2688 
L 343.296 183.3984 
L 343.296 174.528 
L 343.296 165.6576 
L 343.296 156.7872 
L 343.296 147.9168 
L 343.296 139.0464 
L 343.296 130.176 
L 343.296 121.3056 
L 343.296 112.4352 
L 343.296 103.5648 
L 343.296 94.6944 
L 343.296 85.824 
L 343.296 76.9536 
L 343.296 68.0832 
L 343.296 59.2128 
L 343.296 50.3424 
L 343.296 41.472 
L 335.20128 41.472 
L 327.10656 41.472 
L 319.01184 41.472 
L 310.91712 41.472 
L 302.8224 41.472 
" clip-path="url(#p7004a6b890)" style="fill: #f8f500"/>
   </g>
   <g id="PathCollection_18">
    <path d="M 299.35728 307.584 
L 298.326402 305.543241 
L 298.064117 304.98592 
L 297.747147 304.275191 
L 294.779601 298.85096 
L 294.718641 298.737514 
L 294.704195 298.7136 
L 291.561078 293.313243 
L 290.956483 292.44128 
L 290.347654 291.529321 
L 289.27263 289.8432 
L 288.705059 288.902662 
L 287.524214 287.24512 
L 284.682274 283.110412 
L 282.941791 280.9728 
L 279.966521 277.194203 
L 277.763523 274.70048 
L 277.506892 274.36794 
L 275.398177 272.1024 
L 274.540809 271.085251 
L 273.957862 270.50722 
L 272.929497 269.50432 
L 268.64073 265.207543 
L 266.331783 263.232 
L 263.344746 260.597169 
L 260.515376 258.381574 
L 259.472023 257.514045 
L 258.695236 256.95968 
L 256.586677 255.420379 
L 255.587843 254.692706 
L 255.167985 254.3616 
L 254.826376 254.101831 
L 251.392837 251.76352 
L 249.642623 250.544552 
L 247.616088 249.345055 
L 245.269448 247.845514 
L 241.094323 245.4912 
L 239.113067 244.342307 
L 235.311317 242.474039 
L 231.801736 240.645026 
L 228.681358 239.21888 
L 228.322134 239.03937 
L 222.751011 236.6208 
L 222.306128 236.425199 
L 216.260385 234.02272 
L 216.180782 233.990488 
L 216.133095 233.974376 
L 212.017925 232.41334 
L 209.063471 231.451782 
L 203.967626 229.633175 
L 197.67975 227.7504 
L 197.60025 227.726034 
L 197.579839 227.720768 
L 191.237746 225.842101 
L 186.757603 224.749245 
L 182.932851 223.699389 
L 179.576934 222.923144 
L 178.076454 222.523779 
L 173.319629 221.47808 
L 169.473468 220.620008 
L 160.772929 218.88 
L 158.221499 218.378861 
L 154.625488 217.748888 
L 147.636991 216.526485 
L 146.54397 216.330879 
L 146.23776 216.28192 
L 136.624569 214.725409 
L 134.516088 214.461563 
L 131.336662 213.968989 
L 127.978977 213.560531 
L 122.271506 212.713061 
L 117.457259 212.161546 
L 115.913555 211.94161 
L 109.677479 211.246085 
L 107.671382 210.971448 
L 100.533605 210.219142 
L 100.4544 210.208211 
L 100.4544 218.88 
L 100.4544 227.7504 
L 100.4544 236.6208 
L 100.4544 245.4912 
L 100.4544 248.842625 
L 101.86189 249.214795 
L 104.554669 249.868421 
L 111.536416 251.76352 
L 113.251531 252.227149 
L 115.111947 252.732383 
L 120.689942 254.3616 
L 123.158137 255.078963 
L 129.254013 256.95968 
L 130.197971 257.249439 
L 130.626732 257.394453 
L 134.566658 258.64625 
L 137.747834 259.747093 
L 142.638998 261.357045 
L 147.787325 263.232 
L 148.874381 263.62444 
L 149.222521 263.760586 
L 154.765033 265.809828 
L 162.250812 268.857279 
L 162.978516 269.141233 
L 163.834669 269.50432 
L 165.133133 270.073273 
L 169.858275 272.1024 
L 171.130574 272.642666 
L 171.622345 272.86702 
L 175.588805 274.70048 
L 178.017353 275.810944 
L 179.785128 276.696333 
L 182.523195 278.005557 
L 188.270052 280.9728 
L 189.106996 281.399431 
L 190.69305 282.284207 
L 196.004471 285.170157 
L 199.54653 287.24512 
L 202.512805 289.055516 
L 203.845628 289.8432 
L 204.643891 290.31611 
L 207.969503 292.44128 
L 210.156059 293.814933 
L 212.552436 295.464739 
L 214.515292 296.769612 
L 217.230778 298.7136 
L 220.059554 300.703231 
L 225.600014 304.98592 
L 226.350047 305.552841 
L 228.847329 307.584 
L 229.96992 307.584 
L 238.06464 307.584 
L 246.15936 307.584 
L 254.25408 307.584 
L 262.3488 307.584 
L 270.44352 307.584 
L 278.53824 307.584 
L 286.63296 307.584 
L 294.72768 307.584 
" clip-path="url(#p7004a6b890)" style="fill: #ff9400"/>
   </g>
   <g id="PathCollection_19">
    <path d="M 228.847329 307.584 
L 226.350047 305.552841 
L 225.600014 304.98592 
L 220.059554 300.703231 
L 217.230778 298.7136 
L 214.515292 296.769612 
L 212.552436 295.464739 
L 210.156059 293.814933 
L 207.969503 292.44128 
L 204.643891 290.31611 
L 203.845628 289.8432 
L 202.512805 289.055516 
L 199.54653 287.24512 
L 196.004471 285.170157 
L 190.69305 282.284207 
L 189.106996 281.399431 
L 188.270052 280.9728 
L 182.523195 278.005557 
L 179.785128 276.696333 
L 178.017353 275.810944 
L 175.588805 274.70048 
L 171.622345 272.86702 
L 171.130574 272.642666 
L 169.858275 272.1024 
L 165.133133 270.073273 
L 163.834669 269.50432 
L 162.978516 269.141233 
L 162.250812 268.857279 
L 154.765033 265.809828 
L 149.222521 263.760586 
L 148.874381 263.62444 
L 147.787325 263.232 
L 142.638998 261.357045 
L 137.747834 259.747093 
L 134.566658 258.64625 
L 130.626732 257.394453 
L 130.197971 257.249439 
L 129.254013 256.95968 
L 123.158137 255.078963 
L 120.689942 254.3616 
L 115.111947 252.732383 
L 113.251531 252.227149 
L 111.536416 251.76352 
L 104.554669 249.868421 
L 101.86189 249.214795 
L 100.4544 248.842625 
L 100.4544 254.3616 
L 100.4544 263.232 
L 100.4544 272.1024 
L 100.4544 280.9728 
L 100.4544 286.714711 
L 102.595366 287.497075 
L 107.547446 289.388534 
L 108.636178 289.803684 
L 108.664311 289.814604 
L 108.734918 289.8432 
L 109.036313 289.964145 
L 115.267209 292.44128 
L 118.512001 293.771274 
L 121.332679 294.981348 
L 126.251847 297.055301 
L 129.966065 298.7136 
L 132.417454 299.813692 
L 133.428293 300.28774 
L 137.700478 302.2504 
L 143.328906 304.98592 
L 144.936675 305.764439 
L 148.542093 307.584 
L 149.02272 307.584 
L 157.11744 307.584 
L 165.21216 307.584 
L 173.30688 307.584 
L 181.4016 307.584 
L 189.49632 307.584 
L 197.59104 307.584 
L 205.68576 307.584 
L 213.78048 307.584 
L 221.8752 307.584 
" clip-path="url(#p7004a6b890)" style="fill: #ff3800"/>
   </g>
   <g id="PathCollection_20">
    <path d="M 148.542093 307.584 
L 144.936675 305.764439 
L 143.328906 304.98592 
L 137.700478 302.2504 
L 133.428293 300.28774 
L 132.417454 299.813692 
L 129.966065 298.7136 
L 126.251847 297.055301 
L 121.332679 294.981348 
L 118.512001 293.771274 
L 115.267209 292.44128 
L 109.036313 289.964145 
L 108.734918 289.8432 
L 108.664311 289.814604 
L 108.636178 289.803684 
L 107.547446 289.388534 
L 102.595366 287.497075 
L 100.4544 286.714711 
L 100.4544 289.8432 
L 100.4544 298.7136 
L 100.4544 307.584 
L 108.54912 307.584 
L 116.64384 307.584 
L 124.73856 307.584 
L 132.83328 307.584 
L 140.928 307.584 
" clip-path="url(#p7004a6b890)" style="fill: #b60000"/>
   </g>
   <g id="matplotlib.axis_1">
    <g id="xtick_1">
     <g id="line2d_1">
      <defs>
       <path id="m3e192d6800" d="M 0 0 
L 0 3.5 
" style="stroke: #000000; stroke-width: 0.8"/>
      </defs>
      <g>
       <use xlink:href="#m3e192d6800" x="57.6" y="307.584" style="stroke: #000000; stroke-width: 0.8"/>
      </g>
     </g>
     <g id="text_1">
      <!-- 0.0 -->
      <g transform="translate(51.26875 321.385562) scale(0.1 -0.1)">
       <defs>
        <path id="Calibri-30" d="M 3022 2031 
Q 3022 1566 2948 1181 
Q 2875 797 2704 520 
Q 2534 244 2259 92 
Q 1984 -59 1581 -59 
Q 1200 -59 939 77 
Q 678 213 518 477 
Q 359 741 292 1127 
Q 225 1513 225 2013 
Q 225 2475 300 2861 
Q 375 3247 544 3523 
Q 713 3800 988 3951 
Q 1263 4103 1663 4103 
Q 2047 4103 2308 3967 
Q 2569 3831 2728 3567 
Q 2888 3303 2955 2917 
Q 3022 2531 3022 2031 
z
M 2472 1994 
Q 2472 2297 2450 2537 
Q 2428 2778 2386 2962 
Q 2344 3147 2276 3280 
Q 2209 3413 2115 3498 
Q 2022 3584 1901 3623 
Q 1781 3663 1631 3663 
Q 1366 3663 1200 3538 
Q 1034 3413 939 3194 
Q 844 2975 809 2681 
Q 775 2388 775 2050 
Q 775 1597 822 1280 
Q 869 963 970 763 
Q 1072 563 1230 472 
Q 1388 381 1613 381 
Q 1788 381 1920 437 
Q 2053 494 2148 598 
Q 2244 703 2306 850 
Q 2369 997 2406 1175 
Q 2444 1353 2458 1561 
Q 2472 1769 2472 1994 
z
" transform="scale(0.015625)"/>
        <path id="Calibri-2e" d="M 1144 341 
Q 1144 119 1070 45 
Q 997 -28 803 -28 
Q 616 -28 544 44 
Q 472 116 472 331 
Q 472 553 545 626 
Q 619 700 813 700 
Q 1000 700 1072 628 
Q 1144 556 1144 341 
z
" transform="scale(0.015625)"/>
       </defs>
       <use xlink:href="#Calibri-30"/>
       <use xlink:href="#Calibri-2e" x="50.683594"/>
       <use xlink:href="#Calibri-30" x="75.927734"/>
      </g>
     </g>
    </g>
    <g id="xtick_2">
     <g id="line2d_2">
      <g>
       <use xlink:href="#m3e192d6800" x="86.1696" y="307.584" style="stroke: #000000; stroke-width: 0.8"/>
      </g>
     </g>
     <g id="text_2">
      <!-- 0.1 -->
      <g transform="translate(79.83835 321.385562) scale(0.1 -0.1)">
       <defs>
        <path id="Calibri-31" d="M 2897 213 
Q 2897 153 2887 112 
Q 2878 72 2862 47 
Q 2847 22 2826 11 
Q 2806 0 2784 0 
L 672 0 
Q 650 0 631 11 
Q 613 22 595 47 
Q 578 72 568 112 
Q 559 153 559 213 
Q 559 269 568 309 
Q 578 350 592 376 
Q 606 403 626 417 
Q 647 431 672 431 
L 1516 431 
L 1516 3506 
L 734 3041 
Q 675 3009 639 3003 
Q 603 2997 581 3017 
Q 559 3038 551 3084 
Q 544 3131 544 3203 
Q 544 3256 548 3293 
Q 553 3331 562 3356 
Q 572 3381 589 3400 
Q 606 3419 634 3438 
L 1566 4034 
Q 1578 4044 1597 4050 
Q 1616 4056 1644 4062 
Q 1672 4069 1709 4070 
Q 1747 4072 1803 4072 
Q 1878 4072 1928 4065 
Q 1978 4059 2006 4048 
Q 2034 4038 2043 4020 
Q 2053 4003 2053 3984 
L 2053 431 
L 2784 431 
Q 2809 431 2831 417 
Q 2853 403 2867 376 
Q 2881 350 2889 309 
Q 2897 269 2897 213 
z
" transform="scale(0.015625)"/>
       </defs>
       <use xlink:href="#Calibri-30"/>
       <use xlink:href="#Calibri-2e" x="50.683594"/>
       <use xlink:href="#Calibri-31" x="75.927734"/>
      </g>
     </g>
    </g>
    <g id="xtick_3">
     <g id="line2d_3">
      <g>
       <use xlink:href="#m3e192d6800" x="114.7392" y="307.584" style="stroke: #000000; stroke-width: 0.8"/>
      </g>
     </g>
     <g id="text_3">
      <!-- 0.2 -->
      <g transform="translate(108.40795 321.385562) scale(0.1 -0.1)">
       <defs>
        <path id="Calibri-32" d="M 2888 231 
Q 2888 175 2880 131 
Q 2872 88 2858 58 
Q 2844 28 2820 14 
Q 2797 0 2769 0 
L 534 0 
Q 491 0 458 11 
Q 425 22 401 47 
Q 378 72 367 119 
Q 356 166 356 234 
Q 356 297 361 344 
Q 366 391 381 427 
Q 397 463 420 498 
Q 444 534 481 575 
L 1266 1406 
Q 1538 1694 1702 1922 
Q 1866 2150 1955 2337 
Q 2044 2525 2072 2678 
Q 2100 2831 2100 2966 
Q 2100 3100 2056 3220 
Q 2013 3341 1930 3431 
Q 1847 3522 1722 3575 
Q 1597 3628 1434 3628 
Q 1244 3628 1092 3575 
Q 941 3522 827 3459 
Q 713 3397 636 3344 
Q 559 3291 522 3291 
Q 500 3291 483 3303 
Q 466 3316 455 3344 
Q 444 3372 437 3419 
Q 431 3466 431 3531 
Q 431 3578 434 3612 
Q 438 3647 445 3672 
Q 453 3697 465 3719 
Q 478 3741 515 3773 
Q 553 3806 645 3862 
Q 738 3919 877 3973 
Q 1016 4028 1183 4065 
Q 1350 4103 1534 4103 
Q 1828 4103 2048 4020 
Q 2269 3938 2414 3794 
Q 2559 3650 2631 3459 
Q 2703 3269 2703 3053 
Q 2703 2859 2668 2667 
Q 2634 2475 2523 2251 
Q 2413 2028 2203 1754 
Q 1994 1481 1647 1125 
L 1006 456 
L 2766 456 
Q 2791 456 2814 442 
Q 2838 428 2855 400 
Q 2872 372 2880 330 
Q 2888 288 2888 231 
z
" transform="scale(0.015625)"/>
       </defs>
       <use xlink:href="#Calibri-30"/>
       <use xlink:href="#Calibri-2e" x="50.683594"/>
       <use xlink:href="#Calibri-32" x="75.927734"/>
      </g>
     </g>
    </g>
    <g id="xtick_4">
     <g id="line2d_4">
      <g>
       <use xlink:href="#m3e192d6800" x="143.3088" y="307.584" style="stroke: #000000; stroke-width: 0.8"/>
      </g>
     </g>
     <g id="text_4">
      <!-- 0.3 -->
      <g transform="translate(136.97755 321.385562) scale(0.1 -0.1)">
       <defs>
        <path id="Calibri-33" d="M 2856 1156 
Q 2856 878 2759 654 
Q 2663 431 2481 272 
Q 2300 113 2034 27 
Q 1769 -59 1434 -59 
Q 1231 -59 1054 -26 
Q 878 6 740 51 
Q 603 97 512 145 
Q 422 194 398 216 
Q 375 238 362 259 
Q 350 281 340 312 
Q 331 344 326 389 
Q 322 434 322 500 
Q 322 613 344 656 
Q 366 700 406 700 
Q 434 700 517 650 
Q 600 600 729 542 
Q 859 484 1032 434 
Q 1206 384 1419 384 
Q 1625 384 1781 437 
Q 1938 491 2044 587 
Q 2150 684 2203 817 
Q 2256 950 2256 1106 
Q 2256 1278 2189 1415 
Q 2122 1553 1992 1653 
Q 1863 1753 1673 1806 
Q 1484 1859 1244 1859 
L 859 1859 
Q 834 1859 811 1870 
Q 788 1881 770 1906 
Q 753 1931 742 1972 
Q 731 2013 731 2078 
Q 731 2138 740 2177 
Q 750 2216 767 2239 
Q 784 2263 806 2273 
Q 828 2284 856 2284 
L 1209 2284 
Q 1416 2284 1580 2337 
Q 1744 2391 1858 2491 
Q 1972 2591 2033 2730 
Q 2094 2869 2094 3041 
Q 2094 3166 2053 3280 
Q 2013 3394 1931 3478 
Q 1850 3563 1723 3611 
Q 1597 3659 1431 3659 
Q 1250 3659 1098 3604 
Q 947 3550 828 3487 
Q 709 3425 631 3370 
Q 553 3316 522 3316 
Q 500 3316 483 3323 
Q 466 3331 455 3354 
Q 444 3378 439 3420 
Q 434 3463 434 3531 
Q 434 3578 437 3614 
Q 441 3650 450 3676 
Q 459 3703 471 3725 
Q 484 3747 514 3776 
Q 544 3806 634 3862 
Q 725 3919 858 3973 
Q 991 4028 1164 4065 
Q 1338 4103 1538 4103 
Q 1819 4103 2031 4031 
Q 2244 3959 2386 3828 
Q 2528 3697 2598 3514 
Q 2669 3331 2669 3109 
Q 2669 2919 2619 2755 
Q 2569 2591 2472 2464 
Q 2375 2338 2234 2248 
Q 2094 2159 1909 2125 
L 1909 2119 
Q 2119 2097 2292 2014 
Q 2466 1931 2591 1806 
Q 2716 1681 2786 1514 
Q 2856 1347 2856 1156 
z
" transform="scale(0.015625)"/>
       </defs>
       <use xlink:href="#Calibri-30"/>
       <use xlink:href="#Calibri-2e" x="50.683594"/>
       <use xlink:href="#Calibri-33" x="75.927734"/>
      </g>
     </g>
    </g>
    <g id="xtick_5">
     <g id="line2d_5">
      <g>
       <use xlink:href="#m3e192d6800" x="171.8784" y="307.584" style="stroke: #000000; stroke-width: 0.8"/>
      </g>
     </g>
     <g id="text_5">
      <!-- 0.4 -->
      <g transform="translate(165.54715 321.385562) scale(0.1 -0.1)">
       <defs>
        <path id="Calibri-34" d="M 3059 1150 
Q 3059 1047 3028 987 
Q 2997 928 2941 928 
L 2484 928 
L 2484 78 
Q 2484 53 2471 36 
Q 2459 19 2428 6 
Q 2397 -6 2347 -12 
Q 2297 -19 2219 -19 
Q 2144 -19 2094 -12 
Q 2044 -6 2014 6 
Q 1984 19 1973 36 
Q 1963 53 1963 78 
L 1963 928 
L 294 928 
Q 256 928 231 937 
Q 206 947 186 972 
Q 166 997 158 1044 
Q 150 1091 150 1166 
Q 150 1225 153 1272 
Q 156 1319 165 1358 
Q 175 1397 190 1433 
Q 206 1469 228 1509 
L 1684 3966 
Q 1700 3991 1729 4009 
Q 1759 4028 1806 4040 
Q 1853 4053 1922 4058 
Q 1991 4063 2084 4063 
Q 2188 4063 2264 4055 
Q 2341 4047 2387 4034 
Q 2434 4022 2459 4001 
Q 2484 3981 2484 3953 
L 2484 1372 
L 2941 1372 
Q 2994 1372 3026 1317 
Q 3059 1263 3059 1150 
z
M 1963 3591 
L 1956 3591 
L 641 1372 
L 1963 1372 
L 1963 3591 
z
" transform="scale(0.015625)"/>
       </defs>
       <use xlink:href="#Calibri-30"/>
       <use xlink:href="#Calibri-2e" x="50.683594"/>
       <use xlink:href="#Calibri-34" x="75.927734"/>
      </g>
     </g>
    </g>
    <g id="xtick_6">
     <g id="line2d_6">
      <g>
       <use xlink:href="#m3e192d6800" x="200.448" y="307.584" style="stroke: #000000; stroke-width: 0.8"/>
      </g>
     </g>
     <g id="text_6">
      <!-- 0.5 -->
      <g transform="translate(194.11675 321.385562) scale(0.1 -0.1)">
       <defs>
        <path id="Calibri-35" d="M 2869 1300 
Q 2869 975 2759 722 
Q 2650 469 2450 295 
Q 2250 122 1973 31 
Q 1697 -59 1359 -59 
Q 1172 -59 1003 -32 
Q 834 -6 703 33 
Q 572 72 487 109 
Q 403 147 379 169 
Q 356 191 347 209 
Q 338 228 330 254 
Q 322 281 319 322 
Q 316 363 316 419 
Q 316 472 320 514 
Q 325 556 337 582 
Q 350 609 367 621 
Q 384 634 406 634 
Q 438 634 503 595 
Q 569 556 680 511 
Q 791 466 955 425 
Q 1119 384 1344 384 
Q 1553 384 1728 434 
Q 1903 484 2029 590 
Q 2156 697 2228 858 
Q 2300 1019 2300 1250 
Q 2300 1444 2239 1592 
Q 2178 1741 2051 1839 
Q 1925 1938 1731 1986 
Q 1538 2034 1269 2034 
Q 1078 2034 940 2015 
Q 803 1997 684 1997 
Q 597 1997 559 2037 
Q 522 2078 522 2194 
L 522 3841 
Q 522 3944 570 3994 
Q 619 4044 709 4044 
L 2500 4044 
Q 2525 4044 2548 4030 
Q 2572 4016 2587 3987 
Q 2603 3959 2611 3915 
Q 2619 3872 2619 3813 
Q 2619 3700 2587 3637 
Q 2556 3575 2500 3575 
L 991 3575 
L 991 2441 
Q 1100 2456 1214 2459 
Q 1328 2463 1478 2463 
Q 1825 2463 2084 2380 
Q 2344 2297 2517 2145 
Q 2691 1994 2780 1778 
Q 2869 1563 2869 1300 
z
" transform="scale(0.015625)"/>
       </defs>
       <use xlink:href="#Calibri-30"/>
       <use xlink:href="#Calibri-2e" x="50.683594"/>
       <use xlink:href="#Calibri-35" x="75.927734"/>
      </g>
     </g>
    </g>
    <g id="xtick_7">
     <g id="line2d_7">
      <g>
       <use xlink:href="#m3e192d6800" x="229.0176" y="307.584" style="stroke: #000000; stroke-width: 0.8"/>
      </g>
     </g>
     <g id="text_7">
      <!-- 0.6 -->
      <g transform="translate(222.68635 321.385562) scale(0.1 -0.1)">
       <defs>
        <path id="Calibri-36" d="M 2991 1309 
Q 2991 1044 2909 795 
Q 2828 547 2659 358 
Q 2491 169 2231 55 
Q 1972 -59 1619 -59 
Q 1366 -59 1172 3 
Q 978 66 834 181 
Q 691 297 595 465 
Q 500 634 442 850 
Q 384 1066 359 1322 
Q 334 1578 334 1872 
Q 334 2131 362 2397 
Q 391 2663 462 2909 
Q 534 3156 657 3373 
Q 781 3591 967 3752 
Q 1153 3913 1412 4006 
Q 1672 4100 2016 4100 
Q 2131 4100 2250 4086 
Q 2369 4072 2469 4048 
Q 2569 4025 2637 3997 
Q 2706 3969 2728 3951 
Q 2750 3934 2761 3914 
Q 2772 3894 2778 3870 
Q 2784 3847 2787 3817 
Q 2791 3788 2791 3744 
Q 2791 3688 2789 3647 
Q 2788 3606 2777 3581 
Q 2766 3556 2748 3543 
Q 2731 3531 2703 3531 
Q 2669 3531 2609 3553 
Q 2550 3575 2465 3601 
Q 2381 3628 2261 3650 
Q 2141 3672 1981 3672 
Q 1691 3672 1481 3553 
Q 1272 3434 1139 3234 
Q 1006 3034 942 2770 
Q 878 2506 869 2219 
Q 950 2266 1051 2312 
Q 1153 2359 1273 2396 
Q 1394 2434 1528 2457 
Q 1663 2481 1816 2481 
Q 2144 2481 2369 2392 
Q 2594 2303 2733 2145 
Q 2872 1988 2931 1773 
Q 2991 1559 2991 1309 
z
M 2447 1259 
Q 2447 1441 2411 1589 
Q 2375 1738 2290 1841 
Q 2206 1944 2065 2000 
Q 1925 2056 1719 2056 
Q 1603 2056 1487 2036 
Q 1372 2016 1264 1980 
Q 1156 1944 1057 1895 
Q 959 1847 878 1791 
Q 878 1388 929 1116 
Q 981 844 1079 680 
Q 1178 516 1325 445 
Q 1472 375 1669 375 
Q 1869 375 2016 450 
Q 2163 525 2259 651 
Q 2356 778 2401 936 
Q 2447 1094 2447 1259 
z
" transform="scale(0.015625)"/>
       </defs>
       <use xlink:href="#Calibri-30"/>
       <use xlink:href="#Calibri-2e" x="50.683594"/>
       <use xlink:href="#Calibri-36" x="75.927734"/>
      </g>
     </g>
    </g>
    <g id="xtick_8">
     <g id="line2d_8">
      <g>
       <use xlink:href="#m3e192d6800" x="257.5872" y="307.584" style="stroke: #000000; stroke-width: 0.8"/>
      </g>
     </g>
     <g id="text_8">
      <!-- 0.7 -->
      <g transform="translate(251.25595 321.385562) scale(0.1 -0.1)">
       <defs>
        <path id="Calibri-37" d="M 2947 3813 
Q 2947 3756 2942 3711 
Q 2938 3666 2930 3623 
Q 2922 3581 2908 3542 
Q 2894 3503 2875 3459 
L 1419 103 
Q 1403 66 1379 42 
Q 1356 19 1320 5 
Q 1284 -9 1228 -14 
Q 1172 -19 1091 -19 
Q 984 -19 925 -9 
Q 866 0 839 20 
Q 813 41 816 70 
Q 819 100 838 141 
L 2369 3572 
L 428 3572 
Q 369 3572 339 3634 
Q 309 3697 309 3809 
Q 309 3869 317 3912 
Q 325 3956 340 3986 
Q 356 4016 378 4030 
Q 400 4044 428 4044 
L 2784 4044 
Q 2828 4044 2861 4034 
Q 2894 4025 2911 3997 
Q 2928 3969 2937 3925 
Q 2947 3881 2947 3813 
z
" transform="scale(0.015625)"/>
       </defs>
       <use xlink:href="#Calibri-30"/>
       <use xlink:href="#Calibri-2e" x="50.683594"/>
       <use xlink:href="#Calibri-37" x="75.927734"/>
      </g>
     </g>
    </g>
    <g id="xtick_9">
     <g id="line2d_9">
      <g>
       <use xlink:href="#m3e192d6800" x="286.1568" y="307.584" style="stroke: #000000; stroke-width: 0.8"/>
      </g>
     </g>
     <g id="text_9">
      <!-- 0.8 -->
      <g transform="translate(279.82555 321.385562) scale(0.1 -0.1)">
       <defs>
        <path id="Calibri-38" d="M 2981 1038 
Q 2981 775 2887 570 
Q 2794 366 2617 225 
Q 2441 84 2181 12 
Q 1922 -59 1588 -59 
Q 1275 -59 1028 6 
Q 781 72 609 200 
Q 438 328 347 515 
Q 256 703 256 944 
Q 256 1134 318 1293 
Q 381 1453 498 1587 
Q 616 1722 787 1839 
Q 959 1956 1175 2063 
Q 988 2159 844 2267 
Q 700 2375 600 2501 
Q 500 2628 448 2772 
Q 397 2916 397 3084 
Q 397 3297 473 3483 
Q 550 3669 704 3806 
Q 859 3944 1098 4023 
Q 1338 4103 1656 4103 
Q 1963 4103 2186 4029 
Q 2409 3956 2554 3829 
Q 2700 3703 2769 3531 
Q 2838 3359 2838 3163 
Q 2838 3003 2786 2856 
Q 2734 2709 2634 2578 
Q 2534 2447 2389 2333 
Q 2244 2219 2056 2119 
Q 2278 2009 2451 1893 
Q 2625 1778 2742 1645 
Q 2859 1513 2920 1364 
Q 2981 1216 2981 1038 
z
M 2306 3113 
Q 2306 3244 2261 3350 
Q 2216 3456 2128 3531 
Q 2041 3606 1911 3645 
Q 1781 3684 1616 3684 
Q 1278 3684 1104 3531 
Q 931 3378 931 3113 
Q 931 2991 973 2886 
Q 1016 2781 1105 2687 
Q 1194 2594 1330 2505 
Q 1466 2416 1653 2319 
Q 1969 2481 2137 2678 
Q 2306 2875 2306 3113 
z
M 2438 981 
Q 2438 1125 2384 1242 
Q 2331 1359 2223 1461 
Q 2116 1563 1955 1658 
Q 1794 1753 1581 1856 
Q 1384 1759 1236 1662 
Q 1088 1566 992 1462 
Q 897 1359 848 1245 
Q 800 1131 800 994 
Q 800 691 1008 525 
Q 1216 359 1628 359 
Q 2028 359 2233 526 
Q 2438 694 2438 981 
z
" transform="scale(0.015625)"/>
       </defs>
       <use xlink:href="#Calibri-30"/>
       <use xlink:href="#Calibri-2e" x="50.683594"/>
       <use xlink:href="#Calibri-38" x="75.927734"/>
      </g>
     </g>
    </g>
    <g id="xtick_10">
     <g id="line2d_10">
      <g>
       <use xlink:href="#m3e192d6800" x="314.7264" y="307.584" style="stroke: #000000; stroke-width: 0.8"/>
      </g>
     </g>
     <g id="text_10">
      <!-- 0.9 -->
      <g transform="translate(308.39515 321.385562) scale(0.1 -0.1)">
       <defs>
        <path id="Calibri-39" d="M 2919 2181 
Q 2919 1919 2887 1650 
Q 2856 1381 2781 1132 
Q 2706 884 2579 667 
Q 2453 450 2261 287 
Q 2069 125 1805 33 
Q 1541 -59 1191 -59 
Q 1056 -59 929 -42 
Q 803 -25 701 0 
Q 600 25 531 53 
Q 463 81 431 109 
Q 400 138 386 186 
Q 372 234 372 316 
Q 372 384 376 425 
Q 381 466 390 487 
Q 400 509 417 517 
Q 434 525 459 525 
Q 494 525 556 501 
Q 619 478 714 450 
Q 809 422 937 398 
Q 1066 375 1225 375 
Q 1528 375 1745 492 
Q 1963 609 2100 806 
Q 2238 1003 2306 1262 
Q 2375 1522 2381 1809 
Q 2216 1713 1984 1638 
Q 1753 1563 1453 1563 
Q 1116 1563 886 1655 
Q 656 1747 517 1906 
Q 378 2066 317 2284 
Q 256 2503 256 2763 
Q 256 3031 334 3273 
Q 413 3516 578 3700 
Q 744 3884 1000 3993 
Q 1256 4103 1613 4103 
Q 1866 4103 2061 4039 
Q 2256 3975 2400 3854 
Q 2544 3734 2644 3564 
Q 2744 3394 2805 3178 
Q 2866 2963 2892 2711 
Q 2919 2459 2919 2181 
z
M 2372 2241 
Q 2372 2641 2319 2914 
Q 2266 3188 2162 3356 
Q 2059 3525 1909 3600 
Q 1759 3675 1563 3675 
Q 1359 3675 1215 3601 
Q 1072 3528 980 3404 
Q 888 3281 844 3125 
Q 800 2969 800 2803 
Q 800 2619 839 2466 
Q 878 2313 965 2206 
Q 1053 2100 1193 2042 
Q 1334 1984 1541 1984 
Q 1775 1984 1994 2054 
Q 2213 2125 2372 2241 
z
" transform="scale(0.015625)"/>
       </defs>
       <use xlink:href="#Calibri-30"/>
       <use xlink:href="#Calibri-2e" x="50.683594"/>
       <use xlink:href="#Calibri-39" x="75.927734"/>
      </g>
     </g>
    </g>
    <g id="xtick_11">
     <g id="line2d_11">
      <g>
       <use xlink:href="#m3e192d6800" x="343.296" y="307.584" style="stroke: #000000; stroke-width: 0.8"/>
      </g>
     </g>
     <g id="text_11">
      <!-- 1.0 -->
      <g transform="translate(336.96475 321.385562) scale(0.1 -0.1)">
       <use xlink:href="#Calibri-31"/>
       <use xlink:href="#Calibri-2e" x="50.683594"/>
       <use xlink:href="#Calibri-30" x="75.927734"/>
      </g>
     </g>
    </g>
    <g id="text_12">
     <!-- $\mathit{p}$ (cm$^2$/cm$^2$) -->
     <g transform="translate(174.148 336.263687) scale(0.1 -0.1)">
      <defs>
       <path id="DejaVuSans-Oblique-70" d="M 3175 2156 
Q 3175 2616 2975 2859 
Q 2775 3103 2400 3103 
Q 2144 3103 1911 2972 
Q 1678 2841 1497 2591 
Q 1319 2344 1212 1994 
Q 1106 1644 1106 1300 
Q 1106 863 1306 627 
Q 1506 391 1875 391 
Q 2147 391 2380 519 
Q 2613 647 2778 891 
Q 2956 1147 3065 1494 
Q 3175 1841 3175 2156 
z
M 1394 2969 
Q 1625 3272 1939 3428 
Q 2253 3584 2638 3584 
Q 3175 3584 3472 3232 
Q 3769 2881 3769 2247 
Q 3769 1728 3584 1258 
Q 3400 788 3053 416 
Q 2822 169 2531 39 
Q 2241 -91 1919 -91 
Q 1547 -91 1294 64 
Q 1041 219 916 525 
L 556 -1331 
L -19 -1331 
L 922 3500 
L 1497 3500 
L 1394 2969 
z
" transform="scale(0.015625)"/>
       <path id="Calibri-20" transform="scale(0.015625)"/>
       <path id="Calibri-28" d="M 1547 4306 
Q 1250 3678 1104 3017 
Q 959 2356 959 1688 
Q 959 1016 1107 356 
Q 1256 -303 1541 -938 
Q 1556 -975 1557 -1001 
Q 1559 -1028 1537 -1045 
Q 1516 -1063 1470 -1070 
Q 1425 -1078 1347 -1078 
Q 1291 -1078 1250 -1075 
Q 1209 -1072 1179 -1062 
Q 1150 -1053 1131 -1040 
Q 1113 -1028 1103 -1013 
Q 934 -694 806 -367 
Q 678 -41 590 296 
Q 503 634 459 979 
Q 416 1325 416 1678 
Q 416 2031 464 2375 
Q 513 2719 602 3058 
Q 691 3397 819 3725 
Q 947 4053 1106 4375 
Q 1109 4388 1123 4397 
Q 1138 4406 1163 4415 
Q 1188 4425 1231 4429 
Q 1275 4434 1344 4434 
Q 1416 4434 1459 4425 
Q 1503 4416 1528 4400 
Q 1553 4384 1556 4359 
Q 1559 4334 1547 4306 
z
" transform="scale(0.015625)"/>
       <path id="Calibri-63" d="M 2500 506 
Q 2500 453 2497 414 
Q 2494 375 2486 348 
Q 2478 322 2467 301 
Q 2456 281 2417 242 
Q 2378 203 2284 145 
Q 2191 88 2073 42 
Q 1956 -3 1818 -31 
Q 1681 -59 1534 -59 
Q 1231 -59 997 41 
Q 763 141 605 333 
Q 447 525 364 804 
Q 281 1084 281 1450 
Q 281 1866 382 2164 
Q 484 2463 661 2653 
Q 838 2844 1077 2936 
Q 1316 3028 1594 3028 
Q 1728 3028 1854 3003 
Q 1981 2978 2087 2937 
Q 2194 2897 2276 2844 
Q 2359 2791 2396 2753 
Q 2434 2716 2448 2694 
Q 2463 2672 2472 2642 
Q 2481 2613 2484 2575 
Q 2488 2538 2488 2481 
Q 2488 2359 2459 2311 
Q 2431 2263 2391 2263 
Q 2344 2263 2283 2314 
Q 2222 2366 2128 2428 
Q 2034 2491 1901 2542 
Q 1769 2594 1588 2594 
Q 1216 2594 1017 2308 
Q 819 2022 819 1478 
Q 819 1206 870 1001 
Q 922 797 1022 659 
Q 1122 522 1267 455 
Q 1413 388 1600 388 
Q 1778 388 1912 444 
Q 2047 500 2145 567 
Q 2244 634 2311 689 
Q 2378 744 2416 744 
Q 2438 744 2453 731 
Q 2469 719 2480 689 
Q 2491 659 2495 614 
Q 2500 569 2500 506 
z
" transform="scale(0.015625)"/>
       <path id="Calibri-6d" d="M 4650 78 
Q 4650 53 4637 36 
Q 4625 19 4597 6 
Q 4569 -6 4519 -12 
Q 4469 -19 4394 -19 
Q 4316 -19 4266 -12 
Q 4216 -6 4186 6 
Q 4156 19 4143 36 
Q 4131 53 4131 78 
L 4131 1788 
Q 4131 1966 4100 2112 
Q 4069 2259 4000 2365 
Q 3931 2472 3825 2528 
Q 3719 2584 3575 2584 
Q 3397 2584 3217 2446 
Q 3038 2309 2822 2044 
L 2822 78 
Q 2822 53 2809 36 
Q 2797 19 2767 6 
Q 2738 -6 2688 -12 
Q 2638 -19 2563 -19 
Q 2491 -19 2439 -12 
Q 2388 -6 2358 6 
Q 2328 19 2317 36 
Q 2306 53 2306 78 
L 2306 1788 
Q 2306 1966 2272 2112 
Q 2238 2259 2169 2365 
Q 2100 2472 1995 2528 
Q 1891 2584 1747 2584 
Q 1569 2584 1387 2446 
Q 1206 2309 994 2044 
L 994 78 
Q 994 53 981 36 
Q 969 19 941 6 
Q 913 -6 863 -12 
Q 813 -19 734 -19 
Q 659 -19 609 -12 
Q 559 -6 529 6 
Q 500 19 489 36 
Q 478 53 478 78 
L 478 2891 
Q 478 2916 487 2933 
Q 497 2950 525 2964 
Q 553 2978 597 2983 
Q 641 2988 713 2988 
Q 781 2988 826 2983 
Q 872 2978 897 2964 
Q 922 2950 933 2933 
Q 944 2916 944 2891 
L 944 2519 
Q 1181 2784 1404 2907 
Q 1628 3031 1856 3031 
Q 2031 3031 2170 2990 
Q 2309 2950 2415 2876 
Q 2522 2803 2597 2701 
Q 2672 2600 2722 2475 
Q 2863 2628 2989 2734 
Q 3116 2841 3233 2906 
Q 3350 2972 3461 3001 
Q 3572 3031 3684 3031 
Q 3956 3031 4140 2936 
Q 4325 2841 4439 2681 
Q 4553 2522 4601 2308 
Q 4650 2094 4650 1856 
L 4650 78 
z
" transform="scale(0.015625)"/>
       <path id="DejaVuSans-32" d="M 1228 531 
L 3431 531 
L 3431 0 
L 469 0 
L 469 531 
Q 828 903 1448 1529 
Q 2069 2156 2228 2338 
Q 2531 2678 2651 2914 
Q 2772 3150 2772 3378 
Q 2772 3750 2511 3984 
Q 2250 4219 1831 4219 
Q 1534 4219 1204 4116 
Q 875 4013 500 3803 
L 500 4441 
Q 881 4594 1212 4672 
Q 1544 4750 1819 4750 
Q 2544 4750 2975 4387 
Q 3406 4025 3406 3419 
Q 3406 3131 3298 2873 
Q 3191 2616 2906 2266 
Q 2828 2175 2409 1742 
Q 1991 1309 1228 531 
z
" transform="scale(0.015625)"/>
       <path id="Calibri-2f" d="M 525 -753 
Q 513 -794 492 -817 
Q 472 -841 440 -853 
Q 409 -866 364 -872 
Q 319 -878 253 -878 
Q 175 -878 123 -867 
Q 72 -856 44 -836 
Q 16 -816 9 -786 
Q 3 -756 22 -716 
L 1913 4469 
Q 1925 4509 1945 4532 
Q 1966 4556 1995 4570 
Q 2025 4584 2072 4589 
Q 2119 4594 2184 4594 
Q 2263 4594 2313 4583 
Q 2363 4572 2391 4553 
Q 2419 4534 2425 4503 
Q 2431 4472 2416 4431 
L 525 -753 
z
" transform="scale(0.015625)"/>
       <path id="Calibri-29" d="M 1522 1678 
Q 1522 1325 1478 979 
Q 1434 634 1346 296 
Q 1259 -41 1132 -367 
Q 1006 -694 838 -1013 
Q 828 -1028 809 -1040 
Q 791 -1053 761 -1062 
Q 731 -1072 690 -1075 
Q 650 -1078 594 -1078 
Q 513 -1078 467 -1070 
Q 422 -1063 401 -1045 
Q 381 -1028 382 -1001 
Q 384 -975 400 -938 
Q 688 -306 834 355 
Q 981 1016 981 1688 
Q 981 2356 834 3017 
Q 688 3678 394 4306 
Q 381 4334 384 4359 
Q 388 4384 413 4400 
Q 438 4416 481 4425 
Q 525 4434 597 4434 
Q 663 4434 706 4429 
Q 750 4425 776 4415 
Q 803 4406 815 4397 
Q 828 4388 834 4375 
Q 1156 3734 1339 3057 
Q 1522 2381 1522 1678 
z
" transform="scale(0.015625)"/>
      </defs>
      <use xlink:href="#DejaVuSans-Oblique-70" transform="translate(0 0.765625)"/>
      <use xlink:href="#Calibri-20" transform="translate(63.476562 0.765625)"/>
      <use xlink:href="#Calibri-28" transform="translate(84.958984 0.765625)"/>
      <use xlink:href="#Calibri-63" transform="translate(115.28125 0.765625)"/>
      <use xlink:href="#Calibri-6d" transform="translate(157.566406 0.765625)"/>
      <use xlink:href="#DejaVuSans-32" transform="translate(238.40625 39.046875) scale(0.7)"/>
      <use xlink:href="#Calibri-2f" transform="translate(285.676758 0.765625)"/>
      <use xlink:href="#Calibri-63" transform="translate(324.299805 0.765625)"/>
      <use xlink:href="#Calibri-6d" transform="translate(366.584961 0.765625)"/>
      <use xlink:href="#DejaVuSans-32" transform="translate(447.424805 39.046875) scale(0.7)"/>
      <use xlink:href="#Calibri-29" transform="translate(494.695312 0.765625)"/>
     </g>
    </g>
   </g>
   <g id="matplotlib.axis_2">
    <g id="ytick_1">
     <g id="line2d_12">
      <defs>
       <path id="mbbce4ef8dd" d="M 0 0 
L -3.5 0 
" style="stroke: #000000; stroke-width: 0.8"/>
      </defs>
      <g>
       <use xlink:href="#mbbce4ef8dd" x="57.6" y="275.65056" style="stroke: #000000; stroke-width: 0.8"/>
      </g>
     </g>
     <g id="text_13">
      <!-- 25 -->
      <g transform="translate(40.4625 279.051341) scale(0.1 -0.1)">
       <use xlink:href="#Calibri-32"/>
       <use xlink:href="#Calibri-35" x="50.683594"/>
      </g>
     </g>
    </g>
    <g id="ytick_2">
     <g id="line2d_13">
      <g>
       <use xlink:href="#mbbce4ef8dd" x="57.6" y="242.38656" style="stroke: #000000; stroke-width: 0.8"/>
      </g>
     </g>
     <g id="text_14">
      <!-- 50 -->
      <g transform="translate(40.4625 245.787341) scale(0.1 -0.1)">
       <use xlink:href="#Calibri-35"/>
       <use xlink:href="#Calibri-30" x="50.683594"/>
      </g>
     </g>
    </g>
    <g id="ytick_3">
     <g id="line2d_14">
      <g>
       <use xlink:href="#mbbce4ef8dd" x="57.6" y="209.12256" style="stroke: #000000; stroke-width: 0.8"/>
      </g>
     </g>
     <g id="text_15">
      <!-- 75 -->
      <g transform="translate(40.4625 212.523341) scale(0.1 -0.1)">
       <use xlink:href="#Calibri-37"/>
       <use xlink:href="#Calibri-35" x="50.683594"/>
      </g>
     </g>
    </g>
    <g id="ytick_4">
     <g id="line2d_15">
      <g>
       <use xlink:href="#mbbce4ef8dd" x="57.6" y="175.85856" style="stroke: #000000; stroke-width: 0.8"/>
      </g>
     </g>
     <g id="text_16">
      <!-- 100 -->
      <g transform="translate(35.39375 179.259341) scale(0.1 -0.1)">
       <use xlink:href="#Calibri-31"/>
       <use xlink:href="#Calibri-30" x="50.683594"/>
       <use xlink:href="#Calibri-30" x="101.367188"/>
      </g>
     </g>
    </g>
    <g id="ytick_5">
     <g id="line2d_16">
      <g>
       <use xlink:href="#mbbce4ef8dd" x="57.6" y="142.59456" style="stroke: #000000; stroke-width: 0.8"/>
      </g>
     </g>
     <g id="text_17">
      <!-- 125 -->
      <g transform="translate(35.39375 145.995341) scale(0.1 -0.1)">
       <use xlink:href="#Calibri-31"/>
       <use xlink:href="#Calibri-32" x="50.683594"/>
       <use xlink:href="#Calibri-35" x="101.367188"/>
      </g>
     </g>
    </g>
    <g id="ytick_6">
     <g id="line2d_17">
      <g>
       <use xlink:href="#mbbce4ef8dd" x="57.6" y="109.33056" style="stroke: #000000; stroke-width: 0.8"/>
      </g>
     </g>
     <g id="text_18">
      <!-- 150 -->
      <g transform="translate(35.39375 112.731341) scale(0.1 -0.1)">
       <use xlink:href="#Calibri-31"/>
       <use xlink:href="#Calibri-35" x="50.683594"/>
       <use xlink:href="#Calibri-30" x="101.367188"/>
      </g>
     </g>
    </g>
    <g id="ytick_7">
     <g id="line2d_18">
      <g>
       <use xlink:href="#mbbce4ef8dd" x="57.6" y="76.06656" style="stroke: #000000; stroke-width: 0.8"/>
      </g>
     </g>
     <g id="text_19">
      <!-- 175 -->
      <g transform="translate(35.39375 79.467341) scale(0.1 -0.1)">
       <use xlink:href="#Calibri-31"/>
       <use xlink:href="#Calibri-37" x="50.683594"/>
       <use xlink:href="#Calibri-35" x="101.367188"/>
      </g>
     </g>
    </g>
    <g id="ytick_8">
     <g id="line2d_19">
      <g>
       <use xlink:href="#mbbce4ef8dd" x="57.6" y="42.80256" style="stroke: #000000; stroke-width: 0.8"/>
      </g>
     </g>
     <g id="text_20">
      <!-- 200 -->
      <g transform="translate(35.39375 46.203341) scale(0.1 -0.1)">
       <use xlink:href="#Calibri-32"/>
       <use xlink:href="#Calibri-30" x="50.683594"/>
       <use xlink:href="#Calibri-30" x="101.367188"/>
      </g>
     </g>
    </g>
    <g id="text_21">
     <!-- $\mathit{Z}$$_{a}$ (nm) -->
     <g transform="translate(29.59375 191.028) rotate(-90) scale(0.1 -0.1)">
      <defs>
       <path id="DejaVuSans-Oblique-5a" d="M 838 4666 
L 4500 4666 
L 4409 4184 
L 794 531 
L 3769 531 
L 3669 0 
L -141 0 
L -50 481 
L 3566 4134 
L 738 4134 
L 838 4666 
z
" transform="scale(0.015625)"/>
       <path id="DejaVuSans-Oblique-61" d="M 3438 1997 
L 3047 0 
L 2472 0 
L 2578 531 
Q 2325 219 2001 64 
Q 1678 -91 1281 -91 
Q 834 -91 548 182 
Q 263 456 263 884 
Q 263 1497 752 1853 
Q 1241 2209 2100 2209 
L 2900 2209 
L 2931 2363 
Q 2938 2388 2941 2417 
Q 2944 2447 2944 2509 
Q 2944 2788 2717 2942 
Q 2491 3097 2081 3097 
Q 1800 3097 1504 3025 
Q 1209 2953 897 2809 
L 997 3341 
Q 1322 3463 1633 3523 
Q 1944 3584 2234 3584 
Q 2853 3584 3176 3315 
Q 3500 3047 3500 2534 
Q 3500 2431 3484 2292 
Q 3469 2153 3438 1997 
z
M 2816 1759 
L 2241 1759 
Q 1534 1759 1195 1570 
Q 856 1381 856 984 
Q 856 709 1029 553 
Q 1203 397 1509 397 
Q 1978 397 2328 733 
Q 2678 1069 2791 1631 
L 2816 1759 
z
" transform="scale(0.015625)"/>
       <path id="Calibri-6e" d="M 2900 78 
Q 2900 53 2887 36 
Q 2875 19 2847 6 
Q 2819 -6 2769 -12 
Q 2719 -19 2644 -19 
Q 2566 -19 2516 -12 
Q 2466 -6 2437 6 
Q 2409 19 2396 36 
Q 2384 53 2384 78 
L 2384 1725 
Q 2384 1966 2346 2112 
Q 2309 2259 2237 2365 
Q 2166 2472 2052 2528 
Q 1938 2584 1788 2584 
Q 1594 2584 1400 2446 
Q 1206 2309 994 2044 
L 994 78 
Q 994 53 981 36 
Q 969 19 941 6 
Q 913 -6 863 -12 
Q 813 -19 734 -19 
Q 659 -19 609 -12 
Q 559 -6 529 6 
Q 500 19 489 36 
Q 478 53 478 78 
L 478 2891 
Q 478 2916 487 2933 
Q 497 2950 525 2964 
Q 553 2978 597 2983 
Q 641 2988 713 2988 
Q 781 2988 826 2983 
Q 872 2978 897 2964 
Q 922 2950 933 2933 
Q 944 2916 944 2891 
L 944 2519 
Q 1181 2784 1417 2907 
Q 1653 3031 1894 3031 
Q 2175 3031 2367 2936 
Q 2559 2841 2678 2681 
Q 2797 2522 2848 2308 
Q 2900 2094 2900 1794 
L 2900 78 
z
" transform="scale(0.015625)"/>
      </defs>
      <use xlink:href="#DejaVuSans-Oblique-5a" transform="translate(0 0.09375)"/>
      <use xlink:href="#DejaVuSans-Oblique-61" transform="translate(69.462891 -16.3125) scale(0.7)"/>
      <use xlink:href="#Calibri-20" transform="translate(115.092773 0.09375)"/>
      <use xlink:href="#Calibri-28" transform="translate(136.575195 0.09375)"/>
      <use xlink:href="#Calibri-6e" transform="translate(166.897461 0.09375)"/>
      <use xlink:href="#Calibri-6d" transform="translate(219.436523 0.09375)"/>
      <use xlink:href="#Calibri-29" transform="translate(299.319336 0.09375)"/>
     </g>
    </g>
   </g>
   <g id="patch_3">
    <path d="M 57.6 307.584 
L 57.6 41.472 
" style="fill: none; stroke: #000000; stroke-width: 0.8; stroke-linejoin: miter; stroke-linecap: square"/>
   </g>
   <g id="patch_4">
    <path d="M 343.296 307.584 
L 343.296 41.472 
" style="fill: none; stroke: #000000; stroke-width: 0.8; stroke-linejoin: miter; stroke-linecap: square"/>
   </g>
   <g id="patch_5">
    <path d="M 57.6 307.584 
L 343.296 307.584 
" style="fill: none; stroke: #000000; stroke-width: 0.8; stroke-linejoin: miter; stroke-linecap: square"/>
   </g>
   <g id="patch_6">
    <path d="M 57.6 41.472 
L 343.296 41.472 
" style="fill: none; stroke: #000000; stroke-width: 0.8; stroke-linejoin: miter; stroke-linecap: square"/>
   </g>
   <g id="text_22">
    <!-- $\lambda$ = 785 nm -->
    <g transform="translate(177.348 35.472) scale(0.1 -0.1)">
     <defs>
      <path id="DejaVuSans-Oblique-3bb" d="M 2350 4316 
L 3125 0 
L 2516 0 
L 2038 2588 
L 328 0 
L -281 0 
L 1903 3356 
L 1794 3975 
Q 1725 4369 1391 4369 
L 1091 4369 
L 1184 4863 
L 1550 4856 
Q 2253 4847 2350 4316 
z
" transform="scale(0.015625)"/>
      <path id="Calibri-3d" d="M 2891 2409 
Q 2891 2284 2855 2236 
Q 2819 2188 2772 2188 
L 409 2188 
Q 363 2188 328 2236 
Q 294 2284 294 2409 
Q 294 2522 325 2575 
Q 356 2628 409 2628 
L 2772 2628 
Q 2828 2628 2859 2575 
Q 2891 2522 2891 2409 
z
M 2891 1194 
Q 2891 1069 2855 1022 
Q 2819 975 2772 975 
L 409 975 
Q 363 975 328 1022 
Q 294 1069 294 1194 
Q 294 1309 325 1362 
Q 356 1416 409 1416 
L 2772 1416 
Q 2828 1416 2859 1362 
Q 2891 1309 2891 1194 
z
" transform="scale(0.015625)"/>
     </defs>
     <use xlink:href="#DejaVuSans-Oblique-3bb" transform="translate(0 0.015625)"/>
     <use xlink:href="#Calibri-20" transform="translate(59.179688 0.015625)"/>
     <use xlink:href="#Calibri-3d" transform="translate(81.787109 0.015625)"/>
     <use xlink:href="#Calibri-20" transform="translate(131.591797 0.015625)"/>
     <use xlink:href="#Calibri-37" transform="translate(154.199219 0.015625)"/>
     <use xlink:href="#Calibri-38" transform="translate(204.882812 0.015625)"/>
     <use xlink:href="#Calibri-35" transform="translate(255.566406 0.015625)"/>
     <use xlink:href="#Calibri-20" transform="translate(306.25 0.015625)"/>
     <use xlink:href="#Calibri-6e" transform="translate(328.857422 0.015625)"/>
     <use xlink:href="#Calibri-6d" transform="translate(381.396484 0.015625)"/>
    </g>
   </g>
  </g>
  <g id="axes_2">
   <g id="patch_7">
    <path d="M 361.152 307.584 
L 374.4576 307.584 
L 374.4576 41.472 
L 361.152 41.472 
z
" style="fill: #ffffff"/>
   </g>
   <g id="QuadMesh_1">
    <path d="M 361.152 307.584 
L 374.4576 307.584 
L 374.4576 280.9728 
L 361.152 280.9728 
L 361.152 307.584 
" clip-path="url(#pf9fb36308b)" style="fill: #0000b6"/>
    <path d="M 361.152 280.9728 
L 374.4576 280.9728 
L 374.4576 254.3616 
L 361.152 254.3616 
L 361.152 280.9728 
" clip-path="url(#pf9fb36308b)" style="fill: #0018ff"/>
    <path d="M 361.152 254.3616 
L 374.4576 254.3616 
L 374.4576 227.7504 
L 361.152 227.7504 
L 361.152 254.3616 
" clip-path="url(#pf9fb36308b)" style="fill: #0080ff"/>
    <path d="M 361.152 227.7504 
L 374.4576 227.7504 
L 374.4576 201.1392 
L 361.152 201.1392 
L 361.152 227.7504 
" clip-path="url(#pf9fb36308b)" style="fill: #00e4f8"/>
    <path d="M 361.152 201.1392 
L 374.4576 201.1392 
L 374.4576 174.528 
L 361.152 174.528 
L 361.152 201.1392 
" clip-path="url(#pf9fb36308b)" style="fill: #53ffa4"/>
    <path d="M 361.152 174.528 
L 374.4576 174.528 
L 374.4576 147.9168 
L 361.152 147.9168 
L 361.152 174.528 
" clip-path="url(#pf9fb36308b)" style="fill: #a4ff53"/>
    <path d="M 361.152 147.9168 
L 374.4576 147.9168 
L 374.4576 121.3056 
L 361.152 121.3056 
L 361.152 147.9168 
" clip-path="url(#pf9fb36308b)" style="fill: #f8f500"/>
    <path d="M 361.152 121.3056 
L 374.4576 121.3056 
L 374.4576 94.6944 
L 361.152 94.6944 
L 361.152 121.3056 
" clip-path="url(#pf9fb36308b)" style="fill: #ff9400"/>
    <path d="M 361.152 94.6944 
L 374.4576 94.6944 
L 374.4576 68.0832 
L 361.152 68.0832 
L 361.152 94.6944 
" clip-path="url(#pf9fb36308b)" style="fill: #ff3800"/>
    <path d="M 361.152 68.0832 
L 374.4576 68.0832 
L 374.4576 41.472 
L 361.152 41.472 
L 361.152 68.0832 
" clip-path="url(#pf9fb36308b)" style="fill: #b60000"/>
   </g>
   <g id="matplotlib.axis_3"/>
   <g id="matplotlib.axis_4">
    <g id="ytick_9">
     <g id="line2d_20">
      <defs>
       <path id="ma79f6fad97" d="M 0 0 
L 3.5 0 
" style="stroke: #000000; stroke-width: 0.8"/>
      </defs>
      <g>
       <use xlink:href="#ma79f6fad97" x="374.4576" y="307.584" style="stroke: #000000; stroke-width: 0.8"/>
      </g>
     </g>
     <g id="text_23">
      <!-- 0 -->
      <g transform="translate(381.4576 310.984781) scale(0.1 -0.1)">
       <use xlink:href="#Calibri-30"/>
      </g>
     </g>
    </g>
    <g id="ytick_10">
     <g id="line2d_21">
      <g>
       <use xlink:href="#ma79f6fad97" x="374.4576" y="280.9728" style="stroke: #000000; stroke-width: 0.8"/>
      </g>
     </g>
     <g id="text_24">
      <!-- 0.1 -->
      <g transform="translate(381.4576 284.373581) scale(0.1 -0.1)">
       <use xlink:href="#Calibri-30"/>
       <use xlink:href="#Calibri-2e" x="50.683594"/>
       <use xlink:href="#Calibri-31" x="75.927734"/>
      </g>
     </g>
    </g>
    <g id="ytick_11">
     <g id="line2d_22">
      <g>
       <use xlink:href="#ma79f6fad97" x="374.4576" y="254.3616" style="stroke: #000000; stroke-width: 0.8"/>
      </g>
     </g>
     <g id="text_25">
      <!-- 0.2 -->
      <g transform="translate(381.4576 257.762381) scale(0.1 -0.1)">
       <use xlink:href="#Calibri-30"/>
       <use xlink:href="#Calibri-2e" x="50.683594"/>
       <use xlink:href="#Calibri-32" x="75.927734"/>
      </g>
     </g>
    </g>
    <g id="ytick_12">
     <g id="line2d_23">
      <g>
       <use xlink:href="#ma79f6fad97" x="374.4576" y="227.7504" style="stroke: #000000; stroke-width: 0.8"/>
      </g>
     </g>
     <g id="text_26">
      <!-- 0.3 -->
      <g transform="translate(381.4576 231.151181) scale(0.1 -0.1)">
       <use xlink:href="#Calibri-30"/>
       <use xlink:href="#Calibri-2e" x="50.683594"/>
       <use xlink:href="#Calibri-33" x="75.927734"/>
      </g>
     </g>
    </g>
    <g id="ytick_13">
     <g id="line2d_24">
      <g>
       <use xlink:href="#ma79f6fad97" x="374.4576" y="201.1392" style="stroke: #000000; stroke-width: 0.8"/>
      </g>
     </g>
     <g id="text_27">
      <!-- 0.4 -->
      <g transform="translate(381.4576 204.539981) scale(0.1 -0.1)">
       <use xlink:href="#Calibri-30"/>
       <use xlink:href="#Calibri-2e" x="50.683594"/>
       <use xlink:href="#Calibri-34" x="75.927734"/>
      </g>
     </g>
    </g>
    <g id="ytick_14">
     <g id="line2d_25">
      <g>
       <use xlink:href="#ma79f6fad97" x="374.4576" y="174.528" style="stroke: #000000; stroke-width: 0.8"/>
      </g>
     </g>
     <g id="text_28">
      <!-- 0.5 -->
      <g transform="translate(381.4576 177.928781) scale(0.1 -0.1)">
       <use xlink:href="#Calibri-30"/>
       <use xlink:href="#Calibri-2e" x="50.683594"/>
       <use xlink:href="#Calibri-35" x="75.927734"/>
      </g>
     </g>
    </g>
    <g id="ytick_15">
     <g id="line2d_26">
      <g>
       <use xlink:href="#ma79f6fad97" x="374.4576" y="147.9168" style="stroke: #000000; stroke-width: 0.8"/>
      </g>
     </g>
     <g id="text_29">
      <!-- 0.6 -->
      <g transform="translate(381.4576 151.317581) scale(0.1 -0.1)">
       <use xlink:href="#Calibri-30"/>
       <use xlink:href="#Calibri-2e" x="50.683594"/>
       <use xlink:href="#Calibri-36" x="75.927734"/>
      </g>
     </g>
    </g>
    <g id="ytick_16">
     <g id="line2d_27">
      <g>
       <use xlink:href="#ma79f6fad97" x="374.4576" y="121.3056" style="stroke: #000000; stroke-width: 0.8"/>
      </g>
     </g>
     <g id="text_30">
      <!-- 0.7 -->
      <g transform="translate(381.4576 124.706381) scale(0.1 -0.1)">
       <use xlink:href="#Calibri-30"/>
       <use xlink:href="#Calibri-2e" x="50.683594"/>
       <use xlink:href="#Calibri-37" x="75.927734"/>
      </g>
     </g>
    </g>
    <g id="ytick_17">
     <g id="line2d_28">
      <g>
       <use xlink:href="#ma79f6fad97" x="374.4576" y="94.6944" style="stroke: #000000; stroke-width: 0.8"/>
      </g>
     </g>
     <g id="text_31">
      <!-- 0.8 -->
      <g transform="translate(381.4576 98.095181) scale(0.1 -0.1)">
       <use xlink:href="#Calibri-30"/>
       <use xlink:href="#Calibri-2e" x="50.683594"/>
       <use xlink:href="#Calibri-38" x="75.927734"/>
      </g>
     </g>
    </g>
    <g id="ytick_18">
     <g id="line2d_29">
      <g>
       <use xlink:href="#ma79f6fad97" x="374.4576" y="68.0832" style="stroke: #000000; stroke-width: 0.8"/>
      </g>
     </g>
     <g id="text_32">
      <!-- 0.9 -->
      <g transform="translate(381.4576 71.483981) scale(0.1 -0.1)">
       <use xlink:href="#Calibri-30"/>
       <use xlink:href="#Calibri-2e" x="50.683594"/>
       <use xlink:href="#Calibri-39" x="75.927734"/>
      </g>
     </g>
    </g>
    <g id="ytick_19">
     <g id="line2d_30">
      <g>
       <use xlink:href="#ma79f6fad97" x="374.4576" y="41.472" style="stroke: #000000; stroke-width: 0.8"/>
      </g>
     </g>
     <g id="text_33">
      <!-- 1.0 -->
      <g transform="translate(381.4576 44.872781) scale(0.1 -0.1)">
       <use xlink:href="#Calibri-31"/>
       <use xlink:href="#Calibri-2e" x="50.683594"/>
       <use xlink:href="#Calibri-30" x="75.927734"/>
      </g>
     </g>
    </g>
   </g>
   <g id="LineCollection_1"/>
   <g id="patch_8">
    <path d="M 361.152 307.584 
L 367.8048 307.584 
L 374.4576 307.584 
L 374.4576 41.472 
L 367.8048 41.472 
L 361.152 41.472 
L 361.152 307.584 
z
" style="fill: none; stroke: #000000; stroke-width: 0.8; stroke-linejoin: miter; stroke-linecap: square"/>
   </g>
   <g id="text_34">
    <!-- $\mathit{E}_{\mathrm{dis}}$/$\mathit{E}_{\mathrm{i}}$ -->
    <g transform="translate(353.2548 35.472) scale(0.1 -0.1)">
     <defs>
      <path id="DejaVuSans-Oblique-45" d="M 1081 4666 
L 4031 4666 
L 3928 4134 
L 1606 4134 
L 1338 2753 
L 3566 2753 
L 3463 2222 
L 1234 2222 
L 909 531 
L 3284 531 
L 3181 0 
L 172 0 
L 1081 4666 
z
" transform="scale(0.015625)"/>
      <path id="DejaVuSans-64" d="M 2906 2969 
L 2906 4863 
L 3481 4863 
L 3481 0 
L 2906 0 
L 2906 525 
Q 2725 213 2448 61 
Q 2172 -91 1784 -91 
Q 1150 -91 751 415 
Q 353 922 353 1747 
Q 353 2572 751 3078 
Q 1150 3584 1784 3584 
Q 2172 3584 2448 3432 
Q 2725 3281 2906 2969 
z
M 947 1747 
Q 947 1113 1208 752 
Q 1469 391 1925 391 
Q 2381 391 2643 752 
Q 2906 1113 2906 1747 
Q 2906 2381 2643 2742 
Q 2381 3103 1925 3103 
Q 1469 3103 1208 2742 
Q 947 2381 947 1747 
z
" transform="scale(0.015625)"/>
      <path id="DejaVuSans-69" d="M 603 3500 
L 1178 3500 
L 1178 0 
L 603 0 
L 603 3500 
z
M 603 4863 
L 1178 4863 
L 1178 4134 
L 603 4134 
L 603 4863 
z
" transform="scale(0.015625)"/>
      <path id="DejaVuSans-73" d="M 2834 3397 
L 2834 2853 
Q 2591 2978 2328 3040 
Q 2066 3103 1784 3103 
Q 1356 3103 1142 2972 
Q 928 2841 928 2578 
Q 928 2378 1081 2264 
Q 1234 2150 1697 2047 
L 1894 2003 
Q 2506 1872 2764 1633 
Q 3022 1394 3022 966 
Q 3022 478 2636 193 
Q 2250 -91 1575 -91 
Q 1294 -91 989 -36 
Q 684 19 347 128 
L 347 722 
Q 666 556 975 473 
Q 1284 391 1588 391 
Q 1994 391 2212 530 
Q 2431 669 2431 922 
Q 2431 1156 2273 1281 
Q 2116 1406 1581 1522 
L 1381 1569 
Q 847 1681 609 1914 
Q 372 2147 372 2553 
Q 372 3047 722 3315 
Q 1072 3584 1716 3584 
Q 2034 3584 2315 3537 
Q 2597 3491 2834 3397 
z
" transform="scale(0.015625)"/>
     </defs>
     <use xlink:href="#DejaVuSans-Oblique-45" transform="translate(0 0.09375)"/>
     <use xlink:href="#DejaVuSans-64" transform="translate(63.183594 -16.3125) scale(0.7)"/>
     <use xlink:href="#DejaVuSans-69" transform="translate(107.617188 -16.3125) scale(0.7)"/>
     <use xlink:href="#DejaVuSans-73" transform="translate(127.06543 -16.3125) scale(0.7)"/>
     <use xlink:href="#Calibri-2f" transform="translate(166.269531 0.09375)"/>
     <use xlink:href="#DejaVuSans-Oblique-45" transform="translate(204.892578 0.09375)"/>
     <use xlink:href="#DejaVuSans-69" transform="translate(268.076172 -16.3125) scale(0.7)"/>
    </g>
   </g>
  </g>
 </g>
 <defs>
  <clipPath id="p7004a6b890">
   <rect x="57.6" y="41.472" width="285.696" height="266.112"/>
  </clipPath>
  <clipPath id="pf9fb36308b">
   <rect x="361.152" y="41.472" width="13.3056" height="266.112"/>
  </clipPath>
 </defs>
</svg>
