<?xml version="1.0" encoding="utf-8" standalone="no"?>
<!DOCTYPE svg PUBLIC "-//W3C//DTD SVG 1.1//EN"
  "http://www.w3.org/Graphics/SVG/1.1/DTD/svg11.dtd">
<svg xmlns:xlink="http://www.w3.org/1999/xlink" width="460.8pt" height="345.6pt" viewBox="0 0 460.8 345.6" xmlns="http://www.w3.org/2000/svg" version="1.1">
 <metadata>
  <rdf:RDF xmlns:dc="http://purl.org/dc/elements/1.1/" xmlns:cc="http://creativecommons.org/ns#" xmlns:rdf="http://www.w3.org/1999/02/22-rdf-syntax-ns#">
   <cc:Work>
    <dc:type rdf:resource="http://purl.org/dc/dcmitype/StillImage"/>
    <dc:date>2024-01-22T08:51:26.016529</dc:date>
    <dc:format>image/svg+xml</dc:format>
    <dc:creator>
     <cc:Agent>
      <dc:title>Matplotlib v3.7.1, https://matplotlib.org/</dc:title>
     </cc:Agent>
    </dc:creator>
   </cc:Work>
  </rdf:RDF>
 </metadata>
 <defs>
  <style type="text/css">*{stroke-linejoin: round; stroke-linecap: butt}</style>
 </defs>
 <g id="figure_1">
  <g id="patch_1">
   <path d="M 0 345.6 
L 460.8 345.6 
L 460.8 0 
L 0 0 
z
" style="fill: #ffffff"/>
  </g>
  <g id="axes_1">
   <g id="patch_2">
    <path d="M 57.6 307.584 
L 343.296 307.584 
L 343.296 41.472 
L 57.6 41.472 
z
" style="fill: #ffffff"/>
   </g>
   <g id="PathCollection_1">
    <path clip-path="url(#pf2a6f8e180)" style="fill: #0000b6"/>
   </g>
   <g id="PathCollection_2">
    <path clip-path="url(#pf2a6f8e180)" style="fill: #0018ff"/>
   </g>
   <g id="PathCollection_3">
    <path clip-path="url(#pf2a6f8e180)" style="fill: #0080ff"/>
   </g>
   <g id="PathCollection_4">
    <path d="M 57.62857 82.762842 
L 58.044549 82.522801 
L 58.126465 82.47575 
L 58.317831 82.36308 
L 59.472124 81.678022 
L 59.592991 81.606757 
L 59.955609 81.3888 
L 61.299689 80.574946 
L 61.562577 80.41452 
L 62.900176 79.59159 
L 63.505644 79.210162 
L 63.895503 78.969365 
L 65.211861 78.139393 
L 65.266786 78.105312 
L 65.334323 78.0624 
L 66.614896 77.240496 
L 66.971036 77.007288 
L 67.620215 76.590259 
L 68.95871 75.71028 
L 69.197155 75.552192 
L 70.41961 74.736 
L 70.947299 74.379106 
L 71.853866 73.76172 
L 72.284054 73.466237 
L 72.504897 73.311137 
L 73.142983 72.871061 
L 73.993982 72.272836 
L 74.594258 71.856819 
L 75.225356 71.4096 
L 75.830847 70.976018 
L 76.021813 70.836703 
L 76.889507 70.214755 
L 78.469292 69.05748 
L 78.494032 69.039195 
L 78.84671 68.780471 
L 79.779622 68.0832 
L 80.059614 67.873193 
L 80.163886 67.793507 
L 81.066492 67.10892 
L 81.433144 66.828321 
L 81.646562 66.661535 
L 82.277373 66.17672 
L 83.218507 65.440472 
L 83.681135 65.083088 
L 84.094752 64.7568 
L 84.929138 64.09142 
L 85.227575 63.849284 
L 85.912818 63.302252 
L 87.014336 62.40468 
L 87.350645 62.128083 
L 88.19445 61.4304 
L 88.937304 60.807164 
L 89.353556 60.45612 
L 90.325085 59.629026 
L 90.966567 59.072005 
L 91.282622 58.801748 
L 92.085264 58.104 
L 92.504952 57.735072 
L 93.078337 57.221176 
L 93.893072 56.498697 
L 94.627883 55.836518 
L 94.666861 55.801914 
L 94.722135 55.75188 
L 95.75488 54.807902 
L 95.787883 54.7776 
L 95.862993 54.707559 
L 96.838141 53.80332 
L 97.562157 53.122328 
L 98.346459 52.373194 
L 98.935786 51.81576 
L 99.314056 51.4512 
L 100.139773 50.646229 
L 100.515856 50.274045 
L 101.041831 49.760645 
L 101.707272 49.09908 
L 102.269364 48.534565 
L 102.674037 48.1248 
L 103.128072 47.662295 
L 103.33993 47.441309 
L 103.33993 44.7984 
L 103.33993 41.472 
L 101.816218 41.472 
L 100.292506 41.472 
L 98.768794 41.472 
L 97.245082 41.472 
L 95.72137 41.472 
L 94.197658 41.472 
L 92.673946 41.472 
L 91.150234 41.472 
L 89.626522 41.472 
L 88.10281 41.472 
L 86.579098 41.472 
L 85.055386 41.472 
L 83.531674 41.472 
L 82.007962 41.472 
L 80.48425 41.472 
L 78.960538 41.472 
L 77.436826 41.472 
L 75.913114 41.472 
L 74.389402 41.472 
L 72.86569 41.472 
L 71.341978 41.472 
L 69.818266 41.472 
L 68.294554 41.472 
L 66.770842 41.472 
L 65.24713 41.472 
L 63.723418 41.472 
L 62.199706 41.472 
L 60.675994 41.472 
L 59.152282 41.472 
L 57.62857 41.472 
L 57.62857 44.7984 
L 57.62857 48.1248 
L 57.62857 51.4512 
L 57.62857 54.7776 
L 57.62857 58.104 
L 57.62857 61.4304 
L 57.62857 64.7568 
L 57.62857 68.0832 
L 57.62857 71.4096 
L 57.62857 74.736 
L 57.62857 78.0624 
L 57.62857 81.3888 
" clip-path="url(#pf2a6f8e180)" style="fill: #00e4f8"/>
   </g>
   <g id="PathCollection_5">
    <path d="M 103.33993 47.441309 
L 103.128072 47.662295 
L 102.674037 48.1248 
L 102.269364 48.534565 
L 101.707272 49.09908 
L 101.041831 49.760645 
L 100.515856 50.274045 
L 100.139773 50.646229 
L 99.314056 51.4512 
L 98.935786 51.81576 
L 98.346459 52.373194 
L 97.562157 53.122328 
L 96.838141 53.80332 
L 95.862993 54.707559 
L 95.787883 54.7776 
L 95.75488 54.807902 
L 94.722135 55.75188 
L 94.666861 55.801914 
L 94.627883 55.836518 
L 93.893072 56.498697 
L 93.078337 57.221176 
L 92.504952 57.735072 
L 92.085264 58.104 
L 91.282622 58.801748 
L 90.966567 59.072005 
L 90.325085 59.629026 
L 89.353556 60.45612 
L 88.937304 60.807164 
L 88.19445 61.4304 
L 87.350645 62.128083 
L 87.014336 62.40468 
L 85.912818 63.302252 
L 85.227575 63.849284 
L 84.929138 64.09142 
L 84.094752 64.7568 
L 83.681135 65.083088 
L 83.218507 65.440472 
L 82.277373 66.17672 
L 81.646562 66.661535 
L 81.433144 66.828321 
L 81.066492 67.10892 
L 80.163886 67.793507 
L 80.059614 67.873193 
L 79.779622 68.0832 
L 78.84671 68.780471 
L 78.494032 69.039195 
L 78.469292 69.05748 
L 76.889507 70.214755 
L 76.021813 70.836703 
L 75.830847 70.976018 
L 75.225356 71.4096 
L 74.594258 71.856819 
L 73.993982 72.272836 
L 73.142983 72.871061 
L 72.504897 73.311137 
L 72.284054 73.466237 
L 71.853866 73.76172 
L 70.947299 74.379106 
L 70.41961 74.736 
L 69.197155 75.552192 
L 68.95871 75.71028 
L 67.620215 76.590259 
L 66.971036 77.007288 
L 66.614896 77.240496 
L 65.334323 78.0624 
L 65.266786 78.105312 
L 65.211861 78.139393 
L 63.895503 78.969365 
L 63.505644 79.210162 
L 62.900176 79.59159 
L 61.562577 80.41452 
L 61.299689 80.574946 
L 59.955609 81.3888 
L 59.592991 81.606757 
L 59.472124 81.678022 
L 58.317831 82.36308 
L 58.126465 82.47575 
L 58.044549 82.522801 
L 57.62857 82.762842 
L 57.62857 84.7152 
L 57.62857 88.0416 
L 57.62857 91.368 
L 57.62857 94.6944 
L 57.62857 98.0208 
L 57.62857 101.3472 
L 57.62857 104.6736 
L 57.62857 108 
L 57.62857 111.3264 
L 57.62857 114.6528 
L 57.62857 117.9792 
L 57.62857 121.3056 
L 57.62857 124.632 
L 57.62857 127.885406 
L 57.666928 127.87466 
L 58.727632 127.574404 
L 59.975208 127.214256 
L 60.432106 127.084218 
L 60.774543 126.98412 
L 61.104054 126.888069 
L 61.176315 126.866153 
L 62.981173 126.338012 
L 63.425466 126.202335 
L 63.989918 126.036574 
L 64.703635 125.818497 
L 65.661296 125.536163 
L 66.657442 125.229666 
L 66.872185 125.166127 
L 68.243237 124.744029 
L 68.333577 124.717193 
L 68.608361 124.632 
L 69.750515 124.274922 
L 69.894915 124.228025 
L 70.998752 123.882707 
L 71.805698 123.619656 
L 72.624651 123.361621 
L 73.13865 123.193379 
L 73.655739 123.030348 
L 75.383021 122.462839 
L 75.494807 122.427339 
L 75.94176 122.27988 
L 76.19257 122.197373 
L 76.604294 122.05843 
L 77.820815 121.652829 
L 78.846278 121.3056 
L 80.034686 120.899075 
L 81.494522 120.392046 
L 81.669794 120.33132 
L 82.405253 120.073103 
L 82.605974 120.000085 
L 84.199908 119.438015 
L 84.821848 119.210047 
L 85.259522 119.05509 
L 86.253252 118.69055 
L 86.813656 118.491262 
L 88.095564 118.017389 
L 88.109136 118.012543 
L 88.199258 117.9792 
L 89.418083 117.52416 
L 89.924947 117.32771 
L 90.953212 116.940807 
L 91.378687 116.775148 
L 92.012988 116.53627 
L 93.623302 115.906671 
L 93.792253 115.842539 
L 94.340785 115.62708 
L 94.509985 115.56083 
L 94.882547 115.411318 
L 96.048044 114.9482 
L 96.198494 114.888766 
L 96.781233 114.6528 
L 97.873489 114.210019 
L 98.151431 114.09454 
L 99.158687 113.67852 
L 99.73615 113.438225 
L 99.90568 113.365143 
L 100.622488 113.065555 
L 101.117396 112.851991 
L 102.289541 112.359706 
L 103.22075 111.954531 
L 103.33993 111.903106 
L 103.33993 111.3264 
L 103.33993 108 
L 103.33993 104.6736 
L 103.33993 101.3472 
L 103.33993 98.0208 
L 103.33993 94.6944 
L 103.33993 91.368 
L 103.33993 88.0416 
L 103.33993 84.7152 
L 103.33993 81.3888 
L 103.33993 78.0624 
L 103.33993 74.736 
L 103.33993 71.4096 
L 103.33993 68.0832 
L 103.33993 64.7568 
L 103.33993 61.4304 
L 103.33993 58.104 
L 103.33993 54.7776 
L 103.33993 51.4512 
L 103.33993 48.1248 
" clip-path="url(#pf2a6f8e180)" style="fill: #53ffa4"/>
   </g>
   <g id="PathCollection_6">
    <path d="M 103.33993 111.903106 
L 103.22075 111.954531 
L 102.289541 112.359706 
L 101.117396 112.851991 
L 100.622488 113.065555 
L 99.90568 113.365143 
L 99.73615 113.438225 
L 99.158687 113.67852 
L 98.151431 114.09454 
L 97.873489 114.210019 
L 96.781233 114.6528 
L 96.198494 114.888766 
L 96.048044 114.9482 
L 94.882547 115.411318 
L 94.509985 115.56083 
L 94.340785 115.62708 
L 93.792253 115.842539 
L 93.623302 115.906671 
L 92.012988 116.53627 
L 91.378687 116.775148 
L 90.953212 116.940807 
L 89.924947 117.32771 
L 89.418083 117.52416 
L 88.199258 117.9792 
L 88.109136 118.012543 
L 88.095564 118.017389 
L 86.813656 118.491262 
L 86.253252 118.69055 
L 85.259522 119.05509 
L 84.821848 119.210047 
L 84.199908 119.438015 
L 82.605974 120.000085 
L 82.405253 120.073103 
L 81.669794 120.33132 
L 81.494522 120.392046 
L 80.034686 120.899075 
L 78.846278 121.3056 
L 77.820815 121.652829 
L 76.604294 122.05843 
L 76.19257 122.197373 
L 75.94176 122.27988 
L 75.494807 122.427339 
L 75.383021 122.462839 
L 73.655739 123.030348 
L 73.13865 123.193379 
L 72.624651 123.361621 
L 71.805698 123.619656 
L 70.998752 123.882707 
L 69.894915 124.228025 
L 69.750515 124.274922 
L 68.608361 124.632 
L 68.333577 124.717193 
L 68.243237 124.744029 
L 66.872185 125.166127 
L 66.657442 125.229666 
L 65.661296 125.536163 
L 64.703635 125.818497 
L 63.989918 126.036574 
L 63.425466 126.202335 
L 62.981173 126.338012 
L 61.176315 126.866153 
L 61.104054 126.888069 
L 60.774543 126.98412 
L 60.432106 127.084218 
L 59.975208 127.214256 
L 58.727632 127.574404 
L 57.666928 127.87466 
L 57.62857 127.885406 
L 57.62857 127.9584 
L 57.62857 131.2848 
L 57.62857 134.6112 
L 57.62857 137.9376 
L 57.62857 141.264 
L 57.62857 144.5904 
L 57.62857 147.9168 
L 57.62857 151.2432 
L 57.62857 154.5696 
L 57.62857 157.896 
L 57.62857 161.2224 
L 57.62857 164.5488 
L 57.62857 167.1263 
L 57.98331 167.100771 
L 58.272309 167.079472 
L 60.198882 166.928795 
L 60.557109 166.90092 
L 61.113968 166.857121 
L 61.143551 166.85448 
L 63.182302 166.693897 
L 63.318734 166.681661 
L 64.116168 166.618769 
L 64.306767 166.601695 
L 66.121825 166.458337 
L 66.413512 166.432087 
L 67.117606 166.376402 
L 67.471982 166.344547 
L 69.059529 166.218809 
L 69.509106 166.178207 
L 70.118258 166.129896 
L 70.639259 166.082898 
L 71.995358 165.975188 
L 72.605544 165.919884 
L 73.118101 165.879119 
L 73.808664 165.816603 
L 74.929253 165.727345 
L 75.702851 165.656976 
L 76.117107 165.623934 
L 76.980266 165.545511 
L 77.861152 165.475143 
L 78.801057 165.389333 
L 79.115249 165.364199 
L 80.154138 165.269464 
L 80.79099 165.218441 
L 81.900191 165.116798 
L 82.1125 165.099764 
L 83.330355 164.988296 
L 83.718698 164.95709 
L 85.000285 164.839207 
L 85.108829 164.830472 
L 86.508999 164.701833 
L 86.644205 164.690935 
L 88.10137 164.556388 
L 88.104206 164.556159 
L 88.183995 164.5488 
L 89.567661 164.420303 
L 89.691318 164.407345 
L 91.098472 164.275994 
L 91.2041 164.264898 
L 92.489022 164.145095 
L 92.877609 164.104185 
L 94.091707 163.990396 
L 94.307937 163.967576 
L 95.407959 163.864596 
L 96.066697 163.794919 
L 97.083879 163.699192 
L 97.412903 163.664304 
L 98.324388 163.578623 
L 99.258684 163.479325 
L 100.07495 163.402185 
L 100.519039 163.354868 
L 101.238221 163.286981 
L 102.453677 163.15717 
L 103.06488 163.099164 
L 103.33993 163.067422 
L 103.33993 161.2224 
L 103.33993 157.896 
L 103.33993 154.5696 
L 103.33993 151.2432 
L 103.33993 147.9168 
L 103.33993 144.5904 
L 103.33993 141.264 
L 103.33993 137.9376 
L 103.33993 134.6112 
L 103.33993 131.2848 
L 103.33993 127.9584 
L 103.33993 124.632 
L 103.33993 121.3056 
L 103.33993 117.9792 
L 103.33993 114.6528 
" clip-path="url(#pf2a6f8e180)" style="fill: #a4ff53"/>
   </g>
   <g id="PathCollection_7">
    <path d="M 103.33993 163.067422 
L 103.06488 163.099164 
L 102.453677 163.15717 
L 101.238221 163.286981 
L 100.519039 163.354868 
L 100.07495 163.402185 
L 99.258684 163.479325 
L 98.324388 163.578623 
L 97.412903 163.664304 
L 97.083879 163.699192 
L 96.066697 163.794919 
L 95.407959 163.864596 
L 94.307937 163.967576 
L 94.091707 163.990396 
L 92.877609 164.104185 
L 92.489022 164.145095 
L 91.2041 164.264898 
L 91.098472 164.275994 
L 89.691318 164.407345 
L 89.567661 164.420303 
L 88.183995 164.5488 
L 88.104206 164.556159 
L 88.10137 164.556388 
L 86.644205 164.690935 
L 86.508999 164.701833 
L 85.108829 164.830472 
L 85.000285 164.839207 
L 83.718698 164.95709 
L 83.330355 164.988296 
L 82.1125 165.099764 
L 81.900191 165.116798 
L 80.79099 165.218441 
L 80.154138 165.269464 
L 79.115249 165.364199 
L 78.801057 165.389333 
L 77.861152 165.475143 
L 76.980266 165.545511 
L 76.117107 165.623934 
L 75.702851 165.656976 
L 74.929253 165.727345 
L 73.808664 165.816603 
L 73.118101 165.879119 
L 72.605544 165.919884 
L 71.995358 165.975188 
L 70.639259 166.082898 
L 70.118258 166.129896 
L 69.509106 166.178207 
L 69.059529 166.218809 
L 67.471982 166.344547 
L 67.117606 166.376402 
L 66.413512 166.432087 
L 66.121825 166.458337 
L 64.306767 166.601695 
L 64.116168 166.618769 
L 63.318734 166.681661 
L 63.182302 166.693897 
L 61.143551 166.85448 
L 61.113968 166.857121 
L 60.557109 166.90092 
L 60.198882 166.928795 
L 58.272309 167.079472 
L 57.98331 167.100771 
L 57.62857 167.1263 
L 57.62857 167.8752 
L 57.62857 171.2016 
L 57.62857 174.528 
L 57.62857 177.8544 
L 57.62857 181.1808 
L 57.62857 184.5072 
L 57.62857 187.8336 
L 57.62857 191.16 
L 57.62857 194.4864 
L 57.62857 197.8128 
L 57.62857 201.1392 
L 57.62857 202.941824 
L 57.913651 202.963092 
L 58.485093 203.009066 
L 59.777107 203.10155 
L 60.427202 203.154359 
L 60.918068 203.18976 
L 61.642363 203.248872 
L 62.721142 203.327256 
L 63.519921 203.393083 
L 63.921338 203.422471 
L 64.802735 203.495448 
L 65.662474 203.558865 
L 66.613894 203.638414 
L 66.923425 203.66142 
L 67.966317 203.749031 
L 68.601017 203.796564 
L 69.709163 203.890579 
L 69.924288 203.906813 
L 71.133222 204.009869 
L 71.536679 204.040549 
L 72.805773 204.149813 
L 72.923889 204.158865 
L 74.30357 204.278221 
L 74.469369 204.291024 
L 75.903772 204.416365 
L 75.922184 204.417797 
L 76.466606 204.4656 
L 77.399451 204.547192 
L 77.477699 204.554831 
L 78.91944 204.682202 
L 79.003198 204.690438 
L 80.327411 204.807992 
L 80.655995 204.840535 
L 81.915394 204.95347 
L 82.104101 204.972296 
L 83.252185 205.07575 
L 83.838136 205.134634 
L 84.909932 205.232203 
L 85.206536 205.262228 
L 86.173663 205.3507 
L 87.024266 205.437444 
L 87.903005 205.51866 
L 88.310559 205.56053 
L 89.091736 205.633086 
L 90.21454 205.749298 
L 90.894559 205.813117 
L 91.416229 205.867514 
L 92.006284 205.923165 
L 93.409117 206.070546 
L 93.884542 206.115858 
L 94.523608 206.183504 
L 94.917187 206.221203 
L 96.608167 206.401557 
L 96.872896 206.427184 
L 97.632762 206.508846 
L 97.824315 206.527482 
L 99.811866 206.74272 
L 99.859561 206.74741 
L 100.503864 206.81772 
L 100.77116 206.846991 
L 102.635349 207.051288 
L 103.020863 207.095449 
L 103.33993 207.129063 
L 103.33993 204.4656 
L 103.33993 201.1392 
L 103.33993 197.8128 
L 103.33993 194.4864 
L 103.33993 191.16 
L 103.33993 187.8336 
L 103.33993 184.5072 
L 103.33993 181.1808 
L 103.33993 177.8544 
L 103.33993 174.528 
L 103.33993 171.2016 
L 103.33993 167.8752 
L 103.33993 164.5488 
" clip-path="url(#pf2a6f8e180)" style="fill: #f8f500"/>
   </g>
   <g id="PathCollection_8">
    <path d="M 103.33993 207.129063 
L 103.020863 207.095449 
L 102.635349 207.051288 
L 100.77116 206.846991 
L 100.503864 206.81772 
L 99.859561 206.74741 
L 99.811866 206.74272 
L 97.824315 206.527482 
L 97.632762 206.508846 
L 96.872896 206.427184 
L 96.608167 206.401557 
L 94.917187 206.221203 
L 94.523608 206.183504 
L 93.884542 206.115858 
L 93.409117 206.070546 
L 92.006284 205.923165 
L 91.416229 205.867514 
L 90.894559 205.813117 
L 90.21454 205.749298 
L 89.091736 205.633086 
L 88.310559 205.56053 
L 87.903005 205.51866 
L 87.024266 205.437444 
L 86.173663 205.3507 
L 85.206536 205.262228 
L 84.909932 205.232203 
L 83.838136 205.134634 
L 83.252185 205.07575 
L 82.104101 204.972296 
L 81.915394 204.95347 
L 80.655995 204.840535 
L 80.327411 204.807992 
L 79.003198 204.690438 
L 78.91944 204.682202 
L 77.477699 204.554831 
L 77.399451 204.547192 
L 76.466606 204.4656 
L 75.922184 204.417797 
L 75.903772 204.416365 
L 74.469369 204.291024 
L 74.30357 204.278221 
L 72.923889 204.158865 
L 72.805773 204.149813 
L 71.536679 204.040549 
L 71.133222 204.009869 
L 69.924288 203.906813 
L 69.709163 203.890579 
L 68.601017 203.796564 
L 67.966317 203.749031 
L 66.923425 203.66142 
L 66.613894 203.638414 
L 65.662474 203.558865 
L 64.802735 203.495448 
L 63.921338 203.422471 
L 63.519921 203.393083 
L 62.721142 203.327256 
L 61.642363 203.248872 
L 60.918068 203.18976 
L 60.427202 203.154359 
L 59.777107 203.10155 
L 58.485093 203.009066 
L 57.913651 202.963092 
L 57.62857 202.941824 
L 57.62857 204.4656 
L 57.62857 207.792 
L 57.62857 211.1184 
L 57.62857 214.4448 
L 57.62857 217.7712 
L 57.62857 221.0976 
L 57.62857 224.424 
L 57.62857 227.7504 
L 57.62857 231.0768 
L 57.62857 234.4032 
L 57.62857 237.13531 
L 57.73744 237.155804 
L 59.003204 237.40415 
L 59.277564 237.456098 
L 60.661454 237.7296 
L 60.675468 237.73237 
L 60.676562 237.732595 
L 62.071619 238.009225 
L 62.354559 238.067659 
L 63.611637 238.318734 
L 63.844366 238.367051 
L 64.861756 238.570905 
L 65.713979 238.748773 
L 66.545618 238.916629 
L 67.014741 239.015061 
L 67.647075 239.143103 
L 69.080543 239.445486 
L 69.47734 239.52643 
L 70.187779 239.677099 
L 70.427427 239.726145 
L 72.095 240.08172 
L 72.357517 240.137683 
L 72.669676 240.205494 
L 73.692528 240.425841 
L 74.818063 240.668376 
L 75.065374 240.721692 
L 76.583197 241.056 
L 77.269669 241.207154 
L 77.714282 241.306895 
L 79.276059 241.653522 
L 79.71374 241.752745 
L 80.937367 242.03028 
L 81.502941 242.158506 
L 81.58989 242.178979 
L 82.391366 242.36169 
L 82.632109 242.418569 
L 84.260278 242.791791 
L 84.776928 242.914802 
L 85.310507 243.037796 
L 86.043388 243.212898 
L 87.011965 243.437412 
L 87.967151 243.667417 
L 88.226977 243.727984 
L 89.46364 244.026815 
L 89.757813 244.095778 
L 90.934602 244.3824 
L 91.140718 244.432553 
L 91.160704 244.437586 
L 92.498981 244.764363 
L 92.894836 244.864623 
L 94.052121 245.149442 
L 94.357977 245.227354 
L 95.235093 245.443986 
L 96.336971 245.726313 
L 96.960631 245.881581 
L 97.558781 246.035737 
L 97.964967 246.137225 
L 99.789256 246.610161 
L 99.866142 246.629528 
L 100.268751 246.73452 
L 100.930495 246.907871 
L 102.303928 247.26778 
L 103.253945 247.521087 
L 103.33993 247.543623 
L 103.33993 244.3824 
L 103.33993 241.056 
L 103.33993 237.7296 
L 103.33993 234.4032 
L 103.33993 231.0768 
L 103.33993 227.7504 
L 103.33993 224.424 
L 103.33993 221.0976 
L 103.33993 217.7712 
L 103.33993 214.4448 
L 103.33993 211.1184 
L 103.33993 207.792 
" clip-path="url(#pf2a6f8e180)" style="fill: #ff9400"/>
   </g>
   <g id="PathCollection_9">
    <path d="M 103.33993 247.543623 
L 103.253945 247.521087 
L 102.303928 247.26778 
L 100.930495 246.907871 
L 100.268751 246.73452 
L 99.866142 246.629528 
L 99.789256 246.610161 
L 97.964967 246.137225 
L 97.558781 246.035737 
L 96.960631 245.881581 
L 96.336971 245.726313 
L 95.235093 245.443986 
L 94.357977 245.227354 
L 94.052121 245.149442 
L 92.894836 244.864623 
L 92.498981 244.764363 
L 91.160704 244.437586 
L 91.140718 244.432553 
L 90.934602 244.3824 
L 89.757813 244.095778 
L 89.46364 244.026815 
L 88.226977 243.727984 
L 87.967151 243.667417 
L 87.011965 243.437412 
L 86.043388 243.212898 
L 85.310507 243.037796 
L 84.776928 242.914802 
L 84.260278 242.791791 
L 82.632109 242.418569 
L 82.391366 242.36169 
L 81.58989 242.178979 
L 81.502941 242.158506 
L 80.937367 242.03028 
L 79.71374 241.752745 
L 79.276059 241.653522 
L 77.714282 241.306895 
L 77.269669 241.207154 
L 76.583197 241.056 
L 75.065374 240.721692 
L 74.818063 240.668376 
L 73.692528 240.425841 
L 72.669676 240.205494 
L 72.357517 240.137683 
L 72.095 240.08172 
L 70.427427 239.726145 
L 70.187779 239.677099 
L 69.47734 239.52643 
L 69.080543 239.445486 
L 67.647075 239.143103 
L 67.014741 239.015061 
L 66.545618 238.916629 
L 65.713979 238.748773 
L 64.861756 238.570905 
L 63.844366 238.367051 
L 63.611637 238.318734 
L 62.354559 238.067659 
L 62.071619 238.009225 
L 60.676562 237.732595 
L 60.675468 237.73237 
L 60.661454 237.7296 
L 59.277564 237.456098 
L 59.003204 237.40415 
L 57.73744 237.155804 
L 57.62857 237.13531 
L 57.62857 237.7296 
L 57.62857 241.056 
L 57.62857 244.3824 
L 57.62857 247.7088 
L 57.62857 251.0352 
L 57.62857 254.3616 
L 57.62857 257.688 
L 57.62857 261.0144 
L 57.62857 264.3408 
L 57.62857 267.6672 
L 57.62857 270.9936 
L 57.62857 271.523773 
L 57.735124 271.555187 
L 58.756599 271.85741 
L 59.674871 272.13446 
L 60.417595 272.355478 
L 60.965923 272.521655 
L 61.435541 272.661839 
L 63.211562 273.202574 
L 63.299295 273.228916 
L 63.681194 273.34572 
L 63.982975 273.438068 
L 64.422022 273.573883 
L 65.652716 273.953243 
L 65.859565 274.017115 
L 66.829731 274.32 
L 67.918226 274.6603 
L 69.075196 275.025907 
L 69.588058 275.187417 
L 69.923707 275.29428 
L 70.245127 275.396652 
L 70.323001 275.421882 
L 72.100458 275.99057 
L 72.581252 276.147286 
L 73.117426 276.319637 
L 73.898702 276.575159 
L 74.753638 276.85124 
L 75.82941 277.205246 
L 75.987109 277.256413 
L 77.168172 277.6464 
L 77.401393 277.723753 
L 77.485227 277.752065 
L 78.853839 278.208747 
L 79.08192 278.286138 
L 80.043702 278.608155 
L 81.087898 278.964219 
L 81.717669 279.176373 
L 82.338624 279.389138 
L 82.680455 279.504687 
L 84.114521 279.99852 
L 84.472439 280.122099 
L 85.785358 280.580249 
L 86.370314 280.784005 
L 86.671682 280.889079 
L 86.716627 280.904784 
L 86.909235 280.9728 
L 88.495301 281.532256 
L 88.862935 281.663285 
L 89.657376 281.94708 
L 90.556456 282.26907 
L 90.780536 282.350731 
L 91.472663 282.599852 
L 91.980643 282.785658 
L 93.170163 283.215914 
L 94.053846 283.541251 
L 94.322909 283.63907 
L 95.642328 284.126646 
L 95.777747 284.176124 
L 96.108602 284.2992 
L 97.169906 284.695411 
L 97.331914 284.756847 
L 98.379374 285.149337 
L 99.323 285.509082 
L 100.01353 285.769525 
L 100.61523 286.000102 
L 100.974746 286.136207 
L 102.311719 286.65132 
L 102.719529 286.808766 
L 103.019271 286.925575 
L 103.33993 287.05098 
L 103.33993 284.2992 
L 103.33993 280.9728 
L 103.33993 277.6464 
L 103.33993 274.32 
L 103.33993 270.9936 
L 103.33993 267.6672 
L 103.33993 264.3408 
L 103.33993 261.0144 
L 103.33993 257.688 
L 103.33993 254.3616 
L 103.33993 251.0352 
L 103.33993 247.7088 
" clip-path="url(#pf2a6f8e180)" style="fill: #ff3800"/>
   </g>
   <g id="PathCollection_10">
    <path d="M 103.33993 287.05098 
L 103.019271 286.925575 
L 102.719529 286.808766 
L 102.311719 286.65132 
L 100.974746 286.136207 
L 100.61523 286.000102 
L 100.01353 285.769525 
L 99.323 285.509082 
L 98.379374 285.149337 
L 97.331914 284.756847 
L 97.169906 284.695411 
L 96.108602 284.2992 
L 95.777747 284.176124 
L 95.642328 284.126646 
L 94.322909 283.63907 
L 94.053846 283.541251 
L 93.170163 283.215914 
L 91.980643 282.785658 
L 91.472663 282.599852 
L 90.780536 282.350731 
L 90.556456 282.26907 
L 89.657376 281.94708 
L 88.862935 281.663285 
L 88.495301 281.532256 
L 86.909235 280.9728 
L 86.716627 280.904784 
L 86.671682 280.889079 
L 86.370314 280.784005 
L 85.785358 280.580249 
L 84.472439 280.122099 
L 84.114521 279.99852 
L 82.680455 279.504687 
L 82.338624 279.389138 
L 81.717669 279.176373 
L 81.087898 278.964219 
L 80.043702 278.608155 
L 79.08192 278.286138 
L 78.853839 278.208747 
L 77.485227 277.752065 
L 77.401393 277.723753 
L 77.168172 277.6464 
L 75.987109 277.256413 
L 75.82941 277.205246 
L 74.753638 276.85124 
L 73.898702 276.575159 
L 73.117426 276.319637 
L 72.581252 276.147286 
L 72.100458 275.99057 
L 70.323001 275.421882 
L 70.245127 275.396652 
L 69.923707 275.29428 
L 69.588058 275.187417 
L 69.075196 275.025907 
L 67.918226 274.6603 
L 66.829731 274.32 
L 65.859565 274.017115 
L 65.652716 273.953243 
L 64.422022 273.573883 
L 63.982975 273.438068 
L 63.681194 273.34572 
L 63.299295 273.228916 
L 63.211562 273.202574 
L 61.435541 272.661839 
L 60.965923 272.521655 
L 60.417595 272.355478 
L 59.674871 272.13446 
L 58.756599 271.85741 
L 57.735124 271.555187 
L 57.62857 271.523773 
L 57.62857 274.32 
L 57.62857 277.6464 
L 57.62857 280.9728 
L 57.62857 284.2992 
L 57.62857 287.6256 
L 57.62857 290.952 
L 57.62857 294.2784 
L 57.62857 297.6048 
L 57.62857 300.9312 
L 57.62857 304.2576 
L 57.62857 307.584 
L 59.152282 307.584 
L 60.675994 307.584 
L 62.199706 307.584 
L 63.723418 307.584 
L 65.24713 307.584 
L 66.770842 307.584 
L 68.294554 307.584 
L 69.818266 307.584 
L 71.341978 307.584 
L 72.86569 307.584 
L 74.389402 307.584 
L 75.913114 307.584 
L 77.436826 307.584 
L 78.960538 307.584 
L 80.48425 307.584 
L 82.007962 307.584 
L 83.531674 307.584 
L 85.055386 307.584 
L 86.579098 307.584 
L 88.10281 307.584 
L 89.626522 307.584 
L 91.150234 307.584 
L 92.673946 307.584 
L 94.197658 307.584 
L 95.72137 307.584 
L 97.245082 307.584 
L 98.768794 307.584 
L 100.292506 307.584 
L 101.816218 307.584 
L 103.33993 307.584 
L 103.33993 304.2576 
L 103.33993 300.9312 
L 103.33993 297.6048 
L 103.33993 294.2784 
L 103.33993 290.952 
L 103.33993 287.6256 
" clip-path="url(#pf2a6f8e180)" style="fill: #b60000"/>
   </g>
   <g id="PathCollection_11">
    <path clip-path="url(#pf2a6f8e180)" style="fill: #0000b6"/>
   </g>
   <g id="PathCollection_12">
    <path clip-path="url(#pf2a6f8e180)" style="fill: #0018ff"/>
   </g>
   <g id="PathCollection_13">
    <path clip-path="url(#pf2a6f8e180)" style="fill: #0080ff"/>
   </g>
   <g id="PathCollection_14">
    <path d="M 100.4544 50.339149 
L 100.456403 50.337102 
L 104.678758 46.101159 
L 106.601102 44.07008 
L 108.828727 41.598915 
L 108.941751 41.472 
L 108.54912 41.472 
L 100.4544 41.472 
" clip-path="url(#pf2a6f8e180)" style="fill: #00e4f8"/>
   </g>
   <g id="PathCollection_15">
    <path d="M 108.941751 41.472 
L 108.828727 41.598915 
L 106.601102 44.07008 
L 104.678758 46.101159 
L 100.456403 50.337102 
L 100.4544 50.339149 
L 100.4544 50.3424 
L 100.4544 59.2128 
L 100.4544 68.0832 
L 100.4544 76.9536 
L 100.4544 85.824 
L 100.4544 94.6944 
L 100.4544 103.5648 
L 100.4544 112.4352 
L 100.4544 113.125999 
L 100.919735 112.945125 
L 102.12505 112.4352 
L 105.423815 111.016606 
L 108.043636 109.83712 
L 112.421325 107.808061 
L 115.66523 106.153767 
L 117.324718 105.366101 
L 120.833652 103.5648 
L 123.467497 102.171936 
L 128.848435 99.061095 
L 130.734642 98.012735 
L 131.940633 97.29248 
L 132.933137 96.728698 
L 136.196056 94.6944 
L 138.128864 93.423856 
L 140.130763 92.09632 
L 144.136053 89.339466 
L 148.849579 85.824 
L 148.983625 85.720572 
L 149.096737 85.628185 
L 153.679349 82.056452 
L 156.65862 79.55168 
L 158.765074 77.701471 
L 159.082149 77.441338 
L 159.621786 76.9536 
L 160.476248 76.119778 
L 161.958084 74.756404 
L 162.404363 74.35552 
L 162.639533 74.134449 
L 163.100035 73.670947 
L 166.191557 70.67425 
L 168.735618 68.0832 
L 171.061536 65.622695 
L 174.438788 61.81088 
L 175.705749 60.30166 
L 176.643449 59.2128 
L 178.470062 56.869202 
L 178.683231 56.61472 
L 178.844705 56.41089 
L 179.377269 55.697883 
L 182.088789 52.160399 
L 183.427581 50.3424 
L 186.074918 46.593141 
L 187.759775 44.07008 
L 189.336855 41.544382 
L 189.385119 41.472 
L 181.4016 41.472 
L 173.30688 41.472 
L 165.21216 41.472 
L 157.11744 41.472 
L 149.02272 41.472 
L 140.928 41.472 
L 132.83328 41.472 
L 124.73856 41.472 
L 116.64384 41.472 
" clip-path="url(#pf2a6f8e180)" style="fill: #53ffa4"/>
   </g>
   <g id="PathCollection_16">
    <path d="M 189.385119 41.472 
L 189.336855 41.544382 
L 187.759775 44.07008 
L 186.074918 46.593141 
L 183.427581 50.3424 
L 182.088789 52.160399 
L 179.377269 55.697883 
L 178.844705 56.41089 
L 178.683231 56.61472 
L 178.470062 56.869202 
L 176.643449 59.2128 
L 175.705749 60.30166 
L 174.438788 61.81088 
L 171.061536 65.622695 
L 168.735618 68.0832 
L 166.191557 70.67425 
L 163.100035 73.670947 
L 162.639533 74.134449 
L 162.404363 74.35552 
L 161.958084 74.756404 
L 160.476248 76.119778 
L 159.621786 76.9536 
L 159.082149 77.441338 
L 158.765074 77.701471 
L 156.65862 79.55168 
L 153.679349 82.056452 
L 149.096737 85.628185 
L 148.983625 85.720572 
L 148.849579 85.824 
L 144.136053 89.339466 
L 140.130763 92.09632 
L 138.128864 93.423856 
L 136.196056 94.6944 
L 132.933137 96.728698 
L 131.940633 97.29248 
L 130.734642 98.012735 
L 128.848435 99.061095 
L 123.467497 102.171936 
L 120.833652 103.5648 
L 117.324718 105.366101 
L 115.66523 106.153767 
L 112.421325 107.808061 
L 108.043636 109.83712 
L 105.423815 111.016606 
L 102.12505 112.4352 
L 100.919735 112.945125 
L 100.4544 113.125999 
L 100.4544 121.3056 
L 100.4544 130.176 
L 100.4544 139.0464 
L 100.4544 147.9168 
L 100.4544 156.7872 
L 100.4544 163.341229 
L 102.761058 163.129906 
L 102.944661 163.113704 
L 103.471409 163.05952 
L 113.330881 162.027175 
L 114.737859 161.82958 
L 118.402906 161.440909 
L 120.79855 161.104764 
L 127.973597 160.332235 
L 131.69835 159.789723 
L 133.878238 159.551696 
L 139.099026 158.791436 
L 142.420425 158.422638 
L 148.768413 157.459983 
L 149.25623 157.404963 
L 153.327148 156.7872 
L 156.645961 156.270541 
L 157.799026 156.0403 
L 164.5162 154.945998 
L 166.025272 154.636067 
L 170.654162 153.880284 
L 177.224494 152.494179 
L 179.623214 152.082379 
L 183.499018 151.238362 
L 184.305835 151.099335 
L 186.909011 150.51488 
L 192.419909 149.243834 
L 197.703136 147.9168 
L 202.710416 146.566274 
L 206.978837 145.31872 
L 210.454372 144.271966 
L 212.022668 143.696791 
L 215.165623 142.710874 
L 220.264714 140.811212 
L 222.741173 139.995355 
L 225.088747 139.0464 
L 229.303287 137.282784 
L 230.936323 136.489727 
L 234.386596 135.015906 
L 238.758699 132.77408 
L 241.071877 131.541002 
L 241.895521 131.127013 
L 243.493244 130.176 
L 246.995552 127.958907 
L 247.642443 127.57792 
L 248.355817 127.11645 
L 250.135709 125.818616 
L 255.165312 122.304152 
L 256.381607 121.3056 
L 260.891253 117.449576 
L 263.422146 115.03328 
L 263.71533 114.783949 
L 266.039845 112.4352 
L 267.316401 111.015783 
L 268.348686 109.83712 
L 272.060174 105.336371 
L 273.330497 103.5648 
L 276.685476 98.663209 
L 277.544197 97.29248 
L 278.063093 96.585954 
L 279.212415 94.6944 
L 280.515669 92.193996 
L 280.575303 92.09632 
L 280.773602 91.737777 
L 283.803481 85.824 
L 284.787513 83.801713 
L 286.624844 79.55168 
L 287.488098 77.341752 
L 287.561321 77.184065 
L 287.646997 76.9536 
L 287.82136 76.414178 
L 288.668527 74.35552 
L 289.733756 71.481132 
L 290.856976 68.0832 
L 292.603949 62.464749 
L 292.794819 61.81088 
L 293.16259 60.833776 
L 293.654981 59.2128 
L 294.185936 57.068804 
L 294.26765 56.61472 
L 295.422936 52.181739 
L 295.876363 50.3424 
L 297.273044 44.261274 
L 297.31273 44.07008 
L 297.330629 43.964746 
L 297.894521 41.472 
L 294.72768 41.472 
L 286.63296 41.472 
L 278.53824 41.472 
L 270.44352 41.472 
L 262.3488 41.472 
L 254.25408 41.472 
L 246.15936 41.472 
L 238.06464 41.472 
L 229.96992 41.472 
L 221.8752 41.472 
L 213.78048 41.472 
L 205.68576 41.472 
L 197.59104 41.472 
L 189.49632 41.472 
" clip-path="url(#pf2a6f8e180)" style="fill: #a4ff53"/>
   </g>
   <g id="PathCollection_17">
    <path d="M 297.894521 41.472 
L 297.330629 43.964746 
L 297.31273 44.07008 
L 297.273044 44.261274 
L 295.876363 50.3424 
L 295.422936 52.181739 
L 294.26765 56.61472 
L 294.185936 57.068804 
L 293.654981 59.2128 
L 293.16259 60.833776 
L 292.794819 61.81088 
L 292.603949 62.464749 
L 290.856976 68.0832 
L 289.733756 71.481132 
L 288.668527 74.35552 
L 287.82136 76.414178 
L 287.646997 76.9536 
L 287.561321 77.184065 
L 287.488098 77.341752 
L 286.624844 79.55168 
L 284.787513 83.801713 
L 283.803481 85.824 
L 280.773602 91.737777 
L 280.575303 92.09632 
L 280.515669 92.193996 
L 279.212415 94.6944 
L 278.063093 96.585954 
L 277.544197 97.29248 
L 276.685476 98.663209 
L 273.330497 103.5648 
L 272.060174 105.336371 
L 268.348686 109.83712 
L 267.316401 111.015783 
L 266.039845 112.4352 
L 263.71533 114.783949 
L 263.422146 115.03328 
L 260.891253 117.449576 
L 256.381607 121.3056 
L 255.165312 122.304152 
L 250.135709 125.818616 
L 248.355817 127.11645 
L 247.642443 127.57792 
L 246.995552 127.958907 
L 243.493244 130.176 
L 241.895521 131.127013 
L 241.071877 131.541002 
L 238.758699 132.77408 
L 234.386596 135.015906 
L 230.936323 136.489727 
L 229.303287 137.282784 
L 225.088747 139.0464 
L 222.741173 139.995355 
L 220.264714 140.811212 
L 215.165623 142.710874 
L 212.022668 143.696791 
L 210.454372 144.271966 
L 206.978837 145.31872 
L 202.710416 146.566274 
L 197.703136 147.9168 
L 192.419909 149.243834 
L 186.909011 150.51488 
L 184.305835 151.099335 
L 183.499018 151.238362 
L 179.623214 152.082379 
L 177.224494 152.494179 
L 170.654162 153.880284 
L 166.025272 154.636067 
L 164.5162 154.945998 
L 157.799026 156.0403 
L 156.645961 156.270541 
L 153.327148 156.7872 
L 149.25623 157.404963 
L 148.768413 157.459983 
L 142.420425 158.422638 
L 139.099026 158.791436 
L 133.878238 159.551696 
L 131.69835 159.789723 
L 127.973597 160.332235 
L 120.79855 161.104764 
L 118.402906 161.440909 
L 114.737859 161.82958 
L 113.330881 162.027175 
L 103.471409 163.05952 
L 102.944661 163.113704 
L 102.761058 163.129906 
L 100.4544 163.341229 
L 100.4544 165.6576 
L 100.4544 174.528 
L 100.4544 183.3984 
L 100.4544 192.2688 
L 100.4544 201.1392 
L 100.4544 206.793831 
L 101.624556 206.913886 
L 106.250368 207.490569 
L 110.465897 207.909147 
L 116.132302 208.656297 
L 117.116767 208.758445 
L 124.509712 209.758822 
L 124.926167 209.804015 
L 126.35759 210.0096 
L 132.504785 210.878652 
L 133.208151 211.001343 
L 139.225546 211.875193 
L 143.309098 212.618868 
L 147.77551 213.309165 
L 150.463371 213.820924 
L 153.236866 214.262032 
L 162.724777 216.154263 
L 162.879573 216.180591 
L 163.36382 216.28192 
L 171.434207 218.029983 
L 173.968798 218.579552 
L 175.213887 218.88 
L 184.474121 221.159605 
L 185.640028 221.47808 
L 193.332263 223.546876 
L 196.371779 224.524776 
L 198.573695 225.150731 
L 205.380476 227.415862 
L 205.859357 227.560168 
L 206.384827 227.7504 
L 212.908714 230.056707 
L 214.969721 230.896604 
L 217.992144 232.005551 
L 222.631102 234.02272 
L 225.190791 235.115834 
L 228.387995 236.6208 
L 231.756686 238.186745 
L 233.071271 238.887319 
L 233.691 239.21888 
L 240.519303 242.801317 
L 244.896146 245.4912 
L 245.926389 246.107538 
L 246.551595 246.52888 
L 250.846221 249.225619 
L 254.301773 251.76352 
L 256.499327 253.34247 
L 257.771657 254.3616 
L 259.272269 255.607362 
L 261.038378 256.95968 
L 263.845627 259.272061 
L 268.132164 263.232 
L 269.403177 264.372035 
L 274.308439 269.50432 
L 274.881399 270.088021 
L 275.59149 270.82442 
L 276.623234 272.1024 
L 278.438347 274.136707 
L 278.856211 274.70048 
L 280.275607 276.376496 
L 283.755605 280.9728 
L 285.083619 282.670607 
L 288.112069 287.24512 
L 289.120125 288.714262 
L 289.775926 289.8432 
L 290.99248 291.822011 
L 291.390929 292.44128 
L 291.79923 293.05227 
L 294.206441 297.334633 
L 294.834766 298.430298 
L 294.978791 298.7136 
L 297.853377 304.158781 
L 298.209988 304.98592 
L 298.499338 305.621737 
L 299.457699 307.584 
L 302.8224 307.584 
L 310.91712 307.584 
L 319.01184 307.584 
L 327.10656 307.584 
L 335.20128 307.584 
L 343.296 307.584 
L 343.296 298.7136 
L 343.296 289.8432 
L 343.296 280.9728 
L 343.296 272.1024 
L 343.296 263.232 
L 343.296 254.3616 
L 343.296 245.4912 
L 343.296 236.6208 
L 343.296 227.7504 
L 343.296 218.88 
L 343.296 210.0096 
L 343.296 201.1392 
L 343.296 192.2688 
L 343.296 183.3984 
L 343.296 174.528 
L 343.296 165.6576 
L 343.296 156.7872 
L 343.296 147.9168 
L 343.296 139.0464 
L 343.296 130.176 
L 343.296 121.3056 
L 343.296 112.4352 
L 343.296 103.5648 
L 343.296 94.6944 
L 343.296 85.824 
L 343.296 76.9536 
L 343.296 68.0832 
L 343.296 59.2128 
L 343.296 50.3424 
L 343.296 41.472 
L 335.20128 41.472 
L 327.10656 41.472 
L 319.01184 41.472 
L 310.91712 41.472 
L 302.8224 41.472 
" clip-path="url(#pf2a6f8e180)" style="fill: #f8f500"/>
   </g>
   <g id="PathCollection_18">
    <path d="M 299.457699 307.584 
L 298.499338 305.621737 
L 298.209988 304.98592 
L 297.853377 304.158781 
L 294.978791 298.7136 
L 294.834766 298.430298 
L 294.206441 297.334633 
L 291.79923 293.05227 
L 291.390929 292.44128 
L 290.99248 291.822011 
L 289.775926 289.8432 
L 289.120125 288.714262 
L 288.112069 287.24512 
L 285.083619 282.670607 
L 283.755605 280.9728 
L 280.275607 276.376496 
L 278.856211 274.70048 
L 278.438347 274.136707 
L 276.623234 272.1024 
L 275.59149 270.82442 
L 274.881399 270.088021 
L 274.308439 269.50432 
L 269.403177 264.372035 
L 268.132164 263.232 
L 263.845627 259.272061 
L 261.038378 256.95968 
L 259.272269 255.607362 
L 257.771657 254.3616 
L 256.499327 253.34247 
L 254.301773 251.76352 
L 250.846221 249.225619 
L 246.551595 246.52888 
L 245.926389 246.107538 
L 244.896146 245.4912 
L 240.519303 242.801317 
L 233.691 239.21888 
L 233.071271 238.887319 
L 231.756686 238.186745 
L 228.387995 236.6208 
L 225.190791 235.115834 
L 222.631102 234.02272 
L 217.992144 232.005551 
L 214.969721 230.896604 
L 212.908714 230.056707 
L 206.384827 227.7504 
L 205.859357 227.560168 
L 205.380476 227.415862 
L 198.573695 225.150731 
L 196.371779 224.524776 
L 193.332263 223.546876 
L 185.640028 221.47808 
L 184.474121 221.159605 
L 175.213887 218.88 
L 173.968798 218.579552 
L 171.434207 218.029983 
L 163.36382 216.28192 
L 162.879573 216.180591 
L 162.724777 216.154263 
L 153.236866 214.262032 
L 150.463371 213.820924 
L 147.77551 213.309165 
L 143.309098 212.618868 
L 139.225546 211.875193 
L 133.208151 211.001343 
L 132.504785 210.878652 
L 126.35759 210.0096 
L 124.926167 209.804015 
L 124.509712 209.758822 
L 117.116767 208.758445 
L 116.132302 208.656297 
L 110.465897 207.909147 
L 106.250368 207.490569 
L 101.624556 206.913886 
L 100.4544 206.793831 
L 100.4544 210.0096 
L 100.4544 218.88 
L 100.4544 227.7504 
L 100.4544 236.6208 
L 100.4544 245.4912 
L 100.4544 246.780596 
L 100.999335 246.932855 
L 106.043543 248.236875 
L 112.834441 250.187164 
L 114.680286 250.685894 
L 118.31066 251.76352 
L 118.636859 251.857326 
L 120.460529 252.419777 
L 125.574143 253.982324 
L 125.883541 254.077359 
L 126.742721 254.3616 
L 132.926192 256.394174 
L 134.663588 256.95968 
L 135.143428 257.120373 
L 135.453591 257.233004 
L 143.769914 260.117758 
L 148.533478 261.937683 
L 149.394722 262.247849 
L 151.907573 263.232 
L 155.754858 264.725152 
L 160.211216 266.622238 
L 163.432125 267.941183 
L 166.957481 269.50432 
L 171.821783 271.733726 
L 172.643374 272.1024 
L 172.881468 272.208008 
L 172.97558 272.252779 
L 178.050041 274.70048 
L 178.7332 275.026501 
L 179.257185 275.299629 
L 182.865383 277.10028 
L 188.942616 280.366037 
L 189.692589 280.757723 
L 190.067207 280.9728 
L 196.265606 284.479312 
L 199.708226 286.573937 
L 200.2731 286.90413 
L 200.80358 287.24512 
L 202.948347 288.600672 
L 204.406521 289.52563 
L 204.923916 289.8432 
L 205.247483 290.042136 
L 208.865736 292.44128 
L 210.460758 293.481036 
L 212.297727 294.790894 
L 214.649876 296.413565 
L 217.751868 298.7136 
L 220.228209 300.518415 
L 225.81482 304.98592 
L 226.470127 305.498336 
L 228.949534 307.584 
L 229.96992 307.584 
L 238.06464 307.584 
L 246.15936 307.584 
L 254.25408 307.584 
L 262.3488 307.584 
L 270.44352 307.584 
L 278.53824 307.584 
L 286.63296 307.584 
L 294.72768 307.584 
" clip-path="url(#pf2a6f8e180)" style="fill: #ff9400"/>
   </g>
   <g id="PathCollection_19">
    <path d="M 228.949534 307.584 
L 226.470127 305.498336 
L 225.81482 304.98592 
L 220.228209 300.518415 
L 217.751868 298.7136 
L 214.649876 296.413565 
L 212.297727 294.790894 
L 210.460758 293.481036 
L 208.865736 292.44128 
L 205.247483 290.042136 
L 204.923916 289.8432 
L 204.406521 289.52563 
L 202.948347 288.600672 
L 200.80358 287.24512 
L 200.2731 286.90413 
L 199.708226 286.573937 
L 196.265606 284.479312 
L 190.067207 280.9728 
L 189.692589 280.757723 
L 188.942616 280.366037 
L 182.865383 277.10028 
L 179.257185 275.299629 
L 178.7332 275.026501 
L 178.050041 274.70048 
L 172.97558 272.252779 
L 172.881468 272.208008 
L 172.643374 272.1024 
L 171.821783 271.733726 
L 166.957481 269.50432 
L 163.432125 267.941183 
L 160.211216 266.622238 
L 155.754858 264.725152 
L 151.907573 263.232 
L 149.394722 262.247849 
L 148.533478 261.937683 
L 143.769914 260.117758 
L 135.453591 257.233004 
L 135.143428 257.120373 
L 134.663588 256.95968 
L 132.926192 256.394174 
L 126.742721 254.3616 
L 125.883541 254.077359 
L 125.574143 253.982324 
L 120.460529 252.419777 
L 118.636859 251.857326 
L 118.31066 251.76352 
L 114.680286 250.685894 
L 112.834441 250.187164 
L 106.043543 248.236875 
L 100.999335 246.932855 
L 100.4544 246.780596 
L 100.4544 254.3616 
L 100.4544 263.232 
L 100.4544 272.1024 
L 100.4544 280.9728 
L 100.4544 285.951764 
L 102.652173 286.787134 
L 103.093154 286.951586 
L 103.834586 287.24512 
L 109.407434 289.453606 
L 109.6782 289.562907 
L 110.344389 289.8432 
L 112.991383 290.945989 
L 116.615826 292.44128 
L 118.682445 293.320355 
L 120.591426 294.169065 
L 126.519106 296.762433 
L 130.736553 298.7136 
L 132.519878 299.542722 
L 133.287499 299.915262 
L 137.849779 302.086793 
L 143.61369 304.98592 
L 145.057949 305.709392 
L 148.649096 307.584 
L 149.02272 307.584 
L 157.11744 307.584 
L 165.21216 307.584 
L 173.30688 307.584 
L 181.4016 307.584 
L 189.49632 307.584 
L 197.59104 307.584 
L 205.68576 307.584 
L 213.78048 307.584 
L 221.8752 307.584 
" clip-path="url(#pf2a6f8e180)" style="fill: #ff3800"/>
   </g>
   <g id="PathCollection_20">
    <path d="M 148.649096 307.584 
L 145.057949 305.709392 
L 143.61369 304.98592 
L 137.849779 302.086793 
L 133.287499 299.915262 
L 132.519878 299.542722 
L 130.736553 298.7136 
L 126.519106 296.762433 
L 120.591426 294.169065 
L 118.682445 293.320355 
L 116.615826 292.44128 
L 112.991383 290.945989 
L 110.344389 289.8432 
L 109.6782 289.562907 
L 109.407434 289.453606 
L 103.834586 287.24512 
L 103.093154 286.951586 
L 102.652173 286.787134 
L 100.4544 285.951764 
L 100.4544 289.8432 
L 100.4544 298.7136 
L 100.4544 307.584 
L 108.54912 307.584 
L 116.64384 307.584 
L 124.73856 307.584 
L 132.83328 307.584 
L 140.928 307.584 
" clip-path="url(#pf2a6f8e180)" style="fill: #b60000"/>
   </g>
   <g id="matplotlib.axis_1">
    <g id="xtick_1">
     <g id="line2d_1">
      <defs>
       <path id="md22be44b10" d="M 0 0 
L 0 3.5 
" style="stroke: #000000; stroke-width: 0.8"/>
      </defs>
      <g>
       <use xlink:href="#md22be44b10" x="57.6" y="307.584" style="stroke: #000000; stroke-width: 0.8"/>
      </g>
     </g>
     <g id="text_1">
      <!-- 0.0 -->
      <g transform="translate(51.26875 321.385562) scale(0.1 -0.1)">
       <defs>
        <path id="Calibri-30" d="M 3022 2031 
Q 3022 1566 2948 1181 
Q 2875 797 2704 520 
Q 2534 244 2259 92 
Q 1984 -59 1581 -59 
Q 1200 -59 939 77 
Q 678 213 518 477 
Q 359 741 292 1127 
Q 225 1513 225 2013 
Q 225 2475 300 2861 
Q 375 3247 544 3523 
Q 713 3800 988 3951 
Q 1263 4103 1663 4103 
Q 2047 4103 2308 3967 
Q 2569 3831 2728 3567 
Q 2888 3303 2955 2917 
Q 3022 2531 3022 2031 
z
M 2472 1994 
Q 2472 2297 2450 2537 
Q 2428 2778 2386 2962 
Q 2344 3147 2276 3280 
Q 2209 3413 2115 3498 
Q 2022 3584 1901 3623 
Q 1781 3663 1631 3663 
Q 1366 3663 1200 3538 
Q 1034 3413 939 3194 
Q 844 2975 809 2681 
Q 775 2388 775 2050 
Q 775 1597 822 1280 
Q 869 963 970 763 
Q 1072 563 1230 472 
Q 1388 381 1613 381 
Q 1788 381 1920 437 
Q 2053 494 2148 598 
Q 2244 703 2306 850 
Q 2369 997 2406 1175 
Q 2444 1353 2458 1561 
Q 2472 1769 2472 1994 
z
" transform="scale(0.015625)"/>
        <path id="Calibri-2e" d="M 1144 341 
Q 1144 119 1070 45 
Q 997 -28 803 -28 
Q 616 -28 544 44 
Q 472 116 472 331 
Q 472 553 545 626 
Q 619 700 813 700 
Q 1000 700 1072 628 
Q 1144 556 1144 341 
z
" transform="scale(0.015625)"/>
       </defs>
       <use xlink:href="#Calibri-30"/>
       <use xlink:href="#Calibri-2e" x="50.683594"/>
       <use xlink:href="#Calibri-30" x="75.927734"/>
      </g>
     </g>
    </g>
    <g id="xtick_2">
     <g id="line2d_2">
      <g>
       <use xlink:href="#md22be44b10" x="86.1696" y="307.584" style="stroke: #000000; stroke-width: 0.8"/>
      </g>
     </g>
     <g id="text_2">
      <!-- 0.1 -->
      <g transform="translate(79.83835 321.385562) scale(0.1 -0.1)">
       <defs>
        <path id="Calibri-31" d="M 2897 213 
Q 2897 153 2887 112 
Q 2878 72 2862 47 
Q 2847 22 2826 11 
Q 2806 0 2784 0 
L 672 0 
Q 650 0 631 11 
Q 613 22 595 47 
Q 578 72 568 112 
Q 559 153 559 213 
Q 559 269 568 309 
Q 578 350 592 376 
Q 606 403 626 417 
Q 647 431 672 431 
L 1516 431 
L 1516 3506 
L 734 3041 
Q 675 3009 639 3003 
Q 603 2997 581 3017 
Q 559 3038 551 3084 
Q 544 3131 544 3203 
Q 544 3256 548 3293 
Q 553 3331 562 3356 
Q 572 3381 589 3400 
Q 606 3419 634 3438 
L 1566 4034 
Q 1578 4044 1597 4050 
Q 1616 4056 1644 4062 
Q 1672 4069 1709 4070 
Q 1747 4072 1803 4072 
Q 1878 4072 1928 4065 
Q 1978 4059 2006 4048 
Q 2034 4038 2043 4020 
Q 2053 4003 2053 3984 
L 2053 431 
L 2784 431 
Q 2809 431 2831 417 
Q 2853 403 2867 376 
Q 2881 350 2889 309 
Q 2897 269 2897 213 
z
" transform="scale(0.015625)"/>
       </defs>
       <use xlink:href="#Calibri-30"/>
       <use xlink:href="#Calibri-2e" x="50.683594"/>
       <use xlink:href="#Calibri-31" x="75.927734"/>
      </g>
     </g>
    </g>
    <g id="xtick_3">
     <g id="line2d_3">
      <g>
       <use xlink:href="#md22be44b10" x="114.7392" y="307.584" style="stroke: #000000; stroke-width: 0.8"/>
      </g>
     </g>
     <g id="text_3">
      <!-- 0.2 -->
      <g transform="translate(108.40795 321.385562) scale(0.1 -0.1)">
       <defs>
        <path id="Calibri-32" d="M 2888 231 
Q 2888 175 2880 131 
Q 2872 88 2858 58 
Q 2844 28 2820 14 
Q 2797 0 2769 0 
L 534 0 
Q 491 0 458 11 
Q 425 22 401 47 
Q 378 72 367 119 
Q 356 166 356 234 
Q 356 297 361 344 
Q 366 391 381 427 
Q 397 463 420 498 
Q 444 534 481 575 
L 1266 1406 
Q 1538 1694 1702 1922 
Q 1866 2150 1955 2337 
Q 2044 2525 2072 2678 
Q 2100 2831 2100 2966 
Q 2100 3100 2056 3220 
Q 2013 3341 1930 3431 
Q 1847 3522 1722 3575 
Q 1597 3628 1434 3628 
Q 1244 3628 1092 3575 
Q 941 3522 827 3459 
Q 713 3397 636 3344 
Q 559 3291 522 3291 
Q 500 3291 483 3303 
Q 466 3316 455 3344 
Q 444 3372 437 3419 
Q 431 3466 431 3531 
Q 431 3578 434 3612 
Q 438 3647 445 3672 
Q 453 3697 465 3719 
Q 478 3741 515 3773 
Q 553 3806 645 3862 
Q 738 3919 877 3973 
Q 1016 4028 1183 4065 
Q 1350 4103 1534 4103 
Q 1828 4103 2048 4020 
Q 2269 3938 2414 3794 
Q 2559 3650 2631 3459 
Q 2703 3269 2703 3053 
Q 2703 2859 2668 2667 
Q 2634 2475 2523 2251 
Q 2413 2028 2203 1754 
Q 1994 1481 1647 1125 
L 1006 456 
L 2766 456 
Q 2791 456 2814 442 
Q 2838 428 2855 400 
Q 2872 372 2880 330 
Q 2888 288 2888 231 
z
" transform="scale(0.015625)"/>
       </defs>
       <use xlink:href="#Calibri-30"/>
       <use xlink:href="#Calibri-2e" x="50.683594"/>
       <use xlink:href="#Calibri-32" x="75.927734"/>
      </g>
     </g>
    </g>
    <g id="xtick_4">
     <g id="line2d_4">
      <g>
       <use xlink:href="#md22be44b10" x="143.3088" y="307.584" style="stroke: #000000; stroke-width: 0.8"/>
      </g>
     </g>
     <g id="text_4">
      <!-- 0.3 -->
      <g transform="translate(136.97755 321.385562) scale(0.1 -0.1)">
       <defs>
        <path id="Calibri-33" d="M 2856 1156 
Q 2856 878 2759 654 
Q 2663 431 2481 272 
Q 2300 113 2034 27 
Q 1769 -59 1434 -59 
Q 1231 -59 1054 -26 
Q 878 6 740 51 
Q 603 97 512 145 
Q 422 194 398 216 
Q 375 238 362 259 
Q 350 281 340 312 
Q 331 344 326 389 
Q 322 434 322 500 
Q 322 613 344 656 
Q 366 700 406 700 
Q 434 700 517 650 
Q 600 600 729 542 
Q 859 484 1032 434 
Q 1206 384 1419 384 
Q 1625 384 1781 437 
Q 1938 491 2044 587 
Q 2150 684 2203 817 
Q 2256 950 2256 1106 
Q 2256 1278 2189 1415 
Q 2122 1553 1992 1653 
Q 1863 1753 1673 1806 
Q 1484 1859 1244 1859 
L 859 1859 
Q 834 1859 811 1870 
Q 788 1881 770 1906 
Q 753 1931 742 1972 
Q 731 2013 731 2078 
Q 731 2138 740 2177 
Q 750 2216 767 2239 
Q 784 2263 806 2273 
Q 828 2284 856 2284 
L 1209 2284 
Q 1416 2284 1580 2337 
Q 1744 2391 1858 2491 
Q 1972 2591 2033 2730 
Q 2094 2869 2094 3041 
Q 2094 3166 2053 3280 
Q 2013 3394 1931 3478 
Q 1850 3563 1723 3611 
Q 1597 3659 1431 3659 
Q 1250 3659 1098 3604 
Q 947 3550 828 3487 
Q 709 3425 631 3370 
Q 553 3316 522 3316 
Q 500 3316 483 3323 
Q 466 3331 455 3354 
Q 444 3378 439 3420 
Q 434 3463 434 3531 
Q 434 3578 437 3614 
Q 441 3650 450 3676 
Q 459 3703 471 3725 
Q 484 3747 514 3776 
Q 544 3806 634 3862 
Q 725 3919 858 3973 
Q 991 4028 1164 4065 
Q 1338 4103 1538 4103 
Q 1819 4103 2031 4031 
Q 2244 3959 2386 3828 
Q 2528 3697 2598 3514 
Q 2669 3331 2669 3109 
Q 2669 2919 2619 2755 
Q 2569 2591 2472 2464 
Q 2375 2338 2234 2248 
Q 2094 2159 1909 2125 
L 1909 2119 
Q 2119 2097 2292 2014 
Q 2466 1931 2591 1806 
Q 2716 1681 2786 1514 
Q 2856 1347 2856 1156 
z
" transform="scale(0.015625)"/>
       </defs>
       <use xlink:href="#Calibri-30"/>
       <use xlink:href="#Calibri-2e" x="50.683594"/>
       <use xlink:href="#Calibri-33" x="75.927734"/>
      </g>
     </g>
    </g>
    <g id="xtick_5">
     <g id="line2d_5">
      <g>
       <use xlink:href="#md22be44b10" x="171.8784" y="307.584" style="stroke: #000000; stroke-width: 0.8"/>
      </g>
     </g>
     <g id="text_5">
      <!-- 0.4 -->
      <g transform="translate(165.54715 321.385562) scale(0.1 -0.1)">
       <defs>
        <path id="Calibri-34" d="M 3059 1150 
Q 3059 1047 3028 987 
Q 2997 928 2941 928 
L 2484 928 
L 2484 78 
Q 2484 53 2471 36 
Q 2459 19 2428 6 
Q 2397 -6 2347 -12 
Q 2297 -19 2219 -19 
Q 2144 -19 2094 -12 
Q 2044 -6 2014 6 
Q 1984 19 1973 36 
Q 1963 53 1963 78 
L 1963 928 
L 294 928 
Q 256 928 231 937 
Q 206 947 186 972 
Q 166 997 158 1044 
Q 150 1091 150 1166 
Q 150 1225 153 1272 
Q 156 1319 165 1358 
Q 175 1397 190 1433 
Q 206 1469 228 1509 
L 1684 3966 
Q 1700 3991 1729 4009 
Q 1759 4028 1806 4040 
Q 1853 4053 1922 4058 
Q 1991 4063 2084 4063 
Q 2188 4063 2264 4055 
Q 2341 4047 2387 4034 
Q 2434 4022 2459 4001 
Q 2484 3981 2484 3953 
L 2484 1372 
L 2941 1372 
Q 2994 1372 3026 1317 
Q 3059 1263 3059 1150 
z
M 1963 3591 
L 1956 3591 
L 641 1372 
L 1963 1372 
L 1963 3591 
z
" transform="scale(0.015625)"/>
       </defs>
       <use xlink:href="#Calibri-30"/>
       <use xlink:href="#Calibri-2e" x="50.683594"/>
       <use xlink:href="#Calibri-34" x="75.927734"/>
      </g>
     </g>
    </g>
    <g id="xtick_6">
     <g id="line2d_6">
      <g>
       <use xlink:href="#md22be44b10" x="200.448" y="307.584" style="stroke: #000000; stroke-width: 0.8"/>
      </g>
     </g>
     <g id="text_6">
      <!-- 0.5 -->
      <g transform="translate(194.11675 321.385562) scale(0.1 -0.1)">
       <defs>
        <path id="Calibri-35" d="M 2869 1300 
Q 2869 975 2759 722 
Q 2650 469 2450 295 
Q 2250 122 1973 31 
Q 1697 -59 1359 -59 
Q 1172 -59 1003 -32 
Q 834 -6 703 33 
Q 572 72 487 109 
Q 403 147 379 169 
Q 356 191 347 209 
Q 338 228 330 254 
Q 322 281 319 322 
Q 316 363 316 419 
Q 316 472 320 514 
Q 325 556 337 582 
Q 350 609 367 621 
Q 384 634 406 634 
Q 438 634 503 595 
Q 569 556 680 511 
Q 791 466 955 425 
Q 1119 384 1344 384 
Q 1553 384 1728 434 
Q 1903 484 2029 590 
Q 2156 697 2228 858 
Q 2300 1019 2300 1250 
Q 2300 1444 2239 1592 
Q 2178 1741 2051 1839 
Q 1925 1938 1731 1986 
Q 1538 2034 1269 2034 
Q 1078 2034 940 2015 
Q 803 1997 684 1997 
Q 597 1997 559 2037 
Q 522 2078 522 2194 
L 522 3841 
Q 522 3944 570 3994 
Q 619 4044 709 4044 
L 2500 4044 
Q 2525 4044 2548 4030 
Q 2572 4016 2587 3987 
Q 2603 3959 2611 3915 
Q 2619 3872 2619 3813 
Q 2619 3700 2587 3637 
Q 2556 3575 2500 3575 
L 991 3575 
L 991 2441 
Q 1100 2456 1214 2459 
Q 1328 2463 1478 2463 
Q 1825 2463 2084 2380 
Q 2344 2297 2517 2145 
Q 2691 1994 2780 1778 
Q 2869 1563 2869 1300 
z
" transform="scale(0.015625)"/>
       </defs>
       <use xlink:href="#Calibri-30"/>
       <use xlink:href="#Calibri-2e" x="50.683594"/>
       <use xlink:href="#Calibri-35" x="75.927734"/>
      </g>
     </g>
    </g>
    <g id="xtick_7">
     <g id="line2d_7">
      <g>
       <use xlink:href="#md22be44b10" x="229.0176" y="307.584" style="stroke: #000000; stroke-width: 0.8"/>
      </g>
     </g>
     <g id="text_7">
      <!-- 0.6 -->
      <g transform="translate(222.68635 321.385562) scale(0.1 -0.1)">
       <defs>
        <path id="Calibri-36" d="M 2991 1309 
Q 2991 1044 2909 795 
Q 2828 547 2659 358 
Q 2491 169 2231 55 
Q 1972 -59 1619 -59 
Q 1366 -59 1172 3 
Q 978 66 834 181 
Q 691 297 595 465 
Q 500 634 442 850 
Q 384 1066 359 1322 
Q 334 1578 334 1872 
Q 334 2131 362 2397 
Q 391 2663 462 2909 
Q 534 3156 657 3373 
Q 781 3591 967 3752 
Q 1153 3913 1412 4006 
Q 1672 4100 2016 4100 
Q 2131 4100 2250 4086 
Q 2369 4072 2469 4048 
Q 2569 4025 2637 3997 
Q 2706 3969 2728 3951 
Q 2750 3934 2761 3914 
Q 2772 3894 2778 3870 
Q 2784 3847 2787 3817 
Q 2791 3788 2791 3744 
Q 2791 3688 2789 3647 
Q 2788 3606 2777 3581 
Q 2766 3556 2748 3543 
Q 2731 3531 2703 3531 
Q 2669 3531 2609 3553 
Q 2550 3575 2465 3601 
Q 2381 3628 2261 3650 
Q 2141 3672 1981 3672 
Q 1691 3672 1481 3553 
Q 1272 3434 1139 3234 
Q 1006 3034 942 2770 
Q 878 2506 869 2219 
Q 950 2266 1051 2312 
Q 1153 2359 1273 2396 
Q 1394 2434 1528 2457 
Q 1663 2481 1816 2481 
Q 2144 2481 2369 2392 
Q 2594 2303 2733 2145 
Q 2872 1988 2931 1773 
Q 2991 1559 2991 1309 
z
M 2447 1259 
Q 2447 1441 2411 1589 
Q 2375 1738 2290 1841 
Q 2206 1944 2065 2000 
Q 1925 2056 1719 2056 
Q 1603 2056 1487 2036 
Q 1372 2016 1264 1980 
Q 1156 1944 1057 1895 
Q 959 1847 878 1791 
Q 878 1388 929 1116 
Q 981 844 1079 680 
Q 1178 516 1325 445 
Q 1472 375 1669 375 
Q 1869 375 2016 450 
Q 2163 525 2259 651 
Q 2356 778 2401 936 
Q 2447 1094 2447 1259 
z
" transform="scale(0.015625)"/>
       </defs>
       <use xlink:href="#Calibri-30"/>
       <use xlink:href="#Calibri-2e" x="50.683594"/>
       <use xlink:href="#Calibri-36" x="75.927734"/>
      </g>
     </g>
    </g>
    <g id="xtick_8">
     <g id="line2d_8">
      <g>
       <use xlink:href="#md22be44b10" x="257.5872" y="307.584" style="stroke: #000000; stroke-width: 0.8"/>
      </g>
     </g>
     <g id="text_8">
      <!-- 0.7 -->
      <g transform="translate(251.25595 321.385562) scale(0.1 -0.1)">
       <defs>
        <path id="Calibri-37" d="M 2947 3813 
Q 2947 3756 2942 3711 
Q 2938 3666 2930 3623 
Q 2922 3581 2908 3542 
Q 2894 3503 2875 3459 
L 1419 103 
Q 1403 66 1379 42 
Q 1356 19 1320 5 
Q 1284 -9 1228 -14 
Q 1172 -19 1091 -19 
Q 984 -19 925 -9 
Q 866 0 839 20 
Q 813 41 816 70 
Q 819 100 838 141 
L 2369 3572 
L 428 3572 
Q 369 3572 339 3634 
Q 309 3697 309 3809 
Q 309 3869 317 3912 
Q 325 3956 340 3986 
Q 356 4016 378 4030 
Q 400 4044 428 4044 
L 2784 4044 
Q 2828 4044 2861 4034 
Q 2894 4025 2911 3997 
Q 2928 3969 2937 3925 
Q 2947 3881 2947 3813 
z
" transform="scale(0.015625)"/>
       </defs>
       <use xlink:href="#Calibri-30"/>
       <use xlink:href="#Calibri-2e" x="50.683594"/>
       <use xlink:href="#Calibri-37" x="75.927734"/>
      </g>
     </g>
    </g>
    <g id="xtick_9">
     <g id="line2d_9">
      <g>
       <use xlink:href="#md22be44b10" x="286.1568" y="307.584" style="stroke: #000000; stroke-width: 0.8"/>
      </g>
     </g>
     <g id="text_9">
      <!-- 0.8 -->
      <g transform="translate(279.82555 321.385562) scale(0.1 -0.1)">
       <defs>
        <path id="Calibri-38" d="M 2981 1038 
Q 2981 775 2887 570 
Q 2794 366 2617 225 
Q 2441 84 2181 12 
Q 1922 -59 1588 -59 
Q 1275 -59 1028 6 
Q 781 72 609 200 
Q 438 328 347 515 
Q 256 703 256 944 
Q 256 1134 318 1293 
Q 381 1453 498 1587 
Q 616 1722 787 1839 
Q 959 1956 1175 2063 
Q 988 2159 844 2267 
Q 700 2375 600 2501 
Q 500 2628 448 2772 
Q 397 2916 397 3084 
Q 397 3297 473 3483 
Q 550 3669 704 3806 
Q 859 3944 1098 4023 
Q 1338 4103 1656 4103 
Q 1963 4103 2186 4029 
Q 2409 3956 2554 3829 
Q 2700 3703 2769 3531 
Q 2838 3359 2838 3163 
Q 2838 3003 2786 2856 
Q 2734 2709 2634 2578 
Q 2534 2447 2389 2333 
Q 2244 2219 2056 2119 
Q 2278 2009 2451 1893 
Q 2625 1778 2742 1645 
Q 2859 1513 2920 1364 
Q 2981 1216 2981 1038 
z
M 2306 3113 
Q 2306 3244 2261 3350 
Q 2216 3456 2128 3531 
Q 2041 3606 1911 3645 
Q 1781 3684 1616 3684 
Q 1278 3684 1104 3531 
Q 931 3378 931 3113 
Q 931 2991 973 2886 
Q 1016 2781 1105 2687 
Q 1194 2594 1330 2505 
Q 1466 2416 1653 2319 
Q 1969 2481 2137 2678 
Q 2306 2875 2306 3113 
z
M 2438 981 
Q 2438 1125 2384 1242 
Q 2331 1359 2223 1461 
Q 2116 1563 1955 1658 
Q 1794 1753 1581 1856 
Q 1384 1759 1236 1662 
Q 1088 1566 992 1462 
Q 897 1359 848 1245 
Q 800 1131 800 994 
Q 800 691 1008 525 
Q 1216 359 1628 359 
Q 2028 359 2233 526 
Q 2438 694 2438 981 
z
" transform="scale(0.015625)"/>
       </defs>
       <use xlink:href="#Calibri-30"/>
       <use xlink:href="#Calibri-2e" x="50.683594"/>
       <use xlink:href="#Calibri-38" x="75.927734"/>
      </g>
     </g>
    </g>
    <g id="xtick_10">
     <g id="line2d_10">
      <g>
       <use xlink:href="#md22be44b10" x="314.7264" y="307.584" style="stroke: #000000; stroke-width: 0.8"/>
      </g>
     </g>
     <g id="text_10">
      <!-- 0.9 -->
      <g transform="translate(308.39515 321.385562) scale(0.1 -0.1)">
       <defs>
        <path id="Calibri-39" d="M 2919 2181 
Q 2919 1919 2887 1650 
Q 2856 1381 2781 1132 
Q 2706 884 2579 667 
Q 2453 450 2261 287 
Q 2069 125 1805 33 
Q 1541 -59 1191 -59 
Q 1056 -59 929 -42 
Q 803 -25 701 0 
Q 600 25 531 53 
Q 463 81 431 109 
Q 400 138 386 186 
Q 372 234 372 316 
Q 372 384 376 425 
Q 381 466 390 487 
Q 400 509 417 517 
Q 434 525 459 525 
Q 494 525 556 501 
Q 619 478 714 450 
Q 809 422 937 398 
Q 1066 375 1225 375 
Q 1528 375 1745 492 
Q 1963 609 2100 806 
Q 2238 1003 2306 1262 
Q 2375 1522 2381 1809 
Q 2216 1713 1984 1638 
Q 1753 1563 1453 1563 
Q 1116 1563 886 1655 
Q 656 1747 517 1906 
Q 378 2066 317 2284 
Q 256 2503 256 2763 
Q 256 3031 334 3273 
Q 413 3516 578 3700 
Q 744 3884 1000 3993 
Q 1256 4103 1613 4103 
Q 1866 4103 2061 4039 
Q 2256 3975 2400 3854 
Q 2544 3734 2644 3564 
Q 2744 3394 2805 3178 
Q 2866 2963 2892 2711 
Q 2919 2459 2919 2181 
z
M 2372 2241 
Q 2372 2641 2319 2914 
Q 2266 3188 2162 3356 
Q 2059 3525 1909 3600 
Q 1759 3675 1563 3675 
Q 1359 3675 1215 3601 
Q 1072 3528 980 3404 
Q 888 3281 844 3125 
Q 800 2969 800 2803 
Q 800 2619 839 2466 
Q 878 2313 965 2206 
Q 1053 2100 1193 2042 
Q 1334 1984 1541 1984 
Q 1775 1984 1994 2054 
Q 2213 2125 2372 2241 
z
" transform="scale(0.015625)"/>
       </defs>
       <use xlink:href="#Calibri-30"/>
       <use xlink:href="#Calibri-2e" x="50.683594"/>
       <use xlink:href="#Calibri-39" x="75.927734"/>
      </g>
     </g>
    </g>
    <g id="xtick_11">
     <g id="line2d_11">
      <g>
       <use xlink:href="#md22be44b10" x="343.296" y="307.584" style="stroke: #000000; stroke-width: 0.8"/>
      </g>
     </g>
     <g id="text_11">
      <!-- 1.0 -->
      <g transform="translate(336.96475 321.385562) scale(0.1 -0.1)">
       <use xlink:href="#Calibri-31"/>
       <use xlink:href="#Calibri-2e" x="50.683594"/>
       <use xlink:href="#Calibri-30" x="75.927734"/>
      </g>
     </g>
    </g>
    <g id="text_12">
     <!-- $\mathit{p}$ (cm$^2$/cm$^2$) -->
     <g transform="translate(174.148 336.263687) scale(0.1 -0.1)">
      <defs>
       <path id="DejaVuSans-Oblique-70" d="M 3175 2156 
Q 3175 2616 2975 2859 
Q 2775 3103 2400 3103 
Q 2144 3103 1911 2972 
Q 1678 2841 1497 2591 
Q 1319 2344 1212 1994 
Q 1106 1644 1106 1300 
Q 1106 863 1306 627 
Q 1506 391 1875 391 
Q 2147 391 2380 519 
Q 2613 647 2778 891 
Q 2956 1147 3065 1494 
Q 3175 1841 3175 2156 
z
M 1394 2969 
Q 1625 3272 1939 3428 
Q 2253 3584 2638 3584 
Q 3175 3584 3472 3232 
Q 3769 2881 3769 2247 
Q 3769 1728 3584 1258 
Q 3400 788 3053 416 
Q 2822 169 2531 39 
Q 2241 -91 1919 -91 
Q 1547 -91 1294 64 
Q 1041 219 916 525 
L 556 -1331 
L -19 -1331 
L 922 3500 
L 1497 3500 
L 1394 2969 
z
" transform="scale(0.015625)"/>
       <path id="Calibri-20" transform="scale(0.015625)"/>
       <path id="Calibri-28" d="M 1547 4306 
Q 1250 3678 1104 3017 
Q 959 2356 959 1688 
Q 959 1016 1107 356 
Q 1256 -303 1541 -938 
Q 1556 -975 1557 -1001 
Q 1559 -1028 1537 -1045 
Q 1516 -1063 1470 -1070 
Q 1425 -1078 1347 -1078 
Q 1291 -1078 1250 -1075 
Q 1209 -1072 1179 -1062 
Q 1150 -1053 1131 -1040 
Q 1113 -1028 1103 -1013 
Q 934 -694 806 -367 
Q 678 -41 590 296 
Q 503 634 459 979 
Q 416 1325 416 1678 
Q 416 2031 464 2375 
Q 513 2719 602 3058 
Q 691 3397 819 3725 
Q 947 4053 1106 4375 
Q 1109 4388 1123 4397 
Q 1138 4406 1163 4415 
Q 1188 4425 1231 4429 
Q 1275 4434 1344 4434 
Q 1416 4434 1459 4425 
Q 1503 4416 1528 4400 
Q 1553 4384 1556 4359 
Q 1559 4334 1547 4306 
z
" transform="scale(0.015625)"/>
       <path id="Calibri-63" d="M 2500 506 
Q 2500 453 2497 414 
Q 2494 375 2486 348 
Q 2478 322 2467 301 
Q 2456 281 2417 242 
Q 2378 203 2284 145 
Q 2191 88 2073 42 
Q 1956 -3 1818 -31 
Q 1681 -59 1534 -59 
Q 1231 -59 997 41 
Q 763 141 605 333 
Q 447 525 364 804 
Q 281 1084 281 1450 
Q 281 1866 382 2164 
Q 484 2463 661 2653 
Q 838 2844 1077 2936 
Q 1316 3028 1594 3028 
Q 1728 3028 1854 3003 
Q 1981 2978 2087 2937 
Q 2194 2897 2276 2844 
Q 2359 2791 2396 2753 
Q 2434 2716 2448 2694 
Q 2463 2672 2472 2642 
Q 2481 2613 2484 2575 
Q 2488 2538 2488 2481 
Q 2488 2359 2459 2311 
Q 2431 2263 2391 2263 
Q 2344 2263 2283 2314 
Q 2222 2366 2128 2428 
Q 2034 2491 1901 2542 
Q 1769 2594 1588 2594 
Q 1216 2594 1017 2308 
Q 819 2022 819 1478 
Q 819 1206 870 1001 
Q 922 797 1022 659 
Q 1122 522 1267 455 
Q 1413 388 1600 388 
Q 1778 388 1912 444 
Q 2047 500 2145 567 
Q 2244 634 2311 689 
Q 2378 744 2416 744 
Q 2438 744 2453 731 
Q 2469 719 2480 689 
Q 2491 659 2495 614 
Q 2500 569 2500 506 
z
" transform="scale(0.015625)"/>
       <path id="Calibri-6d" d="M 4650 78 
Q 4650 53 4637 36 
Q 4625 19 4597 6 
Q 4569 -6 4519 -12 
Q 4469 -19 4394 -19 
Q 4316 -19 4266 -12 
Q 4216 -6 4186 6 
Q 4156 19 4143 36 
Q 4131 53 4131 78 
L 4131 1788 
Q 4131 1966 4100 2112 
Q 4069 2259 4000 2365 
Q 3931 2472 3825 2528 
Q 3719 2584 3575 2584 
Q 3397 2584 3217 2446 
Q 3038 2309 2822 2044 
L 2822 78 
Q 2822 53 2809 36 
Q 2797 19 2767 6 
Q 2738 -6 2688 -12 
Q 2638 -19 2563 -19 
Q 2491 -19 2439 -12 
Q 2388 -6 2358 6 
Q 2328 19 2317 36 
Q 2306 53 2306 78 
L 2306 1788 
Q 2306 1966 2272 2112 
Q 2238 2259 2169 2365 
Q 2100 2472 1995 2528 
Q 1891 2584 1747 2584 
Q 1569 2584 1387 2446 
Q 1206 2309 994 2044 
L 994 78 
Q 994 53 981 36 
Q 969 19 941 6 
Q 913 -6 863 -12 
Q 813 -19 734 -19 
Q 659 -19 609 -12 
Q 559 -6 529 6 
Q 500 19 489 36 
Q 478 53 478 78 
L 478 2891 
Q 478 2916 487 2933 
Q 497 2950 525 2964 
Q 553 2978 597 2983 
Q 641 2988 713 2988 
Q 781 2988 826 2983 
Q 872 2978 897 2964 
Q 922 2950 933 2933 
Q 944 2916 944 2891 
L 944 2519 
Q 1181 2784 1404 2907 
Q 1628 3031 1856 3031 
Q 2031 3031 2170 2990 
Q 2309 2950 2415 2876 
Q 2522 2803 2597 2701 
Q 2672 2600 2722 2475 
Q 2863 2628 2989 2734 
Q 3116 2841 3233 2906 
Q 3350 2972 3461 3001 
Q 3572 3031 3684 3031 
Q 3956 3031 4140 2936 
Q 4325 2841 4439 2681 
Q 4553 2522 4601 2308 
Q 4650 2094 4650 1856 
L 4650 78 
z
" transform="scale(0.015625)"/>
       <path id="DejaVuSans-32" d="M 1228 531 
L 3431 531 
L 3431 0 
L 469 0 
L 469 531 
Q 828 903 1448 1529 
Q 2069 2156 2228 2338 
Q 2531 2678 2651 2914 
Q 2772 3150 2772 3378 
Q 2772 3750 2511 3984 
Q 2250 4219 1831 4219 
Q 1534 4219 1204 4116 
Q 875 4013 500 3803 
L 500 4441 
Q 881 4594 1212 4672 
Q 1544 4750 1819 4750 
Q 2544 4750 2975 4387 
Q 3406 4025 3406 3419 
Q 3406 3131 3298 2873 
Q 3191 2616 2906 2266 
Q 2828 2175 2409 1742 
Q 1991 1309 1228 531 
z
" transform="scale(0.015625)"/>
       <path id="Calibri-2f" d="M 525 -753 
Q 513 -794 492 -817 
Q 472 -841 440 -853 
Q 409 -866 364 -872 
Q 319 -878 253 -878 
Q 175 -878 123 -867 
Q 72 -856 44 -836 
Q 16 -816 9 -786 
Q 3 -756 22 -716 
L 1913 4469 
Q 1925 4509 1945 4532 
Q 1966 4556 1995 4570 
Q 2025 4584 2072 4589 
Q 2119 4594 2184 4594 
Q 2263 4594 2313 4583 
Q 2363 4572 2391 4553 
Q 2419 4534 2425 4503 
Q 2431 4472 2416 4431 
L 525 -753 
z
" transform="scale(0.015625)"/>
       <path id="Calibri-29" d="M 1522 1678 
Q 1522 1325 1478 979 
Q 1434 634 1346 296 
Q 1259 -41 1132 -367 
Q 1006 -694 838 -1013 
Q 828 -1028 809 -1040 
Q 791 -1053 761 -1062 
Q 731 -1072 690 -1075 
Q 650 -1078 594 -1078 
Q 513 -1078 467 -1070 
Q 422 -1063 401 -1045 
Q 381 -1028 382 -1001 
Q 384 -975 400 -938 
Q 688 -306 834 355 
Q 981 1016 981 1688 
Q 981 2356 834 3017 
Q 688 3678 394 4306 
Q 381 4334 384 4359 
Q 388 4384 413 4400 
Q 438 4416 481 4425 
Q 525 4434 597 4434 
Q 663 4434 706 4429 
Q 750 4425 776 4415 
Q 803 4406 815 4397 
Q 828 4388 834 4375 
Q 1156 3734 1339 3057 
Q 1522 2381 1522 1678 
z
" transform="scale(0.015625)"/>
      </defs>
      <use xlink:href="#DejaVuSans-Oblique-70" transform="translate(0 0.765625)"/>
      <use xlink:href="#Calibri-20" transform="translate(63.476562 0.765625)"/>
      <use xlink:href="#Calibri-28" transform="translate(84.958984 0.765625)"/>
      <use xlink:href="#Calibri-63" transform="translate(115.28125 0.765625)"/>
      <use xlink:href="#Calibri-6d" transform="translate(157.566406 0.765625)"/>
      <use xlink:href="#DejaVuSans-32" transform="translate(238.40625 39.046875) scale(0.7)"/>
      <use xlink:href="#Calibri-2f" transform="translate(285.676758 0.765625)"/>
      <use xlink:href="#Calibri-63" transform="translate(324.299805 0.765625)"/>
      <use xlink:href="#Calibri-6d" transform="translate(366.584961 0.765625)"/>
      <use xlink:href="#DejaVuSans-32" transform="translate(447.424805 39.046875) scale(0.7)"/>
      <use xlink:href="#Calibri-29" transform="translate(494.695312 0.765625)"/>
     </g>
    </g>
   </g>
   <g id="matplotlib.axis_2">
    <g id="ytick_1">
     <g id="line2d_12">
      <defs>
       <path id="m5338125bc7" d="M 0 0 
L -3.5 0 
" style="stroke: #000000; stroke-width: 0.8"/>
      </defs>
      <g>
       <use xlink:href="#m5338125bc7" x="57.6" y="275.65056" style="stroke: #000000; stroke-width: 0.8"/>
      </g>
     </g>
     <g id="text_13">
      <!-- 25 -->
      <g transform="translate(40.4625 279.051341) scale(0.1 -0.1)">
       <use xlink:href="#Calibri-32"/>
       <use xlink:href="#Calibri-35" x="50.683594"/>
      </g>
     </g>
    </g>
    <g id="ytick_2">
     <g id="line2d_13">
      <g>
       <use xlink:href="#m5338125bc7" x="57.6" y="242.38656" style="stroke: #000000; stroke-width: 0.8"/>
      </g>
     </g>
     <g id="text_14">
      <!-- 50 -->
      <g transform="translate(40.4625 245.787341) scale(0.1 -0.1)">
       <use xlink:href="#Calibri-35"/>
       <use xlink:href="#Calibri-30" x="50.683594"/>
      </g>
     </g>
    </g>
    <g id="ytick_3">
     <g id="line2d_14">
      <g>
       <use xlink:href="#m5338125bc7" x="57.6" y="209.12256" style="stroke: #000000; stroke-width: 0.8"/>
      </g>
     </g>
     <g id="text_15">
      <!-- 75 -->
      <g transform="translate(40.4625 212.523341) scale(0.1 -0.1)">
       <use xlink:href="#Calibri-37"/>
       <use xlink:href="#Calibri-35" x="50.683594"/>
      </g>
     </g>
    </g>
    <g id="ytick_4">
     <g id="line2d_15">
      <g>
       <use xlink:href="#m5338125bc7" x="57.6" y="175.85856" style="stroke: #000000; stroke-width: 0.8"/>
      </g>
     </g>
     <g id="text_16">
      <!-- 100 -->
      <g transform="translate(35.39375 179.259341) scale(0.1 -0.1)">
       <use xlink:href="#Calibri-31"/>
       <use xlink:href="#Calibri-30" x="50.683594"/>
       <use xlink:href="#Calibri-30" x="101.367188"/>
      </g>
     </g>
    </g>
    <g id="ytick_5">
     <g id="line2d_16">
      <g>
       <use xlink:href="#m5338125bc7" x="57.6" y="142.59456" style="stroke: #000000; stroke-width: 0.8"/>
      </g>
     </g>
     <g id="text_17">
      <!-- 125 -->
      <g transform="translate(35.39375 145.995341) scale(0.1 -0.1)">
       <use xlink:href="#Calibri-31"/>
       <use xlink:href="#Calibri-32" x="50.683594"/>
       <use xlink:href="#Calibri-35" x="101.367188"/>
      </g>
     </g>
    </g>
    <g id="ytick_6">
     <g id="line2d_17">
      <g>
       <use xlink:href="#m5338125bc7" x="57.6" y="109.33056" style="stroke: #000000; stroke-width: 0.8"/>
      </g>
     </g>
     <g id="text_18">
      <!-- 150 -->
      <g transform="translate(35.39375 112.731341) scale(0.1 -0.1)">
       <use xlink:href="#Calibri-31"/>
       <use xlink:href="#Calibri-35" x="50.683594"/>
       <use xlink:href="#Calibri-30" x="101.367188"/>
      </g>
     </g>
    </g>
    <g id="ytick_7">
     <g id="line2d_18">
      <g>
       <use xlink:href="#m5338125bc7" x="57.6" y="76.06656" style="stroke: #000000; stroke-width: 0.8"/>
      </g>
     </g>
     <g id="text_19">
      <!-- 175 -->
      <g transform="translate(35.39375 79.467341) scale(0.1 -0.1)">
       <use xlink:href="#Calibri-31"/>
       <use xlink:href="#Calibri-37" x="50.683594"/>
       <use xlink:href="#Calibri-35" x="101.367188"/>
      </g>
     </g>
    </g>
    <g id="ytick_8">
     <g id="line2d_19">
      <g>
       <use xlink:href="#m5338125bc7" x="57.6" y="42.80256" style="stroke: #000000; stroke-width: 0.8"/>
      </g>
     </g>
     <g id="text_20">
      <!-- 200 -->
      <g transform="translate(35.39375 46.203341) scale(0.1 -0.1)">
       <use xlink:href="#Calibri-32"/>
       <use xlink:href="#Calibri-30" x="50.683594"/>
       <use xlink:href="#Calibri-30" x="101.367188"/>
      </g>
     </g>
    </g>
    <g id="text_21">
     <!-- $\mathit{Z}$$_{a}$ (nm) -->
     <g transform="translate(29.59375 191.028) rotate(-90) scale(0.1 -0.1)">
      <defs>
       <path id="DejaVuSans-Oblique-5a" d="M 838 4666 
L 4500 4666 
L 4409 4184 
L 794 531 
L 3769 531 
L 3669 0 
L -141 0 
L -50 481 
L 3566 4134 
L 738 4134 
L 838 4666 
z
" transform="scale(0.015625)"/>
       <path id="DejaVuSans-Oblique-61" d="M 3438 1997 
L 3047 0 
L 2472 0 
L 2578 531 
Q 2325 219 2001 64 
Q 1678 -91 1281 -91 
Q 834 -91 548 182 
Q 263 456 263 884 
Q 263 1497 752 1853 
Q 1241 2209 2100 2209 
L 2900 2209 
L 2931 2363 
Q 2938 2388 2941 2417 
Q 2944 2447 2944 2509 
Q 2944 2788 2717 2942 
Q 2491 3097 2081 3097 
Q 1800 3097 1504 3025 
Q 1209 2953 897 2809 
L 997 3341 
Q 1322 3463 1633 3523 
Q 1944 3584 2234 3584 
Q 2853 3584 3176 3315 
Q 3500 3047 3500 2534 
Q 3500 2431 3484 2292 
Q 3469 2153 3438 1997 
z
M 2816 1759 
L 2241 1759 
Q 1534 1759 1195 1570 
Q 856 1381 856 984 
Q 856 709 1029 553 
Q 1203 397 1509 397 
Q 1978 397 2328 733 
Q 2678 1069 2791 1631 
L 2816 1759 
z
" transform="scale(0.015625)"/>
       <path id="Calibri-6e" d="M 2900 78 
Q 2900 53 2887 36 
Q 2875 19 2847 6 
Q 2819 -6 2769 -12 
Q 2719 -19 2644 -19 
Q 2566 -19 2516 -12 
Q 2466 -6 2437 6 
Q 2409 19 2396 36 
Q 2384 53 2384 78 
L 2384 1725 
Q 2384 1966 2346 2112 
Q 2309 2259 2237 2365 
Q 2166 2472 2052 2528 
Q 1938 2584 1788 2584 
Q 1594 2584 1400 2446 
Q 1206 2309 994 2044 
L 994 78 
Q 994 53 981 36 
Q 969 19 941 6 
Q 913 -6 863 -12 
Q 813 -19 734 -19 
Q 659 -19 609 -12 
Q 559 -6 529 6 
Q 500 19 489 36 
Q 478 53 478 78 
L 478 2891 
Q 478 2916 487 2933 
Q 497 2950 525 2964 
Q 553 2978 597 2983 
Q 641 2988 713 2988 
Q 781 2988 826 2983 
Q 872 2978 897 2964 
Q 922 2950 933 2933 
Q 944 2916 944 2891 
L 944 2519 
Q 1181 2784 1417 2907 
Q 1653 3031 1894 3031 
Q 2175 3031 2367 2936 
Q 2559 2841 2678 2681 
Q 2797 2522 2848 2308 
Q 2900 2094 2900 1794 
L 2900 78 
z
" transform="scale(0.015625)"/>
      </defs>
      <use xlink:href="#DejaVuSans-Oblique-5a" transform="translate(0 0.09375)"/>
      <use xlink:href="#DejaVuSans-Oblique-61" transform="translate(69.462891 -16.3125) scale(0.7)"/>
      <use xlink:href="#Calibri-20" transform="translate(115.092773 0.09375)"/>
      <use xlink:href="#Calibri-28" transform="translate(136.575195 0.09375)"/>
      <use xlink:href="#Calibri-6e" transform="translate(166.897461 0.09375)"/>
      <use xlink:href="#Calibri-6d" transform="translate(219.436523 0.09375)"/>
      <use xlink:href="#Calibri-29" transform="translate(299.319336 0.09375)"/>
     </g>
    </g>
   </g>
   <g id="patch_3">
    <path d="M 57.6 307.584 
L 57.6 41.472 
" style="fill: none; stroke: #000000; stroke-width: 0.8; stroke-linejoin: miter; stroke-linecap: square"/>
   </g>
   <g id="patch_4">
    <path d="M 343.296 307.584 
L 343.296 41.472 
" style="fill: none; stroke: #000000; stroke-width: 0.8; stroke-linejoin: miter; stroke-linecap: square"/>
   </g>
   <g id="patch_5">
    <path d="M 57.6 307.584 
L 343.296 307.584 
" style="fill: none; stroke: #000000; stroke-width: 0.8; stroke-linejoin: miter; stroke-linecap: square"/>
   </g>
   <g id="patch_6">
    <path d="M 57.6 41.472 
L 343.296 41.472 
" style="fill: none; stroke: #000000; stroke-width: 0.8; stroke-linejoin: miter; stroke-linecap: square"/>
   </g>
   <g id="text_22">
    <!-- $\lambda$ = 810 nm -->
    <g transform="translate(177.348 35.472) scale(0.1 -0.1)">
     <defs>
      <path id="DejaVuSans-Oblique-3bb" d="M 2350 4316 
L 3125 0 
L 2516 0 
L 2038 2588 
L 328 0 
L -281 0 
L 1903 3356 
L 1794 3975 
Q 1725 4369 1391 4369 
L 1091 4369 
L 1184 4863 
L 1550 4856 
Q 2253 4847 2350 4316 
z
" transform="scale(0.015625)"/>
      <path id="Calibri-3d" d="M 2891 2409 
Q 2891 2284 2855 2236 
Q 2819 2188 2772 2188 
L 409 2188 
Q 363 2188 328 2236 
Q 294 2284 294 2409 
Q 294 2522 325 2575 
Q 356 2628 409 2628 
L 2772 2628 
Q 2828 2628 2859 2575 
Q 2891 2522 2891 2409 
z
M 2891 1194 
Q 2891 1069 2855 1022 
Q 2819 975 2772 975 
L 409 975 
Q 363 975 328 1022 
Q 294 1069 294 1194 
Q 294 1309 325 1362 
Q 356 1416 409 1416 
L 2772 1416 
Q 2828 1416 2859 1362 
Q 2891 1309 2891 1194 
z
" transform="scale(0.015625)"/>
     </defs>
     <use xlink:href="#DejaVuSans-Oblique-3bb" transform="translate(0 0.015625)"/>
     <use xlink:href="#Calibri-20" transform="translate(59.179688 0.015625)"/>
     <use xlink:href="#Calibri-3d" transform="translate(81.787109 0.015625)"/>
     <use xlink:href="#Calibri-20" transform="translate(131.591797 0.015625)"/>
     <use xlink:href="#Calibri-38" transform="translate(154.199219 0.015625)"/>
     <use xlink:href="#Calibri-31" transform="translate(204.882812 0.015625)"/>
     <use xlink:href="#Calibri-30" transform="translate(255.566406 0.015625)"/>
     <use xlink:href="#Calibri-20" transform="translate(306.25 0.015625)"/>
     <use xlink:href="#Calibri-6e" transform="translate(328.857422 0.015625)"/>
     <use xlink:href="#Calibri-6d" transform="translate(381.396484 0.015625)"/>
    </g>
   </g>
  </g>
  <g id="axes_2">
   <g id="patch_7">
    <path d="M 361.152 307.584 
L 374.4576 307.584 
L 374.4576 41.472 
L 361.152 41.472 
z
" style="fill: #ffffff"/>
   </g>
   <g id="QuadMesh_1">
    <path d="M 361.152 307.584 
L 374.4576 307.584 
L 374.4576 280.9728 
L 361.152 280.9728 
L 361.152 307.584 
" clip-path="url(#p520b910965)" style="fill: #0000b6"/>
    <path d="M 361.152 280.9728 
L 374.4576 280.9728 
L 374.4576 254.3616 
L 361.152 254.3616 
L 361.152 280.9728 
" clip-path="url(#p520b910965)" style="fill: #0018ff"/>
    <path d="M 361.152 254.3616 
L 374.4576 254.3616 
L 374.4576 227.7504 
L 361.152 227.7504 
L 361.152 254.3616 
" clip-path="url(#p520b910965)" style="fill: #0080ff"/>
    <path d="M 361.152 227.7504 
L 374.4576 227.7504 
L 374.4576 201.1392 
L 361.152 201.1392 
L 361.152 227.7504 
" clip-path="url(#p520b910965)" style="fill: #00e4f8"/>
    <path d="M 361.152 201.1392 
L 374.4576 201.1392 
L 374.4576 174.528 
L 361.152 174.528 
L 361.152 201.1392 
" clip-path="url(#p520b910965)" style="fill: #53ffa4"/>
    <path d="M 361.152 174.528 
L 374.4576 174.528 
L 374.4576 147.9168 
L 361.152 147.9168 
L 361.152 174.528 
" clip-path="url(#p520b910965)" style="fill: #a4ff53"/>
    <path d="M 361.152 147.9168 
L 374.4576 147.9168 
L 374.4576 121.3056 
L 361.152 121.3056 
L 361.152 147.9168 
" clip-path="url(#p520b910965)" style="fill: #f8f500"/>
    <path d="M 361.152 121.3056 
L 374.4576 121.3056 
L 374.4576 94.6944 
L 361.152 94.6944 
L 361.152 121.3056 
" clip-path="url(#p520b910965)" style="fill: #ff9400"/>
    <path d="M 361.152 94.6944 
L 374.4576 94.6944 
L 374.4576 68.0832 
L 361.152 68.0832 
L 361.152 94.6944 
" clip-path="url(#p520b910965)" style="fill: #ff3800"/>
    <path d="M 361.152 68.0832 
L 374.4576 68.0832 
L 374.4576 41.472 
L 361.152 41.472 
L 361.152 68.0832 
" clip-path="url(#p520b910965)" style="fill: #b60000"/>
   </g>
   <g id="matplotlib.axis_3"/>
   <g id="matplotlib.axis_4">
    <g id="ytick_9">
     <g id="line2d_20">
      <defs>
       <path id="mc87fb114bc" d="M 0 0 
L 3.5 0 
" style="stroke: #000000; stroke-width: 0.8"/>
      </defs>
      <g>
       <use xlink:href="#mc87fb114bc" x="374.4576" y="307.584" style="stroke: #000000; stroke-width: 0.8"/>
      </g>
     </g>
     <g id="text_23">
      <!-- 0 -->
      <g transform="translate(381.4576 310.984781) scale(0.1 -0.1)">
       <use xlink:href="#Calibri-30"/>
      </g>
     </g>
    </g>
    <g id="ytick_10">
     <g id="line2d_21">
      <g>
       <use xlink:href="#mc87fb114bc" x="374.4576" y="280.9728" style="stroke: #000000; stroke-width: 0.8"/>
      </g>
     </g>
     <g id="text_24">
      <!-- 0.1 -->
      <g transform="translate(381.4576 284.373581) scale(0.1 -0.1)">
       <use xlink:href="#Calibri-30"/>
       <use xlink:href="#Calibri-2e" x="50.683594"/>
       <use xlink:href="#Calibri-31" x="75.927734"/>
      </g>
     </g>
    </g>
    <g id="ytick_11">
     <g id="line2d_22">
      <g>
       <use xlink:href="#mc87fb114bc" x="374.4576" y="254.3616" style="stroke: #000000; stroke-width: 0.8"/>
      </g>
     </g>
     <g id="text_25">
      <!-- 0.2 -->
      <g transform="translate(381.4576 257.762381) scale(0.1 -0.1)">
       <use xlink:href="#Calibri-30"/>
       <use xlink:href="#Calibri-2e" x="50.683594"/>
       <use xlink:href="#Calibri-32" x="75.927734"/>
      </g>
     </g>
    </g>
    <g id="ytick_12">
     <g id="line2d_23">
      <g>
       <use xlink:href="#mc87fb114bc" x="374.4576" y="227.7504" style="stroke: #000000; stroke-width: 0.8"/>
      </g>
     </g>
     <g id="text_26">
      <!-- 0.3 -->
      <g transform="translate(381.4576 231.151181) scale(0.1 -0.1)">
       <use xlink:href="#Calibri-30"/>
       <use xlink:href="#Calibri-2e" x="50.683594"/>
       <use xlink:href="#Calibri-33" x="75.927734"/>
      </g>
     </g>
    </g>
    <g id="ytick_13">
     <g id="line2d_24">
      <g>
       <use xlink:href="#mc87fb114bc" x="374.4576" y="201.1392" style="stroke: #000000; stroke-width: 0.8"/>
      </g>
     </g>
     <g id="text_27">
      <!-- 0.4 -->
      <g transform="translate(381.4576 204.539981) scale(0.1 -0.1)">
       <use xlink:href="#Calibri-30"/>
       <use xlink:href="#Calibri-2e" x="50.683594"/>
       <use xlink:href="#Calibri-34" x="75.927734"/>
      </g>
     </g>
    </g>
    <g id="ytick_14">
     <g id="line2d_25">
      <g>
       <use xlink:href="#mc87fb114bc" x="374.4576" y="174.528" style="stroke: #000000; stroke-width: 0.8"/>
      </g>
     </g>
     <g id="text_28">
      <!-- 0.5 -->
      <g transform="translate(381.4576 177.928781) scale(0.1 -0.1)">
       <use xlink:href="#Calibri-30"/>
       <use xlink:href="#Calibri-2e" x="50.683594"/>
       <use xlink:href="#Calibri-35" x="75.927734"/>
      </g>
     </g>
    </g>
    <g id="ytick_15">
     <g id="line2d_26">
      <g>
       <use xlink:href="#mc87fb114bc" x="374.4576" y="147.9168" style="stroke: #000000; stroke-width: 0.8"/>
      </g>
     </g>
     <g id="text_29">
      <!-- 0.6 -->
      <g transform="translate(381.4576 151.317581) scale(0.1 -0.1)">
       <use xlink:href="#Calibri-30"/>
       <use xlink:href="#Calibri-2e" x="50.683594"/>
       <use xlink:href="#Calibri-36" x="75.927734"/>
      </g>
     </g>
    </g>
    <g id="ytick_16">
     <g id="line2d_27">
      <g>
       <use xlink:href="#mc87fb114bc" x="374.4576" y="121.3056" style="stroke: #000000; stroke-width: 0.8"/>
      </g>
     </g>
     <g id="text_30">
      <!-- 0.7 -->
      <g transform="translate(381.4576 124.706381) scale(0.1 -0.1)">
       <use xlink:href="#Calibri-30"/>
       <use xlink:href="#Calibri-2e" x="50.683594"/>
       <use xlink:href="#Calibri-37" x="75.927734"/>
      </g>
     </g>
    </g>
    <g id="ytick_17">
     <g id="line2d_28">
      <g>
       <use xlink:href="#mc87fb114bc" x="374.4576" y="94.6944" style="stroke: #000000; stroke-width: 0.8"/>
      </g>
     </g>
     <g id="text_31">
      <!-- 0.8 -->
      <g transform="translate(381.4576 98.095181) scale(0.1 -0.1)">
       <use xlink:href="#Calibri-30"/>
       <use xlink:href="#Calibri-2e" x="50.683594"/>
       <use xlink:href="#Calibri-38" x="75.927734"/>
      </g>
     </g>
    </g>
    <g id="ytick_18">
     <g id="line2d_29">
      <g>
       <use xlink:href="#mc87fb114bc" x="374.4576" y="68.0832" style="stroke: #000000; stroke-width: 0.8"/>
      </g>
     </g>
     <g id="text_32">
      <!-- 0.9 -->
      <g transform="translate(381.4576 71.483981) scale(0.1 -0.1)">
       <use xlink:href="#Calibri-30"/>
       <use xlink:href="#Calibri-2e" x="50.683594"/>
       <use xlink:href="#Calibri-39" x="75.927734"/>
      </g>
     </g>
    </g>
    <g id="ytick_19">
     <g id="line2d_30">
      <g>
       <use xlink:href="#mc87fb114bc" x="374.4576" y="41.472" style="stroke: #000000; stroke-width: 0.8"/>
      </g>
     </g>
     <g id="text_33">
      <!-- 1.0 -->
      <g transform="translate(381.4576 44.872781) scale(0.1 -0.1)">
       <use xlink:href="#Calibri-31"/>
       <use xlink:href="#Calibri-2e" x="50.683594"/>
       <use xlink:href="#Calibri-30" x="75.927734"/>
      </g>
     </g>
    </g>
   </g>
   <g id="LineCollection_1"/>
   <g id="patch_8">
    <path d="M 361.152 307.584 
L 367.8048 307.584 
L 374.4576 307.584 
L 374.4576 41.472 
L 367.8048 41.472 
L 361.152 41.472 
L 361.152 307.584 
z
" style="fill: none; stroke: #000000; stroke-width: 0.8; stroke-linejoin: miter; stroke-linecap: square"/>
   </g>
   <g id="text_34">
    <!-- $\mathit{E}_{\mathrm{dis}}$/$\mathit{E}_{\mathrm{i}}$ -->
    <g transform="translate(353.2548 35.472) scale(0.1 -0.1)">
     <defs>
      <path id="DejaVuSans-Oblique-45" d="M 1081 4666 
L 4031 4666 
L 3928 4134 
L 1606 4134 
L 1338 2753 
L 3566 2753 
L 3463 2222 
L 1234 2222 
L 909 531 
L 3284 531 
L 3181 0 
L 172 0 
L 1081 4666 
z
" transform="scale(0.015625)"/>
      <path id="DejaVuSans-64" d="M 2906 2969 
L 2906 4863 
L 3481 4863 
L 3481 0 
L 2906 0 
L 2906 525 
Q 2725 213 2448 61 
Q 2172 -91 1784 -91 
Q 1150 -91 751 415 
Q 353 922 353 1747 
Q 353 2572 751 3078 
Q 1150 3584 1784 3584 
Q 2172 3584 2448 3432 
Q 2725 3281 2906 2969 
z
M 947 1747 
Q 947 1113 1208 752 
Q 1469 391 1925 391 
Q 2381 391 2643 752 
Q 2906 1113 2906 1747 
Q 2906 2381 2643 2742 
Q 2381 3103 1925 3103 
Q 1469 3103 1208 2742 
Q 947 2381 947 1747 
z
" transform="scale(0.015625)"/>
      <path id="DejaVuSans-69" d="M 603 3500 
L 1178 3500 
L 1178 0 
L 603 0 
L 603 3500 
z
M 603 4863 
L 1178 4863 
L 1178 4134 
L 603 4134 
L 603 4863 
z
" transform="scale(0.015625)"/>
      <path id="DejaVuSans-73" d="M 2834 3397 
L 2834 2853 
Q 2591 2978 2328 3040 
Q 2066 3103 1784 3103 
Q 1356 3103 1142 2972 
Q 928 2841 928 2578 
Q 928 2378 1081 2264 
Q 1234 2150 1697 2047 
L 1894 2003 
Q 2506 1872 2764 1633 
Q 3022 1394 3022 966 
Q 3022 478 2636 193 
Q 2250 -91 1575 -91 
Q 1294 -91 989 -36 
Q 684 19 347 128 
L 347 722 
Q 666 556 975 473 
Q 1284 391 1588 391 
Q 1994 391 2212 530 
Q 2431 669 2431 922 
Q 2431 1156 2273 1281 
Q 2116 1406 1581 1522 
L 1381 1569 
Q 847 1681 609 1914 
Q 372 2147 372 2553 
Q 372 3047 722 3315 
Q 1072 3584 1716 3584 
Q 2034 3584 2315 3537 
Q 2597 3491 2834 3397 
z
" transform="scale(0.015625)"/>
     </defs>
     <use xlink:href="#DejaVuSans-Oblique-45" transform="translate(0 0.09375)"/>
     <use xlink:href="#DejaVuSans-64" transform="translate(63.183594 -16.3125) scale(0.7)"/>
     <use xlink:href="#DejaVuSans-69" transform="translate(107.617188 -16.3125) scale(0.7)"/>
     <use xlink:href="#DejaVuSans-73" transform="translate(127.06543 -16.3125) scale(0.7)"/>
     <use xlink:href="#Calibri-2f" transform="translate(166.269531 0.09375)"/>
     <use xlink:href="#DejaVuSans-Oblique-45" transform="translate(204.892578 0.09375)"/>
     <use xlink:href="#DejaVuSans-69" transform="translate(268.076172 -16.3125) scale(0.7)"/>
    </g>
   </g>
  </g>
 </g>
 <defs>
  <clipPath id="pf2a6f8e180">
   <rect x="57.6" y="41.472" width="285.696" height="266.112"/>
  </clipPath>
  <clipPath id="p520b910965">
   <rect x="361.152" y="41.472" width="13.3056" height="266.112"/>
  </clipPath>
 </defs>
</svg>
