<?xml version="1.0" encoding="utf-8" standalone="no"?>
<!DOCTYPE svg PUBLIC "-//W3C//DTD SVG 1.1//EN"
  "http://www.w3.org/Graphics/SVG/1.1/DTD/svg11.dtd">
<svg xmlns:xlink="http://www.w3.org/1999/xlink" width="460.8pt" height="345.6pt" viewBox="0 0 460.8 345.6" xmlns="http://www.w3.org/2000/svg" version="1.1">
 <metadata>
  <rdf:RDF xmlns:dc="http://purl.org/dc/elements/1.1/" xmlns:cc="http://creativecommons.org/ns#" xmlns:rdf="http://www.w3.org/1999/02/22-rdf-syntax-ns#">
   <cc:Work>
    <dc:type rdf:resource="http://purl.org/dc/dcmitype/StillImage"/>
    <dc:date>2024-01-22T08:51:32.613780</dc:date>
    <dc:format>image/svg+xml</dc:format>
    <dc:creator>
     <cc:Agent>
      <dc:title>Matplotlib v3.7.1, https://matplotlib.org/</dc:title>
     </cc:Agent>
    </dc:creator>
   </cc:Work>
  </rdf:RDF>
 </metadata>
 <defs>
  <style type="text/css">*{stroke-linejoin: round; stroke-linecap: butt}</style>
 </defs>
 <g id="figure_1">
  <g id="patch_1">
   <path d="M 0 345.6 
L 460.8 345.6 
L 460.8 0 
L 0 0 
z
" style="fill: #ffffff"/>
  </g>
  <g id="axes_1">
   <g id="patch_2">
    <path d="M 57.6 307.584 
L 343.296 307.584 
L 343.296 41.472 
L 57.6 41.472 
z
" style="fill: #ffffff"/>
   </g>
   <g id="PathCollection_1">
    <path clip-path="url(#p247bb594ee)" style="fill: #0000b6"/>
   </g>
   <g id="PathCollection_2">
    <path clip-path="url(#p247bb594ee)" style="fill: #0018ff"/>
   </g>
   <g id="PathCollection_3">
    <path clip-path="url(#p247bb594ee)" style="fill: #0080ff"/>
   </g>
   <g id="PathCollection_4">
    <path d="M 57.62857 79.855305 
L 57.934982 79.67733 
L 58.59568 79.27751 
L 59.470395 78.756871 
L 60.609387 78.0624 
L 60.669026 78.02568 
L 60.684847 78.015738 
L 61.84957 77.298023 
L 62.834462 76.676669 
L 63.39451 76.328912 
L 64.142241 75.855013 
L 64.215224 75.809657 
L 64.371407 75.71028 
L 65.513987 74.97731 
L 65.887428 74.736 
L 67.28396 73.822155 
L 67.37566 73.76172 
L 68.906096 72.744652 
L 69.662516 72.230469 
L 69.939011 72.045979 
L 70.87435 71.4096 
L 71.230005 71.165155 
L 71.560245 70.933103 
L 72.63412 70.189124 
L 73.168904 69.811525 
L 73.53962 69.554451 
L 74.2406 69.05748 
L 74.925339 68.56783 
L 75.598735 68.0832 
L 76.343696 67.542583 
L 76.616171 67.34111 
L 76.932519 67.10892 
L 78.113659 66.234389 
L 78.775105 65.73411 
L 79.100119 65.492457 
L 80.071805 64.7568 
L 80.377215 64.523133 
L 80.710575 64.262712 
L 81.76053 63.452723 
L 82.342024 62.996144 
L 82.625056 62.777572 
L 83.097956 62.40468 
L 83.901794 61.765087 
L 84.320095 61.4304 
L 85.510614 60.464208 
L 85.520526 60.45612 
L 87.071468 59.178888 
L 88.055787 58.351828 
L 88.137075 58.284594 
L 88.351774 58.104 
L 89.26918 57.323891 
L 90.454898 56.29558 
L 90.757813 56.03577 
L 91.083411 55.75188 
L 91.269612 55.590206 
L 92.188531 54.7776 
L 92.432772 54.559515 
L 93.275743 53.80332 
L 93.61191 53.498861 
L 93.851016 53.278156 
L 94.442248 52.7403 
L 95.63635 51.636805 
L 95.756179 51.527191 
L 95.837686 51.4512 
L 97.03152 50.325635 
L 97.553453 49.825943 
L 97.882179 49.515641 
L 98.31532 49.09908 
L 99.053427 48.382184 
L 99.133449 48.305144 
L 99.31739 48.1248 
L 100.15247 47.301979 
L 100.303393 47.15052 
L 100.669423 46.784925 
L 101.111513 46.336833 
L 102.076757 45.36718 
L 102.632837 44.7984 
L 103.223898 44.186859 
L 103.33993 44.063322 
L 103.33993 41.472 
L 101.816218 41.472 
L 100.292506 41.472 
L 98.768794 41.472 
L 97.245082 41.472 
L 95.72137 41.472 
L 94.197658 41.472 
L 92.673946 41.472 
L 91.150234 41.472 
L 89.626522 41.472 
L 88.10281 41.472 
L 86.579098 41.472 
L 85.055386 41.472 
L 83.531674 41.472 
L 82.007962 41.472 
L 80.48425 41.472 
L 78.960538 41.472 
L 77.436826 41.472 
L 75.913114 41.472 
L 74.389402 41.472 
L 72.86569 41.472 
L 71.341978 41.472 
L 69.818266 41.472 
L 68.294554 41.472 
L 66.770842 41.472 
L 65.24713 41.472 
L 63.723418 41.472 
L 62.199706 41.472 
L 60.675994 41.472 
L 59.152282 41.472 
L 57.62857 41.472 
L 57.62857 44.7984 
L 57.62857 48.1248 
L 57.62857 51.4512 
L 57.62857 54.7776 
L 57.62857 58.104 
L 57.62857 61.4304 
L 57.62857 64.7568 
L 57.62857 68.0832 
L 57.62857 71.4096 
L 57.62857 74.736 
L 57.62857 78.0624 
" clip-path="url(#p247bb594ee)" style="fill: #00e4f8"/>
   </g>
   <g id="PathCollection_5">
    <path d="M 103.33993 44.063322 
L 103.223898 44.186859 
L 102.632837 44.7984 
L 102.076757 45.36718 
L 101.111513 46.336833 
L 100.669423 46.784925 
L 100.303393 47.15052 
L 100.15247 47.301979 
L 99.31739 48.1248 
L 99.133449 48.305144 
L 99.053427 48.382184 
L 98.31532 49.09908 
L 97.882179 49.515641 
L 97.553453 49.825943 
L 97.03152 50.325635 
L 95.837686 51.4512 
L 95.756179 51.527191 
L 95.63635 51.636805 
L 94.442248 52.7403 
L 93.851016 53.278156 
L 93.61191 53.498861 
L 93.275743 53.80332 
L 92.432772 54.559515 
L 92.188531 54.7776 
L 91.269612 55.590206 
L 91.083411 55.75188 
L 90.757813 56.03577 
L 90.454898 56.29558 
L 89.26918 57.323891 
L 88.351774 58.104 
L 88.137075 58.284594 
L 88.055787 58.351828 
L 87.071468 59.178888 
L 85.520526 60.45612 
L 85.510614 60.464208 
L 84.320095 61.4304 
L 83.901794 61.765087 
L 83.097956 62.40468 
L 82.625056 62.777572 
L 82.342024 62.996144 
L 81.76053 63.452723 
L 80.710575 64.262712 
L 80.377215 64.523133 
L 80.071805 64.7568 
L 79.100119 65.492457 
L 78.775105 65.73411 
L 78.113659 66.234389 
L 76.932519 67.10892 
L 76.616171 67.34111 
L 76.343696 67.542583 
L 75.598735 68.0832 
L 74.925339 68.56783 
L 74.2406 69.05748 
L 73.53962 69.554451 
L 73.168904 69.811525 
L 72.63412 70.189124 
L 71.560245 70.933103 
L 71.230005 71.165155 
L 70.87435 71.4096 
L 69.939011 72.045979 
L 69.662516 72.230469 
L 68.906096 72.744652 
L 67.37566 73.76172 
L 67.28396 73.822155 
L 65.887428 74.736 
L 65.513987 74.97731 
L 64.371407 75.71028 
L 64.215224 75.809657 
L 64.142241 75.855013 
L 63.39451 76.328912 
L 62.834462 76.676669 
L 61.84957 77.298023 
L 60.684847 78.015738 
L 60.669026 78.02568 
L 60.609387 78.0624 
L 59.470395 78.756871 
L 58.59568 79.27751 
L 57.934982 79.67733 
L 57.62857 79.855305 
L 57.62857 81.3888 
L 57.62857 84.7152 
L 57.62857 88.0416 
L 57.62857 91.368 
L 57.62857 94.6944 
L 57.62857 98.0208 
L 57.62857 101.3472 
L 57.62857 104.6736 
L 57.62857 108 
L 57.62857 111.3264 
L 57.62857 114.6528 
L 57.62857 117.9792 
L 57.62857 121.3056 
L 57.62857 124.632 
L 57.62857 125.556085 
L 57.795343 125.510969 
L 58.896493 125.190409 
L 59.349817 125.063238 
L 60.667444 124.67706 
L 60.683676 124.67249 
L 60.821756 124.632 
L 62.035386 124.273275 
L 62.418068 124.155295 
L 63.568031 123.813044 
L 63.898192 123.71086 
L 64.713917 123.467949 
L 65.957245 123.081754 
L 66.448739 122.934374 
L 67.133458 122.720851 
L 67.384604 122.645498 
L 68.552801 122.27988 
L 69.160355 122.088514 
L 69.599443 121.950945 
L 71.195859 121.43773 
L 71.412166 121.369069 
L 71.447656 121.357864 
L 71.608967 121.3056 
L 73.653137 120.639822 
L 74.585662 120.33132 
L 75.350205 120.07672 
L 75.52674 120.015561 
L 76.253398 119.772651 
L 76.683628 119.623498 
L 77.989258 119.185209 
L 78.784403 118.907509 
L 79.115502 118.795931 
L 80.299719 118.382047 
L 80.619246 118.273909 
L 81.456224 117.9792 
L 81.973126 117.795601 
L 82.048025 117.768049 
L 83.240745 117.344076 
L 83.941084 117.085421 
L 84.825686 116.768583 
L 85.319867 116.585263 
L 85.853037 116.394144 
L 87.603865 115.74204 
L 87.67356 115.716865 
L 87.913552 115.62708 
L 89.008058 115.212055 
L 89.880144 114.882142 
L 89.999485 114.837252 
L 90.477827 114.6528 
L 91.711284 114.176707 
L 92.014697 114.056664 
L 92.976025 113.67852 
L 93.632274 113.418518 
L 93.814941 113.343488 
L 94.526647 113.06032 
L 95.020037 112.857473 
L 96.205614 112.383548 
L 97.116097 112.006204 
L 97.355807 111.909971 
L 98.762531 111.3264 
L 98.767786 111.3242 
L 98.770301 111.323109 
L 100.17904 110.728388 
L 100.426423 110.620595 
L 101.319947 110.242996 
L 102.561359 109.699689 
L 102.996132 109.514431 
L 103.33993 109.359359 
L 103.33993 108 
L 103.33993 104.6736 
L 103.33993 101.3472 
L 103.33993 98.0208 
L 103.33993 94.6944 
L 103.33993 91.368 
L 103.33993 88.0416 
L 103.33993 84.7152 
L 103.33993 81.3888 
L 103.33993 78.0624 
L 103.33993 74.736 
L 103.33993 71.4096 
L 103.33993 68.0832 
L 103.33993 64.7568 
L 103.33993 61.4304 
L 103.33993 58.104 
L 103.33993 54.7776 
L 103.33993 51.4512 
L 103.33993 48.1248 
L 103.33993 44.7984 
" clip-path="url(#p247bb594ee)" style="fill: #53ffa4"/>
   </g>
   <g id="PathCollection_6">
    <path d="M 103.33993 109.359359 
L 102.996132 109.514431 
L 102.561359 109.699689 
L 101.319947 110.242996 
L 100.426423 110.620595 
L 100.17904 110.728388 
L 98.770301 111.323109 
L 98.767786 111.3242 
L 98.762531 111.3264 
L 97.355807 111.909971 
L 97.116097 112.006204 
L 96.205614 112.383548 
L 95.020037 112.857473 
L 94.526647 113.06032 
L 93.814941 113.343488 
L 93.632274 113.418518 
L 92.976025 113.67852 
L 92.014697 114.056664 
L 91.711284 114.176707 
L 90.477827 114.6528 
L 89.999485 114.837252 
L 89.880144 114.882142 
L 89.008058 115.212055 
L 87.913552 115.62708 
L 87.67356 115.716865 
L 87.603865 115.74204 
L 85.853037 116.394144 
L 85.319867 116.585263 
L 84.825686 116.768583 
L 83.941084 117.085421 
L 83.240745 117.344076 
L 82.048025 117.768049 
L 81.973126 117.795601 
L 81.456224 117.9792 
L 80.619246 118.273909 
L 80.299719 118.382047 
L 79.115502 118.795931 
L 78.784403 118.907509 
L 77.989258 119.185209 
L 76.683628 119.623498 
L 76.253398 119.772651 
L 75.52674 120.015561 
L 75.350205 120.07672 
L 74.585662 120.33132 
L 73.653137 120.639822 
L 71.608967 121.3056 
L 71.447656 121.357864 
L 71.412166 121.369069 
L 71.195859 121.43773 
L 69.599443 121.950945 
L 69.160355 122.088514 
L 68.552801 122.27988 
L 67.384604 122.645498 
L 67.133458 122.720851 
L 66.448739 122.934374 
L 65.957245 123.081754 
L 64.713917 123.467949 
L 63.898192 123.71086 
L 63.568031 123.813044 
L 62.418068 124.155295 
L 62.035386 124.273275 
L 60.821756 124.632 
L 60.683676 124.67249 
L 60.667444 124.67706 
L 59.349817 125.063238 
L 58.896493 125.190409 
L 57.795343 125.510969 
L 57.62857 125.556085 
L 57.62857 127.9584 
L 57.62857 131.2848 
L 57.62857 134.6112 
L 57.62857 137.9376 
L 57.62857 141.264 
L 57.62857 144.5904 
L 57.62857 147.9168 
L 57.62857 151.2432 
L 57.62857 154.5696 
L 57.62857 157.896 
L 57.62857 161.2224 
L 57.62857 164.5488 
L 57.62857 165.305636 
L 57.770426 165.296444 
L 58.850132 165.20842 
L 59.435364 165.166794 
L 60.576463 165.073369 
L 60.772871 165.059386 
L 62.012236 164.958063 
L 62.375322 164.932186 
L 63.670857 164.825816 
L 63.774574 164.818417 
L 65.176268 164.703498 
L 65.313502 164.693698 
L 66.766042 164.574094 
L 66.775512 164.573417 
L 67.074909 164.5488 
L 68.250026 164.451592 
L 68.343081 164.442861 
L 69.775581 164.323835 
L 69.8625 164.315665 
L 71.184926 164.205942 
L 71.513189 164.175031 
L 72.774821 164.069882 
L 72.959871 164.052423 
L 74.117882 163.956049 
L 74.685496 163.902399 
L 75.773214 163.811465 
L 76.058133 163.784482 
L 77.048833 163.701778 
L 77.860075 163.624809 
L 78.770732 163.548438 
L 79.157317 163.511687 
L 79.977713 163.442986 
L 81.037 163.342096 
L 81.767347 163.280652 
L 82.257451 163.233879 
L 82.904455 163.179526 
L 84.216351 163.054087 
L 84.763028 163.007947 
L 85.358569 162.950887 
L 85.828987 162.911242 
L 87.398211 162.760602 
L 87.757745 162.730158 
L 88.460704 162.662537 
L 88.751235 162.637972 
L 90.582666 162.461452 
L 90.751465 162.447111 
L 91.563891 162.368642 
L 91.671122 162.359545 
L 93.353986 162.19668 
L 93.712774 162.161777 
L 93.850352 162.147729 
L 94.801328 162.054362 
L 96.462 161.892126 
L 96.974875 161.842332 
L 98.225759 161.713447 
L 99.205523 161.61732 
L 99.507741 161.587853 
L 101.658244 161.365251 
L 101.943145 161.337176 
L 103.048476 161.2224 
L 103.326656 161.193422 
L 103.33993 161.191859 
L 103.33993 157.896 
L 103.33993 154.5696 
L 103.33993 151.2432 
L 103.33993 147.9168 
L 103.33993 144.5904 
L 103.33993 141.264 
L 103.33993 137.9376 
L 103.33993 134.6112 
L 103.33993 131.2848 
L 103.33993 127.9584 
L 103.33993 124.632 
L 103.33993 121.3056 
L 103.33993 117.9792 
L 103.33993 114.6528 
L 103.33993 111.3264 
" clip-path="url(#p247bb594ee)" style="fill: #a4ff53"/>
   </g>
   <g id="PathCollection_7">
    <path d="M 103.33993 161.191859 
L 103.326656 161.193422 
L 103.048476 161.2224 
L 101.943145 161.337176 
L 101.658244 161.365251 
L 99.507741 161.587853 
L 99.205523 161.61732 
L 98.225759 161.713447 
L 96.974875 161.842332 
L 96.462 161.892126 
L 94.801328 162.054362 
L 93.850352 162.147729 
L 93.712774 162.161777 
L 93.353986 162.19668 
L 91.671122 162.359545 
L 91.563891 162.368642 
L 90.751465 162.447111 
L 90.582666 162.461452 
L 88.751235 162.637972 
L 88.460704 162.662537 
L 87.757745 162.730158 
L 87.398211 162.760602 
L 85.828987 162.911242 
L 85.358569 162.950887 
L 84.763028 163.007947 
L 84.216351 163.054087 
L 82.904455 163.179526 
L 82.257451 163.233879 
L 81.767347 163.280652 
L 81.037 163.342096 
L 79.977713 163.442986 
L 79.157317 163.511687 
L 78.770732 163.548438 
L 77.860075 163.624809 
L 77.048833 163.701778 
L 76.058133 163.784482 
L 75.773214 163.811465 
L 74.685496 163.902399 
L 74.117882 163.956049 
L 72.959871 164.052423 
L 72.774821 164.069882 
L 71.513189 164.175031 
L 71.184926 164.205942 
L 69.8625 164.315665 
L 69.775581 164.323835 
L 68.343081 164.442861 
L 68.250026 164.451592 
L 67.074909 164.5488 
L 66.775512 164.573417 
L 66.766042 164.574094 
L 65.313502 164.693698 
L 65.176268 164.703498 
L 63.774574 164.818417 
L 63.670857 164.825816 
L 62.375322 164.932186 
L 62.012236 164.958063 
L 60.772871 165.059386 
L 60.576463 165.073369 
L 59.435364 165.166794 
L 58.850132 165.20842 
L 57.770426 165.296444 
L 57.62857 165.305636 
L 57.62857 167.8752 
L 57.62857 171.2016 
L 57.62857 174.528 
L 57.62857 177.8544 
L 57.62857 181.1808 
L 57.62857 184.5072 
L 57.62857 187.8336 
L 57.62857 191.16 
L 57.62857 194.4864 
L 57.62857 197.8128 
L 57.62857 201.1392 
L 57.62857 201.583058 
L 57.83967 201.600052 
L 58.582175 201.654728 
L 59.829796 201.751853 
L 60.812977 201.825019 
L 61.390866 201.870606 
L 63.163387 202.010624 
L 64.113689 202.085778 
L 64.193635 202.091838 
L 64.463601 202.11348 
L 66.258797 202.25704 
L 66.353407 202.265534 
L 67.175707 202.331779 
L 67.323216 202.345083 
L 69.196262 202.497091 
L 69.449135 202.52012 
L 70.176118 202.579558 
L 70.491252 202.608389 
L 72.130842 202.743439 
L 72.546213 202.781814 
L 73.175262 202.834016 
L 73.662754 202.879264 
L 75.062444 202.996289 
L 75.644686 203.050865 
L 76.173096 203.095379 
L 76.837849 203.157981 
L 77.99097 203.255853 
L 78.744604 203.327534 
L 79.169575 203.363878 
L 80.016668 203.444828 
L 80.916319 203.522354 
L 81.846019 203.612092 
L 82.164654 203.639761 
L 83.19935 203.740107 
L 83.838384 203.796024 
L 84.948986 203.904825 
L 85.158284 203.923281 
L 86.386039 204.044135 
L 86.757055 204.077104 
L 88.05356 204.206033 
L 88.150413 204.214707 
L 89.576888 204.357245 
L 89.672214 204.365849 
L 90.660274 204.4656 
L 91.141064 204.513929 
L 91.159798 204.516007 
L 92.58492 204.65995 
L 92.772574 204.680915 
L 94.130511 204.819492 
L 94.267734 204.834936 
L 95.494562 204.960741 
L 95.973028 205.014993 
L 97.118325 205.133665 
L 97.377455 205.163267 
L 98.400424 205.269783 
L 99.178167 205.359299 
L 100.104445 205.456765 
L 100.489029 205.501363 
L 101.302373 205.587369 
L 102.388179 205.714244 
L 103.088808 205.789121 
L 103.33993 205.817354 
L 103.33993 204.4656 
L 103.33993 201.1392 
L 103.33993 197.8128 
L 103.33993 194.4864 
L 103.33993 191.16 
L 103.33993 187.8336 
L 103.33993 184.5072 
L 103.33993 181.1808 
L 103.33993 177.8544 
L 103.33993 174.528 
L 103.33993 171.2016 
L 103.33993 167.8752 
L 103.33993 164.5488 
L 103.33993 161.2224 
" clip-path="url(#p247bb594ee)" style="fill: #f8f500"/>
   </g>
   <g id="PathCollection_8">
    <path d="M 103.33993 205.817354 
L 103.088808 205.789121 
L 102.388179 205.714244 
L 101.302373 205.587369 
L 100.489029 205.501363 
L 100.104445 205.456765 
L 99.178167 205.359299 
L 98.400424 205.269783 
L 97.377455 205.163267 
L 97.118325 205.133665 
L 95.973028 205.014993 
L 95.494562 204.960741 
L 94.267734 204.834936 
L 94.130511 204.819492 
L 92.772574 204.680915 
L 92.58492 204.65995 
L 91.159798 204.516007 
L 91.141064 204.513929 
L 90.660274 204.4656 
L 89.672214 204.365849 
L 89.576888 204.357245 
L 88.150413 204.214707 
L 88.05356 204.206033 
L 86.757055 204.077104 
L 86.386039 204.044135 
L 85.158284 203.923281 
L 84.948986 203.904825 
L 83.838384 203.796024 
L 83.19935 203.740107 
L 82.164654 203.639761 
L 81.846019 203.612092 
L 80.916319 203.522354 
L 80.016668 203.444828 
L 79.169575 203.363878 
L 78.744604 203.327534 
L 77.99097 203.255853 
L 76.837849 203.157981 
L 76.173096 203.095379 
L 75.644686 203.050865 
L 75.062444 202.996289 
L 73.662754 202.879264 
L 73.175262 202.834016 
L 72.546213 202.781814 
L 72.130842 202.743439 
L 70.491252 202.608389 
L 70.176118 202.579558 
L 69.449135 202.52012 
L 69.196262 202.497091 
L 67.323216 202.345083 
L 67.175707 202.331779 
L 66.353407 202.265534 
L 66.258797 202.25704 
L 64.463601 202.11348 
L 64.193635 202.091838 
L 64.113689 202.085778 
L 63.163387 202.010624 
L 61.390866 201.870606 
L 60.812977 201.825019 
L 59.829796 201.751853 
L 58.582175 201.654728 
L 57.83967 201.600052 
L 57.62857 201.583058 
L 57.62857 204.4656 
L 57.62857 207.792 
L 57.62857 211.1184 
L 57.62857 214.4448 
L 57.62857 217.7712 
L 57.62857 221.0976 
L 57.62857 224.424 
L 57.62857 227.7504 
L 57.62857 231.0768 
L 57.62857 234.4032 
L 57.62857 236.215183 
L 57.905734 236.268823 
L 58.541882 236.397042 
L 59.662687 236.61534 
L 60.496703 236.78466 
L 60.842441 236.85235 
L 61.896175 237.066965 
L 62.453035 237.17656 
L 63.665691 237.425355 
L 63.776967 237.44737 
L 65.148131 237.7296 
L 65.2386 237.748222 
L 65.257515 237.752273 
L 66.709422 238.05331 
L 66.837493 238.080881 
L 68.020887 238.327039 
L 68.628453 238.458532 
L 69.639752 238.670445 
L 70.012153 238.751474 
L 70.798197 238.916723 
L 72.006877 239.181135 
L 72.56774 239.299926 
L 73.18959 239.436699 
L 73.570372 239.517615 
L 75.393071 239.920701 
L 75.493308 239.942163 
L 76.120928 240.08172 
L 76.285705 240.118166 
L 76.437657 240.152487 
L 78.039975 240.510593 
L 80.435562 241.056 
L 80.468905 241.063589 
L 80.474436 241.064874 
L 80.500855 241.071016 
L 80.526822 241.077055 
L 82.902114 241.625289 
L 84.603548 242.025259 
L 84.6249 242.03028 
L 85.464052 242.228547 
L 85.6087 242.263934 
L 87.359008 242.679787 
L 87.800409 242.788616 
L 88.378981 242.926853 
L 89.034024 243.088924 
L 90.101527 243.34542 
L 90.995793 243.568431 
L 91.291133 243.6398 
L 92.46879 243.934527 
L 92.837999 244.024256 
L 94.194641 244.366499 
L 94.200407 244.367909 
L 94.257645 244.3824 
L 95.569411 244.714139 
L 95.914795 244.804666 
L 97.107285 245.108649 
L 97.39739 245.18513 
L 98.295807 245.414972 
L 99.37258 245.700519 
L 100.011161 245.865211 
L 100.603848 246.023312 
L 101.015735 246.129925 
L 102.841073 246.61975 
L 102.911913 246.638237 
L 103.33993 246.753049 
L 103.33993 244.3824 
L 103.33993 241.056 
L 103.33993 237.7296 
L 103.33993 234.4032 
L 103.33993 231.0768 
L 103.33993 227.7504 
L 103.33993 224.424 
L 103.33993 221.0976 
L 103.33993 217.7712 
L 103.33993 214.4448 
L 103.33993 211.1184 
L 103.33993 207.792 
" clip-path="url(#p247bb594ee)" style="fill: #ff9400"/>
   </g>
   <g id="PathCollection_9">
    <path d="M 103.33993 246.753049 
L 102.911913 246.638237 
L 102.841073 246.61975 
L 101.015735 246.129925 
L 100.603848 246.023312 
L 100.011161 245.865211 
L 99.37258 245.700519 
L 98.295807 245.414972 
L 97.39739 245.18513 
L 97.107285 245.108649 
L 95.914795 244.804666 
L 95.569411 244.714139 
L 94.257645 244.3824 
L 94.200407 244.367909 
L 94.194641 244.366499 
L 92.837999 244.024256 
L 92.46879 243.934527 
L 91.291133 243.6398 
L 90.995793 243.568431 
L 90.101527 243.34542 
L 89.034024 243.088924 
L 88.378981 242.926853 
L 87.800409 242.788616 
L 87.359008 242.679787 
L 85.6087 242.263934 
L 85.464052 242.228547 
L 84.6249 242.03028 
L 84.603548 242.025259 
L 82.902114 241.625289 
L 80.526822 241.077055 
L 80.500855 241.071016 
L 80.474436 241.064874 
L 80.468905 241.063589 
L 80.435562 241.056 
L 78.039975 240.510593 
L 76.437657 240.152487 
L 76.285705 240.118166 
L 76.120928 240.08172 
L 75.493308 239.942163 
L 75.393071 239.920701 
L 73.570372 239.517615 
L 73.18959 239.436699 
L 72.56774 239.299926 
L 72.006877 239.181135 
L 70.798197 238.916723 
L 70.012153 238.751474 
L 69.639752 238.670445 
L 68.628453 238.458532 
L 68.020887 238.327039 
L 66.837493 238.080881 
L 66.709422 238.05331 
L 65.257515 237.752273 
L 65.2386 237.748222 
L 65.148131 237.7296 
L 63.776967 237.44737 
L 63.665691 237.425355 
L 62.453035 237.17656 
L 61.896175 237.066965 
L 60.842441 236.85235 
L 60.496703 236.78466 
L 59.662687 236.61534 
L 58.541882 236.397042 
L 57.905734 236.268823 
L 57.62857 236.215183 
L 57.62857 237.7296 
L 57.62857 241.056 
L 57.62857 244.3824 
L 57.62857 247.7088 
L 57.62857 251.0352 
L 57.62857 254.3616 
L 57.62857 257.688 
L 57.62857 261.0144 
L 57.62857 264.3408 
L 57.62857 267.6672 
L 57.62857 270.9936 
L 57.62857 271.043489 
L 57.638607 271.046499 
L 58.947591 271.440459 
L 59.423907 271.586582 
L 60.501588 271.912794 
L 60.87206 272.026955 
L 61.622046 272.254682 
L 62.968267 272.671439 
L 63.381143 272.797538 
L 64.108616 273.023768 
L 64.29151 273.079803 
L 65.142612 273.34572 
L 66.020337 273.620815 
L 66.412144 273.743832 
L 68.22751 274.32 
L 68.277118 274.335766 
L 68.331199 274.353137 
L 70.118197 274.925232 
L 70.52654 275.057372 
L 71.257266 275.29428 
L 72.268733 275.62321 
L 72.496103 275.698513 
L 73.192128 275.925922 
L 73.674778 276.086312 
L 74.917224 276.494117 
L 75.747131 276.771598 
L 76.059547 276.874629 
L 77.269205 277.280468 
L 77.560271 277.376907 
L 78.35855 277.6464 
L 78.924154 277.838159 
L 79.002013 277.864993 
L 80.197787 278.271774 
L 80.878747 278.507622 
L 81.785659 278.818035 
L 82.261698 278.983705 
L 82.829735 279.178796 
L 84.501442 279.763491 
L 84.644325 279.812871 
L 85.172529 279.99852 
L 85.713203 280.189802 
L 86.957651 280.630488 
L 87.140233 280.695285 
L 87.91407 280.9728 
L 88.907198 281.328548 
L 89.139959 281.412782 
L 90.612954 281.94708 
L 90.690956 281.975445 
L 90.710718 281.982755 
L 91.532746 282.283188 
L 91.795098 282.380598 
L 93.299672 282.933184 
L 93.987226 283.190133 
L 94.380541 283.335324 
L 95.466436 283.742658 
L 95.902243 283.904338 
L 96.947956 284.2992 
L 97.225151 284.404243 
L 97.268152 284.420791 
L 98.498701 284.888836 
L 99.155234 285.142833 
L 100.06626 285.491615 
L 100.554798 285.681596 
L 101.088962 285.886865 
L 102.8608 286.579616 
L 102.904073 286.596356 
L 103.33993 286.769309 
L 103.33993 284.2992 
L 103.33993 280.9728 
L 103.33993 277.6464 
L 103.33993 274.32 
L 103.33993 270.9936 
L 103.33993 267.6672 
L 103.33993 264.3408 
L 103.33993 261.0144 
L 103.33993 257.688 
L 103.33993 254.3616 
L 103.33993 251.0352 
L 103.33993 247.7088 
" clip-path="url(#p247bb594ee)" style="fill: #ff3800"/>
   </g>
   <g id="PathCollection_10">
    <path d="M 103.33993 286.769309 
L 102.904073 286.596356 
L 102.8608 286.579616 
L 101.088962 285.886865 
L 100.554798 285.681596 
L 100.06626 285.491615 
L 99.155234 285.142833 
L 98.498701 284.888836 
L 97.268152 284.420791 
L 97.225151 284.404243 
L 96.947956 284.2992 
L 95.902243 283.904338 
L 95.466436 283.742658 
L 94.380541 283.335324 
L 93.987226 283.190133 
L 93.299672 282.933184 
L 91.795098 282.380598 
L 91.532746 282.283188 
L 90.710718 281.982755 
L 90.690956 281.975445 
L 90.612954 281.94708 
L 89.139959 281.412782 
L 88.907198 281.328548 
L 87.91407 280.9728 
L 87.140233 280.695285 
L 86.957651 280.630488 
L 85.713203 280.189802 
L 85.172529 279.99852 
L 84.644325 279.812871 
L 84.501442 279.763491 
L 82.829735 279.178796 
L 82.261698 278.983705 
L 81.785659 278.818035 
L 80.878747 278.507622 
L 80.197787 278.271774 
L 79.002013 277.864993 
L 78.924154 277.838159 
L 78.35855 277.6464 
L 77.560271 277.376907 
L 77.269205 277.280468 
L 76.059547 276.874629 
L 75.747131 276.771598 
L 74.917224 276.494117 
L 73.674778 276.086312 
L 73.192128 275.925922 
L 72.496103 275.698513 
L 72.268733 275.62321 
L 71.257266 275.29428 
L 70.52654 275.057372 
L 70.118197 274.925232 
L 68.331199 274.353137 
L 68.277118 274.335766 
L 68.22751 274.32 
L 66.412144 273.743832 
L 66.020337 273.620815 
L 65.142612 273.34572 
L 64.29151 273.079803 
L 64.108616 273.023768 
L 63.381143 272.797538 
L 62.968267 272.671439 
L 61.622046 272.254682 
L 60.87206 272.026955 
L 60.501588 271.912794 
L 59.423907 271.586582 
L 58.947591 271.440459 
L 57.638607 271.046499 
L 57.62857 271.043489 
L 57.62857 274.32 
L 57.62857 277.6464 
L 57.62857 280.9728 
L 57.62857 284.2992 
L 57.62857 287.6256 
L 57.62857 290.952 
L 57.62857 294.2784 
L 57.62857 297.6048 
L 57.62857 300.9312 
L 57.62857 304.2576 
L 57.62857 307.584 
L 59.152282 307.584 
L 60.675994 307.584 
L 62.199706 307.584 
L 63.723418 307.584 
L 65.24713 307.584 
L 66.770842 307.584 
L 68.294554 307.584 
L 69.818266 307.584 
L 71.341978 307.584 
L 72.86569 307.584 
L 74.389402 307.584 
L 75.913114 307.584 
L 77.436826 307.584 
L 78.960538 307.584 
L 80.48425 307.584 
L 82.007962 307.584 
L 83.531674 307.584 
L 85.055386 307.584 
L 86.579098 307.584 
L 88.10281 307.584 
L 89.626522 307.584 
L 91.150234 307.584 
L 92.673946 307.584 
L 94.197658 307.584 
L 95.72137 307.584 
L 97.245082 307.584 
L 98.768794 307.584 
L 100.292506 307.584 
L 101.816218 307.584 
L 103.33993 307.584 
L 103.33993 304.2576 
L 103.33993 300.9312 
L 103.33993 297.6048 
L 103.33993 294.2784 
L 103.33993 290.952 
L 103.33993 287.6256 
" clip-path="url(#p247bb594ee)" style="fill: #b60000"/>
   </g>
   <g id="PathCollection_11">
    <path clip-path="url(#p247bb594ee)" style="fill: #0000b6"/>
   </g>
   <g id="PathCollection_12">
    <path clip-path="url(#p247bb594ee)" style="fill: #0018ff"/>
   </g>
   <g id="PathCollection_13">
    <path clip-path="url(#p247bb594ee)" style="fill: #0080ff"/>
   </g>
   <g id="PathCollection_14">
    <path d="M 100.4544 46.957499 
L 102.510601 44.902603 
L 103.077797 44.346786 
L 103.345651 44.07008 
L 103.720846 43.663581 
L 105.818179 41.472 
L 100.4544 41.472 
" clip-path="url(#p247bb594ee)" style="fill: #00e4f8"/>
   </g>
   <g id="PathCollection_15">
    <path d="M 105.818179 41.472 
L 103.720846 43.663581 
L 103.345651 44.07008 
L 103.077797 44.346786 
L 102.510601 44.902603 
L 100.4544 46.957499 
L 100.4544 50.3424 
L 100.4544 59.2128 
L 100.4544 68.0832 
L 100.4544 76.9536 
L 100.4544 85.824 
L 100.4544 94.6944 
L 100.4544 103.5648 
L 100.4544 110.586875 
L 102.745197 109.625234 
L 103.226791 109.397143 
L 110.774908 106.003875 
L 115.696131 103.5648 
L 116.490648 103.159521 
L 116.877248 102.947306 
L 121.846222 100.395303 
L 127.362624 97.29248 
L 128.721632 96.502339 
L 129.744358 95.937086 
L 131.791936 94.6944 
L 135.586296 92.26977 
L 135.854967 92.09632 
L 142.557077 87.609184 
L 145.014078 85.824 
L 148.136229 83.478738 
L 150.672575 81.459216 
L 152.127186 80.355553 
L 153.107998 79.55168 
L 155.046119 77.893784 
L 156.188661 76.9536 
L 156.398261 76.775064 
L 156.504337 76.675309 
L 159.151677 74.35552 
L 161.161303 72.514568 
L 164.939775 68.803809 
L 165.341207 68.424601 
L 165.684772 68.0832 
L 169.61125 64.033435 
L 171.628478 61.81088 
L 173.708532 59.395112 
L 173.869235 59.2128 
L 174.189759 58.812056 
L 176.074286 56.61472 
L 177.466424 54.900534 
L 180.952645 50.3424 
L 181.249025 49.938754 
L 181.905032 49.010543 
L 184.724841 45.113692 
L 185.43821 44.07008 
L 186.120471 43.004317 
L 187.166312 41.472 
L 181.4016 41.472 
L 173.30688 41.472 
L 165.21216 41.472 
L 157.11744 41.472 
L 149.02272 41.472 
L 140.928 41.472 
L 132.83328 41.472 
L 124.73856 41.472 
L 116.64384 41.472 
L 108.54912 41.472 
" clip-path="url(#p247bb594ee)" style="fill: #53ffa4"/>
   </g>
   <g id="PathCollection_16">
    <path d="M 187.166312 41.472 
L 186.120471 43.004317 
L 185.43821 44.07008 
L 184.724841 45.113692 
L 181.905032 49.010543 
L 181.249025 49.938754 
L 180.952645 50.3424 
L 177.466424 54.900534 
L 176.074286 56.61472 
L 174.189759 58.812056 
L 173.869235 59.2128 
L 173.708532 59.395112 
L 171.628478 61.81088 
L 169.61125 64.033435 
L 165.684772 68.0832 
L 165.341207 68.424601 
L 164.939775 68.803809 
L 161.161303 72.514568 
L 159.151677 74.35552 
L 156.504337 76.675309 
L 156.398261 76.775064 
L 156.188661 76.9536 
L 155.046119 77.893784 
L 153.107998 79.55168 
L 152.127186 80.355553 
L 150.672575 81.459216 
L 148.136229 83.478738 
L 145.014078 85.824 
L 142.557077 87.609184 
L 135.854967 92.09632 
L 135.586296 92.26977 
L 131.791936 94.6944 
L 129.744358 95.937086 
L 128.721632 96.502339 
L 127.362624 97.29248 
L 121.846222 100.395303 
L 116.877248 102.947306 
L 116.490648 103.159521 
L 115.696131 103.5648 
L 110.774908 106.003875 
L 103.226791 109.397143 
L 102.745197 109.625234 
L 100.4544 110.586875 
L 100.4544 112.4352 
L 100.4544 121.3056 
L 100.4544 130.176 
L 100.4544 139.0464 
L 100.4544 147.9168 
L 100.4544 156.7872 
L 100.4544 161.459429 
L 102.166682 161.317138 
L 104.709082 160.995211 
L 111.773082 160.3201 
L 115.492516 159.833092 
L 117.714025 159.618434 
L 122.756257 158.959458 
L 126.395664 158.603096 
L 132.457351 157.781742 
L 133.182059 157.709914 
L 140.000468 156.7872 
L 140.823885 156.673108 
L 141.072787 156.628538 
L 148.554788 155.549259 
L 149.560397 155.364745 
L 155.09136 154.56697 
L 159.981421 153.648776 
L 163.807849 153.072016 
L 166.837431 152.487455 
L 169.075054 152.149857 
L 177.331201 150.51488 
L 178.505533 150.276498 
L 180.918706 149.806431 
L 189.161949 147.9168 
L 189.33626 147.877065 
L 189.381889 147.864859 
L 189.907322 147.730244 
L 199.435883 145.31872 
L 199.912785 145.188708 
L 200.151347 145.11115 
L 208.941131 142.613718 
L 212.962395 141.210689 
L 214.434062 140.775489 
L 219.31525 139.0464 
L 221.23417 138.343943 
L 223.372716 137.405384 
L 228.569119 135.340502 
L 231.966813 133.763506 
L 232.89889 133.38564 
L 234.147286 132.77408 
L 238.692904 130.461173 
L 238.870291 130.376002 
L 239.221281 130.176 
L 240.026358 129.689005 
L 243.685763 127.62454 
L 243.768937 127.57792 
L 243.781686 127.570485 
L 243.794612 127.561675 
L 247.626461 125.186899 
L 253.159021 121.3056 
L 253.8166 120.826199 
L 257.627106 117.609353 
L 260.163755 115.52494 
L 260.697741 115.03328 
L 261.631646 114.266675 
L 263.507324 112.4352 
L 265.571291 110.223667 
L 265.921524 109.83712 
L 270.875722 104.038418 
L 271.226574 103.5648 
L 273.931906 99.742138 
L 275.706691 97.29248 
L 275.814971 97.132533 
L 276.518559 96.202524 
L 277.461689 94.6944 
L 278.545442 92.683103 
L 278.915283 92.09632 
L 280.11433 89.993636 
L 282.312741 85.824 
L 283.844378 82.768201 
L 285.273595 79.55168 
L 286.249335 77.127729 
L 286.334456 76.9536 
L 286.380686 76.839092 
L 287.429614 74.35552 
L 288.881777 70.547511 
L 289.718229 68.0832 
L 291.381633 62.879484 
L 291.758623 61.81088 
L 291.833006 61.573131 
L 292.209044 60.597059 
L 292.639064 59.2128 
L 293.246349 56.835552 
L 293.287406 56.61472 
L 294.867209 50.711531 
L 294.96051 50.3424 
L 295.346751 48.704612 
L 296.471537 44.07008 
L 296.598153 43.521712 
L 297.073079 41.472 
L 294.72768 41.472 
L 286.63296 41.472 
L 278.53824 41.472 
L 270.44352 41.472 
L 262.3488 41.472 
L 254.25408 41.472 
L 246.15936 41.472 
L 238.06464 41.472 
L 229.96992 41.472 
L 221.8752 41.472 
L 213.78048 41.472 
L 205.68576 41.472 
L 197.59104 41.472 
L 189.49632 41.472 
" clip-path="url(#p247bb594ee)" style="fill: #a4ff53"/>
   </g>
   <g id="PathCollection_17">
    <path d="M 297.073079 41.472 
L 296.598153 43.521712 
L 296.471537 44.07008 
L 295.346751 48.704612 
L 294.96051 50.3424 
L 294.867209 50.711531 
L 293.287406 56.61472 
L 293.246349 56.835552 
L 292.639064 59.2128 
L 292.209044 60.597059 
L 291.833006 61.573131 
L 291.758623 61.81088 
L 291.381633 62.879484 
L 289.718229 68.0832 
L 288.881777 70.547511 
L 287.429614 74.35552 
L 286.380686 76.839092 
L 286.334456 76.9536 
L 286.249335 77.127729 
L 285.273595 79.55168 
L 283.844378 82.768201 
L 282.312741 85.824 
L 280.11433 89.993636 
L 278.915283 92.09632 
L 278.545442 92.683103 
L 277.461689 94.6944 
L 276.518559 96.202524 
L 275.814971 97.132533 
L 275.706691 97.29248 
L 273.931906 99.742138 
L 271.226574 103.5648 
L 270.875722 104.038418 
L 265.921524 109.83712 
L 265.571291 110.223667 
L 263.507324 112.4352 
L 261.631646 114.266675 
L 260.697741 115.03328 
L 260.163755 115.52494 
L 257.627106 117.609353 
L 253.8166 120.826199 
L 253.159021 121.3056 
L 247.626461 125.186899 
L 243.794612 127.561675 
L 243.781686 127.570485 
L 243.768937 127.57792 
L 243.685763 127.62454 
L 240.026358 129.689005 
L 239.221281 130.176 
L 238.870291 130.376002 
L 238.692904 130.461173 
L 234.147286 132.77408 
L 232.89889 133.38564 
L 231.966813 133.763506 
L 228.569119 135.340502 
L 223.372716 137.405384 
L 221.23417 138.343943 
L 219.31525 139.0464 
L 214.434062 140.775489 
L 212.962395 141.210689 
L 208.941131 142.613718 
L 200.151347 145.11115 
L 199.912785 145.188708 
L 199.435883 145.31872 
L 189.907322 147.730244 
L 189.381889 147.864859 
L 189.33626 147.877065 
L 189.161949 147.9168 
L 180.918706 149.806431 
L 178.505533 150.276498 
L 177.331201 150.51488 
L 169.075054 152.149857 
L 166.837431 152.487455 
L 163.807849 153.072016 
L 159.981421 153.648776 
L 155.09136 154.56697 
L 149.560397 155.364745 
L 148.554788 155.549259 
L 141.072787 156.628538 
L 140.823885 156.673108 
L 140.000468 156.7872 
L 133.182059 157.709914 
L 132.457351 157.781742 
L 126.395664 158.603096 
L 122.756257 158.959458 
L 117.714025 159.618434 
L 115.492516 159.833092 
L 111.773082 160.3201 
L 104.709082 160.995211 
L 102.166682 161.317138 
L 100.4544 161.459429 
L 100.4544 165.6576 
L 100.4544 174.528 
L 100.4544 183.3984 
L 100.4544 192.2688 
L 100.4544 201.1392 
L 100.4544 205.478215 
L 102.099277 205.657985 
L 104.915991 206.028325 
L 111.539124 206.733078 
L 115.619703 207.300188 
L 117.585431 207.518567 
L 123.19515 208.318292 
L 125.986291 208.642305 
L 132.700228 209.657604 
L 132.954647 209.688517 
L 135.021353 210.0096 
L 140.204755 210.802151 
L 141.954348 211.134298 
L 148.212857 212.152138 
L 149.963908 212.499565 
L 154.198724 213.208003 
L 161.401822 214.704535 
L 163.30864 215.045471 
L 167.457418 215.949558 
L 167.82459 216.017232 
L 168.980007 216.28192 
L 175.691833 217.797456 
L 180.013325 218.88 
L 186.080304 220.43055 
L 189.78422 221.47808 
L 194.118473 222.685327 
L 195.899684 223.275821 
L 198.943716 224.17182 
L 204.003091 225.906488 
L 206.622717 226.723658 
L 209.376077 227.7504 
L 213.247405 229.160681 
L 214.513813 229.690475 
L 218.670688 231.261986 
L 224.856086 234.02272 
L 226.251314 234.634457 
L 230.366763 236.6208 
L 233.00293 237.877366 
L 234.04433 238.445642 
L 235.455547 239.21888 
L 241.04649 242.223613 
L 246.131067 245.41635 
L 246.177458 245.443321 
L 246.250052 245.4912 
L 251.297708 248.730867 
L 255.346223 251.76352 
L 257.117589 253.061837 
L 258.709166 254.3616 
L 260.558832 255.92675 
L 261.883038 256.95968 
L 264.036442 258.767248 
L 268.786624 263.232 
L 269.690509 264.057169 
L 274.812718 269.50432 
L 275.225538 269.931814 
L 275.980364 270.727882 
L 277.072213 272.1024 
L 278.783529 274.051016 
L 279.257666 274.70048 
L 280.393891 276.063571 
L 284.056378 280.9728 
L 285.235915 282.503718 
L 288.330766 287.24512 
L 289.276612 288.643231 
L 289.963728 289.8432 
L 291.228758 291.929259 
L 291.553644 292.44128 
L 291.890438 292.952322 
L 293.960076 296.68286 
L 294.880234 298.31001 
L 295.082732 298.7136 
L 297.895064 304.1131 
L 298.266584 304.98592 
L 298.565855 305.65193 
L 299.497513 307.584 
L 302.8224 307.584 
L 310.91712 307.584 
L 319.01184 307.584 
L 327.10656 307.584 
L 335.20128 307.584 
L 343.296 307.584 
L 343.296 298.7136 
L 343.296 289.8432 
L 343.296 280.9728 
L 343.296 272.1024 
L 343.296 263.232 
L 343.296 254.3616 
L 343.296 245.4912 
L 343.296 236.6208 
L 343.296 227.7504 
L 343.296 218.88 
L 343.296 210.0096 
L 343.296 201.1392 
L 343.296 192.2688 
L 343.296 183.3984 
L 343.296 174.528 
L 343.296 165.6576 
L 343.296 156.7872 
L 343.296 147.9168 
L 343.296 139.0464 
L 343.296 130.176 
L 343.296 121.3056 
L 343.296 112.4352 
L 343.296 103.5648 
L 343.296 94.6944 
L 343.296 85.824 
L 343.296 76.9536 
L 343.296 68.0832 
L 343.296 59.2128 
L 343.296 50.3424 
L 343.296 41.472 
L 335.20128 41.472 
L 327.10656 41.472 
L 319.01184 41.472 
L 310.91712 41.472 
L 302.8224 41.472 
" clip-path="url(#p247bb594ee)" style="fill: #f8f500"/>
   </g>
   <g id="PathCollection_18">
    <path d="M 299.497513 307.584 
L 298.565855 305.65193 
L 298.266584 304.98592 
L 297.895064 304.1131 
L 295.082732 298.7136 
L 294.880234 298.31001 
L 293.960076 296.68286 
L 291.890438 292.952322 
L 291.553644 292.44128 
L 291.228758 291.929259 
L 289.963728 289.8432 
L 289.276612 288.643231 
L 288.330766 287.24512 
L 285.235915 282.503718 
L 284.056378 280.9728 
L 280.393891 276.063571 
L 279.257666 274.70048 
L 278.783529 274.051016 
L 277.072213 272.1024 
L 275.980364 270.727882 
L 275.225538 269.931814 
L 274.812718 269.50432 
L 269.690509 264.057169 
L 268.786624 263.232 
L 264.036442 258.767248 
L 261.883038 256.95968 
L 260.558832 255.92675 
L 258.709166 254.3616 
L 257.117589 253.061837 
L 255.346223 251.76352 
L 251.297708 248.730867 
L 246.250052 245.4912 
L 246.177458 245.443321 
L 246.131067 245.41635 
L 241.04649 242.223613 
L 235.455547 239.21888 
L 234.04433 238.445642 
L 233.00293 237.877366 
L 230.366763 236.6208 
L 226.251314 234.634457 
L 224.856086 234.02272 
L 218.670688 231.261986 
L 214.513813 229.690475 
L 213.247405 229.160681 
L 209.376077 227.7504 
L 206.622717 226.723658 
L 204.003091 225.906488 
L 198.943716 224.17182 
L 195.899684 223.275821 
L 194.118473 222.685327 
L 189.78422 221.47808 
L 186.080304 220.43055 
L 180.013325 218.88 
L 175.691833 217.797456 
L 168.980007 216.28192 
L 167.82459 216.017232 
L 167.457418 215.949558 
L 163.30864 215.045471 
L 161.401822 214.704535 
L 154.198724 213.208003 
L 149.963908 212.499565 
L 148.212857 212.152138 
L 141.954348 211.134298 
L 140.204755 210.802151 
L 135.021353 210.0096 
L 132.954647 209.688517 
L 132.700228 209.657604 
L 125.986291 208.642305 
L 123.19515 208.318292 
L 117.585431 207.518567 
L 115.619703 207.300188 
L 111.539124 206.733078 
L 104.915991 206.028325 
L 102.099277 205.657985 
L 100.4544 205.478215 
L 100.4544 210.0096 
L 100.4544 218.88 
L 100.4544 227.7504 
L 100.4544 236.6208 
L 100.4544 245.4912 
L 100.4544 245.982431 
L 100.662517 246.041784 
L 106.610485 247.615605 
L 111.904552 249.168167 
L 114.937032 250.006657 
L 118.792328 251.175146 
L 119.396151 251.345548 
L 120.728096 251.76352 
L 126.496852 253.563501 
L 127.140318 253.765365 
L 128.906705 254.3616 
L 135.820057 256.680125 
L 136.604978 256.95968 
L 144.20021 259.646229 
L 148.264914 261.227183 
L 149.59579 261.71591 
L 153.398187 263.232 
L 156.131644 264.31226 
L 159.390668 265.723061 
L 163.60619 267.480685 
L 167.477958 269.226298 
L 167.735982 269.336731 
L 168.091627 269.50432 
L 173.489069 272.019703 
L 173.655248 272.1024 
L 177.934582 274.20294 
L 178.949691 274.70048 
L 179.005856 274.727717 
L 179.049795 274.750967 
L 182.996814 276.752572 
L 188.270389 279.629394 
L 189.922269 280.506034 
L 190.723197 280.9728 
L 196.365971 284.21379 
L 199.561642 286.18614 
L 200.448168 286.712287 
L 201.265333 287.24512 
L 204.424956 289.270914 
L 205.080783 289.693015 
L 205.322001 289.8432 
L 205.475253 289.93875 
L 209.197199 292.44128 
L 210.577164 293.353475 
L 212.196746 294.523743 
L 214.701794 296.276212 
L 217.94571 298.7136 
L 220.292952 300.447467 
L 225.895862 304.98592 
L 226.516335 305.477362 
L 228.988979 307.584 
L 229.96992 307.584 
L 238.06464 307.584 
L 246.15936 307.584 
L 254.25408 307.584 
L 262.3488 307.584 
L 270.44352 307.584 
L 278.53824 307.584 
L 286.63296 307.584 
L 294.72768 307.584 
" clip-path="url(#p247bb594ee)" style="fill: #ff9400"/>
   </g>
   <g id="PathCollection_19">
    <path d="M 228.988979 307.584 
L 226.516335 305.477362 
L 225.895862 304.98592 
L 220.292952 300.447467 
L 217.94571 298.7136 
L 214.701794 296.276212 
L 212.196746 294.523743 
L 210.577164 293.353475 
L 209.197199 292.44128 
L 205.475253 289.93875 
L 205.322001 289.8432 
L 205.080783 289.693015 
L 204.424956 289.270914 
L 201.265333 287.24512 
L 200.448168 286.712287 
L 199.561642 286.18614 
L 196.365971 284.21379 
L 190.723197 280.9728 
L 189.922269 280.506034 
L 188.270389 279.629394 
L 182.996814 276.752572 
L 179.049795 274.750967 
L 179.005856 274.727717 
L 178.949691 274.70048 
L 177.934582 274.20294 
L 173.655248 272.1024 
L 173.489069 272.019703 
L 168.091627 269.50432 
L 167.735982 269.336731 
L 167.477958 269.226298 
L 163.60619 267.480685 
L 159.390668 265.723061 
L 156.131644 264.31226 
L 153.398187 263.232 
L 149.59579 261.71591 
L 148.264914 261.227183 
L 144.20021 259.646229 
L 136.604978 256.95968 
L 135.820057 256.680125 
L 128.906705 254.3616 
L 127.140318 253.765365 
L 126.496852 253.563501 
L 120.728096 251.76352 
L 119.396151 251.345548 
L 118.792328 251.175146 
L 114.937032 250.006657 
L 111.904552 249.168167 
L 106.610485 247.615605 
L 100.662517 246.041784 
L 100.4544 245.982431 
L 100.4544 254.3616 
L 100.4544 263.232 
L 100.4544 272.1024 
L 100.4544 280.9728 
L 100.4544 285.655712 
L 102.526687 286.455153 
L 103.284341 286.742078 
L 104.536543 287.24512 
L 109.69943 289.321068 
L 110.058999 289.468374 
L 110.937145 289.8432 
L 114.338261 291.28035 
L 117.113193 292.44128 
L 118.748146 293.146539 
L 120.294002 293.843141 
L 126.621409 296.650326 
L 131.021617 298.7136 
L 132.559391 299.438188 
L 133.232205 299.768979 
L 137.907014 302.024073 
L 143.719688 304.98592 
L 145.104175 305.68841 
L 148.68939 307.584 
L 149.02272 307.584 
L 157.11744 307.584 
L 165.21216 307.584 
L 173.30688 307.584 
L 181.4016 307.584 
L 189.49632 307.584 
L 197.59104 307.584 
L 205.68576 307.584 
L 213.78048 307.584 
L 221.8752 307.584 
" clip-path="url(#p247bb594ee)" style="fill: #ff3800"/>
   </g>
   <g id="PathCollection_20">
    <path d="M 148.68939 307.584 
L 145.104175 305.68841 
L 143.719688 304.98592 
L 137.907014 302.024073 
L 133.232205 299.768979 
L 132.559391 299.438188 
L 131.021617 298.7136 
L 126.621409 296.650326 
L 120.294002 293.843141 
L 118.748146 293.146539 
L 117.113193 292.44128 
L 114.338261 291.28035 
L 110.937145 289.8432 
L 110.058999 289.468374 
L 109.69943 289.321068 
L 104.536543 287.24512 
L 103.284341 286.742078 
L 102.526687 286.455153 
L 100.4544 285.655712 
L 100.4544 289.8432 
L 100.4544 298.7136 
L 100.4544 307.584 
L 108.54912 307.584 
L 116.64384 307.584 
L 124.73856 307.584 
L 132.83328 307.584 
L 140.928 307.584 
" clip-path="url(#p247bb594ee)" style="fill: #b60000"/>
   </g>
   <g id="matplotlib.axis_1">
    <g id="xtick_1">
     <g id="line2d_1">
      <defs>
       <path id="m522e0ea3ee" d="M 0 0 
L 0 3.5 
" style="stroke: #000000; stroke-width: 0.8"/>
      </defs>
      <g>
       <use xlink:href="#m522e0ea3ee" x="57.6" y="307.584" style="stroke: #000000; stroke-width: 0.8"/>
      </g>
     </g>
     <g id="text_1">
      <!-- 0.0 -->
      <g transform="translate(51.26875 321.385562) scale(0.1 -0.1)">
       <defs>
        <path id="Calibri-30" d="M 3022 2031 
Q 3022 1566 2948 1181 
Q 2875 797 2704 520 
Q 2534 244 2259 92 
Q 1984 -59 1581 -59 
Q 1200 -59 939 77 
Q 678 213 518 477 
Q 359 741 292 1127 
Q 225 1513 225 2013 
Q 225 2475 300 2861 
Q 375 3247 544 3523 
Q 713 3800 988 3951 
Q 1263 4103 1663 4103 
Q 2047 4103 2308 3967 
Q 2569 3831 2728 3567 
Q 2888 3303 2955 2917 
Q 3022 2531 3022 2031 
z
M 2472 1994 
Q 2472 2297 2450 2537 
Q 2428 2778 2386 2962 
Q 2344 3147 2276 3280 
Q 2209 3413 2115 3498 
Q 2022 3584 1901 3623 
Q 1781 3663 1631 3663 
Q 1366 3663 1200 3538 
Q 1034 3413 939 3194 
Q 844 2975 809 2681 
Q 775 2388 775 2050 
Q 775 1597 822 1280 
Q 869 963 970 763 
Q 1072 563 1230 472 
Q 1388 381 1613 381 
Q 1788 381 1920 437 
Q 2053 494 2148 598 
Q 2244 703 2306 850 
Q 2369 997 2406 1175 
Q 2444 1353 2458 1561 
Q 2472 1769 2472 1994 
z
" transform="scale(0.015625)"/>
        <path id="Calibri-2e" d="M 1144 341 
Q 1144 119 1070 45 
Q 997 -28 803 -28 
Q 616 -28 544 44 
Q 472 116 472 331 
Q 472 553 545 626 
Q 619 700 813 700 
Q 1000 700 1072 628 
Q 1144 556 1144 341 
z
" transform="scale(0.015625)"/>
       </defs>
       <use xlink:href="#Calibri-30"/>
       <use xlink:href="#Calibri-2e" x="50.683594"/>
       <use xlink:href="#Calibri-30" x="75.927734"/>
      </g>
     </g>
    </g>
    <g id="xtick_2">
     <g id="line2d_2">
      <g>
       <use xlink:href="#m522e0ea3ee" x="86.1696" y="307.584" style="stroke: #000000; stroke-width: 0.8"/>
      </g>
     </g>
     <g id="text_2">
      <!-- 0.1 -->
      <g transform="translate(79.83835 321.385562) scale(0.1 -0.1)">
       <defs>
        <path id="Calibri-31" d="M 2897 213 
Q 2897 153 2887 112 
Q 2878 72 2862 47 
Q 2847 22 2826 11 
Q 2806 0 2784 0 
L 672 0 
Q 650 0 631 11 
Q 613 22 595 47 
Q 578 72 568 112 
Q 559 153 559 213 
Q 559 269 568 309 
Q 578 350 592 376 
Q 606 403 626 417 
Q 647 431 672 431 
L 1516 431 
L 1516 3506 
L 734 3041 
Q 675 3009 639 3003 
Q 603 2997 581 3017 
Q 559 3038 551 3084 
Q 544 3131 544 3203 
Q 544 3256 548 3293 
Q 553 3331 562 3356 
Q 572 3381 589 3400 
Q 606 3419 634 3438 
L 1566 4034 
Q 1578 4044 1597 4050 
Q 1616 4056 1644 4062 
Q 1672 4069 1709 4070 
Q 1747 4072 1803 4072 
Q 1878 4072 1928 4065 
Q 1978 4059 2006 4048 
Q 2034 4038 2043 4020 
Q 2053 4003 2053 3984 
L 2053 431 
L 2784 431 
Q 2809 431 2831 417 
Q 2853 403 2867 376 
Q 2881 350 2889 309 
Q 2897 269 2897 213 
z
" transform="scale(0.015625)"/>
       </defs>
       <use xlink:href="#Calibri-30"/>
       <use xlink:href="#Calibri-2e" x="50.683594"/>
       <use xlink:href="#Calibri-31" x="75.927734"/>
      </g>
     </g>
    </g>
    <g id="xtick_3">
     <g id="line2d_3">
      <g>
       <use xlink:href="#m522e0ea3ee" x="114.7392" y="307.584" style="stroke: #000000; stroke-width: 0.8"/>
      </g>
     </g>
     <g id="text_3">
      <!-- 0.2 -->
      <g transform="translate(108.40795 321.385562) scale(0.1 -0.1)">
       <defs>
        <path id="Calibri-32" d="M 2888 231 
Q 2888 175 2880 131 
Q 2872 88 2858 58 
Q 2844 28 2820 14 
Q 2797 0 2769 0 
L 534 0 
Q 491 0 458 11 
Q 425 22 401 47 
Q 378 72 367 119 
Q 356 166 356 234 
Q 356 297 361 344 
Q 366 391 381 427 
Q 397 463 420 498 
Q 444 534 481 575 
L 1266 1406 
Q 1538 1694 1702 1922 
Q 1866 2150 1955 2337 
Q 2044 2525 2072 2678 
Q 2100 2831 2100 2966 
Q 2100 3100 2056 3220 
Q 2013 3341 1930 3431 
Q 1847 3522 1722 3575 
Q 1597 3628 1434 3628 
Q 1244 3628 1092 3575 
Q 941 3522 827 3459 
Q 713 3397 636 3344 
Q 559 3291 522 3291 
Q 500 3291 483 3303 
Q 466 3316 455 3344 
Q 444 3372 437 3419 
Q 431 3466 431 3531 
Q 431 3578 434 3612 
Q 438 3647 445 3672 
Q 453 3697 465 3719 
Q 478 3741 515 3773 
Q 553 3806 645 3862 
Q 738 3919 877 3973 
Q 1016 4028 1183 4065 
Q 1350 4103 1534 4103 
Q 1828 4103 2048 4020 
Q 2269 3938 2414 3794 
Q 2559 3650 2631 3459 
Q 2703 3269 2703 3053 
Q 2703 2859 2668 2667 
Q 2634 2475 2523 2251 
Q 2413 2028 2203 1754 
Q 1994 1481 1647 1125 
L 1006 456 
L 2766 456 
Q 2791 456 2814 442 
Q 2838 428 2855 400 
Q 2872 372 2880 330 
Q 2888 288 2888 231 
z
" transform="scale(0.015625)"/>
       </defs>
       <use xlink:href="#Calibri-30"/>
       <use xlink:href="#Calibri-2e" x="50.683594"/>
       <use xlink:href="#Calibri-32" x="75.927734"/>
      </g>
     </g>
    </g>
    <g id="xtick_4">
     <g id="line2d_4">
      <g>
       <use xlink:href="#m522e0ea3ee" x="143.3088" y="307.584" style="stroke: #000000; stroke-width: 0.8"/>
      </g>
     </g>
     <g id="text_4">
      <!-- 0.3 -->
      <g transform="translate(136.97755 321.385562) scale(0.1 -0.1)">
       <defs>
        <path id="Calibri-33" d="M 2856 1156 
Q 2856 878 2759 654 
Q 2663 431 2481 272 
Q 2300 113 2034 27 
Q 1769 -59 1434 -59 
Q 1231 -59 1054 -26 
Q 878 6 740 51 
Q 603 97 512 145 
Q 422 194 398 216 
Q 375 238 362 259 
Q 350 281 340 312 
Q 331 344 326 389 
Q 322 434 322 500 
Q 322 613 344 656 
Q 366 700 406 700 
Q 434 700 517 650 
Q 600 600 729 542 
Q 859 484 1032 434 
Q 1206 384 1419 384 
Q 1625 384 1781 437 
Q 1938 491 2044 587 
Q 2150 684 2203 817 
Q 2256 950 2256 1106 
Q 2256 1278 2189 1415 
Q 2122 1553 1992 1653 
Q 1863 1753 1673 1806 
Q 1484 1859 1244 1859 
L 859 1859 
Q 834 1859 811 1870 
Q 788 1881 770 1906 
Q 753 1931 742 1972 
Q 731 2013 731 2078 
Q 731 2138 740 2177 
Q 750 2216 767 2239 
Q 784 2263 806 2273 
Q 828 2284 856 2284 
L 1209 2284 
Q 1416 2284 1580 2337 
Q 1744 2391 1858 2491 
Q 1972 2591 2033 2730 
Q 2094 2869 2094 3041 
Q 2094 3166 2053 3280 
Q 2013 3394 1931 3478 
Q 1850 3563 1723 3611 
Q 1597 3659 1431 3659 
Q 1250 3659 1098 3604 
Q 947 3550 828 3487 
Q 709 3425 631 3370 
Q 553 3316 522 3316 
Q 500 3316 483 3323 
Q 466 3331 455 3354 
Q 444 3378 439 3420 
Q 434 3463 434 3531 
Q 434 3578 437 3614 
Q 441 3650 450 3676 
Q 459 3703 471 3725 
Q 484 3747 514 3776 
Q 544 3806 634 3862 
Q 725 3919 858 3973 
Q 991 4028 1164 4065 
Q 1338 4103 1538 4103 
Q 1819 4103 2031 4031 
Q 2244 3959 2386 3828 
Q 2528 3697 2598 3514 
Q 2669 3331 2669 3109 
Q 2669 2919 2619 2755 
Q 2569 2591 2472 2464 
Q 2375 2338 2234 2248 
Q 2094 2159 1909 2125 
L 1909 2119 
Q 2119 2097 2292 2014 
Q 2466 1931 2591 1806 
Q 2716 1681 2786 1514 
Q 2856 1347 2856 1156 
z
" transform="scale(0.015625)"/>
       </defs>
       <use xlink:href="#Calibri-30"/>
       <use xlink:href="#Calibri-2e" x="50.683594"/>
       <use xlink:href="#Calibri-33" x="75.927734"/>
      </g>
     </g>
    </g>
    <g id="xtick_5">
     <g id="line2d_5">
      <g>
       <use xlink:href="#m522e0ea3ee" x="171.8784" y="307.584" style="stroke: #000000; stroke-width: 0.8"/>
      </g>
     </g>
     <g id="text_5">
      <!-- 0.4 -->
      <g transform="translate(165.54715 321.385562) scale(0.1 -0.1)">
       <defs>
        <path id="Calibri-34" d="M 3059 1150 
Q 3059 1047 3028 987 
Q 2997 928 2941 928 
L 2484 928 
L 2484 78 
Q 2484 53 2471 36 
Q 2459 19 2428 6 
Q 2397 -6 2347 -12 
Q 2297 -19 2219 -19 
Q 2144 -19 2094 -12 
Q 2044 -6 2014 6 
Q 1984 19 1973 36 
Q 1963 53 1963 78 
L 1963 928 
L 294 928 
Q 256 928 231 937 
Q 206 947 186 972 
Q 166 997 158 1044 
Q 150 1091 150 1166 
Q 150 1225 153 1272 
Q 156 1319 165 1358 
Q 175 1397 190 1433 
Q 206 1469 228 1509 
L 1684 3966 
Q 1700 3991 1729 4009 
Q 1759 4028 1806 4040 
Q 1853 4053 1922 4058 
Q 1991 4063 2084 4063 
Q 2188 4063 2264 4055 
Q 2341 4047 2387 4034 
Q 2434 4022 2459 4001 
Q 2484 3981 2484 3953 
L 2484 1372 
L 2941 1372 
Q 2994 1372 3026 1317 
Q 3059 1263 3059 1150 
z
M 1963 3591 
L 1956 3591 
L 641 1372 
L 1963 1372 
L 1963 3591 
z
" transform="scale(0.015625)"/>
       </defs>
       <use xlink:href="#Calibri-30"/>
       <use xlink:href="#Calibri-2e" x="50.683594"/>
       <use xlink:href="#Calibri-34" x="75.927734"/>
      </g>
     </g>
    </g>
    <g id="xtick_6">
     <g id="line2d_6">
      <g>
       <use xlink:href="#m522e0ea3ee" x="200.448" y="307.584" style="stroke: #000000; stroke-width: 0.8"/>
      </g>
     </g>
     <g id="text_6">
      <!-- 0.5 -->
      <g transform="translate(194.11675 321.385562) scale(0.1 -0.1)">
       <defs>
        <path id="Calibri-35" d="M 2869 1300 
Q 2869 975 2759 722 
Q 2650 469 2450 295 
Q 2250 122 1973 31 
Q 1697 -59 1359 -59 
Q 1172 -59 1003 -32 
Q 834 -6 703 33 
Q 572 72 487 109 
Q 403 147 379 169 
Q 356 191 347 209 
Q 338 228 330 254 
Q 322 281 319 322 
Q 316 363 316 419 
Q 316 472 320 514 
Q 325 556 337 582 
Q 350 609 367 621 
Q 384 634 406 634 
Q 438 634 503 595 
Q 569 556 680 511 
Q 791 466 955 425 
Q 1119 384 1344 384 
Q 1553 384 1728 434 
Q 1903 484 2029 590 
Q 2156 697 2228 858 
Q 2300 1019 2300 1250 
Q 2300 1444 2239 1592 
Q 2178 1741 2051 1839 
Q 1925 1938 1731 1986 
Q 1538 2034 1269 2034 
Q 1078 2034 940 2015 
Q 803 1997 684 1997 
Q 597 1997 559 2037 
Q 522 2078 522 2194 
L 522 3841 
Q 522 3944 570 3994 
Q 619 4044 709 4044 
L 2500 4044 
Q 2525 4044 2548 4030 
Q 2572 4016 2587 3987 
Q 2603 3959 2611 3915 
Q 2619 3872 2619 3813 
Q 2619 3700 2587 3637 
Q 2556 3575 2500 3575 
L 991 3575 
L 991 2441 
Q 1100 2456 1214 2459 
Q 1328 2463 1478 2463 
Q 1825 2463 2084 2380 
Q 2344 2297 2517 2145 
Q 2691 1994 2780 1778 
Q 2869 1563 2869 1300 
z
" transform="scale(0.015625)"/>
       </defs>
       <use xlink:href="#Calibri-30"/>
       <use xlink:href="#Calibri-2e" x="50.683594"/>
       <use xlink:href="#Calibri-35" x="75.927734"/>
      </g>
     </g>
    </g>
    <g id="xtick_7">
     <g id="line2d_7">
      <g>
       <use xlink:href="#m522e0ea3ee" x="229.0176" y="307.584" style="stroke: #000000; stroke-width: 0.8"/>
      </g>
     </g>
     <g id="text_7">
      <!-- 0.6 -->
      <g transform="translate(222.68635 321.385562) scale(0.1 -0.1)">
       <defs>
        <path id="Calibri-36" d="M 2991 1309 
Q 2991 1044 2909 795 
Q 2828 547 2659 358 
Q 2491 169 2231 55 
Q 1972 -59 1619 -59 
Q 1366 -59 1172 3 
Q 978 66 834 181 
Q 691 297 595 465 
Q 500 634 442 850 
Q 384 1066 359 1322 
Q 334 1578 334 1872 
Q 334 2131 362 2397 
Q 391 2663 462 2909 
Q 534 3156 657 3373 
Q 781 3591 967 3752 
Q 1153 3913 1412 4006 
Q 1672 4100 2016 4100 
Q 2131 4100 2250 4086 
Q 2369 4072 2469 4048 
Q 2569 4025 2637 3997 
Q 2706 3969 2728 3951 
Q 2750 3934 2761 3914 
Q 2772 3894 2778 3870 
Q 2784 3847 2787 3817 
Q 2791 3788 2791 3744 
Q 2791 3688 2789 3647 
Q 2788 3606 2777 3581 
Q 2766 3556 2748 3543 
Q 2731 3531 2703 3531 
Q 2669 3531 2609 3553 
Q 2550 3575 2465 3601 
Q 2381 3628 2261 3650 
Q 2141 3672 1981 3672 
Q 1691 3672 1481 3553 
Q 1272 3434 1139 3234 
Q 1006 3034 942 2770 
Q 878 2506 869 2219 
Q 950 2266 1051 2312 
Q 1153 2359 1273 2396 
Q 1394 2434 1528 2457 
Q 1663 2481 1816 2481 
Q 2144 2481 2369 2392 
Q 2594 2303 2733 2145 
Q 2872 1988 2931 1773 
Q 2991 1559 2991 1309 
z
M 2447 1259 
Q 2447 1441 2411 1589 
Q 2375 1738 2290 1841 
Q 2206 1944 2065 2000 
Q 1925 2056 1719 2056 
Q 1603 2056 1487 2036 
Q 1372 2016 1264 1980 
Q 1156 1944 1057 1895 
Q 959 1847 878 1791 
Q 878 1388 929 1116 
Q 981 844 1079 680 
Q 1178 516 1325 445 
Q 1472 375 1669 375 
Q 1869 375 2016 450 
Q 2163 525 2259 651 
Q 2356 778 2401 936 
Q 2447 1094 2447 1259 
z
" transform="scale(0.015625)"/>
       </defs>
       <use xlink:href="#Calibri-30"/>
       <use xlink:href="#Calibri-2e" x="50.683594"/>
       <use xlink:href="#Calibri-36" x="75.927734"/>
      </g>
     </g>
    </g>
    <g id="xtick_8">
     <g id="line2d_8">
      <g>
       <use xlink:href="#m522e0ea3ee" x="257.5872" y="307.584" style="stroke: #000000; stroke-width: 0.8"/>
      </g>
     </g>
     <g id="text_8">
      <!-- 0.7 -->
      <g transform="translate(251.25595 321.385562) scale(0.1 -0.1)">
       <defs>
        <path id="Calibri-37" d="M 2947 3813 
Q 2947 3756 2942 3711 
Q 2938 3666 2930 3623 
Q 2922 3581 2908 3542 
Q 2894 3503 2875 3459 
L 1419 103 
Q 1403 66 1379 42 
Q 1356 19 1320 5 
Q 1284 -9 1228 -14 
Q 1172 -19 1091 -19 
Q 984 -19 925 -9 
Q 866 0 839 20 
Q 813 41 816 70 
Q 819 100 838 141 
L 2369 3572 
L 428 3572 
Q 369 3572 339 3634 
Q 309 3697 309 3809 
Q 309 3869 317 3912 
Q 325 3956 340 3986 
Q 356 4016 378 4030 
Q 400 4044 428 4044 
L 2784 4044 
Q 2828 4044 2861 4034 
Q 2894 4025 2911 3997 
Q 2928 3969 2937 3925 
Q 2947 3881 2947 3813 
z
" transform="scale(0.015625)"/>
       </defs>
       <use xlink:href="#Calibri-30"/>
       <use xlink:href="#Calibri-2e" x="50.683594"/>
       <use xlink:href="#Calibri-37" x="75.927734"/>
      </g>
     </g>
    </g>
    <g id="xtick_9">
     <g id="line2d_9">
      <g>
       <use xlink:href="#m522e0ea3ee" x="286.1568" y="307.584" style="stroke: #000000; stroke-width: 0.8"/>
      </g>
     </g>
     <g id="text_9">
      <!-- 0.8 -->
      <g transform="translate(279.82555 321.385562) scale(0.1 -0.1)">
       <defs>
        <path id="Calibri-38" d="M 2981 1038 
Q 2981 775 2887 570 
Q 2794 366 2617 225 
Q 2441 84 2181 12 
Q 1922 -59 1588 -59 
Q 1275 -59 1028 6 
Q 781 72 609 200 
Q 438 328 347 515 
Q 256 703 256 944 
Q 256 1134 318 1293 
Q 381 1453 498 1587 
Q 616 1722 787 1839 
Q 959 1956 1175 2063 
Q 988 2159 844 2267 
Q 700 2375 600 2501 
Q 500 2628 448 2772 
Q 397 2916 397 3084 
Q 397 3297 473 3483 
Q 550 3669 704 3806 
Q 859 3944 1098 4023 
Q 1338 4103 1656 4103 
Q 1963 4103 2186 4029 
Q 2409 3956 2554 3829 
Q 2700 3703 2769 3531 
Q 2838 3359 2838 3163 
Q 2838 3003 2786 2856 
Q 2734 2709 2634 2578 
Q 2534 2447 2389 2333 
Q 2244 2219 2056 2119 
Q 2278 2009 2451 1893 
Q 2625 1778 2742 1645 
Q 2859 1513 2920 1364 
Q 2981 1216 2981 1038 
z
M 2306 3113 
Q 2306 3244 2261 3350 
Q 2216 3456 2128 3531 
Q 2041 3606 1911 3645 
Q 1781 3684 1616 3684 
Q 1278 3684 1104 3531 
Q 931 3378 931 3113 
Q 931 2991 973 2886 
Q 1016 2781 1105 2687 
Q 1194 2594 1330 2505 
Q 1466 2416 1653 2319 
Q 1969 2481 2137 2678 
Q 2306 2875 2306 3113 
z
M 2438 981 
Q 2438 1125 2384 1242 
Q 2331 1359 2223 1461 
Q 2116 1563 1955 1658 
Q 1794 1753 1581 1856 
Q 1384 1759 1236 1662 
Q 1088 1566 992 1462 
Q 897 1359 848 1245 
Q 800 1131 800 994 
Q 800 691 1008 525 
Q 1216 359 1628 359 
Q 2028 359 2233 526 
Q 2438 694 2438 981 
z
" transform="scale(0.015625)"/>
       </defs>
       <use xlink:href="#Calibri-30"/>
       <use xlink:href="#Calibri-2e" x="50.683594"/>
       <use xlink:href="#Calibri-38" x="75.927734"/>
      </g>
     </g>
    </g>
    <g id="xtick_10">
     <g id="line2d_10">
      <g>
       <use xlink:href="#m522e0ea3ee" x="314.7264" y="307.584" style="stroke: #000000; stroke-width: 0.8"/>
      </g>
     </g>
     <g id="text_10">
      <!-- 0.9 -->
      <g transform="translate(308.39515 321.385562) scale(0.1 -0.1)">
       <defs>
        <path id="Calibri-39" d="M 2919 2181 
Q 2919 1919 2887 1650 
Q 2856 1381 2781 1132 
Q 2706 884 2579 667 
Q 2453 450 2261 287 
Q 2069 125 1805 33 
Q 1541 -59 1191 -59 
Q 1056 -59 929 -42 
Q 803 -25 701 0 
Q 600 25 531 53 
Q 463 81 431 109 
Q 400 138 386 186 
Q 372 234 372 316 
Q 372 384 376 425 
Q 381 466 390 487 
Q 400 509 417 517 
Q 434 525 459 525 
Q 494 525 556 501 
Q 619 478 714 450 
Q 809 422 937 398 
Q 1066 375 1225 375 
Q 1528 375 1745 492 
Q 1963 609 2100 806 
Q 2238 1003 2306 1262 
Q 2375 1522 2381 1809 
Q 2216 1713 1984 1638 
Q 1753 1563 1453 1563 
Q 1116 1563 886 1655 
Q 656 1747 517 1906 
Q 378 2066 317 2284 
Q 256 2503 256 2763 
Q 256 3031 334 3273 
Q 413 3516 578 3700 
Q 744 3884 1000 3993 
Q 1256 4103 1613 4103 
Q 1866 4103 2061 4039 
Q 2256 3975 2400 3854 
Q 2544 3734 2644 3564 
Q 2744 3394 2805 3178 
Q 2866 2963 2892 2711 
Q 2919 2459 2919 2181 
z
M 2372 2241 
Q 2372 2641 2319 2914 
Q 2266 3188 2162 3356 
Q 2059 3525 1909 3600 
Q 1759 3675 1563 3675 
Q 1359 3675 1215 3601 
Q 1072 3528 980 3404 
Q 888 3281 844 3125 
Q 800 2969 800 2803 
Q 800 2619 839 2466 
Q 878 2313 965 2206 
Q 1053 2100 1193 2042 
Q 1334 1984 1541 1984 
Q 1775 1984 1994 2054 
Q 2213 2125 2372 2241 
z
" transform="scale(0.015625)"/>
       </defs>
       <use xlink:href="#Calibri-30"/>
       <use xlink:href="#Calibri-2e" x="50.683594"/>
       <use xlink:href="#Calibri-39" x="75.927734"/>
      </g>
     </g>
    </g>
    <g id="xtick_11">
     <g id="line2d_11">
      <g>
       <use xlink:href="#m522e0ea3ee" x="343.296" y="307.584" style="stroke: #000000; stroke-width: 0.8"/>
      </g>
     </g>
     <g id="text_11">
      <!-- 1.0 -->
      <g transform="translate(336.96475 321.385562) scale(0.1 -0.1)">
       <use xlink:href="#Calibri-31"/>
       <use xlink:href="#Calibri-2e" x="50.683594"/>
       <use xlink:href="#Calibri-30" x="75.927734"/>
      </g>
     </g>
    </g>
    <g id="text_12">
     <!-- $\mathit{p}$ (cm$^2$/cm$^2$) -->
     <g transform="translate(174.148 336.263687) scale(0.1 -0.1)">
      <defs>
       <path id="DejaVuSans-Oblique-70" d="M 3175 2156 
Q 3175 2616 2975 2859 
Q 2775 3103 2400 3103 
Q 2144 3103 1911 2972 
Q 1678 2841 1497 2591 
Q 1319 2344 1212 1994 
Q 1106 1644 1106 1300 
Q 1106 863 1306 627 
Q 1506 391 1875 391 
Q 2147 391 2380 519 
Q 2613 647 2778 891 
Q 2956 1147 3065 1494 
Q 3175 1841 3175 2156 
z
M 1394 2969 
Q 1625 3272 1939 3428 
Q 2253 3584 2638 3584 
Q 3175 3584 3472 3232 
Q 3769 2881 3769 2247 
Q 3769 1728 3584 1258 
Q 3400 788 3053 416 
Q 2822 169 2531 39 
Q 2241 -91 1919 -91 
Q 1547 -91 1294 64 
Q 1041 219 916 525 
L 556 -1331 
L -19 -1331 
L 922 3500 
L 1497 3500 
L 1394 2969 
z
" transform="scale(0.015625)"/>
       <path id="Calibri-20" transform="scale(0.015625)"/>
       <path id="Calibri-28" d="M 1547 4306 
Q 1250 3678 1104 3017 
Q 959 2356 959 1688 
Q 959 1016 1107 356 
Q 1256 -303 1541 -938 
Q 1556 -975 1557 -1001 
Q 1559 -1028 1537 -1045 
Q 1516 -1063 1470 -1070 
Q 1425 -1078 1347 -1078 
Q 1291 -1078 1250 -1075 
Q 1209 -1072 1179 -1062 
Q 1150 -1053 1131 -1040 
Q 1113 -1028 1103 -1013 
Q 934 -694 806 -367 
Q 678 -41 590 296 
Q 503 634 459 979 
Q 416 1325 416 1678 
Q 416 2031 464 2375 
Q 513 2719 602 3058 
Q 691 3397 819 3725 
Q 947 4053 1106 4375 
Q 1109 4388 1123 4397 
Q 1138 4406 1163 4415 
Q 1188 4425 1231 4429 
Q 1275 4434 1344 4434 
Q 1416 4434 1459 4425 
Q 1503 4416 1528 4400 
Q 1553 4384 1556 4359 
Q 1559 4334 1547 4306 
z
" transform="scale(0.015625)"/>
       <path id="Calibri-63" d="M 2500 506 
Q 2500 453 2497 414 
Q 2494 375 2486 348 
Q 2478 322 2467 301 
Q 2456 281 2417 242 
Q 2378 203 2284 145 
Q 2191 88 2073 42 
Q 1956 -3 1818 -31 
Q 1681 -59 1534 -59 
Q 1231 -59 997 41 
Q 763 141 605 333 
Q 447 525 364 804 
Q 281 1084 281 1450 
Q 281 1866 382 2164 
Q 484 2463 661 2653 
Q 838 2844 1077 2936 
Q 1316 3028 1594 3028 
Q 1728 3028 1854 3003 
Q 1981 2978 2087 2937 
Q 2194 2897 2276 2844 
Q 2359 2791 2396 2753 
Q 2434 2716 2448 2694 
Q 2463 2672 2472 2642 
Q 2481 2613 2484 2575 
Q 2488 2538 2488 2481 
Q 2488 2359 2459 2311 
Q 2431 2263 2391 2263 
Q 2344 2263 2283 2314 
Q 2222 2366 2128 2428 
Q 2034 2491 1901 2542 
Q 1769 2594 1588 2594 
Q 1216 2594 1017 2308 
Q 819 2022 819 1478 
Q 819 1206 870 1001 
Q 922 797 1022 659 
Q 1122 522 1267 455 
Q 1413 388 1600 388 
Q 1778 388 1912 444 
Q 2047 500 2145 567 
Q 2244 634 2311 689 
Q 2378 744 2416 744 
Q 2438 744 2453 731 
Q 2469 719 2480 689 
Q 2491 659 2495 614 
Q 2500 569 2500 506 
z
" transform="scale(0.015625)"/>
       <path id="Calibri-6d" d="M 4650 78 
Q 4650 53 4637 36 
Q 4625 19 4597 6 
Q 4569 -6 4519 -12 
Q 4469 -19 4394 -19 
Q 4316 -19 4266 -12 
Q 4216 -6 4186 6 
Q 4156 19 4143 36 
Q 4131 53 4131 78 
L 4131 1788 
Q 4131 1966 4100 2112 
Q 4069 2259 4000 2365 
Q 3931 2472 3825 2528 
Q 3719 2584 3575 2584 
Q 3397 2584 3217 2446 
Q 3038 2309 2822 2044 
L 2822 78 
Q 2822 53 2809 36 
Q 2797 19 2767 6 
Q 2738 -6 2688 -12 
Q 2638 -19 2563 -19 
Q 2491 -19 2439 -12 
Q 2388 -6 2358 6 
Q 2328 19 2317 36 
Q 2306 53 2306 78 
L 2306 1788 
Q 2306 1966 2272 2112 
Q 2238 2259 2169 2365 
Q 2100 2472 1995 2528 
Q 1891 2584 1747 2584 
Q 1569 2584 1387 2446 
Q 1206 2309 994 2044 
L 994 78 
Q 994 53 981 36 
Q 969 19 941 6 
Q 913 -6 863 -12 
Q 813 -19 734 -19 
Q 659 -19 609 -12 
Q 559 -6 529 6 
Q 500 19 489 36 
Q 478 53 478 78 
L 478 2891 
Q 478 2916 487 2933 
Q 497 2950 525 2964 
Q 553 2978 597 2983 
Q 641 2988 713 2988 
Q 781 2988 826 2983 
Q 872 2978 897 2964 
Q 922 2950 933 2933 
Q 944 2916 944 2891 
L 944 2519 
Q 1181 2784 1404 2907 
Q 1628 3031 1856 3031 
Q 2031 3031 2170 2990 
Q 2309 2950 2415 2876 
Q 2522 2803 2597 2701 
Q 2672 2600 2722 2475 
Q 2863 2628 2989 2734 
Q 3116 2841 3233 2906 
Q 3350 2972 3461 3001 
Q 3572 3031 3684 3031 
Q 3956 3031 4140 2936 
Q 4325 2841 4439 2681 
Q 4553 2522 4601 2308 
Q 4650 2094 4650 1856 
L 4650 78 
z
" transform="scale(0.015625)"/>
       <path id="DejaVuSans-32" d="M 1228 531 
L 3431 531 
L 3431 0 
L 469 0 
L 469 531 
Q 828 903 1448 1529 
Q 2069 2156 2228 2338 
Q 2531 2678 2651 2914 
Q 2772 3150 2772 3378 
Q 2772 3750 2511 3984 
Q 2250 4219 1831 4219 
Q 1534 4219 1204 4116 
Q 875 4013 500 3803 
L 500 4441 
Q 881 4594 1212 4672 
Q 1544 4750 1819 4750 
Q 2544 4750 2975 4387 
Q 3406 4025 3406 3419 
Q 3406 3131 3298 2873 
Q 3191 2616 2906 2266 
Q 2828 2175 2409 1742 
Q 1991 1309 1228 531 
z
" transform="scale(0.015625)"/>
       <path id="Calibri-2f" d="M 525 -753 
Q 513 -794 492 -817 
Q 472 -841 440 -853 
Q 409 -866 364 -872 
Q 319 -878 253 -878 
Q 175 -878 123 -867 
Q 72 -856 44 -836 
Q 16 -816 9 -786 
Q 3 -756 22 -716 
L 1913 4469 
Q 1925 4509 1945 4532 
Q 1966 4556 1995 4570 
Q 2025 4584 2072 4589 
Q 2119 4594 2184 4594 
Q 2263 4594 2313 4583 
Q 2363 4572 2391 4553 
Q 2419 4534 2425 4503 
Q 2431 4472 2416 4431 
L 525 -753 
z
" transform="scale(0.015625)"/>
       <path id="Calibri-29" d="M 1522 1678 
Q 1522 1325 1478 979 
Q 1434 634 1346 296 
Q 1259 -41 1132 -367 
Q 1006 -694 838 -1013 
Q 828 -1028 809 -1040 
Q 791 -1053 761 -1062 
Q 731 -1072 690 -1075 
Q 650 -1078 594 -1078 
Q 513 -1078 467 -1070 
Q 422 -1063 401 -1045 
Q 381 -1028 382 -1001 
Q 384 -975 400 -938 
Q 688 -306 834 355 
Q 981 1016 981 1688 
Q 981 2356 834 3017 
Q 688 3678 394 4306 
Q 381 4334 384 4359 
Q 388 4384 413 4400 
Q 438 4416 481 4425 
Q 525 4434 597 4434 
Q 663 4434 706 4429 
Q 750 4425 776 4415 
Q 803 4406 815 4397 
Q 828 4388 834 4375 
Q 1156 3734 1339 3057 
Q 1522 2381 1522 1678 
z
" transform="scale(0.015625)"/>
      </defs>
      <use xlink:href="#DejaVuSans-Oblique-70" transform="translate(0 0.765625)"/>
      <use xlink:href="#Calibri-20" transform="translate(63.476562 0.765625)"/>
      <use xlink:href="#Calibri-28" transform="translate(84.958984 0.765625)"/>
      <use xlink:href="#Calibri-63" transform="translate(115.28125 0.765625)"/>
      <use xlink:href="#Calibri-6d" transform="translate(157.566406 0.765625)"/>
      <use xlink:href="#DejaVuSans-32" transform="translate(238.40625 39.046875) scale(0.7)"/>
      <use xlink:href="#Calibri-2f" transform="translate(285.676758 0.765625)"/>
      <use xlink:href="#Calibri-63" transform="translate(324.299805 0.765625)"/>
      <use xlink:href="#Calibri-6d" transform="translate(366.584961 0.765625)"/>
      <use xlink:href="#DejaVuSans-32" transform="translate(447.424805 39.046875) scale(0.7)"/>
      <use xlink:href="#Calibri-29" transform="translate(494.695312 0.765625)"/>
     </g>
    </g>
   </g>
   <g id="matplotlib.axis_2">
    <g id="ytick_1">
     <g id="line2d_12">
      <defs>
       <path id="m388ac131cd" d="M 0 0 
L -3.5 0 
" style="stroke: #000000; stroke-width: 0.8"/>
      </defs>
      <g>
       <use xlink:href="#m388ac131cd" x="57.6" y="275.65056" style="stroke: #000000; stroke-width: 0.8"/>
      </g>
     </g>
     <g id="text_13">
      <!-- 25 -->
      <g transform="translate(40.4625 279.051341) scale(0.1 -0.1)">
       <use xlink:href="#Calibri-32"/>
       <use xlink:href="#Calibri-35" x="50.683594"/>
      </g>
     </g>
    </g>
    <g id="ytick_2">
     <g id="line2d_13">
      <g>
       <use xlink:href="#m388ac131cd" x="57.6" y="242.38656" style="stroke: #000000; stroke-width: 0.8"/>
      </g>
     </g>
     <g id="text_14">
      <!-- 50 -->
      <g transform="translate(40.4625 245.787341) scale(0.1 -0.1)">
       <use xlink:href="#Calibri-35"/>
       <use xlink:href="#Calibri-30" x="50.683594"/>
      </g>
     </g>
    </g>
    <g id="ytick_3">
     <g id="line2d_14">
      <g>
       <use xlink:href="#m388ac131cd" x="57.6" y="209.12256" style="stroke: #000000; stroke-width: 0.8"/>
      </g>
     </g>
     <g id="text_15">
      <!-- 75 -->
      <g transform="translate(40.4625 212.523341) scale(0.1 -0.1)">
       <use xlink:href="#Calibri-37"/>
       <use xlink:href="#Calibri-35" x="50.683594"/>
      </g>
     </g>
    </g>
    <g id="ytick_4">
     <g id="line2d_15">
      <g>
       <use xlink:href="#m388ac131cd" x="57.6" y="175.85856" style="stroke: #000000; stroke-width: 0.8"/>
      </g>
     </g>
     <g id="text_16">
      <!-- 100 -->
      <g transform="translate(35.39375 179.259341) scale(0.1 -0.1)">
       <use xlink:href="#Calibri-31"/>
       <use xlink:href="#Calibri-30" x="50.683594"/>
       <use xlink:href="#Calibri-30" x="101.367188"/>
      </g>
     </g>
    </g>
    <g id="ytick_5">
     <g id="line2d_16">
      <g>
       <use xlink:href="#m388ac131cd" x="57.6" y="142.59456" style="stroke: #000000; stroke-width: 0.8"/>
      </g>
     </g>
     <g id="text_17">
      <!-- 125 -->
      <g transform="translate(35.39375 145.995341) scale(0.1 -0.1)">
       <use xlink:href="#Calibri-31"/>
       <use xlink:href="#Calibri-32" x="50.683594"/>
       <use xlink:href="#Calibri-35" x="101.367188"/>
      </g>
     </g>
    </g>
    <g id="ytick_6">
     <g id="line2d_17">
      <g>
       <use xlink:href="#m388ac131cd" x="57.6" y="109.33056" style="stroke: #000000; stroke-width: 0.8"/>
      </g>
     </g>
     <g id="text_18">
      <!-- 150 -->
      <g transform="translate(35.39375 112.731341) scale(0.1 -0.1)">
       <use xlink:href="#Calibri-31"/>
       <use xlink:href="#Calibri-35" x="50.683594"/>
       <use xlink:href="#Calibri-30" x="101.367188"/>
      </g>
     </g>
    </g>
    <g id="ytick_7">
     <g id="line2d_18">
      <g>
       <use xlink:href="#m388ac131cd" x="57.6" y="76.06656" style="stroke: #000000; stroke-width: 0.8"/>
      </g>
     </g>
     <g id="text_19">
      <!-- 175 -->
      <g transform="translate(35.39375 79.467341) scale(0.1 -0.1)">
       <use xlink:href="#Calibri-31"/>
       <use xlink:href="#Calibri-37" x="50.683594"/>
       <use xlink:href="#Calibri-35" x="101.367188"/>
      </g>
     </g>
    </g>
    <g id="ytick_8">
     <g id="line2d_19">
      <g>
       <use xlink:href="#m388ac131cd" x="57.6" y="42.80256" style="stroke: #000000; stroke-width: 0.8"/>
      </g>
     </g>
     <g id="text_20">
      <!-- 200 -->
      <g transform="translate(35.39375 46.203341) scale(0.1 -0.1)">
       <use xlink:href="#Calibri-32"/>
       <use xlink:href="#Calibri-30" x="50.683594"/>
       <use xlink:href="#Calibri-30" x="101.367188"/>
      </g>
     </g>
    </g>
    <g id="text_21">
     <!-- $\mathit{Z}$$_{a}$ (nm) -->
     <g transform="translate(29.59375 191.028) rotate(-90) scale(0.1 -0.1)">
      <defs>
       <path id="DejaVuSans-Oblique-5a" d="M 838 4666 
L 4500 4666 
L 4409 4184 
L 794 531 
L 3769 531 
L 3669 0 
L -141 0 
L -50 481 
L 3566 4134 
L 738 4134 
L 838 4666 
z
" transform="scale(0.015625)"/>
       <path id="DejaVuSans-Oblique-61" d="M 3438 1997 
L 3047 0 
L 2472 0 
L 2578 531 
Q 2325 219 2001 64 
Q 1678 -91 1281 -91 
Q 834 -91 548 182 
Q 263 456 263 884 
Q 263 1497 752 1853 
Q 1241 2209 2100 2209 
L 2900 2209 
L 2931 2363 
Q 2938 2388 2941 2417 
Q 2944 2447 2944 2509 
Q 2944 2788 2717 2942 
Q 2491 3097 2081 3097 
Q 1800 3097 1504 3025 
Q 1209 2953 897 2809 
L 997 3341 
Q 1322 3463 1633 3523 
Q 1944 3584 2234 3584 
Q 2853 3584 3176 3315 
Q 3500 3047 3500 2534 
Q 3500 2431 3484 2292 
Q 3469 2153 3438 1997 
z
M 2816 1759 
L 2241 1759 
Q 1534 1759 1195 1570 
Q 856 1381 856 984 
Q 856 709 1029 553 
Q 1203 397 1509 397 
Q 1978 397 2328 733 
Q 2678 1069 2791 1631 
L 2816 1759 
z
" transform="scale(0.015625)"/>
       <path id="Calibri-6e" d="M 2900 78 
Q 2900 53 2887 36 
Q 2875 19 2847 6 
Q 2819 -6 2769 -12 
Q 2719 -19 2644 -19 
Q 2566 -19 2516 -12 
Q 2466 -6 2437 6 
Q 2409 19 2396 36 
Q 2384 53 2384 78 
L 2384 1725 
Q 2384 1966 2346 2112 
Q 2309 2259 2237 2365 
Q 2166 2472 2052 2528 
Q 1938 2584 1788 2584 
Q 1594 2584 1400 2446 
Q 1206 2309 994 2044 
L 994 78 
Q 994 53 981 36 
Q 969 19 941 6 
Q 913 -6 863 -12 
Q 813 -19 734 -19 
Q 659 -19 609 -12 
Q 559 -6 529 6 
Q 500 19 489 36 
Q 478 53 478 78 
L 478 2891 
Q 478 2916 487 2933 
Q 497 2950 525 2964 
Q 553 2978 597 2983 
Q 641 2988 713 2988 
Q 781 2988 826 2983 
Q 872 2978 897 2964 
Q 922 2950 933 2933 
Q 944 2916 944 2891 
L 944 2519 
Q 1181 2784 1417 2907 
Q 1653 3031 1894 3031 
Q 2175 3031 2367 2936 
Q 2559 2841 2678 2681 
Q 2797 2522 2848 2308 
Q 2900 2094 2900 1794 
L 2900 78 
z
" transform="scale(0.015625)"/>
      </defs>
      <use xlink:href="#DejaVuSans-Oblique-5a" transform="translate(0 0.09375)"/>
      <use xlink:href="#DejaVuSans-Oblique-61" transform="translate(69.462891 -16.3125) scale(0.7)"/>
      <use xlink:href="#Calibri-20" transform="translate(115.092773 0.09375)"/>
      <use xlink:href="#Calibri-28" transform="translate(136.575195 0.09375)"/>
      <use xlink:href="#Calibri-6e" transform="translate(166.897461 0.09375)"/>
      <use xlink:href="#Calibri-6d" transform="translate(219.436523 0.09375)"/>
      <use xlink:href="#Calibri-29" transform="translate(299.319336 0.09375)"/>
     </g>
    </g>
   </g>
   <g id="patch_3">
    <path d="M 57.6 307.584 
L 57.6 41.472 
" style="fill: none; stroke: #000000; stroke-width: 0.8; stroke-linejoin: miter; stroke-linecap: square"/>
   </g>
   <g id="patch_4">
    <path d="M 343.296 307.584 
L 343.296 41.472 
" style="fill: none; stroke: #000000; stroke-width: 0.8; stroke-linejoin: miter; stroke-linecap: square"/>
   </g>
   <g id="patch_5">
    <path d="M 57.6 307.584 
L 343.296 307.584 
" style="fill: none; stroke: #000000; stroke-width: 0.8; stroke-linejoin: miter; stroke-linecap: square"/>
   </g>
   <g id="patch_6">
    <path d="M 57.6 41.472 
L 343.296 41.472 
" style="fill: none; stroke: #000000; stroke-width: 0.8; stroke-linejoin: miter; stroke-linecap: square"/>
   </g>
   <g id="text_22">
    <!-- $\lambda$ = 820 nm -->
    <g transform="translate(177.348 35.472) scale(0.1 -0.1)">
     <defs>
      <path id="DejaVuSans-Oblique-3bb" d="M 2350 4316 
L 3125 0 
L 2516 0 
L 2038 2588 
L 328 0 
L -281 0 
L 1903 3356 
L 1794 3975 
Q 1725 4369 1391 4369 
L 1091 4369 
L 1184 4863 
L 1550 4856 
Q 2253 4847 2350 4316 
z
" transform="scale(0.015625)"/>
      <path id="Calibri-3d" d="M 2891 2409 
Q 2891 2284 2855 2236 
Q 2819 2188 2772 2188 
L 409 2188 
Q 363 2188 328 2236 
Q 294 2284 294 2409 
Q 294 2522 325 2575 
Q 356 2628 409 2628 
L 2772 2628 
Q 2828 2628 2859 2575 
Q 2891 2522 2891 2409 
z
M 2891 1194 
Q 2891 1069 2855 1022 
Q 2819 975 2772 975 
L 409 975 
Q 363 975 328 1022 
Q 294 1069 294 1194 
Q 294 1309 325 1362 
Q 356 1416 409 1416 
L 2772 1416 
Q 2828 1416 2859 1362 
Q 2891 1309 2891 1194 
z
" transform="scale(0.015625)"/>
     </defs>
     <use xlink:href="#DejaVuSans-Oblique-3bb" transform="translate(0 0.015625)"/>
     <use xlink:href="#Calibri-20" transform="translate(59.179688 0.015625)"/>
     <use xlink:href="#Calibri-3d" transform="translate(81.787109 0.015625)"/>
     <use xlink:href="#Calibri-20" transform="translate(131.591797 0.015625)"/>
     <use xlink:href="#Calibri-38" transform="translate(154.199219 0.015625)"/>
     <use xlink:href="#Calibri-32" transform="translate(204.882812 0.015625)"/>
     <use xlink:href="#Calibri-30" transform="translate(255.566406 0.015625)"/>
     <use xlink:href="#Calibri-20" transform="translate(306.25 0.015625)"/>
     <use xlink:href="#Calibri-6e" transform="translate(328.857422 0.015625)"/>
     <use xlink:href="#Calibri-6d" transform="translate(381.396484 0.015625)"/>
    </g>
   </g>
  </g>
  <g id="axes_2">
   <g id="patch_7">
    <path d="M 361.152 307.584 
L 374.4576 307.584 
L 374.4576 41.472 
L 361.152 41.472 
z
" style="fill: #ffffff"/>
   </g>
   <g id="QuadMesh_1">
    <path d="M 361.152 307.584 
L 374.4576 307.584 
L 374.4576 280.9728 
L 361.152 280.9728 
L 361.152 307.584 
" clip-path="url(#p2b65bd9b1f)" style="fill: #0000b6"/>
    <path d="M 361.152 280.9728 
L 374.4576 280.9728 
L 374.4576 254.3616 
L 361.152 254.3616 
L 361.152 280.9728 
" clip-path="url(#p2b65bd9b1f)" style="fill: #0018ff"/>
    <path d="M 361.152 254.3616 
L 374.4576 254.3616 
L 374.4576 227.7504 
L 361.152 227.7504 
L 361.152 254.3616 
" clip-path="url(#p2b65bd9b1f)" style="fill: #0080ff"/>
    <path d="M 361.152 227.7504 
L 374.4576 227.7504 
L 374.4576 201.1392 
L 361.152 201.1392 
L 361.152 227.7504 
" clip-path="url(#p2b65bd9b1f)" style="fill: #00e4f8"/>
    <path d="M 361.152 201.1392 
L 374.4576 201.1392 
L 374.4576 174.528 
L 361.152 174.528 
L 361.152 201.1392 
" clip-path="url(#p2b65bd9b1f)" style="fill: #53ffa4"/>
    <path d="M 361.152 174.528 
L 374.4576 174.528 
L 374.4576 147.9168 
L 361.152 147.9168 
L 361.152 174.528 
" clip-path="url(#p2b65bd9b1f)" style="fill: #a4ff53"/>
    <path d="M 361.152 147.9168 
L 374.4576 147.9168 
L 374.4576 121.3056 
L 361.152 121.3056 
L 361.152 147.9168 
" clip-path="url(#p2b65bd9b1f)" style="fill: #f8f500"/>
    <path d="M 361.152 121.3056 
L 374.4576 121.3056 
L 374.4576 94.6944 
L 361.152 94.6944 
L 361.152 121.3056 
" clip-path="url(#p2b65bd9b1f)" style="fill: #ff9400"/>
    <path d="M 361.152 94.6944 
L 374.4576 94.6944 
L 374.4576 68.0832 
L 361.152 68.0832 
L 361.152 94.6944 
" clip-path="url(#p2b65bd9b1f)" style="fill: #ff3800"/>
    <path d="M 361.152 68.0832 
L 374.4576 68.0832 
L 374.4576 41.472 
L 361.152 41.472 
L 361.152 68.0832 
" clip-path="url(#p2b65bd9b1f)" style="fill: #b60000"/>
   </g>
   <g id="matplotlib.axis_3"/>
   <g id="matplotlib.axis_4">
    <g id="ytick_9">
     <g id="line2d_20">
      <defs>
       <path id="m05ecedb383" d="M 0 0 
L 3.5 0 
" style="stroke: #000000; stroke-width: 0.8"/>
      </defs>
      <g>
       <use xlink:href="#m05ecedb383" x="374.4576" y="307.584" style="stroke: #000000; stroke-width: 0.8"/>
      </g>
     </g>
     <g id="text_23">
      <!-- 0 -->
      <g transform="translate(381.4576 310.984781) scale(0.1 -0.1)">
       <use xlink:href="#Calibri-30"/>
      </g>
     </g>
    </g>
    <g id="ytick_10">
     <g id="line2d_21">
      <g>
       <use xlink:href="#m05ecedb383" x="374.4576" y="280.9728" style="stroke: #000000; stroke-width: 0.8"/>
      </g>
     </g>
     <g id="text_24">
      <!-- 0.1 -->
      <g transform="translate(381.4576 284.373581) scale(0.1 -0.1)">
       <use xlink:href="#Calibri-30"/>
       <use xlink:href="#Calibri-2e" x="50.683594"/>
       <use xlink:href="#Calibri-31" x="75.927734"/>
      </g>
     </g>
    </g>
    <g id="ytick_11">
     <g id="line2d_22">
      <g>
       <use xlink:href="#m05ecedb383" x="374.4576" y="254.3616" style="stroke: #000000; stroke-width: 0.8"/>
      </g>
     </g>
     <g id="text_25">
      <!-- 0.2 -->
      <g transform="translate(381.4576 257.762381) scale(0.1 -0.1)">
       <use xlink:href="#Calibri-30"/>
       <use xlink:href="#Calibri-2e" x="50.683594"/>
       <use xlink:href="#Calibri-32" x="75.927734"/>
      </g>
     </g>
    </g>
    <g id="ytick_12">
     <g id="line2d_23">
      <g>
       <use xlink:href="#m05ecedb383" x="374.4576" y="227.7504" style="stroke: #000000; stroke-width: 0.8"/>
      </g>
     </g>
     <g id="text_26">
      <!-- 0.3 -->
      <g transform="translate(381.4576 231.151181) scale(0.1 -0.1)">
       <use xlink:href="#Calibri-30"/>
       <use xlink:href="#Calibri-2e" x="50.683594"/>
       <use xlink:href="#Calibri-33" x="75.927734"/>
      </g>
     </g>
    </g>
    <g id="ytick_13">
     <g id="line2d_24">
      <g>
       <use xlink:href="#m05ecedb383" x="374.4576" y="201.1392" style="stroke: #000000; stroke-width: 0.8"/>
      </g>
     </g>
     <g id="text_27">
      <!-- 0.4 -->
      <g transform="translate(381.4576 204.539981) scale(0.1 -0.1)">
       <use xlink:href="#Calibri-30"/>
       <use xlink:href="#Calibri-2e" x="50.683594"/>
       <use xlink:href="#Calibri-34" x="75.927734"/>
      </g>
     </g>
    </g>
    <g id="ytick_14">
     <g id="line2d_25">
      <g>
       <use xlink:href="#m05ecedb383" x="374.4576" y="174.528" style="stroke: #000000; stroke-width: 0.8"/>
      </g>
     </g>
     <g id="text_28">
      <!-- 0.5 -->
      <g transform="translate(381.4576 177.928781) scale(0.1 -0.1)">
       <use xlink:href="#Calibri-30"/>
       <use xlink:href="#Calibri-2e" x="50.683594"/>
       <use xlink:href="#Calibri-35" x="75.927734"/>
      </g>
     </g>
    </g>
    <g id="ytick_15">
     <g id="line2d_26">
      <g>
       <use xlink:href="#m05ecedb383" x="374.4576" y="147.9168" style="stroke: #000000; stroke-width: 0.8"/>
      </g>
     </g>
     <g id="text_29">
      <!-- 0.6 -->
      <g transform="translate(381.4576 151.317581) scale(0.1 -0.1)">
       <use xlink:href="#Calibri-30"/>
       <use xlink:href="#Calibri-2e" x="50.683594"/>
       <use xlink:href="#Calibri-36" x="75.927734"/>
      </g>
     </g>
    </g>
    <g id="ytick_16">
     <g id="line2d_27">
      <g>
       <use xlink:href="#m05ecedb383" x="374.4576" y="121.3056" style="stroke: #000000; stroke-width: 0.8"/>
      </g>
     </g>
     <g id="text_30">
      <!-- 0.7 -->
      <g transform="translate(381.4576 124.706381) scale(0.1 -0.1)">
       <use xlink:href="#Calibri-30"/>
       <use xlink:href="#Calibri-2e" x="50.683594"/>
       <use xlink:href="#Calibri-37" x="75.927734"/>
      </g>
     </g>
    </g>
    <g id="ytick_17">
     <g id="line2d_28">
      <g>
       <use xlink:href="#m05ecedb383" x="374.4576" y="94.6944" style="stroke: #000000; stroke-width: 0.8"/>
      </g>
     </g>
     <g id="text_31">
      <!-- 0.8 -->
      <g transform="translate(381.4576 98.095181) scale(0.1 -0.1)">
       <use xlink:href="#Calibri-30"/>
       <use xlink:href="#Calibri-2e" x="50.683594"/>
       <use xlink:href="#Calibri-38" x="75.927734"/>
      </g>
     </g>
    </g>
    <g id="ytick_18">
     <g id="line2d_29">
      <g>
       <use xlink:href="#m05ecedb383" x="374.4576" y="68.0832" style="stroke: #000000; stroke-width: 0.8"/>
      </g>
     </g>
     <g id="text_32">
      <!-- 0.9 -->
      <g transform="translate(381.4576 71.483981) scale(0.1 -0.1)">
       <use xlink:href="#Calibri-30"/>
       <use xlink:href="#Calibri-2e" x="50.683594"/>
       <use xlink:href="#Calibri-39" x="75.927734"/>
      </g>
     </g>
    </g>
    <g id="ytick_19">
     <g id="line2d_30">
      <g>
       <use xlink:href="#m05ecedb383" x="374.4576" y="41.472" style="stroke: #000000; stroke-width: 0.8"/>
      </g>
     </g>
     <g id="text_33">
      <!-- 1.0 -->
      <g transform="translate(381.4576 44.872781) scale(0.1 -0.1)">
       <use xlink:href="#Calibri-31"/>
       <use xlink:href="#Calibri-2e" x="50.683594"/>
       <use xlink:href="#Calibri-30" x="75.927734"/>
      </g>
     </g>
    </g>
   </g>
   <g id="LineCollection_1"/>
   <g id="patch_8">
    <path d="M 361.152 307.584 
L 367.8048 307.584 
L 374.4576 307.584 
L 374.4576 41.472 
L 367.8048 41.472 
L 361.152 41.472 
L 361.152 307.584 
z
" style="fill: none; stroke: #000000; stroke-width: 0.8; stroke-linejoin: miter; stroke-linecap: square"/>
   </g>
   <g id="text_34">
    <!-- $\mathit{E}_{\mathrm{dis}}$/$\mathit{E}_{\mathrm{i}}$ -->
    <g transform="translate(353.2548 35.472) scale(0.1 -0.1)">
     <defs>
      <path id="DejaVuSans-Oblique-45" d="M 1081 4666 
L 4031 4666 
L 3928 4134 
L 1606 4134 
L 1338 2753 
L 3566 2753 
L 3463 2222 
L 1234 2222 
L 909 531 
L 3284 531 
L 3181 0 
L 172 0 
L 1081 4666 
z
" transform="scale(0.015625)"/>
      <path id="DejaVuSans-64" d="M 2906 2969 
L 2906 4863 
L 3481 4863 
L 3481 0 
L 2906 0 
L 2906 525 
Q 2725 213 2448 61 
Q 2172 -91 1784 -91 
Q 1150 -91 751 415 
Q 353 922 353 1747 
Q 353 2572 751 3078 
Q 1150 3584 1784 3584 
Q 2172 3584 2448 3432 
Q 2725 3281 2906 2969 
z
M 947 1747 
Q 947 1113 1208 752 
Q 1469 391 1925 391 
Q 2381 391 2643 752 
Q 2906 1113 2906 1747 
Q 2906 2381 2643 2742 
Q 2381 3103 1925 3103 
Q 1469 3103 1208 2742 
Q 947 2381 947 1747 
z
" transform="scale(0.015625)"/>
      <path id="DejaVuSans-69" d="M 603 3500 
L 1178 3500 
L 1178 0 
L 603 0 
L 603 3500 
z
M 603 4863 
L 1178 4863 
L 1178 4134 
L 603 4134 
L 603 4863 
z
" transform="scale(0.015625)"/>
      <path id="DejaVuSans-73" d="M 2834 3397 
L 2834 2853 
Q 2591 2978 2328 3040 
Q 2066 3103 1784 3103 
Q 1356 3103 1142 2972 
Q 928 2841 928 2578 
Q 928 2378 1081 2264 
Q 1234 2150 1697 2047 
L 1894 2003 
Q 2506 1872 2764 1633 
Q 3022 1394 3022 966 
Q 3022 478 2636 193 
Q 2250 -91 1575 -91 
Q 1294 -91 989 -36 
Q 684 19 347 128 
L 347 722 
Q 666 556 975 473 
Q 1284 391 1588 391 
Q 1994 391 2212 530 
Q 2431 669 2431 922 
Q 2431 1156 2273 1281 
Q 2116 1406 1581 1522 
L 1381 1569 
Q 847 1681 609 1914 
Q 372 2147 372 2553 
Q 372 3047 722 3315 
Q 1072 3584 1716 3584 
Q 2034 3584 2315 3537 
Q 2597 3491 2834 3397 
z
" transform="scale(0.015625)"/>
     </defs>
     <use xlink:href="#DejaVuSans-Oblique-45" transform="translate(0 0.09375)"/>
     <use xlink:href="#DejaVuSans-64" transform="translate(63.183594 -16.3125) scale(0.7)"/>
     <use xlink:href="#DejaVuSans-69" transform="translate(107.617188 -16.3125) scale(0.7)"/>
     <use xlink:href="#DejaVuSans-73" transform="translate(127.06543 -16.3125) scale(0.7)"/>
     <use xlink:href="#Calibri-2f" transform="translate(166.269531 0.09375)"/>
     <use xlink:href="#DejaVuSans-Oblique-45" transform="translate(204.892578 0.09375)"/>
     <use xlink:href="#DejaVuSans-69" transform="translate(268.076172 -16.3125) scale(0.7)"/>
    </g>
   </g>
  </g>
 </g>
 <defs>
  <clipPath id="p247bb594ee">
   <rect x="57.6" y="41.472" width="285.696" height="266.112"/>
  </clipPath>
  <clipPath id="p2b65bd9b1f">
   <rect x="361.152" y="41.472" width="13.3056" height="266.112"/>
  </clipPath>
 </defs>
</svg>
