<?xml version="1.0" encoding="utf-8" standalone="no"?>
<!DOCTYPE svg PUBLIC "-//W3C//DTD SVG 1.1//EN"
  "http://www.w3.org/Graphics/SVG/1.1/DTD/svg11.dtd">
<svg xmlns:xlink="http://www.w3.org/1999/xlink" width="460.8pt" height="345.6pt" viewBox="0 0 460.8 345.6" xmlns="http://www.w3.org/2000/svg" version="1.1">
 <metadata>
  <rdf:RDF xmlns:dc="http://purl.org/dc/elements/1.1/" xmlns:cc="http://creativecommons.org/ns#" xmlns:rdf="http://www.w3.org/1999/02/22-rdf-syntax-ns#">
   <cc:Work>
    <dc:type rdf:resource="http://purl.org/dc/dcmitype/StillImage"/>
    <dc:date>2024-01-22T08:51:53.717457</dc:date>
    <dc:format>image/svg+xml</dc:format>
    <dc:creator>
     <cc:Agent>
      <dc:title>Matplotlib v3.7.1, https://matplotlib.org/</dc:title>
     </cc:Agent>
    </dc:creator>
   </cc:Work>
  </rdf:RDF>
 </metadata>
 <defs>
  <style type="text/css">*{stroke-linejoin: round; stroke-linecap: butt}</style>
 </defs>
 <g id="figure_1">
  <g id="patch_1">
   <path d="M 0 345.6 
L 460.8 345.6 
L 460.8 0 
L 0 0 
z
" style="fill: #ffffff"/>
  </g>
  <g id="axes_1">
   <g id="patch_2">
    <path d="M 57.6 307.584 
L 343.296 307.584 
L 343.296 41.472 
L 57.6 41.472 
z
" style="fill: #ffffff"/>
   </g>
   <g id="PathCollection_1">
    <path clip-path="url(#pafdcbe0cef)" style="fill: #0000b6"/>
   </g>
   <g id="PathCollection_2">
    <path clip-path="url(#pafdcbe0cef)" style="fill: #0018ff"/>
   </g>
   <g id="PathCollection_3">
    <path clip-path="url(#pafdcbe0cef)" style="fill: #0080ff"/>
   </g>
   <g id="PathCollection_4">
    <path d="M 57.62857 72.394977 
L 57.79657 72.295039 
L 59.122554 71.474498 
L 59.169042 71.446189 
L 59.227726 71.4096 
L 60.521491 70.5953 
L 60.873368 70.36935 
L 61.532897 69.953896 
L 62.923503 69.05748 
L 63.129276 68.923779 
L 63.463389 68.708166 
L 64.413907 68.0832 
L 64.771034 67.847743 
L 64.894801 67.764601 
L 65.87767 67.10892 
L 66.219313 66.879163 
L 66.390481 66.76147 
L 67.064815 66.306172 
L 67.824234 65.78355 
L 68.541873 65.29672 
L 69.320311 64.7568 
L 69.759852 64.448934 
L 69.894974 64.352514 
L 70.850072 63.682926 
L 72.314476 62.633749 
L 72.445324 62.541284 
L 72.635073 62.40468 
L 73.089031 62.07351 
L 73.973711 61.4304 
L 74.202795 61.261658 
L 75.289756 60.45612 
L 75.421668 60.35753 
L 75.496349 60.300534 
L 76.225982 59.752958 
L 76.92669 59.217673 
L 77.684984 58.645752 
L 78.388406 58.104 
L 78.886943 57.716125 
L 79.060147 57.579013 
L 79.932545 56.89958 
L 81.376315 55.75188 
L 81.474555 55.673099 
L 82.585248 54.7776 
L 82.9431 54.486515 
L 83.082268 54.371218 
L 83.773175 53.80332 
L 84.378973 53.300931 
L 84.766639 52.973022 
L 85.265327 52.557686 
L 86.572067 51.4512 
L 86.577118 51.446878 
L 86.583713 51.441125 
L 87.887431 50.316058 
L 88.404177 49.86286 
L 88.758671 49.556605 
L 89.278093 49.09908 
L 89.997104 48.459905 
L 90.372343 48.1248 
L 91.187613 47.389721 
L 91.448112 47.15052 
L 91.574584 47.034917 
L 91.704876 46.913967 
L 93.068815 45.660434 
L 93.989365 44.7984 
L 94.165944 44.631253 
L 94.243516 44.556707 
L 95.196821 43.653263 
L 96.447227 42.44628 
L 96.616435 42.281377 
L 97.085423 41.820549 
L 97.305935 41.604849 
L 97.440974 41.472 
L 97.245082 41.472 
L 95.72137 41.472 
L 94.197658 41.472 
L 92.673946 41.472 
L 91.150234 41.472 
L 89.626522 41.472 
L 88.10281 41.472 
L 86.579098 41.472 
L 85.055386 41.472 
L 83.531674 41.472 
L 82.007962 41.472 
L 80.48425 41.472 
L 78.960538 41.472 
L 77.436826 41.472 
L 75.913114 41.472 
L 74.389402 41.472 
L 72.86569 41.472 
L 71.341978 41.472 
L 69.818266 41.472 
L 68.294554 41.472 
L 66.770842 41.472 
L 65.24713 41.472 
L 63.723418 41.472 
L 62.199706 41.472 
L 60.675994 41.472 
L 59.152282 41.472 
L 57.62857 41.472 
L 57.62857 44.7984 
L 57.62857 48.1248 
L 57.62857 51.4512 
L 57.62857 54.7776 
L 57.62857 58.104 
L 57.62857 61.4304 
L 57.62857 64.7568 
L 57.62857 68.0832 
L 57.62857 71.4096 
" clip-path="url(#pafdcbe0cef)" style="fill: #00e4f8"/>
   </g>
   <g id="PathCollection_5">
    <path d="M 97.440974 41.472 
L 97.305935 41.604849 
L 97.085423 41.820549 
L 96.616435 42.281377 
L 96.447227 42.44628 
L 95.196821 43.653263 
L 94.243516 44.556707 
L 94.165944 44.631253 
L 93.989365 44.7984 
L 93.068815 45.660434 
L 91.704876 46.913967 
L 91.574584 47.034917 
L 91.448112 47.15052 
L 91.187613 47.389721 
L 90.372343 48.1248 
L 89.997104 48.459905 
L 89.278093 49.09908 
L 88.758671 49.556605 
L 88.404177 49.86286 
L 87.887431 50.316058 
L 86.583713 51.441125 
L 86.577118 51.446878 
L 86.572067 51.4512 
L 85.265327 52.557686 
L 84.766639 52.973022 
L 84.378973 53.300931 
L 83.773175 53.80332 
L 83.082268 54.371218 
L 82.9431 54.486515 
L 82.585248 54.7776 
L 81.474555 55.673099 
L 81.376315 55.75188 
L 79.932545 56.89958 
L 79.060147 57.579013 
L 78.886943 57.716125 
L 78.388406 58.104 
L 77.684984 58.645752 
L 76.92669 59.217673 
L 76.225982 59.752958 
L 75.496349 60.300534 
L 75.421668 60.35753 
L 75.289756 60.45612 
L 74.202795 61.261658 
L 73.973711 61.4304 
L 73.089031 62.07351 
L 72.635073 62.40468 
L 72.445324 62.541284 
L 72.314476 62.633749 
L 70.850072 63.682926 
L 69.894974 64.352514 
L 69.759852 64.448934 
L 69.320311 64.7568 
L 68.541873 65.29672 
L 67.824234 65.78355 
L 67.064815 66.306172 
L 66.390481 66.76147 
L 66.219313 66.879163 
L 65.87767 67.10892 
L 64.894801 67.764601 
L 64.771034 67.847743 
L 64.413907 68.0832 
L 63.463389 68.708166 
L 63.129276 68.923779 
L 62.923503 69.05748 
L 61.532897 69.953896 
L 60.873368 70.36935 
L 60.521491 70.5953 
L 59.227726 71.4096 
L 59.169042 71.446189 
L 59.122554 71.474498 
L 57.79657 72.295039 
L 57.62857 72.394977 
L 57.62857 74.736 
L 57.62857 78.0624 
L 57.62857 81.3888 
L 57.62857 84.7152 
L 57.62857 88.0416 
L 57.62857 91.368 
L 57.62857 94.6944 
L 57.62857 98.0208 
L 57.62857 101.3472 
L 57.62857 104.6736 
L 57.62857 108 
L 57.62857 111.3264 
L 57.62857 114.6528 
L 57.62857 117.9792 
L 57.62857 119.588099 
L 57.918206 119.50571 
L 58.539846 119.316201 
L 59.619206 118.998537 
L 60.535976 118.717158 
L 60.801152 118.638841 
L 62.077017 118.24704 
L 62.293055 118.182991 
L 62.952156 117.9792 
L 63.680363 117.752281 
L 63.772104 117.722602 
L 64.959943 117.352245 
L 65.634664 117.133178 
L 66.555466 116.844075 
L 67.014615 116.694408 
L 67.619053 116.504521 
L 69.208203 115.984622 
L 69.426704 115.915494 
L 70.261878 115.641164 
L 70.269846 115.638642 
L 70.304915 115.62708 
L 71.85185 115.11386 
L 72.105202 115.03026 
L 73.220638 114.6528 
L 74.069918 114.363902 
L 75.10358 114.006993 
L 75.71149 113.79952 
L 76.057226 113.67852 
L 76.34064 113.579652 
L 76.417387 113.551926 
L 78.174326 112.93643 
L 78.690713 112.748498 
L 79.196606 112.570585 
L 80.058044 112.256845 
L 80.791753 111.997708 
L 81.962067 111.568285 
L 82.04807 111.53779 
L 82.623736 111.3264 
L 83.39999 111.038924 
L 83.719616 110.916105 
L 84.894363 110.47774 
L 85.241855 110.343622 
L 85.999338 110.060733 
L 87.409101 109.514427 
L 87.735691 109.39152 
L 88.528481 109.082924 
L 88.588505 109.060316 
L 88.808633 108.97428 
L 90.129216 108.454569 
L 90.361716 108.363597 
L 91.268647 108 
L 92.044452 107.688678 
L 92.240521 107.608069 
L 93.665338 107.02572 
L 93.737725 106.995925 
L 93.758724 106.986975 
L 94.57275 106.650502 
L 94.874854 106.52162 
L 96.297293 105.930891 
L 97.06954 105.598782 
L 97.394878 105.463092 
L 98.655785 104.920308 
L 98.845403 104.840845 
L 99.230774 104.6736 
L 100.211049 104.244286 
L 100.389227 104.163833 
L 101.383121 103.728112 
L 102.47644 103.232274 
L 103.0208 102.991645 
L 103.33993 102.842706 
L 103.33993 101.3472 
L 103.33993 98.0208 
L 103.33993 94.6944 
L 103.33993 91.368 
L 103.33993 88.0416 
L 103.33993 84.7152 
L 103.33993 81.3888 
L 103.33993 78.0624 
L 103.33993 74.736 
L 103.33993 71.4096 
L 103.33993 68.0832 
L 103.33993 64.7568 
L 103.33993 61.4304 
L 103.33993 58.104 
L 103.33993 54.7776 
L 103.33993 51.4512 
L 103.33993 48.1248 
L 103.33993 44.7984 
L 103.33993 41.472 
L 101.816218 41.472 
L 100.292506 41.472 
L 98.768794 41.472 
" clip-path="url(#pafdcbe0cef)" style="fill: #53ffa4"/>
   </g>
   <g id="PathCollection_6">
    <path d="M 103.33993 102.842706 
L 103.0208 102.991645 
L 102.47644 103.232274 
L 101.383121 103.728112 
L 100.389227 104.163833 
L 100.211049 104.244286 
L 99.230774 104.6736 
L 98.845403 104.840845 
L 98.655785 104.920308 
L 97.394878 105.463092 
L 97.06954 105.598782 
L 96.297293 105.930891 
L 94.874854 106.52162 
L 94.57275 106.650502 
L 93.758724 106.986975 
L 93.737725 106.995925 
L 93.665338 107.02572 
L 92.240521 107.608069 
L 92.044452 107.688678 
L 91.268647 108 
L 90.361716 108.363597 
L 90.129216 108.454569 
L 88.808633 108.97428 
L 88.588505 109.060316 
L 88.528481 109.082924 
L 87.735691 109.39152 
L 87.409101 109.514427 
L 85.999338 110.060733 
L 85.241855 110.343622 
L 84.894363 110.47774 
L 83.719616 110.916105 
L 83.39999 111.038924 
L 82.623736 111.3264 
L 82.04807 111.53779 
L 81.962067 111.568285 
L 80.791753 111.997708 
L 80.058044 112.256845 
L 79.196606 112.570585 
L 78.690713 112.748498 
L 78.174326 112.93643 
L 76.417387 113.551926 
L 76.34064 113.579652 
L 76.057226 113.67852 
L 75.71149 113.79952 
L 75.10358 114.006993 
L 74.069918 114.363902 
L 73.220638 114.6528 
L 72.105202 115.03026 
L 71.85185 115.11386 
L 70.304915 115.62708 
L 70.269846 115.638642 
L 70.261878 115.641164 
L 69.426704 115.915494 
L 69.208203 115.984622 
L 67.619053 116.504521 
L 67.014615 116.694408 
L 66.555466 116.844075 
L 65.634664 117.133178 
L 64.959943 117.352245 
L 63.772104 117.722602 
L 63.680363 117.752281 
L 62.952156 117.9792 
L 62.293055 118.182991 
L 62.077017 118.24704 
L 60.801152 118.638841 
L 60.535976 118.717158 
L 59.619206 118.998537 
L 58.539846 119.316201 
L 57.918206 119.50571 
L 57.62857 119.588099 
L 57.62857 121.3056 
L 57.62857 124.632 
L 57.62857 127.9584 
L 57.62857 131.2848 
L 57.62857 134.6112 
L 57.62857 137.9376 
L 57.62857 141.264 
L 57.62857 144.5904 
L 57.62857 147.9168 
L 57.62857 151.2432 
L 57.62857 154.5696 
L 57.62857 157.896 
L 57.62857 160.637226 
L 57.906408 160.615854 
L 58.435645 160.57437 
L 60.013592 160.443547 
L 60.869969 160.372902 
L 61.22898 160.344607 
L 62.389597 160.24812 
L 63.24444 160.17675 
L 63.291518 160.172304 
L 64.141829 160.101216 
L 64.241291 160.091835 
L 66.178666 159.929627 
L 66.388764 159.909718 
L 67.140954 159.846655 
L 67.412811 159.820924 
L 69.110981 159.678335 
L 69.486872 159.64259 
L 70.139251 159.587736 
L 70.58651 159.545254 
L 72.041327 159.422743 
L 72.58587 159.370774 
L 73.136696 159.324324 
L 73.762459 159.264672 
L 74.969642 159.162716 
L 75.685786 159.09412 
L 76.133261 159.056273 
L 76.940731 158.979019 
L 77.895859 158.89811 
L 78.786649 158.812469 
L 79.128917 158.783434 
L 80.121403 158.688126 
L 80.81991 158.628777 
L 81.888492 158.525656 
L 82.123635 158.505648 
L 83.304556 158.391818 
L 83.741725 158.35456 
L 84.991348 158.233508 
L 85.117382 158.222751 
L 86.490273 158.089912 
L 86.661228 158.075297 
L 88.09525 157.935844 
L 88.110128 157.93457 
L 88.50721 157.896 
L 89.578537 157.791246 
L 89.679585 157.780159 
L 91.101734 157.640383 
L 91.200801 157.629488 
L 92.493722 157.502557 
L 92.873336 157.460712 
L 94.092244 157.340422 
L 94.307586 157.316627 
L 95.406364 157.208315 
L 96.070044 157.134812 
L 97.081636 157.034567 
L 97.415562 156.997493 
L 98.316373 156.908326 
L 99.269815 156.802225 
L 100.069869 156.722608 
L 100.524771 156.671858 
L 101.223657 156.602387 
L 102.472762 156.462705 
L 103.056903 156.404325 
L 103.33993 156.370335 
L 103.33993 154.5696 
L 103.33993 151.2432 
L 103.33993 147.9168 
L 103.33993 144.5904 
L 103.33993 141.264 
L 103.33993 137.9376 
L 103.33993 134.6112 
L 103.33993 131.2848 
L 103.33993 127.9584 
L 103.33993 124.632 
L 103.33993 121.3056 
L 103.33993 117.9792 
L 103.33993 114.6528 
L 103.33993 111.3264 
L 103.33993 108 
L 103.33993 104.6736 
" clip-path="url(#pafdcbe0cef)" style="fill: #a4ff53"/>
   </g>
   <g id="PathCollection_7">
    <path d="M 103.33993 156.370335 
L 103.056903 156.404325 
L 102.472762 156.462705 
L 101.223657 156.602387 
L 100.524771 156.671858 
L 100.069869 156.722608 
L 99.269815 156.802225 
L 98.316373 156.908326 
L 97.415562 156.997493 
L 97.081636 157.034567 
L 96.070044 157.134812 
L 95.406364 157.208315 
L 94.307586 157.316627 
L 94.092244 157.340422 
L 92.873336 157.460712 
L 92.493722 157.502557 
L 91.200801 157.629488 
L 91.101734 157.640383 
L 89.679585 157.780159 
L 89.578537 157.791246 
L 88.50721 157.896 
L 88.110128 157.93457 
L 88.09525 157.935844 
L 86.661228 158.075297 
L 86.490273 158.089912 
L 85.117382 158.222751 
L 84.991348 158.233508 
L 83.741725 158.35456 
L 83.304556 158.391818 
L 82.123635 158.505648 
L 81.888492 158.525656 
L 80.81991 158.628777 
L 80.121403 158.688126 
L 79.128917 158.783434 
L 78.786649 158.812469 
L 77.895859 158.89811 
L 76.940731 158.979019 
L 76.133261 159.056273 
L 75.685786 159.09412 
L 74.969642 159.162716 
L 73.762459 159.264672 
L 73.136696 159.324324 
L 72.58587 159.370774 
L 72.041327 159.422743 
L 70.58651 159.545254 
L 70.139251 159.587736 
L 69.486872 159.64259 
L 69.110981 159.678335 
L 67.412811 159.820924 
L 67.140954 159.846655 
L 66.388764 159.909718 
L 66.178666 159.929627 
L 64.241291 160.091835 
L 64.141829 160.101216 
L 63.291518 160.172304 
L 63.24444 160.17675 
L 62.389597 160.24812 
L 61.22898 160.344607 
L 60.869969 160.372902 
L 60.013592 160.443547 
L 58.435645 160.57437 
L 57.906408 160.615854 
L 57.62857 160.637226 
L 57.62857 161.2224 
L 57.62857 164.5488 
L 57.62857 167.8752 
L 57.62857 171.2016 
L 57.62857 174.528 
L 57.62857 177.8544 
L 57.62857 181.1808 
L 57.62857 184.5072 
L 57.62857 187.8336 
L 57.62857 191.16 
L 57.62857 194.4864 
L 57.62857 197.8128 
L 57.62857 198.098047 
L 57.683617 198.102924 
L 58.974199 198.201571 
L 59.34498 198.233478 
L 60.578114 198.328668 
L 60.777146 198.345917 
L 61.915068 198.434189 
L 62.508053 198.48595 
L 63.579765 198.569915 
L 63.871944 198.595602 
L 64.853166 198.672858 
L 65.674404 198.745578 
L 66.580191 198.817612 
L 66.968056 198.852205 
L 67.788405 198.917768 
L 68.844148 199.012614 
L 69.579354 199.071968 
L 70.065524 199.115963 
L 70.720693 199.16912 
L 72.017406 199.287322 
L 72.577212 199.333205 
L 73.164397 199.387123 
L 73.649936 199.427119 
L 75.194305 199.569977 
L 75.57372 199.601553 
L 76.264724 199.665945 
L 76.576034 199.691984 
L 78.374977 199.860869 
L 78.568834 199.877253 
L 79.366557 199.952701 
L 79.498884 199.963941 
L 81.559562 200.160303 
L 81.562505 200.160555 
L 81.607968 200.16492 
L 82.317715 200.232443 
L 82.555187 200.256197 
L 84.319922 200.426415 
L 84.866251 200.479173 
L 85.973507 200.591586 
L 87.066349 200.698595 
L 89.172895 200.914855 
L 89.403786 200.937788 
L 89.805132 200.977689 
L 89.928308 200.989949 
L 91.354877 201.1392 
L 92.537389 201.262683 
L 92.848037 201.296625 
L 94.95346 201.518977 
L 95.263405 201.553322 
L 96.307392 201.66912 
L 96.933371 201.738606 
L 97.98118 201.851412 
L 99.780499 202.05405 
L 99.932843 202.07064 
L 100.307807 202.11348 
L 100.729735 202.161208 
L 100.762513 202.165268 
L 102.765347 202.393566 
L 102.9512 202.416823 
L 103.33993 202.459551 
L 103.33993 201.1392 
L 103.33993 197.8128 
L 103.33993 194.4864 
L 103.33993 191.16 
L 103.33993 187.8336 
L 103.33993 184.5072 
L 103.33993 181.1808 
L 103.33993 177.8544 
L 103.33993 174.528 
L 103.33993 171.2016 
L 103.33993 167.8752 
L 103.33993 164.5488 
L 103.33993 161.2224 
L 103.33993 157.896 
" clip-path="url(#pafdcbe0cef)" style="fill: #f8f500"/>
   </g>
   <g id="PathCollection_8">
    <path d="M 103.33993 202.459551 
L 102.9512 202.416823 
L 102.765347 202.393566 
L 100.762513 202.165268 
L 100.729735 202.161208 
L 100.307807 202.11348 
L 99.932843 202.07064 
L 99.780499 202.05405 
L 97.98118 201.851412 
L 96.933371 201.738606 
L 96.307392 201.66912 
L 95.263405 201.553322 
L 94.95346 201.518977 
L 92.848037 201.296625 
L 92.537389 201.262683 
L 91.354877 201.1392 
L 89.928308 200.989949 
L 89.805132 200.977689 
L 89.403786 200.937788 
L 89.172895 200.914855 
L 87.066349 200.698595 
L 85.973507 200.591586 
L 84.866251 200.479173 
L 84.319922 200.426415 
L 82.555187 200.256197 
L 82.317715 200.232443 
L 81.607968 200.16492 
L 81.562505 200.160555 
L 81.559562 200.160303 
L 79.498884 199.963941 
L 79.366557 199.952701 
L 78.568834 199.877253 
L 78.374977 199.860869 
L 76.576034 199.691984 
L 76.264724 199.665945 
L 75.57372 199.601553 
L 75.194305 199.569977 
L 73.649936 199.427119 
L 73.164397 199.387123 
L 72.577212 199.333205 
L 72.017406 199.287322 
L 70.720693 199.16912 
L 70.065524 199.115963 
L 69.579354 199.071968 
L 68.844148 199.012614 
L 67.788405 198.917768 
L 66.968056 198.852205 
L 66.580191 198.817612 
L 65.674404 198.745578 
L 64.853166 198.672858 
L 63.871944 198.595602 
L 63.579765 198.569915 
L 62.508053 198.48595 
L 61.915068 198.434189 
L 60.777146 198.345917 
L 60.578114 198.328668 
L 59.34498 198.233478 
L 58.974199 198.201571 
L 57.683617 198.102924 
L 57.62857 198.098047 
L 57.62857 201.1392 
L 57.62857 204.4656 
L 57.62857 207.792 
L 57.62857 211.1184 
L 57.62857 214.4448 
L 57.62857 217.7712 
L 57.62857 221.0976 
L 57.62857 224.424 
L 57.62857 227.7504 
L 57.62857 231.0768 
L 57.62857 233.857845 
L 57.857305 233.90385 
L 58.817441 234.100415 
L 59.364673 234.211142 
L 60.295843 234.4032 
L 61.639398 234.680305 
L 61.845292 234.723684 
L 62.769552 234.918493 
L 63.779572 235.128994 
L 64.317771 235.243586 
L 64.946358 235.37748 
L 66.202041 235.644942 
L 66.382901 235.684981 
L 67.128491 235.844631 
L 67.465387 235.919455 
L 68.97488 236.244387 
L 69.561363 236.37561 
L 70.054903 236.482416 
L 70.852724 236.661516 
L 71.742551 236.855113 
L 72.742685 237.081313 
L 72.97889 237.132981 
L 74.248034 237.420983 
L 74.504893 237.477473 
L 75.607571 237.7296 
L 75.900414 237.796532 
L 75.927007 237.802827 
L 77.262951 238.109183 
L 77.653251 238.202076 
L 78.819753 238.471599 
L 79.114716 238.542186 
L 80.01629 238.751198 
L 81.068155 239.004317 
L 81.736478 239.160441 
L 82.305574 239.298148 
L 82.763957 239.405593 
L 84.492005 239.82609 
L 84.6505 239.863529 
L 85.4997 240.071333 
L 85.505769 240.072772 
L 85.54213 240.08172 
L 87.204425 240.490538 
L 89.463377 241.056 
L 89.571713 241.083106 
L 89.59108 241.088049 
L 89.689862 241.113276 
L 91.587291 241.593415 
L 91.970286 241.692295 
L 93.278679 242.03028 
L 93.701391 242.139395 
L 93.775852 242.159299 
L 94.579859 242.36803 
L 94.829307 242.434947 
L 96.422839 242.851028 
L 96.983278 243.002581 
L 97.482032 243.133566 
L 98.298212 243.355078 
L 99.137786 243.576856 
L 100.194524 243.865996 
L 100.381081 243.915566 
L 101.778117 244.299224 
L 101.846006 244.317369 
L 102.080863 244.3824 
L 103.277168 244.713184 
L 103.33993 244.731004 
L 103.33993 244.3824 
L 103.33993 241.056 
L 103.33993 237.7296 
L 103.33993 234.4032 
L 103.33993 231.0768 
L 103.33993 227.7504 
L 103.33993 224.424 
L 103.33993 221.0976 
L 103.33993 217.7712 
L 103.33993 214.4448 
L 103.33993 211.1184 
L 103.33993 207.792 
L 103.33993 204.4656 
" clip-path="url(#pafdcbe0cef)" style="fill: #ff9400"/>
   </g>
   <g id="PathCollection_9">
    <path d="M 103.33993 244.731004 
L 103.277168 244.713184 
L 102.080863 244.3824 
L 101.846006 244.317369 
L 101.778117 244.299224 
L 100.381081 243.915566 
L 100.194524 243.865996 
L 99.137786 243.576856 
L 98.298212 243.355078 
L 97.482032 243.133566 
L 96.983278 243.002581 
L 96.422839 242.851028 
L 94.829307 242.434947 
L 94.579859 242.36803 
L 93.775852 242.159299 
L 93.701391 242.139395 
L 93.278679 242.03028 
L 91.970286 241.692295 
L 91.587291 241.593415 
L 89.689862 241.113276 
L 89.59108 241.088049 
L 89.571713 241.083106 
L 89.463377 241.056 
L 87.204425 240.490538 
L 85.54213 240.08172 
L 85.505769 240.072772 
L 85.4997 240.071333 
L 84.6505 239.863529 
L 84.492005 239.82609 
L 82.763957 239.405593 
L 82.305574 239.298148 
L 81.736478 239.160441 
L 81.068155 239.004317 
L 80.01629 238.751198 
L 79.114716 238.542186 
L 78.819753 238.471599 
L 77.653251 238.202076 
L 77.262951 238.109183 
L 75.927007 237.802827 
L 75.900414 237.796532 
L 75.607571 237.7296 
L 74.504893 237.477473 
L 74.248034 237.420983 
L 72.97889 237.132981 
L 72.742685 237.081313 
L 71.742551 236.855113 
L 70.852724 236.661516 
L 70.054903 236.482416 
L 69.561363 236.37561 
L 68.97488 236.244387 
L 67.465387 235.919455 
L 67.128491 235.844631 
L 66.382901 235.684981 
L 66.202041 235.644942 
L 64.946358 235.37748 
L 64.317771 235.243586 
L 63.779572 235.128994 
L 62.769552 234.918493 
L 61.845292 234.723684 
L 61.639398 234.680305 
L 60.295843 234.4032 
L 59.364673 234.211142 
L 58.817441 234.100415 
L 57.857305 233.90385 
L 57.62857 233.857845 
L 57.62857 234.4032 
L 57.62857 237.7296 
L 57.62857 241.056 
L 57.62857 244.3824 
L 57.62857 247.7088 
L 57.62857 251.0352 
L 57.62857 254.3616 
L 57.62857 257.688 
L 57.62857 261.0144 
L 57.62857 264.3408 
L 57.62857 267.6672 
L 57.62857 269.820364 
L 57.839134 269.883834 
L 58.778355 270.177285 
L 59.433662 270.379321 
L 60.63083 270.755568 
L 60.716144 270.78199 
L 61.38731 270.9936 
L 62.096755 271.218351 
L 62.338368 271.296311 
L 63.590294 271.695219 
L 63.873988 271.787171 
L 64.754674 272.068675 
L 65.912255 272.445628 
L 66.461812 272.622324 
L 67.120772 272.83789 
L 67.407397 272.930342 
L 68.67118 273.34572 
L 69.184758 273.515019 
L 70.80686 274.055353 
L 71.190254 274.182801 
L 71.412084 274.256606 
L 71.600622 274.32 
L 73.631809 275.005064 
L 74.480368 275.29428 
L 75.333288 275.585812 
L 75.53549 275.656154 
L 76.244536 275.899659 
L 76.711345 276.06261 
L 77.964288 276.494903 
L 78.797589 276.787591 
L 79.103372 276.893601 
L 80.338892 277.329072 
L 80.589605 277.4164 
L 81.238074 277.6464 
L 81.959236 277.903205 
L 82.06387 277.941061 
L 83.209229 278.350325 
L 83.982987 278.631659 
L 84.811898 278.92969 
L 85.335147 279.120867 
L 85.823057 279.296904 
L 87.640923 279.96446 
L 87.661565 279.971955 
L 87.733551 279.99852 
L 88.200642 280.17085 
L 89.117559 280.512562 
L 89.838916 280.780739 
L 90.350134 280.9728 
L 91.990592 281.590733 
L 92.926757 281.94708 
L 93.628699 282.214887 
L 93.81597 282.287537 
L 94.52757 282.560414 
L 95.011145 282.748715 
L 96.218468 283.213991 
L 97.105117 283.561524 
L 97.36588 283.662538 
L 98.721474 284.195897 
L 98.801789 284.227167 
L 98.983648 284.2992 
L 100.200737 284.782862 
L 100.399486 284.863035 
L 101.378975 285.253741 
L 102.452987 285.689325 
L 103.032054 285.921842 
L 103.33993 286.048521 
L 103.33993 284.2992 
L 103.33993 280.9728 
L 103.33993 277.6464 
L 103.33993 274.32 
L 103.33993 270.9936 
L 103.33993 267.6672 
L 103.33993 264.3408 
L 103.33993 261.0144 
L 103.33993 257.688 
L 103.33993 254.3616 
L 103.33993 251.0352 
L 103.33993 247.7088 
" clip-path="url(#pafdcbe0cef)" style="fill: #ff3800"/>
   </g>
   <g id="PathCollection_10">
    <path d="M 103.33993 286.048521 
L 103.032054 285.921842 
L 102.452987 285.689325 
L 101.378975 285.253741 
L 100.399486 284.863035 
L 100.200737 284.782862 
L 98.983648 284.2992 
L 98.801789 284.227167 
L 98.721474 284.195897 
L 97.36588 283.662538 
L 97.105117 283.561524 
L 96.218468 283.213991 
L 95.011145 282.748715 
L 94.52757 282.560414 
L 93.81597 282.287537 
L 93.628699 282.214887 
L 92.926757 281.94708 
L 91.990592 281.590733 
L 90.350134 280.9728 
L 89.838916 280.780739 
L 89.117559 280.512562 
L 88.200642 280.17085 
L 87.733551 279.99852 
L 87.661565 279.971955 
L 87.640923 279.96446 
L 85.823057 279.296904 
L 85.335147 279.120867 
L 84.811898 278.92969 
L 83.982987 278.631659 
L 83.209229 278.350325 
L 82.06387 277.941061 
L 81.959236 277.903205 
L 81.238074 277.6464 
L 80.589605 277.4164 
L 80.338892 277.329072 
L 79.103372 276.893601 
L 78.797589 276.787591 
L 77.964288 276.494903 
L 76.711345 276.06261 
L 76.244536 275.899659 
L 75.53549 275.656154 
L 75.333288 275.585812 
L 74.480368 275.29428 
L 73.631809 275.005064 
L 71.600622 274.32 
L 71.412084 274.256606 
L 71.190254 274.182801 
L 70.80686 274.055353 
L 69.184758 273.515019 
L 68.67118 273.34572 
L 67.407397 272.930342 
L 67.120772 272.83789 
L 66.461812 272.622324 
L 65.912255 272.445628 
L 64.754674 272.068675 
L 63.873988 271.787171 
L 63.590294 271.695219 
L 62.338368 271.296311 
L 62.096755 271.218351 
L 61.38731 270.9936 
L 60.716144 270.78199 
L 60.63083 270.755568 
L 59.433662 270.379321 
L 58.778355 270.177285 
L 57.839134 269.883834 
L 57.62857 269.820364 
L 57.62857 270.9936 
L 57.62857 274.32 
L 57.62857 277.6464 
L 57.62857 280.9728 
L 57.62857 284.2992 
L 57.62857 287.6256 
L 57.62857 290.952 
L 57.62857 294.2784 
L 57.62857 297.6048 
L 57.62857 300.9312 
L 57.62857 304.2576 
L 57.62857 307.584 
L 59.152282 307.584 
L 60.675994 307.584 
L 62.199706 307.584 
L 63.723418 307.584 
L 65.24713 307.584 
L 66.770842 307.584 
L 68.294554 307.584 
L 69.818266 307.584 
L 71.341978 307.584 
L 72.86569 307.584 
L 74.389402 307.584 
L 75.913114 307.584 
L 77.436826 307.584 
L 78.960538 307.584 
L 80.48425 307.584 
L 82.007962 307.584 
L 83.531674 307.584 
L 85.055386 307.584 
L 86.579098 307.584 
L 88.10281 307.584 
L 89.626522 307.584 
L 91.150234 307.584 
L 92.673946 307.584 
L 94.197658 307.584 
L 95.72137 307.584 
L 97.245082 307.584 
L 98.768794 307.584 
L 100.292506 307.584 
L 101.816218 307.584 
L 103.33993 307.584 
L 103.33993 304.2576 
L 103.33993 300.9312 
L 103.33993 297.6048 
L 103.33993 294.2784 
L 103.33993 290.952 
L 103.33993 287.6256 
" clip-path="url(#pafdcbe0cef)" style="fill: #b60000"/>
   </g>
   <g id="PathCollection_11">
    <path clip-path="url(#pafdcbe0cef)" style="fill: #0000b6"/>
   </g>
   <g id="PathCollection_12">
    <path clip-path="url(#pafdcbe0cef)" style="fill: #0018ff"/>
   </g>
   <g id="PathCollection_13">
    <path clip-path="url(#pafdcbe0cef)" style="fill: #0080ff"/>
   </g>
   <g id="PathCollection_14">
    <path clip-path="url(#pafdcbe0cef)" style="fill: #00e4f8"/>
   </g>
   <g id="PathCollection_15">
    <path d="M 100.4544 104.129049 
L 100.640425 104.056938 
L 101.759035 103.5648 
L 106.567 101.392743 
L 113.816428 97.79275 
L 114.364158 97.533772 
L 114.836112 97.29248 
L 115.318414 97.032945 
L 119.813797 94.6944 
L 121.357719 93.855109 
L 122.018892 93.459927 
L 124.419266 92.09632 
L 128.354759 89.786722 
L 132.283882 87.277463 
L 133.178942 86.738467 
L 134.599384 85.824 
L 138.540278 83.207474 
L 143.625329 79.55168 
L 144.769434 78.697249 
L 145.599692 78.113344 
L 147.101389 76.9536 
L 149.482167 75.058149 
L 150.281164 74.35552 
L 151.129446 73.656662 
L 155.488247 69.868511 
L 157.316336 68.301155 
L 157.552679 68.0832 
L 163.180355 62.707945 
L 164.073854 61.81088 
L 164.453796 61.410572 
L 166.667745 59.2128 
L 168.582357 57.068312 
L 168.995492 56.61472 
L 173.879245 50.969612 
L 174.388759 50.3424 
L 179.115137 44.293433 
L 179.2827 44.07008 
L 180.285416 42.695143 
L 181.183655 41.472 
L 173.30688 41.472 
L 165.21216 41.472 
L 157.11744 41.472 
L 149.02272 41.472 
L 140.928 41.472 
L 132.83328 41.472 
L 124.73856 41.472 
L 116.64384 41.472 
L 108.54912 41.472 
L 100.4544 41.472 
L 100.4544 50.3424 
L 100.4544 59.2128 
L 100.4544 68.0832 
L 100.4544 76.9536 
L 100.4544 85.824 
L 100.4544 94.6944 
L 100.4544 103.5648 
" clip-path="url(#pafdcbe0cef)" style="fill: #53ffa4"/>
   </g>
   <g id="PathCollection_16">
    <path d="M 181.183655 41.472 
L 180.285416 42.695143 
L 179.2827 44.07008 
L 179.115137 44.293433 
L 174.388759 50.3424 
L 173.879245 50.969612 
L 168.995492 56.61472 
L 168.582357 57.068312 
L 166.667745 59.2128 
L 164.453796 61.410572 
L 164.073854 61.81088 
L 163.180355 62.707945 
L 157.552679 68.0832 
L 157.316336 68.301155 
L 155.488247 69.868511 
L 151.129446 73.656662 
L 150.281164 74.35552 
L 149.482167 75.058149 
L 147.101389 76.9536 
L 145.599692 78.113344 
L 144.769434 78.697249 
L 143.625329 79.55168 
L 138.540278 83.207474 
L 134.599384 85.824 
L 133.178942 86.738467 
L 132.283882 87.277463 
L 128.354759 89.786722 
L 124.419266 92.09632 
L 122.018892 93.459927 
L 121.357719 93.855109 
L 119.813797 94.6944 
L 115.318414 97.032945 
L 114.836112 97.29248 
L 114.364158 97.533772 
L 113.816428 97.79275 
L 106.567 101.392743 
L 101.759035 103.5648 
L 100.640425 104.056938 
L 100.4544 104.129049 
L 100.4544 112.4352 
L 100.4544 121.3056 
L 100.4544 130.176 
L 100.4544 139.0464 
L 100.4544 147.9168 
L 100.4544 156.6813 
L 100.496469 156.675905 
L 107.746628 155.907808 
L 109.588207 155.648542 
L 115.950656 154.953342 
L 117.416427 154.743278 
L 122.38073 154.20343 
L 127.81958 153.41094 
L 131.404731 153.007893 
L 134.431851 152.55809 
L 136.82436 152.290327 
L 146.346816 150.849123 
L 146.76005 150.801179 
L 148.611032 150.51488 
L 150.351402 150.256153 
L 152.974575 149.79727 
L 159.086999 148.810794 
L 160.091477 148.655103 
L 164.110735 147.9168 
L 169.411285 146.949721 
L 170.609033 146.692232 
L 177.266614 145.31872 
L 178.745409 145.006079 
L 179.193322 144.888525 
L 183.274372 144.000924 
L 185.516319 143.407786 
L 192.12055 141.922098 
L 197.025305 140.543084 
L 198.065416 140.301388 
L 202.482708 139.0464 
L 205.010491 138.306423 
L 207.008358 137.597063 
L 212.57248 135.850568 
L 215.383692 134.805012 
L 217.414725 134.158498 
L 220.974944 132.77408 
L 224.488065 131.361994 
L 227.257519 130.176 
L 231.105942 128.448508 
L 232.558417 127.676694 
L 232.755512 127.57792 
L 240.236603 123.685692 
L 244.10467 121.3056 
L 245.760111 120.249365 
L 246.856411 119.461513 
L 250.430006 117.115082 
L 253.140752 115.03328 
L 255.606546 113.049092 
L 255.885931 112.840306 
L 256.340147 112.4352 
L 257.05559 111.739727 
L 258.425634 110.541708 
L 259.251299 109.83712 
L 259.651028 109.478913 
L 260.407194 108.701428 
L 263.251832 105.953823 
L 265.486369 103.5648 
L 267.944006 100.825769 
L 270.716167 97.29248 
L 272.081484 95.437881 
L 272.310422 95.157857 
L 272.622916 94.6944 
L 272.994843 94.061036 
L 273.51577 93.299888 
L 274.388651 92.09632 
L 275.147223 90.978437 
L 278.236301 85.824 
L 278.418065 85.506069 
L 279.257404 83.92141 
L 281.356553 80.041979 
L 281.590408 79.55168 
L 281.757941 79.166399 
L 282.91296 76.9536 
L 283.528611 75.544518 
L 284.065597 74.35552 
L 286.637544 68.088223 
L 286.639369 68.0832 
L 286.643231 68.071945 
L 289.000261 61.81088 
L 289.444933 60.489171 
L 289.65968 59.964181 
L 289.906972 59.2128 
L 290.376505 57.513584 
L 290.702352 56.61472 
L 291.134892 55.275732 
L 292.571463 50.3424 
L 293.476492 47.032311 
L 294.242404 44.07008 
L 294.850044 41.60609 
L 294.883068 41.472 
L 294.72768 41.472 
L 286.63296 41.472 
L 278.53824 41.472 
L 270.44352 41.472 
L 262.3488 41.472 
L 254.25408 41.472 
L 246.15936 41.472 
L 238.06464 41.472 
L 229.96992 41.472 
L 221.8752 41.472 
L 213.78048 41.472 
L 205.68576 41.472 
L 197.59104 41.472 
L 189.49632 41.472 
L 181.4016 41.472 
" clip-path="url(#pafdcbe0cef)" style="fill: #a4ff53"/>
   </g>
   <g id="PathCollection_17">
    <path d="M 294.883068 41.472 
L 294.850044 41.60609 
L 294.242404 44.07008 
L 293.476492 47.032311 
L 292.571463 50.3424 
L 291.134892 55.275732 
L 290.702352 56.61472 
L 290.376505 57.513584 
L 289.906972 59.2128 
L 289.65968 59.964181 
L 289.444933 60.489171 
L 289.000261 61.81088 
L 286.643231 68.071945 
L 286.639369 68.0832 
L 286.637544 68.088223 
L 284.065597 74.35552 
L 283.528611 75.544518 
L 282.91296 76.9536 
L 281.757941 79.166399 
L 281.590408 79.55168 
L 281.356553 80.041979 
L 279.257404 83.92141 
L 278.418065 85.506069 
L 278.236301 85.824 
L 275.147223 90.978437 
L 274.388651 92.09632 
L 273.51577 93.299888 
L 272.994843 94.061036 
L 272.622916 94.6944 
L 272.310422 95.157857 
L 272.081484 95.437881 
L 270.716167 97.29248 
L 267.944006 100.825769 
L 265.486369 103.5648 
L 263.251832 105.953823 
L 260.407194 108.701428 
L 259.651028 109.478913 
L 259.251299 109.83712 
L 258.425634 110.541708 
L 257.05559 111.739727 
L 256.340147 112.4352 
L 255.885931 112.840306 
L 255.606546 113.049092 
L 253.140752 115.03328 
L 250.430006 117.115082 
L 246.856411 119.461513 
L 245.760111 120.249365 
L 244.10467 121.3056 
L 240.236603 123.685692 
L 232.755512 127.57792 
L 232.558417 127.676694 
L 231.105942 128.448508 
L 227.257519 130.176 
L 224.488065 131.361994 
L 220.974944 132.77408 
L 217.414725 134.158498 
L 215.383692 134.805012 
L 212.57248 135.850568 
L 207.008358 137.597063 
L 205.010491 138.306423 
L 202.482708 139.0464 
L 198.065416 140.301388 
L 197.025305 140.543084 
L 192.12055 141.922098 
L 185.516319 143.407786 
L 183.274372 144.000924 
L 179.193322 144.888525 
L 178.745409 145.006079 
L 177.266614 145.31872 
L 170.609033 146.692232 
L 169.411285 146.949721 
L 164.110735 147.9168 
L 160.091477 148.655103 
L 159.086999 148.810794 
L 152.974575 149.79727 
L 150.351402 150.256153 
L 148.611032 150.51488 
L 146.76005 150.801179 
L 146.346816 150.849123 
L 136.82436 152.290327 
L 134.431851 152.55809 
L 131.404731 153.007893 
L 127.81958 153.41094 
L 122.38073 154.20343 
L 117.416427 154.743278 
L 115.950656 154.953342 
L 109.588207 155.648542 
L 107.746628 155.907808 
L 100.496469 156.675905 
L 100.4544 156.6813 
L 100.4544 156.7872 
L 100.4544 165.6576 
L 100.4544 174.528 
L 100.4544 183.3984 
L 100.4544 192.2688 
L 100.4544 201.1392 
L 100.4544 202.122847 
L 101.469011 202.251037 
L 105.193264 202.662442 
L 113.745683 203.73728 
L 114.219159 203.796227 
L 114.300035 203.808932 
L 118.768508 204.388669 
L 119.753928 204.547313 
L 128.627372 205.748141 
L 131.401305 206.22123 
L 134.119964 206.605605 
L 138.525433 207.376806 
L 142.759228 208.002893 
L 148.681017 209.105605 
L 149.326609 209.205644 
L 153.525181 210.0096 
L 156.59075 210.58676 
L 157.922346 210.891636 
L 164.387621 212.190963 
L 166.201204 212.626171 
L 170.16954 213.447576 
L 178.318912 215.501912 
L 179.247541 215.708286 
L 181.409339 216.28192 
L 187.427982 217.941169 
L 190.000958 218.650942 
L 190.198711 218.705632 
L 190.752082 218.88 
L 195.651074 220.407913 
L 199.13055 221.47808 
L 199.872216 221.715419 
L 200.333749 221.885531 
L 208.509008 224.656613 
L 213.343131 226.59337 
L 214.112965 226.870791 
L 216.227636 227.7504 
L 220.347134 229.424894 
L 225.747381 231.993634 
L 227.988164 232.993247 
L 230.009096 234.02272 
L 232.070593 235.132782 
L 234.970317 236.6208 
L 235.987671 237.136406 
L 236.401511 237.375704 
L 239.574444 239.21888 
L 242.346416 240.79912 
L 245.066482 242.59993 
L 246.839105 243.692896 
L 249.425209 245.4912 
L 252.409539 247.512495 
L 257.814503 251.76352 
L 258.616925 252.381279 
L 260.928409 254.3616 
L 263.521997 256.662354 
L 263.886065 256.95968 
L 264.511695 257.509939 
L 270.343812 263.232 
L 270.397121 263.282845 
L 276.015341 269.50432 
L 276.060366 269.552881 
L 276.917303 270.495288 
L 278.143397 272.1024 
L 279.614402 273.844752 
L 280.215982 274.70048 
L 280.686955 275.288254 
L 284.774486 280.9728 
L 285.607939 282.096044 
L 288.852109 287.24512 
L 289.653433 288.47219 
L 290.410752 289.8432 
L 291.779772 292.179368 
L 291.940267 292.44128 
L 292.111417 292.710168 
L 293.284283 294.895012 
L 294.990229 298.019013 
L 295.327442 298.7136 
L 297.992687 304.006122 
L 298.396574 304.98592 
L 298.716201 305.720173 
L 299.586674 307.584 
L 302.8224 307.584 
L 310.91712 307.584 
L 319.01184 307.584 
L 327.10656 307.584 
L 335.20128 307.584 
L 343.296 307.584 
L 343.296 298.7136 
L 343.296 289.8432 
L 343.296 280.9728 
L 343.296 272.1024 
L 343.296 263.232 
L 343.296 254.3616 
L 343.296 245.4912 
L 343.296 236.6208 
L 343.296 227.7504 
L 343.296 218.88 
L 343.296 210.0096 
L 343.296 201.1392 
L 343.296 192.2688 
L 343.296 183.3984 
L 343.296 174.528 
L 343.296 165.6576 
L 343.296 156.7872 
L 343.296 147.9168 
L 343.296 139.0464 
L 343.296 130.176 
L 343.296 121.3056 
L 343.296 112.4352 
L 343.296 103.5648 
L 343.296 94.6944 
L 343.296 85.824 
L 343.296 76.9536 
L 343.296 68.0832 
L 343.296 59.2128 
L 343.296 50.3424 
L 343.296 41.472 
L 335.20128 41.472 
L 327.10656 41.472 
L 319.01184 41.472 
L 310.91712 41.472 
L 302.8224 41.472 
" clip-path="url(#pafdcbe0cef)" style="fill: #f8f500"/>
   </g>
   <g id="PathCollection_18">
    <path d="M 299.586674 307.584 
L 298.716201 305.720173 
L 298.396574 304.98592 
L 297.992687 304.006122 
L 295.327442 298.7136 
L 294.990229 298.019013 
L 293.284283 294.895012 
L 292.111417 292.710168 
L 291.940267 292.44128 
L 291.779772 292.179368 
L 290.410752 289.8432 
L 289.653433 288.47219 
L 288.852109 287.24512 
L 285.607939 282.096044 
L 284.774486 280.9728 
L 280.686955 275.288254 
L 280.215982 274.70048 
L 279.614402 273.844752 
L 278.143397 272.1024 
L 276.917303 270.495288 
L 276.060366 269.552881 
L 276.015341 269.50432 
L 270.397121 263.282845 
L 270.343812 263.232 
L 264.511695 257.509939 
L 263.886065 256.95968 
L 263.521997 256.662354 
L 260.928409 254.3616 
L 258.616925 252.381279 
L 257.814503 251.76352 
L 252.409539 247.512495 
L 249.425209 245.4912 
L 246.839105 243.692896 
L 245.066482 242.59993 
L 242.346416 240.79912 
L 239.574444 239.21888 
L 236.401511 237.375704 
L 235.987671 237.136406 
L 234.970317 236.6208 
L 232.070593 235.132782 
L 230.009096 234.02272 
L 227.988164 232.993247 
L 225.747381 231.993634 
L 220.347134 229.424894 
L 216.227636 227.7504 
L 214.112965 226.870791 
L 213.343131 226.59337 
L 208.509008 224.656613 
L 200.333749 221.885531 
L 199.872216 221.715419 
L 199.13055 221.47808 
L 195.651074 220.407913 
L 190.752082 218.88 
L 190.198711 218.705632 
L 190.000958 218.650942 
L 187.427982 217.941169 
L 181.409339 216.28192 
L 179.247541 215.708286 
L 178.318912 215.501912 
L 170.16954 213.447576 
L 166.201204 212.626171 
L 164.387621 212.190963 
L 157.922346 210.891636 
L 156.59075 210.58676 
L 153.525181 210.0096 
L 149.326609 209.205644 
L 148.681017 209.105605 
L 142.759228 208.002893 
L 138.525433 207.376806 
L 134.119964 206.605605 
L 131.401305 206.22123 
L 128.627372 205.748141 
L 119.753928 204.547313 
L 118.768508 204.388669 
L 114.300035 203.808932 
L 114.219159 203.796227 
L 113.745683 203.73728 
L 105.193264 202.662442 
L 101.469011 202.251037 
L 100.4544 202.122847 
L 100.4544 210.0096 
L 100.4544 218.88 
L 100.4544 227.7504 
L 100.4544 236.6208 
L 100.4544 243.932858 
L 100.991018 244.071548 
L 106.040182 245.4912 
L 108.038298 246.050971 
L 109.460808 246.490251 
L 115.588389 248.283456 
L 117.988806 249.049384 
L 120.741318 249.871479 
L 126.46925 251.76352 
L 128.785723 252.524569 
L 130.223903 252.999868 
L 134.062589 254.3616 
L 137.927447 255.723568 
L 141.23537 256.95968 
L 145.281284 258.461561 
L 147.571522 259.392774 
L 150.104904 260.369021 
L 156.973409 263.232 
L 157.077991 263.275229 
L 157.212134 263.335768 
L 164.046585 266.315595 
L 166.881292 267.647783 
L 168.582425 268.409178 
L 170.812095 269.50432 
L 174.78176 271.432943 
L 176.0731 272.1024 
L 180.461249 274.34535 
L 181.105798 274.70048 
L 183.328963 275.873852 
L 186.463132 277.648956 
L 190.496701 279.876557 
L 192.308788 280.9728 
L 196.619155 283.543976 
L 199.182728 285.183701 
L 200.885346 286.233215 
L 202.38276 287.24512 
L 206.046276 289.67956 
L 206.126144 289.733875 
L 206.273993 289.8432 
L 206.583683 290.066109 
L 207.358076 290.602274 
L 209.999506 292.44128 
L 210.867459 293.035362 
L 211.935791 293.83337 
L 214.832071 295.931555 
L 218.413761 298.7136 
L 220.453342 300.271708 
L 226.088976 304.98592 
L 226.627916 305.426715 
L 229.080481 307.584 
L 229.96992 307.584 
L 238.06464 307.584 
L 246.15936 307.584 
L 254.25408 307.584 
L 262.3488 307.584 
L 270.44352 307.584 
L 278.53824 307.584 
L 286.63296 307.584 
L 294.72768 307.584 
" clip-path="url(#pafdcbe0cef)" style="fill: #ff9400"/>
   </g>
   <g id="PathCollection_19">
    <path d="M 229.080481 307.584 
L 226.627916 305.426715 
L 226.088976 304.98592 
L 220.453342 300.271708 
L 218.413761 298.7136 
L 214.832071 295.931555 
L 211.935791 293.83337 
L 210.867459 293.035362 
L 209.999506 292.44128 
L 207.358076 290.602274 
L 206.583683 290.066109 
L 206.273993 289.8432 
L 206.126144 289.733875 
L 206.046276 289.67956 
L 202.38276 287.24512 
L 200.885346 286.233215 
L 199.182728 285.183701 
L 196.619155 283.543976 
L 192.308788 280.9728 
L 190.496701 279.876557 
L 186.463132 277.648956 
L 183.328963 275.873852 
L 181.105798 274.70048 
L 180.461249 274.34535 
L 176.0731 272.1024 
L 174.78176 271.432943 
L 170.812095 269.50432 
L 168.582425 268.409178 
L 166.881292 267.647783 
L 164.046585 266.315595 
L 157.212134 263.335768 
L 157.077991 263.275229 
L 156.973409 263.232 
L 150.104904 260.369021 
L 147.571522 259.392774 
L 145.281284 258.461561 
L 141.23537 256.95968 
L 137.927447 255.723568 
L 134.062589 254.3616 
L 130.223903 252.999868 
L 128.785723 252.524569 
L 126.46925 251.76352 
L 120.741318 249.871479 
L 117.988806 249.049384 
L 115.588389 248.283456 
L 109.460808 246.490251 
L 108.038298 246.050971 
L 106.040182 245.4912 
L 100.991018 244.071548 
L 100.4544 243.932858 
L 100.4544 245.4912 
L 100.4544 254.3616 
L 100.4544 263.232 
L 100.4544 272.1024 
L 100.4544 280.9728 
L 100.4544 284.897989 
L 102.20264 285.597867 
L 103.766817 286.213369 
L 106.243133 287.24512 
L 110.428517 288.990131 
L 111.002562 289.234135 
L 112.379106 289.8432 
L 117.39677 292.039623 
L 118.323901 292.44128 
L 118.914931 292.7053 
L 119.507845 292.981649 
L 126.879019 296.368031 
L 131.715826 298.7136 
L 132.659489 299.173374 
L 133.089651 299.391843 
L 138.050755 301.866558 
L 143.97686 304.98592 
L 145.218526 305.636505 
L 148.785882 307.584 
L 149.02272 307.584 
L 157.11744 307.584 
L 165.21216 307.584 
L 173.30688 307.584 
L 181.4016 307.584 
L 189.49632 307.584 
L 197.59104 307.584 
L 205.68576 307.584 
L 213.78048 307.584 
L 221.8752 307.584 
" clip-path="url(#pafdcbe0cef)" style="fill: #ff3800"/>
   </g>
   <g id="PathCollection_20">
    <path d="M 148.785882 307.584 
L 145.218526 305.636505 
L 143.97686 304.98592 
L 138.050755 301.866558 
L 133.089651 299.391843 
L 132.659489 299.173374 
L 131.715826 298.7136 
L 126.879019 296.368031 
L 119.507845 292.981649 
L 118.914931 292.7053 
L 118.323901 292.44128 
L 117.39677 292.039623 
L 112.379106 289.8432 
L 111.002562 289.234135 
L 110.428517 288.990131 
L 106.243133 287.24512 
L 103.766817 286.213369 
L 102.20264 285.597867 
L 100.4544 284.897989 
L 100.4544 289.8432 
L 100.4544 298.7136 
L 100.4544 307.584 
L 108.54912 307.584 
L 116.64384 307.584 
L 124.73856 307.584 
L 132.83328 307.584 
L 140.928 307.584 
" clip-path="url(#pafdcbe0cef)" style="fill: #b60000"/>
   </g>
   <g id="matplotlib.axis_1">
    <g id="xtick_1">
     <g id="line2d_1">
      <defs>
       <path id="m9a6d80e112" d="M 0 0 
L 0 3.5 
" style="stroke: #000000; stroke-width: 0.8"/>
      </defs>
      <g>
       <use xlink:href="#m9a6d80e112" x="57.6" y="307.584" style="stroke: #000000; stroke-width: 0.8"/>
      </g>
     </g>
     <g id="text_1">
      <!-- 0.0 -->
      <g transform="translate(51.26875 321.385562) scale(0.1 -0.1)">
       <defs>
        <path id="Calibri-30" d="M 3022 2031 
Q 3022 1566 2948 1181 
Q 2875 797 2704 520 
Q 2534 244 2259 92 
Q 1984 -59 1581 -59 
Q 1200 -59 939 77 
Q 678 213 518 477 
Q 359 741 292 1127 
Q 225 1513 225 2013 
Q 225 2475 300 2861 
Q 375 3247 544 3523 
Q 713 3800 988 3951 
Q 1263 4103 1663 4103 
Q 2047 4103 2308 3967 
Q 2569 3831 2728 3567 
Q 2888 3303 2955 2917 
Q 3022 2531 3022 2031 
z
M 2472 1994 
Q 2472 2297 2450 2537 
Q 2428 2778 2386 2962 
Q 2344 3147 2276 3280 
Q 2209 3413 2115 3498 
Q 2022 3584 1901 3623 
Q 1781 3663 1631 3663 
Q 1366 3663 1200 3538 
Q 1034 3413 939 3194 
Q 844 2975 809 2681 
Q 775 2388 775 2050 
Q 775 1597 822 1280 
Q 869 963 970 763 
Q 1072 563 1230 472 
Q 1388 381 1613 381 
Q 1788 381 1920 437 
Q 2053 494 2148 598 
Q 2244 703 2306 850 
Q 2369 997 2406 1175 
Q 2444 1353 2458 1561 
Q 2472 1769 2472 1994 
z
" transform="scale(0.015625)"/>
        <path id="Calibri-2e" d="M 1144 341 
Q 1144 119 1070 45 
Q 997 -28 803 -28 
Q 616 -28 544 44 
Q 472 116 472 331 
Q 472 553 545 626 
Q 619 700 813 700 
Q 1000 700 1072 628 
Q 1144 556 1144 341 
z
" transform="scale(0.015625)"/>
       </defs>
       <use xlink:href="#Calibri-30"/>
       <use xlink:href="#Calibri-2e" x="50.683594"/>
       <use xlink:href="#Calibri-30" x="75.927734"/>
      </g>
     </g>
    </g>
    <g id="xtick_2">
     <g id="line2d_2">
      <g>
       <use xlink:href="#m9a6d80e112" x="86.1696" y="307.584" style="stroke: #000000; stroke-width: 0.8"/>
      </g>
     </g>
     <g id="text_2">
      <!-- 0.1 -->
      <g transform="translate(79.83835 321.385562) scale(0.1 -0.1)">
       <defs>
        <path id="Calibri-31" d="M 2897 213 
Q 2897 153 2887 112 
Q 2878 72 2862 47 
Q 2847 22 2826 11 
Q 2806 0 2784 0 
L 672 0 
Q 650 0 631 11 
Q 613 22 595 47 
Q 578 72 568 112 
Q 559 153 559 213 
Q 559 269 568 309 
Q 578 350 592 376 
Q 606 403 626 417 
Q 647 431 672 431 
L 1516 431 
L 1516 3506 
L 734 3041 
Q 675 3009 639 3003 
Q 603 2997 581 3017 
Q 559 3038 551 3084 
Q 544 3131 544 3203 
Q 544 3256 548 3293 
Q 553 3331 562 3356 
Q 572 3381 589 3400 
Q 606 3419 634 3438 
L 1566 4034 
Q 1578 4044 1597 4050 
Q 1616 4056 1644 4062 
Q 1672 4069 1709 4070 
Q 1747 4072 1803 4072 
Q 1878 4072 1928 4065 
Q 1978 4059 2006 4048 
Q 2034 4038 2043 4020 
Q 2053 4003 2053 3984 
L 2053 431 
L 2784 431 
Q 2809 431 2831 417 
Q 2853 403 2867 376 
Q 2881 350 2889 309 
Q 2897 269 2897 213 
z
" transform="scale(0.015625)"/>
       </defs>
       <use xlink:href="#Calibri-30"/>
       <use xlink:href="#Calibri-2e" x="50.683594"/>
       <use xlink:href="#Calibri-31" x="75.927734"/>
      </g>
     </g>
    </g>
    <g id="xtick_3">
     <g id="line2d_3">
      <g>
       <use xlink:href="#m9a6d80e112" x="114.7392" y="307.584" style="stroke: #000000; stroke-width: 0.8"/>
      </g>
     </g>
     <g id="text_3">
      <!-- 0.2 -->
      <g transform="translate(108.40795 321.385562) scale(0.1 -0.1)">
       <defs>
        <path id="Calibri-32" d="M 2888 231 
Q 2888 175 2880 131 
Q 2872 88 2858 58 
Q 2844 28 2820 14 
Q 2797 0 2769 0 
L 534 0 
Q 491 0 458 11 
Q 425 22 401 47 
Q 378 72 367 119 
Q 356 166 356 234 
Q 356 297 361 344 
Q 366 391 381 427 
Q 397 463 420 498 
Q 444 534 481 575 
L 1266 1406 
Q 1538 1694 1702 1922 
Q 1866 2150 1955 2337 
Q 2044 2525 2072 2678 
Q 2100 2831 2100 2966 
Q 2100 3100 2056 3220 
Q 2013 3341 1930 3431 
Q 1847 3522 1722 3575 
Q 1597 3628 1434 3628 
Q 1244 3628 1092 3575 
Q 941 3522 827 3459 
Q 713 3397 636 3344 
Q 559 3291 522 3291 
Q 500 3291 483 3303 
Q 466 3316 455 3344 
Q 444 3372 437 3419 
Q 431 3466 431 3531 
Q 431 3578 434 3612 
Q 438 3647 445 3672 
Q 453 3697 465 3719 
Q 478 3741 515 3773 
Q 553 3806 645 3862 
Q 738 3919 877 3973 
Q 1016 4028 1183 4065 
Q 1350 4103 1534 4103 
Q 1828 4103 2048 4020 
Q 2269 3938 2414 3794 
Q 2559 3650 2631 3459 
Q 2703 3269 2703 3053 
Q 2703 2859 2668 2667 
Q 2634 2475 2523 2251 
Q 2413 2028 2203 1754 
Q 1994 1481 1647 1125 
L 1006 456 
L 2766 456 
Q 2791 456 2814 442 
Q 2838 428 2855 400 
Q 2872 372 2880 330 
Q 2888 288 2888 231 
z
" transform="scale(0.015625)"/>
       </defs>
       <use xlink:href="#Calibri-30"/>
       <use xlink:href="#Calibri-2e" x="50.683594"/>
       <use xlink:href="#Calibri-32" x="75.927734"/>
      </g>
     </g>
    </g>
    <g id="xtick_4">
     <g id="line2d_4">
      <g>
       <use xlink:href="#m9a6d80e112" x="143.3088" y="307.584" style="stroke: #000000; stroke-width: 0.8"/>
      </g>
     </g>
     <g id="text_4">
      <!-- 0.3 -->
      <g transform="translate(136.97755 321.385562) scale(0.1 -0.1)">
       <defs>
        <path id="Calibri-33" d="M 2856 1156 
Q 2856 878 2759 654 
Q 2663 431 2481 272 
Q 2300 113 2034 27 
Q 1769 -59 1434 -59 
Q 1231 -59 1054 -26 
Q 878 6 740 51 
Q 603 97 512 145 
Q 422 194 398 216 
Q 375 238 362 259 
Q 350 281 340 312 
Q 331 344 326 389 
Q 322 434 322 500 
Q 322 613 344 656 
Q 366 700 406 700 
Q 434 700 517 650 
Q 600 600 729 542 
Q 859 484 1032 434 
Q 1206 384 1419 384 
Q 1625 384 1781 437 
Q 1938 491 2044 587 
Q 2150 684 2203 817 
Q 2256 950 2256 1106 
Q 2256 1278 2189 1415 
Q 2122 1553 1992 1653 
Q 1863 1753 1673 1806 
Q 1484 1859 1244 1859 
L 859 1859 
Q 834 1859 811 1870 
Q 788 1881 770 1906 
Q 753 1931 742 1972 
Q 731 2013 731 2078 
Q 731 2138 740 2177 
Q 750 2216 767 2239 
Q 784 2263 806 2273 
Q 828 2284 856 2284 
L 1209 2284 
Q 1416 2284 1580 2337 
Q 1744 2391 1858 2491 
Q 1972 2591 2033 2730 
Q 2094 2869 2094 3041 
Q 2094 3166 2053 3280 
Q 2013 3394 1931 3478 
Q 1850 3563 1723 3611 
Q 1597 3659 1431 3659 
Q 1250 3659 1098 3604 
Q 947 3550 828 3487 
Q 709 3425 631 3370 
Q 553 3316 522 3316 
Q 500 3316 483 3323 
Q 466 3331 455 3354 
Q 444 3378 439 3420 
Q 434 3463 434 3531 
Q 434 3578 437 3614 
Q 441 3650 450 3676 
Q 459 3703 471 3725 
Q 484 3747 514 3776 
Q 544 3806 634 3862 
Q 725 3919 858 3973 
Q 991 4028 1164 4065 
Q 1338 4103 1538 4103 
Q 1819 4103 2031 4031 
Q 2244 3959 2386 3828 
Q 2528 3697 2598 3514 
Q 2669 3331 2669 3109 
Q 2669 2919 2619 2755 
Q 2569 2591 2472 2464 
Q 2375 2338 2234 2248 
Q 2094 2159 1909 2125 
L 1909 2119 
Q 2119 2097 2292 2014 
Q 2466 1931 2591 1806 
Q 2716 1681 2786 1514 
Q 2856 1347 2856 1156 
z
" transform="scale(0.015625)"/>
       </defs>
       <use xlink:href="#Calibri-30"/>
       <use xlink:href="#Calibri-2e" x="50.683594"/>
       <use xlink:href="#Calibri-33" x="75.927734"/>
      </g>
     </g>
    </g>
    <g id="xtick_5">
     <g id="line2d_5">
      <g>
       <use xlink:href="#m9a6d80e112" x="171.8784" y="307.584" style="stroke: #000000; stroke-width: 0.8"/>
      </g>
     </g>
     <g id="text_5">
      <!-- 0.4 -->
      <g transform="translate(165.54715 321.385562) scale(0.1 -0.1)">
       <defs>
        <path id="Calibri-34" d="M 3059 1150 
Q 3059 1047 3028 987 
Q 2997 928 2941 928 
L 2484 928 
L 2484 78 
Q 2484 53 2471 36 
Q 2459 19 2428 6 
Q 2397 -6 2347 -12 
Q 2297 -19 2219 -19 
Q 2144 -19 2094 -12 
Q 2044 -6 2014 6 
Q 1984 19 1973 36 
Q 1963 53 1963 78 
L 1963 928 
L 294 928 
Q 256 928 231 937 
Q 206 947 186 972 
Q 166 997 158 1044 
Q 150 1091 150 1166 
Q 150 1225 153 1272 
Q 156 1319 165 1358 
Q 175 1397 190 1433 
Q 206 1469 228 1509 
L 1684 3966 
Q 1700 3991 1729 4009 
Q 1759 4028 1806 4040 
Q 1853 4053 1922 4058 
Q 1991 4063 2084 4063 
Q 2188 4063 2264 4055 
Q 2341 4047 2387 4034 
Q 2434 4022 2459 4001 
Q 2484 3981 2484 3953 
L 2484 1372 
L 2941 1372 
Q 2994 1372 3026 1317 
Q 3059 1263 3059 1150 
z
M 1963 3591 
L 1956 3591 
L 641 1372 
L 1963 1372 
L 1963 3591 
z
" transform="scale(0.015625)"/>
       </defs>
       <use xlink:href="#Calibri-30"/>
       <use xlink:href="#Calibri-2e" x="50.683594"/>
       <use xlink:href="#Calibri-34" x="75.927734"/>
      </g>
     </g>
    </g>
    <g id="xtick_6">
     <g id="line2d_6">
      <g>
       <use xlink:href="#m9a6d80e112" x="200.448" y="307.584" style="stroke: #000000; stroke-width: 0.8"/>
      </g>
     </g>
     <g id="text_6">
      <!-- 0.5 -->
      <g transform="translate(194.11675 321.385562) scale(0.1 -0.1)">
       <defs>
        <path id="Calibri-35" d="M 2869 1300 
Q 2869 975 2759 722 
Q 2650 469 2450 295 
Q 2250 122 1973 31 
Q 1697 -59 1359 -59 
Q 1172 -59 1003 -32 
Q 834 -6 703 33 
Q 572 72 487 109 
Q 403 147 379 169 
Q 356 191 347 209 
Q 338 228 330 254 
Q 322 281 319 322 
Q 316 363 316 419 
Q 316 472 320 514 
Q 325 556 337 582 
Q 350 609 367 621 
Q 384 634 406 634 
Q 438 634 503 595 
Q 569 556 680 511 
Q 791 466 955 425 
Q 1119 384 1344 384 
Q 1553 384 1728 434 
Q 1903 484 2029 590 
Q 2156 697 2228 858 
Q 2300 1019 2300 1250 
Q 2300 1444 2239 1592 
Q 2178 1741 2051 1839 
Q 1925 1938 1731 1986 
Q 1538 2034 1269 2034 
Q 1078 2034 940 2015 
Q 803 1997 684 1997 
Q 597 1997 559 2037 
Q 522 2078 522 2194 
L 522 3841 
Q 522 3944 570 3994 
Q 619 4044 709 4044 
L 2500 4044 
Q 2525 4044 2548 4030 
Q 2572 4016 2587 3987 
Q 2603 3959 2611 3915 
Q 2619 3872 2619 3813 
Q 2619 3700 2587 3637 
Q 2556 3575 2500 3575 
L 991 3575 
L 991 2441 
Q 1100 2456 1214 2459 
Q 1328 2463 1478 2463 
Q 1825 2463 2084 2380 
Q 2344 2297 2517 2145 
Q 2691 1994 2780 1778 
Q 2869 1563 2869 1300 
z
" transform="scale(0.015625)"/>
       </defs>
       <use xlink:href="#Calibri-30"/>
       <use xlink:href="#Calibri-2e" x="50.683594"/>
       <use xlink:href="#Calibri-35" x="75.927734"/>
      </g>
     </g>
    </g>
    <g id="xtick_7">
     <g id="line2d_7">
      <g>
       <use xlink:href="#m9a6d80e112" x="229.0176" y="307.584" style="stroke: #000000; stroke-width: 0.8"/>
      </g>
     </g>
     <g id="text_7">
      <!-- 0.6 -->
      <g transform="translate(222.68635 321.385562) scale(0.1 -0.1)">
       <defs>
        <path id="Calibri-36" d="M 2991 1309 
Q 2991 1044 2909 795 
Q 2828 547 2659 358 
Q 2491 169 2231 55 
Q 1972 -59 1619 -59 
Q 1366 -59 1172 3 
Q 978 66 834 181 
Q 691 297 595 465 
Q 500 634 442 850 
Q 384 1066 359 1322 
Q 334 1578 334 1872 
Q 334 2131 362 2397 
Q 391 2663 462 2909 
Q 534 3156 657 3373 
Q 781 3591 967 3752 
Q 1153 3913 1412 4006 
Q 1672 4100 2016 4100 
Q 2131 4100 2250 4086 
Q 2369 4072 2469 4048 
Q 2569 4025 2637 3997 
Q 2706 3969 2728 3951 
Q 2750 3934 2761 3914 
Q 2772 3894 2778 3870 
Q 2784 3847 2787 3817 
Q 2791 3788 2791 3744 
Q 2791 3688 2789 3647 
Q 2788 3606 2777 3581 
Q 2766 3556 2748 3543 
Q 2731 3531 2703 3531 
Q 2669 3531 2609 3553 
Q 2550 3575 2465 3601 
Q 2381 3628 2261 3650 
Q 2141 3672 1981 3672 
Q 1691 3672 1481 3553 
Q 1272 3434 1139 3234 
Q 1006 3034 942 2770 
Q 878 2506 869 2219 
Q 950 2266 1051 2312 
Q 1153 2359 1273 2396 
Q 1394 2434 1528 2457 
Q 1663 2481 1816 2481 
Q 2144 2481 2369 2392 
Q 2594 2303 2733 2145 
Q 2872 1988 2931 1773 
Q 2991 1559 2991 1309 
z
M 2447 1259 
Q 2447 1441 2411 1589 
Q 2375 1738 2290 1841 
Q 2206 1944 2065 2000 
Q 1925 2056 1719 2056 
Q 1603 2056 1487 2036 
Q 1372 2016 1264 1980 
Q 1156 1944 1057 1895 
Q 959 1847 878 1791 
Q 878 1388 929 1116 
Q 981 844 1079 680 
Q 1178 516 1325 445 
Q 1472 375 1669 375 
Q 1869 375 2016 450 
Q 2163 525 2259 651 
Q 2356 778 2401 936 
Q 2447 1094 2447 1259 
z
" transform="scale(0.015625)"/>
       </defs>
       <use xlink:href="#Calibri-30"/>
       <use xlink:href="#Calibri-2e" x="50.683594"/>
       <use xlink:href="#Calibri-36" x="75.927734"/>
      </g>
     </g>
    </g>
    <g id="xtick_8">
     <g id="line2d_8">
      <g>
       <use xlink:href="#m9a6d80e112" x="257.5872" y="307.584" style="stroke: #000000; stroke-width: 0.8"/>
      </g>
     </g>
     <g id="text_8">
      <!-- 0.7 -->
      <g transform="translate(251.25595 321.385562) scale(0.1 -0.1)">
       <defs>
        <path id="Calibri-37" d="M 2947 3813 
Q 2947 3756 2942 3711 
Q 2938 3666 2930 3623 
Q 2922 3581 2908 3542 
Q 2894 3503 2875 3459 
L 1419 103 
Q 1403 66 1379 42 
Q 1356 19 1320 5 
Q 1284 -9 1228 -14 
Q 1172 -19 1091 -19 
Q 984 -19 925 -9 
Q 866 0 839 20 
Q 813 41 816 70 
Q 819 100 838 141 
L 2369 3572 
L 428 3572 
Q 369 3572 339 3634 
Q 309 3697 309 3809 
Q 309 3869 317 3912 
Q 325 3956 340 3986 
Q 356 4016 378 4030 
Q 400 4044 428 4044 
L 2784 4044 
Q 2828 4044 2861 4034 
Q 2894 4025 2911 3997 
Q 2928 3969 2937 3925 
Q 2947 3881 2947 3813 
z
" transform="scale(0.015625)"/>
       </defs>
       <use xlink:href="#Calibri-30"/>
       <use xlink:href="#Calibri-2e" x="50.683594"/>
       <use xlink:href="#Calibri-37" x="75.927734"/>
      </g>
     </g>
    </g>
    <g id="xtick_9">
     <g id="line2d_9">
      <g>
       <use xlink:href="#m9a6d80e112" x="286.1568" y="307.584" style="stroke: #000000; stroke-width: 0.8"/>
      </g>
     </g>
     <g id="text_9">
      <!-- 0.8 -->
      <g transform="translate(279.82555 321.385562) scale(0.1 -0.1)">
       <defs>
        <path id="Calibri-38" d="M 2981 1038 
Q 2981 775 2887 570 
Q 2794 366 2617 225 
Q 2441 84 2181 12 
Q 1922 -59 1588 -59 
Q 1275 -59 1028 6 
Q 781 72 609 200 
Q 438 328 347 515 
Q 256 703 256 944 
Q 256 1134 318 1293 
Q 381 1453 498 1587 
Q 616 1722 787 1839 
Q 959 1956 1175 2063 
Q 988 2159 844 2267 
Q 700 2375 600 2501 
Q 500 2628 448 2772 
Q 397 2916 397 3084 
Q 397 3297 473 3483 
Q 550 3669 704 3806 
Q 859 3944 1098 4023 
Q 1338 4103 1656 4103 
Q 1963 4103 2186 4029 
Q 2409 3956 2554 3829 
Q 2700 3703 2769 3531 
Q 2838 3359 2838 3163 
Q 2838 3003 2786 2856 
Q 2734 2709 2634 2578 
Q 2534 2447 2389 2333 
Q 2244 2219 2056 2119 
Q 2278 2009 2451 1893 
Q 2625 1778 2742 1645 
Q 2859 1513 2920 1364 
Q 2981 1216 2981 1038 
z
M 2306 3113 
Q 2306 3244 2261 3350 
Q 2216 3456 2128 3531 
Q 2041 3606 1911 3645 
Q 1781 3684 1616 3684 
Q 1278 3684 1104 3531 
Q 931 3378 931 3113 
Q 931 2991 973 2886 
Q 1016 2781 1105 2687 
Q 1194 2594 1330 2505 
Q 1466 2416 1653 2319 
Q 1969 2481 2137 2678 
Q 2306 2875 2306 3113 
z
M 2438 981 
Q 2438 1125 2384 1242 
Q 2331 1359 2223 1461 
Q 2116 1563 1955 1658 
Q 1794 1753 1581 1856 
Q 1384 1759 1236 1662 
Q 1088 1566 992 1462 
Q 897 1359 848 1245 
Q 800 1131 800 994 
Q 800 691 1008 525 
Q 1216 359 1628 359 
Q 2028 359 2233 526 
Q 2438 694 2438 981 
z
" transform="scale(0.015625)"/>
       </defs>
       <use xlink:href="#Calibri-30"/>
       <use xlink:href="#Calibri-2e" x="50.683594"/>
       <use xlink:href="#Calibri-38" x="75.927734"/>
      </g>
     </g>
    </g>
    <g id="xtick_10">
     <g id="line2d_10">
      <g>
       <use xlink:href="#m9a6d80e112" x="314.7264" y="307.584" style="stroke: #000000; stroke-width: 0.8"/>
      </g>
     </g>
     <g id="text_10">
      <!-- 0.9 -->
      <g transform="translate(308.39515 321.385562) scale(0.1 -0.1)">
       <defs>
        <path id="Calibri-39" d="M 2919 2181 
Q 2919 1919 2887 1650 
Q 2856 1381 2781 1132 
Q 2706 884 2579 667 
Q 2453 450 2261 287 
Q 2069 125 1805 33 
Q 1541 -59 1191 -59 
Q 1056 -59 929 -42 
Q 803 -25 701 0 
Q 600 25 531 53 
Q 463 81 431 109 
Q 400 138 386 186 
Q 372 234 372 316 
Q 372 384 376 425 
Q 381 466 390 487 
Q 400 509 417 517 
Q 434 525 459 525 
Q 494 525 556 501 
Q 619 478 714 450 
Q 809 422 937 398 
Q 1066 375 1225 375 
Q 1528 375 1745 492 
Q 1963 609 2100 806 
Q 2238 1003 2306 1262 
Q 2375 1522 2381 1809 
Q 2216 1713 1984 1638 
Q 1753 1563 1453 1563 
Q 1116 1563 886 1655 
Q 656 1747 517 1906 
Q 378 2066 317 2284 
Q 256 2503 256 2763 
Q 256 3031 334 3273 
Q 413 3516 578 3700 
Q 744 3884 1000 3993 
Q 1256 4103 1613 4103 
Q 1866 4103 2061 4039 
Q 2256 3975 2400 3854 
Q 2544 3734 2644 3564 
Q 2744 3394 2805 3178 
Q 2866 2963 2892 2711 
Q 2919 2459 2919 2181 
z
M 2372 2241 
Q 2372 2641 2319 2914 
Q 2266 3188 2162 3356 
Q 2059 3525 1909 3600 
Q 1759 3675 1563 3675 
Q 1359 3675 1215 3601 
Q 1072 3528 980 3404 
Q 888 3281 844 3125 
Q 800 2969 800 2803 
Q 800 2619 839 2466 
Q 878 2313 965 2206 
Q 1053 2100 1193 2042 
Q 1334 1984 1541 1984 
Q 1775 1984 1994 2054 
Q 2213 2125 2372 2241 
z
" transform="scale(0.015625)"/>
       </defs>
       <use xlink:href="#Calibri-30"/>
       <use xlink:href="#Calibri-2e" x="50.683594"/>
       <use xlink:href="#Calibri-39" x="75.927734"/>
      </g>
     </g>
    </g>
    <g id="xtick_11">
     <g id="line2d_11">
      <g>
       <use xlink:href="#m9a6d80e112" x="343.296" y="307.584" style="stroke: #000000; stroke-width: 0.8"/>
      </g>
     </g>
     <g id="text_11">
      <!-- 1.0 -->
      <g transform="translate(336.96475 321.385562) scale(0.1 -0.1)">
       <use xlink:href="#Calibri-31"/>
       <use xlink:href="#Calibri-2e" x="50.683594"/>
       <use xlink:href="#Calibri-30" x="75.927734"/>
      </g>
     </g>
    </g>
    <g id="text_12">
     <!-- $\mathit{p}$ (cm$^2$/cm$^2$) -->
     <g transform="translate(174.148 336.263687) scale(0.1 -0.1)">
      <defs>
       <path id="DejaVuSans-Oblique-70" d="M 3175 2156 
Q 3175 2616 2975 2859 
Q 2775 3103 2400 3103 
Q 2144 3103 1911 2972 
Q 1678 2841 1497 2591 
Q 1319 2344 1212 1994 
Q 1106 1644 1106 1300 
Q 1106 863 1306 627 
Q 1506 391 1875 391 
Q 2147 391 2380 519 
Q 2613 647 2778 891 
Q 2956 1147 3065 1494 
Q 3175 1841 3175 2156 
z
M 1394 2969 
Q 1625 3272 1939 3428 
Q 2253 3584 2638 3584 
Q 3175 3584 3472 3232 
Q 3769 2881 3769 2247 
Q 3769 1728 3584 1258 
Q 3400 788 3053 416 
Q 2822 169 2531 39 
Q 2241 -91 1919 -91 
Q 1547 -91 1294 64 
Q 1041 219 916 525 
L 556 -1331 
L -19 -1331 
L 922 3500 
L 1497 3500 
L 1394 2969 
z
" transform="scale(0.015625)"/>
       <path id="Calibri-20" transform="scale(0.015625)"/>
       <path id="Calibri-28" d="M 1547 4306 
Q 1250 3678 1104 3017 
Q 959 2356 959 1688 
Q 959 1016 1107 356 
Q 1256 -303 1541 -938 
Q 1556 -975 1557 -1001 
Q 1559 -1028 1537 -1045 
Q 1516 -1063 1470 -1070 
Q 1425 -1078 1347 -1078 
Q 1291 -1078 1250 -1075 
Q 1209 -1072 1179 -1062 
Q 1150 -1053 1131 -1040 
Q 1113 -1028 1103 -1013 
Q 934 -694 806 -367 
Q 678 -41 590 296 
Q 503 634 459 979 
Q 416 1325 416 1678 
Q 416 2031 464 2375 
Q 513 2719 602 3058 
Q 691 3397 819 3725 
Q 947 4053 1106 4375 
Q 1109 4388 1123 4397 
Q 1138 4406 1163 4415 
Q 1188 4425 1231 4429 
Q 1275 4434 1344 4434 
Q 1416 4434 1459 4425 
Q 1503 4416 1528 4400 
Q 1553 4384 1556 4359 
Q 1559 4334 1547 4306 
z
" transform="scale(0.015625)"/>
       <path id="Calibri-63" d="M 2500 506 
Q 2500 453 2497 414 
Q 2494 375 2486 348 
Q 2478 322 2467 301 
Q 2456 281 2417 242 
Q 2378 203 2284 145 
Q 2191 88 2073 42 
Q 1956 -3 1818 -31 
Q 1681 -59 1534 -59 
Q 1231 -59 997 41 
Q 763 141 605 333 
Q 447 525 364 804 
Q 281 1084 281 1450 
Q 281 1866 382 2164 
Q 484 2463 661 2653 
Q 838 2844 1077 2936 
Q 1316 3028 1594 3028 
Q 1728 3028 1854 3003 
Q 1981 2978 2087 2937 
Q 2194 2897 2276 2844 
Q 2359 2791 2396 2753 
Q 2434 2716 2448 2694 
Q 2463 2672 2472 2642 
Q 2481 2613 2484 2575 
Q 2488 2538 2488 2481 
Q 2488 2359 2459 2311 
Q 2431 2263 2391 2263 
Q 2344 2263 2283 2314 
Q 2222 2366 2128 2428 
Q 2034 2491 1901 2542 
Q 1769 2594 1588 2594 
Q 1216 2594 1017 2308 
Q 819 2022 819 1478 
Q 819 1206 870 1001 
Q 922 797 1022 659 
Q 1122 522 1267 455 
Q 1413 388 1600 388 
Q 1778 388 1912 444 
Q 2047 500 2145 567 
Q 2244 634 2311 689 
Q 2378 744 2416 744 
Q 2438 744 2453 731 
Q 2469 719 2480 689 
Q 2491 659 2495 614 
Q 2500 569 2500 506 
z
" transform="scale(0.015625)"/>
       <path id="Calibri-6d" d="M 4650 78 
Q 4650 53 4637 36 
Q 4625 19 4597 6 
Q 4569 -6 4519 -12 
Q 4469 -19 4394 -19 
Q 4316 -19 4266 -12 
Q 4216 -6 4186 6 
Q 4156 19 4143 36 
Q 4131 53 4131 78 
L 4131 1788 
Q 4131 1966 4100 2112 
Q 4069 2259 4000 2365 
Q 3931 2472 3825 2528 
Q 3719 2584 3575 2584 
Q 3397 2584 3217 2446 
Q 3038 2309 2822 2044 
L 2822 78 
Q 2822 53 2809 36 
Q 2797 19 2767 6 
Q 2738 -6 2688 -12 
Q 2638 -19 2563 -19 
Q 2491 -19 2439 -12 
Q 2388 -6 2358 6 
Q 2328 19 2317 36 
Q 2306 53 2306 78 
L 2306 1788 
Q 2306 1966 2272 2112 
Q 2238 2259 2169 2365 
Q 2100 2472 1995 2528 
Q 1891 2584 1747 2584 
Q 1569 2584 1387 2446 
Q 1206 2309 994 2044 
L 994 78 
Q 994 53 981 36 
Q 969 19 941 6 
Q 913 -6 863 -12 
Q 813 -19 734 -19 
Q 659 -19 609 -12 
Q 559 -6 529 6 
Q 500 19 489 36 
Q 478 53 478 78 
L 478 2891 
Q 478 2916 487 2933 
Q 497 2950 525 2964 
Q 553 2978 597 2983 
Q 641 2988 713 2988 
Q 781 2988 826 2983 
Q 872 2978 897 2964 
Q 922 2950 933 2933 
Q 944 2916 944 2891 
L 944 2519 
Q 1181 2784 1404 2907 
Q 1628 3031 1856 3031 
Q 2031 3031 2170 2990 
Q 2309 2950 2415 2876 
Q 2522 2803 2597 2701 
Q 2672 2600 2722 2475 
Q 2863 2628 2989 2734 
Q 3116 2841 3233 2906 
Q 3350 2972 3461 3001 
Q 3572 3031 3684 3031 
Q 3956 3031 4140 2936 
Q 4325 2841 4439 2681 
Q 4553 2522 4601 2308 
Q 4650 2094 4650 1856 
L 4650 78 
z
" transform="scale(0.015625)"/>
       <path id="DejaVuSans-32" d="M 1228 531 
L 3431 531 
L 3431 0 
L 469 0 
L 469 531 
Q 828 903 1448 1529 
Q 2069 2156 2228 2338 
Q 2531 2678 2651 2914 
Q 2772 3150 2772 3378 
Q 2772 3750 2511 3984 
Q 2250 4219 1831 4219 
Q 1534 4219 1204 4116 
Q 875 4013 500 3803 
L 500 4441 
Q 881 4594 1212 4672 
Q 1544 4750 1819 4750 
Q 2544 4750 2975 4387 
Q 3406 4025 3406 3419 
Q 3406 3131 3298 2873 
Q 3191 2616 2906 2266 
Q 2828 2175 2409 1742 
Q 1991 1309 1228 531 
z
" transform="scale(0.015625)"/>
       <path id="Calibri-2f" d="M 525 -753 
Q 513 -794 492 -817 
Q 472 -841 440 -853 
Q 409 -866 364 -872 
Q 319 -878 253 -878 
Q 175 -878 123 -867 
Q 72 -856 44 -836 
Q 16 -816 9 -786 
Q 3 -756 22 -716 
L 1913 4469 
Q 1925 4509 1945 4532 
Q 1966 4556 1995 4570 
Q 2025 4584 2072 4589 
Q 2119 4594 2184 4594 
Q 2263 4594 2313 4583 
Q 2363 4572 2391 4553 
Q 2419 4534 2425 4503 
Q 2431 4472 2416 4431 
L 525 -753 
z
" transform="scale(0.015625)"/>
       <path id="Calibri-29" d="M 1522 1678 
Q 1522 1325 1478 979 
Q 1434 634 1346 296 
Q 1259 -41 1132 -367 
Q 1006 -694 838 -1013 
Q 828 -1028 809 -1040 
Q 791 -1053 761 -1062 
Q 731 -1072 690 -1075 
Q 650 -1078 594 -1078 
Q 513 -1078 467 -1070 
Q 422 -1063 401 -1045 
Q 381 -1028 382 -1001 
Q 384 -975 400 -938 
Q 688 -306 834 355 
Q 981 1016 981 1688 
Q 981 2356 834 3017 
Q 688 3678 394 4306 
Q 381 4334 384 4359 
Q 388 4384 413 4400 
Q 438 4416 481 4425 
Q 525 4434 597 4434 
Q 663 4434 706 4429 
Q 750 4425 776 4415 
Q 803 4406 815 4397 
Q 828 4388 834 4375 
Q 1156 3734 1339 3057 
Q 1522 2381 1522 1678 
z
" transform="scale(0.015625)"/>
      </defs>
      <use xlink:href="#DejaVuSans-Oblique-70" transform="translate(0 0.765625)"/>
      <use xlink:href="#Calibri-20" transform="translate(63.476562 0.765625)"/>
      <use xlink:href="#Calibri-28" transform="translate(84.958984 0.765625)"/>
      <use xlink:href="#Calibri-63" transform="translate(115.28125 0.765625)"/>
      <use xlink:href="#Calibri-6d" transform="translate(157.566406 0.765625)"/>
      <use xlink:href="#DejaVuSans-32" transform="translate(238.40625 39.046875) scale(0.7)"/>
      <use xlink:href="#Calibri-2f" transform="translate(285.676758 0.765625)"/>
      <use xlink:href="#Calibri-63" transform="translate(324.299805 0.765625)"/>
      <use xlink:href="#Calibri-6d" transform="translate(366.584961 0.765625)"/>
      <use xlink:href="#DejaVuSans-32" transform="translate(447.424805 39.046875) scale(0.7)"/>
      <use xlink:href="#Calibri-29" transform="translate(494.695312 0.765625)"/>
     </g>
    </g>
   </g>
   <g id="matplotlib.axis_2">
    <g id="ytick_1">
     <g id="line2d_12">
      <defs>
       <path id="m9b2d83bdf9" d="M 0 0 
L -3.5 0 
" style="stroke: #000000; stroke-width: 0.8"/>
      </defs>
      <g>
       <use xlink:href="#m9b2d83bdf9" x="57.6" y="275.65056" style="stroke: #000000; stroke-width: 0.8"/>
      </g>
     </g>
     <g id="text_13">
      <!-- 25 -->
      <g transform="translate(40.4625 279.051341) scale(0.1 -0.1)">
       <use xlink:href="#Calibri-32"/>
       <use xlink:href="#Calibri-35" x="50.683594"/>
      </g>
     </g>
    </g>
    <g id="ytick_2">
     <g id="line2d_13">
      <g>
       <use xlink:href="#m9b2d83bdf9" x="57.6" y="242.38656" style="stroke: #000000; stroke-width: 0.8"/>
      </g>
     </g>
     <g id="text_14">
      <!-- 50 -->
      <g transform="translate(40.4625 245.787341) scale(0.1 -0.1)">
       <use xlink:href="#Calibri-35"/>
       <use xlink:href="#Calibri-30" x="50.683594"/>
      </g>
     </g>
    </g>
    <g id="ytick_3">
     <g id="line2d_14">
      <g>
       <use xlink:href="#m9b2d83bdf9" x="57.6" y="209.12256" style="stroke: #000000; stroke-width: 0.8"/>
      </g>
     </g>
     <g id="text_15">
      <!-- 75 -->
      <g transform="translate(40.4625 212.523341) scale(0.1 -0.1)">
       <use xlink:href="#Calibri-37"/>
       <use xlink:href="#Calibri-35" x="50.683594"/>
      </g>
     </g>
    </g>
    <g id="ytick_4">
     <g id="line2d_15">
      <g>
       <use xlink:href="#m9b2d83bdf9" x="57.6" y="175.85856" style="stroke: #000000; stroke-width: 0.8"/>
      </g>
     </g>
     <g id="text_16">
      <!-- 100 -->
      <g transform="translate(35.39375 179.259341) scale(0.1 -0.1)">
       <use xlink:href="#Calibri-31"/>
       <use xlink:href="#Calibri-30" x="50.683594"/>
       <use xlink:href="#Calibri-30" x="101.367188"/>
      </g>
     </g>
    </g>
    <g id="ytick_5">
     <g id="line2d_16">
      <g>
       <use xlink:href="#m9b2d83bdf9" x="57.6" y="142.59456" style="stroke: #000000; stroke-width: 0.8"/>
      </g>
     </g>
     <g id="text_17">
      <!-- 125 -->
      <g transform="translate(35.39375 145.995341) scale(0.1 -0.1)">
       <use xlink:href="#Calibri-31"/>
       <use xlink:href="#Calibri-32" x="50.683594"/>
       <use xlink:href="#Calibri-35" x="101.367188"/>
      </g>
     </g>
    </g>
    <g id="ytick_6">
     <g id="line2d_17">
      <g>
       <use xlink:href="#m9b2d83bdf9" x="57.6" y="109.33056" style="stroke: #000000; stroke-width: 0.8"/>
      </g>
     </g>
     <g id="text_18">
      <!-- 150 -->
      <g transform="translate(35.39375 112.731341) scale(0.1 -0.1)">
       <use xlink:href="#Calibri-31"/>
       <use xlink:href="#Calibri-35" x="50.683594"/>
       <use xlink:href="#Calibri-30" x="101.367188"/>
      </g>
     </g>
    </g>
    <g id="ytick_7">
     <g id="line2d_18">
      <g>
       <use xlink:href="#m9b2d83bdf9" x="57.6" y="76.06656" style="stroke: #000000; stroke-width: 0.8"/>
      </g>
     </g>
     <g id="text_19">
      <!-- 175 -->
      <g transform="translate(35.39375 79.467341) scale(0.1 -0.1)">
       <use xlink:href="#Calibri-31"/>
       <use xlink:href="#Calibri-37" x="50.683594"/>
       <use xlink:href="#Calibri-35" x="101.367188"/>
      </g>
     </g>
    </g>
    <g id="ytick_8">
     <g id="line2d_19">
      <g>
       <use xlink:href="#m9b2d83bdf9" x="57.6" y="42.80256" style="stroke: #000000; stroke-width: 0.8"/>
      </g>
     </g>
     <g id="text_20">
      <!-- 200 -->
      <g transform="translate(35.39375 46.203341) scale(0.1 -0.1)">
       <use xlink:href="#Calibri-32"/>
       <use xlink:href="#Calibri-30" x="50.683594"/>
       <use xlink:href="#Calibri-30" x="101.367188"/>
      </g>
     </g>
    </g>
    <g id="text_21">
     <!-- $\mathit{Z}$$_{a}$ (nm) -->
     <g transform="translate(29.59375 191.028) rotate(-90) scale(0.1 -0.1)">
      <defs>
       <path id="DejaVuSans-Oblique-5a" d="M 838 4666 
L 4500 4666 
L 4409 4184 
L 794 531 
L 3769 531 
L 3669 0 
L -141 0 
L -50 481 
L 3566 4134 
L 738 4134 
L 838 4666 
z
" transform="scale(0.015625)"/>
       <path id="DejaVuSans-Oblique-61" d="M 3438 1997 
L 3047 0 
L 2472 0 
L 2578 531 
Q 2325 219 2001 64 
Q 1678 -91 1281 -91 
Q 834 -91 548 182 
Q 263 456 263 884 
Q 263 1497 752 1853 
Q 1241 2209 2100 2209 
L 2900 2209 
L 2931 2363 
Q 2938 2388 2941 2417 
Q 2944 2447 2944 2509 
Q 2944 2788 2717 2942 
Q 2491 3097 2081 3097 
Q 1800 3097 1504 3025 
Q 1209 2953 897 2809 
L 997 3341 
Q 1322 3463 1633 3523 
Q 1944 3584 2234 3584 
Q 2853 3584 3176 3315 
Q 3500 3047 3500 2534 
Q 3500 2431 3484 2292 
Q 3469 2153 3438 1997 
z
M 2816 1759 
L 2241 1759 
Q 1534 1759 1195 1570 
Q 856 1381 856 984 
Q 856 709 1029 553 
Q 1203 397 1509 397 
Q 1978 397 2328 733 
Q 2678 1069 2791 1631 
L 2816 1759 
z
" transform="scale(0.015625)"/>
       <path id="Calibri-6e" d="M 2900 78 
Q 2900 53 2887 36 
Q 2875 19 2847 6 
Q 2819 -6 2769 -12 
Q 2719 -19 2644 -19 
Q 2566 -19 2516 -12 
Q 2466 -6 2437 6 
Q 2409 19 2396 36 
Q 2384 53 2384 78 
L 2384 1725 
Q 2384 1966 2346 2112 
Q 2309 2259 2237 2365 
Q 2166 2472 2052 2528 
Q 1938 2584 1788 2584 
Q 1594 2584 1400 2446 
Q 1206 2309 994 2044 
L 994 78 
Q 994 53 981 36 
Q 969 19 941 6 
Q 913 -6 863 -12 
Q 813 -19 734 -19 
Q 659 -19 609 -12 
Q 559 -6 529 6 
Q 500 19 489 36 
Q 478 53 478 78 
L 478 2891 
Q 478 2916 487 2933 
Q 497 2950 525 2964 
Q 553 2978 597 2983 
Q 641 2988 713 2988 
Q 781 2988 826 2983 
Q 872 2978 897 2964 
Q 922 2950 933 2933 
Q 944 2916 944 2891 
L 944 2519 
Q 1181 2784 1417 2907 
Q 1653 3031 1894 3031 
Q 2175 3031 2367 2936 
Q 2559 2841 2678 2681 
Q 2797 2522 2848 2308 
Q 2900 2094 2900 1794 
L 2900 78 
z
" transform="scale(0.015625)"/>
      </defs>
      <use xlink:href="#DejaVuSans-Oblique-5a" transform="translate(0 0.09375)"/>
      <use xlink:href="#DejaVuSans-Oblique-61" transform="translate(69.462891 -16.3125) scale(0.7)"/>
      <use xlink:href="#Calibri-20" transform="translate(115.092773 0.09375)"/>
      <use xlink:href="#Calibri-28" transform="translate(136.575195 0.09375)"/>
      <use xlink:href="#Calibri-6e" transform="translate(166.897461 0.09375)"/>
      <use xlink:href="#Calibri-6d" transform="translate(219.436523 0.09375)"/>
      <use xlink:href="#Calibri-29" transform="translate(299.319336 0.09375)"/>
     </g>
    </g>
   </g>
   <g id="patch_3">
    <path d="M 57.6 307.584 
L 57.6 41.472 
" style="fill: none; stroke: #000000; stroke-width: 0.8; stroke-linejoin: miter; stroke-linecap: square"/>
   </g>
   <g id="patch_4">
    <path d="M 343.296 307.584 
L 343.296 41.472 
" style="fill: none; stroke: #000000; stroke-width: 0.8; stroke-linejoin: miter; stroke-linecap: square"/>
   </g>
   <g id="patch_5">
    <path d="M 57.6 307.584 
L 343.296 307.584 
" style="fill: none; stroke: #000000; stroke-width: 0.8; stroke-linejoin: miter; stroke-linecap: square"/>
   </g>
   <g id="patch_6">
    <path d="M 57.6 41.472 
L 343.296 41.472 
" style="fill: none; stroke: #000000; stroke-width: 0.8; stroke-linejoin: miter; stroke-linecap: square"/>
   </g>
   <g id="text_22">
    <!-- $\lambda$ = 845 nm -->
    <g transform="translate(177.348 35.472) scale(0.1 -0.1)">
     <defs>
      <path id="DejaVuSans-Oblique-3bb" d="M 2350 4316 
L 3125 0 
L 2516 0 
L 2038 2588 
L 328 0 
L -281 0 
L 1903 3356 
L 1794 3975 
Q 1725 4369 1391 4369 
L 1091 4369 
L 1184 4863 
L 1550 4856 
Q 2253 4847 2350 4316 
z
" transform="scale(0.015625)"/>
      <path id="Calibri-3d" d="M 2891 2409 
Q 2891 2284 2855 2236 
Q 2819 2188 2772 2188 
L 409 2188 
Q 363 2188 328 2236 
Q 294 2284 294 2409 
Q 294 2522 325 2575 
Q 356 2628 409 2628 
L 2772 2628 
Q 2828 2628 2859 2575 
Q 2891 2522 2891 2409 
z
M 2891 1194 
Q 2891 1069 2855 1022 
Q 2819 975 2772 975 
L 409 975 
Q 363 975 328 1022 
Q 294 1069 294 1194 
Q 294 1309 325 1362 
Q 356 1416 409 1416 
L 2772 1416 
Q 2828 1416 2859 1362 
Q 2891 1309 2891 1194 
z
" transform="scale(0.015625)"/>
     </defs>
     <use xlink:href="#DejaVuSans-Oblique-3bb" transform="translate(0 0.015625)"/>
     <use xlink:href="#Calibri-20" transform="translate(59.179688 0.015625)"/>
     <use xlink:href="#Calibri-3d" transform="translate(81.787109 0.015625)"/>
     <use xlink:href="#Calibri-20" transform="translate(131.591797 0.015625)"/>
     <use xlink:href="#Calibri-38" transform="translate(154.199219 0.015625)"/>
     <use xlink:href="#Calibri-34" transform="translate(204.882812 0.015625)"/>
     <use xlink:href="#Calibri-35" transform="translate(255.566406 0.015625)"/>
     <use xlink:href="#Calibri-20" transform="translate(306.25 0.015625)"/>
     <use xlink:href="#Calibri-6e" transform="translate(328.857422 0.015625)"/>
     <use xlink:href="#Calibri-6d" transform="translate(381.396484 0.015625)"/>
    </g>
   </g>
  </g>
  <g id="axes_2">
   <g id="patch_7">
    <path d="M 361.152 307.584 
L 374.4576 307.584 
L 374.4576 41.472 
L 361.152 41.472 
z
" style="fill: #ffffff"/>
   </g>
   <g id="QuadMesh_1">
    <path d="M 361.152 307.584 
L 374.4576 307.584 
L 374.4576 280.9728 
L 361.152 280.9728 
L 361.152 307.584 
" clip-path="url(#p5052fd21e0)" style="fill: #0000b6"/>
    <path d="M 361.152 280.9728 
L 374.4576 280.9728 
L 374.4576 254.3616 
L 361.152 254.3616 
L 361.152 280.9728 
" clip-path="url(#p5052fd21e0)" style="fill: #0018ff"/>
    <path d="M 361.152 254.3616 
L 374.4576 254.3616 
L 374.4576 227.7504 
L 361.152 227.7504 
L 361.152 254.3616 
" clip-path="url(#p5052fd21e0)" style="fill: #0080ff"/>
    <path d="M 361.152 227.7504 
L 374.4576 227.7504 
L 374.4576 201.1392 
L 361.152 201.1392 
L 361.152 227.7504 
" clip-path="url(#p5052fd21e0)" style="fill: #00e4f8"/>
    <path d="M 361.152 201.1392 
L 374.4576 201.1392 
L 374.4576 174.528 
L 361.152 174.528 
L 361.152 201.1392 
" clip-path="url(#p5052fd21e0)" style="fill: #53ffa4"/>
    <path d="M 361.152 174.528 
L 374.4576 174.528 
L 374.4576 147.9168 
L 361.152 147.9168 
L 361.152 174.528 
" clip-path="url(#p5052fd21e0)" style="fill: #a4ff53"/>
    <path d="M 361.152 147.9168 
L 374.4576 147.9168 
L 374.4576 121.3056 
L 361.152 121.3056 
L 361.152 147.9168 
" clip-path="url(#p5052fd21e0)" style="fill: #f8f500"/>
    <path d="M 361.152 121.3056 
L 374.4576 121.3056 
L 374.4576 94.6944 
L 361.152 94.6944 
L 361.152 121.3056 
" clip-path="url(#p5052fd21e0)" style="fill: #ff9400"/>
    <path d="M 361.152 94.6944 
L 374.4576 94.6944 
L 374.4576 68.0832 
L 361.152 68.0832 
L 361.152 94.6944 
" clip-path="url(#p5052fd21e0)" style="fill: #ff3800"/>
    <path d="M 361.152 68.0832 
L 374.4576 68.0832 
L 374.4576 41.472 
L 361.152 41.472 
L 361.152 68.0832 
" clip-path="url(#p5052fd21e0)" style="fill: #b60000"/>
   </g>
   <g id="matplotlib.axis_3"/>
   <g id="matplotlib.axis_4">
    <g id="ytick_9">
     <g id="line2d_20">
      <defs>
       <path id="m0068fa9c72" d="M 0 0 
L 3.5 0 
" style="stroke: #000000; stroke-width: 0.8"/>
      </defs>
      <g>
       <use xlink:href="#m0068fa9c72" x="374.4576" y="307.584" style="stroke: #000000; stroke-width: 0.8"/>
      </g>
     </g>
     <g id="text_23">
      <!-- 0 -->
      <g transform="translate(381.4576 310.984781) scale(0.1 -0.1)">
       <use xlink:href="#Calibri-30"/>
      </g>
     </g>
    </g>
    <g id="ytick_10">
     <g id="line2d_21">
      <g>
       <use xlink:href="#m0068fa9c72" x="374.4576" y="280.9728" style="stroke: #000000; stroke-width: 0.8"/>
      </g>
     </g>
     <g id="text_24">
      <!-- 0.1 -->
      <g transform="translate(381.4576 284.373581) scale(0.1 -0.1)">
       <use xlink:href="#Calibri-30"/>
       <use xlink:href="#Calibri-2e" x="50.683594"/>
       <use xlink:href="#Calibri-31" x="75.927734"/>
      </g>
     </g>
    </g>
    <g id="ytick_11">
     <g id="line2d_22">
      <g>
       <use xlink:href="#m0068fa9c72" x="374.4576" y="254.3616" style="stroke: #000000; stroke-width: 0.8"/>
      </g>
     </g>
     <g id="text_25">
      <!-- 0.2 -->
      <g transform="translate(381.4576 257.762381) scale(0.1 -0.1)">
       <use xlink:href="#Calibri-30"/>
       <use xlink:href="#Calibri-2e" x="50.683594"/>
       <use xlink:href="#Calibri-32" x="75.927734"/>
      </g>
     </g>
    </g>
    <g id="ytick_12">
     <g id="line2d_23">
      <g>
       <use xlink:href="#m0068fa9c72" x="374.4576" y="227.7504" style="stroke: #000000; stroke-width: 0.8"/>
      </g>
     </g>
     <g id="text_26">
      <!-- 0.3 -->
      <g transform="translate(381.4576 231.151181) scale(0.1 -0.1)">
       <use xlink:href="#Calibri-30"/>
       <use xlink:href="#Calibri-2e" x="50.683594"/>
       <use xlink:href="#Calibri-33" x="75.927734"/>
      </g>
     </g>
    </g>
    <g id="ytick_13">
     <g id="line2d_24">
      <g>
       <use xlink:href="#m0068fa9c72" x="374.4576" y="201.1392" style="stroke: #000000; stroke-width: 0.8"/>
      </g>
     </g>
     <g id="text_27">
      <!-- 0.4 -->
      <g transform="translate(381.4576 204.539981) scale(0.1 -0.1)">
       <use xlink:href="#Calibri-30"/>
       <use xlink:href="#Calibri-2e" x="50.683594"/>
       <use xlink:href="#Calibri-34" x="75.927734"/>
      </g>
     </g>
    </g>
    <g id="ytick_14">
     <g id="line2d_25">
      <g>
       <use xlink:href="#m0068fa9c72" x="374.4576" y="174.528" style="stroke: #000000; stroke-width: 0.8"/>
      </g>
     </g>
     <g id="text_28">
      <!-- 0.5 -->
      <g transform="translate(381.4576 177.928781) scale(0.1 -0.1)">
       <use xlink:href="#Calibri-30"/>
       <use xlink:href="#Calibri-2e" x="50.683594"/>
       <use xlink:href="#Calibri-35" x="75.927734"/>
      </g>
     </g>
    </g>
    <g id="ytick_15">
     <g id="line2d_26">
      <g>
       <use xlink:href="#m0068fa9c72" x="374.4576" y="147.9168" style="stroke: #000000; stroke-width: 0.8"/>
      </g>
     </g>
     <g id="text_29">
      <!-- 0.6 -->
      <g transform="translate(381.4576 151.317581) scale(0.1 -0.1)">
       <use xlink:href="#Calibri-30"/>
       <use xlink:href="#Calibri-2e" x="50.683594"/>
       <use xlink:href="#Calibri-36" x="75.927734"/>
      </g>
     </g>
    </g>
    <g id="ytick_16">
     <g id="line2d_27">
      <g>
       <use xlink:href="#m0068fa9c72" x="374.4576" y="121.3056" style="stroke: #000000; stroke-width: 0.8"/>
      </g>
     </g>
     <g id="text_30">
      <!-- 0.7 -->
      <g transform="translate(381.4576 124.706381) scale(0.1 -0.1)">
       <use xlink:href="#Calibri-30"/>
       <use xlink:href="#Calibri-2e" x="50.683594"/>
       <use xlink:href="#Calibri-37" x="75.927734"/>
      </g>
     </g>
    </g>
    <g id="ytick_17">
     <g id="line2d_28">
      <g>
       <use xlink:href="#m0068fa9c72" x="374.4576" y="94.6944" style="stroke: #000000; stroke-width: 0.8"/>
      </g>
     </g>
     <g id="text_31">
      <!-- 0.8 -->
      <g transform="translate(381.4576 98.095181) scale(0.1 -0.1)">
       <use xlink:href="#Calibri-30"/>
       <use xlink:href="#Calibri-2e" x="50.683594"/>
       <use xlink:href="#Calibri-38" x="75.927734"/>
      </g>
     </g>
    </g>
    <g id="ytick_18">
     <g id="line2d_29">
      <g>
       <use xlink:href="#m0068fa9c72" x="374.4576" y="68.0832" style="stroke: #000000; stroke-width: 0.8"/>
      </g>
     </g>
     <g id="text_32">
      <!-- 0.9 -->
      <g transform="translate(381.4576 71.483981) scale(0.1 -0.1)">
       <use xlink:href="#Calibri-30"/>
       <use xlink:href="#Calibri-2e" x="50.683594"/>
       <use xlink:href="#Calibri-39" x="75.927734"/>
      </g>
     </g>
    </g>
    <g id="ytick_19">
     <g id="line2d_30">
      <g>
       <use xlink:href="#m0068fa9c72" x="374.4576" y="41.472" style="stroke: #000000; stroke-width: 0.8"/>
      </g>
     </g>
     <g id="text_33">
      <!-- 1.0 -->
      <g transform="translate(381.4576 44.872781) scale(0.1 -0.1)">
       <use xlink:href="#Calibri-31"/>
       <use xlink:href="#Calibri-2e" x="50.683594"/>
       <use xlink:href="#Calibri-30" x="75.927734"/>
      </g>
     </g>
    </g>
   </g>
   <g id="LineCollection_1"/>
   <g id="patch_8">
    <path d="M 361.152 307.584 
L 367.8048 307.584 
L 374.4576 307.584 
L 374.4576 41.472 
L 367.8048 41.472 
L 361.152 41.472 
L 361.152 307.584 
z
" style="fill: none; stroke: #000000; stroke-width: 0.8; stroke-linejoin: miter; stroke-linecap: square"/>
   </g>
   <g id="text_34">
    <!-- $\mathit{E}_{\mathrm{dis}}$/$\mathit{E}_{\mathrm{i}}$ -->
    <g transform="translate(353.2548 35.472) scale(0.1 -0.1)">
     <defs>
      <path id="DejaVuSans-Oblique-45" d="M 1081 4666 
L 4031 4666 
L 3928 4134 
L 1606 4134 
L 1338 2753 
L 3566 2753 
L 3463 2222 
L 1234 2222 
L 909 531 
L 3284 531 
L 3181 0 
L 172 0 
L 1081 4666 
z
" transform="scale(0.015625)"/>
      <path id="DejaVuSans-64" d="M 2906 2969 
L 2906 4863 
L 3481 4863 
L 3481 0 
L 2906 0 
L 2906 525 
Q 2725 213 2448 61 
Q 2172 -91 1784 -91 
Q 1150 -91 751 415 
Q 353 922 353 1747 
Q 353 2572 751 3078 
Q 1150 3584 1784 3584 
Q 2172 3584 2448 3432 
Q 2725 3281 2906 2969 
z
M 947 1747 
Q 947 1113 1208 752 
Q 1469 391 1925 391 
Q 2381 391 2643 752 
Q 2906 1113 2906 1747 
Q 2906 2381 2643 2742 
Q 2381 3103 1925 3103 
Q 1469 3103 1208 2742 
Q 947 2381 947 1747 
z
" transform="scale(0.015625)"/>
      <path id="DejaVuSans-69" d="M 603 3500 
L 1178 3500 
L 1178 0 
L 603 0 
L 603 3500 
z
M 603 4863 
L 1178 4863 
L 1178 4134 
L 603 4134 
L 603 4863 
z
" transform="scale(0.015625)"/>
      <path id="DejaVuSans-73" d="M 2834 3397 
L 2834 2853 
Q 2591 2978 2328 3040 
Q 2066 3103 1784 3103 
Q 1356 3103 1142 2972 
Q 928 2841 928 2578 
Q 928 2378 1081 2264 
Q 1234 2150 1697 2047 
L 1894 2003 
Q 2506 1872 2764 1633 
Q 3022 1394 3022 966 
Q 3022 478 2636 193 
Q 2250 -91 1575 -91 
Q 1294 -91 989 -36 
Q 684 19 347 128 
L 347 722 
Q 666 556 975 473 
Q 1284 391 1588 391 
Q 1994 391 2212 530 
Q 2431 669 2431 922 
Q 2431 1156 2273 1281 
Q 2116 1406 1581 1522 
L 1381 1569 
Q 847 1681 609 1914 
Q 372 2147 372 2553 
Q 372 3047 722 3315 
Q 1072 3584 1716 3584 
Q 2034 3584 2315 3537 
Q 2597 3491 2834 3397 
z
" transform="scale(0.015625)"/>
     </defs>
     <use xlink:href="#DejaVuSans-Oblique-45" transform="translate(0 0.09375)"/>
     <use xlink:href="#DejaVuSans-64" transform="translate(63.183594 -16.3125) scale(0.7)"/>
     <use xlink:href="#DejaVuSans-69" transform="translate(107.617188 -16.3125) scale(0.7)"/>
     <use xlink:href="#DejaVuSans-73" transform="translate(127.06543 -16.3125) scale(0.7)"/>
     <use xlink:href="#Calibri-2f" transform="translate(166.269531 0.09375)"/>
     <use xlink:href="#DejaVuSans-Oblique-45" transform="translate(204.892578 0.09375)"/>
     <use xlink:href="#DejaVuSans-69" transform="translate(268.076172 -16.3125) scale(0.7)"/>
    </g>
   </g>
  </g>
 </g>
 <defs>
  <clipPath id="pafdcbe0cef">
   <rect x="57.6" y="41.472" width="285.696" height="266.112"/>
  </clipPath>
  <clipPath id="p5052fd21e0">
   <rect x="361.152" y="41.472" width="13.3056" height="266.112"/>
  </clipPath>
 </defs>
</svg>
