<?xml version="1.0" encoding="utf-8" standalone="no"?>
<!DOCTYPE svg PUBLIC "-//W3C//DTD SVG 1.1//EN"
  "http://www.w3.org/Graphics/SVG/1.1/DTD/svg11.dtd">
<svg xmlns:xlink="http://www.w3.org/1999/xlink" width="460.8pt" height="345.6pt" viewBox="0 0 460.8 345.6" xmlns="http://www.w3.org/2000/svg" version="1.1">
 <metadata>
  <rdf:RDF xmlns:dc="http://purl.org/dc/elements/1.1/" xmlns:cc="http://creativecommons.org/ns#" xmlns:rdf="http://www.w3.org/1999/02/22-rdf-syntax-ns#">
   <cc:Work>
    <dc:type rdf:resource="http://purl.org/dc/dcmitype/StillImage"/>
    <dc:date>2024-01-22T08:51:59.473121</dc:date>
    <dc:format>image/svg+xml</dc:format>
    <dc:creator>
     <cc:Agent>
      <dc:title>Matplotlib v3.7.1, https://matplotlib.org/</dc:title>
     </cc:Agent>
    </dc:creator>
   </cc:Work>
  </rdf:RDF>
 </metadata>
 <defs>
  <style type="text/css">*{stroke-linejoin: round; stroke-linecap: butt}</style>
 </defs>
 <g id="figure_1">
  <g id="patch_1">
   <path d="M 0 345.6 
L 460.8 345.6 
L 460.8 0 
L 0 0 
z
" style="fill: #ffffff"/>
  </g>
  <g id="axes_1">
   <g id="patch_2">
    <path d="M 57.6 307.584 
L 343.296 307.584 
L 343.296 41.472 
L 57.6 41.472 
z
" style="fill: #ffffff"/>
   </g>
   <g id="PathCollection_1">
    <path clip-path="url(#p72cbbf60ef)" style="fill: #0000b6"/>
   </g>
   <g id="PathCollection_2">
    <path clip-path="url(#p72cbbf60ef)" style="fill: #0018ff"/>
   </g>
   <g id="PathCollection_3">
    <path clip-path="url(#p72cbbf60ef)" style="fill: #0080ff"/>
   </g>
   <g id="PathCollection_4">
    <path d="M 57.62857 70.876423 
L 57.743223 70.805328 
L 58.626004 70.260689 
L 60.106927 69.325524 
L 60.262247 69.228972 
L 60.532597 69.05748 
L 60.791436 68.893859 
L 62.050121 68.0832 
L 62.114997 68.041306 
L 62.137213 68.02669 
L 62.587817 67.732245 
L 63.42934 67.184196 
L 63.542776 67.10892 
L 64.099817 66.740591 
L 64.445012 66.507895 
L 65.674974 65.690822 
L 66.729552 64.974412 
L 66.802855 64.925523 
L 67.051005 64.7568 
L 67.997047 64.107317 
L 68.873912 63.492008 
L 69.496545 63.061187 
L 70.239357 62.537461 
L 70.304657 62.492236 
L 70.428341 62.40468 
L 71.541088 61.610449 
L 71.791755 61.4304 
L 72.745703 60.736175 
L 73.131884 60.45612 
L 73.289938 60.339979 
L 73.4044 60.254347 
L 74.876476 59.167328 
L 75.850776 58.432548 
L 75.960075 58.351506 
L 76.287945 58.104 
L 77.139429 57.454756 
L 78.06382 56.735215 
L 78.619743 56.307858 
L 79.330439 55.75188 
L 79.360097 55.728772 
L 79.95014 55.260577 
L 80.519463 54.809442 
L 80.559427 54.7776 
L 81.691607 53.867578 
L 81.770097 53.80332 
L 82.362595 53.320278 
L 82.86709 52.902045 
L 83.833494 52.1101 
L 84.621674 51.4512 
L 84.995478 51.135461 
L 85.13861 51.012572 
L 86.032103 50.257061 
L 87.37507 49.09908 
L 87.518509 48.974277 
L 88.490239 48.1248 
L 89.063824 47.615972 
L 89.586104 47.15052 
L 90.377786 46.438478 
L 90.93615 45.926714 
L 91.301667 45.596523 
L 92.171485 44.7984 
L 92.524137 44.471355 
L 93.052323 43.972369 
L 93.8919 43.18692 
L 94.637864 42.478317 
L 94.652387 42.464715 
L 94.671707 42.44628 
L 95.097525 42.036121 
L 95.683496 41.472 
L 94.197658 41.472 
L 92.673946 41.472 
L 91.150234 41.472 
L 89.626522 41.472 
L 88.10281 41.472 
L 86.579098 41.472 
L 85.055386 41.472 
L 83.531674 41.472 
L 82.007962 41.472 
L 80.48425 41.472 
L 78.960538 41.472 
L 77.436826 41.472 
L 75.913114 41.472 
L 74.389402 41.472 
L 72.86569 41.472 
L 71.341978 41.472 
L 69.818266 41.472 
L 68.294554 41.472 
L 66.770842 41.472 
L 65.24713 41.472 
L 63.723418 41.472 
L 62.199706 41.472 
L 60.675994 41.472 
L 59.152282 41.472 
L 57.62857 41.472 
L 57.62857 44.7984 
L 57.62857 48.1248 
L 57.62857 51.4512 
L 57.62857 54.7776 
L 57.62857 58.104 
L 57.62857 61.4304 
L 57.62857 64.7568 
L 57.62857 68.0832 
" clip-path="url(#p72cbbf60ef)" style="fill: #00e4f8"/>
   </g>
   <g id="PathCollection_5">
    <path d="M 95.683496 41.472 
L 95.097525 42.036121 
L 94.671707 42.44628 
L 94.652387 42.464715 
L 94.637864 42.478317 
L 93.8919 43.18692 
L 93.052323 43.972369 
L 92.524137 44.471355 
L 92.171485 44.7984 
L 91.301667 45.596523 
L 90.93615 45.926714 
L 90.377786 46.438478 
L 89.586104 47.15052 
L 89.063824 47.615972 
L 88.490239 48.1248 
L 87.518509 48.974277 
L 87.37507 49.09908 
L 86.032103 50.257061 
L 85.13861 51.012572 
L 84.995478 51.135461 
L 84.621674 51.4512 
L 83.833494 52.1101 
L 82.86709 52.902045 
L 82.362595 53.320278 
L 81.770097 53.80332 
L 81.691607 53.867578 
L 80.559427 54.7776 
L 80.519463 54.809442 
L 79.95014 55.260577 
L 79.360097 55.728772 
L 79.330439 55.75188 
L 78.619743 56.307858 
L 78.06382 56.735215 
L 77.139429 57.454756 
L 76.287945 58.104 
L 75.960075 58.351506 
L 75.850776 58.432548 
L 74.876476 59.167328 
L 73.4044 60.254347 
L 73.289938 60.339979 
L 73.131884 60.45612 
L 72.745703 60.736175 
L 71.791755 61.4304 
L 71.541088 61.610449 
L 70.428341 62.40468 
L 70.304657 62.492236 
L 70.239357 62.537461 
L 69.496545 63.061187 
L 68.873912 63.492008 
L 67.997047 64.107317 
L 67.051005 64.7568 
L 66.802855 64.925523 
L 66.729552 64.974412 
L 65.674974 65.690822 
L 64.445012 66.507895 
L 64.099817 66.740591 
L 63.542776 67.10892 
L 63.42934 67.184196 
L 62.587817 67.732245 
L 62.137213 68.02669 
L 62.114997 68.041306 
L 62.050121 68.0832 
L 60.791436 68.893859 
L 60.532597 69.05748 
L 60.262247 69.228972 
L 60.106927 69.325524 
L 58.626004 70.260689 
L 57.743223 70.805328 
L 57.62857 70.876423 
L 57.62857 71.4096 
L 57.62857 74.736 
L 57.62857 78.0624 
L 57.62857 81.3888 
L 57.62857 84.7152 
L 57.62857 88.0416 
L 57.62857 91.368 
L 57.62857 94.6944 
L 57.62857 98.0208 
L 57.62857 101.3472 
L 57.62857 104.6736 
L 57.62857 108 
L 57.62857 111.3264 
L 57.62857 114.6528 
L 57.62857 117.9792 
L 57.62857 118.375213 
L 57.699925 118.355274 
L 58.954854 117.9792 
L 59.128292 117.926829 
L 59.184348 117.909195 
L 60.582086 117.484263 
L 60.781872 117.421173 
L 61.801961 117.110887 
L 62.732536 116.815983 
L 63.460414 116.593055 
L 64.020212 116.414961 
L 64.467779 116.277809 
L 66.293493 115.694894 
L 66.334994 115.682088 
L 66.506605 115.62708 
L 67.614833 115.267448 
L 68.615923 114.943404 
L 69.500002 114.6528 
L 70.604278 114.287964 
L 70.84742 114.205588 
L 72.411586 113.67852 
L 72.418353 113.676225 
L 72.419947 113.675664 
L 73.257352 113.390634 
L 73.479775 113.312196 
L 75.052761 112.774573 
L 75.680661 112.551527 
L 76.117152 112.401773 
L 77.105101 112.050584 
L 77.678118 111.853163 
L 78.946789 111.398861 
L 78.972593 111.389936 
L 79.149893 111.3264 
L 80.294752 110.912711 
L 80.752372 110.741065 
L 81.822951 110.351314 
L 82.221456 110.201192 
L 82.902581 109.953034 
L 84.424415 109.377464 
L 84.668592 109.287827 
L 85.493995 108.97428 
L 85.507358 108.969137 
L 87.01194 108.391405 
L 87.214301 108.314146 
L 88.017299 108 
L 89.138609 107.558797 
L 90.475123 107.02572 
L 90.668393 106.948099 
L 90.722986 106.925387 
L 91.516745 106.605276 
L 91.853305 106.465131 
L 93.237667 105.904255 
L 94.027016 105.572957 
L 94.343841 105.444054 
L 95.612603 104.911048 
L 95.795829 104.836151 
L 96.179678 104.6736 
L 97.165186 104.252515 
L 97.339557 104.17567 
L 98.343938 103.746102 
L 99.409727 103.274385 
L 99.980339 103.028341 
L 100.662212 102.725083 
L 100.880507 102.630861 
L 101.573112 102.32148 
L 102.454881 101.924721 
L 103.239663 101.566091 
L 103.33993 101.519998 
L 103.33993 101.3472 
L 103.33993 98.0208 
L 103.33993 94.6944 
L 103.33993 91.368 
L 103.33993 88.0416 
L 103.33993 84.7152 
L 103.33993 81.3888 
L 103.33993 78.0624 
L 103.33993 74.736 
L 103.33993 71.4096 
L 103.33993 68.0832 
L 103.33993 64.7568 
L 103.33993 61.4304 
L 103.33993 58.104 
L 103.33993 54.7776 
L 103.33993 51.4512 
L 103.33993 48.1248 
L 103.33993 44.7984 
L 103.33993 41.472 
L 101.816218 41.472 
L 100.292506 41.472 
L 98.768794 41.472 
L 97.245082 41.472 
L 95.72137 41.472 
" clip-path="url(#p72cbbf60ef)" style="fill: #53ffa4"/>
   </g>
   <g id="PathCollection_6">
    <path d="M 103.33993 101.519998 
L 103.239663 101.566091 
L 102.454881 101.924721 
L 101.573112 102.32148 
L 100.880507 102.630861 
L 100.662212 102.725083 
L 99.980339 103.028341 
L 99.409727 103.274385 
L 98.343938 103.746102 
L 97.339557 104.17567 
L 97.165186 104.252515 
L 96.179678 104.6736 
L 95.795829 104.836151 
L 95.612603 104.911048 
L 94.343841 105.444054 
L 94.027016 105.572957 
L 93.237667 105.904255 
L 91.853305 106.465131 
L 91.516745 106.605276 
L 90.722986 106.925387 
L 90.668393 106.948099 
L 90.475123 107.02572 
L 89.138609 107.558797 
L 88.017299 108 
L 87.214301 108.314146 
L 87.01194 108.391405 
L 85.507358 108.969137 
L 85.493995 108.97428 
L 84.668592 109.287827 
L 84.424415 109.377464 
L 82.902581 109.953034 
L 82.221456 110.201192 
L 81.822951 110.351314 
L 80.752372 110.741065 
L 80.294752 110.912711 
L 79.149893 111.3264 
L 78.972593 111.389936 
L 78.946789 111.398861 
L 77.678118 111.853163 
L 77.105101 112.050584 
L 76.117152 112.401773 
L 75.680661 112.551527 
L 75.052761 112.774573 
L 73.479775 113.312196 
L 73.257352 113.390634 
L 72.419947 113.675664 
L 72.418353 113.676225 
L 72.411586 113.67852 
L 70.84742 114.205588 
L 70.604278 114.287964 
L 69.500002 114.6528 
L 68.615923 114.943404 
L 67.614833 115.267448 
L 66.506605 115.62708 
L 66.334994 115.682088 
L 66.293493 115.694894 
L 64.467779 116.277809 
L 64.020212 116.414961 
L 63.460414 116.593055 
L 62.732536 116.815983 
L 61.801961 117.110887 
L 60.781872 117.421173 
L 60.582086 117.484263 
L 59.184348 117.909195 
L 59.128292 117.926829 
L 58.954854 117.9792 
L 57.699925 118.355274 
L 57.62857 118.375213 
L 57.62857 121.3056 
L 57.62857 124.632 
L 57.62857 127.9584 
L 57.62857 131.2848 
L 57.62857 134.6112 
L 57.62857 137.9376 
L 57.62857 141.264 
L 57.62857 144.5904 
L 57.62857 147.9168 
L 57.62857 151.2432 
L 57.62857 154.5696 
L 57.62857 157.896 
L 57.62857 159.685206 
L 57.963402 159.660718 
L 58.360238 159.625102 
L 59.888768 159.503817 
L 60.379321 159.459594 
L 60.963855 159.413159 
L 61.528013 159.362366 
L 62.824172 159.259267 
L 63.475939 159.200324 
L 63.963529 159.161494 
L 64.697829 159.095172 
L 65.757716 159.010657 
L 66.573391 158.936653 
L 66.9624 158.905596 
L 67.869752 158.82338 
L 68.689344 158.757862 
L 69.671704 158.668443 
L 69.960442 158.645334 
L 71.043847 158.546845 
L 71.618993 158.50075 
L 72.770906 158.395551 
L 72.95763 158.380568 
L 74.220186 158.265413 
L 74.546603 158.239185 
L 75.871025 158.117825 
L 75.953936 158.111155 
L 77.39884 157.978926 
L 77.472107 157.973023 
L 78.309814 157.896 
L 78.949311 157.836833 
L 78.972215 157.834457 
L 80.395803 157.702913 
L 80.581542 157.683603 
L 81.943665 157.55713 
L 82.074851 157.543462 
L 83.317408 157.428239 
L 83.767462 157.381254 
L 84.93704 157.272268 
L 85.178525 157.247002 
L 86.236704 157.148523 
L 86.956038 157.073105 
L 87.929403 156.982072 
L 88.283271 156.944889 
L 89.153612 156.863595 
L 90.147363 156.758957 
L 90.92072 156.686361 
L 91.389127 156.636928 
L 92.068051 156.573278 
L 93.341533 156.438596 
L 93.910954 156.384943 
L 94.496131 156.322914 
L 94.979937 156.277386 
L 96.53865 156.111803 
L 96.900067 156.077619 
L 97.604324 156.002631 
L 97.889179 155.975723 
L 99.73882 155.778345 
L 99.888019 155.764178 
L 100.71375 155.675854 
L 100.795684 155.668084 
L 101.95427 155.54388 
L 102.793615 155.453426 
L 102.942808 155.436552 
L 103.33993 155.390748 
L 103.33993 154.5696 
L 103.33993 151.2432 
L 103.33993 147.9168 
L 103.33993 144.5904 
L 103.33993 141.264 
L 103.33993 137.9376 
L 103.33993 134.6112 
L 103.33993 131.2848 
L 103.33993 127.9584 
L 103.33993 124.632 
L 103.33993 121.3056 
L 103.33993 117.9792 
L 103.33993 114.6528 
L 103.33993 111.3264 
L 103.33993 108 
L 103.33993 104.6736 
" clip-path="url(#p72cbbf60ef)" style="fill: #a4ff53"/>
   </g>
   <g id="PathCollection_7">
    <path d="M 103.33993 155.390748 
L 102.942808 155.436552 
L 102.793615 155.453426 
L 101.95427 155.54388 
L 100.795684 155.668084 
L 100.71375 155.675854 
L 99.888019 155.764178 
L 99.73882 155.778345 
L 97.889179 155.975723 
L 97.604324 156.002631 
L 96.900067 156.077619 
L 96.53865 156.111803 
L 94.979937 156.277386 
L 94.496131 156.322914 
L 93.910954 156.384943 
L 93.341533 156.438596 
L 92.068051 156.573278 
L 91.389127 156.636928 
L 90.92072 156.686361 
L 90.147363 156.758957 
L 89.153612 156.863595 
L 88.283271 156.944889 
L 87.929403 156.982072 
L 86.956038 157.073105 
L 86.236704 157.148523 
L 85.178525 157.247002 
L 84.93704 157.272268 
L 83.767462 157.381254 
L 83.317408 157.428239 
L 82.074851 157.543462 
L 81.943665 157.55713 
L 80.581542 157.683603 
L 80.395803 157.702913 
L 78.972215 157.834457 
L 78.949311 157.836833 
L 78.309814 157.896 
L 77.472107 157.973023 
L 77.39884 157.978926 
L 75.953936 158.111155 
L 75.871025 158.117825 
L 74.546603 158.239185 
L 74.220186 158.265413 
L 72.95763 158.380568 
L 72.770906 158.395551 
L 71.618993 158.50075 
L 71.043847 158.546845 
L 69.960442 158.645334 
L 69.671704 158.668443 
L 68.689344 158.757862 
L 67.869752 158.82338 
L 66.9624 158.905596 
L 66.573391 158.936653 
L 65.757716 159.010657 
L 64.697829 159.095172 
L 63.963529 159.161494 
L 63.475939 159.200324 
L 62.824172 159.259267 
L 61.528013 159.362366 
L 60.963855 159.413159 
L 60.379321 159.459594 
L 59.888768 159.503817 
L 58.360238 159.625102 
L 57.963402 159.660718 
L 57.62857 159.685206 
L 57.62857 161.2224 
L 57.62857 164.5488 
L 57.62857 167.8752 
L 57.62857 171.2016 
L 57.62857 174.528 
L 57.62857 177.8544 
L 57.62857 181.1808 
L 57.62857 184.5072 
L 57.62857 187.8336 
L 57.62857 191.16 
L 57.62857 194.4864 
L 57.62857 197.388319 
L 57.707996 197.394186 
L 59.008084 197.498004 
L 59.287403 197.517818 
L 60.640732 197.626954 
L 60.710312 197.631928 
L 62.171076 197.7503 
L 62.226506 197.754293 
L 62.941403 197.8128 
L 63.711498 197.875622 
L 63.735757 197.877832 
L 65.163723 197.994885 
L 65.337857 198.010865 
L 66.711682 198.124599 
L 66.832113 198.13573 
L 68.098378 198.241069 
L 68.508205 198.27922 
L 69.7106 198.380248 
L 69.929832 198.400802 
L 71.03008 198.493701 
L 71.68208 198.555274 
L 72.70821 198.642789 
L 73.028958 198.673299 
L 73.958734 198.752987 
L 74.859609 198.839306 
L 75.704468 198.912453 
L 76.129543 198.95348 
L 76.88424 199.019144 
L 78.040926 199.131606 
L 78.69933 199.18948 
L 79.231637 199.241616 
L 79.806495 199.292399 
L 81.22617 199.43248 
L 81.692747 199.474123 
L 82.335295 199.537995 
L 82.725391 199.572987 
L 84.415488 199.742247 
L 84.684668 199.766645 
L 85.440574 199.842915 
L 85.640815 199.861156 
L 87.609035 200.061245 
L 87.675043 200.067321 
L 88.547533 200.156689 
L 88.552648 200.157162 
L 88.627814 200.16492 
L 90.491836 200.356726 
L 91.085112 200.417841 
L 91.983647 200.514987 
L 93.221261 200.644282 
L 95.146185 200.854737 
L 95.441392 200.886026 
L 95.942555 200.93919 
L 97.74438 201.1392 
L 98.656592 201.24066 
L 98.914079 201.270577 
L 101.062006 201.512202 
L 101.364323 201.547833 
L 102.403707 201.670447 
L 103.062141 201.745637 
L 103.33993 201.777198 
L 103.33993 201.1392 
L 103.33993 197.8128 
L 103.33993 194.4864 
L 103.33993 191.16 
L 103.33993 187.8336 
L 103.33993 184.5072 
L 103.33993 181.1808 
L 103.33993 177.8544 
L 103.33993 174.528 
L 103.33993 171.2016 
L 103.33993 167.8752 
L 103.33993 164.5488 
L 103.33993 161.2224 
L 103.33993 157.896 
" clip-path="url(#p72cbbf60ef)" style="fill: #f8f500"/>
   </g>
   <g id="PathCollection_8">
    <path d="M 103.33993 201.777198 
L 103.062141 201.745637 
L 102.403707 201.670447 
L 101.364323 201.547833 
L 101.062006 201.512202 
L 98.914079 201.270577 
L 98.656592 201.24066 
L 97.74438 201.1392 
L 95.942555 200.93919 
L 95.441392 200.886026 
L 95.146185 200.854737 
L 93.221261 200.644282 
L 91.983647 200.514987 
L 91.085112 200.417841 
L 90.491836 200.356726 
L 88.627814 200.16492 
L 88.552648 200.157162 
L 88.547533 200.156689 
L 87.675043 200.067321 
L 87.609035 200.061245 
L 85.640815 199.861156 
L 85.440574 199.842915 
L 84.684668 199.766645 
L 84.415488 199.742247 
L 82.725391 199.572987 
L 82.335295 199.537995 
L 81.692747 199.474123 
L 81.22617 199.43248 
L 79.806495 199.292399 
L 79.231637 199.241616 
L 78.69933 199.18948 
L 78.040926 199.131606 
L 76.88424 199.019144 
L 76.129543 198.95348 
L 75.704468 198.912453 
L 74.859609 198.839306 
L 73.958734 198.752987 
L 73.028958 198.673299 
L 72.70821 198.642789 
L 71.68208 198.555274 
L 71.03008 198.493701 
L 69.929832 198.400802 
L 69.7106 198.380248 
L 68.508205 198.27922 
L 68.098378 198.241069 
L 66.832113 198.13573 
L 66.711682 198.124599 
L 65.337857 198.010865 
L 65.163723 197.994885 
L 63.735757 197.877832 
L 63.711498 197.875622 
L 62.941403 197.8128 
L 62.226506 197.754293 
L 62.171076 197.7503 
L 60.710312 197.631928 
L 60.640732 197.626954 
L 59.287403 197.517818 
L 59.008084 197.498004 
L 57.707996 197.394186 
L 57.62857 197.388319 
L 57.62857 197.8128 
L 57.62857 201.1392 
L 57.62857 204.4656 
L 57.62857 207.792 
L 57.62857 211.1184 
L 57.62857 214.4448 
L 57.62857 217.7712 
L 57.62857 221.0976 
L 57.62857 224.424 
L 57.62857 227.7504 
L 57.62857 231.0768 
L 57.62857 233.378241 
L 58.057967 233.465788 
L 58.1328 233.481318 
L 59.794702 233.822282 
L 61.926191 234.267931 
L 62.086966 234.301254 
L 62.270392 234.339281 
L 62.572919 234.4032 
L 64.446692 234.799064 
L 64.739489 234.862242 
L 66.073137 235.150129 
L 66.569833 235.256176 
L 67.126064 235.37748 
L 67.213525 235.396459 
L 67.227233 235.399543 
L 69.167946 235.822907 
L 69.469459 235.891235 
L 70.139203 236.038118 
L 70.61692 236.146735 
L 71.934014 236.437131 
L 72.651651 236.601519 
L 73.062451 236.692582 
L 74.014622 236.911422 
L 74.694748 237.063002 
L 75.836816 237.327476 
L 75.983188 237.360276 
L 77.420646 237.694279 
L 77.449978 237.700888 
L 77.572608 237.7296 
L 78.901532 238.040588 
L 79.025229 238.070554 
L 80.201551 238.346755 
L 80.837959 238.50178 
L 81.817479 238.733529 
L 82.217013 238.831393 
L 82.947538 239.00482 
L 84.26439 239.329186 
L 84.730717 239.440748 
L 85.412077 239.609523 
L 85.687664 239.675681 
L 87.317619 240.08172 
L 87.583363 240.147878 
L 88.007629 240.255362 
L 89.024038 240.511195 
L 89.966572 240.748504 
L 91.166614 241.056 
L 92.159695 241.310327 
L 92.340469 241.357551 
L 93.278591 241.60276 
L 94.341372 241.880641 
L 94.704945 241.975118 
L 94.913558 242.03028 
L 96.595271 242.474596 
L 96.898854 242.557626 
L 97.558071 242.732806 
L 98.078623 242.875695 
L 99.308398 243.204396 
L 100.111143 243.42654 
L 100.456262 243.519328 
L 101.561489 243.826304 
L 102.014791 243.948897 
L 103.327424 244.31649 
L 103.33993 244.319872 
L 103.33993 241.056 
L 103.33993 237.7296 
L 103.33993 234.4032 
L 103.33993 231.0768 
L 103.33993 227.7504 
L 103.33993 224.424 
L 103.33993 221.0976 
L 103.33993 217.7712 
L 103.33993 214.4448 
L 103.33993 211.1184 
L 103.33993 207.792 
L 103.33993 204.4656 
" clip-path="url(#p72cbbf60ef)" style="fill: #ff9400"/>
   </g>
   <g id="PathCollection_9">
    <path d="M 103.33993 244.319872 
L 103.327424 244.31649 
L 102.014791 243.948897 
L 101.561489 243.826304 
L 100.456262 243.519328 
L 100.111143 243.42654 
L 99.308398 243.204396 
L 98.078623 242.875695 
L 97.558071 242.732806 
L 96.898854 242.557626 
L 96.595271 242.474596 
L 94.913558 242.03028 
L 94.704945 241.975118 
L 94.341372 241.880641 
L 93.278591 241.60276 
L 92.340469 241.357551 
L 92.159695 241.310327 
L 91.166614 241.056 
L 89.966572 240.748504 
L 89.024038 240.511195 
L 88.007629 240.255362 
L 87.583363 240.147878 
L 87.317619 240.08172 
L 85.687664 239.675681 
L 85.412077 239.609523 
L 84.730717 239.440748 
L 84.26439 239.329186 
L 82.947538 239.00482 
L 82.217013 238.831393 
L 81.817479 238.733529 
L 80.837959 238.50178 
L 80.201551 238.346755 
L 79.025229 238.070554 
L 78.901532 238.040588 
L 77.572608 237.7296 
L 77.449978 237.700888 
L 77.420646 237.694279 
L 75.983188 237.360276 
L 75.836816 237.327476 
L 74.694748 237.063002 
L 74.014622 236.911422 
L 73.062451 236.692582 
L 72.651651 236.601519 
L 71.934014 236.437131 
L 70.61692 236.146735 
L 70.139203 236.038118 
L 69.469459 235.891235 
L 69.167946 235.822907 
L 67.227233 235.399543 
L 67.213525 235.396459 
L 67.126064 235.37748 
L 66.569833 235.256176 
L 66.073137 235.150129 
L 64.739489 234.862242 
L 64.446692 234.799064 
L 62.572919 234.4032 
L 62.270392 234.339281 
L 62.086966 234.301254 
L 61.926191 234.267931 
L 59.794702 233.822282 
L 58.1328 233.481318 
L 58.057967 233.465788 
L 57.62857 233.378241 
L 57.62857 234.4032 
L 57.62857 237.7296 
L 57.62857 241.056 
L 57.62857 244.3824 
L 57.62857 247.7088 
L 57.62857 251.0352 
L 57.62857 254.3616 
L 57.62857 257.688 
L 57.62857 261.0144 
L 57.62857 264.3408 
L 57.62857 267.6672 
L 57.62857 269.571303 
L 57.883712 269.648887 
L 58.646389 269.889192 
L 59.532019 270.164599 
L 60.581831 270.497321 
L 60.759619 270.552858 
L 62.145821 270.9936 
L 62.192827 271.008617 
L 62.208994 271.013877 
L 63.632767 271.471368 
L 63.826053 271.534534 
L 64.848394 271.864075 
L 65.78703 272.172252 
L 66.503152 272.404444 
L 67.074272 272.592814 
L 67.49876 272.730888 
L 69.354091 273.34572 
L 69.367172 273.350068 
L 69.409545 273.364298 
L 70.800723 273.830562 
L 71.590323 274.09543 
L 72.2528 274.32 
L 73.805542 274.847964 
L 75.104533 275.29428 
L 75.417441 275.402098 
L 75.492263 275.428333 
L 76.282083 275.701768 
L 76.596772 275.812487 
L 78.045991 276.316537 
L 78.755897 276.567854 
L 79.139726 276.701995 
L 80.228884 277.088914 
L 80.668851 277.243399 
L 81.796181 277.6464 
L 81.994459 277.717564 
L 82.023471 277.728142 
L 83.285957 278.182821 
L 83.876508 278.399204 
L 84.845898 278.750494 
L 85.296341 278.916345 
L 85.897278 279.134872 
L 87.539251 279.7425 
L 87.694333 279.799252 
L 88.230159 279.99852 
L 88.412222 280.066211 
L 88.774335 280.202197 
L 89.979434 280.653674 
L 90.822401 280.9728 
L 92.126534 281.467805 
L 93.376142 281.94708 
L 93.695191 282.069729 
L 93.781008 282.103269 
L 94.55739 282.403251 
L 94.917635 282.544574 
L 96.282362 283.074504 
L 97.071864 283.386266 
L 97.394412 283.512162 
L 98.633206 284.003201 
L 98.863075 284.093376 
L 99.378867 284.2992 
L 100.228004 284.639153 
L 100.367784 284.695952 
L 101.437558 285.125849 
L 102.369227 285.506469 
L 103.058 285.785095 
L 103.33993 285.901937 
L 103.33993 284.2992 
L 103.33993 280.9728 
L 103.33993 277.6464 
L 103.33993 274.32 
L 103.33993 270.9936 
L 103.33993 267.6672 
L 103.33993 264.3408 
L 103.33993 261.0144 
L 103.33993 257.688 
L 103.33993 254.3616 
L 103.33993 251.0352 
L 103.33993 247.7088 
L 103.33993 244.3824 
" clip-path="url(#p72cbbf60ef)" style="fill: #ff3800"/>
   </g>
   <g id="PathCollection_10">
    <path d="M 103.33993 285.901937 
L 103.058 285.785095 
L 102.369227 285.506469 
L 101.437558 285.125849 
L 100.367784 284.695952 
L 100.228004 284.639153 
L 99.378867 284.2992 
L 98.863075 284.093376 
L 98.633206 284.003201 
L 97.394412 283.512162 
L 97.071864 283.386266 
L 96.282362 283.074504 
L 94.917635 282.544574 
L 94.55739 282.403251 
L 93.781008 282.103269 
L 93.695191 282.069729 
L 93.376142 281.94708 
L 92.126534 281.467805 
L 90.822401 280.9728 
L 89.979434 280.653674 
L 88.774335 280.202197 
L 88.412222 280.066211 
L 88.230159 279.99852 
L 87.694333 279.799252 
L 87.539251 279.7425 
L 85.897278 279.134872 
L 85.296341 278.916345 
L 84.845898 278.750494 
L 83.876508 278.399204 
L 83.285957 278.182821 
L 82.023471 277.728142 
L 81.994459 277.717564 
L 81.796181 277.6464 
L 80.668851 277.243399 
L 80.228884 277.088914 
L 79.139726 276.701995 
L 78.755897 276.567854 
L 78.045991 276.316537 
L 76.596772 275.812487 
L 76.282083 275.701768 
L 75.492263 275.428333 
L 75.417441 275.402098 
L 75.104533 275.29428 
L 73.805542 274.847964 
L 72.2528 274.32 
L 71.590323 274.09543 
L 70.800723 273.830562 
L 69.409545 273.364298 
L 69.367172 273.350068 
L 69.354091 273.34572 
L 67.49876 272.730888 
L 67.074272 272.592814 
L 66.503152 272.404444 
L 65.78703 272.172252 
L 64.848394 271.864075 
L 63.826053 271.534534 
L 63.632767 271.471368 
L 62.208994 271.013877 
L 62.192827 271.008617 
L 62.145821 270.9936 
L 60.759619 270.552858 
L 60.581831 270.497321 
L 59.532019 270.164599 
L 58.646389 269.889192 
L 57.883712 269.648887 
L 57.62857 269.571303 
L 57.62857 270.9936 
L 57.62857 274.32 
L 57.62857 277.6464 
L 57.62857 280.9728 
L 57.62857 284.2992 
L 57.62857 287.6256 
L 57.62857 290.952 
L 57.62857 294.2784 
L 57.62857 297.6048 
L 57.62857 300.9312 
L 57.62857 304.2576 
L 57.62857 307.584 
L 59.152282 307.584 
L 60.675994 307.584 
L 62.199706 307.584 
L 63.723418 307.584 
L 65.24713 307.584 
L 66.770842 307.584 
L 68.294554 307.584 
L 69.818266 307.584 
L 71.341978 307.584 
L 72.86569 307.584 
L 74.389402 307.584 
L 75.913114 307.584 
L 77.436826 307.584 
L 78.960538 307.584 
L 80.48425 307.584 
L 82.007962 307.584 
L 83.531674 307.584 
L 85.055386 307.584 
L 86.579098 307.584 
L 88.10281 307.584 
L 89.626522 307.584 
L 91.150234 307.584 
L 92.673946 307.584 
L 94.197658 307.584 
L 95.72137 307.584 
L 97.245082 307.584 
L 98.768794 307.584 
L 100.292506 307.584 
L 101.816218 307.584 
L 103.33993 307.584 
L 103.33993 304.2576 
L 103.33993 300.9312 
L 103.33993 297.6048 
L 103.33993 294.2784 
L 103.33993 290.952 
L 103.33993 287.6256 
" clip-path="url(#p72cbbf60ef)" style="fill: #b60000"/>
   </g>
   <g id="PathCollection_11">
    <path clip-path="url(#p72cbbf60ef)" style="fill: #0000b6"/>
   </g>
   <g id="PathCollection_12">
    <path clip-path="url(#p72cbbf60ef)" style="fill: #0018ff"/>
   </g>
   <g id="PathCollection_13">
    <path clip-path="url(#p72cbbf60ef)" style="fill: #0080ff"/>
   </g>
   <g id="PathCollection_14">
    <path clip-path="url(#p72cbbf60ef)" style="fill: #00e4f8"/>
   </g>
   <g id="PathCollection_15">
    <path d="M 100.4544 102.808099 
L 100.801692 102.646019 
L 105.715968 100.46016 
L 112.188098 97.29248 
L 113.176051 96.794591 
L 117.270916 94.6944 
L 119.635862 93.427659 
L 120.642039 92.834965 
L 121.96079 92.09632 
L 127.525303 88.877784 
L 132.37294 85.824 
L 132.742568 85.584016 
L 132.988131 85.414334 
L 137.724473 82.313493 
L 141.617309 79.55168 
L 143.536758 78.13773 
L 144.106096 77.74256 
L 145.14102 76.9536 
L 148.017752 74.694609 
L 148.40865 74.35552 
L 150.691983 72.499329 
L 155.838332 68.0832 
L 156.545015 67.455922 
L 162.483925 61.81088 
L 162.595852 61.699483 
L 165.131166 59.2128 
L 167.452197 56.647204 
L 167.48346 56.61472 
L 167.553995 56.537857 
L 172.994988 50.3424 
L 173.145028 50.165039 
L 178.005384 44.07008 
L 178.266696 43.723289 
L 179.939832 41.472 
L 173.30688 41.472 
L 165.21216 41.472 
L 157.11744 41.472 
L 149.02272 41.472 
L 140.928 41.472 
L 132.83328 41.472 
L 124.73856 41.472 
L 116.64384 41.472 
L 108.54912 41.472 
L 100.4544 41.472 
L 100.4544 50.3424 
L 100.4544 59.2128 
L 100.4544 68.0832 
L 100.4544 76.9536 
L 100.4544 85.824 
L 100.4544 94.6944 
" clip-path="url(#p72cbbf60ef)" style="fill: #53ffa4"/>
   </g>
   <g id="PathCollection_16">
    <path d="M 179.939832 41.472 
L 178.266696 43.723289 
L 178.005384 44.07008 
L 173.145028 50.165039 
L 172.994988 50.3424 
L 167.553995 56.537857 
L 167.48346 56.61472 
L 167.452197 56.647204 
L 165.131166 59.2128 
L 162.595852 61.699483 
L 162.483925 61.81088 
L 156.545015 67.455922 
L 155.838332 68.0832 
L 150.691983 72.499329 
L 148.40865 74.35552 
L 148.017752 74.694609 
L 145.14102 76.9536 
L 144.106096 77.74256 
L 143.536758 78.13773 
L 141.617309 79.55168 
L 137.724473 82.313493 
L 132.988131 85.414334 
L 132.742568 85.584016 
L 132.37294 85.824 
L 127.525303 88.877784 
L 121.96079 92.09632 
L 120.642039 92.834965 
L 119.635862 93.427659 
L 117.270916 94.6944 
L 113.176051 96.794591 
L 112.188098 97.29248 
L 105.715968 100.46016 
L 100.801692 102.646019 
L 100.4544 102.808099 
L 100.4544 103.5648 
L 100.4544 112.4352 
L 100.4544 121.3056 
L 100.4544 130.176 
L 100.4544 139.0464 
L 100.4544 147.9168 
L 100.4544 155.691583 
L 100.888839 155.637868 
L 106.940973 155.024951 
L 110.612738 154.525835 
L 115.592624 154.006149 
L 117.811026 153.699344 
L 121.565214 153.309766 
L 128.845605 152.286596 
L 131.043066 152.051087 
L 134.828438 151.508896 
L 135.997542 151.384279 
L 141.960204 150.51488 
L 145.493499 149.989106 
L 147.892479 149.645727 
L 156.52085 148.187595 
L 157.409946 148.04957 
L 157.561361 148.027003 
L 158.183063 147.9168 
L 167.0327 146.359239 
L 168.982177 145.953792 
L 172.164502 145.31872 
L 177.951124 144.13568 
L 179.640878 143.704491 
L 182.903101 143.018707 
L 186.781511 142.021357 
L 191.312572 141.036695 
L 197.475036 139.353296 
L 197.688907 139.305312 
L 198.627198 139.0464 
L 204.231963 137.453292 
L 208.48229 135.981891 
L 212.194639 134.850967 
L 215.869918 133.518673 
L 216.619581 133.28716 
L 217.973686 132.77408 
L 223.141571 130.750813 
L 224.517323 130.176 
L 229.420593 128.030121 
L 230.292446 127.57792 
L 232.027661 126.749469 
L 234.159183 125.585299 
L 239.496706 122.874895 
L 242.102687 121.3056 
L 245.384912 119.256755 
L 247.496065 117.76927 
L 249.722225 116.339478 
L 251.457154 115.03328 
L 254.57038 112.57877 
L 254.636692 112.530183 
L 254.745233 112.4352 
L 254.918354 112.270294 
L 255.256709 111.980101 
L 257.814733 109.83712 
L 259.014948 108.78188 
L 261.218284 106.555645 
L 262.88303 104.978135 
L 264.228389 103.5648 
L 267.337565 100.161215 
L 269.625763 97.29248 
L 271.285526 95.076591 
L 271.404797 94.933036 
L 271.568233 94.6944 
L 271.764193 94.366544 
L 272.040577 93.969487 
L 273.420402 92.09632 
L 274.602942 90.382001 
L 277.376447 85.824 
L 278.080183 84.612184 
L 280.800209 79.55168 
L 280.815072 79.52833 
L 282.177248 76.9536 
L 282.924602 75.270355 
L 283.343485 74.35552 
L 285.388023 69.447433 
L 285.998777 68.0832 
L 286.200282 67.609061 
L 288.412121 61.81088 
L 288.941417 60.260622 
L 289.119682 59.830127 
L 289.32527 59.2128 
L 289.718436 57.812285 
L 290.158031 56.61472 
L 290.738835 54.841723 
L 292.066063 50.3424 
L 293.192023 46.279733 
L 293.770714 44.07008 
L 294.303959 41.936324 
L 294.428868 41.472 
L 286.63296 41.472 
L 278.53824 41.472 
L 270.44352 41.472 
L 262.3488 41.472 
L 254.25408 41.472 
L 246.15936 41.472 
L 238.06464 41.472 
L 229.96992 41.472 
L 221.8752 41.472 
L 213.78048 41.472 
L 205.68576 41.472 
L 197.59104 41.472 
L 189.49632 41.472 
L 181.4016 41.472 
" clip-path="url(#p72cbbf60ef)" style="fill: #a4ff53"/>
   </g>
   <g id="PathCollection_17">
    <path d="M 294.428868 41.472 
L 294.303959 41.936324 
L 293.770714 44.07008 
L 293.192023 46.279733 
L 292.066063 50.3424 
L 290.738835 54.841723 
L 290.158031 56.61472 
L 289.718436 57.812285 
L 289.32527 59.2128 
L 289.119682 59.830127 
L 288.941417 60.260622 
L 288.412121 61.81088 
L 286.200282 67.609061 
L 285.998777 68.0832 
L 285.388023 69.447433 
L 283.343485 74.35552 
L 282.924602 75.270355 
L 282.177248 76.9536 
L 280.815072 79.52833 
L 280.800209 79.55168 
L 278.080183 84.612184 
L 277.376447 85.824 
L 274.602942 90.382001 
L 273.420402 92.09632 
L 272.040577 93.969487 
L 271.764193 94.366544 
L 271.568233 94.6944 
L 271.404797 94.933036 
L 271.285526 95.076591 
L 269.625763 97.29248 
L 267.337565 100.161215 
L 264.228389 103.5648 
L 262.88303 104.978135 
L 261.218284 106.555645 
L 259.014948 108.78188 
L 257.814733 109.83712 
L 255.256709 111.980101 
L 254.918354 112.270294 
L 254.745233 112.4352 
L 254.636692 112.530183 
L 254.57038 112.57877 
L 251.457154 115.03328 
L 249.722225 116.339478 
L 247.496065 117.76927 
L 245.384912 119.256755 
L 242.102687 121.3056 
L 239.496706 122.874895 
L 234.159183 125.585299 
L 232.027661 126.749469 
L 230.292446 127.57792 
L 229.420593 128.030121 
L 224.517323 130.176 
L 223.141571 130.750813 
L 217.973686 132.77408 
L 216.619581 133.28716 
L 215.869918 133.518673 
L 212.194639 134.850967 
L 208.48229 135.981891 
L 204.231963 137.453292 
L 198.627198 139.0464 
L 197.688907 139.305312 
L 197.475036 139.353296 
L 191.312572 141.036695 
L 186.781511 142.021357 
L 182.903101 143.018707 
L 179.640878 143.704491 
L 177.951124 144.13568 
L 172.164502 145.31872 
L 168.982177 145.953792 
L 167.0327 146.359239 
L 158.183063 147.9168 
L 157.561361 148.027003 
L 157.409946 148.04957 
L 156.52085 148.187595 
L 147.892479 149.645727 
L 145.493499 149.989106 
L 141.960204 150.51488 
L 135.997542 151.384279 
L 134.828438 151.508896 
L 131.043066 152.051087 
L 128.845605 152.286596 
L 121.565214 153.309766 
L 117.811026 153.699344 
L 115.592624 154.006149 
L 110.612738 154.525835 
L 106.940973 155.024951 
L 100.888839 155.637868 
L 100.4544 155.691583 
L 100.4544 156.7872 
L 100.4544 165.6576 
L 100.4544 174.528 
L 100.4544 183.3984 
L 100.4544 192.2688 
L 100.4544 201.1392 
L 100.4544 201.442418 
L 100.76828 201.483158 
L 106.380653 202.123479 
L 112.446036 202.908033 
L 115.919963 203.328411 
L 118.839897 203.73728 
L 119.00633 203.7595 
L 119.040079 203.765059 
L 129.152342 205.172865 
L 131.135827 205.518893 
L 134.353865 205.986805 
L 137.823923 206.608074 
L 143.275689 207.436943 
L 148.420557 208.416544 
L 149.556497 208.597462 
L 156.770015 210.0096 
L 157.065524 210.06649 
L 157.197432 210.097257 
L 164.603844 211.618935 
L 165.944329 211.946594 
L 170.63384 212.938785 
L 177.615678 214.73129 
L 179.458629 215.14984 
L 183.648214 216.28192 
L 183.973981 216.373378 
L 190.796392 218.28989 
L 191.300989 218.431992 
L 192.698973 218.88 
L 200.343367 221.304943 
L 200.838077 221.47808 
L 208.881456 224.248475 
L 213.105429 225.964514 
L 214.291392 226.398753 
L 217.496069 227.7504 
L 220.678129 229.062181 
L 224.949602 231.119408 
L 228.149325 232.566887 
L 230.972106 234.02272 
L 233.791754 235.560059 
L 235.834198 236.6208 
L 236.561635 236.99392 
L 236.859209 237.167952 
L 240.349558 239.21888 
L 242.602702 240.518276 
L 244.847188 242.019775 
L 246.970849 243.34436 
L 250.026225 245.4912 
L 252.62854 247.272508 
L 258.283968 251.76352 
L 258.908437 252.248961 
L 261.35113 254.3616 
L 264.073589 256.799286 
L 264.268213 256.95968 
L 264.606261 257.259759 
L 268.597882 261.209503 
L 270.544662 263.121166 
L 270.64087 263.232 
L 276.192454 269.437908 
L 276.245572 269.50432 
L 277.098615 270.450277 
L 278.348973 272.1024 
L 279.775094 273.80486 
L 280.400017 274.70048 
L 280.745072 275.134501 
L 284.912494 280.9728 
L 285.68087 282.016125 
L 288.952257 287.24512 
L 289.726468 288.439039 
L 290.496553 289.8432 
L 291.883741 292.22656 
L 292.014406 292.44128 
L 292.154518 292.662936 
L 293.136771 294.504759 
L 295.011699 297.962211 
L 295.374099 298.7136 
L 298.011292 303.985735 
L 298.420948 304.98592 
L 298.74402 305.7328 
L 299.603092 307.584 
L 302.8224 307.584 
L 310.91712 307.584 
L 319.01184 307.584 
L 327.10656 307.584 
L 335.20128 307.584 
L 343.296 307.584 
L 343.296 298.7136 
L 343.296 289.8432 
L 343.296 280.9728 
L 343.296 272.1024 
L 343.296 263.232 
L 343.296 254.3616 
L 343.296 245.4912 
L 343.296 236.6208 
L 343.296 227.7504 
L 343.296 218.88 
L 343.296 210.0096 
L 343.296 201.1392 
L 343.296 192.2688 
L 343.296 183.3984 
L 343.296 174.528 
L 343.296 165.6576 
L 343.296 156.7872 
L 343.296 147.9168 
L 343.296 139.0464 
L 343.296 130.176 
L 343.296 121.3056 
L 343.296 112.4352 
L 343.296 103.5648 
L 343.296 94.6944 
L 343.296 85.824 
L 343.296 76.9536 
L 343.296 68.0832 
L 343.296 59.2128 
L 343.296 50.3424 
L 343.296 41.472 
L 335.20128 41.472 
L 327.10656 41.472 
L 319.01184 41.472 
L 310.91712 41.472 
L 302.8224 41.472 
L 294.72768 41.472 
" clip-path="url(#p72cbbf60ef)" style="fill: #f8f500"/>
   </g>
   <g id="PathCollection_18">
    <path d="M 299.603092 307.584 
L 298.74402 305.7328 
L 298.420948 304.98592 
L 298.011292 303.985735 
L 295.374099 298.7136 
L 295.011699 297.962211 
L 293.136771 294.504759 
L 292.154518 292.662936 
L 292.014406 292.44128 
L 291.883741 292.22656 
L 290.496553 289.8432 
L 289.726468 288.439039 
L 288.952257 287.24512 
L 285.68087 282.016125 
L 284.912494 280.9728 
L 280.745072 275.134501 
L 280.400017 274.70048 
L 279.775094 273.80486 
L 278.348973 272.1024 
L 277.098615 270.450277 
L 276.245572 269.50432 
L 276.192454 269.437908 
L 270.64087 263.232 
L 270.544662 263.121166 
L 268.597882 261.209503 
L 264.606261 257.259759 
L 264.268213 256.95968 
L 264.073589 256.799286 
L 261.35113 254.3616 
L 258.908437 252.248961 
L 258.283968 251.76352 
L 252.62854 247.272508 
L 250.026225 245.4912 
L 246.970849 243.34436 
L 244.847188 242.019775 
L 242.602702 240.518276 
L 240.349558 239.21888 
L 236.859209 237.167952 
L 236.561635 236.99392 
L 235.834198 236.6208 
L 233.791754 235.560059 
L 230.972106 234.02272 
L 228.149325 232.566887 
L 224.949602 231.119408 
L 220.678129 229.062181 
L 217.496069 227.7504 
L 214.291392 226.398753 
L 213.105429 225.964514 
L 208.881456 224.248475 
L 200.838077 221.47808 
L 200.343367 221.304943 
L 192.698973 218.88 
L 191.300989 218.431992 
L 190.796392 218.28989 
L 183.973981 216.373378 
L 183.648214 216.28192 
L 179.458629 215.14984 
L 177.615678 214.73129 
L 170.63384 212.938785 
L 165.944329 211.946594 
L 164.603844 211.618935 
L 157.197432 210.097257 
L 157.065524 210.06649 
L 156.770015 210.0096 
L 149.556497 208.597462 
L 148.420557 208.416544 
L 143.275689 207.436943 
L 137.823923 206.608074 
L 134.353865 205.986805 
L 131.135827 205.518893 
L 129.152342 205.172865 
L 119.040079 203.765059 
L 119.00633 203.7595 
L 118.839897 203.73728 
L 115.919963 203.328411 
L 112.446036 202.908033 
L 106.380653 202.123479 
L 100.76828 201.483158 
L 100.4544 201.442418 
L 100.4544 210.0096 
L 100.4544 218.88 
L 100.4544 227.7504 
L 100.4544 236.6208 
L 100.4544 243.515915 
L 101.133867 243.693632 
L 107.45655 245.4912 
L 108.324679 245.737149 
L 108.95221 245.932917 
L 115.719866 247.935626 
L 117.824204 248.61392 
L 121.010694 249.57629 
L 127.565681 251.76352 
L 129.238925 252.318858 
L 130.828783 252.849706 
L 135.049182 254.3616 
L 138.344503 255.534264 
L 142.122991 256.95968 
L 145.497703 258.224403 
L 147.429394 259.016765 
L 150.207514 260.097561 
L 156.778706 262.860807 
L 157.273614 263.06086 
L 157.658669 263.232 
L 164.135294 266.08091 
L 166.758943 267.324101 
L 168.751523 268.223876 
L 171.337109 269.50432 
L 175.037331 271.316938 
L 176.540177 272.1024 
L 180.752764 274.272982 
L 181.522679 274.70048 
L 183.395817 275.696986 
L 186.079068 277.228088 
L 190.611305 279.750972 
L 192.616032 280.9728 
L 196.670052 283.409326 
L 199.104913 284.977836 
L 200.972479 286.137734 
L 202.599566 287.24512 
L 206.159968 289.627954 
L 206.264463 289.699537 
L 206.457376 289.8432 
L 206.859339 290.13454 
L 207.851734 290.826348 
L 210.155261 292.44128 
L 210.92528 292.972001 
L 211.882171 293.691516 
L 214.858171 295.862508 
L 218.504519 298.7136 
L 220.485152 300.23685 
L 226.126113 304.98592 
L 226.649634 305.416857 
L 229.097761 307.584 
L 229.96992 307.584 
L 238.06464 307.584 
L 246.15936 307.584 
L 254.25408 307.584 
L 262.3488 307.584 
L 270.44352 307.584 
L 278.53824 307.584 
L 286.63296 307.584 
L 294.72768 307.584 
" clip-path="url(#p72cbbf60ef)" style="fill: #ff9400"/>
   </g>
   <g id="PathCollection_19">
    <path d="M 229.097761 307.584 
L 226.649634 305.416857 
L 226.126113 304.98592 
L 220.485152 300.23685 
L 218.504519 298.7136 
L 214.858171 295.862508 
L 211.882171 293.691516 
L 210.92528 292.972001 
L 210.155261 292.44128 
L 207.851734 290.826348 
L 206.859339 290.13454 
L 206.457376 289.8432 
L 206.264463 289.699537 
L 206.159968 289.627954 
L 202.599566 287.24512 
L 200.972479 286.137734 
L 199.104913 284.977836 
L 196.670052 283.409326 
L 192.616032 280.9728 
L 190.611305 279.750972 
L 186.079068 277.228088 
L 183.395817 275.696986 
L 181.522679 274.70048 
L 180.752764 274.272982 
L 176.540177 272.1024 
L 175.037331 271.316938 
L 171.337109 269.50432 
L 168.751523 268.223876 
L 166.758943 267.324101 
L 164.135294 266.08091 
L 157.658669 263.232 
L 157.273614 263.06086 
L 156.778706 262.860807 
L 150.207514 260.097561 
L 147.429394 259.016765 
L 145.497703 258.224403 
L 142.122991 256.95968 
L 138.344503 255.534264 
L 135.049182 254.3616 
L 130.828783 252.849706 
L 129.238925 252.318858 
L 127.565681 251.76352 
L 121.010694 249.57629 
L 117.824204 248.61392 
L 115.719866 247.935626 
L 108.95221 245.932917 
L 108.324679 245.737149 
L 107.45655 245.4912 
L 101.133867 243.693632 
L 100.4544 243.515915 
L 100.4544 245.4912 
L 100.4544 254.3616 
L 100.4544 263.232 
L 100.4544 272.1024 
L 100.4544 280.9728 
L 100.4544 284.743876 
L 102.136219 285.422146 
L 103.863764 286.107132 
L 106.575302 287.24512 
L 110.573693 288.924234 
L 111.18922 289.187797 
L 112.659924 289.8432 
L 117.959143 292.179232 
L 118.55983 292.44128 
L 118.948621 292.616171 
L 119.343349 292.80139 
L 126.930703 296.311394 
L 131.851194 298.7136 
L 132.67968 299.119958 
L 133.060454 299.314601 
L 138.079543 301.835011 
L 144.026904 304.98592 
L 145.241159 305.626232 
L 148.804502 307.584 
L 149.02272 307.584 
L 157.11744 307.584 
L 165.21216 307.584 
L 173.30688 307.584 
L 181.4016 307.584 
L 189.49632 307.584 
L 197.59104 307.584 
L 205.68576 307.584 
L 213.78048 307.584 
L 221.8752 307.584 
" clip-path="url(#p72cbbf60ef)" style="fill: #ff3800"/>
   </g>
   <g id="PathCollection_20">
    <path d="M 148.804502 307.584 
L 145.241159 305.626232 
L 144.026904 304.98592 
L 138.079543 301.835011 
L 133.060454 299.314601 
L 132.67968 299.119958 
L 131.851194 298.7136 
L 126.930703 296.311394 
L 119.343349 292.80139 
L 118.948621 292.616171 
L 118.55983 292.44128 
L 117.959143 292.179232 
L 112.659924 289.8432 
L 111.18922 289.187797 
L 110.573693 288.924234 
L 106.575302 287.24512 
L 103.863764 286.107132 
L 102.136219 285.422146 
L 100.4544 284.743876 
L 100.4544 289.8432 
L 100.4544 298.7136 
L 100.4544 307.584 
L 108.54912 307.584 
L 116.64384 307.584 
L 124.73856 307.584 
L 132.83328 307.584 
L 140.928 307.584 
" clip-path="url(#p72cbbf60ef)" style="fill: #b60000"/>
   </g>
   <g id="matplotlib.axis_1">
    <g id="xtick_1">
     <g id="line2d_1">
      <defs>
       <path id="mf4a92327d4" d="M 0 0 
L 0 3.5 
" style="stroke: #000000; stroke-width: 0.8"/>
      </defs>
      <g>
       <use xlink:href="#mf4a92327d4" x="57.6" y="307.584" style="stroke: #000000; stroke-width: 0.8"/>
      </g>
     </g>
     <g id="text_1">
      <!-- 0.0 -->
      <g transform="translate(51.26875 321.385562) scale(0.1 -0.1)">
       <defs>
        <path id="Calibri-30" d="M 3022 2031 
Q 3022 1566 2948 1181 
Q 2875 797 2704 520 
Q 2534 244 2259 92 
Q 1984 -59 1581 -59 
Q 1200 -59 939 77 
Q 678 213 518 477 
Q 359 741 292 1127 
Q 225 1513 225 2013 
Q 225 2475 300 2861 
Q 375 3247 544 3523 
Q 713 3800 988 3951 
Q 1263 4103 1663 4103 
Q 2047 4103 2308 3967 
Q 2569 3831 2728 3567 
Q 2888 3303 2955 2917 
Q 3022 2531 3022 2031 
z
M 2472 1994 
Q 2472 2297 2450 2537 
Q 2428 2778 2386 2962 
Q 2344 3147 2276 3280 
Q 2209 3413 2115 3498 
Q 2022 3584 1901 3623 
Q 1781 3663 1631 3663 
Q 1366 3663 1200 3538 
Q 1034 3413 939 3194 
Q 844 2975 809 2681 
Q 775 2388 775 2050 
Q 775 1597 822 1280 
Q 869 963 970 763 
Q 1072 563 1230 472 
Q 1388 381 1613 381 
Q 1788 381 1920 437 
Q 2053 494 2148 598 
Q 2244 703 2306 850 
Q 2369 997 2406 1175 
Q 2444 1353 2458 1561 
Q 2472 1769 2472 1994 
z
" transform="scale(0.015625)"/>
        <path id="Calibri-2e" d="M 1144 341 
Q 1144 119 1070 45 
Q 997 -28 803 -28 
Q 616 -28 544 44 
Q 472 116 472 331 
Q 472 553 545 626 
Q 619 700 813 700 
Q 1000 700 1072 628 
Q 1144 556 1144 341 
z
" transform="scale(0.015625)"/>
       </defs>
       <use xlink:href="#Calibri-30"/>
       <use xlink:href="#Calibri-2e" x="50.683594"/>
       <use xlink:href="#Calibri-30" x="75.927734"/>
      </g>
     </g>
    </g>
    <g id="xtick_2">
     <g id="line2d_2">
      <g>
       <use xlink:href="#mf4a92327d4" x="86.1696" y="307.584" style="stroke: #000000; stroke-width: 0.8"/>
      </g>
     </g>
     <g id="text_2">
      <!-- 0.1 -->
      <g transform="translate(79.83835 321.385562) scale(0.1 -0.1)">
       <defs>
        <path id="Calibri-31" d="M 2897 213 
Q 2897 153 2887 112 
Q 2878 72 2862 47 
Q 2847 22 2826 11 
Q 2806 0 2784 0 
L 672 0 
Q 650 0 631 11 
Q 613 22 595 47 
Q 578 72 568 112 
Q 559 153 559 213 
Q 559 269 568 309 
Q 578 350 592 376 
Q 606 403 626 417 
Q 647 431 672 431 
L 1516 431 
L 1516 3506 
L 734 3041 
Q 675 3009 639 3003 
Q 603 2997 581 3017 
Q 559 3038 551 3084 
Q 544 3131 544 3203 
Q 544 3256 548 3293 
Q 553 3331 562 3356 
Q 572 3381 589 3400 
Q 606 3419 634 3438 
L 1566 4034 
Q 1578 4044 1597 4050 
Q 1616 4056 1644 4062 
Q 1672 4069 1709 4070 
Q 1747 4072 1803 4072 
Q 1878 4072 1928 4065 
Q 1978 4059 2006 4048 
Q 2034 4038 2043 4020 
Q 2053 4003 2053 3984 
L 2053 431 
L 2784 431 
Q 2809 431 2831 417 
Q 2853 403 2867 376 
Q 2881 350 2889 309 
Q 2897 269 2897 213 
z
" transform="scale(0.015625)"/>
       </defs>
       <use xlink:href="#Calibri-30"/>
       <use xlink:href="#Calibri-2e" x="50.683594"/>
       <use xlink:href="#Calibri-31" x="75.927734"/>
      </g>
     </g>
    </g>
    <g id="xtick_3">
     <g id="line2d_3">
      <g>
       <use xlink:href="#mf4a92327d4" x="114.7392" y="307.584" style="stroke: #000000; stroke-width: 0.8"/>
      </g>
     </g>
     <g id="text_3">
      <!-- 0.2 -->
      <g transform="translate(108.40795 321.385562) scale(0.1 -0.1)">
       <defs>
        <path id="Calibri-32" d="M 2888 231 
Q 2888 175 2880 131 
Q 2872 88 2858 58 
Q 2844 28 2820 14 
Q 2797 0 2769 0 
L 534 0 
Q 491 0 458 11 
Q 425 22 401 47 
Q 378 72 367 119 
Q 356 166 356 234 
Q 356 297 361 344 
Q 366 391 381 427 
Q 397 463 420 498 
Q 444 534 481 575 
L 1266 1406 
Q 1538 1694 1702 1922 
Q 1866 2150 1955 2337 
Q 2044 2525 2072 2678 
Q 2100 2831 2100 2966 
Q 2100 3100 2056 3220 
Q 2013 3341 1930 3431 
Q 1847 3522 1722 3575 
Q 1597 3628 1434 3628 
Q 1244 3628 1092 3575 
Q 941 3522 827 3459 
Q 713 3397 636 3344 
Q 559 3291 522 3291 
Q 500 3291 483 3303 
Q 466 3316 455 3344 
Q 444 3372 437 3419 
Q 431 3466 431 3531 
Q 431 3578 434 3612 
Q 438 3647 445 3672 
Q 453 3697 465 3719 
Q 478 3741 515 3773 
Q 553 3806 645 3862 
Q 738 3919 877 3973 
Q 1016 4028 1183 4065 
Q 1350 4103 1534 4103 
Q 1828 4103 2048 4020 
Q 2269 3938 2414 3794 
Q 2559 3650 2631 3459 
Q 2703 3269 2703 3053 
Q 2703 2859 2668 2667 
Q 2634 2475 2523 2251 
Q 2413 2028 2203 1754 
Q 1994 1481 1647 1125 
L 1006 456 
L 2766 456 
Q 2791 456 2814 442 
Q 2838 428 2855 400 
Q 2872 372 2880 330 
Q 2888 288 2888 231 
z
" transform="scale(0.015625)"/>
       </defs>
       <use xlink:href="#Calibri-30"/>
       <use xlink:href="#Calibri-2e" x="50.683594"/>
       <use xlink:href="#Calibri-32" x="75.927734"/>
      </g>
     </g>
    </g>
    <g id="xtick_4">
     <g id="line2d_4">
      <g>
       <use xlink:href="#mf4a92327d4" x="143.3088" y="307.584" style="stroke: #000000; stroke-width: 0.8"/>
      </g>
     </g>
     <g id="text_4">
      <!-- 0.3 -->
      <g transform="translate(136.97755 321.385562) scale(0.1 -0.1)">
       <defs>
        <path id="Calibri-33" d="M 2856 1156 
Q 2856 878 2759 654 
Q 2663 431 2481 272 
Q 2300 113 2034 27 
Q 1769 -59 1434 -59 
Q 1231 -59 1054 -26 
Q 878 6 740 51 
Q 603 97 512 145 
Q 422 194 398 216 
Q 375 238 362 259 
Q 350 281 340 312 
Q 331 344 326 389 
Q 322 434 322 500 
Q 322 613 344 656 
Q 366 700 406 700 
Q 434 700 517 650 
Q 600 600 729 542 
Q 859 484 1032 434 
Q 1206 384 1419 384 
Q 1625 384 1781 437 
Q 1938 491 2044 587 
Q 2150 684 2203 817 
Q 2256 950 2256 1106 
Q 2256 1278 2189 1415 
Q 2122 1553 1992 1653 
Q 1863 1753 1673 1806 
Q 1484 1859 1244 1859 
L 859 1859 
Q 834 1859 811 1870 
Q 788 1881 770 1906 
Q 753 1931 742 1972 
Q 731 2013 731 2078 
Q 731 2138 740 2177 
Q 750 2216 767 2239 
Q 784 2263 806 2273 
Q 828 2284 856 2284 
L 1209 2284 
Q 1416 2284 1580 2337 
Q 1744 2391 1858 2491 
Q 1972 2591 2033 2730 
Q 2094 2869 2094 3041 
Q 2094 3166 2053 3280 
Q 2013 3394 1931 3478 
Q 1850 3563 1723 3611 
Q 1597 3659 1431 3659 
Q 1250 3659 1098 3604 
Q 947 3550 828 3487 
Q 709 3425 631 3370 
Q 553 3316 522 3316 
Q 500 3316 483 3323 
Q 466 3331 455 3354 
Q 444 3378 439 3420 
Q 434 3463 434 3531 
Q 434 3578 437 3614 
Q 441 3650 450 3676 
Q 459 3703 471 3725 
Q 484 3747 514 3776 
Q 544 3806 634 3862 
Q 725 3919 858 3973 
Q 991 4028 1164 4065 
Q 1338 4103 1538 4103 
Q 1819 4103 2031 4031 
Q 2244 3959 2386 3828 
Q 2528 3697 2598 3514 
Q 2669 3331 2669 3109 
Q 2669 2919 2619 2755 
Q 2569 2591 2472 2464 
Q 2375 2338 2234 2248 
Q 2094 2159 1909 2125 
L 1909 2119 
Q 2119 2097 2292 2014 
Q 2466 1931 2591 1806 
Q 2716 1681 2786 1514 
Q 2856 1347 2856 1156 
z
" transform="scale(0.015625)"/>
       </defs>
       <use xlink:href="#Calibri-30"/>
       <use xlink:href="#Calibri-2e" x="50.683594"/>
       <use xlink:href="#Calibri-33" x="75.927734"/>
      </g>
     </g>
    </g>
    <g id="xtick_5">
     <g id="line2d_5">
      <g>
       <use xlink:href="#mf4a92327d4" x="171.8784" y="307.584" style="stroke: #000000; stroke-width: 0.8"/>
      </g>
     </g>
     <g id="text_5">
      <!-- 0.4 -->
      <g transform="translate(165.54715 321.385562) scale(0.1 -0.1)">
       <defs>
        <path id="Calibri-34" d="M 3059 1150 
Q 3059 1047 3028 987 
Q 2997 928 2941 928 
L 2484 928 
L 2484 78 
Q 2484 53 2471 36 
Q 2459 19 2428 6 
Q 2397 -6 2347 -12 
Q 2297 -19 2219 -19 
Q 2144 -19 2094 -12 
Q 2044 -6 2014 6 
Q 1984 19 1973 36 
Q 1963 53 1963 78 
L 1963 928 
L 294 928 
Q 256 928 231 937 
Q 206 947 186 972 
Q 166 997 158 1044 
Q 150 1091 150 1166 
Q 150 1225 153 1272 
Q 156 1319 165 1358 
Q 175 1397 190 1433 
Q 206 1469 228 1509 
L 1684 3966 
Q 1700 3991 1729 4009 
Q 1759 4028 1806 4040 
Q 1853 4053 1922 4058 
Q 1991 4063 2084 4063 
Q 2188 4063 2264 4055 
Q 2341 4047 2387 4034 
Q 2434 4022 2459 4001 
Q 2484 3981 2484 3953 
L 2484 1372 
L 2941 1372 
Q 2994 1372 3026 1317 
Q 3059 1263 3059 1150 
z
M 1963 3591 
L 1956 3591 
L 641 1372 
L 1963 1372 
L 1963 3591 
z
" transform="scale(0.015625)"/>
       </defs>
       <use xlink:href="#Calibri-30"/>
       <use xlink:href="#Calibri-2e" x="50.683594"/>
       <use xlink:href="#Calibri-34" x="75.927734"/>
      </g>
     </g>
    </g>
    <g id="xtick_6">
     <g id="line2d_6">
      <g>
       <use xlink:href="#mf4a92327d4" x="200.448" y="307.584" style="stroke: #000000; stroke-width: 0.8"/>
      </g>
     </g>
     <g id="text_6">
      <!-- 0.5 -->
      <g transform="translate(194.11675 321.385562) scale(0.1 -0.1)">
       <defs>
        <path id="Calibri-35" d="M 2869 1300 
Q 2869 975 2759 722 
Q 2650 469 2450 295 
Q 2250 122 1973 31 
Q 1697 -59 1359 -59 
Q 1172 -59 1003 -32 
Q 834 -6 703 33 
Q 572 72 487 109 
Q 403 147 379 169 
Q 356 191 347 209 
Q 338 228 330 254 
Q 322 281 319 322 
Q 316 363 316 419 
Q 316 472 320 514 
Q 325 556 337 582 
Q 350 609 367 621 
Q 384 634 406 634 
Q 438 634 503 595 
Q 569 556 680 511 
Q 791 466 955 425 
Q 1119 384 1344 384 
Q 1553 384 1728 434 
Q 1903 484 2029 590 
Q 2156 697 2228 858 
Q 2300 1019 2300 1250 
Q 2300 1444 2239 1592 
Q 2178 1741 2051 1839 
Q 1925 1938 1731 1986 
Q 1538 2034 1269 2034 
Q 1078 2034 940 2015 
Q 803 1997 684 1997 
Q 597 1997 559 2037 
Q 522 2078 522 2194 
L 522 3841 
Q 522 3944 570 3994 
Q 619 4044 709 4044 
L 2500 4044 
Q 2525 4044 2548 4030 
Q 2572 4016 2587 3987 
Q 2603 3959 2611 3915 
Q 2619 3872 2619 3813 
Q 2619 3700 2587 3637 
Q 2556 3575 2500 3575 
L 991 3575 
L 991 2441 
Q 1100 2456 1214 2459 
Q 1328 2463 1478 2463 
Q 1825 2463 2084 2380 
Q 2344 2297 2517 2145 
Q 2691 1994 2780 1778 
Q 2869 1563 2869 1300 
z
" transform="scale(0.015625)"/>
       </defs>
       <use xlink:href="#Calibri-30"/>
       <use xlink:href="#Calibri-2e" x="50.683594"/>
       <use xlink:href="#Calibri-35" x="75.927734"/>
      </g>
     </g>
    </g>
    <g id="xtick_7">
     <g id="line2d_7">
      <g>
       <use xlink:href="#mf4a92327d4" x="229.0176" y="307.584" style="stroke: #000000; stroke-width: 0.8"/>
      </g>
     </g>
     <g id="text_7">
      <!-- 0.6 -->
      <g transform="translate(222.68635 321.385562) scale(0.1 -0.1)">
       <defs>
        <path id="Calibri-36" d="M 2991 1309 
Q 2991 1044 2909 795 
Q 2828 547 2659 358 
Q 2491 169 2231 55 
Q 1972 -59 1619 -59 
Q 1366 -59 1172 3 
Q 978 66 834 181 
Q 691 297 595 465 
Q 500 634 442 850 
Q 384 1066 359 1322 
Q 334 1578 334 1872 
Q 334 2131 362 2397 
Q 391 2663 462 2909 
Q 534 3156 657 3373 
Q 781 3591 967 3752 
Q 1153 3913 1412 4006 
Q 1672 4100 2016 4100 
Q 2131 4100 2250 4086 
Q 2369 4072 2469 4048 
Q 2569 4025 2637 3997 
Q 2706 3969 2728 3951 
Q 2750 3934 2761 3914 
Q 2772 3894 2778 3870 
Q 2784 3847 2787 3817 
Q 2791 3788 2791 3744 
Q 2791 3688 2789 3647 
Q 2788 3606 2777 3581 
Q 2766 3556 2748 3543 
Q 2731 3531 2703 3531 
Q 2669 3531 2609 3553 
Q 2550 3575 2465 3601 
Q 2381 3628 2261 3650 
Q 2141 3672 1981 3672 
Q 1691 3672 1481 3553 
Q 1272 3434 1139 3234 
Q 1006 3034 942 2770 
Q 878 2506 869 2219 
Q 950 2266 1051 2312 
Q 1153 2359 1273 2396 
Q 1394 2434 1528 2457 
Q 1663 2481 1816 2481 
Q 2144 2481 2369 2392 
Q 2594 2303 2733 2145 
Q 2872 1988 2931 1773 
Q 2991 1559 2991 1309 
z
M 2447 1259 
Q 2447 1441 2411 1589 
Q 2375 1738 2290 1841 
Q 2206 1944 2065 2000 
Q 1925 2056 1719 2056 
Q 1603 2056 1487 2036 
Q 1372 2016 1264 1980 
Q 1156 1944 1057 1895 
Q 959 1847 878 1791 
Q 878 1388 929 1116 
Q 981 844 1079 680 
Q 1178 516 1325 445 
Q 1472 375 1669 375 
Q 1869 375 2016 450 
Q 2163 525 2259 651 
Q 2356 778 2401 936 
Q 2447 1094 2447 1259 
z
" transform="scale(0.015625)"/>
       </defs>
       <use xlink:href="#Calibri-30"/>
       <use xlink:href="#Calibri-2e" x="50.683594"/>
       <use xlink:href="#Calibri-36" x="75.927734"/>
      </g>
     </g>
    </g>
    <g id="xtick_8">
     <g id="line2d_8">
      <g>
       <use xlink:href="#mf4a92327d4" x="257.5872" y="307.584" style="stroke: #000000; stroke-width: 0.8"/>
      </g>
     </g>
     <g id="text_8">
      <!-- 0.7 -->
      <g transform="translate(251.25595 321.385562) scale(0.1 -0.1)">
       <defs>
        <path id="Calibri-37" d="M 2947 3813 
Q 2947 3756 2942 3711 
Q 2938 3666 2930 3623 
Q 2922 3581 2908 3542 
Q 2894 3503 2875 3459 
L 1419 103 
Q 1403 66 1379 42 
Q 1356 19 1320 5 
Q 1284 -9 1228 -14 
Q 1172 -19 1091 -19 
Q 984 -19 925 -9 
Q 866 0 839 20 
Q 813 41 816 70 
Q 819 100 838 141 
L 2369 3572 
L 428 3572 
Q 369 3572 339 3634 
Q 309 3697 309 3809 
Q 309 3869 317 3912 
Q 325 3956 340 3986 
Q 356 4016 378 4030 
Q 400 4044 428 4044 
L 2784 4044 
Q 2828 4044 2861 4034 
Q 2894 4025 2911 3997 
Q 2928 3969 2937 3925 
Q 2947 3881 2947 3813 
z
" transform="scale(0.015625)"/>
       </defs>
       <use xlink:href="#Calibri-30"/>
       <use xlink:href="#Calibri-2e" x="50.683594"/>
       <use xlink:href="#Calibri-37" x="75.927734"/>
      </g>
     </g>
    </g>
    <g id="xtick_9">
     <g id="line2d_9">
      <g>
       <use xlink:href="#mf4a92327d4" x="286.1568" y="307.584" style="stroke: #000000; stroke-width: 0.8"/>
      </g>
     </g>
     <g id="text_9">
      <!-- 0.8 -->
      <g transform="translate(279.82555 321.385562) scale(0.1 -0.1)">
       <defs>
        <path id="Calibri-38" d="M 2981 1038 
Q 2981 775 2887 570 
Q 2794 366 2617 225 
Q 2441 84 2181 12 
Q 1922 -59 1588 -59 
Q 1275 -59 1028 6 
Q 781 72 609 200 
Q 438 328 347 515 
Q 256 703 256 944 
Q 256 1134 318 1293 
Q 381 1453 498 1587 
Q 616 1722 787 1839 
Q 959 1956 1175 2063 
Q 988 2159 844 2267 
Q 700 2375 600 2501 
Q 500 2628 448 2772 
Q 397 2916 397 3084 
Q 397 3297 473 3483 
Q 550 3669 704 3806 
Q 859 3944 1098 4023 
Q 1338 4103 1656 4103 
Q 1963 4103 2186 4029 
Q 2409 3956 2554 3829 
Q 2700 3703 2769 3531 
Q 2838 3359 2838 3163 
Q 2838 3003 2786 2856 
Q 2734 2709 2634 2578 
Q 2534 2447 2389 2333 
Q 2244 2219 2056 2119 
Q 2278 2009 2451 1893 
Q 2625 1778 2742 1645 
Q 2859 1513 2920 1364 
Q 2981 1216 2981 1038 
z
M 2306 3113 
Q 2306 3244 2261 3350 
Q 2216 3456 2128 3531 
Q 2041 3606 1911 3645 
Q 1781 3684 1616 3684 
Q 1278 3684 1104 3531 
Q 931 3378 931 3113 
Q 931 2991 973 2886 
Q 1016 2781 1105 2687 
Q 1194 2594 1330 2505 
Q 1466 2416 1653 2319 
Q 1969 2481 2137 2678 
Q 2306 2875 2306 3113 
z
M 2438 981 
Q 2438 1125 2384 1242 
Q 2331 1359 2223 1461 
Q 2116 1563 1955 1658 
Q 1794 1753 1581 1856 
Q 1384 1759 1236 1662 
Q 1088 1566 992 1462 
Q 897 1359 848 1245 
Q 800 1131 800 994 
Q 800 691 1008 525 
Q 1216 359 1628 359 
Q 2028 359 2233 526 
Q 2438 694 2438 981 
z
" transform="scale(0.015625)"/>
       </defs>
       <use xlink:href="#Calibri-30"/>
       <use xlink:href="#Calibri-2e" x="50.683594"/>
       <use xlink:href="#Calibri-38" x="75.927734"/>
      </g>
     </g>
    </g>
    <g id="xtick_10">
     <g id="line2d_10">
      <g>
       <use xlink:href="#mf4a92327d4" x="314.7264" y="307.584" style="stroke: #000000; stroke-width: 0.8"/>
      </g>
     </g>
     <g id="text_10">
      <!-- 0.9 -->
      <g transform="translate(308.39515 321.385562) scale(0.1 -0.1)">
       <defs>
        <path id="Calibri-39" d="M 2919 2181 
Q 2919 1919 2887 1650 
Q 2856 1381 2781 1132 
Q 2706 884 2579 667 
Q 2453 450 2261 287 
Q 2069 125 1805 33 
Q 1541 -59 1191 -59 
Q 1056 -59 929 -42 
Q 803 -25 701 0 
Q 600 25 531 53 
Q 463 81 431 109 
Q 400 138 386 186 
Q 372 234 372 316 
Q 372 384 376 425 
Q 381 466 390 487 
Q 400 509 417 517 
Q 434 525 459 525 
Q 494 525 556 501 
Q 619 478 714 450 
Q 809 422 937 398 
Q 1066 375 1225 375 
Q 1528 375 1745 492 
Q 1963 609 2100 806 
Q 2238 1003 2306 1262 
Q 2375 1522 2381 1809 
Q 2216 1713 1984 1638 
Q 1753 1563 1453 1563 
Q 1116 1563 886 1655 
Q 656 1747 517 1906 
Q 378 2066 317 2284 
Q 256 2503 256 2763 
Q 256 3031 334 3273 
Q 413 3516 578 3700 
Q 744 3884 1000 3993 
Q 1256 4103 1613 4103 
Q 1866 4103 2061 4039 
Q 2256 3975 2400 3854 
Q 2544 3734 2644 3564 
Q 2744 3394 2805 3178 
Q 2866 2963 2892 2711 
Q 2919 2459 2919 2181 
z
M 2372 2241 
Q 2372 2641 2319 2914 
Q 2266 3188 2162 3356 
Q 2059 3525 1909 3600 
Q 1759 3675 1563 3675 
Q 1359 3675 1215 3601 
Q 1072 3528 980 3404 
Q 888 3281 844 3125 
Q 800 2969 800 2803 
Q 800 2619 839 2466 
Q 878 2313 965 2206 
Q 1053 2100 1193 2042 
Q 1334 1984 1541 1984 
Q 1775 1984 1994 2054 
Q 2213 2125 2372 2241 
z
" transform="scale(0.015625)"/>
       </defs>
       <use xlink:href="#Calibri-30"/>
       <use xlink:href="#Calibri-2e" x="50.683594"/>
       <use xlink:href="#Calibri-39" x="75.927734"/>
      </g>
     </g>
    </g>
    <g id="xtick_11">
     <g id="line2d_11">
      <g>
       <use xlink:href="#mf4a92327d4" x="343.296" y="307.584" style="stroke: #000000; stroke-width: 0.8"/>
      </g>
     </g>
     <g id="text_11">
      <!-- 1.0 -->
      <g transform="translate(336.96475 321.385562) scale(0.1 -0.1)">
       <use xlink:href="#Calibri-31"/>
       <use xlink:href="#Calibri-2e" x="50.683594"/>
       <use xlink:href="#Calibri-30" x="75.927734"/>
      </g>
     </g>
    </g>
    <g id="text_12">
     <!-- $\mathit{p}$ (cm$^2$/cm$^2$) -->
     <g transform="translate(174.148 336.263687) scale(0.1 -0.1)">
      <defs>
       <path id="DejaVuSans-Oblique-70" d="M 3175 2156 
Q 3175 2616 2975 2859 
Q 2775 3103 2400 3103 
Q 2144 3103 1911 2972 
Q 1678 2841 1497 2591 
Q 1319 2344 1212 1994 
Q 1106 1644 1106 1300 
Q 1106 863 1306 627 
Q 1506 391 1875 391 
Q 2147 391 2380 519 
Q 2613 647 2778 891 
Q 2956 1147 3065 1494 
Q 3175 1841 3175 2156 
z
M 1394 2969 
Q 1625 3272 1939 3428 
Q 2253 3584 2638 3584 
Q 3175 3584 3472 3232 
Q 3769 2881 3769 2247 
Q 3769 1728 3584 1258 
Q 3400 788 3053 416 
Q 2822 169 2531 39 
Q 2241 -91 1919 -91 
Q 1547 -91 1294 64 
Q 1041 219 916 525 
L 556 -1331 
L -19 -1331 
L 922 3500 
L 1497 3500 
L 1394 2969 
z
" transform="scale(0.015625)"/>
       <path id="Calibri-20" transform="scale(0.015625)"/>
       <path id="Calibri-28" d="M 1547 4306 
Q 1250 3678 1104 3017 
Q 959 2356 959 1688 
Q 959 1016 1107 356 
Q 1256 -303 1541 -938 
Q 1556 -975 1557 -1001 
Q 1559 -1028 1537 -1045 
Q 1516 -1063 1470 -1070 
Q 1425 -1078 1347 -1078 
Q 1291 -1078 1250 -1075 
Q 1209 -1072 1179 -1062 
Q 1150 -1053 1131 -1040 
Q 1113 -1028 1103 -1013 
Q 934 -694 806 -367 
Q 678 -41 590 296 
Q 503 634 459 979 
Q 416 1325 416 1678 
Q 416 2031 464 2375 
Q 513 2719 602 3058 
Q 691 3397 819 3725 
Q 947 4053 1106 4375 
Q 1109 4388 1123 4397 
Q 1138 4406 1163 4415 
Q 1188 4425 1231 4429 
Q 1275 4434 1344 4434 
Q 1416 4434 1459 4425 
Q 1503 4416 1528 4400 
Q 1553 4384 1556 4359 
Q 1559 4334 1547 4306 
z
" transform="scale(0.015625)"/>
       <path id="Calibri-63" d="M 2500 506 
Q 2500 453 2497 414 
Q 2494 375 2486 348 
Q 2478 322 2467 301 
Q 2456 281 2417 242 
Q 2378 203 2284 145 
Q 2191 88 2073 42 
Q 1956 -3 1818 -31 
Q 1681 -59 1534 -59 
Q 1231 -59 997 41 
Q 763 141 605 333 
Q 447 525 364 804 
Q 281 1084 281 1450 
Q 281 1866 382 2164 
Q 484 2463 661 2653 
Q 838 2844 1077 2936 
Q 1316 3028 1594 3028 
Q 1728 3028 1854 3003 
Q 1981 2978 2087 2937 
Q 2194 2897 2276 2844 
Q 2359 2791 2396 2753 
Q 2434 2716 2448 2694 
Q 2463 2672 2472 2642 
Q 2481 2613 2484 2575 
Q 2488 2538 2488 2481 
Q 2488 2359 2459 2311 
Q 2431 2263 2391 2263 
Q 2344 2263 2283 2314 
Q 2222 2366 2128 2428 
Q 2034 2491 1901 2542 
Q 1769 2594 1588 2594 
Q 1216 2594 1017 2308 
Q 819 2022 819 1478 
Q 819 1206 870 1001 
Q 922 797 1022 659 
Q 1122 522 1267 455 
Q 1413 388 1600 388 
Q 1778 388 1912 444 
Q 2047 500 2145 567 
Q 2244 634 2311 689 
Q 2378 744 2416 744 
Q 2438 744 2453 731 
Q 2469 719 2480 689 
Q 2491 659 2495 614 
Q 2500 569 2500 506 
z
" transform="scale(0.015625)"/>
       <path id="Calibri-6d" d="M 4650 78 
Q 4650 53 4637 36 
Q 4625 19 4597 6 
Q 4569 -6 4519 -12 
Q 4469 -19 4394 -19 
Q 4316 -19 4266 -12 
Q 4216 -6 4186 6 
Q 4156 19 4143 36 
Q 4131 53 4131 78 
L 4131 1788 
Q 4131 1966 4100 2112 
Q 4069 2259 4000 2365 
Q 3931 2472 3825 2528 
Q 3719 2584 3575 2584 
Q 3397 2584 3217 2446 
Q 3038 2309 2822 2044 
L 2822 78 
Q 2822 53 2809 36 
Q 2797 19 2767 6 
Q 2738 -6 2688 -12 
Q 2638 -19 2563 -19 
Q 2491 -19 2439 -12 
Q 2388 -6 2358 6 
Q 2328 19 2317 36 
Q 2306 53 2306 78 
L 2306 1788 
Q 2306 1966 2272 2112 
Q 2238 2259 2169 2365 
Q 2100 2472 1995 2528 
Q 1891 2584 1747 2584 
Q 1569 2584 1387 2446 
Q 1206 2309 994 2044 
L 994 78 
Q 994 53 981 36 
Q 969 19 941 6 
Q 913 -6 863 -12 
Q 813 -19 734 -19 
Q 659 -19 609 -12 
Q 559 -6 529 6 
Q 500 19 489 36 
Q 478 53 478 78 
L 478 2891 
Q 478 2916 487 2933 
Q 497 2950 525 2964 
Q 553 2978 597 2983 
Q 641 2988 713 2988 
Q 781 2988 826 2983 
Q 872 2978 897 2964 
Q 922 2950 933 2933 
Q 944 2916 944 2891 
L 944 2519 
Q 1181 2784 1404 2907 
Q 1628 3031 1856 3031 
Q 2031 3031 2170 2990 
Q 2309 2950 2415 2876 
Q 2522 2803 2597 2701 
Q 2672 2600 2722 2475 
Q 2863 2628 2989 2734 
Q 3116 2841 3233 2906 
Q 3350 2972 3461 3001 
Q 3572 3031 3684 3031 
Q 3956 3031 4140 2936 
Q 4325 2841 4439 2681 
Q 4553 2522 4601 2308 
Q 4650 2094 4650 1856 
L 4650 78 
z
" transform="scale(0.015625)"/>
       <path id="DejaVuSans-32" d="M 1228 531 
L 3431 531 
L 3431 0 
L 469 0 
L 469 531 
Q 828 903 1448 1529 
Q 2069 2156 2228 2338 
Q 2531 2678 2651 2914 
Q 2772 3150 2772 3378 
Q 2772 3750 2511 3984 
Q 2250 4219 1831 4219 
Q 1534 4219 1204 4116 
Q 875 4013 500 3803 
L 500 4441 
Q 881 4594 1212 4672 
Q 1544 4750 1819 4750 
Q 2544 4750 2975 4387 
Q 3406 4025 3406 3419 
Q 3406 3131 3298 2873 
Q 3191 2616 2906 2266 
Q 2828 2175 2409 1742 
Q 1991 1309 1228 531 
z
" transform="scale(0.015625)"/>
       <path id="Calibri-2f" d="M 525 -753 
Q 513 -794 492 -817 
Q 472 -841 440 -853 
Q 409 -866 364 -872 
Q 319 -878 253 -878 
Q 175 -878 123 -867 
Q 72 -856 44 -836 
Q 16 -816 9 -786 
Q 3 -756 22 -716 
L 1913 4469 
Q 1925 4509 1945 4532 
Q 1966 4556 1995 4570 
Q 2025 4584 2072 4589 
Q 2119 4594 2184 4594 
Q 2263 4594 2313 4583 
Q 2363 4572 2391 4553 
Q 2419 4534 2425 4503 
Q 2431 4472 2416 4431 
L 525 -753 
z
" transform="scale(0.015625)"/>
       <path id="Calibri-29" d="M 1522 1678 
Q 1522 1325 1478 979 
Q 1434 634 1346 296 
Q 1259 -41 1132 -367 
Q 1006 -694 838 -1013 
Q 828 -1028 809 -1040 
Q 791 -1053 761 -1062 
Q 731 -1072 690 -1075 
Q 650 -1078 594 -1078 
Q 513 -1078 467 -1070 
Q 422 -1063 401 -1045 
Q 381 -1028 382 -1001 
Q 384 -975 400 -938 
Q 688 -306 834 355 
Q 981 1016 981 1688 
Q 981 2356 834 3017 
Q 688 3678 394 4306 
Q 381 4334 384 4359 
Q 388 4384 413 4400 
Q 438 4416 481 4425 
Q 525 4434 597 4434 
Q 663 4434 706 4429 
Q 750 4425 776 4415 
Q 803 4406 815 4397 
Q 828 4388 834 4375 
Q 1156 3734 1339 3057 
Q 1522 2381 1522 1678 
z
" transform="scale(0.015625)"/>
      </defs>
      <use xlink:href="#DejaVuSans-Oblique-70" transform="translate(0 0.765625)"/>
      <use xlink:href="#Calibri-20" transform="translate(63.476562 0.765625)"/>
      <use xlink:href="#Calibri-28" transform="translate(84.958984 0.765625)"/>
      <use xlink:href="#Calibri-63" transform="translate(115.28125 0.765625)"/>
      <use xlink:href="#Calibri-6d" transform="translate(157.566406 0.765625)"/>
      <use xlink:href="#DejaVuSans-32" transform="translate(238.40625 39.046875) scale(0.7)"/>
      <use xlink:href="#Calibri-2f" transform="translate(285.676758 0.765625)"/>
      <use xlink:href="#Calibri-63" transform="translate(324.299805 0.765625)"/>
      <use xlink:href="#Calibri-6d" transform="translate(366.584961 0.765625)"/>
      <use xlink:href="#DejaVuSans-32" transform="translate(447.424805 39.046875) scale(0.7)"/>
      <use xlink:href="#Calibri-29" transform="translate(494.695312 0.765625)"/>
     </g>
    </g>
   </g>
   <g id="matplotlib.axis_2">
    <g id="ytick_1">
     <g id="line2d_12">
      <defs>
       <path id="mbbd02c4081" d="M 0 0 
L -3.5 0 
" style="stroke: #000000; stroke-width: 0.8"/>
      </defs>
      <g>
       <use xlink:href="#mbbd02c4081" x="57.6" y="275.65056" style="stroke: #000000; stroke-width: 0.8"/>
      </g>
     </g>
     <g id="text_13">
      <!-- 25 -->
      <g transform="translate(40.4625 279.051341) scale(0.1 -0.1)">
       <use xlink:href="#Calibri-32"/>
       <use xlink:href="#Calibri-35" x="50.683594"/>
      </g>
     </g>
    </g>
    <g id="ytick_2">
     <g id="line2d_13">
      <g>
       <use xlink:href="#mbbd02c4081" x="57.6" y="242.38656" style="stroke: #000000; stroke-width: 0.8"/>
      </g>
     </g>
     <g id="text_14">
      <!-- 50 -->
      <g transform="translate(40.4625 245.787341) scale(0.1 -0.1)">
       <use xlink:href="#Calibri-35"/>
       <use xlink:href="#Calibri-30" x="50.683594"/>
      </g>
     </g>
    </g>
    <g id="ytick_3">
     <g id="line2d_14">
      <g>
       <use xlink:href="#mbbd02c4081" x="57.6" y="209.12256" style="stroke: #000000; stroke-width: 0.8"/>
      </g>
     </g>
     <g id="text_15">
      <!-- 75 -->
      <g transform="translate(40.4625 212.523341) scale(0.1 -0.1)">
       <use xlink:href="#Calibri-37"/>
       <use xlink:href="#Calibri-35" x="50.683594"/>
      </g>
     </g>
    </g>
    <g id="ytick_4">
     <g id="line2d_15">
      <g>
       <use xlink:href="#mbbd02c4081" x="57.6" y="175.85856" style="stroke: #000000; stroke-width: 0.8"/>
      </g>
     </g>
     <g id="text_16">
      <!-- 100 -->
      <g transform="translate(35.39375 179.259341) scale(0.1 -0.1)">
       <use xlink:href="#Calibri-31"/>
       <use xlink:href="#Calibri-30" x="50.683594"/>
       <use xlink:href="#Calibri-30" x="101.367188"/>
      </g>
     </g>
    </g>
    <g id="ytick_5">
     <g id="line2d_16">
      <g>
       <use xlink:href="#mbbd02c4081" x="57.6" y="142.59456" style="stroke: #000000; stroke-width: 0.8"/>
      </g>
     </g>
     <g id="text_17">
      <!-- 125 -->
      <g transform="translate(35.39375 145.995341) scale(0.1 -0.1)">
       <use xlink:href="#Calibri-31"/>
       <use xlink:href="#Calibri-32" x="50.683594"/>
       <use xlink:href="#Calibri-35" x="101.367188"/>
      </g>
     </g>
    </g>
    <g id="ytick_6">
     <g id="line2d_17">
      <g>
       <use xlink:href="#mbbd02c4081" x="57.6" y="109.33056" style="stroke: #000000; stroke-width: 0.8"/>
      </g>
     </g>
     <g id="text_18">
      <!-- 150 -->
      <g transform="translate(35.39375 112.731341) scale(0.1 -0.1)">
       <use xlink:href="#Calibri-31"/>
       <use xlink:href="#Calibri-35" x="50.683594"/>
       <use xlink:href="#Calibri-30" x="101.367188"/>
      </g>
     </g>
    </g>
    <g id="ytick_7">
     <g id="line2d_18">
      <g>
       <use xlink:href="#mbbd02c4081" x="57.6" y="76.06656" style="stroke: #000000; stroke-width: 0.8"/>
      </g>
     </g>
     <g id="text_19">
      <!-- 175 -->
      <g transform="translate(35.39375 79.467341) scale(0.1 -0.1)">
       <use xlink:href="#Calibri-31"/>
       <use xlink:href="#Calibri-37" x="50.683594"/>
       <use xlink:href="#Calibri-35" x="101.367188"/>
      </g>
     </g>
    </g>
    <g id="ytick_8">
     <g id="line2d_19">
      <g>
       <use xlink:href="#mbbd02c4081" x="57.6" y="42.80256" style="stroke: #000000; stroke-width: 0.8"/>
      </g>
     </g>
     <g id="text_20">
      <!-- 200 -->
      <g transform="translate(35.39375 46.203341) scale(0.1 -0.1)">
       <use xlink:href="#Calibri-32"/>
       <use xlink:href="#Calibri-30" x="50.683594"/>
       <use xlink:href="#Calibri-30" x="101.367188"/>
      </g>
     </g>
    </g>
    <g id="text_21">
     <!-- $\mathit{Z}$$_{a}$ (nm) -->
     <g transform="translate(29.59375 191.028) rotate(-90) scale(0.1 -0.1)">
      <defs>
       <path id="DejaVuSans-Oblique-5a" d="M 838 4666 
L 4500 4666 
L 4409 4184 
L 794 531 
L 3769 531 
L 3669 0 
L -141 0 
L -50 481 
L 3566 4134 
L 738 4134 
L 838 4666 
z
" transform="scale(0.015625)"/>
       <path id="DejaVuSans-Oblique-61" d="M 3438 1997 
L 3047 0 
L 2472 0 
L 2578 531 
Q 2325 219 2001 64 
Q 1678 -91 1281 -91 
Q 834 -91 548 182 
Q 263 456 263 884 
Q 263 1497 752 1853 
Q 1241 2209 2100 2209 
L 2900 2209 
L 2931 2363 
Q 2938 2388 2941 2417 
Q 2944 2447 2944 2509 
Q 2944 2788 2717 2942 
Q 2491 3097 2081 3097 
Q 1800 3097 1504 3025 
Q 1209 2953 897 2809 
L 997 3341 
Q 1322 3463 1633 3523 
Q 1944 3584 2234 3584 
Q 2853 3584 3176 3315 
Q 3500 3047 3500 2534 
Q 3500 2431 3484 2292 
Q 3469 2153 3438 1997 
z
M 2816 1759 
L 2241 1759 
Q 1534 1759 1195 1570 
Q 856 1381 856 984 
Q 856 709 1029 553 
Q 1203 397 1509 397 
Q 1978 397 2328 733 
Q 2678 1069 2791 1631 
L 2816 1759 
z
" transform="scale(0.015625)"/>
       <path id="Calibri-6e" d="M 2900 78 
Q 2900 53 2887 36 
Q 2875 19 2847 6 
Q 2819 -6 2769 -12 
Q 2719 -19 2644 -19 
Q 2566 -19 2516 -12 
Q 2466 -6 2437 6 
Q 2409 19 2396 36 
Q 2384 53 2384 78 
L 2384 1725 
Q 2384 1966 2346 2112 
Q 2309 2259 2237 2365 
Q 2166 2472 2052 2528 
Q 1938 2584 1788 2584 
Q 1594 2584 1400 2446 
Q 1206 2309 994 2044 
L 994 78 
Q 994 53 981 36 
Q 969 19 941 6 
Q 913 -6 863 -12 
Q 813 -19 734 -19 
Q 659 -19 609 -12 
Q 559 -6 529 6 
Q 500 19 489 36 
Q 478 53 478 78 
L 478 2891 
Q 478 2916 487 2933 
Q 497 2950 525 2964 
Q 553 2978 597 2983 
Q 641 2988 713 2988 
Q 781 2988 826 2983 
Q 872 2978 897 2964 
Q 922 2950 933 2933 
Q 944 2916 944 2891 
L 944 2519 
Q 1181 2784 1417 2907 
Q 1653 3031 1894 3031 
Q 2175 3031 2367 2936 
Q 2559 2841 2678 2681 
Q 2797 2522 2848 2308 
Q 2900 2094 2900 1794 
L 2900 78 
z
" transform="scale(0.015625)"/>
      </defs>
      <use xlink:href="#DejaVuSans-Oblique-5a" transform="translate(0 0.09375)"/>
      <use xlink:href="#DejaVuSans-Oblique-61" transform="translate(69.462891 -16.3125) scale(0.7)"/>
      <use xlink:href="#Calibri-20" transform="translate(115.092773 0.09375)"/>
      <use xlink:href="#Calibri-28" transform="translate(136.575195 0.09375)"/>
      <use xlink:href="#Calibri-6e" transform="translate(166.897461 0.09375)"/>
      <use xlink:href="#Calibri-6d" transform="translate(219.436523 0.09375)"/>
      <use xlink:href="#Calibri-29" transform="translate(299.319336 0.09375)"/>
     </g>
    </g>
   </g>
   <g id="patch_3">
    <path d="M 57.6 307.584 
L 57.6 41.472 
" style="fill: none; stroke: #000000; stroke-width: 0.8; stroke-linejoin: miter; stroke-linecap: square"/>
   </g>
   <g id="patch_4">
    <path d="M 343.296 307.584 
L 343.296 41.472 
" style="fill: none; stroke: #000000; stroke-width: 0.8; stroke-linejoin: miter; stroke-linecap: square"/>
   </g>
   <g id="patch_5">
    <path d="M 57.6 307.584 
L 343.296 307.584 
" style="fill: none; stroke: #000000; stroke-width: 0.8; stroke-linejoin: miter; stroke-linecap: square"/>
   </g>
   <g id="patch_6">
    <path d="M 57.6 41.472 
L 343.296 41.472 
" style="fill: none; stroke: #000000; stroke-width: 0.8; stroke-linejoin: miter; stroke-linecap: square"/>
   </g>
   <g id="text_22">
    <!-- $\lambda$ = 850 nm -->
    <g transform="translate(177.348 35.472) scale(0.1 -0.1)">
     <defs>
      <path id="DejaVuSans-Oblique-3bb" d="M 2350 4316 
L 3125 0 
L 2516 0 
L 2038 2588 
L 328 0 
L -281 0 
L 1903 3356 
L 1794 3975 
Q 1725 4369 1391 4369 
L 1091 4369 
L 1184 4863 
L 1550 4856 
Q 2253 4847 2350 4316 
z
" transform="scale(0.015625)"/>
      <path id="Calibri-3d" d="M 2891 2409 
Q 2891 2284 2855 2236 
Q 2819 2188 2772 2188 
L 409 2188 
Q 363 2188 328 2236 
Q 294 2284 294 2409 
Q 294 2522 325 2575 
Q 356 2628 409 2628 
L 2772 2628 
Q 2828 2628 2859 2575 
Q 2891 2522 2891 2409 
z
M 2891 1194 
Q 2891 1069 2855 1022 
Q 2819 975 2772 975 
L 409 975 
Q 363 975 328 1022 
Q 294 1069 294 1194 
Q 294 1309 325 1362 
Q 356 1416 409 1416 
L 2772 1416 
Q 2828 1416 2859 1362 
Q 2891 1309 2891 1194 
z
" transform="scale(0.015625)"/>
     </defs>
     <use xlink:href="#DejaVuSans-Oblique-3bb" transform="translate(0 0.015625)"/>
     <use xlink:href="#Calibri-20" transform="translate(59.179688 0.015625)"/>
     <use xlink:href="#Calibri-3d" transform="translate(81.787109 0.015625)"/>
     <use xlink:href="#Calibri-20" transform="translate(131.591797 0.015625)"/>
     <use xlink:href="#Calibri-38" transform="translate(154.199219 0.015625)"/>
     <use xlink:href="#Calibri-35" transform="translate(204.882812 0.015625)"/>
     <use xlink:href="#Calibri-30" transform="translate(255.566406 0.015625)"/>
     <use xlink:href="#Calibri-20" transform="translate(306.25 0.015625)"/>
     <use xlink:href="#Calibri-6e" transform="translate(328.857422 0.015625)"/>
     <use xlink:href="#Calibri-6d" transform="translate(381.396484 0.015625)"/>
    </g>
   </g>
  </g>
  <g id="axes_2">
   <g id="patch_7">
    <path d="M 361.152 307.584 
L 374.4576 307.584 
L 374.4576 41.472 
L 361.152 41.472 
z
" style="fill: #ffffff"/>
   </g>
   <g id="QuadMesh_1">
    <path d="M 361.152 307.584 
L 374.4576 307.584 
L 374.4576 280.9728 
L 361.152 280.9728 
L 361.152 307.584 
" clip-path="url(#p02445457b8)" style="fill: #0000b6"/>
    <path d="M 361.152 280.9728 
L 374.4576 280.9728 
L 374.4576 254.3616 
L 361.152 254.3616 
L 361.152 280.9728 
" clip-path="url(#p02445457b8)" style="fill: #0018ff"/>
    <path d="M 361.152 254.3616 
L 374.4576 254.3616 
L 374.4576 227.7504 
L 361.152 227.7504 
L 361.152 254.3616 
" clip-path="url(#p02445457b8)" style="fill: #0080ff"/>
    <path d="M 361.152 227.7504 
L 374.4576 227.7504 
L 374.4576 201.1392 
L 361.152 201.1392 
L 361.152 227.7504 
" clip-path="url(#p02445457b8)" style="fill: #00e4f8"/>
    <path d="M 361.152 201.1392 
L 374.4576 201.1392 
L 374.4576 174.528 
L 361.152 174.528 
L 361.152 201.1392 
" clip-path="url(#p02445457b8)" style="fill: #53ffa4"/>
    <path d="M 361.152 174.528 
L 374.4576 174.528 
L 374.4576 147.9168 
L 361.152 147.9168 
L 361.152 174.528 
" clip-path="url(#p02445457b8)" style="fill: #a4ff53"/>
    <path d="M 361.152 147.9168 
L 374.4576 147.9168 
L 374.4576 121.3056 
L 361.152 121.3056 
L 361.152 147.9168 
" clip-path="url(#p02445457b8)" style="fill: #f8f500"/>
    <path d="M 361.152 121.3056 
L 374.4576 121.3056 
L 374.4576 94.6944 
L 361.152 94.6944 
L 361.152 121.3056 
" clip-path="url(#p02445457b8)" style="fill: #ff9400"/>
    <path d="M 361.152 94.6944 
L 374.4576 94.6944 
L 374.4576 68.0832 
L 361.152 68.0832 
L 361.152 94.6944 
" clip-path="url(#p02445457b8)" style="fill: #ff3800"/>
    <path d="M 361.152 68.0832 
L 374.4576 68.0832 
L 374.4576 41.472 
L 361.152 41.472 
L 361.152 68.0832 
" clip-path="url(#p02445457b8)" style="fill: #b60000"/>
   </g>
   <g id="matplotlib.axis_3"/>
   <g id="matplotlib.axis_4">
    <g id="ytick_9">
     <g id="line2d_20">
      <defs>
       <path id="m4eb0adc157" d="M 0 0 
L 3.5 0 
" style="stroke: #000000; stroke-width: 0.8"/>
      </defs>
      <g>
       <use xlink:href="#m4eb0adc157" x="374.4576" y="307.584" style="stroke: #000000; stroke-width: 0.8"/>
      </g>
     </g>
     <g id="text_23">
      <!-- 0 -->
      <g transform="translate(381.4576 310.984781) scale(0.1 -0.1)">
       <use xlink:href="#Calibri-30"/>
      </g>
     </g>
    </g>
    <g id="ytick_10">
     <g id="line2d_21">
      <g>
       <use xlink:href="#m4eb0adc157" x="374.4576" y="280.9728" style="stroke: #000000; stroke-width: 0.8"/>
      </g>
     </g>
     <g id="text_24">
      <!-- 0.1 -->
      <g transform="translate(381.4576 284.373581) scale(0.1 -0.1)">
       <use xlink:href="#Calibri-30"/>
       <use xlink:href="#Calibri-2e" x="50.683594"/>
       <use xlink:href="#Calibri-31" x="75.927734"/>
      </g>
     </g>
    </g>
    <g id="ytick_11">
     <g id="line2d_22">
      <g>
       <use xlink:href="#m4eb0adc157" x="374.4576" y="254.3616" style="stroke: #000000; stroke-width: 0.8"/>
      </g>
     </g>
     <g id="text_25">
      <!-- 0.2 -->
      <g transform="translate(381.4576 257.762381) scale(0.1 -0.1)">
       <use xlink:href="#Calibri-30"/>
       <use xlink:href="#Calibri-2e" x="50.683594"/>
       <use xlink:href="#Calibri-32" x="75.927734"/>
      </g>
     </g>
    </g>
    <g id="ytick_12">
     <g id="line2d_23">
      <g>
       <use xlink:href="#m4eb0adc157" x="374.4576" y="227.7504" style="stroke: #000000; stroke-width: 0.8"/>
      </g>
     </g>
     <g id="text_26">
      <!-- 0.3 -->
      <g transform="translate(381.4576 231.151181) scale(0.1 -0.1)">
       <use xlink:href="#Calibri-30"/>
       <use xlink:href="#Calibri-2e" x="50.683594"/>
       <use xlink:href="#Calibri-33" x="75.927734"/>
      </g>
     </g>
    </g>
    <g id="ytick_13">
     <g id="line2d_24">
      <g>
       <use xlink:href="#m4eb0adc157" x="374.4576" y="201.1392" style="stroke: #000000; stroke-width: 0.8"/>
      </g>
     </g>
     <g id="text_27">
      <!-- 0.4 -->
      <g transform="translate(381.4576 204.539981) scale(0.1 -0.1)">
       <use xlink:href="#Calibri-30"/>
       <use xlink:href="#Calibri-2e" x="50.683594"/>
       <use xlink:href="#Calibri-34" x="75.927734"/>
      </g>
     </g>
    </g>
    <g id="ytick_14">
     <g id="line2d_25">
      <g>
       <use xlink:href="#m4eb0adc157" x="374.4576" y="174.528" style="stroke: #000000; stroke-width: 0.8"/>
      </g>
     </g>
     <g id="text_28">
      <!-- 0.5 -->
      <g transform="translate(381.4576 177.928781) scale(0.1 -0.1)">
       <use xlink:href="#Calibri-30"/>
       <use xlink:href="#Calibri-2e" x="50.683594"/>
       <use xlink:href="#Calibri-35" x="75.927734"/>
      </g>
     </g>
    </g>
    <g id="ytick_15">
     <g id="line2d_26">
      <g>
       <use xlink:href="#m4eb0adc157" x="374.4576" y="147.9168" style="stroke: #000000; stroke-width: 0.8"/>
      </g>
     </g>
     <g id="text_29">
      <!-- 0.6 -->
      <g transform="translate(381.4576 151.317581) scale(0.1 -0.1)">
       <use xlink:href="#Calibri-30"/>
       <use xlink:href="#Calibri-2e" x="50.683594"/>
       <use xlink:href="#Calibri-36" x="75.927734"/>
      </g>
     </g>
    </g>
    <g id="ytick_16">
     <g id="line2d_27">
      <g>
       <use xlink:href="#m4eb0adc157" x="374.4576" y="121.3056" style="stroke: #000000; stroke-width: 0.8"/>
      </g>
     </g>
     <g id="text_30">
      <!-- 0.7 -->
      <g transform="translate(381.4576 124.706381) scale(0.1 -0.1)">
       <use xlink:href="#Calibri-30"/>
       <use xlink:href="#Calibri-2e" x="50.683594"/>
       <use xlink:href="#Calibri-37" x="75.927734"/>
      </g>
     </g>
    </g>
    <g id="ytick_17">
     <g id="line2d_28">
      <g>
       <use xlink:href="#m4eb0adc157" x="374.4576" y="94.6944" style="stroke: #000000; stroke-width: 0.8"/>
      </g>
     </g>
     <g id="text_31">
      <!-- 0.8 -->
      <g transform="translate(381.4576 98.095181) scale(0.1 -0.1)">
       <use xlink:href="#Calibri-30"/>
       <use xlink:href="#Calibri-2e" x="50.683594"/>
       <use xlink:href="#Calibri-38" x="75.927734"/>
      </g>
     </g>
    </g>
    <g id="ytick_18">
     <g id="line2d_29">
      <g>
       <use xlink:href="#m4eb0adc157" x="374.4576" y="68.0832" style="stroke: #000000; stroke-width: 0.8"/>
      </g>
     </g>
     <g id="text_32">
      <!-- 0.9 -->
      <g transform="translate(381.4576 71.483981) scale(0.1 -0.1)">
       <use xlink:href="#Calibri-30"/>
       <use xlink:href="#Calibri-2e" x="50.683594"/>
       <use xlink:href="#Calibri-39" x="75.927734"/>
      </g>
     </g>
    </g>
    <g id="ytick_19">
     <g id="line2d_30">
      <g>
       <use xlink:href="#m4eb0adc157" x="374.4576" y="41.472" style="stroke: #000000; stroke-width: 0.8"/>
      </g>
     </g>
     <g id="text_33">
      <!-- 1.0 -->
      <g transform="translate(381.4576 44.872781) scale(0.1 -0.1)">
       <use xlink:href="#Calibri-31"/>
       <use xlink:href="#Calibri-2e" x="50.683594"/>
       <use xlink:href="#Calibri-30" x="75.927734"/>
      </g>
     </g>
    </g>
   </g>
   <g id="LineCollection_1"/>
   <g id="patch_8">
    <path d="M 361.152 307.584 
L 367.8048 307.584 
L 374.4576 307.584 
L 374.4576 41.472 
L 367.8048 41.472 
L 361.152 41.472 
L 361.152 307.584 
z
" style="fill: none; stroke: #000000; stroke-width: 0.8; stroke-linejoin: miter; stroke-linecap: square"/>
   </g>
   <g id="text_34">
    <!-- $\mathit{E}_{\mathrm{dis}}$/$\mathit{E}_{\mathrm{i}}$ -->
    <g transform="translate(353.2548 35.472) scale(0.1 -0.1)">
     <defs>
      <path id="DejaVuSans-Oblique-45" d="M 1081 4666 
L 4031 4666 
L 3928 4134 
L 1606 4134 
L 1338 2753 
L 3566 2753 
L 3463 2222 
L 1234 2222 
L 909 531 
L 3284 531 
L 3181 0 
L 172 0 
L 1081 4666 
z
" transform="scale(0.015625)"/>
      <path id="DejaVuSans-64" d="M 2906 2969 
L 2906 4863 
L 3481 4863 
L 3481 0 
L 2906 0 
L 2906 525 
Q 2725 213 2448 61 
Q 2172 -91 1784 -91 
Q 1150 -91 751 415 
Q 353 922 353 1747 
Q 353 2572 751 3078 
Q 1150 3584 1784 3584 
Q 2172 3584 2448 3432 
Q 2725 3281 2906 2969 
z
M 947 1747 
Q 947 1113 1208 752 
Q 1469 391 1925 391 
Q 2381 391 2643 752 
Q 2906 1113 2906 1747 
Q 2906 2381 2643 2742 
Q 2381 3103 1925 3103 
Q 1469 3103 1208 2742 
Q 947 2381 947 1747 
z
" transform="scale(0.015625)"/>
      <path id="DejaVuSans-69" d="M 603 3500 
L 1178 3500 
L 1178 0 
L 603 0 
L 603 3500 
z
M 603 4863 
L 1178 4863 
L 1178 4134 
L 603 4134 
L 603 4863 
z
" transform="scale(0.015625)"/>
      <path id="DejaVuSans-73" d="M 2834 3397 
L 2834 2853 
Q 2591 2978 2328 3040 
Q 2066 3103 1784 3103 
Q 1356 3103 1142 2972 
Q 928 2841 928 2578 
Q 928 2378 1081 2264 
Q 1234 2150 1697 2047 
L 1894 2003 
Q 2506 1872 2764 1633 
Q 3022 1394 3022 966 
Q 3022 478 2636 193 
Q 2250 -91 1575 -91 
Q 1294 -91 989 -36 
Q 684 19 347 128 
L 347 722 
Q 666 556 975 473 
Q 1284 391 1588 391 
Q 1994 391 2212 530 
Q 2431 669 2431 922 
Q 2431 1156 2273 1281 
Q 2116 1406 1581 1522 
L 1381 1569 
Q 847 1681 609 1914 
Q 372 2147 372 2553 
Q 372 3047 722 3315 
Q 1072 3584 1716 3584 
Q 2034 3584 2315 3537 
Q 2597 3491 2834 3397 
z
" transform="scale(0.015625)"/>
     </defs>
     <use xlink:href="#DejaVuSans-Oblique-45" transform="translate(0 0.09375)"/>
     <use xlink:href="#DejaVuSans-64" transform="translate(63.183594 -16.3125) scale(0.7)"/>
     <use xlink:href="#DejaVuSans-69" transform="translate(107.617188 -16.3125) scale(0.7)"/>
     <use xlink:href="#DejaVuSans-73" transform="translate(127.06543 -16.3125) scale(0.7)"/>
     <use xlink:href="#Calibri-2f" transform="translate(166.269531 0.09375)"/>
     <use xlink:href="#DejaVuSans-Oblique-45" transform="translate(204.892578 0.09375)"/>
     <use xlink:href="#DejaVuSans-69" transform="translate(268.076172 -16.3125) scale(0.7)"/>
    </g>
   </g>
  </g>
 </g>
 <defs>
  <clipPath id="p72cbbf60ef">
   <rect x="57.6" y="41.472" width="285.696" height="266.112"/>
  </clipPath>
  <clipPath id="p02445457b8">
   <rect x="361.152" y="41.472" width="13.3056" height="266.112"/>
  </clipPath>
 </defs>
</svg>
