<?xml version="1.0" encoding="utf-8" standalone="no"?>
<!DOCTYPE svg PUBLIC "-//W3C//DTD SVG 1.1//EN"
  "http://www.w3.org/Graphics/SVG/1.1/DTD/svg11.dtd">
<svg xmlns:xlink="http://www.w3.org/1999/xlink" width="460.8pt" height="345.6pt" viewBox="0 0 460.8 345.6" xmlns="http://www.w3.org/2000/svg" version="1.1">
 <metadata>
  <rdf:RDF xmlns:dc="http://purl.org/dc/elements/1.1/" xmlns:cc="http://creativecommons.org/ns#" xmlns:rdf="http://www.w3.org/1999/02/22-rdf-syntax-ns#">
   <cc:Work>
    <dc:type rdf:resource="http://purl.org/dc/dcmitype/StillImage"/>
    <dc:date>2024-01-22T08:52:26.235527</dc:date>
    <dc:format>image/svg+xml</dc:format>
    <dc:creator>
     <cc:Agent>
      <dc:title>Matplotlib v3.7.1, https://matplotlib.org/</dc:title>
     </cc:Agent>
    </dc:creator>
   </cc:Work>
  </rdf:RDF>
 </metadata>
 <defs>
  <style type="text/css">*{stroke-linejoin: round; stroke-linecap: butt}</style>
 </defs>
 <g id="figure_1">
  <g id="patch_1">
   <path d="M 0 345.6 
L 460.8 345.6 
L 460.8 0 
L 0 0 
z
" style="fill: #ffffff"/>
  </g>
  <g id="axes_1">
   <g id="patch_2">
    <path d="M 57.6 307.584 
L 343.296 307.584 
L 343.296 41.472 
L 57.6 41.472 
z
" style="fill: #ffffff"/>
   </g>
   <g id="PathCollection_1">
    <path clip-path="url(#p471cdffd15)" style="fill: #0000b6"/>
   </g>
   <g id="PathCollection_2">
    <path clip-path="url(#p471cdffd15)" style="fill: #0018ff"/>
   </g>
   <g id="PathCollection_3">
    <path clip-path="url(#p471cdffd15)" style="fill: #0080ff"/>
   </g>
   <g id="PathCollection_4">
    <path d="M 57.62857 61.848485 
L 57.777386 61.755279 
L 58.281855 61.4304 
L 58.789293 61.102162 
L 59.777786 60.45612 
L 60.124976 60.227479 
L 60.294782 60.113154 
L 60.97223 59.6653 
L 61.713245 59.165987 
L 62.459228 58.67056 
L 63.293649 58.104 
L 63.673969 57.843383 
L 63.787967 57.763798 
L 64.779722 57.083608 
L 66.156559 56.118635 
L 66.366599 55.97346 
L 66.681274 55.75188 
L 66.902866 55.59646 
L 68.04926 54.7776 
L 68.185829 54.679284 
L 69.278628 53.887736 
L 69.385907 53.810208 
L 69.395265 53.80332 
L 70.158405 53.243885 
L 70.709018 52.833007 
L 71.655558 52.135774 
L 72.565699 51.4512 
L 72.82791 51.252085 
L 72.916449 51.183674 
L 73.918109 50.422326 
L 75.380322 49.287932 
L 75.487133 49.20609 
L 75.624389 49.09908 
L 75.910412 48.87703 
L 76.862012 48.1248 
L 77.167503 47.881261 
L 78.079242 47.15052 
L 78.396716 46.893927 
L 78.593758 46.731492 
L 79.22943 46.215581 
L 80.203139 45.41209 
L 80.612427 45.078222 
L 80.948743 44.7984 
L 81.862311 44.030755 
L 82.209942 43.733875 
L 82.812056 43.227411 
L 83.722874 42.44628 
L 84.1758 42.054461 
L 84.843238 41.472 
L 83.531674 41.472 
L 82.007962 41.472 
L 80.48425 41.472 
L 78.960538 41.472 
L 77.436826 41.472 
L 75.913114 41.472 
L 74.389402 41.472 
L 72.86569 41.472 
L 71.341978 41.472 
L 69.818266 41.472 
L 68.294554 41.472 
L 66.770842 41.472 
L 65.24713 41.472 
L 63.723418 41.472 
L 62.199706 41.472 
L 60.675994 41.472 
L 59.152282 41.472 
L 57.62857 41.472 
L 57.62857 44.7984 
L 57.62857 48.1248 
L 57.62857 51.4512 
L 57.62857 54.7776 
L 57.62857 58.104 
L 57.62857 61.4304 
" clip-path="url(#p471cdffd15)" style="fill: #00e4f8"/>
   </g>
   <g id="PathCollection_5">
    <path d="M 84.843238 41.472 
L 84.1758 42.054461 
L 83.722874 42.44628 
L 82.812056 43.227411 
L 82.209942 43.733875 
L 81.862311 44.030755 
L 80.948743 44.7984 
L 80.612427 45.078222 
L 80.203139 45.41209 
L 79.22943 46.215581 
L 78.593758 46.731492 
L 78.396716 46.893927 
L 78.079242 47.15052 
L 77.167503 47.881261 
L 76.862012 48.1248 
L 75.910412 48.87703 
L 75.624389 49.09908 
L 75.487133 49.20609 
L 75.380322 49.287932 
L 73.918109 50.422326 
L 72.916449 51.183674 
L 72.82791 51.252085 
L 72.565699 51.4512 
L 71.655558 52.135774 
L 70.709018 52.833007 
L 70.158405 53.243885 
L 69.395265 53.80332 
L 69.385907 53.810208 
L 69.278628 53.887736 
L 68.185829 54.679284 
L 68.04926 54.7776 
L 66.902866 55.59646 
L 66.681274 55.75188 
L 66.366599 55.97346 
L 66.156559 56.118635 
L 64.779722 57.083608 
L 63.787967 57.763798 
L 63.673969 57.843383 
L 63.293649 58.104 
L 62.459228 58.67056 
L 61.713245 59.165987 
L 60.97223 59.6653 
L 60.294782 60.113154 
L 60.124976 60.227479 
L 59.777786 60.45612 
L 58.789293 61.102162 
L 58.281855 61.4304 
L 57.777386 61.755279 
L 57.62857 61.848485 
L 57.62857 64.7568 
L 57.62857 68.0832 
L 57.62857 71.4096 
L 57.62857 74.736 
L 57.62857 78.0624 
L 57.62857 81.3888 
L 57.62857 84.7152 
L 57.62857 88.0416 
L 57.62857 91.368 
L 57.62857 94.6944 
L 57.62857 98.0208 
L 57.62857 101.3472 
L 57.62857 104.6736 
L 57.62857 108 
L 57.62857 111.156491 
L 57.662852 111.145716 
L 58.894442 110.763513 
L 59.499656 110.56805 
L 60.474326 110.26352 
L 60.904099 110.124185 
L 61.555704 109.920487 
L 63.069277 109.428048 
L 63.346663 109.340738 
L 64.149952 109.078372 
L 64.208882 109.059813 
L 64.469827 108.97428 
L 65.828969 108.526137 
L 67.40104 108 
L 67.932866 107.821124 
L 68.051509 107.780223 
L 68.834475 107.511768 
L 69.736558 107.206025 
L 70.25554 107.02572 
L 70.263995 107.022793 
L 70.266264 107.02198 
L 72.122152 106.376791 
L 72.573439 106.21389 
L 73.121644 106.022596 
L 73.900309 105.741334 
L 74.743207 105.44599 
L 75.842447 105.046042 
L 75.974938 104.999443 
L 76.869885 104.6736 
L 77.355235 104.495481 
L 77.552873 104.420258 
L 78.823349 103.950553 
L 79.119182 103.837474 
L 79.958931 103.526783 
L 81.233624 103.037648 
L 81.666916 102.876138 
L 82.402819 102.592528 
L 82.55278 102.536587 
L 83.108737 102.32148 
L 84.15746 101.913077 
L 85.591191 101.3472 
L 86.276739 101.073788 
L 87.37009 100.631933 
L 87.817844 100.452702 
L 88.012435 100.37292 
L 88.510494 100.169476 
L 88.673815 100.100644 
L 90.277751 99.442493 
L 90.933319 99.164039 
L 91.335692 98.998248 
L 92.441565 98.528107 
L 92.832249 98.36639 
L 93.638757 98.0208 
L 94.155302 97.797565 
L 94.247834 97.756347 
L 95.376575 97.268082 
L 96.243881 96.88011 
L 96.968682 96.56405 
L 97.573019 96.292424 
L 97.909756 96.145443 
L 98.965954 95.66868 
L 99.551748 95.402398 
L 99.890715 95.249256 
L 101.090559 94.6944 
L 101.465361 94.52088 
L 101.569669 94.471454 
L 102.5986 93.986918 
L 102.942229 93.826184 
L 103.33993 93.633214 
L 103.33993 91.368 
L 103.33993 88.0416 
L 103.33993 84.7152 
L 103.33993 81.3888 
L 103.33993 78.0624 
L 103.33993 74.736 
L 103.33993 71.4096 
L 103.33993 68.0832 
L 103.33993 64.7568 
L 103.33993 61.4304 
L 103.33993 58.104 
L 103.33993 54.7776 
L 103.33993 51.4512 
L 103.33993 48.1248 
L 103.33993 44.7984 
L 103.33993 41.472 
L 101.816218 41.472 
L 100.292506 41.472 
L 98.768794 41.472 
L 97.245082 41.472 
L 95.72137 41.472 
L 94.197658 41.472 
L 92.673946 41.472 
L 91.150234 41.472 
L 89.626522 41.472 
L 88.10281 41.472 
L 86.579098 41.472 
L 85.055386 41.472 
" clip-path="url(#p471cdffd15)" style="fill: #53ffa4"/>
   </g>
   <g id="PathCollection_6">
    <path d="M 103.33993 93.633214 
L 102.942229 93.826184 
L 102.5986 93.986918 
L 101.569669 94.471454 
L 101.465361 94.52088 
L 101.090559 94.6944 
L 99.890715 95.249256 
L 99.551748 95.402398 
L 98.965954 95.66868 
L 97.909756 96.145443 
L 97.573019 96.292424 
L 96.968682 96.56405 
L 96.243881 96.88011 
L 95.376575 97.268082 
L 94.247834 97.756347 
L 94.155302 97.797565 
L 93.638757 98.0208 
L 92.832249 98.36639 
L 92.441565 98.528107 
L 91.335692 98.998248 
L 90.933319 99.164039 
L 90.277751 99.442493 
L 88.673815 100.100644 
L 88.510494 100.169476 
L 88.012435 100.37292 
L 87.817844 100.452702 
L 87.37009 100.631933 
L 86.276739 101.073788 
L 85.591191 101.3472 
L 84.15746 101.913077 
L 83.108737 102.32148 
L 82.55278 102.536587 
L 82.402819 102.592528 
L 81.666916 102.876138 
L 81.233624 103.037648 
L 79.958931 103.526783 
L 79.119182 103.837474 
L 78.823349 103.950553 
L 77.552873 104.420258 
L 77.355235 104.495481 
L 76.869885 104.6736 
L 75.974938 104.999443 
L 75.842447 105.046042 
L 74.743207 105.44599 
L 73.900309 105.741334 
L 73.121644 106.022596 
L 72.573439 106.21389 
L 72.122152 106.376791 
L 70.266264 107.02198 
L 70.263995 107.022793 
L 70.25554 107.02572 
L 69.736558 107.206025 
L 68.834475 107.511768 
L 68.051509 107.780223 
L 67.932866 107.821124 
L 67.40104 108 
L 65.828969 108.526137 
L 64.469827 108.97428 
L 64.208882 109.059813 
L 64.149952 109.078372 
L 63.346663 109.340738 
L 63.069277 109.428048 
L 61.555704 109.920487 
L 60.904099 110.124185 
L 60.474326 110.26352 
L 59.499656 110.56805 
L 58.894442 110.763513 
L 57.662852 111.145716 
L 57.62857 111.156491 
L 57.62857 111.3264 
L 57.62857 114.6528 
L 57.62857 117.9792 
L 57.62857 121.3056 
L 57.62857 124.632 
L 57.62857 127.9584 
L 57.62857 131.2848 
L 57.62857 134.6112 
L 57.62857 137.9376 
L 57.62857 141.264 
L 57.62857 144.5904 
L 57.62857 147.9168 
L 57.62857 151.2432 
L 57.62857 154.038663 
L 57.881191 154.018105 
L 58.487068 153.96807 
L 59.959334 153.839811 
L 60.770011 153.769537 
L 61.269106 153.728091 
L 62.788951 153.59532 
L 63.258275 153.554152 
L 63.285453 153.55147 
L 64.147024 153.475792 
L 64.228115 153.4678 
L 66.187201 153.295459 
L 66.385171 153.275858 
L 67.143832 153.209026 
L 67.405949 153.183103 
L 69.114125 153.032398 
L 69.485795 152.995467 
L 70.139773 152.937689 
L 70.58608 152.893393 
L 72.038986 152.764832 
L 72.587355 152.710147 
L 73.13482 152.661636 
L 73.768581 152.598508 
L 74.961718 152.492618 
L 75.689881 152.419738 
L 76.128943 152.380715 
L 76.953529 152.298279 
L 77.882252 152.215607 
L 78.793403 152.124073 
L 79.122112 152.09477 
L 80.141007 151.99253 
L 80.800518 151.933642 
L 81.897956 151.822979 
L 82.114297 151.803633 
L 83.331098 151.681075 
L 83.71644 151.646561 
L 85.003574 151.516273 
L 85.105464 151.507133 
L 86.523891 151.363721 
L 86.629939 151.354192 
L 87.722207 151.2432 
L 88.095565 151.20502 
L 88.110374 151.203334 
L 89.541307 151.05717 
L 89.721134 151.036653 
L 91.084484 150.896673 
L 91.2189 150.8813 
L 92.450321 150.755008 
L 92.922354 150.700903 
L 94.07227 150.582354 
L 94.328634 150.552898 
L 95.356672 150.447033 
L 96.126687 150.358357 
L 97.058884 150.261854 
L 97.439619 150.2179 
L 98.260267 150.13304 
L 99.334245 150.008768 
L 100.044282 149.934953 
L 100.551901 149.876069 
L 101.161008 149.812818 
L 102.545149 149.651878 
L 103.028423 149.601422 
L 103.33993 149.562725 
L 103.33993 147.9168 
L 103.33993 144.5904 
L 103.33993 141.264 
L 103.33993 137.9376 
L 103.33993 134.6112 
L 103.33993 131.2848 
L 103.33993 127.9584 
L 103.33993 124.632 
L 103.33993 121.3056 
L 103.33993 117.9792 
L 103.33993 114.6528 
L 103.33993 111.3264 
L 103.33993 108 
L 103.33993 104.6736 
L 103.33993 101.3472 
L 103.33993 98.0208 
L 103.33993 94.6944 
" clip-path="url(#p471cdffd15)" style="fill: #a4ff53"/>
   </g>
   <g id="PathCollection_7">
    <path d="M 103.33993 149.562725 
L 103.028423 149.601422 
L 102.545149 149.651878 
L 101.161008 149.812818 
L 100.551901 149.876069 
L 100.044282 149.934953 
L 99.334245 150.008768 
L 98.260267 150.13304 
L 97.439619 150.2179 
L 97.058884 150.261854 
L 96.126687 150.358357 
L 95.356672 150.447033 
L 94.328634 150.552898 
L 94.07227 150.582354 
L 92.922354 150.700903 
L 92.450321 150.755008 
L 91.2189 150.8813 
L 91.084484 150.896673 
L 89.721134 151.036653 
L 89.541307 151.05717 
L 88.110374 151.203334 
L 88.095565 151.20502 
L 87.722207 151.2432 
L 86.629939 151.354192 
L 86.523891 151.363721 
L 85.105464 151.507133 
L 85.003574 151.516273 
L 83.71644 151.646561 
L 83.331098 151.681075 
L 82.114297 151.803633 
L 81.897956 151.822979 
L 80.800518 151.933642 
L 80.141007 151.99253 
L 79.122112 152.09477 
L 78.793403 152.124073 
L 77.882252 152.215607 
L 76.953529 152.298279 
L 76.128943 152.380715 
L 75.689881 152.419738 
L 74.961718 152.492618 
L 73.768581 152.598508 
L 73.13482 152.661636 
L 72.587355 152.710147 
L 72.038986 152.764832 
L 70.58608 152.893393 
L 70.139773 152.937689 
L 69.485795 152.995467 
L 69.114125 153.032398 
L 67.405949 153.183103 
L 67.143832 153.209026 
L 66.385171 153.275858 
L 66.187201 153.295459 
L 64.228115 153.4678 
L 64.147024 153.475792 
L 63.285453 153.55147 
L 63.258275 153.554152 
L 62.788951 153.59532 
L 61.269106 153.728091 
L 60.770011 153.769537 
L 59.959334 153.839811 
L 58.487068 153.96807 
L 57.881191 154.018105 
L 57.62857 154.038663 
L 57.62857 154.5696 
L 57.62857 157.896 
L 57.62857 161.2224 
L 57.62857 164.5488 
L 57.62857 167.8752 
L 57.62857 171.2016 
L 57.62857 174.528 
L 57.62857 177.8544 
L 57.62857 181.1808 
L 57.62857 184.5072 
L 57.62857 187.8336 
L 57.62857 191.16 
L 57.62857 193.171868 
L 58.01657 193.204933 
L 58.209129 193.218988 
L 60.169684 193.38108 
L 60.253401 193.387253 
L 61.112157 193.458776 
L 61.145579 193.461253 
L 61.751829 193.51212 
L 63.147887 193.628993 
L 63.819531 193.685301 
L 64.419902 193.738367 
L 65.932262 193.866859 
L 67.286562 193.987889 
L 67.791346 194.031367 
L 68.710142 194.110598 
L 71.002452 194.318485 
L 71.172751 194.333374 
L 71.481333 194.360386 
L 72.85046 194.4864 
L 74.246963 194.615203 
L 74.565979 194.646073 
L 74.747887 194.663692 
L 77.006896 194.87517 
L 77.971512 194.969898 
L 78.524336 195.024238 
L 79.759649 195.141631 
L 81.388374 195.303968 
L 81.798786 195.343416 
L 82.505002 195.414783 
L 82.958639 195.46068 
L 84.536187 195.619856 
L 84.641528 195.631588 
L 85.453579 195.714142 
L 85.626642 195.733504 
L 87.446183 195.919875 
L 87.750169 195.954228 
L 88.441905 196.025619 
L 88.827952 196.06945 
L 90.352472 196.227985 
L 90.860593 196.286263 
L 91.428582 196.345781 
L 92.033906 196.415536 
L 93.254928 196.544464 
L 93.972866 196.628047 
L 94.413552 196.674939 
L 95.244688 196.772161 
L 96.153416 196.869604 
L 97.087059 196.97995 
L 97.396754 197.013418 
L 98.460489 197.139744 
L 99.047798 197.203708 
L 100.203246 197.342364 
L 100.378123 197.36156 
L 101.681513 197.518728 
L 101.937928 197.547095 
L 103.321506 197.715699 
L 103.33993 197.717664 
L 103.33993 194.4864 
L 103.33993 191.16 
L 103.33993 187.8336 
L 103.33993 184.5072 
L 103.33993 181.1808 
L 103.33993 177.8544 
L 103.33993 174.528 
L 103.33993 171.2016 
L 103.33993 167.8752 
L 103.33993 164.5488 
L 103.33993 161.2224 
L 103.33993 157.896 
L 103.33993 154.5696 
L 103.33993 151.2432 
" clip-path="url(#p471cdffd15)" style="fill: #f8f500"/>
   </g>
   <g id="PathCollection_8">
    <path d="M 103.33993 197.717664 
L 103.321506 197.715699 
L 101.937928 197.547095 
L 101.681513 197.518728 
L 100.378123 197.36156 
L 100.203246 197.342364 
L 99.047798 197.203708 
L 98.460489 197.139744 
L 97.396754 197.013418 
L 97.087059 196.97995 
L 96.153416 196.869604 
L 95.244688 196.772161 
L 94.413552 196.674939 
L 93.972866 196.628047 
L 93.254928 196.544464 
L 92.033906 196.415536 
L 91.428582 196.345781 
L 90.860593 196.286263 
L 90.352472 196.227985 
L 88.827952 196.06945 
L 88.441905 196.025619 
L 87.750169 195.954228 
L 87.446183 195.919875 
L 85.626642 195.733504 
L 85.453579 195.714142 
L 84.641528 195.631588 
L 84.536187 195.619856 
L 82.958639 195.46068 
L 82.505002 195.414783 
L 81.798786 195.343416 
L 81.388374 195.303968 
L 79.759649 195.141631 
L 78.524336 195.024238 
L 77.971512 194.969898 
L 77.006896 194.87517 
L 74.747887 194.663692 
L 74.565979 194.646073 
L 74.246963 194.615203 
L 72.85046 194.4864 
L 71.481333 194.360386 
L 71.172751 194.333374 
L 71.002452 194.318485 
L 68.710142 194.110598 
L 67.791346 194.031367 
L 67.286562 193.987889 
L 65.932262 193.866859 
L 64.419902 193.738367 
L 63.819531 193.685301 
L 63.147887 193.628993 
L 61.751829 193.51212 
L 61.145579 193.461253 
L 61.112157 193.458776 
L 60.253401 193.387253 
L 60.169684 193.38108 
L 58.209129 193.218988 
L 58.01657 193.204933 
L 57.62857 193.171868 
L 57.62857 194.4864 
L 57.62857 197.8128 
L 57.62857 201.1392 
L 57.62857 204.4656 
L 57.62857 207.792 
L 57.62857 211.1184 
L 57.62857 214.4448 
L 57.62857 217.7712 
L 57.62857 221.0976 
L 57.62857 224.424 
L 57.62857 227.7504 
L 57.62857 230.527554 
L 57.72887 230.548174 
L 59.038225 230.827804 
L 59.246603 230.870888 
L 60.203795 231.0768 
L 60.657474 231.174408 
L 60.69615 231.183032 
L 62.020147 231.468793 
L 62.420356 231.5585 
L 63.584022 231.811478 
L 63.875265 231.877103 
L 64.78923 232.076435 
L 65.811057 232.307904 
L 66.508195 232.461063 
L 67.05721 232.586089 
L 67.55313 232.695395 
L 69.209711 233.074671 
L 69.429918 233.123567 
L 70.242084 233.310513 
L 70.311686 233.326019 
L 70.756313 233.42892 
L 72.080569 233.735318 
L 72.49736 233.831795 
L 74.203066 234.234703 
L 74.499155 234.303953 
L 74.560877 234.318395 
L 74.916005 234.4032 
L 76.910326 234.879296 
L 78.350189 235.229123 
L 78.662348 235.304238 
L 78.960644 235.37748 
L 79.387064 235.481616 
L 79.463345 235.500874 
L 81.298718 235.951543 
L 81.689459 236.050949 
L 82.297958 236.20119 
L 82.902219 236.355445 
L 84.032577 236.636082 
L 84.889744 236.856597 
L 85.206043 236.935566 
L 86.35074 237.231075 
L 86.760348 237.333913 
L 88.093549 237.680793 
L 88.111223 237.685255 
L 88.281061 237.7296 
L 89.482902 238.043135 
L 89.810677 238.131627 
L 91.013928 238.447992 
L 91.301346 238.526031 
L 92.20046 238.763261 
L 93.282826 239.05884 
L 93.913621 239.226598 
L 94.512926 239.391205 
L 94.911515 239.497585 
L 96.765898 240.0099 
L 96.810164 240.021809 
L 97.025755 240.08172 
L 97.988649 240.350542 
L 99.180769 240.683465 
L 100.492608 241.056 
L 101.499292 241.342585 
L 102.431527 241.612403 
L 103.009101 241.778228 
L 103.33993 241.874014 
L 103.33993 241.056 
L 103.33993 237.7296 
L 103.33993 234.4032 
L 103.33993 231.0768 
L 103.33993 227.7504 
L 103.33993 224.424 
L 103.33993 221.0976 
L 103.33993 217.7712 
L 103.33993 214.4448 
L 103.33993 211.1184 
L 103.33993 207.792 
L 103.33993 204.4656 
L 103.33993 201.1392 
L 103.33993 197.8128 
" clip-path="url(#p471cdffd15)" style="fill: #ff9400"/>
   </g>
   <g id="PathCollection_9">
    <path d="M 103.33993 241.874014 
L 103.009101 241.778228 
L 102.431527 241.612403 
L 101.499292 241.342585 
L 100.492608 241.056 
L 99.180769 240.683465 
L 97.988649 240.350542 
L 97.025755 240.08172 
L 96.810164 240.021809 
L 96.765898 240.0099 
L 94.911515 239.497585 
L 94.512926 239.391205 
L 93.913621 239.226598 
L 93.282826 239.05884 
L 92.20046 238.763261 
L 91.301346 238.526031 
L 91.013928 238.447992 
L 89.810677 238.131627 
L 89.482902 238.043135 
L 88.281061 237.7296 
L 88.111223 237.685255 
L 88.093549 237.680793 
L 86.760348 237.333913 
L 86.35074 237.231075 
L 85.206043 236.935566 
L 84.889744 236.856597 
L 84.032577 236.636082 
L 82.902219 236.355445 
L 82.297958 236.20119 
L 81.689459 236.050949 
L 81.298718 235.951543 
L 79.463345 235.500874 
L 79.387064 235.481616 
L 78.960644 235.37748 
L 78.662348 235.304238 
L 78.350189 235.229123 
L 76.910326 234.879296 
L 74.916005 234.4032 
L 74.560877 234.318395 
L 74.499155 234.303953 
L 74.203066 234.234703 
L 72.49736 233.831795 
L 72.080569 233.735318 
L 70.756313 233.42892 
L 70.311686 233.326019 
L 70.242084 233.310513 
L 69.429918 233.123567 
L 69.209711 233.074671 
L 67.55313 232.695395 
L 67.05721 232.586089 
L 66.508195 232.461063 
L 65.811057 232.307904 
L 64.78923 232.076435 
L 63.875265 231.877103 
L 63.584022 231.811478 
L 62.420356 231.5585 
L 62.020147 231.468793 
L 60.69615 231.183032 
L 60.657474 231.174408 
L 60.203795 231.0768 
L 59.246603 230.870888 
L 59.038225 230.827804 
L 57.72887 230.548174 
L 57.62857 230.527554 
L 57.62857 231.0768 
L 57.62857 234.4032 
L 57.62857 237.7296 
L 57.62857 241.056 
L 57.62857 244.3824 
L 57.62857 247.7088 
L 57.62857 251.0352 
L 57.62857 254.3616 
L 57.62857 257.688 
L 57.62857 261.0144 
L 57.62857 264.3408 
L 57.62857 267.6672 
L 57.62857 268.088024 
L 57.85442 268.160252 
L 58.409092 268.339241 
L 59.336826 268.64148 
L 60.11345 268.895284 
L 60.288942 268.953668 
L 61.017656 269.192885 
L 61.439324 269.33362 
L 62.760539 269.769251 
L 63.540817 270.031216 
L 63.884424 270.145026 
L 65.036118 270.532942 
L 65.40233 270.654783 
L 66.402245 270.9936 
L 66.748484 271.111435 
L 66.796339 271.127985 
L 68.0387 271.552152 
L 68.64727 271.763611 
L 69.609465 272.09407 
L 70.056686 272.250182 
L 70.669637 272.461379 
L 72.27171 273.02329 
L 72.467692 273.091224 
L 73.18991 273.34572 
L 73.390756 273.41696 
L 74.824989 273.926114 
L 75.923202 274.32 
L 77.006079 274.709509 
L 78.446363 275.232889 
L 78.615153 275.29428 
L 79.355403 275.565284 
L 79.566996 275.643953 
L 81.136985 276.221419 
L 81.783481 276.463285 
L 82.203021 276.618351 
L 83.238906 277.007261 
L 83.739316 277.193098 
L 84.939087 277.6464 
L 85.047579 277.687544 
L 85.064422 277.694028 
L 86.335675 278.177814 
L 86.927398 278.40677 
L 87.888692 278.774895 
L 88.351038 278.954672 
L 88.926027 279.175641 
L 90.632526 279.842599 
L 90.726627 279.878993 
L 91.030932 279.99852 
L 92.03573 280.395684 
L 92.92367 280.746983 
L 93.488591 280.9728 
L 95.035764 281.592769 
L 95.91093 281.94708 
L 96.659659 282.25083 
L 96.873126 282.338831 
L 97.563612 282.620404 
L 98.101811 282.843117 
L 99.224928 283.303418 
L 100.178976 283.70085 
L 100.389572 283.787616 
L 101.612936 284.2992 
L 101.783451 284.370732 
L 101.86488 284.405435 
L 103.211851 284.974231 
L 103.33993 285.029579 
L 103.33993 284.2992 
L 103.33993 280.9728 
L 103.33993 277.6464 
L 103.33993 274.32 
L 103.33993 270.9936 
L 103.33993 267.6672 
L 103.33993 264.3408 
L 103.33993 261.0144 
L 103.33993 257.688 
L 103.33993 254.3616 
L 103.33993 251.0352 
L 103.33993 247.7088 
L 103.33993 244.3824 
" clip-path="url(#p471cdffd15)" style="fill: #ff3800"/>
   </g>
   <g id="PathCollection_10">
    <path d="M 103.33993 285.029579 
L 103.211851 284.974231 
L 101.86488 284.405435 
L 101.783451 284.370732 
L 101.612936 284.2992 
L 100.389572 283.787616 
L 100.178976 283.70085 
L 99.224928 283.303418 
L 98.101811 282.843117 
L 97.563612 282.620404 
L 96.873126 282.338831 
L 96.659659 282.25083 
L 95.91093 281.94708 
L 95.035764 281.592769 
L 93.488591 280.9728 
L 92.92367 280.746983 
L 92.03573 280.395684 
L 91.030932 279.99852 
L 90.726627 279.878993 
L 90.632526 279.842599 
L 88.926027 279.175641 
L 88.351038 278.954672 
L 87.888692 278.774895 
L 86.927398 278.40677 
L 86.335675 278.177814 
L 85.064422 277.694028 
L 85.047579 277.687544 
L 84.939087 277.6464 
L 83.739316 277.193098 
L 83.238906 277.007261 
L 82.203021 276.618351 
L 81.783481 276.463285 
L 81.136985 276.221419 
L 79.566996 275.643953 
L 79.355403 275.565284 
L 78.615153 275.29428 
L 78.446363 275.232889 
L 77.006079 274.709509 
L 75.923202 274.32 
L 74.824989 273.926114 
L 73.390756 273.41696 
L 73.18991 273.34572 
L 72.467692 273.091224 
L 72.27171 273.02329 
L 70.669637 272.461379 
L 70.056686 272.250182 
L 69.609465 272.09407 
L 68.64727 271.763611 
L 68.0387 271.552152 
L 66.796339 271.127985 
L 66.748484 271.111435 
L 66.402245 270.9936 
L 65.40233 270.654783 
L 65.036118 270.532942 
L 63.884424 270.145026 
L 63.540817 270.031216 
L 62.760539 269.769251 
L 61.439324 269.33362 
L 61.017656 269.192885 
L 60.288942 268.953668 
L 60.11345 268.895284 
L 59.336826 268.64148 
L 58.409092 268.339241 
L 57.85442 268.160252 
L 57.62857 268.088024 
L 57.62857 270.9936 
L 57.62857 274.32 
L 57.62857 277.6464 
L 57.62857 280.9728 
L 57.62857 284.2992 
L 57.62857 287.6256 
L 57.62857 290.952 
L 57.62857 294.2784 
L 57.62857 297.6048 
L 57.62857 300.9312 
L 57.62857 304.2576 
L 57.62857 307.584 
L 59.152282 307.584 
L 60.675994 307.584 
L 62.199706 307.584 
L 63.723418 307.584 
L 65.24713 307.584 
L 66.770842 307.584 
L 68.294554 307.584 
L 69.818266 307.584 
L 71.341978 307.584 
L 72.86569 307.584 
L 74.389402 307.584 
L 75.913114 307.584 
L 77.436826 307.584 
L 78.960538 307.584 
L 80.48425 307.584 
L 82.007962 307.584 
L 83.531674 307.584 
L 85.055386 307.584 
L 86.579098 307.584 
L 88.10281 307.584 
L 89.626522 307.584 
L 91.150234 307.584 
L 92.673946 307.584 
L 94.197658 307.584 
L 95.72137 307.584 
L 97.245082 307.584 
L 98.768794 307.584 
L 100.292506 307.584 
L 101.816218 307.584 
L 103.33993 307.584 
L 103.33993 304.2576 
L 103.33993 300.9312 
L 103.33993 297.6048 
L 103.33993 294.2784 
L 103.33993 290.952 
L 103.33993 287.6256 
" clip-path="url(#p471cdffd15)" style="fill: #b60000"/>
   </g>
   <g id="PathCollection_11">
    <path clip-path="url(#p471cdffd15)" style="fill: #0000b6"/>
   </g>
   <g id="PathCollection_12">
    <path clip-path="url(#p471cdffd15)" style="fill: #0018ff"/>
   </g>
   <g id="PathCollection_13">
    <path clip-path="url(#p471cdffd15)" style="fill: #0080ff"/>
   </g>
   <g id="PathCollection_14">
    <path clip-path="url(#p471cdffd15)" style="fill: #00e4f8"/>
   </g>
   <g id="PathCollection_15">
    <path d="M 100.4544 94.98296 
L 100.643854 94.902008 
L 101.094675 94.6944 
L 104.765168 92.976842 
L 106.569139 92.09632 
L 111.85198 89.443358 
L 116.172545 87.070838 
L 116.961764 86.665087 
L 118.483427 85.824 
L 122.60261 83.483372 
L 128.965323 79.55168 
L 129.58721 79.15443 
L 133.006807 76.9536 
L 136.121277 74.771801 
L 136.712559 74.35552 
L 142.677288 70.000115 
L 145.109701 68.0832 
L 148.102568 65.648886 
L 150.826681 63.310718 
L 151.932921 62.401872 
L 152.602099 61.81088 
L 153.774192 60.73032 
L 155.493577 59.2128 
L 156.019088 58.714252 
L 158.256321 56.61472 
L 160.675346 54.241244 
L 164.396457 50.3424 
L 164.974906 49.714731 
L 165.805304 48.773203 
L 168.836635 45.443792 
L 170.01159 44.07008 
L 171.427117 42.325235 
L 172.153419 41.472 
L 165.21216 41.472 
L 157.11744 41.472 
L 149.02272 41.472 
L 140.928 41.472 
L 132.83328 41.472 
L 124.73856 41.472 
L 116.64384 41.472 
L 108.54912 41.472 
L 100.4544 41.472 
L 100.4544 50.3424 
L 100.4544 59.2128 
L 100.4544 68.0832 
L 100.4544 76.9536 
L 100.4544 85.824 
L 100.4544 94.6944 
" clip-path="url(#p471cdffd15)" style="fill: #53ffa4"/>
   </g>
   <g id="PathCollection_16">
    <path d="M 172.153419 41.472 
L 171.427117 42.325235 
L 170.01159 44.07008 
L 168.836635 45.443792 
L 165.805304 48.773203 
L 164.974906 49.714731 
L 164.396457 50.3424 
L 160.675346 54.241244 
L 158.256321 56.61472 
L 156.019088 58.714252 
L 155.493577 59.2128 
L 153.774192 60.73032 
L 152.602099 61.81088 
L 151.932921 62.401872 
L 150.826681 63.310718 
L 148.102568 65.648886 
L 145.109701 68.0832 
L 142.677288 70.000115 
L 136.712559 74.35552 
L 136.121277 74.771801 
L 133.006807 76.9536 
L 129.58721 79.15443 
L 128.965323 79.55168 
L 122.60261 83.483372 
L 118.483427 85.824 
L 116.961764 86.665087 
L 116.172545 87.070838 
L 111.85198 89.443358 
L 106.569139 92.09632 
L 104.765168 92.976842 
L 101.094675 94.6944 
L 100.643854 94.902008 
L 100.4544 94.98296 
L 100.4544 103.5648 
L 100.4544 112.4352 
L 100.4544 121.3056 
L 100.4544 130.176 
L 100.4544 139.0464 
L 100.4544 147.9168 
L 100.4544 149.871038 
L 102.092872 149.71228 
L 105.502143 149.299841 
L 110.411344 148.762074 
L 111.49413 148.647897 
L 117.30569 147.9168 
L 122.251175 147.299308 
L 123.101921 147.17392 
L 127.865625 146.497407 
L 132.701057 145.874467 
L 135.48848 145.447771 
L 136.364913 145.31872 
L 145.411736 143.959792 
L 147.30275 143.596678 
L 150.554526 143.09888 
L 154.029768 142.42995 
L 159.433019 141.58387 
L 164.650738 140.531675 
L 165.709563 140.362308 
L 172.210896 139.0464 
L 173.132321 138.855114 
L 173.588218 138.738103 
L 180.697211 137.182899 
L 182.263032 136.767433 
L 186.554888 135.823104 
L 194.397414 133.675657 
L 195.466659 133.426229 
L 197.759919 132.77408 
L 204.527646 130.701674 
L 205.915952 130.280486 
L 206.23632 130.176 
L 212.848962 127.935243 
L 213.7438 127.57792 
L 215.854405 126.792287 
L 217.52715 126.070303 
L 223.934542 123.562279 
L 228.750185 121.3056 
L 229.781258 120.806484 
L 230.258036 120.543374 
L 235.158372 118.120838 
L 240.458177 115.03328 
L 241.884738 114.169164 
L 244.618702 112.4352 
L 247.207448 110.685878 
L 248.26182 109.83712 
L 248.472593 109.684589 
L 249.218466 109.082954 
L 255.094693 104.485965 
L 256.108891 103.5648 
L 260.708014 99.224007 
L 262.557461 97.29248 
L 263.266479 96.476095 
L 264.998943 94.6944 
L 266.481184 92.895873 
L 267.128423 92.09632 
L 271.240325 86.697159 
L 271.82262 85.824 
L 275.027815 80.800413 
L 275.850515 79.55168 
L 275.919576 79.439213 
L 276.584579 78.478114 
L 277.459325 76.9536 
L 278.427638 74.971548 
L 278.780908 74.35552 
L 280.015941 71.992542 
L 281.915885 68.0832 
L 283.502858 64.653155 
L 284.675978 61.81088 
L 285.442433 59.753187 
L 285.689727 59.2128 
L 285.77663 59.000217 
L 285.826427 58.84671 
L 286.70911 56.61472 
L 288.29352 52.162084 
L 288.872993 50.3424 
L 289.97151 46.683932 
L 290.841904 44.07008 
L 291.020371 43.463471 
L 291.596774 41.472 
L 286.63296 41.472 
L 278.53824 41.472 
L 270.44352 41.472 
L 262.3488 41.472 
L 254.25408 41.472 
L 246.15936 41.472 
L 238.06464 41.472 
L 229.96992 41.472 
L 221.8752 41.472 
L 213.78048 41.472 
L 205.68576 41.472 
L 197.59104 41.472 
L 189.49632 41.472 
L 181.4016 41.472 
L 173.30688 41.472 
" clip-path="url(#p471cdffd15)" style="fill: #a4ff53"/>
   </g>
   <g id="PathCollection_17">
    <path d="M 291.596774 41.472 
L 291.020371 43.463471 
L 290.841904 44.07008 
L 289.97151 46.683932 
L 288.872993 50.3424 
L 288.29352 52.162084 
L 286.70911 56.61472 
L 285.826427 58.84671 
L 285.77663 59.000217 
L 285.689727 59.2128 
L 285.442433 59.753187 
L 284.675978 61.81088 
L 283.502858 64.653155 
L 281.915885 68.0832 
L 280.015941 71.992542 
L 278.780908 74.35552 
L 278.427638 74.971548 
L 277.459325 76.9536 
L 276.584579 78.478114 
L 275.919576 79.439213 
L 275.850515 79.55168 
L 275.027815 80.800413 
L 271.82262 85.824 
L 271.240325 86.697159 
L 267.128423 92.09632 
L 266.481184 92.895873 
L 264.998943 94.6944 
L 263.266479 96.476095 
L 262.557461 97.29248 
L 260.708014 99.224007 
L 256.108891 103.5648 
L 255.094693 104.485965 
L 249.218466 109.082954 
L 248.472593 109.684589 
L 248.26182 109.83712 
L 247.207448 110.685878 
L 244.618702 112.4352 
L 241.884738 114.169164 
L 240.458177 115.03328 
L 235.158372 118.120838 
L 230.258036 120.543374 
L 229.781258 120.806484 
L 228.750185 121.3056 
L 223.934542 123.562279 
L 217.52715 126.070303 
L 215.854405 126.792287 
L 213.7438 127.57792 
L 212.848962 127.935243 
L 206.23632 130.176 
L 205.915952 130.280486 
L 204.527646 130.701674 
L 197.759919 132.77408 
L 195.466659 133.426229 
L 194.397414 133.675657 
L 186.554888 135.823104 
L 182.263032 136.767433 
L 180.697211 137.182899 
L 173.588218 138.738103 
L 173.132321 138.855114 
L 172.210896 139.0464 
L 165.709563 140.362308 
L 164.650738 140.531675 
L 159.433019 141.58387 
L 154.029768 142.42995 
L 150.554526 143.09888 
L 147.30275 143.596678 
L 145.411736 143.959792 
L 136.364913 145.31872 
L 135.48848 145.447771 
L 132.701057 145.874467 
L 127.865625 146.497407 
L 123.101921 147.17392 
L 122.251175 147.299308 
L 117.30569 147.9168 
L 111.49413 148.647897 
L 110.411344 148.762074 
L 105.502143 149.299841 
L 102.092872 149.71228 
L 100.4544 149.871038 
L 100.4544 156.7872 
L 100.4544 165.6576 
L 100.4544 174.528 
L 100.4544 183.3984 
L 100.4544 192.2688 
L 100.4544 197.354233 
L 102.476048 197.617184 
L 103.571382 197.723532 
L 109.901508 198.54112 
L 113.311671 198.977451 
L 119.797335 199.912544 
L 123.022667 200.360346 
L 125.648879 200.726001 
L 128.28173 201.1392 
L 137.639348 202.631938 
L 143.832451 203.73728 
L 146.260712 204.165879 
L 146.862784 204.295366 
L 150.900855 205.040889 
L 153.008117 205.506499 
L 159.993895 206.857508 
L 164.414799 207.900137 
L 165.895867 208.200814 
L 173.29609 209.997776 
L 173.314151 210.001632 
L 173.344717 210.0096 
L 180.691224 211.88894 
L 182.292919 212.367635 
L 186.36395 213.442131 
L 195.158162 216.213991 
L 195.237303 216.236544 
L 195.373465 216.28192 
L 197.408584 216.915786 
L 202.986978 218.88 
L 204.513289 219.412191 
L 209.914027 221.47808 
L 211.026975 221.897361 
L 211.675859 222.182506 
L 215.331922 223.645974 
L 220.124623 225.832074 
L 222.644294 226.907608 
L 224.326548 227.7504 
L 229.088837 230.081356 
L 231.316915 231.313953 
L 233.701864 232.531241 
L 236.20615 234.02272 
L 239.519458 235.96045 
L 239.877523 236.170753 
L 240.543144 236.6208 
L 244.391713 239.069126 
L 244.595476 239.21888 
L 247.738894 241.312452 
L 253.342696 245.4912 
L 253.890534 245.889583 
L 256.994789 248.494538 
L 260.212605 251.142626 
L 260.887111 251.76352 
L 261.186323 252.063507 
L 263.702767 254.3616 
L 265.890601 256.428196 
L 266.391868 256.95968 
L 271.418602 262.16348 
L 272.301967 263.232 
L 276.620424 268.305692 
L 277.535836 269.50432 
L 278.129019 270.19448 
L 279.50749 272.1024 
L 280.68896 273.577994 
L 281.315677 274.515945 
L 281.435385 274.70048 
L 282.885146 276.865851 
L 285.694823 280.9728 
L 286.103775 281.552694 
L 289.522446 287.24512 
L 290.146924 288.248192 
L 290.985984 289.8432 
L 292.429477 292.423236 
L 292.437504 292.44128 
L 295.138347 297.627157 
L 295.64271 298.7136 
L 298.121079 303.865427 
L 298.563222 304.98592 
L 298.90511 305.80592 
L 299.700167 307.584 
L 302.8224 307.584 
L 310.91712 307.584 
L 319.01184 307.584 
L 327.10656 307.584 
L 335.20128 307.584 
L 343.296 307.584 
L 343.296 298.7136 
L 343.296 289.8432 
L 343.296 280.9728 
L 343.296 272.1024 
L 343.296 263.232 
L 343.296 254.3616 
L 343.296 245.4912 
L 343.296 236.6208 
L 343.296 227.7504 
L 343.296 218.88 
L 343.296 210.0096 
L 343.296 201.1392 
L 343.296 192.2688 
L 343.296 183.3984 
L 343.296 174.528 
L 343.296 165.6576 
L 343.296 156.7872 
L 343.296 147.9168 
L 343.296 139.0464 
L 343.296 130.176 
L 343.296 121.3056 
L 343.296 112.4352 
L 343.296 103.5648 
L 343.296 94.6944 
L 343.296 85.824 
L 343.296 76.9536 
L 343.296 68.0832 
L 343.296 59.2128 
L 343.296 50.3424 
L 343.296 41.472 
L 335.20128 41.472 
L 327.10656 41.472 
L 319.01184 41.472 
L 310.91712 41.472 
L 302.8224 41.472 
L 294.72768 41.472 
" clip-path="url(#p471cdffd15)" style="fill: #f8f500"/>
   </g>
   <g id="PathCollection_18">
    <path d="M 299.700167 307.584 
L 298.90511 305.80592 
L 298.563222 304.98592 
L 298.121079 303.865427 
L 295.64271 298.7136 
L 295.138347 297.627157 
L 292.437504 292.44128 
L 292.429477 292.423236 
L 290.985984 289.8432 
L 290.146924 288.248192 
L 289.522446 287.24512 
L 286.103775 281.552694 
L 285.694823 280.9728 
L 282.885146 276.865851 
L 281.435385 274.70048 
L 281.315677 274.515945 
L 280.68896 273.577994 
L 279.50749 272.1024 
L 278.129019 270.19448 
L 277.535836 269.50432 
L 276.620424 268.305692 
L 272.301967 263.232 
L 271.418602 262.16348 
L 266.391868 256.95968 
L 265.890601 256.428196 
L 263.702767 254.3616 
L 261.186323 252.063507 
L 260.887111 251.76352 
L 260.212605 251.142626 
L 256.994789 248.494538 
L 253.890534 245.889583 
L 253.342696 245.4912 
L 247.738894 241.312452 
L 244.595476 239.21888 
L 244.391713 239.069126 
L 240.543144 236.6208 
L 239.877523 236.170753 
L 239.519458 235.96045 
L 236.20615 234.02272 
L 233.701864 232.531241 
L 231.316915 231.313953 
L 229.088837 230.081356 
L 224.326548 227.7504 
L 222.644294 226.907608 
L 220.124623 225.832074 
L 215.331922 223.645974 
L 211.675859 222.182506 
L 211.026975 221.897361 
L 209.914027 221.47808 
L 204.513289 219.412191 
L 202.986978 218.88 
L 197.408584 216.915786 
L 195.373465 216.28192 
L 195.237303 216.236544 
L 195.158162 216.213991 
L 186.36395 213.442131 
L 182.292919 212.367635 
L 180.691224 211.88894 
L 173.344717 210.0096 
L 173.314151 210.001632 
L 173.29609 209.997776 
L 165.895867 208.200814 
L 164.414799 207.900137 
L 159.993895 206.857508 
L 153.008117 205.506499 
L 150.900855 205.040889 
L 146.862784 204.295366 
L 146.260712 204.165879 
L 143.832451 203.73728 
L 137.639348 202.631938 
L 128.28173 201.1392 
L 125.648879 200.726001 
L 123.022667 200.360346 
L 119.797335 199.912544 
L 113.311671 198.977451 
L 109.901508 198.54112 
L 103.571382 197.723532 
L 102.476048 197.617184 
L 100.4544 197.354233 
L 100.4544 201.1392 
L 100.4544 210.0096 
L 100.4544 218.88 
L 100.4544 227.7504 
L 100.4544 236.6208 
L 100.4544 241.039863 
L 101.975965 241.465815 
L 105.98344 242.679663 
L 110.051028 243.845371 
L 115.245531 245.4912 
L 116.494917 245.885184 
L 116.836923 246.002011 
L 122.584452 247.851726 
L 128.944806 250.100511 
L 130.84833 250.742497 
L 133.636485 251.76352 
L 134.282558 251.992309 
L 140.534602 254.3616 
L 140.749674 254.442543 
L 143.664965 255.603924 
L 147.066336 256.95968 
L 150.811878 258.498681 
L 154.142517 259.972004 
L 158.424455 261.79974 
L 161.48872 263.232 
L 164.657719 264.698806 
L 166.02304 265.377229 
L 169.738228 267.14262 
L 174.286065 269.50432 
L 176.511645 270.647739 
L 179.167247 272.1024 
L 182.421407 273.858742 
L 183.827816 274.675366 
L 183.870359 274.70048 
L 191.280082 279.018108 
L 194.352173 280.9728 
L 196.969879 282.616117 
L 198.634625 283.733664 
L 201.481112 285.58036 
L 203.828262 287.24512 
L 206.817036 289.329708 
L 207.058659 289.502379 
L 207.497871 289.8432 
L 208.386358 290.513622 
L 210.433099 291.998044 
L 211.040341 292.44128 
L 211.263479 292.601394 
L 211.556732 292.83055 
L 215.012152 295.455142 
L 219.022153 298.7136 
L 220.671619 300.032514 
L 226.339618 304.98592 
L 226.776566 305.359242 
L 229.19836 307.584 
L 229.96992 307.584 
L 238.06464 307.584 
L 246.15936 307.584 
L 254.25408 307.584 
L 262.3488 307.584 
L 270.44352 307.584 
L 278.53824 307.584 
L 286.63296 307.584 
L 294.72768 307.584 
" clip-path="url(#p471cdffd15)" style="fill: #ff9400"/>
   </g>
   <g id="PathCollection_19">
    <path d="M 229.19836 307.584 
L 226.776566 305.359242 
L 226.339618 304.98592 
L 220.671619 300.032514 
L 219.022153 298.7136 
L 215.012152 295.455142 
L 211.556732 292.83055 
L 211.263479 292.601394 
L 211.040341 292.44128 
L 210.433099 291.998044 
L 208.386358 290.513622 
L 207.497871 289.8432 
L 207.058659 289.502379 
L 206.817036 289.329708 
L 203.828262 287.24512 
L 201.481112 285.58036 
L 198.634625 283.733664 
L 196.969879 282.616117 
L 194.352173 280.9728 
L 191.280082 279.018108 
L 183.870359 274.70048 
L 183.827816 274.675366 
L 182.421407 273.858742 
L 179.167247 272.1024 
L 176.511645 270.647739 
L 174.286065 269.50432 
L 169.738228 267.14262 
L 166.02304 265.377229 
L 164.657719 264.698806 
L 161.48872 263.232 
L 158.424455 261.79974 
L 154.142517 259.972004 
L 150.811878 258.498681 
L 147.066336 256.95968 
L 143.664965 255.603924 
L 140.749674 254.442543 
L 140.534602 254.3616 
L 134.282558 251.992309 
L 133.636485 251.76352 
L 130.84833 250.742497 
L 128.944806 250.100511 
L 122.584452 247.851726 
L 116.836923 246.002011 
L 116.494917 245.885184 
L 115.245531 245.4912 
L 110.051028 243.845371 
L 105.98344 242.679663 
L 101.975965 241.465815 
L 100.4544 241.039863 
L 100.4544 245.4912 
L 100.4544 254.3616 
L 100.4544 263.232 
L 100.4544 272.1024 
L 100.4544 280.9728 
L 100.4544 283.826695 
L 101.737249 284.366651 
L 104.432755 285.483618 
L 108.456956 287.24512 
L 111.417236 288.541346 
L 112.265872 288.920519 
L 114.252102 289.8432 
L 119.465143 292.236834 
L 119.888869 292.44128 
L 127.233989 295.979045 
L 132.621232 298.7136 
L 132.799017 298.804245 
L 132.884743 298.849748 
L 138.248563 301.649795 
L 144.312605 304.98592 
L 145.373072 305.566356 
L 148.911468 307.584 
L 149.02272 307.584 
L 157.11744 307.584 
L 165.21216 307.584 
L 173.30688 307.584 
L 181.4016 307.584 
L 189.49632 307.584 
L 197.59104 307.584 
L 205.68576 307.584 
L 213.78048 307.584 
L 221.8752 307.584 
" clip-path="url(#p471cdffd15)" style="fill: #ff3800"/>
   </g>
   <g id="PathCollection_20">
    <path d="M 148.911468 307.584 
L 145.373072 305.566356 
L 144.312605 304.98592 
L 138.248563 301.649795 
L 132.884743 298.849748 
L 132.799017 298.804245 
L 132.621232 298.7136 
L 127.233989 295.979045 
L 119.888869 292.44128 
L 119.465143 292.236834 
L 114.252102 289.8432 
L 112.265872 288.920519 
L 111.417236 288.541346 
L 108.456956 287.24512 
L 104.432755 285.483618 
L 101.737249 284.366651 
L 100.4544 283.826695 
L 100.4544 289.8432 
L 100.4544 298.7136 
L 100.4544 307.584 
L 108.54912 307.584 
L 116.64384 307.584 
L 124.73856 307.584 
L 132.83328 307.584 
L 140.928 307.584 
" clip-path="url(#p471cdffd15)" style="fill: #b60000"/>
   </g>
   <g id="matplotlib.axis_1">
    <g id="xtick_1">
     <g id="line2d_1">
      <defs>
       <path id="m153e58c3aa" d="M 0 0 
L 0 3.5 
" style="stroke: #000000; stroke-width: 0.8"/>
      </defs>
      <g>
       <use xlink:href="#m153e58c3aa" x="57.6" y="307.584" style="stroke: #000000; stroke-width: 0.8"/>
      </g>
     </g>
     <g id="text_1">
      <!-- 0.0 -->
      <g transform="translate(51.26875 321.385562) scale(0.1 -0.1)">
       <defs>
        <path id="Calibri-30" d="M 3022 2031 
Q 3022 1566 2948 1181 
Q 2875 797 2704 520 
Q 2534 244 2259 92 
Q 1984 -59 1581 -59 
Q 1200 -59 939 77 
Q 678 213 518 477 
Q 359 741 292 1127 
Q 225 1513 225 2013 
Q 225 2475 300 2861 
Q 375 3247 544 3523 
Q 713 3800 988 3951 
Q 1263 4103 1663 4103 
Q 2047 4103 2308 3967 
Q 2569 3831 2728 3567 
Q 2888 3303 2955 2917 
Q 3022 2531 3022 2031 
z
M 2472 1994 
Q 2472 2297 2450 2537 
Q 2428 2778 2386 2962 
Q 2344 3147 2276 3280 
Q 2209 3413 2115 3498 
Q 2022 3584 1901 3623 
Q 1781 3663 1631 3663 
Q 1366 3663 1200 3538 
Q 1034 3413 939 3194 
Q 844 2975 809 2681 
Q 775 2388 775 2050 
Q 775 1597 822 1280 
Q 869 963 970 763 
Q 1072 563 1230 472 
Q 1388 381 1613 381 
Q 1788 381 1920 437 
Q 2053 494 2148 598 
Q 2244 703 2306 850 
Q 2369 997 2406 1175 
Q 2444 1353 2458 1561 
Q 2472 1769 2472 1994 
z
" transform="scale(0.015625)"/>
        <path id="Calibri-2e" d="M 1144 341 
Q 1144 119 1070 45 
Q 997 -28 803 -28 
Q 616 -28 544 44 
Q 472 116 472 331 
Q 472 553 545 626 
Q 619 700 813 700 
Q 1000 700 1072 628 
Q 1144 556 1144 341 
z
" transform="scale(0.015625)"/>
       </defs>
       <use xlink:href="#Calibri-30"/>
       <use xlink:href="#Calibri-2e" x="50.683594"/>
       <use xlink:href="#Calibri-30" x="75.927734"/>
      </g>
     </g>
    </g>
    <g id="xtick_2">
     <g id="line2d_2">
      <g>
       <use xlink:href="#m153e58c3aa" x="86.1696" y="307.584" style="stroke: #000000; stroke-width: 0.8"/>
      </g>
     </g>
     <g id="text_2">
      <!-- 0.1 -->
      <g transform="translate(79.83835 321.385562) scale(0.1 -0.1)">
       <defs>
        <path id="Calibri-31" d="M 2897 213 
Q 2897 153 2887 112 
Q 2878 72 2862 47 
Q 2847 22 2826 11 
Q 2806 0 2784 0 
L 672 0 
Q 650 0 631 11 
Q 613 22 595 47 
Q 578 72 568 112 
Q 559 153 559 213 
Q 559 269 568 309 
Q 578 350 592 376 
Q 606 403 626 417 
Q 647 431 672 431 
L 1516 431 
L 1516 3506 
L 734 3041 
Q 675 3009 639 3003 
Q 603 2997 581 3017 
Q 559 3038 551 3084 
Q 544 3131 544 3203 
Q 544 3256 548 3293 
Q 553 3331 562 3356 
Q 572 3381 589 3400 
Q 606 3419 634 3438 
L 1566 4034 
Q 1578 4044 1597 4050 
Q 1616 4056 1644 4062 
Q 1672 4069 1709 4070 
Q 1747 4072 1803 4072 
Q 1878 4072 1928 4065 
Q 1978 4059 2006 4048 
Q 2034 4038 2043 4020 
Q 2053 4003 2053 3984 
L 2053 431 
L 2784 431 
Q 2809 431 2831 417 
Q 2853 403 2867 376 
Q 2881 350 2889 309 
Q 2897 269 2897 213 
z
" transform="scale(0.015625)"/>
       </defs>
       <use xlink:href="#Calibri-30"/>
       <use xlink:href="#Calibri-2e" x="50.683594"/>
       <use xlink:href="#Calibri-31" x="75.927734"/>
      </g>
     </g>
    </g>
    <g id="xtick_3">
     <g id="line2d_3">
      <g>
       <use xlink:href="#m153e58c3aa" x="114.7392" y="307.584" style="stroke: #000000; stroke-width: 0.8"/>
      </g>
     </g>
     <g id="text_3">
      <!-- 0.2 -->
      <g transform="translate(108.40795 321.385562) scale(0.1 -0.1)">
       <defs>
        <path id="Calibri-32" d="M 2888 231 
Q 2888 175 2880 131 
Q 2872 88 2858 58 
Q 2844 28 2820 14 
Q 2797 0 2769 0 
L 534 0 
Q 491 0 458 11 
Q 425 22 401 47 
Q 378 72 367 119 
Q 356 166 356 234 
Q 356 297 361 344 
Q 366 391 381 427 
Q 397 463 420 498 
Q 444 534 481 575 
L 1266 1406 
Q 1538 1694 1702 1922 
Q 1866 2150 1955 2337 
Q 2044 2525 2072 2678 
Q 2100 2831 2100 2966 
Q 2100 3100 2056 3220 
Q 2013 3341 1930 3431 
Q 1847 3522 1722 3575 
Q 1597 3628 1434 3628 
Q 1244 3628 1092 3575 
Q 941 3522 827 3459 
Q 713 3397 636 3344 
Q 559 3291 522 3291 
Q 500 3291 483 3303 
Q 466 3316 455 3344 
Q 444 3372 437 3419 
Q 431 3466 431 3531 
Q 431 3578 434 3612 
Q 438 3647 445 3672 
Q 453 3697 465 3719 
Q 478 3741 515 3773 
Q 553 3806 645 3862 
Q 738 3919 877 3973 
Q 1016 4028 1183 4065 
Q 1350 4103 1534 4103 
Q 1828 4103 2048 4020 
Q 2269 3938 2414 3794 
Q 2559 3650 2631 3459 
Q 2703 3269 2703 3053 
Q 2703 2859 2668 2667 
Q 2634 2475 2523 2251 
Q 2413 2028 2203 1754 
Q 1994 1481 1647 1125 
L 1006 456 
L 2766 456 
Q 2791 456 2814 442 
Q 2838 428 2855 400 
Q 2872 372 2880 330 
Q 2888 288 2888 231 
z
" transform="scale(0.015625)"/>
       </defs>
       <use xlink:href="#Calibri-30"/>
       <use xlink:href="#Calibri-2e" x="50.683594"/>
       <use xlink:href="#Calibri-32" x="75.927734"/>
      </g>
     </g>
    </g>
    <g id="xtick_4">
     <g id="line2d_4">
      <g>
       <use xlink:href="#m153e58c3aa" x="143.3088" y="307.584" style="stroke: #000000; stroke-width: 0.8"/>
      </g>
     </g>
     <g id="text_4">
      <!-- 0.3 -->
      <g transform="translate(136.97755 321.385562) scale(0.1 -0.1)">
       <defs>
        <path id="Calibri-33" d="M 2856 1156 
Q 2856 878 2759 654 
Q 2663 431 2481 272 
Q 2300 113 2034 27 
Q 1769 -59 1434 -59 
Q 1231 -59 1054 -26 
Q 878 6 740 51 
Q 603 97 512 145 
Q 422 194 398 216 
Q 375 238 362 259 
Q 350 281 340 312 
Q 331 344 326 389 
Q 322 434 322 500 
Q 322 613 344 656 
Q 366 700 406 700 
Q 434 700 517 650 
Q 600 600 729 542 
Q 859 484 1032 434 
Q 1206 384 1419 384 
Q 1625 384 1781 437 
Q 1938 491 2044 587 
Q 2150 684 2203 817 
Q 2256 950 2256 1106 
Q 2256 1278 2189 1415 
Q 2122 1553 1992 1653 
Q 1863 1753 1673 1806 
Q 1484 1859 1244 1859 
L 859 1859 
Q 834 1859 811 1870 
Q 788 1881 770 1906 
Q 753 1931 742 1972 
Q 731 2013 731 2078 
Q 731 2138 740 2177 
Q 750 2216 767 2239 
Q 784 2263 806 2273 
Q 828 2284 856 2284 
L 1209 2284 
Q 1416 2284 1580 2337 
Q 1744 2391 1858 2491 
Q 1972 2591 2033 2730 
Q 2094 2869 2094 3041 
Q 2094 3166 2053 3280 
Q 2013 3394 1931 3478 
Q 1850 3563 1723 3611 
Q 1597 3659 1431 3659 
Q 1250 3659 1098 3604 
Q 947 3550 828 3487 
Q 709 3425 631 3370 
Q 553 3316 522 3316 
Q 500 3316 483 3323 
Q 466 3331 455 3354 
Q 444 3378 439 3420 
Q 434 3463 434 3531 
Q 434 3578 437 3614 
Q 441 3650 450 3676 
Q 459 3703 471 3725 
Q 484 3747 514 3776 
Q 544 3806 634 3862 
Q 725 3919 858 3973 
Q 991 4028 1164 4065 
Q 1338 4103 1538 4103 
Q 1819 4103 2031 4031 
Q 2244 3959 2386 3828 
Q 2528 3697 2598 3514 
Q 2669 3331 2669 3109 
Q 2669 2919 2619 2755 
Q 2569 2591 2472 2464 
Q 2375 2338 2234 2248 
Q 2094 2159 1909 2125 
L 1909 2119 
Q 2119 2097 2292 2014 
Q 2466 1931 2591 1806 
Q 2716 1681 2786 1514 
Q 2856 1347 2856 1156 
z
" transform="scale(0.015625)"/>
       </defs>
       <use xlink:href="#Calibri-30"/>
       <use xlink:href="#Calibri-2e" x="50.683594"/>
       <use xlink:href="#Calibri-33" x="75.927734"/>
      </g>
     </g>
    </g>
    <g id="xtick_5">
     <g id="line2d_5">
      <g>
       <use xlink:href="#m153e58c3aa" x="171.8784" y="307.584" style="stroke: #000000; stroke-width: 0.8"/>
      </g>
     </g>
     <g id="text_5">
      <!-- 0.4 -->
      <g transform="translate(165.54715 321.385562) scale(0.1 -0.1)">
       <defs>
        <path id="Calibri-34" d="M 3059 1150 
Q 3059 1047 3028 987 
Q 2997 928 2941 928 
L 2484 928 
L 2484 78 
Q 2484 53 2471 36 
Q 2459 19 2428 6 
Q 2397 -6 2347 -12 
Q 2297 -19 2219 -19 
Q 2144 -19 2094 -12 
Q 2044 -6 2014 6 
Q 1984 19 1973 36 
Q 1963 53 1963 78 
L 1963 928 
L 294 928 
Q 256 928 231 937 
Q 206 947 186 972 
Q 166 997 158 1044 
Q 150 1091 150 1166 
Q 150 1225 153 1272 
Q 156 1319 165 1358 
Q 175 1397 190 1433 
Q 206 1469 228 1509 
L 1684 3966 
Q 1700 3991 1729 4009 
Q 1759 4028 1806 4040 
Q 1853 4053 1922 4058 
Q 1991 4063 2084 4063 
Q 2188 4063 2264 4055 
Q 2341 4047 2387 4034 
Q 2434 4022 2459 4001 
Q 2484 3981 2484 3953 
L 2484 1372 
L 2941 1372 
Q 2994 1372 3026 1317 
Q 3059 1263 3059 1150 
z
M 1963 3591 
L 1956 3591 
L 641 1372 
L 1963 1372 
L 1963 3591 
z
" transform="scale(0.015625)"/>
       </defs>
       <use xlink:href="#Calibri-30"/>
       <use xlink:href="#Calibri-2e" x="50.683594"/>
       <use xlink:href="#Calibri-34" x="75.927734"/>
      </g>
     </g>
    </g>
    <g id="xtick_6">
     <g id="line2d_6">
      <g>
       <use xlink:href="#m153e58c3aa" x="200.448" y="307.584" style="stroke: #000000; stroke-width: 0.8"/>
      </g>
     </g>
     <g id="text_6">
      <!-- 0.5 -->
      <g transform="translate(194.11675 321.385562) scale(0.1 -0.1)">
       <defs>
        <path id="Calibri-35" d="M 2869 1300 
Q 2869 975 2759 722 
Q 2650 469 2450 295 
Q 2250 122 1973 31 
Q 1697 -59 1359 -59 
Q 1172 -59 1003 -32 
Q 834 -6 703 33 
Q 572 72 487 109 
Q 403 147 379 169 
Q 356 191 347 209 
Q 338 228 330 254 
Q 322 281 319 322 
Q 316 363 316 419 
Q 316 472 320 514 
Q 325 556 337 582 
Q 350 609 367 621 
Q 384 634 406 634 
Q 438 634 503 595 
Q 569 556 680 511 
Q 791 466 955 425 
Q 1119 384 1344 384 
Q 1553 384 1728 434 
Q 1903 484 2029 590 
Q 2156 697 2228 858 
Q 2300 1019 2300 1250 
Q 2300 1444 2239 1592 
Q 2178 1741 2051 1839 
Q 1925 1938 1731 1986 
Q 1538 2034 1269 2034 
Q 1078 2034 940 2015 
Q 803 1997 684 1997 
Q 597 1997 559 2037 
Q 522 2078 522 2194 
L 522 3841 
Q 522 3944 570 3994 
Q 619 4044 709 4044 
L 2500 4044 
Q 2525 4044 2548 4030 
Q 2572 4016 2587 3987 
Q 2603 3959 2611 3915 
Q 2619 3872 2619 3813 
Q 2619 3700 2587 3637 
Q 2556 3575 2500 3575 
L 991 3575 
L 991 2441 
Q 1100 2456 1214 2459 
Q 1328 2463 1478 2463 
Q 1825 2463 2084 2380 
Q 2344 2297 2517 2145 
Q 2691 1994 2780 1778 
Q 2869 1563 2869 1300 
z
" transform="scale(0.015625)"/>
       </defs>
       <use xlink:href="#Calibri-30"/>
       <use xlink:href="#Calibri-2e" x="50.683594"/>
       <use xlink:href="#Calibri-35" x="75.927734"/>
      </g>
     </g>
    </g>
    <g id="xtick_7">
     <g id="line2d_7">
      <g>
       <use xlink:href="#m153e58c3aa" x="229.0176" y="307.584" style="stroke: #000000; stroke-width: 0.8"/>
      </g>
     </g>
     <g id="text_7">
      <!-- 0.6 -->
      <g transform="translate(222.68635 321.385562) scale(0.1 -0.1)">
       <defs>
        <path id="Calibri-36" d="M 2991 1309 
Q 2991 1044 2909 795 
Q 2828 547 2659 358 
Q 2491 169 2231 55 
Q 1972 -59 1619 -59 
Q 1366 -59 1172 3 
Q 978 66 834 181 
Q 691 297 595 465 
Q 500 634 442 850 
Q 384 1066 359 1322 
Q 334 1578 334 1872 
Q 334 2131 362 2397 
Q 391 2663 462 2909 
Q 534 3156 657 3373 
Q 781 3591 967 3752 
Q 1153 3913 1412 4006 
Q 1672 4100 2016 4100 
Q 2131 4100 2250 4086 
Q 2369 4072 2469 4048 
Q 2569 4025 2637 3997 
Q 2706 3969 2728 3951 
Q 2750 3934 2761 3914 
Q 2772 3894 2778 3870 
Q 2784 3847 2787 3817 
Q 2791 3788 2791 3744 
Q 2791 3688 2789 3647 
Q 2788 3606 2777 3581 
Q 2766 3556 2748 3543 
Q 2731 3531 2703 3531 
Q 2669 3531 2609 3553 
Q 2550 3575 2465 3601 
Q 2381 3628 2261 3650 
Q 2141 3672 1981 3672 
Q 1691 3672 1481 3553 
Q 1272 3434 1139 3234 
Q 1006 3034 942 2770 
Q 878 2506 869 2219 
Q 950 2266 1051 2312 
Q 1153 2359 1273 2396 
Q 1394 2434 1528 2457 
Q 1663 2481 1816 2481 
Q 2144 2481 2369 2392 
Q 2594 2303 2733 2145 
Q 2872 1988 2931 1773 
Q 2991 1559 2991 1309 
z
M 2447 1259 
Q 2447 1441 2411 1589 
Q 2375 1738 2290 1841 
Q 2206 1944 2065 2000 
Q 1925 2056 1719 2056 
Q 1603 2056 1487 2036 
Q 1372 2016 1264 1980 
Q 1156 1944 1057 1895 
Q 959 1847 878 1791 
Q 878 1388 929 1116 
Q 981 844 1079 680 
Q 1178 516 1325 445 
Q 1472 375 1669 375 
Q 1869 375 2016 450 
Q 2163 525 2259 651 
Q 2356 778 2401 936 
Q 2447 1094 2447 1259 
z
" transform="scale(0.015625)"/>
       </defs>
       <use xlink:href="#Calibri-30"/>
       <use xlink:href="#Calibri-2e" x="50.683594"/>
       <use xlink:href="#Calibri-36" x="75.927734"/>
      </g>
     </g>
    </g>
    <g id="xtick_8">
     <g id="line2d_8">
      <g>
       <use xlink:href="#m153e58c3aa" x="257.5872" y="307.584" style="stroke: #000000; stroke-width: 0.8"/>
      </g>
     </g>
     <g id="text_8">
      <!-- 0.7 -->
      <g transform="translate(251.25595 321.385562) scale(0.1 -0.1)">
       <defs>
        <path id="Calibri-37" d="M 2947 3813 
Q 2947 3756 2942 3711 
Q 2938 3666 2930 3623 
Q 2922 3581 2908 3542 
Q 2894 3503 2875 3459 
L 1419 103 
Q 1403 66 1379 42 
Q 1356 19 1320 5 
Q 1284 -9 1228 -14 
Q 1172 -19 1091 -19 
Q 984 -19 925 -9 
Q 866 0 839 20 
Q 813 41 816 70 
Q 819 100 838 141 
L 2369 3572 
L 428 3572 
Q 369 3572 339 3634 
Q 309 3697 309 3809 
Q 309 3869 317 3912 
Q 325 3956 340 3986 
Q 356 4016 378 4030 
Q 400 4044 428 4044 
L 2784 4044 
Q 2828 4044 2861 4034 
Q 2894 4025 2911 3997 
Q 2928 3969 2937 3925 
Q 2947 3881 2947 3813 
z
" transform="scale(0.015625)"/>
       </defs>
       <use xlink:href="#Calibri-30"/>
       <use xlink:href="#Calibri-2e" x="50.683594"/>
       <use xlink:href="#Calibri-37" x="75.927734"/>
      </g>
     </g>
    </g>
    <g id="xtick_9">
     <g id="line2d_9">
      <g>
       <use xlink:href="#m153e58c3aa" x="286.1568" y="307.584" style="stroke: #000000; stroke-width: 0.8"/>
      </g>
     </g>
     <g id="text_9">
      <!-- 0.8 -->
      <g transform="translate(279.82555 321.385562) scale(0.1 -0.1)">
       <defs>
        <path id="Calibri-38" d="M 2981 1038 
Q 2981 775 2887 570 
Q 2794 366 2617 225 
Q 2441 84 2181 12 
Q 1922 -59 1588 -59 
Q 1275 -59 1028 6 
Q 781 72 609 200 
Q 438 328 347 515 
Q 256 703 256 944 
Q 256 1134 318 1293 
Q 381 1453 498 1587 
Q 616 1722 787 1839 
Q 959 1956 1175 2063 
Q 988 2159 844 2267 
Q 700 2375 600 2501 
Q 500 2628 448 2772 
Q 397 2916 397 3084 
Q 397 3297 473 3483 
Q 550 3669 704 3806 
Q 859 3944 1098 4023 
Q 1338 4103 1656 4103 
Q 1963 4103 2186 4029 
Q 2409 3956 2554 3829 
Q 2700 3703 2769 3531 
Q 2838 3359 2838 3163 
Q 2838 3003 2786 2856 
Q 2734 2709 2634 2578 
Q 2534 2447 2389 2333 
Q 2244 2219 2056 2119 
Q 2278 2009 2451 1893 
Q 2625 1778 2742 1645 
Q 2859 1513 2920 1364 
Q 2981 1216 2981 1038 
z
M 2306 3113 
Q 2306 3244 2261 3350 
Q 2216 3456 2128 3531 
Q 2041 3606 1911 3645 
Q 1781 3684 1616 3684 
Q 1278 3684 1104 3531 
Q 931 3378 931 3113 
Q 931 2991 973 2886 
Q 1016 2781 1105 2687 
Q 1194 2594 1330 2505 
Q 1466 2416 1653 2319 
Q 1969 2481 2137 2678 
Q 2306 2875 2306 3113 
z
M 2438 981 
Q 2438 1125 2384 1242 
Q 2331 1359 2223 1461 
Q 2116 1563 1955 1658 
Q 1794 1753 1581 1856 
Q 1384 1759 1236 1662 
Q 1088 1566 992 1462 
Q 897 1359 848 1245 
Q 800 1131 800 994 
Q 800 691 1008 525 
Q 1216 359 1628 359 
Q 2028 359 2233 526 
Q 2438 694 2438 981 
z
" transform="scale(0.015625)"/>
       </defs>
       <use xlink:href="#Calibri-30"/>
       <use xlink:href="#Calibri-2e" x="50.683594"/>
       <use xlink:href="#Calibri-38" x="75.927734"/>
      </g>
     </g>
    </g>
    <g id="xtick_10">
     <g id="line2d_10">
      <g>
       <use xlink:href="#m153e58c3aa" x="314.7264" y="307.584" style="stroke: #000000; stroke-width: 0.8"/>
      </g>
     </g>
     <g id="text_10">
      <!-- 0.9 -->
      <g transform="translate(308.39515 321.385562) scale(0.1 -0.1)">
       <defs>
        <path id="Calibri-39" d="M 2919 2181 
Q 2919 1919 2887 1650 
Q 2856 1381 2781 1132 
Q 2706 884 2579 667 
Q 2453 450 2261 287 
Q 2069 125 1805 33 
Q 1541 -59 1191 -59 
Q 1056 -59 929 -42 
Q 803 -25 701 0 
Q 600 25 531 53 
Q 463 81 431 109 
Q 400 138 386 186 
Q 372 234 372 316 
Q 372 384 376 425 
Q 381 466 390 487 
Q 400 509 417 517 
Q 434 525 459 525 
Q 494 525 556 501 
Q 619 478 714 450 
Q 809 422 937 398 
Q 1066 375 1225 375 
Q 1528 375 1745 492 
Q 1963 609 2100 806 
Q 2238 1003 2306 1262 
Q 2375 1522 2381 1809 
Q 2216 1713 1984 1638 
Q 1753 1563 1453 1563 
Q 1116 1563 886 1655 
Q 656 1747 517 1906 
Q 378 2066 317 2284 
Q 256 2503 256 2763 
Q 256 3031 334 3273 
Q 413 3516 578 3700 
Q 744 3884 1000 3993 
Q 1256 4103 1613 4103 
Q 1866 4103 2061 4039 
Q 2256 3975 2400 3854 
Q 2544 3734 2644 3564 
Q 2744 3394 2805 3178 
Q 2866 2963 2892 2711 
Q 2919 2459 2919 2181 
z
M 2372 2241 
Q 2372 2641 2319 2914 
Q 2266 3188 2162 3356 
Q 2059 3525 1909 3600 
Q 1759 3675 1563 3675 
Q 1359 3675 1215 3601 
Q 1072 3528 980 3404 
Q 888 3281 844 3125 
Q 800 2969 800 2803 
Q 800 2619 839 2466 
Q 878 2313 965 2206 
Q 1053 2100 1193 2042 
Q 1334 1984 1541 1984 
Q 1775 1984 1994 2054 
Q 2213 2125 2372 2241 
z
" transform="scale(0.015625)"/>
       </defs>
       <use xlink:href="#Calibri-30"/>
       <use xlink:href="#Calibri-2e" x="50.683594"/>
       <use xlink:href="#Calibri-39" x="75.927734"/>
      </g>
     </g>
    </g>
    <g id="xtick_11">
     <g id="line2d_11">
      <g>
       <use xlink:href="#m153e58c3aa" x="343.296" y="307.584" style="stroke: #000000; stroke-width: 0.8"/>
      </g>
     </g>
     <g id="text_11">
      <!-- 1.0 -->
      <g transform="translate(336.96475 321.385562) scale(0.1 -0.1)">
       <use xlink:href="#Calibri-31"/>
       <use xlink:href="#Calibri-2e" x="50.683594"/>
       <use xlink:href="#Calibri-30" x="75.927734"/>
      </g>
     </g>
    </g>
    <g id="text_12">
     <!-- $\mathit{p}$ (cm$^2$/cm$^2$) -->
     <g transform="translate(174.148 336.263687) scale(0.1 -0.1)">
      <defs>
       <path id="DejaVuSans-Oblique-70" d="M 3175 2156 
Q 3175 2616 2975 2859 
Q 2775 3103 2400 3103 
Q 2144 3103 1911 2972 
Q 1678 2841 1497 2591 
Q 1319 2344 1212 1994 
Q 1106 1644 1106 1300 
Q 1106 863 1306 627 
Q 1506 391 1875 391 
Q 2147 391 2380 519 
Q 2613 647 2778 891 
Q 2956 1147 3065 1494 
Q 3175 1841 3175 2156 
z
M 1394 2969 
Q 1625 3272 1939 3428 
Q 2253 3584 2638 3584 
Q 3175 3584 3472 3232 
Q 3769 2881 3769 2247 
Q 3769 1728 3584 1258 
Q 3400 788 3053 416 
Q 2822 169 2531 39 
Q 2241 -91 1919 -91 
Q 1547 -91 1294 64 
Q 1041 219 916 525 
L 556 -1331 
L -19 -1331 
L 922 3500 
L 1497 3500 
L 1394 2969 
z
" transform="scale(0.015625)"/>
       <path id="Calibri-20" transform="scale(0.015625)"/>
       <path id="Calibri-28" d="M 1547 4306 
Q 1250 3678 1104 3017 
Q 959 2356 959 1688 
Q 959 1016 1107 356 
Q 1256 -303 1541 -938 
Q 1556 -975 1557 -1001 
Q 1559 -1028 1537 -1045 
Q 1516 -1063 1470 -1070 
Q 1425 -1078 1347 -1078 
Q 1291 -1078 1250 -1075 
Q 1209 -1072 1179 -1062 
Q 1150 -1053 1131 -1040 
Q 1113 -1028 1103 -1013 
Q 934 -694 806 -367 
Q 678 -41 590 296 
Q 503 634 459 979 
Q 416 1325 416 1678 
Q 416 2031 464 2375 
Q 513 2719 602 3058 
Q 691 3397 819 3725 
Q 947 4053 1106 4375 
Q 1109 4388 1123 4397 
Q 1138 4406 1163 4415 
Q 1188 4425 1231 4429 
Q 1275 4434 1344 4434 
Q 1416 4434 1459 4425 
Q 1503 4416 1528 4400 
Q 1553 4384 1556 4359 
Q 1559 4334 1547 4306 
z
" transform="scale(0.015625)"/>
       <path id="Calibri-63" d="M 2500 506 
Q 2500 453 2497 414 
Q 2494 375 2486 348 
Q 2478 322 2467 301 
Q 2456 281 2417 242 
Q 2378 203 2284 145 
Q 2191 88 2073 42 
Q 1956 -3 1818 -31 
Q 1681 -59 1534 -59 
Q 1231 -59 997 41 
Q 763 141 605 333 
Q 447 525 364 804 
Q 281 1084 281 1450 
Q 281 1866 382 2164 
Q 484 2463 661 2653 
Q 838 2844 1077 2936 
Q 1316 3028 1594 3028 
Q 1728 3028 1854 3003 
Q 1981 2978 2087 2937 
Q 2194 2897 2276 2844 
Q 2359 2791 2396 2753 
Q 2434 2716 2448 2694 
Q 2463 2672 2472 2642 
Q 2481 2613 2484 2575 
Q 2488 2538 2488 2481 
Q 2488 2359 2459 2311 
Q 2431 2263 2391 2263 
Q 2344 2263 2283 2314 
Q 2222 2366 2128 2428 
Q 2034 2491 1901 2542 
Q 1769 2594 1588 2594 
Q 1216 2594 1017 2308 
Q 819 2022 819 1478 
Q 819 1206 870 1001 
Q 922 797 1022 659 
Q 1122 522 1267 455 
Q 1413 388 1600 388 
Q 1778 388 1912 444 
Q 2047 500 2145 567 
Q 2244 634 2311 689 
Q 2378 744 2416 744 
Q 2438 744 2453 731 
Q 2469 719 2480 689 
Q 2491 659 2495 614 
Q 2500 569 2500 506 
z
" transform="scale(0.015625)"/>
       <path id="Calibri-6d" d="M 4650 78 
Q 4650 53 4637 36 
Q 4625 19 4597 6 
Q 4569 -6 4519 -12 
Q 4469 -19 4394 -19 
Q 4316 -19 4266 -12 
Q 4216 -6 4186 6 
Q 4156 19 4143 36 
Q 4131 53 4131 78 
L 4131 1788 
Q 4131 1966 4100 2112 
Q 4069 2259 4000 2365 
Q 3931 2472 3825 2528 
Q 3719 2584 3575 2584 
Q 3397 2584 3217 2446 
Q 3038 2309 2822 2044 
L 2822 78 
Q 2822 53 2809 36 
Q 2797 19 2767 6 
Q 2738 -6 2688 -12 
Q 2638 -19 2563 -19 
Q 2491 -19 2439 -12 
Q 2388 -6 2358 6 
Q 2328 19 2317 36 
Q 2306 53 2306 78 
L 2306 1788 
Q 2306 1966 2272 2112 
Q 2238 2259 2169 2365 
Q 2100 2472 1995 2528 
Q 1891 2584 1747 2584 
Q 1569 2584 1387 2446 
Q 1206 2309 994 2044 
L 994 78 
Q 994 53 981 36 
Q 969 19 941 6 
Q 913 -6 863 -12 
Q 813 -19 734 -19 
Q 659 -19 609 -12 
Q 559 -6 529 6 
Q 500 19 489 36 
Q 478 53 478 78 
L 478 2891 
Q 478 2916 487 2933 
Q 497 2950 525 2964 
Q 553 2978 597 2983 
Q 641 2988 713 2988 
Q 781 2988 826 2983 
Q 872 2978 897 2964 
Q 922 2950 933 2933 
Q 944 2916 944 2891 
L 944 2519 
Q 1181 2784 1404 2907 
Q 1628 3031 1856 3031 
Q 2031 3031 2170 2990 
Q 2309 2950 2415 2876 
Q 2522 2803 2597 2701 
Q 2672 2600 2722 2475 
Q 2863 2628 2989 2734 
Q 3116 2841 3233 2906 
Q 3350 2972 3461 3001 
Q 3572 3031 3684 3031 
Q 3956 3031 4140 2936 
Q 4325 2841 4439 2681 
Q 4553 2522 4601 2308 
Q 4650 2094 4650 1856 
L 4650 78 
z
" transform="scale(0.015625)"/>
       <path id="DejaVuSans-32" d="M 1228 531 
L 3431 531 
L 3431 0 
L 469 0 
L 469 531 
Q 828 903 1448 1529 
Q 2069 2156 2228 2338 
Q 2531 2678 2651 2914 
Q 2772 3150 2772 3378 
Q 2772 3750 2511 3984 
Q 2250 4219 1831 4219 
Q 1534 4219 1204 4116 
Q 875 4013 500 3803 
L 500 4441 
Q 881 4594 1212 4672 
Q 1544 4750 1819 4750 
Q 2544 4750 2975 4387 
Q 3406 4025 3406 3419 
Q 3406 3131 3298 2873 
Q 3191 2616 2906 2266 
Q 2828 2175 2409 1742 
Q 1991 1309 1228 531 
z
" transform="scale(0.015625)"/>
       <path id="Calibri-2f" d="M 525 -753 
Q 513 -794 492 -817 
Q 472 -841 440 -853 
Q 409 -866 364 -872 
Q 319 -878 253 -878 
Q 175 -878 123 -867 
Q 72 -856 44 -836 
Q 16 -816 9 -786 
Q 3 -756 22 -716 
L 1913 4469 
Q 1925 4509 1945 4532 
Q 1966 4556 1995 4570 
Q 2025 4584 2072 4589 
Q 2119 4594 2184 4594 
Q 2263 4594 2313 4583 
Q 2363 4572 2391 4553 
Q 2419 4534 2425 4503 
Q 2431 4472 2416 4431 
L 525 -753 
z
" transform="scale(0.015625)"/>
       <path id="Calibri-29" d="M 1522 1678 
Q 1522 1325 1478 979 
Q 1434 634 1346 296 
Q 1259 -41 1132 -367 
Q 1006 -694 838 -1013 
Q 828 -1028 809 -1040 
Q 791 -1053 761 -1062 
Q 731 -1072 690 -1075 
Q 650 -1078 594 -1078 
Q 513 -1078 467 -1070 
Q 422 -1063 401 -1045 
Q 381 -1028 382 -1001 
Q 384 -975 400 -938 
Q 688 -306 834 355 
Q 981 1016 981 1688 
Q 981 2356 834 3017 
Q 688 3678 394 4306 
Q 381 4334 384 4359 
Q 388 4384 413 4400 
Q 438 4416 481 4425 
Q 525 4434 597 4434 
Q 663 4434 706 4429 
Q 750 4425 776 4415 
Q 803 4406 815 4397 
Q 828 4388 834 4375 
Q 1156 3734 1339 3057 
Q 1522 2381 1522 1678 
z
" transform="scale(0.015625)"/>
      </defs>
      <use xlink:href="#DejaVuSans-Oblique-70" transform="translate(0 0.765625)"/>
      <use xlink:href="#Calibri-20" transform="translate(63.476562 0.765625)"/>
      <use xlink:href="#Calibri-28" transform="translate(84.958984 0.765625)"/>
      <use xlink:href="#Calibri-63" transform="translate(115.28125 0.765625)"/>
      <use xlink:href="#Calibri-6d" transform="translate(157.566406 0.765625)"/>
      <use xlink:href="#DejaVuSans-32" transform="translate(238.40625 39.046875) scale(0.7)"/>
      <use xlink:href="#Calibri-2f" transform="translate(285.676758 0.765625)"/>
      <use xlink:href="#Calibri-63" transform="translate(324.299805 0.765625)"/>
      <use xlink:href="#Calibri-6d" transform="translate(366.584961 0.765625)"/>
      <use xlink:href="#DejaVuSans-32" transform="translate(447.424805 39.046875) scale(0.7)"/>
      <use xlink:href="#Calibri-29" transform="translate(494.695312 0.765625)"/>
     </g>
    </g>
   </g>
   <g id="matplotlib.axis_2">
    <g id="ytick_1">
     <g id="line2d_12">
      <defs>
       <path id="meb131a9b40" d="M 0 0 
L -3.5 0 
" style="stroke: #000000; stroke-width: 0.8"/>
      </defs>
      <g>
       <use xlink:href="#meb131a9b40" x="57.6" y="275.65056" style="stroke: #000000; stroke-width: 0.8"/>
      </g>
     </g>
     <g id="text_13">
      <!-- 25 -->
      <g transform="translate(40.4625 279.051341) scale(0.1 -0.1)">
       <use xlink:href="#Calibri-32"/>
       <use xlink:href="#Calibri-35" x="50.683594"/>
      </g>
     </g>
    </g>
    <g id="ytick_2">
     <g id="line2d_13">
      <g>
       <use xlink:href="#meb131a9b40" x="57.6" y="242.38656" style="stroke: #000000; stroke-width: 0.8"/>
      </g>
     </g>
     <g id="text_14">
      <!-- 50 -->
      <g transform="translate(40.4625 245.787341) scale(0.1 -0.1)">
       <use xlink:href="#Calibri-35"/>
       <use xlink:href="#Calibri-30" x="50.683594"/>
      </g>
     </g>
    </g>
    <g id="ytick_3">
     <g id="line2d_14">
      <g>
       <use xlink:href="#meb131a9b40" x="57.6" y="209.12256" style="stroke: #000000; stroke-width: 0.8"/>
      </g>
     </g>
     <g id="text_15">
      <!-- 75 -->
      <g transform="translate(40.4625 212.523341) scale(0.1 -0.1)">
       <use xlink:href="#Calibri-37"/>
       <use xlink:href="#Calibri-35" x="50.683594"/>
      </g>
     </g>
    </g>
    <g id="ytick_4">
     <g id="line2d_15">
      <g>
       <use xlink:href="#meb131a9b40" x="57.6" y="175.85856" style="stroke: #000000; stroke-width: 0.8"/>
      </g>
     </g>
     <g id="text_16">
      <!-- 100 -->
      <g transform="translate(35.39375 179.259341) scale(0.1 -0.1)">
       <use xlink:href="#Calibri-31"/>
       <use xlink:href="#Calibri-30" x="50.683594"/>
       <use xlink:href="#Calibri-30" x="101.367188"/>
      </g>
     </g>
    </g>
    <g id="ytick_5">
     <g id="line2d_16">
      <g>
       <use xlink:href="#meb131a9b40" x="57.6" y="142.59456" style="stroke: #000000; stroke-width: 0.8"/>
      </g>
     </g>
     <g id="text_17">
      <!-- 125 -->
      <g transform="translate(35.39375 145.995341) scale(0.1 -0.1)">
       <use xlink:href="#Calibri-31"/>
       <use xlink:href="#Calibri-32" x="50.683594"/>
       <use xlink:href="#Calibri-35" x="101.367188"/>
      </g>
     </g>
    </g>
    <g id="ytick_6">
     <g id="line2d_17">
      <g>
       <use xlink:href="#meb131a9b40" x="57.6" y="109.33056" style="stroke: #000000; stroke-width: 0.8"/>
      </g>
     </g>
     <g id="text_18">
      <!-- 150 -->
      <g transform="translate(35.39375 112.731341) scale(0.1 -0.1)">
       <use xlink:href="#Calibri-31"/>
       <use xlink:href="#Calibri-35" x="50.683594"/>
       <use xlink:href="#Calibri-30" x="101.367188"/>
      </g>
     </g>
    </g>
    <g id="ytick_7">
     <g id="line2d_18">
      <g>
       <use xlink:href="#meb131a9b40" x="57.6" y="76.06656" style="stroke: #000000; stroke-width: 0.8"/>
      </g>
     </g>
     <g id="text_19">
      <!-- 175 -->
      <g transform="translate(35.39375 79.467341) scale(0.1 -0.1)">
       <use xlink:href="#Calibri-31"/>
       <use xlink:href="#Calibri-37" x="50.683594"/>
       <use xlink:href="#Calibri-35" x="101.367188"/>
      </g>
     </g>
    </g>
    <g id="ytick_8">
     <g id="line2d_19">
      <g>
       <use xlink:href="#meb131a9b40" x="57.6" y="42.80256" style="stroke: #000000; stroke-width: 0.8"/>
      </g>
     </g>
     <g id="text_20">
      <!-- 200 -->
      <g transform="translate(35.39375 46.203341) scale(0.1 -0.1)">
       <use xlink:href="#Calibri-32"/>
       <use xlink:href="#Calibri-30" x="50.683594"/>
       <use xlink:href="#Calibri-30" x="101.367188"/>
      </g>
     </g>
    </g>
    <g id="text_21">
     <!-- $\mathit{Z}$$_{a}$ (nm) -->
     <g transform="translate(29.59375 191.028) rotate(-90) scale(0.1 -0.1)">
      <defs>
       <path id="DejaVuSans-Oblique-5a" d="M 838 4666 
L 4500 4666 
L 4409 4184 
L 794 531 
L 3769 531 
L 3669 0 
L -141 0 
L -50 481 
L 3566 4134 
L 738 4134 
L 838 4666 
z
" transform="scale(0.015625)"/>
       <path id="DejaVuSans-Oblique-61" d="M 3438 1997 
L 3047 0 
L 2472 0 
L 2578 531 
Q 2325 219 2001 64 
Q 1678 -91 1281 -91 
Q 834 -91 548 182 
Q 263 456 263 884 
Q 263 1497 752 1853 
Q 1241 2209 2100 2209 
L 2900 2209 
L 2931 2363 
Q 2938 2388 2941 2417 
Q 2944 2447 2944 2509 
Q 2944 2788 2717 2942 
Q 2491 3097 2081 3097 
Q 1800 3097 1504 3025 
Q 1209 2953 897 2809 
L 997 3341 
Q 1322 3463 1633 3523 
Q 1944 3584 2234 3584 
Q 2853 3584 3176 3315 
Q 3500 3047 3500 2534 
Q 3500 2431 3484 2292 
Q 3469 2153 3438 1997 
z
M 2816 1759 
L 2241 1759 
Q 1534 1759 1195 1570 
Q 856 1381 856 984 
Q 856 709 1029 553 
Q 1203 397 1509 397 
Q 1978 397 2328 733 
Q 2678 1069 2791 1631 
L 2816 1759 
z
" transform="scale(0.015625)"/>
       <path id="Calibri-6e" d="M 2900 78 
Q 2900 53 2887 36 
Q 2875 19 2847 6 
Q 2819 -6 2769 -12 
Q 2719 -19 2644 -19 
Q 2566 -19 2516 -12 
Q 2466 -6 2437 6 
Q 2409 19 2396 36 
Q 2384 53 2384 78 
L 2384 1725 
Q 2384 1966 2346 2112 
Q 2309 2259 2237 2365 
Q 2166 2472 2052 2528 
Q 1938 2584 1788 2584 
Q 1594 2584 1400 2446 
Q 1206 2309 994 2044 
L 994 78 
Q 994 53 981 36 
Q 969 19 941 6 
Q 913 -6 863 -12 
Q 813 -19 734 -19 
Q 659 -19 609 -12 
Q 559 -6 529 6 
Q 500 19 489 36 
Q 478 53 478 78 
L 478 2891 
Q 478 2916 487 2933 
Q 497 2950 525 2964 
Q 553 2978 597 2983 
Q 641 2988 713 2988 
Q 781 2988 826 2983 
Q 872 2978 897 2964 
Q 922 2950 933 2933 
Q 944 2916 944 2891 
L 944 2519 
Q 1181 2784 1417 2907 
Q 1653 3031 1894 3031 
Q 2175 3031 2367 2936 
Q 2559 2841 2678 2681 
Q 2797 2522 2848 2308 
Q 2900 2094 2900 1794 
L 2900 78 
z
" transform="scale(0.015625)"/>
      </defs>
      <use xlink:href="#DejaVuSans-Oblique-5a" transform="translate(0 0.09375)"/>
      <use xlink:href="#DejaVuSans-Oblique-61" transform="translate(69.462891 -16.3125) scale(0.7)"/>
      <use xlink:href="#Calibri-20" transform="translate(115.092773 0.09375)"/>
      <use xlink:href="#Calibri-28" transform="translate(136.575195 0.09375)"/>
      <use xlink:href="#Calibri-6e" transform="translate(166.897461 0.09375)"/>
      <use xlink:href="#Calibri-6d" transform="translate(219.436523 0.09375)"/>
      <use xlink:href="#Calibri-29" transform="translate(299.319336 0.09375)"/>
     </g>
    </g>
   </g>
   <g id="patch_3">
    <path d="M 57.6 307.584 
L 57.6 41.472 
" style="fill: none; stroke: #000000; stroke-width: 0.8; stroke-linejoin: miter; stroke-linecap: square"/>
   </g>
   <g id="patch_4">
    <path d="M 343.296 307.584 
L 343.296 41.472 
" style="fill: none; stroke: #000000; stroke-width: 0.8; stroke-linejoin: miter; stroke-linecap: square"/>
   </g>
   <g id="patch_5">
    <path d="M 57.6 307.584 
L 343.296 307.584 
" style="fill: none; stroke: #000000; stroke-width: 0.8; stroke-linejoin: miter; stroke-linecap: square"/>
   </g>
   <g id="patch_6">
    <path d="M 57.6 41.472 
L 343.296 41.472 
" style="fill: none; stroke: #000000; stroke-width: 0.8; stroke-linejoin: miter; stroke-linecap: square"/>
   </g>
   <g id="text_22">
    <!-- $\lambda$ = 880 nm -->
    <g transform="translate(177.348 35.472) scale(0.1 -0.1)">
     <defs>
      <path id="DejaVuSans-Oblique-3bb" d="M 2350 4316 
L 3125 0 
L 2516 0 
L 2038 2588 
L 328 0 
L -281 0 
L 1903 3356 
L 1794 3975 
Q 1725 4369 1391 4369 
L 1091 4369 
L 1184 4863 
L 1550 4856 
Q 2253 4847 2350 4316 
z
" transform="scale(0.015625)"/>
      <path id="Calibri-3d" d="M 2891 2409 
Q 2891 2284 2855 2236 
Q 2819 2188 2772 2188 
L 409 2188 
Q 363 2188 328 2236 
Q 294 2284 294 2409 
Q 294 2522 325 2575 
Q 356 2628 409 2628 
L 2772 2628 
Q 2828 2628 2859 2575 
Q 2891 2522 2891 2409 
z
M 2891 1194 
Q 2891 1069 2855 1022 
Q 2819 975 2772 975 
L 409 975 
Q 363 975 328 1022 
Q 294 1069 294 1194 
Q 294 1309 325 1362 
Q 356 1416 409 1416 
L 2772 1416 
Q 2828 1416 2859 1362 
Q 2891 1309 2891 1194 
z
" transform="scale(0.015625)"/>
     </defs>
     <use xlink:href="#DejaVuSans-Oblique-3bb" transform="translate(0 0.015625)"/>
     <use xlink:href="#Calibri-20" transform="translate(59.179688 0.015625)"/>
     <use xlink:href="#Calibri-3d" transform="translate(81.787109 0.015625)"/>
     <use xlink:href="#Calibri-20" transform="translate(131.591797 0.015625)"/>
     <use xlink:href="#Calibri-38" transform="translate(154.199219 0.015625)"/>
     <use xlink:href="#Calibri-38" transform="translate(204.882812 0.015625)"/>
     <use xlink:href="#Calibri-30" transform="translate(255.566406 0.015625)"/>
     <use xlink:href="#Calibri-20" transform="translate(306.25 0.015625)"/>
     <use xlink:href="#Calibri-6e" transform="translate(328.857422 0.015625)"/>
     <use xlink:href="#Calibri-6d" transform="translate(381.396484 0.015625)"/>
    </g>
   </g>
  </g>
  <g id="axes_2">
   <g id="patch_7">
    <path d="M 361.152 307.584 
L 374.4576 307.584 
L 374.4576 41.472 
L 361.152 41.472 
z
" style="fill: #ffffff"/>
   </g>
   <g id="QuadMesh_1">
    <path d="M 361.152 307.584 
L 374.4576 307.584 
L 374.4576 280.9728 
L 361.152 280.9728 
L 361.152 307.584 
" clip-path="url(#pfe78afa701)" style="fill: #0000b6"/>
    <path d="M 361.152 280.9728 
L 374.4576 280.9728 
L 374.4576 254.3616 
L 361.152 254.3616 
L 361.152 280.9728 
" clip-path="url(#pfe78afa701)" style="fill: #0018ff"/>
    <path d="M 361.152 254.3616 
L 374.4576 254.3616 
L 374.4576 227.7504 
L 361.152 227.7504 
L 361.152 254.3616 
" clip-path="url(#pfe78afa701)" style="fill: #0080ff"/>
    <path d="M 361.152 227.7504 
L 374.4576 227.7504 
L 374.4576 201.1392 
L 361.152 201.1392 
L 361.152 227.7504 
" clip-path="url(#pfe78afa701)" style="fill: #00e4f8"/>
    <path d="M 361.152 201.1392 
L 374.4576 201.1392 
L 374.4576 174.528 
L 361.152 174.528 
L 361.152 201.1392 
" clip-path="url(#pfe78afa701)" style="fill: #53ffa4"/>
    <path d="M 361.152 174.528 
L 374.4576 174.528 
L 374.4576 147.9168 
L 361.152 147.9168 
L 361.152 174.528 
" clip-path="url(#pfe78afa701)" style="fill: #a4ff53"/>
    <path d="M 361.152 147.9168 
L 374.4576 147.9168 
L 374.4576 121.3056 
L 361.152 121.3056 
L 361.152 147.9168 
" clip-path="url(#pfe78afa701)" style="fill: #f8f500"/>
    <path d="M 361.152 121.3056 
L 374.4576 121.3056 
L 374.4576 94.6944 
L 361.152 94.6944 
L 361.152 121.3056 
" clip-path="url(#pfe78afa701)" style="fill: #ff9400"/>
    <path d="M 361.152 94.6944 
L 374.4576 94.6944 
L 374.4576 68.0832 
L 361.152 68.0832 
L 361.152 94.6944 
" clip-path="url(#pfe78afa701)" style="fill: #ff3800"/>
    <path d="M 361.152 68.0832 
L 374.4576 68.0832 
L 374.4576 41.472 
L 361.152 41.472 
L 361.152 68.0832 
" clip-path="url(#pfe78afa701)" style="fill: #b60000"/>
   </g>
   <g id="matplotlib.axis_3"/>
   <g id="matplotlib.axis_4">
    <g id="ytick_9">
     <g id="line2d_20">
      <defs>
       <path id="m27341b9f75" d="M 0 0 
L 3.5 0 
" style="stroke: #000000; stroke-width: 0.8"/>
      </defs>
      <g>
       <use xlink:href="#m27341b9f75" x="374.4576" y="307.584" style="stroke: #000000; stroke-width: 0.8"/>
      </g>
     </g>
     <g id="text_23">
      <!-- 0 -->
      <g transform="translate(381.4576 310.984781) scale(0.1 -0.1)">
       <use xlink:href="#Calibri-30"/>
      </g>
     </g>
    </g>
    <g id="ytick_10">
     <g id="line2d_21">
      <g>
       <use xlink:href="#m27341b9f75" x="374.4576" y="280.9728" style="stroke: #000000; stroke-width: 0.8"/>
      </g>
     </g>
     <g id="text_24">
      <!-- 0.1 -->
      <g transform="translate(381.4576 284.373581) scale(0.1 -0.1)">
       <use xlink:href="#Calibri-30"/>
       <use xlink:href="#Calibri-2e" x="50.683594"/>
       <use xlink:href="#Calibri-31" x="75.927734"/>
      </g>
     </g>
    </g>
    <g id="ytick_11">
     <g id="line2d_22">
      <g>
       <use xlink:href="#m27341b9f75" x="374.4576" y="254.3616" style="stroke: #000000; stroke-width: 0.8"/>
      </g>
     </g>
     <g id="text_25">
      <!-- 0.2 -->
      <g transform="translate(381.4576 257.762381) scale(0.1 -0.1)">
       <use xlink:href="#Calibri-30"/>
       <use xlink:href="#Calibri-2e" x="50.683594"/>
       <use xlink:href="#Calibri-32" x="75.927734"/>
      </g>
     </g>
    </g>
    <g id="ytick_12">
     <g id="line2d_23">
      <g>
       <use xlink:href="#m27341b9f75" x="374.4576" y="227.7504" style="stroke: #000000; stroke-width: 0.8"/>
      </g>
     </g>
     <g id="text_26">
      <!-- 0.3 -->
      <g transform="translate(381.4576 231.151181) scale(0.1 -0.1)">
       <use xlink:href="#Calibri-30"/>
       <use xlink:href="#Calibri-2e" x="50.683594"/>
       <use xlink:href="#Calibri-33" x="75.927734"/>
      </g>
     </g>
    </g>
    <g id="ytick_13">
     <g id="line2d_24">
      <g>
       <use xlink:href="#m27341b9f75" x="374.4576" y="201.1392" style="stroke: #000000; stroke-width: 0.8"/>
      </g>
     </g>
     <g id="text_27">
      <!-- 0.4 -->
      <g transform="translate(381.4576 204.539981) scale(0.1 -0.1)">
       <use xlink:href="#Calibri-30"/>
       <use xlink:href="#Calibri-2e" x="50.683594"/>
       <use xlink:href="#Calibri-34" x="75.927734"/>
      </g>
     </g>
    </g>
    <g id="ytick_14">
     <g id="line2d_25">
      <g>
       <use xlink:href="#m27341b9f75" x="374.4576" y="174.528" style="stroke: #000000; stroke-width: 0.8"/>
      </g>
     </g>
     <g id="text_28">
      <!-- 0.5 -->
      <g transform="translate(381.4576 177.928781) scale(0.1 -0.1)">
       <use xlink:href="#Calibri-30"/>
       <use xlink:href="#Calibri-2e" x="50.683594"/>
       <use xlink:href="#Calibri-35" x="75.927734"/>
      </g>
     </g>
    </g>
    <g id="ytick_15">
     <g id="line2d_26">
      <g>
       <use xlink:href="#m27341b9f75" x="374.4576" y="147.9168" style="stroke: #000000; stroke-width: 0.8"/>
      </g>
     </g>
     <g id="text_29">
      <!-- 0.6 -->
      <g transform="translate(381.4576 151.317581) scale(0.1 -0.1)">
       <use xlink:href="#Calibri-30"/>
       <use xlink:href="#Calibri-2e" x="50.683594"/>
       <use xlink:href="#Calibri-36" x="75.927734"/>
      </g>
     </g>
    </g>
    <g id="ytick_16">
     <g id="line2d_27">
      <g>
       <use xlink:href="#m27341b9f75" x="374.4576" y="121.3056" style="stroke: #000000; stroke-width: 0.8"/>
      </g>
     </g>
     <g id="text_30">
      <!-- 0.7 -->
      <g transform="translate(381.4576 124.706381) scale(0.1 -0.1)">
       <use xlink:href="#Calibri-30"/>
       <use xlink:href="#Calibri-2e" x="50.683594"/>
       <use xlink:href="#Calibri-37" x="75.927734"/>
      </g>
     </g>
    </g>
    <g id="ytick_17">
     <g id="line2d_28">
      <g>
       <use xlink:href="#m27341b9f75" x="374.4576" y="94.6944" style="stroke: #000000; stroke-width: 0.8"/>
      </g>
     </g>
     <g id="text_31">
      <!-- 0.8 -->
      <g transform="translate(381.4576 98.095181) scale(0.1 -0.1)">
       <use xlink:href="#Calibri-30"/>
       <use xlink:href="#Calibri-2e" x="50.683594"/>
       <use xlink:href="#Calibri-38" x="75.927734"/>
      </g>
     </g>
    </g>
    <g id="ytick_18">
     <g id="line2d_29">
      <g>
       <use xlink:href="#m27341b9f75" x="374.4576" y="68.0832" style="stroke: #000000; stroke-width: 0.8"/>
      </g>
     </g>
     <g id="text_32">
      <!-- 0.9 -->
      <g transform="translate(381.4576 71.483981) scale(0.1 -0.1)">
       <use xlink:href="#Calibri-30"/>
       <use xlink:href="#Calibri-2e" x="50.683594"/>
       <use xlink:href="#Calibri-39" x="75.927734"/>
      </g>
     </g>
    </g>
    <g id="ytick_19">
     <g id="line2d_30">
      <g>
       <use xlink:href="#m27341b9f75" x="374.4576" y="41.472" style="stroke: #000000; stroke-width: 0.8"/>
      </g>
     </g>
     <g id="text_33">
      <!-- 1.0 -->
      <g transform="translate(381.4576 44.872781) scale(0.1 -0.1)">
       <use xlink:href="#Calibri-31"/>
       <use xlink:href="#Calibri-2e" x="50.683594"/>
       <use xlink:href="#Calibri-30" x="75.927734"/>
      </g>
     </g>
    </g>
   </g>
   <g id="LineCollection_1"/>
   <g id="patch_8">
    <path d="M 361.152 307.584 
L 367.8048 307.584 
L 374.4576 307.584 
L 374.4576 41.472 
L 367.8048 41.472 
L 361.152 41.472 
L 361.152 307.584 
z
" style="fill: none; stroke: #000000; stroke-width: 0.8; stroke-linejoin: miter; stroke-linecap: square"/>
   </g>
   <g id="text_34">
    <!-- $\mathit{E}_{\mathrm{dis}}$/$\mathit{E}_{\mathrm{i}}$ -->
    <g transform="translate(353.2548 35.472) scale(0.1 -0.1)">
     <defs>
      <path id="DejaVuSans-Oblique-45" d="M 1081 4666 
L 4031 4666 
L 3928 4134 
L 1606 4134 
L 1338 2753 
L 3566 2753 
L 3463 2222 
L 1234 2222 
L 909 531 
L 3284 531 
L 3181 0 
L 172 0 
L 1081 4666 
z
" transform="scale(0.015625)"/>
      <path id="DejaVuSans-64" d="M 2906 2969 
L 2906 4863 
L 3481 4863 
L 3481 0 
L 2906 0 
L 2906 525 
Q 2725 213 2448 61 
Q 2172 -91 1784 -91 
Q 1150 -91 751 415 
Q 353 922 353 1747 
Q 353 2572 751 3078 
Q 1150 3584 1784 3584 
Q 2172 3584 2448 3432 
Q 2725 3281 2906 2969 
z
M 947 1747 
Q 947 1113 1208 752 
Q 1469 391 1925 391 
Q 2381 391 2643 752 
Q 2906 1113 2906 1747 
Q 2906 2381 2643 2742 
Q 2381 3103 1925 3103 
Q 1469 3103 1208 2742 
Q 947 2381 947 1747 
z
" transform="scale(0.015625)"/>
      <path id="DejaVuSans-69" d="M 603 3500 
L 1178 3500 
L 1178 0 
L 603 0 
L 603 3500 
z
M 603 4863 
L 1178 4863 
L 1178 4134 
L 603 4134 
L 603 4863 
z
" transform="scale(0.015625)"/>
      <path id="DejaVuSans-73" d="M 2834 3397 
L 2834 2853 
Q 2591 2978 2328 3040 
Q 2066 3103 1784 3103 
Q 1356 3103 1142 2972 
Q 928 2841 928 2578 
Q 928 2378 1081 2264 
Q 1234 2150 1697 2047 
L 1894 2003 
Q 2506 1872 2764 1633 
Q 3022 1394 3022 966 
Q 3022 478 2636 193 
Q 2250 -91 1575 -91 
Q 1294 -91 989 -36 
Q 684 19 347 128 
L 347 722 
Q 666 556 975 473 
Q 1284 391 1588 391 
Q 1994 391 2212 530 
Q 2431 669 2431 922 
Q 2431 1156 2273 1281 
Q 2116 1406 1581 1522 
L 1381 1569 
Q 847 1681 609 1914 
Q 372 2147 372 2553 
Q 372 3047 722 3315 
Q 1072 3584 1716 3584 
Q 2034 3584 2315 3537 
Q 2597 3491 2834 3397 
z
" transform="scale(0.015625)"/>
     </defs>
     <use xlink:href="#DejaVuSans-Oblique-45" transform="translate(0 0.09375)"/>
     <use xlink:href="#DejaVuSans-64" transform="translate(63.183594 -16.3125) scale(0.7)"/>
     <use xlink:href="#DejaVuSans-69" transform="translate(107.617188 -16.3125) scale(0.7)"/>
     <use xlink:href="#DejaVuSans-73" transform="translate(127.06543 -16.3125) scale(0.7)"/>
     <use xlink:href="#Calibri-2f" transform="translate(166.269531 0.09375)"/>
     <use xlink:href="#DejaVuSans-Oblique-45" transform="translate(204.892578 0.09375)"/>
     <use xlink:href="#DejaVuSans-69" transform="translate(268.076172 -16.3125) scale(0.7)"/>
    </g>
   </g>
  </g>
 </g>
 <defs>
  <clipPath id="p471cdffd15">
   <rect x="57.6" y="41.472" width="285.696" height="266.112"/>
  </clipPath>
  <clipPath id="pfe78afa701">
   <rect x="361.152" y="41.472" width="13.3056" height="266.112"/>
  </clipPath>
 </defs>
</svg>
