<?xml version="1.0" encoding="utf-8" standalone="no"?>
<!DOCTYPE svg PUBLIC "-//W3C//DTD SVG 1.1//EN"
  "http://www.w3.org/Graphics/SVG/1.1/DTD/svg11.dtd">
<svg xmlns:xlink="http://www.w3.org/1999/xlink" width="460.8pt" height="345.6pt" viewBox="0 0 460.8 345.6" xmlns="http://www.w3.org/2000/svg" version="1.1">
 <metadata>
  <rdf:RDF xmlns:dc="http://purl.org/dc/elements/1.1/" xmlns:cc="http://creativecommons.org/ns#" xmlns:rdf="http://www.w3.org/1999/02/22-rdf-syntax-ns#">
   <cc:Work>
    <dc:type rdf:resource="http://purl.org/dc/dcmitype/StillImage"/>
    <dc:date>2024-01-22T08:52:39.152136</dc:date>
    <dc:format>image/svg+xml</dc:format>
    <dc:creator>
     <cc:Agent>
      <dc:title>Matplotlib v3.7.1, https://matplotlib.org/</dc:title>
     </cc:Agent>
    </dc:creator>
   </cc:Work>
  </rdf:RDF>
 </metadata>
 <defs>
  <style type="text/css">*{stroke-linejoin: round; stroke-linecap: butt}</style>
 </defs>
 <g id="figure_1">
  <g id="patch_1">
   <path d="M 0 345.6 
L 460.8 345.6 
L 460.8 0 
L 0 0 
z
" style="fill: #ffffff"/>
  </g>
  <g id="axes_1">
   <g id="patch_2">
    <path d="M 57.6 307.584 
L 343.296 307.584 
L 343.296 41.472 
L 57.6 41.472 
z
" style="fill: #ffffff"/>
   </g>
   <g id="PathCollection_1">
    <path clip-path="url(#pcfdd96fd12)" style="fill: #0000b6"/>
   </g>
   <g id="PathCollection_2">
    <path clip-path="url(#pcfdd96fd12)" style="fill: #0018ff"/>
   </g>
   <g id="PathCollection_3">
    <path clip-path="url(#pcfdd96fd12)" style="fill: #0080ff"/>
   </g>
   <g id="PathCollection_4">
    <path d="M 57.62857 57.379483 
L 57.785552 57.276635 
L 58.54626 56.781 
L 60.091129 55.75188 
L 60.17067 55.698494 
L 60.530012 55.458969 
L 61.533727 54.7776 
L 61.912918 54.518268 
L 62.951553 53.80332 
L 63.198629 53.63194 
L 63.326895 53.54105 
L 64.02739 53.053268 
L 64.747078 52.542859 
L 65.504467 52.01299 
L 66.290503 51.4512 
L 66.713018 51.146446 
L 66.847385 51.047782 
L 67.796048 50.362919 
L 69.301394 49.253176 
L 69.389109 49.189354 
L 69.510982 49.09908 
L 69.813439 48.875979 
L 70.813586 48.1248 
L 71.10118 47.907055 
L 72.094724 47.15052 
L 72.334942 46.966131 
L 72.47524 46.856241 
L 73.156515 46.33118 
L 73.984708 45.681883 
L 74.582143 45.219172 
L 75.114551 44.7984 
L 75.80812 44.245037 
L 76.056312 44.043683 
L 76.813952 43.438611 
L 78.032105 42.44628 
L 78.284754 42.238752 
L 78.80794 41.805135 
L 79.029484 41.622517 
L 79.210911 41.472 
L 78.960538 41.472 
L 77.436826 41.472 
L 75.913114 41.472 
L 74.389402 41.472 
L 72.86569 41.472 
L 71.341978 41.472 
L 69.818266 41.472 
L 68.294554 41.472 
L 66.770842 41.472 
L 65.24713 41.472 
L 63.723418 41.472 
L 62.199706 41.472 
L 60.675994 41.472 
L 59.152282 41.472 
L 57.62857 41.472 
L 57.62857 44.7984 
L 57.62857 48.1248 
L 57.62857 51.4512 
L 57.62857 54.7776 
" clip-path="url(#pcfdd96fd12)" style="fill: #00e4f8"/>
   </g>
   <g id="PathCollection_5">
    <path d="M 79.210911 41.472 
L 79.029484 41.622517 
L 78.80794 41.805135 
L 78.284754 42.238752 
L 78.032105 42.44628 
L 76.813952 43.438611 
L 76.056312 44.043683 
L 75.80812 44.245037 
L 75.114551 44.7984 
L 74.582143 45.219172 
L 73.984708 45.681883 
L 73.156515 46.33118 
L 72.47524 46.856241 
L 72.334942 46.966131 
L 72.094724 47.15052 
L 71.10118 47.907055 
L 70.813586 48.1248 
L 69.813439 48.875979 
L 69.510982 49.09908 
L 69.389109 49.189354 
L 69.301394 49.253176 
L 67.796048 50.362919 
L 66.847385 51.047782 
L 66.713018 51.146446 
L 66.290503 51.4512 
L 65.504467 52.01299 
L 64.747078 52.542859 
L 64.02739 53.053268 
L 63.326895 53.54105 
L 63.198629 53.63194 
L 62.951553 53.80332 
L 61.912918 54.518268 
L 61.533727 54.7776 
L 60.530012 55.458969 
L 60.17067 55.698494 
L 60.091129 55.75188 
L 58.54626 56.781 
L 57.785552 57.276635 
L 57.62857 57.379483 
L 57.62857 58.104 
L 57.62857 61.4304 
L 57.62857 64.7568 
L 57.62857 68.0832 
L 57.62857 71.4096 
L 57.62857 74.736 
L 57.62857 78.0624 
L 57.62857 81.3888 
L 57.62857 84.7152 
L 57.62857 88.0416 
L 57.62857 91.368 
L 57.62857 94.6944 
L 57.62857 98.0208 
L 57.62857 101.3472 
L 57.62857 104.6736 
L 57.62857 107.582283 
L 57.851827 107.51261 
L 58.41696 107.335074 
L 59.38424 107.02572 
L 60.121139 106.788702 
L 60.285081 106.733885 
L 61.021789 106.496097 
L 61.426975 106.36054 
L 62.7727 105.924497 
L 63.534785 105.66778 
L 63.890127 105.552232 
L 65.018937 105.171764 
L 65.415954 105.042159 
L 66.501864 104.6736 
L 66.754454 104.587229 
L 66.789589 104.574792 
L 68.051516 104.143026 
L 68.632067 103.936778 
L 69.614249 103.598343 
L 70.051902 103.442231 
L 70.678903 103.226048 
L 72.265204 102.658114 
L 72.469797 102.587067 
L 73.208578 102.32148 
L 73.381609 102.258512 
L 74.819786 101.736382 
L 75.025878 101.661975 
L 75.876936 101.3472 
L 76.98232 100.936206 
L 78.476653 100.37292 
L 78.508687 100.360769 
L 78.517192 100.357426 
L 79.344138 100.042543 
L 79.605191 99.939863 
L 81.101239 99.367742 
L 81.805337 99.088722 
L 82.18307 98.943701 
L 83.314454 98.495011 
L 83.683677 98.352637 
L 84.514112 98.0208 
L 85.016952 97.818239 
L 85.1004 97.783554 
L 86.256855 97.317315 
L 87.053663 96.98478 
L 87.845221 96.663191 
L 88.404917 96.428558 
L 88.819879 96.259827 
L 90.224266 95.66868 
L 90.550896 95.53028 
L 92.499003 94.6944 
L 92.592422 94.654082 
L 92.617236 94.64312 
L 92.837727 94.546299 
L 94.212003 93.947929 
L 94.670078 93.743754 
L 94.723424 93.72012 
L 96.44669 92.951439 
L 96.992368 92.699915 
L 97.458201 92.491236 
L 98.467611 92.025509 
L 98.967008 91.80072 
L 99.897275 91.368 
L 100.260198 91.197726 
L 100.331328 91.163386 
L 101.476194 90.625698 
L 102.350414 90.201802 
L 103.055321 89.867986 
L 103.33993 89.72634 
L 103.33993 88.0416 
L 103.33993 84.7152 
L 103.33993 81.3888 
L 103.33993 78.0624 
L 103.33993 74.736 
L 103.33993 71.4096 
L 103.33993 68.0832 
L 103.33993 64.7568 
L 103.33993 61.4304 
L 103.33993 58.104 
L 103.33993 54.7776 
L 103.33993 51.4512 
L 103.33993 48.1248 
L 103.33993 44.7984 
L 103.33993 41.472 
L 101.816218 41.472 
L 100.292506 41.472 
L 98.768794 41.472 
L 97.245082 41.472 
L 95.72137 41.472 
L 94.197658 41.472 
L 92.673946 41.472 
L 91.150234 41.472 
L 89.626522 41.472 
L 88.10281 41.472 
L 86.579098 41.472 
L 85.055386 41.472 
L 83.531674 41.472 
L 82.007962 41.472 
L 80.48425 41.472 
" clip-path="url(#pcfdd96fd12)" style="fill: #53ffa4"/>
   </g>
   <g id="PathCollection_6">
    <path d="M 103.33993 89.72634 
L 103.055321 89.867986 
L 102.350414 90.201802 
L 101.476194 90.625698 
L 100.331328 91.163386 
L 100.260198 91.197726 
L 99.897275 91.368 
L 98.967008 91.80072 
L 98.467611 92.025509 
L 97.458201 92.491236 
L 96.992368 92.699915 
L 96.44669 92.951439 
L 94.723424 93.72012 
L 94.670078 93.743754 
L 94.212003 93.947929 
L 92.837727 94.546299 
L 92.617236 94.64312 
L 92.592422 94.654082 
L 92.499003 94.6944 
L 90.550896 95.53028 
L 90.224266 95.66868 
L 88.819879 96.259827 
L 88.404917 96.428558 
L 87.845221 96.663191 
L 87.053663 96.98478 
L 86.256855 97.317315 
L 85.1004 97.783554 
L 85.016952 97.818239 
L 84.514112 98.0208 
L 83.683677 98.352637 
L 83.314454 98.495011 
L 82.18307 98.943701 
L 81.805337 99.088722 
L 81.101239 99.367742 
L 79.605191 99.939863 
L 79.344138 100.042543 
L 78.517192 100.357426 
L 78.508687 100.360769 
L 78.476653 100.37292 
L 76.98232 100.936206 
L 75.876936 101.3472 
L 75.025878 101.661975 
L 74.819786 101.736382 
L 73.381609 102.258512 
L 73.208578 102.32148 
L 72.469797 102.587067 
L 72.265204 102.658114 
L 70.678903 103.226048 
L 70.051902 103.442231 
L 69.614249 103.598343 
L 68.632067 103.936778 
L 68.051516 104.143026 
L 66.789589 104.574792 
L 66.754454 104.587229 
L 66.501864 104.6736 
L 65.415954 105.042159 
L 65.018937 105.171764 
L 63.890127 105.552232 
L 63.534785 105.66778 
L 62.7727 105.924497 
L 61.426975 106.36054 
L 61.021789 106.496097 
L 60.285081 106.733885 
L 60.121139 106.788702 
L 59.38424 107.02572 
L 58.41696 107.335074 
L 57.851827 107.51261 
L 57.62857 107.582283 
L 57.62857 108 
L 57.62857 111.3264 
L 57.62857 114.6528 
L 57.62857 117.9792 
L 57.62857 121.3056 
L 57.62857 124.632 
L 57.62857 127.9584 
L 57.62857 131.2848 
L 57.62857 134.6112 
L 57.62857 137.9376 
L 57.62857 141.264 
L 57.62857 144.5904 
L 57.62857 147.9168 
L 57.62857 151.2432 
L 57.62857 151.244547 
L 57.628822 151.24453 
L 57.644197 151.2432 
L 59.09453 151.117124 
L 59.215446 151.105307 
L 60.626459 150.982133 
L 60.727403 150.972251 
L 62.023832 150.859251 
L 62.392121 150.823139 
L 63.623269 150.715375 
L 63.82737 150.695327 
L 64.951177 150.597108 
L 65.571017 150.536126 
L 66.619227 150.444122 
L 66.928235 150.413667 
L 67.876505 150.330562 
L 68.752201 150.244114 
L 69.614305 150.168234 
L 70.030027 150.127121 
L 70.799754 150.059476 
L 71.935749 149.946944 
L 72.608475 149.887566 
L 73.132776 149.835534 
L 73.720857 149.783707 
L 75.121736 149.644449 
L 75.60171 149.601963 
L 76.236513 149.538742 
L 76.639747 149.503105 
L 78.310242 149.336455 
L 78.593978 149.311266 
L 79.341269 149.236577 
L 79.556351 149.217513 
L 81.50135 149.022778 
L 81.585247 149.015308 
L 82.447079 148.928858 
L 82.470594 148.926767 
L 82.825736 148.89108 
L 84.430013 148.729137 
L 85.074078 148.661121 
L 85.842508 148.582873 
L 87.167246 148.448642 
L 87.57206 148.407879 
L 89.285215 148.225432 
L 89.898809 148.16302 
L 90.086101 148.144089 
L 92.211526 147.9168 
L 92.624892 147.872443 
L 92.736884 147.859887 
L 95.094816 147.606932 
L 95.347085 147.578348 
L 96.202141 147.482055 
L 96.717131 147.424337 
L 98.0631 147.278666 
L 99.67631 147.096164 
L 100.649713 146.986574 
L 100.772722 146.973203 
L 101.042688 146.94252 
L 102.801612 146.741604 
L 102.934974 146.724694 
L 103.33993 146.675414 
L 103.33993 144.5904 
L 103.33993 141.264 
L 103.33993 137.9376 
L 103.33993 134.6112 
L 103.33993 131.2848 
L 103.33993 127.9584 
L 103.33993 124.632 
L 103.33993 121.3056 
L 103.33993 117.9792 
L 103.33993 114.6528 
L 103.33993 111.3264 
L 103.33993 108 
L 103.33993 104.6736 
L 103.33993 101.3472 
L 103.33993 98.0208 
L 103.33993 94.6944 
L 103.33993 91.368 
" clip-path="url(#pcfdd96fd12)" style="fill: #a4ff53"/>
   </g>
   <g id="PathCollection_7">
    <path d="M 103.33993 146.675414 
L 102.934974 146.724694 
L 102.801612 146.741604 
L 101.042688 146.94252 
L 100.772722 146.973203 
L 100.649713 146.986574 
L 99.67631 147.096164 
L 98.0631 147.278666 
L 96.717131 147.424337 
L 96.202141 147.482055 
L 95.347085 147.578348 
L 95.094816 147.606932 
L 92.736884 147.859887 
L 92.624892 147.872443 
L 92.211526 147.9168 
L 90.086101 148.144089 
L 89.898809 148.16302 
L 89.285215 148.225432 
L 87.57206 148.407879 
L 87.167246 148.448642 
L 85.842508 148.582873 
L 85.074078 148.661121 
L 84.430013 148.729137 
L 82.825736 148.89108 
L 82.470594 148.926767 
L 82.447079 148.928858 
L 81.585247 149.015308 
L 81.50135 149.022778 
L 79.556351 149.217513 
L 79.341269 149.236577 
L 78.593978 149.311266 
L 78.310242 149.336455 
L 76.639747 149.503105 
L 76.236513 149.538742 
L 75.60171 149.601963 
L 75.121736 149.644449 
L 73.720857 149.783707 
L 73.132776 149.835534 
L 72.608475 149.887566 
L 71.935749 149.946944 
L 70.799754 150.059476 
L 70.030027 150.127121 
L 69.614305 150.168234 
L 68.752201 150.244114 
L 67.876505 150.330562 
L 66.928235 150.413667 
L 66.619227 150.444122 
L 65.571017 150.536126 
L 64.951177 150.597108 
L 63.82737 150.695327 
L 63.623269 150.715375 
L 62.392121 150.823139 
L 62.023832 150.859251 
L 60.727403 150.972251 
L 60.626459 150.982133 
L 59.215446 151.105307 
L 59.09453 151.117124 
L 57.644197 151.2432 
L 57.628822 151.24453 
L 57.62857 151.244547 
L 57.62857 154.5696 
L 57.62857 157.896 
L 57.62857 161.2224 
L 57.62857 164.5488 
L 57.62857 167.8752 
L 57.62857 171.2016 
L 57.62857 174.528 
L 57.62857 177.8544 
L 57.62857 181.1808 
L 57.62857 184.5072 
L 57.62857 187.8336 
L 57.62857 191.086274 
L 57.642358 191.087327 
L 58.522516 191.16 
L 59.129395 191.209964 
L 59.177182 191.214359 
L 60.642563 191.336194 
L 60.71062 191.342498 
L 62.064304 191.455595 
L 62.347196 191.481984 
L 63.641602 191.591204 
L 63.808203 191.606856 
L 64.996294 191.707597 
L 65.520696 191.75722 
L 66.639349 191.853023 
L 66.907177 191.87855 
L 67.925274 191.96617 
L 68.697806 192.040336 
L 69.635762 192.121874 
L 70.007591 192.157829 
L 70.851148 192.231525 
L 71.878653 192.331611 
L 72.630797 192.397989 
L 73.109494 192.444959 
L 73.773816 192.503879 
L 75.063374 192.631343 
L 75.624407 192.681612 
L 76.212939 192.740214 
L 76.693173 192.78346 
L 78.25211 192.939839 
L 78.616545 192.972996 
L 79.31798 193.043882 
L 79.609112 193.070504 
L 81.445009 193.257425 
L 81.607159 193.272407 
L 82.424675 193.356266 
L 82.521518 193.365259 
L 83.942484 193.51212 
L 84.54089 193.5738 
L 84.787589 193.600393 
L 85.705392 193.696339 
L 87.271575 193.860217 
L 87.744968 193.909808 
L 89.160863 194.065321 
L 89.99427 194.153858 
L 92.582926 194.441386 
L 92.629745 194.446431 
L 92.708724 194.454951 
L 92.9876 194.4864 
L 95.417686 194.76101 
L 96.116153 194.843389 
L 97.684505 195.022645 
L 98.118377 195.074549 
L 99.617771 195.254101 
L 100.546015 195.365341 
L 100.81018 195.396125 
L 101.341048 195.46068 
L 102.811965 195.638994 
L 102.930455 195.654685 
L 103.33993 195.702802 
L 103.33993 194.4864 
L 103.33993 191.16 
L 103.33993 187.8336 
L 103.33993 184.5072 
L 103.33993 181.1808 
L 103.33993 177.8544 
L 103.33993 174.528 
L 103.33993 171.2016 
L 103.33993 167.8752 
L 103.33993 164.5488 
L 103.33993 161.2224 
L 103.33993 157.896 
L 103.33993 154.5696 
L 103.33993 151.2432 
L 103.33993 147.9168 
" clip-path="url(#pcfdd96fd12)" style="fill: #f8f500"/>
   </g>
   <g id="PathCollection_8">
    <path d="M 103.33993 195.702802 
L 102.930455 195.654685 
L 102.811965 195.638994 
L 101.341048 195.46068 
L 100.81018 195.396125 
L 100.546015 195.365341 
L 99.617771 195.254101 
L 98.118377 195.074549 
L 97.684505 195.022645 
L 96.116153 194.843389 
L 95.417686 194.76101 
L 92.9876 194.4864 
L 92.708724 194.454951 
L 92.629745 194.446431 
L 92.582926 194.441386 
L 89.99427 194.153858 
L 89.160863 194.065321 
L 87.744968 193.909808 
L 87.271575 193.860217 
L 85.705392 193.696339 
L 84.787589 193.600393 
L 84.54089 193.5738 
L 83.942484 193.51212 
L 82.521518 193.365259 
L 82.424675 193.356266 
L 81.607159 193.272407 
L 81.445009 193.257425 
L 79.609112 193.070504 
L 79.31798 193.043882 
L 78.616545 192.972996 
L 78.25211 192.939839 
L 76.693173 192.78346 
L 76.212939 192.740214 
L 75.624407 192.681612 
L 75.063374 192.631343 
L 73.773816 192.503879 
L 73.109494 192.444959 
L 72.630797 192.397989 
L 71.878653 192.331611 
L 70.851148 192.231525 
L 70.007591 192.157829 
L 69.635762 192.121874 
L 68.697806 192.040336 
L 67.925274 191.96617 
L 66.907177 191.87855 
L 66.639349 191.853023 
L 65.520696 191.75722 
L 64.996294 191.707597 
L 63.808203 191.606856 
L 63.641602 191.591204 
L 62.347196 191.481984 
L 62.064304 191.455595 
L 60.71062 191.342498 
L 60.642563 191.336194 
L 59.177182 191.214359 
L 59.129395 191.209964 
L 58.522516 191.16 
L 57.642358 191.087327 
L 57.62857 191.086274 
L 57.62857 191.16 
L 57.62857 194.4864 
L 57.62857 197.8128 
L 57.62857 201.1392 
L 57.62857 204.4656 
L 57.62857 207.792 
L 57.62857 211.1184 
L 57.62857 214.4448 
L 57.62857 217.7712 
L 57.62857 221.0976 
L 57.62857 224.424 
L 57.62857 227.7504 
L 57.62857 229.116023 
L 57.986105 229.192432 
L 58.323378 229.267228 
L 59.832514 229.591791 
L 60.419093 229.722818 
L 60.91265 229.829518 
L 61.710239 230.008251 
L 62.600546 230.201729 
L 63.600199 230.427383 
L 63.836828 230.479077 
L 65.104875 230.766246 
L 65.363379 230.823018 
L 66.475759 231.0768 
L 66.758599 231.141323 
L 66.784232 231.147375 
L 68.121983 231.453537 
L 68.509228 231.545453 
L 69.678208 231.814963 
L 69.971607 231.884976 
L 70.87596 232.094158 
L 71.923069 232.345375 
L 72.595272 232.50202 
L 73.162047 232.638733 
L 73.624414 232.746836 
L 75.345605 233.164279 
L 75.509706 233.202936 
L 76.355663 233.40923 
L 76.367172 233.41195 
L 76.436378 233.42892 
L 78.071139 233.829613 
L 78.422433 233.915759 
L 80.371189 234.4032 
L 80.446358 234.42194 
L 80.459759 234.425346 
L 80.52791 234.44268 
L 82.464728 234.930868 
L 82.841139 235.027626 
L 84.201436 235.37748 
L 84.566154 235.471237 
L 84.630118 235.488252 
L 85.440887 235.697836 
L 85.677325 235.760949 
L 87.28897 236.179885 
L 87.836731 236.327245 
L 88.343741 236.459783 
L 89.143799 236.675772 
L 90.00548 236.9023 
L 91.047038 237.185714 
L 91.24357 237.237676 
L 92.620895 237.613787 
L 92.715476 237.638936 
L 93.044843 237.7296 
L 94.140492 238.030886 
L 94.261326 238.065161 
L 95.421061 238.385201 
L 96.111972 238.582319 
L 97.034593 238.838966 
L 97.479811 238.966729 
L 98.120213 239.14551 
L 99.615028 239.577007 
L 99.925409 239.66436 
L 100.70241 239.889976 
L 100.812392 239.921042 
L 101.362458 240.08172 
L 102.520073 240.419528 
L 103.13142 240.600806 
L 103.33993 240.661737 
L 103.33993 237.7296 
L 103.33993 234.4032 
L 103.33993 231.0768 
L 103.33993 227.7504 
L 103.33993 224.424 
L 103.33993 221.0976 
L 103.33993 217.7712 
L 103.33993 214.4448 
L 103.33993 211.1184 
L 103.33993 207.792 
L 103.33993 204.4656 
L 103.33993 201.1392 
L 103.33993 197.8128 
" clip-path="url(#pcfdd96fd12)" style="fill: #ff9400"/>
   </g>
   <g id="PathCollection_9">
    <path d="M 103.33993 240.661737 
L 103.13142 240.600806 
L 102.520073 240.419528 
L 101.362458 240.08172 
L 100.812392 239.921042 
L 100.70241 239.889976 
L 99.925409 239.66436 
L 99.615028 239.577007 
L 98.120213 239.14551 
L 97.479811 238.966729 
L 97.034593 238.838966 
L 96.111972 238.582319 
L 95.421061 238.385201 
L 94.261326 238.065161 
L 94.140492 238.030886 
L 93.044843 237.7296 
L 92.715476 237.638936 
L 92.620895 237.613787 
L 91.24357 237.237676 
L 91.047038 237.185714 
L 90.00548 236.9023 
L 89.143799 236.675772 
L 88.343741 236.459783 
L 87.836731 236.327245 
L 87.28897 236.179885 
L 85.677325 235.760949 
L 85.440887 235.697836 
L 84.630118 235.488252 
L 84.566154 235.471237 
L 84.201436 235.37748 
L 82.841139 235.027626 
L 82.464728 234.930868 
L 80.52791 234.44268 
L 80.459759 234.425346 
L 80.446358 234.42194 
L 80.371189 234.4032 
L 78.422433 233.915759 
L 78.071139 233.829613 
L 76.436378 233.42892 
L 76.367172 233.41195 
L 76.355663 233.40923 
L 75.509706 233.202936 
L 75.345605 233.164279 
L 73.624414 232.746836 
L 73.162047 232.638733 
L 72.595272 232.50202 
L 71.923069 232.345375 
L 70.87596 232.094158 
L 69.971607 231.884976 
L 69.678208 231.814963 
L 68.509228 231.545453 
L 68.121983 231.453537 
L 66.784232 231.147375 
L 66.758599 231.141323 
L 66.475759 231.0768 
L 65.363379 230.823018 
L 65.104875 230.766246 
L 63.836828 230.479077 
L 63.600199 230.427383 
L 62.600546 230.201729 
L 61.710239 230.008251 
L 60.91265 229.829518 
L 60.419093 229.722818 
L 59.832514 229.591791 
L 58.323378 229.267228 
L 57.986105 229.192432 
L 57.62857 229.116023 
L 57.62857 231.0768 
L 57.62857 234.4032 
L 57.62857 237.7296 
L 57.62857 241.056 
L 57.62857 244.3824 
L 57.62857 247.7088 
L 57.62857 251.0352 
L 57.62857 254.3616 
L 57.62857 257.688 
L 57.62857 261.0144 
L 57.62857 264.3408 
L 57.62857 267.353725 
L 57.753719 267.393987 
L 58.581914 267.6672 
L 58.999622 267.805245 
L 59.4834 267.966619 
L 60.327479 268.248405 
L 61.225944 268.547739 
L 61.504437 268.64148 
L 63.039715 269.159783 
L 63.398888 269.283186 
L 64.008708 269.489994 
L 64.661439 269.714984 
L 65.674712 270.06015 
L 66.658453 270.401265 
L 66.869525 270.473497 
L 68.281286 270.964636 
L 68.304211 270.972517 
L 68.364449 270.9936 
L 69.72738 271.472606 
L 69.92236 271.542222 
L 70.928215 271.896881 
L 71.918469 272.252132 
L 72.582227 272.487574 
L 73.190768 272.706905 
L 73.54659 272.833534 
L 74.960816 273.34572 
L 75.321857 273.476813 
L 76.908892 274.058905 
L 77.310908 274.206137 
L 77.490105 274.271821 
L 77.515434 274.281123 
L 77.620211 274.32 
L 79.650506 275.073926 
L 80.237907 275.29428 
L 81.367155 275.718939 
L 81.663768 275.832345 
L 82.306101 276.075073 
L 82.919753 276.310523 
L 83.962279 276.706351 
L 84.949336 277.087469 
L 85.147117 277.162934 
L 86.394789 277.6464 
L 86.551228 277.707241 
L 86.61929 277.734143 
L 87.984771 278.268518 
L 88.240091 278.369934 
L 89.134241 278.721093 
L 90.33916 279.202153 
L 90.819061 279.391826 
L 91.535985 279.679483 
L 91.710881 279.748855 
L 92.329892 279.99852 
L 93.312306 280.395553 
L 94.72619 280.9728 
L 95.411302 281.253184 
L 96.553769 281.72551 
L 97.089199 281.94708 
L 97.647273 282.179474 
L 97.833938 282.258326 
L 99.402873 282.914947 
L 100.084888 283.204965 
L 100.469427 283.366746 
L 101.612631 283.854753 
L 101.953732 283.998993 
L 102.652262 284.2992 
L 103.28794 284.573209 
L 103.33993 284.59613 
L 103.33993 284.2992 
L 103.33993 280.9728 
L 103.33993 277.6464 
L 103.33993 274.32 
L 103.33993 270.9936 
L 103.33993 267.6672 
L 103.33993 264.3408 
L 103.33993 261.0144 
L 103.33993 257.688 
L 103.33993 254.3616 
L 103.33993 251.0352 
L 103.33993 247.7088 
L 103.33993 244.3824 
L 103.33993 241.056 
" clip-path="url(#pcfdd96fd12)" style="fill: #ff3800"/>
   </g>
   <g id="PathCollection_10">
    <path d="M 103.33993 284.59613 
L 103.28794 284.573209 
L 102.652262 284.2992 
L 101.953732 283.998993 
L 101.612631 283.854753 
L 100.469427 283.366746 
L 100.084888 283.204965 
L 99.402873 282.914947 
L 97.833938 282.258326 
L 97.647273 282.179474 
L 97.089199 281.94708 
L 96.553769 281.72551 
L 95.411302 281.253184 
L 94.72619 280.9728 
L 93.312306 280.395553 
L 92.329892 279.99852 
L 91.710881 279.748855 
L 91.535985 279.679483 
L 90.819061 279.391826 
L 90.33916 279.202153 
L 89.134241 278.721093 
L 88.240091 278.369934 
L 87.984771 278.268518 
L 86.61929 277.734143 
L 86.551228 277.707241 
L 86.394789 277.6464 
L 85.147117 277.162934 
L 84.949336 277.087469 
L 83.962279 276.706351 
L 82.919753 276.310523 
L 82.306101 276.075073 
L 81.663768 275.832345 
L 81.367155 275.718939 
L 80.237907 275.29428 
L 79.650506 275.073926 
L 77.620211 274.32 
L 77.515434 274.281123 
L 77.490105 274.271821 
L 77.310908 274.206137 
L 76.908892 274.058905 
L 75.321857 273.476813 
L 74.960816 273.34572 
L 73.54659 272.833534 
L 73.190768 272.706905 
L 72.582227 272.487574 
L 71.918469 272.252132 
L 70.928215 271.896881 
L 69.92236 271.542222 
L 69.72738 271.472606 
L 68.364449 270.9936 
L 68.304211 270.972517 
L 68.281286 270.964636 
L 66.869525 270.473497 
L 66.658453 270.401265 
L 65.674712 270.06015 
L 64.661439 269.714984 
L 64.008708 269.489994 
L 63.398888 269.283186 
L 63.039715 269.159783 
L 61.504437 268.64148 
L 61.225944 268.547739 
L 60.327479 268.248405 
L 59.4834 267.966619 
L 58.999622 267.805245 
L 58.581914 267.6672 
L 57.753719 267.393987 
L 57.62857 267.353725 
L 57.62857 267.6672 
L 57.62857 270.9936 
L 57.62857 274.32 
L 57.62857 277.6464 
L 57.62857 280.9728 
L 57.62857 284.2992 
L 57.62857 287.6256 
L 57.62857 290.952 
L 57.62857 294.2784 
L 57.62857 297.6048 
L 57.62857 300.9312 
L 57.62857 304.2576 
L 57.62857 307.584 
L 59.152282 307.584 
L 60.675994 307.584 
L 62.199706 307.584 
L 63.723418 307.584 
L 65.24713 307.584 
L 66.770842 307.584 
L 68.294554 307.584 
L 69.818266 307.584 
L 71.341978 307.584 
L 72.86569 307.584 
L 74.389402 307.584 
L 75.913114 307.584 
L 77.436826 307.584 
L 78.960538 307.584 
L 80.48425 307.584 
L 82.007962 307.584 
L 83.531674 307.584 
L 85.055386 307.584 
L 86.579098 307.584 
L 88.10281 307.584 
L 89.626522 307.584 
L 91.150234 307.584 
L 92.673946 307.584 
L 94.197658 307.584 
L 95.72137 307.584 
L 97.245082 307.584 
L 98.768794 307.584 
L 100.292506 307.584 
L 101.816218 307.584 
L 103.33993 307.584 
L 103.33993 304.2576 
L 103.33993 300.9312 
L 103.33993 297.6048 
L 103.33993 294.2784 
L 103.33993 290.952 
L 103.33993 287.6256 
" clip-path="url(#pcfdd96fd12)" style="fill: #b60000"/>
   </g>
   <g id="PathCollection_11">
    <path clip-path="url(#pcfdd96fd12)" style="fill: #0000b6"/>
   </g>
   <g id="PathCollection_12">
    <path clip-path="url(#pcfdd96fd12)" style="fill: #0018ff"/>
   </g>
   <g id="PathCollection_13">
    <path clip-path="url(#pcfdd96fd12)" style="fill: #0080ff"/>
   </g>
   <g id="PathCollection_14">
    <path clip-path="url(#pcfdd96fd12)" style="fill: #00e4f8"/>
   </g>
   <g id="PathCollection_15">
    <path d="M 100.4544 91.073095 
L 102.149232 90.307775 
L 106.423341 88.153483 
L 109.377989 86.732295 
L 111.100313 85.824 
L 115.701912 83.332076 
L 118.114974 81.932031 
L 120.166338 80.813642 
L 122.289731 79.55168 
L 125.764464 77.419264 
L 126.516064 76.9536 
L 127.555133 76.254388 
L 130.498976 74.35552 
L 134.244507 71.816681 
L 139.433261 68.0832 
L 140.324826 67.422227 
L 144.755704 63.888705 
L 146.824855 62.268623 
L 147.377847 61.81088 
L 148.34955 61.055195 
L 150.511515 59.2128 
L 152.704191 57.209601 
L 153.360848 56.61472 
L 158.449386 51.80198 
L 159.892008 50.3424 
L 163.703862 46.352112 
L 165.787001 44.07008 
L 166.674049 43.073976 
L 168.085009 41.472 
L 165.21216 41.472 
L 157.11744 41.472 
L 149.02272 41.472 
L 140.928 41.472 
L 132.83328 41.472 
L 124.73856 41.472 
L 116.64384 41.472 
L 108.54912 41.472 
L 100.4544 41.472 
L 100.4544 50.3424 
L 100.4544 59.2128 
L 100.4544 68.0832 
L 100.4544 76.9536 
L 100.4544 85.824 
" clip-path="url(#pcfdd96fd12)" style="fill: #53ffa4"/>
   </g>
   <g id="PathCollection_16">
    <path d="M 168.085009 41.472 
L 166.674049 43.073976 
L 165.787001 44.07008 
L 163.703862 46.352112 
L 159.892008 50.3424 
L 158.449386 51.80198 
L 153.360848 56.61472 
L 152.704191 57.209601 
L 150.511515 59.2128 
L 148.34955 61.055195 
L 147.377847 61.81088 
L 146.824855 62.268623 
L 144.755704 63.888705 
L 140.324826 67.422227 
L 139.433261 68.0832 
L 134.244507 71.816681 
L 130.498976 74.35552 
L 127.555133 76.254388 
L 126.516064 76.9536 
L 125.764464 77.419264 
L 122.289731 79.55168 
L 120.166338 80.813642 
L 118.114974 81.932031 
L 115.701912 83.332076 
L 111.100313 85.824 
L 109.377989 86.732295 
L 106.423341 88.153483 
L 102.149232 90.307775 
L 100.4544 91.073095 
L 100.4544 94.6944 
L 100.4544 103.5648 
L 100.4544 112.4352 
L 100.4544 121.3056 
L 100.4544 130.176 
L 100.4544 139.0464 
L 100.4544 146.998909 
L 101.388227 146.893489 
L 105.348193 146.463881 
L 114.140669 145.378764 
L 114.399576 145.350155 
L 114.637694 145.31872 
L 118.813843 144.787265 
L 119.618366 144.657239 
L 128.777406 143.47227 
L 131.321763 143.045205 
L 134.201802 142.666902 
L 138.243257 141.988409 
L 143.028592 141.348282 
L 148.515412 140.388511 
L 149.480403 140.257227 
L 156.394682 139.0464 
L 157.015835 138.935058 
L 157.271186 138.877921 
L 164.626688 137.4975 
L 165.909235 137.202248 
L 170.786469 136.28447 
L 177.214208 134.76465 
L 179.604288 134.291508 
L 183.564359 133.324698 
L 184.16584 133.205124 
L 185.8785 132.77408 
L 191.832507 131.236409 
L 195.641939 130.176 
L 200.293021 128.837256 
L 201.695163 128.364645 
L 204.143918 127.57792 
L 209.725363 125.732299 
L 212.527735 124.619807 
L 214.744723 123.856559 
L 221.072049 121.3056 
L 221.654326 121.063561 
L 222.4535 120.671884 
L 228.669766 117.865968 
L 231.904053 116.188743 
L 232.953911 115.705134 
L 234.181729 115.03328 
L 238.447988 112.609204 
L 238.739292 112.4352 
L 240.432849 111.360256 
L 242.900567 109.83712 
L 243.46044 109.477655 
L 244.105326 108.998863 
L 247.371467 106.771497 
L 251.567637 103.5648 
L 253.126904 102.329612 
L 258.664677 97.29248 
L 259.087529 96.888331 
L 261.325922 94.6944 
L 263.269564 92.456312 
L 263.619555 92.09632 
L 264.390601 91.225701 
L 268.766832 85.824 
L 269.538309 84.832046 
L 273.171519 79.55168 
L 273.848269 78.499035 
L 274.27679 77.905207 
L 274.845591 76.9536 
L 275.486975 75.701566 
L 276.294804 74.35552 
L 279.021269 69.36108 
L 279.668233 68.0832 
L 282.077422 63.091125 
L 282.626915 61.81088 
L 282.995041 60.864072 
L 283.778441 59.2128 
L 284.052034 58.572087 
L 284.208 58.112097 
L 284.822488 56.61472 
L 286.998695 50.743181 
L 287.131232 50.3424 
L 287.390511 49.512257 
L 289.26937 44.07008 
L 289.64635 42.839795 
L 290.056746 41.472 
L 286.63296 41.472 
L 278.53824 41.472 
L 270.44352 41.472 
L 262.3488 41.472 
L 254.25408 41.472 
L 246.15936 41.472 
L 238.06464 41.472 
L 229.96992 41.472 
L 221.8752 41.472 
L 213.78048 41.472 
L 205.68576 41.472 
L 197.59104 41.472 
L 189.49632 41.472 
L 181.4016 41.472 
L 173.30688 41.472 
" clip-path="url(#pcfdd96fd12)" style="fill: #a4ff53"/>
   </g>
   <g id="PathCollection_17">
    <path d="M 290.056746 41.472 
L 289.64635 42.839795 
L 289.26937 44.07008 
L 287.390511 49.512257 
L 287.131232 50.3424 
L 286.998695 50.743181 
L 284.822488 56.61472 
L 284.208 58.112097 
L 284.052034 58.572087 
L 283.778441 59.2128 
L 282.995041 60.864072 
L 282.626915 61.81088 
L 282.077422 63.091125 
L 279.668233 68.0832 
L 279.021269 69.36108 
L 276.294804 74.35552 
L 275.486975 75.701566 
L 274.845591 76.9536 
L 274.27679 77.905207 
L 273.848269 78.499035 
L 273.171519 79.55168 
L 269.538309 84.832046 
L 268.766832 85.824 
L 264.390601 91.225701 
L 263.619555 92.09632 
L 263.269564 92.456312 
L 261.325922 94.6944 
L 259.087529 96.888331 
L 258.664677 97.29248 
L 253.126904 102.329612 
L 251.567637 103.5648 
L 247.371467 106.771497 
L 244.105326 108.998863 
L 243.46044 109.477655 
L 242.900567 109.83712 
L 240.432849 111.360256 
L 238.739292 112.4352 
L 238.447988 112.609204 
L 234.181729 115.03328 
L 232.953911 115.705134 
L 231.904053 116.188743 
L 228.669766 117.865968 
L 222.4535 120.671884 
L 221.654326 121.063561 
L 221.072049 121.3056 
L 214.744723 123.856559 
L 212.527735 124.619807 
L 209.725363 125.732299 
L 204.143918 127.57792 
L 201.695163 128.364645 
L 200.293021 128.837256 
L 195.641939 130.176 
L 191.832507 131.236409 
L 185.8785 132.77408 
L 184.16584 133.205124 
L 183.564359 133.324698 
L 179.604288 134.291508 
L 177.214208 134.76465 
L 170.786469 136.28447 
L 165.909235 137.202248 
L 164.626688 137.4975 
L 157.271186 138.877921 
L 157.015835 138.935058 
L 156.394682 139.0464 
L 149.480403 140.257227 
L 148.515412 140.388511 
L 143.028592 141.348282 
L 138.243257 141.988409 
L 134.201802 142.666902 
L 131.321763 143.045205 
L 128.777406 143.47227 
L 119.618366 144.657239 
L 118.813843 144.787265 
L 114.637694 145.31872 
L 114.399576 145.350155 
L 114.140669 145.378764 
L 105.348193 146.463881 
L 101.388227 146.893489 
L 100.4544 146.998909 
L 100.4544 147.9168 
L 100.4544 156.7872 
L 100.4544 165.6576 
L 100.4544 174.528 
L 100.4544 183.3984 
L 100.4544 192.2688 
L 100.4544 195.337643 
L 101.679323 195.509404 
L 105.241377 195.893509 
L 112.825242 196.954683 
L 114.787784 197.179101 
L 118.716443 197.751988 
L 119.636117 197.860187 
L 124.110165 198.54112 
L 128.879531 199.259589 
L 140.033069 201.1392 
L 140.682778 201.250508 
L 141.527839 201.41147 
L 143.672678 201.820564 
L 152.125311 203.405156 
L 153.716406 203.73728 
L 161.395981 205.321066 
L 163.652143 205.882486 
L 166.536297 206.506522 
L 171.200267 207.70112 
L 174.689436 208.49456 
L 180.201828 210.0096 
L 181.290554 210.303378 
L 181.542434 210.382185 
L 187.614172 212.072106 
L 192.999607 213.848591 
L 195.81974 214.695675 
L 199.900101 216.118351 
L 200.06455 216.169465 
L 200.368678 216.28192 
L 206.4949 218.512727 
L 207.412459 218.88 
L 212.984046 221.087223 
L 213.851239 221.47808 
L 215.838176 222.306648 
L 217.719474 223.19645 
L 223.632108 225.825135 
L 227.33919 227.7504 
L 229.546386 228.870883 
L 230.626912 229.488509 
L 234.57258 231.577089 
L 238.547285 234.02272 
L 240.795297 235.381339 
L 241.451826 235.779933 
L 242.656865 236.6208 
L 245.838737 238.709903 
L 246.510821 239.21888 
L 248.114041 240.319982 
L 252.847872 243.950241 
L 254.520095 245.199694 
L 254.855485 245.4912 
L 260.532233 250.29703 
L 262.084505 251.76352 
L 262.75392 252.452662 
L 264.791052 254.3616 
L 266.594456 256.108712 
L 267.377284 256.95968 
L 271.842312 261.699168 
L 273.080469 263.232 
L 276.832219 267.745375 
L 278.146289 269.50432 
L 278.623022 270.071844 
L 280.057937 272.1024 
L 281.128688 273.468832 
L 281.699887 274.34155 
L 281.927754 274.70048 
L 284.521796 278.659333 
L 286.072656 280.9728 
L 286.31405 281.32227 
L 289.802064 287.24512 
L 290.356414 288.153103 
L 291.227896 289.8432 
L 292.618558 292.376297 
L 292.646944 292.44128 
L 295.205369 297.449848 
L 295.781376 298.7136 
L 298.182141 303.798514 
L 298.64236 304.98592 
L 298.994965 305.846705 
L 299.758026 307.584 
L 302.8224 307.584 
L 310.91712 307.584 
L 319.01184 307.584 
L 327.10656 307.584 
L 335.20128 307.584 
L 343.296 307.584 
L 343.296 298.7136 
L 343.296 289.8432 
L 343.296 280.9728 
L 343.296 272.1024 
L 343.296 263.232 
L 343.296 254.3616 
L 343.296 245.4912 
L 343.296 236.6208 
L 343.296 227.7504 
L 343.296 218.88 
L 343.296 210.0096 
L 343.296 201.1392 
L 343.296 192.2688 
L 343.296 183.3984 
L 343.296 174.528 
L 343.296 165.6576 
L 343.296 156.7872 
L 343.296 147.9168 
L 343.296 139.0464 
L 343.296 130.176 
L 343.296 121.3056 
L 343.296 112.4352 
L 343.296 103.5648 
L 343.296 94.6944 
L 343.296 85.824 
L 343.296 76.9536 
L 343.296 68.0832 
L 343.296 59.2128 
L 343.296 50.3424 
L 343.296 41.472 
L 335.20128 41.472 
L 327.10656 41.472 
L 319.01184 41.472 
L 310.91712 41.472 
L 302.8224 41.472 
L 294.72768 41.472 
" clip-path="url(#pcfdd96fd12)" style="fill: #f8f500"/>
   </g>
   <g id="PathCollection_18">
    <path d="M 299.758026 307.584 
L 298.994965 305.846705 
L 298.64236 304.98592 
L 298.182141 303.798514 
L 295.781376 298.7136 
L 295.205369 297.449848 
L 292.646944 292.44128 
L 292.618558 292.376297 
L 291.227896 289.8432 
L 290.356414 288.153103 
L 289.802064 287.24512 
L 286.31405 281.32227 
L 286.072656 280.9728 
L 284.521796 278.659333 
L 281.927754 274.70048 
L 281.699887 274.34155 
L 281.128688 273.468832 
L 280.057937 272.1024 
L 278.623022 270.071844 
L 278.146289 269.50432 
L 276.832219 267.745375 
L 273.080469 263.232 
L 271.842312 261.699168 
L 267.377284 256.95968 
L 266.594456 256.108712 
L 264.791052 254.3616 
L 262.75392 252.452662 
L 262.084505 251.76352 
L 260.532233 250.29703 
L 254.855485 245.4912 
L 254.520095 245.199694 
L 252.847872 243.950241 
L 248.114041 240.319982 
L 246.510821 239.21888 
L 245.838737 238.709903 
L 242.656865 236.6208 
L 241.451826 235.779933 
L 240.795297 235.381339 
L 238.547285 234.02272 
L 234.57258 231.577089 
L 230.626912 229.488509 
L 229.546386 228.870883 
L 227.33919 227.7504 
L 223.632108 225.825135 
L 217.719474 223.19645 
L 215.838176 222.306648 
L 213.851239 221.47808 
L 212.984046 221.087223 
L 207.412459 218.88 
L 206.4949 218.512727 
L 200.368678 216.28192 
L 200.06455 216.169465 
L 199.900101 216.118351 
L 195.81974 214.695675 
L 192.999607 213.848591 
L 187.614172 212.072106 
L 181.542434 210.382185 
L 181.290554 210.303378 
L 180.201828 210.0096 
L 174.689436 208.49456 
L 171.200267 207.70112 
L 166.536297 206.506522 
L 163.652143 205.882486 
L 161.395981 205.321066 
L 153.716406 203.73728 
L 152.125311 203.405156 
L 143.672678 201.820564 
L 141.527839 201.41147 
L 140.682778 201.250508 
L 140.033069 201.1392 
L 128.879531 199.259589 
L 124.110165 198.54112 
L 119.636117 197.860187 
L 118.716443 197.751988 
L 114.787784 197.179101 
L 112.825242 196.954683 
L 105.241377 195.893509 
L 101.679323 195.509404 
L 100.4544 195.337643 
L 100.4544 201.1392 
L 100.4544 210.0096 
L 100.4544 218.88 
L 100.4544 227.7504 
L 100.4544 236.6208 
L 100.4544 239.813524 
L 102.389168 240.372662 
L 104.470986 241.022277 
L 110.892326 242.923455 
L 116.345986 244.703211 
L 116.879948 244.866563 
L 118.754021 245.4912 
L 123.348394 247.014579 
L 127.507965 248.525984 
L 131.201167 249.809048 
L 135.006688 251.241074 
L 135.515902 251.421914 
L 136.390471 251.76352 
L 141.923376 253.909793 
L 143.022116 254.3616 
L 146.119168 255.650304 
L 149.320775 256.95968 
L 151.108653 257.713547 
L 152.767485 258.465209 
L 158.983067 261.187599 
L 163.253587 263.232 
L 164.914462 264.019577 
L 165.65145 264.394168 
L 170.217732 266.617166 
L 175.653055 269.50432 
L 177.218353 270.32696 
L 180.387777 272.1024 
L 183.214135 273.661948 
L 184.448021 274.393852 
L 184.956263 274.70048 
L 191.606123 278.660824 
L 195.165682 280.9728 
L 197.118015 282.224214 
L 198.39441 283.09816 
L 201.72991 285.307721 
L 204.407948 287.24512 
L 207.135187 289.185297 
L 207.440129 289.407679 
L 207.990408 289.8432 
L 209.088503 290.687929 
L 211.460575 292.44128 
L 215.08919 295.251332 
L 219.271934 298.7136 
L 220.765102 299.930073 
L 226.447311 304.98592 
L 226.842236 305.329434 
L 229.253102 307.584 
L 229.96992 307.584 
L 238.06464 307.584 
L 246.15936 307.584 
L 254.25408 307.584 
L 262.3488 307.584 
L 270.44352 307.584 
L 278.53824 307.584 
L 286.63296 307.584 
L 294.72768 307.584 
" clip-path="url(#pcfdd96fd12)" style="fill: #ff9400"/>
   </g>
   <g id="PathCollection_19">
    <path d="M 229.253102 307.584 
L 226.842236 305.329434 
L 226.447311 304.98592 
L 220.765102 299.930073 
L 219.271934 298.7136 
L 215.08919 295.251332 
L 211.460575 292.44128 
L 209.088503 290.687929 
L 207.990408 289.8432 
L 207.440129 289.407679 
L 207.135187 289.185297 
L 204.407948 287.24512 
L 201.72991 285.307721 
L 198.39441 283.09816 
L 197.118015 282.224214 
L 195.165682 280.9728 
L 191.606123 278.660824 
L 184.956263 274.70048 
L 184.448021 274.393852 
L 183.214135 273.661948 
L 180.387777 272.1024 
L 177.218353 270.32696 
L 175.653055 269.50432 
L 170.217732 266.617166 
L 165.65145 264.394168 
L 164.914462 264.019577 
L 163.253587 263.232 
L 158.983067 261.187599 
L 152.767485 258.465209 
L 151.108653 257.713547 
L 149.320775 256.95968 
L 146.119168 255.650304 
L 143.022116 254.3616 
L 141.923376 253.909793 
L 136.390471 251.76352 
L 135.515902 251.421914 
L 135.006688 251.241074 
L 131.201167 249.809048 
L 127.507965 248.525984 
L 123.348394 247.014579 
L 118.754021 245.4912 
L 116.879948 244.866563 
L 116.345986 244.703211 
L 110.892326 242.923455 
L 104.470986 241.022277 
L 102.389168 240.372662 
L 100.4544 239.813524 
L 100.4544 245.4912 
L 100.4544 254.3616 
L 100.4544 263.232 
L 100.4544 272.1024 
L 100.4544 280.9728 
L 100.4544 283.371056 
L 101.536671 283.836008 
L 104.710536 285.179218 
L 109.335895 287.24512 
L 111.824094 288.35667 
L 112.780452 288.792775 
L 114.997066 289.8432 
L 119.792194 292.088384 
L 120.509453 292.44128 
L 127.382476 295.816329 
L 132.796553 298.616436 
L 132.85819 298.647699 
L 132.982489 298.7136 
L 138.331787 301.558597 
L 144.449651 304.98592 
L 145.438219 305.536786 
L 148.964843 307.584 
L 149.02272 307.584 
L 157.11744 307.584 
L 165.21216 307.584 
L 173.30688 307.584 
L 181.4016 307.584 
L 189.49632 307.584 
L 197.59104 307.584 
L 205.68576 307.584 
L 213.78048 307.584 
L 221.8752 307.584 
" clip-path="url(#pcfdd96fd12)" style="fill: #ff3800"/>
   </g>
   <g id="PathCollection_20">
    <path d="M 148.964843 307.584 
L 145.438219 305.536786 
L 144.449651 304.98592 
L 138.331787 301.558597 
L 132.982489 298.7136 
L 132.85819 298.647699 
L 132.796553 298.616436 
L 127.382476 295.816329 
L 120.509453 292.44128 
L 119.792194 292.088384 
L 114.997066 289.8432 
L 112.780452 288.792775 
L 111.824094 288.35667 
L 109.335895 287.24512 
L 104.710536 285.179218 
L 101.536671 283.836008 
L 100.4544 283.371056 
L 100.4544 289.8432 
L 100.4544 298.7136 
L 100.4544 307.584 
L 108.54912 307.584 
L 116.64384 307.584 
L 124.73856 307.584 
L 132.83328 307.584 
L 140.928 307.584 
" clip-path="url(#pcfdd96fd12)" style="fill: #b60000"/>
   </g>
   <g id="matplotlib.axis_1">
    <g id="xtick_1">
     <g id="line2d_1">
      <defs>
       <path id="m2cf550b5f5" d="M 0 0 
L 0 3.5 
" style="stroke: #000000; stroke-width: 0.8"/>
      </defs>
      <g>
       <use xlink:href="#m2cf550b5f5" x="57.6" y="307.584" style="stroke: #000000; stroke-width: 0.8"/>
      </g>
     </g>
     <g id="text_1">
      <!-- 0.0 -->
      <g transform="translate(51.26875 321.385562) scale(0.1 -0.1)">
       <defs>
        <path id="Calibri-30" d="M 3022 2031 
Q 3022 1566 2948 1181 
Q 2875 797 2704 520 
Q 2534 244 2259 92 
Q 1984 -59 1581 -59 
Q 1200 -59 939 77 
Q 678 213 518 477 
Q 359 741 292 1127 
Q 225 1513 225 2013 
Q 225 2475 300 2861 
Q 375 3247 544 3523 
Q 713 3800 988 3951 
Q 1263 4103 1663 4103 
Q 2047 4103 2308 3967 
Q 2569 3831 2728 3567 
Q 2888 3303 2955 2917 
Q 3022 2531 3022 2031 
z
M 2472 1994 
Q 2472 2297 2450 2537 
Q 2428 2778 2386 2962 
Q 2344 3147 2276 3280 
Q 2209 3413 2115 3498 
Q 2022 3584 1901 3623 
Q 1781 3663 1631 3663 
Q 1366 3663 1200 3538 
Q 1034 3413 939 3194 
Q 844 2975 809 2681 
Q 775 2388 775 2050 
Q 775 1597 822 1280 
Q 869 963 970 763 
Q 1072 563 1230 472 
Q 1388 381 1613 381 
Q 1788 381 1920 437 
Q 2053 494 2148 598 
Q 2244 703 2306 850 
Q 2369 997 2406 1175 
Q 2444 1353 2458 1561 
Q 2472 1769 2472 1994 
z
" transform="scale(0.015625)"/>
        <path id="Calibri-2e" d="M 1144 341 
Q 1144 119 1070 45 
Q 997 -28 803 -28 
Q 616 -28 544 44 
Q 472 116 472 331 
Q 472 553 545 626 
Q 619 700 813 700 
Q 1000 700 1072 628 
Q 1144 556 1144 341 
z
" transform="scale(0.015625)"/>
       </defs>
       <use xlink:href="#Calibri-30"/>
       <use xlink:href="#Calibri-2e" x="50.683594"/>
       <use xlink:href="#Calibri-30" x="75.927734"/>
      </g>
     </g>
    </g>
    <g id="xtick_2">
     <g id="line2d_2">
      <g>
       <use xlink:href="#m2cf550b5f5" x="86.1696" y="307.584" style="stroke: #000000; stroke-width: 0.8"/>
      </g>
     </g>
     <g id="text_2">
      <!-- 0.1 -->
      <g transform="translate(79.83835 321.385562) scale(0.1 -0.1)">
       <defs>
        <path id="Calibri-31" d="M 2897 213 
Q 2897 153 2887 112 
Q 2878 72 2862 47 
Q 2847 22 2826 11 
Q 2806 0 2784 0 
L 672 0 
Q 650 0 631 11 
Q 613 22 595 47 
Q 578 72 568 112 
Q 559 153 559 213 
Q 559 269 568 309 
Q 578 350 592 376 
Q 606 403 626 417 
Q 647 431 672 431 
L 1516 431 
L 1516 3506 
L 734 3041 
Q 675 3009 639 3003 
Q 603 2997 581 3017 
Q 559 3038 551 3084 
Q 544 3131 544 3203 
Q 544 3256 548 3293 
Q 553 3331 562 3356 
Q 572 3381 589 3400 
Q 606 3419 634 3438 
L 1566 4034 
Q 1578 4044 1597 4050 
Q 1616 4056 1644 4062 
Q 1672 4069 1709 4070 
Q 1747 4072 1803 4072 
Q 1878 4072 1928 4065 
Q 1978 4059 2006 4048 
Q 2034 4038 2043 4020 
Q 2053 4003 2053 3984 
L 2053 431 
L 2784 431 
Q 2809 431 2831 417 
Q 2853 403 2867 376 
Q 2881 350 2889 309 
Q 2897 269 2897 213 
z
" transform="scale(0.015625)"/>
       </defs>
       <use xlink:href="#Calibri-30"/>
       <use xlink:href="#Calibri-2e" x="50.683594"/>
       <use xlink:href="#Calibri-31" x="75.927734"/>
      </g>
     </g>
    </g>
    <g id="xtick_3">
     <g id="line2d_3">
      <g>
       <use xlink:href="#m2cf550b5f5" x="114.7392" y="307.584" style="stroke: #000000; stroke-width: 0.8"/>
      </g>
     </g>
     <g id="text_3">
      <!-- 0.2 -->
      <g transform="translate(108.40795 321.385562) scale(0.1 -0.1)">
       <defs>
        <path id="Calibri-32" d="M 2888 231 
Q 2888 175 2880 131 
Q 2872 88 2858 58 
Q 2844 28 2820 14 
Q 2797 0 2769 0 
L 534 0 
Q 491 0 458 11 
Q 425 22 401 47 
Q 378 72 367 119 
Q 356 166 356 234 
Q 356 297 361 344 
Q 366 391 381 427 
Q 397 463 420 498 
Q 444 534 481 575 
L 1266 1406 
Q 1538 1694 1702 1922 
Q 1866 2150 1955 2337 
Q 2044 2525 2072 2678 
Q 2100 2831 2100 2966 
Q 2100 3100 2056 3220 
Q 2013 3341 1930 3431 
Q 1847 3522 1722 3575 
Q 1597 3628 1434 3628 
Q 1244 3628 1092 3575 
Q 941 3522 827 3459 
Q 713 3397 636 3344 
Q 559 3291 522 3291 
Q 500 3291 483 3303 
Q 466 3316 455 3344 
Q 444 3372 437 3419 
Q 431 3466 431 3531 
Q 431 3578 434 3612 
Q 438 3647 445 3672 
Q 453 3697 465 3719 
Q 478 3741 515 3773 
Q 553 3806 645 3862 
Q 738 3919 877 3973 
Q 1016 4028 1183 4065 
Q 1350 4103 1534 4103 
Q 1828 4103 2048 4020 
Q 2269 3938 2414 3794 
Q 2559 3650 2631 3459 
Q 2703 3269 2703 3053 
Q 2703 2859 2668 2667 
Q 2634 2475 2523 2251 
Q 2413 2028 2203 1754 
Q 1994 1481 1647 1125 
L 1006 456 
L 2766 456 
Q 2791 456 2814 442 
Q 2838 428 2855 400 
Q 2872 372 2880 330 
Q 2888 288 2888 231 
z
" transform="scale(0.015625)"/>
       </defs>
       <use xlink:href="#Calibri-30"/>
       <use xlink:href="#Calibri-2e" x="50.683594"/>
       <use xlink:href="#Calibri-32" x="75.927734"/>
      </g>
     </g>
    </g>
    <g id="xtick_4">
     <g id="line2d_4">
      <g>
       <use xlink:href="#m2cf550b5f5" x="143.3088" y="307.584" style="stroke: #000000; stroke-width: 0.8"/>
      </g>
     </g>
     <g id="text_4">
      <!-- 0.3 -->
      <g transform="translate(136.97755 321.385562) scale(0.1 -0.1)">
       <defs>
        <path id="Calibri-33" d="M 2856 1156 
Q 2856 878 2759 654 
Q 2663 431 2481 272 
Q 2300 113 2034 27 
Q 1769 -59 1434 -59 
Q 1231 -59 1054 -26 
Q 878 6 740 51 
Q 603 97 512 145 
Q 422 194 398 216 
Q 375 238 362 259 
Q 350 281 340 312 
Q 331 344 326 389 
Q 322 434 322 500 
Q 322 613 344 656 
Q 366 700 406 700 
Q 434 700 517 650 
Q 600 600 729 542 
Q 859 484 1032 434 
Q 1206 384 1419 384 
Q 1625 384 1781 437 
Q 1938 491 2044 587 
Q 2150 684 2203 817 
Q 2256 950 2256 1106 
Q 2256 1278 2189 1415 
Q 2122 1553 1992 1653 
Q 1863 1753 1673 1806 
Q 1484 1859 1244 1859 
L 859 1859 
Q 834 1859 811 1870 
Q 788 1881 770 1906 
Q 753 1931 742 1972 
Q 731 2013 731 2078 
Q 731 2138 740 2177 
Q 750 2216 767 2239 
Q 784 2263 806 2273 
Q 828 2284 856 2284 
L 1209 2284 
Q 1416 2284 1580 2337 
Q 1744 2391 1858 2491 
Q 1972 2591 2033 2730 
Q 2094 2869 2094 3041 
Q 2094 3166 2053 3280 
Q 2013 3394 1931 3478 
Q 1850 3563 1723 3611 
Q 1597 3659 1431 3659 
Q 1250 3659 1098 3604 
Q 947 3550 828 3487 
Q 709 3425 631 3370 
Q 553 3316 522 3316 
Q 500 3316 483 3323 
Q 466 3331 455 3354 
Q 444 3378 439 3420 
Q 434 3463 434 3531 
Q 434 3578 437 3614 
Q 441 3650 450 3676 
Q 459 3703 471 3725 
Q 484 3747 514 3776 
Q 544 3806 634 3862 
Q 725 3919 858 3973 
Q 991 4028 1164 4065 
Q 1338 4103 1538 4103 
Q 1819 4103 2031 4031 
Q 2244 3959 2386 3828 
Q 2528 3697 2598 3514 
Q 2669 3331 2669 3109 
Q 2669 2919 2619 2755 
Q 2569 2591 2472 2464 
Q 2375 2338 2234 2248 
Q 2094 2159 1909 2125 
L 1909 2119 
Q 2119 2097 2292 2014 
Q 2466 1931 2591 1806 
Q 2716 1681 2786 1514 
Q 2856 1347 2856 1156 
z
" transform="scale(0.015625)"/>
       </defs>
       <use xlink:href="#Calibri-30"/>
       <use xlink:href="#Calibri-2e" x="50.683594"/>
       <use xlink:href="#Calibri-33" x="75.927734"/>
      </g>
     </g>
    </g>
    <g id="xtick_5">
     <g id="line2d_5">
      <g>
       <use xlink:href="#m2cf550b5f5" x="171.8784" y="307.584" style="stroke: #000000; stroke-width: 0.8"/>
      </g>
     </g>
     <g id="text_5">
      <!-- 0.4 -->
      <g transform="translate(165.54715 321.385562) scale(0.1 -0.1)">
       <defs>
        <path id="Calibri-34" d="M 3059 1150 
Q 3059 1047 3028 987 
Q 2997 928 2941 928 
L 2484 928 
L 2484 78 
Q 2484 53 2471 36 
Q 2459 19 2428 6 
Q 2397 -6 2347 -12 
Q 2297 -19 2219 -19 
Q 2144 -19 2094 -12 
Q 2044 -6 2014 6 
Q 1984 19 1973 36 
Q 1963 53 1963 78 
L 1963 928 
L 294 928 
Q 256 928 231 937 
Q 206 947 186 972 
Q 166 997 158 1044 
Q 150 1091 150 1166 
Q 150 1225 153 1272 
Q 156 1319 165 1358 
Q 175 1397 190 1433 
Q 206 1469 228 1509 
L 1684 3966 
Q 1700 3991 1729 4009 
Q 1759 4028 1806 4040 
Q 1853 4053 1922 4058 
Q 1991 4063 2084 4063 
Q 2188 4063 2264 4055 
Q 2341 4047 2387 4034 
Q 2434 4022 2459 4001 
Q 2484 3981 2484 3953 
L 2484 1372 
L 2941 1372 
Q 2994 1372 3026 1317 
Q 3059 1263 3059 1150 
z
M 1963 3591 
L 1956 3591 
L 641 1372 
L 1963 1372 
L 1963 3591 
z
" transform="scale(0.015625)"/>
       </defs>
       <use xlink:href="#Calibri-30"/>
       <use xlink:href="#Calibri-2e" x="50.683594"/>
       <use xlink:href="#Calibri-34" x="75.927734"/>
      </g>
     </g>
    </g>
    <g id="xtick_6">
     <g id="line2d_6">
      <g>
       <use xlink:href="#m2cf550b5f5" x="200.448" y="307.584" style="stroke: #000000; stroke-width: 0.8"/>
      </g>
     </g>
     <g id="text_6">
      <!-- 0.5 -->
      <g transform="translate(194.11675 321.385562) scale(0.1 -0.1)">
       <defs>
        <path id="Calibri-35" d="M 2869 1300 
Q 2869 975 2759 722 
Q 2650 469 2450 295 
Q 2250 122 1973 31 
Q 1697 -59 1359 -59 
Q 1172 -59 1003 -32 
Q 834 -6 703 33 
Q 572 72 487 109 
Q 403 147 379 169 
Q 356 191 347 209 
Q 338 228 330 254 
Q 322 281 319 322 
Q 316 363 316 419 
Q 316 472 320 514 
Q 325 556 337 582 
Q 350 609 367 621 
Q 384 634 406 634 
Q 438 634 503 595 
Q 569 556 680 511 
Q 791 466 955 425 
Q 1119 384 1344 384 
Q 1553 384 1728 434 
Q 1903 484 2029 590 
Q 2156 697 2228 858 
Q 2300 1019 2300 1250 
Q 2300 1444 2239 1592 
Q 2178 1741 2051 1839 
Q 1925 1938 1731 1986 
Q 1538 2034 1269 2034 
Q 1078 2034 940 2015 
Q 803 1997 684 1997 
Q 597 1997 559 2037 
Q 522 2078 522 2194 
L 522 3841 
Q 522 3944 570 3994 
Q 619 4044 709 4044 
L 2500 4044 
Q 2525 4044 2548 4030 
Q 2572 4016 2587 3987 
Q 2603 3959 2611 3915 
Q 2619 3872 2619 3813 
Q 2619 3700 2587 3637 
Q 2556 3575 2500 3575 
L 991 3575 
L 991 2441 
Q 1100 2456 1214 2459 
Q 1328 2463 1478 2463 
Q 1825 2463 2084 2380 
Q 2344 2297 2517 2145 
Q 2691 1994 2780 1778 
Q 2869 1563 2869 1300 
z
" transform="scale(0.015625)"/>
       </defs>
       <use xlink:href="#Calibri-30"/>
       <use xlink:href="#Calibri-2e" x="50.683594"/>
       <use xlink:href="#Calibri-35" x="75.927734"/>
      </g>
     </g>
    </g>
    <g id="xtick_7">
     <g id="line2d_7">
      <g>
       <use xlink:href="#m2cf550b5f5" x="229.0176" y="307.584" style="stroke: #000000; stroke-width: 0.8"/>
      </g>
     </g>
     <g id="text_7">
      <!-- 0.6 -->
      <g transform="translate(222.68635 321.385562) scale(0.1 -0.1)">
       <defs>
        <path id="Calibri-36" d="M 2991 1309 
Q 2991 1044 2909 795 
Q 2828 547 2659 358 
Q 2491 169 2231 55 
Q 1972 -59 1619 -59 
Q 1366 -59 1172 3 
Q 978 66 834 181 
Q 691 297 595 465 
Q 500 634 442 850 
Q 384 1066 359 1322 
Q 334 1578 334 1872 
Q 334 2131 362 2397 
Q 391 2663 462 2909 
Q 534 3156 657 3373 
Q 781 3591 967 3752 
Q 1153 3913 1412 4006 
Q 1672 4100 2016 4100 
Q 2131 4100 2250 4086 
Q 2369 4072 2469 4048 
Q 2569 4025 2637 3997 
Q 2706 3969 2728 3951 
Q 2750 3934 2761 3914 
Q 2772 3894 2778 3870 
Q 2784 3847 2787 3817 
Q 2791 3788 2791 3744 
Q 2791 3688 2789 3647 
Q 2788 3606 2777 3581 
Q 2766 3556 2748 3543 
Q 2731 3531 2703 3531 
Q 2669 3531 2609 3553 
Q 2550 3575 2465 3601 
Q 2381 3628 2261 3650 
Q 2141 3672 1981 3672 
Q 1691 3672 1481 3553 
Q 1272 3434 1139 3234 
Q 1006 3034 942 2770 
Q 878 2506 869 2219 
Q 950 2266 1051 2312 
Q 1153 2359 1273 2396 
Q 1394 2434 1528 2457 
Q 1663 2481 1816 2481 
Q 2144 2481 2369 2392 
Q 2594 2303 2733 2145 
Q 2872 1988 2931 1773 
Q 2991 1559 2991 1309 
z
M 2447 1259 
Q 2447 1441 2411 1589 
Q 2375 1738 2290 1841 
Q 2206 1944 2065 2000 
Q 1925 2056 1719 2056 
Q 1603 2056 1487 2036 
Q 1372 2016 1264 1980 
Q 1156 1944 1057 1895 
Q 959 1847 878 1791 
Q 878 1388 929 1116 
Q 981 844 1079 680 
Q 1178 516 1325 445 
Q 1472 375 1669 375 
Q 1869 375 2016 450 
Q 2163 525 2259 651 
Q 2356 778 2401 936 
Q 2447 1094 2447 1259 
z
" transform="scale(0.015625)"/>
       </defs>
       <use xlink:href="#Calibri-30"/>
       <use xlink:href="#Calibri-2e" x="50.683594"/>
       <use xlink:href="#Calibri-36" x="75.927734"/>
      </g>
     </g>
    </g>
    <g id="xtick_8">
     <g id="line2d_8">
      <g>
       <use xlink:href="#m2cf550b5f5" x="257.5872" y="307.584" style="stroke: #000000; stroke-width: 0.8"/>
      </g>
     </g>
     <g id="text_8">
      <!-- 0.7 -->
      <g transform="translate(251.25595 321.385562) scale(0.1 -0.1)">
       <defs>
        <path id="Calibri-37" d="M 2947 3813 
Q 2947 3756 2942 3711 
Q 2938 3666 2930 3623 
Q 2922 3581 2908 3542 
Q 2894 3503 2875 3459 
L 1419 103 
Q 1403 66 1379 42 
Q 1356 19 1320 5 
Q 1284 -9 1228 -14 
Q 1172 -19 1091 -19 
Q 984 -19 925 -9 
Q 866 0 839 20 
Q 813 41 816 70 
Q 819 100 838 141 
L 2369 3572 
L 428 3572 
Q 369 3572 339 3634 
Q 309 3697 309 3809 
Q 309 3869 317 3912 
Q 325 3956 340 3986 
Q 356 4016 378 4030 
Q 400 4044 428 4044 
L 2784 4044 
Q 2828 4044 2861 4034 
Q 2894 4025 2911 3997 
Q 2928 3969 2937 3925 
Q 2947 3881 2947 3813 
z
" transform="scale(0.015625)"/>
       </defs>
       <use xlink:href="#Calibri-30"/>
       <use xlink:href="#Calibri-2e" x="50.683594"/>
       <use xlink:href="#Calibri-37" x="75.927734"/>
      </g>
     </g>
    </g>
    <g id="xtick_9">
     <g id="line2d_9">
      <g>
       <use xlink:href="#m2cf550b5f5" x="286.1568" y="307.584" style="stroke: #000000; stroke-width: 0.8"/>
      </g>
     </g>
     <g id="text_9">
      <!-- 0.8 -->
      <g transform="translate(279.82555 321.385562) scale(0.1 -0.1)">
       <defs>
        <path id="Calibri-38" d="M 2981 1038 
Q 2981 775 2887 570 
Q 2794 366 2617 225 
Q 2441 84 2181 12 
Q 1922 -59 1588 -59 
Q 1275 -59 1028 6 
Q 781 72 609 200 
Q 438 328 347 515 
Q 256 703 256 944 
Q 256 1134 318 1293 
Q 381 1453 498 1587 
Q 616 1722 787 1839 
Q 959 1956 1175 2063 
Q 988 2159 844 2267 
Q 700 2375 600 2501 
Q 500 2628 448 2772 
Q 397 2916 397 3084 
Q 397 3297 473 3483 
Q 550 3669 704 3806 
Q 859 3944 1098 4023 
Q 1338 4103 1656 4103 
Q 1963 4103 2186 4029 
Q 2409 3956 2554 3829 
Q 2700 3703 2769 3531 
Q 2838 3359 2838 3163 
Q 2838 3003 2786 2856 
Q 2734 2709 2634 2578 
Q 2534 2447 2389 2333 
Q 2244 2219 2056 2119 
Q 2278 2009 2451 1893 
Q 2625 1778 2742 1645 
Q 2859 1513 2920 1364 
Q 2981 1216 2981 1038 
z
M 2306 3113 
Q 2306 3244 2261 3350 
Q 2216 3456 2128 3531 
Q 2041 3606 1911 3645 
Q 1781 3684 1616 3684 
Q 1278 3684 1104 3531 
Q 931 3378 931 3113 
Q 931 2991 973 2886 
Q 1016 2781 1105 2687 
Q 1194 2594 1330 2505 
Q 1466 2416 1653 2319 
Q 1969 2481 2137 2678 
Q 2306 2875 2306 3113 
z
M 2438 981 
Q 2438 1125 2384 1242 
Q 2331 1359 2223 1461 
Q 2116 1563 1955 1658 
Q 1794 1753 1581 1856 
Q 1384 1759 1236 1662 
Q 1088 1566 992 1462 
Q 897 1359 848 1245 
Q 800 1131 800 994 
Q 800 691 1008 525 
Q 1216 359 1628 359 
Q 2028 359 2233 526 
Q 2438 694 2438 981 
z
" transform="scale(0.015625)"/>
       </defs>
       <use xlink:href="#Calibri-30"/>
       <use xlink:href="#Calibri-2e" x="50.683594"/>
       <use xlink:href="#Calibri-38" x="75.927734"/>
      </g>
     </g>
    </g>
    <g id="xtick_10">
     <g id="line2d_10">
      <g>
       <use xlink:href="#m2cf550b5f5" x="314.7264" y="307.584" style="stroke: #000000; stroke-width: 0.8"/>
      </g>
     </g>
     <g id="text_10">
      <!-- 0.9 -->
      <g transform="translate(308.39515 321.385562) scale(0.1 -0.1)">
       <defs>
        <path id="Calibri-39" d="M 2919 2181 
Q 2919 1919 2887 1650 
Q 2856 1381 2781 1132 
Q 2706 884 2579 667 
Q 2453 450 2261 287 
Q 2069 125 1805 33 
Q 1541 -59 1191 -59 
Q 1056 -59 929 -42 
Q 803 -25 701 0 
Q 600 25 531 53 
Q 463 81 431 109 
Q 400 138 386 186 
Q 372 234 372 316 
Q 372 384 376 425 
Q 381 466 390 487 
Q 400 509 417 517 
Q 434 525 459 525 
Q 494 525 556 501 
Q 619 478 714 450 
Q 809 422 937 398 
Q 1066 375 1225 375 
Q 1528 375 1745 492 
Q 1963 609 2100 806 
Q 2238 1003 2306 1262 
Q 2375 1522 2381 1809 
Q 2216 1713 1984 1638 
Q 1753 1563 1453 1563 
Q 1116 1563 886 1655 
Q 656 1747 517 1906 
Q 378 2066 317 2284 
Q 256 2503 256 2763 
Q 256 3031 334 3273 
Q 413 3516 578 3700 
Q 744 3884 1000 3993 
Q 1256 4103 1613 4103 
Q 1866 4103 2061 4039 
Q 2256 3975 2400 3854 
Q 2544 3734 2644 3564 
Q 2744 3394 2805 3178 
Q 2866 2963 2892 2711 
Q 2919 2459 2919 2181 
z
M 2372 2241 
Q 2372 2641 2319 2914 
Q 2266 3188 2162 3356 
Q 2059 3525 1909 3600 
Q 1759 3675 1563 3675 
Q 1359 3675 1215 3601 
Q 1072 3528 980 3404 
Q 888 3281 844 3125 
Q 800 2969 800 2803 
Q 800 2619 839 2466 
Q 878 2313 965 2206 
Q 1053 2100 1193 2042 
Q 1334 1984 1541 1984 
Q 1775 1984 1994 2054 
Q 2213 2125 2372 2241 
z
" transform="scale(0.015625)"/>
       </defs>
       <use xlink:href="#Calibri-30"/>
       <use xlink:href="#Calibri-2e" x="50.683594"/>
       <use xlink:href="#Calibri-39" x="75.927734"/>
      </g>
     </g>
    </g>
    <g id="xtick_11">
     <g id="line2d_11">
      <g>
       <use xlink:href="#m2cf550b5f5" x="343.296" y="307.584" style="stroke: #000000; stroke-width: 0.8"/>
      </g>
     </g>
     <g id="text_11">
      <!-- 1.0 -->
      <g transform="translate(336.96475 321.385562) scale(0.1 -0.1)">
       <use xlink:href="#Calibri-31"/>
       <use xlink:href="#Calibri-2e" x="50.683594"/>
       <use xlink:href="#Calibri-30" x="75.927734"/>
      </g>
     </g>
    </g>
    <g id="text_12">
     <!-- $\mathit{p}$ (cm$^2$/cm$^2$) -->
     <g transform="translate(174.148 336.263687) scale(0.1 -0.1)">
      <defs>
       <path id="DejaVuSans-Oblique-70" d="M 3175 2156 
Q 3175 2616 2975 2859 
Q 2775 3103 2400 3103 
Q 2144 3103 1911 2972 
Q 1678 2841 1497 2591 
Q 1319 2344 1212 1994 
Q 1106 1644 1106 1300 
Q 1106 863 1306 627 
Q 1506 391 1875 391 
Q 2147 391 2380 519 
Q 2613 647 2778 891 
Q 2956 1147 3065 1494 
Q 3175 1841 3175 2156 
z
M 1394 2969 
Q 1625 3272 1939 3428 
Q 2253 3584 2638 3584 
Q 3175 3584 3472 3232 
Q 3769 2881 3769 2247 
Q 3769 1728 3584 1258 
Q 3400 788 3053 416 
Q 2822 169 2531 39 
Q 2241 -91 1919 -91 
Q 1547 -91 1294 64 
Q 1041 219 916 525 
L 556 -1331 
L -19 -1331 
L 922 3500 
L 1497 3500 
L 1394 2969 
z
" transform="scale(0.015625)"/>
       <path id="Calibri-20" transform="scale(0.015625)"/>
       <path id="Calibri-28" d="M 1547 4306 
Q 1250 3678 1104 3017 
Q 959 2356 959 1688 
Q 959 1016 1107 356 
Q 1256 -303 1541 -938 
Q 1556 -975 1557 -1001 
Q 1559 -1028 1537 -1045 
Q 1516 -1063 1470 -1070 
Q 1425 -1078 1347 -1078 
Q 1291 -1078 1250 -1075 
Q 1209 -1072 1179 -1062 
Q 1150 -1053 1131 -1040 
Q 1113 -1028 1103 -1013 
Q 934 -694 806 -367 
Q 678 -41 590 296 
Q 503 634 459 979 
Q 416 1325 416 1678 
Q 416 2031 464 2375 
Q 513 2719 602 3058 
Q 691 3397 819 3725 
Q 947 4053 1106 4375 
Q 1109 4388 1123 4397 
Q 1138 4406 1163 4415 
Q 1188 4425 1231 4429 
Q 1275 4434 1344 4434 
Q 1416 4434 1459 4425 
Q 1503 4416 1528 4400 
Q 1553 4384 1556 4359 
Q 1559 4334 1547 4306 
z
" transform="scale(0.015625)"/>
       <path id="Calibri-63" d="M 2500 506 
Q 2500 453 2497 414 
Q 2494 375 2486 348 
Q 2478 322 2467 301 
Q 2456 281 2417 242 
Q 2378 203 2284 145 
Q 2191 88 2073 42 
Q 1956 -3 1818 -31 
Q 1681 -59 1534 -59 
Q 1231 -59 997 41 
Q 763 141 605 333 
Q 447 525 364 804 
Q 281 1084 281 1450 
Q 281 1866 382 2164 
Q 484 2463 661 2653 
Q 838 2844 1077 2936 
Q 1316 3028 1594 3028 
Q 1728 3028 1854 3003 
Q 1981 2978 2087 2937 
Q 2194 2897 2276 2844 
Q 2359 2791 2396 2753 
Q 2434 2716 2448 2694 
Q 2463 2672 2472 2642 
Q 2481 2613 2484 2575 
Q 2488 2538 2488 2481 
Q 2488 2359 2459 2311 
Q 2431 2263 2391 2263 
Q 2344 2263 2283 2314 
Q 2222 2366 2128 2428 
Q 2034 2491 1901 2542 
Q 1769 2594 1588 2594 
Q 1216 2594 1017 2308 
Q 819 2022 819 1478 
Q 819 1206 870 1001 
Q 922 797 1022 659 
Q 1122 522 1267 455 
Q 1413 388 1600 388 
Q 1778 388 1912 444 
Q 2047 500 2145 567 
Q 2244 634 2311 689 
Q 2378 744 2416 744 
Q 2438 744 2453 731 
Q 2469 719 2480 689 
Q 2491 659 2495 614 
Q 2500 569 2500 506 
z
" transform="scale(0.015625)"/>
       <path id="Calibri-6d" d="M 4650 78 
Q 4650 53 4637 36 
Q 4625 19 4597 6 
Q 4569 -6 4519 -12 
Q 4469 -19 4394 -19 
Q 4316 -19 4266 -12 
Q 4216 -6 4186 6 
Q 4156 19 4143 36 
Q 4131 53 4131 78 
L 4131 1788 
Q 4131 1966 4100 2112 
Q 4069 2259 4000 2365 
Q 3931 2472 3825 2528 
Q 3719 2584 3575 2584 
Q 3397 2584 3217 2446 
Q 3038 2309 2822 2044 
L 2822 78 
Q 2822 53 2809 36 
Q 2797 19 2767 6 
Q 2738 -6 2688 -12 
Q 2638 -19 2563 -19 
Q 2491 -19 2439 -12 
Q 2388 -6 2358 6 
Q 2328 19 2317 36 
Q 2306 53 2306 78 
L 2306 1788 
Q 2306 1966 2272 2112 
Q 2238 2259 2169 2365 
Q 2100 2472 1995 2528 
Q 1891 2584 1747 2584 
Q 1569 2584 1387 2446 
Q 1206 2309 994 2044 
L 994 78 
Q 994 53 981 36 
Q 969 19 941 6 
Q 913 -6 863 -12 
Q 813 -19 734 -19 
Q 659 -19 609 -12 
Q 559 -6 529 6 
Q 500 19 489 36 
Q 478 53 478 78 
L 478 2891 
Q 478 2916 487 2933 
Q 497 2950 525 2964 
Q 553 2978 597 2983 
Q 641 2988 713 2988 
Q 781 2988 826 2983 
Q 872 2978 897 2964 
Q 922 2950 933 2933 
Q 944 2916 944 2891 
L 944 2519 
Q 1181 2784 1404 2907 
Q 1628 3031 1856 3031 
Q 2031 3031 2170 2990 
Q 2309 2950 2415 2876 
Q 2522 2803 2597 2701 
Q 2672 2600 2722 2475 
Q 2863 2628 2989 2734 
Q 3116 2841 3233 2906 
Q 3350 2972 3461 3001 
Q 3572 3031 3684 3031 
Q 3956 3031 4140 2936 
Q 4325 2841 4439 2681 
Q 4553 2522 4601 2308 
Q 4650 2094 4650 1856 
L 4650 78 
z
" transform="scale(0.015625)"/>
       <path id="DejaVuSans-32" d="M 1228 531 
L 3431 531 
L 3431 0 
L 469 0 
L 469 531 
Q 828 903 1448 1529 
Q 2069 2156 2228 2338 
Q 2531 2678 2651 2914 
Q 2772 3150 2772 3378 
Q 2772 3750 2511 3984 
Q 2250 4219 1831 4219 
Q 1534 4219 1204 4116 
Q 875 4013 500 3803 
L 500 4441 
Q 881 4594 1212 4672 
Q 1544 4750 1819 4750 
Q 2544 4750 2975 4387 
Q 3406 4025 3406 3419 
Q 3406 3131 3298 2873 
Q 3191 2616 2906 2266 
Q 2828 2175 2409 1742 
Q 1991 1309 1228 531 
z
" transform="scale(0.015625)"/>
       <path id="Calibri-2f" d="M 525 -753 
Q 513 -794 492 -817 
Q 472 -841 440 -853 
Q 409 -866 364 -872 
Q 319 -878 253 -878 
Q 175 -878 123 -867 
Q 72 -856 44 -836 
Q 16 -816 9 -786 
Q 3 -756 22 -716 
L 1913 4469 
Q 1925 4509 1945 4532 
Q 1966 4556 1995 4570 
Q 2025 4584 2072 4589 
Q 2119 4594 2184 4594 
Q 2263 4594 2313 4583 
Q 2363 4572 2391 4553 
Q 2419 4534 2425 4503 
Q 2431 4472 2416 4431 
L 525 -753 
z
" transform="scale(0.015625)"/>
       <path id="Calibri-29" d="M 1522 1678 
Q 1522 1325 1478 979 
Q 1434 634 1346 296 
Q 1259 -41 1132 -367 
Q 1006 -694 838 -1013 
Q 828 -1028 809 -1040 
Q 791 -1053 761 -1062 
Q 731 -1072 690 -1075 
Q 650 -1078 594 -1078 
Q 513 -1078 467 -1070 
Q 422 -1063 401 -1045 
Q 381 -1028 382 -1001 
Q 384 -975 400 -938 
Q 688 -306 834 355 
Q 981 1016 981 1688 
Q 981 2356 834 3017 
Q 688 3678 394 4306 
Q 381 4334 384 4359 
Q 388 4384 413 4400 
Q 438 4416 481 4425 
Q 525 4434 597 4434 
Q 663 4434 706 4429 
Q 750 4425 776 4415 
Q 803 4406 815 4397 
Q 828 4388 834 4375 
Q 1156 3734 1339 3057 
Q 1522 2381 1522 1678 
z
" transform="scale(0.015625)"/>
      </defs>
      <use xlink:href="#DejaVuSans-Oblique-70" transform="translate(0 0.765625)"/>
      <use xlink:href="#Calibri-20" transform="translate(63.476562 0.765625)"/>
      <use xlink:href="#Calibri-28" transform="translate(84.958984 0.765625)"/>
      <use xlink:href="#Calibri-63" transform="translate(115.28125 0.765625)"/>
      <use xlink:href="#Calibri-6d" transform="translate(157.566406 0.765625)"/>
      <use xlink:href="#DejaVuSans-32" transform="translate(238.40625 39.046875) scale(0.7)"/>
      <use xlink:href="#Calibri-2f" transform="translate(285.676758 0.765625)"/>
      <use xlink:href="#Calibri-63" transform="translate(324.299805 0.765625)"/>
      <use xlink:href="#Calibri-6d" transform="translate(366.584961 0.765625)"/>
      <use xlink:href="#DejaVuSans-32" transform="translate(447.424805 39.046875) scale(0.7)"/>
      <use xlink:href="#Calibri-29" transform="translate(494.695312 0.765625)"/>
     </g>
    </g>
   </g>
   <g id="matplotlib.axis_2">
    <g id="ytick_1">
     <g id="line2d_12">
      <defs>
       <path id="m7a23e3dd27" d="M 0 0 
L -3.5 0 
" style="stroke: #000000; stroke-width: 0.8"/>
      </defs>
      <g>
       <use xlink:href="#m7a23e3dd27" x="57.6" y="275.65056" style="stroke: #000000; stroke-width: 0.8"/>
      </g>
     </g>
     <g id="text_13">
      <!-- 25 -->
      <g transform="translate(40.4625 279.051341) scale(0.1 -0.1)">
       <use xlink:href="#Calibri-32"/>
       <use xlink:href="#Calibri-35" x="50.683594"/>
      </g>
     </g>
    </g>
    <g id="ytick_2">
     <g id="line2d_13">
      <g>
       <use xlink:href="#m7a23e3dd27" x="57.6" y="242.38656" style="stroke: #000000; stroke-width: 0.8"/>
      </g>
     </g>
     <g id="text_14">
      <!-- 50 -->
      <g transform="translate(40.4625 245.787341) scale(0.1 -0.1)">
       <use xlink:href="#Calibri-35"/>
       <use xlink:href="#Calibri-30" x="50.683594"/>
      </g>
     </g>
    </g>
    <g id="ytick_3">
     <g id="line2d_14">
      <g>
       <use xlink:href="#m7a23e3dd27" x="57.6" y="209.12256" style="stroke: #000000; stroke-width: 0.8"/>
      </g>
     </g>
     <g id="text_15">
      <!-- 75 -->
      <g transform="translate(40.4625 212.523341) scale(0.1 -0.1)">
       <use xlink:href="#Calibri-37"/>
       <use xlink:href="#Calibri-35" x="50.683594"/>
      </g>
     </g>
    </g>
    <g id="ytick_4">
     <g id="line2d_15">
      <g>
       <use xlink:href="#m7a23e3dd27" x="57.6" y="175.85856" style="stroke: #000000; stroke-width: 0.8"/>
      </g>
     </g>
     <g id="text_16">
      <!-- 100 -->
      <g transform="translate(35.39375 179.259341) scale(0.1 -0.1)">
       <use xlink:href="#Calibri-31"/>
       <use xlink:href="#Calibri-30" x="50.683594"/>
       <use xlink:href="#Calibri-30" x="101.367188"/>
      </g>
     </g>
    </g>
    <g id="ytick_5">
     <g id="line2d_16">
      <g>
       <use xlink:href="#m7a23e3dd27" x="57.6" y="142.59456" style="stroke: #000000; stroke-width: 0.8"/>
      </g>
     </g>
     <g id="text_17">
      <!-- 125 -->
      <g transform="translate(35.39375 145.995341) scale(0.1 -0.1)">
       <use xlink:href="#Calibri-31"/>
       <use xlink:href="#Calibri-32" x="50.683594"/>
       <use xlink:href="#Calibri-35" x="101.367188"/>
      </g>
     </g>
    </g>
    <g id="ytick_6">
     <g id="line2d_17">
      <g>
       <use xlink:href="#m7a23e3dd27" x="57.6" y="109.33056" style="stroke: #000000; stroke-width: 0.8"/>
      </g>
     </g>
     <g id="text_18">
      <!-- 150 -->
      <g transform="translate(35.39375 112.731341) scale(0.1 -0.1)">
       <use xlink:href="#Calibri-31"/>
       <use xlink:href="#Calibri-35" x="50.683594"/>
       <use xlink:href="#Calibri-30" x="101.367188"/>
      </g>
     </g>
    </g>
    <g id="ytick_7">
     <g id="line2d_18">
      <g>
       <use xlink:href="#m7a23e3dd27" x="57.6" y="76.06656" style="stroke: #000000; stroke-width: 0.8"/>
      </g>
     </g>
     <g id="text_19">
      <!-- 175 -->
      <g transform="translate(35.39375 79.467341) scale(0.1 -0.1)">
       <use xlink:href="#Calibri-31"/>
       <use xlink:href="#Calibri-37" x="50.683594"/>
       <use xlink:href="#Calibri-35" x="101.367188"/>
      </g>
     </g>
    </g>
    <g id="ytick_8">
     <g id="line2d_19">
      <g>
       <use xlink:href="#m7a23e3dd27" x="57.6" y="42.80256" style="stroke: #000000; stroke-width: 0.8"/>
      </g>
     </g>
     <g id="text_20">
      <!-- 200 -->
      <g transform="translate(35.39375 46.203341) scale(0.1 -0.1)">
       <use xlink:href="#Calibri-32"/>
       <use xlink:href="#Calibri-30" x="50.683594"/>
       <use xlink:href="#Calibri-30" x="101.367188"/>
      </g>
     </g>
    </g>
    <g id="text_21">
     <!-- $\mathit{Z}$$_{a}$ (nm) -->
     <g transform="translate(29.59375 191.028) rotate(-90) scale(0.1 -0.1)">
      <defs>
       <path id="DejaVuSans-Oblique-5a" d="M 838 4666 
L 4500 4666 
L 4409 4184 
L 794 531 
L 3769 531 
L 3669 0 
L -141 0 
L -50 481 
L 3566 4134 
L 738 4134 
L 838 4666 
z
" transform="scale(0.015625)"/>
       <path id="DejaVuSans-Oblique-61" d="M 3438 1997 
L 3047 0 
L 2472 0 
L 2578 531 
Q 2325 219 2001 64 
Q 1678 -91 1281 -91 
Q 834 -91 548 182 
Q 263 456 263 884 
Q 263 1497 752 1853 
Q 1241 2209 2100 2209 
L 2900 2209 
L 2931 2363 
Q 2938 2388 2941 2417 
Q 2944 2447 2944 2509 
Q 2944 2788 2717 2942 
Q 2491 3097 2081 3097 
Q 1800 3097 1504 3025 
Q 1209 2953 897 2809 
L 997 3341 
Q 1322 3463 1633 3523 
Q 1944 3584 2234 3584 
Q 2853 3584 3176 3315 
Q 3500 3047 3500 2534 
Q 3500 2431 3484 2292 
Q 3469 2153 3438 1997 
z
M 2816 1759 
L 2241 1759 
Q 1534 1759 1195 1570 
Q 856 1381 856 984 
Q 856 709 1029 553 
Q 1203 397 1509 397 
Q 1978 397 2328 733 
Q 2678 1069 2791 1631 
L 2816 1759 
z
" transform="scale(0.015625)"/>
       <path id="Calibri-6e" d="M 2900 78 
Q 2900 53 2887 36 
Q 2875 19 2847 6 
Q 2819 -6 2769 -12 
Q 2719 -19 2644 -19 
Q 2566 -19 2516 -12 
Q 2466 -6 2437 6 
Q 2409 19 2396 36 
Q 2384 53 2384 78 
L 2384 1725 
Q 2384 1966 2346 2112 
Q 2309 2259 2237 2365 
Q 2166 2472 2052 2528 
Q 1938 2584 1788 2584 
Q 1594 2584 1400 2446 
Q 1206 2309 994 2044 
L 994 78 
Q 994 53 981 36 
Q 969 19 941 6 
Q 913 -6 863 -12 
Q 813 -19 734 -19 
Q 659 -19 609 -12 
Q 559 -6 529 6 
Q 500 19 489 36 
Q 478 53 478 78 
L 478 2891 
Q 478 2916 487 2933 
Q 497 2950 525 2964 
Q 553 2978 597 2983 
Q 641 2988 713 2988 
Q 781 2988 826 2983 
Q 872 2978 897 2964 
Q 922 2950 933 2933 
Q 944 2916 944 2891 
L 944 2519 
Q 1181 2784 1417 2907 
Q 1653 3031 1894 3031 
Q 2175 3031 2367 2936 
Q 2559 2841 2678 2681 
Q 2797 2522 2848 2308 
Q 2900 2094 2900 1794 
L 2900 78 
z
" transform="scale(0.015625)"/>
      </defs>
      <use xlink:href="#DejaVuSans-Oblique-5a" transform="translate(0 0.09375)"/>
      <use xlink:href="#DejaVuSans-Oblique-61" transform="translate(69.462891 -16.3125) scale(0.7)"/>
      <use xlink:href="#Calibri-20" transform="translate(115.092773 0.09375)"/>
      <use xlink:href="#Calibri-28" transform="translate(136.575195 0.09375)"/>
      <use xlink:href="#Calibri-6e" transform="translate(166.897461 0.09375)"/>
      <use xlink:href="#Calibri-6d" transform="translate(219.436523 0.09375)"/>
      <use xlink:href="#Calibri-29" transform="translate(299.319336 0.09375)"/>
     </g>
    </g>
   </g>
   <g id="patch_3">
    <path d="M 57.6 307.584 
L 57.6 41.472 
" style="fill: none; stroke: #000000; stroke-width: 0.8; stroke-linejoin: miter; stroke-linecap: square"/>
   </g>
   <g id="patch_4">
    <path d="M 343.296 307.584 
L 343.296 41.472 
" style="fill: none; stroke: #000000; stroke-width: 0.8; stroke-linejoin: miter; stroke-linecap: square"/>
   </g>
   <g id="patch_5">
    <path d="M 57.6 307.584 
L 343.296 307.584 
" style="fill: none; stroke: #000000; stroke-width: 0.8; stroke-linejoin: miter; stroke-linecap: square"/>
   </g>
   <g id="patch_6">
    <path d="M 57.6 41.472 
L 343.296 41.472 
" style="fill: none; stroke: #000000; stroke-width: 0.8; stroke-linejoin: miter; stroke-linecap: square"/>
   </g>
   <g id="text_22">
    <!-- $\lambda$ = 895 nm -->
    <g transform="translate(177.348 35.472) scale(0.1 -0.1)">
     <defs>
      <path id="DejaVuSans-Oblique-3bb" d="M 2350 4316 
L 3125 0 
L 2516 0 
L 2038 2588 
L 328 0 
L -281 0 
L 1903 3356 
L 1794 3975 
Q 1725 4369 1391 4369 
L 1091 4369 
L 1184 4863 
L 1550 4856 
Q 2253 4847 2350 4316 
z
" transform="scale(0.015625)"/>
      <path id="Calibri-3d" d="M 2891 2409 
Q 2891 2284 2855 2236 
Q 2819 2188 2772 2188 
L 409 2188 
Q 363 2188 328 2236 
Q 294 2284 294 2409 
Q 294 2522 325 2575 
Q 356 2628 409 2628 
L 2772 2628 
Q 2828 2628 2859 2575 
Q 2891 2522 2891 2409 
z
M 2891 1194 
Q 2891 1069 2855 1022 
Q 2819 975 2772 975 
L 409 975 
Q 363 975 328 1022 
Q 294 1069 294 1194 
Q 294 1309 325 1362 
Q 356 1416 409 1416 
L 2772 1416 
Q 2828 1416 2859 1362 
Q 2891 1309 2891 1194 
z
" transform="scale(0.015625)"/>
     </defs>
     <use xlink:href="#DejaVuSans-Oblique-3bb" transform="translate(0 0.015625)"/>
     <use xlink:href="#Calibri-20" transform="translate(59.179688 0.015625)"/>
     <use xlink:href="#Calibri-3d" transform="translate(81.787109 0.015625)"/>
     <use xlink:href="#Calibri-20" transform="translate(131.591797 0.015625)"/>
     <use xlink:href="#Calibri-38" transform="translate(154.199219 0.015625)"/>
     <use xlink:href="#Calibri-39" transform="translate(204.882812 0.015625)"/>
     <use xlink:href="#Calibri-35" transform="translate(255.566406 0.015625)"/>
     <use xlink:href="#Calibri-20" transform="translate(306.25 0.015625)"/>
     <use xlink:href="#Calibri-6e" transform="translate(328.857422 0.015625)"/>
     <use xlink:href="#Calibri-6d" transform="translate(381.396484 0.015625)"/>
    </g>
   </g>
  </g>
  <g id="axes_2">
   <g id="patch_7">
    <path d="M 361.152 307.584 
L 374.4576 307.584 
L 374.4576 41.472 
L 361.152 41.472 
z
" style="fill: #ffffff"/>
   </g>
   <g id="QuadMesh_1">
    <path d="M 361.152 307.584 
L 374.4576 307.584 
L 374.4576 280.9728 
L 361.152 280.9728 
L 361.152 307.584 
" clip-path="url(#p8bac4cd918)" style="fill: #0000b6"/>
    <path d="M 361.152 280.9728 
L 374.4576 280.9728 
L 374.4576 254.3616 
L 361.152 254.3616 
L 361.152 280.9728 
" clip-path="url(#p8bac4cd918)" style="fill: #0018ff"/>
    <path d="M 361.152 254.3616 
L 374.4576 254.3616 
L 374.4576 227.7504 
L 361.152 227.7504 
L 361.152 254.3616 
" clip-path="url(#p8bac4cd918)" style="fill: #0080ff"/>
    <path d="M 361.152 227.7504 
L 374.4576 227.7504 
L 374.4576 201.1392 
L 361.152 201.1392 
L 361.152 227.7504 
" clip-path="url(#p8bac4cd918)" style="fill: #00e4f8"/>
    <path d="M 361.152 201.1392 
L 374.4576 201.1392 
L 374.4576 174.528 
L 361.152 174.528 
L 361.152 201.1392 
" clip-path="url(#p8bac4cd918)" style="fill: #53ffa4"/>
    <path d="M 361.152 174.528 
L 374.4576 174.528 
L 374.4576 147.9168 
L 361.152 147.9168 
L 361.152 174.528 
" clip-path="url(#p8bac4cd918)" style="fill: #a4ff53"/>
    <path d="M 361.152 147.9168 
L 374.4576 147.9168 
L 374.4576 121.3056 
L 361.152 121.3056 
L 361.152 147.9168 
" clip-path="url(#p8bac4cd918)" style="fill: #f8f500"/>
    <path d="M 361.152 121.3056 
L 374.4576 121.3056 
L 374.4576 94.6944 
L 361.152 94.6944 
L 361.152 121.3056 
" clip-path="url(#p8bac4cd918)" style="fill: #ff9400"/>
    <path d="M 361.152 94.6944 
L 374.4576 94.6944 
L 374.4576 68.0832 
L 361.152 68.0832 
L 361.152 94.6944 
" clip-path="url(#p8bac4cd918)" style="fill: #ff3800"/>
    <path d="M 361.152 68.0832 
L 374.4576 68.0832 
L 374.4576 41.472 
L 361.152 41.472 
L 361.152 68.0832 
" clip-path="url(#p8bac4cd918)" style="fill: #b60000"/>
   </g>
   <g id="matplotlib.axis_3"/>
   <g id="matplotlib.axis_4">
    <g id="ytick_9">
     <g id="line2d_20">
      <defs>
       <path id="m39994341db" d="M 0 0 
L 3.5 0 
" style="stroke: #000000; stroke-width: 0.8"/>
      </defs>
      <g>
       <use xlink:href="#m39994341db" x="374.4576" y="307.584" style="stroke: #000000; stroke-width: 0.8"/>
      </g>
     </g>
     <g id="text_23">
      <!-- 0 -->
      <g transform="translate(381.4576 310.984781) scale(0.1 -0.1)">
       <use xlink:href="#Calibri-30"/>
      </g>
     </g>
    </g>
    <g id="ytick_10">
     <g id="line2d_21">
      <g>
       <use xlink:href="#m39994341db" x="374.4576" y="280.9728" style="stroke: #000000; stroke-width: 0.8"/>
      </g>
     </g>
     <g id="text_24">
      <!-- 0.1 -->
      <g transform="translate(381.4576 284.373581) scale(0.1 -0.1)">
       <use xlink:href="#Calibri-30"/>
       <use xlink:href="#Calibri-2e" x="50.683594"/>
       <use xlink:href="#Calibri-31" x="75.927734"/>
      </g>
     </g>
    </g>
    <g id="ytick_11">
     <g id="line2d_22">
      <g>
       <use xlink:href="#m39994341db" x="374.4576" y="254.3616" style="stroke: #000000; stroke-width: 0.8"/>
      </g>
     </g>
     <g id="text_25">
      <!-- 0.2 -->
      <g transform="translate(381.4576 257.762381) scale(0.1 -0.1)">
       <use xlink:href="#Calibri-30"/>
       <use xlink:href="#Calibri-2e" x="50.683594"/>
       <use xlink:href="#Calibri-32" x="75.927734"/>
      </g>
     </g>
    </g>
    <g id="ytick_12">
     <g id="line2d_23">
      <g>
       <use xlink:href="#m39994341db" x="374.4576" y="227.7504" style="stroke: #000000; stroke-width: 0.8"/>
      </g>
     </g>
     <g id="text_26">
      <!-- 0.3 -->
      <g transform="translate(381.4576 231.151181) scale(0.1 -0.1)">
       <use xlink:href="#Calibri-30"/>
       <use xlink:href="#Calibri-2e" x="50.683594"/>
       <use xlink:href="#Calibri-33" x="75.927734"/>
      </g>
     </g>
    </g>
    <g id="ytick_13">
     <g id="line2d_24">
      <g>
       <use xlink:href="#m39994341db" x="374.4576" y="201.1392" style="stroke: #000000; stroke-width: 0.8"/>
      </g>
     </g>
     <g id="text_27">
      <!-- 0.4 -->
      <g transform="translate(381.4576 204.539981) scale(0.1 -0.1)">
       <use xlink:href="#Calibri-30"/>
       <use xlink:href="#Calibri-2e" x="50.683594"/>
       <use xlink:href="#Calibri-34" x="75.927734"/>
      </g>
     </g>
    </g>
    <g id="ytick_14">
     <g id="line2d_25">
      <g>
       <use xlink:href="#m39994341db" x="374.4576" y="174.528" style="stroke: #000000; stroke-width: 0.8"/>
      </g>
     </g>
     <g id="text_28">
      <!-- 0.5 -->
      <g transform="translate(381.4576 177.928781) scale(0.1 -0.1)">
       <use xlink:href="#Calibri-30"/>
       <use xlink:href="#Calibri-2e" x="50.683594"/>
       <use xlink:href="#Calibri-35" x="75.927734"/>
      </g>
     </g>
    </g>
    <g id="ytick_15">
     <g id="line2d_26">
      <g>
       <use xlink:href="#m39994341db" x="374.4576" y="147.9168" style="stroke: #000000; stroke-width: 0.8"/>
      </g>
     </g>
     <g id="text_29">
      <!-- 0.6 -->
      <g transform="translate(381.4576 151.317581) scale(0.1 -0.1)">
       <use xlink:href="#Calibri-30"/>
       <use xlink:href="#Calibri-2e" x="50.683594"/>
       <use xlink:href="#Calibri-36" x="75.927734"/>
      </g>
     </g>
    </g>
    <g id="ytick_16">
     <g id="line2d_27">
      <g>
       <use xlink:href="#m39994341db" x="374.4576" y="121.3056" style="stroke: #000000; stroke-width: 0.8"/>
      </g>
     </g>
     <g id="text_30">
      <!-- 0.7 -->
      <g transform="translate(381.4576 124.706381) scale(0.1 -0.1)">
       <use xlink:href="#Calibri-30"/>
       <use xlink:href="#Calibri-2e" x="50.683594"/>
       <use xlink:href="#Calibri-37" x="75.927734"/>
      </g>
     </g>
    </g>
    <g id="ytick_17">
     <g id="line2d_28">
      <g>
       <use xlink:href="#m39994341db" x="374.4576" y="94.6944" style="stroke: #000000; stroke-width: 0.8"/>
      </g>
     </g>
     <g id="text_31">
      <!-- 0.8 -->
      <g transform="translate(381.4576 98.095181) scale(0.1 -0.1)">
       <use xlink:href="#Calibri-30"/>
       <use xlink:href="#Calibri-2e" x="50.683594"/>
       <use xlink:href="#Calibri-38" x="75.927734"/>
      </g>
     </g>
    </g>
    <g id="ytick_18">
     <g id="line2d_29">
      <g>
       <use xlink:href="#m39994341db" x="374.4576" y="68.0832" style="stroke: #000000; stroke-width: 0.8"/>
      </g>
     </g>
     <g id="text_32">
      <!-- 0.9 -->
      <g transform="translate(381.4576 71.483981) scale(0.1 -0.1)">
       <use xlink:href="#Calibri-30"/>
       <use xlink:href="#Calibri-2e" x="50.683594"/>
       <use xlink:href="#Calibri-39" x="75.927734"/>
      </g>
     </g>
    </g>
    <g id="ytick_19">
     <g id="line2d_30">
      <g>
       <use xlink:href="#m39994341db" x="374.4576" y="41.472" style="stroke: #000000; stroke-width: 0.8"/>
      </g>
     </g>
     <g id="text_33">
      <!-- 1.0 -->
      <g transform="translate(381.4576 44.872781) scale(0.1 -0.1)">
       <use xlink:href="#Calibri-31"/>
       <use xlink:href="#Calibri-2e" x="50.683594"/>
       <use xlink:href="#Calibri-30" x="75.927734"/>
      </g>
     </g>
    </g>
   </g>
   <g id="LineCollection_1"/>
   <g id="patch_8">
    <path d="M 361.152 307.584 
L 367.8048 307.584 
L 374.4576 307.584 
L 374.4576 41.472 
L 367.8048 41.472 
L 361.152 41.472 
L 361.152 307.584 
z
" style="fill: none; stroke: #000000; stroke-width: 0.8; stroke-linejoin: miter; stroke-linecap: square"/>
   </g>
   <g id="text_34">
    <!-- $\mathit{E}_{\mathrm{dis}}$/$\mathit{E}_{\mathrm{i}}$ -->
    <g transform="translate(353.2548 35.472) scale(0.1 -0.1)">
     <defs>
      <path id="DejaVuSans-Oblique-45" d="M 1081 4666 
L 4031 4666 
L 3928 4134 
L 1606 4134 
L 1338 2753 
L 3566 2753 
L 3463 2222 
L 1234 2222 
L 909 531 
L 3284 531 
L 3181 0 
L 172 0 
L 1081 4666 
z
" transform="scale(0.015625)"/>
      <path id="DejaVuSans-64" d="M 2906 2969 
L 2906 4863 
L 3481 4863 
L 3481 0 
L 2906 0 
L 2906 525 
Q 2725 213 2448 61 
Q 2172 -91 1784 -91 
Q 1150 -91 751 415 
Q 353 922 353 1747 
Q 353 2572 751 3078 
Q 1150 3584 1784 3584 
Q 2172 3584 2448 3432 
Q 2725 3281 2906 2969 
z
M 947 1747 
Q 947 1113 1208 752 
Q 1469 391 1925 391 
Q 2381 391 2643 752 
Q 2906 1113 2906 1747 
Q 2906 2381 2643 2742 
Q 2381 3103 1925 3103 
Q 1469 3103 1208 2742 
Q 947 2381 947 1747 
z
" transform="scale(0.015625)"/>
      <path id="DejaVuSans-69" d="M 603 3500 
L 1178 3500 
L 1178 0 
L 603 0 
L 603 3500 
z
M 603 4863 
L 1178 4863 
L 1178 4134 
L 603 4134 
L 603 4863 
z
" transform="scale(0.015625)"/>
      <path id="DejaVuSans-73" d="M 2834 3397 
L 2834 2853 
Q 2591 2978 2328 3040 
Q 2066 3103 1784 3103 
Q 1356 3103 1142 2972 
Q 928 2841 928 2578 
Q 928 2378 1081 2264 
Q 1234 2150 1697 2047 
L 1894 2003 
Q 2506 1872 2764 1633 
Q 3022 1394 3022 966 
Q 3022 478 2636 193 
Q 2250 -91 1575 -91 
Q 1294 -91 989 -36 
Q 684 19 347 128 
L 347 722 
Q 666 556 975 473 
Q 1284 391 1588 391 
Q 1994 391 2212 530 
Q 2431 669 2431 922 
Q 2431 1156 2273 1281 
Q 2116 1406 1581 1522 
L 1381 1569 
Q 847 1681 609 1914 
Q 372 2147 372 2553 
Q 372 3047 722 3315 
Q 1072 3584 1716 3584 
Q 2034 3584 2315 3537 
Q 2597 3491 2834 3397 
z
" transform="scale(0.015625)"/>
     </defs>
     <use xlink:href="#DejaVuSans-Oblique-45" transform="translate(0 0.09375)"/>
     <use xlink:href="#DejaVuSans-64" transform="translate(63.183594 -16.3125) scale(0.7)"/>
     <use xlink:href="#DejaVuSans-69" transform="translate(107.617188 -16.3125) scale(0.7)"/>
     <use xlink:href="#DejaVuSans-73" transform="translate(127.06543 -16.3125) scale(0.7)"/>
     <use xlink:href="#Calibri-2f" transform="translate(166.269531 0.09375)"/>
     <use xlink:href="#DejaVuSans-Oblique-45" transform="translate(204.892578 0.09375)"/>
     <use xlink:href="#DejaVuSans-69" transform="translate(268.076172 -16.3125) scale(0.7)"/>
    </g>
   </g>
  </g>
 </g>
 <defs>
  <clipPath id="pcfdd96fd12">
   <rect x="57.6" y="41.472" width="285.696" height="266.112"/>
  </clipPath>
  <clipPath id="p8bac4cd918">
   <rect x="361.152" y="41.472" width="13.3056" height="266.112"/>
  </clipPath>
 </defs>
</svg>
