<?xml version="1.0" encoding="utf-8" standalone="no"?>
<!DOCTYPE svg PUBLIC "-//W3C//DTD SVG 1.1//EN"
  "http://www.w3.org/Graphics/SVG/1.1/DTD/svg11.dtd">
<svg xmlns:xlink="http://www.w3.org/1999/xlink" width="460.8pt" height="345.6pt" viewBox="0 0 460.8 345.6" xmlns="http://www.w3.org/2000/svg" version="1.1">
 <metadata>
  <rdf:RDF xmlns:dc="http://purl.org/dc/elements/1.1/" xmlns:cc="http://creativecommons.org/ns#" xmlns:rdf="http://www.w3.org/1999/02/22-rdf-syntax-ns#">
   <cc:Work>
    <dc:type rdf:resource="http://purl.org/dc/dcmitype/StillImage"/>
    <dc:date>2024-01-22T08:52:52.365794</dc:date>
    <dc:format>image/svg+xml</dc:format>
    <dc:creator>
     <cc:Agent>
      <dc:title>Matplotlib v3.7.1, https://matplotlib.org/</dc:title>
     </cc:Agent>
    </dc:creator>
   </cc:Work>
  </rdf:RDF>
 </metadata>
 <defs>
  <style type="text/css">*{stroke-linejoin: round; stroke-linecap: butt}</style>
 </defs>
 <g id="figure_1">
  <g id="patch_1">
   <path d="M 0 345.6 
L 460.8 345.6 
L 460.8 0 
L 0 0 
z
" style="fill: #ffffff"/>
  </g>
  <g id="axes_1">
   <g id="patch_2">
    <path d="M 57.6 307.584 
L 343.296 307.584 
L 343.296 41.472 
L 57.6 41.472 
z
" style="fill: #ffffff"/>
   </g>
   <g id="PathCollection_1">
    <path clip-path="url(#pea056349fb)" style="fill: #0000b6"/>
   </g>
   <g id="PathCollection_2">
    <path clip-path="url(#pea056349fb)" style="fill: #0018ff"/>
   </g>
   <g id="PathCollection_3">
    <path clip-path="url(#pea056349fb)" style="fill: #0080ff"/>
   </g>
   <g id="PathCollection_4">
    <path d="M 57.62857 52.900858 
L 57.873385 52.741488 
L 58.86863 52.070437 
L 59.303526 51.78138 
L 59.789545 51.4512 
L 60.573988 50.913583 
L 60.809147 50.749422 
L 61.622647 50.191428 
L 63.181423 49.09908 
L 63.235167 49.061132 
L 63.589977 48.812372 
L 64.553123 48.1248 
L 64.836682 47.92181 
L 64.939647 47.846754 
L 65.901687 47.15052 
L 66.218666 46.919351 
L 66.393052 46.789517 
L 67.056469 46.303785 
L 67.889246 45.683224 
L 68.49555 45.237193 
L 69.079805 44.7984 
L 69.725424 44.309084 
L 69.942927 44.141378 
L 70.757844 43.523184 
L 72.148953 42.44628 
L 72.294129 42.332997 
L 72.571267 42.114752 
L 73.004668 41.775401 
L 73.389579 41.472 
L 72.86569 41.472 
L 71.341978 41.472 
L 69.818266 41.472 
L 68.294554 41.472 
L 66.770842 41.472 
L 65.24713 41.472 
L 63.723418 41.472 
L 62.199706 41.472 
L 60.675994 41.472 
L 59.152282 41.472 
L 57.62857 41.472 
L 57.62857 44.7984 
L 57.62857 48.1248 
L 57.62857 51.4512 
" clip-path="url(#pea056349fb)" style="fill: #00e4f8"/>
   </g>
   <g id="PathCollection_5">
    <path d="M 73.389579 41.472 
L 73.004668 41.775401 
L 72.571267 42.114752 
L 72.294129 42.332997 
L 72.148953 42.44628 
L 70.757844 43.523184 
L 69.942927 44.141378 
L 69.725424 44.309084 
L 69.079805 44.7984 
L 68.49555 45.237193 
L 67.889246 45.683224 
L 67.056469 46.303785 
L 66.393052 46.789517 
L 66.218666 46.919351 
L 65.901687 47.15052 
L 64.939647 47.846754 
L 64.836682 47.92181 
L 64.553123 48.1248 
L 63.589977 48.812372 
L 63.235167 49.061132 
L 63.181423 49.09908 
L 61.622647 50.191428 
L 60.809147 50.749422 
L 60.573988 50.913583 
L 59.789545 51.4512 
L 59.303526 51.78138 
L 58.86863 52.070437 
L 57.873385 52.741488 
L 57.62857 52.900858 
L 57.62857 54.7776 
L 57.62857 58.104 
L 57.62857 61.4304 
L 57.62857 64.7568 
L 57.62857 68.0832 
L 57.62857 71.4096 
L 57.62857 74.736 
L 57.62857 78.0624 
L 57.62857 81.3888 
L 57.62857 84.7152 
L 57.62857 88.0416 
L 57.62857 91.368 
L 57.62857 94.6944 
L 57.62857 98.0208 
L 57.62857 101.3472 
L 57.62857 104.000892 
L 57.764547 103.956938 
L 58.688933 103.662068 
L 59.781623 103.299692 
L 60.378916 103.107867 
L 61.013132 102.89673 
L 61.337969 102.792352 
L 62.747428 102.32148 
L 63.133635 102.19172 
L 63.595344 102.037426 
L 65.025292 101.5478 
L 65.348119 101.438521 
L 65.614017 101.3472 
L 67.551657 100.675424 
L 68.41184 100.37292 
L 69.238095 100.080635 
L 69.441608 100.005953 
L 70.147378 99.75537 
L 70.628325 99.578767 
L 71.855269 99.141362 
L 72.713286 98.824036 
L 72.998715 98.721901 
L 74.286571 98.245288 
L 74.463166 98.181835 
L 74.895162 98.0208 
L 75.845391 97.663871 
L 75.991601 97.607137 
L 77.062884 97.204453 
L 77.973188 96.849873 
L 78.687078 96.579547 
L 79.277845 96.348449 
L 79.65307 96.20626 
L 81.021998 95.66868 
L 81.397559 95.520274 
L 83.46048 94.6944 
L 83.509671 94.674504 
L 83.590129 94.641541 
L 83.869384 94.527382 
L 85.609496 93.817623 
L 85.845488 93.72012 
L 87.36676 93.087538 
L 87.812963 92.895623 
L 88.350105 92.671358 
L 89.196369 92.307062 
L 89.918029 92.004388 
L 91.129184 91.478939 
L 91.168168 91.462521 
L 91.385847 91.368 
L 92.458784 90.898283 
L 93.001593 90.652716 
L 93.980022 90.220965 
L 94.456373 90.004453 
L 94.989012 89.769198 
L 96.639424 89.01588 
L 96.745097 88.967321 
L 98.736031 88.0416 
L 98.752868 88.033724 
L 98.757586 88.031465 
L 98.804877 88.008971 
L 99.5508 87.654851 
L 100.75606 87.082936 
L 100.78859 87.06732 
L 102.512027 86.234214 
L 103.108126 85.936907 
L 103.33993 85.822391 
L 103.33993 84.7152 
L 103.33993 81.3888 
L 103.33993 78.0624 
L 103.33993 74.736 
L 103.33993 71.4096 
L 103.33993 68.0832 
L 103.33993 64.7568 
L 103.33993 61.4304 
L 103.33993 58.104 
L 103.33993 54.7776 
L 103.33993 51.4512 
L 103.33993 48.1248 
L 103.33993 44.7984 
L 103.33993 41.472 
L 101.816218 41.472 
L 100.292506 41.472 
L 98.768794 41.472 
L 97.245082 41.472 
L 95.72137 41.472 
L 94.197658 41.472 
L 92.673946 41.472 
L 91.150234 41.472 
L 89.626522 41.472 
L 88.10281 41.472 
L 86.579098 41.472 
L 85.055386 41.472 
L 83.531674 41.472 
L 82.007962 41.472 
L 80.48425 41.472 
L 78.960538 41.472 
L 77.436826 41.472 
L 75.913114 41.472 
L 74.389402 41.472 
" clip-path="url(#pea056349fb)" style="fill: #53ffa4"/>
   </g>
   <g id="PathCollection_6">
    <path d="M 103.33993 85.822391 
L 103.108126 85.936907 
L 102.512027 86.234214 
L 100.78859 87.06732 
L 100.75606 87.082936 
L 99.5508 87.654851 
L 98.804877 88.008971 
L 98.757586 88.031465 
L 98.752868 88.033724 
L 98.736031 88.0416 
L 96.745097 88.967321 
L 96.639424 89.01588 
L 94.989012 89.769198 
L 94.456373 90.004453 
L 93.980022 90.220965 
L 93.001593 90.652716 
L 92.458784 90.898283 
L 91.385847 91.368 
L 91.168168 91.462521 
L 91.129184 91.478939 
L 89.918029 92.004388 
L 89.196369 92.307062 
L 88.350105 92.671358 
L 87.812963 92.895623 
L 87.36676 93.087538 
L 85.845488 93.72012 
L 85.609496 93.817623 
L 83.869384 94.527382 
L 83.590129 94.641541 
L 83.509671 94.674504 
L 83.46048 94.6944 
L 81.397559 95.520274 
L 81.021998 95.66868 
L 79.65307 96.20626 
L 79.277845 96.348449 
L 78.687078 96.579547 
L 77.973188 96.849873 
L 77.062884 97.204453 
L 75.991601 97.607137 
L 75.845391 97.663871 
L 74.895162 98.0208 
L 74.463166 98.181835 
L 74.286571 98.245288 
L 72.998715 98.721901 
L 72.713286 98.824036 
L 71.855269 99.141362 
L 70.628325 99.578767 
L 70.147378 99.75537 
L 69.441608 100.005953 
L 69.238095 100.080635 
L 68.41184 100.37292 
L 67.551657 100.675424 
L 65.614017 101.3472 
L 65.348119 101.438521 
L 65.025292 101.5478 
L 63.595344 102.037426 
L 63.133635 102.19172 
L 62.747428 102.32148 
L 61.337969 102.792352 
L 61.013132 102.89673 
L 60.378916 103.107867 
L 59.781623 103.299692 
L 58.688933 103.662068 
L 57.764547 103.956938 
L 57.62857 104.000892 
L 57.62857 104.6736 
L 57.62857 108 
L 57.62857 111.3264 
L 57.62857 114.6528 
L 57.62857 117.9792 
L 57.62857 121.3056 
L 57.62857 124.632 
L 57.62857 127.9584 
L 57.62857 131.2848 
L 57.62857 134.6112 
L 57.62857 137.9376 
L 57.62857 141.264 
L 57.62857 144.5904 
L 57.62857 147.9168 
L 57.62857 148.44152 
L 57.860369 148.422839 
L 58.674279 148.349041 
L 59.546821 148.273569 
L 61.912581 148.0588 
L 62.056548 148.046252 
L 62.317809 148.023597 
L 62.40113 148.016416 
L 63.490922 147.9168 
L 65.085473 147.770619 
L 65.447207 147.735877 
L 65.652662 147.71624 
L 67.849402 147.514265 
L 68.845879 147.418255 
L 70.100882 147.303005 
L 70.608597 147.25363 
L 72.250911 147.094883 
L 73.185701 147.00497 
L 73.36291 146.988579 
L 73.837864 146.94252 
L 75.397261 146.790647 
L 75.497718 146.779718 
L 76.313412 146.700148 
L 76.478646 146.682191 
L 78.312898 146.502946 
L 78.603682 146.471186 
L 79.30438 146.402601 
L 79.672542 146.362431 
L 81.226174 146.210088 
L 81.710729 146.156951 
L 82.294319 146.099631 
L 82.869193 146.036654 
L 84.13701 145.911904 
L 84.818893 145.836821 
L 85.283195 145.791058 
L 86.068696 145.704653 
L 87.045325 145.608217 
L 87.928214 145.510595 
L 88.270972 145.476692 
L 89.271147 145.366215 
L 89.951034 145.29884 
L 91.038732 145.178064 
L 91.257613 145.156336 
L 92.47665 145.021114 
L 92.854048 144.983579 
L 94.150488 144.839007 
L 94.243077 144.829782 
L 95.685314 144.669113 
L 95.754272 144.66223 
L 96.395598 144.5904 
L 97.227294 144.49665 
L 97.263731 144.492107 
L 98.65215 144.335756 
L 98.899604 144.30483 
L 100.210166 144.156433 
L 100.378856 144.135295 
L 101.547209 144.00313 
L 102.118073 143.931423 
L 103.191724 143.809293 
L 103.33993 143.789524 
L 103.33993 141.264 
L 103.33993 137.9376 
L 103.33993 134.6112 
L 103.33993 131.2848 
L 103.33993 127.9584 
L 103.33993 124.632 
L 103.33993 121.3056 
L 103.33993 117.9792 
L 103.33993 114.6528 
L 103.33993 111.3264 
L 103.33993 108 
L 103.33993 104.6736 
L 103.33993 101.3472 
L 103.33993 98.0208 
L 103.33993 94.6944 
L 103.33993 91.368 
L 103.33993 88.0416 
" clip-path="url(#pea056349fb)" style="fill: #a4ff53"/>
   </g>
   <g id="PathCollection_7">
    <path d="M 103.33993 143.789524 
L 103.191724 143.809293 
L 102.118073 143.931423 
L 101.547209 144.00313 
L 100.378856 144.135295 
L 100.210166 144.156433 
L 98.899604 144.30483 
L 98.65215 144.335756 
L 97.263731 144.492107 
L 97.227294 144.49665 
L 96.395598 144.5904 
L 95.754272 144.66223 
L 95.685314 144.669113 
L 94.243077 144.829782 
L 94.150488 144.839007 
L 92.854048 144.983579 
L 92.47665 145.021114 
L 91.257613 145.156336 
L 91.038732 145.178064 
L 89.951034 145.29884 
L 89.271147 145.366215 
L 88.270972 145.476692 
L 87.928214 145.510595 
L 87.045325 145.608217 
L 86.068696 145.704653 
L 85.283195 145.791058 
L 84.818893 145.836821 
L 84.13701 145.911904 
L 82.869193 146.036654 
L 82.294319 146.099631 
L 81.710729 146.156951 
L 81.226174 146.210088 
L 79.672542 146.362431 
L 79.30438 146.402601 
L 78.603682 146.471186 
L 78.312898 146.502946 
L 76.478646 146.682191 
L 76.313412 146.700148 
L 75.497718 146.779718 
L 75.397261 146.790647 
L 73.837864 146.94252 
L 73.36291 146.988579 
L 73.185701 147.00497 
L 72.250911 147.094883 
L 70.608597 147.25363 
L 70.100882 147.303005 
L 68.845879 147.418255 
L 67.849402 147.514265 
L 65.652662 147.71624 
L 65.447207 147.735877 
L 65.085473 147.770619 
L 63.490922 147.9168 
L 62.40113 148.016416 
L 62.317809 148.023597 
L 62.056548 148.046252 
L 61.912581 148.0588 
L 59.546821 148.273569 
L 58.674279 148.349041 
L 57.860369 148.422839 
L 57.62857 148.44152 
L 57.62857 151.2432 
L 57.62857 154.5696 
L 57.62857 157.896 
L 57.62857 161.2224 
L 57.62857 164.5488 
L 57.62857 167.8752 
L 57.62857 171.2016 
L 57.62857 174.528 
L 57.62857 177.8544 
L 57.62857 181.1808 
L 57.62857 184.5072 
L 57.62857 187.8336 
L 57.62857 188.993697 
L 58.033026 189.028337 
L 58.182118 189.042046 
L 60.051257 189.197455 
L 60.308151 189.221304 
L 61.032327 189.281964 
L 61.353147 189.311886 
L 62.983255 189.449442 
L 63.406422 189.489294 
L 64.030349 189.542338 
L 64.527688 189.589394 
L 65.912249 189.707984 
L 66.506105 189.764722 
L 67.027048 189.809678 
L 67.705865 189.874839 
L 68.838147 189.973287 
L 69.607248 190.047844 
L 70.022383 190.084212 
L 70.887807 190.168504 
L 71.760848 190.245568 
L 72.709901 190.338925 
L 73.016307 190.366179 
L 74.07365 190.470685 
L 74.68025 190.525051 
L 75.814117 190.638246 
L 76.008774 190.655826 
L 77.263536 190.781693 
L 77.596245 190.811972 
L 78.919952 190.946098 
L 78.999734 190.953416 
L 80.457614 191.101852 
L 80.508722 191.106576 
L 81.028129 191.16 
L 81.989272 191.258504 
L 82.027468 191.262805 
L 83.418942 191.406103 
L 83.656761 191.433078 
L 84.977502 191.570481 
L 85.136721 191.588673 
L 86.325796 191.712981 
L 86.860598 191.77454 
L 87.964094 191.891091 
L 88.247766 191.923985 
L 89.228866 192.028117 
L 90.069143 192.126283 
L 90.948991 192.22064 
L 91.36067 192.269093 
L 92.128025 192.351793 
L 93.282581 192.488706 
L 93.932131 192.559445 
L 94.475503 192.624366 
L 95.023137 192.684304 
L 96.501105 192.862233 
L 96.913451 192.907841 
L 97.592338 192.990193 
L 97.914061 193.025957 
L 99.724919 193.247308 
L 99.892885 193.26618 
L 100.711252 193.366982 
L 100.800649 193.377077 
L 101.888569 193.51212 
L 102.772657 193.621525 
L 102.954486 193.644943 
L 103.33993 193.691289 
L 103.33993 191.16 
L 103.33993 187.8336 
L 103.33993 184.5072 
L 103.33993 181.1808 
L 103.33993 177.8544 
L 103.33993 174.528 
L 103.33993 171.2016 
L 103.33993 167.8752 
L 103.33993 164.5488 
L 103.33993 161.2224 
L 103.33993 157.896 
L 103.33993 154.5696 
L 103.33993 151.2432 
L 103.33993 147.9168 
L 103.33993 144.5904 
" clip-path="url(#pea056349fb)" style="fill: #f8f500"/>
   </g>
   <g id="PathCollection_8">
    <path d="M 103.33993 193.691289 
L 102.954486 193.644943 
L 102.772657 193.621525 
L 101.888569 193.51212 
L 100.800649 193.377077 
L 100.711252 193.366982 
L 99.892885 193.26618 
L 99.724919 193.247308 
L 97.914061 193.025957 
L 97.592338 192.990193 
L 96.913451 192.907841 
L 96.501105 192.862233 
L 95.023137 192.684304 
L 94.475503 192.624366 
L 93.932131 192.559445 
L 93.282581 192.488706 
L 92.128025 192.351793 
L 91.36067 192.269093 
L 90.948991 192.22064 
L 90.069143 192.126283 
L 89.228866 192.028117 
L 88.247766 191.923985 
L 87.964094 191.891091 
L 86.860598 191.77454 
L 86.325796 191.712981 
L 85.136721 191.588673 
L 84.977502 191.570481 
L 83.656761 191.433078 
L 83.418942 191.406103 
L 82.027468 191.262805 
L 81.989272 191.258504 
L 81.028129 191.16 
L 80.508722 191.106576 
L 80.457614 191.101852 
L 78.999734 190.953416 
L 78.919952 190.946098 
L 77.596245 190.811972 
L 77.263536 190.781693 
L 76.008774 190.655826 
L 75.814117 190.638246 
L 74.68025 190.525051 
L 74.07365 190.470685 
L 73.016307 190.366179 
L 72.709901 190.338925 
L 71.760848 190.245568 
L 70.887807 190.168504 
L 70.022383 190.084212 
L 69.607248 190.047844 
L 68.838147 189.973287 
L 67.705865 189.874839 
L 67.027048 189.809678 
L 66.506105 189.764722 
L 65.912249 189.707984 
L 64.527688 189.589394 
L 64.030349 189.542338 
L 63.406422 189.489294 
L 62.983255 189.449442 
L 61.353147 189.311886 
L 61.032327 189.281964 
L 60.308151 189.221304 
L 60.051257 189.197455 
L 58.182118 189.042046 
L 58.033026 189.028337 
L 57.62857 188.993697 
L 57.62857 191.16 
L 57.62857 194.4864 
L 57.62857 197.8128 
L 57.62857 201.1392 
L 57.62857 204.4656 
L 57.62857 207.792 
L 57.62857 211.1184 
L 57.62857 214.4448 
L 57.62857 217.7712 
L 57.62857 221.0976 
L 57.62857 224.424 
L 57.62857 227.701536 
L 57.648938 227.705933 
L 57.851551 227.7504 
L 58.898235 227.980125 
L 59.57303 228.130868 
L 60.856584 228.414653 
L 61.3436 228.524547 
L 62.230168 228.72468 
L 63.179015 228.93888 
L 63.324225 228.972876 
L 64.089653 229.146575 
L 64.395907 229.218505 
L 65.937286 229.570127 
L 66.510712 229.705799 
L 67.009278 229.820136 
L 67.805493 230.009137 
L 68.690185 230.213101 
L 69.700219 230.454642 
L 69.926367 230.507059 
L 71.223567 230.818299 
L 71.437547 230.868163 
L 72.300612 231.0768 
L 72.840915 231.207375 
L 72.89293 231.220368 
L 74.180619 231.53259 
L 74.652467 231.651094 
L 75.753132 231.919973 
L 76.089196 232.004835 
L 76.918604 232.208124 
L 78.091457 232.505918 
L 78.662617 232.646974 
L 79.288791 232.80684 
L 79.650697 232.896519 
L 81.539978 233.38155 
L 81.569276 233.388866 
L 81.724429 233.42892 
L 82.204845 233.552264 
L 82.747814 233.694383 
L 83.96599 234.010462 
L 84.201938 234.071715 
L 85.454292 234.4032 
L 86.324492 234.633431 
L 87.049347 234.828431 
L 88.164977 235.12602 
L 88.674076 235.264464 
L 89.089444 235.37748 
L 90.525128 235.767862 
L 90.792266 235.842951 
L 91.472887 236.029075 
L 91.957628 236.165815 
L 93.229975 236.515737 
L 94.009392 236.737356 
L 94.367147 236.836314 
L 95.454291 237.146543 
L 95.928071 237.278351 
L 97.230555 237.653038 
L 97.258144 237.660758 
L 97.496585 237.7296 
L 98.620343 238.053682 
L 98.964151 238.156083 
L 100.146373 238.499781 
L 100.456253 238.592621 
L 101.307169 238.840899 
L 102.488332 239.196886 
L 103.031229 239.35659 
L 103.33993 239.449719 
L 103.33993 237.7296 
L 103.33993 234.4032 
L 103.33993 231.0768 
L 103.33993 227.7504 
L 103.33993 224.424 
L 103.33993 221.0976 
L 103.33993 217.7712 
L 103.33993 214.4448 
L 103.33993 211.1184 
L 103.33993 207.792 
L 103.33993 204.4656 
L 103.33993 201.1392 
L 103.33993 197.8128 
L 103.33993 194.4864 
" clip-path="url(#pea056349fb)" style="fill: #ff9400"/>
   </g>
   <g id="PathCollection_9">
    <path d="M 103.33993 239.449719 
L 103.031229 239.35659 
L 102.488332 239.196886 
L 101.307169 238.840899 
L 100.456253 238.592621 
L 100.146373 238.499781 
L 98.964151 238.156083 
L 98.620343 238.053682 
L 97.496585 237.7296 
L 97.258144 237.660758 
L 97.230555 237.653038 
L 95.928071 237.278351 
L 95.454291 237.146543 
L 94.367147 236.836314 
L 94.009392 236.737356 
L 93.229975 236.515737 
L 91.957628 236.165815 
L 91.472887 236.029075 
L 90.792266 235.842951 
L 90.525128 235.767862 
L 89.089444 235.37748 
L 88.674076 235.264464 
L 88.164977 235.12602 
L 87.049347 234.828431 
L 86.324492 234.633431 
L 85.454292 234.4032 
L 84.201938 234.071715 
L 83.96599 234.010462 
L 82.747814 233.694383 
L 82.204845 233.552264 
L 81.724429 233.42892 
L 81.569276 233.388866 
L 81.539978 233.38155 
L 79.650697 232.896519 
L 79.288791 232.80684 
L 78.662617 232.646974 
L 78.091457 232.505918 
L 76.918604 232.208124 
L 76.089196 232.004835 
L 75.753132 231.919973 
L 74.652467 231.651094 
L 74.180619 231.53259 
L 72.89293 231.220368 
L 72.840915 231.207375 
L 72.300612 231.0768 
L 71.437547 230.868163 
L 71.223567 230.818299 
L 69.926367 230.507059 
L 69.700219 230.454642 
L 68.690185 230.213101 
L 67.805493 230.009137 
L 67.009278 229.820136 
L 66.510712 229.705799 
L 65.937286 229.570127 
L 64.395907 229.218505 
L 64.089653 229.146575 
L 63.324225 228.972876 
L 63.179015 228.93888 
L 62.230168 228.72468 
L 61.3436 228.524547 
L 60.856584 228.414653 
L 59.57303 228.130868 
L 58.898235 227.980125 
L 57.851551 227.7504 
L 57.648938 227.705933 
L 57.62857 227.701536 
L 57.62857 227.7504 
L 57.62857 231.0768 
L 57.62857 234.4032 
L 57.62857 237.7296 
L 57.62857 241.056 
L 57.62857 244.3824 
L 57.62857 247.7088 
L 57.62857 251.0352 
L 57.62857 254.3616 
L 57.62857 257.688 
L 57.62857 261.0144 
L 57.62857 264.3408 
L 57.62857 266.619776 
L 58.045437 266.75714 
L 58.205744 266.811279 
L 59.585347 267.275594 
L 60.737174 267.6672 
L 61.799165 268.029395 
L 63.093272 268.475221 
L 63.575488 268.64148 
L 64.132988 268.834984 
L 64.282487 268.887699 
L 65.946096 269.467695 
L 66.519941 269.671244 
L 66.990473 269.836045 
L 67.915035 270.165076 
L 68.568725 270.39506 
L 69.787494 270.831418 
L 69.84517 270.851804 
L 70.239899 270.9936 
L 71.185712 271.334741 
L 71.56136 271.472532 
L 72.69666 271.884463 
L 73.060134 272.01841 
L 73.797083 272.286685 
L 75.223705 272.81496 
L 75.545193 272.932703 
L 76.336923 273.227264 
L 76.402604 273.251399 
L 76.654885 273.34572 
L 77.969446 273.83837 
L 78.220245 273.932553 
L 79.241741 274.32 
L 80.116885 274.652195 
L 81.392459 275.141262 
L 81.791208 275.29428 
L 82.408977 275.532872 
L 82.597364 275.606718 
L 84.183963 276.222394 
L 84.833838 276.478744 
L 85.246407 276.639632 
L 86.310974 277.061063 
L 86.765617 277.239212 
L 87.787644 277.6464 
L 88.080588 277.763518 
L 88.128737 277.783049 
L 89.341114 278.26947 
L 90.043016 278.555645 
L 90.911205 278.906187 
L 91.429561 279.118579 
L 91.910349 279.313399 
L 93.573769 279.99852 
L 93.695717 280.048848 
L 94.697751 280.46656 
L 95.557597 280.824706 
L 95.781784 280.91817 
L 95.911495 280.9728 
L 97.859442 281.795095 
L 98.215838 281.94708 
L 99.579372 282.529634 
L 99.990613 282.708093 
L 100.548903 282.94787 
L 101.358838 283.3007 
L 102.122578 283.630388 
L 103.312008 284.15204 
L 103.33993 284.164233 
L 103.33993 280.9728 
L 103.33993 277.6464 
L 103.33993 274.32 
L 103.33993 270.9936 
L 103.33993 267.6672 
L 103.33993 264.3408 
L 103.33993 261.0144 
L 103.33993 257.688 
L 103.33993 254.3616 
L 103.33993 251.0352 
L 103.33993 247.7088 
L 103.33993 244.3824 
L 103.33993 241.056 
" clip-path="url(#pea056349fb)" style="fill: #ff3800"/>
   </g>
   <g id="PathCollection_10">
    <path d="M 103.33993 284.164233 
L 103.312008 284.15204 
L 102.122578 283.630388 
L 101.358838 283.3007 
L 100.548903 282.94787 
L 99.990613 282.708093 
L 99.579372 282.529634 
L 98.215838 281.94708 
L 97.859442 281.795095 
L 95.911495 280.9728 
L 95.781784 280.91817 
L 95.557597 280.824706 
L 94.697751 280.46656 
L 93.695717 280.048848 
L 93.573769 279.99852 
L 91.910349 279.313399 
L 91.429561 279.118579 
L 90.911205 278.906187 
L 90.043016 278.555645 
L 89.341114 278.26947 
L 88.128737 277.783049 
L 88.080588 277.763518 
L 87.787644 277.6464 
L 86.765617 277.239212 
L 86.310974 277.061063 
L 85.246407 276.639632 
L 84.833838 276.478744 
L 84.183963 276.222394 
L 82.597364 275.606718 
L 82.408977 275.532872 
L 81.791208 275.29428 
L 81.392459 275.141262 
L 80.116885 274.652195 
L 79.241741 274.32 
L 78.220245 273.932553 
L 77.969446 273.83837 
L 76.654885 273.34572 
L 76.402604 273.251399 
L 76.336923 273.227264 
L 75.545193 272.932703 
L 75.223705 272.81496 
L 73.797083 272.286685 
L 73.060134 272.01841 
L 72.69666 271.884463 
L 71.56136 271.472532 
L 71.185712 271.334741 
L 70.239899 270.9936 
L 69.84517 270.851804 
L 69.787494 270.831418 
L 68.568725 270.39506 
L 67.915035 270.165076 
L 66.990473 269.836045 
L 66.519941 269.671244 
L 65.946096 269.467695 
L 64.282487 268.887699 
L 64.132988 268.834984 
L 63.575488 268.64148 
L 63.093272 268.475221 
L 61.799165 268.029395 
L 60.737174 267.6672 
L 59.585347 267.275594 
L 58.205744 266.811279 
L 58.045437 266.75714 
L 57.62857 266.619776 
L 57.62857 267.6672 
L 57.62857 270.9936 
L 57.62857 274.32 
L 57.62857 277.6464 
L 57.62857 280.9728 
L 57.62857 284.2992 
L 57.62857 287.6256 
L 57.62857 290.952 
L 57.62857 294.2784 
L 57.62857 297.6048 
L 57.62857 300.9312 
L 57.62857 304.2576 
L 57.62857 307.584 
L 59.152282 307.584 
L 60.675994 307.584 
L 62.199706 307.584 
L 63.723418 307.584 
L 65.24713 307.584 
L 66.770842 307.584 
L 68.294554 307.584 
L 69.818266 307.584 
L 71.341978 307.584 
L 72.86569 307.584 
L 74.389402 307.584 
L 75.913114 307.584 
L 77.436826 307.584 
L 78.960538 307.584 
L 80.48425 307.584 
L 82.007962 307.584 
L 83.531674 307.584 
L 85.055386 307.584 
L 86.579098 307.584 
L 88.10281 307.584 
L 89.626522 307.584 
L 91.150234 307.584 
L 92.673946 307.584 
L 94.197658 307.584 
L 95.72137 307.584 
L 97.245082 307.584 
L 98.768794 307.584 
L 100.292506 307.584 
L 101.816218 307.584 
L 103.33993 307.584 
L 103.33993 304.2576 
L 103.33993 300.9312 
L 103.33993 297.6048 
L 103.33993 294.2784 
L 103.33993 290.952 
L 103.33993 287.6256 
L 103.33993 284.2992 
" clip-path="url(#pea056349fb)" style="fill: #b60000"/>
   </g>
   <g id="PathCollection_11">
    <path clip-path="url(#pea056349fb)" style="fill: #0000b6"/>
   </g>
   <g id="PathCollection_12">
    <path clip-path="url(#pea056349fb)" style="fill: #0018ff"/>
   </g>
   <g id="PathCollection_13">
    <path clip-path="url(#pea056349fb)" style="fill: #0080ff"/>
   </g>
   <g id="PathCollection_14">
    <path clip-path="url(#pea056349fb)" style="fill: #00e4f8"/>
   </g>
   <g id="PathCollection_15">
    <path d="M 100.4544 87.209177 
L 100.904474 87.014696 
L 103.365735 85.824 
L 106.93399 84.0541 
L 113.31923 80.596793 
L 114.44673 80.011421 
L 115.271194 79.55168 
L 116.006433 79.121344 
L 119.846608 76.9536 
L 121.936064 75.681531 
L 124.092343 74.35552 
L 128.12503 71.79418 
L 132.591193 68.723655 
L 132.97969 68.470535 
L 133.538568 68.0832 
L 138.014038 64.890007 
L 142.018079 61.81088 
L 143.69728 60.469792 
L 144.267676 60.041872 
L 145.275733 59.2128 
L 146.985691 57.708982 
L 148.29675 56.61472 
L 150.623582 54.577572 
L 155.224451 50.3424 
L 156.238085 49.37878 
L 161.473161 44.07008 
L 161.882798 43.635023 
L 163.877605 41.472 
L 157.11744 41.472 
L 149.02272 41.472 
L 140.928 41.472 
L 132.83328 41.472 
L 124.73856 41.472 
L 116.64384 41.472 
L 108.54912 41.472 
L 100.4544 41.472 
L 100.4544 50.3424 
L 100.4544 59.2128 
L 100.4544 68.0832 
L 100.4544 76.9536 
L 100.4544 85.824 
" clip-path="url(#pea056349fb)" style="fill: #53ffa4"/>
   </g>
   <g id="PathCollection_16">
    <path d="M 163.877605 41.472 
L 161.882798 43.635023 
L 161.473161 44.07008 
L 156.238085 49.37878 
L 155.224451 50.3424 
L 150.623582 54.577572 
L 148.29675 56.61472 
L 146.985691 57.708982 
L 145.275733 59.2128 
L 144.267676 60.041872 
L 143.69728 60.469792 
L 142.018079 61.81088 
L 138.014038 64.890007 
L 133.538568 68.0832 
L 132.97969 68.470535 
L 132.591193 68.723655 
L 128.12503 71.79418 
L 124.092343 74.35552 
L 121.936064 75.681531 
L 119.846608 76.9536 
L 116.006433 79.121344 
L 115.271194 79.55168 
L 114.44673 80.011421 
L 113.31923 80.596793 
L 106.93399 84.0541 
L 103.365735 85.824 
L 100.904474 87.014696 
L 100.4544 87.209177 
L 100.4544 94.6944 
L 100.4544 103.5648 
L 100.4544 112.4352 
L 100.4544 121.3056 
L 100.4544 130.176 
L 100.4544 139.0464 
L 100.4544 144.102154 
L 102.296163 143.91889 
L 104.371744 143.624075 
L 111.956429 142.780216 
L 115.425078 142.270704 
L 117.763131 142.007547 
L 122.696439 141.284208 
L 126.395355 140.861958 
L 132.497695 139.93421 
L 133.14076 139.859857 
L 138.497867 139.0464 
L 140.626649 138.716172 
L 141.360526 138.572427 
L 148.413043 137.433465 
L 149.732487 137.168671 
L 154.675484 136.370443 
L 160.685275 135.136676 
L 163.551482 134.652982 
L 167.160603 133.891683 
L 168.410284 133.680586 
L 172.599277 132.77408 
L 176.921328 131.816619 
L 178.535489 131.473998 
L 183.769581 130.176 
L 186.641678 129.467337 
L 187.433174 129.239526 
L 193.471377 127.57792 
L 194.86176 127.185186 
L 195.443506 126.987023 
L 199.31136 125.856803 
L 202.551271 124.740453 
L 207.457234 123.246826 
L 212.709854 121.3056 
L 213.645829 120.949374 
L 213.968755 120.807509 
L 219.478077 118.678772 
L 227.411973 115.03328 
L 227.503363 114.989856 
L 232.611477 112.4352 
L 234.358774 111.515221 
L 235.069263 111.075581 
L 237.200502 109.83712 
L 241.448384 107.272793 
L 245.9535 104.109414 
L 246.284927 103.896995 
L 246.744745 103.5648 
L 251.20717 100.225919 
L 254.604438 97.29248 
L 256.398307 95.667677 
L 257.441951 94.6944 
L 258.380902 93.669919 
L 259.991787 92.09632 
L 263.355103 88.486233 
L 265.615636 85.824 
L 267.894695 83.030933 
L 270.397379 79.55168 
L 271.748663 77.546012 
L 271.919023 77.319893 
L 272.147331 76.9536 
L 272.40973 76.46549 
L 272.765348 75.899709 
L 273.801365 74.35552 
L 274.764662 72.818418 
L 277.402025 68.0832 
L 278.066397 66.834914 
L 280.555199 61.81088 
L 280.600456 61.734252 
L 281.841354 59.2128 
L 282.319181 58.141907 
L 282.590082 57.377714 
L 282.915172 56.61472 
L 284.387121 52.803448 
L 285.414583 50.3424 
L 285.783818 49.411889 
L 287.69645 44.07008 
L 288.286192 42.222412 
L 288.519663 41.472 
L 286.63296 41.472 
L 278.53824 41.472 
L 270.44352 41.472 
L 262.3488 41.472 
L 254.25408 41.472 
L 246.15936 41.472 
L 238.06464 41.472 
L 229.96992 41.472 
L 221.8752 41.472 
L 213.78048 41.472 
L 205.68576 41.472 
L 197.59104 41.472 
L 189.49632 41.472 
L 181.4016 41.472 
L 173.30688 41.472 
L 165.21216 41.472 
" clip-path="url(#pea056349fb)" style="fill: #a4ff53"/>
   </g>
   <g id="PathCollection_17">
    <path d="M 288.519663 41.472 
L 288.286192 42.222412 
L 287.69645 44.07008 
L 285.783818 49.411889 
L 285.414583 50.3424 
L 284.387121 52.803448 
L 282.915172 56.61472 
L 282.590082 57.377714 
L 282.319181 58.141907 
L 281.841354 59.2128 
L 280.600456 61.734252 
L 280.555199 61.81088 
L 278.066397 66.834914 
L 277.402025 68.0832 
L 274.764662 72.818418 
L 273.801365 74.35552 
L 272.765348 75.899709 
L 272.40973 76.46549 
L 272.147331 76.9536 
L 271.919023 77.319893 
L 271.748663 77.546012 
L 270.397379 79.55168 
L 267.894695 83.030933 
L 265.615636 85.824 
L 263.355103 88.486233 
L 259.991787 92.09632 
L 258.380902 93.669919 
L 257.441951 94.6944 
L 256.398307 95.667677 
L 254.604438 97.29248 
L 251.20717 100.225919 
L 246.744745 103.5648 
L 246.284927 103.896995 
L 245.9535 104.109414 
L 241.448384 107.272793 
L 237.200502 109.83712 
L 235.069263 111.075581 
L 234.358774 111.515221 
L 232.611477 112.4352 
L 227.503363 114.989856 
L 227.411973 115.03328 
L 219.478077 118.678772 
L 213.968755 120.807509 
L 213.645829 120.949374 
L 212.709854 121.3056 
L 207.457234 123.246826 
L 202.551271 124.740453 
L 199.31136 125.856803 
L 195.443506 126.987023 
L 194.86176 127.185186 
L 193.471377 127.57792 
L 187.433174 129.239526 
L 186.641678 129.467337 
L 183.769581 130.176 
L 178.535489 131.473998 
L 176.921328 131.816619 
L 172.599277 132.77408 
L 168.410284 133.680586 
L 167.160603 133.891683 
L 163.551482 134.652982 
L 160.685275 135.136676 
L 154.675484 136.370443 
L 149.732487 137.168671 
L 148.413043 137.433465 
L 141.360526 138.572427 
L 140.626649 138.716172 
L 138.497867 139.0464 
L 133.14076 139.859857 
L 132.497695 139.93421 
L 126.395355 140.861958 
L 122.696439 141.284208 
L 117.763131 142.007547 
L 115.425078 142.270704 
L 111.956429 142.780216 
L 104.371744 143.624075 
L 102.296163 143.91889 
L 100.4544 144.102154 
L 100.4544 147.9168 
L 100.4544 156.7872 
L 100.4544 165.6576 
L 100.4544 174.528 
L 100.4544 183.3984 
L 100.4544 192.2688 
L 100.4544 193.328366 
L 100.879053 193.392243 
L 106.874955 194.103392 
L 110.757273 194.68855 
L 115.503834 195.284751 
L 117.92765 195.665192 
L 121.248025 196.093817 
L 129.455081 197.437283 
L 130.809406 197.623073 
L 135.136701 198.362631 
L 135.340757 198.391443 
L 136.178173 198.54112 
L 143.716345 199.873554 
L 145.063294 200.112616 
L 150.151514 201.1392 
L 154.985593 202.106858 
L 162.33991 203.73728 
L 162.757726 203.828831 
L 162.888857 203.863171 
L 167.164156 204.845483 
L 169.06076 205.356594 
L 176.020157 207.036322 
L 180.799929 208.417845 
L 181.897791 208.6969 
L 186.299613 210.0096 
L 188.822332 210.748174 
L 190.788651 211.425769 
L 196.387391 213.19392 
L 199.178917 214.210419 
L 201.238284 214.883257 
L 204.861103 216.28192 
L 208.424128 217.637039 
L 211.404357 218.88 
L 215.336359 220.503263 
L 216.794131 221.186326 
L 217.415007 221.47808 
L 224.576961 224.789741 
L 229.941262 227.674584 
L 229.98954 227.698493 
L 230.082055 227.7504 
L 235.402345 230.667811 
L 240.684637 234.02272 
L 241.991674 234.838297 
L 242.914371 235.416858 
L 244.587507 236.6208 
L 247.180938 238.376703 
L 248.260966 239.21888 
L 248.473416 239.369233 
L 249.164549 239.913963 
L 255.143439 244.516618 
L 256.234621 245.4912 
L 260.835261 249.495353 
L 263.175755 251.76352 
L 264.157921 252.801204 
L 265.781514 254.3616 
L 267.243917 255.813918 
L 268.27245 256.95968 
L 272.234292 261.269626 
L 273.783664 263.232 
L 277.028179 267.226951 
L 278.693059 269.50432 
L 279.068358 269.96129 
L 280.548702 272.1024 
L 281.522078 273.371173 
L 282.044181 274.185273 
L 282.364377 274.70048 
L 285.808442 280.069273 
L 286.40211 280.9728 
L 286.500411 281.118051 
L 290.03954 287.24512 
L 290.534823 288.072122 
L 291.430191 289.8432 
L 292.774316 292.33763 
L 292.818787 292.44128 
L 295.258412 297.309519 
L 295.886877 298.7136 
L 298.222919 303.753828 
L 298.692065 304.98592 
L 299.048319 305.870923 
L 299.787566 307.584 
L 302.8224 307.584 
L 310.91712 307.584 
L 319.01184 307.584 
L 327.10656 307.584 
L 335.20128 307.584 
L 343.296 307.584 
L 343.296 298.7136 
L 343.296 289.8432 
L 343.296 280.9728 
L 343.296 272.1024 
L 343.296 263.232 
L 343.296 254.3616 
L 343.296 245.4912 
L 343.296 236.6208 
L 343.296 227.7504 
L 343.296 218.88 
L 343.296 210.0096 
L 343.296 201.1392 
L 343.296 192.2688 
L 343.296 183.3984 
L 343.296 174.528 
L 343.296 165.6576 
L 343.296 156.7872 
L 343.296 147.9168 
L 343.296 139.0464 
L 343.296 130.176 
L 343.296 121.3056 
L 343.296 112.4352 
L 343.296 103.5648 
L 343.296 94.6944 
L 343.296 85.824 
L 343.296 76.9536 
L 343.296 68.0832 
L 343.296 59.2128 
L 343.296 50.3424 
L 343.296 41.472 
L 335.20128 41.472 
L 327.10656 41.472 
L 319.01184 41.472 
L 310.91712 41.472 
L 302.8224 41.472 
L 294.72768 41.472 
" clip-path="url(#pea056349fb)" style="fill: #f8f500"/>
   </g>
   <g id="PathCollection_18">
    <path d="M 299.787566 307.584 
L 299.048319 305.870923 
L 298.692065 304.98592 
L 298.222919 303.753828 
L 295.886877 298.7136 
L 295.258412 297.309519 
L 292.818787 292.44128 
L 292.774316 292.33763 
L 291.430191 289.8432 
L 290.534823 288.072122 
L 290.03954 287.24512 
L 286.500411 281.118051 
L 286.40211 280.9728 
L 285.808442 280.069273 
L 282.364377 274.70048 
L 282.044181 274.185273 
L 281.522078 273.371173 
L 280.548702 272.1024 
L 279.068358 269.96129 
L 278.693059 269.50432 
L 277.028179 267.226951 
L 273.783664 263.232 
L 272.234292 261.269626 
L 268.27245 256.95968 
L 267.243917 255.813918 
L 265.781514 254.3616 
L 264.157921 252.801204 
L 263.175755 251.76352 
L 260.835261 249.495353 
L 256.234621 245.4912 
L 255.143439 244.516618 
L 249.164549 239.913963 
L 248.473416 239.369233 
L 248.260966 239.21888 
L 247.180938 238.376703 
L 244.587507 236.6208 
L 242.914371 235.416858 
L 241.991674 234.838297 
L 240.684637 234.02272 
L 235.402345 230.667811 
L 230.082055 227.7504 
L 229.98954 227.698493 
L 229.941262 227.674584 
L 224.576961 224.789741 
L 217.415007 221.47808 
L 216.794131 221.186326 
L 215.336359 220.503263 
L 211.404357 218.88 
L 208.424128 217.637039 
L 204.861103 216.28192 
L 201.238284 214.883257 
L 199.178917 214.210419 
L 196.387391 213.19392 
L 190.788651 211.425769 
L 188.822332 210.748174 
L 186.299613 210.0096 
L 181.897791 208.6969 
L 180.799929 208.417845 
L 176.020157 207.036322 
L 169.06076 205.356594 
L 167.164156 204.845483 
L 162.888857 203.863171 
L 162.757726 203.828831 
L 162.33991 203.73728 
L 154.985593 202.106858 
L 150.151514 201.1392 
L 145.063294 200.112616 
L 143.716345 199.873554 
L 136.178173 198.54112 
L 135.340757 198.391443 
L 135.136701 198.362631 
L 130.809406 197.623073 
L 129.455081 197.437283 
L 121.248025 196.093817 
L 117.92765 195.665192 
L 115.503834 195.284751 
L 110.757273 194.68855 
L 106.874955 194.103392 
L 100.879053 193.392243 
L 100.4544 193.328366 
L 100.4544 201.1392 
L 100.4544 210.0096 
L 100.4544 218.88 
L 100.4544 227.7504 
L 100.4544 236.6208 
L 100.4544 238.58845 
L 102.799344 239.287517 
L 102.924662 239.327776 
L 111.720475 242.015948 
L 115.855205 243.404822 
L 117.264294 243.849755 
L 122.048893 245.4912 
L 124.099675 246.191307 
L 126.037389 246.91449 
L 131.550081 248.885974 
L 134.555522 250.047488 
L 136.216144 250.654571 
L 138.980708 251.76352 
L 143.065985 253.391156 
L 145.365281 254.3616 
L 151.421012 256.947241 
L 151.448474 256.95968 
L 159.52888 260.589483 
L 164.920519 263.232 
L 165.166931 263.351657 
L 165.279505 263.410164 
L 170.685032 266.105088 
L 176.943482 269.50432 
L 177.899192 270.017923 
L 181.539109 272.1024 
L 183.971321 273.473977 
L 185.043593 274.123518 
L 185.979613 274.70048 
L 191.921024 278.315748 
L 195.929657 280.9728 
L 197.261628 281.844278 
L 198.156655 282.469167 
L 201.968244 285.046549 
L 204.948552 287.24512 
L 207.435315 289.049067 
L 207.797935 289.318854 
L 208.447656 289.8432 
L 209.727325 290.846516 
L 211.844805 292.44128 
L 215.161702 295.059498 
L 219.496299 298.7136 
L 220.850023 299.837015 
L 226.535005 304.98592 
L 226.895633 305.305197 
L 229.289863 307.584 
L 229.96992 307.584 
L 238.06464 307.584 
L 246.15936 307.584 
L 254.25408 307.584 
L 262.3488 307.584 
L 270.44352 307.584 
L 278.53824 307.584 
L 286.63296 307.584 
L 294.72768 307.584 
" clip-path="url(#pea056349fb)" style="fill: #ff9400"/>
   </g>
   <g id="PathCollection_19">
    <path d="M 229.289863 307.584 
L 226.895633 305.305197 
L 226.535005 304.98592 
L 220.850023 299.837015 
L 219.496299 298.7136 
L 215.161702 295.059498 
L 211.844805 292.44128 
L 209.727325 290.846516 
L 208.447656 289.8432 
L 207.797935 289.318854 
L 207.435315 289.049067 
L 204.948552 287.24512 
L 201.968244 285.046549 
L 198.156655 282.469167 
L 197.261628 281.844278 
L 195.929657 280.9728 
L 191.921024 278.315748 
L 185.979613 274.70048 
L 185.043593 274.123518 
L 183.971321 273.473977 
L 181.539109 272.1024 
L 177.899192 270.017923 
L 176.943482 269.50432 
L 170.685032 266.105088 
L 165.279505 263.410164 
L 165.166931 263.351657 
L 164.920519 263.232 
L 159.52888 260.589483 
L 151.448474 256.95968 
L 151.421012 256.947241 
L 145.365281 254.3616 
L 143.065985 253.391156 
L 138.980708 251.76352 
L 136.216144 250.654571 
L 134.555522 250.047488 
L 131.550081 248.885974 
L 126.037389 246.91449 
L 124.099675 246.191307 
L 122.048893 245.4912 
L 117.264294 243.849755 
L 115.855205 243.404822 
L 111.720475 242.015948 
L 102.924662 239.327776 
L 102.799344 239.287517 
L 100.4544 238.58845 
L 100.4544 245.4912 
L 100.4544 254.3616 
L 100.4544 263.232 
L 100.4544 272.1024 
L 100.4544 280.9728 
L 100.4544 282.916189 
L 101.334881 283.302162 
L 104.984415 284.879095 
L 110.177374 287.24512 
L 112.22127 288.17639 
L 113.279687 288.66884 
L 115.709591 289.8432 
L 120.110529 291.94389 
L 121.102182 292.44128 
L 127.527586 295.657314 
L 132.710063 298.387623 
L 132.916211 298.494203 
L 133.322453 298.7136 
L 138.411997 301.4707 
L 144.575415 304.98592 
L 145.498451 305.509446 
L 149.009621 307.584 
L 149.02272 307.584 
L 157.11744 307.584 
L 165.21216 307.584 
L 173.30688 307.584 
L 181.4016 307.584 
L 189.49632 307.584 
L 197.59104 307.584 
L 205.68576 307.584 
L 213.78048 307.584 
L 221.8752 307.584 
" clip-path="url(#pea056349fb)" style="fill: #ff3800"/>
   </g>
   <g id="PathCollection_20">
    <path d="M 149.009621 307.584 
L 145.498451 305.509446 
L 144.575415 304.98592 
L 138.411997 301.4707 
L 133.322453 298.7136 
L 132.916211 298.494203 
L 132.710063 298.387623 
L 127.527586 295.657314 
L 121.102182 292.44128 
L 120.110529 291.94389 
L 115.709591 289.8432 
L 113.279687 288.66884 
L 112.22127 288.17639 
L 110.177374 287.24512 
L 104.984415 284.879095 
L 101.334881 283.302162 
L 100.4544 282.916189 
L 100.4544 289.8432 
L 100.4544 298.7136 
L 100.4544 307.584 
L 108.54912 307.584 
L 116.64384 307.584 
L 124.73856 307.584 
L 132.83328 307.584 
L 140.928 307.584 
" clip-path="url(#pea056349fb)" style="fill: #b60000"/>
   </g>
   <g id="matplotlib.axis_1">
    <g id="xtick_1">
     <g id="line2d_1">
      <defs>
       <path id="m013b52bec9" d="M 0 0 
L 0 3.5 
" style="stroke: #000000; stroke-width: 0.8"/>
      </defs>
      <g>
       <use xlink:href="#m013b52bec9" x="57.6" y="307.584" style="stroke: #000000; stroke-width: 0.8"/>
      </g>
     </g>
     <g id="text_1">
      <!-- 0.0 -->
      <g transform="translate(51.26875 321.385562) scale(0.1 -0.1)">
       <defs>
        <path id="Calibri-30" d="M 3022 2031 
Q 3022 1566 2948 1181 
Q 2875 797 2704 520 
Q 2534 244 2259 92 
Q 1984 -59 1581 -59 
Q 1200 -59 939 77 
Q 678 213 518 477 
Q 359 741 292 1127 
Q 225 1513 225 2013 
Q 225 2475 300 2861 
Q 375 3247 544 3523 
Q 713 3800 988 3951 
Q 1263 4103 1663 4103 
Q 2047 4103 2308 3967 
Q 2569 3831 2728 3567 
Q 2888 3303 2955 2917 
Q 3022 2531 3022 2031 
z
M 2472 1994 
Q 2472 2297 2450 2537 
Q 2428 2778 2386 2962 
Q 2344 3147 2276 3280 
Q 2209 3413 2115 3498 
Q 2022 3584 1901 3623 
Q 1781 3663 1631 3663 
Q 1366 3663 1200 3538 
Q 1034 3413 939 3194 
Q 844 2975 809 2681 
Q 775 2388 775 2050 
Q 775 1597 822 1280 
Q 869 963 970 763 
Q 1072 563 1230 472 
Q 1388 381 1613 381 
Q 1788 381 1920 437 
Q 2053 494 2148 598 
Q 2244 703 2306 850 
Q 2369 997 2406 1175 
Q 2444 1353 2458 1561 
Q 2472 1769 2472 1994 
z
" transform="scale(0.015625)"/>
        <path id="Calibri-2e" d="M 1144 341 
Q 1144 119 1070 45 
Q 997 -28 803 -28 
Q 616 -28 544 44 
Q 472 116 472 331 
Q 472 553 545 626 
Q 619 700 813 700 
Q 1000 700 1072 628 
Q 1144 556 1144 341 
z
" transform="scale(0.015625)"/>
       </defs>
       <use xlink:href="#Calibri-30"/>
       <use xlink:href="#Calibri-2e" x="50.683594"/>
       <use xlink:href="#Calibri-30" x="75.927734"/>
      </g>
     </g>
    </g>
    <g id="xtick_2">
     <g id="line2d_2">
      <g>
       <use xlink:href="#m013b52bec9" x="86.1696" y="307.584" style="stroke: #000000; stroke-width: 0.8"/>
      </g>
     </g>
     <g id="text_2">
      <!-- 0.1 -->
      <g transform="translate(79.83835 321.385562) scale(0.1 -0.1)">
       <defs>
        <path id="Calibri-31" d="M 2897 213 
Q 2897 153 2887 112 
Q 2878 72 2862 47 
Q 2847 22 2826 11 
Q 2806 0 2784 0 
L 672 0 
Q 650 0 631 11 
Q 613 22 595 47 
Q 578 72 568 112 
Q 559 153 559 213 
Q 559 269 568 309 
Q 578 350 592 376 
Q 606 403 626 417 
Q 647 431 672 431 
L 1516 431 
L 1516 3506 
L 734 3041 
Q 675 3009 639 3003 
Q 603 2997 581 3017 
Q 559 3038 551 3084 
Q 544 3131 544 3203 
Q 544 3256 548 3293 
Q 553 3331 562 3356 
Q 572 3381 589 3400 
Q 606 3419 634 3438 
L 1566 4034 
Q 1578 4044 1597 4050 
Q 1616 4056 1644 4062 
Q 1672 4069 1709 4070 
Q 1747 4072 1803 4072 
Q 1878 4072 1928 4065 
Q 1978 4059 2006 4048 
Q 2034 4038 2043 4020 
Q 2053 4003 2053 3984 
L 2053 431 
L 2784 431 
Q 2809 431 2831 417 
Q 2853 403 2867 376 
Q 2881 350 2889 309 
Q 2897 269 2897 213 
z
" transform="scale(0.015625)"/>
       </defs>
       <use xlink:href="#Calibri-30"/>
       <use xlink:href="#Calibri-2e" x="50.683594"/>
       <use xlink:href="#Calibri-31" x="75.927734"/>
      </g>
     </g>
    </g>
    <g id="xtick_3">
     <g id="line2d_3">
      <g>
       <use xlink:href="#m013b52bec9" x="114.7392" y="307.584" style="stroke: #000000; stroke-width: 0.8"/>
      </g>
     </g>
     <g id="text_3">
      <!-- 0.2 -->
      <g transform="translate(108.40795 321.385562) scale(0.1 -0.1)">
       <defs>
        <path id="Calibri-32" d="M 2888 231 
Q 2888 175 2880 131 
Q 2872 88 2858 58 
Q 2844 28 2820 14 
Q 2797 0 2769 0 
L 534 0 
Q 491 0 458 11 
Q 425 22 401 47 
Q 378 72 367 119 
Q 356 166 356 234 
Q 356 297 361 344 
Q 366 391 381 427 
Q 397 463 420 498 
Q 444 534 481 575 
L 1266 1406 
Q 1538 1694 1702 1922 
Q 1866 2150 1955 2337 
Q 2044 2525 2072 2678 
Q 2100 2831 2100 2966 
Q 2100 3100 2056 3220 
Q 2013 3341 1930 3431 
Q 1847 3522 1722 3575 
Q 1597 3628 1434 3628 
Q 1244 3628 1092 3575 
Q 941 3522 827 3459 
Q 713 3397 636 3344 
Q 559 3291 522 3291 
Q 500 3291 483 3303 
Q 466 3316 455 3344 
Q 444 3372 437 3419 
Q 431 3466 431 3531 
Q 431 3578 434 3612 
Q 438 3647 445 3672 
Q 453 3697 465 3719 
Q 478 3741 515 3773 
Q 553 3806 645 3862 
Q 738 3919 877 3973 
Q 1016 4028 1183 4065 
Q 1350 4103 1534 4103 
Q 1828 4103 2048 4020 
Q 2269 3938 2414 3794 
Q 2559 3650 2631 3459 
Q 2703 3269 2703 3053 
Q 2703 2859 2668 2667 
Q 2634 2475 2523 2251 
Q 2413 2028 2203 1754 
Q 1994 1481 1647 1125 
L 1006 456 
L 2766 456 
Q 2791 456 2814 442 
Q 2838 428 2855 400 
Q 2872 372 2880 330 
Q 2888 288 2888 231 
z
" transform="scale(0.015625)"/>
       </defs>
       <use xlink:href="#Calibri-30"/>
       <use xlink:href="#Calibri-2e" x="50.683594"/>
       <use xlink:href="#Calibri-32" x="75.927734"/>
      </g>
     </g>
    </g>
    <g id="xtick_4">
     <g id="line2d_4">
      <g>
       <use xlink:href="#m013b52bec9" x="143.3088" y="307.584" style="stroke: #000000; stroke-width: 0.8"/>
      </g>
     </g>
     <g id="text_4">
      <!-- 0.3 -->
      <g transform="translate(136.97755 321.385562) scale(0.1 -0.1)">
       <defs>
        <path id="Calibri-33" d="M 2856 1156 
Q 2856 878 2759 654 
Q 2663 431 2481 272 
Q 2300 113 2034 27 
Q 1769 -59 1434 -59 
Q 1231 -59 1054 -26 
Q 878 6 740 51 
Q 603 97 512 145 
Q 422 194 398 216 
Q 375 238 362 259 
Q 350 281 340 312 
Q 331 344 326 389 
Q 322 434 322 500 
Q 322 613 344 656 
Q 366 700 406 700 
Q 434 700 517 650 
Q 600 600 729 542 
Q 859 484 1032 434 
Q 1206 384 1419 384 
Q 1625 384 1781 437 
Q 1938 491 2044 587 
Q 2150 684 2203 817 
Q 2256 950 2256 1106 
Q 2256 1278 2189 1415 
Q 2122 1553 1992 1653 
Q 1863 1753 1673 1806 
Q 1484 1859 1244 1859 
L 859 1859 
Q 834 1859 811 1870 
Q 788 1881 770 1906 
Q 753 1931 742 1972 
Q 731 2013 731 2078 
Q 731 2138 740 2177 
Q 750 2216 767 2239 
Q 784 2263 806 2273 
Q 828 2284 856 2284 
L 1209 2284 
Q 1416 2284 1580 2337 
Q 1744 2391 1858 2491 
Q 1972 2591 2033 2730 
Q 2094 2869 2094 3041 
Q 2094 3166 2053 3280 
Q 2013 3394 1931 3478 
Q 1850 3563 1723 3611 
Q 1597 3659 1431 3659 
Q 1250 3659 1098 3604 
Q 947 3550 828 3487 
Q 709 3425 631 3370 
Q 553 3316 522 3316 
Q 500 3316 483 3323 
Q 466 3331 455 3354 
Q 444 3378 439 3420 
Q 434 3463 434 3531 
Q 434 3578 437 3614 
Q 441 3650 450 3676 
Q 459 3703 471 3725 
Q 484 3747 514 3776 
Q 544 3806 634 3862 
Q 725 3919 858 3973 
Q 991 4028 1164 4065 
Q 1338 4103 1538 4103 
Q 1819 4103 2031 4031 
Q 2244 3959 2386 3828 
Q 2528 3697 2598 3514 
Q 2669 3331 2669 3109 
Q 2669 2919 2619 2755 
Q 2569 2591 2472 2464 
Q 2375 2338 2234 2248 
Q 2094 2159 1909 2125 
L 1909 2119 
Q 2119 2097 2292 2014 
Q 2466 1931 2591 1806 
Q 2716 1681 2786 1514 
Q 2856 1347 2856 1156 
z
" transform="scale(0.015625)"/>
       </defs>
       <use xlink:href="#Calibri-30"/>
       <use xlink:href="#Calibri-2e" x="50.683594"/>
       <use xlink:href="#Calibri-33" x="75.927734"/>
      </g>
     </g>
    </g>
    <g id="xtick_5">
     <g id="line2d_5">
      <g>
       <use xlink:href="#m013b52bec9" x="171.8784" y="307.584" style="stroke: #000000; stroke-width: 0.8"/>
      </g>
     </g>
     <g id="text_5">
      <!-- 0.4 -->
      <g transform="translate(165.54715 321.385562) scale(0.1 -0.1)">
       <defs>
        <path id="Calibri-34" d="M 3059 1150 
Q 3059 1047 3028 987 
Q 2997 928 2941 928 
L 2484 928 
L 2484 78 
Q 2484 53 2471 36 
Q 2459 19 2428 6 
Q 2397 -6 2347 -12 
Q 2297 -19 2219 -19 
Q 2144 -19 2094 -12 
Q 2044 -6 2014 6 
Q 1984 19 1973 36 
Q 1963 53 1963 78 
L 1963 928 
L 294 928 
Q 256 928 231 937 
Q 206 947 186 972 
Q 166 997 158 1044 
Q 150 1091 150 1166 
Q 150 1225 153 1272 
Q 156 1319 165 1358 
Q 175 1397 190 1433 
Q 206 1469 228 1509 
L 1684 3966 
Q 1700 3991 1729 4009 
Q 1759 4028 1806 4040 
Q 1853 4053 1922 4058 
Q 1991 4063 2084 4063 
Q 2188 4063 2264 4055 
Q 2341 4047 2387 4034 
Q 2434 4022 2459 4001 
Q 2484 3981 2484 3953 
L 2484 1372 
L 2941 1372 
Q 2994 1372 3026 1317 
Q 3059 1263 3059 1150 
z
M 1963 3591 
L 1956 3591 
L 641 1372 
L 1963 1372 
L 1963 3591 
z
" transform="scale(0.015625)"/>
       </defs>
       <use xlink:href="#Calibri-30"/>
       <use xlink:href="#Calibri-2e" x="50.683594"/>
       <use xlink:href="#Calibri-34" x="75.927734"/>
      </g>
     </g>
    </g>
    <g id="xtick_6">
     <g id="line2d_6">
      <g>
       <use xlink:href="#m013b52bec9" x="200.448" y="307.584" style="stroke: #000000; stroke-width: 0.8"/>
      </g>
     </g>
     <g id="text_6">
      <!-- 0.5 -->
      <g transform="translate(194.11675 321.385562) scale(0.1 -0.1)">
       <defs>
        <path id="Calibri-35" d="M 2869 1300 
Q 2869 975 2759 722 
Q 2650 469 2450 295 
Q 2250 122 1973 31 
Q 1697 -59 1359 -59 
Q 1172 -59 1003 -32 
Q 834 -6 703 33 
Q 572 72 487 109 
Q 403 147 379 169 
Q 356 191 347 209 
Q 338 228 330 254 
Q 322 281 319 322 
Q 316 363 316 419 
Q 316 472 320 514 
Q 325 556 337 582 
Q 350 609 367 621 
Q 384 634 406 634 
Q 438 634 503 595 
Q 569 556 680 511 
Q 791 466 955 425 
Q 1119 384 1344 384 
Q 1553 384 1728 434 
Q 1903 484 2029 590 
Q 2156 697 2228 858 
Q 2300 1019 2300 1250 
Q 2300 1444 2239 1592 
Q 2178 1741 2051 1839 
Q 1925 1938 1731 1986 
Q 1538 2034 1269 2034 
Q 1078 2034 940 2015 
Q 803 1997 684 1997 
Q 597 1997 559 2037 
Q 522 2078 522 2194 
L 522 3841 
Q 522 3944 570 3994 
Q 619 4044 709 4044 
L 2500 4044 
Q 2525 4044 2548 4030 
Q 2572 4016 2587 3987 
Q 2603 3959 2611 3915 
Q 2619 3872 2619 3813 
Q 2619 3700 2587 3637 
Q 2556 3575 2500 3575 
L 991 3575 
L 991 2441 
Q 1100 2456 1214 2459 
Q 1328 2463 1478 2463 
Q 1825 2463 2084 2380 
Q 2344 2297 2517 2145 
Q 2691 1994 2780 1778 
Q 2869 1563 2869 1300 
z
" transform="scale(0.015625)"/>
       </defs>
       <use xlink:href="#Calibri-30"/>
       <use xlink:href="#Calibri-2e" x="50.683594"/>
       <use xlink:href="#Calibri-35" x="75.927734"/>
      </g>
     </g>
    </g>
    <g id="xtick_7">
     <g id="line2d_7">
      <g>
       <use xlink:href="#m013b52bec9" x="229.0176" y="307.584" style="stroke: #000000; stroke-width: 0.8"/>
      </g>
     </g>
     <g id="text_7">
      <!-- 0.6 -->
      <g transform="translate(222.68635 321.385562) scale(0.1 -0.1)">
       <defs>
        <path id="Calibri-36" d="M 2991 1309 
Q 2991 1044 2909 795 
Q 2828 547 2659 358 
Q 2491 169 2231 55 
Q 1972 -59 1619 -59 
Q 1366 -59 1172 3 
Q 978 66 834 181 
Q 691 297 595 465 
Q 500 634 442 850 
Q 384 1066 359 1322 
Q 334 1578 334 1872 
Q 334 2131 362 2397 
Q 391 2663 462 2909 
Q 534 3156 657 3373 
Q 781 3591 967 3752 
Q 1153 3913 1412 4006 
Q 1672 4100 2016 4100 
Q 2131 4100 2250 4086 
Q 2369 4072 2469 4048 
Q 2569 4025 2637 3997 
Q 2706 3969 2728 3951 
Q 2750 3934 2761 3914 
Q 2772 3894 2778 3870 
Q 2784 3847 2787 3817 
Q 2791 3788 2791 3744 
Q 2791 3688 2789 3647 
Q 2788 3606 2777 3581 
Q 2766 3556 2748 3543 
Q 2731 3531 2703 3531 
Q 2669 3531 2609 3553 
Q 2550 3575 2465 3601 
Q 2381 3628 2261 3650 
Q 2141 3672 1981 3672 
Q 1691 3672 1481 3553 
Q 1272 3434 1139 3234 
Q 1006 3034 942 2770 
Q 878 2506 869 2219 
Q 950 2266 1051 2312 
Q 1153 2359 1273 2396 
Q 1394 2434 1528 2457 
Q 1663 2481 1816 2481 
Q 2144 2481 2369 2392 
Q 2594 2303 2733 2145 
Q 2872 1988 2931 1773 
Q 2991 1559 2991 1309 
z
M 2447 1259 
Q 2447 1441 2411 1589 
Q 2375 1738 2290 1841 
Q 2206 1944 2065 2000 
Q 1925 2056 1719 2056 
Q 1603 2056 1487 2036 
Q 1372 2016 1264 1980 
Q 1156 1944 1057 1895 
Q 959 1847 878 1791 
Q 878 1388 929 1116 
Q 981 844 1079 680 
Q 1178 516 1325 445 
Q 1472 375 1669 375 
Q 1869 375 2016 450 
Q 2163 525 2259 651 
Q 2356 778 2401 936 
Q 2447 1094 2447 1259 
z
" transform="scale(0.015625)"/>
       </defs>
       <use xlink:href="#Calibri-30"/>
       <use xlink:href="#Calibri-2e" x="50.683594"/>
       <use xlink:href="#Calibri-36" x="75.927734"/>
      </g>
     </g>
    </g>
    <g id="xtick_8">
     <g id="line2d_8">
      <g>
       <use xlink:href="#m013b52bec9" x="257.5872" y="307.584" style="stroke: #000000; stroke-width: 0.8"/>
      </g>
     </g>
     <g id="text_8">
      <!-- 0.7 -->
      <g transform="translate(251.25595 321.385562) scale(0.1 -0.1)">
       <defs>
        <path id="Calibri-37" d="M 2947 3813 
Q 2947 3756 2942 3711 
Q 2938 3666 2930 3623 
Q 2922 3581 2908 3542 
Q 2894 3503 2875 3459 
L 1419 103 
Q 1403 66 1379 42 
Q 1356 19 1320 5 
Q 1284 -9 1228 -14 
Q 1172 -19 1091 -19 
Q 984 -19 925 -9 
Q 866 0 839 20 
Q 813 41 816 70 
Q 819 100 838 141 
L 2369 3572 
L 428 3572 
Q 369 3572 339 3634 
Q 309 3697 309 3809 
Q 309 3869 317 3912 
Q 325 3956 340 3986 
Q 356 4016 378 4030 
Q 400 4044 428 4044 
L 2784 4044 
Q 2828 4044 2861 4034 
Q 2894 4025 2911 3997 
Q 2928 3969 2937 3925 
Q 2947 3881 2947 3813 
z
" transform="scale(0.015625)"/>
       </defs>
       <use xlink:href="#Calibri-30"/>
       <use xlink:href="#Calibri-2e" x="50.683594"/>
       <use xlink:href="#Calibri-37" x="75.927734"/>
      </g>
     </g>
    </g>
    <g id="xtick_9">
     <g id="line2d_9">
      <g>
       <use xlink:href="#m013b52bec9" x="286.1568" y="307.584" style="stroke: #000000; stroke-width: 0.8"/>
      </g>
     </g>
     <g id="text_9">
      <!-- 0.8 -->
      <g transform="translate(279.82555 321.385562) scale(0.1 -0.1)">
       <defs>
        <path id="Calibri-38" d="M 2981 1038 
Q 2981 775 2887 570 
Q 2794 366 2617 225 
Q 2441 84 2181 12 
Q 1922 -59 1588 -59 
Q 1275 -59 1028 6 
Q 781 72 609 200 
Q 438 328 347 515 
Q 256 703 256 944 
Q 256 1134 318 1293 
Q 381 1453 498 1587 
Q 616 1722 787 1839 
Q 959 1956 1175 2063 
Q 988 2159 844 2267 
Q 700 2375 600 2501 
Q 500 2628 448 2772 
Q 397 2916 397 3084 
Q 397 3297 473 3483 
Q 550 3669 704 3806 
Q 859 3944 1098 4023 
Q 1338 4103 1656 4103 
Q 1963 4103 2186 4029 
Q 2409 3956 2554 3829 
Q 2700 3703 2769 3531 
Q 2838 3359 2838 3163 
Q 2838 3003 2786 2856 
Q 2734 2709 2634 2578 
Q 2534 2447 2389 2333 
Q 2244 2219 2056 2119 
Q 2278 2009 2451 1893 
Q 2625 1778 2742 1645 
Q 2859 1513 2920 1364 
Q 2981 1216 2981 1038 
z
M 2306 3113 
Q 2306 3244 2261 3350 
Q 2216 3456 2128 3531 
Q 2041 3606 1911 3645 
Q 1781 3684 1616 3684 
Q 1278 3684 1104 3531 
Q 931 3378 931 3113 
Q 931 2991 973 2886 
Q 1016 2781 1105 2687 
Q 1194 2594 1330 2505 
Q 1466 2416 1653 2319 
Q 1969 2481 2137 2678 
Q 2306 2875 2306 3113 
z
M 2438 981 
Q 2438 1125 2384 1242 
Q 2331 1359 2223 1461 
Q 2116 1563 1955 1658 
Q 1794 1753 1581 1856 
Q 1384 1759 1236 1662 
Q 1088 1566 992 1462 
Q 897 1359 848 1245 
Q 800 1131 800 994 
Q 800 691 1008 525 
Q 1216 359 1628 359 
Q 2028 359 2233 526 
Q 2438 694 2438 981 
z
" transform="scale(0.015625)"/>
       </defs>
       <use xlink:href="#Calibri-30"/>
       <use xlink:href="#Calibri-2e" x="50.683594"/>
       <use xlink:href="#Calibri-38" x="75.927734"/>
      </g>
     </g>
    </g>
    <g id="xtick_10">
     <g id="line2d_10">
      <g>
       <use xlink:href="#m013b52bec9" x="314.7264" y="307.584" style="stroke: #000000; stroke-width: 0.8"/>
      </g>
     </g>
     <g id="text_10">
      <!-- 0.9 -->
      <g transform="translate(308.39515 321.385562) scale(0.1 -0.1)">
       <defs>
        <path id="Calibri-39" d="M 2919 2181 
Q 2919 1919 2887 1650 
Q 2856 1381 2781 1132 
Q 2706 884 2579 667 
Q 2453 450 2261 287 
Q 2069 125 1805 33 
Q 1541 -59 1191 -59 
Q 1056 -59 929 -42 
Q 803 -25 701 0 
Q 600 25 531 53 
Q 463 81 431 109 
Q 400 138 386 186 
Q 372 234 372 316 
Q 372 384 376 425 
Q 381 466 390 487 
Q 400 509 417 517 
Q 434 525 459 525 
Q 494 525 556 501 
Q 619 478 714 450 
Q 809 422 937 398 
Q 1066 375 1225 375 
Q 1528 375 1745 492 
Q 1963 609 2100 806 
Q 2238 1003 2306 1262 
Q 2375 1522 2381 1809 
Q 2216 1713 1984 1638 
Q 1753 1563 1453 1563 
Q 1116 1563 886 1655 
Q 656 1747 517 1906 
Q 378 2066 317 2284 
Q 256 2503 256 2763 
Q 256 3031 334 3273 
Q 413 3516 578 3700 
Q 744 3884 1000 3993 
Q 1256 4103 1613 4103 
Q 1866 4103 2061 4039 
Q 2256 3975 2400 3854 
Q 2544 3734 2644 3564 
Q 2744 3394 2805 3178 
Q 2866 2963 2892 2711 
Q 2919 2459 2919 2181 
z
M 2372 2241 
Q 2372 2641 2319 2914 
Q 2266 3188 2162 3356 
Q 2059 3525 1909 3600 
Q 1759 3675 1563 3675 
Q 1359 3675 1215 3601 
Q 1072 3528 980 3404 
Q 888 3281 844 3125 
Q 800 2969 800 2803 
Q 800 2619 839 2466 
Q 878 2313 965 2206 
Q 1053 2100 1193 2042 
Q 1334 1984 1541 1984 
Q 1775 1984 1994 2054 
Q 2213 2125 2372 2241 
z
" transform="scale(0.015625)"/>
       </defs>
       <use xlink:href="#Calibri-30"/>
       <use xlink:href="#Calibri-2e" x="50.683594"/>
       <use xlink:href="#Calibri-39" x="75.927734"/>
      </g>
     </g>
    </g>
    <g id="xtick_11">
     <g id="line2d_11">
      <g>
       <use xlink:href="#m013b52bec9" x="343.296" y="307.584" style="stroke: #000000; stroke-width: 0.8"/>
      </g>
     </g>
     <g id="text_11">
      <!-- 1.0 -->
      <g transform="translate(336.96475 321.385562) scale(0.1 -0.1)">
       <use xlink:href="#Calibri-31"/>
       <use xlink:href="#Calibri-2e" x="50.683594"/>
       <use xlink:href="#Calibri-30" x="75.927734"/>
      </g>
     </g>
    </g>
    <g id="text_12">
     <!-- $\mathit{p}$ (cm$^2$/cm$^2$) -->
     <g transform="translate(174.148 336.263687) scale(0.1 -0.1)">
      <defs>
       <path id="DejaVuSans-Oblique-70" d="M 3175 2156 
Q 3175 2616 2975 2859 
Q 2775 3103 2400 3103 
Q 2144 3103 1911 2972 
Q 1678 2841 1497 2591 
Q 1319 2344 1212 1994 
Q 1106 1644 1106 1300 
Q 1106 863 1306 627 
Q 1506 391 1875 391 
Q 2147 391 2380 519 
Q 2613 647 2778 891 
Q 2956 1147 3065 1494 
Q 3175 1841 3175 2156 
z
M 1394 2969 
Q 1625 3272 1939 3428 
Q 2253 3584 2638 3584 
Q 3175 3584 3472 3232 
Q 3769 2881 3769 2247 
Q 3769 1728 3584 1258 
Q 3400 788 3053 416 
Q 2822 169 2531 39 
Q 2241 -91 1919 -91 
Q 1547 -91 1294 64 
Q 1041 219 916 525 
L 556 -1331 
L -19 -1331 
L 922 3500 
L 1497 3500 
L 1394 2969 
z
" transform="scale(0.015625)"/>
       <path id="Calibri-20" transform="scale(0.015625)"/>
       <path id="Calibri-28" d="M 1547 4306 
Q 1250 3678 1104 3017 
Q 959 2356 959 1688 
Q 959 1016 1107 356 
Q 1256 -303 1541 -938 
Q 1556 -975 1557 -1001 
Q 1559 -1028 1537 -1045 
Q 1516 -1063 1470 -1070 
Q 1425 -1078 1347 -1078 
Q 1291 -1078 1250 -1075 
Q 1209 -1072 1179 -1062 
Q 1150 -1053 1131 -1040 
Q 1113 -1028 1103 -1013 
Q 934 -694 806 -367 
Q 678 -41 590 296 
Q 503 634 459 979 
Q 416 1325 416 1678 
Q 416 2031 464 2375 
Q 513 2719 602 3058 
Q 691 3397 819 3725 
Q 947 4053 1106 4375 
Q 1109 4388 1123 4397 
Q 1138 4406 1163 4415 
Q 1188 4425 1231 4429 
Q 1275 4434 1344 4434 
Q 1416 4434 1459 4425 
Q 1503 4416 1528 4400 
Q 1553 4384 1556 4359 
Q 1559 4334 1547 4306 
z
" transform="scale(0.015625)"/>
       <path id="Calibri-63" d="M 2500 506 
Q 2500 453 2497 414 
Q 2494 375 2486 348 
Q 2478 322 2467 301 
Q 2456 281 2417 242 
Q 2378 203 2284 145 
Q 2191 88 2073 42 
Q 1956 -3 1818 -31 
Q 1681 -59 1534 -59 
Q 1231 -59 997 41 
Q 763 141 605 333 
Q 447 525 364 804 
Q 281 1084 281 1450 
Q 281 1866 382 2164 
Q 484 2463 661 2653 
Q 838 2844 1077 2936 
Q 1316 3028 1594 3028 
Q 1728 3028 1854 3003 
Q 1981 2978 2087 2937 
Q 2194 2897 2276 2844 
Q 2359 2791 2396 2753 
Q 2434 2716 2448 2694 
Q 2463 2672 2472 2642 
Q 2481 2613 2484 2575 
Q 2488 2538 2488 2481 
Q 2488 2359 2459 2311 
Q 2431 2263 2391 2263 
Q 2344 2263 2283 2314 
Q 2222 2366 2128 2428 
Q 2034 2491 1901 2542 
Q 1769 2594 1588 2594 
Q 1216 2594 1017 2308 
Q 819 2022 819 1478 
Q 819 1206 870 1001 
Q 922 797 1022 659 
Q 1122 522 1267 455 
Q 1413 388 1600 388 
Q 1778 388 1912 444 
Q 2047 500 2145 567 
Q 2244 634 2311 689 
Q 2378 744 2416 744 
Q 2438 744 2453 731 
Q 2469 719 2480 689 
Q 2491 659 2495 614 
Q 2500 569 2500 506 
z
" transform="scale(0.015625)"/>
       <path id="Calibri-6d" d="M 4650 78 
Q 4650 53 4637 36 
Q 4625 19 4597 6 
Q 4569 -6 4519 -12 
Q 4469 -19 4394 -19 
Q 4316 -19 4266 -12 
Q 4216 -6 4186 6 
Q 4156 19 4143 36 
Q 4131 53 4131 78 
L 4131 1788 
Q 4131 1966 4100 2112 
Q 4069 2259 4000 2365 
Q 3931 2472 3825 2528 
Q 3719 2584 3575 2584 
Q 3397 2584 3217 2446 
Q 3038 2309 2822 2044 
L 2822 78 
Q 2822 53 2809 36 
Q 2797 19 2767 6 
Q 2738 -6 2688 -12 
Q 2638 -19 2563 -19 
Q 2491 -19 2439 -12 
Q 2388 -6 2358 6 
Q 2328 19 2317 36 
Q 2306 53 2306 78 
L 2306 1788 
Q 2306 1966 2272 2112 
Q 2238 2259 2169 2365 
Q 2100 2472 1995 2528 
Q 1891 2584 1747 2584 
Q 1569 2584 1387 2446 
Q 1206 2309 994 2044 
L 994 78 
Q 994 53 981 36 
Q 969 19 941 6 
Q 913 -6 863 -12 
Q 813 -19 734 -19 
Q 659 -19 609 -12 
Q 559 -6 529 6 
Q 500 19 489 36 
Q 478 53 478 78 
L 478 2891 
Q 478 2916 487 2933 
Q 497 2950 525 2964 
Q 553 2978 597 2983 
Q 641 2988 713 2988 
Q 781 2988 826 2983 
Q 872 2978 897 2964 
Q 922 2950 933 2933 
Q 944 2916 944 2891 
L 944 2519 
Q 1181 2784 1404 2907 
Q 1628 3031 1856 3031 
Q 2031 3031 2170 2990 
Q 2309 2950 2415 2876 
Q 2522 2803 2597 2701 
Q 2672 2600 2722 2475 
Q 2863 2628 2989 2734 
Q 3116 2841 3233 2906 
Q 3350 2972 3461 3001 
Q 3572 3031 3684 3031 
Q 3956 3031 4140 2936 
Q 4325 2841 4439 2681 
Q 4553 2522 4601 2308 
Q 4650 2094 4650 1856 
L 4650 78 
z
" transform="scale(0.015625)"/>
       <path id="DejaVuSans-32" d="M 1228 531 
L 3431 531 
L 3431 0 
L 469 0 
L 469 531 
Q 828 903 1448 1529 
Q 2069 2156 2228 2338 
Q 2531 2678 2651 2914 
Q 2772 3150 2772 3378 
Q 2772 3750 2511 3984 
Q 2250 4219 1831 4219 
Q 1534 4219 1204 4116 
Q 875 4013 500 3803 
L 500 4441 
Q 881 4594 1212 4672 
Q 1544 4750 1819 4750 
Q 2544 4750 2975 4387 
Q 3406 4025 3406 3419 
Q 3406 3131 3298 2873 
Q 3191 2616 2906 2266 
Q 2828 2175 2409 1742 
Q 1991 1309 1228 531 
z
" transform="scale(0.015625)"/>
       <path id="Calibri-2f" d="M 525 -753 
Q 513 -794 492 -817 
Q 472 -841 440 -853 
Q 409 -866 364 -872 
Q 319 -878 253 -878 
Q 175 -878 123 -867 
Q 72 -856 44 -836 
Q 16 -816 9 -786 
Q 3 -756 22 -716 
L 1913 4469 
Q 1925 4509 1945 4532 
Q 1966 4556 1995 4570 
Q 2025 4584 2072 4589 
Q 2119 4594 2184 4594 
Q 2263 4594 2313 4583 
Q 2363 4572 2391 4553 
Q 2419 4534 2425 4503 
Q 2431 4472 2416 4431 
L 525 -753 
z
" transform="scale(0.015625)"/>
       <path id="Calibri-29" d="M 1522 1678 
Q 1522 1325 1478 979 
Q 1434 634 1346 296 
Q 1259 -41 1132 -367 
Q 1006 -694 838 -1013 
Q 828 -1028 809 -1040 
Q 791 -1053 761 -1062 
Q 731 -1072 690 -1075 
Q 650 -1078 594 -1078 
Q 513 -1078 467 -1070 
Q 422 -1063 401 -1045 
Q 381 -1028 382 -1001 
Q 384 -975 400 -938 
Q 688 -306 834 355 
Q 981 1016 981 1688 
Q 981 2356 834 3017 
Q 688 3678 394 4306 
Q 381 4334 384 4359 
Q 388 4384 413 4400 
Q 438 4416 481 4425 
Q 525 4434 597 4434 
Q 663 4434 706 4429 
Q 750 4425 776 4415 
Q 803 4406 815 4397 
Q 828 4388 834 4375 
Q 1156 3734 1339 3057 
Q 1522 2381 1522 1678 
z
" transform="scale(0.015625)"/>
      </defs>
      <use xlink:href="#DejaVuSans-Oblique-70" transform="translate(0 0.765625)"/>
      <use xlink:href="#Calibri-20" transform="translate(63.476562 0.765625)"/>
      <use xlink:href="#Calibri-28" transform="translate(84.958984 0.765625)"/>
      <use xlink:href="#Calibri-63" transform="translate(115.28125 0.765625)"/>
      <use xlink:href="#Calibri-6d" transform="translate(157.566406 0.765625)"/>
      <use xlink:href="#DejaVuSans-32" transform="translate(238.40625 39.046875) scale(0.7)"/>
      <use xlink:href="#Calibri-2f" transform="translate(285.676758 0.765625)"/>
      <use xlink:href="#Calibri-63" transform="translate(324.299805 0.765625)"/>
      <use xlink:href="#Calibri-6d" transform="translate(366.584961 0.765625)"/>
      <use xlink:href="#DejaVuSans-32" transform="translate(447.424805 39.046875) scale(0.7)"/>
      <use xlink:href="#Calibri-29" transform="translate(494.695312 0.765625)"/>
     </g>
    </g>
   </g>
   <g id="matplotlib.axis_2">
    <g id="ytick_1">
     <g id="line2d_12">
      <defs>
       <path id="m93afa1f319" d="M 0 0 
L -3.5 0 
" style="stroke: #000000; stroke-width: 0.8"/>
      </defs>
      <g>
       <use xlink:href="#m93afa1f319" x="57.6" y="275.65056" style="stroke: #000000; stroke-width: 0.8"/>
      </g>
     </g>
     <g id="text_13">
      <!-- 25 -->
      <g transform="translate(40.4625 279.051341) scale(0.1 -0.1)">
       <use xlink:href="#Calibri-32"/>
       <use xlink:href="#Calibri-35" x="50.683594"/>
      </g>
     </g>
    </g>
    <g id="ytick_2">
     <g id="line2d_13">
      <g>
       <use xlink:href="#m93afa1f319" x="57.6" y="242.38656" style="stroke: #000000; stroke-width: 0.8"/>
      </g>
     </g>
     <g id="text_14">
      <!-- 50 -->
      <g transform="translate(40.4625 245.787341) scale(0.1 -0.1)">
       <use xlink:href="#Calibri-35"/>
       <use xlink:href="#Calibri-30" x="50.683594"/>
      </g>
     </g>
    </g>
    <g id="ytick_3">
     <g id="line2d_14">
      <g>
       <use xlink:href="#m93afa1f319" x="57.6" y="209.12256" style="stroke: #000000; stroke-width: 0.8"/>
      </g>
     </g>
     <g id="text_15">
      <!-- 75 -->
      <g transform="translate(40.4625 212.523341) scale(0.1 -0.1)">
       <use xlink:href="#Calibri-37"/>
       <use xlink:href="#Calibri-35" x="50.683594"/>
      </g>
     </g>
    </g>
    <g id="ytick_4">
     <g id="line2d_15">
      <g>
       <use xlink:href="#m93afa1f319" x="57.6" y="175.85856" style="stroke: #000000; stroke-width: 0.8"/>
      </g>
     </g>
     <g id="text_16">
      <!-- 100 -->
      <g transform="translate(35.39375 179.259341) scale(0.1 -0.1)">
       <use xlink:href="#Calibri-31"/>
       <use xlink:href="#Calibri-30" x="50.683594"/>
       <use xlink:href="#Calibri-30" x="101.367188"/>
      </g>
     </g>
    </g>
    <g id="ytick_5">
     <g id="line2d_16">
      <g>
       <use xlink:href="#m93afa1f319" x="57.6" y="142.59456" style="stroke: #000000; stroke-width: 0.8"/>
      </g>
     </g>
     <g id="text_17">
      <!-- 125 -->
      <g transform="translate(35.39375 145.995341) scale(0.1 -0.1)">
       <use xlink:href="#Calibri-31"/>
       <use xlink:href="#Calibri-32" x="50.683594"/>
       <use xlink:href="#Calibri-35" x="101.367188"/>
      </g>
     </g>
    </g>
    <g id="ytick_6">
     <g id="line2d_17">
      <g>
       <use xlink:href="#m93afa1f319" x="57.6" y="109.33056" style="stroke: #000000; stroke-width: 0.8"/>
      </g>
     </g>
     <g id="text_18">
      <!-- 150 -->
      <g transform="translate(35.39375 112.731341) scale(0.1 -0.1)">
       <use xlink:href="#Calibri-31"/>
       <use xlink:href="#Calibri-35" x="50.683594"/>
       <use xlink:href="#Calibri-30" x="101.367188"/>
      </g>
     </g>
    </g>
    <g id="ytick_7">
     <g id="line2d_18">
      <g>
       <use xlink:href="#m93afa1f319" x="57.6" y="76.06656" style="stroke: #000000; stroke-width: 0.8"/>
      </g>
     </g>
     <g id="text_19">
      <!-- 175 -->
      <g transform="translate(35.39375 79.467341) scale(0.1 -0.1)">
       <use xlink:href="#Calibri-31"/>
       <use xlink:href="#Calibri-37" x="50.683594"/>
       <use xlink:href="#Calibri-35" x="101.367188"/>
      </g>
     </g>
    </g>
    <g id="ytick_8">
     <g id="line2d_19">
      <g>
       <use xlink:href="#m93afa1f319" x="57.6" y="42.80256" style="stroke: #000000; stroke-width: 0.8"/>
      </g>
     </g>
     <g id="text_20">
      <!-- 200 -->
      <g transform="translate(35.39375 46.203341) scale(0.1 -0.1)">
       <use xlink:href="#Calibri-32"/>
       <use xlink:href="#Calibri-30" x="50.683594"/>
       <use xlink:href="#Calibri-30" x="101.367188"/>
      </g>
     </g>
    </g>
    <g id="text_21">
     <!-- $\mathit{Z}$$_{a}$ (nm) -->
     <g transform="translate(29.59375 191.028) rotate(-90) scale(0.1 -0.1)">
      <defs>
       <path id="DejaVuSans-Oblique-5a" d="M 838 4666 
L 4500 4666 
L 4409 4184 
L 794 531 
L 3769 531 
L 3669 0 
L -141 0 
L -50 481 
L 3566 4134 
L 738 4134 
L 838 4666 
z
" transform="scale(0.015625)"/>
       <path id="DejaVuSans-Oblique-61" d="M 3438 1997 
L 3047 0 
L 2472 0 
L 2578 531 
Q 2325 219 2001 64 
Q 1678 -91 1281 -91 
Q 834 -91 548 182 
Q 263 456 263 884 
Q 263 1497 752 1853 
Q 1241 2209 2100 2209 
L 2900 2209 
L 2931 2363 
Q 2938 2388 2941 2417 
Q 2944 2447 2944 2509 
Q 2944 2788 2717 2942 
Q 2491 3097 2081 3097 
Q 1800 3097 1504 3025 
Q 1209 2953 897 2809 
L 997 3341 
Q 1322 3463 1633 3523 
Q 1944 3584 2234 3584 
Q 2853 3584 3176 3315 
Q 3500 3047 3500 2534 
Q 3500 2431 3484 2292 
Q 3469 2153 3438 1997 
z
M 2816 1759 
L 2241 1759 
Q 1534 1759 1195 1570 
Q 856 1381 856 984 
Q 856 709 1029 553 
Q 1203 397 1509 397 
Q 1978 397 2328 733 
Q 2678 1069 2791 1631 
L 2816 1759 
z
" transform="scale(0.015625)"/>
       <path id="Calibri-6e" d="M 2900 78 
Q 2900 53 2887 36 
Q 2875 19 2847 6 
Q 2819 -6 2769 -12 
Q 2719 -19 2644 -19 
Q 2566 -19 2516 -12 
Q 2466 -6 2437 6 
Q 2409 19 2396 36 
Q 2384 53 2384 78 
L 2384 1725 
Q 2384 1966 2346 2112 
Q 2309 2259 2237 2365 
Q 2166 2472 2052 2528 
Q 1938 2584 1788 2584 
Q 1594 2584 1400 2446 
Q 1206 2309 994 2044 
L 994 78 
Q 994 53 981 36 
Q 969 19 941 6 
Q 913 -6 863 -12 
Q 813 -19 734 -19 
Q 659 -19 609 -12 
Q 559 -6 529 6 
Q 500 19 489 36 
Q 478 53 478 78 
L 478 2891 
Q 478 2916 487 2933 
Q 497 2950 525 2964 
Q 553 2978 597 2983 
Q 641 2988 713 2988 
Q 781 2988 826 2983 
Q 872 2978 897 2964 
Q 922 2950 933 2933 
Q 944 2916 944 2891 
L 944 2519 
Q 1181 2784 1417 2907 
Q 1653 3031 1894 3031 
Q 2175 3031 2367 2936 
Q 2559 2841 2678 2681 
Q 2797 2522 2848 2308 
Q 2900 2094 2900 1794 
L 2900 78 
z
" transform="scale(0.015625)"/>
      </defs>
      <use xlink:href="#DejaVuSans-Oblique-5a" transform="translate(0 0.09375)"/>
      <use xlink:href="#DejaVuSans-Oblique-61" transform="translate(69.462891 -16.3125) scale(0.7)"/>
      <use xlink:href="#Calibri-20" transform="translate(115.092773 0.09375)"/>
      <use xlink:href="#Calibri-28" transform="translate(136.575195 0.09375)"/>
      <use xlink:href="#Calibri-6e" transform="translate(166.897461 0.09375)"/>
      <use xlink:href="#Calibri-6d" transform="translate(219.436523 0.09375)"/>
      <use xlink:href="#Calibri-29" transform="translate(299.319336 0.09375)"/>
     </g>
    </g>
   </g>
   <g id="patch_3">
    <path d="M 57.6 307.584 
L 57.6 41.472 
" style="fill: none; stroke: #000000; stroke-width: 0.8; stroke-linejoin: miter; stroke-linecap: square"/>
   </g>
   <g id="patch_4">
    <path d="M 343.296 307.584 
L 343.296 41.472 
" style="fill: none; stroke: #000000; stroke-width: 0.8; stroke-linejoin: miter; stroke-linecap: square"/>
   </g>
   <g id="patch_5">
    <path d="M 57.6 307.584 
L 343.296 307.584 
" style="fill: none; stroke: #000000; stroke-width: 0.8; stroke-linejoin: miter; stroke-linecap: square"/>
   </g>
   <g id="patch_6">
    <path d="M 57.6 41.472 
L 343.296 41.472 
" style="fill: none; stroke: #000000; stroke-width: 0.8; stroke-linejoin: miter; stroke-linecap: square"/>
   </g>
   <g id="text_22">
    <!-- $\lambda$ = 910 nm -->
    <g transform="translate(177.348 35.472) scale(0.1 -0.1)">
     <defs>
      <path id="DejaVuSans-Oblique-3bb" d="M 2350 4316 
L 3125 0 
L 2516 0 
L 2038 2588 
L 328 0 
L -281 0 
L 1903 3356 
L 1794 3975 
Q 1725 4369 1391 4369 
L 1091 4369 
L 1184 4863 
L 1550 4856 
Q 2253 4847 2350 4316 
z
" transform="scale(0.015625)"/>
      <path id="Calibri-3d" d="M 2891 2409 
Q 2891 2284 2855 2236 
Q 2819 2188 2772 2188 
L 409 2188 
Q 363 2188 328 2236 
Q 294 2284 294 2409 
Q 294 2522 325 2575 
Q 356 2628 409 2628 
L 2772 2628 
Q 2828 2628 2859 2575 
Q 2891 2522 2891 2409 
z
M 2891 1194 
Q 2891 1069 2855 1022 
Q 2819 975 2772 975 
L 409 975 
Q 363 975 328 1022 
Q 294 1069 294 1194 
Q 294 1309 325 1362 
Q 356 1416 409 1416 
L 2772 1416 
Q 2828 1416 2859 1362 
Q 2891 1309 2891 1194 
z
" transform="scale(0.015625)"/>
     </defs>
     <use xlink:href="#DejaVuSans-Oblique-3bb" transform="translate(0 0.015625)"/>
     <use xlink:href="#Calibri-20" transform="translate(59.179688 0.015625)"/>
     <use xlink:href="#Calibri-3d" transform="translate(81.787109 0.015625)"/>
     <use xlink:href="#Calibri-20" transform="translate(131.591797 0.015625)"/>
     <use xlink:href="#Calibri-39" transform="translate(154.199219 0.015625)"/>
     <use xlink:href="#Calibri-31" transform="translate(204.882812 0.015625)"/>
     <use xlink:href="#Calibri-30" transform="translate(255.566406 0.015625)"/>
     <use xlink:href="#Calibri-20" transform="translate(306.25 0.015625)"/>
     <use xlink:href="#Calibri-6e" transform="translate(328.857422 0.015625)"/>
     <use xlink:href="#Calibri-6d" transform="translate(381.396484 0.015625)"/>
    </g>
   </g>
  </g>
  <g id="axes_2">
   <g id="patch_7">
    <path d="M 361.152 307.584 
L 374.4576 307.584 
L 374.4576 41.472 
L 361.152 41.472 
z
" style="fill: #ffffff"/>
   </g>
   <g id="QuadMesh_1">
    <path d="M 361.152 307.584 
L 374.4576 307.584 
L 374.4576 280.9728 
L 361.152 280.9728 
L 361.152 307.584 
" clip-path="url(#pfd650eedbb)" style="fill: #0000b6"/>
    <path d="M 361.152 280.9728 
L 374.4576 280.9728 
L 374.4576 254.3616 
L 361.152 254.3616 
L 361.152 280.9728 
" clip-path="url(#pfd650eedbb)" style="fill: #0018ff"/>
    <path d="M 361.152 254.3616 
L 374.4576 254.3616 
L 374.4576 227.7504 
L 361.152 227.7504 
L 361.152 254.3616 
" clip-path="url(#pfd650eedbb)" style="fill: #0080ff"/>
    <path d="M 361.152 227.7504 
L 374.4576 227.7504 
L 374.4576 201.1392 
L 361.152 201.1392 
L 361.152 227.7504 
" clip-path="url(#pfd650eedbb)" style="fill: #00e4f8"/>
    <path d="M 361.152 201.1392 
L 374.4576 201.1392 
L 374.4576 174.528 
L 361.152 174.528 
L 361.152 201.1392 
" clip-path="url(#pfd650eedbb)" style="fill: #53ffa4"/>
    <path d="M 361.152 174.528 
L 374.4576 174.528 
L 374.4576 147.9168 
L 361.152 147.9168 
L 361.152 174.528 
" clip-path="url(#pfd650eedbb)" style="fill: #a4ff53"/>
    <path d="M 361.152 147.9168 
L 374.4576 147.9168 
L 374.4576 121.3056 
L 361.152 121.3056 
L 361.152 147.9168 
" clip-path="url(#pfd650eedbb)" style="fill: #f8f500"/>
    <path d="M 361.152 121.3056 
L 374.4576 121.3056 
L 374.4576 94.6944 
L 361.152 94.6944 
L 361.152 121.3056 
" clip-path="url(#pfd650eedbb)" style="fill: #ff9400"/>
    <path d="M 361.152 94.6944 
L 374.4576 94.6944 
L 374.4576 68.0832 
L 361.152 68.0832 
L 361.152 94.6944 
" clip-path="url(#pfd650eedbb)" style="fill: #ff3800"/>
    <path d="M 361.152 68.0832 
L 374.4576 68.0832 
L 374.4576 41.472 
L 361.152 41.472 
L 361.152 68.0832 
" clip-path="url(#pfd650eedbb)" style="fill: #b60000"/>
   </g>
   <g id="matplotlib.axis_3"/>
   <g id="matplotlib.axis_4">
    <g id="ytick_9">
     <g id="line2d_20">
      <defs>
       <path id="m6492665f50" d="M 0 0 
L 3.5 0 
" style="stroke: #000000; stroke-width: 0.8"/>
      </defs>
      <g>
       <use xlink:href="#m6492665f50" x="374.4576" y="307.584" style="stroke: #000000; stroke-width: 0.8"/>
      </g>
     </g>
     <g id="text_23">
      <!-- 0 -->
      <g transform="translate(381.4576 310.984781) scale(0.1 -0.1)">
       <use xlink:href="#Calibri-30"/>
      </g>
     </g>
    </g>
    <g id="ytick_10">
     <g id="line2d_21">
      <g>
       <use xlink:href="#m6492665f50" x="374.4576" y="280.9728" style="stroke: #000000; stroke-width: 0.8"/>
      </g>
     </g>
     <g id="text_24">
      <!-- 0.1 -->
      <g transform="translate(381.4576 284.373581) scale(0.1 -0.1)">
       <use xlink:href="#Calibri-30"/>
       <use xlink:href="#Calibri-2e" x="50.683594"/>
       <use xlink:href="#Calibri-31" x="75.927734"/>
      </g>
     </g>
    </g>
    <g id="ytick_11">
     <g id="line2d_22">
      <g>
       <use xlink:href="#m6492665f50" x="374.4576" y="254.3616" style="stroke: #000000; stroke-width: 0.8"/>
      </g>
     </g>
     <g id="text_25">
      <!-- 0.2 -->
      <g transform="translate(381.4576 257.762381) scale(0.1 -0.1)">
       <use xlink:href="#Calibri-30"/>
       <use xlink:href="#Calibri-2e" x="50.683594"/>
       <use xlink:href="#Calibri-32" x="75.927734"/>
      </g>
     </g>
    </g>
    <g id="ytick_12">
     <g id="line2d_23">
      <g>
       <use xlink:href="#m6492665f50" x="374.4576" y="227.7504" style="stroke: #000000; stroke-width: 0.8"/>
      </g>
     </g>
     <g id="text_26">
      <!-- 0.3 -->
      <g transform="translate(381.4576 231.151181) scale(0.1 -0.1)">
       <use xlink:href="#Calibri-30"/>
       <use xlink:href="#Calibri-2e" x="50.683594"/>
       <use xlink:href="#Calibri-33" x="75.927734"/>
      </g>
     </g>
    </g>
    <g id="ytick_13">
     <g id="line2d_24">
      <g>
       <use xlink:href="#m6492665f50" x="374.4576" y="201.1392" style="stroke: #000000; stroke-width: 0.8"/>
      </g>
     </g>
     <g id="text_27">
      <!-- 0.4 -->
      <g transform="translate(381.4576 204.539981) scale(0.1 -0.1)">
       <use xlink:href="#Calibri-30"/>
       <use xlink:href="#Calibri-2e" x="50.683594"/>
       <use xlink:href="#Calibri-34" x="75.927734"/>
      </g>
     </g>
    </g>
    <g id="ytick_14">
     <g id="line2d_25">
      <g>
       <use xlink:href="#m6492665f50" x="374.4576" y="174.528" style="stroke: #000000; stroke-width: 0.8"/>
      </g>
     </g>
     <g id="text_28">
      <!-- 0.5 -->
      <g transform="translate(381.4576 177.928781) scale(0.1 -0.1)">
       <use xlink:href="#Calibri-30"/>
       <use xlink:href="#Calibri-2e" x="50.683594"/>
       <use xlink:href="#Calibri-35" x="75.927734"/>
      </g>
     </g>
    </g>
    <g id="ytick_15">
     <g id="line2d_26">
      <g>
       <use xlink:href="#m6492665f50" x="374.4576" y="147.9168" style="stroke: #000000; stroke-width: 0.8"/>
      </g>
     </g>
     <g id="text_29">
      <!-- 0.6 -->
      <g transform="translate(381.4576 151.317581) scale(0.1 -0.1)">
       <use xlink:href="#Calibri-30"/>
       <use xlink:href="#Calibri-2e" x="50.683594"/>
       <use xlink:href="#Calibri-36" x="75.927734"/>
      </g>
     </g>
    </g>
    <g id="ytick_16">
     <g id="line2d_27">
      <g>
       <use xlink:href="#m6492665f50" x="374.4576" y="121.3056" style="stroke: #000000; stroke-width: 0.8"/>
      </g>
     </g>
     <g id="text_30">
      <!-- 0.7 -->
      <g transform="translate(381.4576 124.706381) scale(0.1 -0.1)">
       <use xlink:href="#Calibri-30"/>
       <use xlink:href="#Calibri-2e" x="50.683594"/>
       <use xlink:href="#Calibri-37" x="75.927734"/>
      </g>
     </g>
    </g>
    <g id="ytick_17">
     <g id="line2d_28">
      <g>
       <use xlink:href="#m6492665f50" x="374.4576" y="94.6944" style="stroke: #000000; stroke-width: 0.8"/>
      </g>
     </g>
     <g id="text_31">
      <!-- 0.8 -->
      <g transform="translate(381.4576 98.095181) scale(0.1 -0.1)">
       <use xlink:href="#Calibri-30"/>
       <use xlink:href="#Calibri-2e" x="50.683594"/>
       <use xlink:href="#Calibri-38" x="75.927734"/>
      </g>
     </g>
    </g>
    <g id="ytick_18">
     <g id="line2d_29">
      <g>
       <use xlink:href="#m6492665f50" x="374.4576" y="68.0832" style="stroke: #000000; stroke-width: 0.8"/>
      </g>
     </g>
     <g id="text_32">
      <!-- 0.9 -->
      <g transform="translate(381.4576 71.483981) scale(0.1 -0.1)">
       <use xlink:href="#Calibri-30"/>
       <use xlink:href="#Calibri-2e" x="50.683594"/>
       <use xlink:href="#Calibri-39" x="75.927734"/>
      </g>
     </g>
    </g>
    <g id="ytick_19">
     <g id="line2d_30">
      <g>
       <use xlink:href="#m6492665f50" x="374.4576" y="41.472" style="stroke: #000000; stroke-width: 0.8"/>
      </g>
     </g>
     <g id="text_33">
      <!-- 1.0 -->
      <g transform="translate(381.4576 44.872781) scale(0.1 -0.1)">
       <use xlink:href="#Calibri-31"/>
       <use xlink:href="#Calibri-2e" x="50.683594"/>
       <use xlink:href="#Calibri-30" x="75.927734"/>
      </g>
     </g>
    </g>
   </g>
   <g id="LineCollection_1"/>
   <g id="patch_8">
    <path d="M 361.152 307.584 
L 367.8048 307.584 
L 374.4576 307.584 
L 374.4576 41.472 
L 367.8048 41.472 
L 361.152 41.472 
L 361.152 307.584 
z
" style="fill: none; stroke: #000000; stroke-width: 0.8; stroke-linejoin: miter; stroke-linecap: square"/>
   </g>
   <g id="text_34">
    <!-- $\mathit{E}_{\mathrm{dis}}$/$\mathit{E}_{\mathrm{i}}$ -->
    <g transform="translate(353.2548 35.472) scale(0.1 -0.1)">
     <defs>
      <path id="DejaVuSans-Oblique-45" d="M 1081 4666 
L 4031 4666 
L 3928 4134 
L 1606 4134 
L 1338 2753 
L 3566 2753 
L 3463 2222 
L 1234 2222 
L 909 531 
L 3284 531 
L 3181 0 
L 172 0 
L 1081 4666 
z
" transform="scale(0.015625)"/>
      <path id="DejaVuSans-64" d="M 2906 2969 
L 2906 4863 
L 3481 4863 
L 3481 0 
L 2906 0 
L 2906 525 
Q 2725 213 2448 61 
Q 2172 -91 1784 -91 
Q 1150 -91 751 415 
Q 353 922 353 1747 
Q 353 2572 751 3078 
Q 1150 3584 1784 3584 
Q 2172 3584 2448 3432 
Q 2725 3281 2906 2969 
z
M 947 1747 
Q 947 1113 1208 752 
Q 1469 391 1925 391 
Q 2381 391 2643 752 
Q 2906 1113 2906 1747 
Q 2906 2381 2643 2742 
Q 2381 3103 1925 3103 
Q 1469 3103 1208 2742 
Q 947 2381 947 1747 
z
" transform="scale(0.015625)"/>
      <path id="DejaVuSans-69" d="M 603 3500 
L 1178 3500 
L 1178 0 
L 603 0 
L 603 3500 
z
M 603 4863 
L 1178 4863 
L 1178 4134 
L 603 4134 
L 603 4863 
z
" transform="scale(0.015625)"/>
      <path id="DejaVuSans-73" d="M 2834 3397 
L 2834 2853 
Q 2591 2978 2328 3040 
Q 2066 3103 1784 3103 
Q 1356 3103 1142 2972 
Q 928 2841 928 2578 
Q 928 2378 1081 2264 
Q 1234 2150 1697 2047 
L 1894 2003 
Q 2506 1872 2764 1633 
Q 3022 1394 3022 966 
Q 3022 478 2636 193 
Q 2250 -91 1575 -91 
Q 1294 -91 989 -36 
Q 684 19 347 128 
L 347 722 
Q 666 556 975 473 
Q 1284 391 1588 391 
Q 1994 391 2212 530 
Q 2431 669 2431 922 
Q 2431 1156 2273 1281 
Q 2116 1406 1581 1522 
L 1381 1569 
Q 847 1681 609 1914 
Q 372 2147 372 2553 
Q 372 3047 722 3315 
Q 1072 3584 1716 3584 
Q 2034 3584 2315 3537 
Q 2597 3491 2834 3397 
z
" transform="scale(0.015625)"/>
     </defs>
     <use xlink:href="#DejaVuSans-Oblique-45" transform="translate(0 0.09375)"/>
     <use xlink:href="#DejaVuSans-64" transform="translate(63.183594 -16.3125) scale(0.7)"/>
     <use xlink:href="#DejaVuSans-69" transform="translate(107.617188 -16.3125) scale(0.7)"/>
     <use xlink:href="#DejaVuSans-73" transform="translate(127.06543 -16.3125) scale(0.7)"/>
     <use xlink:href="#Calibri-2f" transform="translate(166.269531 0.09375)"/>
     <use xlink:href="#DejaVuSans-Oblique-45" transform="translate(204.892578 0.09375)"/>
     <use xlink:href="#DejaVuSans-69" transform="translate(268.076172 -16.3125) scale(0.7)"/>
    </g>
   </g>
  </g>
 </g>
 <defs>
  <clipPath id="pea056349fb">
   <rect x="57.6" y="41.472" width="285.696" height="266.112"/>
  </clipPath>
  <clipPath id="pfd650eedbb">
   <rect x="361.152" y="41.472" width="13.3056" height="266.112"/>
  </clipPath>
 </defs>
</svg>
