<?xml version="1.0" encoding="utf-8" standalone="no"?>
<!DOCTYPE svg PUBLIC "-//W3C//DTD SVG 1.1//EN"
  "http://www.w3.org/Graphics/SVG/1.1/DTD/svg11.dtd">
<svg xmlns:xlink="http://www.w3.org/1999/xlink" width="460.8pt" height="345.6pt" viewBox="0 0 460.8 345.6" xmlns="http://www.w3.org/2000/svg" version="1.1">
 <metadata>
  <rdf:RDF xmlns:dc="http://purl.org/dc/elements/1.1/" xmlns:cc="http://creativecommons.org/ns#" xmlns:rdf="http://www.w3.org/1999/02/22-rdf-syntax-ns#">
   <cc:Work>
    <dc:type rdf:resource="http://purl.org/dc/dcmitype/StillImage"/>
    <dc:date>2024-01-22T08:53:25.756637</dc:date>
    <dc:format>image/svg+xml</dc:format>
    <dc:creator>
     <cc:Agent>
      <dc:title>Matplotlib v3.7.1, https://matplotlib.org/</dc:title>
     </cc:Agent>
    </dc:creator>
   </cc:Work>
  </rdf:RDF>
 </metadata>
 <defs>
  <style type="text/css">*{stroke-linejoin: round; stroke-linecap: butt}</style>
 </defs>
 <g id="figure_1">
  <g id="patch_1">
   <path d="M 0 345.6 
L 460.8 345.6 
L 460.8 0 
L 0 0 
z
" style="fill: #ffffff"/>
  </g>
  <g id="axes_1">
   <g id="patch_2">
    <path d="M 57.6 307.584 
L 343.296 307.584 
L 343.296 41.472 
L 57.6 41.472 
z
" style="fill: #ffffff"/>
   </g>
   <g id="PathCollection_1">
    <path clip-path="url(#pa34e90b34b)" style="fill: #0000b6"/>
   </g>
   <g id="PathCollection_2">
    <path clip-path="url(#pa34e90b34b)" style="fill: #0018ff"/>
   </g>
   <g id="PathCollection_3">
    <path clip-path="url(#pa34e90b34b)" style="fill: #0080ff"/>
   </g>
   <g id="PathCollection_4">
    <path d="M 57.62857 42.372804 
L 57.94293 42.158278 
L 58.924066 41.472 
L 57.62857 41.472 
" clip-path="url(#pa34e90b34b)" style="fill: #00e4f8"/>
   </g>
   <g id="PathCollection_5">
    <path d="M 58.924066 41.472 
L 57.94293 42.158278 
L 57.62857 42.372804 
L 57.62857 44.7984 
L 57.62857 48.1248 
L 57.62857 51.4512 
L 57.62857 54.7776 
L 57.62857 58.104 
L 57.62857 61.4304 
L 57.62857 64.7568 
L 57.62857 68.0832 
L 57.62857 71.4096 
L 57.62857 74.736 
L 57.62857 78.0624 
L 57.62857 81.3888 
L 57.62857 84.7152 
L 57.62857 88.0416 
L 57.62857 91.368 
L 57.62857 94.6944 
L 57.62857 95.580854 
L 57.981749 95.465423 
L 58.491297 95.292106 
L 59.454582 94.96776 
L 59.603901 94.917753 
L 60.254982 94.6944 
L 61.663024 94.209098 
L 63.061994 93.72012 
L 63.247299 93.654991 
L 63.292624 93.638474 
L 64.100167 93.353637 
L 64.38518 93.249713 
L 65.868476 92.724454 
L 66.561772 92.469888 
L 66.953496 92.330672 
L 68.035717 91.933063 
L 68.480665 91.774298 
L 69.578768 91.368 
L 69.80245 91.284643 
L 69.836573 91.271512 
L 71.084603 90.806128 
L 71.709999 90.564576 
L 72.646513 90.212843 
L 73.119685 90.029329 
L 73.679779 89.818831 
L 75.40703 89.146426 
L 75.485931 89.116557 
L 75.743468 89.01588 
L 76.088081 88.881698 
L 76.838489 88.582655 
L 77.671514 88.253821 
L 78.202262 88.0416 
L 79.461093 87.535588 
L 79.77971 87.404509 
L 80.604084 87.06732 
L 81.409799 86.735757 
L 81.643449 86.636343 
L 82.319482 86.357053 
L 82.891088 86.113656 
L 83.967636 85.666945 
L 84.955199 85.243229 
L 85.140894 85.165868 
L 86.190429 84.7152 
L 86.514803 84.57484 
L 86.676499 84.502564 
L 87.956557 83.944386 
L 88.276303 83.800814 
L 89.0525 83.46206 
L 90.499345 82.809749 
L 90.766411 82.692282 
L 91.493247 82.36308 
L 91.702807 82.266967 
L 92.992338 81.676711 
L 93.129722 81.614209 
L 93.614067 81.3888 
L 94.699258 80.883305 
L 95.002548 80.738794 
L 95.687335 80.41452 
L 96.599611 79.979681 
L 96.910282 79.826942 
L 97.524128 79.533101 
L 98.261288 79.17033 
L 99.093039 78.770258 
L 100.26889 78.186864 
L 100.312155 78.165963 
L 100.52068 78.0624 
L 101.574508 77.534726 
L 102.20758 77.20802 
L 103.093002 76.76098 
L 103.33993 76.630467 
L 103.33993 74.736 
L 103.33993 71.4096 
L 103.33993 68.0832 
L 103.33993 64.7568 
L 103.33993 61.4304 
L 103.33993 58.104 
L 103.33993 54.7776 
L 103.33993 51.4512 
L 103.33993 48.1248 
L 103.33993 44.7984 
L 103.33993 41.472 
L 101.816218 41.472 
L 100.292506 41.472 
L 98.768794 41.472 
L 97.245082 41.472 
L 95.72137 41.472 
L 94.197658 41.472 
L 92.673946 41.472 
L 91.150234 41.472 
L 89.626522 41.472 
L 88.10281 41.472 
L 86.579098 41.472 
L 85.055386 41.472 
L 83.531674 41.472 
L 82.007962 41.472 
L 80.48425 41.472 
L 78.960538 41.472 
L 77.436826 41.472 
L 75.913114 41.472 
L 74.389402 41.472 
L 72.86569 41.472 
L 71.341978 41.472 
L 69.818266 41.472 
L 68.294554 41.472 
L 66.770842 41.472 
L 65.24713 41.472 
L 63.723418 41.472 
L 62.199706 41.472 
L 60.675994 41.472 
L 59.152282 41.472 
" clip-path="url(#pa34e90b34b)" style="fill: #53ffa4"/>
   </g>
   <g id="PathCollection_6">
    <path d="M 103.33993 76.630467 
L 103.093002 76.76098 
L 102.20758 77.20802 
L 101.574508 77.534726 
L 100.52068 78.0624 
L 100.312155 78.165963 
L 100.26889 78.186864 
L 99.093039 78.770258 
L 98.261288 79.17033 
L 97.524128 79.533101 
L 96.910282 79.826942 
L 96.599611 79.979681 
L 95.687335 80.41452 
L 95.002548 80.738794 
L 94.699258 80.883305 
L 93.614067 81.3888 
L 93.129722 81.614209 
L 92.992338 81.676711 
L 91.702807 82.266967 
L 91.493247 82.36308 
L 90.766411 82.692282 
L 90.499345 82.809749 
L 89.0525 83.46206 
L 88.276303 83.800814 
L 87.956557 83.944386 
L 86.676499 84.502564 
L 86.514803 84.57484 
L 86.190429 84.7152 
L 85.140894 85.165868 
L 84.955199 85.243229 
L 83.967636 85.666945 
L 82.891088 86.113656 
L 82.319482 86.357053 
L 81.643449 86.636343 
L 81.409799 86.735757 
L 80.604084 87.06732 
L 79.77971 87.404509 
L 79.461093 87.535588 
L 78.202262 88.0416 
L 77.671514 88.253821 
L 76.838489 88.582655 
L 76.088081 88.881698 
L 75.743468 89.01588 
L 75.485931 89.116557 
L 75.40703 89.146426 
L 73.679779 89.818831 
L 73.119685 90.029329 
L 72.646513 90.212843 
L 71.709999 90.564576 
L 71.084603 90.806128 
L 69.836573 91.271512 
L 69.80245 91.284643 
L 69.578768 91.368 
L 68.480665 91.774298 
L 68.035717 91.933063 
L 66.953496 92.330672 
L 66.561772 92.469888 
L 65.868476 92.724454 
L 64.38518 93.249713 
L 64.100167 93.353637 
L 63.292624 93.638474 
L 63.247299 93.654991 
L 63.061994 93.72012 
L 61.663024 94.209098 
L 60.254982 94.6944 
L 59.603901 94.917753 
L 59.454582 94.96776 
L 58.491297 95.292106 
L 57.981749 95.465423 
L 57.62857 95.580854 
L 57.62857 98.0208 
L 57.62857 101.3472 
L 57.62857 104.6736 
L 57.62857 108 
L 57.62857 111.3264 
L 57.62857 114.6528 
L 57.62857 117.9792 
L 57.62857 121.3056 
L 57.62857 124.632 
L 57.62857 127.9584 
L 57.62857 131.2848 
L 57.62857 134.6112 
L 57.62857 137.9376 
L 57.62857 141.264 
L 57.62857 141.854746 
L 57.889026 141.832601 
L 58.597875 141.76533 
L 59.605572 141.673895 
L 59.923177 141.645253 
L 61.996869 141.447418 
L 62.365461 141.413887 
L 63.938442 141.264 
L 65.121587 141.150476 
L 65.404002 141.122145 
L 67.585062 140.913114 
L 67.874152 140.883845 
L 68.820248 140.788633 
L 70.126836 140.66304 
L 70.621793 140.612762 
L 72.243195 140.44906 
L 72.660282 140.408848 
L 73.364358 140.337089 
L 73.831986 140.28972 
L 75.394048 140.130834 
L 75.499233 140.118935 
L 76.311297 140.036202 
L 76.484492 140.01663 
L 78.304091 139.830919 
L 78.60785 139.796421 
L 79.299804 139.725683 
L 79.685219 139.681956 
L 81.211671 139.525627 
L 81.7176 139.467936 
L 82.287236 139.409501 
L 82.888837 139.34097 
L 84.116707 139.214781 
L 84.828521 139.13328 
L 85.273558 139.087466 
L 86.095444 138.993458 
L 87.019114 138.898195 
L 87.940652 138.792242 
L 88.258732 138.75938 
L 89.305145 138.639193 
L 89.918803 138.575675 
L 91.054036 138.444602 
L 91.242719 138.425038 
L 92.518047 138.27794 
L 92.81568 138.24702 
L 94.168717 138.090129 
L 94.225477 138.084222 
L 95.491236 137.9376 
L 95.709706 137.912138 
L 95.734495 137.908945 
L 97.206908 137.736408 
L 97.285173 137.726302 
L 98.601423 137.572216 
L 98.957262 137.526157 
L 100.186975 137.381408 
L 100.403364 137.353326 
L 101.490047 137.22554 
L 102.183726 137.135296 
L 103.165671 137.019182 
L 103.33993 136.995204 
L 103.33993 134.6112 
L 103.33993 131.2848 
L 103.33993 127.9584 
L 103.33993 124.632 
L 103.33993 121.3056 
L 103.33993 117.9792 
L 103.33993 114.6528 
L 103.33993 111.3264 
L 103.33993 108 
L 103.33993 104.6736 
L 103.33993 101.3472 
L 103.33993 98.0208 
L 103.33993 94.6944 
L 103.33993 91.368 
L 103.33993 88.0416 
L 103.33993 84.7152 
L 103.33993 81.3888 
L 103.33993 78.0624 
" clip-path="url(#pa34e90b34b)" style="fill: #a4ff53"/>
   </g>
   <g id="PathCollection_7">
    <path d="M 103.33993 136.995204 
L 103.165671 137.019182 
L 102.183726 137.135296 
L 101.490047 137.22554 
L 100.403364 137.353326 
L 100.186975 137.381408 
L 98.957262 137.526157 
L 98.601423 137.572216 
L 97.285173 137.726302 
L 97.206908 137.736408 
L 95.734495 137.908945 
L 95.709706 137.912138 
L 95.491236 137.9376 
L 94.225477 138.084222 
L 94.168717 138.090129 
L 92.81568 138.24702 
L 92.518047 138.27794 
L 91.242719 138.425038 
L 91.054036 138.444602 
L 89.918803 138.575675 
L 89.305145 138.639193 
L 88.258732 138.75938 
L 87.940652 138.792242 
L 87.019114 138.898195 
L 86.095444 138.993458 
L 85.273558 139.087466 
L 84.828521 139.13328 
L 84.116707 139.214781 
L 82.888837 139.34097 
L 82.287236 139.409501 
L 81.7176 139.467936 
L 81.211671 139.525627 
L 79.685219 139.681956 
L 79.299804 139.725683 
L 78.60785 139.796421 
L 78.304091 139.830919 
L 76.484492 140.01663 
L 76.311297 140.036202 
L 75.499233 140.118935 
L 75.394048 140.130834 
L 73.831986 140.28972 
L 73.364358 140.337089 
L 72.660282 140.408848 
L 72.243195 140.44906 
L 70.621793 140.612762 
L 70.126836 140.66304 
L 68.820248 140.788633 
L 67.874152 140.883845 
L 67.585062 140.913114 
L 65.404002 141.122145 
L 65.121587 141.150476 
L 63.938442 141.264 
L 62.365461 141.413887 
L 61.996869 141.447418 
L 59.923177 141.645253 
L 59.605572 141.673895 
L 58.597875 141.76533 
L 57.889026 141.832601 
L 57.62857 141.854746 
L 57.62857 144.5904 
L 57.62857 147.9168 
L 57.62857 151.2432 
L 57.62857 154.5696 
L 57.62857 157.896 
L 57.62857 161.2224 
L 57.62857 164.5488 
L 57.62857 167.8752 
L 57.62857 171.2016 
L 57.62857 174.528 
L 57.62857 177.8544 
L 57.62857 181.1808 
L 57.62857 184.078334 
L 57.708692 184.084918 
L 59.011699 184.200296 
L 59.282964 184.221908 
L 60.644972 184.343705 
L 60.706084 184.348611 
L 62.188062 184.481782 
L 62.210517 184.483599 
L 62.470568 184.5072 
L 63.702269 184.618662 
L 63.745385 184.622976 
L 65.136165 184.749447 
L 65.368837 184.772898 
L 66.69728 184.894904 
L 66.847293 184.910133 
L 68.058768 185.021942 
L 68.553513 185.072531 
L 69.690885 185.178555 
L 69.950724 185.205316 
L 70.978108 185.30156 
L 71.742156 185.380825 
L 72.683038 185.469858 
L 73.055731 185.508805 
L 73.894081 185.588528 
L 74.934911 185.698096 
L 75.67369 185.769068 
L 76.16237 185.82089 
L 76.806579 185.883085 
L 78.131929 186.024673 
L 78.662792 186.076453 
L 79.270697 186.141877 
L 79.715486 186.18548 
L 81.333368 186.360901 
L 81.650289 186.392291 
L 82.380774 186.472087 
L 82.620685 186.49597 
L 84.539394 186.707144 
L 84.636128 186.716874 
L 85.492665 186.811856 
L 85.522051 186.814827 
L 85.920259 186.85932 
L 87.466028 187.03158 
L 88.06554 187.098467 
L 88.924401 187.198696 
L 90.172486 187.339903 
L 92.146814 187.572902 
L 92.42037 187.6043 
L 92.870355 187.655994 
L 93.002366 187.671177 
L 94.352669 187.8336 
L 95.560928 187.978682 
L 95.933309 188.025249 
L 96.168365 188.054666 
L 98.244404 188.307787 
L 99.464497 188.4627 
L 100.328674 188.569278 
L 100.91862 188.645266 
L 102.179862 188.80788 
L 102.85395 188.894537 
L 102.911616 188.902598 
L 103.33993 188.956206 
L 103.33993 187.8336 
L 103.33993 184.5072 
L 103.33993 181.1808 
L 103.33993 177.8544 
L 103.33993 174.528 
L 103.33993 171.2016 
L 103.33993 167.8752 
L 103.33993 164.5488 
L 103.33993 161.2224 
L 103.33993 157.896 
L 103.33993 154.5696 
L 103.33993 151.2432 
L 103.33993 147.9168 
L 103.33993 144.5904 
L 103.33993 141.264 
L 103.33993 137.9376 
" clip-path="url(#pa34e90b34b)" style="fill: #f8f500"/>
   </g>
   <g id="PathCollection_8">
    <path d="M 103.33993 188.956206 
L 102.911616 188.902598 
L 102.85395 188.894537 
L 102.179862 188.80788 
L 100.91862 188.645266 
L 100.328674 188.569278 
L 99.464497 188.4627 
L 98.244404 188.307787 
L 96.168365 188.054666 
L 95.933309 188.025249 
L 95.560928 187.978682 
L 94.352669 187.8336 
L 93.002366 187.671177 
L 92.870355 187.655994 
L 92.42037 187.6043 
L 92.146814 187.572902 
L 90.172486 187.339903 
L 88.924401 187.198696 
L 88.06554 187.098467 
L 87.466028 187.03158 
L 85.920259 186.85932 
L 85.522051 186.814827 
L 85.492665 186.811856 
L 84.636128 186.716874 
L 84.539394 186.707144 
L 82.620685 186.49597 
L 82.380774 186.472087 
L 81.650289 186.392291 
L 81.333368 186.360901 
L 79.715486 186.18548 
L 79.270697 186.141877 
L 78.662792 186.076453 
L 78.131929 186.024673 
L 76.806579 185.883085 
L 76.16237 185.82089 
L 75.67369 185.769068 
L 74.934911 185.698096 
L 73.894081 185.588528 
L 73.055731 185.508805 
L 72.683038 185.469858 
L 71.742156 185.380825 
L 70.978108 185.30156 
L 69.950724 185.205316 
L 69.690885 185.178555 
L 68.553513 185.072531 
L 68.058768 185.021942 
L 66.847293 184.910133 
L 66.69728 184.894904 
L 65.368837 184.772898 
L 65.136165 184.749447 
L 63.745385 184.622976 
L 63.702269 184.618662 
L 62.470568 184.5072 
L 62.210517 184.483599 
L 62.188062 184.481782 
L 60.706084 184.348611 
L 60.644972 184.343705 
L 59.282964 184.221908 
L 59.011699 184.200296 
L 57.708692 184.084918 
L 57.62857 184.078334 
L 57.62857 184.5072 
L 57.62857 187.8336 
L 57.62857 191.16 
L 57.62857 194.4864 
L 57.62857 197.8128 
L 57.62857 201.1392 
L 57.62857 204.4656 
L 57.62857 207.792 
L 57.62857 211.1184 
L 57.62857 214.4448 
L 57.62857 217.7712 
L 57.62857 221.0976 
L 57.62857 224.377242 
L 57.637085 224.379118 
L 57.833696 224.424 
L 59.027434 224.696554 
L 59.307484 224.762821 
L 60.557179 225.050206 
L 60.80604 225.1094 
L 61.782554 225.334678 
L 62.719476 225.558706 
L 63.474818 225.73423 
L 63.995777 225.859453 
L 64.532303 225.98453 
L 66.139904 226.373006 
L 66.389903 226.431716 
L 67.188595 226.625749 
L 67.276518 226.646464 
L 67.807362 226.77612 
L 69.039291 227.07696 
L 70.929579 227.546444 
L 71.186556 227.609858 
L 71.430745 227.670131 
L 71.479793 227.682242 
L 71.750474 227.7504 
L 73.81474 228.270047 
L 75.417908 228.680442 
L 75.590671 228.72468 
L 76.323614 228.913278 
L 76.462708 228.950214 
L 78.204524 229.400845 
L 78.665973 229.524313 
L 79.227392 229.670357 
L 79.925909 229.857892 
L 80.923112 230.118723 
L 81.875044 230.376263 
L 82.128244 230.442858 
L 83.399353 230.787932 
L 83.635398 230.850361 
L 84.463048 231.0768 
L 85.026173 231.230763 
L 85.087899 231.248161 
L 86.342889 231.592464 
L 86.885795 231.746348 
L 87.921442 232.032687 
L 88.304917 232.141996 
L 89.044588 232.347213 
L 90.384397 232.73131 
L 90.813542 232.851313 
L 91.525895 233.0567 
L 91.739556 233.116657 
L 92.816347 233.42892 
L 93.524453 233.634116 
L 95.110609 234.101143 
L 95.520013 234.22112 
L 95.824137 234.310271 
L 96.136106 234.4032 
L 97.77955 234.892439 
L 98.115206 234.994217 
L 99.37839 235.37748 
L 99.789176 235.502014 
L 99.874938 235.528831 
L 100.664397 235.769569 
L 100.961039 235.862668 
L 102.460689 236.32266 
L 103.112089 236.528777 
L 103.33993 236.59877 
L 103.33993 234.4032 
L 103.33993 231.0768 
L 103.33993 227.7504 
L 103.33993 224.424 
L 103.33993 221.0976 
L 103.33993 217.7712 
L 103.33993 214.4448 
L 103.33993 211.1184 
L 103.33993 207.792 
L 103.33993 204.4656 
L 103.33993 201.1392 
L 103.33993 197.8128 
L 103.33993 194.4864 
L 103.33993 191.16 
" clip-path="url(#pa34e90b34b)" style="fill: #ff9400"/>
   </g>
   <g id="PathCollection_9">
    <path d="M 103.33993 236.59877 
L 103.112089 236.528777 
L 102.460689 236.32266 
L 100.961039 235.862668 
L 100.664397 235.769569 
L 99.874938 235.528831 
L 99.789176 235.502014 
L 99.37839 235.37748 
L 98.115206 234.994217 
L 97.77955 234.892439 
L 96.136106 234.4032 
L 95.824137 234.310271 
L 95.520013 234.22112 
L 95.110609 234.101143 
L 93.524453 233.634116 
L 92.816347 233.42892 
L 91.739556 233.116657 
L 91.525895 233.0567 
L 90.813542 232.851313 
L 90.384397 232.73131 
L 89.044588 232.347213 
L 88.304917 232.141996 
L 87.921442 232.032687 
L 86.885795 231.746348 
L 86.342889 231.592464 
L 85.087899 231.248161 
L 85.026173 231.230763 
L 84.463048 231.0768 
L 83.635398 230.850361 
L 83.399353 230.787932 
L 82.128244 230.442858 
L 81.875044 230.376263 
L 80.923112 230.118723 
L 79.925909 229.857892 
L 79.227392 229.670357 
L 78.665973 229.524313 
L 78.204524 229.400845 
L 76.462708 228.950214 
L 76.323614 228.913278 
L 75.590671 228.72468 
L 75.417908 228.680442 
L 73.81474 228.270047 
L 71.750474 227.7504 
L 71.479793 227.682242 
L 71.430745 227.670131 
L 71.186556 227.609858 
L 70.929579 227.546444 
L 69.039291 227.07696 
L 67.807362 226.77612 
L 67.276518 226.646464 
L 67.188595 226.625749 
L 66.389903 226.431716 
L 66.139904 226.373006 
L 64.532303 225.98453 
L 63.995777 225.859453 
L 63.474818 225.73423 
L 62.719476 225.558706 
L 61.782554 225.334678 
L 60.80604 225.1094 
L 60.557179 225.050206 
L 59.307484 224.762821 
L 59.027434 224.696554 
L 57.833696 224.424 
L 57.637085 224.379118 
L 57.62857 224.377242 
L 57.62857 224.424 
L 57.62857 227.7504 
L 57.62857 231.0768 
L 57.62857 234.4032 
L 57.62857 237.7296 
L 57.62857 241.056 
L 57.62857 244.3824 
L 57.62857 247.7088 
L 57.62857 251.0352 
L 57.62857 254.3616 
L 57.62857 257.688 
L 57.62857 261.0144 
L 57.62857 264.3408 
L 57.62857 264.891039 
L 57.740347 264.929914 
L 58.725431 265.272653 
L 59.744331 265.633298 
L 60.388019 265.858552 
L 61.005631 266.078138 
L 61.348721 266.198575 
L 62.732712 266.69292 
L 63.122677 266.832589 
L 63.565807 266.991582 
L 65.124721 267.55651 
L 65.299631 267.619725 
L 65.324741 267.628816 
L 65.42969 267.6672 
L 67.46896 268.413756 
L 68.084876 268.64148 
L 69.185151 269.049346 
L 69.469714 269.15658 
L 70.120809 269.399061 
L 70.714373 269.623483 
L 71.785947 270.024376 
L 72.751479 270.39166 
L 72.964694 270.471804 
L 74.331807 270.9936 
L 74.380803 271.012372 
L 74.401733 271.020522 
L 75.805353 271.561548 
L 76.038153 271.652614 
L 76.969894 272.012954 
L 78.108836 272.460659 
L 78.642763 272.668414 
L 79.329798 272.939766 
L 79.55288 273.026863 
L 80.356208 273.34572 
L 81.193393 273.678747 
L 82.789619 274.32 
L 83.303008 274.526774 
L 84.134214 274.864856 
L 85.189083 275.29428 
L 85.479126 275.413098 
L 85.574191 275.452598 
L 87.265171 276.148641 
L 87.866324 276.400014 
L 88.304873 276.581434 
L 89.337133 277.014639 
L 89.82333 277.216749 
L 90.840525 277.6464 
L 91.127186 277.767872 
L 91.177373 277.789436 
L 92.375104 278.298798 
L 93.120198 278.620609 
L 93.94577 278.973959 
L 94.49476 279.212264 
L 94.920356 279.395085 
L 96.303207 279.99852 
L 96.637291 280.144564 
L 98.513216 280.9728 
L 98.684824 281.048731 
L 99.016844 281.197103 
L 100.250092 281.747342 
L 100.693583 281.94708 
L 100.735234 281.965825 
L 100.750584 281.972826 
L 102.516054 282.771394 
L 103.101015 283.040014 
L 103.33993 283.149303 
L 103.33993 280.9728 
L 103.33993 277.6464 
L 103.33993 274.32 
L 103.33993 270.9936 
L 103.33993 267.6672 
L 103.33993 264.3408 
L 103.33993 261.0144 
L 103.33993 257.688 
L 103.33993 254.3616 
L 103.33993 251.0352 
L 103.33993 247.7088 
L 103.33993 244.3824 
L 103.33993 241.056 
L 103.33993 237.7296 
" clip-path="url(#pa34e90b34b)" style="fill: #ff3800"/>
   </g>
   <g id="PathCollection_10">
    <path d="M 103.33993 283.149303 
L 103.101015 283.040014 
L 102.516054 282.771394 
L 100.750584 281.972826 
L 100.735234 281.965825 
L 100.693583 281.94708 
L 100.250092 281.747342 
L 99.016844 281.197103 
L 98.684824 281.048731 
L 98.513216 280.9728 
L 96.637291 280.144564 
L 96.303207 279.99852 
L 94.920356 279.395085 
L 94.49476 279.212264 
L 93.94577 278.973959 
L 93.120198 278.620609 
L 92.375104 278.298798 
L 91.177373 277.789436 
L 91.127186 277.767872 
L 90.840525 277.6464 
L 89.82333 277.216749 
L 89.337133 277.014639 
L 88.304873 276.581434 
L 87.866324 276.400014 
L 87.265171 276.148641 
L 85.574191 275.452598 
L 85.479126 275.413098 
L 85.189083 275.29428 
L 84.134214 274.864856 
L 83.303008 274.526774 
L 82.789619 274.32 
L 81.193393 273.678747 
L 80.356208 273.34572 
L 79.55288 273.026863 
L 79.329798 272.939766 
L 78.642763 272.668414 
L 78.108836 272.460659 
L 76.969894 272.012954 
L 76.038153 271.652614 
L 75.805353 271.561548 
L 74.401733 271.020522 
L 74.380803 271.012372 
L 74.331807 270.9936 
L 72.964694 270.471804 
L 72.751479 270.39166 
L 71.785947 270.024376 
L 70.714373 269.623483 
L 70.120809 269.399061 
L 69.469714 269.15658 
L 69.185151 269.049346 
L 68.084876 268.64148 
L 67.46896 268.413756 
L 65.42969 267.6672 
L 65.324741 267.628816 
L 65.299631 267.619725 
L 65.124721 267.55651 
L 63.565807 266.991582 
L 63.122677 266.832589 
L 62.732712 266.69292 
L 61.348721 266.198575 
L 61.005631 266.078138 
L 60.388019 265.858552 
L 59.744331 265.633298 
L 58.725431 265.272653 
L 57.740347 264.929914 
L 57.62857 264.891039 
L 57.62857 267.6672 
L 57.62857 270.9936 
L 57.62857 274.32 
L 57.62857 277.6464 
L 57.62857 280.9728 
L 57.62857 284.2992 
L 57.62857 287.6256 
L 57.62857 290.952 
L 57.62857 294.2784 
L 57.62857 297.6048 
L 57.62857 300.9312 
L 57.62857 304.2576 
L 57.62857 307.584 
L 59.152282 307.584 
L 60.675994 307.584 
L 62.199706 307.584 
L 63.723418 307.584 
L 65.24713 307.584 
L 66.770842 307.584 
L 68.294554 307.584 
L 69.818266 307.584 
L 71.341978 307.584 
L 72.86569 307.584 
L 74.389402 307.584 
L 75.913114 307.584 
L 77.436826 307.584 
L 78.960538 307.584 
L 80.48425 307.584 
L 82.007962 307.584 
L 83.531674 307.584 
L 85.055386 307.584 
L 86.579098 307.584 
L 88.10281 307.584 
L 89.626522 307.584 
L 91.150234 307.584 
L 92.673946 307.584 
L 94.197658 307.584 
L 95.72137 307.584 
L 97.245082 307.584 
L 98.768794 307.584 
L 100.292506 307.584 
L 101.816218 307.584 
L 103.33993 307.584 
L 103.33993 304.2576 
L 103.33993 300.9312 
L 103.33993 297.6048 
L 103.33993 294.2784 
L 103.33993 290.952 
L 103.33993 287.6256 
L 103.33993 284.2992 
" clip-path="url(#pa34e90b34b)" style="fill: #b60000"/>
   </g>
   <g id="PathCollection_11">
    <path clip-path="url(#pa34e90b34b)" style="fill: #0000b6"/>
   </g>
   <g id="PathCollection_12">
    <path clip-path="url(#pa34e90b34b)" style="fill: #0018ff"/>
   </g>
   <g id="PathCollection_13">
    <path clip-path="url(#pa34e90b34b)" style="fill: #0080ff"/>
   </g>
   <g id="PathCollection_14">
    <path clip-path="url(#pa34e90b34b)" style="fill: #00e4f8"/>
   </g>
   <g id="PathCollection_15">
    <path d="M 100.4544 78.080595 
L 101.173329 77.741421 
L 102.735681 76.9536 
L 105.466555 75.554406 
L 107.718068 74.35552 
L 112.08831 71.961534 
L 116.075011 69.588068 
L 117.013724 69.06175 
L 118.646605 68.0832 
L 122.5483 65.683057 
L 128.367472 61.81088 
L 129.200341 61.238028 
L 132.135061 59.2128 
L 134.367441 57.584146 
L 135.442115 56.722725 
L 135.58545 56.61472 
L 142.045292 51.566757 
L 143.503121 50.3424 
L 147.662266 46.743243 
L 150.599428 44.07008 
L 151.028994 43.670526 
L 153.358781 41.472 
L 149.02272 41.472 
L 140.928 41.472 
L 132.83328 41.472 
L 124.73856 41.472 
L 116.64384 41.472 
L 108.54912 41.472 
L 100.4544 41.472 
L 100.4544 50.3424 
L 100.4544 59.2128 
L 100.4544 68.0832 
L 100.4544 76.9536 
" clip-path="url(#pa34e90b34b)" style="fill: #53ffa4"/>
   </g>
   <g id="PathCollection_16">
    <path d="M 153.358781 41.472 
L 151.028994 43.670526 
L 150.599428 44.07008 
L 147.662266 46.743243 
L 143.503121 50.3424 
L 142.045292 51.566757 
L 135.58545 56.61472 
L 135.442115 56.722725 
L 134.367441 57.584146 
L 132.135061 59.2128 
L 129.200341 61.238028 
L 128.367472 61.81088 
L 122.5483 65.683057 
L 118.646605 68.0832 
L 117.013724 69.06175 
L 116.075011 69.588068 
L 112.08831 71.961534 
L 107.718068 74.35552 
L 105.466555 75.554406 
L 102.735681 76.9536 
L 101.173329 77.741421 
L 100.4544 78.080595 
L 100.4544 85.824 
L 100.4544 94.6944 
L 100.4544 103.5648 
L 100.4544 112.4352 
L 100.4544 121.3056 
L 100.4544 130.176 
L 100.4544 137.333316 
L 101.13685 137.24094 
L 106.367342 136.655552 
L 111.405058 135.91679 
L 115.291494 135.468693 
L 118.157772 135.041207 
L 120.806538 134.737591 
L 129.931918 133.355387 
L 130.649997 133.270401 
L 133.866383 132.77408 
L 134.703667 132.649831 
L 135.954158 132.433656 
L 143.30912 131.256804 
L 144.52742 131.069553 
L 149.486445 130.176 
L 154.912237 129.175046 
L 162.811311 127.591519 
L 162.859594 127.582469 
L 162.880248 127.57792 
L 167.23762 126.664069 
L 168.770452 126.276733 
L 176.350465 124.640837 
L 180.565596 123.517295 
L 182.108317 123.17526 
L 189.073506 121.3056 
L 189.411416 121.21256 
L 189.654693 121.132051 
L 196.741837 119.058985 
L 198.694292 118.386884 
L 202.103384 117.379942 
L 208.672164 115.03328 
L 210.184491 114.4772 
L 215.423452 112.4352 
L 218.757196 111.01992 
L 221.391997 109.83712 
L 225.753386 107.814615 
L 229.038664 106.028489 
L 230.611652 105.262538 
L 233.669147 103.5648 
L 236.555457 101.910999 
L 243.508764 97.29248 
L 243.619636 97.215845 
L 247.138328 94.6944 
L 248.877098 93.359568 
L 249.687499 92.621603 
L 250.311819 92.09632 
L 255.669773 87.375353 
L 257.203584 85.824 
L 260.88749 81.958022 
L 262.978045 79.55168 
L 263.320309 79.204285 
L 265.199314 76.9536 
L 266.070412 75.867979 
L 266.529147 75.176844 
L 267.138764 74.35552 
L 271.048593 68.746255 
L 271.456254 68.0832 
L 273.300566 64.952376 
L 275.223623 61.81088 
L 275.41745 61.470496 
L 275.987004 60.588966 
L 276.72617 59.2128 
L 277.809666 57.022423 
L 277.970041 56.61472 
L 279.627509 53.224123 
L 280.942931 50.3424 
L 282.780264 46.120518 
L 283.580118 44.07008 
L 284.086376 42.627909 
L 284.560922 41.472 
L 278.53824 41.472 
L 270.44352 41.472 
L 262.3488 41.472 
L 254.25408 41.472 
L 246.15936 41.472 
L 238.06464 41.472 
L 229.96992 41.472 
L 221.8752 41.472 
L 213.78048 41.472 
L 205.68576 41.472 
L 197.59104 41.472 
L 189.49632 41.472 
L 181.4016 41.472 
L 173.30688 41.472 
L 165.21216 41.472 
L 157.11744 41.472 
" clip-path="url(#pa34e90b34b)" style="fill: #a4ff53"/>
   </g>
   <g id="PathCollection_17">
    <path d="M 284.560922 41.472 
L 284.086376 42.627909 
L 283.580118 44.07008 
L 282.780264 46.120518 
L 280.942931 50.3424 
L 279.627509 53.224123 
L 277.970041 56.61472 
L 277.809666 57.022423 
L 276.72617 59.2128 
L 275.987004 60.588966 
L 275.41745 61.470496 
L 275.223623 61.81088 
L 273.300566 64.952376 
L 271.456254 68.0832 
L 271.048593 68.746255 
L 267.138764 74.35552 
L 266.529147 75.176844 
L 266.070412 75.867979 
L 265.199314 76.9536 
L 263.320309 79.204285 
L 262.978045 79.55168 
L 260.88749 81.958022 
L 257.203584 85.824 
L 255.669773 87.375353 
L 250.311819 92.09632 
L 249.687499 92.621603 
L 248.877098 93.359568 
L 247.138328 94.6944 
L 243.619636 97.215845 
L 243.508764 97.29248 
L 236.555457 101.910999 
L 233.669147 103.5648 
L 230.611652 105.262538 
L 229.038664 106.028489 
L 225.753386 107.814615 
L 221.391997 109.83712 
L 218.757196 111.01992 
L 215.423452 112.4352 
L 210.184491 114.4772 
L 208.672164 115.03328 
L 202.103384 117.379942 
L 198.694292 118.386884 
L 196.741837 119.058985 
L 189.654693 121.132051 
L 189.411416 121.21256 
L 189.073506 121.3056 
L 182.108317 123.17526 
L 180.565596 123.517295 
L 176.350465 124.640837 
L 168.770452 126.276733 
L 167.23762 126.664069 
L 162.880248 127.57792 
L 162.859594 127.582469 
L 162.811311 127.591519 
L 154.912237 129.175046 
L 149.486445 130.176 
L 144.52742 131.069553 
L 143.30912 131.256804 
L 135.954158 132.433656 
L 134.703667 132.649831 
L 133.866383 132.77408 
L 130.649997 133.270401 
L 129.931918 133.355387 
L 120.806538 134.737591 
L 118.157772 135.041207 
L 115.291494 135.468693 
L 111.405058 135.91679 
L 106.367342 136.655552 
L 101.13685 137.24094 
L 100.4544 137.333316 
L 100.4544 139.0464 
L 100.4544 147.9168 
L 100.4544 156.7872 
L 100.4544 165.6576 
L 100.4544 174.528 
L 100.4544 183.3984 
L 100.4544 188.570452 
L 101.790895 188.733026 
L 105.861315 189.323435 
L 110.705333 189.905967 
L 116.06132 190.727709 
L 117.173547 190.867431 
L 124.514595 192.023373 
L 124.914586 192.075906 
L 126.068664 192.2688 
L 132.43637 193.318848 
L 133.294548 193.489111 
L 138.941385 194.445784 
L 143.84109 195.461038 
L 147.562388 196.132191 
L 150.74362 196.821538 
L 152.641356 197.173807 
L 158.663282 198.54112 
L 161.458877 199.168597 
L 169.427163 201.1392 
L 171.378336 201.61796 
L 171.921465 201.768048 
L 179.028591 203.73728 
L 179.030288 203.737744 
L 179.03097 203.737964 
L 183.306802 204.96928 
L 185.587863 205.726613 
L 191.708725 207.58519 
L 197.452473 209.643014 
L 197.699607 209.722379 
L 198.474465 210.0096 
L 203.889046 211.978485 
L 209.749841 214.463124 
L 211.791934 215.270412 
L 214.036439 216.28192 
L 216.929657 217.652273 
L 219.621276 218.88 
L 220.420794 219.241055 
L 220.731093 219.399317 
L 224.793751 221.47808 
L 226.715481 222.446297 
L 228.316415 223.37596 
L 231.063343 224.857686 
L 235.83869 227.7504 
L 237.283324 228.606586 
L 241.414572 231.421341 
L 244.102403 233.192195 
L 245.229365 234.02272 
L 246.118362 234.621469 
L 248.713522 236.6208 
L 250.127025 237.645339 
L 250.787018 238.194519 
L 252.008597 239.21888 
L 256.560656 242.963595 
L 259.22366 245.4912 
L 261.538634 247.634539 
L 264.185501 250.350297 
L 265.147672 251.294525 
L 265.559473 251.76352 
L 266.137584 252.407111 
L 267.153573 253.544873 
L 267.956432 254.3616 
L 268.707133 255.149756 
L 270.244852 256.95968 
L 273.135188 260.282402 
L 275.347247 263.232 
L 277.488211 266.00991 
L 279.920632 269.50432 
L 280.081063 269.709887 
L 281.655399 272.1024 
L 282.420216 273.148211 
L 282.835425 273.826123 
L 283.353271 274.70048 
L 286.965554 280.608335 
L 287.153842 280.9728 
L 287.885259 282.345101 
L 290.593871 287.24512 
L 290.957892 287.880088 
L 291.906717 289.8432 
L 293.147292 292.245039 
L 293.228126 292.44128 
L 295.393053 296.953317 
L 296.149079 298.7136 
L 298.334497 303.631558 
L 298.82977 304.98592 
L 299.198525 305.939102 
L 299.880326 307.584 
L 302.8224 307.584 
L 310.91712 307.584 
L 319.01184 307.584 
L 327.10656 307.584 
L 335.20128 307.584 
L 343.296 307.584 
L 343.296 298.7136 
L 343.296 289.8432 
L 343.296 280.9728 
L 343.296 272.1024 
L 343.296 263.232 
L 343.296 254.3616 
L 343.296 245.4912 
L 343.296 236.6208 
L 343.296 227.7504 
L 343.296 218.88 
L 343.296 210.0096 
L 343.296 201.1392 
L 343.296 192.2688 
L 343.296 183.3984 
L 343.296 174.528 
L 343.296 165.6576 
L 343.296 156.7872 
L 343.296 147.9168 
L 343.296 139.0464 
L 343.296 130.176 
L 343.296 121.3056 
L 343.296 112.4352 
L 343.296 103.5648 
L 343.296 94.6944 
L 343.296 85.824 
L 343.296 76.9536 
L 343.296 68.0832 
L 343.296 59.2128 
L 343.296 50.3424 
L 343.296 41.472 
L 335.20128 41.472 
L 327.10656 41.472 
L 319.01184 41.472 
L 310.91712 41.472 
L 302.8224 41.472 
L 294.72768 41.472 
L 286.63296 41.472 
" clip-path="url(#pa34e90b34b)" style="fill: #f8f500"/>
   </g>
   <g id="PathCollection_18">
    <path d="M 299.880326 307.584 
L 299.198525 305.939102 
L 298.82977 304.98592 
L 298.334497 303.631558 
L 296.149079 298.7136 
L 295.393053 296.953317 
L 293.228126 292.44128 
L 293.147292 292.245039 
L 291.906717 289.8432 
L 290.957892 287.880088 
L 290.593871 287.24512 
L 287.885259 282.345101 
L 287.153842 280.9728 
L 286.965554 280.608335 
L 283.353271 274.70048 
L 282.835425 273.826123 
L 282.420216 273.148211 
L 281.655399 272.1024 
L 280.081063 269.709887 
L 279.920632 269.50432 
L 277.488211 266.00991 
L 275.347247 263.232 
L 273.135188 260.282402 
L 270.244852 256.95968 
L 268.707133 255.149756 
L 267.956432 254.3616 
L 267.153573 253.544873 
L 266.137584 252.407111 
L 265.559473 251.76352 
L 265.147672 251.294525 
L 264.185501 250.350297 
L 261.538634 247.634539 
L 259.22366 245.4912 
L 256.560656 242.963595 
L 252.008597 239.21888 
L 250.787018 238.194519 
L 250.127025 237.645339 
L 248.713522 236.6208 
L 246.118362 234.621469 
L 245.229365 234.02272 
L 244.102403 233.192195 
L 241.414572 231.421341 
L 237.283324 228.606586 
L 235.83869 227.7504 
L 231.063343 224.857686 
L 228.316415 223.37596 
L 226.715481 222.446297 
L 224.793751 221.47808 
L 220.731093 219.399317 
L 220.420794 219.241055 
L 219.621276 218.88 
L 216.929657 217.652273 
L 214.036439 216.28192 
L 211.791934 215.270412 
L 209.749841 214.463124 
L 203.889046 211.978485 
L 198.474465 210.0096 
L 197.699607 209.722379 
L 197.452473 209.643014 
L 191.708725 207.58519 
L 185.587863 205.726613 
L 183.306802 204.96928 
L 179.03097 203.737964 
L 179.030288 203.737744 
L 179.028591 203.73728 
L 171.921465 201.768048 
L 171.378336 201.61796 
L 169.427163 201.1392 
L 161.458877 199.168597 
L 158.663282 198.54112 
L 152.641356 197.173807 
L 150.74362 196.821538 
L 147.562388 196.132191 
L 143.84109 195.461038 
L 138.941385 194.445784 
L 133.294548 193.489111 
L 132.43637 193.318848 
L 126.068664 192.2688 
L 124.914586 192.075906 
L 124.514595 192.023373 
L 117.173547 190.867431 
L 116.06132 190.727709 
L 110.705333 189.905967 
L 105.861315 189.323435 
L 101.790895 188.733026 
L 100.4544 188.570452 
L 100.4544 192.2688 
L 100.4544 201.1392 
L 100.4544 210.0096 
L 100.4544 218.88 
L 100.4544 227.7504 
L 100.4544 235.703817 
L 101.109885 235.902503 
L 103.405719 236.6208 
L 106.452767 237.572347 
L 111.457165 239.21888 
L 113.624445 239.92953 
L 114.685212 240.309538 
L 118.157866 241.485758 
L 122.549744 243.09264 
L 125.867313 244.254283 
L 129.09007 245.4912 
L 132.361544 246.739205 
L 133.478168 247.197286 
L 137.824431 248.89217 
L 144.5687 251.76352 
L 145.647022 252.219609 
L 150.433993 254.3616 
L 153.781392 255.875852 
L 156.042623 256.95968 
L 160.784109 259.213971 
L 164.399612 261.082359 
L 165.768435 261.760343 
L 168.539847 263.232 
L 171.760848 264.926181 
L 178.218909 268.614727 
L 179.167084 269.143538 
L 179.77139 269.50432 
L 180.265281 269.810801 
L 184.072188 272.1024 
L 185.674118 273.051259 
L 186.395842 273.509725 
L 188.236062 274.70048 
L 192.648213 277.518875 
L 197.579084 280.941169 
L 197.598154 280.95398 
L 197.624366 280.9728 
L 202.520478 284.441397 
L 206.156299 287.24512 
L 208.123443 288.736721 
L 208.611677 289.116843 
L 209.472702 289.8432 
L 211.120824 291.192451 
L 212.709885 292.44128 
L 215.333734 294.604379 
L 220.00968 298.7136 
L 221.051995 299.615689 
L 226.746268 304.98592 
L 227.027649 305.245274 
L 229.38811 307.584 
L 229.96992 307.584 
L 238.06464 307.584 
L 246.15936 307.584 
L 254.25408 307.584 
L 262.3488 307.584 
L 270.44352 307.584 
L 278.53824 307.584 
L 286.63296 307.584 
L 294.72768 307.584 
" clip-path="url(#pa34e90b34b)" style="fill: #ff9400"/>
   </g>
   <g id="PathCollection_19">
    <path d="M 229.38811 307.584 
L 227.027649 305.245274 
L 226.746268 304.98592 
L 221.051995 299.615689 
L 220.00968 298.7136 
L 215.333734 294.604379 
L 212.709885 292.44128 
L 211.120824 291.192451 
L 209.472702 289.8432 
L 208.611677 289.116843 
L 208.123443 288.736721 
L 206.156299 287.24512 
L 202.520478 284.441397 
L 197.624366 280.9728 
L 197.598154 280.95398 
L 197.579084 280.941169 
L 192.648213 277.518875 
L 188.236062 274.70048 
L 186.395842 273.509725 
L 185.674118 273.051259 
L 184.072188 272.1024 
L 180.265281 269.810801 
L 179.77139 269.50432 
L 179.167084 269.143538 
L 178.218909 268.614727 
L 171.760848 264.926181 
L 168.539847 263.232 
L 165.768435 261.760343 
L 164.399612 261.082359 
L 160.784109 259.213971 
L 156.042623 256.95968 
L 153.781392 255.875852 
L 150.433993 254.3616 
L 145.647022 252.219609 
L 144.5687 251.76352 
L 137.824431 248.89217 
L 133.478168 247.197286 
L 132.361544 246.739205 
L 129.09007 245.4912 
L 125.867313 244.254283 
L 122.549744 243.09264 
L 118.157866 241.485758 
L 114.685212 240.309538 
L 113.624445 239.92953 
L 111.457165 239.21888 
L 106.452767 237.572347 
L 103.405719 236.6208 
L 101.109885 235.902503 
L 100.4544 235.703817 
L 100.4544 236.6208 
L 100.4544 245.4912 
L 100.4544 254.3616 
L 100.4544 263.232 
L 100.4544 272.1024 
L 100.4544 280.9728 
L 100.4544 281.844324 
L 100.852967 282.02723 
L 105.617651 284.185178 
L 112.037054 287.24512 
L 113.127845 287.76489 
L 114.408556 288.388599 
L 117.286848 289.8432 
L 120.837631 291.613854 
L 122.416605 292.44128 
L 127.864019 295.288643 
L 132.50193 297.836996 
L 133.052298 298.134175 
L 134.080994 298.7136 
L 138.599046 301.265728 
L 144.861114 304.98592 
L 145.639375 305.44548 
L 148.903336 307.453176 
L 149.056339 307.547159 
L 149.114632 307.584 
L 157.11744 307.584 
L 165.21216 307.584 
L 173.30688 307.584 
L 181.4016 307.584 
L 189.49632 307.584 
L 197.59104 307.584 
L 205.68576 307.584 
L 213.78048 307.584 
L 221.8752 307.584 
" clip-path="url(#pa34e90b34b)" style="fill: #ff3800"/>
   </g>
   <g id="PathCollection_20">
    <path d="M 149.114632 307.584 
L 149.056339 307.547159 
L 148.903336 307.453176 
L 145.639375 305.44548 
L 144.861114 304.98592 
L 138.599046 301.265728 
L 134.080994 298.7136 
L 133.052298 298.134175 
L 132.50193 297.836996 
L 127.864019 295.288643 
L 122.416605 292.44128 
L 120.837631 291.613854 
L 117.286848 289.8432 
L 114.408556 288.388599 
L 113.127845 287.76489 
L 112.037054 287.24512 
L 105.617651 284.185178 
L 100.852967 282.02723 
L 100.4544 281.844324 
L 100.4544 289.8432 
L 100.4544 298.7136 
L 100.4544 307.584 
L 108.54912 307.584 
L 116.64384 307.584 
L 124.73856 307.584 
L 132.83328 307.584 
L 140.928 307.584 
L 149.02272 307.584 
" clip-path="url(#pa34e90b34b)" style="fill: #b60000"/>
   </g>
   <g id="matplotlib.axis_1">
    <g id="xtick_1">
     <g id="line2d_1">
      <defs>
       <path id="md938fe8d9f" d="M 0 0 
L 0 3.5 
" style="stroke: #000000; stroke-width: 0.8"/>
      </defs>
      <g>
       <use xlink:href="#md938fe8d9f" x="57.6" y="307.584" style="stroke: #000000; stroke-width: 0.8"/>
      </g>
     </g>
     <g id="text_1">
      <!-- 0.0 -->
      <g transform="translate(51.26875 321.385562) scale(0.1 -0.1)">
       <defs>
        <path id="Calibri-30" d="M 3022 2031 
Q 3022 1566 2948 1181 
Q 2875 797 2704 520 
Q 2534 244 2259 92 
Q 1984 -59 1581 -59 
Q 1200 -59 939 77 
Q 678 213 518 477 
Q 359 741 292 1127 
Q 225 1513 225 2013 
Q 225 2475 300 2861 
Q 375 3247 544 3523 
Q 713 3800 988 3951 
Q 1263 4103 1663 4103 
Q 2047 4103 2308 3967 
Q 2569 3831 2728 3567 
Q 2888 3303 2955 2917 
Q 3022 2531 3022 2031 
z
M 2472 1994 
Q 2472 2297 2450 2537 
Q 2428 2778 2386 2962 
Q 2344 3147 2276 3280 
Q 2209 3413 2115 3498 
Q 2022 3584 1901 3623 
Q 1781 3663 1631 3663 
Q 1366 3663 1200 3538 
Q 1034 3413 939 3194 
Q 844 2975 809 2681 
Q 775 2388 775 2050 
Q 775 1597 822 1280 
Q 869 963 970 763 
Q 1072 563 1230 472 
Q 1388 381 1613 381 
Q 1788 381 1920 437 
Q 2053 494 2148 598 
Q 2244 703 2306 850 
Q 2369 997 2406 1175 
Q 2444 1353 2458 1561 
Q 2472 1769 2472 1994 
z
" transform="scale(0.015625)"/>
        <path id="Calibri-2e" d="M 1144 341 
Q 1144 119 1070 45 
Q 997 -28 803 -28 
Q 616 -28 544 44 
Q 472 116 472 331 
Q 472 553 545 626 
Q 619 700 813 700 
Q 1000 700 1072 628 
Q 1144 556 1144 341 
z
" transform="scale(0.015625)"/>
       </defs>
       <use xlink:href="#Calibri-30"/>
       <use xlink:href="#Calibri-2e" x="50.683594"/>
       <use xlink:href="#Calibri-30" x="75.927734"/>
      </g>
     </g>
    </g>
    <g id="xtick_2">
     <g id="line2d_2">
      <g>
       <use xlink:href="#md938fe8d9f" x="86.1696" y="307.584" style="stroke: #000000; stroke-width: 0.8"/>
      </g>
     </g>
     <g id="text_2">
      <!-- 0.1 -->
      <g transform="translate(79.83835 321.385562) scale(0.1 -0.1)">
       <defs>
        <path id="Calibri-31" d="M 2897 213 
Q 2897 153 2887 112 
Q 2878 72 2862 47 
Q 2847 22 2826 11 
Q 2806 0 2784 0 
L 672 0 
Q 650 0 631 11 
Q 613 22 595 47 
Q 578 72 568 112 
Q 559 153 559 213 
Q 559 269 568 309 
Q 578 350 592 376 
Q 606 403 626 417 
Q 647 431 672 431 
L 1516 431 
L 1516 3506 
L 734 3041 
Q 675 3009 639 3003 
Q 603 2997 581 3017 
Q 559 3038 551 3084 
Q 544 3131 544 3203 
Q 544 3256 548 3293 
Q 553 3331 562 3356 
Q 572 3381 589 3400 
Q 606 3419 634 3438 
L 1566 4034 
Q 1578 4044 1597 4050 
Q 1616 4056 1644 4062 
Q 1672 4069 1709 4070 
Q 1747 4072 1803 4072 
Q 1878 4072 1928 4065 
Q 1978 4059 2006 4048 
Q 2034 4038 2043 4020 
Q 2053 4003 2053 3984 
L 2053 431 
L 2784 431 
Q 2809 431 2831 417 
Q 2853 403 2867 376 
Q 2881 350 2889 309 
Q 2897 269 2897 213 
z
" transform="scale(0.015625)"/>
       </defs>
       <use xlink:href="#Calibri-30"/>
       <use xlink:href="#Calibri-2e" x="50.683594"/>
       <use xlink:href="#Calibri-31" x="75.927734"/>
      </g>
     </g>
    </g>
    <g id="xtick_3">
     <g id="line2d_3">
      <g>
       <use xlink:href="#md938fe8d9f" x="114.7392" y="307.584" style="stroke: #000000; stroke-width: 0.8"/>
      </g>
     </g>
     <g id="text_3">
      <!-- 0.2 -->
      <g transform="translate(108.40795 321.385562) scale(0.1 -0.1)">
       <defs>
        <path id="Calibri-32" d="M 2888 231 
Q 2888 175 2880 131 
Q 2872 88 2858 58 
Q 2844 28 2820 14 
Q 2797 0 2769 0 
L 534 0 
Q 491 0 458 11 
Q 425 22 401 47 
Q 378 72 367 119 
Q 356 166 356 234 
Q 356 297 361 344 
Q 366 391 381 427 
Q 397 463 420 498 
Q 444 534 481 575 
L 1266 1406 
Q 1538 1694 1702 1922 
Q 1866 2150 1955 2337 
Q 2044 2525 2072 2678 
Q 2100 2831 2100 2966 
Q 2100 3100 2056 3220 
Q 2013 3341 1930 3431 
Q 1847 3522 1722 3575 
Q 1597 3628 1434 3628 
Q 1244 3628 1092 3575 
Q 941 3522 827 3459 
Q 713 3397 636 3344 
Q 559 3291 522 3291 
Q 500 3291 483 3303 
Q 466 3316 455 3344 
Q 444 3372 437 3419 
Q 431 3466 431 3531 
Q 431 3578 434 3612 
Q 438 3647 445 3672 
Q 453 3697 465 3719 
Q 478 3741 515 3773 
Q 553 3806 645 3862 
Q 738 3919 877 3973 
Q 1016 4028 1183 4065 
Q 1350 4103 1534 4103 
Q 1828 4103 2048 4020 
Q 2269 3938 2414 3794 
Q 2559 3650 2631 3459 
Q 2703 3269 2703 3053 
Q 2703 2859 2668 2667 
Q 2634 2475 2523 2251 
Q 2413 2028 2203 1754 
Q 1994 1481 1647 1125 
L 1006 456 
L 2766 456 
Q 2791 456 2814 442 
Q 2838 428 2855 400 
Q 2872 372 2880 330 
Q 2888 288 2888 231 
z
" transform="scale(0.015625)"/>
       </defs>
       <use xlink:href="#Calibri-30"/>
       <use xlink:href="#Calibri-2e" x="50.683594"/>
       <use xlink:href="#Calibri-32" x="75.927734"/>
      </g>
     </g>
    </g>
    <g id="xtick_4">
     <g id="line2d_4">
      <g>
       <use xlink:href="#md938fe8d9f" x="143.3088" y="307.584" style="stroke: #000000; stroke-width: 0.8"/>
      </g>
     </g>
     <g id="text_4">
      <!-- 0.3 -->
      <g transform="translate(136.97755 321.385562) scale(0.1 -0.1)">
       <defs>
        <path id="Calibri-33" d="M 2856 1156 
Q 2856 878 2759 654 
Q 2663 431 2481 272 
Q 2300 113 2034 27 
Q 1769 -59 1434 -59 
Q 1231 -59 1054 -26 
Q 878 6 740 51 
Q 603 97 512 145 
Q 422 194 398 216 
Q 375 238 362 259 
Q 350 281 340 312 
Q 331 344 326 389 
Q 322 434 322 500 
Q 322 613 344 656 
Q 366 700 406 700 
Q 434 700 517 650 
Q 600 600 729 542 
Q 859 484 1032 434 
Q 1206 384 1419 384 
Q 1625 384 1781 437 
Q 1938 491 2044 587 
Q 2150 684 2203 817 
Q 2256 950 2256 1106 
Q 2256 1278 2189 1415 
Q 2122 1553 1992 1653 
Q 1863 1753 1673 1806 
Q 1484 1859 1244 1859 
L 859 1859 
Q 834 1859 811 1870 
Q 788 1881 770 1906 
Q 753 1931 742 1972 
Q 731 2013 731 2078 
Q 731 2138 740 2177 
Q 750 2216 767 2239 
Q 784 2263 806 2273 
Q 828 2284 856 2284 
L 1209 2284 
Q 1416 2284 1580 2337 
Q 1744 2391 1858 2491 
Q 1972 2591 2033 2730 
Q 2094 2869 2094 3041 
Q 2094 3166 2053 3280 
Q 2013 3394 1931 3478 
Q 1850 3563 1723 3611 
Q 1597 3659 1431 3659 
Q 1250 3659 1098 3604 
Q 947 3550 828 3487 
Q 709 3425 631 3370 
Q 553 3316 522 3316 
Q 500 3316 483 3323 
Q 466 3331 455 3354 
Q 444 3378 439 3420 
Q 434 3463 434 3531 
Q 434 3578 437 3614 
Q 441 3650 450 3676 
Q 459 3703 471 3725 
Q 484 3747 514 3776 
Q 544 3806 634 3862 
Q 725 3919 858 3973 
Q 991 4028 1164 4065 
Q 1338 4103 1538 4103 
Q 1819 4103 2031 4031 
Q 2244 3959 2386 3828 
Q 2528 3697 2598 3514 
Q 2669 3331 2669 3109 
Q 2669 2919 2619 2755 
Q 2569 2591 2472 2464 
Q 2375 2338 2234 2248 
Q 2094 2159 1909 2125 
L 1909 2119 
Q 2119 2097 2292 2014 
Q 2466 1931 2591 1806 
Q 2716 1681 2786 1514 
Q 2856 1347 2856 1156 
z
" transform="scale(0.015625)"/>
       </defs>
       <use xlink:href="#Calibri-30"/>
       <use xlink:href="#Calibri-2e" x="50.683594"/>
       <use xlink:href="#Calibri-33" x="75.927734"/>
      </g>
     </g>
    </g>
    <g id="xtick_5">
     <g id="line2d_5">
      <g>
       <use xlink:href="#md938fe8d9f" x="171.8784" y="307.584" style="stroke: #000000; stroke-width: 0.8"/>
      </g>
     </g>
     <g id="text_5">
      <!-- 0.4 -->
      <g transform="translate(165.54715 321.385562) scale(0.1 -0.1)">
       <defs>
        <path id="Calibri-34" d="M 3059 1150 
Q 3059 1047 3028 987 
Q 2997 928 2941 928 
L 2484 928 
L 2484 78 
Q 2484 53 2471 36 
Q 2459 19 2428 6 
Q 2397 -6 2347 -12 
Q 2297 -19 2219 -19 
Q 2144 -19 2094 -12 
Q 2044 -6 2014 6 
Q 1984 19 1973 36 
Q 1963 53 1963 78 
L 1963 928 
L 294 928 
Q 256 928 231 937 
Q 206 947 186 972 
Q 166 997 158 1044 
Q 150 1091 150 1166 
Q 150 1225 153 1272 
Q 156 1319 165 1358 
Q 175 1397 190 1433 
Q 206 1469 228 1509 
L 1684 3966 
Q 1700 3991 1729 4009 
Q 1759 4028 1806 4040 
Q 1853 4053 1922 4058 
Q 1991 4063 2084 4063 
Q 2188 4063 2264 4055 
Q 2341 4047 2387 4034 
Q 2434 4022 2459 4001 
Q 2484 3981 2484 3953 
L 2484 1372 
L 2941 1372 
Q 2994 1372 3026 1317 
Q 3059 1263 3059 1150 
z
M 1963 3591 
L 1956 3591 
L 641 1372 
L 1963 1372 
L 1963 3591 
z
" transform="scale(0.015625)"/>
       </defs>
       <use xlink:href="#Calibri-30"/>
       <use xlink:href="#Calibri-2e" x="50.683594"/>
       <use xlink:href="#Calibri-34" x="75.927734"/>
      </g>
     </g>
    </g>
    <g id="xtick_6">
     <g id="line2d_6">
      <g>
       <use xlink:href="#md938fe8d9f" x="200.448" y="307.584" style="stroke: #000000; stroke-width: 0.8"/>
      </g>
     </g>
     <g id="text_6">
      <!-- 0.5 -->
      <g transform="translate(194.11675 321.385562) scale(0.1 -0.1)">
       <defs>
        <path id="Calibri-35" d="M 2869 1300 
Q 2869 975 2759 722 
Q 2650 469 2450 295 
Q 2250 122 1973 31 
Q 1697 -59 1359 -59 
Q 1172 -59 1003 -32 
Q 834 -6 703 33 
Q 572 72 487 109 
Q 403 147 379 169 
Q 356 191 347 209 
Q 338 228 330 254 
Q 322 281 319 322 
Q 316 363 316 419 
Q 316 472 320 514 
Q 325 556 337 582 
Q 350 609 367 621 
Q 384 634 406 634 
Q 438 634 503 595 
Q 569 556 680 511 
Q 791 466 955 425 
Q 1119 384 1344 384 
Q 1553 384 1728 434 
Q 1903 484 2029 590 
Q 2156 697 2228 858 
Q 2300 1019 2300 1250 
Q 2300 1444 2239 1592 
Q 2178 1741 2051 1839 
Q 1925 1938 1731 1986 
Q 1538 2034 1269 2034 
Q 1078 2034 940 2015 
Q 803 1997 684 1997 
Q 597 1997 559 2037 
Q 522 2078 522 2194 
L 522 3841 
Q 522 3944 570 3994 
Q 619 4044 709 4044 
L 2500 4044 
Q 2525 4044 2548 4030 
Q 2572 4016 2587 3987 
Q 2603 3959 2611 3915 
Q 2619 3872 2619 3813 
Q 2619 3700 2587 3637 
Q 2556 3575 2500 3575 
L 991 3575 
L 991 2441 
Q 1100 2456 1214 2459 
Q 1328 2463 1478 2463 
Q 1825 2463 2084 2380 
Q 2344 2297 2517 2145 
Q 2691 1994 2780 1778 
Q 2869 1563 2869 1300 
z
" transform="scale(0.015625)"/>
       </defs>
       <use xlink:href="#Calibri-30"/>
       <use xlink:href="#Calibri-2e" x="50.683594"/>
       <use xlink:href="#Calibri-35" x="75.927734"/>
      </g>
     </g>
    </g>
    <g id="xtick_7">
     <g id="line2d_7">
      <g>
       <use xlink:href="#md938fe8d9f" x="229.0176" y="307.584" style="stroke: #000000; stroke-width: 0.8"/>
      </g>
     </g>
     <g id="text_7">
      <!-- 0.6 -->
      <g transform="translate(222.68635 321.385562) scale(0.1 -0.1)">
       <defs>
        <path id="Calibri-36" d="M 2991 1309 
Q 2991 1044 2909 795 
Q 2828 547 2659 358 
Q 2491 169 2231 55 
Q 1972 -59 1619 -59 
Q 1366 -59 1172 3 
Q 978 66 834 181 
Q 691 297 595 465 
Q 500 634 442 850 
Q 384 1066 359 1322 
Q 334 1578 334 1872 
Q 334 2131 362 2397 
Q 391 2663 462 2909 
Q 534 3156 657 3373 
Q 781 3591 967 3752 
Q 1153 3913 1412 4006 
Q 1672 4100 2016 4100 
Q 2131 4100 2250 4086 
Q 2369 4072 2469 4048 
Q 2569 4025 2637 3997 
Q 2706 3969 2728 3951 
Q 2750 3934 2761 3914 
Q 2772 3894 2778 3870 
Q 2784 3847 2787 3817 
Q 2791 3788 2791 3744 
Q 2791 3688 2789 3647 
Q 2788 3606 2777 3581 
Q 2766 3556 2748 3543 
Q 2731 3531 2703 3531 
Q 2669 3531 2609 3553 
Q 2550 3575 2465 3601 
Q 2381 3628 2261 3650 
Q 2141 3672 1981 3672 
Q 1691 3672 1481 3553 
Q 1272 3434 1139 3234 
Q 1006 3034 942 2770 
Q 878 2506 869 2219 
Q 950 2266 1051 2312 
Q 1153 2359 1273 2396 
Q 1394 2434 1528 2457 
Q 1663 2481 1816 2481 
Q 2144 2481 2369 2392 
Q 2594 2303 2733 2145 
Q 2872 1988 2931 1773 
Q 2991 1559 2991 1309 
z
M 2447 1259 
Q 2447 1441 2411 1589 
Q 2375 1738 2290 1841 
Q 2206 1944 2065 2000 
Q 1925 2056 1719 2056 
Q 1603 2056 1487 2036 
Q 1372 2016 1264 1980 
Q 1156 1944 1057 1895 
Q 959 1847 878 1791 
Q 878 1388 929 1116 
Q 981 844 1079 680 
Q 1178 516 1325 445 
Q 1472 375 1669 375 
Q 1869 375 2016 450 
Q 2163 525 2259 651 
Q 2356 778 2401 936 
Q 2447 1094 2447 1259 
z
" transform="scale(0.015625)"/>
       </defs>
       <use xlink:href="#Calibri-30"/>
       <use xlink:href="#Calibri-2e" x="50.683594"/>
       <use xlink:href="#Calibri-36" x="75.927734"/>
      </g>
     </g>
    </g>
    <g id="xtick_8">
     <g id="line2d_8">
      <g>
       <use xlink:href="#md938fe8d9f" x="257.5872" y="307.584" style="stroke: #000000; stroke-width: 0.8"/>
      </g>
     </g>
     <g id="text_8">
      <!-- 0.7 -->
      <g transform="translate(251.25595 321.385562) scale(0.1 -0.1)">
       <defs>
        <path id="Calibri-37" d="M 2947 3813 
Q 2947 3756 2942 3711 
Q 2938 3666 2930 3623 
Q 2922 3581 2908 3542 
Q 2894 3503 2875 3459 
L 1419 103 
Q 1403 66 1379 42 
Q 1356 19 1320 5 
Q 1284 -9 1228 -14 
Q 1172 -19 1091 -19 
Q 984 -19 925 -9 
Q 866 0 839 20 
Q 813 41 816 70 
Q 819 100 838 141 
L 2369 3572 
L 428 3572 
Q 369 3572 339 3634 
Q 309 3697 309 3809 
Q 309 3869 317 3912 
Q 325 3956 340 3986 
Q 356 4016 378 4030 
Q 400 4044 428 4044 
L 2784 4044 
Q 2828 4044 2861 4034 
Q 2894 4025 2911 3997 
Q 2928 3969 2937 3925 
Q 2947 3881 2947 3813 
z
" transform="scale(0.015625)"/>
       </defs>
       <use xlink:href="#Calibri-30"/>
       <use xlink:href="#Calibri-2e" x="50.683594"/>
       <use xlink:href="#Calibri-37" x="75.927734"/>
      </g>
     </g>
    </g>
    <g id="xtick_9">
     <g id="line2d_9">
      <g>
       <use xlink:href="#md938fe8d9f" x="286.1568" y="307.584" style="stroke: #000000; stroke-width: 0.8"/>
      </g>
     </g>
     <g id="text_9">
      <!-- 0.8 -->
      <g transform="translate(279.82555 321.385562) scale(0.1 -0.1)">
       <defs>
        <path id="Calibri-38" d="M 2981 1038 
Q 2981 775 2887 570 
Q 2794 366 2617 225 
Q 2441 84 2181 12 
Q 1922 -59 1588 -59 
Q 1275 -59 1028 6 
Q 781 72 609 200 
Q 438 328 347 515 
Q 256 703 256 944 
Q 256 1134 318 1293 
Q 381 1453 498 1587 
Q 616 1722 787 1839 
Q 959 1956 1175 2063 
Q 988 2159 844 2267 
Q 700 2375 600 2501 
Q 500 2628 448 2772 
Q 397 2916 397 3084 
Q 397 3297 473 3483 
Q 550 3669 704 3806 
Q 859 3944 1098 4023 
Q 1338 4103 1656 4103 
Q 1963 4103 2186 4029 
Q 2409 3956 2554 3829 
Q 2700 3703 2769 3531 
Q 2838 3359 2838 3163 
Q 2838 3003 2786 2856 
Q 2734 2709 2634 2578 
Q 2534 2447 2389 2333 
Q 2244 2219 2056 2119 
Q 2278 2009 2451 1893 
Q 2625 1778 2742 1645 
Q 2859 1513 2920 1364 
Q 2981 1216 2981 1038 
z
M 2306 3113 
Q 2306 3244 2261 3350 
Q 2216 3456 2128 3531 
Q 2041 3606 1911 3645 
Q 1781 3684 1616 3684 
Q 1278 3684 1104 3531 
Q 931 3378 931 3113 
Q 931 2991 973 2886 
Q 1016 2781 1105 2687 
Q 1194 2594 1330 2505 
Q 1466 2416 1653 2319 
Q 1969 2481 2137 2678 
Q 2306 2875 2306 3113 
z
M 2438 981 
Q 2438 1125 2384 1242 
Q 2331 1359 2223 1461 
Q 2116 1563 1955 1658 
Q 1794 1753 1581 1856 
Q 1384 1759 1236 1662 
Q 1088 1566 992 1462 
Q 897 1359 848 1245 
Q 800 1131 800 994 
Q 800 691 1008 525 
Q 1216 359 1628 359 
Q 2028 359 2233 526 
Q 2438 694 2438 981 
z
" transform="scale(0.015625)"/>
       </defs>
       <use xlink:href="#Calibri-30"/>
       <use xlink:href="#Calibri-2e" x="50.683594"/>
       <use xlink:href="#Calibri-38" x="75.927734"/>
      </g>
     </g>
    </g>
    <g id="xtick_10">
     <g id="line2d_10">
      <g>
       <use xlink:href="#md938fe8d9f" x="314.7264" y="307.584" style="stroke: #000000; stroke-width: 0.8"/>
      </g>
     </g>
     <g id="text_10">
      <!-- 0.9 -->
      <g transform="translate(308.39515 321.385562) scale(0.1 -0.1)">
       <defs>
        <path id="Calibri-39" d="M 2919 2181 
Q 2919 1919 2887 1650 
Q 2856 1381 2781 1132 
Q 2706 884 2579 667 
Q 2453 450 2261 287 
Q 2069 125 1805 33 
Q 1541 -59 1191 -59 
Q 1056 -59 929 -42 
Q 803 -25 701 0 
Q 600 25 531 53 
Q 463 81 431 109 
Q 400 138 386 186 
Q 372 234 372 316 
Q 372 384 376 425 
Q 381 466 390 487 
Q 400 509 417 517 
Q 434 525 459 525 
Q 494 525 556 501 
Q 619 478 714 450 
Q 809 422 937 398 
Q 1066 375 1225 375 
Q 1528 375 1745 492 
Q 1963 609 2100 806 
Q 2238 1003 2306 1262 
Q 2375 1522 2381 1809 
Q 2216 1713 1984 1638 
Q 1753 1563 1453 1563 
Q 1116 1563 886 1655 
Q 656 1747 517 1906 
Q 378 2066 317 2284 
Q 256 2503 256 2763 
Q 256 3031 334 3273 
Q 413 3516 578 3700 
Q 744 3884 1000 3993 
Q 1256 4103 1613 4103 
Q 1866 4103 2061 4039 
Q 2256 3975 2400 3854 
Q 2544 3734 2644 3564 
Q 2744 3394 2805 3178 
Q 2866 2963 2892 2711 
Q 2919 2459 2919 2181 
z
M 2372 2241 
Q 2372 2641 2319 2914 
Q 2266 3188 2162 3356 
Q 2059 3525 1909 3600 
Q 1759 3675 1563 3675 
Q 1359 3675 1215 3601 
Q 1072 3528 980 3404 
Q 888 3281 844 3125 
Q 800 2969 800 2803 
Q 800 2619 839 2466 
Q 878 2313 965 2206 
Q 1053 2100 1193 2042 
Q 1334 1984 1541 1984 
Q 1775 1984 1994 2054 
Q 2213 2125 2372 2241 
z
" transform="scale(0.015625)"/>
       </defs>
       <use xlink:href="#Calibri-30"/>
       <use xlink:href="#Calibri-2e" x="50.683594"/>
       <use xlink:href="#Calibri-39" x="75.927734"/>
      </g>
     </g>
    </g>
    <g id="xtick_11">
     <g id="line2d_11">
      <g>
       <use xlink:href="#md938fe8d9f" x="343.296" y="307.584" style="stroke: #000000; stroke-width: 0.8"/>
      </g>
     </g>
     <g id="text_11">
      <!-- 1.0 -->
      <g transform="translate(336.96475 321.385562) scale(0.1 -0.1)">
       <use xlink:href="#Calibri-31"/>
       <use xlink:href="#Calibri-2e" x="50.683594"/>
       <use xlink:href="#Calibri-30" x="75.927734"/>
      </g>
     </g>
    </g>
    <g id="text_12">
     <!-- $\mathit{p}$ (cm$^2$/cm$^2$) -->
     <g transform="translate(174.148 336.263687) scale(0.1 -0.1)">
      <defs>
       <path id="DejaVuSans-Oblique-70" d="M 3175 2156 
Q 3175 2616 2975 2859 
Q 2775 3103 2400 3103 
Q 2144 3103 1911 2972 
Q 1678 2841 1497 2591 
Q 1319 2344 1212 1994 
Q 1106 1644 1106 1300 
Q 1106 863 1306 627 
Q 1506 391 1875 391 
Q 2147 391 2380 519 
Q 2613 647 2778 891 
Q 2956 1147 3065 1494 
Q 3175 1841 3175 2156 
z
M 1394 2969 
Q 1625 3272 1939 3428 
Q 2253 3584 2638 3584 
Q 3175 3584 3472 3232 
Q 3769 2881 3769 2247 
Q 3769 1728 3584 1258 
Q 3400 788 3053 416 
Q 2822 169 2531 39 
Q 2241 -91 1919 -91 
Q 1547 -91 1294 64 
Q 1041 219 916 525 
L 556 -1331 
L -19 -1331 
L 922 3500 
L 1497 3500 
L 1394 2969 
z
" transform="scale(0.015625)"/>
       <path id="Calibri-20" transform="scale(0.015625)"/>
       <path id="Calibri-28" d="M 1547 4306 
Q 1250 3678 1104 3017 
Q 959 2356 959 1688 
Q 959 1016 1107 356 
Q 1256 -303 1541 -938 
Q 1556 -975 1557 -1001 
Q 1559 -1028 1537 -1045 
Q 1516 -1063 1470 -1070 
Q 1425 -1078 1347 -1078 
Q 1291 -1078 1250 -1075 
Q 1209 -1072 1179 -1062 
Q 1150 -1053 1131 -1040 
Q 1113 -1028 1103 -1013 
Q 934 -694 806 -367 
Q 678 -41 590 296 
Q 503 634 459 979 
Q 416 1325 416 1678 
Q 416 2031 464 2375 
Q 513 2719 602 3058 
Q 691 3397 819 3725 
Q 947 4053 1106 4375 
Q 1109 4388 1123 4397 
Q 1138 4406 1163 4415 
Q 1188 4425 1231 4429 
Q 1275 4434 1344 4434 
Q 1416 4434 1459 4425 
Q 1503 4416 1528 4400 
Q 1553 4384 1556 4359 
Q 1559 4334 1547 4306 
z
" transform="scale(0.015625)"/>
       <path id="Calibri-63" d="M 2500 506 
Q 2500 453 2497 414 
Q 2494 375 2486 348 
Q 2478 322 2467 301 
Q 2456 281 2417 242 
Q 2378 203 2284 145 
Q 2191 88 2073 42 
Q 1956 -3 1818 -31 
Q 1681 -59 1534 -59 
Q 1231 -59 997 41 
Q 763 141 605 333 
Q 447 525 364 804 
Q 281 1084 281 1450 
Q 281 1866 382 2164 
Q 484 2463 661 2653 
Q 838 2844 1077 2936 
Q 1316 3028 1594 3028 
Q 1728 3028 1854 3003 
Q 1981 2978 2087 2937 
Q 2194 2897 2276 2844 
Q 2359 2791 2396 2753 
Q 2434 2716 2448 2694 
Q 2463 2672 2472 2642 
Q 2481 2613 2484 2575 
Q 2488 2538 2488 2481 
Q 2488 2359 2459 2311 
Q 2431 2263 2391 2263 
Q 2344 2263 2283 2314 
Q 2222 2366 2128 2428 
Q 2034 2491 1901 2542 
Q 1769 2594 1588 2594 
Q 1216 2594 1017 2308 
Q 819 2022 819 1478 
Q 819 1206 870 1001 
Q 922 797 1022 659 
Q 1122 522 1267 455 
Q 1413 388 1600 388 
Q 1778 388 1912 444 
Q 2047 500 2145 567 
Q 2244 634 2311 689 
Q 2378 744 2416 744 
Q 2438 744 2453 731 
Q 2469 719 2480 689 
Q 2491 659 2495 614 
Q 2500 569 2500 506 
z
" transform="scale(0.015625)"/>
       <path id="Calibri-6d" d="M 4650 78 
Q 4650 53 4637 36 
Q 4625 19 4597 6 
Q 4569 -6 4519 -12 
Q 4469 -19 4394 -19 
Q 4316 -19 4266 -12 
Q 4216 -6 4186 6 
Q 4156 19 4143 36 
Q 4131 53 4131 78 
L 4131 1788 
Q 4131 1966 4100 2112 
Q 4069 2259 4000 2365 
Q 3931 2472 3825 2528 
Q 3719 2584 3575 2584 
Q 3397 2584 3217 2446 
Q 3038 2309 2822 2044 
L 2822 78 
Q 2822 53 2809 36 
Q 2797 19 2767 6 
Q 2738 -6 2688 -12 
Q 2638 -19 2563 -19 
Q 2491 -19 2439 -12 
Q 2388 -6 2358 6 
Q 2328 19 2317 36 
Q 2306 53 2306 78 
L 2306 1788 
Q 2306 1966 2272 2112 
Q 2238 2259 2169 2365 
Q 2100 2472 1995 2528 
Q 1891 2584 1747 2584 
Q 1569 2584 1387 2446 
Q 1206 2309 994 2044 
L 994 78 
Q 994 53 981 36 
Q 969 19 941 6 
Q 913 -6 863 -12 
Q 813 -19 734 -19 
Q 659 -19 609 -12 
Q 559 -6 529 6 
Q 500 19 489 36 
Q 478 53 478 78 
L 478 2891 
Q 478 2916 487 2933 
Q 497 2950 525 2964 
Q 553 2978 597 2983 
Q 641 2988 713 2988 
Q 781 2988 826 2983 
Q 872 2978 897 2964 
Q 922 2950 933 2933 
Q 944 2916 944 2891 
L 944 2519 
Q 1181 2784 1404 2907 
Q 1628 3031 1856 3031 
Q 2031 3031 2170 2990 
Q 2309 2950 2415 2876 
Q 2522 2803 2597 2701 
Q 2672 2600 2722 2475 
Q 2863 2628 2989 2734 
Q 3116 2841 3233 2906 
Q 3350 2972 3461 3001 
Q 3572 3031 3684 3031 
Q 3956 3031 4140 2936 
Q 4325 2841 4439 2681 
Q 4553 2522 4601 2308 
Q 4650 2094 4650 1856 
L 4650 78 
z
" transform="scale(0.015625)"/>
       <path id="DejaVuSans-32" d="M 1228 531 
L 3431 531 
L 3431 0 
L 469 0 
L 469 531 
Q 828 903 1448 1529 
Q 2069 2156 2228 2338 
Q 2531 2678 2651 2914 
Q 2772 3150 2772 3378 
Q 2772 3750 2511 3984 
Q 2250 4219 1831 4219 
Q 1534 4219 1204 4116 
Q 875 4013 500 3803 
L 500 4441 
Q 881 4594 1212 4672 
Q 1544 4750 1819 4750 
Q 2544 4750 2975 4387 
Q 3406 4025 3406 3419 
Q 3406 3131 3298 2873 
Q 3191 2616 2906 2266 
Q 2828 2175 2409 1742 
Q 1991 1309 1228 531 
z
" transform="scale(0.015625)"/>
       <path id="Calibri-2f" d="M 525 -753 
Q 513 -794 492 -817 
Q 472 -841 440 -853 
Q 409 -866 364 -872 
Q 319 -878 253 -878 
Q 175 -878 123 -867 
Q 72 -856 44 -836 
Q 16 -816 9 -786 
Q 3 -756 22 -716 
L 1913 4469 
Q 1925 4509 1945 4532 
Q 1966 4556 1995 4570 
Q 2025 4584 2072 4589 
Q 2119 4594 2184 4594 
Q 2263 4594 2313 4583 
Q 2363 4572 2391 4553 
Q 2419 4534 2425 4503 
Q 2431 4472 2416 4431 
L 525 -753 
z
" transform="scale(0.015625)"/>
       <path id="Calibri-29" d="M 1522 1678 
Q 1522 1325 1478 979 
Q 1434 634 1346 296 
Q 1259 -41 1132 -367 
Q 1006 -694 838 -1013 
Q 828 -1028 809 -1040 
Q 791 -1053 761 -1062 
Q 731 -1072 690 -1075 
Q 650 -1078 594 -1078 
Q 513 -1078 467 -1070 
Q 422 -1063 401 -1045 
Q 381 -1028 382 -1001 
Q 384 -975 400 -938 
Q 688 -306 834 355 
Q 981 1016 981 1688 
Q 981 2356 834 3017 
Q 688 3678 394 4306 
Q 381 4334 384 4359 
Q 388 4384 413 4400 
Q 438 4416 481 4425 
Q 525 4434 597 4434 
Q 663 4434 706 4429 
Q 750 4425 776 4415 
Q 803 4406 815 4397 
Q 828 4388 834 4375 
Q 1156 3734 1339 3057 
Q 1522 2381 1522 1678 
z
" transform="scale(0.015625)"/>
      </defs>
      <use xlink:href="#DejaVuSans-Oblique-70" transform="translate(0 0.765625)"/>
      <use xlink:href="#Calibri-20" transform="translate(63.476562 0.765625)"/>
      <use xlink:href="#Calibri-28" transform="translate(84.958984 0.765625)"/>
      <use xlink:href="#Calibri-63" transform="translate(115.28125 0.765625)"/>
      <use xlink:href="#Calibri-6d" transform="translate(157.566406 0.765625)"/>
      <use xlink:href="#DejaVuSans-32" transform="translate(238.40625 39.046875) scale(0.7)"/>
      <use xlink:href="#Calibri-2f" transform="translate(285.676758 0.765625)"/>
      <use xlink:href="#Calibri-63" transform="translate(324.299805 0.765625)"/>
      <use xlink:href="#Calibri-6d" transform="translate(366.584961 0.765625)"/>
      <use xlink:href="#DejaVuSans-32" transform="translate(447.424805 39.046875) scale(0.7)"/>
      <use xlink:href="#Calibri-29" transform="translate(494.695312 0.765625)"/>
     </g>
    </g>
   </g>
   <g id="matplotlib.axis_2">
    <g id="ytick_1">
     <g id="line2d_12">
      <defs>
       <path id="mbc85f9756a" d="M 0 0 
L -3.5 0 
" style="stroke: #000000; stroke-width: 0.8"/>
      </defs>
      <g>
       <use xlink:href="#mbc85f9756a" x="57.6" y="275.65056" style="stroke: #000000; stroke-width: 0.8"/>
      </g>
     </g>
     <g id="text_13">
      <!-- 25 -->
      <g transform="translate(40.4625 279.051341) scale(0.1 -0.1)">
       <use xlink:href="#Calibri-32"/>
       <use xlink:href="#Calibri-35" x="50.683594"/>
      </g>
     </g>
    </g>
    <g id="ytick_2">
     <g id="line2d_13">
      <g>
       <use xlink:href="#mbc85f9756a" x="57.6" y="242.38656" style="stroke: #000000; stroke-width: 0.8"/>
      </g>
     </g>
     <g id="text_14">
      <!-- 50 -->
      <g transform="translate(40.4625 245.787341) scale(0.1 -0.1)">
       <use xlink:href="#Calibri-35"/>
       <use xlink:href="#Calibri-30" x="50.683594"/>
      </g>
     </g>
    </g>
    <g id="ytick_3">
     <g id="line2d_14">
      <g>
       <use xlink:href="#mbc85f9756a" x="57.6" y="209.12256" style="stroke: #000000; stroke-width: 0.8"/>
      </g>
     </g>
     <g id="text_15">
      <!-- 75 -->
      <g transform="translate(40.4625 212.523341) scale(0.1 -0.1)">
       <use xlink:href="#Calibri-37"/>
       <use xlink:href="#Calibri-35" x="50.683594"/>
      </g>
     </g>
    </g>
    <g id="ytick_4">
     <g id="line2d_15">
      <g>
       <use xlink:href="#mbc85f9756a" x="57.6" y="175.85856" style="stroke: #000000; stroke-width: 0.8"/>
      </g>
     </g>
     <g id="text_16">
      <!-- 100 -->
      <g transform="translate(35.39375 179.259341) scale(0.1 -0.1)">
       <use xlink:href="#Calibri-31"/>
       <use xlink:href="#Calibri-30" x="50.683594"/>
       <use xlink:href="#Calibri-30" x="101.367188"/>
      </g>
     </g>
    </g>
    <g id="ytick_5">
     <g id="line2d_16">
      <g>
       <use xlink:href="#mbc85f9756a" x="57.6" y="142.59456" style="stroke: #000000; stroke-width: 0.8"/>
      </g>
     </g>
     <g id="text_17">
      <!-- 125 -->
      <g transform="translate(35.39375 145.995341) scale(0.1 -0.1)">
       <use xlink:href="#Calibri-31"/>
       <use xlink:href="#Calibri-32" x="50.683594"/>
       <use xlink:href="#Calibri-35" x="101.367188"/>
      </g>
     </g>
    </g>
    <g id="ytick_6">
     <g id="line2d_17">
      <g>
       <use xlink:href="#mbc85f9756a" x="57.6" y="109.33056" style="stroke: #000000; stroke-width: 0.8"/>
      </g>
     </g>
     <g id="text_18">
      <!-- 150 -->
      <g transform="translate(35.39375 112.731341) scale(0.1 -0.1)">
       <use xlink:href="#Calibri-31"/>
       <use xlink:href="#Calibri-35" x="50.683594"/>
       <use xlink:href="#Calibri-30" x="101.367188"/>
      </g>
     </g>
    </g>
    <g id="ytick_7">
     <g id="line2d_18">
      <g>
       <use xlink:href="#mbc85f9756a" x="57.6" y="76.06656" style="stroke: #000000; stroke-width: 0.8"/>
      </g>
     </g>
     <g id="text_19">
      <!-- 175 -->
      <g transform="translate(35.39375 79.467341) scale(0.1 -0.1)">
       <use xlink:href="#Calibri-31"/>
       <use xlink:href="#Calibri-37" x="50.683594"/>
       <use xlink:href="#Calibri-35" x="101.367188"/>
      </g>
     </g>
    </g>
    <g id="ytick_8">
     <g id="line2d_19">
      <g>
       <use xlink:href="#mbc85f9756a" x="57.6" y="42.80256" style="stroke: #000000; stroke-width: 0.8"/>
      </g>
     </g>
     <g id="text_20">
      <!-- 200 -->
      <g transform="translate(35.39375 46.203341) scale(0.1 -0.1)">
       <use xlink:href="#Calibri-32"/>
       <use xlink:href="#Calibri-30" x="50.683594"/>
       <use xlink:href="#Calibri-30" x="101.367188"/>
      </g>
     </g>
    </g>
    <g id="text_21">
     <!-- $\mathit{Z}$$_{a}$ (nm) -->
     <g transform="translate(29.59375 191.028) rotate(-90) scale(0.1 -0.1)">
      <defs>
       <path id="DejaVuSans-Oblique-5a" d="M 838 4666 
L 4500 4666 
L 4409 4184 
L 794 531 
L 3769 531 
L 3669 0 
L -141 0 
L -50 481 
L 3566 4134 
L 738 4134 
L 838 4666 
z
" transform="scale(0.015625)"/>
       <path id="DejaVuSans-Oblique-61" d="M 3438 1997 
L 3047 0 
L 2472 0 
L 2578 531 
Q 2325 219 2001 64 
Q 1678 -91 1281 -91 
Q 834 -91 548 182 
Q 263 456 263 884 
Q 263 1497 752 1853 
Q 1241 2209 2100 2209 
L 2900 2209 
L 2931 2363 
Q 2938 2388 2941 2417 
Q 2944 2447 2944 2509 
Q 2944 2788 2717 2942 
Q 2491 3097 2081 3097 
Q 1800 3097 1504 3025 
Q 1209 2953 897 2809 
L 997 3341 
Q 1322 3463 1633 3523 
Q 1944 3584 2234 3584 
Q 2853 3584 3176 3315 
Q 3500 3047 3500 2534 
Q 3500 2431 3484 2292 
Q 3469 2153 3438 1997 
z
M 2816 1759 
L 2241 1759 
Q 1534 1759 1195 1570 
Q 856 1381 856 984 
Q 856 709 1029 553 
Q 1203 397 1509 397 
Q 1978 397 2328 733 
Q 2678 1069 2791 1631 
L 2816 1759 
z
" transform="scale(0.015625)"/>
       <path id="Calibri-6e" d="M 2900 78 
Q 2900 53 2887 36 
Q 2875 19 2847 6 
Q 2819 -6 2769 -12 
Q 2719 -19 2644 -19 
Q 2566 -19 2516 -12 
Q 2466 -6 2437 6 
Q 2409 19 2396 36 
Q 2384 53 2384 78 
L 2384 1725 
Q 2384 1966 2346 2112 
Q 2309 2259 2237 2365 
Q 2166 2472 2052 2528 
Q 1938 2584 1788 2584 
Q 1594 2584 1400 2446 
Q 1206 2309 994 2044 
L 994 78 
Q 994 53 981 36 
Q 969 19 941 6 
Q 913 -6 863 -12 
Q 813 -19 734 -19 
Q 659 -19 609 -12 
Q 559 -6 529 6 
Q 500 19 489 36 
Q 478 53 478 78 
L 478 2891 
Q 478 2916 487 2933 
Q 497 2950 525 2964 
Q 553 2978 597 2983 
Q 641 2988 713 2988 
Q 781 2988 826 2983 
Q 872 2978 897 2964 
Q 922 2950 933 2933 
Q 944 2916 944 2891 
L 944 2519 
Q 1181 2784 1417 2907 
Q 1653 3031 1894 3031 
Q 2175 3031 2367 2936 
Q 2559 2841 2678 2681 
Q 2797 2522 2848 2308 
Q 2900 2094 2900 1794 
L 2900 78 
z
" transform="scale(0.015625)"/>
      </defs>
      <use xlink:href="#DejaVuSans-Oblique-5a" transform="translate(0 0.09375)"/>
      <use xlink:href="#DejaVuSans-Oblique-61" transform="translate(69.462891 -16.3125) scale(0.7)"/>
      <use xlink:href="#Calibri-20" transform="translate(115.092773 0.09375)"/>
      <use xlink:href="#Calibri-28" transform="translate(136.575195 0.09375)"/>
      <use xlink:href="#Calibri-6e" transform="translate(166.897461 0.09375)"/>
      <use xlink:href="#Calibri-6d" transform="translate(219.436523 0.09375)"/>
      <use xlink:href="#Calibri-29" transform="translate(299.319336 0.09375)"/>
     </g>
    </g>
   </g>
   <g id="patch_3">
    <path d="M 57.6 307.584 
L 57.6 41.472 
" style="fill: none; stroke: #000000; stroke-width: 0.8; stroke-linejoin: miter; stroke-linecap: square"/>
   </g>
   <g id="patch_4">
    <path d="M 343.296 307.584 
L 343.296 41.472 
" style="fill: none; stroke: #000000; stroke-width: 0.8; stroke-linejoin: miter; stroke-linecap: square"/>
   </g>
   <g id="patch_5">
    <path d="M 57.6 307.584 
L 343.296 307.584 
" style="fill: none; stroke: #000000; stroke-width: 0.8; stroke-linejoin: miter; stroke-linecap: square"/>
   </g>
   <g id="patch_6">
    <path d="M 57.6 41.472 
L 343.296 41.472 
" style="fill: none; stroke: #000000; stroke-width: 0.8; stroke-linejoin: miter; stroke-linecap: square"/>
   </g>
   <g id="text_22">
    <!-- $\lambda$ = 945 nm -->
    <g transform="translate(177.348 35.472) scale(0.1 -0.1)">
     <defs>
      <path id="DejaVuSans-Oblique-3bb" d="M 2350 4316 
L 3125 0 
L 2516 0 
L 2038 2588 
L 328 0 
L -281 0 
L 1903 3356 
L 1794 3975 
Q 1725 4369 1391 4369 
L 1091 4369 
L 1184 4863 
L 1550 4856 
Q 2253 4847 2350 4316 
z
" transform="scale(0.015625)"/>
      <path id="Calibri-3d" d="M 2891 2409 
Q 2891 2284 2855 2236 
Q 2819 2188 2772 2188 
L 409 2188 
Q 363 2188 328 2236 
Q 294 2284 294 2409 
Q 294 2522 325 2575 
Q 356 2628 409 2628 
L 2772 2628 
Q 2828 2628 2859 2575 
Q 2891 2522 2891 2409 
z
M 2891 1194 
Q 2891 1069 2855 1022 
Q 2819 975 2772 975 
L 409 975 
Q 363 975 328 1022 
Q 294 1069 294 1194 
Q 294 1309 325 1362 
Q 356 1416 409 1416 
L 2772 1416 
Q 2828 1416 2859 1362 
Q 2891 1309 2891 1194 
z
" transform="scale(0.015625)"/>
     </defs>
     <use xlink:href="#DejaVuSans-Oblique-3bb" transform="translate(0 0.015625)"/>
     <use xlink:href="#Calibri-20" transform="translate(59.179688 0.015625)"/>
     <use xlink:href="#Calibri-3d" transform="translate(81.787109 0.015625)"/>
     <use xlink:href="#Calibri-20" transform="translate(131.591797 0.015625)"/>
     <use xlink:href="#Calibri-39" transform="translate(154.199219 0.015625)"/>
     <use xlink:href="#Calibri-34" transform="translate(204.882812 0.015625)"/>
     <use xlink:href="#Calibri-35" transform="translate(255.566406 0.015625)"/>
     <use xlink:href="#Calibri-20" transform="translate(306.25 0.015625)"/>
     <use xlink:href="#Calibri-6e" transform="translate(328.857422 0.015625)"/>
     <use xlink:href="#Calibri-6d" transform="translate(381.396484 0.015625)"/>
    </g>
   </g>
  </g>
  <g id="axes_2">
   <g id="patch_7">
    <path d="M 361.152 307.584 
L 374.4576 307.584 
L 374.4576 41.472 
L 361.152 41.472 
z
" style="fill: #ffffff"/>
   </g>
   <g id="QuadMesh_1">
    <path d="M 361.152 307.584 
L 374.4576 307.584 
L 374.4576 280.9728 
L 361.152 280.9728 
L 361.152 307.584 
" clip-path="url(#pb12c39edca)" style="fill: #0000b6"/>
    <path d="M 361.152 280.9728 
L 374.4576 280.9728 
L 374.4576 254.3616 
L 361.152 254.3616 
L 361.152 280.9728 
" clip-path="url(#pb12c39edca)" style="fill: #0018ff"/>
    <path d="M 361.152 254.3616 
L 374.4576 254.3616 
L 374.4576 227.7504 
L 361.152 227.7504 
L 361.152 254.3616 
" clip-path="url(#pb12c39edca)" style="fill: #0080ff"/>
    <path d="M 361.152 227.7504 
L 374.4576 227.7504 
L 374.4576 201.1392 
L 361.152 201.1392 
L 361.152 227.7504 
" clip-path="url(#pb12c39edca)" style="fill: #00e4f8"/>
    <path d="M 361.152 201.1392 
L 374.4576 201.1392 
L 374.4576 174.528 
L 361.152 174.528 
L 361.152 201.1392 
" clip-path="url(#pb12c39edca)" style="fill: #53ffa4"/>
    <path d="M 361.152 174.528 
L 374.4576 174.528 
L 374.4576 147.9168 
L 361.152 147.9168 
L 361.152 174.528 
" clip-path="url(#pb12c39edca)" style="fill: #a4ff53"/>
    <path d="M 361.152 147.9168 
L 374.4576 147.9168 
L 374.4576 121.3056 
L 361.152 121.3056 
L 361.152 147.9168 
" clip-path="url(#pb12c39edca)" style="fill: #f8f500"/>
    <path d="M 361.152 121.3056 
L 374.4576 121.3056 
L 374.4576 94.6944 
L 361.152 94.6944 
L 361.152 121.3056 
" clip-path="url(#pb12c39edca)" style="fill: #ff9400"/>
    <path d="M 361.152 94.6944 
L 374.4576 94.6944 
L 374.4576 68.0832 
L 361.152 68.0832 
L 361.152 94.6944 
" clip-path="url(#pb12c39edca)" style="fill: #ff3800"/>
    <path d="M 361.152 68.0832 
L 374.4576 68.0832 
L 374.4576 41.472 
L 361.152 41.472 
L 361.152 68.0832 
" clip-path="url(#pb12c39edca)" style="fill: #b60000"/>
   </g>
   <g id="matplotlib.axis_3"/>
   <g id="matplotlib.axis_4">
    <g id="ytick_9">
     <g id="line2d_20">
      <defs>
       <path id="m6c08c9601f" d="M 0 0 
L 3.5 0 
" style="stroke: #000000; stroke-width: 0.8"/>
      </defs>
      <g>
       <use xlink:href="#m6c08c9601f" x="374.4576" y="307.584" style="stroke: #000000; stroke-width: 0.8"/>
      </g>
     </g>
     <g id="text_23">
      <!-- 0 -->
      <g transform="translate(381.4576 310.984781) scale(0.1 -0.1)">
       <use xlink:href="#Calibri-30"/>
      </g>
     </g>
    </g>
    <g id="ytick_10">
     <g id="line2d_21">
      <g>
       <use xlink:href="#m6c08c9601f" x="374.4576" y="280.9728" style="stroke: #000000; stroke-width: 0.8"/>
      </g>
     </g>
     <g id="text_24">
      <!-- 0.1 -->
      <g transform="translate(381.4576 284.373581) scale(0.1 -0.1)">
       <use xlink:href="#Calibri-30"/>
       <use xlink:href="#Calibri-2e" x="50.683594"/>
       <use xlink:href="#Calibri-31" x="75.927734"/>
      </g>
     </g>
    </g>
    <g id="ytick_11">
     <g id="line2d_22">
      <g>
       <use xlink:href="#m6c08c9601f" x="374.4576" y="254.3616" style="stroke: #000000; stroke-width: 0.8"/>
      </g>
     </g>
     <g id="text_25">
      <!-- 0.2 -->
      <g transform="translate(381.4576 257.762381) scale(0.1 -0.1)">
       <use xlink:href="#Calibri-30"/>
       <use xlink:href="#Calibri-2e" x="50.683594"/>
       <use xlink:href="#Calibri-32" x="75.927734"/>
      </g>
     </g>
    </g>
    <g id="ytick_12">
     <g id="line2d_23">
      <g>
       <use xlink:href="#m6c08c9601f" x="374.4576" y="227.7504" style="stroke: #000000; stroke-width: 0.8"/>
      </g>
     </g>
     <g id="text_26">
      <!-- 0.3 -->
      <g transform="translate(381.4576 231.151181) scale(0.1 -0.1)">
       <use xlink:href="#Calibri-30"/>
       <use xlink:href="#Calibri-2e" x="50.683594"/>
       <use xlink:href="#Calibri-33" x="75.927734"/>
      </g>
     </g>
    </g>
    <g id="ytick_13">
     <g id="line2d_24">
      <g>
       <use xlink:href="#m6c08c9601f" x="374.4576" y="201.1392" style="stroke: #000000; stroke-width: 0.8"/>
      </g>
     </g>
     <g id="text_27">
      <!-- 0.4 -->
      <g transform="translate(381.4576 204.539981) scale(0.1 -0.1)">
       <use xlink:href="#Calibri-30"/>
       <use xlink:href="#Calibri-2e" x="50.683594"/>
       <use xlink:href="#Calibri-34" x="75.927734"/>
      </g>
     </g>
    </g>
    <g id="ytick_14">
     <g id="line2d_25">
      <g>
       <use xlink:href="#m6c08c9601f" x="374.4576" y="174.528" style="stroke: #000000; stroke-width: 0.8"/>
      </g>
     </g>
     <g id="text_28">
      <!-- 0.5 -->
      <g transform="translate(381.4576 177.928781) scale(0.1 -0.1)">
       <use xlink:href="#Calibri-30"/>
       <use xlink:href="#Calibri-2e" x="50.683594"/>
       <use xlink:href="#Calibri-35" x="75.927734"/>
      </g>
     </g>
    </g>
    <g id="ytick_15">
     <g id="line2d_26">
      <g>
       <use xlink:href="#m6c08c9601f" x="374.4576" y="147.9168" style="stroke: #000000; stroke-width: 0.8"/>
      </g>
     </g>
     <g id="text_29">
      <!-- 0.6 -->
      <g transform="translate(381.4576 151.317581) scale(0.1 -0.1)">
       <use xlink:href="#Calibri-30"/>
       <use xlink:href="#Calibri-2e" x="50.683594"/>
       <use xlink:href="#Calibri-36" x="75.927734"/>
      </g>
     </g>
    </g>
    <g id="ytick_16">
     <g id="line2d_27">
      <g>
       <use xlink:href="#m6c08c9601f" x="374.4576" y="121.3056" style="stroke: #000000; stroke-width: 0.8"/>
      </g>
     </g>
     <g id="text_30">
      <!-- 0.7 -->
      <g transform="translate(381.4576 124.706381) scale(0.1 -0.1)">
       <use xlink:href="#Calibri-30"/>
       <use xlink:href="#Calibri-2e" x="50.683594"/>
       <use xlink:href="#Calibri-37" x="75.927734"/>
      </g>
     </g>
    </g>
    <g id="ytick_17">
     <g id="line2d_28">
      <g>
       <use xlink:href="#m6c08c9601f" x="374.4576" y="94.6944" style="stroke: #000000; stroke-width: 0.8"/>
      </g>
     </g>
     <g id="text_31">
      <!-- 0.8 -->
      <g transform="translate(381.4576 98.095181) scale(0.1 -0.1)">
       <use xlink:href="#Calibri-30"/>
       <use xlink:href="#Calibri-2e" x="50.683594"/>
       <use xlink:href="#Calibri-38" x="75.927734"/>
      </g>
     </g>
    </g>
    <g id="ytick_18">
     <g id="line2d_29">
      <g>
       <use xlink:href="#m6c08c9601f" x="374.4576" y="68.0832" style="stroke: #000000; stroke-width: 0.8"/>
      </g>
     </g>
     <g id="text_32">
      <!-- 0.9 -->
      <g transform="translate(381.4576 71.483981) scale(0.1 -0.1)">
       <use xlink:href="#Calibri-30"/>
       <use xlink:href="#Calibri-2e" x="50.683594"/>
       <use xlink:href="#Calibri-39" x="75.927734"/>
      </g>
     </g>
    </g>
    <g id="ytick_19">
     <g id="line2d_30">
      <g>
       <use xlink:href="#m6c08c9601f" x="374.4576" y="41.472" style="stroke: #000000; stroke-width: 0.8"/>
      </g>
     </g>
     <g id="text_33">
      <!-- 1.0 -->
      <g transform="translate(381.4576 44.872781) scale(0.1 -0.1)">
       <use xlink:href="#Calibri-31"/>
       <use xlink:href="#Calibri-2e" x="50.683594"/>
       <use xlink:href="#Calibri-30" x="75.927734"/>
      </g>
     </g>
    </g>
   </g>
   <g id="LineCollection_1"/>
   <g id="patch_8">
    <path d="M 361.152 307.584 
L 367.8048 307.584 
L 374.4576 307.584 
L 374.4576 41.472 
L 367.8048 41.472 
L 361.152 41.472 
L 361.152 307.584 
z
" style="fill: none; stroke: #000000; stroke-width: 0.8; stroke-linejoin: miter; stroke-linecap: square"/>
   </g>
   <g id="text_34">
    <!-- $\mathit{E}_{\mathrm{dis}}$/$\mathit{E}_{\mathrm{i}}$ -->
    <g transform="translate(353.2548 35.472) scale(0.1 -0.1)">
     <defs>
      <path id="DejaVuSans-Oblique-45" d="M 1081 4666 
L 4031 4666 
L 3928 4134 
L 1606 4134 
L 1338 2753 
L 3566 2753 
L 3463 2222 
L 1234 2222 
L 909 531 
L 3284 531 
L 3181 0 
L 172 0 
L 1081 4666 
z
" transform="scale(0.015625)"/>
      <path id="DejaVuSans-64" d="M 2906 2969 
L 2906 4863 
L 3481 4863 
L 3481 0 
L 2906 0 
L 2906 525 
Q 2725 213 2448 61 
Q 2172 -91 1784 -91 
Q 1150 -91 751 415 
Q 353 922 353 1747 
Q 353 2572 751 3078 
Q 1150 3584 1784 3584 
Q 2172 3584 2448 3432 
Q 2725 3281 2906 2969 
z
M 947 1747 
Q 947 1113 1208 752 
Q 1469 391 1925 391 
Q 2381 391 2643 752 
Q 2906 1113 2906 1747 
Q 2906 2381 2643 2742 
Q 2381 3103 1925 3103 
Q 1469 3103 1208 2742 
Q 947 2381 947 1747 
z
" transform="scale(0.015625)"/>
      <path id="DejaVuSans-69" d="M 603 3500 
L 1178 3500 
L 1178 0 
L 603 0 
L 603 3500 
z
M 603 4863 
L 1178 4863 
L 1178 4134 
L 603 4134 
L 603 4863 
z
" transform="scale(0.015625)"/>
      <path id="DejaVuSans-73" d="M 2834 3397 
L 2834 2853 
Q 2591 2978 2328 3040 
Q 2066 3103 1784 3103 
Q 1356 3103 1142 2972 
Q 928 2841 928 2578 
Q 928 2378 1081 2264 
Q 1234 2150 1697 2047 
L 1894 2003 
Q 2506 1872 2764 1633 
Q 3022 1394 3022 966 
Q 3022 478 2636 193 
Q 2250 -91 1575 -91 
Q 1294 -91 989 -36 
Q 684 19 347 128 
L 347 722 
Q 666 556 975 473 
Q 1284 391 1588 391 
Q 1994 391 2212 530 
Q 2431 669 2431 922 
Q 2431 1156 2273 1281 
Q 2116 1406 1581 1522 
L 1381 1569 
Q 847 1681 609 1914 
Q 372 2147 372 2553 
Q 372 3047 722 3315 
Q 1072 3584 1716 3584 
Q 2034 3584 2315 3537 
Q 2597 3491 2834 3397 
z
" transform="scale(0.015625)"/>
     </defs>
     <use xlink:href="#DejaVuSans-Oblique-45" transform="translate(0 0.09375)"/>
     <use xlink:href="#DejaVuSans-64" transform="translate(63.183594 -16.3125) scale(0.7)"/>
     <use xlink:href="#DejaVuSans-69" transform="translate(107.617188 -16.3125) scale(0.7)"/>
     <use xlink:href="#DejaVuSans-73" transform="translate(127.06543 -16.3125) scale(0.7)"/>
     <use xlink:href="#Calibri-2f" transform="translate(166.269531 0.09375)"/>
     <use xlink:href="#DejaVuSans-Oblique-45" transform="translate(204.892578 0.09375)"/>
     <use xlink:href="#DejaVuSans-69" transform="translate(268.076172 -16.3125) scale(0.7)"/>
    </g>
   </g>
  </g>
 </g>
 <defs>
  <clipPath id="pa34e90b34b">
   <rect x="57.6" y="41.472" width="285.696" height="266.112"/>
  </clipPath>
  <clipPath id="pb12c39edca">
   <rect x="361.152" y="41.472" width="13.3056" height="266.112"/>
  </clipPath>
 </defs>
</svg>
