<?xml version="1.0" encoding="utf-8" standalone="no"?>
<!DOCTYPE svg PUBLIC "-//W3C//DTD SVG 1.1//EN"
  "http://www.w3.org/Graphics/SVG/1.1/DTD/svg11.dtd">
<svg xmlns:xlink="http://www.w3.org/1999/xlink" width="460.8pt" height="345.6pt" viewBox="0 0 460.8 345.6" xmlns="http://www.w3.org/2000/svg" version="1.1">
 <metadata>
  <rdf:RDF xmlns:dc="http://purl.org/dc/elements/1.1/" xmlns:cc="http://creativecommons.org/ns#" xmlns:rdf="http://www.w3.org/1999/02/22-rdf-syntax-ns#">
   <cc:Work>
    <dc:type rdf:resource="http://purl.org/dc/dcmitype/StillImage"/>
    <dc:date>2024-01-22T08:53:35.879610</dc:date>
    <dc:format>image/svg+xml</dc:format>
    <dc:creator>
     <cc:Agent>
      <dc:title>Matplotlib v3.7.1, https://matplotlib.org/</dc:title>
     </cc:Agent>
    </dc:creator>
   </cc:Work>
  </rdf:RDF>
 </metadata>
 <defs>
  <style type="text/css">*{stroke-linejoin: round; stroke-linecap: butt}</style>
 </defs>
 <g id="figure_1">
  <g id="patch_1">
   <path d="M 0 345.6 
L 460.8 345.6 
L 460.8 0 
L 0 0 
z
" style="fill: #ffffff"/>
  </g>
  <g id="axes_1">
   <g id="patch_2">
    <path d="M 57.6 307.584 
L 343.296 307.584 
L 343.296 41.472 
L 57.6 41.472 
z
" style="fill: #ffffff"/>
   </g>
   <g id="PathCollection_1">
    <path clip-path="url(#p4c0042728f)" style="fill: #0000b6"/>
   </g>
   <g id="PathCollection_2">
    <path clip-path="url(#p4c0042728f)" style="fill: #0018ff"/>
   </g>
   <g id="PathCollection_3">
    <path clip-path="url(#p4c0042728f)" style="fill: #0080ff"/>
   </g>
   <g id="PathCollection_4">
    <path clip-path="url(#p4c0042728f)" style="fill: #00e4f8"/>
   </g>
   <g id="PathCollection_5">
    <path d="M 57.62857 91.975499 
L 57.737152 91.940278 
L 59.105595 91.469921 
L 59.186599 91.442919 
L 59.403099 91.368 
L 60.597069 90.952033 
L 60.766496 90.89101 
L 61.813963 90.525889 
L 62.738522 90.191716 
L 63.452674 89.941063 
L 64.034197 89.730053 
L 64.432732 89.590097 
L 66.009594 89.01588 
L 66.233776 88.93379 
L 66.704518 88.762365 
L 68.053632 88.259457 
L 68.39584 88.13319 
L 68.44401 88.115515 
L 68.640781 88.0416 
L 70.546418 87.322203 
L 71.212776 87.06732 
L 72.238632 86.672676 
L 72.515174 86.562572 
L 73.168351 86.310359 
L 73.768181 86.071379 
L 74.823232 85.66229 
L 75.808433 85.266914 
L 76.003397 85.191032 
L 77.188254 84.7152 
L 77.397966 84.630366 
L 77.494105 84.590155 
L 78.833265 84.044416 
L 79.109855 83.92823 
L 79.96417 83.57982 
L 81.253352 83.036181 
L 81.657854 82.869979 
L 82.419255 82.547503 
L 82.519788 82.506164 
L 82.856301 82.36308 
L 84.046194 81.854063 
L 85.120766 81.3888 
L 86.103607 80.95883 
L 87.333099 80.41452 
L 87.601714 80.294862 
L 87.686638 80.25581 
L 88.453871 79.912649 
L 88.865838 79.723041 
L 90.127528 79.156142 
L 91.021378 78.741525 
L 91.258768 78.634423 
L 92.49087 78.0624 
L 92.641634 77.99186 
L 92.724598 77.951821 
L 94.057413 77.323249 
L 94.366322 77.173466 
L 95.145661 76.805577 
L 96.62762 76.083975 
L 96.849654 75.978318 
L 97.397506 75.71028 
L 98.047557 75.388189 
L 98.980029 74.927013 
L 99.067801 74.883877 
L 99.362051 74.736 
L 100.936053 73.940097 
L 101.285037 73.76172 
L 102.586814 73.091881 
L 103.069255 72.836176 
L 103.33993 72.694119 
L 103.33993 71.4096 
L 103.33993 68.0832 
L 103.33993 64.7568 
L 103.33993 61.4304 
L 103.33993 58.104 
L 103.33993 54.7776 
L 103.33993 51.4512 
L 103.33993 48.1248 
L 103.33993 44.7984 
L 103.33993 41.472 
L 101.816218 41.472 
L 100.292506 41.472 
L 98.768794 41.472 
L 97.245082 41.472 
L 95.72137 41.472 
L 94.197658 41.472 
L 92.673946 41.472 
L 91.150234 41.472 
L 89.626522 41.472 
L 88.10281 41.472 
L 86.579098 41.472 
L 85.055386 41.472 
L 83.531674 41.472 
L 82.007962 41.472 
L 80.48425 41.472 
L 78.960538 41.472 
L 77.436826 41.472 
L 75.913114 41.472 
L 74.389402 41.472 
L 72.86569 41.472 
L 71.341978 41.472 
L 69.818266 41.472 
L 68.294554 41.472 
L 66.770842 41.472 
L 65.24713 41.472 
L 63.723418 41.472 
L 62.199706 41.472 
L 60.675994 41.472 
L 59.152282 41.472 
L 57.62857 41.472 
L 57.62857 44.7984 
L 57.62857 48.1248 
L 57.62857 51.4512 
L 57.62857 54.7776 
L 57.62857 58.104 
L 57.62857 61.4304 
L 57.62857 64.7568 
L 57.62857 68.0832 
L 57.62857 71.4096 
L 57.62857 74.736 
L 57.62857 78.0624 
L 57.62857 81.3888 
L 57.62857 84.7152 
L 57.62857 88.0416 
L 57.62857 91.368 
" clip-path="url(#p4c0042728f)" style="fill: #53ffa4"/>
   </g>
   <g id="PathCollection_6">
    <path d="M 103.33993 72.694119 
L 103.069255 72.836176 
L 102.586814 73.091881 
L 101.285037 73.76172 
L 100.936053 73.940097 
L 99.362051 74.736 
L 99.067801 74.883877 
L 98.980029 74.927013 
L 98.047557 75.388189 
L 97.397506 75.71028 
L 96.849654 75.978318 
L 96.62762 76.083975 
L 95.145661 76.805577 
L 94.366322 77.173466 
L 94.057413 77.323249 
L 92.724598 77.951821 
L 92.641634 77.99186 
L 92.49087 78.0624 
L 91.258768 78.634423 
L 91.021378 78.741525 
L 90.127528 79.156142 
L 88.865838 79.723041 
L 88.453871 79.912649 
L 87.686638 80.25581 
L 87.601714 80.294862 
L 87.333099 80.41452 
L 86.103607 80.95883 
L 85.120766 81.3888 
L 84.046194 81.854063 
L 82.856301 82.36308 
L 82.519788 82.506164 
L 82.419255 82.547503 
L 81.657854 82.869979 
L 81.253352 83.036181 
L 79.96417 83.57982 
L 79.109855 83.92823 
L 78.833265 84.044416 
L 77.494105 84.590155 
L 77.397966 84.630366 
L 77.188254 84.7152 
L 76.003397 85.191032 
L 75.808433 85.266914 
L 74.823232 85.66229 
L 73.768181 86.071379 
L 73.168351 86.310359 
L 72.515174 86.562572 
L 72.238632 86.672676 
L 71.212776 87.06732 
L 70.546418 87.322203 
L 68.640781 88.0416 
L 68.44401 88.115515 
L 68.39584 88.13319 
L 68.053632 88.259457 
L 66.704518 88.762365 
L 66.233776 88.93379 
L 66.009594 89.01588 
L 64.432732 89.590097 
L 64.034197 89.730053 
L 63.452674 89.941063 
L 62.738522 90.191716 
L 61.813963 90.525889 
L 60.766496 90.89101 
L 60.597069 90.952033 
L 59.403099 91.368 
L 59.186599 91.442919 
L 59.105595 91.469921 
L 57.737152 91.940278 
L 57.62857 91.975499 
L 57.62857 94.6944 
L 57.62857 98.0208 
L 57.62857 101.3472 
L 57.62857 104.6736 
L 57.62857 108 
L 57.62857 111.3264 
L 57.62857 114.6528 
L 57.62857 117.9792 
L 57.62857 121.3056 
L 57.62857 124.632 
L 57.62857 127.9584 
L 57.62857 131.2848 
L 57.62857 134.6112 
L 57.62857 137.9376 
L 57.62857 139.032849 
L 57.833159 139.015875 
L 58.697483 138.930466 
L 59.571665 138.853153 
L 60.520139 138.759023 
L 60.826698 138.731881 
L 61.883865 138.627108 
L 62.490897 138.573297 
L 63.624206 138.460487 
L 63.819343 138.44317 
L 65.072611 138.318591 
L 65.407998 138.28879 
L 66.729237 138.156874 
L 66.811065 138.149595 
L 68.263794 138.004752 
L 68.322902 137.999487 
L 68.94085 137.9376 
L 69.80182 137.850923 
L 69.835423 137.847173 
L 71.236053 137.706358 
L 71.459335 137.681399 
L 72.79155 137.546851 
L 72.943049 137.529883 
L 74.147017 137.408453 
L 74.658051 137.351114 
L 75.780261 137.237408 
L 76.051757 137.206885 
L 77.055583 137.105314 
L 77.859547 137.014762 
L 78.76792 136.922421 
L 79.161585 136.877992 
L 79.961674 136.79677 
L 81.063914 136.672141 
L 81.754493 136.601706 
L 82.272568 136.543008 
L 82.865208 136.482646 
L 84.271249 136.32304 
L 84.739942 136.275074 
L 85.384745 136.201728 
L 85.766101 136.162755 
L 87.481655 135.967235 
L 87.724232 135.942325 
L 88.498158 135.853936 
L 88.664263 135.836903 
L 90.695238 135.604496 
L 90.70732 135.603251 
L 90.862285 135.58548 
L 91.704543 135.487797 
L 93.423893 135.289351 
L 93.928208 135.231507 
L 95.206044 135.077191 
L 96.119595 134.971301 
L 96.387177 134.940481 
L 98.717237 134.657821 
L 98.80859 134.647186 
L 98.835309 134.644096 
L 99.105238 134.6112 
L 101.493258 134.319159 
L 102.24496 134.223503 
L 103.113561 134.117016 
L 103.33993 134.086484 
L 103.33993 131.2848 
L 103.33993 127.9584 
L 103.33993 124.632 
L 103.33993 121.3056 
L 103.33993 117.9792 
L 103.33993 114.6528 
L 103.33993 111.3264 
L 103.33993 108 
L 103.33993 104.6736 
L 103.33993 101.3472 
L 103.33993 98.0208 
L 103.33993 94.6944 
L 103.33993 91.368 
L 103.33993 88.0416 
L 103.33993 84.7152 
L 103.33993 81.3888 
L 103.33993 78.0624 
L 103.33993 74.736 
" clip-path="url(#p4c0042728f)" style="fill: #a4ff53"/>
   </g>
   <g id="PathCollection_7">
    <path d="M 103.33993 134.086484 
L 103.113561 134.117016 
L 102.24496 134.223503 
L 101.493258 134.319159 
L 99.105238 134.6112 
L 98.835309 134.644096 
L 98.80859 134.647186 
L 98.717237 134.657821 
L 96.387177 134.940481 
L 96.119595 134.971301 
L 95.206044 135.077191 
L 93.928208 135.231507 
L 93.423893 135.289351 
L 91.704543 135.487797 
L 90.862285 135.58548 
L 90.70732 135.603251 
L 90.695238 135.604496 
L 88.664263 135.836903 
L 88.498158 135.853936 
L 87.724232 135.942325 
L 87.481655 135.967235 
L 85.766101 136.162755 
L 85.384745 136.201728 
L 84.739942 136.275074 
L 84.271249 136.32304 
L 82.865208 136.482646 
L 82.272568 136.543008 
L 81.754493 136.601706 
L 81.063914 136.672141 
L 79.961674 136.79677 
L 79.161585 136.877992 
L 78.76792 136.922421 
L 77.859547 137.014762 
L 77.055583 137.105314 
L 76.051757 137.206885 
L 75.780261 137.237408 
L 74.658051 137.351114 
L 74.147017 137.408453 
L 72.943049 137.529883 
L 72.79155 137.546851 
L 71.459335 137.681399 
L 71.236053 137.706358 
L 69.835423 137.847173 
L 69.80182 137.850923 
L 68.94085 137.9376 
L 68.322902 137.999487 
L 68.263794 138.004752 
L 66.811065 138.149595 
L 66.729237 138.156874 
L 65.407998 138.28879 
L 65.072611 138.318591 
L 63.819343 138.44317 
L 63.624206 138.460487 
L 62.490897 138.573297 
L 61.883865 138.627108 
L 60.826698 138.731881 
L 60.520139 138.759023 
L 59.571665 138.853153 
L 58.697483 138.930466 
L 57.833159 139.015875 
L 57.62857 139.032849 
L 57.62857 141.264 
L 57.62857 144.5904 
L 57.62857 147.9168 
L 57.62857 151.2432 
L 57.62857 154.5696 
L 57.62857 157.896 
L 57.62857 161.2224 
L 57.62857 164.5488 
L 57.62857 167.8752 
L 57.62857 171.2016 
L 57.62857 174.528 
L 57.62857 177.8544 
L 57.62857 181.1808 
L 57.62857 181.972353 
L 58.007007 182.006962 
L 58.218735 182.024974 
L 59.674808 182.15508 
L 60.207931 182.202623 
L 60.239318 182.205727 
L 61.098032 182.282873 
L 61.184763 182.291489 
L 63.133848 182.467884 
L 63.340415 182.488605 
L 64.093394 182.557257 
L 64.366536 182.584784 
L 66.056614 182.740022 
L 66.443003 182.779342 
L 67.087367 182.838972 
L 67.552162 182.886493 
L 68.976131 183.019254 
L 69.547133 183.078209 
L 70.079903 183.128256 
L 70.741781 183.196917 
L 71.892295 183.305807 
L 72.652859 183.385488 
L 73.070955 183.42536 
L 73.935535 183.516369 
L 74.804999 183.599914 
L 75.760237 183.701474 
L 76.060474 183.730544 
L 77.133577 183.845181 
L 77.714129 183.901823 
L 78.869326 184.026476 
L 79.048408 184.044083 
L 80.336065 184.183699 
L 80.619568 184.211787 
L 81.980187 184.360818 
L 82.034703 184.366261 
L 83.315232 184.5072 
L 83.521319 184.529805 
L 83.543234 184.532438 
L 85.019559 184.696023 
L 85.092897 184.7049 
L 86.420811 184.852754 
L 86.756113 184.89364 
L 88.002877 185.033888 
L 88.207511 185.059026 
L 89.316334 185.184366 
L 89.973991 185.265757 
L 90.984411 185.38116 
L 91.324092 185.423513 
L 92.207755 185.524936 
L 93.197064 185.649215 
L 93.964096 185.738175 
L 94.442713 185.798753 
L 95.094931 185.874773 
L 96.425539 186.044465 
L 96.941866 186.105283 
L 97.563453 186.185157 
L 97.977714 186.234197 
L 99.659633 186.451982 
L 99.917651 186.482853 
L 100.686392 186.583159 
L 100.855951 186.603548 
L 102.801114 186.85932 
L 102.881928 186.869915 
L 102.899601 186.872322 
L 103.33993 186.928651 
L 103.33993 184.5072 
L 103.33993 181.1808 
L 103.33993 177.8544 
L 103.33993 174.528 
L 103.33993 171.2016 
L 103.33993 167.8752 
L 103.33993 164.5488 
L 103.33993 161.2224 
L 103.33993 157.896 
L 103.33993 154.5696 
L 103.33993 151.2432 
L 103.33993 147.9168 
L 103.33993 144.5904 
L 103.33993 141.264 
L 103.33993 137.9376 
L 103.33993 134.6112 
" clip-path="url(#p4c0042728f)" style="fill: #f8f500"/>
   </g>
   <g id="PathCollection_8">
    <path d="M 103.33993 186.928651 
L 102.899601 186.872322 
L 102.881928 186.869915 
L 102.801114 186.85932 
L 100.855951 186.603548 
L 100.686392 186.583159 
L 99.917651 186.482853 
L 99.659633 186.451982 
L 97.977714 186.234197 
L 97.563453 186.185157 
L 96.941866 186.105283 
L 96.425539 186.044465 
L 95.094931 185.874773 
L 94.442713 185.798753 
L 93.964096 185.738175 
L 93.197064 185.649215 
L 92.207755 185.524936 
L 91.324092 185.423513 
L 90.984411 185.38116 
L 89.973991 185.265757 
L 89.316334 185.184366 
L 88.207511 185.059026 
L 88.002877 185.033888 
L 86.756113 184.89364 
L 86.420811 184.852754 
L 85.092897 184.7049 
L 85.019559 184.696023 
L 83.543234 184.532438 
L 83.521319 184.529805 
L 83.315232 184.5072 
L 82.034703 184.366261 
L 81.980187 184.360818 
L 80.619568 184.211787 
L 80.336065 184.183699 
L 79.048408 184.044083 
L 78.869326 184.026476 
L 77.714129 183.901823 
L 77.133577 183.845181 
L 76.060474 183.730544 
L 75.760237 183.701474 
L 74.804999 183.599914 
L 73.935535 183.516369 
L 73.070955 183.42536 
L 72.652859 183.385488 
L 71.892295 183.305807 
L 70.741781 183.196917 
L 70.079903 183.128256 
L 69.547133 183.078209 
L 68.976131 183.019254 
L 67.552162 182.886493 
L 67.087367 182.838972 
L 66.443003 182.779342 
L 66.056614 182.740022 
L 64.366536 182.584784 
L 64.093394 182.557257 
L 63.340415 182.488605 
L 63.133848 182.467884 
L 61.184763 182.291489 
L 61.098032 182.282873 
L 60.239318 182.205727 
L 60.207931 182.202623 
L 59.674808 182.15508 
L 58.218735 182.024974 
L 58.007007 182.006962 
L 57.62857 181.972353 
L 57.62857 184.5072 
L 57.62857 187.8336 
L 57.62857 191.16 
L 57.62857 194.4864 
L 57.62857 197.8128 
L 57.62857 201.1392 
L 57.62857 204.4656 
L 57.62857 207.792 
L 57.62857 211.1184 
L 57.62857 214.4448 
L 57.62857 217.7712 
L 57.62857 221.0976 
L 57.62857 222.953534 
L 57.895975 223.014655 
L 58.580947 223.176726 
L 59.614734 223.414424 
L 60.52563 223.631515 
L 60.813723 223.698103 
L 61.996764 223.980961 
L 62.363605 224.066194 
L 63.717394 224.392253 
L 63.72893 224.394948 
L 63.849163 224.424 
L 65.10782 224.728125 
L 65.422489 224.806826 
L 66.641892 225.103623 
L 66.912711 225.171716 
L 67.847492 225.399975 
L 68.858702 225.655587 
L 69.552218 225.826187 
L 70.11127 225.968261 
L 70.581449 226.084301 
L 72.30413 226.524465 
L 72.459808 226.563175 
L 73.288721 226.77612 
L 73.304052 226.780038 
L 73.321265 226.784522 
L 74.98301 227.21362 
L 75.306034 227.297071 
L 77.027752 227.7504 
L 77.344596 227.8338 
L 77.606566 227.90389 
L 77.91301 227.985901 
L 79.698393 228.461023 
L 80.673051 228.72468 
L 81.463739 228.938486 
L 81.609996 228.979342 
L 82.36688 229.18514 
L 82.709109 229.281068 
L 84.171136 229.680795 
L 84.825588 229.865665 
L 85.262397 229.985759 
L 86.20123 230.251882 
L 86.872013 230.437339 
L 88.045066 230.772466 
L 88.154766 230.802968 
L 89.109909 231.0768 
L 89.566594 231.207627 
L 89.705225 231.248616 
L 91.044279 231.635226 
L 91.268858 231.702006 
L 92.256486 231.988153 
L 93.223943 232.277495 
L 93.930681 232.483887 
L 94.496954 232.654223 
L 94.939407 232.783895 
L 96.754956 233.333212 
L 96.813665 233.350557 
L 97.071156 233.42892 
L 98.008234 233.715452 
L 99.144885 234.063113 
L 99.337347 234.122017 
L 100.239468 234.4032 
L 101.41225 234.768494 
L 102.65494 235.161628 
L 102.950054 235.254333 
L 103.33993 235.377808 
L 103.33993 234.4032 
L 103.33993 231.0768 
L 103.33993 227.7504 
L 103.33993 224.424 
L 103.33993 221.0976 
L 103.33993 217.7712 
L 103.33993 214.4448 
L 103.33993 211.1184 
L 103.33993 207.792 
L 103.33993 204.4656 
L 103.33993 201.1392 
L 103.33993 197.8128 
L 103.33993 194.4864 
L 103.33993 191.16 
L 103.33993 187.8336 
" clip-path="url(#p4c0042728f)" style="fill: #ff9400"/>
   </g>
   <g id="PathCollection_9">
    <path d="M 103.33993 235.377808 
L 102.950054 235.254333 
L 102.65494 235.161628 
L 101.41225 234.768494 
L 100.239468 234.4032 
L 99.337347 234.122017 
L 99.144885 234.063113 
L 98.008234 233.715452 
L 97.071156 233.42892 
L 96.813665 233.350557 
L 96.754956 233.333212 
L 94.939407 232.783895 
L 94.496954 232.654223 
L 93.930681 232.483887 
L 93.223943 232.277495 
L 92.256486 231.988153 
L 91.268858 231.702006 
L 91.044279 231.635226 
L 89.705225 231.248616 
L 89.566594 231.207627 
L 89.109909 231.0768 
L 88.154766 230.802968 
L 88.045066 230.772466 
L 86.872013 230.437339 
L 86.20123 230.251882 
L 85.262397 229.985759 
L 84.825588 229.865665 
L 84.171136 229.680795 
L 82.709109 229.281068 
L 82.36688 229.18514 
L 81.609996 228.979342 
L 81.463739 228.938486 
L 80.673051 228.72468 
L 79.698393 228.461023 
L 77.91301 227.985901 
L 77.606566 227.90389 
L 77.344596 227.8338 
L 77.027752 227.7504 
L 75.306034 227.297071 
L 74.98301 227.21362 
L 73.321265 226.784522 
L 73.304052 226.780038 
L 73.288721 226.77612 
L 72.459808 226.563175 
L 72.30413 226.524465 
L 70.581449 226.084301 
L 70.11127 225.968261 
L 69.552218 225.826187 
L 68.858702 225.655587 
L 67.847492 225.399975 
L 66.912711 225.171716 
L 66.641892 225.103623 
L 65.422489 224.806826 
L 65.10782 224.728125 
L 63.849163 224.424 
L 63.72893 224.394948 
L 63.717394 224.392253 
L 62.363605 224.066194 
L 61.996764 223.980961 
L 60.813723 223.698103 
L 60.52563 223.631515 
L 59.614734 223.414424 
L 58.580947 223.176726 
L 57.895975 223.014655 
L 57.62857 222.953534 
L 57.62857 224.424 
L 57.62857 227.7504 
L 57.62857 231.0768 
L 57.62857 234.4032 
L 57.62857 237.7296 
L 57.62857 241.056 
L 57.62857 244.3824 
L 57.62857 247.7088 
L 57.62857 251.0352 
L 57.62857 254.3616 
L 57.62857 257.688 
L 57.62857 261.0144 
L 57.62857 264.15005 
L 57.662544 264.161737 
L 58.167913 264.3408 
L 59.014326 264.64197 
L 59.34505 264.761631 
L 60.516596 265.180894 
L 60.859002 265.305335 
L 61.630945 265.582454 
L 62.996918 266.081187 
L 63.367792 266.215106 
L 64.132241 266.495479 
L 64.241941 266.535216 
L 64.669921 266.69292 
L 65.844644 267.126889 
L 66.127767 267.231673 
L 67.292982 267.6672 
L 68.00144 267.932252 
L 69.008332 268.312645 
L 69.878063 268.64148 
L 70.238525 268.778647 
L 70.346478 268.820335 
L 72.040801 269.468006 
L 72.618838 269.692581 
L 73.079008 269.869315 
L 74.047309 270.246782 
L 74.628734 270.471115 
L 75.909277 270.973379 
L 75.916424 270.97615 
L 75.960762 270.9936 
L 77.210678 271.487301 
L 77.764846 271.709697 
L 78.750358 272.101338 
L 79.205541 272.284878 
L 79.786623 272.516581 
L 81.499888 273.210831 
L 81.581089 273.24341 
L 81.832357 273.34572 
L 82.969448 273.811599 
L 83.743085 274.128828 
L 83.838739 274.168138 
L 84.204732 274.32 
L 85.832039 274.995539 
L 86.54464 275.29428 
L 87.477095 275.685992 
L 87.753195 275.803777 
L 88.400566 276.077089 
L 89.031391 276.347177 
L 90.027984 276.769971 
L 91.069062 277.218591 
L 91.219254 277.282632 
L 92.060334 277.6464 
L 92.572216 277.868485 
L 92.827105 277.98076 
L 94.034212 278.507833 
L 94.391079 278.665817 
L 95.110077 278.980906 
L 96.645704 279.664306 
L 96.845489 279.75243 
L 97.395656 279.99852 
L 97.984328 280.263435 
L 99.031608 280.735146 
L 99.145414 280.786539 
L 99.554016 280.9728 
L 100.732301 281.508861 
L 101.058014 281.658417 
L 101.684964 281.94708 
L 102.682847 282.40727 
L 103.010014 282.5604 
L 103.33993 282.714244 
L 103.33993 280.9728 
L 103.33993 277.6464 
L 103.33993 274.32 
L 103.33993 270.9936 
L 103.33993 267.6672 
L 103.33993 264.3408 
L 103.33993 261.0144 
L 103.33993 257.688 
L 103.33993 254.3616 
L 103.33993 251.0352 
L 103.33993 247.7088 
L 103.33993 244.3824 
L 103.33993 241.056 
L 103.33993 237.7296 
" clip-path="url(#p4c0042728f)" style="fill: #ff3800"/>
   </g>
   <g id="PathCollection_10">
    <path d="M 103.33993 282.714244 
L 103.010014 282.5604 
L 102.682847 282.40727 
L 101.684964 281.94708 
L 101.058014 281.658417 
L 100.732301 281.508861 
L 99.554016 280.9728 
L 99.145414 280.786539 
L 99.031608 280.735146 
L 97.984328 280.263435 
L 97.395656 279.99852 
L 96.845489 279.75243 
L 96.645704 279.664306 
L 95.110077 278.980906 
L 94.391079 278.665817 
L 94.034212 278.507833 
L 92.827105 277.98076 
L 92.572216 277.868485 
L 92.060334 277.6464 
L 91.219254 277.282632 
L 91.069062 277.218591 
L 90.027984 276.769971 
L 89.031391 276.347177 
L 88.400566 276.077089 
L 87.753195 275.803777 
L 87.477095 275.685992 
L 86.54464 275.29428 
L 85.832039 274.995539 
L 84.204732 274.32 
L 83.838739 274.168138 
L 83.743085 274.128828 
L 82.969448 273.811599 
L 81.832357 273.34572 
L 81.581089 273.24341 
L 81.499888 273.210831 
L 79.786623 272.516581 
L 79.205541 272.284878 
L 78.750358 272.101338 
L 77.764846 271.709697 
L 77.210678 271.487301 
L 75.960762 270.9936 
L 75.916424 270.97615 
L 75.909277 270.973379 
L 74.628734 270.471115 
L 74.047309 270.246782 
L 73.079008 269.869315 
L 72.618838 269.692581 
L 72.040801 269.468006 
L 70.346478 268.820335 
L 70.238525 268.778647 
L 69.878063 268.64148 
L 69.008332 268.312645 
L 68.00144 267.932252 
L 67.292982 267.6672 
L 66.127767 267.231673 
L 65.844644 267.126889 
L 64.669921 266.69292 
L 64.241941 266.535216 
L 64.132241 266.495479 
L 63.367792 266.215106 
L 62.996918 266.081187 
L 61.630945 265.582454 
L 60.859002 265.305335 
L 60.516596 265.180894 
L 59.34505 264.761631 
L 59.014326 264.64197 
L 58.167913 264.3408 
L 57.662544 264.161737 
L 57.62857 264.15005 
L 57.62857 264.3408 
L 57.62857 267.6672 
L 57.62857 270.9936 
L 57.62857 274.32 
L 57.62857 277.6464 
L 57.62857 280.9728 
L 57.62857 284.2992 
L 57.62857 287.6256 
L 57.62857 290.952 
L 57.62857 294.2784 
L 57.62857 297.6048 
L 57.62857 300.9312 
L 57.62857 304.2576 
L 57.62857 307.584 
L 59.152282 307.584 
L 60.675994 307.584 
L 62.199706 307.584 
L 63.723418 307.584 
L 65.24713 307.584 
L 66.770842 307.584 
L 68.294554 307.584 
L 69.818266 307.584 
L 71.341978 307.584 
L 72.86569 307.584 
L 74.389402 307.584 
L 75.913114 307.584 
L 77.436826 307.584 
L 78.960538 307.584 
L 80.48425 307.584 
L 82.007962 307.584 
L 83.531674 307.584 
L 85.055386 307.584 
L 86.579098 307.584 
L 88.10281 307.584 
L 89.626522 307.584 
L 91.150234 307.584 
L 92.673946 307.584 
L 94.197658 307.584 
L 95.72137 307.584 
L 97.245082 307.584 
L 98.768794 307.584 
L 100.292506 307.584 
L 101.816218 307.584 
L 103.33993 307.584 
L 103.33993 304.2576 
L 103.33993 300.9312 
L 103.33993 297.6048 
L 103.33993 294.2784 
L 103.33993 290.952 
L 103.33993 287.6256 
L 103.33993 284.2992 
" clip-path="url(#p4c0042728f)" style="fill: #b60000"/>
   </g>
   <g id="PathCollection_11">
    <path clip-path="url(#p4c0042728f)" style="fill: #0000b6"/>
   </g>
   <g id="PathCollection_12">
    <path clip-path="url(#p4c0042728f)" style="fill: #0018ff"/>
   </g>
   <g id="PathCollection_13">
    <path clip-path="url(#p4c0042728f)" style="fill: #0080ff"/>
   </g>
   <g id="PathCollection_14">
    <path clip-path="url(#p4c0042728f)" style="fill: #00e4f8"/>
   </g>
   <g id="PathCollection_15">
    <path d="M 100.4544 74.156169 
L 102.387549 73.197454 
L 105.375824 71.560578 
L 109.663631 69.30451 
L 111.794452 68.0832 
L 115.76232 65.751089 
L 118.072265 64.30422 
L 120.161748 63.067813 
L 122.121294 61.81088 
L 125.513135 59.564384 
L 126.041186 59.2128 
L 128.419603 57.541954 
L 129.772266 56.61472 
L 130.191355 56.317711 
L 130.729775 55.907342 
L 134.030088 53.508623 
L 138.150684 50.3424 
L 139.764149 49.067022 
L 145.663713 44.07008 
L 145.999778 43.774109 
L 148.548309 41.472 
L 140.928 41.472 
L 132.83328 41.472 
L 124.73856 41.472 
L 116.64384 41.472 
L 108.54912 41.472 
L 100.4544 41.472 
L 100.4544 50.3424 
L 100.4544 59.2128 
L 100.4544 68.0832 
" clip-path="url(#p4c0042728f)" style="fill: #53ffa4"/>
   </g>
   <g id="PathCollection_16">
    <path d="M 148.548309 41.472 
L 145.999778 43.774109 
L 145.663713 44.07008 
L 139.764149 49.067022 
L 138.150684 50.3424 
L 134.030088 53.508623 
L 130.729775 55.907342 
L 130.191355 56.317711 
L 129.772266 56.61472 
L 128.419603 57.541954 
L 126.041186 59.2128 
L 125.513135 59.564384 
L 122.121294 61.81088 
L 120.161748 63.067813 
L 118.072265 64.30422 
L 115.76232 65.751089 
L 111.794452 68.0832 
L 109.663631 69.30451 
L 105.375824 71.560578 
L 102.387549 73.197454 
L 100.4544 74.156169 
L 100.4544 76.9536 
L 100.4544 85.824 
L 100.4544 94.6944 
L 100.4544 103.5648 
L 100.4544 112.4352 
L 100.4544 121.3056 
L 100.4544 130.176 
L 100.4544 134.420785 
L 102.287263 134.197457 
L 103.97305 134.031826 
L 113.467362 132.77408 
L 114.088665 132.690431 
L 115.374594 132.500598 
L 121.541224 131.627289 
L 126.438912 130.9478 
L 127.35525 130.825592 
L 131.498321 130.176 
L 138.468981 129.059837 
L 146.467382 127.661643 
L 146.954937 127.57792 
L 151.108175 126.82279 
L 152.329417 126.552438 
L 160.514465 125.028147 
L 164.121483 124.191047 
L 166.156362 123.80354 
L 172.343199 122.361626 
L 173.978601 122.041689 
L 176.976521 121.3056 
L 181.017309 120.288937 
L 181.883576 120.030505 
L 187.122303 118.704092 
L 193.725602 116.671046 
L 195.644389 116.155624 
L 199.152574 115.03328 
L 199.517962 114.923066 
L 202.479853 113.89038 
L 206.14053 112.641623 
L 206.708826 112.4352 
L 208.441013 111.75121 
L 213.454056 109.83712 
L 215.788399 108.876864 
L 217.961437 107.853601 
L 223.572992 105.425283 
L 227.212194 103.5648 
L 229.511891 102.353058 
L 230.693671 101.650076 
L 234.465358 99.620615 
L 238.174498 97.29248 
L 240.47801 95.789843 
L 242.091949 94.6944 
L 245.193754 92.44518 
L 245.598729 92.09632 
L 247.868479 90.34557 
L 253.160427 85.824 
L 253.765648 85.288764 
L 259.472243 79.55168 
L 259.624078 79.391073 
L 260.530999 78.511841 
L 261.891242 76.9536 
L 263.370346 75.197689 
L 263.956845 74.35552 
L 264.476687 73.712646 
L 268.669216 68.0832 
L 269.449296 66.993705 
L 272.754034 61.81088 
L 273.479486 60.590842 
L 273.839076 60.055745 
L 274.309504 59.2128 
L 275.495344 56.919748 
L 275.678574 56.61472 
L 275.864187 56.282505 
L 277.613406 52.7891 
L 278.675094 50.704455 
L 278.846866 50.3424 
L 281.429301 44.640098 
L 281.660036 44.07008 
L 281.809451 43.661418 
L 282.741772 41.472 
L 278.53824 41.472 
L 270.44352 41.472 
L 262.3488 41.472 
L 254.25408 41.472 
L 246.15936 41.472 
L 238.06464 41.472 
L 229.96992 41.472 
L 221.8752 41.472 
L 213.78048 41.472 
L 205.68576 41.472 
L 197.59104 41.472 
L 189.49632 41.472 
L 181.4016 41.472 
L 173.30688 41.472 
L 165.21216 41.472 
L 157.11744 41.472 
L 149.02272 41.472 
" clip-path="url(#p4c0042728f)" style="fill: #a4ff53"/>
   </g>
   <g id="PathCollection_17">
    <path d="M 282.741772 41.472 
L 281.809451 43.661418 
L 281.660036 44.07008 
L 281.429301 44.640098 
L 278.846866 50.3424 
L 278.675094 50.704455 
L 277.613406 52.7891 
L 275.864187 56.282505 
L 275.678574 56.61472 
L 275.495344 56.919748 
L 274.309504 59.2128 
L 273.839076 60.055745 
L 273.479486 60.590842 
L 272.754034 61.81088 
L 269.449296 66.993705 
L 268.669216 68.0832 
L 264.476687 73.712646 
L 263.956845 74.35552 
L 263.370346 75.197689 
L 261.891242 76.9536 
L 260.530999 78.511841 
L 259.624078 79.391073 
L 259.472243 79.55168 
L 253.765648 85.288764 
L 253.160427 85.824 
L 247.868479 90.34557 
L 245.598729 92.09632 
L 245.193754 92.44518 
L 242.091949 94.6944 
L 240.47801 95.789843 
L 238.174498 97.29248 
L 234.465358 99.620615 
L 230.693671 101.650076 
L 229.511891 102.353058 
L 227.212194 103.5648 
L 223.572992 105.425283 
L 217.961437 107.853601 
L 215.788399 108.876864 
L 213.454056 109.83712 
L 208.441013 111.75121 
L 206.708826 112.4352 
L 206.14053 112.641623 
L 202.479853 113.89038 
L 199.517962 114.923066 
L 199.152574 115.03328 
L 195.644389 116.155624 
L 193.725602 116.671046 
L 187.122303 118.704092 
L 181.883576 120.030505 
L 181.017309 120.288937 
L 176.976521 121.3056 
L 173.978601 122.041689 
L 172.343199 122.361626 
L 166.156362 123.80354 
L 164.121483 124.191047 
L 160.514465 125.028147 
L 152.329417 126.552438 
L 151.108175 126.82279 
L 146.954937 127.57792 
L 146.467382 127.661643 
L 138.468981 129.059837 
L 131.498321 130.176 
L 127.35525 130.825592 
L 126.438912 130.9478 
L 121.541224 131.627289 
L 115.374594 132.500598 
L 114.088665 132.690431 
L 113.467362 132.77408 
L 103.97305 134.031826 
L 102.287263 134.197457 
L 100.4544 134.420785 
L 100.4544 139.0464 
L 100.4544 147.9168 
L 100.4544 156.7872 
L 100.4544 165.6576 
L 100.4544 174.528 
L 100.4544 183.3984 
L 100.4544 186.538151 
L 102.517516 186.81071 
L 103.742268 187.00133 
L 112.327464 188.128395 
L 115.261211 188.610976 
L 117.890335 188.971127 
L 122.427894 189.736714 
L 126.515581 190.321496 
L 132.502156 191.392793 
L 133.128948 191.486594 
L 137.383926 192.2688 
L 140.424733 192.820293 
L 141.683037 193.096188 
L 148.232377 194.359698 
L 149.96299 194.756338 
L 154.098506 195.577025 
L 161.829931 197.432867 
L 163.154018 197.71373 
L 166.439823 198.54112 
L 169.133639 199.244942 
L 174.429336 200.629711 
L 176.200062 201.1392 
L 184.270896 203.51105 
L 184.971552 203.73728 
L 192.911366 206.267306 
L 196.713417 207.687798 
L 198.270391 208.212339 
L 202.92068 210.0096 
L 204.974772 210.788719 
L 207.350887 211.834288 
L 212.316966 213.88141 
L 215.872526 215.544227 
L 216.557188 215.837213 
L 217.448104 216.28192 
L 222.321582 218.677385 
L 222.445435 218.73844 
L 222.697614 218.88 
L 223.363107 219.249372 
L 227.421252 221.397385 
L 227.573666 221.47808 
L 227.590853 221.487042 
L 227.605804 221.495998 
L 231.510213 223.675468 
L 238.032279 227.7504 
L 238.053049 227.763102 
L 238.117395 227.80821 
L 244.498182 232.14514 
L 246.974675 234.02272 
L 247.384796 234.307078 
L 250.305785 236.6208 
L 251.292435 237.356026 
L 251.75799 237.75379 
L 253.458824 239.21888 
L 257.139286 242.329518 
L 260.388492 245.4912 
L 261.831034 246.860979 
L 263.548396 248.6648 
L 265.632891 250.762809 
L 266.491216 251.76352 
L 267.663678 253.099814 
L 268.299812 253.829426 
L 268.810869 254.3616 
L 269.295852 254.882533 
L 271.021077 256.95968 
L 273.50343 259.878873 
L 275.965328 263.232 
L 277.679289 265.504402 
L 280.40776 269.50432 
L 280.487703 269.608939 
L 282.095211 272.1024 
L 282.78086 273.058681 
L 283.154903 273.68111 
L 283.746706 274.70048 
L 287.160164 280.395077 
L 287.453064 280.9728 
L 288.553499 283.077376 
L 290.815643 287.24512 
L 291.129321 287.802276 
L 292.097486 289.8432 
L 293.297537 292.207741 
L 293.392121 292.44128 
L 295.448807 296.805818 
L 296.254223 298.7136 
L 298.379973 303.581725 
L 298.884896 304.98592 
L 299.257857 305.966034 
L 299.917336 307.584 
L 302.8224 307.584 
L 310.91712 307.584 
L 319.01184 307.584 
L 327.10656 307.584 
L 335.20128 307.584 
L 343.296 307.584 
L 343.296 298.7136 
L 343.296 289.8432 
L 343.296 280.9728 
L 343.296 272.1024 
L 343.296 263.232 
L 343.296 254.3616 
L 343.296 245.4912 
L 343.296 236.6208 
L 343.296 227.7504 
L 343.296 218.88 
L 343.296 210.0096 
L 343.296 201.1392 
L 343.296 192.2688 
L 343.296 183.3984 
L 343.296 174.528 
L 343.296 165.6576 
L 343.296 156.7872 
L 343.296 147.9168 
L 343.296 139.0464 
L 343.296 130.176 
L 343.296 121.3056 
L 343.296 112.4352 
L 343.296 103.5648 
L 343.296 94.6944 
L 343.296 85.824 
L 343.296 76.9536 
L 343.296 68.0832 
L 343.296 59.2128 
L 343.296 50.3424 
L 343.296 41.472 
L 335.20128 41.472 
L 327.10656 41.472 
L 319.01184 41.472 
L 310.91712 41.472 
L 302.8224 41.472 
L 294.72768 41.472 
L 286.63296 41.472 
" clip-path="url(#p4c0042728f)" style="fill: #f8f500"/>
   </g>
   <g id="PathCollection_18">
    <path d="M 299.917336 307.584 
L 299.257857 305.966034 
L 298.884896 304.98592 
L 298.379973 303.581725 
L 296.254223 298.7136 
L 295.448807 296.805818 
L 293.392121 292.44128 
L 293.297537 292.207741 
L 292.097486 289.8432 
L 291.129321 287.802276 
L 290.815643 287.24512 
L 288.553499 283.077376 
L 287.453064 280.9728 
L 287.160164 280.395077 
L 283.746706 274.70048 
L 283.154903 273.68111 
L 282.78086 273.058681 
L 282.095211 272.1024 
L 280.487703 269.608939 
L 280.40776 269.50432 
L 277.679289 265.504402 
L 275.965328 263.232 
L 273.50343 259.878873 
L 271.021077 256.95968 
L 269.295852 254.882533 
L 268.810869 254.3616 
L 268.299812 253.829426 
L 267.663678 253.099814 
L 266.491216 251.76352 
L 265.632891 250.762809 
L 263.548396 248.6648 
L 261.831034 246.860979 
L 260.388492 245.4912 
L 257.139286 242.329518 
L 253.458824 239.21888 
L 251.75799 237.75379 
L 251.292435 237.356026 
L 250.305785 236.6208 
L 247.384796 234.307078 
L 246.974675 234.02272 
L 244.498182 232.14514 
L 238.117395 227.80821 
L 238.053049 227.763102 
L 238.032279 227.7504 
L 231.510213 223.675468 
L 227.605804 221.495998 
L 227.590853 221.487042 
L 227.573666 221.47808 
L 227.421252 221.397385 
L 223.363107 219.249372 
L 222.697614 218.88 
L 222.445435 218.73844 
L 222.321582 218.677385 
L 217.448104 216.28192 
L 216.557188 215.837213 
L 215.872526 215.544227 
L 212.316966 213.88141 
L 207.350887 211.834288 
L 204.974772 210.788719 
L 202.92068 210.0096 
L 198.270391 208.212339 
L 196.713417 207.687798 
L 192.911366 206.267306 
L 184.971552 203.73728 
L 184.270896 203.51105 
L 176.200062 201.1392 
L 174.429336 200.629711 
L 169.133639 199.244942 
L 166.439823 198.54112 
L 163.154018 197.71373 
L 161.829931 197.432867 
L 154.098506 195.577025 
L 149.96299 194.756338 
L 148.232377 194.359698 
L 141.683037 193.096188 
L 140.424733 192.820293 
L 137.383926 192.2688 
L 133.128948 191.486594 
L 132.502156 191.392793 
L 126.515581 190.321496 
L 122.427894 189.736714 
L 117.890335 188.971127 
L 115.261211 188.610976 
L 112.327464 188.128395 
L 103.742268 187.00133 
L 102.517516 186.81071 
L 100.4544 186.538151 
L 100.4544 192.2688 
L 100.4544 201.1392 
L 100.4544 210.0096 
L 100.4544 218.88 
L 100.4544 227.7504 
L 100.4544 234.466156 
L 101.98459 234.943979 
L 107.188458 236.6208 
L 107.984808 236.876944 
L 112.424537 238.379874 
L 114.64481 239.126566 
L 114.901138 239.21888 
L 118.535914 240.48561 
L 121.023287 241.419909 
L 126.615495 243.434407 
L 131.836351 245.4912 
L 132.704721 245.831311 
L 133.010416 245.959824 
L 138.496079 248.156161 
L 146.577118 251.681647 
L 146.668273 251.720023 
L 146.764291 251.76352 
L 146.891421 251.822998 
L 152.430268 254.3616 
L 154.750076 255.43616 
L 157.855602 256.95968 
L 161.308055 258.639817 
L 164.017223 260.070726 
L 166.022769 261.087487 
L 169.974054 263.232 
L 172.209815 264.434192 
L 176.899607 267.169002 
L 179.379126 268.58257 
L 180.891432 269.50432 
L 182.089886 270.263758 
L 185.081972 272.1024 
L 186.367112 272.879224 
L 186.951223 273.257634 
L 189.136671 274.70048 
L 192.951362 277.186677 
L 197.331043 280.284963 
L 197.744039 280.568033 
L 198.297122 280.9728 
L 202.750565 284.189261 
L 206.641093 287.24512 
L 208.406237 288.60836 
L 208.943358 289.034504 
L 209.884503 289.8432 
L 211.665605 291.327692 
L 213.057757 292.44128 
L 215.406226 294.412597 
L 220.216482 298.7136 
L 221.136103 299.523521 
L 226.831364 304.98592 
L 227.081831 305.22068 
L 229.427552 307.584 
L 229.96992 307.584 
L 238.06464 307.584 
L 246.15936 307.584 
L 254.25408 307.584 
L 262.3488 307.584 
L 270.44352 307.584 
L 278.53824 307.584 
L 286.63296 307.584 
L 294.72768 307.584 
" clip-path="url(#p4c0042728f)" style="fill: #ff9400"/>
   </g>
   <g id="PathCollection_19">
    <path d="M 229.427552 307.584 
L 227.081831 305.22068 
L 226.831364 304.98592 
L 221.136103 299.523521 
L 220.216482 298.7136 
L 215.406226 294.412597 
L 213.057757 292.44128 
L 211.665605 291.327692 
L 209.884503 289.8432 
L 208.943358 289.034504 
L 208.406237 288.60836 
L 206.641093 287.24512 
L 202.750565 284.189261 
L 198.297122 280.9728 
L 197.744039 280.568033 
L 197.331043 280.284963 
L 192.951362 277.186677 
L 189.136671 274.70048 
L 186.951223 273.257634 
L 186.367112 272.879224 
L 185.081972 272.1024 
L 182.089886 270.263758 
L 180.891432 269.50432 
L 179.379126 268.58257 
L 176.899607 267.169002 
L 172.209815 264.434192 
L 169.974054 263.232 
L 166.022769 261.087487 
L 164.017223 260.070726 
L 161.308055 258.639817 
L 157.855602 256.95968 
L 154.750076 255.43616 
L 152.430268 254.3616 
L 146.891421 251.822998 
L 146.764291 251.76352 
L 146.668273 251.720023 
L 146.577118 251.681647 
L 138.496079 248.156161 
L 133.010416 245.959824 
L 132.704721 245.831311 
L 131.836351 245.4912 
L 126.615495 243.434407 
L 121.023287 241.419909 
L 118.535914 240.48561 
L 114.901138 239.21888 
L 114.64481 239.126566 
L 112.424537 238.379874 
L 107.984808 236.876944 
L 107.188458 236.6208 
L 101.98459 234.943979 
L 100.4544 234.466156 
L 100.4544 236.6208 
L 100.4544 245.4912 
L 100.4544 254.3616 
L 100.4544 263.232 
L 100.4544 272.1024 
L 100.4544 280.9728 
L 100.4544 281.38485 
L 100.643601 281.473341 
L 105.88392 283.893394 
L 112.784914 287.24512 
L 113.503954 287.594172 
L 114.872531 288.273418 
L 117.921661 289.8432 
L 121.139109 291.477012 
L 122.94605 292.44128 
L 128.005315 295.133807 
L 132.411397 297.597485 
L 133.109984 297.981565 
L 134.387089 298.7136 
L 138.677542 301.179709 
L 144.97653 304.98592 
L 145.697736 305.41899 
L 148.84154 307.385458 
L 149.072331 307.529635 
L 149.156923 307.584 
L 157.11744 307.584 
L 165.21216 307.584 
L 173.30688 307.584 
L 181.4016 307.584 
L 189.49632 307.584 
L 197.59104 307.584 
L 205.68576 307.584 
L 213.78048 307.584 
L 221.8752 307.584 
" clip-path="url(#p4c0042728f)" style="fill: #ff3800"/>
   </g>
   <g id="PathCollection_20">
    <path d="M 149.156923 307.584 
L 149.072331 307.529635 
L 148.84154 307.385458 
L 145.697736 305.41899 
L 144.97653 304.98592 
L 138.677542 301.179709 
L 134.387089 298.7136 
L 133.109984 297.981565 
L 132.411397 297.597485 
L 128.005315 295.133807 
L 122.94605 292.44128 
L 121.139109 291.477012 
L 117.921661 289.8432 
L 114.872531 288.273418 
L 113.503954 287.594172 
L 112.784914 287.24512 
L 105.88392 283.893394 
L 100.643601 281.473341 
L 100.4544 281.38485 
L 100.4544 289.8432 
L 100.4544 298.7136 
L 100.4544 307.584 
L 108.54912 307.584 
L 116.64384 307.584 
L 124.73856 307.584 
L 132.83328 307.584 
L 140.928 307.584 
L 149.02272 307.584 
" clip-path="url(#p4c0042728f)" style="fill: #b60000"/>
   </g>
   <g id="matplotlib.axis_1">
    <g id="xtick_1">
     <g id="line2d_1">
      <defs>
       <path id="m7793d64ab5" d="M 0 0 
L 0 3.5 
" style="stroke: #000000; stroke-width: 0.8"/>
      </defs>
      <g>
       <use xlink:href="#m7793d64ab5" x="57.6" y="307.584" style="stroke: #000000; stroke-width: 0.8"/>
      </g>
     </g>
     <g id="text_1">
      <!-- 0.0 -->
      <g transform="translate(51.26875 321.385562) scale(0.1 -0.1)">
       <defs>
        <path id="Calibri-30" d="M 3022 2031 
Q 3022 1566 2948 1181 
Q 2875 797 2704 520 
Q 2534 244 2259 92 
Q 1984 -59 1581 -59 
Q 1200 -59 939 77 
Q 678 213 518 477 
Q 359 741 292 1127 
Q 225 1513 225 2013 
Q 225 2475 300 2861 
Q 375 3247 544 3523 
Q 713 3800 988 3951 
Q 1263 4103 1663 4103 
Q 2047 4103 2308 3967 
Q 2569 3831 2728 3567 
Q 2888 3303 2955 2917 
Q 3022 2531 3022 2031 
z
M 2472 1994 
Q 2472 2297 2450 2537 
Q 2428 2778 2386 2962 
Q 2344 3147 2276 3280 
Q 2209 3413 2115 3498 
Q 2022 3584 1901 3623 
Q 1781 3663 1631 3663 
Q 1366 3663 1200 3538 
Q 1034 3413 939 3194 
Q 844 2975 809 2681 
Q 775 2388 775 2050 
Q 775 1597 822 1280 
Q 869 963 970 763 
Q 1072 563 1230 472 
Q 1388 381 1613 381 
Q 1788 381 1920 437 
Q 2053 494 2148 598 
Q 2244 703 2306 850 
Q 2369 997 2406 1175 
Q 2444 1353 2458 1561 
Q 2472 1769 2472 1994 
z
" transform="scale(0.015625)"/>
        <path id="Calibri-2e" d="M 1144 341 
Q 1144 119 1070 45 
Q 997 -28 803 -28 
Q 616 -28 544 44 
Q 472 116 472 331 
Q 472 553 545 626 
Q 619 700 813 700 
Q 1000 700 1072 628 
Q 1144 556 1144 341 
z
" transform="scale(0.015625)"/>
       </defs>
       <use xlink:href="#Calibri-30"/>
       <use xlink:href="#Calibri-2e" x="50.683594"/>
       <use xlink:href="#Calibri-30" x="75.927734"/>
      </g>
     </g>
    </g>
    <g id="xtick_2">
     <g id="line2d_2">
      <g>
       <use xlink:href="#m7793d64ab5" x="86.1696" y="307.584" style="stroke: #000000; stroke-width: 0.8"/>
      </g>
     </g>
     <g id="text_2">
      <!-- 0.1 -->
      <g transform="translate(79.83835 321.385562) scale(0.1 -0.1)">
       <defs>
        <path id="Calibri-31" d="M 2897 213 
Q 2897 153 2887 112 
Q 2878 72 2862 47 
Q 2847 22 2826 11 
Q 2806 0 2784 0 
L 672 0 
Q 650 0 631 11 
Q 613 22 595 47 
Q 578 72 568 112 
Q 559 153 559 213 
Q 559 269 568 309 
Q 578 350 592 376 
Q 606 403 626 417 
Q 647 431 672 431 
L 1516 431 
L 1516 3506 
L 734 3041 
Q 675 3009 639 3003 
Q 603 2997 581 3017 
Q 559 3038 551 3084 
Q 544 3131 544 3203 
Q 544 3256 548 3293 
Q 553 3331 562 3356 
Q 572 3381 589 3400 
Q 606 3419 634 3438 
L 1566 4034 
Q 1578 4044 1597 4050 
Q 1616 4056 1644 4062 
Q 1672 4069 1709 4070 
Q 1747 4072 1803 4072 
Q 1878 4072 1928 4065 
Q 1978 4059 2006 4048 
Q 2034 4038 2043 4020 
Q 2053 4003 2053 3984 
L 2053 431 
L 2784 431 
Q 2809 431 2831 417 
Q 2853 403 2867 376 
Q 2881 350 2889 309 
Q 2897 269 2897 213 
z
" transform="scale(0.015625)"/>
       </defs>
       <use xlink:href="#Calibri-30"/>
       <use xlink:href="#Calibri-2e" x="50.683594"/>
       <use xlink:href="#Calibri-31" x="75.927734"/>
      </g>
     </g>
    </g>
    <g id="xtick_3">
     <g id="line2d_3">
      <g>
       <use xlink:href="#m7793d64ab5" x="114.7392" y="307.584" style="stroke: #000000; stroke-width: 0.8"/>
      </g>
     </g>
     <g id="text_3">
      <!-- 0.2 -->
      <g transform="translate(108.40795 321.385562) scale(0.1 -0.1)">
       <defs>
        <path id="Calibri-32" d="M 2888 231 
Q 2888 175 2880 131 
Q 2872 88 2858 58 
Q 2844 28 2820 14 
Q 2797 0 2769 0 
L 534 0 
Q 491 0 458 11 
Q 425 22 401 47 
Q 378 72 367 119 
Q 356 166 356 234 
Q 356 297 361 344 
Q 366 391 381 427 
Q 397 463 420 498 
Q 444 534 481 575 
L 1266 1406 
Q 1538 1694 1702 1922 
Q 1866 2150 1955 2337 
Q 2044 2525 2072 2678 
Q 2100 2831 2100 2966 
Q 2100 3100 2056 3220 
Q 2013 3341 1930 3431 
Q 1847 3522 1722 3575 
Q 1597 3628 1434 3628 
Q 1244 3628 1092 3575 
Q 941 3522 827 3459 
Q 713 3397 636 3344 
Q 559 3291 522 3291 
Q 500 3291 483 3303 
Q 466 3316 455 3344 
Q 444 3372 437 3419 
Q 431 3466 431 3531 
Q 431 3578 434 3612 
Q 438 3647 445 3672 
Q 453 3697 465 3719 
Q 478 3741 515 3773 
Q 553 3806 645 3862 
Q 738 3919 877 3973 
Q 1016 4028 1183 4065 
Q 1350 4103 1534 4103 
Q 1828 4103 2048 4020 
Q 2269 3938 2414 3794 
Q 2559 3650 2631 3459 
Q 2703 3269 2703 3053 
Q 2703 2859 2668 2667 
Q 2634 2475 2523 2251 
Q 2413 2028 2203 1754 
Q 1994 1481 1647 1125 
L 1006 456 
L 2766 456 
Q 2791 456 2814 442 
Q 2838 428 2855 400 
Q 2872 372 2880 330 
Q 2888 288 2888 231 
z
" transform="scale(0.015625)"/>
       </defs>
       <use xlink:href="#Calibri-30"/>
       <use xlink:href="#Calibri-2e" x="50.683594"/>
       <use xlink:href="#Calibri-32" x="75.927734"/>
      </g>
     </g>
    </g>
    <g id="xtick_4">
     <g id="line2d_4">
      <g>
       <use xlink:href="#m7793d64ab5" x="143.3088" y="307.584" style="stroke: #000000; stroke-width: 0.8"/>
      </g>
     </g>
     <g id="text_4">
      <!-- 0.3 -->
      <g transform="translate(136.97755 321.385562) scale(0.1 -0.1)">
       <defs>
        <path id="Calibri-33" d="M 2856 1156 
Q 2856 878 2759 654 
Q 2663 431 2481 272 
Q 2300 113 2034 27 
Q 1769 -59 1434 -59 
Q 1231 -59 1054 -26 
Q 878 6 740 51 
Q 603 97 512 145 
Q 422 194 398 216 
Q 375 238 362 259 
Q 350 281 340 312 
Q 331 344 326 389 
Q 322 434 322 500 
Q 322 613 344 656 
Q 366 700 406 700 
Q 434 700 517 650 
Q 600 600 729 542 
Q 859 484 1032 434 
Q 1206 384 1419 384 
Q 1625 384 1781 437 
Q 1938 491 2044 587 
Q 2150 684 2203 817 
Q 2256 950 2256 1106 
Q 2256 1278 2189 1415 
Q 2122 1553 1992 1653 
Q 1863 1753 1673 1806 
Q 1484 1859 1244 1859 
L 859 1859 
Q 834 1859 811 1870 
Q 788 1881 770 1906 
Q 753 1931 742 1972 
Q 731 2013 731 2078 
Q 731 2138 740 2177 
Q 750 2216 767 2239 
Q 784 2263 806 2273 
Q 828 2284 856 2284 
L 1209 2284 
Q 1416 2284 1580 2337 
Q 1744 2391 1858 2491 
Q 1972 2591 2033 2730 
Q 2094 2869 2094 3041 
Q 2094 3166 2053 3280 
Q 2013 3394 1931 3478 
Q 1850 3563 1723 3611 
Q 1597 3659 1431 3659 
Q 1250 3659 1098 3604 
Q 947 3550 828 3487 
Q 709 3425 631 3370 
Q 553 3316 522 3316 
Q 500 3316 483 3323 
Q 466 3331 455 3354 
Q 444 3378 439 3420 
Q 434 3463 434 3531 
Q 434 3578 437 3614 
Q 441 3650 450 3676 
Q 459 3703 471 3725 
Q 484 3747 514 3776 
Q 544 3806 634 3862 
Q 725 3919 858 3973 
Q 991 4028 1164 4065 
Q 1338 4103 1538 4103 
Q 1819 4103 2031 4031 
Q 2244 3959 2386 3828 
Q 2528 3697 2598 3514 
Q 2669 3331 2669 3109 
Q 2669 2919 2619 2755 
Q 2569 2591 2472 2464 
Q 2375 2338 2234 2248 
Q 2094 2159 1909 2125 
L 1909 2119 
Q 2119 2097 2292 2014 
Q 2466 1931 2591 1806 
Q 2716 1681 2786 1514 
Q 2856 1347 2856 1156 
z
" transform="scale(0.015625)"/>
       </defs>
       <use xlink:href="#Calibri-30"/>
       <use xlink:href="#Calibri-2e" x="50.683594"/>
       <use xlink:href="#Calibri-33" x="75.927734"/>
      </g>
     </g>
    </g>
    <g id="xtick_5">
     <g id="line2d_5">
      <g>
       <use xlink:href="#m7793d64ab5" x="171.8784" y="307.584" style="stroke: #000000; stroke-width: 0.8"/>
      </g>
     </g>
     <g id="text_5">
      <!-- 0.4 -->
      <g transform="translate(165.54715 321.385562) scale(0.1 -0.1)">
       <defs>
        <path id="Calibri-34" d="M 3059 1150 
Q 3059 1047 3028 987 
Q 2997 928 2941 928 
L 2484 928 
L 2484 78 
Q 2484 53 2471 36 
Q 2459 19 2428 6 
Q 2397 -6 2347 -12 
Q 2297 -19 2219 -19 
Q 2144 -19 2094 -12 
Q 2044 -6 2014 6 
Q 1984 19 1973 36 
Q 1963 53 1963 78 
L 1963 928 
L 294 928 
Q 256 928 231 937 
Q 206 947 186 972 
Q 166 997 158 1044 
Q 150 1091 150 1166 
Q 150 1225 153 1272 
Q 156 1319 165 1358 
Q 175 1397 190 1433 
Q 206 1469 228 1509 
L 1684 3966 
Q 1700 3991 1729 4009 
Q 1759 4028 1806 4040 
Q 1853 4053 1922 4058 
Q 1991 4063 2084 4063 
Q 2188 4063 2264 4055 
Q 2341 4047 2387 4034 
Q 2434 4022 2459 4001 
Q 2484 3981 2484 3953 
L 2484 1372 
L 2941 1372 
Q 2994 1372 3026 1317 
Q 3059 1263 3059 1150 
z
M 1963 3591 
L 1956 3591 
L 641 1372 
L 1963 1372 
L 1963 3591 
z
" transform="scale(0.015625)"/>
       </defs>
       <use xlink:href="#Calibri-30"/>
       <use xlink:href="#Calibri-2e" x="50.683594"/>
       <use xlink:href="#Calibri-34" x="75.927734"/>
      </g>
     </g>
    </g>
    <g id="xtick_6">
     <g id="line2d_6">
      <g>
       <use xlink:href="#m7793d64ab5" x="200.448" y="307.584" style="stroke: #000000; stroke-width: 0.8"/>
      </g>
     </g>
     <g id="text_6">
      <!-- 0.5 -->
      <g transform="translate(194.11675 321.385562) scale(0.1 -0.1)">
       <defs>
        <path id="Calibri-35" d="M 2869 1300 
Q 2869 975 2759 722 
Q 2650 469 2450 295 
Q 2250 122 1973 31 
Q 1697 -59 1359 -59 
Q 1172 -59 1003 -32 
Q 834 -6 703 33 
Q 572 72 487 109 
Q 403 147 379 169 
Q 356 191 347 209 
Q 338 228 330 254 
Q 322 281 319 322 
Q 316 363 316 419 
Q 316 472 320 514 
Q 325 556 337 582 
Q 350 609 367 621 
Q 384 634 406 634 
Q 438 634 503 595 
Q 569 556 680 511 
Q 791 466 955 425 
Q 1119 384 1344 384 
Q 1553 384 1728 434 
Q 1903 484 2029 590 
Q 2156 697 2228 858 
Q 2300 1019 2300 1250 
Q 2300 1444 2239 1592 
Q 2178 1741 2051 1839 
Q 1925 1938 1731 1986 
Q 1538 2034 1269 2034 
Q 1078 2034 940 2015 
Q 803 1997 684 1997 
Q 597 1997 559 2037 
Q 522 2078 522 2194 
L 522 3841 
Q 522 3944 570 3994 
Q 619 4044 709 4044 
L 2500 4044 
Q 2525 4044 2548 4030 
Q 2572 4016 2587 3987 
Q 2603 3959 2611 3915 
Q 2619 3872 2619 3813 
Q 2619 3700 2587 3637 
Q 2556 3575 2500 3575 
L 991 3575 
L 991 2441 
Q 1100 2456 1214 2459 
Q 1328 2463 1478 2463 
Q 1825 2463 2084 2380 
Q 2344 2297 2517 2145 
Q 2691 1994 2780 1778 
Q 2869 1563 2869 1300 
z
" transform="scale(0.015625)"/>
       </defs>
       <use xlink:href="#Calibri-30"/>
       <use xlink:href="#Calibri-2e" x="50.683594"/>
       <use xlink:href="#Calibri-35" x="75.927734"/>
      </g>
     </g>
    </g>
    <g id="xtick_7">
     <g id="line2d_7">
      <g>
       <use xlink:href="#m7793d64ab5" x="229.0176" y="307.584" style="stroke: #000000; stroke-width: 0.8"/>
      </g>
     </g>
     <g id="text_7">
      <!-- 0.6 -->
      <g transform="translate(222.68635 321.385562) scale(0.1 -0.1)">
       <defs>
        <path id="Calibri-36" d="M 2991 1309 
Q 2991 1044 2909 795 
Q 2828 547 2659 358 
Q 2491 169 2231 55 
Q 1972 -59 1619 -59 
Q 1366 -59 1172 3 
Q 978 66 834 181 
Q 691 297 595 465 
Q 500 634 442 850 
Q 384 1066 359 1322 
Q 334 1578 334 1872 
Q 334 2131 362 2397 
Q 391 2663 462 2909 
Q 534 3156 657 3373 
Q 781 3591 967 3752 
Q 1153 3913 1412 4006 
Q 1672 4100 2016 4100 
Q 2131 4100 2250 4086 
Q 2369 4072 2469 4048 
Q 2569 4025 2637 3997 
Q 2706 3969 2728 3951 
Q 2750 3934 2761 3914 
Q 2772 3894 2778 3870 
Q 2784 3847 2787 3817 
Q 2791 3788 2791 3744 
Q 2791 3688 2789 3647 
Q 2788 3606 2777 3581 
Q 2766 3556 2748 3543 
Q 2731 3531 2703 3531 
Q 2669 3531 2609 3553 
Q 2550 3575 2465 3601 
Q 2381 3628 2261 3650 
Q 2141 3672 1981 3672 
Q 1691 3672 1481 3553 
Q 1272 3434 1139 3234 
Q 1006 3034 942 2770 
Q 878 2506 869 2219 
Q 950 2266 1051 2312 
Q 1153 2359 1273 2396 
Q 1394 2434 1528 2457 
Q 1663 2481 1816 2481 
Q 2144 2481 2369 2392 
Q 2594 2303 2733 2145 
Q 2872 1988 2931 1773 
Q 2991 1559 2991 1309 
z
M 2447 1259 
Q 2447 1441 2411 1589 
Q 2375 1738 2290 1841 
Q 2206 1944 2065 2000 
Q 1925 2056 1719 2056 
Q 1603 2056 1487 2036 
Q 1372 2016 1264 1980 
Q 1156 1944 1057 1895 
Q 959 1847 878 1791 
Q 878 1388 929 1116 
Q 981 844 1079 680 
Q 1178 516 1325 445 
Q 1472 375 1669 375 
Q 1869 375 2016 450 
Q 2163 525 2259 651 
Q 2356 778 2401 936 
Q 2447 1094 2447 1259 
z
" transform="scale(0.015625)"/>
       </defs>
       <use xlink:href="#Calibri-30"/>
       <use xlink:href="#Calibri-2e" x="50.683594"/>
       <use xlink:href="#Calibri-36" x="75.927734"/>
      </g>
     </g>
    </g>
    <g id="xtick_8">
     <g id="line2d_8">
      <g>
       <use xlink:href="#m7793d64ab5" x="257.5872" y="307.584" style="stroke: #000000; stroke-width: 0.8"/>
      </g>
     </g>
     <g id="text_8">
      <!-- 0.7 -->
      <g transform="translate(251.25595 321.385562) scale(0.1 -0.1)">
       <defs>
        <path id="Calibri-37" d="M 2947 3813 
Q 2947 3756 2942 3711 
Q 2938 3666 2930 3623 
Q 2922 3581 2908 3542 
Q 2894 3503 2875 3459 
L 1419 103 
Q 1403 66 1379 42 
Q 1356 19 1320 5 
Q 1284 -9 1228 -14 
Q 1172 -19 1091 -19 
Q 984 -19 925 -9 
Q 866 0 839 20 
Q 813 41 816 70 
Q 819 100 838 141 
L 2369 3572 
L 428 3572 
Q 369 3572 339 3634 
Q 309 3697 309 3809 
Q 309 3869 317 3912 
Q 325 3956 340 3986 
Q 356 4016 378 4030 
Q 400 4044 428 4044 
L 2784 4044 
Q 2828 4044 2861 4034 
Q 2894 4025 2911 3997 
Q 2928 3969 2937 3925 
Q 2947 3881 2947 3813 
z
" transform="scale(0.015625)"/>
       </defs>
       <use xlink:href="#Calibri-30"/>
       <use xlink:href="#Calibri-2e" x="50.683594"/>
       <use xlink:href="#Calibri-37" x="75.927734"/>
      </g>
     </g>
    </g>
    <g id="xtick_9">
     <g id="line2d_9">
      <g>
       <use xlink:href="#m7793d64ab5" x="286.1568" y="307.584" style="stroke: #000000; stroke-width: 0.8"/>
      </g>
     </g>
     <g id="text_9">
      <!-- 0.8 -->
      <g transform="translate(279.82555 321.385562) scale(0.1 -0.1)">
       <defs>
        <path id="Calibri-38" d="M 2981 1038 
Q 2981 775 2887 570 
Q 2794 366 2617 225 
Q 2441 84 2181 12 
Q 1922 -59 1588 -59 
Q 1275 -59 1028 6 
Q 781 72 609 200 
Q 438 328 347 515 
Q 256 703 256 944 
Q 256 1134 318 1293 
Q 381 1453 498 1587 
Q 616 1722 787 1839 
Q 959 1956 1175 2063 
Q 988 2159 844 2267 
Q 700 2375 600 2501 
Q 500 2628 448 2772 
Q 397 2916 397 3084 
Q 397 3297 473 3483 
Q 550 3669 704 3806 
Q 859 3944 1098 4023 
Q 1338 4103 1656 4103 
Q 1963 4103 2186 4029 
Q 2409 3956 2554 3829 
Q 2700 3703 2769 3531 
Q 2838 3359 2838 3163 
Q 2838 3003 2786 2856 
Q 2734 2709 2634 2578 
Q 2534 2447 2389 2333 
Q 2244 2219 2056 2119 
Q 2278 2009 2451 1893 
Q 2625 1778 2742 1645 
Q 2859 1513 2920 1364 
Q 2981 1216 2981 1038 
z
M 2306 3113 
Q 2306 3244 2261 3350 
Q 2216 3456 2128 3531 
Q 2041 3606 1911 3645 
Q 1781 3684 1616 3684 
Q 1278 3684 1104 3531 
Q 931 3378 931 3113 
Q 931 2991 973 2886 
Q 1016 2781 1105 2687 
Q 1194 2594 1330 2505 
Q 1466 2416 1653 2319 
Q 1969 2481 2137 2678 
Q 2306 2875 2306 3113 
z
M 2438 981 
Q 2438 1125 2384 1242 
Q 2331 1359 2223 1461 
Q 2116 1563 1955 1658 
Q 1794 1753 1581 1856 
Q 1384 1759 1236 1662 
Q 1088 1566 992 1462 
Q 897 1359 848 1245 
Q 800 1131 800 994 
Q 800 691 1008 525 
Q 1216 359 1628 359 
Q 2028 359 2233 526 
Q 2438 694 2438 981 
z
" transform="scale(0.015625)"/>
       </defs>
       <use xlink:href="#Calibri-30"/>
       <use xlink:href="#Calibri-2e" x="50.683594"/>
       <use xlink:href="#Calibri-38" x="75.927734"/>
      </g>
     </g>
    </g>
    <g id="xtick_10">
     <g id="line2d_10">
      <g>
       <use xlink:href="#m7793d64ab5" x="314.7264" y="307.584" style="stroke: #000000; stroke-width: 0.8"/>
      </g>
     </g>
     <g id="text_10">
      <!-- 0.9 -->
      <g transform="translate(308.39515 321.385562) scale(0.1 -0.1)">
       <defs>
        <path id="Calibri-39" d="M 2919 2181 
Q 2919 1919 2887 1650 
Q 2856 1381 2781 1132 
Q 2706 884 2579 667 
Q 2453 450 2261 287 
Q 2069 125 1805 33 
Q 1541 -59 1191 -59 
Q 1056 -59 929 -42 
Q 803 -25 701 0 
Q 600 25 531 53 
Q 463 81 431 109 
Q 400 138 386 186 
Q 372 234 372 316 
Q 372 384 376 425 
Q 381 466 390 487 
Q 400 509 417 517 
Q 434 525 459 525 
Q 494 525 556 501 
Q 619 478 714 450 
Q 809 422 937 398 
Q 1066 375 1225 375 
Q 1528 375 1745 492 
Q 1963 609 2100 806 
Q 2238 1003 2306 1262 
Q 2375 1522 2381 1809 
Q 2216 1713 1984 1638 
Q 1753 1563 1453 1563 
Q 1116 1563 886 1655 
Q 656 1747 517 1906 
Q 378 2066 317 2284 
Q 256 2503 256 2763 
Q 256 3031 334 3273 
Q 413 3516 578 3700 
Q 744 3884 1000 3993 
Q 1256 4103 1613 4103 
Q 1866 4103 2061 4039 
Q 2256 3975 2400 3854 
Q 2544 3734 2644 3564 
Q 2744 3394 2805 3178 
Q 2866 2963 2892 2711 
Q 2919 2459 2919 2181 
z
M 2372 2241 
Q 2372 2641 2319 2914 
Q 2266 3188 2162 3356 
Q 2059 3525 1909 3600 
Q 1759 3675 1563 3675 
Q 1359 3675 1215 3601 
Q 1072 3528 980 3404 
Q 888 3281 844 3125 
Q 800 2969 800 2803 
Q 800 2619 839 2466 
Q 878 2313 965 2206 
Q 1053 2100 1193 2042 
Q 1334 1984 1541 1984 
Q 1775 1984 1994 2054 
Q 2213 2125 2372 2241 
z
" transform="scale(0.015625)"/>
       </defs>
       <use xlink:href="#Calibri-30"/>
       <use xlink:href="#Calibri-2e" x="50.683594"/>
       <use xlink:href="#Calibri-39" x="75.927734"/>
      </g>
     </g>
    </g>
    <g id="xtick_11">
     <g id="line2d_11">
      <g>
       <use xlink:href="#m7793d64ab5" x="343.296" y="307.584" style="stroke: #000000; stroke-width: 0.8"/>
      </g>
     </g>
     <g id="text_11">
      <!-- 1.0 -->
      <g transform="translate(336.96475 321.385562) scale(0.1 -0.1)">
       <use xlink:href="#Calibri-31"/>
       <use xlink:href="#Calibri-2e" x="50.683594"/>
       <use xlink:href="#Calibri-30" x="75.927734"/>
      </g>
     </g>
    </g>
    <g id="text_12">
     <!-- $\mathit{p}$ (cm$^2$/cm$^2$) -->
     <g transform="translate(174.148 336.263687) scale(0.1 -0.1)">
      <defs>
       <path id="DejaVuSans-Oblique-70" d="M 3175 2156 
Q 3175 2616 2975 2859 
Q 2775 3103 2400 3103 
Q 2144 3103 1911 2972 
Q 1678 2841 1497 2591 
Q 1319 2344 1212 1994 
Q 1106 1644 1106 1300 
Q 1106 863 1306 627 
Q 1506 391 1875 391 
Q 2147 391 2380 519 
Q 2613 647 2778 891 
Q 2956 1147 3065 1494 
Q 3175 1841 3175 2156 
z
M 1394 2969 
Q 1625 3272 1939 3428 
Q 2253 3584 2638 3584 
Q 3175 3584 3472 3232 
Q 3769 2881 3769 2247 
Q 3769 1728 3584 1258 
Q 3400 788 3053 416 
Q 2822 169 2531 39 
Q 2241 -91 1919 -91 
Q 1547 -91 1294 64 
Q 1041 219 916 525 
L 556 -1331 
L -19 -1331 
L 922 3500 
L 1497 3500 
L 1394 2969 
z
" transform="scale(0.015625)"/>
       <path id="Calibri-20" transform="scale(0.015625)"/>
       <path id="Calibri-28" d="M 1547 4306 
Q 1250 3678 1104 3017 
Q 959 2356 959 1688 
Q 959 1016 1107 356 
Q 1256 -303 1541 -938 
Q 1556 -975 1557 -1001 
Q 1559 -1028 1537 -1045 
Q 1516 -1063 1470 -1070 
Q 1425 -1078 1347 -1078 
Q 1291 -1078 1250 -1075 
Q 1209 -1072 1179 -1062 
Q 1150 -1053 1131 -1040 
Q 1113 -1028 1103 -1013 
Q 934 -694 806 -367 
Q 678 -41 590 296 
Q 503 634 459 979 
Q 416 1325 416 1678 
Q 416 2031 464 2375 
Q 513 2719 602 3058 
Q 691 3397 819 3725 
Q 947 4053 1106 4375 
Q 1109 4388 1123 4397 
Q 1138 4406 1163 4415 
Q 1188 4425 1231 4429 
Q 1275 4434 1344 4434 
Q 1416 4434 1459 4425 
Q 1503 4416 1528 4400 
Q 1553 4384 1556 4359 
Q 1559 4334 1547 4306 
z
" transform="scale(0.015625)"/>
       <path id="Calibri-63" d="M 2500 506 
Q 2500 453 2497 414 
Q 2494 375 2486 348 
Q 2478 322 2467 301 
Q 2456 281 2417 242 
Q 2378 203 2284 145 
Q 2191 88 2073 42 
Q 1956 -3 1818 -31 
Q 1681 -59 1534 -59 
Q 1231 -59 997 41 
Q 763 141 605 333 
Q 447 525 364 804 
Q 281 1084 281 1450 
Q 281 1866 382 2164 
Q 484 2463 661 2653 
Q 838 2844 1077 2936 
Q 1316 3028 1594 3028 
Q 1728 3028 1854 3003 
Q 1981 2978 2087 2937 
Q 2194 2897 2276 2844 
Q 2359 2791 2396 2753 
Q 2434 2716 2448 2694 
Q 2463 2672 2472 2642 
Q 2481 2613 2484 2575 
Q 2488 2538 2488 2481 
Q 2488 2359 2459 2311 
Q 2431 2263 2391 2263 
Q 2344 2263 2283 2314 
Q 2222 2366 2128 2428 
Q 2034 2491 1901 2542 
Q 1769 2594 1588 2594 
Q 1216 2594 1017 2308 
Q 819 2022 819 1478 
Q 819 1206 870 1001 
Q 922 797 1022 659 
Q 1122 522 1267 455 
Q 1413 388 1600 388 
Q 1778 388 1912 444 
Q 2047 500 2145 567 
Q 2244 634 2311 689 
Q 2378 744 2416 744 
Q 2438 744 2453 731 
Q 2469 719 2480 689 
Q 2491 659 2495 614 
Q 2500 569 2500 506 
z
" transform="scale(0.015625)"/>
       <path id="Calibri-6d" d="M 4650 78 
Q 4650 53 4637 36 
Q 4625 19 4597 6 
Q 4569 -6 4519 -12 
Q 4469 -19 4394 -19 
Q 4316 -19 4266 -12 
Q 4216 -6 4186 6 
Q 4156 19 4143 36 
Q 4131 53 4131 78 
L 4131 1788 
Q 4131 1966 4100 2112 
Q 4069 2259 4000 2365 
Q 3931 2472 3825 2528 
Q 3719 2584 3575 2584 
Q 3397 2584 3217 2446 
Q 3038 2309 2822 2044 
L 2822 78 
Q 2822 53 2809 36 
Q 2797 19 2767 6 
Q 2738 -6 2688 -12 
Q 2638 -19 2563 -19 
Q 2491 -19 2439 -12 
Q 2388 -6 2358 6 
Q 2328 19 2317 36 
Q 2306 53 2306 78 
L 2306 1788 
Q 2306 1966 2272 2112 
Q 2238 2259 2169 2365 
Q 2100 2472 1995 2528 
Q 1891 2584 1747 2584 
Q 1569 2584 1387 2446 
Q 1206 2309 994 2044 
L 994 78 
Q 994 53 981 36 
Q 969 19 941 6 
Q 913 -6 863 -12 
Q 813 -19 734 -19 
Q 659 -19 609 -12 
Q 559 -6 529 6 
Q 500 19 489 36 
Q 478 53 478 78 
L 478 2891 
Q 478 2916 487 2933 
Q 497 2950 525 2964 
Q 553 2978 597 2983 
Q 641 2988 713 2988 
Q 781 2988 826 2983 
Q 872 2978 897 2964 
Q 922 2950 933 2933 
Q 944 2916 944 2891 
L 944 2519 
Q 1181 2784 1404 2907 
Q 1628 3031 1856 3031 
Q 2031 3031 2170 2990 
Q 2309 2950 2415 2876 
Q 2522 2803 2597 2701 
Q 2672 2600 2722 2475 
Q 2863 2628 2989 2734 
Q 3116 2841 3233 2906 
Q 3350 2972 3461 3001 
Q 3572 3031 3684 3031 
Q 3956 3031 4140 2936 
Q 4325 2841 4439 2681 
Q 4553 2522 4601 2308 
Q 4650 2094 4650 1856 
L 4650 78 
z
" transform="scale(0.015625)"/>
       <path id="DejaVuSans-32" d="M 1228 531 
L 3431 531 
L 3431 0 
L 469 0 
L 469 531 
Q 828 903 1448 1529 
Q 2069 2156 2228 2338 
Q 2531 2678 2651 2914 
Q 2772 3150 2772 3378 
Q 2772 3750 2511 3984 
Q 2250 4219 1831 4219 
Q 1534 4219 1204 4116 
Q 875 4013 500 3803 
L 500 4441 
Q 881 4594 1212 4672 
Q 1544 4750 1819 4750 
Q 2544 4750 2975 4387 
Q 3406 4025 3406 3419 
Q 3406 3131 3298 2873 
Q 3191 2616 2906 2266 
Q 2828 2175 2409 1742 
Q 1991 1309 1228 531 
z
" transform="scale(0.015625)"/>
       <path id="Calibri-2f" d="M 525 -753 
Q 513 -794 492 -817 
Q 472 -841 440 -853 
Q 409 -866 364 -872 
Q 319 -878 253 -878 
Q 175 -878 123 -867 
Q 72 -856 44 -836 
Q 16 -816 9 -786 
Q 3 -756 22 -716 
L 1913 4469 
Q 1925 4509 1945 4532 
Q 1966 4556 1995 4570 
Q 2025 4584 2072 4589 
Q 2119 4594 2184 4594 
Q 2263 4594 2313 4583 
Q 2363 4572 2391 4553 
Q 2419 4534 2425 4503 
Q 2431 4472 2416 4431 
L 525 -753 
z
" transform="scale(0.015625)"/>
       <path id="Calibri-29" d="M 1522 1678 
Q 1522 1325 1478 979 
Q 1434 634 1346 296 
Q 1259 -41 1132 -367 
Q 1006 -694 838 -1013 
Q 828 -1028 809 -1040 
Q 791 -1053 761 -1062 
Q 731 -1072 690 -1075 
Q 650 -1078 594 -1078 
Q 513 -1078 467 -1070 
Q 422 -1063 401 -1045 
Q 381 -1028 382 -1001 
Q 384 -975 400 -938 
Q 688 -306 834 355 
Q 981 1016 981 1688 
Q 981 2356 834 3017 
Q 688 3678 394 4306 
Q 381 4334 384 4359 
Q 388 4384 413 4400 
Q 438 4416 481 4425 
Q 525 4434 597 4434 
Q 663 4434 706 4429 
Q 750 4425 776 4415 
Q 803 4406 815 4397 
Q 828 4388 834 4375 
Q 1156 3734 1339 3057 
Q 1522 2381 1522 1678 
z
" transform="scale(0.015625)"/>
      </defs>
      <use xlink:href="#DejaVuSans-Oblique-70" transform="translate(0 0.765625)"/>
      <use xlink:href="#Calibri-20" transform="translate(63.476562 0.765625)"/>
      <use xlink:href="#Calibri-28" transform="translate(84.958984 0.765625)"/>
      <use xlink:href="#Calibri-63" transform="translate(115.28125 0.765625)"/>
      <use xlink:href="#Calibri-6d" transform="translate(157.566406 0.765625)"/>
      <use xlink:href="#DejaVuSans-32" transform="translate(238.40625 39.046875) scale(0.7)"/>
      <use xlink:href="#Calibri-2f" transform="translate(285.676758 0.765625)"/>
      <use xlink:href="#Calibri-63" transform="translate(324.299805 0.765625)"/>
      <use xlink:href="#Calibri-6d" transform="translate(366.584961 0.765625)"/>
      <use xlink:href="#DejaVuSans-32" transform="translate(447.424805 39.046875) scale(0.7)"/>
      <use xlink:href="#Calibri-29" transform="translate(494.695312 0.765625)"/>
     </g>
    </g>
   </g>
   <g id="matplotlib.axis_2">
    <g id="ytick_1">
     <g id="line2d_12">
      <defs>
       <path id="mfd0f2be602" d="M 0 0 
L -3.5 0 
" style="stroke: #000000; stroke-width: 0.8"/>
      </defs>
      <g>
       <use xlink:href="#mfd0f2be602" x="57.6" y="275.65056" style="stroke: #000000; stroke-width: 0.8"/>
      </g>
     </g>
     <g id="text_13">
      <!-- 25 -->
      <g transform="translate(40.4625 279.051341) scale(0.1 -0.1)">
       <use xlink:href="#Calibri-32"/>
       <use xlink:href="#Calibri-35" x="50.683594"/>
      </g>
     </g>
    </g>
    <g id="ytick_2">
     <g id="line2d_13">
      <g>
       <use xlink:href="#mfd0f2be602" x="57.6" y="242.38656" style="stroke: #000000; stroke-width: 0.8"/>
      </g>
     </g>
     <g id="text_14">
      <!-- 50 -->
      <g transform="translate(40.4625 245.787341) scale(0.1 -0.1)">
       <use xlink:href="#Calibri-35"/>
       <use xlink:href="#Calibri-30" x="50.683594"/>
      </g>
     </g>
    </g>
    <g id="ytick_3">
     <g id="line2d_14">
      <g>
       <use xlink:href="#mfd0f2be602" x="57.6" y="209.12256" style="stroke: #000000; stroke-width: 0.8"/>
      </g>
     </g>
     <g id="text_15">
      <!-- 75 -->
      <g transform="translate(40.4625 212.523341) scale(0.1 -0.1)">
       <use xlink:href="#Calibri-37"/>
       <use xlink:href="#Calibri-35" x="50.683594"/>
      </g>
     </g>
    </g>
    <g id="ytick_4">
     <g id="line2d_15">
      <g>
       <use xlink:href="#mfd0f2be602" x="57.6" y="175.85856" style="stroke: #000000; stroke-width: 0.8"/>
      </g>
     </g>
     <g id="text_16">
      <!-- 100 -->
      <g transform="translate(35.39375 179.259341) scale(0.1 -0.1)">
       <use xlink:href="#Calibri-31"/>
       <use xlink:href="#Calibri-30" x="50.683594"/>
       <use xlink:href="#Calibri-30" x="101.367188"/>
      </g>
     </g>
    </g>
    <g id="ytick_5">
     <g id="line2d_16">
      <g>
       <use xlink:href="#mfd0f2be602" x="57.6" y="142.59456" style="stroke: #000000; stroke-width: 0.8"/>
      </g>
     </g>
     <g id="text_17">
      <!-- 125 -->
      <g transform="translate(35.39375 145.995341) scale(0.1 -0.1)">
       <use xlink:href="#Calibri-31"/>
       <use xlink:href="#Calibri-32" x="50.683594"/>
       <use xlink:href="#Calibri-35" x="101.367188"/>
      </g>
     </g>
    </g>
    <g id="ytick_6">
     <g id="line2d_17">
      <g>
       <use xlink:href="#mfd0f2be602" x="57.6" y="109.33056" style="stroke: #000000; stroke-width: 0.8"/>
      </g>
     </g>
     <g id="text_18">
      <!-- 150 -->
      <g transform="translate(35.39375 112.731341) scale(0.1 -0.1)">
       <use xlink:href="#Calibri-31"/>
       <use xlink:href="#Calibri-35" x="50.683594"/>
       <use xlink:href="#Calibri-30" x="101.367188"/>
      </g>
     </g>
    </g>
    <g id="ytick_7">
     <g id="line2d_18">
      <g>
       <use xlink:href="#mfd0f2be602" x="57.6" y="76.06656" style="stroke: #000000; stroke-width: 0.8"/>
      </g>
     </g>
     <g id="text_19">
      <!-- 175 -->
      <g transform="translate(35.39375 79.467341) scale(0.1 -0.1)">
       <use xlink:href="#Calibri-31"/>
       <use xlink:href="#Calibri-37" x="50.683594"/>
       <use xlink:href="#Calibri-35" x="101.367188"/>
      </g>
     </g>
    </g>
    <g id="ytick_8">
     <g id="line2d_19">
      <g>
       <use xlink:href="#mfd0f2be602" x="57.6" y="42.80256" style="stroke: #000000; stroke-width: 0.8"/>
      </g>
     </g>
     <g id="text_20">
      <!-- 200 -->
      <g transform="translate(35.39375 46.203341) scale(0.1 -0.1)">
       <use xlink:href="#Calibri-32"/>
       <use xlink:href="#Calibri-30" x="50.683594"/>
       <use xlink:href="#Calibri-30" x="101.367188"/>
      </g>
     </g>
    </g>
    <g id="text_21">
     <!-- $\mathit{Z}$$_{a}$ (nm) -->
     <g transform="translate(29.59375 191.028) rotate(-90) scale(0.1 -0.1)">
      <defs>
       <path id="DejaVuSans-Oblique-5a" d="M 838 4666 
L 4500 4666 
L 4409 4184 
L 794 531 
L 3769 531 
L 3669 0 
L -141 0 
L -50 481 
L 3566 4134 
L 738 4134 
L 838 4666 
z
" transform="scale(0.015625)"/>
       <path id="DejaVuSans-Oblique-61" d="M 3438 1997 
L 3047 0 
L 2472 0 
L 2578 531 
Q 2325 219 2001 64 
Q 1678 -91 1281 -91 
Q 834 -91 548 182 
Q 263 456 263 884 
Q 263 1497 752 1853 
Q 1241 2209 2100 2209 
L 2900 2209 
L 2931 2363 
Q 2938 2388 2941 2417 
Q 2944 2447 2944 2509 
Q 2944 2788 2717 2942 
Q 2491 3097 2081 3097 
Q 1800 3097 1504 3025 
Q 1209 2953 897 2809 
L 997 3341 
Q 1322 3463 1633 3523 
Q 1944 3584 2234 3584 
Q 2853 3584 3176 3315 
Q 3500 3047 3500 2534 
Q 3500 2431 3484 2292 
Q 3469 2153 3438 1997 
z
M 2816 1759 
L 2241 1759 
Q 1534 1759 1195 1570 
Q 856 1381 856 984 
Q 856 709 1029 553 
Q 1203 397 1509 397 
Q 1978 397 2328 733 
Q 2678 1069 2791 1631 
L 2816 1759 
z
" transform="scale(0.015625)"/>
       <path id="Calibri-6e" d="M 2900 78 
Q 2900 53 2887 36 
Q 2875 19 2847 6 
Q 2819 -6 2769 -12 
Q 2719 -19 2644 -19 
Q 2566 -19 2516 -12 
Q 2466 -6 2437 6 
Q 2409 19 2396 36 
Q 2384 53 2384 78 
L 2384 1725 
Q 2384 1966 2346 2112 
Q 2309 2259 2237 2365 
Q 2166 2472 2052 2528 
Q 1938 2584 1788 2584 
Q 1594 2584 1400 2446 
Q 1206 2309 994 2044 
L 994 78 
Q 994 53 981 36 
Q 969 19 941 6 
Q 913 -6 863 -12 
Q 813 -19 734 -19 
Q 659 -19 609 -12 
Q 559 -6 529 6 
Q 500 19 489 36 
Q 478 53 478 78 
L 478 2891 
Q 478 2916 487 2933 
Q 497 2950 525 2964 
Q 553 2978 597 2983 
Q 641 2988 713 2988 
Q 781 2988 826 2983 
Q 872 2978 897 2964 
Q 922 2950 933 2933 
Q 944 2916 944 2891 
L 944 2519 
Q 1181 2784 1417 2907 
Q 1653 3031 1894 3031 
Q 2175 3031 2367 2936 
Q 2559 2841 2678 2681 
Q 2797 2522 2848 2308 
Q 2900 2094 2900 1794 
L 2900 78 
z
" transform="scale(0.015625)"/>
      </defs>
      <use xlink:href="#DejaVuSans-Oblique-5a" transform="translate(0 0.09375)"/>
      <use xlink:href="#DejaVuSans-Oblique-61" transform="translate(69.462891 -16.3125) scale(0.7)"/>
      <use xlink:href="#Calibri-20" transform="translate(115.092773 0.09375)"/>
      <use xlink:href="#Calibri-28" transform="translate(136.575195 0.09375)"/>
      <use xlink:href="#Calibri-6e" transform="translate(166.897461 0.09375)"/>
      <use xlink:href="#Calibri-6d" transform="translate(219.436523 0.09375)"/>
      <use xlink:href="#Calibri-29" transform="translate(299.319336 0.09375)"/>
     </g>
    </g>
   </g>
   <g id="patch_3">
    <path d="M 57.6 307.584 
L 57.6 41.472 
" style="fill: none; stroke: #000000; stroke-width: 0.8; stroke-linejoin: miter; stroke-linecap: square"/>
   </g>
   <g id="patch_4">
    <path d="M 343.296 307.584 
L 343.296 41.472 
" style="fill: none; stroke: #000000; stroke-width: 0.8; stroke-linejoin: miter; stroke-linecap: square"/>
   </g>
   <g id="patch_5">
    <path d="M 57.6 307.584 
L 343.296 307.584 
" style="fill: none; stroke: #000000; stroke-width: 0.8; stroke-linejoin: miter; stroke-linecap: square"/>
   </g>
   <g id="patch_6">
    <path d="M 57.6 41.472 
L 343.296 41.472 
" style="fill: none; stroke: #000000; stroke-width: 0.8; stroke-linejoin: miter; stroke-linecap: square"/>
   </g>
   <g id="text_22">
    <!-- $\lambda$ = 960 nm -->
    <g transform="translate(177.348 35.472) scale(0.1 -0.1)">
     <defs>
      <path id="DejaVuSans-Oblique-3bb" d="M 2350 4316 
L 3125 0 
L 2516 0 
L 2038 2588 
L 328 0 
L -281 0 
L 1903 3356 
L 1794 3975 
Q 1725 4369 1391 4369 
L 1091 4369 
L 1184 4863 
L 1550 4856 
Q 2253 4847 2350 4316 
z
" transform="scale(0.015625)"/>
      <path id="Calibri-3d" d="M 2891 2409 
Q 2891 2284 2855 2236 
Q 2819 2188 2772 2188 
L 409 2188 
Q 363 2188 328 2236 
Q 294 2284 294 2409 
Q 294 2522 325 2575 
Q 356 2628 409 2628 
L 2772 2628 
Q 2828 2628 2859 2575 
Q 2891 2522 2891 2409 
z
M 2891 1194 
Q 2891 1069 2855 1022 
Q 2819 975 2772 975 
L 409 975 
Q 363 975 328 1022 
Q 294 1069 294 1194 
Q 294 1309 325 1362 
Q 356 1416 409 1416 
L 2772 1416 
Q 2828 1416 2859 1362 
Q 2891 1309 2891 1194 
z
" transform="scale(0.015625)"/>
     </defs>
     <use xlink:href="#DejaVuSans-Oblique-3bb" transform="translate(0 0.015625)"/>
     <use xlink:href="#Calibri-20" transform="translate(59.179688 0.015625)"/>
     <use xlink:href="#Calibri-3d" transform="translate(81.787109 0.015625)"/>
     <use xlink:href="#Calibri-20" transform="translate(131.591797 0.015625)"/>
     <use xlink:href="#Calibri-39" transform="translate(154.199219 0.015625)"/>
     <use xlink:href="#Calibri-36" transform="translate(204.882812 0.015625)"/>
     <use xlink:href="#Calibri-30" transform="translate(255.566406 0.015625)"/>
     <use xlink:href="#Calibri-20" transform="translate(306.25 0.015625)"/>
     <use xlink:href="#Calibri-6e" transform="translate(328.857422 0.015625)"/>
     <use xlink:href="#Calibri-6d" transform="translate(381.396484 0.015625)"/>
    </g>
   </g>
  </g>
  <g id="axes_2">
   <g id="patch_7">
    <path d="M 361.152 307.584 
L 374.4576 307.584 
L 374.4576 41.472 
L 361.152 41.472 
z
" style="fill: #ffffff"/>
   </g>
   <g id="QuadMesh_1">
    <path d="M 361.152 307.584 
L 374.4576 307.584 
L 374.4576 280.9728 
L 361.152 280.9728 
L 361.152 307.584 
" clip-path="url(#pc3b66f09e7)" style="fill: #0000b6"/>
    <path d="M 361.152 280.9728 
L 374.4576 280.9728 
L 374.4576 254.3616 
L 361.152 254.3616 
L 361.152 280.9728 
" clip-path="url(#pc3b66f09e7)" style="fill: #0018ff"/>
    <path d="M 361.152 254.3616 
L 374.4576 254.3616 
L 374.4576 227.7504 
L 361.152 227.7504 
L 361.152 254.3616 
" clip-path="url(#pc3b66f09e7)" style="fill: #0080ff"/>
    <path d="M 361.152 227.7504 
L 374.4576 227.7504 
L 374.4576 201.1392 
L 361.152 201.1392 
L 361.152 227.7504 
" clip-path="url(#pc3b66f09e7)" style="fill: #00e4f8"/>
    <path d="M 361.152 201.1392 
L 374.4576 201.1392 
L 374.4576 174.528 
L 361.152 174.528 
L 361.152 201.1392 
" clip-path="url(#pc3b66f09e7)" style="fill: #53ffa4"/>
    <path d="M 361.152 174.528 
L 374.4576 174.528 
L 374.4576 147.9168 
L 361.152 147.9168 
L 361.152 174.528 
" clip-path="url(#pc3b66f09e7)" style="fill: #a4ff53"/>
    <path d="M 361.152 147.9168 
L 374.4576 147.9168 
L 374.4576 121.3056 
L 361.152 121.3056 
L 361.152 147.9168 
" clip-path="url(#pc3b66f09e7)" style="fill: #f8f500"/>
    <path d="M 361.152 121.3056 
L 374.4576 121.3056 
L 374.4576 94.6944 
L 361.152 94.6944 
L 361.152 121.3056 
" clip-path="url(#pc3b66f09e7)" style="fill: #ff9400"/>
    <path d="M 361.152 94.6944 
L 374.4576 94.6944 
L 374.4576 68.0832 
L 361.152 68.0832 
L 361.152 94.6944 
" clip-path="url(#pc3b66f09e7)" style="fill: #ff3800"/>
    <path d="M 361.152 68.0832 
L 374.4576 68.0832 
L 374.4576 41.472 
L 361.152 41.472 
L 361.152 68.0832 
" clip-path="url(#pc3b66f09e7)" style="fill: #b60000"/>
   </g>
   <g id="matplotlib.axis_3"/>
   <g id="matplotlib.axis_4">
    <g id="ytick_9">
     <g id="line2d_20">
      <defs>
       <path id="mdc8982ac87" d="M 0 0 
L 3.5 0 
" style="stroke: #000000; stroke-width: 0.8"/>
      </defs>
      <g>
       <use xlink:href="#mdc8982ac87" x="374.4576" y="307.584" style="stroke: #000000; stroke-width: 0.8"/>
      </g>
     </g>
     <g id="text_23">
      <!-- 0 -->
      <g transform="translate(381.4576 310.984781) scale(0.1 -0.1)">
       <use xlink:href="#Calibri-30"/>
      </g>
     </g>
    </g>
    <g id="ytick_10">
     <g id="line2d_21">
      <g>
       <use xlink:href="#mdc8982ac87" x="374.4576" y="280.9728" style="stroke: #000000; stroke-width: 0.8"/>
      </g>
     </g>
     <g id="text_24">
      <!-- 0.1 -->
      <g transform="translate(381.4576 284.373581) scale(0.1 -0.1)">
       <use xlink:href="#Calibri-30"/>
       <use xlink:href="#Calibri-2e" x="50.683594"/>
       <use xlink:href="#Calibri-31" x="75.927734"/>
      </g>
     </g>
    </g>
    <g id="ytick_11">
     <g id="line2d_22">
      <g>
       <use xlink:href="#mdc8982ac87" x="374.4576" y="254.3616" style="stroke: #000000; stroke-width: 0.8"/>
      </g>
     </g>
     <g id="text_25">
      <!-- 0.2 -->
      <g transform="translate(381.4576 257.762381) scale(0.1 -0.1)">
       <use xlink:href="#Calibri-30"/>
       <use xlink:href="#Calibri-2e" x="50.683594"/>
       <use xlink:href="#Calibri-32" x="75.927734"/>
      </g>
     </g>
    </g>
    <g id="ytick_12">
     <g id="line2d_23">
      <g>
       <use xlink:href="#mdc8982ac87" x="374.4576" y="227.7504" style="stroke: #000000; stroke-width: 0.8"/>
      </g>
     </g>
     <g id="text_26">
      <!-- 0.3 -->
      <g transform="translate(381.4576 231.151181) scale(0.1 -0.1)">
       <use xlink:href="#Calibri-30"/>
       <use xlink:href="#Calibri-2e" x="50.683594"/>
       <use xlink:href="#Calibri-33" x="75.927734"/>
      </g>
     </g>
    </g>
    <g id="ytick_13">
     <g id="line2d_24">
      <g>
       <use xlink:href="#mdc8982ac87" x="374.4576" y="201.1392" style="stroke: #000000; stroke-width: 0.8"/>
      </g>
     </g>
     <g id="text_27">
      <!-- 0.4 -->
      <g transform="translate(381.4576 204.539981) scale(0.1 -0.1)">
       <use xlink:href="#Calibri-30"/>
       <use xlink:href="#Calibri-2e" x="50.683594"/>
       <use xlink:href="#Calibri-34" x="75.927734"/>
      </g>
     </g>
    </g>
    <g id="ytick_14">
     <g id="line2d_25">
      <g>
       <use xlink:href="#mdc8982ac87" x="374.4576" y="174.528" style="stroke: #000000; stroke-width: 0.8"/>
      </g>
     </g>
     <g id="text_28">
      <!-- 0.5 -->
      <g transform="translate(381.4576 177.928781) scale(0.1 -0.1)">
       <use xlink:href="#Calibri-30"/>
       <use xlink:href="#Calibri-2e" x="50.683594"/>
       <use xlink:href="#Calibri-35" x="75.927734"/>
      </g>
     </g>
    </g>
    <g id="ytick_15">
     <g id="line2d_26">
      <g>
       <use xlink:href="#mdc8982ac87" x="374.4576" y="147.9168" style="stroke: #000000; stroke-width: 0.8"/>
      </g>
     </g>
     <g id="text_29">
      <!-- 0.6 -->
      <g transform="translate(381.4576 151.317581) scale(0.1 -0.1)">
       <use xlink:href="#Calibri-30"/>
       <use xlink:href="#Calibri-2e" x="50.683594"/>
       <use xlink:href="#Calibri-36" x="75.927734"/>
      </g>
     </g>
    </g>
    <g id="ytick_16">
     <g id="line2d_27">
      <g>
       <use xlink:href="#mdc8982ac87" x="374.4576" y="121.3056" style="stroke: #000000; stroke-width: 0.8"/>
      </g>
     </g>
     <g id="text_30">
      <!-- 0.7 -->
      <g transform="translate(381.4576 124.706381) scale(0.1 -0.1)">
       <use xlink:href="#Calibri-30"/>
       <use xlink:href="#Calibri-2e" x="50.683594"/>
       <use xlink:href="#Calibri-37" x="75.927734"/>
      </g>
     </g>
    </g>
    <g id="ytick_17">
     <g id="line2d_28">
      <g>
       <use xlink:href="#mdc8982ac87" x="374.4576" y="94.6944" style="stroke: #000000; stroke-width: 0.8"/>
      </g>
     </g>
     <g id="text_31">
      <!-- 0.8 -->
      <g transform="translate(381.4576 98.095181) scale(0.1 -0.1)">
       <use xlink:href="#Calibri-30"/>
       <use xlink:href="#Calibri-2e" x="50.683594"/>
       <use xlink:href="#Calibri-38" x="75.927734"/>
      </g>
     </g>
    </g>
    <g id="ytick_18">
     <g id="line2d_29">
      <g>
       <use xlink:href="#mdc8982ac87" x="374.4576" y="68.0832" style="stroke: #000000; stroke-width: 0.8"/>
      </g>
     </g>
     <g id="text_32">
      <!-- 0.9 -->
      <g transform="translate(381.4576 71.483981) scale(0.1 -0.1)">
       <use xlink:href="#Calibri-30"/>
       <use xlink:href="#Calibri-2e" x="50.683594"/>
       <use xlink:href="#Calibri-39" x="75.927734"/>
      </g>
     </g>
    </g>
    <g id="ytick_19">
     <g id="line2d_30">
      <g>
       <use xlink:href="#mdc8982ac87" x="374.4576" y="41.472" style="stroke: #000000; stroke-width: 0.8"/>
      </g>
     </g>
     <g id="text_33">
      <!-- 1.0 -->
      <g transform="translate(381.4576 44.872781) scale(0.1 -0.1)">
       <use xlink:href="#Calibri-31"/>
       <use xlink:href="#Calibri-2e" x="50.683594"/>
       <use xlink:href="#Calibri-30" x="75.927734"/>
      </g>
     </g>
    </g>
   </g>
   <g id="LineCollection_1"/>
   <g id="patch_8">
    <path d="M 361.152 307.584 
L 367.8048 307.584 
L 374.4576 307.584 
L 374.4576 41.472 
L 367.8048 41.472 
L 361.152 41.472 
L 361.152 307.584 
z
" style="fill: none; stroke: #000000; stroke-width: 0.8; stroke-linejoin: miter; stroke-linecap: square"/>
   </g>
   <g id="text_34">
    <!-- $\mathit{E}_{\mathrm{dis}}$/$\mathit{E}_{\mathrm{i}}$ -->
    <g transform="translate(353.2548 35.472) scale(0.1 -0.1)">
     <defs>
      <path id="DejaVuSans-Oblique-45" d="M 1081 4666 
L 4031 4666 
L 3928 4134 
L 1606 4134 
L 1338 2753 
L 3566 2753 
L 3463 2222 
L 1234 2222 
L 909 531 
L 3284 531 
L 3181 0 
L 172 0 
L 1081 4666 
z
" transform="scale(0.015625)"/>
      <path id="DejaVuSans-64" d="M 2906 2969 
L 2906 4863 
L 3481 4863 
L 3481 0 
L 2906 0 
L 2906 525 
Q 2725 213 2448 61 
Q 2172 -91 1784 -91 
Q 1150 -91 751 415 
Q 353 922 353 1747 
Q 353 2572 751 3078 
Q 1150 3584 1784 3584 
Q 2172 3584 2448 3432 
Q 2725 3281 2906 2969 
z
M 947 1747 
Q 947 1113 1208 752 
Q 1469 391 1925 391 
Q 2381 391 2643 752 
Q 2906 1113 2906 1747 
Q 2906 2381 2643 2742 
Q 2381 3103 1925 3103 
Q 1469 3103 1208 2742 
Q 947 2381 947 1747 
z
" transform="scale(0.015625)"/>
      <path id="DejaVuSans-69" d="M 603 3500 
L 1178 3500 
L 1178 0 
L 603 0 
L 603 3500 
z
M 603 4863 
L 1178 4863 
L 1178 4134 
L 603 4134 
L 603 4863 
z
" transform="scale(0.015625)"/>
      <path id="DejaVuSans-73" d="M 2834 3397 
L 2834 2853 
Q 2591 2978 2328 3040 
Q 2066 3103 1784 3103 
Q 1356 3103 1142 2972 
Q 928 2841 928 2578 
Q 928 2378 1081 2264 
Q 1234 2150 1697 2047 
L 1894 2003 
Q 2506 1872 2764 1633 
Q 3022 1394 3022 966 
Q 3022 478 2636 193 
Q 2250 -91 1575 -91 
Q 1294 -91 989 -36 
Q 684 19 347 128 
L 347 722 
Q 666 556 975 473 
Q 1284 391 1588 391 
Q 1994 391 2212 530 
Q 2431 669 2431 922 
Q 2431 1156 2273 1281 
Q 2116 1406 1581 1522 
L 1381 1569 
Q 847 1681 609 1914 
Q 372 2147 372 2553 
Q 372 3047 722 3315 
Q 1072 3584 1716 3584 
Q 2034 3584 2315 3537 
Q 2597 3491 2834 3397 
z
" transform="scale(0.015625)"/>
     </defs>
     <use xlink:href="#DejaVuSans-Oblique-45" transform="translate(0 0.09375)"/>
     <use xlink:href="#DejaVuSans-64" transform="translate(63.183594 -16.3125) scale(0.7)"/>
     <use xlink:href="#DejaVuSans-69" transform="translate(107.617188 -16.3125) scale(0.7)"/>
     <use xlink:href="#DejaVuSans-73" transform="translate(127.06543 -16.3125) scale(0.7)"/>
     <use xlink:href="#Calibri-2f" transform="translate(166.269531 0.09375)"/>
     <use xlink:href="#DejaVuSans-Oblique-45" transform="translate(204.892578 0.09375)"/>
     <use xlink:href="#DejaVuSans-69" transform="translate(268.076172 -16.3125) scale(0.7)"/>
    </g>
   </g>
  </g>
 </g>
 <defs>
  <clipPath id="p4c0042728f">
   <rect x="57.6" y="41.472" width="285.696" height="266.112"/>
  </clipPath>
  <clipPath id="pc3b66f09e7">
   <rect x="361.152" y="41.472" width="13.3056" height="266.112"/>
  </clipPath>
 </defs>
</svg>
