<?xml version="1.0" encoding="utf-8" standalone="no"?>
<!DOCTYPE svg PUBLIC "-//W3C//DTD SVG 1.1//EN"
  "http://www.w3.org/Graphics/SVG/1.1/DTD/svg11.dtd">
<svg xmlns:xlink="http://www.w3.org/1999/xlink" width="460.8pt" height="345.6pt" viewBox="0 0 460.8 345.6" xmlns="http://www.w3.org/2000/svg" version="1.1">
 <metadata>
  <rdf:RDF xmlns:dc="http://purl.org/dc/elements/1.1/" xmlns:cc="http://creativecommons.org/ns#" xmlns:rdf="http://www.w3.org/1999/02/22-rdf-syntax-ns#">
   <cc:Work>
    <dc:type rdf:resource="http://purl.org/dc/dcmitype/StillImage"/>
    <dc:date>2024-01-22T08:53:52.021295</dc:date>
    <dc:format>image/svg+xml</dc:format>
    <dc:creator>
     <cc:Agent>
      <dc:title>Matplotlib v3.7.1, https://matplotlib.org/</dc:title>
     </cc:Agent>
    </dc:creator>
   </cc:Work>
  </rdf:RDF>
 </metadata>
 <defs>
  <style type="text/css">*{stroke-linejoin: round; stroke-linecap: butt}</style>
 </defs>
 <g id="figure_1">
  <g id="patch_1">
   <path d="M 0 345.6 
L 460.8 345.6 
L 460.8 0 
L 0 0 
z
" style="fill: #ffffff"/>
  </g>
  <g id="axes_1">
   <g id="patch_2">
    <path d="M 57.6 307.584 
L 343.296 307.584 
L 343.296 41.472 
L 57.6 41.472 
z
" style="fill: #ffffff"/>
   </g>
   <g id="PathCollection_1">
    <path clip-path="url(#pd4a53976ac)" style="fill: #0000b6"/>
   </g>
   <g id="PathCollection_2">
    <path clip-path="url(#pd4a53976ac)" style="fill: #0018ff"/>
   </g>
   <g id="PathCollection_3">
    <path clip-path="url(#pd4a53976ac)" style="fill: #0080ff"/>
   </g>
   <g id="PathCollection_4">
    <path clip-path="url(#pd4a53976ac)" style="fill: #00e4f8"/>
   </g>
   <g id="PathCollection_5">
    <path d="M 57.62857 87.230348 
L 58.069532 87.07894 
L 58.082688 87.074404 
L 58.1029 87.06732 
L 59.934149 86.422087 
L 60.383249 86.258096 
L 60.93193 86.064096 
L 61.712445 85.778933 
L 62.550678 85.481404 
L 63.655129 85.075109 
L 63.78306 85.02954 
L 64.637068 84.7152 
L 65.158602 84.521937 
L 65.373405 84.439529 
L 66.629595 83.970766 
L 66.934362 83.853375 
L 67.758776 83.54555 
L 69.060912 83.042172 
L 69.471533 82.887766 
L 70.220129 82.597199 
L 70.349496 82.548523 
L 70.825508 82.36308 
L 71.937595 81.927396 
L 73.295099 81.3888 
L 73.900919 81.147217 
L 74.053431 81.084994 
L 75.272028 80.590672 
L 75.575976 80.4685 
L 75.707227 80.41452 
L 76.312376 80.16669 
L 76.511387 80.082716 
L 78.068849 79.442163 
L 78.754006 79.150915 
L 79.137063 78.992766 
L 80.280984 78.506147 
L 80.622626 78.364488 
L 81.327486 78.0624 
L 81.956443 77.790874 
L 82.068968 77.740868 
L 83.16707 77.266438 
L 84.083581 76.857537 
L 84.770075 76.558684 
L 85.393724 76.279204 
L 85.70096 76.145346 
L 86.667929 75.71028 
L 87.32673 75.412058 
L 88.80319 74.736 
L 89.229545 74.539671 
L 89.34782 74.483979 
L 90.503165 73.943282 
L 90.796019 73.807254 
L 90.891877 73.76172 
L 91.538504 73.455959 
L 91.793299 73.332132 
L 93.239815 72.644944 
L 94.037397 72.254244 
L 94.331314 72.11403 
L 95.707858 71.439097 
L 95.730016 71.428476 
L 95.768207 71.4096 
L 97.117557 70.737486 
L 97.400022 70.592996 
L 98.209794 70.189254 
L 99.671842 69.438165 
L 99.896978 69.324996 
L 100.415188 69.05748 
L 101.182266 68.65646 
L 101.986192 68.236902 
L 102.276716 68.0832 
L 103.131884 67.629017 
L 103.33993 67.515086 
L 103.33993 64.7568 
L 103.33993 61.4304 
L 103.33993 58.104 
L 103.33993 54.7776 
L 103.33993 51.4512 
L 103.33993 48.1248 
L 103.33993 44.7984 
L 103.33993 41.472 
L 101.816218 41.472 
L 100.292506 41.472 
L 98.768794 41.472 
L 97.245082 41.472 
L 95.72137 41.472 
L 94.197658 41.472 
L 92.673946 41.472 
L 91.150234 41.472 
L 89.626522 41.472 
L 88.10281 41.472 
L 86.579098 41.472 
L 85.055386 41.472 
L 83.531674 41.472 
L 82.007962 41.472 
L 80.48425 41.472 
L 78.960538 41.472 
L 77.436826 41.472 
L 75.913114 41.472 
L 74.389402 41.472 
L 72.86569 41.472 
L 71.341978 41.472 
L 69.818266 41.472 
L 68.294554 41.472 
L 66.770842 41.472 
L 65.24713 41.472 
L 63.723418 41.472 
L 62.199706 41.472 
L 60.675994 41.472 
L 59.152282 41.472 
L 57.62857 41.472 
L 57.62857 44.7984 
L 57.62857 48.1248 
L 57.62857 51.4512 
L 57.62857 54.7776 
L 57.62857 58.104 
L 57.62857 61.4304 
L 57.62857 64.7568 
L 57.62857 68.0832 
L 57.62857 71.4096 
L 57.62857 74.736 
L 57.62857 78.0624 
L 57.62857 81.3888 
L 57.62857 84.7152 
" clip-path="url(#pd4a53976ac)" style="fill: #53ffa4"/>
   </g>
   <g id="PathCollection_6">
    <path d="M 103.33993 67.515086 
L 103.131884 67.629017 
L 102.276716 68.0832 
L 101.986192 68.236902 
L 101.182266 68.65646 
L 100.415188 69.05748 
L 99.896978 69.324996 
L 99.671842 69.438165 
L 98.209794 70.189254 
L 97.400022 70.592996 
L 97.117557 70.737486 
L 95.768207 71.4096 
L 95.730016 71.428476 
L 95.707858 71.439097 
L 94.331314 72.11403 
L 94.037397 72.254244 
L 93.239815 72.644944 
L 91.793299 73.332132 
L 91.538504 73.455959 
L 90.891877 73.76172 
L 90.796019 73.807254 
L 90.503165 73.943282 
L 89.34782 74.483979 
L 89.229545 74.539671 
L 88.80319 74.736 
L 87.32673 75.412058 
L 86.667929 75.71028 
L 85.70096 76.145346 
L 85.393724 76.279204 
L 84.770075 76.558684 
L 84.083581 76.857537 
L 83.16707 77.266438 
L 82.068968 77.740868 
L 81.956443 77.790874 
L 81.327486 78.0624 
L 80.622626 78.364488 
L 80.280984 78.506147 
L 79.137063 78.992766 
L 78.754006 79.150915 
L 78.068849 79.442163 
L 76.511387 80.082716 
L 76.312376 80.16669 
L 75.707227 80.41452 
L 75.575976 80.4685 
L 75.272028 80.590672 
L 74.053431 81.084994 
L 73.900919 81.147217 
L 73.295099 81.3888 
L 71.937595 81.927396 
L 70.825508 82.36308 
L 70.349496 82.548523 
L 70.220129 82.597199 
L 69.471533 82.887766 
L 69.060912 83.042172 
L 67.758776 83.54555 
L 66.934362 83.853375 
L 66.629595 83.970766 
L 65.373405 84.439529 
L 65.158602 84.521937 
L 64.637068 84.7152 
L 63.78306 85.02954 
L 63.655129 85.075109 
L 62.550678 85.481404 
L 61.712445 85.778933 
L 60.93193 86.064096 
L 60.383249 86.258096 
L 59.934149 86.422087 
L 58.1029 87.06732 
L 58.082688 87.074404 
L 58.069532 87.07894 
L 57.62857 87.230348 
L 57.62857 88.0416 
L 57.62857 91.368 
L 57.62857 94.6944 
L 57.62857 98.0208 
L 57.62857 101.3472 
L 57.62857 104.6736 
L 57.62857 108 
L 57.62857 111.3264 
L 57.62857 114.6528 
L 57.62857 117.9792 
L 57.62857 121.3056 
L 57.62857 124.632 
L 57.62857 127.9584 
L 57.62857 131.2848 
L 57.62857 134.6112 
L 57.62857 135.320949 
L 57.940855 135.292946 
L 58.454836 135.241876 
L 59.716851 135.121721 
L 60.109441 135.084572 
L 61.870784 134.908633 
L 62.465812 134.851831 
L 62.65078 134.834283 
L 64.877566 134.6112 
L 65.184944 134.580445 
L 65.210176 134.577785 
L 65.293773 134.569022 
L 67.717474 134.3258 
L 67.951551 134.301034 
L 68.727836 134.219398 
L 69.183128 134.171747 
L 70.687817 134.019665 
L 72.168956 133.863392 
L 72.75724 133.803999 
L 73.418816 133.733533 
L 74.331466 133.63692 
L 75.414119 133.521851 
L 75.490364 133.512876 
L 76.319123 133.424648 
L 76.464461 133.407559 
L 78.31861 133.209815 
L 78.601636 133.176369 
L 79.305179 133.101213 
L 79.672051 133.057903 
L 81.220538 132.892183 
L 81.714092 132.833622 
L 82.290115 132.771873 
L 82.882668 132.701638 
L 84.119817 132.56877 
L 84.827772 132.484425 
L 85.273893 132.436431 
L 86.096416 132.338537 
L 87.01636 132.239383 
L 87.942717 132.128558 
L 88.256474 132.094682 
L 89.313403 131.968366 
L 89.910074 131.903821 
L 91.058972 131.765791 
L 91.237818 131.74641 
L 92.533743 131.590875 
L 92.800863 131.561872 
L 94.176581 131.395882 
L 94.217882 131.391389 
L 95.10218 131.2848 
L 95.68879 131.213676 
L 95.758194 131.20441 
L 97.196559 131.029064 
L 97.296133 131.015736 
L 98.574243 130.86008 
L 98.988824 130.804455 
L 100.173833 130.659341 
L 100.417395 130.626577 
L 101.456479 130.499458 
L 102.223324 130.39605 
L 103.149678 130.28209 
L 103.33993 130.255053 
L 103.33993 127.9584 
L 103.33993 124.632 
L 103.33993 121.3056 
L 103.33993 117.9792 
L 103.33993 114.6528 
L 103.33993 111.3264 
L 103.33993 108 
L 103.33993 104.6736 
L 103.33993 101.3472 
L 103.33993 98.0208 
L 103.33993 94.6944 
L 103.33993 91.368 
L 103.33993 88.0416 
L 103.33993 84.7152 
L 103.33993 81.3888 
L 103.33993 78.0624 
L 103.33993 74.736 
L 103.33993 71.4096 
L 103.33993 68.0832 
" clip-path="url(#pd4a53976ac)" style="fill: #a4ff53"/>
   </g>
   <g id="PathCollection_7">
    <path d="M 103.33993 130.255053 
L 103.149678 130.28209 
L 102.223324 130.39605 
L 101.456479 130.499458 
L 100.417395 130.626577 
L 100.173833 130.659341 
L 98.988824 130.804455 
L 98.574243 130.86008 
L 97.296133 131.015736 
L 97.196559 131.029064 
L 95.758194 131.20441 
L 95.68879 131.213676 
L 95.10218 131.2848 
L 94.217882 131.391389 
L 94.176581 131.395882 
L 92.800863 131.561872 
L 92.533743 131.590875 
L 91.237818 131.74641 
L 91.058972 131.765791 
L 89.910074 131.903821 
L 89.313403 131.968366 
L 88.256474 132.094682 
L 87.942717 132.128558 
L 87.01636 132.239383 
L 86.096416 132.338537 
L 85.273893 132.436431 
L 84.827772 132.484425 
L 84.119817 132.56877 
L 82.882668 132.701638 
L 82.290115 132.771873 
L 81.714092 132.833622 
L 81.220538 132.892183 
L 79.672051 133.057903 
L 79.305179 133.101213 
L 78.601636 133.176369 
L 78.31861 133.209815 
L 76.464461 133.407559 
L 76.319123 133.424648 
L 75.490364 133.512876 
L 75.414119 133.521851 
L 74.331466 133.63692 
L 73.418816 133.733533 
L 72.75724 133.803999 
L 72.168956 133.863392 
L 70.687817 134.019665 
L 69.183128 134.171747 
L 68.727836 134.219398 
L 67.951551 134.301034 
L 67.717474 134.3258 
L 65.293773 134.569022 
L 65.210176 134.577785 
L 65.184944 134.580445 
L 64.877566 134.6112 
L 62.65078 134.834283 
L 62.465812 134.851831 
L 61.870784 134.908633 
L 60.109441 135.084572 
L 59.716851 135.121721 
L 58.454836 135.241876 
L 57.940855 135.292946 
L 57.62857 135.320949 
L 57.62857 137.9376 
L 57.62857 141.264 
L 57.62857 144.5904 
L 57.62857 147.9168 
L 57.62857 151.2432 
L 57.62857 154.5696 
L 57.62857 157.896 
L 57.62857 161.2224 
L 57.62857 164.5488 
L 57.62857 167.8752 
L 57.62857 171.2016 
L 57.62857 174.528 
L 57.62857 177.8544 
L 57.62857 179.200384 
L 57.888715 179.225483 
L 58.500507 179.277283 
L 59.862966 179.405888 
L 60.373336 179.449538 
L 60.989772 179.50815 
L 61.425039 179.545566 
L 63.045467 179.700773 
L 63.367781 179.728762 
L 64.092318 179.79867 
L 64.346368 179.820844 
L 66.231842 180.004116 
L 66.360803 180.015487 
L 67.196406 180.097311 
L 67.264391 180.103337 
L 68.310304 180.20652 
L 69.26775 180.300773 
L 69.93998 180.367039 
L 70.50684 180.425614 
L 72.010924 180.575895 
L 72.47185 180.622011 
L 73.941938 180.776174 
L 74.746613 180.857786 
L 77.339695 181.132763 
L 77.389351 181.13787 
L 77.474594 181.146647 
L 77.500485 181.149317 
L 77.791887 181.1808 
L 80.003607 181.418506 
L 80.197291 181.440287 
L 80.852825 181.51409 
L 81.248267 181.558652 
L 82.912295 181.740883 
L 84.330248 181.902923 
L 85.190848 182.00136 
L 85.619018 182.048966 
L 86.533708 182.15508 
L 87.600003 182.278472 
L 87.6819 182.288821 
L 88.505498 182.384851 
L 88.663536 182.404915 
L 90.491156 182.619626 
L 90.799596 182.659184 
L 91.485466 182.740376 
L 91.888407 182.792299 
L 93.378088 182.969994 
L 93.919362 183.040459 
L 94.463542 183.105871 
L 95.118725 183.191572 
L 96.260654 183.329895 
L 97.041278 183.433063 
L 97.439658 183.481695 
L 98.354706 183.603211 
L 99.1387 183.699661 
L 100.165426 183.837436 
L 100.413743 183.868225 
L 101.596583 184.027718 
L 102.012069 184.079639 
L 103.291895 184.254039 
L 103.33993 184.259881 
L 103.33993 181.1808 
L 103.33993 177.8544 
L 103.33993 174.528 
L 103.33993 171.2016 
L 103.33993 167.8752 
L 103.33993 164.5488 
L 103.33993 161.2224 
L 103.33993 157.896 
L 103.33993 154.5696 
L 103.33993 151.2432 
L 103.33993 147.9168 
L 103.33993 144.5904 
L 103.33993 141.264 
L 103.33993 137.9376 
L 103.33993 134.6112 
L 103.33993 131.2848 
" clip-path="url(#pd4a53976ac)" style="fill: #f8f500"/>
   </g>
   <g id="PathCollection_8">
    <path d="M 103.33993 184.259881 
L 103.291895 184.254039 
L 102.012069 184.079639 
L 101.596583 184.027718 
L 100.413743 183.868225 
L 100.165426 183.837436 
L 99.1387 183.699661 
L 98.354706 183.603211 
L 97.439658 183.481695 
L 97.041278 183.433063 
L 96.260654 183.329895 
L 95.118725 183.191572 
L 94.463542 183.105871 
L 93.919362 183.040459 
L 93.378088 182.969994 
L 91.888407 182.792299 
L 91.485466 182.740376 
L 90.799596 182.659184 
L 90.491156 182.619626 
L 88.663536 182.404915 
L 88.505498 182.384851 
L 87.6819 182.288821 
L 87.600003 182.278472 
L 86.533708 182.15508 
L 85.619018 182.048966 
L 85.190848 182.00136 
L 84.330248 181.902923 
L 82.912295 181.740883 
L 81.248267 181.558652 
L 80.852825 181.51409 
L 80.197291 181.440287 
L 80.003607 181.418506 
L 77.791887 181.1808 
L 77.500485 181.149317 
L 77.474594 181.146647 
L 77.389351 181.13787 
L 77.339695 181.132763 
L 74.746613 180.857786 
L 73.941938 180.776174 
L 72.47185 180.622011 
L 72.010924 180.575895 
L 70.50684 180.425614 
L 69.93998 180.367039 
L 69.26775 180.300773 
L 68.310304 180.20652 
L 67.264391 180.103337 
L 67.196406 180.097311 
L 66.360803 180.015487 
L 66.231842 180.004116 
L 64.346368 179.820844 
L 64.092318 179.79867 
L 63.367781 179.728762 
L 63.045467 179.700773 
L 61.425039 179.545566 
L 60.989772 179.50815 
L 60.373336 179.449538 
L 59.862966 179.405888 
L 58.500507 179.277283 
L 57.888715 179.225483 
L 57.62857 179.200384 
L 57.62857 181.1808 
L 57.62857 184.5072 
L 57.62857 187.8336 
L 57.62857 191.16 
L 57.62857 194.4864 
L 57.62857 197.8128 
L 57.62857 201.1392 
L 57.62857 204.4656 
L 57.62857 207.792 
L 57.62857 211.1184 
L 57.62857 214.4448 
L 57.62857 217.7712 
L 57.62857 221.078683 
L 57.636398 221.08051 
L 57.708522 221.0976 
L 58.852503 221.368679 
L 59.669839 221.565609 
L 60.737886 221.820556 
L 61.259754 221.947566 
L 61.770336 222.07188 
L 63.125943 222.401942 
L 63.350491 222.458512 
L 64.063244 222.632963 
L 64.474305 222.736856 
L 65.863398 223.078632 
L 66.54868 223.253108 
L 66.973086 223.358084 
L 67.916704 223.59912 
L 68.595128 223.76782 
L 69.750161 224.065058 
L 69.880202 224.097568 
L 71.144494 224.424 
L 71.321095 224.469588 
L 71.368675 224.482283 
L 72.784757 224.850553 
L 72.955303 224.8963 
L 74.04305 225.180116 
L 74.833393 225.393272 
L 75.686647 225.61758 
L 76.164148 225.747064 
L 76.758915 225.903941 
L 78.308247 226.32639 
L 78.585597 226.400102 
L 79.376628 226.616979 
L 79.468497 226.641478 
L 79.956861 226.77612 
L 81.186839 227.115073 
L 83.455735 227.7504 
L 83.513682 227.766669 
L 83.566245 227.781661 
L 83.633934 227.800974 
L 85.832813 228.42524 
L 86.870915 228.72468 
L 87.56488 228.924748 
L 87.702237 228.965606 
L 88.461609 229.185766 
L 88.807613 229.289049 
L 90.252465 229.71031 
L 90.929614 229.914038 
L 91.347598 230.036601 
L 92.333871 230.334387 
L 92.933077 230.511094 
L 94.161244 230.884885 
L 94.230191 230.905335 
L 94.791555 231.0768 
L 95.60734 231.325737 
L 95.873797 231.409564 
L 97.109808 231.789753 
L 97.397636 231.88083 
L 98.276254 232.152058 
L 99.429473 232.519123 
L 99.985983 232.692311 
L 100.638679 232.901288 
L 100.9377 232.994683 
L 102.285886 233.42892 
L 102.734131 233.573162 
L 102.999407 233.659808 
L 103.33993 233.769637 
L 103.33993 231.0768 
L 103.33993 227.7504 
L 103.33993 224.424 
L 103.33993 221.0976 
L 103.33993 217.7712 
L 103.33993 214.4448 
L 103.33993 211.1184 
L 103.33993 207.792 
L 103.33993 204.4656 
L 103.33993 201.1392 
L 103.33993 197.8128 
L 103.33993 194.4864 
L 103.33993 191.16 
L 103.33993 187.8336 
L 103.33993 184.5072 
" clip-path="url(#pd4a53976ac)" style="fill: #ff9400"/>
   </g>
   <g id="PathCollection_9">
    <path d="M 103.33993 233.769637 
L 102.999407 233.659808 
L 102.734131 233.573162 
L 102.285886 233.42892 
L 100.9377 232.994683 
L 100.638679 232.901288 
L 99.985983 232.692311 
L 99.429473 232.519123 
L 98.276254 232.152058 
L 97.397636 231.88083 
L 97.109808 231.789753 
L 95.873797 231.409564 
L 95.60734 231.325737 
L 94.791555 231.0768 
L 94.230191 230.905335 
L 94.161244 230.884885 
L 92.933077 230.511094 
L 92.333871 230.334387 
L 91.347598 230.036601 
L 90.929614 229.914038 
L 90.252465 229.71031 
L 88.807613 229.289049 
L 88.461609 229.185766 
L 87.702237 228.965606 
L 87.56488 228.924748 
L 86.870915 228.72468 
L 85.832813 228.42524 
L 83.633934 227.800974 
L 83.566245 227.781661 
L 83.513682 227.766669 
L 83.455735 227.7504 
L 81.186839 227.115073 
L 79.956861 226.77612 
L 79.468497 226.641478 
L 79.376628 226.616979 
L 78.585597 226.400102 
L 78.308247 226.32639 
L 76.758915 225.903941 
L 76.164148 225.747064 
L 75.686647 225.61758 
L 74.833393 225.393272 
L 74.04305 225.180116 
L 72.955303 224.8963 
L 72.784757 224.850553 
L 71.368675 224.482283 
L 71.321095 224.469588 
L 71.144494 224.424 
L 69.880202 224.097568 
L 69.750161 224.065058 
L 68.595128 223.76782 
L 67.916704 223.59912 
L 66.973086 223.358084 
L 66.54868 223.253108 
L 65.863398 223.078632 
L 64.474305 222.736856 
L 64.063244 222.632963 
L 63.350491 222.458512 
L 63.125943 222.401942 
L 61.770336 222.07188 
L 61.259754 221.947566 
L 60.737886 221.820556 
L 59.669839 221.565609 
L 58.852503 221.368679 
L 57.708522 221.0976 
L 57.636398 221.08051 
L 57.62857 221.078683 
L 57.62857 221.0976 
L 57.62857 224.424 
L 57.62857 227.7504 
L 57.62857 231.0768 
L 57.62857 234.4032 
L 57.62857 237.7296 
L 57.62857 241.056 
L 57.62857 244.3824 
L 57.62857 247.7088 
L 57.62857 251.0352 
L 57.62857 254.3616 
L 57.62857 257.688 
L 57.62857 261.0144 
L 57.62857 263.176901 
L 57.835493 263.250223 
L 58.816606 263.607989 
L 59.392774 263.815783 
L 60.664914 264.282406 
L 60.685648 264.289917 
L 60.823926 264.3408 
L 62.000577 264.775516 
L 62.481576 264.956149 
L 63.532561 265.3467 
L 63.943701 265.501794 
L 64.602775 265.747484 
L 66.162209 266.3385 
L 66.376553 266.418876 
L 67.096342 266.69292 
L 67.164593 266.718901 
L 67.305934 266.773225 
L 68.694405 267.305628 
L 69.628255 267.6672 
L 70.827204 268.132692 
L 72.12506 268.64148 
L 72.374503 268.739504 
L 72.443207 268.766931 
L 73.229285 269.077292 
L 73.575044 269.215783 
L 74.953342 269.762468 
L 75.739646 270.07935 
L 76.062191 270.207895 
L 77.307613 270.711518 
L 77.525987 270.798953 
L 78.004351 270.9936 
L 78.891787 271.355946 
L 79.041013 271.41774 
L 80.092616 271.848572 
L 81.060355 272.25129 
L 81.717901 272.522346 
L 82.348013 272.785823 
L 82.652941 272.911953 
L 83.685122 273.34572 
L 84.315536 273.61118 
L 84.665911 273.759053 
L 85.98261 274.32 
L 86.388017 274.492788 
L 87.11721 274.806597 
L 87.933546 275.157277 
L 88.249482 275.29428 
L 88.52633 275.414261 
L 88.623635 275.457008 
L 90.295837 276.185225 
L 90.925847 276.46378 
L 91.340209 276.645144 
L 92.438576 277.132568 
L 92.830375 277.3049 
L 93.594902 277.6464 
L 94.150435 277.895283 
L 94.253783 277.942207 
L 95.358364 278.438875 
L 96.276291 278.857843 
L 96.956792 279.165817 
L 97.588343 279.455542 
L 97.879504 279.5878 
L 98.770038 279.99852 
L 99.482345 280.32756 
L 99.787596 280.468942 
L 100.865503 280.9728 
L 101.354736 281.20103 
L 101.492242 281.26576 
L 102.847868 281.905686 
L 102.901113 281.930775 
L 103.33993 282.140528 
L 103.33993 280.9728 
L 103.33993 277.6464 
L 103.33993 274.32 
L 103.33993 270.9936 
L 103.33993 267.6672 
L 103.33993 264.3408 
L 103.33993 261.0144 
L 103.33993 257.688 
L 103.33993 254.3616 
L 103.33993 251.0352 
L 103.33993 247.7088 
L 103.33993 244.3824 
L 103.33993 241.056 
L 103.33993 237.7296 
L 103.33993 234.4032 
" clip-path="url(#pd4a53976ac)" style="fill: #ff3800"/>
   </g>
   <g id="PathCollection_10">
    <path d="M 103.33993 282.140528 
L 102.901113 281.930775 
L 102.847868 281.905686 
L 101.492242 281.26576 
L 101.354736 281.20103 
L 100.865503 280.9728 
L 99.787596 280.468942 
L 99.482345 280.32756 
L 98.770038 279.99852 
L 97.879504 279.5878 
L 97.588343 279.455542 
L 96.956792 279.165817 
L 96.276291 278.857843 
L 95.358364 278.438875 
L 94.253783 277.942207 
L 94.150435 277.895283 
L 93.594902 277.6464 
L 92.830375 277.3049 
L 92.438576 277.132568 
L 91.340209 276.645144 
L 90.925847 276.46378 
L 90.295837 276.185225 
L 88.623635 275.457008 
L 88.52633 275.414261 
L 88.249482 275.29428 
L 87.933546 275.157277 
L 87.11721 274.806597 
L 86.388017 274.492788 
L 85.98261 274.32 
L 84.665911 273.759053 
L 84.315536 273.61118 
L 83.685122 273.34572 
L 82.652941 272.911953 
L 82.348013 272.785823 
L 81.717901 272.522346 
L 81.060355 272.25129 
L 80.092616 271.848572 
L 79.041013 271.41774 
L 78.891787 271.355946 
L 78.004351 270.9936 
L 77.525987 270.798953 
L 77.307613 270.711518 
L 76.062191 270.207895 
L 75.739646 270.07935 
L 74.953342 269.762468 
L 73.575044 269.215783 
L 73.229285 269.077292 
L 72.443207 268.766931 
L 72.374503 268.739504 
L 72.12506 268.64148 
L 70.827204 268.132692 
L 69.628255 267.6672 
L 68.694405 267.305628 
L 67.305934 266.773225 
L 67.164593 266.718901 
L 67.096342 266.69292 
L 66.376553 266.418876 
L 66.162209 266.3385 
L 64.602775 265.747484 
L 63.943701 265.501794 
L 63.532561 265.3467 
L 62.481576 264.956149 
L 62.000577 264.775516 
L 60.823926 264.3408 
L 60.685648 264.289917 
L 60.664914 264.282406 
L 59.392774 263.815783 
L 58.816606 263.607989 
L 57.835493 263.250223 
L 57.62857 263.176901 
L 57.62857 264.3408 
L 57.62857 267.6672 
L 57.62857 270.9936 
L 57.62857 274.32 
L 57.62857 277.6464 
L 57.62857 280.9728 
L 57.62857 284.2992 
L 57.62857 287.6256 
L 57.62857 290.952 
L 57.62857 294.2784 
L 57.62857 297.6048 
L 57.62857 300.9312 
L 57.62857 304.2576 
L 57.62857 307.584 
L 59.152282 307.584 
L 60.675994 307.584 
L 62.199706 307.584 
L 63.723418 307.584 
L 65.24713 307.584 
L 66.770842 307.584 
L 68.294554 307.584 
L 69.818266 307.584 
L 71.341978 307.584 
L 72.86569 307.584 
L 74.389402 307.584 
L 75.913114 307.584 
L 77.436826 307.584 
L 78.960538 307.584 
L 80.48425 307.584 
L 82.007962 307.584 
L 83.531674 307.584 
L 85.055386 307.584 
L 86.579098 307.584 
L 88.10281 307.584 
L 89.626522 307.584 
L 91.150234 307.584 
L 92.673946 307.584 
L 94.197658 307.584 
L 95.72137 307.584 
L 97.245082 307.584 
L 98.768794 307.584 
L 100.292506 307.584 
L 101.816218 307.584 
L 103.33993 307.584 
L 103.33993 304.2576 
L 103.33993 300.9312 
L 103.33993 297.6048 
L 103.33993 294.2784 
L 103.33993 290.952 
L 103.33993 287.6256 
L 103.33993 284.2992 
" clip-path="url(#pd4a53976ac)" style="fill: #b60000"/>
   </g>
   <g id="PathCollection_11">
    <path clip-path="url(#pd4a53976ac)" style="fill: #0000b6"/>
   </g>
   <g id="PathCollection_12">
    <path clip-path="url(#pd4a53976ac)" style="fill: #0018ff"/>
   </g>
   <g id="PathCollection_13">
    <path clip-path="url(#pd4a53976ac)" style="fill: #0080ff"/>
   </g>
   <g id="PathCollection_14">
    <path clip-path="url(#pd4a53976ac)" style="fill: #00e4f8"/>
   </g>
   <g id="PathCollection_15">
    <path d="M 100.4544 69.024952 
L 100.756661 68.882848 
L 102.291462 68.0832 
L 106.500398 65.838158 
L 113.453099 61.81088 
L 113.807434 61.599579 
L 117.775575 59.2128 
L 119.74168 57.972328 
L 120.639188 57.352071 
L 121.76671 56.61472 
L 127.147218 52.981869 
L 130.77329 50.3424 
L 132.379286 49.141333 
L 133.6734 48.119816 
L 136.769305 45.785196 
L 138.886958 44.07008 
L 141.609215 41.781207 
L 141.967154 41.472 
L 140.928 41.472 
L 132.83328 41.472 
L 124.73856 41.472 
L 116.64384 41.472 
L 108.54912 41.472 
L 100.4544 41.472 
L 100.4544 50.3424 
L 100.4544 59.2128 
L 100.4544 68.0832 
" clip-path="url(#pd4a53976ac)" style="fill: #53ffa4"/>
   </g>
   <g id="PathCollection_16">
    <path d="M 141.967154 41.472 
L 141.609215 41.781207 
L 138.886958 44.07008 
L 136.769305 45.785196 
L 133.6734 48.119816 
L 132.379286 49.141333 
L 130.77329 50.3424 
L 127.147218 52.981869 
L 121.76671 56.61472 
L 120.639188 57.352071 
L 119.74168 57.972328 
L 117.775575 59.2128 
L 113.807434 61.599579 
L 113.453099 61.81088 
L 106.500398 65.838158 
L 102.291462 68.0832 
L 100.756661 68.882848 
L 100.4544 69.024952 
L 100.4544 76.9536 
L 100.4544 85.824 
L 100.4544 94.6944 
L 100.4544 103.5648 
L 100.4544 112.4352 
L 100.4544 121.3056 
L 100.4544 130.176 
L 100.4544 130.619723 
L 100.8241 130.581126 
L 104.007733 130.176 
L 107.547646 129.721425 
L 110.477569 129.300666 
L 117.50263 128.379685 
L 119.950824 128.002819 
L 122.819851 127.57792 
L 129.53842 126.565409 
L 130.945999 126.298508 
L 134.514053 125.75218 
L 137.363579 125.211583 
L 143.603554 124.23754 
L 148.262728 123.316202 
L 149.696599 123.088384 
L 156.768582 121.687887 
L 157.376275 121.589238 
L 158.744968 121.3056 
L 164.732532 120.036716 
L 165.793889 119.766603 
L 170.91007 118.679115 
L 177.205129 117.0338 
L 179.58561 116.501295 
L 183.630285 115.409486 
L 184.033176 115.318948 
L 185.059874 115.03328 
L 191.298868 113.253387 
L 192.010981 113.059463 
L 193.982571 112.4352 
L 199.134859 110.808943 
L 200.775089 110.206218 
L 201.830965 109.83712 
L 209.043468 107.244262 
L 213.032807 105.542812 
L 214.342878 105.052657 
L 217.778588 103.5648 
L 220.691203 102.267346 
L 225.20204 99.919164 
L 228.068029 98.533239 
L 230.320754 97.29248 
L 232.256135 96.136357 
L 234.823336 94.6944 
L 235.779154 94.12703 
L 236.188512 93.842815 
L 238.877694 92.09632 
L 241.916583 90.045057 
L 245.663014 87.137112 
L 246.444151 86.57743 
L 247.387471 85.824 
L 251.3032 82.590351 
L 254.522071 79.55168 
L 256.235887 77.853154 
L 256.58743 77.532852 
L 257.124467 76.9536 
L 259.103604 74.752373 
L 259.490185 74.35552 
L 259.735818 74.090227 
L 260.370866 73.315937 
L 263.11888 70.120491 
L 264.725778 68.0832 
L 267.322472 64.663076 
L 269.242939 61.81088 
L 270.782432 59.366634 
L 270.82442 59.307358 
L 270.879966 59.2128 
L 271.024658 58.949018 
L 272.501173 56.61472 
L 273.940995 54.175022 
L 275.960665 50.3424 
L 277.434097 47.421326 
L 279.012832 44.07008 
L 279.644763 42.684556 
L 280.186718 41.472 
L 278.53824 41.472 
L 270.44352 41.472 
L 262.3488 41.472 
L 254.25408 41.472 
L 246.15936 41.472 
L 238.06464 41.472 
L 229.96992 41.472 
L 221.8752 41.472 
L 213.78048 41.472 
L 205.68576 41.472 
L 197.59104 41.472 
L 189.49632 41.472 
L 181.4016 41.472 
L 173.30688 41.472 
L 165.21216 41.472 
L 157.11744 41.472 
L 149.02272 41.472 
" clip-path="url(#pd4a53976ac)" style="fill: #a4ff53"/>
   </g>
   <g id="PathCollection_17">
    <path d="M 280.186718 41.472 
L 279.644763 42.684556 
L 279.012832 44.07008 
L 277.434097 47.421326 
L 275.960665 50.3424 
L 273.940995 54.175022 
L 272.501173 56.61472 
L 271.024658 58.949018 
L 270.879966 59.2128 
L 270.82442 59.307358 
L 270.782432 59.366634 
L 269.242939 61.81088 
L 267.322472 64.663076 
L 264.725778 68.0832 
L 263.11888 70.120491 
L 260.370866 73.315937 
L 259.735818 74.090227 
L 259.490185 74.35552 
L 259.103604 74.752373 
L 257.124467 76.9536 
L 256.58743 77.532852 
L 256.235887 77.853154 
L 254.522071 79.55168 
L 251.3032 82.590351 
L 247.387471 85.824 
L 246.444151 86.57743 
L 245.663014 87.137112 
L 241.916583 90.045057 
L 238.877694 92.09632 
L 236.188512 93.842815 
L 235.779154 94.12703 
L 234.823336 94.6944 
L 232.256135 96.136357 
L 230.320754 97.29248 
L 228.068029 98.533239 
L 225.20204 99.919164 
L 220.691203 102.267346 
L 217.778588 103.5648 
L 214.342878 105.052657 
L 213.032807 105.542812 
L 209.043468 107.244262 
L 201.830965 109.83712 
L 200.775089 110.206218 
L 199.134859 110.808943 
L 193.982571 112.4352 
L 192.010981 113.059463 
L 191.298868 113.253387 
L 185.059874 115.03328 
L 184.033176 115.318948 
L 183.630285 115.409486 
L 179.58561 116.501295 
L 177.205129 117.0338 
L 170.91007 118.679115 
L 165.793889 119.766603 
L 164.732532 120.036716 
L 158.744968 121.3056 
L 157.376275 121.589238 
L 156.768582 121.687887 
L 149.696599 123.088384 
L 148.262728 123.316202 
L 143.603554 124.23754 
L 137.363579 125.211583 
L 134.514053 125.75218 
L 130.945999 126.298508 
L 129.53842 126.565409 
L 122.819851 127.57792 
L 119.950824 128.002819 
L 117.50263 128.379685 
L 110.477569 129.300666 
L 107.547646 129.721425 
L 104.007733 130.176 
L 100.8241 130.581126 
L 100.4544 130.619723 
L 100.4544 139.0464 
L 100.4544 147.9168 
L 100.4544 156.7872 
L 100.4544 165.6576 
L 100.4544 174.528 
L 100.4544 183.3984 
L 100.4544 183.872218 
L 100.953127 183.944918 
L 105.913125 184.594893 
L 113.70659 185.739405 
L 114.733462 185.882158 
L 115.452456 185.99648 
L 118.821423 186.50788 
L 119.614074 186.653258 
L 128.569061 188.07124 
L 131.45893 188.632878 
L 134.045848 189.060882 
L 138.880961 190.025603 
L 142.416662 190.637486 
L 148.928663 192.019967 
L 149.104709 192.051895 
L 150.098094 192.2688 
L 155.965315 193.531328 
L 158.975494 194.304902 
L 164.005594 195.460839 
L 166.692367 196.184771 
L 169.193068 196.77682 
L 175.42396 198.54112 
L 177.655355 199.165402 
L 184.095467 201.1392 
L 187.291788 202.13985 
L 191.954184 203.73728 
L 194.449797 204.581454 
L 195.729696 205.08531 
L 199.009226 206.25771 
L 204.185045 208.365078 
L 206.415364 209.210081 
L 208.220679 210.0096 
L 212.996435 212.083834 
L 214.920914 213.026682 
L 217.897468 214.3685 
L 221.557441 216.28192 
L 224.387814 217.73951 
L 225.063438 218.088522 
L 226.412106 218.88 
L 229.804372 220.848411 
L 230.943979 221.47808 
L 232.088633 222.145224 
L 234.203648 223.519427 
L 239.116204 226.598069 
L 240.710103 227.7504 
L 245.010182 230.790616 
L 248.279955 233.360554 
L 248.789439 233.738692 
L 249.120961 234.02272 
L 249.813579 234.605231 
L 252.269838 236.6208 
L 252.752713 236.993513 
L 252.983564 237.197494 
L 255.251258 239.21888 
L 257.879721 241.518131 
L 261.835172 245.4912 
L 262.209894 245.858684 
L 262.680042 246.36752 
L 266.253798 250.082404 
L 267.653135 251.76352 
L 269.500954 253.933764 
L 269.708424 254.179113 
L 269.878504 254.3616 
L 270.042921 254.543434 
L 271.992373 256.95968 
L 273.97594 259.361084 
L 276.741671 263.232 
L 277.927352 264.848139 
L 280.76044 269.110955 
L 280.977537 269.429356 
L 281.021128 269.50432 
L 281.06299 269.574159 
L 282.650543 272.1024 
L 283.23942 272.944844 
L 283.56265 273.496031 
L 284.244178 274.70048 
L 287.411006 280.120198 
L 287.832924 280.9728 
L 289.354168 283.954769 
L 291.098536 287.24512 
L 291.349907 287.70215 
L 292.341367 289.8432 
L 293.490776 292.159769 
L 293.602331 292.44128 
L 295.522247 296.611529 
L 296.390219 298.7136 
L 298.440299 303.515617 
L 298.957618 304.98592 
L 299.335909 306.001462 
L 299.967116 307.584 
L 302.8224 307.584 
L 310.91712 307.584 
L 319.01184 307.584 
L 327.10656 307.584 
L 335.20128 307.584 
L 343.296 307.584 
L 343.296 298.7136 
L 343.296 289.8432 
L 343.296 280.9728 
L 343.296 272.1024 
L 343.296 263.232 
L 343.296 254.3616 
L 343.296 245.4912 
L 343.296 236.6208 
L 343.296 227.7504 
L 343.296 218.88 
L 343.296 210.0096 
L 343.296 201.1392 
L 343.296 192.2688 
L 343.296 183.3984 
L 343.296 174.528 
L 343.296 165.6576 
L 343.296 156.7872 
L 343.296 147.9168 
L 343.296 139.0464 
L 343.296 130.176 
L 343.296 121.3056 
L 343.296 112.4352 
L 343.296 103.5648 
L 343.296 94.6944 
L 343.296 85.824 
L 343.296 76.9536 
L 343.296 68.0832 
L 343.296 59.2128 
L 343.296 50.3424 
L 343.296 41.472 
L 335.20128 41.472 
L 327.10656 41.472 
L 319.01184 41.472 
L 310.91712 41.472 
L 302.8224 41.472 
L 294.72768 41.472 
L 286.63296 41.472 
" clip-path="url(#pd4a53976ac)" style="fill: #f8f500"/>
   </g>
   <g id="PathCollection_18">
    <path d="M 299.967116 307.584 
L 299.335909 306.001462 
L 298.957618 304.98592 
L 298.440299 303.515617 
L 296.390219 298.7136 
L 295.522247 296.611529 
L 293.602331 292.44128 
L 293.490776 292.159769 
L 292.341367 289.8432 
L 291.349907 287.70215 
L 291.098536 287.24512 
L 289.354168 283.954769 
L 287.832924 280.9728 
L 287.411006 280.120198 
L 284.244178 274.70048 
L 283.56265 273.496031 
L 283.23942 272.944844 
L 282.650543 272.1024 
L 281.06299 269.574159 
L 281.021128 269.50432 
L 280.977537 269.429356 
L 280.76044 269.110955 
L 277.927352 264.848139 
L 276.741671 263.232 
L 273.97594 259.361084 
L 271.992373 256.95968 
L 270.042921 254.543434 
L 269.878504 254.3616 
L 269.708424 254.179113 
L 269.500954 253.933764 
L 267.653135 251.76352 
L 266.253798 250.082404 
L 262.680042 246.36752 
L 262.209894 245.858684 
L 261.835172 245.4912 
L 257.879721 241.518131 
L 255.251258 239.21888 
L 252.983564 237.197494 
L 252.752713 236.993513 
L 252.269838 236.6208 
L 249.813579 234.605231 
L 249.120961 234.02272 
L 248.789439 233.738692 
L 248.279955 233.360554 
L 245.010182 230.790616 
L 240.710103 227.7504 
L 239.116204 226.598069 
L 234.203648 223.519427 
L 232.088633 222.145224 
L 230.943979 221.47808 
L 229.804372 220.848411 
L 226.412106 218.88 
L 225.063438 218.088522 
L 224.387814 217.73951 
L 221.557441 216.28192 
L 217.897468 214.3685 
L 214.920914 213.026682 
L 212.996435 212.083834 
L 208.220679 210.0096 
L 206.415364 209.210081 
L 204.185045 208.365078 
L 199.009226 206.25771 
L 195.729696 205.08531 
L 194.449797 204.581454 
L 191.954184 203.73728 
L 187.291788 202.13985 
L 184.095467 201.1392 
L 177.655355 199.165402 
L 175.42396 198.54112 
L 169.193068 196.77682 
L 166.692367 196.184771 
L 164.005594 195.460839 
L 158.975494 194.304902 
L 155.965315 193.531328 
L 150.098094 192.2688 
L 149.104709 192.051895 
L 148.928663 192.019967 
L 142.416662 190.637486 
L 138.880961 190.025603 
L 134.045848 189.060882 
L 131.45893 188.632878 
L 128.569061 188.07124 
L 119.614074 186.653258 
L 118.821423 186.50788 
L 115.452456 185.99648 
L 114.733462 185.882158 
L 113.70659 185.739405 
L 105.913125 184.594893 
L 100.953127 183.944918 
L 100.4544 183.872218 
L 100.4544 192.2688 
L 100.4544 201.1392 
L 100.4544 210.0096 
L 100.4544 218.88 
L 100.4544 227.7504 
L 100.4544 232.837497 
L 102.645909 233.54816 
L 103.125691 233.693531 
L 104.112981 234.02272 
L 109.979898 235.971362 
L 111.831891 236.6208 
L 117.196067 238.493219 
L 119.071522 239.193101 
L 119.14021 239.21888 
L 127.584492 242.372556 
L 132.395046 244.331826 
L 133.159723 244.627576 
L 135.232531 245.4912 
L 139.366129 247.202737 
L 144.667173 249.588681 
L 147.077342 250.637807 
L 149.486284 251.76352 
L 152.487379 253.212191 
L 154.919421 254.3616 
L 155.990643 254.87306 
L 160.119241 256.95968 
L 161.986792 257.89604 
L 163.507409 258.721986 
L 166.354757 260.209195 
L 171.770456 263.232 
L 172.791495 263.796773 
L 175.064608 265.158164 
L 179.655883 267.850392 
L 182.298295 269.50432 
L 184.31253 270.815528 
L 186.351907 272.1024 
L 187.250507 272.659921 
L 187.663508 272.934324 
L 190.270413 274.70048 
L 193.344189 276.756207 
L 196.998728 279.405805 
L 197.934549 280.064028 
L 199.14616 280.9728 
L 203.048862 283.862379 
L 207.254597 287.24512 
L 208.769791 288.443341 
L 209.367491 288.929213 
L 210.406214 289.8432 
L 212.344116 291.496132 
L 213.499075 292.44128 
L 215.501175 294.161405 
L 220.479958 298.7136 
L 221.245728 299.403392 
L 226.940966 304.98592 
L 227.152556 305.188578 
L 229.479315 307.584 
L 229.96992 307.584 
L 238.06464 307.584 
L 246.15936 307.584 
L 254.25408 307.584 
L 262.3488 307.584 
L 270.44352 307.584 
L 278.53824 307.584 
L 286.63296 307.584 
L 294.72768 307.584 
" clip-path="url(#pd4a53976ac)" style="fill: #ff9400"/>
   </g>
   <g id="PathCollection_19">
    <path d="M 229.479315 307.584 
L 227.152556 305.188578 
L 226.940966 304.98592 
L 221.245728 299.403392 
L 220.479958 298.7136 
L 215.501175 294.161405 
L 213.499075 292.44128 
L 212.344116 291.496132 
L 210.406214 289.8432 
L 209.367491 288.929213 
L 208.769791 288.443341 
L 207.254597 287.24512 
L 203.048862 283.862379 
L 199.14616 280.9728 
L 197.934549 280.064028 
L 196.998728 279.405805 
L 193.344189 276.756207 
L 190.270413 274.70048 
L 187.663508 272.934324 
L 187.250507 272.659921 
L 186.351907 272.1024 
L 184.31253 270.815528 
L 182.298295 269.50432 
L 179.655883 267.850392 
L 175.064608 265.158164 
L 172.791495 263.796773 
L 171.770456 263.232 
L 166.354757 260.209195 
L 163.507409 258.721986 
L 161.986792 257.89604 
L 160.119241 256.95968 
L 155.990643 254.87306 
L 154.919421 254.3616 
L 152.487379 253.212191 
L 149.486284 251.76352 
L 147.077342 250.637807 
L 144.667173 249.588681 
L 139.366129 247.202737 
L 135.232531 245.4912 
L 133.159723 244.627576 
L 132.395046 244.331826 
L 127.584492 242.372556 
L 119.14021 239.21888 
L 119.071522 239.193101 
L 117.196067 238.493219 
L 111.831891 236.6208 
L 109.979898 235.971362 
L 104.112981 234.02272 
L 103.125691 233.693531 
L 102.645909 233.54816 
L 100.4544 232.837497 
L 100.4544 236.6208 
L 100.4544 245.4912 
L 100.4544 254.3616 
L 100.4544 263.232 
L 100.4544 272.1024 
L 100.4544 280.781067 
L 100.516393 280.808795 
L 100.864817 280.9728 
L 106.230458 283.513649 
L 113.729995 287.24512 
L 113.989115 287.373955 
L 115.467345 288.125755 
L 118.724451 289.8432 
L 121.527965 291.300508 
L 123.616082 292.44128 
L 128.189222 294.932276 
L 132.290612 297.27794 
L 133.185579 297.781573 
L 134.775295 298.7136 
L 138.779804 301.067647 
L 145.123559 304.98592 
L 145.773368 305.38466 
L 148.754766 307.290369 
L 149.093383 307.506565 
L 149.21129 307.584 
L 157.11744 307.584 
L 165.21216 307.584 
L 173.30688 307.584 
L 181.4016 307.584 
L 189.49632 307.584 
L 197.59104 307.584 
L 205.68576 307.584 
L 213.78048 307.584 
L 221.8752 307.584 
" clip-path="url(#pd4a53976ac)" style="fill: #ff3800"/>
   </g>
   <g id="PathCollection_20">
    <path d="M 149.21129 307.584 
L 149.093383 307.506565 
L 148.754766 307.290369 
L 145.773368 305.38466 
L 145.123559 304.98592 
L 138.779804 301.067647 
L 134.775295 298.7136 
L 133.185579 297.781573 
L 132.290612 297.27794 
L 128.189222 294.932276 
L 123.616082 292.44128 
L 121.527965 291.300508 
L 118.724451 289.8432 
L 115.467345 288.125755 
L 113.989115 287.373955 
L 113.729995 287.24512 
L 106.230458 283.513649 
L 100.864817 280.9728 
L 100.516393 280.808795 
L 100.4544 280.781067 
L 100.4544 280.9728 
L 100.4544 289.8432 
L 100.4544 298.7136 
L 100.4544 307.584 
L 108.54912 307.584 
L 116.64384 307.584 
L 124.73856 307.584 
L 132.83328 307.584 
L 140.928 307.584 
L 149.02272 307.584 
" clip-path="url(#pd4a53976ac)" style="fill: #b60000"/>
   </g>
   <g id="matplotlib.axis_1">
    <g id="xtick_1">
     <g id="line2d_1">
      <defs>
       <path id="m11972ab252" d="M 0 0 
L 0 3.5 
" style="stroke: #000000; stroke-width: 0.8"/>
      </defs>
      <g>
       <use xlink:href="#m11972ab252" x="57.6" y="307.584" style="stroke: #000000; stroke-width: 0.8"/>
      </g>
     </g>
     <g id="text_1">
      <!-- 0.0 -->
      <g transform="translate(51.26875 321.385562) scale(0.1 -0.1)">
       <defs>
        <path id="Calibri-30" d="M 3022 2031 
Q 3022 1566 2948 1181 
Q 2875 797 2704 520 
Q 2534 244 2259 92 
Q 1984 -59 1581 -59 
Q 1200 -59 939 77 
Q 678 213 518 477 
Q 359 741 292 1127 
Q 225 1513 225 2013 
Q 225 2475 300 2861 
Q 375 3247 544 3523 
Q 713 3800 988 3951 
Q 1263 4103 1663 4103 
Q 2047 4103 2308 3967 
Q 2569 3831 2728 3567 
Q 2888 3303 2955 2917 
Q 3022 2531 3022 2031 
z
M 2472 1994 
Q 2472 2297 2450 2537 
Q 2428 2778 2386 2962 
Q 2344 3147 2276 3280 
Q 2209 3413 2115 3498 
Q 2022 3584 1901 3623 
Q 1781 3663 1631 3663 
Q 1366 3663 1200 3538 
Q 1034 3413 939 3194 
Q 844 2975 809 2681 
Q 775 2388 775 2050 
Q 775 1597 822 1280 
Q 869 963 970 763 
Q 1072 563 1230 472 
Q 1388 381 1613 381 
Q 1788 381 1920 437 
Q 2053 494 2148 598 
Q 2244 703 2306 850 
Q 2369 997 2406 1175 
Q 2444 1353 2458 1561 
Q 2472 1769 2472 1994 
z
" transform="scale(0.015625)"/>
        <path id="Calibri-2e" d="M 1144 341 
Q 1144 119 1070 45 
Q 997 -28 803 -28 
Q 616 -28 544 44 
Q 472 116 472 331 
Q 472 553 545 626 
Q 619 700 813 700 
Q 1000 700 1072 628 
Q 1144 556 1144 341 
z
" transform="scale(0.015625)"/>
       </defs>
       <use xlink:href="#Calibri-30"/>
       <use xlink:href="#Calibri-2e" x="50.683594"/>
       <use xlink:href="#Calibri-30" x="75.927734"/>
      </g>
     </g>
    </g>
    <g id="xtick_2">
     <g id="line2d_2">
      <g>
       <use xlink:href="#m11972ab252" x="86.1696" y="307.584" style="stroke: #000000; stroke-width: 0.8"/>
      </g>
     </g>
     <g id="text_2">
      <!-- 0.1 -->
      <g transform="translate(79.83835 321.385562) scale(0.1 -0.1)">
       <defs>
        <path id="Calibri-31" d="M 2897 213 
Q 2897 153 2887 112 
Q 2878 72 2862 47 
Q 2847 22 2826 11 
Q 2806 0 2784 0 
L 672 0 
Q 650 0 631 11 
Q 613 22 595 47 
Q 578 72 568 112 
Q 559 153 559 213 
Q 559 269 568 309 
Q 578 350 592 376 
Q 606 403 626 417 
Q 647 431 672 431 
L 1516 431 
L 1516 3506 
L 734 3041 
Q 675 3009 639 3003 
Q 603 2997 581 3017 
Q 559 3038 551 3084 
Q 544 3131 544 3203 
Q 544 3256 548 3293 
Q 553 3331 562 3356 
Q 572 3381 589 3400 
Q 606 3419 634 3438 
L 1566 4034 
Q 1578 4044 1597 4050 
Q 1616 4056 1644 4062 
Q 1672 4069 1709 4070 
Q 1747 4072 1803 4072 
Q 1878 4072 1928 4065 
Q 1978 4059 2006 4048 
Q 2034 4038 2043 4020 
Q 2053 4003 2053 3984 
L 2053 431 
L 2784 431 
Q 2809 431 2831 417 
Q 2853 403 2867 376 
Q 2881 350 2889 309 
Q 2897 269 2897 213 
z
" transform="scale(0.015625)"/>
       </defs>
       <use xlink:href="#Calibri-30"/>
       <use xlink:href="#Calibri-2e" x="50.683594"/>
       <use xlink:href="#Calibri-31" x="75.927734"/>
      </g>
     </g>
    </g>
    <g id="xtick_3">
     <g id="line2d_3">
      <g>
       <use xlink:href="#m11972ab252" x="114.7392" y="307.584" style="stroke: #000000; stroke-width: 0.8"/>
      </g>
     </g>
     <g id="text_3">
      <!-- 0.2 -->
      <g transform="translate(108.40795 321.385562) scale(0.1 -0.1)">
       <defs>
        <path id="Calibri-32" d="M 2888 231 
Q 2888 175 2880 131 
Q 2872 88 2858 58 
Q 2844 28 2820 14 
Q 2797 0 2769 0 
L 534 0 
Q 491 0 458 11 
Q 425 22 401 47 
Q 378 72 367 119 
Q 356 166 356 234 
Q 356 297 361 344 
Q 366 391 381 427 
Q 397 463 420 498 
Q 444 534 481 575 
L 1266 1406 
Q 1538 1694 1702 1922 
Q 1866 2150 1955 2337 
Q 2044 2525 2072 2678 
Q 2100 2831 2100 2966 
Q 2100 3100 2056 3220 
Q 2013 3341 1930 3431 
Q 1847 3522 1722 3575 
Q 1597 3628 1434 3628 
Q 1244 3628 1092 3575 
Q 941 3522 827 3459 
Q 713 3397 636 3344 
Q 559 3291 522 3291 
Q 500 3291 483 3303 
Q 466 3316 455 3344 
Q 444 3372 437 3419 
Q 431 3466 431 3531 
Q 431 3578 434 3612 
Q 438 3647 445 3672 
Q 453 3697 465 3719 
Q 478 3741 515 3773 
Q 553 3806 645 3862 
Q 738 3919 877 3973 
Q 1016 4028 1183 4065 
Q 1350 4103 1534 4103 
Q 1828 4103 2048 4020 
Q 2269 3938 2414 3794 
Q 2559 3650 2631 3459 
Q 2703 3269 2703 3053 
Q 2703 2859 2668 2667 
Q 2634 2475 2523 2251 
Q 2413 2028 2203 1754 
Q 1994 1481 1647 1125 
L 1006 456 
L 2766 456 
Q 2791 456 2814 442 
Q 2838 428 2855 400 
Q 2872 372 2880 330 
Q 2888 288 2888 231 
z
" transform="scale(0.015625)"/>
       </defs>
       <use xlink:href="#Calibri-30"/>
       <use xlink:href="#Calibri-2e" x="50.683594"/>
       <use xlink:href="#Calibri-32" x="75.927734"/>
      </g>
     </g>
    </g>
    <g id="xtick_4">
     <g id="line2d_4">
      <g>
       <use xlink:href="#m11972ab252" x="143.3088" y="307.584" style="stroke: #000000; stroke-width: 0.8"/>
      </g>
     </g>
     <g id="text_4">
      <!-- 0.3 -->
      <g transform="translate(136.97755 321.385562) scale(0.1 -0.1)">
       <defs>
        <path id="Calibri-33" d="M 2856 1156 
Q 2856 878 2759 654 
Q 2663 431 2481 272 
Q 2300 113 2034 27 
Q 1769 -59 1434 -59 
Q 1231 -59 1054 -26 
Q 878 6 740 51 
Q 603 97 512 145 
Q 422 194 398 216 
Q 375 238 362 259 
Q 350 281 340 312 
Q 331 344 326 389 
Q 322 434 322 500 
Q 322 613 344 656 
Q 366 700 406 700 
Q 434 700 517 650 
Q 600 600 729 542 
Q 859 484 1032 434 
Q 1206 384 1419 384 
Q 1625 384 1781 437 
Q 1938 491 2044 587 
Q 2150 684 2203 817 
Q 2256 950 2256 1106 
Q 2256 1278 2189 1415 
Q 2122 1553 1992 1653 
Q 1863 1753 1673 1806 
Q 1484 1859 1244 1859 
L 859 1859 
Q 834 1859 811 1870 
Q 788 1881 770 1906 
Q 753 1931 742 1972 
Q 731 2013 731 2078 
Q 731 2138 740 2177 
Q 750 2216 767 2239 
Q 784 2263 806 2273 
Q 828 2284 856 2284 
L 1209 2284 
Q 1416 2284 1580 2337 
Q 1744 2391 1858 2491 
Q 1972 2591 2033 2730 
Q 2094 2869 2094 3041 
Q 2094 3166 2053 3280 
Q 2013 3394 1931 3478 
Q 1850 3563 1723 3611 
Q 1597 3659 1431 3659 
Q 1250 3659 1098 3604 
Q 947 3550 828 3487 
Q 709 3425 631 3370 
Q 553 3316 522 3316 
Q 500 3316 483 3323 
Q 466 3331 455 3354 
Q 444 3378 439 3420 
Q 434 3463 434 3531 
Q 434 3578 437 3614 
Q 441 3650 450 3676 
Q 459 3703 471 3725 
Q 484 3747 514 3776 
Q 544 3806 634 3862 
Q 725 3919 858 3973 
Q 991 4028 1164 4065 
Q 1338 4103 1538 4103 
Q 1819 4103 2031 4031 
Q 2244 3959 2386 3828 
Q 2528 3697 2598 3514 
Q 2669 3331 2669 3109 
Q 2669 2919 2619 2755 
Q 2569 2591 2472 2464 
Q 2375 2338 2234 2248 
Q 2094 2159 1909 2125 
L 1909 2119 
Q 2119 2097 2292 2014 
Q 2466 1931 2591 1806 
Q 2716 1681 2786 1514 
Q 2856 1347 2856 1156 
z
" transform="scale(0.015625)"/>
       </defs>
       <use xlink:href="#Calibri-30"/>
       <use xlink:href="#Calibri-2e" x="50.683594"/>
       <use xlink:href="#Calibri-33" x="75.927734"/>
      </g>
     </g>
    </g>
    <g id="xtick_5">
     <g id="line2d_5">
      <g>
       <use xlink:href="#m11972ab252" x="171.8784" y="307.584" style="stroke: #000000; stroke-width: 0.8"/>
      </g>
     </g>
     <g id="text_5">
      <!-- 0.4 -->
      <g transform="translate(165.54715 321.385562) scale(0.1 -0.1)">
       <defs>
        <path id="Calibri-34" d="M 3059 1150 
Q 3059 1047 3028 987 
Q 2997 928 2941 928 
L 2484 928 
L 2484 78 
Q 2484 53 2471 36 
Q 2459 19 2428 6 
Q 2397 -6 2347 -12 
Q 2297 -19 2219 -19 
Q 2144 -19 2094 -12 
Q 2044 -6 2014 6 
Q 1984 19 1973 36 
Q 1963 53 1963 78 
L 1963 928 
L 294 928 
Q 256 928 231 937 
Q 206 947 186 972 
Q 166 997 158 1044 
Q 150 1091 150 1166 
Q 150 1225 153 1272 
Q 156 1319 165 1358 
Q 175 1397 190 1433 
Q 206 1469 228 1509 
L 1684 3966 
Q 1700 3991 1729 4009 
Q 1759 4028 1806 4040 
Q 1853 4053 1922 4058 
Q 1991 4063 2084 4063 
Q 2188 4063 2264 4055 
Q 2341 4047 2387 4034 
Q 2434 4022 2459 4001 
Q 2484 3981 2484 3953 
L 2484 1372 
L 2941 1372 
Q 2994 1372 3026 1317 
Q 3059 1263 3059 1150 
z
M 1963 3591 
L 1956 3591 
L 641 1372 
L 1963 1372 
L 1963 3591 
z
" transform="scale(0.015625)"/>
       </defs>
       <use xlink:href="#Calibri-30"/>
       <use xlink:href="#Calibri-2e" x="50.683594"/>
       <use xlink:href="#Calibri-34" x="75.927734"/>
      </g>
     </g>
    </g>
    <g id="xtick_6">
     <g id="line2d_6">
      <g>
       <use xlink:href="#m11972ab252" x="200.448" y="307.584" style="stroke: #000000; stroke-width: 0.8"/>
      </g>
     </g>
     <g id="text_6">
      <!-- 0.5 -->
      <g transform="translate(194.11675 321.385562) scale(0.1 -0.1)">
       <defs>
        <path id="Calibri-35" d="M 2869 1300 
Q 2869 975 2759 722 
Q 2650 469 2450 295 
Q 2250 122 1973 31 
Q 1697 -59 1359 -59 
Q 1172 -59 1003 -32 
Q 834 -6 703 33 
Q 572 72 487 109 
Q 403 147 379 169 
Q 356 191 347 209 
Q 338 228 330 254 
Q 322 281 319 322 
Q 316 363 316 419 
Q 316 472 320 514 
Q 325 556 337 582 
Q 350 609 367 621 
Q 384 634 406 634 
Q 438 634 503 595 
Q 569 556 680 511 
Q 791 466 955 425 
Q 1119 384 1344 384 
Q 1553 384 1728 434 
Q 1903 484 2029 590 
Q 2156 697 2228 858 
Q 2300 1019 2300 1250 
Q 2300 1444 2239 1592 
Q 2178 1741 2051 1839 
Q 1925 1938 1731 1986 
Q 1538 2034 1269 2034 
Q 1078 2034 940 2015 
Q 803 1997 684 1997 
Q 597 1997 559 2037 
Q 522 2078 522 2194 
L 522 3841 
Q 522 3944 570 3994 
Q 619 4044 709 4044 
L 2500 4044 
Q 2525 4044 2548 4030 
Q 2572 4016 2587 3987 
Q 2603 3959 2611 3915 
Q 2619 3872 2619 3813 
Q 2619 3700 2587 3637 
Q 2556 3575 2500 3575 
L 991 3575 
L 991 2441 
Q 1100 2456 1214 2459 
Q 1328 2463 1478 2463 
Q 1825 2463 2084 2380 
Q 2344 2297 2517 2145 
Q 2691 1994 2780 1778 
Q 2869 1563 2869 1300 
z
" transform="scale(0.015625)"/>
       </defs>
       <use xlink:href="#Calibri-30"/>
       <use xlink:href="#Calibri-2e" x="50.683594"/>
       <use xlink:href="#Calibri-35" x="75.927734"/>
      </g>
     </g>
    </g>
    <g id="xtick_7">
     <g id="line2d_7">
      <g>
       <use xlink:href="#m11972ab252" x="229.0176" y="307.584" style="stroke: #000000; stroke-width: 0.8"/>
      </g>
     </g>
     <g id="text_7">
      <!-- 0.6 -->
      <g transform="translate(222.68635 321.385562) scale(0.1 -0.1)">
       <defs>
        <path id="Calibri-36" d="M 2991 1309 
Q 2991 1044 2909 795 
Q 2828 547 2659 358 
Q 2491 169 2231 55 
Q 1972 -59 1619 -59 
Q 1366 -59 1172 3 
Q 978 66 834 181 
Q 691 297 595 465 
Q 500 634 442 850 
Q 384 1066 359 1322 
Q 334 1578 334 1872 
Q 334 2131 362 2397 
Q 391 2663 462 2909 
Q 534 3156 657 3373 
Q 781 3591 967 3752 
Q 1153 3913 1412 4006 
Q 1672 4100 2016 4100 
Q 2131 4100 2250 4086 
Q 2369 4072 2469 4048 
Q 2569 4025 2637 3997 
Q 2706 3969 2728 3951 
Q 2750 3934 2761 3914 
Q 2772 3894 2778 3870 
Q 2784 3847 2787 3817 
Q 2791 3788 2791 3744 
Q 2791 3688 2789 3647 
Q 2788 3606 2777 3581 
Q 2766 3556 2748 3543 
Q 2731 3531 2703 3531 
Q 2669 3531 2609 3553 
Q 2550 3575 2465 3601 
Q 2381 3628 2261 3650 
Q 2141 3672 1981 3672 
Q 1691 3672 1481 3553 
Q 1272 3434 1139 3234 
Q 1006 3034 942 2770 
Q 878 2506 869 2219 
Q 950 2266 1051 2312 
Q 1153 2359 1273 2396 
Q 1394 2434 1528 2457 
Q 1663 2481 1816 2481 
Q 2144 2481 2369 2392 
Q 2594 2303 2733 2145 
Q 2872 1988 2931 1773 
Q 2991 1559 2991 1309 
z
M 2447 1259 
Q 2447 1441 2411 1589 
Q 2375 1738 2290 1841 
Q 2206 1944 2065 2000 
Q 1925 2056 1719 2056 
Q 1603 2056 1487 2036 
Q 1372 2016 1264 1980 
Q 1156 1944 1057 1895 
Q 959 1847 878 1791 
Q 878 1388 929 1116 
Q 981 844 1079 680 
Q 1178 516 1325 445 
Q 1472 375 1669 375 
Q 1869 375 2016 450 
Q 2163 525 2259 651 
Q 2356 778 2401 936 
Q 2447 1094 2447 1259 
z
" transform="scale(0.015625)"/>
       </defs>
       <use xlink:href="#Calibri-30"/>
       <use xlink:href="#Calibri-2e" x="50.683594"/>
       <use xlink:href="#Calibri-36" x="75.927734"/>
      </g>
     </g>
    </g>
    <g id="xtick_8">
     <g id="line2d_8">
      <g>
       <use xlink:href="#m11972ab252" x="257.5872" y="307.584" style="stroke: #000000; stroke-width: 0.8"/>
      </g>
     </g>
     <g id="text_8">
      <!-- 0.7 -->
      <g transform="translate(251.25595 321.385562) scale(0.1 -0.1)">
       <defs>
        <path id="Calibri-37" d="M 2947 3813 
Q 2947 3756 2942 3711 
Q 2938 3666 2930 3623 
Q 2922 3581 2908 3542 
Q 2894 3503 2875 3459 
L 1419 103 
Q 1403 66 1379 42 
Q 1356 19 1320 5 
Q 1284 -9 1228 -14 
Q 1172 -19 1091 -19 
Q 984 -19 925 -9 
Q 866 0 839 20 
Q 813 41 816 70 
Q 819 100 838 141 
L 2369 3572 
L 428 3572 
Q 369 3572 339 3634 
Q 309 3697 309 3809 
Q 309 3869 317 3912 
Q 325 3956 340 3986 
Q 356 4016 378 4030 
Q 400 4044 428 4044 
L 2784 4044 
Q 2828 4044 2861 4034 
Q 2894 4025 2911 3997 
Q 2928 3969 2937 3925 
Q 2947 3881 2947 3813 
z
" transform="scale(0.015625)"/>
       </defs>
       <use xlink:href="#Calibri-30"/>
       <use xlink:href="#Calibri-2e" x="50.683594"/>
       <use xlink:href="#Calibri-37" x="75.927734"/>
      </g>
     </g>
    </g>
    <g id="xtick_9">
     <g id="line2d_9">
      <g>
       <use xlink:href="#m11972ab252" x="286.1568" y="307.584" style="stroke: #000000; stroke-width: 0.8"/>
      </g>
     </g>
     <g id="text_9">
      <!-- 0.8 -->
      <g transform="translate(279.82555 321.385562) scale(0.1 -0.1)">
       <defs>
        <path id="Calibri-38" d="M 2981 1038 
Q 2981 775 2887 570 
Q 2794 366 2617 225 
Q 2441 84 2181 12 
Q 1922 -59 1588 -59 
Q 1275 -59 1028 6 
Q 781 72 609 200 
Q 438 328 347 515 
Q 256 703 256 944 
Q 256 1134 318 1293 
Q 381 1453 498 1587 
Q 616 1722 787 1839 
Q 959 1956 1175 2063 
Q 988 2159 844 2267 
Q 700 2375 600 2501 
Q 500 2628 448 2772 
Q 397 2916 397 3084 
Q 397 3297 473 3483 
Q 550 3669 704 3806 
Q 859 3944 1098 4023 
Q 1338 4103 1656 4103 
Q 1963 4103 2186 4029 
Q 2409 3956 2554 3829 
Q 2700 3703 2769 3531 
Q 2838 3359 2838 3163 
Q 2838 3003 2786 2856 
Q 2734 2709 2634 2578 
Q 2534 2447 2389 2333 
Q 2244 2219 2056 2119 
Q 2278 2009 2451 1893 
Q 2625 1778 2742 1645 
Q 2859 1513 2920 1364 
Q 2981 1216 2981 1038 
z
M 2306 3113 
Q 2306 3244 2261 3350 
Q 2216 3456 2128 3531 
Q 2041 3606 1911 3645 
Q 1781 3684 1616 3684 
Q 1278 3684 1104 3531 
Q 931 3378 931 3113 
Q 931 2991 973 2886 
Q 1016 2781 1105 2687 
Q 1194 2594 1330 2505 
Q 1466 2416 1653 2319 
Q 1969 2481 2137 2678 
Q 2306 2875 2306 3113 
z
M 2438 981 
Q 2438 1125 2384 1242 
Q 2331 1359 2223 1461 
Q 2116 1563 1955 1658 
Q 1794 1753 1581 1856 
Q 1384 1759 1236 1662 
Q 1088 1566 992 1462 
Q 897 1359 848 1245 
Q 800 1131 800 994 
Q 800 691 1008 525 
Q 1216 359 1628 359 
Q 2028 359 2233 526 
Q 2438 694 2438 981 
z
" transform="scale(0.015625)"/>
       </defs>
       <use xlink:href="#Calibri-30"/>
       <use xlink:href="#Calibri-2e" x="50.683594"/>
       <use xlink:href="#Calibri-38" x="75.927734"/>
      </g>
     </g>
    </g>
    <g id="xtick_10">
     <g id="line2d_10">
      <g>
       <use xlink:href="#m11972ab252" x="314.7264" y="307.584" style="stroke: #000000; stroke-width: 0.8"/>
      </g>
     </g>
     <g id="text_10">
      <!-- 0.9 -->
      <g transform="translate(308.39515 321.385562) scale(0.1 -0.1)">
       <defs>
        <path id="Calibri-39" d="M 2919 2181 
Q 2919 1919 2887 1650 
Q 2856 1381 2781 1132 
Q 2706 884 2579 667 
Q 2453 450 2261 287 
Q 2069 125 1805 33 
Q 1541 -59 1191 -59 
Q 1056 -59 929 -42 
Q 803 -25 701 0 
Q 600 25 531 53 
Q 463 81 431 109 
Q 400 138 386 186 
Q 372 234 372 316 
Q 372 384 376 425 
Q 381 466 390 487 
Q 400 509 417 517 
Q 434 525 459 525 
Q 494 525 556 501 
Q 619 478 714 450 
Q 809 422 937 398 
Q 1066 375 1225 375 
Q 1528 375 1745 492 
Q 1963 609 2100 806 
Q 2238 1003 2306 1262 
Q 2375 1522 2381 1809 
Q 2216 1713 1984 1638 
Q 1753 1563 1453 1563 
Q 1116 1563 886 1655 
Q 656 1747 517 1906 
Q 378 2066 317 2284 
Q 256 2503 256 2763 
Q 256 3031 334 3273 
Q 413 3516 578 3700 
Q 744 3884 1000 3993 
Q 1256 4103 1613 4103 
Q 1866 4103 2061 4039 
Q 2256 3975 2400 3854 
Q 2544 3734 2644 3564 
Q 2744 3394 2805 3178 
Q 2866 2963 2892 2711 
Q 2919 2459 2919 2181 
z
M 2372 2241 
Q 2372 2641 2319 2914 
Q 2266 3188 2162 3356 
Q 2059 3525 1909 3600 
Q 1759 3675 1563 3675 
Q 1359 3675 1215 3601 
Q 1072 3528 980 3404 
Q 888 3281 844 3125 
Q 800 2969 800 2803 
Q 800 2619 839 2466 
Q 878 2313 965 2206 
Q 1053 2100 1193 2042 
Q 1334 1984 1541 1984 
Q 1775 1984 1994 2054 
Q 2213 2125 2372 2241 
z
" transform="scale(0.015625)"/>
       </defs>
       <use xlink:href="#Calibri-30"/>
       <use xlink:href="#Calibri-2e" x="50.683594"/>
       <use xlink:href="#Calibri-39" x="75.927734"/>
      </g>
     </g>
    </g>
    <g id="xtick_11">
     <g id="line2d_11">
      <g>
       <use xlink:href="#m11972ab252" x="343.296" y="307.584" style="stroke: #000000; stroke-width: 0.8"/>
      </g>
     </g>
     <g id="text_11">
      <!-- 1.0 -->
      <g transform="translate(336.96475 321.385562) scale(0.1 -0.1)">
       <use xlink:href="#Calibri-31"/>
       <use xlink:href="#Calibri-2e" x="50.683594"/>
       <use xlink:href="#Calibri-30" x="75.927734"/>
      </g>
     </g>
    </g>
    <g id="text_12">
     <!-- $\mathit{p}$ (cm$^2$/cm$^2$) -->
     <g transform="translate(174.148 336.263687) scale(0.1 -0.1)">
      <defs>
       <path id="DejaVuSans-Oblique-70" d="M 3175 2156 
Q 3175 2616 2975 2859 
Q 2775 3103 2400 3103 
Q 2144 3103 1911 2972 
Q 1678 2841 1497 2591 
Q 1319 2344 1212 1994 
Q 1106 1644 1106 1300 
Q 1106 863 1306 627 
Q 1506 391 1875 391 
Q 2147 391 2380 519 
Q 2613 647 2778 891 
Q 2956 1147 3065 1494 
Q 3175 1841 3175 2156 
z
M 1394 2969 
Q 1625 3272 1939 3428 
Q 2253 3584 2638 3584 
Q 3175 3584 3472 3232 
Q 3769 2881 3769 2247 
Q 3769 1728 3584 1258 
Q 3400 788 3053 416 
Q 2822 169 2531 39 
Q 2241 -91 1919 -91 
Q 1547 -91 1294 64 
Q 1041 219 916 525 
L 556 -1331 
L -19 -1331 
L 922 3500 
L 1497 3500 
L 1394 2969 
z
" transform="scale(0.015625)"/>
       <path id="Calibri-20" transform="scale(0.015625)"/>
       <path id="Calibri-28" d="M 1547 4306 
Q 1250 3678 1104 3017 
Q 959 2356 959 1688 
Q 959 1016 1107 356 
Q 1256 -303 1541 -938 
Q 1556 -975 1557 -1001 
Q 1559 -1028 1537 -1045 
Q 1516 -1063 1470 -1070 
Q 1425 -1078 1347 -1078 
Q 1291 -1078 1250 -1075 
Q 1209 -1072 1179 -1062 
Q 1150 -1053 1131 -1040 
Q 1113 -1028 1103 -1013 
Q 934 -694 806 -367 
Q 678 -41 590 296 
Q 503 634 459 979 
Q 416 1325 416 1678 
Q 416 2031 464 2375 
Q 513 2719 602 3058 
Q 691 3397 819 3725 
Q 947 4053 1106 4375 
Q 1109 4388 1123 4397 
Q 1138 4406 1163 4415 
Q 1188 4425 1231 4429 
Q 1275 4434 1344 4434 
Q 1416 4434 1459 4425 
Q 1503 4416 1528 4400 
Q 1553 4384 1556 4359 
Q 1559 4334 1547 4306 
z
" transform="scale(0.015625)"/>
       <path id="Calibri-63" d="M 2500 506 
Q 2500 453 2497 414 
Q 2494 375 2486 348 
Q 2478 322 2467 301 
Q 2456 281 2417 242 
Q 2378 203 2284 145 
Q 2191 88 2073 42 
Q 1956 -3 1818 -31 
Q 1681 -59 1534 -59 
Q 1231 -59 997 41 
Q 763 141 605 333 
Q 447 525 364 804 
Q 281 1084 281 1450 
Q 281 1866 382 2164 
Q 484 2463 661 2653 
Q 838 2844 1077 2936 
Q 1316 3028 1594 3028 
Q 1728 3028 1854 3003 
Q 1981 2978 2087 2937 
Q 2194 2897 2276 2844 
Q 2359 2791 2396 2753 
Q 2434 2716 2448 2694 
Q 2463 2672 2472 2642 
Q 2481 2613 2484 2575 
Q 2488 2538 2488 2481 
Q 2488 2359 2459 2311 
Q 2431 2263 2391 2263 
Q 2344 2263 2283 2314 
Q 2222 2366 2128 2428 
Q 2034 2491 1901 2542 
Q 1769 2594 1588 2594 
Q 1216 2594 1017 2308 
Q 819 2022 819 1478 
Q 819 1206 870 1001 
Q 922 797 1022 659 
Q 1122 522 1267 455 
Q 1413 388 1600 388 
Q 1778 388 1912 444 
Q 2047 500 2145 567 
Q 2244 634 2311 689 
Q 2378 744 2416 744 
Q 2438 744 2453 731 
Q 2469 719 2480 689 
Q 2491 659 2495 614 
Q 2500 569 2500 506 
z
" transform="scale(0.015625)"/>
       <path id="Calibri-6d" d="M 4650 78 
Q 4650 53 4637 36 
Q 4625 19 4597 6 
Q 4569 -6 4519 -12 
Q 4469 -19 4394 -19 
Q 4316 -19 4266 -12 
Q 4216 -6 4186 6 
Q 4156 19 4143 36 
Q 4131 53 4131 78 
L 4131 1788 
Q 4131 1966 4100 2112 
Q 4069 2259 4000 2365 
Q 3931 2472 3825 2528 
Q 3719 2584 3575 2584 
Q 3397 2584 3217 2446 
Q 3038 2309 2822 2044 
L 2822 78 
Q 2822 53 2809 36 
Q 2797 19 2767 6 
Q 2738 -6 2688 -12 
Q 2638 -19 2563 -19 
Q 2491 -19 2439 -12 
Q 2388 -6 2358 6 
Q 2328 19 2317 36 
Q 2306 53 2306 78 
L 2306 1788 
Q 2306 1966 2272 2112 
Q 2238 2259 2169 2365 
Q 2100 2472 1995 2528 
Q 1891 2584 1747 2584 
Q 1569 2584 1387 2446 
Q 1206 2309 994 2044 
L 994 78 
Q 994 53 981 36 
Q 969 19 941 6 
Q 913 -6 863 -12 
Q 813 -19 734 -19 
Q 659 -19 609 -12 
Q 559 -6 529 6 
Q 500 19 489 36 
Q 478 53 478 78 
L 478 2891 
Q 478 2916 487 2933 
Q 497 2950 525 2964 
Q 553 2978 597 2983 
Q 641 2988 713 2988 
Q 781 2988 826 2983 
Q 872 2978 897 2964 
Q 922 2950 933 2933 
Q 944 2916 944 2891 
L 944 2519 
Q 1181 2784 1404 2907 
Q 1628 3031 1856 3031 
Q 2031 3031 2170 2990 
Q 2309 2950 2415 2876 
Q 2522 2803 2597 2701 
Q 2672 2600 2722 2475 
Q 2863 2628 2989 2734 
Q 3116 2841 3233 2906 
Q 3350 2972 3461 3001 
Q 3572 3031 3684 3031 
Q 3956 3031 4140 2936 
Q 4325 2841 4439 2681 
Q 4553 2522 4601 2308 
Q 4650 2094 4650 1856 
L 4650 78 
z
" transform="scale(0.015625)"/>
       <path id="DejaVuSans-32" d="M 1228 531 
L 3431 531 
L 3431 0 
L 469 0 
L 469 531 
Q 828 903 1448 1529 
Q 2069 2156 2228 2338 
Q 2531 2678 2651 2914 
Q 2772 3150 2772 3378 
Q 2772 3750 2511 3984 
Q 2250 4219 1831 4219 
Q 1534 4219 1204 4116 
Q 875 4013 500 3803 
L 500 4441 
Q 881 4594 1212 4672 
Q 1544 4750 1819 4750 
Q 2544 4750 2975 4387 
Q 3406 4025 3406 3419 
Q 3406 3131 3298 2873 
Q 3191 2616 2906 2266 
Q 2828 2175 2409 1742 
Q 1991 1309 1228 531 
z
" transform="scale(0.015625)"/>
       <path id="Calibri-2f" d="M 525 -753 
Q 513 -794 492 -817 
Q 472 -841 440 -853 
Q 409 -866 364 -872 
Q 319 -878 253 -878 
Q 175 -878 123 -867 
Q 72 -856 44 -836 
Q 16 -816 9 -786 
Q 3 -756 22 -716 
L 1913 4469 
Q 1925 4509 1945 4532 
Q 1966 4556 1995 4570 
Q 2025 4584 2072 4589 
Q 2119 4594 2184 4594 
Q 2263 4594 2313 4583 
Q 2363 4572 2391 4553 
Q 2419 4534 2425 4503 
Q 2431 4472 2416 4431 
L 525 -753 
z
" transform="scale(0.015625)"/>
       <path id="Calibri-29" d="M 1522 1678 
Q 1522 1325 1478 979 
Q 1434 634 1346 296 
Q 1259 -41 1132 -367 
Q 1006 -694 838 -1013 
Q 828 -1028 809 -1040 
Q 791 -1053 761 -1062 
Q 731 -1072 690 -1075 
Q 650 -1078 594 -1078 
Q 513 -1078 467 -1070 
Q 422 -1063 401 -1045 
Q 381 -1028 382 -1001 
Q 384 -975 400 -938 
Q 688 -306 834 355 
Q 981 1016 981 1688 
Q 981 2356 834 3017 
Q 688 3678 394 4306 
Q 381 4334 384 4359 
Q 388 4384 413 4400 
Q 438 4416 481 4425 
Q 525 4434 597 4434 
Q 663 4434 706 4429 
Q 750 4425 776 4415 
Q 803 4406 815 4397 
Q 828 4388 834 4375 
Q 1156 3734 1339 3057 
Q 1522 2381 1522 1678 
z
" transform="scale(0.015625)"/>
      </defs>
      <use xlink:href="#DejaVuSans-Oblique-70" transform="translate(0 0.765625)"/>
      <use xlink:href="#Calibri-20" transform="translate(63.476562 0.765625)"/>
      <use xlink:href="#Calibri-28" transform="translate(84.958984 0.765625)"/>
      <use xlink:href="#Calibri-63" transform="translate(115.28125 0.765625)"/>
      <use xlink:href="#Calibri-6d" transform="translate(157.566406 0.765625)"/>
      <use xlink:href="#DejaVuSans-32" transform="translate(238.40625 39.046875) scale(0.7)"/>
      <use xlink:href="#Calibri-2f" transform="translate(285.676758 0.765625)"/>
      <use xlink:href="#Calibri-63" transform="translate(324.299805 0.765625)"/>
      <use xlink:href="#Calibri-6d" transform="translate(366.584961 0.765625)"/>
      <use xlink:href="#DejaVuSans-32" transform="translate(447.424805 39.046875) scale(0.7)"/>
      <use xlink:href="#Calibri-29" transform="translate(494.695312 0.765625)"/>
     </g>
    </g>
   </g>
   <g id="matplotlib.axis_2">
    <g id="ytick_1">
     <g id="line2d_12">
      <defs>
       <path id="m8f10e9df5b" d="M 0 0 
L -3.5 0 
" style="stroke: #000000; stroke-width: 0.8"/>
      </defs>
      <g>
       <use xlink:href="#m8f10e9df5b" x="57.6" y="275.65056" style="stroke: #000000; stroke-width: 0.8"/>
      </g>
     </g>
     <g id="text_13">
      <!-- 25 -->
      <g transform="translate(40.4625 279.051341) scale(0.1 -0.1)">
       <use xlink:href="#Calibri-32"/>
       <use xlink:href="#Calibri-35" x="50.683594"/>
      </g>
     </g>
    </g>
    <g id="ytick_2">
     <g id="line2d_13">
      <g>
       <use xlink:href="#m8f10e9df5b" x="57.6" y="242.38656" style="stroke: #000000; stroke-width: 0.8"/>
      </g>
     </g>
     <g id="text_14">
      <!-- 50 -->
      <g transform="translate(40.4625 245.787341) scale(0.1 -0.1)">
       <use xlink:href="#Calibri-35"/>
       <use xlink:href="#Calibri-30" x="50.683594"/>
      </g>
     </g>
    </g>
    <g id="ytick_3">
     <g id="line2d_14">
      <g>
       <use xlink:href="#m8f10e9df5b" x="57.6" y="209.12256" style="stroke: #000000; stroke-width: 0.8"/>
      </g>
     </g>
     <g id="text_15">
      <!-- 75 -->
      <g transform="translate(40.4625 212.523341) scale(0.1 -0.1)">
       <use xlink:href="#Calibri-37"/>
       <use xlink:href="#Calibri-35" x="50.683594"/>
      </g>
     </g>
    </g>
    <g id="ytick_4">
     <g id="line2d_15">
      <g>
       <use xlink:href="#m8f10e9df5b" x="57.6" y="175.85856" style="stroke: #000000; stroke-width: 0.8"/>
      </g>
     </g>
     <g id="text_16">
      <!-- 100 -->
      <g transform="translate(35.39375 179.259341) scale(0.1 -0.1)">
       <use xlink:href="#Calibri-31"/>
       <use xlink:href="#Calibri-30" x="50.683594"/>
       <use xlink:href="#Calibri-30" x="101.367188"/>
      </g>
     </g>
    </g>
    <g id="ytick_5">
     <g id="line2d_16">
      <g>
       <use xlink:href="#m8f10e9df5b" x="57.6" y="142.59456" style="stroke: #000000; stroke-width: 0.8"/>
      </g>
     </g>
     <g id="text_17">
      <!-- 125 -->
      <g transform="translate(35.39375 145.995341) scale(0.1 -0.1)">
       <use xlink:href="#Calibri-31"/>
       <use xlink:href="#Calibri-32" x="50.683594"/>
       <use xlink:href="#Calibri-35" x="101.367188"/>
      </g>
     </g>
    </g>
    <g id="ytick_6">
     <g id="line2d_17">
      <g>
       <use xlink:href="#m8f10e9df5b" x="57.6" y="109.33056" style="stroke: #000000; stroke-width: 0.8"/>
      </g>
     </g>
     <g id="text_18">
      <!-- 150 -->
      <g transform="translate(35.39375 112.731341) scale(0.1 -0.1)">
       <use xlink:href="#Calibri-31"/>
       <use xlink:href="#Calibri-35" x="50.683594"/>
       <use xlink:href="#Calibri-30" x="101.367188"/>
      </g>
     </g>
    </g>
    <g id="ytick_7">
     <g id="line2d_18">
      <g>
       <use xlink:href="#m8f10e9df5b" x="57.6" y="76.06656" style="stroke: #000000; stroke-width: 0.8"/>
      </g>
     </g>
     <g id="text_19">
      <!-- 175 -->
      <g transform="translate(35.39375 79.467341) scale(0.1 -0.1)">
       <use xlink:href="#Calibri-31"/>
       <use xlink:href="#Calibri-37" x="50.683594"/>
       <use xlink:href="#Calibri-35" x="101.367188"/>
      </g>
     </g>
    </g>
    <g id="ytick_8">
     <g id="line2d_19">
      <g>
       <use xlink:href="#m8f10e9df5b" x="57.6" y="42.80256" style="stroke: #000000; stroke-width: 0.8"/>
      </g>
     </g>
     <g id="text_20">
      <!-- 200 -->
      <g transform="translate(35.39375 46.203341) scale(0.1 -0.1)">
       <use xlink:href="#Calibri-32"/>
       <use xlink:href="#Calibri-30" x="50.683594"/>
       <use xlink:href="#Calibri-30" x="101.367188"/>
      </g>
     </g>
    </g>
    <g id="text_21">
     <!-- $\mathit{Z}$$_{a}$ (nm) -->
     <g transform="translate(29.59375 191.028) rotate(-90) scale(0.1 -0.1)">
      <defs>
       <path id="DejaVuSans-Oblique-5a" d="M 838 4666 
L 4500 4666 
L 4409 4184 
L 794 531 
L 3769 531 
L 3669 0 
L -141 0 
L -50 481 
L 3566 4134 
L 738 4134 
L 838 4666 
z
" transform="scale(0.015625)"/>
       <path id="DejaVuSans-Oblique-61" d="M 3438 1997 
L 3047 0 
L 2472 0 
L 2578 531 
Q 2325 219 2001 64 
Q 1678 -91 1281 -91 
Q 834 -91 548 182 
Q 263 456 263 884 
Q 263 1497 752 1853 
Q 1241 2209 2100 2209 
L 2900 2209 
L 2931 2363 
Q 2938 2388 2941 2417 
Q 2944 2447 2944 2509 
Q 2944 2788 2717 2942 
Q 2491 3097 2081 3097 
Q 1800 3097 1504 3025 
Q 1209 2953 897 2809 
L 997 3341 
Q 1322 3463 1633 3523 
Q 1944 3584 2234 3584 
Q 2853 3584 3176 3315 
Q 3500 3047 3500 2534 
Q 3500 2431 3484 2292 
Q 3469 2153 3438 1997 
z
M 2816 1759 
L 2241 1759 
Q 1534 1759 1195 1570 
Q 856 1381 856 984 
Q 856 709 1029 553 
Q 1203 397 1509 397 
Q 1978 397 2328 733 
Q 2678 1069 2791 1631 
L 2816 1759 
z
" transform="scale(0.015625)"/>
       <path id="Calibri-6e" d="M 2900 78 
Q 2900 53 2887 36 
Q 2875 19 2847 6 
Q 2819 -6 2769 -12 
Q 2719 -19 2644 -19 
Q 2566 -19 2516 -12 
Q 2466 -6 2437 6 
Q 2409 19 2396 36 
Q 2384 53 2384 78 
L 2384 1725 
Q 2384 1966 2346 2112 
Q 2309 2259 2237 2365 
Q 2166 2472 2052 2528 
Q 1938 2584 1788 2584 
Q 1594 2584 1400 2446 
Q 1206 2309 994 2044 
L 994 78 
Q 994 53 981 36 
Q 969 19 941 6 
Q 913 -6 863 -12 
Q 813 -19 734 -19 
Q 659 -19 609 -12 
Q 559 -6 529 6 
Q 500 19 489 36 
Q 478 53 478 78 
L 478 2891 
Q 478 2916 487 2933 
Q 497 2950 525 2964 
Q 553 2978 597 2983 
Q 641 2988 713 2988 
Q 781 2988 826 2983 
Q 872 2978 897 2964 
Q 922 2950 933 2933 
Q 944 2916 944 2891 
L 944 2519 
Q 1181 2784 1417 2907 
Q 1653 3031 1894 3031 
Q 2175 3031 2367 2936 
Q 2559 2841 2678 2681 
Q 2797 2522 2848 2308 
Q 2900 2094 2900 1794 
L 2900 78 
z
" transform="scale(0.015625)"/>
      </defs>
      <use xlink:href="#DejaVuSans-Oblique-5a" transform="translate(0 0.09375)"/>
      <use xlink:href="#DejaVuSans-Oblique-61" transform="translate(69.462891 -16.3125) scale(0.7)"/>
      <use xlink:href="#Calibri-20" transform="translate(115.092773 0.09375)"/>
      <use xlink:href="#Calibri-28" transform="translate(136.575195 0.09375)"/>
      <use xlink:href="#Calibri-6e" transform="translate(166.897461 0.09375)"/>
      <use xlink:href="#Calibri-6d" transform="translate(219.436523 0.09375)"/>
      <use xlink:href="#Calibri-29" transform="translate(299.319336 0.09375)"/>
     </g>
    </g>
   </g>
   <g id="patch_3">
    <path d="M 57.6 307.584 
L 57.6 41.472 
" style="fill: none; stroke: #000000; stroke-width: 0.8; stroke-linejoin: miter; stroke-linecap: square"/>
   </g>
   <g id="patch_4">
    <path d="M 343.296 307.584 
L 343.296 41.472 
" style="fill: none; stroke: #000000; stroke-width: 0.8; stroke-linejoin: miter; stroke-linecap: square"/>
   </g>
   <g id="patch_5">
    <path d="M 57.6 307.584 
L 343.296 307.584 
" style="fill: none; stroke: #000000; stroke-width: 0.8; stroke-linejoin: miter; stroke-linecap: square"/>
   </g>
   <g id="patch_6">
    <path d="M 57.6 41.472 
L 343.296 41.472 
" style="fill: none; stroke: #000000; stroke-width: 0.8; stroke-linejoin: miter; stroke-linecap: square"/>
   </g>
   <g id="text_22">
    <!-- $\lambda$ = 980 nm -->
    <g transform="translate(177.348 35.472) scale(0.1 -0.1)">
     <defs>
      <path id="DejaVuSans-Oblique-3bb" d="M 2350 4316 
L 3125 0 
L 2516 0 
L 2038 2588 
L 328 0 
L -281 0 
L 1903 3356 
L 1794 3975 
Q 1725 4369 1391 4369 
L 1091 4369 
L 1184 4863 
L 1550 4856 
Q 2253 4847 2350 4316 
z
" transform="scale(0.015625)"/>
      <path id="Calibri-3d" d="M 2891 2409 
Q 2891 2284 2855 2236 
Q 2819 2188 2772 2188 
L 409 2188 
Q 363 2188 328 2236 
Q 294 2284 294 2409 
Q 294 2522 325 2575 
Q 356 2628 409 2628 
L 2772 2628 
Q 2828 2628 2859 2575 
Q 2891 2522 2891 2409 
z
M 2891 1194 
Q 2891 1069 2855 1022 
Q 2819 975 2772 975 
L 409 975 
Q 363 975 328 1022 
Q 294 1069 294 1194 
Q 294 1309 325 1362 
Q 356 1416 409 1416 
L 2772 1416 
Q 2828 1416 2859 1362 
Q 2891 1309 2891 1194 
z
" transform="scale(0.015625)"/>
     </defs>
     <use xlink:href="#DejaVuSans-Oblique-3bb" transform="translate(0 0.015625)"/>
     <use xlink:href="#Calibri-20" transform="translate(59.179688 0.015625)"/>
     <use xlink:href="#Calibri-3d" transform="translate(81.787109 0.015625)"/>
     <use xlink:href="#Calibri-20" transform="translate(131.591797 0.015625)"/>
     <use xlink:href="#Calibri-39" transform="translate(154.199219 0.015625)"/>
     <use xlink:href="#Calibri-38" transform="translate(204.882812 0.015625)"/>
     <use xlink:href="#Calibri-30" transform="translate(255.566406 0.015625)"/>
     <use xlink:href="#Calibri-20" transform="translate(306.25 0.015625)"/>
     <use xlink:href="#Calibri-6e" transform="translate(328.857422 0.015625)"/>
     <use xlink:href="#Calibri-6d" transform="translate(381.396484 0.015625)"/>
    </g>
   </g>
  </g>
  <g id="axes_2">
   <g id="patch_7">
    <path d="M 361.152 307.584 
L 374.4576 307.584 
L 374.4576 41.472 
L 361.152 41.472 
z
" style="fill: #ffffff"/>
   </g>
   <g id="QuadMesh_1">
    <path d="M 361.152 307.584 
L 374.4576 307.584 
L 374.4576 280.9728 
L 361.152 280.9728 
L 361.152 307.584 
" clip-path="url(#p8a415fbffc)" style="fill: #0000b6"/>
    <path d="M 361.152 280.9728 
L 374.4576 280.9728 
L 374.4576 254.3616 
L 361.152 254.3616 
L 361.152 280.9728 
" clip-path="url(#p8a415fbffc)" style="fill: #0018ff"/>
    <path d="M 361.152 254.3616 
L 374.4576 254.3616 
L 374.4576 227.7504 
L 361.152 227.7504 
L 361.152 254.3616 
" clip-path="url(#p8a415fbffc)" style="fill: #0080ff"/>
    <path d="M 361.152 227.7504 
L 374.4576 227.7504 
L 374.4576 201.1392 
L 361.152 201.1392 
L 361.152 227.7504 
" clip-path="url(#p8a415fbffc)" style="fill: #00e4f8"/>
    <path d="M 361.152 201.1392 
L 374.4576 201.1392 
L 374.4576 174.528 
L 361.152 174.528 
L 361.152 201.1392 
" clip-path="url(#p8a415fbffc)" style="fill: #53ffa4"/>
    <path d="M 361.152 174.528 
L 374.4576 174.528 
L 374.4576 147.9168 
L 361.152 147.9168 
L 361.152 174.528 
" clip-path="url(#p8a415fbffc)" style="fill: #a4ff53"/>
    <path d="M 361.152 147.9168 
L 374.4576 147.9168 
L 374.4576 121.3056 
L 361.152 121.3056 
L 361.152 147.9168 
" clip-path="url(#p8a415fbffc)" style="fill: #f8f500"/>
    <path d="M 361.152 121.3056 
L 374.4576 121.3056 
L 374.4576 94.6944 
L 361.152 94.6944 
L 361.152 121.3056 
" clip-path="url(#p8a415fbffc)" style="fill: #ff9400"/>
    <path d="M 361.152 94.6944 
L 374.4576 94.6944 
L 374.4576 68.0832 
L 361.152 68.0832 
L 361.152 94.6944 
" clip-path="url(#p8a415fbffc)" style="fill: #ff3800"/>
    <path d="M 361.152 68.0832 
L 374.4576 68.0832 
L 374.4576 41.472 
L 361.152 41.472 
L 361.152 68.0832 
" clip-path="url(#p8a415fbffc)" style="fill: #b60000"/>
   </g>
   <g id="matplotlib.axis_3"/>
   <g id="matplotlib.axis_4">
    <g id="ytick_9">
     <g id="line2d_20">
      <defs>
       <path id="mb0db4ba6d7" d="M 0 0 
L 3.5 0 
" style="stroke: #000000; stroke-width: 0.8"/>
      </defs>
      <g>
       <use xlink:href="#mb0db4ba6d7" x="374.4576" y="307.584" style="stroke: #000000; stroke-width: 0.8"/>
      </g>
     </g>
     <g id="text_23">
      <!-- 0 -->
      <g transform="translate(381.4576 310.984781) scale(0.1 -0.1)">
       <use xlink:href="#Calibri-30"/>
      </g>
     </g>
    </g>
    <g id="ytick_10">
     <g id="line2d_21">
      <g>
       <use xlink:href="#mb0db4ba6d7" x="374.4576" y="280.9728" style="stroke: #000000; stroke-width: 0.8"/>
      </g>
     </g>
     <g id="text_24">
      <!-- 0.1 -->
      <g transform="translate(381.4576 284.373581) scale(0.1 -0.1)">
       <use xlink:href="#Calibri-30"/>
       <use xlink:href="#Calibri-2e" x="50.683594"/>
       <use xlink:href="#Calibri-31" x="75.927734"/>
      </g>
     </g>
    </g>
    <g id="ytick_11">
     <g id="line2d_22">
      <g>
       <use xlink:href="#mb0db4ba6d7" x="374.4576" y="254.3616" style="stroke: #000000; stroke-width: 0.8"/>
      </g>
     </g>
     <g id="text_25">
      <!-- 0.2 -->
      <g transform="translate(381.4576 257.762381) scale(0.1 -0.1)">
       <use xlink:href="#Calibri-30"/>
       <use xlink:href="#Calibri-2e" x="50.683594"/>
       <use xlink:href="#Calibri-32" x="75.927734"/>
      </g>
     </g>
    </g>
    <g id="ytick_12">
     <g id="line2d_23">
      <g>
       <use xlink:href="#mb0db4ba6d7" x="374.4576" y="227.7504" style="stroke: #000000; stroke-width: 0.8"/>
      </g>
     </g>
     <g id="text_26">
      <!-- 0.3 -->
      <g transform="translate(381.4576 231.151181) scale(0.1 -0.1)">
       <use xlink:href="#Calibri-30"/>
       <use xlink:href="#Calibri-2e" x="50.683594"/>
       <use xlink:href="#Calibri-33" x="75.927734"/>
      </g>
     </g>
    </g>
    <g id="ytick_13">
     <g id="line2d_24">
      <g>
       <use xlink:href="#mb0db4ba6d7" x="374.4576" y="201.1392" style="stroke: #000000; stroke-width: 0.8"/>
      </g>
     </g>
     <g id="text_27">
      <!-- 0.4 -->
      <g transform="translate(381.4576 204.539981) scale(0.1 -0.1)">
       <use xlink:href="#Calibri-30"/>
       <use xlink:href="#Calibri-2e" x="50.683594"/>
       <use xlink:href="#Calibri-34" x="75.927734"/>
      </g>
     </g>
    </g>
    <g id="ytick_14">
     <g id="line2d_25">
      <g>
       <use xlink:href="#mb0db4ba6d7" x="374.4576" y="174.528" style="stroke: #000000; stroke-width: 0.8"/>
      </g>
     </g>
     <g id="text_28">
      <!-- 0.5 -->
      <g transform="translate(381.4576 177.928781) scale(0.1 -0.1)">
       <use xlink:href="#Calibri-30"/>
       <use xlink:href="#Calibri-2e" x="50.683594"/>
       <use xlink:href="#Calibri-35" x="75.927734"/>
      </g>
     </g>
    </g>
    <g id="ytick_15">
     <g id="line2d_26">
      <g>
       <use xlink:href="#mb0db4ba6d7" x="374.4576" y="147.9168" style="stroke: #000000; stroke-width: 0.8"/>
      </g>
     </g>
     <g id="text_29">
      <!-- 0.6 -->
      <g transform="translate(381.4576 151.317581) scale(0.1 -0.1)">
       <use xlink:href="#Calibri-30"/>
       <use xlink:href="#Calibri-2e" x="50.683594"/>
       <use xlink:href="#Calibri-36" x="75.927734"/>
      </g>
     </g>
    </g>
    <g id="ytick_16">
     <g id="line2d_27">
      <g>
       <use xlink:href="#mb0db4ba6d7" x="374.4576" y="121.3056" style="stroke: #000000; stroke-width: 0.8"/>
      </g>
     </g>
     <g id="text_30">
      <!-- 0.7 -->
      <g transform="translate(381.4576 124.706381) scale(0.1 -0.1)">
       <use xlink:href="#Calibri-30"/>
       <use xlink:href="#Calibri-2e" x="50.683594"/>
       <use xlink:href="#Calibri-37" x="75.927734"/>
      </g>
     </g>
    </g>
    <g id="ytick_17">
     <g id="line2d_28">
      <g>
       <use xlink:href="#mb0db4ba6d7" x="374.4576" y="94.6944" style="stroke: #000000; stroke-width: 0.8"/>
      </g>
     </g>
     <g id="text_31">
      <!-- 0.8 -->
      <g transform="translate(381.4576 98.095181) scale(0.1 -0.1)">
       <use xlink:href="#Calibri-30"/>
       <use xlink:href="#Calibri-2e" x="50.683594"/>
       <use xlink:href="#Calibri-38" x="75.927734"/>
      </g>
     </g>
    </g>
    <g id="ytick_18">
     <g id="line2d_29">
      <g>
       <use xlink:href="#mb0db4ba6d7" x="374.4576" y="68.0832" style="stroke: #000000; stroke-width: 0.8"/>
      </g>
     </g>
     <g id="text_32">
      <!-- 0.9 -->
      <g transform="translate(381.4576 71.483981) scale(0.1 -0.1)">
       <use xlink:href="#Calibri-30"/>
       <use xlink:href="#Calibri-2e" x="50.683594"/>
       <use xlink:href="#Calibri-39" x="75.927734"/>
      </g>
     </g>
    </g>
    <g id="ytick_19">
     <g id="line2d_30">
      <g>
       <use xlink:href="#mb0db4ba6d7" x="374.4576" y="41.472" style="stroke: #000000; stroke-width: 0.8"/>
      </g>
     </g>
     <g id="text_33">
      <!-- 1.0 -->
      <g transform="translate(381.4576 44.872781) scale(0.1 -0.1)">
       <use xlink:href="#Calibri-31"/>
       <use xlink:href="#Calibri-2e" x="50.683594"/>
       <use xlink:href="#Calibri-30" x="75.927734"/>
      </g>
     </g>
    </g>
   </g>
   <g id="LineCollection_1"/>
   <g id="patch_8">
    <path d="M 361.152 307.584 
L 367.8048 307.584 
L 374.4576 307.584 
L 374.4576 41.472 
L 367.8048 41.472 
L 361.152 41.472 
L 361.152 307.584 
z
" style="fill: none; stroke: #000000; stroke-width: 0.8; stroke-linejoin: miter; stroke-linecap: square"/>
   </g>
   <g id="text_34">
    <!-- $\mathit{E}_{\mathrm{dis}}$/$\mathit{E}_{\mathrm{i}}$ -->
    <g transform="translate(353.2548 35.472) scale(0.1 -0.1)">
     <defs>
      <path id="DejaVuSans-Oblique-45" d="M 1081 4666 
L 4031 4666 
L 3928 4134 
L 1606 4134 
L 1338 2753 
L 3566 2753 
L 3463 2222 
L 1234 2222 
L 909 531 
L 3284 531 
L 3181 0 
L 172 0 
L 1081 4666 
z
" transform="scale(0.015625)"/>
      <path id="DejaVuSans-64" d="M 2906 2969 
L 2906 4863 
L 3481 4863 
L 3481 0 
L 2906 0 
L 2906 525 
Q 2725 213 2448 61 
Q 2172 -91 1784 -91 
Q 1150 -91 751 415 
Q 353 922 353 1747 
Q 353 2572 751 3078 
Q 1150 3584 1784 3584 
Q 2172 3584 2448 3432 
Q 2725 3281 2906 2969 
z
M 947 1747 
Q 947 1113 1208 752 
Q 1469 391 1925 391 
Q 2381 391 2643 752 
Q 2906 1113 2906 1747 
Q 2906 2381 2643 2742 
Q 2381 3103 1925 3103 
Q 1469 3103 1208 2742 
Q 947 2381 947 1747 
z
" transform="scale(0.015625)"/>
      <path id="DejaVuSans-69" d="M 603 3500 
L 1178 3500 
L 1178 0 
L 603 0 
L 603 3500 
z
M 603 4863 
L 1178 4863 
L 1178 4134 
L 603 4134 
L 603 4863 
z
" transform="scale(0.015625)"/>
      <path id="DejaVuSans-73" d="M 2834 3397 
L 2834 2853 
Q 2591 2978 2328 3040 
Q 2066 3103 1784 3103 
Q 1356 3103 1142 2972 
Q 928 2841 928 2578 
Q 928 2378 1081 2264 
Q 1234 2150 1697 2047 
L 1894 2003 
Q 2506 1872 2764 1633 
Q 3022 1394 3022 966 
Q 3022 478 2636 193 
Q 2250 -91 1575 -91 
Q 1294 -91 989 -36 
Q 684 19 347 128 
L 347 722 
Q 666 556 975 473 
Q 1284 391 1588 391 
Q 1994 391 2212 530 
Q 2431 669 2431 922 
Q 2431 1156 2273 1281 
Q 2116 1406 1581 1522 
L 1381 1569 
Q 847 1681 609 1914 
Q 372 2147 372 2553 
Q 372 3047 722 3315 
Q 1072 3584 1716 3584 
Q 2034 3584 2315 3537 
Q 2597 3491 2834 3397 
z
" transform="scale(0.015625)"/>
     </defs>
     <use xlink:href="#DejaVuSans-Oblique-45" transform="translate(0 0.09375)"/>
     <use xlink:href="#DejaVuSans-64" transform="translate(63.183594 -16.3125) scale(0.7)"/>
     <use xlink:href="#DejaVuSans-69" transform="translate(107.617188 -16.3125) scale(0.7)"/>
     <use xlink:href="#DejaVuSans-73" transform="translate(127.06543 -16.3125) scale(0.7)"/>
     <use xlink:href="#Calibri-2f" transform="translate(166.269531 0.09375)"/>
     <use xlink:href="#DejaVuSans-Oblique-45" transform="translate(204.892578 0.09375)"/>
     <use xlink:href="#DejaVuSans-69" transform="translate(268.076172 -16.3125) scale(0.7)"/>
    </g>
   </g>
  </g>
 </g>
 <defs>
  <clipPath id="pd4a53976ac">
   <rect x="57.6" y="41.472" width="285.696" height="266.112"/>
  </clipPath>
  <clipPath id="p8a415fbffc">
   <rect x="361.152" y="41.472" width="13.3056" height="266.112"/>
  </clipPath>
 </defs>
</svg>
