<?xml version="1.0" encoding="utf-8" standalone="no"?>
<!DOCTYPE svg PUBLIC "-//W3C//DTD SVG 1.1//EN"
  "http://www.w3.org/Graphics/SVG/1.1/DTD/svg11.dtd">
<svg xmlns:xlink="http://www.w3.org/1999/xlink" width="460.8pt" height="345.6pt" viewBox="0 0 460.8 345.6" xmlns="http://www.w3.org/2000/svg" version="1.1">
 <metadata>
  <rdf:RDF xmlns:dc="http://purl.org/dc/elements/1.1/" xmlns:cc="http://creativecommons.org/ns#" xmlns:rdf="http://www.w3.org/1999/02/22-rdf-syntax-ns#">
   <cc:Work>
    <dc:type rdf:resource="http://purl.org/dc/dcmitype/StillImage"/>
    <dc:date>2024-01-22T08:54:01.898792</dc:date>
    <dc:format>image/svg+xml</dc:format>
    <dc:creator>
     <cc:Agent>
      <dc:title>Matplotlib v3.7.1, https://matplotlib.org/</dc:title>
     </cc:Agent>
    </dc:creator>
   </cc:Work>
  </rdf:RDF>
 </metadata>
 <defs>
  <style type="text/css">*{stroke-linejoin: round; stroke-linecap: butt}</style>
 </defs>
 <g id="figure_1">
  <g id="patch_1">
   <path d="M 0 345.6 
L 460.8 345.6 
L 460.8 0 
L 0 0 
z
" style="fill: #ffffff"/>
  </g>
  <g id="axes_1">
   <g id="patch_2">
    <path d="M 57.6 307.584 
L 343.296 307.584 
L 343.296 41.472 
L 57.6 41.472 
z
" style="fill: #ffffff"/>
   </g>
   <g id="PathCollection_1">
    <path clip-path="url(#p1ef09df883)" style="fill: #0000b6"/>
   </g>
   <g id="PathCollection_2">
    <path clip-path="url(#p1ef09df883)" style="fill: #0018ff"/>
   </g>
   <g id="PathCollection_3">
    <path clip-path="url(#p1ef09df883)" style="fill: #0080ff"/>
   </g>
   <g id="PathCollection_4">
    <path clip-path="url(#p1ef09df883)" style="fill: #00e4f8"/>
   </g>
   <g id="PathCollection_5">
    <path d="M 57.62857 84.742816 
L 57.633498 84.741176 
L 57.707292 84.7152 
L 58.95052 84.274737 
L 59.435602 84.096687 
L 60.48745 83.72149 
L 60.892883 83.572098 
L 61.566041 83.331854 
L 63.0918 82.767679 
L 63.33717 82.679505 
L 64.168197 82.371015 
L 64.17261 82.369428 
L 64.189651 82.36308 
L 65.699267 81.797652 
L 66.776795 81.3888 
L 67.842961 80.980441 
L 69.30174 80.41452 
L 69.361332 80.391274 
L 69.37764 80.384695 
L 70.197954 80.063524 
L 70.476913 79.950913 
L 71.943024 79.374539 
L 72.673045 79.077722 
L 73.031497 78.936279 
L 74.208454 78.457425 
L 74.514755 78.336057 
L 75.18251 78.0624 
L 75.860058 77.782775 
L 75.975479 77.733708 
L 77.077739 77.278482 
L 77.970405 76.897548 
L 78.68325 76.600971 
L 79.286913 76.342258 
L 79.630737 76.199106 
L 80.76694 75.71028 
L 81.304443 75.477673 
L 82.99827 74.736 
L 83.356455 74.577556 
L 84.050232 74.267086 
L 84.883219 73.897288 
L 85.181813 73.76172 
L 85.476406 73.628567 
L 85.585998 73.577626 
L 87.230239 72.8311 
L 87.891905 72.52116 
L 88.280135 72.344182 
L 89.449556 71.795931 
L 89.742117 71.661955 
L 90.276217 71.4096 
L 91.07783 71.028003 
L 91.237452 70.949922 
L 92.243755 70.470456 
L 93.35392 69.925156 
L 93.869063 69.677758 
L 94.594146 69.319928 
L 94.733481 69.252951 
L 95.127915 69.05748 
L 96.204849 68.520394 
L 97.072193 68.0832 
L 97.909873 67.658413 
L 98.157237 67.53019 
L 98.975154 67.10892 
L 99.679072 66.74402 
L 99.942089 66.603651 
L 100.579916 66.271579 
L 101.298096 65.887905 
L 102.134004 65.450557 
L 103.330597 64.805987 
L 103.33993 64.80101 
L 103.33993 64.7568 
L 103.33993 61.4304 
L 103.33993 58.104 
L 103.33993 54.7776 
L 103.33993 51.4512 
L 103.33993 48.1248 
L 103.33993 44.7984 
L 103.33993 41.472 
L 101.816218 41.472 
L 100.292506 41.472 
L 98.768794 41.472 
L 97.245082 41.472 
L 95.72137 41.472 
L 94.197658 41.472 
L 92.673946 41.472 
L 91.150234 41.472 
L 89.626522 41.472 
L 88.10281 41.472 
L 86.579098 41.472 
L 85.055386 41.472 
L 83.531674 41.472 
L 82.007962 41.472 
L 80.48425 41.472 
L 78.960538 41.472 
L 77.436826 41.472 
L 75.913114 41.472 
L 74.389402 41.472 
L 72.86569 41.472 
L 71.341978 41.472 
L 69.818266 41.472 
L 68.294554 41.472 
L 66.770842 41.472 
L 65.24713 41.472 
L 63.723418 41.472 
L 62.199706 41.472 
L 60.675994 41.472 
L 59.152282 41.472 
L 57.62857 41.472 
L 57.62857 44.7984 
L 57.62857 48.1248 
L 57.62857 51.4512 
L 57.62857 54.7776 
L 57.62857 58.104 
L 57.62857 61.4304 
L 57.62857 64.7568 
L 57.62857 68.0832 
L 57.62857 71.4096 
L 57.62857 74.736 
L 57.62857 78.0624 
L 57.62857 81.3888 
L 57.62857 84.7152 
" clip-path="url(#p1ef09df883)" style="fill: #53ffa4"/>
   </g>
   <g id="PathCollection_6">
    <path d="M 103.33993 64.80101 
L 103.330597 64.805987 
L 102.134004 65.450557 
L 101.298096 65.887905 
L 100.579916 66.271579 
L 99.942089 66.603651 
L 99.679072 66.74402 
L 98.975154 67.10892 
L 98.157237 67.53019 
L 97.909873 67.658413 
L 97.072193 68.0832 
L 96.204849 68.520394 
L 95.127915 69.05748 
L 94.733481 69.252951 
L 94.594146 69.319928 
L 93.869063 69.677758 
L 93.35392 69.925156 
L 92.243755 70.470456 
L 91.237452 70.949922 
L 91.07783 71.028003 
L 90.276217 71.4096 
L 89.742117 71.661955 
L 89.449556 71.795931 
L 88.280135 72.344182 
L 87.891905 72.52116 
L 87.230239 72.8311 
L 85.585998 73.577626 
L 85.476406 73.628567 
L 85.181813 73.76172 
L 84.883219 73.897288 
L 84.050232 74.267086 
L 83.356455 74.577556 
L 82.99827 74.736 
L 81.304443 75.477673 
L 80.76694 75.71028 
L 79.630737 76.199106 
L 79.286913 76.342258 
L 78.68325 76.600971 
L 77.970405 76.897548 
L 77.077739 77.278482 
L 75.975479 77.733708 
L 75.860058 77.782775 
L 75.18251 78.0624 
L 74.514755 78.336057 
L 74.208454 78.457425 
L 73.031497 78.936279 
L 72.673045 79.077722 
L 71.943024 79.374539 
L 70.476913 79.950913 
L 70.197954 80.063524 
L 69.37764 80.384695 
L 69.361332 80.391274 
L 69.30174 80.41452 
L 67.842961 80.980441 
L 66.776795 81.3888 
L 65.699267 81.797652 
L 64.189651 82.36308 
L 64.17261 82.369428 
L 64.168197 82.371015 
L 63.33717 82.679505 
L 63.0918 82.767679 
L 61.566041 83.331854 
L 60.892883 83.572098 
L 60.48745 83.72149 
L 59.435602 84.096687 
L 58.95052 84.274737 
L 57.707292 84.7152 
L 57.633498 84.741176 
L 57.62857 84.742816 
L 57.62857 88.0416 
L 57.62857 91.368 
L 57.62857 94.6944 
L 57.62857 98.0208 
L 57.62857 101.3472 
L 57.62857 104.6736 
L 57.62857 108 
L 57.62857 111.3264 
L 57.62857 114.6528 
L 57.62857 117.9792 
L 57.62857 121.3056 
L 57.62857 124.632 
L 57.62857 127.9584 
L 57.62857 131.2848 
L 57.62857 133.373233 
L 58.018092 133.337755 
L 58.221865 133.315984 
L 60.003949 133.144066 
L 60.329858 133.109089 
L 61.00967 133.043425 
L 61.41399 133.000087 
L 62.918749 132.854536 
L 63.43615 132.798827 
L 64.000318 132.744187 
L 64.608597 132.678775 
L 65.83134 132.560183 
L 66.54345 132.483256 
L 66.990005 132.43989 
L 67.805762 132.351876 
L 68.741653 132.260857 
L 69.651788 132.162209 
L 69.978703 132.130374 
L 71.005568 132.019213 
L 71.649617 131.956403 
L 72.761199 131.835511 
L 72.966378 131.815475 
L 74.208099 131.680599 
L 74.555157 131.646658 
L 75.871717 131.502981 
L 75.953 131.495021 
L 77.413445 131.335841 
L 77.458195 131.331452 
L 77.884196 131.2848 
L 78.938513 131.168722 
L 78.9836 131.163251 
L 80.35928 131.011979 
L 80.623958 130.979804 
L 81.92286 130.836279 
L 82.09709 130.815053 
L 83.257821 130.686955 
L 83.837966 130.616136 
L 84.90604 130.497684 
L 85.211829 130.460274 
L 86.153625 130.355956 
L 87.055196 130.245434 
L 87.888013 130.152729 
L 88.327859 130.098689 
L 89.046601 130.018781 
L 90.27576 129.867454 
L 90.868739 129.801196 
L 91.445225 129.730062 
L 91.936651 129.67522 
L 93.499776 129.481937 
L 93.848173 129.442859 
L 94.563975 129.354146 
L 94.823675 129.325053 
L 96.727368 129.088615 
L 96.82627 129.077478 
L 97.684156 128.970681 
L 97.707567 128.968048 
L 97.991057 128.93268 
L 99.620409 128.728486 
L 100.183994 128.6583 
L 101.187396 128.527021 
L 102.291335 128.388032 
L 103.197628 128.269058 
L 103.33993 128.25022 
L 103.33993 127.9584 
L 103.33993 124.632 
L 103.33993 121.3056 
L 103.33993 117.9792 
L 103.33993 114.6528 
L 103.33993 111.3264 
L 103.33993 108 
L 103.33993 104.6736 
L 103.33993 101.3472 
L 103.33993 98.0208 
L 103.33993 94.6944 
L 103.33993 91.368 
L 103.33993 88.0416 
L 103.33993 84.7152 
L 103.33993 81.3888 
L 103.33993 78.0624 
L 103.33993 74.736 
L 103.33993 71.4096 
L 103.33993 68.0832 
" clip-path="url(#p1ef09df883)" style="fill: #a4ff53"/>
   </g>
   <g id="PathCollection_7">
    <path d="M 103.33993 128.25022 
L 103.197628 128.269058 
L 102.291335 128.388032 
L 101.187396 128.527021 
L 100.183994 128.6583 
L 99.620409 128.728486 
L 97.991057 128.93268 
L 97.707567 128.968048 
L 97.684156 128.970681 
L 96.82627 129.077478 
L 96.727368 129.088615 
L 94.823675 129.325053 
L 94.563975 129.354146 
L 93.848173 129.442859 
L 93.499776 129.481937 
L 91.936651 129.67522 
L 91.445225 129.730062 
L 90.868739 129.801196 
L 90.27576 129.867454 
L 89.046601 130.018781 
L 88.327859 130.098689 
L 87.888013 130.152729 
L 87.055196 130.245434 
L 86.153625 130.355956 
L 85.211829 130.460274 
L 84.90604 130.497684 
L 83.837966 130.616136 
L 83.257821 130.686955 
L 82.09709 130.815053 
L 81.92286 130.836279 
L 80.623958 130.979804 
L 80.35928 131.011979 
L 78.9836 131.163251 
L 78.938513 131.168722 
L 77.884196 131.2848 
L 77.458195 131.331452 
L 77.413445 131.335841 
L 75.953 131.495021 
L 75.871717 131.502981 
L 74.555157 131.646658 
L 74.208099 131.680599 
L 72.966378 131.815475 
L 72.761199 131.835511 
L 71.649617 131.956403 
L 71.005568 132.019213 
L 69.978703 132.130374 
L 69.651788 132.162209 
L 68.741653 132.260857 
L 67.805762 132.351876 
L 66.990005 132.43989 
L 66.54345 132.483256 
L 65.83134 132.560183 
L 64.608597 132.678775 
L 64.000318 132.744187 
L 63.43615 132.798827 
L 62.918749 132.854536 
L 61.41399 133.000087 
L 61.00967 133.043425 
L 60.329858 133.109089 
L 60.003949 133.144066 
L 58.221865 133.315984 
L 58.018092 133.337755 
L 57.62857 133.373233 
L 57.62857 134.6112 
L 57.62857 137.9376 
L 57.62857 141.264 
L 57.62857 144.5904 
L 57.62857 147.9168 
L 57.62857 151.2432 
L 57.62857 154.5696 
L 57.62857 157.896 
L 57.62857 161.2224 
L 57.62857 164.5488 
L 57.62857 167.8752 
L 57.62857 171.2016 
L 57.62857 174.528 
L 57.62857 177.749394 
L 57.648177 177.75106 
L 58.778071 177.8544 
L 59.137272 177.887167 
L 59.168746 177.890344 
L 60.643398 178.026194 
L 60.709871 178.03295 
L 62.060638 178.157998 
L 62.352457 178.18787 
L 63.637352 178.308003 
L 63.812918 178.326105 
L 64.980794 178.435834 
L 65.54007 178.493915 
L 66.629879 178.597336 
L 66.917513 178.627423 
L 67.897641 178.720897 
L 68.731723 178.808779 
L 69.620931 178.894439 
L 70.023711 178.937187 
L 70.811073 179.013413 
L 71.927561 179.132781 
L 72.610461 179.199567 
L 73.131567 179.25569 
L 73.720981 179.313623 
L 75.127737 179.466252 
L 75.598417 179.51299 
L 76.241139 179.58324 
L 76.627251 179.621773 
L 78.33241 179.809542 
L 78.584747 179.834985 
L 79.352489 179.920158 
L 79.529766 179.938124 
L 81.541748 180.163015 
L 81.569394 180.165846 
L 81.930567 180.20652 
L 82.357799 180.254219 
L 82.529099 180.274206 
L 84.311172 180.475927 
L 85.417862 180.606501 
L 86.020513 180.675691 
L 87.011716 180.789598 
L 89.418326 181.077835 
L 89.526616 181.090459 
L 89.703591 181.111109 
L 89.755238 181.117142 
L 90.276735 181.1808 
L 92.201493 181.414456 
L 92.389249 181.438241 
L 93.051521 181.522228 
L 93.472295 181.575631 
L 95.066577 181.772906 
L 96.593586 181.969515 
L 97.056782 182.027491 
L 97.734569 182.116013 
L 98.03338 182.15508 
L 99.744052 182.378124 
L 99.892527 182.399137 
L 100.673026 182.501686 
L 100.913204 182.535839 
L 102.61596 182.761292 
L 103.019672 182.8193 
L 103.33993 182.860686 
L 103.33993 181.1808 
L 103.33993 177.8544 
L 103.33993 174.528 
L 103.33993 171.2016 
L 103.33993 167.8752 
L 103.33993 164.5488 
L 103.33993 161.2224 
L 103.33993 157.896 
L 103.33993 154.5696 
L 103.33993 151.2432 
L 103.33993 147.9168 
L 103.33993 144.5904 
L 103.33993 141.264 
L 103.33993 137.9376 
L 103.33993 134.6112 
L 103.33993 131.2848 
" clip-path="url(#p1ef09df883)" style="fill: #f8f500"/>
   </g>
   <g id="PathCollection_8">
    <path d="M 103.33993 182.860686 
L 103.019672 182.8193 
L 102.61596 182.761292 
L 100.913204 182.535839 
L 100.673026 182.501686 
L 99.892527 182.399137 
L 99.744052 182.378124 
L 98.03338 182.15508 
L 97.734569 182.116013 
L 97.056782 182.027491 
L 96.593586 181.969515 
L 95.066577 181.772906 
L 93.472295 181.575631 
L 93.051521 181.522228 
L 92.389249 181.438241 
L 92.201493 181.414456 
L 90.276735 181.1808 
L 89.755238 181.117142 
L 89.703591 181.111109 
L 89.526616 181.090459 
L 89.418326 181.077835 
L 87.011716 180.789598 
L 86.020513 180.675691 
L 85.417862 180.606501 
L 84.311172 180.475927 
L 82.529099 180.274206 
L 82.357799 180.254219 
L 81.930567 180.20652 
L 81.569394 180.165846 
L 81.541748 180.163015 
L 79.529766 179.938124 
L 79.352489 179.920158 
L 78.584747 179.834985 
L 78.33241 179.809542 
L 76.627251 179.621773 
L 76.241139 179.58324 
L 75.598417 179.51299 
L 75.127737 179.466252 
L 73.720981 179.313623 
L 73.131567 179.25569 
L 72.610461 179.199567 
L 71.927561 179.132781 
L 70.811073 179.013413 
L 70.023711 178.937187 
L 69.620931 178.894439 
L 68.731723 178.808779 
L 67.897641 178.720897 
L 66.917513 178.627423 
L 66.629879 178.597336 
L 65.54007 178.493915 
L 64.980794 178.435834 
L 63.812918 178.326105 
L 63.637352 178.308003 
L 62.352457 178.18787 
L 62.060638 178.157998 
L 60.709871 178.03295 
L 60.643398 178.026194 
L 59.168746 177.890344 
L 59.137272 177.887167 
L 58.778071 177.8544 
L 57.648177 177.75106 
L 57.62857 177.749394 
L 57.62857 177.8544 
L 57.62857 181.1808 
L 57.62857 184.5072 
L 57.62857 187.8336 
L 57.62857 191.16 
L 57.62857 194.4864 
L 57.62857 197.8128 
L 57.62857 201.1392 
L 57.62857 204.4656 
L 57.62857 207.792 
L 57.62857 211.1184 
L 57.62857 214.4448 
L 57.62857 217.7712 
L 57.62857 220.0975 
L 58.041468 220.196206 
L 58.197279 220.234024 
L 59.706062 220.596835 
L 60.014701 220.671082 
L 61.753958 221.0976 
L 62.052236 221.170532 
L 62.104617 221.183585 
L 62.36718 221.249042 
L 64.083467 221.6731 
L 64.495855 221.776952 
L 65.666487 222.07188 
L 66.256473 222.220513 
L 66.357764 222.246896 
L 67.146041 222.446534 
L 67.421744 222.518578 
L 68.985045 222.916596 
L 69.561024 223.068222 
L 70.051678 223.193811 
L 70.878502 223.412191 
L 71.70771 223.625574 
L 72.767718 223.907645 
L 72.954493 223.955968 
L 74.34508 224.327242 
L 74.424285 224.347846 
L 74.707365 224.424 
L 75.854579 224.732506 
L 75.978147 224.766755 
L 77.13664 225.079332 
L 77.82487 225.271135 
L 78.751982 225.523181 
L 79.192516 225.646629 
L 79.842935 225.824048 
L 81.315656 226.239034 
L 81.646336 226.329929 
L 82.41068 226.546506 
L 82.542741 226.58293 
L 83.22073 226.77612 
L 84.276564 227.076822 
L 84.668075 227.188382 
L 86.566986 227.739448 
L 86.585358 227.744739 
L 86.588635 227.745683 
L 86.604705 227.7504 
L 88.886328 228.419731 
L 89.909689 228.72468 
L 90.608605 228.932824 
L 90.751784 228.976793 
L 91.505833 229.202636 
L 91.866346 229.313738 
L 93.285707 229.74127 
L 93.985503 229.958653 
L 94.386748 230.080211 
L 95.411155 230.399574 
L 95.955594 230.565466 
L 97.223678 230.963994 
L 97.264133 230.976393 
L 97.582464 231.0768 
L 98.619165 231.403452 
L 98.970702 231.517583 
L 100.138493 231.888517 
L 100.466866 231.995755 
L 101.276976 232.254012 
L 102.546505 232.671083 
L 103.009217 232.819802 
L 103.33993 232.928631 
L 103.33993 231.0768 
L 103.33993 227.7504 
L 103.33993 224.424 
L 103.33993 221.0976 
L 103.33993 217.7712 
L 103.33993 214.4448 
L 103.33993 211.1184 
L 103.33993 207.792 
L 103.33993 204.4656 
L 103.33993 201.1392 
L 103.33993 197.8128 
L 103.33993 194.4864 
L 103.33993 191.16 
L 103.33993 187.8336 
L 103.33993 184.5072 
" clip-path="url(#p1ef09df883)" style="fill: #ff9400"/>
   </g>
   <g id="PathCollection_9">
    <path d="M 103.33993 232.928631 
L 103.009217 232.819802 
L 102.546505 232.671083 
L 101.276976 232.254012 
L 100.466866 231.995755 
L 100.138493 231.888517 
L 98.970702 231.517583 
L 98.619165 231.403452 
L 97.582464 231.0768 
L 97.264133 230.976393 
L 97.223678 230.963994 
L 95.955594 230.565466 
L 95.411155 230.399574 
L 94.386748 230.080211 
L 93.985503 229.958653 
L 93.285707 229.74127 
L 91.866346 229.313738 
L 91.505833 229.202636 
L 90.751784 228.976793 
L 90.608605 228.932824 
L 89.909689 228.72468 
L 88.886328 228.419731 
L 86.604705 227.7504 
L 86.588635 227.745683 
L 86.585358 227.744739 
L 86.566986 227.739448 
L 84.668075 227.188382 
L 84.276564 227.076822 
L 83.22073 226.77612 
L 82.542741 226.58293 
L 82.41068 226.546506 
L 81.646336 226.329929 
L 81.315656 226.239034 
L 79.842935 225.824048 
L 79.192516 225.646629 
L 78.751982 225.523181 
L 77.82487 225.271135 
L 77.13664 225.079332 
L 75.978147 224.766755 
L 75.854579 224.732506 
L 74.707365 224.424 
L 74.424285 224.347846 
L 74.34508 224.327242 
L 72.954493 223.955968 
L 72.767718 223.907645 
L 71.70771 223.625574 
L 70.878502 223.412191 
L 70.051678 223.193811 
L 69.561024 223.068222 
L 68.985045 222.916596 
L 67.421744 222.518578 
L 67.146041 222.446534 
L 66.357764 222.246896 
L 66.256473 222.220513 
L 65.666487 222.07188 
L 64.495855 221.776952 
L 64.083467 221.6731 
L 62.36718 221.249042 
L 62.104617 221.183585 
L 62.052236 221.170532 
L 61.753958 221.0976 
L 60.014701 220.671082 
L 59.706062 220.596835 
L 58.197279 220.234024 
L 58.041468 220.196206 
L 57.62857 220.0975 
L 57.62857 221.0976 
L 57.62857 224.424 
L 57.62857 227.7504 
L 57.62857 231.0768 
L 57.62857 234.4032 
L 57.62857 237.7296 
L 57.62857 241.056 
L 57.62857 244.3824 
L 57.62857 247.7088 
L 57.62857 251.0352 
L 57.62857 254.3616 
L 57.62857 257.688 
L 57.62857 261.0144 
L 57.62857 262.667601 
L 57.925752 262.774517 
L 58.538729 263.001359 
L 59.589602 263.386089 
L 60.563644 263.748666 
L 60.773687 263.825912 
L 62.1525 264.3408 
L 62.192787 264.355905 
L 62.20955 264.362292 
L 63.618525 264.893629 
L 63.844736 264.980203 
L 64.790373 265.337941 
L 65.899175 265.764273 
L 66.460245 265.977781 
L 67.130563 266.236694 
L 67.382119 266.332727 
L 68.310252 266.69292 
L 69.05262 266.981707 
L 70.797935 267.6672 
L 71.17692 267.816456 
L 71.766113 268.050731 
L 72.791395 268.457509 
L 73.250662 268.64148 
L 73.307645 268.664299 
L 73.325806 268.671675 
L 75.122 269.394273 
L 75.65065 269.610302 
L 76.138185 269.807371 
L 77.06812 270.188682 
L 77.689873 270.441175 
L 78.954741 270.963051 
L 78.965501 270.967441 
L 79.028683 270.9936 
L 80.251549 271.501606 
L 80.828426 271.744968 
L 81.789203 272.146558 
L 82.264987 272.348236 
L 82.807023 272.575577 
L 84.607716 273.342696 
L 84.609529 273.343461 
L 84.614805 273.34572 
L 85.09031 273.549162 
L 86.308306 274.075133 
L 86.675059 274.233226 
L 86.874412 274.32 
L 88.337964 274.957268 
L 88.73084 275.129934 
L 89.103889 275.29428 
L 90.434859 275.881728 
L 90.850764 276.068063 
L 91.403205 276.313129 
L 92.234435 276.686909 
L 92.964397 277.012319 
L 94.181905 277.563379 
L 94.210941 277.57639 
L 94.365047 277.6464 
L 95.487178 278.15766 
L 96.081427 278.432438 
L 97.014735 278.86043 
L 97.519981 279.09524 
L 98.00324 279.317672 
L 99.460441 279.99852 
L 99.71466 280.117486 
L 100.116749 280.306156 
L 101.524631 280.9728 
L 101.673742 281.043263 
L 101.716009 281.063415 
L 102.141306 281.266766 
L 103.014385 281.683492 
L 103.33993 281.84109 
L 103.33993 280.9728 
L 103.33993 277.6464 
L 103.33993 274.32 
L 103.33993 270.9936 
L 103.33993 267.6672 
L 103.33993 264.3408 
L 103.33993 261.0144 
L 103.33993 257.688 
L 103.33993 254.3616 
L 103.33993 251.0352 
L 103.33993 247.7088 
L 103.33993 244.3824 
L 103.33993 241.056 
L 103.33993 237.7296 
L 103.33993 234.4032 
" clip-path="url(#p1ef09df883)" style="fill: #ff3800"/>
   </g>
   <g id="PathCollection_10">
    <path d="M 103.33993 281.84109 
L 103.014385 281.683492 
L 102.141306 281.266766 
L 101.716009 281.063415 
L 101.673742 281.043263 
L 101.524631 280.9728 
L 100.116749 280.306156 
L 99.71466 280.117486 
L 99.460441 279.99852 
L 98.00324 279.317672 
L 97.519981 279.09524 
L 97.014735 278.86043 
L 96.081427 278.432438 
L 95.487178 278.15766 
L 94.365047 277.6464 
L 94.210941 277.57639 
L 94.181905 277.563379 
L 92.964397 277.012319 
L 92.234435 276.686909 
L 91.403205 276.313129 
L 90.850764 276.068063 
L 90.434859 275.881728 
L 89.103889 275.29428 
L 88.73084 275.129934 
L 88.337964 274.957268 
L 86.874412 274.32 
L 86.675059 274.233226 
L 86.308306 274.075133 
L 85.09031 273.549162 
L 84.614805 273.34572 
L 84.609529 273.343461 
L 84.607716 273.342696 
L 82.807023 272.575577 
L 82.264987 272.348236 
L 81.789203 272.146558 
L 80.828426 271.744968 
L 80.251549 271.501606 
L 79.028683 270.9936 
L 78.965501 270.967441 
L 78.954741 270.963051 
L 77.689873 270.441175 
L 77.06812 270.188682 
L 76.138185 269.807371 
L 75.65065 269.610302 
L 75.122 269.394273 
L 73.325806 268.671675 
L 73.307645 268.664299 
L 73.250662 268.64148 
L 72.791395 268.457509 
L 71.766113 268.050731 
L 71.17692 267.816456 
L 70.797935 267.6672 
L 69.05262 266.981707 
L 68.310252 266.69292 
L 67.382119 266.332727 
L 67.130563 266.236694 
L 66.460245 265.977781 
L 65.899175 265.764273 
L 64.790373 265.337941 
L 63.844736 264.980203 
L 63.618525 264.893629 
L 62.20955 264.362292 
L 62.192787 264.355905 
L 62.1525 264.3408 
L 60.773687 263.825912 
L 60.563644 263.748666 
L 59.589602 263.386089 
L 58.538729 263.001359 
L 57.925752 262.774517 
L 57.62857 262.667601 
L 57.62857 264.3408 
L 57.62857 267.6672 
L 57.62857 270.9936 
L 57.62857 274.32 
L 57.62857 277.6464 
L 57.62857 280.9728 
L 57.62857 284.2992 
L 57.62857 287.6256 
L 57.62857 290.952 
L 57.62857 294.2784 
L 57.62857 297.6048 
L 57.62857 300.9312 
L 57.62857 304.2576 
L 57.62857 307.584 
L 59.152282 307.584 
L 60.675994 307.584 
L 62.199706 307.584 
L 63.723418 307.584 
L 65.24713 307.584 
L 66.770842 307.584 
L 68.294554 307.584 
L 69.818266 307.584 
L 71.341978 307.584 
L 72.86569 307.584 
L 74.389402 307.584 
L 75.913114 307.584 
L 77.436826 307.584 
L 78.960538 307.584 
L 80.48425 307.584 
L 82.007962 307.584 
L 83.531674 307.584 
L 85.055386 307.584 
L 86.579098 307.584 
L 88.10281 307.584 
L 89.626522 307.584 
L 91.150234 307.584 
L 92.673946 307.584 
L 94.197658 307.584 
L 95.72137 307.584 
L 97.245082 307.584 
L 98.768794 307.584 
L 100.292506 307.584 
L 101.816218 307.584 
L 103.33993 307.584 
L 103.33993 304.2576 
L 103.33993 300.9312 
L 103.33993 297.6048 
L 103.33993 294.2784 
L 103.33993 290.952 
L 103.33993 287.6256 
L 103.33993 284.2992 
" clip-path="url(#p1ef09df883)" style="fill: #b60000"/>
   </g>
   <g id="PathCollection_11">
    <path clip-path="url(#p1ef09df883)" style="fill: #0000b6"/>
   </g>
   <g id="PathCollection_12">
    <path clip-path="url(#p1ef09df883)" style="fill: #0018ff"/>
   </g>
   <g id="PathCollection_13">
    <path clip-path="url(#p1ef09df883)" style="fill: #0080ff"/>
   </g>
   <g id="PathCollection_14">
    <path clip-path="url(#p1ef09df883)" style="fill: #00e4f8"/>
   </g>
   <g id="PathCollection_15">
    <path d="M 100.4544 66.31807 
L 101.293631 65.862967 
L 104.842085 64.020937 
L 108.756465 61.81088 
L 111.176241 60.405265 
L 113.208969 59.2128 
L 116.526012 57.174041 
L 117.356556 56.61472 
L 118.692768 55.762954 
L 121.563464 53.821751 
L 125.531039 51.210818 
L 126.753468 50.3424 
L 131.519142 46.865772 
L 135.145671 44.07008 
L 135.179737 44.043307 
L 138.39536 41.472 
L 132.83328 41.472 
L 124.73856 41.472 
L 116.64384 41.472 
L 108.54912 41.472 
L 100.4544 41.472 
L 100.4544 50.3424 
L 100.4544 59.2128 
" clip-path="url(#p1ef09df883)" style="fill: #53ffa4"/>
   </g>
   <g id="PathCollection_16">
    <path d="M 138.39536 41.472 
L 135.179737 44.043307 
L 135.145671 44.07008 
L 131.519142 46.865772 
L 126.753468 50.3424 
L 125.531039 51.210818 
L 121.563464 53.821751 
L 118.692768 55.762954 
L 117.356556 56.61472 
L 116.526012 57.174041 
L 113.208969 59.2128 
L 111.176241 60.405265 
L 108.756465 61.81088 
L 104.842085 64.020937 
L 101.293631 65.862967 
L 100.4544 66.31807 
L 100.4544 68.0832 
L 100.4544 76.9536 
L 100.4544 85.824 
L 100.4544 94.6944 
L 100.4544 103.5648 
L 100.4544 112.4352 
L 100.4544 121.3056 
L 100.4544 128.607582 
L 102.068648 128.407067 
L 104.115903 128.163737 
L 108.493598 127.57792 
L 113.635003 126.87884 
L 114.600005 126.712681 
L 118.485326 126.177354 
L 120.629379 125.808545 
L 127.916564 124.788138 
L 131.777472 124.098799 
L 133.781457 123.814056 
L 139.584017 122.778371 
L 141.958548 122.434901 
L 148.034711 121.3056 
L 148.956596 121.130666 
L 149.101381 121.097497 
L 155.77148 119.830663 
L 159.196004 119.027857 
L 163.991044 118.075068 
L 166.67811 117.427348 
L 169.292706 116.906766 
L 176.865927 115.03328 
L 178.255704 114.6815 
L 186.551556 112.4352 
L 188.349866 111.914818 
L 195.085391 109.83712 
L 195.189954 109.804029 
L 195.239724 109.785339 
L 199.42448 108.41527 
L 202.233087 107.348327 
L 207.498507 105.551255 
L 212.373201 103.5648 
L 213.588143 103.055961 
L 214.057576 102.831727 
L 219.207774 100.641766 
L 225.913927 97.29248 
L 226.702345 96.885469 
L 230.761376 94.6944 
L 232.978188 93.431692 
L 233.911315 92.809182 
L 235.05252 92.09632 
L 240.540078 88.536648 
L 244.163677 85.824 
L 245.70801 84.629928 
L 247.041613 83.489949 
L 249.985912 81.146833 
L 251.733888 79.55168 
L 254.386084 77.013517 
L 254.410121 76.992337 
L 254.447218 76.9536 
L 254.588586 76.801766 
L 257.048502 74.35552 
L 258.54795 72.788532 
L 262.204996 68.463642 
L 262.406788 68.236611 
L 262.531559 68.0832 
L 266.186236 63.41796 
L 267.30021 61.81088 
L 268.378815 60.149981 
L 269.063321 59.2128 
L 269.376232 58.728352 
L 270.750412 56.61472 
L 272.915472 53.051228 
L 274.38213 50.3424 
L 276.786176 45.707215 
L 277.577925 44.07008 
L 278.707964 41.657988 
L 278.793246 41.472 
L 278.53824 41.472 
L 270.44352 41.472 
L 262.3488 41.472 
L 254.25408 41.472 
L 246.15936 41.472 
L 238.06464 41.472 
L 229.96992 41.472 
L 221.8752 41.472 
L 213.78048 41.472 
L 205.68576 41.472 
L 197.59104 41.472 
L 189.49632 41.472 
L 181.4016 41.472 
L 173.30688 41.472 
L 165.21216 41.472 
L 157.11744 41.472 
L 149.02272 41.472 
L 140.928 41.472 
" clip-path="url(#p1ef09df883)" style="fill: #a4ff53"/>
   </g>
   <g id="PathCollection_17">
    <path d="M 278.793246 41.472 
L 278.707964 41.657988 
L 277.577925 44.07008 
L 276.786176 45.707215 
L 274.38213 50.3424 
L 272.915472 53.051228 
L 270.750412 56.61472 
L 269.376232 58.728352 
L 269.063321 59.2128 
L 268.378815 60.149981 
L 267.30021 61.81088 
L 266.186236 63.41796 
L 262.531559 68.0832 
L 262.406788 68.236611 
L 262.204996 68.463642 
L 258.54795 72.788532 
L 257.048502 74.35552 
L 254.588586 76.801766 
L 254.447218 76.9536 
L 254.410121 76.992337 
L 254.386084 77.013517 
L 251.733888 79.55168 
L 249.985912 81.146833 
L 247.041613 83.489949 
L 245.70801 84.629928 
L 244.163677 85.824 
L 240.540078 88.536648 
L 235.05252 92.09632 
L 233.911315 92.809182 
L 232.978188 93.431692 
L 230.761376 94.6944 
L 226.702345 96.885469 
L 225.913927 97.29248 
L 219.207774 100.641766 
L 214.057576 102.831727 
L 213.588143 103.055961 
L 212.373201 103.5648 
L 207.498507 105.551255 
L 202.233087 107.348327 
L 199.42448 108.41527 
L 195.239724 109.785339 
L 195.189954 109.804029 
L 195.085391 109.83712 
L 188.349866 111.914818 
L 186.551556 112.4352 
L 178.255704 114.6815 
L 176.865927 115.03328 
L 169.292706 116.906766 
L 166.67811 117.427348 
L 163.991044 118.075068 
L 159.196004 119.027857 
L 155.77148 119.830663 
L 149.101381 121.097497 
L 148.956596 121.130666 
L 148.034711 121.3056 
L 141.958548 122.434901 
L 139.584017 122.778371 
L 133.781457 123.814056 
L 131.777472 124.098799 
L 127.916564 124.788138 
L 120.629379 125.808545 
L 118.485326 126.177354 
L 114.600005 126.712681 
L 113.635003 126.87884 
L 108.493598 127.57792 
L 104.115903 128.163737 
L 102.068648 128.407067 
L 100.4544 128.607582 
L 100.4544 130.176 
L 100.4544 139.0464 
L 100.4544 147.9168 
L 100.4544 156.7872 
L 100.4544 165.6576 
L 100.4544 174.528 
L 100.4544 182.467529 
L 101.212377 182.56779 
L 107.182889 183.3984 
L 108.229761 183.543359 
L 109.197709 183.692798 
L 118.219304 185.016801 
L 120.378442 185.377483 
L 124.066016 185.99648 
L 129.619474 186.920171 
L 130.910287 187.181413 
L 134.519319 187.808288 
L 137.404419 188.407571 
L 143.449789 189.50536 
L 148.390761 190.596918 
L 149.569903 190.821197 
L 155.94271 192.2688 
L 156.918122 192.487218 
L 157.444437 192.627131 
L 164.44425 194.30035 
L 166.16088 194.778693 
L 170.125696 195.754822 
L 178.807444 198.296457 
L 179.094509 198.372341 
L 179.642158 198.54112 
L 181.729716 199.211146 
L 187.825691 201.1392 
L 188.801651 201.454514 
L 195.046987 203.65868 
L 195.269626 203.73728 
L 199.388589 205.254082 
L 202.553049 206.576696 
L 207.173307 208.379508 
L 210.759703 210.0096 
L 213.344793 211.162233 
L 214.420011 211.701516 
L 218.576167 213.624764 
L 223.541404 216.28192 
L 225.41858 217.271639 
L 226.356225 217.767589 
L 228.209632 218.88 
L 232.480628 221.414615 
L 232.578121 221.47808 
L 239.653301 226.009505 
L 242.014213 227.7504 
L 245.271315 230.099775 
L 247.818006 232.138442 
L 249.256078 233.227337 
L 250.167624 234.02272 
L 252.013012 235.603566 
L 253.230531 236.6208 
L 253.476254 236.813895 
L 253.594502 236.920186 
L 256.128662 239.21888 
L 258.252525 241.109602 
L 262.225839 245.1659 
L 262.405424 245.341398 
L 262.543768 245.4912 
L 266.565311 249.74104 
L 268.223157 251.76352 
L 270.375711 254.330821 
L 270.390344 254.348399 
L 270.40246 254.3616 
L 270.414282 254.374871 
L 272.468934 256.95968 
L 274.212362 259.102007 
L 277.122268 263.232 
L 278.052244 264.517731 
L 280.346855 268.016792 
L 281.161144 269.228155 
L 281.319591 269.50432 
L 281.470231 269.759008 
L 282.921917 272.1024 
L 283.464599 272.888943 
L 283.763399 273.40491 
L 284.486873 274.70048 
L 287.534448 279.984927 
L 288.017254 280.9728 
L 289.72286 284.358791 
L 291.234607 287.24512 
L 291.456649 287.6537 
L 292.458023 289.8432 
L 293.582923 292.136894 
L 293.702199 292.44128 
L 295.557194 296.519073 
L 296.453045 298.7136 
L 298.467063 303.48629 
L 298.988817 304.98592 
L 299.368415 306.016216 
L 299.986789 307.584 
L 302.8224 307.584 
L 310.91712 307.584 
L 319.01184 307.584 
L 327.10656 307.584 
L 335.20128 307.584 
L 343.296 307.584 
L 343.296 298.7136 
L 343.296 289.8432 
L 343.296 280.9728 
L 343.296 272.1024 
L 343.296 263.232 
L 343.296 254.3616 
L 343.296 245.4912 
L 343.296 236.6208 
L 343.296 227.7504 
L 343.296 218.88 
L 343.296 210.0096 
L 343.296 201.1392 
L 343.296 192.2688 
L 343.296 183.3984 
L 343.296 174.528 
L 343.296 165.6576 
L 343.296 156.7872 
L 343.296 147.9168 
L 343.296 139.0464 
L 343.296 130.176 
L 343.296 121.3056 
L 343.296 112.4352 
L 343.296 103.5648 
L 343.296 94.6944 
L 343.296 85.824 
L 343.296 76.9536 
L 343.296 68.0832 
L 343.296 59.2128 
L 343.296 50.3424 
L 343.296 41.472 
L 335.20128 41.472 
L 327.10656 41.472 
L 319.01184 41.472 
L 310.91712 41.472 
L 302.8224 41.472 
L 294.72768 41.472 
L 286.63296 41.472 
" clip-path="url(#p1ef09df883)" style="fill: #f8f500"/>
   </g>
   <g id="PathCollection_18">
    <path d="M 299.986789 307.584 
L 299.368415 306.016216 
L 298.988817 304.98592 
L 298.467063 303.48629 
L 296.453045 298.7136 
L 295.557194 296.519073 
L 293.702199 292.44128 
L 293.582923 292.136894 
L 292.458023 289.8432 
L 291.456649 287.6537 
L 291.234607 287.24512 
L 289.72286 284.358791 
L 288.017254 280.9728 
L 287.534448 279.984927 
L 284.486873 274.70048 
L 283.763399 273.40491 
L 283.464599 272.888943 
L 282.921917 272.1024 
L 281.470231 269.759008 
L 281.319591 269.50432 
L 281.161144 269.228155 
L 280.346855 268.016792 
L 278.052244 264.517731 
L 277.122268 263.232 
L 274.212362 259.102007 
L 272.468934 256.95968 
L 270.414282 254.374871 
L 270.40246 254.3616 
L 270.390344 254.348399 
L 270.375711 254.330821 
L 268.223157 251.76352 
L 266.565311 249.74104 
L 262.543768 245.4912 
L 262.405424 245.341398 
L 262.225839 245.1659 
L 258.252525 241.109602 
L 256.128662 239.21888 
L 253.594502 236.920186 
L 253.476254 236.813895 
L 253.230531 236.6208 
L 252.013012 235.603566 
L 250.167624 234.02272 
L 249.256078 233.227337 
L 247.818006 232.138442 
L 245.271315 230.099775 
L 242.014213 227.7504 
L 239.653301 226.009505 
L 232.578121 221.47808 
L 232.480628 221.414615 
L 228.209632 218.88 
L 226.356225 217.767589 
L 225.41858 217.271639 
L 223.541404 216.28192 
L 218.576167 213.624764 
L 214.420011 211.701516 
L 213.344793 211.162233 
L 210.759703 210.0096 
L 207.173307 208.379508 
L 202.553049 206.576696 
L 199.388589 205.254082 
L 195.269626 203.73728 
L 195.046987 203.65868 
L 188.801651 201.454514 
L 187.825691 201.1392 
L 181.729716 199.211146 
L 179.642158 198.54112 
L 179.094509 198.372341 
L 178.807444 198.296457 
L 170.125696 195.754822 
L 166.16088 194.778693 
L 164.44425 194.30035 
L 157.444437 192.627131 
L 156.918122 192.487218 
L 155.94271 192.2688 
L 149.569903 190.821197 
L 148.390761 190.596918 
L 143.449789 189.50536 
L 137.404419 188.407571 
L 134.519319 187.808288 
L 130.910287 187.181413 
L 129.619474 186.920171 
L 124.066016 185.99648 
L 120.378442 185.377483 
L 118.219304 185.016801 
L 109.197709 183.692798 
L 108.229761 183.543359 
L 107.182889 183.3984 
L 101.212377 182.56779 
L 100.4544 182.467529 
L 100.4544 183.3984 
L 100.4544 192.2688 
L 100.4544 201.1392 
L 100.4544 210.0096 
L 100.4544 218.88 
L 100.4544 227.7504 
L 100.4544 231.986572 
L 102.284299 232.591502 
L 103.724514 233.037326 
L 106.622722 234.02272 
L 111.003719 235.506643 
L 114.121117 236.6208 
L 118.485076 238.173223 
L 120.027288 238.759274 
L 121.229692 239.21888 
L 128.083273 241.825978 
L 132.072531 243.478596 
L 133.396839 244.000272 
L 136.914945 245.4912 
L 139.813747 246.712227 
L 143.638447 248.461377 
L 147.289031 250.077771 
L 150.83952 251.76352 
L 155.130939 253.868452 
L 156.158125 254.3616 
L 156.621942 254.586509 
L 161.246459 256.95968 
L 162.335381 257.514048 
L 163.23903 258.011974 
L 166.526302 259.755364 
L 172.666255 263.232 
L 173.089911 263.46976 
L 174.063031 264.06061 
L 179.798632 267.472741 
L 183.000421 269.50432 
L 185.393643 271.083913 
L 186.985866 272.1024 
L 187.696459 272.549214 
L 188.024904 272.770284 
L 190.836362 274.70048 
L 193.544983 276.536172 
L 196.824088 278.943785 
L 198.032438 279.805056 
L 199.569767 280.9728 
L 203.200866 283.69581 
L 207.560179 287.24512 
L 208.953107 288.360132 
L 209.58029 288.876386 
L 210.665707 289.8432 
L 212.676255 291.578585 
L 213.718176 292.44128 
L 215.549483 294.033603 
L 220.609555 298.7136 
L 221.300561 299.343304 
L 226.992965 304.98592 
L 227.186366 305.173231 
L 229.502121 307.584 
L 229.96992 307.584 
L 238.06464 307.584 
L 246.15936 307.584 
L 254.25408 307.584 
L 262.3488 307.584 
L 270.44352 307.584 
L 278.53824 307.584 
L 286.63296 307.584 
L 294.72768 307.584 
" clip-path="url(#p1ef09df883)" style="fill: #ff9400"/>
   </g>
   <g id="PathCollection_19">
    <path d="M 229.502121 307.584 
L 227.186366 305.173231 
L 226.992965 304.98592 
L 221.300561 299.343304 
L 220.609555 298.7136 
L 215.549483 294.033603 
L 213.718176 292.44128 
L 212.676255 291.578585 
L 210.665707 289.8432 
L 209.58029 288.876386 
L 208.953107 288.360132 
L 207.560179 287.24512 
L 203.200866 283.69581 
L 199.569767 280.9728 
L 198.032438 279.805056 
L 196.824088 278.943785 
L 193.544983 276.536172 
L 190.836362 274.70048 
L 188.024904 272.770284 
L 187.696459 272.549214 
L 186.985866 272.1024 
L 185.393643 271.083913 
L 183.000421 269.50432 
L 179.798632 267.472741 
L 174.063031 264.06061 
L 173.089911 263.46976 
L 172.666255 263.232 
L 166.526302 259.755364 
L 163.23903 258.011974 
L 162.335381 257.514048 
L 161.246459 256.95968 
L 156.621942 254.586509 
L 156.158125 254.3616 
L 155.130939 253.868452 
L 150.83952 251.76352 
L 147.289031 250.077771 
L 143.638447 248.461377 
L 139.813747 246.712227 
L 136.914945 245.4912 
L 133.396839 244.000272 
L 132.072531 243.478596 
L 128.083273 241.825978 
L 121.229692 239.21888 
L 120.027288 238.759274 
L 118.485076 238.173223 
L 114.121117 236.6208 
L 111.003719 235.506643 
L 106.622722 234.02272 
L 103.724514 233.037326 
L 102.284299 232.591502 
L 100.4544 231.986572 
L 100.4544 236.6208 
L 100.4544 245.4912 
L 100.4544 254.3616 
L 100.4544 263.232 
L 100.4544 272.1024 
L 100.4544 280.468204 
L 100.617229 280.542027 
L 101.520662 280.9728 
L 106.409241 283.317733 
L 114.205167 287.24512 
L 114.237308 287.261299 
L 115.769978 288.050627 
L 119.128022 289.8432 
L 121.72664 291.210328 
L 123.952809 292.44128 
L 128.283763 294.828677 
L 132.227275 297.110381 
L 133.224592 297.678361 
L 134.969971 298.7136 
L 138.832112 301.010328 
L 145.19645 304.98592 
L 145.811309 305.367438 
L 148.709385 307.24064 
L 149.103715 307.495243 
L 149.237364 307.584 
L 157.11744 307.584 
L 165.21216 307.584 
L 173.30688 307.584 
L 181.4016 307.584 
L 189.49632 307.584 
L 197.59104 307.584 
L 205.68576 307.584 
L 213.78048 307.584 
L 221.8752 307.584 
" clip-path="url(#p1ef09df883)" style="fill: #ff3800"/>
   </g>
   <g id="PathCollection_20">
    <path d="M 149.237364 307.584 
L 149.103715 307.495243 
L 148.709385 307.24064 
L 145.811309 305.367438 
L 145.19645 304.98592 
L 138.832112 301.010328 
L 134.969971 298.7136 
L 133.224592 297.678361 
L 132.227275 297.110381 
L 128.283763 294.828677 
L 123.952809 292.44128 
L 121.72664 291.210328 
L 119.128022 289.8432 
L 115.769978 288.050627 
L 114.237308 287.261299 
L 114.205167 287.24512 
L 106.409241 283.317733 
L 101.520662 280.9728 
L 100.617229 280.542027 
L 100.4544 280.468204 
L 100.4544 280.9728 
L 100.4544 289.8432 
L 100.4544 298.7136 
L 100.4544 307.584 
L 108.54912 307.584 
L 116.64384 307.584 
L 124.73856 307.584 
L 132.83328 307.584 
L 140.928 307.584 
L 149.02272 307.584 
" clip-path="url(#p1ef09df883)" style="fill: #b60000"/>
   </g>
   <g id="matplotlib.axis_1">
    <g id="xtick_1">
     <g id="line2d_1">
      <defs>
       <path id="mf594aa647e" d="M 0 0 
L 0 3.5 
" style="stroke: #000000; stroke-width: 0.8"/>
      </defs>
      <g>
       <use xlink:href="#mf594aa647e" x="57.6" y="307.584" style="stroke: #000000; stroke-width: 0.8"/>
      </g>
     </g>
     <g id="text_1">
      <!-- 0.0 -->
      <g transform="translate(51.26875 321.385562) scale(0.1 -0.1)">
       <defs>
        <path id="Calibri-30" d="M 3022 2031 
Q 3022 1566 2948 1181 
Q 2875 797 2704 520 
Q 2534 244 2259 92 
Q 1984 -59 1581 -59 
Q 1200 -59 939 77 
Q 678 213 518 477 
Q 359 741 292 1127 
Q 225 1513 225 2013 
Q 225 2475 300 2861 
Q 375 3247 544 3523 
Q 713 3800 988 3951 
Q 1263 4103 1663 4103 
Q 2047 4103 2308 3967 
Q 2569 3831 2728 3567 
Q 2888 3303 2955 2917 
Q 3022 2531 3022 2031 
z
M 2472 1994 
Q 2472 2297 2450 2537 
Q 2428 2778 2386 2962 
Q 2344 3147 2276 3280 
Q 2209 3413 2115 3498 
Q 2022 3584 1901 3623 
Q 1781 3663 1631 3663 
Q 1366 3663 1200 3538 
Q 1034 3413 939 3194 
Q 844 2975 809 2681 
Q 775 2388 775 2050 
Q 775 1597 822 1280 
Q 869 963 970 763 
Q 1072 563 1230 472 
Q 1388 381 1613 381 
Q 1788 381 1920 437 
Q 2053 494 2148 598 
Q 2244 703 2306 850 
Q 2369 997 2406 1175 
Q 2444 1353 2458 1561 
Q 2472 1769 2472 1994 
z
" transform="scale(0.015625)"/>
        <path id="Calibri-2e" d="M 1144 341 
Q 1144 119 1070 45 
Q 997 -28 803 -28 
Q 616 -28 544 44 
Q 472 116 472 331 
Q 472 553 545 626 
Q 619 700 813 700 
Q 1000 700 1072 628 
Q 1144 556 1144 341 
z
" transform="scale(0.015625)"/>
       </defs>
       <use xlink:href="#Calibri-30"/>
       <use xlink:href="#Calibri-2e" x="50.683594"/>
       <use xlink:href="#Calibri-30" x="75.927734"/>
      </g>
     </g>
    </g>
    <g id="xtick_2">
     <g id="line2d_2">
      <g>
       <use xlink:href="#mf594aa647e" x="86.1696" y="307.584" style="stroke: #000000; stroke-width: 0.8"/>
      </g>
     </g>
     <g id="text_2">
      <!-- 0.1 -->
      <g transform="translate(79.83835 321.385562) scale(0.1 -0.1)">
       <defs>
        <path id="Calibri-31" d="M 2897 213 
Q 2897 153 2887 112 
Q 2878 72 2862 47 
Q 2847 22 2826 11 
Q 2806 0 2784 0 
L 672 0 
Q 650 0 631 11 
Q 613 22 595 47 
Q 578 72 568 112 
Q 559 153 559 213 
Q 559 269 568 309 
Q 578 350 592 376 
Q 606 403 626 417 
Q 647 431 672 431 
L 1516 431 
L 1516 3506 
L 734 3041 
Q 675 3009 639 3003 
Q 603 2997 581 3017 
Q 559 3038 551 3084 
Q 544 3131 544 3203 
Q 544 3256 548 3293 
Q 553 3331 562 3356 
Q 572 3381 589 3400 
Q 606 3419 634 3438 
L 1566 4034 
Q 1578 4044 1597 4050 
Q 1616 4056 1644 4062 
Q 1672 4069 1709 4070 
Q 1747 4072 1803 4072 
Q 1878 4072 1928 4065 
Q 1978 4059 2006 4048 
Q 2034 4038 2043 4020 
Q 2053 4003 2053 3984 
L 2053 431 
L 2784 431 
Q 2809 431 2831 417 
Q 2853 403 2867 376 
Q 2881 350 2889 309 
Q 2897 269 2897 213 
z
" transform="scale(0.015625)"/>
       </defs>
       <use xlink:href="#Calibri-30"/>
       <use xlink:href="#Calibri-2e" x="50.683594"/>
       <use xlink:href="#Calibri-31" x="75.927734"/>
      </g>
     </g>
    </g>
    <g id="xtick_3">
     <g id="line2d_3">
      <g>
       <use xlink:href="#mf594aa647e" x="114.7392" y="307.584" style="stroke: #000000; stroke-width: 0.8"/>
      </g>
     </g>
     <g id="text_3">
      <!-- 0.2 -->
      <g transform="translate(108.40795 321.385562) scale(0.1 -0.1)">
       <defs>
        <path id="Calibri-32" d="M 2888 231 
Q 2888 175 2880 131 
Q 2872 88 2858 58 
Q 2844 28 2820 14 
Q 2797 0 2769 0 
L 534 0 
Q 491 0 458 11 
Q 425 22 401 47 
Q 378 72 367 119 
Q 356 166 356 234 
Q 356 297 361 344 
Q 366 391 381 427 
Q 397 463 420 498 
Q 444 534 481 575 
L 1266 1406 
Q 1538 1694 1702 1922 
Q 1866 2150 1955 2337 
Q 2044 2525 2072 2678 
Q 2100 2831 2100 2966 
Q 2100 3100 2056 3220 
Q 2013 3341 1930 3431 
Q 1847 3522 1722 3575 
Q 1597 3628 1434 3628 
Q 1244 3628 1092 3575 
Q 941 3522 827 3459 
Q 713 3397 636 3344 
Q 559 3291 522 3291 
Q 500 3291 483 3303 
Q 466 3316 455 3344 
Q 444 3372 437 3419 
Q 431 3466 431 3531 
Q 431 3578 434 3612 
Q 438 3647 445 3672 
Q 453 3697 465 3719 
Q 478 3741 515 3773 
Q 553 3806 645 3862 
Q 738 3919 877 3973 
Q 1016 4028 1183 4065 
Q 1350 4103 1534 4103 
Q 1828 4103 2048 4020 
Q 2269 3938 2414 3794 
Q 2559 3650 2631 3459 
Q 2703 3269 2703 3053 
Q 2703 2859 2668 2667 
Q 2634 2475 2523 2251 
Q 2413 2028 2203 1754 
Q 1994 1481 1647 1125 
L 1006 456 
L 2766 456 
Q 2791 456 2814 442 
Q 2838 428 2855 400 
Q 2872 372 2880 330 
Q 2888 288 2888 231 
z
" transform="scale(0.015625)"/>
       </defs>
       <use xlink:href="#Calibri-30"/>
       <use xlink:href="#Calibri-2e" x="50.683594"/>
       <use xlink:href="#Calibri-32" x="75.927734"/>
      </g>
     </g>
    </g>
    <g id="xtick_4">
     <g id="line2d_4">
      <g>
       <use xlink:href="#mf594aa647e" x="143.3088" y="307.584" style="stroke: #000000; stroke-width: 0.8"/>
      </g>
     </g>
     <g id="text_4">
      <!-- 0.3 -->
      <g transform="translate(136.97755 321.385562) scale(0.1 -0.1)">
       <defs>
        <path id="Calibri-33" d="M 2856 1156 
Q 2856 878 2759 654 
Q 2663 431 2481 272 
Q 2300 113 2034 27 
Q 1769 -59 1434 -59 
Q 1231 -59 1054 -26 
Q 878 6 740 51 
Q 603 97 512 145 
Q 422 194 398 216 
Q 375 238 362 259 
Q 350 281 340 312 
Q 331 344 326 389 
Q 322 434 322 500 
Q 322 613 344 656 
Q 366 700 406 700 
Q 434 700 517 650 
Q 600 600 729 542 
Q 859 484 1032 434 
Q 1206 384 1419 384 
Q 1625 384 1781 437 
Q 1938 491 2044 587 
Q 2150 684 2203 817 
Q 2256 950 2256 1106 
Q 2256 1278 2189 1415 
Q 2122 1553 1992 1653 
Q 1863 1753 1673 1806 
Q 1484 1859 1244 1859 
L 859 1859 
Q 834 1859 811 1870 
Q 788 1881 770 1906 
Q 753 1931 742 1972 
Q 731 2013 731 2078 
Q 731 2138 740 2177 
Q 750 2216 767 2239 
Q 784 2263 806 2273 
Q 828 2284 856 2284 
L 1209 2284 
Q 1416 2284 1580 2337 
Q 1744 2391 1858 2491 
Q 1972 2591 2033 2730 
Q 2094 2869 2094 3041 
Q 2094 3166 2053 3280 
Q 2013 3394 1931 3478 
Q 1850 3563 1723 3611 
Q 1597 3659 1431 3659 
Q 1250 3659 1098 3604 
Q 947 3550 828 3487 
Q 709 3425 631 3370 
Q 553 3316 522 3316 
Q 500 3316 483 3323 
Q 466 3331 455 3354 
Q 444 3378 439 3420 
Q 434 3463 434 3531 
Q 434 3578 437 3614 
Q 441 3650 450 3676 
Q 459 3703 471 3725 
Q 484 3747 514 3776 
Q 544 3806 634 3862 
Q 725 3919 858 3973 
Q 991 4028 1164 4065 
Q 1338 4103 1538 4103 
Q 1819 4103 2031 4031 
Q 2244 3959 2386 3828 
Q 2528 3697 2598 3514 
Q 2669 3331 2669 3109 
Q 2669 2919 2619 2755 
Q 2569 2591 2472 2464 
Q 2375 2338 2234 2248 
Q 2094 2159 1909 2125 
L 1909 2119 
Q 2119 2097 2292 2014 
Q 2466 1931 2591 1806 
Q 2716 1681 2786 1514 
Q 2856 1347 2856 1156 
z
" transform="scale(0.015625)"/>
       </defs>
       <use xlink:href="#Calibri-30"/>
       <use xlink:href="#Calibri-2e" x="50.683594"/>
       <use xlink:href="#Calibri-33" x="75.927734"/>
      </g>
     </g>
    </g>
    <g id="xtick_5">
     <g id="line2d_5">
      <g>
       <use xlink:href="#mf594aa647e" x="171.8784" y="307.584" style="stroke: #000000; stroke-width: 0.8"/>
      </g>
     </g>
     <g id="text_5">
      <!-- 0.4 -->
      <g transform="translate(165.54715 321.385562) scale(0.1 -0.1)">
       <defs>
        <path id="Calibri-34" d="M 3059 1150 
Q 3059 1047 3028 987 
Q 2997 928 2941 928 
L 2484 928 
L 2484 78 
Q 2484 53 2471 36 
Q 2459 19 2428 6 
Q 2397 -6 2347 -12 
Q 2297 -19 2219 -19 
Q 2144 -19 2094 -12 
Q 2044 -6 2014 6 
Q 1984 19 1973 36 
Q 1963 53 1963 78 
L 1963 928 
L 294 928 
Q 256 928 231 937 
Q 206 947 186 972 
Q 166 997 158 1044 
Q 150 1091 150 1166 
Q 150 1225 153 1272 
Q 156 1319 165 1358 
Q 175 1397 190 1433 
Q 206 1469 228 1509 
L 1684 3966 
Q 1700 3991 1729 4009 
Q 1759 4028 1806 4040 
Q 1853 4053 1922 4058 
Q 1991 4063 2084 4063 
Q 2188 4063 2264 4055 
Q 2341 4047 2387 4034 
Q 2434 4022 2459 4001 
Q 2484 3981 2484 3953 
L 2484 1372 
L 2941 1372 
Q 2994 1372 3026 1317 
Q 3059 1263 3059 1150 
z
M 1963 3591 
L 1956 3591 
L 641 1372 
L 1963 1372 
L 1963 3591 
z
" transform="scale(0.015625)"/>
       </defs>
       <use xlink:href="#Calibri-30"/>
       <use xlink:href="#Calibri-2e" x="50.683594"/>
       <use xlink:href="#Calibri-34" x="75.927734"/>
      </g>
     </g>
    </g>
    <g id="xtick_6">
     <g id="line2d_6">
      <g>
       <use xlink:href="#mf594aa647e" x="200.448" y="307.584" style="stroke: #000000; stroke-width: 0.8"/>
      </g>
     </g>
     <g id="text_6">
      <!-- 0.5 -->
      <g transform="translate(194.11675 321.385562) scale(0.1 -0.1)">
       <defs>
        <path id="Calibri-35" d="M 2869 1300 
Q 2869 975 2759 722 
Q 2650 469 2450 295 
Q 2250 122 1973 31 
Q 1697 -59 1359 -59 
Q 1172 -59 1003 -32 
Q 834 -6 703 33 
Q 572 72 487 109 
Q 403 147 379 169 
Q 356 191 347 209 
Q 338 228 330 254 
Q 322 281 319 322 
Q 316 363 316 419 
Q 316 472 320 514 
Q 325 556 337 582 
Q 350 609 367 621 
Q 384 634 406 634 
Q 438 634 503 595 
Q 569 556 680 511 
Q 791 466 955 425 
Q 1119 384 1344 384 
Q 1553 384 1728 434 
Q 1903 484 2029 590 
Q 2156 697 2228 858 
Q 2300 1019 2300 1250 
Q 2300 1444 2239 1592 
Q 2178 1741 2051 1839 
Q 1925 1938 1731 1986 
Q 1538 2034 1269 2034 
Q 1078 2034 940 2015 
Q 803 1997 684 1997 
Q 597 1997 559 2037 
Q 522 2078 522 2194 
L 522 3841 
Q 522 3944 570 3994 
Q 619 4044 709 4044 
L 2500 4044 
Q 2525 4044 2548 4030 
Q 2572 4016 2587 3987 
Q 2603 3959 2611 3915 
Q 2619 3872 2619 3813 
Q 2619 3700 2587 3637 
Q 2556 3575 2500 3575 
L 991 3575 
L 991 2441 
Q 1100 2456 1214 2459 
Q 1328 2463 1478 2463 
Q 1825 2463 2084 2380 
Q 2344 2297 2517 2145 
Q 2691 1994 2780 1778 
Q 2869 1563 2869 1300 
z
" transform="scale(0.015625)"/>
       </defs>
       <use xlink:href="#Calibri-30"/>
       <use xlink:href="#Calibri-2e" x="50.683594"/>
       <use xlink:href="#Calibri-35" x="75.927734"/>
      </g>
     </g>
    </g>
    <g id="xtick_7">
     <g id="line2d_7">
      <g>
       <use xlink:href="#mf594aa647e" x="229.0176" y="307.584" style="stroke: #000000; stroke-width: 0.8"/>
      </g>
     </g>
     <g id="text_7">
      <!-- 0.6 -->
      <g transform="translate(222.68635 321.385562) scale(0.1 -0.1)">
       <defs>
        <path id="Calibri-36" d="M 2991 1309 
Q 2991 1044 2909 795 
Q 2828 547 2659 358 
Q 2491 169 2231 55 
Q 1972 -59 1619 -59 
Q 1366 -59 1172 3 
Q 978 66 834 181 
Q 691 297 595 465 
Q 500 634 442 850 
Q 384 1066 359 1322 
Q 334 1578 334 1872 
Q 334 2131 362 2397 
Q 391 2663 462 2909 
Q 534 3156 657 3373 
Q 781 3591 967 3752 
Q 1153 3913 1412 4006 
Q 1672 4100 2016 4100 
Q 2131 4100 2250 4086 
Q 2369 4072 2469 4048 
Q 2569 4025 2637 3997 
Q 2706 3969 2728 3951 
Q 2750 3934 2761 3914 
Q 2772 3894 2778 3870 
Q 2784 3847 2787 3817 
Q 2791 3788 2791 3744 
Q 2791 3688 2789 3647 
Q 2788 3606 2777 3581 
Q 2766 3556 2748 3543 
Q 2731 3531 2703 3531 
Q 2669 3531 2609 3553 
Q 2550 3575 2465 3601 
Q 2381 3628 2261 3650 
Q 2141 3672 1981 3672 
Q 1691 3672 1481 3553 
Q 1272 3434 1139 3234 
Q 1006 3034 942 2770 
Q 878 2506 869 2219 
Q 950 2266 1051 2312 
Q 1153 2359 1273 2396 
Q 1394 2434 1528 2457 
Q 1663 2481 1816 2481 
Q 2144 2481 2369 2392 
Q 2594 2303 2733 2145 
Q 2872 1988 2931 1773 
Q 2991 1559 2991 1309 
z
M 2447 1259 
Q 2447 1441 2411 1589 
Q 2375 1738 2290 1841 
Q 2206 1944 2065 2000 
Q 1925 2056 1719 2056 
Q 1603 2056 1487 2036 
Q 1372 2016 1264 1980 
Q 1156 1944 1057 1895 
Q 959 1847 878 1791 
Q 878 1388 929 1116 
Q 981 844 1079 680 
Q 1178 516 1325 445 
Q 1472 375 1669 375 
Q 1869 375 2016 450 
Q 2163 525 2259 651 
Q 2356 778 2401 936 
Q 2447 1094 2447 1259 
z
" transform="scale(0.015625)"/>
       </defs>
       <use xlink:href="#Calibri-30"/>
       <use xlink:href="#Calibri-2e" x="50.683594"/>
       <use xlink:href="#Calibri-36" x="75.927734"/>
      </g>
     </g>
    </g>
    <g id="xtick_8">
     <g id="line2d_8">
      <g>
       <use xlink:href="#mf594aa647e" x="257.5872" y="307.584" style="stroke: #000000; stroke-width: 0.8"/>
      </g>
     </g>
     <g id="text_8">
      <!-- 0.7 -->
      <g transform="translate(251.25595 321.385562) scale(0.1 -0.1)">
       <defs>
        <path id="Calibri-37" d="M 2947 3813 
Q 2947 3756 2942 3711 
Q 2938 3666 2930 3623 
Q 2922 3581 2908 3542 
Q 2894 3503 2875 3459 
L 1419 103 
Q 1403 66 1379 42 
Q 1356 19 1320 5 
Q 1284 -9 1228 -14 
Q 1172 -19 1091 -19 
Q 984 -19 925 -9 
Q 866 0 839 20 
Q 813 41 816 70 
Q 819 100 838 141 
L 2369 3572 
L 428 3572 
Q 369 3572 339 3634 
Q 309 3697 309 3809 
Q 309 3869 317 3912 
Q 325 3956 340 3986 
Q 356 4016 378 4030 
Q 400 4044 428 4044 
L 2784 4044 
Q 2828 4044 2861 4034 
Q 2894 4025 2911 3997 
Q 2928 3969 2937 3925 
Q 2947 3881 2947 3813 
z
" transform="scale(0.015625)"/>
       </defs>
       <use xlink:href="#Calibri-30"/>
       <use xlink:href="#Calibri-2e" x="50.683594"/>
       <use xlink:href="#Calibri-37" x="75.927734"/>
      </g>
     </g>
    </g>
    <g id="xtick_9">
     <g id="line2d_9">
      <g>
       <use xlink:href="#mf594aa647e" x="286.1568" y="307.584" style="stroke: #000000; stroke-width: 0.8"/>
      </g>
     </g>
     <g id="text_9">
      <!-- 0.8 -->
      <g transform="translate(279.82555 321.385562) scale(0.1 -0.1)">
       <defs>
        <path id="Calibri-38" d="M 2981 1038 
Q 2981 775 2887 570 
Q 2794 366 2617 225 
Q 2441 84 2181 12 
Q 1922 -59 1588 -59 
Q 1275 -59 1028 6 
Q 781 72 609 200 
Q 438 328 347 515 
Q 256 703 256 944 
Q 256 1134 318 1293 
Q 381 1453 498 1587 
Q 616 1722 787 1839 
Q 959 1956 1175 2063 
Q 988 2159 844 2267 
Q 700 2375 600 2501 
Q 500 2628 448 2772 
Q 397 2916 397 3084 
Q 397 3297 473 3483 
Q 550 3669 704 3806 
Q 859 3944 1098 4023 
Q 1338 4103 1656 4103 
Q 1963 4103 2186 4029 
Q 2409 3956 2554 3829 
Q 2700 3703 2769 3531 
Q 2838 3359 2838 3163 
Q 2838 3003 2786 2856 
Q 2734 2709 2634 2578 
Q 2534 2447 2389 2333 
Q 2244 2219 2056 2119 
Q 2278 2009 2451 1893 
Q 2625 1778 2742 1645 
Q 2859 1513 2920 1364 
Q 2981 1216 2981 1038 
z
M 2306 3113 
Q 2306 3244 2261 3350 
Q 2216 3456 2128 3531 
Q 2041 3606 1911 3645 
Q 1781 3684 1616 3684 
Q 1278 3684 1104 3531 
Q 931 3378 931 3113 
Q 931 2991 973 2886 
Q 1016 2781 1105 2687 
Q 1194 2594 1330 2505 
Q 1466 2416 1653 2319 
Q 1969 2481 2137 2678 
Q 2306 2875 2306 3113 
z
M 2438 981 
Q 2438 1125 2384 1242 
Q 2331 1359 2223 1461 
Q 2116 1563 1955 1658 
Q 1794 1753 1581 1856 
Q 1384 1759 1236 1662 
Q 1088 1566 992 1462 
Q 897 1359 848 1245 
Q 800 1131 800 994 
Q 800 691 1008 525 
Q 1216 359 1628 359 
Q 2028 359 2233 526 
Q 2438 694 2438 981 
z
" transform="scale(0.015625)"/>
       </defs>
       <use xlink:href="#Calibri-30"/>
       <use xlink:href="#Calibri-2e" x="50.683594"/>
       <use xlink:href="#Calibri-38" x="75.927734"/>
      </g>
     </g>
    </g>
    <g id="xtick_10">
     <g id="line2d_10">
      <g>
       <use xlink:href="#mf594aa647e" x="314.7264" y="307.584" style="stroke: #000000; stroke-width: 0.8"/>
      </g>
     </g>
     <g id="text_10">
      <!-- 0.9 -->
      <g transform="translate(308.39515 321.385562) scale(0.1 -0.1)">
       <defs>
        <path id="Calibri-39" d="M 2919 2181 
Q 2919 1919 2887 1650 
Q 2856 1381 2781 1132 
Q 2706 884 2579 667 
Q 2453 450 2261 287 
Q 2069 125 1805 33 
Q 1541 -59 1191 -59 
Q 1056 -59 929 -42 
Q 803 -25 701 0 
Q 600 25 531 53 
Q 463 81 431 109 
Q 400 138 386 186 
Q 372 234 372 316 
Q 372 384 376 425 
Q 381 466 390 487 
Q 400 509 417 517 
Q 434 525 459 525 
Q 494 525 556 501 
Q 619 478 714 450 
Q 809 422 937 398 
Q 1066 375 1225 375 
Q 1528 375 1745 492 
Q 1963 609 2100 806 
Q 2238 1003 2306 1262 
Q 2375 1522 2381 1809 
Q 2216 1713 1984 1638 
Q 1753 1563 1453 1563 
Q 1116 1563 886 1655 
Q 656 1747 517 1906 
Q 378 2066 317 2284 
Q 256 2503 256 2763 
Q 256 3031 334 3273 
Q 413 3516 578 3700 
Q 744 3884 1000 3993 
Q 1256 4103 1613 4103 
Q 1866 4103 2061 4039 
Q 2256 3975 2400 3854 
Q 2544 3734 2644 3564 
Q 2744 3394 2805 3178 
Q 2866 2963 2892 2711 
Q 2919 2459 2919 2181 
z
M 2372 2241 
Q 2372 2641 2319 2914 
Q 2266 3188 2162 3356 
Q 2059 3525 1909 3600 
Q 1759 3675 1563 3675 
Q 1359 3675 1215 3601 
Q 1072 3528 980 3404 
Q 888 3281 844 3125 
Q 800 2969 800 2803 
Q 800 2619 839 2466 
Q 878 2313 965 2206 
Q 1053 2100 1193 2042 
Q 1334 1984 1541 1984 
Q 1775 1984 1994 2054 
Q 2213 2125 2372 2241 
z
" transform="scale(0.015625)"/>
       </defs>
       <use xlink:href="#Calibri-30"/>
       <use xlink:href="#Calibri-2e" x="50.683594"/>
       <use xlink:href="#Calibri-39" x="75.927734"/>
      </g>
     </g>
    </g>
    <g id="xtick_11">
     <g id="line2d_11">
      <g>
       <use xlink:href="#mf594aa647e" x="343.296" y="307.584" style="stroke: #000000; stroke-width: 0.8"/>
      </g>
     </g>
     <g id="text_11">
      <!-- 1.0 -->
      <g transform="translate(336.96475 321.385562) scale(0.1 -0.1)">
       <use xlink:href="#Calibri-31"/>
       <use xlink:href="#Calibri-2e" x="50.683594"/>
       <use xlink:href="#Calibri-30" x="75.927734"/>
      </g>
     </g>
    </g>
    <g id="text_12">
     <!-- $\mathit{p}$ (cm$^2$/cm$^2$) -->
     <g transform="translate(174.148 336.263687) scale(0.1 -0.1)">
      <defs>
       <path id="DejaVuSans-Oblique-70" d="M 3175 2156 
Q 3175 2616 2975 2859 
Q 2775 3103 2400 3103 
Q 2144 3103 1911 2972 
Q 1678 2841 1497 2591 
Q 1319 2344 1212 1994 
Q 1106 1644 1106 1300 
Q 1106 863 1306 627 
Q 1506 391 1875 391 
Q 2147 391 2380 519 
Q 2613 647 2778 891 
Q 2956 1147 3065 1494 
Q 3175 1841 3175 2156 
z
M 1394 2969 
Q 1625 3272 1939 3428 
Q 2253 3584 2638 3584 
Q 3175 3584 3472 3232 
Q 3769 2881 3769 2247 
Q 3769 1728 3584 1258 
Q 3400 788 3053 416 
Q 2822 169 2531 39 
Q 2241 -91 1919 -91 
Q 1547 -91 1294 64 
Q 1041 219 916 525 
L 556 -1331 
L -19 -1331 
L 922 3500 
L 1497 3500 
L 1394 2969 
z
" transform="scale(0.015625)"/>
       <path id="Calibri-20" transform="scale(0.015625)"/>
       <path id="Calibri-28" d="M 1547 4306 
Q 1250 3678 1104 3017 
Q 959 2356 959 1688 
Q 959 1016 1107 356 
Q 1256 -303 1541 -938 
Q 1556 -975 1557 -1001 
Q 1559 -1028 1537 -1045 
Q 1516 -1063 1470 -1070 
Q 1425 -1078 1347 -1078 
Q 1291 -1078 1250 -1075 
Q 1209 -1072 1179 -1062 
Q 1150 -1053 1131 -1040 
Q 1113 -1028 1103 -1013 
Q 934 -694 806 -367 
Q 678 -41 590 296 
Q 503 634 459 979 
Q 416 1325 416 1678 
Q 416 2031 464 2375 
Q 513 2719 602 3058 
Q 691 3397 819 3725 
Q 947 4053 1106 4375 
Q 1109 4388 1123 4397 
Q 1138 4406 1163 4415 
Q 1188 4425 1231 4429 
Q 1275 4434 1344 4434 
Q 1416 4434 1459 4425 
Q 1503 4416 1528 4400 
Q 1553 4384 1556 4359 
Q 1559 4334 1547 4306 
z
" transform="scale(0.015625)"/>
       <path id="Calibri-63" d="M 2500 506 
Q 2500 453 2497 414 
Q 2494 375 2486 348 
Q 2478 322 2467 301 
Q 2456 281 2417 242 
Q 2378 203 2284 145 
Q 2191 88 2073 42 
Q 1956 -3 1818 -31 
Q 1681 -59 1534 -59 
Q 1231 -59 997 41 
Q 763 141 605 333 
Q 447 525 364 804 
Q 281 1084 281 1450 
Q 281 1866 382 2164 
Q 484 2463 661 2653 
Q 838 2844 1077 2936 
Q 1316 3028 1594 3028 
Q 1728 3028 1854 3003 
Q 1981 2978 2087 2937 
Q 2194 2897 2276 2844 
Q 2359 2791 2396 2753 
Q 2434 2716 2448 2694 
Q 2463 2672 2472 2642 
Q 2481 2613 2484 2575 
Q 2488 2538 2488 2481 
Q 2488 2359 2459 2311 
Q 2431 2263 2391 2263 
Q 2344 2263 2283 2314 
Q 2222 2366 2128 2428 
Q 2034 2491 1901 2542 
Q 1769 2594 1588 2594 
Q 1216 2594 1017 2308 
Q 819 2022 819 1478 
Q 819 1206 870 1001 
Q 922 797 1022 659 
Q 1122 522 1267 455 
Q 1413 388 1600 388 
Q 1778 388 1912 444 
Q 2047 500 2145 567 
Q 2244 634 2311 689 
Q 2378 744 2416 744 
Q 2438 744 2453 731 
Q 2469 719 2480 689 
Q 2491 659 2495 614 
Q 2500 569 2500 506 
z
" transform="scale(0.015625)"/>
       <path id="Calibri-6d" d="M 4650 78 
Q 4650 53 4637 36 
Q 4625 19 4597 6 
Q 4569 -6 4519 -12 
Q 4469 -19 4394 -19 
Q 4316 -19 4266 -12 
Q 4216 -6 4186 6 
Q 4156 19 4143 36 
Q 4131 53 4131 78 
L 4131 1788 
Q 4131 1966 4100 2112 
Q 4069 2259 4000 2365 
Q 3931 2472 3825 2528 
Q 3719 2584 3575 2584 
Q 3397 2584 3217 2446 
Q 3038 2309 2822 2044 
L 2822 78 
Q 2822 53 2809 36 
Q 2797 19 2767 6 
Q 2738 -6 2688 -12 
Q 2638 -19 2563 -19 
Q 2491 -19 2439 -12 
Q 2388 -6 2358 6 
Q 2328 19 2317 36 
Q 2306 53 2306 78 
L 2306 1788 
Q 2306 1966 2272 2112 
Q 2238 2259 2169 2365 
Q 2100 2472 1995 2528 
Q 1891 2584 1747 2584 
Q 1569 2584 1387 2446 
Q 1206 2309 994 2044 
L 994 78 
Q 994 53 981 36 
Q 969 19 941 6 
Q 913 -6 863 -12 
Q 813 -19 734 -19 
Q 659 -19 609 -12 
Q 559 -6 529 6 
Q 500 19 489 36 
Q 478 53 478 78 
L 478 2891 
Q 478 2916 487 2933 
Q 497 2950 525 2964 
Q 553 2978 597 2983 
Q 641 2988 713 2988 
Q 781 2988 826 2983 
Q 872 2978 897 2964 
Q 922 2950 933 2933 
Q 944 2916 944 2891 
L 944 2519 
Q 1181 2784 1404 2907 
Q 1628 3031 1856 3031 
Q 2031 3031 2170 2990 
Q 2309 2950 2415 2876 
Q 2522 2803 2597 2701 
Q 2672 2600 2722 2475 
Q 2863 2628 2989 2734 
Q 3116 2841 3233 2906 
Q 3350 2972 3461 3001 
Q 3572 3031 3684 3031 
Q 3956 3031 4140 2936 
Q 4325 2841 4439 2681 
Q 4553 2522 4601 2308 
Q 4650 2094 4650 1856 
L 4650 78 
z
" transform="scale(0.015625)"/>
       <path id="DejaVuSans-32" d="M 1228 531 
L 3431 531 
L 3431 0 
L 469 0 
L 469 531 
Q 828 903 1448 1529 
Q 2069 2156 2228 2338 
Q 2531 2678 2651 2914 
Q 2772 3150 2772 3378 
Q 2772 3750 2511 3984 
Q 2250 4219 1831 4219 
Q 1534 4219 1204 4116 
Q 875 4013 500 3803 
L 500 4441 
Q 881 4594 1212 4672 
Q 1544 4750 1819 4750 
Q 2544 4750 2975 4387 
Q 3406 4025 3406 3419 
Q 3406 3131 3298 2873 
Q 3191 2616 2906 2266 
Q 2828 2175 2409 1742 
Q 1991 1309 1228 531 
z
" transform="scale(0.015625)"/>
       <path id="Calibri-2f" d="M 525 -753 
Q 513 -794 492 -817 
Q 472 -841 440 -853 
Q 409 -866 364 -872 
Q 319 -878 253 -878 
Q 175 -878 123 -867 
Q 72 -856 44 -836 
Q 16 -816 9 -786 
Q 3 -756 22 -716 
L 1913 4469 
Q 1925 4509 1945 4532 
Q 1966 4556 1995 4570 
Q 2025 4584 2072 4589 
Q 2119 4594 2184 4594 
Q 2263 4594 2313 4583 
Q 2363 4572 2391 4553 
Q 2419 4534 2425 4503 
Q 2431 4472 2416 4431 
L 525 -753 
z
" transform="scale(0.015625)"/>
       <path id="Calibri-29" d="M 1522 1678 
Q 1522 1325 1478 979 
Q 1434 634 1346 296 
Q 1259 -41 1132 -367 
Q 1006 -694 838 -1013 
Q 828 -1028 809 -1040 
Q 791 -1053 761 -1062 
Q 731 -1072 690 -1075 
Q 650 -1078 594 -1078 
Q 513 -1078 467 -1070 
Q 422 -1063 401 -1045 
Q 381 -1028 382 -1001 
Q 384 -975 400 -938 
Q 688 -306 834 355 
Q 981 1016 981 1688 
Q 981 2356 834 3017 
Q 688 3678 394 4306 
Q 381 4334 384 4359 
Q 388 4384 413 4400 
Q 438 4416 481 4425 
Q 525 4434 597 4434 
Q 663 4434 706 4429 
Q 750 4425 776 4415 
Q 803 4406 815 4397 
Q 828 4388 834 4375 
Q 1156 3734 1339 3057 
Q 1522 2381 1522 1678 
z
" transform="scale(0.015625)"/>
      </defs>
      <use xlink:href="#DejaVuSans-Oblique-70" transform="translate(0 0.765625)"/>
      <use xlink:href="#Calibri-20" transform="translate(63.476562 0.765625)"/>
      <use xlink:href="#Calibri-28" transform="translate(84.958984 0.765625)"/>
      <use xlink:href="#Calibri-63" transform="translate(115.28125 0.765625)"/>
      <use xlink:href="#Calibri-6d" transform="translate(157.566406 0.765625)"/>
      <use xlink:href="#DejaVuSans-32" transform="translate(238.40625 39.046875) scale(0.7)"/>
      <use xlink:href="#Calibri-2f" transform="translate(285.676758 0.765625)"/>
      <use xlink:href="#Calibri-63" transform="translate(324.299805 0.765625)"/>
      <use xlink:href="#Calibri-6d" transform="translate(366.584961 0.765625)"/>
      <use xlink:href="#DejaVuSans-32" transform="translate(447.424805 39.046875) scale(0.7)"/>
      <use xlink:href="#Calibri-29" transform="translate(494.695312 0.765625)"/>
     </g>
    </g>
   </g>
   <g id="matplotlib.axis_2">
    <g id="ytick_1">
     <g id="line2d_12">
      <defs>
       <path id="mb4e7218e39" d="M 0 0 
L -3.5 0 
" style="stroke: #000000; stroke-width: 0.8"/>
      </defs>
      <g>
       <use xlink:href="#mb4e7218e39" x="57.6" y="275.65056" style="stroke: #000000; stroke-width: 0.8"/>
      </g>
     </g>
     <g id="text_13">
      <!-- 25 -->
      <g transform="translate(40.4625 279.051341) scale(0.1 -0.1)">
       <use xlink:href="#Calibri-32"/>
       <use xlink:href="#Calibri-35" x="50.683594"/>
      </g>
     </g>
    </g>
    <g id="ytick_2">
     <g id="line2d_13">
      <g>
       <use xlink:href="#mb4e7218e39" x="57.6" y="242.38656" style="stroke: #000000; stroke-width: 0.8"/>
      </g>
     </g>
     <g id="text_14">
      <!-- 50 -->
      <g transform="translate(40.4625 245.787341) scale(0.1 -0.1)">
       <use xlink:href="#Calibri-35"/>
       <use xlink:href="#Calibri-30" x="50.683594"/>
      </g>
     </g>
    </g>
    <g id="ytick_3">
     <g id="line2d_14">
      <g>
       <use xlink:href="#mb4e7218e39" x="57.6" y="209.12256" style="stroke: #000000; stroke-width: 0.8"/>
      </g>
     </g>
     <g id="text_15">
      <!-- 75 -->
      <g transform="translate(40.4625 212.523341) scale(0.1 -0.1)">
       <use xlink:href="#Calibri-37"/>
       <use xlink:href="#Calibri-35" x="50.683594"/>
      </g>
     </g>
    </g>
    <g id="ytick_4">
     <g id="line2d_15">
      <g>
       <use xlink:href="#mb4e7218e39" x="57.6" y="175.85856" style="stroke: #000000; stroke-width: 0.8"/>
      </g>
     </g>
     <g id="text_16">
      <!-- 100 -->
      <g transform="translate(35.39375 179.259341) scale(0.1 -0.1)">
       <use xlink:href="#Calibri-31"/>
       <use xlink:href="#Calibri-30" x="50.683594"/>
       <use xlink:href="#Calibri-30" x="101.367188"/>
      </g>
     </g>
    </g>
    <g id="ytick_5">
     <g id="line2d_16">
      <g>
       <use xlink:href="#mb4e7218e39" x="57.6" y="142.59456" style="stroke: #000000; stroke-width: 0.8"/>
      </g>
     </g>
     <g id="text_17">
      <!-- 125 -->
      <g transform="translate(35.39375 145.995341) scale(0.1 -0.1)">
       <use xlink:href="#Calibri-31"/>
       <use xlink:href="#Calibri-32" x="50.683594"/>
       <use xlink:href="#Calibri-35" x="101.367188"/>
      </g>
     </g>
    </g>
    <g id="ytick_6">
     <g id="line2d_17">
      <g>
       <use xlink:href="#mb4e7218e39" x="57.6" y="109.33056" style="stroke: #000000; stroke-width: 0.8"/>
      </g>
     </g>
     <g id="text_18">
      <!-- 150 -->
      <g transform="translate(35.39375 112.731341) scale(0.1 -0.1)">
       <use xlink:href="#Calibri-31"/>
       <use xlink:href="#Calibri-35" x="50.683594"/>
       <use xlink:href="#Calibri-30" x="101.367188"/>
      </g>
     </g>
    </g>
    <g id="ytick_7">
     <g id="line2d_18">
      <g>
       <use xlink:href="#mb4e7218e39" x="57.6" y="76.06656" style="stroke: #000000; stroke-width: 0.8"/>
      </g>
     </g>
     <g id="text_19">
      <!-- 175 -->
      <g transform="translate(35.39375 79.467341) scale(0.1 -0.1)">
       <use xlink:href="#Calibri-31"/>
       <use xlink:href="#Calibri-37" x="50.683594"/>
       <use xlink:href="#Calibri-35" x="101.367188"/>
      </g>
     </g>
    </g>
    <g id="ytick_8">
     <g id="line2d_19">
      <g>
       <use xlink:href="#mb4e7218e39" x="57.6" y="42.80256" style="stroke: #000000; stroke-width: 0.8"/>
      </g>
     </g>
     <g id="text_20">
      <!-- 200 -->
      <g transform="translate(35.39375 46.203341) scale(0.1 -0.1)">
       <use xlink:href="#Calibri-32"/>
       <use xlink:href="#Calibri-30" x="50.683594"/>
       <use xlink:href="#Calibri-30" x="101.367188"/>
      </g>
     </g>
    </g>
    <g id="text_21">
     <!-- $\mathit{Z}$$_{a}$ (nm) -->
     <g transform="translate(29.59375 191.028) rotate(-90) scale(0.1 -0.1)">
      <defs>
       <path id="DejaVuSans-Oblique-5a" d="M 838 4666 
L 4500 4666 
L 4409 4184 
L 794 531 
L 3769 531 
L 3669 0 
L -141 0 
L -50 481 
L 3566 4134 
L 738 4134 
L 838 4666 
z
" transform="scale(0.015625)"/>
       <path id="DejaVuSans-Oblique-61" d="M 3438 1997 
L 3047 0 
L 2472 0 
L 2578 531 
Q 2325 219 2001 64 
Q 1678 -91 1281 -91 
Q 834 -91 548 182 
Q 263 456 263 884 
Q 263 1497 752 1853 
Q 1241 2209 2100 2209 
L 2900 2209 
L 2931 2363 
Q 2938 2388 2941 2417 
Q 2944 2447 2944 2509 
Q 2944 2788 2717 2942 
Q 2491 3097 2081 3097 
Q 1800 3097 1504 3025 
Q 1209 2953 897 2809 
L 997 3341 
Q 1322 3463 1633 3523 
Q 1944 3584 2234 3584 
Q 2853 3584 3176 3315 
Q 3500 3047 3500 2534 
Q 3500 2431 3484 2292 
Q 3469 2153 3438 1997 
z
M 2816 1759 
L 2241 1759 
Q 1534 1759 1195 1570 
Q 856 1381 856 984 
Q 856 709 1029 553 
Q 1203 397 1509 397 
Q 1978 397 2328 733 
Q 2678 1069 2791 1631 
L 2816 1759 
z
" transform="scale(0.015625)"/>
       <path id="Calibri-6e" d="M 2900 78 
Q 2900 53 2887 36 
Q 2875 19 2847 6 
Q 2819 -6 2769 -12 
Q 2719 -19 2644 -19 
Q 2566 -19 2516 -12 
Q 2466 -6 2437 6 
Q 2409 19 2396 36 
Q 2384 53 2384 78 
L 2384 1725 
Q 2384 1966 2346 2112 
Q 2309 2259 2237 2365 
Q 2166 2472 2052 2528 
Q 1938 2584 1788 2584 
Q 1594 2584 1400 2446 
Q 1206 2309 994 2044 
L 994 78 
Q 994 53 981 36 
Q 969 19 941 6 
Q 913 -6 863 -12 
Q 813 -19 734 -19 
Q 659 -19 609 -12 
Q 559 -6 529 6 
Q 500 19 489 36 
Q 478 53 478 78 
L 478 2891 
Q 478 2916 487 2933 
Q 497 2950 525 2964 
Q 553 2978 597 2983 
Q 641 2988 713 2988 
Q 781 2988 826 2983 
Q 872 2978 897 2964 
Q 922 2950 933 2933 
Q 944 2916 944 2891 
L 944 2519 
Q 1181 2784 1417 2907 
Q 1653 3031 1894 3031 
Q 2175 3031 2367 2936 
Q 2559 2841 2678 2681 
Q 2797 2522 2848 2308 
Q 2900 2094 2900 1794 
L 2900 78 
z
" transform="scale(0.015625)"/>
      </defs>
      <use xlink:href="#DejaVuSans-Oblique-5a" transform="translate(0 0.09375)"/>
      <use xlink:href="#DejaVuSans-Oblique-61" transform="translate(69.462891 -16.3125) scale(0.7)"/>
      <use xlink:href="#Calibri-20" transform="translate(115.092773 0.09375)"/>
      <use xlink:href="#Calibri-28" transform="translate(136.575195 0.09375)"/>
      <use xlink:href="#Calibri-6e" transform="translate(166.897461 0.09375)"/>
      <use xlink:href="#Calibri-6d" transform="translate(219.436523 0.09375)"/>
      <use xlink:href="#Calibri-29" transform="translate(299.319336 0.09375)"/>
     </g>
    </g>
   </g>
   <g id="patch_3">
    <path d="M 57.6 307.584 
L 57.6 41.472 
" style="fill: none; stroke: #000000; stroke-width: 0.8; stroke-linejoin: miter; stroke-linecap: square"/>
   </g>
   <g id="patch_4">
    <path d="M 343.296 307.584 
L 343.296 41.472 
" style="fill: none; stroke: #000000; stroke-width: 0.8; stroke-linejoin: miter; stroke-linecap: square"/>
   </g>
   <g id="patch_5">
    <path d="M 57.6 307.584 
L 343.296 307.584 
" style="fill: none; stroke: #000000; stroke-width: 0.8; stroke-linejoin: miter; stroke-linecap: square"/>
   </g>
   <g id="patch_6">
    <path d="M 57.6 41.472 
L 343.296 41.472 
" style="fill: none; stroke: #000000; stroke-width: 0.8; stroke-linejoin: miter; stroke-linecap: square"/>
   </g>
   <g id="text_22">
    <!-- $\lambda$ = 990 nm -->
    <g transform="translate(177.348 35.472) scale(0.1 -0.1)">
     <defs>
      <path id="DejaVuSans-Oblique-3bb" d="M 2350 4316 
L 3125 0 
L 2516 0 
L 2038 2588 
L 328 0 
L -281 0 
L 1903 3356 
L 1794 3975 
Q 1725 4369 1391 4369 
L 1091 4369 
L 1184 4863 
L 1550 4856 
Q 2253 4847 2350 4316 
z
" transform="scale(0.015625)"/>
      <path id="Calibri-3d" d="M 2891 2409 
Q 2891 2284 2855 2236 
Q 2819 2188 2772 2188 
L 409 2188 
Q 363 2188 328 2236 
Q 294 2284 294 2409 
Q 294 2522 325 2575 
Q 356 2628 409 2628 
L 2772 2628 
Q 2828 2628 2859 2575 
Q 2891 2522 2891 2409 
z
M 2891 1194 
Q 2891 1069 2855 1022 
Q 2819 975 2772 975 
L 409 975 
Q 363 975 328 1022 
Q 294 1069 294 1194 
Q 294 1309 325 1362 
Q 356 1416 409 1416 
L 2772 1416 
Q 2828 1416 2859 1362 
Q 2891 1309 2891 1194 
z
" transform="scale(0.015625)"/>
     </defs>
     <use xlink:href="#DejaVuSans-Oblique-3bb" transform="translate(0 0.015625)"/>
     <use xlink:href="#Calibri-20" transform="translate(59.179688 0.015625)"/>
     <use xlink:href="#Calibri-3d" transform="translate(81.787109 0.015625)"/>
     <use xlink:href="#Calibri-20" transform="translate(131.591797 0.015625)"/>
     <use xlink:href="#Calibri-39" transform="translate(154.199219 0.015625)"/>
     <use xlink:href="#Calibri-39" transform="translate(204.882812 0.015625)"/>
     <use xlink:href="#Calibri-30" transform="translate(255.566406 0.015625)"/>
     <use xlink:href="#Calibri-20" transform="translate(306.25 0.015625)"/>
     <use xlink:href="#Calibri-6e" transform="translate(328.857422 0.015625)"/>
     <use xlink:href="#Calibri-6d" transform="translate(381.396484 0.015625)"/>
    </g>
   </g>
  </g>
  <g id="axes_2">
   <g id="patch_7">
    <path d="M 361.152 307.584 
L 374.4576 307.584 
L 374.4576 41.472 
L 361.152 41.472 
z
" style="fill: #ffffff"/>
   </g>
   <g id="QuadMesh_1">
    <path d="M 361.152 307.584 
L 374.4576 307.584 
L 374.4576 280.9728 
L 361.152 280.9728 
L 361.152 307.584 
" clip-path="url(#p71cf1d3c98)" style="fill: #0000b6"/>
    <path d="M 361.152 280.9728 
L 374.4576 280.9728 
L 374.4576 254.3616 
L 361.152 254.3616 
L 361.152 280.9728 
" clip-path="url(#p71cf1d3c98)" style="fill: #0018ff"/>
    <path d="M 361.152 254.3616 
L 374.4576 254.3616 
L 374.4576 227.7504 
L 361.152 227.7504 
L 361.152 254.3616 
" clip-path="url(#p71cf1d3c98)" style="fill: #0080ff"/>
    <path d="M 361.152 227.7504 
L 374.4576 227.7504 
L 374.4576 201.1392 
L 361.152 201.1392 
L 361.152 227.7504 
" clip-path="url(#p71cf1d3c98)" style="fill: #00e4f8"/>
    <path d="M 361.152 201.1392 
L 374.4576 201.1392 
L 374.4576 174.528 
L 361.152 174.528 
L 361.152 201.1392 
" clip-path="url(#p71cf1d3c98)" style="fill: #53ffa4"/>
    <path d="M 361.152 174.528 
L 374.4576 174.528 
L 374.4576 147.9168 
L 361.152 147.9168 
L 361.152 174.528 
" clip-path="url(#p71cf1d3c98)" style="fill: #a4ff53"/>
    <path d="M 361.152 147.9168 
L 374.4576 147.9168 
L 374.4576 121.3056 
L 361.152 121.3056 
L 361.152 147.9168 
" clip-path="url(#p71cf1d3c98)" style="fill: #f8f500"/>
    <path d="M 361.152 121.3056 
L 374.4576 121.3056 
L 374.4576 94.6944 
L 361.152 94.6944 
L 361.152 121.3056 
" clip-path="url(#p71cf1d3c98)" style="fill: #ff9400"/>
    <path d="M 361.152 94.6944 
L 374.4576 94.6944 
L 374.4576 68.0832 
L 361.152 68.0832 
L 361.152 94.6944 
" clip-path="url(#p71cf1d3c98)" style="fill: #ff3800"/>
    <path d="M 361.152 68.0832 
L 374.4576 68.0832 
L 374.4576 41.472 
L 361.152 41.472 
L 361.152 68.0832 
" clip-path="url(#p71cf1d3c98)" style="fill: #b60000"/>
   </g>
   <g id="matplotlib.axis_3"/>
   <g id="matplotlib.axis_4">
    <g id="ytick_9">
     <g id="line2d_20">
      <defs>
       <path id="m66c15da113" d="M 0 0 
L 3.5 0 
" style="stroke: #000000; stroke-width: 0.8"/>
      </defs>
      <g>
       <use xlink:href="#m66c15da113" x="374.4576" y="307.584" style="stroke: #000000; stroke-width: 0.8"/>
      </g>
     </g>
     <g id="text_23">
      <!-- 0 -->
      <g transform="translate(381.4576 310.984781) scale(0.1 -0.1)">
       <use xlink:href="#Calibri-30"/>
      </g>
     </g>
    </g>
    <g id="ytick_10">
     <g id="line2d_21">
      <g>
       <use xlink:href="#m66c15da113" x="374.4576" y="280.9728" style="stroke: #000000; stroke-width: 0.8"/>
      </g>
     </g>
     <g id="text_24">
      <!-- 0.1 -->
      <g transform="translate(381.4576 284.373581) scale(0.1 -0.1)">
       <use xlink:href="#Calibri-30"/>
       <use xlink:href="#Calibri-2e" x="50.683594"/>
       <use xlink:href="#Calibri-31" x="75.927734"/>
      </g>
     </g>
    </g>
    <g id="ytick_11">
     <g id="line2d_22">
      <g>
       <use xlink:href="#m66c15da113" x="374.4576" y="254.3616" style="stroke: #000000; stroke-width: 0.8"/>
      </g>
     </g>
     <g id="text_25">
      <!-- 0.2 -->
      <g transform="translate(381.4576 257.762381) scale(0.1 -0.1)">
       <use xlink:href="#Calibri-30"/>
       <use xlink:href="#Calibri-2e" x="50.683594"/>
       <use xlink:href="#Calibri-32" x="75.927734"/>
      </g>
     </g>
    </g>
    <g id="ytick_12">
     <g id="line2d_23">
      <g>
       <use xlink:href="#m66c15da113" x="374.4576" y="227.7504" style="stroke: #000000; stroke-width: 0.8"/>
      </g>
     </g>
     <g id="text_26">
      <!-- 0.3 -->
      <g transform="translate(381.4576 231.151181) scale(0.1 -0.1)">
       <use xlink:href="#Calibri-30"/>
       <use xlink:href="#Calibri-2e" x="50.683594"/>
       <use xlink:href="#Calibri-33" x="75.927734"/>
      </g>
     </g>
    </g>
    <g id="ytick_13">
     <g id="line2d_24">
      <g>
       <use xlink:href="#m66c15da113" x="374.4576" y="201.1392" style="stroke: #000000; stroke-width: 0.8"/>
      </g>
     </g>
     <g id="text_27">
      <!-- 0.4 -->
      <g transform="translate(381.4576 204.539981) scale(0.1 -0.1)">
       <use xlink:href="#Calibri-30"/>
       <use xlink:href="#Calibri-2e" x="50.683594"/>
       <use xlink:href="#Calibri-34" x="75.927734"/>
      </g>
     </g>
    </g>
    <g id="ytick_14">
     <g id="line2d_25">
      <g>
       <use xlink:href="#m66c15da113" x="374.4576" y="174.528" style="stroke: #000000; stroke-width: 0.8"/>
      </g>
     </g>
     <g id="text_28">
      <!-- 0.5 -->
      <g transform="translate(381.4576 177.928781) scale(0.1 -0.1)">
       <use xlink:href="#Calibri-30"/>
       <use xlink:href="#Calibri-2e" x="50.683594"/>
       <use xlink:href="#Calibri-35" x="75.927734"/>
      </g>
     </g>
    </g>
    <g id="ytick_15">
     <g id="line2d_26">
      <g>
       <use xlink:href="#m66c15da113" x="374.4576" y="147.9168" style="stroke: #000000; stroke-width: 0.8"/>
      </g>
     </g>
     <g id="text_29">
      <!-- 0.6 -->
      <g transform="translate(381.4576 151.317581) scale(0.1 -0.1)">
       <use xlink:href="#Calibri-30"/>
       <use xlink:href="#Calibri-2e" x="50.683594"/>
       <use xlink:href="#Calibri-36" x="75.927734"/>
      </g>
     </g>
    </g>
    <g id="ytick_16">
     <g id="line2d_27">
      <g>
       <use xlink:href="#m66c15da113" x="374.4576" y="121.3056" style="stroke: #000000; stroke-width: 0.8"/>
      </g>
     </g>
     <g id="text_30">
      <!-- 0.7 -->
      <g transform="translate(381.4576 124.706381) scale(0.1 -0.1)">
       <use xlink:href="#Calibri-30"/>
       <use xlink:href="#Calibri-2e" x="50.683594"/>
       <use xlink:href="#Calibri-37" x="75.927734"/>
      </g>
     </g>
    </g>
    <g id="ytick_17">
     <g id="line2d_28">
      <g>
       <use xlink:href="#m66c15da113" x="374.4576" y="94.6944" style="stroke: #000000; stroke-width: 0.8"/>
      </g>
     </g>
     <g id="text_31">
      <!-- 0.8 -->
      <g transform="translate(381.4576 98.095181) scale(0.1 -0.1)">
       <use xlink:href="#Calibri-30"/>
       <use xlink:href="#Calibri-2e" x="50.683594"/>
       <use xlink:href="#Calibri-38" x="75.927734"/>
      </g>
     </g>
    </g>
    <g id="ytick_18">
     <g id="line2d_29">
      <g>
       <use xlink:href="#m66c15da113" x="374.4576" y="68.0832" style="stroke: #000000; stroke-width: 0.8"/>
      </g>
     </g>
     <g id="text_32">
      <!-- 0.9 -->
      <g transform="translate(381.4576 71.483981) scale(0.1 -0.1)">
       <use xlink:href="#Calibri-30"/>
       <use xlink:href="#Calibri-2e" x="50.683594"/>
       <use xlink:href="#Calibri-39" x="75.927734"/>
      </g>
     </g>
    </g>
    <g id="ytick_19">
     <g id="line2d_30">
      <g>
       <use xlink:href="#m66c15da113" x="374.4576" y="41.472" style="stroke: #000000; stroke-width: 0.8"/>
      </g>
     </g>
     <g id="text_33">
      <!-- 1.0 -->
      <g transform="translate(381.4576 44.872781) scale(0.1 -0.1)">
       <use xlink:href="#Calibri-31"/>
       <use xlink:href="#Calibri-2e" x="50.683594"/>
       <use xlink:href="#Calibri-30" x="75.927734"/>
      </g>
     </g>
    </g>
   </g>
   <g id="LineCollection_1"/>
   <g id="patch_8">
    <path d="M 361.152 307.584 
L 367.8048 307.584 
L 374.4576 307.584 
L 374.4576 41.472 
L 367.8048 41.472 
L 361.152 41.472 
L 361.152 307.584 
z
" style="fill: none; stroke: #000000; stroke-width: 0.8; stroke-linejoin: miter; stroke-linecap: square"/>
   </g>
   <g id="text_34">
    <!-- $\mathit{E}_{\mathrm{dis}}$/$\mathit{E}_{\mathrm{i}}$ -->
    <g transform="translate(353.2548 35.472) scale(0.1 -0.1)">
     <defs>
      <path id="DejaVuSans-Oblique-45" d="M 1081 4666 
L 4031 4666 
L 3928 4134 
L 1606 4134 
L 1338 2753 
L 3566 2753 
L 3463 2222 
L 1234 2222 
L 909 531 
L 3284 531 
L 3181 0 
L 172 0 
L 1081 4666 
z
" transform="scale(0.015625)"/>
      <path id="DejaVuSans-64" d="M 2906 2969 
L 2906 4863 
L 3481 4863 
L 3481 0 
L 2906 0 
L 2906 525 
Q 2725 213 2448 61 
Q 2172 -91 1784 -91 
Q 1150 -91 751 415 
Q 353 922 353 1747 
Q 353 2572 751 3078 
Q 1150 3584 1784 3584 
Q 2172 3584 2448 3432 
Q 2725 3281 2906 2969 
z
M 947 1747 
Q 947 1113 1208 752 
Q 1469 391 1925 391 
Q 2381 391 2643 752 
Q 2906 1113 2906 1747 
Q 2906 2381 2643 2742 
Q 2381 3103 1925 3103 
Q 1469 3103 1208 2742 
Q 947 2381 947 1747 
z
" transform="scale(0.015625)"/>
      <path id="DejaVuSans-69" d="M 603 3500 
L 1178 3500 
L 1178 0 
L 603 0 
L 603 3500 
z
M 603 4863 
L 1178 4863 
L 1178 4134 
L 603 4134 
L 603 4863 
z
" transform="scale(0.015625)"/>
      <path id="DejaVuSans-73" d="M 2834 3397 
L 2834 2853 
Q 2591 2978 2328 3040 
Q 2066 3103 1784 3103 
Q 1356 3103 1142 2972 
Q 928 2841 928 2578 
Q 928 2378 1081 2264 
Q 1234 2150 1697 2047 
L 1894 2003 
Q 2506 1872 2764 1633 
Q 3022 1394 3022 966 
Q 3022 478 2636 193 
Q 2250 -91 1575 -91 
Q 1294 -91 989 -36 
Q 684 19 347 128 
L 347 722 
Q 666 556 975 473 
Q 1284 391 1588 391 
Q 1994 391 2212 530 
Q 2431 669 2431 922 
Q 2431 1156 2273 1281 
Q 2116 1406 1581 1522 
L 1381 1569 
Q 847 1681 609 1914 
Q 372 2147 372 2553 
Q 372 3047 722 3315 
Q 1072 3584 1716 3584 
Q 2034 3584 2315 3537 
Q 2597 3491 2834 3397 
z
" transform="scale(0.015625)"/>
     </defs>
     <use xlink:href="#DejaVuSans-Oblique-45" transform="translate(0 0.09375)"/>
     <use xlink:href="#DejaVuSans-64" transform="translate(63.183594 -16.3125) scale(0.7)"/>
     <use xlink:href="#DejaVuSans-69" transform="translate(107.617188 -16.3125) scale(0.7)"/>
     <use xlink:href="#DejaVuSans-73" transform="translate(127.06543 -16.3125) scale(0.7)"/>
     <use xlink:href="#Calibri-2f" transform="translate(166.269531 0.09375)"/>
     <use xlink:href="#DejaVuSans-Oblique-45" transform="translate(204.892578 0.09375)"/>
     <use xlink:href="#DejaVuSans-69" transform="translate(268.076172 -16.3125) scale(0.7)"/>
    </g>
   </g>
  </g>
 </g>
 <defs>
  <clipPath id="p1ef09df883">
   <rect x="57.6" y="41.472" width="285.696" height="266.112"/>
  </clipPath>
  <clipPath id="p71cf1d3c98">
   <rect x="361.152" y="41.472" width="13.3056" height="266.112"/>
  </clipPath>
 </defs>
</svg>
