<?xml version="1.0" encoding="utf-8" standalone="no"?>
<!DOCTYPE svg PUBLIC "-//W3C//DTD SVG 1.1//EN"
  "http://www.w3.org/Graphics/SVG/1.1/DTD/svg11.dtd">
<svg xmlns:xlink="http://www.w3.org/1999/xlink" width="460.8pt" height="345.6pt" viewBox="0 0 460.8 345.6" xmlns="http://www.w3.org/2000/svg" version="1.1">
 <metadata>
  <rdf:RDF xmlns:dc="http://purl.org/dc/elements/1.1/" xmlns:cc="http://creativecommons.org/ns#" xmlns:rdf="http://www.w3.org/1999/02/22-rdf-syntax-ns#">
   <cc:Work>
    <dc:type rdf:resource="http://purl.org/dc/dcmitype/StillImage"/>
    <dc:date>2024-01-22T08:47:03.046072</dc:date>
    <dc:format>image/svg+xml</dc:format>
    <dc:creator>
     <cc:Agent>
      <dc:title>Matplotlib v3.7.1, https://matplotlib.org/</dc:title>
     </cc:Agent>
    </dc:creator>
   </cc:Work>
  </rdf:RDF>
 </metadata>
 <defs>
  <style type="text/css">*{stroke-linejoin: round; stroke-linecap: butt}</style>
 </defs>
 <g id="figure_1">
  <g id="patch_1">
   <path d="M 0 345.6 
L 460.8 345.6 
L 460.8 0 
L 0 0 
z
" style="fill: #ffffff"/>
  </g>
  <g id="axes_1">
   <g id="patch_2">
    <path d="M 57.6 307.584 
L 343.296 307.584 
L 343.296 41.472 
L 57.6 41.472 
z
" style="fill: #ffffff"/>
   </g>
   <g id="PathCollection_1">
    <path clip-path="url(#pd8d614c109)" style="fill: #0000b6"/>
   </g>
   <g id="PathCollection_2">
    <path d="M 57.62857 96.845825 
L 57.917977 96.495497 
L 58.262044 96.077332 
L 58.593501 95.66868 
L 59.278874 94.808873 
L 59.308749 94.771782 
L 59.370071 94.6944 
L 59.506726 94.519106 
L 59.899974 94.018288 
L 60.134515 93.72012 
L 60.194287 93.642792 
L 60.260976 93.555325 
L 60.926901 92.690393 
L 61.934218 91.368 
L 62.09868 91.147453 
L 62.633941 90.420025 
L 63.357793 89.440996 
L 63.668871 89.01588 
L 63.884373 88.715564 
L 64.371709 88.0416 
L 64.599369 87.721244 
L 64.713058 87.558658 
L 65.06056 87.06732 
L 65.822234 85.970704 
L 66.683227 84.7152 
L 66.75153 84.61342 
L 66.80558 84.532113 
L 67.640334 83.28698 
L 68.25209 82.36308 
L 68.666653 81.725276 
L 68.742324 81.610249 
L 68.885703 81.3888 
L 69.156652 80.962441 
L 69.507764 80.41452 
L 70.089064 79.489629 
L 70.978124 78.0624 
L 71.185839 77.721536 
L 72.397379 75.71028 
L 72.40505 75.6973 
L 72.60623 75.361248 
L 72.974679 74.736 
L 73.460132 73.895694 
L 73.537755 73.76172 
L 74.60588 71.882193 
L 74.871505 71.4096 
L 75.645817 70.000829 
L 76.160245 69.05748 
L 76.40981 68.59112 
L 76.684108 68.0832 
L 76.840148 67.788108 
L 76.926666 67.62188 
L 77.197474 67.10892 
L 77.89598 65.759175 
L 78.409426 64.7568 
L 78.809099 63.958653 
L 79.298904 62.973458 
L 79.491232 62.588952 
L 79.582489 62.40468 
L 79.719815 62.121652 
L 79.921307 61.708808 
L 80.058488 61.4304 
L 80.140416 61.260354 
L 80.187173 61.161764 
L 80.526993 60.45612 
L 81.051955 59.343352 
L 81.631098 58.104 
L 81.897344 57.520997 
L 82.2776 56.682884 
L 82.578525 56.023192 
L 82.701147 55.75188 
L 82.865849 55.379682 
L 83.021761 55.029782 
L 83.13525 54.7776 
L 83.206015 54.616543 
L 83.2475 54.520632 
L 83.562915 53.80332 
L 84.069757 52.625885 
L 84.570984 51.4512 
L 84.903872 50.652656 
L 85.462814 49.303873 
L 85.525984 49.152159 
L 85.547897 49.09908 
L 85.574497 49.033226 
L 85.78436 48.517845 
L 85.946061 48.1248 
L 86.113796 47.704044 
L 86.336232 47.15052 
L 86.945998 45.599377 
L 87.258323 44.7984 
L 87.821986 43.318334 
L 88.152322 42.44628 
L 88.330271 41.968569 
L 88.515227 41.472 
L 88.10281 41.472 
L 86.579098 41.472 
L 85.055386 41.472 
L 83.531674 41.472 
L 82.007962 41.472 
L 80.48425 41.472 
L 78.960538 41.472 
L 77.436826 41.472 
L 75.913114 41.472 
L 74.389402 41.472 
L 72.86569 41.472 
L 71.341978 41.472 
L 69.818266 41.472 
L 68.294554 41.472 
L 66.770842 41.472 
L 65.24713 41.472 
L 63.723418 41.472 
L 62.199706 41.472 
L 60.675994 41.472 
L 59.152282 41.472 
L 57.62857 41.472 
L 57.62857 44.7984 
L 57.62857 48.1248 
L 57.62857 51.4512 
L 57.62857 54.7776 
L 57.62857 58.104 
L 57.62857 61.4304 
L 57.62857 64.7568 
L 57.62857 68.0832 
L 57.62857 71.4096 
L 57.62857 74.736 
L 57.62857 78.0624 
L 57.62857 81.3888 
L 57.62857 84.7152 
L 57.62857 88.0416 
L 57.62857 91.368 
L 57.62857 94.6944 
" clip-path="url(#pd8d614c109)" style="fill: #0018ff"/>
   </g>
   <g id="PathCollection_3">
    <path d="M 88.515227 41.472 
L 88.330271 41.968569 
L 88.152322 42.44628 
L 87.821986 43.318334 
L 87.258323 44.7984 
L 86.945998 45.599377 
L 86.336232 47.15052 
L 86.113796 47.704044 
L 85.946061 48.1248 
L 85.78436 48.517845 
L 85.574497 49.033226 
L 85.547897 49.09908 
L 85.525984 49.152159 
L 85.462814 49.303873 
L 84.903872 50.652656 
L 84.570984 51.4512 
L 84.069757 52.625885 
L 83.562915 53.80332 
L 83.2475 54.520632 
L 83.206015 54.616543 
L 83.13525 54.7776 
L 83.021761 55.029782 
L 82.865849 55.379682 
L 82.701147 55.75188 
L 82.578525 56.023192 
L 82.2776 56.682884 
L 81.897344 57.520997 
L 81.631098 58.104 
L 81.051955 59.343352 
L 80.526993 60.45612 
L 80.187173 61.161764 
L 80.140416 61.260354 
L 80.058488 61.4304 
L 79.921307 61.708808 
L 79.719815 62.121652 
L 79.582489 62.40468 
L 79.491232 62.588952 
L 79.298904 62.973458 
L 78.809099 63.958653 
L 78.409426 64.7568 
L 77.89598 65.759175 
L 77.197474 67.10892 
L 76.926666 67.62188 
L 76.840148 67.788108 
L 76.684108 68.0832 
L 76.40981 68.59112 
L 76.160245 69.05748 
L 75.645817 70.000829 
L 74.871505 71.4096 
L 74.60588 71.882193 
L 73.537755 73.76172 
L 73.460132 73.895694 
L 72.974679 74.736 
L 72.60623 75.361248 
L 72.40505 75.6973 
L 72.397379 75.71028 
L 71.185839 77.721536 
L 70.978124 78.0624 
L 70.089064 79.489629 
L 69.507764 80.41452 
L 69.156652 80.962441 
L 68.885703 81.3888 
L 68.742324 81.610249 
L 68.666653 81.725276 
L 68.25209 82.36308 
L 67.640334 83.28698 
L 66.80558 84.532113 
L 66.75153 84.61342 
L 66.683227 84.7152 
L 65.822234 85.970704 
L 65.06056 87.06732 
L 64.713058 87.558658 
L 64.599369 87.721244 
L 64.371709 88.0416 
L 63.884373 88.715564 
L 63.668871 89.01588 
L 63.357793 89.440996 
L 62.633941 90.420025 
L 62.09868 91.147453 
L 61.934218 91.368 
L 60.926901 92.690393 
L 60.260976 93.555325 
L 60.194287 93.642792 
L 60.134515 93.72012 
L 59.899974 94.018288 
L 59.506726 94.519106 
L 59.370071 94.6944 
L 59.308749 94.771782 
L 59.278874 94.808873 
L 58.593501 95.66868 
L 58.262044 96.077332 
L 57.917977 96.495497 
L 57.62857 96.845825 
L 57.62857 98.0208 
L 57.62857 101.3472 
L 57.62857 104.6736 
L 57.62857 108 
L 57.62857 111.3264 
L 57.62857 114.6528 
L 57.62857 117.9792 
L 57.62857 121.3056 
L 57.62857 124.632 
L 57.62857 127.9584 
L 57.62857 131.2848 
L 57.62857 134.6112 
L 57.62857 137.9376 
L 57.62857 141.082153 
L 57.745409 141.008929 
L 58.405625 140.588824 
L 58.870502 140.28972 
L 59.916852 139.606725 
L 60.423544 139.268121 
L 60.872598 138.973793 
L 62.101618 138.151734 
L 62.252324 138.052472 
L 62.42268 137.9376 
L 63.573388 137.146878 
L 63.91946 136.90437 
L 64.569147 136.457503 
L 65.808389 135.58548 
L 66.096783 135.379512 
L 66.386042 135.17446 
L 67.165551 134.6112 
L 67.622406 134.278783 
L 67.789715 134.154692 
L 68.493147 133.63692 
L 69.147882 133.147692 
L 69.518497 132.864715 
L 70.043311 132.470891 
L 71.205572 131.582585 
L 71.408329 131.429652 
L 71.596267 131.2848 
L 72.700964 130.416623 
L 73.089366 130.105926 
L 73.648064 129.666393 
L 74.561338 128.93268 
L 75.037337 128.544306 
L 75.751599 127.9584 
L 76.380329 127.4359 
L 76.627522 127.226574 
L 76.916213 126.98412 
L 78.065239 126.003883 
L 78.825831 125.341961 
L 79.057568 125.143395 
L 79.644563 124.632 
L 80.241302 124.101623 
L 81.072016 123.348853 
L 81.663821 122.818225 
L 82.25467 122.27988 
L 82.324801 122.215862 
L 83.303814 121.3056 
L 83.415364 121.200426 
L 84.333421 120.33132 
L 84.524766 120.147211 
L 84.671278 120.003617 
L 85.320448 119.376195 
L 86.444301 118.273474 
L 86.630842 118.092162 
L 86.744939 117.9792 
L 87.884342 116.82778 
L 88.42682 116.271519 
L 88.712086 115.982904 
L 89.057529 115.62708 
L 89.820363 114.828084 
L 89.872201 114.774303 
L 89.987203 114.6528 
L 90.83838 113.745004 
L 90.899589 113.67852 
L 91.477303 113.050201 
L 92.299715 112.143379 
L 92.798314 111.597908 
L 93.042285 111.3264 
L 93.992724 110.246309 
L 94.51719 109.642321 
L 94.801675 109.318625 
L 95.099314 108.97428 
L 95.837656 108.105154 
L 95.866363 108.071708 
L 95.926815 108 
L 96.069729 107.827716 
L 96.558109 107.243365 
L 96.740274 107.02572 
L 96.777863 106.98002 
L 96.81653 106.932256 
L 97.512371 106.082335 
L 98.651372 104.6736 
L 98.725748 104.579629 
L 98.934588 104.311657 
L 99.972605 102.987583 
L 100.488512 102.32148 
L 100.557799 102.231969 
L 101.230636 101.3472 
L 101.46681 101.031243 
L 101.958598 100.37292 
L 102.534235 99.588297 
L 103.223402 98.634953 
L 103.33993 98.473332 
L 103.33993 98.0208 
L 103.33993 94.6944 
L 103.33993 91.368 
L 103.33993 88.0416 
L 103.33993 84.7152 
L 103.33993 81.3888 
L 103.33993 78.0624 
L 103.33993 74.736 
L 103.33993 71.4096 
L 103.33993 68.0832 
L 103.33993 64.7568 
L 103.33993 61.4304 
L 103.33993 58.104 
L 103.33993 54.7776 
L 103.33993 51.4512 
L 103.33993 48.1248 
L 103.33993 44.7984 
L 103.33993 41.472 
L 101.816218 41.472 
L 100.292506 41.472 
L 98.768794 41.472 
L 97.245082 41.472 
L 95.72137 41.472 
L 94.197658 41.472 
L 92.673946 41.472 
L 91.150234 41.472 
L 89.626522 41.472 
" clip-path="url(#pd8d614c109)" style="fill: #0080ff"/>
   </g>
   <g id="PathCollection_4">
    <path d="M 103.33993 98.473332 
L 103.223402 98.634953 
L 102.534235 99.588297 
L 101.958598 100.37292 
L 101.46681 101.031243 
L 101.230636 101.3472 
L 100.557799 102.231969 
L 100.488512 102.32148 
L 99.972605 102.987583 
L 98.934588 104.311657 
L 98.725748 104.579629 
L 98.651372 104.6736 
L 97.512371 106.082335 
L 96.81653 106.932256 
L 96.777863 106.98002 
L 96.740274 107.02572 
L 96.558109 107.243365 
L 96.069729 107.827716 
L 95.926815 108 
L 95.866363 108.071708 
L 95.837656 108.105154 
L 95.099314 108.97428 
L 94.801675 109.318625 
L 94.51719 109.642321 
L 93.992724 110.246309 
L 93.042285 111.3264 
L 92.798314 111.597908 
L 92.299715 112.143379 
L 91.477303 113.050201 
L 90.899589 113.67852 
L 90.83838 113.745004 
L 89.987203 114.6528 
L 89.872201 114.774303 
L 89.820363 114.828084 
L 89.057529 115.62708 
L 88.712086 115.982904 
L 88.42682 116.271519 
L 87.884342 116.82778 
L 86.744939 117.9792 
L 86.630842 118.092162 
L 86.444301 118.273474 
L 85.320448 119.376195 
L 84.671278 120.003617 
L 84.524766 120.147211 
L 84.333421 120.33132 
L 83.415364 121.200426 
L 83.303814 121.3056 
L 82.324801 122.215862 
L 82.25467 122.27988 
L 81.663821 122.818225 
L 81.072016 123.348853 
L 80.241302 124.101623 
L 79.644563 124.632 
L 79.057568 125.143395 
L 78.825831 125.341961 
L 78.065239 126.003883 
L 76.916213 126.98412 
L 76.627522 127.226574 
L 76.380329 127.4359 
L 75.751599 127.9584 
L 75.037337 128.544306 
L 74.561338 128.93268 
L 73.648064 129.666393 
L 73.089366 130.105926 
L 72.700964 130.416623 
L 71.596267 131.2848 
L 71.408329 131.429652 
L 71.205572 131.582585 
L 70.043311 132.470891 
L 69.518497 132.864715 
L 69.147882 133.147692 
L 68.493147 133.63692 
L 67.789715 134.154692 
L 67.622406 134.278783 
L 67.165551 134.6112 
L 66.386042 135.17446 
L 66.096783 135.379512 
L 65.808389 135.58548 
L 64.569147 136.457503 
L 63.91946 136.90437 
L 63.573388 137.146878 
L 62.42268 137.9376 
L 62.252324 138.052472 
L 62.101618 138.151734 
L 60.872598 138.973793 
L 60.423544 139.268121 
L 59.916852 139.606725 
L 58.870502 140.28972 
L 58.405625 140.588824 
L 57.745409 141.008929 
L 57.62857 141.082153 
L 57.62857 141.264 
L 57.62857 144.5904 
L 57.62857 147.9168 
L 57.62857 151.2432 
L 57.62857 154.5696 
L 57.62857 157.896 
L 57.62857 161.2224 
L 57.62857 164.5488 
L 57.62857 167.8752 
L 57.62857 171.2016 
L 57.62857 173.924486 
L 57.953884 173.81781 
L 58.254563 173.716224 
L 58.726935 173.55372 
L 60.023002 173.102461 
L 60.336883 172.988864 
L 60.972917 172.76652 
L 61.584309 172.545066 
L 62.644571 172.172782 
L 63.605706 171.82199 
L 63.826368 171.744195 
L 65.234145 171.229946 
L 65.256489 171.222033 
L 65.311997 171.2016 
L 66.674123 170.69185 
L 66.882895 170.611027 
L 67.856911 170.246187 
L 68.921825 169.832211 
L 69.51589 169.607945 
L 70.169038 169.352876 
L 70.447023 169.247835 
L 71.462818 168.84948 
L 72.127491 168.585513 
L 73.89179 167.8752 
L 74.164959 167.7642 
L 74.234593 167.735212 
L 74.805514 167.498924 
L 75.828168 167.079624 
L 76.253564 166.90092 
L 76.351569 166.859656 
L 76.38494 166.84516 
L 78.147202 166.099616 
L 78.713332 165.851686 
L 79.170857 165.657278 
L 80.178921 165.215361 
L 80.689682 164.997277 
L 81.704347 164.5488 
L 81.984088 164.422977 
L 82.036438 164.398716 
L 83.219017 163.866243 
L 84.0138 163.496276 
L 84.788908 163.144345 
L 85.373777 162.870735 
L 85.735184 162.706462 
L 86.820015 162.19668 
L 87.367933 161.935717 
L 87.701851 161.777668 
L 88.847942 161.2224 
L 89.353102 160.975156 
L 90.561824 160.376639 
L 90.763415 160.27753 
L 90.821856 160.24812 
L 91.528867 159.891568 
L 91.831781 159.734522 
L 93.198695 159.041576 
L 94.0664 158.587788 
L 94.305782 158.465866 
L 95.394158 157.896 
L 95.657133 157.755765 
L 95.828825 157.661415 
L 97.073516 156.991774 
L 97.456827 156.780007 
L 98.099115 156.434031 
L 99.702707 155.54388 
L 99.791151 155.494083 
L 100.188642 155.271799 
L 101.416349 154.5696 
L 101.660238 154.428553 
L 102.541508 153.913745 
L 102.934744 153.685044 
L 103.33993 153.43633 
L 103.33993 151.2432 
L 103.33993 147.9168 
L 103.33993 144.5904 
L 103.33993 141.264 
L 103.33993 137.9376 
L 103.33993 134.6112 
L 103.33993 131.2848 
L 103.33993 127.9584 
L 103.33993 124.632 
L 103.33993 121.3056 
L 103.33993 117.9792 
L 103.33993 114.6528 
L 103.33993 111.3264 
L 103.33993 108 
L 103.33993 104.6736 
L 103.33993 101.3472 
" clip-path="url(#pd8d614c109)" style="fill: #00e4f8"/>
   </g>
   <g id="PathCollection_5">
    <path d="M 103.33993 153.43633 
L 102.934744 153.685044 
L 102.541508 153.913745 
L 101.660238 154.428553 
L 101.416349 154.5696 
L 100.188642 155.271799 
L 99.791151 155.494083 
L 99.702707 155.54388 
L 98.099115 156.434031 
L 97.456827 156.780007 
L 97.073516 156.991774 
L 95.828825 157.661415 
L 95.657133 157.755765 
L 95.394158 157.896 
L 94.305782 158.465866 
L 94.0664 158.587788 
L 93.198695 159.041576 
L 91.831781 159.734522 
L 91.528867 159.891568 
L 90.821856 160.24812 
L 90.763415 160.27753 
L 90.561824 160.376639 
L 89.353102 160.975156 
L 88.847942 161.2224 
L 87.701851 161.777668 
L 87.367933 161.935717 
L 86.820015 162.19668 
L 85.735184 162.706462 
L 85.373777 162.870735 
L 84.788908 163.144345 
L 84.0138 163.496276 
L 83.219017 163.866243 
L 82.036438 164.398716 
L 81.984088 164.422977 
L 81.704347 164.5488 
L 80.689682 164.997277 
L 80.178921 165.215361 
L 79.170857 165.657278 
L 78.713332 165.851686 
L 78.147202 166.099616 
L 76.38494 166.84516 
L 76.351569 166.859656 
L 76.253564 166.90092 
L 75.828168 167.079624 
L 74.805514 167.498924 
L 74.234593 167.735212 
L 74.164959 167.7642 
L 73.89179 167.8752 
L 72.127491 168.585513 
L 71.462818 168.84948 
L 70.447023 169.247835 
L 70.169038 169.352876 
L 69.51589 169.607945 
L 68.921825 169.832211 
L 67.856911 170.246187 
L 66.882895 170.611027 
L 66.674123 170.69185 
L 65.311997 171.2016 
L 65.256489 171.222033 
L 65.234145 171.229946 
L 63.826368 171.744195 
L 63.605706 171.82199 
L 62.644571 172.172782 
L 61.584309 172.545066 
L 60.972917 172.76652 
L 60.336883 172.988864 
L 60.023002 173.102461 
L 58.726935 173.55372 
L 58.254563 173.716224 
L 57.953884 173.81781 
L 57.62857 173.924486 
L 57.62857 174.528 
L 57.62857 177.8544 
L 57.62857 181.1808 
L 57.62857 184.5072 
L 57.62857 187.8336 
L 57.62857 191.16 
L 57.62857 194.4864 
L 57.62857 197.8128 
L 57.62857 200.793868 
L 57.79864 200.767921 
L 58.599004 200.63889 
L 59.955269 200.413086 
L 60.539933 200.318344 
L 61.173838 200.211544 
L 61.451844 200.16492 
L 63.145728 199.878053 
L 63.338196 199.843087 
L 64.084568 199.716225 
L 64.401636 199.658588 
L 65.97004 199.390979 
L 66.489441 199.295904 
L 67.03453 199.202556 
L 67.715048 199.077912 
L 68.789449 198.8932 
L 69.64315 198.735735 
L 69.982277 198.677214 
L 71.035022 198.482911 
L 71.603797 198.384375 
L 72.799408 198.162131 
L 72.927737 198.139815 
L 74.361793 197.873073 
L 74.412922 197.864146 
L 74.686995 197.8128 
L 75.870447 197.58793 
L 75.959186 197.569977 
L 77.216117 197.330974 
L 77.702815 197.23212 
L 78.810117 197.020019 
L 79.123068 196.95619 
L 80.013665 196.785471 
L 81.052252 196.572799 
L 81.747222 196.438588 
L 82.289873 196.327 
L 82.805436 196.227359 
L 84.409628 195.896148 
L 84.681674 195.843174 
L 85.459707 195.681849 
L 85.591239 195.656216 
L 86.530415 195.46068 
L 87.443909 195.268419 
L 87.947204 195.163009 
L 89.172201 194.897226 
L 89.908091 194.741014 
L 91.077202 194.4864 
L 92.183249 194.243721 
L 92.360933 194.203354 
L 93.195624 194.014664 
L 94.281517 193.774308 
L 94.801964 193.655013 
L 95.428499 193.51212 
L 96.667849 193.226249 
L 96.862055 193.178723 
L 97.595853 193.008719 
L 97.963175 192.918737 
L 99.419173 192.579837 
L 100.0528 192.423355 
L 100.511847 192.316029 
L 101.385628 192.100017 
L 102.163143 191.91737 
L 103.247512 191.647084 
L 103.33993 191.623761 
L 103.33993 191.16 
L 103.33993 187.8336 
L 103.33993 184.5072 
L 103.33993 181.1808 
L 103.33993 177.8544 
L 103.33993 174.528 
L 103.33993 171.2016 
L 103.33993 167.8752 
L 103.33993 164.5488 
L 103.33993 161.2224 
L 103.33993 157.896 
L 103.33993 154.5696 
" clip-path="url(#pd8d614c109)" style="fill: #53ffa4"/>
   </g>
   <g id="PathCollection_6">
    <path d="M 103.33993 191.623761 
L 103.247512 191.647084 
L 102.163143 191.91737 
L 101.385628 192.100017 
L 100.511847 192.316029 
L 100.0528 192.423355 
L 99.419173 192.579837 
L 97.963175 192.918737 
L 97.595853 193.008719 
L 96.862055 193.178723 
L 96.667849 193.226249 
L 95.428499 193.51212 
L 94.801964 193.655013 
L 94.281517 193.774308 
L 93.195624 194.014664 
L 92.360933 194.203354 
L 92.183249 194.243721 
L 91.077202 194.4864 
L 89.908091 194.741014 
L 89.172201 194.897226 
L 87.947204 195.163009 
L 87.443909 195.268419 
L 86.530415 195.46068 
L 85.591239 195.656216 
L 85.459707 195.681849 
L 84.681674 195.843174 
L 84.409628 195.896148 
L 82.805436 196.227359 
L 82.289873 196.327 
L 81.747222 196.438588 
L 81.052252 196.572799 
L 80.013665 196.785471 
L 79.123068 196.95619 
L 78.810117 197.020019 
L 77.702815 197.23212 
L 77.216117 197.330974 
L 75.959186 197.569977 
L 75.870447 197.58793 
L 74.686995 197.8128 
L 74.412922 197.864146 
L 74.361793 197.873073 
L 72.927737 198.139815 
L 72.799408 198.162131 
L 71.603797 198.384375 
L 71.035022 198.482911 
L 69.982277 198.677214 
L 69.64315 198.735735 
L 68.789449 198.8932 
L 67.715048 199.077912 
L 67.03453 199.202556 
L 66.489441 199.295904 
L 65.97004 199.390979 
L 64.401636 199.658588 
L 64.084568 199.716225 
L 63.338196 199.843087 
L 63.145728 199.878053 
L 61.451844 200.16492 
L 61.173838 200.211544 
L 60.539933 200.318344 
L 59.955269 200.413086 
L 58.599004 200.63889 
L 57.79864 200.767921 
L 57.62857 200.793868 
L 57.62857 201.1392 
L 57.62857 204.4656 
L 57.62857 207.792 
L 57.62857 211.1184 
L 57.62857 214.4448 
L 57.62857 217.7712 
L 57.62857 221.0976 
L 57.62857 224.176957 
L 57.675806 224.175044 
L 59.01337 224.120743 
L 59.297869 224.106169 
L 60.605578 224.052878 
L 60.747794 224.045581 
L 62.002978 223.994526 
L 62.405919 223.973817 
L 63.628529 223.923897 
L 63.820178 223.914031 
L 64.991661 223.866289 
L 65.514959 223.839305 
L 66.651084 223.792824 
L 66.89297 223.78033 
L 67.979389 223.735968 
L 68.625019 223.702564 
L 69.67323 223.659596 
L 69.966183 223.644412 
L 70.966134 223.603501 
L 71.736132 223.563526 
L 72.694953 223.524142 
L 73.039829 223.506206 
L 73.951865 223.468818 
L 74.848331 223.422116 
L 75.716241 223.386395 
L 76.113924 223.36564 
L 76.936548 223.331849 
L 77.961652 223.278258 
L 78.73708 223.246277 
L 79.188481 223.222636 
L 79.92015 223.19252 
L 81.07613 223.131871 
L 81.757454 223.103714 
L 82.263516 223.077114 
L 82.902636 223.050754 
L 84.191806 222.982872 
L 84.777349 222.958623 
L 85.339045 222.928991 
L 85.883968 222.906469 
L 87.308718 222.831173 
L 87.796748 222.810919 
L 88.415083 222.778178 
L 88.864107 222.759581 
L 90.42691 222.67668 
L 90.815634 222.660513 
L 91.49165 222.624584 
L 91.843014 222.610001 
L 93.546425 222.519298 
L 93.833991 222.507313 
L 94.568763 222.468111 
L 94.820644 222.457635 
L 96.667311 222.358925 
L 96.851798 222.351219 
L 97.646441 222.308659 
L 97.796953 222.302385 
L 99.789616 222.195454 
L 99.869036 222.192129 
L 100.724705 222.146119 
L 100.771894 222.144148 
L 102.113273 222.07188 
L 102.849401 222.031872 
L 102.913725 222.028043 
L 103.33993 221.999281 
L 103.33993 221.0976 
L 103.33993 217.7712 
L 103.33993 214.4448 
L 103.33993 211.1184 
L 103.33993 207.792 
L 103.33993 204.4656 
L 103.33993 201.1392 
L 103.33993 197.8128 
L 103.33993 194.4864 
" clip-path="url(#pd8d614c109)" style="fill: #a4ff53"/>
   </g>
   <g id="PathCollection_7">
    <path d="M 103.33993 221.999281 
L 102.913725 222.028043 
L 102.849401 222.031872 
L 102.113273 222.07188 
L 100.771894 222.144148 
L 100.724705 222.146119 
L 99.869036 222.192129 
L 99.789616 222.195454 
L 97.796953 222.302385 
L 97.646441 222.308659 
L 96.851798 222.351219 
L 96.667311 222.358925 
L 94.820644 222.457635 
L 94.568763 222.468111 
L 93.833991 222.507313 
L 93.546425 222.519298 
L 91.843014 222.610001 
L 91.49165 222.624584 
L 90.815634 222.660513 
L 90.42691 222.67668 
L 88.864107 222.759581 
L 88.415083 222.778178 
L 87.796748 222.810919 
L 87.308718 222.831173 
L 85.883968 222.906469 
L 85.339045 222.928991 
L 84.777349 222.958623 
L 84.191806 222.982872 
L 82.902636 223.050754 
L 82.263516 223.077114 
L 81.757454 223.103714 
L 81.07613 223.131871 
L 79.92015 223.19252 
L 79.188481 223.222636 
L 78.73708 223.246277 
L 77.961652 223.278258 
L 76.936548 223.331849 
L 76.113924 223.36564 
L 75.716241 223.386395 
L 74.848331 223.422116 
L 73.951865 223.468818 
L 73.039829 223.506206 
L 72.694953 223.524142 
L 71.736132 223.563526 
L 70.966134 223.603501 
L 69.966183 223.644412 
L 69.67323 223.659596 
L 68.625019 223.702564 
L 67.979389 223.735968 
L 66.89297 223.78033 
L 66.651084 223.792824 
L 65.514959 223.839305 
L 64.991661 223.866289 
L 63.820178 223.914031 
L 63.628529 223.923897 
L 62.405919 223.973817 
L 62.002978 223.994526 
L 60.747794 224.045581 
L 60.605578 224.052878 
L 59.297869 224.106169 
L 59.01337 224.120743 
L 57.675806 224.175044 
L 57.62857 224.176957 
L 57.62857 224.424 
L 57.62857 227.7504 
L 57.62857 231.0768 
L 57.62857 234.4032 
L 57.62857 237.7296 
L 57.62857 241.056 
L 57.62857 244.3824 
L 57.62857 245.53116 
L 57.84895 245.543904 
L 58.605215 245.576696 
L 59.726447 245.635855 
L 60.432302 245.666762 
L 60.924648 245.692919 
L 61.58607 245.722023 
L 62.844171 245.789326 
L 63.451352 245.816308 
L 64.001102 245.845922 
L 64.5652 245.871113 
L 65.963812 245.946982 
L 66.469653 245.969797 
L 67.078339 246.003048 
L 67.542551 246.024089 
L 69.085436 246.108967 
L 69.487182 246.12736 
L 70.156384 246.164435 
L 70.518065 246.181076 
L 72.209111 246.27543 
L 72.503911 246.289132 
L 73.235266 246.33023 
L 73.49168 246.342207 
L 75.33491 246.44653 
L 75.519816 246.455255 
L 76.315012 246.500585 
L 76.463334 246.507619 
L 78.462908 246.622431 
L 78.534866 246.625879 
L 79.395655 246.675662 
L 79.432961 246.677458 
L 80.412448 246.73452 
L 81.492429 246.797138 
L 81.71654 246.811109 
L 82.596116 246.862807 
L 84.352944 246.966154 
L 85.183686 247.018686 
L 85.860565 247.059056 
L 87.208643 247.139524 
L 88.66426 247.232905 
L 89.131519 247.261186 
L 90.059368 247.317392 
L 90.378788 247.33676 
L 92.409235 247.469432 
L 92.904951 247.49991 
L 95.668027 247.682419 
L 95.693986 247.684038 
L 95.745218 247.687235 
L 96.066898 247.7088 
L 98.447178 247.867858 
L 98.582194 247.877536 
L 98.987547 247.906611 
L 99.199533 247.921826 
L 101.413897 248.072605 
L 102.288985 248.136307 
L 103.117968 248.193362 
L 103.33993 248.207692 
L 103.33993 247.7088 
L 103.33993 244.3824 
L 103.33993 241.056 
L 103.33993 237.7296 
L 103.33993 234.4032 
L 103.33993 231.0768 
L 103.33993 227.7504 
L 103.33993 224.424 
" clip-path="url(#pd8d614c109)" style="fill: #f8f500"/>
   </g>
   <g id="PathCollection_8">
    <path d="M 103.33993 248.207692 
L 103.117968 248.193362 
L 102.288985 248.136307 
L 101.413897 248.072605 
L 99.199533 247.921826 
L 98.987547 247.906611 
L 98.582194 247.877536 
L 98.447178 247.867858 
L 96.066898 247.7088 
L 95.745218 247.687235 
L 95.693986 247.684038 
L 95.668027 247.682419 
L 92.904951 247.49991 
L 92.409235 247.469432 
L 90.378788 247.33676 
L 90.059368 247.317392 
L 89.131519 247.261186 
L 88.66426 247.232905 
L 87.208643 247.139524 
L 85.860565 247.059056 
L 85.183686 247.018686 
L 84.352944 246.966154 
L 82.596116 246.862807 
L 81.71654 246.811109 
L 81.492429 246.797138 
L 80.412448 246.73452 
L 79.432961 246.677458 
L 79.395655 246.675662 
L 78.534866 246.625879 
L 78.462908 246.622431 
L 76.463334 246.507619 
L 76.315012 246.500585 
L 75.519816 246.455255 
L 75.33491 246.44653 
L 73.49168 246.342207 
L 73.235266 246.33023 
L 72.503911 246.289132 
L 72.209111 246.27543 
L 70.518065 246.181076 
L 70.156384 246.164435 
L 69.487182 246.12736 
L 69.085436 246.108967 
L 67.542551 246.024089 
L 67.078339 246.003048 
L 66.469653 245.969797 
L 65.963812 245.946982 
L 64.5652 245.871113 
L 64.001102 245.845922 
L 63.451352 245.816308 
L 62.844171 245.789326 
L 61.58607 245.722023 
L 60.924648 245.692919 
L 60.432302 245.666762 
L 59.726447 245.635855 
L 58.605215 245.576696 
L 57.84895 245.543904 
L 57.62857 245.53116 
L 57.62857 247.7088 
L 57.62857 251.0352 
L 57.62857 254.3616 
L 57.62857 257.688 
L 57.62857 261.0144 
L 57.62857 264.3408 
L 57.62857 265.942999 
L 57.939652 265.98034 
L 58.378443 266.03016 
L 60.017277 266.229163 
L 60.311321 266.262789 
L 61.057959 266.353928 
L 61.266596 266.377862 
L 63.243961 266.620503 
L 63.289866 266.625807 
L 63.833914 266.69292 
L 64.102919 266.725948 
L 64.223051 266.741161 
L 66.024203 266.96452 
L 66.538852 267.028367 
L 67.761058 267.184778 
L 68.698178 267.302216 
L 71.276279 267.634708 
L 71.310892 267.639091 
L 71.365425 267.645998 
L 71.528073 267.6672 
L 73.792627 267.96234 
L 74.028039 267.993968 
L 74.876947 268.108071 
L 75.431656 268.182656 
L 76.683841 268.348098 
L 78.45612 268.588913 
L 78.585662 268.606164 
L 78.842852 268.64148 
L 79.392578 268.716555 
L 79.444659 268.72408 
L 81.400808 268.992671 
L 81.634773 269.026731 
L 82.362098 269.127142 
L 82.699274 269.176396 
L 84.264546 269.393673 
L 84.76582 269.467461 
L 85.33001 269.546209 
L 85.958631 269.639066 
L 87.124604 269.802711 
L 87.898719 269.91795 
L 88.296255 269.974057 
L 89.222915 270.112491 
L 89.980852 270.220064 
L 91.033539 270.378567 
L 91.260774 270.411001 
L 92.49232 270.597096 
L 92.833159 270.646022 
L 94.170354 270.849697 
L 94.223505 270.857371 
L 95.114674 270.9936 
L 95.681729 271.08014 
L 95.767333 271.093943 
L 97.184678 271.311951 
L 97.30932 271.332165 
L 98.527568 271.520217 
L 99.048981 271.605274 
L 100.144117 271.775672 
L 100.45043 271.825933 
L 101.369232 271.96941 
L 102.336324 272.129039 
L 103.101636 272.249515 
L 103.33993 272.288533 
L 103.33993 270.9936 
L 103.33993 267.6672 
L 103.33993 264.3408 
L 103.33993 261.0144 
L 103.33993 257.688 
L 103.33993 254.3616 
L 103.33993 251.0352 
" clip-path="url(#pd8d614c109)" style="fill: #ff9400"/>
   </g>
   <g id="PathCollection_9">
    <path d="M 103.33993 272.288533 
L 103.101636 272.249515 
L 102.336324 272.129039 
L 101.369232 271.96941 
L 100.45043 271.825933 
L 100.144117 271.775672 
L 99.048981 271.605274 
L 98.527568 271.520217 
L 97.30932 271.332165 
L 97.184678 271.311951 
L 95.767333 271.093943 
L 95.681729 271.08014 
L 95.114674 270.9936 
L 94.223505 270.857371 
L 94.170354 270.849697 
L 92.833159 270.646022 
L 92.49232 270.597096 
L 91.260774 270.411001 
L 91.033539 270.378567 
L 89.980852 270.220064 
L 89.222915 270.112491 
L 88.296255 269.974057 
L 87.898719 269.91795 
L 87.124604 269.802711 
L 85.958631 269.639066 
L 85.33001 269.546209 
L 84.76582 269.467461 
L 84.264546 269.393673 
L 82.699274 269.176396 
L 82.362098 269.127142 
L 81.634773 269.026731 
L 81.400808 268.992671 
L 79.444659 268.72408 
L 79.392578 268.716555 
L 78.842852 268.64148 
L 78.585662 268.606164 
L 78.45612 268.588913 
L 76.683841 268.348098 
L 75.431656 268.182656 
L 74.876947 268.108071 
L 74.028039 267.993968 
L 73.792627 267.96234 
L 71.528073 267.6672 
L 71.365425 267.645998 
L 71.310892 267.639091 
L 71.276279 267.634708 
L 68.698178 267.302216 
L 67.761058 267.184778 
L 66.538852 267.028367 
L 66.024203 266.96452 
L 64.223051 266.741161 
L 64.102919 266.725948 
L 63.833914 266.69292 
L 63.289866 266.625807 
L 63.243961 266.620503 
L 61.266596 266.377862 
L 61.057959 266.353928 
L 60.311321 266.262789 
L 60.017277 266.229163 
L 58.378443 266.03016 
L 57.939652 265.98034 
L 57.62857 265.942999 
L 57.62857 267.6672 
L 57.62857 270.9936 
L 57.62857 274.32 
L 57.62857 277.6464 
L 57.62857 280.9728 
L 57.62857 284.2992 
L 57.62857 286.505278 
L 58.061046 286.578544 
L 58.104712 286.586138 
L 58.467913 286.65132 
L 59.936508 286.916451 
L 60.412248 287.002472 
L 61.790369 287.255451 
L 62.471784 287.379569 
L 63.802412 287.6256 
L 64.853062 287.82049 
L 65.000842 287.848309 
L 65.6232 287.965667 
L 67.062293 288.235026 
L 67.52367 288.322683 
L 68.980164 288.59988 
L 69.340391 288.668843 
L 69.386798 288.677974 
L 70.219354 288.838085 
L 70.389007 288.871579 
L 72.140005 289.209835 
L 72.55061 289.291389 
L 73.15839 289.40934 
L 73.735442 289.524348 
L 74.936135 289.758431 
L 75.716333 289.914879 
L 76.095792 289.989203 
L 77.08718 290.188692 
L 77.728651 290.31492 
L 78.884047 290.548858 
L 79.031497 290.578011 
L 80.444446 290.865106 
L 80.517413 290.8796 
L 80.871491 290.952 
L 81.965217 291.177285 
L 82.054275 291.196095 
L 83.301756 291.45393 
L 83.811114 291.562043 
L 84.896802 291.787807 
L 85.227347 291.858311 
L 86.082234 292.036698 
L 87.184169 292.272926 
L 87.826588 292.40781 
L 88.402576 292.531904 
L 88.858789 292.628028 
L 90.563336 292.99715 
L 90.754502 293.037683 
L 91.580058 293.217365 
L 91.631267 293.228262 
L 91.977993 293.30412 
L 93.40468 293.617623 
L 93.823533 293.709861 
L 95.508736 294.086123 
L 95.850188 294.161914 
L 96.367568 294.2784 
L 98.288575 294.712645 
L 99.575154 295.007564 
L 100.099965 295.127189 
L 100.642972 295.25268 
L 100.73476 295.273924 
L 100.750197 295.277581 
L 102.676936 295.725775 
L 102.997931 295.802316 
L 103.33993 295.884405 
L 103.33993 294.2784 
L 103.33993 290.952 
L 103.33993 287.6256 
L 103.33993 284.2992 
L 103.33993 280.9728 
L 103.33993 277.6464 
L 103.33993 274.32 
" clip-path="url(#pd8d614c109)" style="fill: #ff3800"/>
   </g>
   <g id="PathCollection_10">
    <path d="M 103.33993 295.884405 
L 102.997931 295.802316 
L 102.676936 295.725775 
L 100.750197 295.277581 
L 100.73476 295.273924 
L 100.642972 295.25268 
L 100.099965 295.127189 
L 99.575154 295.007564 
L 98.288575 294.712645 
L 96.367568 294.2784 
L 95.850188 294.161914 
L 95.508736 294.086123 
L 93.823533 293.709861 
L 93.40468 293.617623 
L 91.977993 293.30412 
L 91.631267 293.228262 
L 91.580058 293.217365 
L 90.754502 293.037683 
L 90.563336 292.99715 
L 88.858789 292.628028 
L 88.402576 292.531904 
L 87.826588 292.40781 
L 87.184169 292.272926 
L 86.082234 292.036698 
L 85.227347 291.858311 
L 84.896802 291.787807 
L 83.811114 291.562043 
L 83.301756 291.45393 
L 82.054275 291.196095 
L 81.965217 291.177285 
L 80.871491 290.952 
L 80.517413 290.8796 
L 80.444446 290.865106 
L 79.031497 290.578011 
L 78.884047 290.548858 
L 77.728651 290.31492 
L 77.08718 290.188692 
L 76.095792 289.989203 
L 75.716333 289.914879 
L 74.936135 289.758431 
L 73.735442 289.524348 
L 73.15839 289.40934 
L 72.55061 289.291389 
L 72.140005 289.209835 
L 70.389007 288.871579 
L 70.219354 288.838085 
L 69.386798 288.677974 
L 69.340391 288.668843 
L 68.980164 288.59988 
L 67.52367 288.322683 
L 67.062293 288.235026 
L 65.6232 287.965667 
L 65.000842 287.848309 
L 64.853062 287.82049 
L 63.802412 287.6256 
L 62.471784 287.379569 
L 61.790369 287.255451 
L 60.412248 287.002472 
L 59.936508 286.916451 
L 58.467913 286.65132 
L 58.104712 286.586138 
L 58.061046 286.578544 
L 57.62857 286.505278 
L 57.62857 287.6256 
L 57.62857 290.952 
L 57.62857 294.2784 
L 57.62857 297.6048 
L 57.62857 300.9312 
L 57.62857 304.2576 
L 57.62857 307.584 
L 59.152282 307.584 
L 60.675994 307.584 
L 62.199706 307.584 
L 63.723418 307.584 
L 65.24713 307.584 
L 66.770842 307.584 
L 68.294554 307.584 
L 69.818266 307.584 
L 71.341978 307.584 
L 72.86569 307.584 
L 74.389402 307.584 
L 75.913114 307.584 
L 77.436826 307.584 
L 78.960538 307.584 
L 80.48425 307.584 
L 82.007962 307.584 
L 83.531674 307.584 
L 85.055386 307.584 
L 86.579098 307.584 
L 88.10281 307.584 
L 89.626522 307.584 
L 91.150234 307.584 
L 92.673946 307.584 
L 94.197658 307.584 
L 95.72137 307.584 
L 97.245082 307.584 
L 98.768794 307.584 
L 100.292506 307.584 
L 101.816218 307.584 
L 103.33993 307.584 
L 103.33993 304.2576 
L 103.33993 300.9312 
L 103.33993 297.6048 
" clip-path="url(#pd8d614c109)" style="fill: #b60000"/>
   </g>
   <g id="PathCollection_11">
    <path clip-path="url(#pd8d614c109)" style="fill: #0000b6"/>
   </g>
   <g id="PathCollection_12">
    <path clip-path="url(#pd8d614c109)" style="fill: #0018ff"/>
   </g>
   <g id="PathCollection_13">
    <path d="M 100.4544 102.324736 
L 101.404724 101.050663 
L 103.596215 98.137281 
L 104.20594 97.29248 
L 104.805429 96.393683 
L 106.0014 94.6944 
L 106.596917 93.808284 
L 107.750761 92.09632 
L 110.392486 87.844007 
L 111.604257 85.824 
L 114.613374 80.452286 
L 115.107929 79.55168 
L 115.235056 79.312838 
L 116.56982 76.9536 
L 117.614083 74.703229 
L 117.786804 74.35552 
L 118.47524 72.928273 
L 120.777275 68.0832 
L 122.069019 65.157849 
L 123.516616 61.81088 
L 124.474728 59.332555 
L 124.501045 59.271763 
L 124.52822 59.2128 
L 124.546231 59.165054 
L 124.558014 59.130849 
L 125.593112 56.61472 
L 126.988859 52.808335 
L 127.880578 50.3424 
L 129.693618 44.912522 
L 129.988898 44.07008 
L 130.046866 43.881471 
L 130.829721 41.472 
L 124.73856 41.472 
L 116.64384 41.472 
L 108.54912 41.472 
L 100.4544 41.472 
L 100.4544 50.3424 
L 100.4544 59.2128 
L 100.4544 68.0832 
L 100.4544 76.9536 
L 100.4544 85.824 
L 100.4544 94.6944 
" clip-path="url(#pd8d614c109)" style="fill: #0080ff"/>
   </g>
   <g id="PathCollection_14">
    <path d="M 130.829721 41.472 
L 130.046866 43.881471 
L 129.988898 44.07008 
L 129.693618 44.912522 
L 127.880578 50.3424 
L 126.988859 52.808335 
L 125.593112 56.61472 
L 124.558014 59.130849 
L 124.546231 59.165054 
L 124.52822 59.2128 
L 124.501045 59.271763 
L 124.474728 59.332555 
L 123.516616 61.81088 
L 122.069019 65.157849 
L 120.777275 68.0832 
L 118.47524 72.928273 
L 117.786804 74.35552 
L 117.614083 74.703229 
L 116.56982 76.9536 
L 115.235056 79.312838 
L 115.107929 79.55168 
L 114.613374 80.452286 
L 111.604257 85.824 
L 110.392486 87.844007 
L 107.750761 92.09632 
L 106.596917 93.808284 
L 106.0014 94.6944 
L 104.805429 96.393683 
L 104.20594 97.29248 
L 103.596215 98.137281 
L 101.404724 101.050663 
L 100.4544 102.324736 
L 100.4544 103.5648 
L 100.4544 112.4352 
L 100.4544 121.3056 
L 100.4544 130.176 
L 100.4544 139.0464 
L 100.4544 147.9168 
L 100.4544 155.071477 
L 101.285008 154.589779 
L 104.750493 152.624567 
L 108.170373 150.51488 
L 110.68103 148.884486 
L 111.189043 148.572159 
L 112.162426 147.9168 
L 115.463835 145.614356 
L 115.849176 145.31872 
L 118.325582 143.495543 
L 124.044975 139.0464 
L 124.44092 138.720239 
L 127.472309 136.050688 
L 130.654596 133.282567 
L 131.210805 132.77408 
L 132.095904 132.002455 
L 134.012223 130.176 
L 136.107823 127.988094 
L 136.508672 127.57792 
L 141.583917 122.02437 
L 142.20342 121.3056 
L 146.850805 115.559675 
L 147.261066 115.03328 
L 147.397754 114.848105 
L 149.294807 112.4352 
L 150.966047 109.943262 
L 151.042219 109.83712 
L 151.268109 109.505103 
L 155.189143 103.5648 
L 155.966726 102.303818 
L 158.931196 97.29248 
L 159.70016 95.866712 
L 159.982522 95.405655 
L 160.38036 94.6944 
L 161.317806 92.78783 
L 161.701336 92.09632 
L 162.106991 91.291677 
L 164.769912 85.824 
L 165.010825 85.291357 
L 167.559465 79.55168 
L 167.562032 79.546463 
L 168.730383 76.9536 
L 169.378884 75.17066 
L 169.714235 74.35552 
L 171.1356 70.462544 
L 172.047687 68.0832 
L 172.399578 67.088955 
L 174.234597 61.81088 
L 174.814394 59.897069 
L 175.057305 59.2128 
L 175.298757 58.308675 
L 175.86396 56.61472 
L 176.627508 53.981228 
L 177.672657 50.3424 
L 179.202431 44.524373 
L 179.321618 44.07008 
L 179.42892 43.633713 
L 179.989211 41.472 
L 173.30688 41.472 
L 165.21216 41.472 
L 157.11744 41.472 
L 149.02272 41.472 
L 140.928 41.472 
L 132.83328 41.472 
" clip-path="url(#pd8d614c109)" style="fill: #00e4f8"/>
   </g>
   <g id="PathCollection_15">
    <path d="M 179.989211 41.472 
L 179.42892 43.633713 
L 179.321618 44.07008 
L 179.202431 44.524373 
L 177.672657 50.3424 
L 176.627508 53.981228 
L 175.86396 56.61472 
L 175.298757 58.308675 
L 175.057305 59.2128 
L 174.814394 59.897069 
L 174.234597 61.81088 
L 172.399578 67.088955 
L 172.047687 68.0832 
L 171.1356 70.462544 
L 169.714235 74.35552 
L 169.378884 75.17066 
L 168.730383 76.9536 
L 167.562032 79.546463 
L 167.559465 79.55168 
L 165.010825 85.291357 
L 164.769912 85.824 
L 162.106991 91.291677 
L 161.701336 92.09632 
L 161.317806 92.78783 
L 160.38036 94.6944 
L 159.982522 95.405655 
L 159.70016 95.866712 
L 158.931196 97.29248 
L 155.966726 102.303818 
L 155.189143 103.5648 
L 151.268109 109.505103 
L 151.042219 109.83712 
L 150.966047 109.943262 
L 149.294807 112.4352 
L 147.397754 114.848105 
L 147.261066 115.03328 
L 146.850805 115.559675 
L 142.20342 121.3056 
L 141.583917 122.02437 
L 136.508672 127.57792 
L 136.107823 127.988094 
L 134.012223 130.176 
L 132.095904 132.002455 
L 131.210805 132.77408 
L 130.654596 133.282567 
L 127.472309 136.050688 
L 124.44092 138.720239 
L 124.044975 139.0464 
L 118.325582 143.495543 
L 115.849176 145.31872 
L 115.463835 145.614356 
L 112.162426 147.9168 
L 111.189043 148.572159 
L 110.68103 148.884486 
L 108.170373 150.51488 
L 104.750493 152.624567 
L 101.285008 154.589779 
L 100.4544 155.071477 
L 100.4544 156.7872 
L 100.4544 165.6576 
L 100.4544 174.528 
L 100.4544 183.3984 
L 100.4544 192.2688 
L 100.4544 192.331106 
L 100.476477 192.327207 
L 100.723293 192.2688 
L 107.109428 190.691149 
L 111.018359 189.562945 
L 115.211293 188.478916 
L 118.438433 187.521102 
L 120.028392 187.107278 
L 123.676393 185.99648 
L 127.673351 184.730518 
L 131.681628 183.3984 
L 136.857079 181.550586 
L 138.866914 180.80032 
L 144.609364 178.562132 
L 148.077564 177.028465 
L 149.718682 176.369208 
L 153.841465 174.528 
L 156.133211 173.449457 
L 159.927451 171.448719 
L 163.393586 169.716859 
L 166.057637 168.25568 
L 166.546407 167.998334 
L 170.529129 165.6576 
L 171.697038 164.926883 
L 174.623381 163.05952 
L 177.352261 161.220231 
L 180.652924 158.767864 
L 181.837249 157.939735 
L 183.366421 156.7872 
L 186.909649 153.952661 
L 190.837675 150.51488 
L 192.271468 149.176455 
L 193.625108 147.9168 
L 194.873992 146.581797 
L 196.144681 145.31872 
L 198.859546 142.402303 
L 201.815527 139.0464 
L 203.653218 136.819088 
L 206.757398 132.77408 
L 207.888547 131.175857 
L 208.621145 130.176 
L 209.822015 128.29853 
L 210.331434 127.57792 
L 210.779876 126.887862 
L 213.1211 123.050028 
L 213.941661 121.732014 
L 214.196417 121.3056 
L 217.103202 116.076323 
L 217.650084 115.03328 
L 218.059048 114.167373 
L 218.52694 113.266403 
L 218.998974 112.4352 
L 219.488594 111.351906 
L 220.231789 109.83712 
L 222.62955 104.391436 
L 222.975775 103.5648 
L 223.785225 101.471746 
L 225.491533 97.29248 
L 225.787619 96.47027 
L 226.508911 94.6944 
L 227.28138 92.240504 
L 227.3372 92.09632 
L 227.408308 91.88732 
L 229.400519 85.824 
L 229.653133 84.985922 
L 231.264507 79.55168 
L 231.350885 79.305932 
L 232.089369 76.9536 
L 232.423143 75.553102 
L 232.63939 74.491048 
L 232.676794 74.35552 
L 232.79149 73.861652 
L 234.263431 68.0832 
L 235.032782 64.760812 
L 235.708026 61.81088 
L 236.01866 60.141482 
L 236.128765 59.69338 
L 236.259425 59.2128 
L 236.336852 58.783878 
L 236.387693 58.451624 
L 236.801295 56.61472 
L 237.919904 50.501005 
L 237.952371 50.3424 
L 237.971239 50.240049 
L 239.117068 44.07008 
L 239.404023 42.079954 
L 239.505971 41.472 
L 238.06464 41.472 
L 229.96992 41.472 
L 221.8752 41.472 
L 213.78048 41.472 
L 205.68576 41.472 
L 197.59104 41.472 
L 189.49632 41.472 
L 181.4016 41.472 
" clip-path="url(#pd8d614c109)" style="fill: #53ffa4"/>
   </g>
   <g id="PathCollection_16">
    <path d="M 239.505971 41.472 
L 239.404023 42.079954 
L 239.117068 44.07008 
L 237.971239 50.240049 
L 237.952371 50.3424 
L 237.919904 50.501005 
L 236.801295 56.61472 
L 236.387693 58.451624 
L 236.336852 58.783878 
L 236.259425 59.2128 
L 236.128765 59.69338 
L 236.01866 60.141482 
L 235.708026 61.81088 
L 235.032782 64.760812 
L 234.263431 68.0832 
L 232.79149 73.861652 
L 232.676794 74.35552 
L 232.63939 74.491048 
L 232.423143 75.553102 
L 232.089369 76.9536 
L 231.350885 79.305932 
L 231.264507 79.55168 
L 229.653133 84.985922 
L 229.400519 85.824 
L 227.408308 91.88732 
L 227.3372 92.09632 
L 227.28138 92.240504 
L 226.508911 94.6944 
L 225.787619 96.47027 
L 225.491533 97.29248 
L 223.785225 101.471746 
L 222.975775 103.5648 
L 222.62955 104.391436 
L 220.231789 109.83712 
L 219.488594 111.351906 
L 218.998974 112.4352 
L 218.52694 113.266403 
L 218.059048 114.167373 
L 217.650084 115.03328 
L 217.103202 116.076323 
L 214.196417 121.3056 
L 213.941661 121.732014 
L 213.1211 123.050028 
L 210.779876 126.887862 
L 210.331434 127.57792 
L 209.822015 128.29853 
L 208.621145 130.176 
L 207.888547 131.175857 
L 206.757398 132.77408 
L 203.653218 136.819088 
L 201.815527 139.0464 
L 198.859546 142.402303 
L 196.144681 145.31872 
L 194.873992 146.581797 
L 193.625108 147.9168 
L 192.271468 149.176455 
L 190.837675 150.51488 
L 186.909649 153.952661 
L 183.366421 156.7872 
L 181.837249 157.939735 
L 180.652924 158.767864 
L 177.352261 161.220231 
L 174.623381 163.05952 
L 171.697038 164.926883 
L 170.529129 165.6576 
L 166.546407 167.998334 
L 166.057637 168.25568 
L 163.393586 169.716859 
L 159.927451 171.448719 
L 156.133211 173.449457 
L 153.841465 174.528 
L 149.718682 176.369208 
L 148.077564 177.028465 
L 144.609364 178.562132 
L 138.866914 180.80032 
L 136.857079 181.550586 
L 131.681628 183.3984 
L 127.673351 184.730518 
L 123.676393 185.99648 
L 120.028392 187.107278 
L 118.438433 187.521102 
L 115.211293 188.478916 
L 111.018359 189.562945 
L 107.109428 190.691149 
L 100.723293 192.2688 
L 100.476477 192.327207 
L 100.4544 192.331106 
L 100.4544 201.1392 
L 100.4544 210.0096 
L 100.4544 218.88 
L 100.4544 222.11453 
L 102.616599 222.030181 
L 103.313591 222.013174 
L 112.696535 221.47808 
L 114.092976 221.396388 
L 114.810692 221.344586 
L 120.016574 221.023337 
L 128.356971 220.522418 
L 130.787446 220.381632 
L 139.008161 219.751426 
L 142.387503 219.542477 
L 143.362742 219.484423 
L 150.950236 218.88 
L 155.626041 218.509761 
L 156.178019 218.453592 
L 158.576533 218.217709 
L 167.62718 217.470018 
L 169.708752 217.246789 
L 179.030056 216.282217 
L 179.03143 216.282098 
L 179.032996 216.28192 
L 183.583019 215.780668 
L 184.338 215.662218 
L 193.684719 214.599354 
L 196.002281 214.212751 
L 199.044767 213.855516 
L 202.745866 213.23121 
L 208.037576 212.58678 
L 213.156089 211.661461 
L 214.347926 211.510811 
L 221.742838 210.154645 
L 221.979118 210.123476 
L 222.552621 210.0096 
L 229.425506 208.569322 
L 230.640547 208.235419 
L 235.498456 207.19751 
L 242.482645 205.168238 
L 244.178774 204.769849 
L 247.507555 203.73728 
L 252.028594 202.149361 
L 254.544789 201.271155 
L 254.647769 201.236933 
L 254.881989 201.1392 
L 255.686204 200.783676 
L 261.06993 198.54112 
L 264.163568 197.069872 
L 268.139119 194.794022 
L 271.259737 193.163232 
L 272.607727 192.2688 
L 277.286133 188.956279 
L 280.847446 185.99648 
L 282.458752 184.434644 
L 283.679548 183.3984 
L 284.592736 182.47233 
L 286.138588 180.80032 
L 289.148345 177.284423 
L 291.103055 174.528 
L 293.406499 171.03274 
L 295.035388 168.25568 
L 295.341992 167.819611 
L 296.53631 165.6576 
L 297.621797 163.297016 
L 297.729512 163.05952 
L 298.229351 161.82038 
L 300.45963 156.7872 
L 301.190174 154.998565 
L 302.760808 150.51488 
L 303.460972 148.206652 
L 303.506263 148.086568 
L 303.553646 147.9168 
L 303.638419 147.546404 
L 304.365182 145.31872 
L 305.348735 141.814822 
L 306.017831 139.0464 
L 307.025916 134.44008 
L 307.455541 132.77408 
L 307.552099 132.322837 
L 307.813064 131.414929 
L 308.081371 130.176 
L 308.251418 128.82825 
L 308.479438 127.608238 
L 308.486923 127.57792 
L 308.497752 127.524795 
L 309.623935 121.3056 
L 310.011516 118.909774 
L 310.603498 115.03328 
L 310.747563 114.402616 
L 311.092296 112.4352 
L 311.267277 110.338765 
L 311.33256 109.83712 
L 311.830094 105.980123 
L 312.12775 103.5648 
L 312.607046 99.094005 
L 312.819582 97.29248 
L 312.957786 96.197315 
L 313.204477 94.6944 
L 313.303735 93.277367 
L 313.341294 92.120507 
L 313.343841 92.09632 
L 313.348202 92.030359 
L 313.949934 85.824 
L 314.369073 80.736338 
L 314.463106 79.55168 
L 314.484904 79.008402 
L 314.742826 76.9536 
L 314.801757 75.042619 
L 314.862645 74.35552 
L 314.952818 72.531179 
L 315.297457 68.0832 
L 315.540774 64.279518 
L 315.701826 61.81088 
L 315.73057 60.702187 
L 315.894388 59.2128 
L 315.914022 57.806683 
L 316.00476 56.61472 
L 316.119048 53.512395 
L 316.317853 50.3424 
L 316.457753 47.543567 
L 316.646938 44.07008 
L 316.67001 42.53497 
L 316.735987 41.472 
L 310.91712 41.472 
L 302.8224 41.472 
L 294.72768 41.472 
L 286.63296 41.472 
L 278.53824 41.472 
L 270.44352 41.472 
L 262.3488 41.472 
L 254.25408 41.472 
L 246.15936 41.472 
" clip-path="url(#pd8d614c109)" style="fill: #a4ff53"/>
   </g>
   <g id="PathCollection_17">
    <path d="M 316.735987 41.472 
L 316.67001 42.53497 
L 316.646938 44.07008 
L 316.457753 47.543567 
L 316.317853 50.3424 
L 316.119048 53.512395 
L 316.00476 56.61472 
L 315.914022 57.806683 
L 315.894388 59.2128 
L 315.73057 60.702187 
L 315.701826 61.81088 
L 315.540774 64.279518 
L 315.297457 68.0832 
L 314.952818 72.531179 
L 314.862645 74.35552 
L 314.801757 75.042619 
L 314.742826 76.9536 
L 314.484904 79.008402 
L 314.463106 79.55168 
L 314.369073 80.736338 
L 313.949934 85.824 
L 313.348202 92.030359 
L 313.343841 92.09632 
L 313.341294 92.120507 
L 313.303735 93.277367 
L 313.204477 94.6944 
L 312.957786 96.197315 
L 312.819582 97.29248 
L 312.607046 99.094005 
L 312.12775 103.5648 
L 311.830094 105.980123 
L 311.33256 109.83712 
L 311.267277 110.338765 
L 311.092296 112.4352 
L 310.747563 114.402616 
L 310.603498 115.03328 
L 310.011516 118.909774 
L 309.623935 121.3056 
L 308.497752 127.524795 
L 308.486923 127.57792 
L 308.479438 127.608238 
L 308.251418 128.82825 
L 308.081371 130.176 
L 307.813064 131.414929 
L 307.552099 132.322837 
L 307.455541 132.77408 
L 307.025916 134.44008 
L 306.017831 139.0464 
L 305.348735 141.814822 
L 304.365182 145.31872 
L 303.638419 147.546404 
L 303.553646 147.9168 
L 303.506263 148.086568 
L 303.460972 148.206652 
L 302.760808 150.51488 
L 301.190174 154.998565 
L 300.45963 156.7872 
L 298.229351 161.82038 
L 297.729512 163.05952 
L 297.621797 163.297016 
L 296.53631 165.6576 
L 295.341992 167.819611 
L 295.035388 168.25568 
L 293.406499 171.03274 
L 291.103055 174.528 
L 289.148345 177.284423 
L 286.138588 180.80032 
L 284.592736 182.47233 
L 283.679548 183.3984 
L 282.458752 184.434644 
L 280.847446 185.99648 
L 277.286133 188.956279 
L 272.607727 192.2688 
L 271.259737 193.163232 
L 268.139119 194.794022 
L 264.163568 197.069872 
L 261.06993 198.54112 
L 255.686204 200.783676 
L 254.881989 201.1392 
L 254.647769 201.236933 
L 254.544789 201.271155 
L 252.028594 202.149361 
L 247.507555 203.73728 
L 244.178774 204.769849 
L 242.482645 205.168238 
L 235.498456 207.19751 
L 230.640547 208.235419 
L 229.425506 208.569322 
L 222.552621 210.0096 
L 221.979118 210.123476 
L 221.742838 210.154645 
L 214.347926 211.510811 
L 213.156089 211.661461 
L 208.037576 212.58678 
L 202.745866 213.23121 
L 199.044767 213.855516 
L 196.002281 214.212751 
L 193.684719 214.599354 
L 184.338 215.662218 
L 183.583019 215.780668 
L 179.032996 216.28192 
L 179.03143 216.282098 
L 179.030056 216.282217 
L 169.708752 217.246789 
L 167.62718 217.470018 
L 158.576533 218.217709 
L 156.178019 218.453592 
L 155.626041 218.509761 
L 150.950236 218.88 
L 143.362742 219.484423 
L 142.387503 219.542477 
L 139.008161 219.751426 
L 130.787446 220.381632 
L 128.356971 220.522418 
L 120.016574 221.023337 
L 114.810692 221.344586 
L 114.092976 221.396388 
L 112.696535 221.47808 
L 103.313591 222.013174 
L 102.616599 222.030181 
L 100.4544 222.11453 
L 100.4544 227.7504 
L 100.4544 236.6208 
L 100.4544 245.4912 
L 100.4544 247.981677 
L 101.431231 248.075463 
L 105.948198 248.341357 
L 111.610171 248.845578 
L 115.289198 249.074981 
L 118.096806 249.335104 
L 121.057574 249.524918 
L 129.130627 250.304138 
L 130.966733 250.429256 
L 134.847513 250.819966 
L 135.991937 250.900263 
L 144.199408 251.76352 
L 146.197842 251.969589 
L 148.683819 252.267959 
L 153.765915 252.840323 
L 159.134663 253.445971 
L 166.097298 254.3616 
L 171.670375 255.104419 
L 176.615543 255.863421 
L 183.751325 256.95968 
L 183.771298 256.962829 
L 183.776262 256.963815 
L 193.711363 258.613049 
L 196.032911 259.10988 
L 198.955505 259.622232 
L 203.261152 260.575053 
L 207.407748 261.345002 
L 213.633217 262.842408 
L 213.907294 262.896506 
L 215.250717 263.232 
L 220.684908 264.536352 
L 223.965052 265.522113 
L 228.63941 266.751939 
L 231.668844 267.7266 
L 233.503773 268.229914 
L 237.18346 269.50432 
L 240.980778 270.778748 
L 242.005642 271.124049 
L 244.462047 272.1024 
L 249.730381 274.155733 
L 250.959824 274.70048 
L 257.44361 277.477632 
L 261.918683 279.834901 
L 262.649208 280.178055 
L 264.070979 280.9728 
L 268.358837 283.257249 
L 274.467277 287.24512 
L 275.180289 287.693153 
L 276.279646 288.394386 
L 278.149088 289.8432 
L 281.354265 292.23923 
L 281.58506 292.44128 
L 287.689234 297.556108 
L 288.798768 298.7136 
L 293.11627 302.976676 
L 294.855008 304.98592 
L 295.969164 306.22355 
L 297.076348 307.584 
L 302.8224 307.584 
L 310.91712 307.584 
L 319.01184 307.584 
L 327.10656 307.584 
L 335.20128 307.584 
L 343.296 307.584 
L 343.296 298.7136 
L 343.296 289.8432 
L 343.296 280.9728 
L 343.296 272.1024 
L 343.296 263.232 
L 343.296 254.3616 
L 343.296 245.4912 
L 343.296 236.6208 
L 343.296 227.7504 
L 343.296 218.88 
L 343.296 210.0096 
L 343.296 201.1392 
L 343.296 192.2688 
L 343.296 183.3984 
L 343.296 174.528 
L 343.296 165.6576 
L 343.296 156.7872 
L 343.296 147.9168 
L 343.296 139.0464 
L 343.296 130.176 
L 343.296 121.3056 
L 343.296 112.4352 
L 343.296 103.5648 
L 343.296 94.6944 
L 343.296 85.824 
L 343.296 76.9536 
L 343.296 68.0832 
L 343.296 59.2128 
L 343.296 50.3424 
L 343.296 41.472 
L 335.20128 41.472 
L 327.10656 41.472 
L 319.01184 41.472 
" clip-path="url(#pd8d614c109)" style="fill: #f8f500"/>
   </g>
   <g id="PathCollection_18">
    <path d="M 297.076348 307.584 
L 295.969164 306.22355 
L 294.855008 304.98592 
L 293.11627 302.976676 
L 288.798768 298.7136 
L 287.689234 297.556108 
L 281.58506 292.44128 
L 281.354265 292.23923 
L 278.149088 289.8432 
L 276.279646 288.394386 
L 275.180289 287.693153 
L 274.467277 287.24512 
L 268.358837 283.257249 
L 264.070979 280.9728 
L 262.649208 280.178055 
L 261.918683 279.834901 
L 257.44361 277.477632 
L 250.959824 274.70048 
L 249.730381 274.155733 
L 244.462047 272.1024 
L 242.005642 271.124049 
L 240.980778 270.778748 
L 237.18346 269.50432 
L 233.503773 268.229914 
L 231.668844 267.7266 
L 228.63941 266.751939 
L 223.965052 265.522113 
L 220.684908 264.536352 
L 215.250717 263.232 
L 213.907294 262.896506 
L 213.633217 262.842408 
L 207.407748 261.345002 
L 203.261152 260.575053 
L 198.955505 259.622232 
L 196.032911 259.10988 
L 193.711363 258.613049 
L 183.776262 256.963815 
L 183.771298 256.962829 
L 183.751325 256.95968 
L 176.615543 255.863421 
L 171.670375 255.104419 
L 166.097298 254.3616 
L 159.134663 253.445971 
L 153.765915 252.840323 
L 148.683819 252.267959 
L 146.197842 251.969589 
L 144.199408 251.76352 
L 135.991937 250.900263 
L 134.847513 250.819966 
L 130.966733 250.429256 
L 129.130627 250.304138 
L 121.057574 249.524918 
L 118.096806 249.335104 
L 115.289198 249.074981 
L 111.610171 248.845578 
L 105.948198 248.341357 
L 101.431231 248.075463 
L 100.4544 247.981677 
L 100.4544 254.3616 
L 100.4544 263.232 
L 100.4544 271.824834 
L 100.676145 271.859407 
L 102.179017 272.1024 
L 106.879361 272.860313 
L 112.298173 273.804117 
L 115.624466 274.364968 
L 117.434055 274.70048 
L 118.914545 274.96552 
L 119.334524 275.05092 
L 128.582173 276.760871 
L 131.474225 277.377344 
L 134.009028 277.862291 
L 139.103836 278.973835 
L 142.193415 279.586127 
L 148.230654 280.9728 
L 148.960203 281.138193 
L 149.098534 281.173371 
L 155.564699 282.674333 
L 159.65938 283.758323 
L 163.778242 284.766312 
L 166.979926 285.649524 
L 168.655179 286.070252 
L 172.729726 287.24512 
L 176.605321 288.346019 
L 177.872347 288.709826 
L 181.477005 289.8432 
L 186.243117 291.319848 
L 189.583521 292.44128 
L 193.915194 293.871286 
L 196.063137 294.671446 
L 198.764907 295.608067 
L 205.07207 298.041102 
L 205.993007 298.376911 
L 206.803526 298.7136 
L 212.854562 301.163169 
L 215.084044 302.162252 
L 217.71813 303.269023 
L 221.317243 304.98592 
L 224.419671 306.42905 
L 226.708523 307.584 
L 229.96992 307.584 
L 238.06464 307.584 
L 246.15936 307.584 
L 254.25408 307.584 
L 262.3488 307.584 
L 270.44352 307.584 
L 278.53824 307.584 
L 286.63296 307.584 
L 294.72768 307.584 
" clip-path="url(#pd8d614c109)" style="fill: #ff9400"/>
   </g>
   <g id="PathCollection_19">
    <path d="M 226.708523 307.584 
L 224.419671 306.42905 
L 221.317243 304.98592 
L 217.71813 303.269023 
L 215.084044 302.162252 
L 212.854562 301.163169 
L 206.803526 298.7136 
L 205.993007 298.376911 
L 205.07207 298.041102 
L 198.764907 295.608067 
L 196.063137 294.671446 
L 193.915194 293.871286 
L 189.583521 292.44128 
L 186.243117 291.319848 
L 181.477005 289.8432 
L 177.872347 288.709826 
L 176.605321 288.346019 
L 172.729726 287.24512 
L 168.655179 286.070252 
L 166.979926 285.649524 
L 163.778242 284.766312 
L 159.65938 283.758323 
L 155.564699 282.674333 
L 149.098534 281.173371 
L 148.960203 281.138193 
L 148.230654 280.9728 
L 142.193415 279.586127 
L 139.103836 278.973835 
L 134.009028 277.862291 
L 131.474225 277.377344 
L 128.582173 276.760871 
L 119.334524 275.05092 
L 118.914545 274.96552 
L 117.434055 274.70048 
L 115.624466 274.364968 
L 112.298173 273.804117 
L 106.879361 272.860313 
L 102.179017 272.1024 
L 100.676145 271.859407 
L 100.4544 271.824834 
L 100.4544 272.1024 
L 100.4544 280.9728 
L 100.4544 289.8432 
L 100.4544 295.233083 
L 101.670692 295.49583 
L 106.723542 296.713085 
L 109.739888 297.408726 
L 114.954346 298.7136 
L 116.495989 299.104748 
L 116.82522 299.193451 
L 122.871073 300.76004 
L 127.877933 302.153804 
L 131.195729 303.045835 
L 134.87003 304.101938 
L 135.781958 304.352764 
L 137.90735 304.98592 
L 143.184976 306.559546 
L 146.465281 307.584 
L 149.02272 307.584 
L 157.11744 307.584 
L 165.21216 307.584 
L 173.30688 307.584 
L 181.4016 307.584 
L 189.49632 307.584 
L 197.59104 307.584 
L 205.68576 307.584 
L 213.78048 307.584 
L 221.8752 307.584 
" clip-path="url(#pd8d614c109)" style="fill: #ff3800"/>
   </g>
   <g id="PathCollection_20">
    <path d="M 146.465281 307.584 
L 143.184976 306.559546 
L 137.90735 304.98592 
L 135.781958 304.352764 
L 134.87003 304.101938 
L 131.195729 303.045835 
L 127.877933 302.153804 
L 122.871073 300.76004 
L 116.82522 299.193451 
L 116.495989 299.104748 
L 114.954346 298.7136 
L 109.739888 297.408726 
L 106.723542 296.713085 
L 101.670692 295.49583 
L 100.4544 295.233083 
L 100.4544 298.7136 
L 100.4544 307.584 
L 108.54912 307.584 
L 116.64384 307.584 
L 124.73856 307.584 
L 132.83328 307.584 
L 140.928 307.584 
" clip-path="url(#pd8d614c109)" style="fill: #b60000"/>
   </g>
   <g id="matplotlib.axis_1">
    <g id="xtick_1">
     <g id="line2d_1">
      <defs>
       <path id="m255f7e83fd" d="M 0 0 
L 0 3.5 
" style="stroke: #000000; stroke-width: 0.8"/>
      </defs>
      <g>
       <use xlink:href="#m255f7e83fd" x="57.6" y="307.584" style="stroke: #000000; stroke-width: 0.8"/>
      </g>
     </g>
     <g id="text_1">
      <!-- 0.0 -->
      <g transform="translate(51.26875 321.385562) scale(0.1 -0.1)">
       <defs>
        <path id="Calibri-30" d="M 3022 2031 
Q 3022 1566 2948 1181 
Q 2875 797 2704 520 
Q 2534 244 2259 92 
Q 1984 -59 1581 -59 
Q 1200 -59 939 77 
Q 678 213 518 477 
Q 359 741 292 1127 
Q 225 1513 225 2013 
Q 225 2475 300 2861 
Q 375 3247 544 3523 
Q 713 3800 988 3951 
Q 1263 4103 1663 4103 
Q 2047 4103 2308 3967 
Q 2569 3831 2728 3567 
Q 2888 3303 2955 2917 
Q 3022 2531 3022 2031 
z
M 2472 1994 
Q 2472 2297 2450 2537 
Q 2428 2778 2386 2962 
Q 2344 3147 2276 3280 
Q 2209 3413 2115 3498 
Q 2022 3584 1901 3623 
Q 1781 3663 1631 3663 
Q 1366 3663 1200 3538 
Q 1034 3413 939 3194 
Q 844 2975 809 2681 
Q 775 2388 775 2050 
Q 775 1597 822 1280 
Q 869 963 970 763 
Q 1072 563 1230 472 
Q 1388 381 1613 381 
Q 1788 381 1920 437 
Q 2053 494 2148 598 
Q 2244 703 2306 850 
Q 2369 997 2406 1175 
Q 2444 1353 2458 1561 
Q 2472 1769 2472 1994 
z
" transform="scale(0.015625)"/>
        <path id="Calibri-2e" d="M 1144 341 
Q 1144 119 1070 45 
Q 997 -28 803 -28 
Q 616 -28 544 44 
Q 472 116 472 331 
Q 472 553 545 626 
Q 619 700 813 700 
Q 1000 700 1072 628 
Q 1144 556 1144 341 
z
" transform="scale(0.015625)"/>
       </defs>
       <use xlink:href="#Calibri-30"/>
       <use xlink:href="#Calibri-2e" x="50.683594"/>
       <use xlink:href="#Calibri-30" x="75.927734"/>
      </g>
     </g>
    </g>
    <g id="xtick_2">
     <g id="line2d_2">
      <g>
       <use xlink:href="#m255f7e83fd" x="86.1696" y="307.584" style="stroke: #000000; stroke-width: 0.8"/>
      </g>
     </g>
     <g id="text_2">
      <!-- 0.1 -->
      <g transform="translate(79.83835 321.385562) scale(0.1 -0.1)">
       <defs>
        <path id="Calibri-31" d="M 2897 213 
Q 2897 153 2887 112 
Q 2878 72 2862 47 
Q 2847 22 2826 11 
Q 2806 0 2784 0 
L 672 0 
Q 650 0 631 11 
Q 613 22 595 47 
Q 578 72 568 112 
Q 559 153 559 213 
Q 559 269 568 309 
Q 578 350 592 376 
Q 606 403 626 417 
Q 647 431 672 431 
L 1516 431 
L 1516 3506 
L 734 3041 
Q 675 3009 639 3003 
Q 603 2997 581 3017 
Q 559 3038 551 3084 
Q 544 3131 544 3203 
Q 544 3256 548 3293 
Q 553 3331 562 3356 
Q 572 3381 589 3400 
Q 606 3419 634 3438 
L 1566 4034 
Q 1578 4044 1597 4050 
Q 1616 4056 1644 4062 
Q 1672 4069 1709 4070 
Q 1747 4072 1803 4072 
Q 1878 4072 1928 4065 
Q 1978 4059 2006 4048 
Q 2034 4038 2043 4020 
Q 2053 4003 2053 3984 
L 2053 431 
L 2784 431 
Q 2809 431 2831 417 
Q 2853 403 2867 376 
Q 2881 350 2889 309 
Q 2897 269 2897 213 
z
" transform="scale(0.015625)"/>
       </defs>
       <use xlink:href="#Calibri-30"/>
       <use xlink:href="#Calibri-2e" x="50.683594"/>
       <use xlink:href="#Calibri-31" x="75.927734"/>
      </g>
     </g>
    </g>
    <g id="xtick_3">
     <g id="line2d_3">
      <g>
       <use xlink:href="#m255f7e83fd" x="114.7392" y="307.584" style="stroke: #000000; stroke-width: 0.8"/>
      </g>
     </g>
     <g id="text_3">
      <!-- 0.2 -->
      <g transform="translate(108.40795 321.385562) scale(0.1 -0.1)">
       <defs>
        <path id="Calibri-32" d="M 2888 231 
Q 2888 175 2880 131 
Q 2872 88 2858 58 
Q 2844 28 2820 14 
Q 2797 0 2769 0 
L 534 0 
Q 491 0 458 11 
Q 425 22 401 47 
Q 378 72 367 119 
Q 356 166 356 234 
Q 356 297 361 344 
Q 366 391 381 427 
Q 397 463 420 498 
Q 444 534 481 575 
L 1266 1406 
Q 1538 1694 1702 1922 
Q 1866 2150 1955 2337 
Q 2044 2525 2072 2678 
Q 2100 2831 2100 2966 
Q 2100 3100 2056 3220 
Q 2013 3341 1930 3431 
Q 1847 3522 1722 3575 
Q 1597 3628 1434 3628 
Q 1244 3628 1092 3575 
Q 941 3522 827 3459 
Q 713 3397 636 3344 
Q 559 3291 522 3291 
Q 500 3291 483 3303 
Q 466 3316 455 3344 
Q 444 3372 437 3419 
Q 431 3466 431 3531 
Q 431 3578 434 3612 
Q 438 3647 445 3672 
Q 453 3697 465 3719 
Q 478 3741 515 3773 
Q 553 3806 645 3862 
Q 738 3919 877 3973 
Q 1016 4028 1183 4065 
Q 1350 4103 1534 4103 
Q 1828 4103 2048 4020 
Q 2269 3938 2414 3794 
Q 2559 3650 2631 3459 
Q 2703 3269 2703 3053 
Q 2703 2859 2668 2667 
Q 2634 2475 2523 2251 
Q 2413 2028 2203 1754 
Q 1994 1481 1647 1125 
L 1006 456 
L 2766 456 
Q 2791 456 2814 442 
Q 2838 428 2855 400 
Q 2872 372 2880 330 
Q 2888 288 2888 231 
z
" transform="scale(0.015625)"/>
       </defs>
       <use xlink:href="#Calibri-30"/>
       <use xlink:href="#Calibri-2e" x="50.683594"/>
       <use xlink:href="#Calibri-32" x="75.927734"/>
      </g>
     </g>
    </g>
    <g id="xtick_4">
     <g id="line2d_4">
      <g>
       <use xlink:href="#m255f7e83fd" x="143.3088" y="307.584" style="stroke: #000000; stroke-width: 0.8"/>
      </g>
     </g>
     <g id="text_4">
      <!-- 0.3 -->
      <g transform="translate(136.97755 321.385562) scale(0.1 -0.1)">
       <defs>
        <path id="Calibri-33" d="M 2856 1156 
Q 2856 878 2759 654 
Q 2663 431 2481 272 
Q 2300 113 2034 27 
Q 1769 -59 1434 -59 
Q 1231 -59 1054 -26 
Q 878 6 740 51 
Q 603 97 512 145 
Q 422 194 398 216 
Q 375 238 362 259 
Q 350 281 340 312 
Q 331 344 326 389 
Q 322 434 322 500 
Q 322 613 344 656 
Q 366 700 406 700 
Q 434 700 517 650 
Q 600 600 729 542 
Q 859 484 1032 434 
Q 1206 384 1419 384 
Q 1625 384 1781 437 
Q 1938 491 2044 587 
Q 2150 684 2203 817 
Q 2256 950 2256 1106 
Q 2256 1278 2189 1415 
Q 2122 1553 1992 1653 
Q 1863 1753 1673 1806 
Q 1484 1859 1244 1859 
L 859 1859 
Q 834 1859 811 1870 
Q 788 1881 770 1906 
Q 753 1931 742 1972 
Q 731 2013 731 2078 
Q 731 2138 740 2177 
Q 750 2216 767 2239 
Q 784 2263 806 2273 
Q 828 2284 856 2284 
L 1209 2284 
Q 1416 2284 1580 2337 
Q 1744 2391 1858 2491 
Q 1972 2591 2033 2730 
Q 2094 2869 2094 3041 
Q 2094 3166 2053 3280 
Q 2013 3394 1931 3478 
Q 1850 3563 1723 3611 
Q 1597 3659 1431 3659 
Q 1250 3659 1098 3604 
Q 947 3550 828 3487 
Q 709 3425 631 3370 
Q 553 3316 522 3316 
Q 500 3316 483 3323 
Q 466 3331 455 3354 
Q 444 3378 439 3420 
Q 434 3463 434 3531 
Q 434 3578 437 3614 
Q 441 3650 450 3676 
Q 459 3703 471 3725 
Q 484 3747 514 3776 
Q 544 3806 634 3862 
Q 725 3919 858 3973 
Q 991 4028 1164 4065 
Q 1338 4103 1538 4103 
Q 1819 4103 2031 4031 
Q 2244 3959 2386 3828 
Q 2528 3697 2598 3514 
Q 2669 3331 2669 3109 
Q 2669 2919 2619 2755 
Q 2569 2591 2472 2464 
Q 2375 2338 2234 2248 
Q 2094 2159 1909 2125 
L 1909 2119 
Q 2119 2097 2292 2014 
Q 2466 1931 2591 1806 
Q 2716 1681 2786 1514 
Q 2856 1347 2856 1156 
z
" transform="scale(0.015625)"/>
       </defs>
       <use xlink:href="#Calibri-30"/>
       <use xlink:href="#Calibri-2e" x="50.683594"/>
       <use xlink:href="#Calibri-33" x="75.927734"/>
      </g>
     </g>
    </g>
    <g id="xtick_5">
     <g id="line2d_5">
      <g>
       <use xlink:href="#m255f7e83fd" x="171.8784" y="307.584" style="stroke: #000000; stroke-width: 0.8"/>
      </g>
     </g>
     <g id="text_5">
      <!-- 0.4 -->
      <g transform="translate(165.54715 321.385562) scale(0.1 -0.1)">
       <defs>
        <path id="Calibri-34" d="M 3059 1150 
Q 3059 1047 3028 987 
Q 2997 928 2941 928 
L 2484 928 
L 2484 78 
Q 2484 53 2471 36 
Q 2459 19 2428 6 
Q 2397 -6 2347 -12 
Q 2297 -19 2219 -19 
Q 2144 -19 2094 -12 
Q 2044 -6 2014 6 
Q 1984 19 1973 36 
Q 1963 53 1963 78 
L 1963 928 
L 294 928 
Q 256 928 231 937 
Q 206 947 186 972 
Q 166 997 158 1044 
Q 150 1091 150 1166 
Q 150 1225 153 1272 
Q 156 1319 165 1358 
Q 175 1397 190 1433 
Q 206 1469 228 1509 
L 1684 3966 
Q 1700 3991 1729 4009 
Q 1759 4028 1806 4040 
Q 1853 4053 1922 4058 
Q 1991 4063 2084 4063 
Q 2188 4063 2264 4055 
Q 2341 4047 2387 4034 
Q 2434 4022 2459 4001 
Q 2484 3981 2484 3953 
L 2484 1372 
L 2941 1372 
Q 2994 1372 3026 1317 
Q 3059 1263 3059 1150 
z
M 1963 3591 
L 1956 3591 
L 641 1372 
L 1963 1372 
L 1963 3591 
z
" transform="scale(0.015625)"/>
       </defs>
       <use xlink:href="#Calibri-30"/>
       <use xlink:href="#Calibri-2e" x="50.683594"/>
       <use xlink:href="#Calibri-34" x="75.927734"/>
      </g>
     </g>
    </g>
    <g id="xtick_6">
     <g id="line2d_6">
      <g>
       <use xlink:href="#m255f7e83fd" x="200.448" y="307.584" style="stroke: #000000; stroke-width: 0.8"/>
      </g>
     </g>
     <g id="text_6">
      <!-- 0.5 -->
      <g transform="translate(194.11675 321.385562) scale(0.1 -0.1)">
       <defs>
        <path id="Calibri-35" d="M 2869 1300 
Q 2869 975 2759 722 
Q 2650 469 2450 295 
Q 2250 122 1973 31 
Q 1697 -59 1359 -59 
Q 1172 -59 1003 -32 
Q 834 -6 703 33 
Q 572 72 487 109 
Q 403 147 379 169 
Q 356 191 347 209 
Q 338 228 330 254 
Q 322 281 319 322 
Q 316 363 316 419 
Q 316 472 320 514 
Q 325 556 337 582 
Q 350 609 367 621 
Q 384 634 406 634 
Q 438 634 503 595 
Q 569 556 680 511 
Q 791 466 955 425 
Q 1119 384 1344 384 
Q 1553 384 1728 434 
Q 1903 484 2029 590 
Q 2156 697 2228 858 
Q 2300 1019 2300 1250 
Q 2300 1444 2239 1592 
Q 2178 1741 2051 1839 
Q 1925 1938 1731 1986 
Q 1538 2034 1269 2034 
Q 1078 2034 940 2015 
Q 803 1997 684 1997 
Q 597 1997 559 2037 
Q 522 2078 522 2194 
L 522 3841 
Q 522 3944 570 3994 
Q 619 4044 709 4044 
L 2500 4044 
Q 2525 4044 2548 4030 
Q 2572 4016 2587 3987 
Q 2603 3959 2611 3915 
Q 2619 3872 2619 3813 
Q 2619 3700 2587 3637 
Q 2556 3575 2500 3575 
L 991 3575 
L 991 2441 
Q 1100 2456 1214 2459 
Q 1328 2463 1478 2463 
Q 1825 2463 2084 2380 
Q 2344 2297 2517 2145 
Q 2691 1994 2780 1778 
Q 2869 1563 2869 1300 
z
" transform="scale(0.015625)"/>
       </defs>
       <use xlink:href="#Calibri-30"/>
       <use xlink:href="#Calibri-2e" x="50.683594"/>
       <use xlink:href="#Calibri-35" x="75.927734"/>
      </g>
     </g>
    </g>
    <g id="xtick_7">
     <g id="line2d_7">
      <g>
       <use xlink:href="#m255f7e83fd" x="229.0176" y="307.584" style="stroke: #000000; stroke-width: 0.8"/>
      </g>
     </g>
     <g id="text_7">
      <!-- 0.6 -->
      <g transform="translate(222.68635 321.385562) scale(0.1 -0.1)">
       <defs>
        <path id="Calibri-36" d="M 2991 1309 
Q 2991 1044 2909 795 
Q 2828 547 2659 358 
Q 2491 169 2231 55 
Q 1972 -59 1619 -59 
Q 1366 -59 1172 3 
Q 978 66 834 181 
Q 691 297 595 465 
Q 500 634 442 850 
Q 384 1066 359 1322 
Q 334 1578 334 1872 
Q 334 2131 362 2397 
Q 391 2663 462 2909 
Q 534 3156 657 3373 
Q 781 3591 967 3752 
Q 1153 3913 1412 4006 
Q 1672 4100 2016 4100 
Q 2131 4100 2250 4086 
Q 2369 4072 2469 4048 
Q 2569 4025 2637 3997 
Q 2706 3969 2728 3951 
Q 2750 3934 2761 3914 
Q 2772 3894 2778 3870 
Q 2784 3847 2787 3817 
Q 2791 3788 2791 3744 
Q 2791 3688 2789 3647 
Q 2788 3606 2777 3581 
Q 2766 3556 2748 3543 
Q 2731 3531 2703 3531 
Q 2669 3531 2609 3553 
Q 2550 3575 2465 3601 
Q 2381 3628 2261 3650 
Q 2141 3672 1981 3672 
Q 1691 3672 1481 3553 
Q 1272 3434 1139 3234 
Q 1006 3034 942 2770 
Q 878 2506 869 2219 
Q 950 2266 1051 2312 
Q 1153 2359 1273 2396 
Q 1394 2434 1528 2457 
Q 1663 2481 1816 2481 
Q 2144 2481 2369 2392 
Q 2594 2303 2733 2145 
Q 2872 1988 2931 1773 
Q 2991 1559 2991 1309 
z
M 2447 1259 
Q 2447 1441 2411 1589 
Q 2375 1738 2290 1841 
Q 2206 1944 2065 2000 
Q 1925 2056 1719 2056 
Q 1603 2056 1487 2036 
Q 1372 2016 1264 1980 
Q 1156 1944 1057 1895 
Q 959 1847 878 1791 
Q 878 1388 929 1116 
Q 981 844 1079 680 
Q 1178 516 1325 445 
Q 1472 375 1669 375 
Q 1869 375 2016 450 
Q 2163 525 2259 651 
Q 2356 778 2401 936 
Q 2447 1094 2447 1259 
z
" transform="scale(0.015625)"/>
       </defs>
       <use xlink:href="#Calibri-30"/>
       <use xlink:href="#Calibri-2e" x="50.683594"/>
       <use xlink:href="#Calibri-36" x="75.927734"/>
      </g>
     </g>
    </g>
    <g id="xtick_8">
     <g id="line2d_8">
      <g>
       <use xlink:href="#m255f7e83fd" x="257.5872" y="307.584" style="stroke: #000000; stroke-width: 0.8"/>
      </g>
     </g>
     <g id="text_8">
      <!-- 0.7 -->
      <g transform="translate(251.25595 321.385562) scale(0.1 -0.1)">
       <defs>
        <path id="Calibri-37" d="M 2947 3813 
Q 2947 3756 2942 3711 
Q 2938 3666 2930 3623 
Q 2922 3581 2908 3542 
Q 2894 3503 2875 3459 
L 1419 103 
Q 1403 66 1379 42 
Q 1356 19 1320 5 
Q 1284 -9 1228 -14 
Q 1172 -19 1091 -19 
Q 984 -19 925 -9 
Q 866 0 839 20 
Q 813 41 816 70 
Q 819 100 838 141 
L 2369 3572 
L 428 3572 
Q 369 3572 339 3634 
Q 309 3697 309 3809 
Q 309 3869 317 3912 
Q 325 3956 340 3986 
Q 356 4016 378 4030 
Q 400 4044 428 4044 
L 2784 4044 
Q 2828 4044 2861 4034 
Q 2894 4025 2911 3997 
Q 2928 3969 2937 3925 
Q 2947 3881 2947 3813 
z
" transform="scale(0.015625)"/>
       </defs>
       <use xlink:href="#Calibri-30"/>
       <use xlink:href="#Calibri-2e" x="50.683594"/>
       <use xlink:href="#Calibri-37" x="75.927734"/>
      </g>
     </g>
    </g>
    <g id="xtick_9">
     <g id="line2d_9">
      <g>
       <use xlink:href="#m255f7e83fd" x="286.1568" y="307.584" style="stroke: #000000; stroke-width: 0.8"/>
      </g>
     </g>
     <g id="text_9">
      <!-- 0.8 -->
      <g transform="translate(279.82555 321.385562) scale(0.1 -0.1)">
       <defs>
        <path id="Calibri-38" d="M 2981 1038 
Q 2981 775 2887 570 
Q 2794 366 2617 225 
Q 2441 84 2181 12 
Q 1922 -59 1588 -59 
Q 1275 -59 1028 6 
Q 781 72 609 200 
Q 438 328 347 515 
Q 256 703 256 944 
Q 256 1134 318 1293 
Q 381 1453 498 1587 
Q 616 1722 787 1839 
Q 959 1956 1175 2063 
Q 988 2159 844 2267 
Q 700 2375 600 2501 
Q 500 2628 448 2772 
Q 397 2916 397 3084 
Q 397 3297 473 3483 
Q 550 3669 704 3806 
Q 859 3944 1098 4023 
Q 1338 4103 1656 4103 
Q 1963 4103 2186 4029 
Q 2409 3956 2554 3829 
Q 2700 3703 2769 3531 
Q 2838 3359 2838 3163 
Q 2838 3003 2786 2856 
Q 2734 2709 2634 2578 
Q 2534 2447 2389 2333 
Q 2244 2219 2056 2119 
Q 2278 2009 2451 1893 
Q 2625 1778 2742 1645 
Q 2859 1513 2920 1364 
Q 2981 1216 2981 1038 
z
M 2306 3113 
Q 2306 3244 2261 3350 
Q 2216 3456 2128 3531 
Q 2041 3606 1911 3645 
Q 1781 3684 1616 3684 
Q 1278 3684 1104 3531 
Q 931 3378 931 3113 
Q 931 2991 973 2886 
Q 1016 2781 1105 2687 
Q 1194 2594 1330 2505 
Q 1466 2416 1653 2319 
Q 1969 2481 2137 2678 
Q 2306 2875 2306 3113 
z
M 2438 981 
Q 2438 1125 2384 1242 
Q 2331 1359 2223 1461 
Q 2116 1563 1955 1658 
Q 1794 1753 1581 1856 
Q 1384 1759 1236 1662 
Q 1088 1566 992 1462 
Q 897 1359 848 1245 
Q 800 1131 800 994 
Q 800 691 1008 525 
Q 1216 359 1628 359 
Q 2028 359 2233 526 
Q 2438 694 2438 981 
z
" transform="scale(0.015625)"/>
       </defs>
       <use xlink:href="#Calibri-30"/>
       <use xlink:href="#Calibri-2e" x="50.683594"/>
       <use xlink:href="#Calibri-38" x="75.927734"/>
      </g>
     </g>
    </g>
    <g id="xtick_10">
     <g id="line2d_10">
      <g>
       <use xlink:href="#m255f7e83fd" x="314.7264" y="307.584" style="stroke: #000000; stroke-width: 0.8"/>
      </g>
     </g>
     <g id="text_10">
      <!-- 0.9 -->
      <g transform="translate(308.39515 321.385562) scale(0.1 -0.1)">
       <defs>
        <path id="Calibri-39" d="M 2919 2181 
Q 2919 1919 2887 1650 
Q 2856 1381 2781 1132 
Q 2706 884 2579 667 
Q 2453 450 2261 287 
Q 2069 125 1805 33 
Q 1541 -59 1191 -59 
Q 1056 -59 929 -42 
Q 803 -25 701 0 
Q 600 25 531 53 
Q 463 81 431 109 
Q 400 138 386 186 
Q 372 234 372 316 
Q 372 384 376 425 
Q 381 466 390 487 
Q 400 509 417 517 
Q 434 525 459 525 
Q 494 525 556 501 
Q 619 478 714 450 
Q 809 422 937 398 
Q 1066 375 1225 375 
Q 1528 375 1745 492 
Q 1963 609 2100 806 
Q 2238 1003 2306 1262 
Q 2375 1522 2381 1809 
Q 2216 1713 1984 1638 
Q 1753 1563 1453 1563 
Q 1116 1563 886 1655 
Q 656 1747 517 1906 
Q 378 2066 317 2284 
Q 256 2503 256 2763 
Q 256 3031 334 3273 
Q 413 3516 578 3700 
Q 744 3884 1000 3993 
Q 1256 4103 1613 4103 
Q 1866 4103 2061 4039 
Q 2256 3975 2400 3854 
Q 2544 3734 2644 3564 
Q 2744 3394 2805 3178 
Q 2866 2963 2892 2711 
Q 2919 2459 2919 2181 
z
M 2372 2241 
Q 2372 2641 2319 2914 
Q 2266 3188 2162 3356 
Q 2059 3525 1909 3600 
Q 1759 3675 1563 3675 
Q 1359 3675 1215 3601 
Q 1072 3528 980 3404 
Q 888 3281 844 3125 
Q 800 2969 800 2803 
Q 800 2619 839 2466 
Q 878 2313 965 2206 
Q 1053 2100 1193 2042 
Q 1334 1984 1541 1984 
Q 1775 1984 1994 2054 
Q 2213 2125 2372 2241 
z
" transform="scale(0.015625)"/>
       </defs>
       <use xlink:href="#Calibri-30"/>
       <use xlink:href="#Calibri-2e" x="50.683594"/>
       <use xlink:href="#Calibri-39" x="75.927734"/>
      </g>
     </g>
    </g>
    <g id="xtick_11">
     <g id="line2d_11">
      <g>
       <use xlink:href="#m255f7e83fd" x="343.296" y="307.584" style="stroke: #000000; stroke-width: 0.8"/>
      </g>
     </g>
     <g id="text_11">
      <!-- 1.0 -->
      <g transform="translate(336.96475 321.385562) scale(0.1 -0.1)">
       <use xlink:href="#Calibri-31"/>
       <use xlink:href="#Calibri-2e" x="50.683594"/>
       <use xlink:href="#Calibri-30" x="75.927734"/>
      </g>
     </g>
    </g>
    <g id="text_12">
     <!-- $\mathit{p}$ (cm$^2$/cm$^2$) -->
     <g transform="translate(174.148 336.263687) scale(0.1 -0.1)">
      <defs>
       <path id="DejaVuSans-Oblique-70" d="M 3175 2156 
Q 3175 2616 2975 2859 
Q 2775 3103 2400 3103 
Q 2144 3103 1911 2972 
Q 1678 2841 1497 2591 
Q 1319 2344 1212 1994 
Q 1106 1644 1106 1300 
Q 1106 863 1306 627 
Q 1506 391 1875 391 
Q 2147 391 2380 519 
Q 2613 647 2778 891 
Q 2956 1147 3065 1494 
Q 3175 1841 3175 2156 
z
M 1394 2969 
Q 1625 3272 1939 3428 
Q 2253 3584 2638 3584 
Q 3175 3584 3472 3232 
Q 3769 2881 3769 2247 
Q 3769 1728 3584 1258 
Q 3400 788 3053 416 
Q 2822 169 2531 39 
Q 2241 -91 1919 -91 
Q 1547 -91 1294 64 
Q 1041 219 916 525 
L 556 -1331 
L -19 -1331 
L 922 3500 
L 1497 3500 
L 1394 2969 
z
" transform="scale(0.015625)"/>
       <path id="Calibri-20" transform="scale(0.015625)"/>
       <path id="Calibri-28" d="M 1547 4306 
Q 1250 3678 1104 3017 
Q 959 2356 959 1688 
Q 959 1016 1107 356 
Q 1256 -303 1541 -938 
Q 1556 -975 1557 -1001 
Q 1559 -1028 1537 -1045 
Q 1516 -1063 1470 -1070 
Q 1425 -1078 1347 -1078 
Q 1291 -1078 1250 -1075 
Q 1209 -1072 1179 -1062 
Q 1150 -1053 1131 -1040 
Q 1113 -1028 1103 -1013 
Q 934 -694 806 -367 
Q 678 -41 590 296 
Q 503 634 459 979 
Q 416 1325 416 1678 
Q 416 2031 464 2375 
Q 513 2719 602 3058 
Q 691 3397 819 3725 
Q 947 4053 1106 4375 
Q 1109 4388 1123 4397 
Q 1138 4406 1163 4415 
Q 1188 4425 1231 4429 
Q 1275 4434 1344 4434 
Q 1416 4434 1459 4425 
Q 1503 4416 1528 4400 
Q 1553 4384 1556 4359 
Q 1559 4334 1547 4306 
z
" transform="scale(0.015625)"/>
       <path id="Calibri-63" d="M 2500 506 
Q 2500 453 2497 414 
Q 2494 375 2486 348 
Q 2478 322 2467 301 
Q 2456 281 2417 242 
Q 2378 203 2284 145 
Q 2191 88 2073 42 
Q 1956 -3 1818 -31 
Q 1681 -59 1534 -59 
Q 1231 -59 997 41 
Q 763 141 605 333 
Q 447 525 364 804 
Q 281 1084 281 1450 
Q 281 1866 382 2164 
Q 484 2463 661 2653 
Q 838 2844 1077 2936 
Q 1316 3028 1594 3028 
Q 1728 3028 1854 3003 
Q 1981 2978 2087 2937 
Q 2194 2897 2276 2844 
Q 2359 2791 2396 2753 
Q 2434 2716 2448 2694 
Q 2463 2672 2472 2642 
Q 2481 2613 2484 2575 
Q 2488 2538 2488 2481 
Q 2488 2359 2459 2311 
Q 2431 2263 2391 2263 
Q 2344 2263 2283 2314 
Q 2222 2366 2128 2428 
Q 2034 2491 1901 2542 
Q 1769 2594 1588 2594 
Q 1216 2594 1017 2308 
Q 819 2022 819 1478 
Q 819 1206 870 1001 
Q 922 797 1022 659 
Q 1122 522 1267 455 
Q 1413 388 1600 388 
Q 1778 388 1912 444 
Q 2047 500 2145 567 
Q 2244 634 2311 689 
Q 2378 744 2416 744 
Q 2438 744 2453 731 
Q 2469 719 2480 689 
Q 2491 659 2495 614 
Q 2500 569 2500 506 
z
" transform="scale(0.015625)"/>
       <path id="Calibri-6d" d="M 4650 78 
Q 4650 53 4637 36 
Q 4625 19 4597 6 
Q 4569 -6 4519 -12 
Q 4469 -19 4394 -19 
Q 4316 -19 4266 -12 
Q 4216 -6 4186 6 
Q 4156 19 4143 36 
Q 4131 53 4131 78 
L 4131 1788 
Q 4131 1966 4100 2112 
Q 4069 2259 4000 2365 
Q 3931 2472 3825 2528 
Q 3719 2584 3575 2584 
Q 3397 2584 3217 2446 
Q 3038 2309 2822 2044 
L 2822 78 
Q 2822 53 2809 36 
Q 2797 19 2767 6 
Q 2738 -6 2688 -12 
Q 2638 -19 2563 -19 
Q 2491 -19 2439 -12 
Q 2388 -6 2358 6 
Q 2328 19 2317 36 
Q 2306 53 2306 78 
L 2306 1788 
Q 2306 1966 2272 2112 
Q 2238 2259 2169 2365 
Q 2100 2472 1995 2528 
Q 1891 2584 1747 2584 
Q 1569 2584 1387 2446 
Q 1206 2309 994 2044 
L 994 78 
Q 994 53 981 36 
Q 969 19 941 6 
Q 913 -6 863 -12 
Q 813 -19 734 -19 
Q 659 -19 609 -12 
Q 559 -6 529 6 
Q 500 19 489 36 
Q 478 53 478 78 
L 478 2891 
Q 478 2916 487 2933 
Q 497 2950 525 2964 
Q 553 2978 597 2983 
Q 641 2988 713 2988 
Q 781 2988 826 2983 
Q 872 2978 897 2964 
Q 922 2950 933 2933 
Q 944 2916 944 2891 
L 944 2519 
Q 1181 2784 1404 2907 
Q 1628 3031 1856 3031 
Q 2031 3031 2170 2990 
Q 2309 2950 2415 2876 
Q 2522 2803 2597 2701 
Q 2672 2600 2722 2475 
Q 2863 2628 2989 2734 
Q 3116 2841 3233 2906 
Q 3350 2972 3461 3001 
Q 3572 3031 3684 3031 
Q 3956 3031 4140 2936 
Q 4325 2841 4439 2681 
Q 4553 2522 4601 2308 
Q 4650 2094 4650 1856 
L 4650 78 
z
" transform="scale(0.015625)"/>
       <path id="DejaVuSans-32" d="M 1228 531 
L 3431 531 
L 3431 0 
L 469 0 
L 469 531 
Q 828 903 1448 1529 
Q 2069 2156 2228 2338 
Q 2531 2678 2651 2914 
Q 2772 3150 2772 3378 
Q 2772 3750 2511 3984 
Q 2250 4219 1831 4219 
Q 1534 4219 1204 4116 
Q 875 4013 500 3803 
L 500 4441 
Q 881 4594 1212 4672 
Q 1544 4750 1819 4750 
Q 2544 4750 2975 4387 
Q 3406 4025 3406 3419 
Q 3406 3131 3298 2873 
Q 3191 2616 2906 2266 
Q 2828 2175 2409 1742 
Q 1991 1309 1228 531 
z
" transform="scale(0.015625)"/>
       <path id="Calibri-2f" d="M 525 -753 
Q 513 -794 492 -817 
Q 472 -841 440 -853 
Q 409 -866 364 -872 
Q 319 -878 253 -878 
Q 175 -878 123 -867 
Q 72 -856 44 -836 
Q 16 -816 9 -786 
Q 3 -756 22 -716 
L 1913 4469 
Q 1925 4509 1945 4532 
Q 1966 4556 1995 4570 
Q 2025 4584 2072 4589 
Q 2119 4594 2184 4594 
Q 2263 4594 2313 4583 
Q 2363 4572 2391 4553 
Q 2419 4534 2425 4503 
Q 2431 4472 2416 4431 
L 525 -753 
z
" transform="scale(0.015625)"/>
       <path id="Calibri-29" d="M 1522 1678 
Q 1522 1325 1478 979 
Q 1434 634 1346 296 
Q 1259 -41 1132 -367 
Q 1006 -694 838 -1013 
Q 828 -1028 809 -1040 
Q 791 -1053 761 -1062 
Q 731 -1072 690 -1075 
Q 650 -1078 594 -1078 
Q 513 -1078 467 -1070 
Q 422 -1063 401 -1045 
Q 381 -1028 382 -1001 
Q 384 -975 400 -938 
Q 688 -306 834 355 
Q 981 1016 981 1688 
Q 981 2356 834 3017 
Q 688 3678 394 4306 
Q 381 4334 384 4359 
Q 388 4384 413 4400 
Q 438 4416 481 4425 
Q 525 4434 597 4434 
Q 663 4434 706 4429 
Q 750 4425 776 4415 
Q 803 4406 815 4397 
Q 828 4388 834 4375 
Q 1156 3734 1339 3057 
Q 1522 2381 1522 1678 
z
" transform="scale(0.015625)"/>
      </defs>
      <use xlink:href="#DejaVuSans-Oblique-70" transform="translate(0 0.765625)"/>
      <use xlink:href="#Calibri-20" transform="translate(63.476562 0.765625)"/>
      <use xlink:href="#Calibri-28" transform="translate(84.958984 0.765625)"/>
      <use xlink:href="#Calibri-63" transform="translate(115.28125 0.765625)"/>
      <use xlink:href="#Calibri-6d" transform="translate(157.566406 0.765625)"/>
      <use xlink:href="#DejaVuSans-32" transform="translate(238.40625 39.046875) scale(0.7)"/>
      <use xlink:href="#Calibri-2f" transform="translate(285.676758 0.765625)"/>
      <use xlink:href="#Calibri-63" transform="translate(324.299805 0.765625)"/>
      <use xlink:href="#Calibri-6d" transform="translate(366.584961 0.765625)"/>
      <use xlink:href="#DejaVuSans-32" transform="translate(447.424805 39.046875) scale(0.7)"/>
      <use xlink:href="#Calibri-29" transform="translate(494.695312 0.765625)"/>
     </g>
    </g>
   </g>
   <g id="matplotlib.axis_2">
    <g id="ytick_1">
     <g id="line2d_12">
      <defs>
       <path id="me58dddf750" d="M 0 0 
L -3.5 0 
" style="stroke: #000000; stroke-width: 0.8"/>
      </defs>
      <g>
       <use xlink:href="#me58dddf750" x="57.6" y="275.65056" style="stroke: #000000; stroke-width: 0.8"/>
      </g>
     </g>
     <g id="text_13">
      <!-- 25 -->
      <g transform="translate(40.4625 279.051341) scale(0.1 -0.1)">
       <use xlink:href="#Calibri-32"/>
       <use xlink:href="#Calibri-35" x="50.683594"/>
      </g>
     </g>
    </g>
    <g id="ytick_2">
     <g id="line2d_13">
      <g>
       <use xlink:href="#me58dddf750" x="57.6" y="242.38656" style="stroke: #000000; stroke-width: 0.8"/>
      </g>
     </g>
     <g id="text_14">
      <!-- 50 -->
      <g transform="translate(40.4625 245.787341) scale(0.1 -0.1)">
       <use xlink:href="#Calibri-35"/>
       <use xlink:href="#Calibri-30" x="50.683594"/>
      </g>
     </g>
    </g>
    <g id="ytick_3">
     <g id="line2d_14">
      <g>
       <use xlink:href="#me58dddf750" x="57.6" y="209.12256" style="stroke: #000000; stroke-width: 0.8"/>
      </g>
     </g>
     <g id="text_15">
      <!-- 75 -->
      <g transform="translate(40.4625 212.523341) scale(0.1 -0.1)">
       <use xlink:href="#Calibri-37"/>
       <use xlink:href="#Calibri-35" x="50.683594"/>
      </g>
     </g>
    </g>
    <g id="ytick_4">
     <g id="line2d_15">
      <g>
       <use xlink:href="#me58dddf750" x="57.6" y="175.85856" style="stroke: #000000; stroke-width: 0.8"/>
      </g>
     </g>
     <g id="text_16">
      <!-- 100 -->
      <g transform="translate(35.39375 179.259341) scale(0.1 -0.1)">
       <use xlink:href="#Calibri-31"/>
       <use xlink:href="#Calibri-30" x="50.683594"/>
       <use xlink:href="#Calibri-30" x="101.367188"/>
      </g>
     </g>
    </g>
    <g id="ytick_5">
     <g id="line2d_16">
      <g>
       <use xlink:href="#me58dddf750" x="57.6" y="142.59456" style="stroke: #000000; stroke-width: 0.8"/>
      </g>
     </g>
     <g id="text_17">
      <!-- 125 -->
      <g transform="translate(35.39375 145.995341) scale(0.1 -0.1)">
       <use xlink:href="#Calibri-31"/>
       <use xlink:href="#Calibri-32" x="50.683594"/>
       <use xlink:href="#Calibri-35" x="101.367188"/>
      </g>
     </g>
    </g>
    <g id="ytick_6">
     <g id="line2d_17">
      <g>
       <use xlink:href="#me58dddf750" x="57.6" y="109.33056" style="stroke: #000000; stroke-width: 0.8"/>
      </g>
     </g>
     <g id="text_18">
      <!-- 150 -->
      <g transform="translate(35.39375 112.731341) scale(0.1 -0.1)">
       <use xlink:href="#Calibri-31"/>
       <use xlink:href="#Calibri-35" x="50.683594"/>
       <use xlink:href="#Calibri-30" x="101.367188"/>
      </g>
     </g>
    </g>
    <g id="ytick_7">
     <g id="line2d_18">
      <g>
       <use xlink:href="#me58dddf750" x="57.6" y="76.06656" style="stroke: #000000; stroke-width: 0.8"/>
      </g>
     </g>
     <g id="text_19">
      <!-- 175 -->
      <g transform="translate(35.39375 79.467341) scale(0.1 -0.1)">
       <use xlink:href="#Calibri-31"/>
       <use xlink:href="#Calibri-37" x="50.683594"/>
       <use xlink:href="#Calibri-35" x="101.367188"/>
      </g>
     </g>
    </g>
    <g id="ytick_8">
     <g id="line2d_19">
      <g>
       <use xlink:href="#me58dddf750" x="57.6" y="42.80256" style="stroke: #000000; stroke-width: 0.8"/>
      </g>
     </g>
     <g id="text_20">
      <!-- 200 -->
      <g transform="translate(35.39375 46.203341) scale(0.1 -0.1)">
       <use xlink:href="#Calibri-32"/>
       <use xlink:href="#Calibri-30" x="50.683594"/>
       <use xlink:href="#Calibri-30" x="101.367188"/>
      </g>
     </g>
    </g>
    <g id="text_21">
     <!-- $\mathit{Z}$$_{a}$ (nm) -->
     <g transform="translate(29.59375 191.028) rotate(-90) scale(0.1 -0.1)">
      <defs>
       <path id="DejaVuSans-Oblique-5a" d="M 838 4666 
L 4500 4666 
L 4409 4184 
L 794 531 
L 3769 531 
L 3669 0 
L -141 0 
L -50 481 
L 3566 4134 
L 738 4134 
L 838 4666 
z
" transform="scale(0.015625)"/>
       <path id="DejaVuSans-Oblique-61" d="M 3438 1997 
L 3047 0 
L 2472 0 
L 2578 531 
Q 2325 219 2001 64 
Q 1678 -91 1281 -91 
Q 834 -91 548 182 
Q 263 456 263 884 
Q 263 1497 752 1853 
Q 1241 2209 2100 2209 
L 2900 2209 
L 2931 2363 
Q 2938 2388 2941 2417 
Q 2944 2447 2944 2509 
Q 2944 2788 2717 2942 
Q 2491 3097 2081 3097 
Q 1800 3097 1504 3025 
Q 1209 2953 897 2809 
L 997 3341 
Q 1322 3463 1633 3523 
Q 1944 3584 2234 3584 
Q 2853 3584 3176 3315 
Q 3500 3047 3500 2534 
Q 3500 2431 3484 2292 
Q 3469 2153 3438 1997 
z
M 2816 1759 
L 2241 1759 
Q 1534 1759 1195 1570 
Q 856 1381 856 984 
Q 856 709 1029 553 
Q 1203 397 1509 397 
Q 1978 397 2328 733 
Q 2678 1069 2791 1631 
L 2816 1759 
z
" transform="scale(0.015625)"/>
       <path id="Calibri-6e" d="M 2900 78 
Q 2900 53 2887 36 
Q 2875 19 2847 6 
Q 2819 -6 2769 -12 
Q 2719 -19 2644 -19 
Q 2566 -19 2516 -12 
Q 2466 -6 2437 6 
Q 2409 19 2396 36 
Q 2384 53 2384 78 
L 2384 1725 
Q 2384 1966 2346 2112 
Q 2309 2259 2237 2365 
Q 2166 2472 2052 2528 
Q 1938 2584 1788 2584 
Q 1594 2584 1400 2446 
Q 1206 2309 994 2044 
L 994 78 
Q 994 53 981 36 
Q 969 19 941 6 
Q 913 -6 863 -12 
Q 813 -19 734 -19 
Q 659 -19 609 -12 
Q 559 -6 529 6 
Q 500 19 489 36 
Q 478 53 478 78 
L 478 2891 
Q 478 2916 487 2933 
Q 497 2950 525 2964 
Q 553 2978 597 2983 
Q 641 2988 713 2988 
Q 781 2988 826 2983 
Q 872 2978 897 2964 
Q 922 2950 933 2933 
Q 944 2916 944 2891 
L 944 2519 
Q 1181 2784 1417 2907 
Q 1653 3031 1894 3031 
Q 2175 3031 2367 2936 
Q 2559 2841 2678 2681 
Q 2797 2522 2848 2308 
Q 2900 2094 2900 1794 
L 2900 78 
z
" transform="scale(0.015625)"/>
      </defs>
      <use xlink:href="#DejaVuSans-Oblique-5a" transform="translate(0 0.09375)"/>
      <use xlink:href="#DejaVuSans-Oblique-61" transform="translate(69.462891 -16.3125) scale(0.7)"/>
      <use xlink:href="#Calibri-20" transform="translate(115.092773 0.09375)"/>
      <use xlink:href="#Calibri-28" transform="translate(136.575195 0.09375)"/>
      <use xlink:href="#Calibri-6e" transform="translate(166.897461 0.09375)"/>
      <use xlink:href="#Calibri-6d" transform="translate(219.436523 0.09375)"/>
      <use xlink:href="#Calibri-29" transform="translate(299.319336 0.09375)"/>
     </g>
    </g>
   </g>
   <g id="patch_3">
    <path d="M 57.6 307.584 
L 57.6 41.472 
" style="fill: none; stroke: #000000; stroke-width: 0.8; stroke-linejoin: miter; stroke-linecap: square"/>
   </g>
   <g id="patch_4">
    <path d="M 343.296 307.584 
L 343.296 41.472 
" style="fill: none; stroke: #000000; stroke-width: 0.8; stroke-linejoin: miter; stroke-linecap: square"/>
   </g>
   <g id="patch_5">
    <path d="M 57.6 307.584 
L 343.296 307.584 
" style="fill: none; stroke: #000000; stroke-width: 0.8; stroke-linejoin: miter; stroke-linecap: square"/>
   </g>
   <g id="patch_6">
    <path d="M 57.6 41.472 
L 343.296 41.472 
" style="fill: none; stroke: #000000; stroke-width: 0.8; stroke-linejoin: miter; stroke-linecap: square"/>
   </g>
   <g id="text_22">
    <!-- $\lambda$ = 505 nm -->
    <g transform="translate(177.348 35.472) scale(0.1 -0.1)">
     <defs>
      <path id="DejaVuSans-Oblique-3bb" d="M 2350 4316 
L 3125 0 
L 2516 0 
L 2038 2588 
L 328 0 
L -281 0 
L 1903 3356 
L 1794 3975 
Q 1725 4369 1391 4369 
L 1091 4369 
L 1184 4863 
L 1550 4856 
Q 2253 4847 2350 4316 
z
" transform="scale(0.015625)"/>
      <path id="Calibri-3d" d="M 2891 2409 
Q 2891 2284 2855 2236 
Q 2819 2188 2772 2188 
L 409 2188 
Q 363 2188 328 2236 
Q 294 2284 294 2409 
Q 294 2522 325 2575 
Q 356 2628 409 2628 
L 2772 2628 
Q 2828 2628 2859 2575 
Q 2891 2522 2891 2409 
z
M 2891 1194 
Q 2891 1069 2855 1022 
Q 2819 975 2772 975 
L 409 975 
Q 363 975 328 1022 
Q 294 1069 294 1194 
Q 294 1309 325 1362 
Q 356 1416 409 1416 
L 2772 1416 
Q 2828 1416 2859 1362 
Q 2891 1309 2891 1194 
z
" transform="scale(0.015625)"/>
     </defs>
     <use xlink:href="#DejaVuSans-Oblique-3bb" transform="translate(0 0.015625)"/>
     <use xlink:href="#Calibri-20" transform="translate(59.179688 0.015625)"/>
     <use xlink:href="#Calibri-3d" transform="translate(81.787109 0.015625)"/>
     <use xlink:href="#Calibri-20" transform="translate(131.591797 0.015625)"/>
     <use xlink:href="#Calibri-35" transform="translate(154.199219 0.015625)"/>
     <use xlink:href="#Calibri-30" transform="translate(204.882812 0.015625)"/>
     <use xlink:href="#Calibri-35" transform="translate(255.566406 0.015625)"/>
     <use xlink:href="#Calibri-20" transform="translate(306.25 0.015625)"/>
     <use xlink:href="#Calibri-6e" transform="translate(328.857422 0.015625)"/>
     <use xlink:href="#Calibri-6d" transform="translate(381.396484 0.015625)"/>
    </g>
   </g>
  </g>
  <g id="axes_2">
   <g id="patch_7">
    <path d="M 361.152 307.584 
L 374.4576 307.584 
L 374.4576 41.472 
L 361.152 41.472 
z
" style="fill: #ffffff"/>
   </g>
   <g id="QuadMesh_1">
    <path d="M 361.152 307.584 
L 374.4576 307.584 
L 374.4576 280.9728 
L 361.152 280.9728 
L 361.152 307.584 
" clip-path="url(#pdeaa09a446)" style="fill: #0000b6"/>
    <path d="M 361.152 280.9728 
L 374.4576 280.9728 
L 374.4576 254.3616 
L 361.152 254.3616 
L 361.152 280.9728 
" clip-path="url(#pdeaa09a446)" style="fill: #0018ff"/>
    <path d="M 361.152 254.3616 
L 374.4576 254.3616 
L 374.4576 227.7504 
L 361.152 227.7504 
L 361.152 254.3616 
" clip-path="url(#pdeaa09a446)" style="fill: #0080ff"/>
    <path d="M 361.152 227.7504 
L 374.4576 227.7504 
L 374.4576 201.1392 
L 361.152 201.1392 
L 361.152 227.7504 
" clip-path="url(#pdeaa09a446)" style="fill: #00e4f8"/>
    <path d="M 361.152 201.1392 
L 374.4576 201.1392 
L 374.4576 174.528 
L 361.152 174.528 
L 361.152 201.1392 
" clip-path="url(#pdeaa09a446)" style="fill: #53ffa4"/>
    <path d="M 361.152 174.528 
L 374.4576 174.528 
L 374.4576 147.9168 
L 361.152 147.9168 
L 361.152 174.528 
" clip-path="url(#pdeaa09a446)" style="fill: #a4ff53"/>
    <path d="M 361.152 147.9168 
L 374.4576 147.9168 
L 374.4576 121.3056 
L 361.152 121.3056 
L 361.152 147.9168 
" clip-path="url(#pdeaa09a446)" style="fill: #f8f500"/>
    <path d="M 361.152 121.3056 
L 374.4576 121.3056 
L 374.4576 94.6944 
L 361.152 94.6944 
L 361.152 121.3056 
" clip-path="url(#pdeaa09a446)" style="fill: #ff9400"/>
    <path d="M 361.152 94.6944 
L 374.4576 94.6944 
L 374.4576 68.0832 
L 361.152 68.0832 
L 361.152 94.6944 
" clip-path="url(#pdeaa09a446)" style="fill: #ff3800"/>
    <path d="M 361.152 68.0832 
L 374.4576 68.0832 
L 374.4576 41.472 
L 361.152 41.472 
L 361.152 68.0832 
" clip-path="url(#pdeaa09a446)" style="fill: #b60000"/>
   </g>
   <g id="matplotlib.axis_3"/>
   <g id="matplotlib.axis_4">
    <g id="ytick_9">
     <g id="line2d_20">
      <defs>
       <path id="md1c7767144" d="M 0 0 
L 3.5 0 
" style="stroke: #000000; stroke-width: 0.8"/>
      </defs>
      <g>
       <use xlink:href="#md1c7767144" x="374.4576" y="307.584" style="stroke: #000000; stroke-width: 0.8"/>
      </g>
     </g>
     <g id="text_23">
      <!-- 0 -->
      <g transform="translate(381.4576 310.984781) scale(0.1 -0.1)">
       <use xlink:href="#Calibri-30"/>
      </g>
     </g>
    </g>
    <g id="ytick_10">
     <g id="line2d_21">
      <g>
       <use xlink:href="#md1c7767144" x="374.4576" y="280.9728" style="stroke: #000000; stroke-width: 0.8"/>
      </g>
     </g>
     <g id="text_24">
      <!-- 0.1 -->
      <g transform="translate(381.4576 284.373581) scale(0.1 -0.1)">
       <use xlink:href="#Calibri-30"/>
       <use xlink:href="#Calibri-2e" x="50.683594"/>
       <use xlink:href="#Calibri-31" x="75.927734"/>
      </g>
     </g>
    </g>
    <g id="ytick_11">
     <g id="line2d_22">
      <g>
       <use xlink:href="#md1c7767144" x="374.4576" y="254.3616" style="stroke: #000000; stroke-width: 0.8"/>
      </g>
     </g>
     <g id="text_25">
      <!-- 0.2 -->
      <g transform="translate(381.4576 257.762381) scale(0.1 -0.1)">
       <use xlink:href="#Calibri-30"/>
       <use xlink:href="#Calibri-2e" x="50.683594"/>
       <use xlink:href="#Calibri-32" x="75.927734"/>
      </g>
     </g>
    </g>
    <g id="ytick_12">
     <g id="line2d_23">
      <g>
       <use xlink:href="#md1c7767144" x="374.4576" y="227.7504" style="stroke: #000000; stroke-width: 0.8"/>
      </g>
     </g>
     <g id="text_26">
      <!-- 0.3 -->
      <g transform="translate(381.4576 231.151181) scale(0.1 -0.1)">
       <use xlink:href="#Calibri-30"/>
       <use xlink:href="#Calibri-2e" x="50.683594"/>
       <use xlink:href="#Calibri-33" x="75.927734"/>
      </g>
     </g>
    </g>
    <g id="ytick_13">
     <g id="line2d_24">
      <g>
       <use xlink:href="#md1c7767144" x="374.4576" y="201.1392" style="stroke: #000000; stroke-width: 0.8"/>
      </g>
     </g>
     <g id="text_27">
      <!-- 0.4 -->
      <g transform="translate(381.4576 204.539981) scale(0.1 -0.1)">
       <use xlink:href="#Calibri-30"/>
       <use xlink:href="#Calibri-2e" x="50.683594"/>
       <use xlink:href="#Calibri-34" x="75.927734"/>
      </g>
     </g>
    </g>
    <g id="ytick_14">
     <g id="line2d_25">
      <g>
       <use xlink:href="#md1c7767144" x="374.4576" y="174.528" style="stroke: #000000; stroke-width: 0.8"/>
      </g>
     </g>
     <g id="text_28">
      <!-- 0.5 -->
      <g transform="translate(381.4576 177.928781) scale(0.1 -0.1)">
       <use xlink:href="#Calibri-30"/>
       <use xlink:href="#Calibri-2e" x="50.683594"/>
       <use xlink:href="#Calibri-35" x="75.927734"/>
      </g>
     </g>
    </g>
    <g id="ytick_15">
     <g id="line2d_26">
      <g>
       <use xlink:href="#md1c7767144" x="374.4576" y="147.9168" style="stroke: #000000; stroke-width: 0.8"/>
      </g>
     </g>
     <g id="text_29">
      <!-- 0.6 -->
      <g transform="translate(381.4576 151.317581) scale(0.1 -0.1)">
       <use xlink:href="#Calibri-30"/>
       <use xlink:href="#Calibri-2e" x="50.683594"/>
       <use xlink:href="#Calibri-36" x="75.927734"/>
      </g>
     </g>
    </g>
    <g id="ytick_16">
     <g id="line2d_27">
      <g>
       <use xlink:href="#md1c7767144" x="374.4576" y="121.3056" style="stroke: #000000; stroke-width: 0.8"/>
      </g>
     </g>
     <g id="text_30">
      <!-- 0.7 -->
      <g transform="translate(381.4576 124.706381) scale(0.1 -0.1)">
       <use xlink:href="#Calibri-30"/>
       <use xlink:href="#Calibri-2e" x="50.683594"/>
       <use xlink:href="#Calibri-37" x="75.927734"/>
      </g>
     </g>
    </g>
    <g id="ytick_17">
     <g id="line2d_28">
      <g>
       <use xlink:href="#md1c7767144" x="374.4576" y="94.6944" style="stroke: #000000; stroke-width: 0.8"/>
      </g>
     </g>
     <g id="text_31">
      <!-- 0.8 -->
      <g transform="translate(381.4576 98.095181) scale(0.1 -0.1)">
       <use xlink:href="#Calibri-30"/>
       <use xlink:href="#Calibri-2e" x="50.683594"/>
       <use xlink:href="#Calibri-38" x="75.927734"/>
      </g>
     </g>
    </g>
    <g id="ytick_18">
     <g id="line2d_29">
      <g>
       <use xlink:href="#md1c7767144" x="374.4576" y="68.0832" style="stroke: #000000; stroke-width: 0.8"/>
      </g>
     </g>
     <g id="text_32">
      <!-- 0.9 -->
      <g transform="translate(381.4576 71.483981) scale(0.1 -0.1)">
       <use xlink:href="#Calibri-30"/>
       <use xlink:href="#Calibri-2e" x="50.683594"/>
       <use xlink:href="#Calibri-39" x="75.927734"/>
      </g>
     </g>
    </g>
    <g id="ytick_19">
     <g id="line2d_30">
      <g>
       <use xlink:href="#md1c7767144" x="374.4576" y="41.472" style="stroke: #000000; stroke-width: 0.8"/>
      </g>
     </g>
     <g id="text_33">
      <!-- 1.0 -->
      <g transform="translate(381.4576 44.872781) scale(0.1 -0.1)">
       <use xlink:href="#Calibri-31"/>
       <use xlink:href="#Calibri-2e" x="50.683594"/>
       <use xlink:href="#Calibri-30" x="75.927734"/>
      </g>
     </g>
    </g>
   </g>
   <g id="LineCollection_1"/>
   <g id="patch_8">
    <path d="M 361.152 307.584 
L 367.8048 307.584 
L 374.4576 307.584 
L 374.4576 41.472 
L 367.8048 41.472 
L 361.152 41.472 
L 361.152 307.584 
z
" style="fill: none; stroke: #000000; stroke-width: 0.8; stroke-linejoin: miter; stroke-linecap: square"/>
   </g>
   <g id="text_34">
    <!-- $\mathit{E}_{\mathrm{dis}}$/$\mathit{E}_{\mathrm{i}}$ -->
    <g transform="translate(353.2548 35.472) scale(0.1 -0.1)">
     <defs>
      <path id="DejaVuSans-Oblique-45" d="M 1081 4666 
L 4031 4666 
L 3928 4134 
L 1606 4134 
L 1338 2753 
L 3566 2753 
L 3463 2222 
L 1234 2222 
L 909 531 
L 3284 531 
L 3181 0 
L 172 0 
L 1081 4666 
z
" transform="scale(0.015625)"/>
      <path id="DejaVuSans-64" d="M 2906 2969 
L 2906 4863 
L 3481 4863 
L 3481 0 
L 2906 0 
L 2906 525 
Q 2725 213 2448 61 
Q 2172 -91 1784 -91 
Q 1150 -91 751 415 
Q 353 922 353 1747 
Q 353 2572 751 3078 
Q 1150 3584 1784 3584 
Q 2172 3584 2448 3432 
Q 2725 3281 2906 2969 
z
M 947 1747 
Q 947 1113 1208 752 
Q 1469 391 1925 391 
Q 2381 391 2643 752 
Q 2906 1113 2906 1747 
Q 2906 2381 2643 2742 
Q 2381 3103 1925 3103 
Q 1469 3103 1208 2742 
Q 947 2381 947 1747 
z
" transform="scale(0.015625)"/>
      <path id="DejaVuSans-69" d="M 603 3500 
L 1178 3500 
L 1178 0 
L 603 0 
L 603 3500 
z
M 603 4863 
L 1178 4863 
L 1178 4134 
L 603 4134 
L 603 4863 
z
" transform="scale(0.015625)"/>
      <path id="DejaVuSans-73" d="M 2834 3397 
L 2834 2853 
Q 2591 2978 2328 3040 
Q 2066 3103 1784 3103 
Q 1356 3103 1142 2972 
Q 928 2841 928 2578 
Q 928 2378 1081 2264 
Q 1234 2150 1697 2047 
L 1894 2003 
Q 2506 1872 2764 1633 
Q 3022 1394 3022 966 
Q 3022 478 2636 193 
Q 2250 -91 1575 -91 
Q 1294 -91 989 -36 
Q 684 19 347 128 
L 347 722 
Q 666 556 975 473 
Q 1284 391 1588 391 
Q 1994 391 2212 530 
Q 2431 669 2431 922 
Q 2431 1156 2273 1281 
Q 2116 1406 1581 1522 
L 1381 1569 
Q 847 1681 609 1914 
Q 372 2147 372 2553 
Q 372 3047 722 3315 
Q 1072 3584 1716 3584 
Q 2034 3584 2315 3537 
Q 2597 3491 2834 3397 
z
" transform="scale(0.015625)"/>
     </defs>
     <use xlink:href="#DejaVuSans-Oblique-45" transform="translate(0 0.09375)"/>
     <use xlink:href="#DejaVuSans-64" transform="translate(63.183594 -16.3125) scale(0.7)"/>
     <use xlink:href="#DejaVuSans-69" transform="translate(107.617188 -16.3125) scale(0.7)"/>
     <use xlink:href="#DejaVuSans-73" transform="translate(127.06543 -16.3125) scale(0.7)"/>
     <use xlink:href="#Calibri-2f" transform="translate(166.269531 0.09375)"/>
     <use xlink:href="#DejaVuSans-Oblique-45" transform="translate(204.892578 0.09375)"/>
     <use xlink:href="#DejaVuSans-69" transform="translate(268.076172 -16.3125) scale(0.7)"/>
    </g>
   </g>
  </g>
 </g>
 <defs>
  <clipPath id="pd8d614c109">
   <rect x="57.6" y="41.472" width="285.696" height="266.112"/>
  </clipPath>
  <clipPath id="pdeaa09a446">
   <rect x="361.152" y="41.472" width="13.3056" height="266.112"/>
  </clipPath>
 </defs>
</svg>
