<?xml version="1.0" encoding="utf-8" standalone="no"?>
<!DOCTYPE svg PUBLIC "-//W3C//DTD SVG 1.1//EN"
  "http://www.w3.org/Graphics/SVG/1.1/DTD/svg11.dtd">
<svg xmlns:xlink="http://www.w3.org/1999/xlink" width="460.8pt" height="345.6pt" viewBox="0 0 460.8 345.6" xmlns="http://www.w3.org/2000/svg" version="1.1">
 <metadata>
  <rdf:RDF xmlns:dc="http://purl.org/dc/elements/1.1/" xmlns:cc="http://creativecommons.org/ns#" xmlns:rdf="http://www.w3.org/1999/02/22-rdf-syntax-ns#">
   <cc:Work>
    <dc:type rdf:resource="http://purl.org/dc/dcmitype/StillImage"/>
    <dc:date>2024-01-22T08:47:19.285135</dc:date>
    <dc:format>image/svg+xml</dc:format>
    <dc:creator>
     <cc:Agent>
      <dc:title>Matplotlib v3.7.1, https://matplotlib.org/</dc:title>
     </cc:Agent>
    </dc:creator>
   </cc:Work>
  </rdf:RDF>
 </metadata>
 <defs>
  <style type="text/css">*{stroke-linejoin: round; stroke-linecap: butt}</style>
 </defs>
 <g id="figure_1">
  <g id="patch_1">
   <path d="M 0 345.6 
L 460.8 345.6 
L 460.8 0 
L 0 0 
z
" style="fill: #ffffff"/>
  </g>
  <g id="axes_1">
   <g id="patch_2">
    <path d="M 57.6 307.584 
L 343.296 307.584 
L 343.296 41.472 
L 57.6 41.472 
z
" style="fill: #ffffff"/>
   </g>
   <g id="PathCollection_1">
    <path clip-path="url(#p16664434ad)" style="fill: #0000b6"/>
   </g>
   <g id="PathCollection_2">
    <path d="M 57.62857 87.287818 
L 58.022024 86.78888 
L 58.472709 86.198769 
L 59.323937 85.08994 
L 59.607739 84.7152 
L 60.458485 83.568833 
L 61.045006 82.770339 
L 61.20808 82.550391 
L 61.345129 82.36308 
L 61.759584 81.786787 
L 62.047124 81.3888 
L 62.106803 81.304791 
L 62.739629 80.41452 
L 63.064269 79.94982 
L 63.479523 79.347833 
L 63.862805 78.797034 
L 64.369072 78.0624 
L 64.89218 77.287514 
L 65.94386 75.71028 
L 66.085477 75.494089 
L 66.582824 74.736 
L 67.202527 73.76894 
L 67.207192 73.76172 
L 67.214839 73.749663 
L 67.243636 73.703848 
L 68.461016 71.773002 
L 68.687444 71.4096 
L 69.550028 69.99587 
L 70.117662 69.05748 
L 70.151495 69.001567 
L 70.698566 68.0832 
L 70.843443 67.836645 
L 70.92101 67.702534 
L 71.268859 67.10892 
L 71.909365 65.995457 
L 72.614069 64.7568 
L 72.801751 64.419816 
L 72.996501 64.067365 
L 73.587232 63.005591 
L 73.91798 62.40468 
L 74.426191 61.463667 
L 74.432685 61.451806 
L 74.444225 61.4304 
L 74.494879 61.335021 
L 74.965584 60.45612 
L 75.233372 59.946463 
L 75.753175 58.946945 
L 75.987944 58.498389 
L 76.192829 58.104 
L 76.847221 56.816841 
L 77.383253 55.75188 
L 77.732268 55.044759 
L 77.780865 54.947748 
L 77.864785 54.7776 
L 77.998911 54.499616 
L 78.199426 54.088007 
L 78.33892 53.80332 
L 78.428675 53.616496 
L 78.629959 53.193498 
L 79.103411 52.204208 
L 79.461338 51.4512 
L 79.976654 50.343074 
L 80.549793 49.09908 
L 80.843148 48.44934 
L 80.898129 48.329488 
L 80.990586 48.1248 
L 81.131918 47.80449 
L 81.330006 47.360011 
L 81.424011 47.15052 
L 81.491434 46.997173 
L 81.667375 46.593442 
L 82.142663 45.508335 
L 82.451696 44.7984 
L 82.971936 43.576444 
L 83.44896 42.44628 
L 83.764609 41.682635 
L 83.851579 41.472 
L 83.531674 41.472 
L 82.007962 41.472 
L 80.48425 41.472 
L 78.960538 41.472 
L 77.436826 41.472 
L 75.913114 41.472 
L 74.389402 41.472 
L 72.86569 41.472 
L 71.341978 41.472 
L 69.818266 41.472 
L 68.294554 41.472 
L 66.770842 41.472 
L 65.24713 41.472 
L 63.723418 41.472 
L 62.199706 41.472 
L 60.675994 41.472 
L 59.152282 41.472 
L 57.62857 41.472 
L 57.62857 44.7984 
L 57.62857 48.1248 
L 57.62857 51.4512 
L 57.62857 54.7776 
L 57.62857 58.104 
L 57.62857 61.4304 
L 57.62857 64.7568 
L 57.62857 68.0832 
L 57.62857 71.4096 
L 57.62857 74.736 
L 57.62857 78.0624 
L 57.62857 81.3888 
L 57.62857 84.7152 
" clip-path="url(#p16664434ad)" style="fill: #0018ff"/>
   </g>
   <g id="PathCollection_3">
    <path d="M 83.851579 41.472 
L 83.764609 41.682635 
L 83.44896 42.44628 
L 82.971936 43.576444 
L 82.451696 44.7984 
L 82.142663 45.508335 
L 81.667375 46.593442 
L 81.491434 46.997173 
L 81.424011 47.15052 
L 81.330006 47.360011 
L 81.131918 47.80449 
L 80.990586 48.1248 
L 80.898129 48.329488 
L 80.843148 48.44934 
L 80.549793 49.09908 
L 79.976654 50.343074 
L 79.461338 51.4512 
L 79.103411 52.204208 
L 78.629959 53.193498 
L 78.428675 53.616496 
L 78.33892 53.80332 
L 78.199426 54.088007 
L 77.998911 54.499616 
L 77.864785 54.7776 
L 77.780865 54.947748 
L 77.732268 55.044759 
L 77.383253 55.75188 
L 76.847221 56.816841 
L 76.192829 58.104 
L 75.987944 58.498389 
L 75.753175 58.946945 
L 75.233372 59.946463 
L 74.965584 60.45612 
L 74.494879 61.335021 
L 74.444225 61.4304 
L 74.432685 61.451806 
L 74.426191 61.463667 
L 73.91798 62.40468 
L 73.587232 63.005591 
L 72.996501 64.067365 
L 72.801751 64.419816 
L 72.614069 64.7568 
L 71.909365 65.995457 
L 71.268859 67.10892 
L 70.92101 67.702534 
L 70.843443 67.836645 
L 70.698566 68.0832 
L 70.151495 69.001567 
L 70.117662 69.05748 
L 69.550028 69.99587 
L 68.687444 71.4096 
L 68.461016 71.773002 
L 67.243636 73.703848 
L 67.214839 73.749663 
L 67.207192 73.76172 
L 67.202527 73.76894 
L 66.582824 74.736 
L 66.085477 75.494089 
L 65.94386 75.71028 
L 64.89218 77.287514 
L 64.369072 78.0624 
L 63.862805 78.797034 
L 63.479523 79.347833 
L 63.064269 79.94982 
L 62.739629 80.41452 
L 62.106803 81.304791 
L 62.047124 81.3888 
L 61.759584 81.786787 
L 61.345129 82.36308 
L 61.20808 82.550391 
L 61.045006 82.770339 
L 60.458485 83.568833 
L 59.607739 84.7152 
L 59.323937 85.08994 
L 58.472709 86.198769 
L 58.022024 86.78888 
L 57.62857 87.287818 
L 57.62857 88.0416 
L 57.62857 91.368 
L 57.62857 94.6944 
L 57.62857 98.0208 
L 57.62857 101.3472 
L 57.62857 104.6736 
L 57.62857 108 
L 57.62857 111.3264 
L 57.62857 114.6528 
L 57.62857 117.9792 
L 57.62857 121.3056 
L 57.62857 124.632 
L 57.62857 127.9584 
L 57.62857 131.2848 
L 57.62857 133.519562 
L 58.006139 133.274759 
L 58.347713 133.041246 
L 59.577436 132.21295 
L 60.638647 131.481633 
L 60.704845 131.436861 
L 60.9253 131.2848 
L 61.889521 130.607639 
L 62.813946 129.943859 
L 63.391415 129.535 
L 64.160753 128.97985 
L 64.183821 128.963501 
L 64.226357 128.93268 
L 65.383774 128.081963 
L 65.550843 127.9584 
L 66.133638 127.519969 
L 66.848698 126.98412 
L 67.170481 126.73828 
L 67.417874 126.545871 
L 68.714985 125.549839 
L 69.806541 124.693795 
L 69.826997 124.67802 
L 69.88562 124.632 
L 70.951514 123.779582 
L 72.198821 122.761434 
L 72.469373 122.543235 
L 72.790332 122.27988 
L 72.986319 122.118824 
L 73.957792 121.3056 
L 74.180551 121.116743 
L 75.102395 120.33132 
L 75.363417 120.105562 
L 75.539054 119.950661 
L 76.181318 119.392757 
L 77.202159 118.491498 
L 77.537389 118.198738 
L 77.783919 117.9792 
L 78.787675 117.068135 
L 79.206707 116.681777 
L 79.689144 116.243413 
L 80.35469 115.62708 
L 80.946339 115.070651 
L 81.388871 114.6528 
L 82.118834 113.954067 
L 82.401474 113.67852 
L 82.446001 113.635064 
L 82.497532 113.584025 
L 83.924389 112.183732 
L 84.782317 111.3264 
L 85.011144 111.093227 
L 85.121216 110.979446 
L 86.006482 110.076328 
L 87.067876 108.97428 
L 87.339548 108.687649 
L 87.541908 108.476167 
L 87.98942 108 
L 88.735567 107.194341 
L 88.891306 107.02572 
L 90.096473 105.699546 
L 91.013247 104.6736 
L 91.125844 104.545058 
L 91.188338 104.472774 
L 92.103043 103.427268 
L 93.054754 102.32148 
L 93.35679 101.964672 
L 93.524936 101.768065 
L 93.878536 101.3472 
L 94.667045 100.39381 
L 94.684294 100.37292 
L 96.036148 98.70799 
L 96.58544 98.0208 
L 97.116446 97.342835 
L 97.457277 96.902436 
L 97.961337 96.258051 
L 98.415373 95.66868 
L 98.996918 94.900685 
L 99.048827 94.832893 
L 99.153019 94.6944 
L 99.869424 93.731596 
L 99.877813 93.72012 
L 100.561407 92.785231 
L 101.586051 91.368 
L 101.725815 91.170643 
L 102.251567 90.417593 
L 102.966257 89.398579 
L 103.33993 88.849128 
L 103.33993 88.0416 
L 103.33993 84.7152 
L 103.33993 81.3888 
L 103.33993 78.0624 
L 103.33993 74.736 
L 103.33993 71.4096 
L 103.33993 68.0832 
L 103.33993 64.7568 
L 103.33993 61.4304 
L 103.33993 58.104 
L 103.33993 54.7776 
L 103.33993 51.4512 
L 103.33993 48.1248 
L 103.33993 44.7984 
L 103.33993 41.472 
L 101.816218 41.472 
L 100.292506 41.472 
L 98.768794 41.472 
L 97.245082 41.472 
L 95.72137 41.472 
L 94.197658 41.472 
L 92.673946 41.472 
L 91.150234 41.472 
L 89.626522 41.472 
L 88.10281 41.472 
L 86.579098 41.472 
L 85.055386 41.472 
" clip-path="url(#p16664434ad)" style="fill: #0080ff"/>
   </g>
   <g id="PathCollection_4">
    <path d="M 103.33993 88.849128 
L 102.966257 89.398579 
L 102.251567 90.417593 
L 101.725815 91.170643 
L 101.586051 91.368 
L 100.561407 92.785231 
L 99.877813 93.72012 
L 99.869424 93.731596 
L 99.153019 94.6944 
L 99.048827 94.832893 
L 98.996918 94.900685 
L 98.415373 95.66868 
L 97.961337 96.258051 
L 97.457277 96.902436 
L 97.116446 97.342835 
L 96.58544 98.0208 
L 96.036148 98.70799 
L 94.684294 100.37292 
L 94.667045 100.39381 
L 93.878536 101.3472 
L 93.524936 101.768065 
L 93.35679 101.964672 
L 93.054754 102.32148 
L 92.103043 103.427268 
L 91.188338 104.472774 
L 91.125844 104.545058 
L 91.013247 104.6736 
L 90.096473 105.699546 
L 88.891306 107.02572 
L 88.735567 107.194341 
L 87.98942 108 
L 87.541908 108.476167 
L 87.339548 108.687649 
L 87.067876 108.97428 
L 86.006482 110.076328 
L 85.121216 110.979446 
L 85.011144 111.093227 
L 84.782317 111.3264 
L 83.924389 112.183732 
L 82.497532 113.584025 
L 82.446001 113.635064 
L 82.401474 113.67852 
L 82.118834 113.954067 
L 81.388871 114.6528 
L 80.946339 115.070651 
L 80.35469 115.62708 
L 79.689144 116.243413 
L 79.206707 116.681777 
L 78.787675 117.068135 
L 77.783919 117.9792 
L 77.537389 118.198738 
L 77.202159 118.491498 
L 76.181318 119.392757 
L 75.539054 119.950661 
L 75.363417 120.105562 
L 75.102395 120.33132 
L 74.180551 121.116743 
L 73.957792 121.3056 
L 72.986319 122.118824 
L 72.790332 122.27988 
L 72.469373 122.543235 
L 72.198821 122.761434 
L 70.951514 123.779582 
L 69.88562 124.632 
L 69.826997 124.67802 
L 69.806541 124.693795 
L 68.714985 125.549839 
L 67.417874 126.545871 
L 67.170481 126.73828 
L 66.848698 126.98412 
L 66.133638 127.519969 
L 65.550843 127.9584 
L 65.383774 128.081963 
L 64.226357 128.93268 
L 64.183821 128.963501 
L 64.160753 128.97985 
L 63.391415 129.535 
L 62.813946 129.943859 
L 61.889521 130.607639 
L 60.9253 131.2848 
L 60.704845 131.436861 
L 60.638647 131.481633 
L 59.577436 132.21295 
L 58.347713 133.041246 
L 58.006139 133.274759 
L 57.62857 133.519562 
L 57.62857 134.6112 
L 57.62857 137.9376 
L 57.62857 141.264 
L 57.62857 144.5904 
L 57.62857 147.9168 
L 57.62857 151.2432 
L 57.62857 154.5696 
L 57.62857 157.896 
L 57.62857 161.2224 
L 57.62857 164.5488 
L 57.62857 167.861574 
L 57.636001 167.858976 
L 58.708709 167.474093 
L 60.196378 166.93106 
L 60.27914 166.90092 
L 61.066863 166.608856 
L 61.296374 166.520855 
L 62.839751 165.946077 
L 63.507233 165.688187 
L 63.910958 165.537222 
L 64.984531 165.122077 
L 65.432631 164.953766 
L 66.471857 164.5488 
L 66.749952 164.438701 
L 66.795245 164.420184 
L 68.014352 163.937095 
L 68.704545 163.653753 
L 69.581954 163.303335 
L 70.094699 163.091872 
L 70.584854 162.895932 
L 72.273294 162.19668 
L 72.373124 162.15483 
L 72.836693 161.961625 
L 74.228993 161.367452 
L 74.447569 161.274999 
L 74.473612 161.264047 
L 74.57033 161.2224 
L 76.099689 160.561107 
L 76.506394 160.381043 
L 76.808426 160.24812 
L 78.22508 159.61683 
L 78.673193 159.410433 
L 79.2029 159.173355 
L 80.085547 158.766404 
L 80.746738 158.469036 
L 81.979445 157.896 
L 82.005614 157.883629 
L 82.010786 157.881114 
L 83.255127 157.292275 
L 83.967676 156.944168 
L 84.799477 156.547245 
L 85.363872 156.27014 
L 85.749879 156.085742 
L 86.848591 155.54388 
L 87.368994 155.283876 
L 87.695556 155.121755 
L 88.782687 154.5696 
L 89.321083 154.293402 
L 90.666979 153.59532 
L 90.696775 153.57966 
L 90.708082 153.573538 
L 91.511864 153.149151 
L 91.896385 152.940684 
L 93.147368 152.276724 
L 94.100454 151.755506 
L 94.276999 151.661367 
L 95.040747 151.2432 
L 95.582974 150.94107 
L 95.958399 150.725743 
L 97.032352 150.122021 
L 97.510078 149.84655 
L 98.002166 149.569582 
L 99.173278 148.89108 
L 99.581236 148.651464 
L 99.890056 148.471331 
L 100.819951 147.9168 
L 101.417703 147.556437 
L 102.426396 146.94252 
L 102.790667 146.717711 
L 102.956221 146.612716 
L 103.33993 146.368078 
L 103.33993 144.5904 
L 103.33993 141.264 
L 103.33993 137.9376 
L 103.33993 134.6112 
L 103.33993 131.2848 
L 103.33993 127.9584 
L 103.33993 124.632 
L 103.33993 121.3056 
L 103.33993 117.9792 
L 103.33993 114.6528 
L 103.33993 111.3264 
L 103.33993 108 
L 103.33993 104.6736 
L 103.33993 101.3472 
L 103.33993 98.0208 
L 103.33993 94.6944 
L 103.33993 91.368 
" clip-path="url(#p16664434ad)" style="fill: #00e4f8"/>
   </g>
   <g id="PathCollection_5">
    <path d="M 103.33993 146.368078 
L 102.956221 146.612716 
L 102.790667 146.717711 
L 102.426396 146.94252 
L 101.417703 147.556437 
L 100.819951 147.9168 
L 99.890056 148.471331 
L 99.581236 148.651464 
L 99.173278 148.89108 
L 98.002166 149.569582 
L 97.510078 149.84655 
L 97.032352 150.122021 
L 95.958399 150.725743 
L 95.582974 150.94107 
L 95.040747 151.2432 
L 94.276999 151.661367 
L 94.100454 151.755506 
L 93.147368 152.276724 
L 91.896385 152.940684 
L 91.511864 153.149151 
L 90.708082 153.573538 
L 90.696775 153.57966 
L 90.666979 153.59532 
L 89.321083 154.293402 
L 88.782687 154.5696 
L 87.695556 155.121755 
L 87.368994 155.283876 
L 86.848591 155.54388 
L 85.749879 156.085742 
L 85.363872 156.27014 
L 84.799477 156.547245 
L 83.967676 156.944168 
L 83.255127 157.292275 
L 82.010786 157.881114 
L 82.005614 157.883629 
L 81.979445 157.896 
L 80.746738 158.469036 
L 80.085547 158.766404 
L 79.2029 159.173355 
L 78.673193 159.410433 
L 78.22508 159.61683 
L 76.808426 160.24812 
L 76.506394 160.381043 
L 76.099689 160.561107 
L 74.57033 161.2224 
L 74.473612 161.264047 
L 74.447569 161.274999 
L 74.228993 161.367452 
L 72.836693 161.961625 
L 72.373124 162.15483 
L 72.273294 162.19668 
L 70.584854 162.895932 
L 70.094699 163.091872 
L 69.581954 163.303335 
L 68.704545 163.653753 
L 68.014352 163.937095 
L 66.795245 164.420184 
L 66.749952 164.438701 
L 66.471857 164.5488 
L 65.432631 164.953766 
L 64.984531 165.122077 
L 63.910958 165.537222 
L 63.507233 165.688187 
L 62.839751 165.946077 
L 61.296374 166.520855 
L 61.066863 166.608856 
L 60.27914 166.90092 
L 60.196378 166.93106 
L 58.708709 167.474093 
L 57.636001 167.858976 
L 57.62857 167.861574 
L 57.62857 167.8752 
L 57.62857 171.2016 
L 57.62857 174.528 
L 57.62857 177.8544 
L 57.62857 181.1808 
L 57.62857 184.5072 
L 57.62857 187.8336 
L 57.62857 191.16 
L 57.62857 194.4864 
L 57.62857 195.936491 
L 57.995674 195.877997 
L 58.247433 195.837435 
L 60.213049 195.497049 
L 60.235906 195.493341 
L 60.423817 195.46068 
L 60.94052 195.37079 
L 61.291807 195.307381 
L 62.811681 195.039789 
L 63.186015 194.974188 
L 65.090735 194.627823 
L 65.352231 194.58144 
L 65.873298 194.4864 
L 67.639142 194.16226 
L 67.884455 194.115562 
L 68.922054 193.918973 
L 69.848245 193.747661 
L 70.406581 193.640553 
L 71.07926 193.51212 
L 72.310651 193.274701 
L 72.470695 193.241798 
L 73.232702 193.094317 
L 73.531516 193.032842 
L 75.107041 192.726672 
L 75.636682 192.616917 
L 76.169812 192.512913 
L 76.885042 192.364592 
L 77.897741 192.166221 
L 78.805604 191.97657 
L 79.104325 191.917826 
L 80.246488 191.679054 
L 80.682565 191.592941 
L 81.977564 191.320207 
L 82.036155 191.308591 
L 82.741155 191.16 
L 83.461181 191.006108 
L 83.618533 190.970377 
L 84.964414 190.680537 
L 85.154587 190.637166 
L 86.233124 190.404708 
L 87.006162 190.227681 
L 87.889513 190.035829 
L 88.335573 189.933232 
L 88.998566 189.789116 
L 90.403074 189.464718 
L 90.811596 189.375227 
L 91.520057 189.210864 
L 91.757287 189.158851 
L 93.263712 188.80788 
L 93.650615 188.716768 
L 94.199616 188.588134 
L 95.138509 188.360661 
L 96.061674 188.141325 
L 96.252418 188.096235 
L 97.326772 187.8336 
L 98.460103 187.554462 
L 99.316027 187.338755 
L 100.237638 187.10717 
L 100.845729 186.956021 
L 101.225935 186.85932 
L 102.717879 186.475607 
L 102.979959 186.404404 
L 103.33993 186.30573 
L 103.33993 184.5072 
L 103.33993 181.1808 
L 103.33993 177.8544 
L 103.33993 174.528 
L 103.33993 171.2016 
L 103.33993 167.8752 
L 103.33993 164.5488 
L 103.33993 161.2224 
L 103.33993 157.896 
L 103.33993 154.5696 
L 103.33993 151.2432 
L 103.33993 147.9168 
" clip-path="url(#p16664434ad)" style="fill: #53ffa4"/>
   </g>
   <g id="PathCollection_6">
    <path d="M 103.33993 186.30573 
L 102.979959 186.404404 
L 102.717879 186.475607 
L 101.225935 186.85932 
L 100.845729 186.956021 
L 100.237638 187.10717 
L 99.316027 187.338755 
L 98.460103 187.554462 
L 97.326772 187.8336 
L 96.252418 188.096235 
L 96.061674 188.141325 
L 95.138509 188.360661 
L 94.199616 188.588134 
L 93.650615 188.716768 
L 93.263712 188.80788 
L 91.757287 189.158851 
L 91.520057 189.210864 
L 90.811596 189.375227 
L 90.403074 189.464718 
L 88.998566 189.789116 
L 88.335573 189.933232 
L 87.889513 190.035829 
L 87.006162 190.227681 
L 86.233124 190.404708 
L 85.154587 190.637166 
L 84.964414 190.680537 
L 83.618533 190.970377 
L 83.461181 191.006108 
L 82.741155 191.16 
L 82.036155 191.308591 
L 81.977564 191.320207 
L 80.682565 191.592941 
L 80.246488 191.679054 
L 79.104325 191.917826 
L 78.805604 191.97657 
L 77.897741 192.166221 
L 76.885042 192.364592 
L 76.169812 192.512913 
L 75.636682 192.616917 
L 75.107041 192.726672 
L 73.531516 193.032842 
L 73.232702 193.094317 
L 72.470695 193.241798 
L 72.310651 193.274701 
L 71.07926 193.51212 
L 70.406581 193.640553 
L 69.848245 193.747661 
L 68.922054 193.918973 
L 67.884455 194.115562 
L 67.639142 194.16226 
L 65.873298 194.4864 
L 65.352231 194.58144 
L 65.090735 194.627823 
L 63.186015 194.974188 
L 62.811681 195.039789 
L 61.291807 195.307381 
L 60.94052 195.37079 
L 60.423817 195.46068 
L 60.235906 195.493341 
L 60.213049 195.497049 
L 58.247433 195.837435 
L 57.995674 195.877997 
L 57.62857 195.936491 
L 57.62857 197.8128 
L 57.62857 201.1392 
L 57.62857 204.4656 
L 57.62857 207.792 
L 57.62857 211.1184 
L 57.62857 214.4448 
L 57.62857 217.7712 
L 57.62857 220.377887 
L 57.963647 220.366096 
L 58.326955 220.351285 
L 60.064428 220.272777 
L 60.895605 220.235423 
L 61.231056 220.221683 
L 63.270494 220.129323 
L 63.403773 220.12332 
L 64.163125 220.088655 
L 64.186177 220.087356 
L 66.264567 219.992357 
L 66.350326 219.987503 
L 67.184117 219.949347 
L 67.299814 219.942805 
L 69.248396 219.853524 
L 69.425076 219.843487 
L 70.20467 219.807725 
L 70.414571 219.795813 
L 72.231165 219.712375 
L 72.500288 219.697029 
L 73.22477 219.663713 
L 73.530481 219.6463 
L 75.212839 219.568837 
L 75.575979 219.548052 
L 76.244402 219.517237 
L 76.647584 219.494186 
L 78.193383 219.422832 
L 78.652163 219.396473 
L 79.263551 219.368217 
L 79.765916 219.339386 
L 81.172761 219.274281 
L 81.728856 219.242208 
L 82.282202 219.216569 
L 82.88552 219.18181 
L 84.150934 219.1231 
L 84.806077 219.085166 
L 85.300338 219.062206 
L 86.006438 219.021366 
L 87.127862 218.969201 
L 87.883842 218.925255 
L 88.317941 218.905036 
L 89.128715 218.857956 
L 90.103503 218.812493 
L 90.962171 218.762375 
L 91.334993 218.744964 
L 92.252398 218.691477 
L 93.077812 218.652877 
L 94.041082 218.596424 
L 94.351476 218.58189 
L 95.377535 218.521822 
L 96.050744 218.490254 
L 97.120596 218.427293 
L 97.367369 218.415707 
L 98.504179 218.348877 
L 99.02225 218.324518 
L 100.200735 218.25487 
L 100.382651 218.246304 
L 101.632384 218.172525 
L 101.992278 218.155556 
L 103.281522 218.079034 
L 103.33993 218.075542 
L 103.33993 217.7712 
L 103.33993 214.4448 
L 103.33993 211.1184 
L 103.33993 207.792 
L 103.33993 204.4656 
L 103.33993 201.1392 
L 103.33993 197.8128 
L 103.33993 194.4864 
L 103.33993 191.16 
L 103.33993 187.8336 
" clip-path="url(#p16664434ad)" style="fill: #a4ff53"/>
   </g>
   <g id="PathCollection_7">
    <path d="M 103.33993 218.075542 
L 103.281522 218.079034 
L 101.992278 218.155556 
L 101.632384 218.172525 
L 100.382651 218.246304 
L 100.200735 218.25487 
L 99.02225 218.324518 
L 98.504179 218.348877 
L 97.367369 218.415707 
L 97.120596 218.427293 
L 96.050744 218.490254 
L 95.377535 218.521822 
L 94.351476 218.58189 
L 94.041082 218.596424 
L 93.077812 218.652877 
L 92.252398 218.691477 
L 91.334993 218.744964 
L 90.962171 218.762375 
L 90.103503 218.812493 
L 89.128715 218.857956 
L 88.317941 218.905036 
L 87.883842 218.925255 
L 87.127862 218.969201 
L 86.006438 219.021366 
L 85.300338 219.062206 
L 84.806077 219.085166 
L 84.150934 219.1231 
L 82.88552 219.18181 
L 82.282202 219.216569 
L 81.728856 219.242208 
L 81.172761 219.274281 
L 79.765916 219.339386 
L 79.263551 219.368217 
L 78.652163 219.396473 
L 78.193383 219.422832 
L 76.647584 219.494186 
L 76.244402 219.517237 
L 75.575979 219.548052 
L 75.212839 219.568837 
L 73.530481 219.6463 
L 73.22477 219.663713 
L 72.500288 219.697029 
L 72.231165 219.712375 
L 70.414571 219.795813 
L 70.20467 219.807725 
L 69.425076 219.843487 
L 69.248396 219.853524 
L 67.299814 219.942805 
L 67.184117 219.949347 
L 66.350326 219.987503 
L 66.264567 219.992357 
L 64.186177 220.087356 
L 64.163125 220.088655 
L 63.403773 220.12332 
L 63.270494 220.129323 
L 61.231056 220.221683 
L 60.895605 220.235423 
L 60.064428 220.272777 
L 58.326955 220.351285 
L 57.963647 220.366096 
L 57.62857 220.377887 
L 57.62857 221.0976 
L 57.62857 224.424 
L 57.62857 227.7504 
L 57.62857 231.0768 
L 57.62857 234.4032 
L 57.62857 237.7296 
L 57.62857 241.056 
L 57.62857 242.696693 
L 57.945266 242.713267 
L 58.399365 242.738716 
L 59.873373 242.808193 
L 60.382775 242.837007 
L 60.963977 242.864602 
L 61.518894 242.896128 
L 62.851328 242.95985 
L 63.460131 242.994763 
L 63.981935 243.0199 
L 64.640388 243.057828 
L 65.827484 243.115435 
L 66.538293 243.156766 
L 66.999116 243.179294 
L 67.763912 243.223962 
L 68.801782 243.275074 
L 69.617288 243.32316 
L 70.015494 243.342916 
L 70.889539 243.394686 
L 71.774163 243.438901 
L 72.697145 243.494096 
L 73.031044 243.51091 
L 74.017341 243.570158 
L 74.744562 243.607053 
L 75.777894 243.669731 
L 76.045736 243.683422 
L 77.147396 243.750549 
L 77.712914 243.779674 
L 78.859565 243.850229 
L 79.059541 243.860606 
L 80.279784 243.936034 
L 80.679149 243.956916 
L 81.942192 244.035763 
L 82.07243 244.042625 
L 83.414591 244.126798 
L 83.643196 244.138936 
L 85.025808 244.226514 
L 85.084369 244.229647 
L 86.551905 244.323037 
L 86.604979 244.325898 
L 87.48397 244.3824 
L 88.095402 244.421439 
L 88.110428 244.42255 
L 89.56538 244.515877 
L 89.69198 244.525302 
L 91.105741 244.616897 
L 91.196011 244.623665 
L 92.523839 244.710095 
L 92.834808 244.733577 
L 94.115054 244.817756 
L 94.28268 244.830504 
L 95.47988 244.909593 
L 95.980423 244.947937 
L 97.123306 245.024211 
L 97.370476 245.043283 
L 98.433417 245.114558 
L 99.128933 245.168617 
L 100.130457 245.236469 
L 100.459442 245.262227 
L 101.384358 245.325189 
L 102.280452 245.395866 
L 103.136465 245.454747 
L 103.33993 245.469222 
L 103.33993 244.3824 
L 103.33993 241.056 
L 103.33993 237.7296 
L 103.33993 234.4032 
L 103.33993 231.0768 
L 103.33993 227.7504 
L 103.33993 224.424 
L 103.33993 221.0976 
" clip-path="url(#p16664434ad)" style="fill: #f8f500"/>
   </g>
   <g id="PathCollection_8">
    <path d="M 103.33993 245.469222 
L 103.136465 245.454747 
L 102.280452 245.395866 
L 101.384358 245.325189 
L 100.459442 245.262227 
L 100.130457 245.236469 
L 99.128933 245.168617 
L 98.433417 245.114558 
L 97.370476 245.043283 
L 97.123306 245.024211 
L 95.980423 244.947937 
L 95.47988 244.909593 
L 94.28268 244.830504 
L 94.115054 244.817756 
L 92.834808 244.733577 
L 92.523839 244.710095 
L 91.196011 244.623665 
L 91.105741 244.616897 
L 89.69198 244.525302 
L 89.56538 244.515877 
L 88.110428 244.42255 
L 88.095402 244.421439 
L 87.48397 244.3824 
L 86.604979 244.325898 
L 86.551905 244.323037 
L 85.084369 244.229647 
L 85.025808 244.226514 
L 83.643196 244.138936 
L 83.414591 244.126798 
L 82.07243 244.042625 
L 81.942192 244.035763 
L 80.679149 243.956916 
L 80.279784 243.936034 
L 79.059541 243.860606 
L 78.859565 243.850229 
L 77.712914 243.779674 
L 77.147396 243.750549 
L 76.045736 243.683422 
L 75.777894 243.669731 
L 74.744562 243.607053 
L 74.017341 243.570158 
L 73.031044 243.51091 
L 72.697145 243.494096 
L 71.774163 243.438901 
L 70.889539 243.394686 
L 70.015494 243.342916 
L 69.617288 243.32316 
L 68.801782 243.275074 
L 67.763912 243.223962 
L 66.999116 243.179294 
L 66.538293 243.156766 
L 65.827484 243.115435 
L 64.640388 243.057828 
L 63.981935 243.0199 
L 63.460131 242.994763 
L 62.851328 242.95985 
L 61.518894 242.896128 
L 60.963977 242.864602 
L 60.382775 242.837007 
L 59.873373 242.808193 
L 58.399365 242.738716 
L 57.945266 242.713267 
L 57.62857 242.696693 
L 57.62857 244.3824 
L 57.62857 247.7088 
L 57.62857 251.0352 
L 57.62857 254.3616 
L 57.62857 257.688 
L 57.62857 261.0144 
L 57.62857 264.025937 
L 57.687015 264.032765 
L 59.091345 264.207771 
L 59.206992 264.221363 
L 60.158484 264.3408 
L 60.66395 264.404275 
L 60.688661 264.407565 
L 62.088355 264.583889 
L 62.325599 264.615637 
L 63.639638 264.782354 
L 63.811585 264.805484 
L 64.966916 264.952531 
L 65.56435 265.03332 
L 66.613915 265.167873 
L 66.936078 265.211668 
L 67.842254 265.328211 
L 68.807265 265.460095 
L 69.586734 265.561077 
L 70.062192 265.626403 
L 70.714264 265.711154 
L 72.054495 265.896289 
L 72.558045 265.962222 
L 73.189986 266.049988 
L 73.58284 266.101596 
L 75.306197 266.342246 
L 75.5278 266.371576 
L 76.319519 266.482737 
L 76.447869 266.499781 
L 77.815913 266.69292 
L 78.419991 266.778158 
L 78.797072 266.832791 
L 79.704617 266.962205 
L 81.051424 267.154323 
L 83.102004 267.454703 
L 83.333606 267.488095 
L 83.67525 267.537369 
L 83.767327 267.550655 
L 84.551758 267.6672 
L 86.293143 267.925779 
L 86.98097 268.030599 
L 87.462252 268.103972 
L 88.904084 268.320476 
L 90.645822 268.588918 
L 90.771695 268.607976 
L 90.986727 268.64148 
L 91.579113 268.733216 
L 91.643337 268.74369 
L 93.567308 269.043309 
L 93.835994 269.087474 
L 94.538447 269.197489 
L 94.928074 269.261765 
L 96.407896 269.49485 
L 96.978723 269.589772 
L 97.495895 269.671701 
L 98.21852 269.792303 
L 99.244208 269.955729 
L 100.123658 270.103696 
L 100.451388 270.156219 
L 101.51491 270.335818 
L 102.076087 270.426282 
L 103.270886 270.62971 
L 103.33993 270.64072 
L 103.33993 267.6672 
L 103.33993 264.3408 
L 103.33993 261.0144 
L 103.33993 257.688 
L 103.33993 254.3616 
L 103.33993 251.0352 
L 103.33993 247.7088 
" clip-path="url(#p16664434ad)" style="fill: #ff9400"/>
   </g>
   <g id="PathCollection_9">
    <path d="M 103.33993 270.64072 
L 103.270886 270.62971 
L 102.076087 270.426282 
L 101.51491 270.335818 
L 100.451388 270.156219 
L 100.123658 270.103696 
L 99.244208 269.955729 
L 98.21852 269.792303 
L 97.495895 269.671701 
L 96.978723 269.589772 
L 96.407896 269.49485 
L 94.928074 269.261765 
L 94.538447 269.197489 
L 93.835994 269.087474 
L 93.567308 269.043309 
L 91.643337 268.74369 
L 91.579113 268.733216 
L 90.986727 268.64148 
L 90.771695 268.607976 
L 90.645822 268.588918 
L 88.904084 268.320476 
L 87.462252 268.103972 
L 86.98097 268.030599 
L 86.293143 267.925779 
L 84.551758 267.6672 
L 83.767327 267.550655 
L 83.67525 267.537369 
L 83.333606 267.488095 
L 83.102004 267.454703 
L 81.051424 267.154323 
L 79.704617 266.962205 
L 78.797072 266.832791 
L 78.419991 266.778158 
L 77.815913 266.69292 
L 76.447869 266.499781 
L 76.319519 266.482737 
L 75.5278 266.371576 
L 75.306197 266.342246 
L 73.58284 266.101596 
L 73.189986 266.049988 
L 72.558045 265.962222 
L 72.054495 265.896289 
L 70.714264 265.711154 
L 70.062192 265.626403 
L 69.586734 265.561077 
L 68.807265 265.460095 
L 67.842254 265.328211 
L 66.936078 265.211668 
L 66.613915 265.167873 
L 65.56435 265.03332 
L 64.966916 264.952531 
L 63.811585 264.805484 
L 63.639638 264.782354 
L 62.325599 264.615637 
L 62.088355 264.583889 
L 60.688661 264.407565 
L 60.66395 264.404275 
L 60.158484 264.3408 
L 59.206992 264.221363 
L 59.091345 264.207771 
L 57.687015 264.032765 
L 57.62857 264.025937 
L 57.62857 264.3408 
L 57.62857 267.6672 
L 57.62857 270.9936 
L 57.62857 274.32 
L 57.62857 277.6464 
L 57.62857 280.9728 
L 57.62857 284.2992 
L 57.62857 285.508977 
L 57.866218 285.551715 
L 58.523038 285.672894 
L 59.901465 285.934735 
L 60.349884 286.01794 
L 61.026604 286.14707 
L 61.327596 286.203093 
L 63.239724 286.569653 
L 63.290813 286.579218 
L 63.665206 286.65132 
L 64.307787 286.776185 
L 65.85388 287.076937 
L 66.214467 287.147195 
L 68.199486 287.539634 
L 68.355708 287.5703 
L 68.633362 287.6256 
L 70.562778 288.01096 
L 70.851201 288.069393 
L 72.116814 288.326258 
L 73.20634 288.547638 
L 73.339915 288.574615 
L 73.46323 288.59988 
L 75.294101 288.976961 
L 75.548584 289.030769 
L 76.250101 289.175925 
L 76.663439 289.263627 
L 78.075734 289.557206 
L 78.722074 289.695192 
L 79.180822 289.791005 
L 80.036401 289.974306 
L 80.853554 290.145776 
L 81.897702 290.370881 
L 82.109739 290.415588 
L 83.415356 290.698068 
L 83.627413 290.742992 
L 84.587318 290.952 
L 85.036693 291.050519 
L 85.075742 291.059286 
L 86.396823 291.349922 
L 86.803395 291.441662 
L 87.961272 291.697965 
L 88.257074 291.765041 
L 89.162015 291.96606 
L 90.199328 292.202487 
L 90.883934 292.355518 
L 91.440734 292.483065 
L 91.923054 292.591263 
L 93.601916 292.977842 
L 93.804598 293.0236 
L 94.626824 293.213898 
L 94.679774 293.225896 
L 95.015986 293.30412 
L 96.432794 293.635084 
L 98.419058 294.105435 
L 98.633377 294.155947 
L 98.848157 294.206634 
L 98.892633 294.217154 
L 99.148078 294.2784 
L 100.945156 294.709192 
L 101.256257 294.784753 
L 102.788823 295.157893 
L 102.922267 295.190195 
L 103.33993 295.29539 
L 103.33993 294.2784 
L 103.33993 290.952 
L 103.33993 287.6256 
L 103.33993 284.2992 
L 103.33993 280.9728 
L 103.33993 277.6464 
L 103.33993 274.32 
L 103.33993 270.9936 
" clip-path="url(#p16664434ad)" style="fill: #ff3800"/>
   </g>
   <g id="PathCollection_10">
    <path d="M 103.33993 295.29539 
L 102.922267 295.190195 
L 102.788823 295.157893 
L 101.256257 294.784753 
L 100.945156 294.709192 
L 99.148078 294.2784 
L 98.892633 294.217154 
L 98.848157 294.206634 
L 98.633377 294.155947 
L 98.419058 294.105435 
L 96.432794 293.635084 
L 95.015986 293.30412 
L 94.679774 293.225896 
L 94.626824 293.213898 
L 93.804598 293.0236 
L 93.601916 292.977842 
L 91.923054 292.591263 
L 91.440734 292.483065 
L 90.883934 292.355518 
L 90.199328 292.202487 
L 89.162015 291.96606 
L 88.257074 291.765041 
L 87.961272 291.697965 
L 86.803395 291.441662 
L 86.396823 291.349922 
L 85.075742 291.059286 
L 85.036693 291.050519 
L 84.587318 290.952 
L 83.627413 290.742992 
L 83.415356 290.698068 
L 82.109739 290.415588 
L 81.897702 290.370881 
L 80.853554 290.145776 
L 80.036401 289.974306 
L 79.180822 289.791005 
L 78.722074 289.695192 
L 78.075734 289.557206 
L 76.663439 289.263627 
L 76.250101 289.175925 
L 75.548584 289.030769 
L 75.294101 288.976961 
L 73.46323 288.59988 
L 73.339915 288.574615 
L 73.20634 288.547638 
L 72.116814 288.326258 
L 70.851201 288.069393 
L 70.562778 288.01096 
L 68.633362 287.6256 
L 68.355708 287.5703 
L 68.199486 287.539634 
L 66.214467 287.147195 
L 65.85388 287.076937 
L 64.307787 286.776185 
L 63.665206 286.65132 
L 63.290813 286.579218 
L 63.239724 286.569653 
L 61.327596 286.203093 
L 61.026604 286.14707 
L 60.349884 286.01794 
L 59.901465 285.934735 
L 58.523038 285.672894 
L 57.866218 285.551715 
L 57.62857 285.508977 
L 57.62857 287.6256 
L 57.62857 290.952 
L 57.62857 294.2784 
L 57.62857 297.6048 
L 57.62857 300.9312 
L 57.62857 304.2576 
L 57.62857 307.584 
L 59.152282 307.584 
L 60.675994 307.584 
L 62.199706 307.584 
L 63.723418 307.584 
L 65.24713 307.584 
L 66.770842 307.584 
L 68.294554 307.584 
L 69.818266 307.584 
L 71.341978 307.584 
L 72.86569 307.584 
L 74.389402 307.584 
L 75.913114 307.584 
L 77.436826 307.584 
L 78.960538 307.584 
L 80.48425 307.584 
L 82.007962 307.584 
L 83.531674 307.584 
L 85.055386 307.584 
L 86.579098 307.584 
L 88.10281 307.584 
L 89.626522 307.584 
L 91.150234 307.584 
L 92.673946 307.584 
L 94.197658 307.584 
L 95.72137 307.584 
L 97.245082 307.584 
L 98.768794 307.584 
L 100.292506 307.584 
L 101.816218 307.584 
L 103.33993 307.584 
L 103.33993 304.2576 
L 103.33993 300.9312 
L 103.33993 297.6048 
" clip-path="url(#p16664434ad)" style="fill: #b60000"/>
   </g>
   <g id="PathCollection_11">
    <path clip-path="url(#p16664434ad)" style="fill: #0000b6"/>
   </g>
   <g id="PathCollection_12">
    <path clip-path="url(#p16664434ad)" style="fill: #0018ff"/>
   </g>
   <g id="PathCollection_13">
    <path d="M 100.4544 92.882553 
L 102.211628 90.472847 
L 105.394616 85.824 
L 106.698177 83.79569 
L 109.332876 79.55168 
L 110.348918 77.770539 
L 110.848269 76.9536 
L 111.180349 76.300399 
L 111.570549 75.582156 
L 112.287451 74.35552 
L 113.021836 72.984516 
L 115.573037 68.0832 
L 116.175431 66.843998 
L 118.584464 61.81088 
L 119.152802 60.599461 
L 119.844964 59.2128 
L 120.302708 58.111603 
L 120.59824 57.333485 
L 120.919651 56.61472 
L 122.420218 52.882898 
L 123.482082 50.3424 
L 123.857236 49.376623 
L 125.888326 44.07008 
L 126.498657 42.270918 
L 126.782554 41.472 
L 124.73856 41.472 
L 116.64384 41.472 
L 108.54912 41.472 
L 100.4544 41.472 
L 100.4544 50.3424 
L 100.4544 59.2128 
L 100.4544 68.0832 
L 100.4544 76.9536 
L 100.4544 85.824 
" clip-path="url(#p16664434ad)" style="fill: #0080ff"/>
   </g>
   <g id="PathCollection_14">
    <path d="M 126.782554 41.472 
L 126.498657 42.270918 
L 125.888326 44.07008 
L 123.857236 49.376623 
L 123.482082 50.3424 
L 122.420218 52.882898 
L 120.919651 56.61472 
L 120.59824 57.333485 
L 120.302708 58.111603 
L 119.844964 59.2128 
L 119.152802 60.599461 
L 118.584464 61.81088 
L 116.175431 66.843998 
L 115.573037 68.0832 
L 113.021836 72.984516 
L 112.287451 74.35552 
L 111.570549 75.582156 
L 111.180349 76.300399 
L 110.848269 76.9536 
L 110.348918 77.770539 
L 109.332876 79.55168 
L 106.698177 83.79569 
L 105.394616 85.824 
L 102.211628 90.472847 
L 100.4544 92.882553 
L 100.4544 94.6944 
L 100.4544 103.5648 
L 100.4544 112.4352 
L 100.4544 121.3056 
L 100.4544 130.176 
L 100.4544 139.0464 
L 100.4544 147.9168 
L 100.4544 148.126664 
L 100.582986 148.057707 
L 100.821028 147.9168 
L 104.121696 145.907167 
L 105.055027 145.31872 
L 110.799254 141.512154 
L 114.245347 139.0464 
L 116.111474 137.637995 
L 117.634711 136.424995 
L 120.415665 134.309262 
L 122.295606 132.77408 
L 125.106348 130.342941 
L 125.17793 130.285073 
L 125.301231 130.176 
L 125.496889 129.987745 
L 125.837829 129.677035 
L 128.19617 127.57792 
L 129.413086 126.428064 
L 131.806171 124.022876 
L 133.309273 122.564867 
L 134.551013 121.3056 
L 137.769456 117.844387 
L 140.23858 115.03328 
L 141.976882 112.911293 
L 142.380092 112.4352 
L 142.701354 111.994966 
L 143.141127 111.430649 
L 144.439215 109.83712 
L 145.443027 108.512482 
L 149.011044 103.5648 
L 149.018535 103.553729 
L 149.038257 103.523695 
L 152.440986 98.440223 
L 153.175247 97.29248 
L 153.822654 96.189923 
L 154.791565 94.6944 
L 155.26366 93.852959 
L 156.317038 92.09632 
L 158.767219 87.63187 
L 159.722006 85.824 
L 162.777521 79.621539 
L 162.813046 79.55168 
L 162.817922 79.541081 
L 163.368675 78.505465 
L 164.123795 76.9536 
L 164.896305 75.022502 
L 165.186077 74.35552 
L 166.453126 71.366246 
L 167.822564 68.0832 
L 169.455762 63.863047 
L 170.232267 61.81088 
L 170.704644 60.39397 
L 170.931654 59.802448 
L 171.175293 59.2128 
L 171.440078 58.365448 
L 172.074866 56.61472 
L 173.874812 50.964754 
L 174.070171 50.3424 
L 174.42389 49.118352 
L 175.977234 44.07008 
L 176.304981 42.832855 
L 176.690888 41.472 
L 173.30688 41.472 
L 165.21216 41.472 
L 157.11744 41.472 
L 149.02272 41.472 
L 140.928 41.472 
L 132.83328 41.472 
" clip-path="url(#p16664434ad)" style="fill: #00e4f8"/>
   </g>
   <g id="PathCollection_15">
    <path d="M 176.690888 41.472 
L 176.304981 42.832855 
L 175.977234 44.07008 
L 174.42389 49.118352 
L 174.070171 50.3424 
L 173.874812 50.964754 
L 172.074866 56.61472 
L 171.440078 58.365448 
L 171.175293 59.2128 
L 170.931654 59.802448 
L 170.704644 60.39397 
L 170.232267 61.81088 
L 169.455762 63.863047 
L 167.822564 68.0832 
L 166.453126 71.366246 
L 165.186077 74.35552 
L 164.896305 75.022502 
L 164.123795 76.9536 
L 163.368675 78.505465 
L 162.817922 79.541081 
L 162.813046 79.55168 
L 162.777521 79.621539 
L 159.722006 85.824 
L 158.767219 87.63187 
L 156.317038 92.09632 
L 155.26366 93.852959 
L 154.791565 94.6944 
L 153.822654 96.189923 
L 153.175247 97.29248 
L 152.440986 98.440223 
L 149.038257 103.523695 
L 149.018535 103.553729 
L 149.011044 103.5648 
L 145.443027 108.512482 
L 144.439215 109.83712 
L 143.141127 111.430649 
L 142.701354 111.994966 
L 142.380092 112.4352 
L 141.976882 112.911293 
L 140.23858 115.03328 
L 137.769456 117.844387 
L 134.551013 121.3056 
L 133.309273 122.564867 
L 131.806171 124.022876 
L 129.413086 126.428064 
L 128.19617 127.57792 
L 125.837829 129.677035 
L 125.496889 129.987745 
L 125.301231 130.176 
L 125.17793 130.285073 
L 125.106348 130.342941 
L 122.295606 132.77408 
L 120.415665 134.309262 
L 117.634711 136.424995 
L 116.111474 137.637995 
L 114.245347 139.0464 
L 110.799254 141.512154 
L 105.055027 145.31872 
L 104.121696 145.907167 
L 100.821028 147.9168 
L 100.582986 148.057707 
L 100.4544 148.126664 
L 100.4544 156.7872 
L 100.4544 165.6576 
L 100.4544 174.528 
L 100.4544 183.3984 
L 100.4544 186.994892 
L 102.642291 186.480609 
L 103.162323 186.365811 
L 104.575803 185.99648 
L 110.651199 184.352546 
L 113.993894 183.3984 
L 118.897387 181.948333 
L 120.425509 181.440681 
L 122.427249 180.80032 
L 128.592084 178.75079 
L 131.680749 177.577086 
L 133.722172 176.879614 
L 139.860327 174.528 
L 140.641573 174.214126 
L 141.617957 173.771927 
L 147.75305 171.169017 
L 150.839682 169.721125 
L 152.199211 169.13848 
L 154.023838 168.25568 
L 158.189278 166.144113 
L 158.490828 165.998543 
L 159.122207 165.6576 
L 160.659338 164.778326 
L 163.797915 163.05952 
L 166.891393 161.229705 
L 172.581789 157.581774 
L 173.509461 157.009194 
L 173.833799 156.7872 
L 179.776223 152.487172 
L 182.3118 150.51488 
L 182.679915 150.243649 
L 185.512698 147.9168 
L 186.408191 147.150174 
L 186.85673 146.718675 
L 188.42653 145.31872 
L 192.066404 141.862763 
L 194.797315 139.0464 
L 196.772531 136.880987 
L 199.681931 133.51483 
L 200.155578 132.986286 
L 200.331645 132.77408 
L 200.530104 132.516182 
L 201.598918 131.190556 
L 202.480446 130.176 
L 202.998292 129.508838 
L 203.287721 129.087516 
L 204.440502 127.57792 
L 207.480601 123.272432 
L 208.778562 121.3056 
L 211.880186 116.278263 
L 212.617731 115.03328 
L 212.812822 114.684929 
L 214.188976 112.4352 
L 215.378351 110.029021 
L 215.482863 109.83712 
L 215.86863 109.08912 
L 218.625105 103.5648 
L 219.720537 101.203665 
L 221.449633 97.29248 
L 222.381918 94.924402 
L 222.482499 94.6944 
L 222.595818 94.367307 
L 223.546412 92.09632 
L 224.718768 88.940054 
L 225.83071 85.824 
L 227.75712 79.969912 
L 227.892042 79.55168 
L 228.274635 78.542255 
L 228.81175 76.9536 
L 229.381421 74.797997 
L 229.481579 74.35552 
L 230.701568 70.018816 
L 231.238786 68.0832 
L 232.72425 62.231065 
L 232.828956 61.81088 
L 232.879374 61.566422 
L 233.181615 60.425008 
L 233.536916 59.2128 
L 233.753326 58.142519 
L 233.894821 57.320095 
L 234.067054 56.61472 
L 234.557353 54.185774 
L 235.417867 50.3424 
L 235.899597 47.969891 
L 236.690647 44.07008 
L 237.034078 41.939778 
L 237.129534 41.472 
L 229.96992 41.472 
L 221.8752 41.472 
L 213.78048 41.472 
L 205.68576 41.472 
L 197.59104 41.472 
L 189.49632 41.472 
L 181.4016 41.472 
" clip-path="url(#p16664434ad)" style="fill: #53ffa4"/>
   </g>
   <g id="PathCollection_16">
    <path d="M 237.129534 41.472 
L 237.034078 41.939778 
L 236.690647 44.07008 
L 235.899597 47.969891 
L 235.417867 50.3424 
L 234.557353 54.185774 
L 234.067054 56.61472 
L 233.894821 57.320095 
L 233.753326 58.142519 
L 233.536916 59.2128 
L 233.181615 60.425008 
L 232.879374 61.566422 
L 232.828956 61.81088 
L 232.72425 62.231065 
L 231.238786 68.0832 
L 230.701568 70.018816 
L 229.481579 74.35552 
L 229.381421 74.797997 
L 228.81175 76.9536 
L 228.274635 78.542255 
L 227.892042 79.55168 
L 227.75712 79.969912 
L 225.83071 85.824 
L 224.718768 88.940054 
L 223.546412 92.09632 
L 222.595818 94.367307 
L 222.482499 94.6944 
L 222.381918 94.924402 
L 221.449633 97.29248 
L 219.720537 101.203665 
L 218.625105 103.5648 
L 215.86863 109.08912 
L 215.482863 109.83712 
L 215.378351 110.029021 
L 214.188976 112.4352 
L 212.812822 114.684929 
L 212.617731 115.03328 
L 211.880186 116.278263 
L 208.778562 121.3056 
L 207.480601 123.272432 
L 204.440502 127.57792 
L 203.287721 129.087516 
L 202.998292 129.508838 
L 202.480446 130.176 
L 201.598918 131.190556 
L 200.530104 132.516182 
L 200.331645 132.77408 
L 200.155578 132.986286 
L 199.681931 133.51483 
L 196.772531 136.880987 
L 194.797315 139.0464 
L 192.066404 141.862763 
L 188.42653 145.31872 
L 186.85673 146.718675 
L 186.408191 147.150174 
L 185.512698 147.9168 
L 182.679915 150.243649 
L 182.3118 150.51488 
L 179.776223 152.487172 
L 173.833799 156.7872 
L 173.509461 157.009194 
L 172.581789 157.581774 
L 166.891393 161.229705 
L 163.797915 163.05952 
L 160.659338 164.778326 
L 159.122207 165.6576 
L 158.490828 165.998543 
L 158.189278 166.144113 
L 154.023838 168.25568 
L 152.199211 169.13848 
L 150.839682 169.721125 
L 147.75305 171.169017 
L 141.617957 173.771927 
L 140.641573 174.214126 
L 139.860327 174.528 
L 133.722172 176.879614 
L 131.680749 177.577086 
L 128.592084 178.75079 
L 122.427249 180.80032 
L 120.425509 181.440681 
L 118.897387 181.948333 
L 113.993894 183.3984 
L 110.651199 184.352546 
L 104.575803 185.99648 
L 103.162323 186.365811 
L 102.642291 186.480609 
L 100.4544 186.994892 
L 100.4544 192.2688 
L 100.4544 201.1392 
L 100.4544 210.0096 
L 100.4544 218.230192 
L 101.075932 218.198909 
L 106.417525 217.912457 
L 111.431037 217.571881 
L 118.02507 217.213381 
L 120.648554 217.023523 
L 130.318452 216.347255 
L 131.276903 216.28192 
L 135.098701 216.0029 
L 135.498877 215.958971 
L 145.667376 215.203129 
L 147.122648 215.036349 
L 150.81714 214.75684 
L 153.016008 214.504053 
L 160.679104 213.912562 
L 163.882808 213.526477 
L 166.464674 213.323198 
L 170.757232 212.803569 
L 175.507431 212.42102 
L 180.742455 211.753406 
L 182.020939 211.648095 
L 188.794279 210.778915 
L 190.097813 210.668731 
L 194.943739 210.0096 
L 197.455748 209.651679 
L 197.747709 209.595124 
L 204.430629 208.634195 
L 207.506191 208.014725 
L 212.723087 207.212206 
L 215.020853 206.728124 
L 218.400467 206.201899 
L 227.100205 204.283906 
L 227.763469 204.17231 
L 229.63548 203.73728 
L 231.068081 203.421326 
L 235.953072 202.097653 
L 238.651797 201.405714 
L 239.5711 201.1392 
L 246.178681 199.134488 
L 247.74584 198.54112 
L 248.438261 198.297761 
L 248.955603 198.075006 
L 256.832296 195.094074 
L 262.27853 192.454702 
L 262.400274 192.404978 
L 262.670729 192.2688 
L 267.89543 189.476538 
L 273.132467 185.99648 
L 274.319981 185.157948 
L 276.630899 183.3984 
L 278.981631 181.27882 
L 279.582743 180.80032 
L 280.567265 179.895901 
L 285.678953 174.528 
L 286.150268 173.999054 
L 290.458305 168.25568 
L 290.910776 167.599325 
L 291.479622 166.860781 
L 292.205114 165.6576 
L 293.013128 164.073728 
L 293.647543 163.05952 
L 295.672145 159.285836 
L 296.880813 156.7872 
L 298.836996 152.419893 
L 299.562824 150.51488 
L 300.002691 149.196682 
L 300.250298 148.555323 
L 300.553625 147.9168 
L 300.750683 147.402498 
L 300.856873 147.024636 
L 301.459468 145.31872 
L 303.245365 139.509895 
L 303.367034 139.0464 
L 303.560437 138.23764 
L 305.086182 132.77408 
L 305.420046 131.355086 
L 305.573168 130.858876 
L 305.73116 130.176 
L 305.837209 129.427576 
L 305.979127 128.743143 
L 306.289186 127.57792 
L 306.732458 125.590341 
L 307.573645 121.3056 
L 308.638558 115.277536 
L 308.679045 115.03328 
L 308.942439 113.954495 
L 309.225417 112.4352 
L 309.380593 110.807133 
L 309.522076 109.83712 
L 310.101211 105.723334 
L 310.427646 103.5648 
L 310.555783 102.608863 
L 311.237417 97.29248 
L 311.329408 96.601558 
L 311.661777 94.6944 
L 311.806654 92.905718 
L 311.839003 92.09632 
L 312.16264 89.119094 
L 312.509487 85.824 
L 313.010893 80.284804 
L 313.084948 79.55168 
L 313.093057 79.503284 
L 313.430764 76.9536 
L 313.526776 74.463898 
L 313.536993 74.35552 
L 313.553053 74.065078 
L 314.057377 68.0832 
L 314.413413 63.044126 
L 314.500187 61.81088 
L 314.517632 61.252747 
L 314.753636 59.2128 
L 314.792723 57.297719 
L 314.84791 56.61472 
L 314.922643 54.823447 
L 315.229242 50.3424 
L 315.446373 46.435271 
L 315.585354 44.07008 
L 315.605892 43.01798 
L 315.709791 41.472 
L 310.91712 41.472 
L 302.8224 41.472 
L 294.72768 41.472 
L 286.63296 41.472 
L 278.53824 41.472 
L 270.44352 41.472 
L 262.3488 41.472 
L 254.25408 41.472 
L 246.15936 41.472 
L 238.06464 41.472 
" clip-path="url(#p16664434ad)" style="fill: #a4ff53"/>
   </g>
   <g id="PathCollection_17">
    <path d="M 315.709791 41.472 
L 315.605892 43.01798 
L 315.585354 44.07008 
L 315.446373 46.435271 
L 315.229242 50.3424 
L 314.922643 54.823447 
L 314.84791 56.61472 
L 314.792723 57.297719 
L 314.753636 59.2128 
L 314.517632 61.252747 
L 314.500187 61.81088 
L 314.413413 63.044126 
L 314.057377 68.0832 
L 313.553053 74.065078 
L 313.536993 74.35552 
L 313.526776 74.463898 
L 313.430764 76.9536 
L 313.093057 79.503284 
L 313.084948 79.55168 
L 313.010893 80.284804 
L 312.509487 85.824 
L 312.16264 89.119094 
L 311.839003 92.09632 
L 311.806654 92.905718 
L 311.661777 94.6944 
L 311.329408 96.601558 
L 311.237417 97.29248 
L 310.555783 102.608863 
L 310.427646 103.5648 
L 310.101211 105.723334 
L 309.522076 109.83712 
L 309.380593 110.807133 
L 309.225417 112.4352 
L 308.942439 113.954495 
L 308.679045 115.03328 
L 308.638558 115.277536 
L 307.573645 121.3056 
L 306.732458 125.590341 
L 306.289186 127.57792 
L 305.979127 128.743143 
L 305.837209 129.427576 
L 305.73116 130.176 
L 305.573168 130.858876 
L 305.420046 131.355086 
L 305.086182 132.77408 
L 303.560437 138.23764 
L 303.367034 139.0464 
L 303.245365 139.509895 
L 301.459468 145.31872 
L 300.856873 147.024636 
L 300.750683 147.402498 
L 300.553625 147.9168 
L 300.250298 148.555323 
L 300.002691 149.196682 
L 299.562824 150.51488 
L 298.836996 152.419893 
L 296.880813 156.7872 
L 295.672145 159.285836 
L 293.647543 163.05952 
L 293.013128 164.073728 
L 292.205114 165.6576 
L 291.479622 166.860781 
L 290.910776 167.599325 
L 290.458305 168.25568 
L 286.150268 173.999054 
L 285.678953 174.528 
L 280.567265 179.895901 
L 279.582743 180.80032 
L 278.981631 181.27882 
L 276.630899 183.3984 
L 274.319981 185.157948 
L 273.132467 185.99648 
L 267.89543 189.476538 
L 262.670729 192.2688 
L 262.400274 192.404978 
L 262.27853 192.454702 
L 256.832296 195.094074 
L 248.955603 198.075006 
L 248.438261 198.297761 
L 247.74584 198.54112 
L 246.178681 199.134488 
L 239.5711 201.1392 
L 238.651797 201.405714 
L 235.953072 202.097653 
L 231.068081 203.421326 
L 229.63548 203.73728 
L 227.763469 204.17231 
L 227.100205 204.283906 
L 218.400467 206.201899 
L 215.020853 206.728124 
L 212.723087 207.212206 
L 207.506191 208.014725 
L 204.430629 208.634195 
L 197.747709 209.595124 
L 197.455748 209.651679 
L 194.943739 210.0096 
L 190.097813 210.668731 
L 188.794279 210.778915 
L 182.020939 211.648095 
L 180.742455 211.753406 
L 175.507431 212.42102 
L 170.757232 212.803569 
L 166.464674 213.323198 
L 163.882808 213.526477 
L 160.679104 213.912562 
L 153.016008 214.504053 
L 150.81714 214.75684 
L 147.122648 215.036349 
L 145.667376 215.203129 
L 135.498877 215.958971 
L 135.098701 216.0029 
L 131.276903 216.28192 
L 130.318452 216.347255 
L 120.648554 217.023523 
L 118.02507 217.213381 
L 111.431037 217.571881 
L 106.417525 217.912457 
L 101.075932 218.198909 
L 100.4544 218.230192 
L 100.4544 218.88 
L 100.4544 227.7504 
L 100.4544 236.6208 
L 100.4544 245.259466 
L 100.540122 245.264417 
L 103.580515 245.4912 
L 108.238443 245.831648 
L 108.924321 245.902355 
L 116.27393 246.469817 
L 117.044973 246.552419 
L 123.316785 247.049217 
L 126.482376 247.402118 
L 131.937812 247.860211 
L 133.810989 248.077784 
L 138.220434 248.45822 
L 144.309027 249.196215 
L 147.511099 249.490278 
L 150.686377 249.892499 
L 152.909266 250.102624 
L 162.484479 251.372538 
L 162.970486 251.421674 
L 165.428033 251.76352 
L 168.571558 252.21221 
L 175.774506 253.241531 
L 182.596118 254.3616 
L 187.642794 255.202926 
L 194.018982 256.414462 
L 196.886137 256.95968 
L 199.749911 257.520584 
L 200.678654 257.745086 
L 209.099675 259.490945 
L 212.726326 260.443175 
L 214.672604 260.871835 
L 221.392963 262.703553 
L 222.187214 262.890087 
L 223.329337 263.232 
L 229.318772 264.95465 
L 230.817234 265.473617 
L 234.901594 266.698147 
L 242.430205 269.50432 
L 243.186111 269.777735 
L 244.908311 270.403463 
L 248.886387 272.1024 
L 251.680488 273.270568 
L 254.701507 274.70048 
L 258.42227 276.405191 
L 261.210627 277.961699 
L 263.123666 278.922849 
L 266.584149 280.9728 
L 269.129326 282.412927 
L 276.150861 287.24512 
L 276.157562 287.249564 
L 277.431919 288.108335 
L 279.557125 289.8432 
L 282.145105 291.880263 
L 282.754614 292.44128 
L 288.075024 297.133349 
L 289.521977 298.7136 
L 293.262922 302.588699 
L 295.249609 304.98592 
L 296.147153 306.028505 
L 297.359574 307.584 
L 302.8224 307.584 
L 310.91712 307.584 
L 319.01184 307.584 
L 327.10656 307.584 
L 335.20128 307.584 
L 343.296 307.584 
L 343.296 298.7136 
L 343.296 289.8432 
L 343.296 280.9728 
L 343.296 272.1024 
L 343.296 263.232 
L 343.296 254.3616 
L 343.296 245.4912 
L 343.296 236.6208 
L 343.296 227.7504 
L 343.296 218.88 
L 343.296 210.0096 
L 343.296 201.1392 
L 343.296 192.2688 
L 343.296 183.3984 
L 343.296 174.528 
L 343.296 165.6576 
L 343.296 156.7872 
L 343.296 147.9168 
L 343.296 139.0464 
L 343.296 130.176 
L 343.296 121.3056 
L 343.296 112.4352 
L 343.296 103.5648 
L 343.296 94.6944 
L 343.296 85.824 
L 343.296 76.9536 
L 343.296 68.0832 
L 343.296 59.2128 
L 343.296 50.3424 
L 343.296 41.472 
L 335.20128 41.472 
L 327.10656 41.472 
L 319.01184 41.472 
" clip-path="url(#p16664434ad)" style="fill: #f8f500"/>
   </g>
   <g id="PathCollection_18">
    <path d="M 297.359574 307.584 
L 296.147153 306.028505 
L 295.249609 304.98592 
L 293.262922 302.588699 
L 289.521977 298.7136 
L 288.075024 297.133349 
L 282.754614 292.44128 
L 282.145105 291.880263 
L 279.557125 289.8432 
L 277.431919 288.108335 
L 276.157562 287.249564 
L 276.150861 287.24512 
L 269.129326 282.412927 
L 266.584149 280.9728 
L 263.123666 278.922849 
L 261.210627 277.961699 
L 258.42227 276.405191 
L 254.701507 274.70048 
L 251.680488 273.270568 
L 248.886387 272.1024 
L 244.908311 270.403463 
L 243.186111 269.777735 
L 242.430205 269.50432 
L 234.901594 266.698147 
L 230.817234 265.473617 
L 229.318772 264.95465 
L 223.329337 263.232 
L 222.187214 262.890087 
L 221.392963 262.703553 
L 214.672604 260.871835 
L 212.726326 260.443175 
L 209.099675 259.490945 
L 200.678654 257.745086 
L 199.749911 257.520584 
L 196.886137 256.95968 
L 194.018982 256.414462 
L 187.642794 255.202926 
L 182.596118 254.3616 
L 175.774506 253.241531 
L 168.571558 252.21221 
L 165.428033 251.76352 
L 162.970486 251.421674 
L 162.484479 251.372538 
L 152.909266 250.102624 
L 150.686377 249.892499 
L 147.511099 249.490278 
L 144.309027 249.196215 
L 138.220434 248.45822 
L 133.810989 248.077784 
L 131.937812 247.860211 
L 126.482376 247.402118 
L 123.316785 247.049217 
L 117.044973 246.552419 
L 116.27393 246.469817 
L 108.924321 245.902355 
L 108.238443 245.831648 
L 103.580515 245.4912 
L 100.540122 245.264417 
L 100.4544 245.259466 
L 100.4544 245.4912 
L 100.4544 254.3616 
L 100.4544 263.232 
L 100.4544 270.151262 
L 101.998873 270.409927 
L 106.576045 271.20681 
L 109.454084 271.691632 
L 111.705529 272.1024 
L 119.232918 273.469172 
L 120.96825 273.813765 
L 125.410387 274.70048 
L 129.688248 275.548806 
L 130.885544 275.819955 
L 134.500682 276.561593 
L 137.546888 277.267692 
L 143.210941 278.471095 
L 148.571362 279.778706 
L 149.404631 279.962434 
L 153.443675 280.9728 
L 156.442039 281.712922 
L 158.255379 282.219783 
L 164.160126 283.756016 
L 166.524451 284.44454 
L 169.430615 285.22051 
L 176.082471 287.24512 
L 177.857398 287.777694 
L 179.553518 288.292477 
L 184.232988 289.8432 
L 187.294213 290.842749 
L 191.82027 292.44128 
L 194.401589 293.338282 
L 195.75957 293.868343 
L 198.978493 295.043014 
L 204.298418 297.193315 
L 206.353359 297.982028 
L 208.034429 298.7136 
L 212.985841 300.815862 
L 214.91689 301.720037 
L 217.922775 303.044768 
L 221.817228 304.98592 
L 224.608582 306.343302 
L 226.963144 307.584 
L 229.96992 307.584 
L 238.06464 307.584 
L 246.15936 307.584 
L 254.25408 307.584 
L 262.3488 307.584 
L 270.44352 307.584 
L 278.53824 307.584 
L 286.63296 307.584 
L 294.72768 307.584 
" clip-path="url(#p16664434ad)" style="fill: #ff9400"/>
   </g>
   <g id="PathCollection_19">
    <path d="M 226.963144 307.584 
L 224.608582 306.343302 
L 221.817228 304.98592 
L 217.922775 303.044768 
L 214.91689 301.720037 
L 212.985841 300.815862 
L 208.034429 298.7136 
L 206.353359 297.982028 
L 204.298418 297.193315 
L 198.978493 295.043014 
L 195.75957 293.868343 
L 194.401589 293.338282 
L 191.82027 292.44128 
L 187.294213 290.842749 
L 184.232988 289.8432 
L 179.553518 288.292477 
L 177.857398 287.777694 
L 176.082471 287.24512 
L 169.430615 285.22051 
L 166.524451 284.44454 
L 164.160126 283.756016 
L 158.255379 282.219783 
L 156.442039 281.712922 
L 153.443675 280.9728 
L 149.404631 279.962434 
L 148.571362 279.778706 
L 143.210941 278.471095 
L 137.546888 277.267692 
L 134.500682 276.561593 
L 130.885544 275.819955 
L 129.688248 275.548806 
L 125.410387 274.70048 
L 120.96825 273.813765 
L 119.232918 273.469172 
L 111.705529 272.1024 
L 109.454084 271.691632 
L 106.576045 271.20681 
L 101.998873 270.409927 
L 100.4544 270.151262 
L 100.4544 272.1024 
L 100.4544 280.9728 
L 100.4544 289.8432 
L 100.4544 294.615902 
L 101.880443 294.940921 
L 106.073338 296.000575 
L 110.126753 296.98479 
L 116.636153 298.693265 
L 116.6502 298.696775 
L 116.712837 298.7136 
L 123.143958 300.461005 
L 127.487026 301.725439 
L 131.289612 302.797462 
L 134.772669 303.844363 
L 135.938933 304.180747 
L 138.523689 304.98592 
L 143.342786 306.487915 
L 146.702653 307.584 
L 149.02272 307.584 
L 157.11744 307.584 
L 165.21216 307.584 
L 173.30688 307.584 
L 181.4016 307.584 
L 189.49632 307.584 
L 197.59104 307.584 
L 205.68576 307.584 
L 213.78048 307.584 
L 221.8752 307.584 
" clip-path="url(#p16664434ad)" style="fill: #ff3800"/>
   </g>
   <g id="PathCollection_20">
    <path d="M 146.702653 307.584 
L 143.342786 306.487915 
L 138.523689 304.98592 
L 135.938933 304.180747 
L 134.772669 303.844363 
L 131.289612 302.797462 
L 127.487026 301.725439 
L 123.143958 300.461005 
L 116.712837 298.7136 
L 116.6502 298.696775 
L 116.636153 298.693265 
L 110.126753 296.98479 
L 106.073338 296.000575 
L 101.880443 294.940921 
L 100.4544 294.615902 
L 100.4544 298.7136 
L 100.4544 307.584 
L 108.54912 307.584 
L 116.64384 307.584 
L 124.73856 307.584 
L 132.83328 307.584 
L 140.928 307.584 
" clip-path="url(#p16664434ad)" style="fill: #b60000"/>
   </g>
   <g id="matplotlib.axis_1">
    <g id="xtick_1">
     <g id="line2d_1">
      <defs>
       <path id="m4da7b1fbb7" d="M 0 0 
L 0 3.5 
" style="stroke: #000000; stroke-width: 0.8"/>
      </defs>
      <g>
       <use xlink:href="#m4da7b1fbb7" x="57.6" y="307.584" style="stroke: #000000; stroke-width: 0.8"/>
      </g>
     </g>
     <g id="text_1">
      <!-- 0.0 -->
      <g transform="translate(51.26875 321.385562) scale(0.1 -0.1)">
       <defs>
        <path id="Calibri-30" d="M 3022 2031 
Q 3022 1566 2948 1181 
Q 2875 797 2704 520 
Q 2534 244 2259 92 
Q 1984 -59 1581 -59 
Q 1200 -59 939 77 
Q 678 213 518 477 
Q 359 741 292 1127 
Q 225 1513 225 2013 
Q 225 2475 300 2861 
Q 375 3247 544 3523 
Q 713 3800 988 3951 
Q 1263 4103 1663 4103 
Q 2047 4103 2308 3967 
Q 2569 3831 2728 3567 
Q 2888 3303 2955 2917 
Q 3022 2531 3022 2031 
z
M 2472 1994 
Q 2472 2297 2450 2537 
Q 2428 2778 2386 2962 
Q 2344 3147 2276 3280 
Q 2209 3413 2115 3498 
Q 2022 3584 1901 3623 
Q 1781 3663 1631 3663 
Q 1366 3663 1200 3538 
Q 1034 3413 939 3194 
Q 844 2975 809 2681 
Q 775 2388 775 2050 
Q 775 1597 822 1280 
Q 869 963 970 763 
Q 1072 563 1230 472 
Q 1388 381 1613 381 
Q 1788 381 1920 437 
Q 2053 494 2148 598 
Q 2244 703 2306 850 
Q 2369 997 2406 1175 
Q 2444 1353 2458 1561 
Q 2472 1769 2472 1994 
z
" transform="scale(0.015625)"/>
        <path id="Calibri-2e" d="M 1144 341 
Q 1144 119 1070 45 
Q 997 -28 803 -28 
Q 616 -28 544 44 
Q 472 116 472 331 
Q 472 553 545 626 
Q 619 700 813 700 
Q 1000 700 1072 628 
Q 1144 556 1144 341 
z
" transform="scale(0.015625)"/>
       </defs>
       <use xlink:href="#Calibri-30"/>
       <use xlink:href="#Calibri-2e" x="50.683594"/>
       <use xlink:href="#Calibri-30" x="75.927734"/>
      </g>
     </g>
    </g>
    <g id="xtick_2">
     <g id="line2d_2">
      <g>
       <use xlink:href="#m4da7b1fbb7" x="86.1696" y="307.584" style="stroke: #000000; stroke-width: 0.8"/>
      </g>
     </g>
     <g id="text_2">
      <!-- 0.1 -->
      <g transform="translate(79.83835 321.385562) scale(0.1 -0.1)">
       <defs>
        <path id="Calibri-31" d="M 2897 213 
Q 2897 153 2887 112 
Q 2878 72 2862 47 
Q 2847 22 2826 11 
Q 2806 0 2784 0 
L 672 0 
Q 650 0 631 11 
Q 613 22 595 47 
Q 578 72 568 112 
Q 559 153 559 213 
Q 559 269 568 309 
Q 578 350 592 376 
Q 606 403 626 417 
Q 647 431 672 431 
L 1516 431 
L 1516 3506 
L 734 3041 
Q 675 3009 639 3003 
Q 603 2997 581 3017 
Q 559 3038 551 3084 
Q 544 3131 544 3203 
Q 544 3256 548 3293 
Q 553 3331 562 3356 
Q 572 3381 589 3400 
Q 606 3419 634 3438 
L 1566 4034 
Q 1578 4044 1597 4050 
Q 1616 4056 1644 4062 
Q 1672 4069 1709 4070 
Q 1747 4072 1803 4072 
Q 1878 4072 1928 4065 
Q 1978 4059 2006 4048 
Q 2034 4038 2043 4020 
Q 2053 4003 2053 3984 
L 2053 431 
L 2784 431 
Q 2809 431 2831 417 
Q 2853 403 2867 376 
Q 2881 350 2889 309 
Q 2897 269 2897 213 
z
" transform="scale(0.015625)"/>
       </defs>
       <use xlink:href="#Calibri-30"/>
       <use xlink:href="#Calibri-2e" x="50.683594"/>
       <use xlink:href="#Calibri-31" x="75.927734"/>
      </g>
     </g>
    </g>
    <g id="xtick_3">
     <g id="line2d_3">
      <g>
       <use xlink:href="#m4da7b1fbb7" x="114.7392" y="307.584" style="stroke: #000000; stroke-width: 0.8"/>
      </g>
     </g>
     <g id="text_3">
      <!-- 0.2 -->
      <g transform="translate(108.40795 321.385562) scale(0.1 -0.1)">
       <defs>
        <path id="Calibri-32" d="M 2888 231 
Q 2888 175 2880 131 
Q 2872 88 2858 58 
Q 2844 28 2820 14 
Q 2797 0 2769 0 
L 534 0 
Q 491 0 458 11 
Q 425 22 401 47 
Q 378 72 367 119 
Q 356 166 356 234 
Q 356 297 361 344 
Q 366 391 381 427 
Q 397 463 420 498 
Q 444 534 481 575 
L 1266 1406 
Q 1538 1694 1702 1922 
Q 1866 2150 1955 2337 
Q 2044 2525 2072 2678 
Q 2100 2831 2100 2966 
Q 2100 3100 2056 3220 
Q 2013 3341 1930 3431 
Q 1847 3522 1722 3575 
Q 1597 3628 1434 3628 
Q 1244 3628 1092 3575 
Q 941 3522 827 3459 
Q 713 3397 636 3344 
Q 559 3291 522 3291 
Q 500 3291 483 3303 
Q 466 3316 455 3344 
Q 444 3372 437 3419 
Q 431 3466 431 3531 
Q 431 3578 434 3612 
Q 438 3647 445 3672 
Q 453 3697 465 3719 
Q 478 3741 515 3773 
Q 553 3806 645 3862 
Q 738 3919 877 3973 
Q 1016 4028 1183 4065 
Q 1350 4103 1534 4103 
Q 1828 4103 2048 4020 
Q 2269 3938 2414 3794 
Q 2559 3650 2631 3459 
Q 2703 3269 2703 3053 
Q 2703 2859 2668 2667 
Q 2634 2475 2523 2251 
Q 2413 2028 2203 1754 
Q 1994 1481 1647 1125 
L 1006 456 
L 2766 456 
Q 2791 456 2814 442 
Q 2838 428 2855 400 
Q 2872 372 2880 330 
Q 2888 288 2888 231 
z
" transform="scale(0.015625)"/>
       </defs>
       <use xlink:href="#Calibri-30"/>
       <use xlink:href="#Calibri-2e" x="50.683594"/>
       <use xlink:href="#Calibri-32" x="75.927734"/>
      </g>
     </g>
    </g>
    <g id="xtick_4">
     <g id="line2d_4">
      <g>
       <use xlink:href="#m4da7b1fbb7" x="143.3088" y="307.584" style="stroke: #000000; stroke-width: 0.8"/>
      </g>
     </g>
     <g id="text_4">
      <!-- 0.3 -->
      <g transform="translate(136.97755 321.385562) scale(0.1 -0.1)">
       <defs>
        <path id="Calibri-33" d="M 2856 1156 
Q 2856 878 2759 654 
Q 2663 431 2481 272 
Q 2300 113 2034 27 
Q 1769 -59 1434 -59 
Q 1231 -59 1054 -26 
Q 878 6 740 51 
Q 603 97 512 145 
Q 422 194 398 216 
Q 375 238 362 259 
Q 350 281 340 312 
Q 331 344 326 389 
Q 322 434 322 500 
Q 322 613 344 656 
Q 366 700 406 700 
Q 434 700 517 650 
Q 600 600 729 542 
Q 859 484 1032 434 
Q 1206 384 1419 384 
Q 1625 384 1781 437 
Q 1938 491 2044 587 
Q 2150 684 2203 817 
Q 2256 950 2256 1106 
Q 2256 1278 2189 1415 
Q 2122 1553 1992 1653 
Q 1863 1753 1673 1806 
Q 1484 1859 1244 1859 
L 859 1859 
Q 834 1859 811 1870 
Q 788 1881 770 1906 
Q 753 1931 742 1972 
Q 731 2013 731 2078 
Q 731 2138 740 2177 
Q 750 2216 767 2239 
Q 784 2263 806 2273 
Q 828 2284 856 2284 
L 1209 2284 
Q 1416 2284 1580 2337 
Q 1744 2391 1858 2491 
Q 1972 2591 2033 2730 
Q 2094 2869 2094 3041 
Q 2094 3166 2053 3280 
Q 2013 3394 1931 3478 
Q 1850 3563 1723 3611 
Q 1597 3659 1431 3659 
Q 1250 3659 1098 3604 
Q 947 3550 828 3487 
Q 709 3425 631 3370 
Q 553 3316 522 3316 
Q 500 3316 483 3323 
Q 466 3331 455 3354 
Q 444 3378 439 3420 
Q 434 3463 434 3531 
Q 434 3578 437 3614 
Q 441 3650 450 3676 
Q 459 3703 471 3725 
Q 484 3747 514 3776 
Q 544 3806 634 3862 
Q 725 3919 858 3973 
Q 991 4028 1164 4065 
Q 1338 4103 1538 4103 
Q 1819 4103 2031 4031 
Q 2244 3959 2386 3828 
Q 2528 3697 2598 3514 
Q 2669 3331 2669 3109 
Q 2669 2919 2619 2755 
Q 2569 2591 2472 2464 
Q 2375 2338 2234 2248 
Q 2094 2159 1909 2125 
L 1909 2119 
Q 2119 2097 2292 2014 
Q 2466 1931 2591 1806 
Q 2716 1681 2786 1514 
Q 2856 1347 2856 1156 
z
" transform="scale(0.015625)"/>
       </defs>
       <use xlink:href="#Calibri-30"/>
       <use xlink:href="#Calibri-2e" x="50.683594"/>
       <use xlink:href="#Calibri-33" x="75.927734"/>
      </g>
     </g>
    </g>
    <g id="xtick_5">
     <g id="line2d_5">
      <g>
       <use xlink:href="#m4da7b1fbb7" x="171.8784" y="307.584" style="stroke: #000000; stroke-width: 0.8"/>
      </g>
     </g>
     <g id="text_5">
      <!-- 0.4 -->
      <g transform="translate(165.54715 321.385562) scale(0.1 -0.1)">
       <defs>
        <path id="Calibri-34" d="M 3059 1150 
Q 3059 1047 3028 987 
Q 2997 928 2941 928 
L 2484 928 
L 2484 78 
Q 2484 53 2471 36 
Q 2459 19 2428 6 
Q 2397 -6 2347 -12 
Q 2297 -19 2219 -19 
Q 2144 -19 2094 -12 
Q 2044 -6 2014 6 
Q 1984 19 1973 36 
Q 1963 53 1963 78 
L 1963 928 
L 294 928 
Q 256 928 231 937 
Q 206 947 186 972 
Q 166 997 158 1044 
Q 150 1091 150 1166 
Q 150 1225 153 1272 
Q 156 1319 165 1358 
Q 175 1397 190 1433 
Q 206 1469 228 1509 
L 1684 3966 
Q 1700 3991 1729 4009 
Q 1759 4028 1806 4040 
Q 1853 4053 1922 4058 
Q 1991 4063 2084 4063 
Q 2188 4063 2264 4055 
Q 2341 4047 2387 4034 
Q 2434 4022 2459 4001 
Q 2484 3981 2484 3953 
L 2484 1372 
L 2941 1372 
Q 2994 1372 3026 1317 
Q 3059 1263 3059 1150 
z
M 1963 3591 
L 1956 3591 
L 641 1372 
L 1963 1372 
L 1963 3591 
z
" transform="scale(0.015625)"/>
       </defs>
       <use xlink:href="#Calibri-30"/>
       <use xlink:href="#Calibri-2e" x="50.683594"/>
       <use xlink:href="#Calibri-34" x="75.927734"/>
      </g>
     </g>
    </g>
    <g id="xtick_6">
     <g id="line2d_6">
      <g>
       <use xlink:href="#m4da7b1fbb7" x="200.448" y="307.584" style="stroke: #000000; stroke-width: 0.8"/>
      </g>
     </g>
     <g id="text_6">
      <!-- 0.5 -->
      <g transform="translate(194.11675 321.385562) scale(0.1 -0.1)">
       <defs>
        <path id="Calibri-35" d="M 2869 1300 
Q 2869 975 2759 722 
Q 2650 469 2450 295 
Q 2250 122 1973 31 
Q 1697 -59 1359 -59 
Q 1172 -59 1003 -32 
Q 834 -6 703 33 
Q 572 72 487 109 
Q 403 147 379 169 
Q 356 191 347 209 
Q 338 228 330 254 
Q 322 281 319 322 
Q 316 363 316 419 
Q 316 472 320 514 
Q 325 556 337 582 
Q 350 609 367 621 
Q 384 634 406 634 
Q 438 634 503 595 
Q 569 556 680 511 
Q 791 466 955 425 
Q 1119 384 1344 384 
Q 1553 384 1728 434 
Q 1903 484 2029 590 
Q 2156 697 2228 858 
Q 2300 1019 2300 1250 
Q 2300 1444 2239 1592 
Q 2178 1741 2051 1839 
Q 1925 1938 1731 1986 
Q 1538 2034 1269 2034 
Q 1078 2034 940 2015 
Q 803 1997 684 1997 
Q 597 1997 559 2037 
Q 522 2078 522 2194 
L 522 3841 
Q 522 3944 570 3994 
Q 619 4044 709 4044 
L 2500 4044 
Q 2525 4044 2548 4030 
Q 2572 4016 2587 3987 
Q 2603 3959 2611 3915 
Q 2619 3872 2619 3813 
Q 2619 3700 2587 3637 
Q 2556 3575 2500 3575 
L 991 3575 
L 991 2441 
Q 1100 2456 1214 2459 
Q 1328 2463 1478 2463 
Q 1825 2463 2084 2380 
Q 2344 2297 2517 2145 
Q 2691 1994 2780 1778 
Q 2869 1563 2869 1300 
z
" transform="scale(0.015625)"/>
       </defs>
       <use xlink:href="#Calibri-30"/>
       <use xlink:href="#Calibri-2e" x="50.683594"/>
       <use xlink:href="#Calibri-35" x="75.927734"/>
      </g>
     </g>
    </g>
    <g id="xtick_7">
     <g id="line2d_7">
      <g>
       <use xlink:href="#m4da7b1fbb7" x="229.0176" y="307.584" style="stroke: #000000; stroke-width: 0.8"/>
      </g>
     </g>
     <g id="text_7">
      <!-- 0.6 -->
      <g transform="translate(222.68635 321.385562) scale(0.1 -0.1)">
       <defs>
        <path id="Calibri-36" d="M 2991 1309 
Q 2991 1044 2909 795 
Q 2828 547 2659 358 
Q 2491 169 2231 55 
Q 1972 -59 1619 -59 
Q 1366 -59 1172 3 
Q 978 66 834 181 
Q 691 297 595 465 
Q 500 634 442 850 
Q 384 1066 359 1322 
Q 334 1578 334 1872 
Q 334 2131 362 2397 
Q 391 2663 462 2909 
Q 534 3156 657 3373 
Q 781 3591 967 3752 
Q 1153 3913 1412 4006 
Q 1672 4100 2016 4100 
Q 2131 4100 2250 4086 
Q 2369 4072 2469 4048 
Q 2569 4025 2637 3997 
Q 2706 3969 2728 3951 
Q 2750 3934 2761 3914 
Q 2772 3894 2778 3870 
Q 2784 3847 2787 3817 
Q 2791 3788 2791 3744 
Q 2791 3688 2789 3647 
Q 2788 3606 2777 3581 
Q 2766 3556 2748 3543 
Q 2731 3531 2703 3531 
Q 2669 3531 2609 3553 
Q 2550 3575 2465 3601 
Q 2381 3628 2261 3650 
Q 2141 3672 1981 3672 
Q 1691 3672 1481 3553 
Q 1272 3434 1139 3234 
Q 1006 3034 942 2770 
Q 878 2506 869 2219 
Q 950 2266 1051 2312 
Q 1153 2359 1273 2396 
Q 1394 2434 1528 2457 
Q 1663 2481 1816 2481 
Q 2144 2481 2369 2392 
Q 2594 2303 2733 2145 
Q 2872 1988 2931 1773 
Q 2991 1559 2991 1309 
z
M 2447 1259 
Q 2447 1441 2411 1589 
Q 2375 1738 2290 1841 
Q 2206 1944 2065 2000 
Q 1925 2056 1719 2056 
Q 1603 2056 1487 2036 
Q 1372 2016 1264 1980 
Q 1156 1944 1057 1895 
Q 959 1847 878 1791 
Q 878 1388 929 1116 
Q 981 844 1079 680 
Q 1178 516 1325 445 
Q 1472 375 1669 375 
Q 1869 375 2016 450 
Q 2163 525 2259 651 
Q 2356 778 2401 936 
Q 2447 1094 2447 1259 
z
" transform="scale(0.015625)"/>
       </defs>
       <use xlink:href="#Calibri-30"/>
       <use xlink:href="#Calibri-2e" x="50.683594"/>
       <use xlink:href="#Calibri-36" x="75.927734"/>
      </g>
     </g>
    </g>
    <g id="xtick_8">
     <g id="line2d_8">
      <g>
       <use xlink:href="#m4da7b1fbb7" x="257.5872" y="307.584" style="stroke: #000000; stroke-width: 0.8"/>
      </g>
     </g>
     <g id="text_8">
      <!-- 0.7 -->
      <g transform="translate(251.25595 321.385562) scale(0.1 -0.1)">
       <defs>
        <path id="Calibri-37" d="M 2947 3813 
Q 2947 3756 2942 3711 
Q 2938 3666 2930 3623 
Q 2922 3581 2908 3542 
Q 2894 3503 2875 3459 
L 1419 103 
Q 1403 66 1379 42 
Q 1356 19 1320 5 
Q 1284 -9 1228 -14 
Q 1172 -19 1091 -19 
Q 984 -19 925 -9 
Q 866 0 839 20 
Q 813 41 816 70 
Q 819 100 838 141 
L 2369 3572 
L 428 3572 
Q 369 3572 339 3634 
Q 309 3697 309 3809 
Q 309 3869 317 3912 
Q 325 3956 340 3986 
Q 356 4016 378 4030 
Q 400 4044 428 4044 
L 2784 4044 
Q 2828 4044 2861 4034 
Q 2894 4025 2911 3997 
Q 2928 3969 2937 3925 
Q 2947 3881 2947 3813 
z
" transform="scale(0.015625)"/>
       </defs>
       <use xlink:href="#Calibri-30"/>
       <use xlink:href="#Calibri-2e" x="50.683594"/>
       <use xlink:href="#Calibri-37" x="75.927734"/>
      </g>
     </g>
    </g>
    <g id="xtick_9">
     <g id="line2d_9">
      <g>
       <use xlink:href="#m4da7b1fbb7" x="286.1568" y="307.584" style="stroke: #000000; stroke-width: 0.8"/>
      </g>
     </g>
     <g id="text_9">
      <!-- 0.8 -->
      <g transform="translate(279.82555 321.385562) scale(0.1 -0.1)">
       <defs>
        <path id="Calibri-38" d="M 2981 1038 
Q 2981 775 2887 570 
Q 2794 366 2617 225 
Q 2441 84 2181 12 
Q 1922 -59 1588 -59 
Q 1275 -59 1028 6 
Q 781 72 609 200 
Q 438 328 347 515 
Q 256 703 256 944 
Q 256 1134 318 1293 
Q 381 1453 498 1587 
Q 616 1722 787 1839 
Q 959 1956 1175 2063 
Q 988 2159 844 2267 
Q 700 2375 600 2501 
Q 500 2628 448 2772 
Q 397 2916 397 3084 
Q 397 3297 473 3483 
Q 550 3669 704 3806 
Q 859 3944 1098 4023 
Q 1338 4103 1656 4103 
Q 1963 4103 2186 4029 
Q 2409 3956 2554 3829 
Q 2700 3703 2769 3531 
Q 2838 3359 2838 3163 
Q 2838 3003 2786 2856 
Q 2734 2709 2634 2578 
Q 2534 2447 2389 2333 
Q 2244 2219 2056 2119 
Q 2278 2009 2451 1893 
Q 2625 1778 2742 1645 
Q 2859 1513 2920 1364 
Q 2981 1216 2981 1038 
z
M 2306 3113 
Q 2306 3244 2261 3350 
Q 2216 3456 2128 3531 
Q 2041 3606 1911 3645 
Q 1781 3684 1616 3684 
Q 1278 3684 1104 3531 
Q 931 3378 931 3113 
Q 931 2991 973 2886 
Q 1016 2781 1105 2687 
Q 1194 2594 1330 2505 
Q 1466 2416 1653 2319 
Q 1969 2481 2137 2678 
Q 2306 2875 2306 3113 
z
M 2438 981 
Q 2438 1125 2384 1242 
Q 2331 1359 2223 1461 
Q 2116 1563 1955 1658 
Q 1794 1753 1581 1856 
Q 1384 1759 1236 1662 
Q 1088 1566 992 1462 
Q 897 1359 848 1245 
Q 800 1131 800 994 
Q 800 691 1008 525 
Q 1216 359 1628 359 
Q 2028 359 2233 526 
Q 2438 694 2438 981 
z
" transform="scale(0.015625)"/>
       </defs>
       <use xlink:href="#Calibri-30"/>
       <use xlink:href="#Calibri-2e" x="50.683594"/>
       <use xlink:href="#Calibri-38" x="75.927734"/>
      </g>
     </g>
    </g>
    <g id="xtick_10">
     <g id="line2d_10">
      <g>
       <use xlink:href="#m4da7b1fbb7" x="314.7264" y="307.584" style="stroke: #000000; stroke-width: 0.8"/>
      </g>
     </g>
     <g id="text_10">
      <!-- 0.9 -->
      <g transform="translate(308.39515 321.385562) scale(0.1 -0.1)">
       <defs>
        <path id="Calibri-39" d="M 2919 2181 
Q 2919 1919 2887 1650 
Q 2856 1381 2781 1132 
Q 2706 884 2579 667 
Q 2453 450 2261 287 
Q 2069 125 1805 33 
Q 1541 -59 1191 -59 
Q 1056 -59 929 -42 
Q 803 -25 701 0 
Q 600 25 531 53 
Q 463 81 431 109 
Q 400 138 386 186 
Q 372 234 372 316 
Q 372 384 376 425 
Q 381 466 390 487 
Q 400 509 417 517 
Q 434 525 459 525 
Q 494 525 556 501 
Q 619 478 714 450 
Q 809 422 937 398 
Q 1066 375 1225 375 
Q 1528 375 1745 492 
Q 1963 609 2100 806 
Q 2238 1003 2306 1262 
Q 2375 1522 2381 1809 
Q 2216 1713 1984 1638 
Q 1753 1563 1453 1563 
Q 1116 1563 886 1655 
Q 656 1747 517 1906 
Q 378 2066 317 2284 
Q 256 2503 256 2763 
Q 256 3031 334 3273 
Q 413 3516 578 3700 
Q 744 3884 1000 3993 
Q 1256 4103 1613 4103 
Q 1866 4103 2061 4039 
Q 2256 3975 2400 3854 
Q 2544 3734 2644 3564 
Q 2744 3394 2805 3178 
Q 2866 2963 2892 2711 
Q 2919 2459 2919 2181 
z
M 2372 2241 
Q 2372 2641 2319 2914 
Q 2266 3188 2162 3356 
Q 2059 3525 1909 3600 
Q 1759 3675 1563 3675 
Q 1359 3675 1215 3601 
Q 1072 3528 980 3404 
Q 888 3281 844 3125 
Q 800 2969 800 2803 
Q 800 2619 839 2466 
Q 878 2313 965 2206 
Q 1053 2100 1193 2042 
Q 1334 1984 1541 1984 
Q 1775 1984 1994 2054 
Q 2213 2125 2372 2241 
z
" transform="scale(0.015625)"/>
       </defs>
       <use xlink:href="#Calibri-30"/>
       <use xlink:href="#Calibri-2e" x="50.683594"/>
       <use xlink:href="#Calibri-39" x="75.927734"/>
      </g>
     </g>
    </g>
    <g id="xtick_11">
     <g id="line2d_11">
      <g>
       <use xlink:href="#m4da7b1fbb7" x="343.296" y="307.584" style="stroke: #000000; stroke-width: 0.8"/>
      </g>
     </g>
     <g id="text_11">
      <!-- 1.0 -->
      <g transform="translate(336.96475 321.385562) scale(0.1 -0.1)">
       <use xlink:href="#Calibri-31"/>
       <use xlink:href="#Calibri-2e" x="50.683594"/>
       <use xlink:href="#Calibri-30" x="75.927734"/>
      </g>
     </g>
    </g>
    <g id="text_12">
     <!-- $\mathit{p}$ (cm$^2$/cm$^2$) -->
     <g transform="translate(174.148 336.263687) scale(0.1 -0.1)">
      <defs>
       <path id="DejaVuSans-Oblique-70" d="M 3175 2156 
Q 3175 2616 2975 2859 
Q 2775 3103 2400 3103 
Q 2144 3103 1911 2972 
Q 1678 2841 1497 2591 
Q 1319 2344 1212 1994 
Q 1106 1644 1106 1300 
Q 1106 863 1306 627 
Q 1506 391 1875 391 
Q 2147 391 2380 519 
Q 2613 647 2778 891 
Q 2956 1147 3065 1494 
Q 3175 1841 3175 2156 
z
M 1394 2969 
Q 1625 3272 1939 3428 
Q 2253 3584 2638 3584 
Q 3175 3584 3472 3232 
Q 3769 2881 3769 2247 
Q 3769 1728 3584 1258 
Q 3400 788 3053 416 
Q 2822 169 2531 39 
Q 2241 -91 1919 -91 
Q 1547 -91 1294 64 
Q 1041 219 916 525 
L 556 -1331 
L -19 -1331 
L 922 3500 
L 1497 3500 
L 1394 2969 
z
" transform="scale(0.015625)"/>
       <path id="Calibri-20" transform="scale(0.015625)"/>
       <path id="Calibri-28" d="M 1547 4306 
Q 1250 3678 1104 3017 
Q 959 2356 959 1688 
Q 959 1016 1107 356 
Q 1256 -303 1541 -938 
Q 1556 -975 1557 -1001 
Q 1559 -1028 1537 -1045 
Q 1516 -1063 1470 -1070 
Q 1425 -1078 1347 -1078 
Q 1291 -1078 1250 -1075 
Q 1209 -1072 1179 -1062 
Q 1150 -1053 1131 -1040 
Q 1113 -1028 1103 -1013 
Q 934 -694 806 -367 
Q 678 -41 590 296 
Q 503 634 459 979 
Q 416 1325 416 1678 
Q 416 2031 464 2375 
Q 513 2719 602 3058 
Q 691 3397 819 3725 
Q 947 4053 1106 4375 
Q 1109 4388 1123 4397 
Q 1138 4406 1163 4415 
Q 1188 4425 1231 4429 
Q 1275 4434 1344 4434 
Q 1416 4434 1459 4425 
Q 1503 4416 1528 4400 
Q 1553 4384 1556 4359 
Q 1559 4334 1547 4306 
z
" transform="scale(0.015625)"/>
       <path id="Calibri-63" d="M 2500 506 
Q 2500 453 2497 414 
Q 2494 375 2486 348 
Q 2478 322 2467 301 
Q 2456 281 2417 242 
Q 2378 203 2284 145 
Q 2191 88 2073 42 
Q 1956 -3 1818 -31 
Q 1681 -59 1534 -59 
Q 1231 -59 997 41 
Q 763 141 605 333 
Q 447 525 364 804 
Q 281 1084 281 1450 
Q 281 1866 382 2164 
Q 484 2463 661 2653 
Q 838 2844 1077 2936 
Q 1316 3028 1594 3028 
Q 1728 3028 1854 3003 
Q 1981 2978 2087 2937 
Q 2194 2897 2276 2844 
Q 2359 2791 2396 2753 
Q 2434 2716 2448 2694 
Q 2463 2672 2472 2642 
Q 2481 2613 2484 2575 
Q 2488 2538 2488 2481 
Q 2488 2359 2459 2311 
Q 2431 2263 2391 2263 
Q 2344 2263 2283 2314 
Q 2222 2366 2128 2428 
Q 2034 2491 1901 2542 
Q 1769 2594 1588 2594 
Q 1216 2594 1017 2308 
Q 819 2022 819 1478 
Q 819 1206 870 1001 
Q 922 797 1022 659 
Q 1122 522 1267 455 
Q 1413 388 1600 388 
Q 1778 388 1912 444 
Q 2047 500 2145 567 
Q 2244 634 2311 689 
Q 2378 744 2416 744 
Q 2438 744 2453 731 
Q 2469 719 2480 689 
Q 2491 659 2495 614 
Q 2500 569 2500 506 
z
" transform="scale(0.015625)"/>
       <path id="Calibri-6d" d="M 4650 78 
Q 4650 53 4637 36 
Q 4625 19 4597 6 
Q 4569 -6 4519 -12 
Q 4469 -19 4394 -19 
Q 4316 -19 4266 -12 
Q 4216 -6 4186 6 
Q 4156 19 4143 36 
Q 4131 53 4131 78 
L 4131 1788 
Q 4131 1966 4100 2112 
Q 4069 2259 4000 2365 
Q 3931 2472 3825 2528 
Q 3719 2584 3575 2584 
Q 3397 2584 3217 2446 
Q 3038 2309 2822 2044 
L 2822 78 
Q 2822 53 2809 36 
Q 2797 19 2767 6 
Q 2738 -6 2688 -12 
Q 2638 -19 2563 -19 
Q 2491 -19 2439 -12 
Q 2388 -6 2358 6 
Q 2328 19 2317 36 
Q 2306 53 2306 78 
L 2306 1788 
Q 2306 1966 2272 2112 
Q 2238 2259 2169 2365 
Q 2100 2472 1995 2528 
Q 1891 2584 1747 2584 
Q 1569 2584 1387 2446 
Q 1206 2309 994 2044 
L 994 78 
Q 994 53 981 36 
Q 969 19 941 6 
Q 913 -6 863 -12 
Q 813 -19 734 -19 
Q 659 -19 609 -12 
Q 559 -6 529 6 
Q 500 19 489 36 
Q 478 53 478 78 
L 478 2891 
Q 478 2916 487 2933 
Q 497 2950 525 2964 
Q 553 2978 597 2983 
Q 641 2988 713 2988 
Q 781 2988 826 2983 
Q 872 2978 897 2964 
Q 922 2950 933 2933 
Q 944 2916 944 2891 
L 944 2519 
Q 1181 2784 1404 2907 
Q 1628 3031 1856 3031 
Q 2031 3031 2170 2990 
Q 2309 2950 2415 2876 
Q 2522 2803 2597 2701 
Q 2672 2600 2722 2475 
Q 2863 2628 2989 2734 
Q 3116 2841 3233 2906 
Q 3350 2972 3461 3001 
Q 3572 3031 3684 3031 
Q 3956 3031 4140 2936 
Q 4325 2841 4439 2681 
Q 4553 2522 4601 2308 
Q 4650 2094 4650 1856 
L 4650 78 
z
" transform="scale(0.015625)"/>
       <path id="DejaVuSans-32" d="M 1228 531 
L 3431 531 
L 3431 0 
L 469 0 
L 469 531 
Q 828 903 1448 1529 
Q 2069 2156 2228 2338 
Q 2531 2678 2651 2914 
Q 2772 3150 2772 3378 
Q 2772 3750 2511 3984 
Q 2250 4219 1831 4219 
Q 1534 4219 1204 4116 
Q 875 4013 500 3803 
L 500 4441 
Q 881 4594 1212 4672 
Q 1544 4750 1819 4750 
Q 2544 4750 2975 4387 
Q 3406 4025 3406 3419 
Q 3406 3131 3298 2873 
Q 3191 2616 2906 2266 
Q 2828 2175 2409 1742 
Q 1991 1309 1228 531 
z
" transform="scale(0.015625)"/>
       <path id="Calibri-2f" d="M 525 -753 
Q 513 -794 492 -817 
Q 472 -841 440 -853 
Q 409 -866 364 -872 
Q 319 -878 253 -878 
Q 175 -878 123 -867 
Q 72 -856 44 -836 
Q 16 -816 9 -786 
Q 3 -756 22 -716 
L 1913 4469 
Q 1925 4509 1945 4532 
Q 1966 4556 1995 4570 
Q 2025 4584 2072 4589 
Q 2119 4594 2184 4594 
Q 2263 4594 2313 4583 
Q 2363 4572 2391 4553 
Q 2419 4534 2425 4503 
Q 2431 4472 2416 4431 
L 525 -753 
z
" transform="scale(0.015625)"/>
       <path id="Calibri-29" d="M 1522 1678 
Q 1522 1325 1478 979 
Q 1434 634 1346 296 
Q 1259 -41 1132 -367 
Q 1006 -694 838 -1013 
Q 828 -1028 809 -1040 
Q 791 -1053 761 -1062 
Q 731 -1072 690 -1075 
Q 650 -1078 594 -1078 
Q 513 -1078 467 -1070 
Q 422 -1063 401 -1045 
Q 381 -1028 382 -1001 
Q 384 -975 400 -938 
Q 688 -306 834 355 
Q 981 1016 981 1688 
Q 981 2356 834 3017 
Q 688 3678 394 4306 
Q 381 4334 384 4359 
Q 388 4384 413 4400 
Q 438 4416 481 4425 
Q 525 4434 597 4434 
Q 663 4434 706 4429 
Q 750 4425 776 4415 
Q 803 4406 815 4397 
Q 828 4388 834 4375 
Q 1156 3734 1339 3057 
Q 1522 2381 1522 1678 
z
" transform="scale(0.015625)"/>
      </defs>
      <use xlink:href="#DejaVuSans-Oblique-70" transform="translate(0 0.765625)"/>
      <use xlink:href="#Calibri-20" transform="translate(63.476562 0.765625)"/>
      <use xlink:href="#Calibri-28" transform="translate(84.958984 0.765625)"/>
      <use xlink:href="#Calibri-63" transform="translate(115.28125 0.765625)"/>
      <use xlink:href="#Calibri-6d" transform="translate(157.566406 0.765625)"/>
      <use xlink:href="#DejaVuSans-32" transform="translate(238.40625 39.046875) scale(0.7)"/>
      <use xlink:href="#Calibri-2f" transform="translate(285.676758 0.765625)"/>
      <use xlink:href="#Calibri-63" transform="translate(324.299805 0.765625)"/>
      <use xlink:href="#Calibri-6d" transform="translate(366.584961 0.765625)"/>
      <use xlink:href="#DejaVuSans-32" transform="translate(447.424805 39.046875) scale(0.7)"/>
      <use xlink:href="#Calibri-29" transform="translate(494.695312 0.765625)"/>
     </g>
    </g>
   </g>
   <g id="matplotlib.axis_2">
    <g id="ytick_1">
     <g id="line2d_12">
      <defs>
       <path id="m4e3c7d3105" d="M 0 0 
L -3.5 0 
" style="stroke: #000000; stroke-width: 0.8"/>
      </defs>
      <g>
       <use xlink:href="#m4e3c7d3105" x="57.6" y="275.65056" style="stroke: #000000; stroke-width: 0.8"/>
      </g>
     </g>
     <g id="text_13">
      <!-- 25 -->
      <g transform="translate(40.4625 279.051341) scale(0.1 -0.1)">
       <use xlink:href="#Calibri-32"/>
       <use xlink:href="#Calibri-35" x="50.683594"/>
      </g>
     </g>
    </g>
    <g id="ytick_2">
     <g id="line2d_13">
      <g>
       <use xlink:href="#m4e3c7d3105" x="57.6" y="242.38656" style="stroke: #000000; stroke-width: 0.8"/>
      </g>
     </g>
     <g id="text_14">
      <!-- 50 -->
      <g transform="translate(40.4625 245.787341) scale(0.1 -0.1)">
       <use xlink:href="#Calibri-35"/>
       <use xlink:href="#Calibri-30" x="50.683594"/>
      </g>
     </g>
    </g>
    <g id="ytick_3">
     <g id="line2d_14">
      <g>
       <use xlink:href="#m4e3c7d3105" x="57.6" y="209.12256" style="stroke: #000000; stroke-width: 0.8"/>
      </g>
     </g>
     <g id="text_15">
      <!-- 75 -->
      <g transform="translate(40.4625 212.523341) scale(0.1 -0.1)">
       <use xlink:href="#Calibri-37"/>
       <use xlink:href="#Calibri-35" x="50.683594"/>
      </g>
     </g>
    </g>
    <g id="ytick_4">
     <g id="line2d_15">
      <g>
       <use xlink:href="#m4e3c7d3105" x="57.6" y="175.85856" style="stroke: #000000; stroke-width: 0.8"/>
      </g>
     </g>
     <g id="text_16">
      <!-- 100 -->
      <g transform="translate(35.39375 179.259341) scale(0.1 -0.1)">
       <use xlink:href="#Calibri-31"/>
       <use xlink:href="#Calibri-30" x="50.683594"/>
       <use xlink:href="#Calibri-30" x="101.367188"/>
      </g>
     </g>
    </g>
    <g id="ytick_5">
     <g id="line2d_16">
      <g>
       <use xlink:href="#m4e3c7d3105" x="57.6" y="142.59456" style="stroke: #000000; stroke-width: 0.8"/>
      </g>
     </g>
     <g id="text_17">
      <!-- 125 -->
      <g transform="translate(35.39375 145.995341) scale(0.1 -0.1)">
       <use xlink:href="#Calibri-31"/>
       <use xlink:href="#Calibri-32" x="50.683594"/>
       <use xlink:href="#Calibri-35" x="101.367188"/>
      </g>
     </g>
    </g>
    <g id="ytick_6">
     <g id="line2d_17">
      <g>
       <use xlink:href="#m4e3c7d3105" x="57.6" y="109.33056" style="stroke: #000000; stroke-width: 0.8"/>
      </g>
     </g>
     <g id="text_18">
      <!-- 150 -->
      <g transform="translate(35.39375 112.731341) scale(0.1 -0.1)">
       <use xlink:href="#Calibri-31"/>
       <use xlink:href="#Calibri-35" x="50.683594"/>
       <use xlink:href="#Calibri-30" x="101.367188"/>
      </g>
     </g>
    </g>
    <g id="ytick_7">
     <g id="line2d_18">
      <g>
       <use xlink:href="#m4e3c7d3105" x="57.6" y="76.06656" style="stroke: #000000; stroke-width: 0.8"/>
      </g>
     </g>
     <g id="text_19">
      <!-- 175 -->
      <g transform="translate(35.39375 79.467341) scale(0.1 -0.1)">
       <use xlink:href="#Calibri-31"/>
       <use xlink:href="#Calibri-37" x="50.683594"/>
       <use xlink:href="#Calibri-35" x="101.367188"/>
      </g>
     </g>
    </g>
    <g id="ytick_8">
     <g id="line2d_19">
      <g>
       <use xlink:href="#m4e3c7d3105" x="57.6" y="42.80256" style="stroke: #000000; stroke-width: 0.8"/>
      </g>
     </g>
     <g id="text_20">
      <!-- 200 -->
      <g transform="translate(35.39375 46.203341) scale(0.1 -0.1)">
       <use xlink:href="#Calibri-32"/>
       <use xlink:href="#Calibri-30" x="50.683594"/>
       <use xlink:href="#Calibri-30" x="101.367188"/>
      </g>
     </g>
    </g>
    <g id="text_21">
     <!-- $\mathit{Z}$$_{a}$ (nm) -->
     <g transform="translate(29.59375 191.028) rotate(-90) scale(0.1 -0.1)">
      <defs>
       <path id="DejaVuSans-Oblique-5a" d="M 838 4666 
L 4500 4666 
L 4409 4184 
L 794 531 
L 3769 531 
L 3669 0 
L -141 0 
L -50 481 
L 3566 4134 
L 738 4134 
L 838 4666 
z
" transform="scale(0.015625)"/>
       <path id="DejaVuSans-Oblique-61" d="M 3438 1997 
L 3047 0 
L 2472 0 
L 2578 531 
Q 2325 219 2001 64 
Q 1678 -91 1281 -91 
Q 834 -91 548 182 
Q 263 456 263 884 
Q 263 1497 752 1853 
Q 1241 2209 2100 2209 
L 2900 2209 
L 2931 2363 
Q 2938 2388 2941 2417 
Q 2944 2447 2944 2509 
Q 2944 2788 2717 2942 
Q 2491 3097 2081 3097 
Q 1800 3097 1504 3025 
Q 1209 2953 897 2809 
L 997 3341 
Q 1322 3463 1633 3523 
Q 1944 3584 2234 3584 
Q 2853 3584 3176 3315 
Q 3500 3047 3500 2534 
Q 3500 2431 3484 2292 
Q 3469 2153 3438 1997 
z
M 2816 1759 
L 2241 1759 
Q 1534 1759 1195 1570 
Q 856 1381 856 984 
Q 856 709 1029 553 
Q 1203 397 1509 397 
Q 1978 397 2328 733 
Q 2678 1069 2791 1631 
L 2816 1759 
z
" transform="scale(0.015625)"/>
       <path id="Calibri-6e" d="M 2900 78 
Q 2900 53 2887 36 
Q 2875 19 2847 6 
Q 2819 -6 2769 -12 
Q 2719 -19 2644 -19 
Q 2566 -19 2516 -12 
Q 2466 -6 2437 6 
Q 2409 19 2396 36 
Q 2384 53 2384 78 
L 2384 1725 
Q 2384 1966 2346 2112 
Q 2309 2259 2237 2365 
Q 2166 2472 2052 2528 
Q 1938 2584 1788 2584 
Q 1594 2584 1400 2446 
Q 1206 2309 994 2044 
L 994 78 
Q 994 53 981 36 
Q 969 19 941 6 
Q 913 -6 863 -12 
Q 813 -19 734 -19 
Q 659 -19 609 -12 
Q 559 -6 529 6 
Q 500 19 489 36 
Q 478 53 478 78 
L 478 2891 
Q 478 2916 487 2933 
Q 497 2950 525 2964 
Q 553 2978 597 2983 
Q 641 2988 713 2988 
Q 781 2988 826 2983 
Q 872 2978 897 2964 
Q 922 2950 933 2933 
Q 944 2916 944 2891 
L 944 2519 
Q 1181 2784 1417 2907 
Q 1653 3031 1894 3031 
Q 2175 3031 2367 2936 
Q 2559 2841 2678 2681 
Q 2797 2522 2848 2308 
Q 2900 2094 2900 1794 
L 2900 78 
z
" transform="scale(0.015625)"/>
      </defs>
      <use xlink:href="#DejaVuSans-Oblique-5a" transform="translate(0 0.09375)"/>
      <use xlink:href="#DejaVuSans-Oblique-61" transform="translate(69.462891 -16.3125) scale(0.7)"/>
      <use xlink:href="#Calibri-20" transform="translate(115.092773 0.09375)"/>
      <use xlink:href="#Calibri-28" transform="translate(136.575195 0.09375)"/>
      <use xlink:href="#Calibri-6e" transform="translate(166.897461 0.09375)"/>
      <use xlink:href="#Calibri-6d" transform="translate(219.436523 0.09375)"/>
      <use xlink:href="#Calibri-29" transform="translate(299.319336 0.09375)"/>
     </g>
    </g>
   </g>
   <g id="patch_3">
    <path d="M 57.6 307.584 
L 57.6 41.472 
" style="fill: none; stroke: #000000; stroke-width: 0.8; stroke-linejoin: miter; stroke-linecap: square"/>
   </g>
   <g id="patch_4">
    <path d="M 343.296 307.584 
L 343.296 41.472 
" style="fill: none; stroke: #000000; stroke-width: 0.8; stroke-linejoin: miter; stroke-linecap: square"/>
   </g>
   <g id="patch_5">
    <path d="M 57.6 307.584 
L 343.296 307.584 
" style="fill: none; stroke: #000000; stroke-width: 0.8; stroke-linejoin: miter; stroke-linecap: square"/>
   </g>
   <g id="patch_6">
    <path d="M 57.6 41.472 
L 343.296 41.472 
" style="fill: none; stroke: #000000; stroke-width: 0.8; stroke-linejoin: miter; stroke-linecap: square"/>
   </g>
   <g id="text_22">
    <!-- $\lambda$ = 525 nm -->
    <g transform="translate(177.348 35.472) scale(0.1 -0.1)">
     <defs>
      <path id="DejaVuSans-Oblique-3bb" d="M 2350 4316 
L 3125 0 
L 2516 0 
L 2038 2588 
L 328 0 
L -281 0 
L 1903 3356 
L 1794 3975 
Q 1725 4369 1391 4369 
L 1091 4369 
L 1184 4863 
L 1550 4856 
Q 2253 4847 2350 4316 
z
" transform="scale(0.015625)"/>
      <path id="Calibri-3d" d="M 2891 2409 
Q 2891 2284 2855 2236 
Q 2819 2188 2772 2188 
L 409 2188 
Q 363 2188 328 2236 
Q 294 2284 294 2409 
Q 294 2522 325 2575 
Q 356 2628 409 2628 
L 2772 2628 
Q 2828 2628 2859 2575 
Q 2891 2522 2891 2409 
z
M 2891 1194 
Q 2891 1069 2855 1022 
Q 2819 975 2772 975 
L 409 975 
Q 363 975 328 1022 
Q 294 1069 294 1194 
Q 294 1309 325 1362 
Q 356 1416 409 1416 
L 2772 1416 
Q 2828 1416 2859 1362 
Q 2891 1309 2891 1194 
z
" transform="scale(0.015625)"/>
     </defs>
     <use xlink:href="#DejaVuSans-Oblique-3bb" transform="translate(0 0.015625)"/>
     <use xlink:href="#Calibri-20" transform="translate(59.179688 0.015625)"/>
     <use xlink:href="#Calibri-3d" transform="translate(81.787109 0.015625)"/>
     <use xlink:href="#Calibri-20" transform="translate(131.591797 0.015625)"/>
     <use xlink:href="#Calibri-35" transform="translate(154.199219 0.015625)"/>
     <use xlink:href="#Calibri-32" transform="translate(204.882812 0.015625)"/>
     <use xlink:href="#Calibri-35" transform="translate(255.566406 0.015625)"/>
     <use xlink:href="#Calibri-20" transform="translate(306.25 0.015625)"/>
     <use xlink:href="#Calibri-6e" transform="translate(328.857422 0.015625)"/>
     <use xlink:href="#Calibri-6d" transform="translate(381.396484 0.015625)"/>
    </g>
   </g>
  </g>
  <g id="axes_2">
   <g id="patch_7">
    <path d="M 361.152 307.584 
L 374.4576 307.584 
L 374.4576 41.472 
L 361.152 41.472 
z
" style="fill: #ffffff"/>
   </g>
   <g id="QuadMesh_1">
    <path d="M 361.152 307.584 
L 374.4576 307.584 
L 374.4576 280.9728 
L 361.152 280.9728 
L 361.152 307.584 
" clip-path="url(#pe1193b8994)" style="fill: #0000b6"/>
    <path d="M 361.152 280.9728 
L 374.4576 280.9728 
L 374.4576 254.3616 
L 361.152 254.3616 
L 361.152 280.9728 
" clip-path="url(#pe1193b8994)" style="fill: #0018ff"/>
    <path d="M 361.152 254.3616 
L 374.4576 254.3616 
L 374.4576 227.7504 
L 361.152 227.7504 
L 361.152 254.3616 
" clip-path="url(#pe1193b8994)" style="fill: #0080ff"/>
    <path d="M 361.152 227.7504 
L 374.4576 227.7504 
L 374.4576 201.1392 
L 361.152 201.1392 
L 361.152 227.7504 
" clip-path="url(#pe1193b8994)" style="fill: #00e4f8"/>
    <path d="M 361.152 201.1392 
L 374.4576 201.1392 
L 374.4576 174.528 
L 361.152 174.528 
L 361.152 201.1392 
" clip-path="url(#pe1193b8994)" style="fill: #53ffa4"/>
    <path d="M 361.152 174.528 
L 374.4576 174.528 
L 374.4576 147.9168 
L 361.152 147.9168 
L 361.152 174.528 
" clip-path="url(#pe1193b8994)" style="fill: #a4ff53"/>
    <path d="M 361.152 147.9168 
L 374.4576 147.9168 
L 374.4576 121.3056 
L 361.152 121.3056 
L 361.152 147.9168 
" clip-path="url(#pe1193b8994)" style="fill: #f8f500"/>
    <path d="M 361.152 121.3056 
L 374.4576 121.3056 
L 374.4576 94.6944 
L 361.152 94.6944 
L 361.152 121.3056 
" clip-path="url(#pe1193b8994)" style="fill: #ff9400"/>
    <path d="M 361.152 94.6944 
L 374.4576 94.6944 
L 374.4576 68.0832 
L 361.152 68.0832 
L 361.152 94.6944 
" clip-path="url(#pe1193b8994)" style="fill: #ff3800"/>
    <path d="M 361.152 68.0832 
L 374.4576 68.0832 
L 374.4576 41.472 
L 361.152 41.472 
L 361.152 68.0832 
" clip-path="url(#pe1193b8994)" style="fill: #b60000"/>
   </g>
   <g id="matplotlib.axis_3"/>
   <g id="matplotlib.axis_4">
    <g id="ytick_9">
     <g id="line2d_20">
      <defs>
       <path id="m9094c63bf4" d="M 0 0 
L 3.5 0 
" style="stroke: #000000; stroke-width: 0.8"/>
      </defs>
      <g>
       <use xlink:href="#m9094c63bf4" x="374.4576" y="307.584" style="stroke: #000000; stroke-width: 0.8"/>
      </g>
     </g>
     <g id="text_23">
      <!-- 0 -->
      <g transform="translate(381.4576 310.984781) scale(0.1 -0.1)">
       <use xlink:href="#Calibri-30"/>
      </g>
     </g>
    </g>
    <g id="ytick_10">
     <g id="line2d_21">
      <g>
       <use xlink:href="#m9094c63bf4" x="374.4576" y="280.9728" style="stroke: #000000; stroke-width: 0.8"/>
      </g>
     </g>
     <g id="text_24">
      <!-- 0.1 -->
      <g transform="translate(381.4576 284.373581) scale(0.1 -0.1)">
       <use xlink:href="#Calibri-30"/>
       <use xlink:href="#Calibri-2e" x="50.683594"/>
       <use xlink:href="#Calibri-31" x="75.927734"/>
      </g>
     </g>
    </g>
    <g id="ytick_11">
     <g id="line2d_22">
      <g>
       <use xlink:href="#m9094c63bf4" x="374.4576" y="254.3616" style="stroke: #000000; stroke-width: 0.8"/>
      </g>
     </g>
     <g id="text_25">
      <!-- 0.2 -->
      <g transform="translate(381.4576 257.762381) scale(0.1 -0.1)">
       <use xlink:href="#Calibri-30"/>
       <use xlink:href="#Calibri-2e" x="50.683594"/>
       <use xlink:href="#Calibri-32" x="75.927734"/>
      </g>
     </g>
    </g>
    <g id="ytick_12">
     <g id="line2d_23">
      <g>
       <use xlink:href="#m9094c63bf4" x="374.4576" y="227.7504" style="stroke: #000000; stroke-width: 0.8"/>
      </g>
     </g>
     <g id="text_26">
      <!-- 0.3 -->
      <g transform="translate(381.4576 231.151181) scale(0.1 -0.1)">
       <use xlink:href="#Calibri-30"/>
       <use xlink:href="#Calibri-2e" x="50.683594"/>
       <use xlink:href="#Calibri-33" x="75.927734"/>
      </g>
     </g>
    </g>
    <g id="ytick_13">
     <g id="line2d_24">
      <g>
       <use xlink:href="#m9094c63bf4" x="374.4576" y="201.1392" style="stroke: #000000; stroke-width: 0.8"/>
      </g>
     </g>
     <g id="text_27">
      <!-- 0.4 -->
      <g transform="translate(381.4576 204.539981) scale(0.1 -0.1)">
       <use xlink:href="#Calibri-30"/>
       <use xlink:href="#Calibri-2e" x="50.683594"/>
       <use xlink:href="#Calibri-34" x="75.927734"/>
      </g>
     </g>
    </g>
    <g id="ytick_14">
     <g id="line2d_25">
      <g>
       <use xlink:href="#m9094c63bf4" x="374.4576" y="174.528" style="stroke: #000000; stroke-width: 0.8"/>
      </g>
     </g>
     <g id="text_28">
      <!-- 0.5 -->
      <g transform="translate(381.4576 177.928781) scale(0.1 -0.1)">
       <use xlink:href="#Calibri-30"/>
       <use xlink:href="#Calibri-2e" x="50.683594"/>
       <use xlink:href="#Calibri-35" x="75.927734"/>
      </g>
     </g>
    </g>
    <g id="ytick_15">
     <g id="line2d_26">
      <g>
       <use xlink:href="#m9094c63bf4" x="374.4576" y="147.9168" style="stroke: #000000; stroke-width: 0.8"/>
      </g>
     </g>
     <g id="text_29">
      <!-- 0.6 -->
      <g transform="translate(381.4576 151.317581) scale(0.1 -0.1)">
       <use xlink:href="#Calibri-30"/>
       <use xlink:href="#Calibri-2e" x="50.683594"/>
       <use xlink:href="#Calibri-36" x="75.927734"/>
      </g>
     </g>
    </g>
    <g id="ytick_16">
     <g id="line2d_27">
      <g>
       <use xlink:href="#m9094c63bf4" x="374.4576" y="121.3056" style="stroke: #000000; stroke-width: 0.8"/>
      </g>
     </g>
     <g id="text_30">
      <!-- 0.7 -->
      <g transform="translate(381.4576 124.706381) scale(0.1 -0.1)">
       <use xlink:href="#Calibri-30"/>
       <use xlink:href="#Calibri-2e" x="50.683594"/>
       <use xlink:href="#Calibri-37" x="75.927734"/>
      </g>
     </g>
    </g>
    <g id="ytick_17">
     <g id="line2d_28">
      <g>
       <use xlink:href="#m9094c63bf4" x="374.4576" y="94.6944" style="stroke: #000000; stroke-width: 0.8"/>
      </g>
     </g>
     <g id="text_31">
      <!-- 0.8 -->
      <g transform="translate(381.4576 98.095181) scale(0.1 -0.1)">
       <use xlink:href="#Calibri-30"/>
       <use xlink:href="#Calibri-2e" x="50.683594"/>
       <use xlink:href="#Calibri-38" x="75.927734"/>
      </g>
     </g>
    </g>
    <g id="ytick_18">
     <g id="line2d_29">
      <g>
       <use xlink:href="#m9094c63bf4" x="374.4576" y="68.0832" style="stroke: #000000; stroke-width: 0.8"/>
      </g>
     </g>
     <g id="text_32">
      <!-- 0.9 -->
      <g transform="translate(381.4576 71.483981) scale(0.1 -0.1)">
       <use xlink:href="#Calibri-30"/>
       <use xlink:href="#Calibri-2e" x="50.683594"/>
       <use xlink:href="#Calibri-39" x="75.927734"/>
      </g>
     </g>
    </g>
    <g id="ytick_19">
     <g id="line2d_30">
      <g>
       <use xlink:href="#m9094c63bf4" x="374.4576" y="41.472" style="stroke: #000000; stroke-width: 0.8"/>
      </g>
     </g>
     <g id="text_33">
      <!-- 1.0 -->
      <g transform="translate(381.4576 44.872781) scale(0.1 -0.1)">
       <use xlink:href="#Calibri-31"/>
       <use xlink:href="#Calibri-2e" x="50.683594"/>
       <use xlink:href="#Calibri-30" x="75.927734"/>
      </g>
     </g>
    </g>
   </g>
   <g id="LineCollection_1"/>
   <g id="patch_8">
    <path d="M 361.152 307.584 
L 367.8048 307.584 
L 374.4576 307.584 
L 374.4576 41.472 
L 367.8048 41.472 
L 361.152 41.472 
L 361.152 307.584 
z
" style="fill: none; stroke: #000000; stroke-width: 0.8; stroke-linejoin: miter; stroke-linecap: square"/>
   </g>
   <g id="text_34">
    <!-- $\mathit{E}_{\mathrm{dis}}$/$\mathit{E}_{\mathrm{i}}$ -->
    <g transform="translate(353.2548 35.472) scale(0.1 -0.1)">
     <defs>
      <path id="DejaVuSans-Oblique-45" d="M 1081 4666 
L 4031 4666 
L 3928 4134 
L 1606 4134 
L 1338 2753 
L 3566 2753 
L 3463 2222 
L 1234 2222 
L 909 531 
L 3284 531 
L 3181 0 
L 172 0 
L 1081 4666 
z
" transform="scale(0.015625)"/>
      <path id="DejaVuSans-64" d="M 2906 2969 
L 2906 4863 
L 3481 4863 
L 3481 0 
L 2906 0 
L 2906 525 
Q 2725 213 2448 61 
Q 2172 -91 1784 -91 
Q 1150 -91 751 415 
Q 353 922 353 1747 
Q 353 2572 751 3078 
Q 1150 3584 1784 3584 
Q 2172 3584 2448 3432 
Q 2725 3281 2906 2969 
z
M 947 1747 
Q 947 1113 1208 752 
Q 1469 391 1925 391 
Q 2381 391 2643 752 
Q 2906 1113 2906 1747 
Q 2906 2381 2643 2742 
Q 2381 3103 1925 3103 
Q 1469 3103 1208 2742 
Q 947 2381 947 1747 
z
" transform="scale(0.015625)"/>
      <path id="DejaVuSans-69" d="M 603 3500 
L 1178 3500 
L 1178 0 
L 603 0 
L 603 3500 
z
M 603 4863 
L 1178 4863 
L 1178 4134 
L 603 4134 
L 603 4863 
z
" transform="scale(0.015625)"/>
      <path id="DejaVuSans-73" d="M 2834 3397 
L 2834 2853 
Q 2591 2978 2328 3040 
Q 2066 3103 1784 3103 
Q 1356 3103 1142 2972 
Q 928 2841 928 2578 
Q 928 2378 1081 2264 
Q 1234 2150 1697 2047 
L 1894 2003 
Q 2506 1872 2764 1633 
Q 3022 1394 3022 966 
Q 3022 478 2636 193 
Q 2250 -91 1575 -91 
Q 1294 -91 989 -36 
Q 684 19 347 128 
L 347 722 
Q 666 556 975 473 
Q 1284 391 1588 391 
Q 1994 391 2212 530 
Q 2431 669 2431 922 
Q 2431 1156 2273 1281 
Q 2116 1406 1581 1522 
L 1381 1569 
Q 847 1681 609 1914 
Q 372 2147 372 2553 
Q 372 3047 722 3315 
Q 1072 3584 1716 3584 
Q 2034 3584 2315 3537 
Q 2597 3491 2834 3397 
z
" transform="scale(0.015625)"/>
     </defs>
     <use xlink:href="#DejaVuSans-Oblique-45" transform="translate(0 0.09375)"/>
     <use xlink:href="#DejaVuSans-64" transform="translate(63.183594 -16.3125) scale(0.7)"/>
     <use xlink:href="#DejaVuSans-69" transform="translate(107.617188 -16.3125) scale(0.7)"/>
     <use xlink:href="#DejaVuSans-73" transform="translate(127.06543 -16.3125) scale(0.7)"/>
     <use xlink:href="#Calibri-2f" transform="translate(166.269531 0.09375)"/>
     <use xlink:href="#DejaVuSans-Oblique-45" transform="translate(204.892578 0.09375)"/>
     <use xlink:href="#DejaVuSans-69" transform="translate(268.076172 -16.3125) scale(0.7)"/>
    </g>
   </g>
  </g>
 </g>
 <defs>
  <clipPath id="p16664434ad">
   <rect x="57.6" y="41.472" width="285.696" height="266.112"/>
  </clipPath>
  <clipPath id="pe1193b8994">
   <rect x="361.152" y="41.472" width="13.3056" height="266.112"/>
  </clipPath>
 </defs>
</svg>
