<?xml version="1.0" encoding="utf-8" standalone="no"?>
<!DOCTYPE svg PUBLIC "-//W3C//DTD SVG 1.1//EN"
  "http://www.w3.org/Graphics/SVG/1.1/DTD/svg11.dtd">
<svg xmlns:xlink="http://www.w3.org/1999/xlink" width="460.8pt" height="345.6pt" viewBox="0 0 460.8 345.6" xmlns="http://www.w3.org/2000/svg" version="1.1">
 <metadata>
  <rdf:RDF xmlns:dc="http://purl.org/dc/elements/1.1/" xmlns:cc="http://creativecommons.org/ns#" xmlns:rdf="http://www.w3.org/1999/02/22-rdf-syntax-ns#">
   <cc:Work>
    <dc:type rdf:resource="http://purl.org/dc/dcmitype/StillImage"/>
    <dc:date>2024-01-22T08:47:23.924173</dc:date>
    <dc:format>image/svg+xml</dc:format>
    <dc:creator>
     <cc:Agent>
      <dc:title>Matplotlib v3.7.1, https://matplotlib.org/</dc:title>
     </cc:Agent>
    </dc:creator>
   </cc:Work>
  </rdf:RDF>
 </metadata>
 <defs>
  <style type="text/css">*{stroke-linejoin: round; stroke-linecap: butt}</style>
 </defs>
 <g id="figure_1">
  <g id="patch_1">
   <path d="M 0 345.6 
L 460.8 345.6 
L 460.8 0 
L 0 0 
z
" style="fill: #ffffff"/>
  </g>
  <g id="axes_1">
   <g id="patch_2">
    <path d="M 57.6 307.584 
L 343.296 307.584 
L 343.296 41.472 
L 57.6 41.472 
z
" style="fill: #ffffff"/>
   </g>
   <g id="PathCollection_1">
    <path clip-path="url(#p699213df75)" style="fill: #0000b6"/>
   </g>
   <g id="PathCollection_2">
    <path d="M 57.62857 84.966619 
L 57.667162 84.918597 
L 57.825433 84.7152 
L 58.654438 83.628364 
L 59.606675 82.36308 
L 59.856443 82.025549 
L 60.01398 81.814961 
L 60.327738 81.3888 
L 60.983557 80.483126 
L 61.033612 80.41452 
L 61.103707 80.31664 
L 61.28283 80.064021 
L 62.398784 78.497005 
L 62.704332 78.0624 
L 63.503354 76.902566 
L 64.113013 76.009057 
L 64.22922 75.840211 
L 64.317529 75.71028 
L 64.542945 75.37277 
L 64.97056 74.736 
L 65.07391 74.579364 
L 65.614162 73.76172 
L 66.030677 73.120153 
L 66.620854 72.2001 
L 66.852781 71.841455 
L 67.129525 71.4096 
L 67.803064 70.336635 
L 68.596683 69.05748 
L 68.872113 68.605467 
L 68.983986 68.424165 
L 69.191099 68.0832 
L 69.682899 67.262688 
L 69.773613 67.10892 
L 70.145136 66.47955 
L 71.153653 64.7568 
L 71.258334 64.574199 
L 72.128796 63.039106 
L 72.436896 62.496867 
L 72.488855 62.40468 
L 72.515035 62.357385 
L 73.032762 61.4304 
L 73.480282 60.608315 
L 73.563435 60.45612 
L 74.589903 58.541713 
L 74.822153 58.104 
L 75.621226 56.565622 
L 76.040788 55.75188 
L 76.232635 55.373143 
L 76.537126 54.7776 
L 76.71564 54.420931 
L 76.816352 54.216527 
L 77.022979 53.80332 
L 77.794068 52.231093 
L 78.172852 51.4512 
L 78.735814 50.266808 
L 79.287113 49.09908 
L 79.309811 49.051102 
L 79.741343 48.1248 
L 79.878542 47.825242 
L 79.958029 47.648957 
L 80.186374 47.15052 
L 80.867173 45.634356 
L 81.239154 44.7984 
L 81.774599 43.568474 
L 82.260138 42.44628 
L 82.353671 42.226716 
L 82.674937 41.472 
L 82.007962 41.472 
L 80.48425 41.472 
L 78.960538 41.472 
L 77.436826 41.472 
L 75.913114 41.472 
L 74.389402 41.472 
L 72.86569 41.472 
L 71.341978 41.472 
L 69.818266 41.472 
L 68.294554 41.472 
L 66.770842 41.472 
L 65.24713 41.472 
L 63.723418 41.472 
L 62.199706 41.472 
L 60.675994 41.472 
L 59.152282 41.472 
L 57.62857 41.472 
L 57.62857 44.7984 
L 57.62857 48.1248 
L 57.62857 51.4512 
L 57.62857 54.7776 
L 57.62857 58.104 
L 57.62857 61.4304 
L 57.62857 64.7568 
L 57.62857 68.0832 
L 57.62857 71.4096 
L 57.62857 74.736 
L 57.62857 78.0624 
L 57.62857 81.3888 
L 57.62857 84.7152 
" clip-path="url(#p699213df75)" style="fill: #0018ff"/>
   </g>
   <g id="PathCollection_3">
    <path d="M 82.674937 41.472 
L 82.353671 42.226716 
L 82.260138 42.44628 
L 81.774599 43.568474 
L 81.239154 44.7984 
L 80.867173 45.634356 
L 80.186374 47.15052 
L 79.958029 47.648957 
L 79.878542 47.825242 
L 79.741343 48.1248 
L 79.309811 49.051102 
L 79.287113 49.09908 
L 78.735814 50.266808 
L 78.172852 51.4512 
L 77.794068 52.231093 
L 77.022979 53.80332 
L 76.816352 54.216527 
L 76.71564 54.420931 
L 76.537126 54.7776 
L 76.232635 55.373143 
L 76.040788 55.75188 
L 75.621226 56.565622 
L 74.822153 58.104 
L 74.589903 58.541713 
L 73.563435 60.45612 
L 73.480282 60.608315 
L 73.032762 61.4304 
L 72.515035 62.357385 
L 72.488855 62.40468 
L 72.436896 62.496867 
L 72.128796 63.039106 
L 71.258334 64.574199 
L 71.153653 64.7568 
L 70.145136 66.47955 
L 69.773613 67.10892 
L 69.682899 67.262688 
L 69.191099 68.0832 
L 68.983986 68.424165 
L 68.872113 68.605467 
L 68.596683 69.05748 
L 67.803064 70.336635 
L 67.129525 71.4096 
L 66.852781 71.841455 
L 66.620854 72.2001 
L 66.030677 73.120153 
L 65.614162 73.76172 
L 65.07391 74.579364 
L 64.97056 74.736 
L 64.542945 75.37277 
L 64.317529 75.71028 
L 64.22922 75.840211 
L 64.113013 76.009057 
L 63.503354 76.902566 
L 62.704332 78.0624 
L 62.398784 78.497005 
L 61.28283 80.064021 
L 61.103707 80.31664 
L 61.033612 80.41452 
L 60.983557 80.483126 
L 60.327738 81.3888 
L 60.01398 81.814961 
L 59.856443 82.025549 
L 59.606675 82.36308 
L 58.654438 83.628364 
L 57.825433 84.7152 
L 57.667162 84.918597 
L 57.62857 84.966619 
L 57.62857 88.0416 
L 57.62857 91.368 
L 57.62857 94.6944 
L 57.62857 98.0208 
L 57.62857 101.3472 
L 57.62857 104.6736 
L 57.62857 108 
L 57.62857 111.3264 
L 57.62857 114.6528 
L 57.62857 117.9792 
L 57.62857 121.3056 
L 57.62857 124.632 
L 57.62857 127.9584 
L 57.62857 131.2848 
L 57.62857 131.685583 
L 57.696416 131.642381 
L 58.228839 131.2848 
L 58.932082 130.804085 
L 59.579957 130.351145 
L 60.392597 129.791171 
L 61.04656 129.33175 
L 61.243012 129.196253 
L 61.61666 128.93268 
L 62.543744 128.269502 
L 62.660756 128.186417 
L 62.975864 127.9584 
L 64.231012 127.03956 
L 64.306271 126.98412 
L 65.809927 125.860637 
L 66.660978 125.211031 
L 66.853323 125.066713 
L 67.422294 124.632 
L 68.065359 124.131648 
L 68.785968 123.559199 
L 69.507329 122.993228 
L 70.240237 122.408026 
L 70.301287 122.360078 
L 70.401303 122.27988 
L 71.463585 121.415566 
L 71.501861 121.384672 
L 71.598025 121.3056 
L 71.972632 120.993704 
L 72.771947 120.33132 
L 73.237366 119.938099 
L 73.657332 119.577374 
L 74.711387 118.682124 
L 75.522802 117.9792 
L 75.857123 117.684106 
L 75.992068 117.563077 
L 76.884859 116.774206 
L 78.158368 115.62708 
L 78.335309 115.465267 
L 79.220005 114.6528 
L 79.841317 114.071418 
L 80.259504 113.67852 
L 81.165669 112.814 
L 81.852301 112.146799 
L 82.115727 111.894371 
L 82.699594 111.3264 
L 83.271775 110.759019 
L 84.238675 109.782953 
L 84.678958 109.34246 
L 85.041642 108.97428 
L 85.437296 108.564689 
L 85.986244 108 
L 86.17688 107.801079 
L 86.260669 107.712056 
L 86.912842 107.02572 
L 87.412031 106.491968 
L 87.847705 106.018113 
L 88.271542 105.562895 
L 89.088232 104.6736 
L 89.445031 104.27739 
L 90.196837 103.428551 
L 90.788248 102.765777 
L 91.179464 102.32148 
L 91.305951 102.177777 
L 92.024164 101.3472 
L 92.306844 101.015243 
L 92.852789 100.37292 
L 93.433314 99.678569 
L 94.01791 98.96815 
L 94.310664 98.616396 
L 94.800172 98.0208 
L 95.387443 97.291809 
L 96.674929 95.66868 
L 96.726159 95.602996 
L 97.434142 94.6944 
L 97.801017 94.215777 
L 97.978647 93.979898 
L 98.176467 93.72012 
L 99.212363 92.336351 
L 99.926607 91.368 
L 100.216419 90.966988 
L 100.423595 90.6771 
L 101.081925 89.764974 
L 101.614827 89.01588 
L 102.110118 88.307364 
L 102.294841 88.0416 
L 102.9222 87.129659 
L 103.33993 86.504521 
L 103.33993 84.7152 
L 103.33993 81.3888 
L 103.33993 78.0624 
L 103.33993 74.736 
L 103.33993 71.4096 
L 103.33993 68.0832 
L 103.33993 64.7568 
L 103.33993 61.4304 
L 103.33993 58.104 
L 103.33993 54.7776 
L 103.33993 51.4512 
L 103.33993 48.1248 
L 103.33993 44.7984 
L 103.33993 41.472 
L 101.816218 41.472 
L 100.292506 41.472 
L 98.768794 41.472 
L 97.245082 41.472 
L 95.72137 41.472 
L 94.197658 41.472 
L 92.673946 41.472 
L 91.150234 41.472 
L 89.626522 41.472 
L 88.10281 41.472 
L 86.579098 41.472 
L 85.055386 41.472 
L 83.531674 41.472 
" clip-path="url(#p699213df75)" style="fill: #0080ff"/>
   </g>
   <g id="PathCollection_4">
    <path d="M 103.33993 86.504521 
L 102.9222 87.129659 
L 102.294841 88.0416 
L 102.110118 88.307364 
L 101.614827 89.01588 
L 101.081925 89.764974 
L 100.423595 90.6771 
L 100.216419 90.966988 
L 99.926607 91.368 
L 99.212363 92.336351 
L 98.176467 93.72012 
L 97.978647 93.979898 
L 97.801017 94.215777 
L 97.434142 94.6944 
L 96.726159 95.602996 
L 96.674929 95.66868 
L 95.387443 97.291809 
L 94.800172 98.0208 
L 94.310664 98.616396 
L 94.01791 98.96815 
L 93.433314 99.678569 
L 92.852789 100.37292 
L 92.306844 101.015243 
L 92.024164 101.3472 
L 91.305951 102.177777 
L 91.179464 102.32148 
L 90.788248 102.765777 
L 90.196837 103.428551 
L 89.445031 104.27739 
L 89.088232 104.6736 
L 88.271542 105.562895 
L 87.847705 106.018113 
L 87.412031 106.491968 
L 86.912842 107.02572 
L 86.260669 107.712056 
L 86.17688 107.801079 
L 85.986244 108 
L 85.437296 108.564689 
L 85.041642 108.97428 
L 84.678958 109.34246 
L 84.238675 109.782953 
L 83.271775 110.759019 
L 82.699594 111.3264 
L 82.115727 111.894371 
L 81.852301 112.146799 
L 81.165669 112.814 
L 80.259504 113.67852 
L 79.841317 114.071418 
L 79.220005 114.6528 
L 78.335309 115.465267 
L 78.158368 115.62708 
L 76.884859 116.774206 
L 75.992068 117.563077 
L 75.857123 117.684106 
L 75.522802 117.9792 
L 74.711387 118.682124 
L 73.657332 119.577374 
L 73.237366 119.938099 
L 72.771947 120.33132 
L 71.972632 120.993704 
L 71.598025 121.3056 
L 71.501861 121.384672 
L 71.463585 121.415566 
L 70.401303 122.27988 
L 70.301287 122.360078 
L 70.240237 122.408026 
L 69.507329 122.993228 
L 68.785968 123.559199 
L 68.065359 124.131648 
L 67.422294 124.632 
L 66.853323 125.066713 
L 66.660978 125.211031 
L 65.809927 125.860637 
L 64.306271 126.98412 
L 64.231012 127.03956 
L 62.975864 127.9584 
L 62.660756 128.186417 
L 62.543744 128.269502 
L 61.61666 128.93268 
L 61.243012 129.196253 
L 61.04656 129.33175 
L 60.392597 129.791171 
L 59.579957 130.351145 
L 58.932082 130.804085 
L 58.228839 131.2848 
L 57.696416 131.642381 
L 57.62857 131.685583 
L 57.62857 134.6112 
L 57.62857 137.9376 
L 57.62857 141.264 
L 57.62857 144.5904 
L 57.62857 147.9168 
L 57.62857 151.2432 
L 57.62857 154.5696 
L 57.62857 157.896 
L 57.62857 161.2224 
L 57.62857 164.5488 
L 57.62857 166.37587 
L 57.954071 166.264339 
L 58.451399 166.078889 
L 59.653812 165.643686 
L 60.530767 165.31421 
L 60.802486 165.215469 
L 62.121518 164.71949 
L 62.255493 164.67059 
L 62.57694 164.5488 
L 63.645409 164.13766 
L 63.814156 164.070569 
L 64.846029 163.673162 
L 65.827748 163.281258 
L 66.482151 163.027273 
L 67.107081 162.776671 
L 67.426043 162.652764 
L 68.558715 162.19668 
L 69.119347 161.968232 
L 70.925824 161.2224 
L 71.151719 161.128306 
L 71.210294 161.103323 
L 71.706191 160.893054 
L 73.230435 160.24812 
L 73.30581 160.215632 
L 73.332233 160.203894 
L 75.09658 159.439833 
L 75.668812 159.183577 
L 76.120169 158.987274 
L 77.147994 158.526544 
L 77.629309 158.316208 
L 78.559172 157.896 
L 78.928359 157.726406 
L 78.999059 157.692973 
L 80.149022 157.164169 
L 81.005898 156.757195 
L 81.728334 156.422237 
L 82.343278 156.128734 
L 82.655721 155.983716 
L 83.573207 155.54388 
L 84.247214 155.216639 
L 85.564733 154.5696 
L 86.218631 154.243643 
L 87.504705 153.59532 
L 87.627744 153.532489 
L 87.672962 153.508686 
L 88.456403 153.106796 
L 88.87357 152.886961 
L 90.091753 152.258841 
L 91.054632 151.747064 
L 91.228725 151.656885 
L 92.006163 151.2432 
L 92.54126 150.953535 
L 92.897628 150.75488 
L 93.991653 150.157466 
L 94.45268 149.899116 
L 94.974906 149.613603 
L 96.258255 148.89108 
L 96.589671 148.701975 
L 97.952135 147.9168 
L 98.447801 147.626538 
L 99.604551 146.94252 
L 99.794158 146.828863 
L 99.877534 146.777484 
L 100.622358 146.328868 
L 101.1765 145.98696 
L 102.178075 145.380367 
L 103.325606 144.665893 
L 103.33993 144.656929 
L 103.33993 144.5904 
L 103.33993 141.264 
L 103.33993 137.9376 
L 103.33993 134.6112 
L 103.33993 131.2848 
L 103.33993 127.9584 
L 103.33993 124.632 
L 103.33993 121.3056 
L 103.33993 117.9792 
L 103.33993 114.6528 
L 103.33993 111.3264 
L 103.33993 108 
L 103.33993 104.6736 
L 103.33993 101.3472 
L 103.33993 98.0208 
L 103.33993 94.6944 
L 103.33993 91.368 
L 103.33993 88.0416 
" clip-path="url(#p699213df75)" style="fill: #00e4f8"/>
   </g>
   <g id="PathCollection_5">
    <path d="M 103.33993 144.656929 
L 103.325606 144.665893 
L 102.178075 145.380367 
L 101.1765 145.98696 
L 100.622358 146.328868 
L 99.877534 146.777484 
L 99.794158 146.828863 
L 99.604551 146.94252 
L 98.447801 147.626538 
L 97.952135 147.9168 
L 96.589671 148.701975 
L 96.258255 148.89108 
L 94.974906 149.613603 
L 94.45268 149.899116 
L 93.991653 150.157466 
L 92.897628 150.75488 
L 92.54126 150.953535 
L 92.006163 151.2432 
L 91.228725 151.656885 
L 91.054632 151.747064 
L 90.091753 152.258841 
L 88.87357 152.886961 
L 88.456403 153.106796 
L 87.672962 153.508686 
L 87.627744 153.532489 
L 87.504705 153.59532 
L 86.218631 154.243643 
L 85.564733 154.5696 
L 84.247214 155.216639 
L 83.573207 155.54388 
L 82.655721 155.983716 
L 82.343278 156.128734 
L 81.728334 156.422237 
L 81.005898 156.757195 
L 80.149022 157.164169 
L 78.999059 157.692973 
L 78.928359 157.726406 
L 78.559172 157.896 
L 77.629309 158.316208 
L 77.147994 158.526544 
L 76.120169 158.987274 
L 75.668812 159.183577 
L 75.09658 159.439833 
L 73.332233 160.203894 
L 73.30581 160.215632 
L 73.230435 160.24812 
L 71.706191 160.893054 
L 71.210294 161.103323 
L 71.151719 161.128306 
L 70.925824 161.2224 
L 69.119347 161.968232 
L 68.558715 162.19668 
L 67.426043 162.652764 
L 67.107081 162.776671 
L 66.482151 163.027273 
L 65.827748 163.281258 
L 64.846029 163.673162 
L 63.814156 164.070569 
L 63.645409 164.13766 
L 62.57694 164.5488 
L 62.255493 164.67059 
L 62.121518 164.71949 
L 60.802486 165.215469 
L 60.530767 165.31421 
L 59.653812 165.643686 
L 58.451399 166.078889 
L 57.954071 166.264339 
L 57.62857 166.37587 
L 57.62857 167.8752 
L 57.62857 171.2016 
L 57.62857 174.528 
L 57.62857 177.8544 
L 57.62857 181.1808 
L 57.62857 184.5072 
L 57.62857 187.8336 
L 57.62857 191.16 
L 57.62857 194.4864 
L 57.62857 194.759856 
L 57.745537 194.741751 
L 59.137798 194.499497 
L 59.162184 194.495355 
L 59.168298 194.494321 
L 59.213423 194.4864 
L 61.416422 194.09902 
L 61.711735 194.045145 
L 62.932899 193.823399 
L 63.890981 193.649964 
L 64.251251 193.585861 
L 64.654342 193.51212 
L 66.194289 193.227735 
L 66.385675 193.189998 
L 67.129837 193.052064 
L 67.457473 192.987423 
L 69.000141 192.700361 
L 69.546603 192.591784 
L 70.071333 192.493776 
L 70.797119 192.349476 
L 71.800638 192.161297 
L 72.710266 191.979154 
L 73.010395 191.922661 
L 74.14411 191.695494 
L 74.595608 191.610167 
L 75.876759 191.351605 
L 75.946942 191.33829 
L 76.829741 191.16 
L 77.384781 191.046383 
L 77.500402 191.021207 
L 78.880217 190.736673 
L 79.047811 190.700028 
L 80.16769 190.468923 
L 80.871591 190.3144 
L 81.810483 190.119198 
L 82.222682 190.028326 
L 82.944497 189.87814 
L 84.251355 189.588871 
L 84.73793 189.486867 
L 85.4008 189.339511 
L 85.714997 189.273591 
L 87.640022 188.843907 
L 87.66246 188.839163 
L 87.802003 188.80788 
L 88.801198 188.579912 
L 90.120075 188.279903 
L 92.035631 187.8336 
L 92.468529 187.732009 
L 92.54191 187.714205 
L 92.902155 187.627238 
L 93.270465 187.538586 
L 94.952549 187.138382 
L 96.098324 186.85932 
L 96.727807 186.704342 
L 96.833418 186.676848 
L 97.619847 186.48238 
L 97.897129 186.410123 
L 99.462334 186.021262 
L 100.033713 185.87115 
L 100.527899 185.747827 
L 101.346548 185.532532 
L 102.189115 185.321269 
L 103.238253 185.04308 
L 103.33993 185.015894 
L 103.33993 184.5072 
L 103.33993 181.1808 
L 103.33993 177.8544 
L 103.33993 174.528 
L 103.33993 171.2016 
L 103.33993 167.8752 
L 103.33993 164.5488 
L 103.33993 161.2224 
L 103.33993 157.896 
L 103.33993 154.5696 
L 103.33993 151.2432 
L 103.33993 147.9168 
" clip-path="url(#p699213df75)" style="fill: #53ffa4"/>
   </g>
   <g id="PathCollection_6">
    <path d="M 103.33993 185.015894 
L 103.238253 185.04308 
L 102.189115 185.321269 
L 101.346548 185.532532 
L 100.527899 185.747827 
L 100.033713 185.87115 
L 99.462334 186.021262 
L 97.897129 186.410123 
L 97.619847 186.48238 
L 96.833418 186.676848 
L 96.727807 186.704342 
L 96.098324 186.85932 
L 94.952549 187.138382 
L 93.270465 187.538586 
L 92.902155 187.627238 
L 92.54191 187.714205 
L 92.468529 187.732009 
L 92.035631 187.8336 
L 90.120075 188.279903 
L 88.801198 188.579912 
L 87.802003 188.80788 
L 87.66246 188.839163 
L 87.640022 188.843907 
L 85.714997 189.273591 
L 85.4008 189.339511 
L 84.73793 189.486867 
L 84.251355 189.588871 
L 82.944497 189.87814 
L 82.222682 190.028326 
L 81.810483 190.119198 
L 80.871591 190.3144 
L 80.16769 190.468923 
L 79.047811 190.700028 
L 78.880217 190.736673 
L 77.500402 191.021207 
L 77.384781 191.046383 
L 76.829741 191.16 
L 75.946942 191.33829 
L 75.876759 191.351605 
L 74.595608 191.610167 
L 74.14411 191.695494 
L 73.010395 191.922661 
L 72.710266 191.979154 
L 71.800638 192.161297 
L 70.797119 192.349476 
L 70.071333 192.493776 
L 69.546603 192.591784 
L 69.000141 192.700361 
L 67.457473 192.987423 
L 67.129837 193.052064 
L 66.385675 193.189998 
L 66.194289 193.227735 
L 64.654342 193.51212 
L 64.251251 193.585861 
L 63.890981 193.649964 
L 62.932899 193.823399 
L 61.711735 194.045145 
L 61.416422 194.09902 
L 59.213423 194.4864 
L 59.168298 194.494321 
L 59.162184 194.495355 
L 59.137798 194.499497 
L 57.745537 194.741751 
L 57.62857 194.759856 
L 57.62857 197.8128 
L 57.62857 201.1392 
L 57.62857 204.4656 
L 57.62857 207.792 
L 57.62857 211.1184 
L 57.62857 214.4448 
L 57.62857 217.7712 
L 57.62857 219.451421 
L 57.94546 219.441353 
L 58.398066 219.417721 
L 59.878169 219.355877 
L 60.380318 219.329544 
L 60.967015 219.30501 
L 61.510148 219.276565 
L 62.86332 219.219929 
L 63.454439 219.188834 
L 63.988154 219.166478 
L 64.623284 219.133112 
L 65.847465 219.081786 
L 66.528998 219.045824 
L 67.008865 219.025688 
L 67.737504 218.98729 
L 68.830575 218.941382 
L 69.604007 218.900441 
L 70.029134 218.882571 
L 70.852843 218.839026 
L 71.812616 218.798646 
L 72.679479 218.752611 
L 73.048948 218.737053 
L 73.969336 218.688241 
L 74.793555 218.653503 
L 75.755431 218.602255 
L 76.068292 218.589058 
L 77.087021 218.534854 
L 77.773356 218.505876 
L 78.831878 218.449293 
L 79.08715 218.438506 
L 80.205937 218.37878 
L 80.751982 218.355685 
L 81.908836 218.293637 
L 82.105508 218.285312 
L 83.326125 218.219931 
L 83.729395 218.202844 
L 84.986321 218.135199 
L 85.123347 218.129388 
L 86.447626 218.058214 
L 86.705554 218.047265 
L 88.064353 217.973884 
L 88.140651 217.970643 
L 89.570487 217.89353 
L 89.680415 217.888854 
L 91.142949 217.809594 
L 91.157402 217.808979 
L 91.855456 217.7712 
L 92.653931 217.727507 
L 92.69522 217.724756 
L 94.173421 217.643461 
L 94.222517 217.640182 
L 95.626043 217.563095 
L 95.822727 217.549929 
L 97.18879 217.474517 
L 97.302825 217.466864 
L 98.596712 217.39553 
L 98.951817 217.371643 
L 100.203534 217.302278 
L 100.383784 217.290123 
L 101.565885 217.224701 
L 102.08255 217.189773 
L 103.21763 217.126627 
L 103.33993 217.116738 
L 103.33993 214.4448 
L 103.33993 211.1184 
L 103.33993 207.792 
L 103.33993 204.4656 
L 103.33993 201.1392 
L 103.33993 197.8128 
L 103.33993 194.4864 
L 103.33993 191.16 
L 103.33993 187.8336 
" clip-path="url(#p699213df75)" style="fill: #a4ff53"/>
   </g>
   <g id="PathCollection_7">
    <path d="M 103.33993 217.116738 
L 103.21763 217.126627 
L 102.08255 217.189773 
L 101.565885 217.224701 
L 100.383784 217.290123 
L 100.203534 217.302278 
L 98.951817 217.371643 
L 98.596712 217.39553 
L 97.302825 217.466864 
L 97.18879 217.474517 
L 95.822727 217.549929 
L 95.626043 217.563095 
L 94.222517 217.640182 
L 94.173421 217.643461 
L 92.69522 217.724756 
L 92.653931 217.727507 
L 91.855456 217.7712 
L 91.157402 217.808979 
L 91.142949 217.809594 
L 89.680415 217.888854 
L 89.570487 217.89353 
L 88.140651 217.970643 
L 88.064353 217.973884 
L 86.705554 218.047265 
L 86.447626 218.058214 
L 85.123347 218.129388 
L 84.986321 218.135199 
L 83.729395 218.202844 
L 83.326125 218.219931 
L 82.105508 218.285312 
L 81.908836 218.293637 
L 80.751982 218.355685 
L 80.205937 218.37878 
L 79.08715 218.438506 
L 78.831878 218.449293 
L 77.773356 218.505876 
L 77.087021 218.534854 
L 76.068292 218.589058 
L 75.755431 218.602255 
L 74.793555 218.653503 
L 73.969336 218.688241 
L 73.048948 218.737053 
L 72.679479 218.752611 
L 71.812616 218.798646 
L 70.852843 218.839026 
L 70.029134 218.882571 
L 69.604007 218.900441 
L 68.830575 218.941382 
L 67.737504 218.98729 
L 67.008865 219.025688 
L 66.528998 219.045824 
L 65.847465 219.081786 
L 64.623284 219.133112 
L 63.988154 219.166478 
L 63.454439 219.188834 
L 62.86332 219.219929 
L 61.510148 219.276565 
L 60.967015 219.30501 
L 60.380318 219.329544 
L 59.878169 219.355877 
L 58.398066 219.417721 
L 57.94546 219.441353 
L 57.62857 219.451421 
L 57.62857 221.0976 
L 57.62857 224.424 
L 57.62857 227.7504 
L 57.62857 231.0768 
L 57.62857 234.4032 
L 57.62857 237.7296 
L 57.62857 241.056 
L 57.62857 242.006689 
L 58.074662 242.031292 
L 58.075336 242.031332 
L 60.180828 242.136992 
L 60.250746 242.141157 
L 61.093163 242.183733 
L 61.195371 242.189848 
L 63.158274 242.28976 
L 63.328314 242.300028 
L 64.110909 242.340147 
L 64.317378 242.35267 
L 66.133918 242.446462 
L 66.40669 242.463161 
L 67.127877 242.500666 
L 67.441425 242.519945 
L 69.107701 242.607226 
L 69.485903 242.630699 
L 70.14404 242.665424 
L 70.567583 242.691827 
L 72.079564 242.772184 
L 72.56598 242.802795 
L 73.159372 242.834563 
L 73.695925 242.868479 
L 75.049442 242.941473 
L 75.646951 242.979605 
L 76.173845 243.00823 
L 76.82653 243.050069 
L 78.01727 243.115238 
L 78.728848 243.161295 
L 79.187429 243.18658 
L 79.959478 243.236776 
L 80.982979 243.29363 
L 81.811705 243.348038 
L 82.200094 243.369775 
L 83.094854 243.428784 
L 83.946496 243.476806 
L 84.895554 243.540015 
L 85.211808 243.557983 
L 86.232749 243.62629 
L 86.907746 243.66493 
L 87.980432 243.737416 
L 88.222537 243.751382 
L 89.373256 243.829498 
L 89.866651 243.858176 
L 91.066378 243.940441 
L 91.232246 243.950156 
L 92.516473 244.038624 
L 92.823127 244.056724 
L 94.15343 244.149298 
L 94.240899 244.154501 
L 95.662505 244.253893 
L 95.777088 244.260761 
L 97.24163 244.364208 
L 97.248455 244.36462 
L 97.498989 244.3824 
L 98.729094 244.469067 
L 98.811556 244.475754 
L 100.255295 244.578514 
L 100.330887 244.584689 
L 101.679384 244.681121 
L 101.96377 244.70452 
L 103.261028 244.798247 
L 103.33993 244.804147 
L 103.33993 244.3824 
L 103.33993 241.056 
L 103.33993 237.7296 
L 103.33993 234.4032 
L 103.33993 231.0768 
L 103.33993 227.7504 
L 103.33993 224.424 
L 103.33993 221.0976 
L 103.33993 217.7712 
" clip-path="url(#p699213df75)" style="fill: #f8f500"/>
   </g>
   <g id="PathCollection_8">
    <path d="M 103.33993 244.804147 
L 103.261028 244.798247 
L 101.96377 244.70452 
L 101.679384 244.681121 
L 100.330887 244.584689 
L 100.255295 244.578514 
L 98.811556 244.475754 
L 98.729094 244.469067 
L 97.498989 244.3824 
L 97.248455 244.36462 
L 97.24163 244.364208 
L 95.777088 244.260761 
L 95.662505 244.253893 
L 94.240899 244.154501 
L 94.15343 244.149298 
L 92.823127 244.056724 
L 92.516473 244.038624 
L 91.232246 243.950156 
L 91.066378 243.940441 
L 89.866651 243.858176 
L 89.373256 243.829498 
L 88.222537 243.751382 
L 87.980432 243.737416 
L 86.907746 243.66493 
L 86.232749 243.62629 
L 85.211808 243.557983 
L 84.895554 243.540015 
L 83.946496 243.476806 
L 83.094854 243.428784 
L 82.200094 243.369775 
L 81.811705 243.348038 
L 80.982979 243.29363 
L 79.959478 243.236776 
L 79.187429 243.18658 
L 78.728848 243.161295 
L 78.01727 243.115238 
L 76.82653 243.050069 
L 76.173845 243.00823 
L 75.646951 242.979605 
L 75.049442 242.941473 
L 73.695925 242.868479 
L 73.159372 242.834563 
L 72.56598 242.802795 
L 72.079564 242.772184 
L 70.567583 242.691827 
L 70.14404 242.665424 
L 69.485903 242.630699 
L 69.107701 242.607226 
L 67.441425 242.519945 
L 67.127877 242.500666 
L 66.40669 242.463161 
L 66.133918 242.446462 
L 64.317378 242.35267 
L 64.110909 242.340147 
L 63.328314 242.300028 
L 63.158274 242.28976 
L 61.195371 242.189848 
L 61.093163 242.183733 
L 60.250746 242.141157 
L 60.180828 242.136992 
L 58.075336 242.031332 
L 58.074662 242.031292 
L 57.62857 242.006689 
L 57.62857 244.3824 
L 57.62857 247.7088 
L 57.62857 251.0352 
L 57.62857 254.3616 
L 57.62857 257.688 
L 57.62857 261.0144 
L 57.62857 263.558767 
L 57.773664 263.57609 
L 58.865674 263.715111 
L 59.408958 263.780453 
L 60.598619 263.933002 
L 60.749898 263.951292 
L 62.100895 264.125088 
L 62.288095 264.147838 
L 63.722063 264.333661 
L 63.724711 264.333985 
L 63.777133 264.3408 
L 65.164495 264.521199 
L 65.340912 264.545535 
L 66.698266 264.723304 
L 66.847339 264.743977 
L 68.038201 264.900441 
L 68.585881 264.976793 
L 69.670362 265.12032 
L 69.974251 265.162911 
L 70.908571 265.286966 
L 71.835192 265.417532 
L 72.640944 265.525307 
L 73.10285 265.590743 
L 73.775497 265.681009 
L 75.089006 265.868099 
L 75.609964 265.938532 
L 76.233198 266.027787 
L 76.638867 266.082815 
L 78.347488 266.328859 
L 78.577367 266.360277 
L 79.365356 266.474375 
L 79.498563 266.492642 
L 80.87407 266.69292 
L 81.466369 266.779104 
L 81.852555 266.836776 
L 82.76109 266.970388 
L 84.086609 267.165391 
L 84.440894 267.217537 
L 86.411977 267.516079 
L 86.699 267.558776 
L 86.775353 267.57014 
L 87.408995 267.6672 
L 89.305471 267.957515 
L 90.08252 268.079543 
L 91.422115 268.286304 
L 91.904592 268.3629 
L 93.658408 268.64148 
L 93.745073 268.655233 
L 93.754274 268.656772 
L 94.614979 268.79413 
L 94.722106 268.812117 
L 96.583768 269.110907 
L 96.897954 269.164081 
L 97.571578 269.272817 
L 98.015068 269.34815 
L 99.418174 269.575945 
L 100.043852 269.683085 
L 100.526214 269.761854 
L 101.314019 269.897255 
L 102.248135 270.050686 
L 103.192058 270.214251 
L 103.33993 270.238305 
L 103.33993 267.6672 
L 103.33993 264.3408 
L 103.33993 261.0144 
L 103.33993 257.688 
L 103.33993 254.3616 
L 103.33993 251.0352 
L 103.33993 247.7088 
" clip-path="url(#p699213df75)" style="fill: #ff9400"/>
   </g>
   <g id="PathCollection_9">
    <path d="M 103.33993 270.238305 
L 103.192058 270.214251 
L 102.248135 270.050686 
L 101.314019 269.897255 
L 100.526214 269.761854 
L 100.043852 269.683085 
L 99.418174 269.575945 
L 98.015068 269.34815 
L 97.571578 269.272817 
L 96.897954 269.164081 
L 96.583768 269.110907 
L 94.722106 268.812117 
L 94.614979 268.79413 
L 93.754274 268.656772 
L 93.745073 268.655233 
L 93.658408 268.64148 
L 91.904592 268.3629 
L 91.422115 268.286304 
L 90.08252 268.079543 
L 89.305471 267.957515 
L 87.408995 267.6672 
L 86.775353 267.57014 
L 86.699 267.558776 
L 86.411977 267.516079 
L 84.440894 267.217537 
L 84.086609 267.165391 
L 82.76109 266.970388 
L 81.852555 266.836776 
L 81.466369 266.779104 
L 80.87407 266.69292 
L 79.498563 266.492642 
L 79.365356 266.474375 
L 78.577367 266.360277 
L 78.347488 266.328859 
L 76.638867 266.082815 
L 76.233198 266.027787 
L 75.609964 265.938532 
L 75.089006 265.868099 
L 73.775497 265.681009 
L 73.10285 265.590743 
L 72.640944 265.525307 
L 71.835192 265.417532 
L 70.908571 265.286966 
L 69.974251 265.162911 
L 69.670362 265.12032 
L 68.585881 264.976793 
L 68.038201 264.900441 
L 66.847339 264.743977 
L 66.698266 264.723304 
L 65.340912 264.545535 
L 65.164495 264.521199 
L 63.777133 264.3408 
L 63.724711 264.333985 
L 63.722063 264.333661 
L 62.288095 264.147838 
L 62.100895 264.125088 
L 60.749898 263.951292 
L 60.598619 263.933002 
L 59.408958 263.780453 
L 58.865674 263.715111 
L 57.773664 263.57609 
L 57.62857 263.558767 
L 57.62857 264.3408 
L 57.62857 267.6672 
L 57.62857 270.9936 
L 57.62857 274.32 
L 57.62857 277.6464 
L 57.62857 280.9728 
L 57.62857 284.2992 
L 57.62857 285.265379 
L 57.818461 285.300011 
L 58.624751 285.450848 
L 59.78185 285.673604 
L 60.393387 285.788661 
L 60.980129 285.902128 
L 61.42684 285.986435 
L 63.123568 286.316075 
L 63.333191 286.355866 
L 64.143656 286.514046 
L 64.225449 286.529621 
L 64.846085 286.65132 
L 66.059929 286.890614 
L 66.541139 286.985636 
L 67.8844 287.254712 
L 68.556784 287.388474 
L 69.731821 287.6256 
L 70.87443 287.85683 
L 71.047083 287.892263 
L 71.810434 288.049209 
L 72.475189 288.18604 
L 73.530759 288.402041 
L 74.483973 288.59988 
L 75.381091 288.787052 
L 75.507476 288.814112 
L 76.28772 288.977658 
L 76.55916 289.035977 
L 78.16007 289.373092 
L 78.682383 289.486002 
L 79.217222 289.59916 
L 79.935983 289.755085 
L 80.935221 289.967488 
L 81.859443 290.169242 
L 82.144911 290.230214 
L 83.318854 290.487396 
L 83.706397 290.570564 
L 85.038747 290.864309 
L 85.070716 290.871203 
L 85.435868 290.952 
L 86.473245 291.183086 
L 86.709686 291.237087 
L 87.994097 291.524965 
L 88.221422 291.57714 
L 89.235669 291.805267 
L 90.109741 292.006911 
L 90.915476 292.189275 
L 91.406596 292.303144 
L 91.993923 292.43655 
L 93.516516 292.791407 
L 93.834847 292.864175 
L 94.59422 293.042061 
L 94.747839 293.077304 
L 95.711008 293.30412 
L 96.57333 293.508002 
L 97.810559 293.804496 
L 98.400288 293.945174 
L 98.983299 294.08443 
L 99.103039 294.113096 
L 99.784325 294.2784 
L 101.147539 294.609101 
L 101.385762 294.667646 
L 102.569046 294.959157 
L 102.981786 295.06026 
L 103.33993 295.151498 
L 103.33993 294.2784 
L 103.33993 290.952 
L 103.33993 287.6256 
L 103.33993 284.2992 
L 103.33993 280.9728 
L 103.33993 277.6464 
L 103.33993 274.32 
L 103.33993 270.9936 
" clip-path="url(#p699213df75)" style="fill: #ff3800"/>
   </g>
   <g id="PathCollection_10">
    <path d="M 103.33993 295.151498 
L 102.981786 295.06026 
L 102.569046 294.959157 
L 101.385762 294.667646 
L 101.147539 294.609101 
L 99.784325 294.2784 
L 99.103039 294.113096 
L 98.983299 294.08443 
L 98.400288 293.945174 
L 97.810559 293.804496 
L 96.57333 293.508002 
L 95.711008 293.30412 
L 94.747839 293.077304 
L 94.59422 293.042061 
L 93.834847 292.864175 
L 93.516516 292.791407 
L 91.993923 292.43655 
L 91.406596 292.303144 
L 90.915476 292.189275 
L 90.109741 292.006911 
L 89.235669 291.805267 
L 88.221422 291.57714 
L 87.994097 291.524965 
L 86.709686 291.237087 
L 86.473245 291.183086 
L 85.435868 290.952 
L 85.070716 290.871203 
L 85.038747 290.864309 
L 83.706397 290.570564 
L 83.318854 290.487396 
L 82.144911 290.230214 
L 81.859443 290.169242 
L 80.935221 289.967488 
L 79.935983 289.755085 
L 79.217222 289.59916 
L 78.682383 289.486002 
L 78.16007 289.373092 
L 76.55916 289.035977 
L 76.28772 288.977658 
L 75.507476 288.814112 
L 75.381091 288.787052 
L 74.483973 288.59988 
L 73.530759 288.402041 
L 72.475189 288.18604 
L 71.810434 288.049209 
L 71.047083 287.892263 
L 70.87443 287.85683 
L 69.731821 287.6256 
L 68.556784 287.388474 
L 67.8844 287.254712 
L 66.541139 286.985636 
L 66.059929 286.890614 
L 64.846085 286.65132 
L 64.225449 286.529621 
L 64.143656 286.514046 
L 63.333191 286.355866 
L 63.123568 286.316075 
L 61.42684 285.986435 
L 60.980129 285.902128 
L 60.393387 285.788661 
L 59.78185 285.673604 
L 58.624751 285.450848 
L 57.818461 285.300011 
L 57.62857 285.265379 
L 57.62857 287.6256 
L 57.62857 290.952 
L 57.62857 294.2784 
L 57.62857 297.6048 
L 57.62857 300.9312 
L 57.62857 304.2576 
L 57.62857 307.584 
L 59.152282 307.584 
L 60.675994 307.584 
L 62.199706 307.584 
L 63.723418 307.584 
L 65.24713 307.584 
L 66.770842 307.584 
L 68.294554 307.584 
L 69.818266 307.584 
L 71.341978 307.584 
L 72.86569 307.584 
L 74.389402 307.584 
L 75.913114 307.584 
L 77.436826 307.584 
L 78.960538 307.584 
L 80.48425 307.584 
L 82.007962 307.584 
L 83.531674 307.584 
L 85.055386 307.584 
L 86.579098 307.584 
L 88.10281 307.584 
L 89.626522 307.584 
L 91.150234 307.584 
L 92.673946 307.584 
L 94.197658 307.584 
L 95.72137 307.584 
L 97.245082 307.584 
L 98.768794 307.584 
L 100.292506 307.584 
L 101.816218 307.584 
L 103.33993 307.584 
L 103.33993 304.2576 
L 103.33993 300.9312 
L 103.33993 297.6048 
" clip-path="url(#p699213df75)" style="fill: #b60000"/>
   </g>
   <g id="PathCollection_11">
    <path clip-path="url(#p699213df75)" style="fill: #0000b6"/>
   </g>
   <g id="PathCollection_12">
    <path clip-path="url(#p699213df75)" style="fill: #0018ff"/>
   </g>
   <g id="PathCollection_13">
    <path d="M 100.4544 90.559182 
L 101.640897 88.962944 
L 103.8304 85.824 
L 105.802726 82.814431 
L 107.866537 79.55168 
L 109.20546 77.251517 
L 109.390887 76.9536 
L 109.51546 76.713707 
L 109.662787 76.4481 
L 110.908915 74.35552 
L 112.169119 72.050086 
L 114.274452 68.0832 
L 115.619284 65.372678 
L 117.358233 61.81088 
L 117.773686 60.941825 
L 118.652967 59.2128 
L 119.233897 57.846271 
L 119.607756 56.883899 
L 119.730488 56.61472 
L 120.316495 55.188212 
L 122.383555 50.3424 
L 123.097323 48.543891 
L 124.845056 44.07008 
L 125.609535 41.867341 
L 125.752974 41.472 
L 124.73856 41.472 
L 116.64384 41.472 
L 108.54912 41.472 
L 100.4544 41.472 
L 100.4544 50.3424 
L 100.4544 59.2128 
L 100.4544 68.0832 
L 100.4544 76.9536 
L 100.4544 85.824 
" clip-path="url(#p699213df75)" style="fill: #0080ff"/>
   </g>
   <g id="PathCollection_14">
    <path d="M 125.752974 41.472 
L 125.609535 41.867341 
L 124.845056 44.07008 
L 123.097323 48.543891 
L 122.383555 50.3424 
L 120.316495 55.188212 
L 119.730488 56.61472 
L 119.607756 56.883899 
L 119.233897 57.846271 
L 118.652967 59.2128 
L 117.773686 60.941825 
L 117.358233 61.81088 
L 115.619284 65.372678 
L 114.274452 68.0832 
L 112.169119 72.050086 
L 110.908915 74.35552 
L 109.662787 76.4481 
L 109.51546 76.713707 
L 109.390887 76.9536 
L 109.20546 77.251517 
L 107.866537 79.55168 
L 105.802726 82.814431 
L 103.8304 85.824 
L 101.640897 88.962944 
L 100.4544 90.559182 
L 100.4544 94.6944 
L 100.4544 103.5648 
L 100.4544 112.4352 
L 100.4544 121.3056 
L 100.4544 130.176 
L 100.4544 139.0464 
L 100.4544 146.39192 
L 102.720924 145.042617 
L 103.635242 144.431153 
L 109.803528 140.421012 
L 111.759725 139.0464 
L 115.575631 136.220392 
L 118.608776 133.848052 
L 119.433168 133.232617 
L 120.004847 132.77408 
L 121.1431 131.808 
L 122.409863 130.754097 
L 123.138622 130.176 
L 123.498494 129.868155 
L 123.681656 129.696265 
L 126.104564 127.57792 
L 128.465081 125.389216 
L 132.601927 121.3056 
L 132.767748 121.132232 
L 132.990582 120.889449 
L 136.840547 116.826465 
L 138.444178 115.03328 
L 140.421849 112.664945 
L 140.53706 112.532251 
L 140.626261 112.4352 
L 140.677829 112.373095 
L 140.706767 112.334781 
L 142.778259 109.83712 
L 144.55405 107.538318 
L 147.472582 103.5648 
L 148.474022 102.113189 
L 150.997063 98.341564 
L 151.576321 97.492701 
L 151.706789 97.29248 
L 151.823733 97.097244 
L 153.408354 94.6944 
L 154.173648 93.358196 
L 154.944335 92.09632 
L 157.946921 86.732967 
L 158.436163 85.824 
L 160.052659 82.607513 
L 161.636357 79.55168 
L 161.848087 79.100868 
L 162.312538 78.243279 
L 162.951496 76.9536 
L 163.610739 75.341643 
L 164.048514 74.35552 
L 165.934816 69.995027 
L 166.748151 68.0832 
L 168.729955 63.067689 
L 169.21499 61.81088 
L 169.513705 60.934544 
L 169.85147 60.070603 
L 170.2125 59.2128 
L 170.604917 57.986364 
L 171.112002 56.61472 
L 173.069803 50.602195 
L 173.159187 50.3424 
L 173.197341 50.222364 
L 175.129748 44.07008 
L 175.557379 42.493515 
L 175.85318 41.472 
L 173.30688 41.472 
L 165.21216 41.472 
L 157.11744 41.472 
L 149.02272 41.472 
L 140.928 41.472 
L 132.83328 41.472 
" clip-path="url(#p699213df75)" style="fill: #00e4f8"/>
   </g>
   <g id="PathCollection_15">
    <path d="M 175.85318 41.472 
L 175.557379 42.493515 
L 175.129748 44.07008 
L 173.197341 50.222364 
L 173.159187 50.3424 
L 173.069803 50.602195 
L 171.112002 56.61472 
L 170.604917 57.986364 
L 170.2125 59.2128 
L 169.85147 60.070603 
L 169.513705 60.934544 
L 169.21499 61.81088 
L 168.729955 63.067689 
L 166.748151 68.0832 
L 165.934816 69.995027 
L 164.048514 74.35552 
L 163.610739 75.341643 
L 162.951496 76.9536 
L 162.312538 78.243279 
L 161.848087 79.100868 
L 161.636357 79.55168 
L 160.052659 82.607513 
L 158.436163 85.824 
L 157.946921 86.732967 
L 154.944335 92.09632 
L 154.173648 93.358196 
L 153.408354 94.6944 
L 151.823733 97.097244 
L 151.706789 97.29248 
L 151.576321 97.492701 
L 150.997063 98.341564 
L 148.474022 102.113189 
L 147.472582 103.5648 
L 144.55405 107.538318 
L 142.778259 109.83712 
L 140.706767 112.334781 
L 140.677829 112.373095 
L 140.626261 112.4352 
L 140.53706 112.532251 
L 140.421849 112.664945 
L 138.444178 115.03328 
L 136.840547 116.826465 
L 132.990582 120.889449 
L 132.767748 121.132232 
L 132.601927 121.3056 
L 128.465081 125.389216 
L 126.104564 127.57792 
L 123.681656 129.696265 
L 123.498494 129.868155 
L 123.138622 130.176 
L 122.409863 130.754097 
L 121.1431 131.808 
L 120.004847 132.77408 
L 119.433168 133.232617 
L 118.608776 133.848052 
L 115.575631 136.220392 
L 111.759725 139.0464 
L 109.803528 140.421012 
L 103.635242 144.431153 
L 102.720924 145.042617 
L 100.4544 146.39192 
L 100.4544 147.9168 
L 100.4544 156.7872 
L 100.4544 165.6576 
L 100.4544 174.528 
L 100.4544 183.3984 
L 100.4544 185.721851 
L 102.207953 185.319987 
L 107.443201 183.900383 
L 108.842019 183.531349 
L 109.319066 183.3984 
L 116.45038 181.340865 
L 118.116647 180.80032 
L 118.919176 180.547531 
L 119.401027 180.377005 
L 127.6369 177.704075 
L 132.286148 175.975469 
L 133.257911 175.651386 
L 136.255034 174.528 
L 139.695026 173.176876 
L 143.838111 171.339026 
L 147.278094 169.912493 
L 150.884775 168.25568 
L 151.067577 168.174743 
L 156.169964 165.6576 
L 156.611525 165.427962 
L 161.046156 163.05952 
L 162.233947 162.393999 
L 163.356364 161.696815 
L 166.40136 159.933297 
L 171.406387 156.7872 
L 172.590317 156.001973 
L 176.873005 152.879349 
L 179.27963 151.173408 
L 180.142754 150.51488 
L 181.070661 149.844153 
L 183.461632 147.9168 
L 184.839644 146.760783 
L 185.525278 146.114321 
L 186.434468 145.31872 
L 191.18527 140.897194 
L 193.014017 139.0464 
L 196.26864 135.547915 
L 198.711333 132.77408 
L 199.605342 131.685459 
L 200.940633 130.176 
L 201.720293 129.191576 
L 202.153945 128.572889 
L 202.927814 127.57792 
L 206.668879 122.382927 
L 207.393202 121.3056 
L 211.183487 115.281051 
L 211.342971 115.03328 
L 211.357038 115.009426 
L 212.959661 112.4352 
L 214.001795 110.37075 
L 214.298411 109.83712 
L 215.376521 107.787218 
L 217.523341 103.5648 
L 219.009446 100.424434 
L 220.420215 97.29248 
L 221.372975 94.922363 
L 221.480694 94.6944 
L 221.539141 94.541861 
L 222.581783 92.09632 
L 224.054477 88.212108 
L 224.923309 85.824 
L 226.698813 80.538162 
L 227.051689 79.55168 
L 227.119603 79.334065 
L 227.499345 78.34979 
L 227.979704 76.9536 
L 228.614683 74.607655 
L 228.673168 74.35552 
L 230.25685 68.842291 
L 230.471794 68.0832 
L 231.568509 63.854042 
L 232.106473 61.81088 
L 232.429656 60.611681 
L 232.84698 59.2128 
L 233.102628 57.980984 
L 233.269586 57.036297 
L 233.374496 56.61472 
L 233.676843 55.15066 
L 234.776094 50.3424 
L 235.385695 47.406744 
L 236.076581 44.07008 
L 236.379826 42.236747 
L 236.539173 41.472 
L 229.96992 41.472 
L 221.8752 41.472 
L 213.78048 41.472 
L 205.68576 41.472 
L 197.59104 41.472 
L 189.49632 41.472 
L 181.4016 41.472 
" clip-path="url(#p699213df75)" style="fill: #53ffa4"/>
   </g>
   <g id="PathCollection_16">
    <path d="M 236.539173 41.472 
L 236.379826 42.236747 
L 236.076581 44.07008 
L 235.385695 47.406744 
L 234.776094 50.3424 
L 233.676843 55.15066 
L 233.374496 56.61472 
L 233.269586 57.036297 
L 233.102628 57.980984 
L 232.84698 59.2128 
L 232.429656 60.611681 
L 232.106473 61.81088 
L 231.568509 63.854042 
L 230.471794 68.0832 
L 230.25685 68.842291 
L 228.673168 74.35552 
L 228.614683 74.607655 
L 227.979704 76.9536 
L 227.499345 78.34979 
L 227.119603 79.334065 
L 227.051689 79.55168 
L 226.698813 80.538162 
L 224.923309 85.824 
L 224.054477 88.212108 
L 222.581783 92.09632 
L 221.539141 94.541861 
L 221.480694 94.6944 
L 221.372975 94.922363 
L 220.420215 97.29248 
L 219.009446 100.424434 
L 217.523341 103.5648 
L 215.376521 107.787218 
L 214.298411 109.83712 
L 214.001795 110.37075 
L 212.959661 112.4352 
L 211.357038 115.009426 
L 211.342971 115.03328 
L 211.183487 115.281051 
L 207.393202 121.3056 
L 206.668879 122.382927 
L 202.927814 127.57792 
L 202.153945 128.572889 
L 201.720293 129.191576 
L 200.940633 130.176 
L 199.605342 131.685459 
L 198.711333 132.77408 
L 196.26864 135.547915 
L 193.014017 139.0464 
L 191.18527 140.897194 
L 186.434468 145.31872 
L 185.525278 146.114321 
L 184.839644 146.760783 
L 183.461632 147.9168 
L 181.070661 149.844153 
L 180.142754 150.51488 
L 179.27963 151.173408 
L 176.873005 152.879349 
L 172.590317 156.001973 
L 171.406387 156.7872 
L 166.40136 159.933297 
L 163.356364 161.696815 
L 162.233947 162.393999 
L 161.046156 163.05952 
L 156.611525 165.427962 
L 156.169964 165.6576 
L 151.067577 168.174743 
L 150.884775 168.25568 
L 147.278094 169.912493 
L 143.838111 171.339026 
L 139.695026 173.176876 
L 136.255034 174.528 
L 133.257911 175.651386 
L 132.286148 175.975469 
L 127.6369 177.704075 
L 119.401027 180.377005 
L 118.919176 180.547531 
L 118.116647 180.80032 
L 116.45038 181.340865 
L 109.319066 183.3984 
L 108.842019 183.531349 
L 107.443201 183.900383 
L 102.207953 185.319987 
L 100.4544 185.721851 
L 100.4544 192.2688 
L 100.4544 201.1392 
L 100.4544 210.0096 
L 100.4544 217.260154 
L 101.997687 217.188827 
L 104.546675 217.063267 
L 113.851627 216.473162 
L 114.844221 216.423737 
L 116.946599 216.28192 
L 118.964476 216.148974 
L 119.153341 216.130025 
L 129.681279 215.425957 
L 130.831284 215.305993 
L 134.735148 215.0411 
L 136.505229 214.856185 
L 144.826914 214.282129 
L 147.51862 213.988782 
L 150.449162 213.783333 
L 154.030786 213.392034 
L 159.826422 212.978171 
L 164.282825 212.468207 
L 166.091772 212.336663 
L 171.779512 211.683328 
L 174.640409 211.470915 
L 181.146578 210.684275 
L 181.642415 210.64669 
L 186.883025 210.0096 
L 189.224782 209.712042 
L 189.873727 209.596028 
L 197.068221 208.626453 
L 198.192835 208.417516 
L 203.566537 207.687302 
L 208.711543 206.69387 
L 212.328598 206.168564 
L 215.472206 205.534044 
L 217.516968 205.233738 
L 224.605273 203.73728 
L 226.621641 203.293637 
L 228.746915 202.845098 
L 235.298917 201.1392 
L 237.029581 200.669381 
L 243.288527 198.768048 
L 243.939512 198.578616 
L 244.04242 198.54112 
L 248.021497 197.195188 
L 250.82567 196.025739 
L 255.972651 194.152054 
L 259.98634 192.2688 
L 261.974994 191.279876 
L 262.938324 190.709182 
L 267.070912 188.57301 
L 271.061049 185.99648 
L 273.095288 184.602053 
L 274.719705 183.3984 
L 276.411512 181.91685 
L 277.853217 180.80032 
L 280.137399 178.758666 
L 284.266183 174.528 
L 285.450481 173.23221 
L 289.26981 168.25568 
L 290.019297 167.194678 
L 290.478136 166.612162 
L 291.066234 165.6576 
L 291.727932 164.392777 
L 292.582049 163.05952 
L 295.256964 158.187452 
L 295.948876 156.7872 
L 298.245895 151.772149 
L 298.734759 150.51488 
L 299.034813 149.636008 
L 299.374482 148.772743 
L 299.788795 147.9168 
L 300.05796 147.23053 
L 300.202693 146.7277 
L 300.71005 145.31872 
L 302.606668 139.282805 
L 302.690207 139.0464 
L 302.724932 138.939592 
L 304.479837 132.77408 
L 304.880248 131.110069 
L 305.003493 130.717455 
L 305.130783 130.176 
L 305.217339 129.581458 
L 305.333156 129.036354 
L 305.728264 127.57792 
L 306.291241 125.106844 
L 307.051984 121.3056 
L 308.094 115.528847 
L 308.201426 115.03328 
L 308.226755 114.888268 
L 308.486491 113.841307 
L 308.752262 112.4352 
L 308.900524 110.92631 
L 309.06364 109.83712 
L 309.381034 107.628604 
L 310.007494 103.5648 
L 310.249356 101.798192 
L 310.838489 97.29248 
L 310.917897 96.703716 
L 311.273125 94.6944 
L 311.430663 92.812378 
L 311.46061 92.09632 
L 311.875484 88.359407 
L 312.147578 85.824 
L 312.546446 81.513526 
L 312.748638 79.55168 
L 312.77048 79.423204 
L 313.101818 76.9536 
L 313.206144 74.375843 
L 313.207618 74.35552 
L 313.222674 74.182674 
L 313.747194 68.0832 
L 314.133721 62.737633 
L 314.200102 61.81088 
L 314.21379 61.390663 
L 314.468818 59.2128 
L 314.513739 57.171086 
L 314.559337 56.61472 
L 314.622092 55.152798 
L 314.957999 50.3424 
L 315.196142 46.161061 
L 315.321227 44.07008 
L 315.340446 43.138467 
L 315.454557 41.472 
L 310.91712 41.472 
L 302.8224 41.472 
L 294.72768 41.472 
L 286.63296 41.472 
L 278.53824 41.472 
L 270.44352 41.472 
L 262.3488 41.472 
L 254.25408 41.472 
L 246.15936 41.472 
L 238.06464 41.472 
" clip-path="url(#p699213df75)" style="fill: #a4ff53"/>
   </g>
   <g id="PathCollection_17">
    <path d="M 315.454557 41.472 
L 315.340446 43.138467 
L 315.321227 44.07008 
L 315.196142 46.161061 
L 314.957999 50.3424 
L 314.622092 55.152798 
L 314.559337 56.61472 
L 314.513739 57.171086 
L 314.468818 59.2128 
L 314.21379 61.390663 
L 314.200102 61.81088 
L 314.133721 62.737633 
L 313.747194 68.0832 
L 313.222674 74.182674 
L 313.207618 74.35552 
L 313.206144 74.375843 
L 313.101818 76.9536 
L 312.77048 79.423204 
L 312.748638 79.55168 
L 312.546446 81.513526 
L 312.147578 85.824 
L 311.875484 88.359407 
L 311.46061 92.09632 
L 311.430663 92.812378 
L 311.273125 94.6944 
L 310.917897 96.703716 
L 310.838489 97.29248 
L 310.249356 101.798192 
L 310.007494 103.5648 
L 309.381034 107.628604 
L 309.06364 109.83712 
L 308.900524 110.92631 
L 308.752262 112.4352 
L 308.486491 113.841307 
L 308.226755 114.888268 
L 308.201426 115.03328 
L 308.094 115.528847 
L 307.051984 121.3056 
L 306.291241 125.106844 
L 305.728264 127.57792 
L 305.333156 129.036354 
L 305.217339 129.581458 
L 305.130783 130.176 
L 305.003493 130.717455 
L 304.880248 131.110069 
L 304.479837 132.77408 
L 302.724932 138.939592 
L 302.690207 139.0464 
L 302.606668 139.282805 
L 300.71005 145.31872 
L 300.202693 146.7277 
L 300.05796 147.23053 
L 299.788795 147.9168 
L 299.374482 148.772743 
L 299.034813 149.636008 
L 298.734759 150.51488 
L 298.245895 151.772149 
L 295.948876 156.7872 
L 295.256964 158.187452 
L 292.582049 163.05952 
L 291.727932 164.392777 
L 291.066234 165.6576 
L 290.478136 166.612162 
L 290.019297 167.194678 
L 289.26981 168.25568 
L 285.450481 173.23221 
L 284.266183 174.528 
L 280.137399 178.758666 
L 277.853217 180.80032 
L 276.411512 181.91685 
L 274.719705 183.3984 
L 273.095288 184.602053 
L 271.061049 185.99648 
L 267.070912 188.57301 
L 262.938324 190.709182 
L 261.974994 191.279876 
L 259.98634 192.2688 
L 255.972651 194.152054 
L 250.82567 196.025739 
L 248.021497 197.195188 
L 244.04242 198.54112 
L 243.939512 198.578616 
L 243.288527 198.768048 
L 237.029581 200.669381 
L 235.298917 201.1392 
L 228.746915 202.845098 
L 226.621641 203.293637 
L 224.605273 203.73728 
L 217.516968 205.233738 
L 215.472206 205.534044 
L 212.328598 206.168564 
L 208.711543 206.69387 
L 203.566537 207.687302 
L 198.192835 208.417516 
L 197.068221 208.626453 
L 189.873727 209.596028 
L 189.224782 209.712042 
L 186.883025 210.0096 
L 181.642415 210.64669 
L 181.146578 210.684275 
L 174.640409 211.470915 
L 171.779512 211.683328 
L 166.091772 212.336663 
L 164.282825 212.468207 
L 159.826422 212.978171 
L 154.030786 213.392034 
L 150.449162 213.783333 
L 147.51862 213.988782 
L 144.826914 214.282129 
L 136.505229 214.856185 
L 134.735148 215.0411 
L 130.831284 215.305993 
L 129.681279 215.425957 
L 119.153341 216.130025 
L 118.964476 216.148974 
L 116.946599 216.28192 
L 114.844221 216.423737 
L 113.851627 216.473162 
L 104.546675 217.063267 
L 101.997687 217.188827 
L 100.4544 217.260154 
L 100.4544 218.88 
L 100.4544 227.7504 
L 100.4544 236.6208 
L 100.4544 244.582034 
L 100.79031 244.60253 
L 108.270945 245.186369 
L 108.802466 245.213577 
L 112.164199 245.4912 
L 116.511098 245.842377 
L 116.788167 245.873026 
L 123.85578 246.458573 
L 125.828522 246.685609 
L 132.171343 247.242391 
L 133.558055 247.408632 
L 138.75099 247.876823 
L 143.665988 248.491557 
L 147.740867 248.882414 
L 150.437791 249.23485 
L 153.431529 249.530315 
L 161.854824 250.682546 
L 163.196369 250.824088 
L 167.459067 251.43552 
L 167.844137 251.477412 
L 169.742225 251.76352 
L 176.754018 252.796924 
L 186.025156 254.3616 
L 188.544956 254.793429 
L 191.87806 255.442686 
L 199.659844 256.95968 
L 199.940614 257.016068 
L 200.034525 257.039233 
L 209.500833 259.051346 
L 212.504373 259.855987 
L 214.855903 260.386908 
L 220.783035 262.035178 
L 222.573953 262.466289 
L 225.081257 263.232 
L 229.481646 264.523757 
L 230.608215 264.920647 
L 235.232418 266.335621 
L 243.590082 269.50432 
L 243.69964 269.544641 
L 245.574859 270.237993 
L 249.870071 272.1024 
L 252.134269 273.064594 
L 255.537632 274.70048 
L 258.654241 276.150992 
L 261.035537 277.498489 
L 263.23731 278.622196 
L 267.151642 280.9728 
L 269.312112 282.212626 
L 275.526416 286.542766 
L 276.250461 287.025248 
L 276.531985 287.24512 
L 277.699248 288.041971 
L 279.878854 289.8432 
L 282.33014 291.796275 
L 283.022647 292.44128 
L 288.166681 297.032909 
L 289.68899 298.7136 
L 293.298335 302.495013 
L 295.341585 304.98592 
L 296.18983 305.981738 
L 297.425965 307.584 
L 302.8224 307.584 
L 310.91712 307.584 
L 319.01184 307.584 
L 327.10656 307.584 
L 335.20128 307.584 
L 343.296 307.584 
L 343.296 298.7136 
L 343.296 289.8432 
L 343.296 280.9728 
L 343.296 272.1024 
L 343.296 263.232 
L 343.296 254.3616 
L 343.296 245.4912 
L 343.296 236.6208 
L 343.296 227.7504 
L 343.296 218.88 
L 343.296 210.0096 
L 343.296 201.1392 
L 343.296 192.2688 
L 343.296 183.3984 
L 343.296 174.528 
L 343.296 165.6576 
L 343.296 156.7872 
L 343.296 147.9168 
L 343.296 139.0464 
L 343.296 130.176 
L 343.296 121.3056 
L 343.296 112.4352 
L 343.296 103.5648 
L 343.296 94.6944 
L 343.296 85.824 
L 343.296 76.9536 
L 343.296 68.0832 
L 343.296 59.2128 
L 343.296 50.3424 
L 343.296 41.472 
L 335.20128 41.472 
L 327.10656 41.472 
L 319.01184 41.472 
" clip-path="url(#p699213df75)" style="fill: #f8f500"/>
   </g>
   <g id="PathCollection_18">
    <path d="M 297.425965 307.584 
L 296.18983 305.981738 
L 295.341585 304.98592 
L 293.298335 302.495013 
L 289.68899 298.7136 
L 288.166681 297.032909 
L 283.022647 292.44128 
L 282.33014 291.796275 
L 279.878854 289.8432 
L 277.699248 288.041971 
L 276.531985 287.24512 
L 276.250461 287.025248 
L 275.526416 286.542766 
L 269.312112 282.212626 
L 267.151642 280.9728 
L 263.23731 278.622196 
L 261.035537 277.498489 
L 258.654241 276.150992 
L 255.537632 274.70048 
L 252.134269 273.064594 
L 249.870071 272.1024 
L 245.574859 270.237993 
L 243.69964 269.544641 
L 243.590082 269.50432 
L 235.232418 266.335621 
L 230.608215 264.920647 
L 229.481646 264.523757 
L 225.081257 263.232 
L 222.573953 262.466289 
L 220.783035 262.035178 
L 214.855903 260.386908 
L 212.504373 259.855987 
L 209.500833 259.051346 
L 200.034525 257.039233 
L 199.940614 257.016068 
L 199.659844 256.95968 
L 191.87806 255.442686 
L 188.544956 254.793429 
L 186.025156 254.3616 
L 176.754018 252.796924 
L 169.742225 251.76352 
L 167.844137 251.477412 
L 167.459067 251.43552 
L 163.196369 250.824088 
L 161.854824 250.682546 
L 153.431529 249.530315 
L 150.437791 249.23485 
L 147.740867 248.882414 
L 143.665988 248.491557 
L 138.75099 247.876823 
L 133.558055 247.408632 
L 132.171343 247.242391 
L 125.828522 246.685609 
L 123.85578 246.458573 
L 116.788167 245.873026 
L 116.511098 245.842377 
L 112.164199 245.4912 
L 108.802466 245.213577 
L 108.270945 245.186369 
L 100.79031 244.60253 
L 100.4544 244.582034 
L 100.4544 245.4912 
L 100.4544 254.3616 
L 100.4544 263.232 
L 100.4544 269.743832 
L 102.317223 270.061071 
L 105.161843 270.564895 
L 110.07816 271.40836 
L 113.817663 272.1024 
L 120.079304 273.259057 
L 121.5407 273.553927 
L 127.192764 274.70048 
L 129.954421 275.257127 
L 130.741105 275.437832 
L 134.619759 276.246569 
L 137.160091 276.843829 
L 143.455405 278.203205 
L 148.442185 279.436961 
L 149.512589 279.676823 
L 154.62076 280.9728 
L 156.653019 281.481724 
L 157.905437 281.836307 
L 164.252558 283.511481 
L 166.412583 284.148587 
L 169.616782 285.016504 
L 176.846208 287.24512 
L 178.154585 287.642799 
L 179.948507 288.194421 
L 184.862553 289.8432 
L 187.543647 290.72953 
L 192.332553 292.44128 
L 194.518518 293.210148 
L 195.684761 293.670431 
L 199.030222 294.906162 
L 204.103291 296.979491 
L 206.439877 297.887219 
L 208.317997 298.7136 
L 213.017683 300.731624 
L 214.875537 301.610636 
L 217.972023 302.990801 
L 221.933263 304.98592 
L 224.653701 306.322823 
L 227.022639 307.584 
L 229.96992 307.584 
L 238.06464 307.584 
L 246.15936 307.584 
L 254.25408 307.584 
L 262.3488 307.584 
L 270.44352 307.584 
L 278.53824 307.584 
L 286.63296 307.584 
L 294.72768 307.584 
" clip-path="url(#p699213df75)" style="fill: #ff9400"/>
   </g>
   <g id="PathCollection_19">
    <path d="M 227.022639 307.584 
L 224.653701 306.322823 
L 221.933263 304.98592 
L 217.972023 302.990801 
L 214.875537 301.610636 
L 213.017683 300.731624 
L 208.317997 298.7136 
L 206.439877 297.887219 
L 204.103291 296.979491 
L 199.030222 294.906162 
L 195.684761 293.670431 
L 194.518518 293.210148 
L 192.332553 292.44128 
L 187.543647 290.72953 
L 184.862553 289.8432 
L 179.948507 288.194421 
L 178.154585 287.642799 
L 176.846208 287.24512 
L 169.616782 285.016504 
L 166.412583 284.148587 
L 164.252558 283.511481 
L 157.905437 281.836307 
L 156.653019 281.481724 
L 154.62076 280.9728 
L 149.512589 279.676823 
L 148.442185 279.436961 
L 143.455405 278.203205 
L 137.160091 276.843829 
L 134.619759 276.246569 
L 130.741105 275.437832 
L 129.954421 275.257127 
L 127.192764 274.70048 
L 121.5407 273.553927 
L 120.079304 273.259057 
L 113.817663 272.1024 
L 110.07816 271.40836 
L 105.161843 270.564895 
L 102.317223 270.061071 
L 100.4544 269.743832 
L 100.4544 272.1024 
L 100.4544 280.9728 
L 100.4544 289.8432 
L 100.4544 294.465126 
L 101.931424 294.80605 
L 105.911697 295.823445 
L 110.220195 296.882394 
L 116.590862 298.573445 
L 116.687571 298.597908 
L 117.113438 298.7136 
L 123.209862 300.388786 
L 127.389611 301.61869 
L 131.312429 302.737098 
L 134.7487 303.780951 
L 135.976854 304.139192 
L 138.66635 304.98592 
L 143.38058 306.47076 
L 146.757865 307.584 
L 149.02272 307.584 
L 157.11744 307.584 
L 165.21216 307.584 
L 173.30688 307.584 
L 181.4016 307.584 
L 189.49632 307.584 
L 197.59104 307.584 
L 205.68576 307.584 
L 213.78048 307.584 
L 221.8752 307.584 
" clip-path="url(#p699213df75)" style="fill: #ff3800"/>
   </g>
   <g id="PathCollection_20">
    <path d="M 146.757865 307.584 
L 143.38058 306.47076 
L 138.66635 304.98592 
L 135.976854 304.139192 
L 134.7487 303.780951 
L 131.312429 302.737098 
L 127.389611 301.61869 
L 123.209862 300.388786 
L 117.113438 298.7136 
L 116.687571 298.597908 
L 116.590862 298.573445 
L 110.220195 296.882394 
L 105.911697 295.823445 
L 101.931424 294.80605 
L 100.4544 294.465126 
L 100.4544 298.7136 
L 100.4544 307.584 
L 108.54912 307.584 
L 116.64384 307.584 
L 124.73856 307.584 
L 132.83328 307.584 
L 140.928 307.584 
" clip-path="url(#p699213df75)" style="fill: #b60000"/>
   </g>
   <g id="matplotlib.axis_1">
    <g id="xtick_1">
     <g id="line2d_1">
      <defs>
       <path id="mab6dba5d3b" d="M 0 0 
L 0 3.5 
" style="stroke: #000000; stroke-width: 0.8"/>
      </defs>
      <g>
       <use xlink:href="#mab6dba5d3b" x="57.6" y="307.584" style="stroke: #000000; stroke-width: 0.8"/>
      </g>
     </g>
     <g id="text_1">
      <!-- 0.0 -->
      <g transform="translate(51.26875 321.385562) scale(0.1 -0.1)">
       <defs>
        <path id="Calibri-30" d="M 3022 2031 
Q 3022 1566 2948 1181 
Q 2875 797 2704 520 
Q 2534 244 2259 92 
Q 1984 -59 1581 -59 
Q 1200 -59 939 77 
Q 678 213 518 477 
Q 359 741 292 1127 
Q 225 1513 225 2013 
Q 225 2475 300 2861 
Q 375 3247 544 3523 
Q 713 3800 988 3951 
Q 1263 4103 1663 4103 
Q 2047 4103 2308 3967 
Q 2569 3831 2728 3567 
Q 2888 3303 2955 2917 
Q 3022 2531 3022 2031 
z
M 2472 1994 
Q 2472 2297 2450 2537 
Q 2428 2778 2386 2962 
Q 2344 3147 2276 3280 
Q 2209 3413 2115 3498 
Q 2022 3584 1901 3623 
Q 1781 3663 1631 3663 
Q 1366 3663 1200 3538 
Q 1034 3413 939 3194 
Q 844 2975 809 2681 
Q 775 2388 775 2050 
Q 775 1597 822 1280 
Q 869 963 970 763 
Q 1072 563 1230 472 
Q 1388 381 1613 381 
Q 1788 381 1920 437 
Q 2053 494 2148 598 
Q 2244 703 2306 850 
Q 2369 997 2406 1175 
Q 2444 1353 2458 1561 
Q 2472 1769 2472 1994 
z
" transform="scale(0.015625)"/>
        <path id="Calibri-2e" d="M 1144 341 
Q 1144 119 1070 45 
Q 997 -28 803 -28 
Q 616 -28 544 44 
Q 472 116 472 331 
Q 472 553 545 626 
Q 619 700 813 700 
Q 1000 700 1072 628 
Q 1144 556 1144 341 
z
" transform="scale(0.015625)"/>
       </defs>
       <use xlink:href="#Calibri-30"/>
       <use xlink:href="#Calibri-2e" x="50.683594"/>
       <use xlink:href="#Calibri-30" x="75.927734"/>
      </g>
     </g>
    </g>
    <g id="xtick_2">
     <g id="line2d_2">
      <g>
       <use xlink:href="#mab6dba5d3b" x="86.1696" y="307.584" style="stroke: #000000; stroke-width: 0.8"/>
      </g>
     </g>
     <g id="text_2">
      <!-- 0.1 -->
      <g transform="translate(79.83835 321.385562) scale(0.1 -0.1)">
       <defs>
        <path id="Calibri-31" d="M 2897 213 
Q 2897 153 2887 112 
Q 2878 72 2862 47 
Q 2847 22 2826 11 
Q 2806 0 2784 0 
L 672 0 
Q 650 0 631 11 
Q 613 22 595 47 
Q 578 72 568 112 
Q 559 153 559 213 
Q 559 269 568 309 
Q 578 350 592 376 
Q 606 403 626 417 
Q 647 431 672 431 
L 1516 431 
L 1516 3506 
L 734 3041 
Q 675 3009 639 3003 
Q 603 2997 581 3017 
Q 559 3038 551 3084 
Q 544 3131 544 3203 
Q 544 3256 548 3293 
Q 553 3331 562 3356 
Q 572 3381 589 3400 
Q 606 3419 634 3438 
L 1566 4034 
Q 1578 4044 1597 4050 
Q 1616 4056 1644 4062 
Q 1672 4069 1709 4070 
Q 1747 4072 1803 4072 
Q 1878 4072 1928 4065 
Q 1978 4059 2006 4048 
Q 2034 4038 2043 4020 
Q 2053 4003 2053 3984 
L 2053 431 
L 2784 431 
Q 2809 431 2831 417 
Q 2853 403 2867 376 
Q 2881 350 2889 309 
Q 2897 269 2897 213 
z
" transform="scale(0.015625)"/>
       </defs>
       <use xlink:href="#Calibri-30"/>
       <use xlink:href="#Calibri-2e" x="50.683594"/>
       <use xlink:href="#Calibri-31" x="75.927734"/>
      </g>
     </g>
    </g>
    <g id="xtick_3">
     <g id="line2d_3">
      <g>
       <use xlink:href="#mab6dba5d3b" x="114.7392" y="307.584" style="stroke: #000000; stroke-width: 0.8"/>
      </g>
     </g>
     <g id="text_3">
      <!-- 0.2 -->
      <g transform="translate(108.40795 321.385562) scale(0.1 -0.1)">
       <defs>
        <path id="Calibri-32" d="M 2888 231 
Q 2888 175 2880 131 
Q 2872 88 2858 58 
Q 2844 28 2820 14 
Q 2797 0 2769 0 
L 534 0 
Q 491 0 458 11 
Q 425 22 401 47 
Q 378 72 367 119 
Q 356 166 356 234 
Q 356 297 361 344 
Q 366 391 381 427 
Q 397 463 420 498 
Q 444 534 481 575 
L 1266 1406 
Q 1538 1694 1702 1922 
Q 1866 2150 1955 2337 
Q 2044 2525 2072 2678 
Q 2100 2831 2100 2966 
Q 2100 3100 2056 3220 
Q 2013 3341 1930 3431 
Q 1847 3522 1722 3575 
Q 1597 3628 1434 3628 
Q 1244 3628 1092 3575 
Q 941 3522 827 3459 
Q 713 3397 636 3344 
Q 559 3291 522 3291 
Q 500 3291 483 3303 
Q 466 3316 455 3344 
Q 444 3372 437 3419 
Q 431 3466 431 3531 
Q 431 3578 434 3612 
Q 438 3647 445 3672 
Q 453 3697 465 3719 
Q 478 3741 515 3773 
Q 553 3806 645 3862 
Q 738 3919 877 3973 
Q 1016 4028 1183 4065 
Q 1350 4103 1534 4103 
Q 1828 4103 2048 4020 
Q 2269 3938 2414 3794 
Q 2559 3650 2631 3459 
Q 2703 3269 2703 3053 
Q 2703 2859 2668 2667 
Q 2634 2475 2523 2251 
Q 2413 2028 2203 1754 
Q 1994 1481 1647 1125 
L 1006 456 
L 2766 456 
Q 2791 456 2814 442 
Q 2838 428 2855 400 
Q 2872 372 2880 330 
Q 2888 288 2888 231 
z
" transform="scale(0.015625)"/>
       </defs>
       <use xlink:href="#Calibri-30"/>
       <use xlink:href="#Calibri-2e" x="50.683594"/>
       <use xlink:href="#Calibri-32" x="75.927734"/>
      </g>
     </g>
    </g>
    <g id="xtick_4">
     <g id="line2d_4">
      <g>
       <use xlink:href="#mab6dba5d3b" x="143.3088" y="307.584" style="stroke: #000000; stroke-width: 0.8"/>
      </g>
     </g>
     <g id="text_4">
      <!-- 0.3 -->
      <g transform="translate(136.97755 321.385562) scale(0.1 -0.1)">
       <defs>
        <path id="Calibri-33" d="M 2856 1156 
Q 2856 878 2759 654 
Q 2663 431 2481 272 
Q 2300 113 2034 27 
Q 1769 -59 1434 -59 
Q 1231 -59 1054 -26 
Q 878 6 740 51 
Q 603 97 512 145 
Q 422 194 398 216 
Q 375 238 362 259 
Q 350 281 340 312 
Q 331 344 326 389 
Q 322 434 322 500 
Q 322 613 344 656 
Q 366 700 406 700 
Q 434 700 517 650 
Q 600 600 729 542 
Q 859 484 1032 434 
Q 1206 384 1419 384 
Q 1625 384 1781 437 
Q 1938 491 2044 587 
Q 2150 684 2203 817 
Q 2256 950 2256 1106 
Q 2256 1278 2189 1415 
Q 2122 1553 1992 1653 
Q 1863 1753 1673 1806 
Q 1484 1859 1244 1859 
L 859 1859 
Q 834 1859 811 1870 
Q 788 1881 770 1906 
Q 753 1931 742 1972 
Q 731 2013 731 2078 
Q 731 2138 740 2177 
Q 750 2216 767 2239 
Q 784 2263 806 2273 
Q 828 2284 856 2284 
L 1209 2284 
Q 1416 2284 1580 2337 
Q 1744 2391 1858 2491 
Q 1972 2591 2033 2730 
Q 2094 2869 2094 3041 
Q 2094 3166 2053 3280 
Q 2013 3394 1931 3478 
Q 1850 3563 1723 3611 
Q 1597 3659 1431 3659 
Q 1250 3659 1098 3604 
Q 947 3550 828 3487 
Q 709 3425 631 3370 
Q 553 3316 522 3316 
Q 500 3316 483 3323 
Q 466 3331 455 3354 
Q 444 3378 439 3420 
Q 434 3463 434 3531 
Q 434 3578 437 3614 
Q 441 3650 450 3676 
Q 459 3703 471 3725 
Q 484 3747 514 3776 
Q 544 3806 634 3862 
Q 725 3919 858 3973 
Q 991 4028 1164 4065 
Q 1338 4103 1538 4103 
Q 1819 4103 2031 4031 
Q 2244 3959 2386 3828 
Q 2528 3697 2598 3514 
Q 2669 3331 2669 3109 
Q 2669 2919 2619 2755 
Q 2569 2591 2472 2464 
Q 2375 2338 2234 2248 
Q 2094 2159 1909 2125 
L 1909 2119 
Q 2119 2097 2292 2014 
Q 2466 1931 2591 1806 
Q 2716 1681 2786 1514 
Q 2856 1347 2856 1156 
z
" transform="scale(0.015625)"/>
       </defs>
       <use xlink:href="#Calibri-30"/>
       <use xlink:href="#Calibri-2e" x="50.683594"/>
       <use xlink:href="#Calibri-33" x="75.927734"/>
      </g>
     </g>
    </g>
    <g id="xtick_5">
     <g id="line2d_5">
      <g>
       <use xlink:href="#mab6dba5d3b" x="171.8784" y="307.584" style="stroke: #000000; stroke-width: 0.8"/>
      </g>
     </g>
     <g id="text_5">
      <!-- 0.4 -->
      <g transform="translate(165.54715 321.385562) scale(0.1 -0.1)">
       <defs>
        <path id="Calibri-34" d="M 3059 1150 
Q 3059 1047 3028 987 
Q 2997 928 2941 928 
L 2484 928 
L 2484 78 
Q 2484 53 2471 36 
Q 2459 19 2428 6 
Q 2397 -6 2347 -12 
Q 2297 -19 2219 -19 
Q 2144 -19 2094 -12 
Q 2044 -6 2014 6 
Q 1984 19 1973 36 
Q 1963 53 1963 78 
L 1963 928 
L 294 928 
Q 256 928 231 937 
Q 206 947 186 972 
Q 166 997 158 1044 
Q 150 1091 150 1166 
Q 150 1225 153 1272 
Q 156 1319 165 1358 
Q 175 1397 190 1433 
Q 206 1469 228 1509 
L 1684 3966 
Q 1700 3991 1729 4009 
Q 1759 4028 1806 4040 
Q 1853 4053 1922 4058 
Q 1991 4063 2084 4063 
Q 2188 4063 2264 4055 
Q 2341 4047 2387 4034 
Q 2434 4022 2459 4001 
Q 2484 3981 2484 3953 
L 2484 1372 
L 2941 1372 
Q 2994 1372 3026 1317 
Q 3059 1263 3059 1150 
z
M 1963 3591 
L 1956 3591 
L 641 1372 
L 1963 1372 
L 1963 3591 
z
" transform="scale(0.015625)"/>
       </defs>
       <use xlink:href="#Calibri-30"/>
       <use xlink:href="#Calibri-2e" x="50.683594"/>
       <use xlink:href="#Calibri-34" x="75.927734"/>
      </g>
     </g>
    </g>
    <g id="xtick_6">
     <g id="line2d_6">
      <g>
       <use xlink:href="#mab6dba5d3b" x="200.448" y="307.584" style="stroke: #000000; stroke-width: 0.8"/>
      </g>
     </g>
     <g id="text_6">
      <!-- 0.5 -->
      <g transform="translate(194.11675 321.385562) scale(0.1 -0.1)">
       <defs>
        <path id="Calibri-35" d="M 2869 1300 
Q 2869 975 2759 722 
Q 2650 469 2450 295 
Q 2250 122 1973 31 
Q 1697 -59 1359 -59 
Q 1172 -59 1003 -32 
Q 834 -6 703 33 
Q 572 72 487 109 
Q 403 147 379 169 
Q 356 191 347 209 
Q 338 228 330 254 
Q 322 281 319 322 
Q 316 363 316 419 
Q 316 472 320 514 
Q 325 556 337 582 
Q 350 609 367 621 
Q 384 634 406 634 
Q 438 634 503 595 
Q 569 556 680 511 
Q 791 466 955 425 
Q 1119 384 1344 384 
Q 1553 384 1728 434 
Q 1903 484 2029 590 
Q 2156 697 2228 858 
Q 2300 1019 2300 1250 
Q 2300 1444 2239 1592 
Q 2178 1741 2051 1839 
Q 1925 1938 1731 1986 
Q 1538 2034 1269 2034 
Q 1078 2034 940 2015 
Q 803 1997 684 1997 
Q 597 1997 559 2037 
Q 522 2078 522 2194 
L 522 3841 
Q 522 3944 570 3994 
Q 619 4044 709 4044 
L 2500 4044 
Q 2525 4044 2548 4030 
Q 2572 4016 2587 3987 
Q 2603 3959 2611 3915 
Q 2619 3872 2619 3813 
Q 2619 3700 2587 3637 
Q 2556 3575 2500 3575 
L 991 3575 
L 991 2441 
Q 1100 2456 1214 2459 
Q 1328 2463 1478 2463 
Q 1825 2463 2084 2380 
Q 2344 2297 2517 2145 
Q 2691 1994 2780 1778 
Q 2869 1563 2869 1300 
z
" transform="scale(0.015625)"/>
       </defs>
       <use xlink:href="#Calibri-30"/>
       <use xlink:href="#Calibri-2e" x="50.683594"/>
       <use xlink:href="#Calibri-35" x="75.927734"/>
      </g>
     </g>
    </g>
    <g id="xtick_7">
     <g id="line2d_7">
      <g>
       <use xlink:href="#mab6dba5d3b" x="229.0176" y="307.584" style="stroke: #000000; stroke-width: 0.8"/>
      </g>
     </g>
     <g id="text_7">
      <!-- 0.6 -->
      <g transform="translate(222.68635 321.385562) scale(0.1 -0.1)">
       <defs>
        <path id="Calibri-36" d="M 2991 1309 
Q 2991 1044 2909 795 
Q 2828 547 2659 358 
Q 2491 169 2231 55 
Q 1972 -59 1619 -59 
Q 1366 -59 1172 3 
Q 978 66 834 181 
Q 691 297 595 465 
Q 500 634 442 850 
Q 384 1066 359 1322 
Q 334 1578 334 1872 
Q 334 2131 362 2397 
Q 391 2663 462 2909 
Q 534 3156 657 3373 
Q 781 3591 967 3752 
Q 1153 3913 1412 4006 
Q 1672 4100 2016 4100 
Q 2131 4100 2250 4086 
Q 2369 4072 2469 4048 
Q 2569 4025 2637 3997 
Q 2706 3969 2728 3951 
Q 2750 3934 2761 3914 
Q 2772 3894 2778 3870 
Q 2784 3847 2787 3817 
Q 2791 3788 2791 3744 
Q 2791 3688 2789 3647 
Q 2788 3606 2777 3581 
Q 2766 3556 2748 3543 
Q 2731 3531 2703 3531 
Q 2669 3531 2609 3553 
Q 2550 3575 2465 3601 
Q 2381 3628 2261 3650 
Q 2141 3672 1981 3672 
Q 1691 3672 1481 3553 
Q 1272 3434 1139 3234 
Q 1006 3034 942 2770 
Q 878 2506 869 2219 
Q 950 2266 1051 2312 
Q 1153 2359 1273 2396 
Q 1394 2434 1528 2457 
Q 1663 2481 1816 2481 
Q 2144 2481 2369 2392 
Q 2594 2303 2733 2145 
Q 2872 1988 2931 1773 
Q 2991 1559 2991 1309 
z
M 2447 1259 
Q 2447 1441 2411 1589 
Q 2375 1738 2290 1841 
Q 2206 1944 2065 2000 
Q 1925 2056 1719 2056 
Q 1603 2056 1487 2036 
Q 1372 2016 1264 1980 
Q 1156 1944 1057 1895 
Q 959 1847 878 1791 
Q 878 1388 929 1116 
Q 981 844 1079 680 
Q 1178 516 1325 445 
Q 1472 375 1669 375 
Q 1869 375 2016 450 
Q 2163 525 2259 651 
Q 2356 778 2401 936 
Q 2447 1094 2447 1259 
z
" transform="scale(0.015625)"/>
       </defs>
       <use xlink:href="#Calibri-30"/>
       <use xlink:href="#Calibri-2e" x="50.683594"/>
       <use xlink:href="#Calibri-36" x="75.927734"/>
      </g>
     </g>
    </g>
    <g id="xtick_8">
     <g id="line2d_8">
      <g>
       <use xlink:href="#mab6dba5d3b" x="257.5872" y="307.584" style="stroke: #000000; stroke-width: 0.8"/>
      </g>
     </g>
     <g id="text_8">
      <!-- 0.7 -->
      <g transform="translate(251.25595 321.385562) scale(0.1 -0.1)">
       <defs>
        <path id="Calibri-37" d="M 2947 3813 
Q 2947 3756 2942 3711 
Q 2938 3666 2930 3623 
Q 2922 3581 2908 3542 
Q 2894 3503 2875 3459 
L 1419 103 
Q 1403 66 1379 42 
Q 1356 19 1320 5 
Q 1284 -9 1228 -14 
Q 1172 -19 1091 -19 
Q 984 -19 925 -9 
Q 866 0 839 20 
Q 813 41 816 70 
Q 819 100 838 141 
L 2369 3572 
L 428 3572 
Q 369 3572 339 3634 
Q 309 3697 309 3809 
Q 309 3869 317 3912 
Q 325 3956 340 3986 
Q 356 4016 378 4030 
Q 400 4044 428 4044 
L 2784 4044 
Q 2828 4044 2861 4034 
Q 2894 4025 2911 3997 
Q 2928 3969 2937 3925 
Q 2947 3881 2947 3813 
z
" transform="scale(0.015625)"/>
       </defs>
       <use xlink:href="#Calibri-30"/>
       <use xlink:href="#Calibri-2e" x="50.683594"/>
       <use xlink:href="#Calibri-37" x="75.927734"/>
      </g>
     </g>
    </g>
    <g id="xtick_9">
     <g id="line2d_9">
      <g>
       <use xlink:href="#mab6dba5d3b" x="286.1568" y="307.584" style="stroke: #000000; stroke-width: 0.8"/>
      </g>
     </g>
     <g id="text_9">
      <!-- 0.8 -->
      <g transform="translate(279.82555 321.385562) scale(0.1 -0.1)">
       <defs>
        <path id="Calibri-38" d="M 2981 1038 
Q 2981 775 2887 570 
Q 2794 366 2617 225 
Q 2441 84 2181 12 
Q 1922 -59 1588 -59 
Q 1275 -59 1028 6 
Q 781 72 609 200 
Q 438 328 347 515 
Q 256 703 256 944 
Q 256 1134 318 1293 
Q 381 1453 498 1587 
Q 616 1722 787 1839 
Q 959 1956 1175 2063 
Q 988 2159 844 2267 
Q 700 2375 600 2501 
Q 500 2628 448 2772 
Q 397 2916 397 3084 
Q 397 3297 473 3483 
Q 550 3669 704 3806 
Q 859 3944 1098 4023 
Q 1338 4103 1656 4103 
Q 1963 4103 2186 4029 
Q 2409 3956 2554 3829 
Q 2700 3703 2769 3531 
Q 2838 3359 2838 3163 
Q 2838 3003 2786 2856 
Q 2734 2709 2634 2578 
Q 2534 2447 2389 2333 
Q 2244 2219 2056 2119 
Q 2278 2009 2451 1893 
Q 2625 1778 2742 1645 
Q 2859 1513 2920 1364 
Q 2981 1216 2981 1038 
z
M 2306 3113 
Q 2306 3244 2261 3350 
Q 2216 3456 2128 3531 
Q 2041 3606 1911 3645 
Q 1781 3684 1616 3684 
Q 1278 3684 1104 3531 
Q 931 3378 931 3113 
Q 931 2991 973 2886 
Q 1016 2781 1105 2687 
Q 1194 2594 1330 2505 
Q 1466 2416 1653 2319 
Q 1969 2481 2137 2678 
Q 2306 2875 2306 3113 
z
M 2438 981 
Q 2438 1125 2384 1242 
Q 2331 1359 2223 1461 
Q 2116 1563 1955 1658 
Q 1794 1753 1581 1856 
Q 1384 1759 1236 1662 
Q 1088 1566 992 1462 
Q 897 1359 848 1245 
Q 800 1131 800 994 
Q 800 691 1008 525 
Q 1216 359 1628 359 
Q 2028 359 2233 526 
Q 2438 694 2438 981 
z
" transform="scale(0.015625)"/>
       </defs>
       <use xlink:href="#Calibri-30"/>
       <use xlink:href="#Calibri-2e" x="50.683594"/>
       <use xlink:href="#Calibri-38" x="75.927734"/>
      </g>
     </g>
    </g>
    <g id="xtick_10">
     <g id="line2d_10">
      <g>
       <use xlink:href="#mab6dba5d3b" x="314.7264" y="307.584" style="stroke: #000000; stroke-width: 0.8"/>
      </g>
     </g>
     <g id="text_10">
      <!-- 0.9 -->
      <g transform="translate(308.39515 321.385562) scale(0.1 -0.1)">
       <defs>
        <path id="Calibri-39" d="M 2919 2181 
Q 2919 1919 2887 1650 
Q 2856 1381 2781 1132 
Q 2706 884 2579 667 
Q 2453 450 2261 287 
Q 2069 125 1805 33 
Q 1541 -59 1191 -59 
Q 1056 -59 929 -42 
Q 803 -25 701 0 
Q 600 25 531 53 
Q 463 81 431 109 
Q 400 138 386 186 
Q 372 234 372 316 
Q 372 384 376 425 
Q 381 466 390 487 
Q 400 509 417 517 
Q 434 525 459 525 
Q 494 525 556 501 
Q 619 478 714 450 
Q 809 422 937 398 
Q 1066 375 1225 375 
Q 1528 375 1745 492 
Q 1963 609 2100 806 
Q 2238 1003 2306 1262 
Q 2375 1522 2381 1809 
Q 2216 1713 1984 1638 
Q 1753 1563 1453 1563 
Q 1116 1563 886 1655 
Q 656 1747 517 1906 
Q 378 2066 317 2284 
Q 256 2503 256 2763 
Q 256 3031 334 3273 
Q 413 3516 578 3700 
Q 744 3884 1000 3993 
Q 1256 4103 1613 4103 
Q 1866 4103 2061 4039 
Q 2256 3975 2400 3854 
Q 2544 3734 2644 3564 
Q 2744 3394 2805 3178 
Q 2866 2963 2892 2711 
Q 2919 2459 2919 2181 
z
M 2372 2241 
Q 2372 2641 2319 2914 
Q 2266 3188 2162 3356 
Q 2059 3525 1909 3600 
Q 1759 3675 1563 3675 
Q 1359 3675 1215 3601 
Q 1072 3528 980 3404 
Q 888 3281 844 3125 
Q 800 2969 800 2803 
Q 800 2619 839 2466 
Q 878 2313 965 2206 
Q 1053 2100 1193 2042 
Q 1334 1984 1541 1984 
Q 1775 1984 1994 2054 
Q 2213 2125 2372 2241 
z
" transform="scale(0.015625)"/>
       </defs>
       <use xlink:href="#Calibri-30"/>
       <use xlink:href="#Calibri-2e" x="50.683594"/>
       <use xlink:href="#Calibri-39" x="75.927734"/>
      </g>
     </g>
    </g>
    <g id="xtick_11">
     <g id="line2d_11">
      <g>
       <use xlink:href="#mab6dba5d3b" x="343.296" y="307.584" style="stroke: #000000; stroke-width: 0.8"/>
      </g>
     </g>
     <g id="text_11">
      <!-- 1.0 -->
      <g transform="translate(336.96475 321.385562) scale(0.1 -0.1)">
       <use xlink:href="#Calibri-31"/>
       <use xlink:href="#Calibri-2e" x="50.683594"/>
       <use xlink:href="#Calibri-30" x="75.927734"/>
      </g>
     </g>
    </g>
    <g id="text_12">
     <!-- $\mathit{p}$ (cm$^2$/cm$^2$) -->
     <g transform="translate(174.148 336.263687) scale(0.1 -0.1)">
      <defs>
       <path id="DejaVuSans-Oblique-70" d="M 3175 2156 
Q 3175 2616 2975 2859 
Q 2775 3103 2400 3103 
Q 2144 3103 1911 2972 
Q 1678 2841 1497 2591 
Q 1319 2344 1212 1994 
Q 1106 1644 1106 1300 
Q 1106 863 1306 627 
Q 1506 391 1875 391 
Q 2147 391 2380 519 
Q 2613 647 2778 891 
Q 2956 1147 3065 1494 
Q 3175 1841 3175 2156 
z
M 1394 2969 
Q 1625 3272 1939 3428 
Q 2253 3584 2638 3584 
Q 3175 3584 3472 3232 
Q 3769 2881 3769 2247 
Q 3769 1728 3584 1258 
Q 3400 788 3053 416 
Q 2822 169 2531 39 
Q 2241 -91 1919 -91 
Q 1547 -91 1294 64 
Q 1041 219 916 525 
L 556 -1331 
L -19 -1331 
L 922 3500 
L 1497 3500 
L 1394 2969 
z
" transform="scale(0.015625)"/>
       <path id="Calibri-20" transform="scale(0.015625)"/>
       <path id="Calibri-28" d="M 1547 4306 
Q 1250 3678 1104 3017 
Q 959 2356 959 1688 
Q 959 1016 1107 356 
Q 1256 -303 1541 -938 
Q 1556 -975 1557 -1001 
Q 1559 -1028 1537 -1045 
Q 1516 -1063 1470 -1070 
Q 1425 -1078 1347 -1078 
Q 1291 -1078 1250 -1075 
Q 1209 -1072 1179 -1062 
Q 1150 -1053 1131 -1040 
Q 1113 -1028 1103 -1013 
Q 934 -694 806 -367 
Q 678 -41 590 296 
Q 503 634 459 979 
Q 416 1325 416 1678 
Q 416 2031 464 2375 
Q 513 2719 602 3058 
Q 691 3397 819 3725 
Q 947 4053 1106 4375 
Q 1109 4388 1123 4397 
Q 1138 4406 1163 4415 
Q 1188 4425 1231 4429 
Q 1275 4434 1344 4434 
Q 1416 4434 1459 4425 
Q 1503 4416 1528 4400 
Q 1553 4384 1556 4359 
Q 1559 4334 1547 4306 
z
" transform="scale(0.015625)"/>
       <path id="Calibri-63" d="M 2500 506 
Q 2500 453 2497 414 
Q 2494 375 2486 348 
Q 2478 322 2467 301 
Q 2456 281 2417 242 
Q 2378 203 2284 145 
Q 2191 88 2073 42 
Q 1956 -3 1818 -31 
Q 1681 -59 1534 -59 
Q 1231 -59 997 41 
Q 763 141 605 333 
Q 447 525 364 804 
Q 281 1084 281 1450 
Q 281 1866 382 2164 
Q 484 2463 661 2653 
Q 838 2844 1077 2936 
Q 1316 3028 1594 3028 
Q 1728 3028 1854 3003 
Q 1981 2978 2087 2937 
Q 2194 2897 2276 2844 
Q 2359 2791 2396 2753 
Q 2434 2716 2448 2694 
Q 2463 2672 2472 2642 
Q 2481 2613 2484 2575 
Q 2488 2538 2488 2481 
Q 2488 2359 2459 2311 
Q 2431 2263 2391 2263 
Q 2344 2263 2283 2314 
Q 2222 2366 2128 2428 
Q 2034 2491 1901 2542 
Q 1769 2594 1588 2594 
Q 1216 2594 1017 2308 
Q 819 2022 819 1478 
Q 819 1206 870 1001 
Q 922 797 1022 659 
Q 1122 522 1267 455 
Q 1413 388 1600 388 
Q 1778 388 1912 444 
Q 2047 500 2145 567 
Q 2244 634 2311 689 
Q 2378 744 2416 744 
Q 2438 744 2453 731 
Q 2469 719 2480 689 
Q 2491 659 2495 614 
Q 2500 569 2500 506 
z
" transform="scale(0.015625)"/>
       <path id="Calibri-6d" d="M 4650 78 
Q 4650 53 4637 36 
Q 4625 19 4597 6 
Q 4569 -6 4519 -12 
Q 4469 -19 4394 -19 
Q 4316 -19 4266 -12 
Q 4216 -6 4186 6 
Q 4156 19 4143 36 
Q 4131 53 4131 78 
L 4131 1788 
Q 4131 1966 4100 2112 
Q 4069 2259 4000 2365 
Q 3931 2472 3825 2528 
Q 3719 2584 3575 2584 
Q 3397 2584 3217 2446 
Q 3038 2309 2822 2044 
L 2822 78 
Q 2822 53 2809 36 
Q 2797 19 2767 6 
Q 2738 -6 2688 -12 
Q 2638 -19 2563 -19 
Q 2491 -19 2439 -12 
Q 2388 -6 2358 6 
Q 2328 19 2317 36 
Q 2306 53 2306 78 
L 2306 1788 
Q 2306 1966 2272 2112 
Q 2238 2259 2169 2365 
Q 2100 2472 1995 2528 
Q 1891 2584 1747 2584 
Q 1569 2584 1387 2446 
Q 1206 2309 994 2044 
L 994 78 
Q 994 53 981 36 
Q 969 19 941 6 
Q 913 -6 863 -12 
Q 813 -19 734 -19 
Q 659 -19 609 -12 
Q 559 -6 529 6 
Q 500 19 489 36 
Q 478 53 478 78 
L 478 2891 
Q 478 2916 487 2933 
Q 497 2950 525 2964 
Q 553 2978 597 2983 
Q 641 2988 713 2988 
Q 781 2988 826 2983 
Q 872 2978 897 2964 
Q 922 2950 933 2933 
Q 944 2916 944 2891 
L 944 2519 
Q 1181 2784 1404 2907 
Q 1628 3031 1856 3031 
Q 2031 3031 2170 2990 
Q 2309 2950 2415 2876 
Q 2522 2803 2597 2701 
Q 2672 2600 2722 2475 
Q 2863 2628 2989 2734 
Q 3116 2841 3233 2906 
Q 3350 2972 3461 3001 
Q 3572 3031 3684 3031 
Q 3956 3031 4140 2936 
Q 4325 2841 4439 2681 
Q 4553 2522 4601 2308 
Q 4650 2094 4650 1856 
L 4650 78 
z
" transform="scale(0.015625)"/>
       <path id="DejaVuSans-32" d="M 1228 531 
L 3431 531 
L 3431 0 
L 469 0 
L 469 531 
Q 828 903 1448 1529 
Q 2069 2156 2228 2338 
Q 2531 2678 2651 2914 
Q 2772 3150 2772 3378 
Q 2772 3750 2511 3984 
Q 2250 4219 1831 4219 
Q 1534 4219 1204 4116 
Q 875 4013 500 3803 
L 500 4441 
Q 881 4594 1212 4672 
Q 1544 4750 1819 4750 
Q 2544 4750 2975 4387 
Q 3406 4025 3406 3419 
Q 3406 3131 3298 2873 
Q 3191 2616 2906 2266 
Q 2828 2175 2409 1742 
Q 1991 1309 1228 531 
z
" transform="scale(0.015625)"/>
       <path id="Calibri-2f" d="M 525 -753 
Q 513 -794 492 -817 
Q 472 -841 440 -853 
Q 409 -866 364 -872 
Q 319 -878 253 -878 
Q 175 -878 123 -867 
Q 72 -856 44 -836 
Q 16 -816 9 -786 
Q 3 -756 22 -716 
L 1913 4469 
Q 1925 4509 1945 4532 
Q 1966 4556 1995 4570 
Q 2025 4584 2072 4589 
Q 2119 4594 2184 4594 
Q 2263 4594 2313 4583 
Q 2363 4572 2391 4553 
Q 2419 4534 2425 4503 
Q 2431 4472 2416 4431 
L 525 -753 
z
" transform="scale(0.015625)"/>
       <path id="Calibri-29" d="M 1522 1678 
Q 1522 1325 1478 979 
Q 1434 634 1346 296 
Q 1259 -41 1132 -367 
Q 1006 -694 838 -1013 
Q 828 -1028 809 -1040 
Q 791 -1053 761 -1062 
Q 731 -1072 690 -1075 
Q 650 -1078 594 -1078 
Q 513 -1078 467 -1070 
Q 422 -1063 401 -1045 
Q 381 -1028 382 -1001 
Q 384 -975 400 -938 
Q 688 -306 834 355 
Q 981 1016 981 1688 
Q 981 2356 834 3017 
Q 688 3678 394 4306 
Q 381 4334 384 4359 
Q 388 4384 413 4400 
Q 438 4416 481 4425 
Q 525 4434 597 4434 
Q 663 4434 706 4429 
Q 750 4425 776 4415 
Q 803 4406 815 4397 
Q 828 4388 834 4375 
Q 1156 3734 1339 3057 
Q 1522 2381 1522 1678 
z
" transform="scale(0.015625)"/>
      </defs>
      <use xlink:href="#DejaVuSans-Oblique-70" transform="translate(0 0.765625)"/>
      <use xlink:href="#Calibri-20" transform="translate(63.476562 0.765625)"/>
      <use xlink:href="#Calibri-28" transform="translate(84.958984 0.765625)"/>
      <use xlink:href="#Calibri-63" transform="translate(115.28125 0.765625)"/>
      <use xlink:href="#Calibri-6d" transform="translate(157.566406 0.765625)"/>
      <use xlink:href="#DejaVuSans-32" transform="translate(238.40625 39.046875) scale(0.7)"/>
      <use xlink:href="#Calibri-2f" transform="translate(285.676758 0.765625)"/>
      <use xlink:href="#Calibri-63" transform="translate(324.299805 0.765625)"/>
      <use xlink:href="#Calibri-6d" transform="translate(366.584961 0.765625)"/>
      <use xlink:href="#DejaVuSans-32" transform="translate(447.424805 39.046875) scale(0.7)"/>
      <use xlink:href="#Calibri-29" transform="translate(494.695312 0.765625)"/>
     </g>
    </g>
   </g>
   <g id="matplotlib.axis_2">
    <g id="ytick_1">
     <g id="line2d_12">
      <defs>
       <path id="m0e3052f675" d="M 0 0 
L -3.5 0 
" style="stroke: #000000; stroke-width: 0.8"/>
      </defs>
      <g>
       <use xlink:href="#m0e3052f675" x="57.6" y="275.65056" style="stroke: #000000; stroke-width: 0.8"/>
      </g>
     </g>
     <g id="text_13">
      <!-- 25 -->
      <g transform="translate(40.4625 279.051341) scale(0.1 -0.1)">
       <use xlink:href="#Calibri-32"/>
       <use xlink:href="#Calibri-35" x="50.683594"/>
      </g>
     </g>
    </g>
    <g id="ytick_2">
     <g id="line2d_13">
      <g>
       <use xlink:href="#m0e3052f675" x="57.6" y="242.38656" style="stroke: #000000; stroke-width: 0.8"/>
      </g>
     </g>
     <g id="text_14">
      <!-- 50 -->
      <g transform="translate(40.4625 245.787341) scale(0.1 -0.1)">
       <use xlink:href="#Calibri-35"/>
       <use xlink:href="#Calibri-30" x="50.683594"/>
      </g>
     </g>
    </g>
    <g id="ytick_3">
     <g id="line2d_14">
      <g>
       <use xlink:href="#m0e3052f675" x="57.6" y="209.12256" style="stroke: #000000; stroke-width: 0.8"/>
      </g>
     </g>
     <g id="text_15">
      <!-- 75 -->
      <g transform="translate(40.4625 212.523341) scale(0.1 -0.1)">
       <use xlink:href="#Calibri-37"/>
       <use xlink:href="#Calibri-35" x="50.683594"/>
      </g>
     </g>
    </g>
    <g id="ytick_4">
     <g id="line2d_15">
      <g>
       <use xlink:href="#m0e3052f675" x="57.6" y="175.85856" style="stroke: #000000; stroke-width: 0.8"/>
      </g>
     </g>
     <g id="text_16">
      <!-- 100 -->
      <g transform="translate(35.39375 179.259341) scale(0.1 -0.1)">
       <use xlink:href="#Calibri-31"/>
       <use xlink:href="#Calibri-30" x="50.683594"/>
       <use xlink:href="#Calibri-30" x="101.367188"/>
      </g>
     </g>
    </g>
    <g id="ytick_5">
     <g id="line2d_16">
      <g>
       <use xlink:href="#m0e3052f675" x="57.6" y="142.59456" style="stroke: #000000; stroke-width: 0.8"/>
      </g>
     </g>
     <g id="text_17">
      <!-- 125 -->
      <g transform="translate(35.39375 145.995341) scale(0.1 -0.1)">
       <use xlink:href="#Calibri-31"/>
       <use xlink:href="#Calibri-32" x="50.683594"/>
       <use xlink:href="#Calibri-35" x="101.367188"/>
      </g>
     </g>
    </g>
    <g id="ytick_6">
     <g id="line2d_17">
      <g>
       <use xlink:href="#m0e3052f675" x="57.6" y="109.33056" style="stroke: #000000; stroke-width: 0.8"/>
      </g>
     </g>
     <g id="text_18">
      <!-- 150 -->
      <g transform="translate(35.39375 112.731341) scale(0.1 -0.1)">
       <use xlink:href="#Calibri-31"/>
       <use xlink:href="#Calibri-35" x="50.683594"/>
       <use xlink:href="#Calibri-30" x="101.367188"/>
      </g>
     </g>
    </g>
    <g id="ytick_7">
     <g id="line2d_18">
      <g>
       <use xlink:href="#m0e3052f675" x="57.6" y="76.06656" style="stroke: #000000; stroke-width: 0.8"/>
      </g>
     </g>
     <g id="text_19">
      <!-- 175 -->
      <g transform="translate(35.39375 79.467341) scale(0.1 -0.1)">
       <use xlink:href="#Calibri-31"/>
       <use xlink:href="#Calibri-37" x="50.683594"/>
       <use xlink:href="#Calibri-35" x="101.367188"/>
      </g>
     </g>
    </g>
    <g id="ytick_8">
     <g id="line2d_19">
      <g>
       <use xlink:href="#m0e3052f675" x="57.6" y="42.80256" style="stroke: #000000; stroke-width: 0.8"/>
      </g>
     </g>
     <g id="text_20">
      <!-- 200 -->
      <g transform="translate(35.39375 46.203341) scale(0.1 -0.1)">
       <use xlink:href="#Calibri-32"/>
       <use xlink:href="#Calibri-30" x="50.683594"/>
       <use xlink:href="#Calibri-30" x="101.367188"/>
      </g>
     </g>
    </g>
    <g id="text_21">
     <!-- $\mathit{Z}$$_{a}$ (nm) -->
     <g transform="translate(29.59375 191.028) rotate(-90) scale(0.1 -0.1)">
      <defs>
       <path id="DejaVuSans-Oblique-5a" d="M 838 4666 
L 4500 4666 
L 4409 4184 
L 794 531 
L 3769 531 
L 3669 0 
L -141 0 
L -50 481 
L 3566 4134 
L 738 4134 
L 838 4666 
z
" transform="scale(0.015625)"/>
       <path id="DejaVuSans-Oblique-61" d="M 3438 1997 
L 3047 0 
L 2472 0 
L 2578 531 
Q 2325 219 2001 64 
Q 1678 -91 1281 -91 
Q 834 -91 548 182 
Q 263 456 263 884 
Q 263 1497 752 1853 
Q 1241 2209 2100 2209 
L 2900 2209 
L 2931 2363 
Q 2938 2388 2941 2417 
Q 2944 2447 2944 2509 
Q 2944 2788 2717 2942 
Q 2491 3097 2081 3097 
Q 1800 3097 1504 3025 
Q 1209 2953 897 2809 
L 997 3341 
Q 1322 3463 1633 3523 
Q 1944 3584 2234 3584 
Q 2853 3584 3176 3315 
Q 3500 3047 3500 2534 
Q 3500 2431 3484 2292 
Q 3469 2153 3438 1997 
z
M 2816 1759 
L 2241 1759 
Q 1534 1759 1195 1570 
Q 856 1381 856 984 
Q 856 709 1029 553 
Q 1203 397 1509 397 
Q 1978 397 2328 733 
Q 2678 1069 2791 1631 
L 2816 1759 
z
" transform="scale(0.015625)"/>
       <path id="Calibri-6e" d="M 2900 78 
Q 2900 53 2887 36 
Q 2875 19 2847 6 
Q 2819 -6 2769 -12 
Q 2719 -19 2644 -19 
Q 2566 -19 2516 -12 
Q 2466 -6 2437 6 
Q 2409 19 2396 36 
Q 2384 53 2384 78 
L 2384 1725 
Q 2384 1966 2346 2112 
Q 2309 2259 2237 2365 
Q 2166 2472 2052 2528 
Q 1938 2584 1788 2584 
Q 1594 2584 1400 2446 
Q 1206 2309 994 2044 
L 994 78 
Q 994 53 981 36 
Q 969 19 941 6 
Q 913 -6 863 -12 
Q 813 -19 734 -19 
Q 659 -19 609 -12 
Q 559 -6 529 6 
Q 500 19 489 36 
Q 478 53 478 78 
L 478 2891 
Q 478 2916 487 2933 
Q 497 2950 525 2964 
Q 553 2978 597 2983 
Q 641 2988 713 2988 
Q 781 2988 826 2983 
Q 872 2978 897 2964 
Q 922 2950 933 2933 
Q 944 2916 944 2891 
L 944 2519 
Q 1181 2784 1417 2907 
Q 1653 3031 1894 3031 
Q 2175 3031 2367 2936 
Q 2559 2841 2678 2681 
Q 2797 2522 2848 2308 
Q 2900 2094 2900 1794 
L 2900 78 
z
" transform="scale(0.015625)"/>
      </defs>
      <use xlink:href="#DejaVuSans-Oblique-5a" transform="translate(0 0.09375)"/>
      <use xlink:href="#DejaVuSans-Oblique-61" transform="translate(69.462891 -16.3125) scale(0.7)"/>
      <use xlink:href="#Calibri-20" transform="translate(115.092773 0.09375)"/>
      <use xlink:href="#Calibri-28" transform="translate(136.575195 0.09375)"/>
      <use xlink:href="#Calibri-6e" transform="translate(166.897461 0.09375)"/>
      <use xlink:href="#Calibri-6d" transform="translate(219.436523 0.09375)"/>
      <use xlink:href="#Calibri-29" transform="translate(299.319336 0.09375)"/>
     </g>
    </g>
   </g>
   <g id="patch_3">
    <path d="M 57.6 307.584 
L 57.6 41.472 
" style="fill: none; stroke: #000000; stroke-width: 0.8; stroke-linejoin: miter; stroke-linecap: square"/>
   </g>
   <g id="patch_4">
    <path d="M 343.296 307.584 
L 343.296 41.472 
" style="fill: none; stroke: #000000; stroke-width: 0.8; stroke-linejoin: miter; stroke-linecap: square"/>
   </g>
   <g id="patch_5">
    <path d="M 57.6 307.584 
L 343.296 307.584 
" style="fill: none; stroke: #000000; stroke-width: 0.8; stroke-linejoin: miter; stroke-linecap: square"/>
   </g>
   <g id="patch_6">
    <path d="M 57.6 41.472 
L 343.296 41.472 
" style="fill: none; stroke: #000000; stroke-width: 0.8; stroke-linejoin: miter; stroke-linecap: square"/>
   </g>
   <g id="text_22">
    <!-- $\lambda$ = 530 nm -->
    <g transform="translate(177.348 35.472) scale(0.1 -0.1)">
     <defs>
      <path id="DejaVuSans-Oblique-3bb" d="M 2350 4316 
L 3125 0 
L 2516 0 
L 2038 2588 
L 328 0 
L -281 0 
L 1903 3356 
L 1794 3975 
Q 1725 4369 1391 4369 
L 1091 4369 
L 1184 4863 
L 1550 4856 
Q 2253 4847 2350 4316 
z
" transform="scale(0.015625)"/>
      <path id="Calibri-3d" d="M 2891 2409 
Q 2891 2284 2855 2236 
Q 2819 2188 2772 2188 
L 409 2188 
Q 363 2188 328 2236 
Q 294 2284 294 2409 
Q 294 2522 325 2575 
Q 356 2628 409 2628 
L 2772 2628 
Q 2828 2628 2859 2575 
Q 2891 2522 2891 2409 
z
M 2891 1194 
Q 2891 1069 2855 1022 
Q 2819 975 2772 975 
L 409 975 
Q 363 975 328 1022 
Q 294 1069 294 1194 
Q 294 1309 325 1362 
Q 356 1416 409 1416 
L 2772 1416 
Q 2828 1416 2859 1362 
Q 2891 1309 2891 1194 
z
" transform="scale(0.015625)"/>
     </defs>
     <use xlink:href="#DejaVuSans-Oblique-3bb" transform="translate(0 0.015625)"/>
     <use xlink:href="#Calibri-20" transform="translate(59.179688 0.015625)"/>
     <use xlink:href="#Calibri-3d" transform="translate(81.787109 0.015625)"/>
     <use xlink:href="#Calibri-20" transform="translate(131.591797 0.015625)"/>
     <use xlink:href="#Calibri-35" transform="translate(154.199219 0.015625)"/>
     <use xlink:href="#Calibri-33" transform="translate(204.882812 0.015625)"/>
     <use xlink:href="#Calibri-30" transform="translate(255.566406 0.015625)"/>
     <use xlink:href="#Calibri-20" transform="translate(306.25 0.015625)"/>
     <use xlink:href="#Calibri-6e" transform="translate(328.857422 0.015625)"/>
     <use xlink:href="#Calibri-6d" transform="translate(381.396484 0.015625)"/>
    </g>
   </g>
  </g>
  <g id="axes_2">
   <g id="patch_7">
    <path d="M 361.152 307.584 
L 374.4576 307.584 
L 374.4576 41.472 
L 361.152 41.472 
z
" style="fill: #ffffff"/>
   </g>
   <g id="QuadMesh_1">
    <path d="M 361.152 307.584 
L 374.4576 307.584 
L 374.4576 280.9728 
L 361.152 280.9728 
L 361.152 307.584 
" clip-path="url(#p9cc10997e6)" style="fill: #0000b6"/>
    <path d="M 361.152 280.9728 
L 374.4576 280.9728 
L 374.4576 254.3616 
L 361.152 254.3616 
L 361.152 280.9728 
" clip-path="url(#p9cc10997e6)" style="fill: #0018ff"/>
    <path d="M 361.152 254.3616 
L 374.4576 254.3616 
L 374.4576 227.7504 
L 361.152 227.7504 
L 361.152 254.3616 
" clip-path="url(#p9cc10997e6)" style="fill: #0080ff"/>
    <path d="M 361.152 227.7504 
L 374.4576 227.7504 
L 374.4576 201.1392 
L 361.152 201.1392 
L 361.152 227.7504 
" clip-path="url(#p9cc10997e6)" style="fill: #00e4f8"/>
    <path d="M 361.152 201.1392 
L 374.4576 201.1392 
L 374.4576 174.528 
L 361.152 174.528 
L 361.152 201.1392 
" clip-path="url(#p9cc10997e6)" style="fill: #53ffa4"/>
    <path d="M 361.152 174.528 
L 374.4576 174.528 
L 374.4576 147.9168 
L 361.152 147.9168 
L 361.152 174.528 
" clip-path="url(#p9cc10997e6)" style="fill: #a4ff53"/>
    <path d="M 361.152 147.9168 
L 374.4576 147.9168 
L 374.4576 121.3056 
L 361.152 121.3056 
L 361.152 147.9168 
" clip-path="url(#p9cc10997e6)" style="fill: #f8f500"/>
    <path d="M 361.152 121.3056 
L 374.4576 121.3056 
L 374.4576 94.6944 
L 361.152 94.6944 
L 361.152 121.3056 
" clip-path="url(#p9cc10997e6)" style="fill: #ff9400"/>
    <path d="M 361.152 94.6944 
L 374.4576 94.6944 
L 374.4576 68.0832 
L 361.152 68.0832 
L 361.152 94.6944 
" clip-path="url(#p9cc10997e6)" style="fill: #ff3800"/>
    <path d="M 361.152 68.0832 
L 374.4576 68.0832 
L 374.4576 41.472 
L 361.152 41.472 
L 361.152 68.0832 
" clip-path="url(#p9cc10997e6)" style="fill: #b60000"/>
   </g>
   <g id="matplotlib.axis_3"/>
   <g id="matplotlib.axis_4">
    <g id="ytick_9">
     <g id="line2d_20">
      <defs>
       <path id="md333158f55" d="M 0 0 
L 3.5 0 
" style="stroke: #000000; stroke-width: 0.8"/>
      </defs>
      <g>
       <use xlink:href="#md333158f55" x="374.4576" y="307.584" style="stroke: #000000; stroke-width: 0.8"/>
      </g>
     </g>
     <g id="text_23">
      <!-- 0 -->
      <g transform="translate(381.4576 310.984781) scale(0.1 -0.1)">
       <use xlink:href="#Calibri-30"/>
      </g>
     </g>
    </g>
    <g id="ytick_10">
     <g id="line2d_21">
      <g>
       <use xlink:href="#md333158f55" x="374.4576" y="280.9728" style="stroke: #000000; stroke-width: 0.8"/>
      </g>
     </g>
     <g id="text_24">
      <!-- 0.1 -->
      <g transform="translate(381.4576 284.373581) scale(0.1 -0.1)">
       <use xlink:href="#Calibri-30"/>
       <use xlink:href="#Calibri-2e" x="50.683594"/>
       <use xlink:href="#Calibri-31" x="75.927734"/>
      </g>
     </g>
    </g>
    <g id="ytick_11">
     <g id="line2d_22">
      <g>
       <use xlink:href="#md333158f55" x="374.4576" y="254.3616" style="stroke: #000000; stroke-width: 0.8"/>
      </g>
     </g>
     <g id="text_25">
      <!-- 0.2 -->
      <g transform="translate(381.4576 257.762381) scale(0.1 -0.1)">
       <use xlink:href="#Calibri-30"/>
       <use xlink:href="#Calibri-2e" x="50.683594"/>
       <use xlink:href="#Calibri-32" x="75.927734"/>
      </g>
     </g>
    </g>
    <g id="ytick_12">
     <g id="line2d_23">
      <g>
       <use xlink:href="#md333158f55" x="374.4576" y="227.7504" style="stroke: #000000; stroke-width: 0.8"/>
      </g>
     </g>
     <g id="text_26">
      <!-- 0.3 -->
      <g transform="translate(381.4576 231.151181) scale(0.1 -0.1)">
       <use xlink:href="#Calibri-30"/>
       <use xlink:href="#Calibri-2e" x="50.683594"/>
       <use xlink:href="#Calibri-33" x="75.927734"/>
      </g>
     </g>
    </g>
    <g id="ytick_13">
     <g id="line2d_24">
      <g>
       <use xlink:href="#md333158f55" x="374.4576" y="201.1392" style="stroke: #000000; stroke-width: 0.8"/>
      </g>
     </g>
     <g id="text_27">
      <!-- 0.4 -->
      <g transform="translate(381.4576 204.539981) scale(0.1 -0.1)">
       <use xlink:href="#Calibri-30"/>
       <use xlink:href="#Calibri-2e" x="50.683594"/>
       <use xlink:href="#Calibri-34" x="75.927734"/>
      </g>
     </g>
    </g>
    <g id="ytick_14">
     <g id="line2d_25">
      <g>
       <use xlink:href="#md333158f55" x="374.4576" y="174.528" style="stroke: #000000; stroke-width: 0.8"/>
      </g>
     </g>
     <g id="text_28">
      <!-- 0.5 -->
      <g transform="translate(381.4576 177.928781) scale(0.1 -0.1)">
       <use xlink:href="#Calibri-30"/>
       <use xlink:href="#Calibri-2e" x="50.683594"/>
       <use xlink:href="#Calibri-35" x="75.927734"/>
      </g>
     </g>
    </g>
    <g id="ytick_15">
     <g id="line2d_26">
      <g>
       <use xlink:href="#md333158f55" x="374.4576" y="147.9168" style="stroke: #000000; stroke-width: 0.8"/>
      </g>
     </g>
     <g id="text_29">
      <!-- 0.6 -->
      <g transform="translate(381.4576 151.317581) scale(0.1 -0.1)">
       <use xlink:href="#Calibri-30"/>
       <use xlink:href="#Calibri-2e" x="50.683594"/>
       <use xlink:href="#Calibri-36" x="75.927734"/>
      </g>
     </g>
    </g>
    <g id="ytick_16">
     <g id="line2d_27">
      <g>
       <use xlink:href="#md333158f55" x="374.4576" y="121.3056" style="stroke: #000000; stroke-width: 0.8"/>
      </g>
     </g>
     <g id="text_30">
      <!-- 0.7 -->
      <g transform="translate(381.4576 124.706381) scale(0.1 -0.1)">
       <use xlink:href="#Calibri-30"/>
       <use xlink:href="#Calibri-2e" x="50.683594"/>
       <use xlink:href="#Calibri-37" x="75.927734"/>
      </g>
     </g>
    </g>
    <g id="ytick_17">
     <g id="line2d_28">
      <g>
       <use xlink:href="#md333158f55" x="374.4576" y="94.6944" style="stroke: #000000; stroke-width: 0.8"/>
      </g>
     </g>
     <g id="text_31">
      <!-- 0.8 -->
      <g transform="translate(381.4576 98.095181) scale(0.1 -0.1)">
       <use xlink:href="#Calibri-30"/>
       <use xlink:href="#Calibri-2e" x="50.683594"/>
       <use xlink:href="#Calibri-38" x="75.927734"/>
      </g>
     </g>
    </g>
    <g id="ytick_18">
     <g id="line2d_29">
      <g>
       <use xlink:href="#md333158f55" x="374.4576" y="68.0832" style="stroke: #000000; stroke-width: 0.8"/>
      </g>
     </g>
     <g id="text_32">
      <!-- 0.9 -->
      <g transform="translate(381.4576 71.483981) scale(0.1 -0.1)">
       <use xlink:href="#Calibri-30"/>
       <use xlink:href="#Calibri-2e" x="50.683594"/>
       <use xlink:href="#Calibri-39" x="75.927734"/>
      </g>
     </g>
    </g>
    <g id="ytick_19">
     <g id="line2d_30">
      <g>
       <use xlink:href="#md333158f55" x="374.4576" y="41.472" style="stroke: #000000; stroke-width: 0.8"/>
      </g>
     </g>
     <g id="text_33">
      <!-- 1.0 -->
      <g transform="translate(381.4576 44.872781) scale(0.1 -0.1)">
       <use xlink:href="#Calibri-31"/>
       <use xlink:href="#Calibri-2e" x="50.683594"/>
       <use xlink:href="#Calibri-30" x="75.927734"/>
      </g>
     </g>
    </g>
   </g>
   <g id="LineCollection_1"/>
   <g id="patch_8">
    <path d="M 361.152 307.584 
L 367.8048 307.584 
L 374.4576 307.584 
L 374.4576 41.472 
L 367.8048 41.472 
L 361.152 41.472 
L 361.152 307.584 
z
" style="fill: none; stroke: #000000; stroke-width: 0.8; stroke-linejoin: miter; stroke-linecap: square"/>
   </g>
   <g id="text_34">
    <!-- $\mathit{E}_{\mathrm{dis}}$/$\mathit{E}_{\mathrm{i}}$ -->
    <g transform="translate(353.2548 35.472) scale(0.1 -0.1)">
     <defs>
      <path id="DejaVuSans-Oblique-45" d="M 1081 4666 
L 4031 4666 
L 3928 4134 
L 1606 4134 
L 1338 2753 
L 3566 2753 
L 3463 2222 
L 1234 2222 
L 909 531 
L 3284 531 
L 3181 0 
L 172 0 
L 1081 4666 
z
" transform="scale(0.015625)"/>
      <path id="DejaVuSans-64" d="M 2906 2969 
L 2906 4863 
L 3481 4863 
L 3481 0 
L 2906 0 
L 2906 525 
Q 2725 213 2448 61 
Q 2172 -91 1784 -91 
Q 1150 -91 751 415 
Q 353 922 353 1747 
Q 353 2572 751 3078 
Q 1150 3584 1784 3584 
Q 2172 3584 2448 3432 
Q 2725 3281 2906 2969 
z
M 947 1747 
Q 947 1113 1208 752 
Q 1469 391 1925 391 
Q 2381 391 2643 752 
Q 2906 1113 2906 1747 
Q 2906 2381 2643 2742 
Q 2381 3103 1925 3103 
Q 1469 3103 1208 2742 
Q 947 2381 947 1747 
z
" transform="scale(0.015625)"/>
      <path id="DejaVuSans-69" d="M 603 3500 
L 1178 3500 
L 1178 0 
L 603 0 
L 603 3500 
z
M 603 4863 
L 1178 4863 
L 1178 4134 
L 603 4134 
L 603 4863 
z
" transform="scale(0.015625)"/>
      <path id="DejaVuSans-73" d="M 2834 3397 
L 2834 2853 
Q 2591 2978 2328 3040 
Q 2066 3103 1784 3103 
Q 1356 3103 1142 2972 
Q 928 2841 928 2578 
Q 928 2378 1081 2264 
Q 1234 2150 1697 2047 
L 1894 2003 
Q 2506 1872 2764 1633 
Q 3022 1394 3022 966 
Q 3022 478 2636 193 
Q 2250 -91 1575 -91 
Q 1294 -91 989 -36 
Q 684 19 347 128 
L 347 722 
Q 666 556 975 473 
Q 1284 391 1588 391 
Q 1994 391 2212 530 
Q 2431 669 2431 922 
Q 2431 1156 2273 1281 
Q 2116 1406 1581 1522 
L 1381 1569 
Q 847 1681 609 1914 
Q 372 2147 372 2553 
Q 372 3047 722 3315 
Q 1072 3584 1716 3584 
Q 2034 3584 2315 3537 
Q 2597 3491 2834 3397 
z
" transform="scale(0.015625)"/>
     </defs>
     <use xlink:href="#DejaVuSans-Oblique-45" transform="translate(0 0.09375)"/>
     <use xlink:href="#DejaVuSans-64" transform="translate(63.183594 -16.3125) scale(0.7)"/>
     <use xlink:href="#DejaVuSans-69" transform="translate(107.617188 -16.3125) scale(0.7)"/>
     <use xlink:href="#DejaVuSans-73" transform="translate(127.06543 -16.3125) scale(0.7)"/>
     <use xlink:href="#Calibri-2f" transform="translate(166.269531 0.09375)"/>
     <use xlink:href="#DejaVuSans-Oblique-45" transform="translate(204.892578 0.09375)"/>
     <use xlink:href="#DejaVuSans-69" transform="translate(268.076172 -16.3125) scale(0.7)"/>
    </g>
   </g>
  </g>
 </g>
 <defs>
  <clipPath id="p699213df75">
   <rect x="57.6" y="41.472" width="285.696" height="266.112"/>
  </clipPath>
  <clipPath id="p9cc10997e6">
   <rect x="361.152" y="41.472" width="13.3056" height="266.112"/>
  </clipPath>
 </defs>
</svg>
