<?xml version="1.0" encoding="utf-8" standalone="no"?>
<!DOCTYPE svg PUBLIC "-//W3C//DTD SVG 1.1//EN"
  "http://www.w3.org/Graphics/SVG/1.1/DTD/svg11.dtd">
<svg xmlns:xlink="http://www.w3.org/1999/xlink" width="460.8pt" height="345.6pt" viewBox="0 0 460.8 345.6" xmlns="http://www.w3.org/2000/svg" version="1.1">
 <metadata>
  <rdf:RDF xmlns:dc="http://purl.org/dc/elements/1.1/" xmlns:cc="http://creativecommons.org/ns#" xmlns:rdf="http://www.w3.org/1999/02/22-rdf-syntax-ns#">
   <cc:Work>
    <dc:type rdf:resource="http://purl.org/dc/dcmitype/StillImage"/>
    <dc:date>2024-01-22T08:47:27.283679</dc:date>
    <dc:format>image/svg+xml</dc:format>
    <dc:creator>
     <cc:Agent>
      <dc:title>Matplotlib v3.7.1, https://matplotlib.org/</dc:title>
     </cc:Agent>
    </dc:creator>
   </cc:Work>
  </rdf:RDF>
 </metadata>
 <defs>
  <style type="text/css">*{stroke-linejoin: round; stroke-linecap: butt}</style>
 </defs>
 <g id="figure_1">
  <g id="patch_1">
   <path d="M 0 345.6 
L 460.8 345.6 
L 460.8 0 
L 0 0 
z
" style="fill: #ffffff"/>
  </g>
  <g id="axes_1">
   <g id="patch_2">
    <path d="M 57.6 307.584 
L 343.296 307.584 
L 343.296 41.472 
L 57.6 41.472 
z
" style="fill: #ffffff"/>
   </g>
   <g id="PathCollection_1">
    <path clip-path="url(#p57c30782a6)" style="fill: #0000b6"/>
   </g>
   <g id="PathCollection_2">
    <path d="M 57.62857 82.628674 
L 57.986277 82.169708 
L 58.576895 81.3888 
L 58.809233 81.078593 
L 59.303989 80.41452 
L 59.873589 79.637079 
L 60.55636 78.692923 
L 60.746257 78.432721 
L 61.013806 78.0624 
L 61.73392 77.045547 
L 62.667559 75.71028 
L 62.901207 75.370344 
L 63.049904 75.156474 
L 63.337655 74.736 
L 63.90486 73.8927 
L 63.99366 73.76172 
L 64.130652 73.555908 
L 64.5672 72.893947 
L 65.370844 71.67968 
L 65.547425 71.4096 
L 66.491298 69.936282 
L 67.049256 69.05748 
L 67.372326 68.539296 
L 67.659058 68.0832 
L 67.8859 67.713669 
L 68.257961 67.10892 
L 68.891658 66.060333 
L 69.670499 64.7568 
L 69.78209 64.566137 
L 69.889576 64.380964 
L 70.607422 63.153199 
L 71.040225 62.40468 
L 71.508076 61.580597 
L 71.593618 61.4304 
L 71.688896 61.258829 
L 71.850323 60.970721 
L 72.139923 60.45612 
L 72.292721 60.179557 
L 72.567124 59.677575 
L 73.011167 58.870731 
L 73.429857 58.104 
L 73.946684 57.137509 
L 74.679998 55.75188 
L 74.931425 55.267733 
L 75.187058 54.7776 
L 75.640748 53.889334 
L 75.683995 53.80332 
L 76.174592 52.829305 
L 76.863782 51.4512 
L 77.159833 50.8465 
L 78.00711 49.09908 
L 78.159603 48.778383 
L 78.275016 48.539335 
L 78.472088 48.1248 
L 78.85 47.316567 
L 78.926433 47.15052 
L 79.266845 46.412777 
L 80.006907 44.7984 
L 80.243099 44.271947 
L 81.054849 42.44628 
L 81.198109 42.117519 
L 81.478977 41.472 
L 80.48425 41.472 
L 78.960538 41.472 
L 77.436826 41.472 
L 75.913114 41.472 
L 74.389402 41.472 
L 72.86569 41.472 
L 71.341978 41.472 
L 69.818266 41.472 
L 68.294554 41.472 
L 66.770842 41.472 
L 65.24713 41.472 
L 63.723418 41.472 
L 62.199706 41.472 
L 60.675994 41.472 
L 59.152282 41.472 
L 57.62857 41.472 
L 57.62857 44.7984 
L 57.62857 48.1248 
L 57.62857 51.4512 
L 57.62857 54.7776 
L 57.62857 58.104 
L 57.62857 61.4304 
L 57.62857 64.7568 
L 57.62857 68.0832 
L 57.62857 71.4096 
L 57.62857 74.736 
L 57.62857 78.0624 
L 57.62857 81.3888 
" clip-path="url(#p57c30782a6)" style="fill: #0018ff"/>
   </g>
   <g id="PathCollection_3">
    <path d="M 81.478977 41.472 
L 81.198109 42.117519 
L 81.054849 42.44628 
L 80.243099 44.271947 
L 80.006907 44.7984 
L 79.266845 46.412777 
L 78.926433 47.15052 
L 78.85 47.316567 
L 78.472088 48.1248 
L 78.275016 48.539335 
L 78.159603 48.778383 
L 78.00711 49.09908 
L 77.159833 50.8465 
L 76.863782 51.4512 
L 76.174592 52.829305 
L 75.683995 53.80332 
L 75.640748 53.889334 
L 75.187058 54.7776 
L 74.931425 55.267733 
L 74.679998 55.75188 
L 73.946684 57.137509 
L 73.429857 58.104 
L 73.011167 58.870731 
L 72.567124 59.677575 
L 72.292721 60.179557 
L 72.139923 60.45612 
L 71.850323 60.970721 
L 71.688896 61.258829 
L 71.593618 61.4304 
L 71.508076 61.580597 
L 71.040225 62.40468 
L 70.607422 63.153199 
L 69.889576 64.380964 
L 69.78209 64.566137 
L 69.670499 64.7568 
L 68.891658 66.060333 
L 68.257961 67.10892 
L 67.8859 67.713669 
L 67.659058 68.0832 
L 67.372326 68.539296 
L 67.049256 69.05748 
L 66.491298 69.936282 
L 65.547425 71.4096 
L 65.370844 71.67968 
L 64.5672 72.893947 
L 64.130652 73.555908 
L 63.99366 73.76172 
L 63.90486 73.8927 
L 63.337655 74.736 
L 63.049904 75.156474 
L 62.901207 75.370344 
L 62.667559 75.71028 
L 61.73392 77.045547 
L 61.013806 78.0624 
L 60.746257 78.432721 
L 60.55636 78.692923 
L 59.873589 79.637079 
L 59.303989 80.41452 
L 58.809233 81.078593 
L 58.576895 81.3888 
L 57.986277 82.169708 
L 57.62857 82.628674 
L 57.62857 84.7152 
L 57.62857 88.0416 
L 57.62857 91.368 
L 57.62857 94.6944 
L 57.62857 98.0208 
L 57.62857 101.3472 
L 57.62857 104.6736 
L 57.62857 108 
L 57.62857 111.3264 
L 57.62857 114.6528 
L 57.62857 117.9792 
L 57.62857 121.3056 
L 57.62857 124.632 
L 57.62857 127.9584 
L 57.62857 129.837704 
L 57.942959 129.627827 
L 58.287354 129.396586 
L 58.9627 128.93268 
L 59.678477 128.43422 
L 60.357239 127.9584 
L 61.114348 127.421627 
L 61.387691 127.224123 
L 61.722332 126.98412 
L 62.888622 126.135966 
L 63.528246 125.660639 
L 63.871087 125.410282 
L 64.917403 124.632 
L 65.162213 124.44662 
L 65.42521 124.243234 
L 66.536143 123.395034 
L 67.086737 122.967089 
L 67.416479 122.715084 
L 67.974075 122.27988 
L 68.719402 121.689776 
L 68.855381 121.582962 
L 69.201974 121.3056 
L 70.015844 120.649748 
L 70.330768 120.391199 
L 70.404293 120.33132 
L 71.866113 119.123435 
L 72.797572 118.338211 
L 72.915275 118.240538 
L 73.224968 117.9792 
L 74.060454 117.261077 
L 75.159638 116.297706 
L 75.532707 115.974288 
L 75.92677 115.62708 
L 76.082197 115.489987 
L 77.014207 114.6528 
L 77.163527 114.517638 
L 77.224843 114.461111 
L 78.081122 113.67852 
L 78.385076 113.396517 
L 78.60768 113.186115 
L 79.207368 112.627308 
L 80.409283 111.490058 
L 80.514192 111.391766 
L 80.582673 111.3264 
L 81.785896 110.156017 
L 82.332394 109.616496 
L 82.620093 109.336337 
L 82.985223 108.97428 
L 83.753507 108.200596 
L 83.952042 108 
L 84.807243 107.123713 
L 84.901162 107.02572 
L 85.402389 106.502463 
L 86.060494 105.805758 
L 86.760871 105.070427 
L 87.132356 104.6736 
L 87.936623 103.797721 
L 88.357057 103.333603 
L 88.794325 102.85684 
L 89.277131 102.32148 
L 89.912386 101.605697 
L 89.985123 101.52455 
L 90.141286 101.3472 
L 90.527975 100.901378 
L 90.989605 100.37292 
L 91.486474 99.792936 
L 92.306055 98.823938 
L 92.784497 98.262143 
L 92.986746 98.0208 
L 93.970492 96.823536 
L 94.563461 96.092854 
L 94.739809 95.877964 
L 94.908879 95.66868 
L 95.585008 94.817707 
L 95.683343 94.6944 
L 95.694019 94.680874 
L 95.699127 94.674287 
L 96.447174 93.72012 
L 96.667745 93.434022 
L 96.914803 93.108717 
L 97.444422 92.418612 
L 98.241318 91.368 
L 98.567697 90.928988 
L 99.640909 89.464094 
L 99.871777 89.150575 
L 99.969842 89.01588 
L 100.173507 88.736314 
L 100.670858 88.0416 
L 101.116254 87.408647 
L 101.356464 87.06732 
L 102.281202 85.730304 
L 102.973504 84.7152 
L 103.258893 84.288102 
L 103.33993 84.163226 
L 103.33993 81.3888 
L 103.33993 78.0624 
L 103.33993 74.736 
L 103.33993 71.4096 
L 103.33993 68.0832 
L 103.33993 64.7568 
L 103.33993 61.4304 
L 103.33993 58.104 
L 103.33993 54.7776 
L 103.33993 51.4512 
L 103.33993 48.1248 
L 103.33993 44.7984 
L 103.33993 41.472 
L 101.816218 41.472 
L 100.292506 41.472 
L 98.768794 41.472 
L 97.245082 41.472 
L 95.72137 41.472 
L 94.197658 41.472 
L 92.673946 41.472 
L 91.150234 41.472 
L 89.626522 41.472 
L 88.10281 41.472 
L 86.579098 41.472 
L 85.055386 41.472 
L 83.531674 41.472 
L 82.007962 41.472 
" clip-path="url(#p57c30782a6)" style="fill: #0080ff"/>
   </g>
   <g id="PathCollection_4">
    <path d="M 103.33993 84.163226 
L 103.258893 84.288102 
L 102.973504 84.7152 
L 102.281202 85.730304 
L 101.356464 87.06732 
L 101.116254 87.408647 
L 100.670858 88.0416 
L 100.173507 88.736314 
L 99.969842 89.01588 
L 99.871777 89.150575 
L 99.640909 89.464094 
L 98.567697 90.928988 
L 98.241318 91.368 
L 97.444422 92.418612 
L 96.914803 93.108717 
L 96.667745 93.434022 
L 96.447174 93.72012 
L 95.699127 94.674287 
L 95.694019 94.680874 
L 95.683343 94.6944 
L 95.585008 94.817707 
L 94.908879 95.66868 
L 94.739809 95.877964 
L 94.563461 96.092854 
L 93.970492 96.823536 
L 92.986746 98.0208 
L 92.784497 98.262143 
L 92.306055 98.823938 
L 91.486474 99.792936 
L 90.989605 100.37292 
L 90.527975 100.901378 
L 90.141286 101.3472 
L 89.985123 101.52455 
L 89.912386 101.605697 
L 89.277131 102.32148 
L 88.794325 102.85684 
L 88.357057 103.333603 
L 87.936623 103.797721 
L 87.132356 104.6736 
L 86.760871 105.070427 
L 86.060494 105.805758 
L 85.402389 106.502463 
L 84.901162 107.02572 
L 84.807243 107.123713 
L 83.952042 108 
L 83.753507 108.200596 
L 82.985223 108.97428 
L 82.620093 109.336337 
L 82.332394 109.616496 
L 81.785896 110.156017 
L 80.582673 111.3264 
L 80.514192 111.391766 
L 80.409283 111.490058 
L 79.207368 112.627308 
L 78.60768 113.186115 
L 78.385076 113.396517 
L 78.081122 113.67852 
L 77.224843 114.461111 
L 77.163527 114.517638 
L 77.014207 114.6528 
L 76.082197 115.489987 
L 75.92677 115.62708 
L 75.532707 115.974288 
L 75.159638 116.297706 
L 74.060454 117.261077 
L 73.224968 117.9792 
L 72.915275 118.240538 
L 72.797572 118.338211 
L 71.866113 119.123435 
L 70.404293 120.33132 
L 70.330768 120.391199 
L 70.015844 120.649748 
L 69.201974 121.3056 
L 68.855381 121.582962 
L 68.719402 121.689776 
L 67.974075 122.27988 
L 67.416479 122.715084 
L 67.086737 122.967089 
L 66.536143 123.395034 
L 65.42521 124.243234 
L 65.162213 124.44662 
L 64.917403 124.632 
L 63.871087 125.410282 
L 63.528246 125.660639 
L 62.888622 126.135966 
L 61.722332 126.98412 
L 61.387691 127.224123 
L 61.114348 127.421627 
L 60.357239 127.9584 
L 59.678477 128.43422 
L 58.9627 128.93268 
L 58.287354 129.396586 
L 57.942959 129.627827 
L 57.62857 129.837704 
L 57.62857 131.2848 
L 57.62857 134.6112 
L 57.62857 137.9376 
L 57.62857 141.264 
L 57.62857 144.5904 
L 57.62857 147.9168 
L 57.62857 151.2432 
L 57.62857 154.5696 
L 57.62857 157.896 
L 57.62857 161.2224 
L 57.62857 164.5488 
L 57.62857 164.901283 
L 57.691443 164.880169 
L 58.59759 164.5488 
L 59.071664 164.372804 
L 59.267424 164.297434 
L 60.538117 163.822126 
L 60.835705 163.707048 
L 61.670902 163.394374 
L 62.95729 162.894926 
L 63.379403 162.735691 
L 64.122411 162.445929 
L 64.260068 162.393955 
L 64.763875 162.19668 
L 65.849124 161.766763 
L 67.205017 161.2224 
L 67.956412 160.91663 
L 69.199494 160.404094 
L 69.466671 160.29495 
L 69.578606 160.24812 
L 70.214037 159.981891 
L 70.429055 159.888992 
L 71.959762 159.244678 
L 72.668344 158.936101 
L 73.03373 158.781649 
L 74.220722 158.264243 
L 74.503139 158.144299 
L 75.068232 157.896 
L 75.847127 157.548224 
L 75.991715 157.481733 
L 77.033732 157.01601 
L 78.056233 156.543778 
L 78.652954 156.274899 
L 79.327517 155.961854 
L 79.551918 155.860637 
L 80.231522 155.54388 
L 81.105546 155.131417 
L 82.282241 154.5696 
L 82.914988 154.264613 
L 83.095792 154.175447 
L 84.279568 153.59532 
L 84.548062 153.462068 
L 84.643667 153.413138 
L 85.395948 153.038114 
L 85.867599 152.796465 
L 87.024969 152.216578 
L 88.015202 151.704931 
L 88.175143 151.624431 
L 88.912156 151.2432 
L 89.487811 150.940382 
L 89.856837 150.740402 
L 90.945261 150.162903 
L 91.40246 149.913856 
L 91.935352 149.630785 
L 93.287075 148.89108 
L 93.574894 148.731497 
L 95.029412 147.9168 
L 95.352105 147.734177 
L 95.454129 147.675144 
L 96.728983 146.94252 
L 96.784095 146.910424 
L 96.807552 146.896375 
L 97.595168 146.43551 
L 98.047994 146.163971 
L 99.18357 145.495893 
L 100.242232 144.855364 
L 100.332639 144.801921 
L 100.681804 144.5904 
L 101.566405 144.045036 
L 102.27027 143.599163 
L 103.058777 143.108602 
L 103.33993 142.92343 
L 103.33993 141.264 
L 103.33993 137.9376 
L 103.33993 134.6112 
L 103.33993 131.2848 
L 103.33993 127.9584 
L 103.33993 124.632 
L 103.33993 121.3056 
L 103.33993 117.9792 
L 103.33993 114.6528 
L 103.33993 111.3264 
L 103.33993 108 
L 103.33993 104.6736 
L 103.33993 101.3472 
L 103.33993 98.0208 
L 103.33993 94.6944 
L 103.33993 91.368 
L 103.33993 88.0416 
L 103.33993 84.7152 
" clip-path="url(#p57c30782a6)" style="fill: #00e4f8"/>
   </g>
   <g id="PathCollection_5">
    <path d="M 103.33993 142.92343 
L 103.058777 143.108602 
L 102.27027 143.599163 
L 101.566405 144.045036 
L 100.681804 144.5904 
L 100.332639 144.801921 
L 100.242232 144.855364 
L 99.18357 145.495893 
L 98.047994 146.163971 
L 97.595168 146.43551 
L 96.807552 146.896375 
L 96.784095 146.910424 
L 96.728983 146.94252 
L 95.454129 147.675144 
L 95.352105 147.734177 
L 95.029412 147.9168 
L 93.574894 148.731497 
L 93.287075 148.89108 
L 91.935352 149.630785 
L 91.40246 149.913856 
L 90.945261 150.162903 
L 89.856837 150.740402 
L 89.487811 150.940382 
L 88.912156 151.2432 
L 88.175143 151.624431 
L 88.015202 151.704931 
L 87.024969 152.216578 
L 85.867599 152.796465 
L 85.395948 153.038114 
L 84.643667 153.413138 
L 84.548062 153.462068 
L 84.279568 153.59532 
L 83.095792 154.175447 
L 82.914988 154.264613 
L 82.282241 154.5696 
L 81.105546 155.131417 
L 80.231522 155.54388 
L 79.551918 155.860637 
L 79.327517 155.961854 
L 78.652954 156.274899 
L 78.056233 156.543778 
L 77.033732 157.01601 
L 75.991715 157.481733 
L 75.847127 157.548224 
L 75.068232 157.896 
L 74.503139 158.144299 
L 74.220722 158.264243 
L 73.03373 158.781649 
L 72.668344 158.936101 
L 71.959762 159.244678 
L 70.429055 159.888992 
L 70.214037 159.981891 
L 69.578606 160.24812 
L 69.466671 160.29495 
L 69.199494 160.404094 
L 67.956412 160.91663 
L 67.205017 161.2224 
L 65.849124 161.766763 
L 64.763875 162.19668 
L 64.260068 162.393955 
L 64.122411 162.445929 
L 63.379403 162.735691 
L 62.95729 162.894926 
L 61.670902 163.394374 
L 60.835705 163.707048 
L 60.538117 163.822126 
L 59.267424 164.297434 
L 59.071664 164.372804 
L 58.59759 164.5488 
L 57.691443 164.880169 
L 57.62857 164.901283 
L 57.62857 167.8752 
L 57.62857 171.2016 
L 57.62857 174.528 
L 57.62857 177.8544 
L 57.62857 181.1808 
L 57.62857 184.5072 
L 57.62857 187.8336 
L 57.62857 191.16 
L 57.62857 193.572373 
L 58.07261 193.500293 
L 58.080994 193.498718 
L 60.062942 193.148053 
L 60.307565 193.10178 
L 61.020406 192.975207 
L 61.401237 192.903129 
L 62.877637 192.639986 
L 63.463803 192.528282 
L 63.965988 192.438452 
L 64.728077 192.293139 
L 65.687286 192.120901 
L 66.622596 191.94132 
L 66.909284 191.889653 
L 68.061744 191.668245 
L 68.49173 191.590453 
L 69.78403 191.340436 
L 69.850221 191.328417 
L 70.720201 191.16 
L 71.290724 191.048109 
L 71.404076 191.024433 
L 72.788097 190.751051 
L 72.949713 190.717158 
L 74.083863 190.492981 
L 74.760158 190.350606 
L 75.723163 190.158877 
L 76.118937 190.075217 
L 76.871264 189.925327 
L 78.124179 189.659447 
L 78.655591 189.552795 
L 79.291182 189.417356 
L 79.65274 189.34474 
L 81.496434 188.950311 
L 81.58529 188.932333 
L 82.164583 188.80788 
L 82.546559 188.724405 
L 84.134243 188.378482 
L 84.481287 188.30324 
L 86.574748 187.8336 
L 86.578228 187.832814 
L 86.580565 187.832273 
L 86.582843 187.831748 
L 89.01233 187.278208 
L 90.66794 186.891882 
L 90.737583 186.875954 
L 90.807898 186.85932 
L 91.562611 186.680611 
L 91.693338 186.647954 
L 93.461859 186.227286 
L 93.891835 186.119021 
L 94.476959 185.979242 
L 95.121485 185.816801 
L 96.202427 185.557391 
L 97.088535 185.332273 
L 97.387936 185.260107 
L 98.5605 184.961924 
L 98.935492 184.871117 
L 100.289309 184.524046 
L 100.29542 184.522559 
L 100.355271 184.5072 
L 101.660513 184.167283 
L 102.016779 184.069358 
L 103.198003 183.759185 
L 103.33993 183.717551 
L 103.33993 181.1808 
L 103.33993 177.8544 
L 103.33993 174.528 
L 103.33993 171.2016 
L 103.33993 167.8752 
L 103.33993 164.5488 
L 103.33993 161.2224 
L 103.33993 157.896 
L 103.33993 154.5696 
L 103.33993 151.2432 
L 103.33993 147.9168 
L 103.33993 144.5904 
" clip-path="url(#p57c30782a6)" style="fill: #53ffa4"/>
   </g>
   <g id="PathCollection_6">
    <path d="M 103.33993 183.717551 
L 103.198003 183.759185 
L 102.016779 184.069358 
L 101.660513 184.167283 
L 100.355271 184.5072 
L 100.29542 184.522559 
L 100.289309 184.524046 
L 98.935492 184.871117 
L 98.5605 184.961924 
L 97.387936 185.260107 
L 97.088535 185.332273 
L 96.202427 185.557391 
L 95.121485 185.816801 
L 94.476959 185.979242 
L 93.891835 186.119021 
L 93.461859 186.227286 
L 91.693338 186.647954 
L 91.562611 186.680611 
L 90.807898 186.85932 
L 90.737583 186.875954 
L 90.66794 186.891882 
L 89.01233 187.278208 
L 86.582843 187.831748 
L 86.580565 187.832273 
L 86.578228 187.832814 
L 86.574748 187.8336 
L 84.481287 188.30324 
L 84.134243 188.378482 
L 82.546559 188.724405 
L 82.164583 188.80788 
L 81.58529 188.932333 
L 81.496434 188.950311 
L 79.65274 189.34474 
L 79.291182 189.417356 
L 78.655591 189.552795 
L 78.124179 189.659447 
L 76.871264 189.925327 
L 76.118937 190.075217 
L 75.723163 190.158877 
L 74.760158 190.350606 
L 74.083863 190.492981 
L 72.949713 190.717158 
L 72.788097 190.751051 
L 71.404076 191.024433 
L 71.290724 191.048109 
L 70.720201 191.16 
L 69.850221 191.328417 
L 69.78403 191.340436 
L 68.49173 191.590453 
L 68.061744 191.668245 
L 66.909284 191.889653 
L 66.622596 191.94132 
L 65.687286 192.120901 
L 64.728077 192.293139 
L 63.965988 192.438452 
L 63.463803 192.528282 
L 62.877637 192.639986 
L 61.401237 192.903129 
L 61.020406 192.975207 
L 60.307565 193.10178 
L 60.062942 193.148053 
L 58.080994 193.498718 
L 58.07261 193.500293 
L 57.62857 193.572373 
L 57.62857 194.4864 
L 57.62857 197.8128 
L 57.62857 201.1392 
L 57.62857 204.4656 
L 57.62857 207.792 
L 57.62857 211.1184 
L 57.62857 214.4448 
L 57.62857 217.7712 
L 57.62857 218.526501 
L 57.771111 218.522457 
L 58.831721 218.471013 
L 59.461844 218.447003 
L 60.557897 218.393623 
L 60.792394 218.384684 
L 61.944348 218.328668 
L 62.446294 218.309525 
L 63.632265 218.251617 
L 63.81326 218.244711 
L 65.058028 218.184026 
L 65.429732 218.169837 
L 66.70707 218.107305 
L 66.833696 218.102469 
L 68.172792 218.037016 
L 68.412126 218.027872 
L 69.782326 217.960616 
L 69.853687 217.957889 
L 71.288675 217.887564 
L 71.393445 217.883557 
L 72.858048 217.811476 
L 72.873221 217.810895 
L 73.681049 217.7712 
L 74.373657 217.736829 
L 74.406048 217.734859 
L 75.892163 217.660783 
L 75.934554 217.6582 
L 77.352734 217.58762 
L 77.525757 217.577056 
L 78.910566 217.50783 
L 79.011683 217.501643 
L 80.33062 217.435812 
L 80.646757 217.416431 
L 81.928456 217.352171 
L 82.089342 217.342287 
L 83.307276 217.28132 
L 83.769094 217.25289 
L 84.945816 217.193718 
L 85.167551 217.180039 
L 86.282661 217.124053 
L 86.892811 217.086335 
L 87.962627 217.032376 
L 88.246327 217.014801 
L 89.256733 216.963919 
L 90.017956 216.916663 
L 90.978872 216.868048 
L 91.325689 216.846471 
L 92.229447 216.80082 
L 93.144579 216.743764 
L 93.994531 216.70063 
L 94.405659 216.67494 
L 95.200756 216.634654 
L 96.272732 216.567526 
L 97.009582 216.530013 
L 97.486257 216.500096 
L 98.17061 216.465312 
L 99.40247 216.387829 
L 100.024006 216.356085 
L 100.567507 216.32182 
L 101.138958 216.292682 
L 102.533849 216.204546 
L 103.037778 216.178726 
L 103.33993 216.155719 
L 103.33993 214.4448 
L 103.33993 211.1184 
L 103.33993 207.792 
L 103.33993 204.4656 
L 103.33993 201.1392 
L 103.33993 197.8128 
L 103.33993 194.4864 
L 103.33993 191.16 
L 103.33993 187.8336 
L 103.33993 184.5072 
" clip-path="url(#p57c30782a6)" style="fill: #a4ff53"/>
   </g>
   <g id="PathCollection_7">
    <path d="M 103.33993 216.155719 
L 103.037778 216.178726 
L 102.533849 216.204546 
L 101.138958 216.292682 
L 100.567507 216.32182 
L 100.024006 216.356085 
L 99.40247 216.387829 
L 98.17061 216.465312 
L 97.486257 216.500096 
L 97.009582 216.530013 
L 96.272732 216.567526 
L 95.200756 216.634654 
L 94.405659 216.67494 
L 93.994531 216.70063 
L 93.144579 216.743764 
L 92.229447 216.80082 
L 91.325689 216.846471 
L 90.978872 216.868048 
L 90.017956 216.916663 
L 89.256733 216.963919 
L 88.246327 217.014801 
L 87.962627 217.032376 
L 86.892811 217.086335 
L 86.282661 217.124053 
L 85.167551 217.180039 
L 84.945816 217.193718 
L 83.769094 217.25289 
L 83.307276 217.28132 
L 82.089342 217.342287 
L 81.928456 217.352171 
L 80.646757 217.416431 
L 80.33062 217.435812 
L 79.011683 217.501643 
L 78.910566 217.50783 
L 77.525757 217.577056 
L 77.352734 217.58762 
L 75.934554 217.6582 
L 75.892163 217.660783 
L 74.406048 217.734859 
L 74.373657 217.736829 
L 73.681049 217.7712 
L 72.873221 217.810895 
L 72.858048 217.811476 
L 71.393445 217.883557 
L 71.288675 217.887564 
L 69.853687 217.957889 
L 69.782326 217.960616 
L 68.412126 218.027872 
L 68.172792 218.037016 
L 66.833696 218.102469 
L 66.70707 218.107305 
L 65.429732 218.169837 
L 65.058028 218.184026 
L 63.81326 218.244711 
L 63.632265 218.251617 
L 62.446294 218.309525 
L 61.944348 218.328668 
L 60.792394 218.384684 
L 60.557897 218.393623 
L 59.461844 218.447003 
L 58.831721 218.471013 
L 57.771111 218.522457 
L 57.62857 218.526501 
L 57.62857 221.0976 
L 57.62857 224.424 
L 57.62857 227.7504 
L 57.62857 231.0768 
L 57.62857 234.4032 
L 57.62857 237.7296 
L 57.62857 241.056 
L 57.62857 241.316316 
L 57.751064 241.323417 
L 58.799337 241.375155 
L 59.54953 241.415218 
L 61.297166 241.502359 
L 61.683007 241.523233 
L 62.78224 241.582765 
L 63.324238 241.612148 
L 64.562581 241.675014 
L 66.020225 241.755083 
L 66.740789 241.794703 
L 67.437931 241.830614 
L 69.263677 241.932344 
L 70.168574 241.982814 
L 70.308928 241.990151 
L 71.018842 242.03028 
L 72.384192 242.107153 
L 72.434622 242.110484 
L 73.287579 242.158853 
L 73.37348 242.164552 
L 75.353519 242.277645 
L 75.515825 242.288515 
L 76.301822 242.333733 
L 76.50465 242.347377 
L 78.320793 242.452619 
L 78.597957 242.471441 
L 79.315174 242.513307 
L 79.638173 242.535339 
L 81.285945 242.632227 
L 81.681051 242.659438 
L 82.327605 242.697735 
L 82.774135 242.728625 
L 84.248903 242.816625 
L 84.765142 242.852686 
L 85.339083 242.887188 
L 85.912626 242.927432 
L 87.20959 243.005978 
L 87.850265 243.051376 
L 88.349574 243.081842 
L 89.053739 243.131965 
L 90.167929 243.20046 
L 90.936458 243.255709 
L 91.359043 243.281884 
L 92.197575 243.342441 
L 93.123836 243.400249 
L 94.023762 243.465894 
L 94.367452 243.487507 
L 95.344237 243.559086 
L 96.077226 243.605534 
L 97.112218 243.682151 
L 97.374764 243.698916 
L 98.493835 243.782141 
L 99.028007 243.816515 
L 100.20187 243.904712 
L 100.380937 243.916325 
L 101.646484 244.011856 
L 101.976084 244.033397 
L 103.292765 244.133821 
L 103.33993 244.136533 
L 103.33993 241.056 
L 103.33993 237.7296 
L 103.33993 234.4032 
L 103.33993 231.0768 
L 103.33993 227.7504 
L 103.33993 224.424 
L 103.33993 221.0976 
L 103.33993 217.7712 
" clip-path="url(#p57c30782a6)" style="fill: #f8f500"/>
   </g>
   <g id="PathCollection_8">
    <path d="M 103.33993 244.136533 
L 103.292765 244.133821 
L 101.976084 244.033397 
L 101.646484 244.011856 
L 100.380937 243.916325 
L 100.20187 243.904712 
L 99.028007 243.816515 
L 98.493835 243.782141 
L 97.374764 243.698916 
L 97.112218 243.682151 
L 96.077226 243.605534 
L 95.344237 243.559086 
L 94.367452 243.487507 
L 94.023762 243.465894 
L 93.123836 243.400249 
L 92.197575 243.342441 
L 91.359043 243.281884 
L 90.936458 243.255709 
L 90.167929 243.20046 
L 89.053739 243.131965 
L 88.349574 243.081842 
L 87.850265 243.051376 
L 87.20959 243.005978 
L 85.912626 242.927432 
L 85.339083 242.887188 
L 84.765142 242.852686 
L 84.248903 242.816625 
L 82.774135 242.728625 
L 82.327605 242.697735 
L 81.681051 242.659438 
L 81.285945 242.632227 
L 79.638173 242.535339 
L 79.315174 242.513307 
L 78.597957 242.471441 
L 78.320793 242.452619 
L 76.50465 242.347377 
L 76.301822 242.333733 
L 75.515825 242.288515 
L 75.353519 242.277645 
L 73.37348 242.164552 
L 73.287579 242.158853 
L 72.434622 242.110484 
L 72.384192 242.107153 
L 71.018842 242.03028 
L 70.308928 241.990151 
L 70.168574 241.982814 
L 69.263677 241.932344 
L 67.437931 241.830614 
L 66.740789 241.794703 
L 66.020225 241.755083 
L 64.562581 241.675014 
L 63.324238 241.612148 
L 62.78224 241.582765 
L 61.683007 241.523233 
L 61.297166 241.502359 
L 59.54953 241.415218 
L 58.799337 241.375155 
L 57.751064 241.323417 
L 57.62857 241.316316 
L 57.62857 244.3824 
L 57.62857 247.7088 
L 57.62857 251.0352 
L 57.62857 254.3616 
L 57.62857 257.688 
L 57.62857 261.0144 
L 57.62857 263.090739 
L 57.860388 263.119015 
L 58.638985 263.220228 
L 59.610818 263.339774 
L 60.508359 263.457292 
L 60.835943 263.497797 
L 61.876142 263.634432 
L 62.48841 263.710531 
L 63.632556 263.861919 
L 63.810071 263.884098 
L 65.117425 264.057642 
L 65.362722 264.088451 
L 66.758373 264.275087 
L 66.782726 264.278161 
L 67.2496 264.3408 
L 68.234052 264.47288 
L 68.363483 264.491279 
L 69.754058 264.679202 
L 69.886052 264.698066 
L 71.102764 264.863026 
L 71.614897 264.936607 
L 72.723904 265.088071 
L 73.015466 265.130186 
L 73.968022 265.260709 
L 74.870842 265.391827 
L 75.692182 265.505208 
L 76.146636 265.571569 
L 76.829715 265.666176 
L 78.131487 265.857308 
L 78.658837 265.930897 
L 79.279628 266.022546 
L 79.687725 266.079686 
L 81.397008 266.333433 
L 81.623813 266.365432 
L 82.414505 266.483467 
L 82.541927 266.501505 
L 83.817009 266.69292 
L 84.496401 266.79483 
L 85.109545 266.886849 
L 85.840981 266.999747 
L 87.105167 267.191494 
L 87.43865 267.2421 
L 89.514807 267.56618 
L 89.705833 267.595482 
L 89.755976 267.603177 
L 90.16148 267.6672 
L 92.067687 267.967031 
L 92.300705 268.004709 
L 93.209851 268.1518 
L 94.36872 268.336165 
L 94.887702 268.421056 
L 96.234486 268.64148 
L 96.759482 268.727309 
L 96.81696 268.737207 
L 97.647299 268.873733 
L 97.810689 268.901973 
L 99.591966 269.196541 
L 99.96383 269.261331 
L 100.601071 269.367324 
L 101.11222 269.456711 
L 102.419993 269.675504 
L 103.113021 269.797688 
L 103.33993 269.835325 
L 103.33993 267.6672 
L 103.33993 264.3408 
L 103.33993 261.0144 
L 103.33993 257.688 
L 103.33993 254.3616 
L 103.33993 251.0352 
L 103.33993 247.7088 
L 103.33993 244.3824 
" clip-path="url(#p57c30782a6)" style="fill: #ff9400"/>
   </g>
   <g id="PathCollection_9">
    <path d="M 103.33993 269.835325 
L 103.113021 269.797688 
L 102.419993 269.675504 
L 101.11222 269.456711 
L 100.601071 269.367324 
L 99.96383 269.261331 
L 99.591966 269.196541 
L 97.810689 268.901973 
L 97.647299 268.873733 
L 96.81696 268.737207 
L 96.759482 268.727309 
L 96.234486 268.64148 
L 94.887702 268.421056 
L 94.36872 268.336165 
L 93.209851 268.1518 
L 92.300705 268.004709 
L 92.067687 267.967031 
L 90.16148 267.6672 
L 89.755976 267.603177 
L 89.705833 267.595482 
L 89.514807 267.56618 
L 87.43865 267.2421 
L 87.105167 267.191494 
L 85.840981 266.999747 
L 85.109545 266.886849 
L 84.496401 266.79483 
L 83.817009 266.69292 
L 82.541927 266.501505 
L 82.414505 266.483467 
L 81.623813 266.365432 
L 81.397008 266.333433 
L 79.687725 266.079686 
L 79.279628 266.022546 
L 78.658837 265.930897 
L 78.131487 265.857308 
L 76.829715 265.666176 
L 76.146636 265.571569 
L 75.692182 265.505208 
L 74.870842 265.391827 
L 73.968022 265.260709 
L 73.015466 265.130186 
L 72.723904 265.088071 
L 71.614897 264.936607 
L 71.102764 264.863026 
L 69.886052 264.698066 
L 69.754058 264.679202 
L 68.363483 264.491279 
L 68.234052 264.47288 
L 67.2496 264.3408 
L 66.782726 264.278161 
L 66.758373 264.275087 
L 65.362722 264.088451 
L 65.117425 264.057642 
L 63.810071 263.884098 
L 63.632556 263.861919 
L 62.48841 263.710531 
L 61.876142 263.634432 
L 60.835943 263.497797 
L 60.508359 263.457292 
L 59.610818 263.339774 
L 58.638985 263.220228 
L 57.860388 263.119015 
L 57.62857 263.090739 
L 57.62857 264.3408 
L 57.62857 267.6672 
L 57.62857 270.9936 
L 57.62857 274.32 
L 57.62857 277.6464 
L 57.62857 280.9728 
L 57.62857 284.2992 
L 57.62857 285.021136 
L 57.770529 285.047389 
L 58.726509 285.228699 
L 59.661611 285.411112 
L 60.436962 285.559003 
L 60.933486 285.656299 
L 61.526124 285.76969 
L 63.006809 286.061179 
L 63.375637 286.132157 
L 64.098315 286.275075 
L 64.322246 286.318304 
L 65.998302 286.65132 
L 66.265526 286.704699 
L 66.86618 286.824884 
L 67.566154 286.966933 
L 68.757404 287.20706 
L 70.804637 287.6256 
L 71.184506 287.703479 
L 71.242518 287.715538 
L 71.500954 287.769357 
L 71.728638 287.816826 
L 73.721153 288.229874 
L 75.462463 288.595933 
L 75.481219 288.59988 
L 76.325393 288.779103 
L 76.454343 288.807153 
L 78.244421 289.188947 
L 78.642554 289.276084 
L 79.253674 289.407042 
L 79.835047 289.534733 
L 81.016898 289.78918 
L 81.821052 289.966905 
L 82.180132 290.044585 
L 83.221855 290.275637 
L 83.785385 290.398125 
L 85.001812 290.669643 
L 85.104696 290.692114 
L 86.264816 290.952 
L 86.54967 291.016242 
L 86.615494 291.031456 
L 88.026965 291.351737 
L 88.185648 291.388597 
L 89.309323 291.644472 
L 90.01969 291.810323 
L 90.947059 292.022819 
L 91.372342 292.12261 
L 92.064789 292.281843 
L 93.430674 292.604006 
L 93.865133 292.70455 
L 94.561505 292.869639 
L 94.815899 292.928725 
L 96.391076 293.30412 
L 96.713485 293.381264 
L 97.186909 293.496065 
L 98.164659 293.732102 
L 99.118066 293.962565 
L 99.312275 294.009616 
L 100.407054 294.2784 
L 101.3488 294.509566 
L 101.514906 294.550865 
L 102.346836 294.75822 
L 103.041295 294.930347 
L 103.33993 295.007289 
L 103.33993 294.2784 
L 103.33993 290.952 
L 103.33993 287.6256 
L 103.33993 284.2992 
L 103.33993 280.9728 
L 103.33993 277.6464 
L 103.33993 274.32 
L 103.33993 270.9936 
" clip-path="url(#p57c30782a6)" style="fill: #ff3800"/>
   </g>
   <g id="PathCollection_10">
    <path d="M 103.33993 295.007289 
L 103.041295 294.930347 
L 102.346836 294.75822 
L 101.514906 294.550865 
L 101.3488 294.509566 
L 100.407054 294.2784 
L 99.312275 294.009616 
L 99.118066 293.962565 
L 98.164659 293.732102 
L 97.186909 293.496065 
L 96.713485 293.381264 
L 96.391076 293.30412 
L 94.815899 292.928725 
L 94.561505 292.869639 
L 93.865133 292.70455 
L 93.430674 292.604006 
L 92.064789 292.281843 
L 91.372342 292.12261 
L 90.947059 292.022819 
L 90.01969 291.810323 
L 89.309323 291.644472 
L 88.185648 291.388597 
L 88.026965 291.351737 
L 86.615494 291.031456 
L 86.54967 291.016242 
L 86.264816 290.952 
L 85.104696 290.692114 
L 85.001812 290.669643 
L 83.785385 290.398125 
L 83.221855 290.275637 
L 82.180132 290.044585 
L 81.821052 289.966905 
L 81.016898 289.78918 
L 79.835047 289.534733 
L 79.253674 289.407042 
L 78.642554 289.276084 
L 78.244421 289.188947 
L 76.454343 288.807153 
L 76.325393 288.779103 
L 75.481219 288.59988 
L 75.462463 288.595933 
L 73.721153 288.229874 
L 71.728638 287.816826 
L 71.500954 287.769357 
L 71.242518 287.715538 
L 71.184506 287.703479 
L 70.804637 287.6256 
L 68.757404 287.20706 
L 67.566154 286.966933 
L 66.86618 286.824884 
L 66.265526 286.704699 
L 65.998302 286.65132 
L 64.322246 286.318304 
L 64.098315 286.275075 
L 63.375637 286.132157 
L 63.006809 286.061179 
L 61.526124 285.76969 
L 60.933486 285.656299 
L 60.436962 285.559003 
L 59.661611 285.411112 
L 58.726509 285.228699 
L 57.770529 285.047389 
L 57.62857 285.021136 
L 57.62857 287.6256 
L 57.62857 290.952 
L 57.62857 294.2784 
L 57.62857 297.6048 
L 57.62857 300.9312 
L 57.62857 304.2576 
L 57.62857 307.584 
L 59.152282 307.584 
L 60.675994 307.584 
L 62.199706 307.584 
L 63.723418 307.584 
L 65.24713 307.584 
L 66.770842 307.584 
L 68.294554 307.584 
L 69.818266 307.584 
L 71.341978 307.584 
L 72.86569 307.584 
L 74.389402 307.584 
L 75.913114 307.584 
L 77.436826 307.584 
L 78.960538 307.584 
L 80.48425 307.584 
L 82.007962 307.584 
L 83.531674 307.584 
L 85.055386 307.584 
L 86.579098 307.584 
L 88.10281 307.584 
L 89.626522 307.584 
L 91.150234 307.584 
L 92.673946 307.584 
L 94.197658 307.584 
L 95.72137 307.584 
L 97.245082 307.584 
L 98.768794 307.584 
L 100.292506 307.584 
L 101.816218 307.584 
L 103.33993 307.584 
L 103.33993 304.2576 
L 103.33993 300.9312 
L 103.33993 297.6048 
" clip-path="url(#p57c30782a6)" style="fill: #b60000"/>
   </g>
   <g id="PathCollection_11">
    <path clip-path="url(#p57c30782a6)" style="fill: #0000b6"/>
   </g>
   <g id="PathCollection_12">
    <path clip-path="url(#p57c30782a6)" style="fill: #0018ff"/>
   </g>
   <g id="PathCollection_13">
    <path d="M 100.4544 88.275379 
L 101.072541 87.459327 
L 102.234353 85.824 
L 104.90343 81.82896 
L 106.370757 79.55168 
L 107.679027 77.34854 
L 107.928076 76.9536 
L 108.061226 76.732142 
L 109.502909 74.35552 
L 111.3122 71.111053 
L 112.950243 68.0832 
L 115.06491 63.906051 
L 116.108002 61.81088 
L 116.360366 61.292681 
L 117.437686 59.2128 
L 118.148664 57.576863 
L 118.530821 56.61472 
L 118.791278 56.023569 
L 121.263717 50.3424 
L 122.332447 47.70572 
L 123.781624 44.07008 
L 124.697071 41.490832 
L 124.704449 41.472 
L 116.64384 41.472 
L 108.54912 41.472 
L 100.4544 41.472 
L 100.4544 50.3424 
L 100.4544 59.2128 
L 100.4544 68.0832 
L 100.4544 76.9536 
L 100.4544 85.824 
" clip-path="url(#p57c30782a6)" style="fill: #0080ff"/>
   </g>
   <g id="PathCollection_14">
    <path d="M 124.704449 41.472 
L 124.697071 41.490832 
L 123.781624 44.07008 
L 122.332447 47.70572 
L 121.263717 50.3424 
L 118.791278 56.023569 
L 118.530821 56.61472 
L 118.148664 57.576863 
L 117.437686 59.2128 
L 116.360366 61.292681 
L 116.108002 61.81088 
L 115.06491 63.906051 
L 112.950243 68.0832 
L 111.3122 71.111053 
L 109.502909 74.35552 
L 108.061226 76.732142 
L 107.928076 76.9536 
L 107.679027 77.34854 
L 106.370757 79.55168 
L 104.90343 81.82896 
L 102.234353 85.824 
L 101.072541 87.459327 
L 100.4544 88.275379 
L 100.4544 94.6944 
L 100.4544 103.5648 
L 100.4544 112.4352 
L 100.4544 121.3056 
L 100.4544 130.176 
L 100.4544 139.0464 
L 100.4544 144.662373 
L 102.19322 143.646546 
L 107.58119 140.107083 
L 108.804804 139.326585 
L 109.210771 139.0464 
L 115.041891 134.808353 
L 117.689686 132.77408 
L 119.180585 131.555763 
L 120.950617 130.176 
L 121.815179 129.450273 
L 122.252456 129.047543 
L 123.963495 127.57792 
L 127.513976 124.346972 
L 130.650469 121.3056 
L 132.223236 119.691695 
L 134.272148 117.498993 
L 135.908027 115.804586 
L 136.610207 115.03328 
L 137.49524 113.993349 
L 138.294525 113.088958 
L 138.90594 112.4352 
L 139.257085 112.020396 
L 139.453148 111.765756 
L 141.081433 109.83712 
L 143.661394 106.560123 
L 145.901725 103.5648 
L 147.931542 100.678027 
L 150.238255 97.29248 
L 150.416035 97.049798 
L 151.996885 94.6944 
L 153.070559 92.857498 
L 153.543946 92.09632 
L 157.122074 85.829078 
L 157.124858 85.824 
L 157.134364 85.805454 
L 160.43661 79.55168 
L 160.866343 78.655249 
L 161.240281 77.977092 
L 161.756473 76.9536 
L 162.293536 75.668638 
L 162.889 74.35552 
L 165.41756 68.626598 
L 165.653269 68.0832 
L 167.999125 62.266828 
L 168.178546 61.81088 
L 168.290405 61.489807 
L 168.746264 60.34497 
L 169.231516 59.2128 
L 169.758918 57.602359 
L 170.131097 56.61472 
L 171.593122 52.22038 
L 172.252486 50.3424 
L 172.529228 49.490229 
L 174.266533 44.07008 
L 174.799692 42.149596 
L 174.999988 41.472 
L 173.30688 41.472 
L 165.21216 41.472 
L 157.11744 41.472 
L 149.02272 41.472 
L 140.928 41.472 
L 132.83328 41.472 
L 124.73856 41.472 
" clip-path="url(#p57c30782a6)" style="fill: #00e4f8"/>
   </g>
   <g id="PathCollection_15">
    <path d="M 174.999988 41.472 
L 174.799692 42.149596 
L 174.266533 44.07008 
L 172.529228 49.490229 
L 172.252486 50.3424 
L 171.593122 52.22038 
L 170.131097 56.61472 
L 169.758918 57.602359 
L 169.231516 59.2128 
L 168.746264 60.34497 
L 168.290405 61.489807 
L 168.178546 61.81088 
L 167.999125 62.266828 
L 165.653269 68.0832 
L 165.41756 68.626598 
L 162.889 74.35552 
L 162.293536 75.668638 
L 161.756473 76.9536 
L 161.240281 77.977092 
L 160.866343 78.655249 
L 160.43661 79.55168 
L 157.134364 85.805454 
L 157.124858 85.824 
L 157.122074 85.829078 
L 153.543946 92.09632 
L 153.070559 92.857498 
L 151.996885 94.6944 
L 150.416035 97.049798 
L 150.238255 97.29248 
L 147.931542 100.678027 
L 145.901725 103.5648 
L 143.661394 106.560123 
L 141.081433 109.83712 
L 139.453148 111.765756 
L 139.257085 112.020396 
L 138.90594 112.4352 
L 138.294525 113.088958 
L 137.49524 113.993349 
L 136.610207 115.03328 
L 135.908027 115.804586 
L 134.272148 117.498993 
L 132.223236 119.691695 
L 130.650469 121.3056 
L 127.513976 124.346972 
L 123.963495 127.57792 
L 122.252456 129.047543 
L 121.815179 129.450273 
L 120.950617 130.176 
L 119.180585 131.555763 
L 117.689686 132.77408 
L 115.041891 134.808353 
L 109.210771 139.0464 
L 108.804804 139.326585 
L 107.58119 140.107083 
L 102.19322 143.646546 
L 100.4544 144.662373 
L 100.4544 147.9168 
L 100.4544 156.7872 
L 100.4544 165.6576 
L 100.4544 174.528 
L 100.4544 183.3984 
L 100.4544 184.455947 
L 101.256064 184.276884 
L 104.574785 183.3984 
L 107.066612 182.725481 
L 113.718267 180.80032 
L 114.15376 180.669707 
L 114.347511 180.603069 
L 118.461936 179.337875 
L 121.221244 178.382364 
L 126.678378 176.653702 
L 132.522438 174.528 
L 132.794176 174.424548 
L 132.887244 174.385235 
L 138.745274 172.136114 
L 145.978432 168.993608 
L 146.80425 168.658912 
L 147.700653 168.25568 
L 149.045293 167.672712 
L 153.214503 165.6576 
L 155.054306 164.721132 
L 158.229297 163.05952 
L 161.302651 161.37346 
L 164.129383 159.651749 
L 165.912702 158.640523 
L 168.919609 156.7872 
L 171.673699 154.997519 
L 177.940186 150.51488 
L 178.349352 150.205607 
L 179.432503 149.437482 
L 181.354715 147.9168 
L 183.24298 146.364413 
L 184.176182 145.501959 
L 184.389576 145.31872 
L 190.29961 139.926665 
L 191.185842 139.0464 
L 195.766092 134.218397 
L 197.061843 132.77408 
L 197.544442 132.197076 
L 199.364509 130.176 
L 200.420611 128.86893 
L 201.005156 128.051447 
L 201.380236 127.57792 
L 205.852222 121.488014 
L 205.977153 121.3056 
L 206.666654 120.230712 
L 210.073745 115.03328 
L 210.360229 114.556968 
L 211.704447 112.4352 
L 212.587508 110.721846 
L 213.089308 109.83712 
L 214.885335 106.487757 
L 216.399354 103.5648 
L 218.293492 99.639873 
L 219.370623 97.29248 
L 220.107504 95.496767 
L 220.493298 94.6944 
L 220.701843 94.161807 
L 221.598606 92.09632 
L 223.385241 87.478741 
L 223.998882 85.824 
L 225.276484 82.096786 
L 226.204322 79.55168 
L 226.380673 78.99866 
L 226.712176 78.154376 
L 227.132503 76.9536 
L 227.836146 74.414384 
L 227.850132 74.35552 
L 228.718755 71.393228 
L 229.699243 68.0832 
L 229.812511 67.666765 
L 231.385861 61.81088 
L 231.662495 60.802128 
L 232.144988 59.2128 
L 232.442163 57.817024 
L 232.636007 56.748712 
L 232.669982 56.61472 
L 232.769106 56.14538 
L 234.123328 50.3424 
L 234.867169 46.83853 
L 235.452142 44.07008 
L 235.711681 42.540022 
L 235.938844 41.472 
L 229.96992 41.472 
L 221.8752 41.472 
L 213.78048 41.472 
L 205.68576 41.472 
L 197.59104 41.472 
L 189.49632 41.472 
L 181.4016 41.472 
" clip-path="url(#p57c30782a6)" style="fill: #53ffa4"/>
   </g>
   <g id="PathCollection_16">
    <path d="M 235.938844 41.472 
L 235.711681 42.540022 
L 235.452142 44.07008 
L 234.867169 46.83853 
L 234.123328 50.3424 
L 232.769106 56.14538 
L 232.669982 56.61472 
L 232.636007 56.748712 
L 232.442163 57.817024 
L 232.144988 59.2128 
L 231.662495 60.802128 
L 231.385861 61.81088 
L 229.812511 67.666765 
L 229.699243 68.0832 
L 228.718755 71.393228 
L 227.850132 74.35552 
L 227.836146 74.414384 
L 227.132503 76.9536 
L 226.712176 78.154376 
L 226.380673 78.99866 
L 226.204322 79.55168 
L 225.276484 82.096786 
L 223.998882 85.824 
L 223.385241 87.478741 
L 221.598606 92.09632 
L 220.701843 94.161807 
L 220.493298 94.6944 
L 220.107504 95.496767 
L 219.370623 97.29248 
L 218.293492 99.639873 
L 216.399354 103.5648 
L 214.885335 106.487757 
L 213.089308 109.83712 
L 212.587508 110.721846 
L 211.704447 112.4352 
L 210.360229 114.556968 
L 210.073745 115.03328 
L 206.666654 120.230712 
L 205.977153 121.3056 
L 205.852222 121.488014 
L 201.380236 127.57792 
L 201.005156 128.051447 
L 200.420611 128.86893 
L 199.364509 130.176 
L 197.544442 132.197076 
L 197.061843 132.77408 
L 195.766092 134.218397 
L 191.185842 139.0464 
L 190.29961 139.926665 
L 184.389576 145.31872 
L 184.176182 145.501959 
L 183.24298 146.364413 
L 181.354715 147.9168 
L 179.432503 149.437482 
L 178.349352 150.205607 
L 177.940186 150.51488 
L 171.673699 154.997519 
L 168.919609 156.7872 
L 165.912702 158.640523 
L 164.129383 159.651749 
L 161.302651 161.37346 
L 158.229297 163.05952 
L 155.054306 164.721132 
L 153.214503 165.6576 
L 149.045293 167.672712 
L 147.700653 168.25568 
L 146.80425 168.658912 
L 145.978432 168.993608 
L 138.745274 172.136114 
L 132.887244 174.385235 
L 132.794176 174.424548 
L 132.522438 174.528 
L 126.678378 176.653702 
L 121.221244 178.382364 
L 118.461936 179.337875 
L 114.347511 180.603069 
L 114.15376 180.669707 
L 113.718267 180.80032 
L 107.066612 182.725481 
L 104.574785 183.3984 
L 101.256064 184.276884 
L 100.4544 184.455947 
L 100.4544 192.2688 
L 100.4544 201.1392 
L 100.4544 210.0096 
L 100.4544 216.293313 
L 102.792361 216.194809 
L 102.915097 216.183506 
L 113.594522 215.53848 
L 114.589864 215.44351 
L 118.605064 215.198129 
L 120.137147 215.051945 
L 128.847636 214.512429 
L 131.220143 214.277246 
L 134.371672 214.079502 
L 137.496927 213.769458 
L 143.982193 213.356462 
L 147.911209 212.950165 
L 150.081238 212.809968 
L 155.029746 212.297348 
L 158.969015 212.038603 
L 164.679205 211.419563 
L 165.71888 211.350157 
L 172.784664 210.581858 
L 173.768057 210.51497 
L 178.187775 210.0096 
L 181.262858 209.642551 
L 181.558888 209.593486 
L 188.370726 208.776146 
L 191.039101 208.318981 
L 196.680889 207.601745 
L 198.632456 207.254475 
L 202.696594 206.733996 
L 209.887946 205.404738 
L 211.934132 205.124983 
L 215.91759 204.355756 
L 216.62642 204.257854 
L 219.205262 203.73728 
L 224.941909 202.531197 
L 226.343742 202.248512 
L 230.783249 201.1392 
L 235.410804 199.934608 
L 240.176615 198.54112 
L 243.000357 197.677484 
L 244.308946 197.164175 
L 247.604638 196.092365 
L 252.607969 194.07265 
L 255.103546 193.199667 
L 257.153954 192.2688 
L 261.549889 190.155237 
L 263.591931 188.980027 
L 266.23654 187.658685 
L 268.886726 185.99648 
L 271.839811 184.032184 
L 272.719066 183.3984 
L 273.657456 182.600543 
L 275.865488 180.937337 
L 276.050587 180.80032 
L 276.118529 180.746819 
L 276.226074 180.644967 
L 279.706583 177.618918 
L 282.798585 174.528 
L 284.741755 172.455569 
L 288.040127 168.25568 
L 289.10772 166.780908 
L 289.449419 166.356784 
L 289.889604 165.6576 
L 290.389993 164.724919 
L 291.111937 163.624567 
L 291.506512 163.05952 
L 291.857265 162.512126 
L 294.153627 158.30589 
L 294.839994 157.084332 
L 294.989978 156.7872 
L 297.646488 151.115304 
L 297.884742 150.51488 
L 298.032866 150.090797 
L 298.471553 148.996895 
L 299.004271 147.9168 
L 299.350291 147.054851 
L 299.535933 146.425054 
L 299.94203 145.31872 
L 301.485906 140.510964 
L 302.013722 139.0464 
L 302.229427 138.396606 
L 303.860441 132.77408 
L 304.331199 130.860852 
L 304.423004 130.573349 
L 304.517919 130.176 
L 304.583282 129.738862 
L 304.67074 129.337028 
L 305.155899 127.57792 
L 305.84476 124.617579 
L 306.520355 121.3056 
L 307.455239 116.228817 
L 307.719222 115.03328 
L 307.781274 114.686061 
L 308.023192 113.726293 
L 308.270825 112.4352 
L 308.411281 111.047764 
L 308.597357 109.83712 
L 308.629777 109.616095 
L 309.580501 103.5648 
L 309.941377 100.983417 
L 310.433429 97.29248 
L 310.499683 96.807537 
L 310.878631 94.6944 
L 311.049492 92.717753 
L 311.076644 92.09632 
L 311.58682 87.59573 
L 311.780629 85.824 
L 312.068744 82.777315 
L 312.407846 79.55168 
L 312.443984 79.342151 
L 312.768578 76.9536 
L 312.874368 74.458206 
L 312.88208 74.35552 
L 312.959447 73.486292 
L 313.433254 68.0832 
L 313.851556 62.42843 
L 313.896576 61.81088 
L 313.906087 61.530331 
L 314.180759 59.2128 
L 314.231971 57.04319 
L 314.267585 56.61472 
L 314.317377 55.486712 
L 314.683893 50.3424 
L 314.943973 45.884728 
L 315.054465 44.07008 
L 315.072075 43.260282 
L 315.196811 41.472 
L 310.91712 41.472 
L 302.8224 41.472 
L 294.72768 41.472 
L 286.63296 41.472 
L 278.53824 41.472 
L 270.44352 41.472 
L 262.3488 41.472 
L 254.25408 41.472 
L 246.15936 41.472 
L 238.06464 41.472 
" clip-path="url(#p57c30782a6)" style="fill: #a4ff53"/>
   </g>
   <g id="PathCollection_17">
    <path d="M 315.196811 41.472 
L 315.072075 43.260282 
L 315.054465 44.07008 
L 314.943973 45.884728 
L 314.683893 50.3424 
L 314.317377 55.486712 
L 314.267585 56.61472 
L 314.231971 57.04319 
L 314.180759 59.2128 
L 313.906087 61.530331 
L 313.896576 61.81088 
L 313.851556 62.42843 
L 313.433254 68.0832 
L 312.959447 73.486292 
L 312.88208 74.35552 
L 312.874368 74.458206 
L 312.768578 76.9536 
L 312.443984 79.342151 
L 312.407846 79.55168 
L 312.068744 82.777315 
L 311.780629 85.824 
L 311.58682 87.59573 
L 311.076644 92.09632 
L 311.049492 92.717753 
L 310.878631 94.6944 
L 310.499683 96.807537 
L 310.433429 97.29248 
L 309.941377 100.983417 
L 309.580501 103.5648 
L 308.629777 109.616095 
L 308.597357 109.83712 
L 308.411281 111.047764 
L 308.270825 112.4352 
L 308.023192 113.726293 
L 307.781274 114.686061 
L 307.719222 115.03328 
L 307.455239 116.228817 
L 306.520355 121.3056 
L 305.84476 124.617579 
L 305.155899 127.57792 
L 304.67074 129.337028 
L 304.583282 129.738862 
L 304.517919 130.176 
L 304.423004 130.573349 
L 304.331199 130.860852 
L 303.860441 132.77408 
L 302.229427 138.396606 
L 302.013722 139.0464 
L 301.485906 140.510964 
L 299.94203 145.31872 
L 299.535933 146.425054 
L 299.350291 147.054851 
L 299.004271 147.9168 
L 298.471553 148.996895 
L 298.032866 150.090797 
L 297.884742 150.51488 
L 297.646488 151.115304 
L 294.989978 156.7872 
L 294.839994 157.084332 
L 294.153627 158.30589 
L 291.857265 162.512126 
L 291.506512 163.05952 
L 291.111937 163.624567 
L 290.389993 164.724919 
L 289.889604 165.6576 
L 289.449419 166.356784 
L 289.10772 166.780908 
L 288.040127 168.25568 
L 284.741755 172.455569 
L 282.798585 174.528 
L 279.706583 177.618918 
L 276.226074 180.644967 
L 276.118529 180.746819 
L 276.050587 180.80032 
L 275.865488 180.937337 
L 273.657456 182.600543 
L 272.719066 183.3984 
L 271.839811 184.032184 
L 268.886726 185.99648 
L 266.23654 187.658685 
L 263.591931 188.980027 
L 261.549889 190.155237 
L 257.153954 192.2688 
L 255.103546 193.199667 
L 252.607969 194.07265 
L 247.604638 196.092365 
L 244.308946 197.164175 
L 243.000357 197.677484 
L 240.176615 198.54112 
L 235.410804 199.934608 
L 230.783249 201.1392 
L 226.343742 202.248512 
L 224.941909 202.531197 
L 219.205262 203.73728 
L 216.62642 204.257854 
L 215.91759 204.355756 
L 211.934132 205.124983 
L 209.887946 205.404738 
L 202.696594 206.733996 
L 198.632456 207.254475 
L 196.680889 207.601745 
L 191.039101 208.318981 
L 188.370726 208.776146 
L 181.558888 209.593486 
L 181.262858 209.642551 
L 178.187775 210.0096 
L 173.768057 210.51497 
L 172.784664 210.581858 
L 165.71888 211.350157 
L 164.679205 211.419563 
L 158.969015 212.038603 
L 155.029746 212.297348 
L 150.081238 212.809968 
L 147.911209 212.950165 
L 143.982193 213.356462 
L 137.496927 213.769458 
L 134.371672 214.079502 
L 131.220143 214.277246 
L 128.847636 214.512429 
L 120.137147 215.051945 
L 118.605064 215.198129 
L 114.589864 215.44351 
L 113.594522 215.53848 
L 102.915097 216.183506 
L 102.792361 216.194809 
L 100.4544 216.293313 
L 100.4544 218.88 
L 100.4544 227.7504 
L 100.4544 236.6208 
L 100.4544 243.905145 
L 101.039697 243.942763 
L 107.625887 244.479497 
L 109.384364 244.575918 
L 116.530688 245.19185 
L 116.752185 245.204566 
L 119.993327 245.4912 
L 124.39147 245.87155 
L 125.169967 245.963947 
L 132.404151 246.626486 
L 133.304474 246.737769 
L 139.277863 247.299462 
L 143.018206 247.781701 
L 147.969776 248.276822 
L 150.188622 248.575659 
L 153.9497 248.96249 
L 161.220354 249.987277 
L 163.421249 250.229156 
L 167.214967 250.78974 
L 168.353931 250.918768 
L 173.795142 251.76352 
L 177.718256 252.359251 
L 189.27008 254.3616 
L 189.433098 254.390297 
L 189.658754 254.43533 
L 190.347089 254.572803 
L 200.731466 256.610382 
L 202.295114 256.95968 
L 209.898496 258.615577 
L 212.281632 259.266713 
L 215.03831 259.904339 
L 220.165506 261.358474 
L 222.956802 262.046753 
L 226.762817 263.232 
L 229.643777 264.09483 
L 230.398233 264.365126 
L 235.560103 265.976536 
L 243.288077 268.955975 
L 243.913703 269.173012 
L 244.707947 269.50432 
L 246.227593 270.075953 
L 250.822073 272.1024 
L 252.580829 272.861898 
L 256.34827 274.70048 
L 258.88411 275.899095 
L 260.859141 277.031824 
L 263.350379 278.323067 
L 267.703883 280.9728 
L 269.493286 282.01409 
L 274.827684 285.777078 
L 276.336821 286.79678 
L 276.903891 287.24512 
L 277.96198 287.976748 
L 280.193264 289.8432 
L 282.512563 291.713472 
L 283.284864 292.44128 
L 288.257562 296.93332 
L 289.852826 298.7136 
L 293.33366 302.401559 
L 295.432106 304.98592 
L 296.232279 305.935222 
L 297.491435 307.584 
L 302.8224 307.584 
L 310.91712 307.584 
L 319.01184 307.584 
L 327.10656 307.584 
L 335.20128 307.584 
L 343.296 307.584 
L 343.296 298.7136 
L 343.296 289.8432 
L 343.296 280.9728 
L 343.296 272.1024 
L 343.296 263.232 
L 343.296 254.3616 
L 343.296 245.4912 
L 343.296 236.6208 
L 343.296 227.7504 
L 343.296 218.88 
L 343.296 210.0096 
L 343.296 201.1392 
L 343.296 192.2688 
L 343.296 183.3984 
L 343.296 174.528 
L 343.296 165.6576 
L 343.296 156.7872 
L 343.296 147.9168 
L 343.296 139.0464 
L 343.296 130.176 
L 343.296 121.3056 
L 343.296 112.4352 
L 343.296 103.5648 
L 343.296 94.6944 
L 343.296 85.824 
L 343.296 76.9536 
L 343.296 68.0832 
L 343.296 59.2128 
L 343.296 50.3424 
L 343.296 41.472 
L 335.20128 41.472 
L 327.10656 41.472 
L 319.01184 41.472 
" clip-path="url(#p57c30782a6)" style="fill: #f8f500"/>
   </g>
   <g id="PathCollection_18">
    <path d="M 297.491435 307.584 
L 296.232279 305.935222 
L 295.432106 304.98592 
L 293.33366 302.401559 
L 289.852826 298.7136 
L 288.257562 296.93332 
L 283.284864 292.44128 
L 282.512563 291.713472 
L 280.193264 289.8432 
L 277.96198 287.976748 
L 276.903891 287.24512 
L 276.336821 286.79678 
L 274.827684 285.777078 
L 269.493286 282.01409 
L 267.703883 280.9728 
L 263.350379 278.323067 
L 260.859141 277.031824 
L 258.88411 275.899095 
L 256.34827 274.70048 
L 252.580829 272.861898 
L 250.822073 272.1024 
L 246.227593 270.075953 
L 244.707947 269.50432 
L 243.913703 269.173012 
L 243.288077 268.955975 
L 235.560103 265.976536 
L 230.398233 264.365126 
L 229.643777 264.09483 
L 226.762817 263.232 
L 222.956802 262.046753 
L 220.165506 261.358474 
L 215.03831 259.904339 
L 212.281632 259.266713 
L 209.898496 258.615577 
L 202.295114 256.95968 
L 200.731466 256.610382 
L 190.347089 254.572803 
L 189.658754 254.43533 
L 189.433098 254.390297 
L 189.27008 254.3616 
L 177.718256 252.359251 
L 173.795142 251.76352 
L 168.353931 250.918768 
L 167.214967 250.78974 
L 163.421249 250.229156 
L 161.220354 249.987277 
L 153.9497 248.96249 
L 150.188622 248.575659 
L 147.969776 248.276822 
L 143.018206 247.781701 
L 139.277863 247.299462 
L 133.304474 246.737769 
L 132.404151 246.626486 
L 125.169967 245.963947 
L 124.39147 245.87155 
L 119.993327 245.4912 
L 116.752185 245.204566 
L 116.530688 245.19185 
L 109.384364 244.575918 
L 107.625887 244.479497 
L 101.039697 243.942763 
L 100.4544 243.905145 
L 100.4544 245.4912 
L 100.4544 254.3616 
L 100.4544 263.232 
L 100.4544 269.335865 
L 102.634569 269.713316 
L 103.714164 269.907786 
L 110.696933 271.127495 
L 115.862002 272.1024 
L 120.914737 273.051661 
L 122.108272 273.296303 
L 128.921376 274.70048 
L 130.219717 274.966408 
L 130.596047 275.054073 
L 134.738739 275.931801 
L 136.769717 276.416047 
L 143.698907 277.936369 
L 148.312474 279.093804 
L 149.620403 279.391597 
L 155.766544 280.9728 
L 156.863233 281.251367 
L 157.551817 281.448801 
L 164.344886 283.267223 
L 166.3002 283.851271 
L 169.80215 284.813372 
L 177.591766 287.24512 
L 178.44919 287.509076 
L 180.338552 288.097592 
L 185.477749 289.8432 
L 187.790888 290.617305 
L 192.833611 292.44128 
L 194.634991 293.082513 
L 195.609517 293.471367 
L 199.081898 294.76945 
L 203.905204 296.762421 
L 206.526013 297.792829 
L 208.595932 298.7136 
L 213.049506 300.647433 
L 214.833886 301.500444 
L 218.021092 302.93703 
L 222.047293 304.98592 
L 224.698517 306.30248 
L 227.081244 307.584 
L 229.96992 307.584 
L 238.06464 307.584 
L 246.15936 307.584 
L 254.25408 307.584 
L 262.3488 307.584 
L 270.44352 307.584 
L 278.53824 307.584 
L 286.63296 307.584 
L 294.72768 307.584 
" clip-path="url(#p57c30782a6)" style="fill: #ff9400"/>
   </g>
   <g id="PathCollection_19">
    <path d="M 227.081244 307.584 
L 224.698517 306.30248 
L 222.047293 304.98592 
L 218.021092 302.93703 
L 214.833886 301.500444 
L 213.049506 300.647433 
L 208.595932 298.7136 
L 206.526013 297.792829 
L 203.905204 296.762421 
L 199.081898 294.76945 
L 195.609517 293.471367 
L 194.634991 293.082513 
L 192.833611 292.44128 
L 187.790888 290.617305 
L 185.477749 289.8432 
L 180.338552 288.097592 
L 178.44919 287.509076 
L 177.591766 287.24512 
L 169.80215 284.813372 
L 166.3002 283.851271 
L 164.344886 283.267223 
L 157.551817 281.448801 
L 156.863233 281.251367 
L 155.766544 280.9728 
L 149.620403 279.391597 
L 148.312474 279.093804 
L 143.698907 277.936369 
L 136.769717 276.416047 
L 134.738739 275.931801 
L 130.596047 275.054073 
L 130.219717 274.966408 
L 128.921376 274.70048 
L 122.108272 273.296303 
L 120.914737 273.051661 
L 115.862002 272.1024 
L 110.696933 271.127495 
L 103.714164 269.907786 
L 102.634569 269.713316 
L 100.4544 269.335865 
L 100.4544 272.1024 
L 100.4544 280.9728 
L 100.4544 289.8432 
L 100.4544 294.314013 
L 101.982416 294.671147 
L 105.748575 295.644691 
L 110.31343 296.780225 
L 116.545356 298.453055 
L 116.724944 298.499034 
L 117.50599 298.7136 
L 123.275615 300.316733 
L 127.291214 301.510863 
L 131.335249 302.676727 
L 134.724606 303.717211 
L 136.014689 304.097731 
L 138.806395 304.98592 
L 143.41816 306.453702 
L 146.81216 307.584 
L 149.02272 307.584 
L 157.11744 307.584 
L 165.21216 307.584 
L 173.30688 307.584 
L 181.4016 307.584 
L 189.49632 307.584 
L 197.59104 307.584 
L 205.68576 307.584 
L 213.78048 307.584 
L 221.8752 307.584 
" clip-path="url(#p57c30782a6)" style="fill: #ff3800"/>
   </g>
   <g id="PathCollection_20">
    <path d="M 146.81216 307.584 
L 143.41816 306.453702 
L 138.806395 304.98592 
L 136.014689 304.097731 
L 134.724606 303.717211 
L 131.335249 302.676727 
L 127.291214 301.510863 
L 123.275615 300.316733 
L 117.50599 298.7136 
L 116.724944 298.499034 
L 116.545356 298.453055 
L 110.31343 296.780225 
L 105.748575 295.644691 
L 101.982416 294.671147 
L 100.4544 294.314013 
L 100.4544 298.7136 
L 100.4544 307.584 
L 108.54912 307.584 
L 116.64384 307.584 
L 124.73856 307.584 
L 132.83328 307.584 
L 140.928 307.584 
" clip-path="url(#p57c30782a6)" style="fill: #b60000"/>
   </g>
   <g id="matplotlib.axis_1">
    <g id="xtick_1">
     <g id="line2d_1">
      <defs>
       <path id="m0e038cb91d" d="M 0 0 
L 0 3.5 
" style="stroke: #000000; stroke-width: 0.8"/>
      </defs>
      <g>
       <use xlink:href="#m0e038cb91d" x="57.6" y="307.584" style="stroke: #000000; stroke-width: 0.8"/>
      </g>
     </g>
     <g id="text_1">
      <!-- 0.0 -->
      <g transform="translate(51.26875 321.385562) scale(0.1 -0.1)">
       <defs>
        <path id="Calibri-30" d="M 3022 2031 
Q 3022 1566 2948 1181 
Q 2875 797 2704 520 
Q 2534 244 2259 92 
Q 1984 -59 1581 -59 
Q 1200 -59 939 77 
Q 678 213 518 477 
Q 359 741 292 1127 
Q 225 1513 225 2013 
Q 225 2475 300 2861 
Q 375 3247 544 3523 
Q 713 3800 988 3951 
Q 1263 4103 1663 4103 
Q 2047 4103 2308 3967 
Q 2569 3831 2728 3567 
Q 2888 3303 2955 2917 
Q 3022 2531 3022 2031 
z
M 2472 1994 
Q 2472 2297 2450 2537 
Q 2428 2778 2386 2962 
Q 2344 3147 2276 3280 
Q 2209 3413 2115 3498 
Q 2022 3584 1901 3623 
Q 1781 3663 1631 3663 
Q 1366 3663 1200 3538 
Q 1034 3413 939 3194 
Q 844 2975 809 2681 
Q 775 2388 775 2050 
Q 775 1597 822 1280 
Q 869 963 970 763 
Q 1072 563 1230 472 
Q 1388 381 1613 381 
Q 1788 381 1920 437 
Q 2053 494 2148 598 
Q 2244 703 2306 850 
Q 2369 997 2406 1175 
Q 2444 1353 2458 1561 
Q 2472 1769 2472 1994 
z
" transform="scale(0.015625)"/>
        <path id="Calibri-2e" d="M 1144 341 
Q 1144 119 1070 45 
Q 997 -28 803 -28 
Q 616 -28 544 44 
Q 472 116 472 331 
Q 472 553 545 626 
Q 619 700 813 700 
Q 1000 700 1072 628 
Q 1144 556 1144 341 
z
" transform="scale(0.015625)"/>
       </defs>
       <use xlink:href="#Calibri-30"/>
       <use xlink:href="#Calibri-2e" x="50.683594"/>
       <use xlink:href="#Calibri-30" x="75.927734"/>
      </g>
     </g>
    </g>
    <g id="xtick_2">
     <g id="line2d_2">
      <g>
       <use xlink:href="#m0e038cb91d" x="86.1696" y="307.584" style="stroke: #000000; stroke-width: 0.8"/>
      </g>
     </g>
     <g id="text_2">
      <!-- 0.1 -->
      <g transform="translate(79.83835 321.385562) scale(0.1 -0.1)">
       <defs>
        <path id="Calibri-31" d="M 2897 213 
Q 2897 153 2887 112 
Q 2878 72 2862 47 
Q 2847 22 2826 11 
Q 2806 0 2784 0 
L 672 0 
Q 650 0 631 11 
Q 613 22 595 47 
Q 578 72 568 112 
Q 559 153 559 213 
Q 559 269 568 309 
Q 578 350 592 376 
Q 606 403 626 417 
Q 647 431 672 431 
L 1516 431 
L 1516 3506 
L 734 3041 
Q 675 3009 639 3003 
Q 603 2997 581 3017 
Q 559 3038 551 3084 
Q 544 3131 544 3203 
Q 544 3256 548 3293 
Q 553 3331 562 3356 
Q 572 3381 589 3400 
Q 606 3419 634 3438 
L 1566 4034 
Q 1578 4044 1597 4050 
Q 1616 4056 1644 4062 
Q 1672 4069 1709 4070 
Q 1747 4072 1803 4072 
Q 1878 4072 1928 4065 
Q 1978 4059 2006 4048 
Q 2034 4038 2043 4020 
Q 2053 4003 2053 3984 
L 2053 431 
L 2784 431 
Q 2809 431 2831 417 
Q 2853 403 2867 376 
Q 2881 350 2889 309 
Q 2897 269 2897 213 
z
" transform="scale(0.015625)"/>
       </defs>
       <use xlink:href="#Calibri-30"/>
       <use xlink:href="#Calibri-2e" x="50.683594"/>
       <use xlink:href="#Calibri-31" x="75.927734"/>
      </g>
     </g>
    </g>
    <g id="xtick_3">
     <g id="line2d_3">
      <g>
       <use xlink:href="#m0e038cb91d" x="114.7392" y="307.584" style="stroke: #000000; stroke-width: 0.8"/>
      </g>
     </g>
     <g id="text_3">
      <!-- 0.2 -->
      <g transform="translate(108.40795 321.385562) scale(0.1 -0.1)">
       <defs>
        <path id="Calibri-32" d="M 2888 231 
Q 2888 175 2880 131 
Q 2872 88 2858 58 
Q 2844 28 2820 14 
Q 2797 0 2769 0 
L 534 0 
Q 491 0 458 11 
Q 425 22 401 47 
Q 378 72 367 119 
Q 356 166 356 234 
Q 356 297 361 344 
Q 366 391 381 427 
Q 397 463 420 498 
Q 444 534 481 575 
L 1266 1406 
Q 1538 1694 1702 1922 
Q 1866 2150 1955 2337 
Q 2044 2525 2072 2678 
Q 2100 2831 2100 2966 
Q 2100 3100 2056 3220 
Q 2013 3341 1930 3431 
Q 1847 3522 1722 3575 
Q 1597 3628 1434 3628 
Q 1244 3628 1092 3575 
Q 941 3522 827 3459 
Q 713 3397 636 3344 
Q 559 3291 522 3291 
Q 500 3291 483 3303 
Q 466 3316 455 3344 
Q 444 3372 437 3419 
Q 431 3466 431 3531 
Q 431 3578 434 3612 
Q 438 3647 445 3672 
Q 453 3697 465 3719 
Q 478 3741 515 3773 
Q 553 3806 645 3862 
Q 738 3919 877 3973 
Q 1016 4028 1183 4065 
Q 1350 4103 1534 4103 
Q 1828 4103 2048 4020 
Q 2269 3938 2414 3794 
Q 2559 3650 2631 3459 
Q 2703 3269 2703 3053 
Q 2703 2859 2668 2667 
Q 2634 2475 2523 2251 
Q 2413 2028 2203 1754 
Q 1994 1481 1647 1125 
L 1006 456 
L 2766 456 
Q 2791 456 2814 442 
Q 2838 428 2855 400 
Q 2872 372 2880 330 
Q 2888 288 2888 231 
z
" transform="scale(0.015625)"/>
       </defs>
       <use xlink:href="#Calibri-30"/>
       <use xlink:href="#Calibri-2e" x="50.683594"/>
       <use xlink:href="#Calibri-32" x="75.927734"/>
      </g>
     </g>
    </g>
    <g id="xtick_4">
     <g id="line2d_4">
      <g>
       <use xlink:href="#m0e038cb91d" x="143.3088" y="307.584" style="stroke: #000000; stroke-width: 0.8"/>
      </g>
     </g>
     <g id="text_4">
      <!-- 0.3 -->
      <g transform="translate(136.97755 321.385562) scale(0.1 -0.1)">
       <defs>
        <path id="Calibri-33" d="M 2856 1156 
Q 2856 878 2759 654 
Q 2663 431 2481 272 
Q 2300 113 2034 27 
Q 1769 -59 1434 -59 
Q 1231 -59 1054 -26 
Q 878 6 740 51 
Q 603 97 512 145 
Q 422 194 398 216 
Q 375 238 362 259 
Q 350 281 340 312 
Q 331 344 326 389 
Q 322 434 322 500 
Q 322 613 344 656 
Q 366 700 406 700 
Q 434 700 517 650 
Q 600 600 729 542 
Q 859 484 1032 434 
Q 1206 384 1419 384 
Q 1625 384 1781 437 
Q 1938 491 2044 587 
Q 2150 684 2203 817 
Q 2256 950 2256 1106 
Q 2256 1278 2189 1415 
Q 2122 1553 1992 1653 
Q 1863 1753 1673 1806 
Q 1484 1859 1244 1859 
L 859 1859 
Q 834 1859 811 1870 
Q 788 1881 770 1906 
Q 753 1931 742 1972 
Q 731 2013 731 2078 
Q 731 2138 740 2177 
Q 750 2216 767 2239 
Q 784 2263 806 2273 
Q 828 2284 856 2284 
L 1209 2284 
Q 1416 2284 1580 2337 
Q 1744 2391 1858 2491 
Q 1972 2591 2033 2730 
Q 2094 2869 2094 3041 
Q 2094 3166 2053 3280 
Q 2013 3394 1931 3478 
Q 1850 3563 1723 3611 
Q 1597 3659 1431 3659 
Q 1250 3659 1098 3604 
Q 947 3550 828 3487 
Q 709 3425 631 3370 
Q 553 3316 522 3316 
Q 500 3316 483 3323 
Q 466 3331 455 3354 
Q 444 3378 439 3420 
Q 434 3463 434 3531 
Q 434 3578 437 3614 
Q 441 3650 450 3676 
Q 459 3703 471 3725 
Q 484 3747 514 3776 
Q 544 3806 634 3862 
Q 725 3919 858 3973 
Q 991 4028 1164 4065 
Q 1338 4103 1538 4103 
Q 1819 4103 2031 4031 
Q 2244 3959 2386 3828 
Q 2528 3697 2598 3514 
Q 2669 3331 2669 3109 
Q 2669 2919 2619 2755 
Q 2569 2591 2472 2464 
Q 2375 2338 2234 2248 
Q 2094 2159 1909 2125 
L 1909 2119 
Q 2119 2097 2292 2014 
Q 2466 1931 2591 1806 
Q 2716 1681 2786 1514 
Q 2856 1347 2856 1156 
z
" transform="scale(0.015625)"/>
       </defs>
       <use xlink:href="#Calibri-30"/>
       <use xlink:href="#Calibri-2e" x="50.683594"/>
       <use xlink:href="#Calibri-33" x="75.927734"/>
      </g>
     </g>
    </g>
    <g id="xtick_5">
     <g id="line2d_5">
      <g>
       <use xlink:href="#m0e038cb91d" x="171.8784" y="307.584" style="stroke: #000000; stroke-width: 0.8"/>
      </g>
     </g>
     <g id="text_5">
      <!-- 0.4 -->
      <g transform="translate(165.54715 321.385562) scale(0.1 -0.1)">
       <defs>
        <path id="Calibri-34" d="M 3059 1150 
Q 3059 1047 3028 987 
Q 2997 928 2941 928 
L 2484 928 
L 2484 78 
Q 2484 53 2471 36 
Q 2459 19 2428 6 
Q 2397 -6 2347 -12 
Q 2297 -19 2219 -19 
Q 2144 -19 2094 -12 
Q 2044 -6 2014 6 
Q 1984 19 1973 36 
Q 1963 53 1963 78 
L 1963 928 
L 294 928 
Q 256 928 231 937 
Q 206 947 186 972 
Q 166 997 158 1044 
Q 150 1091 150 1166 
Q 150 1225 153 1272 
Q 156 1319 165 1358 
Q 175 1397 190 1433 
Q 206 1469 228 1509 
L 1684 3966 
Q 1700 3991 1729 4009 
Q 1759 4028 1806 4040 
Q 1853 4053 1922 4058 
Q 1991 4063 2084 4063 
Q 2188 4063 2264 4055 
Q 2341 4047 2387 4034 
Q 2434 4022 2459 4001 
Q 2484 3981 2484 3953 
L 2484 1372 
L 2941 1372 
Q 2994 1372 3026 1317 
Q 3059 1263 3059 1150 
z
M 1963 3591 
L 1956 3591 
L 641 1372 
L 1963 1372 
L 1963 3591 
z
" transform="scale(0.015625)"/>
       </defs>
       <use xlink:href="#Calibri-30"/>
       <use xlink:href="#Calibri-2e" x="50.683594"/>
       <use xlink:href="#Calibri-34" x="75.927734"/>
      </g>
     </g>
    </g>
    <g id="xtick_6">
     <g id="line2d_6">
      <g>
       <use xlink:href="#m0e038cb91d" x="200.448" y="307.584" style="stroke: #000000; stroke-width: 0.8"/>
      </g>
     </g>
     <g id="text_6">
      <!-- 0.5 -->
      <g transform="translate(194.11675 321.385562) scale(0.1 -0.1)">
       <defs>
        <path id="Calibri-35" d="M 2869 1300 
Q 2869 975 2759 722 
Q 2650 469 2450 295 
Q 2250 122 1973 31 
Q 1697 -59 1359 -59 
Q 1172 -59 1003 -32 
Q 834 -6 703 33 
Q 572 72 487 109 
Q 403 147 379 169 
Q 356 191 347 209 
Q 338 228 330 254 
Q 322 281 319 322 
Q 316 363 316 419 
Q 316 472 320 514 
Q 325 556 337 582 
Q 350 609 367 621 
Q 384 634 406 634 
Q 438 634 503 595 
Q 569 556 680 511 
Q 791 466 955 425 
Q 1119 384 1344 384 
Q 1553 384 1728 434 
Q 1903 484 2029 590 
Q 2156 697 2228 858 
Q 2300 1019 2300 1250 
Q 2300 1444 2239 1592 
Q 2178 1741 2051 1839 
Q 1925 1938 1731 1986 
Q 1538 2034 1269 2034 
Q 1078 2034 940 2015 
Q 803 1997 684 1997 
Q 597 1997 559 2037 
Q 522 2078 522 2194 
L 522 3841 
Q 522 3944 570 3994 
Q 619 4044 709 4044 
L 2500 4044 
Q 2525 4044 2548 4030 
Q 2572 4016 2587 3987 
Q 2603 3959 2611 3915 
Q 2619 3872 2619 3813 
Q 2619 3700 2587 3637 
Q 2556 3575 2500 3575 
L 991 3575 
L 991 2441 
Q 1100 2456 1214 2459 
Q 1328 2463 1478 2463 
Q 1825 2463 2084 2380 
Q 2344 2297 2517 2145 
Q 2691 1994 2780 1778 
Q 2869 1563 2869 1300 
z
" transform="scale(0.015625)"/>
       </defs>
       <use xlink:href="#Calibri-30"/>
       <use xlink:href="#Calibri-2e" x="50.683594"/>
       <use xlink:href="#Calibri-35" x="75.927734"/>
      </g>
     </g>
    </g>
    <g id="xtick_7">
     <g id="line2d_7">
      <g>
       <use xlink:href="#m0e038cb91d" x="229.0176" y="307.584" style="stroke: #000000; stroke-width: 0.8"/>
      </g>
     </g>
     <g id="text_7">
      <!-- 0.6 -->
      <g transform="translate(222.68635 321.385562) scale(0.1 -0.1)">
       <defs>
        <path id="Calibri-36" d="M 2991 1309 
Q 2991 1044 2909 795 
Q 2828 547 2659 358 
Q 2491 169 2231 55 
Q 1972 -59 1619 -59 
Q 1366 -59 1172 3 
Q 978 66 834 181 
Q 691 297 595 465 
Q 500 634 442 850 
Q 384 1066 359 1322 
Q 334 1578 334 1872 
Q 334 2131 362 2397 
Q 391 2663 462 2909 
Q 534 3156 657 3373 
Q 781 3591 967 3752 
Q 1153 3913 1412 4006 
Q 1672 4100 2016 4100 
Q 2131 4100 2250 4086 
Q 2369 4072 2469 4048 
Q 2569 4025 2637 3997 
Q 2706 3969 2728 3951 
Q 2750 3934 2761 3914 
Q 2772 3894 2778 3870 
Q 2784 3847 2787 3817 
Q 2791 3788 2791 3744 
Q 2791 3688 2789 3647 
Q 2788 3606 2777 3581 
Q 2766 3556 2748 3543 
Q 2731 3531 2703 3531 
Q 2669 3531 2609 3553 
Q 2550 3575 2465 3601 
Q 2381 3628 2261 3650 
Q 2141 3672 1981 3672 
Q 1691 3672 1481 3553 
Q 1272 3434 1139 3234 
Q 1006 3034 942 2770 
Q 878 2506 869 2219 
Q 950 2266 1051 2312 
Q 1153 2359 1273 2396 
Q 1394 2434 1528 2457 
Q 1663 2481 1816 2481 
Q 2144 2481 2369 2392 
Q 2594 2303 2733 2145 
Q 2872 1988 2931 1773 
Q 2991 1559 2991 1309 
z
M 2447 1259 
Q 2447 1441 2411 1589 
Q 2375 1738 2290 1841 
Q 2206 1944 2065 2000 
Q 1925 2056 1719 2056 
Q 1603 2056 1487 2036 
Q 1372 2016 1264 1980 
Q 1156 1944 1057 1895 
Q 959 1847 878 1791 
Q 878 1388 929 1116 
Q 981 844 1079 680 
Q 1178 516 1325 445 
Q 1472 375 1669 375 
Q 1869 375 2016 450 
Q 2163 525 2259 651 
Q 2356 778 2401 936 
Q 2447 1094 2447 1259 
z
" transform="scale(0.015625)"/>
       </defs>
       <use xlink:href="#Calibri-30"/>
       <use xlink:href="#Calibri-2e" x="50.683594"/>
       <use xlink:href="#Calibri-36" x="75.927734"/>
      </g>
     </g>
    </g>
    <g id="xtick_8">
     <g id="line2d_8">
      <g>
       <use xlink:href="#m0e038cb91d" x="257.5872" y="307.584" style="stroke: #000000; stroke-width: 0.8"/>
      </g>
     </g>
     <g id="text_8">
      <!-- 0.7 -->
      <g transform="translate(251.25595 321.385562) scale(0.1 -0.1)">
       <defs>
        <path id="Calibri-37" d="M 2947 3813 
Q 2947 3756 2942 3711 
Q 2938 3666 2930 3623 
Q 2922 3581 2908 3542 
Q 2894 3503 2875 3459 
L 1419 103 
Q 1403 66 1379 42 
Q 1356 19 1320 5 
Q 1284 -9 1228 -14 
Q 1172 -19 1091 -19 
Q 984 -19 925 -9 
Q 866 0 839 20 
Q 813 41 816 70 
Q 819 100 838 141 
L 2369 3572 
L 428 3572 
Q 369 3572 339 3634 
Q 309 3697 309 3809 
Q 309 3869 317 3912 
Q 325 3956 340 3986 
Q 356 4016 378 4030 
Q 400 4044 428 4044 
L 2784 4044 
Q 2828 4044 2861 4034 
Q 2894 4025 2911 3997 
Q 2928 3969 2937 3925 
Q 2947 3881 2947 3813 
z
" transform="scale(0.015625)"/>
       </defs>
       <use xlink:href="#Calibri-30"/>
       <use xlink:href="#Calibri-2e" x="50.683594"/>
       <use xlink:href="#Calibri-37" x="75.927734"/>
      </g>
     </g>
    </g>
    <g id="xtick_9">
     <g id="line2d_9">
      <g>
       <use xlink:href="#m0e038cb91d" x="286.1568" y="307.584" style="stroke: #000000; stroke-width: 0.8"/>
      </g>
     </g>
     <g id="text_9">
      <!-- 0.8 -->
      <g transform="translate(279.82555 321.385562) scale(0.1 -0.1)">
       <defs>
        <path id="Calibri-38" d="M 2981 1038 
Q 2981 775 2887 570 
Q 2794 366 2617 225 
Q 2441 84 2181 12 
Q 1922 -59 1588 -59 
Q 1275 -59 1028 6 
Q 781 72 609 200 
Q 438 328 347 515 
Q 256 703 256 944 
Q 256 1134 318 1293 
Q 381 1453 498 1587 
Q 616 1722 787 1839 
Q 959 1956 1175 2063 
Q 988 2159 844 2267 
Q 700 2375 600 2501 
Q 500 2628 448 2772 
Q 397 2916 397 3084 
Q 397 3297 473 3483 
Q 550 3669 704 3806 
Q 859 3944 1098 4023 
Q 1338 4103 1656 4103 
Q 1963 4103 2186 4029 
Q 2409 3956 2554 3829 
Q 2700 3703 2769 3531 
Q 2838 3359 2838 3163 
Q 2838 3003 2786 2856 
Q 2734 2709 2634 2578 
Q 2534 2447 2389 2333 
Q 2244 2219 2056 2119 
Q 2278 2009 2451 1893 
Q 2625 1778 2742 1645 
Q 2859 1513 2920 1364 
Q 2981 1216 2981 1038 
z
M 2306 3113 
Q 2306 3244 2261 3350 
Q 2216 3456 2128 3531 
Q 2041 3606 1911 3645 
Q 1781 3684 1616 3684 
Q 1278 3684 1104 3531 
Q 931 3378 931 3113 
Q 931 2991 973 2886 
Q 1016 2781 1105 2687 
Q 1194 2594 1330 2505 
Q 1466 2416 1653 2319 
Q 1969 2481 2137 2678 
Q 2306 2875 2306 3113 
z
M 2438 981 
Q 2438 1125 2384 1242 
Q 2331 1359 2223 1461 
Q 2116 1563 1955 1658 
Q 1794 1753 1581 1856 
Q 1384 1759 1236 1662 
Q 1088 1566 992 1462 
Q 897 1359 848 1245 
Q 800 1131 800 994 
Q 800 691 1008 525 
Q 1216 359 1628 359 
Q 2028 359 2233 526 
Q 2438 694 2438 981 
z
" transform="scale(0.015625)"/>
       </defs>
       <use xlink:href="#Calibri-30"/>
       <use xlink:href="#Calibri-2e" x="50.683594"/>
       <use xlink:href="#Calibri-38" x="75.927734"/>
      </g>
     </g>
    </g>
    <g id="xtick_10">
     <g id="line2d_10">
      <g>
       <use xlink:href="#m0e038cb91d" x="314.7264" y="307.584" style="stroke: #000000; stroke-width: 0.8"/>
      </g>
     </g>
     <g id="text_10">
      <!-- 0.9 -->
      <g transform="translate(308.39515 321.385562) scale(0.1 -0.1)">
       <defs>
        <path id="Calibri-39" d="M 2919 2181 
Q 2919 1919 2887 1650 
Q 2856 1381 2781 1132 
Q 2706 884 2579 667 
Q 2453 450 2261 287 
Q 2069 125 1805 33 
Q 1541 -59 1191 -59 
Q 1056 -59 929 -42 
Q 803 -25 701 0 
Q 600 25 531 53 
Q 463 81 431 109 
Q 400 138 386 186 
Q 372 234 372 316 
Q 372 384 376 425 
Q 381 466 390 487 
Q 400 509 417 517 
Q 434 525 459 525 
Q 494 525 556 501 
Q 619 478 714 450 
Q 809 422 937 398 
Q 1066 375 1225 375 
Q 1528 375 1745 492 
Q 1963 609 2100 806 
Q 2238 1003 2306 1262 
Q 2375 1522 2381 1809 
Q 2216 1713 1984 1638 
Q 1753 1563 1453 1563 
Q 1116 1563 886 1655 
Q 656 1747 517 1906 
Q 378 2066 317 2284 
Q 256 2503 256 2763 
Q 256 3031 334 3273 
Q 413 3516 578 3700 
Q 744 3884 1000 3993 
Q 1256 4103 1613 4103 
Q 1866 4103 2061 4039 
Q 2256 3975 2400 3854 
Q 2544 3734 2644 3564 
Q 2744 3394 2805 3178 
Q 2866 2963 2892 2711 
Q 2919 2459 2919 2181 
z
M 2372 2241 
Q 2372 2641 2319 2914 
Q 2266 3188 2162 3356 
Q 2059 3525 1909 3600 
Q 1759 3675 1563 3675 
Q 1359 3675 1215 3601 
Q 1072 3528 980 3404 
Q 888 3281 844 3125 
Q 800 2969 800 2803 
Q 800 2619 839 2466 
Q 878 2313 965 2206 
Q 1053 2100 1193 2042 
Q 1334 1984 1541 1984 
Q 1775 1984 1994 2054 
Q 2213 2125 2372 2241 
z
" transform="scale(0.015625)"/>
       </defs>
       <use xlink:href="#Calibri-30"/>
       <use xlink:href="#Calibri-2e" x="50.683594"/>
       <use xlink:href="#Calibri-39" x="75.927734"/>
      </g>
     </g>
    </g>
    <g id="xtick_11">
     <g id="line2d_11">
      <g>
       <use xlink:href="#m0e038cb91d" x="343.296" y="307.584" style="stroke: #000000; stroke-width: 0.8"/>
      </g>
     </g>
     <g id="text_11">
      <!-- 1.0 -->
      <g transform="translate(336.96475 321.385562) scale(0.1 -0.1)">
       <use xlink:href="#Calibri-31"/>
       <use xlink:href="#Calibri-2e" x="50.683594"/>
       <use xlink:href="#Calibri-30" x="75.927734"/>
      </g>
     </g>
    </g>
    <g id="text_12">
     <!-- $\mathit{p}$ (cm$^2$/cm$^2$) -->
     <g transform="translate(174.148 336.263687) scale(0.1 -0.1)">
      <defs>
       <path id="DejaVuSans-Oblique-70" d="M 3175 2156 
Q 3175 2616 2975 2859 
Q 2775 3103 2400 3103 
Q 2144 3103 1911 2972 
Q 1678 2841 1497 2591 
Q 1319 2344 1212 1994 
Q 1106 1644 1106 1300 
Q 1106 863 1306 627 
Q 1506 391 1875 391 
Q 2147 391 2380 519 
Q 2613 647 2778 891 
Q 2956 1147 3065 1494 
Q 3175 1841 3175 2156 
z
M 1394 2969 
Q 1625 3272 1939 3428 
Q 2253 3584 2638 3584 
Q 3175 3584 3472 3232 
Q 3769 2881 3769 2247 
Q 3769 1728 3584 1258 
Q 3400 788 3053 416 
Q 2822 169 2531 39 
Q 2241 -91 1919 -91 
Q 1547 -91 1294 64 
Q 1041 219 916 525 
L 556 -1331 
L -19 -1331 
L 922 3500 
L 1497 3500 
L 1394 2969 
z
" transform="scale(0.015625)"/>
       <path id="Calibri-20" transform="scale(0.015625)"/>
       <path id="Calibri-28" d="M 1547 4306 
Q 1250 3678 1104 3017 
Q 959 2356 959 1688 
Q 959 1016 1107 356 
Q 1256 -303 1541 -938 
Q 1556 -975 1557 -1001 
Q 1559 -1028 1537 -1045 
Q 1516 -1063 1470 -1070 
Q 1425 -1078 1347 -1078 
Q 1291 -1078 1250 -1075 
Q 1209 -1072 1179 -1062 
Q 1150 -1053 1131 -1040 
Q 1113 -1028 1103 -1013 
Q 934 -694 806 -367 
Q 678 -41 590 296 
Q 503 634 459 979 
Q 416 1325 416 1678 
Q 416 2031 464 2375 
Q 513 2719 602 3058 
Q 691 3397 819 3725 
Q 947 4053 1106 4375 
Q 1109 4388 1123 4397 
Q 1138 4406 1163 4415 
Q 1188 4425 1231 4429 
Q 1275 4434 1344 4434 
Q 1416 4434 1459 4425 
Q 1503 4416 1528 4400 
Q 1553 4384 1556 4359 
Q 1559 4334 1547 4306 
z
" transform="scale(0.015625)"/>
       <path id="Calibri-63" d="M 2500 506 
Q 2500 453 2497 414 
Q 2494 375 2486 348 
Q 2478 322 2467 301 
Q 2456 281 2417 242 
Q 2378 203 2284 145 
Q 2191 88 2073 42 
Q 1956 -3 1818 -31 
Q 1681 -59 1534 -59 
Q 1231 -59 997 41 
Q 763 141 605 333 
Q 447 525 364 804 
Q 281 1084 281 1450 
Q 281 1866 382 2164 
Q 484 2463 661 2653 
Q 838 2844 1077 2936 
Q 1316 3028 1594 3028 
Q 1728 3028 1854 3003 
Q 1981 2978 2087 2937 
Q 2194 2897 2276 2844 
Q 2359 2791 2396 2753 
Q 2434 2716 2448 2694 
Q 2463 2672 2472 2642 
Q 2481 2613 2484 2575 
Q 2488 2538 2488 2481 
Q 2488 2359 2459 2311 
Q 2431 2263 2391 2263 
Q 2344 2263 2283 2314 
Q 2222 2366 2128 2428 
Q 2034 2491 1901 2542 
Q 1769 2594 1588 2594 
Q 1216 2594 1017 2308 
Q 819 2022 819 1478 
Q 819 1206 870 1001 
Q 922 797 1022 659 
Q 1122 522 1267 455 
Q 1413 388 1600 388 
Q 1778 388 1912 444 
Q 2047 500 2145 567 
Q 2244 634 2311 689 
Q 2378 744 2416 744 
Q 2438 744 2453 731 
Q 2469 719 2480 689 
Q 2491 659 2495 614 
Q 2500 569 2500 506 
z
" transform="scale(0.015625)"/>
       <path id="Calibri-6d" d="M 4650 78 
Q 4650 53 4637 36 
Q 4625 19 4597 6 
Q 4569 -6 4519 -12 
Q 4469 -19 4394 -19 
Q 4316 -19 4266 -12 
Q 4216 -6 4186 6 
Q 4156 19 4143 36 
Q 4131 53 4131 78 
L 4131 1788 
Q 4131 1966 4100 2112 
Q 4069 2259 4000 2365 
Q 3931 2472 3825 2528 
Q 3719 2584 3575 2584 
Q 3397 2584 3217 2446 
Q 3038 2309 2822 2044 
L 2822 78 
Q 2822 53 2809 36 
Q 2797 19 2767 6 
Q 2738 -6 2688 -12 
Q 2638 -19 2563 -19 
Q 2491 -19 2439 -12 
Q 2388 -6 2358 6 
Q 2328 19 2317 36 
Q 2306 53 2306 78 
L 2306 1788 
Q 2306 1966 2272 2112 
Q 2238 2259 2169 2365 
Q 2100 2472 1995 2528 
Q 1891 2584 1747 2584 
Q 1569 2584 1387 2446 
Q 1206 2309 994 2044 
L 994 78 
Q 994 53 981 36 
Q 969 19 941 6 
Q 913 -6 863 -12 
Q 813 -19 734 -19 
Q 659 -19 609 -12 
Q 559 -6 529 6 
Q 500 19 489 36 
Q 478 53 478 78 
L 478 2891 
Q 478 2916 487 2933 
Q 497 2950 525 2964 
Q 553 2978 597 2983 
Q 641 2988 713 2988 
Q 781 2988 826 2983 
Q 872 2978 897 2964 
Q 922 2950 933 2933 
Q 944 2916 944 2891 
L 944 2519 
Q 1181 2784 1404 2907 
Q 1628 3031 1856 3031 
Q 2031 3031 2170 2990 
Q 2309 2950 2415 2876 
Q 2522 2803 2597 2701 
Q 2672 2600 2722 2475 
Q 2863 2628 2989 2734 
Q 3116 2841 3233 2906 
Q 3350 2972 3461 3001 
Q 3572 3031 3684 3031 
Q 3956 3031 4140 2936 
Q 4325 2841 4439 2681 
Q 4553 2522 4601 2308 
Q 4650 2094 4650 1856 
L 4650 78 
z
" transform="scale(0.015625)"/>
       <path id="DejaVuSans-32" d="M 1228 531 
L 3431 531 
L 3431 0 
L 469 0 
L 469 531 
Q 828 903 1448 1529 
Q 2069 2156 2228 2338 
Q 2531 2678 2651 2914 
Q 2772 3150 2772 3378 
Q 2772 3750 2511 3984 
Q 2250 4219 1831 4219 
Q 1534 4219 1204 4116 
Q 875 4013 500 3803 
L 500 4441 
Q 881 4594 1212 4672 
Q 1544 4750 1819 4750 
Q 2544 4750 2975 4387 
Q 3406 4025 3406 3419 
Q 3406 3131 3298 2873 
Q 3191 2616 2906 2266 
Q 2828 2175 2409 1742 
Q 1991 1309 1228 531 
z
" transform="scale(0.015625)"/>
       <path id="Calibri-2f" d="M 525 -753 
Q 513 -794 492 -817 
Q 472 -841 440 -853 
Q 409 -866 364 -872 
Q 319 -878 253 -878 
Q 175 -878 123 -867 
Q 72 -856 44 -836 
Q 16 -816 9 -786 
Q 3 -756 22 -716 
L 1913 4469 
Q 1925 4509 1945 4532 
Q 1966 4556 1995 4570 
Q 2025 4584 2072 4589 
Q 2119 4594 2184 4594 
Q 2263 4594 2313 4583 
Q 2363 4572 2391 4553 
Q 2419 4534 2425 4503 
Q 2431 4472 2416 4431 
L 525 -753 
z
" transform="scale(0.015625)"/>
       <path id="Calibri-29" d="M 1522 1678 
Q 1522 1325 1478 979 
Q 1434 634 1346 296 
Q 1259 -41 1132 -367 
Q 1006 -694 838 -1013 
Q 828 -1028 809 -1040 
Q 791 -1053 761 -1062 
Q 731 -1072 690 -1075 
Q 650 -1078 594 -1078 
Q 513 -1078 467 -1070 
Q 422 -1063 401 -1045 
Q 381 -1028 382 -1001 
Q 384 -975 400 -938 
Q 688 -306 834 355 
Q 981 1016 981 1688 
Q 981 2356 834 3017 
Q 688 3678 394 4306 
Q 381 4334 384 4359 
Q 388 4384 413 4400 
Q 438 4416 481 4425 
Q 525 4434 597 4434 
Q 663 4434 706 4429 
Q 750 4425 776 4415 
Q 803 4406 815 4397 
Q 828 4388 834 4375 
Q 1156 3734 1339 3057 
Q 1522 2381 1522 1678 
z
" transform="scale(0.015625)"/>
      </defs>
      <use xlink:href="#DejaVuSans-Oblique-70" transform="translate(0 0.765625)"/>
      <use xlink:href="#Calibri-20" transform="translate(63.476562 0.765625)"/>
      <use xlink:href="#Calibri-28" transform="translate(84.958984 0.765625)"/>
      <use xlink:href="#Calibri-63" transform="translate(115.28125 0.765625)"/>
      <use xlink:href="#Calibri-6d" transform="translate(157.566406 0.765625)"/>
      <use xlink:href="#DejaVuSans-32" transform="translate(238.40625 39.046875) scale(0.7)"/>
      <use xlink:href="#Calibri-2f" transform="translate(285.676758 0.765625)"/>
      <use xlink:href="#Calibri-63" transform="translate(324.299805 0.765625)"/>
      <use xlink:href="#Calibri-6d" transform="translate(366.584961 0.765625)"/>
      <use xlink:href="#DejaVuSans-32" transform="translate(447.424805 39.046875) scale(0.7)"/>
      <use xlink:href="#Calibri-29" transform="translate(494.695312 0.765625)"/>
     </g>
    </g>
   </g>
   <g id="matplotlib.axis_2">
    <g id="ytick_1">
     <g id="line2d_12">
      <defs>
       <path id="mfcb6a44783" d="M 0 0 
L -3.5 0 
" style="stroke: #000000; stroke-width: 0.8"/>
      </defs>
      <g>
       <use xlink:href="#mfcb6a44783" x="57.6" y="275.65056" style="stroke: #000000; stroke-width: 0.8"/>
      </g>
     </g>
     <g id="text_13">
      <!-- 25 -->
      <g transform="translate(40.4625 279.051341) scale(0.1 -0.1)">
       <use xlink:href="#Calibri-32"/>
       <use xlink:href="#Calibri-35" x="50.683594"/>
      </g>
     </g>
    </g>
    <g id="ytick_2">
     <g id="line2d_13">
      <g>
       <use xlink:href="#mfcb6a44783" x="57.6" y="242.38656" style="stroke: #000000; stroke-width: 0.8"/>
      </g>
     </g>
     <g id="text_14">
      <!-- 50 -->
      <g transform="translate(40.4625 245.787341) scale(0.1 -0.1)">
       <use xlink:href="#Calibri-35"/>
       <use xlink:href="#Calibri-30" x="50.683594"/>
      </g>
     </g>
    </g>
    <g id="ytick_3">
     <g id="line2d_14">
      <g>
       <use xlink:href="#mfcb6a44783" x="57.6" y="209.12256" style="stroke: #000000; stroke-width: 0.8"/>
      </g>
     </g>
     <g id="text_15">
      <!-- 75 -->
      <g transform="translate(40.4625 212.523341) scale(0.1 -0.1)">
       <use xlink:href="#Calibri-37"/>
       <use xlink:href="#Calibri-35" x="50.683594"/>
      </g>
     </g>
    </g>
    <g id="ytick_4">
     <g id="line2d_15">
      <g>
       <use xlink:href="#mfcb6a44783" x="57.6" y="175.85856" style="stroke: #000000; stroke-width: 0.8"/>
      </g>
     </g>
     <g id="text_16">
      <!-- 100 -->
      <g transform="translate(35.39375 179.259341) scale(0.1 -0.1)">
       <use xlink:href="#Calibri-31"/>
       <use xlink:href="#Calibri-30" x="50.683594"/>
       <use xlink:href="#Calibri-30" x="101.367188"/>
      </g>
     </g>
    </g>
    <g id="ytick_5">
     <g id="line2d_16">
      <g>
       <use xlink:href="#mfcb6a44783" x="57.6" y="142.59456" style="stroke: #000000; stroke-width: 0.8"/>
      </g>
     </g>
     <g id="text_17">
      <!-- 125 -->
      <g transform="translate(35.39375 145.995341) scale(0.1 -0.1)">
       <use xlink:href="#Calibri-31"/>
       <use xlink:href="#Calibri-32" x="50.683594"/>
       <use xlink:href="#Calibri-35" x="101.367188"/>
      </g>
     </g>
    </g>
    <g id="ytick_6">
     <g id="line2d_17">
      <g>
       <use xlink:href="#mfcb6a44783" x="57.6" y="109.33056" style="stroke: #000000; stroke-width: 0.8"/>
      </g>
     </g>
     <g id="text_18">
      <!-- 150 -->
      <g transform="translate(35.39375 112.731341) scale(0.1 -0.1)">
       <use xlink:href="#Calibri-31"/>
       <use xlink:href="#Calibri-35" x="50.683594"/>
       <use xlink:href="#Calibri-30" x="101.367188"/>
      </g>
     </g>
    </g>
    <g id="ytick_7">
     <g id="line2d_18">
      <g>
       <use xlink:href="#mfcb6a44783" x="57.6" y="76.06656" style="stroke: #000000; stroke-width: 0.8"/>
      </g>
     </g>
     <g id="text_19">
      <!-- 175 -->
      <g transform="translate(35.39375 79.467341) scale(0.1 -0.1)">
       <use xlink:href="#Calibri-31"/>
       <use xlink:href="#Calibri-37" x="50.683594"/>
       <use xlink:href="#Calibri-35" x="101.367188"/>
      </g>
     </g>
    </g>
    <g id="ytick_8">
     <g id="line2d_19">
      <g>
       <use xlink:href="#mfcb6a44783" x="57.6" y="42.80256" style="stroke: #000000; stroke-width: 0.8"/>
      </g>
     </g>
     <g id="text_20">
      <!-- 200 -->
      <g transform="translate(35.39375 46.203341) scale(0.1 -0.1)">
       <use xlink:href="#Calibri-32"/>
       <use xlink:href="#Calibri-30" x="50.683594"/>
       <use xlink:href="#Calibri-30" x="101.367188"/>
      </g>
     </g>
    </g>
    <g id="text_21">
     <!-- $\mathit{Z}$$_{a}$ (nm) -->
     <g transform="translate(29.59375 191.028) rotate(-90) scale(0.1 -0.1)">
      <defs>
       <path id="DejaVuSans-Oblique-5a" d="M 838 4666 
L 4500 4666 
L 4409 4184 
L 794 531 
L 3769 531 
L 3669 0 
L -141 0 
L -50 481 
L 3566 4134 
L 738 4134 
L 838 4666 
z
" transform="scale(0.015625)"/>
       <path id="DejaVuSans-Oblique-61" d="M 3438 1997 
L 3047 0 
L 2472 0 
L 2578 531 
Q 2325 219 2001 64 
Q 1678 -91 1281 -91 
Q 834 -91 548 182 
Q 263 456 263 884 
Q 263 1497 752 1853 
Q 1241 2209 2100 2209 
L 2900 2209 
L 2931 2363 
Q 2938 2388 2941 2417 
Q 2944 2447 2944 2509 
Q 2944 2788 2717 2942 
Q 2491 3097 2081 3097 
Q 1800 3097 1504 3025 
Q 1209 2953 897 2809 
L 997 3341 
Q 1322 3463 1633 3523 
Q 1944 3584 2234 3584 
Q 2853 3584 3176 3315 
Q 3500 3047 3500 2534 
Q 3500 2431 3484 2292 
Q 3469 2153 3438 1997 
z
M 2816 1759 
L 2241 1759 
Q 1534 1759 1195 1570 
Q 856 1381 856 984 
Q 856 709 1029 553 
Q 1203 397 1509 397 
Q 1978 397 2328 733 
Q 2678 1069 2791 1631 
L 2816 1759 
z
" transform="scale(0.015625)"/>
       <path id="Calibri-6e" d="M 2900 78 
Q 2900 53 2887 36 
Q 2875 19 2847 6 
Q 2819 -6 2769 -12 
Q 2719 -19 2644 -19 
Q 2566 -19 2516 -12 
Q 2466 -6 2437 6 
Q 2409 19 2396 36 
Q 2384 53 2384 78 
L 2384 1725 
Q 2384 1966 2346 2112 
Q 2309 2259 2237 2365 
Q 2166 2472 2052 2528 
Q 1938 2584 1788 2584 
Q 1594 2584 1400 2446 
Q 1206 2309 994 2044 
L 994 78 
Q 994 53 981 36 
Q 969 19 941 6 
Q 913 -6 863 -12 
Q 813 -19 734 -19 
Q 659 -19 609 -12 
Q 559 -6 529 6 
Q 500 19 489 36 
Q 478 53 478 78 
L 478 2891 
Q 478 2916 487 2933 
Q 497 2950 525 2964 
Q 553 2978 597 2983 
Q 641 2988 713 2988 
Q 781 2988 826 2983 
Q 872 2978 897 2964 
Q 922 2950 933 2933 
Q 944 2916 944 2891 
L 944 2519 
Q 1181 2784 1417 2907 
Q 1653 3031 1894 3031 
Q 2175 3031 2367 2936 
Q 2559 2841 2678 2681 
Q 2797 2522 2848 2308 
Q 2900 2094 2900 1794 
L 2900 78 
z
" transform="scale(0.015625)"/>
      </defs>
      <use xlink:href="#DejaVuSans-Oblique-5a" transform="translate(0 0.09375)"/>
      <use xlink:href="#DejaVuSans-Oblique-61" transform="translate(69.462891 -16.3125) scale(0.7)"/>
      <use xlink:href="#Calibri-20" transform="translate(115.092773 0.09375)"/>
      <use xlink:href="#Calibri-28" transform="translate(136.575195 0.09375)"/>
      <use xlink:href="#Calibri-6e" transform="translate(166.897461 0.09375)"/>
      <use xlink:href="#Calibri-6d" transform="translate(219.436523 0.09375)"/>
      <use xlink:href="#Calibri-29" transform="translate(299.319336 0.09375)"/>
     </g>
    </g>
   </g>
   <g id="patch_3">
    <path d="M 57.6 307.584 
L 57.6 41.472 
" style="fill: none; stroke: #000000; stroke-width: 0.8; stroke-linejoin: miter; stroke-linecap: square"/>
   </g>
   <g id="patch_4">
    <path d="M 343.296 307.584 
L 343.296 41.472 
" style="fill: none; stroke: #000000; stroke-width: 0.8; stroke-linejoin: miter; stroke-linecap: square"/>
   </g>
   <g id="patch_5">
    <path d="M 57.6 307.584 
L 343.296 307.584 
" style="fill: none; stroke: #000000; stroke-width: 0.8; stroke-linejoin: miter; stroke-linecap: square"/>
   </g>
   <g id="patch_6">
    <path d="M 57.6 41.472 
L 343.296 41.472 
" style="fill: none; stroke: #000000; stroke-width: 0.8; stroke-linejoin: miter; stroke-linecap: square"/>
   </g>
   <g id="text_22">
    <!-- $\lambda$ = 535 nm -->
    <g transform="translate(177.348 35.472) scale(0.1 -0.1)">
     <defs>
      <path id="DejaVuSans-Oblique-3bb" d="M 2350 4316 
L 3125 0 
L 2516 0 
L 2038 2588 
L 328 0 
L -281 0 
L 1903 3356 
L 1794 3975 
Q 1725 4369 1391 4369 
L 1091 4369 
L 1184 4863 
L 1550 4856 
Q 2253 4847 2350 4316 
z
" transform="scale(0.015625)"/>
      <path id="Calibri-3d" d="M 2891 2409 
Q 2891 2284 2855 2236 
Q 2819 2188 2772 2188 
L 409 2188 
Q 363 2188 328 2236 
Q 294 2284 294 2409 
Q 294 2522 325 2575 
Q 356 2628 409 2628 
L 2772 2628 
Q 2828 2628 2859 2575 
Q 2891 2522 2891 2409 
z
M 2891 1194 
Q 2891 1069 2855 1022 
Q 2819 975 2772 975 
L 409 975 
Q 363 975 328 1022 
Q 294 1069 294 1194 
Q 294 1309 325 1362 
Q 356 1416 409 1416 
L 2772 1416 
Q 2828 1416 2859 1362 
Q 2891 1309 2891 1194 
z
" transform="scale(0.015625)"/>
     </defs>
     <use xlink:href="#DejaVuSans-Oblique-3bb" transform="translate(0 0.015625)"/>
     <use xlink:href="#Calibri-20" transform="translate(59.179688 0.015625)"/>
     <use xlink:href="#Calibri-3d" transform="translate(81.787109 0.015625)"/>
     <use xlink:href="#Calibri-20" transform="translate(131.591797 0.015625)"/>
     <use xlink:href="#Calibri-35" transform="translate(154.199219 0.015625)"/>
     <use xlink:href="#Calibri-33" transform="translate(204.882812 0.015625)"/>
     <use xlink:href="#Calibri-35" transform="translate(255.566406 0.015625)"/>
     <use xlink:href="#Calibri-20" transform="translate(306.25 0.015625)"/>
     <use xlink:href="#Calibri-6e" transform="translate(328.857422 0.015625)"/>
     <use xlink:href="#Calibri-6d" transform="translate(381.396484 0.015625)"/>
    </g>
   </g>
  </g>
  <g id="axes_2">
   <g id="patch_7">
    <path d="M 361.152 307.584 
L 374.4576 307.584 
L 374.4576 41.472 
L 361.152 41.472 
z
" style="fill: #ffffff"/>
   </g>
   <g id="QuadMesh_1">
    <path d="M 361.152 307.584 
L 374.4576 307.584 
L 374.4576 280.9728 
L 361.152 280.9728 
L 361.152 307.584 
" clip-path="url(#pb6760990f0)" style="fill: #0000b6"/>
    <path d="M 361.152 280.9728 
L 374.4576 280.9728 
L 374.4576 254.3616 
L 361.152 254.3616 
L 361.152 280.9728 
" clip-path="url(#pb6760990f0)" style="fill: #0018ff"/>
    <path d="M 361.152 254.3616 
L 374.4576 254.3616 
L 374.4576 227.7504 
L 361.152 227.7504 
L 361.152 254.3616 
" clip-path="url(#pb6760990f0)" style="fill: #0080ff"/>
    <path d="M 361.152 227.7504 
L 374.4576 227.7504 
L 374.4576 201.1392 
L 361.152 201.1392 
L 361.152 227.7504 
" clip-path="url(#pb6760990f0)" style="fill: #00e4f8"/>
    <path d="M 361.152 201.1392 
L 374.4576 201.1392 
L 374.4576 174.528 
L 361.152 174.528 
L 361.152 201.1392 
" clip-path="url(#pb6760990f0)" style="fill: #53ffa4"/>
    <path d="M 361.152 174.528 
L 374.4576 174.528 
L 374.4576 147.9168 
L 361.152 147.9168 
L 361.152 174.528 
" clip-path="url(#pb6760990f0)" style="fill: #a4ff53"/>
    <path d="M 361.152 147.9168 
L 374.4576 147.9168 
L 374.4576 121.3056 
L 361.152 121.3056 
L 361.152 147.9168 
" clip-path="url(#pb6760990f0)" style="fill: #f8f500"/>
    <path d="M 361.152 121.3056 
L 374.4576 121.3056 
L 374.4576 94.6944 
L 361.152 94.6944 
L 361.152 121.3056 
" clip-path="url(#pb6760990f0)" style="fill: #ff9400"/>
    <path d="M 361.152 94.6944 
L 374.4576 94.6944 
L 374.4576 68.0832 
L 361.152 68.0832 
L 361.152 94.6944 
" clip-path="url(#pb6760990f0)" style="fill: #ff3800"/>
    <path d="M 361.152 68.0832 
L 374.4576 68.0832 
L 374.4576 41.472 
L 361.152 41.472 
L 361.152 68.0832 
" clip-path="url(#pb6760990f0)" style="fill: #b60000"/>
   </g>
   <g id="matplotlib.axis_3"/>
   <g id="matplotlib.axis_4">
    <g id="ytick_9">
     <g id="line2d_20">
      <defs>
       <path id="m25fc303db6" d="M 0 0 
L 3.5 0 
" style="stroke: #000000; stroke-width: 0.8"/>
      </defs>
      <g>
       <use xlink:href="#m25fc303db6" x="374.4576" y="307.584" style="stroke: #000000; stroke-width: 0.8"/>
      </g>
     </g>
     <g id="text_23">
      <!-- 0 -->
      <g transform="translate(381.4576 310.984781) scale(0.1 -0.1)">
       <use xlink:href="#Calibri-30"/>
      </g>
     </g>
    </g>
    <g id="ytick_10">
     <g id="line2d_21">
      <g>
       <use xlink:href="#m25fc303db6" x="374.4576" y="280.9728" style="stroke: #000000; stroke-width: 0.8"/>
      </g>
     </g>
     <g id="text_24">
      <!-- 0.1 -->
      <g transform="translate(381.4576 284.373581) scale(0.1 -0.1)">
       <use xlink:href="#Calibri-30"/>
       <use xlink:href="#Calibri-2e" x="50.683594"/>
       <use xlink:href="#Calibri-31" x="75.927734"/>
      </g>
     </g>
    </g>
    <g id="ytick_11">
     <g id="line2d_22">
      <g>
       <use xlink:href="#m25fc303db6" x="374.4576" y="254.3616" style="stroke: #000000; stroke-width: 0.8"/>
      </g>
     </g>
     <g id="text_25">
      <!-- 0.2 -->
      <g transform="translate(381.4576 257.762381) scale(0.1 -0.1)">
       <use xlink:href="#Calibri-30"/>
       <use xlink:href="#Calibri-2e" x="50.683594"/>
       <use xlink:href="#Calibri-32" x="75.927734"/>
      </g>
     </g>
    </g>
    <g id="ytick_12">
     <g id="line2d_23">
      <g>
       <use xlink:href="#m25fc303db6" x="374.4576" y="227.7504" style="stroke: #000000; stroke-width: 0.8"/>
      </g>
     </g>
     <g id="text_26">
      <!-- 0.3 -->
      <g transform="translate(381.4576 231.151181) scale(0.1 -0.1)">
       <use xlink:href="#Calibri-30"/>
       <use xlink:href="#Calibri-2e" x="50.683594"/>
       <use xlink:href="#Calibri-33" x="75.927734"/>
      </g>
     </g>
    </g>
    <g id="ytick_13">
     <g id="line2d_24">
      <g>
       <use xlink:href="#m25fc303db6" x="374.4576" y="201.1392" style="stroke: #000000; stroke-width: 0.8"/>
      </g>
     </g>
     <g id="text_27">
      <!-- 0.4 -->
      <g transform="translate(381.4576 204.539981) scale(0.1 -0.1)">
       <use xlink:href="#Calibri-30"/>
       <use xlink:href="#Calibri-2e" x="50.683594"/>
       <use xlink:href="#Calibri-34" x="75.927734"/>
      </g>
     </g>
    </g>
    <g id="ytick_14">
     <g id="line2d_25">
      <g>
       <use xlink:href="#m25fc303db6" x="374.4576" y="174.528" style="stroke: #000000; stroke-width: 0.8"/>
      </g>
     </g>
     <g id="text_28">
      <!-- 0.5 -->
      <g transform="translate(381.4576 177.928781) scale(0.1 -0.1)">
       <use xlink:href="#Calibri-30"/>
       <use xlink:href="#Calibri-2e" x="50.683594"/>
       <use xlink:href="#Calibri-35" x="75.927734"/>
      </g>
     </g>
    </g>
    <g id="ytick_15">
     <g id="line2d_26">
      <g>
       <use xlink:href="#m25fc303db6" x="374.4576" y="147.9168" style="stroke: #000000; stroke-width: 0.8"/>
      </g>
     </g>
     <g id="text_29">
      <!-- 0.6 -->
      <g transform="translate(381.4576 151.317581) scale(0.1 -0.1)">
       <use xlink:href="#Calibri-30"/>
       <use xlink:href="#Calibri-2e" x="50.683594"/>
       <use xlink:href="#Calibri-36" x="75.927734"/>
      </g>
     </g>
    </g>
    <g id="ytick_16">
     <g id="line2d_27">
      <g>
       <use xlink:href="#m25fc303db6" x="374.4576" y="121.3056" style="stroke: #000000; stroke-width: 0.8"/>
      </g>
     </g>
     <g id="text_30">
      <!-- 0.7 -->
      <g transform="translate(381.4576 124.706381) scale(0.1 -0.1)">
       <use xlink:href="#Calibri-30"/>
       <use xlink:href="#Calibri-2e" x="50.683594"/>
       <use xlink:href="#Calibri-37" x="75.927734"/>
      </g>
     </g>
    </g>
    <g id="ytick_17">
     <g id="line2d_28">
      <g>
       <use xlink:href="#m25fc303db6" x="374.4576" y="94.6944" style="stroke: #000000; stroke-width: 0.8"/>
      </g>
     </g>
     <g id="text_31">
      <!-- 0.8 -->
      <g transform="translate(381.4576 98.095181) scale(0.1 -0.1)">
       <use xlink:href="#Calibri-30"/>
       <use xlink:href="#Calibri-2e" x="50.683594"/>
       <use xlink:href="#Calibri-38" x="75.927734"/>
      </g>
     </g>
    </g>
    <g id="ytick_18">
     <g id="line2d_29">
      <g>
       <use xlink:href="#m25fc303db6" x="374.4576" y="68.0832" style="stroke: #000000; stroke-width: 0.8"/>
      </g>
     </g>
     <g id="text_32">
      <!-- 0.9 -->
      <g transform="translate(381.4576 71.483981) scale(0.1 -0.1)">
       <use xlink:href="#Calibri-30"/>
       <use xlink:href="#Calibri-2e" x="50.683594"/>
       <use xlink:href="#Calibri-39" x="75.927734"/>
      </g>
     </g>
    </g>
    <g id="ytick_19">
     <g id="line2d_30">
      <g>
       <use xlink:href="#m25fc303db6" x="374.4576" y="41.472" style="stroke: #000000; stroke-width: 0.8"/>
      </g>
     </g>
     <g id="text_33">
      <!-- 1.0 -->
      <g transform="translate(381.4576 44.872781) scale(0.1 -0.1)">
       <use xlink:href="#Calibri-31"/>
       <use xlink:href="#Calibri-2e" x="50.683594"/>
       <use xlink:href="#Calibri-30" x="75.927734"/>
      </g>
     </g>
    </g>
   </g>
   <g id="LineCollection_1"/>
   <g id="patch_8">
    <path d="M 361.152 307.584 
L 367.8048 307.584 
L 374.4576 307.584 
L 374.4576 41.472 
L 367.8048 41.472 
L 361.152 41.472 
L 361.152 307.584 
z
" style="fill: none; stroke: #000000; stroke-width: 0.8; stroke-linejoin: miter; stroke-linecap: square"/>
   </g>
   <g id="text_34">
    <!-- $\mathit{E}_{\mathrm{dis}}$/$\mathit{E}_{\mathrm{i}}$ -->
    <g transform="translate(353.2548 35.472) scale(0.1 -0.1)">
     <defs>
      <path id="DejaVuSans-Oblique-45" d="M 1081 4666 
L 4031 4666 
L 3928 4134 
L 1606 4134 
L 1338 2753 
L 3566 2753 
L 3463 2222 
L 1234 2222 
L 909 531 
L 3284 531 
L 3181 0 
L 172 0 
L 1081 4666 
z
" transform="scale(0.015625)"/>
      <path id="DejaVuSans-64" d="M 2906 2969 
L 2906 4863 
L 3481 4863 
L 3481 0 
L 2906 0 
L 2906 525 
Q 2725 213 2448 61 
Q 2172 -91 1784 -91 
Q 1150 -91 751 415 
Q 353 922 353 1747 
Q 353 2572 751 3078 
Q 1150 3584 1784 3584 
Q 2172 3584 2448 3432 
Q 2725 3281 2906 2969 
z
M 947 1747 
Q 947 1113 1208 752 
Q 1469 391 1925 391 
Q 2381 391 2643 752 
Q 2906 1113 2906 1747 
Q 2906 2381 2643 2742 
Q 2381 3103 1925 3103 
Q 1469 3103 1208 2742 
Q 947 2381 947 1747 
z
" transform="scale(0.015625)"/>
      <path id="DejaVuSans-69" d="M 603 3500 
L 1178 3500 
L 1178 0 
L 603 0 
L 603 3500 
z
M 603 4863 
L 1178 4863 
L 1178 4134 
L 603 4134 
L 603 4863 
z
" transform="scale(0.015625)"/>
      <path id="DejaVuSans-73" d="M 2834 3397 
L 2834 2853 
Q 2591 2978 2328 3040 
Q 2066 3103 1784 3103 
Q 1356 3103 1142 2972 
Q 928 2841 928 2578 
Q 928 2378 1081 2264 
Q 1234 2150 1697 2047 
L 1894 2003 
Q 2506 1872 2764 1633 
Q 3022 1394 3022 966 
Q 3022 478 2636 193 
Q 2250 -91 1575 -91 
Q 1294 -91 989 -36 
Q 684 19 347 128 
L 347 722 
Q 666 556 975 473 
Q 1284 391 1588 391 
Q 1994 391 2212 530 
Q 2431 669 2431 922 
Q 2431 1156 2273 1281 
Q 2116 1406 1581 1522 
L 1381 1569 
Q 847 1681 609 1914 
Q 372 2147 372 2553 
Q 372 3047 722 3315 
Q 1072 3584 1716 3584 
Q 2034 3584 2315 3537 
Q 2597 3491 2834 3397 
z
" transform="scale(0.015625)"/>
     </defs>
     <use xlink:href="#DejaVuSans-Oblique-45" transform="translate(0 0.09375)"/>
     <use xlink:href="#DejaVuSans-64" transform="translate(63.183594 -16.3125) scale(0.7)"/>
     <use xlink:href="#DejaVuSans-69" transform="translate(107.617188 -16.3125) scale(0.7)"/>
     <use xlink:href="#DejaVuSans-73" transform="translate(127.06543 -16.3125) scale(0.7)"/>
     <use xlink:href="#Calibri-2f" transform="translate(166.269531 0.09375)"/>
     <use xlink:href="#DejaVuSans-Oblique-45" transform="translate(204.892578 0.09375)"/>
     <use xlink:href="#DejaVuSans-69" transform="translate(268.076172 -16.3125) scale(0.7)"/>
    </g>
   </g>
  </g>
 </g>
 <defs>
  <clipPath id="p57c30782a6">
   <rect x="57.6" y="41.472" width="285.696" height="266.112"/>
  </clipPath>
  <clipPath id="pb6760990f0">
   <rect x="361.152" y="41.472" width="13.3056" height="266.112"/>
  </clipPath>
 </defs>
</svg>
