<?xml version="1.0" encoding="utf-8" standalone="no"?>
<!DOCTYPE svg PUBLIC "-//W3C//DTD SVG 1.1//EN"
  "http://www.w3.org/Graphics/SVG/1.1/DTD/svg11.dtd">
<svg xmlns:xlink="http://www.w3.org/1999/xlink" width="460.8pt" height="345.6pt" viewBox="0 0 460.8 345.6" xmlns="http://www.w3.org/2000/svg" version="1.1">
 <metadata>
  <rdf:RDF xmlns:dc="http://purl.org/dc/elements/1.1/" xmlns:cc="http://creativecommons.org/ns#" xmlns:rdf="http://www.w3.org/1999/02/22-rdf-syntax-ns#">
   <cc:Work>
    <dc:type rdf:resource="http://purl.org/dc/dcmitype/StillImage"/>
    <dc:date>2024-01-22T08:47:36.905523</dc:date>
    <dc:format>image/svg+xml</dc:format>
    <dc:creator>
     <cc:Agent>
      <dc:title>Matplotlib v3.7.1, https://matplotlib.org/</dc:title>
     </cc:Agent>
    </dc:creator>
   </cc:Work>
  </rdf:RDF>
 </metadata>
 <defs>
  <style type="text/css">*{stroke-linejoin: round; stroke-linecap: butt}</style>
 </defs>
 <g id="figure_1">
  <g id="patch_1">
   <path d="M 0 345.6 
L 460.8 345.6 
L 460.8 0 
L 0 0 
z
" style="fill: #ffffff"/>
  </g>
  <g id="axes_1">
   <g id="patch_2">
    <path d="M 57.6 307.584 
L 343.296 307.584 
L 343.296 41.472 
L 57.6 41.472 
z
" style="fill: #ffffff"/>
   </g>
   <g id="PathCollection_1">
    <path clip-path="url(#pf098f9d6e6)" style="fill: #0000b6"/>
   </g>
   <g id="PathCollection_2">
    <path d="M 57.62857 77.849245 
L 57.682846 77.77634 
L 58.510683 76.661732 
L 59.208126 75.71028 
L 59.611309 75.151083 
L 59.910741 74.736 
L 60.317427 74.159766 
L 60.600513 73.76172 
L 61.010815 73.174257 
L 62.137434 71.545545 
L 62.212481 71.437491 
L 62.231611 71.4096 
L 63.395128 69.67937 
L 63.809429 69.05748 
L 63.89874 68.923473 
L 64.450035 68.0832 
L 64.643522 67.784681 
L 64.743575 67.627853 
L 65.078668 67.10892 
L 65.802301 65.96879 
L 66.562541 64.7568 
L 66.721719 64.497904 
L 66.864365 64.263891 
L 67.554264 63.140682 
L 68.00117 62.40468 
L 68.481533 61.599479 
L 68.517171 61.540498 
L 68.582663 61.4304 
L 68.6996 61.23008 
L 68.908597 60.875141 
L 69.156299 60.45612 
L 69.276873 60.248492 
L 69.477725 59.898799 
L 69.990589 59.012223 
L 70.511714 58.104 
L 70.969231 57.290261 
L 71.824932 55.75188 
L 72.021472 55.392043 
L 72.142479 55.173495 
L 72.358306 54.7776 
L 72.723358 54.094426 
L 72.880326 53.80332 
L 73.198166 53.203497 
L 74.11977 51.4512 
L 74.262501 51.174164 
L 75.320934 49.09908 
L 75.366394 49.008261 
L 75.528888 48.688343 
L 75.810741 48.1248 
L 76.264848 47.197281 
L 76.28796 47.15052 
L 76.339336 47.044779 
L 77.423317 44.7984 
L 77.430177 44.783885 
L 78.046651 43.467097 
L 78.517253 42.462094 
L 78.524609 42.44628 
L 78.965823 41.483539 
L 78.971105 41.472 
L 78.960538 41.472 
L 77.436826 41.472 
L 75.913114 41.472 
L 74.389402 41.472 
L 72.86569 41.472 
L 71.341978 41.472 
L 69.818266 41.472 
L 68.294554 41.472 
L 66.770842 41.472 
L 65.24713 41.472 
L 63.723418 41.472 
L 62.199706 41.472 
L 60.675994 41.472 
L 59.152282 41.472 
L 57.62857 41.472 
L 57.62857 44.7984 
L 57.62857 48.1248 
L 57.62857 51.4512 
L 57.62857 54.7776 
L 57.62857 58.104 
L 57.62857 61.4304 
L 57.62857 64.7568 
L 57.62857 68.0832 
L 57.62857 71.4096 
L 57.62857 74.736 
" clip-path="url(#pf098f9d6e6)" style="fill: #0018ff"/>
   </g>
   <g id="PathCollection_3">
    <path d="M 78.971105 41.472 
L 78.965823 41.483539 
L 78.524609 42.44628 
L 78.517253 42.462094 
L 78.046651 43.467097 
L 77.430177 44.783885 
L 77.423317 44.7984 
L 76.339336 47.044779 
L 76.28796 47.15052 
L 76.264848 47.197281 
L 75.810741 48.1248 
L 75.528888 48.688343 
L 75.366394 49.008261 
L 75.320934 49.09908 
L 74.262501 51.174164 
L 74.11977 51.4512 
L 73.198166 53.203497 
L 72.880326 53.80332 
L 72.723358 54.094426 
L 72.358306 54.7776 
L 72.142479 55.173495 
L 72.021472 55.392043 
L 71.824932 55.75188 
L 70.969231 57.290261 
L 70.511714 58.104 
L 69.990589 59.012223 
L 69.477725 59.898799 
L 69.276873 60.248492 
L 69.156299 60.45612 
L 68.908597 60.875141 
L 68.6996 61.23008 
L 68.582663 61.4304 
L 68.517171 61.540498 
L 68.481533 61.599479 
L 68.00117 62.40468 
L 67.554264 63.140682 
L 66.864365 64.263891 
L 66.721719 64.497904 
L 66.562541 64.7568 
L 65.802301 65.96879 
L 65.078668 67.10892 
L 64.743575 67.627853 
L 64.643522 67.784681 
L 64.450035 68.0832 
L 63.89874 68.923473 
L 63.809429 69.05748 
L 63.395128 69.67937 
L 62.231611 71.4096 
L 62.212481 71.437491 
L 62.137434 71.545545 
L 61.010815 73.174257 
L 60.600513 73.76172 
L 60.317427 74.159766 
L 59.910741 74.736 
L 59.611309 75.151083 
L 59.208126 75.71028 
L 58.510683 76.661732 
L 57.682846 77.77634 
L 57.62857 77.849245 
L 57.62857 78.0624 
L 57.62857 81.3888 
L 57.62857 84.7152 
L 57.62857 88.0416 
L 57.62857 91.368 
L 57.62857 94.6944 
L 57.62857 98.0208 
L 57.62857 101.3472 
L 57.62857 104.6736 
L 57.62857 108 
L 57.62857 111.3264 
L 57.62857 114.6528 
L 57.62857 117.9792 
L 57.62857 121.3056 
L 57.62857 124.632 
L 57.62857 126.054831 
L 57.868063 125.894238 
L 58.910829 125.159113 
L 59.27712 124.904534 
L 59.660626 124.632 
L 60.55351 123.986455 
L 60.838267 123.776746 
L 61.566534 123.24973 
L 62.878092 122.27988 
L 63.096261 122.116324 
L 64.171319 121.3056 
L 64.594433 120.982803 
L 64.753464 120.859195 
L 65.437902 120.33132 
L 66.090703 119.820796 
L 66.480457 119.509654 
L 66.985911 119.11271 
L 68.231106 118.117713 
L 68.324304 118.044148 
L 68.404912 117.9792 
L 69.627942 116.976108 
L 70.080154 116.598934 
L 70.537667 116.223319 
L 71.249517 115.62708 
L 71.852672 115.114603 
L 72.009136 114.982749 
L 72.393571 114.6528 
L 73.411291 113.768328 
L 73.514147 113.67852 
L 74.903169 112.448001 
L 75.865108 111.579409 
L 75.947252 111.506325 
L 76.146305 111.3264 
L 77.054061 110.490791 
L 78.396087 109.232247 
L 78.538167 109.10032 
L 78.671843 108.97428 
L 78.838951 108.813698 
L 79.690611 108 
L 79.958929 107.740198 
L 80.072795 107.627936 
L 80.689152 107.02572 
L 81.2891 106.43066 
L 81.765924 105.949247 
L 82.173046 105.543667 
L 83.033872 104.6736 
L 83.372122 104.325284 
L 83.985701 103.682418 
L 84.722145 102.917276 
L 85.287605 102.32148 
L 85.866788 101.699479 
L 86.196977 101.3472 
L 86.370393 101.158476 
L 87.090372 100.37292 
L 87.465895 99.956758 
L 87.80879 99.570412 
L 88.294287 99.029972 
L 89.188922 98.0208 
L 89.475563 97.691244 
L 90.125152 96.932245 
L 90.796005 96.15386 
L 91.208817 95.66868 
L 91.563794 95.243435 
L 92.025472 94.6944 
L 92.213888 94.466874 
L 92.302239 94.358279 
L 92.826919 93.72012 
L 93.417167 92.990519 
L 94.037578 92.211689 
L 94.296691 91.889948 
L 94.711962 91.368 
L 95.347994 90.552887 
L 96.529372 89.01588 
L 96.63877 88.871174 
L 97.265566 88.0416 
L 97.669606 87.497987 
L 97.867682 87.226756 
L 97.985448 87.06732 
L 99.126586 85.496294 
L 99.685807 84.7152 
L 100.163403 84.034772 
L 100.518696 83.523074 
L 100.973167 82.874745 
L 101.326816 82.36308 
L 101.923089 81.48544 
L 101.988387 81.3888 
L 102.251926 80.994804 
L 102.641745 80.41452 
L 102.790466 80.189272 
L 102.996353 79.8732 
L 103.33993 79.345073 
L 103.33993 78.0624 
L 103.33993 74.736 
L 103.33993 71.4096 
L 103.33993 68.0832 
L 103.33993 64.7568 
L 103.33993 61.4304 
L 103.33993 58.104 
L 103.33993 54.7776 
L 103.33993 51.4512 
L 103.33993 48.1248 
L 103.33993 44.7984 
L 103.33993 41.472 
L 101.816218 41.472 
L 100.292506 41.472 
L 98.768794 41.472 
L 97.245082 41.472 
L 95.72137 41.472 
L 94.197658 41.472 
L 92.673946 41.472 
L 91.150234 41.472 
L 89.626522 41.472 
L 88.10281 41.472 
L 86.579098 41.472 
L 85.055386 41.472 
L 83.531674 41.472 
L 82.007962 41.472 
L 80.48425 41.472 
" clip-path="url(#pf098f9d6e6)" style="fill: #0080ff"/>
   </g>
   <g id="PathCollection_4">
    <path d="M 103.33993 79.345073 
L 102.996353 79.8732 
L 102.790466 80.189272 
L 102.641745 80.41452 
L 102.251926 80.994804 
L 101.988387 81.3888 
L 101.923089 81.48544 
L 101.326816 82.36308 
L 100.973167 82.874745 
L 100.518696 83.523074 
L 100.163403 84.034772 
L 99.685807 84.7152 
L 99.126586 85.496294 
L 97.985448 87.06732 
L 97.867682 87.226756 
L 97.669606 87.497987 
L 97.265566 88.0416 
L 96.63877 88.871174 
L 96.529372 89.01588 
L 95.347994 90.552887 
L 94.711962 91.368 
L 94.296691 91.889948 
L 94.037578 92.211689 
L 93.417167 92.990519 
L 92.826919 93.72012 
L 92.302239 94.358279 
L 92.213888 94.466874 
L 92.025472 94.6944 
L 91.563794 95.243435 
L 91.208817 95.66868 
L 90.796005 96.15386 
L 90.125152 96.932245 
L 89.475563 97.691244 
L 89.188922 98.0208 
L 88.294287 99.029972 
L 87.80879 99.570412 
L 87.465895 99.956758 
L 87.090372 100.37292 
L 86.370393 101.158476 
L 86.196977 101.3472 
L 85.866788 101.699479 
L 85.287605 102.32148 
L 84.722145 102.917276 
L 83.985701 103.682418 
L 83.372122 104.325284 
L 83.033872 104.6736 
L 82.173046 105.543667 
L 81.765924 105.949247 
L 81.2891 106.43066 
L 80.689152 107.02572 
L 80.072795 107.627936 
L 79.958929 107.740198 
L 79.690611 108 
L 78.838951 108.813698 
L 78.671843 108.97428 
L 78.538167 109.10032 
L 78.396087 109.232247 
L 77.054061 110.490791 
L 76.146305 111.3264 
L 75.947252 111.506325 
L 75.865108 111.579409 
L 74.903169 112.448001 
L 73.514147 113.67852 
L 73.411291 113.768328 
L 72.393571 114.6528 
L 72.009136 114.982749 
L 71.852672 115.114603 
L 71.249517 115.62708 
L 70.537667 116.223319 
L 70.080154 116.598934 
L 69.627942 116.976108 
L 68.404912 117.9792 
L 68.324304 118.044148 
L 68.231106 118.117713 
L 66.985911 119.11271 
L 66.480457 119.509654 
L 66.090703 119.820796 
L 65.437902 120.33132 
L 64.753464 120.859195 
L 64.594433 120.982803 
L 64.171319 121.3056 
L 63.096261 122.116324 
L 62.878092 122.27988 
L 61.566534 123.24973 
L 60.838267 123.776746 
L 60.55351 123.986455 
L 59.660626 124.632 
L 59.27712 124.904534 
L 58.910829 125.159113 
L 57.868063 125.894238 
L 57.62857 126.054831 
L 57.62857 127.9584 
L 57.62857 131.2848 
L 57.62857 134.6112 
L 57.62857 137.9376 
L 57.62857 141.264 
L 57.62857 144.5904 
L 57.62857 147.9168 
L 57.62857 151.2432 
L 57.62857 154.5696 
L 57.62857 157.896 
L 57.62857 161.2224 
L 57.62857 161.861081 
L 57.880331 161.772018 
L 59.020747 161.341342 
L 59.206816 161.271714 
L 59.336781 161.2224 
L 61.345732 160.450182 
L 61.864289 160.24812 
L 63.061086 159.776471 
L 63.392268 159.641305 
L 64.008316 159.397539 
L 64.686159 159.12065 
L 65.635291 158.743391 
L 66.692644 158.308138 
L 66.83803 158.250113 
L 67.69751 157.896 
L 68.19854 157.686394 
L 68.438038 157.582761 
L 69.660994 157.067111 
L 70.003812 156.918086 
L 70.749812 156.603249 
L 72.230144 155.957052 
L 72.477809 155.851698 
L 73.179692 155.54388 
L 73.441043 155.427167 
L 74.711577 154.860932 
L 75.357383 154.5696 
L 76.440189 154.076704 
L 76.738222 153.937877 
L 77.478122 153.59532 
L 78.33115 153.19559 
L 78.616261 153.057691 
L 79.248368 152.760196 
L 79.943535 152.423628 
L 80.832401 152.003246 
L 81.969027 151.448401 
L 82.040458 151.41447 
L 82.390949 151.2432 
L 83.320274 150.781696 
L 83.872618 150.498887 
L 84.823787 150.02257 
L 85.337102 149.758427 
L 85.794043 149.529355 
L 87.028898 148.89108 
L 87.426425 148.683009 
L 87.768589 148.505074 
L 88.874861 147.9168 
L 89.346451 147.663542 
L 90.675173 146.94252 
L 90.698161 146.929886 
L 90.70733 146.924699 
L 91.509139 146.481989 
L 91.91197 146.253861 
L 93.127006 145.579471 
L 94.117334 145.013743 
L 94.262611 144.932733 
L 94.861175 144.5904 
L 95.540404 144.195335 
L 96.038905 143.897192 
L 97.005892 143.329763 
L 97.545877 143.005073 
L 97.937274 142.775119 
L 98.825878 142.23828 
L 99.43431 141.865803 
L 100.408351 141.264 
L 101.239235 140.742255 
L 101.953447 140.28972 
L 102.679936 139.823174 
L 103.025382 139.595407 
L 103.33993 139.387198 
L 103.33993 137.9376 
L 103.33993 134.6112 
L 103.33993 131.2848 
L 103.33993 127.9584 
L 103.33993 124.632 
L 103.33993 121.3056 
L 103.33993 117.9792 
L 103.33993 114.6528 
L 103.33993 111.3264 
L 103.33993 108 
L 103.33993 104.6736 
L 103.33993 101.3472 
L 103.33993 98.0208 
L 103.33993 94.6944 
L 103.33993 91.368 
L 103.33993 88.0416 
L 103.33993 84.7152 
L 103.33993 81.3888 
" clip-path="url(#pf098f9d6e6)" style="fill: #00e4f8"/>
   </g>
   <g id="PathCollection_5">
    <path d="M 103.33993 139.387198 
L 103.025382 139.595407 
L 102.679936 139.823174 
L 101.953447 140.28972 
L 101.239235 140.742255 
L 100.408351 141.264 
L 99.43431 141.865803 
L 98.825878 142.23828 
L 97.937274 142.775119 
L 97.545877 143.005073 
L 97.005892 143.329763 
L 96.038905 143.897192 
L 95.540404 144.195335 
L 94.861175 144.5904 
L 94.262611 144.932733 
L 94.117334 145.013743 
L 93.127006 145.579471 
L 91.91197 146.253861 
L 91.509139 146.481989 
L 90.70733 146.924699 
L 90.698161 146.929886 
L 90.675173 146.94252 
L 89.346451 147.663542 
L 88.874861 147.9168 
L 87.768589 148.505074 
L 87.426425 148.683009 
L 87.028898 148.89108 
L 85.794043 149.529355 
L 85.337102 149.758427 
L 84.823787 150.02257 
L 83.872618 150.498887 
L 83.320274 150.781696 
L 82.390949 151.2432 
L 82.040458 151.41447 
L 81.969027 151.448401 
L 80.832401 152.003246 
L 79.943535 152.423628 
L 79.248368 152.760196 
L 78.616261 153.057691 
L 78.33115 153.19559 
L 77.478122 153.59532 
L 76.738222 153.937877 
L 76.440189 154.076704 
L 75.357383 154.5696 
L 74.711577 154.860932 
L 73.441043 155.427167 
L 73.179692 155.54388 
L 72.477809 155.851698 
L 72.230144 155.957052 
L 70.749812 156.603249 
L 70.003812 156.918086 
L 69.660994 157.067111 
L 68.438038 157.582761 
L 68.19854 157.686394 
L 67.69751 157.896 
L 66.83803 158.250113 
L 66.692644 158.308138 
L 65.635291 158.743391 
L 64.686159 159.12065 
L 64.008316 159.397539 
L 63.392268 159.641305 
L 63.061086 159.776471 
L 61.864289 160.24812 
L 61.345732 160.450182 
L 59.336781 161.2224 
L 59.206816 161.271714 
L 59.020747 161.341342 
L 57.880331 161.772018 
L 57.62857 161.861081 
L 57.62857 164.5488 
L 57.62857 167.8752 
L 57.62857 171.2016 
L 57.62857 174.528 
L 57.62857 177.8544 
L 57.62857 181.1808 
L 57.62857 184.5072 
L 57.62857 187.8336 
L 57.62857 191.148347 
L 57.630858 191.147939 
L 59.031337 190.895968 
L 59.296566 190.845014 
L 60.572381 190.613915 
L 60.787477 190.572435 
L 61.84294 190.381148 
L 62.625881 190.229621 
L 63.516069 190.067181 
L 63.946637 189.983532 
L 64.64945 189.855213 
L 65.962044 189.599278 
L 66.457434 189.508203 
L 67.108426 189.380778 
L 67.45071 189.317815 
L 69.305296 188.953459 
L 69.3964 188.936582 
L 70.04894 188.80788 
L 70.325955 188.752354 
L 71.990217 188.419781 
L 74.063413 187.994821 
L 74.253602 187.956399 
L 74.475728 187.911662 
L 74.853576 187.8336 
L 76.672169 187.455432 
L 76.952018 187.395205 
L 78.222543 187.123103 
L 78.802013 187.001634 
L 79.416715 186.868265 
L 79.458145 186.85932 
L 81.370667 186.442328 
L 81.653195 186.376977 
L 82.334433 186.227848 
L 82.792025 186.121919 
L 84.13598 185.826456 
L 84.836056 185.663166 
L 85.257082 185.570228 
L 86.192146 185.351949 
L 86.894702 185.196194 
L 88.022413 184.930926 
L 88.17669 184.896582 
L 89.601848 184.561064 
L 89.64661 184.551056 
L 89.83146 184.5072 
L 91.092669 184.203807 
L 91.213618 184.173138 
L 92.391061 183.889639 
L 93.03154 183.72654 
L 94.004726 183.490365 
L 94.410273 183.38662 
L 95.128189 183.212233 
L 96.472793 182.866775 
L 96.913364 182.758899 
L 97.610963 182.57884 
L 97.857769 182.518351 
L 99.259036 182.15508 
L 99.714309 182.035797 
L 100.227261 181.902098 
L 101.3538 181.598948 
L 102.069382 181.409728 
L 102.91433 181.1808 
L 103.292676 181.077642 
L 103.33993 181.063636 
L 103.33993 177.8544 
L 103.33993 174.528 
L 103.33993 171.2016 
L 103.33993 167.8752 
L 103.33993 164.5488 
L 103.33993 161.2224 
L 103.33993 157.896 
L 103.33993 154.5696 
L 103.33993 151.2432 
L 103.33993 147.9168 
L 103.33993 144.5904 
L 103.33993 141.264 
" clip-path="url(#pf098f9d6e6)" style="fill: #53ffa4"/>
   </g>
   <g id="PathCollection_6">
    <path d="M 103.33993 181.063636 
L 103.292676 181.077642 
L 102.91433 181.1808 
L 102.069382 181.409728 
L 101.3538 181.598948 
L 100.227261 181.902098 
L 99.714309 182.035797 
L 99.259036 182.15508 
L 97.857769 182.518351 
L 97.610963 182.57884 
L 96.913364 182.758899 
L 96.472793 182.866775 
L 95.128189 183.212233 
L 94.410273 183.38662 
L 94.004726 183.490365 
L 93.03154 183.72654 
L 92.391061 183.889639 
L 91.213618 184.173138 
L 91.092669 184.203807 
L 89.83146 184.5072 
L 89.64661 184.551056 
L 89.601848 184.561064 
L 88.17669 184.896582 
L 88.022413 184.930926 
L 86.894702 185.196194 
L 86.192146 185.351949 
L 85.257082 185.570228 
L 84.836056 185.663166 
L 84.13598 185.826456 
L 82.792025 186.121919 
L 82.334433 186.227848 
L 81.653195 186.376977 
L 81.370667 186.442328 
L 79.458145 186.85932 
L 79.416715 186.868265 
L 78.802013 187.001634 
L 78.222543 187.123103 
L 76.952018 187.395205 
L 76.672169 187.455432 
L 74.853576 187.8336 
L 74.475728 187.911662 
L 74.253602 187.956399 
L 74.063413 187.994821 
L 71.990217 188.419781 
L 70.325955 188.752354 
L 70.04894 188.80788 
L 69.3964 188.936582 
L 69.305296 188.953459 
L 67.45071 189.317815 
L 67.108426 189.380778 
L 66.457434 189.508203 
L 65.962044 189.599278 
L 64.64945 189.855213 
L 63.946637 189.983532 
L 63.516069 190.067181 
L 62.625881 190.229621 
L 61.84294 190.381148 
L 60.787477 190.572435 
L 60.572381 190.613915 
L 59.296566 190.845014 
L 59.031337 190.895968 
L 57.630858 191.147939 
L 57.62857 191.148347 
L 57.62857 191.16 
L 57.62857 194.4864 
L 57.62857 197.8128 
L 57.62857 201.1392 
L 57.62857 204.4656 
L 57.62857 207.792 
L 57.62857 211.1184 
L 57.62857 214.4448 
L 57.62857 216.624645 
L 57.84787 216.615388 
L 58.608445 216.583956 
L 59.722619 216.526103 
L 60.434153 216.496594 
L 60.922654 216.471192 
L 61.591536 216.443511 
L 62.837597 216.378626 
L 63.454335 216.353013 
L 63.997879 216.324668 
L 64.573593 216.30081 
L 65.953678 216.228741 
L 66.474073 216.207098 
L 67.073559 216.175746 
L 67.554586 216.155784 
L 69.070898 216.076371 
L 69.493355 216.058776 
L 70.149708 216.02435 
L 70.53448 216.00836 
L 72.189291 215.921439 
L 72.512166 215.907973 
L 73.226342 215.870402 
L 73.513241 215.858463 
L 75.308896 215.763862 
L 75.530491 215.754607 
L 76.303475 215.713821 
L 76.490833 215.706013 
L 78.429751 215.603556 
L 78.548314 215.598597 
L 79.381125 215.55452 
L 79.467217 215.550927 
L 81.551897 215.44043 
L 81.565618 215.439855 
L 81.956945 215.41908 
L 82.406056 215.395247 
L 82.485738 215.390604 
L 84.460633 215.284826 
L 84.936614 215.257105 
L 85.728083 215.214343 
L 87.334642 215.128013 
L 87.899553 215.097843 
L 88.974113 215.034751 
L 90.205512 214.968361 
L 91.805103 214.874494 
L 92.223955 214.851711 
L 93.073136 214.805774 
L 95.250883 214.677484 
L 95.477746 214.665101 
L 95.937402 214.640151 
L 98.704726 214.476485 
L 98.735626 214.474793 
L 98.798193 214.471385 
L 99.245905 214.4448 
L 101.539439 214.307917 
L 101.656394 214.300277 
L 102.000771 214.277914 
L 103.229659 214.204069 
L 103.33993 214.195466 
L 103.33993 211.1184 
L 103.33993 207.792 
L 103.33993 204.4656 
L 103.33993 201.1392 
L 103.33993 197.8128 
L 103.33993 194.4864 
L 103.33993 191.16 
L 103.33993 187.8336 
L 103.33993 184.5072 
L 103.33993 181.1808 
" clip-path="url(#pf098f9d6e6)" style="fill: #a4ff53"/>
   </g>
   <g id="PathCollection_7">
    <path d="M 103.33993 214.195466 
L 103.229659 214.204069 
L 102.000771 214.277914 
L 101.656394 214.300277 
L 101.539439 214.307917 
L 99.245905 214.4448 
L 98.798193 214.471385 
L 98.735626 214.474793 
L 98.704726 214.476485 
L 95.937402 214.640151 
L 95.477746 214.665101 
L 95.250883 214.677484 
L 93.073136 214.805774 
L 92.223955 214.851711 
L 91.805103 214.874494 
L 90.205512 214.968361 
L 88.974113 215.034751 
L 87.899553 215.097843 
L 87.334642 215.128013 
L 85.728083 215.214343 
L 84.936614 215.257105 
L 84.460633 215.284826 
L 82.485738 215.390604 
L 82.406056 215.395247 
L 81.956945 215.41908 
L 81.565618 215.439855 
L 81.551897 215.44043 
L 79.467217 215.550927 
L 79.381125 215.55452 
L 78.548314 215.598597 
L 78.429751 215.603556 
L 76.490833 215.706013 
L 76.303475 215.713821 
L 75.530491 215.754607 
L 75.308896 215.763862 
L 73.513241 215.858463 
L 73.226342 215.870402 
L 72.512166 215.907973 
L 72.189291 215.921439 
L 70.53448 216.00836 
L 70.149708 216.02435 
L 69.493355 216.058776 
L 69.070898 216.076371 
L 67.554586 216.155784 
L 67.073559 216.175746 
L 66.474073 216.207098 
L 65.953678 216.228741 
L 64.573593 216.30081 
L 63.997879 216.324668 
L 63.454335 216.353013 
L 62.837597 216.378626 
L 61.591536 216.443511 
L 60.922654 216.471192 
L 60.434153 216.496594 
L 59.722619 216.526103 
L 58.608445 216.583956 
L 57.84787 216.615388 
L 57.62857 216.624645 
L 57.62857 217.7712 
L 57.62857 221.0976 
L 57.62857 224.424 
L 57.62857 227.7504 
L 57.62857 231.0768 
L 57.62857 234.4032 
L 57.62857 237.7296 
L 57.62857 239.895706 
L 58.044071 239.919477 
L 58.147149 239.923894 
L 60.206797 240.031701 
L 60.238935 240.033092 
L 61.121884 240.07964 
L 61.123205 240.079697 
L 61.161297 240.08172 
L 63.160185 240.187472 
L 63.878896 240.225541 
L 64.359151 240.253032 
L 66.03561 240.343005 
L 66.961131 240.396544 
L 67.603945 240.431507 
L 68.906718 240.502441 
L 70.399814 240.590045 
L 70.854437 240.615134 
L 71.773375 240.665902 
L 73.850598 240.78953 
L 74.110837 240.804104 
L 74.635442 240.833514 
L 74.818493 240.843789 
L 77.373366 240.998616 
L 77.492772 241.00541 
L 78.318588 241.056 
L 80.246097 241.17378 
L 80.346696 241.180385 
L 80.643362 241.19988 
L 80.79539 241.209878 
L 83.196276 241.359289 
L 83.92046 241.407566 
L 84.292764 241.432404 
L 86.040763 241.542797 
L 87.204477 241.621509 
L 88.336854 241.693817 
L 88.87999 241.731062 
L 90.495688 241.841957 
L 91.016484 241.875713 
L 91.713783 241.924242 
L 93.236065 242.03028 
L 93.735512 242.064906 
L 93.758287 242.066723 
L 94.625536 242.127293 
L 94.690776 242.132522 
L 96.687607 242.273018 
L 96.847306 242.285947 
L 97.632299 242.341591 
L 97.84177 242.358625 
L 99.637086 242.48684 
L 99.93753 242.511518 
L 100.63792 242.561915 
L 100.995843 242.591448 
L 102.583855 242.706578 
L 103.029004 242.743683 
L 103.33993 242.763924 
L 103.33993 241.056 
L 103.33993 237.7296 
L 103.33993 234.4032 
L 103.33993 231.0768 
L 103.33993 227.7504 
L 103.33993 224.424 
L 103.33993 221.0976 
L 103.33993 217.7712 
L 103.33993 214.4448 
" clip-path="url(#pf098f9d6e6)" style="fill: #f8f500"/>
   </g>
   <g id="PathCollection_8">
    <path d="M 103.33993 242.763924 
L 103.029004 242.743683 
L 102.583855 242.706578 
L 100.995843 242.591448 
L 100.63792 242.561915 
L 99.93753 242.511518 
L 99.637086 242.48684 
L 97.84177 242.358625 
L 97.632299 242.341591 
L 96.847306 242.285947 
L 96.687607 242.273018 
L 94.690776 242.132522 
L 94.625536 242.127293 
L 93.758287 242.066723 
L 93.735512 242.064906 
L 93.236065 242.03028 
L 91.713783 241.924242 
L 91.016484 241.875713 
L 90.495688 241.841957 
L 88.87999 241.731062 
L 88.336854 241.693817 
L 87.204477 241.621509 
L 86.040763 241.542797 
L 84.292764 241.432404 
L 83.92046 241.407566 
L 83.196276 241.359289 
L 80.79539 241.209878 
L 80.643362 241.19988 
L 80.346696 241.180385 
L 80.246097 241.17378 
L 78.318588 241.056 
L 77.492772 241.00541 
L 77.373366 240.998616 
L 74.818493 240.843789 
L 74.635442 240.833514 
L 74.110837 240.804104 
L 73.850598 240.78953 
L 71.773375 240.665902 
L 70.854437 240.615134 
L 70.399814 240.590045 
L 68.906718 240.502441 
L 67.603945 240.431507 
L 66.961131 240.396544 
L 66.03561 240.343005 
L 64.359151 240.253032 
L 63.878896 240.225541 
L 63.160185 240.187472 
L 61.161297 240.08172 
L 61.123205 240.079697 
L 61.121884 240.07964 
L 60.238935 240.033092 
L 60.206797 240.031701 
L 58.147149 239.923894 
L 58.044071 239.919477 
L 57.62857 239.895706 
L 57.62857 241.056 
L 57.62857 244.3824 
L 57.62857 247.7088 
L 57.62857 251.0352 
L 57.62857 254.3616 
L 57.62857 257.688 
L 57.62857 261.0144 
L 57.62857 262.13136 
L 58.037898 262.183456 
L 58.172425 262.201685 
L 60.023102 262.439722 
L 60.323055 262.480658 
L 61.012031 262.569731 
L 61.413625 262.624715 
L 62.89746 262.81754 
L 63.448825 262.893576 
L 63.984728 262.963579 
L 64.659003 263.056868 
L 65.768521 263.202556 
L 66.576233 263.315126 
L 66.95594 263.365247 
L 67.90871 263.498468 
L 68.636179 263.595 
L 69.705335 263.745604 
L 69.925621 263.774991 
L 71.162899 263.949855 
L 71.500327 263.995109 
L 72.83619 264.185324 
L 72.893717 264.193081 
L 73.92767 264.3408 
L 74.361049 264.402695 
L 74.421966 264.411891 
L 75.860359 264.618842 
L 75.968997 264.635331 
L 77.219242 264.815805 
L 77.687117 264.887208 
L 78.825453 265.052759 
L 79.103724 265.095458 
L 80.073731 265.237 
L 80.95721 265.373315 
L 81.788855 265.495588 
L 82.240359 265.565639 
L 82.924393 265.666549 
L 84.232436 265.870627 
L 84.750508 265.947641 
L 85.378972 266.046243 
L 85.771099 266.104734 
L 87.512992 266.379575 
L 87.710349 266.409243 
L 88.519636 266.53766 
L 88.613713 266.551851 
L 89.497655 266.69292 
L 90.52315 266.85641 
L 91.084794 266.945998 
L 92.051664 267.104492 
L 93.107889 267.2748 
L 93.378956 267.318531 
L 95.481673 267.6672 
L 95.661354 267.696881 
L 95.68425 267.700766 
L 95.775649 267.716283 
L 95.844134 267.727914 
L 98.254813 268.131975 
L 99.523809 268.349934 
L 100.482301 268.514631 
L 100.816412 268.571289 
L 101.220284 268.64148 
L 102.770411 268.91051 
L 102.950941 268.943456 
L 103.33993 269.01052 
L 103.33993 267.6672 
L 103.33993 264.3408 
L 103.33993 261.0144 
L 103.33993 257.688 
L 103.33993 254.3616 
L 103.33993 251.0352 
L 103.33993 247.7088 
L 103.33993 244.3824 
" clip-path="url(#pf098f9d6e6)" style="fill: #ff9400"/>
   </g>
   <g id="PathCollection_9">
    <path d="M 103.33993 269.01052 
L 102.950941 268.943456 
L 102.770411 268.91051 
L 101.220284 268.64148 
L 100.816412 268.571289 
L 100.482301 268.514631 
L 99.523809 268.349934 
L 98.254813 268.131975 
L 95.844134 267.727914 
L 95.775649 267.716283 
L 95.68425 267.700766 
L 95.661354 267.696881 
L 95.481673 267.6672 
L 93.378956 267.318531 
L 93.107889 267.2748 
L 92.051664 267.104492 
L 91.084794 266.945998 
L 90.52315 266.85641 
L 89.497655 266.69292 
L 88.613713 266.551851 
L 88.519636 266.53766 
L 87.710349 266.409243 
L 87.512992 266.379575 
L 85.771099 266.104734 
L 85.378972 266.046243 
L 84.750508 265.947641 
L 84.232436 265.870627 
L 82.924393 265.666549 
L 82.240359 265.565639 
L 81.788855 265.495588 
L 80.95721 265.373315 
L 80.073731 265.237 
L 79.103724 265.095458 
L 78.825453 265.052759 
L 77.687117 264.887208 
L 77.219242 264.815805 
L 75.968997 264.635331 
L 75.860359 264.618842 
L 74.421966 264.411891 
L 74.361049 264.402695 
L 73.92767 264.3408 
L 72.893717 264.193081 
L 72.83619 264.185324 
L 71.500327 263.995109 
L 71.162899 263.949855 
L 69.925621 263.774991 
L 69.705335 263.745604 
L 68.636179 263.595 
L 67.90871 263.498468 
L 66.95594 263.365247 
L 66.576233 263.315126 
L 65.768521 263.202556 
L 64.659003 263.056868 
L 63.984728 262.963579 
L 63.448825 262.893576 
L 62.89746 262.81754 
L 61.413625 262.624715 
L 61.012031 262.569731 
L 60.323055 262.480658 
L 60.023102 262.439722 
L 58.172425 262.201685 
L 58.037898 262.183456 
L 57.62857 262.13136 
L 57.62857 264.3408 
L 57.62857 267.6672 
L 57.62857 270.9936 
L 57.62857 274.32 
L 57.62857 277.6464 
L 57.62857 280.9728 
L 57.62857 284.2992 
L 57.62857 284.520227 
L 57.672076 284.528501 
L 58.934507 284.774621 
L 59.41406 284.870687 
L 60.526189 285.088736 
L 60.837691 285.151418 
L 61.729033 285.326721 
L 62.766442 285.536437 
L 63.462542 285.674131 
L 64.005203 285.784333 
L 64.520044 285.886492 
L 66.124129 286.213769 
L 66.397234 286.268278 
L 67.174685 286.427634 
L 67.307416 286.45421 
L 68.264521 286.65132 
L 69.165701 286.837852 
L 70.179198 287.050537 
L 70.864078 287.193452 
L 71.640512 287.355646 
L 71.814296 287.392011 
L 72.914927 287.6256 
L 74.108544 287.87957 
L 74.846219 288.038684 
L 75.517979 288.183748 
L 76.569773 288.409646 
L 77.443353 288.59988 
L 78.416686 288.812878 
L 78.560802 288.845214 
L 79.328258 289.013952 
L 79.627344 289.081297 
L 81.183679 289.425082 
L 81.742261 289.551641 
L 82.252188 289.664821 
L 83.022269 289.839923 
L 83.946652 290.046066 
L 84.926016 290.270166 
L 85.174202 290.325783 
L 86.423688 290.612728 
L 86.705445 290.676171 
L 87.898837 290.952 
L 88.094188 290.997441 
L 88.112247 291.001738 
L 89.459661 291.316271 
L 89.83444 291.405904 
L 91.011646 291.682419 
L 91.302066 291.752226 
L 92.209413 291.966116 
L 93.254097 292.218523 
L 93.92706 292.378169 
L 94.494396 292.515943 
L 94.954771 292.625553 
L 96.681002 293.046963 
L 96.840344 293.085146 
L 97.689348 293.293481 
L 97.695556 293.294974 
L 97.732631 293.30412 
L 99.391889 293.714957 
L 99.735601 293.800257 
L 101.637417 294.2784 
L 101.755965 294.308198 
L 101.777268 294.313621 
L 101.885789 294.341311 
L 103.162662 294.665391 
L 103.33993 294.712112 
L 103.33993 294.2784 
L 103.33993 290.952 
L 103.33993 287.6256 
L 103.33993 284.2992 
L 103.33993 280.9728 
L 103.33993 277.6464 
L 103.33993 274.32 
L 103.33993 270.9936 
" clip-path="url(#pf098f9d6e6)" style="fill: #ff3800"/>
   </g>
   <g id="PathCollection_10">
    <path d="M 103.33993 294.712112 
L 103.162662 294.665391 
L 101.885789 294.341311 
L 101.777268 294.313621 
L 101.755965 294.308198 
L 101.637417 294.2784 
L 99.735601 293.800257 
L 99.391889 293.714957 
L 97.732631 293.30412 
L 97.695556 293.294974 
L 97.689348 293.293481 
L 96.840344 293.085146 
L 96.681002 293.046963 
L 94.954771 292.625553 
L 94.494396 292.515943 
L 93.92706 292.378169 
L 93.254097 292.218523 
L 92.209413 291.966116 
L 91.302066 291.752226 
L 91.011646 291.682419 
L 89.83444 291.405904 
L 89.459661 291.316271 
L 88.112247 291.001738 
L 88.094188 290.997441 
L 87.898837 290.952 
L 86.705445 290.676171 
L 86.423688 290.612728 
L 85.174202 290.325783 
L 84.926016 290.270166 
L 83.946652 290.046066 
L 83.022269 289.839923 
L 82.252188 289.664821 
L 81.742261 289.551641 
L 81.183679 289.425082 
L 79.627344 289.081297 
L 79.328258 289.013952 
L 78.560802 288.845214 
L 78.416686 288.812878 
L 77.443353 288.59988 
L 76.569773 288.409646 
L 75.517979 288.183748 
L 74.846219 288.038684 
L 74.108544 287.87957 
L 72.914927 287.6256 
L 71.814296 287.392011 
L 71.640512 287.355646 
L 70.864078 287.193452 
L 70.179198 287.050537 
L 69.165701 286.837852 
L 68.264521 286.65132 
L 67.307416 286.45421 
L 67.174685 286.427634 
L 66.397234 286.268278 
L 66.124129 286.213769 
L 64.520044 285.886492 
L 64.005203 285.784333 
L 63.462542 285.674131 
L 62.766442 285.536437 
L 61.729033 285.326721 
L 60.837691 285.151418 
L 60.526189 285.088736 
L 59.41406 284.870687 
L 58.934507 284.774621 
L 57.672076 284.528501 
L 57.62857 284.520227 
L 57.62857 287.6256 
L 57.62857 290.952 
L 57.62857 294.2784 
L 57.62857 297.6048 
L 57.62857 300.9312 
L 57.62857 304.2576 
L 57.62857 307.584 
L 59.152282 307.584 
L 60.675994 307.584 
L 62.199706 307.584 
L 63.723418 307.584 
L 65.24713 307.584 
L 66.770842 307.584 
L 68.294554 307.584 
L 69.818266 307.584 
L 71.341978 307.584 
L 72.86569 307.584 
L 74.389402 307.584 
L 75.913114 307.584 
L 77.436826 307.584 
L 78.960538 307.584 
L 80.48425 307.584 
L 82.007962 307.584 
L 83.531674 307.584 
L 85.055386 307.584 
L 86.579098 307.584 
L 88.10281 307.584 
L 89.626522 307.584 
L 91.150234 307.584 
L 92.673946 307.584 
L 94.197658 307.584 
L 95.72137 307.584 
L 97.245082 307.584 
L 98.768794 307.584 
L 100.292506 307.584 
L 101.816218 307.584 
L 103.33993 307.584 
L 103.33993 304.2576 
L 103.33993 300.9312 
L 103.33993 297.6048 
" clip-path="url(#pf098f9d6e6)" style="fill: #b60000"/>
   </g>
   <g id="PathCollection_11">
    <path clip-path="url(#pf098f9d6e6)" style="fill: #0000b6"/>
   </g>
   <g id="PathCollection_12">
    <path clip-path="url(#pf098f9d6e6)" style="fill: #0018ff"/>
   </g>
   <g id="PathCollection_13">
    <path d="M 100.4544 83.562698 
L 102.348698 80.812527 
L 103.05189 79.799996 
L 103.217945 79.55168 
L 103.371061 79.303951 
L 104.910101 76.9536 
L 105.714684 75.667033 
L 106.54039 74.35552 
L 109.546744 69.176421 
L 110.161358 68.0832 
L 112.366309 63.900227 
L 113.495845 61.81088 
L 113.638095 61.522715 
L 114.879563 59.2128 
L 115.87859 57.013319 
L 116.044094 56.61472 
L 117.673494 53.066407 
L 118.907542 50.3424 
L 120.75385 45.975854 
L 121.544766 44.07008 
L 122.05742 42.688985 
L 122.554127 41.472 
L 116.64384 41.472 
L 108.54912 41.472 
L 100.4544 41.472 
L 100.4544 50.3424 
L 100.4544 59.2128 
L 100.4544 68.0832 
L 100.4544 76.9536 
" clip-path="url(#pf098f9d6e6)" style="fill: #0080ff"/>
   </g>
   <g id="PathCollection_14">
    <path d="M 122.554127 41.472 
L 122.05742 42.688985 
L 121.544766 44.07008 
L 120.75385 45.975854 
L 118.907542 50.3424 
L 117.673494 53.066407 
L 116.044094 56.61472 
L 115.87859 57.013319 
L 114.879563 59.2128 
L 113.638095 61.522715 
L 113.495845 61.81088 
L 112.366309 63.900227 
L 110.161358 68.0832 
L 109.546744 69.176421 
L 106.54039 74.35552 
L 105.714684 75.667033 
L 104.910101 76.9536 
L 103.371061 79.303951 
L 103.217945 79.55168 
L 103.05189 79.799996 
L 102.348698 80.812527 
L 100.4544 83.562698 
L 100.4544 85.824 
L 100.4544 94.6944 
L 100.4544 103.5648 
L 100.4544 112.4352 
L 100.4544 121.3056 
L 100.4544 130.176 
L 100.4544 139.0464 
L 100.4544 141.181555 
L 101.120028 140.807357 
L 103.900042 139.0464 
L 106.792696 137.121666 
L 112.859434 132.77408 
L 113.390383 132.373477 
L 116.311399 130.176 
L 118.292312 128.575723 
L 119.281287 127.698912 
L 119.427328 127.57792 
L 125.559734 122.205463 
L 126.52192 121.3056 
L 131.117092 116.765329 
L 132.79531 115.03328 
L 133.482051 114.283652 
L 135.272661 112.4352 
L 136.286785 111.283022 
L 136.847229 110.582914 
L 137.499955 109.83712 
L 141.826067 104.548925 
L 142.589595 103.5648 
L 146.829393 97.76223 
L 147.161516 97.29248 
L 147.832678 96.408481 
L 149.024603 94.6944 
L 150.466415 92.326495 
L 150.616646 92.09632 
L 151.100431 91.320701 
L 154.437686 85.824 
L 155.467245 84.015675 
L 157.914789 79.55168 
L 158.825315 77.728814 
L 159.001168 77.421234 
L 159.245631 76.9536 
L 159.504317 76.36106 
L 159.80014 75.735907 
L 160.515855 74.35552 
L 161.307535 72.674812 
L 163.403933 68.0832 
L 164.361695 65.833247 
L 166.046188 61.81088 
L 166.412446 60.924338 
L 167.173339 59.2128 
L 167.999732 56.803855 
L 168.073799 56.61472 
L 168.375409 55.746431 
L 170.351451 50.3424 
L 171.151982 47.981008 
L 172.457499 44.07008 
L 173.198741 41.521085 
L 173.214956 41.472 
L 165.21216 41.472 
L 157.11744 41.472 
L 149.02272 41.472 
L 140.928 41.472 
L 132.83328 41.472 
L 124.73856 41.472 
" clip-path="url(#pf098f9d6e6)" style="fill: #00e4f8"/>
   </g>
   <g id="PathCollection_15">
    <path d="M 173.214956 41.472 
L 173.198741 41.521085 
L 172.457499 44.07008 
L 171.151982 47.981008 
L 170.351451 50.3424 
L 168.375409 55.746431 
L 168.073799 56.61472 
L 167.999732 56.803855 
L 167.173339 59.2128 
L 166.412446 60.924338 
L 166.046188 61.81088 
L 164.361695 65.833247 
L 163.403933 68.0832 
L 161.307535 72.674812 
L 160.515855 74.35552 
L 159.80014 75.735907 
L 159.504317 76.36106 
L 159.245631 76.9536 
L 159.001168 77.421234 
L 158.825315 77.728814 
L 157.914789 79.55168 
L 155.467245 84.015675 
L 154.437686 85.824 
L 151.100431 91.320701 
L 150.616646 92.09632 
L 150.466415 92.326495 
L 149.024603 94.6944 
L 147.832678 96.408481 
L 147.161516 97.29248 
L 146.829393 97.76223 
L 142.589595 103.5648 
L 141.826067 104.548925 
L 137.499955 109.83712 
L 136.847229 110.582914 
L 136.286785 111.283022 
L 135.272661 112.4352 
L 133.482051 114.283652 
L 132.79531 115.03328 
L 131.117092 116.765329 
L 126.52192 121.3056 
L 125.559734 122.205463 
L 119.427328 127.57792 
L 119.281287 127.698912 
L 118.292312 128.575723 
L 116.311399 130.176 
L 113.390383 132.373477 
L 112.859434 132.77408 
L 106.792696 137.121666 
L 103.900042 139.0464 
L 101.120028 140.807357 
L 100.4544 141.181555 
L 100.4544 147.9168 
L 100.4544 156.7872 
L 100.4544 165.6576 
L 100.4544 174.528 
L 100.4544 181.805134 
L 102.345661 181.325908 
L 103.391762 181.057446 
L 104.324284 180.80032 
L 112.217499 178.547903 
L 115.536947 177.456348 
L 117.530332 176.873264 
L 124.614983 174.528 
L 124.708931 174.495532 
L 124.801211 174.459345 
L 131.84073 171.902152 
L 134.184347 170.953677 
L 136.793944 169.997796 
L 140.979751 168.25568 
L 143.8797 166.997394 
L 144.794736 166.617514 
L 146.866337 165.6576 
L 151.811632 163.249263 
L 152.189659 163.05952 
L 159.389636 159.27713 
L 163.645481 156.7872 
L 164.91642 156.004803 
L 165.706508 155.479375 
L 169.790744 152.934129 
L 173.307493 150.51488 
L 175.510004 148.916811 
L 175.997081 148.584641 
L 176.874291 147.9168 
L 179.895392 145.533376 
L 180.137329 145.31872 
L 182.901352 143.014078 
L 187.366571 139.0464 
L 188.512836 137.968673 
L 193.615984 132.77408 
L 194.088454 132.260396 
L 196.034915 130.176 
L 197.702472 128.194154 
L 198.161302 127.57792 
L 199.389224 126.062799 
L 203.063765 121.3056 
L 204.22543 119.705334 
L 207.40339 115.03328 
L 208.289818 113.617197 
L 209.065627 112.4352 
L 209.586009 111.466966 
L 210.233457 110.370974 
L 210.571736 109.83712 
L 210.897774 109.276257 
L 213.220677 105.045791 
L 213.887967 103.849164 
L 214.040894 103.5648 
L 216.821311 98.02662 
L 217.171 97.29248 
L 217.416646 96.718163 
L 218.424506 94.6944 
L 218.96482 93.373362 
L 219.539971 92.09632 
L 222.008905 85.970518 
L 222.065371 85.824 
L 222.187594 85.481671 
L 224.433438 79.55168 
L 224.849074 78.303459 
L 225.075046 77.747959 
L 225.362966 76.9536 
L 225.892601 75.130079 
L 226.173435 74.35552 
L 226.541652 73.196817 
L 228.1177 68.0832 
L 228.911885 65.284107 
L 229.883689 61.81088 
L 230.057 61.200691 
L 230.68208 59.2128 
L 231.071029 57.476641 
L 231.235835 56.61472 
L 231.67049 54.841355 
L 232.764552 50.3424 
L 233.801187 45.6704 
L 234.153358 44.07008 
L 234.313024 43.17488 
L 234.690455 41.472 
L 229.96992 41.472 
L 221.8752 41.472 
L 213.78048 41.472 
L 205.68576 41.472 
L 197.59104 41.472 
L 189.49632 41.472 
L 181.4016 41.472 
L 173.30688 41.472 
" clip-path="url(#pf098f9d6e6)" style="fill: #53ffa4"/>
   </g>
   <g id="PathCollection_16">
    <path d="M 234.690455 41.472 
L 234.313024 43.17488 
L 234.153358 44.07008 
L 233.801187 45.6704 
L 232.764552 50.3424 
L 231.67049 54.841355 
L 231.235835 56.61472 
L 231.071029 57.476641 
L 230.68208 59.2128 
L 230.057 61.200691 
L 229.883689 61.81088 
L 228.911885 65.284107 
L 228.1177 68.0832 
L 226.541652 73.196817 
L 226.173435 74.35552 
L 225.892601 75.130079 
L 225.362966 76.9536 
L 225.075046 77.747959 
L 224.849074 78.303459 
L 224.433438 79.55168 
L 222.187594 85.481671 
L 222.065371 85.824 
L 222.008905 85.970518 
L 219.539971 92.09632 
L 218.96482 93.373362 
L 218.424506 94.6944 
L 217.416646 96.718163 
L 217.171 97.29248 
L 216.821311 98.02662 
L 214.040894 103.5648 
L 213.887967 103.849164 
L 213.220677 105.045791 
L 210.897774 109.276257 
L 210.571736 109.83712 
L 210.233457 110.370974 
L 209.586009 111.466966 
L 209.065627 112.4352 
L 208.289818 113.617197 
L 207.40339 115.03328 
L 204.22543 119.705334 
L 203.063765 121.3056 
L 199.389224 126.062799 
L 198.161302 127.57792 
L 197.702472 128.194154 
L 196.034915 130.176 
L 194.088454 132.260396 
L 193.615984 132.77408 
L 188.512836 137.968673 
L 187.366571 139.0464 
L 182.901352 143.014078 
L 180.137329 145.31872 
L 179.895392 145.533376 
L 176.874291 147.9168 
L 175.997081 148.584641 
L 175.510004 148.916811 
L 173.307493 150.51488 
L 169.790744 152.934129 
L 165.706508 155.479375 
L 164.91642 156.004803 
L 163.645481 156.7872 
L 159.389636 159.27713 
L 152.189659 163.05952 
L 151.811632 163.249263 
L 146.866337 165.6576 
L 144.794736 166.617514 
L 143.8797 166.997394 
L 140.979751 168.25568 
L 136.793944 169.997796 
L 134.184347 170.953677 
L 131.84073 171.902152 
L 124.801211 174.459345 
L 124.708931 174.495532 
L 124.614983 174.528 
L 117.530332 176.873264 
L 115.536947 177.456348 
L 112.217499 178.547903 
L 104.324284 180.80032 
L 103.391762 181.057446 
L 102.345661 181.325908 
L 100.4544 181.805134 
L 100.4544 183.3984 
L 100.4544 192.2688 
L 100.4544 201.1392 
L 100.4544 210.0096 
L 100.4544 214.325846 
L 102.065307 214.271346 
L 104.87196 214.039125 
L 111.899016 213.680501 
L 115.368496 213.383595 
L 117.870526 213.254868 
L 122.107476 212.892809 
L 127.13152 212.631866 
L 132.005347 212.199945 
L 133.629053 212.114862 
L 139.479593 211.596801 
L 142.242889 211.450489 
L 148.703032 210.855353 
L 149.329742 210.821843 
L 157.023001 210.113088 
L 157.202994 210.103352 
L 158.177419 210.0096 
L 164.955711 209.33115 
L 165.497811 209.253893 
L 172.020456 208.599904 
L 174.990615 208.16452 
L 180.485347 207.585601 
L 182.429062 207.291391 
L 186.612333 206.849253 
L 193.339762 205.797859 
L 195.891296 205.512831 
L 199.512687 204.925775 
L 200.90395 204.769571 
L 207.04169 203.73728 
L 210.1963 203.18656 
L 212.425973 202.812453 
L 220.498153 201.1392 
L 221.250956 200.984232 
L 221.432726 200.938359 
L 223.32834 200.479611 
L 231.443147 198.54112 
L 232.259007 198.324709 
L 232.659847 198.191509 
L 241.260441 195.77084 
L 245.410279 194.250536 
L 246.75631 193.848066 
L 250.947618 192.2688 
L 253.373474 191.30381 
L 256.60199 189.6959 
L 260.68521 187.867679 
L 264.14031 185.99648 
L 264.333645 185.900645 
L 268.468951 183.3984 
L 269.281604 182.871 
L 272.238449 180.80032 
L 274.57926 179.060049 
L 277.982892 175.997205 
L 278.830614 175.301491 
L 279.64514 174.528 
L 283.278936 170.852575 
L 285.417857 168.25568 
L 287.200035 165.914999 
L 287.281427 165.818582 
L 287.387416 165.6576 
L 287.510506 165.43975 
L 287.691467 165.177138 
L 289.237995 163.05952 
L 290.560845 161.091476 
L 293.015586 156.7872 
L 294.015842 154.903993 
L 296.127926 150.51488 
L 296.563407 149.470591 
L 297.359828 147.9168 
L 297.876593 146.689007 
L 298.152505 145.797108 
L 298.335138 145.31872 
L 299.054617 143.175232 
L 300.603455 139.0464 
L 301.213909 137.283774 
L 302.573621 132.77408 
L 303.198469 130.3467 
L 303.222102 130.275226 
L 303.24659 130.176 
L 303.263881 130.066403 
L 303.287025 129.965104 
L 303.969797 127.57792 
L 304.931796 123.61713 
L 305.421911 121.3056 
L 306.114648 117.697871 
L 306.725395 115.03328 
L 306.867946 114.271497 
L 307.071396 113.49001 
L 307.279833 112.4352 
L 307.40197 111.298325 
L 307.566544 110.281806 
L 307.665727 109.83712 
L 307.811835 109.03235 
L 308.704413 103.5648 
L 309.320368 99.340503 
L 309.604285 97.29248 
L 309.642452 97.020344 
L 310.071811 94.6944 
L 310.271677 92.524661 
L 310.292056 92.09632 
L 311.005769 86.058525 
L 311.03243 85.824 
L 311.073225 85.411017 
L 311.71426 79.55168 
L 311.780703 79.177493 
L 312.090878 76.9536 
L 312.198839 74.625906 
L 312.220583 74.35552 
L 312.431242 72.088895 
L 312.796575 68.0832 
L 313.28069 61.830243 
L 313.282386 61.81088 
L 313.282591 61.809535 
L 313.597963 59.2128 
L 313.663332 56.785082 
L 313.677902 56.61472 
L 313.698911 56.164443 
L 314.13077 50.3424 
L 314.437647 45.329883 
L 314.517132 44.07008 
L 314.530704 43.506013 
L 314.677947 41.472 
L 310.91712 41.472 
L 302.8224 41.472 
L 294.72768 41.472 
L 286.63296 41.472 
L 278.53824 41.472 
L 270.44352 41.472 
L 262.3488 41.472 
L 254.25408 41.472 
L 246.15936 41.472 
L 238.06464 41.472 
" clip-path="url(#pf098f9d6e6)" style="fill: #a4ff53"/>
   </g>
   <g id="PathCollection_17">
    <path d="M 314.677947 41.472 
L 314.530704 43.506013 
L 314.517132 44.07008 
L 314.437647 45.329883 
L 314.13077 50.3424 
L 313.698911 56.164443 
L 313.677902 56.61472 
L 313.663332 56.785082 
L 313.597963 59.2128 
L 313.282591 61.809535 
L 313.282386 61.81088 
L 313.28069 61.830243 
L 312.796575 68.0832 
L 312.431242 72.088895 
L 312.220583 74.35552 
L 312.198839 74.625906 
L 312.090878 76.9536 
L 311.780703 79.177493 
L 311.71426 79.55168 
L 311.073225 85.411017 
L 311.03243 85.824 
L 311.005769 86.058525 
L 310.292056 92.09632 
L 310.271677 92.524661 
L 310.071811 94.6944 
L 309.642452 97.020344 
L 309.604285 97.29248 
L 309.320368 99.340503 
L 308.704413 103.5648 
L 307.811835 109.03235 
L 307.665727 109.83712 
L 307.566544 110.281806 
L 307.40197 111.298325 
L 307.279833 112.4352 
L 307.071396 113.49001 
L 306.867946 114.271497 
L 306.725395 115.03328 
L 306.114648 117.697871 
L 305.421911 121.3056 
L 304.931796 123.61713 
L 303.969797 127.57792 
L 303.287025 129.965104 
L 303.263881 130.066403 
L 303.24659 130.176 
L 303.222102 130.275226 
L 303.198469 130.3467 
L 302.573621 132.77408 
L 301.213909 137.283774 
L 300.603455 139.0464 
L 299.054617 143.175232 
L 298.335138 145.31872 
L 298.152505 145.797108 
L 297.876593 146.689007 
L 297.359828 147.9168 
L 296.563407 149.470591 
L 296.127926 150.51488 
L 294.015842 154.903993 
L 293.015586 156.7872 
L 290.560845 161.091476 
L 289.237995 163.05952 
L 287.691467 165.177138 
L 287.510506 165.43975 
L 287.387416 165.6576 
L 287.281427 165.818582 
L 287.200035 165.914999 
L 285.417857 168.25568 
L 283.278936 170.852575 
L 279.64514 174.528 
L 278.830614 175.301491 
L 277.982892 175.997205 
L 274.57926 179.060049 
L 272.238449 180.80032 
L 269.281604 182.871 
L 268.468951 183.3984 
L 264.333645 185.900645 
L 264.14031 185.99648 
L 260.68521 187.867679 
L 256.60199 189.6959 
L 253.373474 191.30381 
L 250.947618 192.2688 
L 246.75631 193.848066 
L 245.410279 194.250536 
L 241.260441 195.77084 
L 232.659847 198.191509 
L 232.259007 198.324709 
L 231.443147 198.54112 
L 223.32834 200.479611 
L 221.432726 200.938359 
L 221.250956 200.984232 
L 220.498153 201.1392 
L 212.425973 202.812453 
L 210.1963 203.18656 
L 207.04169 203.73728 
L 200.90395 204.769571 
L 199.512687 204.925775 
L 195.891296 205.512831 
L 193.339762 205.797859 
L 186.612333 206.849253 
L 182.429062 207.291391 
L 180.485347 207.585601 
L 174.990615 208.16452 
L 172.020456 208.599904 
L 165.497811 209.253893 
L 164.955711 209.33115 
L 158.177419 210.0096 
L 157.202994 210.103352 
L 157.023001 210.113088 
L 149.329742 210.821843 
L 148.703032 210.855353 
L 142.242889 211.450489 
L 139.479593 211.596801 
L 133.629053 212.114862 
L 132.005347 212.199945 
L 127.13152 212.631866 
L 122.107476 212.892809 
L 117.870526 213.254868 
L 115.368496 213.383595 
L 111.899016 213.680501 
L 104.87196 214.039125 
L 102.065307 214.271346 
L 100.4544 214.325846 
L 100.4544 218.88 
L 100.4544 227.7504 
L 100.4544 236.6208 
L 100.4544 242.523259 
L 101.546963 242.600764 
L 106.29505 243.021133 
L 110.560796 243.286754 
L 116.00302 243.795876 
L 117.25389 243.877278 
L 123.842537 244.509315 
L 125.529767 244.624175 
L 132.784496 245.362138 
L 132.879503 245.368914 
L 134.050048 245.4912 
L 140.342585 246.132713 
L 141.680442 246.315745 
L 148.434518 247.047322 
L 149.678072 247.224971 
L 154.995032 247.816988 
L 159.910151 248.551523 
L 163.877129 249.023099 
L 166.715197 249.46757 
L 169.38038 249.793958 
L 178.620233 251.313707 
L 179.173248 251.386432 
L 181.351596 251.76352 
L 185.337654 252.473958 
L 191.308412 253.539081 
L 195.35765 254.3616 
L 202.454087 255.828475 
L 207.284192 256.95968 
L 210.69784 257.739636 
L 211.825521 258.060046 
L 215.407005 258.928936 
L 218.884232 259.954421 
L 223.724155 261.205868 
L 229.968127 263.227256 
L 229.971373 263.228155 
L 229.982757 263.232 
L 236.216723 265.256995 
L 242.025864 267.57281 
L 244.219348 268.364412 
L 246.862538 269.50432 
L 247.5119 269.757124 
L 252.661905 272.1024 
L 253.465055 272.460543 
L 257.917476 274.70048 
L 259.343476 275.39571 
L 260.497793 276.075855 
L 263.577476 277.722267 
L 268.775749 280.9728 
L 269.854447 281.618321 
L 273.318135 284.122877 
L 276.509431 286.340129 
L 277.626222 287.24512 
L 278.477149 287.848857 
L 280.803739 289.8432 
L 282.870769 291.55088 
L 283.793541 292.44128 
L 288.436326 296.737425 
L 290.169114 298.7136 
L 293.40293 302.2183 
L 295.604463 304.98592 
L 296.313974 305.845699 
L 297.614516 307.584 
L 302.8224 307.584 
L 310.91712 307.584 
L 319.01184 307.584 
L 327.10656 307.584 
L 335.20128 307.584 
L 343.296 307.584 
L 343.296 298.7136 
L 343.296 289.8432 
L 343.296 280.9728 
L 343.296 272.1024 
L 343.296 263.232 
L 343.296 254.3616 
L 343.296 245.4912 
L 343.296 236.6208 
L 343.296 227.7504 
L 343.296 218.88 
L 343.296 210.0096 
L 343.296 201.1392 
L 343.296 192.2688 
L 343.296 183.3984 
L 343.296 174.528 
L 343.296 165.6576 
L 343.296 156.7872 
L 343.296 147.9168 
L 343.296 139.0464 
L 343.296 130.176 
L 343.296 121.3056 
L 343.296 112.4352 
L 343.296 103.5648 
L 343.296 94.6944 
L 343.296 85.824 
L 343.296 76.9536 
L 343.296 68.0832 
L 343.296 59.2128 
L 343.296 50.3424 
L 343.296 41.472 
L 335.20128 41.472 
L 327.10656 41.472 
L 319.01184 41.472 
" clip-path="url(#pf098f9d6e6)" style="fill: #f8f500"/>
   </g>
   <g id="PathCollection_18">
    <path d="M 297.614516 307.584 
L 296.313974 305.845699 
L 295.604463 304.98592 
L 293.40293 302.2183 
L 290.169114 298.7136 
L 288.436326 296.737425 
L 283.793541 292.44128 
L 282.870769 291.55088 
L 280.803739 289.8432 
L 278.477149 287.848857 
L 277.626222 287.24512 
L 276.509431 286.340129 
L 273.318135 284.122877 
L 269.854447 281.618321 
L 268.775749 280.9728 
L 263.577476 277.722267 
L 260.497793 276.075855 
L 259.343476 275.39571 
L 257.917476 274.70048 
L 253.465055 272.460543 
L 252.661905 272.1024 
L 247.5119 269.757124 
L 246.862538 269.50432 
L 244.219348 268.364412 
L 242.025864 267.57281 
L 236.216723 265.256995 
L 229.982757 263.232 
L 229.971373 263.228155 
L 229.968127 263.227256 
L 223.724155 261.205868 
L 218.884232 259.954421 
L 215.407005 258.928936 
L 211.825521 258.060046 
L 210.69784 257.739636 
L 207.284192 256.95968 
L 202.454087 255.828475 
L 195.35765 254.3616 
L 191.308412 253.539081 
L 185.337654 252.473958 
L 181.351596 251.76352 
L 179.173248 251.386432 
L 178.620233 251.313707 
L 169.38038 249.793958 
L 166.715197 249.46757 
L 163.877129 249.023099 
L 159.910151 248.551523 
L 154.995032 247.816988 
L 149.678072 247.224971 
L 148.434518 247.047322 
L 141.680442 246.315745 
L 140.342585 246.132713 
L 134.050048 245.4912 
L 132.879503 245.368914 
L 132.784496 245.362138 
L 125.529767 244.624175 
L 123.842537 244.509315 
L 117.25389 243.877278 
L 116.00302 243.795876 
L 110.560796 243.286754 
L 106.29505 243.021133 
L 101.546963 242.600764 
L 100.4544 242.523259 
L 100.4544 245.4912 
L 100.4544 254.3616 
L 100.4544 263.232 
L 100.4544 268.500894 
L 102.590489 268.883146 
L 103.292773 268.992038 
L 106.106087 269.50432 
L 111.944291 270.561312 
L 119.838659 272.1024 
L 122.587109 272.636496 
L 123.252028 272.777146 
L 128.847957 273.967679 
L 132.285243 274.70048 
L 134.981229 275.290279 
L 135.961846 275.530762 
L 144.192685 277.395275 
L 148.04624 278.389466 
L 149.83984 278.811064 
L 156.833162 280.661281 
L 157.2981 280.774828 
L 158.005817 280.9728 
L 164.532721 282.770294 
L 166.069579 283.24115 
L 170.177342 284.402228 
L 179.020248 287.233654 
L 179.03354 287.237637 
L 179.055878 287.24512 
L 181.117559 287.904204 
L 186.686835 289.8432 
L 188.287079 290.392082 
L 193.818762 292.44128 
L 194.87025 292.824711 
L 195.455297 293.063372 
L 199.186643 294.492342 
L 203.494123 296.311948 
L 206.699358 297.602873 
L 209.141918 298.7136 
L 213.11373 300.477524 
L 214.748928 301.275684 
L 218.119256 302.829459 
L 222.269405 304.98592 
L 224.786573 306.262511 
L 227.193555 307.584 
L 229.96992 307.584 
L 238.06464 307.584 
L 246.15936 307.584 
L 254.25408 307.584 
L 262.3488 307.584 
L 270.44352 307.584 
L 278.53824 307.584 
L 286.63296 307.584 
L 294.72768 307.584 
" clip-path="url(#pf098f9d6e6)" style="fill: #ff9400"/>
   </g>
   <g id="PathCollection_19">
    <path d="M 227.193555 307.584 
L 224.786573 306.262511 
L 222.269405 304.98592 
L 218.119256 302.829459 
L 214.748928 301.275684 
L 213.11373 300.477524 
L 209.141918 298.7136 
L 206.699358 297.602873 
L 203.494123 296.311948 
L 199.186643 294.492342 
L 195.455297 293.063372 
L 194.87025 292.824711 
L 193.818762 292.44128 
L 188.287079 290.392082 
L 186.686835 289.8432 
L 181.117559 287.904204 
L 179.055878 287.24512 
L 179.03354 287.237637 
L 179.020248 287.233654 
L 170.177342 284.402228 
L 166.069579 283.24115 
L 164.532721 282.770294 
L 158.005817 280.9728 
L 157.2981 280.774828 
L 156.833162 280.661281 
L 149.83984 278.811064 
L 148.04624 278.389466 
L 144.192685 277.395275 
L 135.961846 275.530762 
L 134.981229 275.290279 
L 132.285243 274.70048 
L 128.847957 273.967679 
L 123.252028 272.777146 
L 122.587109 272.636496 
L 119.838659 272.1024 
L 111.944291 270.561312 
L 106.106087 269.50432 
L 103.292773 268.992038 
L 102.590489 268.883146 
L 100.4544 268.500894 
L 100.4544 272.1024 
L 100.4544 280.9728 
L 100.4544 289.8432 
L 100.4544 294.004641 
L 102.086483 294.395832 
L 105.411157 295.274941 
L 110.502917 296.572579 
L 116.451926 298.20588 
L 116.801131 298.297478 
L 118.282099 298.7136 
L 123.409081 300.170477 
L 127.087792 301.287948 
L 131.381677 302.553897 
L 134.675255 303.586649 
L 136.091283 304.013797 
L 139.08273 304.98592 
L 143.493452 306.419527 
L 146.918374 307.584 
L 149.02272 307.584 
L 157.11744 307.584 
L 165.21216 307.584 
L 173.30688 307.584 
L 181.4016 307.584 
L 189.49632 307.584 
L 197.59104 307.584 
L 205.68576 307.584 
L 213.78048 307.584 
L 221.8752 307.584 
" clip-path="url(#pf098f9d6e6)" style="fill: #ff3800"/>
   </g>
   <g id="PathCollection_20">
    <path d="M 146.918374 307.584 
L 143.493452 306.419527 
L 139.08273 304.98592 
L 136.091283 304.013797 
L 134.675255 303.586649 
L 131.381677 302.553897 
L 127.087792 301.287948 
L 123.409081 300.170477 
L 118.282099 298.7136 
L 116.801131 298.297478 
L 116.451926 298.20588 
L 110.502917 296.572579 
L 105.411157 295.274941 
L 102.086483 294.395832 
L 100.4544 294.004641 
L 100.4544 298.7136 
L 100.4544 307.584 
L 108.54912 307.584 
L 116.64384 307.584 
L 124.73856 307.584 
L 132.83328 307.584 
L 140.928 307.584 
" clip-path="url(#pf098f9d6e6)" style="fill: #b60000"/>
   </g>
   <g id="matplotlib.axis_1">
    <g id="xtick_1">
     <g id="line2d_1">
      <defs>
       <path id="mf1991baa1b" d="M 0 0 
L 0 3.5 
" style="stroke: #000000; stroke-width: 0.8"/>
      </defs>
      <g>
       <use xlink:href="#mf1991baa1b" x="57.6" y="307.584" style="stroke: #000000; stroke-width: 0.8"/>
      </g>
     </g>
     <g id="text_1">
      <!-- 0.0 -->
      <g transform="translate(51.26875 321.385562) scale(0.1 -0.1)">
       <defs>
        <path id="Calibri-30" d="M 3022 2031 
Q 3022 1566 2948 1181 
Q 2875 797 2704 520 
Q 2534 244 2259 92 
Q 1984 -59 1581 -59 
Q 1200 -59 939 77 
Q 678 213 518 477 
Q 359 741 292 1127 
Q 225 1513 225 2013 
Q 225 2475 300 2861 
Q 375 3247 544 3523 
Q 713 3800 988 3951 
Q 1263 4103 1663 4103 
Q 2047 4103 2308 3967 
Q 2569 3831 2728 3567 
Q 2888 3303 2955 2917 
Q 3022 2531 3022 2031 
z
M 2472 1994 
Q 2472 2297 2450 2537 
Q 2428 2778 2386 2962 
Q 2344 3147 2276 3280 
Q 2209 3413 2115 3498 
Q 2022 3584 1901 3623 
Q 1781 3663 1631 3663 
Q 1366 3663 1200 3538 
Q 1034 3413 939 3194 
Q 844 2975 809 2681 
Q 775 2388 775 2050 
Q 775 1597 822 1280 
Q 869 963 970 763 
Q 1072 563 1230 472 
Q 1388 381 1613 381 
Q 1788 381 1920 437 
Q 2053 494 2148 598 
Q 2244 703 2306 850 
Q 2369 997 2406 1175 
Q 2444 1353 2458 1561 
Q 2472 1769 2472 1994 
z
" transform="scale(0.015625)"/>
        <path id="Calibri-2e" d="M 1144 341 
Q 1144 119 1070 45 
Q 997 -28 803 -28 
Q 616 -28 544 44 
Q 472 116 472 331 
Q 472 553 545 626 
Q 619 700 813 700 
Q 1000 700 1072 628 
Q 1144 556 1144 341 
z
" transform="scale(0.015625)"/>
       </defs>
       <use xlink:href="#Calibri-30"/>
       <use xlink:href="#Calibri-2e" x="50.683594"/>
       <use xlink:href="#Calibri-30" x="75.927734"/>
      </g>
     </g>
    </g>
    <g id="xtick_2">
     <g id="line2d_2">
      <g>
       <use xlink:href="#mf1991baa1b" x="86.1696" y="307.584" style="stroke: #000000; stroke-width: 0.8"/>
      </g>
     </g>
     <g id="text_2">
      <!-- 0.1 -->
      <g transform="translate(79.83835 321.385562) scale(0.1 -0.1)">
       <defs>
        <path id="Calibri-31" d="M 2897 213 
Q 2897 153 2887 112 
Q 2878 72 2862 47 
Q 2847 22 2826 11 
Q 2806 0 2784 0 
L 672 0 
Q 650 0 631 11 
Q 613 22 595 47 
Q 578 72 568 112 
Q 559 153 559 213 
Q 559 269 568 309 
Q 578 350 592 376 
Q 606 403 626 417 
Q 647 431 672 431 
L 1516 431 
L 1516 3506 
L 734 3041 
Q 675 3009 639 3003 
Q 603 2997 581 3017 
Q 559 3038 551 3084 
Q 544 3131 544 3203 
Q 544 3256 548 3293 
Q 553 3331 562 3356 
Q 572 3381 589 3400 
Q 606 3419 634 3438 
L 1566 4034 
Q 1578 4044 1597 4050 
Q 1616 4056 1644 4062 
Q 1672 4069 1709 4070 
Q 1747 4072 1803 4072 
Q 1878 4072 1928 4065 
Q 1978 4059 2006 4048 
Q 2034 4038 2043 4020 
Q 2053 4003 2053 3984 
L 2053 431 
L 2784 431 
Q 2809 431 2831 417 
Q 2853 403 2867 376 
Q 2881 350 2889 309 
Q 2897 269 2897 213 
z
" transform="scale(0.015625)"/>
       </defs>
       <use xlink:href="#Calibri-30"/>
       <use xlink:href="#Calibri-2e" x="50.683594"/>
       <use xlink:href="#Calibri-31" x="75.927734"/>
      </g>
     </g>
    </g>
    <g id="xtick_3">
     <g id="line2d_3">
      <g>
       <use xlink:href="#mf1991baa1b" x="114.7392" y="307.584" style="stroke: #000000; stroke-width: 0.8"/>
      </g>
     </g>
     <g id="text_3">
      <!-- 0.2 -->
      <g transform="translate(108.40795 321.385562) scale(0.1 -0.1)">
       <defs>
        <path id="Calibri-32" d="M 2888 231 
Q 2888 175 2880 131 
Q 2872 88 2858 58 
Q 2844 28 2820 14 
Q 2797 0 2769 0 
L 534 0 
Q 491 0 458 11 
Q 425 22 401 47 
Q 378 72 367 119 
Q 356 166 356 234 
Q 356 297 361 344 
Q 366 391 381 427 
Q 397 463 420 498 
Q 444 534 481 575 
L 1266 1406 
Q 1538 1694 1702 1922 
Q 1866 2150 1955 2337 
Q 2044 2525 2072 2678 
Q 2100 2831 2100 2966 
Q 2100 3100 2056 3220 
Q 2013 3341 1930 3431 
Q 1847 3522 1722 3575 
Q 1597 3628 1434 3628 
Q 1244 3628 1092 3575 
Q 941 3522 827 3459 
Q 713 3397 636 3344 
Q 559 3291 522 3291 
Q 500 3291 483 3303 
Q 466 3316 455 3344 
Q 444 3372 437 3419 
Q 431 3466 431 3531 
Q 431 3578 434 3612 
Q 438 3647 445 3672 
Q 453 3697 465 3719 
Q 478 3741 515 3773 
Q 553 3806 645 3862 
Q 738 3919 877 3973 
Q 1016 4028 1183 4065 
Q 1350 4103 1534 4103 
Q 1828 4103 2048 4020 
Q 2269 3938 2414 3794 
Q 2559 3650 2631 3459 
Q 2703 3269 2703 3053 
Q 2703 2859 2668 2667 
Q 2634 2475 2523 2251 
Q 2413 2028 2203 1754 
Q 1994 1481 1647 1125 
L 1006 456 
L 2766 456 
Q 2791 456 2814 442 
Q 2838 428 2855 400 
Q 2872 372 2880 330 
Q 2888 288 2888 231 
z
" transform="scale(0.015625)"/>
       </defs>
       <use xlink:href="#Calibri-30"/>
       <use xlink:href="#Calibri-2e" x="50.683594"/>
       <use xlink:href="#Calibri-32" x="75.927734"/>
      </g>
     </g>
    </g>
    <g id="xtick_4">
     <g id="line2d_4">
      <g>
       <use xlink:href="#mf1991baa1b" x="143.3088" y="307.584" style="stroke: #000000; stroke-width: 0.8"/>
      </g>
     </g>
     <g id="text_4">
      <!-- 0.3 -->
      <g transform="translate(136.97755 321.385562) scale(0.1 -0.1)">
       <defs>
        <path id="Calibri-33" d="M 2856 1156 
Q 2856 878 2759 654 
Q 2663 431 2481 272 
Q 2300 113 2034 27 
Q 1769 -59 1434 -59 
Q 1231 -59 1054 -26 
Q 878 6 740 51 
Q 603 97 512 145 
Q 422 194 398 216 
Q 375 238 362 259 
Q 350 281 340 312 
Q 331 344 326 389 
Q 322 434 322 500 
Q 322 613 344 656 
Q 366 700 406 700 
Q 434 700 517 650 
Q 600 600 729 542 
Q 859 484 1032 434 
Q 1206 384 1419 384 
Q 1625 384 1781 437 
Q 1938 491 2044 587 
Q 2150 684 2203 817 
Q 2256 950 2256 1106 
Q 2256 1278 2189 1415 
Q 2122 1553 1992 1653 
Q 1863 1753 1673 1806 
Q 1484 1859 1244 1859 
L 859 1859 
Q 834 1859 811 1870 
Q 788 1881 770 1906 
Q 753 1931 742 1972 
Q 731 2013 731 2078 
Q 731 2138 740 2177 
Q 750 2216 767 2239 
Q 784 2263 806 2273 
Q 828 2284 856 2284 
L 1209 2284 
Q 1416 2284 1580 2337 
Q 1744 2391 1858 2491 
Q 1972 2591 2033 2730 
Q 2094 2869 2094 3041 
Q 2094 3166 2053 3280 
Q 2013 3394 1931 3478 
Q 1850 3563 1723 3611 
Q 1597 3659 1431 3659 
Q 1250 3659 1098 3604 
Q 947 3550 828 3487 
Q 709 3425 631 3370 
Q 553 3316 522 3316 
Q 500 3316 483 3323 
Q 466 3331 455 3354 
Q 444 3378 439 3420 
Q 434 3463 434 3531 
Q 434 3578 437 3614 
Q 441 3650 450 3676 
Q 459 3703 471 3725 
Q 484 3747 514 3776 
Q 544 3806 634 3862 
Q 725 3919 858 3973 
Q 991 4028 1164 4065 
Q 1338 4103 1538 4103 
Q 1819 4103 2031 4031 
Q 2244 3959 2386 3828 
Q 2528 3697 2598 3514 
Q 2669 3331 2669 3109 
Q 2669 2919 2619 2755 
Q 2569 2591 2472 2464 
Q 2375 2338 2234 2248 
Q 2094 2159 1909 2125 
L 1909 2119 
Q 2119 2097 2292 2014 
Q 2466 1931 2591 1806 
Q 2716 1681 2786 1514 
Q 2856 1347 2856 1156 
z
" transform="scale(0.015625)"/>
       </defs>
       <use xlink:href="#Calibri-30"/>
       <use xlink:href="#Calibri-2e" x="50.683594"/>
       <use xlink:href="#Calibri-33" x="75.927734"/>
      </g>
     </g>
    </g>
    <g id="xtick_5">
     <g id="line2d_5">
      <g>
       <use xlink:href="#mf1991baa1b" x="171.8784" y="307.584" style="stroke: #000000; stroke-width: 0.8"/>
      </g>
     </g>
     <g id="text_5">
      <!-- 0.4 -->
      <g transform="translate(165.54715 321.385562) scale(0.1 -0.1)">
       <defs>
        <path id="Calibri-34" d="M 3059 1150 
Q 3059 1047 3028 987 
Q 2997 928 2941 928 
L 2484 928 
L 2484 78 
Q 2484 53 2471 36 
Q 2459 19 2428 6 
Q 2397 -6 2347 -12 
Q 2297 -19 2219 -19 
Q 2144 -19 2094 -12 
Q 2044 -6 2014 6 
Q 1984 19 1973 36 
Q 1963 53 1963 78 
L 1963 928 
L 294 928 
Q 256 928 231 937 
Q 206 947 186 972 
Q 166 997 158 1044 
Q 150 1091 150 1166 
Q 150 1225 153 1272 
Q 156 1319 165 1358 
Q 175 1397 190 1433 
Q 206 1469 228 1509 
L 1684 3966 
Q 1700 3991 1729 4009 
Q 1759 4028 1806 4040 
Q 1853 4053 1922 4058 
Q 1991 4063 2084 4063 
Q 2188 4063 2264 4055 
Q 2341 4047 2387 4034 
Q 2434 4022 2459 4001 
Q 2484 3981 2484 3953 
L 2484 1372 
L 2941 1372 
Q 2994 1372 3026 1317 
Q 3059 1263 3059 1150 
z
M 1963 3591 
L 1956 3591 
L 641 1372 
L 1963 1372 
L 1963 3591 
z
" transform="scale(0.015625)"/>
       </defs>
       <use xlink:href="#Calibri-30"/>
       <use xlink:href="#Calibri-2e" x="50.683594"/>
       <use xlink:href="#Calibri-34" x="75.927734"/>
      </g>
     </g>
    </g>
    <g id="xtick_6">
     <g id="line2d_6">
      <g>
       <use xlink:href="#mf1991baa1b" x="200.448" y="307.584" style="stroke: #000000; stroke-width: 0.8"/>
      </g>
     </g>
     <g id="text_6">
      <!-- 0.5 -->
      <g transform="translate(194.11675 321.385562) scale(0.1 -0.1)">
       <defs>
        <path id="Calibri-35" d="M 2869 1300 
Q 2869 975 2759 722 
Q 2650 469 2450 295 
Q 2250 122 1973 31 
Q 1697 -59 1359 -59 
Q 1172 -59 1003 -32 
Q 834 -6 703 33 
Q 572 72 487 109 
Q 403 147 379 169 
Q 356 191 347 209 
Q 338 228 330 254 
Q 322 281 319 322 
Q 316 363 316 419 
Q 316 472 320 514 
Q 325 556 337 582 
Q 350 609 367 621 
Q 384 634 406 634 
Q 438 634 503 595 
Q 569 556 680 511 
Q 791 466 955 425 
Q 1119 384 1344 384 
Q 1553 384 1728 434 
Q 1903 484 2029 590 
Q 2156 697 2228 858 
Q 2300 1019 2300 1250 
Q 2300 1444 2239 1592 
Q 2178 1741 2051 1839 
Q 1925 1938 1731 1986 
Q 1538 2034 1269 2034 
Q 1078 2034 940 2015 
Q 803 1997 684 1997 
Q 597 1997 559 2037 
Q 522 2078 522 2194 
L 522 3841 
Q 522 3944 570 3994 
Q 619 4044 709 4044 
L 2500 4044 
Q 2525 4044 2548 4030 
Q 2572 4016 2587 3987 
Q 2603 3959 2611 3915 
Q 2619 3872 2619 3813 
Q 2619 3700 2587 3637 
Q 2556 3575 2500 3575 
L 991 3575 
L 991 2441 
Q 1100 2456 1214 2459 
Q 1328 2463 1478 2463 
Q 1825 2463 2084 2380 
Q 2344 2297 2517 2145 
Q 2691 1994 2780 1778 
Q 2869 1563 2869 1300 
z
" transform="scale(0.015625)"/>
       </defs>
       <use xlink:href="#Calibri-30"/>
       <use xlink:href="#Calibri-2e" x="50.683594"/>
       <use xlink:href="#Calibri-35" x="75.927734"/>
      </g>
     </g>
    </g>
    <g id="xtick_7">
     <g id="line2d_7">
      <g>
       <use xlink:href="#mf1991baa1b" x="229.0176" y="307.584" style="stroke: #000000; stroke-width: 0.8"/>
      </g>
     </g>
     <g id="text_7">
      <!-- 0.6 -->
      <g transform="translate(222.68635 321.385562) scale(0.1 -0.1)">
       <defs>
        <path id="Calibri-36" d="M 2991 1309 
Q 2991 1044 2909 795 
Q 2828 547 2659 358 
Q 2491 169 2231 55 
Q 1972 -59 1619 -59 
Q 1366 -59 1172 3 
Q 978 66 834 181 
Q 691 297 595 465 
Q 500 634 442 850 
Q 384 1066 359 1322 
Q 334 1578 334 1872 
Q 334 2131 362 2397 
Q 391 2663 462 2909 
Q 534 3156 657 3373 
Q 781 3591 967 3752 
Q 1153 3913 1412 4006 
Q 1672 4100 2016 4100 
Q 2131 4100 2250 4086 
Q 2369 4072 2469 4048 
Q 2569 4025 2637 3997 
Q 2706 3969 2728 3951 
Q 2750 3934 2761 3914 
Q 2772 3894 2778 3870 
Q 2784 3847 2787 3817 
Q 2791 3788 2791 3744 
Q 2791 3688 2789 3647 
Q 2788 3606 2777 3581 
Q 2766 3556 2748 3543 
Q 2731 3531 2703 3531 
Q 2669 3531 2609 3553 
Q 2550 3575 2465 3601 
Q 2381 3628 2261 3650 
Q 2141 3672 1981 3672 
Q 1691 3672 1481 3553 
Q 1272 3434 1139 3234 
Q 1006 3034 942 2770 
Q 878 2506 869 2219 
Q 950 2266 1051 2312 
Q 1153 2359 1273 2396 
Q 1394 2434 1528 2457 
Q 1663 2481 1816 2481 
Q 2144 2481 2369 2392 
Q 2594 2303 2733 2145 
Q 2872 1988 2931 1773 
Q 2991 1559 2991 1309 
z
M 2447 1259 
Q 2447 1441 2411 1589 
Q 2375 1738 2290 1841 
Q 2206 1944 2065 2000 
Q 1925 2056 1719 2056 
Q 1603 2056 1487 2036 
Q 1372 2016 1264 1980 
Q 1156 1944 1057 1895 
Q 959 1847 878 1791 
Q 878 1388 929 1116 
Q 981 844 1079 680 
Q 1178 516 1325 445 
Q 1472 375 1669 375 
Q 1869 375 2016 450 
Q 2163 525 2259 651 
Q 2356 778 2401 936 
Q 2447 1094 2447 1259 
z
" transform="scale(0.015625)"/>
       </defs>
       <use xlink:href="#Calibri-30"/>
       <use xlink:href="#Calibri-2e" x="50.683594"/>
       <use xlink:href="#Calibri-36" x="75.927734"/>
      </g>
     </g>
    </g>
    <g id="xtick_8">
     <g id="line2d_8">
      <g>
       <use xlink:href="#mf1991baa1b" x="257.5872" y="307.584" style="stroke: #000000; stroke-width: 0.8"/>
      </g>
     </g>
     <g id="text_8">
      <!-- 0.7 -->
      <g transform="translate(251.25595 321.385562) scale(0.1 -0.1)">
       <defs>
        <path id="Calibri-37" d="M 2947 3813 
Q 2947 3756 2942 3711 
Q 2938 3666 2930 3623 
Q 2922 3581 2908 3542 
Q 2894 3503 2875 3459 
L 1419 103 
Q 1403 66 1379 42 
Q 1356 19 1320 5 
Q 1284 -9 1228 -14 
Q 1172 -19 1091 -19 
Q 984 -19 925 -9 
Q 866 0 839 20 
Q 813 41 816 70 
Q 819 100 838 141 
L 2369 3572 
L 428 3572 
Q 369 3572 339 3634 
Q 309 3697 309 3809 
Q 309 3869 317 3912 
Q 325 3956 340 3986 
Q 356 4016 378 4030 
Q 400 4044 428 4044 
L 2784 4044 
Q 2828 4044 2861 4034 
Q 2894 4025 2911 3997 
Q 2928 3969 2937 3925 
Q 2947 3881 2947 3813 
z
" transform="scale(0.015625)"/>
       </defs>
       <use xlink:href="#Calibri-30"/>
       <use xlink:href="#Calibri-2e" x="50.683594"/>
       <use xlink:href="#Calibri-37" x="75.927734"/>
      </g>
     </g>
    </g>
    <g id="xtick_9">
     <g id="line2d_9">
      <g>
       <use xlink:href="#mf1991baa1b" x="286.1568" y="307.584" style="stroke: #000000; stroke-width: 0.8"/>
      </g>
     </g>
     <g id="text_9">
      <!-- 0.8 -->
      <g transform="translate(279.82555 321.385562) scale(0.1 -0.1)">
       <defs>
        <path id="Calibri-38" d="M 2981 1038 
Q 2981 775 2887 570 
Q 2794 366 2617 225 
Q 2441 84 2181 12 
Q 1922 -59 1588 -59 
Q 1275 -59 1028 6 
Q 781 72 609 200 
Q 438 328 347 515 
Q 256 703 256 944 
Q 256 1134 318 1293 
Q 381 1453 498 1587 
Q 616 1722 787 1839 
Q 959 1956 1175 2063 
Q 988 2159 844 2267 
Q 700 2375 600 2501 
Q 500 2628 448 2772 
Q 397 2916 397 3084 
Q 397 3297 473 3483 
Q 550 3669 704 3806 
Q 859 3944 1098 4023 
Q 1338 4103 1656 4103 
Q 1963 4103 2186 4029 
Q 2409 3956 2554 3829 
Q 2700 3703 2769 3531 
Q 2838 3359 2838 3163 
Q 2838 3003 2786 2856 
Q 2734 2709 2634 2578 
Q 2534 2447 2389 2333 
Q 2244 2219 2056 2119 
Q 2278 2009 2451 1893 
Q 2625 1778 2742 1645 
Q 2859 1513 2920 1364 
Q 2981 1216 2981 1038 
z
M 2306 3113 
Q 2306 3244 2261 3350 
Q 2216 3456 2128 3531 
Q 2041 3606 1911 3645 
Q 1781 3684 1616 3684 
Q 1278 3684 1104 3531 
Q 931 3378 931 3113 
Q 931 2991 973 2886 
Q 1016 2781 1105 2687 
Q 1194 2594 1330 2505 
Q 1466 2416 1653 2319 
Q 1969 2481 2137 2678 
Q 2306 2875 2306 3113 
z
M 2438 981 
Q 2438 1125 2384 1242 
Q 2331 1359 2223 1461 
Q 2116 1563 1955 1658 
Q 1794 1753 1581 1856 
Q 1384 1759 1236 1662 
Q 1088 1566 992 1462 
Q 897 1359 848 1245 
Q 800 1131 800 994 
Q 800 691 1008 525 
Q 1216 359 1628 359 
Q 2028 359 2233 526 
Q 2438 694 2438 981 
z
" transform="scale(0.015625)"/>
       </defs>
       <use xlink:href="#Calibri-30"/>
       <use xlink:href="#Calibri-2e" x="50.683594"/>
       <use xlink:href="#Calibri-38" x="75.927734"/>
      </g>
     </g>
    </g>
    <g id="xtick_10">
     <g id="line2d_10">
      <g>
       <use xlink:href="#mf1991baa1b" x="314.7264" y="307.584" style="stroke: #000000; stroke-width: 0.8"/>
      </g>
     </g>
     <g id="text_10">
      <!-- 0.9 -->
      <g transform="translate(308.39515 321.385562) scale(0.1 -0.1)">
       <defs>
        <path id="Calibri-39" d="M 2919 2181 
Q 2919 1919 2887 1650 
Q 2856 1381 2781 1132 
Q 2706 884 2579 667 
Q 2453 450 2261 287 
Q 2069 125 1805 33 
Q 1541 -59 1191 -59 
Q 1056 -59 929 -42 
Q 803 -25 701 0 
Q 600 25 531 53 
Q 463 81 431 109 
Q 400 138 386 186 
Q 372 234 372 316 
Q 372 384 376 425 
Q 381 466 390 487 
Q 400 509 417 517 
Q 434 525 459 525 
Q 494 525 556 501 
Q 619 478 714 450 
Q 809 422 937 398 
Q 1066 375 1225 375 
Q 1528 375 1745 492 
Q 1963 609 2100 806 
Q 2238 1003 2306 1262 
Q 2375 1522 2381 1809 
Q 2216 1713 1984 1638 
Q 1753 1563 1453 1563 
Q 1116 1563 886 1655 
Q 656 1747 517 1906 
Q 378 2066 317 2284 
Q 256 2503 256 2763 
Q 256 3031 334 3273 
Q 413 3516 578 3700 
Q 744 3884 1000 3993 
Q 1256 4103 1613 4103 
Q 1866 4103 2061 4039 
Q 2256 3975 2400 3854 
Q 2544 3734 2644 3564 
Q 2744 3394 2805 3178 
Q 2866 2963 2892 2711 
Q 2919 2459 2919 2181 
z
M 2372 2241 
Q 2372 2641 2319 2914 
Q 2266 3188 2162 3356 
Q 2059 3525 1909 3600 
Q 1759 3675 1563 3675 
Q 1359 3675 1215 3601 
Q 1072 3528 980 3404 
Q 888 3281 844 3125 
Q 800 2969 800 2803 
Q 800 2619 839 2466 
Q 878 2313 965 2206 
Q 1053 2100 1193 2042 
Q 1334 1984 1541 1984 
Q 1775 1984 1994 2054 
Q 2213 2125 2372 2241 
z
" transform="scale(0.015625)"/>
       </defs>
       <use xlink:href="#Calibri-30"/>
       <use xlink:href="#Calibri-2e" x="50.683594"/>
       <use xlink:href="#Calibri-39" x="75.927734"/>
      </g>
     </g>
    </g>
    <g id="xtick_11">
     <g id="line2d_11">
      <g>
       <use xlink:href="#mf1991baa1b" x="343.296" y="307.584" style="stroke: #000000; stroke-width: 0.8"/>
      </g>
     </g>
     <g id="text_11">
      <!-- 1.0 -->
      <g transform="translate(336.96475 321.385562) scale(0.1 -0.1)">
       <use xlink:href="#Calibri-31"/>
       <use xlink:href="#Calibri-2e" x="50.683594"/>
       <use xlink:href="#Calibri-30" x="75.927734"/>
      </g>
     </g>
    </g>
    <g id="text_12">
     <!-- $\mathit{p}$ (cm$^2$/cm$^2$) -->
     <g transform="translate(174.148 336.263687) scale(0.1 -0.1)">
      <defs>
       <path id="DejaVuSans-Oblique-70" d="M 3175 2156 
Q 3175 2616 2975 2859 
Q 2775 3103 2400 3103 
Q 2144 3103 1911 2972 
Q 1678 2841 1497 2591 
Q 1319 2344 1212 1994 
Q 1106 1644 1106 1300 
Q 1106 863 1306 627 
Q 1506 391 1875 391 
Q 2147 391 2380 519 
Q 2613 647 2778 891 
Q 2956 1147 3065 1494 
Q 3175 1841 3175 2156 
z
M 1394 2969 
Q 1625 3272 1939 3428 
Q 2253 3584 2638 3584 
Q 3175 3584 3472 3232 
Q 3769 2881 3769 2247 
Q 3769 1728 3584 1258 
Q 3400 788 3053 416 
Q 2822 169 2531 39 
Q 2241 -91 1919 -91 
Q 1547 -91 1294 64 
Q 1041 219 916 525 
L 556 -1331 
L -19 -1331 
L 922 3500 
L 1497 3500 
L 1394 2969 
z
" transform="scale(0.015625)"/>
       <path id="Calibri-20" transform="scale(0.015625)"/>
       <path id="Calibri-28" d="M 1547 4306 
Q 1250 3678 1104 3017 
Q 959 2356 959 1688 
Q 959 1016 1107 356 
Q 1256 -303 1541 -938 
Q 1556 -975 1557 -1001 
Q 1559 -1028 1537 -1045 
Q 1516 -1063 1470 -1070 
Q 1425 -1078 1347 -1078 
Q 1291 -1078 1250 -1075 
Q 1209 -1072 1179 -1062 
Q 1150 -1053 1131 -1040 
Q 1113 -1028 1103 -1013 
Q 934 -694 806 -367 
Q 678 -41 590 296 
Q 503 634 459 979 
Q 416 1325 416 1678 
Q 416 2031 464 2375 
Q 513 2719 602 3058 
Q 691 3397 819 3725 
Q 947 4053 1106 4375 
Q 1109 4388 1123 4397 
Q 1138 4406 1163 4415 
Q 1188 4425 1231 4429 
Q 1275 4434 1344 4434 
Q 1416 4434 1459 4425 
Q 1503 4416 1528 4400 
Q 1553 4384 1556 4359 
Q 1559 4334 1547 4306 
z
" transform="scale(0.015625)"/>
       <path id="Calibri-63" d="M 2500 506 
Q 2500 453 2497 414 
Q 2494 375 2486 348 
Q 2478 322 2467 301 
Q 2456 281 2417 242 
Q 2378 203 2284 145 
Q 2191 88 2073 42 
Q 1956 -3 1818 -31 
Q 1681 -59 1534 -59 
Q 1231 -59 997 41 
Q 763 141 605 333 
Q 447 525 364 804 
Q 281 1084 281 1450 
Q 281 1866 382 2164 
Q 484 2463 661 2653 
Q 838 2844 1077 2936 
Q 1316 3028 1594 3028 
Q 1728 3028 1854 3003 
Q 1981 2978 2087 2937 
Q 2194 2897 2276 2844 
Q 2359 2791 2396 2753 
Q 2434 2716 2448 2694 
Q 2463 2672 2472 2642 
Q 2481 2613 2484 2575 
Q 2488 2538 2488 2481 
Q 2488 2359 2459 2311 
Q 2431 2263 2391 2263 
Q 2344 2263 2283 2314 
Q 2222 2366 2128 2428 
Q 2034 2491 1901 2542 
Q 1769 2594 1588 2594 
Q 1216 2594 1017 2308 
Q 819 2022 819 1478 
Q 819 1206 870 1001 
Q 922 797 1022 659 
Q 1122 522 1267 455 
Q 1413 388 1600 388 
Q 1778 388 1912 444 
Q 2047 500 2145 567 
Q 2244 634 2311 689 
Q 2378 744 2416 744 
Q 2438 744 2453 731 
Q 2469 719 2480 689 
Q 2491 659 2495 614 
Q 2500 569 2500 506 
z
" transform="scale(0.015625)"/>
       <path id="Calibri-6d" d="M 4650 78 
Q 4650 53 4637 36 
Q 4625 19 4597 6 
Q 4569 -6 4519 -12 
Q 4469 -19 4394 -19 
Q 4316 -19 4266 -12 
Q 4216 -6 4186 6 
Q 4156 19 4143 36 
Q 4131 53 4131 78 
L 4131 1788 
Q 4131 1966 4100 2112 
Q 4069 2259 4000 2365 
Q 3931 2472 3825 2528 
Q 3719 2584 3575 2584 
Q 3397 2584 3217 2446 
Q 3038 2309 2822 2044 
L 2822 78 
Q 2822 53 2809 36 
Q 2797 19 2767 6 
Q 2738 -6 2688 -12 
Q 2638 -19 2563 -19 
Q 2491 -19 2439 -12 
Q 2388 -6 2358 6 
Q 2328 19 2317 36 
Q 2306 53 2306 78 
L 2306 1788 
Q 2306 1966 2272 2112 
Q 2238 2259 2169 2365 
Q 2100 2472 1995 2528 
Q 1891 2584 1747 2584 
Q 1569 2584 1387 2446 
Q 1206 2309 994 2044 
L 994 78 
Q 994 53 981 36 
Q 969 19 941 6 
Q 913 -6 863 -12 
Q 813 -19 734 -19 
Q 659 -19 609 -12 
Q 559 -6 529 6 
Q 500 19 489 36 
Q 478 53 478 78 
L 478 2891 
Q 478 2916 487 2933 
Q 497 2950 525 2964 
Q 553 2978 597 2983 
Q 641 2988 713 2988 
Q 781 2988 826 2983 
Q 872 2978 897 2964 
Q 922 2950 933 2933 
Q 944 2916 944 2891 
L 944 2519 
Q 1181 2784 1404 2907 
Q 1628 3031 1856 3031 
Q 2031 3031 2170 2990 
Q 2309 2950 2415 2876 
Q 2522 2803 2597 2701 
Q 2672 2600 2722 2475 
Q 2863 2628 2989 2734 
Q 3116 2841 3233 2906 
Q 3350 2972 3461 3001 
Q 3572 3031 3684 3031 
Q 3956 3031 4140 2936 
Q 4325 2841 4439 2681 
Q 4553 2522 4601 2308 
Q 4650 2094 4650 1856 
L 4650 78 
z
" transform="scale(0.015625)"/>
       <path id="DejaVuSans-32" d="M 1228 531 
L 3431 531 
L 3431 0 
L 469 0 
L 469 531 
Q 828 903 1448 1529 
Q 2069 2156 2228 2338 
Q 2531 2678 2651 2914 
Q 2772 3150 2772 3378 
Q 2772 3750 2511 3984 
Q 2250 4219 1831 4219 
Q 1534 4219 1204 4116 
Q 875 4013 500 3803 
L 500 4441 
Q 881 4594 1212 4672 
Q 1544 4750 1819 4750 
Q 2544 4750 2975 4387 
Q 3406 4025 3406 3419 
Q 3406 3131 3298 2873 
Q 3191 2616 2906 2266 
Q 2828 2175 2409 1742 
Q 1991 1309 1228 531 
z
" transform="scale(0.015625)"/>
       <path id="Calibri-2f" d="M 525 -753 
Q 513 -794 492 -817 
Q 472 -841 440 -853 
Q 409 -866 364 -872 
Q 319 -878 253 -878 
Q 175 -878 123 -867 
Q 72 -856 44 -836 
Q 16 -816 9 -786 
Q 3 -756 22 -716 
L 1913 4469 
Q 1925 4509 1945 4532 
Q 1966 4556 1995 4570 
Q 2025 4584 2072 4589 
Q 2119 4594 2184 4594 
Q 2263 4594 2313 4583 
Q 2363 4572 2391 4553 
Q 2419 4534 2425 4503 
Q 2431 4472 2416 4431 
L 525 -753 
z
" transform="scale(0.015625)"/>
       <path id="Calibri-29" d="M 1522 1678 
Q 1522 1325 1478 979 
Q 1434 634 1346 296 
Q 1259 -41 1132 -367 
Q 1006 -694 838 -1013 
Q 828 -1028 809 -1040 
Q 791 -1053 761 -1062 
Q 731 -1072 690 -1075 
Q 650 -1078 594 -1078 
Q 513 -1078 467 -1070 
Q 422 -1063 401 -1045 
Q 381 -1028 382 -1001 
Q 384 -975 400 -938 
Q 688 -306 834 355 
Q 981 1016 981 1688 
Q 981 2356 834 3017 
Q 688 3678 394 4306 
Q 381 4334 384 4359 
Q 388 4384 413 4400 
Q 438 4416 481 4425 
Q 525 4434 597 4434 
Q 663 4434 706 4429 
Q 750 4425 776 4415 
Q 803 4406 815 4397 
Q 828 4388 834 4375 
Q 1156 3734 1339 3057 
Q 1522 2381 1522 1678 
z
" transform="scale(0.015625)"/>
      </defs>
      <use xlink:href="#DejaVuSans-Oblique-70" transform="translate(0 0.765625)"/>
      <use xlink:href="#Calibri-20" transform="translate(63.476562 0.765625)"/>
      <use xlink:href="#Calibri-28" transform="translate(84.958984 0.765625)"/>
      <use xlink:href="#Calibri-63" transform="translate(115.28125 0.765625)"/>
      <use xlink:href="#Calibri-6d" transform="translate(157.566406 0.765625)"/>
      <use xlink:href="#DejaVuSans-32" transform="translate(238.40625 39.046875) scale(0.7)"/>
      <use xlink:href="#Calibri-2f" transform="translate(285.676758 0.765625)"/>
      <use xlink:href="#Calibri-63" transform="translate(324.299805 0.765625)"/>
      <use xlink:href="#Calibri-6d" transform="translate(366.584961 0.765625)"/>
      <use xlink:href="#DejaVuSans-32" transform="translate(447.424805 39.046875) scale(0.7)"/>
      <use xlink:href="#Calibri-29" transform="translate(494.695312 0.765625)"/>
     </g>
    </g>
   </g>
   <g id="matplotlib.axis_2">
    <g id="ytick_1">
     <g id="line2d_12">
      <defs>
       <path id="m61119a3f90" d="M 0 0 
L -3.5 0 
" style="stroke: #000000; stroke-width: 0.8"/>
      </defs>
      <g>
       <use xlink:href="#m61119a3f90" x="57.6" y="275.65056" style="stroke: #000000; stroke-width: 0.8"/>
      </g>
     </g>
     <g id="text_13">
      <!-- 25 -->
      <g transform="translate(40.4625 279.051341) scale(0.1 -0.1)">
       <use xlink:href="#Calibri-32"/>
       <use xlink:href="#Calibri-35" x="50.683594"/>
      </g>
     </g>
    </g>
    <g id="ytick_2">
     <g id="line2d_13">
      <g>
       <use xlink:href="#m61119a3f90" x="57.6" y="242.38656" style="stroke: #000000; stroke-width: 0.8"/>
      </g>
     </g>
     <g id="text_14">
      <!-- 50 -->
      <g transform="translate(40.4625 245.787341) scale(0.1 -0.1)">
       <use xlink:href="#Calibri-35"/>
       <use xlink:href="#Calibri-30" x="50.683594"/>
      </g>
     </g>
    </g>
    <g id="ytick_3">
     <g id="line2d_14">
      <g>
       <use xlink:href="#m61119a3f90" x="57.6" y="209.12256" style="stroke: #000000; stroke-width: 0.8"/>
      </g>
     </g>
     <g id="text_15">
      <!-- 75 -->
      <g transform="translate(40.4625 212.523341) scale(0.1 -0.1)">
       <use xlink:href="#Calibri-37"/>
       <use xlink:href="#Calibri-35" x="50.683594"/>
      </g>
     </g>
    </g>
    <g id="ytick_4">
     <g id="line2d_15">
      <g>
       <use xlink:href="#m61119a3f90" x="57.6" y="175.85856" style="stroke: #000000; stroke-width: 0.8"/>
      </g>
     </g>
     <g id="text_16">
      <!-- 100 -->
      <g transform="translate(35.39375 179.259341) scale(0.1 -0.1)">
       <use xlink:href="#Calibri-31"/>
       <use xlink:href="#Calibri-30" x="50.683594"/>
       <use xlink:href="#Calibri-30" x="101.367188"/>
      </g>
     </g>
    </g>
    <g id="ytick_5">
     <g id="line2d_16">
      <g>
       <use xlink:href="#m61119a3f90" x="57.6" y="142.59456" style="stroke: #000000; stroke-width: 0.8"/>
      </g>
     </g>
     <g id="text_17">
      <!-- 125 -->
      <g transform="translate(35.39375 145.995341) scale(0.1 -0.1)">
       <use xlink:href="#Calibri-31"/>
       <use xlink:href="#Calibri-32" x="50.683594"/>
       <use xlink:href="#Calibri-35" x="101.367188"/>
      </g>
     </g>
    </g>
    <g id="ytick_6">
     <g id="line2d_17">
      <g>
       <use xlink:href="#m61119a3f90" x="57.6" y="109.33056" style="stroke: #000000; stroke-width: 0.8"/>
      </g>
     </g>
     <g id="text_18">
      <!-- 150 -->
      <g transform="translate(35.39375 112.731341) scale(0.1 -0.1)">
       <use xlink:href="#Calibri-31"/>
       <use xlink:href="#Calibri-35" x="50.683594"/>
       <use xlink:href="#Calibri-30" x="101.367188"/>
      </g>
     </g>
    </g>
    <g id="ytick_7">
     <g id="line2d_18">
      <g>
       <use xlink:href="#m61119a3f90" x="57.6" y="76.06656" style="stroke: #000000; stroke-width: 0.8"/>
      </g>
     </g>
     <g id="text_19">
      <!-- 175 -->
      <g transform="translate(35.39375 79.467341) scale(0.1 -0.1)">
       <use xlink:href="#Calibri-31"/>
       <use xlink:href="#Calibri-37" x="50.683594"/>
       <use xlink:href="#Calibri-35" x="101.367188"/>
      </g>
     </g>
    </g>
    <g id="ytick_8">
     <g id="line2d_19">
      <g>
       <use xlink:href="#m61119a3f90" x="57.6" y="42.80256" style="stroke: #000000; stroke-width: 0.8"/>
      </g>
     </g>
     <g id="text_20">
      <!-- 200 -->
      <g transform="translate(35.39375 46.203341) scale(0.1 -0.1)">
       <use xlink:href="#Calibri-32"/>
       <use xlink:href="#Calibri-30" x="50.683594"/>
       <use xlink:href="#Calibri-30" x="101.367188"/>
      </g>
     </g>
    </g>
    <g id="text_21">
     <!-- $\mathit{Z}$$_{a}$ (nm) -->
     <g transform="translate(29.59375 191.028) rotate(-90) scale(0.1 -0.1)">
      <defs>
       <path id="DejaVuSans-Oblique-5a" d="M 838 4666 
L 4500 4666 
L 4409 4184 
L 794 531 
L 3769 531 
L 3669 0 
L -141 0 
L -50 481 
L 3566 4134 
L 738 4134 
L 838 4666 
z
" transform="scale(0.015625)"/>
       <path id="DejaVuSans-Oblique-61" d="M 3438 1997 
L 3047 0 
L 2472 0 
L 2578 531 
Q 2325 219 2001 64 
Q 1678 -91 1281 -91 
Q 834 -91 548 182 
Q 263 456 263 884 
Q 263 1497 752 1853 
Q 1241 2209 2100 2209 
L 2900 2209 
L 2931 2363 
Q 2938 2388 2941 2417 
Q 2944 2447 2944 2509 
Q 2944 2788 2717 2942 
Q 2491 3097 2081 3097 
Q 1800 3097 1504 3025 
Q 1209 2953 897 2809 
L 997 3341 
Q 1322 3463 1633 3523 
Q 1944 3584 2234 3584 
Q 2853 3584 3176 3315 
Q 3500 3047 3500 2534 
Q 3500 2431 3484 2292 
Q 3469 2153 3438 1997 
z
M 2816 1759 
L 2241 1759 
Q 1534 1759 1195 1570 
Q 856 1381 856 984 
Q 856 709 1029 553 
Q 1203 397 1509 397 
Q 1978 397 2328 733 
Q 2678 1069 2791 1631 
L 2816 1759 
z
" transform="scale(0.015625)"/>
       <path id="Calibri-6e" d="M 2900 78 
Q 2900 53 2887 36 
Q 2875 19 2847 6 
Q 2819 -6 2769 -12 
Q 2719 -19 2644 -19 
Q 2566 -19 2516 -12 
Q 2466 -6 2437 6 
Q 2409 19 2396 36 
Q 2384 53 2384 78 
L 2384 1725 
Q 2384 1966 2346 2112 
Q 2309 2259 2237 2365 
Q 2166 2472 2052 2528 
Q 1938 2584 1788 2584 
Q 1594 2584 1400 2446 
Q 1206 2309 994 2044 
L 994 78 
Q 994 53 981 36 
Q 969 19 941 6 
Q 913 -6 863 -12 
Q 813 -19 734 -19 
Q 659 -19 609 -12 
Q 559 -6 529 6 
Q 500 19 489 36 
Q 478 53 478 78 
L 478 2891 
Q 478 2916 487 2933 
Q 497 2950 525 2964 
Q 553 2978 597 2983 
Q 641 2988 713 2988 
Q 781 2988 826 2983 
Q 872 2978 897 2964 
Q 922 2950 933 2933 
Q 944 2916 944 2891 
L 944 2519 
Q 1181 2784 1417 2907 
Q 1653 3031 1894 3031 
Q 2175 3031 2367 2936 
Q 2559 2841 2678 2681 
Q 2797 2522 2848 2308 
Q 2900 2094 2900 1794 
L 2900 78 
z
" transform="scale(0.015625)"/>
      </defs>
      <use xlink:href="#DejaVuSans-Oblique-5a" transform="translate(0 0.09375)"/>
      <use xlink:href="#DejaVuSans-Oblique-61" transform="translate(69.462891 -16.3125) scale(0.7)"/>
      <use xlink:href="#Calibri-20" transform="translate(115.092773 0.09375)"/>
      <use xlink:href="#Calibri-28" transform="translate(136.575195 0.09375)"/>
      <use xlink:href="#Calibri-6e" transform="translate(166.897461 0.09375)"/>
      <use xlink:href="#Calibri-6d" transform="translate(219.436523 0.09375)"/>
      <use xlink:href="#Calibri-29" transform="translate(299.319336 0.09375)"/>
     </g>
    </g>
   </g>
   <g id="patch_3">
    <path d="M 57.6 307.584 
L 57.6 41.472 
" style="fill: none; stroke: #000000; stroke-width: 0.8; stroke-linejoin: miter; stroke-linecap: square"/>
   </g>
   <g id="patch_4">
    <path d="M 343.296 307.584 
L 343.296 41.472 
" style="fill: none; stroke: #000000; stroke-width: 0.8; stroke-linejoin: miter; stroke-linecap: square"/>
   </g>
   <g id="patch_5">
    <path d="M 57.6 307.584 
L 343.296 307.584 
" style="fill: none; stroke: #000000; stroke-width: 0.8; stroke-linejoin: miter; stroke-linecap: square"/>
   </g>
   <g id="patch_6">
    <path d="M 57.6 41.472 
L 343.296 41.472 
" style="fill: none; stroke: #000000; stroke-width: 0.8; stroke-linejoin: miter; stroke-linecap: square"/>
   </g>
   <g id="text_22">
    <!-- $\lambda$ = 545 nm -->
    <g transform="translate(177.348 35.472) scale(0.1 -0.1)">
     <defs>
      <path id="DejaVuSans-Oblique-3bb" d="M 2350 4316 
L 3125 0 
L 2516 0 
L 2038 2588 
L 328 0 
L -281 0 
L 1903 3356 
L 1794 3975 
Q 1725 4369 1391 4369 
L 1091 4369 
L 1184 4863 
L 1550 4856 
Q 2253 4847 2350 4316 
z
" transform="scale(0.015625)"/>
      <path id="Calibri-3d" d="M 2891 2409 
Q 2891 2284 2855 2236 
Q 2819 2188 2772 2188 
L 409 2188 
Q 363 2188 328 2236 
Q 294 2284 294 2409 
Q 294 2522 325 2575 
Q 356 2628 409 2628 
L 2772 2628 
Q 2828 2628 2859 2575 
Q 2891 2522 2891 2409 
z
M 2891 1194 
Q 2891 1069 2855 1022 
Q 2819 975 2772 975 
L 409 975 
Q 363 975 328 1022 
Q 294 1069 294 1194 
Q 294 1309 325 1362 
Q 356 1416 409 1416 
L 2772 1416 
Q 2828 1416 2859 1362 
Q 2891 1309 2891 1194 
z
" transform="scale(0.015625)"/>
     </defs>
     <use xlink:href="#DejaVuSans-Oblique-3bb" transform="translate(0 0.015625)"/>
     <use xlink:href="#Calibri-20" transform="translate(59.179688 0.015625)"/>
     <use xlink:href="#Calibri-3d" transform="translate(81.787109 0.015625)"/>
     <use xlink:href="#Calibri-20" transform="translate(131.591797 0.015625)"/>
     <use xlink:href="#Calibri-35" transform="translate(154.199219 0.015625)"/>
     <use xlink:href="#Calibri-34" transform="translate(204.882812 0.015625)"/>
     <use xlink:href="#Calibri-35" transform="translate(255.566406 0.015625)"/>
     <use xlink:href="#Calibri-20" transform="translate(306.25 0.015625)"/>
     <use xlink:href="#Calibri-6e" transform="translate(328.857422 0.015625)"/>
     <use xlink:href="#Calibri-6d" transform="translate(381.396484 0.015625)"/>
    </g>
   </g>
  </g>
  <g id="axes_2">
   <g id="patch_7">
    <path d="M 361.152 307.584 
L 374.4576 307.584 
L 374.4576 41.472 
L 361.152 41.472 
z
" style="fill: #ffffff"/>
   </g>
   <g id="QuadMesh_1">
    <path d="M 361.152 307.584 
L 374.4576 307.584 
L 374.4576 280.9728 
L 361.152 280.9728 
L 361.152 307.584 
" clip-path="url(#p6379f0b7ea)" style="fill: #0000b6"/>
    <path d="M 361.152 280.9728 
L 374.4576 280.9728 
L 374.4576 254.3616 
L 361.152 254.3616 
L 361.152 280.9728 
" clip-path="url(#p6379f0b7ea)" style="fill: #0018ff"/>
    <path d="M 361.152 254.3616 
L 374.4576 254.3616 
L 374.4576 227.7504 
L 361.152 227.7504 
L 361.152 254.3616 
" clip-path="url(#p6379f0b7ea)" style="fill: #0080ff"/>
    <path d="M 361.152 227.7504 
L 374.4576 227.7504 
L 374.4576 201.1392 
L 361.152 201.1392 
L 361.152 227.7504 
" clip-path="url(#p6379f0b7ea)" style="fill: #00e4f8"/>
    <path d="M 361.152 201.1392 
L 374.4576 201.1392 
L 374.4576 174.528 
L 361.152 174.528 
L 361.152 201.1392 
" clip-path="url(#p6379f0b7ea)" style="fill: #53ffa4"/>
    <path d="M 361.152 174.528 
L 374.4576 174.528 
L 374.4576 147.9168 
L 361.152 147.9168 
L 361.152 174.528 
" clip-path="url(#p6379f0b7ea)" style="fill: #a4ff53"/>
    <path d="M 361.152 147.9168 
L 374.4576 147.9168 
L 374.4576 121.3056 
L 361.152 121.3056 
L 361.152 147.9168 
" clip-path="url(#p6379f0b7ea)" style="fill: #f8f500"/>
    <path d="M 361.152 121.3056 
L 374.4576 121.3056 
L 374.4576 94.6944 
L 361.152 94.6944 
L 361.152 121.3056 
" clip-path="url(#p6379f0b7ea)" style="fill: #ff9400"/>
    <path d="M 361.152 94.6944 
L 374.4576 94.6944 
L 374.4576 68.0832 
L 361.152 68.0832 
L 361.152 94.6944 
" clip-path="url(#p6379f0b7ea)" style="fill: #ff3800"/>
    <path d="M 361.152 68.0832 
L 374.4576 68.0832 
L 374.4576 41.472 
L 361.152 41.472 
L 361.152 68.0832 
" clip-path="url(#p6379f0b7ea)" style="fill: #b60000"/>
   </g>
   <g id="matplotlib.axis_3"/>
   <g id="matplotlib.axis_4">
    <g id="ytick_9">
     <g id="line2d_20">
      <defs>
       <path id="mbd94b89ee6" d="M 0 0 
L 3.5 0 
" style="stroke: #000000; stroke-width: 0.8"/>
      </defs>
      <g>
       <use xlink:href="#mbd94b89ee6" x="374.4576" y="307.584" style="stroke: #000000; stroke-width: 0.8"/>
      </g>
     </g>
     <g id="text_23">
      <!-- 0 -->
      <g transform="translate(381.4576 310.984781) scale(0.1 -0.1)">
       <use xlink:href="#Calibri-30"/>
      </g>
     </g>
    </g>
    <g id="ytick_10">
     <g id="line2d_21">
      <g>
       <use xlink:href="#mbd94b89ee6" x="374.4576" y="280.9728" style="stroke: #000000; stroke-width: 0.8"/>
      </g>
     </g>
     <g id="text_24">
      <!-- 0.1 -->
      <g transform="translate(381.4576 284.373581) scale(0.1 -0.1)">
       <use xlink:href="#Calibri-30"/>
       <use xlink:href="#Calibri-2e" x="50.683594"/>
       <use xlink:href="#Calibri-31" x="75.927734"/>
      </g>
     </g>
    </g>
    <g id="ytick_11">
     <g id="line2d_22">
      <g>
       <use xlink:href="#mbd94b89ee6" x="374.4576" y="254.3616" style="stroke: #000000; stroke-width: 0.8"/>
      </g>
     </g>
     <g id="text_25">
      <!-- 0.2 -->
      <g transform="translate(381.4576 257.762381) scale(0.1 -0.1)">
       <use xlink:href="#Calibri-30"/>
       <use xlink:href="#Calibri-2e" x="50.683594"/>
       <use xlink:href="#Calibri-32" x="75.927734"/>
      </g>
     </g>
    </g>
    <g id="ytick_12">
     <g id="line2d_23">
      <g>
       <use xlink:href="#mbd94b89ee6" x="374.4576" y="227.7504" style="stroke: #000000; stroke-width: 0.8"/>
      </g>
     </g>
     <g id="text_26">
      <!-- 0.3 -->
      <g transform="translate(381.4576 231.151181) scale(0.1 -0.1)">
       <use xlink:href="#Calibri-30"/>
       <use xlink:href="#Calibri-2e" x="50.683594"/>
       <use xlink:href="#Calibri-33" x="75.927734"/>
      </g>
     </g>
    </g>
    <g id="ytick_13">
     <g id="line2d_24">
      <g>
       <use xlink:href="#mbd94b89ee6" x="374.4576" y="201.1392" style="stroke: #000000; stroke-width: 0.8"/>
      </g>
     </g>
     <g id="text_27">
      <!-- 0.4 -->
      <g transform="translate(381.4576 204.539981) scale(0.1 -0.1)">
       <use xlink:href="#Calibri-30"/>
       <use xlink:href="#Calibri-2e" x="50.683594"/>
       <use xlink:href="#Calibri-34" x="75.927734"/>
      </g>
     </g>
    </g>
    <g id="ytick_14">
     <g id="line2d_25">
      <g>
       <use xlink:href="#mbd94b89ee6" x="374.4576" y="174.528" style="stroke: #000000; stroke-width: 0.8"/>
      </g>
     </g>
     <g id="text_28">
      <!-- 0.5 -->
      <g transform="translate(381.4576 177.928781) scale(0.1 -0.1)">
       <use xlink:href="#Calibri-30"/>
       <use xlink:href="#Calibri-2e" x="50.683594"/>
       <use xlink:href="#Calibri-35" x="75.927734"/>
      </g>
     </g>
    </g>
    <g id="ytick_15">
     <g id="line2d_26">
      <g>
       <use xlink:href="#mbd94b89ee6" x="374.4576" y="147.9168" style="stroke: #000000; stroke-width: 0.8"/>
      </g>
     </g>
     <g id="text_29">
      <!-- 0.6 -->
      <g transform="translate(381.4576 151.317581) scale(0.1 -0.1)">
       <use xlink:href="#Calibri-30"/>
       <use xlink:href="#Calibri-2e" x="50.683594"/>
       <use xlink:href="#Calibri-36" x="75.927734"/>
      </g>
     </g>
    </g>
    <g id="ytick_16">
     <g id="line2d_27">
      <g>
       <use xlink:href="#mbd94b89ee6" x="374.4576" y="121.3056" style="stroke: #000000; stroke-width: 0.8"/>
      </g>
     </g>
     <g id="text_30">
      <!-- 0.7 -->
      <g transform="translate(381.4576 124.706381) scale(0.1 -0.1)">
       <use xlink:href="#Calibri-30"/>
       <use xlink:href="#Calibri-2e" x="50.683594"/>
       <use xlink:href="#Calibri-37" x="75.927734"/>
      </g>
     </g>
    </g>
    <g id="ytick_17">
     <g id="line2d_28">
      <g>
       <use xlink:href="#mbd94b89ee6" x="374.4576" y="94.6944" style="stroke: #000000; stroke-width: 0.8"/>
      </g>
     </g>
     <g id="text_31">
      <!-- 0.8 -->
      <g transform="translate(381.4576 98.095181) scale(0.1 -0.1)">
       <use xlink:href="#Calibri-30"/>
       <use xlink:href="#Calibri-2e" x="50.683594"/>
       <use xlink:href="#Calibri-38" x="75.927734"/>
      </g>
     </g>
    </g>
    <g id="ytick_18">
     <g id="line2d_29">
      <g>
       <use xlink:href="#mbd94b89ee6" x="374.4576" y="68.0832" style="stroke: #000000; stroke-width: 0.8"/>
      </g>
     </g>
     <g id="text_32">
      <!-- 0.9 -->
      <g transform="translate(381.4576 71.483981) scale(0.1 -0.1)">
       <use xlink:href="#Calibri-30"/>
       <use xlink:href="#Calibri-2e" x="50.683594"/>
       <use xlink:href="#Calibri-39" x="75.927734"/>
      </g>
     </g>
    </g>
    <g id="ytick_19">
     <g id="line2d_30">
      <g>
       <use xlink:href="#mbd94b89ee6" x="374.4576" y="41.472" style="stroke: #000000; stroke-width: 0.8"/>
      </g>
     </g>
     <g id="text_33">
      <!-- 1.0 -->
      <g transform="translate(381.4576 44.872781) scale(0.1 -0.1)">
       <use xlink:href="#Calibri-31"/>
       <use xlink:href="#Calibri-2e" x="50.683594"/>
       <use xlink:href="#Calibri-30" x="75.927734"/>
      </g>
     </g>
    </g>
   </g>
   <g id="LineCollection_1"/>
   <g id="patch_8">
    <path d="M 361.152 307.584 
L 367.8048 307.584 
L 374.4576 307.584 
L 374.4576 41.472 
L 367.8048 41.472 
L 361.152 41.472 
L 361.152 307.584 
z
" style="fill: none; stroke: #000000; stroke-width: 0.8; stroke-linejoin: miter; stroke-linecap: square"/>
   </g>
   <g id="text_34">
    <!-- $\mathit{E}_{\mathrm{dis}}$/$\mathit{E}_{\mathrm{i}}$ -->
    <g transform="translate(353.2548 35.472) scale(0.1 -0.1)">
     <defs>
      <path id="DejaVuSans-Oblique-45" d="M 1081 4666 
L 4031 4666 
L 3928 4134 
L 1606 4134 
L 1338 2753 
L 3566 2753 
L 3463 2222 
L 1234 2222 
L 909 531 
L 3284 531 
L 3181 0 
L 172 0 
L 1081 4666 
z
" transform="scale(0.015625)"/>
      <path id="DejaVuSans-64" d="M 2906 2969 
L 2906 4863 
L 3481 4863 
L 3481 0 
L 2906 0 
L 2906 525 
Q 2725 213 2448 61 
Q 2172 -91 1784 -91 
Q 1150 -91 751 415 
Q 353 922 353 1747 
Q 353 2572 751 3078 
Q 1150 3584 1784 3584 
Q 2172 3584 2448 3432 
Q 2725 3281 2906 2969 
z
M 947 1747 
Q 947 1113 1208 752 
Q 1469 391 1925 391 
Q 2381 391 2643 752 
Q 2906 1113 2906 1747 
Q 2906 2381 2643 2742 
Q 2381 3103 1925 3103 
Q 1469 3103 1208 2742 
Q 947 2381 947 1747 
z
" transform="scale(0.015625)"/>
      <path id="DejaVuSans-69" d="M 603 3500 
L 1178 3500 
L 1178 0 
L 603 0 
L 603 3500 
z
M 603 4863 
L 1178 4863 
L 1178 4134 
L 603 4134 
L 603 4863 
z
" transform="scale(0.015625)"/>
      <path id="DejaVuSans-73" d="M 2834 3397 
L 2834 2853 
Q 2591 2978 2328 3040 
Q 2066 3103 1784 3103 
Q 1356 3103 1142 2972 
Q 928 2841 928 2578 
Q 928 2378 1081 2264 
Q 1234 2150 1697 2047 
L 1894 2003 
Q 2506 1872 2764 1633 
Q 3022 1394 3022 966 
Q 3022 478 2636 193 
Q 2250 -91 1575 -91 
Q 1294 -91 989 -36 
Q 684 19 347 128 
L 347 722 
Q 666 556 975 473 
Q 1284 391 1588 391 
Q 1994 391 2212 530 
Q 2431 669 2431 922 
Q 2431 1156 2273 1281 
Q 2116 1406 1581 1522 
L 1381 1569 
Q 847 1681 609 1914 
Q 372 2147 372 2553 
Q 372 3047 722 3315 
Q 1072 3584 1716 3584 
Q 2034 3584 2315 3537 
Q 2597 3491 2834 3397 
z
" transform="scale(0.015625)"/>
     </defs>
     <use xlink:href="#DejaVuSans-Oblique-45" transform="translate(0 0.09375)"/>
     <use xlink:href="#DejaVuSans-64" transform="translate(63.183594 -16.3125) scale(0.7)"/>
     <use xlink:href="#DejaVuSans-69" transform="translate(107.617188 -16.3125) scale(0.7)"/>
     <use xlink:href="#DejaVuSans-73" transform="translate(127.06543 -16.3125) scale(0.7)"/>
     <use xlink:href="#Calibri-2f" transform="translate(166.269531 0.09375)"/>
     <use xlink:href="#DejaVuSans-Oblique-45" transform="translate(204.892578 0.09375)"/>
     <use xlink:href="#DejaVuSans-69" transform="translate(268.076172 -16.3125) scale(0.7)"/>
    </g>
   </g>
  </g>
 </g>
 <defs>
  <clipPath id="pf098f9d6e6">
   <rect x="57.6" y="41.472" width="285.696" height="266.112"/>
  </clipPath>
  <clipPath id="p6379f0b7ea">
   <rect x="361.152" y="41.472" width="13.3056" height="266.112"/>
  </clipPath>
 </defs>
</svg>
