<?xml version="1.0" encoding="utf-8" standalone="no"?>
<!DOCTYPE svg PUBLIC "-//W3C//DTD SVG 1.1//EN"
  "http://www.w3.org/Graphics/SVG/1.1/DTD/svg11.dtd">
<svg xmlns:xlink="http://www.w3.org/1999/xlink" width="460.8pt" height="345.6pt" viewBox="0 0 460.8 345.6" xmlns="http://www.w3.org/2000/svg" version="1.1">
 <metadata>
  <rdf:RDF xmlns:dc="http://purl.org/dc/elements/1.1/" xmlns:cc="http://creativecommons.org/ns#" xmlns:rdf="http://www.w3.org/1999/02/22-rdf-syntax-ns#">
   <cc:Work>
    <dc:type rdf:resource="http://purl.org/dc/dcmitype/StillImage"/>
    <dc:date>2024-01-22T08:47:41.285680</dc:date>
    <dc:format>image/svg+xml</dc:format>
    <dc:creator>
     <cc:Agent>
      <dc:title>Matplotlib v3.7.1, https://matplotlib.org/</dc:title>
     </cc:Agent>
    </dc:creator>
   </cc:Work>
  </rdf:RDF>
 </metadata>
 <defs>
  <style type="text/css">*{stroke-linejoin: round; stroke-linecap: butt}</style>
 </defs>
 <g id="figure_1">
  <g id="patch_1">
   <path d="M 0 345.6 
L 460.8 345.6 
L 460.8 0 
L 0 0 
z
" style="fill: #ffffff"/>
  </g>
  <g id="axes_1">
   <g id="patch_2">
    <path d="M 57.6 307.584 
L 343.296 307.584 
L 343.296 41.472 
L 57.6 41.472 
z
" style="fill: #ffffff"/>
   </g>
   <g id="PathCollection_1">
    <path clip-path="url(#p6d2a58504b)" style="fill: #0000b6"/>
   </g>
   <g id="PathCollection_2">
    <path d="M 57.62857 75.498043 
L 57.846168 75.211036 
L 58.196141 74.736 
L 58.576245 74.21511 
L 58.905415 73.76172 
L 59.712239 72.632037 
L 60.574231 71.4096 
L 60.654086 71.294136 
L 60.714687 71.205671 
L 61.551513 69.994537 
L 62.190948 69.05748 
L 62.601132 68.446196 
L 62.684721 68.323069 
L 62.845023 68.0832 
L 63.436416 67.187695 
L 63.487619 67.10892 
L 64.015666 66.297077 
L 65.008489 64.7568 
L 65.146848 64.537876 
L 65.898859 63.334016 
L 66.36095 62.59649 
L 66.480076 62.40468 
L 66.547295 62.294523 
L 67.079029 61.4304 
L 67.358674 60.967552 
L 67.506966 60.718212 
L 67.664842 60.45612 
L 68.627217 58.830234 
L 69.0523 58.104 
L 69.627903 57.100706 
L 70.199047 56.097111 
L 70.323345 55.880234 
L 70.39611 55.75188 
L 70.529532 55.512266 
L 70.786886 55.052126 
L 70.941782 54.7776 
L 71.027771 54.622206 
L 71.074755 54.53596 
L 71.479352 53.80332 
L 71.988979 52.863662 
L 72.747063 51.4512 
L 72.834239 51.285439 
L 72.933058 51.096138 
L 73.624171 49.780632 
L 73.978597 49.09908 
L 74.448616 48.178345 
L 74.458618 48.159032 
L 74.476074 48.1248 
L 74.504498 48.067878 
L 74.548178 47.981224 
L 74.969191 47.15052 
L 75.228265 46.629715 
L 75.776996 45.515798 
L 75.973856 45.118542 
L 76.131395 44.7984 
L 76.800757 43.409805 
L 77.260817 42.44628 
L 77.633773 41.650093 
L 77.717025 41.472 
L 77.436826 41.472 
L 75.913114 41.472 
L 74.389402 41.472 
L 72.86569 41.472 
L 71.341978 41.472 
L 69.818266 41.472 
L 68.294554 41.472 
L 66.770842 41.472 
L 65.24713 41.472 
L 63.723418 41.472 
L 62.199706 41.472 
L 60.675994 41.472 
L 59.152282 41.472 
L 57.62857 41.472 
L 57.62857 44.7984 
L 57.62857 48.1248 
L 57.62857 51.4512 
L 57.62857 54.7776 
L 57.62857 58.104 
L 57.62857 61.4304 
L 57.62857 64.7568 
L 57.62857 68.0832 
L 57.62857 71.4096 
L 57.62857 74.736 
" clip-path="url(#p6d2a58504b)" style="fill: #0018ff"/>
   </g>
   <g id="PathCollection_3">
    <path d="M 77.717025 41.472 
L 77.633773 41.650093 
L 77.260817 42.44628 
L 76.800757 43.409805 
L 76.131395 44.7984 
L 75.973856 45.118542 
L 75.776996 45.515798 
L 75.228265 46.629715 
L 74.969191 47.15052 
L 74.548178 47.981224 
L 74.504498 48.067878 
L 74.476074 48.1248 
L 74.458618 48.159032 
L 74.448616 48.178345 
L 73.978597 49.09908 
L 73.624171 49.780632 
L 72.933058 51.096138 
L 72.834239 51.285439 
L 72.747063 51.4512 
L 71.988979 52.863662 
L 71.479352 53.80332 
L 71.074755 54.53596 
L 71.027771 54.622206 
L 70.941782 54.7776 
L 70.786886 55.052126 
L 70.529532 55.512266 
L 70.39611 55.75188 
L 70.323345 55.880234 
L 70.199047 56.097111 
L 69.627903 57.100706 
L 69.0523 58.104 
L 68.627217 58.830234 
L 67.664842 60.45612 
L 67.506966 60.718212 
L 67.358674 60.967552 
L 67.079029 61.4304 
L 66.547295 62.294523 
L 66.480076 62.40468 
L 66.36095 62.59649 
L 65.898859 63.334016 
L 65.146848 64.537876 
L 65.008489 64.7568 
L 64.015666 66.297077 
L 63.487619 67.10892 
L 63.436416 67.187695 
L 62.845023 68.0832 
L 62.684721 68.323069 
L 62.601132 68.446196 
L 62.190948 69.05748 
L 61.551513 69.994537 
L 60.714687 71.205671 
L 60.654086 71.294136 
L 60.574231 71.4096 
L 59.712239 72.632037 
L 58.905415 73.76172 
L 58.576245 74.21511 
L 58.196141 74.736 
L 57.846168 75.211036 
L 57.62857 75.498043 
L 57.62857 78.0624 
L 57.62857 81.3888 
L 57.62857 84.7152 
L 57.62857 88.0416 
L 57.62857 91.368 
L 57.62857 94.6944 
L 57.62857 98.0208 
L 57.62857 101.3472 
L 57.62857 104.6736 
L 57.62857 108 
L 57.62857 111.3264 
L 57.62857 114.6528 
L 57.62857 117.9792 
L 57.62857 121.3056 
L 57.62857 124.205724 
L 57.721867 124.14028 
L 58.632922 123.498191 
L 60.183199 122.381414 
L 60.24116 122.340235 
L 60.324538 122.27988 
L 60.648122 122.045382 
L 61.650115 121.3056 
L 61.951131 121.080823 
L 62.948889 120.33132 
L 63.192246 120.146005 
L 63.333069 120.036512 
L 64.014852 119.515191 
L 64.836426 118.875802 
L 65.443968 118.408916 
L 65.991613 117.9792 
L 66.668322 117.438875 
L 66.910716 117.241998 
L 67.676507 116.629948 
L 68.906102 115.62708 
L 69.14942 115.425826 
L 70.079321 114.6528 
L 70.546716 114.259496 
L 70.731703 114.10095 
L 71.228657 113.67852 
L 72.082273 112.94253 
L 72.654486 112.439536 
L 73.017288 112.125393 
L 73.925313 111.3264 
L 74.254374 111.031623 
L 74.718499 110.60795 
L 75.621923 109.791695 
L 76.327091 109.144552 
L 76.405082 109.074012 
L 76.513291 108.97428 
L 77.496926 108.054347 
L 77.554807 108 
L 78.556794 107.046759 
L 78.578511 107.02572 
L 79.278168 106.347652 
L 80.077564 105.561432 
L 80.639916 105.013433 
L 80.982431 104.6736 
L 81.842964 103.803987 
L 82.25264 103.384035 
L 82.722997 102.908185 
L 83.292848 102.32148 
L 83.903362 101.683305 
L 84.223962 101.3472 
L 84.819876 100.710108 
L 85.137335 100.37292 
L 85.439593 100.045744 
L 85.865669 99.578279 
L 86.817751 98.541801 
L 87.288369 98.0208 
L 87.959227 97.264053 
L 88.325907 96.844979 
L 88.828115 96.277807 
L 89.358721 95.66868 
L 89.946249 94.983519 
L 90.193706 94.6944 
L 90.923562 93.828732 
L 91.013522 93.72012 
L 91.487897 93.147634 
L 92.330159 92.118516 
L 92.772014 91.582091 
L 92.94562 91.368 
L 93.956543 90.097217 
L 94.592219 89.288486 
L 94.704234 89.147502 
L 94.807225 89.01588 
L 95.181266 88.529997 
L 95.457212 88.172242 
L 95.558769 88.0416 
L 95.603402 87.983258 
L 95.625031 87.954484 
L 96.299376 87.06732 
L 96.609073 86.653136 
L 96.970431 86.162733 
L 97.408154 85.574662 
L 98.040659 84.7152 
L 98.486087 84.098026 
L 99.720471 82.36308 
L 99.769198 82.293431 
L 99.984098 81.98984 
L 100.402247 81.3888 
L 100.761161 80.867012 
L 100.942503 80.59873 
L 101.068524 80.41452 
L 102.154206 78.800258 
L 102.643702 78.0624 
L 103.182686 77.233656 
L 103.33993 76.984994 
L 103.33993 74.736 
L 103.33993 71.4096 
L 103.33993 68.0832 
L 103.33993 64.7568 
L 103.33993 61.4304 
L 103.33993 58.104 
L 103.33993 54.7776 
L 103.33993 51.4512 
L 103.33993 48.1248 
L 103.33993 44.7984 
L 103.33993 41.472 
L 101.816218 41.472 
L 100.292506 41.472 
L 98.768794 41.472 
L 97.245082 41.472 
L 95.72137 41.472 
L 94.197658 41.472 
L 92.673946 41.472 
L 91.150234 41.472 
L 89.626522 41.472 
L 88.10281 41.472 
L 86.579098 41.472 
L 85.055386 41.472 
L 83.531674 41.472 
L 82.007962 41.472 
L 80.48425 41.472 
L 78.960538 41.472 
" clip-path="url(#p6d2a58504b)" style="fill: #0080ff"/>
   </g>
   <g id="PathCollection_4">
    <path d="M 103.33993 76.984994 
L 103.182686 77.233656 
L 102.643702 78.0624 
L 102.154206 78.800258 
L 101.068524 80.41452 
L 100.942503 80.59873 
L 100.761161 80.867012 
L 100.402247 81.3888 
L 99.984098 81.98984 
L 99.769198 82.293431 
L 99.720471 82.36308 
L 98.486087 84.098026 
L 98.040659 84.7152 
L 97.408154 85.574662 
L 96.970431 86.162733 
L 96.609073 86.653136 
L 96.299376 87.06732 
L 95.625031 87.954484 
L 95.603402 87.983258 
L 95.558769 88.0416 
L 95.457212 88.172242 
L 95.181266 88.529997 
L 94.807225 89.01588 
L 94.704234 89.147502 
L 94.592219 89.288486 
L 93.956543 90.097217 
L 92.94562 91.368 
L 92.772014 91.582091 
L 92.330159 92.118516 
L 91.487897 93.147634 
L 91.013522 93.72012 
L 90.923562 93.828732 
L 90.193706 94.6944 
L 89.946249 94.983519 
L 89.358721 95.66868 
L 88.828115 96.277807 
L 88.325907 96.844979 
L 87.959227 97.264053 
L 87.288369 98.0208 
L 86.817751 98.541801 
L 85.865669 99.578279 
L 85.439593 100.045744 
L 85.137335 100.37292 
L 84.819876 100.710108 
L 84.223962 101.3472 
L 83.903362 101.683305 
L 83.292848 102.32148 
L 82.722997 102.908185 
L 82.25264 103.384035 
L 81.842964 103.803987 
L 80.982431 104.6736 
L 80.639916 105.013433 
L 80.077564 105.561432 
L 79.278168 106.347652 
L 78.578511 107.02572 
L 78.556794 107.046759 
L 77.554807 108 
L 77.496926 108.054347 
L 76.513291 108.97428 
L 76.405082 109.074012 
L 76.327091 109.144552 
L 75.621923 109.791695 
L 74.718499 110.60795 
L 74.254374 111.031623 
L 73.925313 111.3264 
L 73.017288 112.125393 
L 72.654486 112.439536 
L 72.082273 112.94253 
L 71.228657 113.67852 
L 70.731703 114.10095 
L 70.546716 114.259496 
L 70.079321 114.6528 
L 69.14942 115.425826 
L 68.906102 115.62708 
L 67.676507 116.629948 
L 66.910716 117.241998 
L 66.668322 117.438875 
L 65.991613 117.9792 
L 65.443968 118.408916 
L 64.836426 118.875802 
L 64.014852 119.515191 
L 63.333069 120.036512 
L 63.192246 120.146005 
L 62.948889 120.33132 
L 61.951131 121.080823 
L 61.650115 121.3056 
L 60.648122 122.045382 
L 60.324538 122.27988 
L 60.24116 122.340235 
L 60.183199 122.381414 
L 58.632922 123.498191 
L 57.721867 124.14028 
L 57.62857 124.205724 
L 57.62857 124.632 
L 57.62857 127.9584 
L 57.62857 131.2848 
L 57.62857 134.6112 
L 57.62857 137.9376 
L 57.62857 141.264 
L 57.62857 144.5904 
L 57.62857 147.9168 
L 57.62857 151.2432 
L 57.62857 154.5696 
L 57.62857 157.896 
L 57.62857 160.370366 
L 58.067683 160.210326 
L 58.097561 160.198549 
L 59.89196 159.510785 
L 60.408534 159.305633 
L 60.907054 159.113793 
L 61.805444 158.756709 
L 62.475356 158.49777 
L 63.70249 158.0063 
L 63.741475 157.99117 
L 63.978897 157.896 
L 65.047893 157.461048 
L 65.541583 157.253182 
L 66.568947 156.831924 
L 67.007968 156.646237 
L 67.609075 156.399539 
L 69.311154 155.67667 
L 69.390916 155.643678 
L 69.624827 155.54388 
L 69.968098 155.397266 
L 70.855782 155.00925 
L 71.51311 154.724349 
L 71.865759 154.5696 
L 73.557205 153.817073 
L 74.049618 153.59532 
L 75.222092 153.061037 
L 75.602132 152.882211 
L 76.174404 152.620316 
L 76.979775 152.240983 
L 77.734832 151.893774 
L 78.946241 151.31855 
L 78.972531 151.306408 
L 79.105512 151.2432 
L 80.234522 150.698023 
L 80.881613 150.375721 
L 81.762035 149.947059 
L 82.305501 149.675037 
L 82.720662 149.47269 
L 83.877544 148.89108 
L 84.345639 148.652841 
L 85.776265 147.9168 
L 86.285214 147.651051 
L 87.627827 146.94252 
L 87.650882 146.930201 
L 87.659792 146.925298 
L 88.463928 146.493654 
L 88.852822 146.279457 
L 90.093571 145.610011 
L 91.058481 145.073977 
L 91.224874 144.983788 
L 91.932202 144.5904 
L 92.521356 144.257283 
L 92.937369 144.015323 
L 93.97613 143.422849 
L 94.47447 143.131475 
L 94.933114 142.869568 
L 96.007807 142.23828 
L 96.484858 141.954396 
L 96.773019 141.784103 
L 97.634179 141.264 
L 98.311587 140.850564 
L 99.222097 140.28972 
L 99.707458 139.98679 
L 99.93087 139.843578 
L 100.577231 139.438231 
L 101.358527 138.93678 
L 102.068756 138.488914 
L 102.919993 137.9376 
L 103.293266 137.691662 
L 103.33993 137.659231 
L 103.33993 134.6112 
L 103.33993 131.2848 
L 103.33993 127.9584 
L 103.33993 124.632 
L 103.33993 121.3056 
L 103.33993 117.9792 
L 103.33993 114.6528 
L 103.33993 111.3264 
L 103.33993 108 
L 103.33993 104.6736 
L 103.33993 101.3472 
L 103.33993 98.0208 
L 103.33993 94.6944 
L 103.33993 91.368 
L 103.33993 88.0416 
L 103.33993 84.7152 
L 103.33993 81.3888 
L 103.33993 78.0624 
" clip-path="url(#p6d2a58504b)" style="fill: #00e4f8"/>
   </g>
   <g id="PathCollection_5">
    <path d="M 103.33993 137.659231 
L 103.293266 137.691662 
L 102.919993 137.9376 
L 102.068756 138.488914 
L 101.358527 138.93678 
L 100.577231 139.438231 
L 99.93087 139.843578 
L 99.707458 139.98679 
L 99.222097 140.28972 
L 98.311587 140.850564 
L 97.634179 141.264 
L 96.773019 141.784103 
L 96.484858 141.954396 
L 96.007807 142.23828 
L 94.933114 142.869568 
L 94.47447 143.131475 
L 93.97613 143.422849 
L 92.937369 144.015323 
L 92.521356 144.257283 
L 91.932202 144.5904 
L 91.224874 144.983788 
L 91.058481 145.073977 
L 90.093571 145.610011 
L 88.852822 146.279457 
L 88.463928 146.493654 
L 87.659792 146.925298 
L 87.650882 146.930201 
L 87.627827 146.94252 
L 86.285214 147.651051 
L 85.776265 147.9168 
L 84.345639 148.652841 
L 83.877544 148.89108 
L 82.720662 149.47269 
L 82.305501 149.675037 
L 81.762035 149.947059 
L 80.881613 150.375721 
L 80.234522 150.698023 
L 79.105512 151.2432 
L 78.972531 151.306408 
L 78.946241 151.31855 
L 77.734832 151.893774 
L 76.979775 152.240983 
L 76.174404 152.620316 
L 75.602132 152.882211 
L 75.222092 153.061037 
L 74.049618 153.59532 
L 73.557205 153.817073 
L 71.865759 154.5696 
L 71.51311 154.724349 
L 70.855782 155.00925 
L 69.968098 155.397266 
L 69.624827 155.54388 
L 69.390916 155.643678 
L 69.311154 155.67667 
L 67.609075 156.399539 
L 67.007968 156.646237 
L 66.568947 156.831924 
L 65.541583 157.253182 
L 65.047893 157.461048 
L 63.978897 157.896 
L 63.741475 157.99117 
L 63.70249 158.0063 
L 62.475356 158.49777 
L 61.805444 158.756709 
L 60.907054 159.113793 
L 60.408534 159.305633 
L 59.89196 159.510785 
L 58.097561 160.198549 
L 58.067683 160.210326 
L 57.62857 160.370366 
L 57.62857 161.2224 
L 57.62857 164.5488 
L 57.62857 167.8752 
L 57.62857 171.2016 
L 57.62857 174.528 
L 57.62857 177.8544 
L 57.62857 181.1808 
L 57.62857 184.5072 
L 57.62857 187.8336 
L 57.62857 189.950521 
L 57.86588 189.909268 
L 58.526423 189.793694 
L 59.895478 189.537536 
L 60.352865 189.456969 
L 61.023002 189.331114 
L 61.336635 189.27584 
L 63.225883 188.919762 
L 63.296 188.907321 
L 63.821613 188.80788 
L 64.263648 188.722928 
L 65.886719 188.411958 
L 66.269126 188.339038 
L 68.14544 187.968439 
L 68.391201 187.920995 
L 68.832308 187.8336 
L 70.620929 187.476999 
L 70.88691 187.422098 
L 72.064566 187.180188 
L 73.086253 186.970953 
L 73.371707 186.913334 
L 73.632608 186.85932 
L 75.306572 186.509466 
L 75.543174 186.456946 
L 76.254727 186.307656 
L 76.652579 186.21928 
L 78.083028 185.917918 
L 78.719912 185.775403 
L 79.182595 185.677543 
L 80.03566 185.486511 
L 80.853292 185.312853 
L 81.8999 185.076734 
L 82.107619 185.03244 
L 83.427592 184.734419 
L 83.61716 184.693825 
L 84.437563 184.5072 
L 85.029493 184.370733 
L 85.083785 184.357525 
L 86.374154 184.05979 
L 86.835685 183.947046 
L 87.947479 183.688541 
L 88.273309 183.608595 
L 89.124199 183.410584 
L 90.256656 183.13156 
L 90.862275 182.989529 
L 91.466569 182.839973 
L 91.867172 182.74594 
L 93.688018 182.293388 
L 93.773766 182.273102 
L 94.246486 182.15508 
L 94.510554 182.089112 
L 94.799257 182.014635 
L 96.239874 181.649666 
L 98.050179 181.1808 
L 98.607261 181.034732 
L 99.066347 180.911733 
L 100.505848 180.532745 
L 100.962334 180.408663 
L 101.709917 180.20652 
L 102.761945 179.919009 
L 102.958957 179.862296 
L 103.33993 179.752012 
L 103.33993 177.8544 
L 103.33993 174.528 
L 103.33993 171.2016 
L 103.33993 167.8752 
L 103.33993 164.5488 
L 103.33993 161.2224 
L 103.33993 157.896 
L 103.33993 154.5696 
L 103.33993 151.2432 
L 103.33993 147.9168 
L 103.33993 144.5904 
L 103.33993 141.264 
L 103.33993 137.9376 
" clip-path="url(#p6d2a58504b)" style="fill: #53ffa4"/>
   </g>
   <g id="PathCollection_6">
    <path d="M 103.33993 179.752012 
L 102.958957 179.862296 
L 102.761945 179.919009 
L 101.709917 180.20652 
L 100.962334 180.408663 
L 100.505848 180.532745 
L 99.066347 180.911733 
L 98.607261 181.034732 
L 98.050179 181.1808 
L 96.239874 181.649666 
L 94.799257 182.014635 
L 94.510554 182.089112 
L 94.246486 182.15508 
L 93.773766 182.273102 
L 93.688018 182.293388 
L 91.867172 182.74594 
L 91.466569 182.839973 
L 90.862275 182.989529 
L 90.256656 183.13156 
L 89.124199 183.410584 
L 88.273309 183.608595 
L 87.947479 183.688541 
L 86.835685 183.947046 
L 86.374154 184.05979 
L 85.083785 184.357525 
L 85.029493 184.370733 
L 84.437563 184.5072 
L 83.61716 184.693825 
L 83.427592 184.734419 
L 82.107619 185.03244 
L 81.8999 185.076734 
L 80.853292 185.312853 
L 80.03566 185.486511 
L 79.182595 185.677543 
L 78.719912 185.775403 
L 78.083028 185.917918 
L 76.652579 186.21928 
L 76.254727 186.307656 
L 75.543174 186.456946 
L 75.306572 186.509466 
L 73.632608 186.85932 
L 73.371707 186.913334 
L 73.086253 186.970953 
L 72.064566 187.180188 
L 70.88691 187.422098 
L 70.620929 187.476999 
L 68.832308 187.8336 
L 68.391201 187.920995 
L 68.14544 187.968439 
L 66.269126 188.339038 
L 65.886719 188.411958 
L 64.263648 188.722928 
L 63.821613 188.80788 
L 63.296 188.907321 
L 63.225883 188.919762 
L 61.336635 189.27584 
L 61.023002 189.331114 
L 60.352865 189.456969 
L 59.895478 189.537536 
L 58.526423 189.793694 
L 57.86588 189.909268 
L 57.62857 189.950521 
L 57.62857 191.16 
L 57.62857 194.4864 
L 57.62857 197.8128 
L 57.62857 201.1392 
L 57.62857 204.4656 
L 57.62857 207.792 
L 57.62857 211.1184 
L 57.62857 214.4448 
L 57.62857 215.692166 
L 58.02596 215.676777 
L 58.190067 215.6706 
L 60.157933 215.575773 
L 60.258717 215.571967 
L 61.10098 215.531332 
L 61.172464 215.52864 
L 63.273428 215.427167 
L 63.27863 215.42697 
L 63.441802 215.41908 
L 64.211399 215.381375 
L 66.176943 215.285598 
L 66.878518 215.251618 
L 67.435159 215.221921 
L 69.065859 215.142265 
L 69.647711 215.114016 
L 70.66193 215.059744 
L 71.952156 214.996563 
L 72.412357 214.974166 
L 73.891808 214.894757 
L 74.83575 214.848417 
L 75.172315 214.831997 
L 77.124894 214.726869 
L 77.716554 214.697749 
L 80.248076 214.561602 
L 80.361295 214.555983 
L 80.59448 214.544477 
L 80.677561 214.540404 
L 82.442076 214.4448 
L 83.42406 214.391579 
L 83.46981 214.388859 
L 83.602189 214.381035 
L 86.168062 214.241519 
L 86.342766 214.231093 
L 86.848615 214.201085 
L 87.102144 214.186123 
L 89.212579 214.070486 
L 90.098829 214.017709 
L 90.543347 213.991375 
L 92.079142 213.90694 
L 93.352964 213.830787 
L 94.3672 213.775083 
L 94.942344 213.740354 
L 96.611161 213.640193 
L 97.088665 213.613877 
L 97.802069 213.570624 
L 99.463243 213.47052 
L 99.835853 213.447887 
L 99.850721 213.446802 
L 100.724203 213.393636 
L 100.77573 213.389878 
L 102.800142 213.266394 
L 102.934241 213.256557 
L 103.33993 213.226828 
L 103.33993 211.1184 
L 103.33993 207.792 
L 103.33993 204.4656 
L 103.33993 201.1392 
L 103.33993 197.8128 
L 103.33993 194.4864 
L 103.33993 191.16 
L 103.33993 187.8336 
L 103.33993 184.5072 
L 103.33993 181.1808 
" clip-path="url(#p6d2a58504b)" style="fill: #a4ff53"/>
   </g>
   <g id="PathCollection_7">
    <path d="M 103.33993 213.226828 
L 102.934241 213.256557 
L 102.800142 213.266394 
L 100.77573 213.389878 
L 100.724203 213.393636 
L 99.850721 213.446802 
L 99.835853 213.447887 
L 99.463243 213.47052 
L 97.802069 213.570624 
L 97.088665 213.613877 
L 96.611161 213.640193 
L 94.942344 213.740354 
L 94.3672 213.775083 
L 93.352964 213.830787 
L 92.079142 213.90694 
L 90.543347 213.991375 
L 90.098829 214.017709 
L 89.212579 214.070486 
L 87.102144 214.186123 
L 86.848615 214.201085 
L 86.342766 214.231093 
L 86.168062 214.241519 
L 83.602189 214.381035 
L 83.46981 214.388859 
L 83.42406 214.391579 
L 82.442076 214.4448 
L 80.677561 214.540404 
L 80.59448 214.544477 
L 80.361295 214.555983 
L 80.248076 214.561602 
L 77.716554 214.697749 
L 77.124894 214.726869 
L 75.172315 214.831997 
L 74.83575 214.848417 
L 73.891808 214.894757 
L 72.412357 214.974166 
L 71.952156 214.996563 
L 70.66193 215.059744 
L 69.647711 215.114016 
L 69.065859 215.142265 
L 67.435159 215.221921 
L 66.878518 215.251618 
L 66.176943 215.285598 
L 64.211399 215.381375 
L 63.441802 215.41908 
L 63.27863 215.42697 
L 63.273428 215.427167 
L 61.172464 215.52864 
L 61.10098 215.531332 
L 60.258717 215.571967 
L 60.157933 215.575773 
L 58.190067 215.6706 
L 58.02596 215.676777 
L 57.62857 215.692166 
L 57.62857 217.7712 
L 57.62857 221.0976 
L 57.62857 224.424 
L 57.62857 227.7504 
L 57.62857 231.0768 
L 57.62857 234.4032 
L 57.62857 237.7296 
L 57.62857 239.199406 
L 57.910661 239.216349 
L 58.459697 239.241574 
L 59.880938 239.320323 
L 60.369869 239.343011 
L 60.988669 239.37754 
L 61.435298 239.39837 
L 63.004505 239.48655 
L 63.386643 239.504552 
L 64.067503 239.543084 
L 64.409027 239.559254 
L 66.130169 239.657355 
L 66.402602 239.670385 
L 67.147191 239.713128 
L 67.380822 239.724359 
L 69.258002 239.832895 
L 69.41772 239.840651 
L 70.227761 239.887825 
L 70.350621 239.893821 
L 72.38808 240.013336 
L 72.431969 240.0155 
L 73.309245 240.067334 
L 73.318358 240.067785 
L 73.552488 240.08172 
L 75.349066 240.188209 
L 76.05891 240.230329 
L 76.559035 240.262245 
L 78.20514 240.36124 
L 79.210563 240.426087 
L 79.829369 240.463814 
L 81.056327 240.53869 
L 81.478147 240.564459 
L 83.106351 240.671395 
L 83.902471 240.720701 
L 84.175432 240.737624 
L 86.390239 240.885221 
L 86.743406 240.907422 
L 88.948783 241.056 
L 89.545461 241.096089 
L 89.579482 241.098536 
L 89.681696 241.105893 
L 92.222739 241.279148 
L 92.411907 241.292952 
L 92.982028 241.334588 
L 93.281506 241.356475 
L 95.238719 241.492444 
L 96.2902 241.570374 
L 97.549813 241.658858 
L 98.059727 241.697185 
L 99.606536 241.813541 
L 100.42514 241.875161 
L 100.874732 241.907353 
L 102.484541 242.03028 
L 102.879886 242.060317 
L 102.89967 242.062034 
L 103.33993 242.092321 
L 103.33993 241.056 
L 103.33993 237.7296 
L 103.33993 234.4032 
L 103.33993 231.0768 
L 103.33993 227.7504 
L 103.33993 224.424 
L 103.33993 221.0976 
L 103.33993 217.7712 
L 103.33993 214.4448 
" clip-path="url(#p6d2a58504b)" style="fill: #f8f500"/>
   </g>
   <g id="PathCollection_8">
    <path d="M 103.33993 242.092321 
L 102.89967 242.062034 
L 102.879886 242.060317 
L 102.484541 242.03028 
L 100.874732 241.907353 
L 100.42514 241.875161 
L 99.606536 241.813541 
L 98.059727 241.697185 
L 97.549813 241.658858 
L 96.2902 241.570374 
L 95.238719 241.492444 
L 93.281506 241.356475 
L 92.982028 241.334588 
L 92.411907 241.292952 
L 92.222739 241.279148 
L 89.681696 241.105893 
L 89.579482 241.098536 
L 89.545461 241.096089 
L 88.948783 241.056 
L 86.743406 240.907422 
L 86.390239 240.885221 
L 84.175432 240.737624 
L 83.902471 240.720701 
L 83.106351 240.671395 
L 81.478147 240.564459 
L 81.056327 240.53869 
L 79.829369 240.463814 
L 79.210563 240.426087 
L 78.20514 240.36124 
L 76.559035 240.262245 
L 76.05891 240.230329 
L 75.349066 240.188209 
L 73.552488 240.08172 
L 73.318358 240.067785 
L 73.309245 240.067334 
L 72.431969 240.0155 
L 72.38808 240.013336 
L 70.350621 239.893821 
L 70.227761 239.887825 
L 69.41772 239.840651 
L 69.258002 239.832895 
L 67.380822 239.724359 
L 67.147191 239.713128 
L 66.402602 239.670385 
L 66.130169 239.657355 
L 64.409027 239.559254 
L 64.067503 239.543084 
L 63.386643 239.504552 
L 63.004505 239.48655 
L 61.435298 239.39837 
L 60.988669 239.37754 
L 60.369869 239.343011 
L 59.880938 239.320323 
L 58.459697 239.241574 
L 57.910661 239.216349 
L 57.62857 239.199406 
L 57.62857 241.056 
L 57.62857 244.3824 
L 57.62857 247.7088 
L 57.62857 251.0352 
L 57.62857 254.3616 
L 57.62857 257.688 
L 57.62857 261.0144 
L 57.62857 261.660349 
L 57.943172 261.701206 
L 58.33711 261.751532 
L 60.143114 261.98868 
L 60.224794 261.99941 
L 60.231933 262.000404 
L 61.098348 262.114803 
L 61.185634 262.126991 
L 63.097546 262.380733 
L 63.358483 262.417431 
L 64.070334 262.512396 
L 64.433041 262.563572 
L 65.966993 262.769273 
L 66.486679 262.843135 
L 67.040831 262.917836 
L 67.684804 263.009661 
L 68.833029 263.165259 
L 69.616577 263.277813 
L 70.00979 263.331381 
L 70.941078 263.465599 
L 71.695546 263.568929 
L 72.748238 263.72178 
L 72.97716 263.753301 
L 74.202028 263.931747 
L 74.554428 263.980532 
L 75.881724 264.175365 
L 75.942888 264.183878 
L 77.008305 264.3408 
L 77.409755 264.399898 
L 77.468047 264.408959 
L 78.90711 264.622387 
L 79.017231 264.639598 
L 80.262499 264.8249 
L 80.740402 264.900003 
L 81.869733 265.069324 
L 82.154735 265.11436 
L 83.111407 265.258279 
L 84.017923 265.402326 
L 84.8306 265.525519 
L 85.294227 265.599603 
L 85.956349 265.700316 
L 87.300811 265.916365 
L 87.789649 265.991297 
L 88.435783 266.095717 
L 88.797189 266.151307 
L 90.589276 266.442579 
L 90.746814 266.467002 
L 91.579479 266.603114 
L 91.633786 266.611562 
L 92.128619 266.69292 
L 93.501961 266.918455 
L 94.016845 267.003057 
L 95.209564 267.204392 
L 96.074319 267.34804 
L 96.293164 267.384414 
L 97.949063 267.6672 
L 98.638667 267.784869 
L 98.961273 267.841252 
L 99.207934 267.884381 
L 101.196425 268.227657 
L 102.737365 268.500162 
L 102.942055 268.535796 
L 103.33993 268.605662 
L 103.33993 267.6672 
L 103.33993 264.3408 
L 103.33993 261.0144 
L 103.33993 257.688 
L 103.33993 254.3616 
L 103.33993 251.0352 
L 103.33993 247.7088 
L 103.33993 244.3824 
" clip-path="url(#p6d2a58504b)" style="fill: #ff9400"/>
   </g>
   <g id="PathCollection_9">
    <path d="M 103.33993 268.605662 
L 102.942055 268.535796 
L 102.737365 268.500162 
L 101.196425 268.227657 
L 99.207934 267.884381 
L 98.961273 267.841252 
L 98.638667 267.784869 
L 97.949063 267.6672 
L 96.293164 267.384414 
L 96.074319 267.34804 
L 95.209564 267.204392 
L 94.016845 267.003057 
L 93.501961 266.918455 
L 92.128619 266.69292 
L 91.633786 266.611562 
L 91.579479 266.603114 
L 90.746814 266.467002 
L 90.589276 266.442579 
L 88.797189 266.151307 
L 88.435783 266.095717 
L 87.789649 265.991297 
L 87.300811 265.916365 
L 85.956349 265.700316 
L 85.294227 265.599603 
L 84.8306 265.525519 
L 84.017923 265.402326 
L 83.111407 265.258279 
L 82.154735 265.11436 
L 81.869733 265.069324 
L 80.740402 264.900003 
L 80.262499 264.8249 
L 79.017231 264.639598 
L 78.90711 264.622387 
L 77.468047 264.408959 
L 77.409755 264.399898 
L 77.008305 264.3408 
L 75.942888 264.183878 
L 75.881724 264.175365 
L 74.554428 263.980532 
L 74.202028 263.931747 
L 72.97716 263.753301 
L 72.748238 263.72178 
L 71.695546 263.568929 
L 70.941078 263.465599 
L 70.00979 263.331381 
L 69.616577 263.277813 
L 68.833029 263.165259 
L 67.684804 263.009661 
L 67.040831 262.917836 
L 66.486679 262.843135 
L 65.966993 262.769273 
L 64.433041 262.563572 
L 64.070334 262.512396 
L 63.358483 262.417431 
L 63.097546 262.380733 
L 61.185634 262.126991 
L 61.098348 262.114803 
L 60.231933 262.000404 
L 60.224794 261.99941 
L 60.143114 261.98868 
L 58.33711 261.751532 
L 57.943172 261.701206 
L 57.62857 261.660349 
L 57.62857 264.3408 
L 57.62857 267.6672 
L 57.62857 270.9936 
L 57.62857 274.32 
L 57.62857 277.6464 
L 57.62857 280.9728 
L 57.62857 284.274205 
L 57.633154 284.275041 
L 57.756425 284.2992 
L 59.036448 284.552076 
L 59.291853 284.603897 
L 60.57 284.857832 
L 60.790514 284.902775 
L 61.828474 285.109632 
L 62.647779 285.277385 
L 63.505211 285.449247 
L 63.959347 285.542656 
L 64.616975 285.674884 
L 66.009054 285.962549 
L 66.438753 286.049453 
L 67.130164 286.19299 
L 67.401825 286.248106 
L 69.33493 286.65132 
L 69.365008 286.657625 
L 69.39959 286.664974 
L 70.548072 286.907698 
L 71.834822 287.179938 
L 72.120628 287.240511 
L 73.912476 287.6256 
L 74.297631 287.708585 
L 74.539611 287.761429 
L 74.76265 287.810194 
L 76.753804 288.243233 
L 78.371447 288.59988 
L 78.501095 288.628604 
L 78.520541 288.63302 
L 79.364874 288.820969 
L 79.524789 288.857412 
L 81.265399 289.24668 
L 81.703457 289.347127 
L 82.287562 289.478382 
L 82.923716 289.624775 
L 84.025667 289.873569 
L 84.888687 290.073423 
L 85.208325 290.145941 
L 86.329199 290.406449 
L 86.78174 290.509613 
L 88.076328 290.812429 
L 88.127085 290.824057 
L 88.672065 290.952 
L 89.533322 291.155464 
L 89.742956 291.206186 
L 91.043353 291.515307 
L 91.267454 291.569802 
L 92.280273 291.811423 
L 93.166889 292.028139 
L 93.957462 292.217938 
L 94.461341 292.341729 
L 95.022812 292.477014 
L 96.598141 292.86607 
L 96.869428 292.931859 
L 97.657872 293.127588 
L 97.760759 293.15263 
L 98.367755 293.30412 
L 99.525515 293.594123 
L 99.941318 293.698517 
L 101.657625 294.13499 
L 101.905448 294.197712 
L 102.2204 294.2784 
L 103.222129 294.53557 
L 103.33993 294.56696 
L 103.33993 294.2784 
L 103.33993 290.952 
L 103.33993 287.6256 
L 103.33993 284.2992 
L 103.33993 280.9728 
L 103.33993 277.6464 
L 103.33993 274.32 
L 103.33993 270.9936 
" clip-path="url(#p6d2a58504b)" style="fill: #ff3800"/>
   </g>
   <g id="PathCollection_10">
    <path d="M 103.33993 294.56696 
L 103.222129 294.53557 
L 102.2204 294.2784 
L 101.905448 294.197712 
L 101.657625 294.13499 
L 99.941318 293.698517 
L 99.525515 293.594123 
L 98.367755 293.30412 
L 97.760759 293.15263 
L 97.657872 293.127588 
L 96.869428 292.931859 
L 96.598141 292.86607 
L 95.022812 292.477014 
L 94.461341 292.341729 
L 93.957462 292.217938 
L 93.166889 292.028139 
L 92.280273 291.811423 
L 91.267454 291.569802 
L 91.043353 291.515307 
L 89.742956 291.206186 
L 89.533322 291.155464 
L 88.672065 290.952 
L 88.127085 290.824057 
L 88.076328 290.812429 
L 86.78174 290.509613 
L 86.329199 290.406449 
L 85.208325 290.145941 
L 84.888687 290.073423 
L 84.025667 289.873569 
L 82.923716 289.624775 
L 82.287562 289.478382 
L 81.703457 289.347127 
L 81.265399 289.24668 
L 79.524789 288.857412 
L 79.364874 288.820969 
L 78.520541 288.63302 
L 78.501095 288.628604 
L 78.371447 288.59988 
L 76.753804 288.243233 
L 74.76265 287.810194 
L 74.539611 287.761429 
L 74.297631 287.708585 
L 73.912476 287.6256 
L 72.120628 287.240511 
L 71.834822 287.179938 
L 70.548072 286.907698 
L 69.39959 286.664974 
L 69.365008 286.657625 
L 69.33493 286.65132 
L 67.401825 286.248106 
L 67.130164 286.19299 
L 66.438753 286.049453 
L 66.009054 285.962549 
L 64.616975 285.674884 
L 63.959347 285.542656 
L 63.505211 285.449247 
L 62.647779 285.277385 
L 61.828474 285.109632 
L 60.790514 284.902775 
L 60.57 284.857832 
L 59.291853 284.603897 
L 59.036448 284.552076 
L 57.756425 284.2992 
L 57.633154 284.275041 
L 57.62857 284.274205 
L 57.62857 284.2992 
L 57.62857 287.6256 
L 57.62857 290.952 
L 57.62857 294.2784 
L 57.62857 297.6048 
L 57.62857 300.9312 
L 57.62857 304.2576 
L 57.62857 307.584 
L 59.152282 307.584 
L 60.675994 307.584 
L 62.199706 307.584 
L 63.723418 307.584 
L 65.24713 307.584 
L 66.770842 307.584 
L 68.294554 307.584 
L 69.818266 307.584 
L 71.341978 307.584 
L 72.86569 307.584 
L 74.389402 307.584 
L 75.913114 307.584 
L 77.436826 307.584 
L 78.960538 307.584 
L 80.48425 307.584 
L 82.007962 307.584 
L 83.531674 307.584 
L 85.055386 307.584 
L 86.579098 307.584 
L 88.10281 307.584 
L 89.626522 307.584 
L 91.150234 307.584 
L 92.673946 307.584 
L 94.197658 307.584 
L 95.72137 307.584 
L 97.245082 307.584 
L 98.768794 307.584 
L 100.292506 307.584 
L 101.816218 307.584 
L 103.33993 307.584 
L 103.33993 304.2576 
L 103.33993 300.9312 
L 103.33993 297.6048 
" clip-path="url(#p6d2a58504b)" style="fill: #b60000"/>
   </g>
   <g id="PathCollection_11">
    <path clip-path="url(#p6d2a58504b)" style="fill: #0000b6"/>
   </g>
   <g id="PathCollection_12">
    <path clip-path="url(#p6d2a58504b)" style="fill: #0018ff"/>
   </g>
   <g id="PathCollection_13">
    <path d="M 100.4544 81.229804 
L 102.15034 78.812055 
L 103.38944 76.9536 
L 104.547057 75.13704 
L 105.04793 74.35552 
L 108.676688 68.222993 
L 108.75674 68.0832 
L 109.054165 67.529759 
L 112.203427 61.81088 
L 112.588498 61.046297 
L 113.591493 59.2128 
L 114.742568 56.731302 
L 114.792008 56.61472 
L 117.128823 51.625449 
L 117.721331 50.3424 
L 119.973976 45.121248 
L 120.418706 44.07008 
L 120.710602 43.300313 
L 121.471545 41.472 
L 116.64384 41.472 
L 108.54912 41.472 
L 100.4544 41.472 
L 100.4544 50.3424 
L 100.4544 59.2128 
L 100.4544 68.0832 
L 100.4544 76.9536 
" clip-path="url(#p6d2a58504b)" style="fill: #0080ff"/>
   </g>
   <g id="PathCollection_14">
    <path d="M 121.471545 41.472 
L 120.710602 43.300313 
L 120.418706 44.07008 
L 119.973976 45.121248 
L 117.721331 50.3424 
L 117.128823 51.625449 
L 114.792008 56.61472 
L 114.742568 56.731302 
L 113.591493 59.2128 
L 112.588498 61.046297 
L 112.203427 61.81088 
L 109.054165 67.529759 
L 108.75674 68.0832 
L 108.676688 68.222993 
L 105.04793 74.35552 
L 104.547057 75.13704 
L 103.38944 76.9536 
L 102.15034 78.812055 
L 100.4544 81.229804 
L 100.4544 85.824 
L 100.4544 94.6944 
L 100.4544 103.5648 
L 100.4544 112.4352 
L 100.4544 121.3056 
L 100.4544 130.176 
L 100.4544 139.0464 
L 100.4544 139.504919 
L 100.597807 139.425791 
L 101.20742 139.0464 
L 105.807125 136.041652 
L 110.446964 132.77408 
L 111.900537 131.697227 
L 113.957736 130.176 
L 116.527981 128.137729 
L 117.17112 127.57792 
L 118.574603 126.413542 
L 124.438303 121.3056 
L 124.601632 121.15555 
L 127.11275 118.703902 
L 130.578792 115.341225 
L 130.882427 115.03328 
L 131.008887 114.897613 
L 133.43506 112.4352 
L 134.799503 110.913805 
L 135.54974 109.993977 
L 135.689424 109.83712 
L 140.791947 103.71389 
L 140.916763 103.5648 
L 140.921977 103.5582 
L 145.634305 97.29248 
L 145.879196 96.941776 
L 146.539153 96.087365 
L 147.524442 94.6944 
L 148.726589 92.758406 
L 149.167073 92.09632 
L 150.563182 89.89938 
L 153.082422 85.824 
L 154.65075 83.120939 
L 156.643351 79.55168 
L 157.807351 77.266755 
L 157.879477 77.142775 
L 157.98009 76.9536 
L 158.087426 76.712802 
L 158.210807 76.457314 
L 159.320263 74.35552 
L 160.534503 71.827705 
L 162.27635 68.0832 
L 163.84573 64.468231 
L 164.979948 61.81088 
L 165.229224 61.218072 
L 166.136472 59.2128 
L 166.996615 56.760302 
L 167.052206 56.61472 
L 167.317416 55.911973 
L 169.393914 50.3424 
L 170.469742 47.233392 
L 171.546391 44.07008 
L 172.164642 41.990468 
L 172.339317 41.472 
L 165.21216 41.472 
L 157.11744 41.472 
L 149.02272 41.472 
L 140.928 41.472 
L 132.83328 41.472 
L 124.73856 41.472 
" clip-path="url(#p6d2a58504b)" style="fill: #00e4f8"/>
   </g>
   <g id="PathCollection_15">
    <path d="M 172.339317 41.472 
L 172.164642 41.990468 
L 171.546391 44.07008 
L 170.469742 47.233392 
L 169.393914 50.3424 
L 167.317416 55.911973 
L 167.052206 56.61472 
L 166.996615 56.760302 
L 166.136472 59.2128 
L 165.229224 61.218072 
L 164.979948 61.81088 
L 163.84573 64.468231 
L 162.27635 68.0832 
L 160.534503 71.827705 
L 159.320263 74.35552 
L 158.210807 76.457314 
L 158.087426 76.712802 
L 157.98009 76.9536 
L 157.879477 77.142775 
L 157.807351 77.266755 
L 156.643351 79.55168 
L 154.65075 83.120939 
L 153.082422 85.824 
L 150.563182 89.89938 
L 149.167073 92.09632 
L 148.726589 92.758406 
L 147.524442 94.6944 
L 146.539153 96.087365 
L 145.879196 96.941776 
L 145.634305 97.29248 
L 140.921977 103.5582 
L 140.916763 103.5648 
L 140.791947 103.71389 
L 135.689424 109.83712 
L 135.54974 109.993977 
L 134.799503 110.913805 
L 133.43506 112.4352 
L 131.008887 114.897613 
L 130.882427 115.03328 
L 130.578792 115.341225 
L 127.11275 118.703902 
L 124.601632 121.15555 
L 124.438303 121.3056 
L 118.574603 126.413542 
L 117.17112 127.57792 
L 116.527981 128.137729 
L 113.957736 130.176 
L 111.900537 131.697227 
L 110.446964 132.77408 
L 105.807125 136.041652 
L 101.20742 139.0464 
L 100.597807 139.425791 
L 100.4544 139.504919 
L 100.4544 147.9168 
L 100.4544 156.7872 
L 100.4544 165.6576 
L 100.4544 174.528 
L 100.4544 180.492438 
L 102.516281 179.982823 
L 103.982607 179.532101 
L 111.265291 177.504449 
L 116.107454 175.947038 
L 117.075778 175.670717 
L 120.605295 174.528 
L 123.764736 173.460859 
L 126.763241 172.309303 
L 131.375752 170.672026 
L 134.804382 169.313339 
L 135.833295 168.945093 
L 137.525102 168.25568 
L 142.241022 166.253588 
L 142.653507 166.085956 
L 143.597297 165.6576 
L 146.499737 164.27442 
L 149.137156 163.05952 
L 151.037785 162.118169 
L 153.435862 160.821567 
L 158.447111 158.244287 
L 160.987075 156.7872 
L 164.427712 154.711898 
L 166.510211 153.353132 
L 168.862469 151.916901 
L 170.939741 150.51488 
L 174.091703 148.273036 
L 174.267654 148.155311 
L 174.586858 147.9168 
L 176.406078 146.510056 
L 178.00145 145.31872 
L 178.599952 144.846683 
L 179.502541 144.070468 
L 182.403908 141.698064 
L 185.443547 139.0464 
L 187.644128 137.016721 
L 191.888221 132.77408 
L 192.882895 131.713186 
L 194.343856 130.176 
L 196.335578 127.854824 
L 196.545821 127.57792 
L 198.889347 124.740345 
L 201.590571 121.3056 
L 203.423983 118.827087 
L 206.051007 115.03328 
L 207.254535 113.147276 
L 207.729974 112.4352 
L 208.052128 111.847751 
L 208.455635 111.177938 
L 209.320349 109.83712 
L 210.142828 108.448969 
L 212.873582 103.5648 
L 213.39993 102.558034 
L 216.062213 97.29248 
L 216.07319 97.273072 
L 217.379341 94.6944 
L 218.095789 92.978904 
L 218.500363 92.09632 
L 220.42536 87.412772 
L 221.111327 85.824 
L 221.344702 85.242666 
L 223.539848 79.55168 
L 224.082465 77.95549 
L 224.252799 77.543837 
L 224.470353 76.9536 
L 224.874767 75.592079 
L 225.331196 74.35552 
L 225.925801 72.521951 
L 227.32011 68.0832 
L 228.469421 64.113544 
L 229.126335 61.81088 
L 229.244319 61.402438 
L 229.944574 59.2128 
L 230.382287 57.305661 
L 230.517726 56.61472 
L 231.243821 53.712576 
L 232.079695 50.3424 
L 233.270285 45.088624 
L 233.498831 44.07008 
L 233.603526 43.496925 
L 234.061273 41.472 
L 229.96992 41.472 
L 221.8752 41.472 
L 213.78048 41.472 
L 205.68576 41.472 
L 197.59104 41.472 
L 189.49632 41.472 
L 181.4016 41.472 
L 173.30688 41.472 
" clip-path="url(#p6d2a58504b)" style="fill: #53ffa4"/>
   </g>
   <g id="PathCollection_16">
    <path d="M 234.061273 41.472 
L 233.603526 43.496925 
L 233.498831 44.07008 
L 233.270285 45.088624 
L 232.079695 50.3424 
L 231.243821 53.712576 
L 230.517726 56.61472 
L 230.382287 57.305661 
L 229.944574 59.2128 
L 229.244319 61.402438 
L 229.126335 61.81088 
L 228.469421 64.113544 
L 227.32011 68.0832 
L 225.925801 72.521951 
L 225.331196 74.35552 
L 224.874767 75.592079 
L 224.470353 76.9536 
L 224.252799 77.543837 
L 224.082465 77.95549 
L 223.539848 79.55168 
L 221.344702 85.242666 
L 221.111327 85.824 
L 220.42536 87.412772 
L 218.500363 92.09632 
L 218.095789 92.978904 
L 217.379341 94.6944 
L 216.07319 97.273072 
L 216.062213 97.29248 
L 213.39993 102.558034 
L 212.873582 103.5648 
L 210.142828 108.448969 
L 209.320349 109.83712 
L 208.455635 111.177938 
L 208.052128 111.847751 
L 207.729974 112.4352 
L 207.254535 113.147276 
L 206.051007 115.03328 
L 203.423983 118.827087 
L 201.590571 121.3056 
L 198.889347 124.740345 
L 196.545821 127.57792 
L 196.335578 127.854824 
L 194.343856 130.176 
L 192.882895 131.713186 
L 191.888221 132.77408 
L 187.644128 137.016721 
L 185.443547 139.0464 
L 182.403908 141.698064 
L 179.502541 144.070468 
L 178.599952 144.846683 
L 178.00145 145.31872 
L 176.406078 146.510056 
L 174.586858 147.9168 
L 174.267654 148.155311 
L 174.091703 148.273036 
L 170.939741 150.51488 
L 168.862469 151.916901 
L 166.510211 153.353132 
L 164.427712 154.711898 
L 160.987075 156.7872 
L 158.447111 158.244287 
L 153.435862 160.821567 
L 151.037785 162.118169 
L 149.137156 163.05952 
L 146.499737 164.27442 
L 143.597297 165.6576 
L 142.653507 166.085956 
L 142.241022 166.253588 
L 137.525102 168.25568 
L 135.833295 168.945093 
L 134.804382 169.313339 
L 131.375752 170.672026 
L 126.763241 172.309303 
L 123.764736 173.460859 
L 120.605295 174.528 
L 117.075778 175.670717 
L 116.107454 175.947038 
L 111.265291 177.504449 
L 103.982607 179.532101 
L 102.516281 179.982823 
L 100.4544 180.492438 
L 100.4544 183.3984 
L 100.4544 192.2688 
L 100.4544 201.1392 
L 100.4544 210.0096 
L 100.4544 213.367105 
L 101.709365 213.329682 
L 105.812248 213.008734 
L 111.063092 212.764475 
L 115.745587 212.385979 
L 117.510873 212.303386 
L 123.053245 211.856411 
L 126.284927 211.704148 
L 132.385421 211.194437 
L 133.26537 211.152719 
L 140.430189 210.555113 
L 141.384221 210.509538 
L 147.151773 210.0096 
L 148.961211 209.846874 
L 149.090546 209.830162 
L 156.357532 209.176873 
L 158.08626 208.947942 
L 164.580331 208.338059 
L 165.912559 208.156654 
L 171.165504 207.663026 
L 176.07542 206.975763 
L 180.104635 206.578407 
L 182.848365 206.182101 
L 185.742555 205.896129 
L 194.431914 204.601051 
L 195.504375 204.489209 
L 199.936514 203.804517 
L 200.01572 203.796226 
L 200.383747 203.73728 
L 208.455036 202.39619 
L 209.851267 202.173284 
L 215.066037 201.1392 
L 218.864134 200.391705 
L 219.753618 200.176202 
L 226.791027 198.54112 
L 227.452894 198.380978 
L 227.687428 198.307261 
L 231.851972 197.247875 
L 234.212908 196.489626 
L 240.394645 194.822079 
L 245.935494 192.861051 
L 246.339487 192.745335 
L 247.649022 192.2688 
L 252.540423 190.390931 
L 258.671711 187.427847 
L 260.259702 186.741972 
L 261.678805 185.99648 
L 262.714099 185.498594 
L 266.28562 183.3984 
L 268.027178 182.301608 
L 270.231102 180.80032 
L 273.80869 178.215639 
L 278.011828 174.528 
L 278.401007 174.164941 
L 278.859201 173.67888 
L 282.544607 170.047879 
L 284.05588 168.25568 
L 285.782569 166.043598 
L 286.119452 165.6576 
L 286.253298 165.485269 
L 288.064421 163.05952 
L 289.909731 160.377969 
L 292.001893 156.7872 
L 293.609147 153.828057 
L 295.236795 150.51488 
L 295.576576 149.715571 
L 296.516129 147.9168 
L 297.125248 146.502486 
L 297.449662 145.478083 
L 297.511682 145.31872 
L 297.760441 144.593424 
L 299.882302 139.0464 
L 300.703293 136.724228 
L 301.916892 132.77408 
L 302.570346 130.290409 
L 302.611048 130.176 
L 302.633821 130.090403 
L 303.365268 127.57792 
L 304.472282 123.113582 
L 304.862885 121.3056 
L 305.420798 118.45821 
L 306.220146 115.03328 
L 306.406002 114.061818 
L 306.588902 113.370232 
L 306.776379 112.4352 
L 306.887913 111.425939 
L 307.037986 110.521721 
L 307.193278 109.83712 
L 307.421695 108.604825 
L 308.259848 103.5648 
L 309.01043 98.520544 
L 309.183915 97.29248 
L 309.207225 97.128389 
L 309.662896 94.6944 
L 309.878134 92.426964 
L 309.8945 92.09632 
L 310.526322 86.857879 
L 310.661755 85.824 
L 310.721445 85.306331 
L 311.363209 79.55168 
L 311.44558 79.094298 
L 311.74795 76.9536 
L 311.856386 74.710919 
L 311.885901 74.35552 
L 312.167243 71.390472 
L 312.474621 68.0832 
L 312.886987 62.871804 
L 312.981796 61.81088 
L 312.993071 61.737662 
L 313.303378 59.2128 
L 313.37645 56.654864 
L 313.379931 56.61472 
L 313.385023 56.508409 
L 313.851324 50.3424 
L 314.182824 45.050642 
L 314.24576 44.07008 
L 314.256844 43.63032 
L 314.4159 41.472 
L 310.91712 41.472 
L 302.8224 41.472 
L 294.72768 41.472 
L 286.63296 41.472 
L 278.53824 41.472 
L 270.44352 41.472 
L 262.3488 41.472 
L 254.25408 41.472 
L 246.15936 41.472 
L 238.06464 41.472 
" clip-path="url(#p6d2a58504b)" style="fill: #a4ff53"/>
   </g>
   <g id="PathCollection_17">
    <path d="M 314.4159 41.472 
L 314.256844 43.63032 
L 314.24576 44.07008 
L 314.182824 45.050642 
L 313.851324 50.3424 
L 313.385023 56.508409 
L 313.379931 56.61472 
L 313.37645 56.654864 
L 313.303378 59.2128 
L 312.993071 61.737662 
L 312.981796 61.81088 
L 312.886987 62.871804 
L 312.474621 68.0832 
L 312.167243 71.390472 
L 311.885901 74.35552 
L 311.856386 74.710919 
L 311.74795 76.9536 
L 311.44558 79.094298 
L 311.363209 79.55168 
L 310.721445 85.306331 
L 310.661755 85.824 
L 310.526322 86.857879 
L 309.8945 92.09632 
L 309.878134 92.426964 
L 309.662896 94.6944 
L 309.207225 97.128389 
L 309.183915 97.29248 
L 309.01043 98.520544 
L 308.259848 103.5648 
L 307.421695 108.604825 
L 307.193278 109.83712 
L 307.037986 110.521721 
L 306.887913 111.425939 
L 306.776379 112.4352 
L 306.588902 113.370232 
L 306.406002 114.061818 
L 306.220146 115.03328 
L 305.420798 118.45821 
L 304.862885 121.3056 
L 304.472282 123.113582 
L 303.365268 127.57792 
L 302.633821 130.090403 
L 302.611048 130.176 
L 302.570346 130.290409 
L 301.916892 132.77408 
L 300.703293 136.724228 
L 299.882302 139.0464 
L 297.760441 144.593424 
L 297.511682 145.31872 
L 297.449662 145.478083 
L 297.125248 146.502486 
L 296.516129 147.9168 
L 295.576576 149.715571 
L 295.236795 150.51488 
L 293.609147 153.828057 
L 292.001893 156.7872 
L 289.909731 160.377969 
L 288.064421 163.05952 
L 286.253298 165.485269 
L 286.119452 165.6576 
L 285.782569 166.043598 
L 284.05588 168.25568 
L 282.544607 170.047879 
L 278.859201 173.67888 
L 278.401007 174.164941 
L 278.011828 174.528 
L 273.80869 178.215639 
L 270.231102 180.80032 
L 268.027178 182.301608 
L 266.28562 183.3984 
L 262.714099 185.498594 
L 261.678805 185.99648 
L 260.259702 186.741972 
L 258.671711 187.427847 
L 252.540423 190.390931 
L 247.649022 192.2688 
L 246.339487 192.745335 
L 245.935494 192.861051 
L 240.394645 194.822079 
L 234.212908 196.489626 
L 231.851972 197.247875 
L 227.687428 198.307261 
L 227.452894 198.380978 
L 226.791027 198.54112 
L 219.753618 200.176202 
L 218.864134 200.391705 
L 215.066037 201.1392 
L 209.851267 202.173284 
L 208.455036 202.39619 
L 200.383747 203.73728 
L 200.01572 203.796226 
L 199.936514 203.804517 
L 195.504375 204.489209 
L 194.431914 204.601051 
L 185.742555 205.896129 
L 182.848365 206.182101 
L 180.104635 206.578407 
L 176.07542 206.975763 
L 171.165504 207.663026 
L 165.912559 208.156654 
L 164.580331 208.338059 
L 158.08626 208.947942 
L 156.357532 209.176873 
L 149.090546 209.830162 
L 148.961211 209.846874 
L 147.151773 210.0096 
L 141.384221 210.509538 
L 140.430189 210.555113 
L 133.26537 211.152719 
L 132.385421 211.194437 
L 126.284927 211.704148 
L 123.053245 211.856411 
L 117.510873 212.303386 
L 115.745587 212.385979 
L 111.063092 212.764475 
L 105.812248 213.008734 
L 101.709365 213.329682 
L 100.4544 213.367105 
L 100.4544 218.88 
L 100.4544 227.7504 
L 100.4544 236.6208 
L 100.4544 241.847314 
L 101.794189 241.946713 
L 105.637077 242.300109 
L 111.130852 242.662072 
L 115.743818 243.110141 
L 117.498233 243.230854 
L 123.193374 243.797946 
L 126.093403 244.006528 
L 132.528833 244.685768 
L 133.120876 244.730348 
L 140.141814 245.4912 
L 140.858776 245.567058 
L 141.017611 245.589398 
L 148.660948 246.448289 
L 149.427012 246.560778 
L 155.501259 247.262252 
L 159.260495 247.839614 
L 164.099065 248.435955 
L 166.469437 248.817397 
L 169.876845 249.249919 
L 177.987579 250.620429 
L 179.390533 250.811592 
L 183.702475 251.578295 
L 183.914317 251.608101 
L 184.742786 251.76352 
L 192.206611 253.131383 
L 198.117196 254.3616 
L 203.27757 255.454691 
L 209.562061 256.95968 
L 211.084831 257.31556 
L 211.600537 257.464836 
L 215.586573 258.45388 
L 218.243284 259.252054 
L 224.095081 260.799398 
L 229.756019 262.666113 
L 230.142467 262.775517 
L 231.469244 263.232 
L 236.534541 264.908721 
L 241.389241 266.875182 
L 244.368202 267.97061 
L 247.868451 269.50432 
L 248.123561 269.60528 
L 253.523806 272.1024 
L 253.889382 272.267938 
L 258.654779 274.70048 
L 259.56631 275.151523 
L 260.318004 275.600215 
L 263.688362 277.428912 
L 269.282721 280.9728 
L 270.029947 281.426003 
L 272.519569 283.247787 
L 276.593894 286.116678 
L 277.970012 287.24512 
L 278.724853 287.787365 
L 281.095098 289.8432 
L 283.044071 291.472218 
L 284.036992 292.44128 
L 288.523837 296.641529 
L 290.321778 298.7136 
L 293.437353 302.127234 
L 295.688855 304.98592 
L 296.354692 305.801079 
L 297.675445 307.584 
L 302.8224 307.584 
L 310.91712 307.584 
L 319.01184 307.584 
L 327.10656 307.584 
L 335.20128 307.584 
L 343.296 307.584 
L 343.296 298.7136 
L 343.296 289.8432 
L 343.296 280.9728 
L 343.296 272.1024 
L 343.296 263.232 
L 343.296 254.3616 
L 343.296 245.4912 
L 343.296 236.6208 
L 343.296 227.7504 
L 343.296 218.88 
L 343.296 210.0096 
L 343.296 201.1392 
L 343.296 192.2688 
L 343.296 183.3984 
L 343.296 174.528 
L 343.296 165.6576 
L 343.296 156.7872 
L 343.296 147.9168 
L 343.296 139.0464 
L 343.296 130.176 
L 343.296 121.3056 
L 343.296 112.4352 
L 343.296 103.5648 
L 343.296 94.6944 
L 343.296 85.824 
L 343.296 76.9536 
L 343.296 68.0832 
L 343.296 59.2128 
L 343.296 50.3424 
L 343.296 41.472 
L 335.20128 41.472 
L 327.10656 41.472 
L 319.01184 41.472 
" clip-path="url(#p6d2a58504b)" style="fill: #f8f500"/>
   </g>
   <g id="PathCollection_18">
    <path d="M 297.675445 307.584 
L 296.354692 305.801079 
L 295.688855 304.98592 
L 293.437353 302.127234 
L 290.321778 298.7136 
L 288.523837 296.641529 
L 284.036992 292.44128 
L 283.044071 291.472218 
L 281.095098 289.8432 
L 278.724853 287.787365 
L 277.970012 287.24512 
L 276.593894 286.116678 
L 272.519569 283.247787 
L 270.029947 281.426003 
L 269.282721 280.9728 
L 263.688362 277.428912 
L 260.318004 275.600215 
L 259.56631 275.151523 
L 258.654779 274.70048 
L 253.889382 272.267938 
L 253.523806 272.1024 
L 248.123561 269.60528 
L 247.868451 269.50432 
L 244.368202 267.97061 
L 241.389241 266.875182 
L 236.534541 264.908721 
L 231.469244 263.232 
L 230.142467 262.775517 
L 229.756019 262.666113 
L 224.095081 260.799398 
L 218.243284 259.252054 
L 215.586573 258.45388 
L 211.600537 257.464836 
L 211.084831 257.31556 
L 209.562061 256.95968 
L 203.27757 255.454691 
L 198.117196 254.3616 
L 192.206611 253.131383 
L 184.742786 251.76352 
L 183.914317 251.608101 
L 183.702475 251.578295 
L 179.390533 250.811592 
L 177.987579 250.620429 
L 169.876845 249.249919 
L 166.469437 248.817397 
L 164.099065 248.435955 
L 159.260495 247.839614 
L 155.501259 247.262252 
L 149.427012 246.560778 
L 148.660948 246.448289 
L 141.017611 245.589398 
L 140.858776 245.567058 
L 140.141814 245.4912 
L 133.120876 244.730348 
L 132.528833 244.685768 
L 126.093403 244.006528 
L 123.193374 243.797946 
L 117.498233 243.230854 
L 115.743818 243.110141 
L 111.130852 242.662072 
L 105.637077 242.300109 
L 101.794189 241.946713 
L 100.4544 241.847314 
L 100.4544 245.4912 
L 100.4544 254.3616 
L 100.4544 263.232 
L 100.4544 268.091107 
L 102.426638 268.449668 
L 103.616016 268.637821 
L 108.294945 269.50432 
L 112.547526 270.287501 
L 121.696211 272.1024 
L 123.390628 272.437023 
L 123.805214 272.526051 
L 127.366815 273.29538 
L 133.858169 274.70048 
L 135.099901 274.976326 
L 135.560335 275.090777 
L 144.43324 277.131669 
L 147.914923 278.04206 
L 149.947178 278.527093 
L 156.485524 280.28033 
L 157.516148 280.535886 
L 159.057329 280.9728 
L 164.624661 282.527062 
L 165.955698 282.939871 
L 170.360146 284.201906 
L 178.72891 286.914398 
L 179.111765 287.030687 
L 179.74414 287.24512 
L 181.492604 287.8111 
L 187.26028 289.8432 
L 188.527393 290.283001 
L 194.28685 292.44128 
L 194.985086 292.698871 
L 195.378893 292.861241 
L 199.238015 294.356434 
L 203.287312 296.08532 
L 206.784028 297.51009 
L 209.402642 298.7136 
L 213.145328 300.393929 
L 214.706607 301.163723 
L 218.167426 302.776673 
L 222.376541 304.98592 
L 224.829872 306.242857 
L 227.248466 307.584 
L 229.96992 307.584 
L 238.06464 307.584 
L 246.15936 307.584 
L 254.25408 307.584 
L 262.3488 307.584 
L 270.44352 307.584 
L 278.53824 307.584 
L 286.63296 307.584 
L 294.72768 307.584 
" clip-path="url(#p6d2a58504b)" style="fill: #ff9400"/>
   </g>
   <g id="PathCollection_19">
    <path d="M 227.248466 307.584 
L 224.829872 306.242857 
L 222.376541 304.98592 
L 218.167426 302.776673 
L 214.706607 301.163723 
L 213.145328 300.393929 
L 209.402642 298.7136 
L 206.784028 297.51009 
L 203.287312 296.08532 
L 199.238015 294.356434 
L 195.378893 292.861241 
L 194.985086 292.698871 
L 194.28685 292.44128 
L 188.527393 290.283001 
L 187.26028 289.8432 
L 181.492604 287.8111 
L 179.74414 287.24512 
L 179.111765 287.030687 
L 178.72891 286.914398 
L 170.360146 284.201906 
L 165.955698 282.939871 
L 164.624661 282.527062 
L 159.057329 280.9728 
L 157.516148 280.535886 
L 156.485524 280.28033 
L 149.947178 278.527093 
L 147.914923 278.04206 
L 144.43324 277.131669 
L 135.560335 275.090777 
L 135.099901 274.976326 
L 133.858169 274.70048 
L 127.366815 273.29538 
L 123.805214 272.526051 
L 123.390628 272.437023 
L 121.696211 272.1024 
L 112.547526 270.287501 
L 108.294945 269.50432 
L 103.616016 268.637821 
L 102.426638 268.449668 
L 100.4544 268.091107 
L 100.4544 272.1024 
L 100.4544 280.9728 
L 100.4544 289.8432 
L 100.4544 293.852516 
L 102.137501 294.260861 
L 105.243449 295.091161 
L 110.59549 296.471135 
L 116.405783 298.083807 
L 116.838491 298.19864 
L 118.651384 298.7136 
L 123.474313 300.098994 
L 126.986444 301.176888 
L 131.404468 302.493604 
L 134.650832 303.522036 
L 136.128772 303.972716 
L 139.214864 304.98592 
L 143.530208 306.402843 
L 146.969575 307.584 
L 149.02272 307.584 
L 157.11744 307.584 
L 165.21216 307.584 
L 173.30688 307.584 
L 181.4016 307.584 
L 189.49632 307.584 
L 197.59104 307.584 
L 205.68576 307.584 
L 213.78048 307.584 
L 221.8752 307.584 
" clip-path="url(#p6d2a58504b)" style="fill: #ff3800"/>
   </g>
   <g id="PathCollection_20">
    <path d="M 146.969575 307.584 
L 143.530208 306.402843 
L 139.214864 304.98592 
L 136.128772 303.972716 
L 134.650832 303.522036 
L 131.404468 302.493604 
L 126.986444 301.176888 
L 123.474313 300.098994 
L 118.651384 298.7136 
L 116.838491 298.19864 
L 116.405783 298.083807 
L 110.59549 296.471135 
L 105.243449 295.091161 
L 102.137501 294.260861 
L 100.4544 293.852516 
L 100.4544 298.7136 
L 100.4544 307.584 
L 108.54912 307.584 
L 116.64384 307.584 
L 124.73856 307.584 
L 132.83328 307.584 
L 140.928 307.584 
" clip-path="url(#p6d2a58504b)" style="fill: #b60000"/>
   </g>
   <g id="matplotlib.axis_1">
    <g id="xtick_1">
     <g id="line2d_1">
      <defs>
       <path id="m50f47d83b7" d="M 0 0 
L 0 3.5 
" style="stroke: #000000; stroke-width: 0.8"/>
      </defs>
      <g>
       <use xlink:href="#m50f47d83b7" x="57.6" y="307.584" style="stroke: #000000; stroke-width: 0.8"/>
      </g>
     </g>
     <g id="text_1">
      <!-- 0.0 -->
      <g transform="translate(51.26875 321.385562) scale(0.1 -0.1)">
       <defs>
        <path id="Calibri-30" d="M 3022 2031 
Q 3022 1566 2948 1181 
Q 2875 797 2704 520 
Q 2534 244 2259 92 
Q 1984 -59 1581 -59 
Q 1200 -59 939 77 
Q 678 213 518 477 
Q 359 741 292 1127 
Q 225 1513 225 2013 
Q 225 2475 300 2861 
Q 375 3247 544 3523 
Q 713 3800 988 3951 
Q 1263 4103 1663 4103 
Q 2047 4103 2308 3967 
Q 2569 3831 2728 3567 
Q 2888 3303 2955 2917 
Q 3022 2531 3022 2031 
z
M 2472 1994 
Q 2472 2297 2450 2537 
Q 2428 2778 2386 2962 
Q 2344 3147 2276 3280 
Q 2209 3413 2115 3498 
Q 2022 3584 1901 3623 
Q 1781 3663 1631 3663 
Q 1366 3663 1200 3538 
Q 1034 3413 939 3194 
Q 844 2975 809 2681 
Q 775 2388 775 2050 
Q 775 1597 822 1280 
Q 869 963 970 763 
Q 1072 563 1230 472 
Q 1388 381 1613 381 
Q 1788 381 1920 437 
Q 2053 494 2148 598 
Q 2244 703 2306 850 
Q 2369 997 2406 1175 
Q 2444 1353 2458 1561 
Q 2472 1769 2472 1994 
z
" transform="scale(0.015625)"/>
        <path id="Calibri-2e" d="M 1144 341 
Q 1144 119 1070 45 
Q 997 -28 803 -28 
Q 616 -28 544 44 
Q 472 116 472 331 
Q 472 553 545 626 
Q 619 700 813 700 
Q 1000 700 1072 628 
Q 1144 556 1144 341 
z
" transform="scale(0.015625)"/>
       </defs>
       <use xlink:href="#Calibri-30"/>
       <use xlink:href="#Calibri-2e" x="50.683594"/>
       <use xlink:href="#Calibri-30" x="75.927734"/>
      </g>
     </g>
    </g>
    <g id="xtick_2">
     <g id="line2d_2">
      <g>
       <use xlink:href="#m50f47d83b7" x="86.1696" y="307.584" style="stroke: #000000; stroke-width: 0.8"/>
      </g>
     </g>
     <g id="text_2">
      <!-- 0.1 -->
      <g transform="translate(79.83835 321.385562) scale(0.1 -0.1)">
       <defs>
        <path id="Calibri-31" d="M 2897 213 
Q 2897 153 2887 112 
Q 2878 72 2862 47 
Q 2847 22 2826 11 
Q 2806 0 2784 0 
L 672 0 
Q 650 0 631 11 
Q 613 22 595 47 
Q 578 72 568 112 
Q 559 153 559 213 
Q 559 269 568 309 
Q 578 350 592 376 
Q 606 403 626 417 
Q 647 431 672 431 
L 1516 431 
L 1516 3506 
L 734 3041 
Q 675 3009 639 3003 
Q 603 2997 581 3017 
Q 559 3038 551 3084 
Q 544 3131 544 3203 
Q 544 3256 548 3293 
Q 553 3331 562 3356 
Q 572 3381 589 3400 
Q 606 3419 634 3438 
L 1566 4034 
Q 1578 4044 1597 4050 
Q 1616 4056 1644 4062 
Q 1672 4069 1709 4070 
Q 1747 4072 1803 4072 
Q 1878 4072 1928 4065 
Q 1978 4059 2006 4048 
Q 2034 4038 2043 4020 
Q 2053 4003 2053 3984 
L 2053 431 
L 2784 431 
Q 2809 431 2831 417 
Q 2853 403 2867 376 
Q 2881 350 2889 309 
Q 2897 269 2897 213 
z
" transform="scale(0.015625)"/>
       </defs>
       <use xlink:href="#Calibri-30"/>
       <use xlink:href="#Calibri-2e" x="50.683594"/>
       <use xlink:href="#Calibri-31" x="75.927734"/>
      </g>
     </g>
    </g>
    <g id="xtick_3">
     <g id="line2d_3">
      <g>
       <use xlink:href="#m50f47d83b7" x="114.7392" y="307.584" style="stroke: #000000; stroke-width: 0.8"/>
      </g>
     </g>
     <g id="text_3">
      <!-- 0.2 -->
      <g transform="translate(108.40795 321.385562) scale(0.1 -0.1)">
       <defs>
        <path id="Calibri-32" d="M 2888 231 
Q 2888 175 2880 131 
Q 2872 88 2858 58 
Q 2844 28 2820 14 
Q 2797 0 2769 0 
L 534 0 
Q 491 0 458 11 
Q 425 22 401 47 
Q 378 72 367 119 
Q 356 166 356 234 
Q 356 297 361 344 
Q 366 391 381 427 
Q 397 463 420 498 
Q 444 534 481 575 
L 1266 1406 
Q 1538 1694 1702 1922 
Q 1866 2150 1955 2337 
Q 2044 2525 2072 2678 
Q 2100 2831 2100 2966 
Q 2100 3100 2056 3220 
Q 2013 3341 1930 3431 
Q 1847 3522 1722 3575 
Q 1597 3628 1434 3628 
Q 1244 3628 1092 3575 
Q 941 3522 827 3459 
Q 713 3397 636 3344 
Q 559 3291 522 3291 
Q 500 3291 483 3303 
Q 466 3316 455 3344 
Q 444 3372 437 3419 
Q 431 3466 431 3531 
Q 431 3578 434 3612 
Q 438 3647 445 3672 
Q 453 3697 465 3719 
Q 478 3741 515 3773 
Q 553 3806 645 3862 
Q 738 3919 877 3973 
Q 1016 4028 1183 4065 
Q 1350 4103 1534 4103 
Q 1828 4103 2048 4020 
Q 2269 3938 2414 3794 
Q 2559 3650 2631 3459 
Q 2703 3269 2703 3053 
Q 2703 2859 2668 2667 
Q 2634 2475 2523 2251 
Q 2413 2028 2203 1754 
Q 1994 1481 1647 1125 
L 1006 456 
L 2766 456 
Q 2791 456 2814 442 
Q 2838 428 2855 400 
Q 2872 372 2880 330 
Q 2888 288 2888 231 
z
" transform="scale(0.015625)"/>
       </defs>
       <use xlink:href="#Calibri-30"/>
       <use xlink:href="#Calibri-2e" x="50.683594"/>
       <use xlink:href="#Calibri-32" x="75.927734"/>
      </g>
     </g>
    </g>
    <g id="xtick_4">
     <g id="line2d_4">
      <g>
       <use xlink:href="#m50f47d83b7" x="143.3088" y="307.584" style="stroke: #000000; stroke-width: 0.8"/>
      </g>
     </g>
     <g id="text_4">
      <!-- 0.3 -->
      <g transform="translate(136.97755 321.385562) scale(0.1 -0.1)">
       <defs>
        <path id="Calibri-33" d="M 2856 1156 
Q 2856 878 2759 654 
Q 2663 431 2481 272 
Q 2300 113 2034 27 
Q 1769 -59 1434 -59 
Q 1231 -59 1054 -26 
Q 878 6 740 51 
Q 603 97 512 145 
Q 422 194 398 216 
Q 375 238 362 259 
Q 350 281 340 312 
Q 331 344 326 389 
Q 322 434 322 500 
Q 322 613 344 656 
Q 366 700 406 700 
Q 434 700 517 650 
Q 600 600 729 542 
Q 859 484 1032 434 
Q 1206 384 1419 384 
Q 1625 384 1781 437 
Q 1938 491 2044 587 
Q 2150 684 2203 817 
Q 2256 950 2256 1106 
Q 2256 1278 2189 1415 
Q 2122 1553 1992 1653 
Q 1863 1753 1673 1806 
Q 1484 1859 1244 1859 
L 859 1859 
Q 834 1859 811 1870 
Q 788 1881 770 1906 
Q 753 1931 742 1972 
Q 731 2013 731 2078 
Q 731 2138 740 2177 
Q 750 2216 767 2239 
Q 784 2263 806 2273 
Q 828 2284 856 2284 
L 1209 2284 
Q 1416 2284 1580 2337 
Q 1744 2391 1858 2491 
Q 1972 2591 2033 2730 
Q 2094 2869 2094 3041 
Q 2094 3166 2053 3280 
Q 2013 3394 1931 3478 
Q 1850 3563 1723 3611 
Q 1597 3659 1431 3659 
Q 1250 3659 1098 3604 
Q 947 3550 828 3487 
Q 709 3425 631 3370 
Q 553 3316 522 3316 
Q 500 3316 483 3323 
Q 466 3331 455 3354 
Q 444 3378 439 3420 
Q 434 3463 434 3531 
Q 434 3578 437 3614 
Q 441 3650 450 3676 
Q 459 3703 471 3725 
Q 484 3747 514 3776 
Q 544 3806 634 3862 
Q 725 3919 858 3973 
Q 991 4028 1164 4065 
Q 1338 4103 1538 4103 
Q 1819 4103 2031 4031 
Q 2244 3959 2386 3828 
Q 2528 3697 2598 3514 
Q 2669 3331 2669 3109 
Q 2669 2919 2619 2755 
Q 2569 2591 2472 2464 
Q 2375 2338 2234 2248 
Q 2094 2159 1909 2125 
L 1909 2119 
Q 2119 2097 2292 2014 
Q 2466 1931 2591 1806 
Q 2716 1681 2786 1514 
Q 2856 1347 2856 1156 
z
" transform="scale(0.015625)"/>
       </defs>
       <use xlink:href="#Calibri-30"/>
       <use xlink:href="#Calibri-2e" x="50.683594"/>
       <use xlink:href="#Calibri-33" x="75.927734"/>
      </g>
     </g>
    </g>
    <g id="xtick_5">
     <g id="line2d_5">
      <g>
       <use xlink:href="#m50f47d83b7" x="171.8784" y="307.584" style="stroke: #000000; stroke-width: 0.8"/>
      </g>
     </g>
     <g id="text_5">
      <!-- 0.4 -->
      <g transform="translate(165.54715 321.385562) scale(0.1 -0.1)">
       <defs>
        <path id="Calibri-34" d="M 3059 1150 
Q 3059 1047 3028 987 
Q 2997 928 2941 928 
L 2484 928 
L 2484 78 
Q 2484 53 2471 36 
Q 2459 19 2428 6 
Q 2397 -6 2347 -12 
Q 2297 -19 2219 -19 
Q 2144 -19 2094 -12 
Q 2044 -6 2014 6 
Q 1984 19 1973 36 
Q 1963 53 1963 78 
L 1963 928 
L 294 928 
Q 256 928 231 937 
Q 206 947 186 972 
Q 166 997 158 1044 
Q 150 1091 150 1166 
Q 150 1225 153 1272 
Q 156 1319 165 1358 
Q 175 1397 190 1433 
Q 206 1469 228 1509 
L 1684 3966 
Q 1700 3991 1729 4009 
Q 1759 4028 1806 4040 
Q 1853 4053 1922 4058 
Q 1991 4063 2084 4063 
Q 2188 4063 2264 4055 
Q 2341 4047 2387 4034 
Q 2434 4022 2459 4001 
Q 2484 3981 2484 3953 
L 2484 1372 
L 2941 1372 
Q 2994 1372 3026 1317 
Q 3059 1263 3059 1150 
z
M 1963 3591 
L 1956 3591 
L 641 1372 
L 1963 1372 
L 1963 3591 
z
" transform="scale(0.015625)"/>
       </defs>
       <use xlink:href="#Calibri-30"/>
       <use xlink:href="#Calibri-2e" x="50.683594"/>
       <use xlink:href="#Calibri-34" x="75.927734"/>
      </g>
     </g>
    </g>
    <g id="xtick_6">
     <g id="line2d_6">
      <g>
       <use xlink:href="#m50f47d83b7" x="200.448" y="307.584" style="stroke: #000000; stroke-width: 0.8"/>
      </g>
     </g>
     <g id="text_6">
      <!-- 0.5 -->
      <g transform="translate(194.11675 321.385562) scale(0.1 -0.1)">
       <defs>
        <path id="Calibri-35" d="M 2869 1300 
Q 2869 975 2759 722 
Q 2650 469 2450 295 
Q 2250 122 1973 31 
Q 1697 -59 1359 -59 
Q 1172 -59 1003 -32 
Q 834 -6 703 33 
Q 572 72 487 109 
Q 403 147 379 169 
Q 356 191 347 209 
Q 338 228 330 254 
Q 322 281 319 322 
Q 316 363 316 419 
Q 316 472 320 514 
Q 325 556 337 582 
Q 350 609 367 621 
Q 384 634 406 634 
Q 438 634 503 595 
Q 569 556 680 511 
Q 791 466 955 425 
Q 1119 384 1344 384 
Q 1553 384 1728 434 
Q 1903 484 2029 590 
Q 2156 697 2228 858 
Q 2300 1019 2300 1250 
Q 2300 1444 2239 1592 
Q 2178 1741 2051 1839 
Q 1925 1938 1731 1986 
Q 1538 2034 1269 2034 
Q 1078 2034 940 2015 
Q 803 1997 684 1997 
Q 597 1997 559 2037 
Q 522 2078 522 2194 
L 522 3841 
Q 522 3944 570 3994 
Q 619 4044 709 4044 
L 2500 4044 
Q 2525 4044 2548 4030 
Q 2572 4016 2587 3987 
Q 2603 3959 2611 3915 
Q 2619 3872 2619 3813 
Q 2619 3700 2587 3637 
Q 2556 3575 2500 3575 
L 991 3575 
L 991 2441 
Q 1100 2456 1214 2459 
Q 1328 2463 1478 2463 
Q 1825 2463 2084 2380 
Q 2344 2297 2517 2145 
Q 2691 1994 2780 1778 
Q 2869 1563 2869 1300 
z
" transform="scale(0.015625)"/>
       </defs>
       <use xlink:href="#Calibri-30"/>
       <use xlink:href="#Calibri-2e" x="50.683594"/>
       <use xlink:href="#Calibri-35" x="75.927734"/>
      </g>
     </g>
    </g>
    <g id="xtick_7">
     <g id="line2d_7">
      <g>
       <use xlink:href="#m50f47d83b7" x="229.0176" y="307.584" style="stroke: #000000; stroke-width: 0.8"/>
      </g>
     </g>
     <g id="text_7">
      <!-- 0.6 -->
      <g transform="translate(222.68635 321.385562) scale(0.1 -0.1)">
       <defs>
        <path id="Calibri-36" d="M 2991 1309 
Q 2991 1044 2909 795 
Q 2828 547 2659 358 
Q 2491 169 2231 55 
Q 1972 -59 1619 -59 
Q 1366 -59 1172 3 
Q 978 66 834 181 
Q 691 297 595 465 
Q 500 634 442 850 
Q 384 1066 359 1322 
Q 334 1578 334 1872 
Q 334 2131 362 2397 
Q 391 2663 462 2909 
Q 534 3156 657 3373 
Q 781 3591 967 3752 
Q 1153 3913 1412 4006 
Q 1672 4100 2016 4100 
Q 2131 4100 2250 4086 
Q 2369 4072 2469 4048 
Q 2569 4025 2637 3997 
Q 2706 3969 2728 3951 
Q 2750 3934 2761 3914 
Q 2772 3894 2778 3870 
Q 2784 3847 2787 3817 
Q 2791 3788 2791 3744 
Q 2791 3688 2789 3647 
Q 2788 3606 2777 3581 
Q 2766 3556 2748 3543 
Q 2731 3531 2703 3531 
Q 2669 3531 2609 3553 
Q 2550 3575 2465 3601 
Q 2381 3628 2261 3650 
Q 2141 3672 1981 3672 
Q 1691 3672 1481 3553 
Q 1272 3434 1139 3234 
Q 1006 3034 942 2770 
Q 878 2506 869 2219 
Q 950 2266 1051 2312 
Q 1153 2359 1273 2396 
Q 1394 2434 1528 2457 
Q 1663 2481 1816 2481 
Q 2144 2481 2369 2392 
Q 2594 2303 2733 2145 
Q 2872 1988 2931 1773 
Q 2991 1559 2991 1309 
z
M 2447 1259 
Q 2447 1441 2411 1589 
Q 2375 1738 2290 1841 
Q 2206 1944 2065 2000 
Q 1925 2056 1719 2056 
Q 1603 2056 1487 2036 
Q 1372 2016 1264 1980 
Q 1156 1944 1057 1895 
Q 959 1847 878 1791 
Q 878 1388 929 1116 
Q 981 844 1079 680 
Q 1178 516 1325 445 
Q 1472 375 1669 375 
Q 1869 375 2016 450 
Q 2163 525 2259 651 
Q 2356 778 2401 936 
Q 2447 1094 2447 1259 
z
" transform="scale(0.015625)"/>
       </defs>
       <use xlink:href="#Calibri-30"/>
       <use xlink:href="#Calibri-2e" x="50.683594"/>
       <use xlink:href="#Calibri-36" x="75.927734"/>
      </g>
     </g>
    </g>
    <g id="xtick_8">
     <g id="line2d_8">
      <g>
       <use xlink:href="#m50f47d83b7" x="257.5872" y="307.584" style="stroke: #000000; stroke-width: 0.8"/>
      </g>
     </g>
     <g id="text_8">
      <!-- 0.7 -->
      <g transform="translate(251.25595 321.385562) scale(0.1 -0.1)">
       <defs>
        <path id="Calibri-37" d="M 2947 3813 
Q 2947 3756 2942 3711 
Q 2938 3666 2930 3623 
Q 2922 3581 2908 3542 
Q 2894 3503 2875 3459 
L 1419 103 
Q 1403 66 1379 42 
Q 1356 19 1320 5 
Q 1284 -9 1228 -14 
Q 1172 -19 1091 -19 
Q 984 -19 925 -9 
Q 866 0 839 20 
Q 813 41 816 70 
Q 819 100 838 141 
L 2369 3572 
L 428 3572 
Q 369 3572 339 3634 
Q 309 3697 309 3809 
Q 309 3869 317 3912 
Q 325 3956 340 3986 
Q 356 4016 378 4030 
Q 400 4044 428 4044 
L 2784 4044 
Q 2828 4044 2861 4034 
Q 2894 4025 2911 3997 
Q 2928 3969 2937 3925 
Q 2947 3881 2947 3813 
z
" transform="scale(0.015625)"/>
       </defs>
       <use xlink:href="#Calibri-30"/>
       <use xlink:href="#Calibri-2e" x="50.683594"/>
       <use xlink:href="#Calibri-37" x="75.927734"/>
      </g>
     </g>
    </g>
    <g id="xtick_9">
     <g id="line2d_9">
      <g>
       <use xlink:href="#m50f47d83b7" x="286.1568" y="307.584" style="stroke: #000000; stroke-width: 0.8"/>
      </g>
     </g>
     <g id="text_9">
      <!-- 0.8 -->
      <g transform="translate(279.82555 321.385562) scale(0.1 -0.1)">
       <defs>
        <path id="Calibri-38" d="M 2981 1038 
Q 2981 775 2887 570 
Q 2794 366 2617 225 
Q 2441 84 2181 12 
Q 1922 -59 1588 -59 
Q 1275 -59 1028 6 
Q 781 72 609 200 
Q 438 328 347 515 
Q 256 703 256 944 
Q 256 1134 318 1293 
Q 381 1453 498 1587 
Q 616 1722 787 1839 
Q 959 1956 1175 2063 
Q 988 2159 844 2267 
Q 700 2375 600 2501 
Q 500 2628 448 2772 
Q 397 2916 397 3084 
Q 397 3297 473 3483 
Q 550 3669 704 3806 
Q 859 3944 1098 4023 
Q 1338 4103 1656 4103 
Q 1963 4103 2186 4029 
Q 2409 3956 2554 3829 
Q 2700 3703 2769 3531 
Q 2838 3359 2838 3163 
Q 2838 3003 2786 2856 
Q 2734 2709 2634 2578 
Q 2534 2447 2389 2333 
Q 2244 2219 2056 2119 
Q 2278 2009 2451 1893 
Q 2625 1778 2742 1645 
Q 2859 1513 2920 1364 
Q 2981 1216 2981 1038 
z
M 2306 3113 
Q 2306 3244 2261 3350 
Q 2216 3456 2128 3531 
Q 2041 3606 1911 3645 
Q 1781 3684 1616 3684 
Q 1278 3684 1104 3531 
Q 931 3378 931 3113 
Q 931 2991 973 2886 
Q 1016 2781 1105 2687 
Q 1194 2594 1330 2505 
Q 1466 2416 1653 2319 
Q 1969 2481 2137 2678 
Q 2306 2875 2306 3113 
z
M 2438 981 
Q 2438 1125 2384 1242 
Q 2331 1359 2223 1461 
Q 2116 1563 1955 1658 
Q 1794 1753 1581 1856 
Q 1384 1759 1236 1662 
Q 1088 1566 992 1462 
Q 897 1359 848 1245 
Q 800 1131 800 994 
Q 800 691 1008 525 
Q 1216 359 1628 359 
Q 2028 359 2233 526 
Q 2438 694 2438 981 
z
" transform="scale(0.015625)"/>
       </defs>
       <use xlink:href="#Calibri-30"/>
       <use xlink:href="#Calibri-2e" x="50.683594"/>
       <use xlink:href="#Calibri-38" x="75.927734"/>
      </g>
     </g>
    </g>
    <g id="xtick_10">
     <g id="line2d_10">
      <g>
       <use xlink:href="#m50f47d83b7" x="314.7264" y="307.584" style="stroke: #000000; stroke-width: 0.8"/>
      </g>
     </g>
     <g id="text_10">
      <!-- 0.9 -->
      <g transform="translate(308.39515 321.385562) scale(0.1 -0.1)">
       <defs>
        <path id="Calibri-39" d="M 2919 2181 
Q 2919 1919 2887 1650 
Q 2856 1381 2781 1132 
Q 2706 884 2579 667 
Q 2453 450 2261 287 
Q 2069 125 1805 33 
Q 1541 -59 1191 -59 
Q 1056 -59 929 -42 
Q 803 -25 701 0 
Q 600 25 531 53 
Q 463 81 431 109 
Q 400 138 386 186 
Q 372 234 372 316 
Q 372 384 376 425 
Q 381 466 390 487 
Q 400 509 417 517 
Q 434 525 459 525 
Q 494 525 556 501 
Q 619 478 714 450 
Q 809 422 937 398 
Q 1066 375 1225 375 
Q 1528 375 1745 492 
Q 1963 609 2100 806 
Q 2238 1003 2306 1262 
Q 2375 1522 2381 1809 
Q 2216 1713 1984 1638 
Q 1753 1563 1453 1563 
Q 1116 1563 886 1655 
Q 656 1747 517 1906 
Q 378 2066 317 2284 
Q 256 2503 256 2763 
Q 256 3031 334 3273 
Q 413 3516 578 3700 
Q 744 3884 1000 3993 
Q 1256 4103 1613 4103 
Q 1866 4103 2061 4039 
Q 2256 3975 2400 3854 
Q 2544 3734 2644 3564 
Q 2744 3394 2805 3178 
Q 2866 2963 2892 2711 
Q 2919 2459 2919 2181 
z
M 2372 2241 
Q 2372 2641 2319 2914 
Q 2266 3188 2162 3356 
Q 2059 3525 1909 3600 
Q 1759 3675 1563 3675 
Q 1359 3675 1215 3601 
Q 1072 3528 980 3404 
Q 888 3281 844 3125 
Q 800 2969 800 2803 
Q 800 2619 839 2466 
Q 878 2313 965 2206 
Q 1053 2100 1193 2042 
Q 1334 1984 1541 1984 
Q 1775 1984 1994 2054 
Q 2213 2125 2372 2241 
z
" transform="scale(0.015625)"/>
       </defs>
       <use xlink:href="#Calibri-30"/>
       <use xlink:href="#Calibri-2e" x="50.683594"/>
       <use xlink:href="#Calibri-39" x="75.927734"/>
      </g>
     </g>
    </g>
    <g id="xtick_11">
     <g id="line2d_11">
      <g>
       <use xlink:href="#m50f47d83b7" x="343.296" y="307.584" style="stroke: #000000; stroke-width: 0.8"/>
      </g>
     </g>
     <g id="text_11">
      <!-- 1.0 -->
      <g transform="translate(336.96475 321.385562) scale(0.1 -0.1)">
       <use xlink:href="#Calibri-31"/>
       <use xlink:href="#Calibri-2e" x="50.683594"/>
       <use xlink:href="#Calibri-30" x="75.927734"/>
      </g>
     </g>
    </g>
    <g id="text_12">
     <!-- $\mathit{p}$ (cm$^2$/cm$^2$) -->
     <g transform="translate(174.148 336.263687) scale(0.1 -0.1)">
      <defs>
       <path id="DejaVuSans-Oblique-70" d="M 3175 2156 
Q 3175 2616 2975 2859 
Q 2775 3103 2400 3103 
Q 2144 3103 1911 2972 
Q 1678 2841 1497 2591 
Q 1319 2344 1212 1994 
Q 1106 1644 1106 1300 
Q 1106 863 1306 627 
Q 1506 391 1875 391 
Q 2147 391 2380 519 
Q 2613 647 2778 891 
Q 2956 1147 3065 1494 
Q 3175 1841 3175 2156 
z
M 1394 2969 
Q 1625 3272 1939 3428 
Q 2253 3584 2638 3584 
Q 3175 3584 3472 3232 
Q 3769 2881 3769 2247 
Q 3769 1728 3584 1258 
Q 3400 788 3053 416 
Q 2822 169 2531 39 
Q 2241 -91 1919 -91 
Q 1547 -91 1294 64 
Q 1041 219 916 525 
L 556 -1331 
L -19 -1331 
L 922 3500 
L 1497 3500 
L 1394 2969 
z
" transform="scale(0.015625)"/>
       <path id="Calibri-20" transform="scale(0.015625)"/>
       <path id="Calibri-28" d="M 1547 4306 
Q 1250 3678 1104 3017 
Q 959 2356 959 1688 
Q 959 1016 1107 356 
Q 1256 -303 1541 -938 
Q 1556 -975 1557 -1001 
Q 1559 -1028 1537 -1045 
Q 1516 -1063 1470 -1070 
Q 1425 -1078 1347 -1078 
Q 1291 -1078 1250 -1075 
Q 1209 -1072 1179 -1062 
Q 1150 -1053 1131 -1040 
Q 1113 -1028 1103 -1013 
Q 934 -694 806 -367 
Q 678 -41 590 296 
Q 503 634 459 979 
Q 416 1325 416 1678 
Q 416 2031 464 2375 
Q 513 2719 602 3058 
Q 691 3397 819 3725 
Q 947 4053 1106 4375 
Q 1109 4388 1123 4397 
Q 1138 4406 1163 4415 
Q 1188 4425 1231 4429 
Q 1275 4434 1344 4434 
Q 1416 4434 1459 4425 
Q 1503 4416 1528 4400 
Q 1553 4384 1556 4359 
Q 1559 4334 1547 4306 
z
" transform="scale(0.015625)"/>
       <path id="Calibri-63" d="M 2500 506 
Q 2500 453 2497 414 
Q 2494 375 2486 348 
Q 2478 322 2467 301 
Q 2456 281 2417 242 
Q 2378 203 2284 145 
Q 2191 88 2073 42 
Q 1956 -3 1818 -31 
Q 1681 -59 1534 -59 
Q 1231 -59 997 41 
Q 763 141 605 333 
Q 447 525 364 804 
Q 281 1084 281 1450 
Q 281 1866 382 2164 
Q 484 2463 661 2653 
Q 838 2844 1077 2936 
Q 1316 3028 1594 3028 
Q 1728 3028 1854 3003 
Q 1981 2978 2087 2937 
Q 2194 2897 2276 2844 
Q 2359 2791 2396 2753 
Q 2434 2716 2448 2694 
Q 2463 2672 2472 2642 
Q 2481 2613 2484 2575 
Q 2488 2538 2488 2481 
Q 2488 2359 2459 2311 
Q 2431 2263 2391 2263 
Q 2344 2263 2283 2314 
Q 2222 2366 2128 2428 
Q 2034 2491 1901 2542 
Q 1769 2594 1588 2594 
Q 1216 2594 1017 2308 
Q 819 2022 819 1478 
Q 819 1206 870 1001 
Q 922 797 1022 659 
Q 1122 522 1267 455 
Q 1413 388 1600 388 
Q 1778 388 1912 444 
Q 2047 500 2145 567 
Q 2244 634 2311 689 
Q 2378 744 2416 744 
Q 2438 744 2453 731 
Q 2469 719 2480 689 
Q 2491 659 2495 614 
Q 2500 569 2500 506 
z
" transform="scale(0.015625)"/>
       <path id="Calibri-6d" d="M 4650 78 
Q 4650 53 4637 36 
Q 4625 19 4597 6 
Q 4569 -6 4519 -12 
Q 4469 -19 4394 -19 
Q 4316 -19 4266 -12 
Q 4216 -6 4186 6 
Q 4156 19 4143 36 
Q 4131 53 4131 78 
L 4131 1788 
Q 4131 1966 4100 2112 
Q 4069 2259 4000 2365 
Q 3931 2472 3825 2528 
Q 3719 2584 3575 2584 
Q 3397 2584 3217 2446 
Q 3038 2309 2822 2044 
L 2822 78 
Q 2822 53 2809 36 
Q 2797 19 2767 6 
Q 2738 -6 2688 -12 
Q 2638 -19 2563 -19 
Q 2491 -19 2439 -12 
Q 2388 -6 2358 6 
Q 2328 19 2317 36 
Q 2306 53 2306 78 
L 2306 1788 
Q 2306 1966 2272 2112 
Q 2238 2259 2169 2365 
Q 2100 2472 1995 2528 
Q 1891 2584 1747 2584 
Q 1569 2584 1387 2446 
Q 1206 2309 994 2044 
L 994 78 
Q 994 53 981 36 
Q 969 19 941 6 
Q 913 -6 863 -12 
Q 813 -19 734 -19 
Q 659 -19 609 -12 
Q 559 -6 529 6 
Q 500 19 489 36 
Q 478 53 478 78 
L 478 2891 
Q 478 2916 487 2933 
Q 497 2950 525 2964 
Q 553 2978 597 2983 
Q 641 2988 713 2988 
Q 781 2988 826 2983 
Q 872 2978 897 2964 
Q 922 2950 933 2933 
Q 944 2916 944 2891 
L 944 2519 
Q 1181 2784 1404 2907 
Q 1628 3031 1856 3031 
Q 2031 3031 2170 2990 
Q 2309 2950 2415 2876 
Q 2522 2803 2597 2701 
Q 2672 2600 2722 2475 
Q 2863 2628 2989 2734 
Q 3116 2841 3233 2906 
Q 3350 2972 3461 3001 
Q 3572 3031 3684 3031 
Q 3956 3031 4140 2936 
Q 4325 2841 4439 2681 
Q 4553 2522 4601 2308 
Q 4650 2094 4650 1856 
L 4650 78 
z
" transform="scale(0.015625)"/>
       <path id="DejaVuSans-32" d="M 1228 531 
L 3431 531 
L 3431 0 
L 469 0 
L 469 531 
Q 828 903 1448 1529 
Q 2069 2156 2228 2338 
Q 2531 2678 2651 2914 
Q 2772 3150 2772 3378 
Q 2772 3750 2511 3984 
Q 2250 4219 1831 4219 
Q 1534 4219 1204 4116 
Q 875 4013 500 3803 
L 500 4441 
Q 881 4594 1212 4672 
Q 1544 4750 1819 4750 
Q 2544 4750 2975 4387 
Q 3406 4025 3406 3419 
Q 3406 3131 3298 2873 
Q 3191 2616 2906 2266 
Q 2828 2175 2409 1742 
Q 1991 1309 1228 531 
z
" transform="scale(0.015625)"/>
       <path id="Calibri-2f" d="M 525 -753 
Q 513 -794 492 -817 
Q 472 -841 440 -853 
Q 409 -866 364 -872 
Q 319 -878 253 -878 
Q 175 -878 123 -867 
Q 72 -856 44 -836 
Q 16 -816 9 -786 
Q 3 -756 22 -716 
L 1913 4469 
Q 1925 4509 1945 4532 
Q 1966 4556 1995 4570 
Q 2025 4584 2072 4589 
Q 2119 4594 2184 4594 
Q 2263 4594 2313 4583 
Q 2363 4572 2391 4553 
Q 2419 4534 2425 4503 
Q 2431 4472 2416 4431 
L 525 -753 
z
" transform="scale(0.015625)"/>
       <path id="Calibri-29" d="M 1522 1678 
Q 1522 1325 1478 979 
Q 1434 634 1346 296 
Q 1259 -41 1132 -367 
Q 1006 -694 838 -1013 
Q 828 -1028 809 -1040 
Q 791 -1053 761 -1062 
Q 731 -1072 690 -1075 
Q 650 -1078 594 -1078 
Q 513 -1078 467 -1070 
Q 422 -1063 401 -1045 
Q 381 -1028 382 -1001 
Q 384 -975 400 -938 
Q 688 -306 834 355 
Q 981 1016 981 1688 
Q 981 2356 834 3017 
Q 688 3678 394 4306 
Q 381 4334 384 4359 
Q 388 4384 413 4400 
Q 438 4416 481 4425 
Q 525 4434 597 4434 
Q 663 4434 706 4429 
Q 750 4425 776 4415 
Q 803 4406 815 4397 
Q 828 4388 834 4375 
Q 1156 3734 1339 3057 
Q 1522 2381 1522 1678 
z
" transform="scale(0.015625)"/>
      </defs>
      <use xlink:href="#DejaVuSans-Oblique-70" transform="translate(0 0.765625)"/>
      <use xlink:href="#Calibri-20" transform="translate(63.476562 0.765625)"/>
      <use xlink:href="#Calibri-28" transform="translate(84.958984 0.765625)"/>
      <use xlink:href="#Calibri-63" transform="translate(115.28125 0.765625)"/>
      <use xlink:href="#Calibri-6d" transform="translate(157.566406 0.765625)"/>
      <use xlink:href="#DejaVuSans-32" transform="translate(238.40625 39.046875) scale(0.7)"/>
      <use xlink:href="#Calibri-2f" transform="translate(285.676758 0.765625)"/>
      <use xlink:href="#Calibri-63" transform="translate(324.299805 0.765625)"/>
      <use xlink:href="#Calibri-6d" transform="translate(366.584961 0.765625)"/>
      <use xlink:href="#DejaVuSans-32" transform="translate(447.424805 39.046875) scale(0.7)"/>
      <use xlink:href="#Calibri-29" transform="translate(494.695312 0.765625)"/>
     </g>
    </g>
   </g>
   <g id="matplotlib.axis_2">
    <g id="ytick_1">
     <g id="line2d_12">
      <defs>
       <path id="m79007e4371" d="M 0 0 
L -3.5 0 
" style="stroke: #000000; stroke-width: 0.8"/>
      </defs>
      <g>
       <use xlink:href="#m79007e4371" x="57.6" y="275.65056" style="stroke: #000000; stroke-width: 0.8"/>
      </g>
     </g>
     <g id="text_13">
      <!-- 25 -->
      <g transform="translate(40.4625 279.051341) scale(0.1 -0.1)">
       <use xlink:href="#Calibri-32"/>
       <use xlink:href="#Calibri-35" x="50.683594"/>
      </g>
     </g>
    </g>
    <g id="ytick_2">
     <g id="line2d_13">
      <g>
       <use xlink:href="#m79007e4371" x="57.6" y="242.38656" style="stroke: #000000; stroke-width: 0.8"/>
      </g>
     </g>
     <g id="text_14">
      <!-- 50 -->
      <g transform="translate(40.4625 245.787341) scale(0.1 -0.1)">
       <use xlink:href="#Calibri-35"/>
       <use xlink:href="#Calibri-30" x="50.683594"/>
      </g>
     </g>
    </g>
    <g id="ytick_3">
     <g id="line2d_14">
      <g>
       <use xlink:href="#m79007e4371" x="57.6" y="209.12256" style="stroke: #000000; stroke-width: 0.8"/>
      </g>
     </g>
     <g id="text_15">
      <!-- 75 -->
      <g transform="translate(40.4625 212.523341) scale(0.1 -0.1)">
       <use xlink:href="#Calibri-37"/>
       <use xlink:href="#Calibri-35" x="50.683594"/>
      </g>
     </g>
    </g>
    <g id="ytick_4">
     <g id="line2d_15">
      <g>
       <use xlink:href="#m79007e4371" x="57.6" y="175.85856" style="stroke: #000000; stroke-width: 0.8"/>
      </g>
     </g>
     <g id="text_16">
      <!-- 100 -->
      <g transform="translate(35.39375 179.259341) scale(0.1 -0.1)">
       <use xlink:href="#Calibri-31"/>
       <use xlink:href="#Calibri-30" x="50.683594"/>
       <use xlink:href="#Calibri-30" x="101.367188"/>
      </g>
     </g>
    </g>
    <g id="ytick_5">
     <g id="line2d_16">
      <g>
       <use xlink:href="#m79007e4371" x="57.6" y="142.59456" style="stroke: #000000; stroke-width: 0.8"/>
      </g>
     </g>
     <g id="text_17">
      <!-- 125 -->
      <g transform="translate(35.39375 145.995341) scale(0.1 -0.1)">
       <use xlink:href="#Calibri-31"/>
       <use xlink:href="#Calibri-32" x="50.683594"/>
       <use xlink:href="#Calibri-35" x="101.367188"/>
      </g>
     </g>
    </g>
    <g id="ytick_6">
     <g id="line2d_17">
      <g>
       <use xlink:href="#m79007e4371" x="57.6" y="109.33056" style="stroke: #000000; stroke-width: 0.8"/>
      </g>
     </g>
     <g id="text_18">
      <!-- 150 -->
      <g transform="translate(35.39375 112.731341) scale(0.1 -0.1)">
       <use xlink:href="#Calibri-31"/>
       <use xlink:href="#Calibri-35" x="50.683594"/>
       <use xlink:href="#Calibri-30" x="101.367188"/>
      </g>
     </g>
    </g>
    <g id="ytick_7">
     <g id="line2d_18">
      <g>
       <use xlink:href="#m79007e4371" x="57.6" y="76.06656" style="stroke: #000000; stroke-width: 0.8"/>
      </g>
     </g>
     <g id="text_19">
      <!-- 175 -->
      <g transform="translate(35.39375 79.467341) scale(0.1 -0.1)">
       <use xlink:href="#Calibri-31"/>
       <use xlink:href="#Calibri-37" x="50.683594"/>
       <use xlink:href="#Calibri-35" x="101.367188"/>
      </g>
     </g>
    </g>
    <g id="ytick_8">
     <g id="line2d_19">
      <g>
       <use xlink:href="#m79007e4371" x="57.6" y="42.80256" style="stroke: #000000; stroke-width: 0.8"/>
      </g>
     </g>
     <g id="text_20">
      <!-- 200 -->
      <g transform="translate(35.39375 46.203341) scale(0.1 -0.1)">
       <use xlink:href="#Calibri-32"/>
       <use xlink:href="#Calibri-30" x="50.683594"/>
       <use xlink:href="#Calibri-30" x="101.367188"/>
      </g>
     </g>
    </g>
    <g id="text_21">
     <!-- $\mathit{Z}$$_{a}$ (nm) -->
     <g transform="translate(29.59375 191.028) rotate(-90) scale(0.1 -0.1)">
      <defs>
       <path id="DejaVuSans-Oblique-5a" d="M 838 4666 
L 4500 4666 
L 4409 4184 
L 794 531 
L 3769 531 
L 3669 0 
L -141 0 
L -50 481 
L 3566 4134 
L 738 4134 
L 838 4666 
z
" transform="scale(0.015625)"/>
       <path id="DejaVuSans-Oblique-61" d="M 3438 1997 
L 3047 0 
L 2472 0 
L 2578 531 
Q 2325 219 2001 64 
Q 1678 -91 1281 -91 
Q 834 -91 548 182 
Q 263 456 263 884 
Q 263 1497 752 1853 
Q 1241 2209 2100 2209 
L 2900 2209 
L 2931 2363 
Q 2938 2388 2941 2417 
Q 2944 2447 2944 2509 
Q 2944 2788 2717 2942 
Q 2491 3097 2081 3097 
Q 1800 3097 1504 3025 
Q 1209 2953 897 2809 
L 997 3341 
Q 1322 3463 1633 3523 
Q 1944 3584 2234 3584 
Q 2853 3584 3176 3315 
Q 3500 3047 3500 2534 
Q 3500 2431 3484 2292 
Q 3469 2153 3438 1997 
z
M 2816 1759 
L 2241 1759 
Q 1534 1759 1195 1570 
Q 856 1381 856 984 
Q 856 709 1029 553 
Q 1203 397 1509 397 
Q 1978 397 2328 733 
Q 2678 1069 2791 1631 
L 2816 1759 
z
" transform="scale(0.015625)"/>
       <path id="Calibri-6e" d="M 2900 78 
Q 2900 53 2887 36 
Q 2875 19 2847 6 
Q 2819 -6 2769 -12 
Q 2719 -19 2644 -19 
Q 2566 -19 2516 -12 
Q 2466 -6 2437 6 
Q 2409 19 2396 36 
Q 2384 53 2384 78 
L 2384 1725 
Q 2384 1966 2346 2112 
Q 2309 2259 2237 2365 
Q 2166 2472 2052 2528 
Q 1938 2584 1788 2584 
Q 1594 2584 1400 2446 
Q 1206 2309 994 2044 
L 994 78 
Q 994 53 981 36 
Q 969 19 941 6 
Q 913 -6 863 -12 
Q 813 -19 734 -19 
Q 659 -19 609 -12 
Q 559 -6 529 6 
Q 500 19 489 36 
Q 478 53 478 78 
L 478 2891 
Q 478 2916 487 2933 
Q 497 2950 525 2964 
Q 553 2978 597 2983 
Q 641 2988 713 2988 
Q 781 2988 826 2983 
Q 872 2978 897 2964 
Q 922 2950 933 2933 
Q 944 2916 944 2891 
L 944 2519 
Q 1181 2784 1417 2907 
Q 1653 3031 1894 3031 
Q 2175 3031 2367 2936 
Q 2559 2841 2678 2681 
Q 2797 2522 2848 2308 
Q 2900 2094 2900 1794 
L 2900 78 
z
" transform="scale(0.015625)"/>
      </defs>
      <use xlink:href="#DejaVuSans-Oblique-5a" transform="translate(0 0.09375)"/>
      <use xlink:href="#DejaVuSans-Oblique-61" transform="translate(69.462891 -16.3125) scale(0.7)"/>
      <use xlink:href="#Calibri-20" transform="translate(115.092773 0.09375)"/>
      <use xlink:href="#Calibri-28" transform="translate(136.575195 0.09375)"/>
      <use xlink:href="#Calibri-6e" transform="translate(166.897461 0.09375)"/>
      <use xlink:href="#Calibri-6d" transform="translate(219.436523 0.09375)"/>
      <use xlink:href="#Calibri-29" transform="translate(299.319336 0.09375)"/>
     </g>
    </g>
   </g>
   <g id="patch_3">
    <path d="M 57.6 307.584 
L 57.6 41.472 
" style="fill: none; stroke: #000000; stroke-width: 0.8; stroke-linejoin: miter; stroke-linecap: square"/>
   </g>
   <g id="patch_4">
    <path d="M 343.296 307.584 
L 343.296 41.472 
" style="fill: none; stroke: #000000; stroke-width: 0.8; stroke-linejoin: miter; stroke-linecap: square"/>
   </g>
   <g id="patch_5">
    <path d="M 57.6 307.584 
L 343.296 307.584 
" style="fill: none; stroke: #000000; stroke-width: 0.8; stroke-linejoin: miter; stroke-linecap: square"/>
   </g>
   <g id="patch_6">
    <path d="M 57.6 41.472 
L 343.296 41.472 
" style="fill: none; stroke: #000000; stroke-width: 0.8; stroke-linejoin: miter; stroke-linecap: square"/>
   </g>
   <g id="text_22">
    <!-- $\lambda$ = 550 nm -->
    <g transform="translate(177.348 35.472) scale(0.1 -0.1)">
     <defs>
      <path id="DejaVuSans-Oblique-3bb" d="M 2350 4316 
L 3125 0 
L 2516 0 
L 2038 2588 
L 328 0 
L -281 0 
L 1903 3356 
L 1794 3975 
Q 1725 4369 1391 4369 
L 1091 4369 
L 1184 4863 
L 1550 4856 
Q 2253 4847 2350 4316 
z
" transform="scale(0.015625)"/>
      <path id="Calibri-3d" d="M 2891 2409 
Q 2891 2284 2855 2236 
Q 2819 2188 2772 2188 
L 409 2188 
Q 363 2188 328 2236 
Q 294 2284 294 2409 
Q 294 2522 325 2575 
Q 356 2628 409 2628 
L 2772 2628 
Q 2828 2628 2859 2575 
Q 2891 2522 2891 2409 
z
M 2891 1194 
Q 2891 1069 2855 1022 
Q 2819 975 2772 975 
L 409 975 
Q 363 975 328 1022 
Q 294 1069 294 1194 
Q 294 1309 325 1362 
Q 356 1416 409 1416 
L 2772 1416 
Q 2828 1416 2859 1362 
Q 2891 1309 2891 1194 
z
" transform="scale(0.015625)"/>
     </defs>
     <use xlink:href="#DejaVuSans-Oblique-3bb" transform="translate(0 0.015625)"/>
     <use xlink:href="#Calibri-20" transform="translate(59.179688 0.015625)"/>
     <use xlink:href="#Calibri-3d" transform="translate(81.787109 0.015625)"/>
     <use xlink:href="#Calibri-20" transform="translate(131.591797 0.015625)"/>
     <use xlink:href="#Calibri-35" transform="translate(154.199219 0.015625)"/>
     <use xlink:href="#Calibri-35" transform="translate(204.882812 0.015625)"/>
     <use xlink:href="#Calibri-30" transform="translate(255.566406 0.015625)"/>
     <use xlink:href="#Calibri-20" transform="translate(306.25 0.015625)"/>
     <use xlink:href="#Calibri-6e" transform="translate(328.857422 0.015625)"/>
     <use xlink:href="#Calibri-6d" transform="translate(381.396484 0.015625)"/>
    </g>
   </g>
  </g>
  <g id="axes_2">
   <g id="patch_7">
    <path d="M 361.152 307.584 
L 374.4576 307.584 
L 374.4576 41.472 
L 361.152 41.472 
z
" style="fill: #ffffff"/>
   </g>
   <g id="QuadMesh_1">
    <path d="M 361.152 307.584 
L 374.4576 307.584 
L 374.4576 280.9728 
L 361.152 280.9728 
L 361.152 307.584 
" clip-path="url(#p6ee4f41510)" style="fill: #0000b6"/>
    <path d="M 361.152 280.9728 
L 374.4576 280.9728 
L 374.4576 254.3616 
L 361.152 254.3616 
L 361.152 280.9728 
" clip-path="url(#p6ee4f41510)" style="fill: #0018ff"/>
    <path d="M 361.152 254.3616 
L 374.4576 254.3616 
L 374.4576 227.7504 
L 361.152 227.7504 
L 361.152 254.3616 
" clip-path="url(#p6ee4f41510)" style="fill: #0080ff"/>
    <path d="M 361.152 227.7504 
L 374.4576 227.7504 
L 374.4576 201.1392 
L 361.152 201.1392 
L 361.152 227.7504 
" clip-path="url(#p6ee4f41510)" style="fill: #00e4f8"/>
    <path d="M 361.152 201.1392 
L 374.4576 201.1392 
L 374.4576 174.528 
L 361.152 174.528 
L 361.152 201.1392 
" clip-path="url(#p6ee4f41510)" style="fill: #53ffa4"/>
    <path d="M 361.152 174.528 
L 374.4576 174.528 
L 374.4576 147.9168 
L 361.152 147.9168 
L 361.152 174.528 
" clip-path="url(#p6ee4f41510)" style="fill: #a4ff53"/>
    <path d="M 361.152 147.9168 
L 374.4576 147.9168 
L 374.4576 121.3056 
L 361.152 121.3056 
L 361.152 147.9168 
" clip-path="url(#p6ee4f41510)" style="fill: #f8f500"/>
    <path d="M 361.152 121.3056 
L 374.4576 121.3056 
L 374.4576 94.6944 
L 361.152 94.6944 
L 361.152 121.3056 
" clip-path="url(#p6ee4f41510)" style="fill: #ff9400"/>
    <path d="M 361.152 94.6944 
L 374.4576 94.6944 
L 374.4576 68.0832 
L 361.152 68.0832 
L 361.152 94.6944 
" clip-path="url(#p6ee4f41510)" style="fill: #ff3800"/>
    <path d="M 361.152 68.0832 
L 374.4576 68.0832 
L 374.4576 41.472 
L 361.152 41.472 
L 361.152 68.0832 
" clip-path="url(#p6ee4f41510)" style="fill: #b60000"/>
   </g>
   <g id="matplotlib.axis_3"/>
   <g id="matplotlib.axis_4">
    <g id="ytick_9">
     <g id="line2d_20">
      <defs>
       <path id="m4b93b18b41" d="M 0 0 
L 3.5 0 
" style="stroke: #000000; stroke-width: 0.8"/>
      </defs>
      <g>
       <use xlink:href="#m4b93b18b41" x="374.4576" y="307.584" style="stroke: #000000; stroke-width: 0.8"/>
      </g>
     </g>
     <g id="text_23">
      <!-- 0 -->
      <g transform="translate(381.4576 310.984781) scale(0.1 -0.1)">
       <use xlink:href="#Calibri-30"/>
      </g>
     </g>
    </g>
    <g id="ytick_10">
     <g id="line2d_21">
      <g>
       <use xlink:href="#m4b93b18b41" x="374.4576" y="280.9728" style="stroke: #000000; stroke-width: 0.8"/>
      </g>
     </g>
     <g id="text_24">
      <!-- 0.1 -->
      <g transform="translate(381.4576 284.373581) scale(0.1 -0.1)">
       <use xlink:href="#Calibri-30"/>
       <use xlink:href="#Calibri-2e" x="50.683594"/>
       <use xlink:href="#Calibri-31" x="75.927734"/>
      </g>
     </g>
    </g>
    <g id="ytick_11">
     <g id="line2d_22">
      <g>
       <use xlink:href="#m4b93b18b41" x="374.4576" y="254.3616" style="stroke: #000000; stroke-width: 0.8"/>
      </g>
     </g>
     <g id="text_25">
      <!-- 0.2 -->
      <g transform="translate(381.4576 257.762381) scale(0.1 -0.1)">
       <use xlink:href="#Calibri-30"/>
       <use xlink:href="#Calibri-2e" x="50.683594"/>
       <use xlink:href="#Calibri-32" x="75.927734"/>
      </g>
     </g>
    </g>
    <g id="ytick_12">
     <g id="line2d_23">
      <g>
       <use xlink:href="#m4b93b18b41" x="374.4576" y="227.7504" style="stroke: #000000; stroke-width: 0.8"/>
      </g>
     </g>
     <g id="text_26">
      <!-- 0.3 -->
      <g transform="translate(381.4576 231.151181) scale(0.1 -0.1)">
       <use xlink:href="#Calibri-30"/>
       <use xlink:href="#Calibri-2e" x="50.683594"/>
       <use xlink:href="#Calibri-33" x="75.927734"/>
      </g>
     </g>
    </g>
    <g id="ytick_13">
     <g id="line2d_24">
      <g>
       <use xlink:href="#m4b93b18b41" x="374.4576" y="201.1392" style="stroke: #000000; stroke-width: 0.8"/>
      </g>
     </g>
     <g id="text_27">
      <!-- 0.4 -->
      <g transform="translate(381.4576 204.539981) scale(0.1 -0.1)">
       <use xlink:href="#Calibri-30"/>
       <use xlink:href="#Calibri-2e" x="50.683594"/>
       <use xlink:href="#Calibri-34" x="75.927734"/>
      </g>
     </g>
    </g>
    <g id="ytick_14">
     <g id="line2d_25">
      <g>
       <use xlink:href="#m4b93b18b41" x="374.4576" y="174.528" style="stroke: #000000; stroke-width: 0.8"/>
      </g>
     </g>
     <g id="text_28">
      <!-- 0.5 -->
      <g transform="translate(381.4576 177.928781) scale(0.1 -0.1)">
       <use xlink:href="#Calibri-30"/>
       <use xlink:href="#Calibri-2e" x="50.683594"/>
       <use xlink:href="#Calibri-35" x="75.927734"/>
      </g>
     </g>
    </g>
    <g id="ytick_15">
     <g id="line2d_26">
      <g>
       <use xlink:href="#m4b93b18b41" x="374.4576" y="147.9168" style="stroke: #000000; stroke-width: 0.8"/>
      </g>
     </g>
     <g id="text_29">
      <!-- 0.6 -->
      <g transform="translate(381.4576 151.317581) scale(0.1 -0.1)">
       <use xlink:href="#Calibri-30"/>
       <use xlink:href="#Calibri-2e" x="50.683594"/>
       <use xlink:href="#Calibri-36" x="75.927734"/>
      </g>
     </g>
    </g>
    <g id="ytick_16">
     <g id="line2d_27">
      <g>
       <use xlink:href="#m4b93b18b41" x="374.4576" y="121.3056" style="stroke: #000000; stroke-width: 0.8"/>
      </g>
     </g>
     <g id="text_30">
      <!-- 0.7 -->
      <g transform="translate(381.4576 124.706381) scale(0.1 -0.1)">
       <use xlink:href="#Calibri-30"/>
       <use xlink:href="#Calibri-2e" x="50.683594"/>
       <use xlink:href="#Calibri-37" x="75.927734"/>
      </g>
     </g>
    </g>
    <g id="ytick_17">
     <g id="line2d_28">
      <g>
       <use xlink:href="#m4b93b18b41" x="374.4576" y="94.6944" style="stroke: #000000; stroke-width: 0.8"/>
      </g>
     </g>
     <g id="text_31">
      <!-- 0.8 -->
      <g transform="translate(381.4576 98.095181) scale(0.1 -0.1)">
       <use xlink:href="#Calibri-30"/>
       <use xlink:href="#Calibri-2e" x="50.683594"/>
       <use xlink:href="#Calibri-38" x="75.927734"/>
      </g>
     </g>
    </g>
    <g id="ytick_18">
     <g id="line2d_29">
      <g>
       <use xlink:href="#m4b93b18b41" x="374.4576" y="68.0832" style="stroke: #000000; stroke-width: 0.8"/>
      </g>
     </g>
     <g id="text_32">
      <!-- 0.9 -->
      <g transform="translate(381.4576 71.483981) scale(0.1 -0.1)">
       <use xlink:href="#Calibri-30"/>
       <use xlink:href="#Calibri-2e" x="50.683594"/>
       <use xlink:href="#Calibri-39" x="75.927734"/>
      </g>
     </g>
    </g>
    <g id="ytick_19">
     <g id="line2d_30">
      <g>
       <use xlink:href="#m4b93b18b41" x="374.4576" y="41.472" style="stroke: #000000; stroke-width: 0.8"/>
      </g>
     </g>
     <g id="text_33">
      <!-- 1.0 -->
      <g transform="translate(381.4576 44.872781) scale(0.1 -0.1)">
       <use xlink:href="#Calibri-31"/>
       <use xlink:href="#Calibri-2e" x="50.683594"/>
       <use xlink:href="#Calibri-30" x="75.927734"/>
      </g>
     </g>
    </g>
   </g>
   <g id="LineCollection_1"/>
   <g id="patch_8">
    <path d="M 361.152 307.584 
L 367.8048 307.584 
L 374.4576 307.584 
L 374.4576 41.472 
L 367.8048 41.472 
L 361.152 41.472 
L 361.152 307.584 
z
" style="fill: none; stroke: #000000; stroke-width: 0.8; stroke-linejoin: miter; stroke-linecap: square"/>
   </g>
   <g id="text_34">
    <!-- $\mathit{E}_{\mathrm{dis}}$/$\mathit{E}_{\mathrm{i}}$ -->
    <g transform="translate(353.2548 35.472) scale(0.1 -0.1)">
     <defs>
      <path id="DejaVuSans-Oblique-45" d="M 1081 4666 
L 4031 4666 
L 3928 4134 
L 1606 4134 
L 1338 2753 
L 3566 2753 
L 3463 2222 
L 1234 2222 
L 909 531 
L 3284 531 
L 3181 0 
L 172 0 
L 1081 4666 
z
" transform="scale(0.015625)"/>
      <path id="DejaVuSans-64" d="M 2906 2969 
L 2906 4863 
L 3481 4863 
L 3481 0 
L 2906 0 
L 2906 525 
Q 2725 213 2448 61 
Q 2172 -91 1784 -91 
Q 1150 -91 751 415 
Q 353 922 353 1747 
Q 353 2572 751 3078 
Q 1150 3584 1784 3584 
Q 2172 3584 2448 3432 
Q 2725 3281 2906 2969 
z
M 947 1747 
Q 947 1113 1208 752 
Q 1469 391 1925 391 
Q 2381 391 2643 752 
Q 2906 1113 2906 1747 
Q 2906 2381 2643 2742 
Q 2381 3103 1925 3103 
Q 1469 3103 1208 2742 
Q 947 2381 947 1747 
z
" transform="scale(0.015625)"/>
      <path id="DejaVuSans-69" d="M 603 3500 
L 1178 3500 
L 1178 0 
L 603 0 
L 603 3500 
z
M 603 4863 
L 1178 4863 
L 1178 4134 
L 603 4134 
L 603 4863 
z
" transform="scale(0.015625)"/>
      <path id="DejaVuSans-73" d="M 2834 3397 
L 2834 2853 
Q 2591 2978 2328 3040 
Q 2066 3103 1784 3103 
Q 1356 3103 1142 2972 
Q 928 2841 928 2578 
Q 928 2378 1081 2264 
Q 1234 2150 1697 2047 
L 1894 2003 
Q 2506 1872 2764 1633 
Q 3022 1394 3022 966 
Q 3022 478 2636 193 
Q 2250 -91 1575 -91 
Q 1294 -91 989 -36 
Q 684 19 347 128 
L 347 722 
Q 666 556 975 473 
Q 1284 391 1588 391 
Q 1994 391 2212 530 
Q 2431 669 2431 922 
Q 2431 1156 2273 1281 
Q 2116 1406 1581 1522 
L 1381 1569 
Q 847 1681 609 1914 
Q 372 2147 372 2553 
Q 372 3047 722 3315 
Q 1072 3584 1716 3584 
Q 2034 3584 2315 3537 
Q 2597 3491 2834 3397 
z
" transform="scale(0.015625)"/>
     </defs>
     <use xlink:href="#DejaVuSans-Oblique-45" transform="translate(0 0.09375)"/>
     <use xlink:href="#DejaVuSans-64" transform="translate(63.183594 -16.3125) scale(0.7)"/>
     <use xlink:href="#DejaVuSans-69" transform="translate(107.617188 -16.3125) scale(0.7)"/>
     <use xlink:href="#DejaVuSans-73" transform="translate(127.06543 -16.3125) scale(0.7)"/>
     <use xlink:href="#Calibri-2f" transform="translate(166.269531 0.09375)"/>
     <use xlink:href="#DejaVuSans-Oblique-45" transform="translate(204.892578 0.09375)"/>
     <use xlink:href="#DejaVuSans-69" transform="translate(268.076172 -16.3125) scale(0.7)"/>
    </g>
   </g>
  </g>
 </g>
 <defs>
  <clipPath id="p6d2a58504b">
   <rect x="57.6" y="41.472" width="285.696" height="266.112"/>
  </clipPath>
  <clipPath id="p6ee4f41510">
   <rect x="361.152" y="41.472" width="13.3056" height="266.112"/>
  </clipPath>
 </defs>
</svg>
