<?xml version="1.0" encoding="utf-8" standalone="no"?>
<!DOCTYPE svg PUBLIC "-//W3C//DTD SVG 1.1//EN"
  "http://www.w3.org/Graphics/SVG/1.1/DTD/svg11.dtd">
<svg xmlns:xlink="http://www.w3.org/1999/xlink" width="460.8pt" height="345.6pt" viewBox="0 0 460.8 345.6" xmlns="http://www.w3.org/2000/svg" version="1.1">
 <metadata>
  <rdf:RDF xmlns:dc="http://purl.org/dc/elements/1.1/" xmlns:cc="http://creativecommons.org/ns#" xmlns:rdf="http://www.w3.org/1999/02/22-rdf-syntax-ns#">
   <cc:Work>
    <dc:type rdf:resource="http://purl.org/dc/dcmitype/StillImage"/>
    <dc:date>2024-01-22T08:47:52.897921</dc:date>
    <dc:format>image/svg+xml</dc:format>
    <dc:creator>
     <cc:Agent>
      <dc:title>Matplotlib v3.7.1, https://matplotlib.org/</dc:title>
     </cc:Agent>
    </dc:creator>
   </cc:Work>
  </rdf:RDF>
 </metadata>
 <defs>
  <style type="text/css">*{stroke-linejoin: round; stroke-linecap: butt}</style>
 </defs>
 <g id="figure_1">
  <g id="patch_1">
   <path d="M 0 345.6 
L 460.8 345.6 
L 460.8 0 
L 0 0 
z
" style="fill: #ffffff"/>
  </g>
  <g id="axes_1">
   <g id="patch_2">
    <path d="M 57.6 307.584 
L 343.296 307.584 
L 343.296 41.472 
L 57.6 41.472 
z
" style="fill: #ffffff"/>
   </g>
   <g id="PathCollection_1">
    <path clip-path="url(#pfb8c28374a)" style="fill: #0000b6"/>
   </g>
   <g id="PathCollection_2">
    <path d="M 57.62857 68.434681 
L 57.727898 68.300042 
L 57.883544 68.0832 
L 58.380075 67.38492 
L 58.575376 67.10892 
L 59.573254 65.67582 
L 60.205235 64.7568 
L 60.57268 64.212293 
L 60.861182 63.780776 
L 61.391979 62.99346 
L 61.784116 62.40468 
L 62.339547 61.556854 
L 62.42252 61.4304 
L 62.526047 61.269005 
L 62.734279 60.947004 
L 63.05272 60.45612 
L 63.183349 60.251382 
L 63.37306 59.950543 
L 63.912684 59.101517 
L 64.541121 58.104 
L 64.946604 57.447926 
L 65.982926 55.75188 
L 66.10318 55.551697 
L 66.267199 55.282085 
L 66.56938 54.7776 
L 67.111681 53.855469 
L 67.142613 53.80332 
L 67.198833 53.706903 
L 67.499115 53.187714 
L 68.387752 51.654659 
L 68.5044 51.4512 
L 69.486766 49.70405 
L 69.824247 49.09908 
L 69.919598 48.92848 
L 70.361918 48.1248 
L 70.683366 47.529241 
L 70.888551 47.15052 
L 71.711318 45.604704 
L 72.136091 44.7984 
L 72.669678 43.765332 
L 73.291962 42.551755 
L 73.328156 42.481606 
L 73.346202 42.44628 
L 73.374614 42.389637 
L 73.837876 41.472 
L 72.86569 41.472 
L 71.341978 41.472 
L 69.818266 41.472 
L 68.294554 41.472 
L 66.770842 41.472 
L 65.24713 41.472 
L 63.723418 41.472 
L 62.199706 41.472 
L 60.675994 41.472 
L 59.152282 41.472 
L 57.62857 41.472 
L 57.62857 44.7984 
L 57.62857 48.1248 
L 57.62857 51.4512 
L 57.62857 54.7776 
L 57.62857 58.104 
L 57.62857 61.4304 
L 57.62857 64.7568 
L 57.62857 68.0832 
" clip-path="url(#pfb8c28374a)" style="fill: #0018ff"/>
   </g>
   <g id="PathCollection_3">
    <path d="M 73.837876 41.472 
L 73.374614 42.389637 
L 73.346202 42.44628 
L 73.328156 42.481606 
L 73.291962 42.551755 
L 72.669678 43.765332 
L 72.136091 44.7984 
L 71.711318 45.604704 
L 70.888551 47.15052 
L 70.683366 47.529241 
L 70.361918 48.1248 
L 69.919598 48.92848 
L 69.824247 49.09908 
L 69.486766 49.70405 
L 68.5044 51.4512 
L 68.387752 51.654659 
L 67.499115 53.187714 
L 67.198833 53.706903 
L 67.142613 53.80332 
L 67.111681 53.855469 
L 66.56938 54.7776 
L 66.267199 55.282085 
L 66.10318 55.551697 
L 65.982926 55.75188 
L 64.946604 57.447926 
L 64.541121 58.104 
L 63.912684 59.101517 
L 63.37306 59.950543 
L 63.183349 60.251382 
L 63.05272 60.45612 
L 62.734279 60.947004 
L 62.526047 61.269005 
L 62.42252 61.4304 
L 62.339547 61.556854 
L 61.784116 62.40468 
L 61.391979 62.99346 
L 60.861182 63.780776 
L 60.57268 64.212293 
L 60.205235 64.7568 
L 59.573254 65.67582 
L 58.575376 67.10892 
L 58.380075 67.38492 
L 57.883544 68.0832 
L 57.727898 68.300042 
L 57.62857 68.434681 
L 57.62857 71.4096 
L 57.62857 74.736 
L 57.62857 78.0624 
L 57.62857 81.3888 
L 57.62857 84.7152 
L 57.62857 88.0416 
L 57.62857 91.368 
L 57.62857 94.6944 
L 57.62857 98.0208 
L 57.62857 101.3472 
L 57.62857 104.6736 
L 57.62857 108 
L 57.62857 111.3264 
L 57.62857 114.6528 
L 57.62857 117.9792 
L 57.62857 118.618633 
L 57.735798 118.544343 
L 58.513725 117.9792 
L 58.990862 117.626806 
L 59.484129 117.254748 
L 60.408025 116.566889 
L 61.033984 116.092431 
L 61.258724 115.924953 
L 61.650116 115.62708 
L 62.528219 114.949864 
L 62.635051 114.868104 
L 62.911252 114.6528 
L 64.108474 113.708801 
L 64.147039 113.67852 
L 64.166717 113.662787 
L 64.182958 113.649581 
L 65.738683 112.399504 
L 66.719857 111.595109 
L 66.808287 111.523756 
L 67.048786 111.3264 
L 67.949986 110.574177 
L 69.07952 109.612748 
L 69.436166 109.312566 
L 69.831563 108.97428 
L 70.434917 108.448595 
L 70.95236 108 
L 71.092788 107.876761 
L 71.149574 107.826016 
L 72.05271 107.02572 
L 72.31248 106.792294 
L 72.495484 106.624748 
L 73.127655 106.054275 
L 74.212288 105.060254 
L 74.462527 104.833239 
L 74.635238 104.6736 
L 75.719593 103.653658 
L 76.192265 103.202348 
L 76.590941 102.826958 
L 77.118086 102.32148 
L 77.790691 101.667189 
L 77.890083 101.571363 
L 78.118474 101.3472 
L 78.792755 100.676613 
L 79.099949 100.37292 
L 79.357597 100.113481 
L 79.673413 99.790928 
L 80.781264 98.669208 
L 81.410592 98.0208 
L 81.908808 97.498219 
L 82.157242 97.234026 
L 82.841938 96.515046 
L 83.634361 95.66868 
L 84.07765 95.188107 
L 84.220282 95.034957 
L 84.531906 94.6944 
L 85.337775 93.801176 
L 85.411398 93.72012 
L 85.485832 93.636646 
L 85.59859 93.508535 
L 86.891574 92.050163 
L 87.486606 91.368 
L 87.991058 90.779021 
L 88.279207 90.438309 
L 88.879327 89.736807 
L 89.486342 89.01588 
L 90.008058 88.38661 
L 90.293672 88.0416 
L 90.977726 87.202719 
L 91.086209 87.06732 
L 91.498883 86.552737 
L 92.288926 85.555733 
L 92.77796 84.942274 
L 92.95624 84.7152 
L 93.952391 83.422536 
L 94.605645 82.564923 
L 94.687615 82.458422 
L 94.759913 82.36308 
L 95.000554 82.040609 
L 95.489108 81.3888 
L 95.551448 81.304764 
L 95.582036 81.262805 
L 96.207495 80.41452 
L 96.569952 79.914931 
L 97.01044 79.299063 
L 97.382088 78.784487 
L 97.897899 78.0624 
L 98.424587 77.310965 
L 99.530997 75.71028 
L 99.651009 75.533757 
L 99.836561 75.264074 
L 100.193703 74.736 
L 100.802824 73.819623 
L 100.841343 73.76172 
L 102.048426 71.916533 
L 102.375644 71.4096 
L 103.117586 70.237752 
L 103.33993 69.87698 
L 103.33993 68.0832 
L 103.33993 64.7568 
L 103.33993 61.4304 
L 103.33993 58.104 
L 103.33993 54.7776 
L 103.33993 51.4512 
L 103.33993 48.1248 
L 103.33993 44.7984 
L 103.33993 41.472 
L 101.816218 41.472 
L 100.292506 41.472 
L 98.768794 41.472 
L 97.245082 41.472 
L 95.72137 41.472 
L 94.197658 41.472 
L 92.673946 41.472 
L 91.150234 41.472 
L 89.626522 41.472 
L 88.10281 41.472 
L 86.579098 41.472 
L 85.055386 41.472 
L 83.531674 41.472 
L 82.007962 41.472 
L 80.48425 41.472 
L 78.960538 41.472 
L 77.436826 41.472 
L 75.913114 41.472 
L 74.389402 41.472 
" clip-path="url(#pfb8c28374a)" style="fill: #0080ff"/>
   </g>
   <g id="PathCollection_4">
    <path d="M 103.33993 69.87698 
L 103.117586 70.237752 
L 102.375644 71.4096 
L 102.048426 71.916533 
L 100.841343 73.76172 
L 100.802824 73.819623 
L 100.193703 74.736 
L 99.836561 75.264074 
L 99.651009 75.533757 
L 99.530997 75.71028 
L 98.424587 77.310965 
L 97.897899 78.0624 
L 97.382088 78.784487 
L 97.01044 79.299063 
L 96.569952 79.914931 
L 96.207495 80.41452 
L 95.582036 81.262805 
L 95.551448 81.304764 
L 95.489108 81.3888 
L 95.000554 82.040609 
L 94.759913 82.36308 
L 94.687615 82.458422 
L 94.605645 82.564923 
L 93.952391 83.422536 
L 92.95624 84.7152 
L 92.77796 84.942274 
L 92.288926 85.555733 
L 91.498883 86.552737 
L 91.086209 87.06732 
L 90.977726 87.202719 
L 90.293672 88.0416 
L 90.008058 88.38661 
L 89.486342 89.01588 
L 88.879327 89.736807 
L 88.279207 90.438309 
L 87.991058 90.779021 
L 87.486606 91.368 
L 86.891574 92.050163 
L 85.59859 93.508535 
L 85.485832 93.636646 
L 85.411398 93.72012 
L 85.337775 93.801176 
L 84.531906 94.6944 
L 84.220282 95.034957 
L 84.07765 95.188107 
L 83.634361 95.66868 
L 82.841938 96.515046 
L 82.157242 97.234026 
L 81.908808 97.498219 
L 81.410592 98.0208 
L 80.781264 98.669208 
L 79.673413 99.790928 
L 79.357597 100.113481 
L 79.099949 100.37292 
L 78.792755 100.676613 
L 78.118474 101.3472 
L 77.890083 101.571363 
L 77.790691 101.667189 
L 77.118086 102.32148 
L 76.590941 102.826958 
L 76.192265 103.202348 
L 75.719593 103.653658 
L 74.635238 104.6736 
L 74.462527 104.833239 
L 74.212288 105.060254 
L 73.127655 106.054275 
L 72.495484 106.624748 
L 72.31248 106.792294 
L 72.05271 107.02572 
L 71.149574 107.826016 
L 71.092788 107.876761 
L 70.95236 108 
L 70.434917 108.448595 
L 69.831563 108.97428 
L 69.436166 109.312566 
L 69.07952 109.612748 
L 67.949986 110.574177 
L 67.048786 111.3264 
L 66.808287 111.523756 
L 66.719857 111.595109 
L 65.738683 112.399504 
L 64.182958 113.649581 
L 64.166717 113.662787 
L 64.147039 113.67852 
L 64.108474 113.708801 
L 62.911252 114.6528 
L 62.635051 114.868104 
L 62.528219 114.949864 
L 61.650116 115.62708 
L 61.258724 115.924953 
L 61.033984 116.092431 
L 60.408025 116.566889 
L 59.484129 117.254748 
L 58.990862 117.626806 
L 58.513725 117.9792 
L 57.735798 118.544343 
L 57.62857 118.618633 
L 57.62857 121.3056 
L 57.62857 124.632 
L 57.62857 127.9584 
L 57.62857 131.2848 
L 57.62857 134.6112 
L 57.62857 137.9376 
L 57.62857 141.264 
L 57.62857 144.5904 
L 57.62857 147.9168 
L 57.62857 151.2432 
L 57.62857 154.5696 
L 57.62857 155.882522 
L 58.039918 155.728012 
L 58.141605 155.689603 
L 58.513867 155.54388 
L 59.707432 155.071604 
L 59.963562 154.970826 
L 60.959646 154.5696 
L 61.815401 154.222086 
L 63.225397 153.642103 
L 63.339376 153.59532 
L 64.108747 153.274058 
L 64.367964 153.162496 
L 65.842903 152.543827 
L 66.585144 152.221907 
L 66.929056 152.07706 
L 68.156702 151.544142 
L 68.387646 151.446429 
L 68.852177 151.2432 
L 69.743201 150.847576 
L 69.907587 150.772435 
L 70.920194 150.322409 
L 71.988344 149.832125 
L 72.550201 149.580435 
L 73.241682 149.261555 
L 73.440783 149.17228 
L 74.047994 148.89108 
L 74.982634 148.45324 
L 75.235768 148.335378 
L 76.11469 147.9168 
L 76.786939 147.595393 
L 76.978047 147.501943 
L 78.129223 146.94252 
L 78.443476 146.788008 
L 78.554219 146.731879 
L 79.297239 146.364964 
L 79.784657 146.117674 
L 80.924699 145.551941 
L 81.922352 145.041602 
L 82.078778 144.963636 
L 82.807657 144.5904 
L 83.392374 144.286297 
L 83.761543 144.088574 
L 84.851691 143.51684 
L 85.30542 143.272605 
L 85.845559 142.989019 
L 87.234059 142.23828 
L 87.497237 142.094242 
L 87.859542 141.897256 
L 88.999067 141.264 
L 89.293824 141.099461 
L 89.386248 141.046729 
L 90.673558 140.317201 
L 90.71373 140.294557 
L 90.722126 140.28972 
L 91.510319 139.835412 
L 91.913762 139.597148 
L 93.115239 138.900984 
L 94.129514 138.296749 
L 94.252246 138.225305 
L 94.734624 137.9376 
L 95.506926 137.46945 
L 96.10697 137.0958 
L 96.983636 136.559668 
L 97.577012 136.188179 
L 97.881922 136.00148 
L 98.543278 135.58548 
L 99.30765 135.098469 
L 99.50352 134.974566 
L 100.065808 134.6112 
L 101.082144 133.947402 
L 101.553492 133.63692 
L 102.579885 132.951954 
L 103.089849 132.602838 
L 103.33993 132.431161 
L 103.33993 131.2848 
L 103.33993 127.9584 
L 103.33993 124.632 
L 103.33993 121.3056 
L 103.33993 117.9792 
L 103.33993 114.6528 
L 103.33993 111.3264 
L 103.33993 108 
L 103.33993 104.6736 
L 103.33993 101.3472 
L 103.33993 98.0208 
L 103.33993 94.6944 
L 103.33993 91.368 
L 103.33993 88.0416 
L 103.33993 84.7152 
L 103.33993 81.3888 
L 103.33993 78.0624 
L 103.33993 74.736 
L 103.33993 71.4096 
" clip-path="url(#pfb8c28374a)" style="fill: #00e4f8"/>
   </g>
   <g id="PathCollection_5">
    <path d="M 103.33993 132.431161 
L 103.089849 132.602838 
L 102.579885 132.951954 
L 101.553492 133.63692 
L 101.082144 133.947402 
L 100.065808 134.6112 
L 99.50352 134.974566 
L 99.30765 135.098469 
L 98.543278 135.58548 
L 97.881922 136.00148 
L 97.577012 136.188179 
L 96.983636 136.559668 
L 96.10697 137.0958 
L 95.506926 137.46945 
L 94.734624 137.9376 
L 94.252246 138.225305 
L 94.129514 138.296749 
L 93.115239 138.900984 
L 91.913762 139.597148 
L 91.510319 139.835412 
L 90.722126 140.28972 
L 90.71373 140.294557 
L 90.673558 140.317201 
L 89.386248 141.046729 
L 89.293824 141.099461 
L 88.999067 141.264 
L 87.859542 141.897256 
L 87.497237 142.094242 
L 87.234059 142.23828 
L 85.845559 142.989019 
L 85.30542 143.272605 
L 84.851691 143.51684 
L 83.761543 144.088574 
L 83.392374 144.286297 
L 82.807657 144.5904 
L 82.078778 144.963636 
L 81.922352 145.041602 
L 80.924699 145.551941 
L 79.784657 146.117674 
L 79.297239 146.364964 
L 78.554219 146.731879 
L 78.443476 146.788008 
L 78.129223 146.94252 
L 76.978047 147.501943 
L 76.786939 147.595393 
L 76.11469 147.9168 
L 75.235768 148.335378 
L 74.982634 148.45324 
L 74.047994 148.89108 
L 73.440783 149.17228 
L 73.241682 149.261555 
L 72.550201 149.580435 
L 71.988344 149.832125 
L 70.920194 150.322409 
L 69.907587 150.772435 
L 69.743201 150.847576 
L 68.852177 151.2432 
L 68.387646 151.446429 
L 68.156702 151.544142 
L 66.929056 152.07706 
L 66.585144 152.221907 
L 65.842903 152.543827 
L 64.367964 153.162496 
L 64.108747 153.274058 
L 63.339376 153.59532 
L 63.225397 153.642103 
L 61.815401 154.222086 
L 60.959646 154.5696 
L 59.963562 154.970826 
L 59.707432 155.071604 
L 58.513867 155.54388 
L 58.141605 155.689603 
L 58.039918 155.728012 
L 57.62857 155.882522 
L 57.62857 157.896 
L 57.62857 161.2224 
L 57.62857 164.5488 
L 57.62857 167.8752 
L 57.62857 171.2016 
L 57.62857 174.528 
L 57.62857 177.8544 
L 57.62857 181.1808 
L 57.62857 184.5072 
L 57.62857 186.361893 
L 57.969356 186.303295 
L 58.365208 186.225453 
L 59.815932 185.956009 
L 60.42394 185.835636 
L 60.910829 185.744885 
L 61.704807 185.587609 
L 62.616474 185.417043 
L 63.587533 185.22337 
L 63.849953 185.174097 
L 65.051478 184.934325 
L 65.411682 184.866433 
L 66.753853 184.596738 
L 66.786653 184.590533 
L 67.20113 184.5072 
L 68.201319 184.30366 
L 68.40828 184.258926 
L 69.720147 183.99007 
L 69.924812 183.945656 
L 70.985149 183.728211 
L 71.777909 183.555522 
L 72.65091 183.375214 
L 73.099067 183.277198 
L 73.763113 183.139956 
L 75.155743 182.834207 
L 75.578968 182.746105 
L 76.276432 182.592353 
L 76.535024 182.538485 
L 78.267534 182.15508 
L 78.46538 182.110886 
L 78.722471 182.052104 
L 79.786465 181.811782 
L 80.90378 181.560167 
L 81.142959 181.506571 
L 82.549484 181.1808 
L 83.330342 180.998743 
L 83.877278 180.868282 
L 85.282399 180.539506 
L 85.745971 180.427433 
L 86.664363 180.20652 
L 87.557187 179.989657 
L 87.704861 179.951768 
L 88.465555 179.76623 
L 88.788798 179.683225 
L 90.295193 179.314171 
L 90.903111 179.156845 
L 91.375314 179.040672 
L 92.232228 178.818709 
L 93.025825 178.622584 
L 94.10538 178.340742 
L 94.281635 178.296997 
L 95.686831 177.9298 
L 95.748827 177.914343 
L 95.976398 177.8544 
L 97.183905 177.53197 
L 97.313133 177.495741 
L 98.463643 177.188228 
L 99.16432 176.990929 
L 100.081766 176.743709 
L 100.527154 176.6177 
L 101.170265 176.444228 
L 102.655513 176.022144 
L 102.975757 175.935047 
L 103.33993 175.825196 
L 103.33993 174.528 
L 103.33993 171.2016 
L 103.33993 167.8752 
L 103.33993 164.5488 
L 103.33993 161.2224 
L 103.33993 157.896 
L 103.33993 154.5696 
L 103.33993 151.2432 
L 103.33993 147.9168 
L 103.33993 144.5904 
L 103.33993 141.264 
L 103.33993 137.9376 
L 103.33993 134.6112 
" clip-path="url(#pfb8c28374a)" style="fill: #53ffa4"/>
   </g>
   <g id="PathCollection_6">
    <path d="M 103.33993 175.825196 
L 102.975757 175.935047 
L 102.655513 176.022144 
L 101.170265 176.444228 
L 100.527154 176.6177 
L 100.081766 176.743709 
L 99.16432 176.990929 
L 98.463643 177.188228 
L 97.313133 177.495741 
L 97.183905 177.53197 
L 95.976398 177.8544 
L 95.748827 177.914343 
L 95.686831 177.9298 
L 94.281635 178.296997 
L 94.10538 178.340742 
L 93.025825 178.622584 
L 92.232228 178.818709 
L 91.375314 179.040672 
L 90.903111 179.156845 
L 90.295193 179.314171 
L 88.788798 179.683225 
L 88.465555 179.76623 
L 87.704861 179.951768 
L 87.557187 179.989657 
L 86.664363 180.20652 
L 85.745971 180.427433 
L 85.282399 180.539506 
L 83.877278 180.868282 
L 83.330342 180.998743 
L 82.549484 181.1808 
L 81.142959 181.506571 
L 80.90378 181.560167 
L 79.786465 181.811782 
L 78.722471 182.052104 
L 78.46538 182.110886 
L 78.267534 182.15508 
L 76.535024 182.538485 
L 76.276432 182.592353 
L 75.578968 182.746105 
L 75.155743 182.834207 
L 73.763113 183.139956 
L 73.099067 183.277198 
L 72.65091 183.375214 
L 71.777909 183.555522 
L 70.985149 183.728211 
L 69.924812 183.945656 
L 69.720147 183.99007 
L 68.40828 184.258926 
L 68.201319 184.30366 
L 67.20113 184.5072 
L 66.786653 184.590533 
L 66.753853 184.596738 
L 65.411682 184.866433 
L 65.051478 184.934325 
L 63.849953 185.174097 
L 63.587533 185.22337 
L 62.616474 185.417043 
L 61.704807 185.587609 
L 60.910829 185.744885 
L 60.42394 185.835636 
L 59.815932 185.956009 
L 58.365208 186.225453 
L 57.969356 186.303295 
L 57.62857 186.361893 
L 57.62857 187.8336 
L 57.62857 191.16 
L 57.62857 194.4864 
L 57.62857 197.8128 
L 57.62857 201.1392 
L 57.62857 204.4656 
L 57.62857 207.792 
L 57.62857 211.1184 
L 57.62857 212.884073 
L 57.961246 212.871755 
L 58.359498 212.849118 
L 59.912063 212.777072 
L 60.366201 212.751145 
L 60.980374 212.722618 
L 61.47786 212.694253 
L 62.891446 212.628531 
L 63.442881 212.596951 
L 63.999043 212.571069 
L 64.597387 212.536847 
L 65.869723 212.477578 
L 66.520044 212.440215 
L 67.017241 212.417033 
L 67.718114 212.376818 
L 68.846861 212.324136 
L 69.597704 212.280859 
L 70.034952 212.260432 
L 70.84008 212.214087 
L 71.822823 212.168129 
L 72.675876 212.1188 
L 73.052161 212.101186 
L 73.963324 212.048565 
L 74.797573 212.009474 
L 75.754579 211.95395 
L 76.068852 211.93921 
L 77.087887 211.880163 
L 77.771071 211.848087 
L 78.833827 211.786219 
L 79.085008 211.774415 
L 80.213813 211.708788 
L 80.743276 211.683879 
L 81.913641 211.615514 
L 82.100612 211.606709 
L 83.341146 211.534339 
L 83.714147 211.516755 
L 84.994037 211.441733 
L 85.115645 211.435994 
L 86.469934 211.356715 
L 86.683637 211.34662 
L 88.075037 211.264774 
L 88.130088 211.26217 
L 89.600226 211.175806 
L 89.651701 211.173369 
L 90.582859 211.1184 
L 91.143885 211.08494 
L 91.156756 211.084022 
L 92.61832 210.996964 
L 92.733338 210.988742 
L 94.156887 210.90352 
L 94.239552 210.897596 
L 95.583421 210.817246 
L 95.868704 210.796755 
L 97.169225 210.718599 
L 97.32304 210.707524 
L 98.546937 210.634067 
L 99.005822 210.600946 
L 100.180875 210.530055 
L 100.407244 210.513676 
L 101.508811 210.447303 
L 102.144754 210.401176 
L 103.191812 210.337757 
L 103.33993 210.32518 
L 103.33993 207.792 
L 103.33993 204.4656 
L 103.33993 201.1392 
L 103.33993 197.8128 
L 103.33993 194.4864 
L 103.33993 191.16 
L 103.33993 187.8336 
L 103.33993 184.5072 
L 103.33993 181.1808 
L 103.33993 177.8544 
" clip-path="url(#pfb8c28374a)" style="fill: #a4ff53"/>
   </g>
   <g id="PathCollection_7">
    <path d="M 103.33993 210.32518 
L 103.191812 210.337757 
L 102.144754 210.401176 
L 101.508811 210.447303 
L 100.407244 210.513676 
L 100.180875 210.530055 
L 99.005822 210.600946 
L 98.546937 210.634067 
L 97.32304 210.707524 
L 97.169225 210.718599 
L 95.868704 210.796755 
L 95.583421 210.817246 
L 94.239552 210.897596 
L 94.156887 210.90352 
L 92.733338 210.988742 
L 92.61832 210.996964 
L 91.156756 211.084022 
L 91.143885 211.08494 
L 90.582859 211.1184 
L 89.651701 211.173369 
L 89.600226 211.175806 
L 88.130088 211.26217 
L 88.075037 211.264774 
L 86.683637 211.34662 
L 86.469934 211.356715 
L 85.115645 211.435994 
L 84.994037 211.441733 
L 83.714147 211.516755 
L 83.341146 211.534339 
L 82.100612 211.606709 
L 81.913641 211.615514 
L 80.743276 211.683879 
L 80.213813 211.708788 
L 79.085008 211.774415 
L 78.833827 211.786219 
L 77.771071 211.848087 
L 77.087887 211.880163 
L 76.068852 211.93921 
L 75.754579 211.95395 
L 74.797573 212.009474 
L 73.963324 212.048565 
L 73.052161 212.101186 
L 72.675876 212.1188 
L 71.822823 212.168129 
L 70.84008 212.214087 
L 70.034952 212.260432 
L 69.597704 212.280859 
L 68.846861 212.324136 
L 67.718114 212.376818 
L 67.017241 212.417033 
L 66.520044 212.440215 
L 65.869723 212.477578 
L 64.597387 212.536847 
L 63.999043 212.571069 
L 63.442881 212.596951 
L 62.891446 212.628531 
L 61.47786 212.694253 
L 60.980374 212.722618 
L 60.366201 212.751145 
L 59.912063 212.777072 
L 58.359498 212.849118 
L 57.961246 212.871755 
L 57.62857 212.884073 
L 57.62857 214.4448 
L 57.62857 217.7712 
L 57.62857 221.0976 
L 57.62857 224.424 
L 57.62857 227.7504 
L 57.62857 231.0768 
L 57.62857 234.4032 
L 57.62857 237.1041 
L 57.746103 237.110148 
L 58.897789 237.17402 
L 59.396165 237.19718 
L 60.587632 237.263894 
L 60.762799 237.272096 
L 62.0226 237.342963 
L 62.369318 237.359321 
L 63.667148 237.433035 
L 63.778681 237.438338 
L 65.149544 237.516563 
L 65.340524 237.525712 
L 66.747539 237.606785 
L 66.793721 237.609014 
L 68.278696 237.69498 
L 68.30972 237.69649 
L 68.876083 237.7296 
L 69.807983 237.783795 
L 69.828816 237.785205 
L 71.277729 237.86986 
L 71.410369 237.878904 
L 72.821564 237.962162 
L 72.91098 237.968301 
L 74.24387 238.047309 
L 74.544452 238.06809 
L 75.83424 238.145298 
L 75.994099 238.156427 
L 77.207871 238.229429 
L 77.680974 238.262597 
L 78.845981 238.333364 
L 79.078205 238.34976 
L 80.169661 238.416375 
L 80.820021 238.462619 
L 81.856754 238.52653 
L 82.163335 238.548485 
L 83.129166 238.608311 
L 83.961687 238.668357 
L 84.866526 238.724973 
L 85.249524 238.752796 
L 86.086307 238.805407 
L 87.106068 238.880023 
L 87.875262 238.92888 
L 88.336812 238.962896 
L 89.041002 239.007842 
L 90.253266 239.09784 
L 90.882923 239.138443 
L 91.425239 239.179 
L 91.993166 239.215802 
L 93.403389 239.322041 
L 93.889473 239.353868 
L 94.514847 239.401329 
L 94.94271 239.429483 
L 96.556549 239.552872 
L 96.89487 239.575369 
L 97.605681 239.630121 
L 97.88954 239.64909 
L 99.712865 239.790592 
L 99.899072 239.803168 
L 100.697789 239.865621 
L 100.833557 239.874837 
L 102.872461 240.035473 
L 102.902034 240.037502 
L 103.33993 240.068797 
L 103.33993 237.7296 
L 103.33993 234.4032 
L 103.33993 231.0768 
L 103.33993 227.7504 
L 103.33993 224.424 
L 103.33993 221.0976 
L 103.33993 217.7712 
L 103.33993 214.4448 
L 103.33993 211.1184 
" clip-path="url(#pfb8c28374a)" style="fill: #f8f500"/>
   </g>
   <g id="PathCollection_8">
    <path d="M 103.33993 240.068797 
L 102.902034 240.037502 
L 102.872461 240.035473 
L 100.833557 239.874837 
L 100.697789 239.865621 
L 99.899072 239.803168 
L 99.712865 239.790592 
L 97.88954 239.64909 
L 97.605681 239.630121 
L 96.89487 239.575369 
L 96.556549 239.552872 
L 94.94271 239.429483 
L 94.514847 239.401329 
L 93.889473 239.353868 
L 93.403389 239.322041 
L 91.993166 239.215802 
L 91.425239 239.179 
L 90.882923 239.138443 
L 90.253266 239.09784 
L 89.041002 239.007842 
L 88.336812 238.962896 
L 87.875262 238.92888 
L 87.106068 238.880023 
L 86.086307 238.805407 
L 85.249524 238.752796 
L 84.866526 238.724973 
L 83.961687 238.668357 
L 83.129166 238.608311 
L 82.163335 238.548485 
L 81.856754 238.52653 
L 80.820021 238.462619 
L 80.169661 238.416375 
L 79.078205 238.34976 
L 78.845981 238.333364 
L 77.680974 238.262597 
L 77.207871 238.229429 
L 75.994099 238.156427 
L 75.83424 238.145298 
L 74.544452 238.06809 
L 74.24387 238.047309 
L 72.91098 237.968301 
L 72.821564 237.962162 
L 71.410369 237.878904 
L 71.277729 237.86986 
L 69.828816 237.785205 
L 69.807983 237.783795 
L 68.876083 237.7296 
L 68.30972 237.69649 
L 68.278696 237.69498 
L 66.793721 237.609014 
L 66.747539 237.606785 
L 65.340524 237.525712 
L 65.149544 237.516563 
L 63.778681 237.438338 
L 63.667148 237.433035 
L 62.369318 237.359321 
L 62.0226 237.342963 
L 60.762799 237.272096 
L 60.587632 237.263894 
L 59.396165 237.19718 
L 58.897789 237.17402 
L 57.746103 237.110148 
L 57.62857 237.1041 
L 57.62857 237.7296 
L 57.62857 241.056 
L 57.62857 244.3824 
L 57.62857 247.7088 
L 57.62857 251.0352 
L 57.62857 254.3616 
L 57.62857 257.688 
L 57.62857 260.242212 
L 57.962074 260.286331 
L 58.415265 260.347942 
L 59.699863 260.519241 
L 61.772442 260.803093 
L 61.999912 260.833733 
L 62.347681 260.880591 
L 62.444012 260.893576 
L 63.314538 261.0144 
L 64.824565 261.223383 
L 64.989975 261.246936 
L 65.600455 261.3339 
L 67.197038 261.557186 
L 67.626032 261.618921 
L 69.216253 261.847861 
L 70.194078 261.98868 
L 70.262667 261.998607 
L 70.269581 261.999661 
L 72.280363 262.29222 
L 72.482902 262.323339 
L 73.227804 262.432296 
L 73.537015 262.479963 
L 75.134204 262.71483 
L 75.61889 262.790109 
L 76.191281 262.874733 
L 76.809393 262.971058 
L 77.984264 263.145694 
L 78.756797 263.266998 
L 79.153042 263.326218 
L 80.086902 263.473354 
L 80.830418 263.585083 
L 81.896695 263.754373 
L 82.113026 263.787061 
L 83.369736 263.987275 
L 83.672537 264.033282 
L 85.038655 264.252621 
L 85.071174 264.25759 
L 85.587631 264.3408 
L 86.511019 264.489421 
L 86.658634 264.514435 
L 88.027733 264.736487 
L 88.182903 264.762929 
L 89.346419 264.952289 
L 89.954348 265.056474 
L 90.982449 265.225098 
L 91.329363 265.284891 
L 92.177543 265.424491 
L 93.255982 265.611437 
L 93.935192 265.724109 
L 94.478082 265.818762 
L 95.004242 265.906354 
L 96.563775 266.179846 
L 96.88589 266.233899 
L 97.629149 266.365006 
L 97.82636 266.398218 
L 99.487227 266.69292 
L 99.787399 266.746111 
L 100.408547 266.856245 
L 101.048099 266.972617 
L 102.33015 267.202469 
L 103.200177 267.362107 
L 103.33993 267.386994 
L 103.33993 264.3408 
L 103.33993 261.0144 
L 103.33993 257.688 
L 103.33993 254.3616 
L 103.33993 251.0352 
L 103.33993 247.7088 
L 103.33993 244.3824 
L 103.33993 241.056 
" clip-path="url(#pfb8c28374a)" style="fill: #ff9400"/>
   </g>
   <g id="PathCollection_9">
    <path d="M 103.33993 267.386994 
L 103.200177 267.362107 
L 102.33015 267.202469 
L 101.048099 266.972617 
L 100.408547 266.856245 
L 99.787399 266.746111 
L 99.487227 266.69292 
L 97.82636 266.398218 
L 97.629149 266.365006 
L 96.88589 266.233899 
L 96.563775 266.179846 
L 95.004242 265.906354 
L 94.478082 265.818762 
L 93.935192 265.724109 
L 93.255982 265.611437 
L 92.177543 265.424491 
L 91.329363 265.284891 
L 90.982449 265.225098 
L 89.954348 265.056474 
L 89.346419 264.952289 
L 88.182903 264.762929 
L 88.027733 264.736487 
L 86.658634 264.514435 
L 86.511019 264.489421 
L 85.587631 264.3408 
L 85.071174 264.25759 
L 85.038655 264.252621 
L 83.672537 264.033282 
L 83.369736 263.987275 
L 82.113026 263.787061 
L 81.896695 263.754373 
L 80.830418 263.585083 
L 80.086902 263.473354 
L 79.153042 263.326218 
L 78.756797 263.266998 
L 77.984264 263.145694 
L 76.809393 262.971058 
L 76.191281 262.874733 
L 75.61889 262.790109 
L 75.134204 262.71483 
L 73.537015 262.479963 
L 73.227804 262.432296 
L 72.482902 262.323339 
L 72.280363 262.29222 
L 70.269581 261.999661 
L 70.262667 261.998607 
L 70.194078 261.98868 
L 69.216253 261.847861 
L 67.626032 261.618921 
L 67.197038 261.557186 
L 65.600455 261.3339 
L 64.989975 261.246936 
L 64.824565 261.223383 
L 63.314538 261.0144 
L 62.444012 260.893576 
L 62.347681 260.880591 
L 61.999912 260.833733 
L 61.772442 260.803093 
L 59.699863 260.519241 
L 58.415265 260.347942 
L 57.962074 260.286331 
L 57.62857 260.242212 
L 57.62857 261.0144 
L 57.62857 264.3408 
L 57.62857 267.6672 
L 57.62857 270.9936 
L 57.62857 274.32 
L 57.62857 277.6464 
L 57.62857 280.9728 
L 57.62857 283.539867 
L 57.767628 283.566303 
L 58.924536 283.802012 
L 59.341917 283.885208 
L 60.648241 284.152932 
L 60.701715 284.163638 
L 61.361039 284.2992 
L 62.127014 284.457893 
L 62.288081 284.492131 
L 63.633617 284.772488 
L 63.820802 284.812459 
L 64.907937 285.039689 
L 65.660251 285.201082 
L 66.563684 285.391012 
L 66.995663 285.48411 
L 67.685175 285.629529 
L 69.038128 285.922489 
L 69.491998 286.018776 
L 70.172627 286.166843 
L 70.458594 286.227705 
L 72.396569 286.65132 
L 72.414942 286.655355 
L 73.030127 286.79071 
L 73.608822 286.919749 
L 74.862618 287.197687 
L 75.13316 287.257767 
L 76.767179 287.6256 
L 77.3031 287.746523 
L 77.661057 287.828365 
L 78.006874 287.907523 
L 79.736734 288.301552 
L 81.029043 288.59988 
L 81.510529 288.71154 
L 81.586277 288.729532 
L 82.393938 288.917731 
L 82.625082 288.97283 
L 84.26265 289.356213 
L 84.775968 289.479344 
L 85.310925 289.605195 
L 86.042889 289.781409 
L 87.01053 290.010144 
L 87.968125 290.242151 
L 88.225877 290.30338 
L 89.467739 290.605363 
L 89.754003 290.673697 
L 90.891086 290.952 
L 91.138668 291.012957 
L 91.162959 291.01907 
L 92.492715 291.347644 
L 92.902673 291.451332 
L 94.04884 291.736333 
L 94.361558 291.815828 
L 95.226773 292.03175 
L 96.347108 292.318044 
L 96.956835 292.471186 
L 97.562864 292.626852 
L 97.956182 292.726004 
L 99.799439 293.201992 
L 99.862559 293.218008 
L 100.194286 293.30412 
L 100.551271 293.39686 
L 100.960336 293.504456 
L 102.287712 293.852044 
L 103.263005 294.110467 
L 103.33993 294.131073 
L 103.33993 290.952 
L 103.33993 287.6256 
L 103.33993 284.2992 
L 103.33993 280.9728 
L 103.33993 277.6464 
L 103.33993 274.32 
L 103.33993 270.9936 
L 103.33993 267.6672 
" clip-path="url(#pfb8c28374a)" style="fill: #ff3800"/>
   </g>
   <g id="PathCollection_10">
    <path d="M 103.33993 294.131073 
L 103.263005 294.110467 
L 102.287712 293.852044 
L 100.960336 293.504456 
L 100.551271 293.39686 
L 100.194286 293.30412 
L 99.862559 293.218008 
L 99.799439 293.201992 
L 97.956182 292.726004 
L 97.562864 292.626852 
L 96.956835 292.471186 
L 96.347108 292.318044 
L 95.226773 292.03175 
L 94.361558 291.815828 
L 94.04884 291.736333 
L 92.902673 291.451332 
L 92.492715 291.347644 
L 91.162959 291.01907 
L 91.138668 291.012957 
L 90.891086 290.952 
L 89.754003 290.673697 
L 89.467739 290.605363 
L 88.225877 290.30338 
L 87.968125 290.242151 
L 87.01053 290.010144 
L 86.042889 289.781409 
L 85.310925 289.605195 
L 84.775968 289.479344 
L 84.26265 289.356213 
L 82.625082 288.97283 
L 82.393938 288.917731 
L 81.586277 288.729532 
L 81.510529 288.71154 
L 81.029043 288.59988 
L 79.736734 288.301552 
L 78.006874 287.907523 
L 77.661057 287.828365 
L 77.3031 287.746523 
L 76.767179 287.6256 
L 75.13316 287.257767 
L 74.862618 287.197687 
L 73.608822 286.919749 
L 73.030127 286.79071 
L 72.414942 286.655355 
L 72.396569 286.65132 
L 70.458594 286.227705 
L 70.172627 286.166843 
L 69.491998 286.018776 
L 69.038128 285.922489 
L 67.685175 285.629529 
L 66.995663 285.48411 
L 66.563684 285.391012 
L 65.660251 285.201082 
L 64.907937 285.039689 
L 63.820802 284.812459 
L 63.633617 284.772488 
L 62.288081 284.492131 
L 62.127014 284.457893 
L 61.361039 284.2992 
L 60.701715 284.163638 
L 60.648241 284.152932 
L 59.341917 283.885208 
L 58.924536 283.802012 
L 57.767628 283.566303 
L 57.62857 283.539867 
L 57.62857 284.2992 
L 57.62857 287.6256 
L 57.62857 290.952 
L 57.62857 294.2784 
L 57.62857 297.6048 
L 57.62857 300.9312 
L 57.62857 304.2576 
L 57.62857 307.584 
L 59.152282 307.584 
L 60.675994 307.584 
L 62.199706 307.584 
L 63.723418 307.584 
L 65.24713 307.584 
L 66.770842 307.584 
L 68.294554 307.584 
L 69.818266 307.584 
L 71.341978 307.584 
L 72.86569 307.584 
L 74.389402 307.584 
L 75.913114 307.584 
L 77.436826 307.584 
L 78.960538 307.584 
L 80.48425 307.584 
L 82.007962 307.584 
L 83.531674 307.584 
L 85.055386 307.584 
L 86.579098 307.584 
L 88.10281 307.584 
L 89.626522 307.584 
L 91.150234 307.584 
L 92.673946 307.584 
L 94.197658 307.584 
L 95.72137 307.584 
L 97.245082 307.584 
L 98.768794 307.584 
L 100.292506 307.584 
L 101.816218 307.584 
L 103.33993 307.584 
L 103.33993 304.2576 
L 103.33993 300.9312 
L 103.33993 297.6048 
L 103.33993 294.2784 
" clip-path="url(#pfb8c28374a)" style="fill: #b60000"/>
   </g>
   <g id="PathCollection_11">
    <path clip-path="url(#pfb8c28374a)" style="fill: #0000b6"/>
   </g>
   <g id="PathCollection_12">
    <path clip-path="url(#pfb8c28374a)" style="fill: #0018ff"/>
   </g>
   <g id="PathCollection_13">
    <path d="M 100.4544 74.278412 
L 101.954677 72.052267 
L 104.482311 68.0832 
L 106.095335 65.39428 
L 108.178033 61.81088 
L 109.367113 59.584092 
L 109.581025 59.2128 
L 109.878644 58.609321 
L 110.978062 56.61472 
L 112.152169 54.290713 
L 114.095542 50.3424 
L 115.496268 47.306433 
L 116.96887 44.07008 
L 117.628399 42.550905 
L 118.103793 41.472 
L 116.64384 41.472 
L 108.54912 41.472 
L 100.4544 41.472 
L 100.4544 50.3424 
L 100.4544 59.2128 
L 100.4544 68.0832 
" clip-path="url(#pfb8c28374a)" style="fill: #0080ff"/>
   </g>
   <g id="PathCollection_14">
    <path d="M 118.103793 41.472 
L 117.628399 42.550905 
L 116.96887 44.07008 
L 115.496268 47.306433 
L 114.095542 50.3424 
L 112.152169 54.290713 
L 110.978062 56.61472 
L 109.878644 58.609321 
L 109.581025 59.2128 
L 109.367113 59.584092 
L 108.178033 61.81088 
L 106.095335 65.39428 
L 104.482311 68.0832 
L 101.954677 72.052267 
L 100.4544 74.278412 
L 100.4544 76.9536 
L 100.4544 85.824 
L 100.4544 94.6944 
L 100.4544 103.5648 
L 100.4544 112.4352 
L 100.4544 121.3056 
L 100.4544 130.176 
L 100.4544 134.2896 
L 102.81878 132.791299 
L 102.832986 132.782515 
L 102.845601 132.77408 
L 102.88282 132.747966 
L 106.616993 130.176 
L 107.371405 129.641429 
L 110.200483 127.57792 
L 112.596255 125.740554 
L 116.034668 122.917198 
L 116.973934 122.178882 
L 118.029363 121.3056 
L 121.768111 118.050506 
L 125.020846 115.03328 
L 126.739687 113.343523 
L 127.680738 112.4352 
L 129.902359 110.091322 
L 130.156293 109.83712 
L 130.311651 109.671935 
L 130.682359 109.255183 
L 133.728396 105.93288 
L 135.816093 103.5648 
L 138.256931 100.637775 
L 140.906338 97.29248 
L 142.348038 95.338964 
L 142.545518 95.095948 
L 142.844195 94.6944 
L 143.218113 94.125881 
L 143.705123 93.433848 
L 144.696339 92.09632 
L 145.537527 90.875237 
L 148.864077 85.824 
L 148.962634 85.66504 
L 149.284152 85.132367 
L 152.178957 80.412285 
L 152.685539 79.55168 
L 153.104647 78.77503 
L 154.198806 76.9536 
L 154.541638 76.314159 
L 154.752425 75.880106 
L 155.60065 74.35552 
L 158.192204 69.260954 
L 158.770854 68.0832 
L 160.45033 64.430934 
L 161.6982 61.81088 
L 161.885007 61.376826 
L 162.915768 59.2128 
L 163.509267 57.626034 
L 163.920512 56.61472 
L 165.803994 51.90813 
L 166.42181 50.3424 
L 168.398066 44.963196 
L 168.719776 44.07008 
L 168.91084 43.467388 
L 169.622858 41.472 
L 165.21216 41.472 
L 157.11744 41.472 
L 149.02272 41.472 
L 140.928 41.472 
L 132.83328 41.472 
L 124.73856 41.472 
" clip-path="url(#pfb8c28374a)" style="fill: #00e4f8"/>
   </g>
   <g id="PathCollection_15">
    <path d="M 169.622858 41.472 
L 168.91084 43.467388 
L 168.719776 44.07008 
L 168.398066 44.963196 
L 166.42181 50.3424 
L 165.803994 51.90813 
L 163.920512 56.61472 
L 163.509267 57.626034 
L 162.915768 59.2128 
L 161.885007 61.376826 
L 161.6982 61.81088 
L 160.45033 64.430934 
L 158.770854 68.0832 
L 158.192204 69.260954 
L 155.60065 74.35552 
L 154.752425 75.880106 
L 154.541638 76.314159 
L 154.198806 76.9536 
L 153.104647 78.77503 
L 152.685539 79.55168 
L 152.178957 80.412285 
L 149.284152 85.132367 
L 148.962634 85.66504 
L 148.864077 85.824 
L 145.537527 90.875237 
L 144.696339 92.09632 
L 143.705123 93.433848 
L 143.218113 94.125881 
L 142.844195 94.6944 
L 142.545518 95.095948 
L 142.348038 95.338964 
L 140.906338 97.29248 
L 138.256931 100.637775 
L 135.816093 103.5648 
L 133.728396 105.93288 
L 130.682359 109.255183 
L 130.311651 109.671935 
L 130.156293 109.83712 
L 129.902359 110.091322 
L 127.680738 112.4352 
L 126.739687 113.343523 
L 125.020846 115.03328 
L 121.768111 118.050506 
L 118.029363 121.3056 
L 116.973934 122.178882 
L 116.034668 122.917198 
L 112.596255 125.740554 
L 110.200483 127.57792 
L 107.371405 129.641429 
L 106.616993 130.176 
L 102.88282 132.747966 
L 102.845601 132.77408 
L 102.832986 132.782515 
L 102.81878 132.791299 
L 100.4544 134.2896 
L 100.4544 139.0464 
L 100.4544 147.9168 
L 100.4544 156.7872 
L 100.4544 165.6576 
L 100.4544 174.528 
L 100.4544 176.60222 
L 101.175992 176.437012 
L 107.817058 174.528 
L 108.392258 174.356107 
L 108.848043 174.200432 
L 115.708721 172.054091 
L 117.865423 171.296234 
L 120.913341 170.336228 
L 126.685555 168.25568 
L 128.755922 167.481104 
L 130.115736 166.99248 
L 133.448628 165.6576 
L 136.289252 164.506034 
L 137.341368 164.029607 
L 139.581417 163.05952 
L 144.589995 160.800107 
L 148.193467 158.981036 
L 149.604151 158.325409 
L 152.621493 156.7872 
L 155.643822 155.172371 
L 162.056038 151.375359 
L 162.970462 150.856661 
L 163.525159 150.51488 
L 164.730276 149.806681 
L 167.621941 147.9168 
L 169.155279 146.886168 
L 169.863446 146.353805 
L 171.329253 145.31872 
L 175.916563 141.906157 
L 179.429738 139.0464 
L 180.918569 137.768514 
L 182.393589 136.422038 
L 185.016584 134.137392 
L 186.455975 132.77408 
L 188.656531 130.557185 
L 189.056366 130.176 
L 189.143703 130.088463 
L 189.189672 130.036811 
L 191.571811 127.57792 
L 193.391934 125.574513 
L 196.994632 121.3056 
L 197.39904 120.797653 
L 198.163372 119.791462 
L 200.997522 116.16811 
L 201.82599 115.03328 
L 202.650241 113.81304 
L 203.670672 112.4352 
L 203.962511 112.007405 
L 204.130594 111.729301 
L 205.4162 109.83712 
L 207.856601 105.943663 
L 209.25952 103.5648 
L 211.944806 98.70842 
L 212.700246 97.29248 
L 213.14437 96.545995 
L 214.130367 94.6944 
L 215.176418 92.338351 
L 215.295095 92.09632 
L 215.769325 91.085602 
L 218.16724 85.824 
L 219.345422 83.051805 
L 220.770102 79.55168 
L 221.675741 77.044136 
L 221.714818 76.9536 
L 221.736444 76.890618 
L 222.722648 74.35552 
L 224.057927 70.475088 
L 224.852324 68.0832 
L 226.362917 63.165446 
L 226.808503 61.81088 
L 226.899112 61.493183 
L 227.665546 59.2128 
L 228.264516 56.779926 
L 228.29932 56.61472 
L 229.9559 50.379492 
L 229.965894 50.3424 
L 229.967487 50.335963 
L 231.505364 44.07008 
L 231.673861 43.339221 
L 232.120994 41.472 
L 229.96992 41.472 
L 221.8752 41.472 
L 213.78048 41.472 
L 205.68576 41.472 
L 197.59104 41.472 
L 189.49632 41.472 
L 181.4016 41.472 
L 173.30688 41.472 
" clip-path="url(#pfb8c28374a)" style="fill: #53ffa4"/>
   </g>
   <g id="PathCollection_16">
    <path d="M 232.120994 41.472 
L 231.673861 43.339221 
L 231.505364 44.07008 
L 229.967487 50.335963 
L 229.965894 50.3424 
L 229.9559 50.379492 
L 228.29932 56.61472 
L 228.264516 56.779926 
L 227.665546 59.2128 
L 226.899112 61.493183 
L 226.808503 61.81088 
L 226.362917 63.165446 
L 224.852324 68.0832 
L 224.057927 70.475088 
L 222.722648 74.35552 
L 221.736444 76.890618 
L 221.714818 76.9536 
L 221.675741 77.044136 
L 220.770102 79.55168 
L 219.345422 83.051805 
L 218.16724 85.824 
L 215.769325 91.085602 
L 215.295095 92.09632 
L 215.176418 92.338351 
L 214.130367 94.6944 
L 213.14437 96.545995 
L 212.700246 97.29248 
L 211.944806 98.70842 
L 209.25952 103.5648 
L 207.856601 105.943663 
L 205.4162 109.83712 
L 204.130594 111.729301 
L 203.962511 112.007405 
L 203.670672 112.4352 
L 202.650241 113.81304 
L 201.82599 115.03328 
L 200.997522 116.16811 
L 198.163372 119.791462 
L 197.39904 120.797653 
L 196.994632 121.3056 
L 193.391934 125.574513 
L 191.571811 127.57792 
L 189.189672 130.036811 
L 189.143703 130.088463 
L 189.056366 130.176 
L 188.656531 130.557185 
L 186.455975 132.77408 
L 185.016584 134.137392 
L 182.393589 136.422038 
L 180.918569 137.768514 
L 179.429738 139.0464 
L 175.916563 141.906157 
L 171.329253 145.31872 
L 169.863446 146.353805 
L 169.155279 146.886168 
L 167.621941 147.9168 
L 164.730276 149.806681 
L 163.525159 150.51488 
L 162.970462 150.856661 
L 162.056038 151.375359 
L 155.643822 155.172371 
L 152.621493 156.7872 
L 149.604151 158.325409 
L 148.193467 158.981036 
L 144.589995 160.800107 
L 139.581417 163.05952 
L 137.341368 164.029607 
L 136.289252 164.506034 
L 133.448628 165.6576 
L 130.115736 166.99248 
L 128.755922 167.481104 
L 126.685555 168.25568 
L 120.913341 170.336228 
L 117.865423 171.296234 
L 115.708721 172.054091 
L 108.848043 174.200432 
L 108.392258 174.356107 
L 107.817058 174.528 
L 101.175992 176.437012 
L 100.4544 176.60222 
L 100.4544 183.3984 
L 100.4544 192.2688 
L 100.4544 201.1392 
L 100.4544 210.0096 
L 100.4544 210.50483 
L 100.640335 210.501502 
L 108.225331 210.0096 
L 108.530518 209.989215 
L 108.571506 209.985069 
L 116.429963 209.443776 
L 116.875061 209.397892 
L 123.750317 208.926658 
L 125.936223 208.69717 
L 132.170251 208.25552 
L 133.552298 208.107398 
L 138.85117 207.733757 
L 143.465322 207.229138 
L 147.850581 206.908639 
L 150.298392 206.634736 
L 153.804842 206.379571 
L 161.202686 205.532884 
L 163.455552 205.362394 
L 167.131946 204.930699 
L 168.572967 204.822058 
L 177.578902 203.73728 
L 178.718632 203.595625 
L 181.743027 203.233468 
L 186.406219 202.541814 
L 191.194412 201.909974 
L 192.125317 201.791847 
L 196.235707 201.1392 
L 203.180305 200.001959 
L 210.995764 198.54112 
L 211.347376 198.472943 
L 211.444795 198.447987 
L 215.784712 197.571109 
L 217.426623 197.143664 
L 224.881899 195.563618 
L 229.184018 194.347949 
L 230.63391 194.025424 
L 236.723939 192.2688 
L 237.774191 191.950519 
L 238.668931 191.606603 
L 245.097474 189.45952 
L 247.611988 188.42579 
L 249.999329 187.606335 
L 253.658034 185.99648 
L 256.789506 184.549244 
L 257.549799 184.21656 
L 259.070411 183.3984 
L 262.742729 181.291099 
L 263.6677 180.80032 
L 264.524984 180.285217 
L 266.364969 178.99738 
L 271.452025 175.633145 
L 272.813594 174.528 
L 277.13248 170.808983 
L 279.718821 168.25568 
L 279.98315 168.025806 
L 282.194596 165.6576 
L 283.416519 164.197639 
L 284.325306 163.05952 
L 287.918951 158.196421 
L 288.794982 156.7872 
L 292.389386 150.60111 
L 292.43447 150.51488 
L 292.444251 150.493168 
L 293.868842 147.9168 
L 294.788874 145.922483 
L 294.993906 145.31872 
L 296.130003 142.756324 
L 297.634544 139.0464 
L 299.148359 135.020293 
L 299.878326 132.77408 
L 300.284252 131.32808 
L 300.71546 130.176 
L 300.956756 129.329173 
L 301.49429 127.57792 
L 303.075283 121.582716 
L 303.138584 121.3056 
L 303.231956 120.856798 
L 304.666092 115.03328 
L 304.995226 113.421458 
L 305.111113 113.003371 
L 305.230101 112.4352 
L 305.30401 111.819142 
L 305.403118 111.263797 
L 305.743385 109.83712 
L 306.241147 107.31115 
L 306.899197 103.5648 
L 307.752625 98.162135 
L 307.920056 97.29248 
L 307.960393 97.026564 
L 308.415686 94.6944 
L 308.681175 92.12982 
L 308.68303 92.09632 
L 308.753051 91.549167 
L 309.545312 85.824 
L 309.881185 83.083375 
L 310.297855 79.55168 
L 310.431054 78.842443 
L 310.708079 76.9536 
L 310.815958 74.969205 
L 310.871841 74.35552 
L 311.380622 69.30942 
L 311.501075 68.0832 
L 311.668769 66.09467 
L 312.07433 61.81088 
L 312.120777 61.521116 
L 312.414671 59.2128 
L 312.49527 56.811517 
L 312.507702 56.61472 
L 312.644668 54.912725 
L 313.010427 50.3424 
L 313.420789 44.215584 
L 313.43061 44.07008 
L 313.432491 44.004499 
L 313.629169 41.472 
L 310.91712 41.472 
L 302.8224 41.472 
L 294.72768 41.472 
L 286.63296 41.472 
L 278.53824 41.472 
L 270.44352 41.472 
L 262.3488 41.472 
L 254.25408 41.472 
L 246.15936 41.472 
L 238.06464 41.472 
" clip-path="url(#pfb8c28374a)" style="fill: #a4ff53"/>
   </g>
   <g id="PathCollection_17">
    <path d="M 313.629169 41.472 
L 313.432491 44.004499 
L 313.43061 44.07008 
L 313.420789 44.215584 
L 313.010427 50.3424 
L 312.644668 54.912725 
L 312.507702 56.61472 
L 312.49527 56.811517 
L 312.414671 59.2128 
L 312.120777 61.521116 
L 312.07433 61.81088 
L 311.668769 66.09467 
L 311.501075 68.0832 
L 311.380622 69.30942 
L 310.871841 74.35552 
L 310.815958 74.969205 
L 310.708079 76.9536 
L 310.431054 78.842443 
L 310.297855 79.55168 
L 309.881185 83.083375 
L 309.545312 85.824 
L 308.753051 91.549167 
L 308.68303 92.09632 
L 308.681175 92.12982 
L 308.415686 94.6944 
L 307.960393 97.026564 
L 307.920056 97.29248 
L 307.752625 98.162135 
L 306.899197 103.5648 
L 306.241147 107.31115 
L 305.743385 109.83712 
L 305.403118 111.263797 
L 305.30401 111.819142 
L 305.230101 112.4352 
L 305.111113 113.003371 
L 304.995226 113.421458 
L 304.666092 115.03328 
L 303.231956 120.856798 
L 303.138584 121.3056 
L 303.075283 121.582716 
L 301.49429 127.57792 
L 300.956756 129.329173 
L 300.71546 130.176 
L 300.284252 131.32808 
L 299.878326 132.77408 
L 299.148359 135.020293 
L 297.634544 139.0464 
L 296.130003 142.756324 
L 294.993906 145.31872 
L 294.788874 145.922483 
L 293.868842 147.9168 
L 292.444251 150.493168 
L 292.43447 150.51488 
L 292.389386 150.60111 
L 288.794982 156.7872 
L 287.918951 158.196421 
L 284.325306 163.05952 
L 283.416519 164.197639 
L 282.194596 165.6576 
L 279.98315 168.025806 
L 279.718821 168.25568 
L 277.13248 170.808983 
L 272.813594 174.528 
L 271.452025 175.633145 
L 266.364969 178.99738 
L 264.524984 180.285217 
L 263.6677 180.80032 
L 262.742729 181.291099 
L 259.070411 183.3984 
L 257.549799 184.21656 
L 256.789506 184.549244 
L 253.658034 185.99648 
L 249.999329 187.606335 
L 247.611988 188.42579 
L 245.097474 189.45952 
L 238.668931 191.606603 
L 237.774191 191.950519 
L 236.723939 192.2688 
L 230.63391 194.025424 
L 229.184018 194.347949 
L 224.881899 195.563618 
L 217.426623 197.143664 
L 215.784712 197.571109 
L 211.444795 198.447987 
L 211.347376 198.472943 
L 210.995764 198.54112 
L 203.180305 200.001959 
L 196.235707 201.1392 
L 192.125317 201.791847 
L 191.194412 201.909974 
L 186.406219 202.541814 
L 181.743027 203.233468 
L 178.718632 203.595625 
L 177.578902 203.73728 
L 168.572967 204.822058 
L 167.131946 204.930699 
L 163.455552 205.362394 
L 161.202686 205.532884 
L 153.804842 206.379571 
L 150.298392 206.634736 
L 147.850581 206.908639 
L 143.465322 207.229138 
L 138.85117 207.733757 
L 133.552298 208.107398 
L 132.170251 208.25552 
L 125.936223 208.69717 
L 123.750317 208.926658 
L 116.875061 209.397892 
L 116.429963 209.443776 
L 108.571506 209.985069 
L 108.530518 209.989215 
L 108.225331 210.0096 
L 100.640335 210.501502 
L 100.4544 210.50483 
L 100.4544 218.88 
L 100.4544 227.7504 
L 100.4544 236.6208 
L 100.4544 239.820941 
L 102.531796 239.995331 
L 103.636924 240.108291 
L 112.81862 240.812573 
L 114.962763 241.043815 
L 118.226284 241.304754 
L 121.220037 241.635513 
L 127.759222 242.181082 
L 131.75895 242.649 
L 133.839057 242.83036 
L 139.073172 243.458632 
L 142.497742 243.771037 
L 148.670286 244.558817 
L 149.350567 244.623863 
L 155.961835 245.4912 
L 156.996681 245.623531 
L 157.281314 245.670777 
L 164.75893 246.690244 
L 165.729139 246.858897 
L 171.340254 247.646279 
L 176.059155 248.507213 
L 180.035398 249.105564 
L 182.98149 249.670887 
L 185.346918 250.03822 
L 193.872974 251.76352 
L 194.811158 251.949165 
L 205.621813 254.3616 
L 205.664431 254.371281 
L 205.761927 254.396173 
L 215.796363 256.95968 
L 216.11908 257.045101 
L 216.274193 257.094274 
L 225.183569 259.606605 
L 229.116645 260.974612 
L 230.648439 261.43694 
L 235.595118 263.232 
L 237.46733 263.886548 
L 239.416868 264.713806 
L 244.80807 266.806915 
L 248.077874 268.307537 
L 249.203733 268.766298 
L 250.679195 269.50432 
L 255.173725 271.684968 
L 255.430546 271.810343 
L 255.933269 272.1024 
L 257.238737 272.843339 
L 260.727742 274.70048 
L 264.015557 276.5633 
L 270.033267 280.523234 
L 270.555224 280.850392 
L 270.714996 280.9728 
L 276.842198 285.459776 
L 278.944761 287.24512 
L 279.435715 287.610894 
L 281.921698 289.8432 
L 283.543131 291.245691 
L 284.727738 292.44128 
L 288.777323 296.363753 
L 290.754231 298.7136 
L 293.537334 301.862728 
L 295.926049 304.98592 
L 296.47103 305.673592 
L 297.845331 307.584 
L 302.8224 307.584 
L 310.91712 307.584 
L 319.01184 307.584 
L 327.10656 307.584 
L 335.20128 307.584 
L 343.296 307.584 
L 343.296 298.7136 
L 343.296 289.8432 
L 343.296 280.9728 
L 343.296 272.1024 
L 343.296 263.232 
L 343.296 254.3616 
L 343.296 245.4912 
L 343.296 236.6208 
L 343.296 227.7504 
L 343.296 218.88 
L 343.296 210.0096 
L 343.296 201.1392 
L 343.296 192.2688 
L 343.296 183.3984 
L 343.296 174.528 
L 343.296 165.6576 
L 343.296 156.7872 
L 343.296 147.9168 
L 343.296 139.0464 
L 343.296 130.176 
L 343.296 121.3056 
L 343.296 112.4352 
L 343.296 103.5648 
L 343.296 94.6944 
L 343.296 85.824 
L 343.296 76.9536 
L 343.296 68.0832 
L 343.296 59.2128 
L 343.296 50.3424 
L 343.296 41.472 
L 335.20128 41.472 
L 327.10656 41.472 
L 319.01184 41.472 
" clip-path="url(#pfb8c28374a)" style="fill: #f8f500"/>
   </g>
   <g id="PathCollection_18">
    <path d="M 297.845331 307.584 
L 296.47103 305.673592 
L 295.926049 304.98592 
L 293.537334 301.862728 
L 290.754231 298.7136 
L 288.777323 296.363753 
L 284.727738 292.44128 
L 283.543131 291.245691 
L 281.921698 289.8432 
L 279.435715 287.610894 
L 278.944761 287.24512 
L 276.842198 285.459776 
L 270.714996 280.9728 
L 270.555224 280.850392 
L 270.033267 280.523234 
L 264.015557 276.5633 
L 260.727742 274.70048 
L 257.238737 272.843339 
L 255.933269 272.1024 
L 255.430546 271.810343 
L 255.173725 271.684968 
L 250.679195 269.50432 
L 249.203733 268.766298 
L 248.077874 268.307537 
L 244.80807 266.806915 
L 239.416868 264.713806 
L 237.46733 263.886548 
L 235.595118 263.232 
L 230.648439 261.43694 
L 229.116645 260.974612 
L 225.183569 259.606605 
L 216.274193 257.094274 
L 216.11908 257.045101 
L 215.796363 256.95968 
L 205.761927 254.396173 
L 205.664431 254.371281 
L 205.621813 254.3616 
L 194.811158 251.949165 
L 193.872974 251.76352 
L 185.346918 250.03822 
L 182.98149 249.670887 
L 180.035398 249.105564 
L 176.059155 248.507213 
L 171.340254 247.646279 
L 165.729139 246.858897 
L 164.75893 246.690244 
L 157.281314 245.670777 
L 156.996681 245.623531 
L 155.961835 245.4912 
L 149.350567 244.623863 
L 148.670286 244.558817 
L 142.497742 243.771037 
L 139.073172 243.458632 
L 133.839057 242.83036 
L 131.75895 242.649 
L 127.759222 242.181082 
L 121.220037 241.635513 
L 118.226284 241.304754 
L 114.962763 241.043815 
L 112.81862 240.812573 
L 103.636924 240.108291 
L 102.531796 239.995331 
L 100.4544 239.820941 
L 100.4544 245.4912 
L 100.4544 254.3616 
L 100.4544 263.232 
L 100.4544 266.85848 
L 101.931499 267.13975 
L 104.578215 267.583419 
L 114.233972 269.461605 
L 114.285673 269.470665 
L 114.453004 269.50432 
L 122.815634 271.229573 
L 125.458311 271.775701 
L 125.783029 271.843111 
L 126.925603 272.1024 
L 136.282174 274.211167 
L 138.299393 274.70048 
L 145.148623 276.347734 
L 147.518074 276.992173 
L 150.267992 277.678363 
L 155.42324 279.116252 
L 158.163449 279.826557 
L 162.051496 280.9728 
L 164.899392 281.800245 
L 165.611455 282.029158 
L 170.902876 283.607169 
L 177.8366 285.936582 
L 179.345102 286.413381 
L 181.711835 287.24512 
L 182.587705 287.539242 
L 188.902053 289.8432 
L 189.233712 289.962399 
L 192.832213 291.357381 
L 195.62464 292.44128 
L 199.391117 293.951394 
L 202.650522 295.387509 
L 207.034308 297.235827 
L 210.150419 298.7136 
L 213.239229 300.145509 
L 214.578952 300.826003 
L 218.309272 302.621235 
L 222.682465 304.98592 
L 224.955351 306.185902 
L 227.40364 307.584 
L 229.96992 307.584 
L 238.06464 307.584 
L 246.15936 307.584 
L 254.25408 307.584 
L 262.3488 307.584 
L 270.44352 307.584 
L 278.53824 307.584 
L 286.63296 307.584 
L 294.72768 307.584 
" clip-path="url(#pfb8c28374a)" style="fill: #ff9400"/>
   </g>
   <g id="PathCollection_19">
    <path d="M 227.40364 307.584 
L 224.955351 306.185902 
L 222.682465 304.98592 
L 218.309272 302.621235 
L 214.578952 300.826003 
L 213.239229 300.145509 
L 210.150419 298.7136 
L 207.034308 297.235827 
L 202.650522 295.387509 
L 199.391117 293.951394 
L 195.62464 292.44128 
L 192.832213 291.357381 
L 189.233712 289.962399 
L 188.902053 289.8432 
L 182.587705 287.539242 
L 181.711835 287.24512 
L 179.345102 286.413381 
L 177.8366 285.936582 
L 170.902876 283.607169 
L 165.611455 282.029158 
L 164.899392 281.800245 
L 162.051496 280.9728 
L 158.163449 279.826557 
L 155.42324 279.116252 
L 150.267992 277.678363 
L 147.518074 276.992173 
L 145.148623 276.347734 
L 138.299393 274.70048 
L 136.282174 274.211167 
L 126.925603 272.1024 
L 125.783029 271.843111 
L 125.458311 271.775701 
L 122.815634 271.229573 
L 114.453004 269.50432 
L 114.285673 269.470665 
L 114.233972 269.461605 
L 104.578215 267.583419 
L 101.931499 267.13975 
L 100.4544 266.85848 
L 100.4544 272.1024 
L 100.4544 280.9728 
L 100.4544 289.8432 
L 100.4544 293.394449 
L 102.290495 293.856107 
L 104.731342 294.529982 
L 110.87167 296.16849 
L 116.266224 297.714595 
L 116.950425 297.902513 
L 119.71566 298.7136 
L 123.668732 299.885945 
L 126.676811 300.837585 
L 131.472653 302.313215 
L 134.577064 303.32688 
L 136.240286 303.850517 
L 139.595597 304.98592 
L 143.638387 306.35374 
L 147.116335 307.584 
L 149.02272 307.584 
L 157.11744 307.584 
L 165.21216 307.584 
L 173.30688 307.584 
L 181.4016 307.584 
L 189.49632 307.584 
L 197.59104 307.584 
L 205.68576 307.584 
L 213.78048 307.584 
L 221.8752 307.584 
" clip-path="url(#pfb8c28374a)" style="fill: #ff3800"/>
   </g>
   <g id="PathCollection_20">
    <path d="M 147.116335 307.584 
L 143.638387 306.35374 
L 139.595597 304.98592 
L 136.240286 303.850517 
L 134.577064 303.32688 
L 131.472653 302.313215 
L 126.676811 300.837585 
L 123.668732 299.885945 
L 119.71566 298.7136 
L 116.950425 297.902513 
L 116.266224 297.714595 
L 110.87167 296.16849 
L 104.731342 294.529982 
L 102.290495 293.856107 
L 100.4544 293.394449 
L 100.4544 298.7136 
L 100.4544 307.584 
L 108.54912 307.584 
L 116.64384 307.584 
L 124.73856 307.584 
L 132.83328 307.584 
L 140.928 307.584 
" clip-path="url(#pfb8c28374a)" style="fill: #b60000"/>
   </g>
   <g id="matplotlib.axis_1">
    <g id="xtick_1">
     <g id="line2d_1">
      <defs>
       <path id="m0a0a3c8ea4" d="M 0 0 
L 0 3.5 
" style="stroke: #000000; stroke-width: 0.8"/>
      </defs>
      <g>
       <use xlink:href="#m0a0a3c8ea4" x="57.6" y="307.584" style="stroke: #000000; stroke-width: 0.8"/>
      </g>
     </g>
     <g id="text_1">
      <!-- 0.0 -->
      <g transform="translate(51.26875 321.385562) scale(0.1 -0.1)">
       <defs>
        <path id="Calibri-30" d="M 3022 2031 
Q 3022 1566 2948 1181 
Q 2875 797 2704 520 
Q 2534 244 2259 92 
Q 1984 -59 1581 -59 
Q 1200 -59 939 77 
Q 678 213 518 477 
Q 359 741 292 1127 
Q 225 1513 225 2013 
Q 225 2475 300 2861 
Q 375 3247 544 3523 
Q 713 3800 988 3951 
Q 1263 4103 1663 4103 
Q 2047 4103 2308 3967 
Q 2569 3831 2728 3567 
Q 2888 3303 2955 2917 
Q 3022 2531 3022 2031 
z
M 2472 1994 
Q 2472 2297 2450 2537 
Q 2428 2778 2386 2962 
Q 2344 3147 2276 3280 
Q 2209 3413 2115 3498 
Q 2022 3584 1901 3623 
Q 1781 3663 1631 3663 
Q 1366 3663 1200 3538 
Q 1034 3413 939 3194 
Q 844 2975 809 2681 
Q 775 2388 775 2050 
Q 775 1597 822 1280 
Q 869 963 970 763 
Q 1072 563 1230 472 
Q 1388 381 1613 381 
Q 1788 381 1920 437 
Q 2053 494 2148 598 
Q 2244 703 2306 850 
Q 2369 997 2406 1175 
Q 2444 1353 2458 1561 
Q 2472 1769 2472 1994 
z
" transform="scale(0.015625)"/>
        <path id="Calibri-2e" d="M 1144 341 
Q 1144 119 1070 45 
Q 997 -28 803 -28 
Q 616 -28 544 44 
Q 472 116 472 331 
Q 472 553 545 626 
Q 619 700 813 700 
Q 1000 700 1072 628 
Q 1144 556 1144 341 
z
" transform="scale(0.015625)"/>
       </defs>
       <use xlink:href="#Calibri-30"/>
       <use xlink:href="#Calibri-2e" x="50.683594"/>
       <use xlink:href="#Calibri-30" x="75.927734"/>
      </g>
     </g>
    </g>
    <g id="xtick_2">
     <g id="line2d_2">
      <g>
       <use xlink:href="#m0a0a3c8ea4" x="86.1696" y="307.584" style="stroke: #000000; stroke-width: 0.8"/>
      </g>
     </g>
     <g id="text_2">
      <!-- 0.1 -->
      <g transform="translate(79.83835 321.385562) scale(0.1 -0.1)">
       <defs>
        <path id="Calibri-31" d="M 2897 213 
Q 2897 153 2887 112 
Q 2878 72 2862 47 
Q 2847 22 2826 11 
Q 2806 0 2784 0 
L 672 0 
Q 650 0 631 11 
Q 613 22 595 47 
Q 578 72 568 112 
Q 559 153 559 213 
Q 559 269 568 309 
Q 578 350 592 376 
Q 606 403 626 417 
Q 647 431 672 431 
L 1516 431 
L 1516 3506 
L 734 3041 
Q 675 3009 639 3003 
Q 603 2997 581 3017 
Q 559 3038 551 3084 
Q 544 3131 544 3203 
Q 544 3256 548 3293 
Q 553 3331 562 3356 
Q 572 3381 589 3400 
Q 606 3419 634 3438 
L 1566 4034 
Q 1578 4044 1597 4050 
Q 1616 4056 1644 4062 
Q 1672 4069 1709 4070 
Q 1747 4072 1803 4072 
Q 1878 4072 1928 4065 
Q 1978 4059 2006 4048 
Q 2034 4038 2043 4020 
Q 2053 4003 2053 3984 
L 2053 431 
L 2784 431 
Q 2809 431 2831 417 
Q 2853 403 2867 376 
Q 2881 350 2889 309 
Q 2897 269 2897 213 
z
" transform="scale(0.015625)"/>
       </defs>
       <use xlink:href="#Calibri-30"/>
       <use xlink:href="#Calibri-2e" x="50.683594"/>
       <use xlink:href="#Calibri-31" x="75.927734"/>
      </g>
     </g>
    </g>
    <g id="xtick_3">
     <g id="line2d_3">
      <g>
       <use xlink:href="#m0a0a3c8ea4" x="114.7392" y="307.584" style="stroke: #000000; stroke-width: 0.8"/>
      </g>
     </g>
     <g id="text_3">
      <!-- 0.2 -->
      <g transform="translate(108.40795 321.385562) scale(0.1 -0.1)">
       <defs>
        <path id="Calibri-32" d="M 2888 231 
Q 2888 175 2880 131 
Q 2872 88 2858 58 
Q 2844 28 2820 14 
Q 2797 0 2769 0 
L 534 0 
Q 491 0 458 11 
Q 425 22 401 47 
Q 378 72 367 119 
Q 356 166 356 234 
Q 356 297 361 344 
Q 366 391 381 427 
Q 397 463 420 498 
Q 444 534 481 575 
L 1266 1406 
Q 1538 1694 1702 1922 
Q 1866 2150 1955 2337 
Q 2044 2525 2072 2678 
Q 2100 2831 2100 2966 
Q 2100 3100 2056 3220 
Q 2013 3341 1930 3431 
Q 1847 3522 1722 3575 
Q 1597 3628 1434 3628 
Q 1244 3628 1092 3575 
Q 941 3522 827 3459 
Q 713 3397 636 3344 
Q 559 3291 522 3291 
Q 500 3291 483 3303 
Q 466 3316 455 3344 
Q 444 3372 437 3419 
Q 431 3466 431 3531 
Q 431 3578 434 3612 
Q 438 3647 445 3672 
Q 453 3697 465 3719 
Q 478 3741 515 3773 
Q 553 3806 645 3862 
Q 738 3919 877 3973 
Q 1016 4028 1183 4065 
Q 1350 4103 1534 4103 
Q 1828 4103 2048 4020 
Q 2269 3938 2414 3794 
Q 2559 3650 2631 3459 
Q 2703 3269 2703 3053 
Q 2703 2859 2668 2667 
Q 2634 2475 2523 2251 
Q 2413 2028 2203 1754 
Q 1994 1481 1647 1125 
L 1006 456 
L 2766 456 
Q 2791 456 2814 442 
Q 2838 428 2855 400 
Q 2872 372 2880 330 
Q 2888 288 2888 231 
z
" transform="scale(0.015625)"/>
       </defs>
       <use xlink:href="#Calibri-30"/>
       <use xlink:href="#Calibri-2e" x="50.683594"/>
       <use xlink:href="#Calibri-32" x="75.927734"/>
      </g>
     </g>
    </g>
    <g id="xtick_4">
     <g id="line2d_4">
      <g>
       <use xlink:href="#m0a0a3c8ea4" x="143.3088" y="307.584" style="stroke: #000000; stroke-width: 0.8"/>
      </g>
     </g>
     <g id="text_4">
      <!-- 0.3 -->
      <g transform="translate(136.97755 321.385562) scale(0.1 -0.1)">
       <defs>
        <path id="Calibri-33" d="M 2856 1156 
Q 2856 878 2759 654 
Q 2663 431 2481 272 
Q 2300 113 2034 27 
Q 1769 -59 1434 -59 
Q 1231 -59 1054 -26 
Q 878 6 740 51 
Q 603 97 512 145 
Q 422 194 398 216 
Q 375 238 362 259 
Q 350 281 340 312 
Q 331 344 326 389 
Q 322 434 322 500 
Q 322 613 344 656 
Q 366 700 406 700 
Q 434 700 517 650 
Q 600 600 729 542 
Q 859 484 1032 434 
Q 1206 384 1419 384 
Q 1625 384 1781 437 
Q 1938 491 2044 587 
Q 2150 684 2203 817 
Q 2256 950 2256 1106 
Q 2256 1278 2189 1415 
Q 2122 1553 1992 1653 
Q 1863 1753 1673 1806 
Q 1484 1859 1244 1859 
L 859 1859 
Q 834 1859 811 1870 
Q 788 1881 770 1906 
Q 753 1931 742 1972 
Q 731 2013 731 2078 
Q 731 2138 740 2177 
Q 750 2216 767 2239 
Q 784 2263 806 2273 
Q 828 2284 856 2284 
L 1209 2284 
Q 1416 2284 1580 2337 
Q 1744 2391 1858 2491 
Q 1972 2591 2033 2730 
Q 2094 2869 2094 3041 
Q 2094 3166 2053 3280 
Q 2013 3394 1931 3478 
Q 1850 3563 1723 3611 
Q 1597 3659 1431 3659 
Q 1250 3659 1098 3604 
Q 947 3550 828 3487 
Q 709 3425 631 3370 
Q 553 3316 522 3316 
Q 500 3316 483 3323 
Q 466 3331 455 3354 
Q 444 3378 439 3420 
Q 434 3463 434 3531 
Q 434 3578 437 3614 
Q 441 3650 450 3676 
Q 459 3703 471 3725 
Q 484 3747 514 3776 
Q 544 3806 634 3862 
Q 725 3919 858 3973 
Q 991 4028 1164 4065 
Q 1338 4103 1538 4103 
Q 1819 4103 2031 4031 
Q 2244 3959 2386 3828 
Q 2528 3697 2598 3514 
Q 2669 3331 2669 3109 
Q 2669 2919 2619 2755 
Q 2569 2591 2472 2464 
Q 2375 2338 2234 2248 
Q 2094 2159 1909 2125 
L 1909 2119 
Q 2119 2097 2292 2014 
Q 2466 1931 2591 1806 
Q 2716 1681 2786 1514 
Q 2856 1347 2856 1156 
z
" transform="scale(0.015625)"/>
       </defs>
       <use xlink:href="#Calibri-30"/>
       <use xlink:href="#Calibri-2e" x="50.683594"/>
       <use xlink:href="#Calibri-33" x="75.927734"/>
      </g>
     </g>
    </g>
    <g id="xtick_5">
     <g id="line2d_5">
      <g>
       <use xlink:href="#m0a0a3c8ea4" x="171.8784" y="307.584" style="stroke: #000000; stroke-width: 0.8"/>
      </g>
     </g>
     <g id="text_5">
      <!-- 0.4 -->
      <g transform="translate(165.54715 321.385562) scale(0.1 -0.1)">
       <defs>
        <path id="Calibri-34" d="M 3059 1150 
Q 3059 1047 3028 987 
Q 2997 928 2941 928 
L 2484 928 
L 2484 78 
Q 2484 53 2471 36 
Q 2459 19 2428 6 
Q 2397 -6 2347 -12 
Q 2297 -19 2219 -19 
Q 2144 -19 2094 -12 
Q 2044 -6 2014 6 
Q 1984 19 1973 36 
Q 1963 53 1963 78 
L 1963 928 
L 294 928 
Q 256 928 231 937 
Q 206 947 186 972 
Q 166 997 158 1044 
Q 150 1091 150 1166 
Q 150 1225 153 1272 
Q 156 1319 165 1358 
Q 175 1397 190 1433 
Q 206 1469 228 1509 
L 1684 3966 
Q 1700 3991 1729 4009 
Q 1759 4028 1806 4040 
Q 1853 4053 1922 4058 
Q 1991 4063 2084 4063 
Q 2188 4063 2264 4055 
Q 2341 4047 2387 4034 
Q 2434 4022 2459 4001 
Q 2484 3981 2484 3953 
L 2484 1372 
L 2941 1372 
Q 2994 1372 3026 1317 
Q 3059 1263 3059 1150 
z
M 1963 3591 
L 1956 3591 
L 641 1372 
L 1963 1372 
L 1963 3591 
z
" transform="scale(0.015625)"/>
       </defs>
       <use xlink:href="#Calibri-30"/>
       <use xlink:href="#Calibri-2e" x="50.683594"/>
       <use xlink:href="#Calibri-34" x="75.927734"/>
      </g>
     </g>
    </g>
    <g id="xtick_6">
     <g id="line2d_6">
      <g>
       <use xlink:href="#m0a0a3c8ea4" x="200.448" y="307.584" style="stroke: #000000; stroke-width: 0.8"/>
      </g>
     </g>
     <g id="text_6">
      <!-- 0.5 -->
      <g transform="translate(194.11675 321.385562) scale(0.1 -0.1)">
       <defs>
        <path id="Calibri-35" d="M 2869 1300 
Q 2869 975 2759 722 
Q 2650 469 2450 295 
Q 2250 122 1973 31 
Q 1697 -59 1359 -59 
Q 1172 -59 1003 -32 
Q 834 -6 703 33 
Q 572 72 487 109 
Q 403 147 379 169 
Q 356 191 347 209 
Q 338 228 330 254 
Q 322 281 319 322 
Q 316 363 316 419 
Q 316 472 320 514 
Q 325 556 337 582 
Q 350 609 367 621 
Q 384 634 406 634 
Q 438 634 503 595 
Q 569 556 680 511 
Q 791 466 955 425 
Q 1119 384 1344 384 
Q 1553 384 1728 434 
Q 1903 484 2029 590 
Q 2156 697 2228 858 
Q 2300 1019 2300 1250 
Q 2300 1444 2239 1592 
Q 2178 1741 2051 1839 
Q 1925 1938 1731 1986 
Q 1538 2034 1269 2034 
Q 1078 2034 940 2015 
Q 803 1997 684 1997 
Q 597 1997 559 2037 
Q 522 2078 522 2194 
L 522 3841 
Q 522 3944 570 3994 
Q 619 4044 709 4044 
L 2500 4044 
Q 2525 4044 2548 4030 
Q 2572 4016 2587 3987 
Q 2603 3959 2611 3915 
Q 2619 3872 2619 3813 
Q 2619 3700 2587 3637 
Q 2556 3575 2500 3575 
L 991 3575 
L 991 2441 
Q 1100 2456 1214 2459 
Q 1328 2463 1478 2463 
Q 1825 2463 2084 2380 
Q 2344 2297 2517 2145 
Q 2691 1994 2780 1778 
Q 2869 1563 2869 1300 
z
" transform="scale(0.015625)"/>
       </defs>
       <use xlink:href="#Calibri-30"/>
       <use xlink:href="#Calibri-2e" x="50.683594"/>
       <use xlink:href="#Calibri-35" x="75.927734"/>
      </g>
     </g>
    </g>
    <g id="xtick_7">
     <g id="line2d_7">
      <g>
       <use xlink:href="#m0a0a3c8ea4" x="229.0176" y="307.584" style="stroke: #000000; stroke-width: 0.8"/>
      </g>
     </g>
     <g id="text_7">
      <!-- 0.6 -->
      <g transform="translate(222.68635 321.385562) scale(0.1 -0.1)">
       <defs>
        <path id="Calibri-36" d="M 2991 1309 
Q 2991 1044 2909 795 
Q 2828 547 2659 358 
Q 2491 169 2231 55 
Q 1972 -59 1619 -59 
Q 1366 -59 1172 3 
Q 978 66 834 181 
Q 691 297 595 465 
Q 500 634 442 850 
Q 384 1066 359 1322 
Q 334 1578 334 1872 
Q 334 2131 362 2397 
Q 391 2663 462 2909 
Q 534 3156 657 3373 
Q 781 3591 967 3752 
Q 1153 3913 1412 4006 
Q 1672 4100 2016 4100 
Q 2131 4100 2250 4086 
Q 2369 4072 2469 4048 
Q 2569 4025 2637 3997 
Q 2706 3969 2728 3951 
Q 2750 3934 2761 3914 
Q 2772 3894 2778 3870 
Q 2784 3847 2787 3817 
Q 2791 3788 2791 3744 
Q 2791 3688 2789 3647 
Q 2788 3606 2777 3581 
Q 2766 3556 2748 3543 
Q 2731 3531 2703 3531 
Q 2669 3531 2609 3553 
Q 2550 3575 2465 3601 
Q 2381 3628 2261 3650 
Q 2141 3672 1981 3672 
Q 1691 3672 1481 3553 
Q 1272 3434 1139 3234 
Q 1006 3034 942 2770 
Q 878 2506 869 2219 
Q 950 2266 1051 2312 
Q 1153 2359 1273 2396 
Q 1394 2434 1528 2457 
Q 1663 2481 1816 2481 
Q 2144 2481 2369 2392 
Q 2594 2303 2733 2145 
Q 2872 1988 2931 1773 
Q 2991 1559 2991 1309 
z
M 2447 1259 
Q 2447 1441 2411 1589 
Q 2375 1738 2290 1841 
Q 2206 1944 2065 2000 
Q 1925 2056 1719 2056 
Q 1603 2056 1487 2036 
Q 1372 2016 1264 1980 
Q 1156 1944 1057 1895 
Q 959 1847 878 1791 
Q 878 1388 929 1116 
Q 981 844 1079 680 
Q 1178 516 1325 445 
Q 1472 375 1669 375 
Q 1869 375 2016 450 
Q 2163 525 2259 651 
Q 2356 778 2401 936 
Q 2447 1094 2447 1259 
z
" transform="scale(0.015625)"/>
       </defs>
       <use xlink:href="#Calibri-30"/>
       <use xlink:href="#Calibri-2e" x="50.683594"/>
       <use xlink:href="#Calibri-36" x="75.927734"/>
      </g>
     </g>
    </g>
    <g id="xtick_8">
     <g id="line2d_8">
      <g>
       <use xlink:href="#m0a0a3c8ea4" x="257.5872" y="307.584" style="stroke: #000000; stroke-width: 0.8"/>
      </g>
     </g>
     <g id="text_8">
      <!-- 0.7 -->
      <g transform="translate(251.25595 321.385562) scale(0.1 -0.1)">
       <defs>
        <path id="Calibri-37" d="M 2947 3813 
Q 2947 3756 2942 3711 
Q 2938 3666 2930 3623 
Q 2922 3581 2908 3542 
Q 2894 3503 2875 3459 
L 1419 103 
Q 1403 66 1379 42 
Q 1356 19 1320 5 
Q 1284 -9 1228 -14 
Q 1172 -19 1091 -19 
Q 984 -19 925 -9 
Q 866 0 839 20 
Q 813 41 816 70 
Q 819 100 838 141 
L 2369 3572 
L 428 3572 
Q 369 3572 339 3634 
Q 309 3697 309 3809 
Q 309 3869 317 3912 
Q 325 3956 340 3986 
Q 356 4016 378 4030 
Q 400 4044 428 4044 
L 2784 4044 
Q 2828 4044 2861 4034 
Q 2894 4025 2911 3997 
Q 2928 3969 2937 3925 
Q 2947 3881 2947 3813 
z
" transform="scale(0.015625)"/>
       </defs>
       <use xlink:href="#Calibri-30"/>
       <use xlink:href="#Calibri-2e" x="50.683594"/>
       <use xlink:href="#Calibri-37" x="75.927734"/>
      </g>
     </g>
    </g>
    <g id="xtick_9">
     <g id="line2d_9">
      <g>
       <use xlink:href="#m0a0a3c8ea4" x="286.1568" y="307.584" style="stroke: #000000; stroke-width: 0.8"/>
      </g>
     </g>
     <g id="text_9">
      <!-- 0.8 -->
      <g transform="translate(279.82555 321.385562) scale(0.1 -0.1)">
       <defs>
        <path id="Calibri-38" d="M 2981 1038 
Q 2981 775 2887 570 
Q 2794 366 2617 225 
Q 2441 84 2181 12 
Q 1922 -59 1588 -59 
Q 1275 -59 1028 6 
Q 781 72 609 200 
Q 438 328 347 515 
Q 256 703 256 944 
Q 256 1134 318 1293 
Q 381 1453 498 1587 
Q 616 1722 787 1839 
Q 959 1956 1175 2063 
Q 988 2159 844 2267 
Q 700 2375 600 2501 
Q 500 2628 448 2772 
Q 397 2916 397 3084 
Q 397 3297 473 3483 
Q 550 3669 704 3806 
Q 859 3944 1098 4023 
Q 1338 4103 1656 4103 
Q 1963 4103 2186 4029 
Q 2409 3956 2554 3829 
Q 2700 3703 2769 3531 
Q 2838 3359 2838 3163 
Q 2838 3003 2786 2856 
Q 2734 2709 2634 2578 
Q 2534 2447 2389 2333 
Q 2244 2219 2056 2119 
Q 2278 2009 2451 1893 
Q 2625 1778 2742 1645 
Q 2859 1513 2920 1364 
Q 2981 1216 2981 1038 
z
M 2306 3113 
Q 2306 3244 2261 3350 
Q 2216 3456 2128 3531 
Q 2041 3606 1911 3645 
Q 1781 3684 1616 3684 
Q 1278 3684 1104 3531 
Q 931 3378 931 3113 
Q 931 2991 973 2886 
Q 1016 2781 1105 2687 
Q 1194 2594 1330 2505 
Q 1466 2416 1653 2319 
Q 1969 2481 2137 2678 
Q 2306 2875 2306 3113 
z
M 2438 981 
Q 2438 1125 2384 1242 
Q 2331 1359 2223 1461 
Q 2116 1563 1955 1658 
Q 1794 1753 1581 1856 
Q 1384 1759 1236 1662 
Q 1088 1566 992 1462 
Q 897 1359 848 1245 
Q 800 1131 800 994 
Q 800 691 1008 525 
Q 1216 359 1628 359 
Q 2028 359 2233 526 
Q 2438 694 2438 981 
z
" transform="scale(0.015625)"/>
       </defs>
       <use xlink:href="#Calibri-30"/>
       <use xlink:href="#Calibri-2e" x="50.683594"/>
       <use xlink:href="#Calibri-38" x="75.927734"/>
      </g>
     </g>
    </g>
    <g id="xtick_10">
     <g id="line2d_10">
      <g>
       <use xlink:href="#m0a0a3c8ea4" x="314.7264" y="307.584" style="stroke: #000000; stroke-width: 0.8"/>
      </g>
     </g>
     <g id="text_10">
      <!-- 0.9 -->
      <g transform="translate(308.39515 321.385562) scale(0.1 -0.1)">
       <defs>
        <path id="Calibri-39" d="M 2919 2181 
Q 2919 1919 2887 1650 
Q 2856 1381 2781 1132 
Q 2706 884 2579 667 
Q 2453 450 2261 287 
Q 2069 125 1805 33 
Q 1541 -59 1191 -59 
Q 1056 -59 929 -42 
Q 803 -25 701 0 
Q 600 25 531 53 
Q 463 81 431 109 
Q 400 138 386 186 
Q 372 234 372 316 
Q 372 384 376 425 
Q 381 466 390 487 
Q 400 509 417 517 
Q 434 525 459 525 
Q 494 525 556 501 
Q 619 478 714 450 
Q 809 422 937 398 
Q 1066 375 1225 375 
Q 1528 375 1745 492 
Q 1963 609 2100 806 
Q 2238 1003 2306 1262 
Q 2375 1522 2381 1809 
Q 2216 1713 1984 1638 
Q 1753 1563 1453 1563 
Q 1116 1563 886 1655 
Q 656 1747 517 1906 
Q 378 2066 317 2284 
Q 256 2503 256 2763 
Q 256 3031 334 3273 
Q 413 3516 578 3700 
Q 744 3884 1000 3993 
Q 1256 4103 1613 4103 
Q 1866 4103 2061 4039 
Q 2256 3975 2400 3854 
Q 2544 3734 2644 3564 
Q 2744 3394 2805 3178 
Q 2866 2963 2892 2711 
Q 2919 2459 2919 2181 
z
M 2372 2241 
Q 2372 2641 2319 2914 
Q 2266 3188 2162 3356 
Q 2059 3525 1909 3600 
Q 1759 3675 1563 3675 
Q 1359 3675 1215 3601 
Q 1072 3528 980 3404 
Q 888 3281 844 3125 
Q 800 2969 800 2803 
Q 800 2619 839 2466 
Q 878 2313 965 2206 
Q 1053 2100 1193 2042 
Q 1334 1984 1541 1984 
Q 1775 1984 1994 2054 
Q 2213 2125 2372 2241 
z
" transform="scale(0.015625)"/>
       </defs>
       <use xlink:href="#Calibri-30"/>
       <use xlink:href="#Calibri-2e" x="50.683594"/>
       <use xlink:href="#Calibri-39" x="75.927734"/>
      </g>
     </g>
    </g>
    <g id="xtick_11">
     <g id="line2d_11">
      <g>
       <use xlink:href="#m0a0a3c8ea4" x="343.296" y="307.584" style="stroke: #000000; stroke-width: 0.8"/>
      </g>
     </g>
     <g id="text_11">
      <!-- 1.0 -->
      <g transform="translate(336.96475 321.385562) scale(0.1 -0.1)">
       <use xlink:href="#Calibri-31"/>
       <use xlink:href="#Calibri-2e" x="50.683594"/>
       <use xlink:href="#Calibri-30" x="75.927734"/>
      </g>
     </g>
    </g>
    <g id="text_12">
     <!-- $\mathit{p}$ (cm$^2$/cm$^2$) -->
     <g transform="translate(174.148 336.263687) scale(0.1 -0.1)">
      <defs>
       <path id="DejaVuSans-Oblique-70" d="M 3175 2156 
Q 3175 2616 2975 2859 
Q 2775 3103 2400 3103 
Q 2144 3103 1911 2972 
Q 1678 2841 1497 2591 
Q 1319 2344 1212 1994 
Q 1106 1644 1106 1300 
Q 1106 863 1306 627 
Q 1506 391 1875 391 
Q 2147 391 2380 519 
Q 2613 647 2778 891 
Q 2956 1147 3065 1494 
Q 3175 1841 3175 2156 
z
M 1394 2969 
Q 1625 3272 1939 3428 
Q 2253 3584 2638 3584 
Q 3175 3584 3472 3232 
Q 3769 2881 3769 2247 
Q 3769 1728 3584 1258 
Q 3400 788 3053 416 
Q 2822 169 2531 39 
Q 2241 -91 1919 -91 
Q 1547 -91 1294 64 
Q 1041 219 916 525 
L 556 -1331 
L -19 -1331 
L 922 3500 
L 1497 3500 
L 1394 2969 
z
" transform="scale(0.015625)"/>
       <path id="Calibri-20" transform="scale(0.015625)"/>
       <path id="Calibri-28" d="M 1547 4306 
Q 1250 3678 1104 3017 
Q 959 2356 959 1688 
Q 959 1016 1107 356 
Q 1256 -303 1541 -938 
Q 1556 -975 1557 -1001 
Q 1559 -1028 1537 -1045 
Q 1516 -1063 1470 -1070 
Q 1425 -1078 1347 -1078 
Q 1291 -1078 1250 -1075 
Q 1209 -1072 1179 -1062 
Q 1150 -1053 1131 -1040 
Q 1113 -1028 1103 -1013 
Q 934 -694 806 -367 
Q 678 -41 590 296 
Q 503 634 459 979 
Q 416 1325 416 1678 
Q 416 2031 464 2375 
Q 513 2719 602 3058 
Q 691 3397 819 3725 
Q 947 4053 1106 4375 
Q 1109 4388 1123 4397 
Q 1138 4406 1163 4415 
Q 1188 4425 1231 4429 
Q 1275 4434 1344 4434 
Q 1416 4434 1459 4425 
Q 1503 4416 1528 4400 
Q 1553 4384 1556 4359 
Q 1559 4334 1547 4306 
z
" transform="scale(0.015625)"/>
       <path id="Calibri-63" d="M 2500 506 
Q 2500 453 2497 414 
Q 2494 375 2486 348 
Q 2478 322 2467 301 
Q 2456 281 2417 242 
Q 2378 203 2284 145 
Q 2191 88 2073 42 
Q 1956 -3 1818 -31 
Q 1681 -59 1534 -59 
Q 1231 -59 997 41 
Q 763 141 605 333 
Q 447 525 364 804 
Q 281 1084 281 1450 
Q 281 1866 382 2164 
Q 484 2463 661 2653 
Q 838 2844 1077 2936 
Q 1316 3028 1594 3028 
Q 1728 3028 1854 3003 
Q 1981 2978 2087 2937 
Q 2194 2897 2276 2844 
Q 2359 2791 2396 2753 
Q 2434 2716 2448 2694 
Q 2463 2672 2472 2642 
Q 2481 2613 2484 2575 
Q 2488 2538 2488 2481 
Q 2488 2359 2459 2311 
Q 2431 2263 2391 2263 
Q 2344 2263 2283 2314 
Q 2222 2366 2128 2428 
Q 2034 2491 1901 2542 
Q 1769 2594 1588 2594 
Q 1216 2594 1017 2308 
Q 819 2022 819 1478 
Q 819 1206 870 1001 
Q 922 797 1022 659 
Q 1122 522 1267 455 
Q 1413 388 1600 388 
Q 1778 388 1912 444 
Q 2047 500 2145 567 
Q 2244 634 2311 689 
Q 2378 744 2416 744 
Q 2438 744 2453 731 
Q 2469 719 2480 689 
Q 2491 659 2495 614 
Q 2500 569 2500 506 
z
" transform="scale(0.015625)"/>
       <path id="Calibri-6d" d="M 4650 78 
Q 4650 53 4637 36 
Q 4625 19 4597 6 
Q 4569 -6 4519 -12 
Q 4469 -19 4394 -19 
Q 4316 -19 4266 -12 
Q 4216 -6 4186 6 
Q 4156 19 4143 36 
Q 4131 53 4131 78 
L 4131 1788 
Q 4131 1966 4100 2112 
Q 4069 2259 4000 2365 
Q 3931 2472 3825 2528 
Q 3719 2584 3575 2584 
Q 3397 2584 3217 2446 
Q 3038 2309 2822 2044 
L 2822 78 
Q 2822 53 2809 36 
Q 2797 19 2767 6 
Q 2738 -6 2688 -12 
Q 2638 -19 2563 -19 
Q 2491 -19 2439 -12 
Q 2388 -6 2358 6 
Q 2328 19 2317 36 
Q 2306 53 2306 78 
L 2306 1788 
Q 2306 1966 2272 2112 
Q 2238 2259 2169 2365 
Q 2100 2472 1995 2528 
Q 1891 2584 1747 2584 
Q 1569 2584 1387 2446 
Q 1206 2309 994 2044 
L 994 78 
Q 994 53 981 36 
Q 969 19 941 6 
Q 913 -6 863 -12 
Q 813 -19 734 -19 
Q 659 -19 609 -12 
Q 559 -6 529 6 
Q 500 19 489 36 
Q 478 53 478 78 
L 478 2891 
Q 478 2916 487 2933 
Q 497 2950 525 2964 
Q 553 2978 597 2983 
Q 641 2988 713 2988 
Q 781 2988 826 2983 
Q 872 2978 897 2964 
Q 922 2950 933 2933 
Q 944 2916 944 2891 
L 944 2519 
Q 1181 2784 1404 2907 
Q 1628 3031 1856 3031 
Q 2031 3031 2170 2990 
Q 2309 2950 2415 2876 
Q 2522 2803 2597 2701 
Q 2672 2600 2722 2475 
Q 2863 2628 2989 2734 
Q 3116 2841 3233 2906 
Q 3350 2972 3461 3001 
Q 3572 3031 3684 3031 
Q 3956 3031 4140 2936 
Q 4325 2841 4439 2681 
Q 4553 2522 4601 2308 
Q 4650 2094 4650 1856 
L 4650 78 
z
" transform="scale(0.015625)"/>
       <path id="DejaVuSans-32" d="M 1228 531 
L 3431 531 
L 3431 0 
L 469 0 
L 469 531 
Q 828 903 1448 1529 
Q 2069 2156 2228 2338 
Q 2531 2678 2651 2914 
Q 2772 3150 2772 3378 
Q 2772 3750 2511 3984 
Q 2250 4219 1831 4219 
Q 1534 4219 1204 4116 
Q 875 4013 500 3803 
L 500 4441 
Q 881 4594 1212 4672 
Q 1544 4750 1819 4750 
Q 2544 4750 2975 4387 
Q 3406 4025 3406 3419 
Q 3406 3131 3298 2873 
Q 3191 2616 2906 2266 
Q 2828 2175 2409 1742 
Q 1991 1309 1228 531 
z
" transform="scale(0.015625)"/>
       <path id="Calibri-2f" d="M 525 -753 
Q 513 -794 492 -817 
Q 472 -841 440 -853 
Q 409 -866 364 -872 
Q 319 -878 253 -878 
Q 175 -878 123 -867 
Q 72 -856 44 -836 
Q 16 -816 9 -786 
Q 3 -756 22 -716 
L 1913 4469 
Q 1925 4509 1945 4532 
Q 1966 4556 1995 4570 
Q 2025 4584 2072 4589 
Q 2119 4594 2184 4594 
Q 2263 4594 2313 4583 
Q 2363 4572 2391 4553 
Q 2419 4534 2425 4503 
Q 2431 4472 2416 4431 
L 525 -753 
z
" transform="scale(0.015625)"/>
       <path id="Calibri-29" d="M 1522 1678 
Q 1522 1325 1478 979 
Q 1434 634 1346 296 
Q 1259 -41 1132 -367 
Q 1006 -694 838 -1013 
Q 828 -1028 809 -1040 
Q 791 -1053 761 -1062 
Q 731 -1072 690 -1075 
Q 650 -1078 594 -1078 
Q 513 -1078 467 -1070 
Q 422 -1063 401 -1045 
Q 381 -1028 382 -1001 
Q 384 -975 400 -938 
Q 688 -306 834 355 
Q 981 1016 981 1688 
Q 981 2356 834 3017 
Q 688 3678 394 4306 
Q 381 4334 384 4359 
Q 388 4384 413 4400 
Q 438 4416 481 4425 
Q 525 4434 597 4434 
Q 663 4434 706 4429 
Q 750 4425 776 4415 
Q 803 4406 815 4397 
Q 828 4388 834 4375 
Q 1156 3734 1339 3057 
Q 1522 2381 1522 1678 
z
" transform="scale(0.015625)"/>
      </defs>
      <use xlink:href="#DejaVuSans-Oblique-70" transform="translate(0 0.765625)"/>
      <use xlink:href="#Calibri-20" transform="translate(63.476562 0.765625)"/>
      <use xlink:href="#Calibri-28" transform="translate(84.958984 0.765625)"/>
      <use xlink:href="#Calibri-63" transform="translate(115.28125 0.765625)"/>
      <use xlink:href="#Calibri-6d" transform="translate(157.566406 0.765625)"/>
      <use xlink:href="#DejaVuSans-32" transform="translate(238.40625 39.046875) scale(0.7)"/>
      <use xlink:href="#Calibri-2f" transform="translate(285.676758 0.765625)"/>
      <use xlink:href="#Calibri-63" transform="translate(324.299805 0.765625)"/>
      <use xlink:href="#Calibri-6d" transform="translate(366.584961 0.765625)"/>
      <use xlink:href="#DejaVuSans-32" transform="translate(447.424805 39.046875) scale(0.7)"/>
      <use xlink:href="#Calibri-29" transform="translate(494.695312 0.765625)"/>
     </g>
    </g>
   </g>
   <g id="matplotlib.axis_2">
    <g id="ytick_1">
     <g id="line2d_12">
      <defs>
       <path id="mbd8f699748" d="M 0 0 
L -3.5 0 
" style="stroke: #000000; stroke-width: 0.8"/>
      </defs>
      <g>
       <use xlink:href="#mbd8f699748" x="57.6" y="275.65056" style="stroke: #000000; stroke-width: 0.8"/>
      </g>
     </g>
     <g id="text_13">
      <!-- 25 -->
      <g transform="translate(40.4625 279.051341) scale(0.1 -0.1)">
       <use xlink:href="#Calibri-32"/>
       <use xlink:href="#Calibri-35" x="50.683594"/>
      </g>
     </g>
    </g>
    <g id="ytick_2">
     <g id="line2d_13">
      <g>
       <use xlink:href="#mbd8f699748" x="57.6" y="242.38656" style="stroke: #000000; stroke-width: 0.8"/>
      </g>
     </g>
     <g id="text_14">
      <!-- 50 -->
      <g transform="translate(40.4625 245.787341) scale(0.1 -0.1)">
       <use xlink:href="#Calibri-35"/>
       <use xlink:href="#Calibri-30" x="50.683594"/>
      </g>
     </g>
    </g>
    <g id="ytick_3">
     <g id="line2d_14">
      <g>
       <use xlink:href="#mbd8f699748" x="57.6" y="209.12256" style="stroke: #000000; stroke-width: 0.8"/>
      </g>
     </g>
     <g id="text_15">
      <!-- 75 -->
      <g transform="translate(40.4625 212.523341) scale(0.1 -0.1)">
       <use xlink:href="#Calibri-37"/>
       <use xlink:href="#Calibri-35" x="50.683594"/>
      </g>
     </g>
    </g>
    <g id="ytick_4">
     <g id="line2d_15">
      <g>
       <use xlink:href="#mbd8f699748" x="57.6" y="175.85856" style="stroke: #000000; stroke-width: 0.8"/>
      </g>
     </g>
     <g id="text_16">
      <!-- 100 -->
      <g transform="translate(35.39375 179.259341) scale(0.1 -0.1)">
       <use xlink:href="#Calibri-31"/>
       <use xlink:href="#Calibri-30" x="50.683594"/>
       <use xlink:href="#Calibri-30" x="101.367188"/>
      </g>
     </g>
    </g>
    <g id="ytick_5">
     <g id="line2d_16">
      <g>
       <use xlink:href="#mbd8f699748" x="57.6" y="142.59456" style="stroke: #000000; stroke-width: 0.8"/>
      </g>
     </g>
     <g id="text_17">
      <!-- 125 -->
      <g transform="translate(35.39375 145.995341) scale(0.1 -0.1)">
       <use xlink:href="#Calibri-31"/>
       <use xlink:href="#Calibri-32" x="50.683594"/>
       <use xlink:href="#Calibri-35" x="101.367188"/>
      </g>
     </g>
    </g>
    <g id="ytick_6">
     <g id="line2d_17">
      <g>
       <use xlink:href="#mbd8f699748" x="57.6" y="109.33056" style="stroke: #000000; stroke-width: 0.8"/>
      </g>
     </g>
     <g id="text_18">
      <!-- 150 -->
      <g transform="translate(35.39375 112.731341) scale(0.1 -0.1)">
       <use xlink:href="#Calibri-31"/>
       <use xlink:href="#Calibri-35" x="50.683594"/>
       <use xlink:href="#Calibri-30" x="101.367188"/>
      </g>
     </g>
    </g>
    <g id="ytick_7">
     <g id="line2d_18">
      <g>
       <use xlink:href="#mbd8f699748" x="57.6" y="76.06656" style="stroke: #000000; stroke-width: 0.8"/>
      </g>
     </g>
     <g id="text_19">
      <!-- 175 -->
      <g transform="translate(35.39375 79.467341) scale(0.1 -0.1)">
       <use xlink:href="#Calibri-31"/>
       <use xlink:href="#Calibri-37" x="50.683594"/>
       <use xlink:href="#Calibri-35" x="101.367188"/>
      </g>
     </g>
    </g>
    <g id="ytick_8">
     <g id="line2d_19">
      <g>
       <use xlink:href="#mbd8f699748" x="57.6" y="42.80256" style="stroke: #000000; stroke-width: 0.8"/>
      </g>
     </g>
     <g id="text_20">
      <!-- 200 -->
      <g transform="translate(35.39375 46.203341) scale(0.1 -0.1)">
       <use xlink:href="#Calibri-32"/>
       <use xlink:href="#Calibri-30" x="50.683594"/>
       <use xlink:href="#Calibri-30" x="101.367188"/>
      </g>
     </g>
    </g>
    <g id="text_21">
     <!-- $\mathit{Z}$$_{a}$ (nm) -->
     <g transform="translate(29.59375 191.028) rotate(-90) scale(0.1 -0.1)">
      <defs>
       <path id="DejaVuSans-Oblique-5a" d="M 838 4666 
L 4500 4666 
L 4409 4184 
L 794 531 
L 3769 531 
L 3669 0 
L -141 0 
L -50 481 
L 3566 4134 
L 738 4134 
L 838 4666 
z
" transform="scale(0.015625)"/>
       <path id="DejaVuSans-Oblique-61" d="M 3438 1997 
L 3047 0 
L 2472 0 
L 2578 531 
Q 2325 219 2001 64 
Q 1678 -91 1281 -91 
Q 834 -91 548 182 
Q 263 456 263 884 
Q 263 1497 752 1853 
Q 1241 2209 2100 2209 
L 2900 2209 
L 2931 2363 
Q 2938 2388 2941 2417 
Q 2944 2447 2944 2509 
Q 2944 2788 2717 2942 
Q 2491 3097 2081 3097 
Q 1800 3097 1504 3025 
Q 1209 2953 897 2809 
L 997 3341 
Q 1322 3463 1633 3523 
Q 1944 3584 2234 3584 
Q 2853 3584 3176 3315 
Q 3500 3047 3500 2534 
Q 3500 2431 3484 2292 
Q 3469 2153 3438 1997 
z
M 2816 1759 
L 2241 1759 
Q 1534 1759 1195 1570 
Q 856 1381 856 984 
Q 856 709 1029 553 
Q 1203 397 1509 397 
Q 1978 397 2328 733 
Q 2678 1069 2791 1631 
L 2816 1759 
z
" transform="scale(0.015625)"/>
       <path id="Calibri-6e" d="M 2900 78 
Q 2900 53 2887 36 
Q 2875 19 2847 6 
Q 2819 -6 2769 -12 
Q 2719 -19 2644 -19 
Q 2566 -19 2516 -12 
Q 2466 -6 2437 6 
Q 2409 19 2396 36 
Q 2384 53 2384 78 
L 2384 1725 
Q 2384 1966 2346 2112 
Q 2309 2259 2237 2365 
Q 2166 2472 2052 2528 
Q 1938 2584 1788 2584 
Q 1594 2584 1400 2446 
Q 1206 2309 994 2044 
L 994 78 
Q 994 53 981 36 
Q 969 19 941 6 
Q 913 -6 863 -12 
Q 813 -19 734 -19 
Q 659 -19 609 -12 
Q 559 -6 529 6 
Q 500 19 489 36 
Q 478 53 478 78 
L 478 2891 
Q 478 2916 487 2933 
Q 497 2950 525 2964 
Q 553 2978 597 2983 
Q 641 2988 713 2988 
Q 781 2988 826 2983 
Q 872 2978 897 2964 
Q 922 2950 933 2933 
Q 944 2916 944 2891 
L 944 2519 
Q 1181 2784 1417 2907 
Q 1653 3031 1894 3031 
Q 2175 3031 2367 2936 
Q 2559 2841 2678 2681 
Q 2797 2522 2848 2308 
Q 2900 2094 2900 1794 
L 2900 78 
z
" transform="scale(0.015625)"/>
      </defs>
      <use xlink:href="#DejaVuSans-Oblique-5a" transform="translate(0 0.09375)"/>
      <use xlink:href="#DejaVuSans-Oblique-61" transform="translate(69.462891 -16.3125) scale(0.7)"/>
      <use xlink:href="#Calibri-20" transform="translate(115.092773 0.09375)"/>
      <use xlink:href="#Calibri-28" transform="translate(136.575195 0.09375)"/>
      <use xlink:href="#Calibri-6e" transform="translate(166.897461 0.09375)"/>
      <use xlink:href="#Calibri-6d" transform="translate(219.436523 0.09375)"/>
      <use xlink:href="#Calibri-29" transform="translate(299.319336 0.09375)"/>
     </g>
    </g>
   </g>
   <g id="patch_3">
    <path d="M 57.6 307.584 
L 57.6 41.472 
" style="fill: none; stroke: #000000; stroke-width: 0.8; stroke-linejoin: miter; stroke-linecap: square"/>
   </g>
   <g id="patch_4">
    <path d="M 343.296 307.584 
L 343.296 41.472 
" style="fill: none; stroke: #000000; stroke-width: 0.8; stroke-linejoin: miter; stroke-linecap: square"/>
   </g>
   <g id="patch_5">
    <path d="M 57.6 307.584 
L 343.296 307.584 
" style="fill: none; stroke: #000000; stroke-width: 0.8; stroke-linejoin: miter; stroke-linecap: square"/>
   </g>
   <g id="patch_6">
    <path d="M 57.6 41.472 
L 343.296 41.472 
" style="fill: none; stroke: #000000; stroke-width: 0.8; stroke-linejoin: miter; stroke-linecap: square"/>
   </g>
   <g id="text_22">
    <!-- $\lambda$ = 565 nm -->
    <g transform="translate(177.348 35.472) scale(0.1 -0.1)">
     <defs>
      <path id="DejaVuSans-Oblique-3bb" d="M 2350 4316 
L 3125 0 
L 2516 0 
L 2038 2588 
L 328 0 
L -281 0 
L 1903 3356 
L 1794 3975 
Q 1725 4369 1391 4369 
L 1091 4369 
L 1184 4863 
L 1550 4856 
Q 2253 4847 2350 4316 
z
" transform="scale(0.015625)"/>
      <path id="Calibri-3d" d="M 2891 2409 
Q 2891 2284 2855 2236 
Q 2819 2188 2772 2188 
L 409 2188 
Q 363 2188 328 2236 
Q 294 2284 294 2409 
Q 294 2522 325 2575 
Q 356 2628 409 2628 
L 2772 2628 
Q 2828 2628 2859 2575 
Q 2891 2522 2891 2409 
z
M 2891 1194 
Q 2891 1069 2855 1022 
Q 2819 975 2772 975 
L 409 975 
Q 363 975 328 1022 
Q 294 1069 294 1194 
Q 294 1309 325 1362 
Q 356 1416 409 1416 
L 2772 1416 
Q 2828 1416 2859 1362 
Q 2891 1309 2891 1194 
z
" transform="scale(0.015625)"/>
     </defs>
     <use xlink:href="#DejaVuSans-Oblique-3bb" transform="translate(0 0.015625)"/>
     <use xlink:href="#Calibri-20" transform="translate(59.179688 0.015625)"/>
     <use xlink:href="#Calibri-3d" transform="translate(81.787109 0.015625)"/>
     <use xlink:href="#Calibri-20" transform="translate(131.591797 0.015625)"/>
     <use xlink:href="#Calibri-35" transform="translate(154.199219 0.015625)"/>
     <use xlink:href="#Calibri-36" transform="translate(204.882812 0.015625)"/>
     <use xlink:href="#Calibri-35" transform="translate(255.566406 0.015625)"/>
     <use xlink:href="#Calibri-20" transform="translate(306.25 0.015625)"/>
     <use xlink:href="#Calibri-6e" transform="translate(328.857422 0.015625)"/>
     <use xlink:href="#Calibri-6d" transform="translate(381.396484 0.015625)"/>
    </g>
   </g>
  </g>
  <g id="axes_2">
   <g id="patch_7">
    <path d="M 361.152 307.584 
L 374.4576 307.584 
L 374.4576 41.472 
L 361.152 41.472 
z
" style="fill: #ffffff"/>
   </g>
   <g id="QuadMesh_1">
    <path d="M 361.152 307.584 
L 374.4576 307.584 
L 374.4576 280.9728 
L 361.152 280.9728 
L 361.152 307.584 
" clip-path="url(#pbc9af2289f)" style="fill: #0000b6"/>
    <path d="M 361.152 280.9728 
L 374.4576 280.9728 
L 374.4576 254.3616 
L 361.152 254.3616 
L 361.152 280.9728 
" clip-path="url(#pbc9af2289f)" style="fill: #0018ff"/>
    <path d="M 361.152 254.3616 
L 374.4576 254.3616 
L 374.4576 227.7504 
L 361.152 227.7504 
L 361.152 254.3616 
" clip-path="url(#pbc9af2289f)" style="fill: #0080ff"/>
    <path d="M 361.152 227.7504 
L 374.4576 227.7504 
L 374.4576 201.1392 
L 361.152 201.1392 
L 361.152 227.7504 
" clip-path="url(#pbc9af2289f)" style="fill: #00e4f8"/>
    <path d="M 361.152 201.1392 
L 374.4576 201.1392 
L 374.4576 174.528 
L 361.152 174.528 
L 361.152 201.1392 
" clip-path="url(#pbc9af2289f)" style="fill: #53ffa4"/>
    <path d="M 361.152 174.528 
L 374.4576 174.528 
L 374.4576 147.9168 
L 361.152 147.9168 
L 361.152 174.528 
" clip-path="url(#pbc9af2289f)" style="fill: #a4ff53"/>
    <path d="M 361.152 147.9168 
L 374.4576 147.9168 
L 374.4576 121.3056 
L 361.152 121.3056 
L 361.152 147.9168 
" clip-path="url(#pbc9af2289f)" style="fill: #f8f500"/>
    <path d="M 361.152 121.3056 
L 374.4576 121.3056 
L 374.4576 94.6944 
L 361.152 94.6944 
L 361.152 121.3056 
" clip-path="url(#pbc9af2289f)" style="fill: #ff9400"/>
    <path d="M 361.152 94.6944 
L 374.4576 94.6944 
L 374.4576 68.0832 
L 361.152 68.0832 
L 361.152 94.6944 
" clip-path="url(#pbc9af2289f)" style="fill: #ff3800"/>
    <path d="M 361.152 68.0832 
L 374.4576 68.0832 
L 374.4576 41.472 
L 361.152 41.472 
L 361.152 68.0832 
" clip-path="url(#pbc9af2289f)" style="fill: #b60000"/>
   </g>
   <g id="matplotlib.axis_3"/>
   <g id="matplotlib.axis_4">
    <g id="ytick_9">
     <g id="line2d_20">
      <defs>
       <path id="m0551f728af" d="M 0 0 
L 3.5 0 
" style="stroke: #000000; stroke-width: 0.8"/>
      </defs>
      <g>
       <use xlink:href="#m0551f728af" x="374.4576" y="307.584" style="stroke: #000000; stroke-width: 0.8"/>
      </g>
     </g>
     <g id="text_23">
      <!-- 0 -->
      <g transform="translate(381.4576 310.984781) scale(0.1 -0.1)">
       <use xlink:href="#Calibri-30"/>
      </g>
     </g>
    </g>
    <g id="ytick_10">
     <g id="line2d_21">
      <g>
       <use xlink:href="#m0551f728af" x="374.4576" y="280.9728" style="stroke: #000000; stroke-width: 0.8"/>
      </g>
     </g>
     <g id="text_24">
      <!-- 0.1 -->
      <g transform="translate(381.4576 284.373581) scale(0.1 -0.1)">
       <use xlink:href="#Calibri-30"/>
       <use xlink:href="#Calibri-2e" x="50.683594"/>
       <use xlink:href="#Calibri-31" x="75.927734"/>
      </g>
     </g>
    </g>
    <g id="ytick_11">
     <g id="line2d_22">
      <g>
       <use xlink:href="#m0551f728af" x="374.4576" y="254.3616" style="stroke: #000000; stroke-width: 0.8"/>
      </g>
     </g>
     <g id="text_25">
      <!-- 0.2 -->
      <g transform="translate(381.4576 257.762381) scale(0.1 -0.1)">
       <use xlink:href="#Calibri-30"/>
       <use xlink:href="#Calibri-2e" x="50.683594"/>
       <use xlink:href="#Calibri-32" x="75.927734"/>
      </g>
     </g>
    </g>
    <g id="ytick_12">
     <g id="line2d_23">
      <g>
       <use xlink:href="#m0551f728af" x="374.4576" y="227.7504" style="stroke: #000000; stroke-width: 0.8"/>
      </g>
     </g>
     <g id="text_26">
      <!-- 0.3 -->
      <g transform="translate(381.4576 231.151181) scale(0.1 -0.1)">
       <use xlink:href="#Calibri-30"/>
       <use xlink:href="#Calibri-2e" x="50.683594"/>
       <use xlink:href="#Calibri-33" x="75.927734"/>
      </g>
     </g>
    </g>
    <g id="ytick_13">
     <g id="line2d_24">
      <g>
       <use xlink:href="#m0551f728af" x="374.4576" y="201.1392" style="stroke: #000000; stroke-width: 0.8"/>
      </g>
     </g>
     <g id="text_27">
      <!-- 0.4 -->
      <g transform="translate(381.4576 204.539981) scale(0.1 -0.1)">
       <use xlink:href="#Calibri-30"/>
       <use xlink:href="#Calibri-2e" x="50.683594"/>
       <use xlink:href="#Calibri-34" x="75.927734"/>
      </g>
     </g>
    </g>
    <g id="ytick_14">
     <g id="line2d_25">
      <g>
       <use xlink:href="#m0551f728af" x="374.4576" y="174.528" style="stroke: #000000; stroke-width: 0.8"/>
      </g>
     </g>
     <g id="text_28">
      <!-- 0.5 -->
      <g transform="translate(381.4576 177.928781) scale(0.1 -0.1)">
       <use xlink:href="#Calibri-30"/>
       <use xlink:href="#Calibri-2e" x="50.683594"/>
       <use xlink:href="#Calibri-35" x="75.927734"/>
      </g>
     </g>
    </g>
    <g id="ytick_15">
     <g id="line2d_26">
      <g>
       <use xlink:href="#m0551f728af" x="374.4576" y="147.9168" style="stroke: #000000; stroke-width: 0.8"/>
      </g>
     </g>
     <g id="text_29">
      <!-- 0.6 -->
      <g transform="translate(381.4576 151.317581) scale(0.1 -0.1)">
       <use xlink:href="#Calibri-30"/>
       <use xlink:href="#Calibri-2e" x="50.683594"/>
       <use xlink:href="#Calibri-36" x="75.927734"/>
      </g>
     </g>
    </g>
    <g id="ytick_16">
     <g id="line2d_27">
      <g>
       <use xlink:href="#m0551f728af" x="374.4576" y="121.3056" style="stroke: #000000; stroke-width: 0.8"/>
      </g>
     </g>
     <g id="text_30">
      <!-- 0.7 -->
      <g transform="translate(381.4576 124.706381) scale(0.1 -0.1)">
       <use xlink:href="#Calibri-30"/>
       <use xlink:href="#Calibri-2e" x="50.683594"/>
       <use xlink:href="#Calibri-37" x="75.927734"/>
      </g>
     </g>
    </g>
    <g id="ytick_17">
     <g id="line2d_28">
      <g>
       <use xlink:href="#m0551f728af" x="374.4576" y="94.6944" style="stroke: #000000; stroke-width: 0.8"/>
      </g>
     </g>
     <g id="text_31">
      <!-- 0.8 -->
      <g transform="translate(381.4576 98.095181) scale(0.1 -0.1)">
       <use xlink:href="#Calibri-30"/>
       <use xlink:href="#Calibri-2e" x="50.683594"/>
       <use xlink:href="#Calibri-38" x="75.927734"/>
      </g>
     </g>
    </g>
    <g id="ytick_18">
     <g id="line2d_29">
      <g>
       <use xlink:href="#m0551f728af" x="374.4576" y="68.0832" style="stroke: #000000; stroke-width: 0.8"/>
      </g>
     </g>
     <g id="text_32">
      <!-- 0.9 -->
      <g transform="translate(381.4576 71.483981) scale(0.1 -0.1)">
       <use xlink:href="#Calibri-30"/>
       <use xlink:href="#Calibri-2e" x="50.683594"/>
       <use xlink:href="#Calibri-39" x="75.927734"/>
      </g>
     </g>
    </g>
    <g id="ytick_19">
     <g id="line2d_30">
      <g>
       <use xlink:href="#m0551f728af" x="374.4576" y="41.472" style="stroke: #000000; stroke-width: 0.8"/>
      </g>
     </g>
     <g id="text_33">
      <!-- 1.0 -->
      <g transform="translate(381.4576 44.872781) scale(0.1 -0.1)">
       <use xlink:href="#Calibri-31"/>
       <use xlink:href="#Calibri-2e" x="50.683594"/>
       <use xlink:href="#Calibri-30" x="75.927734"/>
      </g>
     </g>
    </g>
   </g>
   <g id="LineCollection_1"/>
   <g id="patch_8">
    <path d="M 361.152 307.584 
L 367.8048 307.584 
L 374.4576 307.584 
L 374.4576 41.472 
L 367.8048 41.472 
L 361.152 41.472 
L 361.152 307.584 
z
" style="fill: none; stroke: #000000; stroke-width: 0.8; stroke-linejoin: miter; stroke-linecap: square"/>
   </g>
   <g id="text_34">
    <!-- $\mathit{E}_{\mathrm{dis}}$/$\mathit{E}_{\mathrm{i}}$ -->
    <g transform="translate(353.2548 35.472) scale(0.1 -0.1)">
     <defs>
      <path id="DejaVuSans-Oblique-45" d="M 1081 4666 
L 4031 4666 
L 3928 4134 
L 1606 4134 
L 1338 2753 
L 3566 2753 
L 3463 2222 
L 1234 2222 
L 909 531 
L 3284 531 
L 3181 0 
L 172 0 
L 1081 4666 
z
" transform="scale(0.015625)"/>
      <path id="DejaVuSans-64" d="M 2906 2969 
L 2906 4863 
L 3481 4863 
L 3481 0 
L 2906 0 
L 2906 525 
Q 2725 213 2448 61 
Q 2172 -91 1784 -91 
Q 1150 -91 751 415 
Q 353 922 353 1747 
Q 353 2572 751 3078 
Q 1150 3584 1784 3584 
Q 2172 3584 2448 3432 
Q 2725 3281 2906 2969 
z
M 947 1747 
Q 947 1113 1208 752 
Q 1469 391 1925 391 
Q 2381 391 2643 752 
Q 2906 1113 2906 1747 
Q 2906 2381 2643 2742 
Q 2381 3103 1925 3103 
Q 1469 3103 1208 2742 
Q 947 2381 947 1747 
z
" transform="scale(0.015625)"/>
      <path id="DejaVuSans-69" d="M 603 3500 
L 1178 3500 
L 1178 0 
L 603 0 
L 603 3500 
z
M 603 4863 
L 1178 4863 
L 1178 4134 
L 603 4134 
L 603 4863 
z
" transform="scale(0.015625)"/>
      <path id="DejaVuSans-73" d="M 2834 3397 
L 2834 2853 
Q 2591 2978 2328 3040 
Q 2066 3103 1784 3103 
Q 1356 3103 1142 2972 
Q 928 2841 928 2578 
Q 928 2378 1081 2264 
Q 1234 2150 1697 2047 
L 1894 2003 
Q 2506 1872 2764 1633 
Q 3022 1394 3022 966 
Q 3022 478 2636 193 
Q 2250 -91 1575 -91 
Q 1294 -91 989 -36 
Q 684 19 347 128 
L 347 722 
Q 666 556 975 473 
Q 1284 391 1588 391 
Q 1994 391 2212 530 
Q 2431 669 2431 922 
Q 2431 1156 2273 1281 
Q 2116 1406 1581 1522 
L 1381 1569 
Q 847 1681 609 1914 
Q 372 2147 372 2553 
Q 372 3047 722 3315 
Q 1072 3584 1716 3584 
Q 2034 3584 2315 3537 
Q 2597 3491 2834 3397 
z
" transform="scale(0.015625)"/>
     </defs>
     <use xlink:href="#DejaVuSans-Oblique-45" transform="translate(0 0.09375)"/>
     <use xlink:href="#DejaVuSans-64" transform="translate(63.183594 -16.3125) scale(0.7)"/>
     <use xlink:href="#DejaVuSans-69" transform="translate(107.617188 -16.3125) scale(0.7)"/>
     <use xlink:href="#DejaVuSans-73" transform="translate(127.06543 -16.3125) scale(0.7)"/>
     <use xlink:href="#Calibri-2f" transform="translate(166.269531 0.09375)"/>
     <use xlink:href="#DejaVuSans-Oblique-45" transform="translate(204.892578 0.09375)"/>
     <use xlink:href="#DejaVuSans-69" transform="translate(268.076172 -16.3125) scale(0.7)"/>
    </g>
   </g>
  </g>
 </g>
 <defs>
  <clipPath id="pfb8c28374a">
   <rect x="57.6" y="41.472" width="285.696" height="266.112"/>
  </clipPath>
  <clipPath id="pbc9af2289f">
   <rect x="361.152" y="41.472" width="13.3056" height="266.112"/>
  </clipPath>
 </defs>
</svg>
