<?xml version="1.0" encoding="utf-8" standalone="no"?>
<!DOCTYPE svg PUBLIC "-//W3C//DTD SVG 1.1//EN"
  "http://www.w3.org/Graphics/SVG/1.1/DTD/svg11.dtd">
<svg xmlns:xlink="http://www.w3.org/1999/xlink" width="460.8pt" height="345.6pt" viewBox="0 0 460.8 345.6" xmlns="http://www.w3.org/2000/svg" version="1.1">
 <metadata>
  <rdf:RDF xmlns:dc="http://purl.org/dc/elements/1.1/" xmlns:cc="http://creativecommons.org/ns#" xmlns:rdf="http://www.w3.org/1999/02/22-rdf-syntax-ns#">
   <cc:Work>
    <dc:type rdf:resource="http://purl.org/dc/dcmitype/StillImage"/>
    <dc:date>2024-01-22T08:48:01.421145</dc:date>
    <dc:format>image/svg+xml</dc:format>
    <dc:creator>
     <cc:Agent>
      <dc:title>Matplotlib v3.7.1, https://matplotlib.org/</dc:title>
     </cc:Agent>
    </dc:creator>
   </cc:Work>
  </rdf:RDF>
 </metadata>
 <defs>
  <style type="text/css">*{stroke-linejoin: round; stroke-linecap: butt}</style>
 </defs>
 <g id="figure_1">
  <g id="patch_1">
   <path d="M 0 345.6 
L 460.8 345.6 
L 460.8 0 
L 0 0 
z
" style="fill: #ffffff"/>
  </g>
  <g id="axes_1">
   <g id="patch_2">
    <path d="M 57.6 307.584 
L 343.296 307.584 
L 343.296 41.472 
L 57.6 41.472 
z
" style="fill: #ffffff"/>
   </g>
   <g id="PathCollection_1">
    <path clip-path="url(#pf3cbfec2bf)" style="fill: #0000b6"/>
   </g>
   <g id="PathCollection_2">
    <path d="M 57.62857 63.694304 
L 57.904217 63.304018 
L 58.257398 62.803189 
L 58.534921 62.40468 
L 59.183399 61.458538 
L 59.189981 61.449045 
L 59.202706 61.4304 
L 59.227766 61.393069 
L 59.281667 61.313401 
L 59.863299 60.45612 
L 60.080613 60.130632 
L 60.3766 59.681938 
L 60.842483 58.981475 
L 61.420782 58.104 
L 61.876801 57.399071 
L 62.929903 55.75188 
L 63.055784 55.551722 
L 63.225604 55.284967 
L 63.543628 54.7776 
L 64.132271 53.821832 
L 64.143767 53.80332 
L 64.163554 53.770915 
L 64.249786 53.628491 
L 65.386652 51.755791 
L 65.569483 51.4512 
L 66.478133 49.908498 
L 66.95098 49.09908 
L 67.010725 48.997002 
L 67.513404 48.1248 
L 67.777756 47.657478 
L 68.065451 47.15052 
L 68.782877 45.864453 
L 69.371297 44.7984 
L 69.702283 44.187121 
L 70.06085 43.519871 
L 70.437427 42.823685 
L 70.639468 42.44628 
L 70.979575 41.799708 
L 71.152989 41.472 
L 69.818266 41.472 
L 68.294554 41.472 
L 66.770842 41.472 
L 65.24713 41.472 
L 63.723418 41.472 
L 62.199706 41.472 
L 60.675994 41.472 
L 59.152282 41.472 
L 57.62857 41.472 
L 57.62857 44.7984 
L 57.62857 48.1248 
L 57.62857 51.4512 
L 57.62857 54.7776 
L 57.62857 58.104 
L 57.62857 61.4304 
" clip-path="url(#pf3cbfec2bf)" style="fill: #0018ff"/>
   </g>
   <g id="PathCollection_3">
    <path d="M 71.152989 41.472 
L 70.979575 41.799708 
L 70.639468 42.44628 
L 70.437427 42.823685 
L 70.06085 43.519871 
L 69.702283 44.187121 
L 69.371297 44.7984 
L 68.782877 45.864453 
L 68.065451 47.15052 
L 67.777756 47.657478 
L 67.513404 48.1248 
L 67.010725 48.997002 
L 66.95098 49.09908 
L 66.478133 49.908498 
L 65.569483 51.4512 
L 65.386652 51.755791 
L 64.249786 53.628491 
L 64.163554 53.770915 
L 64.143767 53.80332 
L 64.132271 53.821832 
L 63.543628 54.7776 
L 63.225604 55.284967 
L 63.055784 55.551722 
L 62.929903 55.75188 
L 61.876801 57.399071 
L 61.420782 58.104 
L 60.842483 58.981475 
L 60.3766 59.681938 
L 60.080613 60.130632 
L 59.863299 60.45612 
L 59.281667 61.313401 
L 59.227766 61.393069 
L 59.202706 61.4304 
L 59.189981 61.449045 
L 59.183399 61.458538 
L 58.534921 62.40468 
L 58.257398 62.803189 
L 57.904217 63.304018 
L 57.62857 63.694304 
L 57.62857 64.7568 
L 57.62857 68.0832 
L 57.62857 71.4096 
L 57.62857 74.736 
L 57.62857 78.0624 
L 57.62857 81.3888 
L 57.62857 84.7152 
L 57.62857 88.0416 
L 57.62857 91.368 
L 57.62857 94.6944 
L 57.62857 98.0208 
L 57.62857 101.3472 
L 57.62857 104.6736 
L 57.62857 108 
L 57.62857 111.3264 
L 57.62857 114.6528 
L 57.62857 114.879687 
L 57.706952 114.823917 
L 57.938116 114.6528 
L 58.603488 114.156545 
L 59.238292 113.67852 
L 59.972988 113.118077 
L 60.398984 112.786361 
L 60.882706 112.415865 
L 62.154816 111.424398 
L 62.221192 111.373307 
L 62.28089 111.3264 
L 63.53357 110.325819 
L 63.982453 109.961167 
L 64.45039 109.587047 
L 65.20161 108.97428 
L 65.78827 108.489334 
L 66.377316 108 
L 67.087526 107.403053 
L 67.368475 107.16258 
L 67.529685 107.02572 
L 68.851125 105.888645 
L 69.734787 105.113569 
L 69.878227 104.989624 
L 70.238171 104.6736 
L 71.021557 103.974093 
L 72.120256 102.974549 
L 72.481581 102.649175 
L 72.839898 102.32148 
L 73.316242 101.877941 
L 73.889357 101.3472 
L 74.062017 101.185289 
L 74.134171 101.116404 
L 74.919816 100.37292 
L 75.299793 100.008266 
L 75.589769 99.724969 
L 76.136484 99.198059 
L 77.340247 98.0208 
L 77.406588 97.954788 
L 77.519374 97.84059 
L 78.701265 96.654316 
L 79.343956 96.000013 
L 79.490943 95.852322 
L 79.67055 95.66868 
L 80.551329 94.755058 
L 80.609635 94.6944 
L 80.719247 94.57818 
L 81.364353 93.898553 
L 81.533844 93.72012 
L 81.552533 93.700158 
L 81.568821 93.682467 
L 82.298564 92.899603 
L 83.357533 91.748165 
L 83.590624 91.496695 
L 83.707938 91.368 
L 84.819818 90.126452 
L 85.419723 89.447779 
L 85.604758 89.240929 
L 85.802818 89.01588 
L 86.617465 88.076295 
L 86.627071 88.065326 
L 86.647489 88.0416 
L 86.696904 87.983338 
L 86.878094 87.771228 
L 87.480174 87.06732 
L 87.594416 86.931731 
L 87.708301 86.794438 
L 88.351774 86.027352 
L 89.438941 84.7152 
L 89.558959 84.567706 
L 89.874367 84.174132 
L 90.824086 82.996255 
L 91.328513 82.36308 
L 91.722704 81.859245 
L 92.093597 81.3888 
L 92.254602 81.18141 
L 92.332168 81.079742 
L 92.845274 80.41452 
L 93.410453 79.670261 
L 94.056349 78.807158 
L 94.282266 78.508323 
L 94.615561 78.0624 
L 95.296374 77.134597 
L 96.326676 75.71028 
L 96.511572 75.450553 
L 97.020311 74.736 
L 97.470099 74.093719 
L 97.695825 73.765752 
L 97.698633 73.76172 
L 98.985792 71.883328 
L 99.305981 71.4096 
L 100.073086 70.253162 
L 100.690275 69.313178 
L 100.788204 69.165354 
L 100.858714 69.05748 
L 101.025227 68.798465 
L 101.332158 68.322596 
L 101.487933 68.0832 
L 101.566799 67.959848 
L 101.607748 67.894688 
L 102.107834 67.10892 
L 102.561566 66.383964 
L 103.23933 65.287007 
L 103.33993 65.124088 
L 103.33993 64.7568 
L 103.33993 61.4304 
L 103.33993 58.104 
L 103.33993 54.7776 
L 103.33993 51.4512 
L 103.33993 48.1248 
L 103.33993 44.7984 
L 103.33993 41.472 
L 101.816218 41.472 
L 100.292506 41.472 
L 98.768794 41.472 
L 97.245082 41.472 
L 95.72137 41.472 
L 94.197658 41.472 
L 92.673946 41.472 
L 91.150234 41.472 
L 89.626522 41.472 
L 88.10281 41.472 
L 86.579098 41.472 
L 85.055386 41.472 
L 83.531674 41.472 
L 82.007962 41.472 
L 80.48425 41.472 
L 78.960538 41.472 
L 77.436826 41.472 
L 75.913114 41.472 
L 74.389402 41.472 
L 72.86569 41.472 
L 71.341978 41.472 
" clip-path="url(#pf3cbfec2bf)" style="fill: #0080ff"/>
   </g>
   <g id="PathCollection_4">
    <path d="M 103.33993 65.124088 
L 103.23933 65.287007 
L 102.561566 66.383964 
L 102.107834 67.10892 
L 101.607748 67.894688 
L 101.566799 67.959848 
L 101.487933 68.0832 
L 101.332158 68.322596 
L 101.025227 68.798465 
L 100.858714 69.05748 
L 100.788204 69.165354 
L 100.690275 69.313178 
L 100.073086 70.253162 
L 99.305981 71.4096 
L 98.985792 71.883328 
L 97.698633 73.76172 
L 97.695825 73.765752 
L 97.470099 74.093719 
L 97.020311 74.736 
L 96.511572 75.450553 
L 96.326676 75.71028 
L 95.296374 77.134597 
L 94.615561 78.0624 
L 94.282266 78.508323 
L 94.056349 78.807158 
L 93.410453 79.670261 
L 92.845274 80.41452 
L 92.332168 81.079742 
L 92.254602 81.18141 
L 92.093597 81.3888 
L 91.722704 81.859245 
L 91.328513 82.36308 
L 90.824086 82.996255 
L 89.874367 84.174132 
L 89.558959 84.567706 
L 89.438941 84.7152 
L 88.351774 86.027352 
L 87.708301 86.794438 
L 87.594416 86.931731 
L 87.480174 87.06732 
L 86.878094 87.771228 
L 86.696904 87.983338 
L 86.647489 88.0416 
L 86.627071 88.065326 
L 86.617465 88.076295 
L 85.802818 89.01588 
L 85.604758 89.240929 
L 85.419723 89.447779 
L 84.819818 90.126452 
L 83.707938 91.368 
L 83.590624 91.496695 
L 83.357533 91.748165 
L 82.298564 92.899603 
L 81.568821 93.682467 
L 81.552533 93.700158 
L 81.533844 93.72012 
L 81.364353 93.898553 
L 80.719247 94.57818 
L 80.609635 94.6944 
L 80.551329 94.755058 
L 79.67055 95.66868 
L 79.490943 95.852322 
L 79.343956 96.000013 
L 78.701265 96.654316 
L 77.519374 97.84059 
L 77.406588 97.954788 
L 77.340247 98.0208 
L 76.136484 99.198059 
L 75.589769 99.724969 
L 75.299793 100.008266 
L 74.919816 100.37292 
L 74.134171 101.116404 
L 74.062017 101.185289 
L 73.889357 101.3472 
L 73.316242 101.877941 
L 72.839898 102.32148 
L 72.481581 102.649175 
L 72.120256 102.974549 
L 71.021557 103.974093 
L 70.238171 104.6736 
L 69.878227 104.989624 
L 69.734787 105.113569 
L 68.851125 105.888645 
L 67.529685 107.02572 
L 67.368475 107.16258 
L 67.087526 107.403053 
L 66.377316 108 
L 65.78827 108.489334 
L 65.20161 108.97428 
L 64.45039 109.587047 
L 63.982453 109.961167 
L 63.53357 110.325819 
L 62.28089 111.3264 
L 62.221192 111.373307 
L 62.154816 111.424398 
L 60.882706 112.415865 
L 60.398984 112.786361 
L 59.972988 113.118077 
L 59.238292 113.67852 
L 58.603488 114.156545 
L 57.938116 114.6528 
L 57.706952 114.823917 
L 57.62857 114.879687 
L 57.62857 117.9792 
L 57.62857 121.3056 
L 57.62857 124.632 
L 57.62857 127.9584 
L 57.62857 131.2848 
L 57.62857 134.6112 
L 57.62857 137.9376 
L 57.62857 141.264 
L 57.62857 144.5904 
L 57.62857 147.9168 
L 57.62857 151.2432 
L 57.62857 152.876485 
L 57.917667 152.766872 
L 58.577697 152.49757 
L 59.549965 152.111379 
L 60.592592 151.682764 
L 60.747662 151.620923 
L 61.665733 151.2432 
L 62.11402 151.056141 
L 62.327589 150.964019 
L 63.571229 150.441097 
L 63.90287 150.297404 
L 64.666655 149.975971 
L 66.116527 149.345227 
L 66.388815 149.229749 
L 67.163784 148.89108 
L 67.192096 148.878701 
L 67.26871 148.844435 
L 68.645104 148.23379 
L 69.351144 147.9168 
L 70.390441 147.446209 
L 70.675537 147.314161 
L 71.482781 146.94252 
L 72.254769 146.583104 
L 72.510945 146.460059 
L 73.162624 146.155377 
L 73.816547 145.840992 
L 74.759378 145.398092 
L 75.861178 144.864123 
L 75.956515 144.819147 
L 76.428057 144.5904 
L 77.251174 144.185106 
L 77.734927 143.939618 
L 78.742187 143.439597 
L 79.225666 143.193056 
L 79.729491 142.942694 
L 81.104918 142.23828 
L 81.395291 142.087823 
L 82.968708 141.264 
L 83.240863 141.120177 
L 83.32335 141.07562 
L 84.348241 140.525607 
L 84.703193 140.336254 
L 84.788525 140.28972 
L 85.434784 139.9372 
L 85.741813 139.765467 
L 87.080252 139.031664 
L 87.992905 138.516847 
L 88.191919 138.407245 
L 89.023577 137.9376 
L 89.501067 137.663722 
L 89.844819 137.461036 
L 90.939635 136.827649 
L 91.414201 136.546374 
L 91.906151 136.261436 
L 93.041426 135.58548 
L 93.467409 135.328701 
L 93.764786 135.150685 
L 94.646927 134.6112 
L 95.285264 134.216845 
L 96.215647 133.63692 
L 96.668011 133.351403 
L 96.878893 133.214776 
L 97.532615 132.800229 
L 98.303758 132.300014 
L 99.023594 131.841051 
L 99.873496 131.2848 
L 100.245549 131.037318 
L 100.353371 130.96401 
L 101.361664 130.292469 
L 102.684821 129.388562 
L 102.946742 129.212525 
L 103.33993 128.934486 
L 103.33993 127.9584 
L 103.33993 124.632 
L 103.33993 121.3056 
L 103.33993 117.9792 
L 103.33993 114.6528 
L 103.33993 111.3264 
L 103.33993 108 
L 103.33993 104.6736 
L 103.33993 101.3472 
L 103.33993 98.0208 
L 103.33993 94.6944 
L 103.33993 91.368 
L 103.33993 88.0416 
L 103.33993 84.7152 
L 103.33993 81.3888 
L 103.33993 78.0624 
L 103.33993 74.736 
L 103.33993 71.4096 
L 103.33993 68.0832 
" clip-path="url(#pf3cbfec2bf)" style="fill: #00e4f8"/>
   </g>
   <g id="PathCollection_5">
    <path d="M 103.33993 128.934486 
L 102.946742 129.212525 
L 102.684821 129.388562 
L 101.361664 130.292469 
L 100.353371 130.96401 
L 100.245549 131.037318 
L 99.873496 131.2848 
L 99.023594 131.841051 
L 98.303758 132.300014 
L 97.532615 132.800229 
L 96.878893 133.214776 
L 96.668011 133.351403 
L 96.215647 133.63692 
L 95.285264 134.216845 
L 94.646927 134.6112 
L 93.764786 135.150685 
L 93.467409 135.328701 
L 93.041426 135.58548 
L 91.906151 136.261436 
L 91.414201 136.546374 
L 90.939635 136.827649 
L 89.844819 137.461036 
L 89.501067 137.663722 
L 89.023577 137.9376 
L 88.191919 138.407245 
L 87.992905 138.516847 
L 87.080252 139.031664 
L 85.741813 139.765467 
L 85.434784 139.9372 
L 84.788525 140.28972 
L 84.703193 140.336254 
L 84.348241 140.525607 
L 83.32335 141.07562 
L 83.240863 141.120177 
L 82.968708 141.264 
L 81.395291 142.087823 
L 81.104918 142.23828 
L 79.729491 142.942694 
L 79.225666 143.193056 
L 78.742187 143.439597 
L 77.734927 143.939618 
L 77.251174 144.185106 
L 76.428057 144.5904 
L 75.956515 144.819147 
L 75.861178 144.864123 
L 74.759378 145.398092 
L 73.816547 145.840992 
L 73.162624 146.155377 
L 72.510945 146.460059 
L 72.254769 146.583104 
L 71.482781 146.94252 
L 70.675537 147.314161 
L 70.390441 147.446209 
L 69.351144 147.9168 
L 68.645104 148.23379 
L 67.26871 148.844435 
L 67.192096 148.878701 
L 67.163784 148.89108 
L 66.388815 149.229749 
L 66.116527 149.345227 
L 64.666655 149.975971 
L 63.90287 150.297404 
L 63.571229 150.441097 
L 62.327589 150.964019 
L 62.11402 151.056141 
L 61.665733 151.2432 
L 60.747662 151.620923 
L 60.592592 151.682764 
L 59.549965 152.111379 
L 58.577697 152.49757 
L 57.917667 152.766872 
L 57.62857 152.876485 
L 57.62857 154.5696 
L 57.62857 157.896 
L 57.62857 161.2224 
L 57.62857 164.5488 
L 57.62857 167.8752 
L 57.62857 171.2016 
L 57.62857 174.528 
L 57.62857 177.8544 
L 57.62857 181.1808 
L 57.62857 183.960911 
L 57.73606 183.940677 
L 58.800711 183.73969 
L 59.575155 183.58403 
L 60.468614 183.414219 
L 60.899882 183.327209 
L 61.598351 183.194389 
L 62.924013 182.925973 
L 63.405895 182.833712 
L 64.066413 182.699462 
L 64.390617 182.637357 
L 66.280203 182.251907 
L 66.340714 182.240235 
L 66.756564 182.15508 
L 67.082266 182.088383 
L 67.354678 182.030697 
L 68.883822 181.713655 
L 69.228278 181.642582 
L 71.326437 181.194853 
L 71.351685 181.189578 
L 71.357346 181.188401 
L 71.39269 181.1808 
L 73.810758 180.657553 
L 75.343672 180.317887 
L 75.585747 180.265332 
L 75.84777 180.20652 
L 76.338498 180.096364 
L 76.418541 180.077407 
L 78.264511 179.661312 
L 78.634445 179.573055 
L 79.259781 179.431544 
L 79.82346 179.296963 
L 81.02044 179.024952 
L 81.822468 178.832034 
L 82.178062 178.750904 
L 83.237879 178.49578 
L 83.769655 178.373935 
L 85.014078 178.072111 
L 85.093238 178.0539 
L 85.915116 177.8544 
L 86.511887 177.707673 
L 86.664442 177.668086 
L 88.004464 177.336077 
L 88.211388 177.282145 
L 89.246781 177.025392 
L 90.109719 176.799536 
L 90.912043 176.599027 
L 91.413435 176.467209 
L 91.974262 176.326929 
L 93.566148 175.906642 
L 93.816137 175.843619 
L 94.61961 175.630522 
L 94.694078 175.611731 
L 95.104993 175.50228 
L 96.410437 175.1511 
L 96.780848 175.051975 
L 98.678978 174.528 
L 98.736577 174.512067 
L 98.747673 174.508901 
L 98.809229 174.491435 
L 98.88752 174.469283 
L 101.073124 173.856046 
L 102.128873 173.55372 
L 102.804156 173.358358 
L 102.938457 173.317537 
L 103.33993 173.195158 
L 103.33993 171.2016 
L 103.33993 167.8752 
L 103.33993 164.5488 
L 103.33993 161.2224 
L 103.33993 157.896 
L 103.33993 154.5696 
L 103.33993 151.2432 
L 103.33993 147.9168 
L 103.33993 144.5904 
L 103.33993 141.264 
L 103.33993 137.9376 
L 103.33993 134.6112 
L 103.33993 131.2848 
" clip-path="url(#pf3cbfec2bf)" style="fill: #53ffa4"/>
   </g>
   <g id="PathCollection_6">
    <path d="M 103.33993 173.195158 
L 102.938457 173.317537 
L 102.804156 173.358358 
L 102.128873 173.55372 
L 101.073124 173.856046 
L 98.88752 174.469283 
L 98.809229 174.491435 
L 98.747673 174.508901 
L 98.736577 174.512067 
L 98.678978 174.528 
L 96.780848 175.051975 
L 96.410437 175.1511 
L 95.104993 175.50228 
L 94.694078 175.611731 
L 94.61961 175.630522 
L 93.816137 175.843619 
L 93.566148 175.906642 
L 91.974262 176.326929 
L 91.413435 176.467209 
L 90.912043 176.599027 
L 90.109719 176.799536 
L 89.246781 177.025392 
L 88.211388 177.282145 
L 88.004464 177.336077 
L 86.664442 177.668086 
L 86.511887 177.707673 
L 85.915116 177.8544 
L 85.093238 178.0539 
L 85.014078 178.072111 
L 83.769655 178.373935 
L 83.237879 178.49578 
L 82.178062 178.750904 
L 81.822468 178.832034 
L 81.02044 179.024952 
L 79.82346 179.296963 
L 79.259781 179.431544 
L 78.634445 179.573055 
L 78.264511 179.661312 
L 76.418541 180.077407 
L 76.338498 180.096364 
L 75.84777 180.20652 
L 75.585747 180.265332 
L 75.343672 180.317887 
L 73.810758 180.657553 
L 71.39269 181.1808 
L 71.357346 181.188401 
L 71.351685 181.189578 
L 71.326437 181.194853 
L 69.228278 181.642582 
L 68.883822 181.713655 
L 67.354678 182.030697 
L 67.082266 182.088383 
L 66.756564 182.15508 
L 66.340714 182.240235 
L 66.280203 182.251907 
L 64.390617 182.637357 
L 64.066413 182.699462 
L 63.405895 182.833712 
L 62.924013 182.925973 
L 61.598351 183.194389 
L 60.899882 183.327209 
L 60.468614 183.414219 
L 59.575155 183.58403 
L 58.800711 183.73969 
L 57.73606 183.940677 
L 57.62857 183.960911 
L 57.62857 184.5072 
L 57.62857 187.8336 
L 57.62857 191.16 
L 57.62857 194.4864 
L 57.62857 197.8128 
L 57.62857 201.1392 
L 57.62857 204.4656 
L 57.62857 207.792 
L 57.62857 211.00741 
L 57.649835 211.006324 
L 59.068644 210.935812 
L 59.240677 210.925424 
L 60.626261 210.856289 
L 60.72688 210.850204 
L 62.04674 210.784462 
L 62.361403 210.765399 
L 63.644268 210.701245 
L 63.804411 210.691526 
L 65.023711 210.630657 
L 65.483347 210.602717 
L 66.66179 210.543649 
L 66.882443 210.530213 
L 67.999522 210.474319 
L 68.606545 210.437294 
L 69.678813 210.383424 
L 69.96099 210.366182 
L 70.974137 210.315371 
L 71.731039 210.269043 
L 72.695322 210.220485 
L 73.040069 210.199346 
L 73.947519 210.15373 
L 74.85687 210.097875 
L 75.711299 210.054746 
L 76.119697 210.029615 
L 76.919627 209.98931 
L 77.98408 209.923694 
L 78.726728 209.886117 
L 79.199892 209.856896 
L 79.890422 209.82202 
L 81.112716 209.746401 
L 81.74159 209.714504 
L 82.280673 209.68109 
L 82.859858 209.651767 
L 84.242825 209.565892 
L 84.755868 209.539806 
L 85.362059 209.502094 
L 85.827892 209.478452 
L 87.374457 209.382059 
L 87.76954 209.361921 
L 88.444071 209.319798 
L 88.794476 209.301971 
L 90.507664 209.194788 
L 90.782587 209.180739 
L 91.526731 209.134091 
L 91.759561 209.122216 
L 93.6425 209.003958 
L 93.794987 208.996146 
L 94.61006 208.944854 
L 94.723094 208.939074 
L 96.779024 208.809445 
L 96.806717 208.808023 
L 97.46743 208.76628 
L 97.666015 208.753742 
L 97.708457 208.750825 
L 99.689407 208.624479 
L 100.36542 208.581626 
L 100.990735 208.538456 
L 102.532503 208.439713 
L 103.059965 208.403188 
L 103.33993 208.382075 
L 103.33993 207.792 
L 103.33993 204.4656 
L 103.33993 201.1392 
L 103.33993 197.8128 
L 103.33993 194.4864 
L 103.33993 191.16 
L 103.33993 187.8336 
L 103.33993 184.5072 
L 103.33993 181.1808 
L 103.33993 177.8544 
L 103.33993 174.528 
" clip-path="url(#pf3cbfec2bf)" style="fill: #a4ff53"/>
   </g>
   <g id="PathCollection_7">
    <path d="M 103.33993 208.382075 
L 103.059965 208.403188 
L 102.532503 208.439713 
L 100.990735 208.538456 
L 100.36542 208.581626 
L 99.689407 208.624479 
L 97.708457 208.750825 
L 97.666015 208.753742 
L 97.46743 208.76628 
L 96.806717 208.808023 
L 96.779024 208.809445 
L 94.723094 208.939074 
L 94.61006 208.944854 
L 93.794987 208.996146 
L 93.6425 209.003958 
L 91.759561 209.122216 
L 91.526731 209.134091 
L 90.782587 209.180739 
L 90.507664 209.194788 
L 88.794476 209.301971 
L 88.444071 209.319798 
L 87.76954 209.361921 
L 87.374457 209.382059 
L 85.827892 209.478452 
L 85.362059 209.502094 
L 84.755868 209.539806 
L 84.242825 209.565892 
L 82.859858 209.651767 
L 82.280673 209.68109 
L 81.74159 209.714504 
L 81.112716 209.746401 
L 79.890422 209.82202 
L 79.199892 209.856896 
L 78.726728 209.886117 
L 77.98408 209.923694 
L 76.919627 209.98931 
L 76.119697 210.029615 
L 75.711299 210.054746 
L 74.85687 210.097875 
L 73.947519 210.15373 
L 73.040069 210.199346 
L 72.695322 210.220485 
L 71.731039 210.269043 
L 70.974137 210.315371 
L 69.96099 210.366182 
L 69.678813 210.383424 
L 68.606545 210.437294 
L 67.999522 210.474319 
L 66.882443 210.530213 
L 66.66179 210.543649 
L 65.483347 210.602717 
L 65.023711 210.630657 
L 63.804411 210.691526 
L 63.644268 210.701245 
L 62.361403 210.765399 
L 62.04674 210.784462 
L 60.72688 210.850204 
L 60.626261 210.856289 
L 59.240677 210.925424 
L 59.068644 210.935812 
L 57.649835 211.006324 
L 57.62857 211.00741 
L 57.62857 211.1184 
L 57.62857 214.4448 
L 57.62857 217.7712 
L 57.62857 221.0976 
L 57.62857 224.424 
L 57.62857 227.7504 
L 57.62857 231.0768 
L 57.62857 234.4032 
L 57.62857 235.699113 
L 58.009684 235.720959 
L 58.238653 235.735067 
L 60.022814 235.829149 
L 60.318901 235.847564 
L 61.02596 235.885119 
L 61.364498 235.906266 
L 62.994956 235.993497 
L 63.398846 236.018964 
L 64.041419 236.053593 
L 64.492494 236.082163 
L 65.965145 236.162107 
L 66.479672 236.195005 
L 67.056031 236.226523 
L 67.622716 236.262918 
L 68.933319 236.335117 
L 69.561407 236.375843 
L 70.069771 236.404055 
L 70.755241 236.448701 
L 71.899412 236.512671 
L 72.644084 236.561642 
L 73.082608 236.586343 
L 73.89015 236.639689 
L 74.863355 236.694917 
L 75.727736 236.752576 
L 76.094513 236.773546 
L 77.027529 236.836068 
L 77.825077 236.882012 
L 78.812395 236.948824 
L 79.105453 236.965834 
L 80.167465 237.038031 
L 80.784504 237.074118 
L 81.898099 237.150574 
L 82.115395 237.16338 
L 83.310053 237.245782 
L 83.741557 237.271406 
L 84.984884 237.358026 
L 85.124304 237.366369 
L 86.45539 237.459535 
L 86.696155 237.474054 
L 88.07279 237.571385 
L 88.132145 237.574992 
L 89.603579 237.679515 
L 89.648212 237.682249 
L 90.308062 237.7296 
L 91.138991 237.788855 
L 91.16183 237.790717 
L 92.598791 237.89367 
L 92.754976 237.906496 
L 94.145005 238.007101 
L 94.251989 238.01595 
L 95.547064 238.110126 
L 95.909508 238.140324 
L 97.149862 238.231448 
L 97.343382 238.247689 
L 98.492615 238.332522 
L 99.067224 238.3811 
L 100.153519 238.46212 
L 100.436058 238.486182 
L 101.435348 238.561072 
L 102.228249 238.629101 
L 103.155931 238.699353 
L 103.33993 238.713867 
L 103.33993 237.7296 
L 103.33993 234.4032 
L 103.33993 231.0768 
L 103.33993 227.7504 
L 103.33993 224.424 
L 103.33993 221.0976 
L 103.33993 217.7712 
L 103.33993 214.4448 
L 103.33993 211.1184 
" clip-path="url(#pf3cbfec2bf)" style="fill: #f8f500"/>
   </g>
   <g id="PathCollection_8">
    <path d="M 103.33993 238.713867 
L 103.155931 238.699353 
L 102.228249 238.629101 
L 101.435348 238.561072 
L 100.436058 238.486182 
L 100.153519 238.46212 
L 99.067224 238.3811 
L 98.492615 238.332522 
L 97.343382 238.247689 
L 97.149862 238.231448 
L 95.909508 238.140324 
L 95.547064 238.110126 
L 94.251989 238.01595 
L 94.145005 238.007101 
L 92.754976 237.906496 
L 92.598791 237.89367 
L 91.16183 237.790717 
L 91.138991 237.788855 
L 90.308062 237.7296 
L 89.648212 237.682249 
L 89.603579 237.679515 
L 88.132145 237.574992 
L 88.07279 237.571385 
L 86.696155 237.474054 
L 86.45539 237.459535 
L 85.124304 237.366369 
L 84.984884 237.358026 
L 83.741557 237.271406 
L 83.310053 237.245782 
L 82.115395 237.16338 
L 81.898099 237.150574 
L 80.784504 237.074118 
L 80.167465 237.038031 
L 79.105453 236.965834 
L 78.812395 236.948824 
L 77.825077 236.882012 
L 77.027529 236.836068 
L 76.094513 236.773546 
L 75.727736 236.752576 
L 74.863355 236.694917 
L 73.89015 236.639689 
L 73.082608 236.586343 
L 72.644084 236.561642 
L 71.899412 236.512671 
L 70.755241 236.448701 
L 70.069771 236.404055 
L 69.561407 236.375843 
L 68.933319 236.335117 
L 67.622716 236.262918 
L 67.056031 236.226523 
L 66.479672 236.195005 
L 65.965145 236.162107 
L 64.492494 236.082163 
L 64.041419 236.053593 
L 63.398846 236.018964 
L 62.994956 235.993497 
L 61.364498 235.906266 
L 61.02596 235.885119 
L 60.318901 235.847564 
L 60.022814 235.829149 
L 58.238653 235.735067 
L 58.009684 235.720959 
L 57.62857 235.699113 
L 57.62857 237.7296 
L 57.62857 241.056 
L 57.62857 244.3824 
L 57.62857 247.7088 
L 57.62857 251.0352 
L 57.62857 254.3616 
L 57.62857 257.688 
L 57.62857 259.292643 
L 57.941188 259.335638 
L 58.371746 259.39198 
L 60.038845 259.623446 
L 60.302182 259.658155 
L 61.070143 259.765341 
L 61.23798 259.787532 
L 63.038203 260.04012 
L 63.245037 260.069143 
L 63.919558 260.163831 
L 64.380029 260.230311 
L 65.879161 260.442876 
L 67.663969 260.702539 
L 68.003457 260.751171 
L 68.506013 260.823185 
L 68.641824 260.842654 
L 69.806439 261.0144 
L 71.126701 261.209067 
L 71.6437 261.287237 
L 72.003774 261.341697 
L 73.741125 261.600614 
L 75.301388 261.839078 
L 75.660315 261.89299 
L 76.27991 261.98868 
L 76.357147 262.000546 
L 76.365448 262.001887 
L 78.366623 262.310968 
L 78.582056 262.346034 
L 79.317354 262.460217 
L 79.647519 262.514141 
L 81.209284 262.757985 
L 81.723706 262.842645 
L 82.275773 262.929314 
L 82.934985 263.038176 
L 84.047889 263.213855 
L 84.86744 263.350242 
L 85.232341 263.408164 
L 86.228057 263.574446 
L 86.882302 263.678877 
L 88.013337 263.869237 
L 88.186994 263.897112 
L 89.526952 264.123431 
L 89.71238 264.153364 
L 90.813384 264.3408 
L 91.139707 264.396282 
L 91.161498 264.400167 
L 92.53909 264.635202 
L 92.832938 264.687895 
L 94.090763 264.904181 
L 94.312127 264.944104 
L 95.362028 265.125274 
L 96.145841 265.267458 
L 97.039759 265.422939 
L 97.46513 265.500551 
L 98.180362 265.625398 
L 99.465245 265.861217 
L 99.986619 265.952959 
L 100.6206 266.070003 
L 100.993928 266.135932 
L 102.791424 266.469764 
L 102.931262 266.494661 
L 103.33993 266.570064 
L 103.33993 264.3408 
L 103.33993 261.0144 
L 103.33993 257.688 
L 103.33993 254.3616 
L 103.33993 251.0352 
L 103.33993 247.7088 
L 103.33993 244.3824 
L 103.33993 241.056 
" clip-path="url(#pf3cbfec2bf)" style="fill: #ff9400"/>
   </g>
   <g id="PathCollection_9">
    <path d="M 103.33993 266.570064 
L 102.931262 266.494661 
L 102.791424 266.469764 
L 100.993928 266.135932 
L 100.6206 266.070003 
L 99.986619 265.952959 
L 99.465245 265.861217 
L 98.180362 265.625398 
L 97.46513 265.500551 
L 97.039759 265.422939 
L 96.145841 265.267458 
L 95.362028 265.125274 
L 94.312127 264.944104 
L 94.090763 264.904181 
L 92.832938 264.687895 
L 92.53909 264.635202 
L 91.161498 264.400167 
L 91.139707 264.396282 
L 90.813384 264.3408 
L 89.71238 264.153364 
L 89.526952 264.123431 
L 88.186994 263.897112 
L 88.013337 263.869237 
L 86.882302 263.678877 
L 86.228057 263.574446 
L 85.232341 263.408164 
L 84.86744 263.350242 
L 84.047889 263.213855 
L 82.934985 263.038176 
L 82.275773 262.929314 
L 81.723706 262.842645 
L 81.209284 262.757985 
L 79.647519 262.514141 
L 79.317354 262.460217 
L 78.582056 262.346034 
L 78.366623 262.310968 
L 76.365448 262.001887 
L 76.357147 262.000546 
L 76.27991 261.98868 
L 75.660315 261.89299 
L 75.301388 261.839078 
L 73.741125 261.600614 
L 72.003774 261.341697 
L 71.6437 261.287237 
L 71.126701 261.209067 
L 69.806439 261.0144 
L 68.641824 260.842654 
L 68.506013 260.823185 
L 68.003457 260.751171 
L 67.663969 260.702539 
L 65.879161 260.442876 
L 64.380029 260.230311 
L 63.919558 260.163831 
L 63.245037 260.069143 
L 63.038203 260.04012 
L 61.23798 259.787532 
L 61.070143 259.765341 
L 60.302182 259.658155 
L 60.038845 259.623446 
L 58.371746 259.39198 
L 57.941188 259.335638 
L 57.62857 259.292643 
L 57.62857 261.0144 
L 57.62857 264.3408 
L 57.62857 267.6672 
L 57.62857 270.9936 
L 57.62857 274.32 
L 57.62857 277.6464 
L 57.62857 280.9728 
L 57.62857 283.047121 
L 57.857647 283.091862 
L 58.677728 283.263207 
L 59.545508 283.440751 
L 60.553301 283.652553 
L 60.789477 283.70109 
L 62.047204 283.966275 
L 62.32586 284.023794 
L 63.624309 284.2992 
L 63.719556 284.319551 
L 63.727613 284.321314 
L 65.102054 284.615912 
L 65.42469 284.686831 
L 66.647285 284.950397 
L 66.905204 285.00735 
L 67.874182 285.216909 
L 68.810032 285.424536 
L 69.573246 285.590564 
L 70.084925 285.704613 
L 70.642468 285.826292 
L 72.201415 286.175429 
L 72.497371 286.240404 
L 73.266861 286.413551 
L 73.406772 286.444368 
L 74.322062 286.65132 
L 75.237023 286.859125 
L 75.717952 286.968553 
L 77.049801 287.275627 
L 77.667294 287.417196 
L 78.564281 287.6256 
L 80.090503 287.981652 
L 81.156684 288.233659 
L 81.933113 288.416183 
L 82.506378 288.552739 
L 82.703881 288.59988 
L 84.420604 289.011386 
L 84.700199 289.080006 
L 85.379526 289.243634 
L 85.84959 289.35942 
L 87.162999 289.677292 
L 87.895397 289.858845 
L 88.291923 289.955286 
L 89.282898 290.201839 
L 89.900953 290.352891 
L 91.093207 290.651446 
L 91.202181 290.678212 
L 92.291481 290.952 
L 92.634252 291.038655 
L 92.724307 291.061944 
L 94.109915 291.414443 
L 94.294504 291.462422 
L 95.362638 291.735143 
L 96.177647 291.948095 
L 97.015247 292.163329 
L 97.499023 292.290384 
L 98.086339 292.44186 
L 99.639039 292.851823 
L 99.918284 292.924315 
L 100.706417 293.133497 
L 100.805161 293.159227 
L 101.348134 293.30412 
L 102.540584 293.62338 
L 103.110608 293.777771 
L 103.33993 293.840549 
L 103.33993 290.952 
L 103.33993 287.6256 
L 103.33993 284.2992 
L 103.33993 280.9728 
L 103.33993 277.6464 
L 103.33993 274.32 
L 103.33993 270.9936 
L 103.33993 267.6672 
" clip-path="url(#pf3cbfec2bf)" style="fill: #ff3800"/>
   </g>
   <g id="PathCollection_10">
    <path d="M 103.33993 293.840549 
L 103.110608 293.777771 
L 102.540584 293.62338 
L 101.348134 293.30412 
L 100.805161 293.159227 
L 100.706417 293.133497 
L 99.918284 292.924315 
L 99.639039 292.851823 
L 98.086339 292.44186 
L 97.499023 292.290384 
L 97.015247 292.163329 
L 96.177647 291.948095 
L 95.362638 291.735143 
L 94.294504 291.462422 
L 94.109915 291.414443 
L 92.724307 291.061944 
L 92.634252 291.038655 
L 92.291481 290.952 
L 91.202181 290.678212 
L 91.093207 290.651446 
L 89.900953 290.352891 
L 89.282898 290.201839 
L 88.291923 289.955286 
L 87.895397 289.858845 
L 87.162999 289.677292 
L 85.84959 289.35942 
L 85.379526 289.243634 
L 84.700199 289.080006 
L 84.420604 289.011386 
L 82.703881 288.59988 
L 82.506378 288.552739 
L 81.933113 288.416183 
L 81.156684 288.233659 
L 80.090503 287.981652 
L 78.564281 287.6256 
L 77.667294 287.417196 
L 77.049801 287.275627 
L 75.717952 286.968553 
L 75.237023 286.859125 
L 74.322062 286.65132 
L 73.406772 286.444368 
L 73.266861 286.413551 
L 72.497371 286.240404 
L 72.201415 286.175429 
L 70.642468 285.826292 
L 70.084925 285.704613 
L 69.573246 285.590564 
L 68.810032 285.424536 
L 67.874182 285.216909 
L 66.905204 285.00735 
L 66.647285 284.950397 
L 65.42469 284.686831 
L 65.102054 284.615912 
L 63.727613 284.321314 
L 63.719556 284.319551 
L 63.624309 284.2992 
L 62.32586 284.023794 
L 62.047204 283.966275 
L 60.789477 283.70109 
L 60.553301 283.652553 
L 59.545508 283.440751 
L 58.677728 283.263207 
L 57.857647 283.091862 
L 57.62857 283.047121 
L 57.62857 284.2992 
L 57.62857 287.6256 
L 57.62857 290.952 
L 57.62857 294.2784 
L 57.62857 297.6048 
L 57.62857 300.9312 
L 57.62857 304.2576 
L 57.62857 307.584 
L 59.152282 307.584 
L 60.675994 307.584 
L 62.199706 307.584 
L 63.723418 307.584 
L 65.24713 307.584 
L 66.770842 307.584 
L 68.294554 307.584 
L 69.818266 307.584 
L 71.341978 307.584 
L 72.86569 307.584 
L 74.389402 307.584 
L 75.913114 307.584 
L 77.436826 307.584 
L 78.960538 307.584 
L 80.48425 307.584 
L 82.007962 307.584 
L 83.531674 307.584 
L 85.055386 307.584 
L 86.579098 307.584 
L 88.10281 307.584 
L 89.626522 307.584 
L 91.150234 307.584 
L 92.673946 307.584 
L 94.197658 307.584 
L 95.72137 307.584 
L 97.245082 307.584 
L 98.768794 307.584 
L 100.292506 307.584 
L 101.816218 307.584 
L 103.33993 307.584 
L 103.33993 304.2576 
L 103.33993 300.9312 
L 103.33993 297.6048 
L 103.33993 294.2784 
" clip-path="url(#pf3cbfec2bf)" style="fill: #b60000"/>
   </g>
   <g id="PathCollection_11">
    <path clip-path="url(#pf3cbfec2bf)" style="fill: #0000b6"/>
   </g>
   <g id="PathCollection_12">
    <path clip-path="url(#pf3cbfec2bf)" style="fill: #0018ff"/>
   </g>
   <g id="PathCollection_13">
    <path d="M 100.4544 69.633204 
L 100.834546 69.088898 
L 101.497636 68.0832 
L 104.356089 63.48837 
L 105.365685 61.81088 
L 106.220197 60.269911 
L 106.845095 59.2128 
L 107.192215 58.596893 
L 108.323468 56.61472 
L 110.495227 52.474994 
L 111.583512 50.3424 
L 114.412437 44.439096 
L 114.586641 44.07008 
L 114.893167 43.390432 
L 115.776815 41.472 
L 108.54912 41.472 
L 100.4544 41.472 
L 100.4544 50.3424 
L 100.4544 59.2128 
L 100.4544 68.0832 
" clip-path="url(#pf3cbfec2bf)" style="fill: #0080ff"/>
   </g>
   <g id="PathCollection_14">
    <path d="M 115.776815 41.472 
L 114.893167 43.390432 
L 114.586641 44.07008 
L 114.412437 44.439096 
L 111.583512 50.3424 
L 110.495227 52.474994 
L 108.323468 56.61472 
L 107.192215 58.596893 
L 106.845095 59.2128 
L 106.220197 60.269911 
L 105.365685 61.81088 
L 104.356089 63.48837 
L 101.497636 68.0832 
L 100.834546 69.088898 
L 100.4544 69.633204 
L 100.4544 76.9536 
L 100.4544 85.824 
L 100.4544 94.6944 
L 100.4544 103.5648 
L 100.4544 112.4352 
L 100.4544 121.3056 
L 100.4544 130.176 
L 100.4544 130.880262 
L 100.86677 130.627886 
L 101.545789 130.176 
L 104.339305 128.265141 
L 105.31407 127.57792 
L 110.661428 123.620321 
L 113.577383 121.3056 
L 115.909003 119.361548 
L 118.105166 117.439579 
L 119.862681 115.962488 
L 120.898649 115.03328 
L 122.626405 113.393919 
L 123.267951 112.800278 
L 123.682602 112.4352 
L 123.900648 112.227189 
L 124.015617 112.107052 
L 126.360287 109.83712 
L 128.478517 107.66314 
L 132.249262 103.5648 
L 132.656668 103.097563 
L 133.298812 102.333208 
L 136.462318 98.671192 
L 137.591691 97.29248 
L 138.861901 95.632214 
L 139.631706 94.6944 
L 139.956172 94.253282 
L 141.609272 92.09632 
L 143.822941 88.99635 
L 145.985179 85.824 
L 147.897878 82.848167 
L 149.957993 79.55168 
L 150.164516 79.246559 
L 151.588175 76.9536 
L 152.26005 75.747756 
L 152.670295 74.935015 
L 153.003907 74.35552 
L 155.2141 70.168928 
L 156.346197 68.0832 
L 156.622582 67.540922 
L 159.449746 61.81088 
L 160.022239 60.531305 
L 160.671582 59.2128 
L 161.052379 58.235954 
L 161.476553 57.234174 
L 161.76787 56.61472 
L 162.109125 55.812415 
L 164.375496 50.3424 
L 164.798634 49.248393 
L 166.775301 44.07008 
L 167.005191 43.436849 
L 167.732788 41.472 
L 165.21216 41.472 
L 157.11744 41.472 
L 149.02272 41.472 
L 140.928 41.472 
L 132.83328 41.472 
L 124.73856 41.472 
L 116.64384 41.472 
" clip-path="url(#pf3cbfec2bf)" style="fill: #00e4f8"/>
   </g>
   <g id="PathCollection_15">
    <path d="M 167.732788 41.472 
L 167.005191 43.436849 
L 166.775301 44.07008 
L 164.798634 49.248393 
L 164.375496 50.3424 
L 162.109125 55.812415 
L 161.76787 56.61472 
L 161.476553 57.234174 
L 161.052379 58.235954 
L 160.671582 59.2128 
L 160.022239 60.531305 
L 159.449746 61.81088 
L 156.622582 67.540922 
L 156.346197 68.0832 
L 155.2141 70.168928 
L 153.003907 74.35552 
L 152.670295 74.935015 
L 152.26005 75.747756 
L 151.588175 76.9536 
L 150.164516 79.246559 
L 149.957993 79.55168 
L 147.897878 82.848167 
L 145.985179 85.824 
L 143.822941 88.99635 
L 141.609272 92.09632 
L 139.956172 94.253282 
L 139.631706 94.6944 
L 138.861901 95.632214 
L 137.591691 97.29248 
L 136.462318 98.671192 
L 133.298812 102.333208 
L 132.656668 103.097563 
L 132.249262 103.5648 
L 128.478517 107.66314 
L 126.360287 109.83712 
L 124.015617 112.107052 
L 123.900648 112.227189 
L 123.682602 112.4352 
L 123.267951 112.800278 
L 122.626405 113.393919 
L 120.898649 115.03328 
L 119.862681 115.962488 
L 118.105166 117.439579 
L 115.909003 119.361548 
L 113.577383 121.3056 
L 110.661428 123.620321 
L 105.31407 127.57792 
L 104.339305 128.265141 
L 101.545789 130.176 
L 100.86677 130.627886 
L 100.4544 130.880262 
L 100.4544 139.0464 
L 100.4544 147.9168 
L 100.4544 156.7872 
L 100.4544 165.6576 
L 100.4544 174.018528 
L 100.671727 173.953048 
L 106.506386 172.28952 
L 112.332008 170.382615 
L 114.798733 169.646665 
L 118.93056 168.25568 
L 118.966933 168.243815 
L 119.335588 168.11004 
L 125.377361 165.947556 
L 125.599167 165.871245 
L 126.155539 165.6576 
L 131.918392 163.420971 
L 132.751202 163.05952 
L 134.869505 162.17415 
L 136.838289 161.26881 
L 142.704087 158.733481 
L 146.714644 156.7872 
L 148.651083 155.804014 
L 149.590749 155.284448 
L 153.783616 153.133911 
L 158.377624 150.51488 
L 160.305667 149.363955 
L 161.111222 148.908254 
L 162.685884 147.9168 
L 165.633931 146.011996 
L 166.592775 145.31872 
L 167.379329 144.779769 
L 169.491392 143.227509 
L 174.10794 139.924222 
L 175.226419 139.0464 
L 179.931802 135.157966 
L 182.638538 132.77408 
L 182.899986 132.557482 
L 185.486236 130.176 
L 186.306717 129.384183 
L 186.733759 128.922058 
L 188.082482 127.57792 
L 191.709657 123.731031 
L 193.829775 121.3056 
L 196.410093 118.181338 
L 198.886583 115.03328 
L 199.074431 114.812959 
L 200.89527 112.4352 
L 201.611879 111.423862 
L 202.021212 110.771841 
L 202.678399 109.83712 
L 206.311435 104.25043 
L 206.730143 103.5648 
L 208.497114 100.484047 
L 210.379738 97.29248 
L 210.582406 96.917016 
L 211.119707 96.043373 
L 211.861973 94.6944 
L 212.662023 92.962548 
L 213.10347 92.09632 
L 214.819012 88.571496 
L 216.115978 85.824 
L 217.992493 81.569231 
L 218.842938 79.55168 
L 219.396121 78.078868 
L 219.897892 76.9536 
L 220.174236 76.181523 
L 220.90928 74.35552 
L 222.792626 69.088539 
L 223.138799 68.0832 
L 223.818426 65.953763 
L 225.230804 61.81088 
L 225.512249 60.863677 
L 226.085343 59.2128 
L 226.642595 57.048852 
L 226.785639 56.61472 
L 226.979962 55.936328 
L 228.544374 50.3424 
L 229.122053 48.09932 
L 230.149343 44.07008 
L 230.605577 42.16857 
L 230.778706 41.472 
L 229.96992 41.472 
L 221.8752 41.472 
L 213.78048 41.472 
L 205.68576 41.472 
L 197.59104 41.472 
L 189.49632 41.472 
L 181.4016 41.472 
L 173.30688 41.472 
" clip-path="url(#pf3cbfec2bf)" style="fill: #53ffa4"/>
   </g>
   <g id="PathCollection_16">
    <path d="M 230.778706 41.472 
L 230.605577 42.16857 
L 230.149343 44.07008 
L 229.122053 48.09932 
L 228.544374 50.3424 
L 226.979962 55.936328 
L 226.785639 56.61472 
L 226.642595 57.048852 
L 226.085343 59.2128 
L 225.512249 60.863677 
L 225.230804 61.81088 
L 223.818426 65.953763 
L 223.138799 68.0832 
L 222.792626 69.088539 
L 220.90928 74.35552 
L 220.174236 76.181523 
L 219.897892 76.9536 
L 219.396121 78.078868 
L 218.842938 79.55168 
L 217.992493 81.569231 
L 216.115978 85.824 
L 214.819012 88.571496 
L 213.10347 92.09632 
L 212.662023 92.962548 
L 211.861973 94.6944 
L 211.119707 96.043373 
L 210.582406 96.917016 
L 210.379738 97.29248 
L 208.497114 100.484047 
L 206.730143 103.5648 
L 206.311435 104.25043 
L 202.678399 109.83712 
L 202.021212 110.771841 
L 201.611879 111.423862 
L 200.89527 112.4352 
L 199.074431 114.812959 
L 198.886583 115.03328 
L 196.410093 118.181338 
L 193.829775 121.3056 
L 191.709657 123.731031 
L 188.082482 127.57792 
L 186.733759 128.922058 
L 186.306717 129.384183 
L 185.486236 130.176 
L 182.899986 132.557482 
L 182.638538 132.77408 
L 179.931802 135.157966 
L 175.226419 139.0464 
L 174.10794 139.924222 
L 169.491392 143.227509 
L 167.379329 144.779769 
L 166.592775 145.31872 
L 165.633931 146.011996 
L 162.685884 147.9168 
L 161.111222 148.908254 
L 160.305667 149.363955 
L 158.377624 150.51488 
L 153.783616 153.133911 
L 149.590749 155.284448 
L 148.651083 155.804014 
L 146.714644 156.7872 
L 142.704087 158.733481 
L 136.838289 161.26881 
L 134.869505 162.17415 
L 132.751202 163.05952 
L 131.918392 163.420971 
L 126.155539 165.6576 
L 125.599167 165.871245 
L 125.377361 165.947556 
L 119.335588 168.11004 
L 118.966933 168.243815 
L 118.93056 168.25568 
L 114.798733 169.646665 
L 112.332008 170.382615 
L 106.506386 172.28952 
L 100.671727 173.953048 
L 100.4544 174.018528 
L 100.4544 174.528 
L 100.4544 183.3984 
L 100.4544 192.2688 
L 100.4544 201.1392 
L 100.4544 208.550205 
L 101.022047 208.507858 
L 106.870801 208.170455 
L 110.533704 207.834843 
L 115.705856 207.528111 
L 117.650345 207.346835 
L 122.071289 207.086737 
L 127.911075 206.533078 
L 131.438381 206.319315 
L 134.333947 206.039502 
L 137.150557 205.870182 
L 145.451229 205.052931 
L 147.110214 204.949958 
L 151.086374 204.550088 
L 152.079539 204.48894 
L 159.399168 203.73728 
L 162.191231 203.442223 
L 165.831485 202.994962 
L 170.348619 202.481972 
L 175.102575 201.954276 
L 176.142651 201.843178 
L 181.386225 201.1392 
L 186.663297 200.435904 
L 187.605262 200.280838 
L 193.416599 199.359763 
L 198.678724 198.54112 
L 199.884589 198.336512 
L 200.215603 198.263137 
L 209.637864 196.599616 
L 212.39104 195.944642 
L 214.989458 195.467219 
L 220.078316 194.237872 
L 223.135266 193.649612 
L 228.406659 192.2688 
L 229.822865 191.879758 
L 230.16047 191.764689 
L 236.088099 190.102856 
L 241.978124 187.980305 
L 244.270867 187.272686 
L 247.584755 185.99648 
L 247.971474 185.857765 
L 253.637396 183.3984 
L 253.944268 183.257774 
L 258.877149 180.80032 
L 259.62197 180.41027 
L 260.285456 179.986692 
L 263.685307 178.063805 
L 269.011939 174.528 
L 269.884606 173.915528 
L 274.71316 169.84922 
L 276.285341 168.567828 
L 276.61743 168.25568 
L 277.606589 167.435827 
L 279.345489 165.6576 
L 281.426199 163.294221 
L 281.622363 163.05952 
L 285.657031 157.856648 
L 286.500978 156.7872 
L 286.560131 156.707392 
L 290.494017 150.51488 
L 290.882983 149.84591 
L 291.991358 147.9168 
L 293.150793 145.51583 
L 293.2209 145.31872 
L 295.354324 140.704221 
L 296.053336 139.0464 
L 298.086264 133.856422 
L 298.451375 132.77408 
L 298.658873 132.065849 
L 299.390579 130.176 
L 299.799528 128.803901 
L 300.189297 127.57792 
L 301.519861 122.732956 
L 301.966147 121.3056 
L 302.171689 120.592534 
L 303.590066 115.03328 
L 304.02713 112.982034 
L 304.093283 112.750696 
L 304.161296 112.4352 
L 304.204696 112.092046 
L 304.262799 111.781395 
L 304.742117 109.83712 
L 305.440208 106.433461 
L 305.962491 103.5648 
L 306.65174 99.368512 
L 307.065491 97.29248 
L 307.164878 96.665476 
L 307.56049 94.6944 
L 307.808052 92.431384 
L 307.874164 92.09632 
L 307.972777 91.467914 
L 308.782234 85.824 
L 309.32072 81.600633 
L 309.571472 79.55168 
L 309.741452 78.67125 
L 309.999711 76.9536 
L 310.105401 75.1456 
L 310.181652 74.35552 
L 310.809626 68.367582 
L 310.842357 68.0832 
L 310.858063 67.926963 
L 311.459153 61.81088 
L 311.530938 61.374688 
L 311.81268 59.2128 
L 311.895937 56.960301 
L 311.919335 56.61472 
L 312.167732 53.650966 
L 312.442402 50.3424 
L 312.788589 45.391322 
L 312.894173 44.07008 
L 312.922469 43.669513 
L 313.099045 41.472 
L 310.91712 41.472 
L 302.8224 41.472 
L 294.72768 41.472 
L 286.63296 41.472 
L 278.53824 41.472 
L 270.44352 41.472 
L 262.3488 41.472 
L 254.25408 41.472 
L 246.15936 41.472 
L 238.06464 41.472 
" clip-path="url(#pf3cbfec2bf)" style="fill: #a4ff53"/>
   </g>
   <g id="PathCollection_17">
    <path d="M 313.099045 41.472 
L 312.922469 43.669513 
L 312.894173 44.07008 
L 312.788589 45.391322 
L 312.442402 50.3424 
L 312.167732 53.650966 
L 311.919335 56.61472 
L 311.895937 56.960301 
L 311.81268 59.2128 
L 311.530938 61.374688 
L 311.459153 61.81088 
L 310.858063 67.926963 
L 310.842357 68.0832 
L 310.809626 68.367582 
L 310.181652 74.35552 
L 310.105401 75.1456 
L 309.999711 76.9536 
L 309.741452 78.67125 
L 309.571472 79.55168 
L 309.32072 81.600633 
L 308.782234 85.824 
L 307.972777 91.467914 
L 307.874164 92.09632 
L 307.808052 92.431384 
L 307.56049 94.6944 
L 307.164878 96.665476 
L 307.065491 97.29248 
L 306.65174 99.368512 
L 305.962491 103.5648 
L 305.440208 106.433461 
L 304.742117 109.83712 
L 304.262799 111.781395 
L 304.204696 112.092046 
L 304.161296 112.4352 
L 304.093283 112.750696 
L 304.02713 112.982034 
L 303.590066 115.03328 
L 302.171689 120.592534 
L 301.966147 121.3056 
L 301.519861 122.732956 
L 300.189297 127.57792 
L 299.799528 128.803901 
L 299.390579 130.176 
L 298.658873 132.065849 
L 298.451375 132.77408 
L 298.086264 133.856422 
L 296.053336 139.0464 
L 295.354324 140.704221 
L 293.2209 145.31872 
L 293.150793 145.51583 
L 291.991358 147.9168 
L 290.882983 149.84591 
L 290.494017 150.51488 
L 286.560131 156.707392 
L 286.500978 156.7872 
L 285.657031 157.856648 
L 281.622363 163.05952 
L 281.426199 163.294221 
L 279.345489 165.6576 
L 277.606589 167.435827 
L 276.61743 168.25568 
L 276.285341 168.567828 
L 274.71316 169.84922 
L 269.884606 173.915528 
L 269.011939 174.528 
L 263.685307 178.063805 
L 260.285456 179.986692 
L 259.62197 180.41027 
L 258.877149 180.80032 
L 253.944268 183.257774 
L 253.637396 183.3984 
L 247.971474 185.857765 
L 247.584755 185.99648 
L 244.270867 187.272686 
L 241.978124 187.980305 
L 236.088099 190.102856 
L 230.16047 191.764689 
L 229.822865 191.879758 
L 228.406659 192.2688 
L 223.135266 193.649612 
L 220.078316 194.237872 
L 214.989458 195.467219 
L 212.39104 195.944642 
L 209.637864 196.599616 
L 200.215603 198.263137 
L 199.884589 198.336512 
L 198.678724 198.54112 
L 193.416599 199.359763 
L 187.605262 200.280838 
L 186.663297 200.435904 
L 181.386225 201.1392 
L 176.142651 201.843178 
L 175.102575 201.954276 
L 170.348619 202.481972 
L 165.831485 202.994962 
L 162.191231 203.442223 
L 159.399168 203.73728 
L 152.079539 204.48894 
L 151.086374 204.550088 
L 147.110214 204.949958 
L 145.451229 205.052931 
L 137.150557 205.870182 
L 134.333947 206.039502 
L 131.438381 206.319315 
L 127.911075 206.533078 
L 122.071289 207.086737 
L 117.650345 207.346835 
L 115.705856 207.528111 
L 110.533704 207.834843 
L 106.870801 208.170455 
L 101.022047 208.507858 
L 100.4544 208.550205 
L 100.4544 210.0096 
L 100.4544 218.88 
L 100.4544 227.7504 
L 100.4544 236.6208 
L 100.4544 238.47025 
L 102.293965 238.636643 
L 103.862602 238.748037 
L 109.399532 239.21888 
L 113.926405 239.598634 
L 114.43876 239.657537 
L 118.707946 240.030491 
L 119.881443 240.168647 
L 128.85031 240.985439 
L 131.242805 241.283508 
L 134.313399 241.575461 
L 137.756125 242.015379 
L 143.572345 242.59346 
L 148.163011 243.216791 
L 149.817346 243.388973 
L 155.984228 244.249397 
L 158.045352 244.47437 
L 164.870514 245.4912 
L 165.194403 245.538176 
L 165.232547 245.545134 
L 172.295793 246.599175 
L 174.745922 247.068138 
L 180.46008 247.982044 
L 182.498163 248.392219 
L 186.279628 249.016133 
L 194.257725 250.708869 
L 195.53296 250.935968 
L 199.222988 251.76352 
L 200.734676 252.114275 
L 207.285804 253.635331 
L 210.057887 254.3616 
L 217.49386 256.350315 
L 219.516786 256.95968 
L 225.89072 258.831691 
L 228.687013 259.837997 
L 230.980368 260.558802 
L 238.045944 263.211513 
L 238.074521 263.221172 
L 238.100435 263.232 
L 245.096441 266.044012 
L 247.684868 267.267818 
L 249.768911 268.146962 
L 252.403142 269.50432 
L 256.007273 271.306616 
L 256.486996 271.54808 
L 257.414217 272.1024 
L 259.750376 273.466852 
L 262.005519 274.70048 
L 264.229826 275.996439 
L 268.57969 278.930368 
L 270.926885 280.443116 
L 271.601482 280.9728 
L 277.004235 285.031098 
L 279.553145 287.24512 
L 279.886054 287.499097 
L 282.438235 289.8432 
L 283.860868 291.101468 
L 285.159657 292.44128 
L 288.940136 296.185338 
L 291.024636 298.7136 
L 293.601954 301.691773 
L 296.073546 304.98592 
L 296.54494 305.592601 
L 297.95029 307.584 
L 302.8224 307.584 
L 310.91712 307.584 
L 319.01184 307.584 
L 327.10656 307.584 
L 335.20128 307.584 
L 343.296 307.584 
L 343.296 298.7136 
L 343.296 289.8432 
L 343.296 280.9728 
L 343.296 272.1024 
L 343.296 263.232 
L 343.296 254.3616 
L 343.296 245.4912 
L 343.296 236.6208 
L 343.296 227.7504 
L 343.296 218.88 
L 343.296 210.0096 
L 343.296 201.1392 
L 343.296 192.2688 
L 343.296 183.3984 
L 343.296 174.528 
L 343.296 165.6576 
L 343.296 156.7872 
L 343.296 147.9168 
L 343.296 139.0464 
L 343.296 130.176 
L 343.296 121.3056 
L 343.296 112.4352 
L 343.296 103.5648 
L 343.296 94.6944 
L 343.296 85.824 
L 343.296 76.9536 
L 343.296 68.0832 
L 343.296 59.2128 
L 343.296 50.3424 
L 343.296 41.472 
L 335.20128 41.472 
L 327.10656 41.472 
L 319.01184 41.472 
" clip-path="url(#pf3cbfec2bf)" style="fill: #f8f500"/>
   </g>
   <g id="PathCollection_18">
    <path d="M 297.95029 307.584 
L 296.54494 305.592601 
L 296.073546 304.98592 
L 293.601954 301.691773 
L 291.024636 298.7136 
L 288.940136 296.185338 
L 285.159657 292.44128 
L 283.860868 291.101468 
L 282.438235 289.8432 
L 279.886054 287.499097 
L 279.553145 287.24512 
L 277.004235 285.031098 
L 271.601482 280.9728 
L 270.926885 280.443116 
L 268.57969 278.930368 
L 264.229826 275.996439 
L 262.005519 274.70048 
L 259.750376 273.466852 
L 257.414217 272.1024 
L 256.486996 271.54808 
L 256.007273 271.306616 
L 252.403142 269.50432 
L 249.768911 268.146962 
L 247.684868 267.267818 
L 245.096441 266.044012 
L 238.100435 263.232 
L 238.074521 263.221172 
L 238.045944 263.211513 
L 230.980368 260.558802 
L 228.687013 259.837997 
L 225.89072 258.831691 
L 219.516786 256.95968 
L 217.49386 256.350315 
L 210.057887 254.3616 
L 207.285804 253.635331 
L 200.734676 252.114275 
L 199.222988 251.76352 
L 195.53296 250.935968 
L 194.257725 250.708869 
L 186.279628 249.016133 
L 182.498163 248.392219 
L 180.46008 247.982044 
L 174.745922 247.068138 
L 172.295793 246.599175 
L 165.232547 245.545134 
L 165.194403 245.538176 
L 164.870514 245.4912 
L 158.045352 244.47437 
L 155.984228 244.249397 
L 149.817346 243.388973 
L 148.163011 243.216791 
L 143.572345 242.59346 
L 137.756125 242.015379 
L 134.313399 241.575461 
L 131.242805 241.283508 
L 128.85031 240.985439 
L 119.881443 240.168647 
L 118.707946 240.030491 
L 114.43876 239.657537 
L 113.926405 239.598634 
L 109.399532 239.21888 
L 103.862602 238.748037 
L 102.293965 238.636643 
L 100.4544 238.47025 
L 100.4544 245.4912 
L 100.4544 254.3616 
L 100.4544 263.232 
L 100.4544 266.033693 
L 101.598251 266.258124 
L 105.213756 266.886977 
L 113.380589 268.526446 
L 114.561444 268.741098 
L 118.238762 269.50432 
L 119.700435 269.815566 
L 126.555321 271.277762 
L 127.363029 271.450877 
L 130.149545 272.1024 
L 137.279964 273.758264 
L 141.055313 274.70048 
L 145.620648 275.830477 
L 147.250889 276.285322 
L 150.481012 277.114807 
L 154.69786 278.321363 
L 158.589685 279.359476 
L 163.924973 280.9728 
L 165.081787 281.31771 
L 165.379574 281.415703 
L 171.260337 283.215454 
L 177.225264 285.266665 
L 179.499719 286.004335 
L 182.949309 287.24512 
L 183.294406 287.363804 
L 187.458209 288.91809 
L 189.699694 289.750887 
L 189.929368 289.8432 
L 190.615241 290.120971 
L 196.463372 292.44128 
L 199.492515 293.68314 
L 202.210857 294.905713 
L 207.198469 297.055935 
L 210.623091 298.7136 
L 213.301273 299.98137 
L 214.492982 300.598565 
L 218.402027 302.519591 
L 222.875336 304.98592 
L 225.036046 306.149274 
L 227.500655 307.584 
L 229.96992 307.584 
L 238.06464 307.584 
L 246.15936 307.584 
L 254.25408 307.584 
L 262.3488 307.584 
L 270.44352 307.584 
L 278.53824 307.584 
L 286.63296 307.584 
L 294.72768 307.584 
" clip-path="url(#pf3cbfec2bf)" style="fill: #ff9400"/>
   </g>
   <g id="PathCollection_19">
    <path d="M 227.500655 307.584 
L 225.036046 306.149274 
L 222.875336 304.98592 
L 218.402027 302.519591 
L 214.492982 300.598565 
L 213.301273 299.98137 
L 210.623091 298.7136 
L 207.198469 297.055935 
L 202.210857 294.905713 
L 199.492515 293.68314 
L 196.463372 292.44128 
L 190.615241 290.120971 
L 189.929368 289.8432 
L 189.699694 289.750887 
L 187.458209 288.91809 
L 183.294406 287.363804 
L 182.949309 287.24512 
L 179.499719 286.004335 
L 177.225264 285.266665 
L 171.260337 283.215454 
L 165.379574 281.415703 
L 165.081787 281.31771 
L 163.924973 280.9728 
L 158.589685 279.359476 
L 154.69786 278.321363 
L 150.481012 277.114807 
L 147.250889 276.285322 
L 145.620648 275.830477 
L 141.055313 274.70048 
L 137.279964 273.758264 
L 130.149545 272.1024 
L 127.363029 271.450877 
L 126.555321 271.277762 
L 119.700435 269.815566 
L 118.238762 269.50432 
L 114.561444 268.741098 
L 113.380589 268.526446 
L 105.213756 266.886977 
L 101.598251 266.258124 
L 100.4544 266.033693 
L 100.4544 272.1024 
L 100.4544 280.9728 
L 100.4544 289.8432 
L 100.4544 293.087582 
L 102.392466 293.586337 
L 104.382148 294.147326 
L 111.054585 295.968048 
L 116.172184 297.465809 
L 117.024962 297.70532 
L 120.391268 298.7136 
L 123.797371 299.744979 
L 126.465432 300.605951 
L 131.518 302.193249 
L 134.527406 303.195505 
L 136.31394 303.769804 
L 139.837476 304.98592 
L 143.708991 306.321692 
L 147.209207 307.584 
L 149.02272 307.584 
L 157.11744 307.584 
L 165.21216 307.584 
L 173.30688 307.584 
L 181.4016 307.584 
L 189.49632 307.584 
L 197.59104 307.584 
L 205.68576 307.584 
L 213.78048 307.584 
L 221.8752 307.584 
" clip-path="url(#pf3cbfec2bf)" style="fill: #ff3800"/>
   </g>
   <g id="PathCollection_20">
    <path d="M 147.209207 307.584 
L 143.708991 306.321692 
L 139.837476 304.98592 
L 136.31394 303.769804 
L 134.527406 303.195505 
L 131.518 302.193249 
L 126.465432 300.605951 
L 123.797371 299.744979 
L 120.391268 298.7136 
L 117.024962 297.70532 
L 116.172184 297.465809 
L 111.054585 295.968048 
L 104.382148 294.147326 
L 102.392466 293.586337 
L 100.4544 293.087582 
L 100.4544 298.7136 
L 100.4544 307.584 
L 108.54912 307.584 
L 116.64384 307.584 
L 124.73856 307.584 
L 132.83328 307.584 
L 140.928 307.584 
" clip-path="url(#pf3cbfec2bf)" style="fill: #b60000"/>
   </g>
   <g id="matplotlib.axis_1">
    <g id="xtick_1">
     <g id="line2d_1">
      <defs>
       <path id="m7b6ab7f70e" d="M 0 0 
L 0 3.5 
" style="stroke: #000000; stroke-width: 0.8"/>
      </defs>
      <g>
       <use xlink:href="#m7b6ab7f70e" x="57.6" y="307.584" style="stroke: #000000; stroke-width: 0.8"/>
      </g>
     </g>
     <g id="text_1">
      <!-- 0.0 -->
      <g transform="translate(51.26875 321.385562) scale(0.1 -0.1)">
       <defs>
        <path id="Calibri-30" d="M 3022 2031 
Q 3022 1566 2948 1181 
Q 2875 797 2704 520 
Q 2534 244 2259 92 
Q 1984 -59 1581 -59 
Q 1200 -59 939 77 
Q 678 213 518 477 
Q 359 741 292 1127 
Q 225 1513 225 2013 
Q 225 2475 300 2861 
Q 375 3247 544 3523 
Q 713 3800 988 3951 
Q 1263 4103 1663 4103 
Q 2047 4103 2308 3967 
Q 2569 3831 2728 3567 
Q 2888 3303 2955 2917 
Q 3022 2531 3022 2031 
z
M 2472 1994 
Q 2472 2297 2450 2537 
Q 2428 2778 2386 2962 
Q 2344 3147 2276 3280 
Q 2209 3413 2115 3498 
Q 2022 3584 1901 3623 
Q 1781 3663 1631 3663 
Q 1366 3663 1200 3538 
Q 1034 3413 939 3194 
Q 844 2975 809 2681 
Q 775 2388 775 2050 
Q 775 1597 822 1280 
Q 869 963 970 763 
Q 1072 563 1230 472 
Q 1388 381 1613 381 
Q 1788 381 1920 437 
Q 2053 494 2148 598 
Q 2244 703 2306 850 
Q 2369 997 2406 1175 
Q 2444 1353 2458 1561 
Q 2472 1769 2472 1994 
z
" transform="scale(0.015625)"/>
        <path id="Calibri-2e" d="M 1144 341 
Q 1144 119 1070 45 
Q 997 -28 803 -28 
Q 616 -28 544 44 
Q 472 116 472 331 
Q 472 553 545 626 
Q 619 700 813 700 
Q 1000 700 1072 628 
Q 1144 556 1144 341 
z
" transform="scale(0.015625)"/>
       </defs>
       <use xlink:href="#Calibri-30"/>
       <use xlink:href="#Calibri-2e" x="50.683594"/>
       <use xlink:href="#Calibri-30" x="75.927734"/>
      </g>
     </g>
    </g>
    <g id="xtick_2">
     <g id="line2d_2">
      <g>
       <use xlink:href="#m7b6ab7f70e" x="86.1696" y="307.584" style="stroke: #000000; stroke-width: 0.8"/>
      </g>
     </g>
     <g id="text_2">
      <!-- 0.1 -->
      <g transform="translate(79.83835 321.385562) scale(0.1 -0.1)">
       <defs>
        <path id="Calibri-31" d="M 2897 213 
Q 2897 153 2887 112 
Q 2878 72 2862 47 
Q 2847 22 2826 11 
Q 2806 0 2784 0 
L 672 0 
Q 650 0 631 11 
Q 613 22 595 47 
Q 578 72 568 112 
Q 559 153 559 213 
Q 559 269 568 309 
Q 578 350 592 376 
Q 606 403 626 417 
Q 647 431 672 431 
L 1516 431 
L 1516 3506 
L 734 3041 
Q 675 3009 639 3003 
Q 603 2997 581 3017 
Q 559 3038 551 3084 
Q 544 3131 544 3203 
Q 544 3256 548 3293 
Q 553 3331 562 3356 
Q 572 3381 589 3400 
Q 606 3419 634 3438 
L 1566 4034 
Q 1578 4044 1597 4050 
Q 1616 4056 1644 4062 
Q 1672 4069 1709 4070 
Q 1747 4072 1803 4072 
Q 1878 4072 1928 4065 
Q 1978 4059 2006 4048 
Q 2034 4038 2043 4020 
Q 2053 4003 2053 3984 
L 2053 431 
L 2784 431 
Q 2809 431 2831 417 
Q 2853 403 2867 376 
Q 2881 350 2889 309 
Q 2897 269 2897 213 
z
" transform="scale(0.015625)"/>
       </defs>
       <use xlink:href="#Calibri-30"/>
       <use xlink:href="#Calibri-2e" x="50.683594"/>
       <use xlink:href="#Calibri-31" x="75.927734"/>
      </g>
     </g>
    </g>
    <g id="xtick_3">
     <g id="line2d_3">
      <g>
       <use xlink:href="#m7b6ab7f70e" x="114.7392" y="307.584" style="stroke: #000000; stroke-width: 0.8"/>
      </g>
     </g>
     <g id="text_3">
      <!-- 0.2 -->
      <g transform="translate(108.40795 321.385562) scale(0.1 -0.1)">
       <defs>
        <path id="Calibri-32" d="M 2888 231 
Q 2888 175 2880 131 
Q 2872 88 2858 58 
Q 2844 28 2820 14 
Q 2797 0 2769 0 
L 534 0 
Q 491 0 458 11 
Q 425 22 401 47 
Q 378 72 367 119 
Q 356 166 356 234 
Q 356 297 361 344 
Q 366 391 381 427 
Q 397 463 420 498 
Q 444 534 481 575 
L 1266 1406 
Q 1538 1694 1702 1922 
Q 1866 2150 1955 2337 
Q 2044 2525 2072 2678 
Q 2100 2831 2100 2966 
Q 2100 3100 2056 3220 
Q 2013 3341 1930 3431 
Q 1847 3522 1722 3575 
Q 1597 3628 1434 3628 
Q 1244 3628 1092 3575 
Q 941 3522 827 3459 
Q 713 3397 636 3344 
Q 559 3291 522 3291 
Q 500 3291 483 3303 
Q 466 3316 455 3344 
Q 444 3372 437 3419 
Q 431 3466 431 3531 
Q 431 3578 434 3612 
Q 438 3647 445 3672 
Q 453 3697 465 3719 
Q 478 3741 515 3773 
Q 553 3806 645 3862 
Q 738 3919 877 3973 
Q 1016 4028 1183 4065 
Q 1350 4103 1534 4103 
Q 1828 4103 2048 4020 
Q 2269 3938 2414 3794 
Q 2559 3650 2631 3459 
Q 2703 3269 2703 3053 
Q 2703 2859 2668 2667 
Q 2634 2475 2523 2251 
Q 2413 2028 2203 1754 
Q 1994 1481 1647 1125 
L 1006 456 
L 2766 456 
Q 2791 456 2814 442 
Q 2838 428 2855 400 
Q 2872 372 2880 330 
Q 2888 288 2888 231 
z
" transform="scale(0.015625)"/>
       </defs>
       <use xlink:href="#Calibri-30"/>
       <use xlink:href="#Calibri-2e" x="50.683594"/>
       <use xlink:href="#Calibri-32" x="75.927734"/>
      </g>
     </g>
    </g>
    <g id="xtick_4">
     <g id="line2d_4">
      <g>
       <use xlink:href="#m7b6ab7f70e" x="143.3088" y="307.584" style="stroke: #000000; stroke-width: 0.8"/>
      </g>
     </g>
     <g id="text_4">
      <!-- 0.3 -->
      <g transform="translate(136.97755 321.385562) scale(0.1 -0.1)">
       <defs>
        <path id="Calibri-33" d="M 2856 1156 
Q 2856 878 2759 654 
Q 2663 431 2481 272 
Q 2300 113 2034 27 
Q 1769 -59 1434 -59 
Q 1231 -59 1054 -26 
Q 878 6 740 51 
Q 603 97 512 145 
Q 422 194 398 216 
Q 375 238 362 259 
Q 350 281 340 312 
Q 331 344 326 389 
Q 322 434 322 500 
Q 322 613 344 656 
Q 366 700 406 700 
Q 434 700 517 650 
Q 600 600 729 542 
Q 859 484 1032 434 
Q 1206 384 1419 384 
Q 1625 384 1781 437 
Q 1938 491 2044 587 
Q 2150 684 2203 817 
Q 2256 950 2256 1106 
Q 2256 1278 2189 1415 
Q 2122 1553 1992 1653 
Q 1863 1753 1673 1806 
Q 1484 1859 1244 1859 
L 859 1859 
Q 834 1859 811 1870 
Q 788 1881 770 1906 
Q 753 1931 742 1972 
Q 731 2013 731 2078 
Q 731 2138 740 2177 
Q 750 2216 767 2239 
Q 784 2263 806 2273 
Q 828 2284 856 2284 
L 1209 2284 
Q 1416 2284 1580 2337 
Q 1744 2391 1858 2491 
Q 1972 2591 2033 2730 
Q 2094 2869 2094 3041 
Q 2094 3166 2053 3280 
Q 2013 3394 1931 3478 
Q 1850 3563 1723 3611 
Q 1597 3659 1431 3659 
Q 1250 3659 1098 3604 
Q 947 3550 828 3487 
Q 709 3425 631 3370 
Q 553 3316 522 3316 
Q 500 3316 483 3323 
Q 466 3331 455 3354 
Q 444 3378 439 3420 
Q 434 3463 434 3531 
Q 434 3578 437 3614 
Q 441 3650 450 3676 
Q 459 3703 471 3725 
Q 484 3747 514 3776 
Q 544 3806 634 3862 
Q 725 3919 858 3973 
Q 991 4028 1164 4065 
Q 1338 4103 1538 4103 
Q 1819 4103 2031 4031 
Q 2244 3959 2386 3828 
Q 2528 3697 2598 3514 
Q 2669 3331 2669 3109 
Q 2669 2919 2619 2755 
Q 2569 2591 2472 2464 
Q 2375 2338 2234 2248 
Q 2094 2159 1909 2125 
L 1909 2119 
Q 2119 2097 2292 2014 
Q 2466 1931 2591 1806 
Q 2716 1681 2786 1514 
Q 2856 1347 2856 1156 
z
" transform="scale(0.015625)"/>
       </defs>
       <use xlink:href="#Calibri-30"/>
       <use xlink:href="#Calibri-2e" x="50.683594"/>
       <use xlink:href="#Calibri-33" x="75.927734"/>
      </g>
     </g>
    </g>
    <g id="xtick_5">
     <g id="line2d_5">
      <g>
       <use xlink:href="#m7b6ab7f70e" x="171.8784" y="307.584" style="stroke: #000000; stroke-width: 0.8"/>
      </g>
     </g>
     <g id="text_5">
      <!-- 0.4 -->
      <g transform="translate(165.54715 321.385562) scale(0.1 -0.1)">
       <defs>
        <path id="Calibri-34" d="M 3059 1150 
Q 3059 1047 3028 987 
Q 2997 928 2941 928 
L 2484 928 
L 2484 78 
Q 2484 53 2471 36 
Q 2459 19 2428 6 
Q 2397 -6 2347 -12 
Q 2297 -19 2219 -19 
Q 2144 -19 2094 -12 
Q 2044 -6 2014 6 
Q 1984 19 1973 36 
Q 1963 53 1963 78 
L 1963 928 
L 294 928 
Q 256 928 231 937 
Q 206 947 186 972 
Q 166 997 158 1044 
Q 150 1091 150 1166 
Q 150 1225 153 1272 
Q 156 1319 165 1358 
Q 175 1397 190 1433 
Q 206 1469 228 1509 
L 1684 3966 
Q 1700 3991 1729 4009 
Q 1759 4028 1806 4040 
Q 1853 4053 1922 4058 
Q 1991 4063 2084 4063 
Q 2188 4063 2264 4055 
Q 2341 4047 2387 4034 
Q 2434 4022 2459 4001 
Q 2484 3981 2484 3953 
L 2484 1372 
L 2941 1372 
Q 2994 1372 3026 1317 
Q 3059 1263 3059 1150 
z
M 1963 3591 
L 1956 3591 
L 641 1372 
L 1963 1372 
L 1963 3591 
z
" transform="scale(0.015625)"/>
       </defs>
       <use xlink:href="#Calibri-30"/>
       <use xlink:href="#Calibri-2e" x="50.683594"/>
       <use xlink:href="#Calibri-34" x="75.927734"/>
      </g>
     </g>
    </g>
    <g id="xtick_6">
     <g id="line2d_6">
      <g>
       <use xlink:href="#m7b6ab7f70e" x="200.448" y="307.584" style="stroke: #000000; stroke-width: 0.8"/>
      </g>
     </g>
     <g id="text_6">
      <!-- 0.5 -->
      <g transform="translate(194.11675 321.385562) scale(0.1 -0.1)">
       <defs>
        <path id="Calibri-35" d="M 2869 1300 
Q 2869 975 2759 722 
Q 2650 469 2450 295 
Q 2250 122 1973 31 
Q 1697 -59 1359 -59 
Q 1172 -59 1003 -32 
Q 834 -6 703 33 
Q 572 72 487 109 
Q 403 147 379 169 
Q 356 191 347 209 
Q 338 228 330 254 
Q 322 281 319 322 
Q 316 363 316 419 
Q 316 472 320 514 
Q 325 556 337 582 
Q 350 609 367 621 
Q 384 634 406 634 
Q 438 634 503 595 
Q 569 556 680 511 
Q 791 466 955 425 
Q 1119 384 1344 384 
Q 1553 384 1728 434 
Q 1903 484 2029 590 
Q 2156 697 2228 858 
Q 2300 1019 2300 1250 
Q 2300 1444 2239 1592 
Q 2178 1741 2051 1839 
Q 1925 1938 1731 1986 
Q 1538 2034 1269 2034 
Q 1078 2034 940 2015 
Q 803 1997 684 1997 
Q 597 1997 559 2037 
Q 522 2078 522 2194 
L 522 3841 
Q 522 3944 570 3994 
Q 619 4044 709 4044 
L 2500 4044 
Q 2525 4044 2548 4030 
Q 2572 4016 2587 3987 
Q 2603 3959 2611 3915 
Q 2619 3872 2619 3813 
Q 2619 3700 2587 3637 
Q 2556 3575 2500 3575 
L 991 3575 
L 991 2441 
Q 1100 2456 1214 2459 
Q 1328 2463 1478 2463 
Q 1825 2463 2084 2380 
Q 2344 2297 2517 2145 
Q 2691 1994 2780 1778 
Q 2869 1563 2869 1300 
z
" transform="scale(0.015625)"/>
       </defs>
       <use xlink:href="#Calibri-30"/>
       <use xlink:href="#Calibri-2e" x="50.683594"/>
       <use xlink:href="#Calibri-35" x="75.927734"/>
      </g>
     </g>
    </g>
    <g id="xtick_7">
     <g id="line2d_7">
      <g>
       <use xlink:href="#m7b6ab7f70e" x="229.0176" y="307.584" style="stroke: #000000; stroke-width: 0.8"/>
      </g>
     </g>
     <g id="text_7">
      <!-- 0.6 -->
      <g transform="translate(222.68635 321.385562) scale(0.1 -0.1)">
       <defs>
        <path id="Calibri-36" d="M 2991 1309 
Q 2991 1044 2909 795 
Q 2828 547 2659 358 
Q 2491 169 2231 55 
Q 1972 -59 1619 -59 
Q 1366 -59 1172 3 
Q 978 66 834 181 
Q 691 297 595 465 
Q 500 634 442 850 
Q 384 1066 359 1322 
Q 334 1578 334 1872 
Q 334 2131 362 2397 
Q 391 2663 462 2909 
Q 534 3156 657 3373 
Q 781 3591 967 3752 
Q 1153 3913 1412 4006 
Q 1672 4100 2016 4100 
Q 2131 4100 2250 4086 
Q 2369 4072 2469 4048 
Q 2569 4025 2637 3997 
Q 2706 3969 2728 3951 
Q 2750 3934 2761 3914 
Q 2772 3894 2778 3870 
Q 2784 3847 2787 3817 
Q 2791 3788 2791 3744 
Q 2791 3688 2789 3647 
Q 2788 3606 2777 3581 
Q 2766 3556 2748 3543 
Q 2731 3531 2703 3531 
Q 2669 3531 2609 3553 
Q 2550 3575 2465 3601 
Q 2381 3628 2261 3650 
Q 2141 3672 1981 3672 
Q 1691 3672 1481 3553 
Q 1272 3434 1139 3234 
Q 1006 3034 942 2770 
Q 878 2506 869 2219 
Q 950 2266 1051 2312 
Q 1153 2359 1273 2396 
Q 1394 2434 1528 2457 
Q 1663 2481 1816 2481 
Q 2144 2481 2369 2392 
Q 2594 2303 2733 2145 
Q 2872 1988 2931 1773 
Q 2991 1559 2991 1309 
z
M 2447 1259 
Q 2447 1441 2411 1589 
Q 2375 1738 2290 1841 
Q 2206 1944 2065 2000 
Q 1925 2056 1719 2056 
Q 1603 2056 1487 2036 
Q 1372 2016 1264 1980 
Q 1156 1944 1057 1895 
Q 959 1847 878 1791 
Q 878 1388 929 1116 
Q 981 844 1079 680 
Q 1178 516 1325 445 
Q 1472 375 1669 375 
Q 1869 375 2016 450 
Q 2163 525 2259 651 
Q 2356 778 2401 936 
Q 2447 1094 2447 1259 
z
" transform="scale(0.015625)"/>
       </defs>
       <use xlink:href="#Calibri-30"/>
       <use xlink:href="#Calibri-2e" x="50.683594"/>
       <use xlink:href="#Calibri-36" x="75.927734"/>
      </g>
     </g>
    </g>
    <g id="xtick_8">
     <g id="line2d_8">
      <g>
       <use xlink:href="#m7b6ab7f70e" x="257.5872" y="307.584" style="stroke: #000000; stroke-width: 0.8"/>
      </g>
     </g>
     <g id="text_8">
      <!-- 0.7 -->
      <g transform="translate(251.25595 321.385562) scale(0.1 -0.1)">
       <defs>
        <path id="Calibri-37" d="M 2947 3813 
Q 2947 3756 2942 3711 
Q 2938 3666 2930 3623 
Q 2922 3581 2908 3542 
Q 2894 3503 2875 3459 
L 1419 103 
Q 1403 66 1379 42 
Q 1356 19 1320 5 
Q 1284 -9 1228 -14 
Q 1172 -19 1091 -19 
Q 984 -19 925 -9 
Q 866 0 839 20 
Q 813 41 816 70 
Q 819 100 838 141 
L 2369 3572 
L 428 3572 
Q 369 3572 339 3634 
Q 309 3697 309 3809 
Q 309 3869 317 3912 
Q 325 3956 340 3986 
Q 356 4016 378 4030 
Q 400 4044 428 4044 
L 2784 4044 
Q 2828 4044 2861 4034 
Q 2894 4025 2911 3997 
Q 2928 3969 2937 3925 
Q 2947 3881 2947 3813 
z
" transform="scale(0.015625)"/>
       </defs>
       <use xlink:href="#Calibri-30"/>
       <use xlink:href="#Calibri-2e" x="50.683594"/>
       <use xlink:href="#Calibri-37" x="75.927734"/>
      </g>
     </g>
    </g>
    <g id="xtick_9">
     <g id="line2d_9">
      <g>
       <use xlink:href="#m7b6ab7f70e" x="286.1568" y="307.584" style="stroke: #000000; stroke-width: 0.8"/>
      </g>
     </g>
     <g id="text_9">
      <!-- 0.8 -->
      <g transform="translate(279.82555 321.385562) scale(0.1 -0.1)">
       <defs>
        <path id="Calibri-38" d="M 2981 1038 
Q 2981 775 2887 570 
Q 2794 366 2617 225 
Q 2441 84 2181 12 
Q 1922 -59 1588 -59 
Q 1275 -59 1028 6 
Q 781 72 609 200 
Q 438 328 347 515 
Q 256 703 256 944 
Q 256 1134 318 1293 
Q 381 1453 498 1587 
Q 616 1722 787 1839 
Q 959 1956 1175 2063 
Q 988 2159 844 2267 
Q 700 2375 600 2501 
Q 500 2628 448 2772 
Q 397 2916 397 3084 
Q 397 3297 473 3483 
Q 550 3669 704 3806 
Q 859 3944 1098 4023 
Q 1338 4103 1656 4103 
Q 1963 4103 2186 4029 
Q 2409 3956 2554 3829 
Q 2700 3703 2769 3531 
Q 2838 3359 2838 3163 
Q 2838 3003 2786 2856 
Q 2734 2709 2634 2578 
Q 2534 2447 2389 2333 
Q 2244 2219 2056 2119 
Q 2278 2009 2451 1893 
Q 2625 1778 2742 1645 
Q 2859 1513 2920 1364 
Q 2981 1216 2981 1038 
z
M 2306 3113 
Q 2306 3244 2261 3350 
Q 2216 3456 2128 3531 
Q 2041 3606 1911 3645 
Q 1781 3684 1616 3684 
Q 1278 3684 1104 3531 
Q 931 3378 931 3113 
Q 931 2991 973 2886 
Q 1016 2781 1105 2687 
Q 1194 2594 1330 2505 
Q 1466 2416 1653 2319 
Q 1969 2481 2137 2678 
Q 2306 2875 2306 3113 
z
M 2438 981 
Q 2438 1125 2384 1242 
Q 2331 1359 2223 1461 
Q 2116 1563 1955 1658 
Q 1794 1753 1581 1856 
Q 1384 1759 1236 1662 
Q 1088 1566 992 1462 
Q 897 1359 848 1245 
Q 800 1131 800 994 
Q 800 691 1008 525 
Q 1216 359 1628 359 
Q 2028 359 2233 526 
Q 2438 694 2438 981 
z
" transform="scale(0.015625)"/>
       </defs>
       <use xlink:href="#Calibri-30"/>
       <use xlink:href="#Calibri-2e" x="50.683594"/>
       <use xlink:href="#Calibri-38" x="75.927734"/>
      </g>
     </g>
    </g>
    <g id="xtick_10">
     <g id="line2d_10">
      <g>
       <use xlink:href="#m7b6ab7f70e" x="314.7264" y="307.584" style="stroke: #000000; stroke-width: 0.8"/>
      </g>
     </g>
     <g id="text_10">
      <!-- 0.9 -->
      <g transform="translate(308.39515 321.385562) scale(0.1 -0.1)">
       <defs>
        <path id="Calibri-39" d="M 2919 2181 
Q 2919 1919 2887 1650 
Q 2856 1381 2781 1132 
Q 2706 884 2579 667 
Q 2453 450 2261 287 
Q 2069 125 1805 33 
Q 1541 -59 1191 -59 
Q 1056 -59 929 -42 
Q 803 -25 701 0 
Q 600 25 531 53 
Q 463 81 431 109 
Q 400 138 386 186 
Q 372 234 372 316 
Q 372 384 376 425 
Q 381 466 390 487 
Q 400 509 417 517 
Q 434 525 459 525 
Q 494 525 556 501 
Q 619 478 714 450 
Q 809 422 937 398 
Q 1066 375 1225 375 
Q 1528 375 1745 492 
Q 1963 609 2100 806 
Q 2238 1003 2306 1262 
Q 2375 1522 2381 1809 
Q 2216 1713 1984 1638 
Q 1753 1563 1453 1563 
Q 1116 1563 886 1655 
Q 656 1747 517 1906 
Q 378 2066 317 2284 
Q 256 2503 256 2763 
Q 256 3031 334 3273 
Q 413 3516 578 3700 
Q 744 3884 1000 3993 
Q 1256 4103 1613 4103 
Q 1866 4103 2061 4039 
Q 2256 3975 2400 3854 
Q 2544 3734 2644 3564 
Q 2744 3394 2805 3178 
Q 2866 2963 2892 2711 
Q 2919 2459 2919 2181 
z
M 2372 2241 
Q 2372 2641 2319 2914 
Q 2266 3188 2162 3356 
Q 2059 3525 1909 3600 
Q 1759 3675 1563 3675 
Q 1359 3675 1215 3601 
Q 1072 3528 980 3404 
Q 888 3281 844 3125 
Q 800 2969 800 2803 
Q 800 2619 839 2466 
Q 878 2313 965 2206 
Q 1053 2100 1193 2042 
Q 1334 1984 1541 1984 
Q 1775 1984 1994 2054 
Q 2213 2125 2372 2241 
z
" transform="scale(0.015625)"/>
       </defs>
       <use xlink:href="#Calibri-30"/>
       <use xlink:href="#Calibri-2e" x="50.683594"/>
       <use xlink:href="#Calibri-39" x="75.927734"/>
      </g>
     </g>
    </g>
    <g id="xtick_11">
     <g id="line2d_11">
      <g>
       <use xlink:href="#m7b6ab7f70e" x="343.296" y="307.584" style="stroke: #000000; stroke-width: 0.8"/>
      </g>
     </g>
     <g id="text_11">
      <!-- 1.0 -->
      <g transform="translate(336.96475 321.385562) scale(0.1 -0.1)">
       <use xlink:href="#Calibri-31"/>
       <use xlink:href="#Calibri-2e" x="50.683594"/>
       <use xlink:href="#Calibri-30" x="75.927734"/>
      </g>
     </g>
    </g>
    <g id="text_12">
     <!-- $\mathit{p}$ (cm$^2$/cm$^2$) -->
     <g transform="translate(174.148 336.263687) scale(0.1 -0.1)">
      <defs>
       <path id="DejaVuSans-Oblique-70" d="M 3175 2156 
Q 3175 2616 2975 2859 
Q 2775 3103 2400 3103 
Q 2144 3103 1911 2972 
Q 1678 2841 1497 2591 
Q 1319 2344 1212 1994 
Q 1106 1644 1106 1300 
Q 1106 863 1306 627 
Q 1506 391 1875 391 
Q 2147 391 2380 519 
Q 2613 647 2778 891 
Q 2956 1147 3065 1494 
Q 3175 1841 3175 2156 
z
M 1394 2969 
Q 1625 3272 1939 3428 
Q 2253 3584 2638 3584 
Q 3175 3584 3472 3232 
Q 3769 2881 3769 2247 
Q 3769 1728 3584 1258 
Q 3400 788 3053 416 
Q 2822 169 2531 39 
Q 2241 -91 1919 -91 
Q 1547 -91 1294 64 
Q 1041 219 916 525 
L 556 -1331 
L -19 -1331 
L 922 3500 
L 1497 3500 
L 1394 2969 
z
" transform="scale(0.015625)"/>
       <path id="Calibri-20" transform="scale(0.015625)"/>
       <path id="Calibri-28" d="M 1547 4306 
Q 1250 3678 1104 3017 
Q 959 2356 959 1688 
Q 959 1016 1107 356 
Q 1256 -303 1541 -938 
Q 1556 -975 1557 -1001 
Q 1559 -1028 1537 -1045 
Q 1516 -1063 1470 -1070 
Q 1425 -1078 1347 -1078 
Q 1291 -1078 1250 -1075 
Q 1209 -1072 1179 -1062 
Q 1150 -1053 1131 -1040 
Q 1113 -1028 1103 -1013 
Q 934 -694 806 -367 
Q 678 -41 590 296 
Q 503 634 459 979 
Q 416 1325 416 1678 
Q 416 2031 464 2375 
Q 513 2719 602 3058 
Q 691 3397 819 3725 
Q 947 4053 1106 4375 
Q 1109 4388 1123 4397 
Q 1138 4406 1163 4415 
Q 1188 4425 1231 4429 
Q 1275 4434 1344 4434 
Q 1416 4434 1459 4425 
Q 1503 4416 1528 4400 
Q 1553 4384 1556 4359 
Q 1559 4334 1547 4306 
z
" transform="scale(0.015625)"/>
       <path id="Calibri-63" d="M 2500 506 
Q 2500 453 2497 414 
Q 2494 375 2486 348 
Q 2478 322 2467 301 
Q 2456 281 2417 242 
Q 2378 203 2284 145 
Q 2191 88 2073 42 
Q 1956 -3 1818 -31 
Q 1681 -59 1534 -59 
Q 1231 -59 997 41 
Q 763 141 605 333 
Q 447 525 364 804 
Q 281 1084 281 1450 
Q 281 1866 382 2164 
Q 484 2463 661 2653 
Q 838 2844 1077 2936 
Q 1316 3028 1594 3028 
Q 1728 3028 1854 3003 
Q 1981 2978 2087 2937 
Q 2194 2897 2276 2844 
Q 2359 2791 2396 2753 
Q 2434 2716 2448 2694 
Q 2463 2672 2472 2642 
Q 2481 2613 2484 2575 
Q 2488 2538 2488 2481 
Q 2488 2359 2459 2311 
Q 2431 2263 2391 2263 
Q 2344 2263 2283 2314 
Q 2222 2366 2128 2428 
Q 2034 2491 1901 2542 
Q 1769 2594 1588 2594 
Q 1216 2594 1017 2308 
Q 819 2022 819 1478 
Q 819 1206 870 1001 
Q 922 797 1022 659 
Q 1122 522 1267 455 
Q 1413 388 1600 388 
Q 1778 388 1912 444 
Q 2047 500 2145 567 
Q 2244 634 2311 689 
Q 2378 744 2416 744 
Q 2438 744 2453 731 
Q 2469 719 2480 689 
Q 2491 659 2495 614 
Q 2500 569 2500 506 
z
" transform="scale(0.015625)"/>
       <path id="Calibri-6d" d="M 4650 78 
Q 4650 53 4637 36 
Q 4625 19 4597 6 
Q 4569 -6 4519 -12 
Q 4469 -19 4394 -19 
Q 4316 -19 4266 -12 
Q 4216 -6 4186 6 
Q 4156 19 4143 36 
Q 4131 53 4131 78 
L 4131 1788 
Q 4131 1966 4100 2112 
Q 4069 2259 4000 2365 
Q 3931 2472 3825 2528 
Q 3719 2584 3575 2584 
Q 3397 2584 3217 2446 
Q 3038 2309 2822 2044 
L 2822 78 
Q 2822 53 2809 36 
Q 2797 19 2767 6 
Q 2738 -6 2688 -12 
Q 2638 -19 2563 -19 
Q 2491 -19 2439 -12 
Q 2388 -6 2358 6 
Q 2328 19 2317 36 
Q 2306 53 2306 78 
L 2306 1788 
Q 2306 1966 2272 2112 
Q 2238 2259 2169 2365 
Q 2100 2472 1995 2528 
Q 1891 2584 1747 2584 
Q 1569 2584 1387 2446 
Q 1206 2309 994 2044 
L 994 78 
Q 994 53 981 36 
Q 969 19 941 6 
Q 913 -6 863 -12 
Q 813 -19 734 -19 
Q 659 -19 609 -12 
Q 559 -6 529 6 
Q 500 19 489 36 
Q 478 53 478 78 
L 478 2891 
Q 478 2916 487 2933 
Q 497 2950 525 2964 
Q 553 2978 597 2983 
Q 641 2988 713 2988 
Q 781 2988 826 2983 
Q 872 2978 897 2964 
Q 922 2950 933 2933 
Q 944 2916 944 2891 
L 944 2519 
Q 1181 2784 1404 2907 
Q 1628 3031 1856 3031 
Q 2031 3031 2170 2990 
Q 2309 2950 2415 2876 
Q 2522 2803 2597 2701 
Q 2672 2600 2722 2475 
Q 2863 2628 2989 2734 
Q 3116 2841 3233 2906 
Q 3350 2972 3461 3001 
Q 3572 3031 3684 3031 
Q 3956 3031 4140 2936 
Q 4325 2841 4439 2681 
Q 4553 2522 4601 2308 
Q 4650 2094 4650 1856 
L 4650 78 
z
" transform="scale(0.015625)"/>
       <path id="DejaVuSans-32" d="M 1228 531 
L 3431 531 
L 3431 0 
L 469 0 
L 469 531 
Q 828 903 1448 1529 
Q 2069 2156 2228 2338 
Q 2531 2678 2651 2914 
Q 2772 3150 2772 3378 
Q 2772 3750 2511 3984 
Q 2250 4219 1831 4219 
Q 1534 4219 1204 4116 
Q 875 4013 500 3803 
L 500 4441 
Q 881 4594 1212 4672 
Q 1544 4750 1819 4750 
Q 2544 4750 2975 4387 
Q 3406 4025 3406 3419 
Q 3406 3131 3298 2873 
Q 3191 2616 2906 2266 
Q 2828 2175 2409 1742 
Q 1991 1309 1228 531 
z
" transform="scale(0.015625)"/>
       <path id="Calibri-2f" d="M 525 -753 
Q 513 -794 492 -817 
Q 472 -841 440 -853 
Q 409 -866 364 -872 
Q 319 -878 253 -878 
Q 175 -878 123 -867 
Q 72 -856 44 -836 
Q 16 -816 9 -786 
Q 3 -756 22 -716 
L 1913 4469 
Q 1925 4509 1945 4532 
Q 1966 4556 1995 4570 
Q 2025 4584 2072 4589 
Q 2119 4594 2184 4594 
Q 2263 4594 2313 4583 
Q 2363 4572 2391 4553 
Q 2419 4534 2425 4503 
Q 2431 4472 2416 4431 
L 525 -753 
z
" transform="scale(0.015625)"/>
       <path id="Calibri-29" d="M 1522 1678 
Q 1522 1325 1478 979 
Q 1434 634 1346 296 
Q 1259 -41 1132 -367 
Q 1006 -694 838 -1013 
Q 828 -1028 809 -1040 
Q 791 -1053 761 -1062 
Q 731 -1072 690 -1075 
Q 650 -1078 594 -1078 
Q 513 -1078 467 -1070 
Q 422 -1063 401 -1045 
Q 381 -1028 382 -1001 
Q 384 -975 400 -938 
Q 688 -306 834 355 
Q 981 1016 981 1688 
Q 981 2356 834 3017 
Q 688 3678 394 4306 
Q 381 4334 384 4359 
Q 388 4384 413 4400 
Q 438 4416 481 4425 
Q 525 4434 597 4434 
Q 663 4434 706 4429 
Q 750 4425 776 4415 
Q 803 4406 815 4397 
Q 828 4388 834 4375 
Q 1156 3734 1339 3057 
Q 1522 2381 1522 1678 
z
" transform="scale(0.015625)"/>
      </defs>
      <use xlink:href="#DejaVuSans-Oblique-70" transform="translate(0 0.765625)"/>
      <use xlink:href="#Calibri-20" transform="translate(63.476562 0.765625)"/>
      <use xlink:href="#Calibri-28" transform="translate(84.958984 0.765625)"/>
      <use xlink:href="#Calibri-63" transform="translate(115.28125 0.765625)"/>
      <use xlink:href="#Calibri-6d" transform="translate(157.566406 0.765625)"/>
      <use xlink:href="#DejaVuSans-32" transform="translate(238.40625 39.046875) scale(0.7)"/>
      <use xlink:href="#Calibri-2f" transform="translate(285.676758 0.765625)"/>
      <use xlink:href="#Calibri-63" transform="translate(324.299805 0.765625)"/>
      <use xlink:href="#Calibri-6d" transform="translate(366.584961 0.765625)"/>
      <use xlink:href="#DejaVuSans-32" transform="translate(447.424805 39.046875) scale(0.7)"/>
      <use xlink:href="#Calibri-29" transform="translate(494.695312 0.765625)"/>
     </g>
    </g>
   </g>
   <g id="matplotlib.axis_2">
    <g id="ytick_1">
     <g id="line2d_12">
      <defs>
       <path id="m0008bc1ed8" d="M 0 0 
L -3.5 0 
" style="stroke: #000000; stroke-width: 0.8"/>
      </defs>
      <g>
       <use xlink:href="#m0008bc1ed8" x="57.6" y="275.65056" style="stroke: #000000; stroke-width: 0.8"/>
      </g>
     </g>
     <g id="text_13">
      <!-- 25 -->
      <g transform="translate(40.4625 279.051341) scale(0.1 -0.1)">
       <use xlink:href="#Calibri-32"/>
       <use xlink:href="#Calibri-35" x="50.683594"/>
      </g>
     </g>
    </g>
    <g id="ytick_2">
     <g id="line2d_13">
      <g>
       <use xlink:href="#m0008bc1ed8" x="57.6" y="242.38656" style="stroke: #000000; stroke-width: 0.8"/>
      </g>
     </g>
     <g id="text_14">
      <!-- 50 -->
      <g transform="translate(40.4625 245.787341) scale(0.1 -0.1)">
       <use xlink:href="#Calibri-35"/>
       <use xlink:href="#Calibri-30" x="50.683594"/>
      </g>
     </g>
    </g>
    <g id="ytick_3">
     <g id="line2d_14">
      <g>
       <use xlink:href="#m0008bc1ed8" x="57.6" y="209.12256" style="stroke: #000000; stroke-width: 0.8"/>
      </g>
     </g>
     <g id="text_15">
      <!-- 75 -->
      <g transform="translate(40.4625 212.523341) scale(0.1 -0.1)">
       <use xlink:href="#Calibri-37"/>
       <use xlink:href="#Calibri-35" x="50.683594"/>
      </g>
     </g>
    </g>
    <g id="ytick_4">
     <g id="line2d_15">
      <g>
       <use xlink:href="#m0008bc1ed8" x="57.6" y="175.85856" style="stroke: #000000; stroke-width: 0.8"/>
      </g>
     </g>
     <g id="text_16">
      <!-- 100 -->
      <g transform="translate(35.39375 179.259341) scale(0.1 -0.1)">
       <use xlink:href="#Calibri-31"/>
       <use xlink:href="#Calibri-30" x="50.683594"/>
       <use xlink:href="#Calibri-30" x="101.367188"/>
      </g>
     </g>
    </g>
    <g id="ytick_5">
     <g id="line2d_16">
      <g>
       <use xlink:href="#m0008bc1ed8" x="57.6" y="142.59456" style="stroke: #000000; stroke-width: 0.8"/>
      </g>
     </g>
     <g id="text_17">
      <!-- 125 -->
      <g transform="translate(35.39375 145.995341) scale(0.1 -0.1)">
       <use xlink:href="#Calibri-31"/>
       <use xlink:href="#Calibri-32" x="50.683594"/>
       <use xlink:href="#Calibri-35" x="101.367188"/>
      </g>
     </g>
    </g>
    <g id="ytick_6">
     <g id="line2d_17">
      <g>
       <use xlink:href="#m0008bc1ed8" x="57.6" y="109.33056" style="stroke: #000000; stroke-width: 0.8"/>
      </g>
     </g>
     <g id="text_18">
      <!-- 150 -->
      <g transform="translate(35.39375 112.731341) scale(0.1 -0.1)">
       <use xlink:href="#Calibri-31"/>
       <use xlink:href="#Calibri-35" x="50.683594"/>
       <use xlink:href="#Calibri-30" x="101.367188"/>
      </g>
     </g>
    </g>
    <g id="ytick_7">
     <g id="line2d_18">
      <g>
       <use xlink:href="#m0008bc1ed8" x="57.6" y="76.06656" style="stroke: #000000; stroke-width: 0.8"/>
      </g>
     </g>
     <g id="text_19">
      <!-- 175 -->
      <g transform="translate(35.39375 79.467341) scale(0.1 -0.1)">
       <use xlink:href="#Calibri-31"/>
       <use xlink:href="#Calibri-37" x="50.683594"/>
       <use xlink:href="#Calibri-35" x="101.367188"/>
      </g>
     </g>
    </g>
    <g id="ytick_8">
     <g id="line2d_19">
      <g>
       <use xlink:href="#m0008bc1ed8" x="57.6" y="42.80256" style="stroke: #000000; stroke-width: 0.8"/>
      </g>
     </g>
     <g id="text_20">
      <!-- 200 -->
      <g transform="translate(35.39375 46.203341) scale(0.1 -0.1)">
       <use xlink:href="#Calibri-32"/>
       <use xlink:href="#Calibri-30" x="50.683594"/>
       <use xlink:href="#Calibri-30" x="101.367188"/>
      </g>
     </g>
    </g>
    <g id="text_21">
     <!-- $\mathit{Z}$$_{a}$ (nm) -->
     <g transform="translate(29.59375 191.028) rotate(-90) scale(0.1 -0.1)">
      <defs>
       <path id="DejaVuSans-Oblique-5a" d="M 838 4666 
L 4500 4666 
L 4409 4184 
L 794 531 
L 3769 531 
L 3669 0 
L -141 0 
L -50 481 
L 3566 4134 
L 738 4134 
L 838 4666 
z
" transform="scale(0.015625)"/>
       <path id="DejaVuSans-Oblique-61" d="M 3438 1997 
L 3047 0 
L 2472 0 
L 2578 531 
Q 2325 219 2001 64 
Q 1678 -91 1281 -91 
Q 834 -91 548 182 
Q 263 456 263 884 
Q 263 1497 752 1853 
Q 1241 2209 2100 2209 
L 2900 2209 
L 2931 2363 
Q 2938 2388 2941 2417 
Q 2944 2447 2944 2509 
Q 2944 2788 2717 2942 
Q 2491 3097 2081 3097 
Q 1800 3097 1504 3025 
Q 1209 2953 897 2809 
L 997 3341 
Q 1322 3463 1633 3523 
Q 1944 3584 2234 3584 
Q 2853 3584 3176 3315 
Q 3500 3047 3500 2534 
Q 3500 2431 3484 2292 
Q 3469 2153 3438 1997 
z
M 2816 1759 
L 2241 1759 
Q 1534 1759 1195 1570 
Q 856 1381 856 984 
Q 856 709 1029 553 
Q 1203 397 1509 397 
Q 1978 397 2328 733 
Q 2678 1069 2791 1631 
L 2816 1759 
z
" transform="scale(0.015625)"/>
       <path id="Calibri-6e" d="M 2900 78 
Q 2900 53 2887 36 
Q 2875 19 2847 6 
Q 2819 -6 2769 -12 
Q 2719 -19 2644 -19 
Q 2566 -19 2516 -12 
Q 2466 -6 2437 6 
Q 2409 19 2396 36 
Q 2384 53 2384 78 
L 2384 1725 
Q 2384 1966 2346 2112 
Q 2309 2259 2237 2365 
Q 2166 2472 2052 2528 
Q 1938 2584 1788 2584 
Q 1594 2584 1400 2446 
Q 1206 2309 994 2044 
L 994 78 
Q 994 53 981 36 
Q 969 19 941 6 
Q 913 -6 863 -12 
Q 813 -19 734 -19 
Q 659 -19 609 -12 
Q 559 -6 529 6 
Q 500 19 489 36 
Q 478 53 478 78 
L 478 2891 
Q 478 2916 487 2933 
Q 497 2950 525 2964 
Q 553 2978 597 2983 
Q 641 2988 713 2988 
Q 781 2988 826 2983 
Q 872 2978 897 2964 
Q 922 2950 933 2933 
Q 944 2916 944 2891 
L 944 2519 
Q 1181 2784 1417 2907 
Q 1653 3031 1894 3031 
Q 2175 3031 2367 2936 
Q 2559 2841 2678 2681 
Q 2797 2522 2848 2308 
Q 2900 2094 2900 1794 
L 2900 78 
z
" transform="scale(0.015625)"/>
      </defs>
      <use xlink:href="#DejaVuSans-Oblique-5a" transform="translate(0 0.09375)"/>
      <use xlink:href="#DejaVuSans-Oblique-61" transform="translate(69.462891 -16.3125) scale(0.7)"/>
      <use xlink:href="#Calibri-20" transform="translate(115.092773 0.09375)"/>
      <use xlink:href="#Calibri-28" transform="translate(136.575195 0.09375)"/>
      <use xlink:href="#Calibri-6e" transform="translate(166.897461 0.09375)"/>
      <use xlink:href="#Calibri-6d" transform="translate(219.436523 0.09375)"/>
      <use xlink:href="#Calibri-29" transform="translate(299.319336 0.09375)"/>
     </g>
    </g>
   </g>
   <g id="patch_3">
    <path d="M 57.6 307.584 
L 57.6 41.472 
" style="fill: none; stroke: #000000; stroke-width: 0.8; stroke-linejoin: miter; stroke-linecap: square"/>
   </g>
   <g id="patch_4">
    <path d="M 343.296 307.584 
L 343.296 41.472 
" style="fill: none; stroke: #000000; stroke-width: 0.8; stroke-linejoin: miter; stroke-linecap: square"/>
   </g>
   <g id="patch_5">
    <path d="M 57.6 307.584 
L 343.296 307.584 
" style="fill: none; stroke: #000000; stroke-width: 0.8; stroke-linejoin: miter; stroke-linecap: square"/>
   </g>
   <g id="patch_6">
    <path d="M 57.6 41.472 
L 343.296 41.472 
" style="fill: none; stroke: #000000; stroke-width: 0.8; stroke-linejoin: miter; stroke-linecap: square"/>
   </g>
   <g id="text_22">
    <!-- $\lambda$ = 575 nm -->
    <g transform="translate(177.348 35.472) scale(0.1 -0.1)">
     <defs>
      <path id="DejaVuSans-Oblique-3bb" d="M 2350 4316 
L 3125 0 
L 2516 0 
L 2038 2588 
L 328 0 
L -281 0 
L 1903 3356 
L 1794 3975 
Q 1725 4369 1391 4369 
L 1091 4369 
L 1184 4863 
L 1550 4856 
Q 2253 4847 2350 4316 
z
" transform="scale(0.015625)"/>
      <path id="Calibri-3d" d="M 2891 2409 
Q 2891 2284 2855 2236 
Q 2819 2188 2772 2188 
L 409 2188 
Q 363 2188 328 2236 
Q 294 2284 294 2409 
Q 294 2522 325 2575 
Q 356 2628 409 2628 
L 2772 2628 
Q 2828 2628 2859 2575 
Q 2891 2522 2891 2409 
z
M 2891 1194 
Q 2891 1069 2855 1022 
Q 2819 975 2772 975 
L 409 975 
Q 363 975 328 1022 
Q 294 1069 294 1194 
Q 294 1309 325 1362 
Q 356 1416 409 1416 
L 2772 1416 
Q 2828 1416 2859 1362 
Q 2891 1309 2891 1194 
z
" transform="scale(0.015625)"/>
     </defs>
     <use xlink:href="#DejaVuSans-Oblique-3bb" transform="translate(0 0.015625)"/>
     <use xlink:href="#Calibri-20" transform="translate(59.179688 0.015625)"/>
     <use xlink:href="#Calibri-3d" transform="translate(81.787109 0.015625)"/>
     <use xlink:href="#Calibri-20" transform="translate(131.591797 0.015625)"/>
     <use xlink:href="#Calibri-35" transform="translate(154.199219 0.015625)"/>
     <use xlink:href="#Calibri-37" transform="translate(204.882812 0.015625)"/>
     <use xlink:href="#Calibri-35" transform="translate(255.566406 0.015625)"/>
     <use xlink:href="#Calibri-20" transform="translate(306.25 0.015625)"/>
     <use xlink:href="#Calibri-6e" transform="translate(328.857422 0.015625)"/>
     <use xlink:href="#Calibri-6d" transform="translate(381.396484 0.015625)"/>
    </g>
   </g>
  </g>
  <g id="axes_2">
   <g id="patch_7">
    <path d="M 361.152 307.584 
L 374.4576 307.584 
L 374.4576 41.472 
L 361.152 41.472 
z
" style="fill: #ffffff"/>
   </g>
   <g id="QuadMesh_1">
    <path d="M 361.152 307.584 
L 374.4576 307.584 
L 374.4576 280.9728 
L 361.152 280.9728 
L 361.152 307.584 
" clip-path="url(#p7f7a36ce3f)" style="fill: #0000b6"/>
    <path d="M 361.152 280.9728 
L 374.4576 280.9728 
L 374.4576 254.3616 
L 361.152 254.3616 
L 361.152 280.9728 
" clip-path="url(#p7f7a36ce3f)" style="fill: #0018ff"/>
    <path d="M 361.152 254.3616 
L 374.4576 254.3616 
L 374.4576 227.7504 
L 361.152 227.7504 
L 361.152 254.3616 
" clip-path="url(#p7f7a36ce3f)" style="fill: #0080ff"/>
    <path d="M 361.152 227.7504 
L 374.4576 227.7504 
L 374.4576 201.1392 
L 361.152 201.1392 
L 361.152 227.7504 
" clip-path="url(#p7f7a36ce3f)" style="fill: #00e4f8"/>
    <path d="M 361.152 201.1392 
L 374.4576 201.1392 
L 374.4576 174.528 
L 361.152 174.528 
L 361.152 201.1392 
" clip-path="url(#p7f7a36ce3f)" style="fill: #53ffa4"/>
    <path d="M 361.152 174.528 
L 374.4576 174.528 
L 374.4576 147.9168 
L 361.152 147.9168 
L 361.152 174.528 
" clip-path="url(#p7f7a36ce3f)" style="fill: #a4ff53"/>
    <path d="M 361.152 147.9168 
L 374.4576 147.9168 
L 374.4576 121.3056 
L 361.152 121.3056 
L 361.152 147.9168 
" clip-path="url(#p7f7a36ce3f)" style="fill: #f8f500"/>
    <path d="M 361.152 121.3056 
L 374.4576 121.3056 
L 374.4576 94.6944 
L 361.152 94.6944 
L 361.152 121.3056 
" clip-path="url(#p7f7a36ce3f)" style="fill: #ff9400"/>
    <path d="M 361.152 94.6944 
L 374.4576 94.6944 
L 374.4576 68.0832 
L 361.152 68.0832 
L 361.152 94.6944 
" clip-path="url(#p7f7a36ce3f)" style="fill: #ff3800"/>
    <path d="M 361.152 68.0832 
L 374.4576 68.0832 
L 374.4576 41.472 
L 361.152 41.472 
L 361.152 68.0832 
" clip-path="url(#p7f7a36ce3f)" style="fill: #b60000"/>
   </g>
   <g id="matplotlib.axis_3"/>
   <g id="matplotlib.axis_4">
    <g id="ytick_9">
     <g id="line2d_20">
      <defs>
       <path id="m5c72938ecf" d="M 0 0 
L 3.5 0 
" style="stroke: #000000; stroke-width: 0.8"/>
      </defs>
      <g>
       <use xlink:href="#m5c72938ecf" x="374.4576" y="307.584" style="stroke: #000000; stroke-width: 0.8"/>
      </g>
     </g>
     <g id="text_23">
      <!-- 0 -->
      <g transform="translate(381.4576 310.984781) scale(0.1 -0.1)">
       <use xlink:href="#Calibri-30"/>
      </g>
     </g>
    </g>
    <g id="ytick_10">
     <g id="line2d_21">
      <g>
       <use xlink:href="#m5c72938ecf" x="374.4576" y="280.9728" style="stroke: #000000; stroke-width: 0.8"/>
      </g>
     </g>
     <g id="text_24">
      <!-- 0.1 -->
      <g transform="translate(381.4576 284.373581) scale(0.1 -0.1)">
       <use xlink:href="#Calibri-30"/>
       <use xlink:href="#Calibri-2e" x="50.683594"/>
       <use xlink:href="#Calibri-31" x="75.927734"/>
      </g>
     </g>
    </g>
    <g id="ytick_11">
     <g id="line2d_22">
      <g>
       <use xlink:href="#m5c72938ecf" x="374.4576" y="254.3616" style="stroke: #000000; stroke-width: 0.8"/>
      </g>
     </g>
     <g id="text_25">
      <!-- 0.2 -->
      <g transform="translate(381.4576 257.762381) scale(0.1 -0.1)">
       <use xlink:href="#Calibri-30"/>
       <use xlink:href="#Calibri-2e" x="50.683594"/>
       <use xlink:href="#Calibri-32" x="75.927734"/>
      </g>
     </g>
    </g>
    <g id="ytick_12">
     <g id="line2d_23">
      <g>
       <use xlink:href="#m5c72938ecf" x="374.4576" y="227.7504" style="stroke: #000000; stroke-width: 0.8"/>
      </g>
     </g>
     <g id="text_26">
      <!-- 0.3 -->
      <g transform="translate(381.4576 231.151181) scale(0.1 -0.1)">
       <use xlink:href="#Calibri-30"/>
       <use xlink:href="#Calibri-2e" x="50.683594"/>
       <use xlink:href="#Calibri-33" x="75.927734"/>
      </g>
     </g>
    </g>
    <g id="ytick_13">
     <g id="line2d_24">
      <g>
       <use xlink:href="#m5c72938ecf" x="374.4576" y="201.1392" style="stroke: #000000; stroke-width: 0.8"/>
      </g>
     </g>
     <g id="text_27">
      <!-- 0.4 -->
      <g transform="translate(381.4576 204.539981) scale(0.1 -0.1)">
       <use xlink:href="#Calibri-30"/>
       <use xlink:href="#Calibri-2e" x="50.683594"/>
       <use xlink:href="#Calibri-34" x="75.927734"/>
      </g>
     </g>
    </g>
    <g id="ytick_14">
     <g id="line2d_25">
      <g>
       <use xlink:href="#m5c72938ecf" x="374.4576" y="174.528" style="stroke: #000000; stroke-width: 0.8"/>
      </g>
     </g>
     <g id="text_28">
      <!-- 0.5 -->
      <g transform="translate(381.4576 177.928781) scale(0.1 -0.1)">
       <use xlink:href="#Calibri-30"/>
       <use xlink:href="#Calibri-2e" x="50.683594"/>
       <use xlink:href="#Calibri-35" x="75.927734"/>
      </g>
     </g>
    </g>
    <g id="ytick_15">
     <g id="line2d_26">
      <g>
       <use xlink:href="#m5c72938ecf" x="374.4576" y="147.9168" style="stroke: #000000; stroke-width: 0.8"/>
      </g>
     </g>
     <g id="text_29">
      <!-- 0.6 -->
      <g transform="translate(381.4576 151.317581) scale(0.1 -0.1)">
       <use xlink:href="#Calibri-30"/>
       <use xlink:href="#Calibri-2e" x="50.683594"/>
       <use xlink:href="#Calibri-36" x="75.927734"/>
      </g>
     </g>
    </g>
    <g id="ytick_16">
     <g id="line2d_27">
      <g>
       <use xlink:href="#m5c72938ecf" x="374.4576" y="121.3056" style="stroke: #000000; stroke-width: 0.8"/>
      </g>
     </g>
     <g id="text_30">
      <!-- 0.7 -->
      <g transform="translate(381.4576 124.706381) scale(0.1 -0.1)">
       <use xlink:href="#Calibri-30"/>
       <use xlink:href="#Calibri-2e" x="50.683594"/>
       <use xlink:href="#Calibri-37" x="75.927734"/>
      </g>
     </g>
    </g>
    <g id="ytick_17">
     <g id="line2d_28">
      <g>
       <use xlink:href="#m5c72938ecf" x="374.4576" y="94.6944" style="stroke: #000000; stroke-width: 0.8"/>
      </g>
     </g>
     <g id="text_31">
      <!-- 0.8 -->
      <g transform="translate(381.4576 98.095181) scale(0.1 -0.1)">
       <use xlink:href="#Calibri-30"/>
       <use xlink:href="#Calibri-2e" x="50.683594"/>
       <use xlink:href="#Calibri-38" x="75.927734"/>
      </g>
     </g>
    </g>
    <g id="ytick_18">
     <g id="line2d_29">
      <g>
       <use xlink:href="#m5c72938ecf" x="374.4576" y="68.0832" style="stroke: #000000; stroke-width: 0.8"/>
      </g>
     </g>
     <g id="text_32">
      <!-- 0.9 -->
      <g transform="translate(381.4576 71.483981) scale(0.1 -0.1)">
       <use xlink:href="#Calibri-30"/>
       <use xlink:href="#Calibri-2e" x="50.683594"/>
       <use xlink:href="#Calibri-39" x="75.927734"/>
      </g>
     </g>
    </g>
    <g id="ytick_19">
     <g id="line2d_30">
      <g>
       <use xlink:href="#m5c72938ecf" x="374.4576" y="41.472" style="stroke: #000000; stroke-width: 0.8"/>
      </g>
     </g>
     <g id="text_33">
      <!-- 1.0 -->
      <g transform="translate(381.4576 44.872781) scale(0.1 -0.1)">
       <use xlink:href="#Calibri-31"/>
       <use xlink:href="#Calibri-2e" x="50.683594"/>
       <use xlink:href="#Calibri-30" x="75.927734"/>
      </g>
     </g>
    </g>
   </g>
   <g id="LineCollection_1"/>
   <g id="patch_8">
    <path d="M 361.152 307.584 
L 367.8048 307.584 
L 374.4576 307.584 
L 374.4576 41.472 
L 367.8048 41.472 
L 361.152 41.472 
L 361.152 307.584 
z
" style="fill: none; stroke: #000000; stroke-width: 0.8; stroke-linejoin: miter; stroke-linecap: square"/>
   </g>
   <g id="text_34">
    <!-- $\mathit{E}_{\mathrm{dis}}$/$\mathit{E}_{\mathrm{i}}$ -->
    <g transform="translate(353.2548 35.472) scale(0.1 -0.1)">
     <defs>
      <path id="DejaVuSans-Oblique-45" d="M 1081 4666 
L 4031 4666 
L 3928 4134 
L 1606 4134 
L 1338 2753 
L 3566 2753 
L 3463 2222 
L 1234 2222 
L 909 531 
L 3284 531 
L 3181 0 
L 172 0 
L 1081 4666 
z
" transform="scale(0.015625)"/>
      <path id="DejaVuSans-64" d="M 2906 2969 
L 2906 4863 
L 3481 4863 
L 3481 0 
L 2906 0 
L 2906 525 
Q 2725 213 2448 61 
Q 2172 -91 1784 -91 
Q 1150 -91 751 415 
Q 353 922 353 1747 
Q 353 2572 751 3078 
Q 1150 3584 1784 3584 
Q 2172 3584 2448 3432 
Q 2725 3281 2906 2969 
z
M 947 1747 
Q 947 1113 1208 752 
Q 1469 391 1925 391 
Q 2381 391 2643 752 
Q 2906 1113 2906 1747 
Q 2906 2381 2643 2742 
Q 2381 3103 1925 3103 
Q 1469 3103 1208 2742 
Q 947 2381 947 1747 
z
" transform="scale(0.015625)"/>
      <path id="DejaVuSans-69" d="M 603 3500 
L 1178 3500 
L 1178 0 
L 603 0 
L 603 3500 
z
M 603 4863 
L 1178 4863 
L 1178 4134 
L 603 4134 
L 603 4863 
z
" transform="scale(0.015625)"/>
      <path id="DejaVuSans-73" d="M 2834 3397 
L 2834 2853 
Q 2591 2978 2328 3040 
Q 2066 3103 1784 3103 
Q 1356 3103 1142 2972 
Q 928 2841 928 2578 
Q 928 2378 1081 2264 
Q 1234 2150 1697 2047 
L 1894 2003 
Q 2506 1872 2764 1633 
Q 3022 1394 3022 966 
Q 3022 478 2636 193 
Q 2250 -91 1575 -91 
Q 1294 -91 989 -36 
Q 684 19 347 128 
L 347 722 
Q 666 556 975 473 
Q 1284 391 1588 391 
Q 1994 391 2212 530 
Q 2431 669 2431 922 
Q 2431 1156 2273 1281 
Q 2116 1406 1581 1522 
L 1381 1569 
Q 847 1681 609 1914 
Q 372 2147 372 2553 
Q 372 3047 722 3315 
Q 1072 3584 1716 3584 
Q 2034 3584 2315 3537 
Q 2597 3491 2834 3397 
z
" transform="scale(0.015625)"/>
     </defs>
     <use xlink:href="#DejaVuSans-Oblique-45" transform="translate(0 0.09375)"/>
     <use xlink:href="#DejaVuSans-64" transform="translate(63.183594 -16.3125) scale(0.7)"/>
     <use xlink:href="#DejaVuSans-69" transform="translate(107.617188 -16.3125) scale(0.7)"/>
     <use xlink:href="#DejaVuSans-73" transform="translate(127.06543 -16.3125) scale(0.7)"/>
     <use xlink:href="#Calibri-2f" transform="translate(166.269531 0.09375)"/>
     <use xlink:href="#DejaVuSans-Oblique-45" transform="translate(204.892578 0.09375)"/>
     <use xlink:href="#DejaVuSans-69" transform="translate(268.076172 -16.3125) scale(0.7)"/>
    </g>
   </g>
  </g>
 </g>
 <defs>
  <clipPath id="pf3cbfec2bf">
   <rect x="57.6" y="41.472" width="285.696" height="266.112"/>
  </clipPath>
  <clipPath id="p7f7a36ce3f">
   <rect x="361.152" y="41.472" width="13.3056" height="266.112"/>
  </clipPath>
 </defs>
</svg>
