<?xml version="1.0" encoding="utf-8" standalone="no"?>
<!DOCTYPE svg PUBLIC "-//W3C//DTD SVG 1.1//EN"
  "http://www.w3.org/Graphics/SVG/1.1/DTD/svg11.dtd">
<svg xmlns:xlink="http://www.w3.org/1999/xlink" width="460.8pt" height="345.6pt" viewBox="0 0 460.8 345.6" xmlns="http://www.w3.org/2000/svg" version="1.1">
 <metadata>
  <rdf:RDF xmlns:dc="http://purl.org/dc/elements/1.1/" xmlns:cc="http://creativecommons.org/ns#" xmlns:rdf="http://www.w3.org/1999/02/22-rdf-syntax-ns#">
   <cc:Work>
    <dc:type rdf:resource="http://purl.org/dc/dcmitype/StillImage"/>
    <dc:date>2024-01-22T08:48:06.628566</dc:date>
    <dc:format>image/svg+xml</dc:format>
    <dc:creator>
     <cc:Agent>
      <dc:title>Matplotlib v3.7.1, https://matplotlib.org/</dc:title>
     </cc:Agent>
    </dc:creator>
   </cc:Work>
  </rdf:RDF>
 </metadata>
 <defs>
  <style type="text/css">*{stroke-linejoin: round; stroke-linecap: butt}</style>
 </defs>
 <g id="figure_1">
  <g id="patch_1">
   <path d="M 0 345.6 
L 460.8 345.6 
L 460.8 0 
L 0 0 
z
" style="fill: #ffffff"/>
  </g>
  <g id="axes_1">
   <g id="patch_2">
    <path d="M 57.6 307.584 
L 343.296 307.584 
L 343.296 41.472 
L 57.6 41.472 
z
" style="fill: #ffffff"/>
   </g>
   <g id="PathCollection_1">
    <path clip-path="url(#p02946b05e4)" style="fill: #0000b6"/>
   </g>
   <g id="PathCollection_2">
    <path d="M 57.62857 61.327015 
L 57.767329 61.127475 
L 58.172034 60.543996 
L 58.2327 60.45612 
L 59.425583 58.700642 
L 59.826091 58.104 
L 60.486011 57.102708 
L 61.021558 56.282722 
L 61.224357 55.974726 
L 61.369348 55.75188 
L 61.708991 55.221336 
L 61.994744 54.7776 
L 62.069357 54.659731 
L 62.612528 53.80332 
L 62.995784 53.18911 
L 63.57042 52.257565 
L 63.804856 51.880416 
L 64.069371 51.4512 
L 64.739593 50.343202 
L 65.48377 49.09908 
L 65.775715 48.602781 
L 65.875381 48.435507 
L 66.057672 48.1248 
L 66.380563 47.56425 
L 66.620945 47.15052 
L 67.068519 46.367291 
L 67.957962 44.7984 
L 68.142556 44.466576 
L 69.254698 42.44628 
L 69.293229 42.375068 
L 69.780368 41.472 
L 68.294554 41.472 
L 66.770842 41.472 
L 65.24713 41.472 
L 63.723418 41.472 
L 62.199706 41.472 
L 60.675994 41.472 
L 59.152282 41.472 
L 57.62857 41.472 
L 57.62857 44.7984 
L 57.62857 48.1248 
L 57.62857 51.4512 
L 57.62857 54.7776 
L 57.62857 58.104 
" clip-path="url(#p02946b05e4)" style="fill: #0018ff"/>
   </g>
   <g id="PathCollection_3">
    <path d="M 69.780368 41.472 
L 69.293229 42.375068 
L 69.254698 42.44628 
L 68.142556 44.466576 
L 67.957962 44.7984 
L 67.068519 46.367291 
L 66.620945 47.15052 
L 66.380563 47.56425 
L 66.057672 48.1248 
L 65.875381 48.435507 
L 65.775715 48.602781 
L 65.48377 49.09908 
L 64.739593 50.343202 
L 64.069371 51.4512 
L 63.804856 51.880416 
L 63.57042 52.257565 
L 62.995784 53.18911 
L 62.612528 53.80332 
L 62.069357 54.659731 
L 61.994744 54.7776 
L 61.708991 55.221336 
L 61.369348 55.75188 
L 61.224357 55.974726 
L 61.021558 56.282722 
L 60.486011 57.102708 
L 59.826091 58.104 
L 59.425583 58.700642 
L 58.2327 60.45612 
L 58.172034 60.543996 
L 57.767329 61.127475 
L 57.62857 61.327015 
L 57.62857 61.4304 
L 57.62857 64.7568 
L 57.62857 68.0832 
L 57.62857 71.4096 
L 57.62857 74.736 
L 57.62857 78.0624 
L 57.62857 81.3888 
L 57.62857 84.7152 
L 57.62857 88.0416 
L 57.62857 91.368 
L 57.62857 94.6944 
L 57.62857 98.0208 
L 57.62857 101.3472 
L 57.62857 104.6736 
L 57.62857 108 
L 57.62857 111.3264 
L 57.62857 112.995966 
L 57.906969 112.79369 
L 58.786193 112.125603 
L 59.331117 111.716813 
L 59.840815 111.3264 
L 60.568514 110.759935 
L 60.821482 110.559609 
L 61.57834 109.969903 
L 62.830506 108.97428 
L 63.066711 108.784003 
L 63.341263 108.564568 
L 64.034958 108 
L 64.669465 107.477638 
L 65.21567 107.02572 
L 66.016866 106.354004 
L 66.536243 105.910041 
L 66.940816 105.569442 
L 67.987827 104.6736 
L 68.207155 104.482801 
L 68.501469 104.221886 
L 69.556893 103.296048 
L 70.186008 102.735436 
L 70.377248 102.567509 
L 70.652187 102.32148 
L 71.534409 101.521209 
L 71.725447 101.3472 
L 72.655397 100.489632 
L 72.779707 100.37292 
L 73.231508 99.948828 
L 73.718974 99.484403 
L 74.65515 98.600953 
L 75.25891 98.0208 
L 75.810771 97.481409 
L 76.062892 97.231403 
L 76.761929 96.547441 
L 77.644355 95.66868 
L 78.055277 95.253644 
L 78.607241 94.6944 
L 79.483727 93.789662 
L 79.550896 93.72012 
L 80.908541 92.294266 
L 81.775715 91.368 
L 81.968255 91.158726 
L 82.06865 91.048147 
L 82.947242 90.092134 
L 83.92015 89.01588 
L 84.227526 88.670836 
L 84.405028 88.473525 
L 84.786865 88.0416 
L 85.576814 87.135269 
L 85.63592 87.06732 
L 86.952729 85.530872 
L 87.640821 84.7152 
L 88.016741 84.261581 
L 88.240811 83.987872 
L 88.91839 83.169285 
L 89.575483 82.36308 
L 90.050108 81.771834 
L 90.357241 81.3888 
L 91.007966 80.564875 
L 91.124659 80.41452 
L 91.50393 79.92654 
L 92.286844 78.907477 
L 92.772874 78.27837 
L 92.937269 78.0624 
L 93.9425 76.717604 
L 94.62906 75.788719 
L 94.660551 75.746538 
L 94.68723 75.71028 
L 94.769405 75.596829 
L 95.211217 74.988301 
L 95.395885 74.736 
L 95.481372 74.617307 
L 95.523811 74.557355 
L 96.093574 73.76172 
L 96.521008 73.155281 
L 97.061362 72.377885 
L 97.350591 71.965682 
L 97.736629 71.4096 
L 98.353901 70.503852 
L 99.326295 69.05748 
L 99.520884 68.76329 
L 99.971142 68.0832 
L 100.420346 67.392859 
L 100.601945 67.10892 
L 100.70754 66.944218 
L 101.090712 66.340643 
L 101.934768 65.015605 
L 102.097487 64.7568 
L 103.047726 63.216755 
L 103.33993 62.730744 
L 103.33993 61.4304 
L 103.33993 58.104 
L 103.33993 54.7776 
L 103.33993 51.4512 
L 103.33993 48.1248 
L 103.33993 44.7984 
L 103.33993 41.472 
L 101.816218 41.472 
L 100.292506 41.472 
L 98.768794 41.472 
L 97.245082 41.472 
L 95.72137 41.472 
L 94.197658 41.472 
L 92.673946 41.472 
L 91.150234 41.472 
L 89.626522 41.472 
L 88.10281 41.472 
L 86.579098 41.472 
L 85.055386 41.472 
L 83.531674 41.472 
L 82.007962 41.472 
L 80.48425 41.472 
L 78.960538 41.472 
L 77.436826 41.472 
L 75.913114 41.472 
L 74.389402 41.472 
L 72.86569 41.472 
L 71.341978 41.472 
L 69.818266 41.472 
" clip-path="url(#p02946b05e4)" style="fill: #0080ff"/>
   </g>
   <g id="PathCollection_4">
    <path d="M 103.33993 62.730744 
L 103.047726 63.216755 
L 102.097487 64.7568 
L 101.934768 65.015605 
L 101.090712 66.340643 
L 100.70754 66.944218 
L 100.601945 67.10892 
L 100.420346 67.392859 
L 99.971142 68.0832 
L 99.520884 68.76329 
L 99.326295 69.05748 
L 98.353901 70.503852 
L 97.736629 71.4096 
L 97.350591 71.965682 
L 97.061362 72.377885 
L 96.521008 73.155281 
L 96.093574 73.76172 
L 95.523811 74.557355 
L 95.481372 74.617307 
L 95.395885 74.736 
L 95.211217 74.988301 
L 94.769405 75.596829 
L 94.68723 75.71028 
L 94.660551 75.746538 
L 94.62906 75.788719 
L 93.9425 76.717604 
L 92.937269 78.0624 
L 92.772874 78.27837 
L 92.286844 78.907477 
L 91.50393 79.92654 
L 91.124659 80.41452 
L 91.007966 80.564875 
L 90.357241 81.3888 
L 90.050108 81.771834 
L 89.575483 82.36308 
L 88.91839 83.169285 
L 88.240811 83.987872 
L 88.016741 84.261581 
L 87.640821 84.7152 
L 86.952729 85.530872 
L 85.63592 87.06732 
L 85.576814 87.135269 
L 84.786865 88.0416 
L 84.405028 88.473525 
L 84.227526 88.670836 
L 83.92015 89.01588 
L 82.947242 90.092134 
L 82.06865 91.048147 
L 81.968255 91.158726 
L 81.775715 91.368 
L 80.908541 92.294266 
L 79.550896 93.72012 
L 79.483727 93.789662 
L 78.607241 94.6944 
L 78.055277 95.253644 
L 77.644355 95.66868 
L 76.761929 96.547441 
L 76.062892 97.231403 
L 75.810771 97.481409 
L 75.25891 98.0208 
L 74.65515 98.600953 
L 73.718974 99.484403 
L 73.231508 99.948828 
L 72.779707 100.37292 
L 72.655397 100.489632 
L 71.725447 101.3472 
L 71.534409 101.521209 
L 70.652187 102.32148 
L 70.377248 102.567509 
L 70.186008 102.735436 
L 69.556893 103.296048 
L 68.501469 104.221886 
L 68.207155 104.482801 
L 67.987827 104.6736 
L 66.940816 105.569442 
L 66.536243 105.910041 
L 66.016866 106.354004 
L 65.21567 107.02572 
L 64.669465 107.477638 
L 64.034958 108 
L 63.341263 108.564568 
L 63.066711 108.784003 
L 62.830506 108.97428 
L 61.57834 109.969903 
L 60.821482 110.559609 
L 60.568514 110.759935 
L 59.840815 111.3264 
L 59.331117 111.716813 
L 58.786193 112.125603 
L 57.906969 112.79369 
L 57.62857 112.995966 
L 57.62857 114.6528 
L 57.62857 117.9792 
L 57.62857 121.3056 
L 57.62857 124.632 
L 57.62857 127.9584 
L 57.62857 131.2848 
L 57.62857 134.6112 
L 57.62857 137.9376 
L 57.62857 141.264 
L 57.62857 144.5904 
L 57.62857 147.9168 
L 57.62857 151.2432 
L 57.62857 151.375895 
L 57.652086 151.367144 
L 57.961453 151.2432 
L 58.965466 150.835366 
L 59.428126 150.641008 
L 60.480048 150.210478 
L 60.906044 150.030731 
L 61.527675 149.776096 
L 63.195349 149.069622 
L 63.302609 149.02535 
L 63.618151 148.89108 
L 63.914561 148.764897 
L 64.675917 148.433328 
L 65.449089 148.099425 
L 65.538648 148.060973 
L 65.86687 147.9168 
L 67.496396 147.195054 
L 68.059808 146.94252 
L 69.146421 146.450104 
L 69.496475 146.286381 
L 70.088906 146.016796 
L 70.852292 145.659428 
L 71.66208 145.289213 
L 72.838413 144.734159 
L 72.888595 144.711121 
L 73.1442 144.5904 
L 74.165256 144.101069 
L 74.744694 143.814764 
L 75.680195 143.362816 
L 76.194477 143.10749 
L 76.655444 142.884573 
L 77.951679 142.23828 
L 78.312834 142.056144 
L 78.673288 141.875504 
L 79.866924 141.264 
L 80.2597 141.060948 
L 81.323172 140.505392 
L 81.652291 140.334534 
L 81.736733 140.28972 
L 82.388593 139.943699 
L 82.687237 139.78108 
L 84.04445 139.057037 
L 84.935855 138.567578 
L 85.152854 138.4513 
L 86.087409 137.9376 
L 86.478986 137.719047 
L 86.750626 137.563139 
L 87.908136 136.911586 
L 88.345338 136.659367 
L 88.898276 136.347775 
L 90.21372 135.58548 
L 90.511076 135.411072 
L 91.86219 134.6112 
L 92.229683 134.391486 
L 92.349821 134.318105 
L 93.472841 133.63692 
L 93.690228 133.503435 
L 93.78845 133.441504 
L 94.521109 132.989533 
L 95.111083 132.61711 
L 96.061616 132.027588 
L 97.22798 131.2848 
L 97.243212 131.274944 
L 97.247488 131.272115 
L 98.416172 130.514996 
L 99.43015 129.841 
L 99.953637 129.498811 
L 100.729801 128.980056 
L 100.753413 128.964603 
L 100.800949 128.93268 
L 101.995312 128.120348 
L 102.230635 127.9584 
L 103.072533 127.374649 
L 103.33993 127.181344 
L 103.33993 124.632 
L 103.33993 121.3056 
L 103.33993 117.9792 
L 103.33993 114.6528 
L 103.33993 111.3264 
L 103.33993 108 
L 103.33993 104.6736 
L 103.33993 101.3472 
L 103.33993 98.0208 
L 103.33993 94.6944 
L 103.33993 91.368 
L 103.33993 88.0416 
L 103.33993 84.7152 
L 103.33993 81.3888 
L 103.33993 78.0624 
L 103.33993 74.736 
L 103.33993 71.4096 
L 103.33993 68.0832 
L 103.33993 64.7568 
" clip-path="url(#p02946b05e4)" style="fill: #00e4f8"/>
   </g>
   <g id="PathCollection_5">
    <path d="M 103.33993 127.181344 
L 103.072533 127.374649 
L 102.230635 127.9584 
L 101.995312 128.120348 
L 100.800949 128.93268 
L 100.753413 128.964603 
L 100.729801 128.980056 
L 99.953637 129.498811 
L 99.43015 129.841 
L 98.416172 130.514996 
L 97.247488 131.272115 
L 97.243212 131.274944 
L 97.22798 131.2848 
L 96.061616 132.027588 
L 95.111083 132.61711 
L 94.521109 132.989533 
L 93.78845 133.441504 
L 93.690228 133.503435 
L 93.472841 133.63692 
L 92.349821 134.318105 
L 92.229683 134.391486 
L 91.86219 134.6112 
L 90.511076 135.411072 
L 90.21372 135.58548 
L 88.898276 136.347775 
L 88.345338 136.659367 
L 87.908136 136.911586 
L 86.750626 137.563139 
L 86.478986 137.719047 
L 86.087409 137.9376 
L 85.152854 138.4513 
L 84.935855 138.567578 
L 84.04445 139.057037 
L 82.687237 139.78108 
L 82.388593 139.943699 
L 81.736733 140.28972 
L 81.652291 140.334534 
L 81.323172 140.505392 
L 80.2597 141.060948 
L 79.866924 141.264 
L 78.673288 141.875504 
L 78.312834 142.056144 
L 77.951679 142.23828 
L 76.655444 142.884573 
L 76.194477 143.10749 
L 75.680195 143.362816 
L 74.744694 143.814764 
L 74.165256 144.101069 
L 73.1442 144.5904 
L 72.888595 144.711121 
L 72.838413 144.734159 
L 71.66208 145.289213 
L 70.852292 145.659428 
L 70.088906 146.016796 
L 69.496475 146.286381 
L 69.146421 146.450104 
L 68.059808 146.94252 
L 67.496396 147.195054 
L 65.86687 147.9168 
L 65.538648 148.060973 
L 65.449089 148.099425 
L 64.675917 148.433328 
L 63.914561 148.764897 
L 63.618151 148.89108 
L 63.302609 149.02535 
L 63.195349 149.069622 
L 61.527675 149.776096 
L 60.906044 150.030731 
L 60.480048 150.210478 
L 59.428126 150.641008 
L 58.965466 150.835366 
L 57.961453 151.2432 
L 57.652086 151.367144 
L 57.62857 151.375895 
L 57.62857 154.5696 
L 57.62857 157.896 
L 57.62857 161.2224 
L 57.62857 164.5488 
L 57.62857 167.8752 
L 57.62857 171.2016 
L 57.62857 174.528 
L 57.62857 177.8544 
L 57.62857 181.1808 
L 57.62857 182.752469 
L 57.973512 182.689199 
L 58.292651 182.630548 
L 60.181434 182.260467 
L 60.247389 182.248264 
L 60.721206 182.15508 
L 61.235915 182.052322 
L 62.815758 181.737875 
L 65.03707 181.284687 
L 65.159469 181.260068 
L 65.302969 181.231294 
L 65.335928 181.224716 
L 65.548623 181.1808 
L 67.484972 180.780414 
L 67.781631 180.716982 
L 69.123158 180.431522 
L 70.183734 180.20652 
L 70.261376 180.18979 
L 70.273475 180.187037 
L 72.217805 179.766409 
L 72.515873 179.698089 
L 73.18782 179.552169 
L 73.661475 179.443529 
L 74.985125 179.154917 
L 75.697588 178.990316 
L 76.111451 178.899728 
L 77.058266 178.68083 
L 77.746133 178.529647 
L 78.882638 178.264964 
L 79.032177 178.231969 
L 80.464175 177.898225 
L 80.500625 177.890149 
L 80.652882 177.8544 
L 81.949475 177.546149 
L 82.072282 177.515405 
L 83.24823 177.235617 
L 83.88888 177.074585 
L 84.863112 176.841034 
L 85.267005 176.739072 
L 85.98887 176.56588 
L 87.324395 176.227349 
L 87.773496 176.118773 
L 88.465553 175.942578 
L 88.722321 175.880449 
L 90.201549 175.50228 
L 90.592387 175.401398 
L 91.268196 175.223226 
L 92.163713 174.989386 
L 92.956033 174.783082 
L 93.109396 174.743356 
L 93.915133 174.528 
L 95.307082 174.153374 
L 96.497345 173.826313 
L 97.048725 173.677325 
L 97.492172 173.55372 
L 97.681361 173.500987 
L 97.720798 173.489468 
L 99.578484 172.969226 
L 99.979529 172.851128 
L 100.573767 172.683973 
L 101.225147 172.491961 
L 102.271783 172.196139 
L 103.203787 171.919133 
L 103.33993 171.878574 
L 103.33993 171.2016 
L 103.33993 167.8752 
L 103.33993 164.5488 
L 103.33993 161.2224 
L 103.33993 157.896 
L 103.33993 154.5696 
L 103.33993 151.2432 
L 103.33993 147.9168 
L 103.33993 144.5904 
L 103.33993 141.264 
L 103.33993 137.9376 
L 103.33993 134.6112 
L 103.33993 131.2848 
L 103.33993 127.9584 
" clip-path="url(#p02946b05e4)" style="fill: #53ffa4"/>
   </g>
   <g id="PathCollection_6">
    <path d="M 103.33993 171.878574 
L 103.203787 171.919133 
L 102.271783 172.196139 
L 101.225147 172.491961 
L 100.573767 172.683973 
L 99.979529 172.851128 
L 99.578484 172.969226 
L 97.720798 173.489468 
L 97.681361 173.500987 
L 97.492172 173.55372 
L 97.048725 173.677325 
L 96.497345 173.826313 
L 95.307082 174.153374 
L 93.915133 174.528 
L 93.109396 174.743356 
L 92.956033 174.783082 
L 92.163713 174.989386 
L 91.268196 175.223226 
L 90.592387 175.401398 
L 90.201549 175.50228 
L 88.722321 175.880449 
L 88.465553 175.942578 
L 87.773496 176.118773 
L 87.324395 176.227349 
L 85.98887 176.56588 
L 85.267005 176.739072 
L 84.863112 176.841034 
L 83.88888 177.074585 
L 83.24823 177.235617 
L 82.072282 177.515405 
L 81.949475 177.546149 
L 80.652882 177.8544 
L 80.500625 177.890149 
L 80.464175 177.898225 
L 79.032177 178.231969 
L 78.882638 178.264964 
L 77.746133 178.529647 
L 77.058266 178.68083 
L 76.111451 178.899728 
L 75.697588 178.990316 
L 74.985125 179.154917 
L 73.661475 179.443529 
L 73.18782 179.552169 
L 72.515873 179.698089 
L 72.217805 179.766409 
L 70.273475 180.187037 
L 70.261376 180.18979 
L 70.183734 180.20652 
L 69.123158 180.431522 
L 67.781631 180.716982 
L 67.484972 180.780414 
L 65.548623 181.1808 
L 65.335928 181.224716 
L 65.302969 181.231294 
L 65.159469 181.260068 
L 65.03707 181.284687 
L 62.815758 181.737875 
L 61.235915 182.052322 
L 60.721206 182.15508 
L 60.247389 182.248264 
L 60.181434 182.260467 
L 58.292651 182.630548 
L 57.973512 182.689199 
L 57.62857 182.752469 
L 57.62857 184.5072 
L 57.62857 187.8336 
L 57.62857 191.16 
L 57.62857 194.4864 
L 57.62857 197.8128 
L 57.62857 201.1392 
L 57.62857 204.4656 
L 57.62857 207.792 
L 57.62857 210.060618 
L 57.831094 210.051007 
L 58.6462 210.013578 
L 59.685277 209.954823 
L 60.448545 209.919647 
L 60.908383 209.893607 
L 61.623601 209.860712 
L 62.806539 209.793627 
L 63.46628 209.763172 
L 63.986157 209.733646 
L 64.59987 209.705374 
L 65.929018 209.629776 
L 66.483529 209.604137 
L 67.064432 209.571047 
L 67.574972 209.547489 
L 69.052751 209.463187 
L 69.500277 209.44246 
L 70.143224 209.405726 
L 70.548871 209.386977 
L 72.177778 209.293774 
L 72.516508 209.278059 
L 73.222548 209.237597 
L 73.521529 209.223756 
L 75.304139 209.121445 
L 75.532206 209.110847 
L 76.302422 209.066571 
L 76.492905 209.057738 
L 78.43188 208.946107 
L 78.547353 208.940732 
L 79.382864 208.892552 
L 79.462959 208.888832 
L 81.561044 208.767661 
L 81.561931 208.76762 
L 81.585088 208.76628 
L 82.363303 208.721303 
L 82.51453 208.711767 
L 84.42553 208.600283 
L 85.020567 208.562786 
L 85.775863 208.518337 
L 87.284667 208.430022 
L 87.807662 208.399598 
L 89.041273 208.32122 
L 90.140384 208.256668 
L 91.969206 208.140535 
L 92.310902 208.120287 
L 92.992563 208.080115 
L 93.228566 208.066293 
L 95.584901 207.915403 
L 95.841083 207.900253 
L 95.929724 207.895044 
L 97.532432 207.792 
L 98.626525 207.72164 
L 98.686356 207.717455 
L 98.864964 207.705036 
L 101.319848 207.546516 
L 101.528528 207.531852 
L 102.152073 207.488297 
L 103.170483 207.422083 
L 103.33993 207.408171 
L 103.33993 204.4656 
L 103.33993 201.1392 
L 103.33993 197.8128 
L 103.33993 194.4864 
L 103.33993 191.16 
L 103.33993 187.8336 
L 103.33993 184.5072 
L 103.33993 181.1808 
L 103.33993 177.8544 
L 103.33993 174.528 
" clip-path="url(#p02946b05e4)" style="fill: #a4ff53"/>
   </g>
   <g id="PathCollection_7">
    <path d="M 103.33993 207.408171 
L 103.170483 207.422083 
L 102.152073 207.488297 
L 101.528528 207.531852 
L 101.319848 207.546516 
L 98.864964 207.705036 
L 98.686356 207.717455 
L 98.626525 207.72164 
L 97.532432 207.792 
L 95.929724 207.895044 
L 95.841083 207.900253 
L 95.584901 207.915403 
L 93.228566 208.066293 
L 92.992563 208.080115 
L 92.310902 208.120287 
L 91.969206 208.140535 
L 90.140384 208.256668 
L 89.041273 208.32122 
L 87.807662 208.399598 
L 87.284667 208.430022 
L 85.775863 208.518337 
L 85.020567 208.562786 
L 84.42553 208.600283 
L 82.51453 208.711767 
L 82.363303 208.721303 
L 81.585088 208.76628 
L 81.561931 208.76762 
L 81.561044 208.767661 
L 79.462959 208.888832 
L 79.382864 208.892552 
L 78.547353 208.940732 
L 78.43188 208.946107 
L 76.492905 209.057738 
L 76.302422 209.066571 
L 75.532206 209.110847 
L 75.304139 209.121445 
L 73.521529 209.223756 
L 73.222548 209.237597 
L 72.516508 209.278059 
L 72.177778 209.293774 
L 70.548871 209.386977 
L 70.143224 209.405726 
L 69.500277 209.44246 
L 69.052751 209.463187 
L 67.574972 209.547489 
L 67.064432 209.571047 
L 66.483529 209.604137 
L 65.929018 209.629776 
L 64.59987 209.705374 
L 63.986157 209.733646 
L 63.46628 209.763172 
L 62.806539 209.793627 
L 61.623601 209.860712 
L 60.908383 209.893607 
L 60.448545 209.919647 
L 59.685277 209.954823 
L 58.6462 210.013578 
L 57.831094 210.051007 
L 57.62857 210.060618 
L 57.62857 211.1184 
L 57.62857 214.4448 
L 57.62857 217.7712 
L 57.62857 221.0976 
L 57.62857 224.424 
L 57.62857 227.7504 
L 57.62857 231.0768 
L 57.62857 234.4032 
L 57.62857 234.996027 
L 57.90783 235.012851 
L 58.447107 235.040865 
L 59.950612 235.125102 
L 60.664273 235.162562 
L 61.318857 235.199721 
L 63.198707 235.306562 
L 63.39896 235.317229 
L 64.186195 235.362566 
L 64.444841 235.37748 
L 66.276348 235.482723 
L 66.345404 235.487356 
L 67.187037 235.536067 
L 67.293042 235.54321 
L 69.24397 235.65694 
L 69.427371 235.669414 
L 70.200546 235.714814 
L 70.426131 235.730226 
L 72.209506 235.835707 
L 72.510283 235.856451 
L 73.21315 235.898328 
L 73.561615 235.922468 
L 75.172891 236.019173 
L 75.594173 236.048639 
L 76.22482 236.086769 
L 76.699579 236.120124 
L 78.134051 236.207495 
L 78.679074 236.24616 
L 79.235523 236.280304 
L 79.840111 236.323388 
L 81.092912 236.400835 
L 81.765022 236.449201 
L 82.245226 236.47911 
L 82.983306 236.532465 
L 84.049397 236.599363 
L 84.852056 236.657963 
L 85.253895 236.683369 
L 86.129263 236.74757 
L 87.003424 236.803258 
L 87.940214 236.872651 
L 88.261492 236.893275 
L 89.278083 236.968927 
L 89.954907 237.012706 
L 91.029539 237.093486 
L 91.267979 237.109028 
L 92.429876 237.196775 
L 92.903757 237.227901 
L 94.120073 237.320696 
L 94.273317 237.33084 
L 95.584757 237.431362 
L 95.849881 237.449048 
L 97.211863 237.554521 
L 97.277464 237.558931 
L 98.742844 237.67295 
L 98.793181 237.676361 
L 99.470367 237.7296 
L 100.280502 237.792866 
L 100.30492 237.795031 
L 101.734853 237.907227 
L 101.904522 237.922377 
L 103.282623 238.031629 
L 103.33993 238.036361 
L 103.33993 237.7296 
L 103.33993 234.4032 
L 103.33993 231.0768 
L 103.33993 227.7504 
L 103.33993 224.424 
L 103.33993 221.0976 
L 103.33993 217.7712 
L 103.33993 214.4448 
L 103.33993 211.1184 
L 103.33993 207.792 
" clip-path="url(#p02946b05e4)" style="fill: #f8f500"/>
   </g>
   <g id="PathCollection_8">
    <path d="M 103.33993 238.036361 
L 103.282623 238.031629 
L 101.904522 237.922377 
L 101.734853 237.907227 
L 100.30492 237.795031 
L 100.280502 237.792866 
L 99.470367 237.7296 
L 98.793181 237.676361 
L 98.742844 237.67295 
L 97.277464 237.558931 
L 97.211863 237.554521 
L 95.849881 237.449048 
L 95.584757 237.431362 
L 94.273317 237.33084 
L 94.120073 237.320696 
L 92.903757 237.227901 
L 92.429876 237.196775 
L 91.267979 237.109028 
L 91.029539 237.093486 
L 89.954907 237.012706 
L 89.278083 236.968927 
L 88.261492 236.893275 
L 87.940214 236.872651 
L 87.003424 236.803258 
L 86.129263 236.74757 
L 85.253895 236.683369 
L 84.852056 236.657963 
L 84.049397 236.599363 
L 82.983306 236.532465 
L 82.245226 236.47911 
L 81.765022 236.449201 
L 81.092912 236.400835 
L 79.840111 236.323388 
L 79.235523 236.280304 
L 78.679074 236.24616 
L 78.134051 236.207495 
L 76.699579 236.120124 
L 76.22482 236.086769 
L 75.594173 236.048639 
L 75.172891 236.019173 
L 73.561615 235.922468 
L 73.21315 235.898328 
L 72.510283 235.856451 
L 72.209506 235.835707 
L 70.426131 235.730226 
L 70.200546 235.714814 
L 69.427371 235.669414 
L 69.24397 235.65694 
L 67.293042 235.54321 
L 67.187037 235.536067 
L 66.345404 235.487356 
L 66.276348 235.482723 
L 64.444841 235.37748 
L 64.186195 235.362566 
L 63.39896 235.317229 
L 63.198707 235.306562 
L 61.318857 235.199721 
L 60.664273 235.162562 
L 59.950612 235.125102 
L 58.447107 235.040865 
L 57.90783 235.012851 
L 57.62857 234.996027 
L 57.62857 237.7296 
L 57.62857 241.056 
L 57.62857 244.3824 
L 57.62857 247.7088 
L 57.62857 251.0352 
L 57.62857 254.3616 
L 57.62857 257.688 
L 57.62857 258.816471 
L 57.848532 258.847302 
L 58.576669 258.944613 
L 59.807744 259.118932 
L 60.389631 259.197258 
L 60.978253 259.281041 
L 61.441343 259.343574 
L 63.064454 259.575823 
L 63.35766 259.615703 
L 64.1097 259.72388 
L 64.30251 259.75019 
L 66.307406 260.04012 
L 66.322192 260.042258 
L 66.331744 260.043675 
L 67.392418 260.19863 
L 68.945672 260.425616 
L 69.362004 260.486482 
L 71.036514 260.73818 
L 71.561665 260.815744 
L 71.701794 260.83645 
L 72.872999 261.0144 
L 74.171307 261.211616 
L 74.698225 261.293658 
L 76.358277 261.547806 
L 76.774526 261.613295 
L 78.378293 261.865737 
L 78.671185 261.911067 
L 79.159095 261.98868 
L 79.399603 262.02673 
L 79.426283 262.031164 
L 81.398515 262.344877 
L 81.636834 262.38479 
L 82.357229 262.500007 
L 82.716094 262.560315 
L 84.23534 262.804634 
L 84.781466 262.89712 
L 85.312997 262.983073 
L 86.011546 263.101783 
L 87.067962 263.273565 
L 87.928272 263.420907 
L 88.266843 263.476271 
L 89.312861 263.65605 
L 89.896239 263.751984 
L 91.077334 263.956586 
L 91.218698 263.979964 
L 92.620272 264.223626 
L 92.720019 264.240217 
L 93.293982 264.3408 
L 94.168619 264.493849 
L 94.22879 264.504882 
L 95.540683 264.735254 
L 95.9354 264.808047 
L 97.116754 265.017142 
L 97.382771 265.066486 
L 98.357104 265.239556 
L 99.257432 265.407541 
L 100.062745 265.551738 
L 100.539234 265.641167 
L 101.168744 265.754293 
L 102.586286 266.021928 
L 103.006512 266.098061 
L 103.33993 266.16065 
L 103.33993 264.3408 
L 103.33993 261.0144 
L 103.33993 257.688 
L 103.33993 254.3616 
L 103.33993 251.0352 
L 103.33993 247.7088 
L 103.33993 244.3824 
L 103.33993 241.056 
" clip-path="url(#p02946b05e4)" style="fill: #ff9400"/>
   </g>
   <g id="PathCollection_9">
    <path d="M 103.33993 266.16065 
L 103.006512 266.098061 
L 102.586286 266.021928 
L 101.168744 265.754293 
L 100.539234 265.641167 
L 100.062745 265.551738 
L 99.257432 265.407541 
L 98.357104 265.239556 
L 97.382771 265.066486 
L 97.116754 265.017142 
L 95.9354 264.808047 
L 95.540683 264.735254 
L 94.22879 264.504882 
L 94.168619 264.493849 
L 93.293982 264.3408 
L 92.720019 264.240217 
L 92.620272 264.223626 
L 91.218698 263.979964 
L 91.077334 263.956586 
L 89.896239 263.751984 
L 89.312861 263.65605 
L 88.266843 263.476271 
L 87.928272 263.420907 
L 87.067962 263.273565 
L 86.011546 263.101783 
L 85.312997 262.983073 
L 84.781466 262.89712 
L 84.23534 262.804634 
L 82.716094 262.560315 
L 82.357229 262.500007 
L 81.636834 262.38479 
L 81.398515 262.344877 
L 79.426283 262.031164 
L 79.399603 262.02673 
L 79.159095 261.98868 
L 78.671185 261.911067 
L 78.378293 261.865737 
L 76.774526 261.613295 
L 76.358277 261.547806 
L 74.698225 261.293658 
L 74.171307 261.211616 
L 72.872999 261.0144 
L 71.701794 260.83645 
L 71.561665 260.815744 
L 71.036514 260.73818 
L 69.362004 260.486482 
L 68.945672 260.425616 
L 67.392418 260.19863 
L 66.331744 260.043675 
L 66.322192 260.042258 
L 66.307406 260.04012 
L 64.30251 259.75019 
L 64.1097 259.72388 
L 63.35766 259.615703 
L 63.064454 259.575823 
L 61.441343 259.343574 
L 60.978253 259.281041 
L 60.389631 259.197258 
L 59.807744 259.118932 
L 58.576669 258.944613 
L 57.848532 258.847302 
L 57.62857 258.816471 
L 57.62857 261.0144 
L 57.62857 264.3408 
L 57.62857 267.6672 
L 57.62857 270.9936 
L 57.62857 274.32 
L 57.62857 277.6464 
L 57.62857 280.9728 
L 57.62857 282.799786 
L 57.902767 282.854056 
L 58.553351 282.99168 
L 59.647361 283.218396 
L 60.505573 283.401007 
L 60.833464 283.46926 
L 61.926409 283.70257 
L 62.425229 283.806862 
L 63.681175 284.076564 
L 63.762422 284.093628 
L 64.716604 284.2992 
L 65.199162 284.403918 
L 65.305983 284.427681 
L 66.689183 284.729577 
L 66.859732 284.76769 
L 67.968726 285.010511 
L 68.695087 285.173599 
L 69.613962 285.375972 
L 70.04084 285.472264 
L 70.734437 285.625515 
L 72.090282 285.932815 
L 72.536897 286.032083 
L 73.224177 286.188589 
L 73.496155 286.249239 
L 75.253352 286.65132 
L 75.423564 286.690443 
L 76.008119 286.825049 
L 76.740458 286.995899 
L 77.848814 287.253053 
L 79.433504 287.6256 
L 80.266741 287.822286 
L 80.858154 287.963709 
L 82.201784 288.283309 
L 82.677543 288.39796 
L 83.513749 288.59988 
L 84.499591 288.83895 
L 84.662115 288.879291 
L 85.413897 289.062484 
L 85.752175 289.146754 
L 87.239238 289.510854 
L 87.858843 289.666189 
L 88.325013 289.780891 
L 89.189743 289.998474 
L 89.97443 290.192486 
L 91.058202 290.46695 
L 91.233978 290.510628 
L 92.634884 290.866725 
L 92.704988 290.884231 
L 92.969851 290.952 
L 94.140511 291.253186 
L 94.260802 291.284797 
L 95.430567 291.586847 
L 96.092238 291.761638 
L 97.044509 292.009105 
L 97.466936 292.121271 
L 98.151411 292.299801 
L 99.558192 292.675327 
L 99.946199 292.777191 
L 100.675967 292.973015 
L 100.867357 293.023448 
L 101.907702 293.30412 
L 102.666508 293.509512 
L 103.033792 293.610073 
L 103.33993 293.694783 
L 103.33993 290.952 
L 103.33993 287.6256 
L 103.33993 284.2992 
L 103.33993 280.9728 
L 103.33993 277.6464 
L 103.33993 274.32 
L 103.33993 270.9936 
L 103.33993 267.6672 
" clip-path="url(#p02946b05e4)" style="fill: #ff3800"/>
   </g>
   <g id="PathCollection_10">
    <path d="M 103.33993 293.694783 
L 103.033792 293.610073 
L 102.666508 293.509512 
L 101.907702 293.30412 
L 100.867357 293.023448 
L 100.675967 292.973015 
L 99.946199 292.777191 
L 99.558192 292.675327 
L 98.151411 292.299801 
L 97.466936 292.121271 
L 97.044509 292.009105 
L 96.092238 291.761638 
L 95.430567 291.586847 
L 94.260802 291.284797 
L 94.140511 291.253186 
L 92.969851 290.952 
L 92.704988 290.884231 
L 92.634884 290.866725 
L 91.233978 290.510628 
L 91.058202 290.46695 
L 89.97443 290.192486 
L 89.189743 289.998474 
L 88.325013 289.780891 
L 87.858843 289.666189 
L 87.239238 289.510854 
L 85.752175 289.146754 
L 85.413897 289.062484 
L 84.662115 288.879291 
L 84.499591 288.83895 
L 83.513749 288.59988 
L 82.677543 288.39796 
L 82.201784 288.283309 
L 80.858154 287.963709 
L 80.266741 287.822286 
L 79.433504 287.6256 
L 77.848814 287.253053 
L 76.740458 286.995899 
L 76.008119 286.825049 
L 75.423564 286.690443 
L 75.253352 286.65132 
L 73.496155 286.249239 
L 73.224177 286.188589 
L 72.536897 286.032083 
L 72.090282 285.932815 
L 70.734437 285.625515 
L 70.04084 285.472264 
L 69.613962 285.375972 
L 68.695087 285.173599 
L 67.968726 285.010511 
L 66.859732 284.76769 
L 66.689183 284.729577 
L 65.305983 284.427681 
L 65.199162 284.403918 
L 64.716604 284.2992 
L 63.762422 284.093628 
L 63.681175 284.076564 
L 62.425229 283.806862 
L 61.926409 283.70257 
L 60.833464 283.46926 
L 60.505573 283.401007 
L 59.647361 283.218396 
L 58.553351 282.99168 
L 57.902767 282.854056 
L 57.62857 282.799786 
L 57.62857 284.2992 
L 57.62857 287.6256 
L 57.62857 290.952 
L 57.62857 294.2784 
L 57.62857 297.6048 
L 57.62857 300.9312 
L 57.62857 304.2576 
L 57.62857 307.584 
L 59.152282 307.584 
L 60.675994 307.584 
L 62.199706 307.584 
L 63.723418 307.584 
L 65.24713 307.584 
L 66.770842 307.584 
L 68.294554 307.584 
L 69.818266 307.584 
L 71.341978 307.584 
L 72.86569 307.584 
L 74.389402 307.584 
L 75.913114 307.584 
L 77.436826 307.584 
L 78.960538 307.584 
L 80.48425 307.584 
L 82.007962 307.584 
L 83.531674 307.584 
L 85.055386 307.584 
L 86.579098 307.584 
L 88.10281 307.584 
L 89.626522 307.584 
L 91.150234 307.584 
L 92.673946 307.584 
L 94.197658 307.584 
L 95.72137 307.584 
L 97.245082 307.584 
L 98.768794 307.584 
L 100.292506 307.584 
L 101.816218 307.584 
L 103.33993 307.584 
L 103.33993 304.2576 
L 103.33993 300.9312 
L 103.33993 297.6048 
L 103.33993 294.2784 
" clip-path="url(#p02946b05e4)" style="fill: #b60000"/>
   </g>
   <g id="PathCollection_11">
    <path clip-path="url(#p02946b05e4)" style="fill: #0000b6"/>
   </g>
   <g id="PathCollection_12">
    <path clip-path="url(#p02946b05e4)" style="fill: #0018ff"/>
   </g>
   <g id="PathCollection_13">
    <path d="M 100.4544 67.313495 
L 101.184137 66.152638 
L 103.479679 62.527977 
L 103.918722 61.81088 
L 104.295756 61.143427 
L 105.456997 59.2128 
L 106.09603 58.099328 
L 106.957914 56.61472 
L 109.65955 51.559237 
L 110.291612 50.3424 
L 112.296258 46.23619 
L 113.384501 44.07008 
L 113.537388 43.736203 
L 114.599264 41.472 
L 108.54912 41.472 
L 100.4544 41.472 
L 100.4544 50.3424 
L 100.4544 59.2128 
" clip-path="url(#p02946b05e4)" style="fill: #0080ff"/>
   </g>
   <g id="PathCollection_14">
    <path d="M 114.599264 41.472 
L 113.537388 43.736203 
L 113.384501 44.07008 
L 112.296258 46.23619 
L 110.291612 50.3424 
L 109.65955 51.559237 
L 106.957914 56.61472 
L 106.09603 58.099328 
L 105.456997 59.2128 
L 104.295756 61.143427 
L 103.918722 61.81088 
L 103.479679 62.527977 
L 101.184137 66.152638 
L 100.4544 67.313495 
L 100.4544 68.0832 
L 100.4544 76.9536 
L 100.4544 85.824 
L 100.4544 94.6944 
L 100.4544 103.5648 
L 100.4544 112.4352 
L 100.4544 121.3056 
L 100.4544 129.138979 
L 102.81591 127.553108 
L 102.91533 127.47925 
L 109.688504 122.554166 
L 111.287984 121.3056 
L 115.377355 117.955042 
L 118.772126 115.03328 
L 120.459835 113.497391 
L 121.686039 112.4352 
L 122.325251 111.836098 
L 122.66046 111.491938 
L 124.39829 109.83712 
L 127.5561 106.652332 
L 130.444624 103.5648 
L 132.119679 101.676927 
L 134.679492 98.680543 
L 135.558428 97.680686 
L 135.881766 97.29248 
L 136.252247 96.816751 
L 138.022824 94.6944 
L 138.759953 93.710311 
L 140.017592 92.09632 
L 142.958958 88.049575 
L 144.501784 85.824 
L 147.367198 81.444223 
L 148.570333 79.55168 
L 148.982218 78.953054 
L 150.24401 76.9536 
L 151.093175 75.45808 
L 151.60987 74.453682 
L 151.667339 74.35552 
L 152.059871 73.625413 
L 155.120635 68.0832 
L 155.844581 66.688369 
L 158.293201 61.81088 
L 159.073134 60.100501 
L 159.51755 59.2128 
L 159.780534 58.551689 
L 160.074738 57.870465 
L 160.67551 56.61472 
L 161.372931 55.005676 
L 163.340056 50.3424 
L 164.295708 47.917875 
L 165.79161 44.07008 
L 166.308423 42.673313 
L 166.761435 41.472 
L 165.21216 41.472 
L 157.11744 41.472 
L 149.02272 41.472 
L 140.928 41.472 
L 132.83328 41.472 
L 124.73856 41.472 
L 116.64384 41.472 
" clip-path="url(#p02946b05e4)" style="fill: #00e4f8"/>
   </g>
   <g id="PathCollection_15">
    <path d="M 166.761435 41.472 
L 166.308423 42.673313 
L 165.79161 44.07008 
L 164.295708 47.917875 
L 163.340056 50.3424 
L 161.372931 55.005676 
L 160.67551 56.61472 
L 160.074738 57.870465 
L 159.780534 58.551689 
L 159.51755 59.2128 
L 159.073134 60.100501 
L 158.293201 61.81088 
L 155.844581 66.688369 
L 155.120635 68.0832 
L 152.059871 73.625413 
L 151.667339 74.35552 
L 151.60987 74.453682 
L 151.093175 75.45808 
L 150.24401 76.9536 
L 148.982218 78.953054 
L 148.570333 79.55168 
L 147.367198 81.444223 
L 144.501784 85.824 
L 142.958958 88.049575 
L 140.017592 92.09632 
L 138.759953 93.710311 
L 138.022824 94.6944 
L 136.252247 96.816751 
L 135.881766 97.29248 
L 135.558428 97.680686 
L 134.679492 98.680543 
L 132.119679 101.676927 
L 130.444624 103.5648 
L 127.5561 106.652332 
L 124.39829 109.83712 
L 122.66046 111.491938 
L 122.325251 111.836098 
L 121.686039 112.4352 
L 120.459835 113.497391 
L 118.772126 115.03328 
L 115.377355 117.955042 
L 111.287984 121.3056 
L 109.688504 122.554166 
L 102.91533 127.47925 
L 102.81591 127.553108 
L 100.4544 129.138979 
L 100.4544 130.176 
L 100.4544 139.0464 
L 100.4544 147.9168 
L 100.4544 156.7872 
L 100.4544 165.6576 
L 100.4544 172.683686 
L 101.238952 172.452423 
L 105.557827 171.250065 
L 114.012072 168.541558 
L 114.344421 168.444757 
L 114.91836 168.25568 
L 116.71044 167.683642 
L 122.412425 165.6576 
L 123.363935 165.31635 
L 123.695093 165.183964 
L 129.232576 163.05952 
L 130.134617 162.700337 
L 130.692461 162.450858 
L 134.400633 160.933721 
L 139.062159 158.831836 
L 141.754521 157.692922 
L 143.658219 156.7872 
L 148.173673 154.540999 
L 150.309828 153.382084 
L 152.846772 152.107294 
L 155.693639 150.51488 
L 158.815691 148.687646 
L 159.250494 148.446329 
L 160.107371 147.9168 
L 163.823592 145.56258 
L 164.167489 145.31872 
L 166.891075 143.488066 
L 173.044776 139.0464 
L 173.199659 138.928905 
L 174.071161 138.208881 
L 179.439527 133.855626 
L 180.689652 132.77408 
L 181.410087 132.187616 
L 183.632768 130.176 
L 184.850508 129.02268 
L 185.480731 128.353301 
L 186.272466 127.57792 
L 190.860679 122.800699 
L 192.190569 121.3056 
L 195.916502 116.875514 
L 197.391077 115.03328 
L 197.846427 114.508108 
L 199.460357 112.4352 
L 200.406558 111.124642 
L 200.944785 110.283244 
L 201.26381 109.83712 
L 204.708282 104.635946 
L 205.431466 103.5648 
L 205.535874 103.400551 
L 209.200746 97.29248 
L 209.641927 96.490127 
L 210.082244 95.785824 
L 210.692605 94.6944 
L 211.355659 93.286851 
L 211.973998 92.09632 
L 214.343811 87.314325 
L 215.059626 85.824 
L 217.307726 80.818845 
L 217.851147 79.55168 
L 218.208708 78.617842 
L 218.962841 76.9536 
L 219.377039 75.81967 
L 219.97643 74.35552 
L 222.151606 68.386092 
L 222.25777 68.0832 
L 222.469604 67.431837 
L 224.41983 61.81088 
L 224.804384 60.542373 
L 225.273354 59.2128 
L 225.734465 57.461057 
L 226.018125 56.61472 
L 226.401453 55.302383 
L 227.814143 50.3424 
L 228.697858 46.977088 
L 229.452986 44.07008 
L 230.063552 41.574604 
L 230.089524 41.472 
L 229.96992 41.472 
L 221.8752 41.472 
L 213.78048 41.472 
L 205.68576 41.472 
L 197.59104 41.472 
L 189.49632 41.472 
L 181.4016 41.472 
L 173.30688 41.472 
" clip-path="url(#p02946b05e4)" style="fill: #53ffa4"/>
   </g>
   <g id="PathCollection_16">
    <path d="M 230.089524 41.472 
L 230.063552 41.574604 
L 229.452986 44.07008 
L 228.697858 46.977088 
L 227.814143 50.3424 
L 226.401453 55.302383 
L 226.018125 56.61472 
L 225.734465 57.461057 
L 225.273354 59.2128 
L 224.804384 60.542373 
L 224.41983 61.81088 
L 222.469604 67.431837 
L 222.25777 68.0832 
L 222.151606 68.386092 
L 219.97643 74.35552 
L 219.377039 75.81967 
L 218.962841 76.9536 
L 218.208708 78.617842 
L 217.851147 79.55168 
L 217.307726 80.818845 
L 215.059626 85.824 
L 214.343811 87.314325 
L 211.973998 92.09632 
L 211.355659 93.286851 
L 210.692605 94.6944 
L 210.082244 95.785824 
L 209.641927 96.490127 
L 209.200746 97.29248 
L 205.535874 103.400551 
L 205.431466 103.5648 
L 204.708282 104.635946 
L 201.26381 109.83712 
L 200.944785 110.283244 
L 200.406558 111.124642 
L 199.460357 112.4352 
L 197.846427 114.508108 
L 197.391077 115.03328 
L 195.916502 116.875514 
L 192.190569 121.3056 
L 190.860679 122.800699 
L 186.272466 127.57792 
L 185.480731 128.353301 
L 184.850508 129.02268 
L 183.632768 130.176 
L 181.410087 132.187616 
L 180.689652 132.77408 
L 179.439527 133.855626 
L 174.071161 138.208881 
L 173.199659 138.928905 
L 173.044776 139.0464 
L 166.891075 143.488066 
L 164.167489 145.31872 
L 163.823592 145.56258 
L 160.107371 147.9168 
L 159.250494 148.446329 
L 158.815691 148.687646 
L 155.693639 150.51488 
L 152.846772 152.107294 
L 150.309828 153.382084 
L 148.173673 154.540999 
L 143.658219 156.7872 
L 141.754521 157.692922 
L 139.062159 158.831836 
L 134.400633 160.933721 
L 130.692461 162.450858 
L 130.134617 162.700337 
L 129.232576 163.05952 
L 123.695093 165.183964 
L 123.363935 165.31635 
L 122.412425 165.6576 
L 116.71044 167.683642 
L 114.91836 168.25568 
L 114.344421 168.444757 
L 114.012072 168.541558 
L 105.557827 171.250065 
L 101.238952 172.452423 
L 100.4544 172.683686 
L 100.4544 174.528 
L 100.4544 183.3984 
L 100.4544 192.2688 
L 100.4544 201.1392 
L 100.4544 207.566938 
L 101.402907 207.500271 
L 106.034421 207.253929 
L 111.497051 206.779182 
L 115.343422 206.569271 
L 118.034119 206.331539 
L 121.224793 206.159125 
L 128.879461 205.471895 
L 131.07203 205.350114 
L 134.72062 205.016534 
L 136.292687 204.930106 
L 146.423728 203.987242 
L 146.739555 203.969357 
L 149.183253 203.73728 
L 150.794885 203.588647 
L 152.034357 203.446441 
L 160.370413 202.615743 
L 173.021302 201.1392 
L 173.214002 201.116143 
L 173.245771 201.111462 
L 173.423674 201.086186 
L 183.934295 199.758431 
L 185.806666 199.464445 
L 191.916053 198.54112 
L 194.807864 198.089325 
L 195.441439 197.955691 
L 199.49315 197.30094 
L 201.480705 196.876806 
L 208.77278 195.651636 
L 212.854994 194.717226 
L 214.591296 194.413859 
L 221.350908 192.843332 
L 222.249556 192.679029 
L 223.878821 192.2688 
L 229.417435 190.807169 
L 230.679753 190.390895 
L 235.232521 189.165292 
L 243.538823 186.270051 
L 243.856333 186.176012 
L 244.338516 185.99648 
L 246.087168 185.389987 
L 250.821914 183.3984 
L 252.557714 182.62841 
L 256.339217 180.80032 
L 258.825703 179.5377 
L 260.955507 178.214036 
L 263.263708 176.948442 
L 267.009946 174.528 
L 269.125556 173.083741 
L 275.001261 168.25568 
L 275.399906 167.907332 
L 276.364166 167.127396 
L 277.835485 165.6576 
L 279.971891 163.292188 
L 280.212485 163.05952 
L 280.70389 162.516549 
L 285.324995 156.7872 
L 285.918538 156.004319 
L 289.478462 150.51488 
L 290.090083 149.486008 
L 291.009232 147.9168 
L 292.274337 145.356147 
L 292.296376 145.31872 
L 292.318767 145.277051 
L 292.606258 144.658743 
L 294.962577 139.667834 
L 295.229753 139.0464 
L 297.542744 133.260819 
L 297.710026 132.77408 
L 297.806143 132.452908 
L 298.70277 130.176 
L 299.203392 128.533312 
L 299.512511 127.57792 
L 300.582252 123.760411 
L 301.363912 121.3056 
L 301.71919 120.096674 
L 303.033967 115.03328 
L 303.529461 112.756139 
L 303.568854 112.620507 
L 303.609384 112.4352 
L 303.635583 112.233328 
L 303.670637 112.05018 
L 304.225269 109.83712 
L 305.031087 105.985136 
L 305.47964 103.5648 
L 306.076814 99.99853 
L 306.625435 97.29248 
L 306.756982 96.480329 
L 307.120413 94.6944 
L 307.351423 92.63865 
L 307.460136 92.09632 
L 307.622239 91.083786 
L 308.390039 85.824 
L 309.036781 80.849458 
L 309.198496 79.55168 
L 309.387997 78.583505 
L 309.636114 76.9536 
L 309.740059 75.236296 
L 309.82749 74.35552 
L 310.332874 69.628856 
L 310.51397 68.0832 
L 310.600015 67.24428 
L 311.143915 61.81088 
L 311.229137 61.299767 
L 311.504286 59.2128 
L 311.588457 57.036632 
L 311.617989 56.61472 
L 311.926055 53.011594 
L 312.151675 50.3424 
L 312.439227 46.31558 
L 312.622091 44.07008 
L 312.670882 43.393817 
L 312.827918 41.472 
L 310.91712 41.472 
L 302.8224 41.472 
L 294.72768 41.472 
L 286.63296 41.472 
L 278.53824 41.472 
L 270.44352 41.472 
L 262.3488 41.472 
L 254.25408 41.472 
L 246.15936 41.472 
L 238.06464 41.472 
" clip-path="url(#p02946b05e4)" style="fill: #a4ff53"/>
   </g>
   <g id="PathCollection_17">
    <path d="M 312.827918 41.472 
L 312.670882 43.393817 
L 312.622091 44.07008 
L 312.439227 46.31558 
L 312.151675 50.3424 
L 311.926055 53.011594 
L 311.617989 56.61472 
L 311.588457 57.036632 
L 311.504286 59.2128 
L 311.229137 61.299767 
L 311.143915 61.81088 
L 310.600015 67.24428 
L 310.51397 68.0832 
L 310.332874 69.628856 
L 309.82749 74.35552 
L 309.740059 75.236296 
L 309.636114 76.9536 
L 309.387997 78.583505 
L 309.198496 79.55168 
L 309.036781 80.849458 
L 308.390039 85.824 
L 307.622239 91.083786 
L 307.460136 92.09632 
L 307.351423 92.63865 
L 307.120413 94.6944 
L 306.756982 96.480329 
L 306.625435 97.29248 
L 306.076814 99.99853 
L 305.47964 103.5648 
L 305.031087 105.985136 
L 304.225269 109.83712 
L 303.670637 112.05018 
L 303.635583 112.233328 
L 303.609384 112.4352 
L 303.568854 112.620507 
L 303.529461 112.756139 
L 303.033967 115.03328 
L 301.71919 120.096674 
L 301.363912 121.3056 
L 300.582252 123.760411 
L 299.512511 127.57792 
L 299.203392 128.533312 
L 298.70277 130.176 
L 297.806143 132.452908 
L 297.710026 132.77408 
L 297.542744 133.260819 
L 295.229753 139.0464 
L 294.962577 139.667834 
L 292.606258 144.658743 
L 292.318767 145.277051 
L 292.296376 145.31872 
L 292.274337 145.356147 
L 291.009232 147.9168 
L 290.090083 149.486008 
L 289.478462 150.51488 
L 285.918538 156.004319 
L 285.324995 156.7872 
L 280.70389 162.516549 
L 280.212485 163.05952 
L 279.971891 163.292188 
L 277.835485 165.6576 
L 276.364166 167.127396 
L 275.399906 167.907332 
L 275.001261 168.25568 
L 269.125556 173.083741 
L 267.009946 174.528 
L 263.263708 176.948442 
L 260.955507 178.214036 
L 258.825703 179.5377 
L 256.339217 180.80032 
L 252.557714 182.62841 
L 250.821914 183.3984 
L 246.087168 185.389987 
L 244.338516 185.99648 
L 243.856333 186.176012 
L 243.538823 186.270051 
L 235.232521 189.165292 
L 230.679753 190.390895 
L 229.417435 190.807169 
L 223.878821 192.2688 
L 222.249556 192.679029 
L 221.350908 192.843332 
L 214.591296 194.413859 
L 212.854994 194.717226 
L 208.77278 195.651636 
L 201.480705 196.876806 
L 199.49315 197.30094 
L 195.441439 197.955691 
L 194.807864 198.089325 
L 191.916053 198.54112 
L 185.806666 199.464445 
L 183.934295 199.758431 
L 173.423674 201.086186 
L 173.245771 201.111462 
L 173.214002 201.116143 
L 173.021302 201.1392 
L 160.370413 202.615743 
L 152.034357 203.446441 
L 150.794885 203.588647 
L 149.183253 203.73728 
L 146.739555 203.969357 
L 146.423728 203.987242 
L 136.292687 204.930106 
L 134.72062 205.016534 
L 131.07203 205.350114 
L 128.879461 205.471895 
L 121.224793 206.159125 
L 118.034119 206.331539 
L 115.343422 206.569271 
L 111.497051 206.779182 
L 106.034421 207.253929 
L 101.402907 207.500271 
L 100.4544 207.566938 
L 100.4544 210.0096 
L 100.4544 218.88 
L 100.4544 227.7504 
L 100.4544 236.6208 
L 100.4544 237.794552 
L 101.625665 237.904302 
L 105.143427 238.166664 
L 113.607698 238.916918 
L 115.03455 239.029814 
L 117.005073 239.21888 
L 118.947866 239.395769 
L 119.204575 239.426919 
L 129.390639 240.393334 
L 130.983623 240.597827 
L 134.549481 240.950894 
L 137.089913 241.285326 
L 144.103877 242.010993 
L 147.908337 242.543036 
L 150.049457 242.77491 
L 155.33118 243.533771 
L 158.56833 243.901277 
L 164.983073 244.885138 
L 165.421484 244.937421 
L 168.928189 245.4912 
L 172.768363 246.081321 
L 174.079813 246.3382 
L 180.671208 247.423493 
L 182.255296 247.749701 
L 186.740237 248.511386 
L 193.614023 250.003484 
L 195.738283 250.392772 
L 199.795636 251.323584 
L 200.279637 251.415367 
L 201.710913 251.76352 
L 208.077597 253.275932 
L 212.135435 254.3616 
L 218.216172 256.022454 
L 221.267601 256.95968 
L 226.239846 258.44911 
L 228.470542 259.26531 
L 231.145231 260.122648 
L 237.409162 262.513711 
L 238.406447 262.857439 
L 239.288169 263.232 
L 245.239717 265.664967 
L 247.486409 266.742784 
L 250.04757 267.841601 
L 253.22786 269.50432 
L 256.414707 271.121679 
L 257.000008 271.420725 
L 258.124367 272.1024 
L 260.9169 273.75644 
L 262.619691 274.70048 
L 264.3364 275.71449 
L 267.80774 278.084445 
L 271.110267 280.242162 
L 272.029628 280.9728 
L 277.084866 284.817784 
L 279.848296 287.24512 
L 280.106455 287.444383 
L 282.689288 289.8432 
L 284.017092 291.030558 
L 285.369951 292.44128 
L 289.02089 296.096845 
L 291.156957 298.7136 
L 293.634335 301.606107 
L 296.146277 304.98592 
L 296.581917 305.55208 
L 298.002335 307.584 
L 302.8224 307.584 
L 310.91712 307.584 
L 319.01184 307.584 
L 327.10656 307.584 
L 335.20128 307.584 
L 343.296 307.584 
L 343.296 298.7136 
L 343.296 289.8432 
L 343.296 280.9728 
L 343.296 272.1024 
L 343.296 263.232 
L 343.296 254.3616 
L 343.296 245.4912 
L 343.296 236.6208 
L 343.296 227.7504 
L 343.296 218.88 
L 343.296 210.0096 
L 343.296 201.1392 
L 343.296 192.2688 
L 343.296 183.3984 
L 343.296 174.528 
L 343.296 165.6576 
L 343.296 156.7872 
L 343.296 147.9168 
L 343.296 139.0464 
L 343.296 130.176 
L 343.296 121.3056 
L 343.296 112.4352 
L 343.296 103.5648 
L 343.296 94.6944 
L 343.296 85.824 
L 343.296 76.9536 
L 343.296 68.0832 
L 343.296 59.2128 
L 343.296 50.3424 
L 343.296 41.472 
L 335.20128 41.472 
L 327.10656 41.472 
L 319.01184 41.472 
" clip-path="url(#p02946b05e4)" style="fill: #f8f500"/>
   </g>
   <g id="PathCollection_18">
    <path d="M 298.002335 307.584 
L 296.581917 305.55208 
L 296.146277 304.98592 
L 293.634335 301.606107 
L 291.156957 298.7136 
L 289.02089 296.096845 
L 285.369951 292.44128 
L 284.017092 291.030558 
L 282.689288 289.8432 
L 280.106455 287.444383 
L 279.848296 287.24512 
L 277.084866 284.817784 
L 272.029628 280.9728 
L 271.110267 280.242162 
L 267.80774 278.084445 
L 264.3364 275.71449 
L 262.619691 274.70048 
L 260.9169 273.75644 
L 258.124367 272.1024 
L 257.000008 271.420725 
L 256.414707 271.121679 
L 253.22786 269.50432 
L 250.04757 267.841601 
L 247.486409 266.742784 
L 245.239717 265.664967 
L 239.288169 263.232 
L 238.406447 262.857439 
L 237.409162 262.513711 
L 231.145231 260.122648 
L 228.470542 259.26531 
L 226.239846 258.44911 
L 221.267601 256.95968 
L 218.216172 256.022454 
L 212.135435 254.3616 
L 208.077597 253.275932 
L 201.710913 251.76352 
L 200.279637 251.415367 
L 199.795636 251.323584 
L 195.738283 250.392772 
L 193.614023 250.003484 
L 186.740237 248.511386 
L 182.255296 247.749701 
L 180.671208 247.423493 
L 174.079813 246.3382 
L 172.768363 246.081321 
L 168.928189 245.4912 
L 165.421484 244.937421 
L 164.983073 244.885138 
L 158.56833 243.901277 
L 155.33118 243.533771 
L 150.049457 242.77491 
L 147.908337 242.543036 
L 144.103877 242.010993 
L 137.089913 241.285326 
L 134.549481 240.950894 
L 130.983623 240.597827 
L 129.390639 240.393334 
L 119.204575 239.426919 
L 118.947866 239.395769 
L 117.005073 239.21888 
L 115.03455 239.029814 
L 113.607698 238.916918 
L 105.143427 238.166664 
L 101.625665 237.904302 
L 100.4544 237.794552 
L 100.4544 245.4912 
L 100.4544 254.3616 
L 100.4544 263.232 
L 100.4544 265.620203 
L 101.430592 265.81457 
L 105.529935 266.5405 
L 112.948436 268.052883 
L 114.699128 268.376847 
L 118.925228 269.267542 
L 119.185883 269.316764 
L 120.045241 269.50432 
L 127.096876 271.031947 
L 128.137769 271.258549 
L 131.69448 272.1024 
L 137.772506 273.534697 
L 142.378953 274.70048 
L 145.855447 275.573178 
L 147.11636 275.929416 
L 150.587385 276.83339 
L 154.329401 277.917596 
L 158.801516 279.127346 
L 164.828835 280.9728 
L 165.172889 281.076693 
L 165.262735 281.1066 
L 171.438073 283.020686 
L 176.913878 284.925441 
L 179.576902 285.800142 
L 183.54848 287.24512 
L 183.64175 287.277576 
L 184.843207 287.731125 
L 189.934001 289.644534 
L 190.422762 289.8432 
L 191.848806 290.427203 
L 196.870549 292.44128 
L 199.543187 293.549084 
L 201.985412 294.658665 
L 207.280128 296.966451 
L 210.853334 298.7136 
L 213.332318 299.899238 
L 214.449447 300.483391 
L 218.44826 302.468928 
L 222.969801 304.98592 
L 225.076176 306.131059 
L 227.548488 307.584 
L 229.96992 307.584 
L 238.06464 307.584 
L 246.15936 307.584 
L 254.25408 307.584 
L 262.3488 307.584 
L 270.44352 307.584 
L 278.53824 307.584 
L 286.63296 307.584 
L 294.72768 307.584 
" clip-path="url(#p02946b05e4)" style="fill: #ff9400"/>
   </g>
   <g id="PathCollection_19">
    <path d="M 227.548488 307.584 
L 225.076176 306.131059 
L 222.969801 304.98592 
L 218.44826 302.468928 
L 214.449447 300.483391 
L 213.332318 299.899238 
L 210.853334 298.7136 
L 207.280128 296.966451 
L 201.985412 294.658665 
L 199.543187 293.549084 
L 196.870549 292.44128 
L 191.848806 290.427203 
L 190.422762 289.8432 
L 189.934001 289.644534 
L 184.843207 287.731125 
L 183.64175 287.277576 
L 183.54848 287.24512 
L 179.576902 285.800142 
L 176.913878 284.925441 
L 171.438073 283.020686 
L 165.262735 281.1066 
L 165.172889 281.076693 
L 164.828835 280.9728 
L 158.801516 279.127346 
L 154.329401 277.917596 
L 150.587385 276.83339 
L 147.11636 275.929416 
L 145.855447 275.573178 
L 142.378953 274.70048 
L 137.772506 273.534697 
L 131.69448 272.1024 
L 128.137769 271.258549 
L 127.096876 271.031947 
L 120.045241 269.50432 
L 119.185883 269.316764 
L 118.925228 269.267542 
L 114.699128 268.376847 
L 112.948436 268.052883 
L 105.529935 266.5405 
L 101.430592 265.81457 
L 100.4544 265.620203 
L 100.4544 272.1024 
L 100.4544 280.9728 
L 100.4544 289.8432 
L 100.4544 292.933619 
L 102.443473 293.451395 
L 104.205041 293.953248 
L 111.145757 295.868139 
L 116.124813 297.340486 
L 117.062244 297.606689 
L 120.719864 298.7136 
L 123.861491 299.674715 
L 126.35804 300.488267 
L 131.540687 302.133227 
L 134.502367 303.129264 
L 136.350669 303.729556 
L 139.955474 304.98592 
L 143.744051 306.305778 
L 147.254699 307.584 
L 149.02272 307.584 
L 157.11744 307.584 
L 165.21216 307.584 
L 173.30688 307.584 
L 181.4016 307.584 
L 189.49632 307.584 
L 197.59104 307.584 
L 205.68576 307.584 
L 213.78048 307.584 
L 221.8752 307.584 
" clip-path="url(#p02946b05e4)" style="fill: #ff3800"/>
   </g>
   <g id="PathCollection_20">
    <path d="M 147.254699 307.584 
L 143.744051 306.305778 
L 139.955474 304.98592 
L 136.350669 303.729556 
L 134.502367 303.129264 
L 131.540687 302.133227 
L 126.35804 300.488267 
L 123.861491 299.674715 
L 120.719864 298.7136 
L 117.062244 297.606689 
L 116.124813 297.340486 
L 111.145757 295.868139 
L 104.205041 293.953248 
L 102.443473 293.451395 
L 100.4544 292.933619 
L 100.4544 298.7136 
L 100.4544 307.584 
L 108.54912 307.584 
L 116.64384 307.584 
L 124.73856 307.584 
L 132.83328 307.584 
L 140.928 307.584 
" clip-path="url(#p02946b05e4)" style="fill: #b60000"/>
   </g>
   <g id="matplotlib.axis_1">
    <g id="xtick_1">
     <g id="line2d_1">
      <defs>
       <path id="m64e2927e79" d="M 0 0 
L 0 3.5 
" style="stroke: #000000; stroke-width: 0.8"/>
      </defs>
      <g>
       <use xlink:href="#m64e2927e79" x="57.6" y="307.584" style="stroke: #000000; stroke-width: 0.8"/>
      </g>
     </g>
     <g id="text_1">
      <!-- 0.0 -->
      <g transform="translate(51.26875 321.385562) scale(0.1 -0.1)">
       <defs>
        <path id="Calibri-30" d="M 3022 2031 
Q 3022 1566 2948 1181 
Q 2875 797 2704 520 
Q 2534 244 2259 92 
Q 1984 -59 1581 -59 
Q 1200 -59 939 77 
Q 678 213 518 477 
Q 359 741 292 1127 
Q 225 1513 225 2013 
Q 225 2475 300 2861 
Q 375 3247 544 3523 
Q 713 3800 988 3951 
Q 1263 4103 1663 4103 
Q 2047 4103 2308 3967 
Q 2569 3831 2728 3567 
Q 2888 3303 2955 2917 
Q 3022 2531 3022 2031 
z
M 2472 1994 
Q 2472 2297 2450 2537 
Q 2428 2778 2386 2962 
Q 2344 3147 2276 3280 
Q 2209 3413 2115 3498 
Q 2022 3584 1901 3623 
Q 1781 3663 1631 3663 
Q 1366 3663 1200 3538 
Q 1034 3413 939 3194 
Q 844 2975 809 2681 
Q 775 2388 775 2050 
Q 775 1597 822 1280 
Q 869 963 970 763 
Q 1072 563 1230 472 
Q 1388 381 1613 381 
Q 1788 381 1920 437 
Q 2053 494 2148 598 
Q 2244 703 2306 850 
Q 2369 997 2406 1175 
Q 2444 1353 2458 1561 
Q 2472 1769 2472 1994 
z
" transform="scale(0.015625)"/>
        <path id="Calibri-2e" d="M 1144 341 
Q 1144 119 1070 45 
Q 997 -28 803 -28 
Q 616 -28 544 44 
Q 472 116 472 331 
Q 472 553 545 626 
Q 619 700 813 700 
Q 1000 700 1072 628 
Q 1144 556 1144 341 
z
" transform="scale(0.015625)"/>
       </defs>
       <use xlink:href="#Calibri-30"/>
       <use xlink:href="#Calibri-2e" x="50.683594"/>
       <use xlink:href="#Calibri-30" x="75.927734"/>
      </g>
     </g>
    </g>
    <g id="xtick_2">
     <g id="line2d_2">
      <g>
       <use xlink:href="#m64e2927e79" x="86.1696" y="307.584" style="stroke: #000000; stroke-width: 0.8"/>
      </g>
     </g>
     <g id="text_2">
      <!-- 0.1 -->
      <g transform="translate(79.83835 321.385562) scale(0.1 -0.1)">
       <defs>
        <path id="Calibri-31" d="M 2897 213 
Q 2897 153 2887 112 
Q 2878 72 2862 47 
Q 2847 22 2826 11 
Q 2806 0 2784 0 
L 672 0 
Q 650 0 631 11 
Q 613 22 595 47 
Q 578 72 568 112 
Q 559 153 559 213 
Q 559 269 568 309 
Q 578 350 592 376 
Q 606 403 626 417 
Q 647 431 672 431 
L 1516 431 
L 1516 3506 
L 734 3041 
Q 675 3009 639 3003 
Q 603 2997 581 3017 
Q 559 3038 551 3084 
Q 544 3131 544 3203 
Q 544 3256 548 3293 
Q 553 3331 562 3356 
Q 572 3381 589 3400 
Q 606 3419 634 3438 
L 1566 4034 
Q 1578 4044 1597 4050 
Q 1616 4056 1644 4062 
Q 1672 4069 1709 4070 
Q 1747 4072 1803 4072 
Q 1878 4072 1928 4065 
Q 1978 4059 2006 4048 
Q 2034 4038 2043 4020 
Q 2053 4003 2053 3984 
L 2053 431 
L 2784 431 
Q 2809 431 2831 417 
Q 2853 403 2867 376 
Q 2881 350 2889 309 
Q 2897 269 2897 213 
z
" transform="scale(0.015625)"/>
       </defs>
       <use xlink:href="#Calibri-30"/>
       <use xlink:href="#Calibri-2e" x="50.683594"/>
       <use xlink:href="#Calibri-31" x="75.927734"/>
      </g>
     </g>
    </g>
    <g id="xtick_3">
     <g id="line2d_3">
      <g>
       <use xlink:href="#m64e2927e79" x="114.7392" y="307.584" style="stroke: #000000; stroke-width: 0.8"/>
      </g>
     </g>
     <g id="text_3">
      <!-- 0.2 -->
      <g transform="translate(108.40795 321.385562) scale(0.1 -0.1)">
       <defs>
        <path id="Calibri-32" d="M 2888 231 
Q 2888 175 2880 131 
Q 2872 88 2858 58 
Q 2844 28 2820 14 
Q 2797 0 2769 0 
L 534 0 
Q 491 0 458 11 
Q 425 22 401 47 
Q 378 72 367 119 
Q 356 166 356 234 
Q 356 297 361 344 
Q 366 391 381 427 
Q 397 463 420 498 
Q 444 534 481 575 
L 1266 1406 
Q 1538 1694 1702 1922 
Q 1866 2150 1955 2337 
Q 2044 2525 2072 2678 
Q 2100 2831 2100 2966 
Q 2100 3100 2056 3220 
Q 2013 3341 1930 3431 
Q 1847 3522 1722 3575 
Q 1597 3628 1434 3628 
Q 1244 3628 1092 3575 
Q 941 3522 827 3459 
Q 713 3397 636 3344 
Q 559 3291 522 3291 
Q 500 3291 483 3303 
Q 466 3316 455 3344 
Q 444 3372 437 3419 
Q 431 3466 431 3531 
Q 431 3578 434 3612 
Q 438 3647 445 3672 
Q 453 3697 465 3719 
Q 478 3741 515 3773 
Q 553 3806 645 3862 
Q 738 3919 877 3973 
Q 1016 4028 1183 4065 
Q 1350 4103 1534 4103 
Q 1828 4103 2048 4020 
Q 2269 3938 2414 3794 
Q 2559 3650 2631 3459 
Q 2703 3269 2703 3053 
Q 2703 2859 2668 2667 
Q 2634 2475 2523 2251 
Q 2413 2028 2203 1754 
Q 1994 1481 1647 1125 
L 1006 456 
L 2766 456 
Q 2791 456 2814 442 
Q 2838 428 2855 400 
Q 2872 372 2880 330 
Q 2888 288 2888 231 
z
" transform="scale(0.015625)"/>
       </defs>
       <use xlink:href="#Calibri-30"/>
       <use xlink:href="#Calibri-2e" x="50.683594"/>
       <use xlink:href="#Calibri-32" x="75.927734"/>
      </g>
     </g>
    </g>
    <g id="xtick_4">
     <g id="line2d_4">
      <g>
       <use xlink:href="#m64e2927e79" x="143.3088" y="307.584" style="stroke: #000000; stroke-width: 0.8"/>
      </g>
     </g>
     <g id="text_4">
      <!-- 0.3 -->
      <g transform="translate(136.97755 321.385562) scale(0.1 -0.1)">
       <defs>
        <path id="Calibri-33" d="M 2856 1156 
Q 2856 878 2759 654 
Q 2663 431 2481 272 
Q 2300 113 2034 27 
Q 1769 -59 1434 -59 
Q 1231 -59 1054 -26 
Q 878 6 740 51 
Q 603 97 512 145 
Q 422 194 398 216 
Q 375 238 362 259 
Q 350 281 340 312 
Q 331 344 326 389 
Q 322 434 322 500 
Q 322 613 344 656 
Q 366 700 406 700 
Q 434 700 517 650 
Q 600 600 729 542 
Q 859 484 1032 434 
Q 1206 384 1419 384 
Q 1625 384 1781 437 
Q 1938 491 2044 587 
Q 2150 684 2203 817 
Q 2256 950 2256 1106 
Q 2256 1278 2189 1415 
Q 2122 1553 1992 1653 
Q 1863 1753 1673 1806 
Q 1484 1859 1244 1859 
L 859 1859 
Q 834 1859 811 1870 
Q 788 1881 770 1906 
Q 753 1931 742 1972 
Q 731 2013 731 2078 
Q 731 2138 740 2177 
Q 750 2216 767 2239 
Q 784 2263 806 2273 
Q 828 2284 856 2284 
L 1209 2284 
Q 1416 2284 1580 2337 
Q 1744 2391 1858 2491 
Q 1972 2591 2033 2730 
Q 2094 2869 2094 3041 
Q 2094 3166 2053 3280 
Q 2013 3394 1931 3478 
Q 1850 3563 1723 3611 
Q 1597 3659 1431 3659 
Q 1250 3659 1098 3604 
Q 947 3550 828 3487 
Q 709 3425 631 3370 
Q 553 3316 522 3316 
Q 500 3316 483 3323 
Q 466 3331 455 3354 
Q 444 3378 439 3420 
Q 434 3463 434 3531 
Q 434 3578 437 3614 
Q 441 3650 450 3676 
Q 459 3703 471 3725 
Q 484 3747 514 3776 
Q 544 3806 634 3862 
Q 725 3919 858 3973 
Q 991 4028 1164 4065 
Q 1338 4103 1538 4103 
Q 1819 4103 2031 4031 
Q 2244 3959 2386 3828 
Q 2528 3697 2598 3514 
Q 2669 3331 2669 3109 
Q 2669 2919 2619 2755 
Q 2569 2591 2472 2464 
Q 2375 2338 2234 2248 
Q 2094 2159 1909 2125 
L 1909 2119 
Q 2119 2097 2292 2014 
Q 2466 1931 2591 1806 
Q 2716 1681 2786 1514 
Q 2856 1347 2856 1156 
z
" transform="scale(0.015625)"/>
       </defs>
       <use xlink:href="#Calibri-30"/>
       <use xlink:href="#Calibri-2e" x="50.683594"/>
       <use xlink:href="#Calibri-33" x="75.927734"/>
      </g>
     </g>
    </g>
    <g id="xtick_5">
     <g id="line2d_5">
      <g>
       <use xlink:href="#m64e2927e79" x="171.8784" y="307.584" style="stroke: #000000; stroke-width: 0.8"/>
      </g>
     </g>
     <g id="text_5">
      <!-- 0.4 -->
      <g transform="translate(165.54715 321.385562) scale(0.1 -0.1)">
       <defs>
        <path id="Calibri-34" d="M 3059 1150 
Q 3059 1047 3028 987 
Q 2997 928 2941 928 
L 2484 928 
L 2484 78 
Q 2484 53 2471 36 
Q 2459 19 2428 6 
Q 2397 -6 2347 -12 
Q 2297 -19 2219 -19 
Q 2144 -19 2094 -12 
Q 2044 -6 2014 6 
Q 1984 19 1973 36 
Q 1963 53 1963 78 
L 1963 928 
L 294 928 
Q 256 928 231 937 
Q 206 947 186 972 
Q 166 997 158 1044 
Q 150 1091 150 1166 
Q 150 1225 153 1272 
Q 156 1319 165 1358 
Q 175 1397 190 1433 
Q 206 1469 228 1509 
L 1684 3966 
Q 1700 3991 1729 4009 
Q 1759 4028 1806 4040 
Q 1853 4053 1922 4058 
Q 1991 4063 2084 4063 
Q 2188 4063 2264 4055 
Q 2341 4047 2387 4034 
Q 2434 4022 2459 4001 
Q 2484 3981 2484 3953 
L 2484 1372 
L 2941 1372 
Q 2994 1372 3026 1317 
Q 3059 1263 3059 1150 
z
M 1963 3591 
L 1956 3591 
L 641 1372 
L 1963 1372 
L 1963 3591 
z
" transform="scale(0.015625)"/>
       </defs>
       <use xlink:href="#Calibri-30"/>
       <use xlink:href="#Calibri-2e" x="50.683594"/>
       <use xlink:href="#Calibri-34" x="75.927734"/>
      </g>
     </g>
    </g>
    <g id="xtick_6">
     <g id="line2d_6">
      <g>
       <use xlink:href="#m64e2927e79" x="200.448" y="307.584" style="stroke: #000000; stroke-width: 0.8"/>
      </g>
     </g>
     <g id="text_6">
      <!-- 0.5 -->
      <g transform="translate(194.11675 321.385562) scale(0.1 -0.1)">
       <defs>
        <path id="Calibri-35" d="M 2869 1300 
Q 2869 975 2759 722 
Q 2650 469 2450 295 
Q 2250 122 1973 31 
Q 1697 -59 1359 -59 
Q 1172 -59 1003 -32 
Q 834 -6 703 33 
Q 572 72 487 109 
Q 403 147 379 169 
Q 356 191 347 209 
Q 338 228 330 254 
Q 322 281 319 322 
Q 316 363 316 419 
Q 316 472 320 514 
Q 325 556 337 582 
Q 350 609 367 621 
Q 384 634 406 634 
Q 438 634 503 595 
Q 569 556 680 511 
Q 791 466 955 425 
Q 1119 384 1344 384 
Q 1553 384 1728 434 
Q 1903 484 2029 590 
Q 2156 697 2228 858 
Q 2300 1019 2300 1250 
Q 2300 1444 2239 1592 
Q 2178 1741 2051 1839 
Q 1925 1938 1731 1986 
Q 1538 2034 1269 2034 
Q 1078 2034 940 2015 
Q 803 1997 684 1997 
Q 597 1997 559 2037 
Q 522 2078 522 2194 
L 522 3841 
Q 522 3944 570 3994 
Q 619 4044 709 4044 
L 2500 4044 
Q 2525 4044 2548 4030 
Q 2572 4016 2587 3987 
Q 2603 3959 2611 3915 
Q 2619 3872 2619 3813 
Q 2619 3700 2587 3637 
Q 2556 3575 2500 3575 
L 991 3575 
L 991 2441 
Q 1100 2456 1214 2459 
Q 1328 2463 1478 2463 
Q 1825 2463 2084 2380 
Q 2344 2297 2517 2145 
Q 2691 1994 2780 1778 
Q 2869 1563 2869 1300 
z
" transform="scale(0.015625)"/>
       </defs>
       <use xlink:href="#Calibri-30"/>
       <use xlink:href="#Calibri-2e" x="50.683594"/>
       <use xlink:href="#Calibri-35" x="75.927734"/>
      </g>
     </g>
    </g>
    <g id="xtick_7">
     <g id="line2d_7">
      <g>
       <use xlink:href="#m64e2927e79" x="229.0176" y="307.584" style="stroke: #000000; stroke-width: 0.8"/>
      </g>
     </g>
     <g id="text_7">
      <!-- 0.6 -->
      <g transform="translate(222.68635 321.385562) scale(0.1 -0.1)">
       <defs>
        <path id="Calibri-36" d="M 2991 1309 
Q 2991 1044 2909 795 
Q 2828 547 2659 358 
Q 2491 169 2231 55 
Q 1972 -59 1619 -59 
Q 1366 -59 1172 3 
Q 978 66 834 181 
Q 691 297 595 465 
Q 500 634 442 850 
Q 384 1066 359 1322 
Q 334 1578 334 1872 
Q 334 2131 362 2397 
Q 391 2663 462 2909 
Q 534 3156 657 3373 
Q 781 3591 967 3752 
Q 1153 3913 1412 4006 
Q 1672 4100 2016 4100 
Q 2131 4100 2250 4086 
Q 2369 4072 2469 4048 
Q 2569 4025 2637 3997 
Q 2706 3969 2728 3951 
Q 2750 3934 2761 3914 
Q 2772 3894 2778 3870 
Q 2784 3847 2787 3817 
Q 2791 3788 2791 3744 
Q 2791 3688 2789 3647 
Q 2788 3606 2777 3581 
Q 2766 3556 2748 3543 
Q 2731 3531 2703 3531 
Q 2669 3531 2609 3553 
Q 2550 3575 2465 3601 
Q 2381 3628 2261 3650 
Q 2141 3672 1981 3672 
Q 1691 3672 1481 3553 
Q 1272 3434 1139 3234 
Q 1006 3034 942 2770 
Q 878 2506 869 2219 
Q 950 2266 1051 2312 
Q 1153 2359 1273 2396 
Q 1394 2434 1528 2457 
Q 1663 2481 1816 2481 
Q 2144 2481 2369 2392 
Q 2594 2303 2733 2145 
Q 2872 1988 2931 1773 
Q 2991 1559 2991 1309 
z
M 2447 1259 
Q 2447 1441 2411 1589 
Q 2375 1738 2290 1841 
Q 2206 1944 2065 2000 
Q 1925 2056 1719 2056 
Q 1603 2056 1487 2036 
Q 1372 2016 1264 1980 
Q 1156 1944 1057 1895 
Q 959 1847 878 1791 
Q 878 1388 929 1116 
Q 981 844 1079 680 
Q 1178 516 1325 445 
Q 1472 375 1669 375 
Q 1869 375 2016 450 
Q 2163 525 2259 651 
Q 2356 778 2401 936 
Q 2447 1094 2447 1259 
z
" transform="scale(0.015625)"/>
       </defs>
       <use xlink:href="#Calibri-30"/>
       <use xlink:href="#Calibri-2e" x="50.683594"/>
       <use xlink:href="#Calibri-36" x="75.927734"/>
      </g>
     </g>
    </g>
    <g id="xtick_8">
     <g id="line2d_8">
      <g>
       <use xlink:href="#m64e2927e79" x="257.5872" y="307.584" style="stroke: #000000; stroke-width: 0.8"/>
      </g>
     </g>
     <g id="text_8">
      <!-- 0.7 -->
      <g transform="translate(251.25595 321.385562) scale(0.1 -0.1)">
       <defs>
        <path id="Calibri-37" d="M 2947 3813 
Q 2947 3756 2942 3711 
Q 2938 3666 2930 3623 
Q 2922 3581 2908 3542 
Q 2894 3503 2875 3459 
L 1419 103 
Q 1403 66 1379 42 
Q 1356 19 1320 5 
Q 1284 -9 1228 -14 
Q 1172 -19 1091 -19 
Q 984 -19 925 -9 
Q 866 0 839 20 
Q 813 41 816 70 
Q 819 100 838 141 
L 2369 3572 
L 428 3572 
Q 369 3572 339 3634 
Q 309 3697 309 3809 
Q 309 3869 317 3912 
Q 325 3956 340 3986 
Q 356 4016 378 4030 
Q 400 4044 428 4044 
L 2784 4044 
Q 2828 4044 2861 4034 
Q 2894 4025 2911 3997 
Q 2928 3969 2937 3925 
Q 2947 3881 2947 3813 
z
" transform="scale(0.015625)"/>
       </defs>
       <use xlink:href="#Calibri-30"/>
       <use xlink:href="#Calibri-2e" x="50.683594"/>
       <use xlink:href="#Calibri-37" x="75.927734"/>
      </g>
     </g>
    </g>
    <g id="xtick_9">
     <g id="line2d_9">
      <g>
       <use xlink:href="#m64e2927e79" x="286.1568" y="307.584" style="stroke: #000000; stroke-width: 0.8"/>
      </g>
     </g>
     <g id="text_9">
      <!-- 0.8 -->
      <g transform="translate(279.82555 321.385562) scale(0.1 -0.1)">
       <defs>
        <path id="Calibri-38" d="M 2981 1038 
Q 2981 775 2887 570 
Q 2794 366 2617 225 
Q 2441 84 2181 12 
Q 1922 -59 1588 -59 
Q 1275 -59 1028 6 
Q 781 72 609 200 
Q 438 328 347 515 
Q 256 703 256 944 
Q 256 1134 318 1293 
Q 381 1453 498 1587 
Q 616 1722 787 1839 
Q 959 1956 1175 2063 
Q 988 2159 844 2267 
Q 700 2375 600 2501 
Q 500 2628 448 2772 
Q 397 2916 397 3084 
Q 397 3297 473 3483 
Q 550 3669 704 3806 
Q 859 3944 1098 4023 
Q 1338 4103 1656 4103 
Q 1963 4103 2186 4029 
Q 2409 3956 2554 3829 
Q 2700 3703 2769 3531 
Q 2838 3359 2838 3163 
Q 2838 3003 2786 2856 
Q 2734 2709 2634 2578 
Q 2534 2447 2389 2333 
Q 2244 2219 2056 2119 
Q 2278 2009 2451 1893 
Q 2625 1778 2742 1645 
Q 2859 1513 2920 1364 
Q 2981 1216 2981 1038 
z
M 2306 3113 
Q 2306 3244 2261 3350 
Q 2216 3456 2128 3531 
Q 2041 3606 1911 3645 
Q 1781 3684 1616 3684 
Q 1278 3684 1104 3531 
Q 931 3378 931 3113 
Q 931 2991 973 2886 
Q 1016 2781 1105 2687 
Q 1194 2594 1330 2505 
Q 1466 2416 1653 2319 
Q 1969 2481 2137 2678 
Q 2306 2875 2306 3113 
z
M 2438 981 
Q 2438 1125 2384 1242 
Q 2331 1359 2223 1461 
Q 2116 1563 1955 1658 
Q 1794 1753 1581 1856 
Q 1384 1759 1236 1662 
Q 1088 1566 992 1462 
Q 897 1359 848 1245 
Q 800 1131 800 994 
Q 800 691 1008 525 
Q 1216 359 1628 359 
Q 2028 359 2233 526 
Q 2438 694 2438 981 
z
" transform="scale(0.015625)"/>
       </defs>
       <use xlink:href="#Calibri-30"/>
       <use xlink:href="#Calibri-2e" x="50.683594"/>
       <use xlink:href="#Calibri-38" x="75.927734"/>
      </g>
     </g>
    </g>
    <g id="xtick_10">
     <g id="line2d_10">
      <g>
       <use xlink:href="#m64e2927e79" x="314.7264" y="307.584" style="stroke: #000000; stroke-width: 0.8"/>
      </g>
     </g>
     <g id="text_10">
      <!-- 0.9 -->
      <g transform="translate(308.39515 321.385562) scale(0.1 -0.1)">
       <defs>
        <path id="Calibri-39" d="M 2919 2181 
Q 2919 1919 2887 1650 
Q 2856 1381 2781 1132 
Q 2706 884 2579 667 
Q 2453 450 2261 287 
Q 2069 125 1805 33 
Q 1541 -59 1191 -59 
Q 1056 -59 929 -42 
Q 803 -25 701 0 
Q 600 25 531 53 
Q 463 81 431 109 
Q 400 138 386 186 
Q 372 234 372 316 
Q 372 384 376 425 
Q 381 466 390 487 
Q 400 509 417 517 
Q 434 525 459 525 
Q 494 525 556 501 
Q 619 478 714 450 
Q 809 422 937 398 
Q 1066 375 1225 375 
Q 1528 375 1745 492 
Q 1963 609 2100 806 
Q 2238 1003 2306 1262 
Q 2375 1522 2381 1809 
Q 2216 1713 1984 1638 
Q 1753 1563 1453 1563 
Q 1116 1563 886 1655 
Q 656 1747 517 1906 
Q 378 2066 317 2284 
Q 256 2503 256 2763 
Q 256 3031 334 3273 
Q 413 3516 578 3700 
Q 744 3884 1000 3993 
Q 1256 4103 1613 4103 
Q 1866 4103 2061 4039 
Q 2256 3975 2400 3854 
Q 2544 3734 2644 3564 
Q 2744 3394 2805 3178 
Q 2866 2963 2892 2711 
Q 2919 2459 2919 2181 
z
M 2372 2241 
Q 2372 2641 2319 2914 
Q 2266 3188 2162 3356 
Q 2059 3525 1909 3600 
Q 1759 3675 1563 3675 
Q 1359 3675 1215 3601 
Q 1072 3528 980 3404 
Q 888 3281 844 3125 
Q 800 2969 800 2803 
Q 800 2619 839 2466 
Q 878 2313 965 2206 
Q 1053 2100 1193 2042 
Q 1334 1984 1541 1984 
Q 1775 1984 1994 2054 
Q 2213 2125 2372 2241 
z
" transform="scale(0.015625)"/>
       </defs>
       <use xlink:href="#Calibri-30"/>
       <use xlink:href="#Calibri-2e" x="50.683594"/>
       <use xlink:href="#Calibri-39" x="75.927734"/>
      </g>
     </g>
    </g>
    <g id="xtick_11">
     <g id="line2d_11">
      <g>
       <use xlink:href="#m64e2927e79" x="343.296" y="307.584" style="stroke: #000000; stroke-width: 0.8"/>
      </g>
     </g>
     <g id="text_11">
      <!-- 1.0 -->
      <g transform="translate(336.96475 321.385562) scale(0.1 -0.1)">
       <use xlink:href="#Calibri-31"/>
       <use xlink:href="#Calibri-2e" x="50.683594"/>
       <use xlink:href="#Calibri-30" x="75.927734"/>
      </g>
     </g>
    </g>
    <g id="text_12">
     <!-- $\mathit{p}$ (cm$^2$/cm$^2$) -->
     <g transform="translate(174.148 336.263687) scale(0.1 -0.1)">
      <defs>
       <path id="DejaVuSans-Oblique-70" d="M 3175 2156 
Q 3175 2616 2975 2859 
Q 2775 3103 2400 3103 
Q 2144 3103 1911 2972 
Q 1678 2841 1497 2591 
Q 1319 2344 1212 1994 
Q 1106 1644 1106 1300 
Q 1106 863 1306 627 
Q 1506 391 1875 391 
Q 2147 391 2380 519 
Q 2613 647 2778 891 
Q 2956 1147 3065 1494 
Q 3175 1841 3175 2156 
z
M 1394 2969 
Q 1625 3272 1939 3428 
Q 2253 3584 2638 3584 
Q 3175 3584 3472 3232 
Q 3769 2881 3769 2247 
Q 3769 1728 3584 1258 
Q 3400 788 3053 416 
Q 2822 169 2531 39 
Q 2241 -91 1919 -91 
Q 1547 -91 1294 64 
Q 1041 219 916 525 
L 556 -1331 
L -19 -1331 
L 922 3500 
L 1497 3500 
L 1394 2969 
z
" transform="scale(0.015625)"/>
       <path id="Calibri-20" transform="scale(0.015625)"/>
       <path id="Calibri-28" d="M 1547 4306 
Q 1250 3678 1104 3017 
Q 959 2356 959 1688 
Q 959 1016 1107 356 
Q 1256 -303 1541 -938 
Q 1556 -975 1557 -1001 
Q 1559 -1028 1537 -1045 
Q 1516 -1063 1470 -1070 
Q 1425 -1078 1347 -1078 
Q 1291 -1078 1250 -1075 
Q 1209 -1072 1179 -1062 
Q 1150 -1053 1131 -1040 
Q 1113 -1028 1103 -1013 
Q 934 -694 806 -367 
Q 678 -41 590 296 
Q 503 634 459 979 
Q 416 1325 416 1678 
Q 416 2031 464 2375 
Q 513 2719 602 3058 
Q 691 3397 819 3725 
Q 947 4053 1106 4375 
Q 1109 4388 1123 4397 
Q 1138 4406 1163 4415 
Q 1188 4425 1231 4429 
Q 1275 4434 1344 4434 
Q 1416 4434 1459 4425 
Q 1503 4416 1528 4400 
Q 1553 4384 1556 4359 
Q 1559 4334 1547 4306 
z
" transform="scale(0.015625)"/>
       <path id="Calibri-63" d="M 2500 506 
Q 2500 453 2497 414 
Q 2494 375 2486 348 
Q 2478 322 2467 301 
Q 2456 281 2417 242 
Q 2378 203 2284 145 
Q 2191 88 2073 42 
Q 1956 -3 1818 -31 
Q 1681 -59 1534 -59 
Q 1231 -59 997 41 
Q 763 141 605 333 
Q 447 525 364 804 
Q 281 1084 281 1450 
Q 281 1866 382 2164 
Q 484 2463 661 2653 
Q 838 2844 1077 2936 
Q 1316 3028 1594 3028 
Q 1728 3028 1854 3003 
Q 1981 2978 2087 2937 
Q 2194 2897 2276 2844 
Q 2359 2791 2396 2753 
Q 2434 2716 2448 2694 
Q 2463 2672 2472 2642 
Q 2481 2613 2484 2575 
Q 2488 2538 2488 2481 
Q 2488 2359 2459 2311 
Q 2431 2263 2391 2263 
Q 2344 2263 2283 2314 
Q 2222 2366 2128 2428 
Q 2034 2491 1901 2542 
Q 1769 2594 1588 2594 
Q 1216 2594 1017 2308 
Q 819 2022 819 1478 
Q 819 1206 870 1001 
Q 922 797 1022 659 
Q 1122 522 1267 455 
Q 1413 388 1600 388 
Q 1778 388 1912 444 
Q 2047 500 2145 567 
Q 2244 634 2311 689 
Q 2378 744 2416 744 
Q 2438 744 2453 731 
Q 2469 719 2480 689 
Q 2491 659 2495 614 
Q 2500 569 2500 506 
z
" transform="scale(0.015625)"/>
       <path id="Calibri-6d" d="M 4650 78 
Q 4650 53 4637 36 
Q 4625 19 4597 6 
Q 4569 -6 4519 -12 
Q 4469 -19 4394 -19 
Q 4316 -19 4266 -12 
Q 4216 -6 4186 6 
Q 4156 19 4143 36 
Q 4131 53 4131 78 
L 4131 1788 
Q 4131 1966 4100 2112 
Q 4069 2259 4000 2365 
Q 3931 2472 3825 2528 
Q 3719 2584 3575 2584 
Q 3397 2584 3217 2446 
Q 3038 2309 2822 2044 
L 2822 78 
Q 2822 53 2809 36 
Q 2797 19 2767 6 
Q 2738 -6 2688 -12 
Q 2638 -19 2563 -19 
Q 2491 -19 2439 -12 
Q 2388 -6 2358 6 
Q 2328 19 2317 36 
Q 2306 53 2306 78 
L 2306 1788 
Q 2306 1966 2272 2112 
Q 2238 2259 2169 2365 
Q 2100 2472 1995 2528 
Q 1891 2584 1747 2584 
Q 1569 2584 1387 2446 
Q 1206 2309 994 2044 
L 994 78 
Q 994 53 981 36 
Q 969 19 941 6 
Q 913 -6 863 -12 
Q 813 -19 734 -19 
Q 659 -19 609 -12 
Q 559 -6 529 6 
Q 500 19 489 36 
Q 478 53 478 78 
L 478 2891 
Q 478 2916 487 2933 
Q 497 2950 525 2964 
Q 553 2978 597 2983 
Q 641 2988 713 2988 
Q 781 2988 826 2983 
Q 872 2978 897 2964 
Q 922 2950 933 2933 
Q 944 2916 944 2891 
L 944 2519 
Q 1181 2784 1404 2907 
Q 1628 3031 1856 3031 
Q 2031 3031 2170 2990 
Q 2309 2950 2415 2876 
Q 2522 2803 2597 2701 
Q 2672 2600 2722 2475 
Q 2863 2628 2989 2734 
Q 3116 2841 3233 2906 
Q 3350 2972 3461 3001 
Q 3572 3031 3684 3031 
Q 3956 3031 4140 2936 
Q 4325 2841 4439 2681 
Q 4553 2522 4601 2308 
Q 4650 2094 4650 1856 
L 4650 78 
z
" transform="scale(0.015625)"/>
       <path id="DejaVuSans-32" d="M 1228 531 
L 3431 531 
L 3431 0 
L 469 0 
L 469 531 
Q 828 903 1448 1529 
Q 2069 2156 2228 2338 
Q 2531 2678 2651 2914 
Q 2772 3150 2772 3378 
Q 2772 3750 2511 3984 
Q 2250 4219 1831 4219 
Q 1534 4219 1204 4116 
Q 875 4013 500 3803 
L 500 4441 
Q 881 4594 1212 4672 
Q 1544 4750 1819 4750 
Q 2544 4750 2975 4387 
Q 3406 4025 3406 3419 
Q 3406 3131 3298 2873 
Q 3191 2616 2906 2266 
Q 2828 2175 2409 1742 
Q 1991 1309 1228 531 
z
" transform="scale(0.015625)"/>
       <path id="Calibri-2f" d="M 525 -753 
Q 513 -794 492 -817 
Q 472 -841 440 -853 
Q 409 -866 364 -872 
Q 319 -878 253 -878 
Q 175 -878 123 -867 
Q 72 -856 44 -836 
Q 16 -816 9 -786 
Q 3 -756 22 -716 
L 1913 4469 
Q 1925 4509 1945 4532 
Q 1966 4556 1995 4570 
Q 2025 4584 2072 4589 
Q 2119 4594 2184 4594 
Q 2263 4594 2313 4583 
Q 2363 4572 2391 4553 
Q 2419 4534 2425 4503 
Q 2431 4472 2416 4431 
L 525 -753 
z
" transform="scale(0.015625)"/>
       <path id="Calibri-29" d="M 1522 1678 
Q 1522 1325 1478 979 
Q 1434 634 1346 296 
Q 1259 -41 1132 -367 
Q 1006 -694 838 -1013 
Q 828 -1028 809 -1040 
Q 791 -1053 761 -1062 
Q 731 -1072 690 -1075 
Q 650 -1078 594 -1078 
Q 513 -1078 467 -1070 
Q 422 -1063 401 -1045 
Q 381 -1028 382 -1001 
Q 384 -975 400 -938 
Q 688 -306 834 355 
Q 981 1016 981 1688 
Q 981 2356 834 3017 
Q 688 3678 394 4306 
Q 381 4334 384 4359 
Q 388 4384 413 4400 
Q 438 4416 481 4425 
Q 525 4434 597 4434 
Q 663 4434 706 4429 
Q 750 4425 776 4415 
Q 803 4406 815 4397 
Q 828 4388 834 4375 
Q 1156 3734 1339 3057 
Q 1522 2381 1522 1678 
z
" transform="scale(0.015625)"/>
      </defs>
      <use xlink:href="#DejaVuSans-Oblique-70" transform="translate(0 0.765625)"/>
      <use xlink:href="#Calibri-20" transform="translate(63.476562 0.765625)"/>
      <use xlink:href="#Calibri-28" transform="translate(84.958984 0.765625)"/>
      <use xlink:href="#Calibri-63" transform="translate(115.28125 0.765625)"/>
      <use xlink:href="#Calibri-6d" transform="translate(157.566406 0.765625)"/>
      <use xlink:href="#DejaVuSans-32" transform="translate(238.40625 39.046875) scale(0.7)"/>
      <use xlink:href="#Calibri-2f" transform="translate(285.676758 0.765625)"/>
      <use xlink:href="#Calibri-63" transform="translate(324.299805 0.765625)"/>
      <use xlink:href="#Calibri-6d" transform="translate(366.584961 0.765625)"/>
      <use xlink:href="#DejaVuSans-32" transform="translate(447.424805 39.046875) scale(0.7)"/>
      <use xlink:href="#Calibri-29" transform="translate(494.695312 0.765625)"/>
     </g>
    </g>
   </g>
   <g id="matplotlib.axis_2">
    <g id="ytick_1">
     <g id="line2d_12">
      <defs>
       <path id="m459d67928c" d="M 0 0 
L -3.5 0 
" style="stroke: #000000; stroke-width: 0.8"/>
      </defs>
      <g>
       <use xlink:href="#m459d67928c" x="57.6" y="275.65056" style="stroke: #000000; stroke-width: 0.8"/>
      </g>
     </g>
     <g id="text_13">
      <!-- 25 -->
      <g transform="translate(40.4625 279.051341) scale(0.1 -0.1)">
       <use xlink:href="#Calibri-32"/>
       <use xlink:href="#Calibri-35" x="50.683594"/>
      </g>
     </g>
    </g>
    <g id="ytick_2">
     <g id="line2d_13">
      <g>
       <use xlink:href="#m459d67928c" x="57.6" y="242.38656" style="stroke: #000000; stroke-width: 0.8"/>
      </g>
     </g>
     <g id="text_14">
      <!-- 50 -->
      <g transform="translate(40.4625 245.787341) scale(0.1 -0.1)">
       <use xlink:href="#Calibri-35"/>
       <use xlink:href="#Calibri-30" x="50.683594"/>
      </g>
     </g>
    </g>
    <g id="ytick_3">
     <g id="line2d_14">
      <g>
       <use xlink:href="#m459d67928c" x="57.6" y="209.12256" style="stroke: #000000; stroke-width: 0.8"/>
      </g>
     </g>
     <g id="text_15">
      <!-- 75 -->
      <g transform="translate(40.4625 212.523341) scale(0.1 -0.1)">
       <use xlink:href="#Calibri-37"/>
       <use xlink:href="#Calibri-35" x="50.683594"/>
      </g>
     </g>
    </g>
    <g id="ytick_4">
     <g id="line2d_15">
      <g>
       <use xlink:href="#m459d67928c" x="57.6" y="175.85856" style="stroke: #000000; stroke-width: 0.8"/>
      </g>
     </g>
     <g id="text_16">
      <!-- 100 -->
      <g transform="translate(35.39375 179.259341) scale(0.1 -0.1)">
       <use xlink:href="#Calibri-31"/>
       <use xlink:href="#Calibri-30" x="50.683594"/>
       <use xlink:href="#Calibri-30" x="101.367188"/>
      </g>
     </g>
    </g>
    <g id="ytick_5">
     <g id="line2d_16">
      <g>
       <use xlink:href="#m459d67928c" x="57.6" y="142.59456" style="stroke: #000000; stroke-width: 0.8"/>
      </g>
     </g>
     <g id="text_17">
      <!-- 125 -->
      <g transform="translate(35.39375 145.995341) scale(0.1 -0.1)">
       <use xlink:href="#Calibri-31"/>
       <use xlink:href="#Calibri-32" x="50.683594"/>
       <use xlink:href="#Calibri-35" x="101.367188"/>
      </g>
     </g>
    </g>
    <g id="ytick_6">
     <g id="line2d_17">
      <g>
       <use xlink:href="#m459d67928c" x="57.6" y="109.33056" style="stroke: #000000; stroke-width: 0.8"/>
      </g>
     </g>
     <g id="text_18">
      <!-- 150 -->
      <g transform="translate(35.39375 112.731341) scale(0.1 -0.1)">
       <use xlink:href="#Calibri-31"/>
       <use xlink:href="#Calibri-35" x="50.683594"/>
       <use xlink:href="#Calibri-30" x="101.367188"/>
      </g>
     </g>
    </g>
    <g id="ytick_7">
     <g id="line2d_18">
      <g>
       <use xlink:href="#m459d67928c" x="57.6" y="76.06656" style="stroke: #000000; stroke-width: 0.8"/>
      </g>
     </g>
     <g id="text_19">
      <!-- 175 -->
      <g transform="translate(35.39375 79.467341) scale(0.1 -0.1)">
       <use xlink:href="#Calibri-31"/>
       <use xlink:href="#Calibri-37" x="50.683594"/>
       <use xlink:href="#Calibri-35" x="101.367188"/>
      </g>
     </g>
    </g>
    <g id="ytick_8">
     <g id="line2d_19">
      <g>
       <use xlink:href="#m459d67928c" x="57.6" y="42.80256" style="stroke: #000000; stroke-width: 0.8"/>
      </g>
     </g>
     <g id="text_20">
      <!-- 200 -->
      <g transform="translate(35.39375 46.203341) scale(0.1 -0.1)">
       <use xlink:href="#Calibri-32"/>
       <use xlink:href="#Calibri-30" x="50.683594"/>
       <use xlink:href="#Calibri-30" x="101.367188"/>
      </g>
     </g>
    </g>
    <g id="text_21">
     <!-- $\mathit{Z}$$_{a}$ (nm) -->
     <g transform="translate(29.59375 191.028) rotate(-90) scale(0.1 -0.1)">
      <defs>
       <path id="DejaVuSans-Oblique-5a" d="M 838 4666 
L 4500 4666 
L 4409 4184 
L 794 531 
L 3769 531 
L 3669 0 
L -141 0 
L -50 481 
L 3566 4134 
L 738 4134 
L 838 4666 
z
" transform="scale(0.015625)"/>
       <path id="DejaVuSans-Oblique-61" d="M 3438 1997 
L 3047 0 
L 2472 0 
L 2578 531 
Q 2325 219 2001 64 
Q 1678 -91 1281 -91 
Q 834 -91 548 182 
Q 263 456 263 884 
Q 263 1497 752 1853 
Q 1241 2209 2100 2209 
L 2900 2209 
L 2931 2363 
Q 2938 2388 2941 2417 
Q 2944 2447 2944 2509 
Q 2944 2788 2717 2942 
Q 2491 3097 2081 3097 
Q 1800 3097 1504 3025 
Q 1209 2953 897 2809 
L 997 3341 
Q 1322 3463 1633 3523 
Q 1944 3584 2234 3584 
Q 2853 3584 3176 3315 
Q 3500 3047 3500 2534 
Q 3500 2431 3484 2292 
Q 3469 2153 3438 1997 
z
M 2816 1759 
L 2241 1759 
Q 1534 1759 1195 1570 
Q 856 1381 856 984 
Q 856 709 1029 553 
Q 1203 397 1509 397 
Q 1978 397 2328 733 
Q 2678 1069 2791 1631 
L 2816 1759 
z
" transform="scale(0.015625)"/>
       <path id="Calibri-6e" d="M 2900 78 
Q 2900 53 2887 36 
Q 2875 19 2847 6 
Q 2819 -6 2769 -12 
Q 2719 -19 2644 -19 
Q 2566 -19 2516 -12 
Q 2466 -6 2437 6 
Q 2409 19 2396 36 
Q 2384 53 2384 78 
L 2384 1725 
Q 2384 1966 2346 2112 
Q 2309 2259 2237 2365 
Q 2166 2472 2052 2528 
Q 1938 2584 1788 2584 
Q 1594 2584 1400 2446 
Q 1206 2309 994 2044 
L 994 78 
Q 994 53 981 36 
Q 969 19 941 6 
Q 913 -6 863 -12 
Q 813 -19 734 -19 
Q 659 -19 609 -12 
Q 559 -6 529 6 
Q 500 19 489 36 
Q 478 53 478 78 
L 478 2891 
Q 478 2916 487 2933 
Q 497 2950 525 2964 
Q 553 2978 597 2983 
Q 641 2988 713 2988 
Q 781 2988 826 2983 
Q 872 2978 897 2964 
Q 922 2950 933 2933 
Q 944 2916 944 2891 
L 944 2519 
Q 1181 2784 1417 2907 
Q 1653 3031 1894 3031 
Q 2175 3031 2367 2936 
Q 2559 2841 2678 2681 
Q 2797 2522 2848 2308 
Q 2900 2094 2900 1794 
L 2900 78 
z
" transform="scale(0.015625)"/>
      </defs>
      <use xlink:href="#DejaVuSans-Oblique-5a" transform="translate(0 0.09375)"/>
      <use xlink:href="#DejaVuSans-Oblique-61" transform="translate(69.462891 -16.3125) scale(0.7)"/>
      <use xlink:href="#Calibri-20" transform="translate(115.092773 0.09375)"/>
      <use xlink:href="#Calibri-28" transform="translate(136.575195 0.09375)"/>
      <use xlink:href="#Calibri-6e" transform="translate(166.897461 0.09375)"/>
      <use xlink:href="#Calibri-6d" transform="translate(219.436523 0.09375)"/>
      <use xlink:href="#Calibri-29" transform="translate(299.319336 0.09375)"/>
     </g>
    </g>
   </g>
   <g id="patch_3">
    <path d="M 57.6 307.584 
L 57.6 41.472 
" style="fill: none; stroke: #000000; stroke-width: 0.8; stroke-linejoin: miter; stroke-linecap: square"/>
   </g>
   <g id="patch_4">
    <path d="M 343.296 307.584 
L 343.296 41.472 
" style="fill: none; stroke: #000000; stroke-width: 0.8; stroke-linejoin: miter; stroke-linecap: square"/>
   </g>
   <g id="patch_5">
    <path d="M 57.6 307.584 
L 343.296 307.584 
" style="fill: none; stroke: #000000; stroke-width: 0.8; stroke-linejoin: miter; stroke-linecap: square"/>
   </g>
   <g id="patch_6">
    <path d="M 57.6 41.472 
L 343.296 41.472 
" style="fill: none; stroke: #000000; stroke-width: 0.8; stroke-linejoin: miter; stroke-linecap: square"/>
   </g>
   <g id="text_22">
    <!-- $\lambda$ = 580 nm -->
    <g transform="translate(177.348 35.472) scale(0.1 -0.1)">
     <defs>
      <path id="DejaVuSans-Oblique-3bb" d="M 2350 4316 
L 3125 0 
L 2516 0 
L 2038 2588 
L 328 0 
L -281 0 
L 1903 3356 
L 1794 3975 
Q 1725 4369 1391 4369 
L 1091 4369 
L 1184 4863 
L 1550 4856 
Q 2253 4847 2350 4316 
z
" transform="scale(0.015625)"/>
      <path id="Calibri-3d" d="M 2891 2409 
Q 2891 2284 2855 2236 
Q 2819 2188 2772 2188 
L 409 2188 
Q 363 2188 328 2236 
Q 294 2284 294 2409 
Q 294 2522 325 2575 
Q 356 2628 409 2628 
L 2772 2628 
Q 2828 2628 2859 2575 
Q 2891 2522 2891 2409 
z
M 2891 1194 
Q 2891 1069 2855 1022 
Q 2819 975 2772 975 
L 409 975 
Q 363 975 328 1022 
Q 294 1069 294 1194 
Q 294 1309 325 1362 
Q 356 1416 409 1416 
L 2772 1416 
Q 2828 1416 2859 1362 
Q 2891 1309 2891 1194 
z
" transform="scale(0.015625)"/>
     </defs>
     <use xlink:href="#DejaVuSans-Oblique-3bb" transform="translate(0 0.015625)"/>
     <use xlink:href="#Calibri-20" transform="translate(59.179688 0.015625)"/>
     <use xlink:href="#Calibri-3d" transform="translate(81.787109 0.015625)"/>
     <use xlink:href="#Calibri-20" transform="translate(131.591797 0.015625)"/>
     <use xlink:href="#Calibri-35" transform="translate(154.199219 0.015625)"/>
     <use xlink:href="#Calibri-38" transform="translate(204.882812 0.015625)"/>
     <use xlink:href="#Calibri-30" transform="translate(255.566406 0.015625)"/>
     <use xlink:href="#Calibri-20" transform="translate(306.25 0.015625)"/>
     <use xlink:href="#Calibri-6e" transform="translate(328.857422 0.015625)"/>
     <use xlink:href="#Calibri-6d" transform="translate(381.396484 0.015625)"/>
    </g>
   </g>
  </g>
  <g id="axes_2">
   <g id="patch_7">
    <path d="M 361.152 307.584 
L 374.4576 307.584 
L 374.4576 41.472 
L 361.152 41.472 
z
" style="fill: #ffffff"/>
   </g>
   <g id="QuadMesh_1">
    <path d="M 361.152 307.584 
L 374.4576 307.584 
L 374.4576 280.9728 
L 361.152 280.9728 
L 361.152 307.584 
" clip-path="url(#p4d23ef03dd)" style="fill: #0000b6"/>
    <path d="M 361.152 280.9728 
L 374.4576 280.9728 
L 374.4576 254.3616 
L 361.152 254.3616 
L 361.152 280.9728 
" clip-path="url(#p4d23ef03dd)" style="fill: #0018ff"/>
    <path d="M 361.152 254.3616 
L 374.4576 254.3616 
L 374.4576 227.7504 
L 361.152 227.7504 
L 361.152 254.3616 
" clip-path="url(#p4d23ef03dd)" style="fill: #0080ff"/>
    <path d="M 361.152 227.7504 
L 374.4576 227.7504 
L 374.4576 201.1392 
L 361.152 201.1392 
L 361.152 227.7504 
" clip-path="url(#p4d23ef03dd)" style="fill: #00e4f8"/>
    <path d="M 361.152 201.1392 
L 374.4576 201.1392 
L 374.4576 174.528 
L 361.152 174.528 
L 361.152 201.1392 
" clip-path="url(#p4d23ef03dd)" style="fill: #53ffa4"/>
    <path d="M 361.152 174.528 
L 374.4576 174.528 
L 374.4576 147.9168 
L 361.152 147.9168 
L 361.152 174.528 
" clip-path="url(#p4d23ef03dd)" style="fill: #a4ff53"/>
    <path d="M 361.152 147.9168 
L 374.4576 147.9168 
L 374.4576 121.3056 
L 361.152 121.3056 
L 361.152 147.9168 
" clip-path="url(#p4d23ef03dd)" style="fill: #f8f500"/>
    <path d="M 361.152 121.3056 
L 374.4576 121.3056 
L 374.4576 94.6944 
L 361.152 94.6944 
L 361.152 121.3056 
" clip-path="url(#p4d23ef03dd)" style="fill: #ff9400"/>
    <path d="M 361.152 94.6944 
L 374.4576 94.6944 
L 374.4576 68.0832 
L 361.152 68.0832 
L 361.152 94.6944 
" clip-path="url(#p4d23ef03dd)" style="fill: #ff3800"/>
    <path d="M 361.152 68.0832 
L 374.4576 68.0832 
L 374.4576 41.472 
L 361.152 41.472 
L 361.152 68.0832 
" clip-path="url(#p4d23ef03dd)" style="fill: #b60000"/>
   </g>
   <g id="matplotlib.axis_3"/>
   <g id="matplotlib.axis_4">
    <g id="ytick_9">
     <g id="line2d_20">
      <defs>
       <path id="mea815cfe66" d="M 0 0 
L 3.5 0 
" style="stroke: #000000; stroke-width: 0.8"/>
      </defs>
      <g>
       <use xlink:href="#mea815cfe66" x="374.4576" y="307.584" style="stroke: #000000; stroke-width: 0.8"/>
      </g>
     </g>
     <g id="text_23">
      <!-- 0 -->
      <g transform="translate(381.4576 310.984781) scale(0.1 -0.1)">
       <use xlink:href="#Calibri-30"/>
      </g>
     </g>
    </g>
    <g id="ytick_10">
     <g id="line2d_21">
      <g>
       <use xlink:href="#mea815cfe66" x="374.4576" y="280.9728" style="stroke: #000000; stroke-width: 0.8"/>
      </g>
     </g>
     <g id="text_24">
      <!-- 0.1 -->
      <g transform="translate(381.4576 284.373581) scale(0.1 -0.1)">
       <use xlink:href="#Calibri-30"/>
       <use xlink:href="#Calibri-2e" x="50.683594"/>
       <use xlink:href="#Calibri-31" x="75.927734"/>
      </g>
     </g>
    </g>
    <g id="ytick_11">
     <g id="line2d_22">
      <g>
       <use xlink:href="#mea815cfe66" x="374.4576" y="254.3616" style="stroke: #000000; stroke-width: 0.8"/>
      </g>
     </g>
     <g id="text_25">
      <!-- 0.2 -->
      <g transform="translate(381.4576 257.762381) scale(0.1 -0.1)">
       <use xlink:href="#Calibri-30"/>
       <use xlink:href="#Calibri-2e" x="50.683594"/>
       <use xlink:href="#Calibri-32" x="75.927734"/>
      </g>
     </g>
    </g>
    <g id="ytick_12">
     <g id="line2d_23">
      <g>
       <use xlink:href="#mea815cfe66" x="374.4576" y="227.7504" style="stroke: #000000; stroke-width: 0.8"/>
      </g>
     </g>
     <g id="text_26">
      <!-- 0.3 -->
      <g transform="translate(381.4576 231.151181) scale(0.1 -0.1)">
       <use xlink:href="#Calibri-30"/>
       <use xlink:href="#Calibri-2e" x="50.683594"/>
       <use xlink:href="#Calibri-33" x="75.927734"/>
      </g>
     </g>
    </g>
    <g id="ytick_13">
     <g id="line2d_24">
      <g>
       <use xlink:href="#mea815cfe66" x="374.4576" y="201.1392" style="stroke: #000000; stroke-width: 0.8"/>
      </g>
     </g>
     <g id="text_27">
      <!-- 0.4 -->
      <g transform="translate(381.4576 204.539981) scale(0.1 -0.1)">
       <use xlink:href="#Calibri-30"/>
       <use xlink:href="#Calibri-2e" x="50.683594"/>
       <use xlink:href="#Calibri-34" x="75.927734"/>
      </g>
     </g>
    </g>
    <g id="ytick_14">
     <g id="line2d_25">
      <g>
       <use xlink:href="#mea815cfe66" x="374.4576" y="174.528" style="stroke: #000000; stroke-width: 0.8"/>
      </g>
     </g>
     <g id="text_28">
      <!-- 0.5 -->
      <g transform="translate(381.4576 177.928781) scale(0.1 -0.1)">
       <use xlink:href="#Calibri-30"/>
       <use xlink:href="#Calibri-2e" x="50.683594"/>
       <use xlink:href="#Calibri-35" x="75.927734"/>
      </g>
     </g>
    </g>
    <g id="ytick_15">
     <g id="line2d_26">
      <g>
       <use xlink:href="#mea815cfe66" x="374.4576" y="147.9168" style="stroke: #000000; stroke-width: 0.8"/>
      </g>
     </g>
     <g id="text_29">
      <!-- 0.6 -->
      <g transform="translate(381.4576 151.317581) scale(0.1 -0.1)">
       <use xlink:href="#Calibri-30"/>
       <use xlink:href="#Calibri-2e" x="50.683594"/>
       <use xlink:href="#Calibri-36" x="75.927734"/>
      </g>
     </g>
    </g>
    <g id="ytick_16">
     <g id="line2d_27">
      <g>
       <use xlink:href="#mea815cfe66" x="374.4576" y="121.3056" style="stroke: #000000; stroke-width: 0.8"/>
      </g>
     </g>
     <g id="text_30">
      <!-- 0.7 -->
      <g transform="translate(381.4576 124.706381) scale(0.1 -0.1)">
       <use xlink:href="#Calibri-30"/>
       <use xlink:href="#Calibri-2e" x="50.683594"/>
       <use xlink:href="#Calibri-37" x="75.927734"/>
      </g>
     </g>
    </g>
    <g id="ytick_17">
     <g id="line2d_28">
      <g>
       <use xlink:href="#mea815cfe66" x="374.4576" y="94.6944" style="stroke: #000000; stroke-width: 0.8"/>
      </g>
     </g>
     <g id="text_31">
      <!-- 0.8 -->
      <g transform="translate(381.4576 98.095181) scale(0.1 -0.1)">
       <use xlink:href="#Calibri-30"/>
       <use xlink:href="#Calibri-2e" x="50.683594"/>
       <use xlink:href="#Calibri-38" x="75.927734"/>
      </g>
     </g>
    </g>
    <g id="ytick_18">
     <g id="line2d_29">
      <g>
       <use xlink:href="#mea815cfe66" x="374.4576" y="68.0832" style="stroke: #000000; stroke-width: 0.8"/>
      </g>
     </g>
     <g id="text_32">
      <!-- 0.9 -->
      <g transform="translate(381.4576 71.483981) scale(0.1 -0.1)">
       <use xlink:href="#Calibri-30"/>
       <use xlink:href="#Calibri-2e" x="50.683594"/>
       <use xlink:href="#Calibri-39" x="75.927734"/>
      </g>
     </g>
    </g>
    <g id="ytick_19">
     <g id="line2d_30">
      <g>
       <use xlink:href="#mea815cfe66" x="374.4576" y="41.472" style="stroke: #000000; stroke-width: 0.8"/>
      </g>
     </g>
     <g id="text_33">
      <!-- 1.0 -->
      <g transform="translate(381.4576 44.872781) scale(0.1 -0.1)">
       <use xlink:href="#Calibri-31"/>
       <use xlink:href="#Calibri-2e" x="50.683594"/>
       <use xlink:href="#Calibri-30" x="75.927734"/>
      </g>
     </g>
    </g>
   </g>
   <g id="LineCollection_1"/>
   <g id="patch_8">
    <path d="M 361.152 307.584 
L 367.8048 307.584 
L 374.4576 307.584 
L 374.4576 41.472 
L 367.8048 41.472 
L 361.152 41.472 
L 361.152 307.584 
z
" style="fill: none; stroke: #000000; stroke-width: 0.8; stroke-linejoin: miter; stroke-linecap: square"/>
   </g>
   <g id="text_34">
    <!-- $\mathit{E}_{\mathrm{dis}}$/$\mathit{E}_{\mathrm{i}}$ -->
    <g transform="translate(353.2548 35.472) scale(0.1 -0.1)">
     <defs>
      <path id="DejaVuSans-Oblique-45" d="M 1081 4666 
L 4031 4666 
L 3928 4134 
L 1606 4134 
L 1338 2753 
L 3566 2753 
L 3463 2222 
L 1234 2222 
L 909 531 
L 3284 531 
L 3181 0 
L 172 0 
L 1081 4666 
z
" transform="scale(0.015625)"/>
      <path id="DejaVuSans-64" d="M 2906 2969 
L 2906 4863 
L 3481 4863 
L 3481 0 
L 2906 0 
L 2906 525 
Q 2725 213 2448 61 
Q 2172 -91 1784 -91 
Q 1150 -91 751 415 
Q 353 922 353 1747 
Q 353 2572 751 3078 
Q 1150 3584 1784 3584 
Q 2172 3584 2448 3432 
Q 2725 3281 2906 2969 
z
M 947 1747 
Q 947 1113 1208 752 
Q 1469 391 1925 391 
Q 2381 391 2643 752 
Q 2906 1113 2906 1747 
Q 2906 2381 2643 2742 
Q 2381 3103 1925 3103 
Q 1469 3103 1208 2742 
Q 947 2381 947 1747 
z
" transform="scale(0.015625)"/>
      <path id="DejaVuSans-69" d="M 603 3500 
L 1178 3500 
L 1178 0 
L 603 0 
L 603 3500 
z
M 603 4863 
L 1178 4863 
L 1178 4134 
L 603 4134 
L 603 4863 
z
" transform="scale(0.015625)"/>
      <path id="DejaVuSans-73" d="M 2834 3397 
L 2834 2853 
Q 2591 2978 2328 3040 
Q 2066 3103 1784 3103 
Q 1356 3103 1142 2972 
Q 928 2841 928 2578 
Q 928 2378 1081 2264 
Q 1234 2150 1697 2047 
L 1894 2003 
Q 2506 1872 2764 1633 
Q 3022 1394 3022 966 
Q 3022 478 2636 193 
Q 2250 -91 1575 -91 
Q 1294 -91 989 -36 
Q 684 19 347 128 
L 347 722 
Q 666 556 975 473 
Q 1284 391 1588 391 
Q 1994 391 2212 530 
Q 2431 669 2431 922 
Q 2431 1156 2273 1281 
Q 2116 1406 1581 1522 
L 1381 1569 
Q 847 1681 609 1914 
Q 372 2147 372 2553 
Q 372 3047 722 3315 
Q 1072 3584 1716 3584 
Q 2034 3584 2315 3537 
Q 2597 3491 2834 3397 
z
" transform="scale(0.015625)"/>
     </defs>
     <use xlink:href="#DejaVuSans-Oblique-45" transform="translate(0 0.09375)"/>
     <use xlink:href="#DejaVuSans-64" transform="translate(63.183594 -16.3125) scale(0.7)"/>
     <use xlink:href="#DejaVuSans-69" transform="translate(107.617188 -16.3125) scale(0.7)"/>
     <use xlink:href="#DejaVuSans-73" transform="translate(127.06543 -16.3125) scale(0.7)"/>
     <use xlink:href="#Calibri-2f" transform="translate(166.269531 0.09375)"/>
     <use xlink:href="#DejaVuSans-Oblique-45" transform="translate(204.892578 0.09375)"/>
     <use xlink:href="#DejaVuSans-69" transform="translate(268.076172 -16.3125) scale(0.7)"/>
    </g>
   </g>
  </g>
 </g>
 <defs>
  <clipPath id="p02946b05e4">
   <rect x="57.6" y="41.472" width="285.696" height="266.112"/>
  </clipPath>
  <clipPath id="p4d23ef03dd">
   <rect x="361.152" y="41.472" width="13.3056" height="266.112"/>
  </clipPath>
 </defs>
</svg>
