<?xml version="1.0" encoding="utf-8" standalone="no"?>
<!DOCTYPE svg PUBLIC "-//W3C//DTD SVG 1.1//EN"
  "http://www.w3.org/Graphics/SVG/1.1/DTD/svg11.dtd">
<svg xmlns:xlink="http://www.w3.org/1999/xlink" width="460.8pt" height="345.6pt" viewBox="0 0 460.8 345.6" xmlns="http://www.w3.org/2000/svg" version="1.1">
 <metadata>
  <rdf:RDF xmlns:dc="http://purl.org/dc/elements/1.1/" xmlns:cc="http://creativecommons.org/ns#" xmlns:rdf="http://www.w3.org/1999/02/22-rdf-syntax-ns#">
   <cc:Work>
    <dc:type rdf:resource="http://purl.org/dc/dcmitype/StillImage"/>
    <dc:date>2024-01-22T08:48:19.577466</dc:date>
    <dc:format>image/svg+xml</dc:format>
    <dc:creator>
     <cc:Agent>
      <dc:title>Matplotlib v3.7.1, https://matplotlib.org/</dc:title>
     </cc:Agent>
    </dc:creator>
   </cc:Work>
  </rdf:RDF>
 </metadata>
 <defs>
  <style type="text/css">*{stroke-linejoin: round; stroke-linecap: butt}</style>
 </defs>
 <g id="figure_1">
  <g id="patch_1">
   <path d="M 0 345.6 
L 460.8 345.6 
L 460.8 0 
L 0 0 
z
" style="fill: #ffffff"/>
  </g>
  <g id="axes_1">
   <g id="patch_2">
    <path d="M 57.6 307.584 
L 343.296 307.584 
L 343.296 41.472 
L 57.6 41.472 
z
" style="fill: #ffffff"/>
   </g>
   <g id="PathCollection_1">
    <path clip-path="url(#pdecd0528dc)" style="fill: #0000b6"/>
   </g>
   <g id="PathCollection_2">
    <path d="M 57.62857 54.294594 
L 58.050117 53.672943 
L 58.32541 53.256335 
L 59.303514 51.781353 
L 59.519847 51.4512 
L 60.412772 50.063903 
L 61.028309 49.09908 
L 61.050878 49.063768 
L 61.641854 48.1248 
L 61.773089 47.913813 
L 61.84198 47.801322 
L 62.245496 47.15052 
L 62.834755 46.184771 
L 63.671207 44.7984 
L 63.710753 44.731654 
L 63.748159 44.668004 
L 64.559516 43.297278 
L 65.057734 42.44628 
L 65.491544 41.693015 
L 65.618387 41.472 
L 65.24713 41.472 
L 63.723418 41.472 
L 62.199706 41.472 
L 60.675994 41.472 
L 59.152282 41.472 
L 57.62857 41.472 
L 57.62857 44.7984 
L 57.62857 48.1248 
L 57.62857 51.4512 
" clip-path="url(#pdecd0528dc)" style="fill: #0018ff"/>
   </g>
   <g id="PathCollection_3">
    <path d="M 65.618387 41.472 
L 65.491544 41.693015 
L 65.057734 42.44628 
L 64.559516 43.297278 
L 63.748159 44.668004 
L 63.710753 44.731654 
L 63.671207 44.7984 
L 62.834755 46.184771 
L 62.245496 47.15052 
L 61.84198 47.801322 
L 61.773089 47.913813 
L 61.641854 48.1248 
L 61.050878 49.063768 
L 61.028309 49.09908 
L 60.412772 50.063903 
L 59.519847 51.4512 
L 59.303514 51.781353 
L 58.32541 53.256335 
L 58.050117 53.672943 
L 57.62857 54.294594 
L 57.62857 54.7776 
L 57.62857 58.104 
L 57.62857 61.4304 
L 57.62857 64.7568 
L 57.62857 68.0832 
L 57.62857 71.4096 
L 57.62857 74.736 
L 57.62857 78.0624 
L 57.62857 81.3888 
L 57.62857 84.7152 
L 57.62857 88.0416 
L 57.62857 91.368 
L 57.62857 94.6944 
L 57.62857 98.0208 
L 57.62857 101.3472 
L 57.62857 104.6736 
L 57.62857 107.44472 
L 58.018989 107.14768 
L 58.122172 107.068507 
L 58.177417 107.02572 
L 59.687288 105.841568 
L 60.591697 105.11788 
L 60.738375 105.002378 
L 61.148884 104.6736 
L 61.914397 104.050745 
L 62.834853 103.287017 
L 63.376093 102.843042 
L 64.001554 102.32148 
L 64.064161 102.269284 
L 65.150573 101.3472 
L 65.200102 101.304675 
L 66.280383 100.37292 
L 66.31193 100.345354 
L 66.333417 100.326223 
L 67.083407 99.66816 
L 67.854891 98.980623 
L 68.481194 98.428252 
L 68.934608 98.0208 
L 69.687751 97.332928 
L 70.004508 97.039217 
L 70.630283 96.467106 
L 71.487782 95.66868 
L 71.94366 95.23848 
L 72.116038 95.077219 
L 72.518081 94.6944 
L 73.154782 94.083808 
L 73.42378 93.821222 
L 73.528274 93.72012 
L 74.865896 92.40823 
L 75.908115 91.368 
L 75.912307 91.363747 
L 75.914312 91.361683 
L 76.951353 90.308169 
L 78.201869 89.01588 
L 78.346571 88.864251 
L 79.12948 88.0416 
L 79.559155 87.584086 
L 79.749816 87.377477 
L 80.038771 87.06732 
L 81.054955 85.961102 
L 81.962019 84.95734 
L 82.038118 84.874139 
L 82.181589 84.7152 
L 83.072053 83.711808 
L 84.249958 82.36308 
L 84.407156 82.180469 
L 85.087444 81.3888 
L 85.732453 80.623208 
L 85.907987 80.41452 
L 87.034189 79.055904 
L 87.845159 78.0624 
L 88.053528 77.802663 
L 88.183102 77.639224 
L 88.97817 76.646991 
L 89.717545 75.71028 
L 90.124788 75.186565 
L 90.474877 74.736 
L 91.078645 73.94703 
L 91.218021 73.76172 
L 91.520386 73.360466 
L 92.195089 72.454987 
L 92.789368 71.661576 
L 92.975393 71.4096 
L 93.944219 70.073865 
L 94.633348 69.113318 
L 94.655508 69.082728 
L 94.673541 69.05748 
L 94.725239 68.983966 
L 95.361929 68.0832 
L 95.454312 67.951124 
L 95.500701 67.883657 
L 96.039685 67.10892 
L 96.494567 66.44476 
L 97.09281 65.559337 
L 97.331056 65.209924 
L 97.636829 64.7568 
L 98.306179 63.74687 
L 99.184007 62.40468 
L 99.427628 62.026161 
L 99.560653 61.822022 
L 99.811554 61.4304 
L 100.283052 60.68151 
L 100.426229 60.45612 
L 100.665945 60.072194 
L 101.6251 58.521227 
L 101.844977 58.166785 
L 101.883432 58.104 
L 102.990598 56.262866 
L 103.33993 55.667274 
L 103.33993 54.7776 
L 103.33993 51.4512 
L 103.33993 48.1248 
L 103.33993 44.7984 
L 103.33993 41.472 
L 101.816218 41.472 
L 100.292506 41.472 
L 98.768794 41.472 
L 97.245082 41.472 
L 95.72137 41.472 
L 94.197658 41.472 
L 92.673946 41.472 
L 91.150234 41.472 
L 89.626522 41.472 
L 88.10281 41.472 
L 86.579098 41.472 
L 85.055386 41.472 
L 83.531674 41.472 
L 82.007962 41.472 
L 80.48425 41.472 
L 78.960538 41.472 
L 77.436826 41.472 
L 75.913114 41.472 
L 74.389402 41.472 
L 72.86569 41.472 
L 71.341978 41.472 
L 69.818266 41.472 
L 68.294554 41.472 
L 66.770842 41.472 
" clip-path="url(#pdecd0528dc)" style="fill: #0080ff"/>
   </g>
   <g id="PathCollection_4">
    <path d="M 103.33993 55.667274 
L 102.990598 56.262866 
L 101.883432 58.104 
L 101.844977 58.166785 
L 101.6251 58.521227 
L 100.665945 60.072194 
L 100.426229 60.45612 
L 100.283052 60.68151 
L 99.811554 61.4304 
L 99.560653 61.822022 
L 99.427628 62.026161 
L 99.184007 62.40468 
L 98.306179 63.74687 
L 97.636829 64.7568 
L 97.331056 65.209924 
L 97.09281 65.559337 
L 96.494567 66.44476 
L 96.039685 67.10892 
L 95.500701 67.883657 
L 95.454312 67.951124 
L 95.361929 68.0832 
L 94.725239 68.983966 
L 94.673541 69.05748 
L 94.655508 69.082728 
L 94.633348 69.113318 
L 93.944219 70.073865 
L 92.975393 71.4096 
L 92.789368 71.661576 
L 92.195089 72.454987 
L 91.520386 73.360466 
L 91.218021 73.76172 
L 91.078645 73.94703 
L 90.474877 74.736 
L 90.124788 75.186565 
L 89.717545 75.71028 
L 88.97817 76.646991 
L 88.183102 77.639224 
L 88.053528 77.802663 
L 87.845159 78.0624 
L 87.034189 79.055904 
L 85.907987 80.41452 
L 85.732453 80.623208 
L 85.087444 81.3888 
L 84.407156 82.180469 
L 84.249958 82.36308 
L 83.072053 83.711808 
L 82.181589 84.7152 
L 82.038118 84.874139 
L 81.962019 84.95734 
L 81.054955 85.961102 
L 80.038771 87.06732 
L 79.749816 87.377477 
L 79.559155 87.584086 
L 79.12948 88.0416 
L 78.346571 88.864251 
L 78.201869 89.01588 
L 76.951353 90.308169 
L 75.914312 91.361683 
L 75.912307 91.363747 
L 75.908115 91.368 
L 74.865896 92.40823 
L 73.528274 93.72012 
L 73.42378 93.821222 
L 73.154782 94.083808 
L 72.518081 94.6944 
L 72.116038 95.077219 
L 71.94366 95.23848 
L 71.487782 95.66868 
L 70.630283 96.467106 
L 70.004508 97.039217 
L 69.687751 97.332928 
L 68.934608 98.0208 
L 68.481194 98.428252 
L 67.854891 98.980623 
L 67.083407 99.66816 
L 66.333417 100.326223 
L 66.31193 100.345354 
L 66.280383 100.37292 
L 65.200102 101.304675 
L 65.150573 101.3472 
L 64.064161 102.269284 
L 64.001554 102.32148 
L 63.376093 102.843042 
L 62.834853 103.287017 
L 61.914397 104.050745 
L 61.148884 104.6736 
L 60.738375 105.002378 
L 60.591697 105.11788 
L 59.687288 105.841568 
L 58.177417 107.02572 
L 58.122172 107.068507 
L 58.018989 107.14768 
L 57.62857 107.44472 
L 57.62857 108 
L 57.62857 111.3264 
L 57.62857 114.6528 
L 57.62857 117.9792 
L 57.62857 121.3056 
L 57.62857 124.632 
L 57.62857 127.9584 
L 57.62857 131.2848 
L 57.62857 134.6112 
L 57.62857 137.9376 
L 57.62857 141.264 
L 57.62857 144.5904 
L 57.62857 146.908116 
L 58.037234 146.744245 
L 58.197128 146.675586 
L 59.800031 146.004496 
L 60.46203 145.718083 
L 60.858349 145.551495 
L 61.982414 145.064768 
L 62.34657 144.911017 
L 63.081408 144.5904 
L 63.673708 144.32841 
L 63.782524 144.278883 
L 64.88156 143.792328 
L 65.806272 143.369742 
L 66.482034 143.068254 
L 67.114762 142.777784 
L 67.404907 142.648222 
L 68.294241 142.23828 
L 69.005507 141.906891 
L 70.36991 141.264 
L 70.865661 141.028433 
L 71.00605 140.960232 
L 72.394772 140.28972 
L 72.414904 140.279894 
L 72.421941 140.276354 
L 73.233921 139.878343 
L 73.580284 139.703976 
L 74.900643 139.053687 
L 75.786663 138.604052 
L 76.017867 138.489697 
L 77.104737 137.9376 
L 77.373404 137.799146 
L 77.540965 137.710255 
L 78.79389 137.059291 
L 79.164691 136.861622 
L 79.832327 136.514395 
L 81.559835 135.5895 
L 81.562204 135.588258 
L 81.567367 135.58548 
L 81.992159 135.35695 
L 83.348844 134.6112 
L 83.462156 134.548338 
L 83.827538 134.34366 
L 85.091154 133.63692 
L 85.461657 133.426033 
L 85.648053 133.317353 
L 87.123493 132.473263 
L 87.971978 131.974339 
L 88.207915 131.838754 
L 89.148951 131.2848 
L 89.523889 131.060743 
L 89.809426 130.885504 
L 90.944644 130.201253 
L 91.410333 129.913958 
L 91.908349 129.613435 
L 93.006801 128.93268 
L 93.446437 128.656937 
L 94.550617 127.9584 
L 95.235085 127.518669 
L 96.06015 126.98412 
L 96.628162 126.61161 
L 96.904777 126.425554 
L 97.509754 126.026943 
L 98.406414 125.423108 
L 98.962439 125.054746 
L 99.584607 124.632 
L 100.210539 124.199999 
L 100.399783 124.066601 
L 101.278937 123.459068 
L 102.869529 122.332527 
L 102.899649 122.311523 
L 103.33993 121.989342 
L 103.33993 121.3056 
L 103.33993 117.9792 
L 103.33993 114.6528 
L 103.33993 111.3264 
L 103.33993 108 
L 103.33993 104.6736 
L 103.33993 101.3472 
L 103.33993 98.0208 
L 103.33993 94.6944 
L 103.33993 91.368 
L 103.33993 88.0416 
L 103.33993 84.7152 
L 103.33993 81.3888 
L 103.33993 78.0624 
L 103.33993 74.736 
L 103.33993 71.4096 
L 103.33993 68.0832 
L 103.33993 64.7568 
L 103.33993 61.4304 
L 103.33993 58.104 
" clip-path="url(#pdecd0528dc)" style="fill: #00e4f8"/>
   </g>
   <g id="PathCollection_5">
    <path d="M 103.33993 121.989342 
L 102.899649 122.311523 
L 102.869529 122.332527 
L 101.278937 123.459068 
L 100.399783 124.066601 
L 100.210539 124.199999 
L 99.584607 124.632 
L 98.962439 125.054746 
L 98.406414 125.423108 
L 97.509754 126.026943 
L 96.904777 126.425554 
L 96.628162 126.61161 
L 96.06015 126.98412 
L 95.235085 127.518669 
L 94.550617 127.9584 
L 93.446437 128.656937 
L 93.006801 128.93268 
L 91.908349 129.613435 
L 91.410333 129.913958 
L 90.944644 130.201253 
L 89.809426 130.885504 
L 89.523889 131.060743 
L 89.148951 131.2848 
L 88.207915 131.838754 
L 87.971978 131.974339 
L 87.123493 132.473263 
L 85.648053 133.317353 
L 85.461657 133.426033 
L 85.091154 133.63692 
L 83.827538 134.34366 
L 83.462156 134.548338 
L 83.348844 134.6112 
L 81.992159 135.35695 
L 81.567367 135.58548 
L 81.562204 135.588258 
L 81.559835 135.5895 
L 79.832327 136.514395 
L 79.164691 136.861622 
L 78.79389 137.059291 
L 77.540965 137.710255 
L 77.373404 137.799146 
L 77.104737 137.9376 
L 76.017867 138.489697 
L 75.786663 138.604052 
L 74.900643 139.053687 
L 73.580284 139.703976 
L 73.233921 139.878343 
L 72.421941 140.276354 
L 72.414904 140.279894 
L 72.394772 140.28972 
L 71.00605 140.960232 
L 70.865661 141.028433 
L 70.36991 141.264 
L 69.005507 141.906891 
L 68.294241 142.23828 
L 67.404907 142.648222 
L 67.114762 142.777784 
L 66.482034 143.068254 
L 65.806272 143.369742 
L 64.88156 143.792328 
L 63.782524 144.278883 
L 63.673708 144.32841 
L 63.081408 144.5904 
L 62.34657 144.911017 
L 61.982414 145.064768 
L 60.858349 145.551495 
L 60.46203 145.718083 
L 59.800031 146.004496 
L 58.197128 146.675586 
L 58.037234 146.744245 
L 57.62857 146.908116 
L 57.62857 147.9168 
L 57.62857 151.2432 
L 57.62857 154.5696 
L 57.62857 157.896 
L 57.62857 161.2224 
L 57.62857 164.5488 
L 57.62857 167.8752 
L 57.62857 171.2016 
L 57.62857 174.528 
L 57.62857 177.8544 
L 57.62857 179.183522 
L 57.872356 179.139263 
L 58.63557 178.982427 
L 59.584406 178.797767 
L 60.534288 178.601251 
L 60.807572 178.547878 
L 61.994597 178.30217 
L 62.371013 178.228378 
L 63.705219 177.950316 
L 63.740307 177.943413 
L 64.167179 177.8544 
L 65.151995 177.646712 
L 65.363959 177.59935 
L 66.669832 177.322032 
L 66.880832 177.2747 
L 67.927168 177.052365 
L 68.746434 176.867904 
L 69.596573 176.685984 
L 70.059827 176.581266 
L 70.696365 176.44497 
L 72.137359 176.118012 
L 72.520553 176.035376 
L 73.242011 175.871021 
L 73.459395 175.824112 
L 74.866758 175.50228 
L 75.344861 175.391989 
L 76.00445 175.236394 
L 76.878985 175.032436 
L 77.766451 174.826069 
L 79.019922 174.528 
L 80.006766 174.291856 
L 80.176694 174.249888 
L 81.021341 174.042327 
L 81.90319 173.82625 
L 82.575424 173.663297 
L 83.017672 173.55372 
L 84.445555 173.196685 
L 84.68902 173.132509 
L 85.388434 172.956911 
L 85.828191 172.840897 
L 87.174497 172.501409 
L 87.892399 172.31056 
L 88.29393 172.20889 
L 89.28603 171.944923 
L 89.895957 171.789802 
L 91.099881 171.466981 
L 91.195932 171.442451 
L 92.09337 171.2016 
L 92.609666 171.061271 
L 92.757593 171.01899 
L 94.093566 170.652991 
L 94.313745 170.589769 
L 95.315306 170.315127 
L 96.25104 170.045283 
L 96.987082 169.841828 
L 97.533096 169.683635 
L 98.012682 169.550941 
L 99.757474 169.043222 
L 99.876672 169.009974 
L 100.425617 168.84948 
L 100.892248 168.710714 
L 102.283802 168.298021 
L 103.285343 167.994367 
L 103.33993 167.977432 
L 103.33993 167.8752 
L 103.33993 164.5488 
L 103.33993 161.2224 
L 103.33993 157.896 
L 103.33993 154.5696 
L 103.33993 151.2432 
L 103.33993 147.9168 
L 103.33993 144.5904 
L 103.33993 141.264 
L 103.33993 137.9376 
L 103.33993 134.6112 
L 103.33993 131.2848 
L 103.33993 127.9584 
L 103.33993 124.632 
" clip-path="url(#pdecd0528dc)" style="fill: #53ffa4"/>
   </g>
   <g id="PathCollection_6">
    <path d="M 103.33993 167.977432 
L 103.285343 167.994367 
L 102.283802 168.298021 
L 100.892248 168.710714 
L 100.425617 168.84948 
L 99.876672 169.009974 
L 99.757474 169.043222 
L 98.012682 169.550941 
L 97.533096 169.683635 
L 96.987082 169.841828 
L 96.25104 170.045283 
L 95.315306 170.315127 
L 94.313745 170.589769 
L 94.093566 170.652991 
L 92.757593 171.01899 
L 92.609666 171.061271 
L 92.09337 171.2016 
L 91.195932 171.442451 
L 91.099881 171.466981 
L 89.895957 171.789802 
L 89.28603 171.944923 
L 88.29393 172.20889 
L 87.892399 172.31056 
L 87.174497 172.501409 
L 85.828191 172.840897 
L 85.388434 172.956911 
L 84.68902 173.132509 
L 84.445555 173.196685 
L 83.017672 173.55372 
L 82.575424 173.663297 
L 81.90319 173.82625 
L 81.021341 174.042327 
L 80.176694 174.249888 
L 80.006766 174.291856 
L 79.019922 174.528 
L 77.766451 174.826069 
L 76.878985 175.032436 
L 76.00445 175.236394 
L 75.344861 175.391989 
L 74.866758 175.50228 
L 73.459395 175.824112 
L 73.242011 175.871021 
L 72.520553 176.035376 
L 72.137359 176.118012 
L 70.696365 176.44497 
L 70.059827 176.581266 
L 69.596573 176.685984 
L 68.746434 176.867904 
L 67.927168 177.052365 
L 66.880832 177.2747 
L 66.669832 177.322032 
L 65.363959 177.59935 
L 65.151995 177.646712 
L 64.167179 177.8544 
L 63.740307 177.943413 
L 63.705219 177.950316 
L 62.371013 178.228378 
L 61.994597 178.30217 
L 60.807572 178.547878 
L 60.534288 178.601251 
L 59.584406 178.797767 
L 58.63557 178.982427 
L 57.872356 179.139263 
L 57.62857 179.183522 
L 57.62857 181.1808 
L 57.62857 184.5072 
L 57.62857 187.8336 
L 57.62857 191.16 
L 57.62857 194.4864 
L 57.62857 197.8128 
L 57.62857 201.1392 
L 57.62857 204.4656 
L 57.62857 207.26916 
L 57.873194 207.257962 
L 58.525598 207.225311 
L 59.859354 207.152619 
L 60.81052 207.104965 
L 61.403868 207.072352 
L 63.097904 206.979791 
L 63.558125 206.956687 
L 64.279424 206.916938 
L 66.090664 206.81772 
L 66.318797 206.805146 
L 66.327046 206.804601 
L 67.20544 206.756126 
L 67.246585 206.75341 
L 69.290776 206.640442 
L 69.40708 206.63273 
L 70.220906 206.587696 
L 70.374579 206.577518 
L 72.261481 206.472959 
L 72.487675 206.457904 
L 73.235828 206.416392 
L 73.503976 206.398564 
L 75.230873 206.302608 
L 75.568849 206.280028 
L 76.250186 206.242119 
L 76.63482 206.21645 
L 78.19891 206.129299 
L 78.65062 206.099005 
L 79.263962 206.064783 
L 79.76716 206.031072 
L 81.165548 205.952935 
L 81.733008 205.914729 
L 82.277139 205.884283 
L 82.901044 205.842322 
L 84.130739 205.773414 
L 84.816033 205.727092 
L 85.289695 205.700513 
L 86.036525 205.650086 
L 87.094437 205.590633 
L 87.899718 205.535981 
L 88.301609 205.513363 
L 89.173657 205.454244 
L 90.056591 205.404479 
L 90.984085 205.341276 
L 91.312861 205.322719 
L 92.312498 205.254673 
L 93.017146 205.214838 
L 94.069158 205.142853 
L 94.323426 205.128458 
L 95.453108 205.05124 
L 95.976049 205.021588 
L 97.15496 204.940579 
L 97.333282 204.930453 
L 98.595549 204.843808 
L 98.93324 204.824602 
L 100.24152 204.734317 
L 100.342401 204.728571 
L 101.739889 204.632233 
L 101.888659 204.623745 
L 103.328863 204.523923 
L 103.33993 204.52317 
L 103.33993 204.4656 
L 103.33993 201.1392 
L 103.33993 197.8128 
L 103.33993 194.4864 
L 103.33993 191.16 
L 103.33993 187.8336 
L 103.33993 184.5072 
L 103.33993 181.1808 
L 103.33993 177.8544 
L 103.33993 174.528 
L 103.33993 171.2016 
" clip-path="url(#pdecd0528dc)" style="fill: #a4ff53"/>
   </g>
   <g id="PathCollection_7">
    <path d="M 103.33993 204.52317 
L 103.328863 204.523923 
L 101.888659 204.623745 
L 101.739889 204.632233 
L 100.342401 204.728571 
L 100.24152 204.734317 
L 98.93324 204.824602 
L 98.595549 204.843808 
L 97.333282 204.930453 
L 97.15496 204.940579 
L 95.976049 205.021588 
L 95.453108 205.05124 
L 94.323426 205.128458 
L 94.069158 205.142853 
L 93.017146 205.214838 
L 92.312498 205.254673 
L 91.312861 205.322719 
L 90.984085 205.341276 
L 90.056591 205.404479 
L 89.173657 205.454244 
L 88.301609 205.513363 
L 87.899718 205.535981 
L 87.094437 205.590633 
L 86.036525 205.650086 
L 85.289695 205.700513 
L 84.816033 205.727092 
L 84.130739 205.773414 
L 82.901044 205.842322 
L 82.277139 205.884283 
L 81.733008 205.914729 
L 81.165548 205.952935 
L 79.76716 206.031072 
L 79.263962 206.064783 
L 78.65062 206.099005 
L 78.19891 206.129299 
L 76.63482 206.21645 
L 76.250186 206.242119 
L 75.568849 206.280028 
L 75.230873 206.302608 
L 73.503976 206.398564 
L 73.235828 206.416392 
L 72.487675 206.457904 
L 72.261481 206.472959 
L 70.374579 206.577518 
L 70.220906 206.587696 
L 69.40708 206.63273 
L 69.290776 206.640442 
L 67.246585 206.75341 
L 67.20544 206.756126 
L 66.327046 206.804601 
L 66.318797 206.805146 
L 66.090664 206.81772 
L 64.279424 206.916938 
L 63.558125 206.956687 
L 63.097904 206.979791 
L 61.403868 207.072352 
L 60.81052 207.104965 
L 59.859354 207.152619 
L 58.525598 207.225311 
L 57.873194 207.257962 
L 57.62857 207.26916 
L 57.62857 207.792 
L 57.62857 211.1184 
L 57.62857 214.4448 
L 57.62857 217.7712 
L 57.62857 221.0976 
L 57.62857 224.424 
L 57.62857 227.7504 
L 57.62857 231.0768 
L 57.62857 232.909537 
L 57.980462 232.931429 
L 58.295748 232.946689 
L 60.055498 233.048603 
L 60.299605 233.060537 
L 61.060807 233.104938 
L 61.266064 233.115024 
L 63.184989 233.227763 
L 63.314084 233.234171 
L 64.142048 233.283167 
L 64.234357 233.287773 
L 66.316759 233.411897 
L 66.327682 233.412447 
L 66.602045 233.42892 
L 67.260996 233.46859 
L 69.198956 233.58538 
L 69.866719 233.625671 
L 70.529601 233.668596 
L 72.051445 233.761653 
L 72.574447 233.793671 
L 73.804714 233.874487 
L 74.899 233.942388 
L 75.274054 233.965687 
L 77.08658 234.086485 
L 77.741465 234.127725 
L 77.965301 234.141837 
L 80.375457 234.304823 
L 80.578677 234.317812 
L 80.647942 234.322245 
L 81.82761 234.4032 
L 83.325149 234.505339 
L 83.411744 234.511648 
L 83.672646 234.530676 
L 83.809651 234.540676 
L 86.240316 234.709549 
L 86.97827 234.764158 
L 88.658061 234.882161 
L 89.063235 234.91256 
L 90.291839 235.004823 
L 91.310576 235.077467 
L 91.880316 235.120852 
L 93.613674 235.252964 
L 93.953414 235.277558 
L 94.691363 235.334599 
L 95.245618 235.37748 
L 96.745866 235.493033 
L 96.821988 235.499707 
L 97.655897 235.56442 
L 97.782088 235.575534 
L 99.687267 235.72449 
L 99.915921 235.744832 
L 100.657998 235.803291 
L 100.945614 235.828995 
L 102.625733 235.962356 
L 103.011221 235.997161 
L 103.33993 236.021078 
L 103.33993 234.4032 
L 103.33993 231.0768 
L 103.33993 227.7504 
L 103.33993 224.424 
L 103.33993 221.0976 
L 103.33993 217.7712 
L 103.33993 214.4448 
L 103.33993 211.1184 
L 103.33993 207.792 
" clip-path="url(#pdecd0528dc)" style="fill: #f8f500"/>
   </g>
   <g id="PathCollection_8">
    <path d="M 103.33993 236.021078 
L 103.011221 235.997161 
L 102.625733 235.962356 
L 100.945614 235.828995 
L 100.657998 235.803291 
L 99.915921 235.744832 
L 99.687267 235.72449 
L 97.782088 235.575534 
L 97.655897 235.56442 
L 96.821988 235.499707 
L 96.745866 235.493033 
L 95.245618 235.37748 
L 94.691363 235.334599 
L 93.953414 235.277558 
L 93.613674 235.252964 
L 91.880316 235.120852 
L 91.310576 235.077467 
L 90.291839 235.004823 
L 89.063235 234.91256 
L 88.658061 234.882161 
L 86.97827 234.764158 
L 86.240316 234.709549 
L 83.809651 234.540676 
L 83.672646 234.530676 
L 83.411744 234.511648 
L 83.325149 234.505339 
L 81.82761 234.4032 
L 80.647942 234.322245 
L 80.578677 234.317812 
L 80.375457 234.304823 
L 77.965301 234.141837 
L 77.741465 234.127725 
L 77.08658 234.086485 
L 75.274054 233.965687 
L 74.899 233.942388 
L 73.804714 233.874487 
L 72.574447 233.793671 
L 72.051445 233.761653 
L 70.529601 233.668596 
L 69.866719 233.625671 
L 69.198956 233.58538 
L 67.260996 233.46859 
L 66.602045 233.42892 
L 66.327682 233.412447 
L 66.316759 233.411897 
L 64.234357 233.287773 
L 64.142048 233.283167 
L 63.314084 233.234171 
L 63.184989 233.227763 
L 61.266064 233.115024 
L 61.060807 233.104938 
L 60.299605 233.060537 
L 60.055498 233.048603 
L 58.295748 232.946689 
L 57.980462 232.931429 
L 57.62857 232.909537 
L 57.62857 234.4032 
L 57.62857 237.7296 
L 57.62857 241.056 
L 57.62857 244.3824 
L 57.62857 247.7088 
L 57.62857 251.0352 
L 57.62857 254.3616 
L 57.62857 257.405465 
L 57.680848 257.412469 
L 59.119522 257.616482 
L 59.181232 257.624798 
L 59.623696 257.688 
L 60.648219 257.834387 
L 60.705402 257.842994 
L 62.041016 258.034433 
L 62.382029 258.086028 
L 63.614147 258.263903 
L 63.839182 258.298129 
L 64.897445 258.451392 
L 65.649484 258.566376 
L 66.578468 258.701896 
L 66.974773 258.76281 
L 67.750234 258.876299 
L 68.921801 259.057338 
L 69.541127 259.148644 
L 70.112239 259.237369 
L 70.599266 259.309405 
L 72.199157 259.559301 
L 72.50207 259.604438 
L 73.251644 259.722153 
L 73.444423 259.750974 
L 75.275606 260.04012 
L 75.438411 260.065817 
L 75.557827 260.085124 
L 76.5915 260.250002 
L 78.028579 260.479298 
L 78.399183 260.538458 
L 80.303078 260.850572 
L 80.610568 260.900174 
L 80.689467 260.912908 
L 81.301752 261.0144 
L 82.973337 261.29053 
L 83.186365 261.326651 
L 84.036468 261.470868 
L 85.247213 261.673096 
L 85.754477 261.760076 
L 87.087007 261.98868 
L 87.615057 262.079208 
L 87.675775 262.090138 
L 88.502793 262.232711 
L 88.675138 262.263845 
L 90.437922 262.569441 
L 90.827602 262.640389 
L 91.452204 262.749282 
L 91.98993 262.847533 
L 93.256259 263.069557 
L 93.981809 263.203181 
L 94.399531 263.27684 
L 95.311192 263.445345 
L 96.069911 263.579902 
L 97.138488 263.779004 
L 97.344696 263.815787 
L 98.639189 264.057862 
L 98.878713 264.100836 
L 100.151506 264.3408 
L 100.287644 264.366422 
L 100.297744 264.368409 
L 101.683658 264.63019 
L 101.975209 264.687891 
L 103.228783 264.926592 
L 103.33993 264.94851 
L 103.33993 264.3408 
L 103.33993 261.0144 
L 103.33993 257.688 
L 103.33993 254.3616 
L 103.33993 251.0352 
L 103.33993 247.7088 
L 103.33993 244.3824 
L 103.33993 241.056 
L 103.33993 237.7296 
" clip-path="url(#pdecd0528dc)" style="fill: #ff9400"/>
   </g>
   <g id="PathCollection_9">
    <path d="M 103.33993 264.94851 
L 103.228783 264.926592 
L 101.975209 264.687891 
L 101.683658 264.63019 
L 100.297744 264.368409 
L 100.287644 264.366422 
L 100.151506 264.3408 
L 98.878713 264.100836 
L 98.639189 264.057862 
L 97.344696 263.815787 
L 97.138488 263.779004 
L 96.069911 263.579902 
L 95.311192 263.445345 
L 94.399531 263.27684 
L 93.981809 263.203181 
L 93.256259 263.069557 
L 91.98993 262.847533 
L 91.452204 262.749282 
L 90.827602 262.640389 
L 90.437922 262.569441 
L 88.675138 262.263845 
L 88.502793 262.232711 
L 87.675775 262.090138 
L 87.615057 262.079208 
L 87.087007 261.98868 
L 85.754477 261.760076 
L 85.247213 261.673096 
L 84.036468 261.470868 
L 83.186365 261.326651 
L 82.973337 261.29053 
L 81.301752 261.0144 
L 80.689467 260.912908 
L 80.610568 260.900174 
L 80.303078 260.850572 
L 78.399183 260.538458 
L 78.028579 260.479298 
L 76.5915 260.250002 
L 75.557827 260.085124 
L 75.438411 260.065817 
L 75.275606 260.04012 
L 73.444423 259.750974 
L 73.251644 259.722153 
L 72.50207 259.604438 
L 72.199157 259.559301 
L 70.599266 259.309405 
L 70.112239 259.237369 
L 69.541127 259.148644 
L 68.921801 259.057338 
L 67.750234 258.876299 
L 66.974773 258.76281 
L 66.578468 258.701896 
L 65.649484 258.566376 
L 64.897445 258.451392 
L 63.839182 258.298129 
L 63.614147 258.263903 
L 62.382029 258.086028 
L 62.041016 258.034433 
L 60.705402 257.842994 
L 60.648219 257.834387 
L 59.623696 257.688 
L 59.181232 257.624798 
L 59.119522 257.616482 
L 57.680848 257.412469 
L 57.62857 257.405465 
L 57.62857 257.688 
L 57.62857 261.0144 
L 57.62857 264.3408 
L 57.62857 267.6672 
L 57.62857 270.9936 
L 57.62857 274.32 
L 57.62857 277.6464 
L 57.62857 280.9728 
L 57.62857 282.065618 
L 58.036447 282.149502 
L 58.182217 282.181462 
L 59.948369 282.561269 
L 60.363618 282.652844 
L 60.963772 282.782478 
L 61.565977 282.915713 
L 62.718862 283.165835 
L 63.543184 283.349291 
L 63.889337 283.424729 
L 64.955621 283.662811 
L 65.485505 283.778805 
L 66.724927 284.057209 
L 66.813078 284.076594 
L 67.800825 284.2992 
L 68.248066 284.400688 
L 68.35212 284.424874 
L 69.734553 284.740402 
L 69.90974 284.78131 
L 71.006139 285.032365 
L 71.758695 285.208931 
L 72.653954 285.415143 
L 73.097253 285.51964 
L 73.760184 285.672838 
L 75.171775 286.007192 
L 75.571415 286.100102 
L 76.287131 286.270436 
L 76.51005 286.322433 
L 77.885239 286.65132 
L 78.382252 286.770684 
L 79.116985 286.949407 
L 79.963076 287.154321 
L 80.785035 287.35361 
L 81.892422 287.6256 
L 82.986992 287.894977 
L 83.180457 287.943193 
L 84.1509 288.185545 
L 85.013482 288.399889 
L 85.568383 288.539554 
L 85.807572 288.59988 
L 87.464357 289.0194 
L 87.75017 289.093433 
L 88.422966 289.264632 
L 88.911811 289.391722 
L 90.191366 289.718894 
L 90.954136 289.918477 
L 91.328098 290.014575 
L 92.369869 290.288174 
L 92.913693 290.428609 
L 94.160908 290.758313 
L 94.230958 290.776494 
L 94.892376 290.952 
L 95.631097 291.149073 
L 95.837414 291.205336 
L 97.131112 291.552669 
L 97.371556 291.618574 
L 98.343487 291.880483 
L 99.316977 292.148733 
L 100.028809 292.341801 
L 100.585458 292.495989 
L 101.050923 292.622707 
L 102.805313 293.111285 
L 102.924058 293.143827 
L 103.33993 293.262531 
L 103.33993 290.952 
L 103.33993 287.6256 
L 103.33993 284.2992 
L 103.33993 280.9728 
L 103.33993 277.6464 
L 103.33993 274.32 
L 103.33993 270.9936 
L 103.33993 267.6672 
" clip-path="url(#pdecd0528dc)" style="fill: #ff3800"/>
   </g>
   <g id="PathCollection_10">
    <path d="M 103.33993 293.262531 
L 102.924058 293.143827 
L 102.805313 293.111285 
L 101.050923 292.622707 
L 100.585458 292.495989 
L 100.028809 292.341801 
L 99.316977 292.148733 
L 98.343487 291.880483 
L 97.371556 291.618574 
L 97.131112 291.552669 
L 95.837414 291.205336 
L 95.631097 291.149073 
L 94.892376 290.952 
L 94.230958 290.776494 
L 94.160908 290.758313 
L 92.913693 290.428609 
L 92.369869 290.288174 
L 91.328098 290.014575 
L 90.954136 289.918477 
L 90.191366 289.718894 
L 88.911811 289.391722 
L 88.422966 289.264632 
L 87.75017 289.093433 
L 87.464357 289.0194 
L 85.807572 288.59988 
L 85.568383 288.539554 
L 85.013482 288.399889 
L 84.1509 288.185545 
L 83.180457 287.943193 
L 82.986992 287.894977 
L 81.892422 287.6256 
L 80.785035 287.35361 
L 79.963076 287.154321 
L 79.116985 286.949407 
L 78.382252 286.770684 
L 77.885239 286.65132 
L 76.51005 286.322433 
L 76.287131 286.270436 
L 75.571415 286.100102 
L 75.171775 286.007192 
L 73.760184 285.672838 
L 73.097253 285.51964 
L 72.653954 285.415143 
L 71.758695 285.208931 
L 71.006139 285.032365 
L 69.90974 284.78131 
L 69.734553 284.740402 
L 68.35212 284.424874 
L 68.248066 284.400688 
L 67.800825 284.2992 
L 66.813078 284.076594 
L 66.724927 284.057209 
L 65.485505 283.778805 
L 64.955621 283.662811 
L 63.889337 283.424729 
L 63.543184 283.349291 
L 62.718862 283.165835 
L 61.565977 282.915713 
L 60.963772 282.782478 
L 60.363618 282.652844 
L 59.948369 282.561269 
L 58.182217 282.181462 
L 58.036447 282.149502 
L 57.62857 282.065618 
L 57.62857 284.2992 
L 57.62857 287.6256 
L 57.62857 290.952 
L 57.62857 294.2784 
L 57.62857 297.6048 
L 57.62857 300.9312 
L 57.62857 304.2576 
L 57.62857 307.584 
L 59.152282 307.584 
L 60.675994 307.584 
L 62.199706 307.584 
L 63.723418 307.584 
L 65.24713 307.584 
L 66.770842 307.584 
L 68.294554 307.584 
L 69.818266 307.584 
L 71.341978 307.584 
L 72.86569 307.584 
L 74.389402 307.584 
L 75.913114 307.584 
L 77.436826 307.584 
L 78.960538 307.584 
L 80.48425 307.584 
L 82.007962 307.584 
L 83.531674 307.584 
L 85.055386 307.584 
L 86.579098 307.584 
L 88.10281 307.584 
L 89.626522 307.584 
L 91.150234 307.584 
L 92.673946 307.584 
L 94.197658 307.584 
L 95.72137 307.584 
L 97.245082 307.584 
L 98.768794 307.584 
L 100.292506 307.584 
L 101.816218 307.584 
L 103.33993 307.584 
L 103.33993 304.2576 
L 103.33993 300.9312 
L 103.33993 297.6048 
L 103.33993 294.2784 
" clip-path="url(#pdecd0528dc)" style="fill: #b60000"/>
   </g>
   <g id="PathCollection_11">
    <path clip-path="url(#pdecd0528dc)" style="fill: #0000b6"/>
   </g>
   <g id="PathCollection_12">
    <path clip-path="url(#pdecd0528dc)" style="fill: #0018ff"/>
   </g>
   <g id="PathCollection_13">
    <path d="M 100.4544 60.377623 
L 100.901 59.702196 
L 101.210464 59.2128 
L 102.695471 56.756977 
L 102.808527 56.570375 
L 106.396252 50.3424 
L 107.199733 48.863707 
L 109.734032 44.07008 
L 110.55168 42.380973 
L 111.000653 41.472 
L 108.54912 41.472 
L 100.4544 41.472 
L 100.4544 50.3424 
L 100.4544 59.2128 
" clip-path="url(#pdecd0528dc)" style="fill: #0080ff"/>
   </g>
   <g id="PathCollection_14">
    <path d="M 111.000653 41.472 
L 110.55168 42.380973 
L 109.734032 44.07008 
L 107.199733 48.863707 
L 106.396252 50.3424 
L 102.808527 56.570375 
L 102.695471 56.756977 
L 101.210464 59.2128 
L 100.901 59.702196 
L 100.4544 60.377623 
L 100.4544 68.0832 
L 100.4544 76.9536 
L 100.4544 85.824 
L 100.4544 94.6944 
L 100.4544 103.5648 
L 100.4544 112.4352 
L 100.4544 121.3056 
L 100.4544 123.97921 
L 101.268623 123.459672 
L 104.31303 121.3056 
L 106.84088 119.433667 
L 112.393283 115.03328 
L 113.055971 114.480885 
L 115.532334 112.4352 
L 117.539793 110.648111 
L 118.371225 109.83712 
L 118.848166 109.396469 
L 123.614509 104.796564 
L 124.813679 103.647118 
L 124.894521 103.5648 
L 130.544959 97.510917 
L 130.740872 97.29248 
L 131.594577 96.396401 
L 133.082923 94.6944 
L 135.117148 92.117923 
L 135.135262 92.09632 
L 135.182025 92.037739 
L 139.978485 85.824 
L 140.400785 85.246265 
L 144.378482 79.55168 
L 144.895528 78.754484 
L 145.394841 78.06249 
L 146.12842 76.9536 
L 147.552177 74.57903 
L 147.673619 74.35552 
L 149.949064 70.533897 
L 151.371904 68.0832 
L 153.525076 64.146596 
L 154.757854 61.81088 
L 155.699177 59.856558 
L 156.04891 59.2128 
L 156.23332 58.811493 
L 157.337658 56.61472 
L 159.175781 52.597982 
L 160.17777 50.3424 
L 162.743922 44.176757 
L 162.790138 44.07008 
L 162.79782 44.050357 
L 163.834602 41.472 
L 157.11744 41.472 
L 149.02272 41.472 
L 140.928 41.472 
L 132.83328 41.472 
L 124.73856 41.472 
L 116.64384 41.472 
" clip-path="url(#pdecd0528dc)" style="fill: #00e4f8"/>
   </g>
   <g id="PathCollection_15">
    <path d="M 163.834602 41.472 
L 162.79782 44.050357 
L 162.790138 44.07008 
L 162.743922 44.176757 
L 160.17777 50.3424 
L 159.175781 52.597982 
L 157.337658 56.61472 
L 156.23332 58.811493 
L 156.04891 59.2128 
L 155.699177 59.856558 
L 154.757854 61.81088 
L 153.525076 64.146596 
L 151.371904 68.0832 
L 149.949064 70.533897 
L 147.673619 74.35552 
L 147.552177 74.57903 
L 146.12842 76.9536 
L 145.394841 78.06249 
L 144.895528 78.754484 
L 144.378482 79.55168 
L 140.400785 85.246265 
L 139.978485 85.824 
L 135.182025 92.037739 
L 135.135262 92.09632 
L 135.117148 92.117923 
L 133.082923 94.6944 
L 131.594577 96.396401 
L 130.740872 97.29248 
L 130.544959 97.510917 
L 124.894521 103.5648 
L 124.813679 103.647118 
L 123.614509 104.796564 
L 118.848166 109.396469 
L 118.371225 109.83712 
L 117.539793 110.648111 
L 115.532334 112.4352 
L 113.055971 114.480885 
L 112.393283 115.03328 
L 106.84088 119.433667 
L 104.31303 121.3056 
L 101.268623 123.459672 
L 100.4544 123.97921 
L 100.4544 130.176 
L 100.4544 139.0464 
L 100.4544 147.9168 
L 100.4544 156.7872 
L 100.4544 165.6576 
L 100.4544 168.791409 
L 102.738767 168.160867 
L 103.710585 167.853839 
L 109.45905 166.070622 
L 109.800959 165.968368 
L 110.732397 165.6576 
L 116.682237 163.657623 
L 118.275535 163.05952 
L 118.92563 162.823804 
L 119.405789 162.630986 
L 127.359121 159.658877 
L 132.580466 157.456034 
L 133.022023 157.28653 
L 134.196108 156.7872 
L 138.98878 154.662154 
L 146.063485 151.159605 
L 146.770443 150.828675 
L 147.382347 150.51488 
L 148.72848 149.853264 
L 152.278388 147.9168 
L 153.770894 147.086022 
L 154.411571 146.688591 
L 156.743097 145.31872 
L 160.649881 142.917339 
L 164.813303 140.101599 
L 165.456604 139.693092 
L 166.401596 139.0464 
L 170.573788 136.051408 
L 174.75197 132.77408 
L 176.26811 131.520119 
L 176.8644 131.059152 
L 177.891118 130.176 
L 180.408127 127.919862 
L 180.748163 127.57792 
L 182.980823 125.483523 
L 187.189133 121.3056 
L 188.369337 120.070624 
L 192.845145 115.03328 
L 193.496188 114.250763 
L 194.107191 113.579846 
L 195.042682 112.4352 
L 196.736609 110.21358 
L 196.990932 109.83712 
L 198.9587 107.183022 
L 201.526651 103.5648 
L 203.287089 100.936276 
L 205.584401 97.29248 
L 206.798673 95.199558 
L 206.927754 95.002724 
L 207.108515 94.6944 
L 207.309429 94.291325 
L 207.55341 93.846663 
L 208.590925 92.09632 
L 209.64351 90.161003 
L 211.879936 85.824 
L 212.946888 83.618685 
L 214.855937 79.55168 
L 215.006415 79.267446 
L 216.105026 76.9536 
L 216.967769 74.726089 
L 217.12706 74.35552 
L 217.838445 72.506778 
L 219.633294 68.0832 
L 220.290654 66.346814 
L 221.946344 61.81088 
L 222.665548 59.571543 
L 222.798068 59.2128 
L 222.93261 58.732835 
L 223.678405 56.61472 
L 224.670134 53.40516 
L 225.589632 50.3424 
L 227.214531 44.491425 
L 227.340667 44.07008 
L 227.36767 43.965064 
L 228.049313 41.472 
L 221.8752 41.472 
L 213.78048 41.472 
L 205.68576 41.472 
L 197.59104 41.472 
L 189.49632 41.472 
L 181.4016 41.472 
L 173.30688 41.472 
L 165.21216 41.472 
" clip-path="url(#pdecd0528dc)" style="fill: #53ffa4"/>
   </g>
   <g id="PathCollection_16">
    <path d="M 228.049313 41.472 
L 227.36767 43.965064 
L 227.340667 44.07008 
L 227.214531 44.491425 
L 225.589632 50.3424 
L 224.670134 53.40516 
L 223.678405 56.61472 
L 222.93261 58.732835 
L 222.798068 59.2128 
L 222.665548 59.571543 
L 221.946344 61.81088 
L 220.290654 66.346814 
L 219.633294 68.0832 
L 217.838445 72.506778 
L 217.12706 74.35552 
L 216.967769 74.726089 
L 216.105026 76.9536 
L 215.006415 79.267446 
L 214.855937 79.55168 
L 212.946888 83.618685 
L 211.879936 85.824 
L 209.64351 90.161003 
L 208.590925 92.09632 
L 207.55341 93.846663 
L 207.309429 94.291325 
L 207.108515 94.6944 
L 206.927754 95.002724 
L 206.798673 95.199558 
L 205.584401 97.29248 
L 203.287089 100.936276 
L 201.526651 103.5648 
L 198.9587 107.183022 
L 196.990932 109.83712 
L 196.736609 110.21358 
L 195.042682 112.4352 
L 194.107191 113.579846 
L 193.496188 114.250763 
L 192.845145 115.03328 
L 188.369337 120.070624 
L 187.189133 121.3056 
L 182.980823 125.483523 
L 180.748163 127.57792 
L 180.408127 127.919862 
L 177.891118 130.176 
L 176.8644 131.059152 
L 176.26811 131.520119 
L 174.75197 132.77408 
L 170.573788 136.051408 
L 166.401596 139.0464 
L 165.456604 139.693092 
L 164.813303 140.101599 
L 160.649881 142.917339 
L 156.743097 145.31872 
L 154.411571 146.688591 
L 153.770894 147.086022 
L 152.278388 147.9168 
L 148.72848 149.853264 
L 147.382347 150.51488 
L 146.770443 150.828675 
L 146.063485 151.159605 
L 138.98878 154.662154 
L 134.196108 156.7872 
L 133.022023 157.28653 
L 132.580466 157.456034 
L 127.359121 159.658877 
L 119.405789 162.630986 
L 118.92563 162.823804 
L 118.275535 163.05952 
L 116.682237 163.657623 
L 110.732397 165.6576 
L 109.800959 165.968368 
L 109.45905 166.070622 
L 103.710585 167.853839 
L 102.738767 168.160867 
L 100.4544 168.791409 
L 100.4544 174.528 
L 100.4544 183.3984 
L 100.4544 192.2688 
L 100.4544 201.1392 
L 100.4544 204.681108 
L 102.513442 204.562287 
L 103.540573 204.521106 
L 114.25135 203.73728 
L 114.269895 203.735892 
L 114.283326 203.734705 
L 120.017378 203.282171 
L 128.091092 202.660934 
L 130.22939 202.502295 
L 139.934063 201.590354 
L 141.626094 201.456069 
L 142.068338 201.422288 
L 144.966816 201.1392 
L 154.92595 200.14447 
L 160.823457 199.457018 
L 164.878161 199.046776 
L 167.860902 198.667239 
L 168.889917 198.54112 
L 177.982717 197.392701 
L 179.569838 197.114831 
L 183.062028 196.661557 
L 185.953295 196.151337 
L 192.267591 195.305629 
L 196.761608 194.463109 
L 198.33812 194.245243 
L 205.040736 192.975634 
L 206.181612 192.812167 
L 208.860627 192.2688 
L 213.415805 191.304032 
L 214.227859 191.085234 
L 219.718856 189.905823 
L 225.5267 188.267394 
L 228.220513 187.640646 
L 232.163086 186.466654 
L 232.661987 186.348435 
L 233.78135 185.99648 
L 239.59155 184.091473 
L 240.151525 183.916468 
L 241.50842 183.3984 
L 247.090047 181.157849 
L 248.020944 180.80032 
L 248.459226 180.612425 
L 248.911898 180.382099 
L 256.427263 176.90943 
L 260.584859 174.528 
L 262.021095 173.661038 
L 262.912523 173.036638 
L 266.835664 170.574419 
L 269.874864 168.25568 
L 272.136372 166.425995 
L 272.484684 166.164318 
L 273.029038 165.6576 
L 273.854871 164.810735 
L 275.429947 163.394232 
L 275.811893 163.05952 
L 276.003966 162.880478 
L 276.399577 162.445154 
L 279.479679 159.27783 
L 281.624083 156.7872 
L 283.981084 153.881207 
L 286.302469 150.51488 
L 287.656778 148.381517 
L 287.9451 147.9168 
L 288.359258 147.133223 
L 289.491717 145.31872 
L 290.595699 143.388871 
L 292.734277 139.0464 
L 293.828576 136.667769 
L 295.468771 132.77408 
L 295.655189 132.415762 
L 296.582533 130.176 
L 297.385228 127.708037 
L 297.429566 127.57792 
L 297.589498 127.039947 
L 299.515805 121.3056 
L 300.356274 118.603156 
L 301.332279 115.03328 
L 301.828932 112.886141 
L 301.892267 112.666105 
L 301.974024 112.4352 
L 302.05514 112.086936 
L 302.646874 109.83712 
L 303.799533 104.635567 
L 304.008533 103.5648 
L 304.294198 101.951966 
L 305.287213 97.29248 
L 305.52375 95.920558 
L 305.783594 94.6944 
L 305.956193 93.271953 
L 306.202997 92.09632 
L 306.570329 89.931076 
L 307.201425 85.824 
L 307.978701 80.173594 
L 308.084617 79.55168 
L 308.110408 79.353857 
L 308.321321 78.318703 
L 308.536818 76.9536 
L 308.633092 75.5111 
L 308.757347 74.35552 
L 308.84746 73.558603 
L 309.522966 68.0832 
L 309.834277 65.218479 
L 310.194007 61.81088 
L 310.32158 61.074466 
L 310.575514 59.2128 
L 310.660776 57.266929 
L 310.710896 56.61472 
L 311.208981 51.114536 
L 311.277738 50.3424 
L 311.36829 49.148803 
L 311.805033 44.07008 
L 311.919958 42.570935 
L 312.014224 41.472 
L 310.91712 41.472 
L 302.8224 41.472 
L 294.72768 41.472 
L 286.63296 41.472 
L 278.53824 41.472 
L 270.44352 41.472 
L 262.3488 41.472 
L 254.25408 41.472 
L 246.15936 41.472 
L 238.06464 41.472 
L 229.96992 41.472 
" clip-path="url(#pdecd0528dc)" style="fill: #a4ff53"/>
   </g>
   <g id="PathCollection_17">
    <path d="M 312.014224 41.472 
L 311.919958 42.570935 
L 311.805033 44.07008 
L 311.36829 49.148803 
L 311.277738 50.3424 
L 311.208981 51.114536 
L 310.710896 56.61472 
L 310.660776 57.266929 
L 310.575514 59.2128 
L 310.32158 61.074466 
L 310.194007 61.81088 
L 309.834277 65.218479 
L 309.522966 68.0832 
L 308.84746 73.558603 
L 308.757347 74.35552 
L 308.633092 75.5111 
L 308.536818 76.9536 
L 308.321321 78.318703 
L 308.110408 79.353857 
L 308.084617 79.55168 
L 307.978701 80.173594 
L 307.201425 85.824 
L 306.570329 89.931076 
L 306.202997 92.09632 
L 305.956193 93.271953 
L 305.783594 94.6944 
L 305.52375 95.920558 
L 305.287213 97.29248 
L 304.294198 101.951966 
L 304.008533 103.5648 
L 303.799533 104.635567 
L 302.646874 109.83712 
L 302.05514 112.086936 
L 301.974024 112.4352 
L 301.892267 112.666105 
L 301.828932 112.886141 
L 301.332279 115.03328 
L 300.356274 118.603156 
L 299.515805 121.3056 
L 297.589498 127.039947 
L 297.429566 127.57792 
L 297.385228 127.708037 
L 296.582533 130.176 
L 295.655189 132.415762 
L 295.468771 132.77408 
L 293.828576 136.667769 
L 292.734277 139.0464 
L 290.595699 143.388871 
L 289.491717 145.31872 
L 288.359258 147.133223 
L 287.9451 147.9168 
L 287.656778 148.381517 
L 286.302469 150.51488 
L 283.981084 153.881207 
L 281.624083 156.7872 
L 279.479679 159.27783 
L 276.399577 162.445154 
L 276.003966 162.880478 
L 275.811893 163.05952 
L 275.429947 163.394232 
L 273.854871 164.810735 
L 273.029038 165.6576 
L 272.484684 166.164318 
L 272.136372 166.425995 
L 269.874864 168.25568 
L 266.835664 170.574419 
L 262.912523 173.036638 
L 262.021095 173.661038 
L 260.584859 174.528 
L 256.427263 176.90943 
L 248.911898 180.382099 
L 248.459226 180.612425 
L 248.020944 180.80032 
L 247.090047 181.157849 
L 241.50842 183.3984 
L 240.151525 183.916468 
L 239.59155 184.091473 
L 233.78135 185.99648 
L 232.661987 186.348435 
L 232.163086 186.466654 
L 228.220513 187.640646 
L 225.5267 188.267394 
L 219.718856 189.905823 
L 214.227859 191.085234 
L 213.415805 191.304032 
L 208.860627 192.2688 
L 206.181612 192.812167 
L 205.040736 192.975634 
L 198.33812 194.245243 
L 196.761608 194.463109 
L 192.267591 195.305629 
L 185.953295 196.151337 
L 183.062028 196.661557 
L 179.569838 197.114831 
L 177.982717 197.392701 
L 168.889917 198.54112 
L 167.860902 198.667239 
L 164.878161 199.046776 
L 160.823457 199.457018 
L 154.92595 200.14447 
L 144.966816 201.1392 
L 142.068338 201.422288 
L 141.626094 201.456069 
L 139.934063 201.590354 
L 130.22939 202.502295 
L 128.091092 202.660934 
L 120.017378 203.282171 
L 114.283326 203.734705 
L 114.269895 203.735892 
L 114.25135 203.73728 
L 103.540573 204.521106 
L 102.513442 204.562287 
L 100.4544 204.681108 
L 100.4544 210.0096 
L 100.4544 218.88 
L 100.4544 227.7504 
L 100.4544 235.778842 
L 101.168049 235.838765 
L 108.143289 236.436591 
L 108.838326 236.489528 
L 110.282887 236.6208 
L 120.890406 237.576102 
L 122.300702 237.727358 
L 128.691575 238.415096 
L 134.481289 239.039426 
L 135.397004 239.131351 
L 136.142945 239.21888 
L 145.650371 240.316306 
L 147.152865 240.544393 
L 150.729403 240.976073 
L 153.373273 241.388247 
L 160.087172 242.236892 
L 164.243307 242.928044 
L 166.088498 243.172798 
L 172.135714 244.207807 
L 174.213615 244.497577 
L 179.624439 245.4912 
L 181.289247 245.788436 
L 181.534303 245.842274 
L 188.076884 247.046655 
L 191.676126 247.879886 
L 196.338331 248.805314 
L 199.098964 249.480498 
L 201.580376 249.989984 
L 208.421846 251.76352 
L 210.339262 252.249349 
L 217.778572 254.3616 
L 220.278506 255.086349 
L 226.049836 256.95968 
L 227.251588 257.340417 
L 227.826296 257.560921 
L 231.626649 258.849031 
L 235.468037 260.386577 
L 239.365364 261.806633 
L 242.566298 263.232 
L 245.657976 264.55844 
L 246.894565 265.177027 
L 250.852758 266.959256 
L 255.521589 269.50432 
L 257.578421 270.593462 
L 258.453097 271.059997 
L 260.104359 272.1024 
L 264.0461 274.533262 
L 264.336295 274.70048 
L 264.647426 274.891655 
L 265.342918 275.383431 
L 271.63939 279.662336 
L 273.23178 280.9728 
L 277.319762 284.196353 
L 280.680067 287.24512 
L 280.734396 287.288497 
L 283.397664 289.8432 
L 284.464104 290.827656 
L 285.963863 292.44128 
L 289.253799 295.841618 
L 291.531282 298.7136 
L 293.728403 301.357244 
L 296.351952 304.98592 
L 296.688256 305.435551 
L 298.149279 307.584 
L 302.8224 307.584 
L 310.91712 307.584 
L 319.01184 307.584 
L 327.10656 307.584 
L 335.20128 307.584 
L 343.296 307.584 
L 343.296 298.7136 
L 343.296 289.8432 
L 343.296 280.9728 
L 343.296 272.1024 
L 343.296 263.232 
L 343.296 254.3616 
L 343.296 245.4912 
L 343.296 236.6208 
L 343.296 227.7504 
L 343.296 218.88 
L 343.296 210.0096 
L 343.296 201.1392 
L 343.296 192.2688 
L 343.296 183.3984 
L 343.296 174.528 
L 343.296 165.6576 
L 343.296 156.7872 
L 343.296 147.9168 
L 343.296 139.0464 
L 343.296 130.176 
L 343.296 121.3056 
L 343.296 112.4352 
L 343.296 103.5648 
L 343.296 94.6944 
L 343.296 85.824 
L 343.296 76.9536 
L 343.296 68.0832 
L 343.296 59.2128 
L 343.296 50.3424 
L 343.296 41.472 
L 335.20128 41.472 
L 327.10656 41.472 
L 319.01184 41.472 
" clip-path="url(#pdecd0528dc)" style="fill: #f8f500"/>
   </g>
   <g id="PathCollection_18">
    <path d="M 298.149279 307.584 
L 296.688256 305.435551 
L 296.351952 304.98592 
L 293.728403 301.357244 
L 291.531282 298.7136 
L 289.253799 295.841618 
L 285.963863 292.44128 
L 284.464104 290.827656 
L 283.397664 289.8432 
L 280.734396 287.288497 
L 280.680067 287.24512 
L 277.319762 284.196353 
L 273.23178 280.9728 
L 271.63939 279.662336 
L 265.342918 275.383431 
L 264.647426 274.891655 
L 264.336295 274.70048 
L 264.0461 274.533262 
L 260.104359 272.1024 
L 258.453097 271.059997 
L 257.578421 270.593462 
L 255.521589 269.50432 
L 250.852758 266.959256 
L 246.894565 265.177027 
L 245.657976 264.55844 
L 242.566298 263.232 
L 239.365364 261.806633 
L 235.468037 260.386577 
L 231.626649 258.849031 
L 227.826296 257.560921 
L 227.251588 257.340417 
L 226.049836 256.95968 
L 220.278506 255.086349 
L 217.778572 254.3616 
L 210.339262 252.249349 
L 208.421846 251.76352 
L 201.580376 249.989984 
L 199.098964 249.480498 
L 196.338331 248.805314 
L 191.676126 247.879886 
L 188.076884 247.046655 
L 181.534303 245.842274 
L 181.289247 245.788436 
L 179.624439 245.4912 
L 174.213615 244.497577 
L 172.135714 244.207807 
L 166.088498 243.172798 
L 164.243307 242.928044 
L 160.087172 242.236892 
L 153.373273 241.388247 
L 150.729403 240.976073 
L 147.152865 240.544393 
L 145.650371 240.316306 
L 136.142945 239.21888 
L 135.397004 239.131351 
L 134.481289 239.039426 
L 128.691575 238.415096 
L 122.300702 237.727358 
L 120.890406 237.576102 
L 110.282887 236.6208 
L 108.838326 236.489528 
L 108.143289 236.436591 
L 101.168049 235.838765 
L 100.4544 235.778842 
L 100.4544 236.6208 
L 100.4544 245.4912 
L 100.4544 254.3616 
L 100.4544 263.232 
L 100.4544 264.395474 
L 100.931655 264.494606 
L 106.45705 265.524543 
L 111.651235 266.631376 
L 115.104716 267.30384 
L 118.462522 268.043426 
L 120.058479 268.360552 
L 125.073765 269.50432 
L 128.668713 270.318481 
L 130.367027 270.705137 
L 136.013823 272.1024 
L 139.201766 272.885947 
L 146.089301 274.70048 
L 146.543483 274.819211 
L 146.715791 274.869688 
L 150.900657 276.004612 
L 153.219408 276.701237 
L 159.42139 278.448073 
L 164.917224 280.19253 
L 165.448229 280.348267 
L 167.362472 280.9728 
L 171.958309 282.450598 
L 175.972895 283.894287 
L 179.803933 285.199519 
L 183.528789 286.6004 
L 184.159117 286.821442 
L 185.231892 287.24512 
L 190.612849 289.336401 
L 191.819727 289.8432 
L 195.121054 291.239536 
L 198.024944 292.44128 
L 199.692247 293.154739 
L 201.299133 293.906622 
L 207.518643 296.70508 
L 211.507561 298.7136 
L 213.423566 299.657837 
L 214.319495 300.139594 
L 218.58317 302.32109 
L 223.238335 304.98592 
L 225.192107 306.078437 
L 227.68415 307.584 
L 229.96992 307.584 
L 238.06464 307.584 
L 246.15936 307.584 
L 254.25408 307.584 
L 262.3488 307.584 
L 270.44352 307.584 
L 278.53824 307.584 
L 286.63296 307.584 
L 294.72768 307.584 
" clip-path="url(#pdecd0528dc)" style="fill: #ff9400"/>
   </g>
   <g id="PathCollection_19">
    <path d="M 227.68415 307.584 
L 225.192107 306.078437 
L 223.238335 304.98592 
L 218.58317 302.32109 
L 214.319495 300.139594 
L 213.423566 299.657837 
L 211.507561 298.7136 
L 207.518643 296.70508 
L 201.299133 293.906622 
L 199.692247 293.154739 
L 198.024944 292.44128 
L 195.121054 291.239536 
L 191.819727 289.8432 
L 190.612849 289.336401 
L 185.231892 287.24512 
L 184.159117 286.821442 
L 183.528789 286.6004 
L 179.803933 285.199519 
L 175.972895 283.894287 
L 171.958309 282.450598 
L 167.362472 280.9728 
L 165.448229 280.348267 
L 164.917224 280.19253 
L 159.42139 278.448073 
L 153.219408 276.701237 
L 150.900657 276.004612 
L 146.715791 274.869688 
L 146.543483 274.819211 
L 146.089301 274.70048 
L 139.201766 272.885947 
L 136.013823 272.1024 
L 130.367027 270.705137 
L 128.668713 270.318481 
L 125.073765 269.50432 
L 120.058479 268.360552 
L 118.462522 268.043426 
L 115.104716 267.30384 
L 111.651235 266.631376 
L 106.45705 265.524543 
L 100.931655 264.494606 
L 100.4544 264.395474 
L 100.4544 272.1024 
L 100.4544 280.9728 
L 100.4544 289.8432 
L 100.4544 292.477059 
L 102.594122 293.052845 
L 103.672238 293.369388 
L 111.413731 295.574487 
L 115.983647 296.967022 
L 117.172303 297.315521 
L 121.655457 298.7136 
L 124.049856 299.468299 
L 126.034493 300.133716 
L 131.607622 301.956146 
L 134.427762 302.931891 
L 136.458478 303.611416 
L 140.291916 304.98592 
L 143.846122 306.259447 
L 147.384306 307.584 
L 149.02272 307.584 
L 157.11744 307.584 
L 165.21216 307.584 
L 173.30688 307.584 
L 181.4016 307.584 
L 189.49632 307.584 
L 197.59104 307.584 
L 205.68576 307.584 
L 213.78048 307.584 
L 221.8752 307.584 
" clip-path="url(#pdecd0528dc)" style="fill: #ff3800"/>
   </g>
   <g id="PathCollection_20">
    <path d="M 147.384306 307.584 
L 143.846122 306.259447 
L 140.291916 304.98592 
L 136.458478 303.611416 
L 134.427762 302.931891 
L 131.607622 301.956146 
L 126.034493 300.133716 
L 124.049856 299.468299 
L 121.655457 298.7136 
L 117.172303 297.315521 
L 115.983647 296.967022 
L 111.413731 295.574487 
L 103.672238 293.369388 
L 102.594122 293.052845 
L 100.4544 292.477059 
L 100.4544 298.7136 
L 100.4544 307.584 
L 108.54912 307.584 
L 116.64384 307.584 
L 124.73856 307.584 
L 132.83328 307.584 
L 140.928 307.584 
" clip-path="url(#pdecd0528dc)" style="fill: #b60000"/>
   </g>
   <g id="matplotlib.axis_1">
    <g id="xtick_1">
     <g id="line2d_1">
      <defs>
       <path id="m1566637f4b" d="M 0 0 
L 0 3.5 
" style="stroke: #000000; stroke-width: 0.8"/>
      </defs>
      <g>
       <use xlink:href="#m1566637f4b" x="57.6" y="307.584" style="stroke: #000000; stroke-width: 0.8"/>
      </g>
     </g>
     <g id="text_1">
      <!-- 0.0 -->
      <g transform="translate(51.26875 321.385562) scale(0.1 -0.1)">
       <defs>
        <path id="Calibri-30" d="M 3022 2031 
Q 3022 1566 2948 1181 
Q 2875 797 2704 520 
Q 2534 244 2259 92 
Q 1984 -59 1581 -59 
Q 1200 -59 939 77 
Q 678 213 518 477 
Q 359 741 292 1127 
Q 225 1513 225 2013 
Q 225 2475 300 2861 
Q 375 3247 544 3523 
Q 713 3800 988 3951 
Q 1263 4103 1663 4103 
Q 2047 4103 2308 3967 
Q 2569 3831 2728 3567 
Q 2888 3303 2955 2917 
Q 3022 2531 3022 2031 
z
M 2472 1994 
Q 2472 2297 2450 2537 
Q 2428 2778 2386 2962 
Q 2344 3147 2276 3280 
Q 2209 3413 2115 3498 
Q 2022 3584 1901 3623 
Q 1781 3663 1631 3663 
Q 1366 3663 1200 3538 
Q 1034 3413 939 3194 
Q 844 2975 809 2681 
Q 775 2388 775 2050 
Q 775 1597 822 1280 
Q 869 963 970 763 
Q 1072 563 1230 472 
Q 1388 381 1613 381 
Q 1788 381 1920 437 
Q 2053 494 2148 598 
Q 2244 703 2306 850 
Q 2369 997 2406 1175 
Q 2444 1353 2458 1561 
Q 2472 1769 2472 1994 
z
" transform="scale(0.015625)"/>
        <path id="Calibri-2e" d="M 1144 341 
Q 1144 119 1070 45 
Q 997 -28 803 -28 
Q 616 -28 544 44 
Q 472 116 472 331 
Q 472 553 545 626 
Q 619 700 813 700 
Q 1000 700 1072 628 
Q 1144 556 1144 341 
z
" transform="scale(0.015625)"/>
       </defs>
       <use xlink:href="#Calibri-30"/>
       <use xlink:href="#Calibri-2e" x="50.683594"/>
       <use xlink:href="#Calibri-30" x="75.927734"/>
      </g>
     </g>
    </g>
    <g id="xtick_2">
     <g id="line2d_2">
      <g>
       <use xlink:href="#m1566637f4b" x="86.1696" y="307.584" style="stroke: #000000; stroke-width: 0.8"/>
      </g>
     </g>
     <g id="text_2">
      <!-- 0.1 -->
      <g transform="translate(79.83835 321.385562) scale(0.1 -0.1)">
       <defs>
        <path id="Calibri-31" d="M 2897 213 
Q 2897 153 2887 112 
Q 2878 72 2862 47 
Q 2847 22 2826 11 
Q 2806 0 2784 0 
L 672 0 
Q 650 0 631 11 
Q 613 22 595 47 
Q 578 72 568 112 
Q 559 153 559 213 
Q 559 269 568 309 
Q 578 350 592 376 
Q 606 403 626 417 
Q 647 431 672 431 
L 1516 431 
L 1516 3506 
L 734 3041 
Q 675 3009 639 3003 
Q 603 2997 581 3017 
Q 559 3038 551 3084 
Q 544 3131 544 3203 
Q 544 3256 548 3293 
Q 553 3331 562 3356 
Q 572 3381 589 3400 
Q 606 3419 634 3438 
L 1566 4034 
Q 1578 4044 1597 4050 
Q 1616 4056 1644 4062 
Q 1672 4069 1709 4070 
Q 1747 4072 1803 4072 
Q 1878 4072 1928 4065 
Q 1978 4059 2006 4048 
Q 2034 4038 2043 4020 
Q 2053 4003 2053 3984 
L 2053 431 
L 2784 431 
Q 2809 431 2831 417 
Q 2853 403 2867 376 
Q 2881 350 2889 309 
Q 2897 269 2897 213 
z
" transform="scale(0.015625)"/>
       </defs>
       <use xlink:href="#Calibri-30"/>
       <use xlink:href="#Calibri-2e" x="50.683594"/>
       <use xlink:href="#Calibri-31" x="75.927734"/>
      </g>
     </g>
    </g>
    <g id="xtick_3">
     <g id="line2d_3">
      <g>
       <use xlink:href="#m1566637f4b" x="114.7392" y="307.584" style="stroke: #000000; stroke-width: 0.8"/>
      </g>
     </g>
     <g id="text_3">
      <!-- 0.2 -->
      <g transform="translate(108.40795 321.385562) scale(0.1 -0.1)">
       <defs>
        <path id="Calibri-32" d="M 2888 231 
Q 2888 175 2880 131 
Q 2872 88 2858 58 
Q 2844 28 2820 14 
Q 2797 0 2769 0 
L 534 0 
Q 491 0 458 11 
Q 425 22 401 47 
Q 378 72 367 119 
Q 356 166 356 234 
Q 356 297 361 344 
Q 366 391 381 427 
Q 397 463 420 498 
Q 444 534 481 575 
L 1266 1406 
Q 1538 1694 1702 1922 
Q 1866 2150 1955 2337 
Q 2044 2525 2072 2678 
Q 2100 2831 2100 2966 
Q 2100 3100 2056 3220 
Q 2013 3341 1930 3431 
Q 1847 3522 1722 3575 
Q 1597 3628 1434 3628 
Q 1244 3628 1092 3575 
Q 941 3522 827 3459 
Q 713 3397 636 3344 
Q 559 3291 522 3291 
Q 500 3291 483 3303 
Q 466 3316 455 3344 
Q 444 3372 437 3419 
Q 431 3466 431 3531 
Q 431 3578 434 3612 
Q 438 3647 445 3672 
Q 453 3697 465 3719 
Q 478 3741 515 3773 
Q 553 3806 645 3862 
Q 738 3919 877 3973 
Q 1016 4028 1183 4065 
Q 1350 4103 1534 4103 
Q 1828 4103 2048 4020 
Q 2269 3938 2414 3794 
Q 2559 3650 2631 3459 
Q 2703 3269 2703 3053 
Q 2703 2859 2668 2667 
Q 2634 2475 2523 2251 
Q 2413 2028 2203 1754 
Q 1994 1481 1647 1125 
L 1006 456 
L 2766 456 
Q 2791 456 2814 442 
Q 2838 428 2855 400 
Q 2872 372 2880 330 
Q 2888 288 2888 231 
z
" transform="scale(0.015625)"/>
       </defs>
       <use xlink:href="#Calibri-30"/>
       <use xlink:href="#Calibri-2e" x="50.683594"/>
       <use xlink:href="#Calibri-32" x="75.927734"/>
      </g>
     </g>
    </g>
    <g id="xtick_4">
     <g id="line2d_4">
      <g>
       <use xlink:href="#m1566637f4b" x="143.3088" y="307.584" style="stroke: #000000; stroke-width: 0.8"/>
      </g>
     </g>
     <g id="text_4">
      <!-- 0.3 -->
      <g transform="translate(136.97755 321.385562) scale(0.1 -0.1)">
       <defs>
        <path id="Calibri-33" d="M 2856 1156 
Q 2856 878 2759 654 
Q 2663 431 2481 272 
Q 2300 113 2034 27 
Q 1769 -59 1434 -59 
Q 1231 -59 1054 -26 
Q 878 6 740 51 
Q 603 97 512 145 
Q 422 194 398 216 
Q 375 238 362 259 
Q 350 281 340 312 
Q 331 344 326 389 
Q 322 434 322 500 
Q 322 613 344 656 
Q 366 700 406 700 
Q 434 700 517 650 
Q 600 600 729 542 
Q 859 484 1032 434 
Q 1206 384 1419 384 
Q 1625 384 1781 437 
Q 1938 491 2044 587 
Q 2150 684 2203 817 
Q 2256 950 2256 1106 
Q 2256 1278 2189 1415 
Q 2122 1553 1992 1653 
Q 1863 1753 1673 1806 
Q 1484 1859 1244 1859 
L 859 1859 
Q 834 1859 811 1870 
Q 788 1881 770 1906 
Q 753 1931 742 1972 
Q 731 2013 731 2078 
Q 731 2138 740 2177 
Q 750 2216 767 2239 
Q 784 2263 806 2273 
Q 828 2284 856 2284 
L 1209 2284 
Q 1416 2284 1580 2337 
Q 1744 2391 1858 2491 
Q 1972 2591 2033 2730 
Q 2094 2869 2094 3041 
Q 2094 3166 2053 3280 
Q 2013 3394 1931 3478 
Q 1850 3563 1723 3611 
Q 1597 3659 1431 3659 
Q 1250 3659 1098 3604 
Q 947 3550 828 3487 
Q 709 3425 631 3370 
Q 553 3316 522 3316 
Q 500 3316 483 3323 
Q 466 3331 455 3354 
Q 444 3378 439 3420 
Q 434 3463 434 3531 
Q 434 3578 437 3614 
Q 441 3650 450 3676 
Q 459 3703 471 3725 
Q 484 3747 514 3776 
Q 544 3806 634 3862 
Q 725 3919 858 3973 
Q 991 4028 1164 4065 
Q 1338 4103 1538 4103 
Q 1819 4103 2031 4031 
Q 2244 3959 2386 3828 
Q 2528 3697 2598 3514 
Q 2669 3331 2669 3109 
Q 2669 2919 2619 2755 
Q 2569 2591 2472 2464 
Q 2375 2338 2234 2248 
Q 2094 2159 1909 2125 
L 1909 2119 
Q 2119 2097 2292 2014 
Q 2466 1931 2591 1806 
Q 2716 1681 2786 1514 
Q 2856 1347 2856 1156 
z
" transform="scale(0.015625)"/>
       </defs>
       <use xlink:href="#Calibri-30"/>
       <use xlink:href="#Calibri-2e" x="50.683594"/>
       <use xlink:href="#Calibri-33" x="75.927734"/>
      </g>
     </g>
    </g>
    <g id="xtick_5">
     <g id="line2d_5">
      <g>
       <use xlink:href="#m1566637f4b" x="171.8784" y="307.584" style="stroke: #000000; stroke-width: 0.8"/>
      </g>
     </g>
     <g id="text_5">
      <!-- 0.4 -->
      <g transform="translate(165.54715 321.385562) scale(0.1 -0.1)">
       <defs>
        <path id="Calibri-34" d="M 3059 1150 
Q 3059 1047 3028 987 
Q 2997 928 2941 928 
L 2484 928 
L 2484 78 
Q 2484 53 2471 36 
Q 2459 19 2428 6 
Q 2397 -6 2347 -12 
Q 2297 -19 2219 -19 
Q 2144 -19 2094 -12 
Q 2044 -6 2014 6 
Q 1984 19 1973 36 
Q 1963 53 1963 78 
L 1963 928 
L 294 928 
Q 256 928 231 937 
Q 206 947 186 972 
Q 166 997 158 1044 
Q 150 1091 150 1166 
Q 150 1225 153 1272 
Q 156 1319 165 1358 
Q 175 1397 190 1433 
Q 206 1469 228 1509 
L 1684 3966 
Q 1700 3991 1729 4009 
Q 1759 4028 1806 4040 
Q 1853 4053 1922 4058 
Q 1991 4063 2084 4063 
Q 2188 4063 2264 4055 
Q 2341 4047 2387 4034 
Q 2434 4022 2459 4001 
Q 2484 3981 2484 3953 
L 2484 1372 
L 2941 1372 
Q 2994 1372 3026 1317 
Q 3059 1263 3059 1150 
z
M 1963 3591 
L 1956 3591 
L 641 1372 
L 1963 1372 
L 1963 3591 
z
" transform="scale(0.015625)"/>
       </defs>
       <use xlink:href="#Calibri-30"/>
       <use xlink:href="#Calibri-2e" x="50.683594"/>
       <use xlink:href="#Calibri-34" x="75.927734"/>
      </g>
     </g>
    </g>
    <g id="xtick_6">
     <g id="line2d_6">
      <g>
       <use xlink:href="#m1566637f4b" x="200.448" y="307.584" style="stroke: #000000; stroke-width: 0.8"/>
      </g>
     </g>
     <g id="text_6">
      <!-- 0.5 -->
      <g transform="translate(194.11675 321.385562) scale(0.1 -0.1)">
       <defs>
        <path id="Calibri-35" d="M 2869 1300 
Q 2869 975 2759 722 
Q 2650 469 2450 295 
Q 2250 122 1973 31 
Q 1697 -59 1359 -59 
Q 1172 -59 1003 -32 
Q 834 -6 703 33 
Q 572 72 487 109 
Q 403 147 379 169 
Q 356 191 347 209 
Q 338 228 330 254 
Q 322 281 319 322 
Q 316 363 316 419 
Q 316 472 320 514 
Q 325 556 337 582 
Q 350 609 367 621 
Q 384 634 406 634 
Q 438 634 503 595 
Q 569 556 680 511 
Q 791 466 955 425 
Q 1119 384 1344 384 
Q 1553 384 1728 434 
Q 1903 484 2029 590 
Q 2156 697 2228 858 
Q 2300 1019 2300 1250 
Q 2300 1444 2239 1592 
Q 2178 1741 2051 1839 
Q 1925 1938 1731 1986 
Q 1538 2034 1269 2034 
Q 1078 2034 940 2015 
Q 803 1997 684 1997 
Q 597 1997 559 2037 
Q 522 2078 522 2194 
L 522 3841 
Q 522 3944 570 3994 
Q 619 4044 709 4044 
L 2500 4044 
Q 2525 4044 2548 4030 
Q 2572 4016 2587 3987 
Q 2603 3959 2611 3915 
Q 2619 3872 2619 3813 
Q 2619 3700 2587 3637 
Q 2556 3575 2500 3575 
L 991 3575 
L 991 2441 
Q 1100 2456 1214 2459 
Q 1328 2463 1478 2463 
Q 1825 2463 2084 2380 
Q 2344 2297 2517 2145 
Q 2691 1994 2780 1778 
Q 2869 1563 2869 1300 
z
" transform="scale(0.015625)"/>
       </defs>
       <use xlink:href="#Calibri-30"/>
       <use xlink:href="#Calibri-2e" x="50.683594"/>
       <use xlink:href="#Calibri-35" x="75.927734"/>
      </g>
     </g>
    </g>
    <g id="xtick_7">
     <g id="line2d_7">
      <g>
       <use xlink:href="#m1566637f4b" x="229.0176" y="307.584" style="stroke: #000000; stroke-width: 0.8"/>
      </g>
     </g>
     <g id="text_7">
      <!-- 0.6 -->
      <g transform="translate(222.68635 321.385562) scale(0.1 -0.1)">
       <defs>
        <path id="Calibri-36" d="M 2991 1309 
Q 2991 1044 2909 795 
Q 2828 547 2659 358 
Q 2491 169 2231 55 
Q 1972 -59 1619 -59 
Q 1366 -59 1172 3 
Q 978 66 834 181 
Q 691 297 595 465 
Q 500 634 442 850 
Q 384 1066 359 1322 
Q 334 1578 334 1872 
Q 334 2131 362 2397 
Q 391 2663 462 2909 
Q 534 3156 657 3373 
Q 781 3591 967 3752 
Q 1153 3913 1412 4006 
Q 1672 4100 2016 4100 
Q 2131 4100 2250 4086 
Q 2369 4072 2469 4048 
Q 2569 4025 2637 3997 
Q 2706 3969 2728 3951 
Q 2750 3934 2761 3914 
Q 2772 3894 2778 3870 
Q 2784 3847 2787 3817 
Q 2791 3788 2791 3744 
Q 2791 3688 2789 3647 
Q 2788 3606 2777 3581 
Q 2766 3556 2748 3543 
Q 2731 3531 2703 3531 
Q 2669 3531 2609 3553 
Q 2550 3575 2465 3601 
Q 2381 3628 2261 3650 
Q 2141 3672 1981 3672 
Q 1691 3672 1481 3553 
Q 1272 3434 1139 3234 
Q 1006 3034 942 2770 
Q 878 2506 869 2219 
Q 950 2266 1051 2312 
Q 1153 2359 1273 2396 
Q 1394 2434 1528 2457 
Q 1663 2481 1816 2481 
Q 2144 2481 2369 2392 
Q 2594 2303 2733 2145 
Q 2872 1988 2931 1773 
Q 2991 1559 2991 1309 
z
M 2447 1259 
Q 2447 1441 2411 1589 
Q 2375 1738 2290 1841 
Q 2206 1944 2065 2000 
Q 1925 2056 1719 2056 
Q 1603 2056 1487 2036 
Q 1372 2016 1264 1980 
Q 1156 1944 1057 1895 
Q 959 1847 878 1791 
Q 878 1388 929 1116 
Q 981 844 1079 680 
Q 1178 516 1325 445 
Q 1472 375 1669 375 
Q 1869 375 2016 450 
Q 2163 525 2259 651 
Q 2356 778 2401 936 
Q 2447 1094 2447 1259 
z
" transform="scale(0.015625)"/>
       </defs>
       <use xlink:href="#Calibri-30"/>
       <use xlink:href="#Calibri-2e" x="50.683594"/>
       <use xlink:href="#Calibri-36" x="75.927734"/>
      </g>
     </g>
    </g>
    <g id="xtick_8">
     <g id="line2d_8">
      <g>
       <use xlink:href="#m1566637f4b" x="257.5872" y="307.584" style="stroke: #000000; stroke-width: 0.8"/>
      </g>
     </g>
     <g id="text_8">
      <!-- 0.7 -->
      <g transform="translate(251.25595 321.385562) scale(0.1 -0.1)">
       <defs>
        <path id="Calibri-37" d="M 2947 3813 
Q 2947 3756 2942 3711 
Q 2938 3666 2930 3623 
Q 2922 3581 2908 3542 
Q 2894 3503 2875 3459 
L 1419 103 
Q 1403 66 1379 42 
Q 1356 19 1320 5 
Q 1284 -9 1228 -14 
Q 1172 -19 1091 -19 
Q 984 -19 925 -9 
Q 866 0 839 20 
Q 813 41 816 70 
Q 819 100 838 141 
L 2369 3572 
L 428 3572 
Q 369 3572 339 3634 
Q 309 3697 309 3809 
Q 309 3869 317 3912 
Q 325 3956 340 3986 
Q 356 4016 378 4030 
Q 400 4044 428 4044 
L 2784 4044 
Q 2828 4044 2861 4034 
Q 2894 4025 2911 3997 
Q 2928 3969 2937 3925 
Q 2947 3881 2947 3813 
z
" transform="scale(0.015625)"/>
       </defs>
       <use xlink:href="#Calibri-30"/>
       <use xlink:href="#Calibri-2e" x="50.683594"/>
       <use xlink:href="#Calibri-37" x="75.927734"/>
      </g>
     </g>
    </g>
    <g id="xtick_9">
     <g id="line2d_9">
      <g>
       <use xlink:href="#m1566637f4b" x="286.1568" y="307.584" style="stroke: #000000; stroke-width: 0.8"/>
      </g>
     </g>
     <g id="text_9">
      <!-- 0.8 -->
      <g transform="translate(279.82555 321.385562) scale(0.1 -0.1)">
       <defs>
        <path id="Calibri-38" d="M 2981 1038 
Q 2981 775 2887 570 
Q 2794 366 2617 225 
Q 2441 84 2181 12 
Q 1922 -59 1588 -59 
Q 1275 -59 1028 6 
Q 781 72 609 200 
Q 438 328 347 515 
Q 256 703 256 944 
Q 256 1134 318 1293 
Q 381 1453 498 1587 
Q 616 1722 787 1839 
Q 959 1956 1175 2063 
Q 988 2159 844 2267 
Q 700 2375 600 2501 
Q 500 2628 448 2772 
Q 397 2916 397 3084 
Q 397 3297 473 3483 
Q 550 3669 704 3806 
Q 859 3944 1098 4023 
Q 1338 4103 1656 4103 
Q 1963 4103 2186 4029 
Q 2409 3956 2554 3829 
Q 2700 3703 2769 3531 
Q 2838 3359 2838 3163 
Q 2838 3003 2786 2856 
Q 2734 2709 2634 2578 
Q 2534 2447 2389 2333 
Q 2244 2219 2056 2119 
Q 2278 2009 2451 1893 
Q 2625 1778 2742 1645 
Q 2859 1513 2920 1364 
Q 2981 1216 2981 1038 
z
M 2306 3113 
Q 2306 3244 2261 3350 
Q 2216 3456 2128 3531 
Q 2041 3606 1911 3645 
Q 1781 3684 1616 3684 
Q 1278 3684 1104 3531 
Q 931 3378 931 3113 
Q 931 2991 973 2886 
Q 1016 2781 1105 2687 
Q 1194 2594 1330 2505 
Q 1466 2416 1653 2319 
Q 1969 2481 2137 2678 
Q 2306 2875 2306 3113 
z
M 2438 981 
Q 2438 1125 2384 1242 
Q 2331 1359 2223 1461 
Q 2116 1563 1955 1658 
Q 1794 1753 1581 1856 
Q 1384 1759 1236 1662 
Q 1088 1566 992 1462 
Q 897 1359 848 1245 
Q 800 1131 800 994 
Q 800 691 1008 525 
Q 1216 359 1628 359 
Q 2028 359 2233 526 
Q 2438 694 2438 981 
z
" transform="scale(0.015625)"/>
       </defs>
       <use xlink:href="#Calibri-30"/>
       <use xlink:href="#Calibri-2e" x="50.683594"/>
       <use xlink:href="#Calibri-38" x="75.927734"/>
      </g>
     </g>
    </g>
    <g id="xtick_10">
     <g id="line2d_10">
      <g>
       <use xlink:href="#m1566637f4b" x="314.7264" y="307.584" style="stroke: #000000; stroke-width: 0.8"/>
      </g>
     </g>
     <g id="text_10">
      <!-- 0.9 -->
      <g transform="translate(308.39515 321.385562) scale(0.1 -0.1)">
       <defs>
        <path id="Calibri-39" d="M 2919 2181 
Q 2919 1919 2887 1650 
Q 2856 1381 2781 1132 
Q 2706 884 2579 667 
Q 2453 450 2261 287 
Q 2069 125 1805 33 
Q 1541 -59 1191 -59 
Q 1056 -59 929 -42 
Q 803 -25 701 0 
Q 600 25 531 53 
Q 463 81 431 109 
Q 400 138 386 186 
Q 372 234 372 316 
Q 372 384 376 425 
Q 381 466 390 487 
Q 400 509 417 517 
Q 434 525 459 525 
Q 494 525 556 501 
Q 619 478 714 450 
Q 809 422 937 398 
Q 1066 375 1225 375 
Q 1528 375 1745 492 
Q 1963 609 2100 806 
Q 2238 1003 2306 1262 
Q 2375 1522 2381 1809 
Q 2216 1713 1984 1638 
Q 1753 1563 1453 1563 
Q 1116 1563 886 1655 
Q 656 1747 517 1906 
Q 378 2066 317 2284 
Q 256 2503 256 2763 
Q 256 3031 334 3273 
Q 413 3516 578 3700 
Q 744 3884 1000 3993 
Q 1256 4103 1613 4103 
Q 1866 4103 2061 4039 
Q 2256 3975 2400 3854 
Q 2544 3734 2644 3564 
Q 2744 3394 2805 3178 
Q 2866 2963 2892 2711 
Q 2919 2459 2919 2181 
z
M 2372 2241 
Q 2372 2641 2319 2914 
Q 2266 3188 2162 3356 
Q 2059 3525 1909 3600 
Q 1759 3675 1563 3675 
Q 1359 3675 1215 3601 
Q 1072 3528 980 3404 
Q 888 3281 844 3125 
Q 800 2969 800 2803 
Q 800 2619 839 2466 
Q 878 2313 965 2206 
Q 1053 2100 1193 2042 
Q 1334 1984 1541 1984 
Q 1775 1984 1994 2054 
Q 2213 2125 2372 2241 
z
" transform="scale(0.015625)"/>
       </defs>
       <use xlink:href="#Calibri-30"/>
       <use xlink:href="#Calibri-2e" x="50.683594"/>
       <use xlink:href="#Calibri-39" x="75.927734"/>
      </g>
     </g>
    </g>
    <g id="xtick_11">
     <g id="line2d_11">
      <g>
       <use xlink:href="#m1566637f4b" x="343.296" y="307.584" style="stroke: #000000; stroke-width: 0.8"/>
      </g>
     </g>
     <g id="text_11">
      <!-- 1.0 -->
      <g transform="translate(336.96475 321.385562) scale(0.1 -0.1)">
       <use xlink:href="#Calibri-31"/>
       <use xlink:href="#Calibri-2e" x="50.683594"/>
       <use xlink:href="#Calibri-30" x="75.927734"/>
      </g>
     </g>
    </g>
    <g id="text_12">
     <!-- $\mathit{p}$ (cm$^2$/cm$^2$) -->
     <g transform="translate(174.148 336.263687) scale(0.1 -0.1)">
      <defs>
       <path id="DejaVuSans-Oblique-70" d="M 3175 2156 
Q 3175 2616 2975 2859 
Q 2775 3103 2400 3103 
Q 2144 3103 1911 2972 
Q 1678 2841 1497 2591 
Q 1319 2344 1212 1994 
Q 1106 1644 1106 1300 
Q 1106 863 1306 627 
Q 1506 391 1875 391 
Q 2147 391 2380 519 
Q 2613 647 2778 891 
Q 2956 1147 3065 1494 
Q 3175 1841 3175 2156 
z
M 1394 2969 
Q 1625 3272 1939 3428 
Q 2253 3584 2638 3584 
Q 3175 3584 3472 3232 
Q 3769 2881 3769 2247 
Q 3769 1728 3584 1258 
Q 3400 788 3053 416 
Q 2822 169 2531 39 
Q 2241 -91 1919 -91 
Q 1547 -91 1294 64 
Q 1041 219 916 525 
L 556 -1331 
L -19 -1331 
L 922 3500 
L 1497 3500 
L 1394 2969 
z
" transform="scale(0.015625)"/>
       <path id="Calibri-20" transform="scale(0.015625)"/>
       <path id="Calibri-28" d="M 1547 4306 
Q 1250 3678 1104 3017 
Q 959 2356 959 1688 
Q 959 1016 1107 356 
Q 1256 -303 1541 -938 
Q 1556 -975 1557 -1001 
Q 1559 -1028 1537 -1045 
Q 1516 -1063 1470 -1070 
Q 1425 -1078 1347 -1078 
Q 1291 -1078 1250 -1075 
Q 1209 -1072 1179 -1062 
Q 1150 -1053 1131 -1040 
Q 1113 -1028 1103 -1013 
Q 934 -694 806 -367 
Q 678 -41 590 296 
Q 503 634 459 979 
Q 416 1325 416 1678 
Q 416 2031 464 2375 
Q 513 2719 602 3058 
Q 691 3397 819 3725 
Q 947 4053 1106 4375 
Q 1109 4388 1123 4397 
Q 1138 4406 1163 4415 
Q 1188 4425 1231 4429 
Q 1275 4434 1344 4434 
Q 1416 4434 1459 4425 
Q 1503 4416 1528 4400 
Q 1553 4384 1556 4359 
Q 1559 4334 1547 4306 
z
" transform="scale(0.015625)"/>
       <path id="Calibri-63" d="M 2500 506 
Q 2500 453 2497 414 
Q 2494 375 2486 348 
Q 2478 322 2467 301 
Q 2456 281 2417 242 
Q 2378 203 2284 145 
Q 2191 88 2073 42 
Q 1956 -3 1818 -31 
Q 1681 -59 1534 -59 
Q 1231 -59 997 41 
Q 763 141 605 333 
Q 447 525 364 804 
Q 281 1084 281 1450 
Q 281 1866 382 2164 
Q 484 2463 661 2653 
Q 838 2844 1077 2936 
Q 1316 3028 1594 3028 
Q 1728 3028 1854 3003 
Q 1981 2978 2087 2937 
Q 2194 2897 2276 2844 
Q 2359 2791 2396 2753 
Q 2434 2716 2448 2694 
Q 2463 2672 2472 2642 
Q 2481 2613 2484 2575 
Q 2488 2538 2488 2481 
Q 2488 2359 2459 2311 
Q 2431 2263 2391 2263 
Q 2344 2263 2283 2314 
Q 2222 2366 2128 2428 
Q 2034 2491 1901 2542 
Q 1769 2594 1588 2594 
Q 1216 2594 1017 2308 
Q 819 2022 819 1478 
Q 819 1206 870 1001 
Q 922 797 1022 659 
Q 1122 522 1267 455 
Q 1413 388 1600 388 
Q 1778 388 1912 444 
Q 2047 500 2145 567 
Q 2244 634 2311 689 
Q 2378 744 2416 744 
Q 2438 744 2453 731 
Q 2469 719 2480 689 
Q 2491 659 2495 614 
Q 2500 569 2500 506 
z
" transform="scale(0.015625)"/>
       <path id="Calibri-6d" d="M 4650 78 
Q 4650 53 4637 36 
Q 4625 19 4597 6 
Q 4569 -6 4519 -12 
Q 4469 -19 4394 -19 
Q 4316 -19 4266 -12 
Q 4216 -6 4186 6 
Q 4156 19 4143 36 
Q 4131 53 4131 78 
L 4131 1788 
Q 4131 1966 4100 2112 
Q 4069 2259 4000 2365 
Q 3931 2472 3825 2528 
Q 3719 2584 3575 2584 
Q 3397 2584 3217 2446 
Q 3038 2309 2822 2044 
L 2822 78 
Q 2822 53 2809 36 
Q 2797 19 2767 6 
Q 2738 -6 2688 -12 
Q 2638 -19 2563 -19 
Q 2491 -19 2439 -12 
Q 2388 -6 2358 6 
Q 2328 19 2317 36 
Q 2306 53 2306 78 
L 2306 1788 
Q 2306 1966 2272 2112 
Q 2238 2259 2169 2365 
Q 2100 2472 1995 2528 
Q 1891 2584 1747 2584 
Q 1569 2584 1387 2446 
Q 1206 2309 994 2044 
L 994 78 
Q 994 53 981 36 
Q 969 19 941 6 
Q 913 -6 863 -12 
Q 813 -19 734 -19 
Q 659 -19 609 -12 
Q 559 -6 529 6 
Q 500 19 489 36 
Q 478 53 478 78 
L 478 2891 
Q 478 2916 487 2933 
Q 497 2950 525 2964 
Q 553 2978 597 2983 
Q 641 2988 713 2988 
Q 781 2988 826 2983 
Q 872 2978 897 2964 
Q 922 2950 933 2933 
Q 944 2916 944 2891 
L 944 2519 
Q 1181 2784 1404 2907 
Q 1628 3031 1856 3031 
Q 2031 3031 2170 2990 
Q 2309 2950 2415 2876 
Q 2522 2803 2597 2701 
Q 2672 2600 2722 2475 
Q 2863 2628 2989 2734 
Q 3116 2841 3233 2906 
Q 3350 2972 3461 3001 
Q 3572 3031 3684 3031 
Q 3956 3031 4140 2936 
Q 4325 2841 4439 2681 
Q 4553 2522 4601 2308 
Q 4650 2094 4650 1856 
L 4650 78 
z
" transform="scale(0.015625)"/>
       <path id="DejaVuSans-32" d="M 1228 531 
L 3431 531 
L 3431 0 
L 469 0 
L 469 531 
Q 828 903 1448 1529 
Q 2069 2156 2228 2338 
Q 2531 2678 2651 2914 
Q 2772 3150 2772 3378 
Q 2772 3750 2511 3984 
Q 2250 4219 1831 4219 
Q 1534 4219 1204 4116 
Q 875 4013 500 3803 
L 500 4441 
Q 881 4594 1212 4672 
Q 1544 4750 1819 4750 
Q 2544 4750 2975 4387 
Q 3406 4025 3406 3419 
Q 3406 3131 3298 2873 
Q 3191 2616 2906 2266 
Q 2828 2175 2409 1742 
Q 1991 1309 1228 531 
z
" transform="scale(0.015625)"/>
       <path id="Calibri-2f" d="M 525 -753 
Q 513 -794 492 -817 
Q 472 -841 440 -853 
Q 409 -866 364 -872 
Q 319 -878 253 -878 
Q 175 -878 123 -867 
Q 72 -856 44 -836 
Q 16 -816 9 -786 
Q 3 -756 22 -716 
L 1913 4469 
Q 1925 4509 1945 4532 
Q 1966 4556 1995 4570 
Q 2025 4584 2072 4589 
Q 2119 4594 2184 4594 
Q 2263 4594 2313 4583 
Q 2363 4572 2391 4553 
Q 2419 4534 2425 4503 
Q 2431 4472 2416 4431 
L 525 -753 
z
" transform="scale(0.015625)"/>
       <path id="Calibri-29" d="M 1522 1678 
Q 1522 1325 1478 979 
Q 1434 634 1346 296 
Q 1259 -41 1132 -367 
Q 1006 -694 838 -1013 
Q 828 -1028 809 -1040 
Q 791 -1053 761 -1062 
Q 731 -1072 690 -1075 
Q 650 -1078 594 -1078 
Q 513 -1078 467 -1070 
Q 422 -1063 401 -1045 
Q 381 -1028 382 -1001 
Q 384 -975 400 -938 
Q 688 -306 834 355 
Q 981 1016 981 1688 
Q 981 2356 834 3017 
Q 688 3678 394 4306 
Q 381 4334 384 4359 
Q 388 4384 413 4400 
Q 438 4416 481 4425 
Q 525 4434 597 4434 
Q 663 4434 706 4429 
Q 750 4425 776 4415 
Q 803 4406 815 4397 
Q 828 4388 834 4375 
Q 1156 3734 1339 3057 
Q 1522 2381 1522 1678 
z
" transform="scale(0.015625)"/>
      </defs>
      <use xlink:href="#DejaVuSans-Oblique-70" transform="translate(0 0.765625)"/>
      <use xlink:href="#Calibri-20" transform="translate(63.476562 0.765625)"/>
      <use xlink:href="#Calibri-28" transform="translate(84.958984 0.765625)"/>
      <use xlink:href="#Calibri-63" transform="translate(115.28125 0.765625)"/>
      <use xlink:href="#Calibri-6d" transform="translate(157.566406 0.765625)"/>
      <use xlink:href="#DejaVuSans-32" transform="translate(238.40625 39.046875) scale(0.7)"/>
      <use xlink:href="#Calibri-2f" transform="translate(285.676758 0.765625)"/>
      <use xlink:href="#Calibri-63" transform="translate(324.299805 0.765625)"/>
      <use xlink:href="#Calibri-6d" transform="translate(366.584961 0.765625)"/>
      <use xlink:href="#DejaVuSans-32" transform="translate(447.424805 39.046875) scale(0.7)"/>
      <use xlink:href="#Calibri-29" transform="translate(494.695312 0.765625)"/>
     </g>
    </g>
   </g>
   <g id="matplotlib.axis_2">
    <g id="ytick_1">
     <g id="line2d_12">
      <defs>
       <path id="mdd227ed26a" d="M 0 0 
L -3.5 0 
" style="stroke: #000000; stroke-width: 0.8"/>
      </defs>
      <g>
       <use xlink:href="#mdd227ed26a" x="57.6" y="275.65056" style="stroke: #000000; stroke-width: 0.8"/>
      </g>
     </g>
     <g id="text_13">
      <!-- 25 -->
      <g transform="translate(40.4625 279.051341) scale(0.1 -0.1)">
       <use xlink:href="#Calibri-32"/>
       <use xlink:href="#Calibri-35" x="50.683594"/>
      </g>
     </g>
    </g>
    <g id="ytick_2">
     <g id="line2d_13">
      <g>
       <use xlink:href="#mdd227ed26a" x="57.6" y="242.38656" style="stroke: #000000; stroke-width: 0.8"/>
      </g>
     </g>
     <g id="text_14">
      <!-- 50 -->
      <g transform="translate(40.4625 245.787341) scale(0.1 -0.1)">
       <use xlink:href="#Calibri-35"/>
       <use xlink:href="#Calibri-30" x="50.683594"/>
      </g>
     </g>
    </g>
    <g id="ytick_3">
     <g id="line2d_14">
      <g>
       <use xlink:href="#mdd227ed26a" x="57.6" y="209.12256" style="stroke: #000000; stroke-width: 0.8"/>
      </g>
     </g>
     <g id="text_15">
      <!-- 75 -->
      <g transform="translate(40.4625 212.523341) scale(0.1 -0.1)">
       <use xlink:href="#Calibri-37"/>
       <use xlink:href="#Calibri-35" x="50.683594"/>
      </g>
     </g>
    </g>
    <g id="ytick_4">
     <g id="line2d_15">
      <g>
       <use xlink:href="#mdd227ed26a" x="57.6" y="175.85856" style="stroke: #000000; stroke-width: 0.8"/>
      </g>
     </g>
     <g id="text_16">
      <!-- 100 -->
      <g transform="translate(35.39375 179.259341) scale(0.1 -0.1)">
       <use xlink:href="#Calibri-31"/>
       <use xlink:href="#Calibri-30" x="50.683594"/>
       <use xlink:href="#Calibri-30" x="101.367188"/>
      </g>
     </g>
    </g>
    <g id="ytick_5">
     <g id="line2d_16">
      <g>
       <use xlink:href="#mdd227ed26a" x="57.6" y="142.59456" style="stroke: #000000; stroke-width: 0.8"/>
      </g>
     </g>
     <g id="text_17">
      <!-- 125 -->
      <g transform="translate(35.39375 145.995341) scale(0.1 -0.1)">
       <use xlink:href="#Calibri-31"/>
       <use xlink:href="#Calibri-32" x="50.683594"/>
       <use xlink:href="#Calibri-35" x="101.367188"/>
      </g>
     </g>
    </g>
    <g id="ytick_6">
     <g id="line2d_17">
      <g>
       <use xlink:href="#mdd227ed26a" x="57.6" y="109.33056" style="stroke: #000000; stroke-width: 0.8"/>
      </g>
     </g>
     <g id="text_18">
      <!-- 150 -->
      <g transform="translate(35.39375 112.731341) scale(0.1 -0.1)">
       <use xlink:href="#Calibri-31"/>
       <use xlink:href="#Calibri-35" x="50.683594"/>
       <use xlink:href="#Calibri-30" x="101.367188"/>
      </g>
     </g>
    </g>
    <g id="ytick_7">
     <g id="line2d_18">
      <g>
       <use xlink:href="#mdd227ed26a" x="57.6" y="76.06656" style="stroke: #000000; stroke-width: 0.8"/>
      </g>
     </g>
     <g id="text_19">
      <!-- 175 -->
      <g transform="translate(35.39375 79.467341) scale(0.1 -0.1)">
       <use xlink:href="#Calibri-31"/>
       <use xlink:href="#Calibri-37" x="50.683594"/>
       <use xlink:href="#Calibri-35" x="101.367188"/>
      </g>
     </g>
    </g>
    <g id="ytick_8">
     <g id="line2d_19">
      <g>
       <use xlink:href="#mdd227ed26a" x="57.6" y="42.80256" style="stroke: #000000; stroke-width: 0.8"/>
      </g>
     </g>
     <g id="text_20">
      <!-- 200 -->
      <g transform="translate(35.39375 46.203341) scale(0.1 -0.1)">
       <use xlink:href="#Calibri-32"/>
       <use xlink:href="#Calibri-30" x="50.683594"/>
       <use xlink:href="#Calibri-30" x="101.367188"/>
      </g>
     </g>
    </g>
    <g id="text_21">
     <!-- $\mathit{Z}$$_{a}$ (nm) -->
     <g transform="translate(29.59375 191.028) rotate(-90) scale(0.1 -0.1)">
      <defs>
       <path id="DejaVuSans-Oblique-5a" d="M 838 4666 
L 4500 4666 
L 4409 4184 
L 794 531 
L 3769 531 
L 3669 0 
L -141 0 
L -50 481 
L 3566 4134 
L 738 4134 
L 838 4666 
z
" transform="scale(0.015625)"/>
       <path id="DejaVuSans-Oblique-61" d="M 3438 1997 
L 3047 0 
L 2472 0 
L 2578 531 
Q 2325 219 2001 64 
Q 1678 -91 1281 -91 
Q 834 -91 548 182 
Q 263 456 263 884 
Q 263 1497 752 1853 
Q 1241 2209 2100 2209 
L 2900 2209 
L 2931 2363 
Q 2938 2388 2941 2417 
Q 2944 2447 2944 2509 
Q 2944 2788 2717 2942 
Q 2491 3097 2081 3097 
Q 1800 3097 1504 3025 
Q 1209 2953 897 2809 
L 997 3341 
Q 1322 3463 1633 3523 
Q 1944 3584 2234 3584 
Q 2853 3584 3176 3315 
Q 3500 3047 3500 2534 
Q 3500 2431 3484 2292 
Q 3469 2153 3438 1997 
z
M 2816 1759 
L 2241 1759 
Q 1534 1759 1195 1570 
Q 856 1381 856 984 
Q 856 709 1029 553 
Q 1203 397 1509 397 
Q 1978 397 2328 733 
Q 2678 1069 2791 1631 
L 2816 1759 
z
" transform="scale(0.015625)"/>
       <path id="Calibri-6e" d="M 2900 78 
Q 2900 53 2887 36 
Q 2875 19 2847 6 
Q 2819 -6 2769 -12 
Q 2719 -19 2644 -19 
Q 2566 -19 2516 -12 
Q 2466 -6 2437 6 
Q 2409 19 2396 36 
Q 2384 53 2384 78 
L 2384 1725 
Q 2384 1966 2346 2112 
Q 2309 2259 2237 2365 
Q 2166 2472 2052 2528 
Q 1938 2584 1788 2584 
Q 1594 2584 1400 2446 
Q 1206 2309 994 2044 
L 994 78 
Q 994 53 981 36 
Q 969 19 941 6 
Q 913 -6 863 -12 
Q 813 -19 734 -19 
Q 659 -19 609 -12 
Q 559 -6 529 6 
Q 500 19 489 36 
Q 478 53 478 78 
L 478 2891 
Q 478 2916 487 2933 
Q 497 2950 525 2964 
Q 553 2978 597 2983 
Q 641 2988 713 2988 
Q 781 2988 826 2983 
Q 872 2978 897 2964 
Q 922 2950 933 2933 
Q 944 2916 944 2891 
L 944 2519 
Q 1181 2784 1417 2907 
Q 1653 3031 1894 3031 
Q 2175 3031 2367 2936 
Q 2559 2841 2678 2681 
Q 2797 2522 2848 2308 
Q 2900 2094 2900 1794 
L 2900 78 
z
" transform="scale(0.015625)"/>
      </defs>
      <use xlink:href="#DejaVuSans-Oblique-5a" transform="translate(0 0.09375)"/>
      <use xlink:href="#DejaVuSans-Oblique-61" transform="translate(69.462891 -16.3125) scale(0.7)"/>
      <use xlink:href="#Calibri-20" transform="translate(115.092773 0.09375)"/>
      <use xlink:href="#Calibri-28" transform="translate(136.575195 0.09375)"/>
      <use xlink:href="#Calibri-6e" transform="translate(166.897461 0.09375)"/>
      <use xlink:href="#Calibri-6d" transform="translate(219.436523 0.09375)"/>
      <use xlink:href="#Calibri-29" transform="translate(299.319336 0.09375)"/>
     </g>
    </g>
   </g>
   <g id="patch_3">
    <path d="M 57.6 307.584 
L 57.6 41.472 
" style="fill: none; stroke: #000000; stroke-width: 0.8; stroke-linejoin: miter; stroke-linecap: square"/>
   </g>
   <g id="patch_4">
    <path d="M 343.296 307.584 
L 343.296 41.472 
" style="fill: none; stroke: #000000; stroke-width: 0.8; stroke-linejoin: miter; stroke-linecap: square"/>
   </g>
   <g id="patch_5">
    <path d="M 57.6 307.584 
L 343.296 307.584 
" style="fill: none; stroke: #000000; stroke-width: 0.8; stroke-linejoin: miter; stroke-linecap: square"/>
   </g>
   <g id="patch_6">
    <path d="M 57.6 41.472 
L 343.296 41.472 
" style="fill: none; stroke: #000000; stroke-width: 0.8; stroke-linejoin: miter; stroke-linecap: square"/>
   </g>
   <g id="text_22">
    <!-- $\lambda$ = 595 nm -->
    <g transform="translate(177.348 35.472) scale(0.1 -0.1)">
     <defs>
      <path id="DejaVuSans-Oblique-3bb" d="M 2350 4316 
L 3125 0 
L 2516 0 
L 2038 2588 
L 328 0 
L -281 0 
L 1903 3356 
L 1794 3975 
Q 1725 4369 1391 4369 
L 1091 4369 
L 1184 4863 
L 1550 4856 
Q 2253 4847 2350 4316 
z
" transform="scale(0.015625)"/>
      <path id="Calibri-3d" d="M 2891 2409 
Q 2891 2284 2855 2236 
Q 2819 2188 2772 2188 
L 409 2188 
Q 363 2188 328 2236 
Q 294 2284 294 2409 
Q 294 2522 325 2575 
Q 356 2628 409 2628 
L 2772 2628 
Q 2828 2628 2859 2575 
Q 2891 2522 2891 2409 
z
M 2891 1194 
Q 2891 1069 2855 1022 
Q 2819 975 2772 975 
L 409 975 
Q 363 975 328 1022 
Q 294 1069 294 1194 
Q 294 1309 325 1362 
Q 356 1416 409 1416 
L 2772 1416 
Q 2828 1416 2859 1362 
Q 2891 1309 2891 1194 
z
" transform="scale(0.015625)"/>
     </defs>
     <use xlink:href="#DejaVuSans-Oblique-3bb" transform="translate(0 0.015625)"/>
     <use xlink:href="#Calibri-20" transform="translate(59.179688 0.015625)"/>
     <use xlink:href="#Calibri-3d" transform="translate(81.787109 0.015625)"/>
     <use xlink:href="#Calibri-20" transform="translate(131.591797 0.015625)"/>
     <use xlink:href="#Calibri-35" transform="translate(154.199219 0.015625)"/>
     <use xlink:href="#Calibri-39" transform="translate(204.882812 0.015625)"/>
     <use xlink:href="#Calibri-35" transform="translate(255.566406 0.015625)"/>
     <use xlink:href="#Calibri-20" transform="translate(306.25 0.015625)"/>
     <use xlink:href="#Calibri-6e" transform="translate(328.857422 0.015625)"/>
     <use xlink:href="#Calibri-6d" transform="translate(381.396484 0.015625)"/>
    </g>
   </g>
  </g>
  <g id="axes_2">
   <g id="patch_7">
    <path d="M 361.152 307.584 
L 374.4576 307.584 
L 374.4576 41.472 
L 361.152 41.472 
z
" style="fill: #ffffff"/>
   </g>
   <g id="QuadMesh_1">
    <path d="M 361.152 307.584 
L 374.4576 307.584 
L 374.4576 280.9728 
L 361.152 280.9728 
L 361.152 307.584 
" clip-path="url(#p6f9e971461)" style="fill: #0000b6"/>
    <path d="M 361.152 280.9728 
L 374.4576 280.9728 
L 374.4576 254.3616 
L 361.152 254.3616 
L 361.152 280.9728 
" clip-path="url(#p6f9e971461)" style="fill: #0018ff"/>
    <path d="M 361.152 254.3616 
L 374.4576 254.3616 
L 374.4576 227.7504 
L 361.152 227.7504 
L 361.152 254.3616 
" clip-path="url(#p6f9e971461)" style="fill: #0080ff"/>
    <path d="M 361.152 227.7504 
L 374.4576 227.7504 
L 374.4576 201.1392 
L 361.152 201.1392 
L 361.152 227.7504 
" clip-path="url(#p6f9e971461)" style="fill: #00e4f8"/>
    <path d="M 361.152 201.1392 
L 374.4576 201.1392 
L 374.4576 174.528 
L 361.152 174.528 
L 361.152 201.1392 
" clip-path="url(#p6f9e971461)" style="fill: #53ffa4"/>
    <path d="M 361.152 174.528 
L 374.4576 174.528 
L 374.4576 147.9168 
L 361.152 147.9168 
L 361.152 174.528 
" clip-path="url(#p6f9e971461)" style="fill: #a4ff53"/>
    <path d="M 361.152 147.9168 
L 374.4576 147.9168 
L 374.4576 121.3056 
L 361.152 121.3056 
L 361.152 147.9168 
" clip-path="url(#p6f9e971461)" style="fill: #f8f500"/>
    <path d="M 361.152 121.3056 
L 374.4576 121.3056 
L 374.4576 94.6944 
L 361.152 94.6944 
L 361.152 121.3056 
" clip-path="url(#p6f9e971461)" style="fill: #ff9400"/>
    <path d="M 361.152 94.6944 
L 374.4576 94.6944 
L 374.4576 68.0832 
L 361.152 68.0832 
L 361.152 94.6944 
" clip-path="url(#p6f9e971461)" style="fill: #ff3800"/>
    <path d="M 361.152 68.0832 
L 374.4576 68.0832 
L 374.4576 41.472 
L 361.152 41.472 
L 361.152 68.0832 
" clip-path="url(#p6f9e971461)" style="fill: #b60000"/>
   </g>
   <g id="matplotlib.axis_3"/>
   <g id="matplotlib.axis_4">
    <g id="ytick_9">
     <g id="line2d_20">
      <defs>
       <path id="m0aa9020cd5" d="M 0 0 
L 3.5 0 
" style="stroke: #000000; stroke-width: 0.8"/>
      </defs>
      <g>
       <use xlink:href="#m0aa9020cd5" x="374.4576" y="307.584" style="stroke: #000000; stroke-width: 0.8"/>
      </g>
     </g>
     <g id="text_23">
      <!-- 0 -->
      <g transform="translate(381.4576 310.984781) scale(0.1 -0.1)">
       <use xlink:href="#Calibri-30"/>
      </g>
     </g>
    </g>
    <g id="ytick_10">
     <g id="line2d_21">
      <g>
       <use xlink:href="#m0aa9020cd5" x="374.4576" y="280.9728" style="stroke: #000000; stroke-width: 0.8"/>
      </g>
     </g>
     <g id="text_24">
      <!-- 0.1 -->
      <g transform="translate(381.4576 284.373581) scale(0.1 -0.1)">
       <use xlink:href="#Calibri-30"/>
       <use xlink:href="#Calibri-2e" x="50.683594"/>
       <use xlink:href="#Calibri-31" x="75.927734"/>
      </g>
     </g>
    </g>
    <g id="ytick_11">
     <g id="line2d_22">
      <g>
       <use xlink:href="#m0aa9020cd5" x="374.4576" y="254.3616" style="stroke: #000000; stroke-width: 0.8"/>
      </g>
     </g>
     <g id="text_25">
      <!-- 0.2 -->
      <g transform="translate(381.4576 257.762381) scale(0.1 -0.1)">
       <use xlink:href="#Calibri-30"/>
       <use xlink:href="#Calibri-2e" x="50.683594"/>
       <use xlink:href="#Calibri-32" x="75.927734"/>
      </g>
     </g>
    </g>
    <g id="ytick_12">
     <g id="line2d_23">
      <g>
       <use xlink:href="#m0aa9020cd5" x="374.4576" y="227.7504" style="stroke: #000000; stroke-width: 0.8"/>
      </g>
     </g>
     <g id="text_26">
      <!-- 0.3 -->
      <g transform="translate(381.4576 231.151181) scale(0.1 -0.1)">
       <use xlink:href="#Calibri-30"/>
       <use xlink:href="#Calibri-2e" x="50.683594"/>
       <use xlink:href="#Calibri-33" x="75.927734"/>
      </g>
     </g>
    </g>
    <g id="ytick_13">
     <g id="line2d_24">
      <g>
       <use xlink:href="#m0aa9020cd5" x="374.4576" y="201.1392" style="stroke: #000000; stroke-width: 0.8"/>
      </g>
     </g>
     <g id="text_27">
      <!-- 0.4 -->
      <g transform="translate(381.4576 204.539981) scale(0.1 -0.1)">
       <use xlink:href="#Calibri-30"/>
       <use xlink:href="#Calibri-2e" x="50.683594"/>
       <use xlink:href="#Calibri-34" x="75.927734"/>
      </g>
     </g>
    </g>
    <g id="ytick_14">
     <g id="line2d_25">
      <g>
       <use xlink:href="#m0aa9020cd5" x="374.4576" y="174.528" style="stroke: #000000; stroke-width: 0.8"/>
      </g>
     </g>
     <g id="text_28">
      <!-- 0.5 -->
      <g transform="translate(381.4576 177.928781) scale(0.1 -0.1)">
       <use xlink:href="#Calibri-30"/>
       <use xlink:href="#Calibri-2e" x="50.683594"/>
       <use xlink:href="#Calibri-35" x="75.927734"/>
      </g>
     </g>
    </g>
    <g id="ytick_15">
     <g id="line2d_26">
      <g>
       <use xlink:href="#m0aa9020cd5" x="374.4576" y="147.9168" style="stroke: #000000; stroke-width: 0.8"/>
      </g>
     </g>
     <g id="text_29">
      <!-- 0.6 -->
      <g transform="translate(381.4576 151.317581) scale(0.1 -0.1)">
       <use xlink:href="#Calibri-30"/>
       <use xlink:href="#Calibri-2e" x="50.683594"/>
       <use xlink:href="#Calibri-36" x="75.927734"/>
      </g>
     </g>
    </g>
    <g id="ytick_16">
     <g id="line2d_27">
      <g>
       <use xlink:href="#m0aa9020cd5" x="374.4576" y="121.3056" style="stroke: #000000; stroke-width: 0.8"/>
      </g>
     </g>
     <g id="text_30">
      <!-- 0.7 -->
      <g transform="translate(381.4576 124.706381) scale(0.1 -0.1)">
       <use xlink:href="#Calibri-30"/>
       <use xlink:href="#Calibri-2e" x="50.683594"/>
       <use xlink:href="#Calibri-37" x="75.927734"/>
      </g>
     </g>
    </g>
    <g id="ytick_17">
     <g id="line2d_28">
      <g>
       <use xlink:href="#m0aa9020cd5" x="374.4576" y="94.6944" style="stroke: #000000; stroke-width: 0.8"/>
      </g>
     </g>
     <g id="text_31">
      <!-- 0.8 -->
      <g transform="translate(381.4576 98.095181) scale(0.1 -0.1)">
       <use xlink:href="#Calibri-30"/>
       <use xlink:href="#Calibri-2e" x="50.683594"/>
       <use xlink:href="#Calibri-38" x="75.927734"/>
      </g>
     </g>
    </g>
    <g id="ytick_18">
     <g id="line2d_29">
      <g>
       <use xlink:href="#m0aa9020cd5" x="374.4576" y="68.0832" style="stroke: #000000; stroke-width: 0.8"/>
      </g>
     </g>
     <g id="text_32">
      <!-- 0.9 -->
      <g transform="translate(381.4576 71.483981) scale(0.1 -0.1)">
       <use xlink:href="#Calibri-30"/>
       <use xlink:href="#Calibri-2e" x="50.683594"/>
       <use xlink:href="#Calibri-39" x="75.927734"/>
      </g>
     </g>
    </g>
    <g id="ytick_19">
     <g id="line2d_30">
      <g>
       <use xlink:href="#m0aa9020cd5" x="374.4576" y="41.472" style="stroke: #000000; stroke-width: 0.8"/>
      </g>
     </g>
     <g id="text_33">
      <!-- 1.0 -->
      <g transform="translate(381.4576 44.872781) scale(0.1 -0.1)">
       <use xlink:href="#Calibri-31"/>
       <use xlink:href="#Calibri-2e" x="50.683594"/>
       <use xlink:href="#Calibri-30" x="75.927734"/>
      </g>
     </g>
    </g>
   </g>
   <g id="LineCollection_1"/>
   <g id="patch_8">
    <path d="M 361.152 307.584 
L 367.8048 307.584 
L 374.4576 307.584 
L 374.4576 41.472 
L 367.8048 41.472 
L 361.152 41.472 
L 361.152 307.584 
z
" style="fill: none; stroke: #000000; stroke-width: 0.8; stroke-linejoin: miter; stroke-linecap: square"/>
   </g>
   <g id="text_34">
    <!-- $\mathit{E}_{\mathrm{dis}}$/$\mathit{E}_{\mathrm{i}}$ -->
    <g transform="translate(353.2548 35.472) scale(0.1 -0.1)">
     <defs>
      <path id="DejaVuSans-Oblique-45" d="M 1081 4666 
L 4031 4666 
L 3928 4134 
L 1606 4134 
L 1338 2753 
L 3566 2753 
L 3463 2222 
L 1234 2222 
L 909 531 
L 3284 531 
L 3181 0 
L 172 0 
L 1081 4666 
z
" transform="scale(0.015625)"/>
      <path id="DejaVuSans-64" d="M 2906 2969 
L 2906 4863 
L 3481 4863 
L 3481 0 
L 2906 0 
L 2906 525 
Q 2725 213 2448 61 
Q 2172 -91 1784 -91 
Q 1150 -91 751 415 
Q 353 922 353 1747 
Q 353 2572 751 3078 
Q 1150 3584 1784 3584 
Q 2172 3584 2448 3432 
Q 2725 3281 2906 2969 
z
M 947 1747 
Q 947 1113 1208 752 
Q 1469 391 1925 391 
Q 2381 391 2643 752 
Q 2906 1113 2906 1747 
Q 2906 2381 2643 2742 
Q 2381 3103 1925 3103 
Q 1469 3103 1208 2742 
Q 947 2381 947 1747 
z
" transform="scale(0.015625)"/>
      <path id="DejaVuSans-69" d="M 603 3500 
L 1178 3500 
L 1178 0 
L 603 0 
L 603 3500 
z
M 603 4863 
L 1178 4863 
L 1178 4134 
L 603 4134 
L 603 4863 
z
" transform="scale(0.015625)"/>
      <path id="DejaVuSans-73" d="M 2834 3397 
L 2834 2853 
Q 2591 2978 2328 3040 
Q 2066 3103 1784 3103 
Q 1356 3103 1142 2972 
Q 928 2841 928 2578 
Q 928 2378 1081 2264 
Q 1234 2150 1697 2047 
L 1894 2003 
Q 2506 1872 2764 1633 
Q 3022 1394 3022 966 
Q 3022 478 2636 193 
Q 2250 -91 1575 -91 
Q 1294 -91 989 -36 
Q 684 19 347 128 
L 347 722 
Q 666 556 975 473 
Q 1284 391 1588 391 
Q 1994 391 2212 530 
Q 2431 669 2431 922 
Q 2431 1156 2273 1281 
Q 2116 1406 1581 1522 
L 1381 1569 
Q 847 1681 609 1914 
Q 372 2147 372 2553 
Q 372 3047 722 3315 
Q 1072 3584 1716 3584 
Q 2034 3584 2315 3537 
Q 2597 3491 2834 3397 
z
" transform="scale(0.015625)"/>
     </defs>
     <use xlink:href="#DejaVuSans-Oblique-45" transform="translate(0 0.09375)"/>
     <use xlink:href="#DejaVuSans-64" transform="translate(63.183594 -16.3125) scale(0.7)"/>
     <use xlink:href="#DejaVuSans-69" transform="translate(107.617188 -16.3125) scale(0.7)"/>
     <use xlink:href="#DejaVuSans-73" transform="translate(127.06543 -16.3125) scale(0.7)"/>
     <use xlink:href="#Calibri-2f" transform="translate(166.269531 0.09375)"/>
     <use xlink:href="#DejaVuSans-Oblique-45" transform="translate(204.892578 0.09375)"/>
     <use xlink:href="#DejaVuSans-69" transform="translate(268.076172 -16.3125) scale(0.7)"/>
    </g>
   </g>
  </g>
 </g>
 <defs>
  <clipPath id="pdecd0528dc">
   <rect x="57.6" y="41.472" width="285.696" height="266.112"/>
  </clipPath>
  <clipPath id="p6f9e971461">
   <rect x="361.152" y="41.472" width="13.3056" height="266.112"/>
  </clipPath>
 </defs>
</svg>
