<?xml version="1.0" encoding="utf-8" standalone="no"?>
<!DOCTYPE svg PUBLIC "-//W3C//DTD SVG 1.1//EN"
  "http://www.w3.org/Graphics/SVG/1.1/DTD/svg11.dtd">
<svg xmlns:xlink="http://www.w3.org/1999/xlink" width="460.8pt" height="345.6pt" viewBox="0 0 460.8 345.6" xmlns="http://www.w3.org/2000/svg" version="1.1">
 <metadata>
  <rdf:RDF xmlns:dc="http://purl.org/dc/elements/1.1/" xmlns:cc="http://creativecommons.org/ns#" xmlns:rdf="http://www.w3.org/1999/02/22-rdf-syntax-ns#">
   <cc:Work>
    <dc:type rdf:resource="http://purl.org/dc/dcmitype/StillImage"/>
    <dc:date>2024-01-22T08:48:36.257770</dc:date>
    <dc:format>image/svg+xml</dc:format>
    <dc:creator>
     <cc:Agent>
      <dc:title>Matplotlib v3.7.1, https://matplotlib.org/</dc:title>
     </cc:Agent>
    </dc:creator>
   </cc:Work>
  </rdf:RDF>
 </metadata>
 <defs>
  <style type="text/css">*{stroke-linejoin: round; stroke-linecap: butt}</style>
 </defs>
 <g id="figure_1">
  <g id="patch_1">
   <path d="M 0 345.6 
L 460.8 345.6 
L 460.8 0 
L 0 0 
z
" style="fill: #ffffff"/>
  </g>
  <g id="axes_1">
   <g id="patch_2">
    <path d="M 57.6 307.584 
L 343.296 307.584 
L 343.296 41.472 
L 57.6 41.472 
z
" style="fill: #ffffff"/>
   </g>
   <g id="PathCollection_1">
    <path clip-path="url(#p8ed0b04a90)" style="fill: #0000b6"/>
   </g>
   <g id="PathCollection_2">
    <path d="M 57.62857 44.957096 
L 57.652053 44.922168 
L 57.733209 44.7984 
L 58.562742 43.511382 
L 59.24133 42.44628 
L 59.599086 41.87603 
L 59.85155 41.472 
L 59.152282 41.472 
L 57.62857 41.472 
L 57.62857 44.7984 
" clip-path="url(#p8ed0b04a90)" style="fill: #0018ff"/>
   </g>
   <g id="PathCollection_3">
    <path d="M 59.85155 41.472 
L 59.599086 41.87603 
L 59.24133 42.44628 
L 58.562742 43.511382 
L 57.733209 44.7984 
L 57.652053 44.922168 
L 57.62857 44.957096 
L 57.62857 48.1248 
L 57.62857 51.4512 
L 57.62857 54.7776 
L 57.62857 58.104 
L 57.62857 61.4304 
L 57.62857 64.7568 
L 57.62857 68.0832 
L 57.62857 71.4096 
L 57.62857 74.736 
L 57.62857 78.0624 
L 57.62857 81.3888 
L 57.62857 84.7152 
L 57.62857 88.0416 
L 57.62857 91.368 
L 57.62857 94.6944 
L 57.62857 98.0208 
L 57.62857 100.058518 
L 57.965184 99.794907 
L 58.56288 99.307516 
L 59.423805 98.61356 
L 60.144915 98.0208 
L 60.603391 97.638152 
L 60.776442 97.49139 
L 61.63042 96.777999 
L 62.933199 95.66868 
L 63.109261 95.516879 
L 64.058976 94.6944 
L 64.660975 94.164361 
L 65.163369 93.72012 
L 65.986787 92.982738 
L 66.564429 92.455887 
L 66.917087 92.138777 
L 67.761363 91.368 
L 68.135593 91.020974 
L 68.695746 90.492161 
L 69.50798 89.732655 
L 70.263296 89.01588 
L 70.263726 89.015472 
L 71.27318 88.0416 
L 71.306256 88.009298 
L 72.267558 87.06732 
L 72.371935 86.963689 
L 72.454983 86.879806 
L 73.145727 86.191122 
L 74.202988 85.122158 
L 74.458497 84.866042 
L 74.60642 84.7152 
L 75.698419 83.583665 
L 76.234686 83.020369 
L 76.523331 82.720959 
L 76.862603 82.36308 
L 77.619405 81.553901 
L 77.66755 81.502907 
L 77.773429 81.3888 
L 78.05207 81.084525 
L 78.669636 80.41452 
L 79.279192 79.741852 
L 80.172263 78.743495 
L 80.585951 78.284424 
L 80.782828 78.0624 
L 81.789092 76.908859 
L 82.350483 76.25716 
L 82.582687 75.990676 
L 82.823193 75.71028 
L 83.597149 74.795207 
L 83.647146 74.736 
L 83.999061 74.313358 
L 84.459797 73.76172 
L 84.555735 73.645218 
L 84.65425 73.52376 
L 85.305759 72.729177 
L 86.374876 71.4096 
L 86.50455 71.246855 
L 86.862497 70.790913 
L 87.76787 69.644317 
L 88.22589 69.05748 
L 88.574129 68.60367 
L 88.976592 68.0832 
L 89.240807 67.734411 
L 89.71439 67.10892 
L 90.327523 66.28715 
L 91.044924 65.311829 
L 91.212692 65.085984 
L 91.454537 64.7568 
L 92.200719 63.723703 
L 93.140228 62.40468 
L 93.377464 62.066567 
L 93.528897 61.853224 
L 93.82398 61.4304 
L 94.307102 60.730961 
L 94.493726 60.45612 
L 94.611208 60.283592 
L 94.960054 59.76602 
L 95.868065 58.424249 
L 96.081896 58.104 
L 96.984194 56.729008 
L 97.619048 55.75188 
L 97.997994 55.158806 
L 98.243708 54.7776 
L 98.434275 54.475107 
L 98.858124 53.80332 
L 99.426804 52.887695 
L 100.285663 51.487266 
L 100.296135 51.470329 
L 100.307852 51.4512 
L 101.164305 50.028016 
L 101.716459 49.09908 
L 102.123682 48.40283 
L 102.285603 48.1248 
L 102.797474 47.237484 
L 102.847919 47.15052 
L 102.873285 47.106074 
L 102.916676 47.029137 
L 103.33993 46.278721 
L 103.33993 44.7984 
L 103.33993 41.472 
L 101.816218 41.472 
L 100.292506 41.472 
L 98.768794 41.472 
L 97.245082 41.472 
L 95.72137 41.472 
L 94.197658 41.472 
L 92.673946 41.472 
L 91.150234 41.472 
L 89.626522 41.472 
L 88.10281 41.472 
L 86.579098 41.472 
L 85.055386 41.472 
L 83.531674 41.472 
L 82.007962 41.472 
L 80.48425 41.472 
L 78.960538 41.472 
L 77.436826 41.472 
L 75.913114 41.472 
L 74.389402 41.472 
L 72.86569 41.472 
L 71.341978 41.472 
L 69.818266 41.472 
L 68.294554 41.472 
L 66.770842 41.472 
L 65.24713 41.472 
L 63.723418 41.472 
L 62.199706 41.472 
L 60.675994 41.472 
" clip-path="url(#p8ed0b04a90)" style="fill: #0080ff"/>
   </g>
   <g id="PathCollection_4">
    <path d="M 103.33993 46.278721 
L 102.916676 47.029137 
L 102.873285 47.106074 
L 102.847919 47.15052 
L 102.797474 47.237484 
L 102.285603 48.1248 
L 102.123682 48.40283 
L 101.716459 49.09908 
L 101.164305 50.028016 
L 100.307852 51.4512 
L 100.296135 51.470329 
L 100.285663 51.487266 
L 99.426804 52.887695 
L 98.858124 53.80332 
L 98.434275 54.475107 
L 98.243708 54.7776 
L 97.997994 55.158806 
L 97.619048 55.75188 
L 96.984194 56.729008 
L 96.081896 58.104 
L 95.868065 58.424249 
L 94.960054 59.76602 
L 94.611208 60.283592 
L 94.493726 60.45612 
L 94.307102 60.730961 
L 93.82398 61.4304 
L 93.528897 61.853224 
L 93.377464 62.066567 
L 93.140228 62.40468 
L 92.200719 63.723703 
L 91.454537 64.7568 
L 91.212692 65.085984 
L 91.044924 65.311829 
L 90.327523 66.28715 
L 89.71439 67.10892 
L 89.240807 67.734411 
L 88.976592 68.0832 
L 88.574129 68.60367 
L 88.22589 69.05748 
L 87.76787 69.644317 
L 86.862497 70.790913 
L 86.50455 71.246855 
L 86.374876 71.4096 
L 85.305759 72.729177 
L 84.65425 73.52376 
L 84.555735 73.645218 
L 84.459797 73.76172 
L 83.999061 74.313358 
L 83.647146 74.736 
L 83.597149 74.795207 
L 82.823193 75.71028 
L 82.582687 75.990676 
L 82.350483 76.25716 
L 81.789092 76.908859 
L 80.782828 78.0624 
L 80.585951 78.284424 
L 80.172263 78.743495 
L 79.279192 79.741852 
L 78.669636 80.41452 
L 78.05207 81.084525 
L 77.773429 81.3888 
L 77.66755 81.502907 
L 77.619405 81.553901 
L 76.862603 82.36308 
L 76.523331 82.720959 
L 76.234686 83.020369 
L 75.698419 83.583665 
L 74.60642 84.7152 
L 74.458497 84.866042 
L 74.202988 85.122158 
L 73.145727 86.191122 
L 72.454983 86.879806 
L 72.371935 86.963689 
L 72.267558 87.06732 
L 71.306256 88.009298 
L 71.27318 88.0416 
L 70.263726 89.015472 
L 70.263296 89.01588 
L 69.50798 89.732655 
L 68.695746 90.492161 
L 68.135593 91.020974 
L 67.761363 91.368 
L 66.917087 92.138777 
L 66.564429 92.455887 
L 65.986787 92.982738 
L 65.163369 93.72012 
L 64.660975 94.164361 
L 64.058976 94.6944 
L 63.109261 95.516879 
L 62.933199 95.66868 
L 61.63042 96.777999 
L 60.776442 97.49139 
L 60.603391 97.638152 
L 60.144915 98.0208 
L 59.423805 98.61356 
L 58.56288 99.307516 
L 57.965184 99.794907 
L 57.62857 100.058518 
L 57.62857 101.3472 
L 57.62857 104.6736 
L 57.62857 108 
L 57.62857 111.3264 
L 57.62857 114.6528 
L 57.62857 117.9792 
L 57.62857 121.3056 
L 57.62857 124.632 
L 57.62857 127.9584 
L 57.62857 131.2848 
L 57.62857 134.6112 
L 57.62857 137.9376 
L 57.62857 140.981774 
L 57.788917 140.913948 
L 58.450757 140.629635 
L 59.23045 140.28972 
L 60.061982 139.923557 
L 60.321564 139.805599 
L 60.975564 139.516467 
L 61.608292 139.228708 
L 62.591183 138.792231 
L 63.653643 138.305341 
L 63.782307 138.247975 
L 64.459013 137.9376 
L 65.10879 137.635591 
L 65.463274 137.465736 
L 66.581896 136.941774 
L 66.997769 136.741593 
L 67.614302 136.45255 
L 69.361655 135.608021 
L 69.375056 135.60169 
L 69.40844 135.58548 
L 71.293584 134.654961 
L 71.356235 134.624092 
L 71.382124 134.6112 
L 72.874248 133.861867 
L 73.312181 133.637107 
L 73.312548 133.63692 
L 75.055319 132.738557 
L 75.702421 132.395245 
L 76.086119 132.196616 
L 77.31908 131.541849 
L 77.509257 131.442924 
L 77.804607 131.2848 
L 78.852584 130.715838 
L 79.093978 130.581512 
L 79.949196 130.11673 
L 81.387505 129.312913 
L 81.610623 129.190651 
L 82.069948 128.93268 
L 82.249946 128.831641 
L 83.113465 128.336572 
L 83.626361 128.044022 
L 83.662919 128.023309 
L 83.775077 127.9584 
L 85.064339 127.209262 
L 85.443685 126.98412 
L 85.495805 126.953206 
L 85.523544 126.936368 
L 87.181807 125.947768 
L 87.941386 125.482772 
L 88.231293 125.309164 
L 89.336237 124.632 
L 89.562168 124.49151 
L 89.744026 124.375477 
L 90.957191 123.614579 
L 91.396771 123.332638 
L 91.926411 123.000066 
L 93.044179 122.27988 
L 93.455128 122.011996 
L 94.529987 121.3056 
L 95.03866 120.96796 
L 95.215477 120.848139 
L 95.983751 120.33132 
L 96.605063 119.908383 
L 96.92084 119.688096 
L 97.49484 119.29554 
L 98.481481 118.606429 
L 98.918462 118.305941 
L 99.382113 117.9792 
L 100.183695 117.405721 
L 100.436314 117.221268 
L 101.21389 116.664264 
L 102.627665 115.62708 
L 102.773706 115.518623 
L 103.032238 115.324517 
L 103.33993 115.091685 
L 103.33993 114.6528 
L 103.33993 111.3264 
L 103.33993 108 
L 103.33993 104.6736 
L 103.33993 101.3472 
L 103.33993 98.0208 
L 103.33993 94.6944 
L 103.33993 91.368 
L 103.33993 88.0416 
L 103.33993 84.7152 
L 103.33993 81.3888 
L 103.33993 78.0624 
L 103.33993 74.736 
L 103.33993 71.4096 
L 103.33993 68.0832 
L 103.33993 64.7568 
L 103.33993 61.4304 
L 103.33993 58.104 
L 103.33993 54.7776 
L 103.33993 51.4512 
L 103.33993 48.1248 
" clip-path="url(#p8ed0b04a90)" style="fill: #00e4f8"/>
   </g>
   <g id="PathCollection_5">
    <path d="M 103.33993 115.091685 
L 103.032238 115.324517 
L 102.773706 115.518623 
L 102.627665 115.62708 
L 101.21389 116.664264 
L 100.436314 117.221268 
L 100.183695 117.405721 
L 99.382113 117.9792 
L 98.918462 118.305941 
L 98.481481 118.606429 
L 97.49484 119.29554 
L 96.92084 119.688096 
L 96.605063 119.908383 
L 95.983751 120.33132 
L 95.215477 120.848139 
L 95.03866 120.96796 
L 94.529987 121.3056 
L 93.455128 122.011996 
L 93.044179 122.27988 
L 91.926411 123.000066 
L 91.396771 123.332638 
L 90.957191 123.614579 
L 89.744026 124.375477 
L 89.562168 124.49151 
L 89.336237 124.632 
L 88.231293 125.309164 
L 87.941386 125.482772 
L 87.181807 125.947768 
L 85.523544 126.936368 
L 85.495805 126.953206 
L 85.443685 126.98412 
L 85.064339 127.209262 
L 83.775077 127.9584 
L 83.662919 128.023309 
L 83.626361 128.044022 
L 83.113465 128.336572 
L 82.249946 128.831641 
L 82.069948 128.93268 
L 81.610623 129.190651 
L 81.387505 129.312913 
L 79.949196 130.11673 
L 79.093978 130.581512 
L 78.852584 130.715838 
L 77.804607 131.2848 
L 77.509257 131.442924 
L 77.31908 131.541849 
L 76.086119 132.196616 
L 75.702421 132.395245 
L 75.055319 132.738557 
L 73.312548 133.63692 
L 73.312181 133.637107 
L 72.874248 133.861867 
L 71.382124 134.6112 
L 71.356235 134.624092 
L 71.293584 134.654961 
L 69.40844 135.58548 
L 69.375056 135.60169 
L 69.361655 135.608021 
L 67.614302 136.45255 
L 66.997769 136.741593 
L 66.581896 136.941774 
L 65.463274 137.465736 
L 65.10879 137.635591 
L 64.459013 137.9376 
L 63.782307 138.247975 
L 63.653643 138.305341 
L 62.591183 138.792231 
L 61.608292 139.228708 
L 60.975564 139.516467 
L 60.321564 139.805599 
L 60.061982 139.923557 
L 59.23045 140.28972 
L 58.450757 140.629635 
L 57.788917 140.913948 
L 57.62857 140.981774 
L 57.62857 141.264 
L 57.62857 144.5904 
L 57.62857 147.9168 
L 57.62857 151.2432 
L 57.62857 154.5696 
L 57.62857 157.896 
L 57.62857 161.2224 
L 57.62857 164.5488 
L 57.62857 167.8752 
L 57.62857 171.2016 
L 57.62857 174.445228 
L 57.670326 174.436842 
L 58.794544 174.20451 
L 59.729228 174.006287 
L 60.726064 173.799197 
L 61.265651 173.683367 
L 61.872521 173.55372 
L 63.151014 173.278391 
L 63.337432 173.235914 
L 64.078992 173.075638 
L 64.424811 172.996794 
L 65.920769 172.672216 
L 66.517818 172.535145 
L 67.003786 172.429318 
L 67.817837 172.242314 
L 68.684482 172.05285 
L 69.701388 171.817599 
L 69.9258 171.768357 
L 71.219548 171.468875 
L 71.441963 171.419877 
L 72.378234 171.2016 
L 72.844816 171.091589 
L 72.888624 171.080724 
L 74.193054 170.772956 
L 74.636297 170.662605 
L 75.760168 170.39551 
L 76.081291 170.315232 
L 76.937533 170.111599 
L 78.065825 169.828438 
L 78.672424 169.683115 
L 79.277588 169.530606 
L 79.675162 169.435289 
L 81.505457 168.972213 
L 81.58148 168.953851 
L 81.992264 168.84948 
L 82.297517 168.771968 
L 82.63876 168.682631 
L 84.028949 168.324869 
L 85.74046 167.8752 
L 86.28693 167.730706 
L 86.388649 167.702983 
L 86.93266 167.555485 
L 88.262832 167.200775 
L 88.736656 167.070525 
L 89.356877 166.90092 
L 90.552779 166.570902 
L 90.779009 166.505316 
L 91.48437 166.309847 
L 91.925964 166.18171 
L 93.252741 165.812362 
L 93.999343 165.594005 
L 94.375993 165.488706 
L 95.432502 165.179424 
L 95.944383 165.035659 
L 97.224371 164.657952 
L 97.263688 164.646862 
L 97.595684 164.5488 
L 98.627439 164.24021 
L 98.957561 164.136704 
L 100.146304 163.778251 
L 100.457297 163.680277 
L 101.301634 163.425417 
L 102.505269 163.044539 
L 103.02453 162.886504 
L 103.33993 162.781542 
L 103.33993 161.2224 
L 103.33993 157.896 
L 103.33993 154.5696 
L 103.33993 151.2432 
L 103.33993 147.9168 
L 103.33993 144.5904 
L 103.33993 141.264 
L 103.33993 137.9376 
L 103.33993 134.6112 
L 103.33993 131.2848 
L 103.33993 127.9584 
L 103.33993 124.632 
L 103.33993 121.3056 
L 103.33993 117.9792 
" clip-path="url(#p8ed0b04a90)" style="fill: #53ffa4"/>
   </g>
   <g id="PathCollection_6">
    <path d="M 103.33993 162.781542 
L 103.02453 162.886504 
L 102.505269 163.044539 
L 101.301634 163.425417 
L 100.457297 163.680277 
L 100.146304 163.778251 
L 98.957561 164.136704 
L 98.627439 164.24021 
L 97.595684 164.5488 
L 97.263688 164.646862 
L 97.224371 164.657952 
L 95.944383 165.035659 
L 95.432502 165.179424 
L 94.375993 165.488706 
L 93.999343 165.594005 
L 93.252741 165.812362 
L 91.925964 166.18171 
L 91.48437 166.309847 
L 90.779009 166.505316 
L 90.552779 166.570902 
L 89.356877 166.90092 
L 88.736656 167.070525 
L 88.262832 167.200775 
L 86.93266 167.555485 
L 86.388649 167.702983 
L 86.28693 167.730706 
L 85.74046 167.8752 
L 84.028949 168.324869 
L 82.63876 168.682631 
L 82.297517 168.771968 
L 81.992264 168.84948 
L 81.58148 168.953851 
L 81.505457 168.972213 
L 79.675162 169.435289 
L 79.277588 169.530606 
L 78.672424 169.683115 
L 78.065825 169.828438 
L 76.937533 170.111599 
L 76.081291 170.315232 
L 75.760168 170.39551 
L 74.636297 170.662605 
L 74.193054 170.772956 
L 72.888624 171.080724 
L 72.844816 171.091589 
L 72.378234 171.2016 
L 71.441963 171.419877 
L 71.219548 171.468875 
L 69.9258 171.768357 
L 69.701388 171.817599 
L 68.684482 172.05285 
L 67.817837 172.242314 
L 67.003786 172.429318 
L 66.517818 172.535145 
L 65.920769 172.672216 
L 64.424811 172.996794 
L 64.078992 173.075638 
L 63.337432 173.235914 
L 63.151014 173.278391 
L 61.872521 173.55372 
L 61.265651 173.683367 
L 60.726064 173.799197 
L 59.729228 174.006287 
L 58.794544 174.20451 
L 57.670326 174.436842 
L 57.62857 174.445228 
L 57.62857 174.528 
L 57.62857 177.8544 
L 57.62857 181.1808 
L 57.62857 184.5072 
L 57.62857 187.8336 
L 57.62857 191.16 
L 57.62857 194.4864 
L 57.62857 197.8128 
L 57.62857 201.1392 
L 57.62857 203.555724 
L 57.802954 203.546515 
L 58.710203 203.500502 
L 59.619935 203.44467 
L 60.474035 203.40119 
L 60.882718 203.37607 
L 61.682025 203.335458 
L 62.747427 203.269876 
L 63.489364 203.232035 
L 63.963011 203.202834 
L 64.652619 203.167731 
L 65.876247 203.092181 
L 66.504165 203.060095 
L 67.043851 203.026721 
L 67.621947 202.997239 
L 69.006437 202.911494 
L 69.51842 202.885283 
L 70.125253 202.84764 
L 70.589968 202.823895 
L 72.138041 202.727722 
L 72.532114 202.707508 
L 73.207236 202.665498 
L 73.556642 202.647611 
L 75.271104 202.540764 
L 75.545227 202.526675 
L 76.289819 202.480196 
L 76.521925 202.46829 
L 78.405674 202.350517 
L 78.557742 202.342687 
L 79.373021 202.29163 
L 79.485773 202.285836 
L 81.541799 202.156874 
L 81.569638 202.155438 
L 82.237444 202.11348 
L 82.429837 202.101408 
L 82.47067 202.098629 
L 84.453769 201.973019 
L 85.131398 201.930358 
L 85.75099 201.888029 
L 87.298439 201.789676 
L 88.473499 201.709438 
L 89.035785 201.673383 
L 90.139416 201.602993 
L 90.516042 201.57912 
L 92.325211 201.454548 
L 92.976575 201.412857 
L 95.522304 201.23765 
L 95.619434 201.231377 
L 95.809783 201.219149 
L 95.874654 201.215008 
L 96.966757 201.1392 
L 98.546992 201.029506 
L 98.639779 201.022537 
L 98.92103 201.001538 
L 101.214597 200.841663 
L 101.466186 200.822679 
L 102.22957 200.765419 
L 103.13946 200.701557 
L 103.33993 200.684205 
L 103.33993 197.8128 
L 103.33993 194.4864 
L 103.33993 191.16 
L 103.33993 187.8336 
L 103.33993 184.5072 
L 103.33993 181.1808 
L 103.33993 177.8544 
L 103.33993 174.528 
L 103.33993 171.2016 
L 103.33993 167.8752 
L 103.33993 164.5488 
" clip-path="url(#p8ed0b04a90)" style="fill: #a4ff53"/>
   </g>
   <g id="PathCollection_7">
    <path d="M 103.33993 200.684205 
L 103.13946 200.701557 
L 102.22957 200.765419 
L 101.466186 200.822679 
L 101.214597 200.841663 
L 98.92103 201.001538 
L 98.639779 201.022537 
L 98.546992 201.029506 
L 96.966757 201.1392 
L 95.874654 201.215008 
L 95.809783 201.219149 
L 95.619434 201.231377 
L 95.522304 201.23765 
L 92.976575 201.412857 
L 92.325211 201.454548 
L 90.516042 201.57912 
L 90.139416 201.602993 
L 89.035785 201.673383 
L 88.473499 201.709438 
L 87.298439 201.789676 
L 85.75099 201.888029 
L 85.131398 201.930358 
L 84.453769 201.973019 
L 82.47067 202.098629 
L 82.429837 202.101408 
L 82.237444 202.11348 
L 81.569638 202.155438 
L 81.541799 202.156874 
L 79.485773 202.285836 
L 79.373021 202.29163 
L 78.557742 202.342687 
L 78.405674 202.350517 
L 76.521925 202.46829 
L 76.289819 202.480196 
L 75.545227 202.526675 
L 75.271104 202.540764 
L 73.556642 202.647611 
L 73.207236 202.665498 
L 72.532114 202.707508 
L 72.138041 202.727722 
L 70.589968 202.823895 
L 70.125253 202.84764 
L 69.51842 202.885283 
L 69.006437 202.911494 
L 67.621947 202.997239 
L 67.043851 203.026721 
L 66.504165 203.060095 
L 65.876247 203.092181 
L 64.652619 203.167731 
L 63.963011 203.202834 
L 63.489364 203.232035 
L 62.747427 203.269876 
L 61.682025 203.335458 
L 60.882718 203.37607 
L 60.474035 203.40119 
L 59.619935 203.44467 
L 58.710203 203.500502 
L 57.802954 203.546515 
L 57.62857 203.555724 
L 57.62857 204.4656 
L 57.62857 207.792 
L 57.62857 211.1184 
L 57.62857 214.4448 
L 57.62857 217.7712 
L 57.62857 221.0976 
L 57.62857 224.424 
L 57.62857 227.7504 
L 57.62857 230.138214 
L 57.804769 230.148153 
L 58.75338 230.205961 
L 59.53263 230.246466 
L 60.530093 230.307837 
L 60.819023 230.322969 
L 61.88457 230.388832 
L 62.499966 230.421306 
L 63.612217 230.490722 
L 63.832397 230.502429 
L 65.018084 230.576773 
L 65.465202 230.600728 
L 66.69529 230.67861 
L 66.844861 230.686685 
L 68.154001 230.769961 
L 68.428272 230.784881 
L 69.779345 230.871671 
L 69.856385 230.875895 
L 71.292404 230.968577 
L 71.389104 230.973919 
L 72.864415 231.070083 
L 72.866937 231.070224 
L 72.967348 231.0768 
L 74.348183 231.166783 
L 74.433555 231.173192 
L 75.876803 231.268172 
L 75.950481 231.273742 
L 77.30557 231.363343 
L 77.577566 231.384049 
L 78.885666 231.471406 
L 79.037619 231.483055 
L 80.260569 231.565115 
L 80.724333 231.600923 
L 81.893481 231.680163 
L 82.125871 231.698234 
L 83.2131 231.772275 
L 83.873958 231.824037 
L 84.900212 231.894635 
L 85.215276 231.919491 
L 86.163078 231.985007 
L 87.026547 232.053622 
L 87.90582 232.115025 
L 88.305875 232.147046 
L 89.110417 232.203503 
L 90.182212 232.289922 
L 90.910265 232.341541 
L 91.397714 232.381133 
L 92.055023 232.427964 
L 93.341071 232.533194 
L 93.913506 232.574404 
L 94.490839 232.621994 
L 94.996801 232.658599 
L 96.503246 232.783706 
L 96.915499 232.813846 
L 97.585297 232.869888 
L 97.935649 232.89563 
L 99.668868 233.041742 
L 99.916198 233.060108 
L 100.681141 233.125082 
L 100.871462 233.139286 
L 102.838073 233.307602 
L 102.915554 233.313446 
L 103.33993 233.346974 
L 103.33993 231.0768 
L 103.33993 227.7504 
L 103.33993 224.424 
L 103.33993 221.0976 
L 103.33993 217.7712 
L 103.33993 214.4448 
L 103.33993 211.1184 
L 103.33993 207.792 
L 103.33993 204.4656 
L 103.33993 201.1392 
" clip-path="url(#p8ed0b04a90)" style="fill: #f8f500"/>
   </g>
   <g id="PathCollection_8">
    <path d="M 103.33993 233.346974 
L 102.915554 233.313446 
L 102.838073 233.307602 
L 100.871462 233.139286 
L 100.681141 233.125082 
L 99.916198 233.060108 
L 99.668868 233.041742 
L 97.935649 232.89563 
L 97.585297 232.869888 
L 96.915499 232.813846 
L 96.503246 232.783706 
L 94.996801 232.658599 
L 94.490839 232.621994 
L 93.913506 232.574404 
L 93.341071 232.533194 
L 92.055023 232.427964 
L 91.397714 232.381133 
L 90.910265 232.341541 
L 90.182212 232.289922 
L 89.110417 232.203503 
L 88.305875 232.147046 
L 87.90582 232.115025 
L 87.026547 232.053622 
L 86.163078 231.985007 
L 85.215276 231.919491 
L 84.900212 231.894635 
L 83.873958 231.824037 
L 83.2131 231.772275 
L 82.125871 231.698234 
L 81.893481 231.680163 
L 80.724333 231.600923 
L 80.260569 231.565115 
L 79.037619 231.483055 
L 78.885666 231.471406 
L 77.577566 231.384049 
L 77.30557 231.363343 
L 75.950481 231.273742 
L 75.876803 231.268172 
L 74.433555 231.173192 
L 74.348183 231.166783 
L 72.967348 231.0768 
L 72.866937 231.070224 
L 72.864415 231.070083 
L 71.389104 230.973919 
L 71.292404 230.968577 
L 69.856385 230.875895 
L 69.779345 230.871671 
L 68.428272 230.784881 
L 68.154001 230.769961 
L 66.844861 230.686685 
L 66.69529 230.67861 
L 65.465202 230.600728 
L 65.018084 230.576773 
L 63.832397 230.502429 
L 63.612217 230.490722 
L 62.499966 230.421306 
L 61.88457 230.388832 
L 60.819023 230.322969 
L 60.530093 230.307837 
L 59.53263 230.246466 
L 58.75338 230.205961 
L 57.804769 230.148153 
L 57.62857 230.138214 
L 57.62857 231.0768 
L 57.62857 234.4032 
L 57.62857 237.7296 
L 57.62857 241.056 
L 57.62857 244.3824 
L 57.62857 247.7088 
L 57.62857 251.0352 
L 57.62857 254.3616 
L 57.62857 255.530516 
L 58.027002 255.588082 
L 58.202661 255.614893 
L 59.983027 255.874409 
L 60.342369 255.929651 
L 60.99157 256.024771 
L 61.471759 256.098827 
L 62.83564 256.299697 
L 63.478967 256.399635 
L 63.95451 256.470038 
L 64.745705 256.593345 
L 65.684552 256.733068 
L 66.617444 256.879528 
L 66.91577 256.924161 
L 68.024672 257.098825 
L 68.529645 257.174775 
L 69.757867 257.369674 
L 69.875295 257.38743 
L 71.308843 257.615665 
L 71.370798 257.625083 
L 71.763022 257.688 
L 72.833131 257.859598 
L 72.900396 257.870916 
L 74.209165 258.081473 
L 74.599918 258.147577 
L 75.789337 258.340357 
L 76.045146 258.383868 
L 77.043691 258.546248 
L 77.896792 258.692147 
L 78.743686 258.830905 
L 79.192017 258.908001 
L 79.874049 259.020123 
L 81.19943 259.249303 
L 81.696114 259.331578 
L 82.341088 259.443725 
L 82.700101 259.503397 
L 84.508055 259.819528 
L 84.646554 259.842726 
L 85.492439 259.991467 
L 85.521704 259.996385 
L 85.769014 260.04012 
L 87.347994 260.319113 
L 88.723292 260.5677 
L 89.233271 260.658797 
L 89.889997 260.776148 
L 90.050313 260.80481 
L 91.193239 261.0144 
L 92.424429 261.240029 
L 93.053921 261.357998 
L 93.560875 261.453039 
L 94.95127 261.710775 
L 96.417181 261.98868 
L 96.768334 262.055184 
L 96.813099 262.064059 
L 97.646929 262.222885 
L 97.813864 262.256104 
L 99.569643 262.592473 
L 99.976259 262.674041 
L 100.586443 262.791621 
L 101.159437 262.906988 
L 102.365884 263.140829 
L 103.142149 263.298406 
L 103.33993 263.336546 
L 103.33993 261.0144 
L 103.33993 257.688 
L 103.33993 254.3616 
L 103.33993 251.0352 
L 103.33993 247.7088 
L 103.33993 244.3824 
L 103.33993 241.056 
L 103.33993 237.7296 
L 103.33993 234.4032 
" clip-path="url(#p8ed0b04a90)" style="fill: #ff9400"/>
   </g>
   <g id="PathCollection_9">
    <path d="M 103.33993 263.336546 
L 103.142149 263.298406 
L 102.365884 263.140829 
L 101.159437 262.906988 
L 100.586443 262.791621 
L 99.976259 262.674041 
L 99.569643 262.592473 
L 97.813864 262.256104 
L 97.646929 262.222885 
L 96.813099 262.064059 
L 96.768334 262.055184 
L 96.417181 261.98868 
L 94.95127 261.710775 
L 93.560875 261.453039 
L 93.053921 261.357998 
L 92.424429 261.240029 
L 91.193239 261.0144 
L 90.050313 260.80481 
L 89.889997 260.776148 
L 89.233271 260.658797 
L 88.723292 260.5677 
L 87.347994 260.319113 
L 85.769014 260.04012 
L 85.521704 259.996385 
L 85.492439 259.991467 
L 84.646554 259.842726 
L 84.508055 259.819528 
L 82.700101 259.503397 
L 82.341088 259.443725 
L 81.696114 259.331578 
L 81.19943 259.249303 
L 79.874049 259.020123 
L 79.192017 258.908001 
L 78.743686 258.830905 
L 77.896792 258.692147 
L 77.043691 258.546248 
L 76.045146 258.383868 
L 75.789337 258.340357 
L 74.599918 258.147577 
L 74.209165 258.081473 
L 72.900396 257.870916 
L 72.833131 257.859598 
L 71.763022 257.688 
L 71.370798 257.625083 
L 71.308843 257.615665 
L 69.875295 257.38743 
L 69.757867 257.369674 
L 68.529645 257.174775 
L 68.024672 257.098825 
L 66.91577 256.924161 
L 66.617444 256.879528 
L 65.684552 256.733068 
L 64.745705 256.593345 
L 63.95451 256.470038 
L 63.478967 256.399635 
L 62.83564 256.299697 
L 61.471759 256.098827 
L 60.99157 256.024771 
L 60.342369 255.929651 
L 59.983027 255.874409 
L 58.202661 255.614893 
L 58.027002 255.588082 
L 57.62857 255.530516 
L 57.62857 257.688 
L 57.62857 261.0144 
L 57.62857 264.3408 
L 57.62857 267.6672 
L 57.62857 270.9936 
L 57.62857 274.32 
L 57.62857 277.6464 
L 57.62857 280.9728 
L 57.62857 281.087068 
L 57.686658 281.099612 
L 58.751185 281.335498 
L 59.817998 281.574784 
L 60.620626 281.753748 
L 61.193036 281.883096 
L 61.475728 281.94708 
L 63.107182 282.318098 
L 63.358642 282.376672 
L 64.057886 282.536404 
L 64.48542 282.636319 
L 65.863951 282.952624 
L 66.545759 283.112912 
L 66.977062 283.212326 
L 67.895978 283.429073 
L 68.616692 283.595944 
L 69.735192 283.861364 
L 69.894317 283.898377 
L 71.313114 284.236188 
L 71.36526 284.248373 
L 71.577429 284.2992 
L 72.809345 284.596163 
L 72.927561 284.625287 
L 74.109134 284.91105 
L 74.741362 285.06756 
L 75.722056 285.306159 
L 76.123098 285.405909 
L 76.848741 285.583042 
L 78.17698 285.915024 
L 78.632719 286.026949 
L 79.321161 286.199847 
L 79.583963 286.264605 
L 81.116187 286.65132 
L 81.464171 286.739491 
L 82.03724 286.886514 
L 82.981064 287.127703 
L 83.839439 287.347298 
L 84.913646 287.6256 
L 86.005896 287.909082 
L 86.207134 287.961954 
L 87.256648 288.238286 
L 87.995905 288.432037 
L 88.567085 288.583612 
L 88.628257 288.59988 
L 90.477814 289.093552 
L 90.815075 289.185567 
L 91.452928 289.356668 
L 92.013495 289.510178 
L 93.18922 289.827109 
L 94.028095 290.058331 
L 94.350639 290.145718 
L 95.497369 290.462986 
L 95.89569 290.571442 
L 97.244132 290.946996 
L 97.245937 290.94749 
L 97.262071 290.952 
L 98.596991 291.32706 
L 98.992607 291.440605 
L 100.138327 291.764592 
L 100.464541 291.858706 
L 101.293152 292.093899 
L 102.499575 292.44383 
L 103.028216 292.594871 
L 103.33993 292.687461 
L 103.33993 290.952 
L 103.33993 287.6256 
L 103.33993 284.2992 
L 103.33993 280.9728 
L 103.33993 277.6464 
L 103.33993 274.32 
L 103.33993 270.9936 
L 103.33993 267.6672 
L 103.33993 264.3408 
" clip-path="url(#p8ed0b04a90)" style="fill: #ff3800"/>
   </g>
   <g id="PathCollection_10">
    <path d="M 103.33993 292.687461 
L 103.028216 292.594871 
L 102.499575 292.44383 
L 101.293152 292.093899 
L 100.464541 291.858706 
L 100.138327 291.764592 
L 98.992607 291.440605 
L 98.596991 291.32706 
L 97.262071 290.952 
L 97.245937 290.94749 
L 97.244132 290.946996 
L 95.89569 290.571442 
L 95.497369 290.462986 
L 94.350639 290.145718 
L 94.028095 290.058331 
L 93.18922 289.827109 
L 92.013495 289.510178 
L 91.452928 289.356668 
L 90.815075 289.185567 
L 90.477814 289.093552 
L 88.628257 288.59988 
L 88.567085 288.583612 
L 87.995905 288.432037 
L 87.256648 288.238286 
L 86.207134 287.961954 
L 86.005896 287.909082 
L 84.913646 287.6256 
L 83.839439 287.347298 
L 82.981064 287.127703 
L 82.03724 286.886514 
L 81.464171 286.739491 
L 81.116187 286.65132 
L 79.583963 286.264605 
L 79.321161 286.199847 
L 78.632719 286.026949 
L 78.17698 285.915024 
L 76.848741 285.583042 
L 76.123098 285.405909 
L 75.722056 285.306159 
L 74.741362 285.06756 
L 74.109134 284.91105 
L 72.927561 284.625287 
L 72.809345 284.596163 
L 71.577429 284.2992 
L 71.36526 284.248373 
L 71.313114 284.236188 
L 69.894317 283.898377 
L 69.735192 283.861364 
L 68.616692 283.595944 
L 67.895978 283.429073 
L 66.977062 283.212326 
L 66.545759 283.112912 
L 65.863951 282.952624 
L 64.48542 282.636319 
L 64.057886 282.536404 
L 63.358642 282.376672 
L 63.107182 282.318098 
L 61.475728 281.94708 
L 61.193036 281.883096 
L 60.620626 281.753748 
L 59.817998 281.574784 
L 58.751185 281.335498 
L 57.686658 281.099612 
L 57.62857 281.087068 
L 57.62857 284.2992 
L 57.62857 287.6256 
L 57.62857 290.952 
L 57.62857 294.2784 
L 57.62857 297.6048 
L 57.62857 300.9312 
L 57.62857 304.2576 
L 57.62857 307.584 
L 59.152282 307.584 
L 60.675994 307.584 
L 62.199706 307.584 
L 63.723418 307.584 
L 65.24713 307.584 
L 66.770842 307.584 
L 68.294554 307.584 
L 69.818266 307.584 
L 71.341978 307.584 
L 72.86569 307.584 
L 74.389402 307.584 
L 75.913114 307.584 
L 77.436826 307.584 
L 78.960538 307.584 
L 80.48425 307.584 
L 82.007962 307.584 
L 83.531674 307.584 
L 85.055386 307.584 
L 86.579098 307.584 
L 88.10281 307.584 
L 89.626522 307.584 
L 91.150234 307.584 
L 92.673946 307.584 
L 94.197658 307.584 
L 95.72137 307.584 
L 97.245082 307.584 
L 98.768794 307.584 
L 100.292506 307.584 
L 101.816218 307.584 
L 103.33993 307.584 
L 103.33993 304.2576 
L 103.33993 300.9312 
L 103.33993 297.6048 
L 103.33993 294.2784 
" clip-path="url(#p8ed0b04a90)" style="fill: #b60000"/>
   </g>
   <g id="PathCollection_11">
    <path clip-path="url(#p8ed0b04a90)" style="fill: #0000b6"/>
   </g>
   <g id="PathCollection_12">
    <path clip-path="url(#p8ed0b04a90)" style="fill: #0018ff"/>
   </g>
   <g id="PathCollection_13">
    <path d="M 100.4544 51.185275 
L 100.655538 50.874523 
L 100.98248 50.3424 
L 103.926793 45.277137 
L 104.607582 44.07008 
L 105.1572 43.011612 
L 106.01271 41.472 
L 100.4544 41.472 
L 100.4544 50.3424 
" clip-path="url(#p8ed0b04a90)" style="fill: #0080ff"/>
   </g>
   <g id="PathCollection_14">
    <path d="M 106.01271 41.472 
L 105.1572 43.011612 
L 104.607582 44.07008 
L 103.926793 45.277137 
L 100.98248 50.3424 
L 100.655538 50.874523 
L 100.4544 51.185275 
L 100.4544 59.2128 
L 100.4544 68.0832 
L 100.4544 76.9536 
L 100.4544 85.824 
L 100.4544 94.6944 
L 100.4544 103.5648 
L 100.4544 112.4352 
L 100.4544 117.152089 
L 102.600269 115.628582 
L 103.070855 115.302377 
L 103.432392 115.03328 
L 104.276075 114.37476 
L 106.818356 112.4352 
L 107.452709 111.937533 
L 110.064288 109.83712 
L 112.440596 107.829178 
L 116.367683 104.295389 
L 116.783832 103.935158 
L 117.192289 103.5648 
L 121.233033 99.723355 
L 123.644359 97.29248 
L 125.678384 95.120991 
L 125.834833 94.966549 
L 126.087733 94.6944 
L 126.44572 94.270599 
L 126.975559 93.679013 
L 128.442475 92.09632 
L 129.430295 90.965322 
L 132.112816 87.73003 
L 133.110902 86.558465 
L 133.71448 85.824 
L 137.039544 81.562931 
L 138.535061 79.55168 
L 140.065282 77.345193 
L 140.223576 77.128473 
L 140.359105 76.9536 
L 140.491324 76.75539 
L 142.173816 74.35552 
L 144.040586 71.494051 
L 146.173478 68.0832 
L 147.911426 65.143208 
L 149.832556 61.81088 
L 150.043311 61.47567 
L 151.349832 59.2128 
L 152.406264 57.07437 
L 152.652396 56.61472 
L 154.113772 53.633896 
L 155.778778 50.3424 
L 156.237814 49.378484 
L 158.693039 44.07008 
L 159.355494 42.487865 
L 159.792026 41.472 
L 157.11744 41.472 
L 149.02272 41.472 
L 140.928 41.472 
L 132.83328 41.472 
L 124.73856 41.472 
L 116.64384 41.472 
L 108.54912 41.472 
" clip-path="url(#p8ed0b04a90)" style="fill: #00e4f8"/>
   </g>
   <g id="PathCollection_15">
    <path d="M 159.792026 41.472 
L 159.355494 42.487865 
L 158.693039 44.07008 
L 156.237814 49.378484 
L 155.778778 50.3424 
L 154.113772 53.633896 
L 152.652396 56.61472 
L 152.406264 57.07437 
L 151.349832 59.2128 
L 150.043311 61.47567 
L 149.832556 61.81088 
L 147.911426 65.143208 
L 146.173478 68.0832 
L 144.040586 71.494051 
L 142.173816 74.35552 
L 140.491324 76.75539 
L 140.359105 76.9536 
L 140.223576 77.128473 
L 140.065282 77.345193 
L 138.535061 79.55168 
L 137.039544 81.562931 
L 133.71448 85.824 
L 133.110902 86.558465 
L 132.112816 87.73003 
L 129.430295 90.965322 
L 128.442475 92.09632 
L 126.975559 93.679013 
L 126.44572 94.270599 
L 126.087733 94.6944 
L 125.834833 94.966549 
L 125.678384 95.120991 
L 123.644359 97.29248 
L 121.233033 99.723355 
L 117.192289 103.5648 
L 116.783832 103.935158 
L 116.367683 104.295389 
L 112.440596 107.829178 
L 110.064288 109.83712 
L 107.452709 111.937533 
L 106.818356 112.4352 
L 104.276075 114.37476 
L 103.432392 115.03328 
L 103.070855 115.302377 
L 102.600269 115.628582 
L 100.4544 117.152089 
L 100.4544 121.3056 
L 100.4544 130.176 
L 100.4544 139.0464 
L 100.4544 147.9168 
L 100.4544 156.7872 
L 100.4544 163.649377 
L 102.788497 162.962185 
L 102.973728 162.896856 
L 111.57421 160.10217 
L 116.009585 158.465158 
L 117.136285 158.089992 
L 120.642977 156.7872 
L 123.671889 155.618315 
L 127.199085 154.090894 
L 131.200649 152.467982 
L 135.129722 150.711832 
L 135.314827 150.636142 
L 135.578748 150.51488 
L 140.974328 147.937828 
L 140.987858 147.93166 
L 141.017169 147.9168 
L 141.673467 147.578428 
L 146.089537 145.31872 
L 146.467862 145.117122 
L 146.802439 144.920278 
L 150.480065 142.90189 
L 156.968932 139.0464 
L 157.06373 138.987544 
L 157.347088 138.794746 
L 163.566931 134.693855 
L 166.276564 132.77408 
L 166.629097 132.537262 
L 169.801212 130.176 
L 170.656446 129.518032 
L 171.071931 129.161544 
L 173.048077 127.57792 
L 176.42748 124.725233 
L 180.160743 121.3056 
L 181.070571 120.429845 
L 182.146081 119.336035 
L 185.082043 116.468323 
L 186.442974 115.03328 
L 188.257975 112.997292 
L 188.563312 112.666818 
L 188.791873 112.4352 
L 188.989974 112.205367 
L 191.072208 109.83712 
L 193.041007 107.449158 
L 196.032862 103.5648 
L 197.05912 102.157575 
L 199.376551 98.841129 
L 200.255597 97.614289 
L 200.471901 97.29248 
L 200.672372 96.970006 
L 202.236032 94.6944 
L 202.701717 93.953614 
L 202.97471 93.463839 
L 203.837979 92.09632 
L 206.787162 87.030945 
L 207.451089 85.824 
L 209.765872 81.35291 
L 210.730435 79.55168 
L 210.853685 79.299351 
L 211.378379 78.366789 
L 212.090956 76.9536 
L 212.83107 75.179782 
L 213.211315 74.35552 
L 214.800927 70.782851 
L 215.970178 68.0832 
L 217.786909 63.603147 
L 218.48491 61.81088 
L 218.919012 60.554631 
L 219.476799 59.2128 
L 219.788169 58.265484 
L 220.407223 56.61472 
L 222.325112 50.835425 
L 222.483382 50.3424 
L 222.778524 49.352515 
L 224.46801 44.07008 
L 224.81835 42.807913 
L 225.208914 41.472 
L 221.8752 41.472 
L 213.78048 41.472 
L 205.68576 41.472 
L 197.59104 41.472 
L 189.49632 41.472 
L 181.4016 41.472 
L 173.30688 41.472 
L 165.21216 41.472 
" clip-path="url(#p8ed0b04a90)" style="fill: #53ffa4"/>
   </g>
   <g id="PathCollection_16">
    <path d="M 225.208914 41.472 
L 224.81835 42.807913 
L 224.46801 44.07008 
L 222.778524 49.352515 
L 222.483382 50.3424 
L 222.325112 50.835425 
L 220.407223 56.61472 
L 219.788169 58.265484 
L 219.476799 59.2128 
L 218.919012 60.554631 
L 218.48491 61.81088 
L 217.786909 63.603147 
L 215.970178 68.0832 
L 214.800927 70.782851 
L 213.211315 74.35552 
L 212.83107 75.179782 
L 212.090956 76.9536 
L 211.378379 78.366789 
L 210.853685 79.299351 
L 210.730435 79.55168 
L 209.765872 81.35291 
L 207.451089 85.824 
L 206.787162 87.030945 
L 203.837979 92.09632 
L 202.97471 93.463839 
L 202.701717 93.953614 
L 202.236032 94.6944 
L 200.672372 96.970006 
L 200.471901 97.29248 
L 200.255597 97.614289 
L 199.376551 98.841129 
L 197.05912 102.157575 
L 196.032862 103.5648 
L 193.041007 107.449158 
L 191.072208 109.83712 
L 188.989974 112.205367 
L 188.791873 112.4352 
L 188.563312 112.666818 
L 188.257975 112.997292 
L 186.442974 115.03328 
L 185.082043 116.468323 
L 182.146081 119.336035 
L 181.070571 120.429845 
L 180.160743 121.3056 
L 176.42748 124.725233 
L 173.048077 127.57792 
L 171.071931 129.161544 
L 170.656446 129.518032 
L 169.801212 130.176 
L 166.629097 132.537262 
L 166.276564 132.77408 
L 163.566931 134.693855 
L 157.347088 138.794746 
L 157.06373 138.987544 
L 156.968932 139.0464 
L 150.480065 142.90189 
L 146.802439 144.920278 
L 146.467862 145.117122 
L 146.089537 145.31872 
L 141.673467 147.578428 
L 141.017169 147.9168 
L 140.987858 147.93166 
L 140.974328 147.937828 
L 135.578748 150.51488 
L 135.314827 150.636142 
L 135.129722 150.711832 
L 131.200649 152.467982 
L 127.199085 154.090894 
L 123.671889 155.618315 
L 120.642977 156.7872 
L 117.136285 158.089992 
L 116.009585 158.465158 
L 111.57421 160.10217 
L 102.973728 162.896856 
L 102.788497 162.962185 
L 100.4544 163.649377 
L 100.4544 165.6576 
L 100.4544 174.528 
L 100.4544 183.3984 
L 100.4544 192.2688 
L 100.4544 200.889501 
L 100.697691 200.872595 
L 106.991948 200.432391 
L 110.818743 200.109005 
L 118.413727 199.569065 
L 120.804414 199.353468 
L 130.132518 198.54112 
L 130.437567 198.513917 
L 130.474447 198.509226 
L 135.035852 198.095828 
L 135.686134 198.01297 
L 145.355205 197.120244 
L 147.285961 196.863494 
L 150.640291 196.548174 
L 153.568591 196.157719 
L 160.094744 195.531405 
L 164.195496 194.958443 
L 166.156244 194.766427 
L 171.742842 193.982713 
L 174.608756 193.695429 
L 181.23219 192.716984 
L 181.558363 192.683527 
L 184.349782 192.2688 
L 188.861019 191.572621 
L 190.427123 191.248803 
L 196.810471 190.203761 
L 198.509608 189.838677 
L 202.818866 189.127185 
L 210.019177 187.520131 
L 211.862533 187.194763 
L 216.069417 186.213287 
L 216.310017 186.170331 
L 217.022883 185.99648 
L 223.812769 184.277874 
L 226.941824 183.3984 
L 233.57464 181.360363 
L 235.225943 180.80032 
L 241.700098 178.511827 
L 245.245626 176.945335 
L 246.845877 176.34422 
L 250.841763 174.528 
L 253.219023 173.393758 
L 257.627052 170.831812 
L 260.390495 169.347193 
L 262.116339 168.25568 
L 263.2511 167.443113 
L 265.990805 165.6576 
L 267.156747 164.841661 
L 267.671013 164.399143 
L 269.350846 163.05952 
L 273.199199 159.806943 
L 276.196534 156.7872 
L 277.865868 155.008403 
L 280.319506 152.074759 
L 281.312687 150.95711 
L 281.64396 150.51488 
L 281.981331 150.028201 
L 283.639272 147.9168 
L 284.111863 147.290939 
L 284.355425 146.883014 
L 285.410938 145.31872 
L 288.225857 140.791937 
L 289.153839 139.0464 
L 292.185305 132.961999 
L 292.284932 132.77408 
L 292.297816 132.747311 
L 292.868389 131.723941 
L 293.553524 130.176 
L 294.220381 128.292428 
L 294.535924 127.57792 
L 295.838166 124.243453 
L 296.896881 121.3056 
L 298.48774 116.55557 
L 298.93301 115.03328 
L 299.16819 114.093867 
L 299.416942 113.280602 
L 299.735083 112.4352 
L 300.053607 111.178429 
L 300.429444 109.83712 
L 301.609815 104.893582 
L 301.975739 103.5648 
L 302.160033 102.838961 
L 303.421223 97.29248 
L 303.821702 95.147989 
L 303.923084 94.6944 
L 303.994154 94.162534 
L 304.454801 92.09632 
L 305.137442 88.360882 
L 305.553927 85.824 
L 306.082232 82.251793 
L 306.572289 79.55168 
L 306.691574 78.70984 
L 306.853781 77.954388 
L 307.019478 76.9536 
L 307.099316 75.891859 
L 307.209719 74.962171 
L 307.320205 74.35552 
L 307.485901 73.193583 
L 308.1595 68.0832 
L 308.81122 62.511921 
L 308.890426 61.81088 
L 309.080596 60.766393 
L 309.302145 59.2128 
L 309.384874 57.58367 
L 309.468323 56.61472 
L 309.788509 53.328204 
L 310.109544 50.3424 
L 310.27003 48.630487 
L 310.690332 44.07008 
L 310.904203 41.486155 
L 310.905649 41.472 
L 302.8224 41.472 
L 294.72768 41.472 
L 286.63296 41.472 
L 278.53824 41.472 
L 270.44352 41.472 
L 262.3488 41.472 
L 254.25408 41.472 
L 246.15936 41.472 
L 238.06464 41.472 
L 229.96992 41.472 
" clip-path="url(#p8ed0b04a90)" style="fill: #a4ff53"/>
   </g>
   <g id="PathCollection_17">
    <path d="M 310.905649 41.472 
L 310.904203 41.486155 
L 310.690332 44.07008 
L 310.27003 48.630487 
L 310.109544 50.3424 
L 309.788509 53.328204 
L 309.468323 56.61472 
L 309.384874 57.58367 
L 309.302145 59.2128 
L 309.080596 60.766393 
L 308.890426 61.81088 
L 308.81122 62.511921 
L 308.1595 68.0832 
L 307.485901 73.193583 
L 307.320205 74.35552 
L 307.209719 74.962171 
L 307.099316 75.891859 
L 307.019478 76.9536 
L 306.853781 77.954388 
L 306.691574 78.70984 
L 306.572289 79.55168 
L 306.082232 82.251793 
L 305.553927 85.824 
L 305.137442 88.360882 
L 304.454801 92.09632 
L 303.994154 94.162534 
L 303.923084 94.6944 
L 303.821702 95.147989 
L 303.421223 97.29248 
L 302.160033 102.838961 
L 301.975739 103.5648 
L 301.609815 104.893582 
L 300.429444 109.83712 
L 300.053607 111.178429 
L 299.735083 112.4352 
L 299.416942 113.280602 
L 299.16819 114.093867 
L 298.93301 115.03328 
L 298.48774 116.55557 
L 296.896881 121.3056 
L 295.838166 124.243453 
L 294.535924 127.57792 
L 294.220381 128.292428 
L 293.553524 130.176 
L 292.868389 131.723941 
L 292.297816 132.747311 
L 292.284932 132.77408 
L 292.185305 132.961999 
L 289.153839 139.0464 
L 288.225857 140.791937 
L 285.410938 145.31872 
L 284.355425 146.883014 
L 284.111863 147.290939 
L 283.639272 147.9168 
L 281.981331 150.028201 
L 281.64396 150.51488 
L 281.312687 150.95711 
L 280.319506 152.074759 
L 277.865868 155.008403 
L 276.196534 156.7872 
L 273.199199 159.806943 
L 269.350846 163.05952 
L 267.671013 164.399143 
L 267.156747 164.841661 
L 265.990805 165.6576 
L 263.2511 167.443113 
L 262.116339 168.25568 
L 260.390495 169.347193 
L 257.627052 170.831812 
L 253.219023 173.393758 
L 250.841763 174.528 
L 246.845877 176.34422 
L 245.245626 176.945335 
L 241.700098 178.511827 
L 235.225943 180.80032 
L 233.57464 181.360363 
L 226.941824 183.3984 
L 223.812769 184.277874 
L 217.022883 185.99648 
L 216.310017 186.170331 
L 216.069417 186.213287 
L 211.862533 187.194763 
L 210.019177 187.520131 
L 202.818866 189.127185 
L 198.509608 189.838677 
L 196.810471 190.203761 
L 190.427123 191.248803 
L 188.861019 191.572621 
L 184.349782 192.2688 
L 181.558363 192.683527 
L 181.23219 192.716984 
L 174.608756 193.695429 
L 171.742842 193.982713 
L 166.156244 194.766427 
L 164.195496 194.958443 
L 160.094744 195.531405 
L 153.568591 196.157719 
L 150.640291 196.548174 
L 147.285961 196.863494 
L 145.355205 197.120244 
L 135.686134 198.01297 
L 135.035852 198.095828 
L 130.474447 198.509226 
L 130.437567 198.513917 
L 130.132518 198.54112 
L 120.804414 199.353468 
L 118.413727 199.569065 
L 110.818743 200.109005 
L 106.991948 200.432391 
L 100.697691 200.872595 
L 100.4544 200.889501 
L 100.4544 201.1392 
L 100.4544 210.0096 
L 100.4544 218.88 
L 100.4544 227.7504 
L 100.4544 233.080868 
L 102.545985 233.283806 
L 103.449565 233.338622 
L 110.913435 234.02272 
L 113.714748 234.276092 
L 116.456286 234.564731 
L 121.242209 235.033786 
L 126.990206 235.598765 
L 128.324767 235.730527 
L 135.923345 236.6208 
L 139.909165 237.083255 
L 142.793009 237.467338 
L 150.07729 238.368512 
L 152.493077 238.719825 
L 155.915409 239.21888 
L 162.040225 240.096687 
L 163.257403 240.31978 
L 166.956831 240.875575 
L 169.53923 241.362513 
L 176.126098 242.401829 
L 180.573668 243.300858 
L 182.131703 243.559671 
L 189.050068 245.002186 
L 189.819496 245.137056 
L 191.392739 245.4912 
L 197.11805 246.742521 
L 198.169139 247.020594 
L 203.243635 248.167342 
L 209.806627 250.006951 
L 211.880976 250.516445 
L 216.06657 251.76352 
L 216.334665 251.846719 
L 222.914818 253.889712 
L 224.270442 254.3616 
L 230.064885 256.347533 
L 231.598497 256.95968 
L 232.251186 257.196783 
L 232.750871 257.409037 
L 240.586768 260.468188 
L 246.09891 263.072077 
L 246.20317 263.116098 
L 246.436731 263.232 
L 251.87853 265.835188 
L 258.263476 269.50432 
L 259.031994 269.933677 
L 260.242978 270.61566 
L 262.480571 272.1024 
L 265.757761 274.229293 
L 266.396941 274.70048 
L 272.311662 278.925643 
L 274.690908 280.9728 
L 277.623126 283.393785 
L 280.471566 286.087523 
L 281.296677 286.820434 
L 281.689873 287.24512 
L 282.294749 287.874061 
L 284.264309 289.8432 
L 285.023926 290.57355 
L 286.691527 292.44128 
L 289.549409 295.517681 
L 291.991106 298.7136 
L 293.84927 301.037484 
L 296.604371 304.98592 
L 296.822521 305.28842 
L 298.329091 307.584 
L 302.8224 307.584 
L 310.91712 307.584 
L 319.01184 307.584 
L 327.10656 307.584 
L 335.20128 307.584 
L 343.296 307.584 
L 343.296 298.7136 
L 343.296 289.8432 
L 343.296 280.9728 
L 343.296 272.1024 
L 343.296 263.232 
L 343.296 254.3616 
L 343.296 245.4912 
L 343.296 236.6208 
L 343.296 227.7504 
L 343.296 218.88 
L 343.296 210.0096 
L 343.296 201.1392 
L 343.296 192.2688 
L 343.296 183.3984 
L 343.296 174.528 
L 343.296 165.6576 
L 343.296 156.7872 
L 343.296 147.9168 
L 343.296 139.0464 
L 343.296 130.176 
L 343.296 121.3056 
L 343.296 112.4352 
L 343.296 103.5648 
L 343.296 94.6944 
L 343.296 85.824 
L 343.296 76.9536 
L 343.296 68.0832 
L 343.296 59.2128 
L 343.296 50.3424 
L 343.296 41.472 
L 335.20128 41.472 
L 327.10656 41.472 
L 319.01184 41.472 
L 310.91712 41.472 
" clip-path="url(#p8ed0b04a90)" style="fill: #f8f500"/>
   </g>
   <g id="PathCollection_18">
    <path d="M 298.329091 307.584 
L 296.822521 305.28842 
L 296.604371 304.98592 
L 293.84927 301.037484 
L 291.991106 298.7136 
L 289.549409 295.517681 
L 286.691527 292.44128 
L 285.023926 290.57355 
L 284.264309 289.8432 
L 282.294749 287.874061 
L 281.689873 287.24512 
L 281.296677 286.820434 
L 280.471566 286.087523 
L 277.623126 283.393785 
L 274.690908 280.9728 
L 272.311662 278.925643 
L 266.396941 274.70048 
L 265.757761 274.229293 
L 262.480571 272.1024 
L 260.242978 270.61566 
L 259.031994 269.933677 
L 258.263476 269.50432 
L 251.87853 265.835188 
L 246.436731 263.232 
L 246.20317 263.116098 
L 246.09891 263.072077 
L 240.586768 260.468188 
L 232.750871 257.409037 
L 232.251186 257.196783 
L 231.598497 256.95968 
L 230.064885 256.347533 
L 224.270442 254.3616 
L 222.914818 253.889712 
L 216.334665 251.846719 
L 216.06657 251.76352 
L 211.880976 250.516445 
L 209.806627 250.006951 
L 203.243635 248.167342 
L 198.169139 247.020594 
L 197.11805 246.742521 
L 191.392739 245.4912 
L 189.819496 245.137056 
L 189.050068 245.002186 
L 182.131703 243.559671 
L 180.573668 243.300858 
L 176.126098 242.401829 
L 169.53923 241.362513 
L 166.956831 240.875575 
L 163.257403 240.31978 
L 162.040225 240.096687 
L 155.915409 239.21888 
L 152.493077 238.719825 
L 150.07729 238.368512 
L 142.793009 237.467338 
L 139.909165 237.083255 
L 135.923345 236.6208 
L 128.324767 235.730527 
L 126.990206 235.598765 
L 121.242209 235.033786 
L 116.456286 234.564731 
L 113.714748 234.276092 
L 110.913435 234.02272 
L 103.449565 233.338622 
L 102.545985 233.283806 
L 100.4544 233.080868 
L 100.4544 236.6208 
L 100.4544 245.4912 
L 100.4544 254.3616 
L 100.4544 262.765227 
L 100.619657 262.794802 
L 102.808544 263.232 
L 107.667841 264.197728 
L 109.886618 264.697665 
L 115.638626 265.89135 
L 117.843079 266.404656 
L 121.195492 267.114584 
L 130.279992 269.304442 
L 130.517978 269.357262 
L 131.106741 269.50432 
L 133.186247 270.005268 
L 140.529623 271.921575 
L 141.038378 272.052299 
L 141.083177 272.063877 
L 141.220052 272.1024 
L 143.574777 272.75946 
L 150.563441 274.70048 
L 151.312752 274.91439 
L 151.699997 275.036229 
L 160.2279 277.564279 
L 164.45473 278.968977 
L 165.811312 279.387708 
L 170.451573 280.9728 
L 172.635397 281.708628 
L 174.677704 282.474983 
L 180.101936 284.411134 
L 183.153923 285.608669 
L 184.735536 286.189788 
L 187.296849 287.24512 
L 191.481016 288.942335 
L 193.538644 289.8432 
L 198.750203 292.14047 
L 199.448463 292.44128 
L 199.887891 292.63715 
L 200.342101 292.857882 
L 207.827905 296.366183 
L 212.31721 298.7136 
L 213.543154 299.341459 
L 214.14451 299.676662 
L 218.757799 302.129727 
L 223.570834 304.98592 
L 225.339599 306.011489 
L 227.85144 307.584 
L 229.96992 307.584 
L 238.06464 307.584 
L 246.15936 307.584 
L 254.25408 307.584 
L 262.3488 307.584 
L 270.44352 307.584 
L 278.53824 307.584 
L 286.63296 307.584 
L 294.72768 307.584 
" clip-path="url(#p8ed0b04a90)" style="fill: #ff9400"/>
   </g>
   <g id="PathCollection_19">
    <path d="M 227.85144 307.584 
L 225.339599 306.011489 
L 223.570834 304.98592 
L 218.757799 302.129727 
L 214.14451 299.676662 
L 213.543154 299.341459 
L 212.31721 298.7136 
L 207.827905 296.366183 
L 200.342101 292.857882 
L 199.887891 292.63715 
L 199.448463 292.44128 
L 198.750203 292.14047 
L 193.538644 289.8432 
L 191.481016 288.942335 
L 187.296849 287.24512 
L 184.735536 286.189788 
L 183.153923 285.608669 
L 180.101936 284.411134 
L 174.677704 282.474983 
L 172.635397 281.708628 
L 170.451573 280.9728 
L 165.811312 279.387708 
L 164.45473 278.968977 
L 160.2279 277.564279 
L 151.699997 275.036229 
L 151.312752 274.91439 
L 150.563441 274.70048 
L 143.574777 272.75946 
L 141.220052 272.1024 
L 141.083177 272.063877 
L 141.038378 272.052299 
L 140.529623 271.921575 
L 133.186247 270.005268 
L 131.106741 269.50432 
L 130.517978 269.357262 
L 130.279992 269.304442 
L 121.195492 267.114584 
L 117.843079 266.404656 
L 115.638626 265.89135 
L 109.886618 264.697665 
L 107.667841 264.197728 
L 102.808544 263.232 
L 100.619657 262.794802 
L 100.4544 262.765227 
L 100.4544 263.232 
L 100.4544 272.1024 
L 100.4544 280.9728 
L 100.4544 289.8432 
L 100.4544 291.869635 
L 102.793153 292.526297 
L 102.945226 292.57271 
L 111.764809 295.189766 
L 115.794218 296.465877 
L 117.317586 296.931166 
L 122.817016 298.7136 
L 124.296414 299.198115 
L 125.591867 299.648675 
L 131.695886 301.722641 
L 134.327675 302.667106 
L 136.599394 303.456996 
L 140.710547 304.98592 
L 143.977675 306.199735 
L 147.545339 307.584 
L 149.02272 307.584 
L 157.11744 307.584 
L 165.21216 307.584 
L 173.30688 307.584 
L 181.4016 307.584 
L 189.49632 307.584 
L 197.59104 307.584 
L 205.68576 307.584 
L 213.78048 307.584 
L 221.8752 307.584 
" clip-path="url(#p8ed0b04a90)" style="fill: #ff3800"/>
   </g>
   <g id="PathCollection_20">
    <path d="M 147.545339 307.584 
L 143.977675 306.199735 
L 140.710547 304.98592 
L 136.599394 303.456996 
L 134.327675 302.667106 
L 131.695886 301.722641 
L 125.591867 299.648675 
L 124.296414 299.198115 
L 122.817016 298.7136 
L 117.317586 296.931166 
L 115.794218 296.465877 
L 111.764809 295.189766 
L 102.945226 292.57271 
L 102.793153 292.526297 
L 100.4544 291.869635 
L 100.4544 298.7136 
L 100.4544 307.584 
L 108.54912 307.584 
L 116.64384 307.584 
L 124.73856 307.584 
L 132.83328 307.584 
L 140.928 307.584 
" clip-path="url(#p8ed0b04a90)" style="fill: #b60000"/>
   </g>
   <g id="matplotlib.axis_1">
    <g id="xtick_1">
     <g id="line2d_1">
      <defs>
       <path id="mea8a350d81" d="M 0 0 
L 0 3.5 
" style="stroke: #000000; stroke-width: 0.8"/>
      </defs>
      <g>
       <use xlink:href="#mea8a350d81" x="57.6" y="307.584" style="stroke: #000000; stroke-width: 0.8"/>
      </g>
     </g>
     <g id="text_1">
      <!-- 0.0 -->
      <g transform="translate(51.26875 321.385562) scale(0.1 -0.1)">
       <defs>
        <path id="Calibri-30" d="M 3022 2031 
Q 3022 1566 2948 1181 
Q 2875 797 2704 520 
Q 2534 244 2259 92 
Q 1984 -59 1581 -59 
Q 1200 -59 939 77 
Q 678 213 518 477 
Q 359 741 292 1127 
Q 225 1513 225 2013 
Q 225 2475 300 2861 
Q 375 3247 544 3523 
Q 713 3800 988 3951 
Q 1263 4103 1663 4103 
Q 2047 4103 2308 3967 
Q 2569 3831 2728 3567 
Q 2888 3303 2955 2917 
Q 3022 2531 3022 2031 
z
M 2472 1994 
Q 2472 2297 2450 2537 
Q 2428 2778 2386 2962 
Q 2344 3147 2276 3280 
Q 2209 3413 2115 3498 
Q 2022 3584 1901 3623 
Q 1781 3663 1631 3663 
Q 1366 3663 1200 3538 
Q 1034 3413 939 3194 
Q 844 2975 809 2681 
Q 775 2388 775 2050 
Q 775 1597 822 1280 
Q 869 963 970 763 
Q 1072 563 1230 472 
Q 1388 381 1613 381 
Q 1788 381 1920 437 
Q 2053 494 2148 598 
Q 2244 703 2306 850 
Q 2369 997 2406 1175 
Q 2444 1353 2458 1561 
Q 2472 1769 2472 1994 
z
" transform="scale(0.015625)"/>
        <path id="Calibri-2e" d="M 1144 341 
Q 1144 119 1070 45 
Q 997 -28 803 -28 
Q 616 -28 544 44 
Q 472 116 472 331 
Q 472 553 545 626 
Q 619 700 813 700 
Q 1000 700 1072 628 
Q 1144 556 1144 341 
z
" transform="scale(0.015625)"/>
       </defs>
       <use xlink:href="#Calibri-30"/>
       <use xlink:href="#Calibri-2e" x="50.683594"/>
       <use xlink:href="#Calibri-30" x="75.927734"/>
      </g>
     </g>
    </g>
    <g id="xtick_2">
     <g id="line2d_2">
      <g>
       <use xlink:href="#mea8a350d81" x="86.1696" y="307.584" style="stroke: #000000; stroke-width: 0.8"/>
      </g>
     </g>
     <g id="text_2">
      <!-- 0.1 -->
      <g transform="translate(79.83835 321.385562) scale(0.1 -0.1)">
       <defs>
        <path id="Calibri-31" d="M 2897 213 
Q 2897 153 2887 112 
Q 2878 72 2862 47 
Q 2847 22 2826 11 
Q 2806 0 2784 0 
L 672 0 
Q 650 0 631 11 
Q 613 22 595 47 
Q 578 72 568 112 
Q 559 153 559 213 
Q 559 269 568 309 
Q 578 350 592 376 
Q 606 403 626 417 
Q 647 431 672 431 
L 1516 431 
L 1516 3506 
L 734 3041 
Q 675 3009 639 3003 
Q 603 2997 581 3017 
Q 559 3038 551 3084 
Q 544 3131 544 3203 
Q 544 3256 548 3293 
Q 553 3331 562 3356 
Q 572 3381 589 3400 
Q 606 3419 634 3438 
L 1566 4034 
Q 1578 4044 1597 4050 
Q 1616 4056 1644 4062 
Q 1672 4069 1709 4070 
Q 1747 4072 1803 4072 
Q 1878 4072 1928 4065 
Q 1978 4059 2006 4048 
Q 2034 4038 2043 4020 
Q 2053 4003 2053 3984 
L 2053 431 
L 2784 431 
Q 2809 431 2831 417 
Q 2853 403 2867 376 
Q 2881 350 2889 309 
Q 2897 269 2897 213 
z
" transform="scale(0.015625)"/>
       </defs>
       <use xlink:href="#Calibri-30"/>
       <use xlink:href="#Calibri-2e" x="50.683594"/>
       <use xlink:href="#Calibri-31" x="75.927734"/>
      </g>
     </g>
    </g>
    <g id="xtick_3">
     <g id="line2d_3">
      <g>
       <use xlink:href="#mea8a350d81" x="114.7392" y="307.584" style="stroke: #000000; stroke-width: 0.8"/>
      </g>
     </g>
     <g id="text_3">
      <!-- 0.2 -->
      <g transform="translate(108.40795 321.385562) scale(0.1 -0.1)">
       <defs>
        <path id="Calibri-32" d="M 2888 231 
Q 2888 175 2880 131 
Q 2872 88 2858 58 
Q 2844 28 2820 14 
Q 2797 0 2769 0 
L 534 0 
Q 491 0 458 11 
Q 425 22 401 47 
Q 378 72 367 119 
Q 356 166 356 234 
Q 356 297 361 344 
Q 366 391 381 427 
Q 397 463 420 498 
Q 444 534 481 575 
L 1266 1406 
Q 1538 1694 1702 1922 
Q 1866 2150 1955 2337 
Q 2044 2525 2072 2678 
Q 2100 2831 2100 2966 
Q 2100 3100 2056 3220 
Q 2013 3341 1930 3431 
Q 1847 3522 1722 3575 
Q 1597 3628 1434 3628 
Q 1244 3628 1092 3575 
Q 941 3522 827 3459 
Q 713 3397 636 3344 
Q 559 3291 522 3291 
Q 500 3291 483 3303 
Q 466 3316 455 3344 
Q 444 3372 437 3419 
Q 431 3466 431 3531 
Q 431 3578 434 3612 
Q 438 3647 445 3672 
Q 453 3697 465 3719 
Q 478 3741 515 3773 
Q 553 3806 645 3862 
Q 738 3919 877 3973 
Q 1016 4028 1183 4065 
Q 1350 4103 1534 4103 
Q 1828 4103 2048 4020 
Q 2269 3938 2414 3794 
Q 2559 3650 2631 3459 
Q 2703 3269 2703 3053 
Q 2703 2859 2668 2667 
Q 2634 2475 2523 2251 
Q 2413 2028 2203 1754 
Q 1994 1481 1647 1125 
L 1006 456 
L 2766 456 
Q 2791 456 2814 442 
Q 2838 428 2855 400 
Q 2872 372 2880 330 
Q 2888 288 2888 231 
z
" transform="scale(0.015625)"/>
       </defs>
       <use xlink:href="#Calibri-30"/>
       <use xlink:href="#Calibri-2e" x="50.683594"/>
       <use xlink:href="#Calibri-32" x="75.927734"/>
      </g>
     </g>
    </g>
    <g id="xtick_4">
     <g id="line2d_4">
      <g>
       <use xlink:href="#mea8a350d81" x="143.3088" y="307.584" style="stroke: #000000; stroke-width: 0.8"/>
      </g>
     </g>
     <g id="text_4">
      <!-- 0.3 -->
      <g transform="translate(136.97755 321.385562) scale(0.1 -0.1)">
       <defs>
        <path id="Calibri-33" d="M 2856 1156 
Q 2856 878 2759 654 
Q 2663 431 2481 272 
Q 2300 113 2034 27 
Q 1769 -59 1434 -59 
Q 1231 -59 1054 -26 
Q 878 6 740 51 
Q 603 97 512 145 
Q 422 194 398 216 
Q 375 238 362 259 
Q 350 281 340 312 
Q 331 344 326 389 
Q 322 434 322 500 
Q 322 613 344 656 
Q 366 700 406 700 
Q 434 700 517 650 
Q 600 600 729 542 
Q 859 484 1032 434 
Q 1206 384 1419 384 
Q 1625 384 1781 437 
Q 1938 491 2044 587 
Q 2150 684 2203 817 
Q 2256 950 2256 1106 
Q 2256 1278 2189 1415 
Q 2122 1553 1992 1653 
Q 1863 1753 1673 1806 
Q 1484 1859 1244 1859 
L 859 1859 
Q 834 1859 811 1870 
Q 788 1881 770 1906 
Q 753 1931 742 1972 
Q 731 2013 731 2078 
Q 731 2138 740 2177 
Q 750 2216 767 2239 
Q 784 2263 806 2273 
Q 828 2284 856 2284 
L 1209 2284 
Q 1416 2284 1580 2337 
Q 1744 2391 1858 2491 
Q 1972 2591 2033 2730 
Q 2094 2869 2094 3041 
Q 2094 3166 2053 3280 
Q 2013 3394 1931 3478 
Q 1850 3563 1723 3611 
Q 1597 3659 1431 3659 
Q 1250 3659 1098 3604 
Q 947 3550 828 3487 
Q 709 3425 631 3370 
Q 553 3316 522 3316 
Q 500 3316 483 3323 
Q 466 3331 455 3354 
Q 444 3378 439 3420 
Q 434 3463 434 3531 
Q 434 3578 437 3614 
Q 441 3650 450 3676 
Q 459 3703 471 3725 
Q 484 3747 514 3776 
Q 544 3806 634 3862 
Q 725 3919 858 3973 
Q 991 4028 1164 4065 
Q 1338 4103 1538 4103 
Q 1819 4103 2031 4031 
Q 2244 3959 2386 3828 
Q 2528 3697 2598 3514 
Q 2669 3331 2669 3109 
Q 2669 2919 2619 2755 
Q 2569 2591 2472 2464 
Q 2375 2338 2234 2248 
Q 2094 2159 1909 2125 
L 1909 2119 
Q 2119 2097 2292 2014 
Q 2466 1931 2591 1806 
Q 2716 1681 2786 1514 
Q 2856 1347 2856 1156 
z
" transform="scale(0.015625)"/>
       </defs>
       <use xlink:href="#Calibri-30"/>
       <use xlink:href="#Calibri-2e" x="50.683594"/>
       <use xlink:href="#Calibri-33" x="75.927734"/>
      </g>
     </g>
    </g>
    <g id="xtick_5">
     <g id="line2d_5">
      <g>
       <use xlink:href="#mea8a350d81" x="171.8784" y="307.584" style="stroke: #000000; stroke-width: 0.8"/>
      </g>
     </g>
     <g id="text_5">
      <!-- 0.4 -->
      <g transform="translate(165.54715 321.385562) scale(0.1 -0.1)">
       <defs>
        <path id="Calibri-34" d="M 3059 1150 
Q 3059 1047 3028 987 
Q 2997 928 2941 928 
L 2484 928 
L 2484 78 
Q 2484 53 2471 36 
Q 2459 19 2428 6 
Q 2397 -6 2347 -12 
Q 2297 -19 2219 -19 
Q 2144 -19 2094 -12 
Q 2044 -6 2014 6 
Q 1984 19 1973 36 
Q 1963 53 1963 78 
L 1963 928 
L 294 928 
Q 256 928 231 937 
Q 206 947 186 972 
Q 166 997 158 1044 
Q 150 1091 150 1166 
Q 150 1225 153 1272 
Q 156 1319 165 1358 
Q 175 1397 190 1433 
Q 206 1469 228 1509 
L 1684 3966 
Q 1700 3991 1729 4009 
Q 1759 4028 1806 4040 
Q 1853 4053 1922 4058 
Q 1991 4063 2084 4063 
Q 2188 4063 2264 4055 
Q 2341 4047 2387 4034 
Q 2434 4022 2459 4001 
Q 2484 3981 2484 3953 
L 2484 1372 
L 2941 1372 
Q 2994 1372 3026 1317 
Q 3059 1263 3059 1150 
z
M 1963 3591 
L 1956 3591 
L 641 1372 
L 1963 1372 
L 1963 3591 
z
" transform="scale(0.015625)"/>
       </defs>
       <use xlink:href="#Calibri-30"/>
       <use xlink:href="#Calibri-2e" x="50.683594"/>
       <use xlink:href="#Calibri-34" x="75.927734"/>
      </g>
     </g>
    </g>
    <g id="xtick_6">
     <g id="line2d_6">
      <g>
       <use xlink:href="#mea8a350d81" x="200.448" y="307.584" style="stroke: #000000; stroke-width: 0.8"/>
      </g>
     </g>
     <g id="text_6">
      <!-- 0.5 -->
      <g transform="translate(194.11675 321.385562) scale(0.1 -0.1)">
       <defs>
        <path id="Calibri-35" d="M 2869 1300 
Q 2869 975 2759 722 
Q 2650 469 2450 295 
Q 2250 122 1973 31 
Q 1697 -59 1359 -59 
Q 1172 -59 1003 -32 
Q 834 -6 703 33 
Q 572 72 487 109 
Q 403 147 379 169 
Q 356 191 347 209 
Q 338 228 330 254 
Q 322 281 319 322 
Q 316 363 316 419 
Q 316 472 320 514 
Q 325 556 337 582 
Q 350 609 367 621 
Q 384 634 406 634 
Q 438 634 503 595 
Q 569 556 680 511 
Q 791 466 955 425 
Q 1119 384 1344 384 
Q 1553 384 1728 434 
Q 1903 484 2029 590 
Q 2156 697 2228 858 
Q 2300 1019 2300 1250 
Q 2300 1444 2239 1592 
Q 2178 1741 2051 1839 
Q 1925 1938 1731 1986 
Q 1538 2034 1269 2034 
Q 1078 2034 940 2015 
Q 803 1997 684 1997 
Q 597 1997 559 2037 
Q 522 2078 522 2194 
L 522 3841 
Q 522 3944 570 3994 
Q 619 4044 709 4044 
L 2500 4044 
Q 2525 4044 2548 4030 
Q 2572 4016 2587 3987 
Q 2603 3959 2611 3915 
Q 2619 3872 2619 3813 
Q 2619 3700 2587 3637 
Q 2556 3575 2500 3575 
L 991 3575 
L 991 2441 
Q 1100 2456 1214 2459 
Q 1328 2463 1478 2463 
Q 1825 2463 2084 2380 
Q 2344 2297 2517 2145 
Q 2691 1994 2780 1778 
Q 2869 1563 2869 1300 
z
" transform="scale(0.015625)"/>
       </defs>
       <use xlink:href="#Calibri-30"/>
       <use xlink:href="#Calibri-2e" x="50.683594"/>
       <use xlink:href="#Calibri-35" x="75.927734"/>
      </g>
     </g>
    </g>
    <g id="xtick_7">
     <g id="line2d_7">
      <g>
       <use xlink:href="#mea8a350d81" x="229.0176" y="307.584" style="stroke: #000000; stroke-width: 0.8"/>
      </g>
     </g>
     <g id="text_7">
      <!-- 0.6 -->
      <g transform="translate(222.68635 321.385562) scale(0.1 -0.1)">
       <defs>
        <path id="Calibri-36" d="M 2991 1309 
Q 2991 1044 2909 795 
Q 2828 547 2659 358 
Q 2491 169 2231 55 
Q 1972 -59 1619 -59 
Q 1366 -59 1172 3 
Q 978 66 834 181 
Q 691 297 595 465 
Q 500 634 442 850 
Q 384 1066 359 1322 
Q 334 1578 334 1872 
Q 334 2131 362 2397 
Q 391 2663 462 2909 
Q 534 3156 657 3373 
Q 781 3591 967 3752 
Q 1153 3913 1412 4006 
Q 1672 4100 2016 4100 
Q 2131 4100 2250 4086 
Q 2369 4072 2469 4048 
Q 2569 4025 2637 3997 
Q 2706 3969 2728 3951 
Q 2750 3934 2761 3914 
Q 2772 3894 2778 3870 
Q 2784 3847 2787 3817 
Q 2791 3788 2791 3744 
Q 2791 3688 2789 3647 
Q 2788 3606 2777 3581 
Q 2766 3556 2748 3543 
Q 2731 3531 2703 3531 
Q 2669 3531 2609 3553 
Q 2550 3575 2465 3601 
Q 2381 3628 2261 3650 
Q 2141 3672 1981 3672 
Q 1691 3672 1481 3553 
Q 1272 3434 1139 3234 
Q 1006 3034 942 2770 
Q 878 2506 869 2219 
Q 950 2266 1051 2312 
Q 1153 2359 1273 2396 
Q 1394 2434 1528 2457 
Q 1663 2481 1816 2481 
Q 2144 2481 2369 2392 
Q 2594 2303 2733 2145 
Q 2872 1988 2931 1773 
Q 2991 1559 2991 1309 
z
M 2447 1259 
Q 2447 1441 2411 1589 
Q 2375 1738 2290 1841 
Q 2206 1944 2065 2000 
Q 1925 2056 1719 2056 
Q 1603 2056 1487 2036 
Q 1372 2016 1264 1980 
Q 1156 1944 1057 1895 
Q 959 1847 878 1791 
Q 878 1388 929 1116 
Q 981 844 1079 680 
Q 1178 516 1325 445 
Q 1472 375 1669 375 
Q 1869 375 2016 450 
Q 2163 525 2259 651 
Q 2356 778 2401 936 
Q 2447 1094 2447 1259 
z
" transform="scale(0.015625)"/>
       </defs>
       <use xlink:href="#Calibri-30"/>
       <use xlink:href="#Calibri-2e" x="50.683594"/>
       <use xlink:href="#Calibri-36" x="75.927734"/>
      </g>
     </g>
    </g>
    <g id="xtick_8">
     <g id="line2d_8">
      <g>
       <use xlink:href="#mea8a350d81" x="257.5872" y="307.584" style="stroke: #000000; stroke-width: 0.8"/>
      </g>
     </g>
     <g id="text_8">
      <!-- 0.7 -->
      <g transform="translate(251.25595 321.385562) scale(0.1 -0.1)">
       <defs>
        <path id="Calibri-37" d="M 2947 3813 
Q 2947 3756 2942 3711 
Q 2938 3666 2930 3623 
Q 2922 3581 2908 3542 
Q 2894 3503 2875 3459 
L 1419 103 
Q 1403 66 1379 42 
Q 1356 19 1320 5 
Q 1284 -9 1228 -14 
Q 1172 -19 1091 -19 
Q 984 -19 925 -9 
Q 866 0 839 20 
Q 813 41 816 70 
Q 819 100 838 141 
L 2369 3572 
L 428 3572 
Q 369 3572 339 3634 
Q 309 3697 309 3809 
Q 309 3869 317 3912 
Q 325 3956 340 3986 
Q 356 4016 378 4030 
Q 400 4044 428 4044 
L 2784 4044 
Q 2828 4044 2861 4034 
Q 2894 4025 2911 3997 
Q 2928 3969 2937 3925 
Q 2947 3881 2947 3813 
z
" transform="scale(0.015625)"/>
       </defs>
       <use xlink:href="#Calibri-30"/>
       <use xlink:href="#Calibri-2e" x="50.683594"/>
       <use xlink:href="#Calibri-37" x="75.927734"/>
      </g>
     </g>
    </g>
    <g id="xtick_9">
     <g id="line2d_9">
      <g>
       <use xlink:href="#mea8a350d81" x="286.1568" y="307.584" style="stroke: #000000; stroke-width: 0.8"/>
      </g>
     </g>
     <g id="text_9">
      <!-- 0.8 -->
      <g transform="translate(279.82555 321.385562) scale(0.1 -0.1)">
       <defs>
        <path id="Calibri-38" d="M 2981 1038 
Q 2981 775 2887 570 
Q 2794 366 2617 225 
Q 2441 84 2181 12 
Q 1922 -59 1588 -59 
Q 1275 -59 1028 6 
Q 781 72 609 200 
Q 438 328 347 515 
Q 256 703 256 944 
Q 256 1134 318 1293 
Q 381 1453 498 1587 
Q 616 1722 787 1839 
Q 959 1956 1175 2063 
Q 988 2159 844 2267 
Q 700 2375 600 2501 
Q 500 2628 448 2772 
Q 397 2916 397 3084 
Q 397 3297 473 3483 
Q 550 3669 704 3806 
Q 859 3944 1098 4023 
Q 1338 4103 1656 4103 
Q 1963 4103 2186 4029 
Q 2409 3956 2554 3829 
Q 2700 3703 2769 3531 
Q 2838 3359 2838 3163 
Q 2838 3003 2786 2856 
Q 2734 2709 2634 2578 
Q 2534 2447 2389 2333 
Q 2244 2219 2056 2119 
Q 2278 2009 2451 1893 
Q 2625 1778 2742 1645 
Q 2859 1513 2920 1364 
Q 2981 1216 2981 1038 
z
M 2306 3113 
Q 2306 3244 2261 3350 
Q 2216 3456 2128 3531 
Q 2041 3606 1911 3645 
Q 1781 3684 1616 3684 
Q 1278 3684 1104 3531 
Q 931 3378 931 3113 
Q 931 2991 973 2886 
Q 1016 2781 1105 2687 
Q 1194 2594 1330 2505 
Q 1466 2416 1653 2319 
Q 1969 2481 2137 2678 
Q 2306 2875 2306 3113 
z
M 2438 981 
Q 2438 1125 2384 1242 
Q 2331 1359 2223 1461 
Q 2116 1563 1955 1658 
Q 1794 1753 1581 1856 
Q 1384 1759 1236 1662 
Q 1088 1566 992 1462 
Q 897 1359 848 1245 
Q 800 1131 800 994 
Q 800 691 1008 525 
Q 1216 359 1628 359 
Q 2028 359 2233 526 
Q 2438 694 2438 981 
z
" transform="scale(0.015625)"/>
       </defs>
       <use xlink:href="#Calibri-30"/>
       <use xlink:href="#Calibri-2e" x="50.683594"/>
       <use xlink:href="#Calibri-38" x="75.927734"/>
      </g>
     </g>
    </g>
    <g id="xtick_10">
     <g id="line2d_10">
      <g>
       <use xlink:href="#mea8a350d81" x="314.7264" y="307.584" style="stroke: #000000; stroke-width: 0.8"/>
      </g>
     </g>
     <g id="text_10">
      <!-- 0.9 -->
      <g transform="translate(308.39515 321.385562) scale(0.1 -0.1)">
       <defs>
        <path id="Calibri-39" d="M 2919 2181 
Q 2919 1919 2887 1650 
Q 2856 1381 2781 1132 
Q 2706 884 2579 667 
Q 2453 450 2261 287 
Q 2069 125 1805 33 
Q 1541 -59 1191 -59 
Q 1056 -59 929 -42 
Q 803 -25 701 0 
Q 600 25 531 53 
Q 463 81 431 109 
Q 400 138 386 186 
Q 372 234 372 316 
Q 372 384 376 425 
Q 381 466 390 487 
Q 400 509 417 517 
Q 434 525 459 525 
Q 494 525 556 501 
Q 619 478 714 450 
Q 809 422 937 398 
Q 1066 375 1225 375 
Q 1528 375 1745 492 
Q 1963 609 2100 806 
Q 2238 1003 2306 1262 
Q 2375 1522 2381 1809 
Q 2216 1713 1984 1638 
Q 1753 1563 1453 1563 
Q 1116 1563 886 1655 
Q 656 1747 517 1906 
Q 378 2066 317 2284 
Q 256 2503 256 2763 
Q 256 3031 334 3273 
Q 413 3516 578 3700 
Q 744 3884 1000 3993 
Q 1256 4103 1613 4103 
Q 1866 4103 2061 4039 
Q 2256 3975 2400 3854 
Q 2544 3734 2644 3564 
Q 2744 3394 2805 3178 
Q 2866 2963 2892 2711 
Q 2919 2459 2919 2181 
z
M 2372 2241 
Q 2372 2641 2319 2914 
Q 2266 3188 2162 3356 
Q 2059 3525 1909 3600 
Q 1759 3675 1563 3675 
Q 1359 3675 1215 3601 
Q 1072 3528 980 3404 
Q 888 3281 844 3125 
Q 800 2969 800 2803 
Q 800 2619 839 2466 
Q 878 2313 965 2206 
Q 1053 2100 1193 2042 
Q 1334 1984 1541 1984 
Q 1775 1984 1994 2054 
Q 2213 2125 2372 2241 
z
" transform="scale(0.015625)"/>
       </defs>
       <use xlink:href="#Calibri-30"/>
       <use xlink:href="#Calibri-2e" x="50.683594"/>
       <use xlink:href="#Calibri-39" x="75.927734"/>
      </g>
     </g>
    </g>
    <g id="xtick_11">
     <g id="line2d_11">
      <g>
       <use xlink:href="#mea8a350d81" x="343.296" y="307.584" style="stroke: #000000; stroke-width: 0.8"/>
      </g>
     </g>
     <g id="text_11">
      <!-- 1.0 -->
      <g transform="translate(336.96475 321.385562) scale(0.1 -0.1)">
       <use xlink:href="#Calibri-31"/>
       <use xlink:href="#Calibri-2e" x="50.683594"/>
       <use xlink:href="#Calibri-30" x="75.927734"/>
      </g>
     </g>
    </g>
    <g id="text_12">
     <!-- $\mathit{p}$ (cm$^2$/cm$^2$) -->
     <g transform="translate(174.148 336.263687) scale(0.1 -0.1)">
      <defs>
       <path id="DejaVuSans-Oblique-70" d="M 3175 2156 
Q 3175 2616 2975 2859 
Q 2775 3103 2400 3103 
Q 2144 3103 1911 2972 
Q 1678 2841 1497 2591 
Q 1319 2344 1212 1994 
Q 1106 1644 1106 1300 
Q 1106 863 1306 627 
Q 1506 391 1875 391 
Q 2147 391 2380 519 
Q 2613 647 2778 891 
Q 2956 1147 3065 1494 
Q 3175 1841 3175 2156 
z
M 1394 2969 
Q 1625 3272 1939 3428 
Q 2253 3584 2638 3584 
Q 3175 3584 3472 3232 
Q 3769 2881 3769 2247 
Q 3769 1728 3584 1258 
Q 3400 788 3053 416 
Q 2822 169 2531 39 
Q 2241 -91 1919 -91 
Q 1547 -91 1294 64 
Q 1041 219 916 525 
L 556 -1331 
L -19 -1331 
L 922 3500 
L 1497 3500 
L 1394 2969 
z
" transform="scale(0.015625)"/>
       <path id="Calibri-20" transform="scale(0.015625)"/>
       <path id="Calibri-28" d="M 1547 4306 
Q 1250 3678 1104 3017 
Q 959 2356 959 1688 
Q 959 1016 1107 356 
Q 1256 -303 1541 -938 
Q 1556 -975 1557 -1001 
Q 1559 -1028 1537 -1045 
Q 1516 -1063 1470 -1070 
Q 1425 -1078 1347 -1078 
Q 1291 -1078 1250 -1075 
Q 1209 -1072 1179 -1062 
Q 1150 -1053 1131 -1040 
Q 1113 -1028 1103 -1013 
Q 934 -694 806 -367 
Q 678 -41 590 296 
Q 503 634 459 979 
Q 416 1325 416 1678 
Q 416 2031 464 2375 
Q 513 2719 602 3058 
Q 691 3397 819 3725 
Q 947 4053 1106 4375 
Q 1109 4388 1123 4397 
Q 1138 4406 1163 4415 
Q 1188 4425 1231 4429 
Q 1275 4434 1344 4434 
Q 1416 4434 1459 4425 
Q 1503 4416 1528 4400 
Q 1553 4384 1556 4359 
Q 1559 4334 1547 4306 
z
" transform="scale(0.015625)"/>
       <path id="Calibri-63" d="M 2500 506 
Q 2500 453 2497 414 
Q 2494 375 2486 348 
Q 2478 322 2467 301 
Q 2456 281 2417 242 
Q 2378 203 2284 145 
Q 2191 88 2073 42 
Q 1956 -3 1818 -31 
Q 1681 -59 1534 -59 
Q 1231 -59 997 41 
Q 763 141 605 333 
Q 447 525 364 804 
Q 281 1084 281 1450 
Q 281 1866 382 2164 
Q 484 2463 661 2653 
Q 838 2844 1077 2936 
Q 1316 3028 1594 3028 
Q 1728 3028 1854 3003 
Q 1981 2978 2087 2937 
Q 2194 2897 2276 2844 
Q 2359 2791 2396 2753 
Q 2434 2716 2448 2694 
Q 2463 2672 2472 2642 
Q 2481 2613 2484 2575 
Q 2488 2538 2488 2481 
Q 2488 2359 2459 2311 
Q 2431 2263 2391 2263 
Q 2344 2263 2283 2314 
Q 2222 2366 2128 2428 
Q 2034 2491 1901 2542 
Q 1769 2594 1588 2594 
Q 1216 2594 1017 2308 
Q 819 2022 819 1478 
Q 819 1206 870 1001 
Q 922 797 1022 659 
Q 1122 522 1267 455 
Q 1413 388 1600 388 
Q 1778 388 1912 444 
Q 2047 500 2145 567 
Q 2244 634 2311 689 
Q 2378 744 2416 744 
Q 2438 744 2453 731 
Q 2469 719 2480 689 
Q 2491 659 2495 614 
Q 2500 569 2500 506 
z
" transform="scale(0.015625)"/>
       <path id="Calibri-6d" d="M 4650 78 
Q 4650 53 4637 36 
Q 4625 19 4597 6 
Q 4569 -6 4519 -12 
Q 4469 -19 4394 -19 
Q 4316 -19 4266 -12 
Q 4216 -6 4186 6 
Q 4156 19 4143 36 
Q 4131 53 4131 78 
L 4131 1788 
Q 4131 1966 4100 2112 
Q 4069 2259 4000 2365 
Q 3931 2472 3825 2528 
Q 3719 2584 3575 2584 
Q 3397 2584 3217 2446 
Q 3038 2309 2822 2044 
L 2822 78 
Q 2822 53 2809 36 
Q 2797 19 2767 6 
Q 2738 -6 2688 -12 
Q 2638 -19 2563 -19 
Q 2491 -19 2439 -12 
Q 2388 -6 2358 6 
Q 2328 19 2317 36 
Q 2306 53 2306 78 
L 2306 1788 
Q 2306 1966 2272 2112 
Q 2238 2259 2169 2365 
Q 2100 2472 1995 2528 
Q 1891 2584 1747 2584 
Q 1569 2584 1387 2446 
Q 1206 2309 994 2044 
L 994 78 
Q 994 53 981 36 
Q 969 19 941 6 
Q 913 -6 863 -12 
Q 813 -19 734 -19 
Q 659 -19 609 -12 
Q 559 -6 529 6 
Q 500 19 489 36 
Q 478 53 478 78 
L 478 2891 
Q 478 2916 487 2933 
Q 497 2950 525 2964 
Q 553 2978 597 2983 
Q 641 2988 713 2988 
Q 781 2988 826 2983 
Q 872 2978 897 2964 
Q 922 2950 933 2933 
Q 944 2916 944 2891 
L 944 2519 
Q 1181 2784 1404 2907 
Q 1628 3031 1856 3031 
Q 2031 3031 2170 2990 
Q 2309 2950 2415 2876 
Q 2522 2803 2597 2701 
Q 2672 2600 2722 2475 
Q 2863 2628 2989 2734 
Q 3116 2841 3233 2906 
Q 3350 2972 3461 3001 
Q 3572 3031 3684 3031 
Q 3956 3031 4140 2936 
Q 4325 2841 4439 2681 
Q 4553 2522 4601 2308 
Q 4650 2094 4650 1856 
L 4650 78 
z
" transform="scale(0.015625)"/>
       <path id="DejaVuSans-32" d="M 1228 531 
L 3431 531 
L 3431 0 
L 469 0 
L 469 531 
Q 828 903 1448 1529 
Q 2069 2156 2228 2338 
Q 2531 2678 2651 2914 
Q 2772 3150 2772 3378 
Q 2772 3750 2511 3984 
Q 2250 4219 1831 4219 
Q 1534 4219 1204 4116 
Q 875 4013 500 3803 
L 500 4441 
Q 881 4594 1212 4672 
Q 1544 4750 1819 4750 
Q 2544 4750 2975 4387 
Q 3406 4025 3406 3419 
Q 3406 3131 3298 2873 
Q 3191 2616 2906 2266 
Q 2828 2175 2409 1742 
Q 1991 1309 1228 531 
z
" transform="scale(0.015625)"/>
       <path id="Calibri-2f" d="M 525 -753 
Q 513 -794 492 -817 
Q 472 -841 440 -853 
Q 409 -866 364 -872 
Q 319 -878 253 -878 
Q 175 -878 123 -867 
Q 72 -856 44 -836 
Q 16 -816 9 -786 
Q 3 -756 22 -716 
L 1913 4469 
Q 1925 4509 1945 4532 
Q 1966 4556 1995 4570 
Q 2025 4584 2072 4589 
Q 2119 4594 2184 4594 
Q 2263 4594 2313 4583 
Q 2363 4572 2391 4553 
Q 2419 4534 2425 4503 
Q 2431 4472 2416 4431 
L 525 -753 
z
" transform="scale(0.015625)"/>
       <path id="Calibri-29" d="M 1522 1678 
Q 1522 1325 1478 979 
Q 1434 634 1346 296 
Q 1259 -41 1132 -367 
Q 1006 -694 838 -1013 
Q 828 -1028 809 -1040 
Q 791 -1053 761 -1062 
Q 731 -1072 690 -1075 
Q 650 -1078 594 -1078 
Q 513 -1078 467 -1070 
Q 422 -1063 401 -1045 
Q 381 -1028 382 -1001 
Q 384 -975 400 -938 
Q 688 -306 834 355 
Q 981 1016 981 1688 
Q 981 2356 834 3017 
Q 688 3678 394 4306 
Q 381 4334 384 4359 
Q 388 4384 413 4400 
Q 438 4416 481 4425 
Q 525 4434 597 4434 
Q 663 4434 706 4429 
Q 750 4425 776 4415 
Q 803 4406 815 4397 
Q 828 4388 834 4375 
Q 1156 3734 1339 3057 
Q 1522 2381 1522 1678 
z
" transform="scale(0.015625)"/>
      </defs>
      <use xlink:href="#DejaVuSans-Oblique-70" transform="translate(0 0.765625)"/>
      <use xlink:href="#Calibri-20" transform="translate(63.476562 0.765625)"/>
      <use xlink:href="#Calibri-28" transform="translate(84.958984 0.765625)"/>
      <use xlink:href="#Calibri-63" transform="translate(115.28125 0.765625)"/>
      <use xlink:href="#Calibri-6d" transform="translate(157.566406 0.765625)"/>
      <use xlink:href="#DejaVuSans-32" transform="translate(238.40625 39.046875) scale(0.7)"/>
      <use xlink:href="#Calibri-2f" transform="translate(285.676758 0.765625)"/>
      <use xlink:href="#Calibri-63" transform="translate(324.299805 0.765625)"/>
      <use xlink:href="#Calibri-6d" transform="translate(366.584961 0.765625)"/>
      <use xlink:href="#DejaVuSans-32" transform="translate(447.424805 39.046875) scale(0.7)"/>
      <use xlink:href="#Calibri-29" transform="translate(494.695312 0.765625)"/>
     </g>
    </g>
   </g>
   <g id="matplotlib.axis_2">
    <g id="ytick_1">
     <g id="line2d_12">
      <defs>
       <path id="m602dc9e673" d="M 0 0 
L -3.5 0 
" style="stroke: #000000; stroke-width: 0.8"/>
      </defs>
      <g>
       <use xlink:href="#m602dc9e673" x="57.6" y="275.65056" style="stroke: #000000; stroke-width: 0.8"/>
      </g>
     </g>
     <g id="text_13">
      <!-- 25 -->
      <g transform="translate(40.4625 279.051341) scale(0.1 -0.1)">
       <use xlink:href="#Calibri-32"/>
       <use xlink:href="#Calibri-35" x="50.683594"/>
      </g>
     </g>
    </g>
    <g id="ytick_2">
     <g id="line2d_13">
      <g>
       <use xlink:href="#m602dc9e673" x="57.6" y="242.38656" style="stroke: #000000; stroke-width: 0.8"/>
      </g>
     </g>
     <g id="text_14">
      <!-- 50 -->
      <g transform="translate(40.4625 245.787341) scale(0.1 -0.1)">
       <use xlink:href="#Calibri-35"/>
       <use xlink:href="#Calibri-30" x="50.683594"/>
      </g>
     </g>
    </g>
    <g id="ytick_3">
     <g id="line2d_14">
      <g>
       <use xlink:href="#m602dc9e673" x="57.6" y="209.12256" style="stroke: #000000; stroke-width: 0.8"/>
      </g>
     </g>
     <g id="text_15">
      <!-- 75 -->
      <g transform="translate(40.4625 212.523341) scale(0.1 -0.1)">
       <use xlink:href="#Calibri-37"/>
       <use xlink:href="#Calibri-35" x="50.683594"/>
      </g>
     </g>
    </g>
    <g id="ytick_4">
     <g id="line2d_15">
      <g>
       <use xlink:href="#m602dc9e673" x="57.6" y="175.85856" style="stroke: #000000; stroke-width: 0.8"/>
      </g>
     </g>
     <g id="text_16">
      <!-- 100 -->
      <g transform="translate(35.39375 179.259341) scale(0.1 -0.1)">
       <use xlink:href="#Calibri-31"/>
       <use xlink:href="#Calibri-30" x="50.683594"/>
       <use xlink:href="#Calibri-30" x="101.367188"/>
      </g>
     </g>
    </g>
    <g id="ytick_5">
     <g id="line2d_16">
      <g>
       <use xlink:href="#m602dc9e673" x="57.6" y="142.59456" style="stroke: #000000; stroke-width: 0.8"/>
      </g>
     </g>
     <g id="text_17">
      <!-- 125 -->
      <g transform="translate(35.39375 145.995341) scale(0.1 -0.1)">
       <use xlink:href="#Calibri-31"/>
       <use xlink:href="#Calibri-32" x="50.683594"/>
       <use xlink:href="#Calibri-35" x="101.367188"/>
      </g>
     </g>
    </g>
    <g id="ytick_6">
     <g id="line2d_17">
      <g>
       <use xlink:href="#m602dc9e673" x="57.6" y="109.33056" style="stroke: #000000; stroke-width: 0.8"/>
      </g>
     </g>
     <g id="text_18">
      <!-- 150 -->
      <g transform="translate(35.39375 112.731341) scale(0.1 -0.1)">
       <use xlink:href="#Calibri-31"/>
       <use xlink:href="#Calibri-35" x="50.683594"/>
       <use xlink:href="#Calibri-30" x="101.367188"/>
      </g>
     </g>
    </g>
    <g id="ytick_7">
     <g id="line2d_18">
      <g>
       <use xlink:href="#m602dc9e673" x="57.6" y="76.06656" style="stroke: #000000; stroke-width: 0.8"/>
      </g>
     </g>
     <g id="text_19">
      <!-- 175 -->
      <g transform="translate(35.39375 79.467341) scale(0.1 -0.1)">
       <use xlink:href="#Calibri-31"/>
       <use xlink:href="#Calibri-37" x="50.683594"/>
       <use xlink:href="#Calibri-35" x="101.367188"/>
      </g>
     </g>
    </g>
    <g id="ytick_8">
     <g id="line2d_19">
      <g>
       <use xlink:href="#m602dc9e673" x="57.6" y="42.80256" style="stroke: #000000; stroke-width: 0.8"/>
      </g>
     </g>
     <g id="text_20">
      <!-- 200 -->
      <g transform="translate(35.39375 46.203341) scale(0.1 -0.1)">
       <use xlink:href="#Calibri-32"/>
       <use xlink:href="#Calibri-30" x="50.683594"/>
       <use xlink:href="#Calibri-30" x="101.367188"/>
      </g>
     </g>
    </g>
    <g id="text_21">
     <!-- $\mathit{Z}$$_{a}$ (nm) -->
     <g transform="translate(29.59375 191.028) rotate(-90) scale(0.1 -0.1)">
      <defs>
       <path id="DejaVuSans-Oblique-5a" d="M 838 4666 
L 4500 4666 
L 4409 4184 
L 794 531 
L 3769 531 
L 3669 0 
L -141 0 
L -50 481 
L 3566 4134 
L 738 4134 
L 838 4666 
z
" transform="scale(0.015625)"/>
       <path id="DejaVuSans-Oblique-61" d="M 3438 1997 
L 3047 0 
L 2472 0 
L 2578 531 
Q 2325 219 2001 64 
Q 1678 -91 1281 -91 
Q 834 -91 548 182 
Q 263 456 263 884 
Q 263 1497 752 1853 
Q 1241 2209 2100 2209 
L 2900 2209 
L 2931 2363 
Q 2938 2388 2941 2417 
Q 2944 2447 2944 2509 
Q 2944 2788 2717 2942 
Q 2491 3097 2081 3097 
Q 1800 3097 1504 3025 
Q 1209 2953 897 2809 
L 997 3341 
Q 1322 3463 1633 3523 
Q 1944 3584 2234 3584 
Q 2853 3584 3176 3315 
Q 3500 3047 3500 2534 
Q 3500 2431 3484 2292 
Q 3469 2153 3438 1997 
z
M 2816 1759 
L 2241 1759 
Q 1534 1759 1195 1570 
Q 856 1381 856 984 
Q 856 709 1029 553 
Q 1203 397 1509 397 
Q 1978 397 2328 733 
Q 2678 1069 2791 1631 
L 2816 1759 
z
" transform="scale(0.015625)"/>
       <path id="Calibri-6e" d="M 2900 78 
Q 2900 53 2887 36 
Q 2875 19 2847 6 
Q 2819 -6 2769 -12 
Q 2719 -19 2644 -19 
Q 2566 -19 2516 -12 
Q 2466 -6 2437 6 
Q 2409 19 2396 36 
Q 2384 53 2384 78 
L 2384 1725 
Q 2384 1966 2346 2112 
Q 2309 2259 2237 2365 
Q 2166 2472 2052 2528 
Q 1938 2584 1788 2584 
Q 1594 2584 1400 2446 
Q 1206 2309 994 2044 
L 994 78 
Q 994 53 981 36 
Q 969 19 941 6 
Q 913 -6 863 -12 
Q 813 -19 734 -19 
Q 659 -19 609 -12 
Q 559 -6 529 6 
Q 500 19 489 36 
Q 478 53 478 78 
L 478 2891 
Q 478 2916 487 2933 
Q 497 2950 525 2964 
Q 553 2978 597 2983 
Q 641 2988 713 2988 
Q 781 2988 826 2983 
Q 872 2978 897 2964 
Q 922 2950 933 2933 
Q 944 2916 944 2891 
L 944 2519 
Q 1181 2784 1417 2907 
Q 1653 3031 1894 3031 
Q 2175 3031 2367 2936 
Q 2559 2841 2678 2681 
Q 2797 2522 2848 2308 
Q 2900 2094 2900 1794 
L 2900 78 
z
" transform="scale(0.015625)"/>
      </defs>
      <use xlink:href="#DejaVuSans-Oblique-5a" transform="translate(0 0.09375)"/>
      <use xlink:href="#DejaVuSans-Oblique-61" transform="translate(69.462891 -16.3125) scale(0.7)"/>
      <use xlink:href="#Calibri-20" transform="translate(115.092773 0.09375)"/>
      <use xlink:href="#Calibri-28" transform="translate(136.575195 0.09375)"/>
      <use xlink:href="#Calibri-6e" transform="translate(166.897461 0.09375)"/>
      <use xlink:href="#Calibri-6d" transform="translate(219.436523 0.09375)"/>
      <use xlink:href="#Calibri-29" transform="translate(299.319336 0.09375)"/>
     </g>
    </g>
   </g>
   <g id="patch_3">
    <path d="M 57.6 307.584 
L 57.6 41.472 
" style="fill: none; stroke: #000000; stroke-width: 0.8; stroke-linejoin: miter; stroke-linecap: square"/>
   </g>
   <g id="patch_4">
    <path d="M 343.296 307.584 
L 343.296 41.472 
" style="fill: none; stroke: #000000; stroke-width: 0.8; stroke-linejoin: miter; stroke-linecap: square"/>
   </g>
   <g id="patch_5">
    <path d="M 57.6 307.584 
L 343.296 307.584 
" style="fill: none; stroke: #000000; stroke-width: 0.8; stroke-linejoin: miter; stroke-linecap: square"/>
   </g>
   <g id="patch_6">
    <path d="M 57.6 41.472 
L 343.296 41.472 
" style="fill: none; stroke: #000000; stroke-width: 0.8; stroke-linejoin: miter; stroke-linecap: square"/>
   </g>
   <g id="text_22">
    <!-- $\lambda$ = 615 nm -->
    <g transform="translate(177.348 35.472) scale(0.1 -0.1)">
     <defs>
      <path id="DejaVuSans-Oblique-3bb" d="M 2350 4316 
L 3125 0 
L 2516 0 
L 2038 2588 
L 328 0 
L -281 0 
L 1903 3356 
L 1794 3975 
Q 1725 4369 1391 4369 
L 1091 4369 
L 1184 4863 
L 1550 4856 
Q 2253 4847 2350 4316 
z
" transform="scale(0.015625)"/>
      <path id="Calibri-3d" d="M 2891 2409 
Q 2891 2284 2855 2236 
Q 2819 2188 2772 2188 
L 409 2188 
Q 363 2188 328 2236 
Q 294 2284 294 2409 
Q 294 2522 325 2575 
Q 356 2628 409 2628 
L 2772 2628 
Q 2828 2628 2859 2575 
Q 2891 2522 2891 2409 
z
M 2891 1194 
Q 2891 1069 2855 1022 
Q 2819 975 2772 975 
L 409 975 
Q 363 975 328 1022 
Q 294 1069 294 1194 
Q 294 1309 325 1362 
Q 356 1416 409 1416 
L 2772 1416 
Q 2828 1416 2859 1362 
Q 2891 1309 2891 1194 
z
" transform="scale(0.015625)"/>
     </defs>
     <use xlink:href="#DejaVuSans-Oblique-3bb" transform="translate(0 0.015625)"/>
     <use xlink:href="#Calibri-20" transform="translate(59.179688 0.015625)"/>
     <use xlink:href="#Calibri-3d" transform="translate(81.787109 0.015625)"/>
     <use xlink:href="#Calibri-20" transform="translate(131.591797 0.015625)"/>
     <use xlink:href="#Calibri-36" transform="translate(154.199219 0.015625)"/>
     <use xlink:href="#Calibri-31" transform="translate(204.882812 0.015625)"/>
     <use xlink:href="#Calibri-35" transform="translate(255.566406 0.015625)"/>
     <use xlink:href="#Calibri-20" transform="translate(306.25 0.015625)"/>
     <use xlink:href="#Calibri-6e" transform="translate(328.857422 0.015625)"/>
     <use xlink:href="#Calibri-6d" transform="translate(381.396484 0.015625)"/>
    </g>
   </g>
  </g>
  <g id="axes_2">
   <g id="patch_7">
    <path d="M 361.152 307.584 
L 374.4576 307.584 
L 374.4576 41.472 
L 361.152 41.472 
z
" style="fill: #ffffff"/>
   </g>
   <g id="QuadMesh_1">
    <path d="M 361.152 307.584 
L 374.4576 307.584 
L 374.4576 280.9728 
L 361.152 280.9728 
L 361.152 307.584 
" clip-path="url(#p84b4dea246)" style="fill: #0000b6"/>
    <path d="M 361.152 280.9728 
L 374.4576 280.9728 
L 374.4576 254.3616 
L 361.152 254.3616 
L 361.152 280.9728 
" clip-path="url(#p84b4dea246)" style="fill: #0018ff"/>
    <path d="M 361.152 254.3616 
L 374.4576 254.3616 
L 374.4576 227.7504 
L 361.152 227.7504 
L 361.152 254.3616 
" clip-path="url(#p84b4dea246)" style="fill: #0080ff"/>
    <path d="M 361.152 227.7504 
L 374.4576 227.7504 
L 374.4576 201.1392 
L 361.152 201.1392 
L 361.152 227.7504 
" clip-path="url(#p84b4dea246)" style="fill: #00e4f8"/>
    <path d="M 361.152 201.1392 
L 374.4576 201.1392 
L 374.4576 174.528 
L 361.152 174.528 
L 361.152 201.1392 
" clip-path="url(#p84b4dea246)" style="fill: #53ffa4"/>
    <path d="M 361.152 174.528 
L 374.4576 174.528 
L 374.4576 147.9168 
L 361.152 147.9168 
L 361.152 174.528 
" clip-path="url(#p84b4dea246)" style="fill: #a4ff53"/>
    <path d="M 361.152 147.9168 
L 374.4576 147.9168 
L 374.4576 121.3056 
L 361.152 121.3056 
L 361.152 147.9168 
" clip-path="url(#p84b4dea246)" style="fill: #f8f500"/>
    <path d="M 361.152 121.3056 
L 374.4576 121.3056 
L 374.4576 94.6944 
L 361.152 94.6944 
L 361.152 121.3056 
" clip-path="url(#p84b4dea246)" style="fill: #ff9400"/>
    <path d="M 361.152 94.6944 
L 374.4576 94.6944 
L 374.4576 68.0832 
L 361.152 68.0832 
L 361.152 94.6944 
" clip-path="url(#p84b4dea246)" style="fill: #ff3800"/>
    <path d="M 361.152 68.0832 
L 374.4576 68.0832 
L 374.4576 41.472 
L 361.152 41.472 
L 361.152 68.0832 
" clip-path="url(#p84b4dea246)" style="fill: #b60000"/>
   </g>
   <g id="matplotlib.axis_3"/>
   <g id="matplotlib.axis_4">
    <g id="ytick_9">
     <g id="line2d_20">
      <defs>
       <path id="m80cdcd0263" d="M 0 0 
L 3.5 0 
" style="stroke: #000000; stroke-width: 0.8"/>
      </defs>
      <g>
       <use xlink:href="#m80cdcd0263" x="374.4576" y="307.584" style="stroke: #000000; stroke-width: 0.8"/>
      </g>
     </g>
     <g id="text_23">
      <!-- 0 -->
      <g transform="translate(381.4576 310.984781) scale(0.1 -0.1)">
       <use xlink:href="#Calibri-30"/>
      </g>
     </g>
    </g>
    <g id="ytick_10">
     <g id="line2d_21">
      <g>
       <use xlink:href="#m80cdcd0263" x="374.4576" y="280.9728" style="stroke: #000000; stroke-width: 0.8"/>
      </g>
     </g>
     <g id="text_24">
      <!-- 0.1 -->
      <g transform="translate(381.4576 284.373581) scale(0.1 -0.1)">
       <use xlink:href="#Calibri-30"/>
       <use xlink:href="#Calibri-2e" x="50.683594"/>
       <use xlink:href="#Calibri-31" x="75.927734"/>
      </g>
     </g>
    </g>
    <g id="ytick_11">
     <g id="line2d_22">
      <g>
       <use xlink:href="#m80cdcd0263" x="374.4576" y="254.3616" style="stroke: #000000; stroke-width: 0.8"/>
      </g>
     </g>
     <g id="text_25">
      <!-- 0.2 -->
      <g transform="translate(381.4576 257.762381) scale(0.1 -0.1)">
       <use xlink:href="#Calibri-30"/>
       <use xlink:href="#Calibri-2e" x="50.683594"/>
       <use xlink:href="#Calibri-32" x="75.927734"/>
      </g>
     </g>
    </g>
    <g id="ytick_12">
     <g id="line2d_23">
      <g>
       <use xlink:href="#m80cdcd0263" x="374.4576" y="227.7504" style="stroke: #000000; stroke-width: 0.8"/>
      </g>
     </g>
     <g id="text_26">
      <!-- 0.3 -->
      <g transform="translate(381.4576 231.151181) scale(0.1 -0.1)">
       <use xlink:href="#Calibri-30"/>
       <use xlink:href="#Calibri-2e" x="50.683594"/>
       <use xlink:href="#Calibri-33" x="75.927734"/>
      </g>
     </g>
    </g>
    <g id="ytick_13">
     <g id="line2d_24">
      <g>
       <use xlink:href="#m80cdcd0263" x="374.4576" y="201.1392" style="stroke: #000000; stroke-width: 0.8"/>
      </g>
     </g>
     <g id="text_27">
      <!-- 0.4 -->
      <g transform="translate(381.4576 204.539981) scale(0.1 -0.1)">
       <use xlink:href="#Calibri-30"/>
       <use xlink:href="#Calibri-2e" x="50.683594"/>
       <use xlink:href="#Calibri-34" x="75.927734"/>
      </g>
     </g>
    </g>
    <g id="ytick_14">
     <g id="line2d_25">
      <g>
       <use xlink:href="#m80cdcd0263" x="374.4576" y="174.528" style="stroke: #000000; stroke-width: 0.8"/>
      </g>
     </g>
     <g id="text_28">
      <!-- 0.5 -->
      <g transform="translate(381.4576 177.928781) scale(0.1 -0.1)">
       <use xlink:href="#Calibri-30"/>
       <use xlink:href="#Calibri-2e" x="50.683594"/>
       <use xlink:href="#Calibri-35" x="75.927734"/>
      </g>
     </g>
    </g>
    <g id="ytick_15">
     <g id="line2d_26">
      <g>
       <use xlink:href="#m80cdcd0263" x="374.4576" y="147.9168" style="stroke: #000000; stroke-width: 0.8"/>
      </g>
     </g>
     <g id="text_29">
      <!-- 0.6 -->
      <g transform="translate(381.4576 151.317581) scale(0.1 -0.1)">
       <use xlink:href="#Calibri-30"/>
       <use xlink:href="#Calibri-2e" x="50.683594"/>
       <use xlink:href="#Calibri-36" x="75.927734"/>
      </g>
     </g>
    </g>
    <g id="ytick_16">
     <g id="line2d_27">
      <g>
       <use xlink:href="#m80cdcd0263" x="374.4576" y="121.3056" style="stroke: #000000; stroke-width: 0.8"/>
      </g>
     </g>
     <g id="text_30">
      <!-- 0.7 -->
      <g transform="translate(381.4576 124.706381) scale(0.1 -0.1)">
       <use xlink:href="#Calibri-30"/>
       <use xlink:href="#Calibri-2e" x="50.683594"/>
       <use xlink:href="#Calibri-37" x="75.927734"/>
      </g>
     </g>
    </g>
    <g id="ytick_17">
     <g id="line2d_28">
      <g>
       <use xlink:href="#m80cdcd0263" x="374.4576" y="94.6944" style="stroke: #000000; stroke-width: 0.8"/>
      </g>
     </g>
     <g id="text_31">
      <!-- 0.8 -->
      <g transform="translate(381.4576 98.095181) scale(0.1 -0.1)">
       <use xlink:href="#Calibri-30"/>
       <use xlink:href="#Calibri-2e" x="50.683594"/>
       <use xlink:href="#Calibri-38" x="75.927734"/>
      </g>
     </g>
    </g>
    <g id="ytick_18">
     <g id="line2d_29">
      <g>
       <use xlink:href="#m80cdcd0263" x="374.4576" y="68.0832" style="stroke: #000000; stroke-width: 0.8"/>
      </g>
     </g>
     <g id="text_32">
      <!-- 0.9 -->
      <g transform="translate(381.4576 71.483981) scale(0.1 -0.1)">
       <use xlink:href="#Calibri-30"/>
       <use xlink:href="#Calibri-2e" x="50.683594"/>
       <use xlink:href="#Calibri-39" x="75.927734"/>
      </g>
     </g>
    </g>
    <g id="ytick_19">
     <g id="line2d_30">
      <g>
       <use xlink:href="#m80cdcd0263" x="374.4576" y="41.472" style="stroke: #000000; stroke-width: 0.8"/>
      </g>
     </g>
     <g id="text_33">
      <!-- 1.0 -->
      <g transform="translate(381.4576 44.872781) scale(0.1 -0.1)">
       <use xlink:href="#Calibri-31"/>
       <use xlink:href="#Calibri-2e" x="50.683594"/>
       <use xlink:href="#Calibri-30" x="75.927734"/>
      </g>
     </g>
    </g>
   </g>
   <g id="LineCollection_1"/>
   <g id="patch_8">
    <path d="M 361.152 307.584 
L 367.8048 307.584 
L 374.4576 307.584 
L 374.4576 41.472 
L 367.8048 41.472 
L 361.152 41.472 
L 361.152 307.584 
z
" style="fill: none; stroke: #000000; stroke-width: 0.8; stroke-linejoin: miter; stroke-linecap: square"/>
   </g>
   <g id="text_34">
    <!-- $\mathit{E}_{\mathrm{dis}}$/$\mathit{E}_{\mathrm{i}}$ -->
    <g transform="translate(353.2548 35.472) scale(0.1 -0.1)">
     <defs>
      <path id="DejaVuSans-Oblique-45" d="M 1081 4666 
L 4031 4666 
L 3928 4134 
L 1606 4134 
L 1338 2753 
L 3566 2753 
L 3463 2222 
L 1234 2222 
L 909 531 
L 3284 531 
L 3181 0 
L 172 0 
L 1081 4666 
z
" transform="scale(0.015625)"/>
      <path id="DejaVuSans-64" d="M 2906 2969 
L 2906 4863 
L 3481 4863 
L 3481 0 
L 2906 0 
L 2906 525 
Q 2725 213 2448 61 
Q 2172 -91 1784 -91 
Q 1150 -91 751 415 
Q 353 922 353 1747 
Q 353 2572 751 3078 
Q 1150 3584 1784 3584 
Q 2172 3584 2448 3432 
Q 2725 3281 2906 2969 
z
M 947 1747 
Q 947 1113 1208 752 
Q 1469 391 1925 391 
Q 2381 391 2643 752 
Q 2906 1113 2906 1747 
Q 2906 2381 2643 2742 
Q 2381 3103 1925 3103 
Q 1469 3103 1208 2742 
Q 947 2381 947 1747 
z
" transform="scale(0.015625)"/>
      <path id="DejaVuSans-69" d="M 603 3500 
L 1178 3500 
L 1178 0 
L 603 0 
L 603 3500 
z
M 603 4863 
L 1178 4863 
L 1178 4134 
L 603 4134 
L 603 4863 
z
" transform="scale(0.015625)"/>
      <path id="DejaVuSans-73" d="M 2834 3397 
L 2834 2853 
Q 2591 2978 2328 3040 
Q 2066 3103 1784 3103 
Q 1356 3103 1142 2972 
Q 928 2841 928 2578 
Q 928 2378 1081 2264 
Q 1234 2150 1697 2047 
L 1894 2003 
Q 2506 1872 2764 1633 
Q 3022 1394 3022 966 
Q 3022 478 2636 193 
Q 2250 -91 1575 -91 
Q 1294 -91 989 -36 
Q 684 19 347 128 
L 347 722 
Q 666 556 975 473 
Q 1284 391 1588 391 
Q 1994 391 2212 530 
Q 2431 669 2431 922 
Q 2431 1156 2273 1281 
Q 2116 1406 1581 1522 
L 1381 1569 
Q 847 1681 609 1914 
Q 372 2147 372 2553 
Q 372 3047 722 3315 
Q 1072 3584 1716 3584 
Q 2034 3584 2315 3537 
Q 2597 3491 2834 3397 
z
" transform="scale(0.015625)"/>
     </defs>
     <use xlink:href="#DejaVuSans-Oblique-45" transform="translate(0 0.09375)"/>
     <use xlink:href="#DejaVuSans-64" transform="translate(63.183594 -16.3125) scale(0.7)"/>
     <use xlink:href="#DejaVuSans-69" transform="translate(107.617188 -16.3125) scale(0.7)"/>
     <use xlink:href="#DejaVuSans-73" transform="translate(127.06543 -16.3125) scale(0.7)"/>
     <use xlink:href="#Calibri-2f" transform="translate(166.269531 0.09375)"/>
     <use xlink:href="#DejaVuSans-Oblique-45" transform="translate(204.892578 0.09375)"/>
     <use xlink:href="#DejaVuSans-69" transform="translate(268.076172 -16.3125) scale(0.7)"/>
    </g>
   </g>
  </g>
 </g>
 <defs>
  <clipPath id="p8ed0b04a90">
   <rect x="57.6" y="41.472" width="285.696" height="266.112"/>
  </clipPath>
  <clipPath id="p84b4dea246">
   <rect x="361.152" y="41.472" width="13.3056" height="266.112"/>
  </clipPath>
 </defs>
</svg>
