<?xml version="1.0" encoding="utf-8" standalone="no"?>
<!DOCTYPE svg PUBLIC "-//W3C//DTD SVG 1.1//EN"
  "http://www.w3.org/Graphics/SVG/1.1/DTD/svg11.dtd">
<svg xmlns:xlink="http://www.w3.org/1999/xlink" width="460.8pt" height="345.6pt" viewBox="0 0 460.8 345.6" xmlns="http://www.w3.org/2000/svg" version="1.1">
 <metadata>
  <rdf:RDF xmlns:dc="http://purl.org/dc/elements/1.1/" xmlns:cc="http://creativecommons.org/ns#" xmlns:rdf="http://www.w3.org/1999/02/22-rdf-syntax-ns#">
   <cc:Work>
    <dc:type rdf:resource="http://purl.org/dc/dcmitype/StillImage"/>
    <dc:date>2024-01-22T08:48:51.222628</dc:date>
    <dc:format>image/svg+xml</dc:format>
    <dc:creator>
     <cc:Agent>
      <dc:title>Matplotlib v3.7.1, https://matplotlib.org/</dc:title>
     </cc:Agent>
    </dc:creator>
   </cc:Work>
  </rdf:RDF>
 </metadata>
 <defs>
  <style type="text/css">*{stroke-linejoin: round; stroke-linecap: butt}</style>
 </defs>
 <g id="figure_1">
  <g id="patch_1">
   <path d="M 0 345.6 
L 460.8 345.6 
L 460.8 0 
L 0 0 
z
" style="fill: #ffffff"/>
  </g>
  <g id="axes_1">
   <g id="patch_2">
    <path d="M 57.6 307.584 
L 343.296 307.584 
L 343.296 41.472 
L 57.6 41.472 
z
" style="fill: #ffffff"/>
   </g>
   <g id="PathCollection_1">
    <path clip-path="url(#pf2b7ff7227)" style="fill: #0000b6"/>
   </g>
   <g id="PathCollection_2">
    <path clip-path="url(#pf2b7ff7227)" style="fill: #0018ff"/>
   </g>
   <g id="PathCollection_3">
    <path d="M 57.62857 94.444791 
L 57.811271 94.295546 
L 58.282564 93.907944 
L 58.508953 93.72012 
L 59.751707 92.676599 
L 60.558738 91.985987 
L 60.760909 91.815544 
L 61.283426 91.368 
L 61.938741 90.798292 
L 62.816909 90.020589 
L 63.37496 89.531474 
L 63.954238 89.01588 
L 64.770494 88.277324 
L 65.032356 88.0416 
L 65.107949 87.972767 
L 65.139094 87.943907 
L 66.09312 87.06732 
L 66.255398 86.916341 
L 66.374627 86.803428 
L 67.047746 86.174609 
L 68.069874 85.205695 
L 68.38408 84.910644 
L 68.58855 84.7152 
L 69.627023 83.707264 
L 70.097366 83.244216 
L 70.492375 82.860441 
L 70.995489 82.36308 
L 71.671175 81.686482 
L 71.96754 81.3888 
L 72.759976 80.582952 
L 72.922746 80.41452 
L 73.248177 80.07828 
L 73.666829 79.63984 
L 74.646035 78.622654 
L 75.176452 78.0624 
L 75.788514 77.405707 
L 76.102472 77.064399 
L 76.690416 76.432921 
L 77.35236 75.71028 
L 77.874916 75.13215 
L 78.232209 74.736 
L 78.920544 73.962655 
L 79.096329 73.76172 
L 79.35157 73.470516 
L 79.752241 73.00764 
L 80.711913 71.906609 
L 81.138372 71.4096 
L 81.848419 70.568742 
L 82.261443 70.073638 
L 82.688046 69.567884 
L 83.112019 69.05748 
L 83.749111 68.279821 
L 83.909993 68.0832 
L 84.671205 67.139634 
L 84.695562 67.10892 
L 85.346329 66.290202 
L 86.551142 64.7568 
L 86.568696 64.734092 
L 86.62086 64.665628 
L 87.794757 63.133224 
L 88.346601 62.40468 
L 88.749221 61.864277 
L 89.075005 61.4304 
L 89.295301 61.130888 
L 89.791517 60.45612 
L 90.350615 59.68476 
L 91.030869 58.733104 
L 91.219899 58.471168 
L 91.482044 58.104 
L 92.203386 57.076725 
L 93.121105 55.75188 
L 93.361635 55.399454 
L 93.78633 54.7776 
L 94.269031 54.059333 
L 94.438183 53.80332 
L 94.598154 53.561992 
L 95.115714 52.7734 
L 95.830203 51.688793 
L 95.984679 51.4512 
L 96.956603 49.930791 
L 97.483147 49.09908 
L 97.532928 49.020723 
L 98.092687 48.1248 
L 98.334095 47.731717 
L 98.691676 47.15052 
L 99.349098 46.065257 
L 100.107095 44.7984 
L 100.24728 44.56004 
L 100.381387 44.329954 
L 101.06697 43.162724 
L 101.482719 42.44628 
L 101.963232 41.60494 
L 102.038848 41.472 
L 101.816218 41.472 
L 100.292506 41.472 
L 98.768794 41.472 
L 97.245082 41.472 
L 95.72137 41.472 
L 94.197658 41.472 
L 92.673946 41.472 
L 91.150234 41.472 
L 89.626522 41.472 
L 88.10281 41.472 
L 86.579098 41.472 
L 85.055386 41.472 
L 83.531674 41.472 
L 82.007962 41.472 
L 80.48425 41.472 
L 78.960538 41.472 
L 77.436826 41.472 
L 75.913114 41.472 
L 74.389402 41.472 
L 72.86569 41.472 
L 71.341978 41.472 
L 69.818266 41.472 
L 68.294554 41.472 
L 66.770842 41.472 
L 65.24713 41.472 
L 63.723418 41.472 
L 62.199706 41.472 
L 60.675994 41.472 
L 59.152282 41.472 
L 57.62857 41.472 
L 57.62857 44.7984 
L 57.62857 48.1248 
L 57.62857 51.4512 
L 57.62857 54.7776 
L 57.62857 58.104 
L 57.62857 61.4304 
L 57.62857 64.7568 
L 57.62857 68.0832 
L 57.62857 71.4096 
L 57.62857 74.736 
L 57.62857 78.0624 
L 57.62857 81.3888 
L 57.62857 84.7152 
L 57.62857 88.0416 
L 57.62857 91.368 
" clip-path="url(#pf2b7ff7227)" style="fill: #0080ff"/>
   </g>
   <g id="PathCollection_4">
    <path d="M 102.038848 41.472 
L 101.963232 41.60494 
L 101.482719 42.44628 
L 101.06697 43.162724 
L 100.381387 44.329954 
L 100.24728 44.56004 
L 100.107095 44.7984 
L 99.349098 46.065257 
L 98.691676 47.15052 
L 98.334095 47.731717 
L 98.092687 48.1248 
L 97.532928 49.020723 
L 97.483147 49.09908 
L 96.956603 49.930791 
L 95.984679 51.4512 
L 95.830203 51.688793 
L 95.115714 52.7734 
L 94.598154 53.561992 
L 94.438183 53.80332 
L 94.269031 54.059333 
L 93.78633 54.7776 
L 93.361635 55.399454 
L 93.121105 55.75188 
L 92.203386 57.076725 
L 91.482044 58.104 
L 91.219899 58.471168 
L 91.030869 58.733104 
L 90.350615 59.68476 
L 89.791517 60.45612 
L 89.295301 61.130888 
L 89.075005 61.4304 
L 88.749221 61.864277 
L 88.346601 62.40468 
L 87.794757 63.133224 
L 86.62086 64.665628 
L 86.568696 64.734092 
L 86.551142 64.7568 
L 85.346329 66.290202 
L 84.695562 67.10892 
L 84.671205 67.139634 
L 83.909993 68.0832 
L 83.749111 68.279821 
L 83.112019 69.05748 
L 82.688046 69.567884 
L 82.261443 70.073638 
L 81.848419 70.568742 
L 81.138372 71.4096 
L 80.711913 71.906609 
L 79.752241 73.00764 
L 79.35157 73.470516 
L 79.096329 73.76172 
L 78.920544 73.962655 
L 78.232209 74.736 
L 77.874916 75.13215 
L 77.35236 75.71028 
L 76.690416 76.432921 
L 76.102472 77.064399 
L 75.788514 77.405707 
L 75.176452 78.0624 
L 74.646035 78.622654 
L 73.666829 79.63984 
L 73.248177 80.07828 
L 72.922746 80.41452 
L 72.759976 80.582952 
L 71.96754 81.3888 
L 71.671175 81.686482 
L 70.995489 82.36308 
L 70.492375 82.860441 
L 70.097366 83.244216 
L 69.627023 83.707264 
L 68.58855 84.7152 
L 68.38408 84.910644 
L 68.069874 85.205695 
L 67.047746 86.174609 
L 66.374627 86.803428 
L 66.255398 86.916341 
L 66.09312 87.06732 
L 65.139094 87.943907 
L 65.107949 87.972767 
L 65.032356 88.0416 
L 64.770494 88.277324 
L 63.954238 89.01588 
L 63.37496 89.531474 
L 62.816909 90.020589 
L 61.938741 90.798292 
L 61.283426 91.368 
L 60.760909 91.815544 
L 60.558738 91.985987 
L 59.751707 92.676599 
L 58.508953 93.72012 
L 58.282564 93.907944 
L 57.811271 94.295546 
L 57.62857 94.444791 
L 57.62857 94.6944 
L 57.62857 98.0208 
L 57.62857 101.3472 
L 57.62857 104.6736 
L 57.62857 108 
L 57.62857 111.3264 
L 57.62857 114.6528 
L 57.62857 117.9792 
L 57.62857 121.3056 
L 57.62857 124.632 
L 57.62857 127.9584 
L 57.62857 131.2848 
L 57.62857 134.6112 
L 57.62857 136.463658 
L 57.933313 136.331469 
L 58.336396 136.156449 
L 59.610464 135.58548 
L 60.023165 135.39871 
L 60.400958 135.228744 
L 61.743886 134.6112 
L 61.979741 134.502414 
L 62.045251 134.471532 
L 62.686416 134.171085 
L 63.5474 133.770583 
L 63.828522 133.63692 
L 64.141485 133.4882 
L 64.265565 133.427643 
L 65.876449 132.658661 
L 66.575393 132.3149 
L 66.933704 132.143157 
L 68.183092 131.528131 
L 68.365731 131.440186 
L 68.678935 131.2848 
L 69.719058 130.761932 
L 69.938998 130.648484 
L 70.842306 130.193973 
L 72.152493 129.515372 
L 72.496828 129.340736 
L 73.280967 128.93268 
L 73.296081 128.92482 
L 73.355673 128.893165 
L 74.660919 128.203924 
L 75.121294 127.9584 
L 76.230459 127.36178 
L 76.570451 127.174967 
L 76.920052 126.98412 
L 78.192632 126.281994 
L 78.702312 125.992963 
L 79.169632 125.734019 
L 80.264016 125.112791 
L 80.614967 124.917367 
L 81.113564 124.632 
L 81.919254 124.16447 
L 82.119205 124.045699 
L 83.0227 123.520864 
L 84.423439 122.685196 
L 84.659741 122.546777 
L 85.104862 122.27988 
L 86.323264 121.536942 
L 86.629026 121.350749 
L 86.702528 121.3056 
L 87.999952 120.501165 
L 88.26824 120.33132 
L 88.519004 120.17273 
L 88.664961 120.078372 
L 90.154362 119.131523 
L 91.041329 118.553176 
L 91.235599 118.429114 
L 91.924817 117.9792 
L 92.499596 117.598579 
L 93.005624 117.255117 
L 93.941636 116.629854 
L 94.529833 116.228488 
L 94.828063 116.029032 
L 95.41442 115.62708 
L 96.197917 115.083725 
L 96.362969 114.970109 
L 96.814625 114.6528 
L 97.619725 114.084517 
L 97.909493 113.875764 
L 98.185369 113.67852 
L 99.432834 112.776061 
L 100.11304 112.272263 
L 100.42847 112.042993 
L 101.394784 111.3264 
L 101.708174 111.090531 
L 102.042027 110.833437 
L 103.094696 110.033912 
L 103.33993 109.839413 
L 103.33993 108 
L 103.33993 104.6736 
L 103.33993 101.3472 
L 103.33993 98.0208 
L 103.33993 94.6944 
L 103.33993 91.368 
L 103.33993 88.0416 
L 103.33993 84.7152 
L 103.33993 81.3888 
L 103.33993 78.0624 
L 103.33993 74.736 
L 103.33993 71.4096 
L 103.33993 68.0832 
L 103.33993 64.7568 
L 103.33993 61.4304 
L 103.33993 58.104 
L 103.33993 54.7776 
L 103.33993 51.4512 
L 103.33993 48.1248 
L 103.33993 44.7984 
L 103.33993 41.472 
" clip-path="url(#pf2b7ff7227)" style="fill: #00e4f8"/>
   </g>
   <g id="PathCollection_5">
    <path d="M 103.33993 109.839413 
L 103.094696 110.033912 
L 102.042027 110.833437 
L 101.708174 111.090531 
L 101.394784 111.3264 
L 100.42847 112.042993 
L 100.11304 112.272263 
L 99.432834 112.776061 
L 98.185369 113.67852 
L 97.909493 113.875764 
L 97.619725 114.084517 
L 96.814625 114.6528 
L 96.362969 114.970109 
L 96.197917 115.083725 
L 95.41442 115.62708 
L 94.828063 116.029032 
L 94.529833 116.228488 
L 93.941636 116.629854 
L 93.005624 117.255117 
L 92.499596 117.598579 
L 91.924817 117.9792 
L 91.235599 118.429114 
L 91.041329 118.553176 
L 90.154362 119.131523 
L 88.664961 120.078372 
L 88.519004 120.17273 
L 88.26824 120.33132 
L 87.999952 120.501165 
L 86.702528 121.3056 
L 86.629026 121.350749 
L 86.323264 121.536942 
L 85.104862 122.27988 
L 84.659741 122.546777 
L 84.423439 122.685196 
L 83.0227 123.520864 
L 82.119205 124.045699 
L 81.919254 124.16447 
L 81.113564 124.632 
L 80.614967 124.917367 
L 80.264016 125.112791 
L 79.169632 125.734019 
L 78.702312 125.992963 
L 78.192632 126.281994 
L 76.920052 126.98412 
L 76.570451 127.174967 
L 76.230459 127.36178 
L 75.121294 127.9584 
L 74.660919 128.203924 
L 73.355673 128.893165 
L 73.296081 128.92482 
L 73.280967 128.93268 
L 72.496828 129.340736 
L 72.152493 129.515372 
L 70.842306 130.193973 
L 69.938998 130.648484 
L 69.719058 130.761932 
L 68.678935 131.2848 
L 68.365731 131.440186 
L 68.183092 131.528131 
L 66.933704 132.143157 
L 66.575393 132.3149 
L 65.876449 132.658661 
L 64.265565 133.427643 
L 64.141485 133.4882 
L 63.828522 133.63692 
L 63.5474 133.770583 
L 62.686416 134.171085 
L 62.045251 134.471532 
L 61.979741 134.502414 
L 61.743886 134.6112 
L 60.400958 135.228744 
L 60.023165 135.39871 
L 59.610464 135.58548 
L 58.336396 136.156449 
L 57.933313 136.331469 
L 57.62857 136.463658 
L 57.62857 137.9376 
L 57.62857 141.264 
L 57.62857 144.5904 
L 57.62857 147.9168 
L 57.62857 151.2432 
L 57.62857 154.5696 
L 57.62857 157.896 
L 57.62857 161.2224 
L 57.62857 164.5488 
L 57.62857 167.8752 
L 57.62857 170.834048 
L 57.701234 170.818628 
L 58.864149 170.572581 
L 59.506265 170.428823 
L 60.489625 170.219355 
L 60.878963 170.131859 
L 61.635807 169.970558 
L 62.89354 169.686897 
L 63.414799 169.575044 
L 64.05974 169.429031 
L 64.401558 169.355642 
L 66.289163 168.926747 
L 66.337245 168.916353 
L 66.630419 168.84948 
L 67.418958 168.666971 
L 68.814097 168.345006 
L 70.805953 167.8752 
L 71.168209 167.789261 
L 71.230174 167.7741 
L 71.536164 167.699604 
L 73.220222 167.296972 
L 73.636445 167.194327 
L 74.832191 166.90092 
L 75.402223 166.75988 
L 75.498341 166.734836 
L 76.290551 166.538065 
L 76.557494 166.468461 
L 78.135834 166.074798 
L 78.69907 165.926853 
L 79.198288 165.801852 
L 80.007734 165.589077 
L 80.862332 165.374189 
L 81.90368 165.098412 
L 82.10271 165.048168 
L 83.468771 164.686121 
L 83.581486 164.657545 
L 83.988725 164.5488 
L 85.003379 164.274703 
L 85.113292 164.243608 
L 86.293179 163.924615 
L 86.950553 163.737879 
L 87.899875 163.479245 
L 88.328974 163.356814 
L 88.997067 163.174644 
L 90.446154 162.75947 
L 90.792664 162.664251 
L 91.549109 162.44655 
L 91.692865 162.407012 
L 92.420642 162.19668 
L 93.426875 161.903248 
L 95.717789 161.2224 
L 95.72002 161.221733 
L 95.720476 161.221592 
L 95.723178 161.220764 
L 97.612362 160.650476 
L 98.002306 160.529292 
L 98.911986 160.24812 
L 99.72941 159.993112 
L 99.905516 159.935607 
L 100.636061 159.706691 
L 101.048564 159.571857 
L 102.390351 159.149384 
L 103.149594 158.899152 
L 103.33993 158.836524 
L 103.33993 157.896 
L 103.33993 154.5696 
L 103.33993 151.2432 
L 103.33993 147.9168 
L 103.33993 144.5904 
L 103.33993 141.264 
L 103.33993 137.9376 
L 103.33993 134.6112 
L 103.33993 131.2848 
L 103.33993 127.9584 
L 103.33993 124.632 
L 103.33993 121.3056 
L 103.33993 117.9792 
L 103.33993 114.6528 
L 103.33993 111.3264 
" clip-path="url(#pf2b7ff7227)" style="fill: #53ffa4"/>
   </g>
   <g id="PathCollection_6">
    <path d="M 103.33993 158.836524 
L 103.149594 158.899152 
L 102.390351 159.149384 
L 101.048564 159.571857 
L 100.636061 159.706691 
L 99.905516 159.935607 
L 99.72941 159.993112 
L 98.911986 160.24812 
L 98.002306 160.529292 
L 97.612362 160.650476 
L 95.723178 161.220764 
L 95.720476 161.221592 
L 95.72002 161.221733 
L 95.717789 161.2224 
L 93.426875 161.903248 
L 92.420642 162.19668 
L 91.692865 162.407012 
L 91.549109 162.44655 
L 90.792664 162.664251 
L 90.446154 162.75947 
L 88.997067 163.174644 
L 88.328974 163.356814 
L 87.899875 163.479245 
L 86.950553 163.737879 
L 86.293179 163.924615 
L 85.113292 164.243608 
L 85.003379 164.274703 
L 83.988725 164.5488 
L 83.581486 164.657545 
L 83.468771 164.686121 
L 82.10271 165.048168 
L 81.90368 165.098412 
L 80.862332 165.374189 
L 80.007734 165.589077 
L 79.198288 165.801852 
L 78.69907 165.926853 
L 78.135834 166.074798 
L 76.557494 166.468461 
L 76.290551 166.538065 
L 75.498341 166.734836 
L 75.402223 166.75988 
L 74.832191 166.90092 
L 73.636445 167.194327 
L 73.220222 167.296972 
L 71.536164 167.699604 
L 71.230174 167.7741 
L 71.168209 167.789261 
L 70.805953 167.8752 
L 68.814097 168.345006 
L 67.418958 168.666971 
L 66.630419 168.84948 
L 66.337245 168.916353 
L 66.289163 168.926747 
L 64.401558 169.355642 
L 64.05974 169.429031 
L 63.414799 169.575044 
L 62.89354 169.686897 
L 61.635807 169.970558 
L 60.878963 170.131859 
L 60.489625 170.219355 
L 59.506265 170.428823 
L 58.864149 170.572581 
L 57.701234 170.818628 
L 57.62857 170.834048 
L 57.62857 171.2016 
L 57.62857 174.528 
L 57.62857 177.8544 
L 57.62857 181.1808 
L 57.62857 184.5072 
L 57.62857 187.8336 
L 57.62857 191.16 
L 57.62857 194.4864 
L 57.62857 197.8128 
L 57.62857 200.733449 
L 57.818872 200.723753 
L 58.643006 200.67868 
L 59.732861 200.614202 
L 60.998078 200.544924 
L 61.508812 200.514448 
L 62.987604 200.42673 
L 63.728751 200.382997 
L 64.371692 200.347572 
L 66.245833 200.236107 
L 67.185609 200.180507 
L 67.231558 200.17797 
L 67.450385 200.16492 
L 69.320591 200.052732 
L 69.39426 200.047497 
L 70.232715 199.997133 
L 70.345061 199.989159 
L 72.285426 199.872434 
L 72.4775 199.858734 
L 73.245106 199.812495 
L 73.481111 199.79568 
L 75.248843 199.689037 
L 75.561367 199.666662 
L 76.256888 199.624644 
L 76.618735 199.598766 
L 78.210794 199.502442 
L 78.645883 199.471172 
L 79.26804 199.433476 
L 79.757985 199.398301 
L 81.171233 199.312545 
L 81.731068 199.272151 
L 82.278543 199.238883 
L 82.898915 199.194169 
L 84.130109 199.119238 
L 84.816946 199.069482 
L 85.288373 199.04075 
L 86.041582 198.986244 
L 87.087371 198.922406 
L 87.90354 198.863042 
L 88.29751 198.838957 
L 89.186046 198.774399 
L 90.042963 198.72193 
L 90.990873 198.6527 
L 91.305928 198.633381 
L 92.332368 198.558496 
L 92.99683 198.517685 
L 94.078973 198.438321 
L 94.313604 198.423888 
L 95.480614 198.338392 
L 95.948909 198.309539 
L 97.167866 198.219762 
L 97.32051 198.210343 
L 98.630853 198.113938 
L 98.899139 198.097355 
L 100.25758 197.996874 
L 100.32662 197.9926 
L 101.783156 197.884976 
L 101.847453 197.880989 
L 102.765289 197.8128 
L 103.331865 197.770297 
L 103.33993 197.769506 
L 103.33993 194.4864 
L 103.33993 191.16 
L 103.33993 187.8336 
L 103.33993 184.5072 
L 103.33993 181.1808 
L 103.33993 177.8544 
L 103.33993 174.528 
L 103.33993 171.2016 
L 103.33993 167.8752 
L 103.33993 164.5488 
L 103.33993 161.2224 
" clip-path="url(#pf2b7ff7227)" style="fill: #a4ff53"/>
   </g>
   <g id="PathCollection_7">
    <path d="M 103.33993 197.769506 
L 103.331865 197.770297 
L 102.765289 197.8128 
L 101.847453 197.880989 
L 101.783156 197.884976 
L 100.32662 197.9926 
L 100.25758 197.996874 
L 98.899139 198.097355 
L 98.630853 198.113938 
L 97.32051 198.210343 
L 97.167866 198.219762 
L 95.948909 198.309539 
L 95.480614 198.338392 
L 94.313604 198.423888 
L 94.078973 198.438321 
L 92.99683 198.517685 
L 92.332368 198.558496 
L 91.305928 198.633381 
L 90.990873 198.6527 
L 90.042963 198.72193 
L 89.186046 198.774399 
L 88.29751 198.838957 
L 87.90354 198.863042 
L 87.087371 198.922406 
L 86.041582 198.986244 
L 85.288373 199.04075 
L 84.816946 199.069482 
L 84.130109 199.119238 
L 82.898915 199.194169 
L 82.278543 199.238883 
L 81.731068 199.272151 
L 81.171233 199.312545 
L 79.757985 199.398301 
L 79.26804 199.433476 
L 78.645883 199.471172 
L 78.210794 199.502442 
L 76.618735 199.598766 
L 76.256888 199.624644 
L 75.561367 199.666662 
L 75.248843 199.689037 
L 73.481111 199.79568 
L 73.245106 199.812495 
L 72.4775 199.858734 
L 72.285426 199.872434 
L 70.345061 199.989159 
L 70.232715 199.997133 
L 69.39426 200.047497 
L 69.320591 200.052732 
L 67.450385 200.16492 
L 67.231558 200.17797 
L 67.185609 200.180507 
L 66.245833 200.236107 
L 64.371692 200.347572 
L 63.728751 200.382997 
L 62.987604 200.42673 
L 61.508812 200.514448 
L 60.998078 200.544924 
L 59.732861 200.614202 
L 58.643006 200.67868 
L 57.818872 200.723753 
L 57.62857 200.733449 
L 57.62857 201.1392 
L 57.62857 204.4656 
L 57.62857 207.792 
L 57.62857 211.1184 
L 57.62857 214.4448 
L 57.62857 217.7712 
L 57.62857 221.0976 
L 57.62857 224.424 
L 57.62857 227.7504 
L 57.62857 228.031507 
L 57.761306 228.040176 
L 58.767876 228.098004 
L 59.592846 228.148787 
L 61.204943 228.242369 
L 61.626572 228.268665 
L 62.857867 228.345552 
L 63.917516 228.407972 
L 64.480544 228.443597 
L 66.129216 228.54804 
L 66.967446 228.601198 
L 67.32965 228.622929 
L 68.912678 228.72468 
L 69.358886 228.753267 
L 69.377668 228.754654 
L 70.248204 228.810832 
L 70.305976 228.815116 
L 72.318068 228.945907 
L 72.463445 228.95679 
L 73.258062 229.008821 
L 73.448696 229.023156 
L 75.27493 229.143613 
L 75.550282 229.164519 
L 76.26691 229.212136 
L 76.594116 229.23709 
L 78.229394 229.346552 
L 78.638219 229.378035 
L 79.274713 229.420958 
L 79.742334 229.457132 
L 81.181381 229.5549 
L 81.727292 229.597547 
L 82.281434 229.635477 
L 82.893453 229.683506 
L 84.130807 229.768839 
L 84.817544 229.823268 
L 85.287038 229.855891 
L 86.047579 229.916447 
L 87.077584 229.98856 
L 87.909017 230.055425 
L 88.291483 230.082407 
L 89.204826 230.1562 
L 90.021621 230.214263 
L 91.001756 230.294256 
L 91.294729 230.315243 
L 92.365312 230.403026 
L 92.962822 230.446158 
L 94.095808 230.540009 
L 94.296734 230.554626 
L 95.529163 230.657197 
L 95.901086 230.684463 
L 97.191224 230.792946 
L 97.29745 230.800795 
L 98.69651 230.918998 
L 98.836309 230.929408 
L 100.288055 231.053343 
L 100.296831 231.054002 
L 100.56261 231.0768 
L 101.769103 231.179654 
L 101.867672 231.18913 
L 103.295284 231.312104 
L 103.33993 231.316124 
L 103.33993 231.0768 
L 103.33993 227.7504 
L 103.33993 224.424 
L 103.33993 221.0976 
L 103.33993 217.7712 
L 103.33993 214.4448 
L 103.33993 211.1184 
L 103.33993 207.792 
L 103.33993 204.4656 
L 103.33993 201.1392 
L 103.33993 197.8128 
" clip-path="url(#pf2b7ff7227)" style="fill: #f8f500"/>
   </g>
   <g id="PathCollection_8">
    <path d="M 103.33993 231.316124 
L 103.295284 231.312104 
L 101.867672 231.18913 
L 101.769103 231.179654 
L 100.56261 231.0768 
L 100.296831 231.054002 
L 100.288055 231.053343 
L 98.836309 230.929408 
L 98.69651 230.918998 
L 97.29745 230.800795 
L 97.191224 230.792946 
L 95.901086 230.684463 
L 95.529163 230.657197 
L 94.296734 230.554626 
L 94.095808 230.540009 
L 92.962822 230.446158 
L 92.365312 230.403026 
L 91.294729 230.315243 
L 91.001756 230.294256 
L 90.021621 230.214263 
L 89.204826 230.1562 
L 88.291483 230.082407 
L 87.909017 230.055425 
L 87.077584 229.98856 
L 86.047579 229.916447 
L 85.287038 229.855891 
L 84.817544 229.823268 
L 84.130807 229.768839 
L 82.893453 229.683506 
L 82.281434 229.635477 
L 81.727292 229.597547 
L 81.181381 229.5549 
L 79.742334 229.457132 
L 79.274713 229.420958 
L 78.638219 229.378035 
L 78.229394 229.346552 
L 76.594116 229.23709 
L 76.26691 229.212136 
L 75.550282 229.164519 
L 75.27493 229.143613 
L 73.448696 229.023156 
L 73.258062 229.008821 
L 72.463445 228.95679 
L 72.318068 228.945907 
L 70.305976 228.815116 
L 70.248204 228.810832 
L 69.377668 228.754654 
L 69.358886 228.753267 
L 68.912678 228.72468 
L 67.32965 228.622929 
L 66.967446 228.601198 
L 66.129216 228.54804 
L 64.480544 228.443597 
L 63.917516 228.407972 
L 62.857867 228.345552 
L 61.626572 228.268665 
L 61.204943 228.242369 
L 59.592846 228.148787 
L 58.767876 228.098004 
L 57.761306 228.040176 
L 57.62857 228.031507 
L 57.62857 231.0768 
L 57.62857 234.4032 
L 57.62857 237.7296 
L 57.62857 241.056 
L 57.62857 244.3824 
L 57.62857 247.7088 
L 57.62857 251.0352 
L 57.62857 254.104623 
L 57.738862 254.120821 
L 59.114856 254.327757 
L 59.179191 254.337267 
L 59.196352 254.339805 
L 59.339793 254.3616 
L 61.788279 254.733639 
L 62.782216 254.888344 
L 63.486503 254.997997 
L 64.389953 255.136715 
L 65.656143 255.33588 
L 66.27963 255.433959 
L 66.345224 255.444808 
L 67.171663 255.575493 
L 67.339654 255.603369 
L 69.119829 255.886349 
L 69.488106 255.94791 
L 70.128993 256.050327 
L 70.630329 256.134407 
L 71.956065 256.347393 
L 72.633029 256.461775 
L 73.084514 256.534697 
L 73.926497 256.677437 
L 74.788209 256.817367 
L 75.780067 256.986785 
L 76.038165 257.028924 
L 77.228363 257.232907 
L 77.61613 257.296562 
L 78.929296 257.523341 
L 78.989882 257.533341 
L 79.882385 257.688 
L 80.440015 257.784568 
L 80.536512 257.802094 
L 81.939854 258.046957 
L 82.080959 258.072726 
L 83.260822 258.279292 
L 83.852279 258.38791 
L 84.88792 258.570616 
L 85.235013 258.634714 
L 86.077152 258.783791 
L 87.174385 258.987565 
L 87.83391 259.105222 
L 88.391468 259.209356 
L 88.888853 259.298396 
L 90.503081 259.601608 
L 90.777748 259.651165 
L 91.550415 259.797133 
L 91.695768 259.82345 
L 92.836068 260.04012 
L 93.592572 260.183718 
L 94.331647 260.3271 
L 95.130969 260.480521 
L 96.104957 260.667535 
L 97.872311 261.0144 
L 98.514238 261.140293 
L 98.608608 261.15925 
L 99.020547 261.242051 
L 99.372007 261.312724 
L 101.104886 261.657633 
L 102.732552 261.98868 
L 102.879931 262.018619 
L 102.900139 262.022908 
L 103.33993 262.111957 
L 103.33993 261.0144 
L 103.33993 257.688 
L 103.33993 254.3616 
L 103.33993 251.0352 
L 103.33993 247.7088 
L 103.33993 244.3824 
L 103.33993 241.056 
L 103.33993 237.7296 
L 103.33993 234.4032 
" clip-path="url(#pf2b7ff7227)" style="fill: #ff9400"/>
   </g>
   <g id="PathCollection_9">
    <path d="M 103.33993 262.111957 
L 102.900139 262.022908 
L 102.879931 262.018619 
L 102.732552 261.98868 
L 101.104886 261.657633 
L 99.372007 261.312724 
L 99.020547 261.242051 
L 98.608608 261.15925 
L 98.514238 261.140293 
L 97.872311 261.0144 
L 96.104957 260.667535 
L 95.130969 260.480521 
L 94.331647 260.3271 
L 93.592572 260.183718 
L 92.836068 260.04012 
L 91.695768 259.82345 
L 91.550415 259.797133 
L 90.777748 259.651165 
L 90.503081 259.601608 
L 88.888853 259.298396 
L 88.391468 259.209356 
L 87.83391 259.105222 
L 87.174385 258.987565 
L 86.077152 258.783791 
L 85.235013 258.634714 
L 84.88792 258.570616 
L 83.852279 258.38791 
L 83.260822 258.279292 
L 82.080959 258.072726 
L 81.939854 258.046957 
L 80.536512 257.802094 
L 80.440015 257.784568 
L 79.882385 257.688 
L 78.989882 257.533341 
L 78.929296 257.523341 
L 77.61613 257.296562 
L 77.228363 257.232907 
L 76.038165 257.028924 
L 75.780067 256.986785 
L 74.788209 256.817367 
L 73.926497 256.677437 
L 73.084514 256.534697 
L 72.633029 256.461775 
L 71.956065 256.347393 
L 70.630329 256.134407 
L 70.128993 256.050327 
L 69.488106 255.94791 
L 69.119829 255.886349 
L 67.339654 255.603369 
L 67.171663 255.575493 
L 66.345224 255.444808 
L 66.27963 255.433959 
L 65.656143 255.33588 
L 64.389953 255.136715 
L 63.486503 254.997997 
L 62.782216 254.888344 
L 61.788279 254.733639 
L 59.339793 254.3616 
L 59.196352 254.339805 
L 59.179191 254.337267 
L 59.114856 254.327757 
L 57.738862 254.120821 
L 57.62857 254.104623 
L 57.62857 254.3616 
L 57.62857 257.688 
L 57.62857 261.0144 
L 57.62857 264.3408 
L 57.62857 267.6672 
L 57.62857 270.9936 
L 57.62857 274.32 
L 57.62857 277.6464 
L 57.62857 280.347739 
L 57.888847 280.404591 
L 58.739038 280.599118 
L 59.39946 280.749285 
L 60.369882 280.9728 
L 61.617348 281.26081 
L 61.826988 281.309836 
L 62.833044 281.545506 
L 63.830763 281.779454 
L 64.247511 281.876721 
L 64.545136 281.94708 
L 66.149988 282.328178 
L 66.408801 282.391083 
L 67.101529 282.55633 
L 67.545834 282.664678 
L 68.89517 282.988001 
L 69.602402 283.161504 
L 70.015272 283.26089 
L 70.974521 283.49701 
L 71.636147 283.657003 
L 72.798457 283.944855 
L 72.926997 283.976084 
L 74.227277 284.2992 
L 74.372742 284.33557 
L 74.410481 284.345219 
L 75.836338 284.703841 
L 75.997757 284.745308 
L 77.104541 285.024606 
L 77.85823 285.219163 
L 78.74335 285.443876 
L 79.200209 285.562375 
L 79.83192 285.723294 
L 81.313476 286.109476 
L 81.648207 286.195268 
L 82.405344 286.393584 
L 82.554711 286.431998 
L 83.387867 286.65132 
L 84.332967 286.901018 
L 86.033888 287.355961 
L 86.384133 287.4493 
L 86.685228 287.52963 
L 86.7423 287.544887 
L 87.040499 287.6256 
L 88.712049 288.077861 
L 89.030071 288.164949 
L 90.614846 288.59988 
L 90.693966 288.621673 
L 90.70888 288.625869 
L 91.547539 288.858023 
L 91.739609 288.912259 
L 93.397085 289.373321 
L 93.926682 289.523838 
L 94.441333 289.667725 
L 95.237073 289.894736 
L 96.09522 290.135852 
L 97.147567 290.438054 
L 97.332677 290.490333 
L 98.743629 290.897064 
L 98.788167 290.909706 
L 98.933905 290.952 
L 100.221287 291.327354 
L 100.372238 291.372224 
L 101.475788 291.695188 
L 102.264635 291.930936 
L 103.1071 292.179113 
L 103.33993 292.250324 
L 103.33993 290.952 
L 103.33993 287.6256 
L 103.33993 284.2992 
L 103.33993 280.9728 
L 103.33993 277.6464 
L 103.33993 274.32 
L 103.33993 270.9936 
L 103.33993 267.6672 
L 103.33993 264.3408 
" clip-path="url(#pf2b7ff7227)" style="fill: #ff3800"/>
   </g>
   <g id="PathCollection_10">
    <path d="M 103.33993 292.250324 
L 103.1071 292.179113 
L 102.264635 291.930936 
L 101.475788 291.695188 
L 100.372238 291.372224 
L 100.221287 291.327354 
L 98.933905 290.952 
L 98.788167 290.909706 
L 98.743629 290.897064 
L 97.332677 290.490333 
L 97.147567 290.438054 
L 96.09522 290.135852 
L 95.237073 289.894736 
L 94.441333 289.667725 
L 93.926682 289.523838 
L 93.397085 289.373321 
L 91.739609 288.912259 
L 91.547539 288.858023 
L 90.70888 288.625869 
L 90.693966 288.621673 
L 90.614846 288.59988 
L 89.030071 288.164949 
L 88.712049 288.077861 
L 87.040499 287.6256 
L 86.7423 287.544887 
L 86.685228 287.52963 
L 86.384133 287.4493 
L 86.033888 287.355961 
L 84.332967 286.901018 
L 83.387867 286.65132 
L 82.554711 286.431998 
L 82.405344 286.393584 
L 81.648207 286.195268 
L 81.313476 286.109476 
L 79.83192 285.723294 
L 79.200209 285.562375 
L 78.74335 285.443876 
L 77.85823 285.219163 
L 77.104541 285.024606 
L 75.997757 284.745308 
L 75.836338 284.703841 
L 74.410481 284.345219 
L 74.372742 284.33557 
L 74.227277 284.2992 
L 72.926997 283.976084 
L 72.798457 283.944855 
L 71.636147 283.657003 
L 70.974521 283.49701 
L 70.015272 283.26089 
L 69.602402 283.161504 
L 68.89517 282.988001 
L 67.545834 282.664678 
L 67.101529 282.55633 
L 66.408801 282.391083 
L 66.149988 282.328178 
L 64.545136 281.94708 
L 64.247511 281.876721 
L 63.830763 281.779454 
L 62.833044 281.545506 
L 61.826988 281.309836 
L 61.617348 281.26081 
L 60.369882 280.9728 
L 59.39946 280.749285 
L 58.739038 280.599118 
L 57.888847 280.404591 
L 57.62857 280.347739 
L 57.62857 280.9728 
L 57.62857 284.2992 
L 57.62857 287.6256 
L 57.62857 290.952 
L 57.62857 294.2784 
L 57.62857 297.6048 
L 57.62857 300.9312 
L 57.62857 304.2576 
L 57.62857 307.584 
L 59.152282 307.584 
L 60.675994 307.584 
L 62.199706 307.584 
L 63.723418 307.584 
L 65.24713 307.584 
L 66.770842 307.584 
L 68.294554 307.584 
L 69.818266 307.584 
L 71.341978 307.584 
L 72.86569 307.584 
L 74.389402 307.584 
L 75.913114 307.584 
L 77.436826 307.584 
L 78.960538 307.584 
L 80.48425 307.584 
L 82.007962 307.584 
L 83.531674 307.584 
L 85.055386 307.584 
L 86.579098 307.584 
L 88.10281 307.584 
L 89.626522 307.584 
L 91.150234 307.584 
L 92.673946 307.584 
L 94.197658 307.584 
L 95.72137 307.584 
L 97.245082 307.584 
L 98.768794 307.584 
L 100.292506 307.584 
L 101.816218 307.584 
L 103.33993 307.584 
L 103.33993 304.2576 
L 103.33993 300.9312 
L 103.33993 297.6048 
L 103.33993 294.2784 
" clip-path="url(#pf2b7ff7227)" style="fill: #b60000"/>
   </g>
   <g id="PathCollection_11">
    <path clip-path="url(#pf2b7ff7227)" style="fill: #0000b6"/>
   </g>
   <g id="PathCollection_12">
    <path clip-path="url(#pf2b7ff7227)" style="fill: #0018ff"/>
   </g>
   <g id="PathCollection_13">
    <path d="M 100.4544 44.152618 
L 101.430637 42.541785 
L 102.054106 41.472 
L 100.4544 41.472 
" clip-path="url(#pf2b7ff7227)" style="fill: #0080ff"/>
   </g>
   <g id="PathCollection_14">
    <path d="M 102.054106 41.472 
L 101.430637 42.541785 
L 100.4544 44.152618 
L 100.4544 50.3424 
L 100.4544 59.2128 
L 100.4544 68.0832 
L 100.4544 76.9536 
L 100.4544 85.824 
L 100.4544 94.6944 
L 100.4544 103.5648 
L 100.4544 112.015263 
L 101.661486 111.112445 
L 103.162589 109.990223 
L 103.362005 109.83712 
L 109.652566 104.773984 
L 111.060075 103.5648 
L 115.227898 99.818845 
L 117.916009 97.29248 
L 119.137854 96.084771 
L 120.617708 94.6944 
L 121.424105 93.871589 
L 121.858198 93.386987 
L 123.110378 92.09632 
L 126.794549 88.077005 
L 128.750927 85.824 
L 131.552118 82.434612 
L 133.853121 79.55168 
L 134.647095 78.51283 
L 135.910527 76.9536 
L 137.122441 75.226235 
L 137.761444 74.35552 
L 141.573756 68.790836 
L 142.037467 68.0832 
L 144.397953 64.280737 
L 145.96077 61.81088 
L 146.105954 61.563103 
L 146.708021 60.647686 
L 147.574368 59.2128 
L 148.561119 57.317884 
L 148.954611 56.61472 
L 150.391913 53.964679 
L 152.313835 50.3424 
L 154.015569 46.943291 
L 155.409418 44.07008 
L 156.415098 41.790797 
L 156.568324 41.472 
L 149.02272 41.472 
L 140.928 41.472 
L 132.83328 41.472 
L 124.73856 41.472 
L 116.64384 41.472 
L 108.54912 41.472 
" clip-path="url(#pf2b7ff7227)" style="fill: #00e4f8"/>
   </g>
   <g id="PathCollection_15">
    <path d="M 156.568324 41.472 
L 156.415098 41.790797 
L 155.409418 44.07008 
L 154.015569 46.943291 
L 152.313835 50.3424 
L 150.391913 53.964679 
L 148.954611 56.61472 
L 148.561119 57.317884 
L 147.574368 59.2128 
L 146.708021 60.647686 
L 146.105954 61.563103 
L 145.96077 61.81088 
L 144.397953 64.280737 
L 142.037467 68.0832 
L 141.573756 68.790836 
L 137.761444 74.35552 
L 137.122441 75.226235 
L 135.910527 76.9536 
L 134.647095 78.51283 
L 133.853121 79.55168 
L 131.552118 82.434612 
L 128.750927 85.824 
L 126.794549 88.077005 
L 123.110378 92.09632 
L 121.858198 93.386987 
L 121.424105 93.871589 
L 120.617708 94.6944 
L 119.137854 96.084771 
L 117.916009 97.29248 
L 115.227898 99.818845 
L 111.060075 103.5648 
L 109.652566 104.773984 
L 103.362005 109.83712 
L 103.162589 109.990223 
L 101.661486 111.112445 
L 100.4544 112.015263 
L 100.4544 112.4352 
L 100.4544 121.3056 
L 100.4544 130.176 
L 100.4544 139.0464 
L 100.4544 147.9168 
L 100.4544 156.7872 
L 100.4544 159.720365 
L 101.458557 159.443754 
L 108.155659 157.218364 
L 108.771616 157.031016 
L 109.473126 156.7872 
L 115.784312 154.513269 
L 117.808641 153.705653 
L 120.90238 152.583417 
L 125.958523 150.51488 
L 128.287633 149.527744 
L 129.403181 149.074789 
L 131.974358 147.9168 
L 135.128383 146.477049 
L 136.368685 145.847301 
L 137.460286 145.31872 
L 143.758726 142.148381 
L 148.943642 139.255605 
L 149.075886 139.187054 
L 149.325545 139.0464 
L 154.397402 136.065713 
L 159.490309 132.77408 
L 160.836186 131.86396 
L 161.698986 131.313366 
L 163.305957 130.176 
L 165.846182 128.323887 
L 166.763063 127.57792 
L 167.398872 127.090671 
L 169.861995 125.080592 
L 173.842919 121.893006 
L 174.516945 121.3056 
L 179.633631 116.628337 
L 181.280788 115.03328 
L 181.994229 114.297589 
L 183.920761 112.4352 
L 185.5482 110.643125 
L 186.291664 109.83712 
L 190.642636 104.820962 
L 191.657883 103.5648 
L 195.631932 98.381868 
L 196.430538 97.29248 
L 197.015339 96.560991 
L 198.357732 94.6944 
L 199.3924 93.132078 
L 199.992534 92.110212 
L 200.001723 92.09632 
L 200.082865 91.963795 
L 203.932078 85.824 
L 204.62235 84.658689 
L 207.48898 79.55168 
L 208.230861 78.108836 
L 208.499645 77.652145 
L 208.867903 76.9536 
L 209.258676 76.066626 
L 209.71729 75.123666 
L 210.126239 74.35552 
L 210.572407 73.438112 
L 213.056423 68.0832 
L 213.444135 67.193381 
L 215.728983 61.81088 
L 215.774258 61.717263 
L 216.862245 59.2128 
L 217.545749 57.247637 
L 217.794339 56.61472 
L 218.814593 53.696291 
L 220.058013 50.3424 
L 220.557892 48.89886 
L 222.178691 44.07008 
L 222.815689 41.898893 
L 222.946747 41.472 
L 221.8752 41.472 
L 213.78048 41.472 
L 205.68576 41.472 
L 197.59104 41.472 
L 189.49632 41.472 
L 181.4016 41.472 
L 173.30688 41.472 
L 165.21216 41.472 
L 157.11744 41.472 
" clip-path="url(#pf2b7ff7227)" style="fill: #53ffa4"/>
   </g>
   <g id="PathCollection_16">
    <path d="M 222.946747 41.472 
L 222.815689 41.898893 
L 222.178691 44.07008 
L 220.557892 48.89886 
L 220.058013 50.3424 
L 218.814593 53.696291 
L 217.794339 56.61472 
L 217.545749 57.247637 
L 216.862245 59.2128 
L 215.774258 61.717263 
L 215.728983 61.81088 
L 213.444135 67.193381 
L 213.056423 68.0832 
L 210.572407 73.438112 
L 210.126239 74.35552 
L 209.71729 75.123666 
L 209.258676 76.066626 
L 208.867903 76.9536 
L 208.499645 77.652145 
L 208.230861 78.108836 
L 207.48898 79.55168 
L 204.62235 84.658689 
L 203.932078 85.824 
L 200.082865 91.963795 
L 200.001723 92.09632 
L 199.992534 92.110212 
L 199.3924 93.132078 
L 198.357732 94.6944 
L 197.015339 96.560991 
L 196.430538 97.29248 
L 195.631932 98.381868 
L 191.657883 103.5648 
L 190.642636 104.820962 
L 186.291664 109.83712 
L 185.5482 110.643125 
L 183.920761 112.4352 
L 181.994229 114.297589 
L 181.280788 115.03328 
L 179.633631 116.628337 
L 174.516945 121.3056 
L 173.842919 121.893006 
L 169.861995 125.080592 
L 167.398872 127.090671 
L 166.763063 127.57792 
L 165.846182 128.323887 
L 163.305957 130.176 
L 161.698986 131.313366 
L 160.836186 131.86396 
L 159.490309 132.77408 
L 154.397402 136.065713 
L 149.325545 139.0464 
L 149.075886 139.187054 
L 148.943642 139.255605 
L 143.758726 142.148381 
L 137.460286 145.31872 
L 136.368685 145.847301 
L 135.128383 146.477049 
L 131.974358 147.9168 
L 129.403181 149.074789 
L 128.287633 149.527744 
L 125.958523 150.51488 
L 120.90238 152.583417 
L 117.808641 153.705653 
L 115.784312 154.513269 
L 109.473126 156.7872 
L 108.771616 157.031016 
L 108.155659 157.218364 
L 101.458557 159.443754 
L 100.4544 159.720365 
L 100.4544 165.6576 
L 100.4544 174.528 
L 100.4544 183.3984 
L 100.4544 192.2688 
L 100.4544 197.946803 
L 102.555734 197.827997 
L 103.57217 197.722668 
L 112.911281 197.048967 
L 114.918356 196.833665 
L 118.276701 196.588627 
L 121.069673 196.289259 
L 127.943643 195.781012 
L 131.662071 195.367299 
L 133.94002 195.196744 
L 138.743774 194.66233 
L 142.828988 194.351951 
L 148.482897 193.696932 
L 149.53199 193.616104 
L 156.640022 192.791967 
L 157.53117 192.722176 
L 161.271523 192.2688 
L 165.033795 191.796926 
L 165.414711 191.732939 
L 172.055879 190.897921 
L 175.026098 190.384838 
L 180.419863 189.671559 
L 182.52532 189.295935 
L 186.323264 188.791685 
L 193.951312 187.386906 
L 195.655251 187.14756 
L 199.828189 186.350294 
L 200.232648 186.293141 
L 201.729671 185.99648 
L 208.398602 184.629775 
L 213.778059 183.3984 
L 219.018128 182.101559 
L 223.761758 180.80032 
L 226.807631 179.933083 
L 228.102353 179.468753 
L 231.45792 178.464587 
L 235.98625 176.805553 
L 239.209325 175.782375 
L 242.316913 174.528 
L 245.629921 173.127338 
L 246.936291 172.472585 
L 250.832371 170.778404 
L 255.535757 168.25568 
L 257.518963 167.139549 
L 259.973291 165.6576 
L 262.880604 163.780111 
L 263.785477 163.05952 
L 264.521983 162.536479 
L 267.117204 160.432262 
L 270.998343 157.39519 
L 271.644865 156.7872 
L 276.657307 151.811084 
L 277.81347 150.51488 
L 278.439628 149.901828 
L 280.095247 147.9168 
L 281.18674 146.56478 
L 281.740781 145.696212 
L 282.011302 145.31872 
L 284.938759 140.902949 
L 286.210579 139.0464 
L 286.385599 138.775336 
L 289.748242 132.77408 
L 290.239426 131.812996 
L 290.619911 131.165758 
L 291.080929 130.176 
L 291.540609 128.95768 
L 292.142161 127.675342 
L 292.192533 127.57792 
L 292.248339 127.459075 
L 294.163355 122.798555 
L 294.752886 121.372284 
L 294.778225 121.3056 
L 295.527366 119.189984 
L 297.005597 115.03328 
L 297.407169 113.779527 
L 297.93691 112.4352 
L 298.469872 110.459562 
L 298.652797 109.83712 
L 299.247097 107.482708 
L 300.381547 103.5648 
L 300.935336 101.496907 
L 301.938692 97.29248 
L 302.416765 94.87852 
L 302.439575 94.789436 
L 302.469465 94.6944 
L 302.488146 94.611422 
L 302.498531 94.547394 
L 303.070088 92.09632 
L 304.026282 87.143244 
L 304.253743 85.824 
L 304.548887 83.932071 
L 305.382255 79.55168 
L 305.584633 78.207393 
L 305.704824 77.66916 
L 305.827616 76.9536 
L 305.889905 76.192094 
L 305.975281 75.522489 
L 306.197195 74.35552 
L 306.530225 72.146329 
L 307.092508 68.0832 
L 307.760585 62.671811 
L 307.893883 61.81088 
L 307.926407 61.529538 
L 308.115858 60.526897 
L 308.309602 59.2128 
L 308.387232 57.831334 
L 308.498756 56.636269 
L 308.502169 56.61472 
L 308.507266 56.572021 
L 309.210731 50.3424 
L 309.565107 46.765572 
L 309.826419 44.07008 
L 309.962202 42.518424 
L 310.074226 41.472 
L 302.8224 41.472 
L 294.72768 41.472 
L 286.63296 41.472 
L 278.53824 41.472 
L 270.44352 41.472 
L 262.3488 41.472 
L 254.25408 41.472 
L 246.15936 41.472 
L 238.06464 41.472 
L 229.96992 41.472 
" clip-path="url(#pf2b7ff7227)" style="fill: #a4ff53"/>
   </g>
   <g id="PathCollection_17">
    <path d="M 310.074226 41.472 
L 309.962202 42.518424 
L 309.826419 44.07008 
L 309.565107 46.765572 
L 309.210731 50.3424 
L 308.507266 56.572021 
L 308.502169 56.61472 
L 308.498756 56.636269 
L 308.387232 57.831334 
L 308.309602 59.2128 
L 308.115858 60.526897 
L 307.926407 61.529538 
L 307.893883 61.81088 
L 307.760585 62.671811 
L 307.092508 68.0832 
L 306.530225 72.146329 
L 306.197195 74.35552 
L 305.975281 75.522489 
L 305.889905 76.192094 
L 305.827616 76.9536 
L 305.704824 77.66916 
L 305.584633 78.207393 
L 305.382255 79.55168 
L 304.548887 83.932071 
L 304.253743 85.824 
L 304.026282 87.143244 
L 303.070088 92.09632 
L 302.498531 94.547394 
L 302.488146 94.611422 
L 302.469465 94.6944 
L 302.439575 94.789436 
L 302.416765 94.87852 
L 301.938692 97.29248 
L 300.935336 101.496907 
L 300.381547 103.5648 
L 299.247097 107.482708 
L 298.652797 109.83712 
L 298.469872 110.459562 
L 297.93691 112.4352 
L 297.407169 113.779527 
L 297.005597 115.03328 
L 295.527366 119.189984 
L 294.778225 121.3056 
L 294.752886 121.372284 
L 294.163355 122.798555 
L 292.248339 127.459075 
L 292.192533 127.57792 
L 292.142161 127.675342 
L 291.540609 128.95768 
L 291.080929 130.176 
L 290.619911 131.165758 
L 290.239426 131.812996 
L 289.748242 132.77408 
L 286.385599 138.775336 
L 286.210579 139.0464 
L 284.938759 140.902949 
L 282.011302 145.31872 
L 281.740781 145.696212 
L 281.18674 146.56478 
L 280.095247 147.9168 
L 278.439628 149.901828 
L 277.81347 150.51488 
L 276.657307 151.811084 
L 271.644865 156.7872 
L 270.998343 157.39519 
L 267.117204 160.432262 
L 264.521983 162.536479 
L 263.785477 163.05952 
L 262.880604 163.780111 
L 259.973291 165.6576 
L 257.518963 167.139549 
L 255.535757 168.25568 
L 250.832371 170.778404 
L 246.936291 172.472585 
L 245.629921 173.127338 
L 242.316913 174.528 
L 239.209325 175.782375 
L 235.98625 176.805553 
L 231.45792 178.464587 
L 228.102353 179.468753 
L 226.807631 179.933083 
L 223.761758 180.80032 
L 219.018128 182.101559 
L 213.778059 183.3984 
L 208.398602 184.629775 
L 201.729671 185.99648 
L 200.232648 186.293141 
L 199.828189 186.350294 
L 195.655251 187.14756 
L 193.951312 187.386906 
L 186.323264 188.791685 
L 182.52532 189.295935 
L 180.419863 189.671559 
L 175.026098 190.384838 
L 172.055879 190.897921 
L 165.414711 191.732939 
L 165.033795 191.796926 
L 161.271523 192.2688 
L 157.53117 192.722176 
L 156.640022 192.791967 
L 149.53199 193.616104 
L 148.482897 193.696932 
L 142.828988 194.351951 
L 138.743774 194.66233 
L 133.94002 195.196744 
L 131.662071 195.367299 
L 127.943643 195.781012 
L 121.069673 196.289259 
L 118.276701 196.588627 
L 114.918356 196.833665 
L 112.911281 197.048967 
L 103.57217 197.722668 
L 102.555734 197.827997 
L 100.4544 197.946803 
L 100.4544 201.1392 
L 100.4544 210.0096 
L 100.4544 218.88 
L 100.4544 227.7504 
L 100.4544 231.043824 
L 101.751703 231.182487 
L 105.192533 231.428633 
L 112.598112 232.187388 
L 114.900653 232.362099 
L 118.533564 232.749772 
L 120.067082 232.869525 
L 130.428347 234.02272 
L 130.455764 234.025728 
L 133.736633 234.387035 
L 136.907897 234.796052 
L 143.271279 235.557172 
L 151.010264 236.6208 
L 154.955241 237.157564 
L 155.681603 237.272535 
L 160.096573 237.973046 
L 166.949997 239.061725 
L 167.681925 239.174 
L 167.938679 239.21888 
L 177.528972 240.864525 
L 179.841645 241.364252 
L 182.762249 241.891525 
L 187.091813 242.85628 
L 191.189005 243.636312 
L 197.45981 245.144024 
L 197.703707 245.193134 
L 198.901982 245.4912 
L 204.460399 246.833982 
L 207.818956 247.82881 
L 212.438636 249.041124 
L 215.484743 249.999924 
L 217.307651 250.496437 
L 221.080106 251.76352 
L 224.863659 253.005121 
L 228.564174 254.3616 
L 232.435257 255.75909 
L 233.761736 256.314713 
L 235.295686 256.95968 
L 241.475661 259.494116 
L 245.495408 261.475476 
L 246.632677 261.979813 
L 249.051047 263.232 
L 252.624617 265.017607 
L 259.7846 269.292485 
L 260.009846 269.419834 
L 260.138799 269.50432 
L 261.502295 270.303036 
L 264.111516 272.1024 
L 266.66088 273.819362 
L 267.814143 274.70048 
L 272.798246 278.392432 
L 275.70118 280.9728 
L 277.846007 282.80414 
L 280.038337 284.941391 
L 281.655632 286.427082 
L 282.390297 287.24512 
L 283.477404 288.410875 
L 284.867127 289.8432 
L 285.422008 290.392858 
L 287.197749 292.44128 
L 289.761766 295.284975 
L 292.310369 298.7136 
L 293.936702 300.806177 
L 296.777776 304.98592 
L 296.917258 305.184605 
L 298.451205 307.584 
L 302.8224 307.584 
L 310.91712 307.584 
L 319.01184 307.584 
L 327.10656 307.584 
L 335.20128 307.584 
L 343.296 307.584 
L 343.296 298.7136 
L 343.296 289.8432 
L 343.296 280.9728 
L 343.296 272.1024 
L 343.296 263.232 
L 343.296 254.3616 
L 343.296 245.4912 
L 343.296 236.6208 
L 343.296 227.7504 
L 343.296 218.88 
L 343.296 210.0096 
L 343.296 201.1392 
L 343.296 192.2688 
L 343.296 183.3984 
L 343.296 174.528 
L 343.296 165.6576 
L 343.296 156.7872 
L 343.296 147.9168 
L 343.296 139.0464 
L 343.296 130.176 
L 343.296 121.3056 
L 343.296 112.4352 
L 343.296 103.5648 
L 343.296 94.6944 
L 343.296 85.824 
L 343.296 76.9536 
L 343.296 68.0832 
L 343.296 59.2128 
L 343.296 50.3424 
L 343.296 41.472 
L 335.20128 41.472 
L 327.10656 41.472 
L 319.01184 41.472 
L 310.91712 41.472 
" clip-path="url(#pf2b7ff7227)" style="fill: #f8f500"/>
   </g>
   <g id="PathCollection_18">
    <path d="M 298.451205 307.584 
L 296.917258 305.184605 
L 296.777776 304.98592 
L 293.936702 300.806177 
L 292.310369 298.7136 
L 289.761766 295.284975 
L 287.197749 292.44128 
L 285.422008 290.392858 
L 284.867127 289.8432 
L 283.477404 288.410875 
L 282.390297 287.24512 
L 281.655632 286.427082 
L 280.038337 284.941391 
L 277.846007 282.80414 
L 275.70118 280.9728 
L 272.798246 278.392432 
L 267.814143 274.70048 
L 266.66088 273.819362 
L 264.111516 272.1024 
L 261.502295 270.303036 
L 260.138799 269.50432 
L 260.009846 269.419834 
L 259.7846 269.292485 
L 252.624617 265.017607 
L 249.051047 263.232 
L 246.632677 261.979813 
L 245.495408 261.475476 
L 241.475661 259.494116 
L 235.295686 256.95968 
L 233.761736 256.314713 
L 232.435257 255.75909 
L 228.564174 254.3616 
L 224.863659 253.005121 
L 221.080106 251.76352 
L 217.307651 250.496437 
L 215.484743 249.999924 
L 212.438636 249.041124 
L 207.818956 247.82881 
L 204.460399 246.833982 
L 198.901982 245.4912 
L 197.703707 245.193134 
L 197.45981 245.144024 
L 191.189005 243.636312 
L 187.091813 242.85628 
L 182.762249 241.891525 
L 179.841645 241.364252 
L 177.528972 240.864525 
L 167.938679 239.21888 
L 167.681925 239.174 
L 166.949997 239.061725 
L 160.096573 237.973046 
L 155.681603 237.272535 
L 154.955241 237.157564 
L 151.010264 236.6208 
L 143.271279 235.557172 
L 136.907897 234.796052 
L 133.736633 234.387035 
L 130.455764 234.025728 
L 130.428347 234.02272 
L 120.067082 232.869525 
L 118.533564 232.749772 
L 114.900653 232.362099 
L 112.598112 232.187388 
L 105.192533 231.428633 
L 101.751703 231.182487 
L 100.4544 231.043824 
L 100.4544 236.6208 
L 100.4544 245.4912 
L 100.4544 254.3616 
L 100.4544 261.522523 
L 101.057701 261.635933 
L 108.514884 263.194483 
L 108.573224 263.205587 
L 108.693972 263.232 
L 116.040593 264.827925 
L 117.368786 265.149886 
L 122.042885 266.18599 
L 129.035356 267.940538 
L 130.890612 268.371438 
L 135.199329 269.491516 
L 135.21291 269.49474 
L 135.248407 269.50432 
L 142.423378 271.423639 
L 143.017728 271.583626 
L 144.791614 272.1024 
L 152.312914 274.283202 
L 153.655626 274.70048 
L 160.827619 276.907091 
L 164.100506 278.031857 
L 166.083678 278.66715 
L 172.610607 280.9728 
L 173.138826 281.156958 
L 173.65853 281.358147 
L 180.325342 283.820101 
L 182.866673 284.848734 
L 185.162795 285.721587 
L 188.747396 287.24512 
L 192.114996 288.654568 
L 194.748043 289.8432 
L 200.214194 292.326776 
L 200.447052 292.44128 
L 208.056451 296.115737 
L 212.888613 298.7136 
L 213.632368 299.105438 
L 214.010377 299.321807 
L 218.88624 301.988978 
L 223.804191 304.98592 
L 225.445581 305.963383 
L 227.967203 307.584 
L 229.96992 307.584 
L 238.06464 307.584 
L 246.15936 307.584 
L 254.25408 307.584 
L 262.3488 307.584 
L 270.44352 307.584 
L 278.53824 307.584 
L 286.63296 307.584 
L 294.72768 307.584 
" clip-path="url(#pf2b7ff7227)" style="fill: #ff9400"/>
   </g>
   <g id="PathCollection_19">
    <path d="M 227.967203 307.584 
L 225.445581 305.963383 
L 223.804191 304.98592 
L 218.88624 301.988978 
L 214.010377 299.321807 
L 213.632368 299.105438 
L 212.888613 298.7136 
L 208.056451 296.115737 
L 200.447052 292.44128 
L 200.214194 292.326776 
L 194.748043 289.8432 
L 192.114996 288.654568 
L 188.747396 287.24512 
L 185.162795 285.721587 
L 182.866673 284.848734 
L 180.325342 283.820101 
L 173.65853 281.358147 
L 173.138826 281.156958 
L 172.610607 280.9728 
L 166.083678 278.66715 
L 164.100506 278.031857 
L 160.827619 276.907091 
L 153.655626 274.70048 
L 152.312914 274.283202 
L 144.791614 272.1024 
L 143.017728 271.583626 
L 142.423378 271.423639 
L 135.248407 269.50432 
L 135.21291 269.49474 
L 135.199329 269.491516 
L 130.890612 268.371438 
L 129.035356 267.940538 
L 122.042885 266.18599 
L 117.368786 265.149886 
L 116.040593 264.827925 
L 108.693972 263.232 
L 108.573224 263.205587 
L 108.514884 263.194483 
L 101.057701 261.635933 
L 100.4544 261.522523 
L 100.4544 263.232 
L 100.4544 272.1024 
L 100.4544 280.9728 
L 100.4544 289.8432 
L 100.4544 291.407872 
L 102.395284 291.97007 
L 103.288916 292.230837 
L 103.980477 292.44128 
L 112.027568 294.901828 
L 115.649015 296.081734 
L 117.427123 296.64138 
L 123.641852 298.7136 
L 124.480692 298.996178 
L 125.245962 299.269624 
L 131.762307 301.546921 
L 134.251061 302.464419 
L 136.704449 303.341874 
L 141.007778 304.98592 
L 144.07417 306.155935 
L 147.658887 307.584 
L 149.02272 307.584 
L 157.11744 307.584 
L 165.21216 307.584 
L 173.30688 307.584 
L 181.4016 307.584 
L 189.49632 307.584 
L 197.59104 307.584 
L 205.68576 307.584 
L 213.78048 307.584 
L 221.8752 307.584 
" clip-path="url(#pf2b7ff7227)" style="fill: #ff3800"/>
   </g>
   <g id="PathCollection_20">
    <path d="M 147.658887 307.584 
L 144.07417 306.155935 
L 141.007778 304.98592 
L 136.704449 303.341874 
L 134.251061 302.464419 
L 131.762307 301.546921 
L 125.245962 299.269624 
L 124.480692 298.996178 
L 123.641852 298.7136 
L 117.427123 296.64138 
L 115.649015 296.081734 
L 112.027568 294.901828 
L 103.980477 292.44128 
L 103.288916 292.230837 
L 102.395284 291.97007 
L 100.4544 291.407872 
L 100.4544 298.7136 
L 100.4544 307.584 
L 108.54912 307.584 
L 116.64384 307.584 
L 124.73856 307.584 
L 132.83328 307.584 
L 140.928 307.584 
" clip-path="url(#pf2b7ff7227)" style="fill: #b60000"/>
   </g>
   <g id="matplotlib.axis_1">
    <g id="xtick_1">
     <g id="line2d_1">
      <defs>
       <path id="m013370ecf9" d="M 0 0 
L 0 3.5 
" style="stroke: #000000; stroke-width: 0.8"/>
      </defs>
      <g>
       <use xlink:href="#m013370ecf9" x="57.6" y="307.584" style="stroke: #000000; stroke-width: 0.8"/>
      </g>
     </g>
     <g id="text_1">
      <!-- 0.0 -->
      <g transform="translate(51.26875 321.385562) scale(0.1 -0.1)">
       <defs>
        <path id="Calibri-30" d="M 3022 2031 
Q 3022 1566 2948 1181 
Q 2875 797 2704 520 
Q 2534 244 2259 92 
Q 1984 -59 1581 -59 
Q 1200 -59 939 77 
Q 678 213 518 477 
Q 359 741 292 1127 
Q 225 1513 225 2013 
Q 225 2475 300 2861 
Q 375 3247 544 3523 
Q 713 3800 988 3951 
Q 1263 4103 1663 4103 
Q 2047 4103 2308 3967 
Q 2569 3831 2728 3567 
Q 2888 3303 2955 2917 
Q 3022 2531 3022 2031 
z
M 2472 1994 
Q 2472 2297 2450 2537 
Q 2428 2778 2386 2962 
Q 2344 3147 2276 3280 
Q 2209 3413 2115 3498 
Q 2022 3584 1901 3623 
Q 1781 3663 1631 3663 
Q 1366 3663 1200 3538 
Q 1034 3413 939 3194 
Q 844 2975 809 2681 
Q 775 2388 775 2050 
Q 775 1597 822 1280 
Q 869 963 970 763 
Q 1072 563 1230 472 
Q 1388 381 1613 381 
Q 1788 381 1920 437 
Q 2053 494 2148 598 
Q 2244 703 2306 850 
Q 2369 997 2406 1175 
Q 2444 1353 2458 1561 
Q 2472 1769 2472 1994 
z
" transform="scale(0.015625)"/>
        <path id="Calibri-2e" d="M 1144 341 
Q 1144 119 1070 45 
Q 997 -28 803 -28 
Q 616 -28 544 44 
Q 472 116 472 331 
Q 472 553 545 626 
Q 619 700 813 700 
Q 1000 700 1072 628 
Q 1144 556 1144 341 
z
" transform="scale(0.015625)"/>
       </defs>
       <use xlink:href="#Calibri-30"/>
       <use xlink:href="#Calibri-2e" x="50.683594"/>
       <use xlink:href="#Calibri-30" x="75.927734"/>
      </g>
     </g>
    </g>
    <g id="xtick_2">
     <g id="line2d_2">
      <g>
       <use xlink:href="#m013370ecf9" x="86.1696" y="307.584" style="stroke: #000000; stroke-width: 0.8"/>
      </g>
     </g>
     <g id="text_2">
      <!-- 0.1 -->
      <g transform="translate(79.83835 321.385562) scale(0.1 -0.1)">
       <defs>
        <path id="Calibri-31" d="M 2897 213 
Q 2897 153 2887 112 
Q 2878 72 2862 47 
Q 2847 22 2826 11 
Q 2806 0 2784 0 
L 672 0 
Q 650 0 631 11 
Q 613 22 595 47 
Q 578 72 568 112 
Q 559 153 559 213 
Q 559 269 568 309 
Q 578 350 592 376 
Q 606 403 626 417 
Q 647 431 672 431 
L 1516 431 
L 1516 3506 
L 734 3041 
Q 675 3009 639 3003 
Q 603 2997 581 3017 
Q 559 3038 551 3084 
Q 544 3131 544 3203 
Q 544 3256 548 3293 
Q 553 3331 562 3356 
Q 572 3381 589 3400 
Q 606 3419 634 3438 
L 1566 4034 
Q 1578 4044 1597 4050 
Q 1616 4056 1644 4062 
Q 1672 4069 1709 4070 
Q 1747 4072 1803 4072 
Q 1878 4072 1928 4065 
Q 1978 4059 2006 4048 
Q 2034 4038 2043 4020 
Q 2053 4003 2053 3984 
L 2053 431 
L 2784 431 
Q 2809 431 2831 417 
Q 2853 403 2867 376 
Q 2881 350 2889 309 
Q 2897 269 2897 213 
z
" transform="scale(0.015625)"/>
       </defs>
       <use xlink:href="#Calibri-30"/>
       <use xlink:href="#Calibri-2e" x="50.683594"/>
       <use xlink:href="#Calibri-31" x="75.927734"/>
      </g>
     </g>
    </g>
    <g id="xtick_3">
     <g id="line2d_3">
      <g>
       <use xlink:href="#m013370ecf9" x="114.7392" y="307.584" style="stroke: #000000; stroke-width: 0.8"/>
      </g>
     </g>
     <g id="text_3">
      <!-- 0.2 -->
      <g transform="translate(108.40795 321.385562) scale(0.1 -0.1)">
       <defs>
        <path id="Calibri-32" d="M 2888 231 
Q 2888 175 2880 131 
Q 2872 88 2858 58 
Q 2844 28 2820 14 
Q 2797 0 2769 0 
L 534 0 
Q 491 0 458 11 
Q 425 22 401 47 
Q 378 72 367 119 
Q 356 166 356 234 
Q 356 297 361 344 
Q 366 391 381 427 
Q 397 463 420 498 
Q 444 534 481 575 
L 1266 1406 
Q 1538 1694 1702 1922 
Q 1866 2150 1955 2337 
Q 2044 2525 2072 2678 
Q 2100 2831 2100 2966 
Q 2100 3100 2056 3220 
Q 2013 3341 1930 3431 
Q 1847 3522 1722 3575 
Q 1597 3628 1434 3628 
Q 1244 3628 1092 3575 
Q 941 3522 827 3459 
Q 713 3397 636 3344 
Q 559 3291 522 3291 
Q 500 3291 483 3303 
Q 466 3316 455 3344 
Q 444 3372 437 3419 
Q 431 3466 431 3531 
Q 431 3578 434 3612 
Q 438 3647 445 3672 
Q 453 3697 465 3719 
Q 478 3741 515 3773 
Q 553 3806 645 3862 
Q 738 3919 877 3973 
Q 1016 4028 1183 4065 
Q 1350 4103 1534 4103 
Q 1828 4103 2048 4020 
Q 2269 3938 2414 3794 
Q 2559 3650 2631 3459 
Q 2703 3269 2703 3053 
Q 2703 2859 2668 2667 
Q 2634 2475 2523 2251 
Q 2413 2028 2203 1754 
Q 1994 1481 1647 1125 
L 1006 456 
L 2766 456 
Q 2791 456 2814 442 
Q 2838 428 2855 400 
Q 2872 372 2880 330 
Q 2888 288 2888 231 
z
" transform="scale(0.015625)"/>
       </defs>
       <use xlink:href="#Calibri-30"/>
       <use xlink:href="#Calibri-2e" x="50.683594"/>
       <use xlink:href="#Calibri-32" x="75.927734"/>
      </g>
     </g>
    </g>
    <g id="xtick_4">
     <g id="line2d_4">
      <g>
       <use xlink:href="#m013370ecf9" x="143.3088" y="307.584" style="stroke: #000000; stroke-width: 0.8"/>
      </g>
     </g>
     <g id="text_4">
      <!-- 0.3 -->
      <g transform="translate(136.97755 321.385562) scale(0.1 -0.1)">
       <defs>
        <path id="Calibri-33" d="M 2856 1156 
Q 2856 878 2759 654 
Q 2663 431 2481 272 
Q 2300 113 2034 27 
Q 1769 -59 1434 -59 
Q 1231 -59 1054 -26 
Q 878 6 740 51 
Q 603 97 512 145 
Q 422 194 398 216 
Q 375 238 362 259 
Q 350 281 340 312 
Q 331 344 326 389 
Q 322 434 322 500 
Q 322 613 344 656 
Q 366 700 406 700 
Q 434 700 517 650 
Q 600 600 729 542 
Q 859 484 1032 434 
Q 1206 384 1419 384 
Q 1625 384 1781 437 
Q 1938 491 2044 587 
Q 2150 684 2203 817 
Q 2256 950 2256 1106 
Q 2256 1278 2189 1415 
Q 2122 1553 1992 1653 
Q 1863 1753 1673 1806 
Q 1484 1859 1244 1859 
L 859 1859 
Q 834 1859 811 1870 
Q 788 1881 770 1906 
Q 753 1931 742 1972 
Q 731 2013 731 2078 
Q 731 2138 740 2177 
Q 750 2216 767 2239 
Q 784 2263 806 2273 
Q 828 2284 856 2284 
L 1209 2284 
Q 1416 2284 1580 2337 
Q 1744 2391 1858 2491 
Q 1972 2591 2033 2730 
Q 2094 2869 2094 3041 
Q 2094 3166 2053 3280 
Q 2013 3394 1931 3478 
Q 1850 3563 1723 3611 
Q 1597 3659 1431 3659 
Q 1250 3659 1098 3604 
Q 947 3550 828 3487 
Q 709 3425 631 3370 
Q 553 3316 522 3316 
Q 500 3316 483 3323 
Q 466 3331 455 3354 
Q 444 3378 439 3420 
Q 434 3463 434 3531 
Q 434 3578 437 3614 
Q 441 3650 450 3676 
Q 459 3703 471 3725 
Q 484 3747 514 3776 
Q 544 3806 634 3862 
Q 725 3919 858 3973 
Q 991 4028 1164 4065 
Q 1338 4103 1538 4103 
Q 1819 4103 2031 4031 
Q 2244 3959 2386 3828 
Q 2528 3697 2598 3514 
Q 2669 3331 2669 3109 
Q 2669 2919 2619 2755 
Q 2569 2591 2472 2464 
Q 2375 2338 2234 2248 
Q 2094 2159 1909 2125 
L 1909 2119 
Q 2119 2097 2292 2014 
Q 2466 1931 2591 1806 
Q 2716 1681 2786 1514 
Q 2856 1347 2856 1156 
z
" transform="scale(0.015625)"/>
       </defs>
       <use xlink:href="#Calibri-30"/>
       <use xlink:href="#Calibri-2e" x="50.683594"/>
       <use xlink:href="#Calibri-33" x="75.927734"/>
      </g>
     </g>
    </g>
    <g id="xtick_5">
     <g id="line2d_5">
      <g>
       <use xlink:href="#m013370ecf9" x="171.8784" y="307.584" style="stroke: #000000; stroke-width: 0.8"/>
      </g>
     </g>
     <g id="text_5">
      <!-- 0.4 -->
      <g transform="translate(165.54715 321.385562) scale(0.1 -0.1)">
       <defs>
        <path id="Calibri-34" d="M 3059 1150 
Q 3059 1047 3028 987 
Q 2997 928 2941 928 
L 2484 928 
L 2484 78 
Q 2484 53 2471 36 
Q 2459 19 2428 6 
Q 2397 -6 2347 -12 
Q 2297 -19 2219 -19 
Q 2144 -19 2094 -12 
Q 2044 -6 2014 6 
Q 1984 19 1973 36 
Q 1963 53 1963 78 
L 1963 928 
L 294 928 
Q 256 928 231 937 
Q 206 947 186 972 
Q 166 997 158 1044 
Q 150 1091 150 1166 
Q 150 1225 153 1272 
Q 156 1319 165 1358 
Q 175 1397 190 1433 
Q 206 1469 228 1509 
L 1684 3966 
Q 1700 3991 1729 4009 
Q 1759 4028 1806 4040 
Q 1853 4053 1922 4058 
Q 1991 4063 2084 4063 
Q 2188 4063 2264 4055 
Q 2341 4047 2387 4034 
Q 2434 4022 2459 4001 
Q 2484 3981 2484 3953 
L 2484 1372 
L 2941 1372 
Q 2994 1372 3026 1317 
Q 3059 1263 3059 1150 
z
M 1963 3591 
L 1956 3591 
L 641 1372 
L 1963 1372 
L 1963 3591 
z
" transform="scale(0.015625)"/>
       </defs>
       <use xlink:href="#Calibri-30"/>
       <use xlink:href="#Calibri-2e" x="50.683594"/>
       <use xlink:href="#Calibri-34" x="75.927734"/>
      </g>
     </g>
    </g>
    <g id="xtick_6">
     <g id="line2d_6">
      <g>
       <use xlink:href="#m013370ecf9" x="200.448" y="307.584" style="stroke: #000000; stroke-width: 0.8"/>
      </g>
     </g>
     <g id="text_6">
      <!-- 0.5 -->
      <g transform="translate(194.11675 321.385562) scale(0.1 -0.1)">
       <defs>
        <path id="Calibri-35" d="M 2869 1300 
Q 2869 975 2759 722 
Q 2650 469 2450 295 
Q 2250 122 1973 31 
Q 1697 -59 1359 -59 
Q 1172 -59 1003 -32 
Q 834 -6 703 33 
Q 572 72 487 109 
Q 403 147 379 169 
Q 356 191 347 209 
Q 338 228 330 254 
Q 322 281 319 322 
Q 316 363 316 419 
Q 316 472 320 514 
Q 325 556 337 582 
Q 350 609 367 621 
Q 384 634 406 634 
Q 438 634 503 595 
Q 569 556 680 511 
Q 791 466 955 425 
Q 1119 384 1344 384 
Q 1553 384 1728 434 
Q 1903 484 2029 590 
Q 2156 697 2228 858 
Q 2300 1019 2300 1250 
Q 2300 1444 2239 1592 
Q 2178 1741 2051 1839 
Q 1925 1938 1731 1986 
Q 1538 2034 1269 2034 
Q 1078 2034 940 2015 
Q 803 1997 684 1997 
Q 597 1997 559 2037 
Q 522 2078 522 2194 
L 522 3841 
Q 522 3944 570 3994 
Q 619 4044 709 4044 
L 2500 4044 
Q 2525 4044 2548 4030 
Q 2572 4016 2587 3987 
Q 2603 3959 2611 3915 
Q 2619 3872 2619 3813 
Q 2619 3700 2587 3637 
Q 2556 3575 2500 3575 
L 991 3575 
L 991 2441 
Q 1100 2456 1214 2459 
Q 1328 2463 1478 2463 
Q 1825 2463 2084 2380 
Q 2344 2297 2517 2145 
Q 2691 1994 2780 1778 
Q 2869 1563 2869 1300 
z
" transform="scale(0.015625)"/>
       </defs>
       <use xlink:href="#Calibri-30"/>
       <use xlink:href="#Calibri-2e" x="50.683594"/>
       <use xlink:href="#Calibri-35" x="75.927734"/>
      </g>
     </g>
    </g>
    <g id="xtick_7">
     <g id="line2d_7">
      <g>
       <use xlink:href="#m013370ecf9" x="229.0176" y="307.584" style="stroke: #000000; stroke-width: 0.8"/>
      </g>
     </g>
     <g id="text_7">
      <!-- 0.6 -->
      <g transform="translate(222.68635 321.385562) scale(0.1 -0.1)">
       <defs>
        <path id="Calibri-36" d="M 2991 1309 
Q 2991 1044 2909 795 
Q 2828 547 2659 358 
Q 2491 169 2231 55 
Q 1972 -59 1619 -59 
Q 1366 -59 1172 3 
Q 978 66 834 181 
Q 691 297 595 465 
Q 500 634 442 850 
Q 384 1066 359 1322 
Q 334 1578 334 1872 
Q 334 2131 362 2397 
Q 391 2663 462 2909 
Q 534 3156 657 3373 
Q 781 3591 967 3752 
Q 1153 3913 1412 4006 
Q 1672 4100 2016 4100 
Q 2131 4100 2250 4086 
Q 2369 4072 2469 4048 
Q 2569 4025 2637 3997 
Q 2706 3969 2728 3951 
Q 2750 3934 2761 3914 
Q 2772 3894 2778 3870 
Q 2784 3847 2787 3817 
Q 2791 3788 2791 3744 
Q 2791 3688 2789 3647 
Q 2788 3606 2777 3581 
Q 2766 3556 2748 3543 
Q 2731 3531 2703 3531 
Q 2669 3531 2609 3553 
Q 2550 3575 2465 3601 
Q 2381 3628 2261 3650 
Q 2141 3672 1981 3672 
Q 1691 3672 1481 3553 
Q 1272 3434 1139 3234 
Q 1006 3034 942 2770 
Q 878 2506 869 2219 
Q 950 2266 1051 2312 
Q 1153 2359 1273 2396 
Q 1394 2434 1528 2457 
Q 1663 2481 1816 2481 
Q 2144 2481 2369 2392 
Q 2594 2303 2733 2145 
Q 2872 1988 2931 1773 
Q 2991 1559 2991 1309 
z
M 2447 1259 
Q 2447 1441 2411 1589 
Q 2375 1738 2290 1841 
Q 2206 1944 2065 2000 
Q 1925 2056 1719 2056 
Q 1603 2056 1487 2036 
Q 1372 2016 1264 1980 
Q 1156 1944 1057 1895 
Q 959 1847 878 1791 
Q 878 1388 929 1116 
Q 981 844 1079 680 
Q 1178 516 1325 445 
Q 1472 375 1669 375 
Q 1869 375 2016 450 
Q 2163 525 2259 651 
Q 2356 778 2401 936 
Q 2447 1094 2447 1259 
z
" transform="scale(0.015625)"/>
       </defs>
       <use xlink:href="#Calibri-30"/>
       <use xlink:href="#Calibri-2e" x="50.683594"/>
       <use xlink:href="#Calibri-36" x="75.927734"/>
      </g>
     </g>
    </g>
    <g id="xtick_8">
     <g id="line2d_8">
      <g>
       <use xlink:href="#m013370ecf9" x="257.5872" y="307.584" style="stroke: #000000; stroke-width: 0.8"/>
      </g>
     </g>
     <g id="text_8">
      <!-- 0.7 -->
      <g transform="translate(251.25595 321.385562) scale(0.1 -0.1)">
       <defs>
        <path id="Calibri-37" d="M 2947 3813 
Q 2947 3756 2942 3711 
Q 2938 3666 2930 3623 
Q 2922 3581 2908 3542 
Q 2894 3503 2875 3459 
L 1419 103 
Q 1403 66 1379 42 
Q 1356 19 1320 5 
Q 1284 -9 1228 -14 
Q 1172 -19 1091 -19 
Q 984 -19 925 -9 
Q 866 0 839 20 
Q 813 41 816 70 
Q 819 100 838 141 
L 2369 3572 
L 428 3572 
Q 369 3572 339 3634 
Q 309 3697 309 3809 
Q 309 3869 317 3912 
Q 325 3956 340 3986 
Q 356 4016 378 4030 
Q 400 4044 428 4044 
L 2784 4044 
Q 2828 4044 2861 4034 
Q 2894 4025 2911 3997 
Q 2928 3969 2937 3925 
Q 2947 3881 2947 3813 
z
" transform="scale(0.015625)"/>
       </defs>
       <use xlink:href="#Calibri-30"/>
       <use xlink:href="#Calibri-2e" x="50.683594"/>
       <use xlink:href="#Calibri-37" x="75.927734"/>
      </g>
     </g>
    </g>
    <g id="xtick_9">
     <g id="line2d_9">
      <g>
       <use xlink:href="#m013370ecf9" x="286.1568" y="307.584" style="stroke: #000000; stroke-width: 0.8"/>
      </g>
     </g>
     <g id="text_9">
      <!-- 0.8 -->
      <g transform="translate(279.82555 321.385562) scale(0.1 -0.1)">
       <defs>
        <path id="Calibri-38" d="M 2981 1038 
Q 2981 775 2887 570 
Q 2794 366 2617 225 
Q 2441 84 2181 12 
Q 1922 -59 1588 -59 
Q 1275 -59 1028 6 
Q 781 72 609 200 
Q 438 328 347 515 
Q 256 703 256 944 
Q 256 1134 318 1293 
Q 381 1453 498 1587 
Q 616 1722 787 1839 
Q 959 1956 1175 2063 
Q 988 2159 844 2267 
Q 700 2375 600 2501 
Q 500 2628 448 2772 
Q 397 2916 397 3084 
Q 397 3297 473 3483 
Q 550 3669 704 3806 
Q 859 3944 1098 4023 
Q 1338 4103 1656 4103 
Q 1963 4103 2186 4029 
Q 2409 3956 2554 3829 
Q 2700 3703 2769 3531 
Q 2838 3359 2838 3163 
Q 2838 3003 2786 2856 
Q 2734 2709 2634 2578 
Q 2534 2447 2389 2333 
Q 2244 2219 2056 2119 
Q 2278 2009 2451 1893 
Q 2625 1778 2742 1645 
Q 2859 1513 2920 1364 
Q 2981 1216 2981 1038 
z
M 2306 3113 
Q 2306 3244 2261 3350 
Q 2216 3456 2128 3531 
Q 2041 3606 1911 3645 
Q 1781 3684 1616 3684 
Q 1278 3684 1104 3531 
Q 931 3378 931 3113 
Q 931 2991 973 2886 
Q 1016 2781 1105 2687 
Q 1194 2594 1330 2505 
Q 1466 2416 1653 2319 
Q 1969 2481 2137 2678 
Q 2306 2875 2306 3113 
z
M 2438 981 
Q 2438 1125 2384 1242 
Q 2331 1359 2223 1461 
Q 2116 1563 1955 1658 
Q 1794 1753 1581 1856 
Q 1384 1759 1236 1662 
Q 1088 1566 992 1462 
Q 897 1359 848 1245 
Q 800 1131 800 994 
Q 800 691 1008 525 
Q 1216 359 1628 359 
Q 2028 359 2233 526 
Q 2438 694 2438 981 
z
" transform="scale(0.015625)"/>
       </defs>
       <use xlink:href="#Calibri-30"/>
       <use xlink:href="#Calibri-2e" x="50.683594"/>
       <use xlink:href="#Calibri-38" x="75.927734"/>
      </g>
     </g>
    </g>
    <g id="xtick_10">
     <g id="line2d_10">
      <g>
       <use xlink:href="#m013370ecf9" x="314.7264" y="307.584" style="stroke: #000000; stroke-width: 0.8"/>
      </g>
     </g>
     <g id="text_10">
      <!-- 0.9 -->
      <g transform="translate(308.39515 321.385562) scale(0.1 -0.1)">
       <defs>
        <path id="Calibri-39" d="M 2919 2181 
Q 2919 1919 2887 1650 
Q 2856 1381 2781 1132 
Q 2706 884 2579 667 
Q 2453 450 2261 287 
Q 2069 125 1805 33 
Q 1541 -59 1191 -59 
Q 1056 -59 929 -42 
Q 803 -25 701 0 
Q 600 25 531 53 
Q 463 81 431 109 
Q 400 138 386 186 
Q 372 234 372 316 
Q 372 384 376 425 
Q 381 466 390 487 
Q 400 509 417 517 
Q 434 525 459 525 
Q 494 525 556 501 
Q 619 478 714 450 
Q 809 422 937 398 
Q 1066 375 1225 375 
Q 1528 375 1745 492 
Q 1963 609 2100 806 
Q 2238 1003 2306 1262 
Q 2375 1522 2381 1809 
Q 2216 1713 1984 1638 
Q 1753 1563 1453 1563 
Q 1116 1563 886 1655 
Q 656 1747 517 1906 
Q 378 2066 317 2284 
Q 256 2503 256 2763 
Q 256 3031 334 3273 
Q 413 3516 578 3700 
Q 744 3884 1000 3993 
Q 1256 4103 1613 4103 
Q 1866 4103 2061 4039 
Q 2256 3975 2400 3854 
Q 2544 3734 2644 3564 
Q 2744 3394 2805 3178 
Q 2866 2963 2892 2711 
Q 2919 2459 2919 2181 
z
M 2372 2241 
Q 2372 2641 2319 2914 
Q 2266 3188 2162 3356 
Q 2059 3525 1909 3600 
Q 1759 3675 1563 3675 
Q 1359 3675 1215 3601 
Q 1072 3528 980 3404 
Q 888 3281 844 3125 
Q 800 2969 800 2803 
Q 800 2619 839 2466 
Q 878 2313 965 2206 
Q 1053 2100 1193 2042 
Q 1334 1984 1541 1984 
Q 1775 1984 1994 2054 
Q 2213 2125 2372 2241 
z
" transform="scale(0.015625)"/>
       </defs>
       <use xlink:href="#Calibri-30"/>
       <use xlink:href="#Calibri-2e" x="50.683594"/>
       <use xlink:href="#Calibri-39" x="75.927734"/>
      </g>
     </g>
    </g>
    <g id="xtick_11">
     <g id="line2d_11">
      <g>
       <use xlink:href="#m013370ecf9" x="343.296" y="307.584" style="stroke: #000000; stroke-width: 0.8"/>
      </g>
     </g>
     <g id="text_11">
      <!-- 1.0 -->
      <g transform="translate(336.96475 321.385562) scale(0.1 -0.1)">
       <use xlink:href="#Calibri-31"/>
       <use xlink:href="#Calibri-2e" x="50.683594"/>
       <use xlink:href="#Calibri-30" x="75.927734"/>
      </g>
     </g>
    </g>
    <g id="text_12">
     <!-- $\mathit{p}$ (cm$^2$/cm$^2$) -->
     <g transform="translate(174.148 336.263687) scale(0.1 -0.1)">
      <defs>
       <path id="DejaVuSans-Oblique-70" d="M 3175 2156 
Q 3175 2616 2975 2859 
Q 2775 3103 2400 3103 
Q 2144 3103 1911 2972 
Q 1678 2841 1497 2591 
Q 1319 2344 1212 1994 
Q 1106 1644 1106 1300 
Q 1106 863 1306 627 
Q 1506 391 1875 391 
Q 2147 391 2380 519 
Q 2613 647 2778 891 
Q 2956 1147 3065 1494 
Q 3175 1841 3175 2156 
z
M 1394 2969 
Q 1625 3272 1939 3428 
Q 2253 3584 2638 3584 
Q 3175 3584 3472 3232 
Q 3769 2881 3769 2247 
Q 3769 1728 3584 1258 
Q 3400 788 3053 416 
Q 2822 169 2531 39 
Q 2241 -91 1919 -91 
Q 1547 -91 1294 64 
Q 1041 219 916 525 
L 556 -1331 
L -19 -1331 
L 922 3500 
L 1497 3500 
L 1394 2969 
z
" transform="scale(0.015625)"/>
       <path id="Calibri-20" transform="scale(0.015625)"/>
       <path id="Calibri-28" d="M 1547 4306 
Q 1250 3678 1104 3017 
Q 959 2356 959 1688 
Q 959 1016 1107 356 
Q 1256 -303 1541 -938 
Q 1556 -975 1557 -1001 
Q 1559 -1028 1537 -1045 
Q 1516 -1063 1470 -1070 
Q 1425 -1078 1347 -1078 
Q 1291 -1078 1250 -1075 
Q 1209 -1072 1179 -1062 
Q 1150 -1053 1131 -1040 
Q 1113 -1028 1103 -1013 
Q 934 -694 806 -367 
Q 678 -41 590 296 
Q 503 634 459 979 
Q 416 1325 416 1678 
Q 416 2031 464 2375 
Q 513 2719 602 3058 
Q 691 3397 819 3725 
Q 947 4053 1106 4375 
Q 1109 4388 1123 4397 
Q 1138 4406 1163 4415 
Q 1188 4425 1231 4429 
Q 1275 4434 1344 4434 
Q 1416 4434 1459 4425 
Q 1503 4416 1528 4400 
Q 1553 4384 1556 4359 
Q 1559 4334 1547 4306 
z
" transform="scale(0.015625)"/>
       <path id="Calibri-63" d="M 2500 506 
Q 2500 453 2497 414 
Q 2494 375 2486 348 
Q 2478 322 2467 301 
Q 2456 281 2417 242 
Q 2378 203 2284 145 
Q 2191 88 2073 42 
Q 1956 -3 1818 -31 
Q 1681 -59 1534 -59 
Q 1231 -59 997 41 
Q 763 141 605 333 
Q 447 525 364 804 
Q 281 1084 281 1450 
Q 281 1866 382 2164 
Q 484 2463 661 2653 
Q 838 2844 1077 2936 
Q 1316 3028 1594 3028 
Q 1728 3028 1854 3003 
Q 1981 2978 2087 2937 
Q 2194 2897 2276 2844 
Q 2359 2791 2396 2753 
Q 2434 2716 2448 2694 
Q 2463 2672 2472 2642 
Q 2481 2613 2484 2575 
Q 2488 2538 2488 2481 
Q 2488 2359 2459 2311 
Q 2431 2263 2391 2263 
Q 2344 2263 2283 2314 
Q 2222 2366 2128 2428 
Q 2034 2491 1901 2542 
Q 1769 2594 1588 2594 
Q 1216 2594 1017 2308 
Q 819 2022 819 1478 
Q 819 1206 870 1001 
Q 922 797 1022 659 
Q 1122 522 1267 455 
Q 1413 388 1600 388 
Q 1778 388 1912 444 
Q 2047 500 2145 567 
Q 2244 634 2311 689 
Q 2378 744 2416 744 
Q 2438 744 2453 731 
Q 2469 719 2480 689 
Q 2491 659 2495 614 
Q 2500 569 2500 506 
z
" transform="scale(0.015625)"/>
       <path id="Calibri-6d" d="M 4650 78 
Q 4650 53 4637 36 
Q 4625 19 4597 6 
Q 4569 -6 4519 -12 
Q 4469 -19 4394 -19 
Q 4316 -19 4266 -12 
Q 4216 -6 4186 6 
Q 4156 19 4143 36 
Q 4131 53 4131 78 
L 4131 1788 
Q 4131 1966 4100 2112 
Q 4069 2259 4000 2365 
Q 3931 2472 3825 2528 
Q 3719 2584 3575 2584 
Q 3397 2584 3217 2446 
Q 3038 2309 2822 2044 
L 2822 78 
Q 2822 53 2809 36 
Q 2797 19 2767 6 
Q 2738 -6 2688 -12 
Q 2638 -19 2563 -19 
Q 2491 -19 2439 -12 
Q 2388 -6 2358 6 
Q 2328 19 2317 36 
Q 2306 53 2306 78 
L 2306 1788 
Q 2306 1966 2272 2112 
Q 2238 2259 2169 2365 
Q 2100 2472 1995 2528 
Q 1891 2584 1747 2584 
Q 1569 2584 1387 2446 
Q 1206 2309 994 2044 
L 994 78 
Q 994 53 981 36 
Q 969 19 941 6 
Q 913 -6 863 -12 
Q 813 -19 734 -19 
Q 659 -19 609 -12 
Q 559 -6 529 6 
Q 500 19 489 36 
Q 478 53 478 78 
L 478 2891 
Q 478 2916 487 2933 
Q 497 2950 525 2964 
Q 553 2978 597 2983 
Q 641 2988 713 2988 
Q 781 2988 826 2983 
Q 872 2978 897 2964 
Q 922 2950 933 2933 
Q 944 2916 944 2891 
L 944 2519 
Q 1181 2784 1404 2907 
Q 1628 3031 1856 3031 
Q 2031 3031 2170 2990 
Q 2309 2950 2415 2876 
Q 2522 2803 2597 2701 
Q 2672 2600 2722 2475 
Q 2863 2628 2989 2734 
Q 3116 2841 3233 2906 
Q 3350 2972 3461 3001 
Q 3572 3031 3684 3031 
Q 3956 3031 4140 2936 
Q 4325 2841 4439 2681 
Q 4553 2522 4601 2308 
Q 4650 2094 4650 1856 
L 4650 78 
z
" transform="scale(0.015625)"/>
       <path id="DejaVuSans-32" d="M 1228 531 
L 3431 531 
L 3431 0 
L 469 0 
L 469 531 
Q 828 903 1448 1529 
Q 2069 2156 2228 2338 
Q 2531 2678 2651 2914 
Q 2772 3150 2772 3378 
Q 2772 3750 2511 3984 
Q 2250 4219 1831 4219 
Q 1534 4219 1204 4116 
Q 875 4013 500 3803 
L 500 4441 
Q 881 4594 1212 4672 
Q 1544 4750 1819 4750 
Q 2544 4750 2975 4387 
Q 3406 4025 3406 3419 
Q 3406 3131 3298 2873 
Q 3191 2616 2906 2266 
Q 2828 2175 2409 1742 
Q 1991 1309 1228 531 
z
" transform="scale(0.015625)"/>
       <path id="Calibri-2f" d="M 525 -753 
Q 513 -794 492 -817 
Q 472 -841 440 -853 
Q 409 -866 364 -872 
Q 319 -878 253 -878 
Q 175 -878 123 -867 
Q 72 -856 44 -836 
Q 16 -816 9 -786 
Q 3 -756 22 -716 
L 1913 4469 
Q 1925 4509 1945 4532 
Q 1966 4556 1995 4570 
Q 2025 4584 2072 4589 
Q 2119 4594 2184 4594 
Q 2263 4594 2313 4583 
Q 2363 4572 2391 4553 
Q 2419 4534 2425 4503 
Q 2431 4472 2416 4431 
L 525 -753 
z
" transform="scale(0.015625)"/>
       <path id="Calibri-29" d="M 1522 1678 
Q 1522 1325 1478 979 
Q 1434 634 1346 296 
Q 1259 -41 1132 -367 
Q 1006 -694 838 -1013 
Q 828 -1028 809 -1040 
Q 791 -1053 761 -1062 
Q 731 -1072 690 -1075 
Q 650 -1078 594 -1078 
Q 513 -1078 467 -1070 
Q 422 -1063 401 -1045 
Q 381 -1028 382 -1001 
Q 384 -975 400 -938 
Q 688 -306 834 355 
Q 981 1016 981 1688 
Q 981 2356 834 3017 
Q 688 3678 394 4306 
Q 381 4334 384 4359 
Q 388 4384 413 4400 
Q 438 4416 481 4425 
Q 525 4434 597 4434 
Q 663 4434 706 4429 
Q 750 4425 776 4415 
Q 803 4406 815 4397 
Q 828 4388 834 4375 
Q 1156 3734 1339 3057 
Q 1522 2381 1522 1678 
z
" transform="scale(0.015625)"/>
      </defs>
      <use xlink:href="#DejaVuSans-Oblique-70" transform="translate(0 0.765625)"/>
      <use xlink:href="#Calibri-20" transform="translate(63.476562 0.765625)"/>
      <use xlink:href="#Calibri-28" transform="translate(84.958984 0.765625)"/>
      <use xlink:href="#Calibri-63" transform="translate(115.28125 0.765625)"/>
      <use xlink:href="#Calibri-6d" transform="translate(157.566406 0.765625)"/>
      <use xlink:href="#DejaVuSans-32" transform="translate(238.40625 39.046875) scale(0.7)"/>
      <use xlink:href="#Calibri-2f" transform="translate(285.676758 0.765625)"/>
      <use xlink:href="#Calibri-63" transform="translate(324.299805 0.765625)"/>
      <use xlink:href="#Calibri-6d" transform="translate(366.584961 0.765625)"/>
      <use xlink:href="#DejaVuSans-32" transform="translate(447.424805 39.046875) scale(0.7)"/>
      <use xlink:href="#Calibri-29" transform="translate(494.695312 0.765625)"/>
     </g>
    </g>
   </g>
   <g id="matplotlib.axis_2">
    <g id="ytick_1">
     <g id="line2d_12">
      <defs>
       <path id="m8f6853c278" d="M 0 0 
L -3.5 0 
" style="stroke: #000000; stroke-width: 0.8"/>
      </defs>
      <g>
       <use xlink:href="#m8f6853c278" x="57.6" y="275.65056" style="stroke: #000000; stroke-width: 0.8"/>
      </g>
     </g>
     <g id="text_13">
      <!-- 25 -->
      <g transform="translate(40.4625 279.051341) scale(0.1 -0.1)">
       <use xlink:href="#Calibri-32"/>
       <use xlink:href="#Calibri-35" x="50.683594"/>
      </g>
     </g>
    </g>
    <g id="ytick_2">
     <g id="line2d_13">
      <g>
       <use xlink:href="#m8f6853c278" x="57.6" y="242.38656" style="stroke: #000000; stroke-width: 0.8"/>
      </g>
     </g>
     <g id="text_14">
      <!-- 50 -->
      <g transform="translate(40.4625 245.787341) scale(0.1 -0.1)">
       <use xlink:href="#Calibri-35"/>
       <use xlink:href="#Calibri-30" x="50.683594"/>
      </g>
     </g>
    </g>
    <g id="ytick_3">
     <g id="line2d_14">
      <g>
       <use xlink:href="#m8f6853c278" x="57.6" y="209.12256" style="stroke: #000000; stroke-width: 0.8"/>
      </g>
     </g>
     <g id="text_15">
      <!-- 75 -->
      <g transform="translate(40.4625 212.523341) scale(0.1 -0.1)">
       <use xlink:href="#Calibri-37"/>
       <use xlink:href="#Calibri-35" x="50.683594"/>
      </g>
     </g>
    </g>
    <g id="ytick_4">
     <g id="line2d_15">
      <g>
       <use xlink:href="#m8f6853c278" x="57.6" y="175.85856" style="stroke: #000000; stroke-width: 0.8"/>
      </g>
     </g>
     <g id="text_16">
      <!-- 100 -->
      <g transform="translate(35.39375 179.259341) scale(0.1 -0.1)">
       <use xlink:href="#Calibri-31"/>
       <use xlink:href="#Calibri-30" x="50.683594"/>
       <use xlink:href="#Calibri-30" x="101.367188"/>
      </g>
     </g>
    </g>
    <g id="ytick_5">
     <g id="line2d_16">
      <g>
       <use xlink:href="#m8f6853c278" x="57.6" y="142.59456" style="stroke: #000000; stroke-width: 0.8"/>
      </g>
     </g>
     <g id="text_17">
      <!-- 125 -->
      <g transform="translate(35.39375 145.995341) scale(0.1 -0.1)">
       <use xlink:href="#Calibri-31"/>
       <use xlink:href="#Calibri-32" x="50.683594"/>
       <use xlink:href="#Calibri-35" x="101.367188"/>
      </g>
     </g>
    </g>
    <g id="ytick_6">
     <g id="line2d_17">
      <g>
       <use xlink:href="#m8f6853c278" x="57.6" y="109.33056" style="stroke: #000000; stroke-width: 0.8"/>
      </g>
     </g>
     <g id="text_18">
      <!-- 150 -->
      <g transform="translate(35.39375 112.731341) scale(0.1 -0.1)">
       <use xlink:href="#Calibri-31"/>
       <use xlink:href="#Calibri-35" x="50.683594"/>
       <use xlink:href="#Calibri-30" x="101.367188"/>
      </g>
     </g>
    </g>
    <g id="ytick_7">
     <g id="line2d_18">
      <g>
       <use xlink:href="#m8f6853c278" x="57.6" y="76.06656" style="stroke: #000000; stroke-width: 0.8"/>
      </g>
     </g>
     <g id="text_19">
      <!-- 175 -->
      <g transform="translate(35.39375 79.467341) scale(0.1 -0.1)">
       <use xlink:href="#Calibri-31"/>
       <use xlink:href="#Calibri-37" x="50.683594"/>
       <use xlink:href="#Calibri-35" x="101.367188"/>
      </g>
     </g>
    </g>
    <g id="ytick_8">
     <g id="line2d_19">
      <g>
       <use xlink:href="#m8f6853c278" x="57.6" y="42.80256" style="stroke: #000000; stroke-width: 0.8"/>
      </g>
     </g>
     <g id="text_20">
      <!-- 200 -->
      <g transform="translate(35.39375 46.203341) scale(0.1 -0.1)">
       <use xlink:href="#Calibri-32"/>
       <use xlink:href="#Calibri-30" x="50.683594"/>
       <use xlink:href="#Calibri-30" x="101.367188"/>
      </g>
     </g>
    </g>
    <g id="text_21">
     <!-- $\mathit{Z}$$_{a}$ (nm) -->
     <g transform="translate(29.59375 191.028) rotate(-90) scale(0.1 -0.1)">
      <defs>
       <path id="DejaVuSans-Oblique-5a" d="M 838 4666 
L 4500 4666 
L 4409 4184 
L 794 531 
L 3769 531 
L 3669 0 
L -141 0 
L -50 481 
L 3566 4134 
L 738 4134 
L 838 4666 
z
" transform="scale(0.015625)"/>
       <path id="DejaVuSans-Oblique-61" d="M 3438 1997 
L 3047 0 
L 2472 0 
L 2578 531 
Q 2325 219 2001 64 
Q 1678 -91 1281 -91 
Q 834 -91 548 182 
Q 263 456 263 884 
Q 263 1497 752 1853 
Q 1241 2209 2100 2209 
L 2900 2209 
L 2931 2363 
Q 2938 2388 2941 2417 
Q 2944 2447 2944 2509 
Q 2944 2788 2717 2942 
Q 2491 3097 2081 3097 
Q 1800 3097 1504 3025 
Q 1209 2953 897 2809 
L 997 3341 
Q 1322 3463 1633 3523 
Q 1944 3584 2234 3584 
Q 2853 3584 3176 3315 
Q 3500 3047 3500 2534 
Q 3500 2431 3484 2292 
Q 3469 2153 3438 1997 
z
M 2816 1759 
L 2241 1759 
Q 1534 1759 1195 1570 
Q 856 1381 856 984 
Q 856 709 1029 553 
Q 1203 397 1509 397 
Q 1978 397 2328 733 
Q 2678 1069 2791 1631 
L 2816 1759 
z
" transform="scale(0.015625)"/>
       <path id="Calibri-6e" d="M 2900 78 
Q 2900 53 2887 36 
Q 2875 19 2847 6 
Q 2819 -6 2769 -12 
Q 2719 -19 2644 -19 
Q 2566 -19 2516 -12 
Q 2466 -6 2437 6 
Q 2409 19 2396 36 
Q 2384 53 2384 78 
L 2384 1725 
Q 2384 1966 2346 2112 
Q 2309 2259 2237 2365 
Q 2166 2472 2052 2528 
Q 1938 2584 1788 2584 
Q 1594 2584 1400 2446 
Q 1206 2309 994 2044 
L 994 78 
Q 994 53 981 36 
Q 969 19 941 6 
Q 913 -6 863 -12 
Q 813 -19 734 -19 
Q 659 -19 609 -12 
Q 559 -6 529 6 
Q 500 19 489 36 
Q 478 53 478 78 
L 478 2891 
Q 478 2916 487 2933 
Q 497 2950 525 2964 
Q 553 2978 597 2983 
Q 641 2988 713 2988 
Q 781 2988 826 2983 
Q 872 2978 897 2964 
Q 922 2950 933 2933 
Q 944 2916 944 2891 
L 944 2519 
Q 1181 2784 1417 2907 
Q 1653 3031 1894 3031 
Q 2175 3031 2367 2936 
Q 2559 2841 2678 2681 
Q 2797 2522 2848 2308 
Q 2900 2094 2900 1794 
L 2900 78 
z
" transform="scale(0.015625)"/>
      </defs>
      <use xlink:href="#DejaVuSans-Oblique-5a" transform="translate(0 0.09375)"/>
      <use xlink:href="#DejaVuSans-Oblique-61" transform="translate(69.462891 -16.3125) scale(0.7)"/>
      <use xlink:href="#Calibri-20" transform="translate(115.092773 0.09375)"/>
      <use xlink:href="#Calibri-28" transform="translate(136.575195 0.09375)"/>
      <use xlink:href="#Calibri-6e" transform="translate(166.897461 0.09375)"/>
      <use xlink:href="#Calibri-6d" transform="translate(219.436523 0.09375)"/>
      <use xlink:href="#Calibri-29" transform="translate(299.319336 0.09375)"/>
     </g>
    </g>
   </g>
   <g id="patch_3">
    <path d="M 57.6 307.584 
L 57.6 41.472 
" style="fill: none; stroke: #000000; stroke-width: 0.8; stroke-linejoin: miter; stroke-linecap: square"/>
   </g>
   <g id="patch_4">
    <path d="M 343.296 307.584 
L 343.296 41.472 
" style="fill: none; stroke: #000000; stroke-width: 0.8; stroke-linejoin: miter; stroke-linecap: square"/>
   </g>
   <g id="patch_5">
    <path d="M 57.6 307.584 
L 343.296 307.584 
" style="fill: none; stroke: #000000; stroke-width: 0.8; stroke-linejoin: miter; stroke-linecap: square"/>
   </g>
   <g id="patch_6">
    <path d="M 57.6 41.472 
L 343.296 41.472 
" style="fill: none; stroke: #000000; stroke-width: 0.8; stroke-linejoin: miter; stroke-linecap: square"/>
   </g>
   <g id="text_22">
    <!-- $\lambda$ = 630 nm -->
    <g transform="translate(177.348 35.472) scale(0.1 -0.1)">
     <defs>
      <path id="DejaVuSans-Oblique-3bb" d="M 2350 4316 
L 3125 0 
L 2516 0 
L 2038 2588 
L 328 0 
L -281 0 
L 1903 3356 
L 1794 3975 
Q 1725 4369 1391 4369 
L 1091 4369 
L 1184 4863 
L 1550 4856 
Q 2253 4847 2350 4316 
z
" transform="scale(0.015625)"/>
      <path id="Calibri-3d" d="M 2891 2409 
Q 2891 2284 2855 2236 
Q 2819 2188 2772 2188 
L 409 2188 
Q 363 2188 328 2236 
Q 294 2284 294 2409 
Q 294 2522 325 2575 
Q 356 2628 409 2628 
L 2772 2628 
Q 2828 2628 2859 2575 
Q 2891 2522 2891 2409 
z
M 2891 1194 
Q 2891 1069 2855 1022 
Q 2819 975 2772 975 
L 409 975 
Q 363 975 328 1022 
Q 294 1069 294 1194 
Q 294 1309 325 1362 
Q 356 1416 409 1416 
L 2772 1416 
Q 2828 1416 2859 1362 
Q 2891 1309 2891 1194 
z
" transform="scale(0.015625)"/>
     </defs>
     <use xlink:href="#DejaVuSans-Oblique-3bb" transform="translate(0 0.015625)"/>
     <use xlink:href="#Calibri-20" transform="translate(59.179688 0.015625)"/>
     <use xlink:href="#Calibri-3d" transform="translate(81.787109 0.015625)"/>
     <use xlink:href="#Calibri-20" transform="translate(131.591797 0.015625)"/>
     <use xlink:href="#Calibri-36" transform="translate(154.199219 0.015625)"/>
     <use xlink:href="#Calibri-33" transform="translate(204.882812 0.015625)"/>
     <use xlink:href="#Calibri-30" transform="translate(255.566406 0.015625)"/>
     <use xlink:href="#Calibri-20" transform="translate(306.25 0.015625)"/>
     <use xlink:href="#Calibri-6e" transform="translate(328.857422 0.015625)"/>
     <use xlink:href="#Calibri-6d" transform="translate(381.396484 0.015625)"/>
    </g>
   </g>
  </g>
  <g id="axes_2">
   <g id="patch_7">
    <path d="M 361.152 307.584 
L 374.4576 307.584 
L 374.4576 41.472 
L 361.152 41.472 
z
" style="fill: #ffffff"/>
   </g>
   <g id="QuadMesh_1">
    <path d="M 361.152 307.584 
L 374.4576 307.584 
L 374.4576 280.9728 
L 361.152 280.9728 
L 361.152 307.584 
" clip-path="url(#p898129213a)" style="fill: #0000b6"/>
    <path d="M 361.152 280.9728 
L 374.4576 280.9728 
L 374.4576 254.3616 
L 361.152 254.3616 
L 361.152 280.9728 
" clip-path="url(#p898129213a)" style="fill: #0018ff"/>
    <path d="M 361.152 254.3616 
L 374.4576 254.3616 
L 374.4576 227.7504 
L 361.152 227.7504 
L 361.152 254.3616 
" clip-path="url(#p898129213a)" style="fill: #0080ff"/>
    <path d="M 361.152 227.7504 
L 374.4576 227.7504 
L 374.4576 201.1392 
L 361.152 201.1392 
L 361.152 227.7504 
" clip-path="url(#p898129213a)" style="fill: #00e4f8"/>
    <path d="M 361.152 201.1392 
L 374.4576 201.1392 
L 374.4576 174.528 
L 361.152 174.528 
L 361.152 201.1392 
" clip-path="url(#p898129213a)" style="fill: #53ffa4"/>
    <path d="M 361.152 174.528 
L 374.4576 174.528 
L 374.4576 147.9168 
L 361.152 147.9168 
L 361.152 174.528 
" clip-path="url(#p898129213a)" style="fill: #a4ff53"/>
    <path d="M 361.152 147.9168 
L 374.4576 147.9168 
L 374.4576 121.3056 
L 361.152 121.3056 
L 361.152 147.9168 
" clip-path="url(#p898129213a)" style="fill: #f8f500"/>
    <path d="M 361.152 121.3056 
L 374.4576 121.3056 
L 374.4576 94.6944 
L 361.152 94.6944 
L 361.152 121.3056 
" clip-path="url(#p898129213a)" style="fill: #ff9400"/>
    <path d="M 361.152 94.6944 
L 374.4576 94.6944 
L 374.4576 68.0832 
L 361.152 68.0832 
L 361.152 94.6944 
" clip-path="url(#p898129213a)" style="fill: #ff3800"/>
    <path d="M 361.152 68.0832 
L 374.4576 68.0832 
L 374.4576 41.472 
L 361.152 41.472 
L 361.152 68.0832 
" clip-path="url(#p898129213a)" style="fill: #b60000"/>
   </g>
   <g id="matplotlib.axis_3"/>
   <g id="matplotlib.axis_4">
    <g id="ytick_9">
     <g id="line2d_20">
      <defs>
       <path id="m9284e6d69a" d="M 0 0 
L 3.5 0 
" style="stroke: #000000; stroke-width: 0.8"/>
      </defs>
      <g>
       <use xlink:href="#m9284e6d69a" x="374.4576" y="307.584" style="stroke: #000000; stroke-width: 0.8"/>
      </g>
     </g>
     <g id="text_23">
      <!-- 0 -->
      <g transform="translate(381.4576 310.984781) scale(0.1 -0.1)">
       <use xlink:href="#Calibri-30"/>
      </g>
     </g>
    </g>
    <g id="ytick_10">
     <g id="line2d_21">
      <g>
       <use xlink:href="#m9284e6d69a" x="374.4576" y="280.9728" style="stroke: #000000; stroke-width: 0.8"/>
      </g>
     </g>
     <g id="text_24">
      <!-- 0.1 -->
      <g transform="translate(381.4576 284.373581) scale(0.1 -0.1)">
       <use xlink:href="#Calibri-30"/>
       <use xlink:href="#Calibri-2e" x="50.683594"/>
       <use xlink:href="#Calibri-31" x="75.927734"/>
      </g>
     </g>
    </g>
    <g id="ytick_11">
     <g id="line2d_22">
      <g>
       <use xlink:href="#m9284e6d69a" x="374.4576" y="254.3616" style="stroke: #000000; stroke-width: 0.8"/>
      </g>
     </g>
     <g id="text_25">
      <!-- 0.2 -->
      <g transform="translate(381.4576 257.762381) scale(0.1 -0.1)">
       <use xlink:href="#Calibri-30"/>
       <use xlink:href="#Calibri-2e" x="50.683594"/>
       <use xlink:href="#Calibri-32" x="75.927734"/>
      </g>
     </g>
    </g>
    <g id="ytick_12">
     <g id="line2d_23">
      <g>
       <use xlink:href="#m9284e6d69a" x="374.4576" y="227.7504" style="stroke: #000000; stroke-width: 0.8"/>
      </g>
     </g>
     <g id="text_26">
      <!-- 0.3 -->
      <g transform="translate(381.4576 231.151181) scale(0.1 -0.1)">
       <use xlink:href="#Calibri-30"/>
       <use xlink:href="#Calibri-2e" x="50.683594"/>
       <use xlink:href="#Calibri-33" x="75.927734"/>
      </g>
     </g>
    </g>
    <g id="ytick_13">
     <g id="line2d_24">
      <g>
       <use xlink:href="#m9284e6d69a" x="374.4576" y="201.1392" style="stroke: #000000; stroke-width: 0.8"/>
      </g>
     </g>
     <g id="text_27">
      <!-- 0.4 -->
      <g transform="translate(381.4576 204.539981) scale(0.1 -0.1)">
       <use xlink:href="#Calibri-30"/>
       <use xlink:href="#Calibri-2e" x="50.683594"/>
       <use xlink:href="#Calibri-34" x="75.927734"/>
      </g>
     </g>
    </g>
    <g id="ytick_14">
     <g id="line2d_25">
      <g>
       <use xlink:href="#m9284e6d69a" x="374.4576" y="174.528" style="stroke: #000000; stroke-width: 0.8"/>
      </g>
     </g>
     <g id="text_28">
      <!-- 0.5 -->
      <g transform="translate(381.4576 177.928781) scale(0.1 -0.1)">
       <use xlink:href="#Calibri-30"/>
       <use xlink:href="#Calibri-2e" x="50.683594"/>
       <use xlink:href="#Calibri-35" x="75.927734"/>
      </g>
     </g>
    </g>
    <g id="ytick_15">
     <g id="line2d_26">
      <g>
       <use xlink:href="#m9284e6d69a" x="374.4576" y="147.9168" style="stroke: #000000; stroke-width: 0.8"/>
      </g>
     </g>
     <g id="text_29">
      <!-- 0.6 -->
      <g transform="translate(381.4576 151.317581) scale(0.1 -0.1)">
       <use xlink:href="#Calibri-30"/>
       <use xlink:href="#Calibri-2e" x="50.683594"/>
       <use xlink:href="#Calibri-36" x="75.927734"/>
      </g>
     </g>
    </g>
    <g id="ytick_16">
     <g id="line2d_27">
      <g>
       <use xlink:href="#m9284e6d69a" x="374.4576" y="121.3056" style="stroke: #000000; stroke-width: 0.8"/>
      </g>
     </g>
     <g id="text_30">
      <!-- 0.7 -->
      <g transform="translate(381.4576 124.706381) scale(0.1 -0.1)">
       <use xlink:href="#Calibri-30"/>
       <use xlink:href="#Calibri-2e" x="50.683594"/>
       <use xlink:href="#Calibri-37" x="75.927734"/>
      </g>
     </g>
    </g>
    <g id="ytick_17">
     <g id="line2d_28">
      <g>
       <use xlink:href="#m9284e6d69a" x="374.4576" y="94.6944" style="stroke: #000000; stroke-width: 0.8"/>
      </g>
     </g>
     <g id="text_31">
      <!-- 0.8 -->
      <g transform="translate(381.4576 98.095181) scale(0.1 -0.1)">
       <use xlink:href="#Calibri-30"/>
       <use xlink:href="#Calibri-2e" x="50.683594"/>
       <use xlink:href="#Calibri-38" x="75.927734"/>
      </g>
     </g>
    </g>
    <g id="ytick_18">
     <g id="line2d_29">
      <g>
       <use xlink:href="#m9284e6d69a" x="374.4576" y="68.0832" style="stroke: #000000; stroke-width: 0.8"/>
      </g>
     </g>
     <g id="text_32">
      <!-- 0.9 -->
      <g transform="translate(381.4576 71.483981) scale(0.1 -0.1)">
       <use xlink:href="#Calibri-30"/>
       <use xlink:href="#Calibri-2e" x="50.683594"/>
       <use xlink:href="#Calibri-39" x="75.927734"/>
      </g>
     </g>
    </g>
    <g id="ytick_19">
     <g id="line2d_30">
      <g>
       <use xlink:href="#m9284e6d69a" x="374.4576" y="41.472" style="stroke: #000000; stroke-width: 0.8"/>
      </g>
     </g>
     <g id="text_33">
      <!-- 1.0 -->
      <g transform="translate(381.4576 44.872781) scale(0.1 -0.1)">
       <use xlink:href="#Calibri-31"/>
       <use xlink:href="#Calibri-2e" x="50.683594"/>
       <use xlink:href="#Calibri-30" x="75.927734"/>
      </g>
     </g>
    </g>
   </g>
   <g id="LineCollection_1"/>
   <g id="patch_8">
    <path d="M 361.152 307.584 
L 367.8048 307.584 
L 374.4576 307.584 
L 374.4576 41.472 
L 367.8048 41.472 
L 361.152 41.472 
L 361.152 307.584 
z
" style="fill: none; stroke: #000000; stroke-width: 0.8; stroke-linejoin: miter; stroke-linecap: square"/>
   </g>
   <g id="text_34">
    <!-- $\mathit{E}_{\mathrm{dis}}$/$\mathit{E}_{\mathrm{i}}$ -->
    <g transform="translate(353.2548 35.472) scale(0.1 -0.1)">
     <defs>
      <path id="DejaVuSans-Oblique-45" d="M 1081 4666 
L 4031 4666 
L 3928 4134 
L 1606 4134 
L 1338 2753 
L 3566 2753 
L 3463 2222 
L 1234 2222 
L 909 531 
L 3284 531 
L 3181 0 
L 172 0 
L 1081 4666 
z
" transform="scale(0.015625)"/>
      <path id="DejaVuSans-64" d="M 2906 2969 
L 2906 4863 
L 3481 4863 
L 3481 0 
L 2906 0 
L 2906 525 
Q 2725 213 2448 61 
Q 2172 -91 1784 -91 
Q 1150 -91 751 415 
Q 353 922 353 1747 
Q 353 2572 751 3078 
Q 1150 3584 1784 3584 
Q 2172 3584 2448 3432 
Q 2725 3281 2906 2969 
z
M 947 1747 
Q 947 1113 1208 752 
Q 1469 391 1925 391 
Q 2381 391 2643 752 
Q 2906 1113 2906 1747 
Q 2906 2381 2643 2742 
Q 2381 3103 1925 3103 
Q 1469 3103 1208 2742 
Q 947 2381 947 1747 
z
" transform="scale(0.015625)"/>
      <path id="DejaVuSans-69" d="M 603 3500 
L 1178 3500 
L 1178 0 
L 603 0 
L 603 3500 
z
M 603 4863 
L 1178 4863 
L 1178 4134 
L 603 4134 
L 603 4863 
z
" transform="scale(0.015625)"/>
      <path id="DejaVuSans-73" d="M 2834 3397 
L 2834 2853 
Q 2591 2978 2328 3040 
Q 2066 3103 1784 3103 
Q 1356 3103 1142 2972 
Q 928 2841 928 2578 
Q 928 2378 1081 2264 
Q 1234 2150 1697 2047 
L 1894 2003 
Q 2506 1872 2764 1633 
Q 3022 1394 3022 966 
Q 3022 478 2636 193 
Q 2250 -91 1575 -91 
Q 1294 -91 989 -36 
Q 684 19 347 128 
L 347 722 
Q 666 556 975 473 
Q 1284 391 1588 391 
Q 1994 391 2212 530 
Q 2431 669 2431 922 
Q 2431 1156 2273 1281 
Q 2116 1406 1581 1522 
L 1381 1569 
Q 847 1681 609 1914 
Q 372 2147 372 2553 
Q 372 3047 722 3315 
Q 1072 3584 1716 3584 
Q 2034 3584 2315 3537 
Q 2597 3491 2834 3397 
z
" transform="scale(0.015625)"/>
     </defs>
     <use xlink:href="#DejaVuSans-Oblique-45" transform="translate(0 0.09375)"/>
     <use xlink:href="#DejaVuSans-64" transform="translate(63.183594 -16.3125) scale(0.7)"/>
     <use xlink:href="#DejaVuSans-69" transform="translate(107.617188 -16.3125) scale(0.7)"/>
     <use xlink:href="#DejaVuSans-73" transform="translate(127.06543 -16.3125) scale(0.7)"/>
     <use xlink:href="#Calibri-2f" transform="translate(166.269531 0.09375)"/>
     <use xlink:href="#DejaVuSans-Oblique-45" transform="translate(204.892578 0.09375)"/>
     <use xlink:href="#DejaVuSans-69" transform="translate(268.076172 -16.3125) scale(0.7)"/>
    </g>
   </g>
  </g>
 </g>
 <defs>
  <clipPath id="pf2b7ff7227">
   <rect x="57.6" y="41.472" width="285.696" height="266.112"/>
  </clipPath>
  <clipPath id="p898129213a">
   <rect x="361.152" y="41.472" width="13.3056" height="266.112"/>
  </clipPath>
 </defs>
</svg>
