<?xml version="1.0" encoding="utf-8" standalone="no"?>
<!DOCTYPE svg PUBLIC "-//W3C//DTD SVG 1.1//EN"
  "http://www.w3.org/Graphics/SVG/1.1/DTD/svg11.dtd">
<svg xmlns:xlink="http://www.w3.org/1999/xlink" width="460.8pt" height="345.6pt" viewBox="0 0 460.8 345.6" xmlns="http://www.w3.org/2000/svg" version="1.1">
 <metadata>
  <rdf:RDF xmlns:dc="http://purl.org/dc/elements/1.1/" xmlns:cc="http://creativecommons.org/ns#" xmlns:rdf="http://www.w3.org/1999/02/22-rdf-syntax-ns#">
   <cc:Work>
    <dc:type rdf:resource="http://purl.org/dc/dcmitype/StillImage"/>
    <dc:date>2024-01-22T08:49:03.201628</dc:date>
    <dc:format>image/svg+xml</dc:format>
    <dc:creator>
     <cc:Agent>
      <dc:title>Matplotlib v3.7.1, https://matplotlib.org/</dc:title>
     </cc:Agent>
    </dc:creator>
   </cc:Work>
  </rdf:RDF>
 </metadata>
 <defs>
  <style type="text/css">*{stroke-linejoin: round; stroke-linecap: butt}</style>
 </defs>
 <g id="figure_1">
  <g id="patch_1">
   <path d="M 0 345.6 
L 460.8 345.6 
L 460.8 0 
L 0 0 
z
" style="fill: #ffffff"/>
  </g>
  <g id="axes_1">
   <g id="patch_2">
    <path d="M 57.6 307.584 
L 343.296 307.584 
L 343.296 41.472 
L 57.6 41.472 
z
" style="fill: #ffffff"/>
   </g>
   <g id="PathCollection_1">
    <path clip-path="url(#p1e36b1161d)" style="fill: #0000b6"/>
   </g>
   <g id="PathCollection_2">
    <path clip-path="url(#p1e36b1161d)" style="fill: #0018ff"/>
   </g>
   <g id="PathCollection_3">
    <path d="M 57.62857 88.901108 
L 57.914428 88.665654 
L 58.648159 88.0416 
L 58.90707 87.819863 
L 59.778408 87.06732 
L 60.100687 86.785655 
L 60.320231 86.590229 
L 60.930202 86.054989 
L 62.03817 85.067846 
L 62.268283 84.864912 
L 62.434962 84.7152 
L 63.533452 83.713999 
L 63.994261 83.287735 
L 64.416716 82.902333 
L 64.997319 82.36308 
L 65.648007 81.7513 
L 66.032177 81.3888 
L 66.867048 80.587654 
L 67.04847 80.41452 
L 67.190914 80.276367 
L 67.353803 80.116142 
L 68.654452 78.84809 
L 69.446585 78.0624 
L 69.758651 77.748203 
L 69.906518 77.597271 
L 70.742831 76.754409 
L 71.761557 75.71028 
L 72.067828 75.392362 
L 72.263075 75.191537 
L 72.698433 74.736 
L 73.477088 73.911027 
L 73.61765 73.76172 
L 74.856331 72.428949 
L 75.7885 71.4096 
L 75.891428 71.295309 
L 75.946564 71.233303 
L 76.880524 70.195144 
L 77.887917 69.05748 
L 78.164392 68.741113 
L 78.347528 68.533596 
L 78.738306 68.0832 
L 79.259639 67.477558 
L 79.500158 67.19332 
L 79.572295 67.10892 
L 80.861477 65.58032 
L 81.5455 64.7568 
L 81.920864 64.297757 
L 82.148506 64.016068 
L 82.817305 63.19727 
L 83.455106 62.40468 
L 83.937309 61.797202 
L 84.228209 61.4304 
L 84.663387 60.870701 
L 84.988161 60.45612 
L 85.400231 59.92149 
L 86.268267 58.78257 
L 86.657342 58.274814 
L 86.786361 58.104 
L 87.835118 56.693144 
L 88.527198 55.75188 
L 89.012311 55.081363 
L 89.233831 54.7776 
L 89.336766 54.634299 
L 89.387933 54.561852 
L 89.929814 53.80332 
L 90.398861 53.137286 
L 90.992424 52.282929 
L 91.240827 51.928668 
L 91.572155 51.4512 
L 92.231543 50.485394 
L 93.165537 49.09908 
L 93.385308 48.76806 
L 93.812802 48.1248 
L 94.279182 47.411553 
L 94.447011 47.15052 
L 94.599196 46.914687 
L 95.138538 46.070774 
L 95.818503 45.01045 
L 95.952756 44.7984 
L 96.943278 43.207759 
L 97.413016 42.44628 
L 97.571951 42.185585 
L 98.005787 41.472 
L 97.245082 41.472 
L 95.72137 41.472 
L 94.197658 41.472 
L 92.673946 41.472 
L 91.150234 41.472 
L 89.626522 41.472 
L 88.10281 41.472 
L 86.579098 41.472 
L 85.055386 41.472 
L 83.531674 41.472 
L 82.007962 41.472 
L 80.48425 41.472 
L 78.960538 41.472 
L 77.436826 41.472 
L 75.913114 41.472 
L 74.389402 41.472 
L 72.86569 41.472 
L 71.341978 41.472 
L 69.818266 41.472 
L 68.294554 41.472 
L 66.770842 41.472 
L 65.24713 41.472 
L 63.723418 41.472 
L 62.199706 41.472 
L 60.675994 41.472 
L 59.152282 41.472 
L 57.62857 41.472 
L 57.62857 44.7984 
L 57.62857 48.1248 
L 57.62857 51.4512 
L 57.62857 54.7776 
L 57.62857 58.104 
L 57.62857 61.4304 
L 57.62857 64.7568 
L 57.62857 68.0832 
L 57.62857 71.4096 
L 57.62857 74.736 
L 57.62857 78.0624 
L 57.62857 81.3888 
L 57.62857 84.7152 
L 57.62857 88.0416 
" clip-path="url(#p1e36b1161d)" style="fill: #0080ff"/>
   </g>
   <g id="PathCollection_4">
    <path d="M 98.005787 41.472 
L 97.571951 42.185585 
L 97.413016 42.44628 
L 96.943278 43.207759 
L 95.952756 44.7984 
L 95.818503 45.01045 
L 95.138538 46.070774 
L 94.599196 46.914687 
L 94.447011 47.15052 
L 94.279182 47.411553 
L 93.812802 48.1248 
L 93.385308 48.76806 
L 93.165537 49.09908 
L 92.231543 50.485394 
L 91.572155 51.4512 
L 91.240827 51.928668 
L 90.992424 52.282929 
L 90.398861 53.137286 
L 89.929814 53.80332 
L 89.387933 54.561852 
L 89.336766 54.634299 
L 89.233831 54.7776 
L 89.012311 55.081363 
L 88.527198 55.75188 
L 87.835118 56.693144 
L 86.786361 58.104 
L 86.657342 58.274814 
L 86.268267 58.78257 
L 85.400231 59.92149 
L 84.988161 60.45612 
L 84.663387 60.870701 
L 84.228209 61.4304 
L 83.937309 61.797202 
L 83.455106 62.40468 
L 82.817305 63.19727 
L 82.148506 64.016068 
L 81.920864 64.297757 
L 81.5455 64.7568 
L 80.861477 65.58032 
L 79.572295 67.10892 
L 79.500158 67.19332 
L 79.259639 67.477558 
L 78.738306 68.0832 
L 78.347528 68.533596 
L 78.164392 68.741113 
L 77.887917 69.05748 
L 76.880524 70.195144 
L 75.946564 71.233303 
L 75.891428 71.295309 
L 75.7885 71.4096 
L 74.856331 72.428949 
L 73.61765 73.76172 
L 73.477088 73.911027 
L 72.698433 74.736 
L 72.263075 75.191537 
L 72.067828 75.392362 
L 71.761557 75.71028 
L 70.742831 76.754409 
L 69.906518 77.597271 
L 69.758651 77.748203 
L 69.446585 78.0624 
L 68.654452 78.84809 
L 67.353803 80.116142 
L 67.190914 80.276367 
L 67.04847 80.41452 
L 66.867048 80.587654 
L 66.032177 81.3888 
L 65.648007 81.7513 
L 64.997319 82.36308 
L 64.416716 82.902333 
L 63.994261 83.287735 
L 63.533452 83.713999 
L 62.434962 84.7152 
L 62.268283 84.864912 
L 62.03817 85.067846 
L 60.930202 86.054989 
L 60.320231 86.590229 
L 60.100687 86.785655 
L 59.778408 87.06732 
L 58.90707 87.819863 
L 58.648159 88.0416 
L 57.914428 88.665654 
L 57.62857 88.901108 
L 57.62857 91.368 
L 57.62857 94.6944 
L 57.62857 98.0208 
L 57.62857 101.3472 
L 57.62857 104.6736 
L 57.62857 108 
L 57.62857 111.3264 
L 57.62857 114.6528 
L 57.62857 117.9792 
L 57.62857 121.3056 
L 57.62857 124.632 
L 57.62857 127.9584 
L 57.62857 131.2848 
L 57.62857 132.016149 
L 57.756859 131.960943 
L 59.130328 131.332727 
L 59.166776 131.316442 
L 59.235437 131.2848 
L 60.558832 130.667306 
L 60.816596 130.54376 
L 61.676349 130.142266 
L 63.019014 129.496177 
L 63.354129 129.338483 
L 64.167283 128.945432 
L 64.174078 128.942232 
L 64.19376 128.93268 
L 65.575612 128.255436 
L 66.175387 127.9584 
L 67.538394 127.274631 
L 68.111574 126.98412 
L 69.132558 126.461439 
L 69.508745 126.263309 
L 70.072774 125.973371 
L 70.935983 125.518323 
L 71.592626 125.179188 
L 72.622441 124.632 
L 72.843147 124.513191 
L 72.893502 124.485416 
L 74.039421 123.867961 
L 74.977354 123.348446 
L 75.6049 123.007577 
L 76.294108 122.623991 
L 76.472576 122.526956 
L 76.914637 122.27988 
L 77.899282 121.723784 
L 78.632944 121.3056 
L 79.762402 120.652858 
L 80.313757 120.33132 
L 81.296388 119.752171 
L 81.720218 119.495739 
L 82.237596 119.189477 
L 83.261292 118.569467 
L 83.686248 118.316649 
L 84.238781 117.9792 
L 84.969545 117.526783 
L 85.164659 117.40328 
L 86.06086 116.847842 
L 87.523209 115.91812 
L 87.691757 115.81277 
L 87.982329 115.62708 
L 89.020501 114.952513 
L 89.483041 114.6528 
L 89.544816 114.612392 
L 89.566112 114.598174 
L 90.018567 114.298287 
L 90.848584 113.750051 
L 90.954682 113.67852 
L 91.523818 113.295355 
L 91.886126 113.046282 
L 93.088877 112.232233 
L 94.167741 111.484073 
L 94.220737 111.44804 
L 94.39594 111.3264 
L 95.398119 110.620716 
L 96.363437 109.924709 
L 96.905997 109.539272 
L 97.685361 108.97428 
L 97.687799 108.972516 
L 97.717893 108.950293 
L 98.876061 108.096999 
L 98.911917 108.070783 
L 99.006803 108 
L 100.123563 107.162882 
L 100.302892 107.02572 
L 100.683632 106.735013 
L 100.976288 106.507242 
L 102.21905 105.553019 
L 103.338773 104.6736 
L 103.339778 104.6728 
L 103.33993 104.672673 
L 103.33993 101.3472 
L 103.33993 98.0208 
L 103.33993 94.6944 
L 103.33993 91.368 
L 103.33993 88.0416 
L 103.33993 84.7152 
L 103.33993 81.3888 
L 103.33993 78.0624 
L 103.33993 74.736 
L 103.33993 71.4096 
L 103.33993 68.0832 
L 103.33993 64.7568 
L 103.33993 61.4304 
L 103.33993 58.104 
L 103.33993 54.7776 
L 103.33993 51.4512 
L 103.33993 48.1248 
L 103.33993 44.7984 
L 103.33993 41.472 
L 101.816218 41.472 
L 100.292506 41.472 
L 98.768794 41.472 
" clip-path="url(#p1e36b1161d)" style="fill: #00e4f8"/>
   </g>
   <g id="PathCollection_5">
    <path d="M 103.33993 104.672673 
L 103.339778 104.6728 
L 103.338773 104.6736 
L 102.21905 105.553019 
L 100.976288 106.507242 
L 100.683632 106.735013 
L 100.302892 107.02572 
L 100.123563 107.162882 
L 99.006803 108 
L 98.911917 108.070783 
L 98.876061 108.096999 
L 97.717893 108.950293 
L 97.687799 108.972516 
L 97.685361 108.97428 
L 96.905997 109.539272 
L 96.363437 109.924709 
L 95.398119 110.620716 
L 94.39594 111.3264 
L 94.220737 111.44804 
L 94.167741 111.484073 
L 93.088877 112.232233 
L 91.886126 113.046282 
L 91.523818 113.295355 
L 90.954682 113.67852 
L 90.848584 113.750051 
L 90.018567 114.298287 
L 89.566112 114.598174 
L 89.544816 114.612392 
L 89.483041 114.6528 
L 89.020501 114.952513 
L 87.982329 115.62708 
L 87.691757 115.81277 
L 87.523209 115.91812 
L 86.06086 116.847842 
L 85.164659 117.40328 
L 84.969545 117.526783 
L 84.238781 117.9792 
L 83.686248 118.316649 
L 83.261292 118.569467 
L 82.237596 119.189477 
L 81.720218 119.495739 
L 81.296388 119.752171 
L 80.313757 120.33132 
L 79.762402 120.652858 
L 78.632944 121.3056 
L 77.899282 121.723784 
L 76.914637 122.27988 
L 76.472576 122.526956 
L 76.294108 122.623991 
L 75.6049 123.007577 
L 74.977354 123.348446 
L 74.039421 123.867961 
L 72.893502 124.485416 
L 72.843147 124.513191 
L 72.622441 124.632 
L 71.592626 125.179188 
L 70.935983 125.518323 
L 70.072774 125.973371 
L 69.508745 126.263309 
L 69.132558 126.461439 
L 68.111574 126.98412 
L 67.538394 127.274631 
L 66.175387 127.9584 
L 65.575612 128.255436 
L 64.19376 128.93268 
L 64.174078 128.942232 
L 64.167283 128.945432 
L 63.354129 129.338483 
L 63.019014 129.496177 
L 61.676349 130.142266 
L 60.816596 130.54376 
L 60.558832 130.667306 
L 59.235437 131.2848 
L 59.166776 131.316442 
L 59.130328 131.332727 
L 57.756859 131.960943 
L 57.62857 132.016149 
L 57.62857 134.6112 
L 57.62857 137.9376 
L 57.62857 141.264 
L 57.62857 144.5904 
L 57.62857 147.9168 
L 57.62857 151.2432 
L 57.62857 154.5696 
L 57.62857 157.896 
L 57.62857 161.2224 
L 57.62857 164.5488 
L 57.62857 167.27365 
L 57.933485 167.209543 
L 58.323268 167.125552 
L 59.3401 166.90092 
L 60.147395 166.721222 
L 60.269237 166.692588 
L 61.049672 166.518251 
L 61.327489 166.452927 
L 62.909433 166.098198 
L 63.453897 165.969293 
L 63.970864 165.852953 
L 64.732373 165.672559 
L 65.66534 165.461791 
L 66.641808 165.228865 
L 66.889231 165.172765 
L 68.146157 164.872762 
L 68.414926 164.811584 
L 69.508225 164.5488 
L 69.804605 164.476803 
L 69.833315 164.469481 
L 71.158133 164.147451 
L 71.574666 164.040821 
L 72.716278 163.761332 
L 73.030422 163.680586 
L 73.894713 163.46885 
L 75.016697 163.179359 
L 75.624808 163.029302 
L 76.231229 162.87219 
L 76.62436 162.775116 
L 78.469059 162.295342 
L 78.530092 162.28016 
L 78.849736 162.19668 
L 79.637905 161.98772 
L 80.947665 161.64145 
L 82.501467 161.2224 
L 83.16669 161.041894 
L 83.293016 161.00659 
L 83.982228 160.814979 
L 84.831671 160.579474 
L 85.626457 160.36096 
L 86.028938 160.24812 
L 87.469879 159.840656 
L 87.749576 159.757698 
L 88.419928 159.567355 
L 88.930335 159.415839 
L 90.161819 159.064602 
L 90.974646 158.821427 
L 91.307721 158.726031 
L 92.45048 158.383846 
L 92.84537 158.270234 
L 94.085362 157.896 
L 94.191508 157.863587 
L 94.204599 157.859416 
L 95.520388 157.45724 
L 95.991381 157.306542 
L 97.070172 156.974148 
L 97.442714 156.854391 
L 98.186578 156.624971 
L 99.553112 156.183764 
L 99.944538 156.062057 
L 100.686118 155.821487 
L 100.843513 155.772499 
L 101.545138 155.54388 
L 102.53403 155.218692 
L 103.134972 155.017042 
L 103.33993 154.947057 
L 103.33993 154.5696 
L 103.33993 151.2432 
L 103.33993 147.9168 
L 103.33993 144.5904 
L 103.33993 141.264 
L 103.33993 137.9376 
L 103.33993 134.6112 
L 103.33993 131.2848 
L 103.33993 127.9584 
L 103.33993 124.632 
L 103.33993 121.3056 
L 103.33993 117.9792 
L 103.33993 114.6528 
L 103.33993 111.3264 
L 103.33993 108 
L 103.33993 104.6736 
" clip-path="url(#p1e36b1161d)" style="fill: #53ffa4"/>
   </g>
   <g id="PathCollection_6">
    <path d="M 103.33993 154.947057 
L 103.134972 155.017042 
L 102.53403 155.218692 
L 101.545138 155.54388 
L 100.843513 155.772499 
L 100.686118 155.821487 
L 99.944538 156.062057 
L 99.553112 156.183764 
L 98.186578 156.624971 
L 97.442714 156.854391 
L 97.070172 156.974148 
L 95.991381 157.306542 
L 95.520388 157.45724 
L 94.204599 157.859416 
L 94.191508 157.863587 
L 94.085362 157.896 
L 92.84537 158.270234 
L 92.45048 158.383846 
L 91.307721 158.726031 
L 90.974646 158.821427 
L 90.161819 159.064602 
L 88.930335 159.415839 
L 88.419928 159.567355 
L 87.749576 159.757698 
L 87.469879 159.840656 
L 86.028938 160.24812 
L 85.626457 160.36096 
L 84.831671 160.579474 
L 83.982228 160.814979 
L 83.293016 161.00659 
L 83.16669 161.041894 
L 82.501467 161.2224 
L 80.947665 161.64145 
L 79.637905 161.98772 
L 78.849736 162.19668 
L 78.530092 162.28016 
L 78.469059 162.295342 
L 76.62436 162.775116 
L 76.231229 162.87219 
L 75.624808 163.029302 
L 75.016697 163.179359 
L 73.894713 163.46885 
L 73.030422 163.680586 
L 72.716278 163.761332 
L 71.574666 164.040821 
L 71.158133 164.147451 
L 69.833315 164.469481 
L 69.804605 164.476803 
L 69.508225 164.5488 
L 68.414926 164.811584 
L 68.146157 164.872762 
L 66.889231 165.172765 
L 66.641808 165.228865 
L 65.66534 165.461791 
L 64.732373 165.672559 
L 63.970864 165.852953 
L 63.453897 165.969293 
L 62.909433 166.098198 
L 61.327489 166.452927 
L 61.049672 166.518251 
L 60.269237 166.692588 
L 60.147395 166.721222 
L 59.3401 166.90092 
L 58.323268 167.125552 
L 57.933485 167.209543 
L 57.62857 167.27365 
L 57.62857 167.8752 
L 57.62857 171.2016 
L 57.62857 174.528 
L 57.62857 177.8544 
L 57.62857 181.1808 
L 57.62857 184.5072 
L 57.62857 187.8336 
L 57.62857 191.16 
L 57.62857 194.4864 
L 57.62857 197.8128 
L 57.62857 197.949392 
L 57.65429 197.948356 
L 59.129829 197.861816 
L 59.173763 197.859696 
L 59.97016 197.8128 
L 60.668137 197.771391 
L 60.684062 197.770277 
L 62.140705 197.683996 
L 62.262618 197.675456 
L 63.681348 197.591072 
L 63.766623 197.585088 
L 65.106379 197.50553 
L 65.397246 197.485083 
L 66.69399 197.407757 
L 66.849775 197.396786 
L 68.070696 197.324099 
L 68.533361 197.291462 
L 69.706046 197.221352 
L 69.933536 197.205275 
L 71.033613 197.139613 
L 71.671012 197.094489 
L 72.717497 197.031759 
L 73.017925 197.010451 
L 73.995086 196.951973 
L 74.810247 196.894056 
L 75.728324 196.838877 
L 76.102963 196.812209 
L 76.955068 196.761079 
L 77.951119 196.690051 
L 78.738507 196.642599 
L 79.188671 196.610437 
L 79.913511 196.566827 
L 81.093681 196.482356 
L 81.748024 196.442815 
L 82.27507 196.405018 
L 82.870365 196.369105 
L 84.23799 196.270848 
L 84.756854 196.239406 
L 85.362185 196.195831 
L 85.825577 196.167798 
L 87.384105 196.055396 
L 87.764973 196.032252 
L 88.450039 195.982747 
L 88.779092 195.962785 
L 90.532088 195.835867 
L 90.772357 195.821225 
L 91.538658 195.765632 
L 91.730851 195.753939 
L 93.682005 195.612116 
L 93.778981 195.606189 
L 94.628068 195.544345 
L 94.680793 195.541128 
L 95.783142 195.46068 
L 96.722484 195.391673 
L 96.978965 195.371576 
L 97.862346 195.306069 
L 99.538501 195.182419 
L 100.093823 195.141705 
L 101.187139 195.055254 
L 102.350026 194.969105 
L 103.147803 194.90583 
L 103.33993 194.889667 
L 103.33993 194.4864 
L 103.33993 191.16 
L 103.33993 187.8336 
L 103.33993 184.5072 
L 103.33993 181.1808 
L 103.33993 177.8544 
L 103.33993 174.528 
L 103.33993 171.2016 
L 103.33993 167.8752 
L 103.33993 164.5488 
L 103.33993 161.2224 
L 103.33993 157.896 
" clip-path="url(#p1e36b1161d)" style="fill: #a4ff53"/>
   </g>
   <g id="PathCollection_7">
    <path d="M 103.33993 194.889667 
L 103.147803 194.90583 
L 102.350026 194.969105 
L 101.187139 195.055254 
L 100.093823 195.141705 
L 99.538501 195.182419 
L 97.862346 195.306069 
L 96.978965 195.371576 
L 96.722484 195.391673 
L 95.783142 195.46068 
L 94.680793 195.541128 
L 94.628068 195.544345 
L 93.778981 195.606189 
L 93.682005 195.612116 
L 91.730851 195.753939 
L 91.538658 195.765632 
L 90.772357 195.821225 
L 90.532088 195.835867 
L 88.779092 195.962785 
L 88.450039 195.982747 
L 87.764973 196.032252 
L 87.384105 196.055396 
L 85.825577 196.167798 
L 85.362185 196.195831 
L 84.756854 196.239406 
L 84.23799 196.270848 
L 82.870365 196.369105 
L 82.27507 196.405018 
L 81.748024 196.442815 
L 81.093681 196.482356 
L 79.913511 196.566827 
L 79.188671 196.610437 
L 78.738507 196.642599 
L 77.951119 196.690051 
L 76.955068 196.761079 
L 76.102963 196.812209 
L 75.728324 196.838877 
L 74.810247 196.894056 
L 73.995086 196.951973 
L 73.017925 197.010451 
L 72.717497 197.031759 
L 71.671012 197.094489 
L 71.033613 197.139613 
L 69.933536 197.205275 
L 69.706046 197.221352 
L 68.533361 197.291462 
L 68.070696 197.324099 
L 66.849775 197.396786 
L 66.69399 197.407757 
L 65.397246 197.485083 
L 65.106379 197.50553 
L 63.766623 197.585088 
L 63.681348 197.591072 
L 62.262618 197.675456 
L 62.140705 197.683996 
L 60.684062 197.770277 
L 60.668137 197.771391 
L 59.97016 197.8128 
L 59.173763 197.859696 
L 59.129829 197.861816 
L 57.65429 197.948356 
L 57.62857 197.949392 
L 57.62857 201.1392 
L 57.62857 204.4656 
L 57.62857 207.792 
L 57.62857 211.1184 
L 57.62857 214.4448 
L 57.62857 217.7712 
L 57.62857 221.0976 
L 57.62857 224.424 
L 57.62857 225.950296 
L 57.921909 225.970027 
L 58.431517 225.997494 
L 59.916187 226.091673 
L 60.355041 226.115565 
L 61.004823 226.157079 
L 61.396035 226.178485 
L 63.052194 226.285059 
L 63.367004 226.30246 
L 64.088707 226.349237 
L 64.35838 226.36422 
L 66.190674 226.483842 
L 66.378018 226.494357 
L 67.173592 226.546675 
L 67.318484 226.554849 
L 69.331712 226.688209 
L 69.388051 226.69142 
L 70.259513 226.749571 
L 70.276272 226.750531 
L 70.656949 226.77612 
L 72.297838 226.886049 
L 72.995129 226.932819 
L 73.527404 226.970925 
L 75.130854 227.079931 
L 75.670785 227.11668 
L 76.829051 227.200811 
L 77.958431 227.27873 
L 78.337587 227.30492 
L 80.138381 227.437643 
L 80.780399 227.482602 
L 83.382197 227.676475 
L 83.455694 227.681694 
L 83.596578 227.691709 
L 83.643583 227.695054 
L 84.372647 227.7504 
L 86.408575 227.904597 
L 86.782858 227.934653 
L 86.98441 227.950851 
L 89.215202 228.122342 
L 90.119323 228.196023 
L 91.54828 228.307108 
L 92.015593 228.345726 
L 93.464866 228.465602 
L 94.163707 228.520756 
L 94.809542 228.574934 
L 96.592977 228.72468 
L 96.791204 228.741256 
L 96.802137 228.742288 
L 97.674087 228.815751 
L 97.73576 228.821595 
L 99.724496 228.990415 
L 99.899825 229.007198 
L 100.672644 229.0733 
L 100.908888 229.096017 
L 102.654628 229.246475 
L 102.998996 229.27993 
L 103.33993 229.307283 
L 103.33993 227.7504 
L 103.33993 224.424 
L 103.33993 221.0976 
L 103.33993 217.7712 
L 103.33993 214.4448 
L 103.33993 211.1184 
L 103.33993 207.792 
L 103.33993 204.4656 
L 103.33993 201.1392 
L 103.33993 197.8128 
" clip-path="url(#p1e36b1161d)" style="fill: #f8f500"/>
   </g>
   <g id="PathCollection_8">
    <path d="M 103.33993 229.307283 
L 102.998996 229.27993 
L 102.654628 229.246475 
L 100.908888 229.096017 
L 100.672644 229.0733 
L 99.899825 229.007198 
L 99.724496 228.990415 
L 97.73576 228.821595 
L 97.674087 228.815751 
L 96.802137 228.742288 
L 96.791204 228.741256 
L 96.592977 228.72468 
L 94.809542 228.574934 
L 94.163707 228.520756 
L 93.464866 228.465602 
L 92.015593 228.345726 
L 91.54828 228.307108 
L 90.119323 228.196023 
L 89.215202 228.122342 
L 86.98441 227.950851 
L 86.782858 227.934653 
L 86.408575 227.904597 
L 84.372647 227.7504 
L 83.643583 227.695054 
L 83.596578 227.691709 
L 83.455694 227.681694 
L 83.382197 227.676475 
L 80.780399 227.482602 
L 80.138381 227.437643 
L 78.337587 227.30492 
L 77.958431 227.27873 
L 76.829051 227.200811 
L 75.670785 227.11668 
L 75.130854 227.079931 
L 73.527404 226.970925 
L 72.995129 226.932819 
L 72.297838 226.886049 
L 70.656949 226.77612 
L 70.276272 226.750531 
L 70.259513 226.749571 
L 69.388051 226.69142 
L 69.331712 226.688209 
L 67.318484 226.554849 
L 67.173592 226.546675 
L 66.378018 226.494357 
L 66.190674 226.483842 
L 64.35838 226.36422 
L 64.088707 226.349237 
L 63.367004 226.30246 
L 63.052194 226.285059 
L 61.396035 226.178485 
L 61.004823 226.157079 
L 60.355041 226.115565 
L 59.916187 226.091673 
L 58.431517 225.997494 
L 57.921909 225.970027 
L 57.62857 225.950296 
L 57.62857 227.7504 
L 57.62857 231.0768 
L 57.62857 234.4032 
L 57.62857 237.7296 
L 57.62857 241.056 
L 57.62857 244.3824 
L 57.62857 247.7088 
L 57.62857 251.0352 
L 57.62857 252.697993 
L 57.953606 252.748288 
L 58.341302 252.805641 
L 60.088091 253.078155 
L 60.282862 253.107177 
L 61.093239 253.234266 
L 61.186033 253.248137 
L 62.068853 253.38732 
L 63.097742 253.549537 
L 63.661807 253.638504 
L 64.618766 253.793392 
L 65.687241 253.963622 
L 68.127298 254.3616 
L 68.268935 254.384766 
L 68.331808 254.395288 
L 68.378463 254.403098 
L 70.845166 254.81085 
L 72.067421 255.017594 
L 72.812125 255.141656 
L 73.413162 255.24438 
L 73.948288 255.33588 
L 75.356558 255.576612 
L 75.517996 255.605556 
L 76.283276 255.737079 
L 76.566514 255.788032 
L 78.179471 256.066738 
L 78.669786 256.15561 
L 79.232732 256.253414 
L 79.881132 256.371341 
L 80.997998 256.566441 
L 81.823879 256.7178 
L 82.18017 256.780383 
L 83.202003 256.9683 
L 83.811992 257.076039 
L 84.980359 257.292574 
L 85.125521 257.318357 
L 86.529371 257.579442 
L 86.621303 257.595862 
L 87.112855 257.688 
L 88.068846 257.867004 
L 88.139391 257.880798 
L 89.427356 258.122796 
L 89.865119 258.208879 
L 91.01026 258.425721 
L 91.301121 258.483243 
L 92.228914 258.659543 
L 93.208202 258.85433 
L 93.949426 258.996292 
L 94.465478 259.099531 
L 95.02549 259.207167 
L 96.558558 259.515657 
L 96.88626 259.579148 
L 97.632563 259.730201 
L 97.816911 259.766046 
L 99.163047 260.04012 
L 99.720792 260.153541 
L 100.332384 260.280557 
L 101.202618 260.459543 
L 102.202343 260.66524 
L 103.284092 260.892501 
L 103.33993 260.903947 
L 103.33993 257.688 
L 103.33993 254.3616 
L 103.33993 251.0352 
L 103.33993 247.7088 
L 103.33993 244.3824 
L 103.33993 241.056 
L 103.33993 237.7296 
L 103.33993 234.4032 
L 103.33993 231.0768 
" clip-path="url(#p1e36b1161d)" style="fill: #ff9400"/>
   </g>
   <g id="PathCollection_9">
    <path d="M 103.33993 260.903947 
L 103.284092 260.892501 
L 102.202343 260.66524 
L 101.202618 260.459543 
L 100.332384 260.280557 
L 99.720792 260.153541 
L 99.163047 260.04012 
L 97.816911 259.766046 
L 97.632563 259.730201 
L 96.88626 259.579148 
L 96.558558 259.515657 
L 95.02549 259.207167 
L 94.465478 259.099531 
L 93.949426 258.996292 
L 93.208202 258.85433 
L 92.228914 258.659543 
L 91.301121 258.483243 
L 91.01026 258.425721 
L 89.865119 258.208879 
L 89.427356 258.122796 
L 88.139391 257.880798 
L 88.068846 257.867004 
L 87.112855 257.688 
L 86.621303 257.595862 
L 86.529371 257.579442 
L 85.125521 257.318357 
L 84.980359 257.292574 
L 83.811992 257.076039 
L 83.202003 256.9683 
L 82.18017 256.780383 
L 81.823879 256.7178 
L 80.997998 256.566441 
L 79.881132 256.371341 
L 79.232732 256.253414 
L 78.669786 256.15561 
L 78.179471 256.066738 
L 76.566514 255.788032 
L 76.283276 255.737079 
L 75.517996 255.605556 
L 75.356558 255.576612 
L 73.948288 255.33588 
L 73.413162 255.24438 
L 72.812125 255.141656 
L 72.067421 255.017594 
L 70.845166 254.81085 
L 68.378463 254.403098 
L 68.331808 254.395288 
L 68.268935 254.384766 
L 68.127298 254.3616 
L 65.687241 253.963622 
L 64.618766 253.793392 
L 63.661807 253.638504 
L 63.097742 253.549537 
L 62.068853 253.38732 
L 61.186033 253.248137 
L 61.093239 253.234266 
L 60.282862 253.107177 
L 60.088091 253.078155 
L 58.341302 252.805641 
L 57.953606 252.748288 
L 57.62857 252.697993 
L 57.62857 254.3616 
L 57.62857 257.688 
L 57.62857 261.0144 
L 57.62857 264.3408 
L 57.62857 267.6672 
L 57.62857 270.9936 
L 57.62857 274.32 
L 57.62857 277.6464 
L 57.62857 279.617477 
L 58.01932 279.705831 
L 58.19097 279.74503 
L 59.273737 279.99852 
L 60.032414 280.176927 
L 61.108553 280.43316 
L 61.778571 280.591983 
L 62.445777 280.750286 
L 63.371862 280.9728 
L 64.852182 281.329937 
L 65.934422 281.594295 
L 66.67434 281.774091 
L 67.25138 281.916106 
L 67.377017 281.94708 
L 69.168778 282.390689 
L 69.470655 282.467137 
L 70.134546 282.632261 
L 70.636876 282.759901 
L 71.902258 283.076058 
L 72.670896 283.272552 
L 73.042772 283.365899 
L 74.084261 283.63305 
L 74.631347 283.771011 
L 75.873736 284.091663 
L 75.948879 284.110702 
L 76.676721 284.2992 
L 77.355799 284.476088 
L 77.540359 284.525223 
L 78.852416 284.869048 
L 79.080221 284.929986 
L 80.075441 285.191665 
L 81.007875 285.442321 
L 81.753636 285.63961 
L 82.289765 285.784431 
L 82.790458 285.91734 
L 84.483415 286.376937 
L 84.652588 286.422124 
L 85.492711 286.65132 
L 85.505583 286.654857 
L 87.151758 287.107763 
L 87.45636 287.191742 
L 89.01122 287.6256 
L 89.40464 287.735334 
L 89.481259 287.756956 
L 89.90401 287.876523 
L 90.44181 288.028808 
L 91.80314 288.413039 
L 92.457105 288.59988 
L 93.601148 288.927834 
L 93.826089 288.993669 
L 94.530708 289.196679 
L 94.977432 289.327917 
L 96.291078 289.708275 
L 97.051782 289.933227 
L 97.41815 290.039852 
L 98.497771 290.360333 
L 98.975771 290.500149 
L 100.280766 290.890129 
L 100.303004 290.896668 
L 100.487449 290.952 
L 101.655041 291.303862 
L 102.030249 291.41925 
L 103.184825 291.769473 
L 103.33993 291.81826 
L 103.33993 290.952 
L 103.33993 287.6256 
L 103.33993 284.2992 
L 103.33993 280.9728 
L 103.33993 277.6464 
L 103.33993 274.32 
L 103.33993 270.9936 
L 103.33993 267.6672 
L 103.33993 264.3408 
L 103.33993 261.0144 
" clip-path="url(#p1e36b1161d)" style="fill: #ff3800"/>
   </g>
   <g id="PathCollection_10">
    <path d="M 103.33993 291.81826 
L 103.184825 291.769473 
L 102.030249 291.41925 
L 101.655041 291.303862 
L 100.487449 290.952 
L 100.303004 290.896668 
L 100.280766 290.890129 
L 98.975771 290.500149 
L 98.497771 290.360333 
L 97.41815 290.039852 
L 97.051782 289.933227 
L 96.291078 289.708275 
L 94.977432 289.327917 
L 94.530708 289.196679 
L 93.826089 288.993669 
L 93.601148 288.927834 
L 92.457105 288.59988 
L 91.80314 288.413039 
L 90.44181 288.028808 
L 89.90401 287.876523 
L 89.481259 287.756956 
L 89.40464 287.735334 
L 89.01122 287.6256 
L 87.45636 287.191742 
L 87.151758 287.107763 
L 85.505583 286.654857 
L 85.492711 286.65132 
L 84.652588 286.422124 
L 84.483415 286.376937 
L 82.790458 285.91734 
L 82.289765 285.784431 
L 81.753636 285.63961 
L 81.007875 285.442321 
L 80.075441 285.191665 
L 79.080221 284.929986 
L 78.852416 284.869048 
L 77.540359 284.525223 
L 77.355799 284.476088 
L 76.676721 284.2992 
L 75.948879 284.110702 
L 75.873736 284.091663 
L 74.631347 283.771011 
L 74.084261 283.63305 
L 73.042772 283.365899 
L 72.670896 283.272552 
L 71.902258 283.076058 
L 70.636876 282.759901 
L 70.134546 282.632261 
L 69.470655 282.467137 
L 69.168778 282.390689 
L 67.377017 281.94708 
L 67.25138 281.916106 
L 66.67434 281.774091 
L 65.934422 281.594295 
L 64.852182 281.329937 
L 63.371862 280.9728 
L 62.445777 280.750286 
L 61.778571 280.591983 
L 61.108553 280.43316 
L 60.032414 280.176927 
L 59.273737 279.99852 
L 58.19097 279.74503 
L 58.01932 279.705831 
L 57.62857 279.617477 
L 57.62857 280.9728 
L 57.62857 284.2992 
L 57.62857 287.6256 
L 57.62857 290.952 
L 57.62857 294.2784 
L 57.62857 297.6048 
L 57.62857 300.9312 
L 57.62857 304.2576 
L 57.62857 307.584 
L 59.152282 307.584 
L 60.675994 307.584 
L 62.199706 307.584 
L 63.723418 307.584 
L 65.24713 307.584 
L 66.770842 307.584 
L 68.294554 307.584 
L 69.818266 307.584 
L 71.341978 307.584 
L 72.86569 307.584 
L 74.389402 307.584 
L 75.913114 307.584 
L 77.436826 307.584 
L 78.960538 307.584 
L 80.48425 307.584 
L 82.007962 307.584 
L 83.531674 307.584 
L 85.055386 307.584 
L 86.579098 307.584 
L 88.10281 307.584 
L 89.626522 307.584 
L 91.150234 307.584 
L 92.673946 307.584 
L 94.197658 307.584 
L 95.72137 307.584 
L 97.245082 307.584 
L 98.768794 307.584 
L 100.292506 307.584 
L 101.816218 307.584 
L 103.33993 307.584 
L 103.33993 304.2576 
L 103.33993 300.9312 
L 103.33993 297.6048 
L 103.33993 294.2784 
" clip-path="url(#p1e36b1161d)" style="fill: #b60000"/>
   </g>
   <g id="PathCollection_11">
    <path clip-path="url(#p1e36b1161d)" style="fill: #0000b6"/>
   </g>
   <g id="PathCollection_12">
    <path clip-path="url(#p1e36b1161d)" style="fill: #0018ff"/>
   </g>
   <g id="PathCollection_13">
    <path clip-path="url(#p1e36b1161d)" style="fill: #0080ff"/>
   </g>
   <g id="PathCollection_14">
    <path d="M 100.4544 106.855768 
L 101.434005 106.1564 
L 104.748426 103.5648 
L 106.926983 101.787222 
L 112.101908 97.29248 
L 112.822783 96.63424 
L 114.978799 94.6944 
L 116.96217 92.763917 
L 117.588987 92.09632 
L 118.622697 91.059179 
L 123.636831 85.824 
L 124.188162 85.22086 
L 129.108088 79.55168 
L 129.474452 79.103249 
L 131.292415 76.9536 
L 132.758213 74.962727 
L 133.233547 74.35552 
L 134.543466 72.607593 
L 137.830452 68.0832 
L 139.164528 66.150743 
L 142.035478 61.81088 
L 143.04247 60.17257 
L 143.29759 59.801049 
L 143.668294 59.2128 
L 144.099287 58.42553 
L 144.621969 57.536086 
L 145.200722 56.61472 
L 145.76601 55.644014 
L 148.740573 50.3424 
L 148.905363 50.031925 
L 149.766855 48.37375 
L 151.79532 44.510286 
L 152.018797 44.07008 
L 152.185471 43.710649 
L 153.311955 41.472 
L 149.02272 41.472 
L 140.928 41.472 
L 132.83328 41.472 
L 124.73856 41.472 
L 116.64384 41.472 
L 108.54912 41.472 
L 100.4544 41.472 
L 100.4544 50.3424 
L 100.4544 59.2128 
L 100.4544 68.0832 
L 100.4544 76.9536 
L 100.4544 85.824 
L 100.4544 94.6944 
L 100.4544 103.5648 
" clip-path="url(#p1e36b1161d)" style="fill: #00e4f8"/>
   </g>
   <g id="PathCollection_15">
    <path d="M 153.311955 41.472 
L 152.185471 43.710649 
L 152.018797 44.07008 
L 151.79532 44.510286 
L 149.766855 48.37375 
L 148.905363 50.031925 
L 148.740573 50.3424 
L 145.76601 55.644014 
L 145.200722 56.61472 
L 144.621969 57.536086 
L 144.099287 58.42553 
L 143.668294 59.2128 
L 143.29759 59.801049 
L 143.04247 60.17257 
L 142.035478 61.81088 
L 139.164528 66.150743 
L 137.830452 68.0832 
L 134.543466 72.607593 
L 133.233547 74.35552 
L 132.758213 74.962727 
L 131.292415 76.9536 
L 129.474452 79.103249 
L 129.108088 79.55168 
L 124.188162 85.22086 
L 123.636831 85.824 
L 118.622697 91.059179 
L 117.588987 92.09632 
L 116.96217 92.763917 
L 114.978799 94.6944 
L 112.822783 96.63424 
L 112.101908 97.29248 
L 106.926983 101.787222 
L 104.748426 103.5648 
L 101.434005 106.1564 
L 100.4544 106.855768 
L 100.4544 112.4352 
L 100.4544 121.3056 
L 100.4544 130.176 
L 100.4544 139.0464 
L 100.4544 147.9168 
L 100.4544 155.880508 
L 100.848003 155.745901 
L 106.059466 154.058974 
L 113.541322 151.316618 
L 114.458566 151.005935 
L 115.760964 150.51488 
L 117.08082 150.034789 
L 122.339926 147.9168 
L 123.248642 147.546929 
L 123.58704 147.394118 
L 128.388517 145.31872 
L 129.860754 144.65943 
L 130.908744 144.137869 
L 134.187724 142.629657 
L 140.589104 139.417771 
L 141.061727 139.192941 
L 141.33853 139.0464 
L 147.697864 135.541419 
L 151.118424 133.502096 
L 151.741453 133.155257 
L 152.361831 132.77408 
L 154.702958 131.271947 
L 156.447271 130.176 
L 156.71884 129.995073 
L 160.30538 127.57792 
L 161.84842 126.489928 
L 163.827317 124.969281 
L 165.999252 123.387896 
L 168.677207 121.3056 
L 171.33457 119.144292 
L 175.998482 115.03328 
L 176.993277 114.108477 
L 178.805629 112.4352 
L 180.515051 110.645777 
L 181.340198 109.83712 
L 183.08478 108.017749 
L 187.142565 103.5648 
L 188.289468 102.2423 
L 192.303209 97.29248 
L 193.050594 96.307705 
L 193.556637 95.702371 
L 194.31425 94.6944 
L 195.990176 92.287478 
L 196.108224 92.09632 
L 198.588901 88.463897 
L 200.32132 85.824 
L 202.494198 82.326605 
L 204.123934 79.55168 
L 205.475625 77.048981 
L 205.505117 76.998445 
L 205.533454 76.9536 
L 205.562571 76.897684 
L 206.977472 74.35552 
L 208.567332 71.240899 
L 210.100921 68.0832 
L 212.115193 63.677588 
L 212.945154 61.81088 
L 213.302186 61.103573 
L 214.159089 59.2128 
L 215.008393 56.898463 
L 215.123864 56.61472 
L 215.650359 55.289271 
L 217.571571 50.3424 
L 218.797895 46.970211 
L 219.817208 44.07008 
L 220.415699 42.134476 
L 220.64969 41.472 
L 213.78048 41.472 
L 205.68576 41.472 
L 197.59104 41.472 
L 189.49632 41.472 
L 181.4016 41.472 
L 173.30688 41.472 
L 165.21216 41.472 
L 157.11744 41.472 
" clip-path="url(#p1e36b1161d)" style="fill: #53ffa4"/>
   </g>
   <g id="PathCollection_16">
    <path d="M 220.64969 41.472 
L 220.415699 42.134476 
L 219.817208 44.07008 
L 218.797895 46.970211 
L 217.571571 50.3424 
L 215.650359 55.289271 
L 215.123864 56.61472 
L 215.008393 56.898463 
L 214.159089 59.2128 
L 213.302186 61.103573 
L 212.945154 61.81088 
L 212.115193 63.677588 
L 210.100921 68.0832 
L 208.567332 71.240899 
L 206.977472 74.35552 
L 205.562571 76.897684 
L 205.533454 76.9536 
L 205.505117 76.998445 
L 205.475625 77.048981 
L 204.123934 79.55168 
L 202.494198 82.326605 
L 200.32132 85.824 
L 198.588901 88.463897 
L 196.108224 92.09632 
L 195.990176 92.287478 
L 194.31425 94.6944 
L 193.556637 95.702371 
L 193.050594 96.307705 
L 192.303209 97.29248 
L 188.289468 102.2423 
L 187.142565 103.5648 
L 183.08478 108.017749 
L 181.340198 109.83712 
L 180.515051 110.645777 
L 178.805629 112.4352 
L 176.993277 114.108477 
L 175.998482 115.03328 
L 171.33457 119.144292 
L 168.677207 121.3056 
L 165.999252 123.387896 
L 163.827317 124.969281 
L 161.84842 126.489928 
L 160.30538 127.57792 
L 156.71884 129.995073 
L 156.447271 130.176 
L 154.702958 131.271947 
L 152.361831 132.77408 
L 151.741453 133.155257 
L 151.118424 133.502096 
L 147.697864 135.541419 
L 141.33853 139.0464 
L 141.061727 139.192941 
L 140.589104 139.417771 
L 134.187724 142.629657 
L 130.908744 144.137869 
L 129.860754 144.65943 
L 128.388517 145.31872 
L 123.58704 147.394118 
L 123.248642 147.546929 
L 122.339926 147.9168 
L 117.08082 150.034789 
L 115.760964 150.51488 
L 114.458566 151.005935 
L 113.541322 151.316618 
L 106.059466 154.058974 
L 100.848003 155.745901 
L 100.4544 155.880508 
L 100.4544 156.7872 
L 100.4544 165.6576 
L 100.4544 174.528 
L 100.4544 183.3984 
L 100.4544 192.2688 
L 100.4544 195.079135 
L 101.49928 195.033089 
L 106.431586 194.589248 
L 110.452252 194.3543 
L 116.05226 193.833859 
L 117.209684 193.765772 
L 123.941784 193.141927 
L 125.453517 193.052268 
L 132.803711 192.347028 
L 132.861544 192.343573 
L 133.642707 192.2688 
L 140.326537 191.609701 
L 141.70322 191.419294 
L 148.440478 190.728445 
L 149.670855 190.554122 
L 155.049955 190.003198 
L 159.815696 189.311983 
L 163.928335 188.872369 
L 166.649225 188.466963 
L 169.554209 188.156528 
L 178.277298 186.82209 
L 179.299498 186.707571 
L 183.770201 186.002531 
L 183.777285 186.001736 
L 183.809631 185.99648 
L 192.144049 184.600219 
L 193.474828 184.386062 
L 198.519265 183.3984 
L 203.478405 182.396469 
L 210.566155 180.80032 
L 211.261742 180.638303 
L 211.497225 180.56848 
L 215.679985 179.553248 
L 217.899687 178.884469 
L 224.350934 177.240973 
L 229.592347 175.52689 
L 230.278174 175.343504 
L 232.72137 174.528 
L 236.775118 173.11491 
L 241.029989 171.278496 
L 244.436473 169.970004 
L 248.14991 168.25568 
L 248.289711 168.195967 
L 253.257606 165.6576 
L 253.71202 165.411556 
L 257.766443 163.05952 
L 259.188044 162.193963 
L 260.729016 161.07243 
L 263.323937 159.366981 
L 266.733187 156.7872 
L 268.882525 155.076622 
L 273.730423 150.51488 
L 274.490972 149.753962 
L 275.203901 149.098561 
L 276.251199 147.9168 
L 278.082827 145.794235 
L 278.406737 145.31872 
L 280.110098 143.204839 
L 283.128155 139.0464 
L 284.63146 136.853106 
L 287.045758 132.77408 
L 288.094654 130.839471 
L 288.256087 130.57894 
L 288.453539 130.176 
L 288.655111 129.674003 
L 288.922459 129.136783 
L 289.771477 127.57792 
L 290.682803 125.743521 
L 292.60367 121.3056 
L 293.702552 118.593566 
L 295.034896 115.03328 
L 295.277974 114.308098 
L 296.050212 112.4352 
L 296.771304 109.918363 
L 296.800639 109.83712 
L 296.938537 109.413747 
L 298.716864 103.5648 
L 299.686093 100.127955 
L 300.3953 97.29248 
L 300.741819 95.638788 
L 300.864106 95.180545 
L 301.023523 94.6944 
L 301.124263 94.272839 
L 301.180217 93.949004 
L 301.631556 92.09632 
L 302.892477 85.900792 
L 302.906359 85.824 
L 302.924784 85.711805 
L 304.151308 79.55168 
L 304.447992 77.691466 
L 304.521335 77.37536 
L 304.596294 76.9536 
L 304.636118 76.503346 
L 304.690318 76.105741 
L 305.037366 74.35552 
L 305.557934 71.080868 
L 305.992648 68.0832 
L 306.519253 64.032094 
L 306.878947 61.81088 
L 306.966995 61.094055 
L 307.126223 60.281221 
L 307.288956 59.2128 
L 307.358347 58.086754 
L 307.456617 57.109302 
L 307.538209 56.61472 
L 307.660549 55.644167 
L 308.287993 50.3424 
L 308.857108 44.892522 
L 308.940782 44.07008 
L 308.985158 43.589093 
L 309.222122 41.472 
L 302.8224 41.472 
L 294.72768 41.472 
L 286.63296 41.472 
L 278.53824 41.472 
L 270.44352 41.472 
L 262.3488 41.472 
L 254.25408 41.472 
L 246.15936 41.472 
L 238.06464 41.472 
L 229.96992 41.472 
L 221.8752 41.472 
" clip-path="url(#p1e36b1161d)" style="fill: #a4ff53"/>
   </g>
   <g id="PathCollection_17">
    <path d="M 309.222122 41.472 
L 308.985158 43.589093 
L 308.940782 44.07008 
L 308.857108 44.892522 
L 308.287993 50.3424 
L 307.660549 55.644167 
L 307.538209 56.61472 
L 307.456617 57.109302 
L 307.358347 58.086754 
L 307.288956 59.2128 
L 307.126223 60.281221 
L 306.966995 61.094055 
L 306.878947 61.81088 
L 306.519253 64.032094 
L 305.992648 68.0832 
L 305.557934 71.080868 
L 305.037366 74.35552 
L 304.690318 76.105741 
L 304.636118 76.503346 
L 304.596294 76.9536 
L 304.521335 77.37536 
L 304.447992 77.691466 
L 304.151308 79.55168 
L 302.924784 85.711805 
L 302.906359 85.824 
L 302.892477 85.900792 
L 301.631556 92.09632 
L 301.180217 93.949004 
L 301.124263 94.272839 
L 301.023523 94.6944 
L 300.864106 95.180545 
L 300.741819 95.638788 
L 300.3953 97.29248 
L 299.686093 100.127955 
L 298.716864 103.5648 
L 296.938537 109.413747 
L 296.800639 109.83712 
L 296.771304 109.918363 
L 296.050212 112.4352 
L 295.277974 114.308098 
L 295.034896 115.03328 
L 293.702552 118.593566 
L 292.60367 121.3056 
L 290.682803 125.743521 
L 289.771477 127.57792 
L 288.922459 129.136783 
L 288.655111 129.674003 
L 288.453539 130.176 
L 288.256087 130.57894 
L 288.094654 130.839471 
L 287.045758 132.77408 
L 284.63146 136.853106 
L 283.128155 139.0464 
L 280.110098 143.204839 
L 278.406737 145.31872 
L 278.082827 145.794235 
L 276.251199 147.9168 
L 275.203901 149.098561 
L 274.490972 149.753962 
L 273.730423 150.51488 
L 268.882525 155.076622 
L 266.733187 156.7872 
L 263.323937 159.366981 
L 260.729016 161.07243 
L 259.188044 162.193963 
L 257.766443 163.05952 
L 253.71202 165.411556 
L 253.257606 165.6576 
L 248.289711 168.195967 
L 248.14991 168.25568 
L 244.436473 169.970004 
L 241.029989 171.278496 
L 236.775118 173.11491 
L 232.72137 174.528 
L 230.278174 175.343504 
L 229.592347 175.52689 
L 224.350934 177.240973 
L 217.899687 178.884469 
L 215.679985 179.553248 
L 211.497225 180.56848 
L 211.261742 180.638303 
L 210.566155 180.80032 
L 203.478405 182.396469 
L 198.519265 183.3984 
L 193.474828 184.386062 
L 192.144049 184.600219 
L 183.809631 185.99648 
L 183.777285 186.001736 
L 183.770201 186.002531 
L 179.299498 186.707571 
L 178.277298 186.82209 
L 169.554209 188.156528 
L 166.649225 188.466963 
L 163.928335 188.872369 
L 159.815696 189.311983 
L 155.049955 190.003198 
L 149.670855 190.554122 
L 148.440478 190.728445 
L 141.70322 191.419294 
L 140.326537 191.609701 
L 133.642707 192.2688 
L 132.861544 192.343573 
L 132.803711 192.347028 
L 125.453517 193.052268 
L 123.941784 193.141927 
L 117.209684 193.765772 
L 116.05226 193.833859 
L 110.452252 194.3543 
L 106.431586 194.589248 
L 101.49928 195.033089 
L 100.4544 195.079135 
L 100.4544 201.1392 
L 100.4544 210.0096 
L 100.4544 218.88 
L 100.4544 227.7504 
L 100.4544 229.043645 
L 100.965762 229.103237 
L 106.871927 229.588311 
L 110.611934 230.010884 
L 115.624653 230.446717 
L 117.75783 230.697524 
L 121.725665 231.052007 
L 128.509975 231.883212 
L 131.175488 232.136182 
L 134.6594 232.581503 
L 136.367159 232.748286 
L 145.90847 234.02272 
L 146.484812 234.098531 
L 147.672958 234.276214 
L 153.936581 235.17699 
L 158.765764 235.872616 
L 163.327111 236.6208 
L 170.625897 237.837714 
L 177.956499 239.21888 
L 178.875487 239.388978 
L 179.115881 239.444201 
L 183.374048 240.272976 
L 185.109491 240.684001 
L 192.499702 242.200018 
L 196.758144 243.287727 
L 198.29774 243.621585 
L 205.374246 245.4912 
L 205.626609 245.556019 
L 205.791957 245.607573 
L 212.978886 247.611862 
L 214.811532 248.218907 
L 218.430329 249.266178 
L 225.497331 251.76352 
L 226.690702 252.175816 
L 232.372696 254.3616 
L 234.625662 255.215324 
L 235.418446 255.562723 
L 238.593207 256.95968 
L 242.325718 258.562603 
L 244.892062 259.879293 
L 247.048231 260.880442 
L 251.411477 263.232 
L 253.338552 264.235259 
L 257.547374 266.840875 
L 260.358799 268.49666 
L 261.842293 269.50432 
L 262.676464 270.011549 
L 265.603117 272.1024 
L 267.511178 273.433407 
L 269.114124 274.70048 
L 273.263834 277.882228 
L 276.634426 280.9728 
L 278.06238 282.231714 
L 279.595858 283.770788 
L 281.999248 286.050539 
L 283.04126 287.24512 
L 284.528966 288.888185 
L 285.428968 289.8432 
L 285.799935 290.221315 
L 287.670692 292.44128 
L 289.966175 295.060978 
L 292.610681 298.7136 
L 294.022203 300.579979 
L 296.942509 304.98592 
L 297.009375 305.08366 
L 298.568041 307.584 
L 302.8224 307.584 
L 310.91712 307.584 
L 319.01184 307.584 
L 327.10656 307.584 
L 335.20128 307.584 
L 343.296 307.584 
L 343.296 298.7136 
L 343.296 289.8432 
L 343.296 280.9728 
L 343.296 272.1024 
L 343.296 263.232 
L 343.296 254.3616 
L 343.296 245.4912 
L 343.296 236.6208 
L 343.296 227.7504 
L 343.296 218.88 
L 343.296 210.0096 
L 343.296 201.1392 
L 343.296 192.2688 
L 343.296 183.3984 
L 343.296 174.528 
L 343.296 165.6576 
L 343.296 156.7872 
L 343.296 147.9168 
L 343.296 139.0464 
L 343.296 130.176 
L 343.296 121.3056 
L 343.296 112.4352 
L 343.296 103.5648 
L 343.296 94.6944 
L 343.296 85.824 
L 343.296 76.9536 
L 343.296 68.0832 
L 343.296 59.2128 
L 343.296 50.3424 
L 343.296 41.472 
L 335.20128 41.472 
L 327.10656 41.472 
L 319.01184 41.472 
L 310.91712 41.472 
" clip-path="url(#p1e36b1161d)" style="fill: #f8f500"/>
   </g>
   <g id="PathCollection_18">
    <path d="M 298.568041 307.584 
L 297.009375 305.08366 
L 296.942509 304.98592 
L 294.022203 300.579979 
L 292.610681 298.7136 
L 289.966175 295.060978 
L 287.670692 292.44128 
L 285.799935 290.221315 
L 285.428968 289.8432 
L 284.528966 288.888185 
L 283.04126 287.24512 
L 281.999248 286.050539 
L 279.595858 283.770788 
L 278.06238 282.231714 
L 276.634426 280.9728 
L 273.263834 277.882228 
L 269.114124 274.70048 
L 267.511178 273.433407 
L 265.603117 272.1024 
L 262.676464 270.011549 
L 261.842293 269.50432 
L 260.358799 268.49666 
L 257.547374 266.840875 
L 253.338552 264.235259 
L 251.411477 263.232 
L 247.048231 260.880442 
L 244.892062 259.879293 
L 242.325718 258.562603 
L 238.593207 256.95968 
L 235.418446 255.562723 
L 234.625662 255.215324 
L 232.372696 254.3616 
L 226.690702 252.175816 
L 225.497331 251.76352 
L 218.430329 249.266178 
L 214.811532 248.218907 
L 212.978886 247.611862 
L 205.791957 245.607573 
L 205.626609 245.556019 
L 205.374246 245.4912 
L 198.29774 243.621585 
L 196.758144 243.287727 
L 192.499702 242.200018 
L 185.109491 240.684001 
L 183.374048 240.272976 
L 179.115881 239.444201 
L 178.875487 239.388978 
L 177.956499 239.21888 
L 170.625897 237.837714 
L 163.327111 236.6208 
L 158.765764 235.872616 
L 153.936581 235.17699 
L 147.672958 234.276214 
L 146.484812 234.098531 
L 145.90847 234.02272 
L 136.367159 232.748286 
L 134.6594 232.581503 
L 131.175488 232.136182 
L 128.509975 231.883212 
L 121.725665 231.052007 
L 117.75783 230.697524 
L 115.624653 230.446717 
L 110.611934 230.010884 
L 106.871927 229.588311 
L 100.965762 229.103237 
L 100.4544 229.043645 
L 100.4544 236.6208 
L 100.4544 245.4912 
L 100.4544 254.3616 
L 100.4544 260.297736 
L 101.48671 260.500965 
L 107.192571 261.745459 
L 109.487191 262.204038 
L 113.99155 263.232 
L 116.434437 263.785988 
L 116.897299 263.902541 
L 122.866202 265.283778 
L 127.77948 266.564317 
L 131.255227 267.40683 
L 134.770013 268.355736 
L 135.978983 268.655259 
L 139.008687 269.50432 
L 143.74948 270.821714 
L 144.848482 271.129143 
L 148.057496 272.1024 
L 153.507277 273.741074 
L 156.488248 274.70048 
L 161.409816 276.269105 
L 163.747773 277.098682 
L 166.350126 277.962246 
L 172.659693 280.263596 
L 173.643511 280.603911 
L 174.595647 280.9728 
L 180.543953 283.241754 
L 182.580181 284.090804 
L 185.577071 285.267613 
L 190.093623 287.24512 
L 192.722488 288.378824 
L 195.872642 289.8432 
L 200.705687 292.103684 
L 201.37298 292.44128 
L 208.278307 295.872621 
L 213.423592 298.7136 
L 213.719858 298.873979 
L 213.875688 298.965478 
L 219.011174 301.852073 
L 224.024209 304.98592 
L 225.547964 305.916911 
L 228.077225 307.584 
L 229.96992 307.584 
L 238.06464 307.584 
L 246.15936 307.584 
L 254.25408 307.584 
L 262.3488 307.584 
L 270.44352 307.584 
L 278.53824 307.584 
L 286.63296 307.584 
L 294.72768 307.584 
" clip-path="url(#p1e36b1161d)" style="fill: #ff9400"/>
   </g>
   <g id="PathCollection_19">
    <path d="M 228.077225 307.584 
L 225.547964 305.916911 
L 224.024209 304.98592 
L 219.011174 301.852073 
L 213.875688 298.965478 
L 213.719858 298.873979 
L 213.423592 298.7136 
L 208.278307 295.872621 
L 201.37298 292.44128 
L 200.705687 292.103684 
L 195.872642 289.8432 
L 192.722488 288.378824 
L 190.093623 287.24512 
L 185.577071 285.267613 
L 182.580181 284.090804 
L 180.543953 283.241754 
L 174.595647 280.9728 
L 173.643511 280.603911 
L 172.659693 280.263596 
L 166.350126 277.962246 
L 163.747773 277.098682 
L 161.409816 276.269105 
L 156.488248 274.70048 
L 153.507277 273.741074 
L 148.057496 272.1024 
L 144.848482 271.129143 
L 143.74948 270.821714 
L 139.008687 269.50432 
L 135.978983 268.655259 
L 134.770013 268.355736 
L 131.255227 267.40683 
L 127.77948 266.564317 
L 122.866202 265.283778 
L 116.897299 263.902541 
L 116.434437 263.785988 
L 113.99155 263.232 
L 109.487191 262.204038 
L 107.192571 261.745459 
L 101.48671 260.500965 
L 100.4544 260.297736 
L 100.4544 263.232 
L 100.4544 272.1024 
L 100.4544 280.9728 
L 100.4544 289.8432 
L 100.4544 290.951501 
L 101.844299 291.366286 
L 103.859291 291.971941 
L 105.357676 292.44128 
L 112.283967 294.620859 
L 115.504368 295.699063 
L 117.534714 296.356741 
L 124.413234 298.7136 
L 124.660472 298.79917 
L 124.895198 298.885248 
L 131.827551 301.374313 
L 134.17465 302.262271 
L 136.806955 303.229546 
L 141.286883 304.98592 
L 144.167486 306.113579 
L 147.766029 307.584 
L 149.02272 307.584 
L 157.11744 307.584 
L 165.21216 307.584 
L 173.30688 307.584 
L 181.4016 307.584 
L 189.49632 307.584 
L 197.59104 307.584 
L 205.68576 307.584 
L 213.78048 307.584 
L 221.8752 307.584 
" clip-path="url(#p1e36b1161d)" style="fill: #ff3800"/>
   </g>
   <g id="PathCollection_20">
    <path d="M 147.766029 307.584 
L 144.167486 306.113579 
L 141.286883 304.98592 
L 136.806955 303.229546 
L 134.17465 302.262271 
L 131.827551 301.374313 
L 124.895198 298.885248 
L 124.660472 298.79917 
L 124.413234 298.7136 
L 117.534714 296.356741 
L 115.504368 295.699063 
L 112.283967 294.620859 
L 105.357676 292.44128 
L 103.859291 291.971941 
L 101.844299 291.366286 
L 100.4544 290.951501 
L 100.4544 298.7136 
L 100.4544 307.584 
L 108.54912 307.584 
L 116.64384 307.584 
L 124.73856 307.584 
L 132.83328 307.584 
L 140.928 307.584 
" clip-path="url(#p1e36b1161d)" style="fill: #b60000"/>
   </g>
   <g id="matplotlib.axis_1">
    <g id="xtick_1">
     <g id="line2d_1">
      <defs>
       <path id="m8276076fc2" d="M 0 0 
L 0 3.5 
" style="stroke: #000000; stroke-width: 0.8"/>
      </defs>
      <g>
       <use xlink:href="#m8276076fc2" x="57.6" y="307.584" style="stroke: #000000; stroke-width: 0.8"/>
      </g>
     </g>
     <g id="text_1">
      <!-- 0.0 -->
      <g transform="translate(51.26875 321.385562) scale(0.1 -0.1)">
       <defs>
        <path id="Calibri-30" d="M 3022 2031 
Q 3022 1566 2948 1181 
Q 2875 797 2704 520 
Q 2534 244 2259 92 
Q 1984 -59 1581 -59 
Q 1200 -59 939 77 
Q 678 213 518 477 
Q 359 741 292 1127 
Q 225 1513 225 2013 
Q 225 2475 300 2861 
Q 375 3247 544 3523 
Q 713 3800 988 3951 
Q 1263 4103 1663 4103 
Q 2047 4103 2308 3967 
Q 2569 3831 2728 3567 
Q 2888 3303 2955 2917 
Q 3022 2531 3022 2031 
z
M 2472 1994 
Q 2472 2297 2450 2537 
Q 2428 2778 2386 2962 
Q 2344 3147 2276 3280 
Q 2209 3413 2115 3498 
Q 2022 3584 1901 3623 
Q 1781 3663 1631 3663 
Q 1366 3663 1200 3538 
Q 1034 3413 939 3194 
Q 844 2975 809 2681 
Q 775 2388 775 2050 
Q 775 1597 822 1280 
Q 869 963 970 763 
Q 1072 563 1230 472 
Q 1388 381 1613 381 
Q 1788 381 1920 437 
Q 2053 494 2148 598 
Q 2244 703 2306 850 
Q 2369 997 2406 1175 
Q 2444 1353 2458 1561 
Q 2472 1769 2472 1994 
z
" transform="scale(0.015625)"/>
        <path id="Calibri-2e" d="M 1144 341 
Q 1144 119 1070 45 
Q 997 -28 803 -28 
Q 616 -28 544 44 
Q 472 116 472 331 
Q 472 553 545 626 
Q 619 700 813 700 
Q 1000 700 1072 628 
Q 1144 556 1144 341 
z
" transform="scale(0.015625)"/>
       </defs>
       <use xlink:href="#Calibri-30"/>
       <use xlink:href="#Calibri-2e" x="50.683594"/>
       <use xlink:href="#Calibri-30" x="75.927734"/>
      </g>
     </g>
    </g>
    <g id="xtick_2">
     <g id="line2d_2">
      <g>
       <use xlink:href="#m8276076fc2" x="86.1696" y="307.584" style="stroke: #000000; stroke-width: 0.8"/>
      </g>
     </g>
     <g id="text_2">
      <!-- 0.1 -->
      <g transform="translate(79.83835 321.385562) scale(0.1 -0.1)">
       <defs>
        <path id="Calibri-31" d="M 2897 213 
Q 2897 153 2887 112 
Q 2878 72 2862 47 
Q 2847 22 2826 11 
Q 2806 0 2784 0 
L 672 0 
Q 650 0 631 11 
Q 613 22 595 47 
Q 578 72 568 112 
Q 559 153 559 213 
Q 559 269 568 309 
Q 578 350 592 376 
Q 606 403 626 417 
Q 647 431 672 431 
L 1516 431 
L 1516 3506 
L 734 3041 
Q 675 3009 639 3003 
Q 603 2997 581 3017 
Q 559 3038 551 3084 
Q 544 3131 544 3203 
Q 544 3256 548 3293 
Q 553 3331 562 3356 
Q 572 3381 589 3400 
Q 606 3419 634 3438 
L 1566 4034 
Q 1578 4044 1597 4050 
Q 1616 4056 1644 4062 
Q 1672 4069 1709 4070 
Q 1747 4072 1803 4072 
Q 1878 4072 1928 4065 
Q 1978 4059 2006 4048 
Q 2034 4038 2043 4020 
Q 2053 4003 2053 3984 
L 2053 431 
L 2784 431 
Q 2809 431 2831 417 
Q 2853 403 2867 376 
Q 2881 350 2889 309 
Q 2897 269 2897 213 
z
" transform="scale(0.015625)"/>
       </defs>
       <use xlink:href="#Calibri-30"/>
       <use xlink:href="#Calibri-2e" x="50.683594"/>
       <use xlink:href="#Calibri-31" x="75.927734"/>
      </g>
     </g>
    </g>
    <g id="xtick_3">
     <g id="line2d_3">
      <g>
       <use xlink:href="#m8276076fc2" x="114.7392" y="307.584" style="stroke: #000000; stroke-width: 0.8"/>
      </g>
     </g>
     <g id="text_3">
      <!-- 0.2 -->
      <g transform="translate(108.40795 321.385562) scale(0.1 -0.1)">
       <defs>
        <path id="Calibri-32" d="M 2888 231 
Q 2888 175 2880 131 
Q 2872 88 2858 58 
Q 2844 28 2820 14 
Q 2797 0 2769 0 
L 534 0 
Q 491 0 458 11 
Q 425 22 401 47 
Q 378 72 367 119 
Q 356 166 356 234 
Q 356 297 361 344 
Q 366 391 381 427 
Q 397 463 420 498 
Q 444 534 481 575 
L 1266 1406 
Q 1538 1694 1702 1922 
Q 1866 2150 1955 2337 
Q 2044 2525 2072 2678 
Q 2100 2831 2100 2966 
Q 2100 3100 2056 3220 
Q 2013 3341 1930 3431 
Q 1847 3522 1722 3575 
Q 1597 3628 1434 3628 
Q 1244 3628 1092 3575 
Q 941 3522 827 3459 
Q 713 3397 636 3344 
Q 559 3291 522 3291 
Q 500 3291 483 3303 
Q 466 3316 455 3344 
Q 444 3372 437 3419 
Q 431 3466 431 3531 
Q 431 3578 434 3612 
Q 438 3647 445 3672 
Q 453 3697 465 3719 
Q 478 3741 515 3773 
Q 553 3806 645 3862 
Q 738 3919 877 3973 
Q 1016 4028 1183 4065 
Q 1350 4103 1534 4103 
Q 1828 4103 2048 4020 
Q 2269 3938 2414 3794 
Q 2559 3650 2631 3459 
Q 2703 3269 2703 3053 
Q 2703 2859 2668 2667 
Q 2634 2475 2523 2251 
Q 2413 2028 2203 1754 
Q 1994 1481 1647 1125 
L 1006 456 
L 2766 456 
Q 2791 456 2814 442 
Q 2838 428 2855 400 
Q 2872 372 2880 330 
Q 2888 288 2888 231 
z
" transform="scale(0.015625)"/>
       </defs>
       <use xlink:href="#Calibri-30"/>
       <use xlink:href="#Calibri-2e" x="50.683594"/>
       <use xlink:href="#Calibri-32" x="75.927734"/>
      </g>
     </g>
    </g>
    <g id="xtick_4">
     <g id="line2d_4">
      <g>
       <use xlink:href="#m8276076fc2" x="143.3088" y="307.584" style="stroke: #000000; stroke-width: 0.8"/>
      </g>
     </g>
     <g id="text_4">
      <!-- 0.3 -->
      <g transform="translate(136.97755 321.385562) scale(0.1 -0.1)">
       <defs>
        <path id="Calibri-33" d="M 2856 1156 
Q 2856 878 2759 654 
Q 2663 431 2481 272 
Q 2300 113 2034 27 
Q 1769 -59 1434 -59 
Q 1231 -59 1054 -26 
Q 878 6 740 51 
Q 603 97 512 145 
Q 422 194 398 216 
Q 375 238 362 259 
Q 350 281 340 312 
Q 331 344 326 389 
Q 322 434 322 500 
Q 322 613 344 656 
Q 366 700 406 700 
Q 434 700 517 650 
Q 600 600 729 542 
Q 859 484 1032 434 
Q 1206 384 1419 384 
Q 1625 384 1781 437 
Q 1938 491 2044 587 
Q 2150 684 2203 817 
Q 2256 950 2256 1106 
Q 2256 1278 2189 1415 
Q 2122 1553 1992 1653 
Q 1863 1753 1673 1806 
Q 1484 1859 1244 1859 
L 859 1859 
Q 834 1859 811 1870 
Q 788 1881 770 1906 
Q 753 1931 742 1972 
Q 731 2013 731 2078 
Q 731 2138 740 2177 
Q 750 2216 767 2239 
Q 784 2263 806 2273 
Q 828 2284 856 2284 
L 1209 2284 
Q 1416 2284 1580 2337 
Q 1744 2391 1858 2491 
Q 1972 2591 2033 2730 
Q 2094 2869 2094 3041 
Q 2094 3166 2053 3280 
Q 2013 3394 1931 3478 
Q 1850 3563 1723 3611 
Q 1597 3659 1431 3659 
Q 1250 3659 1098 3604 
Q 947 3550 828 3487 
Q 709 3425 631 3370 
Q 553 3316 522 3316 
Q 500 3316 483 3323 
Q 466 3331 455 3354 
Q 444 3378 439 3420 
Q 434 3463 434 3531 
Q 434 3578 437 3614 
Q 441 3650 450 3676 
Q 459 3703 471 3725 
Q 484 3747 514 3776 
Q 544 3806 634 3862 
Q 725 3919 858 3973 
Q 991 4028 1164 4065 
Q 1338 4103 1538 4103 
Q 1819 4103 2031 4031 
Q 2244 3959 2386 3828 
Q 2528 3697 2598 3514 
Q 2669 3331 2669 3109 
Q 2669 2919 2619 2755 
Q 2569 2591 2472 2464 
Q 2375 2338 2234 2248 
Q 2094 2159 1909 2125 
L 1909 2119 
Q 2119 2097 2292 2014 
Q 2466 1931 2591 1806 
Q 2716 1681 2786 1514 
Q 2856 1347 2856 1156 
z
" transform="scale(0.015625)"/>
       </defs>
       <use xlink:href="#Calibri-30"/>
       <use xlink:href="#Calibri-2e" x="50.683594"/>
       <use xlink:href="#Calibri-33" x="75.927734"/>
      </g>
     </g>
    </g>
    <g id="xtick_5">
     <g id="line2d_5">
      <g>
       <use xlink:href="#m8276076fc2" x="171.8784" y="307.584" style="stroke: #000000; stroke-width: 0.8"/>
      </g>
     </g>
     <g id="text_5">
      <!-- 0.4 -->
      <g transform="translate(165.54715 321.385562) scale(0.1 -0.1)">
       <defs>
        <path id="Calibri-34" d="M 3059 1150 
Q 3059 1047 3028 987 
Q 2997 928 2941 928 
L 2484 928 
L 2484 78 
Q 2484 53 2471 36 
Q 2459 19 2428 6 
Q 2397 -6 2347 -12 
Q 2297 -19 2219 -19 
Q 2144 -19 2094 -12 
Q 2044 -6 2014 6 
Q 1984 19 1973 36 
Q 1963 53 1963 78 
L 1963 928 
L 294 928 
Q 256 928 231 937 
Q 206 947 186 972 
Q 166 997 158 1044 
Q 150 1091 150 1166 
Q 150 1225 153 1272 
Q 156 1319 165 1358 
Q 175 1397 190 1433 
Q 206 1469 228 1509 
L 1684 3966 
Q 1700 3991 1729 4009 
Q 1759 4028 1806 4040 
Q 1853 4053 1922 4058 
Q 1991 4063 2084 4063 
Q 2188 4063 2264 4055 
Q 2341 4047 2387 4034 
Q 2434 4022 2459 4001 
Q 2484 3981 2484 3953 
L 2484 1372 
L 2941 1372 
Q 2994 1372 3026 1317 
Q 3059 1263 3059 1150 
z
M 1963 3591 
L 1956 3591 
L 641 1372 
L 1963 1372 
L 1963 3591 
z
" transform="scale(0.015625)"/>
       </defs>
       <use xlink:href="#Calibri-30"/>
       <use xlink:href="#Calibri-2e" x="50.683594"/>
       <use xlink:href="#Calibri-34" x="75.927734"/>
      </g>
     </g>
    </g>
    <g id="xtick_6">
     <g id="line2d_6">
      <g>
       <use xlink:href="#m8276076fc2" x="200.448" y="307.584" style="stroke: #000000; stroke-width: 0.8"/>
      </g>
     </g>
     <g id="text_6">
      <!-- 0.5 -->
      <g transform="translate(194.11675 321.385562) scale(0.1 -0.1)">
       <defs>
        <path id="Calibri-35" d="M 2869 1300 
Q 2869 975 2759 722 
Q 2650 469 2450 295 
Q 2250 122 1973 31 
Q 1697 -59 1359 -59 
Q 1172 -59 1003 -32 
Q 834 -6 703 33 
Q 572 72 487 109 
Q 403 147 379 169 
Q 356 191 347 209 
Q 338 228 330 254 
Q 322 281 319 322 
Q 316 363 316 419 
Q 316 472 320 514 
Q 325 556 337 582 
Q 350 609 367 621 
Q 384 634 406 634 
Q 438 634 503 595 
Q 569 556 680 511 
Q 791 466 955 425 
Q 1119 384 1344 384 
Q 1553 384 1728 434 
Q 1903 484 2029 590 
Q 2156 697 2228 858 
Q 2300 1019 2300 1250 
Q 2300 1444 2239 1592 
Q 2178 1741 2051 1839 
Q 1925 1938 1731 1986 
Q 1538 2034 1269 2034 
Q 1078 2034 940 2015 
Q 803 1997 684 1997 
Q 597 1997 559 2037 
Q 522 2078 522 2194 
L 522 3841 
Q 522 3944 570 3994 
Q 619 4044 709 4044 
L 2500 4044 
Q 2525 4044 2548 4030 
Q 2572 4016 2587 3987 
Q 2603 3959 2611 3915 
Q 2619 3872 2619 3813 
Q 2619 3700 2587 3637 
Q 2556 3575 2500 3575 
L 991 3575 
L 991 2441 
Q 1100 2456 1214 2459 
Q 1328 2463 1478 2463 
Q 1825 2463 2084 2380 
Q 2344 2297 2517 2145 
Q 2691 1994 2780 1778 
Q 2869 1563 2869 1300 
z
" transform="scale(0.015625)"/>
       </defs>
       <use xlink:href="#Calibri-30"/>
       <use xlink:href="#Calibri-2e" x="50.683594"/>
       <use xlink:href="#Calibri-35" x="75.927734"/>
      </g>
     </g>
    </g>
    <g id="xtick_7">
     <g id="line2d_7">
      <g>
       <use xlink:href="#m8276076fc2" x="229.0176" y="307.584" style="stroke: #000000; stroke-width: 0.8"/>
      </g>
     </g>
     <g id="text_7">
      <!-- 0.6 -->
      <g transform="translate(222.68635 321.385562) scale(0.1 -0.1)">
       <defs>
        <path id="Calibri-36" d="M 2991 1309 
Q 2991 1044 2909 795 
Q 2828 547 2659 358 
Q 2491 169 2231 55 
Q 1972 -59 1619 -59 
Q 1366 -59 1172 3 
Q 978 66 834 181 
Q 691 297 595 465 
Q 500 634 442 850 
Q 384 1066 359 1322 
Q 334 1578 334 1872 
Q 334 2131 362 2397 
Q 391 2663 462 2909 
Q 534 3156 657 3373 
Q 781 3591 967 3752 
Q 1153 3913 1412 4006 
Q 1672 4100 2016 4100 
Q 2131 4100 2250 4086 
Q 2369 4072 2469 4048 
Q 2569 4025 2637 3997 
Q 2706 3969 2728 3951 
Q 2750 3934 2761 3914 
Q 2772 3894 2778 3870 
Q 2784 3847 2787 3817 
Q 2791 3788 2791 3744 
Q 2791 3688 2789 3647 
Q 2788 3606 2777 3581 
Q 2766 3556 2748 3543 
Q 2731 3531 2703 3531 
Q 2669 3531 2609 3553 
Q 2550 3575 2465 3601 
Q 2381 3628 2261 3650 
Q 2141 3672 1981 3672 
Q 1691 3672 1481 3553 
Q 1272 3434 1139 3234 
Q 1006 3034 942 2770 
Q 878 2506 869 2219 
Q 950 2266 1051 2312 
Q 1153 2359 1273 2396 
Q 1394 2434 1528 2457 
Q 1663 2481 1816 2481 
Q 2144 2481 2369 2392 
Q 2594 2303 2733 2145 
Q 2872 1988 2931 1773 
Q 2991 1559 2991 1309 
z
M 2447 1259 
Q 2447 1441 2411 1589 
Q 2375 1738 2290 1841 
Q 2206 1944 2065 2000 
Q 1925 2056 1719 2056 
Q 1603 2056 1487 2036 
Q 1372 2016 1264 1980 
Q 1156 1944 1057 1895 
Q 959 1847 878 1791 
Q 878 1388 929 1116 
Q 981 844 1079 680 
Q 1178 516 1325 445 
Q 1472 375 1669 375 
Q 1869 375 2016 450 
Q 2163 525 2259 651 
Q 2356 778 2401 936 
Q 2447 1094 2447 1259 
z
" transform="scale(0.015625)"/>
       </defs>
       <use xlink:href="#Calibri-30"/>
       <use xlink:href="#Calibri-2e" x="50.683594"/>
       <use xlink:href="#Calibri-36" x="75.927734"/>
      </g>
     </g>
    </g>
    <g id="xtick_8">
     <g id="line2d_8">
      <g>
       <use xlink:href="#m8276076fc2" x="257.5872" y="307.584" style="stroke: #000000; stroke-width: 0.8"/>
      </g>
     </g>
     <g id="text_8">
      <!-- 0.7 -->
      <g transform="translate(251.25595 321.385562) scale(0.1 -0.1)">
       <defs>
        <path id="Calibri-37" d="M 2947 3813 
Q 2947 3756 2942 3711 
Q 2938 3666 2930 3623 
Q 2922 3581 2908 3542 
Q 2894 3503 2875 3459 
L 1419 103 
Q 1403 66 1379 42 
Q 1356 19 1320 5 
Q 1284 -9 1228 -14 
Q 1172 -19 1091 -19 
Q 984 -19 925 -9 
Q 866 0 839 20 
Q 813 41 816 70 
Q 819 100 838 141 
L 2369 3572 
L 428 3572 
Q 369 3572 339 3634 
Q 309 3697 309 3809 
Q 309 3869 317 3912 
Q 325 3956 340 3986 
Q 356 4016 378 4030 
Q 400 4044 428 4044 
L 2784 4044 
Q 2828 4044 2861 4034 
Q 2894 4025 2911 3997 
Q 2928 3969 2937 3925 
Q 2947 3881 2947 3813 
z
" transform="scale(0.015625)"/>
       </defs>
       <use xlink:href="#Calibri-30"/>
       <use xlink:href="#Calibri-2e" x="50.683594"/>
       <use xlink:href="#Calibri-37" x="75.927734"/>
      </g>
     </g>
    </g>
    <g id="xtick_9">
     <g id="line2d_9">
      <g>
       <use xlink:href="#m8276076fc2" x="286.1568" y="307.584" style="stroke: #000000; stroke-width: 0.8"/>
      </g>
     </g>
     <g id="text_9">
      <!-- 0.8 -->
      <g transform="translate(279.82555 321.385562) scale(0.1 -0.1)">
       <defs>
        <path id="Calibri-38" d="M 2981 1038 
Q 2981 775 2887 570 
Q 2794 366 2617 225 
Q 2441 84 2181 12 
Q 1922 -59 1588 -59 
Q 1275 -59 1028 6 
Q 781 72 609 200 
Q 438 328 347 515 
Q 256 703 256 944 
Q 256 1134 318 1293 
Q 381 1453 498 1587 
Q 616 1722 787 1839 
Q 959 1956 1175 2063 
Q 988 2159 844 2267 
Q 700 2375 600 2501 
Q 500 2628 448 2772 
Q 397 2916 397 3084 
Q 397 3297 473 3483 
Q 550 3669 704 3806 
Q 859 3944 1098 4023 
Q 1338 4103 1656 4103 
Q 1963 4103 2186 4029 
Q 2409 3956 2554 3829 
Q 2700 3703 2769 3531 
Q 2838 3359 2838 3163 
Q 2838 3003 2786 2856 
Q 2734 2709 2634 2578 
Q 2534 2447 2389 2333 
Q 2244 2219 2056 2119 
Q 2278 2009 2451 1893 
Q 2625 1778 2742 1645 
Q 2859 1513 2920 1364 
Q 2981 1216 2981 1038 
z
M 2306 3113 
Q 2306 3244 2261 3350 
Q 2216 3456 2128 3531 
Q 2041 3606 1911 3645 
Q 1781 3684 1616 3684 
Q 1278 3684 1104 3531 
Q 931 3378 931 3113 
Q 931 2991 973 2886 
Q 1016 2781 1105 2687 
Q 1194 2594 1330 2505 
Q 1466 2416 1653 2319 
Q 1969 2481 2137 2678 
Q 2306 2875 2306 3113 
z
M 2438 981 
Q 2438 1125 2384 1242 
Q 2331 1359 2223 1461 
Q 2116 1563 1955 1658 
Q 1794 1753 1581 1856 
Q 1384 1759 1236 1662 
Q 1088 1566 992 1462 
Q 897 1359 848 1245 
Q 800 1131 800 994 
Q 800 691 1008 525 
Q 1216 359 1628 359 
Q 2028 359 2233 526 
Q 2438 694 2438 981 
z
" transform="scale(0.015625)"/>
       </defs>
       <use xlink:href="#Calibri-30"/>
       <use xlink:href="#Calibri-2e" x="50.683594"/>
       <use xlink:href="#Calibri-38" x="75.927734"/>
      </g>
     </g>
    </g>
    <g id="xtick_10">
     <g id="line2d_10">
      <g>
       <use xlink:href="#m8276076fc2" x="314.7264" y="307.584" style="stroke: #000000; stroke-width: 0.8"/>
      </g>
     </g>
     <g id="text_10">
      <!-- 0.9 -->
      <g transform="translate(308.39515 321.385562) scale(0.1 -0.1)">
       <defs>
        <path id="Calibri-39" d="M 2919 2181 
Q 2919 1919 2887 1650 
Q 2856 1381 2781 1132 
Q 2706 884 2579 667 
Q 2453 450 2261 287 
Q 2069 125 1805 33 
Q 1541 -59 1191 -59 
Q 1056 -59 929 -42 
Q 803 -25 701 0 
Q 600 25 531 53 
Q 463 81 431 109 
Q 400 138 386 186 
Q 372 234 372 316 
Q 372 384 376 425 
Q 381 466 390 487 
Q 400 509 417 517 
Q 434 525 459 525 
Q 494 525 556 501 
Q 619 478 714 450 
Q 809 422 937 398 
Q 1066 375 1225 375 
Q 1528 375 1745 492 
Q 1963 609 2100 806 
Q 2238 1003 2306 1262 
Q 2375 1522 2381 1809 
Q 2216 1713 1984 1638 
Q 1753 1563 1453 1563 
Q 1116 1563 886 1655 
Q 656 1747 517 1906 
Q 378 2066 317 2284 
Q 256 2503 256 2763 
Q 256 3031 334 3273 
Q 413 3516 578 3700 
Q 744 3884 1000 3993 
Q 1256 4103 1613 4103 
Q 1866 4103 2061 4039 
Q 2256 3975 2400 3854 
Q 2544 3734 2644 3564 
Q 2744 3394 2805 3178 
Q 2866 2963 2892 2711 
Q 2919 2459 2919 2181 
z
M 2372 2241 
Q 2372 2641 2319 2914 
Q 2266 3188 2162 3356 
Q 2059 3525 1909 3600 
Q 1759 3675 1563 3675 
Q 1359 3675 1215 3601 
Q 1072 3528 980 3404 
Q 888 3281 844 3125 
Q 800 2969 800 2803 
Q 800 2619 839 2466 
Q 878 2313 965 2206 
Q 1053 2100 1193 2042 
Q 1334 1984 1541 1984 
Q 1775 1984 1994 2054 
Q 2213 2125 2372 2241 
z
" transform="scale(0.015625)"/>
       </defs>
       <use xlink:href="#Calibri-30"/>
       <use xlink:href="#Calibri-2e" x="50.683594"/>
       <use xlink:href="#Calibri-39" x="75.927734"/>
      </g>
     </g>
    </g>
    <g id="xtick_11">
     <g id="line2d_11">
      <g>
       <use xlink:href="#m8276076fc2" x="343.296" y="307.584" style="stroke: #000000; stroke-width: 0.8"/>
      </g>
     </g>
     <g id="text_11">
      <!-- 1.0 -->
      <g transform="translate(336.96475 321.385562) scale(0.1 -0.1)">
       <use xlink:href="#Calibri-31"/>
       <use xlink:href="#Calibri-2e" x="50.683594"/>
       <use xlink:href="#Calibri-30" x="75.927734"/>
      </g>
     </g>
    </g>
    <g id="text_12">
     <!-- $\mathit{p}$ (cm$^2$/cm$^2$) -->
     <g transform="translate(174.148 336.263687) scale(0.1 -0.1)">
      <defs>
       <path id="DejaVuSans-Oblique-70" d="M 3175 2156 
Q 3175 2616 2975 2859 
Q 2775 3103 2400 3103 
Q 2144 3103 1911 2972 
Q 1678 2841 1497 2591 
Q 1319 2344 1212 1994 
Q 1106 1644 1106 1300 
Q 1106 863 1306 627 
Q 1506 391 1875 391 
Q 2147 391 2380 519 
Q 2613 647 2778 891 
Q 2956 1147 3065 1494 
Q 3175 1841 3175 2156 
z
M 1394 2969 
Q 1625 3272 1939 3428 
Q 2253 3584 2638 3584 
Q 3175 3584 3472 3232 
Q 3769 2881 3769 2247 
Q 3769 1728 3584 1258 
Q 3400 788 3053 416 
Q 2822 169 2531 39 
Q 2241 -91 1919 -91 
Q 1547 -91 1294 64 
Q 1041 219 916 525 
L 556 -1331 
L -19 -1331 
L 922 3500 
L 1497 3500 
L 1394 2969 
z
" transform="scale(0.015625)"/>
       <path id="Calibri-20" transform="scale(0.015625)"/>
       <path id="Calibri-28" d="M 1547 4306 
Q 1250 3678 1104 3017 
Q 959 2356 959 1688 
Q 959 1016 1107 356 
Q 1256 -303 1541 -938 
Q 1556 -975 1557 -1001 
Q 1559 -1028 1537 -1045 
Q 1516 -1063 1470 -1070 
Q 1425 -1078 1347 -1078 
Q 1291 -1078 1250 -1075 
Q 1209 -1072 1179 -1062 
Q 1150 -1053 1131 -1040 
Q 1113 -1028 1103 -1013 
Q 934 -694 806 -367 
Q 678 -41 590 296 
Q 503 634 459 979 
Q 416 1325 416 1678 
Q 416 2031 464 2375 
Q 513 2719 602 3058 
Q 691 3397 819 3725 
Q 947 4053 1106 4375 
Q 1109 4388 1123 4397 
Q 1138 4406 1163 4415 
Q 1188 4425 1231 4429 
Q 1275 4434 1344 4434 
Q 1416 4434 1459 4425 
Q 1503 4416 1528 4400 
Q 1553 4384 1556 4359 
Q 1559 4334 1547 4306 
z
" transform="scale(0.015625)"/>
       <path id="Calibri-63" d="M 2500 506 
Q 2500 453 2497 414 
Q 2494 375 2486 348 
Q 2478 322 2467 301 
Q 2456 281 2417 242 
Q 2378 203 2284 145 
Q 2191 88 2073 42 
Q 1956 -3 1818 -31 
Q 1681 -59 1534 -59 
Q 1231 -59 997 41 
Q 763 141 605 333 
Q 447 525 364 804 
Q 281 1084 281 1450 
Q 281 1866 382 2164 
Q 484 2463 661 2653 
Q 838 2844 1077 2936 
Q 1316 3028 1594 3028 
Q 1728 3028 1854 3003 
Q 1981 2978 2087 2937 
Q 2194 2897 2276 2844 
Q 2359 2791 2396 2753 
Q 2434 2716 2448 2694 
Q 2463 2672 2472 2642 
Q 2481 2613 2484 2575 
Q 2488 2538 2488 2481 
Q 2488 2359 2459 2311 
Q 2431 2263 2391 2263 
Q 2344 2263 2283 2314 
Q 2222 2366 2128 2428 
Q 2034 2491 1901 2542 
Q 1769 2594 1588 2594 
Q 1216 2594 1017 2308 
Q 819 2022 819 1478 
Q 819 1206 870 1001 
Q 922 797 1022 659 
Q 1122 522 1267 455 
Q 1413 388 1600 388 
Q 1778 388 1912 444 
Q 2047 500 2145 567 
Q 2244 634 2311 689 
Q 2378 744 2416 744 
Q 2438 744 2453 731 
Q 2469 719 2480 689 
Q 2491 659 2495 614 
Q 2500 569 2500 506 
z
" transform="scale(0.015625)"/>
       <path id="Calibri-6d" d="M 4650 78 
Q 4650 53 4637 36 
Q 4625 19 4597 6 
Q 4569 -6 4519 -12 
Q 4469 -19 4394 -19 
Q 4316 -19 4266 -12 
Q 4216 -6 4186 6 
Q 4156 19 4143 36 
Q 4131 53 4131 78 
L 4131 1788 
Q 4131 1966 4100 2112 
Q 4069 2259 4000 2365 
Q 3931 2472 3825 2528 
Q 3719 2584 3575 2584 
Q 3397 2584 3217 2446 
Q 3038 2309 2822 2044 
L 2822 78 
Q 2822 53 2809 36 
Q 2797 19 2767 6 
Q 2738 -6 2688 -12 
Q 2638 -19 2563 -19 
Q 2491 -19 2439 -12 
Q 2388 -6 2358 6 
Q 2328 19 2317 36 
Q 2306 53 2306 78 
L 2306 1788 
Q 2306 1966 2272 2112 
Q 2238 2259 2169 2365 
Q 2100 2472 1995 2528 
Q 1891 2584 1747 2584 
Q 1569 2584 1387 2446 
Q 1206 2309 994 2044 
L 994 78 
Q 994 53 981 36 
Q 969 19 941 6 
Q 913 -6 863 -12 
Q 813 -19 734 -19 
Q 659 -19 609 -12 
Q 559 -6 529 6 
Q 500 19 489 36 
Q 478 53 478 78 
L 478 2891 
Q 478 2916 487 2933 
Q 497 2950 525 2964 
Q 553 2978 597 2983 
Q 641 2988 713 2988 
Q 781 2988 826 2983 
Q 872 2978 897 2964 
Q 922 2950 933 2933 
Q 944 2916 944 2891 
L 944 2519 
Q 1181 2784 1404 2907 
Q 1628 3031 1856 3031 
Q 2031 3031 2170 2990 
Q 2309 2950 2415 2876 
Q 2522 2803 2597 2701 
Q 2672 2600 2722 2475 
Q 2863 2628 2989 2734 
Q 3116 2841 3233 2906 
Q 3350 2972 3461 3001 
Q 3572 3031 3684 3031 
Q 3956 3031 4140 2936 
Q 4325 2841 4439 2681 
Q 4553 2522 4601 2308 
Q 4650 2094 4650 1856 
L 4650 78 
z
" transform="scale(0.015625)"/>
       <path id="DejaVuSans-32" d="M 1228 531 
L 3431 531 
L 3431 0 
L 469 0 
L 469 531 
Q 828 903 1448 1529 
Q 2069 2156 2228 2338 
Q 2531 2678 2651 2914 
Q 2772 3150 2772 3378 
Q 2772 3750 2511 3984 
Q 2250 4219 1831 4219 
Q 1534 4219 1204 4116 
Q 875 4013 500 3803 
L 500 4441 
Q 881 4594 1212 4672 
Q 1544 4750 1819 4750 
Q 2544 4750 2975 4387 
Q 3406 4025 3406 3419 
Q 3406 3131 3298 2873 
Q 3191 2616 2906 2266 
Q 2828 2175 2409 1742 
Q 1991 1309 1228 531 
z
" transform="scale(0.015625)"/>
       <path id="Calibri-2f" d="M 525 -753 
Q 513 -794 492 -817 
Q 472 -841 440 -853 
Q 409 -866 364 -872 
Q 319 -878 253 -878 
Q 175 -878 123 -867 
Q 72 -856 44 -836 
Q 16 -816 9 -786 
Q 3 -756 22 -716 
L 1913 4469 
Q 1925 4509 1945 4532 
Q 1966 4556 1995 4570 
Q 2025 4584 2072 4589 
Q 2119 4594 2184 4594 
Q 2263 4594 2313 4583 
Q 2363 4572 2391 4553 
Q 2419 4534 2425 4503 
Q 2431 4472 2416 4431 
L 525 -753 
z
" transform="scale(0.015625)"/>
       <path id="Calibri-29" d="M 1522 1678 
Q 1522 1325 1478 979 
Q 1434 634 1346 296 
Q 1259 -41 1132 -367 
Q 1006 -694 838 -1013 
Q 828 -1028 809 -1040 
Q 791 -1053 761 -1062 
Q 731 -1072 690 -1075 
Q 650 -1078 594 -1078 
Q 513 -1078 467 -1070 
Q 422 -1063 401 -1045 
Q 381 -1028 382 -1001 
Q 384 -975 400 -938 
Q 688 -306 834 355 
Q 981 1016 981 1688 
Q 981 2356 834 3017 
Q 688 3678 394 4306 
Q 381 4334 384 4359 
Q 388 4384 413 4400 
Q 438 4416 481 4425 
Q 525 4434 597 4434 
Q 663 4434 706 4429 
Q 750 4425 776 4415 
Q 803 4406 815 4397 
Q 828 4388 834 4375 
Q 1156 3734 1339 3057 
Q 1522 2381 1522 1678 
z
" transform="scale(0.015625)"/>
      </defs>
      <use xlink:href="#DejaVuSans-Oblique-70" transform="translate(0 0.765625)"/>
      <use xlink:href="#Calibri-20" transform="translate(63.476562 0.765625)"/>
      <use xlink:href="#Calibri-28" transform="translate(84.958984 0.765625)"/>
      <use xlink:href="#Calibri-63" transform="translate(115.28125 0.765625)"/>
      <use xlink:href="#Calibri-6d" transform="translate(157.566406 0.765625)"/>
      <use xlink:href="#DejaVuSans-32" transform="translate(238.40625 39.046875) scale(0.7)"/>
      <use xlink:href="#Calibri-2f" transform="translate(285.676758 0.765625)"/>
      <use xlink:href="#Calibri-63" transform="translate(324.299805 0.765625)"/>
      <use xlink:href="#Calibri-6d" transform="translate(366.584961 0.765625)"/>
      <use xlink:href="#DejaVuSans-32" transform="translate(447.424805 39.046875) scale(0.7)"/>
      <use xlink:href="#Calibri-29" transform="translate(494.695312 0.765625)"/>
     </g>
    </g>
   </g>
   <g id="matplotlib.axis_2">
    <g id="ytick_1">
     <g id="line2d_12">
      <defs>
       <path id="m8734d8dc5a" d="M 0 0 
L -3.5 0 
" style="stroke: #000000; stroke-width: 0.8"/>
      </defs>
      <g>
       <use xlink:href="#m8734d8dc5a" x="57.6" y="275.65056" style="stroke: #000000; stroke-width: 0.8"/>
      </g>
     </g>
     <g id="text_13">
      <!-- 25 -->
      <g transform="translate(40.4625 279.051341) scale(0.1 -0.1)">
       <use xlink:href="#Calibri-32"/>
       <use xlink:href="#Calibri-35" x="50.683594"/>
      </g>
     </g>
    </g>
    <g id="ytick_2">
     <g id="line2d_13">
      <g>
       <use xlink:href="#m8734d8dc5a" x="57.6" y="242.38656" style="stroke: #000000; stroke-width: 0.8"/>
      </g>
     </g>
     <g id="text_14">
      <!-- 50 -->
      <g transform="translate(40.4625 245.787341) scale(0.1 -0.1)">
       <use xlink:href="#Calibri-35"/>
       <use xlink:href="#Calibri-30" x="50.683594"/>
      </g>
     </g>
    </g>
    <g id="ytick_3">
     <g id="line2d_14">
      <g>
       <use xlink:href="#m8734d8dc5a" x="57.6" y="209.12256" style="stroke: #000000; stroke-width: 0.8"/>
      </g>
     </g>
     <g id="text_15">
      <!-- 75 -->
      <g transform="translate(40.4625 212.523341) scale(0.1 -0.1)">
       <use xlink:href="#Calibri-37"/>
       <use xlink:href="#Calibri-35" x="50.683594"/>
      </g>
     </g>
    </g>
    <g id="ytick_4">
     <g id="line2d_15">
      <g>
       <use xlink:href="#m8734d8dc5a" x="57.6" y="175.85856" style="stroke: #000000; stroke-width: 0.8"/>
      </g>
     </g>
     <g id="text_16">
      <!-- 100 -->
      <g transform="translate(35.39375 179.259341) scale(0.1 -0.1)">
       <use xlink:href="#Calibri-31"/>
       <use xlink:href="#Calibri-30" x="50.683594"/>
       <use xlink:href="#Calibri-30" x="101.367188"/>
      </g>
     </g>
    </g>
    <g id="ytick_5">
     <g id="line2d_16">
      <g>
       <use xlink:href="#m8734d8dc5a" x="57.6" y="142.59456" style="stroke: #000000; stroke-width: 0.8"/>
      </g>
     </g>
     <g id="text_17">
      <!-- 125 -->
      <g transform="translate(35.39375 145.995341) scale(0.1 -0.1)">
       <use xlink:href="#Calibri-31"/>
       <use xlink:href="#Calibri-32" x="50.683594"/>
       <use xlink:href="#Calibri-35" x="101.367188"/>
      </g>
     </g>
    </g>
    <g id="ytick_6">
     <g id="line2d_17">
      <g>
       <use xlink:href="#m8734d8dc5a" x="57.6" y="109.33056" style="stroke: #000000; stroke-width: 0.8"/>
      </g>
     </g>
     <g id="text_18">
      <!-- 150 -->
      <g transform="translate(35.39375 112.731341) scale(0.1 -0.1)">
       <use xlink:href="#Calibri-31"/>
       <use xlink:href="#Calibri-35" x="50.683594"/>
       <use xlink:href="#Calibri-30" x="101.367188"/>
      </g>
     </g>
    </g>
    <g id="ytick_7">
     <g id="line2d_18">
      <g>
       <use xlink:href="#m8734d8dc5a" x="57.6" y="76.06656" style="stroke: #000000; stroke-width: 0.8"/>
      </g>
     </g>
     <g id="text_19">
      <!-- 175 -->
      <g transform="translate(35.39375 79.467341) scale(0.1 -0.1)">
       <use xlink:href="#Calibri-31"/>
       <use xlink:href="#Calibri-37" x="50.683594"/>
       <use xlink:href="#Calibri-35" x="101.367188"/>
      </g>
     </g>
    </g>
    <g id="ytick_8">
     <g id="line2d_19">
      <g>
       <use xlink:href="#m8734d8dc5a" x="57.6" y="42.80256" style="stroke: #000000; stroke-width: 0.8"/>
      </g>
     </g>
     <g id="text_20">
      <!-- 200 -->
      <g transform="translate(35.39375 46.203341) scale(0.1 -0.1)">
       <use xlink:href="#Calibri-32"/>
       <use xlink:href="#Calibri-30" x="50.683594"/>
       <use xlink:href="#Calibri-30" x="101.367188"/>
      </g>
     </g>
    </g>
    <g id="text_21">
     <!-- $\mathit{Z}$$_{a}$ (nm) -->
     <g transform="translate(29.59375 191.028) rotate(-90) scale(0.1 -0.1)">
      <defs>
       <path id="DejaVuSans-Oblique-5a" d="M 838 4666 
L 4500 4666 
L 4409 4184 
L 794 531 
L 3769 531 
L 3669 0 
L -141 0 
L -50 481 
L 3566 4134 
L 738 4134 
L 838 4666 
z
" transform="scale(0.015625)"/>
       <path id="DejaVuSans-Oblique-61" d="M 3438 1997 
L 3047 0 
L 2472 0 
L 2578 531 
Q 2325 219 2001 64 
Q 1678 -91 1281 -91 
Q 834 -91 548 182 
Q 263 456 263 884 
Q 263 1497 752 1853 
Q 1241 2209 2100 2209 
L 2900 2209 
L 2931 2363 
Q 2938 2388 2941 2417 
Q 2944 2447 2944 2509 
Q 2944 2788 2717 2942 
Q 2491 3097 2081 3097 
Q 1800 3097 1504 3025 
Q 1209 2953 897 2809 
L 997 3341 
Q 1322 3463 1633 3523 
Q 1944 3584 2234 3584 
Q 2853 3584 3176 3315 
Q 3500 3047 3500 2534 
Q 3500 2431 3484 2292 
Q 3469 2153 3438 1997 
z
M 2816 1759 
L 2241 1759 
Q 1534 1759 1195 1570 
Q 856 1381 856 984 
Q 856 709 1029 553 
Q 1203 397 1509 397 
Q 1978 397 2328 733 
Q 2678 1069 2791 1631 
L 2816 1759 
z
" transform="scale(0.015625)"/>
       <path id="Calibri-6e" d="M 2900 78 
Q 2900 53 2887 36 
Q 2875 19 2847 6 
Q 2819 -6 2769 -12 
Q 2719 -19 2644 -19 
Q 2566 -19 2516 -12 
Q 2466 -6 2437 6 
Q 2409 19 2396 36 
Q 2384 53 2384 78 
L 2384 1725 
Q 2384 1966 2346 2112 
Q 2309 2259 2237 2365 
Q 2166 2472 2052 2528 
Q 1938 2584 1788 2584 
Q 1594 2584 1400 2446 
Q 1206 2309 994 2044 
L 994 78 
Q 994 53 981 36 
Q 969 19 941 6 
Q 913 -6 863 -12 
Q 813 -19 734 -19 
Q 659 -19 609 -12 
Q 559 -6 529 6 
Q 500 19 489 36 
Q 478 53 478 78 
L 478 2891 
Q 478 2916 487 2933 
Q 497 2950 525 2964 
Q 553 2978 597 2983 
Q 641 2988 713 2988 
Q 781 2988 826 2983 
Q 872 2978 897 2964 
Q 922 2950 933 2933 
Q 944 2916 944 2891 
L 944 2519 
Q 1181 2784 1417 2907 
Q 1653 3031 1894 3031 
Q 2175 3031 2367 2936 
Q 2559 2841 2678 2681 
Q 2797 2522 2848 2308 
Q 2900 2094 2900 1794 
L 2900 78 
z
" transform="scale(0.015625)"/>
      </defs>
      <use xlink:href="#DejaVuSans-Oblique-5a" transform="translate(0 0.09375)"/>
      <use xlink:href="#DejaVuSans-Oblique-61" transform="translate(69.462891 -16.3125) scale(0.7)"/>
      <use xlink:href="#Calibri-20" transform="translate(115.092773 0.09375)"/>
      <use xlink:href="#Calibri-28" transform="translate(136.575195 0.09375)"/>
      <use xlink:href="#Calibri-6e" transform="translate(166.897461 0.09375)"/>
      <use xlink:href="#Calibri-6d" transform="translate(219.436523 0.09375)"/>
      <use xlink:href="#Calibri-29" transform="translate(299.319336 0.09375)"/>
     </g>
    </g>
   </g>
   <g id="patch_3">
    <path d="M 57.6 307.584 
L 57.6 41.472 
" style="fill: none; stroke: #000000; stroke-width: 0.8; stroke-linejoin: miter; stroke-linecap: square"/>
   </g>
   <g id="patch_4">
    <path d="M 343.296 307.584 
L 343.296 41.472 
" style="fill: none; stroke: #000000; stroke-width: 0.8; stroke-linejoin: miter; stroke-linecap: square"/>
   </g>
   <g id="patch_5">
    <path d="M 57.6 307.584 
L 343.296 307.584 
" style="fill: none; stroke: #000000; stroke-width: 0.8; stroke-linejoin: miter; stroke-linecap: square"/>
   </g>
   <g id="patch_6">
    <path d="M 57.6 41.472 
L 343.296 41.472 
" style="fill: none; stroke: #000000; stroke-width: 0.8; stroke-linejoin: miter; stroke-linecap: square"/>
   </g>
   <g id="text_22">
    <!-- $\lambda$ = 645 nm -->
    <g transform="translate(177.348 35.472) scale(0.1 -0.1)">
     <defs>
      <path id="DejaVuSans-Oblique-3bb" d="M 2350 4316 
L 3125 0 
L 2516 0 
L 2038 2588 
L 328 0 
L -281 0 
L 1903 3356 
L 1794 3975 
Q 1725 4369 1391 4369 
L 1091 4369 
L 1184 4863 
L 1550 4856 
Q 2253 4847 2350 4316 
z
" transform="scale(0.015625)"/>
      <path id="Calibri-3d" d="M 2891 2409 
Q 2891 2284 2855 2236 
Q 2819 2188 2772 2188 
L 409 2188 
Q 363 2188 328 2236 
Q 294 2284 294 2409 
Q 294 2522 325 2575 
Q 356 2628 409 2628 
L 2772 2628 
Q 2828 2628 2859 2575 
Q 2891 2522 2891 2409 
z
M 2891 1194 
Q 2891 1069 2855 1022 
Q 2819 975 2772 975 
L 409 975 
Q 363 975 328 1022 
Q 294 1069 294 1194 
Q 294 1309 325 1362 
Q 356 1416 409 1416 
L 2772 1416 
Q 2828 1416 2859 1362 
Q 2891 1309 2891 1194 
z
" transform="scale(0.015625)"/>
     </defs>
     <use xlink:href="#DejaVuSans-Oblique-3bb" transform="translate(0 0.015625)"/>
     <use xlink:href="#Calibri-20" transform="translate(59.179688 0.015625)"/>
     <use xlink:href="#Calibri-3d" transform="translate(81.787109 0.015625)"/>
     <use xlink:href="#Calibri-20" transform="translate(131.591797 0.015625)"/>
     <use xlink:href="#Calibri-36" transform="translate(154.199219 0.015625)"/>
     <use xlink:href="#Calibri-34" transform="translate(204.882812 0.015625)"/>
     <use xlink:href="#Calibri-35" transform="translate(255.566406 0.015625)"/>
     <use xlink:href="#Calibri-20" transform="translate(306.25 0.015625)"/>
     <use xlink:href="#Calibri-6e" transform="translate(328.857422 0.015625)"/>
     <use xlink:href="#Calibri-6d" transform="translate(381.396484 0.015625)"/>
    </g>
   </g>
  </g>
  <g id="axes_2">
   <g id="patch_7">
    <path d="M 361.152 307.584 
L 374.4576 307.584 
L 374.4576 41.472 
L 361.152 41.472 
z
" style="fill: #ffffff"/>
   </g>
   <g id="QuadMesh_1">
    <path d="M 361.152 307.584 
L 374.4576 307.584 
L 374.4576 280.9728 
L 361.152 280.9728 
L 361.152 307.584 
" clip-path="url(#pbb60482498)" style="fill: #0000b6"/>
    <path d="M 361.152 280.9728 
L 374.4576 280.9728 
L 374.4576 254.3616 
L 361.152 254.3616 
L 361.152 280.9728 
" clip-path="url(#pbb60482498)" style="fill: #0018ff"/>
    <path d="M 361.152 254.3616 
L 374.4576 254.3616 
L 374.4576 227.7504 
L 361.152 227.7504 
L 361.152 254.3616 
" clip-path="url(#pbb60482498)" style="fill: #0080ff"/>
    <path d="M 361.152 227.7504 
L 374.4576 227.7504 
L 374.4576 201.1392 
L 361.152 201.1392 
L 361.152 227.7504 
" clip-path="url(#pbb60482498)" style="fill: #00e4f8"/>
    <path d="M 361.152 201.1392 
L 374.4576 201.1392 
L 374.4576 174.528 
L 361.152 174.528 
L 361.152 201.1392 
" clip-path="url(#pbb60482498)" style="fill: #53ffa4"/>
    <path d="M 361.152 174.528 
L 374.4576 174.528 
L 374.4576 147.9168 
L 361.152 147.9168 
L 361.152 174.528 
" clip-path="url(#pbb60482498)" style="fill: #a4ff53"/>
    <path d="M 361.152 147.9168 
L 374.4576 147.9168 
L 374.4576 121.3056 
L 361.152 121.3056 
L 361.152 147.9168 
" clip-path="url(#pbb60482498)" style="fill: #f8f500"/>
    <path d="M 361.152 121.3056 
L 374.4576 121.3056 
L 374.4576 94.6944 
L 361.152 94.6944 
L 361.152 121.3056 
" clip-path="url(#pbb60482498)" style="fill: #ff9400"/>
    <path d="M 361.152 94.6944 
L 374.4576 94.6944 
L 374.4576 68.0832 
L 361.152 68.0832 
L 361.152 94.6944 
" clip-path="url(#pbb60482498)" style="fill: #ff3800"/>
    <path d="M 361.152 68.0832 
L 374.4576 68.0832 
L 374.4576 41.472 
L 361.152 41.472 
L 361.152 68.0832 
" clip-path="url(#pbb60482498)" style="fill: #b60000"/>
   </g>
   <g id="matplotlib.axis_3"/>
   <g id="matplotlib.axis_4">
    <g id="ytick_9">
     <g id="line2d_20">
      <defs>
       <path id="m2395e9c542" d="M 0 0 
L 3.5 0 
" style="stroke: #000000; stroke-width: 0.8"/>
      </defs>
      <g>
       <use xlink:href="#m2395e9c542" x="374.4576" y="307.584" style="stroke: #000000; stroke-width: 0.8"/>
      </g>
     </g>
     <g id="text_23">
      <!-- 0 -->
      <g transform="translate(381.4576 310.984781) scale(0.1 -0.1)">
       <use xlink:href="#Calibri-30"/>
      </g>
     </g>
    </g>
    <g id="ytick_10">
     <g id="line2d_21">
      <g>
       <use xlink:href="#m2395e9c542" x="374.4576" y="280.9728" style="stroke: #000000; stroke-width: 0.8"/>
      </g>
     </g>
     <g id="text_24">
      <!-- 0.1 -->
      <g transform="translate(381.4576 284.373581) scale(0.1 -0.1)">
       <use xlink:href="#Calibri-30"/>
       <use xlink:href="#Calibri-2e" x="50.683594"/>
       <use xlink:href="#Calibri-31" x="75.927734"/>
      </g>
     </g>
    </g>
    <g id="ytick_11">
     <g id="line2d_22">
      <g>
       <use xlink:href="#m2395e9c542" x="374.4576" y="254.3616" style="stroke: #000000; stroke-width: 0.8"/>
      </g>
     </g>
     <g id="text_25">
      <!-- 0.2 -->
      <g transform="translate(381.4576 257.762381) scale(0.1 -0.1)">
       <use xlink:href="#Calibri-30"/>
       <use xlink:href="#Calibri-2e" x="50.683594"/>
       <use xlink:href="#Calibri-32" x="75.927734"/>
      </g>
     </g>
    </g>
    <g id="ytick_12">
     <g id="line2d_23">
      <g>
       <use xlink:href="#m2395e9c542" x="374.4576" y="227.7504" style="stroke: #000000; stroke-width: 0.8"/>
      </g>
     </g>
     <g id="text_26">
      <!-- 0.3 -->
      <g transform="translate(381.4576 231.151181) scale(0.1 -0.1)">
       <use xlink:href="#Calibri-30"/>
       <use xlink:href="#Calibri-2e" x="50.683594"/>
       <use xlink:href="#Calibri-33" x="75.927734"/>
      </g>
     </g>
    </g>
    <g id="ytick_13">
     <g id="line2d_24">
      <g>
       <use xlink:href="#m2395e9c542" x="374.4576" y="201.1392" style="stroke: #000000; stroke-width: 0.8"/>
      </g>
     </g>
     <g id="text_27">
      <!-- 0.4 -->
      <g transform="translate(381.4576 204.539981) scale(0.1 -0.1)">
       <use xlink:href="#Calibri-30"/>
       <use xlink:href="#Calibri-2e" x="50.683594"/>
       <use xlink:href="#Calibri-34" x="75.927734"/>
      </g>
     </g>
    </g>
    <g id="ytick_14">
     <g id="line2d_25">
      <g>
       <use xlink:href="#m2395e9c542" x="374.4576" y="174.528" style="stroke: #000000; stroke-width: 0.8"/>
      </g>
     </g>
     <g id="text_28">
      <!-- 0.5 -->
      <g transform="translate(381.4576 177.928781) scale(0.1 -0.1)">
       <use xlink:href="#Calibri-30"/>
       <use xlink:href="#Calibri-2e" x="50.683594"/>
       <use xlink:href="#Calibri-35" x="75.927734"/>
      </g>
     </g>
    </g>
    <g id="ytick_15">
     <g id="line2d_26">
      <g>
       <use xlink:href="#m2395e9c542" x="374.4576" y="147.9168" style="stroke: #000000; stroke-width: 0.8"/>
      </g>
     </g>
     <g id="text_29">
      <!-- 0.6 -->
      <g transform="translate(381.4576 151.317581) scale(0.1 -0.1)">
       <use xlink:href="#Calibri-30"/>
       <use xlink:href="#Calibri-2e" x="50.683594"/>
       <use xlink:href="#Calibri-36" x="75.927734"/>
      </g>
     </g>
    </g>
    <g id="ytick_16">
     <g id="line2d_27">
      <g>
       <use xlink:href="#m2395e9c542" x="374.4576" y="121.3056" style="stroke: #000000; stroke-width: 0.8"/>
      </g>
     </g>
     <g id="text_30">
      <!-- 0.7 -->
      <g transform="translate(381.4576 124.706381) scale(0.1 -0.1)">
       <use xlink:href="#Calibri-30"/>
       <use xlink:href="#Calibri-2e" x="50.683594"/>
       <use xlink:href="#Calibri-37" x="75.927734"/>
      </g>
     </g>
    </g>
    <g id="ytick_17">
     <g id="line2d_28">
      <g>
       <use xlink:href="#m2395e9c542" x="374.4576" y="94.6944" style="stroke: #000000; stroke-width: 0.8"/>
      </g>
     </g>
     <g id="text_31">
      <!-- 0.8 -->
      <g transform="translate(381.4576 98.095181) scale(0.1 -0.1)">
       <use xlink:href="#Calibri-30"/>
       <use xlink:href="#Calibri-2e" x="50.683594"/>
       <use xlink:href="#Calibri-38" x="75.927734"/>
      </g>
     </g>
    </g>
    <g id="ytick_18">
     <g id="line2d_29">
      <g>
       <use xlink:href="#m2395e9c542" x="374.4576" y="68.0832" style="stroke: #000000; stroke-width: 0.8"/>
      </g>
     </g>
     <g id="text_32">
      <!-- 0.9 -->
      <g transform="translate(381.4576 71.483981) scale(0.1 -0.1)">
       <use xlink:href="#Calibri-30"/>
       <use xlink:href="#Calibri-2e" x="50.683594"/>
       <use xlink:href="#Calibri-39" x="75.927734"/>
      </g>
     </g>
    </g>
    <g id="ytick_19">
     <g id="line2d_30">
      <g>
       <use xlink:href="#m2395e9c542" x="374.4576" y="41.472" style="stroke: #000000; stroke-width: 0.8"/>
      </g>
     </g>
     <g id="text_33">
      <!-- 1.0 -->
      <g transform="translate(381.4576 44.872781) scale(0.1 -0.1)">
       <use xlink:href="#Calibri-31"/>
       <use xlink:href="#Calibri-2e" x="50.683594"/>
       <use xlink:href="#Calibri-30" x="75.927734"/>
      </g>
     </g>
    </g>
   </g>
   <g id="LineCollection_1"/>
   <g id="patch_8">
    <path d="M 361.152 307.584 
L 367.8048 307.584 
L 374.4576 307.584 
L 374.4576 41.472 
L 367.8048 41.472 
L 361.152 41.472 
L 361.152 307.584 
z
" style="fill: none; stroke: #000000; stroke-width: 0.8; stroke-linejoin: miter; stroke-linecap: square"/>
   </g>
   <g id="text_34">
    <!-- $\mathit{E}_{\mathrm{dis}}$/$\mathit{E}_{\mathrm{i}}$ -->
    <g transform="translate(353.2548 35.472) scale(0.1 -0.1)">
     <defs>
      <path id="DejaVuSans-Oblique-45" d="M 1081 4666 
L 4031 4666 
L 3928 4134 
L 1606 4134 
L 1338 2753 
L 3566 2753 
L 3463 2222 
L 1234 2222 
L 909 531 
L 3284 531 
L 3181 0 
L 172 0 
L 1081 4666 
z
" transform="scale(0.015625)"/>
      <path id="DejaVuSans-64" d="M 2906 2969 
L 2906 4863 
L 3481 4863 
L 3481 0 
L 2906 0 
L 2906 525 
Q 2725 213 2448 61 
Q 2172 -91 1784 -91 
Q 1150 -91 751 415 
Q 353 922 353 1747 
Q 353 2572 751 3078 
Q 1150 3584 1784 3584 
Q 2172 3584 2448 3432 
Q 2725 3281 2906 2969 
z
M 947 1747 
Q 947 1113 1208 752 
Q 1469 391 1925 391 
Q 2381 391 2643 752 
Q 2906 1113 2906 1747 
Q 2906 2381 2643 2742 
Q 2381 3103 1925 3103 
Q 1469 3103 1208 2742 
Q 947 2381 947 1747 
z
" transform="scale(0.015625)"/>
      <path id="DejaVuSans-69" d="M 603 3500 
L 1178 3500 
L 1178 0 
L 603 0 
L 603 3500 
z
M 603 4863 
L 1178 4863 
L 1178 4134 
L 603 4134 
L 603 4863 
z
" transform="scale(0.015625)"/>
      <path id="DejaVuSans-73" d="M 2834 3397 
L 2834 2853 
Q 2591 2978 2328 3040 
Q 2066 3103 1784 3103 
Q 1356 3103 1142 2972 
Q 928 2841 928 2578 
Q 928 2378 1081 2264 
Q 1234 2150 1697 2047 
L 1894 2003 
Q 2506 1872 2764 1633 
Q 3022 1394 3022 966 
Q 3022 478 2636 193 
Q 2250 -91 1575 -91 
Q 1294 -91 989 -36 
Q 684 19 347 128 
L 347 722 
Q 666 556 975 473 
Q 1284 391 1588 391 
Q 1994 391 2212 530 
Q 2431 669 2431 922 
Q 2431 1156 2273 1281 
Q 2116 1406 1581 1522 
L 1381 1569 
Q 847 1681 609 1914 
Q 372 2147 372 2553 
Q 372 3047 722 3315 
Q 1072 3584 1716 3584 
Q 2034 3584 2315 3537 
Q 2597 3491 2834 3397 
z
" transform="scale(0.015625)"/>
     </defs>
     <use xlink:href="#DejaVuSans-Oblique-45" transform="translate(0 0.09375)"/>
     <use xlink:href="#DejaVuSans-64" transform="translate(63.183594 -16.3125) scale(0.7)"/>
     <use xlink:href="#DejaVuSans-69" transform="translate(107.617188 -16.3125) scale(0.7)"/>
     <use xlink:href="#DejaVuSans-73" transform="translate(127.06543 -16.3125) scale(0.7)"/>
     <use xlink:href="#Calibri-2f" transform="translate(166.269531 0.09375)"/>
     <use xlink:href="#DejaVuSans-Oblique-45" transform="translate(204.892578 0.09375)"/>
     <use xlink:href="#DejaVuSans-69" transform="translate(268.076172 -16.3125) scale(0.7)"/>
    </g>
   </g>
  </g>
 </g>
 <defs>
  <clipPath id="p1e36b1161d">
   <rect x="57.6" y="41.472" width="285.696" height="266.112"/>
  </clipPath>
  <clipPath id="pbb60482498">
   <rect x="361.152" y="41.472" width="13.3056" height="266.112"/>
  </clipPath>
 </defs>
</svg>
