<?xml version="1.0" encoding="utf-8" standalone="no"?>
<!DOCTYPE svg PUBLIC "-//W3C//DTD SVG 1.1//EN"
  "http://www.w3.org/Graphics/SVG/1.1/DTD/svg11.dtd">
<svg xmlns:xlink="http://www.w3.org/1999/xlink" width="460.8pt" height="345.6pt" viewBox="0 0 460.8 345.6" xmlns="http://www.w3.org/2000/svg" version="1.1">
 <metadata>
  <rdf:RDF xmlns:dc="http://purl.org/dc/elements/1.1/" xmlns:cc="http://creativecommons.org/ns#" xmlns:rdf="http://www.w3.org/1999/02/22-rdf-syntax-ns#">
   <cc:Work>
    <dc:type rdf:resource="http://purl.org/dc/dcmitype/StillImage"/>
    <dc:date>2024-01-22T08:49:07.884761</dc:date>
    <dc:format>image/svg+xml</dc:format>
    <dc:creator>
     <cc:Agent>
      <dc:title>Matplotlib v3.7.1, https://matplotlib.org/</dc:title>
     </cc:Agent>
    </dc:creator>
   </cc:Work>
  </rdf:RDF>
 </metadata>
 <defs>
  <style type="text/css">*{stroke-linejoin: round; stroke-linecap: butt}</style>
 </defs>
 <g id="figure_1">
  <g id="patch_1">
   <path d="M 0 345.6 
L 460.8 345.6 
L 460.8 0 
L 0 0 
z
" style="fill: #ffffff"/>
  </g>
  <g id="axes_1">
   <g id="patch_2">
    <path d="M 57.6 307.584 
L 343.296 307.584 
L 343.296 41.472 
L 57.6 41.472 
z
" style="fill: #ffffff"/>
   </g>
   <g id="PathCollection_1">
    <path clip-path="url(#pd64db558f8)" style="fill: #0000b6"/>
   </g>
   <g id="PathCollection_2">
    <path clip-path="url(#pd64db558f8)" style="fill: #0018ff"/>
   </g>
   <g id="PathCollection_3">
    <path d="M 57.62857 86.97556 
L 57.998581 86.665323 
L 58.4315 86.28873 
L 59.465396 85.398756 
L 60.244912 84.7152 
L 60.61374 84.387094 
L 60.763993 84.251406 
L 61.632872 83.477751 
L 62.862273 82.36308 
L 63.068182 82.174134 
L 63.321527 81.943607 
L 63.92079 81.3888 
L 64.572371 80.778639 
L 64.959792 80.41452 
L 65.910329 79.510224 
L 66.627943 78.815537 
L 66.869889 78.584422 
L 67.408625 78.0624 
L 68.019422 77.461763 
L 69.034998 76.445944 
L 69.436098 76.048208 
L 69.772182 75.71028 
L 70.147585 75.326698 
L 70.729139 74.736 
L 71.015113 74.440428 
L 71.669967 73.76172 
L 72.176076 73.230511 
L 72.607537 72.77018 
L 73.037801 72.316701 
L 73.887156 71.4096 
L 74.222737 71.045756 
L 74.895672 70.304367 
L 75.564612 69.572843 
L 76.029854 69.05748 
L 76.471013 68.560851 
L 76.898131 68.0832 
L 77.061827 67.897741 
L 77.136528 67.811652 
L 77.752316 67.10892 
L 78.250433 66.532978 
L 78.730481 65.969303 
L 79.107528 65.531504 
L 79.766595 64.7568 
L 80.230555 64.202962 
L 81.371056 62.820821 
L 81.590494 62.556559 
L 81.715113 62.40468 
L 81.928853 62.144842 
L 82.506722 61.4304 
L 82.797811 61.067462 
L 82.936212 60.891944 
L 83.283505 60.45612 
L 84.121058 59.390678 
L 85.035104 58.210894 
L 85.067753 58.169183 
L 85.118198 58.104 
L 86.030522 56.90641 
L 86.897609 55.75188 
L 87.202012 55.34088 
L 87.619127 54.7776 
L 88.151377 54.048054 
L 88.326928 53.80332 
L 88.502738 53.559 
L 88.946496 52.935757 
L 89.775597 51.776645 
L 90.005211 51.4512 
L 90.904483 50.155986 
L 91.583454 49.167937 
L 91.610316 49.129201 
L 91.630925 49.09908 
L 91.684702 49.019339 
L 92.09658 48.410342 
L 92.291311 48.1248 
L 92.386679 47.98273 
L 92.435328 47.909027 
L 92.942044 47.15052 
L 93.419313 46.425605 
L 94.082545 45.405093 
L 94.261091 45.13272 
L 94.478102 44.7984 
L 95.202069 43.664721 
L 95.970354 42.44628 
L 96.26833 41.966598 
L 96.574163 41.472 
L 95.72137 41.472 
L 94.197658 41.472 
L 92.673946 41.472 
L 91.150234 41.472 
L 89.626522 41.472 
L 88.10281 41.472 
L 86.579098 41.472 
L 85.055386 41.472 
L 83.531674 41.472 
L 82.007962 41.472 
L 80.48425 41.472 
L 78.960538 41.472 
L 77.436826 41.472 
L 75.913114 41.472 
L 74.389402 41.472 
L 72.86569 41.472 
L 71.341978 41.472 
L 69.818266 41.472 
L 68.294554 41.472 
L 66.770842 41.472 
L 65.24713 41.472 
L 63.723418 41.472 
L 62.199706 41.472 
L 60.675994 41.472 
L 59.152282 41.472 
L 57.62857 41.472 
L 57.62857 44.7984 
L 57.62857 48.1248 
L 57.62857 51.4512 
L 57.62857 54.7776 
L 57.62857 58.104 
L 57.62857 61.4304 
L 57.62857 64.7568 
L 57.62857 68.0832 
L 57.62857 71.4096 
L 57.62857 74.736 
L 57.62857 78.0624 
L 57.62857 81.3888 
L 57.62857 84.7152 
" clip-path="url(#pd64db558f8)" style="fill: #0080ff"/>
   </g>
   <g id="PathCollection_4">
    <path d="M 96.574163 41.472 
L 96.26833 41.966598 
L 95.970354 42.44628 
L 95.202069 43.664721 
L 94.478102 44.7984 
L 94.261091 45.13272 
L 94.082545 45.405093 
L 93.419313 46.425605 
L 92.942044 47.15052 
L 92.435328 47.909027 
L 92.386679 47.98273 
L 92.291311 48.1248 
L 92.09658 48.410342 
L 91.684702 49.019339 
L 91.630925 49.09908 
L 91.610316 49.129201 
L 91.583454 49.167937 
L 90.904483 50.155986 
L 90.005211 51.4512 
L 89.775597 51.776645 
L 88.946496 52.935757 
L 88.502738 53.559 
L 88.326928 53.80332 
L 88.151377 54.048054 
L 87.619127 54.7776 
L 87.202012 55.34088 
L 86.897609 55.75188 
L 86.030522 56.90641 
L 85.118198 58.104 
L 85.067753 58.169183 
L 85.035104 58.210894 
L 84.121058 59.390678 
L 83.283505 60.45612 
L 82.936212 60.891944 
L 82.797811 61.067462 
L 82.506722 61.4304 
L 81.928853 62.144842 
L 81.715113 62.40468 
L 81.590494 62.556559 
L 81.371056 62.820821 
L 80.230555 64.202962 
L 79.766595 64.7568 
L 79.107528 65.531504 
L 78.730481 65.969303 
L 78.250433 66.532978 
L 77.752316 67.10892 
L 77.136528 67.811652 
L 77.061827 67.897741 
L 76.898131 68.0832 
L 76.471013 68.560851 
L 76.029854 69.05748 
L 75.564612 69.572843 
L 74.895672 70.304367 
L 74.222737 71.045756 
L 73.887156 71.4096 
L 73.037801 72.316701 
L 72.607537 72.77018 
L 72.176076 73.230511 
L 71.669967 73.76172 
L 71.015113 74.440428 
L 70.729139 74.736 
L 70.147585 75.326698 
L 69.772182 75.71028 
L 69.436098 76.048208 
L 69.034998 76.445944 
L 68.019422 77.461763 
L 67.408625 78.0624 
L 66.869889 78.584422 
L 66.627943 78.815537 
L 65.910329 79.510224 
L 64.959792 80.41452 
L 64.572371 80.778639 
L 63.92079 81.3888 
L 63.321527 81.943607 
L 63.068182 82.174134 
L 62.862273 82.36308 
L 61.632872 83.477751 
L 60.763993 84.251406 
L 60.61374 84.387094 
L 60.244912 84.7152 
L 59.465396 85.398756 
L 58.4315 86.28873 
L 57.998581 86.665323 
L 57.62857 86.97556 
L 57.62857 88.0416 
L 57.62857 91.368 
L 57.62857 94.6944 
L 57.62857 98.0208 
L 57.62857 101.3472 
L 57.62857 104.6736 
L 57.62857 108 
L 57.62857 111.3264 
L 57.62857 114.6528 
L 57.62857 117.9792 
L 57.62857 121.3056 
L 57.62857 124.632 
L 57.62857 127.9584 
L 57.62857 130.470478 
L 57.797688 130.393473 
L 58.580683 130.036949 
L 60.036982 129.35342 
L 60.287713 129.23839 
L 60.936171 128.93268 
L 61.33169 128.743317 
L 62.467482 128.200541 
L 62.580636 128.146792 
L 62.968817 127.9584 
L 64.447359 127.235195 
L 64.955324 126.98412 
L 66.069753 126.427861 
L 66.469014 126.222764 
L 67.020251 125.946499 
L 67.899498 125.494442 
L 68.541534 125.171181 
L 69.582076 124.632 
L 69.796876 124.519265 
L 69.844519 124.493635 
L 71.000444 123.886402 
L 71.908102 123.3961 
L 72.565179 123.048173 
L 73.235198 122.684524 
L 73.446121 122.572733 
L 73.983455 122.27988 
L 74.90544 121.772236 
L 75.108422 121.661198 
L 75.745022 121.3056 
L 76.538015 120.861085 
L 76.787396 120.718343 
L 77.468046 120.33132 
L 78.29628 119.855467 
L 78.643396 119.65068 
L 79.215091 119.32081 
L 80.112454 118.790862 
L 80.699988 118.450175 
L 81.490956 117.9792 
L 81.954847 117.699265 
L 82.075165 117.625008 
L 83.088916 117.01262 
L 84.32556 116.246074 
L 84.685003 116.027118 
L 85.327117 115.62708 
L 85.404419 115.578983 
L 85.909669 115.258141 
L 86.697465 114.759836 
L 86.865295 114.6528 
L 88.064992 113.880531 
L 88.372443 113.67852 
L 88.529538 113.575447 
L 88.625886 113.510876 
L 90.162821 112.497189 
L 91.040681 111.903793 
L 91.235319 111.774838 
L 91.897981 111.3264 
L 92.488377 110.921287 
L 93.035715 110.536626 
L 93.930317 109.917395 
L 94.547774 109.48113 
L 94.796999 109.308417 
L 95.267751 108.97428 
L 96.12124 108.361589 
L 96.256969 108.264886 
L 96.621353 108 
L 97.806436 107.129773 
L 97.94715 107.02572 
L 99.361581 105.967709 
L 100.163394 105.354074 
L 100.389391 105.18423 
L 101.055786 104.6736 
L 101.61655 104.237708 
L 102.244523 103.738571 
L 103.04359 103.111759 
L 103.33993 102.869503 
L 103.33993 101.3472 
L 103.33993 98.0208 
L 103.33993 94.6944 
L 103.33993 91.368 
L 103.33993 88.0416 
L 103.33993 84.7152 
L 103.33993 81.3888 
L 103.33993 78.0624 
L 103.33993 74.736 
L 103.33993 71.4096 
L 103.33993 68.0832 
L 103.33993 64.7568 
L 103.33993 61.4304 
L 103.33993 58.104 
L 103.33993 54.7776 
L 103.33993 51.4512 
L 103.33993 48.1248 
L 103.33993 44.7984 
L 103.33993 41.472 
L 101.816218 41.472 
L 100.292506 41.472 
L 98.768794 41.472 
L 97.245082 41.472 
" clip-path="url(#pd64db558f8)" style="fill: #00e4f8"/>
   </g>
   <g id="PathCollection_5">
    <path d="M 103.33993 102.869503 
L 103.04359 103.111759 
L 102.244523 103.738571 
L 101.61655 104.237708 
L 101.055786 104.6736 
L 100.389391 105.18423 
L 100.163394 105.354074 
L 99.361581 105.967709 
L 97.94715 107.02572 
L 97.806436 107.129773 
L 96.621353 108 
L 96.256969 108.264886 
L 96.12124 108.361589 
L 95.267751 108.97428 
L 94.796999 109.308417 
L 94.547774 109.48113 
L 93.930317 109.917395 
L 93.035715 110.536626 
L 92.488377 110.921287 
L 91.897981 111.3264 
L 91.235319 111.774838 
L 91.040681 111.903793 
L 90.162821 112.497189 
L 88.625886 113.510876 
L 88.529538 113.575447 
L 88.372443 113.67852 
L 88.064992 113.880531 
L 86.865295 114.6528 
L 86.697465 114.759836 
L 85.909669 115.258141 
L 85.404419 115.578983 
L 85.327117 115.62708 
L 84.685003 116.027118 
L 84.32556 116.246074 
L 83.088916 117.01262 
L 82.075165 117.625008 
L 81.954847 117.699265 
L 81.490956 117.9792 
L 80.699988 118.450175 
L 80.112454 118.790862 
L 79.215091 119.32081 
L 78.643396 119.65068 
L 78.29628 119.855467 
L 77.468046 120.33132 
L 76.787396 120.718343 
L 76.538015 120.861085 
L 75.745022 121.3056 
L 75.108422 121.661198 
L 74.90544 121.772236 
L 73.983455 122.27988 
L 73.446121 122.572733 
L 73.235198 122.684524 
L 72.565179 123.048173 
L 71.908102 123.3961 
L 71.000444 123.886402 
L 69.844519 124.493635 
L 69.796876 124.519265 
L 69.582076 124.632 
L 68.541534 125.171181 
L 67.899498 125.494442 
L 67.020251 125.946499 
L 66.469014 126.222764 
L 66.069753 126.427861 
L 64.955324 126.98412 
L 64.447359 127.235195 
L 62.968817 127.9584 
L 62.580636 128.146792 
L 62.467482 128.200541 
L 61.33169 128.743317 
L 60.936171 128.93268 
L 60.287713 129.23839 
L 60.036982 129.35342 
L 58.580683 130.036949 
L 57.797688 130.393473 
L 57.62857 130.470478 
L 57.62857 131.2848 
L 57.62857 134.6112 
L 57.62857 137.9376 
L 57.62857 141.264 
L 57.62857 144.5904 
L 57.62857 147.9168 
L 57.62857 151.2432 
L 57.62857 154.5696 
L 57.62857 157.896 
L 57.62857 161.2224 
L 57.62857 164.5488 
L 57.62857 166.035951 
L 57.900162 165.980215 
L 58.566202 165.828264 
L 59.632235 165.596582 
L 60.515692 165.393663 
L 60.823556 165.326519 
L 61.963454 165.064559 
L 62.392893 164.970546 
L 63.700817 164.667914 
L 63.744209 164.65838 
L 64.217536 164.5488 
L 65.147492 164.331283 
L 65.372136 164.275899 
L 66.661444 163.972224 
L 66.891021 163.915401 
L 67.89593 163.678569 
L 68.795549 163.455082 
L 69.575618 163.269941 
L 70.085019 163.142889 
L 70.637839 163.011602 
L 72.228531 162.613375 
L 72.486749 162.551615 
L 73.282585 162.351574 
L 73.373013 162.329932 
L 73.901137 162.19668 
L 75.123118 161.885875 
L 75.525206 161.784122 
L 77.338531 161.311285 
L 77.491694 161.272016 
L 77.681334 161.2224 
L 79.850044 160.64891 
L 81.335867 160.24812 
L 81.53666 160.193506 
L 81.574065 160.182827 
L 82.399109 159.957523 
L 82.615708 159.895636 
L 84.243181 159.449283 
L 84.79057 159.291694 
L 85.293902 159.15309 
L 86.111125 158.917626 
L 86.941827 158.687871 
L 88.011488 158.377304 
L 88.184989 158.329121 
L 89.619001 157.912417 
L 89.632338 157.908697 
L 89.675696 157.896 
L 91.071768 157.482451 
L 91.238482 157.430889 
L 92.314728 157.111795 
L 93.15233 156.851644 
L 93.954046 156.61206 
L 94.471928 156.450472 
L 94.988451 156.295972 
L 96.699955 155.75966 
L 96.832174 155.719794 
L 97.390955 155.54388 
L 97.855797 155.395191 
L 99.205577 154.964568 
L 99.426005 154.89463 
L 100.421844 154.5696 
L 101.444563 154.233526 
L 102.623999 153.839151 
L 102.955207 153.729715 
L 103.33993 153.594541 
L 103.33993 151.2432 
L 103.33993 147.9168 
L 103.33993 144.5904 
L 103.33993 141.264 
L 103.33993 137.9376 
L 103.33993 134.6112 
L 103.33993 131.2848 
L 103.33993 127.9584 
L 103.33993 124.632 
L 103.33993 121.3056 
L 103.33993 117.9792 
L 103.33993 114.6528 
L 103.33993 111.3264 
L 103.33993 108 
L 103.33993 104.6736 
" clip-path="url(#pd64db558f8)" style="fill: #53ffa4"/>
   </g>
   <g id="PathCollection_6">
    <path d="M 103.33993 153.594541 
L 102.955207 153.729715 
L 102.623999 153.839151 
L 101.444563 154.233526 
L 100.421844 154.5696 
L 99.426005 154.89463 
L 99.205577 154.964568 
L 97.855797 155.395191 
L 97.390955 155.54388 
L 96.832174 155.719794 
L 96.699955 155.75966 
L 94.988451 156.295972 
L 94.471928 156.450472 
L 93.954046 156.61206 
L 93.15233 156.851644 
L 92.314728 157.111795 
L 91.238482 157.430889 
L 91.071768 157.482451 
L 89.675696 157.896 
L 89.632338 157.908697 
L 89.619001 157.912417 
L 88.184989 158.329121 
L 88.011488 158.377304 
L 86.941827 158.687871 
L 86.111125 158.917626 
L 85.293902 159.15309 
L 84.79057 159.291694 
L 84.243181 159.449283 
L 82.615708 159.895636 
L 82.399109 159.957523 
L 81.574065 160.182827 
L 81.53666 160.193506 
L 81.335867 160.24812 
L 79.850044 160.64891 
L 77.681334 161.2224 
L 77.491694 161.272016 
L 77.338531 161.311285 
L 75.525206 161.784122 
L 75.123118 161.885875 
L 73.901137 162.19668 
L 73.373013 162.329932 
L 73.282585 162.351574 
L 72.486749 162.551615 
L 72.228531 162.613375 
L 70.637839 163.011602 
L 70.085019 163.142889 
L 69.575618 163.269941 
L 68.795549 163.455082 
L 67.89593 163.678569 
L 66.891021 163.915401 
L 66.661444 163.972224 
L 65.372136 164.275899 
L 65.147492 164.331283 
L 64.217536 164.5488 
L 63.744209 164.65838 
L 63.700817 164.667914 
L 62.392893 164.970546 
L 61.963454 165.064559 
L 60.823556 165.326519 
L 60.515692 165.393663 
L 59.632235 165.596582 
L 58.566202 165.828264 
L 57.900162 165.980215 
L 57.62857 166.035951 
L 57.62857 167.8752 
L 57.62857 171.2016 
L 57.62857 174.528 
L 57.62857 177.8544 
L 57.62857 181.1808 
L 57.62857 184.5072 
L 57.62857 187.8336 
L 57.62857 191.16 
L 57.62857 194.4864 
L 57.62857 196.980611 
L 57.788217 196.971389 
L 58.742741 196.918736 
L 59.587293 196.863131 
L 60.48636 196.813346 
L 60.870433 196.78802 
L 61.709056 196.741667 
L 62.720966 196.674841 
L 63.49931 196.631654 
L 63.953222 196.601631 
L 64.674047 196.561709 
L 65.856079 196.483408 
L 66.51169 196.446957 
L 67.036601 196.41213 
L 67.637674 196.378773 
L 68.992677 196.288734 
L 69.523482 196.25916 
L 70.120589 196.219419 
L 70.599894 196.192765 
L 72.130807 196.090715 
L 72.534668 196.068167 
L 73.205206 196.023396 
L 73.560663 196.003589 
L 75.270518 195.889245 
L 75.545227 195.873875 
L 76.290472 195.823955 
L 76.519933 195.811142 
L 78.411861 195.68421 
L 78.555141 195.676177 
L 79.376407 195.620984 
L 79.477657 195.615319 
L 81.55489 195.475495 
L 81.564386 195.474961 
L 81.77619 195.46068 
L 82.509654 195.410577 
L 84.410823 195.281384 
L 85.051622 195.238105 
L 85.808903 195.182861 
L 87.241277 195.085185 
L 87.72373 195.052488 
L 89.11302 194.950742 
L 90.06777 194.885406 
L 92.179761 194.730804 
L 92.422177 194.714066 
L 92.890171 194.681925 
L 93.047575 194.671182 
L 95.550559 194.4864 
L 95.699188 194.47543 
L 95.708426 194.474695 
L 95.736792 194.472454 
L 98.349114 194.278844 
L 98.523834 194.264891 
L 99.060899 194.222259 
L 100.991583 194.078569 
L 101.334763 194.051037 
L 102.390802 193.966823 
L 103.078328 193.915301 
L 103.33993 193.891585 
L 103.33993 191.16 
L 103.33993 187.8336 
L 103.33993 184.5072 
L 103.33993 181.1808 
L 103.33993 177.8544 
L 103.33993 174.528 
L 103.33993 171.2016 
L 103.33993 167.8752 
L 103.33993 164.5488 
L 103.33993 161.2224 
L 103.33993 157.896 
L 103.33993 154.5696 
" clip-path="url(#pd64db558f8)" style="fill: #a4ff53"/>
   </g>
   <g id="PathCollection_7">
    <path d="M 103.33993 193.891585 
L 103.078328 193.915301 
L 102.390802 193.966823 
L 101.334763 194.051037 
L 100.991583 194.078569 
L 99.060899 194.222259 
L 98.523834 194.264891 
L 98.349114 194.278844 
L 95.736792 194.472454 
L 95.708426 194.474695 
L 95.699188 194.47543 
L 95.550559 194.4864 
L 93.047575 194.671182 
L 92.890171 194.681925 
L 92.422177 194.714066 
L 92.179761 194.730804 
L 90.06777 194.885406 
L 89.11302 194.950742 
L 87.72373 195.052488 
L 87.241277 195.085185 
L 85.808903 195.182861 
L 85.051622 195.238105 
L 84.410823 195.281384 
L 82.509654 195.410577 
L 81.77619 195.46068 
L 81.564386 195.474961 
L 81.55489 195.475495 
L 79.477657 195.615319 
L 79.376407 195.620984 
L 78.555141 195.676177 
L 78.411861 195.68421 
L 76.519933 195.811142 
L 76.290472 195.823955 
L 75.545227 195.873875 
L 75.270518 195.889245 
L 73.560663 196.003589 
L 73.205206 196.023396 
L 72.534668 196.068167 
L 72.130807 196.090715 
L 70.599894 196.192765 
L 70.120589 196.219419 
L 69.523482 196.25916 
L 68.992677 196.288734 
L 67.637674 196.378773 
L 67.036601 196.41213 
L 66.51169 196.446957 
L 65.856079 196.483408 
L 64.674047 196.561709 
L 63.953222 196.601631 
L 63.49931 196.631654 
L 62.720966 196.674841 
L 61.709056 196.741667 
L 60.870433 196.78802 
L 60.48636 196.813346 
L 59.587293 196.863131 
L 58.742741 196.918736 
L 57.788217 196.971389 
L 57.62857 196.980611 
L 57.62857 197.8128 
L 57.62857 201.1392 
L 57.62857 204.4656 
L 57.62857 207.792 
L 57.62857 211.1184 
L 57.62857 214.4448 
L 57.62857 217.7712 
L 57.62857 221.0976 
L 57.62857 224.424 
L 57.62857 225.23001 
L 57.783568 225.240908 
L 58.752721 225.296277 
L 59.577004 225.351208 
L 60.490072 225.403889 
L 60.866711 225.429166 
L 61.716698 225.478449 
L 62.713576 225.545825 
L 63.501807 225.591984 
L 63.950827 225.622547 
L 64.678499 225.665372 
L 65.85263 225.745861 
L 66.512592 225.785092 
L 67.035948 225.821226 
L 67.638055 225.857196 
L 68.994253 225.951506 
L 69.522394 225.983377 
L 70.122108 226.025383 
L 70.595293 226.05408 
L 72.138535 226.162957 
L 72.53118 226.187013 
L 73.209343 226.235205 
L 73.550137 226.256191 
L 75.285571 226.380418 
L 75.538918 226.396179 
L 76.297691 226.450892 
L 76.502508 226.463699 
L 78.435459 226.604107 
L 78.54557 226.611063 
L 79.38719 226.672649 
L 79.452324 226.676785 
L 80.799785 226.77612 
L 81.504439 226.827878 
L 81.696617 226.842856 
L 82.602672 226.910336 
L 84.319172 227.038293 
L 84.886022 227.080595 
L 85.930027 227.163468 
L 87.127933 227.254107 
L 87.522216 227.283972 
L 89.266074 227.424459 
L 89.93053 227.475496 
L 92.549429 227.688819 
L 92.611165 227.693629 
L 92.726758 227.702644 
L 92.764544 227.705594 
L 93.304323 227.7504 
L 95.375872 227.921269 
L 95.518606 227.933752 
L 95.967597 227.973055 
L 97.978169 228.141411 
L 98.304361 228.17037 
L 99.334444 228.261898 
L 99.905763 228.312699 
L 101.083243 228.413204 
L 102.71164 228.560099 
L 102.959246 228.581467 
L 103.33993 228.613458 
L 103.33993 227.7504 
L 103.33993 224.424 
L 103.33993 221.0976 
L 103.33993 217.7712 
L 103.33993 214.4448 
L 103.33993 211.1184 
L 103.33993 207.792 
L 103.33993 204.4656 
L 103.33993 201.1392 
L 103.33993 197.8128 
L 103.33993 194.4864 
" clip-path="url(#pd64db558f8)" style="fill: #f8f500"/>
   </g>
   <g id="PathCollection_8">
    <path d="M 103.33993 228.613458 
L 102.959246 228.581467 
L 102.71164 228.560099 
L 101.083243 228.413204 
L 99.905763 228.312699 
L 99.334444 228.261898 
L 98.304361 228.17037 
L 97.978169 228.141411 
L 95.967597 227.973055 
L 95.518606 227.933752 
L 95.375872 227.921269 
L 93.304323 227.7504 
L 92.764544 227.705594 
L 92.726758 227.702644 
L 92.611165 227.693629 
L 92.549429 227.688819 
L 89.93053 227.475496 
L 89.266074 227.424459 
L 87.522216 227.283972 
L 87.127933 227.254107 
L 85.930027 227.163468 
L 84.886022 227.080595 
L 84.319172 227.038293 
L 82.602672 226.910336 
L 81.696617 226.842856 
L 81.504439 226.827878 
L 80.799785 226.77612 
L 79.452324 226.676785 
L 79.38719 226.672649 
L 78.54557 226.611063 
L 78.435459 226.604107 
L 76.502508 226.463699 
L 76.297691 226.450892 
L 75.538918 226.396179 
L 75.285571 226.380418 
L 73.550137 226.256191 
L 73.209343 226.235205 
L 72.53118 226.187013 
L 72.138535 226.162957 
L 70.595293 226.05408 
L 70.122108 226.025383 
L 69.522394 225.983377 
L 68.994253 225.951506 
L 67.638055 225.857196 
L 67.035948 225.821226 
L 66.512592 225.785092 
L 65.85263 225.745861 
L 64.678499 225.665372 
L 63.950827 225.622547 
L 63.501807 225.591984 
L 62.713576 225.545825 
L 61.716698 225.478449 
L 60.866711 225.429166 
L 60.490072 225.403889 
L 59.577004 225.351208 
L 58.752721 225.296277 
L 57.783568 225.240908 
L 57.62857 225.23001 
L 57.62857 227.7504 
L 57.62857 231.0768 
L 57.62857 234.4032 
L 57.62857 237.7296 
L 57.62857 241.056 
L 57.62857 244.3824 
L 57.62857 247.7088 
L 57.62857 251.0352 
L 57.62857 252.210707 
L 57.858476 252.246911 
L 58.549503 252.351121 
L 59.849666 252.557652 
L 60.372072 252.637001 
L 60.998907 252.737095 
L 61.392643 252.797091 
L 63.134876 253.07676 
L 63.330364 253.106765 
L 64.1413 253.237628 
L 64.231882 253.251576 
L 65.068599 253.38732 
L 66.133515 253.560073 
L 66.946865 253.695088 
L 67.69265 253.817319 
L 68.711703 253.984386 
L 70.960055 254.3616 
L 71.282068 254.415774 
L 71.430048 254.441239 
L 73.513953 254.794561 
L 73.846637 254.852403 
L 75.190714 255.086199 
L 76.214869 255.264402 
L 76.402732 255.296695 
L 76.625562 255.33588 
L 78.373505 255.643144 
L 78.579762 255.681142 
L 79.316604 255.811373 
L 79.653125 255.87358 
L 81.19025 256.146738 
L 81.734771 256.248165 
L 82.263235 256.342594 
L 82.976452 256.4759 
L 84.002453 256.660247 
L 84.89218 256.827834 
L 85.207772 256.884854 
L 86.306316 257.092494 
L 86.809963 257.184001 
L 88.052078 257.420622 
L 88.150142 257.43854 
L 89.455056 257.688 
L 89.612729 257.718111 
L 89.643092 257.724174 
L 91.090516 258.00274 
L 91.214683 258.027677 
L 92.412395 258.258989 
L 92.988832 258.375424 
L 94.028818 258.57786 
L 94.380035 258.649212 
L 95.207068 258.810766 
L 96.341892 259.042657 
L 96.964782 259.165306 
L 97.548131 259.285204 
L 97.996576 259.373821 
L 99.702578 259.726536 
L 99.898321 259.76553 
L 100.719078 259.936225 
L 100.780734 259.948553 
L 101.218397 260.04012 
L 102.579211 260.324452 
L 103.072033 260.429557 
L 103.33993 260.485356 
L 103.33993 257.688 
L 103.33993 254.3616 
L 103.33993 251.0352 
L 103.33993 247.7088 
L 103.33993 244.3824 
L 103.33993 241.056 
L 103.33993 237.7296 
L 103.33993 234.4032 
L 103.33993 231.0768 
" clip-path="url(#pd64db558f8)" style="fill: #ff9400"/>
   </g>
   <g id="PathCollection_9">
    <path d="M 103.33993 260.485356 
L 103.072033 260.429557 
L 102.579211 260.324452 
L 101.218397 260.04012 
L 100.780734 259.948553 
L 100.719078 259.936225 
L 99.898321 259.76553 
L 99.702578 259.726536 
L 97.996576 259.373821 
L 97.548131 259.285204 
L 96.964782 259.165306 
L 96.341892 259.042657 
L 95.207068 258.810766 
L 94.380035 258.649212 
L 94.028818 258.57786 
L 92.988832 258.375424 
L 92.412395 258.258989 
L 91.214683 258.027677 
L 91.090516 258.00274 
L 89.643092 257.724174 
L 89.612729 257.718111 
L 89.455056 257.688 
L 88.150142 257.43854 
L 88.052078 257.420622 
L 86.809963 257.184001 
L 86.306316 257.092494 
L 85.207772 256.884854 
L 84.89218 256.827834 
L 84.002453 256.660247 
L 82.976452 256.4759 
L 82.263235 256.342594 
L 81.734771 256.248165 
L 81.19025 256.146738 
L 79.653125 255.87358 
L 79.316604 255.811373 
L 78.579762 255.681142 
L 78.373505 255.643144 
L 76.625562 255.33588 
L 76.402732 255.296695 
L 76.214869 255.264402 
L 75.190714 255.086199 
L 73.846637 254.852403 
L 73.513953 254.794561 
L 71.430048 254.441239 
L 71.282068 254.415774 
L 70.960055 254.3616 
L 68.711703 253.984386 
L 67.69265 253.817319 
L 66.946865 253.695088 
L 66.133515 253.560073 
L 65.068599 253.38732 
L 64.231882 253.251576 
L 64.1413 253.237628 
L 63.330364 253.106765 
L 63.134876 253.07676 
L 61.392643 252.797091 
L 60.998907 252.737095 
L 60.372072 252.637001 
L 59.849666 252.557652 
L 58.549503 252.351121 
L 57.858476 252.246911 
L 57.62857 252.210707 
L 57.62857 254.3616 
L 57.62857 257.688 
L 57.62857 261.0144 
L 57.62857 264.3408 
L 57.62857 267.6672 
L 57.62857 270.9936 
L 57.62857 274.32 
L 57.62857 277.6464 
L 57.62857 279.364454 
L 57.969341 279.442416 
L 58.295106 279.517691 
L 60.218034 279.973034 
L 60.233847 279.976709 
L 60.325541 279.99852 
L 61.409742 280.258463 
L 62.658313 280.558097 
L 64.364963 280.9728 
L 65.059685 281.1423 
L 65.575455 281.269694 
L 66.99091 281.617529 
L 67.454099 281.732794 
L 68.313698 281.94708 
L 69.263108 282.18476 
L 69.424938 282.226186 
L 70.175766 282.415016 
L 70.519316 282.503256 
L 71.993985 282.87581 
L 72.626638 283.039293 
L 73.082774 283.155066 
L 73.970782 283.385315 
L 74.72046 283.57647 
L 75.830954 283.866182 
L 75.987656 283.906327 
L 77.429797 284.283857 
L 77.442371 284.287093 
L 77.488331 284.2992 
L 78.890088 284.670502 
L 79.038605 284.710648 
L 80.159336 285.008515 
L 80.901514 285.210126 
L 81.790044 285.447723 
L 82.249685 285.573188 
L 82.871657 285.740075 
L 84.381407 286.154245 
L 84.687723 286.236947 
L 85.463634 286.450849 
L 85.579162 286.482149 
L 86.189714 286.65132 
L 87.311602 286.963222 
L 87.699765 287.071364 
L 89.608814 287.609588 
L 89.635838 287.617175 
L 89.665479 287.6256 
L 91.95265 288.277842 
L 93.06836 288.59988 
L 93.671377 288.774517 
L 93.79123 288.809946 
L 94.561543 289.034161 
L 94.887125 289.130769 
L 96.358468 289.561158 
L 97.018597 289.758323 
L 97.447632 289.884467 
L 98.412273 290.173685 
L 99.040304 290.359269 
L 100.249278 290.72417 
L 100.331121 290.748481 
L 101.00281 290.952 
L 101.716687 291.169283 
L 101.948759 291.24135 
L 103.21162 291.628249 
L 103.33993 291.668994 
L 103.33993 290.952 
L 103.33993 287.6256 
L 103.33993 284.2992 
L 103.33993 280.9728 
L 103.33993 277.6464 
L 103.33993 274.32 
L 103.33993 270.9936 
L 103.33993 267.6672 
L 103.33993 264.3408 
L 103.33993 261.0144 
" clip-path="url(#pd64db558f8)" style="fill: #ff3800"/>
   </g>
   <g id="PathCollection_10">
    <path d="M 103.33993 291.668994 
L 103.21162 291.628249 
L 101.948759 291.24135 
L 101.716687 291.169283 
L 101.00281 290.952 
L 100.331121 290.748481 
L 100.249278 290.72417 
L 99.040304 290.359269 
L 98.412273 290.173685 
L 97.447632 289.884467 
L 97.018597 289.758323 
L 96.358468 289.561158 
L 94.887125 289.130769 
L 94.561543 289.034161 
L 93.79123 288.809946 
L 93.671377 288.774517 
L 93.06836 288.59988 
L 91.95265 288.277842 
L 89.665479 287.6256 
L 89.635838 287.617175 
L 89.608814 287.609588 
L 87.699765 287.071364 
L 87.311602 286.963222 
L 86.189714 286.65132 
L 85.579162 286.482149 
L 85.463634 286.450849 
L 84.687723 286.236947 
L 84.381407 286.154245 
L 82.871657 285.740075 
L 82.249685 285.573188 
L 81.790044 285.447723 
L 80.901514 285.210126 
L 80.159336 285.008515 
L 79.038605 284.710648 
L 78.890088 284.670502 
L 77.488331 284.2992 
L 77.442371 284.287093 
L 77.429797 284.283857 
L 75.987656 283.906327 
L 75.830954 283.866182 
L 74.72046 283.57647 
L 73.970782 283.385315 
L 73.082774 283.155066 
L 72.626638 283.039293 
L 71.993985 282.87581 
L 70.519316 282.503256 
L 70.175766 282.415016 
L 69.424938 282.226186 
L 69.263108 282.18476 
L 68.313698 281.94708 
L 67.454099 281.732794 
L 66.99091 281.617529 
L 65.575455 281.269694 
L 65.059685 281.1423 
L 64.364963 280.9728 
L 62.658313 280.558097 
L 61.409742 280.258463 
L 60.325541 279.99852 
L 60.233847 279.976709 
L 60.218034 279.973034 
L 58.295106 279.517691 
L 57.969341 279.442416 
L 57.62857 279.364454 
L 57.62857 280.9728 
L 57.62857 284.2992 
L 57.62857 287.6256 
L 57.62857 290.952 
L 57.62857 294.2784 
L 57.62857 297.6048 
L 57.62857 300.9312 
L 57.62857 304.2576 
L 57.62857 307.584 
L 59.152282 307.584 
L 60.675994 307.584 
L 62.199706 307.584 
L 63.723418 307.584 
L 65.24713 307.584 
L 66.770842 307.584 
L 68.294554 307.584 
L 69.818266 307.584 
L 71.341978 307.584 
L 72.86569 307.584 
L 74.389402 307.584 
L 75.913114 307.584 
L 77.436826 307.584 
L 78.960538 307.584 
L 80.48425 307.584 
L 82.007962 307.584 
L 83.531674 307.584 
L 85.055386 307.584 
L 86.579098 307.584 
L 88.10281 307.584 
L 89.626522 307.584 
L 91.150234 307.584 
L 92.673946 307.584 
L 94.197658 307.584 
L 95.72137 307.584 
L 97.245082 307.584 
L 98.768794 307.584 
L 100.292506 307.584 
L 101.816218 307.584 
L 103.33993 307.584 
L 103.33993 304.2576 
L 103.33993 300.9312 
L 103.33993 297.6048 
L 103.33993 294.2784 
" clip-path="url(#pd64db558f8)" style="fill: #b60000"/>
   </g>
   <g id="PathCollection_11">
    <path clip-path="url(#pd64db558f8)" style="fill: #0000b6"/>
   </g>
   <g id="PathCollection_12">
    <path clip-path="url(#pd64db558f8)" style="fill: #0018ff"/>
   </g>
   <g id="PathCollection_13">
    <path clip-path="url(#pd64db558f8)" style="fill: #0080ff"/>
   </g>
   <g id="PathCollection_14">
    <path d="M 100.4544 105.10258 
L 100.913698 104.7799 
L 102.491761 103.5648 
L 105.987422 100.757626 
L 110.038015 97.29248 
L 111.459196 96.0153 
L 112.949332 94.6944 
L 115.376199 92.3702 
L 115.637535 92.09632 
L 118.096697 89.667615 
L 121.834216 85.824 
L 123.299053 84.246551 
L 127.435297 79.55168 
L 128.263758 78.553708 
L 129.63696 76.9536 
L 130.754867 75.460056 
L 131.633546 74.35552 
L 134.019552 71.221549 
L 136.334547 68.0832 
L 138.330782 65.237102 
L 140.632015 61.81088 
L 141.96197 59.682125 
L 142.088302 59.500844 
L 142.272499 59.2128 
L 142.488176 58.825488 
L 142.751239 58.385221 
L 143.880239 56.61472 
L 144.970619 54.772404 
L 147.494959 50.3424 
L 148.393261 48.67713 
L 150.824611 44.07008 
L 151.027865 43.669289 
L 152.150933 41.472 
L 149.02272 41.472 
L 140.928 41.472 
L 132.83328 41.472 
L 124.73856 41.472 
L 116.64384 41.472 
L 108.54912 41.472 
L 100.4544 41.472 
L 100.4544 50.3424 
L 100.4544 59.2128 
L 100.4544 68.0832 
L 100.4544 76.9536 
L 100.4544 85.824 
L 100.4544 94.6944 
L 100.4544 103.5648 
" clip-path="url(#pd64db558f8)" style="fill: #00e4f8"/>
   </g>
   <g id="PathCollection_15">
    <path d="M 152.150933 41.472 
L 151.027865 43.669289 
L 150.824611 44.07008 
L 148.393261 48.67713 
L 147.494959 50.3424 
L 144.970619 54.772404 
L 143.880239 56.61472 
L 142.751239 58.385221 
L 142.488176 58.825488 
L 142.272499 59.2128 
L 142.088302 59.500844 
L 141.96197 59.682125 
L 140.632015 61.81088 
L 138.330782 65.237102 
L 136.334547 68.0832 
L 134.019552 71.221549 
L 131.633546 74.35552 
L 130.754867 75.460056 
L 129.63696 76.9536 
L 128.263758 78.553708 
L 127.435297 79.55168 
L 123.299053 84.246551 
L 121.834216 85.824 
L 118.096697 89.667615 
L 115.637535 92.09632 
L 115.376199 92.3702 
L 112.949332 94.6944 
L 111.459196 96.0153 
L 110.038015 97.29248 
L 105.987422 100.757626 
L 102.491761 103.5648 
L 100.913698 104.7799 
L 100.4544 105.10258 
L 100.4544 112.4352 
L 100.4544 121.3056 
L 100.4544 130.176 
L 100.4544 139.0464 
L 100.4544 147.9168 
L 100.4544 154.520539 
L 101.435489 154.191674 
L 105.116497 153.025645 
L 112.10299 150.51488 
L 113.297074 150.071923 
L 114.911472 149.496249 
L 118.909832 147.9168 
L 121.145444 147.024811 
L 121.969455 146.659887 
L 125.131892 145.31872 
L 128.937393 143.647588 
L 131.582757 142.35473 
L 133.719521 141.391 
L 138.478185 139.0464 
L 140.147694 138.191321 
L 143.370571 136.369768 
L 147.223328 134.286007 
L 149.804376 132.77408 
L 150.293323 132.500935 
L 154.057715 130.176 
L 155.311007 129.35605 
L 157.994931 127.57792 
L 160.964327 125.521116 
L 164.680101 122.713193 
L 165.517749 122.114053 
L 166.575045 121.3056 
L 170.467502 118.194137 
L 174.112583 115.03328 
L 175.744727 113.541753 
L 176.962476 112.4352 
L 178.125304 111.23903 
L 179.580238 109.83712 
L 182.60138 106.738886 
L 185.540376 103.5648 
L 187.484362 101.360045 
L 190.834997 97.29248 
L 191.972607 95.818401 
L 192.329683 95.39778 
L 192.866456 94.6944 
L 194.463582 92.439731 
L 194.728372 92.09632 
L 194.945367 91.795205 
L 195.823387 90.500427 
L 198.112347 87.203148 
L 199.031708 85.824 
L 201.753194 81.514594 
L 202.924052 79.55168 
L 203.907782 77.760634 
L 204.161733 77.331939 
L 204.404355 76.9536 
L 204.652792 76.48473 
L 205.856023 74.35552 
L 207.869336 70.476018 
L 209.049821 68.0832 
L 211.65873 62.469992 
L 211.956447 61.81088 
L 212.429691 60.886976 
L 213.199495 59.2128 
L 213.967879 57.15677 
L 214.19241 56.61472 
L 215.204232 54.109017 
L 216.6904 50.3424 
L 218.18547 46.2991 
L 218.981285 44.07008 
L 219.452988 42.571456 
L 219.847512 41.472 
L 213.78048 41.472 
L 205.68576 41.472 
L 197.59104 41.472 
L 189.49632 41.472 
L 181.4016 41.472 
L 173.30688 41.472 
L 165.21216 41.472 
L 157.11744 41.472 
" clip-path="url(#pd64db558f8)" style="fill: #53ffa4"/>
   </g>
   <g id="PathCollection_16">
    <path d="M 219.847512 41.472 
L 219.452988 42.571456 
L 218.981285 44.07008 
L 218.18547 46.2991 
L 216.6904 50.3424 
L 215.204232 54.109017 
L 214.19241 56.61472 
L 213.967879 57.15677 
L 213.199495 59.2128 
L 212.429691 60.886976 
L 211.956447 61.81088 
L 211.65873 62.469992 
L 209.049821 68.0832 
L 207.869336 70.476018 
L 205.856023 74.35552 
L 204.652792 76.48473 
L 204.404355 76.9536 
L 204.161733 77.331939 
L 203.907782 77.760634 
L 202.924052 79.55168 
L 201.753194 81.514594 
L 199.031708 85.824 
L 198.112347 87.203148 
L 195.823387 90.500427 
L 194.945367 91.795205 
L 194.728372 92.09632 
L 194.463582 92.439731 
L 192.866456 94.6944 
L 192.329683 95.39778 
L 191.972607 95.818401 
L 190.834997 97.29248 
L 187.484362 101.360045 
L 185.540376 103.5648 
L 182.60138 106.738886 
L 179.580238 109.83712 
L 178.125304 111.23903 
L 176.962476 112.4352 
L 175.744727 113.541753 
L 174.112583 115.03328 
L 170.467502 118.194137 
L 166.575045 121.3056 
L 165.517749 122.114053 
L 164.680101 122.713193 
L 160.964327 125.521116 
L 157.994931 127.57792 
L 155.311007 129.35605 
L 154.057715 130.176 
L 150.293323 132.500935 
L 149.804376 132.77408 
L 147.223328 134.286007 
L 143.370571 136.369768 
L 140.147694 138.191321 
L 138.478185 139.0464 
L 133.719521 141.391 
L 131.582757 142.35473 
L 128.937393 143.647588 
L 125.131892 145.31872 
L 121.969455 146.659887 
L 121.145444 147.024811 
L 118.909832 147.9168 
L 114.911472 149.496249 
L 113.297074 150.071923 
L 112.10299 150.51488 
L 105.116497 153.025645 
L 101.435489 154.191674 
L 100.4544 154.520539 
L 100.4544 156.7872 
L 100.4544 165.6576 
L 100.4544 174.528 
L 100.4544 183.3984 
L 100.4544 192.2688 
L 100.4544 194.092688 
L 101.133602 194.065668 
L 107.396975 193.53135 
L 109.59355 193.413313 
L 116.438977 192.810776 
L 116.84051 192.789102 
L 122.774027 192.2688 
L 124.589246 192.105178 
L 124.927065 192.062231 
L 132.488392 191.35638 
L 133.213771 191.262189 
L 139.47735 190.679141 
L 142.777821 190.241719 
L 148.06333 189.73068 
L 150.085837 189.456264 
L 154.189584 189.060381 
L 160.894653 188.129634 
L 163.546779 187.86294 
L 167.067171 187.361264 
L 168.680644 187.199253 
L 176.906493 185.99648 
L 178.501989 185.75649 
L 183.204944 184.96023 
L 187.651169 184.235925 
L 190.380439 183.799707 
L 190.833048 183.730242 
L 192.601543 183.3984 
L 201.774919 181.623247 
L 205.575471 180.80032 
L 210.419989 179.715889 
L 211.989777 179.265406 
L 215.281127 178.498046 
L 219.329167 177.318008 
L 223.49217 176.299916 
L 229.094773 174.528 
L 229.872876 174.271266 
L 230.101193 174.180711 
L 235.949928 172.210644 
L 242.799683 169.339219 
L 244.026064 168.884244 
L 245.428419 168.25568 
L 246.58979 167.773962 
L 250.8482 165.6576 
L 252.425741 164.827706 
L 255.556407 163.05952 
L 258.426466 161.359406 
L 261.425832 159.228964 
L 262.912505 158.278514 
L 264.932201 156.7872 
L 268.158424 154.283133 
L 272.254197 150.51488 
L 273.495249 149.301998 
L 274.042268 148.810187 
L 274.851132 147.9168 
L 276.970123 145.518008 
L 277.109033 145.31872 
L 279.713848 142.156537 
L 282.017184 139.0464 
L 284.020655 136.18377 
L 286.077753 132.77408 
L 287.338406 130.496206 
L 287.417569 130.370779 
L 287.514723 130.176 
L 287.614721 129.932278 
L 287.748009 129.669873 
L 288.908191 127.57792 
L 290.139283 125.147918 
L 291.832632 121.3056 
L 293.344036 117.645092 
L 294.338834 115.03328 
L 294.521864 114.495802 
L 295.38496 112.4352 
L 296.070209 110.09241 
L 296.164208 109.83712 
L 296.600847 108.520369 
L 298.133122 103.5648 
L 299.255273 99.655852 
L 299.856037 97.29248 
L 300.152132 95.90645 
L 300.311501 95.317729 
L 300.518871 94.6944 
L 300.650374 94.155196 
L 300.723382 93.741644 
L 301.130291 92.09632 
L 302.31489 86.380142 
L 302.449623 85.824 
L 302.522843 85.495737 
L 303.724953 79.55168 
L 304.056427 77.513732 
L 304.112802 77.273941 
L 304.170428 76.9536 
L 304.201515 76.611236 
L 304.243731 76.30845 
L 304.636575 74.35552 
L 305.225602 70.71669 
L 305.613659 68.0832 
L 306.086922 64.505853 
L 306.530077 61.81088 
L 306.638635 60.945011 
L 306.786991 60.197007 
L 306.938585 59.2128 
L 307.00455 58.174584 
L 307.097556 57.272282 
L 307.207552 56.61472 
L 307.372681 55.328714 
L 307.972296 50.3424 
L 308.618716 44.261842 
L 308.638548 44.07008 
L 308.649141 43.957309 
L 308.931572 41.472 
L 302.8224 41.472 
L 294.72768 41.472 
L 286.63296 41.472 
L 278.53824 41.472 
L 270.44352 41.472 
L 262.3488 41.472 
L 254.25408 41.472 
L 246.15936 41.472 
L 238.06464 41.472 
L 229.96992 41.472 
L 221.8752 41.472 
" clip-path="url(#pd64db558f8)" style="fill: #a4ff53"/>
   </g>
   <g id="PathCollection_17">
    <path d="M 308.931572 41.472 
L 308.649141 43.957309 
L 308.638548 44.07008 
L 308.618716 44.261842 
L 307.972296 50.3424 
L 307.372681 55.328714 
L 307.207552 56.61472 
L 307.097556 57.272282 
L 307.00455 58.174584 
L 306.938585 59.2128 
L 306.786991 60.197007 
L 306.638635 60.945011 
L 306.530077 61.81088 
L 306.086922 64.505853 
L 305.613659 68.0832 
L 305.225602 70.71669 
L 304.636575 74.35552 
L 304.243731 76.30845 
L 304.201515 76.611236 
L 304.170428 76.9536 
L 304.112802 77.273941 
L 304.056427 77.513732 
L 303.724953 79.55168 
L 302.522843 85.495737 
L 302.449623 85.824 
L 302.31489 86.380142 
L 301.130291 92.09632 
L 300.723382 93.741644 
L 300.650374 94.155196 
L 300.518871 94.6944 
L 300.311501 95.317729 
L 300.152132 95.90645 
L 299.856037 97.29248 
L 299.255273 99.655852 
L 298.133122 103.5648 
L 296.600847 108.520369 
L 296.164208 109.83712 
L 296.070209 110.09241 
L 295.38496 112.4352 
L 294.521864 114.495802 
L 294.338834 115.03328 
L 293.344036 117.645092 
L 291.832632 121.3056 
L 290.139283 125.147918 
L 288.908191 127.57792 
L 287.748009 129.669873 
L 287.614721 129.932278 
L 287.514723 130.176 
L 287.417569 130.370779 
L 287.338406 130.496206 
L 286.077753 132.77408 
L 284.020655 136.18377 
L 282.017184 139.0464 
L 279.713848 142.156537 
L 277.109033 145.31872 
L 276.970123 145.518008 
L 274.851132 147.9168 
L 274.042268 148.810187 
L 273.495249 149.301998 
L 272.254197 150.51488 
L 268.158424 154.283133 
L 264.932201 156.7872 
L 262.912505 158.278514 
L 261.425832 159.228964 
L 258.426466 161.359406 
L 255.556407 163.05952 
L 252.425741 164.827706 
L 250.8482 165.6576 
L 246.58979 167.773962 
L 245.428419 168.25568 
L 244.026064 168.884244 
L 242.799683 169.339219 
L 235.949928 172.210644 
L 230.101193 174.180711 
L 229.872876 174.271266 
L 229.094773 174.528 
L 223.49217 176.299916 
L 219.329167 177.318008 
L 215.281127 178.498046 
L 211.989777 179.265406 
L 210.419989 179.715889 
L 205.575471 180.80032 
L 201.774919 181.623247 
L 192.601543 183.3984 
L 190.833048 183.730242 
L 190.380439 183.799707 
L 187.651169 184.235925 
L 183.204944 184.96023 
L 178.501989 185.75649 
L 176.906493 185.99648 
L 168.680644 187.199253 
L 167.067171 187.361264 
L 163.546779 187.86294 
L 160.894653 188.129634 
L 154.189584 189.060381 
L 150.085837 189.456264 
L 148.06333 189.73068 
L 142.777821 190.241719 
L 139.47735 190.679141 
L 133.213771 191.262189 
L 132.488392 191.35638 
L 124.927065 192.062231 
L 124.589246 192.105178 
L 122.774027 192.2688 
L 116.84051 192.789102 
L 116.438977 192.810776 
L 109.59355 193.413313 
L 107.396975 193.53135 
L 101.133602 194.065668 
L 100.4544 194.092688 
L 100.4544 201.1392 
L 100.4544 210.0096 
L 100.4544 218.88 
L 100.4544 227.7504 
L 100.4544 228.352982 
L 100.692982 228.381583 
L 107.44455 228.960816 
L 109.916808 229.249148 
L 115.872966 229.78979 
L 117.488819 229.985839 
L 122.290132 230.43345 
L 127.82545 231.133092 
L 131.420158 231.488894 
L 134.394624 231.881023 
L 136.923622 232.138499 
L 146.083598 233.400035 
L 146.855534 233.483814 
L 150.595884 234.02272 
L 151.780552 234.198356 
L 159.823338 235.392577 
L 167.110478 236.6208 
L 171.608865 237.391539 
L 177.519687 238.533017 
L 181.068089 239.21888 
L 183.582846 239.720591 
L 184.41354 239.921361 
L 192.942721 241.714546 
L 196.515434 242.645624 
L 198.499962 243.086594 
L 205.119719 244.870918 
L 206.051525 245.090385 
L 207.418565 245.4912 
L 213.162613 247.125801 
L 214.578701 247.60294 
L 218.808371 248.85191 
L 226.908831 251.76352 
L 227.297817 251.900243 
L 233.593467 254.3616 
L 235.345894 255.036527 
L 235.96798 255.313286 
L 239.652897 256.95968 
L 242.611086 258.249889 
L 244.683547 259.327654 
L 247.188663 260.50892 
L 252.173444 263.232 
L 253.577658 263.973241 
L 256.737891 265.953823 
L 260.476216 268.186027 
L 262.393477 269.50432 
L 263.061826 269.915883 
L 266.085981 272.1024 
L 267.791345 273.306238 
L 269.534942 274.70048 
L 273.418281 277.712981 
L 276.936155 280.9728 
L 278.134525 282.04085 
L 279.443467 283.367629 
L 282.112198 285.926766 
L 283.250831 287.24512 
L 284.857305 289.03722 
L 285.609362 289.8432 
L 285.922633 290.165621 
L 287.821937 292.44128 
L 290.032315 294.9885 
L 292.70519 298.7136 
L 294.04952 300.507711 
L 296.992332 304.98592 
L 297.037622 305.052707 
L 298.602068 307.584 
L 302.8224 307.584 
L 310.91712 307.584 
L 319.01184 307.584 
L 327.10656 307.584 
L 335.20128 307.584 
L 343.296 307.584 
L 343.296 298.7136 
L 343.296 289.8432 
L 343.296 280.9728 
L 343.296 272.1024 
L 343.296 263.232 
L 343.296 254.3616 
L 343.296 245.4912 
L 343.296 236.6208 
L 343.296 227.7504 
L 343.296 218.88 
L 343.296 210.0096 
L 343.296 201.1392 
L 343.296 192.2688 
L 343.296 183.3984 
L 343.296 174.528 
L 343.296 165.6576 
L 343.296 156.7872 
L 343.296 147.9168 
L 343.296 139.0464 
L 343.296 130.176 
L 343.296 121.3056 
L 343.296 112.4352 
L 343.296 103.5648 
L 343.296 94.6944 
L 343.296 85.824 
L 343.296 76.9536 
L 343.296 68.0832 
L 343.296 59.2128 
L 343.296 50.3424 
L 343.296 41.472 
L 335.20128 41.472 
L 327.10656 41.472 
L 319.01184 41.472 
L 310.91712 41.472 
" clip-path="url(#pd64db558f8)" style="fill: #f8f500"/>
   </g>
   <g id="PathCollection_18">
    <path d="M 298.602068 307.584 
L 297.037622 305.052707 
L 296.992332 304.98592 
L 294.04952 300.507711 
L 292.70519 298.7136 
L 290.032315 294.9885 
L 287.821937 292.44128 
L 285.922633 290.165621 
L 285.609362 289.8432 
L 284.857305 289.03722 
L 283.250831 287.24512 
L 282.112198 285.926766 
L 279.443467 283.367629 
L 278.134525 282.04085 
L 276.936155 280.9728 
L 273.418281 277.712981 
L 269.534942 274.70048 
L 267.791345 273.306238 
L 266.085981 272.1024 
L 263.061826 269.915883 
L 262.393477 269.50432 
L 260.476216 268.186027 
L 256.737891 265.953823 
L 253.577658 263.973241 
L 252.173444 263.232 
L 247.188663 260.50892 
L 244.683547 259.327654 
L 242.611086 258.249889 
L 239.652897 256.95968 
L 235.96798 255.313286 
L 235.345894 255.036527 
L 233.593467 254.3616 
L 227.297817 251.900243 
L 226.908831 251.76352 
L 218.808371 248.85191 
L 214.578701 247.60294 
L 213.162613 247.125801 
L 207.418565 245.4912 
L 206.051525 245.090385 
L 205.119719 244.870918 
L 198.499962 243.086594 
L 196.515434 242.645624 
L 192.942721 241.714546 
L 184.41354 239.921361 
L 183.582846 239.720591 
L 181.068089 239.21888 
L 177.519687 238.533017 
L 171.608865 237.391539 
L 167.110478 236.6208 
L 159.823338 235.392577 
L 151.780552 234.198356 
L 150.595884 234.02272 
L 146.855534 233.483814 
L 146.083598 233.400035 
L 136.923622 232.138499 
L 134.394624 231.881023 
L 131.420158 231.488894 
L 127.82545 231.133092 
L 122.290132 230.43345 
L 117.488819 229.985839 
L 115.872966 229.78979 
L 109.916808 229.249148 
L 107.44455 228.960816 
L 100.692982 228.381583 
L 100.4544 228.352982 
L 100.4544 236.6208 
L 100.4544 245.4912 
L 100.4544 254.3616 
L 100.4544 259.874347 
L 101.634381 260.110292 
L 106.72911 261.237587 
L 109.799848 261.86142 
L 115.720357 263.232 
L 116.569951 263.427478 
L 116.733498 263.469194 
L 123.147833 264.975159 
L 127.338975 266.081601 
L 131.380483 267.075457 
L 134.621026 267.961583 
L 136.240542 268.368636 
L 140.241639 269.50432 
L 144.198212 270.618032 
L 145.46323 270.976532 
L 149.129986 272.1024 
L 153.911063 273.557793 
L 157.41965 274.70048 
L 161.608332 276.051566 
L 163.625469 276.775119 
L 166.441398 277.72078 
L 172.315884 279.886842 
L 173.818025 280.412674 
L 175.248223 280.9728 
L 180.618708 283.043985 
L 182.48099 283.828388 
L 185.717749 285.113454 
L 190.537483 287.24512 
L 192.926838 288.286068 
L 196.243292 289.8432 
L 200.87055 292.028852 
L 201.677906 292.44128 
L 208.353064 295.790701 
L 213.598852 298.7136 
L 213.749391 298.795848 
L 213.829505 298.8433 
L 219.052754 301.806508 
L 224.094644 304.98592 
L 225.580894 305.901964 
L 228.110972 307.584 
L 229.96992 307.584 
L 238.06464 307.584 
L 246.15936 307.584 
L 254.25408 307.584 
L 262.3488 307.584 
L 270.44352 307.584 
L 278.53824 307.584 
L 286.63296 307.584 
L 294.72768 307.584 
" clip-path="url(#pd64db558f8)" style="fill: #ff9400"/>
   </g>
   <g id="PathCollection_19">
    <path d="M 228.110972 307.584 
L 225.580894 305.901964 
L 224.094644 304.98592 
L 219.052754 301.806508 
L 213.829505 298.8433 
L 213.749391 298.795848 
L 213.598852 298.7136 
L 208.353064 295.790701 
L 201.677906 292.44128 
L 200.87055 292.028852 
L 196.243292 289.8432 
L 192.926838 288.286068 
L 190.537483 287.24512 
L 185.717749 285.113454 
L 182.48099 283.828388 
L 180.618708 283.043985 
L 175.248223 280.9728 
L 173.818025 280.412674 
L 172.315884 279.886842 
L 166.441398 277.72078 
L 163.625469 276.775119 
L 161.608332 276.051566 
L 157.41965 274.70048 
L 153.911063 273.557793 
L 149.129986 272.1024 
L 145.46323 270.976532 
L 144.198212 270.618032 
L 140.241639 269.50432 
L 136.240542 268.368636 
L 134.621026 267.961583 
L 131.380483 267.075457 
L 127.338975 266.081601 
L 123.147833 264.975159 
L 116.733498 263.469194 
L 116.569951 263.427478 
L 115.720357 263.232 
L 109.799848 261.86142 
L 106.72911 261.237587 
L 101.634381 260.110292 
L 100.4544 259.874347 
L 100.4544 263.232 
L 100.4544 272.1024 
L 100.4544 280.9728 
L 100.4544 289.8432 
L 100.4544 290.793806 
L 101.651099 291.154573 
L 104.053257 291.883898 
L 105.815313 292.44128 
L 112.371715 294.524703 
L 115.454198 295.566336 
L 117.571671 296.258972 
L 124.669472 298.7136 
L 124.721861 298.7319 
L 124.772283 298.750554 
L 131.849881 301.315238 
L 134.148261 302.192457 
L 136.841782 303.191381 
L 141.378919 304.98592 
L 144.198668 306.099425 
L 147.800596 307.584 
L 149.02272 307.584 
L 157.11744 307.584 
L 165.21216 307.584 
L 173.30688 307.584 
L 181.4016 307.584 
L 189.49632 307.584 
L 197.59104 307.584 
L 205.68576 307.584 
L 213.78048 307.584 
L 221.8752 307.584 
" clip-path="url(#pd64db558f8)" style="fill: #ff3800"/>
   </g>
   <g id="PathCollection_20">
    <path d="M 147.800596 307.584 
L 144.198668 306.099425 
L 141.378919 304.98592 
L 136.841782 303.191381 
L 134.148261 302.192457 
L 131.849881 301.315238 
L 124.772283 298.750554 
L 124.721861 298.7319 
L 124.669472 298.7136 
L 117.571671 296.258972 
L 115.454198 295.566336 
L 112.371715 294.524703 
L 105.815313 292.44128 
L 104.053257 291.883898 
L 101.651099 291.154573 
L 100.4544 290.793806 
L 100.4544 298.7136 
L 100.4544 307.584 
L 108.54912 307.584 
L 116.64384 307.584 
L 124.73856 307.584 
L 132.83328 307.584 
L 140.928 307.584 
" clip-path="url(#pd64db558f8)" style="fill: #b60000"/>
   </g>
   <g id="matplotlib.axis_1">
    <g id="xtick_1">
     <g id="line2d_1">
      <defs>
       <path id="mf6f47f3bc5" d="M 0 0 
L 0 3.5 
" style="stroke: #000000; stroke-width: 0.8"/>
      </defs>
      <g>
       <use xlink:href="#mf6f47f3bc5" x="57.6" y="307.584" style="stroke: #000000; stroke-width: 0.8"/>
      </g>
     </g>
     <g id="text_1">
      <!-- 0.0 -->
      <g transform="translate(51.26875 321.385562) scale(0.1 -0.1)">
       <defs>
        <path id="Calibri-30" d="M 3022 2031 
Q 3022 1566 2948 1181 
Q 2875 797 2704 520 
Q 2534 244 2259 92 
Q 1984 -59 1581 -59 
Q 1200 -59 939 77 
Q 678 213 518 477 
Q 359 741 292 1127 
Q 225 1513 225 2013 
Q 225 2475 300 2861 
Q 375 3247 544 3523 
Q 713 3800 988 3951 
Q 1263 4103 1663 4103 
Q 2047 4103 2308 3967 
Q 2569 3831 2728 3567 
Q 2888 3303 2955 2917 
Q 3022 2531 3022 2031 
z
M 2472 1994 
Q 2472 2297 2450 2537 
Q 2428 2778 2386 2962 
Q 2344 3147 2276 3280 
Q 2209 3413 2115 3498 
Q 2022 3584 1901 3623 
Q 1781 3663 1631 3663 
Q 1366 3663 1200 3538 
Q 1034 3413 939 3194 
Q 844 2975 809 2681 
Q 775 2388 775 2050 
Q 775 1597 822 1280 
Q 869 963 970 763 
Q 1072 563 1230 472 
Q 1388 381 1613 381 
Q 1788 381 1920 437 
Q 2053 494 2148 598 
Q 2244 703 2306 850 
Q 2369 997 2406 1175 
Q 2444 1353 2458 1561 
Q 2472 1769 2472 1994 
z
" transform="scale(0.015625)"/>
        <path id="Calibri-2e" d="M 1144 341 
Q 1144 119 1070 45 
Q 997 -28 803 -28 
Q 616 -28 544 44 
Q 472 116 472 331 
Q 472 553 545 626 
Q 619 700 813 700 
Q 1000 700 1072 628 
Q 1144 556 1144 341 
z
" transform="scale(0.015625)"/>
       </defs>
       <use xlink:href="#Calibri-30"/>
       <use xlink:href="#Calibri-2e" x="50.683594"/>
       <use xlink:href="#Calibri-30" x="75.927734"/>
      </g>
     </g>
    </g>
    <g id="xtick_2">
     <g id="line2d_2">
      <g>
       <use xlink:href="#mf6f47f3bc5" x="86.1696" y="307.584" style="stroke: #000000; stroke-width: 0.8"/>
      </g>
     </g>
     <g id="text_2">
      <!-- 0.1 -->
      <g transform="translate(79.83835 321.385562) scale(0.1 -0.1)">
       <defs>
        <path id="Calibri-31" d="M 2897 213 
Q 2897 153 2887 112 
Q 2878 72 2862 47 
Q 2847 22 2826 11 
Q 2806 0 2784 0 
L 672 0 
Q 650 0 631 11 
Q 613 22 595 47 
Q 578 72 568 112 
Q 559 153 559 213 
Q 559 269 568 309 
Q 578 350 592 376 
Q 606 403 626 417 
Q 647 431 672 431 
L 1516 431 
L 1516 3506 
L 734 3041 
Q 675 3009 639 3003 
Q 603 2997 581 3017 
Q 559 3038 551 3084 
Q 544 3131 544 3203 
Q 544 3256 548 3293 
Q 553 3331 562 3356 
Q 572 3381 589 3400 
Q 606 3419 634 3438 
L 1566 4034 
Q 1578 4044 1597 4050 
Q 1616 4056 1644 4062 
Q 1672 4069 1709 4070 
Q 1747 4072 1803 4072 
Q 1878 4072 1928 4065 
Q 1978 4059 2006 4048 
Q 2034 4038 2043 4020 
Q 2053 4003 2053 3984 
L 2053 431 
L 2784 431 
Q 2809 431 2831 417 
Q 2853 403 2867 376 
Q 2881 350 2889 309 
Q 2897 269 2897 213 
z
" transform="scale(0.015625)"/>
       </defs>
       <use xlink:href="#Calibri-30"/>
       <use xlink:href="#Calibri-2e" x="50.683594"/>
       <use xlink:href="#Calibri-31" x="75.927734"/>
      </g>
     </g>
    </g>
    <g id="xtick_3">
     <g id="line2d_3">
      <g>
       <use xlink:href="#mf6f47f3bc5" x="114.7392" y="307.584" style="stroke: #000000; stroke-width: 0.8"/>
      </g>
     </g>
     <g id="text_3">
      <!-- 0.2 -->
      <g transform="translate(108.40795 321.385562) scale(0.1 -0.1)">
       <defs>
        <path id="Calibri-32" d="M 2888 231 
Q 2888 175 2880 131 
Q 2872 88 2858 58 
Q 2844 28 2820 14 
Q 2797 0 2769 0 
L 534 0 
Q 491 0 458 11 
Q 425 22 401 47 
Q 378 72 367 119 
Q 356 166 356 234 
Q 356 297 361 344 
Q 366 391 381 427 
Q 397 463 420 498 
Q 444 534 481 575 
L 1266 1406 
Q 1538 1694 1702 1922 
Q 1866 2150 1955 2337 
Q 2044 2525 2072 2678 
Q 2100 2831 2100 2966 
Q 2100 3100 2056 3220 
Q 2013 3341 1930 3431 
Q 1847 3522 1722 3575 
Q 1597 3628 1434 3628 
Q 1244 3628 1092 3575 
Q 941 3522 827 3459 
Q 713 3397 636 3344 
Q 559 3291 522 3291 
Q 500 3291 483 3303 
Q 466 3316 455 3344 
Q 444 3372 437 3419 
Q 431 3466 431 3531 
Q 431 3578 434 3612 
Q 438 3647 445 3672 
Q 453 3697 465 3719 
Q 478 3741 515 3773 
Q 553 3806 645 3862 
Q 738 3919 877 3973 
Q 1016 4028 1183 4065 
Q 1350 4103 1534 4103 
Q 1828 4103 2048 4020 
Q 2269 3938 2414 3794 
Q 2559 3650 2631 3459 
Q 2703 3269 2703 3053 
Q 2703 2859 2668 2667 
Q 2634 2475 2523 2251 
Q 2413 2028 2203 1754 
Q 1994 1481 1647 1125 
L 1006 456 
L 2766 456 
Q 2791 456 2814 442 
Q 2838 428 2855 400 
Q 2872 372 2880 330 
Q 2888 288 2888 231 
z
" transform="scale(0.015625)"/>
       </defs>
       <use xlink:href="#Calibri-30"/>
       <use xlink:href="#Calibri-2e" x="50.683594"/>
       <use xlink:href="#Calibri-32" x="75.927734"/>
      </g>
     </g>
    </g>
    <g id="xtick_4">
     <g id="line2d_4">
      <g>
       <use xlink:href="#mf6f47f3bc5" x="143.3088" y="307.584" style="stroke: #000000; stroke-width: 0.8"/>
      </g>
     </g>
     <g id="text_4">
      <!-- 0.3 -->
      <g transform="translate(136.97755 321.385562) scale(0.1 -0.1)">
       <defs>
        <path id="Calibri-33" d="M 2856 1156 
Q 2856 878 2759 654 
Q 2663 431 2481 272 
Q 2300 113 2034 27 
Q 1769 -59 1434 -59 
Q 1231 -59 1054 -26 
Q 878 6 740 51 
Q 603 97 512 145 
Q 422 194 398 216 
Q 375 238 362 259 
Q 350 281 340 312 
Q 331 344 326 389 
Q 322 434 322 500 
Q 322 613 344 656 
Q 366 700 406 700 
Q 434 700 517 650 
Q 600 600 729 542 
Q 859 484 1032 434 
Q 1206 384 1419 384 
Q 1625 384 1781 437 
Q 1938 491 2044 587 
Q 2150 684 2203 817 
Q 2256 950 2256 1106 
Q 2256 1278 2189 1415 
Q 2122 1553 1992 1653 
Q 1863 1753 1673 1806 
Q 1484 1859 1244 1859 
L 859 1859 
Q 834 1859 811 1870 
Q 788 1881 770 1906 
Q 753 1931 742 1972 
Q 731 2013 731 2078 
Q 731 2138 740 2177 
Q 750 2216 767 2239 
Q 784 2263 806 2273 
Q 828 2284 856 2284 
L 1209 2284 
Q 1416 2284 1580 2337 
Q 1744 2391 1858 2491 
Q 1972 2591 2033 2730 
Q 2094 2869 2094 3041 
Q 2094 3166 2053 3280 
Q 2013 3394 1931 3478 
Q 1850 3563 1723 3611 
Q 1597 3659 1431 3659 
Q 1250 3659 1098 3604 
Q 947 3550 828 3487 
Q 709 3425 631 3370 
Q 553 3316 522 3316 
Q 500 3316 483 3323 
Q 466 3331 455 3354 
Q 444 3378 439 3420 
Q 434 3463 434 3531 
Q 434 3578 437 3614 
Q 441 3650 450 3676 
Q 459 3703 471 3725 
Q 484 3747 514 3776 
Q 544 3806 634 3862 
Q 725 3919 858 3973 
Q 991 4028 1164 4065 
Q 1338 4103 1538 4103 
Q 1819 4103 2031 4031 
Q 2244 3959 2386 3828 
Q 2528 3697 2598 3514 
Q 2669 3331 2669 3109 
Q 2669 2919 2619 2755 
Q 2569 2591 2472 2464 
Q 2375 2338 2234 2248 
Q 2094 2159 1909 2125 
L 1909 2119 
Q 2119 2097 2292 2014 
Q 2466 1931 2591 1806 
Q 2716 1681 2786 1514 
Q 2856 1347 2856 1156 
z
" transform="scale(0.015625)"/>
       </defs>
       <use xlink:href="#Calibri-30"/>
       <use xlink:href="#Calibri-2e" x="50.683594"/>
       <use xlink:href="#Calibri-33" x="75.927734"/>
      </g>
     </g>
    </g>
    <g id="xtick_5">
     <g id="line2d_5">
      <g>
       <use xlink:href="#mf6f47f3bc5" x="171.8784" y="307.584" style="stroke: #000000; stroke-width: 0.8"/>
      </g>
     </g>
     <g id="text_5">
      <!-- 0.4 -->
      <g transform="translate(165.54715 321.385562) scale(0.1 -0.1)">
       <defs>
        <path id="Calibri-34" d="M 3059 1150 
Q 3059 1047 3028 987 
Q 2997 928 2941 928 
L 2484 928 
L 2484 78 
Q 2484 53 2471 36 
Q 2459 19 2428 6 
Q 2397 -6 2347 -12 
Q 2297 -19 2219 -19 
Q 2144 -19 2094 -12 
Q 2044 -6 2014 6 
Q 1984 19 1973 36 
Q 1963 53 1963 78 
L 1963 928 
L 294 928 
Q 256 928 231 937 
Q 206 947 186 972 
Q 166 997 158 1044 
Q 150 1091 150 1166 
Q 150 1225 153 1272 
Q 156 1319 165 1358 
Q 175 1397 190 1433 
Q 206 1469 228 1509 
L 1684 3966 
Q 1700 3991 1729 4009 
Q 1759 4028 1806 4040 
Q 1853 4053 1922 4058 
Q 1991 4063 2084 4063 
Q 2188 4063 2264 4055 
Q 2341 4047 2387 4034 
Q 2434 4022 2459 4001 
Q 2484 3981 2484 3953 
L 2484 1372 
L 2941 1372 
Q 2994 1372 3026 1317 
Q 3059 1263 3059 1150 
z
M 1963 3591 
L 1956 3591 
L 641 1372 
L 1963 1372 
L 1963 3591 
z
" transform="scale(0.015625)"/>
       </defs>
       <use xlink:href="#Calibri-30"/>
       <use xlink:href="#Calibri-2e" x="50.683594"/>
       <use xlink:href="#Calibri-34" x="75.927734"/>
      </g>
     </g>
    </g>
    <g id="xtick_6">
     <g id="line2d_6">
      <g>
       <use xlink:href="#mf6f47f3bc5" x="200.448" y="307.584" style="stroke: #000000; stroke-width: 0.8"/>
      </g>
     </g>
     <g id="text_6">
      <!-- 0.5 -->
      <g transform="translate(194.11675 321.385562) scale(0.1 -0.1)">
       <defs>
        <path id="Calibri-35" d="M 2869 1300 
Q 2869 975 2759 722 
Q 2650 469 2450 295 
Q 2250 122 1973 31 
Q 1697 -59 1359 -59 
Q 1172 -59 1003 -32 
Q 834 -6 703 33 
Q 572 72 487 109 
Q 403 147 379 169 
Q 356 191 347 209 
Q 338 228 330 254 
Q 322 281 319 322 
Q 316 363 316 419 
Q 316 472 320 514 
Q 325 556 337 582 
Q 350 609 367 621 
Q 384 634 406 634 
Q 438 634 503 595 
Q 569 556 680 511 
Q 791 466 955 425 
Q 1119 384 1344 384 
Q 1553 384 1728 434 
Q 1903 484 2029 590 
Q 2156 697 2228 858 
Q 2300 1019 2300 1250 
Q 2300 1444 2239 1592 
Q 2178 1741 2051 1839 
Q 1925 1938 1731 1986 
Q 1538 2034 1269 2034 
Q 1078 2034 940 2015 
Q 803 1997 684 1997 
Q 597 1997 559 2037 
Q 522 2078 522 2194 
L 522 3841 
Q 522 3944 570 3994 
Q 619 4044 709 4044 
L 2500 4044 
Q 2525 4044 2548 4030 
Q 2572 4016 2587 3987 
Q 2603 3959 2611 3915 
Q 2619 3872 2619 3813 
Q 2619 3700 2587 3637 
Q 2556 3575 2500 3575 
L 991 3575 
L 991 2441 
Q 1100 2456 1214 2459 
Q 1328 2463 1478 2463 
Q 1825 2463 2084 2380 
Q 2344 2297 2517 2145 
Q 2691 1994 2780 1778 
Q 2869 1563 2869 1300 
z
" transform="scale(0.015625)"/>
       </defs>
       <use xlink:href="#Calibri-30"/>
       <use xlink:href="#Calibri-2e" x="50.683594"/>
       <use xlink:href="#Calibri-35" x="75.927734"/>
      </g>
     </g>
    </g>
    <g id="xtick_7">
     <g id="line2d_7">
      <g>
       <use xlink:href="#mf6f47f3bc5" x="229.0176" y="307.584" style="stroke: #000000; stroke-width: 0.8"/>
      </g>
     </g>
     <g id="text_7">
      <!-- 0.6 -->
      <g transform="translate(222.68635 321.385562) scale(0.1 -0.1)">
       <defs>
        <path id="Calibri-36" d="M 2991 1309 
Q 2991 1044 2909 795 
Q 2828 547 2659 358 
Q 2491 169 2231 55 
Q 1972 -59 1619 -59 
Q 1366 -59 1172 3 
Q 978 66 834 181 
Q 691 297 595 465 
Q 500 634 442 850 
Q 384 1066 359 1322 
Q 334 1578 334 1872 
Q 334 2131 362 2397 
Q 391 2663 462 2909 
Q 534 3156 657 3373 
Q 781 3591 967 3752 
Q 1153 3913 1412 4006 
Q 1672 4100 2016 4100 
Q 2131 4100 2250 4086 
Q 2369 4072 2469 4048 
Q 2569 4025 2637 3997 
Q 2706 3969 2728 3951 
Q 2750 3934 2761 3914 
Q 2772 3894 2778 3870 
Q 2784 3847 2787 3817 
Q 2791 3788 2791 3744 
Q 2791 3688 2789 3647 
Q 2788 3606 2777 3581 
Q 2766 3556 2748 3543 
Q 2731 3531 2703 3531 
Q 2669 3531 2609 3553 
Q 2550 3575 2465 3601 
Q 2381 3628 2261 3650 
Q 2141 3672 1981 3672 
Q 1691 3672 1481 3553 
Q 1272 3434 1139 3234 
Q 1006 3034 942 2770 
Q 878 2506 869 2219 
Q 950 2266 1051 2312 
Q 1153 2359 1273 2396 
Q 1394 2434 1528 2457 
Q 1663 2481 1816 2481 
Q 2144 2481 2369 2392 
Q 2594 2303 2733 2145 
Q 2872 1988 2931 1773 
Q 2991 1559 2991 1309 
z
M 2447 1259 
Q 2447 1441 2411 1589 
Q 2375 1738 2290 1841 
Q 2206 1944 2065 2000 
Q 1925 2056 1719 2056 
Q 1603 2056 1487 2036 
Q 1372 2016 1264 1980 
Q 1156 1944 1057 1895 
Q 959 1847 878 1791 
Q 878 1388 929 1116 
Q 981 844 1079 680 
Q 1178 516 1325 445 
Q 1472 375 1669 375 
Q 1869 375 2016 450 
Q 2163 525 2259 651 
Q 2356 778 2401 936 
Q 2447 1094 2447 1259 
z
" transform="scale(0.015625)"/>
       </defs>
       <use xlink:href="#Calibri-30"/>
       <use xlink:href="#Calibri-2e" x="50.683594"/>
       <use xlink:href="#Calibri-36" x="75.927734"/>
      </g>
     </g>
    </g>
    <g id="xtick_8">
     <g id="line2d_8">
      <g>
       <use xlink:href="#mf6f47f3bc5" x="257.5872" y="307.584" style="stroke: #000000; stroke-width: 0.8"/>
      </g>
     </g>
     <g id="text_8">
      <!-- 0.7 -->
      <g transform="translate(251.25595 321.385562) scale(0.1 -0.1)">
       <defs>
        <path id="Calibri-37" d="M 2947 3813 
Q 2947 3756 2942 3711 
Q 2938 3666 2930 3623 
Q 2922 3581 2908 3542 
Q 2894 3503 2875 3459 
L 1419 103 
Q 1403 66 1379 42 
Q 1356 19 1320 5 
Q 1284 -9 1228 -14 
Q 1172 -19 1091 -19 
Q 984 -19 925 -9 
Q 866 0 839 20 
Q 813 41 816 70 
Q 819 100 838 141 
L 2369 3572 
L 428 3572 
Q 369 3572 339 3634 
Q 309 3697 309 3809 
Q 309 3869 317 3912 
Q 325 3956 340 3986 
Q 356 4016 378 4030 
Q 400 4044 428 4044 
L 2784 4044 
Q 2828 4044 2861 4034 
Q 2894 4025 2911 3997 
Q 2928 3969 2937 3925 
Q 2947 3881 2947 3813 
z
" transform="scale(0.015625)"/>
       </defs>
       <use xlink:href="#Calibri-30"/>
       <use xlink:href="#Calibri-2e" x="50.683594"/>
       <use xlink:href="#Calibri-37" x="75.927734"/>
      </g>
     </g>
    </g>
    <g id="xtick_9">
     <g id="line2d_9">
      <g>
       <use xlink:href="#mf6f47f3bc5" x="286.1568" y="307.584" style="stroke: #000000; stroke-width: 0.8"/>
      </g>
     </g>
     <g id="text_9">
      <!-- 0.8 -->
      <g transform="translate(279.82555 321.385562) scale(0.1 -0.1)">
       <defs>
        <path id="Calibri-38" d="M 2981 1038 
Q 2981 775 2887 570 
Q 2794 366 2617 225 
Q 2441 84 2181 12 
Q 1922 -59 1588 -59 
Q 1275 -59 1028 6 
Q 781 72 609 200 
Q 438 328 347 515 
Q 256 703 256 944 
Q 256 1134 318 1293 
Q 381 1453 498 1587 
Q 616 1722 787 1839 
Q 959 1956 1175 2063 
Q 988 2159 844 2267 
Q 700 2375 600 2501 
Q 500 2628 448 2772 
Q 397 2916 397 3084 
Q 397 3297 473 3483 
Q 550 3669 704 3806 
Q 859 3944 1098 4023 
Q 1338 4103 1656 4103 
Q 1963 4103 2186 4029 
Q 2409 3956 2554 3829 
Q 2700 3703 2769 3531 
Q 2838 3359 2838 3163 
Q 2838 3003 2786 2856 
Q 2734 2709 2634 2578 
Q 2534 2447 2389 2333 
Q 2244 2219 2056 2119 
Q 2278 2009 2451 1893 
Q 2625 1778 2742 1645 
Q 2859 1513 2920 1364 
Q 2981 1216 2981 1038 
z
M 2306 3113 
Q 2306 3244 2261 3350 
Q 2216 3456 2128 3531 
Q 2041 3606 1911 3645 
Q 1781 3684 1616 3684 
Q 1278 3684 1104 3531 
Q 931 3378 931 3113 
Q 931 2991 973 2886 
Q 1016 2781 1105 2687 
Q 1194 2594 1330 2505 
Q 1466 2416 1653 2319 
Q 1969 2481 2137 2678 
Q 2306 2875 2306 3113 
z
M 2438 981 
Q 2438 1125 2384 1242 
Q 2331 1359 2223 1461 
Q 2116 1563 1955 1658 
Q 1794 1753 1581 1856 
Q 1384 1759 1236 1662 
Q 1088 1566 992 1462 
Q 897 1359 848 1245 
Q 800 1131 800 994 
Q 800 691 1008 525 
Q 1216 359 1628 359 
Q 2028 359 2233 526 
Q 2438 694 2438 981 
z
" transform="scale(0.015625)"/>
       </defs>
       <use xlink:href="#Calibri-30"/>
       <use xlink:href="#Calibri-2e" x="50.683594"/>
       <use xlink:href="#Calibri-38" x="75.927734"/>
      </g>
     </g>
    </g>
    <g id="xtick_10">
     <g id="line2d_10">
      <g>
       <use xlink:href="#mf6f47f3bc5" x="314.7264" y="307.584" style="stroke: #000000; stroke-width: 0.8"/>
      </g>
     </g>
     <g id="text_10">
      <!-- 0.9 -->
      <g transform="translate(308.39515 321.385562) scale(0.1 -0.1)">
       <defs>
        <path id="Calibri-39" d="M 2919 2181 
Q 2919 1919 2887 1650 
Q 2856 1381 2781 1132 
Q 2706 884 2579 667 
Q 2453 450 2261 287 
Q 2069 125 1805 33 
Q 1541 -59 1191 -59 
Q 1056 -59 929 -42 
Q 803 -25 701 0 
Q 600 25 531 53 
Q 463 81 431 109 
Q 400 138 386 186 
Q 372 234 372 316 
Q 372 384 376 425 
Q 381 466 390 487 
Q 400 509 417 517 
Q 434 525 459 525 
Q 494 525 556 501 
Q 619 478 714 450 
Q 809 422 937 398 
Q 1066 375 1225 375 
Q 1528 375 1745 492 
Q 1963 609 2100 806 
Q 2238 1003 2306 1262 
Q 2375 1522 2381 1809 
Q 2216 1713 1984 1638 
Q 1753 1563 1453 1563 
Q 1116 1563 886 1655 
Q 656 1747 517 1906 
Q 378 2066 317 2284 
Q 256 2503 256 2763 
Q 256 3031 334 3273 
Q 413 3516 578 3700 
Q 744 3884 1000 3993 
Q 1256 4103 1613 4103 
Q 1866 4103 2061 4039 
Q 2256 3975 2400 3854 
Q 2544 3734 2644 3564 
Q 2744 3394 2805 3178 
Q 2866 2963 2892 2711 
Q 2919 2459 2919 2181 
z
M 2372 2241 
Q 2372 2641 2319 2914 
Q 2266 3188 2162 3356 
Q 2059 3525 1909 3600 
Q 1759 3675 1563 3675 
Q 1359 3675 1215 3601 
Q 1072 3528 980 3404 
Q 888 3281 844 3125 
Q 800 2969 800 2803 
Q 800 2619 839 2466 
Q 878 2313 965 2206 
Q 1053 2100 1193 2042 
Q 1334 1984 1541 1984 
Q 1775 1984 1994 2054 
Q 2213 2125 2372 2241 
z
" transform="scale(0.015625)"/>
       </defs>
       <use xlink:href="#Calibri-30"/>
       <use xlink:href="#Calibri-2e" x="50.683594"/>
       <use xlink:href="#Calibri-39" x="75.927734"/>
      </g>
     </g>
    </g>
    <g id="xtick_11">
     <g id="line2d_11">
      <g>
       <use xlink:href="#mf6f47f3bc5" x="343.296" y="307.584" style="stroke: #000000; stroke-width: 0.8"/>
      </g>
     </g>
     <g id="text_11">
      <!-- 1.0 -->
      <g transform="translate(336.96475 321.385562) scale(0.1 -0.1)">
       <use xlink:href="#Calibri-31"/>
       <use xlink:href="#Calibri-2e" x="50.683594"/>
       <use xlink:href="#Calibri-30" x="75.927734"/>
      </g>
     </g>
    </g>
    <g id="text_12">
     <!-- $\mathit{p}$ (cm$^2$/cm$^2$) -->
     <g transform="translate(174.148 336.263687) scale(0.1 -0.1)">
      <defs>
       <path id="DejaVuSans-Oblique-70" d="M 3175 2156 
Q 3175 2616 2975 2859 
Q 2775 3103 2400 3103 
Q 2144 3103 1911 2972 
Q 1678 2841 1497 2591 
Q 1319 2344 1212 1994 
Q 1106 1644 1106 1300 
Q 1106 863 1306 627 
Q 1506 391 1875 391 
Q 2147 391 2380 519 
Q 2613 647 2778 891 
Q 2956 1147 3065 1494 
Q 3175 1841 3175 2156 
z
M 1394 2969 
Q 1625 3272 1939 3428 
Q 2253 3584 2638 3584 
Q 3175 3584 3472 3232 
Q 3769 2881 3769 2247 
Q 3769 1728 3584 1258 
Q 3400 788 3053 416 
Q 2822 169 2531 39 
Q 2241 -91 1919 -91 
Q 1547 -91 1294 64 
Q 1041 219 916 525 
L 556 -1331 
L -19 -1331 
L 922 3500 
L 1497 3500 
L 1394 2969 
z
" transform="scale(0.015625)"/>
       <path id="Calibri-20" transform="scale(0.015625)"/>
       <path id="Calibri-28" d="M 1547 4306 
Q 1250 3678 1104 3017 
Q 959 2356 959 1688 
Q 959 1016 1107 356 
Q 1256 -303 1541 -938 
Q 1556 -975 1557 -1001 
Q 1559 -1028 1537 -1045 
Q 1516 -1063 1470 -1070 
Q 1425 -1078 1347 -1078 
Q 1291 -1078 1250 -1075 
Q 1209 -1072 1179 -1062 
Q 1150 -1053 1131 -1040 
Q 1113 -1028 1103 -1013 
Q 934 -694 806 -367 
Q 678 -41 590 296 
Q 503 634 459 979 
Q 416 1325 416 1678 
Q 416 2031 464 2375 
Q 513 2719 602 3058 
Q 691 3397 819 3725 
Q 947 4053 1106 4375 
Q 1109 4388 1123 4397 
Q 1138 4406 1163 4415 
Q 1188 4425 1231 4429 
Q 1275 4434 1344 4434 
Q 1416 4434 1459 4425 
Q 1503 4416 1528 4400 
Q 1553 4384 1556 4359 
Q 1559 4334 1547 4306 
z
" transform="scale(0.015625)"/>
       <path id="Calibri-63" d="M 2500 506 
Q 2500 453 2497 414 
Q 2494 375 2486 348 
Q 2478 322 2467 301 
Q 2456 281 2417 242 
Q 2378 203 2284 145 
Q 2191 88 2073 42 
Q 1956 -3 1818 -31 
Q 1681 -59 1534 -59 
Q 1231 -59 997 41 
Q 763 141 605 333 
Q 447 525 364 804 
Q 281 1084 281 1450 
Q 281 1866 382 2164 
Q 484 2463 661 2653 
Q 838 2844 1077 2936 
Q 1316 3028 1594 3028 
Q 1728 3028 1854 3003 
Q 1981 2978 2087 2937 
Q 2194 2897 2276 2844 
Q 2359 2791 2396 2753 
Q 2434 2716 2448 2694 
Q 2463 2672 2472 2642 
Q 2481 2613 2484 2575 
Q 2488 2538 2488 2481 
Q 2488 2359 2459 2311 
Q 2431 2263 2391 2263 
Q 2344 2263 2283 2314 
Q 2222 2366 2128 2428 
Q 2034 2491 1901 2542 
Q 1769 2594 1588 2594 
Q 1216 2594 1017 2308 
Q 819 2022 819 1478 
Q 819 1206 870 1001 
Q 922 797 1022 659 
Q 1122 522 1267 455 
Q 1413 388 1600 388 
Q 1778 388 1912 444 
Q 2047 500 2145 567 
Q 2244 634 2311 689 
Q 2378 744 2416 744 
Q 2438 744 2453 731 
Q 2469 719 2480 689 
Q 2491 659 2495 614 
Q 2500 569 2500 506 
z
" transform="scale(0.015625)"/>
       <path id="Calibri-6d" d="M 4650 78 
Q 4650 53 4637 36 
Q 4625 19 4597 6 
Q 4569 -6 4519 -12 
Q 4469 -19 4394 -19 
Q 4316 -19 4266 -12 
Q 4216 -6 4186 6 
Q 4156 19 4143 36 
Q 4131 53 4131 78 
L 4131 1788 
Q 4131 1966 4100 2112 
Q 4069 2259 4000 2365 
Q 3931 2472 3825 2528 
Q 3719 2584 3575 2584 
Q 3397 2584 3217 2446 
Q 3038 2309 2822 2044 
L 2822 78 
Q 2822 53 2809 36 
Q 2797 19 2767 6 
Q 2738 -6 2688 -12 
Q 2638 -19 2563 -19 
Q 2491 -19 2439 -12 
Q 2388 -6 2358 6 
Q 2328 19 2317 36 
Q 2306 53 2306 78 
L 2306 1788 
Q 2306 1966 2272 2112 
Q 2238 2259 2169 2365 
Q 2100 2472 1995 2528 
Q 1891 2584 1747 2584 
Q 1569 2584 1387 2446 
Q 1206 2309 994 2044 
L 994 78 
Q 994 53 981 36 
Q 969 19 941 6 
Q 913 -6 863 -12 
Q 813 -19 734 -19 
Q 659 -19 609 -12 
Q 559 -6 529 6 
Q 500 19 489 36 
Q 478 53 478 78 
L 478 2891 
Q 478 2916 487 2933 
Q 497 2950 525 2964 
Q 553 2978 597 2983 
Q 641 2988 713 2988 
Q 781 2988 826 2983 
Q 872 2978 897 2964 
Q 922 2950 933 2933 
Q 944 2916 944 2891 
L 944 2519 
Q 1181 2784 1404 2907 
Q 1628 3031 1856 3031 
Q 2031 3031 2170 2990 
Q 2309 2950 2415 2876 
Q 2522 2803 2597 2701 
Q 2672 2600 2722 2475 
Q 2863 2628 2989 2734 
Q 3116 2841 3233 2906 
Q 3350 2972 3461 3001 
Q 3572 3031 3684 3031 
Q 3956 3031 4140 2936 
Q 4325 2841 4439 2681 
Q 4553 2522 4601 2308 
Q 4650 2094 4650 1856 
L 4650 78 
z
" transform="scale(0.015625)"/>
       <path id="DejaVuSans-32" d="M 1228 531 
L 3431 531 
L 3431 0 
L 469 0 
L 469 531 
Q 828 903 1448 1529 
Q 2069 2156 2228 2338 
Q 2531 2678 2651 2914 
Q 2772 3150 2772 3378 
Q 2772 3750 2511 3984 
Q 2250 4219 1831 4219 
Q 1534 4219 1204 4116 
Q 875 4013 500 3803 
L 500 4441 
Q 881 4594 1212 4672 
Q 1544 4750 1819 4750 
Q 2544 4750 2975 4387 
Q 3406 4025 3406 3419 
Q 3406 3131 3298 2873 
Q 3191 2616 2906 2266 
Q 2828 2175 2409 1742 
Q 1991 1309 1228 531 
z
" transform="scale(0.015625)"/>
       <path id="Calibri-2f" d="M 525 -753 
Q 513 -794 492 -817 
Q 472 -841 440 -853 
Q 409 -866 364 -872 
Q 319 -878 253 -878 
Q 175 -878 123 -867 
Q 72 -856 44 -836 
Q 16 -816 9 -786 
Q 3 -756 22 -716 
L 1913 4469 
Q 1925 4509 1945 4532 
Q 1966 4556 1995 4570 
Q 2025 4584 2072 4589 
Q 2119 4594 2184 4594 
Q 2263 4594 2313 4583 
Q 2363 4572 2391 4553 
Q 2419 4534 2425 4503 
Q 2431 4472 2416 4431 
L 525 -753 
z
" transform="scale(0.015625)"/>
       <path id="Calibri-29" d="M 1522 1678 
Q 1522 1325 1478 979 
Q 1434 634 1346 296 
Q 1259 -41 1132 -367 
Q 1006 -694 838 -1013 
Q 828 -1028 809 -1040 
Q 791 -1053 761 -1062 
Q 731 -1072 690 -1075 
Q 650 -1078 594 -1078 
Q 513 -1078 467 -1070 
Q 422 -1063 401 -1045 
Q 381 -1028 382 -1001 
Q 384 -975 400 -938 
Q 688 -306 834 355 
Q 981 1016 981 1688 
Q 981 2356 834 3017 
Q 688 3678 394 4306 
Q 381 4334 384 4359 
Q 388 4384 413 4400 
Q 438 4416 481 4425 
Q 525 4434 597 4434 
Q 663 4434 706 4429 
Q 750 4425 776 4415 
Q 803 4406 815 4397 
Q 828 4388 834 4375 
Q 1156 3734 1339 3057 
Q 1522 2381 1522 1678 
z
" transform="scale(0.015625)"/>
      </defs>
      <use xlink:href="#DejaVuSans-Oblique-70" transform="translate(0 0.765625)"/>
      <use xlink:href="#Calibri-20" transform="translate(63.476562 0.765625)"/>
      <use xlink:href="#Calibri-28" transform="translate(84.958984 0.765625)"/>
      <use xlink:href="#Calibri-63" transform="translate(115.28125 0.765625)"/>
      <use xlink:href="#Calibri-6d" transform="translate(157.566406 0.765625)"/>
      <use xlink:href="#DejaVuSans-32" transform="translate(238.40625 39.046875) scale(0.7)"/>
      <use xlink:href="#Calibri-2f" transform="translate(285.676758 0.765625)"/>
      <use xlink:href="#Calibri-63" transform="translate(324.299805 0.765625)"/>
      <use xlink:href="#Calibri-6d" transform="translate(366.584961 0.765625)"/>
      <use xlink:href="#DejaVuSans-32" transform="translate(447.424805 39.046875) scale(0.7)"/>
      <use xlink:href="#Calibri-29" transform="translate(494.695312 0.765625)"/>
     </g>
    </g>
   </g>
   <g id="matplotlib.axis_2">
    <g id="ytick_1">
     <g id="line2d_12">
      <defs>
       <path id="m9f07ad8367" d="M 0 0 
L -3.5 0 
" style="stroke: #000000; stroke-width: 0.8"/>
      </defs>
      <g>
       <use xlink:href="#m9f07ad8367" x="57.6" y="275.65056" style="stroke: #000000; stroke-width: 0.8"/>
      </g>
     </g>
     <g id="text_13">
      <!-- 25 -->
      <g transform="translate(40.4625 279.051341) scale(0.1 -0.1)">
       <use xlink:href="#Calibri-32"/>
       <use xlink:href="#Calibri-35" x="50.683594"/>
      </g>
     </g>
    </g>
    <g id="ytick_2">
     <g id="line2d_13">
      <g>
       <use xlink:href="#m9f07ad8367" x="57.6" y="242.38656" style="stroke: #000000; stroke-width: 0.8"/>
      </g>
     </g>
     <g id="text_14">
      <!-- 50 -->
      <g transform="translate(40.4625 245.787341) scale(0.1 -0.1)">
       <use xlink:href="#Calibri-35"/>
       <use xlink:href="#Calibri-30" x="50.683594"/>
      </g>
     </g>
    </g>
    <g id="ytick_3">
     <g id="line2d_14">
      <g>
       <use xlink:href="#m9f07ad8367" x="57.6" y="209.12256" style="stroke: #000000; stroke-width: 0.8"/>
      </g>
     </g>
     <g id="text_15">
      <!-- 75 -->
      <g transform="translate(40.4625 212.523341) scale(0.1 -0.1)">
       <use xlink:href="#Calibri-37"/>
       <use xlink:href="#Calibri-35" x="50.683594"/>
      </g>
     </g>
    </g>
    <g id="ytick_4">
     <g id="line2d_15">
      <g>
       <use xlink:href="#m9f07ad8367" x="57.6" y="175.85856" style="stroke: #000000; stroke-width: 0.8"/>
      </g>
     </g>
     <g id="text_16">
      <!-- 100 -->
      <g transform="translate(35.39375 179.259341) scale(0.1 -0.1)">
       <use xlink:href="#Calibri-31"/>
       <use xlink:href="#Calibri-30" x="50.683594"/>
       <use xlink:href="#Calibri-30" x="101.367188"/>
      </g>
     </g>
    </g>
    <g id="ytick_5">
     <g id="line2d_16">
      <g>
       <use xlink:href="#m9f07ad8367" x="57.6" y="142.59456" style="stroke: #000000; stroke-width: 0.8"/>
      </g>
     </g>
     <g id="text_17">
      <!-- 125 -->
      <g transform="translate(35.39375 145.995341) scale(0.1 -0.1)">
       <use xlink:href="#Calibri-31"/>
       <use xlink:href="#Calibri-32" x="50.683594"/>
       <use xlink:href="#Calibri-35" x="101.367188"/>
      </g>
     </g>
    </g>
    <g id="ytick_6">
     <g id="line2d_17">
      <g>
       <use xlink:href="#m9f07ad8367" x="57.6" y="109.33056" style="stroke: #000000; stroke-width: 0.8"/>
      </g>
     </g>
     <g id="text_18">
      <!-- 150 -->
      <g transform="translate(35.39375 112.731341) scale(0.1 -0.1)">
       <use xlink:href="#Calibri-31"/>
       <use xlink:href="#Calibri-35" x="50.683594"/>
       <use xlink:href="#Calibri-30" x="101.367188"/>
      </g>
     </g>
    </g>
    <g id="ytick_7">
     <g id="line2d_18">
      <g>
       <use xlink:href="#m9f07ad8367" x="57.6" y="76.06656" style="stroke: #000000; stroke-width: 0.8"/>
      </g>
     </g>
     <g id="text_19">
      <!-- 175 -->
      <g transform="translate(35.39375 79.467341) scale(0.1 -0.1)">
       <use xlink:href="#Calibri-31"/>
       <use xlink:href="#Calibri-37" x="50.683594"/>
       <use xlink:href="#Calibri-35" x="101.367188"/>
      </g>
     </g>
    </g>
    <g id="ytick_8">
     <g id="line2d_19">
      <g>
       <use xlink:href="#m9f07ad8367" x="57.6" y="42.80256" style="stroke: #000000; stroke-width: 0.8"/>
      </g>
     </g>
     <g id="text_20">
      <!-- 200 -->
      <g transform="translate(35.39375 46.203341) scale(0.1 -0.1)">
       <use xlink:href="#Calibri-32"/>
       <use xlink:href="#Calibri-30" x="50.683594"/>
       <use xlink:href="#Calibri-30" x="101.367188"/>
      </g>
     </g>
    </g>
    <g id="text_21">
     <!-- $\mathit{Z}$$_{a}$ (nm) -->
     <g transform="translate(29.59375 191.028) rotate(-90) scale(0.1 -0.1)">
      <defs>
       <path id="DejaVuSans-Oblique-5a" d="M 838 4666 
L 4500 4666 
L 4409 4184 
L 794 531 
L 3769 531 
L 3669 0 
L -141 0 
L -50 481 
L 3566 4134 
L 738 4134 
L 838 4666 
z
" transform="scale(0.015625)"/>
       <path id="DejaVuSans-Oblique-61" d="M 3438 1997 
L 3047 0 
L 2472 0 
L 2578 531 
Q 2325 219 2001 64 
Q 1678 -91 1281 -91 
Q 834 -91 548 182 
Q 263 456 263 884 
Q 263 1497 752 1853 
Q 1241 2209 2100 2209 
L 2900 2209 
L 2931 2363 
Q 2938 2388 2941 2417 
Q 2944 2447 2944 2509 
Q 2944 2788 2717 2942 
Q 2491 3097 2081 3097 
Q 1800 3097 1504 3025 
Q 1209 2953 897 2809 
L 997 3341 
Q 1322 3463 1633 3523 
Q 1944 3584 2234 3584 
Q 2853 3584 3176 3315 
Q 3500 3047 3500 2534 
Q 3500 2431 3484 2292 
Q 3469 2153 3438 1997 
z
M 2816 1759 
L 2241 1759 
Q 1534 1759 1195 1570 
Q 856 1381 856 984 
Q 856 709 1029 553 
Q 1203 397 1509 397 
Q 1978 397 2328 733 
Q 2678 1069 2791 1631 
L 2816 1759 
z
" transform="scale(0.015625)"/>
       <path id="Calibri-6e" d="M 2900 78 
Q 2900 53 2887 36 
Q 2875 19 2847 6 
Q 2819 -6 2769 -12 
Q 2719 -19 2644 -19 
Q 2566 -19 2516 -12 
Q 2466 -6 2437 6 
Q 2409 19 2396 36 
Q 2384 53 2384 78 
L 2384 1725 
Q 2384 1966 2346 2112 
Q 2309 2259 2237 2365 
Q 2166 2472 2052 2528 
Q 1938 2584 1788 2584 
Q 1594 2584 1400 2446 
Q 1206 2309 994 2044 
L 994 78 
Q 994 53 981 36 
Q 969 19 941 6 
Q 913 -6 863 -12 
Q 813 -19 734 -19 
Q 659 -19 609 -12 
Q 559 -6 529 6 
Q 500 19 489 36 
Q 478 53 478 78 
L 478 2891 
Q 478 2916 487 2933 
Q 497 2950 525 2964 
Q 553 2978 597 2983 
Q 641 2988 713 2988 
Q 781 2988 826 2983 
Q 872 2978 897 2964 
Q 922 2950 933 2933 
Q 944 2916 944 2891 
L 944 2519 
Q 1181 2784 1417 2907 
Q 1653 3031 1894 3031 
Q 2175 3031 2367 2936 
Q 2559 2841 2678 2681 
Q 2797 2522 2848 2308 
Q 2900 2094 2900 1794 
L 2900 78 
z
" transform="scale(0.015625)"/>
      </defs>
      <use xlink:href="#DejaVuSans-Oblique-5a" transform="translate(0 0.09375)"/>
      <use xlink:href="#DejaVuSans-Oblique-61" transform="translate(69.462891 -16.3125) scale(0.7)"/>
      <use xlink:href="#Calibri-20" transform="translate(115.092773 0.09375)"/>
      <use xlink:href="#Calibri-28" transform="translate(136.575195 0.09375)"/>
      <use xlink:href="#Calibri-6e" transform="translate(166.897461 0.09375)"/>
      <use xlink:href="#Calibri-6d" transform="translate(219.436523 0.09375)"/>
      <use xlink:href="#Calibri-29" transform="translate(299.319336 0.09375)"/>
     </g>
    </g>
   </g>
   <g id="patch_3">
    <path d="M 57.6 307.584 
L 57.6 41.472 
" style="fill: none; stroke: #000000; stroke-width: 0.8; stroke-linejoin: miter; stroke-linecap: square"/>
   </g>
   <g id="patch_4">
    <path d="M 343.296 307.584 
L 343.296 41.472 
" style="fill: none; stroke: #000000; stroke-width: 0.8; stroke-linejoin: miter; stroke-linecap: square"/>
   </g>
   <g id="patch_5">
    <path d="M 57.6 307.584 
L 343.296 307.584 
" style="fill: none; stroke: #000000; stroke-width: 0.8; stroke-linejoin: miter; stroke-linecap: square"/>
   </g>
   <g id="patch_6">
    <path d="M 57.6 41.472 
L 343.296 41.472 
" style="fill: none; stroke: #000000; stroke-width: 0.8; stroke-linejoin: miter; stroke-linecap: square"/>
   </g>
   <g id="text_22">
    <!-- $\lambda$ = 650 nm -->
    <g transform="translate(177.348 35.472) scale(0.1 -0.1)">
     <defs>
      <path id="DejaVuSans-Oblique-3bb" d="M 2350 4316 
L 3125 0 
L 2516 0 
L 2038 2588 
L 328 0 
L -281 0 
L 1903 3356 
L 1794 3975 
Q 1725 4369 1391 4369 
L 1091 4369 
L 1184 4863 
L 1550 4856 
Q 2253 4847 2350 4316 
z
" transform="scale(0.015625)"/>
      <path id="Calibri-3d" d="M 2891 2409 
Q 2891 2284 2855 2236 
Q 2819 2188 2772 2188 
L 409 2188 
Q 363 2188 328 2236 
Q 294 2284 294 2409 
Q 294 2522 325 2575 
Q 356 2628 409 2628 
L 2772 2628 
Q 2828 2628 2859 2575 
Q 2891 2522 2891 2409 
z
M 2891 1194 
Q 2891 1069 2855 1022 
Q 2819 975 2772 975 
L 409 975 
Q 363 975 328 1022 
Q 294 1069 294 1194 
Q 294 1309 325 1362 
Q 356 1416 409 1416 
L 2772 1416 
Q 2828 1416 2859 1362 
Q 2891 1309 2891 1194 
z
" transform="scale(0.015625)"/>
     </defs>
     <use xlink:href="#DejaVuSans-Oblique-3bb" transform="translate(0 0.015625)"/>
     <use xlink:href="#Calibri-20" transform="translate(59.179688 0.015625)"/>
     <use xlink:href="#Calibri-3d" transform="translate(81.787109 0.015625)"/>
     <use xlink:href="#Calibri-20" transform="translate(131.591797 0.015625)"/>
     <use xlink:href="#Calibri-36" transform="translate(154.199219 0.015625)"/>
     <use xlink:href="#Calibri-35" transform="translate(204.882812 0.015625)"/>
     <use xlink:href="#Calibri-30" transform="translate(255.566406 0.015625)"/>
     <use xlink:href="#Calibri-20" transform="translate(306.25 0.015625)"/>
     <use xlink:href="#Calibri-6e" transform="translate(328.857422 0.015625)"/>
     <use xlink:href="#Calibri-6d" transform="translate(381.396484 0.015625)"/>
    </g>
   </g>
  </g>
  <g id="axes_2">
   <g id="patch_7">
    <path d="M 361.152 307.584 
L 374.4576 307.584 
L 374.4576 41.472 
L 361.152 41.472 
z
" style="fill: #ffffff"/>
   </g>
   <g id="QuadMesh_1">
    <path d="M 361.152 307.584 
L 374.4576 307.584 
L 374.4576 280.9728 
L 361.152 280.9728 
L 361.152 307.584 
" clip-path="url(#p9d5c3fc38f)" style="fill: #0000b6"/>
    <path d="M 361.152 280.9728 
L 374.4576 280.9728 
L 374.4576 254.3616 
L 361.152 254.3616 
L 361.152 280.9728 
" clip-path="url(#p9d5c3fc38f)" style="fill: #0018ff"/>
    <path d="M 361.152 254.3616 
L 374.4576 254.3616 
L 374.4576 227.7504 
L 361.152 227.7504 
L 361.152 254.3616 
" clip-path="url(#p9d5c3fc38f)" style="fill: #0080ff"/>
    <path d="M 361.152 227.7504 
L 374.4576 227.7504 
L 374.4576 201.1392 
L 361.152 201.1392 
L 361.152 227.7504 
" clip-path="url(#p9d5c3fc38f)" style="fill: #00e4f8"/>
    <path d="M 361.152 201.1392 
L 374.4576 201.1392 
L 374.4576 174.528 
L 361.152 174.528 
L 361.152 201.1392 
" clip-path="url(#p9d5c3fc38f)" style="fill: #53ffa4"/>
    <path d="M 361.152 174.528 
L 374.4576 174.528 
L 374.4576 147.9168 
L 361.152 147.9168 
L 361.152 174.528 
" clip-path="url(#p9d5c3fc38f)" style="fill: #a4ff53"/>
    <path d="M 361.152 147.9168 
L 374.4576 147.9168 
L 374.4576 121.3056 
L 361.152 121.3056 
L 361.152 147.9168 
" clip-path="url(#p9d5c3fc38f)" style="fill: #f8f500"/>
    <path d="M 361.152 121.3056 
L 374.4576 121.3056 
L 374.4576 94.6944 
L 361.152 94.6944 
L 361.152 121.3056 
" clip-path="url(#p9d5c3fc38f)" style="fill: #ff9400"/>
    <path d="M 361.152 94.6944 
L 374.4576 94.6944 
L 374.4576 68.0832 
L 361.152 68.0832 
L 361.152 94.6944 
" clip-path="url(#p9d5c3fc38f)" style="fill: #ff3800"/>
    <path d="M 361.152 68.0832 
L 374.4576 68.0832 
L 374.4576 41.472 
L 361.152 41.472 
L 361.152 68.0832 
" clip-path="url(#p9d5c3fc38f)" style="fill: #b60000"/>
   </g>
   <g id="matplotlib.axis_3"/>
   <g id="matplotlib.axis_4">
    <g id="ytick_9">
     <g id="line2d_20">
      <defs>
       <path id="mda086b0161" d="M 0 0 
L 3.5 0 
" style="stroke: #000000; stroke-width: 0.8"/>
      </defs>
      <g>
       <use xlink:href="#mda086b0161" x="374.4576" y="307.584" style="stroke: #000000; stroke-width: 0.8"/>
      </g>
     </g>
     <g id="text_23">
      <!-- 0 -->
      <g transform="translate(381.4576 310.984781) scale(0.1 -0.1)">
       <use xlink:href="#Calibri-30"/>
      </g>
     </g>
    </g>
    <g id="ytick_10">
     <g id="line2d_21">
      <g>
       <use xlink:href="#mda086b0161" x="374.4576" y="280.9728" style="stroke: #000000; stroke-width: 0.8"/>
      </g>
     </g>
     <g id="text_24">
      <!-- 0.1 -->
      <g transform="translate(381.4576 284.373581) scale(0.1 -0.1)">
       <use xlink:href="#Calibri-30"/>
       <use xlink:href="#Calibri-2e" x="50.683594"/>
       <use xlink:href="#Calibri-31" x="75.927734"/>
      </g>
     </g>
    </g>
    <g id="ytick_11">
     <g id="line2d_22">
      <g>
       <use xlink:href="#mda086b0161" x="374.4576" y="254.3616" style="stroke: #000000; stroke-width: 0.8"/>
      </g>
     </g>
     <g id="text_25">
      <!-- 0.2 -->
      <g transform="translate(381.4576 257.762381) scale(0.1 -0.1)">
       <use xlink:href="#Calibri-30"/>
       <use xlink:href="#Calibri-2e" x="50.683594"/>
       <use xlink:href="#Calibri-32" x="75.927734"/>
      </g>
     </g>
    </g>
    <g id="ytick_12">
     <g id="line2d_23">
      <g>
       <use xlink:href="#mda086b0161" x="374.4576" y="227.7504" style="stroke: #000000; stroke-width: 0.8"/>
      </g>
     </g>
     <g id="text_26">
      <!-- 0.3 -->
      <g transform="translate(381.4576 231.151181) scale(0.1 -0.1)">
       <use xlink:href="#Calibri-30"/>
       <use xlink:href="#Calibri-2e" x="50.683594"/>
       <use xlink:href="#Calibri-33" x="75.927734"/>
      </g>
     </g>
    </g>
    <g id="ytick_13">
     <g id="line2d_24">
      <g>
       <use xlink:href="#mda086b0161" x="374.4576" y="201.1392" style="stroke: #000000; stroke-width: 0.8"/>
      </g>
     </g>
     <g id="text_27">
      <!-- 0.4 -->
      <g transform="translate(381.4576 204.539981) scale(0.1 -0.1)">
       <use xlink:href="#Calibri-30"/>
       <use xlink:href="#Calibri-2e" x="50.683594"/>
       <use xlink:href="#Calibri-34" x="75.927734"/>
      </g>
     </g>
    </g>
    <g id="ytick_14">
     <g id="line2d_25">
      <g>
       <use xlink:href="#mda086b0161" x="374.4576" y="174.528" style="stroke: #000000; stroke-width: 0.8"/>
      </g>
     </g>
     <g id="text_28">
      <!-- 0.5 -->
      <g transform="translate(381.4576 177.928781) scale(0.1 -0.1)">
       <use xlink:href="#Calibri-30"/>
       <use xlink:href="#Calibri-2e" x="50.683594"/>
       <use xlink:href="#Calibri-35" x="75.927734"/>
      </g>
     </g>
    </g>
    <g id="ytick_15">
     <g id="line2d_26">
      <g>
       <use xlink:href="#mda086b0161" x="374.4576" y="147.9168" style="stroke: #000000; stroke-width: 0.8"/>
      </g>
     </g>
     <g id="text_29">
      <!-- 0.6 -->
      <g transform="translate(381.4576 151.317581) scale(0.1 -0.1)">
       <use xlink:href="#Calibri-30"/>
       <use xlink:href="#Calibri-2e" x="50.683594"/>
       <use xlink:href="#Calibri-36" x="75.927734"/>
      </g>
     </g>
    </g>
    <g id="ytick_16">
     <g id="line2d_27">
      <g>
       <use xlink:href="#mda086b0161" x="374.4576" y="121.3056" style="stroke: #000000; stroke-width: 0.8"/>
      </g>
     </g>
     <g id="text_30">
      <!-- 0.7 -->
      <g transform="translate(381.4576 124.706381) scale(0.1 -0.1)">
       <use xlink:href="#Calibri-30"/>
       <use xlink:href="#Calibri-2e" x="50.683594"/>
       <use xlink:href="#Calibri-37" x="75.927734"/>
      </g>
     </g>
    </g>
    <g id="ytick_17">
     <g id="line2d_28">
      <g>
       <use xlink:href="#mda086b0161" x="374.4576" y="94.6944" style="stroke: #000000; stroke-width: 0.8"/>
      </g>
     </g>
     <g id="text_31">
      <!-- 0.8 -->
      <g transform="translate(381.4576 98.095181) scale(0.1 -0.1)">
       <use xlink:href="#Calibri-30"/>
       <use xlink:href="#Calibri-2e" x="50.683594"/>
       <use xlink:href="#Calibri-38" x="75.927734"/>
      </g>
     </g>
    </g>
    <g id="ytick_18">
     <g id="line2d_29">
      <g>
       <use xlink:href="#mda086b0161" x="374.4576" y="68.0832" style="stroke: #000000; stroke-width: 0.8"/>
      </g>
     </g>
     <g id="text_32">
      <!-- 0.9 -->
      <g transform="translate(381.4576 71.483981) scale(0.1 -0.1)">
       <use xlink:href="#Calibri-30"/>
       <use xlink:href="#Calibri-2e" x="50.683594"/>
       <use xlink:href="#Calibri-39" x="75.927734"/>
      </g>
     </g>
    </g>
    <g id="ytick_19">
     <g id="line2d_30">
      <g>
       <use xlink:href="#mda086b0161" x="374.4576" y="41.472" style="stroke: #000000; stroke-width: 0.8"/>
      </g>
     </g>
     <g id="text_33">
      <!-- 1.0 -->
      <g transform="translate(381.4576 44.872781) scale(0.1 -0.1)">
       <use xlink:href="#Calibri-31"/>
       <use xlink:href="#Calibri-2e" x="50.683594"/>
       <use xlink:href="#Calibri-30" x="75.927734"/>
      </g>
     </g>
    </g>
   </g>
   <g id="LineCollection_1"/>
   <g id="patch_8">
    <path d="M 361.152 307.584 
L 367.8048 307.584 
L 374.4576 307.584 
L 374.4576 41.472 
L 367.8048 41.472 
L 361.152 41.472 
L 361.152 307.584 
z
" style="fill: none; stroke: #000000; stroke-width: 0.8; stroke-linejoin: miter; stroke-linecap: square"/>
   </g>
   <g id="text_34">
    <!-- $\mathit{E}_{\mathrm{dis}}$/$\mathit{E}_{\mathrm{i}}$ -->
    <g transform="translate(353.2548 35.472) scale(0.1 -0.1)">
     <defs>
      <path id="DejaVuSans-Oblique-45" d="M 1081 4666 
L 4031 4666 
L 3928 4134 
L 1606 4134 
L 1338 2753 
L 3566 2753 
L 3463 2222 
L 1234 2222 
L 909 531 
L 3284 531 
L 3181 0 
L 172 0 
L 1081 4666 
z
" transform="scale(0.015625)"/>
      <path id="DejaVuSans-64" d="M 2906 2969 
L 2906 4863 
L 3481 4863 
L 3481 0 
L 2906 0 
L 2906 525 
Q 2725 213 2448 61 
Q 2172 -91 1784 -91 
Q 1150 -91 751 415 
Q 353 922 353 1747 
Q 353 2572 751 3078 
Q 1150 3584 1784 3584 
Q 2172 3584 2448 3432 
Q 2725 3281 2906 2969 
z
M 947 1747 
Q 947 1113 1208 752 
Q 1469 391 1925 391 
Q 2381 391 2643 752 
Q 2906 1113 2906 1747 
Q 2906 2381 2643 2742 
Q 2381 3103 1925 3103 
Q 1469 3103 1208 2742 
Q 947 2381 947 1747 
z
" transform="scale(0.015625)"/>
      <path id="DejaVuSans-69" d="M 603 3500 
L 1178 3500 
L 1178 0 
L 603 0 
L 603 3500 
z
M 603 4863 
L 1178 4863 
L 1178 4134 
L 603 4134 
L 603 4863 
z
" transform="scale(0.015625)"/>
      <path id="DejaVuSans-73" d="M 2834 3397 
L 2834 2853 
Q 2591 2978 2328 3040 
Q 2066 3103 1784 3103 
Q 1356 3103 1142 2972 
Q 928 2841 928 2578 
Q 928 2378 1081 2264 
Q 1234 2150 1697 2047 
L 1894 2003 
Q 2506 1872 2764 1633 
Q 3022 1394 3022 966 
Q 3022 478 2636 193 
Q 2250 -91 1575 -91 
Q 1294 -91 989 -36 
Q 684 19 347 128 
L 347 722 
Q 666 556 975 473 
Q 1284 391 1588 391 
Q 1994 391 2212 530 
Q 2431 669 2431 922 
Q 2431 1156 2273 1281 
Q 2116 1406 1581 1522 
L 1381 1569 
Q 847 1681 609 1914 
Q 372 2147 372 2553 
Q 372 3047 722 3315 
Q 1072 3584 1716 3584 
Q 2034 3584 2315 3537 
Q 2597 3491 2834 3397 
z
" transform="scale(0.015625)"/>
     </defs>
     <use xlink:href="#DejaVuSans-Oblique-45" transform="translate(0 0.09375)"/>
     <use xlink:href="#DejaVuSans-64" transform="translate(63.183594 -16.3125) scale(0.7)"/>
     <use xlink:href="#DejaVuSans-69" transform="translate(107.617188 -16.3125) scale(0.7)"/>
     <use xlink:href="#DejaVuSans-73" transform="translate(127.06543 -16.3125) scale(0.7)"/>
     <use xlink:href="#Calibri-2f" transform="translate(166.269531 0.09375)"/>
     <use xlink:href="#DejaVuSans-Oblique-45" transform="translate(204.892578 0.09375)"/>
     <use xlink:href="#DejaVuSans-69" transform="translate(268.076172 -16.3125) scale(0.7)"/>
    </g>
   </g>
  </g>
 </g>
 <defs>
  <clipPath id="pd64db558f8">
   <rect x="57.6" y="41.472" width="285.696" height="266.112"/>
  </clipPath>
  <clipPath id="p9d5c3fc38f">
   <rect x="361.152" y="41.472" width="13.3056" height="266.112"/>
  </clipPath>
 </defs>
</svg>
