<?xml version="1.0" encoding="utf-8" standalone="no"?>
<!DOCTYPE svg PUBLIC "-//W3C//DTD SVG 1.1//EN"
  "http://www.w3.org/Graphics/SVG/1.1/DTD/svg11.dtd">
<svg xmlns:xlink="http://www.w3.org/1999/xlink" width="460.8pt" height="345.6pt" viewBox="0 0 460.8 345.6" xmlns="http://www.w3.org/2000/svg" version="1.1">
 <metadata>
  <rdf:RDF xmlns:dc="http://purl.org/dc/elements/1.1/" xmlns:cc="http://creativecommons.org/ns#" xmlns:rdf="http://www.w3.org/1999/02/22-rdf-syntax-ns#">
   <cc:Work>
    <dc:type rdf:resource="http://purl.org/dc/dcmitype/StillImage"/>
    <dc:date>2024-01-22T08:49:29.365932</dc:date>
    <dc:format>image/svg+xml</dc:format>
    <dc:creator>
     <cc:Agent>
      <dc:title>Matplotlib v3.7.1, https://matplotlib.org/</dc:title>
     </cc:Agent>
    </dc:creator>
   </cc:Work>
  </rdf:RDF>
 </metadata>
 <defs>
  <style type="text/css">*{stroke-linejoin: round; stroke-linecap: butt}</style>
 </defs>
 <g id="figure_1">
  <g id="patch_1">
   <path d="M 0 345.6 
L 460.8 345.6 
L 460.8 0 
L 0 0 
z
" style="fill: #ffffff"/>
  </g>
  <g id="axes_1">
   <g id="patch_2">
    <path d="M 57.6 307.584 
L 343.296 307.584 
L 343.296 41.472 
L 57.6 41.472 
z
" style="fill: #ffffff"/>
   </g>
   <g id="PathCollection_1">
    <path clip-path="url(#pb4334a06f1)" style="fill: #0000b6"/>
   </g>
   <g id="PathCollection_2">
    <path clip-path="url(#pb4334a06f1)" style="fill: #0018ff"/>
   </g>
   <g id="PathCollection_3">
    <path d="M 57.62857 77.757028 
L 57.698307 77.694853 
L 58.611161 76.881085 
L 59.901221 75.71028 
L 60.064222 75.560636 
L 60.959141 74.736 
L 61.568573 74.165289 
L 61.997985 73.76172 
L 62.889037 72.914471 
L 63.561273 72.264177 
L 63.83583 72.002065 
L 64.447719 71.4096 
L 64.999113 70.868158 
L 65.913366 69.955146 
L 66.402913 69.470452 
L 66.814317 69.05748 
L 67.275719 68.587074 
L 67.772864 68.0832 
L 68.016635 67.831888 
L 68.716002 67.10892 
L 69.159443 66.644931 
L 69.535997 66.244479 
L 70.006702 65.749946 
L 70.93967 64.7568 
L 71.208831 64.466129 
L 71.744199 63.878715 
L 72.535556 63.01685 
L 73.090503 62.40468 
L 73.620812 61.810513 
L 73.962292 61.4304 
L 74.151842 61.215583 
L 74.820729 60.45612 
L 75.243937 59.969528 
L 75.648851 59.496783 
L 76.082402 58.996223 
L 76.845816 58.104 
L 77.228773 57.649802 
L 78.15653 56.53282 
L 78.568834 56.039548 
L 78.806441 55.75188 
L 78.980921 55.541247 
L 79.603011 54.7776 
L 79.973898 54.316107 
L 80.385602 53.80332 
L 81.130886 52.862865 
L 81.935591 51.832623 
L 82.052276 51.684758 
L 82.234506 51.4512 
L 83.047283 50.393733 
L 84.028355 49.09908 
L 84.262623 48.785773 
L 84.756736 48.1248 
L 85.452979 47.174601 
L 85.470762 47.15052 
L 85.495274 47.116808 
L 85.555384 47.03326 
L 86.808615 45.299458 
L 87.165868 44.7984 
L 87.903492 43.747906 
L 88.451833 42.95889 
L 88.652708 42.672478 
L 88.809239 42.44628 
L 89.22856 41.831863 
L 89.475133 41.472 
L 88.10281 41.472 
L 86.579098 41.472 
L 85.055386 41.472 
L 83.531674 41.472 
L 82.007962 41.472 
L 80.48425 41.472 
L 78.960538 41.472 
L 77.436826 41.472 
L 75.913114 41.472 
L 74.389402 41.472 
L 72.86569 41.472 
L 71.341978 41.472 
L 69.818266 41.472 
L 68.294554 41.472 
L 66.770842 41.472 
L 65.24713 41.472 
L 63.723418 41.472 
L 62.199706 41.472 
L 60.675994 41.472 
L 59.152282 41.472 
L 57.62857 41.472 
L 57.62857 44.7984 
L 57.62857 48.1248 
L 57.62857 51.4512 
L 57.62857 54.7776 
L 57.62857 58.104 
L 57.62857 61.4304 
L 57.62857 64.7568 
L 57.62857 68.0832 
L 57.62857 71.4096 
L 57.62857 74.736 
" clip-path="url(#pb4334a06f1)" style="fill: #0080ff"/>
   </g>
   <g id="PathCollection_4">
    <path d="M 89.475133 41.472 
L 89.22856 41.831863 
L 88.809239 42.44628 
L 88.652708 42.672478 
L 88.451833 42.95889 
L 87.903492 43.747906 
L 87.165868 44.7984 
L 86.808615 45.299458 
L 85.555384 47.03326 
L 85.495274 47.116808 
L 85.470762 47.15052 
L 85.452979 47.174601 
L 84.756736 48.1248 
L 84.262623 48.785773 
L 84.028355 49.09908 
L 83.047283 50.393733 
L 82.234506 51.4512 
L 82.052276 51.684758 
L 81.935591 51.832623 
L 81.130886 52.862865 
L 80.385602 53.80332 
L 79.973898 54.316107 
L 79.603011 54.7776 
L 78.980921 55.541247 
L 78.806441 55.75188 
L 78.568834 56.039548 
L 78.15653 56.53282 
L 77.228773 57.649802 
L 76.845816 58.104 
L 76.082402 58.996223 
L 75.648851 59.496783 
L 75.243937 59.969528 
L 74.820729 60.45612 
L 74.151842 61.215583 
L 73.962292 61.4304 
L 73.620812 61.810513 
L 73.090503 62.40468 
L 72.535556 63.01685 
L 71.744199 63.878715 
L 71.208831 64.466129 
L 70.93967 64.7568 
L 70.006702 65.749946 
L 69.535997 66.244479 
L 69.159443 66.644931 
L 68.716002 67.10892 
L 68.016635 67.831888 
L 67.772864 68.0832 
L 67.275719 68.587074 
L 66.814317 69.05748 
L 66.402913 69.470452 
L 65.913366 69.955146 
L 64.999113 70.868158 
L 64.447719 71.4096 
L 63.83583 72.002065 
L 63.561273 72.264177 
L 62.889037 72.914471 
L 61.997985 73.76172 
L 61.568573 74.165289 
L 60.959141 74.736 
L 60.064222 75.560636 
L 59.901221 75.71028 
L 58.611161 76.881085 
L 57.698307 77.694853 
L 57.62857 77.757028 
L 57.62857 78.0624 
L 57.62857 81.3888 
L 57.62857 84.7152 
L 57.62857 88.0416 
L 57.62857 91.368 
L 57.62857 94.6944 
L 57.62857 98.0208 
L 57.62857 101.3472 
L 57.62857 104.6736 
L 57.62857 108 
L 57.62857 111.3264 
L 57.62857 114.6528 
L 57.62857 117.9792 
L 57.62857 121.3056 
L 57.62857 123.060514 
L 57.955933 122.90665 
L 58.290093 122.749765 
L 59.261837 122.27988 
L 59.890449 121.973099 
L 60.199166 121.823346 
L 61.244245 121.3056 
L 61.859853 120.998283 
L 63.182495 120.33132 
L 63.259239 120.292256 
L 63.287335 120.277548 
L 64.082403 119.871215 
L 64.474579 119.665748 
L 65.725497 119.02352 
L 66.667014 118.526419 
L 66.856169 118.428912 
L 67.707186 117.9792 
L 68.178955 117.726838 
L 68.487955 117.556986 
L 69.622135 116.945504 
L 70.060309 116.703521 
L 70.619425 116.401802 
L 72.016521 115.62708 
L 72.265328 115.487754 
L 72.625308 115.287483 
L 73.742916 114.6528 
L 74.138739 114.426134 
L 75.432699 113.67852 
L 75.45963 113.662804 
L 75.471116 113.655926 
L 76.266656 113.189727 
L 76.703153 112.928073 
L 77.858774 112.247551 
L 78.90582 111.614785 
L 79.004214 111.556595 
L 79.384742 111.3264 
L 80.243291 110.800366 
L 80.919973 110.375176 
L 81.732265 109.873355 
L 82.358718 109.477756 
L 82.612874 109.320579 
L 83.158891 108.97428 
L 84.007628 108.430389 
L 84.673919 108 
L 85.495823 107.464257 
L 85.778624 107.276159 
L 86.157862 107.02572 
L 87.305652 106.259734 
L 87.875815 105.869964 
L 88.278579 105.599982 
L 89.623919 104.679283 
L 89.627897 104.676602 
L 89.632246 104.6736 
L 90.972377 103.736218 
L 91.383801 103.442594 
L 91.933679 103.057531 
L 92.960392 102.32148 
L 93.399472 102.003268 
L 93.644359 101.827127 
L 94.298494 101.3472 
L 95.08056 100.767739 
L 95.609826 100.37292 
L 96.493495 99.706419 
L 96.999282 99.316272 
L 97.429088 98.990594 
L 98.684823 98.0208 
L 98.746628 97.972411 
L 98.816613 97.916405 
L 100.082895 96.916061 
L 100.577659 96.517912 
L 100.981483 96.198499 
L 101.636791 95.66868 
L 102.296789 95.128964 
L 102.822917 94.6944 
L 103.197321 94.383073 
L 103.33993 94.260635 
L 103.33993 91.368 
L 103.33993 88.0416 
L 103.33993 84.7152 
L 103.33993 81.3888 
L 103.33993 78.0624 
L 103.33993 74.736 
L 103.33993 71.4096 
L 103.33993 68.0832 
L 103.33993 64.7568 
L 103.33993 61.4304 
L 103.33993 58.104 
L 103.33993 54.7776 
L 103.33993 51.4512 
L 103.33993 48.1248 
L 103.33993 44.7984 
L 103.33993 41.472 
L 101.816218 41.472 
L 100.292506 41.472 
L 98.768794 41.472 
L 97.245082 41.472 
L 95.72137 41.472 
L 94.197658 41.472 
L 92.673946 41.472 
L 91.150234 41.472 
L 89.626522 41.472 
" clip-path="url(#pb4334a06f1)" style="fill: #00e4f8"/>
   </g>
   <g id="PathCollection_5">
    <path d="M 103.33993 94.260635 
L 103.197321 94.383073 
L 102.822917 94.6944 
L 102.296789 95.128964 
L 101.636791 95.66868 
L 100.981483 96.198499 
L 100.577659 96.517912 
L 100.082895 96.916061 
L 98.816613 97.916405 
L 98.746628 97.972411 
L 98.684823 98.0208 
L 97.429088 98.990594 
L 96.999282 99.316272 
L 96.493495 99.706419 
L 95.609826 100.37292 
L 95.08056 100.767739 
L 94.298494 101.3472 
L 93.644359 101.827127 
L 93.399472 102.003268 
L 92.960392 102.32148 
L 91.933679 103.057531 
L 91.383801 103.442594 
L 90.972377 103.736218 
L 89.632246 104.6736 
L 89.627897 104.676602 
L 89.623919 104.679283 
L 88.278579 105.599982 
L 87.875815 105.869964 
L 87.305652 106.259734 
L 86.157862 107.02572 
L 85.778624 107.276159 
L 85.495823 107.464257 
L 84.673919 108 
L 84.007628 108.430389 
L 83.158891 108.97428 
L 82.612874 109.320579 
L 82.358718 109.477756 
L 81.732265 109.873355 
L 80.919973 110.375176 
L 80.243291 110.800366 
L 79.384742 111.3264 
L 79.004214 111.556595 
L 78.90582 111.614785 
L 77.858774 112.247551 
L 76.703153 112.928073 
L 76.266656 113.189727 
L 75.471116 113.655926 
L 75.45963 113.662804 
L 75.432699 113.67852 
L 74.138739 114.426134 
L 73.742916 114.6528 
L 72.625308 115.287483 
L 72.265328 115.487754 
L 72.016521 115.62708 
L 70.619425 116.401802 
L 70.060309 116.703521 
L 69.622135 116.945504 
L 68.487955 117.556986 
L 68.178955 117.726838 
L 67.707186 117.9792 
L 66.856169 118.428912 
L 66.667014 118.526419 
L 65.725497 119.02352 
L 64.474579 119.665748 
L 64.082403 119.871215 
L 63.287335 120.277548 
L 63.259239 120.292256 
L 63.182495 120.33132 
L 61.859853 120.998283 
L 61.244245 121.3056 
L 60.199166 121.823346 
L 59.890449 121.973099 
L 59.261837 122.27988 
L 58.290093 122.749765 
L 57.955933 122.90665 
L 57.62857 123.060514 
L 57.62857 124.632 
L 57.62857 127.9584 
L 57.62857 131.2848 
L 57.62857 134.6112 
L 57.62857 137.9376 
L 57.62857 141.264 
L 57.62857 144.5904 
L 57.62857 147.9168 
L 57.62857 151.2432 
L 57.62857 154.5696 
L 57.62857 157.896 
L 57.62857 160.110918 
L 58.032012 160.022323 
L 58.196537 159.982476 
L 59.924823 159.582528 
L 60.376913 159.47229 
L 60.94983 159.33924 
L 61.612684 159.177522 
L 62.673456 158.930239 
L 63.568921 158.710267 
L 63.864781 158.64105 
L 65.037928 158.352705 
L 65.415692 158.263986 
L 66.764353 157.930199 
L 66.776775 157.927271 
L 66.903052 157.896 
L 68.151511 157.583726 
L 68.476773 157.498199 
L 69.685039 157.193838 
L 69.965543 157.119785 
L 70.880751 156.8891 
L 71.930645 156.610887 
L 72.590092 156.443479 
L 73.170592 156.289028 
L 73.602988 156.179188 
L 75.395055 155.700568 
L 75.491859 155.675799 
L 75.983775 155.54388 
L 76.521062 155.397693 
L 77.92987 155.015443 
L 78.194102 154.944118 
L 79.541855 154.5696 
L 80.261725 154.368378 
L 80.911417 154.183328 
L 82.085007 153.854138 
L 82.581841 153.7107 
L 82.983594 153.59532 
L 84.418762 153.179793 
L 84.704374 153.093185 
L 85.369699 152.899771 
L 85.893029 152.74095 
L 87.103295 152.38757 
L 87.933874 152.133564 
L 88.25394 152.039725 
L 89.425985 151.680989 
L 89.779386 151.576916 
L 90.861261 151.2432 
L 91.134089 151.158108 
L 91.1685 151.146926 
L 92.447024 150.747811 
L 92.980633 150.573673 
L 94.009217 150.250032 
L 94.411097 150.118278 
L 95.105853 149.899472 
L 96.555524 149.422166 
L 96.880017 149.31915 
L 97.65904 149.061455 
L 97.755386 149.030839 
L 98.176054 148.89108 
L 99.394616 148.48271 
L 99.704348 148.379487 
L 101.055041 147.9168 
L 101.606074 147.726774 
L 102.292516 147.4861 
L 103.026122 147.23173 
L 103.33993 147.116499 
L 103.33993 144.5904 
L 103.33993 141.264 
L 103.33993 137.9376 
L 103.33993 134.6112 
L 103.33993 131.2848 
L 103.33993 127.9584 
L 103.33993 124.632 
L 103.33993 121.3056 
L 103.33993 117.9792 
L 103.33993 114.6528 
L 103.33993 111.3264 
L 103.33993 108 
L 103.33993 104.6736 
L 103.33993 101.3472 
L 103.33993 98.0208 
L 103.33993 94.6944 
" clip-path="url(#pb4334a06f1)" style="fill: #53ffa4"/>
   </g>
   <g id="PathCollection_6">
    <path d="M 103.33993 147.116499 
L 103.026122 147.23173 
L 102.292516 147.4861 
L 101.606074 147.726774 
L 101.055041 147.9168 
L 99.704348 148.379487 
L 99.394616 148.48271 
L 98.176054 148.89108 
L 97.755386 149.030839 
L 97.65904 149.061455 
L 96.880017 149.31915 
L 96.555524 149.422166 
L 95.105853 149.899472 
L 94.411097 150.118278 
L 94.009217 150.250032 
L 92.980633 150.573673 
L 92.447024 150.747811 
L 91.1685 151.146926 
L 91.134089 151.158108 
L 90.861261 151.2432 
L 89.779386 151.576916 
L 89.425985 151.680989 
L 88.25394 152.039725 
L 87.933874 152.133564 
L 87.103295 152.38757 
L 85.893029 152.74095 
L 85.369699 152.899771 
L 84.704374 153.093185 
L 84.418762 153.179793 
L 82.983594 153.59532 
L 82.581841 153.7107 
L 82.085007 153.854138 
L 80.911417 154.183328 
L 80.261725 154.368378 
L 79.541855 154.5696 
L 78.194102 154.944118 
L 77.92987 155.015443 
L 76.521062 155.397693 
L 75.983775 155.54388 
L 75.491859 155.675799 
L 75.395055 155.700568 
L 73.602988 156.179188 
L 73.170592 156.289028 
L 72.590092 156.443479 
L 71.930645 156.610887 
L 70.880751 156.8891 
L 69.965543 157.119785 
L 69.685039 157.193838 
L 68.476773 157.498199 
L 68.151511 157.583726 
L 66.903052 157.896 
L 66.776775 157.927271 
L 66.764353 157.930199 
L 65.415692 158.263986 
L 65.037928 158.352705 
L 63.864781 158.64105 
L 63.568921 158.710267 
L 62.673456 158.930239 
L 61.612684 159.177522 
L 60.94983 159.33924 
L 60.376913 159.47229 
L 59.924823 159.582528 
L 58.196537 159.982476 
L 58.032012 160.022323 
L 57.62857 160.110918 
L 57.62857 161.2224 
L 57.62857 164.5488 
L 57.62857 167.8752 
L 57.62857 171.2016 
L 57.62857 174.528 
L 57.62857 177.8544 
L 57.62857 181.1808 
L 57.62857 184.5072 
L 57.62857 187.8336 
L 57.62857 191.16 
L 57.62857 192.342887 
L 57.850946 192.332021 
L 58.639627 192.27917 
L 59.639029 192.222613 
L 60.485181 192.165668 
L 60.862749 192.144282 
L 61.776984 192.08284 
L 62.601026 192.036119 
L 63.569589 191.970744 
L 63.873969 191.953471 
L 64.915834 191.883247 
L 65.561621 191.846563 
L 66.654614 191.772571 
L 66.884588 191.759495 
L 68.056226 191.68029 
L 68.52077 191.653852 
L 69.740275 191.571046 
L 69.894588 191.562256 
L 71.198207 191.473863 
L 71.478428 191.457884 
L 72.826592 191.366064 
L 72.90395 191.361648 
L 74.341829 191.263856 
L 74.434548 191.258558 
L 75.877172 191.16 
L 75.91265 191.157557 
L 75.913591 191.157482 
L 77.389196 191.056021 
L 77.488085 191.048097 
L 78.920531 190.949146 
L 79.001782 190.942621 
L 80.342317 190.850149 
L 80.637045 190.826434 
L 81.9277 190.736984 
L 82.090718 190.723839 
L 83.293744 190.640578 
L 83.787892 190.600652 
L 84.934133 190.520945 
L 85.180422 190.501002 
L 86.243421 190.427187 
L 86.94069 190.370612 
L 87.939806 190.3009 
L 88.270922 190.273975 
L 89.191289 190.209847 
L 90.095505 190.136166 
L 90.944693 190.076711 
L 91.362244 190.042611 
L 92.137286 189.988424 
L 93.25241 189.897161 
L 93.948767 189.848236 
L 94.454418 189.80676 
L 95.081348 189.762775 
L 96.411476 189.653435 
L 96.951999 189.615324 
L 97.547473 189.566262 
L 98.023406 189.532753 
L 99.572783 189.404818 
L 99.954359 189.377817 
L 100.641442 189.320951 
L 100.963391 189.298202 
L 102.736413 189.151132 
L 102.955816 189.13555 
L 103.33993 189.099774 
L 103.33993 187.8336 
L 103.33993 184.5072 
L 103.33993 181.1808 
L 103.33993 177.8544 
L 103.33993 174.528 
L 103.33993 171.2016 
L 103.33993 167.8752 
L 103.33993 164.5488 
L 103.33993 161.2224 
L 103.33993 157.896 
L 103.33993 154.5696 
L 103.33993 151.2432 
L 103.33993 147.9168 
" clip-path="url(#pb4334a06f1)" style="fill: #a4ff53"/>
   </g>
   <g id="PathCollection_7">
    <path d="M 103.33993 189.099774 
L 102.955816 189.13555 
L 102.736413 189.151132 
L 100.963391 189.298202 
L 100.641442 189.320951 
L 99.954359 189.377817 
L 99.572783 189.404818 
L 98.023406 189.532753 
L 97.547473 189.566262 
L 96.951999 189.615324 
L 96.411476 189.653435 
L 95.081348 189.762775 
L 94.454418 189.80676 
L 93.948767 189.848236 
L 93.25241 189.897161 
L 92.137286 189.988424 
L 91.362244 190.042611 
L 90.944693 190.076711 
L 90.095505 190.136166 
L 89.191289 190.209847 
L 88.270922 190.273975 
L 87.939806 190.3009 
L 86.94069 190.370612 
L 86.243421 190.427187 
L 85.180422 190.501002 
L 84.934133 190.520945 
L 83.787892 190.600652 
L 83.293744 190.640578 
L 82.090718 190.723839 
L 81.9277 190.736984 
L 80.637045 190.826434 
L 80.342317 190.850149 
L 79.001782 190.942621 
L 78.920531 190.949146 
L 77.488085 191.048097 
L 77.389196 191.056021 
L 75.913591 191.157482 
L 75.91265 191.157557 
L 75.877172 191.16 
L 74.434548 191.258558 
L 74.341829 191.263856 
L 72.90395 191.361648 
L 72.826592 191.366064 
L 71.478428 191.457884 
L 71.198207 191.473863 
L 69.894588 191.562256 
L 69.740275 191.571046 
L 68.52077 191.653852 
L 68.056226 191.68029 
L 66.884588 191.759495 
L 66.654614 191.772571 
L 65.561621 191.846563 
L 64.915834 191.883247 
L 63.873969 191.953471 
L 63.569589 191.970744 
L 62.601026 192.036119 
L 61.776984 192.08284 
L 60.862749 192.144282 
L 60.485181 192.165668 
L 59.639029 192.222613 
L 58.639627 192.27917 
L 57.850946 192.332021 
L 57.62857 192.342887 
L 57.62857 194.4864 
L 57.62857 197.8128 
L 57.62857 201.1392 
L 57.62857 204.4656 
L 57.62857 207.792 
L 57.62857 211.1184 
L 57.62857 214.4448 
L 57.62857 217.7712 
L 57.62857 221.0976 
L 57.62857 221.767966 
L 57.945442 221.789361 
L 58.35984 221.814178 
L 60.065481 221.923375 
L 60.479343 221.948421 
L 61.206632 221.995602 
L 62.380905 222.07188 
L 63.251308 222.128258 
L 63.288353 222.131014 
L 64.147843 222.187091 
L 64.225122 222.192865 
L 66.209403 222.323271 
L 66.37462 222.335734 
L 67.157233 222.387544 
L 67.369074 222.403596 
L 69.165167 222.523372 
L 69.461953 222.546076 
L 70.165609 222.593348 
L 70.515743 222.620255 
L 72.118526 222.728726 
L 72.550391 222.762235 
L 73.172935 222.804681 
L 73.665223 222.843053 
L 75.0694 222.939503 
L 75.63997 222.984413 
L 76.179177 223.021728 
L 76.817616 223.07221 
L 78.017707 223.155884 
L 78.730732 223.21282 
L 79.184298 223.244683 
L 79.973028 223.307957 
L 80.963362 223.378054 
L 81.822717 223.44768 
L 82.188259 223.473751 
L 83.131569 223.550536 
L 83.906276 223.60621 
L 84.915971 223.689225 
L 85.191021 223.709143 
L 86.293356 223.800201 
L 86.846354 223.840556 
L 88.01054 223.937699 
L 88.19254 223.951083 
L 89.458512 224.05722 
L 89.783499 224.081304 
L 91.106472 224.193357 
L 91.192772 224.199803 
L 92.627164 224.321872 
L 92.717608 224.32868 
L 93.826205 224.424 
L 94.191727 224.455258 
L 94.203808 224.456417 
L 95.649615 224.580646 
L 95.799769 224.595154 
L 97.189713 224.715817 
L 97.302534 224.726798 
L 98.579085 224.83815 
L 98.976345 224.877103 
L 100.186301 224.983747 
L 100.402768 225.00513 
L 101.505293 225.102777 
L 102.156846 225.167622 
L 103.181438 225.259323 
L 103.33993 225.274199 
L 103.33993 224.424 
L 103.33993 221.0976 
L 103.33993 217.7712 
L 103.33993 214.4448 
L 103.33993 211.1184 
L 103.33993 207.792 
L 103.33993 204.4656 
L 103.33993 201.1392 
L 103.33993 197.8128 
L 103.33993 194.4864 
L 103.33993 191.16 
" clip-path="url(#pb4334a06f1)" style="fill: #f8f500"/>
   </g>
   <g id="PathCollection_8">
    <path d="M 103.33993 225.274199 
L 103.181438 225.259323 
L 102.156846 225.167622 
L 101.505293 225.102777 
L 100.402768 225.00513 
L 100.186301 224.983747 
L 98.976345 224.877103 
L 98.579085 224.83815 
L 97.302534 224.726798 
L 97.189713 224.715817 
L 95.799769 224.595154 
L 95.649615 224.580646 
L 94.203808 224.456417 
L 94.191727 224.455258 
L 93.826205 224.424 
L 92.717608 224.32868 
L 92.627164 224.321872 
L 91.192772 224.199803 
L 91.106472 224.193357 
L 89.783499 224.081304 
L 89.458512 224.05722 
L 88.19254 223.951083 
L 88.01054 223.937699 
L 86.846354 223.840556 
L 86.293356 223.800201 
L 85.191021 223.709143 
L 84.915971 223.689225 
L 83.906276 223.60621 
L 83.131569 223.550536 
L 82.188259 223.473751 
L 81.822717 223.44768 
L 80.963362 223.378054 
L 79.973028 223.307957 
L 79.184298 223.244683 
L 78.730732 223.21282 
L 78.017707 223.155884 
L 76.817616 223.07221 
L 76.179177 223.021728 
L 75.63997 222.984413 
L 75.0694 222.939503 
L 73.665223 222.843053 
L 73.172935 222.804681 
L 72.550391 222.762235 
L 72.118526 222.728726 
L 70.515743 222.620255 
L 70.165609 222.593348 
L 69.461953 222.546076 
L 69.165167 222.523372 
L 67.369074 222.403596 
L 67.157233 222.387544 
L 66.37462 222.335734 
L 66.209403 222.323271 
L 64.225122 222.192865 
L 64.147843 222.187091 
L 63.288353 222.131014 
L 63.251308 222.128258 
L 62.380905 222.07188 
L 61.206632 221.995602 
L 60.479343 221.948421 
L 60.065481 221.923375 
L 58.35984 221.814178 
L 57.945442 221.789361 
L 57.62857 221.767966 
L 57.62857 224.424 
L 57.62857 227.7504 
L 57.62857 231.0768 
L 57.62857 234.4032 
L 57.62857 237.7296 
L 57.62857 241.056 
L 57.62857 244.3824 
L 57.62857 247.7088 
L 57.62857 249.868399 
L 57.843574 249.902029 
L 58.697523 250.04242 
L 59.545844 250.176019 
L 60.544348 250.341367 
L 60.799962 250.381832 
L 61.99106 250.579708 
L 62.38 250.641602 
L 63.690343 250.860885 
L 63.754543 250.871155 
L 64.731626 251.0352 
L 65.210313 251.115574 
L 65.290404 251.129673 
L 66.707445 251.36933 
L 66.838644 251.392547 
L 68.037676 251.595987 
L 68.597014 251.695497 
L 69.658557 251.876933 
L 69.989194 251.93607 
L 70.860853 252.085537 
L 71.909477 252.274102 
L 72.607737 252.394727 
L 73.141968 252.491312 
L 73.679713 252.584514 
L 75.228013 252.865965 
L 75.554918 252.92305 
L 76.297046 253.058693 
L 76.494115 253.093221 
L 78.094355 253.38732 
L 78.443354 253.451431 
L 79.051274 253.56316 
L 79.745878 253.693916 
L 80.971002 253.921447 
L 83.290435 254.3616 
L 83.464795 254.394675 
L 83.489739 254.39952 
L 83.596565 254.420279 
L 83.685138 254.437497 
L 86.002202 254.883267 
L 87.476358 255.172961 
L 88.305115 255.33588 
L 88.540282 255.382324 
L 88.5735 255.38916 
L 90.503929 255.772541 
L 90.798389 255.833621 
L 91.476386 255.969034 
L 91.929778 256.063415 
L 93.292714 256.337173 
L 93.968249 256.478917 
L 94.410129 256.568182 
L 95.293642 256.754233 
L 96.07626 256.913242 
L 97.140965 257.139257 
L 97.341426 257.180223 
L 98.665409 257.462302 
L 98.854385 257.501146 
L 99.724293 257.688 
L 100.270288 257.805095 
L 100.316687 257.815446 
L 101.628503 258.097798 
L 102.046948 258.191705 
L 103.197009 258.441254 
L 103.33993 258.473266 
L 103.33993 257.688 
L 103.33993 254.3616 
L 103.33993 251.0352 
L 103.33993 247.7088 
L 103.33993 244.3824 
L 103.33993 241.056 
L 103.33993 237.7296 
L 103.33993 234.4032 
L 103.33993 231.0768 
L 103.33993 227.7504 
" clip-path="url(#pb4334a06f1)" style="fill: #ff9400"/>
   </g>
   <g id="PathCollection_9">
    <path d="M 103.33993 258.473266 
L 103.197009 258.441254 
L 102.046948 258.191705 
L 101.628503 258.097798 
L 100.316687 257.815446 
L 100.270288 257.805095 
L 99.724293 257.688 
L 98.854385 257.501146 
L 98.665409 257.462302 
L 97.341426 257.180223 
L 97.140965 257.139257 
L 96.07626 256.913242 
L 95.293642 256.754233 
L 94.410129 256.568182 
L 93.968249 256.478917 
L 93.292714 256.337173 
L 91.929778 256.063415 
L 91.476386 255.969034 
L 90.798389 255.833621 
L 90.503929 255.772541 
L 88.5735 255.38916 
L 88.540282 255.382324 
L 88.305115 255.33588 
L 87.476358 255.172961 
L 86.002202 254.883267 
L 83.685138 254.437497 
L 83.596565 254.420279 
L 83.489739 254.39952 
L 83.464795 254.394675 
L 83.290435 254.3616 
L 80.971002 253.921447 
L 79.745878 253.693916 
L 79.051274 253.56316 
L 78.443354 253.451431 
L 78.094355 253.38732 
L 76.494115 253.093221 
L 76.297046 253.058693 
L 75.554918 252.92305 
L 75.228013 252.865965 
L 73.679713 252.584514 
L 73.141968 252.491312 
L 72.607737 252.394727 
L 71.909477 252.274102 
L 70.860853 252.085537 
L 69.989194 251.93607 
L 69.658557 251.876933 
L 68.597014 251.695497 
L 68.037676 251.595987 
L 66.838644 251.392547 
L 66.707445 251.36933 
L 65.290404 251.129673 
L 65.210313 251.115574 
L 64.731626 251.0352 
L 63.754543 250.871155 
L 63.690343 250.860885 
L 62.38 250.641602 
L 61.99106 250.579708 
L 60.799962 250.381832 
L 60.544348 250.341367 
L 59.545844 250.176019 
L 58.697523 250.04242 
L 57.843574 249.902029 
L 57.62857 249.868399 
L 57.62857 251.0352 
L 57.62857 254.3616 
L 57.62857 257.688 
L 57.62857 261.0144 
L 57.62857 264.3408 
L 57.62857 267.6672 
L 57.62857 270.9936 
L 57.62857 274.32 
L 57.62857 277.6464 
L 57.62857 278.144402 
L 57.727599 278.168327 
L 58.793995 278.428571 
L 59.603103 278.630583 
L 60.449826 278.838404 
L 60.924761 278.957516 
L 61.530781 279.106722 
L 63.043179 279.487777 
L 63.359191 279.566035 
L 64.124391 279.759711 
L 64.263288 279.794215 
L 65.066717 279.99852 
L 66.047616 280.248948 
L 67.687932 280.67279 
L 68.072149 280.771687 
L 68.418325 280.860877 
L 68.847484 280.9728 
L 70.479658 281.399268 
L 70.781952 281.479212 
L 72.366165 281.898937 
L 72.464378 281.924838 
L 72.547692 281.94708 
L 73.275092 282.141468 
L 73.418987 282.180697 
L 75.147284 282.644676 
L 75.623998 282.775434 
L 76.174077 282.923805 
L 76.898083 283.123078 
L 77.856591 283.382815 
L 78.838248 283.654681 
L 79.070812 283.718003 
L 80.385369 284.083335 
L 80.561108 284.131411 
L 81.161065 284.2992 
L 81.965076 284.525225 
L 82.055779 284.551221 
L 83.260557 284.891073 
L 83.885207 285.070994 
L 84.856633 285.346714 
L 85.277237 285.468456 
L 85.955068 285.661512 
L 87.395008 286.080406 
L 87.745774 286.180938 
L 88.501782 286.401962 
L 88.644513 286.443013 
L 89.35338 286.65132 
L 90.371923 286.951559 
L 92.631841 287.6256 
L 92.663477 287.635066 
L 92.694952 287.644595 
L 94.550904 288.204465 
L 94.947421 288.325455 
L 95.844682 288.59988 
L 96.681239 288.85652 
L 96.857984 288.911824 
L 97.589387 289.137356 
L 97.996081 289.2651 
L 99.349393 289.684499 
L 100.096857 289.920843 
L 100.466317 290.035938 
L 101.554877 290.381469 
L 102.011995 290.5246 
L 103.339318 290.948777 
L 103.33993 290.948972 
L 103.33993 287.6256 
L 103.33993 284.2992 
L 103.33993 280.9728 
L 103.33993 277.6464 
L 103.33993 274.32 
L 103.33993 270.9936 
L 103.33993 267.6672 
L 103.33993 264.3408 
L 103.33993 261.0144 
" clip-path="url(#pb4334a06f1)" style="fill: #ff3800"/>
   </g>
   <g id="PathCollection_10">
    <path d="M 103.33993 290.948972 
L 103.339318 290.948777 
L 102.011995 290.5246 
L 101.554877 290.381469 
L 100.466317 290.035938 
L 100.096857 289.920843 
L 99.349393 289.684499 
L 97.996081 289.2651 
L 97.589387 289.137356 
L 96.857984 288.911824 
L 96.681239 288.85652 
L 95.844682 288.59988 
L 94.947421 288.325455 
L 94.550904 288.204465 
L 92.694952 287.644595 
L 92.663477 287.635066 
L 92.631841 287.6256 
L 90.371923 286.951559 
L 89.35338 286.65132 
L 88.644513 286.443013 
L 88.501782 286.401962 
L 87.745774 286.180938 
L 87.395008 286.080406 
L 85.955068 285.661512 
L 85.277237 285.468456 
L 84.856633 285.346714 
L 83.885207 285.070994 
L 83.260557 284.891073 
L 82.055779 284.551221 
L 81.965076 284.525225 
L 81.161065 284.2992 
L 80.561108 284.131411 
L 80.385369 284.083335 
L 79.070812 283.718003 
L 78.838248 283.654681 
L 77.856591 283.382815 
L 76.898083 283.123078 
L 76.174077 282.923805 
L 75.623998 282.775434 
L 75.147284 282.644676 
L 73.418987 282.180697 
L 73.275092 282.141468 
L 72.547692 281.94708 
L 72.464378 281.924838 
L 72.366165 281.898937 
L 70.781952 281.479212 
L 70.479658 281.399268 
L 68.847484 280.9728 
L 68.418325 280.860877 
L 68.072149 280.771687 
L 67.687932 280.67279 
L 66.047616 280.248948 
L 65.066717 279.99852 
L 64.263288 279.794215 
L 64.124391 279.759711 
L 63.359191 279.566035 
L 63.043179 279.487777 
L 61.530781 279.106722 
L 60.924761 278.957516 
L 60.449826 278.838404 
L 59.603103 278.630583 
L 58.793995 278.428571 
L 57.727599 278.168327 
L 57.62857 278.144402 
L 57.62857 280.9728 
L 57.62857 284.2992 
L 57.62857 287.6256 
L 57.62857 290.952 
L 57.62857 294.2784 
L 57.62857 297.6048 
L 57.62857 300.9312 
L 57.62857 304.2576 
L 57.62857 307.584 
L 59.152282 307.584 
L 60.675994 307.584 
L 62.199706 307.584 
L 63.723418 307.584 
L 65.24713 307.584 
L 66.770842 307.584 
L 68.294554 307.584 
L 69.818266 307.584 
L 71.341978 307.584 
L 72.86569 307.584 
L 74.389402 307.584 
L 75.913114 307.584 
L 77.436826 307.584 
L 78.960538 307.584 
L 80.48425 307.584 
L 82.007962 307.584 
L 83.531674 307.584 
L 85.055386 307.584 
L 86.579098 307.584 
L 88.10281 307.584 
L 89.626522 307.584 
L 91.150234 307.584 
L 92.673946 307.584 
L 94.197658 307.584 
L 95.72137 307.584 
L 97.245082 307.584 
L 98.768794 307.584 
L 100.292506 307.584 
L 101.816218 307.584 
L 103.33993 307.584 
L 103.33993 304.2576 
L 103.33993 300.9312 
L 103.33993 297.6048 
L 103.33993 294.2784 
L 103.33993 290.952 
" clip-path="url(#pb4334a06f1)" style="fill: #b60000"/>
   </g>
   <g id="PathCollection_11">
    <path clip-path="url(#pb4334a06f1)" style="fill: #0000b6"/>
   </g>
   <g id="PathCollection_12">
    <path clip-path="url(#pb4334a06f1)" style="fill: #0018ff"/>
   </g>
   <g id="PathCollection_13">
    <path clip-path="url(#pb4334a06f1)" style="fill: #0080ff"/>
   </g>
   <g id="PathCollection_14">
    <path d="M 100.4544 96.584163 
L 101.470985 95.808399 
L 102.841295 94.6944 
L 104.85113 93.015861 
L 105.927925 92.09632 
L 110.519818 87.983541 
L 112.791399 85.824 
L 115.59288 83.043627 
L 118.972709 79.55168 
L 120.373577 78.037204 
L 121.429599 76.9536 
L 122.361742 75.874749 
L 123.712995 74.35552 
L 126.947687 70.504017 
L 128.88185 68.0832 
L 131.523321 64.617629 
L 133.595954 61.81088 
L 134.267721 60.86621 
L 135.515306 59.2128 
L 136.289921 58.0614 
L 136.747542 57.315266 
L 137.226692 56.61472 
L 141.105005 50.536367 
L 141.223779 50.3424 
L 141.743342 49.448927 
L 144.941199 44.07008 
L 145.28302 43.448769 
L 146.380406 41.472 
L 140.928 41.472 
L 132.83328 41.472 
L 124.73856 41.472 
L 116.64384 41.472 
L 108.54912 41.472 
L 100.4544 41.472 
L 100.4544 50.3424 
L 100.4544 59.2128 
L 100.4544 68.0832 
L 100.4544 76.9536 
L 100.4544 85.824 
L 100.4544 94.6944 
" clip-path="url(#pb4334a06f1)" style="fill: #00e4f8"/>
   </g>
   <g id="PathCollection_15">
    <path d="M 146.380406 41.472 
L 145.28302 43.448769 
L 144.941199 44.07008 
L 141.743342 49.448927 
L 141.223779 50.3424 
L 141.105005 50.536367 
L 137.226692 56.61472 
L 136.747542 57.315266 
L 136.289921 58.0614 
L 135.515306 59.2128 
L 134.267721 60.86621 
L 133.595954 61.81088 
L 131.523321 64.617629 
L 128.88185 68.0832 
L 126.947687 70.504017 
L 123.712995 74.35552 
L 122.361742 75.874749 
L 121.429599 76.9536 
L 120.373577 78.037204 
L 118.972709 79.55168 
L 115.59288 83.043627 
L 112.791399 85.824 
L 110.519818 87.983541 
L 105.927925 92.09632 
L 104.85113 93.015861 
L 102.841295 94.6944 
L 101.470985 95.808399 
L 100.4544 96.584163 
L 100.4544 103.5648 
L 100.4544 112.4352 
L 100.4544 121.3056 
L 100.4544 130.176 
L 100.4544 139.0464 
L 100.4544 147.9168 
L 100.4544 148.117569 
L 100.597818 148.073961 
L 101.058742 147.9168 
L 105.304112 146.443872 
L 108.37125 145.31872 
L 112.758202 143.658819 
L 115.308749 142.578458 
L 117.637659 141.675604 
L 123.803697 139.0464 
L 124.470027 138.752134 
L 125.441113 138.276525 
L 131.482268 135.472221 
L 134.822903 133.78274 
L 135.735048 133.355831 
L 136.854379 132.77408 
L 141.329858 130.358406 
L 141.438333 130.30269 
L 141.661056 130.176 
L 142.17864 129.865529 
L 144.298962 128.645901 
L 146.166958 127.57792 
L 146.481251 127.390994 
L 146.801262 127.182592 
L 150.409124 124.973409 
L 155.986045 121.3056 
L 156.682314 120.828778 
L 159.402868 118.801169 
L 163.217031 116.027373 
L 164.497468 115.03328 
L 165.278506 114.461179 
L 167.780626 112.4352 
L 169.041994 111.376445 
L 169.673825 110.786135 
L 170.765612 109.83712 
L 175.27064 105.716738 
L 177.450206 103.5648 
L 180.291572 100.628159 
L 183.35826 97.29248 
L 184.548251 95.922755 
L 185.689073 94.6944 
L 186.347818 93.912787 
L 186.711495 93.430352 
L 187.817876 92.09632 
L 191.226026 87.719456 
L 192.609578 85.824 
L 195.834473 81.176903 
L 196.917721 79.55168 
L 197.235794 79.051298 
L 198.677446 76.9536 
L 200.127179 74.430528 
L 200.172702 74.35552 
L 200.508488 73.756586 
L 203.781059 68.0832 
L 204.494247 66.77751 
L 207.076196 61.81088 
L 207.844975 60.19288 
L 208.05938 59.80205 
L 208.349336 59.2128 
L 208.648387 58.47733 
L 208.99256 57.711825 
L 209.537481 56.61472 
L 210.158351 55.243579 
L 212.283414 50.3424 
L 213.060686 48.438144 
L 214.802103 44.07008 
L 215.199839 43.027369 
L 215.800529 41.472 
L 213.78048 41.472 
L 205.68576 41.472 
L 197.59104 41.472 
L 189.49632 41.472 
L 181.4016 41.472 
L 173.30688 41.472 
L 165.21216 41.472 
L 157.11744 41.472 
L 149.02272 41.472 
" clip-path="url(#pb4334a06f1)" style="fill: #53ffa4"/>
   </g>
   <g id="PathCollection_16">
    <path d="M 215.800529 41.472 
L 215.199839 43.027369 
L 214.802103 44.07008 
L 213.060686 48.438144 
L 212.283414 50.3424 
L 210.158351 55.243579 
L 209.537481 56.61472 
L 208.99256 57.711825 
L 208.648387 58.47733 
L 208.349336 59.2128 
L 208.05938 59.80205 
L 207.844975 60.19288 
L 207.076196 61.81088 
L 204.494247 66.77751 
L 203.781059 68.0832 
L 200.508488 73.756586 
L 200.172702 74.35552 
L 200.127179 74.430528 
L 198.677446 76.9536 
L 197.235794 79.051298 
L 196.917721 79.55168 
L 195.834473 81.176903 
L 192.609578 85.824 
L 191.226026 87.719456 
L 187.817876 92.09632 
L 186.711495 93.430352 
L 186.347818 93.912787 
L 185.689073 94.6944 
L 184.548251 95.922755 
L 183.35826 97.29248 
L 180.291572 100.628159 
L 177.450206 103.5648 
L 175.27064 105.716738 
L 170.765612 109.83712 
L 169.673825 110.786135 
L 169.041994 111.376445 
L 167.780626 112.4352 
L 165.278506 114.461179 
L 164.497468 115.03328 
L 163.217031 116.027373 
L 159.402868 118.801169 
L 156.682314 120.828778 
L 155.986045 121.3056 
L 150.409124 124.973409 
L 146.801262 127.182592 
L 146.481251 127.390994 
L 146.166958 127.57792 
L 144.298962 128.645901 
L 142.17864 129.865529 
L 141.661056 130.176 
L 141.438333 130.30269 
L 141.329858 130.358406 
L 136.854379 132.77408 
L 135.735048 133.355831 
L 134.822903 133.78274 
L 131.482268 135.472221 
L 125.441113 138.276525 
L 124.470027 138.752134 
L 123.803697 139.0464 
L 117.637659 141.675604 
L 115.308749 142.578458 
L 112.758202 143.658819 
L 108.37125 145.31872 
L 105.304112 146.443872 
L 101.058742 147.9168 
L 100.597818 148.073961 
L 100.4544 148.117569 
L 100.4544 156.7872 
L 100.4544 165.6576 
L 100.4544 174.528 
L 100.4544 183.3984 
L 100.4544 189.305615 
L 101.611404 189.207879 
L 105.523916 188.953705 
L 112.174175 188.296373 
L 115.069306 188.103282 
L 118.34265 187.774502 
L 120.506774 187.631501 
L 129.838924 186.679691 
L 130.698556 186.621267 
L 135.142382 186.15994 
L 135.341126 186.146561 
L 136.76241 185.99648 
L 144.749704 185.133093 
L 146.980089 184.900827 
L 156.470871 183.691881 
L 157.507101 183.575269 
L 158.87449 183.3984 
L 168.285171 182.151764 
L 169.964507 181.881278 
L 176.938262 180.80032 
L 178.765046 180.509197 
L 179.173007 180.42387 
L 183.370115 179.735817 
L 185.071273 179.377079 
L 192.736346 178.078503 
L 196.574123 177.218312 
L 198.481777 176.884495 
L 204.852266 175.441364 
L 206.282131 175.181519 
L 208.975009 174.528 
L 213.362304 173.421691 
L 214.309701 173.127916 
L 219.407554 171.823891 
L 226.41969 169.548032 
L 227.929354 169.129568 
L 230.479455 168.25568 
L 231.29096 167.995056 
L 237.402682 165.6576 
L 237.754309 165.516739 
L 243.438024 163.05952 
L 243.686374 162.947639 
L 243.868093 162.848877 
L 247.748124 160.990364 
L 253.203442 157.938516 
L 254.631727 157.201035 
L 255.289119 156.7872 
L 260.939953 153.060015 
L 264.30296 150.51488 
L 266.086517 148.998423 
L 267.495706 147.9168 
L 268.174131 147.353426 
L 268.491909 147.030953 
L 270.328146 145.31872 
L 273.397035 142.282937 
L 276.187478 139.0464 
L 277.795282 137.080863 
L 280.841274 132.953593 
L 280.947629 132.81627 
L 280.975553 132.77408 
L 281.001045 132.732359 
L 282.796087 130.176 
L 283.341833 129.35898 
L 283.630669 128.813243 
L 284.378392 127.57792 
L 287.400998 122.147236 
L 287.80546 121.3056 
L 288.955499 118.760502 
L 290.762609 115.03328 
L 291.027536 114.429923 
L 291.928632 112.4352 
L 292.389439 111.006158 
L 292.861542 109.83712 
L 294.931705 104.104559 
L 295.112501 103.5648 
L 296.942821 97.70452 
L 297.073092 97.29248 
L 297.438796 96.030876 
L 297.915095 94.6944 
L 298.221423 93.552211 
L 298.391009 92.682966 
L 298.546877 92.09632 
L 299.022651 89.987862 
L 300.11167 85.824 
L 300.679849 83.476138 
L 301.534147 79.55168 
L 301.924531 77.361148 
L 302.032468 76.9536 
L 302.070161 76.766857 
L 302.091153 76.621683 
L 302.579061 74.35552 
L 303.54457 68.874572 
L 303.670273 68.0832 
L 303.828631 66.980546 
L 304.742167 61.81088 
L 304.966147 60.185859 
L 305.054286 59.766864 
L 305.144309 59.2128 
L 305.187089 58.625768 
L 305.246348 58.112556 
L 305.513853 56.61472 
L 305.916979 53.733519 
L 306.356384 50.3424 
L 306.868566 45.908509 
L 307.137031 44.07008 
L 307.202559 43.460179 
L 307.445121 41.472 
L 302.8224 41.472 
L 294.72768 41.472 
L 286.63296 41.472 
L 278.53824 41.472 
L 270.44352 41.472 
L 262.3488 41.472 
L 254.25408 41.472 
L 246.15936 41.472 
L 238.06464 41.472 
L 229.96992 41.472 
L 221.8752 41.472 
" clip-path="url(#pb4334a06f1)" style="fill: #a4ff53"/>
   </g>
   <g id="PathCollection_17">
    <path d="M 307.445121 41.472 
L 307.202559 43.460179 
L 307.137031 44.07008 
L 306.868566 45.908509 
L 306.356384 50.3424 
L 305.916979 53.733519 
L 305.513853 56.61472 
L 305.246348 58.112556 
L 305.187089 58.625768 
L 305.144309 59.2128 
L 305.054286 59.766864 
L 304.966147 60.185859 
L 304.742167 61.81088 
L 303.828631 66.980546 
L 303.670273 68.0832 
L 303.54457 68.874572 
L 302.579061 74.35552 
L 302.091153 76.621683 
L 302.070161 76.766857 
L 302.032468 76.9536 
L 301.924531 77.361148 
L 301.534147 79.55168 
L 300.679849 83.476138 
L 300.11167 85.824 
L 299.022651 89.987862 
L 298.546877 92.09632 
L 298.391009 92.682966 
L 298.221423 93.552211 
L 297.915095 94.6944 
L 297.438796 96.030876 
L 297.073092 97.29248 
L 296.942821 97.70452 
L 295.112501 103.5648 
L 294.931705 104.104559 
L 292.861542 109.83712 
L 292.389439 111.006158 
L 291.928632 112.4352 
L 291.027536 114.429923 
L 290.762609 115.03328 
L 288.955499 118.760502 
L 287.80546 121.3056 
L 287.400998 122.147236 
L 284.378392 127.57792 
L 283.630669 128.813243 
L 283.341833 129.35898 
L 282.796087 130.176 
L 281.001045 132.732359 
L 280.975553 132.77408 
L 280.947629 132.81627 
L 280.841274 132.953593 
L 277.795282 137.080863 
L 276.187478 139.0464 
L 273.397035 142.282937 
L 270.328146 145.31872 
L 268.491909 147.030953 
L 268.174131 147.353426 
L 267.495706 147.9168 
L 266.086517 148.998423 
L 264.30296 150.51488 
L 260.939953 153.060015 
L 255.289119 156.7872 
L 254.631727 157.201035 
L 253.203442 157.938516 
L 247.748124 160.990364 
L 243.868093 162.848877 
L 243.686374 162.947639 
L 243.438024 163.05952 
L 237.754309 165.516739 
L 237.402682 165.6576 
L 231.29096 167.995056 
L 230.479455 168.25568 
L 227.929354 169.129568 
L 226.41969 169.548032 
L 219.407554 171.823891 
L 214.309701 173.127916 
L 213.362304 173.421691 
L 208.975009 174.528 
L 206.282131 175.181519 
L 204.852266 175.441364 
L 198.481777 176.884495 
L 196.574123 177.218312 
L 192.736346 178.078503 
L 185.071273 179.377079 
L 183.370115 179.735817 
L 179.173007 180.42387 
L 178.765046 180.509197 
L 176.938262 180.80032 
L 169.964507 181.881278 
L 168.285171 182.151764 
L 158.87449 183.3984 
L 157.507101 183.575269 
L 156.470871 183.691881 
L 146.980089 184.900827 
L 144.749704 185.133093 
L 136.76241 185.99648 
L 135.341126 186.146561 
L 135.142382 186.15994 
L 130.698556 186.621267 
L 129.838924 186.679691 
L 120.506774 187.631501 
L 118.34265 187.774502 
L 115.069306 188.103282 
L 112.174175 188.296373 
L 105.523916 188.953705 
L 101.611404 189.207879 
L 100.4544 189.305615 
L 100.4544 192.2688 
L 100.4544 201.1392 
L 100.4544 210.0096 
L 100.4544 218.88 
L 100.4544 224.989312 
L 101.465777 225.074744 
L 106.59775 225.61204 
L 110.238789 225.898818 
L 116.193142 226.558052 
L 117.06733 226.630033 
L 124.485139 227.472695 
L 124.955037 227.513179 
L 126.922792 227.7504 
L 132.580335 228.41958 
L 133.116813 228.500503 
L 139.532372 229.279765 
L 142.791832 229.792834 
L 147.996498 230.465329 
L 150.185023 230.825339 
L 153.864999 231.314508 
L 161.582893 232.643757 
L 163.2718 232.883731 
L 167.436902 233.63608 
L 167.877041 233.700556 
L 169.573857 234.02272 
L 176.275973 235.273112 
L 177.678774 235.53548 
L 182.704915 236.6208 
L 187.323823 237.606909 
L 194.07265 239.21888 
L 195.017873 239.440542 
L 195.338513 239.532013 
L 199.457906 240.5523 
L 201.812605 241.246898 
L 208.062611 242.886587 
L 213.448758 244.613612 
L 214.048929 244.781003 
L 216.182278 245.4912 
L 220.578091 246.912605 
L 224.596144 248.47288 
L 228.340781 249.80118 
L 232.206661 251.408626 
L 232.549078 251.535293 
L 233.058851 251.76352 
L 238.523548 254.153299 
L 238.95006 254.3616 
L 239.811729 254.795314 
L 244.329488 256.95968 
L 247.855733 258.744149 
L 252.760793 261.595618 
L 254.748714 262.689967 
L 255.571428 263.232 
L 261.034986 266.707768 
L 264.659299 269.344556 
L 264.786946 269.430618 
L 264.878226 269.50432 
L 265.096016 269.675137 
L 268.272077 272.1024 
L 269.093608 272.715133 
L 271.44706 274.70048 
L 274.148513 276.912774 
L 278.320091 280.9728 
L 278.481164 281.123797 
L 278.67181 281.326168 
L 282.64926 285.33824 
L 284.221748 287.24512 
L 286.324792 289.703321 
L 286.449406 289.8432 
L 286.503834 289.901811 
L 288.530016 292.44128 
L 290.35189 294.638302 
L 293.155703 298.7136 
L 294.185265 300.148589 
L 296.889519 304.432867 
L 297.186406 304.889665 
L 297.236883 304.98592 
L 297.283253 305.069749 
L 298.775745 307.584 
L 302.8224 307.584 
L 310.91712 307.584 
L 319.01184 307.584 
L 327.10656 307.584 
L 335.20128 307.584 
L 343.296 307.584 
L 343.296 298.7136 
L 343.296 289.8432 
L 343.296 280.9728 
L 343.296 272.1024 
L 343.296 263.232 
L 343.296 254.3616 
L 343.296 245.4912 
L 343.296 236.6208 
L 343.296 227.7504 
L 343.296 218.88 
L 343.296 210.0096 
L 343.296 201.1392 
L 343.296 192.2688 
L 343.296 183.3984 
L 343.296 174.528 
L 343.296 165.6576 
L 343.296 156.7872 
L 343.296 147.9168 
L 343.296 139.0464 
L 343.296 130.176 
L 343.296 121.3056 
L 343.296 112.4352 
L 343.296 103.5648 
L 343.296 94.6944 
L 343.296 85.824 
L 343.296 76.9536 
L 343.296 68.0832 
L 343.296 59.2128 
L 343.296 50.3424 
L 343.296 41.472 
L 335.20128 41.472 
L 327.10656 41.472 
L 319.01184 41.472 
L 310.91712 41.472 
" clip-path="url(#pb4334a06f1)" style="fill: #f8f500"/>
   </g>
   <g id="PathCollection_18">
    <path d="M 298.775745 307.584 
L 297.283253 305.069749 
L 297.236883 304.98592 
L 297.186406 304.889665 
L 296.889519 304.432867 
L 294.185265 300.148589 
L 293.155703 298.7136 
L 290.35189 294.638302 
L 288.530016 292.44128 
L 286.503834 289.901811 
L 286.449406 289.8432 
L 286.324792 289.703321 
L 284.221748 287.24512 
L 282.64926 285.33824 
L 278.67181 281.326168 
L 278.481164 281.123797 
L 278.320091 280.9728 
L 274.148513 276.912774 
L 271.44706 274.70048 
L 269.093608 272.715133 
L 268.272077 272.1024 
L 265.096016 269.675137 
L 264.878226 269.50432 
L 264.786946 269.430618 
L 264.659299 269.344556 
L 261.034986 266.707768 
L 255.571428 263.232 
L 254.748714 262.689967 
L 252.760793 261.595618 
L 247.855733 258.744149 
L 244.329488 256.95968 
L 239.811729 254.795314 
L 238.95006 254.3616 
L 238.523548 254.153299 
L 233.058851 251.76352 
L 232.549078 251.535293 
L 232.206661 251.408626 
L 228.340781 249.80118 
L 224.596144 248.47288 
L 220.578091 246.912605 
L 216.182278 245.4912 
L 214.048929 244.781003 
L 213.448758 244.613612 
L 208.062611 242.886587 
L 201.812605 241.246898 
L 199.457906 240.5523 
L 195.338513 239.532013 
L 195.017873 239.440542 
L 194.07265 239.21888 
L 187.323823 237.606909 
L 182.704915 236.6208 
L 177.678774 235.53548 
L 176.275973 235.273112 
L 169.573857 234.02272 
L 167.877041 233.700556 
L 167.436902 233.63608 
L 163.2718 232.883731 
L 161.582893 232.643757 
L 153.864999 231.314508 
L 150.185023 230.825339 
L 147.996498 230.465329 
L 142.791832 229.792834 
L 139.532372 229.279765 
L 133.116813 228.500503 
L 132.580335 228.41958 
L 126.922792 227.7504 
L 124.955037 227.513179 
L 124.485139 227.472695 
L 117.06733 226.630033 
L 116.193142 226.558052 
L 110.238789 225.898818 
L 106.59775 225.61204 
L 101.465777 225.074744 
L 100.4544 224.989312 
L 100.4544 227.7504 
L 100.4544 236.6208 
L 100.4544 245.4912 
L 100.4544 254.3616 
L 100.4544 257.839145 
L 102.339816 258.244025 
L 104.453179 258.743563 
L 111.280939 260.238403 
L 115.948388 261.392143 
L 117.229752 261.681936 
L 123.368687 263.232 
L 124.483326 263.511692 
L 125.169089 263.703785 
L 131.978715 265.492799 
L 133.898328 266.049646 
L 137.479272 267.011204 
L 145.760225 269.50432 
L 146.297954 269.664947 
L 148.308877 270.270102 
L 153.945746 272.1024 
L 155.800659 272.700094 
L 161.614323 274.70048 
L 162.550134 275.019515 
L 163.030346 275.200688 
L 166.8778 276.566254 
L 170.604668 278.011647 
L 174.645164 279.506274 
L 178.206189 280.9728 
L 180.976571 282.097239 
L 181.996918 282.547748 
L 186.385587 284.38162 
L 192.562163 287.24512 
L 193.886909 287.850286 
L 197.938439 289.8432 
L 201.646082 291.676833 
L 203.076386 292.44128 
L 208.709971 295.399593 
L 213.603143 298.244446 
L 213.89627 298.40727 
L 214.402988 298.7136 
L 219.253171 301.586886 
L 224.428012 304.98592 
L 225.74127 305.829169 
L 228.276461 307.584 
L 229.96992 307.584 
L 238.06464 307.584 
L 246.15936 307.584 
L 254.25408 307.584 
L 262.3488 307.584 
L 270.44352 307.584 
L 278.53824 307.584 
L 286.63296 307.584 
L 294.72768 307.584 
" clip-path="url(#pb4334a06f1)" style="fill: #ff9400"/>
   </g>
   <g id="PathCollection_19">
    <path d="M 228.276461 307.584 
L 225.74127 305.829169 
L 224.428012 304.98592 
L 219.253171 301.586886 
L 214.402988 298.7136 
L 213.89627 298.40727 
L 213.603143 298.244446 
L 208.709971 295.399593 
L 203.076386 292.44128 
L 201.646082 291.676833 
L 197.938439 289.8432 
L 193.886909 287.850286 
L 192.562163 287.24512 
L 186.385587 284.38162 
L 181.996918 282.547748 
L 180.976571 282.097239 
L 178.206189 280.9728 
L 174.645164 279.506274 
L 170.604668 278.011647 
L 166.8778 276.566254 
L 163.030346 275.200688 
L 162.550134 275.019515 
L 161.614323 274.70048 
L 155.800659 272.700094 
L 153.945746 272.1024 
L 148.308877 270.270102 
L 146.297954 269.664947 
L 145.760225 269.50432 
L 137.479272 267.011204 
L 133.898328 266.049646 
L 131.978715 265.492799 
L 125.169089 263.703785 
L 124.483326 263.511692 
L 123.368687 263.232 
L 117.229752 261.681936 
L 115.948388 261.392143 
L 111.280939 260.238403 
L 104.453179 258.743563 
L 102.339816 258.244025 
L 100.4544 257.839145 
L 100.4544 263.232 
L 100.4544 272.1024 
L 100.4544 280.9728 
L 100.4544 289.8432 
L 100.4544 290.033275 
L 100.698163 290.110321 
L 104.967591 291.468877 
L 107.903628 292.44128 
L 112.789886 294.066461 
L 115.210099 294.920557 
L 117.748998 295.789842 
L 124.194903 298.117847 
L 125.017701 298.40771 
L 125.831036 298.7136 
L 131.957245 301.031199 
L 134.019356 301.851432 
L 137.008407 303.00879 
L 141.804909 304.98592 
L 144.347463 306.031886 
L 147.963619 307.584 
L 149.02272 307.584 
L 157.11744 307.584 
L 165.21216 307.584 
L 173.30688 307.584 
L 181.4016 307.584 
L 189.49632 307.584 
L 197.59104 307.584 
L 205.68576 307.584 
L 213.78048 307.584 
L 221.8752 307.584 
" clip-path="url(#pb4334a06f1)" style="fill: #ff3800"/>
   </g>
   <g id="PathCollection_20">
    <path d="M 147.963619 307.584 
L 144.347463 306.031886 
L 141.804909 304.98592 
L 137.008407 303.00879 
L 134.019356 301.851432 
L 131.957245 301.031199 
L 125.831036 298.7136 
L 125.017701 298.40771 
L 124.194903 298.117847 
L 117.748998 295.789842 
L 115.210099 294.920557 
L 112.789886 294.066461 
L 107.903628 292.44128 
L 104.967591 291.468877 
L 100.698163 290.110321 
L 100.4544 290.033275 
L 100.4544 298.7136 
L 100.4544 307.584 
L 108.54912 307.584 
L 116.64384 307.584 
L 124.73856 307.584 
L 132.83328 307.584 
L 140.928 307.584 
" clip-path="url(#pb4334a06f1)" style="fill: #b60000"/>
   </g>
   <g id="matplotlib.axis_1">
    <g id="xtick_1">
     <g id="line2d_1">
      <defs>
       <path id="m5dfaec9696" d="M 0 0 
L 0 3.5 
" style="stroke: #000000; stroke-width: 0.8"/>
      </defs>
      <g>
       <use xlink:href="#m5dfaec9696" x="57.6" y="307.584" style="stroke: #000000; stroke-width: 0.8"/>
      </g>
     </g>
     <g id="text_1">
      <!-- 0.0 -->
      <g transform="translate(51.26875 321.385562) scale(0.1 -0.1)">
       <defs>
        <path id="Calibri-30" d="M 3022 2031 
Q 3022 1566 2948 1181 
Q 2875 797 2704 520 
Q 2534 244 2259 92 
Q 1984 -59 1581 -59 
Q 1200 -59 939 77 
Q 678 213 518 477 
Q 359 741 292 1127 
Q 225 1513 225 2013 
Q 225 2475 300 2861 
Q 375 3247 544 3523 
Q 713 3800 988 3951 
Q 1263 4103 1663 4103 
Q 2047 4103 2308 3967 
Q 2569 3831 2728 3567 
Q 2888 3303 2955 2917 
Q 3022 2531 3022 2031 
z
M 2472 1994 
Q 2472 2297 2450 2537 
Q 2428 2778 2386 2962 
Q 2344 3147 2276 3280 
Q 2209 3413 2115 3498 
Q 2022 3584 1901 3623 
Q 1781 3663 1631 3663 
Q 1366 3663 1200 3538 
Q 1034 3413 939 3194 
Q 844 2975 809 2681 
Q 775 2388 775 2050 
Q 775 1597 822 1280 
Q 869 963 970 763 
Q 1072 563 1230 472 
Q 1388 381 1613 381 
Q 1788 381 1920 437 
Q 2053 494 2148 598 
Q 2244 703 2306 850 
Q 2369 997 2406 1175 
Q 2444 1353 2458 1561 
Q 2472 1769 2472 1994 
z
" transform="scale(0.015625)"/>
        <path id="Calibri-2e" d="M 1144 341 
Q 1144 119 1070 45 
Q 997 -28 803 -28 
Q 616 -28 544 44 
Q 472 116 472 331 
Q 472 553 545 626 
Q 619 700 813 700 
Q 1000 700 1072 628 
Q 1144 556 1144 341 
z
" transform="scale(0.015625)"/>
       </defs>
       <use xlink:href="#Calibri-30"/>
       <use xlink:href="#Calibri-2e" x="50.683594"/>
       <use xlink:href="#Calibri-30" x="75.927734"/>
      </g>
     </g>
    </g>
    <g id="xtick_2">
     <g id="line2d_2">
      <g>
       <use xlink:href="#m5dfaec9696" x="86.1696" y="307.584" style="stroke: #000000; stroke-width: 0.8"/>
      </g>
     </g>
     <g id="text_2">
      <!-- 0.1 -->
      <g transform="translate(79.83835 321.385562) scale(0.1 -0.1)">
       <defs>
        <path id="Calibri-31" d="M 2897 213 
Q 2897 153 2887 112 
Q 2878 72 2862 47 
Q 2847 22 2826 11 
Q 2806 0 2784 0 
L 672 0 
Q 650 0 631 11 
Q 613 22 595 47 
Q 578 72 568 112 
Q 559 153 559 213 
Q 559 269 568 309 
Q 578 350 592 376 
Q 606 403 626 417 
Q 647 431 672 431 
L 1516 431 
L 1516 3506 
L 734 3041 
Q 675 3009 639 3003 
Q 603 2997 581 3017 
Q 559 3038 551 3084 
Q 544 3131 544 3203 
Q 544 3256 548 3293 
Q 553 3331 562 3356 
Q 572 3381 589 3400 
Q 606 3419 634 3438 
L 1566 4034 
Q 1578 4044 1597 4050 
Q 1616 4056 1644 4062 
Q 1672 4069 1709 4070 
Q 1747 4072 1803 4072 
Q 1878 4072 1928 4065 
Q 1978 4059 2006 4048 
Q 2034 4038 2043 4020 
Q 2053 4003 2053 3984 
L 2053 431 
L 2784 431 
Q 2809 431 2831 417 
Q 2853 403 2867 376 
Q 2881 350 2889 309 
Q 2897 269 2897 213 
z
" transform="scale(0.015625)"/>
       </defs>
       <use xlink:href="#Calibri-30"/>
       <use xlink:href="#Calibri-2e" x="50.683594"/>
       <use xlink:href="#Calibri-31" x="75.927734"/>
      </g>
     </g>
    </g>
    <g id="xtick_3">
     <g id="line2d_3">
      <g>
       <use xlink:href="#m5dfaec9696" x="114.7392" y="307.584" style="stroke: #000000; stroke-width: 0.8"/>
      </g>
     </g>
     <g id="text_3">
      <!-- 0.2 -->
      <g transform="translate(108.40795 321.385562) scale(0.1 -0.1)">
       <defs>
        <path id="Calibri-32" d="M 2888 231 
Q 2888 175 2880 131 
Q 2872 88 2858 58 
Q 2844 28 2820 14 
Q 2797 0 2769 0 
L 534 0 
Q 491 0 458 11 
Q 425 22 401 47 
Q 378 72 367 119 
Q 356 166 356 234 
Q 356 297 361 344 
Q 366 391 381 427 
Q 397 463 420 498 
Q 444 534 481 575 
L 1266 1406 
Q 1538 1694 1702 1922 
Q 1866 2150 1955 2337 
Q 2044 2525 2072 2678 
Q 2100 2831 2100 2966 
Q 2100 3100 2056 3220 
Q 2013 3341 1930 3431 
Q 1847 3522 1722 3575 
Q 1597 3628 1434 3628 
Q 1244 3628 1092 3575 
Q 941 3522 827 3459 
Q 713 3397 636 3344 
Q 559 3291 522 3291 
Q 500 3291 483 3303 
Q 466 3316 455 3344 
Q 444 3372 437 3419 
Q 431 3466 431 3531 
Q 431 3578 434 3612 
Q 438 3647 445 3672 
Q 453 3697 465 3719 
Q 478 3741 515 3773 
Q 553 3806 645 3862 
Q 738 3919 877 3973 
Q 1016 4028 1183 4065 
Q 1350 4103 1534 4103 
Q 1828 4103 2048 4020 
Q 2269 3938 2414 3794 
Q 2559 3650 2631 3459 
Q 2703 3269 2703 3053 
Q 2703 2859 2668 2667 
Q 2634 2475 2523 2251 
Q 2413 2028 2203 1754 
Q 1994 1481 1647 1125 
L 1006 456 
L 2766 456 
Q 2791 456 2814 442 
Q 2838 428 2855 400 
Q 2872 372 2880 330 
Q 2888 288 2888 231 
z
" transform="scale(0.015625)"/>
       </defs>
       <use xlink:href="#Calibri-30"/>
       <use xlink:href="#Calibri-2e" x="50.683594"/>
       <use xlink:href="#Calibri-32" x="75.927734"/>
      </g>
     </g>
    </g>
    <g id="xtick_4">
     <g id="line2d_4">
      <g>
       <use xlink:href="#m5dfaec9696" x="143.3088" y="307.584" style="stroke: #000000; stroke-width: 0.8"/>
      </g>
     </g>
     <g id="text_4">
      <!-- 0.3 -->
      <g transform="translate(136.97755 321.385562) scale(0.1 -0.1)">
       <defs>
        <path id="Calibri-33" d="M 2856 1156 
Q 2856 878 2759 654 
Q 2663 431 2481 272 
Q 2300 113 2034 27 
Q 1769 -59 1434 -59 
Q 1231 -59 1054 -26 
Q 878 6 740 51 
Q 603 97 512 145 
Q 422 194 398 216 
Q 375 238 362 259 
Q 350 281 340 312 
Q 331 344 326 389 
Q 322 434 322 500 
Q 322 613 344 656 
Q 366 700 406 700 
Q 434 700 517 650 
Q 600 600 729 542 
Q 859 484 1032 434 
Q 1206 384 1419 384 
Q 1625 384 1781 437 
Q 1938 491 2044 587 
Q 2150 684 2203 817 
Q 2256 950 2256 1106 
Q 2256 1278 2189 1415 
Q 2122 1553 1992 1653 
Q 1863 1753 1673 1806 
Q 1484 1859 1244 1859 
L 859 1859 
Q 834 1859 811 1870 
Q 788 1881 770 1906 
Q 753 1931 742 1972 
Q 731 2013 731 2078 
Q 731 2138 740 2177 
Q 750 2216 767 2239 
Q 784 2263 806 2273 
Q 828 2284 856 2284 
L 1209 2284 
Q 1416 2284 1580 2337 
Q 1744 2391 1858 2491 
Q 1972 2591 2033 2730 
Q 2094 2869 2094 3041 
Q 2094 3166 2053 3280 
Q 2013 3394 1931 3478 
Q 1850 3563 1723 3611 
Q 1597 3659 1431 3659 
Q 1250 3659 1098 3604 
Q 947 3550 828 3487 
Q 709 3425 631 3370 
Q 553 3316 522 3316 
Q 500 3316 483 3323 
Q 466 3331 455 3354 
Q 444 3378 439 3420 
Q 434 3463 434 3531 
Q 434 3578 437 3614 
Q 441 3650 450 3676 
Q 459 3703 471 3725 
Q 484 3747 514 3776 
Q 544 3806 634 3862 
Q 725 3919 858 3973 
Q 991 4028 1164 4065 
Q 1338 4103 1538 4103 
Q 1819 4103 2031 4031 
Q 2244 3959 2386 3828 
Q 2528 3697 2598 3514 
Q 2669 3331 2669 3109 
Q 2669 2919 2619 2755 
Q 2569 2591 2472 2464 
Q 2375 2338 2234 2248 
Q 2094 2159 1909 2125 
L 1909 2119 
Q 2119 2097 2292 2014 
Q 2466 1931 2591 1806 
Q 2716 1681 2786 1514 
Q 2856 1347 2856 1156 
z
" transform="scale(0.015625)"/>
       </defs>
       <use xlink:href="#Calibri-30"/>
       <use xlink:href="#Calibri-2e" x="50.683594"/>
       <use xlink:href="#Calibri-33" x="75.927734"/>
      </g>
     </g>
    </g>
    <g id="xtick_5">
     <g id="line2d_5">
      <g>
       <use xlink:href="#m5dfaec9696" x="171.8784" y="307.584" style="stroke: #000000; stroke-width: 0.8"/>
      </g>
     </g>
     <g id="text_5">
      <!-- 0.4 -->
      <g transform="translate(165.54715 321.385562) scale(0.1 -0.1)">
       <defs>
        <path id="Calibri-34" d="M 3059 1150 
Q 3059 1047 3028 987 
Q 2997 928 2941 928 
L 2484 928 
L 2484 78 
Q 2484 53 2471 36 
Q 2459 19 2428 6 
Q 2397 -6 2347 -12 
Q 2297 -19 2219 -19 
Q 2144 -19 2094 -12 
Q 2044 -6 2014 6 
Q 1984 19 1973 36 
Q 1963 53 1963 78 
L 1963 928 
L 294 928 
Q 256 928 231 937 
Q 206 947 186 972 
Q 166 997 158 1044 
Q 150 1091 150 1166 
Q 150 1225 153 1272 
Q 156 1319 165 1358 
Q 175 1397 190 1433 
Q 206 1469 228 1509 
L 1684 3966 
Q 1700 3991 1729 4009 
Q 1759 4028 1806 4040 
Q 1853 4053 1922 4058 
Q 1991 4063 2084 4063 
Q 2188 4063 2264 4055 
Q 2341 4047 2387 4034 
Q 2434 4022 2459 4001 
Q 2484 3981 2484 3953 
L 2484 1372 
L 2941 1372 
Q 2994 1372 3026 1317 
Q 3059 1263 3059 1150 
z
M 1963 3591 
L 1956 3591 
L 641 1372 
L 1963 1372 
L 1963 3591 
z
" transform="scale(0.015625)"/>
       </defs>
       <use xlink:href="#Calibri-30"/>
       <use xlink:href="#Calibri-2e" x="50.683594"/>
       <use xlink:href="#Calibri-34" x="75.927734"/>
      </g>
     </g>
    </g>
    <g id="xtick_6">
     <g id="line2d_6">
      <g>
       <use xlink:href="#m5dfaec9696" x="200.448" y="307.584" style="stroke: #000000; stroke-width: 0.8"/>
      </g>
     </g>
     <g id="text_6">
      <!-- 0.5 -->
      <g transform="translate(194.11675 321.385562) scale(0.1 -0.1)">
       <defs>
        <path id="Calibri-35" d="M 2869 1300 
Q 2869 975 2759 722 
Q 2650 469 2450 295 
Q 2250 122 1973 31 
Q 1697 -59 1359 -59 
Q 1172 -59 1003 -32 
Q 834 -6 703 33 
Q 572 72 487 109 
Q 403 147 379 169 
Q 356 191 347 209 
Q 338 228 330 254 
Q 322 281 319 322 
Q 316 363 316 419 
Q 316 472 320 514 
Q 325 556 337 582 
Q 350 609 367 621 
Q 384 634 406 634 
Q 438 634 503 595 
Q 569 556 680 511 
Q 791 466 955 425 
Q 1119 384 1344 384 
Q 1553 384 1728 434 
Q 1903 484 2029 590 
Q 2156 697 2228 858 
Q 2300 1019 2300 1250 
Q 2300 1444 2239 1592 
Q 2178 1741 2051 1839 
Q 1925 1938 1731 1986 
Q 1538 2034 1269 2034 
Q 1078 2034 940 2015 
Q 803 1997 684 1997 
Q 597 1997 559 2037 
Q 522 2078 522 2194 
L 522 3841 
Q 522 3944 570 3994 
Q 619 4044 709 4044 
L 2500 4044 
Q 2525 4044 2548 4030 
Q 2572 4016 2587 3987 
Q 2603 3959 2611 3915 
Q 2619 3872 2619 3813 
Q 2619 3700 2587 3637 
Q 2556 3575 2500 3575 
L 991 3575 
L 991 2441 
Q 1100 2456 1214 2459 
Q 1328 2463 1478 2463 
Q 1825 2463 2084 2380 
Q 2344 2297 2517 2145 
Q 2691 1994 2780 1778 
Q 2869 1563 2869 1300 
z
" transform="scale(0.015625)"/>
       </defs>
       <use xlink:href="#Calibri-30"/>
       <use xlink:href="#Calibri-2e" x="50.683594"/>
       <use xlink:href="#Calibri-35" x="75.927734"/>
      </g>
     </g>
    </g>
    <g id="xtick_7">
     <g id="line2d_7">
      <g>
       <use xlink:href="#m5dfaec9696" x="229.0176" y="307.584" style="stroke: #000000; stroke-width: 0.8"/>
      </g>
     </g>
     <g id="text_7">
      <!-- 0.6 -->
      <g transform="translate(222.68635 321.385562) scale(0.1 -0.1)">
       <defs>
        <path id="Calibri-36" d="M 2991 1309 
Q 2991 1044 2909 795 
Q 2828 547 2659 358 
Q 2491 169 2231 55 
Q 1972 -59 1619 -59 
Q 1366 -59 1172 3 
Q 978 66 834 181 
Q 691 297 595 465 
Q 500 634 442 850 
Q 384 1066 359 1322 
Q 334 1578 334 1872 
Q 334 2131 362 2397 
Q 391 2663 462 2909 
Q 534 3156 657 3373 
Q 781 3591 967 3752 
Q 1153 3913 1412 4006 
Q 1672 4100 2016 4100 
Q 2131 4100 2250 4086 
Q 2369 4072 2469 4048 
Q 2569 4025 2637 3997 
Q 2706 3969 2728 3951 
Q 2750 3934 2761 3914 
Q 2772 3894 2778 3870 
Q 2784 3847 2787 3817 
Q 2791 3788 2791 3744 
Q 2791 3688 2789 3647 
Q 2788 3606 2777 3581 
Q 2766 3556 2748 3543 
Q 2731 3531 2703 3531 
Q 2669 3531 2609 3553 
Q 2550 3575 2465 3601 
Q 2381 3628 2261 3650 
Q 2141 3672 1981 3672 
Q 1691 3672 1481 3553 
Q 1272 3434 1139 3234 
Q 1006 3034 942 2770 
Q 878 2506 869 2219 
Q 950 2266 1051 2312 
Q 1153 2359 1273 2396 
Q 1394 2434 1528 2457 
Q 1663 2481 1816 2481 
Q 2144 2481 2369 2392 
Q 2594 2303 2733 2145 
Q 2872 1988 2931 1773 
Q 2991 1559 2991 1309 
z
M 2447 1259 
Q 2447 1441 2411 1589 
Q 2375 1738 2290 1841 
Q 2206 1944 2065 2000 
Q 1925 2056 1719 2056 
Q 1603 2056 1487 2036 
Q 1372 2016 1264 1980 
Q 1156 1944 1057 1895 
Q 959 1847 878 1791 
Q 878 1388 929 1116 
Q 981 844 1079 680 
Q 1178 516 1325 445 
Q 1472 375 1669 375 
Q 1869 375 2016 450 
Q 2163 525 2259 651 
Q 2356 778 2401 936 
Q 2447 1094 2447 1259 
z
" transform="scale(0.015625)"/>
       </defs>
       <use xlink:href="#Calibri-30"/>
       <use xlink:href="#Calibri-2e" x="50.683594"/>
       <use xlink:href="#Calibri-36" x="75.927734"/>
      </g>
     </g>
    </g>
    <g id="xtick_8">
     <g id="line2d_8">
      <g>
       <use xlink:href="#m5dfaec9696" x="257.5872" y="307.584" style="stroke: #000000; stroke-width: 0.8"/>
      </g>
     </g>
     <g id="text_8">
      <!-- 0.7 -->
      <g transform="translate(251.25595 321.385562) scale(0.1 -0.1)">
       <defs>
        <path id="Calibri-37" d="M 2947 3813 
Q 2947 3756 2942 3711 
Q 2938 3666 2930 3623 
Q 2922 3581 2908 3542 
Q 2894 3503 2875 3459 
L 1419 103 
Q 1403 66 1379 42 
Q 1356 19 1320 5 
Q 1284 -9 1228 -14 
Q 1172 -19 1091 -19 
Q 984 -19 925 -9 
Q 866 0 839 20 
Q 813 41 816 70 
Q 819 100 838 141 
L 2369 3572 
L 428 3572 
Q 369 3572 339 3634 
Q 309 3697 309 3809 
Q 309 3869 317 3912 
Q 325 3956 340 3986 
Q 356 4016 378 4030 
Q 400 4044 428 4044 
L 2784 4044 
Q 2828 4044 2861 4034 
Q 2894 4025 2911 3997 
Q 2928 3969 2937 3925 
Q 2947 3881 2947 3813 
z
" transform="scale(0.015625)"/>
       </defs>
       <use xlink:href="#Calibri-30"/>
       <use xlink:href="#Calibri-2e" x="50.683594"/>
       <use xlink:href="#Calibri-37" x="75.927734"/>
      </g>
     </g>
    </g>
    <g id="xtick_9">
     <g id="line2d_9">
      <g>
       <use xlink:href="#m5dfaec9696" x="286.1568" y="307.584" style="stroke: #000000; stroke-width: 0.8"/>
      </g>
     </g>
     <g id="text_9">
      <!-- 0.8 -->
      <g transform="translate(279.82555 321.385562) scale(0.1 -0.1)">
       <defs>
        <path id="Calibri-38" d="M 2981 1038 
Q 2981 775 2887 570 
Q 2794 366 2617 225 
Q 2441 84 2181 12 
Q 1922 -59 1588 -59 
Q 1275 -59 1028 6 
Q 781 72 609 200 
Q 438 328 347 515 
Q 256 703 256 944 
Q 256 1134 318 1293 
Q 381 1453 498 1587 
Q 616 1722 787 1839 
Q 959 1956 1175 2063 
Q 988 2159 844 2267 
Q 700 2375 600 2501 
Q 500 2628 448 2772 
Q 397 2916 397 3084 
Q 397 3297 473 3483 
Q 550 3669 704 3806 
Q 859 3944 1098 4023 
Q 1338 4103 1656 4103 
Q 1963 4103 2186 4029 
Q 2409 3956 2554 3829 
Q 2700 3703 2769 3531 
Q 2838 3359 2838 3163 
Q 2838 3003 2786 2856 
Q 2734 2709 2634 2578 
Q 2534 2447 2389 2333 
Q 2244 2219 2056 2119 
Q 2278 2009 2451 1893 
Q 2625 1778 2742 1645 
Q 2859 1513 2920 1364 
Q 2981 1216 2981 1038 
z
M 2306 3113 
Q 2306 3244 2261 3350 
Q 2216 3456 2128 3531 
Q 2041 3606 1911 3645 
Q 1781 3684 1616 3684 
Q 1278 3684 1104 3531 
Q 931 3378 931 3113 
Q 931 2991 973 2886 
Q 1016 2781 1105 2687 
Q 1194 2594 1330 2505 
Q 1466 2416 1653 2319 
Q 1969 2481 2137 2678 
Q 2306 2875 2306 3113 
z
M 2438 981 
Q 2438 1125 2384 1242 
Q 2331 1359 2223 1461 
Q 2116 1563 1955 1658 
Q 1794 1753 1581 1856 
Q 1384 1759 1236 1662 
Q 1088 1566 992 1462 
Q 897 1359 848 1245 
Q 800 1131 800 994 
Q 800 691 1008 525 
Q 1216 359 1628 359 
Q 2028 359 2233 526 
Q 2438 694 2438 981 
z
" transform="scale(0.015625)"/>
       </defs>
       <use xlink:href="#Calibri-30"/>
       <use xlink:href="#Calibri-2e" x="50.683594"/>
       <use xlink:href="#Calibri-38" x="75.927734"/>
      </g>
     </g>
    </g>
    <g id="xtick_10">
     <g id="line2d_10">
      <g>
       <use xlink:href="#m5dfaec9696" x="314.7264" y="307.584" style="stroke: #000000; stroke-width: 0.8"/>
      </g>
     </g>
     <g id="text_10">
      <!-- 0.9 -->
      <g transform="translate(308.39515 321.385562) scale(0.1 -0.1)">
       <defs>
        <path id="Calibri-39" d="M 2919 2181 
Q 2919 1919 2887 1650 
Q 2856 1381 2781 1132 
Q 2706 884 2579 667 
Q 2453 450 2261 287 
Q 2069 125 1805 33 
Q 1541 -59 1191 -59 
Q 1056 -59 929 -42 
Q 803 -25 701 0 
Q 600 25 531 53 
Q 463 81 431 109 
Q 400 138 386 186 
Q 372 234 372 316 
Q 372 384 376 425 
Q 381 466 390 487 
Q 400 509 417 517 
Q 434 525 459 525 
Q 494 525 556 501 
Q 619 478 714 450 
Q 809 422 937 398 
Q 1066 375 1225 375 
Q 1528 375 1745 492 
Q 1963 609 2100 806 
Q 2238 1003 2306 1262 
Q 2375 1522 2381 1809 
Q 2216 1713 1984 1638 
Q 1753 1563 1453 1563 
Q 1116 1563 886 1655 
Q 656 1747 517 1906 
Q 378 2066 317 2284 
Q 256 2503 256 2763 
Q 256 3031 334 3273 
Q 413 3516 578 3700 
Q 744 3884 1000 3993 
Q 1256 4103 1613 4103 
Q 1866 4103 2061 4039 
Q 2256 3975 2400 3854 
Q 2544 3734 2644 3564 
Q 2744 3394 2805 3178 
Q 2866 2963 2892 2711 
Q 2919 2459 2919 2181 
z
M 2372 2241 
Q 2372 2641 2319 2914 
Q 2266 3188 2162 3356 
Q 2059 3525 1909 3600 
Q 1759 3675 1563 3675 
Q 1359 3675 1215 3601 
Q 1072 3528 980 3404 
Q 888 3281 844 3125 
Q 800 2969 800 2803 
Q 800 2619 839 2466 
Q 878 2313 965 2206 
Q 1053 2100 1193 2042 
Q 1334 1984 1541 1984 
Q 1775 1984 1994 2054 
Q 2213 2125 2372 2241 
z
" transform="scale(0.015625)"/>
       </defs>
       <use xlink:href="#Calibri-30"/>
       <use xlink:href="#Calibri-2e" x="50.683594"/>
       <use xlink:href="#Calibri-39" x="75.927734"/>
      </g>
     </g>
    </g>
    <g id="xtick_11">
     <g id="line2d_11">
      <g>
       <use xlink:href="#m5dfaec9696" x="343.296" y="307.584" style="stroke: #000000; stroke-width: 0.8"/>
      </g>
     </g>
     <g id="text_11">
      <!-- 1.0 -->
      <g transform="translate(336.96475 321.385562) scale(0.1 -0.1)">
       <use xlink:href="#Calibri-31"/>
       <use xlink:href="#Calibri-2e" x="50.683594"/>
       <use xlink:href="#Calibri-30" x="75.927734"/>
      </g>
     </g>
    </g>
    <g id="text_12">
     <!-- $\mathit{p}$ (cm$^2$/cm$^2$) -->
     <g transform="translate(174.148 336.263687) scale(0.1 -0.1)">
      <defs>
       <path id="DejaVuSans-Oblique-70" d="M 3175 2156 
Q 3175 2616 2975 2859 
Q 2775 3103 2400 3103 
Q 2144 3103 1911 2972 
Q 1678 2841 1497 2591 
Q 1319 2344 1212 1994 
Q 1106 1644 1106 1300 
Q 1106 863 1306 627 
Q 1506 391 1875 391 
Q 2147 391 2380 519 
Q 2613 647 2778 891 
Q 2956 1147 3065 1494 
Q 3175 1841 3175 2156 
z
M 1394 2969 
Q 1625 3272 1939 3428 
Q 2253 3584 2638 3584 
Q 3175 3584 3472 3232 
Q 3769 2881 3769 2247 
Q 3769 1728 3584 1258 
Q 3400 788 3053 416 
Q 2822 169 2531 39 
Q 2241 -91 1919 -91 
Q 1547 -91 1294 64 
Q 1041 219 916 525 
L 556 -1331 
L -19 -1331 
L 922 3500 
L 1497 3500 
L 1394 2969 
z
" transform="scale(0.015625)"/>
       <path id="Calibri-20" transform="scale(0.015625)"/>
       <path id="Calibri-28" d="M 1547 4306 
Q 1250 3678 1104 3017 
Q 959 2356 959 1688 
Q 959 1016 1107 356 
Q 1256 -303 1541 -938 
Q 1556 -975 1557 -1001 
Q 1559 -1028 1537 -1045 
Q 1516 -1063 1470 -1070 
Q 1425 -1078 1347 -1078 
Q 1291 -1078 1250 -1075 
Q 1209 -1072 1179 -1062 
Q 1150 -1053 1131 -1040 
Q 1113 -1028 1103 -1013 
Q 934 -694 806 -367 
Q 678 -41 590 296 
Q 503 634 459 979 
Q 416 1325 416 1678 
Q 416 2031 464 2375 
Q 513 2719 602 3058 
Q 691 3397 819 3725 
Q 947 4053 1106 4375 
Q 1109 4388 1123 4397 
Q 1138 4406 1163 4415 
Q 1188 4425 1231 4429 
Q 1275 4434 1344 4434 
Q 1416 4434 1459 4425 
Q 1503 4416 1528 4400 
Q 1553 4384 1556 4359 
Q 1559 4334 1547 4306 
z
" transform="scale(0.015625)"/>
       <path id="Calibri-63" d="M 2500 506 
Q 2500 453 2497 414 
Q 2494 375 2486 348 
Q 2478 322 2467 301 
Q 2456 281 2417 242 
Q 2378 203 2284 145 
Q 2191 88 2073 42 
Q 1956 -3 1818 -31 
Q 1681 -59 1534 -59 
Q 1231 -59 997 41 
Q 763 141 605 333 
Q 447 525 364 804 
Q 281 1084 281 1450 
Q 281 1866 382 2164 
Q 484 2463 661 2653 
Q 838 2844 1077 2936 
Q 1316 3028 1594 3028 
Q 1728 3028 1854 3003 
Q 1981 2978 2087 2937 
Q 2194 2897 2276 2844 
Q 2359 2791 2396 2753 
Q 2434 2716 2448 2694 
Q 2463 2672 2472 2642 
Q 2481 2613 2484 2575 
Q 2488 2538 2488 2481 
Q 2488 2359 2459 2311 
Q 2431 2263 2391 2263 
Q 2344 2263 2283 2314 
Q 2222 2366 2128 2428 
Q 2034 2491 1901 2542 
Q 1769 2594 1588 2594 
Q 1216 2594 1017 2308 
Q 819 2022 819 1478 
Q 819 1206 870 1001 
Q 922 797 1022 659 
Q 1122 522 1267 455 
Q 1413 388 1600 388 
Q 1778 388 1912 444 
Q 2047 500 2145 567 
Q 2244 634 2311 689 
Q 2378 744 2416 744 
Q 2438 744 2453 731 
Q 2469 719 2480 689 
Q 2491 659 2495 614 
Q 2500 569 2500 506 
z
" transform="scale(0.015625)"/>
       <path id="Calibri-6d" d="M 4650 78 
Q 4650 53 4637 36 
Q 4625 19 4597 6 
Q 4569 -6 4519 -12 
Q 4469 -19 4394 -19 
Q 4316 -19 4266 -12 
Q 4216 -6 4186 6 
Q 4156 19 4143 36 
Q 4131 53 4131 78 
L 4131 1788 
Q 4131 1966 4100 2112 
Q 4069 2259 4000 2365 
Q 3931 2472 3825 2528 
Q 3719 2584 3575 2584 
Q 3397 2584 3217 2446 
Q 3038 2309 2822 2044 
L 2822 78 
Q 2822 53 2809 36 
Q 2797 19 2767 6 
Q 2738 -6 2688 -12 
Q 2638 -19 2563 -19 
Q 2491 -19 2439 -12 
Q 2388 -6 2358 6 
Q 2328 19 2317 36 
Q 2306 53 2306 78 
L 2306 1788 
Q 2306 1966 2272 2112 
Q 2238 2259 2169 2365 
Q 2100 2472 1995 2528 
Q 1891 2584 1747 2584 
Q 1569 2584 1387 2446 
Q 1206 2309 994 2044 
L 994 78 
Q 994 53 981 36 
Q 969 19 941 6 
Q 913 -6 863 -12 
Q 813 -19 734 -19 
Q 659 -19 609 -12 
Q 559 -6 529 6 
Q 500 19 489 36 
Q 478 53 478 78 
L 478 2891 
Q 478 2916 487 2933 
Q 497 2950 525 2964 
Q 553 2978 597 2983 
Q 641 2988 713 2988 
Q 781 2988 826 2983 
Q 872 2978 897 2964 
Q 922 2950 933 2933 
Q 944 2916 944 2891 
L 944 2519 
Q 1181 2784 1404 2907 
Q 1628 3031 1856 3031 
Q 2031 3031 2170 2990 
Q 2309 2950 2415 2876 
Q 2522 2803 2597 2701 
Q 2672 2600 2722 2475 
Q 2863 2628 2989 2734 
Q 3116 2841 3233 2906 
Q 3350 2972 3461 3001 
Q 3572 3031 3684 3031 
Q 3956 3031 4140 2936 
Q 4325 2841 4439 2681 
Q 4553 2522 4601 2308 
Q 4650 2094 4650 1856 
L 4650 78 
z
" transform="scale(0.015625)"/>
       <path id="DejaVuSans-32" d="M 1228 531 
L 3431 531 
L 3431 0 
L 469 0 
L 469 531 
Q 828 903 1448 1529 
Q 2069 2156 2228 2338 
Q 2531 2678 2651 2914 
Q 2772 3150 2772 3378 
Q 2772 3750 2511 3984 
Q 2250 4219 1831 4219 
Q 1534 4219 1204 4116 
Q 875 4013 500 3803 
L 500 4441 
Q 881 4594 1212 4672 
Q 1544 4750 1819 4750 
Q 2544 4750 2975 4387 
Q 3406 4025 3406 3419 
Q 3406 3131 3298 2873 
Q 3191 2616 2906 2266 
Q 2828 2175 2409 1742 
Q 1991 1309 1228 531 
z
" transform="scale(0.015625)"/>
       <path id="Calibri-2f" d="M 525 -753 
Q 513 -794 492 -817 
Q 472 -841 440 -853 
Q 409 -866 364 -872 
Q 319 -878 253 -878 
Q 175 -878 123 -867 
Q 72 -856 44 -836 
Q 16 -816 9 -786 
Q 3 -756 22 -716 
L 1913 4469 
Q 1925 4509 1945 4532 
Q 1966 4556 1995 4570 
Q 2025 4584 2072 4589 
Q 2119 4594 2184 4594 
Q 2263 4594 2313 4583 
Q 2363 4572 2391 4553 
Q 2419 4534 2425 4503 
Q 2431 4472 2416 4431 
L 525 -753 
z
" transform="scale(0.015625)"/>
       <path id="Calibri-29" d="M 1522 1678 
Q 1522 1325 1478 979 
Q 1434 634 1346 296 
Q 1259 -41 1132 -367 
Q 1006 -694 838 -1013 
Q 828 -1028 809 -1040 
Q 791 -1053 761 -1062 
Q 731 -1072 690 -1075 
Q 650 -1078 594 -1078 
Q 513 -1078 467 -1070 
Q 422 -1063 401 -1045 
Q 381 -1028 382 -1001 
Q 384 -975 400 -938 
Q 688 -306 834 355 
Q 981 1016 981 1688 
Q 981 2356 834 3017 
Q 688 3678 394 4306 
Q 381 4334 384 4359 
Q 388 4384 413 4400 
Q 438 4416 481 4425 
Q 525 4434 597 4434 
Q 663 4434 706 4429 
Q 750 4425 776 4415 
Q 803 4406 815 4397 
Q 828 4388 834 4375 
Q 1156 3734 1339 3057 
Q 1522 2381 1522 1678 
z
" transform="scale(0.015625)"/>
      </defs>
      <use xlink:href="#DejaVuSans-Oblique-70" transform="translate(0 0.765625)"/>
      <use xlink:href="#Calibri-20" transform="translate(63.476562 0.765625)"/>
      <use xlink:href="#Calibri-28" transform="translate(84.958984 0.765625)"/>
      <use xlink:href="#Calibri-63" transform="translate(115.28125 0.765625)"/>
      <use xlink:href="#Calibri-6d" transform="translate(157.566406 0.765625)"/>
      <use xlink:href="#DejaVuSans-32" transform="translate(238.40625 39.046875) scale(0.7)"/>
      <use xlink:href="#Calibri-2f" transform="translate(285.676758 0.765625)"/>
      <use xlink:href="#Calibri-63" transform="translate(324.299805 0.765625)"/>
      <use xlink:href="#Calibri-6d" transform="translate(366.584961 0.765625)"/>
      <use xlink:href="#DejaVuSans-32" transform="translate(447.424805 39.046875) scale(0.7)"/>
      <use xlink:href="#Calibri-29" transform="translate(494.695312 0.765625)"/>
     </g>
    </g>
   </g>
   <g id="matplotlib.axis_2">
    <g id="ytick_1">
     <g id="line2d_12">
      <defs>
       <path id="m126c0e08e2" d="M 0 0 
L -3.5 0 
" style="stroke: #000000; stroke-width: 0.8"/>
      </defs>
      <g>
       <use xlink:href="#m126c0e08e2" x="57.6" y="275.65056" style="stroke: #000000; stroke-width: 0.8"/>
      </g>
     </g>
     <g id="text_13">
      <!-- 25 -->
      <g transform="translate(40.4625 279.051341) scale(0.1 -0.1)">
       <use xlink:href="#Calibri-32"/>
       <use xlink:href="#Calibri-35" x="50.683594"/>
      </g>
     </g>
    </g>
    <g id="ytick_2">
     <g id="line2d_13">
      <g>
       <use xlink:href="#m126c0e08e2" x="57.6" y="242.38656" style="stroke: #000000; stroke-width: 0.8"/>
      </g>
     </g>
     <g id="text_14">
      <!-- 50 -->
      <g transform="translate(40.4625 245.787341) scale(0.1 -0.1)">
       <use xlink:href="#Calibri-35"/>
       <use xlink:href="#Calibri-30" x="50.683594"/>
      </g>
     </g>
    </g>
    <g id="ytick_3">
     <g id="line2d_14">
      <g>
       <use xlink:href="#m126c0e08e2" x="57.6" y="209.12256" style="stroke: #000000; stroke-width: 0.8"/>
      </g>
     </g>
     <g id="text_15">
      <!-- 75 -->
      <g transform="translate(40.4625 212.523341) scale(0.1 -0.1)">
       <use xlink:href="#Calibri-37"/>
       <use xlink:href="#Calibri-35" x="50.683594"/>
      </g>
     </g>
    </g>
    <g id="ytick_4">
     <g id="line2d_15">
      <g>
       <use xlink:href="#m126c0e08e2" x="57.6" y="175.85856" style="stroke: #000000; stroke-width: 0.8"/>
      </g>
     </g>
     <g id="text_16">
      <!-- 100 -->
      <g transform="translate(35.39375 179.259341) scale(0.1 -0.1)">
       <use xlink:href="#Calibri-31"/>
       <use xlink:href="#Calibri-30" x="50.683594"/>
       <use xlink:href="#Calibri-30" x="101.367188"/>
      </g>
     </g>
    </g>
    <g id="ytick_5">
     <g id="line2d_16">
      <g>
       <use xlink:href="#m126c0e08e2" x="57.6" y="142.59456" style="stroke: #000000; stroke-width: 0.8"/>
      </g>
     </g>
     <g id="text_17">
      <!-- 125 -->
      <g transform="translate(35.39375 145.995341) scale(0.1 -0.1)">
       <use xlink:href="#Calibri-31"/>
       <use xlink:href="#Calibri-32" x="50.683594"/>
       <use xlink:href="#Calibri-35" x="101.367188"/>
      </g>
     </g>
    </g>
    <g id="ytick_6">
     <g id="line2d_17">
      <g>
       <use xlink:href="#m126c0e08e2" x="57.6" y="109.33056" style="stroke: #000000; stroke-width: 0.8"/>
      </g>
     </g>
     <g id="text_18">
      <!-- 150 -->
      <g transform="translate(35.39375 112.731341) scale(0.1 -0.1)">
       <use xlink:href="#Calibri-31"/>
       <use xlink:href="#Calibri-35" x="50.683594"/>
       <use xlink:href="#Calibri-30" x="101.367188"/>
      </g>
     </g>
    </g>
    <g id="ytick_7">
     <g id="line2d_18">
      <g>
       <use xlink:href="#m126c0e08e2" x="57.6" y="76.06656" style="stroke: #000000; stroke-width: 0.8"/>
      </g>
     </g>
     <g id="text_19">
      <!-- 175 -->
      <g transform="translate(35.39375 79.467341) scale(0.1 -0.1)">
       <use xlink:href="#Calibri-31"/>
       <use xlink:href="#Calibri-37" x="50.683594"/>
       <use xlink:href="#Calibri-35" x="101.367188"/>
      </g>
     </g>
    </g>
    <g id="ytick_8">
     <g id="line2d_19">
      <g>
       <use xlink:href="#m126c0e08e2" x="57.6" y="42.80256" style="stroke: #000000; stroke-width: 0.8"/>
      </g>
     </g>
     <g id="text_20">
      <!-- 200 -->
      <g transform="translate(35.39375 46.203341) scale(0.1 -0.1)">
       <use xlink:href="#Calibri-32"/>
       <use xlink:href="#Calibri-30" x="50.683594"/>
       <use xlink:href="#Calibri-30" x="101.367188"/>
      </g>
     </g>
    </g>
    <g id="text_21">
     <!-- $\mathit{Z}$$_{a}$ (nm) -->
     <g transform="translate(29.59375 191.028) rotate(-90) scale(0.1 -0.1)">
      <defs>
       <path id="DejaVuSans-Oblique-5a" d="M 838 4666 
L 4500 4666 
L 4409 4184 
L 794 531 
L 3769 531 
L 3669 0 
L -141 0 
L -50 481 
L 3566 4134 
L 738 4134 
L 838 4666 
z
" transform="scale(0.015625)"/>
       <path id="DejaVuSans-Oblique-61" d="M 3438 1997 
L 3047 0 
L 2472 0 
L 2578 531 
Q 2325 219 2001 64 
Q 1678 -91 1281 -91 
Q 834 -91 548 182 
Q 263 456 263 884 
Q 263 1497 752 1853 
Q 1241 2209 2100 2209 
L 2900 2209 
L 2931 2363 
Q 2938 2388 2941 2417 
Q 2944 2447 2944 2509 
Q 2944 2788 2717 2942 
Q 2491 3097 2081 3097 
Q 1800 3097 1504 3025 
Q 1209 2953 897 2809 
L 997 3341 
Q 1322 3463 1633 3523 
Q 1944 3584 2234 3584 
Q 2853 3584 3176 3315 
Q 3500 3047 3500 2534 
Q 3500 2431 3484 2292 
Q 3469 2153 3438 1997 
z
M 2816 1759 
L 2241 1759 
Q 1534 1759 1195 1570 
Q 856 1381 856 984 
Q 856 709 1029 553 
Q 1203 397 1509 397 
Q 1978 397 2328 733 
Q 2678 1069 2791 1631 
L 2816 1759 
z
" transform="scale(0.015625)"/>
       <path id="Calibri-6e" d="M 2900 78 
Q 2900 53 2887 36 
Q 2875 19 2847 6 
Q 2819 -6 2769 -12 
Q 2719 -19 2644 -19 
Q 2566 -19 2516 -12 
Q 2466 -6 2437 6 
Q 2409 19 2396 36 
Q 2384 53 2384 78 
L 2384 1725 
Q 2384 1966 2346 2112 
Q 2309 2259 2237 2365 
Q 2166 2472 2052 2528 
Q 1938 2584 1788 2584 
Q 1594 2584 1400 2446 
Q 1206 2309 994 2044 
L 994 78 
Q 994 53 981 36 
Q 969 19 941 6 
Q 913 -6 863 -12 
Q 813 -19 734 -19 
Q 659 -19 609 -12 
Q 559 -6 529 6 
Q 500 19 489 36 
Q 478 53 478 78 
L 478 2891 
Q 478 2916 487 2933 
Q 497 2950 525 2964 
Q 553 2978 597 2983 
Q 641 2988 713 2988 
Q 781 2988 826 2983 
Q 872 2978 897 2964 
Q 922 2950 933 2933 
Q 944 2916 944 2891 
L 944 2519 
Q 1181 2784 1417 2907 
Q 1653 3031 1894 3031 
Q 2175 3031 2367 2936 
Q 2559 2841 2678 2681 
Q 2797 2522 2848 2308 
Q 2900 2094 2900 1794 
L 2900 78 
z
" transform="scale(0.015625)"/>
      </defs>
      <use xlink:href="#DejaVuSans-Oblique-5a" transform="translate(0 0.09375)"/>
      <use xlink:href="#DejaVuSans-Oblique-61" transform="translate(69.462891 -16.3125) scale(0.7)"/>
      <use xlink:href="#Calibri-20" transform="translate(115.092773 0.09375)"/>
      <use xlink:href="#Calibri-28" transform="translate(136.575195 0.09375)"/>
      <use xlink:href="#Calibri-6e" transform="translate(166.897461 0.09375)"/>
      <use xlink:href="#Calibri-6d" transform="translate(219.436523 0.09375)"/>
      <use xlink:href="#Calibri-29" transform="translate(299.319336 0.09375)"/>
     </g>
    </g>
   </g>
   <g id="patch_3">
    <path d="M 57.6 307.584 
L 57.6 41.472 
" style="fill: none; stroke: #000000; stroke-width: 0.8; stroke-linejoin: miter; stroke-linecap: square"/>
   </g>
   <g id="patch_4">
    <path d="M 343.296 307.584 
L 343.296 41.472 
" style="fill: none; stroke: #000000; stroke-width: 0.8; stroke-linejoin: miter; stroke-linecap: square"/>
   </g>
   <g id="patch_5">
    <path d="M 57.6 307.584 
L 343.296 307.584 
" style="fill: none; stroke: #000000; stroke-width: 0.8; stroke-linejoin: miter; stroke-linecap: square"/>
   </g>
   <g id="patch_6">
    <path d="M 57.6 41.472 
L 343.296 41.472 
" style="fill: none; stroke: #000000; stroke-width: 0.8; stroke-linejoin: miter; stroke-linecap: square"/>
   </g>
   <g id="text_22">
    <!-- $\lambda$ = 675 nm -->
    <g transform="translate(177.348 35.472) scale(0.1 -0.1)">
     <defs>
      <path id="DejaVuSans-Oblique-3bb" d="M 2350 4316 
L 3125 0 
L 2516 0 
L 2038 2588 
L 328 0 
L -281 0 
L 1903 3356 
L 1794 3975 
Q 1725 4369 1391 4369 
L 1091 4369 
L 1184 4863 
L 1550 4856 
Q 2253 4847 2350 4316 
z
" transform="scale(0.015625)"/>
      <path id="Calibri-3d" d="M 2891 2409 
Q 2891 2284 2855 2236 
Q 2819 2188 2772 2188 
L 409 2188 
Q 363 2188 328 2236 
Q 294 2284 294 2409 
Q 294 2522 325 2575 
Q 356 2628 409 2628 
L 2772 2628 
Q 2828 2628 2859 2575 
Q 2891 2522 2891 2409 
z
M 2891 1194 
Q 2891 1069 2855 1022 
Q 2819 975 2772 975 
L 409 975 
Q 363 975 328 1022 
Q 294 1069 294 1194 
Q 294 1309 325 1362 
Q 356 1416 409 1416 
L 2772 1416 
Q 2828 1416 2859 1362 
Q 2891 1309 2891 1194 
z
" transform="scale(0.015625)"/>
     </defs>
     <use xlink:href="#DejaVuSans-Oblique-3bb" transform="translate(0 0.015625)"/>
     <use xlink:href="#Calibri-20" transform="translate(59.179688 0.015625)"/>
     <use xlink:href="#Calibri-3d" transform="translate(81.787109 0.015625)"/>
     <use xlink:href="#Calibri-20" transform="translate(131.591797 0.015625)"/>
     <use xlink:href="#Calibri-36" transform="translate(154.199219 0.015625)"/>
     <use xlink:href="#Calibri-37" transform="translate(204.882812 0.015625)"/>
     <use xlink:href="#Calibri-35" transform="translate(255.566406 0.015625)"/>
     <use xlink:href="#Calibri-20" transform="translate(306.25 0.015625)"/>
     <use xlink:href="#Calibri-6e" transform="translate(328.857422 0.015625)"/>
     <use xlink:href="#Calibri-6d" transform="translate(381.396484 0.015625)"/>
    </g>
   </g>
  </g>
  <g id="axes_2">
   <g id="patch_7">
    <path d="M 361.152 307.584 
L 374.4576 307.584 
L 374.4576 41.472 
L 361.152 41.472 
z
" style="fill: #ffffff"/>
   </g>
   <g id="QuadMesh_1">
    <path d="M 361.152 307.584 
L 374.4576 307.584 
L 374.4576 280.9728 
L 361.152 280.9728 
L 361.152 307.584 
" clip-path="url(#p2fbc7e074e)" style="fill: #0000b6"/>
    <path d="M 361.152 280.9728 
L 374.4576 280.9728 
L 374.4576 254.3616 
L 361.152 254.3616 
L 361.152 280.9728 
" clip-path="url(#p2fbc7e074e)" style="fill: #0018ff"/>
    <path d="M 361.152 254.3616 
L 374.4576 254.3616 
L 374.4576 227.7504 
L 361.152 227.7504 
L 361.152 254.3616 
" clip-path="url(#p2fbc7e074e)" style="fill: #0080ff"/>
    <path d="M 361.152 227.7504 
L 374.4576 227.7504 
L 374.4576 201.1392 
L 361.152 201.1392 
L 361.152 227.7504 
" clip-path="url(#p2fbc7e074e)" style="fill: #00e4f8"/>
    <path d="M 361.152 201.1392 
L 374.4576 201.1392 
L 374.4576 174.528 
L 361.152 174.528 
L 361.152 201.1392 
" clip-path="url(#p2fbc7e074e)" style="fill: #53ffa4"/>
    <path d="M 361.152 174.528 
L 374.4576 174.528 
L 374.4576 147.9168 
L 361.152 147.9168 
L 361.152 174.528 
" clip-path="url(#p2fbc7e074e)" style="fill: #a4ff53"/>
    <path d="M 361.152 147.9168 
L 374.4576 147.9168 
L 374.4576 121.3056 
L 361.152 121.3056 
L 361.152 147.9168 
" clip-path="url(#p2fbc7e074e)" style="fill: #f8f500"/>
    <path d="M 361.152 121.3056 
L 374.4576 121.3056 
L 374.4576 94.6944 
L 361.152 94.6944 
L 361.152 121.3056 
" clip-path="url(#p2fbc7e074e)" style="fill: #ff9400"/>
    <path d="M 361.152 94.6944 
L 374.4576 94.6944 
L 374.4576 68.0832 
L 361.152 68.0832 
L 361.152 94.6944 
" clip-path="url(#p2fbc7e074e)" style="fill: #ff3800"/>
    <path d="M 361.152 68.0832 
L 374.4576 68.0832 
L 374.4576 41.472 
L 361.152 41.472 
L 361.152 68.0832 
" clip-path="url(#p2fbc7e074e)" style="fill: #b60000"/>
   </g>
   <g id="matplotlib.axis_3"/>
   <g id="matplotlib.axis_4">
    <g id="ytick_9">
     <g id="line2d_20">
      <defs>
       <path id="mdafa674b62" d="M 0 0 
L 3.5 0 
" style="stroke: #000000; stroke-width: 0.8"/>
      </defs>
      <g>
       <use xlink:href="#mdafa674b62" x="374.4576" y="307.584" style="stroke: #000000; stroke-width: 0.8"/>
      </g>
     </g>
     <g id="text_23">
      <!-- 0 -->
      <g transform="translate(381.4576 310.984781) scale(0.1 -0.1)">
       <use xlink:href="#Calibri-30"/>
      </g>
     </g>
    </g>
    <g id="ytick_10">
     <g id="line2d_21">
      <g>
       <use xlink:href="#mdafa674b62" x="374.4576" y="280.9728" style="stroke: #000000; stroke-width: 0.8"/>
      </g>
     </g>
     <g id="text_24">
      <!-- 0.1 -->
      <g transform="translate(381.4576 284.373581) scale(0.1 -0.1)">
       <use xlink:href="#Calibri-30"/>
       <use xlink:href="#Calibri-2e" x="50.683594"/>
       <use xlink:href="#Calibri-31" x="75.927734"/>
      </g>
     </g>
    </g>
    <g id="ytick_11">
     <g id="line2d_22">
      <g>
       <use xlink:href="#mdafa674b62" x="374.4576" y="254.3616" style="stroke: #000000; stroke-width: 0.8"/>
      </g>
     </g>
     <g id="text_25">
      <!-- 0.2 -->
      <g transform="translate(381.4576 257.762381) scale(0.1 -0.1)">
       <use xlink:href="#Calibri-30"/>
       <use xlink:href="#Calibri-2e" x="50.683594"/>
       <use xlink:href="#Calibri-32" x="75.927734"/>
      </g>
     </g>
    </g>
    <g id="ytick_12">
     <g id="line2d_23">
      <g>
       <use xlink:href="#mdafa674b62" x="374.4576" y="227.7504" style="stroke: #000000; stroke-width: 0.8"/>
      </g>
     </g>
     <g id="text_26">
      <!-- 0.3 -->
      <g transform="translate(381.4576 231.151181) scale(0.1 -0.1)">
       <use xlink:href="#Calibri-30"/>
       <use xlink:href="#Calibri-2e" x="50.683594"/>
       <use xlink:href="#Calibri-33" x="75.927734"/>
      </g>
     </g>
    </g>
    <g id="ytick_13">
     <g id="line2d_24">
      <g>
       <use xlink:href="#mdafa674b62" x="374.4576" y="201.1392" style="stroke: #000000; stroke-width: 0.8"/>
      </g>
     </g>
     <g id="text_27">
      <!-- 0.4 -->
      <g transform="translate(381.4576 204.539981) scale(0.1 -0.1)">
       <use xlink:href="#Calibri-30"/>
       <use xlink:href="#Calibri-2e" x="50.683594"/>
       <use xlink:href="#Calibri-34" x="75.927734"/>
      </g>
     </g>
    </g>
    <g id="ytick_14">
     <g id="line2d_25">
      <g>
       <use xlink:href="#mdafa674b62" x="374.4576" y="174.528" style="stroke: #000000; stroke-width: 0.8"/>
      </g>
     </g>
     <g id="text_28">
      <!-- 0.5 -->
      <g transform="translate(381.4576 177.928781) scale(0.1 -0.1)">
       <use xlink:href="#Calibri-30"/>
       <use xlink:href="#Calibri-2e" x="50.683594"/>
       <use xlink:href="#Calibri-35" x="75.927734"/>
      </g>
     </g>
    </g>
    <g id="ytick_15">
     <g id="line2d_26">
      <g>
       <use xlink:href="#mdafa674b62" x="374.4576" y="147.9168" style="stroke: #000000; stroke-width: 0.8"/>
      </g>
     </g>
     <g id="text_29">
      <!-- 0.6 -->
      <g transform="translate(381.4576 151.317581) scale(0.1 -0.1)">
       <use xlink:href="#Calibri-30"/>
       <use xlink:href="#Calibri-2e" x="50.683594"/>
       <use xlink:href="#Calibri-36" x="75.927734"/>
      </g>
     </g>
    </g>
    <g id="ytick_16">
     <g id="line2d_27">
      <g>
       <use xlink:href="#mdafa674b62" x="374.4576" y="121.3056" style="stroke: #000000; stroke-width: 0.8"/>
      </g>
     </g>
     <g id="text_30">
      <!-- 0.7 -->
      <g transform="translate(381.4576 124.706381) scale(0.1 -0.1)">
       <use xlink:href="#Calibri-30"/>
       <use xlink:href="#Calibri-2e" x="50.683594"/>
       <use xlink:href="#Calibri-37" x="75.927734"/>
      </g>
     </g>
    </g>
    <g id="ytick_17">
     <g id="line2d_28">
      <g>
       <use xlink:href="#mdafa674b62" x="374.4576" y="94.6944" style="stroke: #000000; stroke-width: 0.8"/>
      </g>
     </g>
     <g id="text_31">
      <!-- 0.8 -->
      <g transform="translate(381.4576 98.095181) scale(0.1 -0.1)">
       <use xlink:href="#Calibri-30"/>
       <use xlink:href="#Calibri-2e" x="50.683594"/>
       <use xlink:href="#Calibri-38" x="75.927734"/>
      </g>
     </g>
    </g>
    <g id="ytick_18">
     <g id="line2d_29">
      <g>
       <use xlink:href="#mdafa674b62" x="374.4576" y="68.0832" style="stroke: #000000; stroke-width: 0.8"/>
      </g>
     </g>
     <g id="text_32">
      <!-- 0.9 -->
      <g transform="translate(381.4576 71.483981) scale(0.1 -0.1)">
       <use xlink:href="#Calibri-30"/>
       <use xlink:href="#Calibri-2e" x="50.683594"/>
       <use xlink:href="#Calibri-39" x="75.927734"/>
      </g>
     </g>
    </g>
    <g id="ytick_19">
     <g id="line2d_30">
      <g>
       <use xlink:href="#mdafa674b62" x="374.4576" y="41.472" style="stroke: #000000; stroke-width: 0.8"/>
      </g>
     </g>
     <g id="text_33">
      <!-- 1.0 -->
      <g transform="translate(381.4576 44.872781) scale(0.1 -0.1)">
       <use xlink:href="#Calibri-31"/>
       <use xlink:href="#Calibri-2e" x="50.683594"/>
       <use xlink:href="#Calibri-30" x="75.927734"/>
      </g>
     </g>
    </g>
   </g>
   <g id="LineCollection_1"/>
   <g id="patch_8">
    <path d="M 361.152 307.584 
L 367.8048 307.584 
L 374.4576 307.584 
L 374.4576 41.472 
L 367.8048 41.472 
L 361.152 41.472 
L 361.152 307.584 
z
" style="fill: none; stroke: #000000; stroke-width: 0.8; stroke-linejoin: miter; stroke-linecap: square"/>
   </g>
   <g id="text_34">
    <!-- $\mathit{E}_{\mathrm{dis}}$/$\mathit{E}_{\mathrm{i}}$ -->
    <g transform="translate(353.2548 35.472) scale(0.1 -0.1)">
     <defs>
      <path id="DejaVuSans-Oblique-45" d="M 1081 4666 
L 4031 4666 
L 3928 4134 
L 1606 4134 
L 1338 2753 
L 3566 2753 
L 3463 2222 
L 1234 2222 
L 909 531 
L 3284 531 
L 3181 0 
L 172 0 
L 1081 4666 
z
" transform="scale(0.015625)"/>
      <path id="DejaVuSans-64" d="M 2906 2969 
L 2906 4863 
L 3481 4863 
L 3481 0 
L 2906 0 
L 2906 525 
Q 2725 213 2448 61 
Q 2172 -91 1784 -91 
Q 1150 -91 751 415 
Q 353 922 353 1747 
Q 353 2572 751 3078 
Q 1150 3584 1784 3584 
Q 2172 3584 2448 3432 
Q 2725 3281 2906 2969 
z
M 947 1747 
Q 947 1113 1208 752 
Q 1469 391 1925 391 
Q 2381 391 2643 752 
Q 2906 1113 2906 1747 
Q 2906 2381 2643 2742 
Q 2381 3103 1925 3103 
Q 1469 3103 1208 2742 
Q 947 2381 947 1747 
z
" transform="scale(0.015625)"/>
      <path id="DejaVuSans-69" d="M 603 3500 
L 1178 3500 
L 1178 0 
L 603 0 
L 603 3500 
z
M 603 4863 
L 1178 4863 
L 1178 4134 
L 603 4134 
L 603 4863 
z
" transform="scale(0.015625)"/>
      <path id="DejaVuSans-73" d="M 2834 3397 
L 2834 2853 
Q 2591 2978 2328 3040 
Q 2066 3103 1784 3103 
Q 1356 3103 1142 2972 
Q 928 2841 928 2578 
Q 928 2378 1081 2264 
Q 1234 2150 1697 2047 
L 1894 2003 
Q 2506 1872 2764 1633 
Q 3022 1394 3022 966 
Q 3022 478 2636 193 
Q 2250 -91 1575 -91 
Q 1294 -91 989 -36 
Q 684 19 347 128 
L 347 722 
Q 666 556 975 473 
Q 1284 391 1588 391 
Q 1994 391 2212 530 
Q 2431 669 2431 922 
Q 2431 1156 2273 1281 
Q 2116 1406 1581 1522 
L 1381 1569 
Q 847 1681 609 1914 
Q 372 2147 372 2553 
Q 372 3047 722 3315 
Q 1072 3584 1716 3584 
Q 2034 3584 2315 3537 
Q 2597 3491 2834 3397 
z
" transform="scale(0.015625)"/>
     </defs>
     <use xlink:href="#DejaVuSans-Oblique-45" transform="translate(0 0.09375)"/>
     <use xlink:href="#DejaVuSans-64" transform="translate(63.183594 -16.3125) scale(0.7)"/>
     <use xlink:href="#DejaVuSans-69" transform="translate(107.617188 -16.3125) scale(0.7)"/>
     <use xlink:href="#DejaVuSans-73" transform="translate(127.06543 -16.3125) scale(0.7)"/>
     <use xlink:href="#Calibri-2f" transform="translate(166.269531 0.09375)"/>
     <use xlink:href="#DejaVuSans-Oblique-45" transform="translate(204.892578 0.09375)"/>
     <use xlink:href="#DejaVuSans-69" transform="translate(268.076172 -16.3125) scale(0.7)"/>
    </g>
   </g>
  </g>
 </g>
 <defs>
  <clipPath id="pb4334a06f1">
   <rect x="57.6" y="41.472" width="285.696" height="266.112"/>
  </clipPath>
  <clipPath id="p2fbc7e074e">
   <rect x="361.152" y="41.472" width="13.3056" height="266.112"/>
  </clipPath>
 </defs>
</svg>
