<?xml version="1.0" encoding="utf-8" standalone="no"?>
<!DOCTYPE svg PUBLIC "-//W3C//DTD SVG 1.1//EN"
  "http://www.w3.org/Graphics/SVG/1.1/DTD/svg11.dtd">
<svg xmlns:xlink="http://www.w3.org/1999/xlink" width="460.8pt" height="345.6pt" viewBox="0 0 460.8 345.6" xmlns="http://www.w3.org/2000/svg" version="1.1">
 <metadata>
  <rdf:RDF xmlns:dc="http://purl.org/dc/elements/1.1/" xmlns:cc="http://creativecommons.org/ns#" xmlns:rdf="http://www.w3.org/1999/02/22-rdf-syntax-ns#">
   <cc:Work>
    <dc:type rdf:resource="http://purl.org/dc/dcmitype/StillImage"/>
    <dc:date>2024-01-22T08:49:32.715016</dc:date>
    <dc:format>image/svg+xml</dc:format>
    <dc:creator>
     <cc:Agent>
      <dc:title>Matplotlib v3.7.1, https://matplotlib.org/</dc:title>
     </cc:Agent>
    </dc:creator>
   </cc:Work>
  </rdf:RDF>
 </metadata>
 <defs>
  <style type="text/css">*{stroke-linejoin: round; stroke-linecap: butt}</style>
 </defs>
 <g id="figure_1">
  <g id="patch_1">
   <path d="M 0 345.6 
L 460.8 345.6 
L 460.8 0 
L 0 0 
z
" style="fill: #ffffff"/>
  </g>
  <g id="axes_1">
   <g id="patch_2">
    <path d="M 57.6 307.584 
L 343.296 307.584 
L 343.296 41.472 
L 57.6 41.472 
z
" style="fill: #ffffff"/>
   </g>
   <g id="PathCollection_1">
    <path clip-path="url(#p3c7f6af8ba)" style="fill: #0000b6"/>
   </g>
   <g id="PathCollection_2">
    <path clip-path="url(#p3c7f6af8ba)" style="fill: #0018ff"/>
   </g>
   <g id="PathCollection_3">
    <path d="M 57.62857 75.924308 
L 58.016573 75.583046 
L 58.951931 74.736 
L 59.051699 74.645047 
L 60.012997 73.76172 
L 60.164994 73.620442 
L 60.27653 73.514953 
L 60.955279 72.881559 
L 61.961978 71.928582 
L 62.294553 71.616661 
L 62.511517 71.4096 
L 63.535424 70.418788 
L 63.99743 69.965433 
L 64.404845 69.570817 
L 64.925885 69.05748 
L 65.591143 68.394279 
L 65.902254 68.0832 
L 66.522553 67.452428 
L 66.862341 67.10892 
L 67.159283 66.804057 
L 67.536594 66.411493 
L 68.565902 65.349178 
L 69.13054 64.7568 
L 69.702737 64.14791 
L 69.993207 63.83478 
L 70.615836 63.171567 
L 71.324331 62.40468 
L 71.819443 61.862156 
L 72.212625 61.4304 
L 72.903512 60.658129 
L 73.085412 60.45612 
L 73.272037 60.245629 
L 73.557942 59.91915 
L 74.652355 58.678051 
L 75.150786 58.104 
L 75.774766 57.374844 
L 76.13152 56.9529 
L 76.638101 56.360312 
L 77.150403 55.75188 
L 77.735698 55.04786 
L 77.808355 54.961343 
L 77.960096 54.7776 
L 78.313332 54.344116 
L 78.757162 53.80332 
L 79.283289 53.152242 
L 80.271995 51.914571 
L 80.542372 51.578085 
L 80.642848 51.4512 
L 81.740923 50.04379 
L 82.449182 49.125771 
L 82.460072 49.111798 
L 82.469843 49.09908 
L 82.503854 49.054222 
L 83.211411 48.1248 
L 83.340895 47.952286 
L 83.942502 47.15052 
L 84.354327 46.594327 
L 84.841105 45.927755 
L 85.181953 45.465465 
L 85.668544 44.7984 
L 86.224603 44.024506 
L 87.343333 42.44628 
L 87.464655 42.272779 
L 88.021654 41.472 
L 86.579098 41.472 
L 85.055386 41.472 
L 83.531674 41.472 
L 82.007962 41.472 
L 80.48425 41.472 
L 78.960538 41.472 
L 77.436826 41.472 
L 75.913114 41.472 
L 74.389402 41.472 
L 72.86569 41.472 
L 71.341978 41.472 
L 69.818266 41.472 
L 68.294554 41.472 
L 66.770842 41.472 
L 65.24713 41.472 
L 63.723418 41.472 
L 62.199706 41.472 
L 60.675994 41.472 
L 59.152282 41.472 
L 57.62857 41.472 
L 57.62857 44.7984 
L 57.62857 48.1248 
L 57.62857 51.4512 
L 57.62857 54.7776 
L 57.62857 58.104 
L 57.62857 61.4304 
L 57.62857 64.7568 
L 57.62857 68.0832 
L 57.62857 71.4096 
L 57.62857 74.736 
" clip-path="url(#p3c7f6af8ba)" style="fill: #0080ff"/>
   </g>
   <g id="PathCollection_4">
    <path d="M 88.021654 41.472 
L 87.464655 42.272779 
L 87.343333 42.44628 
L 86.224603 44.024506 
L 85.668544 44.7984 
L 85.181953 45.465465 
L 84.841105 45.927755 
L 84.354327 46.594327 
L 83.942502 47.15052 
L 83.340895 47.952286 
L 83.211411 48.1248 
L 82.503854 49.054222 
L 82.469843 49.09908 
L 82.460072 49.111798 
L 82.449182 49.125771 
L 81.740923 50.04379 
L 80.642848 51.4512 
L 80.542372 51.578085 
L 80.271995 51.914571 
L 79.283289 53.152242 
L 78.757162 53.80332 
L 78.313332 54.344116 
L 77.960096 54.7776 
L 77.808355 54.961343 
L 77.735698 55.04786 
L 77.150403 55.75188 
L 76.638101 56.360312 
L 76.13152 56.9529 
L 75.774766 57.374844 
L 75.150786 58.104 
L 74.652355 58.678051 
L 73.557942 59.91915 
L 73.272037 60.245629 
L 73.085412 60.45612 
L 72.903512 60.658129 
L 72.212625 61.4304 
L 71.819443 61.862156 
L 71.324331 62.40468 
L 70.615836 63.171567 
L 69.993207 63.83478 
L 69.702737 64.14791 
L 69.13054 64.7568 
L 68.565902 65.349178 
L 67.536594 66.411493 
L 67.159283 66.804057 
L 66.862341 67.10892 
L 66.522553 67.452428 
L 65.902254 68.0832 
L 65.591143 68.394279 
L 64.925885 69.05748 
L 64.404845 69.570817 
L 63.99743 69.965433 
L 63.535424 70.418788 
L 62.511517 71.4096 
L 62.294553 71.616661 
L 61.961978 71.928582 
L 60.955279 72.881559 
L 60.27653 73.514953 
L 60.164994 73.620442 
L 60.012997 73.76172 
L 59.051699 74.645047 
L 58.951931 74.736 
L 58.016573 75.583046 
L 57.62857 75.924308 
L 57.62857 78.0624 
L 57.62857 81.3888 
L 57.62857 84.7152 
L 57.62857 88.0416 
L 57.62857 91.368 
L 57.62857 94.6944 
L 57.62857 98.0208 
L 57.62857 101.3472 
L 57.62857 104.6736 
L 57.62857 108 
L 57.62857 111.3264 
L 57.62857 114.6528 
L 57.62857 117.9792 
L 57.62857 121.3056 
L 57.62857 121.596437 
L 57.738483 121.545551 
L 58.234726 121.3056 
L 58.831472 121.015503 
L 60.220324 120.33132 
L 60.227968 120.32752 
L 60.230694 120.326125 
L 61.044244 119.920043 
L 61.392273 119.741897 
L 62.70552 119.083437 
L 63.601596 118.621253 
L 63.823997 118.509296 
L 64.850871 117.9792 
L 65.170611 117.812154 
L 65.373573 117.703163 
L 66.596318 117.059381 
L 66.985168 116.849604 
L 67.623127 116.513417 
L 69.259438 115.62708 
L 69.329567 115.588727 
L 71.025198 114.6528 
L 71.174258 114.569853 
L 71.220931 114.543342 
L 71.864912 114.179928 
L 72.754775 113.67852 
L 73.257402 113.3909 
L 73.512011 113.241823 
L 74.900966 112.443192 
L 75.802138 111.911289 
L 76.002174 111.795787 
L 76.796663 111.3264 
L 77.29913 111.025797 
L 77.682209 110.790707 
L 78.738064 110.153865 
L 79.241975 109.843098 
L 79.682865 109.576905 
L 80.655868 108.97428 
L 81.191246 108.639312 
L 81.450819 108.478026 
L 82.204785 108 
L 82.785028 107.63074 
L 82.981925 107.502881 
L 83.721938 107.02572 
L 84.405198 106.580583 
L 84.735378 106.360182 
L 85.304708 105.987642 
L 86.273817 105.340055 
L 86.743019 105.031455 
L 87.274034 104.6736 
L 88.00776 104.172647 
L 88.226821 104.020004 
L 89.064774 103.447255 
L 90.673242 102.32148 
L 90.690471 102.309292 
L 91.054719 102.053528 
L 92.040907 101.3472 
L 92.392652 101.092836 
L 93.381301 100.37292 
L 93.658055 100.169199 
L 93.812023 100.053264 
L 94.488394 99.553112 
L 95.299589 98.941586 
L 95.928847 98.473742 
L 96.524401 98.0208 
L 97.153123 97.536139 
L 97.369248 97.366387 
L 98.181772 96.739279 
L 99.538552 95.66868 
L 99.701996 95.538262 
L 99.999271 95.302944 
L 100.753151 94.6944 
L 101.155796 94.367783 
L 101.312064 94.238511 
L 101.943845 93.72012 
L 102.632036 93.149005 
L 103.072915 92.775287 
L 103.33993 92.549258 
L 103.33993 91.368 
L 103.33993 88.0416 
L 103.33993 84.7152 
L 103.33993 81.3888 
L 103.33993 78.0624 
L 103.33993 74.736 
L 103.33993 71.4096 
L 103.33993 68.0832 
L 103.33993 64.7568 
L 103.33993 61.4304 
L 103.33993 58.104 
L 103.33993 54.7776 
L 103.33993 51.4512 
L 103.33993 48.1248 
L 103.33993 44.7984 
L 103.33993 41.472 
L 101.816218 41.472 
L 100.292506 41.472 
L 98.768794 41.472 
L 97.245082 41.472 
L 95.72137 41.472 
L 94.197658 41.472 
L 92.673946 41.472 
L 91.150234 41.472 
L 89.626522 41.472 
L 88.10281 41.472 
" clip-path="url(#p3c7f6af8ba)" style="fill: #00e4f8"/>
   </g>
   <g id="PathCollection_5">
    <path d="M 103.33993 92.549258 
L 103.072915 92.775287 
L 102.632036 93.149005 
L 101.943845 93.72012 
L 101.312064 94.238511 
L 101.155796 94.367783 
L 100.753151 94.6944 
L 99.999271 95.302944 
L 99.701996 95.538262 
L 99.538552 95.66868 
L 98.181772 96.739279 
L 97.369248 97.366387 
L 97.153123 97.536139 
L 96.524401 98.0208 
L 95.928847 98.473742 
L 95.299589 98.941586 
L 94.488394 99.553112 
L 93.812023 100.053264 
L 93.658055 100.169199 
L 93.381301 100.37292 
L 92.392652 101.092836 
L 92.040907 101.3472 
L 91.054719 102.053528 
L 90.690471 102.309292 
L 90.673242 102.32148 
L 89.064774 103.447255 
L 88.226821 104.020004 
L 88.00776 104.172647 
L 87.274034 104.6736 
L 86.743019 105.031455 
L 86.273817 105.340055 
L 85.304708 105.987642 
L 84.735378 106.360182 
L 84.405198 106.580583 
L 83.721938 107.02572 
L 82.981925 107.502881 
L 82.785028 107.63074 
L 82.204785 108 
L 81.450819 108.478026 
L 81.191246 108.639312 
L 80.655868 108.97428 
L 79.682865 109.576905 
L 79.241975 109.843098 
L 78.738064 110.153865 
L 77.682209 110.790707 
L 77.29913 111.025797 
L 76.796663 111.3264 
L 76.002174 111.795787 
L 75.802138 111.911289 
L 74.900966 112.443192 
L 73.512011 113.241823 
L 73.257402 113.3909 
L 72.754775 113.67852 
L 71.864912 114.179928 
L 71.220931 114.543342 
L 71.174258 114.569853 
L 71.025198 114.6528 
L 69.329567 115.588727 
L 69.259438 115.62708 
L 67.623127 116.513417 
L 66.985168 116.849604 
L 66.596318 117.059381 
L 65.373573 117.703163 
L 65.170611 117.812154 
L 64.850871 117.9792 
L 63.823997 118.509296 
L 63.601596 118.621253 
L 62.70552 119.083437 
L 61.392273 119.741897 
L 61.044244 119.920043 
L 60.230694 120.326125 
L 60.227968 120.32752 
L 60.220324 120.33132 
L 58.831472 121.015503 
L 58.234726 121.3056 
L 57.738483 121.545551 
L 57.62857 121.596437 
L 57.62857 124.632 
L 57.62857 127.9584 
L 57.62857 131.2848 
L 57.62857 134.6112 
L 57.62857 137.9376 
L 57.62857 141.264 
L 57.62857 144.5904 
L 57.62857 147.9168 
L 57.62857 151.2432 
L 57.62857 154.5696 
L 57.62857 157.896 
L 57.62857 158.936254 
L 57.818214 158.895511 
L 58.80126 158.662312 
L 59.437325 158.518276 
L 60.611114 158.237944 
L 60.73551 158.209676 
L 62.048234 157.896 
L 62.184631 157.863091 
L 62.218747 157.854432 
L 63.649577 157.506828 
L 63.804761 157.467287 
L 64.925916 157.194761 
L 65.653585 157.008672 
L 66.560369 156.786718 
L 67.002869 156.673111 
L 67.660601 156.512024 
L 69.098194 156.141581 
L 69.468078 156.050353 
L 70.204607 155.859808 
L 70.38848 155.81443 
L 71.430375 155.54388 
L 72.197448 155.343173 
L 73.560591 154.979496 
L 74.091325 154.83914 
L 74.552874 154.717422 
L 75.102596 154.5696 
L 76.61162 154.161487 
L 76.897495 154.081902 
L 78.452375 153.651274 
L 78.654966 153.59532 
L 79.368864 153.395259 
L 79.518535 153.351443 
L 81.22941 152.869951 
L 81.727162 152.72314 
L 82.260186 152.572535 
L 83.026343 152.346383 
L 83.920746 152.09258 
L 84.952446 151.785738 
L 85.147767 151.730089 
L 86.546824 151.313656 
L 86.603891 151.297326 
L 86.784349 151.2432 
L 88.031088 150.865194 
L 88.183684 150.816956 
L 89.279019 150.484571 
L 90.092275 150.226419 
L 90.90987 149.976377 
L 91.421554 149.813218 
L 91.945461 149.652853 
L 93.652868 149.106125 
L 93.784471 149.065524 
L 94.326764 148.89108 
L 94.82331 148.728884 
L 96.143697 148.298696 
L 97.295966 147.9168 
L 98.370415 147.55656 
L 99.64944 147.120462 
L 100.172647 146.94252 
L 100.703965 146.758974 
L 100.846269 146.707886 
L 102.520027 146.126878 
L 103.087369 145.921507 
L 103.33993 145.830479 
L 103.33993 144.5904 
L 103.33993 141.264 
L 103.33993 137.9376 
L 103.33993 134.6112 
L 103.33993 131.2848 
L 103.33993 127.9584 
L 103.33993 124.632 
L 103.33993 121.3056 
L 103.33993 117.9792 
L 103.33993 114.6528 
L 103.33993 111.3264 
L 103.33993 108 
L 103.33993 104.6736 
L 103.33993 101.3472 
L 103.33993 98.0208 
L 103.33993 94.6944 
" clip-path="url(#p3c7f6af8ba)" style="fill: #53ffa4"/>
   </g>
   <g id="PathCollection_6">
    <path d="M 103.33993 145.830479 
L 103.087369 145.921507 
L 102.520027 146.126878 
L 100.846269 146.707886 
L 100.703965 146.758974 
L 100.172647 146.94252 
L 99.64944 147.120462 
L 98.370415 147.55656 
L 97.295966 147.9168 
L 96.143697 148.298696 
L 94.82331 148.728884 
L 94.326764 148.89108 
L 93.784471 149.065524 
L 93.652868 149.106125 
L 91.945461 149.652853 
L 91.421554 149.813218 
L 90.90987 149.976377 
L 90.092275 150.226419 
L 89.279019 150.484571 
L 88.183684 150.816956 
L 88.031088 150.865194 
L 86.784349 151.2432 
L 86.603891 151.297326 
L 86.546824 151.313656 
L 85.147767 151.730089 
L 84.952446 151.785738 
L 83.920746 152.09258 
L 83.026343 152.346383 
L 82.260186 152.572535 
L 81.727162 152.72314 
L 81.22941 152.869951 
L 79.518535 153.351443 
L 79.368864 153.395259 
L 78.654966 153.59532 
L 78.452375 153.651274 
L 76.897495 154.081902 
L 76.61162 154.161487 
L 75.102596 154.5696 
L 74.552874 154.717422 
L 74.091325 154.83914 
L 73.560591 154.979496 
L 72.197448 155.343173 
L 71.430375 155.54388 
L 70.38848 155.81443 
L 70.204607 155.859808 
L 69.468078 156.050353 
L 69.098194 156.141581 
L 67.660601 156.512024 
L 67.002869 156.673111 
L 66.560369 156.786718 
L 65.653585 157.008672 
L 64.925916 157.194761 
L 63.804761 157.467287 
L 63.649577 157.506828 
L 62.218747 157.854432 
L 62.184631 157.863091 
L 62.048234 157.896 
L 60.73551 158.209676 
L 60.611114 158.237944 
L 59.437325 158.518276 
L 58.80126 158.662312 
L 57.818214 158.895511 
L 57.62857 158.936254 
L 57.62857 161.2224 
L 57.62857 164.5488 
L 57.62857 167.8752 
L 57.62857 171.2016 
L 57.62857 174.528 
L 57.62857 177.8544 
L 57.62857 181.1808 
L 57.62857 184.5072 
L 57.62857 187.8336 
L 57.62857 191.16 
L 57.62857 191.425941 
L 57.678598 191.423673 
L 59.071899 191.335481 
L 59.228861 191.327179 
L 60.66155 191.236124 
L 60.69015 191.23461 
L 61.86596 191.16 
L 62.190213 191.139278 
L 62.209871 191.137808 
L 63.701049 191.042109 
L 63.746431 191.038711 
L 65.150364 190.948752 
L 65.350781 190.933719 
L 66.711297 190.846172 
L 66.832109 190.837093 
L 68.109061 190.755052 
L 68.493296 190.726128 
L 69.720915 190.646919 
L 69.918443 190.632022 
L 71.066258 190.558079 
L 71.637465 190.514925 
L 72.729884 190.444246 
L 73.005452 190.423389 
L 74.021908 190.357728 
L 74.783341 190.299994 
L 75.738184 190.238045 
L 76.093159 190.211078 
L 76.975962 190.153894 
L 77.930982 190.081213 
L 78.745793 190.0282 
L 79.181587 189.994971 
L 79.928368 189.946461 
L 81.080444 189.858455 
L 81.752688 189.814593 
L 82.270759 189.77494 
L 82.879073 189.735313 
L 84.231789 189.631586 
L 84.758845 189.597098 
L 85.3607 189.550856 
L 85.828018 189.520326 
L 87.38508 189.400468 
L 87.764239 189.375584 
L 88.451437 189.322579 
L 88.775145 189.30137 
L 90.540386 189.164952 
L 90.768845 189.149914 
L 91.542996 189.089966 
L 91.720393 189.078309 
L 93.697776 188.924887 
L 93.772636 188.919945 
L 94.635407 188.852865 
L 94.663695 188.851001 
L 95.217213 188.80788 
L 96.672623 188.693785 
L 97.353413 188.640742 
L 97.929499 188.592545 
L 99.473658 188.470984 
L 100.741983 188.364872 
L 101.275597 188.322465 
L 102.269906 188.243855 
L 103.187438 188.166502 
L 103.33993 188.152998 
L 103.33993 187.8336 
L 103.33993 184.5072 
L 103.33993 181.1808 
L 103.33993 177.8544 
L 103.33993 174.528 
L 103.33993 171.2016 
L 103.33993 167.8752 
L 103.33993 164.5488 
L 103.33993 161.2224 
L 103.33993 157.896 
L 103.33993 154.5696 
L 103.33993 151.2432 
L 103.33993 147.9168 
" clip-path="url(#p3c7f6af8ba)" style="fill: #a4ff53"/>
   </g>
   <g id="PathCollection_7">
    <path d="M 103.33993 188.152998 
L 103.187438 188.166502 
L 102.269906 188.243855 
L 101.275597 188.322465 
L 100.741983 188.364872 
L 99.473658 188.470984 
L 97.929499 188.592545 
L 97.353413 188.640742 
L 96.672623 188.693785 
L 95.217213 188.80788 
L 94.663695 188.851001 
L 94.635407 188.852865 
L 93.772636 188.919945 
L 93.697776 188.924887 
L 91.720393 189.078309 
L 91.542996 189.089966 
L 90.768845 189.149914 
L 90.540386 189.164952 
L 88.775145 189.30137 
L 88.451437 189.322579 
L 87.764239 189.375584 
L 87.38508 189.400468 
L 85.828018 189.520326 
L 85.3607 189.550856 
L 84.758845 189.597098 
L 84.231789 189.631586 
L 82.879073 189.735313 
L 82.270759 189.77494 
L 81.752688 189.814593 
L 81.080444 189.858455 
L 79.928368 189.946461 
L 79.181587 189.994971 
L 78.745793 190.0282 
L 77.930982 190.081213 
L 76.975962 190.153894 
L 76.093159 190.211078 
L 75.738184 190.238045 
L 74.783341 190.299994 
L 74.021908 190.357728 
L 73.005452 190.423389 
L 72.729884 190.444246 
L 71.637465 190.514925 
L 71.066258 190.558079 
L 69.918443 190.632022 
L 69.720915 190.646919 
L 68.493296 190.726128 
L 68.109061 190.755052 
L 66.832109 190.837093 
L 66.711297 190.846172 
L 65.350781 190.933719 
L 65.150364 190.948752 
L 63.746431 191.038711 
L 63.701049 191.042109 
L 62.209871 191.137808 
L 62.190213 191.139278 
L 61.86596 191.16 
L 60.69015 191.23461 
L 60.66155 191.236124 
L 59.228861 191.327179 
L 59.071899 191.335481 
L 57.678598 191.423673 
L 57.62857 191.425941 
L 57.62857 194.4864 
L 57.62857 197.8128 
L 57.62857 201.1392 
L 57.62857 204.4656 
L 57.62857 207.792 
L 57.62857 211.1184 
L 57.62857 214.4448 
L 57.62857 217.7712 
L 57.62857 221.082706 
L 57.635199 221.083127 
L 57.864776 221.0976 
L 59.068499 221.173362 
L 59.249489 221.185501 
L 61.706084 221.341725 
L 61.914103 221.355861 
L 62.531783 221.397886 
L 64.396629 221.518223 
L 64.754678 221.542907 
L 65.820972 221.616506 
L 66.37356 221.654687 
L 67.590073 221.734637 
L 69.117311 221.841591 
L 69.91148 221.897266 
L 70.42013 221.931195 
L 72.399889 222.07188 
L 72.418791 222.073219 
L 72.419672 222.07329 
L 73.29979 222.136096 
L 73.342994 222.139599 
L 75.369095 222.285242 
L 75.509493 222.296738 
L 76.305794 222.354402 
L 76.495978 222.370045 
L 78.316828 222.502876 
L 78.600499 222.526436 
L 79.310673 222.578629 
L 79.651992 222.607106 
L 81.261906 222.726305 
L 81.692733 222.762606 
L 82.314391 222.808979 
L 82.811147 222.851027 
L 84.20424 222.955727 
L 84.78624 223.005481 
L 85.316907 223.045666 
L 85.973562 223.102061 
L 87.143736 223.191345 
L 87.881065 223.255305 
L 88.318178 223.288911 
L 89.139358 223.360478 
L 90.080295 223.433372 
L 90.977257 223.512336 
L 91.318161 223.538949 
L 92.308665 223.626559 
L 93.013816 223.682032 
L 94.074868 223.776843 
L 94.316808 223.796024 
L 95.481618 223.900601 
L 95.944192 223.937558 
L 97.173951 224.049109 
L 97.314072 224.060392 
L 98.658361 224.182915 
L 98.871311 224.200196 
L 100.274562 224.329431 
L 100.3099 224.332322 
L 101.300583 224.424 
L 101.795363 224.469527 
L 101.839136 224.474033 
L 103.304584 224.610285 
L 103.33993 224.613729 
L 103.33993 224.424 
L 103.33993 221.0976 
L 103.33993 217.7712 
L 103.33993 214.4448 
L 103.33993 211.1184 
L 103.33993 207.792 
L 103.33993 204.4656 
L 103.33993 201.1392 
L 103.33993 197.8128 
L 103.33993 194.4864 
L 103.33993 191.16 
" clip-path="url(#p3c7f6af8ba)" style="fill: #f8f500"/>
   </g>
   <g id="PathCollection_8">
    <path d="M 103.33993 224.613729 
L 103.304584 224.610285 
L 101.839136 224.474033 
L 101.795363 224.469527 
L 101.300583 224.424 
L 100.3099 224.332322 
L 100.274562 224.329431 
L 98.871311 224.200196 
L 98.658361 224.182915 
L 97.314072 224.060392 
L 97.173951 224.049109 
L 95.944192 223.937558 
L 95.481618 223.900601 
L 94.316808 223.796024 
L 94.074868 223.776843 
L 93.013816 223.682032 
L 92.308665 223.626559 
L 91.318161 223.538949 
L 90.977257 223.512336 
L 90.080295 223.433372 
L 89.139358 223.360478 
L 88.318178 223.288911 
L 87.881065 223.255305 
L 87.143736 223.191345 
L 85.973562 223.102061 
L 85.316907 223.045666 
L 84.78624 223.005481 
L 84.20424 222.955727 
L 82.811147 222.851027 
L 82.314391 222.808979 
L 81.692733 222.762606 
L 81.261906 222.726305 
L 79.651992 222.607106 
L 79.310673 222.578629 
L 78.600499 222.526436 
L 78.316828 222.502876 
L 76.495978 222.370045 
L 76.305794 222.354402 
L 75.509493 222.296738 
L 75.369095 222.285242 
L 73.342994 222.139599 
L 73.29979 222.136096 
L 72.419672 222.07329 
L 72.418791 222.073219 
L 72.399889 222.07188 
L 70.42013 221.931195 
L 69.91148 221.897266 
L 69.117311 221.841591 
L 67.590073 221.734637 
L 66.37356 221.654687 
L 65.820972 221.616506 
L 64.754678 221.542907 
L 64.396629 221.518223 
L 62.531783 221.397886 
L 61.914103 221.355861 
L 61.706084 221.341725 
L 59.249489 221.185501 
L 59.068499 221.173362 
L 57.864776 221.0976 
L 57.635199 221.083127 
L 57.62857 221.082706 
L 57.62857 221.0976 
L 57.62857 224.424 
L 57.62857 227.7504 
L 57.62857 231.0768 
L 57.62857 234.4032 
L 57.62857 237.7296 
L 57.62857 241.056 
L 57.62857 244.3824 
L 57.62857 247.7088 
L 57.62857 249.403857 
L 57.929029 249.451644 
L 58.468173 249.541731 
L 59.742843 249.745952 
L 60.454087 249.865654 
L 60.884741 249.93501 
L 61.763727 250.083419 
L 62.575488 250.214833 
L 63.600852 250.389223 
L 63.838641 250.42792 
L 65.06479 250.637137 
L 65.404046 250.692638 
L 66.749733 250.923951 
L 66.790672 250.930684 
L 67.396717 251.0352 
L 68.228825 251.178692 
L 68.372142 251.204583 
L 69.741011 251.442366 
L 69.901035 251.47143 
L 71.050403 251.671734 
L 71.68678 251.787934 
L 72.689467 251.963971 
L 73.054632 252.031009 
L 73.867656 252.174218 
L 75.007524 252.384617 
L 75.63592 252.496135 
L 76.210542 252.602779 
L 76.680444 252.686449 
L 78.334606 252.995135 
L 78.580301 253.039215 
L 79.368849 253.18718 
L 79.488623 253.208742 
L 80.435037 253.38732 
L 81.367263 253.563122 
L 82.267968 253.736623 
L 82.993463 253.874915 
L 83.882432 254.044421 
L 84.092124 254.084424 
L 85.510781 254.3616 
L 86.389361 254.533172 
L 86.876193 254.630253 
L 87.2887 254.71254 
L 88.888941 255.028568 
L 90.412683 255.33588 
L 90.679333 255.389619 
L 90.715592 255.397245 
L 91.552685 255.566901 
L 91.718361 255.601874 
L 93.466332 255.958149 
L 93.886398 256.047524 
L 94.485611 256.170357 
L 95.084796 256.298302 
L 96.248084 256.538136 
L 97.060072 256.712918 
L 97.416084 256.786742 
L 98.459182 257.012089 
L 99.024404 257.12998 
L 100.236727 257.394024 
L 100.344013 257.416532 
L 101.58584 257.688 
L 101.795278 257.733712 
L 101.842027 257.744344 
L 103.269639 258.058464 
L 103.33993 258.074426 
L 103.33993 257.688 
L 103.33993 254.3616 
L 103.33993 251.0352 
L 103.33993 247.7088 
L 103.33993 244.3824 
L 103.33993 241.056 
L 103.33993 237.7296 
L 103.33993 234.4032 
L 103.33993 231.0768 
L 103.33993 227.7504 
" clip-path="url(#p3c7f6af8ba)" style="fill: #ff9400"/>
   </g>
   <g id="PathCollection_9">
    <path d="M 103.33993 258.074426 
L 103.269639 258.058464 
L 101.842027 257.744344 
L 101.795278 257.733712 
L 101.58584 257.688 
L 100.344013 257.416532 
L 100.236727 257.394024 
L 99.024404 257.12998 
L 98.459182 257.012089 
L 97.416084 256.786742 
L 97.060072 256.712918 
L 96.248084 256.538136 
L 95.084796 256.298302 
L 94.485611 256.170357 
L 93.886398 256.047524 
L 93.466332 255.958149 
L 91.718361 255.601874 
L 91.552685 255.566901 
L 90.715592 255.397245 
L 90.679333 255.389619 
L 90.412683 255.33588 
L 88.888941 255.028568 
L 87.2887 254.71254 
L 86.876193 254.630253 
L 86.389361 254.533172 
L 85.510781 254.3616 
L 84.092124 254.084424 
L 83.882432 254.044421 
L 82.993463 253.874915 
L 82.267968 253.736623 
L 81.367263 253.563122 
L 80.435037 253.38732 
L 79.488623 253.208742 
L 79.368849 253.18718 
L 78.580301 253.039215 
L 78.334606 252.995135 
L 76.680444 252.686449 
L 76.210542 252.602779 
L 75.63592 252.496135 
L 75.007524 252.384617 
L 73.867656 252.174218 
L 73.054632 252.031009 
L 72.689467 251.963971 
L 71.68678 251.787934 
L 71.050403 251.671734 
L 69.901035 251.47143 
L 69.741011 251.442366 
L 68.372142 251.204583 
L 68.228825 251.178692 
L 67.396717 251.0352 
L 66.790672 250.930684 
L 66.749733 250.923951 
L 65.404046 250.692638 
L 65.06479 250.637137 
L 63.838641 250.42792 
L 63.600852 250.389223 
L 62.575488 250.214833 
L 61.763727 250.083419 
L 60.884741 249.93501 
L 60.454087 249.865654 
L 59.742843 249.745952 
L 58.468173 249.541731 
L 57.929029 249.451644 
L 57.62857 249.403857 
L 57.62857 251.0352 
L 57.62857 254.3616 
L 57.62857 257.688 
L 57.62857 261.0144 
L 57.62857 264.3408 
L 57.62857 267.6672 
L 57.62857 270.9936 
L 57.62857 274.32 
L 57.62857 277.6464 
L 57.62857 277.901857 
L 57.679394 277.914265 
L 58.89254 278.21344 
L 59.479882 278.361582 
L 60.492637 278.61277 
L 60.877869 278.710371 
L 61.626965 278.896743 
L 62.923624 279.226779 
L 63.400899 279.346214 
L 64.078824 279.519551 
L 64.357103 279.589408 
L 65.949691 279.99852 
L 66.241366 280.073746 
L 66.739602 280.203785 
L 67.728474 280.460914 
L 68.607598 280.689725 
L 69.682193 280.9728 
L 70.764438 281.258427 
L 70.966445 281.312381 
L 72.033163 281.597815 
L 72.743192 281.786948 
L 73.317748 281.941859 
L 73.337077 281.94708 
L 75.231543 282.46073 
L 75.582742 282.557993 
L 76.211012 282.72914 
L 76.791534 282.890469 
L 77.938351 283.204325 
L 78.798431 283.444827 
L 79.106567 283.52956 
L 80.282904 283.859644 
L 80.640358 283.958402 
L 81.847264 284.2992 
L 81.999749 284.342482 
L 82.017128 284.34751 
L 83.337308 284.723518 
L 83.785767 284.853909 
L 84.890091 285.170378 
L 85.240083 285.272637 
L 86.029246 285.499576 
L 87.299864 285.872698 
L 87.778006 286.01106 
L 88.466145 286.214137 
L 88.716104 286.286724 
L 89.945243 286.65132 
L 90.516106 286.82118 
L 91.873918 287.229939 
L 92.416539 287.392836 
L 92.802933 287.508961 
L 93.18647 287.6256 
L 94.755443 288.103308 
L 95.08191 288.203841 
L 96.36496 288.59988 
L 96.744911 288.717517 
L 96.825973 288.74311 
L 97.617457 288.989418 
L 97.912657 289.082978 
L 99.41036 289.551402 
L 100.066478 289.760732 
L 100.493085 289.894855 
L 101.476209 290.209732 
L 102.07024 290.397445 
L 103.310596 290.7974 
L 103.33993 290.806832 
L 103.33993 287.6256 
L 103.33993 284.2992 
L 103.33993 280.9728 
L 103.33993 277.6464 
L 103.33993 274.32 
L 103.33993 270.9936 
L 103.33993 267.6672 
L 103.33993 264.3408 
L 103.33993 261.0144 
" clip-path="url(#p3c7f6af8ba)" style="fill: #ff3800"/>
   </g>
   <g id="PathCollection_10">
    <path d="M 103.33993 290.806832 
L 103.310596 290.7974 
L 102.07024 290.397445 
L 101.476209 290.209732 
L 100.493085 289.894855 
L 100.066478 289.760732 
L 99.41036 289.551402 
L 97.912657 289.082978 
L 97.617457 288.989418 
L 96.825973 288.74311 
L 96.744911 288.717517 
L 96.36496 288.59988 
L 95.08191 288.203841 
L 94.755443 288.103308 
L 93.18647 287.6256 
L 92.802933 287.508961 
L 92.416539 287.392836 
L 91.873918 287.229939 
L 90.516106 286.82118 
L 89.945243 286.65132 
L 88.716104 286.286724 
L 88.466145 286.214137 
L 87.778006 286.01106 
L 87.299864 285.872698 
L 86.029246 285.499576 
L 85.240083 285.272637 
L 84.890091 285.170378 
L 83.785767 284.853909 
L 83.337308 284.723518 
L 82.017128 284.34751 
L 81.999749 284.342482 
L 81.847264 284.2992 
L 80.640358 283.958402 
L 80.282904 283.859644 
L 79.106567 283.52956 
L 78.798431 283.444827 
L 77.938351 283.204325 
L 76.791534 282.890469 
L 76.211012 282.72914 
L 75.582742 282.557993 
L 75.231543 282.46073 
L 73.337077 281.94708 
L 73.317748 281.941859 
L 72.743192 281.786948 
L 72.033163 281.597815 
L 70.966445 281.312381 
L 70.764438 281.258427 
L 69.682193 280.9728 
L 68.607598 280.689725 
L 67.728474 280.460914 
L 66.739602 280.203785 
L 66.241366 280.073746 
L 65.949691 279.99852 
L 64.357103 279.589408 
L 64.078824 279.519551 
L 63.400899 279.346214 
L 62.923624 279.226779 
L 61.626965 278.896743 
L 60.877869 278.710371 
L 60.492637 278.61277 
L 59.479882 278.361582 
L 58.89254 278.21344 
L 57.679394 277.914265 
L 57.62857 277.901857 
L 57.62857 280.9728 
L 57.62857 284.2992 
L 57.62857 287.6256 
L 57.62857 290.952 
L 57.62857 294.2784 
L 57.62857 297.6048 
L 57.62857 300.9312 
L 57.62857 304.2576 
L 57.62857 307.584 
L 59.152282 307.584 
L 60.675994 307.584 
L 62.199706 307.584 
L 63.723418 307.584 
L 65.24713 307.584 
L 66.770842 307.584 
L 68.294554 307.584 
L 69.818266 307.584 
L 71.341978 307.584 
L 72.86569 307.584 
L 74.389402 307.584 
L 75.913114 307.584 
L 77.436826 307.584 
L 78.960538 307.584 
L 80.48425 307.584 
L 82.007962 307.584 
L 83.531674 307.584 
L 85.055386 307.584 
L 86.579098 307.584 
L 88.10281 307.584 
L 89.626522 307.584 
L 91.150234 307.584 
L 92.673946 307.584 
L 94.197658 307.584 
L 95.72137 307.584 
L 97.245082 307.584 
L 98.768794 307.584 
L 100.292506 307.584 
L 101.816218 307.584 
L 103.33993 307.584 
L 103.33993 304.2576 
L 103.33993 300.9312 
L 103.33993 297.6048 
L 103.33993 294.2784 
L 103.33993 290.952 
" clip-path="url(#p3c7f6af8ba)" style="fill: #b60000"/>
   </g>
   <g id="PathCollection_11">
    <path clip-path="url(#p3c7f6af8ba)" style="fill: #0000b6"/>
   </g>
   <g id="PathCollection_12">
    <path clip-path="url(#p3c7f6af8ba)" style="fill: #0018ff"/>
   </g>
   <g id="PathCollection_13">
    <path clip-path="url(#p3c7f6af8ba)" style="fill: #0080ff"/>
   </g>
   <g id="PathCollection_14">
    <path d="M 100.4544 94.927911 
L 100.580744 94.832851 
L 100.753447 94.6944 
L 103.524005 92.413471 
L 103.900558 92.09632 
L 109.645086 87.024987 
L 110.925943 85.824 
L 115.100163 81.740116 
L 117.247662 79.55168 
L 118.150151 78.589168 
L 119.765429 76.9536 
L 121.181201 75.338894 
L 122.067798 74.35552 
L 126.121012 69.598126 
L 127.348132 68.0832 
L 131.032185 63.3183 
L 132.160771 61.81088 
L 132.530851 61.297386 
L 134.124638 59.2128 
L 135.110774 57.768678 
L 135.691474 56.835911 
L 135.844823 56.61472 
L 137.40872 54.198917 
L 139.9475 50.3424 
L 140.346539 49.70522 
L 143.743176 44.07008 
L 144.33132 43.016786 
L 145.200926 41.472 
L 140.928 41.472 
L 132.83328 41.472 
L 124.73856 41.472 
L 116.64384 41.472 
L 108.54912 41.472 
L 100.4544 41.472 
L 100.4544 50.3424 
L 100.4544 59.2128 
L 100.4544 68.0832 
L 100.4544 76.9536 
L 100.4544 85.824 
L 100.4544 94.6944 
" clip-path="url(#p3c7f6af8ba)" style="fill: #00e4f8"/>
   </g>
   <g id="PathCollection_15">
    <path d="M 145.200926 41.472 
L 144.33132 43.016786 
L 143.743176 44.07008 
L 140.346539 49.70522 
L 139.9475 50.3424 
L 137.40872 54.198917 
L 135.844823 56.61472 
L 135.691474 56.835911 
L 135.110774 57.768678 
L 134.124638 59.2128 
L 132.530851 61.297386 
L 132.160771 61.81088 
L 131.032185 63.3183 
L 127.348132 68.0832 
L 126.121012 69.598126 
L 122.067798 74.35552 
L 121.181201 75.338894 
L 119.765429 76.9536 
L 118.150151 78.589168 
L 117.247662 79.55168 
L 115.100163 81.740116 
L 110.925943 85.824 
L 109.645086 87.024987 
L 103.900558 92.09632 
L 103.524005 92.413471 
L 100.753447 94.6944 
L 100.580744 94.832851 
L 100.4544 94.927911 
L 100.4544 103.5648 
L 100.4544 112.4352 
L 100.4544 121.3056 
L 100.4544 130.176 
L 100.4544 139.0464 
L 100.4544 146.825332 
L 101.900483 146.332146 
L 103.704871 145.717968 
L 104.813359 145.31872 
L 111.878773 142.695119 
L 115.896963 141.022306 
L 117.202922 140.525483 
L 120.732458 139.0464 
L 123.60239 137.801356 
L 127.657329 135.847939 
L 131.041125 134.305152 
L 134.119461 132.77408 
L 134.49106 132.597051 
L 139.096003 130.176 
L 139.922642 129.719662 
L 143.72968 127.57792 
L 145.63489 126.463529 
L 147.53307 125.246554 
L 149.959958 123.785116 
L 153.789634 121.3056 
L 155.850285 119.917019 
L 162.503454 115.03328 
L 162.628915 114.93689 
L 163.79775 114.093582 
L 165.876613 112.4352 
L 167.59353 111.016865 
L 168.448982 110.230172 
L 168.907985 109.83712 
L 174.464793 104.83367 
L 175.76913 103.5648 
L 179.836699 99.424766 
L 181.825867 97.29248 
L 182.608689 96.404249 
L 184.219072 94.6944 
L 185.14392 93.61392 
L 185.652473 92.949656 
L 186.370346 92.09632 
L 190.478186 86.899954 
L 191.274908 85.824 
L 195.385288 79.988558 
L 195.680667 79.55168 
L 195.768376 79.415584 
L 197.483364 76.9536 
L 198.836742 74.634847 
L 199.014044 74.35552 
L 199.597702 73.391938 
L 202.703482 68.0832 
L 203.830462 66.050117 
L 206.065307 61.81088 
L 207.02539 59.820866 
L 207.15998 59.578774 
L 207.342454 59.2128 
L 207.531844 58.754511 
L 207.750599 58.275558 
L 208.586892 56.61472 
L 209.532416 54.557664 
L 211.386228 50.3424 
L 212.638214 47.320471 
L 213.95276 44.07008 
L 214.607669 42.378455 
L 214.96274 41.472 
L 213.78048 41.472 
L 205.68576 41.472 
L 197.59104 41.472 
L 189.49632 41.472 
L 181.4016 41.472 
L 173.30688 41.472 
L 165.21216 41.472 
L 157.11744 41.472 
L 149.02272 41.472 
" clip-path="url(#p3c7f6af8ba)" style="fill: #53ffa4"/>
   </g>
   <g id="PathCollection_16">
    <path d="M 214.96274 41.472 
L 214.607669 42.378455 
L 213.95276 44.07008 
L 212.638214 47.320471 
L 211.386228 50.3424 
L 209.532416 54.557664 
L 208.586892 56.61472 
L 207.750599 58.275558 
L 207.531844 58.754511 
L 207.342454 59.2128 
L 207.15998 59.578774 
L 207.02539 59.820866 
L 206.065307 61.81088 
L 203.830462 66.050117 
L 202.703482 68.0832 
L 199.597702 73.391938 
L 199.014044 74.35552 
L 198.836742 74.634847 
L 197.483364 76.9536 
L 195.768376 79.415584 
L 195.680667 79.55168 
L 195.385288 79.988558 
L 191.274908 85.824 
L 190.478186 86.899954 
L 186.370346 92.09632 
L 185.652473 92.949656 
L 185.14392 93.61392 
L 184.219072 94.6944 
L 182.608689 96.404249 
L 181.825867 97.29248 
L 179.836699 99.424766 
L 175.76913 103.5648 
L 174.464793 104.83367 
L 168.907985 109.83712 
L 168.448982 110.230172 
L 167.59353 111.016865 
L 165.876613 112.4352 
L 163.79775 114.093582 
L 162.628915 114.93689 
L 162.503454 115.03328 
L 155.850285 119.917019 
L 153.789634 121.3056 
L 149.959958 123.785116 
L 147.53307 125.246554 
L 145.63489 126.463529 
L 143.72968 127.57792 
L 139.922642 129.719662 
L 139.096003 130.176 
L 134.49106 132.597051 
L 134.119461 132.77408 
L 131.041125 134.305152 
L 127.657329 135.847939 
L 123.60239 137.801356 
L 120.732458 139.0464 
L 117.202922 140.525483 
L 115.896963 141.022306 
L 111.878773 142.695119 
L 104.813359 145.31872 
L 103.704871 145.717968 
L 101.900483 146.332146 
L 100.4544 146.825332 
L 100.4544 147.9168 
L 100.4544 156.7872 
L 100.4544 165.6576 
L 100.4544 174.528 
L 100.4544 183.3984 
L 100.4544 188.354696 
L 101.980166 188.232299 
L 104.714403 188.06662 
L 113.10579 187.275485 
L 114.718548 187.175331 
L 118.713692 186.792889 
L 119.686944 186.733111 
L 127.271146 185.99648 
L 129.889791 185.736573 
L 132.878661 185.396643 
L 137.625349 184.897492 
L 143.011682 184.344195 
L 144.246095 184.222115 
L 151.012155 183.3984 
L 155.118598 182.902189 
L 155.803306 182.801907 
L 159.617808 182.263469 
L 165.65964 181.499978 
L 168.244873 181.100726 
L 170.266764 180.80032 
L 177.958851 179.625748 
L 179.600119 179.293921 
L 183.001272 178.760022 
L 186.235828 178.100931 
L 191.916489 177.180083 
L 197.004925 176.078599 
L 198.107428 175.894133 
L 204.354318 174.528 
L 205.457401 174.277758 
L 206.076461 174.09986 
L 212.983685 172.420033 
L 214.78181 171.878926 
L 218.598833 170.937674 
L 227.1164 168.25568 
L 227.397109 168.164026 
L 229.425943 167.532067 
L 234.469394 165.6576 
L 236.405476 164.904496 
L 240.791402 163.05952 
L 242.932486 162.121509 
L 244.446591 161.318427 
L 247.359382 159.961927 
L 253.175457 156.7872 
L 253.884675 156.382397 
L 255.828416 155.062003 
L 260.549164 152.026161 
L 262.59161 150.51488 
L 263.704106 149.589855 
L 265.930648 147.9168 
L 266.987448 147.058833 
L 267.478787 146.571091 
L 268.85026 145.31872 
L 272.735531 141.558044 
L 274.944164 139.0464 
L 277.418036 136.082837 
L 279.905955 132.77408 
L 280.084042 132.569253 
L 281.794095 130.176 
L 282.494022 129.148512 
L 282.863015 128.4648 
L 283.409312 127.57792 
L 286.838579 121.530922 
L 286.948742 121.3056 
L 287.269753 120.607786 
L 290.017034 115.03328 
L 290.41168 114.150383 
L 291.198241 112.4352 
L 291.603831 111.201185 
L 292.120685 109.94429 
L 292.170089 109.83712 
L 292.228588 109.696632 
L 294.484652 103.5648 
L 294.600471 103.228262 
L 296.50653 97.29248 
L 296.833038 96.181255 
L 297.370182 94.6944 
L 297.71645 93.426852 
L 297.908009 92.46373 
L 298.007016 92.09632 
L 298.312118 90.766482 
L 299.624268 85.824 
L 300.303066 83.06325 
L 301.078558 79.55168 
L 301.435639 77.583059 
L 301.604439 76.9536 
L 301.663607 76.66593 
L 301.696562 76.442576 
L 302.151929 74.35552 
L 303.200828 68.497891 
L 303.267666 68.0832 
L 303.352416 67.502395 
L 304.37234 61.81088 
L 304.622325 60.029796 
L 304.697144 59.678204 
L 304.773562 59.2128 
L 304.810461 58.719265 
L 304.861423 58.287276 
L 305.16397 56.61472 
L 305.620091 53.408181 
L 306.023121 50.3424 
L 306.495585 46.31723 
L 306.828301 44.07008 
L 306.909652 43.327227 
L 307.139128 41.472 
L 302.8224 41.472 
L 294.72768 41.472 
L 286.63296 41.472 
L 278.53824 41.472 
L 270.44352 41.472 
L 262.3488 41.472 
L 254.25408 41.472 
L 246.15936 41.472 
L 238.06464 41.472 
L 229.96992 41.472 
L 221.8752 41.472 
" clip-path="url(#p3c7f6af8ba)" style="fill: #a4ff53"/>
   </g>
   <g id="PathCollection_17">
    <path d="M 307.139128 41.472 
L 306.909652 43.327227 
L 306.828301 44.07008 
L 306.495585 46.31723 
L 306.023121 50.3424 
L 305.620091 53.408181 
L 305.16397 56.61472 
L 304.861423 58.287276 
L 304.810461 58.719265 
L 304.773562 59.2128 
L 304.697144 59.678204 
L 304.622325 60.029796 
L 304.37234 61.81088 
L 303.352416 67.502395 
L 303.267666 68.0832 
L 303.200828 68.497891 
L 302.151929 74.35552 
L 301.696562 76.442576 
L 301.663607 76.66593 
L 301.604439 76.9536 
L 301.435639 77.583059 
L 301.078558 79.55168 
L 300.303066 83.06325 
L 299.624268 85.824 
L 298.312118 90.766482 
L 298.007016 92.09632 
L 297.908009 92.46373 
L 297.71645 93.426852 
L 297.370182 94.6944 
L 296.833038 96.181255 
L 296.50653 97.29248 
L 294.600471 103.228262 
L 294.484652 103.5648 
L 292.228588 109.696632 
L 292.170089 109.83712 
L 292.120685 109.94429 
L 291.603831 111.201185 
L 291.198241 112.4352 
L 290.41168 114.150383 
L 290.017034 115.03328 
L 287.269753 120.607786 
L 286.948742 121.3056 
L 286.838579 121.530922 
L 283.409312 127.57792 
L 282.863015 128.4648 
L 282.494022 129.148512 
L 281.794095 130.176 
L 280.084042 132.569253 
L 279.905955 132.77408 
L 277.418036 136.082837 
L 274.944164 139.0464 
L 272.735531 141.558044 
L 268.85026 145.31872 
L 267.478787 146.571091 
L 266.987448 147.058833 
L 265.930648 147.9168 
L 263.704106 149.589855 
L 262.59161 150.51488 
L 260.549164 152.026161 
L 255.828416 155.062003 
L 253.884675 156.382397 
L 253.175457 156.7872 
L 247.359382 159.961927 
L 244.446591 161.318427 
L 242.932486 162.121509 
L 240.791402 163.05952 
L 236.405476 164.904496 
L 234.469394 165.6576 
L 229.425943 167.532067 
L 227.397109 168.164026 
L 227.1164 168.25568 
L 218.598833 170.937674 
L 214.78181 171.878926 
L 212.983685 172.420033 
L 206.076461 174.09986 
L 205.457401 174.277758 
L 204.354318 174.528 
L 198.107428 175.894133 
L 197.004925 176.078599 
L 191.916489 177.180083 
L 186.235828 178.100931 
L 183.001272 178.760022 
L 179.600119 179.293921 
L 177.958851 179.625748 
L 170.266764 180.80032 
L 168.244873 181.100726 
L 165.65964 181.499978 
L 159.617808 182.263469 
L 155.803306 182.801907 
L 155.118598 182.902189 
L 151.012155 183.3984 
L 144.246095 184.222115 
L 143.011682 184.344195 
L 137.625349 184.897492 
L 132.878661 185.396643 
L 129.889791 185.736573 
L 127.271146 185.99648 
L 119.686944 186.733111 
L 118.713692 186.792889 
L 114.718548 187.175331 
L 113.10579 187.275485 
L 104.714403 188.06662 
L 101.980166 188.232299 
L 100.4544 188.354696 
L 100.4544 192.2688 
L 100.4544 201.1392 
L 100.4544 210.0096 
L 100.4544 218.88 
L 100.4544 224.323224 
L 101.708235 224.43331 
L 105.939595 224.890816 
L 110.793824 225.290597 
L 115.936223 225.87836 
L 117.306877 225.996298 
L 123.836465 226.761862 
L 125.503752 226.911883 
L 132.245422 227.7504 
L 132.807352 227.818995 
L 132.862426 227.827508 
L 140.037106 228.726664 
L 142.126379 229.063615 
L 148.219401 229.875626 
L 149.935336 230.164777 
L 154.360658 230.771351 
L 160.932024 231.930518 
L 163.490465 232.305242 
L 167.192704 232.990041 
L 168.364053 233.166876 
L 172.766813 234.02272 
L 177.175182 234.864956 
L 178.984192 235.211411 
L 185.371583 236.6208 
L 188.157283 237.228597 
L 193.939276 238.637483 
L 195.79761 239.075526 
L 196.323774 239.21888 
L 199.644723 240.058065 
L 201.135979 240.505434 
L 208.449405 242.462727 
L 213.224201 244.019534 
L 214.228737 244.305311 
L 217.732107 245.4912 
L 220.918788 246.539261 
L 223.905512 247.716068 
L 228.502142 249.37429 
L 231.994628 250.84768 
L 232.874506 251.178681 
L 234.162082 251.76352 
L 239.029704 253.923552 
L 239.914291 254.3616 
L 241.666181 255.25568 
L 245.176315 256.95968 
L 247.985629 258.400501 
L 252.000155 260.762092 
L 254.98726 262.428563 
L 256.192462 263.232 
L 261.143721 266.420104 
L 264.481827 268.875044 
L 264.982285 269.21656 
L 265.33485 269.50432 
L 266.15844 270.157378 
L 268.676587 272.1024 
L 269.340706 272.602973 
L 271.801712 274.70048 
L 274.289089 276.758728 
L 278.514606 280.910274 
L 278.549598 280.942753 
L 278.577987 280.9728 
L 282.752635 285.224958 
L 284.403746 287.24512 
L 286.590027 289.823712 
L 286.607233 289.8432 
L 286.614815 289.851436 
L 288.6633 292.44128 
L 290.413651 294.570623 
L 293.240951 298.7136 
L 294.211858 300.078236 
L 296.81394 304.23292 
L 297.216181 304.857037 
L 297.283241 304.98592 
L 297.344507 305.097553 
L 298.80901 307.584 
L 302.8224 307.584 
L 310.91712 307.584 
L 319.01184 307.584 
L 327.10656 307.584 
L 335.20128 307.584 
L 343.296 307.584 
L 343.296 298.7136 
L 343.296 289.8432 
L 343.296 280.9728 
L 343.296 272.1024 
L 343.296 263.232 
L 343.296 254.3616 
L 343.296 245.4912 
L 343.296 236.6208 
L 343.296 227.7504 
L 343.296 218.88 
L 343.296 210.0096 
L 343.296 201.1392 
L 343.296 192.2688 
L 343.296 183.3984 
L 343.296 174.528 
L 343.296 165.6576 
L 343.296 156.7872 
L 343.296 147.9168 
L 343.296 139.0464 
L 343.296 130.176 
L 343.296 121.3056 
L 343.296 112.4352 
L 343.296 103.5648 
L 343.296 94.6944 
L 343.296 85.824 
L 343.296 76.9536 
L 343.296 68.0832 
L 343.296 59.2128 
L 343.296 50.3424 
L 343.296 41.472 
L 335.20128 41.472 
L 327.10656 41.472 
L 319.01184 41.472 
L 310.91712 41.472 
" clip-path="url(#p3c7f6af8ba)" style="fill: #f8f500"/>
   </g>
   <g id="PathCollection_18">
    <path d="M 298.80901 307.584 
L 297.344507 305.097553 
L 297.283241 304.98592 
L 297.216181 304.857037 
L 296.81394 304.23292 
L 294.211858 300.078236 
L 293.240951 298.7136 
L 290.413651 294.570623 
L 288.6633 292.44128 
L 286.614815 289.851436 
L 286.607233 289.8432 
L 286.590027 289.823712 
L 284.403746 287.24512 
L 282.752635 285.224958 
L 278.577987 280.9728 
L 278.549598 280.942753 
L 278.514606 280.910274 
L 274.289089 276.758728 
L 271.801712 274.70048 
L 269.340706 272.602973 
L 268.676587 272.1024 
L 266.15844 270.157378 
L 265.33485 269.50432 
L 264.982285 269.21656 
L 264.481827 268.875044 
L 261.143721 266.420104 
L 256.192462 263.232 
L 254.98726 262.428563 
L 252.000155 260.762092 
L 247.985629 258.400501 
L 245.176315 256.95968 
L 241.666181 255.25568 
L 239.914291 254.3616 
L 239.029704 253.923552 
L 234.162082 251.76352 
L 232.874506 251.178681 
L 231.994628 250.84768 
L 228.502142 249.37429 
L 223.905512 247.716068 
L 220.918788 246.539261 
L 217.732107 245.4912 
L 214.228737 244.305311 
L 213.224201 244.019534 
L 208.449405 242.462727 
L 201.135979 240.505434 
L 199.644723 240.058065 
L 196.323774 239.21888 
L 195.79761 239.075526 
L 193.939276 238.637483 
L 188.157283 237.228597 
L 185.371583 236.6208 
L 178.984192 235.211411 
L 177.175182 234.864956 
L 172.766813 234.02272 
L 168.364053 233.166876 
L 167.192704 232.990041 
L 163.490465 232.305242 
L 160.932024 231.930518 
L 154.360658 230.771351 
L 149.935336 230.164777 
L 148.219401 229.875626 
L 142.126379 229.063615 
L 140.037106 228.726664 
L 132.862426 227.827508 
L 132.807352 227.818995 
L 132.245422 227.7504 
L 125.503752 226.911883 
L 123.836465 226.761862 
L 117.306877 225.996298 
L 115.936223 225.87836 
L 110.793824 225.290597 
L 105.939595 224.890816 
L 101.708235 224.43331 
L 100.4544 224.323224 
L 100.4544 227.7504 
L 100.4544 236.6208 
L 100.4544 245.4912 
L 100.4544 254.3616 
L 100.4544 257.435686 
L 102.478797 257.876342 
L 103.992407 258.238638 
L 111.57028 259.921336 
L 115.791828 260.977954 
L 117.359899 261.337625 
L 124.729159 263.221698 
L 124.744616 263.225364 
L 124.769348 263.232 
L 132.096452 265.181319 
L 133.753908 265.667575 
L 137.721008 266.746304 
L 146.602801 269.450591 
L 146.665378 269.468482 
L 146.77869 269.50432 
L 148.851676 270.135353 
L 154.83741 272.1024 
L 156.164818 272.534801 
L 162.392897 274.70048 
L 162.734015 274.818014 
L 162.911215 274.885519 
L 166.963638 276.339165 
L 170.254496 277.62792 
L 174.806378 279.329612 
L 178.757997 280.9728 
L 181.046963 281.911012 
L 181.899882 282.291034 
L 186.515801 284.238929 
L 192.941555 287.24512 
L 194.072007 287.766269 
L 198.25658 289.8432 
L 201.795547 291.60899 
L 203.339251 292.44128 
L 208.779593 295.323299 
L 213.557685 298.124183 
L 213.925389 298.330236 
L 214.554337 298.7136 
L 219.292312 301.543994 
L 224.49125 304.98592 
L 225.772348 305.815062 
L 228.308025 307.584 
L 229.96992 307.584 
L 238.06464 307.584 
L 246.15936 307.584 
L 254.25408 307.584 
L 262.3488 307.584 
L 270.44352 307.584 
L 278.53824 307.584 
L 286.63296 307.584 
L 294.72768 307.584 
" clip-path="url(#p3c7f6af8ba)" style="fill: #ff9400"/>
   </g>
   <g id="PathCollection_19">
    <path d="M 228.308025 307.584 
L 225.772348 305.815062 
L 224.49125 304.98592 
L 219.292312 301.543994 
L 214.554337 298.7136 
L 213.925389 298.330236 
L 213.557685 298.124183 
L 208.779593 295.323299 
L 203.339251 292.44128 
L 201.795547 291.60899 
L 198.25658 289.8432 
L 194.072007 287.766269 
L 192.941555 287.24512 
L 186.515801 284.238929 
L 181.899882 282.291034 
L 181.046963 281.911012 
L 178.757997 280.9728 
L 174.806378 279.329612 
L 170.254496 277.62792 
L 166.963638 276.339165 
L 162.911215 274.885519 
L 162.734015 274.818014 
L 162.392897 274.70048 
L 156.164818 272.534801 
L 154.83741 272.1024 
L 148.851676 270.135353 
L 146.77869 269.50432 
L 146.665378 269.468482 
L 146.602801 269.450591 
L 137.721008 266.746304 
L 133.753908 265.667575 
L 132.096452 265.181319 
L 124.769348 263.232 
L 124.744616 263.225364 
L 124.729159 263.221698 
L 117.359899 261.337625 
L 115.791828 260.977954 
L 111.57028 259.921336 
L 103.992407 258.238638 
L 102.478797 257.876342 
L 100.4544 257.435686 
L 100.4544 263.232 
L 100.4544 272.1024 
L 100.4544 280.9728 
L 100.4544 289.8432 
L 100.4544 289.882244 
L 100.504659 289.898275 
L 105.145085 291.388311 
L 108.296309 292.44128 
L 112.871898 293.97659 
L 115.161243 294.791306 
L 117.783997 295.697251 
L 124.077721 297.989436 
L 125.075723 298.344129 
L 126.049941 298.7136 
L 131.978432 300.975148 
L 133.993533 301.783116 
L 137.041071 302.972996 
L 141.885515 304.98592 
L 144.37637 306.018765 
L 147.99457 307.584 
L 149.02272 307.584 
L 157.11744 307.584 
L 165.21216 307.584 
L 173.30688 307.584 
L 181.4016 307.584 
L 189.49632 307.584 
L 197.59104 307.584 
L 205.68576 307.584 
L 213.78048 307.584 
L 221.8752 307.584 
" clip-path="url(#p3c7f6af8ba)" style="fill: #ff3800"/>
   </g>
   <g id="PathCollection_20">
    <path d="M 147.99457 307.584 
L 144.37637 306.018765 
L 141.885515 304.98592 
L 137.041071 302.972996 
L 133.993533 301.783116 
L 131.978432 300.975148 
L 126.049941 298.7136 
L 125.075723 298.344129 
L 124.077721 297.989436 
L 117.783997 295.697251 
L 115.161243 294.791306 
L 112.871898 293.97659 
L 108.296309 292.44128 
L 105.145085 291.388311 
L 100.504659 289.898275 
L 100.4544 289.882244 
L 100.4544 298.7136 
L 100.4544 307.584 
L 108.54912 307.584 
L 116.64384 307.584 
L 124.73856 307.584 
L 132.83328 307.584 
L 140.928 307.584 
" clip-path="url(#p3c7f6af8ba)" style="fill: #b60000"/>
   </g>
   <g id="matplotlib.axis_1">
    <g id="xtick_1">
     <g id="line2d_1">
      <defs>
       <path id="mf66f17a030" d="M 0 0 
L 0 3.5 
" style="stroke: #000000; stroke-width: 0.8"/>
      </defs>
      <g>
       <use xlink:href="#mf66f17a030" x="57.6" y="307.584" style="stroke: #000000; stroke-width: 0.8"/>
      </g>
     </g>
     <g id="text_1">
      <!-- 0.0 -->
      <g transform="translate(51.26875 321.385562) scale(0.1 -0.1)">
       <defs>
        <path id="Calibri-30" d="M 3022 2031 
Q 3022 1566 2948 1181 
Q 2875 797 2704 520 
Q 2534 244 2259 92 
Q 1984 -59 1581 -59 
Q 1200 -59 939 77 
Q 678 213 518 477 
Q 359 741 292 1127 
Q 225 1513 225 2013 
Q 225 2475 300 2861 
Q 375 3247 544 3523 
Q 713 3800 988 3951 
Q 1263 4103 1663 4103 
Q 2047 4103 2308 3967 
Q 2569 3831 2728 3567 
Q 2888 3303 2955 2917 
Q 3022 2531 3022 2031 
z
M 2472 1994 
Q 2472 2297 2450 2537 
Q 2428 2778 2386 2962 
Q 2344 3147 2276 3280 
Q 2209 3413 2115 3498 
Q 2022 3584 1901 3623 
Q 1781 3663 1631 3663 
Q 1366 3663 1200 3538 
Q 1034 3413 939 3194 
Q 844 2975 809 2681 
Q 775 2388 775 2050 
Q 775 1597 822 1280 
Q 869 963 970 763 
Q 1072 563 1230 472 
Q 1388 381 1613 381 
Q 1788 381 1920 437 
Q 2053 494 2148 598 
Q 2244 703 2306 850 
Q 2369 997 2406 1175 
Q 2444 1353 2458 1561 
Q 2472 1769 2472 1994 
z
" transform="scale(0.015625)"/>
        <path id="Calibri-2e" d="M 1144 341 
Q 1144 119 1070 45 
Q 997 -28 803 -28 
Q 616 -28 544 44 
Q 472 116 472 331 
Q 472 553 545 626 
Q 619 700 813 700 
Q 1000 700 1072 628 
Q 1144 556 1144 341 
z
" transform="scale(0.015625)"/>
       </defs>
       <use xlink:href="#Calibri-30"/>
       <use xlink:href="#Calibri-2e" x="50.683594"/>
       <use xlink:href="#Calibri-30" x="75.927734"/>
      </g>
     </g>
    </g>
    <g id="xtick_2">
     <g id="line2d_2">
      <g>
       <use xlink:href="#mf66f17a030" x="86.1696" y="307.584" style="stroke: #000000; stroke-width: 0.8"/>
      </g>
     </g>
     <g id="text_2">
      <!-- 0.1 -->
      <g transform="translate(79.83835 321.385562) scale(0.1 -0.1)">
       <defs>
        <path id="Calibri-31" d="M 2897 213 
Q 2897 153 2887 112 
Q 2878 72 2862 47 
Q 2847 22 2826 11 
Q 2806 0 2784 0 
L 672 0 
Q 650 0 631 11 
Q 613 22 595 47 
Q 578 72 568 112 
Q 559 153 559 213 
Q 559 269 568 309 
Q 578 350 592 376 
Q 606 403 626 417 
Q 647 431 672 431 
L 1516 431 
L 1516 3506 
L 734 3041 
Q 675 3009 639 3003 
Q 603 2997 581 3017 
Q 559 3038 551 3084 
Q 544 3131 544 3203 
Q 544 3256 548 3293 
Q 553 3331 562 3356 
Q 572 3381 589 3400 
Q 606 3419 634 3438 
L 1566 4034 
Q 1578 4044 1597 4050 
Q 1616 4056 1644 4062 
Q 1672 4069 1709 4070 
Q 1747 4072 1803 4072 
Q 1878 4072 1928 4065 
Q 1978 4059 2006 4048 
Q 2034 4038 2043 4020 
Q 2053 4003 2053 3984 
L 2053 431 
L 2784 431 
Q 2809 431 2831 417 
Q 2853 403 2867 376 
Q 2881 350 2889 309 
Q 2897 269 2897 213 
z
" transform="scale(0.015625)"/>
       </defs>
       <use xlink:href="#Calibri-30"/>
       <use xlink:href="#Calibri-2e" x="50.683594"/>
       <use xlink:href="#Calibri-31" x="75.927734"/>
      </g>
     </g>
    </g>
    <g id="xtick_3">
     <g id="line2d_3">
      <g>
       <use xlink:href="#mf66f17a030" x="114.7392" y="307.584" style="stroke: #000000; stroke-width: 0.8"/>
      </g>
     </g>
     <g id="text_3">
      <!-- 0.2 -->
      <g transform="translate(108.40795 321.385562) scale(0.1 -0.1)">
       <defs>
        <path id="Calibri-32" d="M 2888 231 
Q 2888 175 2880 131 
Q 2872 88 2858 58 
Q 2844 28 2820 14 
Q 2797 0 2769 0 
L 534 0 
Q 491 0 458 11 
Q 425 22 401 47 
Q 378 72 367 119 
Q 356 166 356 234 
Q 356 297 361 344 
Q 366 391 381 427 
Q 397 463 420 498 
Q 444 534 481 575 
L 1266 1406 
Q 1538 1694 1702 1922 
Q 1866 2150 1955 2337 
Q 2044 2525 2072 2678 
Q 2100 2831 2100 2966 
Q 2100 3100 2056 3220 
Q 2013 3341 1930 3431 
Q 1847 3522 1722 3575 
Q 1597 3628 1434 3628 
Q 1244 3628 1092 3575 
Q 941 3522 827 3459 
Q 713 3397 636 3344 
Q 559 3291 522 3291 
Q 500 3291 483 3303 
Q 466 3316 455 3344 
Q 444 3372 437 3419 
Q 431 3466 431 3531 
Q 431 3578 434 3612 
Q 438 3647 445 3672 
Q 453 3697 465 3719 
Q 478 3741 515 3773 
Q 553 3806 645 3862 
Q 738 3919 877 3973 
Q 1016 4028 1183 4065 
Q 1350 4103 1534 4103 
Q 1828 4103 2048 4020 
Q 2269 3938 2414 3794 
Q 2559 3650 2631 3459 
Q 2703 3269 2703 3053 
Q 2703 2859 2668 2667 
Q 2634 2475 2523 2251 
Q 2413 2028 2203 1754 
Q 1994 1481 1647 1125 
L 1006 456 
L 2766 456 
Q 2791 456 2814 442 
Q 2838 428 2855 400 
Q 2872 372 2880 330 
Q 2888 288 2888 231 
z
" transform="scale(0.015625)"/>
       </defs>
       <use xlink:href="#Calibri-30"/>
       <use xlink:href="#Calibri-2e" x="50.683594"/>
       <use xlink:href="#Calibri-32" x="75.927734"/>
      </g>
     </g>
    </g>
    <g id="xtick_4">
     <g id="line2d_4">
      <g>
       <use xlink:href="#mf66f17a030" x="143.3088" y="307.584" style="stroke: #000000; stroke-width: 0.8"/>
      </g>
     </g>
     <g id="text_4">
      <!-- 0.3 -->
      <g transform="translate(136.97755 321.385562) scale(0.1 -0.1)">
       <defs>
        <path id="Calibri-33" d="M 2856 1156 
Q 2856 878 2759 654 
Q 2663 431 2481 272 
Q 2300 113 2034 27 
Q 1769 -59 1434 -59 
Q 1231 -59 1054 -26 
Q 878 6 740 51 
Q 603 97 512 145 
Q 422 194 398 216 
Q 375 238 362 259 
Q 350 281 340 312 
Q 331 344 326 389 
Q 322 434 322 500 
Q 322 613 344 656 
Q 366 700 406 700 
Q 434 700 517 650 
Q 600 600 729 542 
Q 859 484 1032 434 
Q 1206 384 1419 384 
Q 1625 384 1781 437 
Q 1938 491 2044 587 
Q 2150 684 2203 817 
Q 2256 950 2256 1106 
Q 2256 1278 2189 1415 
Q 2122 1553 1992 1653 
Q 1863 1753 1673 1806 
Q 1484 1859 1244 1859 
L 859 1859 
Q 834 1859 811 1870 
Q 788 1881 770 1906 
Q 753 1931 742 1972 
Q 731 2013 731 2078 
Q 731 2138 740 2177 
Q 750 2216 767 2239 
Q 784 2263 806 2273 
Q 828 2284 856 2284 
L 1209 2284 
Q 1416 2284 1580 2337 
Q 1744 2391 1858 2491 
Q 1972 2591 2033 2730 
Q 2094 2869 2094 3041 
Q 2094 3166 2053 3280 
Q 2013 3394 1931 3478 
Q 1850 3563 1723 3611 
Q 1597 3659 1431 3659 
Q 1250 3659 1098 3604 
Q 947 3550 828 3487 
Q 709 3425 631 3370 
Q 553 3316 522 3316 
Q 500 3316 483 3323 
Q 466 3331 455 3354 
Q 444 3378 439 3420 
Q 434 3463 434 3531 
Q 434 3578 437 3614 
Q 441 3650 450 3676 
Q 459 3703 471 3725 
Q 484 3747 514 3776 
Q 544 3806 634 3862 
Q 725 3919 858 3973 
Q 991 4028 1164 4065 
Q 1338 4103 1538 4103 
Q 1819 4103 2031 4031 
Q 2244 3959 2386 3828 
Q 2528 3697 2598 3514 
Q 2669 3331 2669 3109 
Q 2669 2919 2619 2755 
Q 2569 2591 2472 2464 
Q 2375 2338 2234 2248 
Q 2094 2159 1909 2125 
L 1909 2119 
Q 2119 2097 2292 2014 
Q 2466 1931 2591 1806 
Q 2716 1681 2786 1514 
Q 2856 1347 2856 1156 
z
" transform="scale(0.015625)"/>
       </defs>
       <use xlink:href="#Calibri-30"/>
       <use xlink:href="#Calibri-2e" x="50.683594"/>
       <use xlink:href="#Calibri-33" x="75.927734"/>
      </g>
     </g>
    </g>
    <g id="xtick_5">
     <g id="line2d_5">
      <g>
       <use xlink:href="#mf66f17a030" x="171.8784" y="307.584" style="stroke: #000000; stroke-width: 0.8"/>
      </g>
     </g>
     <g id="text_5">
      <!-- 0.4 -->
      <g transform="translate(165.54715 321.385562) scale(0.1 -0.1)">
       <defs>
        <path id="Calibri-34" d="M 3059 1150 
Q 3059 1047 3028 987 
Q 2997 928 2941 928 
L 2484 928 
L 2484 78 
Q 2484 53 2471 36 
Q 2459 19 2428 6 
Q 2397 -6 2347 -12 
Q 2297 -19 2219 -19 
Q 2144 -19 2094 -12 
Q 2044 -6 2014 6 
Q 1984 19 1973 36 
Q 1963 53 1963 78 
L 1963 928 
L 294 928 
Q 256 928 231 937 
Q 206 947 186 972 
Q 166 997 158 1044 
Q 150 1091 150 1166 
Q 150 1225 153 1272 
Q 156 1319 165 1358 
Q 175 1397 190 1433 
Q 206 1469 228 1509 
L 1684 3966 
Q 1700 3991 1729 4009 
Q 1759 4028 1806 4040 
Q 1853 4053 1922 4058 
Q 1991 4063 2084 4063 
Q 2188 4063 2264 4055 
Q 2341 4047 2387 4034 
Q 2434 4022 2459 4001 
Q 2484 3981 2484 3953 
L 2484 1372 
L 2941 1372 
Q 2994 1372 3026 1317 
Q 3059 1263 3059 1150 
z
M 1963 3591 
L 1956 3591 
L 641 1372 
L 1963 1372 
L 1963 3591 
z
" transform="scale(0.015625)"/>
       </defs>
       <use xlink:href="#Calibri-30"/>
       <use xlink:href="#Calibri-2e" x="50.683594"/>
       <use xlink:href="#Calibri-34" x="75.927734"/>
      </g>
     </g>
    </g>
    <g id="xtick_6">
     <g id="line2d_6">
      <g>
       <use xlink:href="#mf66f17a030" x="200.448" y="307.584" style="stroke: #000000; stroke-width: 0.8"/>
      </g>
     </g>
     <g id="text_6">
      <!-- 0.5 -->
      <g transform="translate(194.11675 321.385562) scale(0.1 -0.1)">
       <defs>
        <path id="Calibri-35" d="M 2869 1300 
Q 2869 975 2759 722 
Q 2650 469 2450 295 
Q 2250 122 1973 31 
Q 1697 -59 1359 -59 
Q 1172 -59 1003 -32 
Q 834 -6 703 33 
Q 572 72 487 109 
Q 403 147 379 169 
Q 356 191 347 209 
Q 338 228 330 254 
Q 322 281 319 322 
Q 316 363 316 419 
Q 316 472 320 514 
Q 325 556 337 582 
Q 350 609 367 621 
Q 384 634 406 634 
Q 438 634 503 595 
Q 569 556 680 511 
Q 791 466 955 425 
Q 1119 384 1344 384 
Q 1553 384 1728 434 
Q 1903 484 2029 590 
Q 2156 697 2228 858 
Q 2300 1019 2300 1250 
Q 2300 1444 2239 1592 
Q 2178 1741 2051 1839 
Q 1925 1938 1731 1986 
Q 1538 2034 1269 2034 
Q 1078 2034 940 2015 
Q 803 1997 684 1997 
Q 597 1997 559 2037 
Q 522 2078 522 2194 
L 522 3841 
Q 522 3944 570 3994 
Q 619 4044 709 4044 
L 2500 4044 
Q 2525 4044 2548 4030 
Q 2572 4016 2587 3987 
Q 2603 3959 2611 3915 
Q 2619 3872 2619 3813 
Q 2619 3700 2587 3637 
Q 2556 3575 2500 3575 
L 991 3575 
L 991 2441 
Q 1100 2456 1214 2459 
Q 1328 2463 1478 2463 
Q 1825 2463 2084 2380 
Q 2344 2297 2517 2145 
Q 2691 1994 2780 1778 
Q 2869 1563 2869 1300 
z
" transform="scale(0.015625)"/>
       </defs>
       <use xlink:href="#Calibri-30"/>
       <use xlink:href="#Calibri-2e" x="50.683594"/>
       <use xlink:href="#Calibri-35" x="75.927734"/>
      </g>
     </g>
    </g>
    <g id="xtick_7">
     <g id="line2d_7">
      <g>
       <use xlink:href="#mf66f17a030" x="229.0176" y="307.584" style="stroke: #000000; stroke-width: 0.8"/>
      </g>
     </g>
     <g id="text_7">
      <!-- 0.6 -->
      <g transform="translate(222.68635 321.385562) scale(0.1 -0.1)">
       <defs>
        <path id="Calibri-36" d="M 2991 1309 
Q 2991 1044 2909 795 
Q 2828 547 2659 358 
Q 2491 169 2231 55 
Q 1972 -59 1619 -59 
Q 1366 -59 1172 3 
Q 978 66 834 181 
Q 691 297 595 465 
Q 500 634 442 850 
Q 384 1066 359 1322 
Q 334 1578 334 1872 
Q 334 2131 362 2397 
Q 391 2663 462 2909 
Q 534 3156 657 3373 
Q 781 3591 967 3752 
Q 1153 3913 1412 4006 
Q 1672 4100 2016 4100 
Q 2131 4100 2250 4086 
Q 2369 4072 2469 4048 
Q 2569 4025 2637 3997 
Q 2706 3969 2728 3951 
Q 2750 3934 2761 3914 
Q 2772 3894 2778 3870 
Q 2784 3847 2787 3817 
Q 2791 3788 2791 3744 
Q 2791 3688 2789 3647 
Q 2788 3606 2777 3581 
Q 2766 3556 2748 3543 
Q 2731 3531 2703 3531 
Q 2669 3531 2609 3553 
Q 2550 3575 2465 3601 
Q 2381 3628 2261 3650 
Q 2141 3672 1981 3672 
Q 1691 3672 1481 3553 
Q 1272 3434 1139 3234 
Q 1006 3034 942 2770 
Q 878 2506 869 2219 
Q 950 2266 1051 2312 
Q 1153 2359 1273 2396 
Q 1394 2434 1528 2457 
Q 1663 2481 1816 2481 
Q 2144 2481 2369 2392 
Q 2594 2303 2733 2145 
Q 2872 1988 2931 1773 
Q 2991 1559 2991 1309 
z
M 2447 1259 
Q 2447 1441 2411 1589 
Q 2375 1738 2290 1841 
Q 2206 1944 2065 2000 
Q 1925 2056 1719 2056 
Q 1603 2056 1487 2036 
Q 1372 2016 1264 1980 
Q 1156 1944 1057 1895 
Q 959 1847 878 1791 
Q 878 1388 929 1116 
Q 981 844 1079 680 
Q 1178 516 1325 445 
Q 1472 375 1669 375 
Q 1869 375 2016 450 
Q 2163 525 2259 651 
Q 2356 778 2401 936 
Q 2447 1094 2447 1259 
z
" transform="scale(0.015625)"/>
       </defs>
       <use xlink:href="#Calibri-30"/>
       <use xlink:href="#Calibri-2e" x="50.683594"/>
       <use xlink:href="#Calibri-36" x="75.927734"/>
      </g>
     </g>
    </g>
    <g id="xtick_8">
     <g id="line2d_8">
      <g>
       <use xlink:href="#mf66f17a030" x="257.5872" y="307.584" style="stroke: #000000; stroke-width: 0.8"/>
      </g>
     </g>
     <g id="text_8">
      <!-- 0.7 -->
      <g transform="translate(251.25595 321.385562) scale(0.1 -0.1)">
       <defs>
        <path id="Calibri-37" d="M 2947 3813 
Q 2947 3756 2942 3711 
Q 2938 3666 2930 3623 
Q 2922 3581 2908 3542 
Q 2894 3503 2875 3459 
L 1419 103 
Q 1403 66 1379 42 
Q 1356 19 1320 5 
Q 1284 -9 1228 -14 
Q 1172 -19 1091 -19 
Q 984 -19 925 -9 
Q 866 0 839 20 
Q 813 41 816 70 
Q 819 100 838 141 
L 2369 3572 
L 428 3572 
Q 369 3572 339 3634 
Q 309 3697 309 3809 
Q 309 3869 317 3912 
Q 325 3956 340 3986 
Q 356 4016 378 4030 
Q 400 4044 428 4044 
L 2784 4044 
Q 2828 4044 2861 4034 
Q 2894 4025 2911 3997 
Q 2928 3969 2937 3925 
Q 2947 3881 2947 3813 
z
" transform="scale(0.015625)"/>
       </defs>
       <use xlink:href="#Calibri-30"/>
       <use xlink:href="#Calibri-2e" x="50.683594"/>
       <use xlink:href="#Calibri-37" x="75.927734"/>
      </g>
     </g>
    </g>
    <g id="xtick_9">
     <g id="line2d_9">
      <g>
       <use xlink:href="#mf66f17a030" x="286.1568" y="307.584" style="stroke: #000000; stroke-width: 0.8"/>
      </g>
     </g>
     <g id="text_9">
      <!-- 0.8 -->
      <g transform="translate(279.82555 321.385562) scale(0.1 -0.1)">
       <defs>
        <path id="Calibri-38" d="M 2981 1038 
Q 2981 775 2887 570 
Q 2794 366 2617 225 
Q 2441 84 2181 12 
Q 1922 -59 1588 -59 
Q 1275 -59 1028 6 
Q 781 72 609 200 
Q 438 328 347 515 
Q 256 703 256 944 
Q 256 1134 318 1293 
Q 381 1453 498 1587 
Q 616 1722 787 1839 
Q 959 1956 1175 2063 
Q 988 2159 844 2267 
Q 700 2375 600 2501 
Q 500 2628 448 2772 
Q 397 2916 397 3084 
Q 397 3297 473 3483 
Q 550 3669 704 3806 
Q 859 3944 1098 4023 
Q 1338 4103 1656 4103 
Q 1963 4103 2186 4029 
Q 2409 3956 2554 3829 
Q 2700 3703 2769 3531 
Q 2838 3359 2838 3163 
Q 2838 3003 2786 2856 
Q 2734 2709 2634 2578 
Q 2534 2447 2389 2333 
Q 2244 2219 2056 2119 
Q 2278 2009 2451 1893 
Q 2625 1778 2742 1645 
Q 2859 1513 2920 1364 
Q 2981 1216 2981 1038 
z
M 2306 3113 
Q 2306 3244 2261 3350 
Q 2216 3456 2128 3531 
Q 2041 3606 1911 3645 
Q 1781 3684 1616 3684 
Q 1278 3684 1104 3531 
Q 931 3378 931 3113 
Q 931 2991 973 2886 
Q 1016 2781 1105 2687 
Q 1194 2594 1330 2505 
Q 1466 2416 1653 2319 
Q 1969 2481 2137 2678 
Q 2306 2875 2306 3113 
z
M 2438 981 
Q 2438 1125 2384 1242 
Q 2331 1359 2223 1461 
Q 2116 1563 1955 1658 
Q 1794 1753 1581 1856 
Q 1384 1759 1236 1662 
Q 1088 1566 992 1462 
Q 897 1359 848 1245 
Q 800 1131 800 994 
Q 800 691 1008 525 
Q 1216 359 1628 359 
Q 2028 359 2233 526 
Q 2438 694 2438 981 
z
" transform="scale(0.015625)"/>
       </defs>
       <use xlink:href="#Calibri-30"/>
       <use xlink:href="#Calibri-2e" x="50.683594"/>
       <use xlink:href="#Calibri-38" x="75.927734"/>
      </g>
     </g>
    </g>
    <g id="xtick_10">
     <g id="line2d_10">
      <g>
       <use xlink:href="#mf66f17a030" x="314.7264" y="307.584" style="stroke: #000000; stroke-width: 0.8"/>
      </g>
     </g>
     <g id="text_10">
      <!-- 0.9 -->
      <g transform="translate(308.39515 321.385562) scale(0.1 -0.1)">
       <defs>
        <path id="Calibri-39" d="M 2919 2181 
Q 2919 1919 2887 1650 
Q 2856 1381 2781 1132 
Q 2706 884 2579 667 
Q 2453 450 2261 287 
Q 2069 125 1805 33 
Q 1541 -59 1191 -59 
Q 1056 -59 929 -42 
Q 803 -25 701 0 
Q 600 25 531 53 
Q 463 81 431 109 
Q 400 138 386 186 
Q 372 234 372 316 
Q 372 384 376 425 
Q 381 466 390 487 
Q 400 509 417 517 
Q 434 525 459 525 
Q 494 525 556 501 
Q 619 478 714 450 
Q 809 422 937 398 
Q 1066 375 1225 375 
Q 1528 375 1745 492 
Q 1963 609 2100 806 
Q 2238 1003 2306 1262 
Q 2375 1522 2381 1809 
Q 2216 1713 1984 1638 
Q 1753 1563 1453 1563 
Q 1116 1563 886 1655 
Q 656 1747 517 1906 
Q 378 2066 317 2284 
Q 256 2503 256 2763 
Q 256 3031 334 3273 
Q 413 3516 578 3700 
Q 744 3884 1000 3993 
Q 1256 4103 1613 4103 
Q 1866 4103 2061 4039 
Q 2256 3975 2400 3854 
Q 2544 3734 2644 3564 
Q 2744 3394 2805 3178 
Q 2866 2963 2892 2711 
Q 2919 2459 2919 2181 
z
M 2372 2241 
Q 2372 2641 2319 2914 
Q 2266 3188 2162 3356 
Q 2059 3525 1909 3600 
Q 1759 3675 1563 3675 
Q 1359 3675 1215 3601 
Q 1072 3528 980 3404 
Q 888 3281 844 3125 
Q 800 2969 800 2803 
Q 800 2619 839 2466 
Q 878 2313 965 2206 
Q 1053 2100 1193 2042 
Q 1334 1984 1541 1984 
Q 1775 1984 1994 2054 
Q 2213 2125 2372 2241 
z
" transform="scale(0.015625)"/>
       </defs>
       <use xlink:href="#Calibri-30"/>
       <use xlink:href="#Calibri-2e" x="50.683594"/>
       <use xlink:href="#Calibri-39" x="75.927734"/>
      </g>
     </g>
    </g>
    <g id="xtick_11">
     <g id="line2d_11">
      <g>
       <use xlink:href="#mf66f17a030" x="343.296" y="307.584" style="stroke: #000000; stroke-width: 0.8"/>
      </g>
     </g>
     <g id="text_11">
      <!-- 1.0 -->
      <g transform="translate(336.96475 321.385562) scale(0.1 -0.1)">
       <use xlink:href="#Calibri-31"/>
       <use xlink:href="#Calibri-2e" x="50.683594"/>
       <use xlink:href="#Calibri-30" x="75.927734"/>
      </g>
     </g>
    </g>
    <g id="text_12">
     <!-- $\mathit{p}$ (cm$^2$/cm$^2$) -->
     <g transform="translate(174.148 336.263687) scale(0.1 -0.1)">
      <defs>
       <path id="DejaVuSans-Oblique-70" d="M 3175 2156 
Q 3175 2616 2975 2859 
Q 2775 3103 2400 3103 
Q 2144 3103 1911 2972 
Q 1678 2841 1497 2591 
Q 1319 2344 1212 1994 
Q 1106 1644 1106 1300 
Q 1106 863 1306 627 
Q 1506 391 1875 391 
Q 2147 391 2380 519 
Q 2613 647 2778 891 
Q 2956 1147 3065 1494 
Q 3175 1841 3175 2156 
z
M 1394 2969 
Q 1625 3272 1939 3428 
Q 2253 3584 2638 3584 
Q 3175 3584 3472 3232 
Q 3769 2881 3769 2247 
Q 3769 1728 3584 1258 
Q 3400 788 3053 416 
Q 2822 169 2531 39 
Q 2241 -91 1919 -91 
Q 1547 -91 1294 64 
Q 1041 219 916 525 
L 556 -1331 
L -19 -1331 
L 922 3500 
L 1497 3500 
L 1394 2969 
z
" transform="scale(0.015625)"/>
       <path id="Calibri-20" transform="scale(0.015625)"/>
       <path id="Calibri-28" d="M 1547 4306 
Q 1250 3678 1104 3017 
Q 959 2356 959 1688 
Q 959 1016 1107 356 
Q 1256 -303 1541 -938 
Q 1556 -975 1557 -1001 
Q 1559 -1028 1537 -1045 
Q 1516 -1063 1470 -1070 
Q 1425 -1078 1347 -1078 
Q 1291 -1078 1250 -1075 
Q 1209 -1072 1179 -1062 
Q 1150 -1053 1131 -1040 
Q 1113 -1028 1103 -1013 
Q 934 -694 806 -367 
Q 678 -41 590 296 
Q 503 634 459 979 
Q 416 1325 416 1678 
Q 416 2031 464 2375 
Q 513 2719 602 3058 
Q 691 3397 819 3725 
Q 947 4053 1106 4375 
Q 1109 4388 1123 4397 
Q 1138 4406 1163 4415 
Q 1188 4425 1231 4429 
Q 1275 4434 1344 4434 
Q 1416 4434 1459 4425 
Q 1503 4416 1528 4400 
Q 1553 4384 1556 4359 
Q 1559 4334 1547 4306 
z
" transform="scale(0.015625)"/>
       <path id="Calibri-63" d="M 2500 506 
Q 2500 453 2497 414 
Q 2494 375 2486 348 
Q 2478 322 2467 301 
Q 2456 281 2417 242 
Q 2378 203 2284 145 
Q 2191 88 2073 42 
Q 1956 -3 1818 -31 
Q 1681 -59 1534 -59 
Q 1231 -59 997 41 
Q 763 141 605 333 
Q 447 525 364 804 
Q 281 1084 281 1450 
Q 281 1866 382 2164 
Q 484 2463 661 2653 
Q 838 2844 1077 2936 
Q 1316 3028 1594 3028 
Q 1728 3028 1854 3003 
Q 1981 2978 2087 2937 
Q 2194 2897 2276 2844 
Q 2359 2791 2396 2753 
Q 2434 2716 2448 2694 
Q 2463 2672 2472 2642 
Q 2481 2613 2484 2575 
Q 2488 2538 2488 2481 
Q 2488 2359 2459 2311 
Q 2431 2263 2391 2263 
Q 2344 2263 2283 2314 
Q 2222 2366 2128 2428 
Q 2034 2491 1901 2542 
Q 1769 2594 1588 2594 
Q 1216 2594 1017 2308 
Q 819 2022 819 1478 
Q 819 1206 870 1001 
Q 922 797 1022 659 
Q 1122 522 1267 455 
Q 1413 388 1600 388 
Q 1778 388 1912 444 
Q 2047 500 2145 567 
Q 2244 634 2311 689 
Q 2378 744 2416 744 
Q 2438 744 2453 731 
Q 2469 719 2480 689 
Q 2491 659 2495 614 
Q 2500 569 2500 506 
z
" transform="scale(0.015625)"/>
       <path id="Calibri-6d" d="M 4650 78 
Q 4650 53 4637 36 
Q 4625 19 4597 6 
Q 4569 -6 4519 -12 
Q 4469 -19 4394 -19 
Q 4316 -19 4266 -12 
Q 4216 -6 4186 6 
Q 4156 19 4143 36 
Q 4131 53 4131 78 
L 4131 1788 
Q 4131 1966 4100 2112 
Q 4069 2259 4000 2365 
Q 3931 2472 3825 2528 
Q 3719 2584 3575 2584 
Q 3397 2584 3217 2446 
Q 3038 2309 2822 2044 
L 2822 78 
Q 2822 53 2809 36 
Q 2797 19 2767 6 
Q 2738 -6 2688 -12 
Q 2638 -19 2563 -19 
Q 2491 -19 2439 -12 
Q 2388 -6 2358 6 
Q 2328 19 2317 36 
Q 2306 53 2306 78 
L 2306 1788 
Q 2306 1966 2272 2112 
Q 2238 2259 2169 2365 
Q 2100 2472 1995 2528 
Q 1891 2584 1747 2584 
Q 1569 2584 1387 2446 
Q 1206 2309 994 2044 
L 994 78 
Q 994 53 981 36 
Q 969 19 941 6 
Q 913 -6 863 -12 
Q 813 -19 734 -19 
Q 659 -19 609 -12 
Q 559 -6 529 6 
Q 500 19 489 36 
Q 478 53 478 78 
L 478 2891 
Q 478 2916 487 2933 
Q 497 2950 525 2964 
Q 553 2978 597 2983 
Q 641 2988 713 2988 
Q 781 2988 826 2983 
Q 872 2978 897 2964 
Q 922 2950 933 2933 
Q 944 2916 944 2891 
L 944 2519 
Q 1181 2784 1404 2907 
Q 1628 3031 1856 3031 
Q 2031 3031 2170 2990 
Q 2309 2950 2415 2876 
Q 2522 2803 2597 2701 
Q 2672 2600 2722 2475 
Q 2863 2628 2989 2734 
Q 3116 2841 3233 2906 
Q 3350 2972 3461 3001 
Q 3572 3031 3684 3031 
Q 3956 3031 4140 2936 
Q 4325 2841 4439 2681 
Q 4553 2522 4601 2308 
Q 4650 2094 4650 1856 
L 4650 78 
z
" transform="scale(0.015625)"/>
       <path id="DejaVuSans-32" d="M 1228 531 
L 3431 531 
L 3431 0 
L 469 0 
L 469 531 
Q 828 903 1448 1529 
Q 2069 2156 2228 2338 
Q 2531 2678 2651 2914 
Q 2772 3150 2772 3378 
Q 2772 3750 2511 3984 
Q 2250 4219 1831 4219 
Q 1534 4219 1204 4116 
Q 875 4013 500 3803 
L 500 4441 
Q 881 4594 1212 4672 
Q 1544 4750 1819 4750 
Q 2544 4750 2975 4387 
Q 3406 4025 3406 3419 
Q 3406 3131 3298 2873 
Q 3191 2616 2906 2266 
Q 2828 2175 2409 1742 
Q 1991 1309 1228 531 
z
" transform="scale(0.015625)"/>
       <path id="Calibri-2f" d="M 525 -753 
Q 513 -794 492 -817 
Q 472 -841 440 -853 
Q 409 -866 364 -872 
Q 319 -878 253 -878 
Q 175 -878 123 -867 
Q 72 -856 44 -836 
Q 16 -816 9 -786 
Q 3 -756 22 -716 
L 1913 4469 
Q 1925 4509 1945 4532 
Q 1966 4556 1995 4570 
Q 2025 4584 2072 4589 
Q 2119 4594 2184 4594 
Q 2263 4594 2313 4583 
Q 2363 4572 2391 4553 
Q 2419 4534 2425 4503 
Q 2431 4472 2416 4431 
L 525 -753 
z
" transform="scale(0.015625)"/>
       <path id="Calibri-29" d="M 1522 1678 
Q 1522 1325 1478 979 
Q 1434 634 1346 296 
Q 1259 -41 1132 -367 
Q 1006 -694 838 -1013 
Q 828 -1028 809 -1040 
Q 791 -1053 761 -1062 
Q 731 -1072 690 -1075 
Q 650 -1078 594 -1078 
Q 513 -1078 467 -1070 
Q 422 -1063 401 -1045 
Q 381 -1028 382 -1001 
Q 384 -975 400 -938 
Q 688 -306 834 355 
Q 981 1016 981 1688 
Q 981 2356 834 3017 
Q 688 3678 394 4306 
Q 381 4334 384 4359 
Q 388 4384 413 4400 
Q 438 4416 481 4425 
Q 525 4434 597 4434 
Q 663 4434 706 4429 
Q 750 4425 776 4415 
Q 803 4406 815 4397 
Q 828 4388 834 4375 
Q 1156 3734 1339 3057 
Q 1522 2381 1522 1678 
z
" transform="scale(0.015625)"/>
      </defs>
      <use xlink:href="#DejaVuSans-Oblique-70" transform="translate(0 0.765625)"/>
      <use xlink:href="#Calibri-20" transform="translate(63.476562 0.765625)"/>
      <use xlink:href="#Calibri-28" transform="translate(84.958984 0.765625)"/>
      <use xlink:href="#Calibri-63" transform="translate(115.28125 0.765625)"/>
      <use xlink:href="#Calibri-6d" transform="translate(157.566406 0.765625)"/>
      <use xlink:href="#DejaVuSans-32" transform="translate(238.40625 39.046875) scale(0.7)"/>
      <use xlink:href="#Calibri-2f" transform="translate(285.676758 0.765625)"/>
      <use xlink:href="#Calibri-63" transform="translate(324.299805 0.765625)"/>
      <use xlink:href="#Calibri-6d" transform="translate(366.584961 0.765625)"/>
      <use xlink:href="#DejaVuSans-32" transform="translate(447.424805 39.046875) scale(0.7)"/>
      <use xlink:href="#Calibri-29" transform="translate(494.695312 0.765625)"/>
     </g>
    </g>
   </g>
   <g id="matplotlib.axis_2">
    <g id="ytick_1">
     <g id="line2d_12">
      <defs>
       <path id="m823d4656b2" d="M 0 0 
L -3.5 0 
" style="stroke: #000000; stroke-width: 0.8"/>
      </defs>
      <g>
       <use xlink:href="#m823d4656b2" x="57.6" y="275.65056" style="stroke: #000000; stroke-width: 0.8"/>
      </g>
     </g>
     <g id="text_13">
      <!-- 25 -->
      <g transform="translate(40.4625 279.051341) scale(0.1 -0.1)">
       <use xlink:href="#Calibri-32"/>
       <use xlink:href="#Calibri-35" x="50.683594"/>
      </g>
     </g>
    </g>
    <g id="ytick_2">
     <g id="line2d_13">
      <g>
       <use xlink:href="#m823d4656b2" x="57.6" y="242.38656" style="stroke: #000000; stroke-width: 0.8"/>
      </g>
     </g>
     <g id="text_14">
      <!-- 50 -->
      <g transform="translate(40.4625 245.787341) scale(0.1 -0.1)">
       <use xlink:href="#Calibri-35"/>
       <use xlink:href="#Calibri-30" x="50.683594"/>
      </g>
     </g>
    </g>
    <g id="ytick_3">
     <g id="line2d_14">
      <g>
       <use xlink:href="#m823d4656b2" x="57.6" y="209.12256" style="stroke: #000000; stroke-width: 0.8"/>
      </g>
     </g>
     <g id="text_15">
      <!-- 75 -->
      <g transform="translate(40.4625 212.523341) scale(0.1 -0.1)">
       <use xlink:href="#Calibri-37"/>
       <use xlink:href="#Calibri-35" x="50.683594"/>
      </g>
     </g>
    </g>
    <g id="ytick_4">
     <g id="line2d_15">
      <g>
       <use xlink:href="#m823d4656b2" x="57.6" y="175.85856" style="stroke: #000000; stroke-width: 0.8"/>
      </g>
     </g>
     <g id="text_16">
      <!-- 100 -->
      <g transform="translate(35.39375 179.259341) scale(0.1 -0.1)">
       <use xlink:href="#Calibri-31"/>
       <use xlink:href="#Calibri-30" x="50.683594"/>
       <use xlink:href="#Calibri-30" x="101.367188"/>
      </g>
     </g>
    </g>
    <g id="ytick_5">
     <g id="line2d_16">
      <g>
       <use xlink:href="#m823d4656b2" x="57.6" y="142.59456" style="stroke: #000000; stroke-width: 0.8"/>
      </g>
     </g>
     <g id="text_17">
      <!-- 125 -->
      <g transform="translate(35.39375 145.995341) scale(0.1 -0.1)">
       <use xlink:href="#Calibri-31"/>
       <use xlink:href="#Calibri-32" x="50.683594"/>
       <use xlink:href="#Calibri-35" x="101.367188"/>
      </g>
     </g>
    </g>
    <g id="ytick_6">
     <g id="line2d_17">
      <g>
       <use xlink:href="#m823d4656b2" x="57.6" y="109.33056" style="stroke: #000000; stroke-width: 0.8"/>
      </g>
     </g>
     <g id="text_18">
      <!-- 150 -->
      <g transform="translate(35.39375 112.731341) scale(0.1 -0.1)">
       <use xlink:href="#Calibri-31"/>
       <use xlink:href="#Calibri-35" x="50.683594"/>
       <use xlink:href="#Calibri-30" x="101.367188"/>
      </g>
     </g>
    </g>
    <g id="ytick_7">
     <g id="line2d_18">
      <g>
       <use xlink:href="#m823d4656b2" x="57.6" y="76.06656" style="stroke: #000000; stroke-width: 0.8"/>
      </g>
     </g>
     <g id="text_19">
      <!-- 175 -->
      <g transform="translate(35.39375 79.467341) scale(0.1 -0.1)">
       <use xlink:href="#Calibri-31"/>
       <use xlink:href="#Calibri-37" x="50.683594"/>
       <use xlink:href="#Calibri-35" x="101.367188"/>
      </g>
     </g>
    </g>
    <g id="ytick_8">
     <g id="line2d_19">
      <g>
       <use xlink:href="#m823d4656b2" x="57.6" y="42.80256" style="stroke: #000000; stroke-width: 0.8"/>
      </g>
     </g>
     <g id="text_20">
      <!-- 200 -->
      <g transform="translate(35.39375 46.203341) scale(0.1 -0.1)">
       <use xlink:href="#Calibri-32"/>
       <use xlink:href="#Calibri-30" x="50.683594"/>
       <use xlink:href="#Calibri-30" x="101.367188"/>
      </g>
     </g>
    </g>
    <g id="text_21">
     <!-- $\mathit{Z}$$_{a}$ (nm) -->
     <g transform="translate(29.59375 191.028) rotate(-90) scale(0.1 -0.1)">
      <defs>
       <path id="DejaVuSans-Oblique-5a" d="M 838 4666 
L 4500 4666 
L 4409 4184 
L 794 531 
L 3769 531 
L 3669 0 
L -141 0 
L -50 481 
L 3566 4134 
L 738 4134 
L 838 4666 
z
" transform="scale(0.015625)"/>
       <path id="DejaVuSans-Oblique-61" d="M 3438 1997 
L 3047 0 
L 2472 0 
L 2578 531 
Q 2325 219 2001 64 
Q 1678 -91 1281 -91 
Q 834 -91 548 182 
Q 263 456 263 884 
Q 263 1497 752 1853 
Q 1241 2209 2100 2209 
L 2900 2209 
L 2931 2363 
Q 2938 2388 2941 2417 
Q 2944 2447 2944 2509 
Q 2944 2788 2717 2942 
Q 2491 3097 2081 3097 
Q 1800 3097 1504 3025 
Q 1209 2953 897 2809 
L 997 3341 
Q 1322 3463 1633 3523 
Q 1944 3584 2234 3584 
Q 2853 3584 3176 3315 
Q 3500 3047 3500 2534 
Q 3500 2431 3484 2292 
Q 3469 2153 3438 1997 
z
M 2816 1759 
L 2241 1759 
Q 1534 1759 1195 1570 
Q 856 1381 856 984 
Q 856 709 1029 553 
Q 1203 397 1509 397 
Q 1978 397 2328 733 
Q 2678 1069 2791 1631 
L 2816 1759 
z
" transform="scale(0.015625)"/>
       <path id="Calibri-6e" d="M 2900 78 
Q 2900 53 2887 36 
Q 2875 19 2847 6 
Q 2819 -6 2769 -12 
Q 2719 -19 2644 -19 
Q 2566 -19 2516 -12 
Q 2466 -6 2437 6 
Q 2409 19 2396 36 
Q 2384 53 2384 78 
L 2384 1725 
Q 2384 1966 2346 2112 
Q 2309 2259 2237 2365 
Q 2166 2472 2052 2528 
Q 1938 2584 1788 2584 
Q 1594 2584 1400 2446 
Q 1206 2309 994 2044 
L 994 78 
Q 994 53 981 36 
Q 969 19 941 6 
Q 913 -6 863 -12 
Q 813 -19 734 -19 
Q 659 -19 609 -12 
Q 559 -6 529 6 
Q 500 19 489 36 
Q 478 53 478 78 
L 478 2891 
Q 478 2916 487 2933 
Q 497 2950 525 2964 
Q 553 2978 597 2983 
Q 641 2988 713 2988 
Q 781 2988 826 2983 
Q 872 2978 897 2964 
Q 922 2950 933 2933 
Q 944 2916 944 2891 
L 944 2519 
Q 1181 2784 1417 2907 
Q 1653 3031 1894 3031 
Q 2175 3031 2367 2936 
Q 2559 2841 2678 2681 
Q 2797 2522 2848 2308 
Q 2900 2094 2900 1794 
L 2900 78 
z
" transform="scale(0.015625)"/>
      </defs>
      <use xlink:href="#DejaVuSans-Oblique-5a" transform="translate(0 0.09375)"/>
      <use xlink:href="#DejaVuSans-Oblique-61" transform="translate(69.462891 -16.3125) scale(0.7)"/>
      <use xlink:href="#Calibri-20" transform="translate(115.092773 0.09375)"/>
      <use xlink:href="#Calibri-28" transform="translate(136.575195 0.09375)"/>
      <use xlink:href="#Calibri-6e" transform="translate(166.897461 0.09375)"/>
      <use xlink:href="#Calibri-6d" transform="translate(219.436523 0.09375)"/>
      <use xlink:href="#Calibri-29" transform="translate(299.319336 0.09375)"/>
     </g>
    </g>
   </g>
   <g id="patch_3">
    <path d="M 57.6 307.584 
L 57.6 41.472 
" style="fill: none; stroke: #000000; stroke-width: 0.8; stroke-linejoin: miter; stroke-linecap: square"/>
   </g>
   <g id="patch_4">
    <path d="M 343.296 307.584 
L 343.296 41.472 
" style="fill: none; stroke: #000000; stroke-width: 0.8; stroke-linejoin: miter; stroke-linecap: square"/>
   </g>
   <g id="patch_5">
    <path d="M 57.6 307.584 
L 343.296 307.584 
" style="fill: none; stroke: #000000; stroke-width: 0.8; stroke-linejoin: miter; stroke-linecap: square"/>
   </g>
   <g id="patch_6">
    <path d="M 57.6 41.472 
L 343.296 41.472 
" style="fill: none; stroke: #000000; stroke-width: 0.8; stroke-linejoin: miter; stroke-linecap: square"/>
   </g>
   <g id="text_22">
    <!-- $\lambda$ = 680 nm -->
    <g transform="translate(177.348 35.472) scale(0.1 -0.1)">
     <defs>
      <path id="DejaVuSans-Oblique-3bb" d="M 2350 4316 
L 3125 0 
L 2516 0 
L 2038 2588 
L 328 0 
L -281 0 
L 1903 3356 
L 1794 3975 
Q 1725 4369 1391 4369 
L 1091 4369 
L 1184 4863 
L 1550 4856 
Q 2253 4847 2350 4316 
z
" transform="scale(0.015625)"/>
      <path id="Calibri-3d" d="M 2891 2409 
Q 2891 2284 2855 2236 
Q 2819 2188 2772 2188 
L 409 2188 
Q 363 2188 328 2236 
Q 294 2284 294 2409 
Q 294 2522 325 2575 
Q 356 2628 409 2628 
L 2772 2628 
Q 2828 2628 2859 2575 
Q 2891 2522 2891 2409 
z
M 2891 1194 
Q 2891 1069 2855 1022 
Q 2819 975 2772 975 
L 409 975 
Q 363 975 328 1022 
Q 294 1069 294 1194 
Q 294 1309 325 1362 
Q 356 1416 409 1416 
L 2772 1416 
Q 2828 1416 2859 1362 
Q 2891 1309 2891 1194 
z
" transform="scale(0.015625)"/>
     </defs>
     <use xlink:href="#DejaVuSans-Oblique-3bb" transform="translate(0 0.015625)"/>
     <use xlink:href="#Calibri-20" transform="translate(59.179688 0.015625)"/>
     <use xlink:href="#Calibri-3d" transform="translate(81.787109 0.015625)"/>
     <use xlink:href="#Calibri-20" transform="translate(131.591797 0.015625)"/>
     <use xlink:href="#Calibri-36" transform="translate(154.199219 0.015625)"/>
     <use xlink:href="#Calibri-38" transform="translate(204.882812 0.015625)"/>
     <use xlink:href="#Calibri-30" transform="translate(255.566406 0.015625)"/>
     <use xlink:href="#Calibri-20" transform="translate(306.25 0.015625)"/>
     <use xlink:href="#Calibri-6e" transform="translate(328.857422 0.015625)"/>
     <use xlink:href="#Calibri-6d" transform="translate(381.396484 0.015625)"/>
    </g>
   </g>
  </g>
  <g id="axes_2">
   <g id="patch_7">
    <path d="M 361.152 307.584 
L 374.4576 307.584 
L 374.4576 41.472 
L 361.152 41.472 
z
" style="fill: #ffffff"/>
   </g>
   <g id="QuadMesh_1">
    <path d="M 361.152 307.584 
L 374.4576 307.584 
L 374.4576 280.9728 
L 361.152 280.9728 
L 361.152 307.584 
" clip-path="url(#p7b586d77b0)" style="fill: #0000b6"/>
    <path d="M 361.152 280.9728 
L 374.4576 280.9728 
L 374.4576 254.3616 
L 361.152 254.3616 
L 361.152 280.9728 
" clip-path="url(#p7b586d77b0)" style="fill: #0018ff"/>
    <path d="M 361.152 254.3616 
L 374.4576 254.3616 
L 374.4576 227.7504 
L 361.152 227.7504 
L 361.152 254.3616 
" clip-path="url(#p7b586d77b0)" style="fill: #0080ff"/>
    <path d="M 361.152 227.7504 
L 374.4576 227.7504 
L 374.4576 201.1392 
L 361.152 201.1392 
L 361.152 227.7504 
" clip-path="url(#p7b586d77b0)" style="fill: #00e4f8"/>
    <path d="M 361.152 201.1392 
L 374.4576 201.1392 
L 374.4576 174.528 
L 361.152 174.528 
L 361.152 201.1392 
" clip-path="url(#p7b586d77b0)" style="fill: #53ffa4"/>
    <path d="M 361.152 174.528 
L 374.4576 174.528 
L 374.4576 147.9168 
L 361.152 147.9168 
L 361.152 174.528 
" clip-path="url(#p7b586d77b0)" style="fill: #a4ff53"/>
    <path d="M 361.152 147.9168 
L 374.4576 147.9168 
L 374.4576 121.3056 
L 361.152 121.3056 
L 361.152 147.9168 
" clip-path="url(#p7b586d77b0)" style="fill: #f8f500"/>
    <path d="M 361.152 121.3056 
L 374.4576 121.3056 
L 374.4576 94.6944 
L 361.152 94.6944 
L 361.152 121.3056 
" clip-path="url(#p7b586d77b0)" style="fill: #ff9400"/>
    <path d="M 361.152 94.6944 
L 374.4576 94.6944 
L 374.4576 68.0832 
L 361.152 68.0832 
L 361.152 94.6944 
" clip-path="url(#p7b586d77b0)" style="fill: #ff3800"/>
    <path d="M 361.152 68.0832 
L 374.4576 68.0832 
L 374.4576 41.472 
L 361.152 41.472 
L 361.152 68.0832 
" clip-path="url(#p7b586d77b0)" style="fill: #b60000"/>
   </g>
   <g id="matplotlib.axis_3"/>
   <g id="matplotlib.axis_4">
    <g id="ytick_9">
     <g id="line2d_20">
      <defs>
       <path id="m4ac0363787" d="M 0 0 
L 3.5 0 
" style="stroke: #000000; stroke-width: 0.8"/>
      </defs>
      <g>
       <use xlink:href="#m4ac0363787" x="374.4576" y="307.584" style="stroke: #000000; stroke-width: 0.8"/>
      </g>
     </g>
     <g id="text_23">
      <!-- 0 -->
      <g transform="translate(381.4576 310.984781) scale(0.1 -0.1)">
       <use xlink:href="#Calibri-30"/>
      </g>
     </g>
    </g>
    <g id="ytick_10">
     <g id="line2d_21">
      <g>
       <use xlink:href="#m4ac0363787" x="374.4576" y="280.9728" style="stroke: #000000; stroke-width: 0.8"/>
      </g>
     </g>
     <g id="text_24">
      <!-- 0.1 -->
      <g transform="translate(381.4576 284.373581) scale(0.1 -0.1)">
       <use xlink:href="#Calibri-30"/>
       <use xlink:href="#Calibri-2e" x="50.683594"/>
       <use xlink:href="#Calibri-31" x="75.927734"/>
      </g>
     </g>
    </g>
    <g id="ytick_11">
     <g id="line2d_22">
      <g>
       <use xlink:href="#m4ac0363787" x="374.4576" y="254.3616" style="stroke: #000000; stroke-width: 0.8"/>
      </g>
     </g>
     <g id="text_25">
      <!-- 0.2 -->
      <g transform="translate(381.4576 257.762381) scale(0.1 -0.1)">
       <use xlink:href="#Calibri-30"/>
       <use xlink:href="#Calibri-2e" x="50.683594"/>
       <use xlink:href="#Calibri-32" x="75.927734"/>
      </g>
     </g>
    </g>
    <g id="ytick_12">
     <g id="line2d_23">
      <g>
       <use xlink:href="#m4ac0363787" x="374.4576" y="227.7504" style="stroke: #000000; stroke-width: 0.8"/>
      </g>
     </g>
     <g id="text_26">
      <!-- 0.3 -->
      <g transform="translate(381.4576 231.151181) scale(0.1 -0.1)">
       <use xlink:href="#Calibri-30"/>
       <use xlink:href="#Calibri-2e" x="50.683594"/>
       <use xlink:href="#Calibri-33" x="75.927734"/>
      </g>
     </g>
    </g>
    <g id="ytick_13">
     <g id="line2d_24">
      <g>
       <use xlink:href="#m4ac0363787" x="374.4576" y="201.1392" style="stroke: #000000; stroke-width: 0.8"/>
      </g>
     </g>
     <g id="text_27">
      <!-- 0.4 -->
      <g transform="translate(381.4576 204.539981) scale(0.1 -0.1)">
       <use xlink:href="#Calibri-30"/>
       <use xlink:href="#Calibri-2e" x="50.683594"/>
       <use xlink:href="#Calibri-34" x="75.927734"/>
      </g>
     </g>
    </g>
    <g id="ytick_14">
     <g id="line2d_25">
      <g>
       <use xlink:href="#m4ac0363787" x="374.4576" y="174.528" style="stroke: #000000; stroke-width: 0.8"/>
      </g>
     </g>
     <g id="text_28">
      <!-- 0.5 -->
      <g transform="translate(381.4576 177.928781) scale(0.1 -0.1)">
       <use xlink:href="#Calibri-30"/>
       <use xlink:href="#Calibri-2e" x="50.683594"/>
       <use xlink:href="#Calibri-35" x="75.927734"/>
      </g>
     </g>
    </g>
    <g id="ytick_15">
     <g id="line2d_26">
      <g>
       <use xlink:href="#m4ac0363787" x="374.4576" y="147.9168" style="stroke: #000000; stroke-width: 0.8"/>
      </g>
     </g>
     <g id="text_29">
      <!-- 0.6 -->
      <g transform="translate(381.4576 151.317581) scale(0.1 -0.1)">
       <use xlink:href="#Calibri-30"/>
       <use xlink:href="#Calibri-2e" x="50.683594"/>
       <use xlink:href="#Calibri-36" x="75.927734"/>
      </g>
     </g>
    </g>
    <g id="ytick_16">
     <g id="line2d_27">
      <g>
       <use xlink:href="#m4ac0363787" x="374.4576" y="121.3056" style="stroke: #000000; stroke-width: 0.8"/>
      </g>
     </g>
     <g id="text_30">
      <!-- 0.7 -->
      <g transform="translate(381.4576 124.706381) scale(0.1 -0.1)">
       <use xlink:href="#Calibri-30"/>
       <use xlink:href="#Calibri-2e" x="50.683594"/>
       <use xlink:href="#Calibri-37" x="75.927734"/>
      </g>
     </g>
    </g>
    <g id="ytick_17">
     <g id="line2d_28">
      <g>
       <use xlink:href="#m4ac0363787" x="374.4576" y="94.6944" style="stroke: #000000; stroke-width: 0.8"/>
      </g>
     </g>
     <g id="text_31">
      <!-- 0.8 -->
      <g transform="translate(381.4576 98.095181) scale(0.1 -0.1)">
       <use xlink:href="#Calibri-30"/>
       <use xlink:href="#Calibri-2e" x="50.683594"/>
       <use xlink:href="#Calibri-38" x="75.927734"/>
      </g>
     </g>
    </g>
    <g id="ytick_18">
     <g id="line2d_29">
      <g>
       <use xlink:href="#m4ac0363787" x="374.4576" y="68.0832" style="stroke: #000000; stroke-width: 0.8"/>
      </g>
     </g>
     <g id="text_32">
      <!-- 0.9 -->
      <g transform="translate(381.4576 71.483981) scale(0.1 -0.1)">
       <use xlink:href="#Calibri-30"/>
       <use xlink:href="#Calibri-2e" x="50.683594"/>
       <use xlink:href="#Calibri-39" x="75.927734"/>
      </g>
     </g>
    </g>
    <g id="ytick_19">
     <g id="line2d_30">
      <g>
       <use xlink:href="#m4ac0363787" x="374.4576" y="41.472" style="stroke: #000000; stroke-width: 0.8"/>
      </g>
     </g>
     <g id="text_33">
      <!-- 1.0 -->
      <g transform="translate(381.4576 44.872781) scale(0.1 -0.1)">
       <use xlink:href="#Calibri-31"/>
       <use xlink:href="#Calibri-2e" x="50.683594"/>
       <use xlink:href="#Calibri-30" x="75.927734"/>
      </g>
     </g>
    </g>
   </g>
   <g id="LineCollection_1"/>
   <g id="patch_8">
    <path d="M 361.152 307.584 
L 367.8048 307.584 
L 374.4576 307.584 
L 374.4576 41.472 
L 367.8048 41.472 
L 361.152 41.472 
L 361.152 307.584 
z
" style="fill: none; stroke: #000000; stroke-width: 0.8; stroke-linejoin: miter; stroke-linecap: square"/>
   </g>
   <g id="text_34">
    <!-- $\mathit{E}_{\mathrm{dis}}$/$\mathit{E}_{\mathrm{i}}$ -->
    <g transform="translate(353.2548 35.472) scale(0.1 -0.1)">
     <defs>
      <path id="DejaVuSans-Oblique-45" d="M 1081 4666 
L 4031 4666 
L 3928 4134 
L 1606 4134 
L 1338 2753 
L 3566 2753 
L 3463 2222 
L 1234 2222 
L 909 531 
L 3284 531 
L 3181 0 
L 172 0 
L 1081 4666 
z
" transform="scale(0.015625)"/>
      <path id="DejaVuSans-64" d="M 2906 2969 
L 2906 4863 
L 3481 4863 
L 3481 0 
L 2906 0 
L 2906 525 
Q 2725 213 2448 61 
Q 2172 -91 1784 -91 
Q 1150 -91 751 415 
Q 353 922 353 1747 
Q 353 2572 751 3078 
Q 1150 3584 1784 3584 
Q 2172 3584 2448 3432 
Q 2725 3281 2906 2969 
z
M 947 1747 
Q 947 1113 1208 752 
Q 1469 391 1925 391 
Q 2381 391 2643 752 
Q 2906 1113 2906 1747 
Q 2906 2381 2643 2742 
Q 2381 3103 1925 3103 
Q 1469 3103 1208 2742 
Q 947 2381 947 1747 
z
" transform="scale(0.015625)"/>
      <path id="DejaVuSans-69" d="M 603 3500 
L 1178 3500 
L 1178 0 
L 603 0 
L 603 3500 
z
M 603 4863 
L 1178 4863 
L 1178 4134 
L 603 4134 
L 603 4863 
z
" transform="scale(0.015625)"/>
      <path id="DejaVuSans-73" d="M 2834 3397 
L 2834 2853 
Q 2591 2978 2328 3040 
Q 2066 3103 1784 3103 
Q 1356 3103 1142 2972 
Q 928 2841 928 2578 
Q 928 2378 1081 2264 
Q 1234 2150 1697 2047 
L 1894 2003 
Q 2506 1872 2764 1633 
Q 3022 1394 3022 966 
Q 3022 478 2636 193 
Q 2250 -91 1575 -91 
Q 1294 -91 989 -36 
Q 684 19 347 128 
L 347 722 
Q 666 556 975 473 
Q 1284 391 1588 391 
Q 1994 391 2212 530 
Q 2431 669 2431 922 
Q 2431 1156 2273 1281 
Q 2116 1406 1581 1522 
L 1381 1569 
Q 847 1681 609 1914 
Q 372 2147 372 2553 
Q 372 3047 722 3315 
Q 1072 3584 1716 3584 
Q 2034 3584 2315 3537 
Q 2597 3491 2834 3397 
z
" transform="scale(0.015625)"/>
     </defs>
     <use xlink:href="#DejaVuSans-Oblique-45" transform="translate(0 0.09375)"/>
     <use xlink:href="#DejaVuSans-64" transform="translate(63.183594 -16.3125) scale(0.7)"/>
     <use xlink:href="#DejaVuSans-69" transform="translate(107.617188 -16.3125) scale(0.7)"/>
     <use xlink:href="#DejaVuSans-73" transform="translate(127.06543 -16.3125) scale(0.7)"/>
     <use xlink:href="#Calibri-2f" transform="translate(166.269531 0.09375)"/>
     <use xlink:href="#DejaVuSans-Oblique-45" transform="translate(204.892578 0.09375)"/>
     <use xlink:href="#DejaVuSans-69" transform="translate(268.076172 -16.3125) scale(0.7)"/>
    </g>
   </g>
  </g>
 </g>
 <defs>
  <clipPath id="p3c7f6af8ba">
   <rect x="57.6" y="41.472" width="285.696" height="266.112"/>
  </clipPath>
  <clipPath id="p7b586d77b0">
   <rect x="361.152" y="41.472" width="13.3056" height="266.112"/>
  </clipPath>
 </defs>
</svg>
