<?xml version="1.0" encoding="utf-8" standalone="no"?>
<!DOCTYPE svg PUBLIC "-//W3C//DTD SVG 1.1//EN"
  "http://www.w3.org/Graphics/SVG/1.1/DTD/svg11.dtd">
<svg xmlns:xlink="http://www.w3.org/1999/xlink" width="460.8pt" height="345.6pt" viewBox="0 0 460.8 345.6" xmlns="http://www.w3.org/2000/svg" version="1.1">
 <metadata>
  <rdf:RDF xmlns:dc="http://purl.org/dc/elements/1.1/" xmlns:cc="http://creativecommons.org/ns#" xmlns:rdf="http://www.w3.org/1999/02/22-rdf-syntax-ns#">
   <cc:Work>
    <dc:type rdf:resource="http://purl.org/dc/dcmitype/StillImage"/>
    <dc:date>2024-01-22T08:49:45.921397</dc:date>
    <dc:format>image/svg+xml</dc:format>
    <dc:creator>
     <cc:Agent>
      <dc:title>Matplotlib v3.7.1, https://matplotlib.org/</dc:title>
     </cc:Agent>
    </dc:creator>
   </cc:Work>
  </rdf:RDF>
 </metadata>
 <defs>
  <style type="text/css">*{stroke-linejoin: round; stroke-linecap: butt}</style>
 </defs>
 <g id="figure_1">
  <g id="patch_1">
   <path d="M 0 345.6 
L 460.8 345.6 
L 460.8 0 
L 0 0 
z
" style="fill: #ffffff"/>
  </g>
  <g id="axes_1">
   <g id="patch_2">
    <path d="M 57.6 307.584 
L 343.296 307.584 
L 343.296 41.472 
L 57.6 41.472 
z
" style="fill: #ffffff"/>
   </g>
   <g id="PathCollection_1">
    <path clip-path="url(#pdeea42cb4c)" style="fill: #0000b6"/>
   </g>
   <g id="PathCollection_2">
    <path clip-path="url(#pdeea42cb4c)" style="fill: #0018ff"/>
   </g>
   <g id="PathCollection_3">
    <path d="M 57.62857 70.309639 
L 57.88101 70.079129 
L 58.347731 69.653193 
L 58.98914 69.05748 
L 59.597652 68.485933 
L 59.725621 68.36675 
L 60.024947 68.0832 
L 60.767986 67.37513 
L 61.042617 67.10892 
L 61.109927 67.043823 
L 61.186484 66.968754 
L 62.588625 65.605845 
L 63.447482 64.7568 
L 63.679334 64.524459 
L 63.788549 64.413528 
L 64.680205 63.519154 
L 65.773071 62.40468 
L 66.030657 62.138916 
L 66.715559 61.4304 
L 67.222227 60.900071 
L 67.445374 60.662517 
L 67.641046 60.45612 
L 68.803587 59.215265 
L 69.815679 58.117633 
L 69.819978 58.113025 
L 69.828292 58.104 
L 70.83457 56.996284 
L 71.947504 55.75188 
L 72.15709 55.514677 
L 72.36381 55.282957 
L 72.807177 54.7776 
L 73.502213 53.975346 
L 73.650999 53.80332 
L 74.833057 52.41974 
L 75.64815 51.4512 
L 75.863798 51.191283 
L 75.99212 51.034801 
L 76.799737 50.060377 
L 77.584795 49.09908 
L 77.97676 48.613044 
L 78.105232 48.455366 
L 78.370131 48.1248 
L 78.966733 47.374298 
L 79.14167 47.15052 
L 79.355178 46.878333 
L 79.785772 46.323239 
L 80.665865 45.194882 
L 80.970733 44.7984 
L 81.800273 43.703791 
L 82.356412 42.961912 
L 82.564516 42.687008 
L 82.744219 42.44628 
L 83.323128 41.660581 
L 83.462536 41.472 
L 82.007962 41.472 
L 80.48425 41.472 
L 78.960538 41.472 
L 77.436826 41.472 
L 75.913114 41.472 
L 74.389402 41.472 
L 72.86569 41.472 
L 71.341978 41.472 
L 69.818266 41.472 
L 68.294554 41.472 
L 66.770842 41.472 
L 65.24713 41.472 
L 63.723418 41.472 
L 62.199706 41.472 
L 60.675994 41.472 
L 59.152282 41.472 
L 57.62857 41.472 
L 57.62857 44.7984 
L 57.62857 48.1248 
L 57.62857 51.4512 
L 57.62857 54.7776 
L 57.62857 58.104 
L 57.62857 61.4304 
L 57.62857 64.7568 
L 57.62857 68.0832 
" clip-path="url(#pdeea42cb4c)" style="fill: #0080ff"/>
   </g>
   <g id="PathCollection_4">
    <path d="M 83.462536 41.472 
L 83.323128 41.660581 
L 82.744219 42.44628 
L 82.564516 42.687008 
L 82.356412 42.961912 
L 81.800273 43.703791 
L 80.970733 44.7984 
L 80.665865 45.194882 
L 79.785772 46.323239 
L 79.355178 46.878333 
L 79.14167 47.15052 
L 78.966733 47.374298 
L 78.370131 48.1248 
L 78.105232 48.455366 
L 77.97676 48.613044 
L 77.584795 49.09908 
L 76.799737 50.060377 
L 75.99212 51.034801 
L 75.863798 51.191283 
L 75.64815 51.4512 
L 74.833057 52.41974 
L 73.650999 53.80332 
L 73.502213 53.975346 
L 72.807177 54.7776 
L 72.36381 55.282957 
L 72.15709 55.514677 
L 71.947504 55.75188 
L 70.83457 56.996284 
L 69.828292 58.104 
L 69.819978 58.113025 
L 69.815679 58.117633 
L 68.803587 59.215265 
L 67.641046 60.45612 
L 67.445374 60.662517 
L 67.222227 60.900071 
L 66.715559 61.4304 
L 66.030657 62.138916 
L 65.773071 62.40468 
L 64.680205 63.519154 
L 63.788549 64.413528 
L 63.679334 64.524459 
L 63.447482 64.7568 
L 62.588625 65.605845 
L 61.186484 66.968754 
L 61.109927 67.043823 
L 61.042617 67.10892 
L 60.767986 67.37513 
L 60.024947 68.0832 
L 59.725621 68.36675 
L 59.597652 68.485933 
L 58.98914 69.05748 
L 58.347731 69.653193 
L 57.88101 70.079129 
L 57.62857 70.309639 
L 57.62857 71.4096 
L 57.62857 74.736 
L 57.62857 78.0624 
L 57.62857 81.3888 
L 57.62857 84.7152 
L 57.62857 88.0416 
L 57.62857 91.368 
L 57.62857 94.6944 
L 57.62857 98.0208 
L 57.62857 101.3472 
L 57.62857 104.6736 
L 57.62857 108 
L 57.62857 111.3264 
L 57.62857 114.6528 
L 57.62857 117.08389 
L 57.815917 116.991796 
L 58.537745 116.637612 
L 60.136516 115.830529 
L 60.257008 115.770959 
L 60.540757 115.62708 
L 60.828116 115.481599 
L 61.890207 114.932668 
L 62.284951 114.729884 
L 62.319699 114.712144 
L 62.433553 114.6528 
L 64.213332 113.717973 
L 64.287731 113.67852 
L 65.923511 112.803002 
L 66.556742 112.454798 
L 66.94532 112.245979 
L 68.186142 111.563072 
L 68.359975 111.469221 
L 68.617459 111.3264 
L 69.702685 110.717237 
L 69.962124 110.568202 
L 70.783328 110.106817 
L 72.301844 109.230926 
L 72.451969 109.145908 
L 72.748109 108.97428 
L 74.362482 108.024343 
L 74.395116 108.005167 
L 74.403834 108 
L 75.777197 107.179215 
L 76.028874 107.02572 
L 76.325175 106.845348 
L 76.488596 106.743671 
L 77.969958 105.837477 
L 78.843695 105.289414 
L 79.052985 105.160839 
L 79.828981 104.6736 
L 80.336469 104.350981 
L 80.757738 104.07655 
L 81.771397 103.4268 
L 82.311636 103.073101 
L 82.687935 102.831644 
L 83.463803 102.32148 
L 84.124085 101.882897 
L 84.924503 101.3472 
L 85.869578 100.705606 
L 86.356008 100.37292 
L 87.343846 99.690315 
L 87.854586 99.329047 
L 88.293263 99.024574 
L 89.586066 98.109117 
L 89.647381 98.066337 
L 89.71114 98.0208 
L 90.976533 97.105322 
L 91.380472 96.807341 
L 91.93434 96.406174 
L 92.929598 95.66868 
L 93.379094 95.332042 
L 93.612502 95.158572 
L 94.224947 94.6944 
L 94.814258 94.24578 
L 95.035397 94.074099 
L 95.494929 93.72012 
L 96.456003 92.971771 
L 97.02701 92.517332 
L 97.406786 92.220253 
L 98.476366 91.368 
L 98.689838 91.195632 
L 98.943651 90.986271 
L 100.049178 90.085556 
L 100.62673 89.606489 
L 100.905253 89.379282 
L 101.341321 89.01588 
L 102.144839 88.338761 
L 102.494061 88.0416 
L 103.101574 87.521248 
L 103.33993 87.31076 
L 103.33993 84.7152 
L 103.33993 81.3888 
L 103.33993 78.0624 
L 103.33993 74.736 
L 103.33993 71.4096 
L 103.33993 68.0832 
L 103.33993 64.7568 
L 103.33993 61.4304 
L 103.33993 58.104 
L 103.33993 54.7776 
L 103.33993 51.4512 
L 103.33993 48.1248 
L 103.33993 44.7984 
L 103.33993 41.472 
L 101.816218 41.472 
L 100.292506 41.472 
L 98.768794 41.472 
L 97.245082 41.472 
L 95.72137 41.472 
L 94.197658 41.472 
L 92.673946 41.472 
L 91.150234 41.472 
L 89.626522 41.472 
L 88.10281 41.472 
L 86.579098 41.472 
L 85.055386 41.472 
L 83.531674 41.472 
" clip-path="url(#pdeea42cb4c)" style="fill: #00e4f8"/>
   </g>
   <g id="PathCollection_5">
    <path d="M 103.33993 87.31076 
L 103.101574 87.521248 
L 102.494061 88.0416 
L 102.144839 88.338761 
L 101.341321 89.01588 
L 100.905253 89.379282 
L 100.62673 89.606489 
L 100.049178 90.085556 
L 98.943651 90.986271 
L 98.689838 91.195632 
L 98.476366 91.368 
L 97.406786 92.220253 
L 97.02701 92.517332 
L 96.456003 92.971771 
L 95.494929 93.72012 
L 95.035397 94.074099 
L 94.814258 94.24578 
L 94.224947 94.6944 
L 93.612502 95.158572 
L 93.379094 95.332042 
L 92.929598 95.66868 
L 91.93434 96.406174 
L 91.380472 96.807341 
L 90.976533 97.105322 
L 89.71114 98.0208 
L 89.647381 98.066337 
L 89.586066 98.109117 
L 88.293263 99.024574 
L 87.854586 99.329047 
L 87.343846 99.690315 
L 86.356008 100.37292 
L 85.869578 100.705606 
L 84.924503 101.3472 
L 84.124085 101.882897 
L 83.463803 102.32148 
L 82.687935 102.831644 
L 82.311636 103.073101 
L 81.771397 103.4268 
L 80.757738 104.07655 
L 80.336469 104.350981 
L 79.828981 104.6736 
L 79.052985 105.160839 
L 78.843695 105.289414 
L 77.969958 105.837477 
L 76.488596 106.743671 
L 76.325175 106.845348 
L 76.028874 107.02572 
L 75.777197 107.179215 
L 74.403834 108 
L 74.395116 108.005167 
L 74.362482 108.024343 
L 72.748109 108.97428 
L 72.451969 109.145908 
L 72.301844 109.230926 
L 70.783328 110.106817 
L 69.962124 110.568202 
L 69.702685 110.717237 
L 68.617459 111.3264 
L 68.359975 111.469221 
L 68.186142 111.563072 
L 66.94532 112.245979 
L 66.556742 112.454798 
L 65.923511 112.803002 
L 64.287731 113.67852 
L 64.213332 113.717973 
L 62.433553 114.6528 
L 62.319699 114.712144 
L 62.284951 114.729884 
L 61.890207 114.932668 
L 60.828116 115.481599 
L 60.540757 115.62708 
L 60.257008 115.770959 
L 60.136516 115.830529 
L 58.537745 116.637612 
L 57.815917 116.991796 
L 57.62857 117.08389 
L 57.62857 117.9792 
L 57.62857 121.3056 
L 57.62857 124.632 
L 57.62857 127.9584 
L 57.62857 131.2848 
L 57.62857 134.6112 
L 57.62857 137.9376 
L 57.62857 141.264 
L 57.62857 144.5904 
L 57.62857 147.9168 
L 57.62857 151.2432 
L 57.62857 154.5696 
L 57.62857 155.330837 
L 57.944538 155.259387 
L 58.55216 155.112269 
L 59.50212 154.885947 
L 59.698027 154.839503 
L 60.803107 154.5696 
L 61.901485 154.299929 
L 62.726437 154.093295 
L 63.608039 153.873096 
L 64.290273 153.704348 
L 64.722321 153.59532 
L 66.157454 153.23052 
L 66.406381 153.164068 
L 67.101647 152.98669 
L 67.550887 152.86669 
L 68.882041 152.525739 
L 69.612187 152.329325 
L 70.005175 152.228294 
L 71.015286 151.956396 
L 71.599586 151.805582 
L 72.821856 151.474222 
L 72.905416 151.452573 
L 73.677218 151.2432 
L 74.309984 151.069824 
L 74.492877 151.017303 
L 75.801714 150.656073 
L 76.037409 150.588107 
L 77.013289 150.318582 
L 77.989855 150.035887 
L 78.694279 149.839901 
L 79.257882 149.676063 
L 79.708878 149.550495 
L 81.498915 149.028094 
L 81.583188 149.004455 
L 81.970024 148.89108 
L 82.691509 148.676532 
L 83.956844 148.301267 
L 85.230174 147.9168 
L 86.238688 147.608979 
L 87.275776 147.286818 
L 88.387051 146.94252 
L 88.539971 146.894435 
L 88.576616 146.882438 
L 90.411015 146.30302 
L 90.852953 146.1572 
L 91.413763 145.979319 
L 92.148944 145.736526 
L 93.065213 145.444573 
L 94.101007 145.099792 
L 94.283244 145.041479 
L 95.637132 144.5904 
L 95.71011 144.565819 
L 95.736948 144.556392 
L 97.147739 144.077363 
L 97.356396 144.003723 
L 98.34599 143.667383 
L 99.35551 143.309546 
L 100.007116 143.08627 
L 100.619262 142.868249 
L 100.971946 142.747279 
L 102.39478 142.23828 
L 102.751361 142.109617 
L 102.993328 142.020662 
L 103.33993 141.891533 
L 103.33993 141.264 
L 103.33993 137.9376 
L 103.33993 134.6112 
L 103.33993 131.2848 
L 103.33993 127.9584 
L 103.33993 124.632 
L 103.33993 121.3056 
L 103.33993 117.9792 
L 103.33993 114.6528 
L 103.33993 111.3264 
L 103.33993 108 
L 103.33993 104.6736 
L 103.33993 101.3472 
L 103.33993 98.0208 
L 103.33993 94.6944 
L 103.33993 91.368 
L 103.33993 88.0416 
" clip-path="url(#pdeea42cb4c)" style="fill: #53ffa4"/>
   </g>
   <g id="PathCollection_6">
    <path d="M 103.33993 141.891533 
L 102.993328 142.020662 
L 102.751361 142.109617 
L 102.39478 142.23828 
L 100.971946 142.747279 
L 100.619262 142.868249 
L 100.007116 143.08627 
L 99.35551 143.309546 
L 98.34599 143.667383 
L 97.356396 144.003723 
L 97.147739 144.077363 
L 95.736948 144.556392 
L 95.71011 144.565819 
L 95.637132 144.5904 
L 94.283244 145.041479 
L 94.101007 145.099792 
L 93.065213 145.444573 
L 92.148944 145.736526 
L 91.413763 145.979319 
L 90.852953 146.1572 
L 90.411015 146.30302 
L 88.576616 146.882438 
L 88.539971 146.894435 
L 88.387051 146.94252 
L 87.275776 147.286818 
L 86.238688 147.608979 
L 85.230174 147.9168 
L 83.956844 148.301267 
L 82.691509 148.676532 
L 81.970024 148.89108 
L 81.583188 149.004455 
L 81.498915 149.028094 
L 79.708878 149.550495 
L 79.257882 149.676063 
L 78.694279 149.839901 
L 77.989855 150.035887 
L 77.013289 150.318582 
L 76.037409 150.588107 
L 75.801714 150.656073 
L 74.492877 151.017303 
L 74.309984 151.069824 
L 73.677218 151.2432 
L 72.905416 151.452573 
L 72.821856 151.474222 
L 71.599586 151.805582 
L 71.015286 151.956396 
L 70.005175 152.228294 
L 69.612187 152.329325 
L 68.882041 152.525739 
L 67.550887 152.86669 
L 67.101647 152.98669 
L 66.406381 153.164068 
L 66.157454 153.23052 
L 64.722321 153.59532 
L 64.290273 153.704348 
L 63.608039 153.873096 
L 62.726437 154.093295 
L 61.901485 154.299929 
L 60.803107 154.5696 
L 59.698027 154.839503 
L 59.50212 154.885947 
L 58.55216 155.112269 
L 57.944538 155.259387 
L 57.62857 155.330837 
L 57.62857 157.896 
L 57.62857 161.2224 
L 57.62857 164.5488 
L 57.62857 167.8752 
L 57.62857 171.2016 
L 57.62857 174.528 
L 57.62857 177.8544 
L 57.62857 181.1808 
L 57.62857 184.5072 
L 57.62857 187.8336 
L 57.62857 188.602796 
L 57.972157 188.583683 
L 58.351077 188.558101 
L 59.848677 188.463327 
L 61.097026 188.37894 
L 61.634538 188.344662 
L 62.690776 188.277658 
L 64.612665 188.14738 
L 64.921999 188.127605 
L 65.529538 188.088972 
L 65.736983 188.075862 
L 68.213585 187.906817 
L 68.364858 187.897174 
L 69.29742 187.8336 
L 71.093518 187.710722 
L 71.197616 187.703059 
L 71.511761 187.68007 
L 71.676697 187.668061 
L 74.027231 187.506102 
L 74.815584 187.448218 
L 76.432572 187.336937 
L 76.853114 187.305769 
L 78.124086 187.212134 
L 79.092481 187.145288 
L 79.675144 187.101954 
L 81.437424 186.971677 
L 82.365002 186.903457 
L 82.493198 186.894542 
L 82.968 186.85932 
L 84.554864 186.740916 
L 84.632843 186.734187 
L 85.466111 186.671904 
L 85.592511 186.661007 
L 87.500244 186.518146 
L 87.724953 186.49867 
L 88.47006 186.442774 
L 88.751046 186.418442 
L 90.443721 186.29122 
L 90.81792 186.258642 
L 91.473186 186.209303 
L 91.911743 186.171157 
L 93.385229 186.059995 
L 93.911772 186.013946 
L 94.47546 185.971343 
L 95.074678 185.918985 
L 96.3247 185.824324 
L 97.006541 185.764417 
L 97.476852 185.728736 
L 98.239933 185.66175 
L 99.262062 185.584049 
L 100.10226 185.509881 
L 100.477332 185.481315 
L 101.407591 185.399268 
L 102.19724 185.339005 
L 103.198963 185.250156 
L 103.33993 185.23806 
L 103.33993 184.5072 
L 103.33993 181.1808 
L 103.33993 177.8544 
L 103.33993 174.528 
L 103.33993 171.2016 
L 103.33993 167.8752 
L 103.33993 164.5488 
L 103.33993 161.2224 
L 103.33993 157.896 
L 103.33993 154.5696 
L 103.33993 151.2432 
L 103.33993 147.9168 
L 103.33993 144.5904 
" clip-path="url(#pdeea42cb4c)" style="fill: #a4ff53"/>
   </g>
   <g id="PathCollection_7">
    <path d="M 103.33993 185.23806 
L 103.198963 185.250156 
L 102.19724 185.339005 
L 101.407591 185.399268 
L 100.477332 185.481315 
L 100.10226 185.509881 
L 99.262062 185.584049 
L 98.239933 185.66175 
L 97.476852 185.728736 
L 97.006541 185.764417 
L 96.3247 185.824324 
L 95.074678 185.918985 
L 94.47546 185.971343 
L 93.911772 186.013946 
L 93.385229 186.059995 
L 91.911743 186.171157 
L 91.473186 186.209303 
L 90.81792 186.258642 
L 90.443721 186.29122 
L 88.751046 186.418442 
L 88.47006 186.442774 
L 87.724953 186.49867 
L 87.500244 186.518146 
L 85.592511 186.661007 
L 85.466111 186.671904 
L 84.632843 186.734187 
L 84.554864 186.740916 
L 82.968 186.85932 
L 82.493198 186.894542 
L 82.365002 186.903457 
L 81.437424 186.971677 
L 79.675144 187.101954 
L 79.092481 187.145288 
L 78.124086 187.212134 
L 76.853114 187.305769 
L 76.432572 187.336937 
L 74.815584 187.448218 
L 74.027231 187.506102 
L 71.676697 187.668061 
L 71.511761 187.68007 
L 71.197616 187.703059 
L 71.093518 187.710722 
L 69.29742 187.8336 
L 68.364858 187.897174 
L 68.213585 187.906817 
L 65.736983 188.075862 
L 65.529538 188.088972 
L 64.921999 188.127605 
L 64.612665 188.14738 
L 62.690776 188.277658 
L 61.634538 188.344662 
L 61.097026 188.37894 
L 59.848677 188.463327 
L 58.351077 188.558101 
L 57.972157 188.583683 
L 57.62857 188.602796 
L 57.62857 191.16 
L 57.62857 194.4864 
L 57.62857 197.8128 
L 57.62857 201.1392 
L 57.62857 204.4656 
L 57.62857 207.792 
L 57.62857 211.1184 
L 57.62857 214.4448 
L 57.62857 217.7712 
L 57.62857 218.974629 
L 57.860091 218.99142 
L 58.573874 219.033916 
L 59.768498 219.116456 
L 60.41339 219.155236 
L 60.945624 219.192273 
L 61.532512 219.227743 
L 62.911161 219.324371 
L 63.422797 219.355605 
L 64.032201 219.398625 
L 64.488827 219.426642 
L 66.056493 219.538112 
L 66.431186 219.561336 
L 67.119856 219.610661 
L 67.442745 219.630775 
L 69.204587 219.757885 
L 69.438524 219.772608 
L 70.208626 219.828574 
L 70.394187 219.840312 
L 72.355541 219.9839 
L 72.444776 219.989603 
L 73.29855 220.052568 
L 73.343074 220.055428 
L 74.256885 220.12332 
L 75.375238 220.206142 
L 76.085455 220.258801 
L 76.549658 220.295365 
L 78.187837 220.418486 
L 78.727836 220.459119 
L 79.880009 220.551206 
L 80.994475 220.636221 
L 82.91208 220.791174 
L 83.219068 220.814922 
L 83.794964 220.859516 
L 83.983522 220.874134 
L 86.567184 221.086827 
L 86.589105 221.08855 
L 86.596258 221.089113 
L 86.697818 221.0976 
L 89.379273 221.321178 
L 89.927106 221.369408 
L 91.804307 221.527688 
L 92.16292 221.559703 
L 93.297045 221.661047 
L 93.927181 221.717399 
L 94.939726 221.804413 
L 96.677321 221.962034 
L 97.647309 222.050091 
L 97.709465 222.055515 
L 97.88716 222.07188 
L 99.767215 222.244356 
L 99.881165 222.25605 
L 100.689666 222.330787 
L 100.8657 222.348936 
L 102.688943 222.518762 
L 102.984271 222.549523 
L 103.33993 222.580735 
L 103.33993 221.0976 
L 103.33993 217.7712 
L 103.33993 214.4448 
L 103.33993 211.1184 
L 103.33993 207.792 
L 103.33993 204.4656 
L 103.33993 201.1392 
L 103.33993 197.8128 
L 103.33993 194.4864 
L 103.33993 191.16 
L 103.33993 187.8336 
" clip-path="url(#pdeea42cb4c)" style="fill: #f8f500"/>
   </g>
   <g id="PathCollection_8">
    <path d="M 103.33993 222.580735 
L 102.984271 222.549523 
L 102.688943 222.518762 
L 100.8657 222.348936 
L 100.689666 222.330787 
L 99.881165 222.25605 
L 99.767215 222.244356 
L 97.88716 222.07188 
L 97.709465 222.055515 
L 97.647309 222.050091 
L 96.677321 221.962034 
L 94.939726 221.804413 
L 93.927181 221.717399 
L 93.297045 221.661047 
L 92.16292 221.559703 
L 91.804307 221.527688 
L 89.927106 221.369408 
L 89.379273 221.321178 
L 86.697818 221.0976 
L 86.596258 221.089113 
L 86.589105 221.08855 
L 86.567184 221.086827 
L 83.983522 220.874134 
L 83.794964 220.859516 
L 83.219068 220.814922 
L 82.91208 220.791174 
L 80.994475 220.636221 
L 79.880009 220.551206 
L 78.727836 220.459119 
L 78.187837 220.418486 
L 76.549658 220.295365 
L 76.085455 220.258801 
L 75.375238 220.206142 
L 74.256885 220.12332 
L 73.343074 220.055428 
L 73.29855 220.052568 
L 72.444776 219.989603 
L 72.355541 219.9839 
L 70.394187 219.840312 
L 70.208626 219.828574 
L 69.438524 219.772608 
L 69.204587 219.757885 
L 67.442745 219.630775 
L 67.119856 219.610661 
L 66.431186 219.561336 
L 66.056493 219.538112 
L 64.488827 219.426642 
L 64.032201 219.398625 
L 63.422797 219.355605 
L 62.911161 219.324371 
L 61.532512 219.227743 
L 60.945624 219.192273 
L 60.41339 219.155236 
L 59.768498 219.116456 
L 58.573874 219.033916 
L 57.860091 218.99142 
L 57.62857 218.974629 
L 57.62857 221.0976 
L 57.62857 224.424 
L 57.62857 227.7504 
L 57.62857 231.0768 
L 57.62857 234.4032 
L 57.62857 237.7296 
L 57.62857 241.056 
L 57.62857 244.3824 
L 57.62857 247.7088 
L 57.62857 247.979405 
L 57.7628 248.001837 
L 58.66396 248.150373 
L 59.864318 248.35267 
L 60.759231 248.503531 
L 61.233502 248.582505 
L 61.824075 248.68308 
L 63.171972 248.912655 
L 63.325903 248.940122 
L 64.095918 249.071956 
L 64.370336 249.121081 
L 65.995781 249.400827 
L 66.477212 249.487642 
L 67.045806 249.586015 
L 67.683585 249.7014 
L 68.815354 249.898246 
L 69.63074 250.046857 
L 69.993748 250.110331 
L 71.002852 250.294858 
L 71.630558 250.405203 
L 72.786566 250.618181 
L 72.939679 250.645242 
L 74.328361 250.901943 
L 74.441253 250.922004 
L 75.048997 251.0352 
L 75.883631 251.190585 
L 75.944852 251.202475 
L 77.248647 251.44601 
L 77.661976 251.526723 
L 78.825722 251.745737 
L 79.105787 251.800727 
L 80.051764 251.979354 
L 81.00274 252.167111 
L 81.765654 252.31227 
L 82.269239 252.412249 
L 82.850097 252.523144 
L 84.350461 252.822686 
L 84.703351 252.890579 
L 85.435303 253.037533 
L 85.643486 253.077724 
L 87.176822 253.38732 
L 87.569017 253.46645 
L 87.993119 253.553786 
L 88.94875 253.748714 
L 90.054731 253.974385 
L 90.305821 254.025646 
L 91.913815 254.3616 
L 92.531352 254.490543 
L 92.904448 254.570036 
L 93.240026 254.64156 
L 95.000567 255.013396 
L 96.496752 255.33588 
L 96.771678 255.395082 
L 96.811735 255.404069 
L 97.644219 255.58437 
L 97.823705 255.624786 
L 99.542387 255.999176 
L 99.991413 256.101107 
L 100.569563 256.227786 
L 101.21467 256.374767 
L 102.307442 256.615612 
L 103.174237 256.814726 
L 103.33993 256.851146 
L 103.33993 254.3616 
L 103.33993 251.0352 
L 103.33993 247.7088 
L 103.33993 244.3824 
L 103.33993 241.056 
L 103.33993 237.7296 
L 103.33993 234.4032 
L 103.33993 231.0768 
L 103.33993 227.7504 
L 103.33993 224.424 
" clip-path="url(#pdeea42cb4c)" style="fill: #ff9400"/>
   </g>
   <g id="PathCollection_9">
    <path d="M 103.33993 256.851146 
L 103.174237 256.814726 
L 102.307442 256.615612 
L 101.21467 256.374767 
L 100.569563 256.227786 
L 99.991413 256.101107 
L 99.542387 255.999176 
L 97.823705 255.624786 
L 97.644219 255.58437 
L 96.811735 255.404069 
L 96.771678 255.395082 
L 96.496752 255.33588 
L 95.000567 255.013396 
L 93.240026 254.64156 
L 92.904448 254.570036 
L 92.531352 254.490543 
L 91.913815 254.3616 
L 90.305821 254.025646 
L 90.054731 253.974385 
L 88.94875 253.748714 
L 87.993119 253.553786 
L 87.569017 253.46645 
L 87.176822 253.38732 
L 85.643486 253.077724 
L 85.435303 253.037533 
L 84.703351 252.890579 
L 84.350461 252.822686 
L 82.850097 252.523144 
L 82.269239 252.412249 
L 81.765654 252.31227 
L 81.00274 252.167111 
L 80.051764 251.979354 
L 79.105787 251.800727 
L 78.825722 251.745737 
L 77.661976 251.526723 
L 77.248647 251.44601 
L 75.944852 251.202475 
L 75.883631 251.190585 
L 75.048997 251.0352 
L 74.441253 250.922004 
L 74.328361 250.901943 
L 72.939679 250.645242 
L 72.786566 250.618181 
L 71.630558 250.405203 
L 71.002852 250.294858 
L 69.993748 250.110331 
L 69.63074 250.046857 
L 68.815354 249.898246 
L 67.683585 249.7014 
L 67.045806 249.586015 
L 66.477212 249.487642 
L 65.995781 249.400827 
L 64.370336 249.121081 
L 64.095918 249.071956 
L 63.325903 248.940122 
L 63.171972 248.912655 
L 61.824075 248.68308 
L 61.233502 248.582505 
L 60.759231 248.503531 
L 59.864318 248.35267 
L 58.66396 248.150373 
L 57.7628 248.001837 
L 57.62857 247.979405 
L 57.62857 251.0352 
L 57.62857 254.3616 
L 57.62857 257.688 
L 57.62857 261.0144 
L 57.62857 264.3408 
L 57.62857 267.6672 
L 57.62857 270.9936 
L 57.62857 274.32 
L 57.62857 277.162077 
L 57.716447 277.183245 
L 59.100472 277.533295 
L 59.193498 277.55642 
L 59.547164 277.6464 
L 60.623715 277.921934 
L 60.733725 277.95067 
L 61.920734 278.255421 
L 62.554909 278.421841 
L 63.528583 278.673267 
L 63.938769 278.781397 
L 64.643593 278.963974 
L 66.017319 279.327793 
L 66.43135 279.435674 
L 67.146432 279.625929 
L 67.361988 279.682274 
L 68.545013 279.99852 
L 69.182745 280.16964 
L 70.369407 280.491806 
L 70.99819 280.661924 
L 71.527305 280.805215 
L 71.62645 280.832112 
L 72.138834 280.9728 
L 73.586079 281.37009 
L 73.864524 281.447429 
L 75.380949 281.869422 
L 75.536628 281.91256 
L 75.65973 281.94708 
L 76.324027 282.133506 
L 76.463007 282.173266 
L 78.187884 282.659572 
L 78.676103 282.800105 
L 79.215955 282.953036 
L 79.966991 283.169977 
L 80.882191 283.430457 
L 81.899218 283.726075 
L 82.105511 283.785074 
L 83.479797 284.185949 
L 83.571482 284.212295 
L 83.86752 284.2992 
L 84.992425 284.63103 
L 85.125961 284.671163 
L 86.255549 285.005535 
L 87.00656 285.232388 
L 87.876579 285.491534 
L 88.356693 285.637278 
L 88.934481 285.809986 
L 90.543435 286.300903 
L 90.758179 286.365502 
L 91.590728 286.620803 
L 91.608096 286.626046 
L 91.690088 286.65132 
L 93.226235 287.126184 
L 94.823192 287.6256 
L 95.373188 287.797797 
L 95.490037 287.834786 
L 96.202838 288.060975 
L 97.230961 288.386149 
L 97.745663 288.550781 
L 97.898795 288.59988 
L 99.596229 289.145635 
L 99.973216 289.269204 
L 100.574898 289.463664 
L 101.233772 289.680468 
L 102.24778 290.009861 
L 103.222433 290.332739 
L 103.33993 290.371563 
L 103.33993 287.6256 
L 103.33993 284.2992 
L 103.33993 280.9728 
L 103.33993 277.6464 
L 103.33993 274.32 
L 103.33993 270.9936 
L 103.33993 267.6672 
L 103.33993 264.3408 
L 103.33993 261.0144 
L 103.33993 257.688 
" clip-path="url(#pdeea42cb4c)" style="fill: #ff3800"/>
   </g>
   <g id="PathCollection_10">
    <path d="M 103.33993 290.371563 
L 103.222433 290.332739 
L 102.24778 290.009861 
L 101.233772 289.680468 
L 100.574898 289.463664 
L 99.973216 289.269204 
L 99.596229 289.145635 
L 97.898795 288.59988 
L 97.745663 288.550781 
L 97.230961 288.386149 
L 96.202838 288.060975 
L 95.490037 287.834786 
L 95.373188 287.797797 
L 94.823192 287.6256 
L 93.226235 287.126184 
L 91.690088 286.65132 
L 91.608096 286.626046 
L 91.590728 286.620803 
L 90.758179 286.365502 
L 90.543435 286.300903 
L 88.934481 285.809986 
L 88.356693 285.637278 
L 87.876579 285.491534 
L 87.00656 285.232388 
L 86.255549 285.005535 
L 85.125961 284.671163 
L 84.992425 284.63103 
L 83.86752 284.2992 
L 83.571482 284.212295 
L 83.479797 284.185949 
L 82.105511 283.785074 
L 81.899218 283.726075 
L 80.882191 283.430457 
L 79.966991 283.169977 
L 79.215955 282.953036 
L 78.676103 282.800105 
L 78.187884 282.659572 
L 76.463007 282.173266 
L 76.324027 282.133506 
L 75.65973 281.94708 
L 75.536628 281.91256 
L 75.380949 281.869422 
L 73.864524 281.447429 
L 73.586079 281.37009 
L 72.138834 280.9728 
L 71.62645 280.832112 
L 71.527305 280.805215 
L 70.99819 280.661924 
L 70.369407 280.491806 
L 69.182745 280.16964 
L 68.545013 279.99852 
L 67.361988 279.682274 
L 67.146432 279.625929 
L 66.43135 279.435674 
L 66.017319 279.327793 
L 64.643593 278.963974 
L 63.938769 278.781397 
L 63.528583 278.673267 
L 62.554909 278.421841 
L 61.920734 278.255421 
L 60.733725 277.95067 
L 60.623715 277.921934 
L 59.547164 277.6464 
L 59.193498 277.55642 
L 59.100472 277.533295 
L 57.716447 277.183245 
L 57.62857 277.162077 
L 57.62857 277.6464 
L 57.62857 280.9728 
L 57.62857 284.2992 
L 57.62857 287.6256 
L 57.62857 290.952 
L 57.62857 294.2784 
L 57.62857 297.6048 
L 57.62857 300.9312 
L 57.62857 304.2576 
L 57.62857 307.584 
L 59.152282 307.584 
L 60.675994 307.584 
L 62.199706 307.584 
L 63.723418 307.584 
L 65.24713 307.584 
L 66.770842 307.584 
L 68.294554 307.584 
L 69.818266 307.584 
L 71.341978 307.584 
L 72.86569 307.584 
L 74.389402 307.584 
L 75.913114 307.584 
L 77.436826 307.584 
L 78.960538 307.584 
L 80.48425 307.584 
L 82.007962 307.584 
L 83.531674 307.584 
L 85.055386 307.584 
L 86.579098 307.584 
L 88.10281 307.584 
L 89.626522 307.584 
L 91.150234 307.584 
L 92.673946 307.584 
L 94.197658 307.584 
L 95.72137 307.584 
L 97.245082 307.584 
L 98.768794 307.584 
L 100.292506 307.584 
L 101.816218 307.584 
L 103.33993 307.584 
L 103.33993 304.2576 
L 103.33993 300.9312 
L 103.33993 297.6048 
L 103.33993 294.2784 
L 103.33993 290.952 
" clip-path="url(#pdeea42cb4c)" style="fill: #b60000"/>
   </g>
   <g id="PathCollection_11">
    <path clip-path="url(#pdeea42cb4c)" style="fill: #0000b6"/>
   </g>
   <g id="PathCollection_12">
    <path clip-path="url(#pdeea42cb4c)" style="fill: #0018ff"/>
   </g>
   <g id="PathCollection_13">
    <path clip-path="url(#pdeea42cb4c)" style="fill: #0080ff"/>
   </g>
   <g id="PathCollection_14">
    <path d="M 100.4544 89.700138 
L 101.58294 88.809616 
L 105.07164 85.824 
L 106.989766 84.11522 
L 111.824215 79.55168 
L 112.592794 78.789047 
L 114.480241 76.9536 
L 116.227682 75.047402 
L 116.89681 74.35552 
L 118.399916 72.728997 
L 122.539019 68.0832 
L 123.601421 66.837094 
L 127.683565 61.81088 
L 128.39957 60.874553 
L 129.721798 59.2128 
L 131.409624 56.84987 
L 131.562772 56.61472 
L 133.934805 53.256547 
L 135.934815 50.3424 
L 138.019389 47.155071 
L 139.957759 44.07008 
L 141.360266 41.668208 
L 141.475459 41.472 
L 140.928 41.472 
L 132.83328 41.472 
L 124.73856 41.472 
L 116.64384 41.472 
L 108.54912 41.472 
L 100.4544 41.472 
L 100.4544 50.3424 
L 100.4544 59.2128 
L 100.4544 68.0832 
L 100.4544 76.9536 
L 100.4544 85.824 
" clip-path="url(#pdeea42cb4c)" style="fill: #00e4f8"/>
   </g>
   <g id="PathCollection_15">
    <path d="M 141.475459 41.472 
L 141.360266 41.668208 
L 139.957759 44.07008 
L 138.019389 47.155071 
L 135.934815 50.3424 
L 133.934805 53.256547 
L 131.562772 56.61472 
L 131.409624 56.84987 
L 129.721798 59.2128 
L 128.39957 60.874553 
L 127.683565 61.81088 
L 123.601421 66.837094 
L 122.539019 68.0832 
L 118.399916 72.728997 
L 116.89681 74.35552 
L 116.227682 75.047402 
L 114.480241 76.9536 
L 112.592794 78.789047 
L 111.824215 79.55168 
L 106.989766 84.11522 
L 105.07164 85.824 
L 101.58294 88.809616 
L 100.4544 89.700138 
L 100.4544 94.6944 
L 100.4544 103.5648 
L 100.4544 112.4352 
L 100.4544 121.3056 
L 100.4544 130.176 
L 100.4544 139.0464 
L 100.4544 142.885239 
L 101.748154 142.4691 
L 107.355624 140.354263 
L 109.164474 139.720721 
L 110.87363 139.0464 
L 115.873269 137.007812 
L 117.727297 136.180052 
L 120.924969 134.867371 
L 125.498352 132.77408 
L 127.927776 131.623603 
L 128.863668 131.200055 
L 130.911717 130.176 
L 135.561803 127.740252 
L 135.865089 127.57792 
L 143.022694 123.601019 
L 146.779536 121.3056 
L 148.588636 120.157207 
L 149.757175 119.362558 
L 153.281862 117.102476 
L 156.23548 115.03328 
L 158.764086 113.182622 
L 159.1255 112.9337 
L 159.779629 112.4352 
L 163.024258 109.882546 
L 163.076104 109.83712 
L 166.515379 107.012539 
L 170.47478 103.5648 
L 172.02303 102.157925 
L 176.997192 97.29248 
L 177.618276 96.651368 
L 179.541876 94.6944 
L 181.355305 92.673399 
L 181.818398 92.09632 
L 183.181463 90.532727 
L 187.101095 85.824 
L 188.21565 84.420609 
L 191.849078 79.55168 
L 192.660024 78.389623 
L 193.70224 76.9536 
L 194.455765 75.722421 
L 195.364385 74.35552 
L 198.243555 69.809466 
L 199.297646 68.0832 
L 201.779011 63.802085 
L 202.874156 61.81088 
L 203.740728 60.095661 
L 203.995314 59.632452 
L 204.245184 59.2128 
L 204.506074 58.677334 
L 205.588634 56.61472 
L 207.597615 52.437459 
L 208.559405 50.3424 
L 211.158078 44.345695 
L 211.282831 44.07008 
L 211.302714 44.021568 
L 212.366387 41.472 
L 205.68576 41.472 
L 197.59104 41.472 
L 189.49632 41.472 
L 181.4016 41.472 
L 173.30688 41.472 
L 165.21216 41.472 
L 157.11744 41.472 
L 149.02272 41.472 
" clip-path="url(#pdeea42cb4c)" style="fill: #53ffa4"/>
   </g>
   <g id="PathCollection_16">
    <path d="M 212.366387 41.472 
L 211.302714 44.021568 
L 211.282831 44.07008 
L 211.158078 44.345695 
L 208.559405 50.3424 
L 207.597615 52.437459 
L 205.588634 56.61472 
L 204.506074 58.677334 
L 204.245184 59.2128 
L 203.995314 59.632452 
L 203.740728 60.095661 
L 202.874156 61.81088 
L 201.779011 63.802085 
L 199.297646 68.0832 
L 198.243555 69.809466 
L 195.364385 74.35552 
L 194.455765 75.722421 
L 193.70224 76.9536 
L 192.660024 78.389623 
L 191.849078 79.55168 
L 188.21565 84.420609 
L 187.101095 85.824 
L 183.181463 90.532727 
L 181.818398 92.09632 
L 181.355305 92.673399 
L 179.541876 94.6944 
L 177.618276 96.651368 
L 176.997192 97.29248 
L 172.02303 102.157925 
L 170.47478 103.5648 
L 166.515379 107.012539 
L 163.076104 109.83712 
L 163.024258 109.882546 
L 159.779629 112.4352 
L 159.1255 112.9337 
L 158.764086 113.182622 
L 156.23548 115.03328 
L 153.281862 117.102476 
L 149.757175 119.362558 
L 148.588636 120.157207 
L 146.779536 121.3056 
L 143.022694 123.601019 
L 135.865089 127.57792 
L 135.561803 127.740252 
L 130.911717 130.176 
L 128.863668 131.200055 
L 127.927776 131.623603 
L 125.498352 132.77408 
L 120.924969 134.867371 
L 117.727297 136.180052 
L 115.873269 137.007812 
L 110.87363 139.0464 
L 109.164474 139.720721 
L 107.355624 140.354263 
L 101.748154 142.4691 
L 100.4544 142.885239 
L 100.4544 147.9168 
L 100.4544 156.7872 
L 100.4544 165.6576 
L 100.4544 174.528 
L 100.4544 183.3984 
L 100.4544 185.458965 
L 102.22595 185.339709 
L 104.806902 185.097014 
L 111.145953 184.577117 
L 123.502799 183.3984 
L 124.391002 183.312119 
L 124.515988 183.297373 
L 125.110323 183.229655 
L 125.669605 183.167269 
L 137.689604 181.928473 
L 146.448298 180.892705 
L 146.854246 180.850569 
L 147.246702 180.80032 
L 151.208691 180.311109 
L 151.950417 180.190156 
L 161.216121 179.019439 
L 163.673277 178.599202 
L 166.607744 178.220097 
L 170.556892 177.541506 
L 175.463277 176.891035 
L 180.879158 175.910149 
L 181.872966 175.775026 
L 188.714021 174.528 
L 189.381478 174.402154 
L 189.676267 174.33081 
L 196.964966 172.871685 
L 198.34872 172.523514 
L 202.999133 171.583926 
L 210.05525 169.739802 
L 211.825883 169.357003 
L 215.855198 168.25568 
L 216.721376 167.99695 
L 222.961875 166.150848 
L 223.383078 166.03193 
L 224.486824 165.6576 
L 230.611235 163.488885 
L 231.86088 163.05952 
L 232.280913 162.901063 
L 232.625415 162.747641 
L 240.590152 159.55472 
L 246.144232 156.827222 
L 246.170294 156.816125 
L 246.227563 156.7872 
L 251.646169 153.929385 
L 257.036412 150.51488 
L 258.230194 149.721581 
L 260.797617 147.9168 
L 263.181003 146.113885 
L 264.038969 145.31872 
L 264.558641 144.892661 
L 268.023511 141.698307 
L 270.675164 139.300242 
L 270.912532 139.0464 
L 276.263416 133.028225 
L 276.465899 132.77408 
L 277.29159 131.876029 
L 278.573813 130.176 
L 279.801204 128.480021 
L 280.318227 127.57792 
L 280.69934 127.022911 
L 284.280933 121.3056 
L 285.207067 119.743071 
L 287.647868 115.03328 
L 288.478874 113.273071 
L 288.881345 112.4352 
L 289.094223 111.824193 
L 289.368259 111.193632 
L 290.024152 109.83712 
L 290.781482 108.110856 
L 292.536715 103.5648 
L 293.608476 100.603883 
L 294.723493 97.29248 
L 294.918272 96.656594 
L 295.657305 94.6944 
L 296.136741 93.03469 
L 296.334586 92.09632 
L 296.67007 90.962704 
L 298.097932 85.824 
L 299.13938 81.788054 
L 299.655362 79.55168 
L 299.898517 78.280767 
L 300.268232 76.9536 
L 300.399183 76.352038 
L 300.472113 75.886791 
L 300.820041 74.35552 
L 301.786724 69.21812 
L 302.038717 68.0832 
L 302.182161 67.38161 
L 303.223715 61.81088 
L 303.559246 59.547259 
L 303.590917 59.403584 
L 303.623266 59.2128 
L 303.639628 59.009924 
L 303.662045 58.83168 
L 304.078925 56.61472 
L 304.707812 52.408483 
L 304.99155 50.3424 
L 305.33003 47.594475 
L 305.874115 44.07008 
L 306.007728 42.917839 
L 306.194158 41.472 
L 302.8224 41.472 
L 294.72768 41.472 
L 286.63296 41.472 
L 278.53824 41.472 
L 270.44352 41.472 
L 262.3488 41.472 
L 254.25408 41.472 
L 246.15936 41.472 
L 238.06464 41.472 
L 229.96992 41.472 
L 221.8752 41.472 
L 213.78048 41.472 
" clip-path="url(#pdeea42cb4c)" style="fill: #a4ff53"/>
   </g>
   <g id="PathCollection_17">
    <path d="M 306.194158 41.472 
L 306.007728 42.917839 
L 305.874115 44.07008 
L 305.33003 47.594475 
L 304.99155 50.3424 
L 304.707812 52.408483 
L 304.078925 56.61472 
L 303.662045 58.83168 
L 303.639628 59.009924 
L 303.623266 59.2128 
L 303.590917 59.403584 
L 303.559246 59.547259 
L 303.223715 61.81088 
L 302.182161 67.38161 
L 302.038717 68.0832 
L 301.786724 69.21812 
L 300.820041 74.35552 
L 300.472113 75.886791 
L 300.399183 76.352038 
L 300.268232 76.9536 
L 299.898517 78.280767 
L 299.655362 79.55168 
L 299.13938 81.788054 
L 298.097932 85.824 
L 296.67007 90.962704 
L 296.334586 92.09632 
L 296.136741 93.03469 
L 295.657305 94.6944 
L 294.918272 96.656594 
L 294.723493 97.29248 
L 293.608476 100.603883 
L 292.536715 103.5648 
L 290.781482 108.110856 
L 290.024152 109.83712 
L 289.368259 111.193632 
L 289.094223 111.824193 
L 288.881345 112.4352 
L 288.478874 113.273071 
L 287.647868 115.03328 
L 285.207067 119.743071 
L 284.280933 121.3056 
L 280.69934 127.022911 
L 280.318227 127.57792 
L 279.801204 128.480021 
L 278.573813 130.176 
L 277.29159 131.876029 
L 276.465899 132.77408 
L 276.263416 133.028225 
L 270.912532 139.0464 
L 270.675164 139.300242 
L 268.023511 141.698307 
L 264.558641 144.892661 
L 264.038969 145.31872 
L 263.181003 146.113885 
L 260.797617 147.9168 
L 258.230194 149.721581 
L 257.036412 150.51488 
L 251.646169 153.929385 
L 246.227563 156.7872 
L 246.170294 156.816125 
L 246.144232 156.827222 
L 240.590152 159.55472 
L 232.625415 162.747641 
L 232.280913 162.901063 
L 231.86088 163.05952 
L 230.611235 163.488885 
L 224.486824 165.6576 
L 223.383078 166.03193 
L 222.961875 166.150848 
L 216.721376 167.99695 
L 215.855198 168.25568 
L 211.825883 169.357003 
L 210.05525 169.739802 
L 202.999133 171.583926 
L 198.34872 172.523514 
L 196.964966 172.871685 
L 189.676267 174.33081 
L 189.381478 174.402154 
L 188.714021 174.528 
L 181.872966 175.775026 
L 180.879158 175.910149 
L 175.463277 176.891035 
L 170.556892 177.541506 
L 166.607744 178.220097 
L 163.673277 178.599202 
L 161.216121 179.019439 
L 151.950417 180.190156 
L 151.208691 180.311109 
L 147.246702 180.80032 
L 146.854246 180.850569 
L 146.448298 180.892705 
L 137.689604 181.928473 
L 125.669605 183.167269 
L 125.110323 183.229655 
L 124.515988 183.297373 
L 124.391002 183.312119 
L 123.502799 183.3984 
L 111.145953 184.577117 
L 104.806902 185.097014 
L 102.22595 185.339709 
L 100.4544 185.458965 
L 100.4544 192.2688 
L 100.4544 201.1392 
L 100.4544 210.0096 
L 100.4544 218.88 
L 100.4544 222.288038 
L 102.445393 222.483114 
L 103.899832 222.655592 
L 112.468618 223.455315 
L 115.147125 223.790755 
L 118.034309 224.071835 
L 121.825844 224.558571 
L 127.156774 225.10046 
L 132.085065 225.770955 
L 133.52369 225.923882 
L 140.09937 226.842366 
L 141.603836 227.009801 
L 146.586297 227.7504 
L 148.89557 228.086781 
L 149.168519 228.13612 
L 155.852268 229.136807 
L 158.910406 229.715178 
L 164.152769 230.553079 
L 166.443156 231.007071 
L 169.826653 231.564121 
L 178.419793 233.35326 
L 179.229647 233.496425 
L 181.631139 234.02272 
L 182.803395 234.263297 
L 185.912743 234.994194 
L 190.690025 236.07897 
L 192.823206 236.6208 
L 199.218442 238.226307 
L 201.009487 238.743387 
L 202.652833 239.21888 
L 209.608386 241.192686 
L 212.53459 242.195128 
L 214.771411 242.869635 
L 221.746408 245.350066 
L 221.945546 245.414113 
L 222.142869 245.4912 
L 228.988713 248.087039 
L 231.343103 249.124034 
L 233.846319 250.113744 
L 237.325783 251.76352 
L 240.52343 253.245541 
L 242.685999 254.3616 
L 246.731919 256.513246 
L 247.616019 256.95968 
L 248.376764 257.365733 
L 249.557523 258.085394 
L 255.697807 261.649927 
L 257.988829 263.232 
L 261.470306 265.556107 
L 263.935008 267.428402 
L 265.562995 268.580203 
L 266.659149 269.50432 
L 269.068097 271.478088 
L 269.850988 272.1024 
L 270.069323 272.27225 
L 272.831819 274.70048 
L 274.70673 276.301066 
L 278.049604 279.680085 
L 278.767144 280.367221 
L 279.323279 280.9728 
L 283.058245 284.890064 
L 284.932022 287.24512 
L 286.955241 289.696915 
L 287.057598 289.8432 
L 287.270234 290.132463 
L 289.049172 292.44128 
L 290.594908 294.371997 
L 293.485955 298.7136 
L 294.289718 299.872253 
L 296.582183 303.619793 
L 297.301141 304.763936 
L 297.413939 304.98592 
L 297.515326 305.175088 
L 298.901079 307.584 
L 302.8224 307.584 
L 310.91712 307.584 
L 319.01184 307.584 
L 327.10656 307.584 
L 335.20128 307.584 
L 343.296 307.584 
L 343.296 298.7136 
L 343.296 289.8432 
L 343.296 280.9728 
L 343.296 272.1024 
L 343.296 263.232 
L 343.296 254.3616 
L 343.296 245.4912 
L 343.296 236.6208 
L 343.296 227.7504 
L 343.296 218.88 
L 343.296 210.0096 
L 343.296 201.1392 
L 343.296 192.2688 
L 343.296 183.3984 
L 343.296 174.528 
L 343.296 165.6576 
L 343.296 156.7872 
L 343.296 147.9168 
L 343.296 139.0464 
L 343.296 130.176 
L 343.296 121.3056 
L 343.296 112.4352 
L 343.296 103.5648 
L 343.296 94.6944 
L 343.296 85.824 
L 343.296 76.9536 
L 343.296 68.0832 
L 343.296 59.2128 
L 343.296 50.3424 
L 343.296 41.472 
L 335.20128 41.472 
L 327.10656 41.472 
L 319.01184 41.472 
L 310.91712 41.472 
" clip-path="url(#pdeea42cb4c)" style="fill: #f8f500"/>
   </g>
   <g id="PathCollection_18">
    <path d="M 298.901079 307.584 
L 297.515326 305.175088 
L 297.413939 304.98592 
L 297.301141 304.763936 
L 296.582183 303.619793 
L 294.289718 299.872253 
L 293.485955 298.7136 
L 290.594908 294.371997 
L 289.049172 292.44128 
L 287.270234 290.132463 
L 287.057598 289.8432 
L 286.955241 289.696915 
L 284.932022 287.24512 
L 283.058245 284.890064 
L 279.323279 280.9728 
L 278.767144 280.367221 
L 278.049604 279.680085 
L 274.70673 276.301066 
L 272.831819 274.70048 
L 270.069323 272.27225 
L 269.850988 272.1024 
L 269.068097 271.478088 
L 266.659149 269.50432 
L 265.562995 268.580203 
L 263.935008 267.428402 
L 261.470306 265.556107 
L 257.988829 263.232 
L 255.697807 261.649927 
L 249.557523 258.085394 
L 248.376764 257.365733 
L 247.616019 256.95968 
L 246.731919 256.513246 
L 242.685999 254.3616 
L 240.52343 253.245541 
L 237.325783 251.76352 
L 233.846319 250.113744 
L 231.343103 249.124034 
L 228.988713 248.087039 
L 222.142869 245.4912 
L 221.945546 245.414113 
L 221.746408 245.350066 
L 214.771411 242.869635 
L 212.53459 242.195128 
L 209.608386 241.192686 
L 202.652833 239.21888 
L 201.009487 238.743387 
L 199.218442 238.226307 
L 192.823206 236.6208 
L 190.690025 236.07897 
L 185.912743 234.994194 
L 182.803395 234.263297 
L 181.631139 234.02272 
L 179.229647 233.496425 
L 178.419793 233.35326 
L 169.826653 231.564121 
L 166.443156 231.007071 
L 164.152769 230.553079 
L 158.910406 229.715178 
L 155.852268 229.136807 
L 149.168519 228.13612 
L 148.89557 228.086781 
L 146.586297 227.7504 
L 141.603836 227.009801 
L 140.09937 226.842366 
L 133.52369 225.923882 
L 132.085065 225.770955 
L 127.156774 225.10046 
L 121.825844 224.558571 
L 118.034309 224.071835 
L 115.147125 223.790755 
L 112.468618 223.455315 
L 103.899832 222.655592 
L 102.445393 222.483114 
L 100.4544 222.288038 
L 100.4544 227.7504 
L 100.4544 236.6208 
L 100.4544 245.4912 
L 100.4544 254.3616 
L 100.4544 256.199928 
L 102.569468 256.679345 
L 103.159562 256.807951 
L 103.811913 256.95968 
L 112.447721 258.959813 
L 115.310081 259.703465 
L 117.756403 260.288651 
L 123.425512 261.793129 
L 125.568088 262.322982 
L 128.832621 263.232 
L 132.455054 264.232618 
L 133.30952 264.491921 
L 138.453056 265.944106 
L 145.39918 268.131633 
L 146.992009 268.604361 
L 149.743396 269.50432 
L 150.470641 269.733446 
L 156.138233 271.657932 
L 157.261925 272.036818 
L 157.443796 272.1024 
L 163.950948 274.425003 
L 164.663898 274.70048 
L 167.224617 275.648731 
L 169.160852 276.429477 
L 175.293342 278.795984 
L 180.378272 280.9728 
L 181.260774 281.345362 
L 181.60138 281.501329 
L 186.908822 283.808247 
L 194.057011 287.24512 
L 194.626071 287.514777 
L 199.192081 289.8432 
L 202.242228 291.406239 
L 204.112132 292.44128 
L 208.988887 295.09395 
L 213.418407 297.755715 
L 214.013186 298.097962 
L 214.998455 298.7136 
L 219.409248 301.415853 
L 224.674774 304.98592 
L 225.863319 305.77377 
L 228.39769 307.584 
L 229.96992 307.584 
L 238.06464 307.584 
L 246.15936 307.584 
L 254.25408 307.584 
L 262.3488 307.584 
L 270.44352 307.584 
L 278.53824 307.584 
L 286.63296 307.584 
L 294.72768 307.584 
" clip-path="url(#pdeea42cb4c)" style="fill: #ff9400"/>
   </g>
   <g id="PathCollection_19">
    <path d="M 228.39769 307.584 
L 225.863319 305.77377 
L 224.674774 304.98592 
L 219.409248 301.415853 
L 214.998455 298.7136 
L 214.013186 298.097962 
L 213.418407 297.755715 
L 208.988887 295.09395 
L 204.112132 292.44128 
L 202.242228 291.406239 
L 199.192081 289.8432 
L 194.626071 287.514777 
L 194.057011 287.24512 
L 186.908822 283.808247 
L 181.60138 281.501329 
L 181.260774 281.345362 
L 180.378272 280.9728 
L 175.293342 278.795984 
L 169.160852 276.429477 
L 167.224617 275.648731 
L 164.663898 274.70048 
L 163.950948 274.425003 
L 157.443796 272.1024 
L 157.261925 272.036818 
L 156.138233 271.657932 
L 150.470641 269.733446 
L 149.743396 269.50432 
L 146.992009 268.604361 
L 145.39918 268.131633 
L 138.453056 265.944106 
L 133.30952 264.491921 
L 132.455054 264.232618 
L 128.832621 263.232 
L 125.568088 262.322982 
L 123.425512 261.793129 
L 117.756403 260.288651 
L 115.310081 259.703465 
L 112.447721 258.959813 
L 103.811913 256.95968 
L 103.159562 256.807951 
L 102.569468 256.679345 
L 100.4544 256.199928 
L 100.4544 263.232 
L 100.4544 272.1024 
L 100.4544 280.9728 
L 100.4544 289.426625 
L 100.750032 289.519238 
L 101.734208 289.8432 
L 105.68041 291.145324 
L 109.456588 292.44128 
L 113.120816 293.703819 
L 115.010947 294.393689 
L 117.890636 295.415131 
L 123.713243 297.590032 
L 125.251567 298.151433 
L 126.697009 298.7136 
L 132.042862 300.804694 
L 133.914245 301.573355 
L 137.139821 302.864783 
L 142.123027 304.98592 
L 144.462764 305.97955 
L 148.084778 307.584 
L 149.02272 307.584 
L 157.11744 307.584 
L 165.21216 307.584 
L 173.30688 307.584 
L 181.4016 307.584 
L 189.49632 307.584 
L 197.59104 307.584 
L 205.68576 307.584 
L 213.78048 307.584 
L 221.8752 307.584 
" clip-path="url(#pdeea42cb4c)" style="fill: #ff3800"/>
   </g>
   <g id="PathCollection_20">
    <path d="M 148.084778 307.584 
L 144.462764 305.97955 
L 142.123027 304.98592 
L 137.139821 302.864783 
L 133.914245 301.573355 
L 132.042862 300.804694 
L 126.697009 298.7136 
L 125.251567 298.151433 
L 123.713243 297.590032 
L 117.890636 295.415131 
L 115.010947 294.393689 
L 113.120816 293.703819 
L 109.456588 292.44128 
L 105.68041 291.145324 
L 101.734208 289.8432 
L 100.750032 289.519238 
L 100.4544 289.426625 
L 100.4544 289.8432 
L 100.4544 298.7136 
L 100.4544 307.584 
L 108.54912 307.584 
L 116.64384 307.584 
L 124.73856 307.584 
L 132.83328 307.584 
L 140.928 307.584 
" clip-path="url(#pdeea42cb4c)" style="fill: #b60000"/>
   </g>
   <g id="matplotlib.axis_1">
    <g id="xtick_1">
     <g id="line2d_1">
      <defs>
       <path id="m48737a70c0" d="M 0 0 
L 0 3.5 
" style="stroke: #000000; stroke-width: 0.8"/>
      </defs>
      <g>
       <use xlink:href="#m48737a70c0" x="57.6" y="307.584" style="stroke: #000000; stroke-width: 0.8"/>
      </g>
     </g>
     <g id="text_1">
      <!-- 0.0 -->
      <g transform="translate(51.26875 321.385562) scale(0.1 -0.1)">
       <defs>
        <path id="Calibri-30" d="M 3022 2031 
Q 3022 1566 2948 1181 
Q 2875 797 2704 520 
Q 2534 244 2259 92 
Q 1984 -59 1581 -59 
Q 1200 -59 939 77 
Q 678 213 518 477 
Q 359 741 292 1127 
Q 225 1513 225 2013 
Q 225 2475 300 2861 
Q 375 3247 544 3523 
Q 713 3800 988 3951 
Q 1263 4103 1663 4103 
Q 2047 4103 2308 3967 
Q 2569 3831 2728 3567 
Q 2888 3303 2955 2917 
Q 3022 2531 3022 2031 
z
M 2472 1994 
Q 2472 2297 2450 2537 
Q 2428 2778 2386 2962 
Q 2344 3147 2276 3280 
Q 2209 3413 2115 3498 
Q 2022 3584 1901 3623 
Q 1781 3663 1631 3663 
Q 1366 3663 1200 3538 
Q 1034 3413 939 3194 
Q 844 2975 809 2681 
Q 775 2388 775 2050 
Q 775 1597 822 1280 
Q 869 963 970 763 
Q 1072 563 1230 472 
Q 1388 381 1613 381 
Q 1788 381 1920 437 
Q 2053 494 2148 598 
Q 2244 703 2306 850 
Q 2369 997 2406 1175 
Q 2444 1353 2458 1561 
Q 2472 1769 2472 1994 
z
" transform="scale(0.015625)"/>
        <path id="Calibri-2e" d="M 1144 341 
Q 1144 119 1070 45 
Q 997 -28 803 -28 
Q 616 -28 544 44 
Q 472 116 472 331 
Q 472 553 545 626 
Q 619 700 813 700 
Q 1000 700 1072 628 
Q 1144 556 1144 341 
z
" transform="scale(0.015625)"/>
       </defs>
       <use xlink:href="#Calibri-30"/>
       <use xlink:href="#Calibri-2e" x="50.683594"/>
       <use xlink:href="#Calibri-30" x="75.927734"/>
      </g>
     </g>
    </g>
    <g id="xtick_2">
     <g id="line2d_2">
      <g>
       <use xlink:href="#m48737a70c0" x="86.1696" y="307.584" style="stroke: #000000; stroke-width: 0.8"/>
      </g>
     </g>
     <g id="text_2">
      <!-- 0.1 -->
      <g transform="translate(79.83835 321.385562) scale(0.1 -0.1)">
       <defs>
        <path id="Calibri-31" d="M 2897 213 
Q 2897 153 2887 112 
Q 2878 72 2862 47 
Q 2847 22 2826 11 
Q 2806 0 2784 0 
L 672 0 
Q 650 0 631 11 
Q 613 22 595 47 
Q 578 72 568 112 
Q 559 153 559 213 
Q 559 269 568 309 
Q 578 350 592 376 
Q 606 403 626 417 
Q 647 431 672 431 
L 1516 431 
L 1516 3506 
L 734 3041 
Q 675 3009 639 3003 
Q 603 2997 581 3017 
Q 559 3038 551 3084 
Q 544 3131 544 3203 
Q 544 3256 548 3293 
Q 553 3331 562 3356 
Q 572 3381 589 3400 
Q 606 3419 634 3438 
L 1566 4034 
Q 1578 4044 1597 4050 
Q 1616 4056 1644 4062 
Q 1672 4069 1709 4070 
Q 1747 4072 1803 4072 
Q 1878 4072 1928 4065 
Q 1978 4059 2006 4048 
Q 2034 4038 2043 4020 
Q 2053 4003 2053 3984 
L 2053 431 
L 2784 431 
Q 2809 431 2831 417 
Q 2853 403 2867 376 
Q 2881 350 2889 309 
Q 2897 269 2897 213 
z
" transform="scale(0.015625)"/>
       </defs>
       <use xlink:href="#Calibri-30"/>
       <use xlink:href="#Calibri-2e" x="50.683594"/>
       <use xlink:href="#Calibri-31" x="75.927734"/>
      </g>
     </g>
    </g>
    <g id="xtick_3">
     <g id="line2d_3">
      <g>
       <use xlink:href="#m48737a70c0" x="114.7392" y="307.584" style="stroke: #000000; stroke-width: 0.8"/>
      </g>
     </g>
     <g id="text_3">
      <!-- 0.2 -->
      <g transform="translate(108.40795 321.385562) scale(0.1 -0.1)">
       <defs>
        <path id="Calibri-32" d="M 2888 231 
Q 2888 175 2880 131 
Q 2872 88 2858 58 
Q 2844 28 2820 14 
Q 2797 0 2769 0 
L 534 0 
Q 491 0 458 11 
Q 425 22 401 47 
Q 378 72 367 119 
Q 356 166 356 234 
Q 356 297 361 344 
Q 366 391 381 427 
Q 397 463 420 498 
Q 444 534 481 575 
L 1266 1406 
Q 1538 1694 1702 1922 
Q 1866 2150 1955 2337 
Q 2044 2525 2072 2678 
Q 2100 2831 2100 2966 
Q 2100 3100 2056 3220 
Q 2013 3341 1930 3431 
Q 1847 3522 1722 3575 
Q 1597 3628 1434 3628 
Q 1244 3628 1092 3575 
Q 941 3522 827 3459 
Q 713 3397 636 3344 
Q 559 3291 522 3291 
Q 500 3291 483 3303 
Q 466 3316 455 3344 
Q 444 3372 437 3419 
Q 431 3466 431 3531 
Q 431 3578 434 3612 
Q 438 3647 445 3672 
Q 453 3697 465 3719 
Q 478 3741 515 3773 
Q 553 3806 645 3862 
Q 738 3919 877 3973 
Q 1016 4028 1183 4065 
Q 1350 4103 1534 4103 
Q 1828 4103 2048 4020 
Q 2269 3938 2414 3794 
Q 2559 3650 2631 3459 
Q 2703 3269 2703 3053 
Q 2703 2859 2668 2667 
Q 2634 2475 2523 2251 
Q 2413 2028 2203 1754 
Q 1994 1481 1647 1125 
L 1006 456 
L 2766 456 
Q 2791 456 2814 442 
Q 2838 428 2855 400 
Q 2872 372 2880 330 
Q 2888 288 2888 231 
z
" transform="scale(0.015625)"/>
       </defs>
       <use xlink:href="#Calibri-30"/>
       <use xlink:href="#Calibri-2e" x="50.683594"/>
       <use xlink:href="#Calibri-32" x="75.927734"/>
      </g>
     </g>
    </g>
    <g id="xtick_4">
     <g id="line2d_4">
      <g>
       <use xlink:href="#m48737a70c0" x="143.3088" y="307.584" style="stroke: #000000; stroke-width: 0.8"/>
      </g>
     </g>
     <g id="text_4">
      <!-- 0.3 -->
      <g transform="translate(136.97755 321.385562) scale(0.1 -0.1)">
       <defs>
        <path id="Calibri-33" d="M 2856 1156 
Q 2856 878 2759 654 
Q 2663 431 2481 272 
Q 2300 113 2034 27 
Q 1769 -59 1434 -59 
Q 1231 -59 1054 -26 
Q 878 6 740 51 
Q 603 97 512 145 
Q 422 194 398 216 
Q 375 238 362 259 
Q 350 281 340 312 
Q 331 344 326 389 
Q 322 434 322 500 
Q 322 613 344 656 
Q 366 700 406 700 
Q 434 700 517 650 
Q 600 600 729 542 
Q 859 484 1032 434 
Q 1206 384 1419 384 
Q 1625 384 1781 437 
Q 1938 491 2044 587 
Q 2150 684 2203 817 
Q 2256 950 2256 1106 
Q 2256 1278 2189 1415 
Q 2122 1553 1992 1653 
Q 1863 1753 1673 1806 
Q 1484 1859 1244 1859 
L 859 1859 
Q 834 1859 811 1870 
Q 788 1881 770 1906 
Q 753 1931 742 1972 
Q 731 2013 731 2078 
Q 731 2138 740 2177 
Q 750 2216 767 2239 
Q 784 2263 806 2273 
Q 828 2284 856 2284 
L 1209 2284 
Q 1416 2284 1580 2337 
Q 1744 2391 1858 2491 
Q 1972 2591 2033 2730 
Q 2094 2869 2094 3041 
Q 2094 3166 2053 3280 
Q 2013 3394 1931 3478 
Q 1850 3563 1723 3611 
Q 1597 3659 1431 3659 
Q 1250 3659 1098 3604 
Q 947 3550 828 3487 
Q 709 3425 631 3370 
Q 553 3316 522 3316 
Q 500 3316 483 3323 
Q 466 3331 455 3354 
Q 444 3378 439 3420 
Q 434 3463 434 3531 
Q 434 3578 437 3614 
Q 441 3650 450 3676 
Q 459 3703 471 3725 
Q 484 3747 514 3776 
Q 544 3806 634 3862 
Q 725 3919 858 3973 
Q 991 4028 1164 4065 
Q 1338 4103 1538 4103 
Q 1819 4103 2031 4031 
Q 2244 3959 2386 3828 
Q 2528 3697 2598 3514 
Q 2669 3331 2669 3109 
Q 2669 2919 2619 2755 
Q 2569 2591 2472 2464 
Q 2375 2338 2234 2248 
Q 2094 2159 1909 2125 
L 1909 2119 
Q 2119 2097 2292 2014 
Q 2466 1931 2591 1806 
Q 2716 1681 2786 1514 
Q 2856 1347 2856 1156 
z
" transform="scale(0.015625)"/>
       </defs>
       <use xlink:href="#Calibri-30"/>
       <use xlink:href="#Calibri-2e" x="50.683594"/>
       <use xlink:href="#Calibri-33" x="75.927734"/>
      </g>
     </g>
    </g>
    <g id="xtick_5">
     <g id="line2d_5">
      <g>
       <use xlink:href="#m48737a70c0" x="171.8784" y="307.584" style="stroke: #000000; stroke-width: 0.8"/>
      </g>
     </g>
     <g id="text_5">
      <!-- 0.4 -->
      <g transform="translate(165.54715 321.385562) scale(0.1 -0.1)">
       <defs>
        <path id="Calibri-34" d="M 3059 1150 
Q 3059 1047 3028 987 
Q 2997 928 2941 928 
L 2484 928 
L 2484 78 
Q 2484 53 2471 36 
Q 2459 19 2428 6 
Q 2397 -6 2347 -12 
Q 2297 -19 2219 -19 
Q 2144 -19 2094 -12 
Q 2044 -6 2014 6 
Q 1984 19 1973 36 
Q 1963 53 1963 78 
L 1963 928 
L 294 928 
Q 256 928 231 937 
Q 206 947 186 972 
Q 166 997 158 1044 
Q 150 1091 150 1166 
Q 150 1225 153 1272 
Q 156 1319 165 1358 
Q 175 1397 190 1433 
Q 206 1469 228 1509 
L 1684 3966 
Q 1700 3991 1729 4009 
Q 1759 4028 1806 4040 
Q 1853 4053 1922 4058 
Q 1991 4063 2084 4063 
Q 2188 4063 2264 4055 
Q 2341 4047 2387 4034 
Q 2434 4022 2459 4001 
Q 2484 3981 2484 3953 
L 2484 1372 
L 2941 1372 
Q 2994 1372 3026 1317 
Q 3059 1263 3059 1150 
z
M 1963 3591 
L 1956 3591 
L 641 1372 
L 1963 1372 
L 1963 3591 
z
" transform="scale(0.015625)"/>
       </defs>
       <use xlink:href="#Calibri-30"/>
       <use xlink:href="#Calibri-2e" x="50.683594"/>
       <use xlink:href="#Calibri-34" x="75.927734"/>
      </g>
     </g>
    </g>
    <g id="xtick_6">
     <g id="line2d_6">
      <g>
       <use xlink:href="#m48737a70c0" x="200.448" y="307.584" style="stroke: #000000; stroke-width: 0.8"/>
      </g>
     </g>
     <g id="text_6">
      <!-- 0.5 -->
      <g transform="translate(194.11675 321.385562) scale(0.1 -0.1)">
       <defs>
        <path id="Calibri-35" d="M 2869 1300 
Q 2869 975 2759 722 
Q 2650 469 2450 295 
Q 2250 122 1973 31 
Q 1697 -59 1359 -59 
Q 1172 -59 1003 -32 
Q 834 -6 703 33 
Q 572 72 487 109 
Q 403 147 379 169 
Q 356 191 347 209 
Q 338 228 330 254 
Q 322 281 319 322 
Q 316 363 316 419 
Q 316 472 320 514 
Q 325 556 337 582 
Q 350 609 367 621 
Q 384 634 406 634 
Q 438 634 503 595 
Q 569 556 680 511 
Q 791 466 955 425 
Q 1119 384 1344 384 
Q 1553 384 1728 434 
Q 1903 484 2029 590 
Q 2156 697 2228 858 
Q 2300 1019 2300 1250 
Q 2300 1444 2239 1592 
Q 2178 1741 2051 1839 
Q 1925 1938 1731 1986 
Q 1538 2034 1269 2034 
Q 1078 2034 940 2015 
Q 803 1997 684 1997 
Q 597 1997 559 2037 
Q 522 2078 522 2194 
L 522 3841 
Q 522 3944 570 3994 
Q 619 4044 709 4044 
L 2500 4044 
Q 2525 4044 2548 4030 
Q 2572 4016 2587 3987 
Q 2603 3959 2611 3915 
Q 2619 3872 2619 3813 
Q 2619 3700 2587 3637 
Q 2556 3575 2500 3575 
L 991 3575 
L 991 2441 
Q 1100 2456 1214 2459 
Q 1328 2463 1478 2463 
Q 1825 2463 2084 2380 
Q 2344 2297 2517 2145 
Q 2691 1994 2780 1778 
Q 2869 1563 2869 1300 
z
" transform="scale(0.015625)"/>
       </defs>
       <use xlink:href="#Calibri-30"/>
       <use xlink:href="#Calibri-2e" x="50.683594"/>
       <use xlink:href="#Calibri-35" x="75.927734"/>
      </g>
     </g>
    </g>
    <g id="xtick_7">
     <g id="line2d_7">
      <g>
       <use xlink:href="#m48737a70c0" x="229.0176" y="307.584" style="stroke: #000000; stroke-width: 0.8"/>
      </g>
     </g>
     <g id="text_7">
      <!-- 0.6 -->
      <g transform="translate(222.68635 321.385562) scale(0.1 -0.1)">
       <defs>
        <path id="Calibri-36" d="M 2991 1309 
Q 2991 1044 2909 795 
Q 2828 547 2659 358 
Q 2491 169 2231 55 
Q 1972 -59 1619 -59 
Q 1366 -59 1172 3 
Q 978 66 834 181 
Q 691 297 595 465 
Q 500 634 442 850 
Q 384 1066 359 1322 
Q 334 1578 334 1872 
Q 334 2131 362 2397 
Q 391 2663 462 2909 
Q 534 3156 657 3373 
Q 781 3591 967 3752 
Q 1153 3913 1412 4006 
Q 1672 4100 2016 4100 
Q 2131 4100 2250 4086 
Q 2369 4072 2469 4048 
Q 2569 4025 2637 3997 
Q 2706 3969 2728 3951 
Q 2750 3934 2761 3914 
Q 2772 3894 2778 3870 
Q 2784 3847 2787 3817 
Q 2791 3788 2791 3744 
Q 2791 3688 2789 3647 
Q 2788 3606 2777 3581 
Q 2766 3556 2748 3543 
Q 2731 3531 2703 3531 
Q 2669 3531 2609 3553 
Q 2550 3575 2465 3601 
Q 2381 3628 2261 3650 
Q 2141 3672 1981 3672 
Q 1691 3672 1481 3553 
Q 1272 3434 1139 3234 
Q 1006 3034 942 2770 
Q 878 2506 869 2219 
Q 950 2266 1051 2312 
Q 1153 2359 1273 2396 
Q 1394 2434 1528 2457 
Q 1663 2481 1816 2481 
Q 2144 2481 2369 2392 
Q 2594 2303 2733 2145 
Q 2872 1988 2931 1773 
Q 2991 1559 2991 1309 
z
M 2447 1259 
Q 2447 1441 2411 1589 
Q 2375 1738 2290 1841 
Q 2206 1944 2065 2000 
Q 1925 2056 1719 2056 
Q 1603 2056 1487 2036 
Q 1372 2016 1264 1980 
Q 1156 1944 1057 1895 
Q 959 1847 878 1791 
Q 878 1388 929 1116 
Q 981 844 1079 680 
Q 1178 516 1325 445 
Q 1472 375 1669 375 
Q 1869 375 2016 450 
Q 2163 525 2259 651 
Q 2356 778 2401 936 
Q 2447 1094 2447 1259 
z
" transform="scale(0.015625)"/>
       </defs>
       <use xlink:href="#Calibri-30"/>
       <use xlink:href="#Calibri-2e" x="50.683594"/>
       <use xlink:href="#Calibri-36" x="75.927734"/>
      </g>
     </g>
    </g>
    <g id="xtick_8">
     <g id="line2d_8">
      <g>
       <use xlink:href="#m48737a70c0" x="257.5872" y="307.584" style="stroke: #000000; stroke-width: 0.8"/>
      </g>
     </g>
     <g id="text_8">
      <!-- 0.7 -->
      <g transform="translate(251.25595 321.385562) scale(0.1 -0.1)">
       <defs>
        <path id="Calibri-37" d="M 2947 3813 
Q 2947 3756 2942 3711 
Q 2938 3666 2930 3623 
Q 2922 3581 2908 3542 
Q 2894 3503 2875 3459 
L 1419 103 
Q 1403 66 1379 42 
Q 1356 19 1320 5 
Q 1284 -9 1228 -14 
Q 1172 -19 1091 -19 
Q 984 -19 925 -9 
Q 866 0 839 20 
Q 813 41 816 70 
Q 819 100 838 141 
L 2369 3572 
L 428 3572 
Q 369 3572 339 3634 
Q 309 3697 309 3809 
Q 309 3869 317 3912 
Q 325 3956 340 3986 
Q 356 4016 378 4030 
Q 400 4044 428 4044 
L 2784 4044 
Q 2828 4044 2861 4034 
Q 2894 4025 2911 3997 
Q 2928 3969 2937 3925 
Q 2947 3881 2947 3813 
z
" transform="scale(0.015625)"/>
       </defs>
       <use xlink:href="#Calibri-30"/>
       <use xlink:href="#Calibri-2e" x="50.683594"/>
       <use xlink:href="#Calibri-37" x="75.927734"/>
      </g>
     </g>
    </g>
    <g id="xtick_9">
     <g id="line2d_9">
      <g>
       <use xlink:href="#m48737a70c0" x="286.1568" y="307.584" style="stroke: #000000; stroke-width: 0.8"/>
      </g>
     </g>
     <g id="text_9">
      <!-- 0.8 -->
      <g transform="translate(279.82555 321.385562) scale(0.1 -0.1)">
       <defs>
        <path id="Calibri-38" d="M 2981 1038 
Q 2981 775 2887 570 
Q 2794 366 2617 225 
Q 2441 84 2181 12 
Q 1922 -59 1588 -59 
Q 1275 -59 1028 6 
Q 781 72 609 200 
Q 438 328 347 515 
Q 256 703 256 944 
Q 256 1134 318 1293 
Q 381 1453 498 1587 
Q 616 1722 787 1839 
Q 959 1956 1175 2063 
Q 988 2159 844 2267 
Q 700 2375 600 2501 
Q 500 2628 448 2772 
Q 397 2916 397 3084 
Q 397 3297 473 3483 
Q 550 3669 704 3806 
Q 859 3944 1098 4023 
Q 1338 4103 1656 4103 
Q 1963 4103 2186 4029 
Q 2409 3956 2554 3829 
Q 2700 3703 2769 3531 
Q 2838 3359 2838 3163 
Q 2838 3003 2786 2856 
Q 2734 2709 2634 2578 
Q 2534 2447 2389 2333 
Q 2244 2219 2056 2119 
Q 2278 2009 2451 1893 
Q 2625 1778 2742 1645 
Q 2859 1513 2920 1364 
Q 2981 1216 2981 1038 
z
M 2306 3113 
Q 2306 3244 2261 3350 
Q 2216 3456 2128 3531 
Q 2041 3606 1911 3645 
Q 1781 3684 1616 3684 
Q 1278 3684 1104 3531 
Q 931 3378 931 3113 
Q 931 2991 973 2886 
Q 1016 2781 1105 2687 
Q 1194 2594 1330 2505 
Q 1466 2416 1653 2319 
Q 1969 2481 2137 2678 
Q 2306 2875 2306 3113 
z
M 2438 981 
Q 2438 1125 2384 1242 
Q 2331 1359 2223 1461 
Q 2116 1563 1955 1658 
Q 1794 1753 1581 1856 
Q 1384 1759 1236 1662 
Q 1088 1566 992 1462 
Q 897 1359 848 1245 
Q 800 1131 800 994 
Q 800 691 1008 525 
Q 1216 359 1628 359 
Q 2028 359 2233 526 
Q 2438 694 2438 981 
z
" transform="scale(0.015625)"/>
       </defs>
       <use xlink:href="#Calibri-30"/>
       <use xlink:href="#Calibri-2e" x="50.683594"/>
       <use xlink:href="#Calibri-38" x="75.927734"/>
      </g>
     </g>
    </g>
    <g id="xtick_10">
     <g id="line2d_10">
      <g>
       <use xlink:href="#m48737a70c0" x="314.7264" y="307.584" style="stroke: #000000; stroke-width: 0.8"/>
      </g>
     </g>
     <g id="text_10">
      <!-- 0.9 -->
      <g transform="translate(308.39515 321.385562) scale(0.1 -0.1)">
       <defs>
        <path id="Calibri-39" d="M 2919 2181 
Q 2919 1919 2887 1650 
Q 2856 1381 2781 1132 
Q 2706 884 2579 667 
Q 2453 450 2261 287 
Q 2069 125 1805 33 
Q 1541 -59 1191 -59 
Q 1056 -59 929 -42 
Q 803 -25 701 0 
Q 600 25 531 53 
Q 463 81 431 109 
Q 400 138 386 186 
Q 372 234 372 316 
Q 372 384 376 425 
Q 381 466 390 487 
Q 400 509 417 517 
Q 434 525 459 525 
Q 494 525 556 501 
Q 619 478 714 450 
Q 809 422 937 398 
Q 1066 375 1225 375 
Q 1528 375 1745 492 
Q 1963 609 2100 806 
Q 2238 1003 2306 1262 
Q 2375 1522 2381 1809 
Q 2216 1713 1984 1638 
Q 1753 1563 1453 1563 
Q 1116 1563 886 1655 
Q 656 1747 517 1906 
Q 378 2066 317 2284 
Q 256 2503 256 2763 
Q 256 3031 334 3273 
Q 413 3516 578 3700 
Q 744 3884 1000 3993 
Q 1256 4103 1613 4103 
Q 1866 4103 2061 4039 
Q 2256 3975 2400 3854 
Q 2544 3734 2644 3564 
Q 2744 3394 2805 3178 
Q 2866 2963 2892 2711 
Q 2919 2459 2919 2181 
z
M 2372 2241 
Q 2372 2641 2319 2914 
Q 2266 3188 2162 3356 
Q 2059 3525 1909 3600 
Q 1759 3675 1563 3675 
Q 1359 3675 1215 3601 
Q 1072 3528 980 3404 
Q 888 3281 844 3125 
Q 800 2969 800 2803 
Q 800 2619 839 2466 
Q 878 2313 965 2206 
Q 1053 2100 1193 2042 
Q 1334 1984 1541 1984 
Q 1775 1984 1994 2054 
Q 2213 2125 2372 2241 
z
" transform="scale(0.015625)"/>
       </defs>
       <use xlink:href="#Calibri-30"/>
       <use xlink:href="#Calibri-2e" x="50.683594"/>
       <use xlink:href="#Calibri-39" x="75.927734"/>
      </g>
     </g>
    </g>
    <g id="xtick_11">
     <g id="line2d_11">
      <g>
       <use xlink:href="#m48737a70c0" x="343.296" y="307.584" style="stroke: #000000; stroke-width: 0.8"/>
      </g>
     </g>
     <g id="text_11">
      <!-- 1.0 -->
      <g transform="translate(336.96475 321.385562) scale(0.1 -0.1)">
       <use xlink:href="#Calibri-31"/>
       <use xlink:href="#Calibri-2e" x="50.683594"/>
       <use xlink:href="#Calibri-30" x="75.927734"/>
      </g>
     </g>
    </g>
    <g id="text_12">
     <!-- $\mathit{p}$ (cm$^2$/cm$^2$) -->
     <g transform="translate(174.148 336.263687) scale(0.1 -0.1)">
      <defs>
       <path id="DejaVuSans-Oblique-70" d="M 3175 2156 
Q 3175 2616 2975 2859 
Q 2775 3103 2400 3103 
Q 2144 3103 1911 2972 
Q 1678 2841 1497 2591 
Q 1319 2344 1212 1994 
Q 1106 1644 1106 1300 
Q 1106 863 1306 627 
Q 1506 391 1875 391 
Q 2147 391 2380 519 
Q 2613 647 2778 891 
Q 2956 1147 3065 1494 
Q 3175 1841 3175 2156 
z
M 1394 2969 
Q 1625 3272 1939 3428 
Q 2253 3584 2638 3584 
Q 3175 3584 3472 3232 
Q 3769 2881 3769 2247 
Q 3769 1728 3584 1258 
Q 3400 788 3053 416 
Q 2822 169 2531 39 
Q 2241 -91 1919 -91 
Q 1547 -91 1294 64 
Q 1041 219 916 525 
L 556 -1331 
L -19 -1331 
L 922 3500 
L 1497 3500 
L 1394 2969 
z
" transform="scale(0.015625)"/>
       <path id="Calibri-20" transform="scale(0.015625)"/>
       <path id="Calibri-28" d="M 1547 4306 
Q 1250 3678 1104 3017 
Q 959 2356 959 1688 
Q 959 1016 1107 356 
Q 1256 -303 1541 -938 
Q 1556 -975 1557 -1001 
Q 1559 -1028 1537 -1045 
Q 1516 -1063 1470 -1070 
Q 1425 -1078 1347 -1078 
Q 1291 -1078 1250 -1075 
Q 1209 -1072 1179 -1062 
Q 1150 -1053 1131 -1040 
Q 1113 -1028 1103 -1013 
Q 934 -694 806 -367 
Q 678 -41 590 296 
Q 503 634 459 979 
Q 416 1325 416 1678 
Q 416 2031 464 2375 
Q 513 2719 602 3058 
Q 691 3397 819 3725 
Q 947 4053 1106 4375 
Q 1109 4388 1123 4397 
Q 1138 4406 1163 4415 
Q 1188 4425 1231 4429 
Q 1275 4434 1344 4434 
Q 1416 4434 1459 4425 
Q 1503 4416 1528 4400 
Q 1553 4384 1556 4359 
Q 1559 4334 1547 4306 
z
" transform="scale(0.015625)"/>
       <path id="Calibri-63" d="M 2500 506 
Q 2500 453 2497 414 
Q 2494 375 2486 348 
Q 2478 322 2467 301 
Q 2456 281 2417 242 
Q 2378 203 2284 145 
Q 2191 88 2073 42 
Q 1956 -3 1818 -31 
Q 1681 -59 1534 -59 
Q 1231 -59 997 41 
Q 763 141 605 333 
Q 447 525 364 804 
Q 281 1084 281 1450 
Q 281 1866 382 2164 
Q 484 2463 661 2653 
Q 838 2844 1077 2936 
Q 1316 3028 1594 3028 
Q 1728 3028 1854 3003 
Q 1981 2978 2087 2937 
Q 2194 2897 2276 2844 
Q 2359 2791 2396 2753 
Q 2434 2716 2448 2694 
Q 2463 2672 2472 2642 
Q 2481 2613 2484 2575 
Q 2488 2538 2488 2481 
Q 2488 2359 2459 2311 
Q 2431 2263 2391 2263 
Q 2344 2263 2283 2314 
Q 2222 2366 2128 2428 
Q 2034 2491 1901 2542 
Q 1769 2594 1588 2594 
Q 1216 2594 1017 2308 
Q 819 2022 819 1478 
Q 819 1206 870 1001 
Q 922 797 1022 659 
Q 1122 522 1267 455 
Q 1413 388 1600 388 
Q 1778 388 1912 444 
Q 2047 500 2145 567 
Q 2244 634 2311 689 
Q 2378 744 2416 744 
Q 2438 744 2453 731 
Q 2469 719 2480 689 
Q 2491 659 2495 614 
Q 2500 569 2500 506 
z
" transform="scale(0.015625)"/>
       <path id="Calibri-6d" d="M 4650 78 
Q 4650 53 4637 36 
Q 4625 19 4597 6 
Q 4569 -6 4519 -12 
Q 4469 -19 4394 -19 
Q 4316 -19 4266 -12 
Q 4216 -6 4186 6 
Q 4156 19 4143 36 
Q 4131 53 4131 78 
L 4131 1788 
Q 4131 1966 4100 2112 
Q 4069 2259 4000 2365 
Q 3931 2472 3825 2528 
Q 3719 2584 3575 2584 
Q 3397 2584 3217 2446 
Q 3038 2309 2822 2044 
L 2822 78 
Q 2822 53 2809 36 
Q 2797 19 2767 6 
Q 2738 -6 2688 -12 
Q 2638 -19 2563 -19 
Q 2491 -19 2439 -12 
Q 2388 -6 2358 6 
Q 2328 19 2317 36 
Q 2306 53 2306 78 
L 2306 1788 
Q 2306 1966 2272 2112 
Q 2238 2259 2169 2365 
Q 2100 2472 1995 2528 
Q 1891 2584 1747 2584 
Q 1569 2584 1387 2446 
Q 1206 2309 994 2044 
L 994 78 
Q 994 53 981 36 
Q 969 19 941 6 
Q 913 -6 863 -12 
Q 813 -19 734 -19 
Q 659 -19 609 -12 
Q 559 -6 529 6 
Q 500 19 489 36 
Q 478 53 478 78 
L 478 2891 
Q 478 2916 487 2933 
Q 497 2950 525 2964 
Q 553 2978 597 2983 
Q 641 2988 713 2988 
Q 781 2988 826 2983 
Q 872 2978 897 2964 
Q 922 2950 933 2933 
Q 944 2916 944 2891 
L 944 2519 
Q 1181 2784 1404 2907 
Q 1628 3031 1856 3031 
Q 2031 3031 2170 2990 
Q 2309 2950 2415 2876 
Q 2522 2803 2597 2701 
Q 2672 2600 2722 2475 
Q 2863 2628 2989 2734 
Q 3116 2841 3233 2906 
Q 3350 2972 3461 3001 
Q 3572 3031 3684 3031 
Q 3956 3031 4140 2936 
Q 4325 2841 4439 2681 
Q 4553 2522 4601 2308 
Q 4650 2094 4650 1856 
L 4650 78 
z
" transform="scale(0.015625)"/>
       <path id="DejaVuSans-32" d="M 1228 531 
L 3431 531 
L 3431 0 
L 469 0 
L 469 531 
Q 828 903 1448 1529 
Q 2069 2156 2228 2338 
Q 2531 2678 2651 2914 
Q 2772 3150 2772 3378 
Q 2772 3750 2511 3984 
Q 2250 4219 1831 4219 
Q 1534 4219 1204 4116 
Q 875 4013 500 3803 
L 500 4441 
Q 881 4594 1212 4672 
Q 1544 4750 1819 4750 
Q 2544 4750 2975 4387 
Q 3406 4025 3406 3419 
Q 3406 3131 3298 2873 
Q 3191 2616 2906 2266 
Q 2828 2175 2409 1742 
Q 1991 1309 1228 531 
z
" transform="scale(0.015625)"/>
       <path id="Calibri-2f" d="M 525 -753 
Q 513 -794 492 -817 
Q 472 -841 440 -853 
Q 409 -866 364 -872 
Q 319 -878 253 -878 
Q 175 -878 123 -867 
Q 72 -856 44 -836 
Q 16 -816 9 -786 
Q 3 -756 22 -716 
L 1913 4469 
Q 1925 4509 1945 4532 
Q 1966 4556 1995 4570 
Q 2025 4584 2072 4589 
Q 2119 4594 2184 4594 
Q 2263 4594 2313 4583 
Q 2363 4572 2391 4553 
Q 2419 4534 2425 4503 
Q 2431 4472 2416 4431 
L 525 -753 
z
" transform="scale(0.015625)"/>
       <path id="Calibri-29" d="M 1522 1678 
Q 1522 1325 1478 979 
Q 1434 634 1346 296 
Q 1259 -41 1132 -367 
Q 1006 -694 838 -1013 
Q 828 -1028 809 -1040 
Q 791 -1053 761 -1062 
Q 731 -1072 690 -1075 
Q 650 -1078 594 -1078 
Q 513 -1078 467 -1070 
Q 422 -1063 401 -1045 
Q 381 -1028 382 -1001 
Q 384 -975 400 -938 
Q 688 -306 834 355 
Q 981 1016 981 1688 
Q 981 2356 834 3017 
Q 688 3678 394 4306 
Q 381 4334 384 4359 
Q 388 4384 413 4400 
Q 438 4416 481 4425 
Q 525 4434 597 4434 
Q 663 4434 706 4429 
Q 750 4425 776 4415 
Q 803 4406 815 4397 
Q 828 4388 834 4375 
Q 1156 3734 1339 3057 
Q 1522 2381 1522 1678 
z
" transform="scale(0.015625)"/>
      </defs>
      <use xlink:href="#DejaVuSans-Oblique-70" transform="translate(0 0.765625)"/>
      <use xlink:href="#Calibri-20" transform="translate(63.476562 0.765625)"/>
      <use xlink:href="#Calibri-28" transform="translate(84.958984 0.765625)"/>
      <use xlink:href="#Calibri-63" transform="translate(115.28125 0.765625)"/>
      <use xlink:href="#Calibri-6d" transform="translate(157.566406 0.765625)"/>
      <use xlink:href="#DejaVuSans-32" transform="translate(238.40625 39.046875) scale(0.7)"/>
      <use xlink:href="#Calibri-2f" transform="translate(285.676758 0.765625)"/>
      <use xlink:href="#Calibri-63" transform="translate(324.299805 0.765625)"/>
      <use xlink:href="#Calibri-6d" transform="translate(366.584961 0.765625)"/>
      <use xlink:href="#DejaVuSans-32" transform="translate(447.424805 39.046875) scale(0.7)"/>
      <use xlink:href="#Calibri-29" transform="translate(494.695312 0.765625)"/>
     </g>
    </g>
   </g>
   <g id="matplotlib.axis_2">
    <g id="ytick_1">
     <g id="line2d_12">
      <defs>
       <path id="mb57accf9d0" d="M 0 0 
L -3.5 0 
" style="stroke: #000000; stroke-width: 0.8"/>
      </defs>
      <g>
       <use xlink:href="#mb57accf9d0" x="57.6" y="275.65056" style="stroke: #000000; stroke-width: 0.8"/>
      </g>
     </g>
     <g id="text_13">
      <!-- 25 -->
      <g transform="translate(40.4625 279.051341) scale(0.1 -0.1)">
       <use xlink:href="#Calibri-32"/>
       <use xlink:href="#Calibri-35" x="50.683594"/>
      </g>
     </g>
    </g>
    <g id="ytick_2">
     <g id="line2d_13">
      <g>
       <use xlink:href="#mb57accf9d0" x="57.6" y="242.38656" style="stroke: #000000; stroke-width: 0.8"/>
      </g>
     </g>
     <g id="text_14">
      <!-- 50 -->
      <g transform="translate(40.4625 245.787341) scale(0.1 -0.1)">
       <use xlink:href="#Calibri-35"/>
       <use xlink:href="#Calibri-30" x="50.683594"/>
      </g>
     </g>
    </g>
    <g id="ytick_3">
     <g id="line2d_14">
      <g>
       <use xlink:href="#mb57accf9d0" x="57.6" y="209.12256" style="stroke: #000000; stroke-width: 0.8"/>
      </g>
     </g>
     <g id="text_15">
      <!-- 75 -->
      <g transform="translate(40.4625 212.523341) scale(0.1 -0.1)">
       <use xlink:href="#Calibri-37"/>
       <use xlink:href="#Calibri-35" x="50.683594"/>
      </g>
     </g>
    </g>
    <g id="ytick_4">
     <g id="line2d_15">
      <g>
       <use xlink:href="#mb57accf9d0" x="57.6" y="175.85856" style="stroke: #000000; stroke-width: 0.8"/>
      </g>
     </g>
     <g id="text_16">
      <!-- 100 -->
      <g transform="translate(35.39375 179.259341) scale(0.1 -0.1)">
       <use xlink:href="#Calibri-31"/>
       <use xlink:href="#Calibri-30" x="50.683594"/>
       <use xlink:href="#Calibri-30" x="101.367188"/>
      </g>
     </g>
    </g>
    <g id="ytick_5">
     <g id="line2d_16">
      <g>
       <use xlink:href="#mb57accf9d0" x="57.6" y="142.59456" style="stroke: #000000; stroke-width: 0.8"/>
      </g>
     </g>
     <g id="text_17">
      <!-- 125 -->
      <g transform="translate(35.39375 145.995341) scale(0.1 -0.1)">
       <use xlink:href="#Calibri-31"/>
       <use xlink:href="#Calibri-32" x="50.683594"/>
       <use xlink:href="#Calibri-35" x="101.367188"/>
      </g>
     </g>
    </g>
    <g id="ytick_6">
     <g id="line2d_17">
      <g>
       <use xlink:href="#mb57accf9d0" x="57.6" y="109.33056" style="stroke: #000000; stroke-width: 0.8"/>
      </g>
     </g>
     <g id="text_18">
      <!-- 150 -->
      <g transform="translate(35.39375 112.731341) scale(0.1 -0.1)">
       <use xlink:href="#Calibri-31"/>
       <use xlink:href="#Calibri-35" x="50.683594"/>
       <use xlink:href="#Calibri-30" x="101.367188"/>
      </g>
     </g>
    </g>
    <g id="ytick_7">
     <g id="line2d_18">
      <g>
       <use xlink:href="#mb57accf9d0" x="57.6" y="76.06656" style="stroke: #000000; stroke-width: 0.8"/>
      </g>
     </g>
     <g id="text_19">
      <!-- 175 -->
      <g transform="translate(35.39375 79.467341) scale(0.1 -0.1)">
       <use xlink:href="#Calibri-31"/>
       <use xlink:href="#Calibri-37" x="50.683594"/>
       <use xlink:href="#Calibri-35" x="101.367188"/>
      </g>
     </g>
    </g>
    <g id="ytick_8">
     <g id="line2d_19">
      <g>
       <use xlink:href="#mb57accf9d0" x="57.6" y="42.80256" style="stroke: #000000; stroke-width: 0.8"/>
      </g>
     </g>
     <g id="text_20">
      <!-- 200 -->
      <g transform="translate(35.39375 46.203341) scale(0.1 -0.1)">
       <use xlink:href="#Calibri-32"/>
       <use xlink:href="#Calibri-30" x="50.683594"/>
       <use xlink:href="#Calibri-30" x="101.367188"/>
      </g>
     </g>
    </g>
    <g id="text_21">
     <!-- $\mathit{Z}$$_{a}$ (nm) -->
     <g transform="translate(29.59375 191.028) rotate(-90) scale(0.1 -0.1)">
      <defs>
       <path id="DejaVuSans-Oblique-5a" d="M 838 4666 
L 4500 4666 
L 4409 4184 
L 794 531 
L 3769 531 
L 3669 0 
L -141 0 
L -50 481 
L 3566 4134 
L 738 4134 
L 838 4666 
z
" transform="scale(0.015625)"/>
       <path id="DejaVuSans-Oblique-61" d="M 3438 1997 
L 3047 0 
L 2472 0 
L 2578 531 
Q 2325 219 2001 64 
Q 1678 -91 1281 -91 
Q 834 -91 548 182 
Q 263 456 263 884 
Q 263 1497 752 1853 
Q 1241 2209 2100 2209 
L 2900 2209 
L 2931 2363 
Q 2938 2388 2941 2417 
Q 2944 2447 2944 2509 
Q 2944 2788 2717 2942 
Q 2491 3097 2081 3097 
Q 1800 3097 1504 3025 
Q 1209 2953 897 2809 
L 997 3341 
Q 1322 3463 1633 3523 
Q 1944 3584 2234 3584 
Q 2853 3584 3176 3315 
Q 3500 3047 3500 2534 
Q 3500 2431 3484 2292 
Q 3469 2153 3438 1997 
z
M 2816 1759 
L 2241 1759 
Q 1534 1759 1195 1570 
Q 856 1381 856 984 
Q 856 709 1029 553 
Q 1203 397 1509 397 
Q 1978 397 2328 733 
Q 2678 1069 2791 1631 
L 2816 1759 
z
" transform="scale(0.015625)"/>
       <path id="Calibri-6e" d="M 2900 78 
Q 2900 53 2887 36 
Q 2875 19 2847 6 
Q 2819 -6 2769 -12 
Q 2719 -19 2644 -19 
Q 2566 -19 2516 -12 
Q 2466 -6 2437 6 
Q 2409 19 2396 36 
Q 2384 53 2384 78 
L 2384 1725 
Q 2384 1966 2346 2112 
Q 2309 2259 2237 2365 
Q 2166 2472 2052 2528 
Q 1938 2584 1788 2584 
Q 1594 2584 1400 2446 
Q 1206 2309 994 2044 
L 994 78 
Q 994 53 981 36 
Q 969 19 941 6 
Q 913 -6 863 -12 
Q 813 -19 734 -19 
Q 659 -19 609 -12 
Q 559 -6 529 6 
Q 500 19 489 36 
Q 478 53 478 78 
L 478 2891 
Q 478 2916 487 2933 
Q 497 2950 525 2964 
Q 553 2978 597 2983 
Q 641 2988 713 2988 
Q 781 2988 826 2983 
Q 872 2978 897 2964 
Q 922 2950 933 2933 
Q 944 2916 944 2891 
L 944 2519 
Q 1181 2784 1417 2907 
Q 1653 3031 1894 3031 
Q 2175 3031 2367 2936 
Q 2559 2841 2678 2681 
Q 2797 2522 2848 2308 
Q 2900 2094 2900 1794 
L 2900 78 
z
" transform="scale(0.015625)"/>
      </defs>
      <use xlink:href="#DejaVuSans-Oblique-5a" transform="translate(0 0.09375)"/>
      <use xlink:href="#DejaVuSans-Oblique-61" transform="translate(69.462891 -16.3125) scale(0.7)"/>
      <use xlink:href="#Calibri-20" transform="translate(115.092773 0.09375)"/>
      <use xlink:href="#Calibri-28" transform="translate(136.575195 0.09375)"/>
      <use xlink:href="#Calibri-6e" transform="translate(166.897461 0.09375)"/>
      <use xlink:href="#Calibri-6d" transform="translate(219.436523 0.09375)"/>
      <use xlink:href="#Calibri-29" transform="translate(299.319336 0.09375)"/>
     </g>
    </g>
   </g>
   <g id="patch_3">
    <path d="M 57.6 307.584 
L 57.6 41.472 
" style="fill: none; stroke: #000000; stroke-width: 0.8; stroke-linejoin: miter; stroke-linecap: square"/>
   </g>
   <g id="patch_4">
    <path d="M 343.296 307.584 
L 343.296 41.472 
" style="fill: none; stroke: #000000; stroke-width: 0.8; stroke-linejoin: miter; stroke-linecap: square"/>
   </g>
   <g id="patch_5">
    <path d="M 57.6 307.584 
L 343.296 307.584 
" style="fill: none; stroke: #000000; stroke-width: 0.8; stroke-linejoin: miter; stroke-linecap: square"/>
   </g>
   <g id="patch_6">
    <path d="M 57.6 41.472 
L 343.296 41.472 
" style="fill: none; stroke: #000000; stroke-width: 0.8; stroke-linejoin: miter; stroke-linecap: square"/>
   </g>
   <g id="text_22">
    <!-- $\lambda$ = 695 nm -->
    <g transform="translate(177.348 35.472) scale(0.1 -0.1)">
     <defs>
      <path id="DejaVuSans-Oblique-3bb" d="M 2350 4316 
L 3125 0 
L 2516 0 
L 2038 2588 
L 328 0 
L -281 0 
L 1903 3356 
L 1794 3975 
Q 1725 4369 1391 4369 
L 1091 4369 
L 1184 4863 
L 1550 4856 
Q 2253 4847 2350 4316 
z
" transform="scale(0.015625)"/>
      <path id="Calibri-3d" d="M 2891 2409 
Q 2891 2284 2855 2236 
Q 2819 2188 2772 2188 
L 409 2188 
Q 363 2188 328 2236 
Q 294 2284 294 2409 
Q 294 2522 325 2575 
Q 356 2628 409 2628 
L 2772 2628 
Q 2828 2628 2859 2575 
Q 2891 2522 2891 2409 
z
M 2891 1194 
Q 2891 1069 2855 1022 
Q 2819 975 2772 975 
L 409 975 
Q 363 975 328 1022 
Q 294 1069 294 1194 
Q 294 1309 325 1362 
Q 356 1416 409 1416 
L 2772 1416 
Q 2828 1416 2859 1362 
Q 2891 1309 2891 1194 
z
" transform="scale(0.015625)"/>
     </defs>
     <use xlink:href="#DejaVuSans-Oblique-3bb" transform="translate(0 0.015625)"/>
     <use xlink:href="#Calibri-20" transform="translate(59.179688 0.015625)"/>
     <use xlink:href="#Calibri-3d" transform="translate(81.787109 0.015625)"/>
     <use xlink:href="#Calibri-20" transform="translate(131.591797 0.015625)"/>
     <use xlink:href="#Calibri-36" transform="translate(154.199219 0.015625)"/>
     <use xlink:href="#Calibri-39" transform="translate(204.882812 0.015625)"/>
     <use xlink:href="#Calibri-35" transform="translate(255.566406 0.015625)"/>
     <use xlink:href="#Calibri-20" transform="translate(306.25 0.015625)"/>
     <use xlink:href="#Calibri-6e" transform="translate(328.857422 0.015625)"/>
     <use xlink:href="#Calibri-6d" transform="translate(381.396484 0.015625)"/>
    </g>
   </g>
  </g>
  <g id="axes_2">
   <g id="patch_7">
    <path d="M 361.152 307.584 
L 374.4576 307.584 
L 374.4576 41.472 
L 361.152 41.472 
z
" style="fill: #ffffff"/>
   </g>
   <g id="QuadMesh_1">
    <path d="M 361.152 307.584 
L 374.4576 307.584 
L 374.4576 280.9728 
L 361.152 280.9728 
L 361.152 307.584 
" clip-path="url(#p7307078845)" style="fill: #0000b6"/>
    <path d="M 361.152 280.9728 
L 374.4576 280.9728 
L 374.4576 254.3616 
L 361.152 254.3616 
L 361.152 280.9728 
" clip-path="url(#p7307078845)" style="fill: #0018ff"/>
    <path d="M 361.152 254.3616 
L 374.4576 254.3616 
L 374.4576 227.7504 
L 361.152 227.7504 
L 361.152 254.3616 
" clip-path="url(#p7307078845)" style="fill: #0080ff"/>
    <path d="M 361.152 227.7504 
L 374.4576 227.7504 
L 374.4576 201.1392 
L 361.152 201.1392 
L 361.152 227.7504 
" clip-path="url(#p7307078845)" style="fill: #00e4f8"/>
    <path d="M 361.152 201.1392 
L 374.4576 201.1392 
L 374.4576 174.528 
L 361.152 174.528 
L 361.152 201.1392 
" clip-path="url(#p7307078845)" style="fill: #53ffa4"/>
    <path d="M 361.152 174.528 
L 374.4576 174.528 
L 374.4576 147.9168 
L 361.152 147.9168 
L 361.152 174.528 
" clip-path="url(#p7307078845)" style="fill: #a4ff53"/>
    <path d="M 361.152 147.9168 
L 374.4576 147.9168 
L 374.4576 121.3056 
L 361.152 121.3056 
L 361.152 147.9168 
" clip-path="url(#p7307078845)" style="fill: #f8f500"/>
    <path d="M 361.152 121.3056 
L 374.4576 121.3056 
L 374.4576 94.6944 
L 361.152 94.6944 
L 361.152 121.3056 
" clip-path="url(#p7307078845)" style="fill: #ff9400"/>
    <path d="M 361.152 94.6944 
L 374.4576 94.6944 
L 374.4576 68.0832 
L 361.152 68.0832 
L 361.152 94.6944 
" clip-path="url(#p7307078845)" style="fill: #ff3800"/>
    <path d="M 361.152 68.0832 
L 374.4576 68.0832 
L 374.4576 41.472 
L 361.152 41.472 
L 361.152 68.0832 
" clip-path="url(#p7307078845)" style="fill: #b60000"/>
   </g>
   <g id="matplotlib.axis_3"/>
   <g id="matplotlib.axis_4">
    <g id="ytick_9">
     <g id="line2d_20">
      <defs>
       <path id="md768f0f968" d="M 0 0 
L 3.5 0 
" style="stroke: #000000; stroke-width: 0.8"/>
      </defs>
      <g>
       <use xlink:href="#md768f0f968" x="374.4576" y="307.584" style="stroke: #000000; stroke-width: 0.8"/>
      </g>
     </g>
     <g id="text_23">
      <!-- 0 -->
      <g transform="translate(381.4576 310.984781) scale(0.1 -0.1)">
       <use xlink:href="#Calibri-30"/>
      </g>
     </g>
    </g>
    <g id="ytick_10">
     <g id="line2d_21">
      <g>
       <use xlink:href="#md768f0f968" x="374.4576" y="280.9728" style="stroke: #000000; stroke-width: 0.8"/>
      </g>
     </g>
     <g id="text_24">
      <!-- 0.1 -->
      <g transform="translate(381.4576 284.373581) scale(0.1 -0.1)">
       <use xlink:href="#Calibri-30"/>
       <use xlink:href="#Calibri-2e" x="50.683594"/>
       <use xlink:href="#Calibri-31" x="75.927734"/>
      </g>
     </g>
    </g>
    <g id="ytick_11">
     <g id="line2d_22">
      <g>
       <use xlink:href="#md768f0f968" x="374.4576" y="254.3616" style="stroke: #000000; stroke-width: 0.8"/>
      </g>
     </g>
     <g id="text_25">
      <!-- 0.2 -->
      <g transform="translate(381.4576 257.762381) scale(0.1 -0.1)">
       <use xlink:href="#Calibri-30"/>
       <use xlink:href="#Calibri-2e" x="50.683594"/>
       <use xlink:href="#Calibri-32" x="75.927734"/>
      </g>
     </g>
    </g>
    <g id="ytick_12">
     <g id="line2d_23">
      <g>
       <use xlink:href="#md768f0f968" x="374.4576" y="227.7504" style="stroke: #000000; stroke-width: 0.8"/>
      </g>
     </g>
     <g id="text_26">
      <!-- 0.3 -->
      <g transform="translate(381.4576 231.151181) scale(0.1 -0.1)">
       <use xlink:href="#Calibri-30"/>
       <use xlink:href="#Calibri-2e" x="50.683594"/>
       <use xlink:href="#Calibri-33" x="75.927734"/>
      </g>
     </g>
    </g>
    <g id="ytick_13">
     <g id="line2d_24">
      <g>
       <use xlink:href="#md768f0f968" x="374.4576" y="201.1392" style="stroke: #000000; stroke-width: 0.8"/>
      </g>
     </g>
     <g id="text_27">
      <!-- 0.4 -->
      <g transform="translate(381.4576 204.539981) scale(0.1 -0.1)">
       <use xlink:href="#Calibri-30"/>
       <use xlink:href="#Calibri-2e" x="50.683594"/>
       <use xlink:href="#Calibri-34" x="75.927734"/>
      </g>
     </g>
    </g>
    <g id="ytick_14">
     <g id="line2d_25">
      <g>
       <use xlink:href="#md768f0f968" x="374.4576" y="174.528" style="stroke: #000000; stroke-width: 0.8"/>
      </g>
     </g>
     <g id="text_28">
      <!-- 0.5 -->
      <g transform="translate(381.4576 177.928781) scale(0.1 -0.1)">
       <use xlink:href="#Calibri-30"/>
       <use xlink:href="#Calibri-2e" x="50.683594"/>
       <use xlink:href="#Calibri-35" x="75.927734"/>
      </g>
     </g>
    </g>
    <g id="ytick_15">
     <g id="line2d_26">
      <g>
       <use xlink:href="#md768f0f968" x="374.4576" y="147.9168" style="stroke: #000000; stroke-width: 0.8"/>
      </g>
     </g>
     <g id="text_29">
      <!-- 0.6 -->
      <g transform="translate(381.4576 151.317581) scale(0.1 -0.1)">
       <use xlink:href="#Calibri-30"/>
       <use xlink:href="#Calibri-2e" x="50.683594"/>
       <use xlink:href="#Calibri-36" x="75.927734"/>
      </g>
     </g>
    </g>
    <g id="ytick_16">
     <g id="line2d_27">
      <g>
       <use xlink:href="#md768f0f968" x="374.4576" y="121.3056" style="stroke: #000000; stroke-width: 0.8"/>
      </g>
     </g>
     <g id="text_30">
      <!-- 0.7 -->
      <g transform="translate(381.4576 124.706381) scale(0.1 -0.1)">
       <use xlink:href="#Calibri-30"/>
       <use xlink:href="#Calibri-2e" x="50.683594"/>
       <use xlink:href="#Calibri-37" x="75.927734"/>
      </g>
     </g>
    </g>
    <g id="ytick_17">
     <g id="line2d_28">
      <g>
       <use xlink:href="#md768f0f968" x="374.4576" y="94.6944" style="stroke: #000000; stroke-width: 0.8"/>
      </g>
     </g>
     <g id="text_31">
      <!-- 0.8 -->
      <g transform="translate(381.4576 98.095181) scale(0.1 -0.1)">
       <use xlink:href="#Calibri-30"/>
       <use xlink:href="#Calibri-2e" x="50.683594"/>
       <use xlink:href="#Calibri-38" x="75.927734"/>
      </g>
     </g>
    </g>
    <g id="ytick_18">
     <g id="line2d_29">
      <g>
       <use xlink:href="#md768f0f968" x="374.4576" y="68.0832" style="stroke: #000000; stroke-width: 0.8"/>
      </g>
     </g>
     <g id="text_32">
      <!-- 0.9 -->
      <g transform="translate(381.4576 71.483981) scale(0.1 -0.1)">
       <use xlink:href="#Calibri-30"/>
       <use xlink:href="#Calibri-2e" x="50.683594"/>
       <use xlink:href="#Calibri-39" x="75.927734"/>
      </g>
     </g>
    </g>
    <g id="ytick_19">
     <g id="line2d_30">
      <g>
       <use xlink:href="#md768f0f968" x="374.4576" y="41.472" style="stroke: #000000; stroke-width: 0.8"/>
      </g>
     </g>
     <g id="text_33">
      <!-- 1.0 -->
      <g transform="translate(381.4576 44.872781) scale(0.1 -0.1)">
       <use xlink:href="#Calibri-31"/>
       <use xlink:href="#Calibri-2e" x="50.683594"/>
       <use xlink:href="#Calibri-30" x="75.927734"/>
      </g>
     </g>
    </g>
   </g>
   <g id="LineCollection_1"/>
   <g id="patch_8">
    <path d="M 361.152 307.584 
L 367.8048 307.584 
L 374.4576 307.584 
L 374.4576 41.472 
L 367.8048 41.472 
L 361.152 41.472 
L 361.152 307.584 
z
" style="fill: none; stroke: #000000; stroke-width: 0.8; stroke-linejoin: miter; stroke-linecap: square"/>
   </g>
   <g id="text_34">
    <!-- $\mathit{E}_{\mathrm{dis}}$/$\mathit{E}_{\mathrm{i}}$ -->
    <g transform="translate(353.2548 35.472) scale(0.1 -0.1)">
     <defs>
      <path id="DejaVuSans-Oblique-45" d="M 1081 4666 
L 4031 4666 
L 3928 4134 
L 1606 4134 
L 1338 2753 
L 3566 2753 
L 3463 2222 
L 1234 2222 
L 909 531 
L 3284 531 
L 3181 0 
L 172 0 
L 1081 4666 
z
" transform="scale(0.015625)"/>
      <path id="DejaVuSans-64" d="M 2906 2969 
L 2906 4863 
L 3481 4863 
L 3481 0 
L 2906 0 
L 2906 525 
Q 2725 213 2448 61 
Q 2172 -91 1784 -91 
Q 1150 -91 751 415 
Q 353 922 353 1747 
Q 353 2572 751 3078 
Q 1150 3584 1784 3584 
Q 2172 3584 2448 3432 
Q 2725 3281 2906 2969 
z
M 947 1747 
Q 947 1113 1208 752 
Q 1469 391 1925 391 
Q 2381 391 2643 752 
Q 2906 1113 2906 1747 
Q 2906 2381 2643 2742 
Q 2381 3103 1925 3103 
Q 1469 3103 1208 2742 
Q 947 2381 947 1747 
z
" transform="scale(0.015625)"/>
      <path id="DejaVuSans-69" d="M 603 3500 
L 1178 3500 
L 1178 0 
L 603 0 
L 603 3500 
z
M 603 4863 
L 1178 4863 
L 1178 4134 
L 603 4134 
L 603 4863 
z
" transform="scale(0.015625)"/>
      <path id="DejaVuSans-73" d="M 2834 3397 
L 2834 2853 
Q 2591 2978 2328 3040 
Q 2066 3103 1784 3103 
Q 1356 3103 1142 2972 
Q 928 2841 928 2578 
Q 928 2378 1081 2264 
Q 1234 2150 1697 2047 
L 1894 2003 
Q 2506 1872 2764 1633 
Q 3022 1394 3022 966 
Q 3022 478 2636 193 
Q 2250 -91 1575 -91 
Q 1294 -91 989 -36 
Q 684 19 347 128 
L 347 722 
Q 666 556 975 473 
Q 1284 391 1588 391 
Q 1994 391 2212 530 
Q 2431 669 2431 922 
Q 2431 1156 2273 1281 
Q 2116 1406 1581 1522 
L 1381 1569 
Q 847 1681 609 1914 
Q 372 2147 372 2553 
Q 372 3047 722 3315 
Q 1072 3584 1716 3584 
Q 2034 3584 2315 3537 
Q 2597 3491 2834 3397 
z
" transform="scale(0.015625)"/>
     </defs>
     <use xlink:href="#DejaVuSans-Oblique-45" transform="translate(0 0.09375)"/>
     <use xlink:href="#DejaVuSans-64" transform="translate(63.183594 -16.3125) scale(0.7)"/>
     <use xlink:href="#DejaVuSans-69" transform="translate(107.617188 -16.3125) scale(0.7)"/>
     <use xlink:href="#DejaVuSans-73" transform="translate(127.06543 -16.3125) scale(0.7)"/>
     <use xlink:href="#Calibri-2f" transform="translate(166.269531 0.09375)"/>
     <use xlink:href="#DejaVuSans-Oblique-45" transform="translate(204.892578 0.09375)"/>
     <use xlink:href="#DejaVuSans-69" transform="translate(268.076172 -16.3125) scale(0.7)"/>
    </g>
   </g>
  </g>
 </g>
 <defs>
  <clipPath id="pdeea42cb4c">
   <rect x="57.6" y="41.472" width="285.696" height="266.112"/>
  </clipPath>
  <clipPath id="p7307078845">
   <rect x="361.152" y="41.472" width="13.3056" height="266.112"/>
  </clipPath>
 </defs>
</svg>
