<?xml version="1.0" encoding="utf-8" standalone="no"?>
<!DOCTYPE svg PUBLIC "-//W3C//DTD SVG 1.1//EN"
  "http://www.w3.org/Graphics/SVG/1.1/DTD/svg11.dtd">
<svg xmlns:xlink="http://www.w3.org/1999/xlink" width="460.8pt" height="345.6pt" viewBox="0 0 460.8 345.6" xmlns="http://www.w3.org/2000/svg" version="1.1">
 <metadata>
  <rdf:RDF xmlns:dc="http://purl.org/dc/elements/1.1/" xmlns:cc="http://creativecommons.org/ns#" xmlns:rdf="http://www.w3.org/1999/02/22-rdf-syntax-ns#">
   <cc:Work>
    <dc:type rdf:resource="http://purl.org/dc/dcmitype/StillImage"/>
    <dc:date>2024-01-22T08:49:49.270074</dc:date>
    <dc:format>image/svg+xml</dc:format>
    <dc:creator>
     <cc:Agent>
      <dc:title>Matplotlib v3.7.1, https://matplotlib.org/</dc:title>
     </cc:Agent>
    </dc:creator>
   </cc:Work>
  </rdf:RDF>
 </metadata>
 <defs>
  <style type="text/css">*{stroke-linejoin: round; stroke-linecap: butt}</style>
 </defs>
 <g id="figure_1">
  <g id="patch_1">
   <path d="M 0 345.6 
L 460.8 345.6 
L 460.8 0 
L 0 0 
z
" style="fill: #ffffff"/>
  </g>
  <g id="axes_1">
   <g id="patch_2">
    <path d="M 57.6 307.584 
L 343.296 307.584 
L 343.296 41.472 
L 57.6 41.472 
z
" style="fill: #ffffff"/>
   </g>
   <g id="PathCollection_1">
    <path clip-path="url(#p94a8054b6a)" style="fill: #0000b6"/>
   </g>
   <g id="PathCollection_2">
    <path clip-path="url(#p94a8054b6a)" style="fill: #0018ff"/>
   </g>
   <g id="PathCollection_3">
    <path d="M 57.62857 68.476405 
L 57.756059 68.361521 
L 58.056416 68.0832 
L 58.595868 67.580054 
L 59.097111 67.10892 
L 59.886158 66.358919 
L 60.481166 65.78363 
L 60.811085 65.468793 
L 61.546821 64.7568 
L 61.997315 64.314962 
L 62.742533 63.57176 
L 63.379135 62.94228 
L 63.915453 62.40468 
L 64.519084 61.790462 
L 64.875001 61.4304 
L 65.049094 61.251323 
L 65.820093 60.45612 
L 66.161414 60.099966 
L 66.450243 59.793696 
L 66.985117 59.233326 
L 68.049119 58.104 
L 68.213519 57.927095 
L 68.538136 57.572238 
L 69.516038 56.511124 
L 70.206914 55.75188 
L 70.871793 55.010134 
L 71.081575 54.7776 
L 71.161233 54.688211 
L 71.197437 54.646897 
L 71.943846 53.80332 
L 72.255895 53.446365 
L 72.552493 53.101883 
L 73.066801 52.511148 
L 73.978498 51.4512 
L 74.245305 51.136624 
L 74.883168 50.373264 
L 75.556632 49.572384 
L 75.949957 49.09908 
L 76.069489 48.955702 
L 76.750818 48.1248 
L 77.040698 47.766595 
L 77.53876 47.15052 
L 78.158613 46.374126 
L 78.82135 45.531979 
L 79.046091 45.249307 
L 79.400562 44.7984 
L 80.081656 43.919502 
L 81.207316 42.44628 
L 81.351013 42.255784 
L 81.93889 41.472 
L 80.48425 41.472 
L 78.960538 41.472 
L 77.436826 41.472 
L 75.913114 41.472 
L 74.389402 41.472 
L 72.86569 41.472 
L 71.341978 41.472 
L 69.818266 41.472 
L 68.294554 41.472 
L 66.770842 41.472 
L 65.24713 41.472 
L 63.723418 41.472 
L 62.199706 41.472 
L 60.675994 41.472 
L 59.152282 41.472 
L 57.62857 41.472 
L 57.62857 44.7984 
L 57.62857 48.1248 
L 57.62857 51.4512 
L 57.62857 54.7776 
L 57.62857 58.104 
L 57.62857 61.4304 
L 57.62857 64.7568 
L 57.62857 68.0832 
" clip-path="url(#p94a8054b6a)" style="fill: #0080ff"/>
   </g>
   <g id="PathCollection_4">
    <path d="M 81.93889 41.472 
L 81.351013 42.255784 
L 81.207316 42.44628 
L 80.081656 43.919502 
L 79.400562 44.7984 
L 79.046091 45.249307 
L 78.82135 45.531979 
L 78.158613 46.374126 
L 77.53876 47.15052 
L 77.040698 47.766595 
L 76.750818 48.1248 
L 76.069489 48.955702 
L 75.949957 49.09908 
L 75.556632 49.572384 
L 74.883168 50.373264 
L 74.245305 51.136624 
L 73.978498 51.4512 
L 73.066801 52.511148 
L 72.552493 53.101883 
L 72.255895 53.446365 
L 71.943846 53.80332 
L 71.197437 54.646897 
L 71.161233 54.688211 
L 71.081575 54.7776 
L 70.871793 55.010134 
L 70.206914 55.75188 
L 69.516038 56.511124 
L 68.538136 57.572238 
L 68.213519 57.927095 
L 68.049119 58.104 
L 66.985117 59.233326 
L 66.450243 59.793696 
L 66.161414 60.099966 
L 65.820093 60.45612 
L 65.049094 61.251323 
L 64.875001 61.4304 
L 64.519084 61.790462 
L 63.915453 62.40468 
L 63.379135 62.94228 
L 62.742533 63.57176 
L 61.997315 64.314962 
L 61.546821 64.7568 
L 60.811085 65.468793 
L 60.481166 65.78363 
L 59.886158 66.358919 
L 59.097111 67.10892 
L 58.595868 67.580054 
L 58.056416 68.0832 
L 57.756059 68.361521 
L 57.62857 68.476405 
L 57.62857 71.4096 
L 57.62857 74.736 
L 57.62857 78.0624 
L 57.62857 81.3888 
L 57.62857 84.7152 
L 57.62857 88.0416 
L 57.62857 91.368 
L 57.62857 94.6944 
L 57.62857 98.0208 
L 57.62857 101.3472 
L 57.62857 104.6736 
L 57.62857 108 
L 57.62857 111.3264 
L 57.62857 114.6528 
L 57.62857 115.608265 
L 57.986758 115.434758 
L 58.667424 115.09124 
L 59.291001 114.778239 
L 59.348211 114.749699 
L 59.538452 114.6528 
L 61.236201 113.781536 
L 61.434996 113.67852 
L 62.921145 112.901368 
L 63.481749 112.600101 
L 63.9213 112.36933 
L 65.046655 111.764053 
L 65.369586 111.593734 
L 65.862806 111.3264 
L 66.685265 110.875371 
L 66.876822 110.767834 
L 67.805262 110.258233 
L 69.124445 109.514672 
L 69.44126 109.339411 
L 70.086036 108.97428 
L 70.57608 108.692574 
L 71.51308 108.154722 
L 71.780273 108 
L 73.362661 107.071554 
L 73.440108 107.02572 
L 75.031304 106.07493 
L 75.728274 105.647787 
L 76.060167 105.448636 
L 77.323573 104.6736 
L 77.411746 104.618848 
L 77.482548 104.573784 
L 78.786686 103.757323 
L 79.182415 103.504206 
L 79.777703 103.131146 
L 81.03818 102.32148 
L 81.34299 102.123729 
L 82.530725 101.3472 
L 83.108238 100.964302 
L 83.993477 100.37292 
L 84.463735 100.055574 
L 84.70033 99.892102 
L 85.329526 99.465642 
L 86.18984 98.870585 
L 86.783188 98.466348 
L 87.421917 98.0208 
L 88.022331 97.596641 
L 88.208777 97.462307 
L 89.086386 96.841636 
L 90.702354 95.67216 
L 90.70434 95.670744 
L 90.707177 95.66868 
L 90.713707 95.663854 
L 92.030521 94.6944 
L 92.287587 94.503323 
L 92.382814 94.43114 
L 93.32807 93.72012 
L 93.64204 93.481436 
L 93.823403 93.340488 
L 94.477182 92.841217 
L 95.361834 92.152898 
L 95.893802 91.744436 
L 96.373361 91.368 
L 97.130786 90.765613 
L 97.400881 90.546869 
L 98.127595 89.968205 
L 99.298076 89.01588 
L 99.585115 88.779771 
L 99.840328 88.571537 
L 100.477388 88.0416 
L 101.171249 87.458377 
L 101.633895 87.06732 
L 102.539208 86.293552 
L 103.139907 85.769407 
L 103.33993 85.59519 
L 103.33993 84.7152 
L 103.33993 81.3888 
L 103.33993 78.0624 
L 103.33993 74.736 
L 103.33993 71.4096 
L 103.33993 68.0832 
L 103.33993 64.7568 
L 103.33993 61.4304 
L 103.33993 58.104 
L 103.33993 54.7776 
L 103.33993 51.4512 
L 103.33993 48.1248 
L 103.33993 44.7984 
L 103.33993 41.472 
L 101.816218 41.472 
L 100.292506 41.472 
L 98.768794 41.472 
L 97.245082 41.472 
L 95.72137 41.472 
L 94.197658 41.472 
L 92.673946 41.472 
L 91.150234 41.472 
L 89.626522 41.472 
L 88.10281 41.472 
L 86.579098 41.472 
L 85.055386 41.472 
L 83.531674 41.472 
L 82.007962 41.472 
" clip-path="url(#p94a8054b6a)" style="fill: #00e4f8"/>
   </g>
   <g id="PathCollection_5">
    <path d="M 103.33993 85.59519 
L 103.139907 85.769407 
L 102.539208 86.293552 
L 101.633895 87.06732 
L 101.171249 87.458377 
L 100.477388 88.0416 
L 99.840328 88.571537 
L 99.585115 88.779771 
L 99.298076 89.01588 
L 98.127595 89.968205 
L 97.400881 90.546869 
L 97.130786 90.765613 
L 96.373361 91.368 
L 95.893802 91.744436 
L 95.361834 92.152898 
L 94.477182 92.841217 
L 93.823403 93.340488 
L 93.64204 93.481436 
L 93.32807 93.72012 
L 92.382814 94.43114 
L 92.287587 94.503323 
L 92.030521 94.6944 
L 90.713707 95.663854 
L 90.707177 95.66868 
L 90.70434 95.670744 
L 90.702354 95.67216 
L 89.086386 96.841636 
L 88.208777 97.462307 
L 88.022331 97.596641 
L 87.421917 98.0208 
L 86.783188 98.466348 
L 86.18984 98.870585 
L 85.329526 99.465642 
L 84.70033 99.892102 
L 84.463735 100.055574 
L 83.993477 100.37292 
L 83.108238 100.964302 
L 82.530725 101.3472 
L 81.34299 102.123729 
L 81.03818 102.32148 
L 79.777703 103.131146 
L 79.182415 103.504206 
L 78.786686 103.757323 
L 77.482548 104.573784 
L 77.411746 104.618848 
L 77.323573 104.6736 
L 76.060167 105.448636 
L 75.728274 105.647787 
L 75.031304 106.07493 
L 73.440108 107.02572 
L 73.362661 107.071554 
L 71.780273 108 
L 71.51308 108.154722 
L 70.57608 108.692574 
L 70.086036 108.97428 
L 69.44126 109.339411 
L 69.124445 109.514672 
L 67.805262 110.258233 
L 66.876822 110.767834 
L 66.685265 110.875371 
L 65.862806 111.3264 
L 65.369586 111.593734 
L 65.046655 111.764053 
L 63.9213 112.36933 
L 63.481749 112.600101 
L 62.921145 112.901368 
L 61.434996 113.67852 
L 61.236201 113.781536 
L 59.538452 114.6528 
L 59.348211 114.749699 
L 59.291001 114.778239 
L 58.667424 115.09124 
L 57.986758 115.434758 
L 57.62857 115.608265 
L 57.62857 117.9792 
L 57.62857 121.3056 
L 57.62857 124.632 
L 57.62857 127.9584 
L 57.62857 131.2848 
L 57.62857 134.6112 
L 57.62857 137.9376 
L 57.62857 141.264 
L 57.62857 144.5904 
L 57.62857 147.9168 
L 57.62857 151.2432 
L 57.62857 154.15206 
L 57.84277 154.101981 
L 58.469987 153.952625 
L 59.936645 153.59532 
L 60.200101 153.530685 
L 60.244126 153.519334 
L 61.069313 153.316167 
L 61.274382 153.263265 
L 62.936823 152.852393 
L 63.443043 152.720901 
L 63.978589 152.588066 
L 64.719271 152.395563 
L 65.666903 152.159603 
L 66.645562 151.903478 
L 66.884778 151.843696 
L 68.174148 151.506055 
L 68.390137 151.451867 
L 69.181413 151.2432 
L 69.787637 151.081772 
L 69.852311 151.063766 
L 71.106684 150.729533 
L 71.646354 150.57872 
L 72.686642 150.299541 
L 73.064874 150.193412 
L 73.816118 149.99167 
L 75.132528 149.620889 
L 75.582221 149.499251 
L 76.281532 149.301469 
L 76.518058 149.237447 
L 77.738029 148.89108 
L 78.327696 148.722383 
L 79.611803 148.348276 
L 80.192963 148.180201 
L 80.634654 148.052806 
L 81.097695 147.9168 
L 82.930112 147.372829 
L 84.353979 146.94252 
L 84.577863 146.874324 
L 84.62488 146.859355 
L 85.438668 146.610468 
L 85.690533 146.530216 
L 87.248444 146.051644 
L 87.862997 145.854318 
L 88.316104 145.714557 
L 89.248895 145.414794 
L 89.910282 145.209875 
L 91.106184 144.822561 
L 91.189372 144.796679 
L 91.825738 144.5904 
L 92.56326 144.348763 
L 92.825735 144.259031 
L 94.057598 143.852224 
L 94.357244 143.74931 
L 95.207375 143.468304 
L 96.428262 143.04719 
L 96.921118 142.882969 
L 97.614646 142.642631 
L 97.841872 142.566846 
L 98.785893 142.23828 
L 99.549736 141.970179 
L 101.529628 141.264 
L 101.734471 141.190079 
L 102.009446 141.08927 
L 103.081686 140.700231 
L 103.33993 140.601365 
L 103.33993 137.9376 
L 103.33993 134.6112 
L 103.33993 131.2848 
L 103.33993 127.9584 
L 103.33993 124.632 
L 103.33993 121.3056 
L 103.33993 117.9792 
L 103.33993 114.6528 
L 103.33993 111.3264 
L 103.33993 108 
L 103.33993 104.6736 
L 103.33993 101.3472 
L 103.33993 98.0208 
L 103.33993 94.6944 
L 103.33993 91.368 
L 103.33993 88.0416 
" clip-path="url(#p94a8054b6a)" style="fill: #53ffa4"/>
   </g>
   <g id="PathCollection_6">
    <path d="M 103.33993 140.601365 
L 103.081686 140.700231 
L 102.009446 141.08927 
L 101.734471 141.190079 
L 101.529628 141.264 
L 99.549736 141.970179 
L 98.785893 142.23828 
L 97.841872 142.566846 
L 97.614646 142.642631 
L 96.921118 142.882969 
L 96.428262 143.04719 
L 95.207375 143.468304 
L 94.357244 143.74931 
L 94.057598 143.852224 
L 92.825735 144.259031 
L 92.56326 144.348763 
L 91.825738 144.5904 
L 91.189372 144.796679 
L 91.106184 144.822561 
L 89.910282 145.209875 
L 89.248895 145.414794 
L 88.316104 145.714557 
L 87.862997 145.854318 
L 87.248444 146.051644 
L 85.690533 146.530216 
L 85.438668 146.610468 
L 84.62488 146.859355 
L 84.577863 146.874324 
L 84.353979 146.94252 
L 82.930112 147.372829 
L 81.097695 147.9168 
L 80.634654 148.052806 
L 80.192963 148.180201 
L 79.611803 148.348276 
L 78.327696 148.722383 
L 77.738029 148.89108 
L 76.518058 149.237447 
L 76.281532 149.301469 
L 75.582221 149.499251 
L 75.132528 149.620889 
L 73.816118 149.99167 
L 73.064874 150.193412 
L 72.686642 150.299541 
L 71.646354 150.57872 
L 71.106684 150.729533 
L 69.852311 151.063766 
L 69.787637 151.081772 
L 69.181413 151.2432 
L 68.390137 151.451867 
L 68.174148 151.506055 
L 66.884778 151.843696 
L 66.645562 151.903478 
L 65.666903 152.159603 
L 64.719271 152.395563 
L 63.978589 152.588066 
L 63.443043 152.720901 
L 62.936823 152.852393 
L 61.274382 153.263265 
L 61.069313 153.316167 
L 60.244126 153.519334 
L 60.200101 153.530685 
L 59.936645 153.59532 
L 58.469987 153.952625 
L 57.84277 154.101981 
L 57.62857 154.15206 
L 57.62857 154.5696 
L 57.62857 157.896 
L 57.62857 161.2224 
L 57.62857 164.5488 
L 57.62857 167.8752 
L 57.62857 171.2016 
L 57.62857 174.528 
L 57.62857 177.8544 
L 57.62857 181.1808 
L 57.62857 184.5072 
L 57.62857 187.681292 
L 57.700346 187.676906 
L 58.894533 187.600527 
L 59.452254 187.562346 
L 61.399097 187.437651 
L 61.736101 187.414378 
L 62.739487 187.345495 
L 64.085445 187.259078 
L 64.574339 187.225218 
L 66.030809 187.124946 
L 66.765978 187.077629 
L 67.409144 187.032954 
L 69.326351 186.900581 
L 69.440517 186.893215 
L 69.927055 186.85932 
L 70.260157 186.836165 
L 70.275731 186.834913 
L 72.34232 186.691037 
L 72.453032 186.682089 
L 73.267572 186.625298 
L 73.424994 186.612588 
L 75.294024 186.482071 
L 75.542228 186.461933 
L 76.274285 186.410737 
L 76.576084 186.386275 
L 78.244049 186.269441 
L 78.632173 186.237826 
L 79.280276 186.192361 
L 79.729061 186.155843 
L 81.192341 186.053027 
L 81.722893 186.009639 
L 82.285518 185.970046 
L 82.883988 185.921155 
L 84.138843 185.832705 
L 84.814413 185.777234 
L 85.289988 185.743661 
L 86.040931 185.682066 
L 87.083495 185.608344 
L 87.90676 185.540469 
L 88.29366 185.513068 
L 89.199958 185.438426 
L 90.026234 185.379808 
L 90.999963 185.299194 
L 91.296506 185.278123 
L 92.361143 185.190075 
L 92.966995 185.146953 
L 94.094051 185.053251 
L 94.298498 185.038676 
L 95.524562 184.936848 
L 95.905709 184.909629 
L 97.189057 184.802475 
L 97.299606 184.794567 
L 98.690294 184.678571 
L 98.842303 184.667678 
L 100.285012 184.546692 
L 100.299797 184.545631 
L 100.758544 184.5072 
L 101.776806 184.421161 
L 101.859291 184.413168 
L 103.29888 184.290852 
L 103.33993 184.286462 
L 103.33993 181.1808 
L 103.33993 177.8544 
L 103.33993 174.528 
L 103.33993 171.2016 
L 103.33993 167.8752 
L 103.33993 164.5488 
L 103.33993 161.2224 
L 103.33993 157.896 
L 103.33993 154.5696 
L 103.33993 151.2432 
L 103.33993 147.9168 
L 103.33993 144.5904 
L 103.33993 141.264 
" clip-path="url(#p94a8054b6a)" style="fill: #a4ff53"/>
   </g>
   <g id="PathCollection_7">
    <path d="M 103.33993 184.286462 
L 103.29888 184.290852 
L 101.859291 184.413168 
L 101.776806 184.421161 
L 100.758544 184.5072 
L 100.299797 184.545631 
L 100.285012 184.546692 
L 98.842303 184.667678 
L 98.690294 184.678571 
L 97.299606 184.794567 
L 97.189057 184.802475 
L 95.905709 184.909629 
L 95.524562 184.936848 
L 94.298498 185.038676 
L 94.094051 185.053251 
L 92.966995 185.146953 
L 92.361143 185.190075 
L 91.296506 185.278123 
L 90.999963 185.299194 
L 90.026234 185.379808 
L 89.199958 185.438426 
L 88.29366 185.513068 
L 87.90676 185.540469 
L 87.083495 185.608344 
L 86.040931 185.682066 
L 85.289988 185.743661 
L 84.814413 185.777234 
L 84.138843 185.832705 
L 82.883988 185.921155 
L 82.285518 185.970046 
L 81.722893 186.009639 
L 81.192341 186.053027 
L 79.729061 186.155843 
L 79.280276 186.192361 
L 78.632173 186.237826 
L 78.244049 186.269441 
L 76.576084 186.386275 
L 76.274285 186.410737 
L 75.542228 186.461933 
L 75.294024 186.482071 
L 73.424994 186.612588 
L 73.267572 186.625298 
L 72.453032 186.682089 
L 72.34232 186.691037 
L 70.275731 186.834913 
L 70.260157 186.836165 
L 69.927055 186.85932 
L 69.440517 186.893215 
L 69.326351 186.900581 
L 67.409144 187.032954 
L 66.765978 187.077629 
L 66.030809 187.124946 
L 64.574339 187.225218 
L 64.085445 187.259078 
L 62.739487 187.345495 
L 61.736101 187.414378 
L 61.399097 187.437651 
L 59.452254 187.562346 
L 58.894533 187.600527 
L 57.700346 187.676906 
L 57.62857 187.681292 
L 57.62857 187.8336 
L 57.62857 191.16 
L 57.62857 194.4864 
L 57.62857 197.8128 
L 57.62857 201.1392 
L 57.62857 204.4656 
L 57.62857 207.792 
L 57.62857 211.1184 
L 57.62857 214.4448 
L 57.62857 217.7712 
L 57.62857 218.285872 
L 57.72764 218.293347 
L 58.880049 218.365508 
L 59.443124 218.406134 
L 60.542334 218.475644 
L 60.81339 218.495339 
L 61.838172 218.56046 
L 62.586316 218.615206 
L 63.551525 218.677152 
L 63.900186 218.702846 
L 64.793969 218.760491 
L 65.732189 218.830128 
L 66.559696 218.884033 
L 66.988063 218.916055 
L 67.747364 218.965763 
L 68.880834 219.051104 
L 69.566813 219.096465 
L 70.07706 219.13516 
L 70.698283 219.176444 
L 72.032351 219.278347 
L 72.572843 219.314632 
L 73.167213 219.360363 
L 73.646642 219.392711 
L 75.186841 219.512081 
L 75.577748 219.538727 
L 76.258564 219.591879 
L 76.592359 219.614746 
L 78.344411 219.75254 
L 78.58149 219.76895 
L 79.351155 219.829929 
L 79.535345 219.842743 
L 81.505174 219.99997 
L 81.584029 220.005513 
L 82.445031 220.074748 
L 82.475509 220.076901 
L 83.048476 220.12332 
L 84.481185 220.238989 
L 85.157294 220.293635 
L 85.745741 220.344024 
L 87.273962 220.469258 
L 87.767705 220.509763 
L 89.104973 220.625982 
L 90.060193 220.705446 
L 90.36768 220.731053 
L 92.474079 220.916867 
L 92.839666 220.947745 
L 94.519583 221.0976 
L 95.613303 221.195321 
L 95.854546 221.218027 
L 95.990828 221.230863 
L 98.381596 221.44773 
L 99.24748 221.53046 
L 99.739077 221.577462 
L 101.142593 221.706736 
L 102.651733 221.853127 
L 102.979851 221.883684 
L 103.33993 221.916585 
L 103.33993 221.0976 
L 103.33993 217.7712 
L 103.33993 214.4448 
L 103.33993 211.1184 
L 103.33993 207.792 
L 103.33993 204.4656 
L 103.33993 201.1392 
L 103.33993 197.8128 
L 103.33993 194.4864 
L 103.33993 191.16 
L 103.33993 187.8336 
L 103.33993 184.5072 
" clip-path="url(#p94a8054b6a)" style="fill: #f8f500"/>
   </g>
   <g id="PathCollection_8">
    <path d="M 103.33993 221.916585 
L 102.979851 221.883684 
L 102.651733 221.853127 
L 101.142593 221.706736 
L 99.739077 221.577462 
L 99.24748 221.53046 
L 98.381596 221.44773 
L 95.990828 221.230863 
L 95.854546 221.218027 
L 95.613303 221.195321 
L 94.519583 221.0976 
L 92.839666 220.947745 
L 92.474079 220.916867 
L 90.36768 220.731053 
L 90.060193 220.705446 
L 89.104973 220.625982 
L 87.767705 220.509763 
L 87.273962 220.469258 
L 85.745741 220.344024 
L 85.157294 220.293635 
L 84.481185 220.238989 
L 83.048476 220.12332 
L 82.475509 220.076901 
L 82.445031 220.074748 
L 81.584029 220.005513 
L 81.505174 219.99997 
L 79.535345 219.842743 
L 79.351155 219.829929 
L 78.58149 219.76895 
L 78.344411 219.75254 
L 76.592359 219.614746 
L 76.258564 219.591879 
L 75.577748 219.538727 
L 75.186841 219.512081 
L 73.646642 219.392711 
L 73.167213 219.360363 
L 72.572843 219.314632 
L 72.032351 219.278347 
L 70.698283 219.176444 
L 70.07706 219.13516 
L 69.566813 219.096465 
L 68.880834 219.051104 
L 67.747364 218.965763 
L 66.988063 218.916055 
L 66.559696 218.884033 
L 65.732189 218.830128 
L 64.793969 218.760491 
L 63.900186 218.702846 
L 63.551525 218.677152 
L 62.586316 218.615206 
L 61.838172 218.56046 
L 60.81339 218.495339 
L 60.542334 218.475644 
L 59.443124 218.406134 
L 58.880049 218.365508 
L 57.72764 218.293347 
L 57.62857 218.285872 
L 57.62857 221.0976 
L 57.62857 224.424 
L 57.62857 227.7504 
L 57.62857 231.0768 
L 57.62857 234.4032 
L 57.62857 237.7296 
L 57.62857 241.056 
L 57.62857 244.3824 
L 57.62857 247.512767 
L 57.712091 247.526465 
L 58.800454 247.7088 
L 59.097282 247.758534 
L 59.23298 247.781773 
L 59.335258 247.799293 
L 61.663775 248.193424 
L 62.989296 248.422799 
L 63.995626 248.596989 
L 64.222075 248.635722 
L 64.49288 248.68308 
L 66.188708 248.979649 
L 66.387741 249.016088 
L 67.12921 249.146439 
L 67.456951 249.206639 
L 69.006698 249.480524 
L 69.542082 249.57959 
L 70.076436 249.674529 
L 70.778394 249.804847 
L 71.820312 249.990953 
L 72.698731 250.155252 
L 73.021646 250.213241 
L 74.106114 250.416758 
L 74.62941 250.511239 
L 75.857768 250.743506 
L 75.964773 250.762931 
L 77.399832 251.0352 
L 77.433869 251.041655 
L 77.440373 251.042943 
L 78.905938 251.322963 
L 79.019426 251.345568 
L 80.235308 251.578661 
L 80.783484 251.688456 
L 81.845105 251.893525 
L 82.183759 251.961731 
L 83.031956 252.126129 
L 84.133593 252.349244 
L 84.782032 252.475894 
L 85.350715 252.591716 
L 85.823652 252.684405 
L 87.490975 253.02591 
L 87.71664 253.070483 
L 88.520392 253.236045 
L 88.610232 253.253852 
L 89.254478 253.38732 
L 90.433956 253.631465 
L 90.905423 253.729108 
L 92.301646 254.024943 
L 92.906259 254.151527 
L 93.041452 254.179846 
L 93.88943 254.3616 
L 95.37054 254.678843 
L 96.295798 254.881036 
L 97.286002 255.094928 
L 97.825901 255.214225 
L 98.376145 255.33588 
L 99.711158 255.630733 
L 99.910882 255.676671 
L 100.643259 255.839371 
L 101.007993 255.923573 
L 102.47435 256.251238 
L 103.094719 256.39563 
L 103.33993 256.450298 
L 103.33993 254.3616 
L 103.33993 251.0352 
L 103.33993 247.7088 
L 103.33993 244.3824 
L 103.33993 241.056 
L 103.33993 237.7296 
L 103.33993 234.4032 
L 103.33993 231.0768 
L 103.33993 227.7504 
L 103.33993 224.424 
" clip-path="url(#p94a8054b6a)" style="fill: #ff9400"/>
   </g>
   <g id="PathCollection_9">
    <path d="M 103.33993 256.450298 
L 103.094719 256.39563 
L 102.47435 256.251238 
L 101.007993 255.923573 
L 100.643259 255.839371 
L 99.910882 255.676671 
L 99.711158 255.630733 
L 98.376145 255.33588 
L 97.825901 255.214225 
L 97.286002 255.094928 
L 96.295798 254.881036 
L 95.37054 254.678843 
L 93.88943 254.3616 
L 93.041452 254.179846 
L 92.906259 254.151527 
L 92.301646 254.024943 
L 90.905423 253.729108 
L 90.433956 253.631465 
L 89.254478 253.38732 
L 88.610232 253.253852 
L 88.520392 253.236045 
L 87.71664 253.070483 
L 87.490975 253.02591 
L 85.823652 252.684405 
L 85.350715 252.591716 
L 84.782032 252.475894 
L 84.133593 252.349244 
L 83.031956 252.126129 
L 82.183759 251.961731 
L 81.845105 251.893525 
L 80.783484 251.688456 
L 80.235308 251.578661 
L 79.019426 251.345568 
L 78.905938 251.322963 
L 77.440373 251.042943 
L 77.433869 251.041655 
L 77.399832 251.0352 
L 75.964773 250.762931 
L 75.857768 250.743506 
L 74.62941 250.511239 
L 74.106114 250.416758 
L 73.021646 250.213241 
L 72.698731 250.155252 
L 71.820312 249.990953 
L 70.778394 249.804847 
L 70.076436 249.674529 
L 69.542082 249.57959 
L 69.006698 249.480524 
L 67.456951 249.206639 
L 67.12921 249.146439 
L 66.387741 249.016088 
L 66.188708 248.979649 
L 64.49288 248.68308 
L 64.222075 248.635722 
L 63.995626 248.596989 
L 62.989296 248.422799 
L 61.663775 248.193424 
L 59.335258 247.799293 
L 59.23298 247.781773 
L 59.097282 247.758534 
L 58.800454 247.7088 
L 57.712091 247.526465 
L 57.62857 247.512767 
L 57.62857 247.7088 
L 57.62857 251.0352 
L 57.62857 254.3616 
L 57.62857 257.688 
L 57.62857 261.0144 
L 57.62857 264.3408 
L 57.62857 267.6672 
L 57.62857 270.9936 
L 57.62857 274.32 
L 57.62857 276.920052 
L 57.7603 276.952121 
L 58.976598 277.262866 
L 59.29171 277.342015 
L 60.476109 277.6464 
L 60.666647 277.69566 
L 60.686325 277.700851 
L 62.01672 278.045875 
L 62.433254 278.156258 
L 63.570401 278.452868 
L 63.892714 278.53867 
L 64.737194 278.759636 
L 65.899452 279.070478 
L 66.472047 279.221183 
L 67.101737 279.390366 
L 67.453194 279.483163 
L 69.362296 279.99852 
L 69.369748 280.000539 
L 69.383918 280.004424 
L 70.655163 280.351737 
L 71.709836 280.640159 
L 71.905945 280.693885 
L 72.911978 280.9728 
L 73.858765 281.235231 
L 74.042279 281.286691 
L 75.049453 281.569661 
L 75.803427 281.780612 
L 76.367038 281.940172 
L 76.391392 281.94708 
L 78.26939 282.481637 
L 78.635881 282.588118 
L 79.251772 282.764263 
L 79.862744 282.942397 
L 80.961177 283.258026 
L 81.860472 283.521866 
L 82.14013 283.602614 
L 83.379776 283.967595 
L 83.647935 284.045392 
L 84.504528 284.2992 
L 85.02593 284.454442 
L 85.088438 284.4734 
L 86.329457 284.844188 
L 86.909765 285.021077 
L 87.908852 285.321445 
L 88.320705 285.447607 
L 89.005795 285.654301 
L 90.451088 286.099302 
L 90.789209 286.201962 
L 91.556297 286.439332 
L 91.676803 286.476051 
L 92.24027 286.65132 
L 93.363796 287.001793 
L 95.340668 287.6256 
L 95.572977 287.698989 
L 95.622662 287.714857 
L 95.928283 287.812704 
L 97.424798 288.290285 
L 97.873579 288.435111 
L 98.382925 288.59988 
L 99.656918 289.013146 
L 99.942552 289.107589 
L 100.60168 289.322515 
L 101.153743 289.505759 
L 102.305746 289.883315 
L 103.193443 290.179953 
L 103.33993 290.228782 
L 103.33993 287.6256 
L 103.33993 284.2992 
L 103.33993 280.9728 
L 103.33993 277.6464 
L 103.33993 274.32 
L 103.33993 270.9936 
L 103.33993 267.6672 
L 103.33993 264.3408 
L 103.33993 261.0144 
L 103.33993 257.688 
" clip-path="url(#p94a8054b6a)" style="fill: #ff3800"/>
   </g>
   <g id="PathCollection_10">
    <path d="M 103.33993 290.228782 
L 103.193443 290.179953 
L 102.305746 289.883315 
L 101.153743 289.505759 
L 100.60168 289.322515 
L 99.942552 289.107589 
L 99.656918 289.013146 
L 98.382925 288.59988 
L 97.873579 288.435111 
L 97.424798 288.290285 
L 95.928283 287.812704 
L 95.622662 287.714857 
L 95.572977 287.698989 
L 95.340668 287.6256 
L 93.363796 287.001793 
L 92.24027 286.65132 
L 91.676803 286.476051 
L 91.556297 286.439332 
L 90.789209 286.201962 
L 90.451088 286.099302 
L 89.005795 285.654301 
L 88.320705 285.447607 
L 87.908852 285.321445 
L 86.909765 285.021077 
L 86.329457 284.844188 
L 85.088438 284.4734 
L 85.02593 284.454442 
L 84.504528 284.2992 
L 83.647935 284.045392 
L 83.379776 283.967595 
L 82.14013 283.602614 
L 81.860472 283.521866 
L 80.961177 283.258026 
L 79.862744 282.942397 
L 79.251772 282.764263 
L 78.635881 282.588118 
L 78.26939 282.481637 
L 76.391392 281.94708 
L 76.367038 281.940172 
L 75.803427 281.780612 
L 75.049453 281.569661 
L 74.042279 281.286691 
L 73.858765 281.235231 
L 72.911978 280.9728 
L 71.905945 280.693885 
L 71.709836 280.640159 
L 70.655163 280.351737 
L 69.383918 280.004424 
L 69.369748 280.000539 
L 69.362296 279.99852 
L 67.453194 279.483163 
L 67.101737 279.390366 
L 66.472047 279.221183 
L 65.899452 279.070478 
L 64.737194 278.759636 
L 63.892714 278.53867 
L 63.570401 278.452868 
L 62.433254 278.156258 
L 62.01672 278.045875 
L 60.686325 277.700851 
L 60.666647 277.69566 
L 60.476109 277.6464 
L 59.29171 277.342015 
L 58.976598 277.262866 
L 57.7603 276.952121 
L 57.62857 276.920052 
L 57.62857 277.6464 
L 57.62857 280.9728 
L 57.62857 284.2992 
L 57.62857 287.6256 
L 57.62857 290.952 
L 57.62857 294.2784 
L 57.62857 297.6048 
L 57.62857 300.9312 
L 57.62857 304.2576 
L 57.62857 307.584 
L 59.152282 307.584 
L 60.675994 307.584 
L 62.199706 307.584 
L 63.723418 307.584 
L 65.24713 307.584 
L 66.770842 307.584 
L 68.294554 307.584 
L 69.818266 307.584 
L 71.341978 307.584 
L 72.86569 307.584 
L 74.389402 307.584 
L 75.913114 307.584 
L 77.436826 307.584 
L 78.960538 307.584 
L 80.48425 307.584 
L 82.007962 307.584 
L 83.531674 307.584 
L 85.055386 307.584 
L 86.579098 307.584 
L 88.10281 307.584 
L 89.626522 307.584 
L 91.150234 307.584 
L 92.673946 307.584 
L 94.197658 307.584 
L 95.72137 307.584 
L 97.245082 307.584 
L 98.768794 307.584 
L 100.292506 307.584 
L 101.816218 307.584 
L 103.33993 307.584 
L 103.33993 304.2576 
L 103.33993 300.9312 
L 103.33993 297.6048 
L 103.33993 294.2784 
L 103.33993 290.952 
" clip-path="url(#p94a8054b6a)" style="fill: #b60000"/>
   </g>
   <g id="PathCollection_11">
    <path clip-path="url(#p94a8054b6a)" style="fill: #0000b6"/>
   </g>
   <g id="PathCollection_12">
    <path clip-path="url(#p94a8054b6a)" style="fill: #0018ff"/>
   </g>
   <g id="PathCollection_13">
    <path clip-path="url(#p94a8054b6a)" style="fill: #0080ff"/>
   </g>
   <g id="PathCollection_14">
    <path d="M 100.4544 88.018046 
L 101.095255 87.519417 
L 103.1033 85.824 
L 106.125956 83.168636 
L 110.009193 79.55168 
L 111.360365 78.22964 
L 112.689826 76.9536 
L 113.932711 75.617127 
L 115.170036 74.35552 
L 117.9096 71.431839 
L 120.9331 68.0832 
L 122.784341 65.941717 
L 126.184095 61.81088 
L 127.298014 60.374551 
L 128.234373 59.2128 
L 129.947986 56.848212 
L 130.130025 56.61472 
L 130.278103 56.412772 
L 130.842988 55.607829 
L 133.448484 51.969957 
L 134.58056 50.3424 
L 137.252057 46.314208 
L 138.681043 44.07008 
L 139.959684 41.911524 
L 140.2369 41.472 
L 132.83328 41.472 
L 124.73856 41.472 
L 116.64384 41.472 
L 108.54912 41.472 
L 100.4544 41.472 
L 100.4544 50.3424 
L 100.4544 59.2128 
L 100.4544 68.0832 
L 100.4544 76.9536 
L 100.4544 85.824 
" clip-path="url(#p94a8054b6a)" style="fill: #00e4f8"/>
   </g>
   <g id="PathCollection_15">
    <path d="M 140.2369 41.472 
L 139.959684 41.911524 
L 138.681043 44.07008 
L 137.252057 46.314208 
L 134.58056 50.3424 
L 133.448484 51.969957 
L 130.842988 55.607829 
L 130.278103 56.412772 
L 130.130025 56.61472 
L 129.947986 56.848212 
L 128.234373 59.2128 
L 127.298014 60.374551 
L 126.184095 61.81088 
L 122.784341 65.941717 
L 120.9331 68.0832 
L 117.9096 71.431839 
L 115.170036 74.35552 
L 113.932711 75.617127 
L 112.689826 76.9536 
L 111.360365 78.22964 
L 110.009193 79.55168 
L 106.125956 83.168636 
L 103.1033 85.824 
L 101.095255 87.519417 
L 100.4544 88.018046 
L 100.4544 94.6944 
L 100.4544 103.5648 
L 100.4544 112.4352 
L 100.4544 121.3056 
L 100.4544 130.176 
L 100.4544 139.0464 
L 100.4544 141.611277 
L 101.320613 141.338015 
L 107.504635 139.0464 
L 108.278882 138.750266 
L 109.163795 138.372824 
L 115.439412 135.860017 
L 118.327556 134.592035 
L 120.042773 133.900638 
L 122.545874 132.77408 
L 126.454513 130.954881 
L 126.96358 130.72836 
L 128.086661 130.176 
L 131.204248 128.570898 
L 133.200457 127.57792 
L 134.870838 126.696075 
L 137.242036 125.344773 
L 142.1614 122.657191 
L 144.408678 121.3056 
L 148.141465 118.97419 
L 150.501407 117.393649 
L 152.434612 116.174038 
L 154.088007 115.03328 
L 157.471472 112.595897 
L 157.550048 112.542595 
L 157.693093 112.4352 
L 158.508607 111.803741 
L 161.134045 109.83712 
L 162.129518 109.057162 
L 163.61097 107.800838 
L 166.063632 105.817417 
L 168.688716 103.5648 
L 171.230661 101.289627 
L 175.376076 97.29248 
L 176.50398 96.145582 
L 177.95039 94.6944 
L 180.08017 92.356847 
L 180.292449 92.09632 
L 182.730703 89.340217 
L 185.699109 85.824 
L 187.479814 83.614261 
L 190.553795 79.55168 
L 191.688961 77.948852 
L 192.420954 76.9536 
L 192.954485 76.095113 
L 193.646147 75.06997 
L 194.156035 74.35552 
L 194.605173 73.681611 
L 196.780472 70.227603 
L 197.80115 68.639059 
L 198.145294 68.0832 
L 201.100096 63.058113 
L 201.795506 61.81088 
L 202.351749 60.726127 
L 202.794839 59.930469 
L 203.227716 59.2128 
L 203.67851 58.301698 
L 204.575841 56.61472 
L 206.956919 51.735368 
L 207.605297 50.3424 
L 209.389949 46.283256 
L 210.405447 44.07008 
L 210.564959 43.686697 
L 211.501725 41.472 
L 205.68576 41.472 
L 197.59104 41.472 
L 189.49632 41.472 
L 181.4016 41.472 
L 173.30688 41.472 
L 165.21216 41.472 
L 157.11744 41.472 
L 149.02272 41.472 
L 140.928 41.472 
" clip-path="url(#p94a8054b6a)" style="fill: #53ffa4"/>
   </g>
   <g id="PathCollection_16">
    <path d="M 211.501725 41.472 
L 210.564959 43.686697 
L 210.405447 44.07008 
L 209.389949 46.283256 
L 207.605297 50.3424 
L 206.956919 51.735368 
L 204.575841 56.61472 
L 203.67851 58.301698 
L 203.227716 59.2128 
L 202.794839 59.930469 
L 202.351749 60.726127 
L 201.795506 61.81088 
L 201.100096 63.058113 
L 198.145294 68.0832 
L 197.80115 68.639059 
L 196.780472 70.227603 
L 194.605173 73.681611 
L 194.156035 74.35552 
L 193.646147 75.06997 
L 192.954485 76.095113 
L 192.420954 76.9536 
L 191.688961 77.948852 
L 190.553795 79.55168 
L 187.479814 83.614261 
L 185.699109 85.824 
L 182.730703 89.340217 
L 180.292449 92.09632 
L 180.08017 92.356847 
L 177.95039 94.6944 
L 176.50398 96.145582 
L 175.376076 97.29248 
L 171.230661 101.289627 
L 168.688716 103.5648 
L 166.063632 105.817417 
L 163.61097 107.800838 
L 162.129518 109.057162 
L 161.134045 109.83712 
L 158.508607 111.803741 
L 157.693093 112.4352 
L 157.550048 112.542595 
L 157.471472 112.595897 
L 154.088007 115.03328 
L 152.434612 116.174038 
L 150.501407 117.393649 
L 148.141465 118.97419 
L 144.408678 121.3056 
L 142.1614 122.657191 
L 137.242036 125.344773 
L 134.870838 126.696075 
L 133.200457 127.57792 
L 131.204248 128.570898 
L 128.086661 130.176 
L 126.96358 130.72836 
L 126.454513 130.954881 
L 122.545874 132.77408 
L 120.042773 133.900638 
L 118.327556 134.592035 
L 115.439412 135.860017 
L 109.163795 138.372824 
L 108.278882 138.750266 
L 107.504635 139.0464 
L 101.320613 141.338015 
L 100.4544 141.611277 
L 100.4544 147.9168 
L 100.4544 156.7872 
L 100.4544 165.6576 
L 100.4544 174.528 
L 100.4544 183.3984 
L 100.4544 184.517188 
L 101.419722 184.456224 
L 107.39816 183.920827 
L 109.364578 183.768541 
L 113.443856 183.3984 
L 121.675583 182.638018 
L 122.787012 182.512581 
L 127.922913 181.953004 
L 132.54557 181.460315 
L 135.929096 181.129369 
L 138.843321 180.80032 
L 145.90704 179.984159 
L 147.026684 179.808626 
L 150.848626 179.358538 
L 153.021005 179.016977 
L 160.402818 178.1282 
L 164.080411 177.522106 
L 166.243345 177.256058 
L 171.631107 176.364355 
L 174.636762 175.985318 
L 181.289131 174.825543 
L 181.503595 174.797833 
L 183.042172 174.528 
L 188.579953 173.523822 
L 190.911576 172.977127 
L 196.591715 171.88423 
L 198.793118 171.347836 
L 202.183269 170.689881 
L 211.290975 168.385663 
L 211.446522 168.353383 
L 211.815957 168.25568 
L 214.292541 167.53999 
L 220.891261 165.6576 
L 221.339956 165.524726 
L 221.476483 165.47662 
L 224.545718 164.445436 
L 228.700682 163.05952 
L 231.898211 161.888603 
L 234.400522 160.802434 
L 239.808983 158.698696 
L 243.803828 156.7872 
L 245.785475 155.798066 
L 246.742506 155.244455 
L 250.898552 153.110127 
L 255.092573 150.51488 
L 257.103653 149.210238 
L 258.985195 147.9168 
L 261.866975 145.787679 
L 262.384667 145.31872 
L 264.176615 143.881988 
L 269.528811 139.0464 
L 270.019299 138.581528 
L 275.29472 132.77408 
L 275.538156 132.488485 
L 276.334363 131.638398 
L 277.457292 130.176 
L 278.878495 128.25096 
L 279.271932 127.57792 
L 280.334858 126.058655 
L 283.364453 121.3056 
L 284.665463 119.149567 
L 286.834186 115.03328 
L 287.82322 112.975466 
L 288.086728 112.4352 
L 288.227264 112.039415 
L 288.40881 111.629131 
L 289.288941 109.83712 
L 290.296473 107.579371 
L 291.871112 103.5648 
L 293.280223 99.735471 
L 294.115654 97.29248 
L 294.262563 96.819373 
L 295.073898 94.6944 
L 295.601176 92.901736 
L 295.774213 92.09632 
L 296.360913 90.144812 
L 297.579433 85.824 
L 298.74936 81.360659 
L 299.172712 79.55168 
L 299.37372 78.518976 
L 299.815245 76.9536 
L 299.972108 76.246017 
L 300.059458 75.699485 
L 300.368883 74.35552 
L 301.235721 69.821923 
L 301.627349 68.0832 
L 301.848839 67.016347 
L 302.835564 61.81088 
L 303.201514 59.384882 
L 303.217987 59.311004 
L 303.234815 59.2128 
L 303.243449 59.108275 
L 303.255251 59.016327 
L 303.71257 56.61472 
L 304.402455 52.073864 
L 304.643615 50.3424 
L 304.932953 48.029602 
L 305.552511 44.07008 
L 305.704823 42.780349 
L 305.875805 41.472 
L 302.8224 41.472 
L 294.72768 41.472 
L 286.63296 41.472 
L 278.53824 41.472 
L 270.44352 41.472 
L 262.3488 41.472 
L 254.25408 41.472 
L 246.15936 41.472 
L 238.06464 41.472 
L 229.96992 41.472 
L 221.8752 41.472 
L 213.78048 41.472 
" clip-path="url(#p94a8054b6a)" style="fill: #a4ff53"/>
   </g>
   <g id="PathCollection_17">
    <path d="M 305.875805 41.472 
L 305.704823 42.780349 
L 305.552511 44.07008 
L 304.932953 48.029602 
L 304.643615 50.3424 
L 304.402455 52.073864 
L 303.71257 56.61472 
L 303.255251 59.016327 
L 303.243449 59.108275 
L 303.234815 59.2128 
L 303.217987 59.311004 
L 303.201514 59.384882 
L 302.835564 61.81088 
L 301.848839 67.016347 
L 301.627349 68.0832 
L 301.235721 69.821923 
L 300.368883 74.35552 
L 300.059458 75.699485 
L 299.972108 76.246017 
L 299.815245 76.9536 
L 299.37372 78.518976 
L 299.172712 79.55168 
L 298.74936 81.360659 
L 297.579433 85.824 
L 296.360913 90.144812 
L 295.774213 92.09632 
L 295.601176 92.901736 
L 295.073898 94.6944 
L 294.262563 96.819373 
L 294.115654 97.29248 
L 293.280223 99.735471 
L 291.871112 103.5648 
L 290.296473 107.579371 
L 289.288941 109.83712 
L 288.40881 111.629131 
L 288.227264 112.039415 
L 288.086728 112.4352 
L 287.82322 112.975466 
L 286.834186 115.03328 
L 284.665463 119.149567 
L 283.364453 121.3056 
L 280.334858 126.058655 
L 279.271932 127.57792 
L 278.878495 128.25096 
L 277.457292 130.176 
L 276.334363 131.638398 
L 275.538156 132.488485 
L 275.29472 132.77408 
L 270.019299 138.581528 
L 269.528811 139.0464 
L 264.176615 143.881988 
L 262.384667 145.31872 
L 261.866975 145.787679 
L 258.985195 147.9168 
L 257.103653 149.210238 
L 255.092573 150.51488 
L 250.898552 153.110127 
L 246.742506 155.244455 
L 245.785475 155.798066 
L 243.803828 156.7872 
L 239.808983 158.698696 
L 234.400522 160.802434 
L 231.898211 161.888603 
L 228.700682 163.05952 
L 224.545718 164.445436 
L 221.476483 165.47662 
L 221.339956 165.524726 
L 220.891261 165.6576 
L 214.292541 167.53999 
L 211.815957 168.25568 
L 211.446522 168.353383 
L 211.290975 168.385663 
L 202.183269 170.689881 
L 198.793118 171.347836 
L 196.591715 171.88423 
L 190.911576 172.977127 
L 188.579953 173.523822 
L 183.042172 174.528 
L 181.503595 174.797833 
L 181.289131 174.825543 
L 174.636762 175.985318 
L 171.631107 176.364355 
L 166.243345 177.256058 
L 164.080411 177.522106 
L 160.402818 178.1282 
L 153.021005 179.016977 
L 150.848626 179.358538 
L 147.026684 179.808626 
L 145.90704 179.984159 
L 138.843321 180.80032 
L 135.929096 181.129369 
L 132.54557 181.460315 
L 127.922913 181.953004 
L 122.787012 182.512581 
L 121.675583 182.638018 
L 113.443856 183.3984 
L 109.364578 183.768541 
L 107.39816 183.920827 
L 101.419722 184.456224 
L 100.4544 184.517188 
L 100.4544 192.2688 
L 100.4544 201.1392 
L 100.4544 210.0096 
L 100.4544 218.88 
L 100.4544 221.623539 
L 102.684905 221.849472 
L 103.224245 221.915266 
L 113.008819 222.863348 
L 114.888056 223.105374 
L 118.270456 223.447096 
L 121.159556 223.828437 
L 127.689262 224.516945 
L 131.829935 225.095995 
L 133.756365 225.308326 
L 139.444598 226.124851 
L 142.128855 226.434473 
L 148.91716 227.471136 
L 149.119051 227.495551 
L 150.741857 227.7504 
L 156.332594 228.610454 
L 158.238409 228.978786 
L 164.367475 229.985062 
L 166.196894 230.35557 
L 170.296894 231.04882 
L 177.766792 232.637685 
L 179.439484 232.941288 
L 183.726457 233.900942 
L 183.860664 233.926095 
L 184.269715 234.02272 
L 191.516787 235.703698 
L 195.057379 236.6208 
L 200.289463 237.960427 
L 201.773326 238.396676 
L 204.563734 239.21888 
L 209.980783 240.784605 
L 212.307443 241.594196 
L 214.947094 242.404855 
L 221.080353 244.620187 
L 222.304253 245.021033 
L 223.48929 245.4912 
L 229.146252 247.67026 
L 231.128079 248.555176 
L 234.158064 249.772125 
L 238.301178 251.76352 
L 240.997297 253.03045 
L 243.543 254.3616 
L 248.223595 256.883553 
L 248.372475 256.95968 
L 248.50348 257.030499 
L 248.712394 257.15928 
L 255.925789 261.400099 
L 258.548903 263.232 
L 261.576086 265.276259 
L 263.753153 266.947294 
L 265.749355 268.375985 
L 267.073942 269.50432 
L 269.930588 271.869577 
L 270.219579 272.1024 
L 270.301569 272.166832 
L 273.155619 274.70048 
L 274.841107 276.153813 
L 277.893746 279.267755 
L 278.837634 280.180737 
L 279.558409 280.9728 
L 283.156623 284.782258 
L 285.099303 287.24512 
L 287.064434 289.647352 
L 287.20028 289.8432 
L 287.4808 290.22804 
L 289.171757 292.44128 
L 290.653473 294.307819 
L 293.564152 298.7136 
L 294.315131 299.805022 
L 296.50153 303.406421 
L 297.328768 304.733661 
L 297.455974 304.98592 
L 297.569722 305.199779 
L 298.930873 307.584 
L 302.8224 307.584 
L 310.91712 307.584 
L 319.01184 307.584 
L 327.10656 307.584 
L 335.20128 307.584 
L 343.296 307.584 
L 343.296 298.7136 
L 343.296 289.8432 
L 343.296 280.9728 
L 343.296 272.1024 
L 343.296 263.232 
L 343.296 254.3616 
L 343.296 245.4912 
L 343.296 236.6208 
L 343.296 227.7504 
L 343.296 218.88 
L 343.296 210.0096 
L 343.296 201.1392 
L 343.296 192.2688 
L 343.296 183.3984 
L 343.296 174.528 
L 343.296 165.6576 
L 343.296 156.7872 
L 343.296 147.9168 
L 343.296 139.0464 
L 343.296 130.176 
L 343.296 121.3056 
L 343.296 112.4352 
L 343.296 103.5648 
L 343.296 94.6944 
L 343.296 85.824 
L 343.296 76.9536 
L 343.296 68.0832 
L 343.296 59.2128 
L 343.296 50.3424 
L 343.296 41.472 
L 335.20128 41.472 
L 327.10656 41.472 
L 319.01184 41.472 
L 310.91712 41.472 
" clip-path="url(#p94a8054b6a)" style="fill: #f8f500"/>
   </g>
   <g id="PathCollection_18">
    <path d="M 298.930873 307.584 
L 297.569722 305.199779 
L 297.455974 304.98592 
L 297.328768 304.733661 
L 296.50153 303.406421 
L 294.315131 299.805022 
L 293.564152 298.7136 
L 290.653473 294.307819 
L 289.171757 292.44128 
L 287.4808 290.22804 
L 287.20028 289.8432 
L 287.064434 289.647352 
L 285.099303 287.24512 
L 283.156623 284.782258 
L 279.558409 280.9728 
L 278.837634 280.180737 
L 277.893746 279.267755 
L 274.841107 276.153813 
L 273.155619 274.70048 
L 270.301569 272.166832 
L 270.219579 272.1024 
L 269.930588 271.869577 
L 267.073942 269.50432 
L 265.749355 268.375985 
L 263.753153 266.947294 
L 261.576086 265.276259 
L 258.548903 263.232 
L 255.925789 261.400099 
L 248.712394 257.15928 
L 248.50348 257.030499 
L 248.372475 256.95968 
L 248.223595 256.883553 
L 243.543 254.3616 
L 240.997297 253.03045 
L 238.301178 251.76352 
L 234.158064 249.772125 
L 231.128079 248.555176 
L 229.146252 247.67026 
L 223.48929 245.4912 
L 222.304253 245.021033 
L 221.080353 244.620187 
L 214.947094 242.404855 
L 212.307443 241.594196 
L 209.980783 240.784605 
L 204.563734 239.21888 
L 201.773326 238.396676 
L 200.289463 237.960427 
L 195.057379 236.6208 
L 191.516787 235.703698 
L 184.269715 234.02272 
L 183.860664 233.926095 
L 183.726457 233.900942 
L 179.439484 232.941288 
L 177.766792 232.637685 
L 170.296894 231.04882 
L 166.196894 230.35557 
L 164.367475 229.985062 
L 158.238409 228.978786 
L 156.332594 228.610454 
L 150.741857 227.7504 
L 149.119051 227.495551 
L 148.91716 227.471136 
L 142.128855 226.434473 
L 139.444598 226.124851 
L 133.756365 225.308326 
L 131.829935 225.095995 
L 127.689262 224.516945 
L 121.159556 223.828437 
L 118.270456 223.447096 
L 114.888056 223.105374 
L 113.008819 222.863348 
L 103.224245 221.915266 
L 102.684905 221.849472 
L 100.4544 221.623539 
L 100.4544 227.7504 
L 100.4544 236.6208 
L 100.4544 245.4912 
L 100.4544 254.3616 
L 100.4544 255.795136 
L 102.109343 256.175128 
L 103.753263 256.538467 
L 105.540347 256.95968 
L 112.732382 258.647875 
L 115.151484 259.283888 
L 117.885651 259.946719 
L 122.991993 261.318067 
L 125.834959 262.030538 
L 130.099049 263.232 
L 132.571965 263.923323 
L 133.163146 264.10468 
L 138.6904 265.684019 
L 144.998016 267.692028 
L 147.098411 268.322868 
L 150.67174 269.50432 
L 150.987909 269.605035 
L 153.559652 270.487499 
L 157.623554 271.872672 
L 158.253986 272.1024 
L 164.390796 274.315812 
L 165.376482 274.70048 
L 167.30968 275.423693 
L 168.794558 276.028083 
L 175.451124 278.623083 
L 180.88894 280.9728 
L 181.330471 281.160975 
L 181.502824 281.240594 
L 187.036206 283.668656 
L 194.40959 287.24512 
L 194.804362 287.433849 
L 199.488094 289.8432 
L 202.385955 291.341001 
L 204.35695 292.44128 
L 209.056774 295.019557 
L 213.372251 297.633606 
L 214.041827 298.022192 
L 215.139546 298.7136 
L 219.447236 301.374225 
L 224.733378 304.98592 
L 225.892779 305.760398 
L 228.426514 307.584 
L 229.96992 307.584 
L 238.06464 307.584 
L 246.15936 307.584 
L 254.25408 307.584 
L 262.3488 307.584 
L 270.44352 307.584 
L 278.53824 307.584 
L 286.63296 307.584 
L 294.72768 307.584 
" clip-path="url(#p94a8054b6a)" style="fill: #ff9400"/>
   </g>
   <g id="PathCollection_19">
    <path d="M 228.426514 307.584 
L 225.892779 305.760398 
L 224.733378 304.98592 
L 219.447236 301.374225 
L 215.139546 298.7136 
L 214.041827 298.022192 
L 213.372251 297.633606 
L 209.056774 295.019557 
L 204.35695 292.44128 
L 202.385955 291.341001 
L 199.488094 289.8432 
L 194.804362 287.433849 
L 194.40959 287.24512 
L 187.036206 283.668656 
L 181.502824 281.240594 
L 181.330471 281.160975 
L 180.88894 280.9728 
L 175.451124 278.623083 
L 168.794558 276.028083 
L 167.30968 275.423693 
L 165.376482 274.70048 
L 164.390796 274.315812 
L 158.253986 272.1024 
L 157.623554 271.872672 
L 153.559652 270.487499 
L 150.987909 269.605035 
L 150.67174 269.50432 
L 147.098411 268.322868 
L 144.998016 267.692028 
L 138.6904 265.684019 
L 133.163146 264.10468 
L 132.571965 263.923323 
L 130.099049 263.232 
L 125.834959 262.030538 
L 122.991993 261.318067 
L 117.885651 259.946719 
L 115.151484 259.283888 
L 112.732382 258.647875 
L 105.540347 256.95968 
L 103.753263 256.538467 
L 102.109343 256.175128 
L 100.4544 255.795136 
L 100.4544 263.232 
L 100.4544 272.1024 
L 100.4544 280.9728 
L 100.4544 289.277381 
L 100.855131 289.404069 
L 102.177501 289.8432 
L 105.853387 291.066809 
L 109.824045 292.44128 
L 113.201791 293.615085 
L 114.961383 294.262564 
L 117.925474 295.322965 
L 123.591599 297.456731 
L 125.308757 298.088764 
L 126.902344 298.7136 
L 132.063914 300.749002 
L 133.888074 301.504118 
L 137.17195 302.829575 
L 142.198601 304.98592 
L 144.490726 305.966858 
L 148.113588 307.584 
L 149.02272 307.584 
L 157.11744 307.584 
L 165.21216 307.584 
L 173.30688 307.584 
L 181.4016 307.584 
L 189.49632 307.584 
L 197.59104 307.584 
L 205.68576 307.584 
L 213.78048 307.584 
L 221.8752 307.584 
" clip-path="url(#p94a8054b6a)" style="fill: #ff3800"/>
   </g>
   <g id="PathCollection_20">
    <path d="M 148.113588 307.584 
L 144.490726 305.966858 
L 142.198601 304.98592 
L 137.17195 302.829575 
L 133.888074 301.504118 
L 132.063914 300.749002 
L 126.902344 298.7136 
L 125.308757 298.088764 
L 123.591599 297.456731 
L 117.925474 295.322965 
L 114.961383 294.262564 
L 113.201791 293.615085 
L 109.824045 292.44128 
L 105.853387 291.066809 
L 102.177501 289.8432 
L 100.855131 289.404069 
L 100.4544 289.277381 
L 100.4544 289.8432 
L 100.4544 298.7136 
L 100.4544 307.584 
L 108.54912 307.584 
L 116.64384 307.584 
L 124.73856 307.584 
L 132.83328 307.584 
L 140.928 307.584 
" clip-path="url(#p94a8054b6a)" style="fill: #b60000"/>
   </g>
   <g id="matplotlib.axis_1">
    <g id="xtick_1">
     <g id="line2d_1">
      <defs>
       <path id="mf12d37f692" d="M 0 0 
L 0 3.5 
" style="stroke: #000000; stroke-width: 0.8"/>
      </defs>
      <g>
       <use xlink:href="#mf12d37f692" x="57.6" y="307.584" style="stroke: #000000; stroke-width: 0.8"/>
      </g>
     </g>
     <g id="text_1">
      <!-- 0.0 -->
      <g transform="translate(51.26875 321.385562) scale(0.1 -0.1)">
       <defs>
        <path id="Calibri-30" d="M 3022 2031 
Q 3022 1566 2948 1181 
Q 2875 797 2704 520 
Q 2534 244 2259 92 
Q 1984 -59 1581 -59 
Q 1200 -59 939 77 
Q 678 213 518 477 
Q 359 741 292 1127 
Q 225 1513 225 2013 
Q 225 2475 300 2861 
Q 375 3247 544 3523 
Q 713 3800 988 3951 
Q 1263 4103 1663 4103 
Q 2047 4103 2308 3967 
Q 2569 3831 2728 3567 
Q 2888 3303 2955 2917 
Q 3022 2531 3022 2031 
z
M 2472 1994 
Q 2472 2297 2450 2537 
Q 2428 2778 2386 2962 
Q 2344 3147 2276 3280 
Q 2209 3413 2115 3498 
Q 2022 3584 1901 3623 
Q 1781 3663 1631 3663 
Q 1366 3663 1200 3538 
Q 1034 3413 939 3194 
Q 844 2975 809 2681 
Q 775 2388 775 2050 
Q 775 1597 822 1280 
Q 869 963 970 763 
Q 1072 563 1230 472 
Q 1388 381 1613 381 
Q 1788 381 1920 437 
Q 2053 494 2148 598 
Q 2244 703 2306 850 
Q 2369 997 2406 1175 
Q 2444 1353 2458 1561 
Q 2472 1769 2472 1994 
z
" transform="scale(0.015625)"/>
        <path id="Calibri-2e" d="M 1144 341 
Q 1144 119 1070 45 
Q 997 -28 803 -28 
Q 616 -28 544 44 
Q 472 116 472 331 
Q 472 553 545 626 
Q 619 700 813 700 
Q 1000 700 1072 628 
Q 1144 556 1144 341 
z
" transform="scale(0.015625)"/>
       </defs>
       <use xlink:href="#Calibri-30"/>
       <use xlink:href="#Calibri-2e" x="50.683594"/>
       <use xlink:href="#Calibri-30" x="75.927734"/>
      </g>
     </g>
    </g>
    <g id="xtick_2">
     <g id="line2d_2">
      <g>
       <use xlink:href="#mf12d37f692" x="86.1696" y="307.584" style="stroke: #000000; stroke-width: 0.8"/>
      </g>
     </g>
     <g id="text_2">
      <!-- 0.1 -->
      <g transform="translate(79.83835 321.385562) scale(0.1 -0.1)">
       <defs>
        <path id="Calibri-31" d="M 2897 213 
Q 2897 153 2887 112 
Q 2878 72 2862 47 
Q 2847 22 2826 11 
Q 2806 0 2784 0 
L 672 0 
Q 650 0 631 11 
Q 613 22 595 47 
Q 578 72 568 112 
Q 559 153 559 213 
Q 559 269 568 309 
Q 578 350 592 376 
Q 606 403 626 417 
Q 647 431 672 431 
L 1516 431 
L 1516 3506 
L 734 3041 
Q 675 3009 639 3003 
Q 603 2997 581 3017 
Q 559 3038 551 3084 
Q 544 3131 544 3203 
Q 544 3256 548 3293 
Q 553 3331 562 3356 
Q 572 3381 589 3400 
Q 606 3419 634 3438 
L 1566 4034 
Q 1578 4044 1597 4050 
Q 1616 4056 1644 4062 
Q 1672 4069 1709 4070 
Q 1747 4072 1803 4072 
Q 1878 4072 1928 4065 
Q 1978 4059 2006 4048 
Q 2034 4038 2043 4020 
Q 2053 4003 2053 3984 
L 2053 431 
L 2784 431 
Q 2809 431 2831 417 
Q 2853 403 2867 376 
Q 2881 350 2889 309 
Q 2897 269 2897 213 
z
" transform="scale(0.015625)"/>
       </defs>
       <use xlink:href="#Calibri-30"/>
       <use xlink:href="#Calibri-2e" x="50.683594"/>
       <use xlink:href="#Calibri-31" x="75.927734"/>
      </g>
     </g>
    </g>
    <g id="xtick_3">
     <g id="line2d_3">
      <g>
       <use xlink:href="#mf12d37f692" x="114.7392" y="307.584" style="stroke: #000000; stroke-width: 0.8"/>
      </g>
     </g>
     <g id="text_3">
      <!-- 0.2 -->
      <g transform="translate(108.40795 321.385562) scale(0.1 -0.1)">
       <defs>
        <path id="Calibri-32" d="M 2888 231 
Q 2888 175 2880 131 
Q 2872 88 2858 58 
Q 2844 28 2820 14 
Q 2797 0 2769 0 
L 534 0 
Q 491 0 458 11 
Q 425 22 401 47 
Q 378 72 367 119 
Q 356 166 356 234 
Q 356 297 361 344 
Q 366 391 381 427 
Q 397 463 420 498 
Q 444 534 481 575 
L 1266 1406 
Q 1538 1694 1702 1922 
Q 1866 2150 1955 2337 
Q 2044 2525 2072 2678 
Q 2100 2831 2100 2966 
Q 2100 3100 2056 3220 
Q 2013 3341 1930 3431 
Q 1847 3522 1722 3575 
Q 1597 3628 1434 3628 
Q 1244 3628 1092 3575 
Q 941 3522 827 3459 
Q 713 3397 636 3344 
Q 559 3291 522 3291 
Q 500 3291 483 3303 
Q 466 3316 455 3344 
Q 444 3372 437 3419 
Q 431 3466 431 3531 
Q 431 3578 434 3612 
Q 438 3647 445 3672 
Q 453 3697 465 3719 
Q 478 3741 515 3773 
Q 553 3806 645 3862 
Q 738 3919 877 3973 
Q 1016 4028 1183 4065 
Q 1350 4103 1534 4103 
Q 1828 4103 2048 4020 
Q 2269 3938 2414 3794 
Q 2559 3650 2631 3459 
Q 2703 3269 2703 3053 
Q 2703 2859 2668 2667 
Q 2634 2475 2523 2251 
Q 2413 2028 2203 1754 
Q 1994 1481 1647 1125 
L 1006 456 
L 2766 456 
Q 2791 456 2814 442 
Q 2838 428 2855 400 
Q 2872 372 2880 330 
Q 2888 288 2888 231 
z
" transform="scale(0.015625)"/>
       </defs>
       <use xlink:href="#Calibri-30"/>
       <use xlink:href="#Calibri-2e" x="50.683594"/>
       <use xlink:href="#Calibri-32" x="75.927734"/>
      </g>
     </g>
    </g>
    <g id="xtick_4">
     <g id="line2d_4">
      <g>
       <use xlink:href="#mf12d37f692" x="143.3088" y="307.584" style="stroke: #000000; stroke-width: 0.8"/>
      </g>
     </g>
     <g id="text_4">
      <!-- 0.3 -->
      <g transform="translate(136.97755 321.385562) scale(0.1 -0.1)">
       <defs>
        <path id="Calibri-33" d="M 2856 1156 
Q 2856 878 2759 654 
Q 2663 431 2481 272 
Q 2300 113 2034 27 
Q 1769 -59 1434 -59 
Q 1231 -59 1054 -26 
Q 878 6 740 51 
Q 603 97 512 145 
Q 422 194 398 216 
Q 375 238 362 259 
Q 350 281 340 312 
Q 331 344 326 389 
Q 322 434 322 500 
Q 322 613 344 656 
Q 366 700 406 700 
Q 434 700 517 650 
Q 600 600 729 542 
Q 859 484 1032 434 
Q 1206 384 1419 384 
Q 1625 384 1781 437 
Q 1938 491 2044 587 
Q 2150 684 2203 817 
Q 2256 950 2256 1106 
Q 2256 1278 2189 1415 
Q 2122 1553 1992 1653 
Q 1863 1753 1673 1806 
Q 1484 1859 1244 1859 
L 859 1859 
Q 834 1859 811 1870 
Q 788 1881 770 1906 
Q 753 1931 742 1972 
Q 731 2013 731 2078 
Q 731 2138 740 2177 
Q 750 2216 767 2239 
Q 784 2263 806 2273 
Q 828 2284 856 2284 
L 1209 2284 
Q 1416 2284 1580 2337 
Q 1744 2391 1858 2491 
Q 1972 2591 2033 2730 
Q 2094 2869 2094 3041 
Q 2094 3166 2053 3280 
Q 2013 3394 1931 3478 
Q 1850 3563 1723 3611 
Q 1597 3659 1431 3659 
Q 1250 3659 1098 3604 
Q 947 3550 828 3487 
Q 709 3425 631 3370 
Q 553 3316 522 3316 
Q 500 3316 483 3323 
Q 466 3331 455 3354 
Q 444 3378 439 3420 
Q 434 3463 434 3531 
Q 434 3578 437 3614 
Q 441 3650 450 3676 
Q 459 3703 471 3725 
Q 484 3747 514 3776 
Q 544 3806 634 3862 
Q 725 3919 858 3973 
Q 991 4028 1164 4065 
Q 1338 4103 1538 4103 
Q 1819 4103 2031 4031 
Q 2244 3959 2386 3828 
Q 2528 3697 2598 3514 
Q 2669 3331 2669 3109 
Q 2669 2919 2619 2755 
Q 2569 2591 2472 2464 
Q 2375 2338 2234 2248 
Q 2094 2159 1909 2125 
L 1909 2119 
Q 2119 2097 2292 2014 
Q 2466 1931 2591 1806 
Q 2716 1681 2786 1514 
Q 2856 1347 2856 1156 
z
" transform="scale(0.015625)"/>
       </defs>
       <use xlink:href="#Calibri-30"/>
       <use xlink:href="#Calibri-2e" x="50.683594"/>
       <use xlink:href="#Calibri-33" x="75.927734"/>
      </g>
     </g>
    </g>
    <g id="xtick_5">
     <g id="line2d_5">
      <g>
       <use xlink:href="#mf12d37f692" x="171.8784" y="307.584" style="stroke: #000000; stroke-width: 0.8"/>
      </g>
     </g>
     <g id="text_5">
      <!-- 0.4 -->
      <g transform="translate(165.54715 321.385562) scale(0.1 -0.1)">
       <defs>
        <path id="Calibri-34" d="M 3059 1150 
Q 3059 1047 3028 987 
Q 2997 928 2941 928 
L 2484 928 
L 2484 78 
Q 2484 53 2471 36 
Q 2459 19 2428 6 
Q 2397 -6 2347 -12 
Q 2297 -19 2219 -19 
Q 2144 -19 2094 -12 
Q 2044 -6 2014 6 
Q 1984 19 1973 36 
Q 1963 53 1963 78 
L 1963 928 
L 294 928 
Q 256 928 231 937 
Q 206 947 186 972 
Q 166 997 158 1044 
Q 150 1091 150 1166 
Q 150 1225 153 1272 
Q 156 1319 165 1358 
Q 175 1397 190 1433 
Q 206 1469 228 1509 
L 1684 3966 
Q 1700 3991 1729 4009 
Q 1759 4028 1806 4040 
Q 1853 4053 1922 4058 
Q 1991 4063 2084 4063 
Q 2188 4063 2264 4055 
Q 2341 4047 2387 4034 
Q 2434 4022 2459 4001 
Q 2484 3981 2484 3953 
L 2484 1372 
L 2941 1372 
Q 2994 1372 3026 1317 
Q 3059 1263 3059 1150 
z
M 1963 3591 
L 1956 3591 
L 641 1372 
L 1963 1372 
L 1963 3591 
z
" transform="scale(0.015625)"/>
       </defs>
       <use xlink:href="#Calibri-30"/>
       <use xlink:href="#Calibri-2e" x="50.683594"/>
       <use xlink:href="#Calibri-34" x="75.927734"/>
      </g>
     </g>
    </g>
    <g id="xtick_6">
     <g id="line2d_6">
      <g>
       <use xlink:href="#mf12d37f692" x="200.448" y="307.584" style="stroke: #000000; stroke-width: 0.8"/>
      </g>
     </g>
     <g id="text_6">
      <!-- 0.5 -->
      <g transform="translate(194.11675 321.385562) scale(0.1 -0.1)">
       <defs>
        <path id="Calibri-35" d="M 2869 1300 
Q 2869 975 2759 722 
Q 2650 469 2450 295 
Q 2250 122 1973 31 
Q 1697 -59 1359 -59 
Q 1172 -59 1003 -32 
Q 834 -6 703 33 
Q 572 72 487 109 
Q 403 147 379 169 
Q 356 191 347 209 
Q 338 228 330 254 
Q 322 281 319 322 
Q 316 363 316 419 
Q 316 472 320 514 
Q 325 556 337 582 
Q 350 609 367 621 
Q 384 634 406 634 
Q 438 634 503 595 
Q 569 556 680 511 
Q 791 466 955 425 
Q 1119 384 1344 384 
Q 1553 384 1728 434 
Q 1903 484 2029 590 
Q 2156 697 2228 858 
Q 2300 1019 2300 1250 
Q 2300 1444 2239 1592 
Q 2178 1741 2051 1839 
Q 1925 1938 1731 1986 
Q 1538 2034 1269 2034 
Q 1078 2034 940 2015 
Q 803 1997 684 1997 
Q 597 1997 559 2037 
Q 522 2078 522 2194 
L 522 3841 
Q 522 3944 570 3994 
Q 619 4044 709 4044 
L 2500 4044 
Q 2525 4044 2548 4030 
Q 2572 4016 2587 3987 
Q 2603 3959 2611 3915 
Q 2619 3872 2619 3813 
Q 2619 3700 2587 3637 
Q 2556 3575 2500 3575 
L 991 3575 
L 991 2441 
Q 1100 2456 1214 2459 
Q 1328 2463 1478 2463 
Q 1825 2463 2084 2380 
Q 2344 2297 2517 2145 
Q 2691 1994 2780 1778 
Q 2869 1563 2869 1300 
z
" transform="scale(0.015625)"/>
       </defs>
       <use xlink:href="#Calibri-30"/>
       <use xlink:href="#Calibri-2e" x="50.683594"/>
       <use xlink:href="#Calibri-35" x="75.927734"/>
      </g>
     </g>
    </g>
    <g id="xtick_7">
     <g id="line2d_7">
      <g>
       <use xlink:href="#mf12d37f692" x="229.0176" y="307.584" style="stroke: #000000; stroke-width: 0.8"/>
      </g>
     </g>
     <g id="text_7">
      <!-- 0.6 -->
      <g transform="translate(222.68635 321.385562) scale(0.1 -0.1)">
       <defs>
        <path id="Calibri-36" d="M 2991 1309 
Q 2991 1044 2909 795 
Q 2828 547 2659 358 
Q 2491 169 2231 55 
Q 1972 -59 1619 -59 
Q 1366 -59 1172 3 
Q 978 66 834 181 
Q 691 297 595 465 
Q 500 634 442 850 
Q 384 1066 359 1322 
Q 334 1578 334 1872 
Q 334 2131 362 2397 
Q 391 2663 462 2909 
Q 534 3156 657 3373 
Q 781 3591 967 3752 
Q 1153 3913 1412 4006 
Q 1672 4100 2016 4100 
Q 2131 4100 2250 4086 
Q 2369 4072 2469 4048 
Q 2569 4025 2637 3997 
Q 2706 3969 2728 3951 
Q 2750 3934 2761 3914 
Q 2772 3894 2778 3870 
Q 2784 3847 2787 3817 
Q 2791 3788 2791 3744 
Q 2791 3688 2789 3647 
Q 2788 3606 2777 3581 
Q 2766 3556 2748 3543 
Q 2731 3531 2703 3531 
Q 2669 3531 2609 3553 
Q 2550 3575 2465 3601 
Q 2381 3628 2261 3650 
Q 2141 3672 1981 3672 
Q 1691 3672 1481 3553 
Q 1272 3434 1139 3234 
Q 1006 3034 942 2770 
Q 878 2506 869 2219 
Q 950 2266 1051 2312 
Q 1153 2359 1273 2396 
Q 1394 2434 1528 2457 
Q 1663 2481 1816 2481 
Q 2144 2481 2369 2392 
Q 2594 2303 2733 2145 
Q 2872 1988 2931 1773 
Q 2991 1559 2991 1309 
z
M 2447 1259 
Q 2447 1441 2411 1589 
Q 2375 1738 2290 1841 
Q 2206 1944 2065 2000 
Q 1925 2056 1719 2056 
Q 1603 2056 1487 2036 
Q 1372 2016 1264 1980 
Q 1156 1944 1057 1895 
Q 959 1847 878 1791 
Q 878 1388 929 1116 
Q 981 844 1079 680 
Q 1178 516 1325 445 
Q 1472 375 1669 375 
Q 1869 375 2016 450 
Q 2163 525 2259 651 
Q 2356 778 2401 936 
Q 2447 1094 2447 1259 
z
" transform="scale(0.015625)"/>
       </defs>
       <use xlink:href="#Calibri-30"/>
       <use xlink:href="#Calibri-2e" x="50.683594"/>
       <use xlink:href="#Calibri-36" x="75.927734"/>
      </g>
     </g>
    </g>
    <g id="xtick_8">
     <g id="line2d_8">
      <g>
       <use xlink:href="#mf12d37f692" x="257.5872" y="307.584" style="stroke: #000000; stroke-width: 0.8"/>
      </g>
     </g>
     <g id="text_8">
      <!-- 0.7 -->
      <g transform="translate(251.25595 321.385562) scale(0.1 -0.1)">
       <defs>
        <path id="Calibri-37" d="M 2947 3813 
Q 2947 3756 2942 3711 
Q 2938 3666 2930 3623 
Q 2922 3581 2908 3542 
Q 2894 3503 2875 3459 
L 1419 103 
Q 1403 66 1379 42 
Q 1356 19 1320 5 
Q 1284 -9 1228 -14 
Q 1172 -19 1091 -19 
Q 984 -19 925 -9 
Q 866 0 839 20 
Q 813 41 816 70 
Q 819 100 838 141 
L 2369 3572 
L 428 3572 
Q 369 3572 339 3634 
Q 309 3697 309 3809 
Q 309 3869 317 3912 
Q 325 3956 340 3986 
Q 356 4016 378 4030 
Q 400 4044 428 4044 
L 2784 4044 
Q 2828 4044 2861 4034 
Q 2894 4025 2911 3997 
Q 2928 3969 2937 3925 
Q 2947 3881 2947 3813 
z
" transform="scale(0.015625)"/>
       </defs>
       <use xlink:href="#Calibri-30"/>
       <use xlink:href="#Calibri-2e" x="50.683594"/>
       <use xlink:href="#Calibri-37" x="75.927734"/>
      </g>
     </g>
    </g>
    <g id="xtick_9">
     <g id="line2d_9">
      <g>
       <use xlink:href="#mf12d37f692" x="286.1568" y="307.584" style="stroke: #000000; stroke-width: 0.8"/>
      </g>
     </g>
     <g id="text_9">
      <!-- 0.8 -->
      <g transform="translate(279.82555 321.385562) scale(0.1 -0.1)">
       <defs>
        <path id="Calibri-38" d="M 2981 1038 
Q 2981 775 2887 570 
Q 2794 366 2617 225 
Q 2441 84 2181 12 
Q 1922 -59 1588 -59 
Q 1275 -59 1028 6 
Q 781 72 609 200 
Q 438 328 347 515 
Q 256 703 256 944 
Q 256 1134 318 1293 
Q 381 1453 498 1587 
Q 616 1722 787 1839 
Q 959 1956 1175 2063 
Q 988 2159 844 2267 
Q 700 2375 600 2501 
Q 500 2628 448 2772 
Q 397 2916 397 3084 
Q 397 3297 473 3483 
Q 550 3669 704 3806 
Q 859 3944 1098 4023 
Q 1338 4103 1656 4103 
Q 1963 4103 2186 4029 
Q 2409 3956 2554 3829 
Q 2700 3703 2769 3531 
Q 2838 3359 2838 3163 
Q 2838 3003 2786 2856 
Q 2734 2709 2634 2578 
Q 2534 2447 2389 2333 
Q 2244 2219 2056 2119 
Q 2278 2009 2451 1893 
Q 2625 1778 2742 1645 
Q 2859 1513 2920 1364 
Q 2981 1216 2981 1038 
z
M 2306 3113 
Q 2306 3244 2261 3350 
Q 2216 3456 2128 3531 
Q 2041 3606 1911 3645 
Q 1781 3684 1616 3684 
Q 1278 3684 1104 3531 
Q 931 3378 931 3113 
Q 931 2991 973 2886 
Q 1016 2781 1105 2687 
Q 1194 2594 1330 2505 
Q 1466 2416 1653 2319 
Q 1969 2481 2137 2678 
Q 2306 2875 2306 3113 
z
M 2438 981 
Q 2438 1125 2384 1242 
Q 2331 1359 2223 1461 
Q 2116 1563 1955 1658 
Q 1794 1753 1581 1856 
Q 1384 1759 1236 1662 
Q 1088 1566 992 1462 
Q 897 1359 848 1245 
Q 800 1131 800 994 
Q 800 691 1008 525 
Q 1216 359 1628 359 
Q 2028 359 2233 526 
Q 2438 694 2438 981 
z
" transform="scale(0.015625)"/>
       </defs>
       <use xlink:href="#Calibri-30"/>
       <use xlink:href="#Calibri-2e" x="50.683594"/>
       <use xlink:href="#Calibri-38" x="75.927734"/>
      </g>
     </g>
    </g>
    <g id="xtick_10">
     <g id="line2d_10">
      <g>
       <use xlink:href="#mf12d37f692" x="314.7264" y="307.584" style="stroke: #000000; stroke-width: 0.8"/>
      </g>
     </g>
     <g id="text_10">
      <!-- 0.9 -->
      <g transform="translate(308.39515 321.385562) scale(0.1 -0.1)">
       <defs>
        <path id="Calibri-39" d="M 2919 2181 
Q 2919 1919 2887 1650 
Q 2856 1381 2781 1132 
Q 2706 884 2579 667 
Q 2453 450 2261 287 
Q 2069 125 1805 33 
Q 1541 -59 1191 -59 
Q 1056 -59 929 -42 
Q 803 -25 701 0 
Q 600 25 531 53 
Q 463 81 431 109 
Q 400 138 386 186 
Q 372 234 372 316 
Q 372 384 376 425 
Q 381 466 390 487 
Q 400 509 417 517 
Q 434 525 459 525 
Q 494 525 556 501 
Q 619 478 714 450 
Q 809 422 937 398 
Q 1066 375 1225 375 
Q 1528 375 1745 492 
Q 1963 609 2100 806 
Q 2238 1003 2306 1262 
Q 2375 1522 2381 1809 
Q 2216 1713 1984 1638 
Q 1753 1563 1453 1563 
Q 1116 1563 886 1655 
Q 656 1747 517 1906 
Q 378 2066 317 2284 
Q 256 2503 256 2763 
Q 256 3031 334 3273 
Q 413 3516 578 3700 
Q 744 3884 1000 3993 
Q 1256 4103 1613 4103 
Q 1866 4103 2061 4039 
Q 2256 3975 2400 3854 
Q 2544 3734 2644 3564 
Q 2744 3394 2805 3178 
Q 2866 2963 2892 2711 
Q 2919 2459 2919 2181 
z
M 2372 2241 
Q 2372 2641 2319 2914 
Q 2266 3188 2162 3356 
Q 2059 3525 1909 3600 
Q 1759 3675 1563 3675 
Q 1359 3675 1215 3601 
Q 1072 3528 980 3404 
Q 888 3281 844 3125 
Q 800 2969 800 2803 
Q 800 2619 839 2466 
Q 878 2313 965 2206 
Q 1053 2100 1193 2042 
Q 1334 1984 1541 1984 
Q 1775 1984 1994 2054 
Q 2213 2125 2372 2241 
z
" transform="scale(0.015625)"/>
       </defs>
       <use xlink:href="#Calibri-30"/>
       <use xlink:href="#Calibri-2e" x="50.683594"/>
       <use xlink:href="#Calibri-39" x="75.927734"/>
      </g>
     </g>
    </g>
    <g id="xtick_11">
     <g id="line2d_11">
      <g>
       <use xlink:href="#mf12d37f692" x="343.296" y="307.584" style="stroke: #000000; stroke-width: 0.8"/>
      </g>
     </g>
     <g id="text_11">
      <!-- 1.0 -->
      <g transform="translate(336.96475 321.385562) scale(0.1 -0.1)">
       <use xlink:href="#Calibri-31"/>
       <use xlink:href="#Calibri-2e" x="50.683594"/>
       <use xlink:href="#Calibri-30" x="75.927734"/>
      </g>
     </g>
    </g>
    <g id="text_12">
     <!-- $\mathit{p}$ (cm$^2$/cm$^2$) -->
     <g transform="translate(174.148 336.263687) scale(0.1 -0.1)">
      <defs>
       <path id="DejaVuSans-Oblique-70" d="M 3175 2156 
Q 3175 2616 2975 2859 
Q 2775 3103 2400 3103 
Q 2144 3103 1911 2972 
Q 1678 2841 1497 2591 
Q 1319 2344 1212 1994 
Q 1106 1644 1106 1300 
Q 1106 863 1306 627 
Q 1506 391 1875 391 
Q 2147 391 2380 519 
Q 2613 647 2778 891 
Q 2956 1147 3065 1494 
Q 3175 1841 3175 2156 
z
M 1394 2969 
Q 1625 3272 1939 3428 
Q 2253 3584 2638 3584 
Q 3175 3584 3472 3232 
Q 3769 2881 3769 2247 
Q 3769 1728 3584 1258 
Q 3400 788 3053 416 
Q 2822 169 2531 39 
Q 2241 -91 1919 -91 
Q 1547 -91 1294 64 
Q 1041 219 916 525 
L 556 -1331 
L -19 -1331 
L 922 3500 
L 1497 3500 
L 1394 2969 
z
" transform="scale(0.015625)"/>
       <path id="Calibri-20" transform="scale(0.015625)"/>
       <path id="Calibri-28" d="M 1547 4306 
Q 1250 3678 1104 3017 
Q 959 2356 959 1688 
Q 959 1016 1107 356 
Q 1256 -303 1541 -938 
Q 1556 -975 1557 -1001 
Q 1559 -1028 1537 -1045 
Q 1516 -1063 1470 -1070 
Q 1425 -1078 1347 -1078 
Q 1291 -1078 1250 -1075 
Q 1209 -1072 1179 -1062 
Q 1150 -1053 1131 -1040 
Q 1113 -1028 1103 -1013 
Q 934 -694 806 -367 
Q 678 -41 590 296 
Q 503 634 459 979 
Q 416 1325 416 1678 
Q 416 2031 464 2375 
Q 513 2719 602 3058 
Q 691 3397 819 3725 
Q 947 4053 1106 4375 
Q 1109 4388 1123 4397 
Q 1138 4406 1163 4415 
Q 1188 4425 1231 4429 
Q 1275 4434 1344 4434 
Q 1416 4434 1459 4425 
Q 1503 4416 1528 4400 
Q 1553 4384 1556 4359 
Q 1559 4334 1547 4306 
z
" transform="scale(0.015625)"/>
       <path id="Calibri-63" d="M 2500 506 
Q 2500 453 2497 414 
Q 2494 375 2486 348 
Q 2478 322 2467 301 
Q 2456 281 2417 242 
Q 2378 203 2284 145 
Q 2191 88 2073 42 
Q 1956 -3 1818 -31 
Q 1681 -59 1534 -59 
Q 1231 -59 997 41 
Q 763 141 605 333 
Q 447 525 364 804 
Q 281 1084 281 1450 
Q 281 1866 382 2164 
Q 484 2463 661 2653 
Q 838 2844 1077 2936 
Q 1316 3028 1594 3028 
Q 1728 3028 1854 3003 
Q 1981 2978 2087 2937 
Q 2194 2897 2276 2844 
Q 2359 2791 2396 2753 
Q 2434 2716 2448 2694 
Q 2463 2672 2472 2642 
Q 2481 2613 2484 2575 
Q 2488 2538 2488 2481 
Q 2488 2359 2459 2311 
Q 2431 2263 2391 2263 
Q 2344 2263 2283 2314 
Q 2222 2366 2128 2428 
Q 2034 2491 1901 2542 
Q 1769 2594 1588 2594 
Q 1216 2594 1017 2308 
Q 819 2022 819 1478 
Q 819 1206 870 1001 
Q 922 797 1022 659 
Q 1122 522 1267 455 
Q 1413 388 1600 388 
Q 1778 388 1912 444 
Q 2047 500 2145 567 
Q 2244 634 2311 689 
Q 2378 744 2416 744 
Q 2438 744 2453 731 
Q 2469 719 2480 689 
Q 2491 659 2495 614 
Q 2500 569 2500 506 
z
" transform="scale(0.015625)"/>
       <path id="Calibri-6d" d="M 4650 78 
Q 4650 53 4637 36 
Q 4625 19 4597 6 
Q 4569 -6 4519 -12 
Q 4469 -19 4394 -19 
Q 4316 -19 4266 -12 
Q 4216 -6 4186 6 
Q 4156 19 4143 36 
Q 4131 53 4131 78 
L 4131 1788 
Q 4131 1966 4100 2112 
Q 4069 2259 4000 2365 
Q 3931 2472 3825 2528 
Q 3719 2584 3575 2584 
Q 3397 2584 3217 2446 
Q 3038 2309 2822 2044 
L 2822 78 
Q 2822 53 2809 36 
Q 2797 19 2767 6 
Q 2738 -6 2688 -12 
Q 2638 -19 2563 -19 
Q 2491 -19 2439 -12 
Q 2388 -6 2358 6 
Q 2328 19 2317 36 
Q 2306 53 2306 78 
L 2306 1788 
Q 2306 1966 2272 2112 
Q 2238 2259 2169 2365 
Q 2100 2472 1995 2528 
Q 1891 2584 1747 2584 
Q 1569 2584 1387 2446 
Q 1206 2309 994 2044 
L 994 78 
Q 994 53 981 36 
Q 969 19 941 6 
Q 913 -6 863 -12 
Q 813 -19 734 -19 
Q 659 -19 609 -12 
Q 559 -6 529 6 
Q 500 19 489 36 
Q 478 53 478 78 
L 478 2891 
Q 478 2916 487 2933 
Q 497 2950 525 2964 
Q 553 2978 597 2983 
Q 641 2988 713 2988 
Q 781 2988 826 2983 
Q 872 2978 897 2964 
Q 922 2950 933 2933 
Q 944 2916 944 2891 
L 944 2519 
Q 1181 2784 1404 2907 
Q 1628 3031 1856 3031 
Q 2031 3031 2170 2990 
Q 2309 2950 2415 2876 
Q 2522 2803 2597 2701 
Q 2672 2600 2722 2475 
Q 2863 2628 2989 2734 
Q 3116 2841 3233 2906 
Q 3350 2972 3461 3001 
Q 3572 3031 3684 3031 
Q 3956 3031 4140 2936 
Q 4325 2841 4439 2681 
Q 4553 2522 4601 2308 
Q 4650 2094 4650 1856 
L 4650 78 
z
" transform="scale(0.015625)"/>
       <path id="DejaVuSans-32" d="M 1228 531 
L 3431 531 
L 3431 0 
L 469 0 
L 469 531 
Q 828 903 1448 1529 
Q 2069 2156 2228 2338 
Q 2531 2678 2651 2914 
Q 2772 3150 2772 3378 
Q 2772 3750 2511 3984 
Q 2250 4219 1831 4219 
Q 1534 4219 1204 4116 
Q 875 4013 500 3803 
L 500 4441 
Q 881 4594 1212 4672 
Q 1544 4750 1819 4750 
Q 2544 4750 2975 4387 
Q 3406 4025 3406 3419 
Q 3406 3131 3298 2873 
Q 3191 2616 2906 2266 
Q 2828 2175 2409 1742 
Q 1991 1309 1228 531 
z
" transform="scale(0.015625)"/>
       <path id="Calibri-2f" d="M 525 -753 
Q 513 -794 492 -817 
Q 472 -841 440 -853 
Q 409 -866 364 -872 
Q 319 -878 253 -878 
Q 175 -878 123 -867 
Q 72 -856 44 -836 
Q 16 -816 9 -786 
Q 3 -756 22 -716 
L 1913 4469 
Q 1925 4509 1945 4532 
Q 1966 4556 1995 4570 
Q 2025 4584 2072 4589 
Q 2119 4594 2184 4594 
Q 2263 4594 2313 4583 
Q 2363 4572 2391 4553 
Q 2419 4534 2425 4503 
Q 2431 4472 2416 4431 
L 525 -753 
z
" transform="scale(0.015625)"/>
       <path id="Calibri-29" d="M 1522 1678 
Q 1522 1325 1478 979 
Q 1434 634 1346 296 
Q 1259 -41 1132 -367 
Q 1006 -694 838 -1013 
Q 828 -1028 809 -1040 
Q 791 -1053 761 -1062 
Q 731 -1072 690 -1075 
Q 650 -1078 594 -1078 
Q 513 -1078 467 -1070 
Q 422 -1063 401 -1045 
Q 381 -1028 382 -1001 
Q 384 -975 400 -938 
Q 688 -306 834 355 
Q 981 1016 981 1688 
Q 981 2356 834 3017 
Q 688 3678 394 4306 
Q 381 4334 384 4359 
Q 388 4384 413 4400 
Q 438 4416 481 4425 
Q 525 4434 597 4434 
Q 663 4434 706 4429 
Q 750 4425 776 4415 
Q 803 4406 815 4397 
Q 828 4388 834 4375 
Q 1156 3734 1339 3057 
Q 1522 2381 1522 1678 
z
" transform="scale(0.015625)"/>
      </defs>
      <use xlink:href="#DejaVuSans-Oblique-70" transform="translate(0 0.765625)"/>
      <use xlink:href="#Calibri-20" transform="translate(63.476562 0.765625)"/>
      <use xlink:href="#Calibri-28" transform="translate(84.958984 0.765625)"/>
      <use xlink:href="#Calibri-63" transform="translate(115.28125 0.765625)"/>
      <use xlink:href="#Calibri-6d" transform="translate(157.566406 0.765625)"/>
      <use xlink:href="#DejaVuSans-32" transform="translate(238.40625 39.046875) scale(0.7)"/>
      <use xlink:href="#Calibri-2f" transform="translate(285.676758 0.765625)"/>
      <use xlink:href="#Calibri-63" transform="translate(324.299805 0.765625)"/>
      <use xlink:href="#Calibri-6d" transform="translate(366.584961 0.765625)"/>
      <use xlink:href="#DejaVuSans-32" transform="translate(447.424805 39.046875) scale(0.7)"/>
      <use xlink:href="#Calibri-29" transform="translate(494.695312 0.765625)"/>
     </g>
    </g>
   </g>
   <g id="matplotlib.axis_2">
    <g id="ytick_1">
     <g id="line2d_12">
      <defs>
       <path id="m0db0543591" d="M 0 0 
L -3.5 0 
" style="stroke: #000000; stroke-width: 0.8"/>
      </defs>
      <g>
       <use xlink:href="#m0db0543591" x="57.6" y="275.65056" style="stroke: #000000; stroke-width: 0.8"/>
      </g>
     </g>
     <g id="text_13">
      <!-- 25 -->
      <g transform="translate(40.4625 279.051341) scale(0.1 -0.1)">
       <use xlink:href="#Calibri-32"/>
       <use xlink:href="#Calibri-35" x="50.683594"/>
      </g>
     </g>
    </g>
    <g id="ytick_2">
     <g id="line2d_13">
      <g>
       <use xlink:href="#m0db0543591" x="57.6" y="242.38656" style="stroke: #000000; stroke-width: 0.8"/>
      </g>
     </g>
     <g id="text_14">
      <!-- 50 -->
      <g transform="translate(40.4625 245.787341) scale(0.1 -0.1)">
       <use xlink:href="#Calibri-35"/>
       <use xlink:href="#Calibri-30" x="50.683594"/>
      </g>
     </g>
    </g>
    <g id="ytick_3">
     <g id="line2d_14">
      <g>
       <use xlink:href="#m0db0543591" x="57.6" y="209.12256" style="stroke: #000000; stroke-width: 0.8"/>
      </g>
     </g>
     <g id="text_15">
      <!-- 75 -->
      <g transform="translate(40.4625 212.523341) scale(0.1 -0.1)">
       <use xlink:href="#Calibri-37"/>
       <use xlink:href="#Calibri-35" x="50.683594"/>
      </g>
     </g>
    </g>
    <g id="ytick_4">
     <g id="line2d_15">
      <g>
       <use xlink:href="#m0db0543591" x="57.6" y="175.85856" style="stroke: #000000; stroke-width: 0.8"/>
      </g>
     </g>
     <g id="text_16">
      <!-- 100 -->
      <g transform="translate(35.39375 179.259341) scale(0.1 -0.1)">
       <use xlink:href="#Calibri-31"/>
       <use xlink:href="#Calibri-30" x="50.683594"/>
       <use xlink:href="#Calibri-30" x="101.367188"/>
      </g>
     </g>
    </g>
    <g id="ytick_5">
     <g id="line2d_16">
      <g>
       <use xlink:href="#m0db0543591" x="57.6" y="142.59456" style="stroke: #000000; stroke-width: 0.8"/>
      </g>
     </g>
     <g id="text_17">
      <!-- 125 -->
      <g transform="translate(35.39375 145.995341) scale(0.1 -0.1)">
       <use xlink:href="#Calibri-31"/>
       <use xlink:href="#Calibri-32" x="50.683594"/>
       <use xlink:href="#Calibri-35" x="101.367188"/>
      </g>
     </g>
    </g>
    <g id="ytick_6">
     <g id="line2d_17">
      <g>
       <use xlink:href="#m0db0543591" x="57.6" y="109.33056" style="stroke: #000000; stroke-width: 0.8"/>
      </g>
     </g>
     <g id="text_18">
      <!-- 150 -->
      <g transform="translate(35.39375 112.731341) scale(0.1 -0.1)">
       <use xlink:href="#Calibri-31"/>
       <use xlink:href="#Calibri-35" x="50.683594"/>
       <use xlink:href="#Calibri-30" x="101.367188"/>
      </g>
     </g>
    </g>
    <g id="ytick_7">
     <g id="line2d_18">
      <g>
       <use xlink:href="#m0db0543591" x="57.6" y="76.06656" style="stroke: #000000; stroke-width: 0.8"/>
      </g>
     </g>
     <g id="text_19">
      <!-- 175 -->
      <g transform="translate(35.39375 79.467341) scale(0.1 -0.1)">
       <use xlink:href="#Calibri-31"/>
       <use xlink:href="#Calibri-37" x="50.683594"/>
       <use xlink:href="#Calibri-35" x="101.367188"/>
      </g>
     </g>
    </g>
    <g id="ytick_8">
     <g id="line2d_19">
      <g>
       <use xlink:href="#m0db0543591" x="57.6" y="42.80256" style="stroke: #000000; stroke-width: 0.8"/>
      </g>
     </g>
     <g id="text_20">
      <!-- 200 -->
      <g transform="translate(35.39375 46.203341) scale(0.1 -0.1)">
       <use xlink:href="#Calibri-32"/>
       <use xlink:href="#Calibri-30" x="50.683594"/>
       <use xlink:href="#Calibri-30" x="101.367188"/>
      </g>
     </g>
    </g>
    <g id="text_21">
     <!-- $\mathit{Z}$$_{a}$ (nm) -->
     <g transform="translate(29.59375 191.028) rotate(-90) scale(0.1 -0.1)">
      <defs>
       <path id="DejaVuSans-Oblique-5a" d="M 838 4666 
L 4500 4666 
L 4409 4184 
L 794 531 
L 3769 531 
L 3669 0 
L -141 0 
L -50 481 
L 3566 4134 
L 738 4134 
L 838 4666 
z
" transform="scale(0.015625)"/>
       <path id="DejaVuSans-Oblique-61" d="M 3438 1997 
L 3047 0 
L 2472 0 
L 2578 531 
Q 2325 219 2001 64 
Q 1678 -91 1281 -91 
Q 834 -91 548 182 
Q 263 456 263 884 
Q 263 1497 752 1853 
Q 1241 2209 2100 2209 
L 2900 2209 
L 2931 2363 
Q 2938 2388 2941 2417 
Q 2944 2447 2944 2509 
Q 2944 2788 2717 2942 
Q 2491 3097 2081 3097 
Q 1800 3097 1504 3025 
Q 1209 2953 897 2809 
L 997 3341 
Q 1322 3463 1633 3523 
Q 1944 3584 2234 3584 
Q 2853 3584 3176 3315 
Q 3500 3047 3500 2534 
Q 3500 2431 3484 2292 
Q 3469 2153 3438 1997 
z
M 2816 1759 
L 2241 1759 
Q 1534 1759 1195 1570 
Q 856 1381 856 984 
Q 856 709 1029 553 
Q 1203 397 1509 397 
Q 1978 397 2328 733 
Q 2678 1069 2791 1631 
L 2816 1759 
z
" transform="scale(0.015625)"/>
       <path id="Calibri-6e" d="M 2900 78 
Q 2900 53 2887 36 
Q 2875 19 2847 6 
Q 2819 -6 2769 -12 
Q 2719 -19 2644 -19 
Q 2566 -19 2516 -12 
Q 2466 -6 2437 6 
Q 2409 19 2396 36 
Q 2384 53 2384 78 
L 2384 1725 
Q 2384 1966 2346 2112 
Q 2309 2259 2237 2365 
Q 2166 2472 2052 2528 
Q 1938 2584 1788 2584 
Q 1594 2584 1400 2446 
Q 1206 2309 994 2044 
L 994 78 
Q 994 53 981 36 
Q 969 19 941 6 
Q 913 -6 863 -12 
Q 813 -19 734 -19 
Q 659 -19 609 -12 
Q 559 -6 529 6 
Q 500 19 489 36 
Q 478 53 478 78 
L 478 2891 
Q 478 2916 487 2933 
Q 497 2950 525 2964 
Q 553 2978 597 2983 
Q 641 2988 713 2988 
Q 781 2988 826 2983 
Q 872 2978 897 2964 
Q 922 2950 933 2933 
Q 944 2916 944 2891 
L 944 2519 
Q 1181 2784 1417 2907 
Q 1653 3031 1894 3031 
Q 2175 3031 2367 2936 
Q 2559 2841 2678 2681 
Q 2797 2522 2848 2308 
Q 2900 2094 2900 1794 
L 2900 78 
z
" transform="scale(0.015625)"/>
      </defs>
      <use xlink:href="#DejaVuSans-Oblique-5a" transform="translate(0 0.09375)"/>
      <use xlink:href="#DejaVuSans-Oblique-61" transform="translate(69.462891 -16.3125) scale(0.7)"/>
      <use xlink:href="#Calibri-20" transform="translate(115.092773 0.09375)"/>
      <use xlink:href="#Calibri-28" transform="translate(136.575195 0.09375)"/>
      <use xlink:href="#Calibri-6e" transform="translate(166.897461 0.09375)"/>
      <use xlink:href="#Calibri-6d" transform="translate(219.436523 0.09375)"/>
      <use xlink:href="#Calibri-29" transform="translate(299.319336 0.09375)"/>
     </g>
    </g>
   </g>
   <g id="patch_3">
    <path d="M 57.6 307.584 
L 57.6 41.472 
" style="fill: none; stroke: #000000; stroke-width: 0.8; stroke-linejoin: miter; stroke-linecap: square"/>
   </g>
   <g id="patch_4">
    <path d="M 343.296 307.584 
L 343.296 41.472 
" style="fill: none; stroke: #000000; stroke-width: 0.8; stroke-linejoin: miter; stroke-linecap: square"/>
   </g>
   <g id="patch_5">
    <path d="M 57.6 307.584 
L 343.296 307.584 
" style="fill: none; stroke: #000000; stroke-width: 0.8; stroke-linejoin: miter; stroke-linecap: square"/>
   </g>
   <g id="patch_6">
    <path d="M 57.6 41.472 
L 343.296 41.472 
" style="fill: none; stroke: #000000; stroke-width: 0.8; stroke-linejoin: miter; stroke-linecap: square"/>
   </g>
   <g id="text_22">
    <!-- $\lambda$ = 700 nm -->
    <g transform="translate(177.348 35.472) scale(0.1 -0.1)">
     <defs>
      <path id="DejaVuSans-Oblique-3bb" d="M 2350 4316 
L 3125 0 
L 2516 0 
L 2038 2588 
L 328 0 
L -281 0 
L 1903 3356 
L 1794 3975 
Q 1725 4369 1391 4369 
L 1091 4369 
L 1184 4863 
L 1550 4856 
Q 2253 4847 2350 4316 
z
" transform="scale(0.015625)"/>
      <path id="Calibri-3d" d="M 2891 2409 
Q 2891 2284 2855 2236 
Q 2819 2188 2772 2188 
L 409 2188 
Q 363 2188 328 2236 
Q 294 2284 294 2409 
Q 294 2522 325 2575 
Q 356 2628 409 2628 
L 2772 2628 
Q 2828 2628 2859 2575 
Q 2891 2522 2891 2409 
z
M 2891 1194 
Q 2891 1069 2855 1022 
Q 2819 975 2772 975 
L 409 975 
Q 363 975 328 1022 
Q 294 1069 294 1194 
Q 294 1309 325 1362 
Q 356 1416 409 1416 
L 2772 1416 
Q 2828 1416 2859 1362 
Q 2891 1309 2891 1194 
z
" transform="scale(0.015625)"/>
     </defs>
     <use xlink:href="#DejaVuSans-Oblique-3bb" transform="translate(0 0.015625)"/>
     <use xlink:href="#Calibri-20" transform="translate(59.179688 0.015625)"/>
     <use xlink:href="#Calibri-3d" transform="translate(81.787109 0.015625)"/>
     <use xlink:href="#Calibri-20" transform="translate(131.591797 0.015625)"/>
     <use xlink:href="#Calibri-37" transform="translate(154.199219 0.015625)"/>
     <use xlink:href="#Calibri-30" transform="translate(204.882812 0.015625)"/>
     <use xlink:href="#Calibri-30" transform="translate(255.566406 0.015625)"/>
     <use xlink:href="#Calibri-20" transform="translate(306.25 0.015625)"/>
     <use xlink:href="#Calibri-6e" transform="translate(328.857422 0.015625)"/>
     <use xlink:href="#Calibri-6d" transform="translate(381.396484 0.015625)"/>
    </g>
   </g>
  </g>
  <g id="axes_2">
   <g id="patch_7">
    <path d="M 361.152 307.584 
L 374.4576 307.584 
L 374.4576 41.472 
L 361.152 41.472 
z
" style="fill: #ffffff"/>
   </g>
   <g id="QuadMesh_1">
    <path d="M 361.152 307.584 
L 374.4576 307.584 
L 374.4576 280.9728 
L 361.152 280.9728 
L 361.152 307.584 
" clip-path="url(#p1c2f1b07a0)" style="fill: #0000b6"/>
    <path d="M 361.152 280.9728 
L 374.4576 280.9728 
L 374.4576 254.3616 
L 361.152 254.3616 
L 361.152 280.9728 
" clip-path="url(#p1c2f1b07a0)" style="fill: #0018ff"/>
    <path d="M 361.152 254.3616 
L 374.4576 254.3616 
L 374.4576 227.7504 
L 361.152 227.7504 
L 361.152 254.3616 
" clip-path="url(#p1c2f1b07a0)" style="fill: #0080ff"/>
    <path d="M 361.152 227.7504 
L 374.4576 227.7504 
L 374.4576 201.1392 
L 361.152 201.1392 
L 361.152 227.7504 
" clip-path="url(#p1c2f1b07a0)" style="fill: #00e4f8"/>
    <path d="M 361.152 201.1392 
L 374.4576 201.1392 
L 374.4576 174.528 
L 361.152 174.528 
L 361.152 201.1392 
" clip-path="url(#p1c2f1b07a0)" style="fill: #53ffa4"/>
    <path d="M 361.152 174.528 
L 374.4576 174.528 
L 374.4576 147.9168 
L 361.152 147.9168 
L 361.152 174.528 
" clip-path="url(#p1c2f1b07a0)" style="fill: #a4ff53"/>
    <path d="M 361.152 147.9168 
L 374.4576 147.9168 
L 374.4576 121.3056 
L 361.152 121.3056 
L 361.152 147.9168 
" clip-path="url(#p1c2f1b07a0)" style="fill: #f8f500"/>
    <path d="M 361.152 121.3056 
L 374.4576 121.3056 
L 374.4576 94.6944 
L 361.152 94.6944 
L 361.152 121.3056 
" clip-path="url(#p1c2f1b07a0)" style="fill: #ff9400"/>
    <path d="M 361.152 94.6944 
L 374.4576 94.6944 
L 374.4576 68.0832 
L 361.152 68.0832 
L 361.152 94.6944 
" clip-path="url(#p1c2f1b07a0)" style="fill: #ff3800"/>
    <path d="M 361.152 68.0832 
L 374.4576 68.0832 
L 374.4576 41.472 
L 361.152 41.472 
L 361.152 68.0832 
" clip-path="url(#p1c2f1b07a0)" style="fill: #b60000"/>
   </g>
   <g id="matplotlib.axis_3"/>
   <g id="matplotlib.axis_4">
    <g id="ytick_9">
     <g id="line2d_20">
      <defs>
       <path id="m0aefb7df5a" d="M 0 0 
L 3.5 0 
" style="stroke: #000000; stroke-width: 0.8"/>
      </defs>
      <g>
       <use xlink:href="#m0aefb7df5a" x="374.4576" y="307.584" style="stroke: #000000; stroke-width: 0.8"/>
      </g>
     </g>
     <g id="text_23">
      <!-- 0 -->
      <g transform="translate(381.4576 310.984781) scale(0.1 -0.1)">
       <use xlink:href="#Calibri-30"/>
      </g>
     </g>
    </g>
    <g id="ytick_10">
     <g id="line2d_21">
      <g>
       <use xlink:href="#m0aefb7df5a" x="374.4576" y="280.9728" style="stroke: #000000; stroke-width: 0.8"/>
      </g>
     </g>
     <g id="text_24">
      <!-- 0.1 -->
      <g transform="translate(381.4576 284.373581) scale(0.1 -0.1)">
       <use xlink:href="#Calibri-30"/>
       <use xlink:href="#Calibri-2e" x="50.683594"/>
       <use xlink:href="#Calibri-31" x="75.927734"/>
      </g>
     </g>
    </g>
    <g id="ytick_11">
     <g id="line2d_22">
      <g>
       <use xlink:href="#m0aefb7df5a" x="374.4576" y="254.3616" style="stroke: #000000; stroke-width: 0.8"/>
      </g>
     </g>
     <g id="text_25">
      <!-- 0.2 -->
      <g transform="translate(381.4576 257.762381) scale(0.1 -0.1)">
       <use xlink:href="#Calibri-30"/>
       <use xlink:href="#Calibri-2e" x="50.683594"/>
       <use xlink:href="#Calibri-32" x="75.927734"/>
      </g>
     </g>
    </g>
    <g id="ytick_12">
     <g id="line2d_23">
      <g>
       <use xlink:href="#m0aefb7df5a" x="374.4576" y="227.7504" style="stroke: #000000; stroke-width: 0.8"/>
      </g>
     </g>
     <g id="text_26">
      <!-- 0.3 -->
      <g transform="translate(381.4576 231.151181) scale(0.1 -0.1)">
       <use xlink:href="#Calibri-30"/>
       <use xlink:href="#Calibri-2e" x="50.683594"/>
       <use xlink:href="#Calibri-33" x="75.927734"/>
      </g>
     </g>
    </g>
    <g id="ytick_13">
     <g id="line2d_24">
      <g>
       <use xlink:href="#m0aefb7df5a" x="374.4576" y="201.1392" style="stroke: #000000; stroke-width: 0.8"/>
      </g>
     </g>
     <g id="text_27">
      <!-- 0.4 -->
      <g transform="translate(381.4576 204.539981) scale(0.1 -0.1)">
       <use xlink:href="#Calibri-30"/>
       <use xlink:href="#Calibri-2e" x="50.683594"/>
       <use xlink:href="#Calibri-34" x="75.927734"/>
      </g>
     </g>
    </g>
    <g id="ytick_14">
     <g id="line2d_25">
      <g>
       <use xlink:href="#m0aefb7df5a" x="374.4576" y="174.528" style="stroke: #000000; stroke-width: 0.8"/>
      </g>
     </g>
     <g id="text_28">
      <!-- 0.5 -->
      <g transform="translate(381.4576 177.928781) scale(0.1 -0.1)">
       <use xlink:href="#Calibri-30"/>
       <use xlink:href="#Calibri-2e" x="50.683594"/>
       <use xlink:href="#Calibri-35" x="75.927734"/>
      </g>
     </g>
    </g>
    <g id="ytick_15">
     <g id="line2d_26">
      <g>
       <use xlink:href="#m0aefb7df5a" x="374.4576" y="147.9168" style="stroke: #000000; stroke-width: 0.8"/>
      </g>
     </g>
     <g id="text_29">
      <!-- 0.6 -->
      <g transform="translate(381.4576 151.317581) scale(0.1 -0.1)">
       <use xlink:href="#Calibri-30"/>
       <use xlink:href="#Calibri-2e" x="50.683594"/>
       <use xlink:href="#Calibri-36" x="75.927734"/>
      </g>
     </g>
    </g>
    <g id="ytick_16">
     <g id="line2d_27">
      <g>
       <use xlink:href="#m0aefb7df5a" x="374.4576" y="121.3056" style="stroke: #000000; stroke-width: 0.8"/>
      </g>
     </g>
     <g id="text_30">
      <!-- 0.7 -->
      <g transform="translate(381.4576 124.706381) scale(0.1 -0.1)">
       <use xlink:href="#Calibri-30"/>
       <use xlink:href="#Calibri-2e" x="50.683594"/>
       <use xlink:href="#Calibri-37" x="75.927734"/>
      </g>
     </g>
    </g>
    <g id="ytick_17">
     <g id="line2d_28">
      <g>
       <use xlink:href="#m0aefb7df5a" x="374.4576" y="94.6944" style="stroke: #000000; stroke-width: 0.8"/>
      </g>
     </g>
     <g id="text_31">
      <!-- 0.8 -->
      <g transform="translate(381.4576 98.095181) scale(0.1 -0.1)">
       <use xlink:href="#Calibri-30"/>
       <use xlink:href="#Calibri-2e" x="50.683594"/>
       <use xlink:href="#Calibri-38" x="75.927734"/>
      </g>
     </g>
    </g>
    <g id="ytick_18">
     <g id="line2d_29">
      <g>
       <use xlink:href="#m0aefb7df5a" x="374.4576" y="68.0832" style="stroke: #000000; stroke-width: 0.8"/>
      </g>
     </g>
     <g id="text_32">
      <!-- 0.9 -->
      <g transform="translate(381.4576 71.483981) scale(0.1 -0.1)">
       <use xlink:href="#Calibri-30"/>
       <use xlink:href="#Calibri-2e" x="50.683594"/>
       <use xlink:href="#Calibri-39" x="75.927734"/>
      </g>
     </g>
    </g>
    <g id="ytick_19">
     <g id="line2d_30">
      <g>
       <use xlink:href="#m0aefb7df5a" x="374.4576" y="41.472" style="stroke: #000000; stroke-width: 0.8"/>
      </g>
     </g>
     <g id="text_33">
      <!-- 1.0 -->
      <g transform="translate(381.4576 44.872781) scale(0.1 -0.1)">
       <use xlink:href="#Calibri-31"/>
       <use xlink:href="#Calibri-2e" x="50.683594"/>
       <use xlink:href="#Calibri-30" x="75.927734"/>
      </g>
     </g>
    </g>
   </g>
   <g id="LineCollection_1"/>
   <g id="patch_8">
    <path d="M 361.152 307.584 
L 367.8048 307.584 
L 374.4576 307.584 
L 374.4576 41.472 
L 367.8048 41.472 
L 361.152 41.472 
L 361.152 307.584 
z
" style="fill: none; stroke: #000000; stroke-width: 0.8; stroke-linejoin: miter; stroke-linecap: square"/>
   </g>
   <g id="text_34">
    <!-- $\mathit{E}_{\mathrm{dis}}$/$\mathit{E}_{\mathrm{i}}$ -->
    <g transform="translate(353.2548 35.472) scale(0.1 -0.1)">
     <defs>
      <path id="DejaVuSans-Oblique-45" d="M 1081 4666 
L 4031 4666 
L 3928 4134 
L 1606 4134 
L 1338 2753 
L 3566 2753 
L 3463 2222 
L 1234 2222 
L 909 531 
L 3284 531 
L 3181 0 
L 172 0 
L 1081 4666 
z
" transform="scale(0.015625)"/>
      <path id="DejaVuSans-64" d="M 2906 2969 
L 2906 4863 
L 3481 4863 
L 3481 0 
L 2906 0 
L 2906 525 
Q 2725 213 2448 61 
Q 2172 -91 1784 -91 
Q 1150 -91 751 415 
Q 353 922 353 1747 
Q 353 2572 751 3078 
Q 1150 3584 1784 3584 
Q 2172 3584 2448 3432 
Q 2725 3281 2906 2969 
z
M 947 1747 
Q 947 1113 1208 752 
Q 1469 391 1925 391 
Q 2381 391 2643 752 
Q 2906 1113 2906 1747 
Q 2906 2381 2643 2742 
Q 2381 3103 1925 3103 
Q 1469 3103 1208 2742 
Q 947 2381 947 1747 
z
" transform="scale(0.015625)"/>
      <path id="DejaVuSans-69" d="M 603 3500 
L 1178 3500 
L 1178 0 
L 603 0 
L 603 3500 
z
M 603 4863 
L 1178 4863 
L 1178 4134 
L 603 4134 
L 603 4863 
z
" transform="scale(0.015625)"/>
      <path id="DejaVuSans-73" d="M 2834 3397 
L 2834 2853 
Q 2591 2978 2328 3040 
Q 2066 3103 1784 3103 
Q 1356 3103 1142 2972 
Q 928 2841 928 2578 
Q 928 2378 1081 2264 
Q 1234 2150 1697 2047 
L 1894 2003 
Q 2506 1872 2764 1633 
Q 3022 1394 3022 966 
Q 3022 478 2636 193 
Q 2250 -91 1575 -91 
Q 1294 -91 989 -36 
Q 684 19 347 128 
L 347 722 
Q 666 556 975 473 
Q 1284 391 1588 391 
Q 1994 391 2212 530 
Q 2431 669 2431 922 
Q 2431 1156 2273 1281 
Q 2116 1406 1581 1522 
L 1381 1569 
Q 847 1681 609 1914 
Q 372 2147 372 2553 
Q 372 3047 722 3315 
Q 1072 3584 1716 3584 
Q 2034 3584 2315 3537 
Q 2597 3491 2834 3397 
z
" transform="scale(0.015625)"/>
     </defs>
     <use xlink:href="#DejaVuSans-Oblique-45" transform="translate(0 0.09375)"/>
     <use xlink:href="#DejaVuSans-64" transform="translate(63.183594 -16.3125) scale(0.7)"/>
     <use xlink:href="#DejaVuSans-69" transform="translate(107.617188 -16.3125) scale(0.7)"/>
     <use xlink:href="#DejaVuSans-73" transform="translate(127.06543 -16.3125) scale(0.7)"/>
     <use xlink:href="#Calibri-2f" transform="translate(166.269531 0.09375)"/>
     <use xlink:href="#DejaVuSans-Oblique-45" transform="translate(204.892578 0.09375)"/>
     <use xlink:href="#DejaVuSans-69" transform="translate(268.076172 -16.3125) scale(0.7)"/>
    </g>
   </g>
  </g>
 </g>
 <defs>
  <clipPath id="p94a8054b6a">
   <rect x="57.6" y="41.472" width="285.696" height="266.112"/>
  </clipPath>
  <clipPath id="p1c2f1b07a0">
   <rect x="361.152" y="41.472" width="13.3056" height="266.112"/>
  </clipPath>
 </defs>
</svg>
