<?xml version="1.0" encoding="utf-8" standalone="no"?>
<!DOCTYPE svg PUBLIC "-//W3C//DTD SVG 1.1//EN"
  "http://www.w3.org/Graphics/SVG/1.1/DTD/svg11.dtd">
<svg xmlns:xlink="http://www.w3.org/1999/xlink" width="460.8pt" height="345.6pt" viewBox="0 0 460.8 345.6" xmlns="http://www.w3.org/2000/svg" version="1.1">
 <metadata>
  <rdf:RDF xmlns:dc="http://purl.org/dc/elements/1.1/" xmlns:cc="http://creativecommons.org/ns#" xmlns:rdf="http://www.w3.org/1999/02/22-rdf-syntax-ns#">
   <cc:Work>
    <dc:type rdf:resource="http://purl.org/dc/dcmitype/StillImage"/>
    <dc:date>2024-01-22T08:49:53.827237</dc:date>
    <dc:format>image/svg+xml</dc:format>
    <dc:creator>
     <cc:Agent>
      <dc:title>Matplotlib v3.7.1, https://matplotlib.org/</dc:title>
     </cc:Agent>
    </dc:creator>
   </cc:Work>
  </rdf:RDF>
 </metadata>
 <defs>
  <style type="text/css">*{stroke-linejoin: round; stroke-linecap: butt}</style>
 </defs>
 <g id="figure_1">
  <g id="patch_1">
   <path d="M 0 345.6 
L 460.8 345.6 
L 460.8 0 
L 0 0 
z
" style="fill: #ffffff"/>
  </g>
  <g id="axes_1">
   <g id="patch_2">
    <path d="M 57.6 307.584 
L 343.296 307.584 
L 343.296 41.472 
L 57.6 41.472 
z
" style="fill: #ffffff"/>
   </g>
   <g id="PathCollection_1">
    <path clip-path="url(#pb1a1760227)" style="fill: #0000b6"/>
   </g>
   <g id="PathCollection_2">
    <path clip-path="url(#pb1a1760227)" style="fill: #0018ff"/>
   </g>
   <g id="PathCollection_3">
    <path d="M 57.62857 66.633578 
L 57.931917 66.355575 
L 58.793578 65.539881 
L 59.29538 65.069196 
L 59.622743 64.7568 
L 60.512708 63.896213 
L 60.913914 63.502855 
L 61.406797 63.025809 
L 62.037819 62.40468 
L 62.627704 61.817424 
L 63.015321 61.4304 
L 63.790267 60.643773 
L 63.976207 60.45612 
L 64.138214 60.290162 
L 64.343174 60.077416 
L 65.571651 58.812458 
L 66.248586 58.104 
L 66.683335 57.642799 
L 66.90317 57.406569 
L 67.624315 56.640809 
L 68.448232 55.75188 
L 68.866738 55.295006 
L 69.339688 54.7776 
L 69.957862 54.093073 
L 70.215168 53.80332 
L 70.255878 53.757613 
L 70.317647 53.687405 
L 71.668066 52.16308 
L 72.289114 51.4512 
L 72.761515 50.902151 
L 73.029724 50.586665 
L 73.658365 49.855282 
L 74.298626 49.09908 
L 74.801688 48.497616 
L 74.902336 48.378476 
L 75.113109 48.1248 
L 75.606966 47.522642 
L 75.914309 47.15052 
L 76.275233 46.706931 
L 76.942679 45.877167 
L 77.573722 45.097257 
L 77.812043 44.7984 
L 78.737259 43.621622 
L 79.327973 42.861853 
L 79.49801 42.645351 
L 79.652145 42.44628 
L 80.201559 41.727627 
L 80.397573 41.472 
L 78.960538 41.472 
L 77.436826 41.472 
L 75.913114 41.472 
L 74.389402 41.472 
L 72.86569 41.472 
L 71.341978 41.472 
L 69.818266 41.472 
L 68.294554 41.472 
L 66.770842 41.472 
L 65.24713 41.472 
L 63.723418 41.472 
L 62.199706 41.472 
L 60.675994 41.472 
L 59.152282 41.472 
L 57.62857 41.472 
L 57.62857 44.7984 
L 57.62857 48.1248 
L 57.62857 51.4512 
L 57.62857 54.7776 
L 57.62857 58.104 
L 57.62857 61.4304 
L 57.62857 64.7568 
" clip-path="url(#pb1a1760227)" style="fill: #0080ff"/>
   </g>
   <g id="PathCollection_4">
    <path d="M 80.397573 41.472 
L 80.201559 41.727627 
L 79.652145 42.44628 
L 79.49801 42.645351 
L 79.327973 42.861853 
L 78.737259 43.621622 
L 77.812043 44.7984 
L 77.573722 45.097257 
L 76.942679 45.877167 
L 76.275233 46.706931 
L 75.914309 47.15052 
L 75.606966 47.522642 
L 75.113109 48.1248 
L 74.902336 48.378476 
L 74.801688 48.497616 
L 74.298626 49.09908 
L 73.658365 49.855282 
L 73.029724 50.586665 
L 72.761515 50.902151 
L 72.289114 51.4512 
L 71.668066 52.16308 
L 70.317647 53.687405 
L 70.255878 53.757613 
L 70.215168 53.80332 
L 69.957862 54.093073 
L 69.339688 54.7776 
L 68.866738 55.295006 
L 68.448232 55.75188 
L 67.624315 56.640809 
L 66.90317 57.406569 
L 66.683335 57.642799 
L 66.248586 58.104 
L 65.571651 58.812458 
L 64.343174 60.077416 
L 64.138214 60.290162 
L 63.976207 60.45612 
L 63.790267 60.643773 
L 63.015321 61.4304 
L 62.627704 61.817424 
L 62.037819 62.40468 
L 61.406797 63.025809 
L 60.913914 63.502855 
L 60.512708 63.896213 
L 59.622743 64.7568 
L 59.29538 65.069196 
L 58.793578 65.539881 
L 57.931917 66.355575 
L 57.62857 66.633578 
L 57.62857 68.0832 
L 57.62857 71.4096 
L 57.62857 74.736 
L 57.62857 78.0624 
L 57.62857 81.3888 
L 57.62857 84.7152 
L 57.62857 88.0416 
L 57.62857 91.368 
L 57.62857 94.6944 
L 57.62857 98.0208 
L 57.62857 101.3472 
L 57.62857 104.6736 
L 57.62857 108 
L 57.62857 111.3264 
L 57.62857 114.13324 
L 57.936388 113.980804 
L 58.240825 113.828601 
L 58.537159 113.67852 
L 59.90868 112.977685 
L 60.41294 112.712808 
L 60.89238 112.466854 
L 61.926273 111.923328 
L 62.368704 111.695338 
L 63.065171 111.3264 
L 63.66267 111.006234 
L 63.798283 110.931824 
L 64.816299 110.385857 
L 65.968783 109.750966 
L 66.425126 109.504326 
L 67.19768 109.076773 
L 67.25089 109.047989 
L 67.383539 108.97428 
L 68.610804 108.285974 
L 69.116177 108 
L 70.149811 107.410403 
L 70.478421 107.219116 
L 70.812853 107.02572 
L 72.080446 106.285743 
L 72.62126 105.961855 
L 73.06119 105.703974 
L 74.241529 104.996419 
L 74.474435 104.859235 
L 74.781639 104.6736 
L 75.79547 104.053566 
L 76.062413 103.886727 
L 76.854321 103.401941 
L 78.489409 102.375716 
L 78.52086 102.356305 
L 78.576075 102.32148 
L 78.941615 102.091407 
L 80.100746 101.3472 
L 80.324207 101.202479 
L 81.474582 100.451677 
L 81.595391 100.37292 
L 82.358406 99.867797 
L 82.832321 99.54755 
L 83.904303 98.834284 
L 85.049041 98.05424 
L 85.060303 98.046714 
L 85.098292 98.0208 
L 86.223194 97.24383 
L 87.275893 96.499633 
L 87.751347 96.168438 
L 88.454621 95.66868 
L 88.92273 95.330815 
L 89.705804 94.766092 
L 89.804538 94.6944 
L 90.960556 93.847027 
L 91.130316 93.72012 
L 91.538733 93.415566 
L 91.841373 93.185582 
L 93.080866 92.256344 
L 94.1905 91.405726 
L 94.203026 91.396292 
L 94.23989 91.368 
L 95.332334 90.5187 
L 96.55561 89.546778 
L 96.854977 89.311973 
L 97.225609 89.01588 
L 97.891317 88.475564 
L 98.428501 88.0416 
L 98.556908 87.93681 
L 98.606905 87.89521 
L 99.610053 87.06732 
L 99.780919 86.92476 
L 99.891076 86.830914 
L 100.583767 86.250278 
L 101.452478 85.509277 
L 101.977302 85.066861 
L 102.385844 84.7152 
L 103.204446 84.001141 
L 103.33993 83.878629 
L 103.33993 81.3888 
L 103.33993 78.0624 
L 103.33993 74.736 
L 103.33993 71.4096 
L 103.33993 68.0832 
L 103.33993 64.7568 
L 103.33993 61.4304 
L 103.33993 58.104 
L 103.33993 54.7776 
L 103.33993 51.4512 
L 103.33993 48.1248 
L 103.33993 44.7984 
L 103.33993 41.472 
L 101.816218 41.472 
L 100.292506 41.472 
L 98.768794 41.472 
L 97.245082 41.472 
L 95.72137 41.472 
L 94.197658 41.472 
L 92.673946 41.472 
L 91.150234 41.472 
L 89.626522 41.472 
L 88.10281 41.472 
L 86.579098 41.472 
L 85.055386 41.472 
L 83.531674 41.472 
L 82.007962 41.472 
L 80.48425 41.472 
" clip-path="url(#pb1a1760227)" style="fill: #00e4f8"/>
   </g>
   <g id="PathCollection_5">
    <path d="M 103.33993 83.878629 
L 103.204446 84.001141 
L 102.385844 84.7152 
L 101.977302 85.066861 
L 101.452478 85.509277 
L 100.583767 86.250278 
L 99.891076 86.830914 
L 99.780919 86.92476 
L 99.610053 87.06732 
L 98.606905 87.89521 
L 98.556908 87.93681 
L 98.428501 88.0416 
L 97.891317 88.475564 
L 97.225609 89.01588 
L 96.854977 89.311973 
L 96.55561 89.546778 
L 95.332334 90.5187 
L 94.23989 91.368 
L 94.203026 91.396292 
L 94.1905 91.405726 
L 93.080866 92.256344 
L 91.841373 93.185582 
L 91.538733 93.415566 
L 91.130316 93.72012 
L 90.960556 93.847027 
L 89.804538 94.6944 
L 89.705804 94.766092 
L 88.92273 95.330815 
L 88.454621 95.66868 
L 87.751347 96.168438 
L 87.275893 96.499633 
L 86.223194 97.24383 
L 85.098292 98.0208 
L 85.060303 98.046714 
L 85.049041 98.05424 
L 83.904303 98.834284 
L 82.832321 99.54755 
L 82.358406 99.867797 
L 81.595391 100.37292 
L 81.474582 100.451677 
L 80.324207 101.202479 
L 80.100746 101.3472 
L 78.941615 102.091407 
L 78.576075 102.32148 
L 78.52086 102.356305 
L 78.489409 102.375716 
L 76.854321 103.401941 
L 76.062413 103.886727 
L 75.79547 104.053566 
L 74.781639 104.6736 
L 74.474435 104.859235 
L 74.241529 104.996419 
L 73.06119 105.703974 
L 72.62126 105.961855 
L 72.080446 106.285743 
L 70.812853 107.02572 
L 70.478421 107.219116 
L 70.149811 107.410403 
L 69.116177 108 
L 68.610804 108.285974 
L 67.383539 108.97428 
L 67.25089 109.047989 
L 67.19768 109.076773 
L 66.425126 109.504326 
L 65.968783 109.750966 
L 64.816299 110.385857 
L 63.798283 110.931824 
L 63.66267 111.006234 
L 63.065171 111.3264 
L 62.368704 111.695338 
L 61.926273 111.923328 
L 60.89238 112.466854 
L 60.41294 112.712808 
L 59.90868 112.977685 
L 58.537159 113.67852 
L 58.240825 113.828601 
L 57.936388 113.980804 
L 57.62857 114.13324 
L 57.62857 114.6528 
L 57.62857 117.9792 
L 57.62857 121.3056 
L 57.62857 124.632 
L 57.62857 127.9584 
L 57.62857 131.2848 
L 57.62857 134.6112 
L 57.62857 137.9376 
L 57.62857 141.264 
L 57.62857 144.5904 
L 57.62857 147.9168 
L 57.62857 151.2432 
L 57.62857 152.967708 
L 57.942151 152.895911 
L 58.454101 152.767391 
L 59.712001 152.465117 
L 60.481029 152.270749 
L 60.853898 152.180833 
L 61.890254 151.91876 
L 62.447382 151.7839 
L 63.680393 151.469958 
L 63.762651 151.449975 
L 64.574315 151.2432 
L 65.176224 151.088407 
L 65.33804 151.044734 
L 66.667844 150.700357 
L 66.885004 150.641516 
L 67.898629 150.378862 
L 68.803159 150.132868 
L 69.569644 149.932851 
L 70.094056 149.789663 
L 70.613975 149.653905 
L 72.279008 149.197579 
L 72.468123 149.147846 
L 73.307058 148.916993 
L 73.322039 148.913051 
L 73.401581 148.89108 
L 74.980828 148.451606 
L 75.294946 148.364645 
L 76.867493 147.9168 
L 77.228647 147.813844 
L 77.299875 147.792961 
L 77.704172 147.675048 
L 78.241905 147.518641 
L 79.607796 147.124253 
L 80.225878 146.94252 
L 81.402041 146.594021 
L 81.641903 146.519691 
L 82.334905 146.313536 
L 82.80983 146.166248 
L 84.079724 145.786843 
L 84.87556 145.538159 
L 85.215843 145.436083 
L 86.354891 145.079863 
L 86.748923 144.961145 
L 87.925384 144.5904 
L 88.0927 144.537119 
L 88.114275 144.52997 
L 89.409716 144.117094 
L 89.921306 143.946859 
L 90.964549 143.611761 
L 91.361066 143.479218 
L 92.061762 143.253949 
L 93.508595 142.768286 
L 93.832048 142.663475 
L 94.613251 142.400039 
L 94.704485 142.370449 
L 95.094757 142.23828 
L 96.331713 141.815912 
L 96.631505 141.714116 
L 97.921905 141.264 
L 98.531948 141.049828 
L 99.314286 140.770731 
L 100.665932 140.28972 
L 100.734116 140.265082 
L 100.753386 140.257857 
L 102.575913 139.596083 
L 103.059974 139.413091 
L 103.33993 139.307825 
L 103.33993 137.9376 
L 103.33993 134.6112 
L 103.33993 131.2848 
L 103.33993 127.9584 
L 103.33993 124.632 
L 103.33993 121.3056 
L 103.33993 117.9792 
L 103.33993 114.6528 
L 103.33993 111.3264 
L 103.33993 108 
L 103.33993 104.6736 
L 103.33993 101.3472 
L 103.33993 98.0208 
L 103.33993 94.6944 
L 103.33993 91.368 
L 103.33993 88.0416 
L 103.33993 84.7152 
" clip-path="url(#pb1a1760227)" style="fill: #53ffa4"/>
   </g>
   <g id="PathCollection_6">
    <path d="M 103.33993 139.307825 
L 103.059974 139.413091 
L 102.575913 139.596083 
L 100.753386 140.257857 
L 100.734116 140.265082 
L 100.665932 140.28972 
L 99.314286 140.770731 
L 98.531948 141.049828 
L 97.921905 141.264 
L 96.631505 141.714116 
L 96.331713 141.815912 
L 95.094757 142.23828 
L 94.704485 142.370449 
L 94.613251 142.400039 
L 93.832048 142.663475 
L 93.508595 142.768286 
L 92.061762 143.253949 
L 91.361066 143.479218 
L 90.964549 143.611761 
L 89.921306 143.946859 
L 89.409716 144.117094 
L 88.114275 144.52997 
L 88.0927 144.537119 
L 87.925384 144.5904 
L 86.748923 144.961145 
L 86.354891 145.079863 
L 85.215843 145.436083 
L 84.87556 145.538159 
L 84.079724 145.786843 
L 82.80983 146.166248 
L 82.334905 146.313536 
L 81.641903 146.519691 
L 81.402041 146.594021 
L 80.225878 146.94252 
L 79.607796 147.124253 
L 78.241905 147.518641 
L 77.704172 147.675048 
L 77.299875 147.792961 
L 77.228647 147.813844 
L 76.867493 147.9168 
L 75.294946 148.364645 
L 74.980828 148.451606 
L 73.401581 148.89108 
L 73.322039 148.913051 
L 73.307058 148.916993 
L 72.468123 149.147846 
L 72.279008 149.197579 
L 70.613975 149.653905 
L 70.094056 149.789663 
L 69.569644 149.932851 
L 68.803159 150.132868 
L 67.898629 150.378862 
L 66.885004 150.641516 
L 66.667844 150.700357 
L 65.33804 151.044734 
L 65.176224 151.088407 
L 64.574315 151.2432 
L 63.762651 151.449975 
L 63.680393 151.469958 
L 62.447382 151.7839 
L 61.890254 151.91876 
L 60.853898 152.180833 
L 60.481029 152.270749 
L 59.712001 152.465117 
L 58.454101 152.767391 
L 57.942151 152.895911 
L 57.62857 152.967708 
L 57.62857 154.5696 
L 57.62857 157.896 
L 57.62857 161.2224 
L 57.62857 164.5488 
L 57.62857 167.8752 
L 57.62857 171.2016 
L 57.62857 174.528 
L 57.62857 177.8544 
L 57.62857 181.1808 
L 57.62857 184.5072 
L 57.62857 186.754016 
L 58.050274 186.72977 
L 58.137202 186.72321 
L 60.108641 186.595018 
L 60.282355 186.58185 
L 61.060026 186.531222 
L 61.280205 186.514552 
L 63.065887 186.398151 
L 63.369008 186.375097 
L 64.069157 186.329402 
L 64.424816 186.302385 
L 66.021643 186.198032 
L 66.456322 186.16486 
L 67.077648 186.124207 
L 67.571085 186.086597 
L 68.975864 185.994561 
L 69.544317 185.951032 
L 70.085479 185.915533 
L 70.719065 185.867075 
L 71.928501 185.787634 
L 72.633015 185.733497 
L 73.092629 185.70327 
L 73.86881 185.643699 
L 74.879505 185.577139 
L 75.722439 185.512138 
L 76.099076 185.487303 
L 77.020377 185.416344 
L 77.828822 185.362963 
L 78.812613 185.286828 
L 79.104797 185.267511 
L 80.173827 185.18488 
L 80.776398 185.144986 
L 81.903561 185.057439 
L 82.109769 185.043769 
L 83.329223 184.949168 
L 83.722175 184.923082 
L 84.995309 184.823832 
L 85.113966 184.815945 
L 86.48663 184.709066 
L 86.666093 184.69712 
L 88.087884 184.585866 
L 88.117363 184.583901 
L 89.098769 184.5072 
L 89.60814 184.467071 
L 89.646497 184.463593 
L 91.119824 184.346928 
L 91.18171 184.341304 
L 92.548439 184.233209 
L 92.810381 184.209349 
L 94.121369 184.105127 
L 94.276636 184.090949 
L 95.486686 183.994865 
L 95.976591 183.950029 
L 97.122018 183.858601 
L 97.372505 183.83562 
L 98.422809 183.751884 
L 99.145209 183.685451 
L 100.121739 183.607184 
L 100.469353 183.575137 
L 101.356731 183.5041 
L 102.316325 183.415421 
L 103.120498 183.3507 
L 103.33993 183.328256 
L 103.33993 181.1808 
L 103.33993 177.8544 
L 103.33993 174.528 
L 103.33993 171.2016 
L 103.33993 167.8752 
L 103.33993 164.5488 
L 103.33993 161.2224 
L 103.33993 157.896 
L 103.33993 154.5696 
L 103.33993 151.2432 
L 103.33993 147.9168 
L 103.33993 144.5904 
L 103.33993 141.264 
" clip-path="url(#pb1a1760227)" style="fill: #a4ff53"/>
   </g>
   <g id="PathCollection_7">
    <path d="M 103.33993 183.328256 
L 103.120498 183.3507 
L 102.316325 183.415421 
L 101.356731 183.5041 
L 100.469353 183.575137 
L 100.121739 183.607184 
L 99.145209 183.685451 
L 98.422809 183.751884 
L 97.372505 183.83562 
L 97.122018 183.858601 
L 95.976591 183.950029 
L 95.486686 183.994865 
L 94.276636 184.090949 
L 94.121369 184.105127 
L 92.810381 184.209349 
L 92.548439 184.233209 
L 91.18171 184.341304 
L 91.119824 184.346928 
L 89.646497 184.463593 
L 89.60814 184.467071 
L 89.098769 184.5072 
L 88.117363 184.583901 
L 88.087884 184.585866 
L 86.666093 184.69712 
L 86.48663 184.709066 
L 85.113966 184.815945 
L 84.995309 184.823832 
L 83.722175 184.923082 
L 83.329223 184.949168 
L 82.109769 185.043769 
L 81.903561 185.057439 
L 80.776398 185.144986 
L 80.173827 185.18488 
L 79.104797 185.267511 
L 78.812613 185.286828 
L 77.828822 185.362963 
L 77.020377 185.416344 
L 76.099076 185.487303 
L 75.722439 185.512138 
L 74.879505 185.577139 
L 73.86881 185.643699 
L 73.092629 185.70327 
L 72.633015 185.733497 
L 71.928501 185.787634 
L 70.719065 185.867075 
L 70.085479 185.915533 
L 69.544317 185.951032 
L 68.975864 185.994561 
L 67.571085 186.086597 
L 67.077648 186.124207 
L 66.456322 186.16486 
L 66.021643 186.198032 
L 64.424816 186.302385 
L 64.069157 186.329402 
L 63.369008 186.375097 
L 63.065887 186.398151 
L 61.280205 186.514552 
L 61.060026 186.531222 
L 60.282355 186.58185 
L 60.108641 186.595018 
L 58.137202 186.72321 
L 58.050274 186.72977 
L 57.62857 186.754016 
L 57.62857 187.8336 
L 57.62857 191.16 
L 57.62857 194.4864 
L 57.62857 197.8128 
L 57.62857 201.1392 
L 57.62857 204.4656 
L 57.62857 207.792 
L 57.62857 211.1184 
L 57.62857 214.4448 
L 57.62857 217.596224 
L 57.661391 217.598219 
L 59.117006 217.694189 
L 59.185764 217.698105 
L 60.283611 217.7712 
L 60.671117 217.796903 
L 60.681013 217.797652 
L 62.142957 217.895087 
L 62.260562 217.904054 
L 63.680084 217.99959 
L 63.768033 218.006343 
L 65.098214 218.096297 
L 65.406983 218.120173 
L 66.688029 218.207661 
L 66.856138 218.220752 
L 68.051067 218.302754 
L 68.556187 218.34237 
L 69.694919 218.421293 
L 69.945366 218.441075 
L 71.001439 218.514627 
L 71.708274 218.570857 
L 72.700718 218.640672 
L 73.035754 218.667516 
L 73.949249 218.732092 
L 74.863345 218.805861 
L 75.705391 218.865989 
L 76.127344 218.900288 
L 76.894414 218.955332 
L 78.021509 219.047616 
L 78.708899 219.097447 
L 79.220177 219.139614 
L 79.836846 219.18454 
L 81.182878 219.296369 
L 81.711202 219.335255 
L 82.314298 219.385729 
L 82.776453 219.419915 
L 84.347571 219.552378 
L 84.712258 219.579635 
L 85.409754 219.638878 
L 85.713138 219.661667 
L 87.515713 219.815916 
L 87.712023 219.830817 
L 88.506593 219.899318 
L 88.646803 219.910014 
L 90.687434 220.087268 
L 90.710452 220.089042 
L 91.102118 220.12332 
L 91.52282 220.159768 
L 91.649673 220.171386 
L 93.516812 220.335425 
L 94.333081 220.411009 
L 95.03086 220.473196 
L 96.287888 220.585317 
L 96.685436 220.620812 
L 98.422838 220.784764 
L 99.051759 220.841724 
L 101.733069 221.0976 
L 101.808269 221.104788 
L 101.826154 221.106585 
L 103.271825 221.246279 
L 103.33993 221.252747 
L 103.33993 221.0976 
L 103.33993 217.7712 
L 103.33993 214.4448 
L 103.33993 211.1184 
L 103.33993 207.792 
L 103.33993 204.4656 
L 103.33993 201.1392 
L 103.33993 197.8128 
L 103.33993 194.4864 
L 103.33993 191.16 
L 103.33993 187.8336 
L 103.33993 184.5072 
" clip-path="url(#pb1a1760227)" style="fill: #f8f500"/>
   </g>
   <g id="PathCollection_8">
    <path d="M 103.33993 221.252747 
L 103.271825 221.246279 
L 101.826154 221.106585 
L 101.808269 221.104788 
L 101.733069 221.0976 
L 99.051759 220.841724 
L 98.422838 220.784764 
L 96.685436 220.620812 
L 96.287888 220.585317 
L 95.03086 220.473196 
L 94.333081 220.411009 
L 93.516812 220.335425 
L 91.649673 220.171386 
L 91.52282 220.159768 
L 91.102118 220.12332 
L 90.710452 220.089042 
L 90.687434 220.087268 
L 88.646803 219.910014 
L 88.506593 219.899318 
L 87.712023 219.830817 
L 87.515713 219.815916 
L 85.713138 219.661667 
L 85.409754 219.638878 
L 84.712258 219.579635 
L 84.347571 219.552378 
L 82.776453 219.419915 
L 82.314298 219.385729 
L 81.711202 219.335255 
L 81.182878 219.296369 
L 79.836846 219.18454 
L 79.220177 219.139614 
L 78.708899 219.097447 
L 78.021509 219.047616 
L 76.894414 218.955332 
L 76.127344 218.900288 
L 75.705391 218.865989 
L 74.863345 218.805861 
L 73.949249 218.732092 
L 73.035754 218.667516 
L 72.700718 218.640672 
L 71.708274 218.570857 
L 71.001439 218.514627 
L 69.945366 218.441075 
L 69.694919 218.421293 
L 68.556187 218.34237 
L 68.051067 218.302754 
L 66.856138 218.220752 
L 66.688029 218.207661 
L 65.406983 218.120173 
L 65.098214 218.096297 
L 63.768033 218.006343 
L 63.680084 217.99959 
L 62.260562 217.904054 
L 62.142957 217.895087 
L 60.681013 217.797652 
L 60.671117 217.796903 
L 60.283611 217.7712 
L 59.185764 217.698105 
L 59.117006 217.694189 
L 57.661391 217.598219 
L 57.62857 217.596224 
L 57.62857 217.7712 
L 57.62857 221.0976 
L 57.62857 224.424 
L 57.62857 227.7504 
L 57.62857 231.0768 
L 57.62857 234.4032 
L 57.62857 237.7296 
L 57.62857 241.056 
L 57.62857 244.3824 
L 57.62857 247.045817 
L 57.910722 247.092836 
L 58.601082 247.21037 
L 59.530976 247.36636 
L 59.765214 247.405669 
L 61.527514 247.7088 
L 62.092277 247.805944 
L 62.358981 247.852828 
L 62.563725 247.888829 
L 64.647505 248.25102 
L 66.139952 248.516148 
L 67.079372 248.68308 
L 67.212612 248.706875 
L 67.229466 248.710018 
L 69.197775 249.063386 
L 69.453243 249.111367 
L 70.159116 249.238765 
L 70.553098 249.313005 
L 72.009787 249.577312 
L 72.61072 249.691395 
L 73.1036 249.781305 
L 73.883042 249.929771 
L 74.817277 250.101111 
L 75.770596 250.284068 
L 76.045996 250.334852 
L 77.219534 250.560834 
L 77.620098 250.6351 
L 78.932958 250.889845 
L 78.986232 250.899776 
L 79.68178 251.0352 
L 80.418578 251.178568 
L 80.563398 251.207988 
L 81.924543 251.474854 
L 82.098107 251.510308 
L 83.213529 251.729739 
L 83.915907 251.874017 
L 84.860695 252.061309 
L 85.26596 252.145022 
L 86.003521 252.291735 
L 87.275732 252.556016 
L 87.794521 252.660016 
L 88.436547 252.794142 
L 88.788388 252.86492 
L 90.643166 253.254626 
L 90.725941 253.271409 
L 91.27446 253.38732 
L 91.500508 253.434803 
L 91.695309 253.476653 
L 93.280376 253.813226 
L 93.631795 253.887887 
L 95.692831 254.335793 
L 95.738953 254.3457 
L 95.749107 254.347882 
L 95.811496 254.3616 
L 97.861112 254.810502 
L 98.190725 254.884327 
L 99.727809 255.228804 
L 99.959098 255.280055 
L 100.205415 255.33588 
L 100.716935 255.451071 
L 100.800509 255.470617 
L 102.640966 255.8875 
L 103.015043 255.975704 
L 103.33993 256.049157 
L 103.33993 254.3616 
L 103.33993 251.0352 
L 103.33993 247.7088 
L 103.33993 244.3824 
L 103.33993 241.056 
L 103.33993 237.7296 
L 103.33993 234.4032 
L 103.33993 231.0768 
L 103.33993 227.7504 
L 103.33993 224.424 
" clip-path="url(#pb1a1760227)" style="fill: #ff9400"/>
   </g>
   <g id="PathCollection_9">
    <path d="M 103.33993 256.049157 
L 103.015043 255.975704 
L 102.640966 255.8875 
L 100.800509 255.470617 
L 100.716935 255.451071 
L 100.205415 255.33588 
L 99.959098 255.280055 
L 99.727809 255.228804 
L 98.190725 254.884327 
L 97.861112 254.810502 
L 95.811496 254.3616 
L 95.749107 254.347882 
L 95.738953 254.3457 
L 95.692831 254.335793 
L 93.631795 253.887887 
L 93.280376 253.813226 
L 91.695309 253.476653 
L 91.500508 253.434803 
L 91.27446 253.38732 
L 90.725941 253.271409 
L 90.643166 253.254626 
L 88.788388 252.86492 
L 88.436547 252.794142 
L 87.794521 252.660016 
L 87.275732 252.556016 
L 86.003521 252.291735 
L 85.26596 252.145022 
L 84.860695 252.061309 
L 83.915907 251.874017 
L 83.213529 251.729739 
L 82.098107 251.510308 
L 81.924543 251.474854 
L 80.563398 251.207988 
L 80.418578 251.178568 
L 79.68178 251.0352 
L 78.986232 250.899776 
L 78.932958 250.889845 
L 77.620098 250.6351 
L 77.219534 250.560834 
L 76.045996 250.334852 
L 75.770596 250.284068 
L 74.817277 250.101111 
L 73.883042 249.929771 
L 73.1036 249.781305 
L 72.61072 249.691395 
L 72.009787 249.577312 
L 70.553098 249.313005 
L 70.159116 249.238765 
L 69.453243 249.111367 
L 69.197775 249.063386 
L 67.229466 248.710018 
L 67.212612 248.706875 
L 67.079372 248.68308 
L 66.139952 248.516148 
L 64.647505 248.25102 
L 62.563725 247.888829 
L 62.358981 247.852828 
L 62.092277 247.805944 
L 61.527514 247.7088 
L 59.765214 247.405669 
L 59.530976 247.36636 
L 58.601082 247.21037 
L 57.910722 247.092836 
L 57.62857 247.045817 
L 57.62857 247.7088 
L 57.62857 251.0352 
L 57.62857 254.3616 
L 57.62857 257.688 
L 57.62857 261.0144 
L 57.62857 264.3408 
L 57.62857 267.6672 
L 57.62857 270.9936 
L 57.62857 274.32 
L 57.62857 276.677655 
L 57.80418 276.720857 
L 58.852201 276.991298 
L 59.389862 277.12774 
L 60.63911 277.452009 
L 60.709474 277.469946 
L 61.387088 277.6464 
L 62.112648 277.836454 
L 62.311086 277.889554 
L 63.612242 278.232345 
L 63.846543 278.295325 
L 64.830734 278.555429 
L 65.781086 278.812076 
L 66.512765 279.006579 
L 67.056929 279.154207 
L 67.544338 279.284189 
L 69.258839 279.751521 
L 69.411096 279.792367 
L 70.163905 279.99852 
L 70.308734 280.038473 
L 71.891807 280.475609 
L 72.183912 280.556414 
L 73.671482 280.9728 
L 74.129967 281.101106 
L 74.219488 281.126447 
L 74.714616 281.266881 
L 76.068756 281.649391 
L 76.539748 281.783997 
L 77.10928 281.94708 
L 78.350834 282.303839 
L 78.595559 282.375601 
L 79.287605 282.575409 
L 79.758051 282.713843 
L 81.040098 283.085733 
L 81.82163 283.317148 
L 82.174764 283.420079 
L 83.279326 283.748303 
L 83.724323 283.878629 
L 85.050854 284.275319 
L 85.059437 284.277845 
L 85.130593 284.2992 
L 86.403302 284.682977 
L 86.812552 284.808853 
L 87.941136 285.151292 
L 88.284628 285.257465 
L 89.077047 285.498752 
L 90.358339 285.896823 
L 90.820249 286.038365 
L 91.521779 286.25741 
L 91.745448 286.326193 
L 92.781336 286.65132 
L 93.500906 286.877809 
L 95.489527 287.51094 
L 95.65144 287.562365 
L 95.754916 287.595266 
L 95.771816 287.600651 
L 95.84922 287.6256 
L 97.61754 288.194963 
L 98.00107 288.319826 
L 98.859196 288.59988 
L 99.717549 288.880781 
L 99.911811 288.945569 
L 100.628469 289.181322 
L 101.073358 289.330272 
L 102.363657 289.756891 
L 103.164381 290.026783 
L 103.33993 290.08581 
L 103.33993 287.6256 
L 103.33993 284.2992 
L 103.33993 280.9728 
L 103.33993 277.6464 
L 103.33993 274.32 
L 103.33993 270.9936 
L 103.33993 267.6672 
L 103.33993 264.3408 
L 103.33993 261.0144 
L 103.33993 257.688 
" clip-path="url(#pb1a1760227)" style="fill: #ff3800"/>
   </g>
   <g id="PathCollection_10">
    <path d="M 103.33993 290.08581 
L 103.164381 290.026783 
L 102.363657 289.756891 
L 101.073358 289.330272 
L 100.628469 289.181322 
L 99.911811 288.945569 
L 99.717549 288.880781 
L 98.859196 288.59988 
L 98.00107 288.319826 
L 97.61754 288.194963 
L 95.84922 287.6256 
L 95.771816 287.600651 
L 95.754916 287.595266 
L 95.65144 287.562365 
L 95.489527 287.51094 
L 93.500906 286.877809 
L 92.781336 286.65132 
L 91.745448 286.326193 
L 91.521779 286.25741 
L 90.820249 286.038365 
L 90.358339 285.896823 
L 89.077047 285.498752 
L 88.284628 285.257465 
L 87.941136 285.151292 
L 86.812552 284.808853 
L 86.403302 284.682977 
L 85.130593 284.2992 
L 85.059437 284.277845 
L 85.050854 284.275319 
L 83.724323 283.878629 
L 83.279326 283.748303 
L 82.174764 283.420079 
L 81.82163 283.317148 
L 81.040098 283.085733 
L 79.758051 282.713843 
L 79.287605 282.575409 
L 78.595559 282.375601 
L 78.350834 282.303839 
L 77.10928 281.94708 
L 76.539748 281.783997 
L 76.068756 281.649391 
L 74.714616 281.266881 
L 74.219488 281.126447 
L 74.129967 281.101106 
L 73.671482 280.9728 
L 72.183912 280.556414 
L 71.891807 280.475609 
L 70.308734 280.038473 
L 70.163905 279.99852 
L 69.411096 279.792367 
L 69.258839 279.751521 
L 67.544338 279.284189 
L 67.056929 279.154207 
L 66.512765 279.006579 
L 65.781086 278.812076 
L 64.830734 278.555429 
L 63.846543 278.295325 
L 63.612242 278.232345 
L 62.311086 277.889554 
L 62.112648 277.836454 
L 61.387088 277.6464 
L 60.709474 277.469946 
L 60.63911 277.452009 
L 59.389862 277.12774 
L 58.852201 276.991298 
L 57.80418 276.720857 
L 57.62857 276.677655 
L 57.62857 277.6464 
L 57.62857 280.9728 
L 57.62857 284.2992 
L 57.62857 287.6256 
L 57.62857 290.952 
L 57.62857 294.2784 
L 57.62857 297.6048 
L 57.62857 300.9312 
L 57.62857 304.2576 
L 57.62857 307.584 
L 59.152282 307.584 
L 60.675994 307.584 
L 62.199706 307.584 
L 63.723418 307.584 
L 65.24713 307.584 
L 66.770842 307.584 
L 68.294554 307.584 
L 69.818266 307.584 
L 71.341978 307.584 
L 72.86569 307.584 
L 74.389402 307.584 
L 75.913114 307.584 
L 77.436826 307.584 
L 78.960538 307.584 
L 80.48425 307.584 
L 82.007962 307.584 
L 83.531674 307.584 
L 85.055386 307.584 
L 86.579098 307.584 
L 88.10281 307.584 
L 89.626522 307.584 
L 91.150234 307.584 
L 92.673946 307.584 
L 94.197658 307.584 
L 95.72137 307.584 
L 97.245082 307.584 
L 98.768794 307.584 
L 100.292506 307.584 
L 101.816218 307.584 
L 103.33993 307.584 
L 103.33993 304.2576 
L 103.33993 300.9312 
L 103.33993 297.6048 
L 103.33993 294.2784 
L 103.33993 290.952 
" clip-path="url(#pb1a1760227)" style="fill: #b60000"/>
   </g>
   <g id="PathCollection_11">
    <path clip-path="url(#pb1a1760227)" style="fill: #0000b6"/>
   </g>
   <g id="PathCollection_12">
    <path clip-path="url(#pb1a1760227)" style="fill: #0018ff"/>
   </g>
   <g id="PathCollection_13">
    <path clip-path="url(#pb1a1760227)" style="fill: #0080ff"/>
   </g>
   <g id="PathCollection_14">
    <path d="M 100.4544 86.349087 
L 100.608259 86.231041 
L 101.096889 85.824 
L 105.258796 82.218379 
L 108.160172 79.55168 
L 110.115811 77.66473 
L 110.866421 76.9536 
L 111.575047 76.202416 
L 112.70318 75.068048 
L 113.431654 74.35552 
L 113.865614 73.90915 
L 114.841982 72.850117 
L 117.419985 70.136537 
L 119.298717 68.0832 
L 121.963745 65.042487 
L 124.658718 61.81088 
L 126.185461 59.869557 
L 126.721617 59.2128 
L 127.714782 57.861876 
L 128.699895 56.61472 
L 129.491178 55.550439 
L 132.422959 51.427927 
L 132.962662 50.684687 
L 133.203934 50.3424 
L 136.480897 45.469151 
L 137.383662 44.07008 
L 138.200973 42.709813 
L 138.992166 41.472 
L 132.83328 41.472 
L 124.73856 41.472 
L 116.64384 41.472 
L 108.54912 41.472 
L 100.4544 41.472 
L 100.4544 50.3424 
L 100.4544 59.2128 
L 100.4544 68.0832 
L 100.4544 76.9536 
L 100.4544 85.824 
" clip-path="url(#pb1a1760227)" style="fill: #00e4f8"/>
   </g>
   <g id="PathCollection_15">
    <path d="M 138.992166 41.472 
L 138.200973 42.709813 
L 137.383662 44.07008 
L 136.480897 45.469151 
L 133.203934 50.3424 
L 132.962662 50.684687 
L 132.422959 51.427927 
L 129.491178 55.550439 
L 128.699895 56.61472 
L 127.714782 57.861876 
L 126.721617 59.2128 
L 126.185461 59.869557 
L 124.658718 61.81088 
L 121.963745 65.042487 
L 119.298717 68.0832 
L 117.419985 70.136537 
L 114.841982 72.850117 
L 113.865614 73.90915 
L 113.431654 74.35552 
L 112.70318 75.068048 
L 111.575047 76.202416 
L 110.866421 76.9536 
L 110.115811 77.66473 
L 108.160172 79.55168 
L 105.258796 82.218379 
L 101.096889 85.824 
L 100.608259 86.231041 
L 100.4544 86.349087 
L 100.4544 94.6944 
L 100.4544 103.5648 
L 100.4544 112.4352 
L 100.4544 121.3056 
L 100.4544 130.176 
L 100.4544 139.0464 
L 100.4544 140.343179 
L 100.893256 140.207418 
L 104.082249 139.0464 
L 107.408855 137.796869 
L 111.103669 136.247061 
L 115.005807 134.712891 
L 118.920678 133.022895 
L 119.156585 132.92953 
L 119.507874 132.77408 
L 124.964074 130.278362 
L 125.031708 130.248774 
L 125.182149 130.176 
L 125.609342 129.959829 
L 130.478147 127.57792 
L 134.428887 125.52687 
L 139.852569 122.484084 
L 141.295914 121.70877 
L 141.97694 121.3056 
L 147.69461 117.792009 
L 151.233022 115.458121 
L 151.583044 115.240868 
L 151.888551 115.03328 
L 152.769058 114.408956 
L 154.748772 113.02322 
L 155.629052 112.4352 
L 156.19781 112.017774 
L 159.152569 109.83712 
L 161.317264 108.167074 
L 164.467799 105.534049 
L 165.612098 104.622858 
L 166.863276 103.5648 
L 170.43404 100.416669 
L 173.720771 97.29248 
L 175.376582 95.63385 
L 176.326031 94.6944 
L 178.511505 92.331991 
L 178.742685 92.09632 
L 178.887982 91.939914 
L 179.245423 91.528288 
L 182.280059 88.148014 
L 184.269686 85.824 
L 186.739622 82.80314 
L 189.234042 79.55168 
L 190.706502 77.502908 
L 191.1159 76.9536 
L 191.416728 76.47686 
L 191.809134 75.9038 
L 192.929168 74.35552 
L 193.904218 72.913486 
L 196.988388 68.0832 
L 197.359795 67.471429 
L 198.661175 65.252097 
L 200.416612 62.309133 
L 200.698221 61.81088 
L 200.925931 61.373314 
L 201.568196 60.234982 
L 202.192729 59.2128 
L 202.841364 57.921712 
L 203.545882 56.61472 
L 206.311712 51.028334 
L 206.635404 50.3424 
L 207.543287 48.306874 
L 209.513769 44.07008 
L 209.818721 43.347975 
L 210.623128 41.472 
L 205.68576 41.472 
L 197.59104 41.472 
L 189.49632 41.472 
L 181.4016 41.472 
L 173.30688 41.472 
L 165.21216 41.472 
L 157.11744 41.472 
L 149.02272 41.472 
L 140.928 41.472 
" clip-path="url(#pb1a1760227)" style="fill: #53ffa4"/>
   </g>
   <g id="PathCollection_16">
    <path d="M 210.623128 41.472 
L 209.818721 43.347975 
L 209.513769 44.07008 
L 207.543287 48.306874 
L 206.635404 50.3424 
L 206.311712 51.028334 
L 203.545882 56.61472 
L 202.841364 57.921712 
L 202.192729 59.2128 
L 201.568196 60.234982 
L 200.925931 61.373314 
L 200.698221 61.81088 
L 200.416612 62.309133 
L 198.661175 65.252097 
L 197.359795 67.471429 
L 196.988388 68.0832 
L 193.904218 72.913486 
L 192.929168 74.35552 
L 191.809134 75.9038 
L 191.416728 76.47686 
L 191.1159 76.9536 
L 190.706502 77.502908 
L 189.234042 79.55168 
L 186.739622 82.80314 
L 184.269686 85.824 
L 182.280059 88.148014 
L 179.245423 91.528288 
L 178.887982 91.939914 
L 178.742685 92.09632 
L 178.511505 92.331991 
L 176.326031 94.6944 
L 175.376582 95.63385 
L 173.720771 97.29248 
L 170.43404 100.416669 
L 166.863276 103.5648 
L 165.612098 104.622858 
L 164.467799 105.534049 
L 161.317264 108.167074 
L 159.152569 109.83712 
L 156.19781 112.017774 
L 155.629052 112.4352 
L 154.748772 113.02322 
L 152.769058 114.408956 
L 151.888551 115.03328 
L 151.583044 115.240868 
L 151.233022 115.458121 
L 147.69461 117.792009 
L 141.97694 121.3056 
L 141.295914 121.70877 
L 139.852569 122.484084 
L 134.428887 125.52687 
L 130.478147 127.57792 
L 125.609342 129.959829 
L 125.182149 130.176 
L 125.031708 130.248774 
L 124.964074 130.278362 
L 119.507874 132.77408 
L 119.156585 132.92953 
L 118.920678 133.022895 
L 115.005807 134.712891 
L 111.103669 136.247061 
L 107.408855 137.796869 
L 104.082249 139.0464 
L 100.893256 140.207418 
L 100.4544 140.343179 
L 100.4544 147.9168 
L 100.4544 156.7872 
L 100.4544 165.6576 
L 100.4544 174.528 
L 100.4544 183.3984 
L 100.4544 183.577311 
L 100.609323 183.568168 
L 102.604122 183.3984 
L 107.601656 182.968341 
L 110.037856 182.722654 
L 118.891129 181.946779 
L 121.032101 181.716017 
L 129.836728 180.80032 
L 130.407091 180.73972 
L 130.489819 180.727759 
L 134.99291 180.241423 
L 135.824 180.121093 
L 145.10021 179.100013 
L 147.427422 178.748451 
L 150.488324 178.405337 
L 154.074768 177.862237 
L 159.584432 177.231392 
L 164.484099 176.454128 
L 165.878621 176.291159 
L 172.687204 175.207057 
L 173.80452 175.073326 
L 177.057888 174.528 
L 181.134753 173.822041 
L 181.716794 173.694136 
L 187.772789 172.639311 
L 192.120397 171.65247 
L 196.21805 170.895678 
L 199.232697 170.184903 
L 201.360874 169.78868 
L 207.62541 168.25568 
L 210.056457 167.641485 
L 217.231121 165.6576 
L 219.385586 165.039555 
L 220.028874 164.819542 
L 225.424684 163.05952 
L 227.086483 162.497857 
L 227.945784 162.142166 
L 231.514803 160.874277 
L 236.107264 158.932142 
L 239.019599 157.833668 
L 241.265126 156.7872 
L 245.399887 154.777972 
L 247.331302 153.686761 
L 250.142501 152.281628 
L 253.066209 150.51488 
L 255.952323 148.687642 
L 257.099297 147.9168 
L 260.515627 145.452208 
L 260.666426 145.31872 
L 263.793204 142.867651 
L 268.109813 139.0464 
L 269.373303 137.873629 
L 274.094498 132.77408 
L 274.681082 132.099454 
L 275.353432 131.394882 
L 276.30641 130.176 
L 277.933107 128.016268 
L 278.194479 127.57792 
L 279.9685 125.089434 
L 282.422638 121.3056 
L 284.11669 118.548207 
L 285.999477 115.03328 
L 287.154818 112.672074 
L 287.272133 112.4352 
L 287.335221 112.260864 
L 287.417015 112.079313 
L 288.535655 109.83712 
L 289.804996 107.040798 
L 291.190041 103.5648 
L 292.94967 98.860973 
L 293.494403 97.29248 
L 293.590841 96.986128 
L 294.477875 94.6944 
L 295.055298 92.766222 
L 295.201937 92.09632 
L 296.04952 89.321003 
L 297.050401 85.824 
L 298.354074 80.927495 
L 298.680655 79.55168 
L 298.836882 78.76265 
L 299.353512 76.9536 
L 299.537586 76.138147 
L 299.64007 75.509122 
L 299.909188 74.35552 
L 300.669374 70.442541 
L 301.20842 68.0832 
L 301.511282 66.646444 
L 302.440514 61.81088 
L 302.838184 59.219964 
L 302.838877 59.21689 
L 302.839585 59.2128 
L 302.839954 59.208442 
L 302.840457 59.204604 
L 303.33985 56.61472 
L 304.093122 51.734889 
L 304.289807 50.3424 
L 304.52714 48.474303 
L 305.225583 44.07008 
L 305.397448 42.640829 
L 305.552249 41.472 
L 302.8224 41.472 
L 294.72768 41.472 
L 286.63296 41.472 
L 278.53824 41.472 
L 270.44352 41.472 
L 262.3488 41.472 
L 254.25408 41.472 
L 246.15936 41.472 
L 238.06464 41.472 
L 229.96992 41.472 
L 221.8752 41.472 
L 213.78048 41.472 
" clip-path="url(#pb1a1760227)" style="fill: #a4ff53"/>
   </g>
   <g id="PathCollection_17">
    <path d="M 305.552249 41.472 
L 305.397448 42.640829 
L 305.225583 44.07008 
L 304.52714 48.474303 
L 304.289807 50.3424 
L 304.093122 51.734889 
L 303.33985 56.61472 
L 302.840457 59.204604 
L 302.839954 59.208442 
L 302.839585 59.2128 
L 302.838877 59.21689 
L 302.838184 59.219964 
L 302.440514 61.81088 
L 301.511282 66.646444 
L 301.20842 68.0832 
L 300.669374 70.442541 
L 299.909188 74.35552 
L 299.64007 75.509122 
L 299.537586 76.138147 
L 299.353512 76.9536 
L 298.836882 78.76265 
L 298.680655 79.55168 
L 298.354074 80.927495 
L 297.050401 85.824 
L 296.04952 89.321003 
L 295.201937 92.09632 
L 295.055298 92.766222 
L 294.477875 94.6944 
L 293.590841 96.986128 
L 293.494403 97.29248 
L 292.94967 98.860973 
L 291.190041 103.5648 
L 289.804996 107.040798 
L 288.535655 109.83712 
L 287.417015 112.079313 
L 287.335221 112.260864 
L 287.272133 112.4352 
L 287.154818 112.672074 
L 285.999477 115.03328 
L 284.11669 118.548207 
L 282.422638 121.3056 
L 279.9685 125.089434 
L 278.194479 127.57792 
L 277.933107 128.016268 
L 276.30641 130.176 
L 275.353432 131.394882 
L 274.681082 132.099454 
L 274.094498 132.77408 
L 269.373303 137.873629 
L 268.109813 139.0464 
L 263.793204 142.867651 
L 260.666426 145.31872 
L 260.515627 145.452208 
L 257.099297 147.9168 
L 255.952323 148.687642 
L 253.066209 150.51488 
L 250.142501 152.281628 
L 247.331302 153.686761 
L 245.399887 154.777972 
L 241.265126 156.7872 
L 239.019599 157.833668 
L 236.107264 158.932142 
L 231.514803 160.874277 
L 227.945784 162.142166 
L 227.086483 162.497857 
L 225.424684 163.05952 
L 220.028874 164.819542 
L 219.385586 165.039555 
L 217.231121 165.6576 
L 210.056457 167.641485 
L 207.62541 168.25568 
L 201.360874 169.78868 
L 199.232697 170.184903 
L 196.21805 170.895678 
L 192.120397 171.65247 
L 187.772789 172.639311 
L 181.716794 173.694136 
L 181.134753 173.822041 
L 177.057888 174.528 
L 173.80452 175.073326 
L 172.687204 175.207057 
L 165.878621 176.291159 
L 164.484099 176.454128 
L 159.584432 177.231392 
L 154.074768 177.862237 
L 150.488324 178.405337 
L 147.427422 178.748451 
L 145.10021 179.100013 
L 135.824 180.121093 
L 134.99291 180.241423 
L 130.489819 180.727759 
L 130.407091 180.73972 
L 129.836728 180.80032 
L 121.032101 181.716017 
L 118.891129 181.946779 
L 110.037856 182.722654 
L 107.601656 182.968341 
L 102.604122 183.3984 
L 100.609323 183.568168 
L 100.4544 183.577311 
L 100.4544 192.2688 
L 100.4544 201.1392 
L 100.4544 210.0096 
L 100.4544 218.88 
L 100.4544 220.959281 
L 102.552086 221.178698 
L 103.334807 221.246807 
L 105.611303 221.47808 
L 113.545626 222.275102 
L 114.628381 222.418389 
L 118.505852 222.824343 
L 120.488623 223.093211 
L 128.218072 223.937462 
L 131.574226 224.419503 
L 133.988196 224.695005 
L 138.785031 225.40208 
L 142.649886 225.863513 
L 148.666004 226.806688 
L 149.347217 226.891924 
L 154.673068 227.7504 
L 156.809511 228.087836 
L 157.560685 228.236119 
L 164.581351 229.41924 
L 165.949968 229.702312 
L 170.763442 230.537564 
L 177.107746 231.915485 
L 179.648393 232.388607 
L 183.486361 233.265753 
L 184.317454 233.425533 
L 186.794027 234.02272 
L 192.331144 235.334057 
L 197.204413 236.6208 
L 201.338695 237.699956 
L 202.525657 238.055189 
L 206.405213 239.21888 
L 210.350151 240.379842 
L 212.079386 240.990859 
L 215.121988 241.942166 
L 220.404625 243.879707 
L 222.659675 244.631552 
L 224.793687 245.4912 
L 229.303096 247.255321 
L 230.911974 247.983457 
L 234.467047 249.433534 
L 239.249921 251.76352 
L 241.464468 252.818399 
L 244.377714 254.3616 
L 248.861931 256.809128 
L 249.1087 256.95968 
L 256.151799 261.152432 
L 259.096602 263.232 
L 261.681439 264.997541 
L 263.569643 266.46181 
L 265.934143 268.17349 
L 267.480492 269.50432 
L 270.535849 272.060491 
L 270.553179 272.075177 
L 270.579849 272.1024 
L 270.710807 272.223723 
L 273.473561 274.70048 
L 274.974539 276.007594 
L 277.735807 278.849919 
L 278.907877 279.994905 
L 279.789735 280.9728 
L 283.254366 284.675149 
L 285.264217 287.24512 
L 287.172621 289.598245 
L 287.341065 289.8432 
L 287.68686 290.321571 
L 289.292842 292.44128 
L 290.711806 294.243897 
L 293.641623 298.7136 
L 294.340587 299.737676 
L 296.418029 303.185513 
L 297.356432 304.703347 
L 297.497847 304.98592 
L 297.623658 305.224261 
L 298.960687 307.584 
L 302.8224 307.584 
L 310.91712 307.584 
L 319.01184 307.584 
L 327.10656 307.584 
L 335.20128 307.584 
L 343.296 307.584 
L 343.296 298.7136 
L 343.296 289.8432 
L 343.296 280.9728 
L 343.296 272.1024 
L 343.296 263.232 
L 343.296 254.3616 
L 343.296 245.4912 
L 343.296 236.6208 
L 343.296 227.7504 
L 343.296 218.88 
L 343.296 210.0096 
L 343.296 201.1392 
L 343.296 192.2688 
L 343.296 183.3984 
L 343.296 174.528 
L 343.296 165.6576 
L 343.296 156.7872 
L 343.296 147.9168 
L 343.296 139.0464 
L 343.296 130.176 
L 343.296 121.3056 
L 343.296 112.4352 
L 343.296 103.5648 
L 343.296 94.6944 
L 343.296 85.824 
L 343.296 76.9536 
L 343.296 68.0832 
L 343.296 59.2128 
L 343.296 50.3424 
L 343.296 41.472 
L 335.20128 41.472 
L 327.10656 41.472 
L 319.01184 41.472 
L 310.91712 41.472 
" clip-path="url(#pb1a1760227)" style="fill: #f8f500"/>
   </g>
   <g id="PathCollection_18">
    <path d="M 298.960687 307.584 
L 297.623658 305.224261 
L 297.497847 304.98592 
L 297.356432 304.703347 
L 296.418029 303.185513 
L 294.340587 299.737676 
L 293.641623 298.7136 
L 290.711806 294.243897 
L 289.292842 292.44128 
L 287.68686 290.321571 
L 287.341065 289.8432 
L 287.172621 289.598245 
L 285.264217 287.24512 
L 283.254366 284.675149 
L 279.789735 280.9728 
L 278.907877 279.994905 
L 277.735807 278.849919 
L 274.974539 276.007594 
L 273.473561 274.70048 
L 270.710807 272.223723 
L 270.579849 272.1024 
L 270.553179 272.075177 
L 270.535849 272.060491 
L 267.480492 269.50432 
L 265.934143 268.17349 
L 263.569643 266.46181 
L 261.681439 264.997541 
L 259.096602 263.232 
L 256.151799 261.152432 
L 249.1087 256.95968 
L 248.861931 256.809128 
L 244.377714 254.3616 
L 241.464468 252.818399 
L 239.249921 251.76352 
L 234.467047 249.433534 
L 230.911974 247.983457 
L 229.303096 247.255321 
L 224.793687 245.4912 
L 222.659675 244.631552 
L 220.404625 243.879707 
L 215.121988 241.942166 
L 212.079386 240.990859 
L 210.350151 240.379842 
L 206.405213 239.21888 
L 202.525657 238.055189 
L 201.338695 237.699956 
L 197.204413 236.6208 
L 192.331144 235.334057 
L 186.794027 234.02272 
L 184.317454 233.425533 
L 183.486361 233.265753 
L 179.648393 232.388607 
L 177.107746 231.915485 
L 170.763442 230.537564 
L 165.949968 229.702312 
L 164.581351 229.41924 
L 157.560685 228.236119 
L 156.809511 228.087836 
L 154.673068 227.7504 
L 149.347217 226.891924 
L 148.666004 226.806688 
L 142.649886 225.863513 
L 138.785031 225.40208 
L 133.988196 224.695005 
L 131.574226 224.419503 
L 128.218072 223.937462 
L 120.488623 223.093211 
L 118.505852 222.824343 
L 114.628381 222.418389 
L 113.545626 222.275102 
L 105.611303 221.47808 
L 103.334807 221.246807 
L 102.552086 221.178698 
L 100.4544 220.959281 
L 100.4544 227.7504 
L 100.4544 236.6208 
L 100.4544 245.4912 
L 100.4544 254.3616 
L 100.4544 255.389964 
L 101.645643 255.666994 
L 104.341997 256.271237 
L 107.224815 256.95968 
L 113.015966 258.337117 
L 114.992346 258.862879 
L 118.014709 259.605289 
L 122.554806 260.838987 
L 126.100685 261.739349 
L 131.336716 263.232 
L 132.688712 263.614463 
L 133.016235 263.716019 
L 138.926772 265.424997 
L 144.592998 267.248198 
L 147.204624 268.041876 
L 151.366519 269.432653 
L 151.438552 269.45507 
L 151.58009 269.50432 
L 157.982104 271.709924 
L 159.048037 272.1024 
L 164.825571 274.207879 
L 166.075447 274.70048 
L 167.394615 275.198991 
L 168.423826 275.621825 
L 175.608217 278.450937 
L 181.390664 280.9728 
L 181.40007 280.976847 
L 181.403784 280.978577 
L 187.163059 283.529647 
L 194.756497 287.24512 
L 194.981297 287.353537 
L 199.779507 289.8432 
L 202.528597 291.276255 
L 204.598104 292.44128 
L 209.124422 294.945427 
L 213.325762 297.510618 
L 214.07045 297.946467 
L 215.278765 298.7136 
L 219.485137 301.332692 
L 224.791409 304.98592 
L 225.922159 305.747062 
L 228.455202 307.584 
L 229.96992 307.584 
L 238.06464 307.584 
L 246.15936 307.584 
L 254.25408 307.584 
L 262.3488 307.584 
L 270.44352 307.584 
L 278.53824 307.584 
L 286.63296 307.584 
L 294.72768 307.584 
" clip-path="url(#pb1a1760227)" style="fill: #ff9400"/>
   </g>
   <g id="PathCollection_19">
    <path d="M 228.455202 307.584 
L 225.922159 305.747062 
L 224.791409 304.98592 
L 219.485137 301.332692 
L 215.278765 298.7136 
L 214.07045 297.946467 
L 213.325762 297.510618 
L 209.124422 294.945427 
L 204.598104 292.44128 
L 202.528597 291.276255 
L 199.779507 289.8432 
L 194.981297 287.353537 
L 194.756497 287.24512 
L 187.163059 283.529647 
L 181.403784 280.978577 
L 181.40007 280.976847 
L 181.390664 280.9728 
L 175.608217 278.450937 
L 168.423826 275.621825 
L 167.394615 275.198991 
L 166.075447 274.70048 
L 164.825571 274.207879 
L 159.048037 272.1024 
L 157.982104 271.709924 
L 151.58009 269.50432 
L 151.438552 269.45507 
L 151.366519 269.432653 
L 147.204624 268.041876 
L 144.592998 267.248198 
L 138.926772 265.424997 
L 133.016235 263.716019 
L 132.688712 263.614463 
L 131.336716 263.232 
L 126.100685 261.739349 
L 122.554806 260.838987 
L 118.014709 259.605289 
L 114.992346 258.862879 
L 113.015966 258.337117 
L 107.224815 256.95968 
L 104.341997 256.271237 
L 101.645643 255.666994 
L 100.4544 255.389964 
L 100.4544 263.232 
L 100.4544 272.1024 
L 100.4544 280.9728 
L 100.4544 289.127939 
L 100.959942 289.289214 
L 102.613683 289.8432 
L 106.025322 290.988767 
L 110.185776 292.44128 
L 113.282544 293.526593 
L 114.91162 294.130915 
L 117.96029 295.230857 
L 123.468732 297.32209 
L 125.365786 298.02627 
L 127.104686 298.7136 
L 132.084955 300.693336 
L 133.861783 301.434563 
L 137.204 302.794454 
L 142.273199 304.98592 
L 144.51856 305.954224 
L 148.142107 307.584 
L 149.02272 307.584 
L 157.11744 307.584 
L 165.21216 307.584 
L 173.30688 307.584 
L 181.4016 307.584 
L 189.49632 307.584 
L 197.59104 307.584 
L 205.68576 307.584 
L 213.78048 307.584 
L 221.8752 307.584 
" clip-path="url(#pb1a1760227)" style="fill: #ff3800"/>
   </g>
   <g id="PathCollection_20">
    <path d="M 148.142107 307.584 
L 144.51856 305.954224 
L 142.273199 304.98592 
L 137.204 302.794454 
L 133.861783 301.434563 
L 132.084955 300.693336 
L 127.104686 298.7136 
L 125.365786 298.02627 
L 123.468732 297.32209 
L 117.96029 295.230857 
L 114.91162 294.130915 
L 113.282544 293.526593 
L 110.185776 292.44128 
L 106.025322 290.988767 
L 102.613683 289.8432 
L 100.959942 289.289214 
L 100.4544 289.127939 
L 100.4544 289.8432 
L 100.4544 298.7136 
L 100.4544 307.584 
L 108.54912 307.584 
L 116.64384 307.584 
L 124.73856 307.584 
L 132.83328 307.584 
L 140.928 307.584 
" clip-path="url(#pb1a1760227)" style="fill: #b60000"/>
   </g>
   <g id="matplotlib.axis_1">
    <g id="xtick_1">
     <g id="line2d_1">
      <defs>
       <path id="m1f605eecc7" d="M 0 0 
L 0 3.5 
" style="stroke: #000000; stroke-width: 0.8"/>
      </defs>
      <g>
       <use xlink:href="#m1f605eecc7" x="57.6" y="307.584" style="stroke: #000000; stroke-width: 0.8"/>
      </g>
     </g>
     <g id="text_1">
      <!-- 0.0 -->
      <g transform="translate(51.26875 321.385562) scale(0.1 -0.1)">
       <defs>
        <path id="Calibri-30" d="M 3022 2031 
Q 3022 1566 2948 1181 
Q 2875 797 2704 520 
Q 2534 244 2259 92 
Q 1984 -59 1581 -59 
Q 1200 -59 939 77 
Q 678 213 518 477 
Q 359 741 292 1127 
Q 225 1513 225 2013 
Q 225 2475 300 2861 
Q 375 3247 544 3523 
Q 713 3800 988 3951 
Q 1263 4103 1663 4103 
Q 2047 4103 2308 3967 
Q 2569 3831 2728 3567 
Q 2888 3303 2955 2917 
Q 3022 2531 3022 2031 
z
M 2472 1994 
Q 2472 2297 2450 2537 
Q 2428 2778 2386 2962 
Q 2344 3147 2276 3280 
Q 2209 3413 2115 3498 
Q 2022 3584 1901 3623 
Q 1781 3663 1631 3663 
Q 1366 3663 1200 3538 
Q 1034 3413 939 3194 
Q 844 2975 809 2681 
Q 775 2388 775 2050 
Q 775 1597 822 1280 
Q 869 963 970 763 
Q 1072 563 1230 472 
Q 1388 381 1613 381 
Q 1788 381 1920 437 
Q 2053 494 2148 598 
Q 2244 703 2306 850 
Q 2369 997 2406 1175 
Q 2444 1353 2458 1561 
Q 2472 1769 2472 1994 
z
" transform="scale(0.015625)"/>
        <path id="Calibri-2e" d="M 1144 341 
Q 1144 119 1070 45 
Q 997 -28 803 -28 
Q 616 -28 544 44 
Q 472 116 472 331 
Q 472 553 545 626 
Q 619 700 813 700 
Q 1000 700 1072 628 
Q 1144 556 1144 341 
z
" transform="scale(0.015625)"/>
       </defs>
       <use xlink:href="#Calibri-30"/>
       <use xlink:href="#Calibri-2e" x="50.683594"/>
       <use xlink:href="#Calibri-30" x="75.927734"/>
      </g>
     </g>
    </g>
    <g id="xtick_2">
     <g id="line2d_2">
      <g>
       <use xlink:href="#m1f605eecc7" x="86.1696" y="307.584" style="stroke: #000000; stroke-width: 0.8"/>
      </g>
     </g>
     <g id="text_2">
      <!-- 0.1 -->
      <g transform="translate(79.83835 321.385562) scale(0.1 -0.1)">
       <defs>
        <path id="Calibri-31" d="M 2897 213 
Q 2897 153 2887 112 
Q 2878 72 2862 47 
Q 2847 22 2826 11 
Q 2806 0 2784 0 
L 672 0 
Q 650 0 631 11 
Q 613 22 595 47 
Q 578 72 568 112 
Q 559 153 559 213 
Q 559 269 568 309 
Q 578 350 592 376 
Q 606 403 626 417 
Q 647 431 672 431 
L 1516 431 
L 1516 3506 
L 734 3041 
Q 675 3009 639 3003 
Q 603 2997 581 3017 
Q 559 3038 551 3084 
Q 544 3131 544 3203 
Q 544 3256 548 3293 
Q 553 3331 562 3356 
Q 572 3381 589 3400 
Q 606 3419 634 3438 
L 1566 4034 
Q 1578 4044 1597 4050 
Q 1616 4056 1644 4062 
Q 1672 4069 1709 4070 
Q 1747 4072 1803 4072 
Q 1878 4072 1928 4065 
Q 1978 4059 2006 4048 
Q 2034 4038 2043 4020 
Q 2053 4003 2053 3984 
L 2053 431 
L 2784 431 
Q 2809 431 2831 417 
Q 2853 403 2867 376 
Q 2881 350 2889 309 
Q 2897 269 2897 213 
z
" transform="scale(0.015625)"/>
       </defs>
       <use xlink:href="#Calibri-30"/>
       <use xlink:href="#Calibri-2e" x="50.683594"/>
       <use xlink:href="#Calibri-31" x="75.927734"/>
      </g>
     </g>
    </g>
    <g id="xtick_3">
     <g id="line2d_3">
      <g>
       <use xlink:href="#m1f605eecc7" x="114.7392" y="307.584" style="stroke: #000000; stroke-width: 0.8"/>
      </g>
     </g>
     <g id="text_3">
      <!-- 0.2 -->
      <g transform="translate(108.40795 321.385562) scale(0.1 -0.1)">
       <defs>
        <path id="Calibri-32" d="M 2888 231 
Q 2888 175 2880 131 
Q 2872 88 2858 58 
Q 2844 28 2820 14 
Q 2797 0 2769 0 
L 534 0 
Q 491 0 458 11 
Q 425 22 401 47 
Q 378 72 367 119 
Q 356 166 356 234 
Q 356 297 361 344 
Q 366 391 381 427 
Q 397 463 420 498 
Q 444 534 481 575 
L 1266 1406 
Q 1538 1694 1702 1922 
Q 1866 2150 1955 2337 
Q 2044 2525 2072 2678 
Q 2100 2831 2100 2966 
Q 2100 3100 2056 3220 
Q 2013 3341 1930 3431 
Q 1847 3522 1722 3575 
Q 1597 3628 1434 3628 
Q 1244 3628 1092 3575 
Q 941 3522 827 3459 
Q 713 3397 636 3344 
Q 559 3291 522 3291 
Q 500 3291 483 3303 
Q 466 3316 455 3344 
Q 444 3372 437 3419 
Q 431 3466 431 3531 
Q 431 3578 434 3612 
Q 438 3647 445 3672 
Q 453 3697 465 3719 
Q 478 3741 515 3773 
Q 553 3806 645 3862 
Q 738 3919 877 3973 
Q 1016 4028 1183 4065 
Q 1350 4103 1534 4103 
Q 1828 4103 2048 4020 
Q 2269 3938 2414 3794 
Q 2559 3650 2631 3459 
Q 2703 3269 2703 3053 
Q 2703 2859 2668 2667 
Q 2634 2475 2523 2251 
Q 2413 2028 2203 1754 
Q 1994 1481 1647 1125 
L 1006 456 
L 2766 456 
Q 2791 456 2814 442 
Q 2838 428 2855 400 
Q 2872 372 2880 330 
Q 2888 288 2888 231 
z
" transform="scale(0.015625)"/>
       </defs>
       <use xlink:href="#Calibri-30"/>
       <use xlink:href="#Calibri-2e" x="50.683594"/>
       <use xlink:href="#Calibri-32" x="75.927734"/>
      </g>
     </g>
    </g>
    <g id="xtick_4">
     <g id="line2d_4">
      <g>
       <use xlink:href="#m1f605eecc7" x="143.3088" y="307.584" style="stroke: #000000; stroke-width: 0.8"/>
      </g>
     </g>
     <g id="text_4">
      <!-- 0.3 -->
      <g transform="translate(136.97755 321.385562) scale(0.1 -0.1)">
       <defs>
        <path id="Calibri-33" d="M 2856 1156 
Q 2856 878 2759 654 
Q 2663 431 2481 272 
Q 2300 113 2034 27 
Q 1769 -59 1434 -59 
Q 1231 -59 1054 -26 
Q 878 6 740 51 
Q 603 97 512 145 
Q 422 194 398 216 
Q 375 238 362 259 
Q 350 281 340 312 
Q 331 344 326 389 
Q 322 434 322 500 
Q 322 613 344 656 
Q 366 700 406 700 
Q 434 700 517 650 
Q 600 600 729 542 
Q 859 484 1032 434 
Q 1206 384 1419 384 
Q 1625 384 1781 437 
Q 1938 491 2044 587 
Q 2150 684 2203 817 
Q 2256 950 2256 1106 
Q 2256 1278 2189 1415 
Q 2122 1553 1992 1653 
Q 1863 1753 1673 1806 
Q 1484 1859 1244 1859 
L 859 1859 
Q 834 1859 811 1870 
Q 788 1881 770 1906 
Q 753 1931 742 1972 
Q 731 2013 731 2078 
Q 731 2138 740 2177 
Q 750 2216 767 2239 
Q 784 2263 806 2273 
Q 828 2284 856 2284 
L 1209 2284 
Q 1416 2284 1580 2337 
Q 1744 2391 1858 2491 
Q 1972 2591 2033 2730 
Q 2094 2869 2094 3041 
Q 2094 3166 2053 3280 
Q 2013 3394 1931 3478 
Q 1850 3563 1723 3611 
Q 1597 3659 1431 3659 
Q 1250 3659 1098 3604 
Q 947 3550 828 3487 
Q 709 3425 631 3370 
Q 553 3316 522 3316 
Q 500 3316 483 3323 
Q 466 3331 455 3354 
Q 444 3378 439 3420 
Q 434 3463 434 3531 
Q 434 3578 437 3614 
Q 441 3650 450 3676 
Q 459 3703 471 3725 
Q 484 3747 514 3776 
Q 544 3806 634 3862 
Q 725 3919 858 3973 
Q 991 4028 1164 4065 
Q 1338 4103 1538 4103 
Q 1819 4103 2031 4031 
Q 2244 3959 2386 3828 
Q 2528 3697 2598 3514 
Q 2669 3331 2669 3109 
Q 2669 2919 2619 2755 
Q 2569 2591 2472 2464 
Q 2375 2338 2234 2248 
Q 2094 2159 1909 2125 
L 1909 2119 
Q 2119 2097 2292 2014 
Q 2466 1931 2591 1806 
Q 2716 1681 2786 1514 
Q 2856 1347 2856 1156 
z
" transform="scale(0.015625)"/>
       </defs>
       <use xlink:href="#Calibri-30"/>
       <use xlink:href="#Calibri-2e" x="50.683594"/>
       <use xlink:href="#Calibri-33" x="75.927734"/>
      </g>
     </g>
    </g>
    <g id="xtick_5">
     <g id="line2d_5">
      <g>
       <use xlink:href="#m1f605eecc7" x="171.8784" y="307.584" style="stroke: #000000; stroke-width: 0.8"/>
      </g>
     </g>
     <g id="text_5">
      <!-- 0.4 -->
      <g transform="translate(165.54715 321.385562) scale(0.1 -0.1)">
       <defs>
        <path id="Calibri-34" d="M 3059 1150 
Q 3059 1047 3028 987 
Q 2997 928 2941 928 
L 2484 928 
L 2484 78 
Q 2484 53 2471 36 
Q 2459 19 2428 6 
Q 2397 -6 2347 -12 
Q 2297 -19 2219 -19 
Q 2144 -19 2094 -12 
Q 2044 -6 2014 6 
Q 1984 19 1973 36 
Q 1963 53 1963 78 
L 1963 928 
L 294 928 
Q 256 928 231 937 
Q 206 947 186 972 
Q 166 997 158 1044 
Q 150 1091 150 1166 
Q 150 1225 153 1272 
Q 156 1319 165 1358 
Q 175 1397 190 1433 
Q 206 1469 228 1509 
L 1684 3966 
Q 1700 3991 1729 4009 
Q 1759 4028 1806 4040 
Q 1853 4053 1922 4058 
Q 1991 4063 2084 4063 
Q 2188 4063 2264 4055 
Q 2341 4047 2387 4034 
Q 2434 4022 2459 4001 
Q 2484 3981 2484 3953 
L 2484 1372 
L 2941 1372 
Q 2994 1372 3026 1317 
Q 3059 1263 3059 1150 
z
M 1963 3591 
L 1956 3591 
L 641 1372 
L 1963 1372 
L 1963 3591 
z
" transform="scale(0.015625)"/>
       </defs>
       <use xlink:href="#Calibri-30"/>
       <use xlink:href="#Calibri-2e" x="50.683594"/>
       <use xlink:href="#Calibri-34" x="75.927734"/>
      </g>
     </g>
    </g>
    <g id="xtick_6">
     <g id="line2d_6">
      <g>
       <use xlink:href="#m1f605eecc7" x="200.448" y="307.584" style="stroke: #000000; stroke-width: 0.8"/>
      </g>
     </g>
     <g id="text_6">
      <!-- 0.5 -->
      <g transform="translate(194.11675 321.385562) scale(0.1 -0.1)">
       <defs>
        <path id="Calibri-35" d="M 2869 1300 
Q 2869 975 2759 722 
Q 2650 469 2450 295 
Q 2250 122 1973 31 
Q 1697 -59 1359 -59 
Q 1172 -59 1003 -32 
Q 834 -6 703 33 
Q 572 72 487 109 
Q 403 147 379 169 
Q 356 191 347 209 
Q 338 228 330 254 
Q 322 281 319 322 
Q 316 363 316 419 
Q 316 472 320 514 
Q 325 556 337 582 
Q 350 609 367 621 
Q 384 634 406 634 
Q 438 634 503 595 
Q 569 556 680 511 
Q 791 466 955 425 
Q 1119 384 1344 384 
Q 1553 384 1728 434 
Q 1903 484 2029 590 
Q 2156 697 2228 858 
Q 2300 1019 2300 1250 
Q 2300 1444 2239 1592 
Q 2178 1741 2051 1839 
Q 1925 1938 1731 1986 
Q 1538 2034 1269 2034 
Q 1078 2034 940 2015 
Q 803 1997 684 1997 
Q 597 1997 559 2037 
Q 522 2078 522 2194 
L 522 3841 
Q 522 3944 570 3994 
Q 619 4044 709 4044 
L 2500 4044 
Q 2525 4044 2548 4030 
Q 2572 4016 2587 3987 
Q 2603 3959 2611 3915 
Q 2619 3872 2619 3813 
Q 2619 3700 2587 3637 
Q 2556 3575 2500 3575 
L 991 3575 
L 991 2441 
Q 1100 2456 1214 2459 
Q 1328 2463 1478 2463 
Q 1825 2463 2084 2380 
Q 2344 2297 2517 2145 
Q 2691 1994 2780 1778 
Q 2869 1563 2869 1300 
z
" transform="scale(0.015625)"/>
       </defs>
       <use xlink:href="#Calibri-30"/>
       <use xlink:href="#Calibri-2e" x="50.683594"/>
       <use xlink:href="#Calibri-35" x="75.927734"/>
      </g>
     </g>
    </g>
    <g id="xtick_7">
     <g id="line2d_7">
      <g>
       <use xlink:href="#m1f605eecc7" x="229.0176" y="307.584" style="stroke: #000000; stroke-width: 0.8"/>
      </g>
     </g>
     <g id="text_7">
      <!-- 0.6 -->
      <g transform="translate(222.68635 321.385562) scale(0.1 -0.1)">
       <defs>
        <path id="Calibri-36" d="M 2991 1309 
Q 2991 1044 2909 795 
Q 2828 547 2659 358 
Q 2491 169 2231 55 
Q 1972 -59 1619 -59 
Q 1366 -59 1172 3 
Q 978 66 834 181 
Q 691 297 595 465 
Q 500 634 442 850 
Q 384 1066 359 1322 
Q 334 1578 334 1872 
Q 334 2131 362 2397 
Q 391 2663 462 2909 
Q 534 3156 657 3373 
Q 781 3591 967 3752 
Q 1153 3913 1412 4006 
Q 1672 4100 2016 4100 
Q 2131 4100 2250 4086 
Q 2369 4072 2469 4048 
Q 2569 4025 2637 3997 
Q 2706 3969 2728 3951 
Q 2750 3934 2761 3914 
Q 2772 3894 2778 3870 
Q 2784 3847 2787 3817 
Q 2791 3788 2791 3744 
Q 2791 3688 2789 3647 
Q 2788 3606 2777 3581 
Q 2766 3556 2748 3543 
Q 2731 3531 2703 3531 
Q 2669 3531 2609 3553 
Q 2550 3575 2465 3601 
Q 2381 3628 2261 3650 
Q 2141 3672 1981 3672 
Q 1691 3672 1481 3553 
Q 1272 3434 1139 3234 
Q 1006 3034 942 2770 
Q 878 2506 869 2219 
Q 950 2266 1051 2312 
Q 1153 2359 1273 2396 
Q 1394 2434 1528 2457 
Q 1663 2481 1816 2481 
Q 2144 2481 2369 2392 
Q 2594 2303 2733 2145 
Q 2872 1988 2931 1773 
Q 2991 1559 2991 1309 
z
M 2447 1259 
Q 2447 1441 2411 1589 
Q 2375 1738 2290 1841 
Q 2206 1944 2065 2000 
Q 1925 2056 1719 2056 
Q 1603 2056 1487 2036 
Q 1372 2016 1264 1980 
Q 1156 1944 1057 1895 
Q 959 1847 878 1791 
Q 878 1388 929 1116 
Q 981 844 1079 680 
Q 1178 516 1325 445 
Q 1472 375 1669 375 
Q 1869 375 2016 450 
Q 2163 525 2259 651 
Q 2356 778 2401 936 
Q 2447 1094 2447 1259 
z
" transform="scale(0.015625)"/>
       </defs>
       <use xlink:href="#Calibri-30"/>
       <use xlink:href="#Calibri-2e" x="50.683594"/>
       <use xlink:href="#Calibri-36" x="75.927734"/>
      </g>
     </g>
    </g>
    <g id="xtick_8">
     <g id="line2d_8">
      <g>
       <use xlink:href="#m1f605eecc7" x="257.5872" y="307.584" style="stroke: #000000; stroke-width: 0.8"/>
      </g>
     </g>
     <g id="text_8">
      <!-- 0.7 -->
      <g transform="translate(251.25595 321.385562) scale(0.1 -0.1)">
       <defs>
        <path id="Calibri-37" d="M 2947 3813 
Q 2947 3756 2942 3711 
Q 2938 3666 2930 3623 
Q 2922 3581 2908 3542 
Q 2894 3503 2875 3459 
L 1419 103 
Q 1403 66 1379 42 
Q 1356 19 1320 5 
Q 1284 -9 1228 -14 
Q 1172 -19 1091 -19 
Q 984 -19 925 -9 
Q 866 0 839 20 
Q 813 41 816 70 
Q 819 100 838 141 
L 2369 3572 
L 428 3572 
Q 369 3572 339 3634 
Q 309 3697 309 3809 
Q 309 3869 317 3912 
Q 325 3956 340 3986 
Q 356 4016 378 4030 
Q 400 4044 428 4044 
L 2784 4044 
Q 2828 4044 2861 4034 
Q 2894 4025 2911 3997 
Q 2928 3969 2937 3925 
Q 2947 3881 2947 3813 
z
" transform="scale(0.015625)"/>
       </defs>
       <use xlink:href="#Calibri-30"/>
       <use xlink:href="#Calibri-2e" x="50.683594"/>
       <use xlink:href="#Calibri-37" x="75.927734"/>
      </g>
     </g>
    </g>
    <g id="xtick_9">
     <g id="line2d_9">
      <g>
       <use xlink:href="#m1f605eecc7" x="286.1568" y="307.584" style="stroke: #000000; stroke-width: 0.8"/>
      </g>
     </g>
     <g id="text_9">
      <!-- 0.8 -->
      <g transform="translate(279.82555 321.385562) scale(0.1 -0.1)">
       <defs>
        <path id="Calibri-38" d="M 2981 1038 
Q 2981 775 2887 570 
Q 2794 366 2617 225 
Q 2441 84 2181 12 
Q 1922 -59 1588 -59 
Q 1275 -59 1028 6 
Q 781 72 609 200 
Q 438 328 347 515 
Q 256 703 256 944 
Q 256 1134 318 1293 
Q 381 1453 498 1587 
Q 616 1722 787 1839 
Q 959 1956 1175 2063 
Q 988 2159 844 2267 
Q 700 2375 600 2501 
Q 500 2628 448 2772 
Q 397 2916 397 3084 
Q 397 3297 473 3483 
Q 550 3669 704 3806 
Q 859 3944 1098 4023 
Q 1338 4103 1656 4103 
Q 1963 4103 2186 4029 
Q 2409 3956 2554 3829 
Q 2700 3703 2769 3531 
Q 2838 3359 2838 3163 
Q 2838 3003 2786 2856 
Q 2734 2709 2634 2578 
Q 2534 2447 2389 2333 
Q 2244 2219 2056 2119 
Q 2278 2009 2451 1893 
Q 2625 1778 2742 1645 
Q 2859 1513 2920 1364 
Q 2981 1216 2981 1038 
z
M 2306 3113 
Q 2306 3244 2261 3350 
Q 2216 3456 2128 3531 
Q 2041 3606 1911 3645 
Q 1781 3684 1616 3684 
Q 1278 3684 1104 3531 
Q 931 3378 931 3113 
Q 931 2991 973 2886 
Q 1016 2781 1105 2687 
Q 1194 2594 1330 2505 
Q 1466 2416 1653 2319 
Q 1969 2481 2137 2678 
Q 2306 2875 2306 3113 
z
M 2438 981 
Q 2438 1125 2384 1242 
Q 2331 1359 2223 1461 
Q 2116 1563 1955 1658 
Q 1794 1753 1581 1856 
Q 1384 1759 1236 1662 
Q 1088 1566 992 1462 
Q 897 1359 848 1245 
Q 800 1131 800 994 
Q 800 691 1008 525 
Q 1216 359 1628 359 
Q 2028 359 2233 526 
Q 2438 694 2438 981 
z
" transform="scale(0.015625)"/>
       </defs>
       <use xlink:href="#Calibri-30"/>
       <use xlink:href="#Calibri-2e" x="50.683594"/>
       <use xlink:href="#Calibri-38" x="75.927734"/>
      </g>
     </g>
    </g>
    <g id="xtick_10">
     <g id="line2d_10">
      <g>
       <use xlink:href="#m1f605eecc7" x="314.7264" y="307.584" style="stroke: #000000; stroke-width: 0.8"/>
      </g>
     </g>
     <g id="text_10">
      <!-- 0.9 -->
      <g transform="translate(308.39515 321.385562) scale(0.1 -0.1)">
       <defs>
        <path id="Calibri-39" d="M 2919 2181 
Q 2919 1919 2887 1650 
Q 2856 1381 2781 1132 
Q 2706 884 2579 667 
Q 2453 450 2261 287 
Q 2069 125 1805 33 
Q 1541 -59 1191 -59 
Q 1056 -59 929 -42 
Q 803 -25 701 0 
Q 600 25 531 53 
Q 463 81 431 109 
Q 400 138 386 186 
Q 372 234 372 316 
Q 372 384 376 425 
Q 381 466 390 487 
Q 400 509 417 517 
Q 434 525 459 525 
Q 494 525 556 501 
Q 619 478 714 450 
Q 809 422 937 398 
Q 1066 375 1225 375 
Q 1528 375 1745 492 
Q 1963 609 2100 806 
Q 2238 1003 2306 1262 
Q 2375 1522 2381 1809 
Q 2216 1713 1984 1638 
Q 1753 1563 1453 1563 
Q 1116 1563 886 1655 
Q 656 1747 517 1906 
Q 378 2066 317 2284 
Q 256 2503 256 2763 
Q 256 3031 334 3273 
Q 413 3516 578 3700 
Q 744 3884 1000 3993 
Q 1256 4103 1613 4103 
Q 1866 4103 2061 4039 
Q 2256 3975 2400 3854 
Q 2544 3734 2644 3564 
Q 2744 3394 2805 3178 
Q 2866 2963 2892 2711 
Q 2919 2459 2919 2181 
z
M 2372 2241 
Q 2372 2641 2319 2914 
Q 2266 3188 2162 3356 
Q 2059 3525 1909 3600 
Q 1759 3675 1563 3675 
Q 1359 3675 1215 3601 
Q 1072 3528 980 3404 
Q 888 3281 844 3125 
Q 800 2969 800 2803 
Q 800 2619 839 2466 
Q 878 2313 965 2206 
Q 1053 2100 1193 2042 
Q 1334 1984 1541 1984 
Q 1775 1984 1994 2054 
Q 2213 2125 2372 2241 
z
" transform="scale(0.015625)"/>
       </defs>
       <use xlink:href="#Calibri-30"/>
       <use xlink:href="#Calibri-2e" x="50.683594"/>
       <use xlink:href="#Calibri-39" x="75.927734"/>
      </g>
     </g>
    </g>
    <g id="xtick_11">
     <g id="line2d_11">
      <g>
       <use xlink:href="#m1f605eecc7" x="343.296" y="307.584" style="stroke: #000000; stroke-width: 0.8"/>
      </g>
     </g>
     <g id="text_11">
      <!-- 1.0 -->
      <g transform="translate(336.96475 321.385562) scale(0.1 -0.1)">
       <use xlink:href="#Calibri-31"/>
       <use xlink:href="#Calibri-2e" x="50.683594"/>
       <use xlink:href="#Calibri-30" x="75.927734"/>
      </g>
     </g>
    </g>
    <g id="text_12">
     <!-- $\mathit{p}$ (cm$^2$/cm$^2$) -->
     <g transform="translate(174.148 336.263687) scale(0.1 -0.1)">
      <defs>
       <path id="DejaVuSans-Oblique-70" d="M 3175 2156 
Q 3175 2616 2975 2859 
Q 2775 3103 2400 3103 
Q 2144 3103 1911 2972 
Q 1678 2841 1497 2591 
Q 1319 2344 1212 1994 
Q 1106 1644 1106 1300 
Q 1106 863 1306 627 
Q 1506 391 1875 391 
Q 2147 391 2380 519 
Q 2613 647 2778 891 
Q 2956 1147 3065 1494 
Q 3175 1841 3175 2156 
z
M 1394 2969 
Q 1625 3272 1939 3428 
Q 2253 3584 2638 3584 
Q 3175 3584 3472 3232 
Q 3769 2881 3769 2247 
Q 3769 1728 3584 1258 
Q 3400 788 3053 416 
Q 2822 169 2531 39 
Q 2241 -91 1919 -91 
Q 1547 -91 1294 64 
Q 1041 219 916 525 
L 556 -1331 
L -19 -1331 
L 922 3500 
L 1497 3500 
L 1394 2969 
z
" transform="scale(0.015625)"/>
       <path id="Calibri-20" transform="scale(0.015625)"/>
       <path id="Calibri-28" d="M 1547 4306 
Q 1250 3678 1104 3017 
Q 959 2356 959 1688 
Q 959 1016 1107 356 
Q 1256 -303 1541 -938 
Q 1556 -975 1557 -1001 
Q 1559 -1028 1537 -1045 
Q 1516 -1063 1470 -1070 
Q 1425 -1078 1347 -1078 
Q 1291 -1078 1250 -1075 
Q 1209 -1072 1179 -1062 
Q 1150 -1053 1131 -1040 
Q 1113 -1028 1103 -1013 
Q 934 -694 806 -367 
Q 678 -41 590 296 
Q 503 634 459 979 
Q 416 1325 416 1678 
Q 416 2031 464 2375 
Q 513 2719 602 3058 
Q 691 3397 819 3725 
Q 947 4053 1106 4375 
Q 1109 4388 1123 4397 
Q 1138 4406 1163 4415 
Q 1188 4425 1231 4429 
Q 1275 4434 1344 4434 
Q 1416 4434 1459 4425 
Q 1503 4416 1528 4400 
Q 1553 4384 1556 4359 
Q 1559 4334 1547 4306 
z
" transform="scale(0.015625)"/>
       <path id="Calibri-63" d="M 2500 506 
Q 2500 453 2497 414 
Q 2494 375 2486 348 
Q 2478 322 2467 301 
Q 2456 281 2417 242 
Q 2378 203 2284 145 
Q 2191 88 2073 42 
Q 1956 -3 1818 -31 
Q 1681 -59 1534 -59 
Q 1231 -59 997 41 
Q 763 141 605 333 
Q 447 525 364 804 
Q 281 1084 281 1450 
Q 281 1866 382 2164 
Q 484 2463 661 2653 
Q 838 2844 1077 2936 
Q 1316 3028 1594 3028 
Q 1728 3028 1854 3003 
Q 1981 2978 2087 2937 
Q 2194 2897 2276 2844 
Q 2359 2791 2396 2753 
Q 2434 2716 2448 2694 
Q 2463 2672 2472 2642 
Q 2481 2613 2484 2575 
Q 2488 2538 2488 2481 
Q 2488 2359 2459 2311 
Q 2431 2263 2391 2263 
Q 2344 2263 2283 2314 
Q 2222 2366 2128 2428 
Q 2034 2491 1901 2542 
Q 1769 2594 1588 2594 
Q 1216 2594 1017 2308 
Q 819 2022 819 1478 
Q 819 1206 870 1001 
Q 922 797 1022 659 
Q 1122 522 1267 455 
Q 1413 388 1600 388 
Q 1778 388 1912 444 
Q 2047 500 2145 567 
Q 2244 634 2311 689 
Q 2378 744 2416 744 
Q 2438 744 2453 731 
Q 2469 719 2480 689 
Q 2491 659 2495 614 
Q 2500 569 2500 506 
z
" transform="scale(0.015625)"/>
       <path id="Calibri-6d" d="M 4650 78 
Q 4650 53 4637 36 
Q 4625 19 4597 6 
Q 4569 -6 4519 -12 
Q 4469 -19 4394 -19 
Q 4316 -19 4266 -12 
Q 4216 -6 4186 6 
Q 4156 19 4143 36 
Q 4131 53 4131 78 
L 4131 1788 
Q 4131 1966 4100 2112 
Q 4069 2259 4000 2365 
Q 3931 2472 3825 2528 
Q 3719 2584 3575 2584 
Q 3397 2584 3217 2446 
Q 3038 2309 2822 2044 
L 2822 78 
Q 2822 53 2809 36 
Q 2797 19 2767 6 
Q 2738 -6 2688 -12 
Q 2638 -19 2563 -19 
Q 2491 -19 2439 -12 
Q 2388 -6 2358 6 
Q 2328 19 2317 36 
Q 2306 53 2306 78 
L 2306 1788 
Q 2306 1966 2272 2112 
Q 2238 2259 2169 2365 
Q 2100 2472 1995 2528 
Q 1891 2584 1747 2584 
Q 1569 2584 1387 2446 
Q 1206 2309 994 2044 
L 994 78 
Q 994 53 981 36 
Q 969 19 941 6 
Q 913 -6 863 -12 
Q 813 -19 734 -19 
Q 659 -19 609 -12 
Q 559 -6 529 6 
Q 500 19 489 36 
Q 478 53 478 78 
L 478 2891 
Q 478 2916 487 2933 
Q 497 2950 525 2964 
Q 553 2978 597 2983 
Q 641 2988 713 2988 
Q 781 2988 826 2983 
Q 872 2978 897 2964 
Q 922 2950 933 2933 
Q 944 2916 944 2891 
L 944 2519 
Q 1181 2784 1404 2907 
Q 1628 3031 1856 3031 
Q 2031 3031 2170 2990 
Q 2309 2950 2415 2876 
Q 2522 2803 2597 2701 
Q 2672 2600 2722 2475 
Q 2863 2628 2989 2734 
Q 3116 2841 3233 2906 
Q 3350 2972 3461 3001 
Q 3572 3031 3684 3031 
Q 3956 3031 4140 2936 
Q 4325 2841 4439 2681 
Q 4553 2522 4601 2308 
Q 4650 2094 4650 1856 
L 4650 78 
z
" transform="scale(0.015625)"/>
       <path id="DejaVuSans-32" d="M 1228 531 
L 3431 531 
L 3431 0 
L 469 0 
L 469 531 
Q 828 903 1448 1529 
Q 2069 2156 2228 2338 
Q 2531 2678 2651 2914 
Q 2772 3150 2772 3378 
Q 2772 3750 2511 3984 
Q 2250 4219 1831 4219 
Q 1534 4219 1204 4116 
Q 875 4013 500 3803 
L 500 4441 
Q 881 4594 1212 4672 
Q 1544 4750 1819 4750 
Q 2544 4750 2975 4387 
Q 3406 4025 3406 3419 
Q 3406 3131 3298 2873 
Q 3191 2616 2906 2266 
Q 2828 2175 2409 1742 
Q 1991 1309 1228 531 
z
" transform="scale(0.015625)"/>
       <path id="Calibri-2f" d="M 525 -753 
Q 513 -794 492 -817 
Q 472 -841 440 -853 
Q 409 -866 364 -872 
Q 319 -878 253 -878 
Q 175 -878 123 -867 
Q 72 -856 44 -836 
Q 16 -816 9 -786 
Q 3 -756 22 -716 
L 1913 4469 
Q 1925 4509 1945 4532 
Q 1966 4556 1995 4570 
Q 2025 4584 2072 4589 
Q 2119 4594 2184 4594 
Q 2263 4594 2313 4583 
Q 2363 4572 2391 4553 
Q 2419 4534 2425 4503 
Q 2431 4472 2416 4431 
L 525 -753 
z
" transform="scale(0.015625)"/>
       <path id="Calibri-29" d="M 1522 1678 
Q 1522 1325 1478 979 
Q 1434 634 1346 296 
Q 1259 -41 1132 -367 
Q 1006 -694 838 -1013 
Q 828 -1028 809 -1040 
Q 791 -1053 761 -1062 
Q 731 -1072 690 -1075 
Q 650 -1078 594 -1078 
Q 513 -1078 467 -1070 
Q 422 -1063 401 -1045 
Q 381 -1028 382 -1001 
Q 384 -975 400 -938 
Q 688 -306 834 355 
Q 981 1016 981 1688 
Q 981 2356 834 3017 
Q 688 3678 394 4306 
Q 381 4334 384 4359 
Q 388 4384 413 4400 
Q 438 4416 481 4425 
Q 525 4434 597 4434 
Q 663 4434 706 4429 
Q 750 4425 776 4415 
Q 803 4406 815 4397 
Q 828 4388 834 4375 
Q 1156 3734 1339 3057 
Q 1522 2381 1522 1678 
z
" transform="scale(0.015625)"/>
      </defs>
      <use xlink:href="#DejaVuSans-Oblique-70" transform="translate(0 0.765625)"/>
      <use xlink:href="#Calibri-20" transform="translate(63.476562 0.765625)"/>
      <use xlink:href="#Calibri-28" transform="translate(84.958984 0.765625)"/>
      <use xlink:href="#Calibri-63" transform="translate(115.28125 0.765625)"/>
      <use xlink:href="#Calibri-6d" transform="translate(157.566406 0.765625)"/>
      <use xlink:href="#DejaVuSans-32" transform="translate(238.40625 39.046875) scale(0.7)"/>
      <use xlink:href="#Calibri-2f" transform="translate(285.676758 0.765625)"/>
      <use xlink:href="#Calibri-63" transform="translate(324.299805 0.765625)"/>
      <use xlink:href="#Calibri-6d" transform="translate(366.584961 0.765625)"/>
      <use xlink:href="#DejaVuSans-32" transform="translate(447.424805 39.046875) scale(0.7)"/>
      <use xlink:href="#Calibri-29" transform="translate(494.695312 0.765625)"/>
     </g>
    </g>
   </g>
   <g id="matplotlib.axis_2">
    <g id="ytick_1">
     <g id="line2d_12">
      <defs>
       <path id="m467cd3b83f" d="M 0 0 
L -3.5 0 
" style="stroke: #000000; stroke-width: 0.8"/>
      </defs>
      <g>
       <use xlink:href="#m467cd3b83f" x="57.6" y="275.65056" style="stroke: #000000; stroke-width: 0.8"/>
      </g>
     </g>
     <g id="text_13">
      <!-- 25 -->
      <g transform="translate(40.4625 279.051341) scale(0.1 -0.1)">
       <use xlink:href="#Calibri-32"/>
       <use xlink:href="#Calibri-35" x="50.683594"/>
      </g>
     </g>
    </g>
    <g id="ytick_2">
     <g id="line2d_13">
      <g>
       <use xlink:href="#m467cd3b83f" x="57.6" y="242.38656" style="stroke: #000000; stroke-width: 0.8"/>
      </g>
     </g>
     <g id="text_14">
      <!-- 50 -->
      <g transform="translate(40.4625 245.787341) scale(0.1 -0.1)">
       <use xlink:href="#Calibri-35"/>
       <use xlink:href="#Calibri-30" x="50.683594"/>
      </g>
     </g>
    </g>
    <g id="ytick_3">
     <g id="line2d_14">
      <g>
       <use xlink:href="#m467cd3b83f" x="57.6" y="209.12256" style="stroke: #000000; stroke-width: 0.8"/>
      </g>
     </g>
     <g id="text_15">
      <!-- 75 -->
      <g transform="translate(40.4625 212.523341) scale(0.1 -0.1)">
       <use xlink:href="#Calibri-37"/>
       <use xlink:href="#Calibri-35" x="50.683594"/>
      </g>
     </g>
    </g>
    <g id="ytick_4">
     <g id="line2d_15">
      <g>
       <use xlink:href="#m467cd3b83f" x="57.6" y="175.85856" style="stroke: #000000; stroke-width: 0.8"/>
      </g>
     </g>
     <g id="text_16">
      <!-- 100 -->
      <g transform="translate(35.39375 179.259341) scale(0.1 -0.1)">
       <use xlink:href="#Calibri-31"/>
       <use xlink:href="#Calibri-30" x="50.683594"/>
       <use xlink:href="#Calibri-30" x="101.367188"/>
      </g>
     </g>
    </g>
    <g id="ytick_5">
     <g id="line2d_16">
      <g>
       <use xlink:href="#m467cd3b83f" x="57.6" y="142.59456" style="stroke: #000000; stroke-width: 0.8"/>
      </g>
     </g>
     <g id="text_17">
      <!-- 125 -->
      <g transform="translate(35.39375 145.995341) scale(0.1 -0.1)">
       <use xlink:href="#Calibri-31"/>
       <use xlink:href="#Calibri-32" x="50.683594"/>
       <use xlink:href="#Calibri-35" x="101.367188"/>
      </g>
     </g>
    </g>
    <g id="ytick_6">
     <g id="line2d_17">
      <g>
       <use xlink:href="#m467cd3b83f" x="57.6" y="109.33056" style="stroke: #000000; stroke-width: 0.8"/>
      </g>
     </g>
     <g id="text_18">
      <!-- 150 -->
      <g transform="translate(35.39375 112.731341) scale(0.1 -0.1)">
       <use xlink:href="#Calibri-31"/>
       <use xlink:href="#Calibri-35" x="50.683594"/>
       <use xlink:href="#Calibri-30" x="101.367188"/>
      </g>
     </g>
    </g>
    <g id="ytick_7">
     <g id="line2d_18">
      <g>
       <use xlink:href="#m467cd3b83f" x="57.6" y="76.06656" style="stroke: #000000; stroke-width: 0.8"/>
      </g>
     </g>
     <g id="text_19">
      <!-- 175 -->
      <g transform="translate(35.39375 79.467341) scale(0.1 -0.1)">
       <use xlink:href="#Calibri-31"/>
       <use xlink:href="#Calibri-37" x="50.683594"/>
       <use xlink:href="#Calibri-35" x="101.367188"/>
      </g>
     </g>
    </g>
    <g id="ytick_8">
     <g id="line2d_19">
      <g>
       <use xlink:href="#m467cd3b83f" x="57.6" y="42.80256" style="stroke: #000000; stroke-width: 0.8"/>
      </g>
     </g>
     <g id="text_20">
      <!-- 200 -->
      <g transform="translate(35.39375 46.203341) scale(0.1 -0.1)">
       <use xlink:href="#Calibri-32"/>
       <use xlink:href="#Calibri-30" x="50.683594"/>
       <use xlink:href="#Calibri-30" x="101.367188"/>
      </g>
     </g>
    </g>
    <g id="text_21">
     <!-- $\mathit{Z}$$_{a}$ (nm) -->
     <g transform="translate(29.59375 191.028) rotate(-90) scale(0.1 -0.1)">
      <defs>
       <path id="DejaVuSans-Oblique-5a" d="M 838 4666 
L 4500 4666 
L 4409 4184 
L 794 531 
L 3769 531 
L 3669 0 
L -141 0 
L -50 481 
L 3566 4134 
L 738 4134 
L 838 4666 
z
" transform="scale(0.015625)"/>
       <path id="DejaVuSans-Oblique-61" d="M 3438 1997 
L 3047 0 
L 2472 0 
L 2578 531 
Q 2325 219 2001 64 
Q 1678 -91 1281 -91 
Q 834 -91 548 182 
Q 263 456 263 884 
Q 263 1497 752 1853 
Q 1241 2209 2100 2209 
L 2900 2209 
L 2931 2363 
Q 2938 2388 2941 2417 
Q 2944 2447 2944 2509 
Q 2944 2788 2717 2942 
Q 2491 3097 2081 3097 
Q 1800 3097 1504 3025 
Q 1209 2953 897 2809 
L 997 3341 
Q 1322 3463 1633 3523 
Q 1944 3584 2234 3584 
Q 2853 3584 3176 3315 
Q 3500 3047 3500 2534 
Q 3500 2431 3484 2292 
Q 3469 2153 3438 1997 
z
M 2816 1759 
L 2241 1759 
Q 1534 1759 1195 1570 
Q 856 1381 856 984 
Q 856 709 1029 553 
Q 1203 397 1509 397 
Q 1978 397 2328 733 
Q 2678 1069 2791 1631 
L 2816 1759 
z
" transform="scale(0.015625)"/>
       <path id="Calibri-6e" d="M 2900 78 
Q 2900 53 2887 36 
Q 2875 19 2847 6 
Q 2819 -6 2769 -12 
Q 2719 -19 2644 -19 
Q 2566 -19 2516 -12 
Q 2466 -6 2437 6 
Q 2409 19 2396 36 
Q 2384 53 2384 78 
L 2384 1725 
Q 2384 1966 2346 2112 
Q 2309 2259 2237 2365 
Q 2166 2472 2052 2528 
Q 1938 2584 1788 2584 
Q 1594 2584 1400 2446 
Q 1206 2309 994 2044 
L 994 78 
Q 994 53 981 36 
Q 969 19 941 6 
Q 913 -6 863 -12 
Q 813 -19 734 -19 
Q 659 -19 609 -12 
Q 559 -6 529 6 
Q 500 19 489 36 
Q 478 53 478 78 
L 478 2891 
Q 478 2916 487 2933 
Q 497 2950 525 2964 
Q 553 2978 597 2983 
Q 641 2988 713 2988 
Q 781 2988 826 2983 
Q 872 2978 897 2964 
Q 922 2950 933 2933 
Q 944 2916 944 2891 
L 944 2519 
Q 1181 2784 1417 2907 
Q 1653 3031 1894 3031 
Q 2175 3031 2367 2936 
Q 2559 2841 2678 2681 
Q 2797 2522 2848 2308 
Q 2900 2094 2900 1794 
L 2900 78 
z
" transform="scale(0.015625)"/>
      </defs>
      <use xlink:href="#DejaVuSans-Oblique-5a" transform="translate(0 0.09375)"/>
      <use xlink:href="#DejaVuSans-Oblique-61" transform="translate(69.462891 -16.3125) scale(0.7)"/>
      <use xlink:href="#Calibri-20" transform="translate(115.092773 0.09375)"/>
      <use xlink:href="#Calibri-28" transform="translate(136.575195 0.09375)"/>
      <use xlink:href="#Calibri-6e" transform="translate(166.897461 0.09375)"/>
      <use xlink:href="#Calibri-6d" transform="translate(219.436523 0.09375)"/>
      <use xlink:href="#Calibri-29" transform="translate(299.319336 0.09375)"/>
     </g>
    </g>
   </g>
   <g id="patch_3">
    <path d="M 57.6 307.584 
L 57.6 41.472 
" style="fill: none; stroke: #000000; stroke-width: 0.8; stroke-linejoin: miter; stroke-linecap: square"/>
   </g>
   <g id="patch_4">
    <path d="M 343.296 307.584 
L 343.296 41.472 
" style="fill: none; stroke: #000000; stroke-width: 0.8; stroke-linejoin: miter; stroke-linecap: square"/>
   </g>
   <g id="patch_5">
    <path d="M 57.6 307.584 
L 343.296 307.584 
" style="fill: none; stroke: #000000; stroke-width: 0.8; stroke-linejoin: miter; stroke-linecap: square"/>
   </g>
   <g id="patch_6">
    <path d="M 57.6 41.472 
L 343.296 41.472 
" style="fill: none; stroke: #000000; stroke-width: 0.8; stroke-linejoin: miter; stroke-linecap: square"/>
   </g>
   <g id="text_22">
    <!-- $\lambda$ = 705 nm -->
    <g transform="translate(177.348 35.472) scale(0.1 -0.1)">
     <defs>
      <path id="DejaVuSans-Oblique-3bb" d="M 2350 4316 
L 3125 0 
L 2516 0 
L 2038 2588 
L 328 0 
L -281 0 
L 1903 3356 
L 1794 3975 
Q 1725 4369 1391 4369 
L 1091 4369 
L 1184 4863 
L 1550 4856 
Q 2253 4847 2350 4316 
z
" transform="scale(0.015625)"/>
      <path id="Calibri-3d" d="M 2891 2409 
Q 2891 2284 2855 2236 
Q 2819 2188 2772 2188 
L 409 2188 
Q 363 2188 328 2236 
Q 294 2284 294 2409 
Q 294 2522 325 2575 
Q 356 2628 409 2628 
L 2772 2628 
Q 2828 2628 2859 2575 
Q 2891 2522 2891 2409 
z
M 2891 1194 
Q 2891 1069 2855 1022 
Q 2819 975 2772 975 
L 409 975 
Q 363 975 328 1022 
Q 294 1069 294 1194 
Q 294 1309 325 1362 
Q 356 1416 409 1416 
L 2772 1416 
Q 2828 1416 2859 1362 
Q 2891 1309 2891 1194 
z
" transform="scale(0.015625)"/>
     </defs>
     <use xlink:href="#DejaVuSans-Oblique-3bb" transform="translate(0 0.015625)"/>
     <use xlink:href="#Calibri-20" transform="translate(59.179688 0.015625)"/>
     <use xlink:href="#Calibri-3d" transform="translate(81.787109 0.015625)"/>
     <use xlink:href="#Calibri-20" transform="translate(131.591797 0.015625)"/>
     <use xlink:href="#Calibri-37" transform="translate(154.199219 0.015625)"/>
     <use xlink:href="#Calibri-30" transform="translate(204.882812 0.015625)"/>
     <use xlink:href="#Calibri-35" transform="translate(255.566406 0.015625)"/>
     <use xlink:href="#Calibri-20" transform="translate(306.25 0.015625)"/>
     <use xlink:href="#Calibri-6e" transform="translate(328.857422 0.015625)"/>
     <use xlink:href="#Calibri-6d" transform="translate(381.396484 0.015625)"/>
    </g>
   </g>
  </g>
  <g id="axes_2">
   <g id="patch_7">
    <path d="M 361.152 307.584 
L 374.4576 307.584 
L 374.4576 41.472 
L 361.152 41.472 
z
" style="fill: #ffffff"/>
   </g>
   <g id="QuadMesh_1">
    <path d="M 361.152 307.584 
L 374.4576 307.584 
L 374.4576 280.9728 
L 361.152 280.9728 
L 361.152 307.584 
" clip-path="url(#pfc0c6a570b)" style="fill: #0000b6"/>
    <path d="M 361.152 280.9728 
L 374.4576 280.9728 
L 374.4576 254.3616 
L 361.152 254.3616 
L 361.152 280.9728 
" clip-path="url(#pfc0c6a570b)" style="fill: #0018ff"/>
    <path d="M 361.152 254.3616 
L 374.4576 254.3616 
L 374.4576 227.7504 
L 361.152 227.7504 
L 361.152 254.3616 
" clip-path="url(#pfc0c6a570b)" style="fill: #0080ff"/>
    <path d="M 361.152 227.7504 
L 374.4576 227.7504 
L 374.4576 201.1392 
L 361.152 201.1392 
L 361.152 227.7504 
" clip-path="url(#pfc0c6a570b)" style="fill: #00e4f8"/>
    <path d="M 361.152 201.1392 
L 374.4576 201.1392 
L 374.4576 174.528 
L 361.152 174.528 
L 361.152 201.1392 
" clip-path="url(#pfc0c6a570b)" style="fill: #53ffa4"/>
    <path d="M 361.152 174.528 
L 374.4576 174.528 
L 374.4576 147.9168 
L 361.152 147.9168 
L 361.152 174.528 
" clip-path="url(#pfc0c6a570b)" style="fill: #a4ff53"/>
    <path d="M 361.152 147.9168 
L 374.4576 147.9168 
L 374.4576 121.3056 
L 361.152 121.3056 
L 361.152 147.9168 
" clip-path="url(#pfc0c6a570b)" style="fill: #f8f500"/>
    <path d="M 361.152 121.3056 
L 374.4576 121.3056 
L 374.4576 94.6944 
L 361.152 94.6944 
L 361.152 121.3056 
" clip-path="url(#pfc0c6a570b)" style="fill: #ff9400"/>
    <path d="M 361.152 94.6944 
L 374.4576 94.6944 
L 374.4576 68.0832 
L 361.152 68.0832 
L 361.152 94.6944 
" clip-path="url(#pfc0c6a570b)" style="fill: #ff3800"/>
    <path d="M 361.152 68.0832 
L 374.4576 68.0832 
L 374.4576 41.472 
L 361.152 41.472 
L 361.152 68.0832 
" clip-path="url(#pfc0c6a570b)" style="fill: #b60000"/>
   </g>
   <g id="matplotlib.axis_3"/>
   <g id="matplotlib.axis_4">
    <g id="ytick_9">
     <g id="line2d_20">
      <defs>
       <path id="mae8a59ebe1" d="M 0 0 
L 3.5 0 
" style="stroke: #000000; stroke-width: 0.8"/>
      </defs>
      <g>
       <use xlink:href="#mae8a59ebe1" x="374.4576" y="307.584" style="stroke: #000000; stroke-width: 0.8"/>
      </g>
     </g>
     <g id="text_23">
      <!-- 0 -->
      <g transform="translate(381.4576 310.984781) scale(0.1 -0.1)">
       <use xlink:href="#Calibri-30"/>
      </g>
     </g>
    </g>
    <g id="ytick_10">
     <g id="line2d_21">
      <g>
       <use xlink:href="#mae8a59ebe1" x="374.4576" y="280.9728" style="stroke: #000000; stroke-width: 0.8"/>
      </g>
     </g>
     <g id="text_24">
      <!-- 0.1 -->
      <g transform="translate(381.4576 284.373581) scale(0.1 -0.1)">
       <use xlink:href="#Calibri-30"/>
       <use xlink:href="#Calibri-2e" x="50.683594"/>
       <use xlink:href="#Calibri-31" x="75.927734"/>
      </g>
     </g>
    </g>
    <g id="ytick_11">
     <g id="line2d_22">
      <g>
       <use xlink:href="#mae8a59ebe1" x="374.4576" y="254.3616" style="stroke: #000000; stroke-width: 0.8"/>
      </g>
     </g>
     <g id="text_25">
      <!-- 0.2 -->
      <g transform="translate(381.4576 257.762381) scale(0.1 -0.1)">
       <use xlink:href="#Calibri-30"/>
       <use xlink:href="#Calibri-2e" x="50.683594"/>
       <use xlink:href="#Calibri-32" x="75.927734"/>
      </g>
     </g>
    </g>
    <g id="ytick_12">
     <g id="line2d_23">
      <g>
       <use xlink:href="#mae8a59ebe1" x="374.4576" y="227.7504" style="stroke: #000000; stroke-width: 0.8"/>
      </g>
     </g>
     <g id="text_26">
      <!-- 0.3 -->
      <g transform="translate(381.4576 231.151181) scale(0.1 -0.1)">
       <use xlink:href="#Calibri-30"/>
       <use xlink:href="#Calibri-2e" x="50.683594"/>
       <use xlink:href="#Calibri-33" x="75.927734"/>
      </g>
     </g>
    </g>
    <g id="ytick_13">
     <g id="line2d_24">
      <g>
       <use xlink:href="#mae8a59ebe1" x="374.4576" y="201.1392" style="stroke: #000000; stroke-width: 0.8"/>
      </g>
     </g>
     <g id="text_27">
      <!-- 0.4 -->
      <g transform="translate(381.4576 204.539981) scale(0.1 -0.1)">
       <use xlink:href="#Calibri-30"/>
       <use xlink:href="#Calibri-2e" x="50.683594"/>
       <use xlink:href="#Calibri-34" x="75.927734"/>
      </g>
     </g>
    </g>
    <g id="ytick_14">
     <g id="line2d_25">
      <g>
       <use xlink:href="#mae8a59ebe1" x="374.4576" y="174.528" style="stroke: #000000; stroke-width: 0.8"/>
      </g>
     </g>
     <g id="text_28">
      <!-- 0.5 -->
      <g transform="translate(381.4576 177.928781) scale(0.1 -0.1)">
       <use xlink:href="#Calibri-30"/>
       <use xlink:href="#Calibri-2e" x="50.683594"/>
       <use xlink:href="#Calibri-35" x="75.927734"/>
      </g>
     </g>
    </g>
    <g id="ytick_15">
     <g id="line2d_26">
      <g>
       <use xlink:href="#mae8a59ebe1" x="374.4576" y="147.9168" style="stroke: #000000; stroke-width: 0.8"/>
      </g>
     </g>
     <g id="text_29">
      <!-- 0.6 -->
      <g transform="translate(381.4576 151.317581) scale(0.1 -0.1)">
       <use xlink:href="#Calibri-30"/>
       <use xlink:href="#Calibri-2e" x="50.683594"/>
       <use xlink:href="#Calibri-36" x="75.927734"/>
      </g>
     </g>
    </g>
    <g id="ytick_16">
     <g id="line2d_27">
      <g>
       <use xlink:href="#mae8a59ebe1" x="374.4576" y="121.3056" style="stroke: #000000; stroke-width: 0.8"/>
      </g>
     </g>
     <g id="text_30">
      <!-- 0.7 -->
      <g transform="translate(381.4576 124.706381) scale(0.1 -0.1)">
       <use xlink:href="#Calibri-30"/>
       <use xlink:href="#Calibri-2e" x="50.683594"/>
       <use xlink:href="#Calibri-37" x="75.927734"/>
      </g>
     </g>
    </g>
    <g id="ytick_17">
     <g id="line2d_28">
      <g>
       <use xlink:href="#mae8a59ebe1" x="374.4576" y="94.6944" style="stroke: #000000; stroke-width: 0.8"/>
      </g>
     </g>
     <g id="text_31">
      <!-- 0.8 -->
      <g transform="translate(381.4576 98.095181) scale(0.1 -0.1)">
       <use xlink:href="#Calibri-30"/>
       <use xlink:href="#Calibri-2e" x="50.683594"/>
       <use xlink:href="#Calibri-38" x="75.927734"/>
      </g>
     </g>
    </g>
    <g id="ytick_18">
     <g id="line2d_29">
      <g>
       <use xlink:href="#mae8a59ebe1" x="374.4576" y="68.0832" style="stroke: #000000; stroke-width: 0.8"/>
      </g>
     </g>
     <g id="text_32">
      <!-- 0.9 -->
      <g transform="translate(381.4576 71.483981) scale(0.1 -0.1)">
       <use xlink:href="#Calibri-30"/>
       <use xlink:href="#Calibri-2e" x="50.683594"/>
       <use xlink:href="#Calibri-39" x="75.927734"/>
      </g>
     </g>
    </g>
    <g id="ytick_19">
     <g id="line2d_30">
      <g>
       <use xlink:href="#mae8a59ebe1" x="374.4576" y="41.472" style="stroke: #000000; stroke-width: 0.8"/>
      </g>
     </g>
     <g id="text_33">
      <!-- 1.0 -->
      <g transform="translate(381.4576 44.872781) scale(0.1 -0.1)">
       <use xlink:href="#Calibri-31"/>
       <use xlink:href="#Calibri-2e" x="50.683594"/>
       <use xlink:href="#Calibri-30" x="75.927734"/>
      </g>
     </g>
    </g>
   </g>
   <g id="LineCollection_1"/>
   <g id="patch_8">
    <path d="M 361.152 307.584 
L 367.8048 307.584 
L 374.4576 307.584 
L 374.4576 41.472 
L 367.8048 41.472 
L 361.152 41.472 
L 361.152 307.584 
z
" style="fill: none; stroke: #000000; stroke-width: 0.8; stroke-linejoin: miter; stroke-linecap: square"/>
   </g>
   <g id="text_34">
    <!-- $\mathit{E}_{\mathrm{dis}}$/$\mathit{E}_{\mathrm{i}}$ -->
    <g transform="translate(353.2548 35.472) scale(0.1 -0.1)">
     <defs>
      <path id="DejaVuSans-Oblique-45" d="M 1081 4666 
L 4031 4666 
L 3928 4134 
L 1606 4134 
L 1338 2753 
L 3566 2753 
L 3463 2222 
L 1234 2222 
L 909 531 
L 3284 531 
L 3181 0 
L 172 0 
L 1081 4666 
z
" transform="scale(0.015625)"/>
      <path id="DejaVuSans-64" d="M 2906 2969 
L 2906 4863 
L 3481 4863 
L 3481 0 
L 2906 0 
L 2906 525 
Q 2725 213 2448 61 
Q 2172 -91 1784 -91 
Q 1150 -91 751 415 
Q 353 922 353 1747 
Q 353 2572 751 3078 
Q 1150 3584 1784 3584 
Q 2172 3584 2448 3432 
Q 2725 3281 2906 2969 
z
M 947 1747 
Q 947 1113 1208 752 
Q 1469 391 1925 391 
Q 2381 391 2643 752 
Q 2906 1113 2906 1747 
Q 2906 2381 2643 2742 
Q 2381 3103 1925 3103 
Q 1469 3103 1208 2742 
Q 947 2381 947 1747 
z
" transform="scale(0.015625)"/>
      <path id="DejaVuSans-69" d="M 603 3500 
L 1178 3500 
L 1178 0 
L 603 0 
L 603 3500 
z
M 603 4863 
L 1178 4863 
L 1178 4134 
L 603 4134 
L 603 4863 
z
" transform="scale(0.015625)"/>
      <path id="DejaVuSans-73" d="M 2834 3397 
L 2834 2853 
Q 2591 2978 2328 3040 
Q 2066 3103 1784 3103 
Q 1356 3103 1142 2972 
Q 928 2841 928 2578 
Q 928 2378 1081 2264 
Q 1234 2150 1697 2047 
L 1894 2003 
Q 2506 1872 2764 1633 
Q 3022 1394 3022 966 
Q 3022 478 2636 193 
Q 2250 -91 1575 -91 
Q 1294 -91 989 -36 
Q 684 19 347 128 
L 347 722 
Q 666 556 975 473 
Q 1284 391 1588 391 
Q 1994 391 2212 530 
Q 2431 669 2431 922 
Q 2431 1156 2273 1281 
Q 2116 1406 1581 1522 
L 1381 1569 
Q 847 1681 609 1914 
Q 372 2147 372 2553 
Q 372 3047 722 3315 
Q 1072 3584 1716 3584 
Q 2034 3584 2315 3537 
Q 2597 3491 2834 3397 
z
" transform="scale(0.015625)"/>
     </defs>
     <use xlink:href="#DejaVuSans-Oblique-45" transform="translate(0 0.09375)"/>
     <use xlink:href="#DejaVuSans-64" transform="translate(63.183594 -16.3125) scale(0.7)"/>
     <use xlink:href="#DejaVuSans-69" transform="translate(107.617188 -16.3125) scale(0.7)"/>
     <use xlink:href="#DejaVuSans-73" transform="translate(127.06543 -16.3125) scale(0.7)"/>
     <use xlink:href="#Calibri-2f" transform="translate(166.269531 0.09375)"/>
     <use xlink:href="#DejaVuSans-Oblique-45" transform="translate(204.892578 0.09375)"/>
     <use xlink:href="#DejaVuSans-69" transform="translate(268.076172 -16.3125) scale(0.7)"/>
    </g>
   </g>
  </g>
 </g>
 <defs>
  <clipPath id="pb1a1760227">
   <rect x="57.6" y="41.472" width="285.696" height="266.112"/>
  </clipPath>
  <clipPath id="pfc0c6a570b">
   <rect x="361.152" y="41.472" width="13.3056" height="266.112"/>
  </clipPath>
 </defs>
</svg>
