<?xml version="1.0" encoding="utf-8" standalone="no"?>
<!DOCTYPE svg PUBLIC "-//W3C//DTD SVG 1.1//EN"
  "http://www.w3.org/Graphics/SVG/1.1/DTD/svg11.dtd">
<svg xmlns:xlink="http://www.w3.org/1999/xlink" width="460.8pt" height="345.6pt" viewBox="0 0 460.8 345.6" xmlns="http://www.w3.org/2000/svg" version="1.1">
 <metadata>
  <rdf:RDF xmlns:dc="http://purl.org/dc/elements/1.1/" xmlns:cc="http://creativecommons.org/ns#" xmlns:rdf="http://www.w3.org/1999/02/22-rdf-syntax-ns#">
   <cc:Work>
    <dc:type rdf:resource="http://purl.org/dc/dcmitype/StillImage"/>
    <dc:date>2024-01-22T08:49:59.225255</dc:date>
    <dc:format>image/svg+xml</dc:format>
    <dc:creator>
     <cc:Agent>
      <dc:title>Matplotlib v3.7.1, https://matplotlib.org/</dc:title>
     </cc:Agent>
    </dc:creator>
   </cc:Work>
  </rdf:RDF>
 </metadata>
 <defs>
  <style type="text/css">*{stroke-linejoin: round; stroke-linecap: butt}</style>
 </defs>
 <g id="figure_1">
  <g id="patch_1">
   <path d="M 0 345.6 
L 460.8 345.6 
L 460.8 0 
L 0 0 
z
" style="fill: #ffffff"/>
  </g>
  <g id="axes_1">
   <g id="patch_2">
    <path d="M 57.6 307.584 
L 343.296 307.584 
L 343.296 41.472 
L 57.6 41.472 
z
" style="fill: #ffffff"/>
   </g>
   <g id="PathCollection_1">
    <path clip-path="url(#p912cf4f91b)" style="fill: #0000b6"/>
   </g>
   <g id="PathCollection_2">
    <path clip-path="url(#p912cf4f91b)" style="fill: #0018ff"/>
   </g>
   <g id="PathCollection_3">
    <path d="M 57.62857 64.799929 
L 57.635554 64.793612 
L 57.67495 64.7568 
L 58.705427 63.781275 
L 60.135039 62.40468 
L 60.180624 62.360294 
L 60.46922 62.081704 
L 61.132673 61.4304 
L 61.641323 60.925474 
L 62.112731 60.45612 
L 62.909585 59.65373 
L 63.554659 58.993431 
L 63.837854 58.70713 
L 64.426534 58.104 
L 64.982635 57.526584 
L 66.006473 56.446286 
L 66.381763 56.053383 
L 66.666027 55.75188 
L 66.841616 55.566168 
L 67.574877 54.7776 
L 67.901481 54.422158 
L 68.468883 53.80332 
L 69.068755 53.141351 
L 69.6134 52.530933 
L 69.951957 52.155813 
L 70.580034 51.4512 
L 71.080997 50.881455 
L 72.189044 49.601977 
L 72.456598 49.295103 
L 72.625443 49.09908 
L 72.830991 48.861205 
L 73.456872 48.1248 
L 73.731411 47.799385 
L 73.859205 47.645362 
L 74.27391 47.15052 
L 75.041912 46.222888 
L 75.824938 45.263123 
L 75.968299 45.08925 
L 76.205345 44.7984 
L 76.989755 43.822406 
L 78.079952 42.44628 
L 78.259904 42.216281 
L 78.838814 41.472 
L 77.436826 41.472 
L 75.913114 41.472 
L 74.389402 41.472 
L 72.86569 41.472 
L 71.341978 41.472 
L 69.818266 41.472 
L 68.294554 41.472 
L 66.770842 41.472 
L 65.24713 41.472 
L 63.723418 41.472 
L 62.199706 41.472 
L 60.675994 41.472 
L 59.152282 41.472 
L 57.62857 41.472 
L 57.62857 44.7984 
L 57.62857 48.1248 
L 57.62857 51.4512 
L 57.62857 54.7776 
L 57.62857 58.104 
L 57.62857 61.4304 
L 57.62857 64.7568 
" clip-path="url(#p912cf4f91b)" style="fill: #0080ff"/>
   </g>
   <g id="PathCollection_4">
    <path d="M 78.838814 41.472 
L 78.259904 42.216281 
L 78.079952 42.44628 
L 76.989755 43.822406 
L 76.205345 44.7984 
L 75.968299 45.08925 
L 75.824938 45.263123 
L 75.041912 46.222888 
L 74.27391 47.15052 
L 73.859205 47.645362 
L 73.731411 47.799385 
L 73.456872 48.1248 
L 72.830991 48.861205 
L 72.625443 49.09908 
L 72.456598 49.295103 
L 72.189044 49.601977 
L 71.080997 50.881455 
L 70.580034 51.4512 
L 69.951957 52.155813 
L 69.6134 52.530933 
L 69.068755 53.141351 
L 68.468883 53.80332 
L 67.901481 54.422158 
L 67.574877 54.7776 
L 66.841616 55.566168 
L 66.666027 55.75188 
L 66.381763 56.053383 
L 66.006473 56.446286 
L 64.982635 57.526584 
L 64.426534 58.104 
L 63.837854 58.70713 
L 63.554659 58.993431 
L 62.909585 59.65373 
L 62.112731 60.45612 
L 61.641323 60.925474 
L 61.132673 61.4304 
L 60.46922 62.081704 
L 60.180624 62.360294 
L 60.135039 62.40468 
L 58.705427 63.781275 
L 57.67495 64.7568 
L 57.635554 64.793612 
L 57.62857 64.799929 
L 57.62857 68.0832 
L 57.62857 71.4096 
L 57.62857 74.736 
L 57.62857 78.0624 
L 57.62857 81.3888 
L 57.62857 84.7152 
L 57.62857 88.0416 
L 57.62857 91.368 
L 57.62857 94.6944 
L 57.62857 98.0208 
L 57.62857 101.3472 
L 57.62857 104.6736 
L 57.62857 108 
L 57.62857 111.3264 
L 57.62857 112.652044 
L 57.858778 112.5397 
L 58.82364 112.043854 
L 59.35773 111.774912 
L 60.223946 111.3264 
L 60.635139 111.111078 
L 60.726106 111.062286 
L 61.816868 110.490631 
L 62.833247 109.943323 
L 63.403824 109.641997 
L 64.116118 109.256694 
L 64.263406 109.178843 
L 64.640072 108.97428 
L 65.688891 108.399469 
L 66.411196 108 
L 67.296627 107.506466 
L 67.574176 107.348587 
L 68.145479 107.02572 
L 69.117904 106.471048 
L 69.522114 106.234453 
L 70.056361 105.928471 
L 71.027884 105.359295 
L 71.525028 105.073215 
L 72.20175 104.6736 
L 72.798082 104.317277 
L 72.951022 104.223861 
L 73.918371 103.645298 
L 75.228518 102.841733 
L 75.530944 102.659395 
L 76.079229 102.32148 
L 76.204105 102.244678 
L 76.988629 101.752488 
L 77.518709 101.421245 
L 77.548793 101.402574 
L 77.636256 101.3472 
L 78.321159 100.909845 
L 79.164108 100.37292 
L 79.380295 100.233109 
L 79.510137 100.147375 
L 81.011408 99.171635 
L 81.902121 98.578625 
L 82.090474 98.455679 
L 82.743 98.0208 
L 83.345479 97.614321 
L 83.890213 97.238076 
L 84.790639 96.625468 
L 85.400458 96.202114 
L 85.663846 96.022725 
L 86.171609 95.66868 
L 87.006335 95.080736 
L 87.551003 94.6944 
L 88.399006 94.087321 
L 88.706723 93.862658 
L 88.903426 93.72012 
L 90.251769 92.732972 
L 90.997141 92.174864 
L 91.265834 91.977267 
L 92.078613 91.368 
L 92.520334 91.032652 
L 92.996999 90.662746 
L 93.928491 89.94937 
L 94.560366 89.456367 
L 94.771545 89.294447 
L 95.126964 89.01588 
L 96.018135 88.309955 
L 96.354873 88.0416 
L 97.273556 87.302116 
L 97.55964 87.06732 
L 97.673661 86.974007 
L 97.771405 86.892588 
L 99.220084 85.700408 
L 100.273574 84.814978 
L 100.306303 84.787918 
L 100.392717 84.7152 
L 101.416412 83.842389 
L 102.746172 82.685027 
L 102.925461 82.530765 
L 103.33993 82.161008 
L 103.33993 81.3888 
L 103.33993 78.0624 
L 103.33993 74.736 
L 103.33993 71.4096 
L 103.33993 68.0832 
L 103.33993 64.7568 
L 103.33993 61.4304 
L 103.33993 58.104 
L 103.33993 54.7776 
L 103.33993 51.4512 
L 103.33993 48.1248 
L 103.33993 44.7984 
L 103.33993 41.472 
L 101.816218 41.472 
L 100.292506 41.472 
L 98.768794 41.472 
L 97.245082 41.472 
L 95.72137 41.472 
L 94.197658 41.472 
L 92.673946 41.472 
L 91.150234 41.472 
L 89.626522 41.472 
L 88.10281 41.472 
L 86.579098 41.472 
L 85.055386 41.472 
L 83.531674 41.472 
L 82.007962 41.472 
L 80.48425 41.472 
L 78.960538 41.472 
" clip-path="url(#p912cf4f91b)" style="fill: #00e4f8"/>
   </g>
   <g id="PathCollection_5">
    <path d="M 103.33993 82.161008 
L 102.925461 82.530765 
L 102.746172 82.685027 
L 101.416412 83.842389 
L 100.392717 84.7152 
L 100.306303 84.787918 
L 100.273574 84.814978 
L 99.220084 85.700408 
L 97.771405 86.892588 
L 97.673661 86.974007 
L 97.55964 87.06732 
L 97.273556 87.302116 
L 96.354873 88.0416 
L 96.018135 88.309955 
L 95.126964 89.01588 
L 94.771545 89.294447 
L 94.560366 89.456367 
L 93.928491 89.94937 
L 92.996999 90.662746 
L 92.520334 91.032652 
L 92.078613 91.368 
L 91.265834 91.977267 
L 90.997141 92.174864 
L 90.251769 92.732972 
L 88.903426 93.72012 
L 88.706723 93.862658 
L 88.399006 94.087321 
L 87.551003 94.6944 
L 87.006335 95.080736 
L 86.171609 95.66868 
L 85.663846 96.022725 
L 85.400458 96.202114 
L 84.790639 96.625468 
L 83.890213 97.238076 
L 83.345479 97.614321 
L 82.743 98.0208 
L 82.090474 98.455679 
L 81.902121 98.578625 
L 81.011408 99.171635 
L 79.510137 100.147375 
L 79.380295 100.233109 
L 79.164108 100.37292 
L 78.321159 100.909845 
L 77.636256 101.3472 
L 77.548793 101.402574 
L 77.518709 101.421245 
L 76.988629 101.752488 
L 76.204105 102.244678 
L 76.079229 102.32148 
L 75.530944 102.659395 
L 75.228518 102.841733 
L 73.918371 103.645298 
L 72.951022 104.223861 
L 72.798082 104.317277 
L 72.20175 104.6736 
L 71.525028 105.073215 
L 71.027884 105.359295 
L 70.056361 105.928471 
L 69.522114 106.234453 
L 69.117904 106.471048 
L 68.145479 107.02572 
L 67.574176 107.348587 
L 67.296627 107.506466 
L 66.411196 108 
L 65.688891 108.399469 
L 64.640072 108.97428 
L 64.263406 109.178843 
L 64.116118 109.256694 
L 63.403824 109.641997 
L 62.833247 109.943323 
L 61.816868 110.490631 
L 60.726106 111.062286 
L 60.635139 111.111078 
L 60.223946 111.3264 
L 59.35773 111.774912 
L 58.82364 112.043854 
L 57.858778 112.5397 
L 57.62857 112.652044 
L 57.62857 114.6528 
L 57.62857 117.9792 
L 57.62857 121.3056 
L 57.62857 124.632 
L 57.62857 127.9584 
L 57.62857 131.2848 
L 57.62857 134.6112 
L 57.62857 137.9376 
L 57.62857 141.264 
L 57.62857 144.5904 
L 57.62857 147.9168 
L 57.62857 151.2432 
L 57.62857 151.787543 
L 57.727638 151.765336 
L 59.063684 151.436616 
L 59.223638 151.398977 
L 59.852529 151.2432 
L 60.638704 151.046665 
L 60.717181 151.026124 
L 61.958095 150.715743 
L 62.507415 150.571444 
L 63.546317 150.309801 
L 63.919174 150.211477 
L 64.686018 150.018244 
L 65.963057 149.680265 
L 66.450812 149.556503 
L 67.124851 149.377414 
L 67.407078 149.305761 
L 68.962121 148.89108 
L 69.278118 148.806203 
L 69.872546 148.643521 
L 70.823881 148.385296 
L 71.621356 148.169432 
L 71.771205 148.129079 
L 72.537326 147.9168 
L 73.953156 147.522318 
L 75.224716 147.161454 
L 75.662223 147.039154 
L 75.998264 146.94252 
L 76.340747 146.844218 
L 76.41455 146.82212 
L 78.220645 146.301548 
L 78.661075 146.168699 
L 79.228829 146.004415 
L 79.934048 145.791539 
L 80.905185 145.509341 
L 81.890456 145.209705 
L 82.113141 145.14474 
L 83.46641 144.732875 
L 83.581492 144.699158 
L 83.936157 144.5904 
L 84.99325 144.262916 
L 85.125624 144.220214 
L 86.24986 143.871645 
L 87.023052 143.621208 
L 87.868782 143.35697 
L 88.367631 143.194673 
L 88.909561 143.02521 
L 90.595821 142.474331 
L 90.740109 142.428861 
L 91.320862 142.23828 
L 91.486698 142.183967 
L 91.757242 142.092943 
L 93.098066 141.647518 
L 94.233578 141.264 
L 95.115372 140.964298 
L 95.313459 140.895141 
L 96.637696 140.435398 
L 97.058354 140.28972 
L 97.651782 140.08109 
L 97.814063 140.021862 
L 99.457588 139.441301 
L 100.048448 139.223891 
L 100.505776 139.061632 
L 101.462804 138.709133 
L 102.070406 138.492516 
L 103.322897 138.027369 
L 103.33993 138.02108 
L 103.33993 137.9376 
L 103.33993 134.6112 
L 103.33993 131.2848 
L 103.33993 127.9584 
L 103.33993 124.632 
L 103.33993 121.3056 
L 103.33993 117.9792 
L 103.33993 114.6528 
L 103.33993 111.3264 
L 103.33993 108 
L 103.33993 104.6736 
L 103.33993 101.3472 
L 103.33993 98.0208 
L 103.33993 94.6944 
L 103.33993 91.368 
L 103.33993 88.0416 
L 103.33993 84.7152 
" clip-path="url(#p912cf4f91b)" style="fill: #53ffa4"/>
   </g>
   <g id="PathCollection_6">
    <path d="M 103.33993 138.02108 
L 103.322897 138.027369 
L 102.070406 138.492516 
L 101.462804 138.709133 
L 100.505776 139.061632 
L 100.048448 139.223891 
L 99.457588 139.441301 
L 97.814063 140.021862 
L 97.651782 140.08109 
L 97.058354 140.28972 
L 96.637696 140.435398 
L 95.313459 140.895141 
L 95.115372 140.964298 
L 94.233578 141.264 
L 93.098066 141.647518 
L 91.757242 142.092943 
L 91.486698 142.183967 
L 91.320862 142.23828 
L 90.740109 142.428861 
L 90.595821 142.474331 
L 88.909561 143.02521 
L 88.367631 143.194673 
L 87.868782 143.35697 
L 87.023052 143.621208 
L 86.24986 143.871645 
L 85.125624 144.220214 
L 84.99325 144.262916 
L 83.936157 144.5904 
L 83.581492 144.699158 
L 83.46641 144.732875 
L 82.113141 145.14474 
L 81.890456 145.209705 
L 80.905185 145.509341 
L 79.934048 145.791539 
L 79.228829 146.004415 
L 78.661075 146.168699 
L 78.220645 146.301548 
L 76.41455 146.82212 
L 76.340747 146.844218 
L 75.998264 146.94252 
L 75.662223 147.039154 
L 75.224716 147.161454 
L 73.953156 147.522318 
L 72.537326 147.9168 
L 71.771205 148.129079 
L 71.621356 148.169432 
L 70.823881 148.385296 
L 69.872546 148.643521 
L 69.278118 148.806203 
L 68.962121 148.89108 
L 67.407078 149.305761 
L 67.124851 149.377414 
L 66.450812 149.556503 
L 65.963057 149.680265 
L 64.686018 150.018244 
L 63.919174 150.211477 
L 63.546317 150.309801 
L 62.507415 150.571444 
L 61.958095 150.715743 
L 60.717181 151.026124 
L 60.638704 151.046665 
L 59.852529 151.2432 
L 59.223638 151.398977 
L 59.063684 151.436616 
L 57.727638 151.765336 
L 57.62857 151.787543 
L 57.62857 154.5696 
L 57.62857 157.896 
L 57.62857 161.2224 
L 57.62857 164.5488 
L 57.62857 167.8752 
L 57.62857 171.2016 
L 57.62857 174.528 
L 57.62857 177.8544 
L 57.62857 181.1808 
L 57.62857 184.5072 
L 57.62857 185.828308 
L 57.876696 185.814936 
L 58.57622 185.764794 
L 59.696896 185.696142 
L 60.460842 185.641145 
L 60.886197 185.615063 
L 61.719679 185.555142 
L 62.653476 185.497822 
L 63.547711 185.433252 
L 63.895075 185.411909 
L 64.864741 185.341988 
L 65.60856 185.296235 
L 66.635241 185.221877 
L 66.903311 185.205372 
L 68.011458 185.125223 
L 68.562102 185.091282 
L 69.723452 185.006911 
L 69.910885 184.995346 
L 71.159881 184.904732 
L 71.514053 184.882856 
L 72.812366 184.78824 
L 72.917777 184.781722 
L 74.310066 184.680397 
L 74.464363 184.670847 
L 75.902006 184.565744 
L 75.923964 184.564384 
L 76.707242 184.5072 
L 77.413046 184.455287 
L 77.462531 184.451084 
L 78.929325 184.342694 
L 78.992775 184.337293 
L 80.360198 184.236384 
L 80.618389 184.214361 
L 81.933893 184.116824 
L 82.084473 184.103953 
L 83.305545 184.01354 
L 83.776271 183.973222 
L 84.937676 183.886816 
L 85.176993 183.866273 
L 86.249027 183.786625 
L 86.936245 183.727515 
L 87.940647 183.65253 
L 88.270365 183.624108 
L 89.190581 183.555502 
L 90.098384 183.477083 
L 90.942779 183.413822 
L 91.364618 183.377301 
L 92.130142 183.320028 
L 93.262762 183.221761 
L 93.944043 183.170538 
L 94.459781 183.125691 
L 95.067641 183.080051 
L 96.42946 182.961374 
L 96.944408 182.922517 
L 97.555889 182.869106 
L 98.003005 182.835414 
L 99.598562 182.695742 
L 99.943843 182.669591 
L 100.652974 182.607369 
L 100.936158 182.585952 
L 102.770154 182.424671 
L 102.942313 182.411583 
L 103.33993 182.372763 
L 103.33993 181.1808 
L 103.33993 177.8544 
L 103.33993 174.528 
L 103.33993 171.2016 
L 103.33993 167.8752 
L 103.33993 164.5488 
L 103.33993 161.2224 
L 103.33993 157.896 
L 103.33993 154.5696 
L 103.33993 151.2432 
L 103.33993 147.9168 
L 103.33993 144.5904 
L 103.33993 141.264 
" clip-path="url(#p912cf4f91b)" style="fill: #a4ff53"/>
   </g>
   <g id="PathCollection_7">
    <path d="M 103.33993 182.372763 
L 102.942313 182.411583 
L 102.770154 182.424671 
L 100.936158 182.585952 
L 100.652974 182.607369 
L 99.943843 182.669591 
L 99.598562 182.695742 
L 98.003005 182.835414 
L 97.555889 182.869106 
L 96.944408 182.922517 
L 96.42946 182.961374 
L 95.067641 183.080051 
L 94.459781 183.125691 
L 93.944043 183.170538 
L 93.262762 183.221761 
L 92.130142 183.320028 
L 91.364618 183.377301 
L 90.942779 183.413822 
L 90.098384 183.477083 
L 89.190581 183.555502 
L 88.270365 183.624108 
L 87.940647 183.65253 
L 86.936245 183.727515 
L 86.249027 183.786625 
L 85.176993 183.866273 
L 84.937676 183.886816 
L 83.776271 183.973222 
L 83.305545 184.01354 
L 82.084473 184.103953 
L 81.933893 184.116824 
L 80.618389 184.214361 
L 80.360198 184.236384 
L 78.992775 184.337293 
L 78.929325 184.342694 
L 77.462531 184.451084 
L 77.413046 184.455287 
L 76.707242 184.5072 
L 75.923964 184.564384 
L 75.902006 184.565744 
L 74.464363 184.670847 
L 74.310066 184.680397 
L 72.917777 184.781722 
L 72.812366 184.78824 
L 71.514053 184.882856 
L 71.159881 184.904732 
L 69.910885 184.995346 
L 69.723452 185.006911 
L 68.562102 185.091282 
L 68.011458 185.125223 
L 66.903311 185.205372 
L 66.635241 185.221877 
L 65.60856 185.296235 
L 64.864741 185.341988 
L 63.895075 185.411909 
L 63.547711 185.433252 
L 62.653476 185.497822 
L 61.719679 185.555142 
L 60.886197 185.615063 
L 60.460842 185.641145 
L 59.696896 185.696142 
L 58.57622 185.764794 
L 57.876696 185.814936 
L 57.62857 185.828308 
L 57.62857 187.8336 
L 57.62857 191.16 
L 57.62857 194.4864 
L 57.62857 197.8128 
L 57.62857 201.1392 
L 57.62857 204.4656 
L 57.62857 207.792 
L 57.62857 211.1184 
L 57.62857 214.4448 
L 57.62857 216.904014 
L 57.791141 216.914379 
L 58.791418 216.983402 
L 59.493821 217.025589 
L 60.548466 217.099071 
L 60.800626 217.114332 
L 61.935198 217.193756 
L 62.449838 217.225139 
L 63.635715 217.308967 
L 63.809099 217.319621 
L 65.081679 217.410006 
L 65.403454 217.42993 
L 66.724062 217.524652 
L 66.816526 217.530422 
L 68.230955 217.632358 
L 68.354591 217.640132 
L 69.813546 217.746324 
L 69.822873 217.746915 
L 70.154926 217.7712 
L 71.303654 217.854864 
L 71.38332 217.861453 
L 72.828398 217.967745 
L 72.904179 217.974058 
L 74.250887 218.073589 
L 74.538988 218.09776 
L 75.832828 218.194341 
L 75.996015 218.208129 
L 77.195472 218.298097 
L 77.69776 218.340843 
L 78.836091 218.427088 
L 79.089099 218.448775 
L 80.13732 218.528579 
L 80.859751 218.590953 
L 81.838147 218.666198 
L 82.183474 218.69623 
L 83.07634 218.765234 
L 84.025078 218.848347 
L 84.838954 218.911892 
L 85.279189 218.950741 
L 86.012436 219.008273 
L 87.193868 219.1133 
L 87.838467 219.164401 
L 88.37629 219.212565 
L 88.945508 219.257914 
L 90.366252 219.386098 
L 90.836642 219.423965 
L 91.474831 219.481974 
L 91.875451 219.514386 
L 93.542367 219.667042 
L 93.833431 219.690839 
L 94.574865 219.759251 
L 94.802155 219.777927 
L 96.722359 219.95645 
L 96.828781 219.965288 
L 97.676449 220.044695 
L 97.725506 220.04879 
L 98.515053 220.12332 
L 99.720836 220.236701 
L 100.164117 220.280538 
L 101.000942 220.360374 
L 102.475774 220.501186 
L 103.095208 220.563351 
L 103.33993 220.585452 
L 103.33993 217.7712 
L 103.33993 214.4448 
L 103.33993 211.1184 
L 103.33993 207.792 
L 103.33993 204.4656 
L 103.33993 201.1392 
L 103.33993 197.8128 
L 103.33993 194.4864 
L 103.33993 191.16 
L 103.33993 187.8336 
L 103.33993 184.5072 
" clip-path="url(#p912cf4f91b)" style="fill: #f8f500"/>
   </g>
   <g id="PathCollection_8">
    <path d="M 103.33993 220.585452 
L 103.095208 220.563351 
L 102.475774 220.501186 
L 101.000942 220.360374 
L 100.164117 220.280538 
L 99.720836 220.236701 
L 98.515053 220.12332 
L 97.725506 220.04879 
L 97.676449 220.044695 
L 96.828781 219.965288 
L 96.722359 219.95645 
L 94.802155 219.777927 
L 94.574865 219.759251 
L 93.833431 219.690839 
L 93.542367 219.667042 
L 91.875451 219.514386 
L 91.474831 219.481974 
L 90.836642 219.423965 
L 90.366252 219.386098 
L 88.945508 219.257914 
L 88.37629 219.212565 
L 87.838467 219.164401 
L 87.193868 219.1133 
L 86.012436 219.008273 
L 85.279189 218.950741 
L 84.838954 218.911892 
L 84.025078 218.848347 
L 83.07634 218.765234 
L 82.183474 218.69623 
L 81.838147 218.666198 
L 80.859751 218.590953 
L 80.13732 218.528579 
L 79.089099 218.448775 
L 78.836091 218.427088 
L 77.69776 218.340843 
L 77.195472 218.298097 
L 75.996015 218.208129 
L 75.832828 218.194341 
L 74.538988 218.09776 
L 74.250887 218.073589 
L 72.904179 217.974058 
L 72.828398 217.967745 
L 71.38332 217.861453 
L 71.303654 217.854864 
L 70.154926 217.7712 
L 69.822873 217.746915 
L 69.813546 217.746324 
L 68.354591 217.640132 
L 68.230955 217.632358 
L 66.816526 217.530422 
L 66.724062 217.524652 
L 65.403454 217.42993 
L 65.081679 217.410006 
L 63.809099 217.319621 
L 63.635715 217.308967 
L 62.449838 217.225139 
L 61.935198 217.193756 
L 60.800626 217.114332 
L 60.548466 217.099071 
L 59.493821 217.025589 
L 58.791418 216.983402 
L 57.791141 216.914379 
L 57.62857 216.904014 
L 57.62857 217.7712 
L 57.62857 221.0976 
L 57.62857 224.424 
L 57.62857 227.7504 
L 57.62857 231.0768 
L 57.62857 234.4032 
L 57.62857 237.7296 
L 57.62857 241.056 
L 57.62857 244.3824 
L 57.62857 246.578423 
L 58.059065 246.651301 
L 58.109244 246.659445 
L 58.549632 246.73452 
L 59.963193 246.975521 
L 60.462707 247.060717 
L 61.72742 247.281728 
L 62.520836 247.418413 
L 64.169933 247.7088 
L 65.07114 247.867941 
L 65.510847 247.947271 
L 65.854844 248.009351 
L 67.614847 248.323435 
L 69.317613 248.633917 
L 69.587159 248.68308 
L 70.241784 248.803071 
L 70.326977 248.819362 
L 72.198967 249.164315 
L 72.52254 249.22665 
L 73.185534 249.349476 
L 73.659163 249.441023 
L 75.004832 249.69166 
L 75.683263 249.823783 
L 76.127191 249.906915 
L 76.997935 250.077062 
L 77.806022 250.229212 
L 78.846482 250.434074 
L 79.066684 250.475763 
L 80.343545 250.728029 
L 80.602384 250.777302 
L 81.897742 251.0352 
L 82.003952 251.056331 
L 82.012299 251.05806 
L 83.394783 251.334045 
L 83.697443 251.397089 
L 84.939322 251.646907 
L 85.181056 251.697541 
L 86.183056 251.899795 
L 87.05973 252.084463 
L 87.872361 252.249768 
L 88.352559 252.351493 
L 88.966196 252.476751 
L 90.429671 252.788546 
L 90.802986 252.865349 
L 91.526913 253.020467 
L 91.744029 253.065292 
L 93.238255 253.38732 
L 93.65269 253.476555 
L 94.217477 253.598232 
L 95.089679 253.790384 
L 96.107824 254.012143 
L 96.330049 254.060572 
L 97.680645 254.3616 
L 98.431639 254.528343 
L 98.553746 254.55606 
L 99.128108 254.686515 
L 100.524836 255.000265 
L 100.991424 255.107433 
L 101.985422 255.33588 
L 102.807225 255.524541 
L 102.935242 255.555115 
L 103.33993 255.647882 
L 103.33993 254.3616 
L 103.33993 251.0352 
L 103.33993 247.7088 
L 103.33993 244.3824 
L 103.33993 241.056 
L 103.33993 237.7296 
L 103.33993 234.4032 
L 103.33993 231.0768 
L 103.33993 227.7504 
L 103.33993 224.424 
L 103.33993 221.0976 
" clip-path="url(#p912cf4f91b)" style="fill: #ff9400"/>
   </g>
   <g id="PathCollection_9">
    <path d="M 103.33993 255.647882 
L 102.935242 255.555115 
L 102.807225 255.524541 
L 101.985422 255.33588 
L 100.991424 255.107433 
L 100.524836 255.000265 
L 99.128108 254.686515 
L 98.553746 254.55606 
L 98.431639 254.528343 
L 97.680645 254.3616 
L 96.330049 254.060572 
L 96.107824 254.012143 
L 95.089679 253.790384 
L 94.217477 253.598232 
L 93.65269 253.476555 
L 93.238255 253.38732 
L 91.744029 253.065292 
L 91.526913 253.020467 
L 90.802986 252.865349 
L 90.429671 252.788546 
L 88.966196 252.476751 
L 88.352559 252.351493 
L 87.872361 252.249768 
L 87.05973 252.084463 
L 86.183056 251.899795 
L 85.181056 251.697541 
L 84.939322 251.646907 
L 83.697443 251.397089 
L 83.394783 251.334045 
L 82.012299 251.05806 
L 82.003952 251.056331 
L 81.897742 251.0352 
L 80.602384 250.777302 
L 80.343545 250.728029 
L 79.066684 250.475763 
L 78.846482 250.434074 
L 77.806022 250.229212 
L 76.997935 250.077062 
L 76.127191 249.906915 
L 75.683263 249.823783 
L 75.004832 249.69166 
L 73.659163 249.441023 
L 73.185534 249.349476 
L 72.52254 249.22665 
L 72.198967 249.164315 
L 70.326977 248.819362 
L 70.241784 248.803071 
L 69.587159 248.68308 
L 69.317613 248.633917 
L 67.614847 248.323435 
L 65.854844 248.009351 
L 65.510847 247.947271 
L 65.07114 247.867941 
L 64.169933 247.7088 
L 62.520836 247.418413 
L 61.72742 247.281728 
L 60.462707 247.060717 
L 59.963193 246.975521 
L 58.549632 246.73452 
L 58.109244 246.659445 
L 58.059065 246.651301 
L 57.62857 246.578423 
L 57.62857 247.7088 
L 57.62857 251.0352 
L 57.62857 254.3616 
L 57.62857 257.688 
L 57.62857 261.0144 
L 57.62857 264.3408 
L 57.62857 267.6672 
L 57.62857 270.9936 
L 57.62857 274.32 
L 57.62857 276.434886 
L 57.848085 276.489454 
L 58.727282 276.718587 
L 59.487953 276.913599 
L 60.591862 277.202989 
L 60.752287 277.244302 
L 62.188541 277.622028 
L 62.208504 277.627191 
L 62.281109 277.6464 
L 63.654105 278.011711 
L 63.800257 278.051377 
L 64.924207 278.351369 
L 65.66223 278.552601 
L 66.553501 278.791881 
L 67.012012 278.917473 
L 67.635409 279.085372 
L 69.143859 279.50051 
L 69.450699 279.583641 
L 70.226533 279.798151 
L 70.341962 279.829525 
L 70.950267 279.99852 
L 72.073194 280.311587 
L 72.460321 280.419713 
L 74.376591 280.961216 
L 74.396131 280.966715 
L 74.399682 280.967716 
L 74.417504 280.9728 
L 76.332573 281.518918 
L 76.711881 281.628342 
L 77.814597 281.94708 
L 78.432195 282.12622 
L 78.555146 282.162605 
L 79.323444 282.38652 
L 79.652937 282.48437 
L 81.118934 282.913627 
L 81.782701 283.111978 
L 82.209401 283.237525 
L 83.178475 283.528135 
L 83.800623 283.71206 
L 85.01343 284.078073 
L 85.092864 284.101672 
L 85.745048 284.2992 
L 86.477058 284.521961 
L 86.714955 284.595789 
L 87.97342 284.981143 
L 88.248476 285.066924 
L 89.148207 285.343404 
L 90.265227 285.693551 
L 90.851287 285.874784 
L 91.487191 286.075117 
L 91.813999 286.176541 
L 93.313262 286.65132 
L 93.637501 286.75429 
L 94.556354 287.049431 
L 95.373932 287.311424 
L 95.886844 287.475967 
L 95.969917 287.502679 
L 96.347929 287.6256 
L 97.809084 288.100233 
L 98.128062 288.204991 
L 99.327515 288.59988 
L 99.778085 288.748627 
L 99.881013 288.783249 
L 100.655249 289.040179 
L 100.992669 289.15412 
L 102.42147 289.63068 
L 103.135268 289.87334 
L 103.33993 289.942752 
L 103.33993 287.6256 
L 103.33993 284.2992 
L 103.33993 280.9728 
L 103.33993 277.6464 
L 103.33993 274.32 
L 103.33993 270.9936 
L 103.33993 267.6672 
L 103.33993 264.3408 
L 103.33993 261.0144 
L 103.33993 257.688 
" clip-path="url(#p912cf4f91b)" style="fill: #ff3800"/>
   </g>
   <g id="PathCollection_10">
    <path d="M 103.33993 289.942752 
L 103.135268 289.87334 
L 102.42147 289.63068 
L 100.992669 289.15412 
L 100.655249 289.040179 
L 99.881013 288.783249 
L 99.778085 288.748627 
L 99.327515 288.59988 
L 98.128062 288.204991 
L 97.809084 288.100233 
L 96.347929 287.6256 
L 95.969917 287.502679 
L 95.886844 287.475967 
L 95.373932 287.311424 
L 94.556354 287.049431 
L 93.637501 286.75429 
L 93.313262 286.65132 
L 91.813999 286.176541 
L 91.487191 286.075117 
L 90.851287 285.874784 
L 90.265227 285.693551 
L 89.148207 285.343404 
L 88.248476 285.066924 
L 87.97342 284.981143 
L 86.714955 284.595789 
L 86.477058 284.521961 
L 85.745048 284.2992 
L 85.092864 284.101672 
L 85.01343 284.078073 
L 83.800623 283.71206 
L 83.178475 283.528135 
L 82.209401 283.237525 
L 81.782701 283.111978 
L 81.118934 282.913627 
L 79.652937 282.48437 
L 79.323444 282.38652 
L 78.555146 282.162605 
L 78.432195 282.12622 
L 77.814597 281.94708 
L 76.711881 281.628342 
L 76.332573 281.518918 
L 74.417504 280.9728 
L 74.399682 280.967716 
L 74.396131 280.966715 
L 74.376591 280.961216 
L 72.460321 280.419713 
L 72.073194 280.311587 
L 70.950267 279.99852 
L 70.341962 279.829525 
L 70.226533 279.798151 
L 69.450699 279.583641 
L 69.143859 279.50051 
L 67.635409 279.085372 
L 67.012012 278.917473 
L 66.553501 278.791881 
L 65.66223 278.552601 
L 64.924207 278.351369 
L 63.800257 278.051377 
L 63.654105 278.011711 
L 62.281109 277.6464 
L 62.208504 277.627191 
L 62.188541 277.622028 
L 60.752287 277.244302 
L 60.591862 277.202989 
L 59.487953 276.913599 
L 58.727282 276.718587 
L 57.848085 276.489454 
L 57.62857 276.434886 
L 57.62857 277.6464 
L 57.62857 280.9728 
L 57.62857 284.2992 
L 57.62857 287.6256 
L 57.62857 290.952 
L 57.62857 294.2784 
L 57.62857 297.6048 
L 57.62857 300.9312 
L 57.62857 304.2576 
L 57.62857 307.584 
L 59.152282 307.584 
L 60.675994 307.584 
L 62.199706 307.584 
L 63.723418 307.584 
L 65.24713 307.584 
L 66.770842 307.584 
L 68.294554 307.584 
L 69.818266 307.584 
L 71.341978 307.584 
L 72.86569 307.584 
L 74.389402 307.584 
L 75.913114 307.584 
L 77.436826 307.584 
L 78.960538 307.584 
L 80.48425 307.584 
L 82.007962 307.584 
L 83.531674 307.584 
L 85.055386 307.584 
L 86.579098 307.584 
L 88.10281 307.584 
L 89.626522 307.584 
L 91.150234 307.584 
L 92.673946 307.584 
L 94.197658 307.584 
L 95.72137 307.584 
L 97.245082 307.584 
L 98.768794 307.584 
L 100.292506 307.584 
L 101.816218 307.584 
L 103.33993 307.584 
L 103.33993 304.2576 
L 103.33993 300.9312 
L 103.33993 297.6048 
L 103.33993 294.2784 
L 103.33993 290.952 
" clip-path="url(#p912cf4f91b)" style="fill: #b60000"/>
   </g>
   <g id="PathCollection_11">
    <path clip-path="url(#p912cf4f91b)" style="fill: #0000b6"/>
   </g>
   <g id="PathCollection_12">
    <path clip-path="url(#p912cf4f91b)" style="fill: #0018ff"/>
   </g>
   <g id="PathCollection_13">
    <path clip-path="url(#p912cf4f91b)" style="fill: #0080ff"/>
   </g>
   <g id="PathCollection_14">
    <path d="M 100.4544 84.638519 
L 101.123128 84.054843 
L 104.388632 81.264831 
L 106.277443 79.55168 
L 108.859674 77.094562 
L 109.010406 76.9536 
L 109.154116 76.80341 
L 109.38548 76.573972 
L 111.683555 74.35552 
L 113.028139 72.991422 
L 115.984943 69.82635 
L 116.931333 68.84378 
L 117.636495 68.0832 
L 121.140182 64.140006 
L 123.108199 61.81088 
L 125.062709 59.359933 
L 125.184364 59.2128 
L 125.412484 58.906902 
L 127.246738 56.61472 
L 128.7014 54.684981 
L 131.830786 50.3424 
L 132.477831 49.402039 
L 134.111717 46.960224 
L 135.706665 44.620728 
L 136.066687 44.07008 
L 136.396493 43.528877 
L 137.728759 41.472 
L 132.83328 41.472 
L 124.73856 41.472 
L 116.64384 41.472 
L 108.54912 41.472 
L 100.4544 41.472 
L 100.4544 50.3424 
L 100.4544 59.2128 
L 100.4544 68.0832 
L 100.4544 76.9536 
" clip-path="url(#p912cf4f91b)" style="fill: #00e4f8"/>
   </g>
   <g id="PathCollection_15">
    <path d="M 137.728759 41.472 
L 136.396493 43.528877 
L 136.066687 44.07008 
L 135.706665 44.620728 
L 134.111717 46.960224 
L 132.477831 49.402039 
L 131.830786 50.3424 
L 128.7014 54.684981 
L 127.246738 56.61472 
L 125.412484 58.906902 
L 125.184364 59.2128 
L 125.062709 59.359933 
L 123.108199 61.81088 
L 121.140182 64.140006 
L 117.636495 68.0832 
L 116.931333 68.84378 
L 115.984943 69.82635 
L 113.028139 72.991422 
L 111.683555 74.35552 
L 109.38548 76.573972 
L 109.154116 76.80341 
L 109.010406 76.9536 
L 108.859674 77.094562 
L 106.277443 79.55168 
L 104.388632 81.264831 
L 101.123128 84.054843 
L 100.4544 84.638519 
L 100.4544 85.824 
L 100.4544 94.6944 
L 100.4544 103.5648 
L 100.4544 112.4352 
L 100.4544 121.3056 
L 100.4544 130.176 
L 100.4544 139.0464 
L 100.4544 139.081156 
L 100.466186 139.077581 
L 100.553374 139.0464 
L 106.535639 136.839977 
L 112.993102 134.176571 
L 114.572626 133.566887 
L 116.440604 132.77408 
L 119.11345 131.57243 
L 122.308131 130.176 
L 123.165747 129.78555 
L 123.503695 129.615487 
L 127.744533 127.57792 
L 129.614157 126.648403 
L 131.126993 125.819678 
L 133.987586 124.359381 
L 139.517191 121.3056 
L 140.443877 120.775086 
L 142.704506 119.35886 
L 147.248451 116.61167 
L 149.678375 115.03328 
L 151.381762 113.859078 
L 153.545186 112.4352 
L 154.923613 111.439409 
L 157.127259 109.83712 
L 160.501895 107.273572 
L 165.004944 103.5648 
L 165.161417 103.430556 
L 165.315878 103.290409 
L 169.634235 99.540222 
L 172.032963 97.29248 
L 174.237651 95.116882 
L 174.670598 94.6944 
L 175.684128 93.615353 
L 177.195209 92.09632 
L 178.127886 91.106981 
L 180.364935 88.566556 
L 181.830267 86.958063 
L 182.81483 85.824 
L 185.99641 81.988709 
L 187.891933 79.55168 
L 189.714487 77.052627 
L 189.789275 76.9536 
L 189.844678 76.86712 
L 189.917403 76.762468 
L 191.682261 74.35552 
L 193.200455 72.142285 
L 195.82794 68.0832 
L 196.920443 66.309098 
L 199.594458 61.81088 
L 200.317838 60.545383 
L 201.142519 59.2128 
L 201.996649 57.538291 
L 202.501124 56.61472 
L 205.60969 50.42576 
L 205.653028 50.3424 
L 205.664502 50.319105 
L 208.610177 44.07008 
L 209.066094 43.006353 
L 209.733007 41.472 
L 205.68576 41.472 
L 197.59104 41.472 
L 189.49632 41.472 
L 181.4016 41.472 
L 173.30688 41.472 
L 165.21216 41.472 
L 157.11744 41.472 
L 149.02272 41.472 
L 140.928 41.472 
" clip-path="url(#p912cf4f91b)" style="fill: #53ffa4"/>
   </g>
   <g id="PathCollection_16">
    <path d="M 209.733007 41.472 
L 209.066094 43.006353 
L 208.610177 44.07008 
L 205.664502 50.319105 
L 205.653028 50.3424 
L 205.60969 50.42576 
L 202.501124 56.61472 
L 201.996649 57.538291 
L 201.142519 59.2128 
L 200.317838 60.545383 
L 199.594458 61.81088 
L 196.920443 66.309098 
L 195.82794 68.0832 
L 193.200455 72.142285 
L 191.682261 74.35552 
L 189.917403 76.762468 
L 189.844678 76.86712 
L 189.789275 76.9536 
L 189.714487 77.052627 
L 187.891933 79.55168 
L 185.99641 81.988709 
L 182.81483 85.824 
L 181.830267 86.958063 
L 180.364935 88.566556 
L 178.127886 91.106981 
L 177.195209 92.09632 
L 175.684128 93.615353 
L 174.670598 94.6944 
L 174.237651 95.116882 
L 172.032963 97.29248 
L 169.634235 99.540222 
L 165.315878 103.290409 
L 165.161417 103.430556 
L 165.004944 103.5648 
L 160.501895 107.273572 
L 157.127259 109.83712 
L 154.923613 111.439409 
L 153.545186 112.4352 
L 151.381762 113.859078 
L 149.678375 115.03328 
L 147.248451 116.61167 
L 142.704506 119.35886 
L 140.443877 120.775086 
L 139.517191 121.3056 
L 133.987586 124.359381 
L 131.126993 125.819678 
L 129.614157 126.648403 
L 127.744533 127.57792 
L 123.503695 129.615487 
L 123.165747 129.78555 
L 122.308131 130.176 
L 119.11345 131.57243 
L 116.440604 132.77408 
L 114.572626 133.566887 
L 112.993102 134.176571 
L 106.535639 136.839977 
L 100.553374 139.0464 
L 100.466186 139.077581 
L 100.4544 139.081156 
L 100.4544 147.9168 
L 100.4544 156.7872 
L 100.4544 165.6576 
L 100.4544 174.528 
L 100.4544 182.615346 
L 101.227738 182.550956 
L 105.851306 182.173847 
L 112.698546 181.514952 
L 116.036573 181.238138 
L 119.251605 180.90784 
L 120.336843 180.80032 
L 129.60648 179.862391 
L 130.884198 179.684406 
L 134.636604 179.298795 
L 136.85689 178.989226 
L 144.289386 178.211492 
L 147.824674 177.697497 
L 150.128074 177.452276 
L 155.111293 176.726386 
L 158.761717 176.32984 
L 164.883993 175.396185 
L 165.513953 175.326411 
L 170.732896 174.528 
L 172.982876 174.172948 
L 173.780676 174.008802 
L 180.766485 172.847766 
L 182.147734 172.554059 
L 186.961127 171.749871 
L 193.301889 170.357761 
L 195.84458 169.907642 
L 199.666823 169.036398 
L 200.533357 168.881865 
L 203.181294 168.25568 
L 208.53246 166.949733 
L 213.357128 165.6576 
L 217.377869 164.541141 
L 218.555089 164.150583 
L 222.002759 163.05952 
L 226.310554 161.647574 
L 228.460365 160.780813 
L 231.131723 159.860815 
L 237.745163 157.137291 
L 238.224309 156.962169 
L 238.609994 156.7872 
L 245.014645 153.758792 
L 247.907185 152.16323 
L 249.380646 151.446767 
L 250.96039 150.51488 
L 254.780136 148.15558 
L 255.143672 147.9168 
L 256.75692 146.780747 
L 258.917575 145.31872 
L 259.560975 144.861831 
L 260.422074 144.143661 
L 263.410124 141.854192 
L 266.647904 139.0464 
L 268.722725 137.160709 
L 272.862416 132.77408 
L 273.811143 131.704584 
L 274.353649 131.146687 
L 275.126509 130.176 
L 276.970019 127.777182 
L 277.091221 127.57792 
L 279.602504 124.121172 
L 281.460855 121.3056 
L 283.564371 117.942962 
L 285.149064 115.03328 
L 286.387901 112.546434 
L 286.419627 112.48816 
L 286.453228 112.4352 
L 286.474677 112.395906 
L 286.486457 112.368702 
L 287.769506 109.83712 
L 289.31079 106.499235 
L 290.498641 103.5648 
L 292.619585 97.987716 
L 292.864802 97.29248 
L 292.908513 97.155516 
L 293.874233 94.6944 
L 294.503833 92.629322 
L 294.622697 92.09632 
L 295.738751 88.498845 
L 296.515707 85.824 
L 297.957411 80.492821 
L 298.184 79.55168 
L 298.293207 79.009427 
L 298.887648 76.9536 
L 299.100024 76.029523 
L 299.218238 75.31765 
L 299.445659 74.35552 
L 300.093426 71.07368 
L 300.786448 68.0832 
L 301.173221 66.275988 
L 302.043041 61.81088 
L 302.420235 59.395345 
L 302.464265 59.2128 
L 302.479227 59.127607 
L 302.487554 59.060811 
L 302.965155 56.61472 
L 303.783618 51.395727 
L 303.934487 50.3424 
L 304.117584 48.923105 
L 304.897537 44.07008 
L 305.08961 42.5011 
L 305.227727 41.472 
L 302.8224 41.472 
L 294.72768 41.472 
L 286.63296 41.472 
L 278.53824 41.472 
L 270.44352 41.472 
L 262.3488 41.472 
L 254.25408 41.472 
L 246.15936 41.472 
L 238.06464 41.472 
L 229.96992 41.472 
L 221.8752 41.472 
L 213.78048 41.472 
" clip-path="url(#p912cf4f91b)" style="fill: #a4ff53"/>
   </g>
   <g id="PathCollection_17">
    <path d="M 305.227727 41.472 
L 305.08961 42.5011 
L 304.897537 44.07008 
L 304.117584 48.923105 
L 303.934487 50.3424 
L 303.783618 51.395727 
L 302.965155 56.61472 
L 302.487554 59.060811 
L 302.479227 59.127607 
L 302.464265 59.2128 
L 302.420235 59.395345 
L 302.043041 61.81088 
L 301.173221 66.275988 
L 300.786448 68.0832 
L 300.093426 71.07368 
L 299.445659 74.35552 
L 299.218238 75.31765 
L 299.100024 76.029523 
L 298.887648 76.9536 
L 298.293207 79.009427 
L 298.184 79.55168 
L 297.957411 80.492821 
L 296.515707 85.824 
L 295.738751 88.498845 
L 294.622697 92.09632 
L 294.503833 92.629322 
L 293.874233 94.6944 
L 292.908513 97.155516 
L 292.864802 97.29248 
L 292.619585 97.987716 
L 290.498641 103.5648 
L 289.31079 106.499235 
L 287.769506 109.83712 
L 286.486457 112.368702 
L 286.474677 112.395906 
L 286.453228 112.4352 
L 286.419627 112.48816 
L 286.387901 112.546434 
L 285.149064 115.03328 
L 283.564371 117.942962 
L 281.460855 121.3056 
L 279.602504 124.121172 
L 277.091221 127.57792 
L 276.970019 127.777182 
L 275.126509 130.176 
L 274.353649 131.146687 
L 273.811143 131.704584 
L 272.862416 132.77408 
L 268.722725 137.160709 
L 266.647904 139.0464 
L 263.410124 141.854192 
L 260.422074 144.143661 
L 259.560975 144.861831 
L 258.917575 145.31872 
L 256.75692 146.780747 
L 255.143672 147.9168 
L 254.780136 148.15558 
L 250.96039 150.51488 
L 249.380646 151.446767 
L 247.907185 152.16323 
L 245.014645 153.758792 
L 238.609994 156.7872 
L 238.224309 156.962169 
L 237.745163 157.137291 
L 231.131723 159.860815 
L 228.460365 160.780813 
L 226.310554 161.647574 
L 222.002759 163.05952 
L 218.555089 164.150583 
L 217.377869 164.541141 
L 213.357128 165.6576 
L 208.53246 166.949733 
L 203.181294 168.25568 
L 200.533357 168.881865 
L 199.666823 169.036398 
L 195.84458 169.907642 
L 193.301889 170.357761 
L 186.961127 171.749871 
L 182.147734 172.554059 
L 180.766485 172.847766 
L 173.780676 174.008802 
L 172.982876 174.172948 
L 170.732896 174.528 
L 165.513953 175.326411 
L 164.883993 175.396185 
L 158.761717 176.32984 
L 155.111293 176.726386 
L 150.128074 177.452276 
L 147.824674 177.697497 
L 144.289386 178.211492 
L 136.85689 178.989226 
L 134.636604 179.298795 
L 130.884198 179.684406 
L 129.60648 179.862391 
L 120.336843 180.80032 
L 119.251605 180.90784 
L 116.036573 181.238138 
L 112.698546 181.514952 
L 105.851306 182.173847 
L 101.227738 182.550956 
L 100.4544 182.615346 
L 100.4544 183.3984 
L 100.4544 192.2688 
L 100.4544 201.1392 
L 100.4544 210.0096 
L 100.4544 218.88 
L 100.4544 220.295452 
L 101.887161 220.450056 
L 104.557454 220.69184 
L 112.033815 221.47808 
L 114.078855 221.690776 
L 114.36821 221.730093 
L 118.740393 222.203851 
L 119.813335 222.353214 
L 128.742944 223.362294 
L 131.318096 223.741896 
L 134.219037 224.084302 
L 138.121094 224.674521 
L 143.166589 225.297297 
L 148.414503 226.141327 
L 149.57425 226.291295 
L 156.889648 227.50078 
L 157.295044 227.555777 
L 158.396762 227.7504 
L 164.794167 228.856224 
L 165.702655 229.048033 
L 171.22578 230.030922 
L 176.443468 231.187553 
L 179.85609 231.839134 
L 183.24596 232.629759 
L 184.769609 232.93005 
L 189.210521 234.02272 
L 193.132015 234.970537 
L 199.265565 236.6208 
L 202.364799 237.445226 
L 203.265272 237.719473 
L 208.177262 239.21888 
L 210.715704 239.97926 
L 211.850943 240.386501 
L 215.295675 241.482667 
L 219.720817 243.130372 
L 223.010896 244.246675 
L 226.054416 245.4912 
L 229.458771 246.843475 
L 230.695462 247.410663 
L 234.772277 249.099055 
L 240.169714 251.76352 
L 241.923328 252.610119 
L 245.187717 254.3616 
L 249.275538 256.621389 
L 249.823302 256.95968 
L 256.374701 260.90817 
L 259.629355 263.232 
L 261.785745 264.721593 
L 263.385611 265.974943 
L 266.11616 267.974031 
L 267.876281 269.50432 
L 270.77303 271.952833 
L 270.834375 272.00537 
L 270.928489 272.1024 
L 271.385424 272.529935 
L 273.78319 274.70048 
L 275.105868 275.863681 
L 277.577319 278.43063 
L 278.977156 279.811623 
L 280.014926 280.9728 
L 283.350264 284.570061 
L 285.424555 287.24512 
L 287.278152 289.550344 
L 287.477811 289.8432 
L 287.88533 290.411658 
L 289.410311 292.44128 
L 290.768745 294.181502 
L 293.716377 298.7136 
L 294.365365 299.672125 
L 296.334779 302.965272 
L 297.382931 304.674309 
L 297.537706 304.98592 
L 297.674713 305.247435 
L 298.988701 307.584 
L 302.8224 307.584 
L 310.91712 307.584 
L 319.01184 307.584 
L 327.10656 307.584 
L 335.20128 307.584 
L 343.296 307.584 
L 343.296 298.7136 
L 343.296 289.8432 
L 343.296 280.9728 
L 343.296 272.1024 
L 343.296 263.232 
L 343.296 254.3616 
L 343.296 245.4912 
L 343.296 236.6208 
L 343.296 227.7504 
L 343.296 218.88 
L 343.296 210.0096 
L 343.296 201.1392 
L 343.296 192.2688 
L 343.296 183.3984 
L 343.296 174.528 
L 343.296 165.6576 
L 343.296 156.7872 
L 343.296 147.9168 
L 343.296 139.0464 
L 343.296 130.176 
L 343.296 121.3056 
L 343.296 112.4352 
L 343.296 103.5648 
L 343.296 94.6944 
L 343.296 85.824 
L 343.296 76.9536 
L 343.296 68.0832 
L 343.296 59.2128 
L 343.296 50.3424 
L 343.296 41.472 
L 335.20128 41.472 
L 327.10656 41.472 
L 319.01184 41.472 
L 310.91712 41.472 
" clip-path="url(#p912cf4f91b)" style="fill: #f8f500"/>
   </g>
   <g id="PathCollection_18">
    <path d="M 298.988701 307.584 
L 297.674713 305.247435 
L 297.537706 304.98592 
L 297.382931 304.674309 
L 296.334779 302.965272 
L 294.365365 299.672125 
L 293.716377 298.7136 
L 290.768745 294.181502 
L 289.410311 292.44128 
L 287.88533 290.411658 
L 287.477811 289.8432 
L 287.278152 289.550344 
L 285.424555 287.24512 
L 283.350264 284.570061 
L 280.014926 280.9728 
L 278.977156 279.811623 
L 277.577319 278.43063 
L 275.105868 275.863681 
L 273.78319 274.70048 
L 271.385424 272.529935 
L 270.928489 272.1024 
L 270.834375 272.00537 
L 270.77303 271.952833 
L 267.876281 269.50432 
L 266.11616 267.974031 
L 263.385611 265.974943 
L 261.785745 264.721593 
L 259.629355 263.232 
L 256.374701 260.90817 
L 249.823302 256.95968 
L 249.275538 256.621389 
L 245.187717 254.3616 
L 241.923328 252.610119 
L 240.169714 251.76352 
L 234.772277 249.099055 
L 230.695462 247.410663 
L 229.458771 246.843475 
L 226.054416 245.4912 
L 223.010896 244.246675 
L 219.720817 243.130372 
L 215.295675 241.482667 
L 211.850943 240.386501 
L 210.715704 239.97926 
L 208.177262 239.21888 
L 203.265272 237.719473 
L 202.364799 237.445226 
L 199.265565 236.6208 
L 193.132015 234.970537 
L 189.210521 234.02272 
L 184.769609 232.93005 
L 183.24596 232.629759 
L 179.85609 231.839134 
L 176.443468 231.187553 
L 171.22578 230.030922 
L 165.702655 229.048033 
L 164.794167 228.856224 
L 158.396762 227.7504 
L 157.295044 227.555777 
L 156.889648 227.50078 
L 149.57425 226.291295 
L 148.414503 226.141327 
L 143.166589 225.297297 
L 138.121094 224.674521 
L 134.219037 224.084302 
L 131.318096 223.741896 
L 128.742944 223.362294 
L 119.813335 222.353214 
L 118.740393 222.203851 
L 114.36821 221.730093 
L 114.078855 221.690776 
L 112.033815 221.47808 
L 104.557454 220.69184 
L 101.887161 220.450056 
L 100.4544 220.295452 
L 100.4544 227.7504 
L 100.4544 236.6208 
L 100.4544 245.4912 
L 100.4544 254.3616 
L 100.4544 254.984565 
L 101.178508 255.155096 
L 104.925589 256.006342 
L 108.866276 256.95968 
L 113.298329 258.027696 
L 114.832752 258.440663 
L 118.143501 259.264561 
L 122.114199 260.356158 
L 126.365083 261.449614 
L 132.545633 263.232 
L 132.805198 263.306293 
L 132.868909 263.326258 
L 139.161953 265.167279 
L 144.184509 266.800565 
L 147.310528 267.761701 
L 151.236009 269.087381 
L 151.65399 269.218987 
L 152.46542 269.50432 
L 158.337109 271.548785 
L 159.825298 272.1024 
L 165.254652 274.10136 
L 166.76002 274.70048 
L 167.479275 274.975018 
L 168.049248 275.211353 
L 175.764295 278.279902 
L 181.305627 280.718898 
L 181.471496 280.787887 
L 181.879064 280.9728 
L 187.289028 283.391607 
L 195.096673 287.24512 
L 195.156273 287.274115 
L 200.065242 289.8432 
L 202.66952 291.212289 
L 204.834502 292.44128 
L 209.191426 294.872002 
L 213.279288 297.387668 
L 214.098835 297.871375 
L 215.415005 298.7136 
L 219.522525 301.291721 
L 224.847757 304.98592 
L 225.950783 305.734069 
L 228.482649 307.584 
L 229.96992 307.584 
L 238.06464 307.584 
L 246.15936 307.584 
L 254.25408 307.584 
L 262.3488 307.584 
L 270.44352 307.584 
L 278.53824 307.584 
L 286.63296 307.584 
L 294.72768 307.584 
" clip-path="url(#p912cf4f91b)" style="fill: #ff9400"/>
   </g>
   <g id="PathCollection_19">
    <path d="M 228.482649 307.584 
L 225.950783 305.734069 
L 224.847757 304.98592 
L 219.522525 301.291721 
L 215.415005 298.7136 
L 214.098835 297.871375 
L 213.279288 297.387668 
L 209.191426 294.872002 
L 204.834502 292.44128 
L 202.66952 291.212289 
L 200.065242 289.8432 
L 195.156273 287.274115 
L 195.096673 287.24512 
L 187.289028 283.391607 
L 181.879064 280.9728 
L 181.471496 280.787887 
L 181.305627 280.718898 
L 175.764295 278.279902 
L 168.049248 275.211353 
L 167.479275 274.975018 
L 166.76002 274.70048 
L 165.254652 274.10136 
L 159.825298 272.1024 
L 158.337109 271.548785 
L 152.46542 269.50432 
L 151.65399 269.218987 
L 151.236009 269.087381 
L 147.310528 267.761701 
L 144.184509 266.800565 
L 139.161953 265.167279 
L 132.868909 263.326258 
L 132.805198 263.306293 
L 132.545633 263.232 
L 126.365083 261.449614 
L 122.114199 260.356158 
L 118.143501 259.264561 
L 114.832752 258.440663 
L 113.298329 258.027696 
L 108.866276 256.95968 
L 104.925589 256.006342 
L 101.178508 255.155096 
L 100.4544 254.984565 
L 100.4544 263.232 
L 100.4544 272.1024 
L 100.4544 280.9728 
L 100.4544 288.978397 
L 101.064397 289.174749 
L 103.042621 289.8432 
L 106.196084 290.911256 
L 110.541572 292.44128 
L 113.362989 293.43844 
L 114.861717 293.998893 
L 117.995038 295.13893 
L 123.344834 297.18632 
L 125.422549 297.964067 
L 127.303696 298.7136 
L 132.10593 300.637845 
L 133.83545 301.364897 
L 137.235851 302.759551 
L 142.346393 304.98592 
L 144.546044 305.941749 
L 148.169877 307.584 
L 149.02272 307.584 
L 157.11744 307.584 
L 165.21216 307.584 
L 173.30688 307.584 
L 181.4016 307.584 
L 189.49632 307.584 
L 197.59104 307.584 
L 205.68576 307.584 
L 213.78048 307.584 
L 221.8752 307.584 
" clip-path="url(#p912cf4f91b)" style="fill: #ff3800"/>
   </g>
   <g id="PathCollection_20">
    <path d="M 148.169877 307.584 
L 144.546044 305.941749 
L 142.346393 304.98592 
L 137.235851 302.759551 
L 133.83545 301.364897 
L 132.10593 300.637845 
L 127.303696 298.7136 
L 125.422549 297.964067 
L 123.344834 297.18632 
L 117.995038 295.13893 
L 114.861717 293.998893 
L 113.362989 293.43844 
L 110.541572 292.44128 
L 106.196084 290.911256 
L 103.042621 289.8432 
L 101.064397 289.174749 
L 100.4544 288.978397 
L 100.4544 289.8432 
L 100.4544 298.7136 
L 100.4544 307.584 
L 108.54912 307.584 
L 116.64384 307.584 
L 124.73856 307.584 
L 132.83328 307.584 
L 140.928 307.584 
" clip-path="url(#p912cf4f91b)" style="fill: #b60000"/>
   </g>
   <g id="matplotlib.axis_1">
    <g id="xtick_1">
     <g id="line2d_1">
      <defs>
       <path id="m766e0ac0e3" d="M 0 0 
L 0 3.5 
" style="stroke: #000000; stroke-width: 0.8"/>
      </defs>
      <g>
       <use xlink:href="#m766e0ac0e3" x="57.6" y="307.584" style="stroke: #000000; stroke-width: 0.8"/>
      </g>
     </g>
     <g id="text_1">
      <!-- 0.0 -->
      <g transform="translate(51.26875 321.385562) scale(0.1 -0.1)">
       <defs>
        <path id="Calibri-30" d="M 3022 2031 
Q 3022 1566 2948 1181 
Q 2875 797 2704 520 
Q 2534 244 2259 92 
Q 1984 -59 1581 -59 
Q 1200 -59 939 77 
Q 678 213 518 477 
Q 359 741 292 1127 
Q 225 1513 225 2013 
Q 225 2475 300 2861 
Q 375 3247 544 3523 
Q 713 3800 988 3951 
Q 1263 4103 1663 4103 
Q 2047 4103 2308 3967 
Q 2569 3831 2728 3567 
Q 2888 3303 2955 2917 
Q 3022 2531 3022 2031 
z
M 2472 1994 
Q 2472 2297 2450 2537 
Q 2428 2778 2386 2962 
Q 2344 3147 2276 3280 
Q 2209 3413 2115 3498 
Q 2022 3584 1901 3623 
Q 1781 3663 1631 3663 
Q 1366 3663 1200 3538 
Q 1034 3413 939 3194 
Q 844 2975 809 2681 
Q 775 2388 775 2050 
Q 775 1597 822 1280 
Q 869 963 970 763 
Q 1072 563 1230 472 
Q 1388 381 1613 381 
Q 1788 381 1920 437 
Q 2053 494 2148 598 
Q 2244 703 2306 850 
Q 2369 997 2406 1175 
Q 2444 1353 2458 1561 
Q 2472 1769 2472 1994 
z
" transform="scale(0.015625)"/>
        <path id="Calibri-2e" d="M 1144 341 
Q 1144 119 1070 45 
Q 997 -28 803 -28 
Q 616 -28 544 44 
Q 472 116 472 331 
Q 472 553 545 626 
Q 619 700 813 700 
Q 1000 700 1072 628 
Q 1144 556 1144 341 
z
" transform="scale(0.015625)"/>
       </defs>
       <use xlink:href="#Calibri-30"/>
       <use xlink:href="#Calibri-2e" x="50.683594"/>
       <use xlink:href="#Calibri-30" x="75.927734"/>
      </g>
     </g>
    </g>
    <g id="xtick_2">
     <g id="line2d_2">
      <g>
       <use xlink:href="#m766e0ac0e3" x="86.1696" y="307.584" style="stroke: #000000; stroke-width: 0.8"/>
      </g>
     </g>
     <g id="text_2">
      <!-- 0.1 -->
      <g transform="translate(79.83835 321.385562) scale(0.1 -0.1)">
       <defs>
        <path id="Calibri-31" d="M 2897 213 
Q 2897 153 2887 112 
Q 2878 72 2862 47 
Q 2847 22 2826 11 
Q 2806 0 2784 0 
L 672 0 
Q 650 0 631 11 
Q 613 22 595 47 
Q 578 72 568 112 
Q 559 153 559 213 
Q 559 269 568 309 
Q 578 350 592 376 
Q 606 403 626 417 
Q 647 431 672 431 
L 1516 431 
L 1516 3506 
L 734 3041 
Q 675 3009 639 3003 
Q 603 2997 581 3017 
Q 559 3038 551 3084 
Q 544 3131 544 3203 
Q 544 3256 548 3293 
Q 553 3331 562 3356 
Q 572 3381 589 3400 
Q 606 3419 634 3438 
L 1566 4034 
Q 1578 4044 1597 4050 
Q 1616 4056 1644 4062 
Q 1672 4069 1709 4070 
Q 1747 4072 1803 4072 
Q 1878 4072 1928 4065 
Q 1978 4059 2006 4048 
Q 2034 4038 2043 4020 
Q 2053 4003 2053 3984 
L 2053 431 
L 2784 431 
Q 2809 431 2831 417 
Q 2853 403 2867 376 
Q 2881 350 2889 309 
Q 2897 269 2897 213 
z
" transform="scale(0.015625)"/>
       </defs>
       <use xlink:href="#Calibri-30"/>
       <use xlink:href="#Calibri-2e" x="50.683594"/>
       <use xlink:href="#Calibri-31" x="75.927734"/>
      </g>
     </g>
    </g>
    <g id="xtick_3">
     <g id="line2d_3">
      <g>
       <use xlink:href="#m766e0ac0e3" x="114.7392" y="307.584" style="stroke: #000000; stroke-width: 0.8"/>
      </g>
     </g>
     <g id="text_3">
      <!-- 0.2 -->
      <g transform="translate(108.40795 321.385562) scale(0.1 -0.1)">
       <defs>
        <path id="Calibri-32" d="M 2888 231 
Q 2888 175 2880 131 
Q 2872 88 2858 58 
Q 2844 28 2820 14 
Q 2797 0 2769 0 
L 534 0 
Q 491 0 458 11 
Q 425 22 401 47 
Q 378 72 367 119 
Q 356 166 356 234 
Q 356 297 361 344 
Q 366 391 381 427 
Q 397 463 420 498 
Q 444 534 481 575 
L 1266 1406 
Q 1538 1694 1702 1922 
Q 1866 2150 1955 2337 
Q 2044 2525 2072 2678 
Q 2100 2831 2100 2966 
Q 2100 3100 2056 3220 
Q 2013 3341 1930 3431 
Q 1847 3522 1722 3575 
Q 1597 3628 1434 3628 
Q 1244 3628 1092 3575 
Q 941 3522 827 3459 
Q 713 3397 636 3344 
Q 559 3291 522 3291 
Q 500 3291 483 3303 
Q 466 3316 455 3344 
Q 444 3372 437 3419 
Q 431 3466 431 3531 
Q 431 3578 434 3612 
Q 438 3647 445 3672 
Q 453 3697 465 3719 
Q 478 3741 515 3773 
Q 553 3806 645 3862 
Q 738 3919 877 3973 
Q 1016 4028 1183 4065 
Q 1350 4103 1534 4103 
Q 1828 4103 2048 4020 
Q 2269 3938 2414 3794 
Q 2559 3650 2631 3459 
Q 2703 3269 2703 3053 
Q 2703 2859 2668 2667 
Q 2634 2475 2523 2251 
Q 2413 2028 2203 1754 
Q 1994 1481 1647 1125 
L 1006 456 
L 2766 456 
Q 2791 456 2814 442 
Q 2838 428 2855 400 
Q 2872 372 2880 330 
Q 2888 288 2888 231 
z
" transform="scale(0.015625)"/>
       </defs>
       <use xlink:href="#Calibri-30"/>
       <use xlink:href="#Calibri-2e" x="50.683594"/>
       <use xlink:href="#Calibri-32" x="75.927734"/>
      </g>
     </g>
    </g>
    <g id="xtick_4">
     <g id="line2d_4">
      <g>
       <use xlink:href="#m766e0ac0e3" x="143.3088" y="307.584" style="stroke: #000000; stroke-width: 0.8"/>
      </g>
     </g>
     <g id="text_4">
      <!-- 0.3 -->
      <g transform="translate(136.97755 321.385562) scale(0.1 -0.1)">
       <defs>
        <path id="Calibri-33" d="M 2856 1156 
Q 2856 878 2759 654 
Q 2663 431 2481 272 
Q 2300 113 2034 27 
Q 1769 -59 1434 -59 
Q 1231 -59 1054 -26 
Q 878 6 740 51 
Q 603 97 512 145 
Q 422 194 398 216 
Q 375 238 362 259 
Q 350 281 340 312 
Q 331 344 326 389 
Q 322 434 322 500 
Q 322 613 344 656 
Q 366 700 406 700 
Q 434 700 517 650 
Q 600 600 729 542 
Q 859 484 1032 434 
Q 1206 384 1419 384 
Q 1625 384 1781 437 
Q 1938 491 2044 587 
Q 2150 684 2203 817 
Q 2256 950 2256 1106 
Q 2256 1278 2189 1415 
Q 2122 1553 1992 1653 
Q 1863 1753 1673 1806 
Q 1484 1859 1244 1859 
L 859 1859 
Q 834 1859 811 1870 
Q 788 1881 770 1906 
Q 753 1931 742 1972 
Q 731 2013 731 2078 
Q 731 2138 740 2177 
Q 750 2216 767 2239 
Q 784 2263 806 2273 
Q 828 2284 856 2284 
L 1209 2284 
Q 1416 2284 1580 2337 
Q 1744 2391 1858 2491 
Q 1972 2591 2033 2730 
Q 2094 2869 2094 3041 
Q 2094 3166 2053 3280 
Q 2013 3394 1931 3478 
Q 1850 3563 1723 3611 
Q 1597 3659 1431 3659 
Q 1250 3659 1098 3604 
Q 947 3550 828 3487 
Q 709 3425 631 3370 
Q 553 3316 522 3316 
Q 500 3316 483 3323 
Q 466 3331 455 3354 
Q 444 3378 439 3420 
Q 434 3463 434 3531 
Q 434 3578 437 3614 
Q 441 3650 450 3676 
Q 459 3703 471 3725 
Q 484 3747 514 3776 
Q 544 3806 634 3862 
Q 725 3919 858 3973 
Q 991 4028 1164 4065 
Q 1338 4103 1538 4103 
Q 1819 4103 2031 4031 
Q 2244 3959 2386 3828 
Q 2528 3697 2598 3514 
Q 2669 3331 2669 3109 
Q 2669 2919 2619 2755 
Q 2569 2591 2472 2464 
Q 2375 2338 2234 2248 
Q 2094 2159 1909 2125 
L 1909 2119 
Q 2119 2097 2292 2014 
Q 2466 1931 2591 1806 
Q 2716 1681 2786 1514 
Q 2856 1347 2856 1156 
z
" transform="scale(0.015625)"/>
       </defs>
       <use xlink:href="#Calibri-30"/>
       <use xlink:href="#Calibri-2e" x="50.683594"/>
       <use xlink:href="#Calibri-33" x="75.927734"/>
      </g>
     </g>
    </g>
    <g id="xtick_5">
     <g id="line2d_5">
      <g>
       <use xlink:href="#m766e0ac0e3" x="171.8784" y="307.584" style="stroke: #000000; stroke-width: 0.8"/>
      </g>
     </g>
     <g id="text_5">
      <!-- 0.4 -->
      <g transform="translate(165.54715 321.385562) scale(0.1 -0.1)">
       <defs>
        <path id="Calibri-34" d="M 3059 1150 
Q 3059 1047 3028 987 
Q 2997 928 2941 928 
L 2484 928 
L 2484 78 
Q 2484 53 2471 36 
Q 2459 19 2428 6 
Q 2397 -6 2347 -12 
Q 2297 -19 2219 -19 
Q 2144 -19 2094 -12 
Q 2044 -6 2014 6 
Q 1984 19 1973 36 
Q 1963 53 1963 78 
L 1963 928 
L 294 928 
Q 256 928 231 937 
Q 206 947 186 972 
Q 166 997 158 1044 
Q 150 1091 150 1166 
Q 150 1225 153 1272 
Q 156 1319 165 1358 
Q 175 1397 190 1433 
Q 206 1469 228 1509 
L 1684 3966 
Q 1700 3991 1729 4009 
Q 1759 4028 1806 4040 
Q 1853 4053 1922 4058 
Q 1991 4063 2084 4063 
Q 2188 4063 2264 4055 
Q 2341 4047 2387 4034 
Q 2434 4022 2459 4001 
Q 2484 3981 2484 3953 
L 2484 1372 
L 2941 1372 
Q 2994 1372 3026 1317 
Q 3059 1263 3059 1150 
z
M 1963 3591 
L 1956 3591 
L 641 1372 
L 1963 1372 
L 1963 3591 
z
" transform="scale(0.015625)"/>
       </defs>
       <use xlink:href="#Calibri-30"/>
       <use xlink:href="#Calibri-2e" x="50.683594"/>
       <use xlink:href="#Calibri-34" x="75.927734"/>
      </g>
     </g>
    </g>
    <g id="xtick_6">
     <g id="line2d_6">
      <g>
       <use xlink:href="#m766e0ac0e3" x="200.448" y="307.584" style="stroke: #000000; stroke-width: 0.8"/>
      </g>
     </g>
     <g id="text_6">
      <!-- 0.5 -->
      <g transform="translate(194.11675 321.385562) scale(0.1 -0.1)">
       <defs>
        <path id="Calibri-35" d="M 2869 1300 
Q 2869 975 2759 722 
Q 2650 469 2450 295 
Q 2250 122 1973 31 
Q 1697 -59 1359 -59 
Q 1172 -59 1003 -32 
Q 834 -6 703 33 
Q 572 72 487 109 
Q 403 147 379 169 
Q 356 191 347 209 
Q 338 228 330 254 
Q 322 281 319 322 
Q 316 363 316 419 
Q 316 472 320 514 
Q 325 556 337 582 
Q 350 609 367 621 
Q 384 634 406 634 
Q 438 634 503 595 
Q 569 556 680 511 
Q 791 466 955 425 
Q 1119 384 1344 384 
Q 1553 384 1728 434 
Q 1903 484 2029 590 
Q 2156 697 2228 858 
Q 2300 1019 2300 1250 
Q 2300 1444 2239 1592 
Q 2178 1741 2051 1839 
Q 1925 1938 1731 1986 
Q 1538 2034 1269 2034 
Q 1078 2034 940 2015 
Q 803 1997 684 1997 
Q 597 1997 559 2037 
Q 522 2078 522 2194 
L 522 3841 
Q 522 3944 570 3994 
Q 619 4044 709 4044 
L 2500 4044 
Q 2525 4044 2548 4030 
Q 2572 4016 2587 3987 
Q 2603 3959 2611 3915 
Q 2619 3872 2619 3813 
Q 2619 3700 2587 3637 
Q 2556 3575 2500 3575 
L 991 3575 
L 991 2441 
Q 1100 2456 1214 2459 
Q 1328 2463 1478 2463 
Q 1825 2463 2084 2380 
Q 2344 2297 2517 2145 
Q 2691 1994 2780 1778 
Q 2869 1563 2869 1300 
z
" transform="scale(0.015625)"/>
       </defs>
       <use xlink:href="#Calibri-30"/>
       <use xlink:href="#Calibri-2e" x="50.683594"/>
       <use xlink:href="#Calibri-35" x="75.927734"/>
      </g>
     </g>
    </g>
    <g id="xtick_7">
     <g id="line2d_7">
      <g>
       <use xlink:href="#m766e0ac0e3" x="229.0176" y="307.584" style="stroke: #000000; stroke-width: 0.8"/>
      </g>
     </g>
     <g id="text_7">
      <!-- 0.6 -->
      <g transform="translate(222.68635 321.385562) scale(0.1 -0.1)">
       <defs>
        <path id="Calibri-36" d="M 2991 1309 
Q 2991 1044 2909 795 
Q 2828 547 2659 358 
Q 2491 169 2231 55 
Q 1972 -59 1619 -59 
Q 1366 -59 1172 3 
Q 978 66 834 181 
Q 691 297 595 465 
Q 500 634 442 850 
Q 384 1066 359 1322 
Q 334 1578 334 1872 
Q 334 2131 362 2397 
Q 391 2663 462 2909 
Q 534 3156 657 3373 
Q 781 3591 967 3752 
Q 1153 3913 1412 4006 
Q 1672 4100 2016 4100 
Q 2131 4100 2250 4086 
Q 2369 4072 2469 4048 
Q 2569 4025 2637 3997 
Q 2706 3969 2728 3951 
Q 2750 3934 2761 3914 
Q 2772 3894 2778 3870 
Q 2784 3847 2787 3817 
Q 2791 3788 2791 3744 
Q 2791 3688 2789 3647 
Q 2788 3606 2777 3581 
Q 2766 3556 2748 3543 
Q 2731 3531 2703 3531 
Q 2669 3531 2609 3553 
Q 2550 3575 2465 3601 
Q 2381 3628 2261 3650 
Q 2141 3672 1981 3672 
Q 1691 3672 1481 3553 
Q 1272 3434 1139 3234 
Q 1006 3034 942 2770 
Q 878 2506 869 2219 
Q 950 2266 1051 2312 
Q 1153 2359 1273 2396 
Q 1394 2434 1528 2457 
Q 1663 2481 1816 2481 
Q 2144 2481 2369 2392 
Q 2594 2303 2733 2145 
Q 2872 1988 2931 1773 
Q 2991 1559 2991 1309 
z
M 2447 1259 
Q 2447 1441 2411 1589 
Q 2375 1738 2290 1841 
Q 2206 1944 2065 2000 
Q 1925 2056 1719 2056 
Q 1603 2056 1487 2036 
Q 1372 2016 1264 1980 
Q 1156 1944 1057 1895 
Q 959 1847 878 1791 
Q 878 1388 929 1116 
Q 981 844 1079 680 
Q 1178 516 1325 445 
Q 1472 375 1669 375 
Q 1869 375 2016 450 
Q 2163 525 2259 651 
Q 2356 778 2401 936 
Q 2447 1094 2447 1259 
z
" transform="scale(0.015625)"/>
       </defs>
       <use xlink:href="#Calibri-30"/>
       <use xlink:href="#Calibri-2e" x="50.683594"/>
       <use xlink:href="#Calibri-36" x="75.927734"/>
      </g>
     </g>
    </g>
    <g id="xtick_8">
     <g id="line2d_8">
      <g>
       <use xlink:href="#m766e0ac0e3" x="257.5872" y="307.584" style="stroke: #000000; stroke-width: 0.8"/>
      </g>
     </g>
     <g id="text_8">
      <!-- 0.7 -->
      <g transform="translate(251.25595 321.385562) scale(0.1 -0.1)">
       <defs>
        <path id="Calibri-37" d="M 2947 3813 
Q 2947 3756 2942 3711 
Q 2938 3666 2930 3623 
Q 2922 3581 2908 3542 
Q 2894 3503 2875 3459 
L 1419 103 
Q 1403 66 1379 42 
Q 1356 19 1320 5 
Q 1284 -9 1228 -14 
Q 1172 -19 1091 -19 
Q 984 -19 925 -9 
Q 866 0 839 20 
Q 813 41 816 70 
Q 819 100 838 141 
L 2369 3572 
L 428 3572 
Q 369 3572 339 3634 
Q 309 3697 309 3809 
Q 309 3869 317 3912 
Q 325 3956 340 3986 
Q 356 4016 378 4030 
Q 400 4044 428 4044 
L 2784 4044 
Q 2828 4044 2861 4034 
Q 2894 4025 2911 3997 
Q 2928 3969 2937 3925 
Q 2947 3881 2947 3813 
z
" transform="scale(0.015625)"/>
       </defs>
       <use xlink:href="#Calibri-30"/>
       <use xlink:href="#Calibri-2e" x="50.683594"/>
       <use xlink:href="#Calibri-37" x="75.927734"/>
      </g>
     </g>
    </g>
    <g id="xtick_9">
     <g id="line2d_9">
      <g>
       <use xlink:href="#m766e0ac0e3" x="286.1568" y="307.584" style="stroke: #000000; stroke-width: 0.8"/>
      </g>
     </g>
     <g id="text_9">
      <!-- 0.8 -->
      <g transform="translate(279.82555 321.385562) scale(0.1 -0.1)">
       <defs>
        <path id="Calibri-38" d="M 2981 1038 
Q 2981 775 2887 570 
Q 2794 366 2617 225 
Q 2441 84 2181 12 
Q 1922 -59 1588 -59 
Q 1275 -59 1028 6 
Q 781 72 609 200 
Q 438 328 347 515 
Q 256 703 256 944 
Q 256 1134 318 1293 
Q 381 1453 498 1587 
Q 616 1722 787 1839 
Q 959 1956 1175 2063 
Q 988 2159 844 2267 
Q 700 2375 600 2501 
Q 500 2628 448 2772 
Q 397 2916 397 3084 
Q 397 3297 473 3483 
Q 550 3669 704 3806 
Q 859 3944 1098 4023 
Q 1338 4103 1656 4103 
Q 1963 4103 2186 4029 
Q 2409 3956 2554 3829 
Q 2700 3703 2769 3531 
Q 2838 3359 2838 3163 
Q 2838 3003 2786 2856 
Q 2734 2709 2634 2578 
Q 2534 2447 2389 2333 
Q 2244 2219 2056 2119 
Q 2278 2009 2451 1893 
Q 2625 1778 2742 1645 
Q 2859 1513 2920 1364 
Q 2981 1216 2981 1038 
z
M 2306 3113 
Q 2306 3244 2261 3350 
Q 2216 3456 2128 3531 
Q 2041 3606 1911 3645 
Q 1781 3684 1616 3684 
Q 1278 3684 1104 3531 
Q 931 3378 931 3113 
Q 931 2991 973 2886 
Q 1016 2781 1105 2687 
Q 1194 2594 1330 2505 
Q 1466 2416 1653 2319 
Q 1969 2481 2137 2678 
Q 2306 2875 2306 3113 
z
M 2438 981 
Q 2438 1125 2384 1242 
Q 2331 1359 2223 1461 
Q 2116 1563 1955 1658 
Q 1794 1753 1581 1856 
Q 1384 1759 1236 1662 
Q 1088 1566 992 1462 
Q 897 1359 848 1245 
Q 800 1131 800 994 
Q 800 691 1008 525 
Q 1216 359 1628 359 
Q 2028 359 2233 526 
Q 2438 694 2438 981 
z
" transform="scale(0.015625)"/>
       </defs>
       <use xlink:href="#Calibri-30"/>
       <use xlink:href="#Calibri-2e" x="50.683594"/>
       <use xlink:href="#Calibri-38" x="75.927734"/>
      </g>
     </g>
    </g>
    <g id="xtick_10">
     <g id="line2d_10">
      <g>
       <use xlink:href="#m766e0ac0e3" x="314.7264" y="307.584" style="stroke: #000000; stroke-width: 0.8"/>
      </g>
     </g>
     <g id="text_10">
      <!-- 0.9 -->
      <g transform="translate(308.39515 321.385562) scale(0.1 -0.1)">
       <defs>
        <path id="Calibri-39" d="M 2919 2181 
Q 2919 1919 2887 1650 
Q 2856 1381 2781 1132 
Q 2706 884 2579 667 
Q 2453 450 2261 287 
Q 2069 125 1805 33 
Q 1541 -59 1191 -59 
Q 1056 -59 929 -42 
Q 803 -25 701 0 
Q 600 25 531 53 
Q 463 81 431 109 
Q 400 138 386 186 
Q 372 234 372 316 
Q 372 384 376 425 
Q 381 466 390 487 
Q 400 509 417 517 
Q 434 525 459 525 
Q 494 525 556 501 
Q 619 478 714 450 
Q 809 422 937 398 
Q 1066 375 1225 375 
Q 1528 375 1745 492 
Q 1963 609 2100 806 
Q 2238 1003 2306 1262 
Q 2375 1522 2381 1809 
Q 2216 1713 1984 1638 
Q 1753 1563 1453 1563 
Q 1116 1563 886 1655 
Q 656 1747 517 1906 
Q 378 2066 317 2284 
Q 256 2503 256 2763 
Q 256 3031 334 3273 
Q 413 3516 578 3700 
Q 744 3884 1000 3993 
Q 1256 4103 1613 4103 
Q 1866 4103 2061 4039 
Q 2256 3975 2400 3854 
Q 2544 3734 2644 3564 
Q 2744 3394 2805 3178 
Q 2866 2963 2892 2711 
Q 2919 2459 2919 2181 
z
M 2372 2241 
Q 2372 2641 2319 2914 
Q 2266 3188 2162 3356 
Q 2059 3525 1909 3600 
Q 1759 3675 1563 3675 
Q 1359 3675 1215 3601 
Q 1072 3528 980 3404 
Q 888 3281 844 3125 
Q 800 2969 800 2803 
Q 800 2619 839 2466 
Q 878 2313 965 2206 
Q 1053 2100 1193 2042 
Q 1334 1984 1541 1984 
Q 1775 1984 1994 2054 
Q 2213 2125 2372 2241 
z
" transform="scale(0.015625)"/>
       </defs>
       <use xlink:href="#Calibri-30"/>
       <use xlink:href="#Calibri-2e" x="50.683594"/>
       <use xlink:href="#Calibri-39" x="75.927734"/>
      </g>
     </g>
    </g>
    <g id="xtick_11">
     <g id="line2d_11">
      <g>
       <use xlink:href="#m766e0ac0e3" x="343.296" y="307.584" style="stroke: #000000; stroke-width: 0.8"/>
      </g>
     </g>
     <g id="text_11">
      <!-- 1.0 -->
      <g transform="translate(336.96475 321.385562) scale(0.1 -0.1)">
       <use xlink:href="#Calibri-31"/>
       <use xlink:href="#Calibri-2e" x="50.683594"/>
       <use xlink:href="#Calibri-30" x="75.927734"/>
      </g>
     </g>
    </g>
    <g id="text_12">
     <!-- $\mathit{p}$ (cm$^2$/cm$^2$) -->
     <g transform="translate(174.148 336.263687) scale(0.1 -0.1)">
      <defs>
       <path id="DejaVuSans-Oblique-70" d="M 3175 2156 
Q 3175 2616 2975 2859 
Q 2775 3103 2400 3103 
Q 2144 3103 1911 2972 
Q 1678 2841 1497 2591 
Q 1319 2344 1212 1994 
Q 1106 1644 1106 1300 
Q 1106 863 1306 627 
Q 1506 391 1875 391 
Q 2147 391 2380 519 
Q 2613 647 2778 891 
Q 2956 1147 3065 1494 
Q 3175 1841 3175 2156 
z
M 1394 2969 
Q 1625 3272 1939 3428 
Q 2253 3584 2638 3584 
Q 3175 3584 3472 3232 
Q 3769 2881 3769 2247 
Q 3769 1728 3584 1258 
Q 3400 788 3053 416 
Q 2822 169 2531 39 
Q 2241 -91 1919 -91 
Q 1547 -91 1294 64 
Q 1041 219 916 525 
L 556 -1331 
L -19 -1331 
L 922 3500 
L 1497 3500 
L 1394 2969 
z
" transform="scale(0.015625)"/>
       <path id="Calibri-20" transform="scale(0.015625)"/>
       <path id="Calibri-28" d="M 1547 4306 
Q 1250 3678 1104 3017 
Q 959 2356 959 1688 
Q 959 1016 1107 356 
Q 1256 -303 1541 -938 
Q 1556 -975 1557 -1001 
Q 1559 -1028 1537 -1045 
Q 1516 -1063 1470 -1070 
Q 1425 -1078 1347 -1078 
Q 1291 -1078 1250 -1075 
Q 1209 -1072 1179 -1062 
Q 1150 -1053 1131 -1040 
Q 1113 -1028 1103 -1013 
Q 934 -694 806 -367 
Q 678 -41 590 296 
Q 503 634 459 979 
Q 416 1325 416 1678 
Q 416 2031 464 2375 
Q 513 2719 602 3058 
Q 691 3397 819 3725 
Q 947 4053 1106 4375 
Q 1109 4388 1123 4397 
Q 1138 4406 1163 4415 
Q 1188 4425 1231 4429 
Q 1275 4434 1344 4434 
Q 1416 4434 1459 4425 
Q 1503 4416 1528 4400 
Q 1553 4384 1556 4359 
Q 1559 4334 1547 4306 
z
" transform="scale(0.015625)"/>
       <path id="Calibri-63" d="M 2500 506 
Q 2500 453 2497 414 
Q 2494 375 2486 348 
Q 2478 322 2467 301 
Q 2456 281 2417 242 
Q 2378 203 2284 145 
Q 2191 88 2073 42 
Q 1956 -3 1818 -31 
Q 1681 -59 1534 -59 
Q 1231 -59 997 41 
Q 763 141 605 333 
Q 447 525 364 804 
Q 281 1084 281 1450 
Q 281 1866 382 2164 
Q 484 2463 661 2653 
Q 838 2844 1077 2936 
Q 1316 3028 1594 3028 
Q 1728 3028 1854 3003 
Q 1981 2978 2087 2937 
Q 2194 2897 2276 2844 
Q 2359 2791 2396 2753 
Q 2434 2716 2448 2694 
Q 2463 2672 2472 2642 
Q 2481 2613 2484 2575 
Q 2488 2538 2488 2481 
Q 2488 2359 2459 2311 
Q 2431 2263 2391 2263 
Q 2344 2263 2283 2314 
Q 2222 2366 2128 2428 
Q 2034 2491 1901 2542 
Q 1769 2594 1588 2594 
Q 1216 2594 1017 2308 
Q 819 2022 819 1478 
Q 819 1206 870 1001 
Q 922 797 1022 659 
Q 1122 522 1267 455 
Q 1413 388 1600 388 
Q 1778 388 1912 444 
Q 2047 500 2145 567 
Q 2244 634 2311 689 
Q 2378 744 2416 744 
Q 2438 744 2453 731 
Q 2469 719 2480 689 
Q 2491 659 2495 614 
Q 2500 569 2500 506 
z
" transform="scale(0.015625)"/>
       <path id="Calibri-6d" d="M 4650 78 
Q 4650 53 4637 36 
Q 4625 19 4597 6 
Q 4569 -6 4519 -12 
Q 4469 -19 4394 -19 
Q 4316 -19 4266 -12 
Q 4216 -6 4186 6 
Q 4156 19 4143 36 
Q 4131 53 4131 78 
L 4131 1788 
Q 4131 1966 4100 2112 
Q 4069 2259 4000 2365 
Q 3931 2472 3825 2528 
Q 3719 2584 3575 2584 
Q 3397 2584 3217 2446 
Q 3038 2309 2822 2044 
L 2822 78 
Q 2822 53 2809 36 
Q 2797 19 2767 6 
Q 2738 -6 2688 -12 
Q 2638 -19 2563 -19 
Q 2491 -19 2439 -12 
Q 2388 -6 2358 6 
Q 2328 19 2317 36 
Q 2306 53 2306 78 
L 2306 1788 
Q 2306 1966 2272 2112 
Q 2238 2259 2169 2365 
Q 2100 2472 1995 2528 
Q 1891 2584 1747 2584 
Q 1569 2584 1387 2446 
Q 1206 2309 994 2044 
L 994 78 
Q 994 53 981 36 
Q 969 19 941 6 
Q 913 -6 863 -12 
Q 813 -19 734 -19 
Q 659 -19 609 -12 
Q 559 -6 529 6 
Q 500 19 489 36 
Q 478 53 478 78 
L 478 2891 
Q 478 2916 487 2933 
Q 497 2950 525 2964 
Q 553 2978 597 2983 
Q 641 2988 713 2988 
Q 781 2988 826 2983 
Q 872 2978 897 2964 
Q 922 2950 933 2933 
Q 944 2916 944 2891 
L 944 2519 
Q 1181 2784 1404 2907 
Q 1628 3031 1856 3031 
Q 2031 3031 2170 2990 
Q 2309 2950 2415 2876 
Q 2522 2803 2597 2701 
Q 2672 2600 2722 2475 
Q 2863 2628 2989 2734 
Q 3116 2841 3233 2906 
Q 3350 2972 3461 3001 
Q 3572 3031 3684 3031 
Q 3956 3031 4140 2936 
Q 4325 2841 4439 2681 
Q 4553 2522 4601 2308 
Q 4650 2094 4650 1856 
L 4650 78 
z
" transform="scale(0.015625)"/>
       <path id="DejaVuSans-32" d="M 1228 531 
L 3431 531 
L 3431 0 
L 469 0 
L 469 531 
Q 828 903 1448 1529 
Q 2069 2156 2228 2338 
Q 2531 2678 2651 2914 
Q 2772 3150 2772 3378 
Q 2772 3750 2511 3984 
Q 2250 4219 1831 4219 
Q 1534 4219 1204 4116 
Q 875 4013 500 3803 
L 500 4441 
Q 881 4594 1212 4672 
Q 1544 4750 1819 4750 
Q 2544 4750 2975 4387 
Q 3406 4025 3406 3419 
Q 3406 3131 3298 2873 
Q 3191 2616 2906 2266 
Q 2828 2175 2409 1742 
Q 1991 1309 1228 531 
z
" transform="scale(0.015625)"/>
       <path id="Calibri-2f" d="M 525 -753 
Q 513 -794 492 -817 
Q 472 -841 440 -853 
Q 409 -866 364 -872 
Q 319 -878 253 -878 
Q 175 -878 123 -867 
Q 72 -856 44 -836 
Q 16 -816 9 -786 
Q 3 -756 22 -716 
L 1913 4469 
Q 1925 4509 1945 4532 
Q 1966 4556 1995 4570 
Q 2025 4584 2072 4589 
Q 2119 4594 2184 4594 
Q 2263 4594 2313 4583 
Q 2363 4572 2391 4553 
Q 2419 4534 2425 4503 
Q 2431 4472 2416 4431 
L 525 -753 
z
" transform="scale(0.015625)"/>
       <path id="Calibri-29" d="M 1522 1678 
Q 1522 1325 1478 979 
Q 1434 634 1346 296 
Q 1259 -41 1132 -367 
Q 1006 -694 838 -1013 
Q 828 -1028 809 -1040 
Q 791 -1053 761 -1062 
Q 731 -1072 690 -1075 
Q 650 -1078 594 -1078 
Q 513 -1078 467 -1070 
Q 422 -1063 401 -1045 
Q 381 -1028 382 -1001 
Q 384 -975 400 -938 
Q 688 -306 834 355 
Q 981 1016 981 1688 
Q 981 2356 834 3017 
Q 688 3678 394 4306 
Q 381 4334 384 4359 
Q 388 4384 413 4400 
Q 438 4416 481 4425 
Q 525 4434 597 4434 
Q 663 4434 706 4429 
Q 750 4425 776 4415 
Q 803 4406 815 4397 
Q 828 4388 834 4375 
Q 1156 3734 1339 3057 
Q 1522 2381 1522 1678 
z
" transform="scale(0.015625)"/>
      </defs>
      <use xlink:href="#DejaVuSans-Oblique-70" transform="translate(0 0.765625)"/>
      <use xlink:href="#Calibri-20" transform="translate(63.476562 0.765625)"/>
      <use xlink:href="#Calibri-28" transform="translate(84.958984 0.765625)"/>
      <use xlink:href="#Calibri-63" transform="translate(115.28125 0.765625)"/>
      <use xlink:href="#Calibri-6d" transform="translate(157.566406 0.765625)"/>
      <use xlink:href="#DejaVuSans-32" transform="translate(238.40625 39.046875) scale(0.7)"/>
      <use xlink:href="#Calibri-2f" transform="translate(285.676758 0.765625)"/>
      <use xlink:href="#Calibri-63" transform="translate(324.299805 0.765625)"/>
      <use xlink:href="#Calibri-6d" transform="translate(366.584961 0.765625)"/>
      <use xlink:href="#DejaVuSans-32" transform="translate(447.424805 39.046875) scale(0.7)"/>
      <use xlink:href="#Calibri-29" transform="translate(494.695312 0.765625)"/>
     </g>
    </g>
   </g>
   <g id="matplotlib.axis_2">
    <g id="ytick_1">
     <g id="line2d_12">
      <defs>
       <path id="mfd632b7bdc" d="M 0 0 
L -3.5 0 
" style="stroke: #000000; stroke-width: 0.8"/>
      </defs>
      <g>
       <use xlink:href="#mfd632b7bdc" x="57.6" y="275.65056" style="stroke: #000000; stroke-width: 0.8"/>
      </g>
     </g>
     <g id="text_13">
      <!-- 25 -->
      <g transform="translate(40.4625 279.051341) scale(0.1 -0.1)">
       <use xlink:href="#Calibri-32"/>
       <use xlink:href="#Calibri-35" x="50.683594"/>
      </g>
     </g>
    </g>
    <g id="ytick_2">
     <g id="line2d_13">
      <g>
       <use xlink:href="#mfd632b7bdc" x="57.6" y="242.38656" style="stroke: #000000; stroke-width: 0.8"/>
      </g>
     </g>
     <g id="text_14">
      <!-- 50 -->
      <g transform="translate(40.4625 245.787341) scale(0.1 -0.1)">
       <use xlink:href="#Calibri-35"/>
       <use xlink:href="#Calibri-30" x="50.683594"/>
      </g>
     </g>
    </g>
    <g id="ytick_3">
     <g id="line2d_14">
      <g>
       <use xlink:href="#mfd632b7bdc" x="57.6" y="209.12256" style="stroke: #000000; stroke-width: 0.8"/>
      </g>
     </g>
     <g id="text_15">
      <!-- 75 -->
      <g transform="translate(40.4625 212.523341) scale(0.1 -0.1)">
       <use xlink:href="#Calibri-37"/>
       <use xlink:href="#Calibri-35" x="50.683594"/>
      </g>
     </g>
    </g>
    <g id="ytick_4">
     <g id="line2d_15">
      <g>
       <use xlink:href="#mfd632b7bdc" x="57.6" y="175.85856" style="stroke: #000000; stroke-width: 0.8"/>
      </g>
     </g>
     <g id="text_16">
      <!-- 100 -->
      <g transform="translate(35.39375 179.259341) scale(0.1 -0.1)">
       <use xlink:href="#Calibri-31"/>
       <use xlink:href="#Calibri-30" x="50.683594"/>
       <use xlink:href="#Calibri-30" x="101.367188"/>
      </g>
     </g>
    </g>
    <g id="ytick_5">
     <g id="line2d_16">
      <g>
       <use xlink:href="#mfd632b7bdc" x="57.6" y="142.59456" style="stroke: #000000; stroke-width: 0.8"/>
      </g>
     </g>
     <g id="text_17">
      <!-- 125 -->
      <g transform="translate(35.39375 145.995341) scale(0.1 -0.1)">
       <use xlink:href="#Calibri-31"/>
       <use xlink:href="#Calibri-32" x="50.683594"/>
       <use xlink:href="#Calibri-35" x="101.367188"/>
      </g>
     </g>
    </g>
    <g id="ytick_6">
     <g id="line2d_17">
      <g>
       <use xlink:href="#mfd632b7bdc" x="57.6" y="109.33056" style="stroke: #000000; stroke-width: 0.8"/>
      </g>
     </g>
     <g id="text_18">
      <!-- 150 -->
      <g transform="translate(35.39375 112.731341) scale(0.1 -0.1)">
       <use xlink:href="#Calibri-31"/>
       <use xlink:href="#Calibri-35" x="50.683594"/>
       <use xlink:href="#Calibri-30" x="101.367188"/>
      </g>
     </g>
    </g>
    <g id="ytick_7">
     <g id="line2d_18">
      <g>
       <use xlink:href="#mfd632b7bdc" x="57.6" y="76.06656" style="stroke: #000000; stroke-width: 0.8"/>
      </g>
     </g>
     <g id="text_19">
      <!-- 175 -->
      <g transform="translate(35.39375 79.467341) scale(0.1 -0.1)">
       <use xlink:href="#Calibri-31"/>
       <use xlink:href="#Calibri-37" x="50.683594"/>
       <use xlink:href="#Calibri-35" x="101.367188"/>
      </g>
     </g>
    </g>
    <g id="ytick_8">
     <g id="line2d_19">
      <g>
       <use xlink:href="#mfd632b7bdc" x="57.6" y="42.80256" style="stroke: #000000; stroke-width: 0.8"/>
      </g>
     </g>
     <g id="text_20">
      <!-- 200 -->
      <g transform="translate(35.39375 46.203341) scale(0.1 -0.1)">
       <use xlink:href="#Calibri-32"/>
       <use xlink:href="#Calibri-30" x="50.683594"/>
       <use xlink:href="#Calibri-30" x="101.367188"/>
      </g>
     </g>
    </g>
    <g id="text_21">
     <!-- $\mathit{Z}$$_{a}$ (nm) -->
     <g transform="translate(29.59375 191.028) rotate(-90) scale(0.1 -0.1)">
      <defs>
       <path id="DejaVuSans-Oblique-5a" d="M 838 4666 
L 4500 4666 
L 4409 4184 
L 794 531 
L 3769 531 
L 3669 0 
L -141 0 
L -50 481 
L 3566 4134 
L 738 4134 
L 838 4666 
z
" transform="scale(0.015625)"/>
       <path id="DejaVuSans-Oblique-61" d="M 3438 1997 
L 3047 0 
L 2472 0 
L 2578 531 
Q 2325 219 2001 64 
Q 1678 -91 1281 -91 
Q 834 -91 548 182 
Q 263 456 263 884 
Q 263 1497 752 1853 
Q 1241 2209 2100 2209 
L 2900 2209 
L 2931 2363 
Q 2938 2388 2941 2417 
Q 2944 2447 2944 2509 
Q 2944 2788 2717 2942 
Q 2491 3097 2081 3097 
Q 1800 3097 1504 3025 
Q 1209 2953 897 2809 
L 997 3341 
Q 1322 3463 1633 3523 
Q 1944 3584 2234 3584 
Q 2853 3584 3176 3315 
Q 3500 3047 3500 2534 
Q 3500 2431 3484 2292 
Q 3469 2153 3438 1997 
z
M 2816 1759 
L 2241 1759 
Q 1534 1759 1195 1570 
Q 856 1381 856 984 
Q 856 709 1029 553 
Q 1203 397 1509 397 
Q 1978 397 2328 733 
Q 2678 1069 2791 1631 
L 2816 1759 
z
" transform="scale(0.015625)"/>
       <path id="Calibri-6e" d="M 2900 78 
Q 2900 53 2887 36 
Q 2875 19 2847 6 
Q 2819 -6 2769 -12 
Q 2719 -19 2644 -19 
Q 2566 -19 2516 -12 
Q 2466 -6 2437 6 
Q 2409 19 2396 36 
Q 2384 53 2384 78 
L 2384 1725 
Q 2384 1966 2346 2112 
Q 2309 2259 2237 2365 
Q 2166 2472 2052 2528 
Q 1938 2584 1788 2584 
Q 1594 2584 1400 2446 
Q 1206 2309 994 2044 
L 994 78 
Q 994 53 981 36 
Q 969 19 941 6 
Q 913 -6 863 -12 
Q 813 -19 734 -19 
Q 659 -19 609 -12 
Q 559 -6 529 6 
Q 500 19 489 36 
Q 478 53 478 78 
L 478 2891 
Q 478 2916 487 2933 
Q 497 2950 525 2964 
Q 553 2978 597 2983 
Q 641 2988 713 2988 
Q 781 2988 826 2983 
Q 872 2978 897 2964 
Q 922 2950 933 2933 
Q 944 2916 944 2891 
L 944 2519 
Q 1181 2784 1417 2907 
Q 1653 3031 1894 3031 
Q 2175 3031 2367 2936 
Q 2559 2841 2678 2681 
Q 2797 2522 2848 2308 
Q 2900 2094 2900 1794 
L 2900 78 
z
" transform="scale(0.015625)"/>
      </defs>
      <use xlink:href="#DejaVuSans-Oblique-5a" transform="translate(0 0.09375)"/>
      <use xlink:href="#DejaVuSans-Oblique-61" transform="translate(69.462891 -16.3125) scale(0.7)"/>
      <use xlink:href="#Calibri-20" transform="translate(115.092773 0.09375)"/>
      <use xlink:href="#Calibri-28" transform="translate(136.575195 0.09375)"/>
      <use xlink:href="#Calibri-6e" transform="translate(166.897461 0.09375)"/>
      <use xlink:href="#Calibri-6d" transform="translate(219.436523 0.09375)"/>
      <use xlink:href="#Calibri-29" transform="translate(299.319336 0.09375)"/>
     </g>
    </g>
   </g>
   <g id="patch_3">
    <path d="M 57.6 307.584 
L 57.6 41.472 
" style="fill: none; stroke: #000000; stroke-width: 0.8; stroke-linejoin: miter; stroke-linecap: square"/>
   </g>
   <g id="patch_4">
    <path d="M 343.296 307.584 
L 343.296 41.472 
" style="fill: none; stroke: #000000; stroke-width: 0.8; stroke-linejoin: miter; stroke-linecap: square"/>
   </g>
   <g id="patch_5">
    <path d="M 57.6 307.584 
L 343.296 307.584 
" style="fill: none; stroke: #000000; stroke-width: 0.8; stroke-linejoin: miter; stroke-linecap: square"/>
   </g>
   <g id="patch_6">
    <path d="M 57.6 41.472 
L 343.296 41.472 
" style="fill: none; stroke: #000000; stroke-width: 0.8; stroke-linejoin: miter; stroke-linecap: square"/>
   </g>
   <g id="text_22">
    <!-- $\lambda$ = 710 nm -->
    <g transform="translate(177.348 35.472) scale(0.1 -0.1)">
     <defs>
      <path id="DejaVuSans-Oblique-3bb" d="M 2350 4316 
L 3125 0 
L 2516 0 
L 2038 2588 
L 328 0 
L -281 0 
L 1903 3356 
L 1794 3975 
Q 1725 4369 1391 4369 
L 1091 4369 
L 1184 4863 
L 1550 4856 
Q 2253 4847 2350 4316 
z
" transform="scale(0.015625)"/>
      <path id="Calibri-3d" d="M 2891 2409 
Q 2891 2284 2855 2236 
Q 2819 2188 2772 2188 
L 409 2188 
Q 363 2188 328 2236 
Q 294 2284 294 2409 
Q 294 2522 325 2575 
Q 356 2628 409 2628 
L 2772 2628 
Q 2828 2628 2859 2575 
Q 2891 2522 2891 2409 
z
M 2891 1194 
Q 2891 1069 2855 1022 
Q 2819 975 2772 975 
L 409 975 
Q 363 975 328 1022 
Q 294 1069 294 1194 
Q 294 1309 325 1362 
Q 356 1416 409 1416 
L 2772 1416 
Q 2828 1416 2859 1362 
Q 2891 1309 2891 1194 
z
" transform="scale(0.015625)"/>
     </defs>
     <use xlink:href="#DejaVuSans-Oblique-3bb" transform="translate(0 0.015625)"/>
     <use xlink:href="#Calibri-20" transform="translate(59.179688 0.015625)"/>
     <use xlink:href="#Calibri-3d" transform="translate(81.787109 0.015625)"/>
     <use xlink:href="#Calibri-20" transform="translate(131.591797 0.015625)"/>
     <use xlink:href="#Calibri-37" transform="translate(154.199219 0.015625)"/>
     <use xlink:href="#Calibri-31" transform="translate(204.882812 0.015625)"/>
     <use xlink:href="#Calibri-30" transform="translate(255.566406 0.015625)"/>
     <use xlink:href="#Calibri-20" transform="translate(306.25 0.015625)"/>
     <use xlink:href="#Calibri-6e" transform="translate(328.857422 0.015625)"/>
     <use xlink:href="#Calibri-6d" transform="translate(381.396484 0.015625)"/>
    </g>
   </g>
  </g>
  <g id="axes_2">
   <g id="patch_7">
    <path d="M 361.152 307.584 
L 374.4576 307.584 
L 374.4576 41.472 
L 361.152 41.472 
z
" style="fill: #ffffff"/>
   </g>
   <g id="QuadMesh_1">
    <path d="M 361.152 307.584 
L 374.4576 307.584 
L 374.4576 280.9728 
L 361.152 280.9728 
L 361.152 307.584 
" clip-path="url(#p7aef7149e3)" style="fill: #0000b6"/>
    <path d="M 361.152 280.9728 
L 374.4576 280.9728 
L 374.4576 254.3616 
L 361.152 254.3616 
L 361.152 280.9728 
" clip-path="url(#p7aef7149e3)" style="fill: #0018ff"/>
    <path d="M 361.152 254.3616 
L 374.4576 254.3616 
L 374.4576 227.7504 
L 361.152 227.7504 
L 361.152 254.3616 
" clip-path="url(#p7aef7149e3)" style="fill: #0080ff"/>
    <path d="M 361.152 227.7504 
L 374.4576 227.7504 
L 374.4576 201.1392 
L 361.152 201.1392 
L 361.152 227.7504 
" clip-path="url(#p7aef7149e3)" style="fill: #00e4f8"/>
    <path d="M 361.152 201.1392 
L 374.4576 201.1392 
L 374.4576 174.528 
L 361.152 174.528 
L 361.152 201.1392 
" clip-path="url(#p7aef7149e3)" style="fill: #53ffa4"/>
    <path d="M 361.152 174.528 
L 374.4576 174.528 
L 374.4576 147.9168 
L 361.152 147.9168 
L 361.152 174.528 
" clip-path="url(#p7aef7149e3)" style="fill: #a4ff53"/>
    <path d="M 361.152 147.9168 
L 374.4576 147.9168 
L 374.4576 121.3056 
L 361.152 121.3056 
L 361.152 147.9168 
" clip-path="url(#p7aef7149e3)" style="fill: #f8f500"/>
    <path d="M 361.152 121.3056 
L 374.4576 121.3056 
L 374.4576 94.6944 
L 361.152 94.6944 
L 361.152 121.3056 
" clip-path="url(#p7aef7149e3)" style="fill: #ff9400"/>
    <path d="M 361.152 94.6944 
L 374.4576 94.6944 
L 374.4576 68.0832 
L 361.152 68.0832 
L 361.152 94.6944 
" clip-path="url(#p7aef7149e3)" style="fill: #ff3800"/>
    <path d="M 361.152 68.0832 
L 374.4576 68.0832 
L 374.4576 41.472 
L 361.152 41.472 
L 361.152 68.0832 
" clip-path="url(#p7aef7149e3)" style="fill: #b60000"/>
   </g>
   <g id="matplotlib.axis_3"/>
   <g id="matplotlib.axis_4">
    <g id="ytick_9">
     <g id="line2d_20">
      <defs>
       <path id="m6e5eb8249d" d="M 0 0 
L 3.5 0 
" style="stroke: #000000; stroke-width: 0.8"/>
      </defs>
      <g>
       <use xlink:href="#m6e5eb8249d" x="374.4576" y="307.584" style="stroke: #000000; stroke-width: 0.8"/>
      </g>
     </g>
     <g id="text_23">
      <!-- 0 -->
      <g transform="translate(381.4576 310.984781) scale(0.1 -0.1)">
       <use xlink:href="#Calibri-30"/>
      </g>
     </g>
    </g>
    <g id="ytick_10">
     <g id="line2d_21">
      <g>
       <use xlink:href="#m6e5eb8249d" x="374.4576" y="280.9728" style="stroke: #000000; stroke-width: 0.8"/>
      </g>
     </g>
     <g id="text_24">
      <!-- 0.1 -->
      <g transform="translate(381.4576 284.373581) scale(0.1 -0.1)">
       <use xlink:href="#Calibri-30"/>
       <use xlink:href="#Calibri-2e" x="50.683594"/>
       <use xlink:href="#Calibri-31" x="75.927734"/>
      </g>
     </g>
    </g>
    <g id="ytick_11">
     <g id="line2d_22">
      <g>
       <use xlink:href="#m6e5eb8249d" x="374.4576" y="254.3616" style="stroke: #000000; stroke-width: 0.8"/>
      </g>
     </g>
     <g id="text_25">
      <!-- 0.2 -->
      <g transform="translate(381.4576 257.762381) scale(0.1 -0.1)">
       <use xlink:href="#Calibri-30"/>
       <use xlink:href="#Calibri-2e" x="50.683594"/>
       <use xlink:href="#Calibri-32" x="75.927734"/>
      </g>
     </g>
    </g>
    <g id="ytick_12">
     <g id="line2d_23">
      <g>
       <use xlink:href="#m6e5eb8249d" x="374.4576" y="227.7504" style="stroke: #000000; stroke-width: 0.8"/>
      </g>
     </g>
     <g id="text_26">
      <!-- 0.3 -->
      <g transform="translate(381.4576 231.151181) scale(0.1 -0.1)">
       <use xlink:href="#Calibri-30"/>
       <use xlink:href="#Calibri-2e" x="50.683594"/>
       <use xlink:href="#Calibri-33" x="75.927734"/>
      </g>
     </g>
    </g>
    <g id="ytick_13">
     <g id="line2d_24">
      <g>
       <use xlink:href="#m6e5eb8249d" x="374.4576" y="201.1392" style="stroke: #000000; stroke-width: 0.8"/>
      </g>
     </g>
     <g id="text_27">
      <!-- 0.4 -->
      <g transform="translate(381.4576 204.539981) scale(0.1 -0.1)">
       <use xlink:href="#Calibri-30"/>
       <use xlink:href="#Calibri-2e" x="50.683594"/>
       <use xlink:href="#Calibri-34" x="75.927734"/>
      </g>
     </g>
    </g>
    <g id="ytick_14">
     <g id="line2d_25">
      <g>
       <use xlink:href="#m6e5eb8249d" x="374.4576" y="174.528" style="stroke: #000000; stroke-width: 0.8"/>
      </g>
     </g>
     <g id="text_28">
      <!-- 0.5 -->
      <g transform="translate(381.4576 177.928781) scale(0.1 -0.1)">
       <use xlink:href="#Calibri-30"/>
       <use xlink:href="#Calibri-2e" x="50.683594"/>
       <use xlink:href="#Calibri-35" x="75.927734"/>
      </g>
     </g>
    </g>
    <g id="ytick_15">
     <g id="line2d_26">
      <g>
       <use xlink:href="#m6e5eb8249d" x="374.4576" y="147.9168" style="stroke: #000000; stroke-width: 0.8"/>
      </g>
     </g>
     <g id="text_29">
      <!-- 0.6 -->
      <g transform="translate(381.4576 151.317581) scale(0.1 -0.1)">
       <use xlink:href="#Calibri-30"/>
       <use xlink:href="#Calibri-2e" x="50.683594"/>
       <use xlink:href="#Calibri-36" x="75.927734"/>
      </g>
     </g>
    </g>
    <g id="ytick_16">
     <g id="line2d_27">
      <g>
       <use xlink:href="#m6e5eb8249d" x="374.4576" y="121.3056" style="stroke: #000000; stroke-width: 0.8"/>
      </g>
     </g>
     <g id="text_30">
      <!-- 0.7 -->
      <g transform="translate(381.4576 124.706381) scale(0.1 -0.1)">
       <use xlink:href="#Calibri-30"/>
       <use xlink:href="#Calibri-2e" x="50.683594"/>
       <use xlink:href="#Calibri-37" x="75.927734"/>
      </g>
     </g>
    </g>
    <g id="ytick_17">
     <g id="line2d_28">
      <g>
       <use xlink:href="#m6e5eb8249d" x="374.4576" y="94.6944" style="stroke: #000000; stroke-width: 0.8"/>
      </g>
     </g>
     <g id="text_31">
      <!-- 0.8 -->
      <g transform="translate(381.4576 98.095181) scale(0.1 -0.1)">
       <use xlink:href="#Calibri-30"/>
       <use xlink:href="#Calibri-2e" x="50.683594"/>
       <use xlink:href="#Calibri-38" x="75.927734"/>
      </g>
     </g>
    </g>
    <g id="ytick_18">
     <g id="line2d_29">
      <g>
       <use xlink:href="#m6e5eb8249d" x="374.4576" y="68.0832" style="stroke: #000000; stroke-width: 0.8"/>
      </g>
     </g>
     <g id="text_32">
      <!-- 0.9 -->
      <g transform="translate(381.4576 71.483981) scale(0.1 -0.1)">
       <use xlink:href="#Calibri-30"/>
       <use xlink:href="#Calibri-2e" x="50.683594"/>
       <use xlink:href="#Calibri-39" x="75.927734"/>
      </g>
     </g>
    </g>
    <g id="ytick_19">
     <g id="line2d_30">
      <g>
       <use xlink:href="#m6e5eb8249d" x="374.4576" y="41.472" style="stroke: #000000; stroke-width: 0.8"/>
      </g>
     </g>
     <g id="text_33">
      <!-- 1.0 -->
      <g transform="translate(381.4576 44.872781) scale(0.1 -0.1)">
       <use xlink:href="#Calibri-31"/>
       <use xlink:href="#Calibri-2e" x="50.683594"/>
       <use xlink:href="#Calibri-30" x="75.927734"/>
      </g>
     </g>
    </g>
   </g>
   <g id="LineCollection_1"/>
   <g id="patch_8">
    <path d="M 361.152 307.584 
L 367.8048 307.584 
L 374.4576 307.584 
L 374.4576 41.472 
L 367.8048 41.472 
L 361.152 41.472 
L 361.152 307.584 
z
" style="fill: none; stroke: #000000; stroke-width: 0.8; stroke-linejoin: miter; stroke-linecap: square"/>
   </g>
   <g id="text_34">
    <!-- $\mathit{E}_{\mathrm{dis}}$/$\mathit{E}_{\mathrm{i}}$ -->
    <g transform="translate(353.2548 35.472) scale(0.1 -0.1)">
     <defs>
      <path id="DejaVuSans-Oblique-45" d="M 1081 4666 
L 4031 4666 
L 3928 4134 
L 1606 4134 
L 1338 2753 
L 3566 2753 
L 3463 2222 
L 1234 2222 
L 909 531 
L 3284 531 
L 3181 0 
L 172 0 
L 1081 4666 
z
" transform="scale(0.015625)"/>
      <path id="DejaVuSans-64" d="M 2906 2969 
L 2906 4863 
L 3481 4863 
L 3481 0 
L 2906 0 
L 2906 525 
Q 2725 213 2448 61 
Q 2172 -91 1784 -91 
Q 1150 -91 751 415 
Q 353 922 353 1747 
Q 353 2572 751 3078 
Q 1150 3584 1784 3584 
Q 2172 3584 2448 3432 
Q 2725 3281 2906 2969 
z
M 947 1747 
Q 947 1113 1208 752 
Q 1469 391 1925 391 
Q 2381 391 2643 752 
Q 2906 1113 2906 1747 
Q 2906 2381 2643 2742 
Q 2381 3103 1925 3103 
Q 1469 3103 1208 2742 
Q 947 2381 947 1747 
z
" transform="scale(0.015625)"/>
      <path id="DejaVuSans-69" d="M 603 3500 
L 1178 3500 
L 1178 0 
L 603 0 
L 603 3500 
z
M 603 4863 
L 1178 4863 
L 1178 4134 
L 603 4134 
L 603 4863 
z
" transform="scale(0.015625)"/>
      <path id="DejaVuSans-73" d="M 2834 3397 
L 2834 2853 
Q 2591 2978 2328 3040 
Q 2066 3103 1784 3103 
Q 1356 3103 1142 2972 
Q 928 2841 928 2578 
Q 928 2378 1081 2264 
Q 1234 2150 1697 2047 
L 1894 2003 
Q 2506 1872 2764 1633 
Q 3022 1394 3022 966 
Q 3022 478 2636 193 
Q 2250 -91 1575 -91 
Q 1294 -91 989 -36 
Q 684 19 347 128 
L 347 722 
Q 666 556 975 473 
Q 1284 391 1588 391 
Q 1994 391 2212 530 
Q 2431 669 2431 922 
Q 2431 1156 2273 1281 
Q 2116 1406 1581 1522 
L 1381 1569 
Q 847 1681 609 1914 
Q 372 2147 372 2553 
Q 372 3047 722 3315 
Q 1072 3584 1716 3584 
Q 2034 3584 2315 3537 
Q 2597 3491 2834 3397 
z
" transform="scale(0.015625)"/>
     </defs>
     <use xlink:href="#DejaVuSans-Oblique-45" transform="translate(0 0.09375)"/>
     <use xlink:href="#DejaVuSans-64" transform="translate(63.183594 -16.3125) scale(0.7)"/>
     <use xlink:href="#DejaVuSans-69" transform="translate(107.617188 -16.3125) scale(0.7)"/>
     <use xlink:href="#DejaVuSans-73" transform="translate(127.06543 -16.3125) scale(0.7)"/>
     <use xlink:href="#Calibri-2f" transform="translate(166.269531 0.09375)"/>
     <use xlink:href="#DejaVuSans-Oblique-45" transform="translate(204.892578 0.09375)"/>
     <use xlink:href="#DejaVuSans-69" transform="translate(268.076172 -16.3125) scale(0.7)"/>
    </g>
   </g>
  </g>
 </g>
 <defs>
  <clipPath id="p912cf4f91b">
   <rect x="57.6" y="41.472" width="285.696" height="266.112"/>
  </clipPath>
  <clipPath id="p7aef7149e3">
   <rect x="361.152" y="41.472" width="13.3056" height="266.112"/>
  </clipPath>
 </defs>
</svg>
