<?xml version="1.0" encoding="utf-8" standalone="no"?>
<!DOCTYPE svg PUBLIC "-//W3C//DTD SVG 1.1//EN"
  "http://www.w3.org/Graphics/SVG/1.1/DTD/svg11.dtd">
<svg xmlns:xlink="http://www.w3.org/1999/xlink" width="460.8pt" height="345.6pt" viewBox="0 0 460.8 345.6" xmlns="http://www.w3.org/2000/svg" version="1.1">
 <metadata>
  <rdf:RDF xmlns:dc="http://purl.org/dc/elements/1.1/" xmlns:cc="http://creativecommons.org/ns#" xmlns:rdf="http://www.w3.org/1999/02/22-rdf-syntax-ns#">
   <cc:Work>
    <dc:type rdf:resource="http://purl.org/dc/dcmitype/StillImage"/>
    <dc:date>2024-01-22T08:50:12.593194</dc:date>
    <dc:format>image/svg+xml</dc:format>
    <dc:creator>
     <cc:Agent>
      <dc:title>Matplotlib v3.7.1, https://matplotlib.org/</dc:title>
     </cc:Agent>
    </dc:creator>
   </cc:Work>
  </rdf:RDF>
 </metadata>
 <defs>
  <style type="text/css">*{stroke-linejoin: round; stroke-linecap: butt}</style>
 </defs>
 <g id="figure_1">
  <g id="patch_1">
   <path d="M 0 345.6 
L 460.8 345.6 
L 460.8 0 
L 0 0 
z
" style="fill: #ffffff"/>
  </g>
  <g id="axes_1">
   <g id="patch_2">
    <path d="M 57.6 307.584 
L 343.296 307.584 
L 343.296 41.472 
L 57.6 41.472 
z
" style="fill: #ffffff"/>
   </g>
   <g id="PathCollection_1">
    <path clip-path="url(#p6b823e4f0f)" style="fill: #0000b6"/>
   </g>
   <g id="PathCollection_2">
    <path clip-path="url(#p6b823e4f0f)" style="fill: #0018ff"/>
   </g>
   <g id="PathCollection_3">
    <path d="M 57.62857 59.135428 
L 57.794713 58.979649 
L 58.699914 58.104 
L 59.012145 57.79807 
L 59.52764 57.284559 
L 60.363808 56.458642 
L 61.069739 55.75188 
L 61.087144 55.734504 
L 62.029789 54.7776 
L 62.109365 54.695908 
L 62.976536 53.80332 
L 63.180083 53.591451 
L 63.351789 53.40985 
L 63.972059 52.761652 
L 65.209962 51.4512 
L 65.234885 51.424468 
L 65.283772 51.371207 
L 66.505061 50.050417 
L 67.176053 49.315555 
L 67.2698 49.214072 
L 67.374378 49.09908 
L 68.057833 48.338858 
L 68.250688 48.1248 
L 68.270251 48.102824 
L 69.116434 47.15052 
L 69.284387 46.959296 
L 69.443063 46.775884 
L 70.059716 46.07095 
L 71.15957 44.7984 
L 71.278236 44.659247 
L 71.558518 44.325674 
L 72.552876 43.149732 
L 73.140748 42.44628 
L 73.250976 42.313114 
L 73.944358 41.472 
L 72.86569 41.472 
L 71.341978 41.472 
L 69.818266 41.472 
L 68.294554 41.472 
L 66.770842 41.472 
L 65.24713 41.472 
L 63.723418 41.472 
L 62.199706 41.472 
L 60.675994 41.472 
L 59.152282 41.472 
L 57.62857 41.472 
L 57.62857 44.7984 
L 57.62857 48.1248 
L 57.62857 51.4512 
L 57.62857 54.7776 
L 57.62857 58.104 
" clip-path="url(#p6b823e4f0f)" style="fill: #0080ff"/>
   </g>
   <g id="PathCollection_4">
    <path d="M 73.944358 41.472 
L 73.250976 42.313114 
L 73.140748 42.44628 
L 72.552876 43.149732 
L 71.558518 44.325674 
L 71.278236 44.659247 
L 71.15957 44.7984 
L 70.059716 46.07095 
L 69.443063 46.775884 
L 69.284387 46.959296 
L 69.116434 47.15052 
L 68.270251 48.102824 
L 68.250688 48.1248 
L 68.057833 48.338858 
L 67.374378 49.09908 
L 67.2698 49.214072 
L 67.176053 49.315555 
L 66.505061 50.050417 
L 65.283772 51.371207 
L 65.234885 51.424468 
L 65.209962 51.4512 
L 63.972059 52.761652 
L 63.351789 53.40985 
L 63.180083 53.591451 
L 62.976536 53.80332 
L 62.109365 54.695908 
L 62.029789 54.7776 
L 61.087144 55.734504 
L 61.069739 55.75188 
L 60.363808 56.458642 
L 59.52764 57.284559 
L 59.012145 57.79807 
L 58.699914 58.104 
L 57.794713 58.979649 
L 57.62857 59.135428 
L 57.62857 61.4304 
L 57.62857 64.7568 
L 57.62857 68.0832 
L 57.62857 71.4096 
L 57.62857 74.736 
L 57.62857 78.0624 
L 57.62857 81.3888 
L 57.62857 84.7152 
L 57.62857 88.0416 
L 57.62857 91.368 
L 57.62857 94.6944 
L 57.62857 98.0208 
L 57.62857 101.3472 
L 57.62857 104.6736 
L 57.62857 108 
L 57.62857 108.113275 
L 57.670811 108.092217 
L 57.848744 108 
L 58.675834 107.569165 
L 59.70615 107.02572 
L 60.127109 106.801735 
L 60.288991 106.713275 
L 60.991768 106.33787 
L 61.586298 106.012724 
L 62.571064 105.484308 
L 63.686195 104.86978 
L 63.753736 104.833394 
L 64.043455 104.6736 
L 65.002185 104.138864 
L 65.666176 103.758785 
L 66.507536 103.285864 
L 67.098643 102.94594 
L 67.420283 102.764989 
L 68.188418 102.32148 
L 68.908194 101.902094 
L 69.142415 101.766518 
L 69.852503 101.3472 
L 70.530245 100.94575 
L 70.750703 100.812531 
L 71.483087 100.37292 
L 72.216011 99.928894 
L 72.542074 99.7264 
L 73.12233 99.37341 
L 74.027575 98.810701 
L 74.592928 98.465116 
L 75.301999 98.0208 
L 75.847496 97.674966 
L 75.997109 97.578105 
L 76.95546 96.969935 
L 78.326486 96.078591 
L 78.563283 95.92709 
L 78.958805 95.66868 
L 80.262618 94.80401 
L 80.428367 94.6944 
L 80.460457 94.672885 
L 80.648464 94.545907 
L 81.872413 93.72012 
L 82.38733 93.36744 
L 82.723331 93.132685 
L 83.952432 92.286553 
L 85.024399 91.531312 
L 85.079185 91.493433 
L 85.257032 91.368 
L 86.253308 90.656771 
L 87.232364 89.941862 
L 87.760123 89.561888 
L 88.503995 89.01588 
L 88.522179 89.002569 
L 88.76052 88.824696 
L 89.710299 88.117357 
L 89.811364 88.0416 
L 90.942799 87.185445 
L 91.095901 87.06732 
L 91.53275 86.731231 
L 91.872372 86.465106 
L 93.056111 85.549501 
L 94.111596 84.7152 
L 94.186311 84.655398 
L 94.213154 84.633526 
L 95.289035 83.771374 
L 96.672355 82.639114 
L 96.827389 82.513774 
L 97.010489 82.36308 
L 97.266548 82.152982 
L 98.180291 81.3888 
L 98.398335 81.205587 
L 98.484536 81.131755 
L 99.328874 80.41452 
L 99.700186 80.095714 
L 99.947894 79.878659 
L 100.540181 79.367761 
L 101.673892 78.373109 
L 101.877598 78.196398 
L 102.028949 78.0624 
L 103.149286 77.057622 
L 103.33993 76.880629 
L 103.33993 74.736 
L 103.33993 71.4096 
L 103.33993 68.0832 
L 103.33993 64.7568 
L 103.33993 61.4304 
L 103.33993 58.104 
L 103.33993 54.7776 
L 103.33993 51.4512 
L 103.33993 48.1248 
L 103.33993 44.7984 
L 103.33993 41.472 
L 101.816218 41.472 
L 100.292506 41.472 
L 98.768794 41.472 
L 97.245082 41.472 
L 95.72137 41.472 
L 94.197658 41.472 
L 92.673946 41.472 
L 91.150234 41.472 
L 89.626522 41.472 
L 88.10281 41.472 
L 86.579098 41.472 
L 85.055386 41.472 
L 83.531674 41.472 
L 82.007962 41.472 
L 80.48425 41.472 
L 78.960538 41.472 
L 77.436826 41.472 
L 75.913114 41.472 
L 74.389402 41.472 
" clip-path="url(#p6b823e4f0f)" style="fill: #00e4f8"/>
   </g>
   <g id="PathCollection_5">
    <path d="M 103.33993 76.880629 
L 103.149286 77.057622 
L 102.028949 78.0624 
L 101.877598 78.196398 
L 101.673892 78.373109 
L 100.540181 79.367761 
L 99.947894 79.878659 
L 99.700186 80.095714 
L 99.328874 80.41452 
L 98.484536 81.131755 
L 98.398335 81.205587 
L 98.180291 81.3888 
L 97.266548 82.152982 
L 97.010489 82.36308 
L 96.827389 82.513774 
L 96.672355 82.639114 
L 95.289035 83.771374 
L 94.213154 84.633526 
L 94.186311 84.655398 
L 94.111596 84.7152 
L 93.056111 85.549501 
L 91.872372 86.465106 
L 91.53275 86.731231 
L 91.095901 87.06732 
L 90.942799 87.185445 
L 89.811364 88.0416 
L 89.710299 88.117357 
L 88.76052 88.824696 
L 88.522179 89.002569 
L 88.503995 89.01588 
L 87.760123 89.561888 
L 87.232364 89.941862 
L 86.253308 90.656771 
L 85.257032 91.368 
L 85.079185 91.493433 
L 85.024399 91.531312 
L 83.952432 92.286553 
L 82.723331 93.132685 
L 82.38733 93.36744 
L 81.872413 93.72012 
L 80.648464 94.545907 
L 80.460457 94.672885 
L 80.428367 94.6944 
L 80.262618 94.80401 
L 78.958805 95.66868 
L 78.563283 95.92709 
L 78.326486 96.078591 
L 76.95546 96.969935 
L 75.997109 97.578105 
L 75.847496 97.674966 
L 75.301999 98.0208 
L 74.592928 98.465116 
L 74.027575 98.810701 
L 73.12233 99.37341 
L 72.542074 99.7264 
L 72.216011 99.928894 
L 71.483087 100.37292 
L 70.750703 100.812531 
L 70.530245 100.94575 
L 69.852503 101.3472 
L 69.142415 101.766518 
L 68.908194 101.902094 
L 68.188418 102.32148 
L 67.420283 102.764989 
L 67.098643 102.94594 
L 66.507536 103.285864 
L 65.666176 103.758785 
L 65.002185 104.138864 
L 64.043455 104.6736 
L 63.753736 104.833394 
L 63.686195 104.86978 
L 62.571064 105.484308 
L 61.586298 106.012724 
L 60.991768 106.33787 
L 60.288991 106.713275 
L 60.127109 106.801735 
L 59.70615 107.02572 
L 58.675834 107.569165 
L 57.848744 108 
L 57.670811 108.092217 
L 57.62857 108.113275 
L 57.62857 111.3264 
L 57.62857 114.6528 
L 57.62857 117.9792 
L 57.62857 121.3056 
L 57.62857 124.632 
L 57.62857 127.9584 
L 57.62857 131.2848 
L 57.62857 134.6112 
L 57.62857 137.9376 
L 57.62857 141.264 
L 57.62857 144.5904 
L 57.62857 147.9168 
L 57.62857 148.155472 
L 57.72726 148.13225 
L 58.586314 147.9168 
L 59.029012 147.805332 
L 59.373616 147.716655 
L 60.975212 147.311215 
L 61.405916 147.199003 
L 62.395346 146.94252 
L 63.182962 146.736938 
L 63.323434 146.698493 
L 64.085523 146.498858 
L 64.414152 146.408865 
L 65.900999 146.017855 
L 66.533071 145.843558 
L 66.985934 145.724031 
L 67.889473 145.474726 
L 68.611942 145.283287 
L 69.746622 144.967995 
L 69.883026 144.931717 
L 71.110608 144.5904 
L 71.31562 144.532859 
L 71.376531 144.514967 
L 72.776298 144.119265 
L 72.965679 144.063409 
L 74.012376 143.76732 
L 74.884732 143.509049 
L 75.665719 143.286518 
L 76.190087 143.130629 
L 76.701374 142.984844 
L 78.405195 142.476363 
L 78.551455 142.434353 
L 79.205709 142.23828 
L 79.331035 142.200799 
L 79.508636 142.146214 
L 80.97 141.703247 
L 82.39422 141.264 
L 83.093231 141.047164 
L 83.240108 141.000347 
L 84.138059 140.715667 
L 84.95418 140.460382 
L 85.485095 140.28972 
L 85.50072 140.284708 
L 85.504552 140.28343 
L 87.377263 139.680067 
L 87.799104 139.538265 
L 88.371387 139.353125 
L 89.088656 139.111809 
L 90.025007 138.807529 
L 91.051194 138.459585 
L 91.237725 138.398717 
L 92.596493 137.9376 
L 92.663432 137.914648 
L 92.688573 137.905668 
L 94.099103 137.418176 
L 94.310612 137.342278 
L 95.293003 137.002438 
L 96.319123 136.63265 
L 96.955386 136.410775 
L 97.577517 136.185519 
L 97.912642 136.068543 
L 99.241038 135.58548 
L 99.671638 135.427611 
L 100.102207 135.270652 
L 101.782108 134.642044 
L 101.830518 134.624131 
L 101.864832 134.6112 
L 103.12188 134.135179 
L 103.33993 134.048336 
L 103.33993 131.2848 
L 103.33993 127.9584 
L 103.33993 124.632 
L 103.33993 121.3056 
L 103.33993 117.9792 
L 103.33993 114.6528 
L 103.33993 111.3264 
L 103.33993 108 
L 103.33993 104.6736 
L 103.33993 101.3472 
L 103.33993 98.0208 
L 103.33993 94.6944 
L 103.33993 91.368 
L 103.33993 88.0416 
L 103.33993 84.7152 
L 103.33993 81.3888 
L 103.33993 78.0624 
" clip-path="url(#p6b823e4f0f)" style="fill: #53ffa4"/>
   </g>
   <g id="PathCollection_6">
    <path d="M 103.33993 134.048336 
L 103.12188 134.135179 
L 101.864832 134.6112 
L 101.830518 134.624131 
L 101.782108 134.642044 
L 100.102207 135.270652 
L 99.671638 135.427611 
L 99.241038 135.58548 
L 97.912642 136.068543 
L 97.577517 136.185519 
L 96.955386 136.410775 
L 96.319123 136.63265 
L 95.293003 137.002438 
L 94.310612 137.342278 
L 94.099103 137.418176 
L 92.688573 137.905668 
L 92.663432 137.914648 
L 92.596493 137.9376 
L 91.237725 138.398717 
L 91.051194 138.459585 
L 90.025007 138.807529 
L 89.088656 139.111809 
L 88.371387 139.353125 
L 87.799104 139.538265 
L 87.377263 139.680067 
L 85.504552 140.28343 
L 85.50072 140.284708 
L 85.485095 140.28972 
L 84.95418 140.460382 
L 84.138059 140.715667 
L 83.240108 141.000347 
L 83.093231 141.047164 
L 82.39422 141.264 
L 80.97 141.703247 
L 79.508636 142.146214 
L 79.331035 142.200799 
L 79.205709 142.23828 
L 78.551455 142.434353 
L 78.405195 142.476363 
L 76.701374 142.984844 
L 76.190087 143.130629 
L 75.665719 143.286518 
L 74.884732 143.509049 
L 74.012376 143.76732 
L 72.965679 144.063409 
L 72.776298 144.119265 
L 71.376531 144.514967 
L 71.31562 144.532859 
L 71.110608 144.5904 
L 69.883026 144.931717 
L 69.746622 144.967995 
L 68.611942 145.283287 
L 67.889473 145.474726 
L 66.985934 145.724031 
L 66.533071 145.843558 
L 65.900999 146.017855 
L 64.414152 146.408865 
L 64.085523 146.498858 
L 63.323434 146.698493 
L 63.182962 146.736938 
L 62.395346 146.94252 
L 61.405916 147.199003 
L 60.975212 147.311215 
L 59.373616 147.716655 
L 59.029012 147.805332 
L 58.586314 147.9168 
L 57.72726 148.13225 
L 57.62857 148.155472 
L 57.62857 151.2432 
L 57.62857 154.5696 
L 57.62857 157.896 
L 57.62857 161.2224 
L 57.62857 164.5488 
L 57.62857 167.8752 
L 57.62857 171.2016 
L 57.62857 174.528 
L 57.62857 177.8544 
L 57.62857 181.1808 
L 57.62857 182.985778 
L 57.920796 182.967037 
L 58.43258 182.936028 
L 59.920555 182.82999 
L 60.352777 182.803703 
L 61.008084 182.756936 
L 61.387421 182.73391 
L 63.066969 182.613885 
L 63.360788 182.595983 
L 64.096031 182.543364 
L 64.340746 182.528483 
L 66.215042 182.394161 
L 66.368146 182.384815 
L 67.184656 182.326213 
L 67.292507 182.319643 
L 69.364824 182.170704 
L 69.374829 182.170092 
L 69.583386 182.15508 
L 70.178194 182.112372 
L 70.324215 182.101127 
L 72.208746 181.964589 
L 72.835534 181.919452 
L 73.641404 181.857188 
L 75.026116 181.756559 
L 75.486371 181.723316 
L 76.963514 181.608799 
L 77.839521 181.544943 
L 80.102385 181.369655 
L 80.29071 181.355811 
L 80.648831 181.329625 
L 80.767708 181.320987 
L 82.563431 181.1808 
L 83.454462 181.110981 
L 83.624496 181.096864 
L 86.028738 180.908615 
L 86.256935 180.88948 
L 86.966682 180.830321 
L 88.65033 180.698015 
L 89.054952 180.663949 
L 90.314673 180.558529 
L 91.000168 180.501451 
L 91.848363 180.434254 
L 93.668674 180.281301 
L 94.563177 180.20652 
L 94.642665 180.199788 
L 94.647228 180.199348 
L 96.715115 180.023836 
L 96.835679 180.012132 
L 97.641481 179.943599 
L 97.819722 179.926309 
L 99.646538 179.770595 
L 99.934258 179.742524 
L 100.639326 179.6823 
L 100.994792 179.647646 
L 102.575651 179.512311 
L 103.033888 179.467378 
L 103.33993 179.438373 
L 103.33993 177.8544 
L 103.33993 174.528 
L 103.33993 171.2016 
L 103.33993 167.8752 
L 103.33993 164.5488 
L 103.33993 161.2224 
L 103.33993 157.896 
L 103.33993 154.5696 
L 103.33993 151.2432 
L 103.33993 147.9168 
L 103.33993 144.5904 
L 103.33993 141.264 
L 103.33993 137.9376 
L 103.33993 134.6112 
" clip-path="url(#p6b823e4f0f)" style="fill: #a4ff53"/>
   </g>
   <g id="PathCollection_7">
    <path d="M 103.33993 179.438373 
L 103.033888 179.467378 
L 102.575651 179.512311 
L 100.994792 179.647646 
L 100.639326 179.6823 
L 99.934258 179.742524 
L 99.646538 179.770595 
L 97.819722 179.926309 
L 97.641481 179.943599 
L 96.835679 180.012132 
L 96.715115 180.023836 
L 94.647228 180.199348 
L 94.642665 180.199788 
L 94.563177 180.20652 
L 93.668674 180.281301 
L 91.848363 180.434254 
L 91.000168 180.501451 
L 90.314673 180.558529 
L 89.054952 180.663949 
L 88.65033 180.698015 
L 86.966682 180.830321 
L 86.256935 180.88948 
L 86.028738 180.908615 
L 83.624496 181.096864 
L 83.454462 181.110981 
L 82.563431 181.1808 
L 80.767708 181.320987 
L 80.648831 181.329625 
L 80.29071 181.355811 
L 80.102385 181.369655 
L 77.839521 181.544943 
L 76.963514 181.608799 
L 75.486371 181.723316 
L 75.026116 181.756559 
L 73.641404 181.857188 
L 72.835534 181.919452 
L 72.208746 181.964589 
L 70.324215 182.101127 
L 70.178194 182.112372 
L 69.583386 182.15508 
L 69.374829 182.170092 
L 69.364824 182.170704 
L 67.292507 182.319643 
L 67.184656 182.326213 
L 66.368146 182.384815 
L 66.215042 182.394161 
L 64.340746 182.528483 
L 64.096031 182.543364 
L 63.360788 182.595983 
L 63.066969 182.613885 
L 61.387421 182.73391 
L 61.008084 182.756936 
L 60.352777 182.803703 
L 59.920555 182.82999 
L 58.43258 182.936028 
L 57.920796 182.967037 
L 57.62857 182.985778 
L 57.62857 184.5072 
L 57.62857 187.8336 
L 57.62857 191.16 
L 57.62857 194.4864 
L 57.62857 197.8128 
L 57.62857 201.1392 
L 57.62857 204.4656 
L 57.62857 207.792 
L 57.62857 211.1184 
L 57.62857 214.4448 
L 57.62857 214.783488 
L 57.78907 214.795186 
L 58.698812 214.854857 
L 59.681555 214.923404 
L 61.048738 215.014022 
L 61.532417 215.048206 
L 62.980305 215.150669 
L 63.71934 215.200383 
L 64.360691 215.246376 
L 66.286493 215.384661 
L 66.765299 215.41908 
L 67.211026 215.451232 
L 67.232664 215.453 
L 69.288033 215.602346 
L 69.408641 215.612297 
L 70.216668 215.671442 
L 70.3866 215.685525 
L 72.234926 215.821814 
L 72.500027 215.843998 
L 73.221187 215.897568 
L 73.543568 215.924668 
L 75.179168 216.04707 
L 75.592641 216.082168 
L 76.224546 216.12981 
L 76.703676 216.170669 
L 78.120671 216.278303 
L 78.686525 216.327034 
L 79.226706 216.368376 
L 79.86704 216.423776 
L 81.059345 216.515715 
L 81.781726 216.578836 
L 82.227624 216.613481 
L 83.033779 216.684252 
L 83.995095 216.75951 
L 84.878289 216.837824 
L 85.227258 216.865353 
L 86.20402 216.952372 
L 86.92782 217.009908 
L 87.976266 217.104261 
L 88.225564 217.124231 
L 89.377894 217.228425 
L 89.857417 217.267135 
L 91.075709 217.378421 
L 91.222493 217.390363 
L 92.555542 217.512715 
L 92.783777 217.531427 
L 94.176672 217.660595 
L 94.217996 217.66401 
L 95.368352 217.7712 
L 95.706989 217.802594 
L 95.737181 217.805718 
L 97.212316 217.943889 
L 97.279169 217.950855 
L 98.628334 218.077836 
L 98.923445 218.108819 
L 100.205316 218.230726 
L 100.383266 218.249548 
L 101.546197 218.36068 
L 102.113953 218.421183 
L 103.196763 218.525752 
L 103.33993 218.54027 
L 103.33993 217.7712 
L 103.33993 214.4448 
L 103.33993 211.1184 
L 103.33993 207.792 
L 103.33993 204.4656 
L 103.33993 201.1392 
L 103.33993 197.8128 
L 103.33993 194.4864 
L 103.33993 191.16 
L 103.33993 187.8336 
L 103.33993 184.5072 
L 103.33993 181.1808 
" clip-path="url(#p6b823e4f0f)" style="fill: #f8f500"/>
   </g>
   <g id="PathCollection_8">
    <path d="M 103.33993 218.54027 
L 103.196763 218.525752 
L 102.113953 218.421183 
L 101.546197 218.36068 
L 100.383266 218.249548 
L 100.205316 218.230726 
L 98.923445 218.108819 
L 98.628334 218.077836 
L 97.279169 217.950855 
L 97.212316 217.943889 
L 95.737181 217.805718 
L 95.706989 217.802594 
L 95.368352 217.7712 
L 94.217996 217.66401 
L 94.176672 217.660595 
L 92.783777 217.531427 
L 92.555542 217.512715 
L 91.222493 217.390363 
L 91.075709 217.378421 
L 89.857417 217.267135 
L 89.377894 217.228425 
L 88.225564 217.124231 
L 87.976266 217.104261 
L 86.92782 217.009908 
L 86.20402 216.952372 
L 85.227258 216.865353 
L 84.878289 216.837824 
L 83.995095 216.75951 
L 83.033779 216.684252 
L 82.227624 216.613481 
L 81.781726 216.578836 
L 81.059345 216.515715 
L 79.86704 216.423776 
L 79.226706 216.368376 
L 78.686525 216.327034 
L 78.120671 216.278303 
L 76.703676 216.170669 
L 76.224546 216.12981 
L 75.592641 216.082168 
L 75.179168 216.04707 
L 73.543568 215.924668 
L 73.221187 215.897568 
L 72.500027 215.843998 
L 72.234926 215.821814 
L 70.3866 215.685525 
L 70.216668 215.671442 
L 69.408641 215.612297 
L 69.288033 215.602346 
L 67.232664 215.453 
L 67.211026 215.451232 
L 66.765299 215.41908 
L 66.286493 215.384661 
L 64.360691 215.246376 
L 63.71934 215.200383 
L 62.980305 215.150669 
L 61.532417 215.048206 
L 61.048738 215.014022 
L 59.681555 214.923404 
L 58.698812 214.854857 
L 57.78907 214.795186 
L 57.62857 214.783488 
L 57.62857 217.7712 
L 57.62857 221.0976 
L 57.62857 224.424 
L 57.62857 227.7504 
L 57.62857 231.0768 
L 57.62857 234.4032 
L 57.62857 237.7296 
L 57.62857 241.056 
L 57.62857 244.3824 
L 57.62857 245.144003 
L 57.778108 245.170533 
L 58.717773 245.330971 
L 59.664336 245.500261 
L 60.438629 245.633417 
L 60.930124 245.721778 
L 61.538134 245.82667 
L 62.980701 246.087383 
L 63.386538 246.157907 
L 64.084353 246.284688 
L 64.354206 246.331733 
L 66.303111 246.687702 
L 66.332462 246.692857 
L 66.559353 246.73452 
L 67.385767 246.887016 
L 68.895228 247.165631 
L 71.074148 247.576342 
L 71.227029 247.604856 
L 71.417608 247.64041 
L 71.776548 247.7088 
L 73.93366 248.120911 
L 75.095801 248.347572 
L 75.851137 248.493017 
L 76.441018 248.609274 
L 76.815329 248.68308 
L 78.373564 248.990217 
L 78.580607 249.032796 
L 79.312931 249.177928 
L 79.66696 249.250983 
L 81.16482 249.549454 
L 81.749112 249.670949 
L 82.247851 249.770879 
L 83.026998 249.933448 
L 83.951068 250.119625 
L 84.920337 250.323434 
L 85.180436 250.376131 
L 86.394548 250.632313 
L 86.732141 250.701093 
L 88.094384 250.990792 
L 88.110605 250.994115 
L 88.303117 251.0352 
L 89.508777 251.292247 
L 89.770933 251.350463 
L 91.038731 251.62287 
L 91.271604 251.674878 
L 92.281214 251.892569 
L 93.156764 252.089236 
L 93.964366 252.264749 
L 94.451845 252.37488 
L 95.048136 252.504929 
L 96.551041 252.846448 
L 96.88739 252.920393 
L 97.635204 253.09132 
L 97.809353 253.129744 
L 98.929627 253.38732 
L 99.660571 253.555196 
L 100.657726 253.788658 
L 101.364075 253.952743 
L 102.083483 254.119921 
L 103.103903 254.3616 
L 103.316844 254.411999 
L 103.33993 254.417513 
L 103.33993 254.3616 
L 103.33993 251.0352 
L 103.33993 247.7088 
L 103.33993 244.3824 
L 103.33993 241.056 
L 103.33993 237.7296 
L 103.33993 234.4032 
L 103.33993 231.0768 
L 103.33993 227.7504 
L 103.33993 224.424 
L 103.33993 221.0976 
" clip-path="url(#p6b823e4f0f)" style="fill: #ff9400"/>
   </g>
   <g id="PathCollection_9">
    <path d="M 103.33993 254.417513 
L 103.316844 254.411999 
L 103.103903 254.3616 
L 102.083483 254.119921 
L 101.364075 253.952743 
L 100.657726 253.788658 
L 99.660571 253.555196 
L 98.929627 253.38732 
L 97.809353 253.129744 
L 97.635204 253.09132 
L 96.88739 252.920393 
L 96.551041 252.846448 
L 95.048136 252.504929 
L 94.451845 252.37488 
L 93.964366 252.264749 
L 93.156764 252.089236 
L 92.281214 251.892569 
L 91.271604 251.674878 
L 91.038731 251.62287 
L 89.770933 251.350463 
L 89.508777 251.292247 
L 88.303117 251.0352 
L 88.110605 250.994115 
L 88.094384 250.990792 
L 86.732141 250.701093 
L 86.394548 250.632313 
L 85.180436 250.376131 
L 84.920337 250.323434 
L 83.951068 250.119625 
L 83.026998 249.933448 
L 82.247851 249.770879 
L 81.749112 249.670949 
L 81.16482 249.549454 
L 79.66696 249.250983 
L 79.312931 249.177928 
L 78.580607 249.032796 
L 78.373564 248.990217 
L 76.815329 248.68308 
L 76.441018 248.609274 
L 75.851137 248.493017 
L 75.095801 248.347572 
L 73.93366 248.120911 
L 71.776548 247.7088 
L 71.417608 247.64041 
L 71.227029 247.604856 
L 71.074148 247.576342 
L 68.895228 247.165631 
L 67.385767 246.887016 
L 66.559353 246.73452 
L 66.332462 246.692857 
L 66.303111 246.687702 
L 64.354206 246.331733 
L 64.084353 246.284688 
L 63.386538 246.157907 
L 62.980701 246.087383 
L 61.538134 245.82667 
L 60.930124 245.721778 
L 60.438629 245.633417 
L 59.664336 245.500261 
L 58.717773 245.330971 
L 57.778108 245.170533 
L 57.62857 245.144003 
L 57.62857 247.7088 
L 57.62857 251.0352 
L 57.62857 254.3616 
L 57.62857 257.688 
L 57.62857 261.0144 
L 57.62857 264.3408 
L 57.62857 267.6672 
L 57.62857 270.9936 
L 57.62857 274.32 
L 57.62857 275.689486 
L 57.982638 275.7803 
L 58.341636 275.876688 
L 59.787821 276.258961 
L 60.446496 276.436845 
L 60.883477 276.552871 
L 61.814319 276.805067 
L 62.501183 276.988247 
L 63.658382 277.303635 
L 63.782161 277.336796 
L 64.914457 277.6464 
L 65.209916 277.72764 
L 65.295324 277.751612 
L 66.678308 278.134093 
L 66.873835 278.189223 
L 67.913744 278.477742 
L 68.78893 278.725668 
L 69.572021 278.944219 
L 70.092622 279.09238 
L 70.612895 279.238052 
L 72.29085 279.717874 
L 72.46343 279.766485 
L 73.271066 279.99852 
L 73.296936 280.005958 
L 73.331226 280.015928 
L 74.93414 280.480212 
L 75.218539 280.562743 
L 76.615436 280.9728 
L 77.130958 281.12407 
L 77.2353 281.155032 
L 77.835805 281.333583 
L 78.665896 281.580648 
L 79.528824 281.836759 
L 79.896298 281.94708 
L 81.359767 282.387868 
L 81.662983 282.481009 
L 82.315472 282.678485 
L 82.867184 282.848559 
L 84.03368 283.203276 
L 84.898342 283.471508 
L 85.195217 283.562227 
L 86.415546 283.942152 
L 86.702315 284.030206 
L 87.560809 284.2992 
L 88.072265 284.460181 
L 88.137307 284.481019 
L 89.365529 284.868971 
L 89.977831 285.066139 
L 90.946308 285.373979 
L 91.380841 285.514604 
L 92.023328 285.719556 
L 93.552412 286.21697 
L 93.817629 286.302118 
L 94.627955 286.567058 
L 94.67552 286.582384 
L 94.885255 286.65132 
L 96.287715 287.113474 
L 96.569015 287.206389 
L 97.824335 287.6256 
L 98.388353 287.81375 
L 98.513908 287.856084 
L 99.327989 288.131261 
L 100.712773 288.59988 
L 100.737211 288.608206 
L 100.743622 288.610428 
L 102.597945 289.245418 
L 103.045768 289.401637 
L 103.33993 289.504029 
L 103.33993 287.6256 
L 103.33993 284.2992 
L 103.33993 280.9728 
L 103.33993 277.6464 
L 103.33993 274.32 
L 103.33993 270.9936 
L 103.33993 267.6672 
L 103.33993 264.3408 
L 103.33993 261.0144 
L 103.33993 257.688 
" clip-path="url(#p6b823e4f0f)" style="fill: #ff3800"/>
   </g>
   <g id="PathCollection_10">
    <path d="M 103.33993 289.504029 
L 103.045768 289.401637 
L 102.597945 289.245418 
L 100.743622 288.610428 
L 100.737211 288.608206 
L 100.712773 288.59988 
L 99.327989 288.131261 
L 98.513908 287.856084 
L 98.388353 287.81375 
L 97.824335 287.6256 
L 96.569015 287.206389 
L 96.287715 287.113474 
L 94.885255 286.65132 
L 94.67552 286.582384 
L 94.627955 286.567058 
L 93.817629 286.302118 
L 93.552412 286.21697 
L 92.023328 285.719556 
L 91.380841 285.514604 
L 90.946308 285.373979 
L 89.977831 285.066139 
L 89.365529 284.868971 
L 88.137307 284.481019 
L 88.072265 284.460181 
L 87.560809 284.2992 
L 86.702315 284.030206 
L 86.415546 283.942152 
L 85.195217 283.562227 
L 84.898342 283.471508 
L 84.03368 283.203276 
L 82.867184 282.848559 
L 82.315472 282.678485 
L 81.662983 282.481009 
L 81.359767 282.387868 
L 79.896298 281.94708 
L 79.528824 281.836759 
L 78.665896 281.580648 
L 77.835805 281.333583 
L 77.2353 281.155032 
L 77.130958 281.12407 
L 76.615436 280.9728 
L 75.218539 280.562743 
L 74.93414 280.480212 
L 73.331226 280.015928 
L 73.296936 280.005958 
L 73.271066 279.99852 
L 72.46343 279.766485 
L 72.29085 279.717874 
L 70.612895 279.238052 
L 70.092622 279.09238 
L 69.572021 278.944219 
L 68.78893 278.725668 
L 67.913744 278.477742 
L 66.873835 278.189223 
L 66.678308 278.134093 
L 65.295324 277.751612 
L 65.209916 277.72764 
L 64.914457 277.6464 
L 63.782161 277.336796 
L 63.658382 277.303635 
L 62.501183 276.988247 
L 61.814319 276.805067 
L 60.883477 276.552871 
L 60.446496 276.436845 
L 59.787821 276.258961 
L 58.341636 275.876688 
L 57.982638 275.7803 
L 57.62857 275.689486 
L 57.62857 277.6464 
L 57.62857 280.9728 
L 57.62857 284.2992 
L 57.62857 287.6256 
L 57.62857 290.952 
L 57.62857 294.2784 
L 57.62857 297.6048 
L 57.62857 300.9312 
L 57.62857 304.2576 
L 57.62857 307.584 
L 59.152282 307.584 
L 60.675994 307.584 
L 62.199706 307.584 
L 63.723418 307.584 
L 65.24713 307.584 
L 66.770842 307.584 
L 68.294554 307.584 
L 69.818266 307.584 
L 71.341978 307.584 
L 72.86569 307.584 
L 74.389402 307.584 
L 75.913114 307.584 
L 77.436826 307.584 
L 78.960538 307.584 
L 80.48425 307.584 
L 82.007962 307.584 
L 83.531674 307.584 
L 85.055386 307.584 
L 86.579098 307.584 
L 88.10281 307.584 
L 89.626522 307.584 
L 91.150234 307.584 
L 92.673946 307.584 
L 94.197658 307.584 
L 95.72137 307.584 
L 97.245082 307.584 
L 98.768794 307.584 
L 100.292506 307.584 
L 101.816218 307.584 
L 103.33993 307.584 
L 103.33993 304.2576 
L 103.33993 300.9312 
L 103.33993 297.6048 
L 103.33993 294.2784 
L 103.33993 290.952 
" clip-path="url(#p6b823e4f0f)" style="fill: #b60000"/>
   </g>
   <g id="PathCollection_11">
    <path clip-path="url(#p6b823e4f0f)" style="fill: #0000b6"/>
   </g>
   <g id="PathCollection_12">
    <path clip-path="url(#p6b823e4f0f)" style="fill: #0018ff"/>
   </g>
   <g id="PathCollection_13">
    <path clip-path="url(#p6b823e4f0f)" style="fill: #0080ff"/>
   </g>
   <g id="PathCollection_14">
    <path d="M 100.4544 79.402809 
L 101.721033 78.341608 
L 103.287597 76.9536 
L 105.038301 75.360019 
L 106.121279 74.35552 
L 110.439355 70.154567 
L 112.45365 68.0832 
L 115.436277 64.888525 
L 118.205481 61.81088 
L 119.279031 60.568124 
L 120.513704 59.2128 
L 121.236227 58.343348 
L 121.643628 57.807993 
L 122.636916 56.61472 
L 126.258042 52.007487 
L 127.506976 50.3424 
L 130.995149 45.479521 
L 131.97692 44.07008 
L 133.348323 42.036397 
L 133.728842 41.472 
L 132.83328 41.472 
L 124.73856 41.472 
L 116.64384 41.472 
L 108.54912 41.472 
L 100.4544 41.472 
L 100.4544 50.3424 
L 100.4544 59.2128 
L 100.4544 68.0832 
L 100.4544 76.9536 
" clip-path="url(#p6b823e4f0f)" style="fill: #00e4f8"/>
   </g>
   <g id="PathCollection_15">
    <path d="M 133.728842 41.472 
L 133.348323 42.036397 
L 131.97692 44.07008 
L 130.995149 45.479521 
L 127.506976 50.3424 
L 126.258042 52.007487 
L 122.636916 56.61472 
L 121.643628 57.807993 
L 121.236227 58.343348 
L 120.513704 59.2128 
L 119.279031 60.568124 
L 118.205481 61.81088 
L 115.436277 64.888525 
L 112.45365 68.0832 
L 110.439355 70.154567 
L 106.121279 74.35552 
L 105.038301 75.360019 
L 103.287597 76.9536 
L 101.721033 78.341608 
L 100.4544 79.402809 
L 100.4544 85.824 
L 100.4544 94.6944 
L 100.4544 103.5648 
L 100.4544 112.4352 
L 100.4544 121.3056 
L 100.4544 130.176 
L 100.4544 135.094727 
L 102.189876 134.455099 
L 103.835879 133.88151 
L 106.664867 132.77408 
L 110.693437 131.149318 
L 113.036669 130.176 
L 117.308324 128.331449 
L 118.88538 127.57792 
L 118.995651 127.527449 
L 119.114793 127.468267 
L 126.976199 123.757661 
L 131.674644 121.3056 
L 132.636836 120.785897 
L 133.140514 120.492794 
L 137.847037 117.929402 
L 142.691027 115.03328 
L 144.363256 113.994482 
L 146.843088 112.4352 
L 150.181076 110.13813 
L 150.639159 109.83712 
L 151.236347 109.421076 
L 152.899892 108.186496 
L 157.978006 104.50783 
L 159.175499 103.5648 
L 163.784855 99.788783 
L 166.659455 97.29248 
L 166.875044 97.116718 
L 169.5695 94.6944 
L 170.352303 93.960928 
L 170.75875 93.537789 
L 172.255355 92.09632 
L 175.7741 88.527642 
L 178.258584 85.824 
L 180.457019 83.325057 
L 183.626294 79.55168 
L 184.762013 78.128888 
L 185.766313 76.9536 
L 186.365283 76.176322 
L 186.70361 75.685973 
L 187.720082 74.35552 
L 191.019147 69.751953 
L 192.145257 68.0832 
L 195.57493 62.749467 
L 196.156541 61.81088 
L 196.318737 61.538157 
L 197.81496 59.2128 
L 199.086375 56.832076 
L 199.21284 56.61472 
L 199.659746 55.815279 
L 202.624449 50.3424 
L 203.727705 48.196714 
L 205.753716 44.07008 
L 206.709804 41.93682 
L 206.920313 41.472 
L 205.68576 41.472 
L 197.59104 41.472 
L 189.49632 41.472 
L 181.4016 41.472 
L 173.30688 41.472 
L 165.21216 41.472 
L 157.11744 41.472 
L 149.02272 41.472 
L 140.928 41.472 
" clip-path="url(#p6b823e4f0f)" style="fill: #53ffa4"/>
   </g>
   <g id="PathCollection_16">
    <path d="M 206.920313 41.472 
L 206.709804 41.93682 
L 205.753716 44.07008 
L 203.727705 48.196714 
L 202.624449 50.3424 
L 199.659746 55.815279 
L 199.21284 56.61472 
L 199.086375 56.832076 
L 197.81496 59.2128 
L 196.318737 61.538157 
L 196.156541 61.81088 
L 195.57493 62.749467 
L 192.145257 68.0832 
L 191.019147 69.751953 
L 187.720082 74.35552 
L 186.70361 75.685973 
L 186.365283 76.176322 
L 185.766313 76.9536 
L 184.762013 78.128888 
L 183.626294 79.55168 
L 180.457019 83.325057 
L 178.258584 85.824 
L 175.7741 88.527642 
L 172.255355 92.09632 
L 170.75875 93.537789 
L 170.352303 93.960928 
L 169.5695 94.6944 
L 166.875044 97.116718 
L 166.659455 97.29248 
L 163.784855 99.788783 
L 159.175499 103.5648 
L 157.978006 104.50783 
L 152.899892 108.186496 
L 151.236347 109.421076 
L 150.639159 109.83712 
L 150.181076 110.13813 
L 146.843088 112.4352 
L 144.363256 113.994482 
L 142.691027 115.03328 
L 137.847037 117.929402 
L 133.140514 120.492794 
L 132.636836 120.785897 
L 131.674644 121.3056 
L 126.976199 123.757661 
L 119.114793 127.468267 
L 118.995651 127.527449 
L 118.88538 127.57792 
L 117.308324 128.331449 
L 113.036669 130.176 
L 110.693437 131.149318 
L 106.664867 132.77408 
L 103.835879 133.88151 
L 102.189876 134.455099 
L 100.4544 135.094727 
L 100.4544 139.0464 
L 100.4544 147.9168 
L 100.4544 156.7872 
L 100.4544 165.6576 
L 100.4544 174.528 
L 100.4544 179.665823 
L 102.346384 179.53335 
L 104.173291 179.323144 
L 112.30331 178.641936 
L 115.220041 178.294741 
L 117.97927 178.060955 
L 121.944692 177.589591 
L 127.126447 177.144708 
L 132.074819 176.53455 
L 133.543489 176.406897 
L 139.931667 175.619807 
L 141.775903 175.457154 
L 149.022719 174.528002 
L 149.022721 174.528002 
L 149.022736 174.528 
L 156.247735 173.574955 
L 158.318545 173.211799 
L 164.397662 172.373198 
L 166.145814 172.057967 
L 170.503403 171.455879 
L 177.250961 170.205976 
L 179.636978 169.859593 
L 183.441078 169.132445 
L 184.439865 168.987008 
L 188.150534 168.25568 
L 193.037017 167.264743 
L 200.222599 165.6576 
L 203.053462 165.004134 
L 203.796416 164.800016 
L 210.415686 163.05952 
L 211.212288 162.84331 
L 211.531942 162.735835 
L 215.594702 161.586828 
L 218.356193 160.643418 
L 223.893446 158.998846 
L 229.857871 156.7872 
L 229.955675 156.749515 
L 229.990042 156.733965 
L 235.895679 154.410398 
L 243.590577 150.731738 
L 243.83104 150.627497 
L 244.051242 150.51488 
L 244.255683 150.398895 
L 248.939443 147.9168 
L 250.569086 147.002003 
L 251.240892 146.549096 
L 253.189896 145.31872 
L 257.423389 142.519409 
L 261.863068 139.0464 
L 262.23407 138.742875 
L 262.585431 138.42038 
L 266.687176 134.930102 
L 268.846927 132.77408 
L 271.042831 130.448031 
L 271.14403 130.349901 
L 271.290567 130.176 
L 271.790802 129.564461 
L 273.584222 127.57792 
L 274.828648 126.110935 
L 278.361983 121.3056 
L 278.476366 121.14191 
L 278.77979 120.666565 
L 281.834891 116.047754 
L 282.416482 115.03328 
L 282.889748 114.134266 
L 283.402801 113.237085 
L 283.93654 112.4352 
L 284.274346 111.849676 
L 284.458182 111.448056 
L 285.315227 109.83712 
L 287.764324 104.804577 
L 288.291112 103.5648 
L 289.585162 100.329702 
L 290.901992 97.29248 
L 291.120931 96.731516 
L 291.954626 94.6944 
L 292.75898 92.196163 
L 292.782541 92.09632 
L 294.779472 85.96102 
L 294.821109 85.824 
L 295.101806 84.83423 
L 296.627172 79.55168 
L 296.667042 79.444554 
L 297.415225 76.9536 
L 297.722447 75.68754 
L 297.893281 74.716244 
L 297.982043 74.35552 
L 298.241438 73.103135 
L 299.456161 68.0832 
L 300.11984 65.121666 
L 300.792097 61.81088 
L 301.090115 59.999094 
L 301.286604 59.2128 
L 301.354301 58.848345 
L 301.392026 58.563545 
L 301.787307 56.61472 
L 302.818409 50.346774 
L 302.81927 50.3424 
L 302.819787 50.339537 
L 303.868983 44.07008 
L 304.128041 42.064638 
L 304.210849 41.472 
L 302.8224 41.472 
L 294.72768 41.472 
L 286.63296 41.472 
L 278.53824 41.472 
L 270.44352 41.472 
L 262.3488 41.472 
L 254.25408 41.472 
L 246.15936 41.472 
L 238.06464 41.472 
L 229.96992 41.472 
L 221.8752 41.472 
L 213.78048 41.472 
" clip-path="url(#p6b823e4f0f)" style="fill: #a4ff53"/>
   </g>
   <g id="PathCollection_17">
    <path d="M 304.210849 41.472 
L 304.128041 42.064638 
L 303.868983 44.07008 
L 302.819787 50.339537 
L 302.81927 50.3424 
L 302.818409 50.346774 
L 301.787307 56.61472 
L 301.392026 58.563545 
L 301.354301 58.848345 
L 301.286604 59.2128 
L 301.090115 59.999094 
L 300.792097 61.81088 
L 300.11984 65.121666 
L 299.456161 68.0832 
L 298.241438 73.103135 
L 297.982043 74.35552 
L 297.893281 74.716244 
L 297.722447 75.68754 
L 297.415225 76.9536 
L 296.667042 79.444554 
L 296.627172 79.55168 
L 295.101806 84.83423 
L 294.821109 85.824 
L 294.779472 85.96102 
L 292.782541 92.09632 
L 292.75898 92.196163 
L 291.954626 94.6944 
L 291.120931 96.731516 
L 290.901992 97.29248 
L 289.585162 100.329702 
L 288.291112 103.5648 
L 287.764324 104.804577 
L 285.315227 109.83712 
L 284.458182 111.448056 
L 284.274346 111.849676 
L 283.93654 112.4352 
L 283.402801 113.237085 
L 282.889748 114.134266 
L 282.416482 115.03328 
L 281.834891 116.047754 
L 278.77979 120.666565 
L 278.476366 121.14191 
L 278.361983 121.3056 
L 274.828648 126.110935 
L 273.584222 127.57792 
L 271.790802 129.564461 
L 271.290567 130.176 
L 271.14403 130.349901 
L 271.042831 130.448031 
L 268.846927 132.77408 
L 266.687176 134.930102 
L 262.585431 138.42038 
L 262.23407 138.742875 
L 261.863068 139.0464 
L 257.423389 142.519409 
L 253.189896 145.31872 
L 251.240892 146.549096 
L 250.569086 147.002003 
L 248.939443 147.9168 
L 244.255683 150.398895 
L 244.051242 150.51488 
L 243.83104 150.627497 
L 243.590577 150.731738 
L 235.895679 154.410398 
L 229.990042 156.733965 
L 229.955675 156.749515 
L 229.857871 156.7872 
L 223.893446 158.998846 
L 218.356193 160.643418 
L 215.594702 161.586828 
L 211.531942 162.735835 
L 211.212288 162.84331 
L 210.415686 163.05952 
L 203.796416 164.800016 
L 203.053462 165.004134 
L 200.222599 165.6576 
L 193.037017 167.264743 
L 188.150534 168.25568 
L 184.439865 168.987008 
L 183.441078 169.132445 
L 179.636978 169.859593 
L 177.250961 170.205976 
L 170.503403 171.455879 
L 166.145814 172.057967 
L 164.397662 172.373198 
L 158.318545 173.211799 
L 156.247735 173.574955 
L 149.022736 174.528 
L 149.022721 174.528002 
L 149.022719 174.528002 
L 141.775903 175.457154 
L 139.931667 175.619807 
L 133.543489 176.406897 
L 132.074819 176.53455 
L 127.126447 177.144708 
L 121.944692 177.589591 
L 117.97927 178.060955 
L 115.220041 178.294741 
L 112.30331 178.641936 
L 104.173291 179.323144 
L 102.346384 179.53335 
L 100.4544 179.665823 
L 100.4544 183.3984 
L 100.4544 192.2688 
L 100.4544 201.1392 
L 100.4544 210.0096 
L 100.4544 218.250675 
L 100.981565 218.302319 
L 106.647622 218.88 
L 108.202118 219.037506 
L 109.134549 219.14573 
L 119.280487 220.234963 
L 121.217632 220.478169 
L 129.149857 221.47808 
L 130.328443 221.624864 
L 130.529984 221.6569 
L 134.920887 222.227518 
L 136.057112 222.412757 
L 144.724984 223.589568 
L 147.640878 224.094659 
L 150.26369 224.467342 
L 154.869578 225.287135 
L 158.827402 225.87658 
L 164.943178 227.038794 
L 165.451109 227.118248 
L 168.681431 227.7504 
L 172.618776 228.504442 
L 174.371455 228.916988 
L 180.486072 230.17248 
L 182.506154 230.67256 
L 186.129251 231.44012 
L 194.969344 233.747878 
L 195.295812 233.822556 
L 196.021042 234.02272 
L 201.137393 235.491671 
L 205.10779 236.6208 
L 205.378766 236.697011 
L 205.460273 236.72315 
L 207.005829 237.219987 
L 212.486407 238.951561 
L 213.221445 239.21888 
L 215.821884 240.090549 
L 217.566931 240.770089 
L 224.064781 243.091802 
L 229.677356 245.4912 
L 229.930199 245.596285 
L 230.027124 245.642536 
L 235.688153 248.095415 
L 242.830663 251.76352 
L 243.285248 251.991936 
L 247.536189 254.3616 
L 250.501995 256.064693 
L 251.899252 256.95968 
L 257.042719 260.176138 
L 261.183658 263.232 
L 262.101035 263.887477 
L 262.814345 264.463626 
L 266.66118 267.376784 
L 269.034623 269.50432 
L 271.476872 271.633356 
L 271.664586 271.799271 
L 271.949869 272.1024 
L 273.29044 273.394633 
L 274.691424 274.70048 
L 275.499462 275.43237 
L 277.082568 277.121736 
L 279.18601 279.259089 
L 280.676673 280.9728 
L 283.637089 284.255751 
L 285.896306 287.24512 
L 287.591257 289.408224 
L 287.880212 289.8432 
L 288.460058 290.67253 
L 289.756052 292.44128 
L 290.938792 293.99516 
L 293.936147 298.7136 
L 294.439672 299.475542 
L 296.069348 302.263057 
L 297.461294 304.588436 
L 297.65427 304.98592 
L 297.822562 305.314545 
L 299.070145 307.584 
L 302.8224 307.584 
L 310.91712 307.584 
L 319.01184 307.584 
L 327.10656 307.584 
L 335.20128 307.584 
L 343.296 307.584 
L 343.296 298.7136 
L 343.296 289.8432 
L 343.296 280.9728 
L 343.296 272.1024 
L 343.296 263.232 
L 343.296 254.3616 
L 343.296 245.4912 
L 343.296 236.6208 
L 343.296 227.7504 
L 343.296 218.88 
L 343.296 210.0096 
L 343.296 201.1392 
L 343.296 192.2688 
L 343.296 183.3984 
L 343.296 174.528 
L 343.296 165.6576 
L 343.296 156.7872 
L 343.296 147.9168 
L 343.296 139.0464 
L 343.296 130.176 
L 343.296 121.3056 
L 343.296 112.4352 
L 343.296 103.5648 
L 343.296 94.6944 
L 343.296 85.824 
L 343.296 76.9536 
L 343.296 68.0832 
L 343.296 59.2128 
L 343.296 50.3424 
L 343.296 41.472 
L 335.20128 41.472 
L 327.10656 41.472 
L 319.01184 41.472 
L 310.91712 41.472 
" clip-path="url(#p6b823e4f0f)" style="fill: #f8f500"/>
   </g>
   <g id="PathCollection_18">
    <path d="M 299.070145 307.584 
L 297.822562 305.314545 
L 297.65427 304.98592 
L 297.461294 304.588436 
L 296.069348 302.263057 
L 294.439672 299.475542 
L 293.936147 298.7136 
L 290.938792 293.99516 
L 289.756052 292.44128 
L 288.460058 290.67253 
L 287.880212 289.8432 
L 287.591257 289.408224 
L 285.896306 287.24512 
L 283.637089 284.255751 
L 280.676673 280.9728 
L 279.18601 279.259089 
L 277.082568 277.121736 
L 275.499462 275.43237 
L 274.691424 274.70048 
L 273.29044 273.394633 
L 271.949869 272.1024 
L 271.664586 271.799271 
L 271.476872 271.633356 
L 269.034623 269.50432 
L 266.66118 267.376784 
L 262.814345 264.463626 
L 262.101035 263.887477 
L 261.183658 263.232 
L 257.042719 260.176138 
L 251.899252 256.95968 
L 250.501995 256.064693 
L 247.536189 254.3616 
L 243.285248 251.991936 
L 242.830663 251.76352 
L 235.688153 248.095415 
L 230.027124 245.642536 
L 229.930199 245.596285 
L 229.677356 245.4912 
L 224.064781 243.091802 
L 217.566931 240.770089 
L 215.821884 240.090549 
L 213.221445 239.21888 
L 212.486407 238.951561 
L 207.005829 237.219987 
L 205.460273 236.72315 
L 205.378766 236.697011 
L 205.10779 236.6208 
L 201.137393 235.491671 
L 196.021042 234.02272 
L 195.295812 233.822556 
L 194.969344 233.747878 
L 186.129251 231.44012 
L 182.506154 230.67256 
L 180.486072 230.17248 
L 174.371455 228.916988 
L 172.618776 228.504442 
L 168.681431 227.7504 
L 165.451109 227.118248 
L 164.943178 227.038794 
L 158.827402 225.87658 
L 154.869578 225.287135 
L 150.26369 224.467342 
L 147.640878 224.094659 
L 144.724984 223.589568 
L 136.057112 222.412757 
L 134.920887 222.227518 
L 130.529984 221.6569 
L 130.328443 221.624864 
L 129.149857 221.47808 
L 121.217632 220.478169 
L 119.280487 220.234963 
L 109.134549 219.14573 
L 108.202118 219.037506 
L 106.647622 218.88 
L 100.981565 218.302319 
L 100.4544 218.250675 
L 100.4544 218.88 
L 100.4544 227.7504 
L 100.4544 236.6208 
L 100.4544 245.4912 
L 100.4544 253.737784 
L 100.92531 253.845565 
L 103.101589 254.3616 
L 106.682478 255.20888 
L 113.644923 256.95968 
L 114.156081 257.08775 
L 114.340821 257.139232 
L 118.536553 258.224721 
L 120.74207 258.852545 
L 127.167299 260.570527 
L 132.420018 262.138691 
L 133.168245 262.345832 
L 136.06945 263.232 
L 139.875603 264.385243 
L 142.909911 265.403828 
L 147.633345 266.907671 
L 150.833779 268.023259 
L 152.306865 268.50355 
L 155.064328 269.50432 
L 159.404369 271.06435 
L 162.109869 272.1024 
L 166.536591 273.783119 
L 168.14857 274.443786 
L 168.767791 274.70048 
L 176.237129 277.761759 
L 181.002981 279.918231 
L 181.689071 280.212278 
L 183.3196 280.9728 
L 187.670549 282.973527 
L 194.461736 286.414029 
L 195.366597 286.857689 
L 196.094594 287.24512 
L 196.805655 287.63872 
L 200.910311 289.8432 
L 203.092804 291.020158 
L 205.533965 292.44128 
L 209.394054 294.649957 
L 213.135823 297.008123 
L 214.185053 297.64328 
L 215.818311 298.7136 
L 219.635368 301.168064 
L 225.014145 304.98592 
L 226.036238 305.695281 
L 228.563169 307.584 
L 229.96992 307.584 
L 238.06464 307.584 
L 246.15936 307.584 
L 254.25408 307.584 
L 262.3488 307.584 
L 270.44352 307.584 
L 278.53824 307.584 
L 286.63296 307.584 
L 294.72768 307.584 
" clip-path="url(#p6b823e4f0f)" style="fill: #ff9400"/>
   </g>
   <g id="PathCollection_19">
    <path d="M 228.563169 307.584 
L 226.036238 305.695281 
L 225.014145 304.98592 
L 219.635368 301.168064 
L 215.818311 298.7136 
L 214.185053 297.64328 
L 213.135823 297.008123 
L 209.394054 294.649957 
L 205.533965 292.44128 
L 203.092804 291.020158 
L 200.910311 289.8432 
L 196.805655 287.63872 
L 196.094594 287.24512 
L 195.366597 286.857689 
L 194.461736 286.414029 
L 187.670549 282.973527 
L 183.3196 280.9728 
L 181.689071 280.212278 
L 181.002981 279.918231 
L 176.237129 277.761759 
L 168.767791 274.70048 
L 168.14857 274.443786 
L 166.536591 273.783119 
L 162.109869 272.1024 
L 159.404369 271.06435 
L 155.064328 269.50432 
L 152.306865 268.50355 
L 150.833779 268.023259 
L 147.633345 266.907671 
L 142.909911 265.403828 
L 139.875603 264.385243 
L 136.06945 263.232 
L 133.168245 262.345832 
L 132.420018 262.138691 
L 127.167299 260.570527 
L 120.74207 258.852545 
L 118.536553 258.224721 
L 114.340821 257.139232 
L 114.156081 257.08775 
L 113.644923 256.95968 
L 106.682478 255.20888 
L 103.101589 254.3616 
L 100.92531 253.845565 
L 100.4544 253.737784 
L 100.4544 254.3616 
L 100.4544 263.232 
L 100.4544 272.1024 
L 100.4544 280.9728 
L 100.4544 288.519757 
L 101.382125 288.826576 
L 104.313188 289.8432 
L 106.712005 290.677077 
L 111.596176 292.44128 
L 113.607583 293.170408 
L 114.707905 293.591975 
L 118.101116 294.858293 
L 122.958354 296.762805 
L 125.595001 297.775091 
L 127.894197 298.7136 
L 132.16991 300.468582 
L 133.754315 301.15025 
L 137.332529 302.653609 
L 142.563543 304.98592 
L 144.628805 305.904183 
L 148.252015 307.584 
L 149.02272 307.584 
L 157.11744 307.584 
L 165.21216 307.584 
L 173.30688 307.584 
L 181.4016 307.584 
L 189.49632 307.584 
L 197.59104 307.584 
L 205.68576 307.584 
L 213.78048 307.584 
L 221.8752 307.584 
" clip-path="url(#p6b823e4f0f)" style="fill: #ff3800"/>
   </g>
   <g id="PathCollection_20">
    <path d="M 148.252015 307.584 
L 144.628805 305.904183 
L 142.563543 304.98592 
L 137.332529 302.653609 
L 133.754315 301.15025 
L 132.16991 300.468582 
L 127.894197 298.7136 
L 125.595001 297.775091 
L 122.958354 296.762805 
L 118.101116 294.858293 
L 114.707905 293.591975 
L 113.607583 293.170408 
L 111.596176 292.44128 
L 106.712005 290.677077 
L 104.313188 289.8432 
L 101.382125 288.826576 
L 100.4544 288.519757 
L 100.4544 289.8432 
L 100.4544 298.7136 
L 100.4544 307.584 
L 108.54912 307.584 
L 116.64384 307.584 
L 124.73856 307.584 
L 132.83328 307.584 
L 140.928 307.584 
" clip-path="url(#p6b823e4f0f)" style="fill: #b60000"/>
   </g>
   <g id="matplotlib.axis_1">
    <g id="xtick_1">
     <g id="line2d_1">
      <defs>
       <path id="md5338cf78f" d="M 0 0 
L 0 3.5 
" style="stroke: #000000; stroke-width: 0.8"/>
      </defs>
      <g>
       <use xlink:href="#md5338cf78f" x="57.6" y="307.584" style="stroke: #000000; stroke-width: 0.8"/>
      </g>
     </g>
     <g id="text_1">
      <!-- 0.0 -->
      <g transform="translate(51.26875 321.385562) scale(0.1 -0.1)">
       <defs>
        <path id="Calibri-30" d="M 3022 2031 
Q 3022 1566 2948 1181 
Q 2875 797 2704 520 
Q 2534 244 2259 92 
Q 1984 -59 1581 -59 
Q 1200 -59 939 77 
Q 678 213 518 477 
Q 359 741 292 1127 
Q 225 1513 225 2013 
Q 225 2475 300 2861 
Q 375 3247 544 3523 
Q 713 3800 988 3951 
Q 1263 4103 1663 4103 
Q 2047 4103 2308 3967 
Q 2569 3831 2728 3567 
Q 2888 3303 2955 2917 
Q 3022 2531 3022 2031 
z
M 2472 1994 
Q 2472 2297 2450 2537 
Q 2428 2778 2386 2962 
Q 2344 3147 2276 3280 
Q 2209 3413 2115 3498 
Q 2022 3584 1901 3623 
Q 1781 3663 1631 3663 
Q 1366 3663 1200 3538 
Q 1034 3413 939 3194 
Q 844 2975 809 2681 
Q 775 2388 775 2050 
Q 775 1597 822 1280 
Q 869 963 970 763 
Q 1072 563 1230 472 
Q 1388 381 1613 381 
Q 1788 381 1920 437 
Q 2053 494 2148 598 
Q 2244 703 2306 850 
Q 2369 997 2406 1175 
Q 2444 1353 2458 1561 
Q 2472 1769 2472 1994 
z
" transform="scale(0.015625)"/>
        <path id="Calibri-2e" d="M 1144 341 
Q 1144 119 1070 45 
Q 997 -28 803 -28 
Q 616 -28 544 44 
Q 472 116 472 331 
Q 472 553 545 626 
Q 619 700 813 700 
Q 1000 700 1072 628 
Q 1144 556 1144 341 
z
" transform="scale(0.015625)"/>
       </defs>
       <use xlink:href="#Calibri-30"/>
       <use xlink:href="#Calibri-2e" x="50.683594"/>
       <use xlink:href="#Calibri-30" x="75.927734"/>
      </g>
     </g>
    </g>
    <g id="xtick_2">
     <g id="line2d_2">
      <g>
       <use xlink:href="#md5338cf78f" x="86.1696" y="307.584" style="stroke: #000000; stroke-width: 0.8"/>
      </g>
     </g>
     <g id="text_2">
      <!-- 0.1 -->
      <g transform="translate(79.83835 321.385562) scale(0.1 -0.1)">
       <defs>
        <path id="Calibri-31" d="M 2897 213 
Q 2897 153 2887 112 
Q 2878 72 2862 47 
Q 2847 22 2826 11 
Q 2806 0 2784 0 
L 672 0 
Q 650 0 631 11 
Q 613 22 595 47 
Q 578 72 568 112 
Q 559 153 559 213 
Q 559 269 568 309 
Q 578 350 592 376 
Q 606 403 626 417 
Q 647 431 672 431 
L 1516 431 
L 1516 3506 
L 734 3041 
Q 675 3009 639 3003 
Q 603 2997 581 3017 
Q 559 3038 551 3084 
Q 544 3131 544 3203 
Q 544 3256 548 3293 
Q 553 3331 562 3356 
Q 572 3381 589 3400 
Q 606 3419 634 3438 
L 1566 4034 
Q 1578 4044 1597 4050 
Q 1616 4056 1644 4062 
Q 1672 4069 1709 4070 
Q 1747 4072 1803 4072 
Q 1878 4072 1928 4065 
Q 1978 4059 2006 4048 
Q 2034 4038 2043 4020 
Q 2053 4003 2053 3984 
L 2053 431 
L 2784 431 
Q 2809 431 2831 417 
Q 2853 403 2867 376 
Q 2881 350 2889 309 
Q 2897 269 2897 213 
z
" transform="scale(0.015625)"/>
       </defs>
       <use xlink:href="#Calibri-30"/>
       <use xlink:href="#Calibri-2e" x="50.683594"/>
       <use xlink:href="#Calibri-31" x="75.927734"/>
      </g>
     </g>
    </g>
    <g id="xtick_3">
     <g id="line2d_3">
      <g>
       <use xlink:href="#md5338cf78f" x="114.7392" y="307.584" style="stroke: #000000; stroke-width: 0.8"/>
      </g>
     </g>
     <g id="text_3">
      <!-- 0.2 -->
      <g transform="translate(108.40795 321.385562) scale(0.1 -0.1)">
       <defs>
        <path id="Calibri-32" d="M 2888 231 
Q 2888 175 2880 131 
Q 2872 88 2858 58 
Q 2844 28 2820 14 
Q 2797 0 2769 0 
L 534 0 
Q 491 0 458 11 
Q 425 22 401 47 
Q 378 72 367 119 
Q 356 166 356 234 
Q 356 297 361 344 
Q 366 391 381 427 
Q 397 463 420 498 
Q 444 534 481 575 
L 1266 1406 
Q 1538 1694 1702 1922 
Q 1866 2150 1955 2337 
Q 2044 2525 2072 2678 
Q 2100 2831 2100 2966 
Q 2100 3100 2056 3220 
Q 2013 3341 1930 3431 
Q 1847 3522 1722 3575 
Q 1597 3628 1434 3628 
Q 1244 3628 1092 3575 
Q 941 3522 827 3459 
Q 713 3397 636 3344 
Q 559 3291 522 3291 
Q 500 3291 483 3303 
Q 466 3316 455 3344 
Q 444 3372 437 3419 
Q 431 3466 431 3531 
Q 431 3578 434 3612 
Q 438 3647 445 3672 
Q 453 3697 465 3719 
Q 478 3741 515 3773 
Q 553 3806 645 3862 
Q 738 3919 877 3973 
Q 1016 4028 1183 4065 
Q 1350 4103 1534 4103 
Q 1828 4103 2048 4020 
Q 2269 3938 2414 3794 
Q 2559 3650 2631 3459 
Q 2703 3269 2703 3053 
Q 2703 2859 2668 2667 
Q 2634 2475 2523 2251 
Q 2413 2028 2203 1754 
Q 1994 1481 1647 1125 
L 1006 456 
L 2766 456 
Q 2791 456 2814 442 
Q 2838 428 2855 400 
Q 2872 372 2880 330 
Q 2888 288 2888 231 
z
" transform="scale(0.015625)"/>
       </defs>
       <use xlink:href="#Calibri-30"/>
       <use xlink:href="#Calibri-2e" x="50.683594"/>
       <use xlink:href="#Calibri-32" x="75.927734"/>
      </g>
     </g>
    </g>
    <g id="xtick_4">
     <g id="line2d_4">
      <g>
       <use xlink:href="#md5338cf78f" x="143.3088" y="307.584" style="stroke: #000000; stroke-width: 0.8"/>
      </g>
     </g>
     <g id="text_4">
      <!-- 0.3 -->
      <g transform="translate(136.97755 321.385562) scale(0.1 -0.1)">
       <defs>
        <path id="Calibri-33" d="M 2856 1156 
Q 2856 878 2759 654 
Q 2663 431 2481 272 
Q 2300 113 2034 27 
Q 1769 -59 1434 -59 
Q 1231 -59 1054 -26 
Q 878 6 740 51 
Q 603 97 512 145 
Q 422 194 398 216 
Q 375 238 362 259 
Q 350 281 340 312 
Q 331 344 326 389 
Q 322 434 322 500 
Q 322 613 344 656 
Q 366 700 406 700 
Q 434 700 517 650 
Q 600 600 729 542 
Q 859 484 1032 434 
Q 1206 384 1419 384 
Q 1625 384 1781 437 
Q 1938 491 2044 587 
Q 2150 684 2203 817 
Q 2256 950 2256 1106 
Q 2256 1278 2189 1415 
Q 2122 1553 1992 1653 
Q 1863 1753 1673 1806 
Q 1484 1859 1244 1859 
L 859 1859 
Q 834 1859 811 1870 
Q 788 1881 770 1906 
Q 753 1931 742 1972 
Q 731 2013 731 2078 
Q 731 2138 740 2177 
Q 750 2216 767 2239 
Q 784 2263 806 2273 
Q 828 2284 856 2284 
L 1209 2284 
Q 1416 2284 1580 2337 
Q 1744 2391 1858 2491 
Q 1972 2591 2033 2730 
Q 2094 2869 2094 3041 
Q 2094 3166 2053 3280 
Q 2013 3394 1931 3478 
Q 1850 3563 1723 3611 
Q 1597 3659 1431 3659 
Q 1250 3659 1098 3604 
Q 947 3550 828 3487 
Q 709 3425 631 3370 
Q 553 3316 522 3316 
Q 500 3316 483 3323 
Q 466 3331 455 3354 
Q 444 3378 439 3420 
Q 434 3463 434 3531 
Q 434 3578 437 3614 
Q 441 3650 450 3676 
Q 459 3703 471 3725 
Q 484 3747 514 3776 
Q 544 3806 634 3862 
Q 725 3919 858 3973 
Q 991 4028 1164 4065 
Q 1338 4103 1538 4103 
Q 1819 4103 2031 4031 
Q 2244 3959 2386 3828 
Q 2528 3697 2598 3514 
Q 2669 3331 2669 3109 
Q 2669 2919 2619 2755 
Q 2569 2591 2472 2464 
Q 2375 2338 2234 2248 
Q 2094 2159 1909 2125 
L 1909 2119 
Q 2119 2097 2292 2014 
Q 2466 1931 2591 1806 
Q 2716 1681 2786 1514 
Q 2856 1347 2856 1156 
z
" transform="scale(0.015625)"/>
       </defs>
       <use xlink:href="#Calibri-30"/>
       <use xlink:href="#Calibri-2e" x="50.683594"/>
       <use xlink:href="#Calibri-33" x="75.927734"/>
      </g>
     </g>
    </g>
    <g id="xtick_5">
     <g id="line2d_5">
      <g>
       <use xlink:href="#md5338cf78f" x="171.8784" y="307.584" style="stroke: #000000; stroke-width: 0.8"/>
      </g>
     </g>
     <g id="text_5">
      <!-- 0.4 -->
      <g transform="translate(165.54715 321.385562) scale(0.1 -0.1)">
       <defs>
        <path id="Calibri-34" d="M 3059 1150 
Q 3059 1047 3028 987 
Q 2997 928 2941 928 
L 2484 928 
L 2484 78 
Q 2484 53 2471 36 
Q 2459 19 2428 6 
Q 2397 -6 2347 -12 
Q 2297 -19 2219 -19 
Q 2144 -19 2094 -12 
Q 2044 -6 2014 6 
Q 1984 19 1973 36 
Q 1963 53 1963 78 
L 1963 928 
L 294 928 
Q 256 928 231 937 
Q 206 947 186 972 
Q 166 997 158 1044 
Q 150 1091 150 1166 
Q 150 1225 153 1272 
Q 156 1319 165 1358 
Q 175 1397 190 1433 
Q 206 1469 228 1509 
L 1684 3966 
Q 1700 3991 1729 4009 
Q 1759 4028 1806 4040 
Q 1853 4053 1922 4058 
Q 1991 4063 2084 4063 
Q 2188 4063 2264 4055 
Q 2341 4047 2387 4034 
Q 2434 4022 2459 4001 
Q 2484 3981 2484 3953 
L 2484 1372 
L 2941 1372 
Q 2994 1372 3026 1317 
Q 3059 1263 3059 1150 
z
M 1963 3591 
L 1956 3591 
L 641 1372 
L 1963 1372 
L 1963 3591 
z
" transform="scale(0.015625)"/>
       </defs>
       <use xlink:href="#Calibri-30"/>
       <use xlink:href="#Calibri-2e" x="50.683594"/>
       <use xlink:href="#Calibri-34" x="75.927734"/>
      </g>
     </g>
    </g>
    <g id="xtick_6">
     <g id="line2d_6">
      <g>
       <use xlink:href="#md5338cf78f" x="200.448" y="307.584" style="stroke: #000000; stroke-width: 0.8"/>
      </g>
     </g>
     <g id="text_6">
      <!-- 0.5 -->
      <g transform="translate(194.11675 321.385562) scale(0.1 -0.1)">
       <defs>
        <path id="Calibri-35" d="M 2869 1300 
Q 2869 975 2759 722 
Q 2650 469 2450 295 
Q 2250 122 1973 31 
Q 1697 -59 1359 -59 
Q 1172 -59 1003 -32 
Q 834 -6 703 33 
Q 572 72 487 109 
Q 403 147 379 169 
Q 356 191 347 209 
Q 338 228 330 254 
Q 322 281 319 322 
Q 316 363 316 419 
Q 316 472 320 514 
Q 325 556 337 582 
Q 350 609 367 621 
Q 384 634 406 634 
Q 438 634 503 595 
Q 569 556 680 511 
Q 791 466 955 425 
Q 1119 384 1344 384 
Q 1553 384 1728 434 
Q 1903 484 2029 590 
Q 2156 697 2228 858 
Q 2300 1019 2300 1250 
Q 2300 1444 2239 1592 
Q 2178 1741 2051 1839 
Q 1925 1938 1731 1986 
Q 1538 2034 1269 2034 
Q 1078 2034 940 2015 
Q 803 1997 684 1997 
Q 597 1997 559 2037 
Q 522 2078 522 2194 
L 522 3841 
Q 522 3944 570 3994 
Q 619 4044 709 4044 
L 2500 4044 
Q 2525 4044 2548 4030 
Q 2572 4016 2587 3987 
Q 2603 3959 2611 3915 
Q 2619 3872 2619 3813 
Q 2619 3700 2587 3637 
Q 2556 3575 2500 3575 
L 991 3575 
L 991 2441 
Q 1100 2456 1214 2459 
Q 1328 2463 1478 2463 
Q 1825 2463 2084 2380 
Q 2344 2297 2517 2145 
Q 2691 1994 2780 1778 
Q 2869 1563 2869 1300 
z
" transform="scale(0.015625)"/>
       </defs>
       <use xlink:href="#Calibri-30"/>
       <use xlink:href="#Calibri-2e" x="50.683594"/>
       <use xlink:href="#Calibri-35" x="75.927734"/>
      </g>
     </g>
    </g>
    <g id="xtick_7">
     <g id="line2d_7">
      <g>
       <use xlink:href="#md5338cf78f" x="229.0176" y="307.584" style="stroke: #000000; stroke-width: 0.8"/>
      </g>
     </g>
     <g id="text_7">
      <!-- 0.6 -->
      <g transform="translate(222.68635 321.385562) scale(0.1 -0.1)">
       <defs>
        <path id="Calibri-36" d="M 2991 1309 
Q 2991 1044 2909 795 
Q 2828 547 2659 358 
Q 2491 169 2231 55 
Q 1972 -59 1619 -59 
Q 1366 -59 1172 3 
Q 978 66 834 181 
Q 691 297 595 465 
Q 500 634 442 850 
Q 384 1066 359 1322 
Q 334 1578 334 1872 
Q 334 2131 362 2397 
Q 391 2663 462 2909 
Q 534 3156 657 3373 
Q 781 3591 967 3752 
Q 1153 3913 1412 4006 
Q 1672 4100 2016 4100 
Q 2131 4100 2250 4086 
Q 2369 4072 2469 4048 
Q 2569 4025 2637 3997 
Q 2706 3969 2728 3951 
Q 2750 3934 2761 3914 
Q 2772 3894 2778 3870 
Q 2784 3847 2787 3817 
Q 2791 3788 2791 3744 
Q 2791 3688 2789 3647 
Q 2788 3606 2777 3581 
Q 2766 3556 2748 3543 
Q 2731 3531 2703 3531 
Q 2669 3531 2609 3553 
Q 2550 3575 2465 3601 
Q 2381 3628 2261 3650 
Q 2141 3672 1981 3672 
Q 1691 3672 1481 3553 
Q 1272 3434 1139 3234 
Q 1006 3034 942 2770 
Q 878 2506 869 2219 
Q 950 2266 1051 2312 
Q 1153 2359 1273 2396 
Q 1394 2434 1528 2457 
Q 1663 2481 1816 2481 
Q 2144 2481 2369 2392 
Q 2594 2303 2733 2145 
Q 2872 1988 2931 1773 
Q 2991 1559 2991 1309 
z
M 2447 1259 
Q 2447 1441 2411 1589 
Q 2375 1738 2290 1841 
Q 2206 1944 2065 2000 
Q 1925 2056 1719 2056 
Q 1603 2056 1487 2036 
Q 1372 2016 1264 1980 
Q 1156 1944 1057 1895 
Q 959 1847 878 1791 
Q 878 1388 929 1116 
Q 981 844 1079 680 
Q 1178 516 1325 445 
Q 1472 375 1669 375 
Q 1869 375 2016 450 
Q 2163 525 2259 651 
Q 2356 778 2401 936 
Q 2447 1094 2447 1259 
z
" transform="scale(0.015625)"/>
       </defs>
       <use xlink:href="#Calibri-30"/>
       <use xlink:href="#Calibri-2e" x="50.683594"/>
       <use xlink:href="#Calibri-36" x="75.927734"/>
      </g>
     </g>
    </g>
    <g id="xtick_8">
     <g id="line2d_8">
      <g>
       <use xlink:href="#md5338cf78f" x="257.5872" y="307.584" style="stroke: #000000; stroke-width: 0.8"/>
      </g>
     </g>
     <g id="text_8">
      <!-- 0.7 -->
      <g transform="translate(251.25595 321.385562) scale(0.1 -0.1)">
       <defs>
        <path id="Calibri-37" d="M 2947 3813 
Q 2947 3756 2942 3711 
Q 2938 3666 2930 3623 
Q 2922 3581 2908 3542 
Q 2894 3503 2875 3459 
L 1419 103 
Q 1403 66 1379 42 
Q 1356 19 1320 5 
Q 1284 -9 1228 -14 
Q 1172 -19 1091 -19 
Q 984 -19 925 -9 
Q 866 0 839 20 
Q 813 41 816 70 
Q 819 100 838 141 
L 2369 3572 
L 428 3572 
Q 369 3572 339 3634 
Q 309 3697 309 3809 
Q 309 3869 317 3912 
Q 325 3956 340 3986 
Q 356 4016 378 4030 
Q 400 4044 428 4044 
L 2784 4044 
Q 2828 4044 2861 4034 
Q 2894 4025 2911 3997 
Q 2928 3969 2937 3925 
Q 2947 3881 2947 3813 
z
" transform="scale(0.015625)"/>
       </defs>
       <use xlink:href="#Calibri-30"/>
       <use xlink:href="#Calibri-2e" x="50.683594"/>
       <use xlink:href="#Calibri-37" x="75.927734"/>
      </g>
     </g>
    </g>
    <g id="xtick_9">
     <g id="line2d_9">
      <g>
       <use xlink:href="#md5338cf78f" x="286.1568" y="307.584" style="stroke: #000000; stroke-width: 0.8"/>
      </g>
     </g>
     <g id="text_9">
      <!-- 0.8 -->
      <g transform="translate(279.82555 321.385562) scale(0.1 -0.1)">
       <defs>
        <path id="Calibri-38" d="M 2981 1038 
Q 2981 775 2887 570 
Q 2794 366 2617 225 
Q 2441 84 2181 12 
Q 1922 -59 1588 -59 
Q 1275 -59 1028 6 
Q 781 72 609 200 
Q 438 328 347 515 
Q 256 703 256 944 
Q 256 1134 318 1293 
Q 381 1453 498 1587 
Q 616 1722 787 1839 
Q 959 1956 1175 2063 
Q 988 2159 844 2267 
Q 700 2375 600 2501 
Q 500 2628 448 2772 
Q 397 2916 397 3084 
Q 397 3297 473 3483 
Q 550 3669 704 3806 
Q 859 3944 1098 4023 
Q 1338 4103 1656 4103 
Q 1963 4103 2186 4029 
Q 2409 3956 2554 3829 
Q 2700 3703 2769 3531 
Q 2838 3359 2838 3163 
Q 2838 3003 2786 2856 
Q 2734 2709 2634 2578 
Q 2534 2447 2389 2333 
Q 2244 2219 2056 2119 
Q 2278 2009 2451 1893 
Q 2625 1778 2742 1645 
Q 2859 1513 2920 1364 
Q 2981 1216 2981 1038 
z
M 2306 3113 
Q 2306 3244 2261 3350 
Q 2216 3456 2128 3531 
Q 2041 3606 1911 3645 
Q 1781 3684 1616 3684 
Q 1278 3684 1104 3531 
Q 931 3378 931 3113 
Q 931 2991 973 2886 
Q 1016 2781 1105 2687 
Q 1194 2594 1330 2505 
Q 1466 2416 1653 2319 
Q 1969 2481 2137 2678 
Q 2306 2875 2306 3113 
z
M 2438 981 
Q 2438 1125 2384 1242 
Q 2331 1359 2223 1461 
Q 2116 1563 1955 1658 
Q 1794 1753 1581 1856 
Q 1384 1759 1236 1662 
Q 1088 1566 992 1462 
Q 897 1359 848 1245 
Q 800 1131 800 994 
Q 800 691 1008 525 
Q 1216 359 1628 359 
Q 2028 359 2233 526 
Q 2438 694 2438 981 
z
" transform="scale(0.015625)"/>
       </defs>
       <use xlink:href="#Calibri-30"/>
       <use xlink:href="#Calibri-2e" x="50.683594"/>
       <use xlink:href="#Calibri-38" x="75.927734"/>
      </g>
     </g>
    </g>
    <g id="xtick_10">
     <g id="line2d_10">
      <g>
       <use xlink:href="#md5338cf78f" x="314.7264" y="307.584" style="stroke: #000000; stroke-width: 0.8"/>
      </g>
     </g>
     <g id="text_10">
      <!-- 0.9 -->
      <g transform="translate(308.39515 321.385562) scale(0.1 -0.1)">
       <defs>
        <path id="Calibri-39" d="M 2919 2181 
Q 2919 1919 2887 1650 
Q 2856 1381 2781 1132 
Q 2706 884 2579 667 
Q 2453 450 2261 287 
Q 2069 125 1805 33 
Q 1541 -59 1191 -59 
Q 1056 -59 929 -42 
Q 803 -25 701 0 
Q 600 25 531 53 
Q 463 81 431 109 
Q 400 138 386 186 
Q 372 234 372 316 
Q 372 384 376 425 
Q 381 466 390 487 
Q 400 509 417 517 
Q 434 525 459 525 
Q 494 525 556 501 
Q 619 478 714 450 
Q 809 422 937 398 
Q 1066 375 1225 375 
Q 1528 375 1745 492 
Q 1963 609 2100 806 
Q 2238 1003 2306 1262 
Q 2375 1522 2381 1809 
Q 2216 1713 1984 1638 
Q 1753 1563 1453 1563 
Q 1116 1563 886 1655 
Q 656 1747 517 1906 
Q 378 2066 317 2284 
Q 256 2503 256 2763 
Q 256 3031 334 3273 
Q 413 3516 578 3700 
Q 744 3884 1000 3993 
Q 1256 4103 1613 4103 
Q 1866 4103 2061 4039 
Q 2256 3975 2400 3854 
Q 2544 3734 2644 3564 
Q 2744 3394 2805 3178 
Q 2866 2963 2892 2711 
Q 2919 2459 2919 2181 
z
M 2372 2241 
Q 2372 2641 2319 2914 
Q 2266 3188 2162 3356 
Q 2059 3525 1909 3600 
Q 1759 3675 1563 3675 
Q 1359 3675 1215 3601 
Q 1072 3528 980 3404 
Q 888 3281 844 3125 
Q 800 2969 800 2803 
Q 800 2619 839 2466 
Q 878 2313 965 2206 
Q 1053 2100 1193 2042 
Q 1334 1984 1541 1984 
Q 1775 1984 1994 2054 
Q 2213 2125 2372 2241 
z
" transform="scale(0.015625)"/>
       </defs>
       <use xlink:href="#Calibri-30"/>
       <use xlink:href="#Calibri-2e" x="50.683594"/>
       <use xlink:href="#Calibri-39" x="75.927734"/>
      </g>
     </g>
    </g>
    <g id="xtick_11">
     <g id="line2d_11">
      <g>
       <use xlink:href="#md5338cf78f" x="343.296" y="307.584" style="stroke: #000000; stroke-width: 0.8"/>
      </g>
     </g>
     <g id="text_11">
      <!-- 1.0 -->
      <g transform="translate(336.96475 321.385562) scale(0.1 -0.1)">
       <use xlink:href="#Calibri-31"/>
       <use xlink:href="#Calibri-2e" x="50.683594"/>
       <use xlink:href="#Calibri-30" x="75.927734"/>
      </g>
     </g>
    </g>
    <g id="text_12">
     <!-- $\mathit{p}$ (cm$^2$/cm$^2$) -->
     <g transform="translate(174.148 336.263687) scale(0.1 -0.1)">
      <defs>
       <path id="DejaVuSans-Oblique-70" d="M 3175 2156 
Q 3175 2616 2975 2859 
Q 2775 3103 2400 3103 
Q 2144 3103 1911 2972 
Q 1678 2841 1497 2591 
Q 1319 2344 1212 1994 
Q 1106 1644 1106 1300 
Q 1106 863 1306 627 
Q 1506 391 1875 391 
Q 2147 391 2380 519 
Q 2613 647 2778 891 
Q 2956 1147 3065 1494 
Q 3175 1841 3175 2156 
z
M 1394 2969 
Q 1625 3272 1939 3428 
Q 2253 3584 2638 3584 
Q 3175 3584 3472 3232 
Q 3769 2881 3769 2247 
Q 3769 1728 3584 1258 
Q 3400 788 3053 416 
Q 2822 169 2531 39 
Q 2241 -91 1919 -91 
Q 1547 -91 1294 64 
Q 1041 219 916 525 
L 556 -1331 
L -19 -1331 
L 922 3500 
L 1497 3500 
L 1394 2969 
z
" transform="scale(0.015625)"/>
       <path id="Calibri-20" transform="scale(0.015625)"/>
       <path id="Calibri-28" d="M 1547 4306 
Q 1250 3678 1104 3017 
Q 959 2356 959 1688 
Q 959 1016 1107 356 
Q 1256 -303 1541 -938 
Q 1556 -975 1557 -1001 
Q 1559 -1028 1537 -1045 
Q 1516 -1063 1470 -1070 
Q 1425 -1078 1347 -1078 
Q 1291 -1078 1250 -1075 
Q 1209 -1072 1179 -1062 
Q 1150 -1053 1131 -1040 
Q 1113 -1028 1103 -1013 
Q 934 -694 806 -367 
Q 678 -41 590 296 
Q 503 634 459 979 
Q 416 1325 416 1678 
Q 416 2031 464 2375 
Q 513 2719 602 3058 
Q 691 3397 819 3725 
Q 947 4053 1106 4375 
Q 1109 4388 1123 4397 
Q 1138 4406 1163 4415 
Q 1188 4425 1231 4429 
Q 1275 4434 1344 4434 
Q 1416 4434 1459 4425 
Q 1503 4416 1528 4400 
Q 1553 4384 1556 4359 
Q 1559 4334 1547 4306 
z
" transform="scale(0.015625)"/>
       <path id="Calibri-63" d="M 2500 506 
Q 2500 453 2497 414 
Q 2494 375 2486 348 
Q 2478 322 2467 301 
Q 2456 281 2417 242 
Q 2378 203 2284 145 
Q 2191 88 2073 42 
Q 1956 -3 1818 -31 
Q 1681 -59 1534 -59 
Q 1231 -59 997 41 
Q 763 141 605 333 
Q 447 525 364 804 
Q 281 1084 281 1450 
Q 281 1866 382 2164 
Q 484 2463 661 2653 
Q 838 2844 1077 2936 
Q 1316 3028 1594 3028 
Q 1728 3028 1854 3003 
Q 1981 2978 2087 2937 
Q 2194 2897 2276 2844 
Q 2359 2791 2396 2753 
Q 2434 2716 2448 2694 
Q 2463 2672 2472 2642 
Q 2481 2613 2484 2575 
Q 2488 2538 2488 2481 
Q 2488 2359 2459 2311 
Q 2431 2263 2391 2263 
Q 2344 2263 2283 2314 
Q 2222 2366 2128 2428 
Q 2034 2491 1901 2542 
Q 1769 2594 1588 2594 
Q 1216 2594 1017 2308 
Q 819 2022 819 1478 
Q 819 1206 870 1001 
Q 922 797 1022 659 
Q 1122 522 1267 455 
Q 1413 388 1600 388 
Q 1778 388 1912 444 
Q 2047 500 2145 567 
Q 2244 634 2311 689 
Q 2378 744 2416 744 
Q 2438 744 2453 731 
Q 2469 719 2480 689 
Q 2491 659 2495 614 
Q 2500 569 2500 506 
z
" transform="scale(0.015625)"/>
       <path id="Calibri-6d" d="M 4650 78 
Q 4650 53 4637 36 
Q 4625 19 4597 6 
Q 4569 -6 4519 -12 
Q 4469 -19 4394 -19 
Q 4316 -19 4266 -12 
Q 4216 -6 4186 6 
Q 4156 19 4143 36 
Q 4131 53 4131 78 
L 4131 1788 
Q 4131 1966 4100 2112 
Q 4069 2259 4000 2365 
Q 3931 2472 3825 2528 
Q 3719 2584 3575 2584 
Q 3397 2584 3217 2446 
Q 3038 2309 2822 2044 
L 2822 78 
Q 2822 53 2809 36 
Q 2797 19 2767 6 
Q 2738 -6 2688 -12 
Q 2638 -19 2563 -19 
Q 2491 -19 2439 -12 
Q 2388 -6 2358 6 
Q 2328 19 2317 36 
Q 2306 53 2306 78 
L 2306 1788 
Q 2306 1966 2272 2112 
Q 2238 2259 2169 2365 
Q 2100 2472 1995 2528 
Q 1891 2584 1747 2584 
Q 1569 2584 1387 2446 
Q 1206 2309 994 2044 
L 994 78 
Q 994 53 981 36 
Q 969 19 941 6 
Q 913 -6 863 -12 
Q 813 -19 734 -19 
Q 659 -19 609 -12 
Q 559 -6 529 6 
Q 500 19 489 36 
Q 478 53 478 78 
L 478 2891 
Q 478 2916 487 2933 
Q 497 2950 525 2964 
Q 553 2978 597 2983 
Q 641 2988 713 2988 
Q 781 2988 826 2983 
Q 872 2978 897 2964 
Q 922 2950 933 2933 
Q 944 2916 944 2891 
L 944 2519 
Q 1181 2784 1404 2907 
Q 1628 3031 1856 3031 
Q 2031 3031 2170 2990 
Q 2309 2950 2415 2876 
Q 2522 2803 2597 2701 
Q 2672 2600 2722 2475 
Q 2863 2628 2989 2734 
Q 3116 2841 3233 2906 
Q 3350 2972 3461 3001 
Q 3572 3031 3684 3031 
Q 3956 3031 4140 2936 
Q 4325 2841 4439 2681 
Q 4553 2522 4601 2308 
Q 4650 2094 4650 1856 
L 4650 78 
z
" transform="scale(0.015625)"/>
       <path id="DejaVuSans-32" d="M 1228 531 
L 3431 531 
L 3431 0 
L 469 0 
L 469 531 
Q 828 903 1448 1529 
Q 2069 2156 2228 2338 
Q 2531 2678 2651 2914 
Q 2772 3150 2772 3378 
Q 2772 3750 2511 3984 
Q 2250 4219 1831 4219 
Q 1534 4219 1204 4116 
Q 875 4013 500 3803 
L 500 4441 
Q 881 4594 1212 4672 
Q 1544 4750 1819 4750 
Q 2544 4750 2975 4387 
Q 3406 4025 3406 3419 
Q 3406 3131 3298 2873 
Q 3191 2616 2906 2266 
Q 2828 2175 2409 1742 
Q 1991 1309 1228 531 
z
" transform="scale(0.015625)"/>
       <path id="Calibri-2f" d="M 525 -753 
Q 513 -794 492 -817 
Q 472 -841 440 -853 
Q 409 -866 364 -872 
Q 319 -878 253 -878 
Q 175 -878 123 -867 
Q 72 -856 44 -836 
Q 16 -816 9 -786 
Q 3 -756 22 -716 
L 1913 4469 
Q 1925 4509 1945 4532 
Q 1966 4556 1995 4570 
Q 2025 4584 2072 4589 
Q 2119 4594 2184 4594 
Q 2263 4594 2313 4583 
Q 2363 4572 2391 4553 
Q 2419 4534 2425 4503 
Q 2431 4472 2416 4431 
L 525 -753 
z
" transform="scale(0.015625)"/>
       <path id="Calibri-29" d="M 1522 1678 
Q 1522 1325 1478 979 
Q 1434 634 1346 296 
Q 1259 -41 1132 -367 
Q 1006 -694 838 -1013 
Q 828 -1028 809 -1040 
Q 791 -1053 761 -1062 
Q 731 -1072 690 -1075 
Q 650 -1078 594 -1078 
Q 513 -1078 467 -1070 
Q 422 -1063 401 -1045 
Q 381 -1028 382 -1001 
Q 384 -975 400 -938 
Q 688 -306 834 355 
Q 981 1016 981 1688 
Q 981 2356 834 3017 
Q 688 3678 394 4306 
Q 381 4334 384 4359 
Q 388 4384 413 4400 
Q 438 4416 481 4425 
Q 525 4434 597 4434 
Q 663 4434 706 4429 
Q 750 4425 776 4415 
Q 803 4406 815 4397 
Q 828 4388 834 4375 
Q 1156 3734 1339 3057 
Q 1522 2381 1522 1678 
z
" transform="scale(0.015625)"/>
      </defs>
      <use xlink:href="#DejaVuSans-Oblique-70" transform="translate(0 0.765625)"/>
      <use xlink:href="#Calibri-20" transform="translate(63.476562 0.765625)"/>
      <use xlink:href="#Calibri-28" transform="translate(84.958984 0.765625)"/>
      <use xlink:href="#Calibri-63" transform="translate(115.28125 0.765625)"/>
      <use xlink:href="#Calibri-6d" transform="translate(157.566406 0.765625)"/>
      <use xlink:href="#DejaVuSans-32" transform="translate(238.40625 39.046875) scale(0.7)"/>
      <use xlink:href="#Calibri-2f" transform="translate(285.676758 0.765625)"/>
      <use xlink:href="#Calibri-63" transform="translate(324.299805 0.765625)"/>
      <use xlink:href="#Calibri-6d" transform="translate(366.584961 0.765625)"/>
      <use xlink:href="#DejaVuSans-32" transform="translate(447.424805 39.046875) scale(0.7)"/>
      <use xlink:href="#Calibri-29" transform="translate(494.695312 0.765625)"/>
     </g>
    </g>
   </g>
   <g id="matplotlib.axis_2">
    <g id="ytick_1">
     <g id="line2d_12">
      <defs>
       <path id="m085214f189" d="M 0 0 
L -3.5 0 
" style="stroke: #000000; stroke-width: 0.8"/>
      </defs>
      <g>
       <use xlink:href="#m085214f189" x="57.6" y="275.65056" style="stroke: #000000; stroke-width: 0.8"/>
      </g>
     </g>
     <g id="text_13">
      <!-- 25 -->
      <g transform="translate(40.4625 279.051341) scale(0.1 -0.1)">
       <use xlink:href="#Calibri-32"/>
       <use xlink:href="#Calibri-35" x="50.683594"/>
      </g>
     </g>
    </g>
    <g id="ytick_2">
     <g id="line2d_13">
      <g>
       <use xlink:href="#m085214f189" x="57.6" y="242.38656" style="stroke: #000000; stroke-width: 0.8"/>
      </g>
     </g>
     <g id="text_14">
      <!-- 50 -->
      <g transform="translate(40.4625 245.787341) scale(0.1 -0.1)">
       <use xlink:href="#Calibri-35"/>
       <use xlink:href="#Calibri-30" x="50.683594"/>
      </g>
     </g>
    </g>
    <g id="ytick_3">
     <g id="line2d_14">
      <g>
       <use xlink:href="#m085214f189" x="57.6" y="209.12256" style="stroke: #000000; stroke-width: 0.8"/>
      </g>
     </g>
     <g id="text_15">
      <!-- 75 -->
      <g transform="translate(40.4625 212.523341) scale(0.1 -0.1)">
       <use xlink:href="#Calibri-37"/>
       <use xlink:href="#Calibri-35" x="50.683594"/>
      </g>
     </g>
    </g>
    <g id="ytick_4">
     <g id="line2d_15">
      <g>
       <use xlink:href="#m085214f189" x="57.6" y="175.85856" style="stroke: #000000; stroke-width: 0.8"/>
      </g>
     </g>
     <g id="text_16">
      <!-- 100 -->
      <g transform="translate(35.39375 179.259341) scale(0.1 -0.1)">
       <use xlink:href="#Calibri-31"/>
       <use xlink:href="#Calibri-30" x="50.683594"/>
       <use xlink:href="#Calibri-30" x="101.367188"/>
      </g>
     </g>
    </g>
    <g id="ytick_5">
     <g id="line2d_16">
      <g>
       <use xlink:href="#m085214f189" x="57.6" y="142.59456" style="stroke: #000000; stroke-width: 0.8"/>
      </g>
     </g>
     <g id="text_17">
      <!-- 125 -->
      <g transform="translate(35.39375 145.995341) scale(0.1 -0.1)">
       <use xlink:href="#Calibri-31"/>
       <use xlink:href="#Calibri-32" x="50.683594"/>
       <use xlink:href="#Calibri-35" x="101.367188"/>
      </g>
     </g>
    </g>
    <g id="ytick_6">
     <g id="line2d_17">
      <g>
       <use xlink:href="#m085214f189" x="57.6" y="109.33056" style="stroke: #000000; stroke-width: 0.8"/>
      </g>
     </g>
     <g id="text_18">
      <!-- 150 -->
      <g transform="translate(35.39375 112.731341) scale(0.1 -0.1)">
       <use xlink:href="#Calibri-31"/>
       <use xlink:href="#Calibri-35" x="50.683594"/>
       <use xlink:href="#Calibri-30" x="101.367188"/>
      </g>
     </g>
    </g>
    <g id="ytick_7">
     <g id="line2d_18">
      <g>
       <use xlink:href="#m085214f189" x="57.6" y="76.06656" style="stroke: #000000; stroke-width: 0.8"/>
      </g>
     </g>
     <g id="text_19">
      <!-- 175 -->
      <g transform="translate(35.39375 79.467341) scale(0.1 -0.1)">
       <use xlink:href="#Calibri-31"/>
       <use xlink:href="#Calibri-37" x="50.683594"/>
       <use xlink:href="#Calibri-35" x="101.367188"/>
      </g>
     </g>
    </g>
    <g id="ytick_8">
     <g id="line2d_19">
      <g>
       <use xlink:href="#m085214f189" x="57.6" y="42.80256" style="stroke: #000000; stroke-width: 0.8"/>
      </g>
     </g>
     <g id="text_20">
      <!-- 200 -->
      <g transform="translate(35.39375 46.203341) scale(0.1 -0.1)">
       <use xlink:href="#Calibri-32"/>
       <use xlink:href="#Calibri-30" x="50.683594"/>
       <use xlink:href="#Calibri-30" x="101.367188"/>
      </g>
     </g>
    </g>
    <g id="text_21">
     <!-- $\mathit{Z}$$_{a}$ (nm) -->
     <g transform="translate(29.59375 191.028) rotate(-90) scale(0.1 -0.1)">
      <defs>
       <path id="DejaVuSans-Oblique-5a" d="M 838 4666 
L 4500 4666 
L 4409 4184 
L 794 531 
L 3769 531 
L 3669 0 
L -141 0 
L -50 481 
L 3566 4134 
L 738 4134 
L 838 4666 
z
" transform="scale(0.015625)"/>
       <path id="DejaVuSans-Oblique-61" d="M 3438 1997 
L 3047 0 
L 2472 0 
L 2578 531 
Q 2325 219 2001 64 
Q 1678 -91 1281 -91 
Q 834 -91 548 182 
Q 263 456 263 884 
Q 263 1497 752 1853 
Q 1241 2209 2100 2209 
L 2900 2209 
L 2931 2363 
Q 2938 2388 2941 2417 
Q 2944 2447 2944 2509 
Q 2944 2788 2717 2942 
Q 2491 3097 2081 3097 
Q 1800 3097 1504 3025 
Q 1209 2953 897 2809 
L 997 3341 
Q 1322 3463 1633 3523 
Q 1944 3584 2234 3584 
Q 2853 3584 3176 3315 
Q 3500 3047 3500 2534 
Q 3500 2431 3484 2292 
Q 3469 2153 3438 1997 
z
M 2816 1759 
L 2241 1759 
Q 1534 1759 1195 1570 
Q 856 1381 856 984 
Q 856 709 1029 553 
Q 1203 397 1509 397 
Q 1978 397 2328 733 
Q 2678 1069 2791 1631 
L 2816 1759 
z
" transform="scale(0.015625)"/>
       <path id="Calibri-6e" d="M 2900 78 
Q 2900 53 2887 36 
Q 2875 19 2847 6 
Q 2819 -6 2769 -12 
Q 2719 -19 2644 -19 
Q 2566 -19 2516 -12 
Q 2466 -6 2437 6 
Q 2409 19 2396 36 
Q 2384 53 2384 78 
L 2384 1725 
Q 2384 1966 2346 2112 
Q 2309 2259 2237 2365 
Q 2166 2472 2052 2528 
Q 1938 2584 1788 2584 
Q 1594 2584 1400 2446 
Q 1206 2309 994 2044 
L 994 78 
Q 994 53 981 36 
Q 969 19 941 6 
Q 913 -6 863 -12 
Q 813 -19 734 -19 
Q 659 -19 609 -12 
Q 559 -6 529 6 
Q 500 19 489 36 
Q 478 53 478 78 
L 478 2891 
Q 478 2916 487 2933 
Q 497 2950 525 2964 
Q 553 2978 597 2983 
Q 641 2988 713 2988 
Q 781 2988 826 2983 
Q 872 2978 897 2964 
Q 922 2950 933 2933 
Q 944 2916 944 2891 
L 944 2519 
Q 1181 2784 1417 2907 
Q 1653 3031 1894 3031 
Q 2175 3031 2367 2936 
Q 2559 2841 2678 2681 
Q 2797 2522 2848 2308 
Q 2900 2094 2900 1794 
L 2900 78 
z
" transform="scale(0.015625)"/>
      </defs>
      <use xlink:href="#DejaVuSans-Oblique-5a" transform="translate(0 0.09375)"/>
      <use xlink:href="#DejaVuSans-Oblique-61" transform="translate(69.462891 -16.3125) scale(0.7)"/>
      <use xlink:href="#Calibri-20" transform="translate(115.092773 0.09375)"/>
      <use xlink:href="#Calibri-28" transform="translate(136.575195 0.09375)"/>
      <use xlink:href="#Calibri-6e" transform="translate(166.897461 0.09375)"/>
      <use xlink:href="#Calibri-6d" transform="translate(219.436523 0.09375)"/>
      <use xlink:href="#Calibri-29" transform="translate(299.319336 0.09375)"/>
     </g>
    </g>
   </g>
   <g id="patch_3">
    <path d="M 57.6 307.584 
L 57.6 41.472 
" style="fill: none; stroke: #000000; stroke-width: 0.8; stroke-linejoin: miter; stroke-linecap: square"/>
   </g>
   <g id="patch_4">
    <path d="M 343.296 307.584 
L 343.296 41.472 
" style="fill: none; stroke: #000000; stroke-width: 0.8; stroke-linejoin: miter; stroke-linecap: square"/>
   </g>
   <g id="patch_5">
    <path d="M 57.6 307.584 
L 343.296 307.584 
" style="fill: none; stroke: #000000; stroke-width: 0.8; stroke-linejoin: miter; stroke-linecap: square"/>
   </g>
   <g id="patch_6">
    <path d="M 57.6 41.472 
L 343.296 41.472 
" style="fill: none; stroke: #000000; stroke-width: 0.8; stroke-linejoin: miter; stroke-linecap: square"/>
   </g>
   <g id="text_22">
    <!-- $\lambda$ = 725 nm -->
    <g transform="translate(177.348 35.472) scale(0.1 -0.1)">
     <defs>
      <path id="DejaVuSans-Oblique-3bb" d="M 2350 4316 
L 3125 0 
L 2516 0 
L 2038 2588 
L 328 0 
L -281 0 
L 1903 3356 
L 1794 3975 
Q 1725 4369 1391 4369 
L 1091 4369 
L 1184 4863 
L 1550 4856 
Q 2253 4847 2350 4316 
z
" transform="scale(0.015625)"/>
      <path id="Calibri-3d" d="M 2891 2409 
Q 2891 2284 2855 2236 
Q 2819 2188 2772 2188 
L 409 2188 
Q 363 2188 328 2236 
Q 294 2284 294 2409 
Q 294 2522 325 2575 
Q 356 2628 409 2628 
L 2772 2628 
Q 2828 2628 2859 2575 
Q 2891 2522 2891 2409 
z
M 2891 1194 
Q 2891 1069 2855 1022 
Q 2819 975 2772 975 
L 409 975 
Q 363 975 328 1022 
Q 294 1069 294 1194 
Q 294 1309 325 1362 
Q 356 1416 409 1416 
L 2772 1416 
Q 2828 1416 2859 1362 
Q 2891 1309 2891 1194 
z
" transform="scale(0.015625)"/>
     </defs>
     <use xlink:href="#DejaVuSans-Oblique-3bb" transform="translate(0 0.015625)"/>
     <use xlink:href="#Calibri-20" transform="translate(59.179688 0.015625)"/>
     <use xlink:href="#Calibri-3d" transform="translate(81.787109 0.015625)"/>
     <use xlink:href="#Calibri-20" transform="translate(131.591797 0.015625)"/>
     <use xlink:href="#Calibri-37" transform="translate(154.199219 0.015625)"/>
     <use xlink:href="#Calibri-32" transform="translate(204.882812 0.015625)"/>
     <use xlink:href="#Calibri-35" transform="translate(255.566406 0.015625)"/>
     <use xlink:href="#Calibri-20" transform="translate(306.25 0.015625)"/>
     <use xlink:href="#Calibri-6e" transform="translate(328.857422 0.015625)"/>
     <use xlink:href="#Calibri-6d" transform="translate(381.396484 0.015625)"/>
    </g>
   </g>
  </g>
  <g id="axes_2">
   <g id="patch_7">
    <path d="M 361.152 307.584 
L 374.4576 307.584 
L 374.4576 41.472 
L 361.152 41.472 
z
" style="fill: #ffffff"/>
   </g>
   <g id="QuadMesh_1">
    <path d="M 361.152 307.584 
L 374.4576 307.584 
L 374.4576 280.9728 
L 361.152 280.9728 
L 361.152 307.584 
" clip-path="url(#p8c2f26f67e)" style="fill: #0000b6"/>
    <path d="M 361.152 280.9728 
L 374.4576 280.9728 
L 374.4576 254.3616 
L 361.152 254.3616 
L 361.152 280.9728 
" clip-path="url(#p8c2f26f67e)" style="fill: #0018ff"/>
    <path d="M 361.152 254.3616 
L 374.4576 254.3616 
L 374.4576 227.7504 
L 361.152 227.7504 
L 361.152 254.3616 
" clip-path="url(#p8c2f26f67e)" style="fill: #0080ff"/>
    <path d="M 361.152 227.7504 
L 374.4576 227.7504 
L 374.4576 201.1392 
L 361.152 201.1392 
L 361.152 227.7504 
" clip-path="url(#p8c2f26f67e)" style="fill: #00e4f8"/>
    <path d="M 361.152 201.1392 
L 374.4576 201.1392 
L 374.4576 174.528 
L 361.152 174.528 
L 361.152 201.1392 
" clip-path="url(#p8c2f26f67e)" style="fill: #53ffa4"/>
    <path d="M 361.152 174.528 
L 374.4576 174.528 
L 374.4576 147.9168 
L 361.152 147.9168 
L 361.152 174.528 
" clip-path="url(#p8c2f26f67e)" style="fill: #a4ff53"/>
    <path d="M 361.152 147.9168 
L 374.4576 147.9168 
L 374.4576 121.3056 
L 361.152 121.3056 
L 361.152 147.9168 
" clip-path="url(#p8c2f26f67e)" style="fill: #f8f500"/>
    <path d="M 361.152 121.3056 
L 374.4576 121.3056 
L 374.4576 94.6944 
L 361.152 94.6944 
L 361.152 121.3056 
" clip-path="url(#p8c2f26f67e)" style="fill: #ff9400"/>
    <path d="M 361.152 94.6944 
L 374.4576 94.6944 
L 374.4576 68.0832 
L 361.152 68.0832 
L 361.152 94.6944 
" clip-path="url(#p8c2f26f67e)" style="fill: #ff3800"/>
    <path d="M 361.152 68.0832 
L 374.4576 68.0832 
L 374.4576 41.472 
L 361.152 41.472 
L 361.152 68.0832 
" clip-path="url(#p8c2f26f67e)" style="fill: #b60000"/>
   </g>
   <g id="matplotlib.axis_3"/>
   <g id="matplotlib.axis_4">
    <g id="ytick_9">
     <g id="line2d_20">
      <defs>
       <path id="m659da79178" d="M 0 0 
L 3.5 0 
" style="stroke: #000000; stroke-width: 0.8"/>
      </defs>
      <g>
       <use xlink:href="#m659da79178" x="374.4576" y="307.584" style="stroke: #000000; stroke-width: 0.8"/>
      </g>
     </g>
     <g id="text_23">
      <!-- 0 -->
      <g transform="translate(381.4576 310.984781) scale(0.1 -0.1)">
       <use xlink:href="#Calibri-30"/>
      </g>
     </g>
    </g>
    <g id="ytick_10">
     <g id="line2d_21">
      <g>
       <use xlink:href="#m659da79178" x="374.4576" y="280.9728" style="stroke: #000000; stroke-width: 0.8"/>
      </g>
     </g>
     <g id="text_24">
      <!-- 0.1 -->
      <g transform="translate(381.4576 284.373581) scale(0.1 -0.1)">
       <use xlink:href="#Calibri-30"/>
       <use xlink:href="#Calibri-2e" x="50.683594"/>
       <use xlink:href="#Calibri-31" x="75.927734"/>
      </g>
     </g>
    </g>
    <g id="ytick_11">
     <g id="line2d_22">
      <g>
       <use xlink:href="#m659da79178" x="374.4576" y="254.3616" style="stroke: #000000; stroke-width: 0.8"/>
      </g>
     </g>
     <g id="text_25">
      <!-- 0.2 -->
      <g transform="translate(381.4576 257.762381) scale(0.1 -0.1)">
       <use xlink:href="#Calibri-30"/>
       <use xlink:href="#Calibri-2e" x="50.683594"/>
       <use xlink:href="#Calibri-32" x="75.927734"/>
      </g>
     </g>
    </g>
    <g id="ytick_12">
     <g id="line2d_23">
      <g>
       <use xlink:href="#m659da79178" x="374.4576" y="227.7504" style="stroke: #000000; stroke-width: 0.8"/>
      </g>
     </g>
     <g id="text_26">
      <!-- 0.3 -->
      <g transform="translate(381.4576 231.151181) scale(0.1 -0.1)">
       <use xlink:href="#Calibri-30"/>
       <use xlink:href="#Calibri-2e" x="50.683594"/>
       <use xlink:href="#Calibri-33" x="75.927734"/>
      </g>
     </g>
    </g>
    <g id="ytick_13">
     <g id="line2d_24">
      <g>
       <use xlink:href="#m659da79178" x="374.4576" y="201.1392" style="stroke: #000000; stroke-width: 0.8"/>
      </g>
     </g>
     <g id="text_27">
      <!-- 0.4 -->
      <g transform="translate(381.4576 204.539981) scale(0.1 -0.1)">
       <use xlink:href="#Calibri-30"/>
       <use xlink:href="#Calibri-2e" x="50.683594"/>
       <use xlink:href="#Calibri-34" x="75.927734"/>
      </g>
     </g>
    </g>
    <g id="ytick_14">
     <g id="line2d_25">
      <g>
       <use xlink:href="#m659da79178" x="374.4576" y="174.528" style="stroke: #000000; stroke-width: 0.8"/>
      </g>
     </g>
     <g id="text_28">
      <!-- 0.5 -->
      <g transform="translate(381.4576 177.928781) scale(0.1 -0.1)">
       <use xlink:href="#Calibri-30"/>
       <use xlink:href="#Calibri-2e" x="50.683594"/>
       <use xlink:href="#Calibri-35" x="75.927734"/>
      </g>
     </g>
    </g>
    <g id="ytick_15">
     <g id="line2d_26">
      <g>
       <use xlink:href="#m659da79178" x="374.4576" y="147.9168" style="stroke: #000000; stroke-width: 0.8"/>
      </g>
     </g>
     <g id="text_29">
      <!-- 0.6 -->
      <g transform="translate(381.4576 151.317581) scale(0.1 -0.1)">
       <use xlink:href="#Calibri-30"/>
       <use xlink:href="#Calibri-2e" x="50.683594"/>
       <use xlink:href="#Calibri-36" x="75.927734"/>
      </g>
     </g>
    </g>
    <g id="ytick_16">
     <g id="line2d_27">
      <g>
       <use xlink:href="#m659da79178" x="374.4576" y="121.3056" style="stroke: #000000; stroke-width: 0.8"/>
      </g>
     </g>
     <g id="text_30">
      <!-- 0.7 -->
      <g transform="translate(381.4576 124.706381) scale(0.1 -0.1)">
       <use xlink:href="#Calibri-30"/>
       <use xlink:href="#Calibri-2e" x="50.683594"/>
       <use xlink:href="#Calibri-37" x="75.927734"/>
      </g>
     </g>
    </g>
    <g id="ytick_17">
     <g id="line2d_28">
      <g>
       <use xlink:href="#m659da79178" x="374.4576" y="94.6944" style="stroke: #000000; stroke-width: 0.8"/>
      </g>
     </g>
     <g id="text_31">
      <!-- 0.8 -->
      <g transform="translate(381.4576 98.095181) scale(0.1 -0.1)">
       <use xlink:href="#Calibri-30"/>
       <use xlink:href="#Calibri-2e" x="50.683594"/>
       <use xlink:href="#Calibri-38" x="75.927734"/>
      </g>
     </g>
    </g>
    <g id="ytick_18">
     <g id="line2d_29">
      <g>
       <use xlink:href="#m659da79178" x="374.4576" y="68.0832" style="stroke: #000000; stroke-width: 0.8"/>
      </g>
     </g>
     <g id="text_32">
      <!-- 0.9 -->
      <g transform="translate(381.4576 71.483981) scale(0.1 -0.1)">
       <use xlink:href="#Calibri-30"/>
       <use xlink:href="#Calibri-2e" x="50.683594"/>
       <use xlink:href="#Calibri-39" x="75.927734"/>
      </g>
     </g>
    </g>
    <g id="ytick_19">
     <g id="line2d_30">
      <g>
       <use xlink:href="#m659da79178" x="374.4576" y="41.472" style="stroke: #000000; stroke-width: 0.8"/>
      </g>
     </g>
     <g id="text_33">
      <!-- 1.0 -->
      <g transform="translate(381.4576 44.872781) scale(0.1 -0.1)">
       <use xlink:href="#Calibri-31"/>
       <use xlink:href="#Calibri-2e" x="50.683594"/>
       <use xlink:href="#Calibri-30" x="75.927734"/>
      </g>
     </g>
    </g>
   </g>
   <g id="LineCollection_1"/>
   <g id="patch_8">
    <path d="M 361.152 307.584 
L 367.8048 307.584 
L 374.4576 307.584 
L 374.4576 41.472 
L 367.8048 41.472 
L 361.152 41.472 
L 361.152 307.584 
z
" style="fill: none; stroke: #000000; stroke-width: 0.8; stroke-linejoin: miter; stroke-linecap: square"/>
   </g>
   <g id="text_34">
    <!-- $\mathit{E}_{\mathrm{dis}}$/$\mathit{E}_{\mathrm{i}}$ -->
    <g transform="translate(353.2548 35.472) scale(0.1 -0.1)">
     <defs>
      <path id="DejaVuSans-Oblique-45" d="M 1081 4666 
L 4031 4666 
L 3928 4134 
L 1606 4134 
L 1338 2753 
L 3566 2753 
L 3463 2222 
L 1234 2222 
L 909 531 
L 3284 531 
L 3181 0 
L 172 0 
L 1081 4666 
z
" transform="scale(0.015625)"/>
      <path id="DejaVuSans-64" d="M 2906 2969 
L 2906 4863 
L 3481 4863 
L 3481 0 
L 2906 0 
L 2906 525 
Q 2725 213 2448 61 
Q 2172 -91 1784 -91 
Q 1150 -91 751 415 
Q 353 922 353 1747 
Q 353 2572 751 3078 
Q 1150 3584 1784 3584 
Q 2172 3584 2448 3432 
Q 2725 3281 2906 2969 
z
M 947 1747 
Q 947 1113 1208 752 
Q 1469 391 1925 391 
Q 2381 391 2643 752 
Q 2906 1113 2906 1747 
Q 2906 2381 2643 2742 
Q 2381 3103 1925 3103 
Q 1469 3103 1208 2742 
Q 947 2381 947 1747 
z
" transform="scale(0.015625)"/>
      <path id="DejaVuSans-69" d="M 603 3500 
L 1178 3500 
L 1178 0 
L 603 0 
L 603 3500 
z
M 603 4863 
L 1178 4863 
L 1178 4134 
L 603 4134 
L 603 4863 
z
" transform="scale(0.015625)"/>
      <path id="DejaVuSans-73" d="M 2834 3397 
L 2834 2853 
Q 2591 2978 2328 3040 
Q 2066 3103 1784 3103 
Q 1356 3103 1142 2972 
Q 928 2841 928 2578 
Q 928 2378 1081 2264 
Q 1234 2150 1697 2047 
L 1894 2003 
Q 2506 1872 2764 1633 
Q 3022 1394 3022 966 
Q 3022 478 2636 193 
Q 2250 -91 1575 -91 
Q 1294 -91 989 -36 
Q 684 19 347 128 
L 347 722 
Q 666 556 975 473 
Q 1284 391 1588 391 
Q 1994 391 2212 530 
Q 2431 669 2431 922 
Q 2431 1156 2273 1281 
Q 2116 1406 1581 1522 
L 1381 1569 
Q 847 1681 609 1914 
Q 372 2147 372 2553 
Q 372 3047 722 3315 
Q 1072 3584 1716 3584 
Q 2034 3584 2315 3537 
Q 2597 3491 2834 3397 
z
" transform="scale(0.015625)"/>
     </defs>
     <use xlink:href="#DejaVuSans-Oblique-45" transform="translate(0 0.09375)"/>
     <use xlink:href="#DejaVuSans-64" transform="translate(63.183594 -16.3125) scale(0.7)"/>
     <use xlink:href="#DejaVuSans-69" transform="translate(107.617188 -16.3125) scale(0.7)"/>
     <use xlink:href="#DejaVuSans-73" transform="translate(127.06543 -16.3125) scale(0.7)"/>
     <use xlink:href="#Calibri-2f" transform="translate(166.269531 0.09375)"/>
     <use xlink:href="#DejaVuSans-Oblique-45" transform="translate(204.892578 0.09375)"/>
     <use xlink:href="#DejaVuSans-69" transform="translate(268.076172 -16.3125) scale(0.7)"/>
    </g>
   </g>
  </g>
 </g>
 <defs>
  <clipPath id="p6b823e4f0f">
   <rect x="57.6" y="41.472" width="285.696" height="266.112"/>
  </clipPath>
  <clipPath id="p8c2f26f67e">
   <rect x="361.152" y="41.472" width="13.3056" height="266.112"/>
  </clipPath>
 </defs>
</svg>
