<?xml version="1.0" encoding="utf-8" standalone="no"?>
<!DOCTYPE svg PUBLIC "-//W3C//DTD SVG 1.1//EN"
  "http://www.w3.org/Graphics/SVG/1.1/DTD/svg11.dtd">
<svg xmlns:xlink="http://www.w3.org/1999/xlink" width="460.8pt" height="345.6pt" viewBox="0 0 460.8 345.6" xmlns="http://www.w3.org/2000/svg" version="1.1">
 <metadata>
  <rdf:RDF xmlns:dc="http://purl.org/dc/elements/1.1/" xmlns:cc="http://creativecommons.org/ns#" xmlns:rdf="http://www.w3.org/1999/02/22-rdf-syntax-ns#">
   <cc:Work>
    <dc:type rdf:resource="http://purl.org/dc/dcmitype/StillImage"/>
    <dc:date>2024-01-22T08:50:20.378387</dc:date>
    <dc:format>image/svg+xml</dc:format>
    <dc:creator>
     <cc:Agent>
      <dc:title>Matplotlib v3.7.1, https://matplotlib.org/</dc:title>
     </cc:Agent>
    </dc:creator>
   </cc:Work>
  </rdf:RDF>
 </metadata>
 <defs>
  <style type="text/css">*{stroke-linejoin: round; stroke-linecap: butt}</style>
 </defs>
 <g id="figure_1">
  <g id="patch_1">
   <path d="M 0 345.6 
L 460.8 345.6 
L 460.8 0 
L 0 0 
z
" style="fill: #ffffff"/>
  </g>
  <g id="axes_1">
   <g id="patch_2">
    <path d="M 57.6 307.584 
L 343.296 307.584 
L 343.296 41.472 
L 57.6 41.472 
z
" style="fill: #ffffff"/>
   </g>
   <g id="PathCollection_1">
    <path clip-path="url(#p45746feea5)" style="fill: #0000b6"/>
   </g>
   <g id="PathCollection_2">
    <path clip-path="url(#p45746feea5)" style="fill: #0018ff"/>
   </g>
   <g id="PathCollection_3">
    <path d="M 57.62857 55.436668 
L 57.838505 55.235908 
L 58.305627 54.7776 
L 58.710358 54.377984 
L 59.288158 53.80332 
L 59.93281 53.155163 
L 60.453683 52.622877 
L 60.826838 52.246217 
L 61.60411 51.4512 
L 62.008028 51.03275 
L 62.748333 50.253497 
L 63.37248 49.601602 
L 63.847443 49.09908 
L 63.950314 48.990579 
L 64.757728 48.1248 
L 64.911524 47.958823 
L 64.98022 47.883443 
L 65.654414 47.15052 
L 66.1001 46.660511 
L 66.502848 46.210843 
L 66.946017 45.721652 
L 67.772151 44.7984 
L 68.116142 44.408912 
L 68.869785 43.542619 
L 69.453536 42.876111 
L 69.825487 42.44628 
L 70.111652 42.112488 
L 70.658425 41.472 
L 69.818266 41.472 
L 68.294554 41.472 
L 66.770842 41.472 
L 65.24713 41.472 
L 63.723418 41.472 
L 62.199706 41.472 
L 60.675994 41.472 
L 59.152282 41.472 
L 57.62857 41.472 
L 57.62857 44.7984 
L 57.62857 48.1248 
L 57.62857 51.4512 
L 57.62857 54.7776 
" clip-path="url(#p45746feea5)" style="fill: #0080ff"/>
   </g>
   <g id="PathCollection_4">
    <path d="M 70.658425 41.472 
L 70.111652 42.112488 
L 69.825487 42.44628 
L 69.453536 42.876111 
L 68.869785 43.542619 
L 68.116142 44.408912 
L 67.772151 44.7984 
L 66.946017 45.721652 
L 66.502848 46.210843 
L 66.1001 46.660511 
L 65.654414 47.15052 
L 64.98022 47.883443 
L 64.911524 47.958823 
L 64.757728 48.1248 
L 63.950314 48.990579 
L 63.847443 49.09908 
L 63.37248 49.601602 
L 62.748333 50.253497 
L 62.008028 51.03275 
L 61.60411 51.4512 
L 60.826838 52.246217 
L 60.453683 52.622877 
L 59.93281 53.155163 
L 59.288158 53.80332 
L 58.710358 54.377984 
L 58.305627 54.7776 
L 57.838505 55.235908 
L 57.62857 55.436668 
L 57.62857 58.104 
L 57.62857 61.4304 
L 57.62857 64.7568 
L 57.62857 68.0832 
L 57.62857 71.4096 
L 57.62857 74.736 
L 57.62857 78.0624 
L 57.62857 81.3888 
L 57.62857 84.7152 
L 57.62857 88.0416 
L 57.62857 91.368 
L 57.62857 94.6944 
L 57.62857 98.0208 
L 57.62857 101.3472 
L 57.62857 104.6736 
L 57.62857 105.13894 
L 57.709183 105.098471 
L 58.514764 104.6736 
L 59.027151 104.40043 
L 59.36117 104.217578 
L 60.475858 103.618795 
L 60.922756 103.373052 
L 61.469358 103.079187 
L 62.841904 102.32148 
L 63.111252 102.17148 
L 63.467645 101.974271 
L 64.578444 101.3472 
L 64.988907 101.113699 
L 66.279911 100.37292 
L 66.315199 100.352491 
L 66.330113 100.343635 
L 67.124012 99.882164 
L 67.560835 99.622573 
L 68.71857 98.946465 
L 69.761108 98.322047 
L 69.863978 98.261727 
L 70.26587 98.0208 
L 71.108077 97.510175 
L 71.762024 97.103801 
L 72.595102 96.594682 
L 73.209007 96.211363 
L 73.483614 96.043384 
L 74.081252 95.66868 
L 74.896386 95.152848 
L 75.615245 94.6944 
L 76.677532 94.007797 
L 77.119237 93.72012 
L 78.19137 93.015237 
L 78.714855 92.662855 
L 79.151518 92.37455 
L 80.412339 91.524987 
L 80.522636 91.4518 
L 80.645982 91.368 
L 81.850814 90.53976 
L 82.213339 90.28557 
L 82.838718 89.855216 
L 84.030652 89.01588 
L 84.354467 88.785623 
L 84.635289 88.587403 
L 85.393723 88.0416 
L 86.05114 87.564186 
L 86.730802 87.06732 
L 87.422569 86.556574 
L 87.808737 86.265093 
L 88.324335 85.882738 
L 89.497926 84.995937 
L 89.689648 84.85301 
L 89.870468 84.7152 
L 90.986823 83.853952 
L 91.370902 83.55218 
L 91.939898 83.112708 
L 92.889733 82.36308 
L 93.347628 81.997988 
L 93.562321 81.828154 
L 94.107207 81.3888 
L 94.719188 80.893162 
L 94.956551 80.697201 
L 95.301728 80.41452 
L 96.387312 79.516211 
L 97.080327 78.930729 
L 97.364945 78.694132 
L 98.111808 78.0624 
L 98.583665 77.658248 
L 99.201153 77.118522 
L 99.984898 76.441173 
L 100.723253 75.792171 
L 100.761243 75.759297 
L 100.81675 75.71028 
L 101.86195 74.777354 
L 101.907856 74.736 
L 102.919739 73.818687 
L 103.33993 73.426979 
L 103.33993 71.4096 
L 103.33993 68.0832 
L 103.33993 64.7568 
L 103.33993 61.4304 
L 103.33993 58.104 
L 103.33993 54.7776 
L 103.33993 51.4512 
L 103.33993 48.1248 
L 103.33993 44.7984 
L 103.33993 41.472 
L 101.816218 41.472 
L 100.292506 41.472 
L 98.768794 41.472 
L 97.245082 41.472 
L 95.72137 41.472 
L 94.197658 41.472 
L 92.673946 41.472 
L 91.150234 41.472 
L 89.626522 41.472 
L 88.10281 41.472 
L 86.579098 41.472 
L 85.055386 41.472 
L 83.531674 41.472 
L 82.007962 41.472 
L 80.48425 41.472 
L 78.960538 41.472 
L 77.436826 41.472 
L 75.913114 41.472 
L 74.389402 41.472 
L 72.86569 41.472 
L 71.341978 41.472 
" clip-path="url(#p45746feea5)" style="fill: #00e4f8"/>
   </g>
   <g id="PathCollection_5">
    <path d="M 103.33993 73.426979 
L 102.919739 73.818687 
L 101.907856 74.736 
L 101.86195 74.777354 
L 100.81675 75.71028 
L 100.761243 75.759297 
L 100.723253 75.792171 
L 99.984898 76.441173 
L 99.201153 77.118522 
L 98.583665 77.658248 
L 98.111808 78.0624 
L 97.364945 78.694132 
L 97.080327 78.930729 
L 96.387312 79.516211 
L 95.301728 80.41452 
L 94.956551 80.697201 
L 94.719188 80.893162 
L 94.107207 81.3888 
L 93.562321 81.828154 
L 93.347628 81.997988 
L 92.889733 82.36308 
L 91.939898 83.112708 
L 91.370902 83.55218 
L 90.986823 83.853952 
L 89.870468 84.7152 
L 89.689648 84.85301 
L 89.497926 84.995937 
L 88.324335 85.882738 
L 87.808737 86.265093 
L 87.422569 86.556574 
L 86.730802 87.06732 
L 86.05114 87.564186 
L 85.393723 88.0416 
L 84.635289 88.587403 
L 84.354467 88.785623 
L 84.030652 89.01588 
L 82.838718 89.855216 
L 82.213339 90.28557 
L 81.850814 90.53976 
L 80.645982 91.368 
L 80.522636 91.4518 
L 80.412339 91.524987 
L 79.151518 92.37455 
L 78.714855 92.662855 
L 78.19137 93.015237 
L 77.119237 93.72012 
L 76.677532 94.007797 
L 75.615245 94.6944 
L 74.896386 95.152848 
L 74.081252 95.66868 
L 73.483614 96.043384 
L 73.209007 96.211363 
L 72.595102 96.594682 
L 71.762024 97.103801 
L 71.108077 97.510175 
L 70.26587 98.0208 
L 69.863978 98.261727 
L 69.761108 98.322047 
L 68.71857 98.946465 
L 67.560835 99.622573 
L 67.124012 99.882164 
L 66.330113 100.343635 
L 66.315199 100.352491 
L 66.279911 100.37292 
L 64.988907 101.113699 
L 64.578444 101.3472 
L 63.467645 101.974271 
L 63.111252 102.17148 
L 62.841904 102.32148 
L 61.469358 103.079187 
L 60.922756 103.373052 
L 60.475858 103.618795 
L 59.36117 104.217578 
L 59.027151 104.40043 
L 58.514764 104.6736 
L 57.709183 105.098471 
L 57.62857 105.13894 
L 57.62857 108 
L 57.62857 111.3264 
L 57.62857 114.6528 
L 57.62857 117.9792 
L 57.62857 121.3056 
L 57.62857 124.632 
L 57.62857 127.9584 
L 57.62857 131.2848 
L 57.62857 134.6112 
L 57.62857 137.9376 
L 57.62857 141.264 
L 57.62857 144.5904 
L 57.62857 145.77497 
L 57.843615 145.723784 
L 58.739685 145.491136 
L 59.480415 145.306744 
L 60.595374 145.015303 
L 60.749317 144.976847 
L 62.195995 144.598499 
L 62.202651 144.596831 
L 62.227072 144.5904 
L 63.651604 144.211911 
L 63.803216 144.169828 
L 64.918649 143.873296 
L 65.671707 143.66351 
L 66.550348 143.428299 
L 67.016048 143.298053 
L 67.627545 143.13426 
L 69.158401 142.704544 
L 69.445742 142.627036 
L 70.232879 142.405202 
L 70.329114 142.379228 
L 70.827391 142.23828 
L 72.038009 141.893397 
L 72.404566 141.789513 
L 74.208318 141.264 
L 74.322236 141.230782 
L 74.345092 141.223933 
L 74.477296 141.18452 
L 76.232817 140.668547 
L 76.641722 140.545015 
L 77.491264 140.28972 
L 78.389674 140.017754 
L 78.577099 139.958493 
L 79.302168 139.738143 
L 79.72005 139.605915 
L 81.060985 139.196665 
L 81.814657 138.956401 
L 82.180025 138.84445 
L 83.276517 138.494629 
L 83.723783 138.356992 
L 85.02846 137.9376 
L 85.053823 137.929366 
L 85.057162 137.92824 
L 86.378201 137.499025 
L 86.853809 137.33788 
L 87.922623 136.987936 
L 88.307873 136.856823 
L 89.023966 136.622166 
L 90.452736 136.1339 
L 90.787056 136.023492 
L 91.564018 135.756771 
L 91.66039 135.724917 
L 92.064878 135.58548 
L 93.283252 135.162174 
L 93.580418 135.059504 
L 94.844223 134.6112 
L 95.473122 134.386718 
L 96.301878 134.086267 
L 97.11684 133.794211 
L 97.544359 133.63692 
L 97.681795 133.586477 
L 97.721369 133.571421 
L 99.513481 132.910519 
L 100.020979 132.715863 
L 100.528372 132.527922 
L 101.400099 132.193224 
L 102.111114 131.928585 
L 103.305512 131.466198 
L 103.33993 131.452961 
L 103.33993 131.2848 
L 103.33993 127.9584 
L 103.33993 124.632 
L 103.33993 121.3056 
L 103.33993 117.9792 
L 103.33993 114.6528 
L 103.33993 111.3264 
L 103.33993 108 
L 103.33993 104.6736 
L 103.33993 101.3472 
L 103.33993 98.0208 
L 103.33993 94.6944 
L 103.33993 91.368 
L 103.33993 88.0416 
L 103.33993 84.7152 
L 103.33993 81.3888 
L 103.33993 78.0624 
L 103.33993 74.736 
" clip-path="url(#p45746feea5)" style="fill: #53ffa4"/>
   </g>
   <g id="PathCollection_6">
    <path d="M 103.33993 131.452961 
L 103.305512 131.466198 
L 102.111114 131.928585 
L 101.400099 132.193224 
L 100.528372 132.527922 
L 100.020979 132.715863 
L 99.513481 132.910519 
L 97.721369 133.571421 
L 97.681795 133.586477 
L 97.544359 133.63692 
L 97.11684 133.794211 
L 96.301878 134.086267 
L 95.473122 134.386718 
L 94.844223 134.6112 
L 93.580418 135.059504 
L 93.283252 135.162174 
L 92.064878 135.58548 
L 91.66039 135.724917 
L 91.564018 135.756771 
L 90.787056 136.023492 
L 90.452736 136.1339 
L 89.023966 136.622166 
L 88.307873 136.856823 
L 87.922623 136.987936 
L 86.853809 137.33788 
L 86.378201 137.499025 
L 85.057162 137.92824 
L 85.053823 137.929366 
L 85.02846 137.9376 
L 83.723783 138.356992 
L 83.276517 138.494629 
L 82.180025 138.84445 
L 81.814657 138.956401 
L 81.060985 139.196665 
L 79.72005 139.605915 
L 79.302168 139.738143 
L 78.577099 139.958493 
L 78.389674 140.017754 
L 77.491264 140.28972 
L 76.641722 140.545015 
L 76.232817 140.668547 
L 74.477296 141.18452 
L 74.345092 141.223933 
L 74.322236 141.230782 
L 74.208318 141.264 
L 72.404566 141.789513 
L 72.038009 141.893397 
L 70.827391 142.23828 
L 70.329114 142.379228 
L 70.232879 142.405202 
L 69.445742 142.627036 
L 69.158401 142.704544 
L 67.627545 143.13426 
L 67.016048 143.298053 
L 66.550348 143.428299 
L 65.671707 143.66351 
L 64.918649 143.873296 
L 63.803216 144.169828 
L 63.651604 144.211911 
L 62.227072 144.5904 
L 62.202651 144.596831 
L 62.195995 144.598499 
L 60.749317 144.976847 
L 60.595374 145.015303 
L 59.480415 145.306744 
L 58.739685 145.491136 
L 57.843615 145.723784 
L 57.62857 145.77497 
L 57.62857 147.9168 
L 57.62857 151.2432 
L 57.62857 154.5696 
L 57.62857 157.896 
L 57.62857 161.2224 
L 57.62857 164.5488 
L 57.62857 167.8752 
L 57.62857 171.2016 
L 57.62857 174.528 
L 57.62857 177.8544 
L 57.62857 181.129176 
L 57.652954 181.127567 
L 58.992064 181.035921 
L 59.340619 181.010493 
L 59.523481 180.99722 
L 61.821781 180.839056 
L 62.644166 180.77889 
L 63.075916 180.747462 
L 64.647971 180.639001 
L 65.952107 180.543313 
L 66.876758 180.479616 
L 67.470524 180.435659 
L 69.264582 180.303637 
L 70.207813 180.23458 
L 70.28933 180.228927 
L 70.592915 180.20652 
L 72.359375 180.07547 
L 72.445668 180.0681 
L 73.274033 180.006554 
L 73.408841 179.995052 
L 75.305315 179.853921 
L 75.537507 179.834012 
L 76.278245 179.778805 
L 76.566635 179.754105 
L 78.249471 179.628479 
L 78.630146 179.595711 
L 79.281687 179.546999 
L 79.726445 179.508755 
L 81.191787 179.399018 
L 81.72361 179.353057 
L 82.284333 179.311001 
L 82.888339 179.258857 
L 84.132201 179.165405 
L 84.817929 179.105904 
L 85.286158 179.070671 
L 86.052388 179.004255 
L 87.07065 178.927502 
L 87.913129 178.8541 
L 88.287133 178.825864 
L 89.218665 178.744787 
L 90.007066 178.685163 
L 91.009243 178.597483 
L 91.287229 178.576426 
L 92.387248 178.480286 
L 92.941382 178.438237 
L 94.106302 178.335887 
L 94.286416 178.322197 
L 95.558219 178.210571 
L 95.873523 178.186564 
L 97.204339 178.069134 
L 97.284662 178.063008 
L 98.731664 177.935458 
L 98.803412 177.929976 
L 99.656169 177.8544 
L 100.281898 177.798493 
L 100.30353 177.796299 
L 101.73123 177.668864 
L 101.909509 177.650736 
L 103.277982 177.527909 
L 103.33993 177.521017 
L 103.33993 174.528 
L 103.33993 171.2016 
L 103.33993 167.8752 
L 103.33993 164.5488 
L 103.33993 161.2224 
L 103.33993 157.896 
L 103.33993 154.5696 
L 103.33993 151.2432 
L 103.33993 147.9168 
L 103.33993 144.5904 
L 103.33993 141.264 
L 103.33993 137.9376 
L 103.33993 134.6112 
" clip-path="url(#p45746feea5)" style="fill: #a4ff53"/>
   </g>
   <g id="PathCollection_7">
    <path d="M 103.33993 177.521017 
L 103.277982 177.527909 
L 101.909509 177.650736 
L 101.73123 177.668864 
L 100.30353 177.796299 
L 100.281898 177.798493 
L 99.656169 177.8544 
L 98.803412 177.929976 
L 98.731664 177.935458 
L 97.284662 178.063008 
L 97.204339 178.069134 
L 95.873523 178.186564 
L 95.558219 178.210571 
L 94.286416 178.322197 
L 94.106302 178.335887 
L 92.941382 178.438237 
L 92.387248 178.480286 
L 91.287229 178.576426 
L 91.009243 178.597483 
L 90.007066 178.685163 
L 89.218665 178.744787 
L 88.287133 178.825864 
L 87.913129 178.8541 
L 87.07065 178.927502 
L 86.052388 179.004255 
L 85.286158 179.070671 
L 84.817929 179.105904 
L 84.132201 179.165405 
L 82.888339 179.258857 
L 82.284333 179.311001 
L 81.72361 179.353057 
L 81.191787 179.399018 
L 79.726445 179.508755 
L 79.281687 179.546999 
L 78.630146 179.595711 
L 78.249471 179.628479 
L 76.566635 179.754105 
L 76.278245 179.778805 
L 75.537507 179.834012 
L 75.305315 179.853921 
L 73.408841 179.995052 
L 73.274033 180.006554 
L 72.445668 180.0681 
L 72.359375 180.07547 
L 70.592915 180.20652 
L 70.28933 180.228927 
L 70.207813 180.23458 
L 69.264582 180.303637 
L 67.470524 180.435659 
L 66.876758 180.479616 
L 65.952107 180.543313 
L 64.647971 180.639001 
L 63.075916 180.747462 
L 62.644166 180.77889 
L 61.821781 180.839056 
L 59.523481 180.99722 
L 59.340619 181.010493 
L 58.992064 181.035921 
L 57.652954 181.127567 
L 57.62857 181.129176 
L 57.62857 181.1808 
L 57.62857 184.5072 
L 57.62857 187.8336 
L 57.62857 191.16 
L 57.62857 194.4864 
L 57.62857 197.8128 
L 57.62857 201.1392 
L 57.62857 204.4656 
L 57.62857 207.792 
L 57.62857 211.1184 
L 57.62857 213.39369 
L 58.066247 213.425157 
L 58.094861 213.426843 
L 58.731839 213.47052 
L 60.124389 213.565757 
L 60.473543 213.59111 
L 61.320562 213.649821 
L 62.953528 213.763145 
L 64.029019 213.842372 
L 64.627477 213.884469 
L 65.777236 213.965443 
L 67.600899 214.101747 
L 67.942121 214.126108 
L 68.595351 214.1728 
L 71.18986 214.369569 
L 71.264787 214.374999 
L 71.407702 214.385368 
L 71.455175 214.388817 
L 72.179905 214.4448 
L 74.215805 214.601777 
L 74.597408 214.632893 
L 74.803783 214.649736 
L 77.018531 214.823049 
L 77.939376 214.899239 
L 79.341084 215.010163 
L 79.815068 215.049918 
L 81.290429 215.1738 
L 82.09502 215.241421 
L 82.60522 215.28256 
L 84.207124 215.41908 
L 84.594045 215.451948 
L 84.615729 215.454015 
L 85.480992 215.528066 
L 85.554831 215.535134 
L 87.525531 215.705051 
L 87.714246 215.723296 
L 88.478772 215.789711 
L 88.730048 215.814117 
L 90.453883 215.964995 
L 90.814237 216.000348 
L 91.475171 216.058635 
L 91.909067 216.101401 
L 93.378993 216.232018 
L 93.915758 216.285461 
L 94.470139 216.335101 
L 95.092037 216.39731 
L 96.300746 216.506369 
L 97.018866 216.578942 
L 97.463625 216.619381 
L 98.279113 216.702183 
L 99.219024 216.788306 
L 100.123622 216.88111 
L 100.455573 216.911764 
L 101.470459 217.016378 
L 102.133702 217.078103 
L 103.230092 217.192305 
L 103.33993 217.201962 
L 103.33993 214.4448 
L 103.33993 211.1184 
L 103.33993 207.792 
L 103.33993 204.4656 
L 103.33993 201.1392 
L 103.33993 197.8128 
L 103.33993 194.4864 
L 103.33993 191.16 
L 103.33993 187.8336 
L 103.33993 184.5072 
L 103.33993 181.1808 
L 103.33993 177.8544 
" clip-path="url(#p45746feea5)" style="fill: #f8f500"/>
   </g>
   <g id="PathCollection_8">
    <path d="M 103.33993 217.201962 
L 103.230092 217.192305 
L 102.133702 217.078103 
L 101.470459 217.016378 
L 100.455573 216.911764 
L 100.123622 216.88111 
L 99.219024 216.788306 
L 98.279113 216.702183 
L 97.463625 216.619381 
L 97.018866 216.578942 
L 96.300746 216.506369 
L 95.092037 216.39731 
L 94.470139 216.335101 
L 93.915758 216.285461 
L 93.378993 216.232018 
L 91.909067 216.101401 
L 91.475171 216.058635 
L 90.814237 216.000348 
L 90.453883 215.964995 
L 88.730048 215.814117 
L 88.478772 215.789711 
L 87.714246 215.723296 
L 87.525531 215.705051 
L 85.554831 215.535134 
L 85.480992 215.528066 
L 84.615729 215.454015 
L 84.594045 215.451948 
L 84.207124 215.41908 
L 82.60522 215.28256 
L 82.09502 215.241421 
L 81.290429 215.1738 
L 79.815068 215.049918 
L 79.341084 215.010163 
L 77.939376 214.899239 
L 77.018531 214.823049 
L 74.803783 214.649736 
L 74.597408 214.632893 
L 74.215805 214.601777 
L 72.179905 214.4448 
L 71.455175 214.388817 
L 71.407702 214.385368 
L 71.264787 214.374999 
L 71.18986 214.369569 
L 68.595351 214.1728 
L 67.942121 214.126108 
L 67.600899 214.101747 
L 65.777236 213.965443 
L 64.627477 213.884469 
L 64.029019 213.842372 
L 62.953528 213.763145 
L 61.320562 213.649821 
L 60.473543 213.59111 
L 60.124389 213.565757 
L 58.731839 213.47052 
L 58.094861 213.426843 
L 58.066247 213.425157 
L 57.62857 213.39369 
L 57.62857 214.4448 
L 57.62857 217.7712 
L 57.62857 221.0976 
L 57.62857 224.424 
L 57.62857 227.7504 
L 57.62857 231.0768 
L 57.62857 234.4032 
L 57.62857 237.7296 
L 57.62857 241.056 
L 57.62857 244.20447 
L 57.661285 244.209976 
L 58.639899 244.3824 
L 59.114006 244.465959 
L 59.197616 244.481369 
L 60.609658 244.732018 
L 60.747163 244.757493 
L 61.9313 244.968353 
L 62.518176 245.07765 
L 63.556178 245.263827 
L 63.902976 245.328753 
L 64.744293 245.480136 
L 65.844846 245.687269 
L 66.500704 245.806147 
L 67.061098 245.912178 
L 67.552852 246.0016 
L 69.177849 246.310714 
L 69.44317 246.359318 
L 70.221608 246.508192 
L 70.356839 246.533046 
L 71.404624 246.73452 
L 72.241497 246.895396 
L 73.075606 247.05905 
L 73.833726 247.206321 
L 74.748504 247.384076 
L 74.962054 247.42559 
L 76.385713 247.7088 
L 77.136007 247.857573 
L 77.247333 247.880152 
L 77.735969 247.979305 
L 79.302386 248.293301 
L 79.738882 248.38281 
L 81.202446 248.68308 
L 81.530829 248.750423 
L 81.576298 248.76014 
L 82.40712 248.931458 
L 82.585546 248.969719 
L 84.313672 249.328028 
L 84.749334 249.422173 
L 85.338144 249.544937 
L 85.958032 249.679358 
L 87.091324 249.916964 
L 87.925217 250.099207 
L 88.26674 250.171215 
L 89.33842 250.406249 
L 89.863613 250.517609 
L 91.104054 250.791813 
L 91.192822 250.810743 
L 92.204615 251.0352 
L 92.630695 251.129619 
L 92.72741 251.151918 
L 94.11664 251.462199 
L 94.286133 251.501503 
L 95.394024 251.749824 
L 96.12703 251.920793 
L 97.038001 252.126609 
L 97.471457 252.228299 
L 98.151631 252.382522 
L 99.535557 252.709113 
L 99.95664 252.805363 
L 100.660054 252.972342 
L 100.903315 253.028148 
L 102.40736 253.38732 
L 102.792146 253.479101 
L 102.953664 253.518348 
L 103.33993 253.610401 
L 103.33993 251.0352 
L 103.33993 247.7088 
L 103.33993 244.3824 
L 103.33993 241.056 
L 103.33993 237.7296 
L 103.33993 234.4032 
L 103.33993 231.0768 
L 103.33993 227.7504 
L 103.33993 224.424 
L 103.33993 221.0976 
L 103.33993 217.7712 
" clip-path="url(#p45746feea5)" style="fill: #ff9400"/>
   </g>
   <g id="PathCollection_9">
    <path d="M 103.33993 253.610401 
L 102.953664 253.518348 
L 102.792146 253.479101 
L 102.40736 253.38732 
L 100.903315 253.028148 
L 100.660054 252.972342 
L 99.95664 252.805363 
L 99.535557 252.709113 
L 98.151631 252.382522 
L 97.471457 252.228299 
L 97.038001 252.126609 
L 96.12703 251.920793 
L 95.394024 251.749824 
L 94.286133 251.501503 
L 94.11664 251.462199 
L 92.72741 251.151918 
L 92.630695 251.129619 
L 92.204615 251.0352 
L 91.192822 250.810743 
L 91.104054 250.791813 
L 89.863613 250.517609 
L 89.33842 250.406249 
L 88.26674 250.171215 
L 87.925217 250.099207 
L 87.091324 249.916964 
L 85.958032 249.679358 
L 85.338144 249.544937 
L 84.749334 249.422173 
L 84.313672 249.328028 
L 82.585546 248.969719 
L 82.40712 248.931458 
L 81.576298 248.76014 
L 81.530829 248.750423 
L 81.202446 248.68308 
L 79.738882 248.38281 
L 79.302386 248.293301 
L 77.735969 247.979305 
L 77.247333 247.880152 
L 77.136007 247.857573 
L 76.385713 247.7088 
L 74.962054 247.42559 
L 74.748504 247.384076 
L 73.833726 247.206321 
L 73.075606 247.05905 
L 72.241497 246.895396 
L 71.404624 246.73452 
L 70.356839 246.533046 
L 70.221608 246.508192 
L 69.44317 246.359318 
L 69.177849 246.310714 
L 67.552852 246.0016 
L 67.061098 245.912178 
L 66.500704 245.806147 
L 65.844846 245.687269 
L 64.744293 245.480136 
L 63.902976 245.328753 
L 63.556178 245.263827 
L 62.518176 245.07765 
L 61.9313 244.968353 
L 60.747163 244.757493 
L 60.609658 244.732018 
L 59.197616 244.481369 
L 59.114006 244.465959 
L 58.639899 244.3824 
L 57.661285 244.209976 
L 57.62857 244.20447 
L 57.62857 244.3824 
L 57.62857 247.7088 
L 57.62857 251.0352 
L 57.62857 254.3616 
L 57.62857 257.688 
L 57.62857 261.0144 
L 57.62857 264.3408 
L 57.62857 267.6672 
L 57.62857 270.9936 
L 57.62857 274.32 
L 57.62857 275.200332 
L 58.070728 275.316026 
L 58.086835 275.320434 
L 59.983544 275.831679 
L 60.350856 275.93278 
L 60.969358 276.100239 
L 61.567062 276.265283 
L 62.692193 276.571256 
L 63.565445 276.813816 
L 63.865821 276.895872 
L 65.055156 277.227304 
L 65.396232 277.320896 
L 66.557309 277.6464 
L 66.760002 277.703531 
L 66.782931 277.710116 
L 68.095375 278.081225 
L 68.554409 278.213688 
L 69.651428 278.525711 
L 70.004526 278.628075 
L 70.789679 278.852118 
L 72.064356 279.223416 
L 72.540535 279.360107 
L 73.229077 279.561612 
L 73.479121 279.633625 
L 74.719963 279.99852 
L 75.283091 280.164668 
L 75.746474 280.301647 
L 77.162906 280.725104 
L 77.57501 280.847845 
L 77.989791 280.9728 
L 79.859345 281.53788 
L 81.197961 281.94708 
L 81.516875 282.044886 
L 81.58423 282.065944 
L 82.384879 282.312675 
L 82.661464 282.399455 
L 84.185702 282.871398 
L 84.822635 283.072499 
L 85.262187 283.209264 
L 86.218663 283.51234 
L 86.849228 283.709482 
L 88.064448 284.097016 
L 88.136855 284.119767 
L 88.697479 284.2992 
L 89.507273 284.559531 
L 89.78788 284.65146 
L 91.008476 285.046328 
L 91.310883 285.145894 
L 92.159848 285.421522 
L 93.371768 285.822609 
L 93.877271 285.987781 
L 94.561209 286.21528 
L 94.806788 286.295813 
L 95.86996 286.65132 
L 96.547577 286.878489 
L 96.955115 287.01544 
L 98.751336 287.6256 
L 98.76169 287.629113 
L 98.764023 287.629914 
L 98.779416 287.635205 
L 98.808354 287.645165 
L 100.97248 288.388563 
L 101.580751 288.59988 
L 102.713016 288.994209 
L 102.986894 289.091343 
L 103.33993 289.216291 
L 103.33993 287.6256 
L 103.33993 284.2992 
L 103.33993 280.9728 
L 103.33993 277.6464 
L 103.33993 274.32 
L 103.33993 270.9936 
L 103.33993 267.6672 
L 103.33993 264.3408 
L 103.33993 261.0144 
L 103.33993 257.688 
L 103.33993 254.3616 
" clip-path="url(#p45746feea5)" style="fill: #ff3800"/>
   </g>
   <g id="PathCollection_10">
    <path d="M 103.33993 289.216291 
L 102.986894 289.091343 
L 102.713016 288.994209 
L 101.580751 288.59988 
L 100.97248 288.388563 
L 98.808354 287.645165 
L 98.779416 287.635205 
L 98.764023 287.629914 
L 98.76169 287.629113 
L 98.751336 287.6256 
L 96.955115 287.01544 
L 96.547577 286.878489 
L 95.86996 286.65132 
L 94.806788 286.295813 
L 94.561209 286.21528 
L 93.877271 285.987781 
L 93.371768 285.822609 
L 92.159848 285.421522 
L 91.310883 285.145894 
L 91.008476 285.046328 
L 89.78788 284.65146 
L 89.507273 284.559531 
L 88.697479 284.2992 
L 88.136855 284.119767 
L 88.064448 284.097016 
L 86.849228 283.709482 
L 86.218663 283.51234 
L 85.262187 283.209264 
L 84.822635 283.072499 
L 84.185702 282.871398 
L 82.661464 282.399455 
L 82.384879 282.312675 
L 81.58423 282.065944 
L 81.516875 282.044886 
L 81.197961 281.94708 
L 79.859345 281.53788 
L 77.989791 280.9728 
L 77.57501 280.847845 
L 77.162906 280.725104 
L 75.746474 280.301647 
L 75.283091 280.164668 
L 74.719963 279.99852 
L 73.479121 279.633625 
L 73.229077 279.561612 
L 72.540535 279.360107 
L 72.064356 279.223416 
L 70.789679 278.852118 
L 70.004526 278.628075 
L 69.651428 278.525711 
L 68.554409 278.213688 
L 68.095375 278.081225 
L 66.782931 277.710116 
L 66.760002 277.703531 
L 66.557309 277.6464 
L 65.396232 277.320896 
L 65.055156 277.227304 
L 63.865821 276.895872 
L 63.565445 276.813816 
L 62.692193 276.571256 
L 61.567062 276.265283 
L 60.969358 276.100239 
L 60.350856 275.93278 
L 59.983544 275.831679 
L 58.086835 275.320434 
L 58.070728 275.316026 
L 57.62857 275.200332 
L 57.62857 277.6464 
L 57.62857 280.9728 
L 57.62857 284.2992 
L 57.62857 287.6256 
L 57.62857 290.952 
L 57.62857 294.2784 
L 57.62857 297.6048 
L 57.62857 300.9312 
L 57.62857 304.2576 
L 57.62857 307.584 
L 59.152282 307.584 
L 60.675994 307.584 
L 62.199706 307.584 
L 63.723418 307.584 
L 65.24713 307.584 
L 66.770842 307.584 
L 68.294554 307.584 
L 69.818266 307.584 
L 71.341978 307.584 
L 72.86569 307.584 
L 74.389402 307.584 
L 75.913114 307.584 
L 77.436826 307.584 
L 78.960538 307.584 
L 80.48425 307.584 
L 82.007962 307.584 
L 83.531674 307.584 
L 85.055386 307.584 
L 86.579098 307.584 
L 88.10281 307.584 
L 89.626522 307.584 
L 91.150234 307.584 
L 92.673946 307.584 
L 94.197658 307.584 
L 95.72137 307.584 
L 97.245082 307.584 
L 98.768794 307.584 
L 100.292506 307.584 
L 101.816218 307.584 
L 103.33993 307.584 
L 103.33993 304.2576 
L 103.33993 300.9312 
L 103.33993 297.6048 
L 103.33993 294.2784 
L 103.33993 290.952 
" clip-path="url(#p45746feea5)" style="fill: #b60000"/>
   </g>
   <g id="PathCollection_11">
    <path clip-path="url(#p45746feea5)" style="fill: #0000b6"/>
   </g>
   <g id="PathCollection_12">
    <path clip-path="url(#p45746feea5)" style="fill: #0018ff"/>
   </g>
   <g id="PathCollection_13">
    <path clip-path="url(#p45746feea5)" style="fill: #0080ff"/>
   </g>
   <g id="PathCollection_14">
    <path d="M 100.4544 76.011145 
L 102.69853 74.020173 
L 106.033557 70.839818 
L 108.732484 68.284135 
L 108.933005 68.0832 
L 114.463796 62.315771 
L 114.929951 61.81088 
L 115.115213 61.601789 
L 117.346294 59.2128 
L 118.639501 57.698713 
L 119.36352 56.773039 
L 119.498693 56.61472 
L 123.212419 52.014785 
L 124.57055 50.3424 
L 124.647876 50.243026 
L 129.24252 44.07008 
L 129.536519 43.649821 
L 131.056337 41.472 
L 124.73856 41.472 
L 116.64384 41.472 
L 108.54912 41.472 
L 100.4544 41.472 
L 100.4544 50.3424 
L 100.4544 59.2128 
L 100.4544 68.0832 
" clip-path="url(#p45746feea5)" style="fill: #00e4f8"/>
   </g>
   <g id="PathCollection_15">
    <path d="M 131.056337 41.472 
L 129.536519 43.649821 
L 129.24252 44.07008 
L 124.647876 50.243026 
L 124.57055 50.3424 
L 123.212419 52.014785 
L 119.498693 56.61472 
L 119.36352 56.773039 
L 118.639501 57.698713 
L 117.346294 59.2128 
L 115.115213 61.601789 
L 114.929951 61.81088 
L 114.463796 62.315771 
L 108.933005 68.0832 
L 108.732484 68.284135 
L 106.033557 70.839818 
L 102.69853 74.020173 
L 100.4544 76.011145 
L 100.4544 76.9536 
L 100.4544 85.824 
L 100.4544 94.6944 
L 100.4544 103.5648 
L 100.4544 112.4352 
L 100.4544 121.3056 
L 100.4544 130.176 
L 100.4544 132.523706 
L 102.071617 131.948188 
L 106.592891 130.176 
L 107.634299 129.760758 
L 112.844772 127.57792 
L 113.869208 127.135488 
L 114.566123 126.802317 
L 118.126204 125.227279 
L 123.535534 122.623906 
L 125.23446 121.849019 
L 126.309453 121.3056 
L 131.756877 118.457914 
L 134.493492 116.913415 
L 136.131854 116.049861 
L 137.885106 115.03328 
L 141.654221 112.764836 
L 142.194404 112.4352 
L 142.945816 111.934279 
L 145.209416 110.491841 
L 146.246341 109.83712 
L 146.499926 109.670658 
L 146.794139 109.460637 
L 150.344638 107.06201 
L 155.195871 103.5648 
L 156.337561 102.710189 
L 162.314158 97.870104 
L 162.887378 97.414457 
L 163.03191 97.29248 
L 164.117232 96.432093 
L 166.104307 94.6944 
L 167.648713 93.289764 
L 168.443221 92.486757 
L 168.860038 92.09632 
L 174.21609 86.820335 
L 175.157354 85.824 
L 179.562312 80.95806 
L 180.77626 79.55168 
L 181.222293 79.007621 
L 183.023876 76.9536 
L 184.088861 75.611202 
L 184.686212 74.770264 
L 185.011627 74.35552 
L 189.573251 68.167502 
L 189.63169 68.0832 
L 189.987795 67.544629 
L 193.849168 61.81088 
L 194.153241 61.326603 
L 195.548 59.2128 
L 196.504976 57.472906 
L 197.018822 56.61472 
L 198.794103 53.525171 
L 200.564438 50.3424 
L 202.442737 46.788613 
L 203.8128 44.07008 
L 204.832363 41.859362 
L 205.027941 41.472 
L 197.59104 41.472 
L 189.49632 41.472 
L 181.4016 41.472 
L 173.30688 41.472 
L 165.21216 41.472 
L 157.11744 41.472 
L 149.02272 41.472 
L 140.928 41.472 
L 132.83328 41.472 
" clip-path="url(#p45746feea5)" style="fill: #53ffa4"/>
   </g>
   <g id="PathCollection_16">
    <path d="M 205.027941 41.472 
L 204.832363 41.859362 
L 203.8128 44.07008 
L 202.442737 46.788613 
L 200.564438 50.3424 
L 198.794103 53.525171 
L 197.018822 56.61472 
L 196.504976 57.472906 
L 195.548 59.2128 
L 194.153241 61.326603 
L 193.849168 61.81088 
L 189.987795 67.544629 
L 189.63169 68.0832 
L 189.573251 68.167502 
L 185.011627 74.35552 
L 184.686212 74.770264 
L 184.088861 75.611202 
L 183.023876 76.9536 
L 181.222293 79.007621 
L 180.77626 79.55168 
L 179.562312 80.95806 
L 175.157354 85.824 
L 174.21609 86.820335 
L 168.860038 92.09632 
L 168.443221 92.486757 
L 167.648713 93.289764 
L 166.104307 94.6944 
L 164.117232 96.432093 
L 163.03191 97.29248 
L 162.887378 97.414457 
L 162.314158 97.870104 
L 156.337561 102.710189 
L 155.195871 103.5648 
L 150.344638 107.06201 
L 146.794139 109.460637 
L 146.499926 109.670658 
L 146.246341 109.83712 
L 145.209416 110.491841 
L 142.945816 111.934279 
L 142.194404 112.4352 
L 141.654221 112.764836 
L 137.885106 115.03328 
L 136.131854 116.049861 
L 134.493492 116.913415 
L 131.756877 118.457914 
L 126.309453 121.3056 
L 125.23446 121.849019 
L 123.535534 122.623906 
L 118.126204 125.227279 
L 114.566123 126.802317 
L 113.869208 127.135488 
L 112.844772 127.57792 
L 107.634299 129.760758 
L 106.592891 130.176 
L 102.071617 131.948188 
L 100.4544 132.523706 
L 100.4544 139.0464 
L 100.4544 147.9168 
L 100.4544 156.7872 
L 100.4544 165.6576 
L 100.4544 174.528 
L 100.4544 177.752038 
L 101.645373 177.678786 
L 106.104897 177.206442 
L 110.681863 176.865114 
L 115.979553 176.285408 
L 117.271394 176.18823 
L 123.881866 175.466787 
L 125.484102 175.344983 
L 132.711414 174.528 
L 132.828162 174.51446 
L 132.839025 174.512802 
L 140.142453 173.667178 
L 141.9739 173.381877 
L 148.301461 172.619868 
L 149.836564 172.374931 
L 154.626736 171.798623 
L 160.480256 170.842941 
L 163.667903 170.442581 
L 166.965443 169.889591 
L 168.857259 169.651992 
L 176.970811 168.25568 
L 178.453591 167.993722 
L 180.985713 167.563865 
L 188.761459 165.991158 
L 189.80098 165.795887 
L 190.464184 165.6576 
L 198.6216 163.903927 
L 200.664464 163.378405 
L 201.959617 163.05952 
L 209.631677 161.111236 
L 212.489427 160.202753 
L 214.836928 159.582093 
L 221.198993 157.528205 
L 222.278239 157.22886 
L 223.539648 156.7872 
L 229.193034 154.731905 
L 231.048588 153.933523 
L 234.344599 152.710685 
L 239.17664 150.51488 
L 241.435596 149.446897 
L 244.465679 147.9168 
L 247.572509 146.258105 
L 248.825827 145.452885 
L 249.048555 145.31872 
L 255.987465 140.945887 
L 258.522225 139.0464 
L 261.474864 136.734354 
L 264.096991 134.421462 
L 265.316742 133.428346 
L 265.998767 132.77408 
L 267.031138 131.7249 
L 268.676465 130.176 
L 269.038685 129.827251 
L 269.216441 129.619022 
L 271.12903 127.57792 
L 273.605218 124.770269 
L 276.245319 121.3056 
L 277.752395 119.226602 
L 280.521865 115.03328 
L 281.270211 113.766499 
L 282.184825 112.4352 
L 282.759994 111.473739 
L 283.071037 110.818423 
L 283.610069 109.83712 
L 286.720941 103.661212 
L 286.763231 103.5648 
L 286.871145 103.303791 
L 289.557527 97.29248 
L 289.990852 96.218567 
L 290.632099 94.6944 
L 291.345591 92.55531 
L 291.539552 92.09632 
L 291.779871 91.464116 
L 293.688036 85.824 
L 294.162258 84.328144 
L 295.582128 79.55168 
L 295.713454 79.207826 
L 296.407583 76.9536 
L 296.784249 75.454633 
L 296.984809 74.35552 
L 297.031508 74.178108 
L 298.548229 68.0832 
L 299.411219 64.345141 
L 299.939808 61.81088 
L 300.17748 60.413344 
L 300.484484 59.2128 
L 300.591119 58.658886 
L 300.650575 58.226996 
L 300.985779 56.61472 
L 301.873393 51.382346 
L 302.083761 50.3424 
L 302.208845 49.670051 
L 303.170789 44.07008 
L 303.478298 41.769716 
L 303.520992 41.472 
L 302.8224 41.472 
L 294.72768 41.472 
L 286.63296 41.472 
L 278.53824 41.472 
L 270.44352 41.472 
L 262.3488 41.472 
L 254.25408 41.472 
L 246.15936 41.472 
L 238.06464 41.472 
L 229.96992 41.472 
L 221.8752 41.472 
L 213.78048 41.472 
L 205.68576 41.472 
" clip-path="url(#p45746feea5)" style="fill: #a4ff53"/>
   </g>
   <g id="PathCollection_17">
    <path d="M 303.520992 41.472 
L 303.478298 41.769716 
L 303.170789 44.07008 
L 302.208845 49.670051 
L 302.083761 50.3424 
L 301.873393 51.382346 
L 300.985779 56.61472 
L 300.650575 58.226996 
L 300.591119 58.658886 
L 300.484484 59.2128 
L 300.17748 60.413344 
L 299.939808 61.81088 
L 299.411219 64.345141 
L 298.548229 68.0832 
L 297.031508 74.178108 
L 296.984809 74.35552 
L 296.784249 75.454633 
L 296.407583 76.9536 
L 295.713454 79.207826 
L 295.582128 79.55168 
L 294.162258 84.328144 
L 293.688036 85.824 
L 291.779871 91.464116 
L 291.539552 92.09632 
L 291.345591 92.55531 
L 290.632099 94.6944 
L 289.990852 96.218567 
L 289.557527 97.29248 
L 286.871145 103.303791 
L 286.763231 103.5648 
L 286.720941 103.661212 
L 283.610069 109.83712 
L 283.071037 110.818423 
L 282.759994 111.473739 
L 282.184825 112.4352 
L 281.270211 113.766499 
L 280.521865 115.03328 
L 277.752395 119.226602 
L 276.245319 121.3056 
L 273.605218 124.770269 
L 271.12903 127.57792 
L 269.216441 129.619022 
L 269.038685 129.827251 
L 268.676465 130.176 
L 267.031138 131.7249 
L 265.998767 132.77408 
L 265.316742 133.428346 
L 264.096991 134.421462 
L 261.474864 136.734354 
L 258.522225 139.0464 
L 255.987465 140.945887 
L 249.048555 145.31872 
L 248.825827 145.452885 
L 247.572509 146.258105 
L 244.465679 147.9168 
L 241.435596 149.446897 
L 239.17664 150.51488 
L 234.344599 152.710685 
L 231.048588 153.933523 
L 229.193034 154.731905 
L 223.539648 156.7872 
L 222.278239 157.22886 
L 221.198993 157.528205 
L 214.836928 159.582093 
L 212.489427 160.202753 
L 209.631677 161.111236 
L 201.959617 163.05952 
L 200.664464 163.378405 
L 198.6216 163.903927 
L 190.464184 165.6576 
L 189.80098 165.795887 
L 188.761459 165.991158 
L 180.985713 167.563865 
L 178.453591 167.993722 
L 176.970811 168.25568 
L 168.857259 169.651992 
L 166.965443 169.889591 
L 163.667903 170.442581 
L 160.480256 170.842941 
L 154.626736 171.798623 
L 149.836564 172.374931 
L 148.301461 172.619868 
L 141.9739 173.381877 
L 140.142453 173.667178 
L 132.839025 174.512802 
L 132.828162 174.51446 
L 132.711414 174.528 
L 125.484102 175.344983 
L 123.881866 175.466787 
L 117.271394 176.18823 
L 115.979553 176.285408 
L 110.681863 176.865114 
L 106.104897 177.206442 
L 101.645373 177.678786 
L 100.4544 177.752038 
L 100.4544 183.3984 
L 100.4544 192.2688 
L 100.4544 201.1392 
L 100.4544 210.0096 
L 100.4544 216.898611 
L 102.104798 217.071452 
L 105.341795 217.424177 
L 110.597634 217.950168 
L 118.646928 218.88 
L 122.814056 219.357757 
L 123.488299 219.4475 
L 127.031675 219.920858 
L 131.154148 220.472665 
L 136.042925 221.097364 
L 138.655884 221.47808 
L 145.724414 222.494368 
L 147.132455 222.749597 
L 150.709631 223.28758 
L 153.522925 223.811439 
L 159.808303 224.801683 
L 164.445932 225.723302 
L 165.888223 225.961837 
L 173.003068 227.417475 
L 173.527461 227.508682 
L 174.628092 227.7504 
L 180.893197 229.09541 
L 182.019347 229.384684 
L 186.998687 230.48737 
L 193.633703 232.284249 
L 195.691382 232.776054 
L 199.951673 233.995589 
L 199.980239 234.002655 
L 200.046336 234.02272 
L 206.906323 236.066779 
L 207.365314 236.203852 
L 208.580407 236.6208 
L 214.318139 238.496835 
L 216.192047 239.200416 
L 216.241097 239.21888 
L 224.737666 242.354437 
L 229.590692 244.487931 
L 230.250579 244.748701 
L 231.869453 245.4912 
L 236.273206 247.454299 
L 243.169998 251.085781 
L 243.906664 251.450836 
L 244.455577 251.76352 
L 244.917206 252.043728 
L 248.975851 254.3616 
L 251.27481 255.713908 
L 253.175248 256.95968 
L 257.469412 259.708557 
L 262.144781 263.232 
L 262.304678 263.348728 
L 262.432812 263.45426 
L 267.009329 266.995274 
L 269.75438 269.50432 
L 271.921874 271.431367 
L 272.186229 271.669774 
L 272.585621 272.1024 
L 274.425306 273.909756 
L 275.257941 274.70048 
L 275.751575 275.156098 
L 276.748869 276.238919 
L 279.32091 278.902201 
L 281.091064 280.9728 
L 283.820871 284.054359 
L 286.1929 287.24512 
L 287.790371 289.317845 
L 288.133603 289.8432 
L 288.815119 290.833695 
L 289.974184 292.44128 
L 291.048169 293.875302 
L 294.075492 298.7136 
L 294.488019 299.347637 
L 295.881532 301.766182 
L 297.512022 304.532848 
L 297.728784 304.98592 
L 297.916049 305.356979 
L 299.122553 307.584 
L 302.8224 307.584 
L 310.91712 307.584 
L 319.01184 307.584 
L 327.10656 307.584 
L 335.20128 307.584 
L 343.296 307.584 
L 343.296 298.7136 
L 343.296 289.8432 
L 343.296 280.9728 
L 343.296 272.1024 
L 343.296 263.232 
L 343.296 254.3616 
L 343.296 245.4912 
L 343.296 236.6208 
L 343.296 227.7504 
L 343.296 218.88 
L 343.296 210.0096 
L 343.296 201.1392 
L 343.296 192.2688 
L 343.296 183.3984 
L 343.296 174.528 
L 343.296 165.6576 
L 343.296 156.7872 
L 343.296 147.9168 
L 343.296 139.0464 
L 343.296 130.176 
L 343.296 121.3056 
L 343.296 112.4352 
L 343.296 103.5648 
L 343.296 94.6944 
L 343.296 85.824 
L 343.296 76.9536 
L 343.296 68.0832 
L 343.296 59.2128 
L 343.296 50.3424 
L 343.296 41.472 
L 335.20128 41.472 
L 327.10656 41.472 
L 319.01184 41.472 
L 310.91712 41.472 
" clip-path="url(#p45746feea5)" style="fill: #f8f500"/>
   </g>
   <g id="PathCollection_18">
    <path d="M 299.122553 307.584 
L 297.916049 305.356979 
L 297.728784 304.98592 
L 297.512022 304.532848 
L 295.881532 301.766182 
L 294.488019 299.347637 
L 294.075492 298.7136 
L 291.048169 293.875302 
L 289.974184 292.44128 
L 288.815119 290.833695 
L 288.133603 289.8432 
L 287.790371 289.317845 
L 286.1929 287.24512 
L 283.820871 284.054359 
L 281.091064 280.9728 
L 279.32091 278.902201 
L 276.748869 276.238919 
L 275.751575 275.156098 
L 275.257941 274.70048 
L 274.425306 273.909756 
L 272.585621 272.1024 
L 272.186229 271.669774 
L 271.921874 271.431367 
L 269.75438 269.50432 
L 267.009329 266.995274 
L 262.432812 263.45426 
L 262.304678 263.348728 
L 262.144781 263.232 
L 257.469412 259.708557 
L 253.175248 256.95968 
L 251.27481 255.713908 
L 248.975851 254.3616 
L 244.917206 252.043728 
L 244.455577 251.76352 
L 243.906664 251.450836 
L 243.169998 251.085781 
L 236.273206 247.454299 
L 231.869453 245.4912 
L 230.250579 244.748701 
L 229.590692 244.487931 
L 224.737666 242.354437 
L 216.241097 239.21888 
L 216.192047 239.200416 
L 214.318139 238.496835 
L 208.580407 236.6208 
L 207.365314 236.203852 
L 206.906323 236.066779 
L 200.046336 234.02272 
L 199.980239 234.002655 
L 199.951673 233.995589 
L 195.691382 232.776054 
L 193.633703 232.284249 
L 186.998687 230.48737 
L 182.019347 229.384684 
L 180.893197 229.09541 
L 174.628092 227.7504 
L 173.527461 227.508682 
L 173.003068 227.417475 
L 165.888223 225.961837 
L 164.445932 225.723302 
L 159.808303 224.801683 
L 153.522925 223.811439 
L 150.709631 223.28758 
L 147.132455 222.749597 
L 145.724414 222.494368 
L 138.655884 221.47808 
L 136.042925 221.097364 
L 131.154148 220.472665 
L 127.031675 219.920858 
L 123.488299 219.4475 
L 122.814056 219.357757 
L 118.646928 218.88 
L 110.597634 217.950168 
L 105.341795 217.424177 
L 102.104798 217.071452 
L 100.4544 216.898611 
L 100.4544 218.88 
L 100.4544 227.7504 
L 100.4544 236.6208 
L 100.4544 245.4912 
L 100.4544 252.919654 
L 101.538047 253.174112 
L 106.419497 254.3616 
L 107.807008 254.698449 
L 111.240555 255.583258 
L 116.574704 256.95968 
L 118.792455 257.547717 
L 119.825775 257.848445 
L 127.685928 260.002199 
L 132.12445 261.35675 
L 133.404814 261.719975 
L 138.247331 263.232 
L 140.337149 263.87947 
L 142.056239 264.468353 
L 147.843336 266.352126 
L 150.56848 267.321395 
L 152.728547 268.04146 
L 156.678876 269.50432 
L 160.087048 270.754478 
L 163.531591 272.1024 
L 167.350511 273.581065 
L 168.756081 274.168034 
L 170.016283 274.70048 
L 176.542633 277.42698 
L 180.802981 279.389121 
L 181.830536 279.838025 
L 184.220761 280.9728 
L 187.917119 282.703329 
L 193.877635 285.773957 
L 195.474872 286.571241 
L 196.720177 287.24512 
L 197.90324 287.911195 
L 201.441338 289.8432 
L 203.363953 290.897081 
L 205.974003 292.44128 
L 209.52509 294.506365 
L 213.040538 296.756042 
L 214.241189 297.494768 
L 216.072836 298.7136 
L 219.708448 301.087982 
L 225.119721 304.98592 
L 226.091334 305.670273 
L 228.614617 307.584 
L 229.96992 307.584 
L 238.06464 307.584 
L 246.15936 307.584 
L 254.25408 307.584 
L 262.3488 307.584 
L 270.44352 307.584 
L 278.53824 307.584 
L 286.63296 307.584 
L 294.72768 307.584 
" clip-path="url(#p45746feea5)" style="fill: #ff9400"/>
   </g>
   <g id="PathCollection_19">
    <path d="M 228.614617 307.584 
L 226.091334 305.670273 
L 225.119721 304.98592 
L 219.708448 301.087982 
L 216.072836 298.7136 
L 214.241189 297.494768 
L 213.040538 296.756042 
L 209.52509 294.506365 
L 205.974003 292.44128 
L 203.363953 290.897081 
L 201.441338 289.8432 
L 197.90324 287.911195 
L 196.720177 287.24512 
L 195.474872 286.571241 
L 193.877635 285.773957 
L 187.917119 282.703329 
L 184.220761 280.9728 
L 181.830536 279.838025 
L 180.802981 279.389121 
L 176.542633 277.42698 
L 170.016283 274.70048 
L 168.756081 274.168034 
L 167.350511 273.581065 
L 163.531591 272.1024 
L 160.087048 270.754478 
L 156.678876 269.50432 
L 152.728547 268.04146 
L 150.56848 267.321395 
L 147.843336 266.352126 
L 142.056239 264.468353 
L 140.337149 263.87947 
L 138.247331 263.232 
L 133.404814 261.719975 
L 132.12445 261.35675 
L 127.685928 260.002199 
L 119.825775 257.848445 
L 118.792455 257.547717 
L 116.574704 256.95968 
L 111.240555 255.583258 
L 107.807008 254.698449 
L 106.419497 254.3616 
L 101.538047 253.174112 
L 100.4544 252.919654 
L 100.4544 254.3616 
L 100.4544 263.232 
L 100.4544 272.1024 
L 100.4544 280.9728 
L 100.4544 288.218956 
L 101.588386 288.600549 
L 105.111626 289.8432 
L 107.044191 290.526296 
L 112.259587 292.44128 
L 113.766349 292.996428 
L 114.606352 293.323311 
L 118.170331 294.675181 
L 122.699194 296.478811 
L 125.706899 297.65247 
L 128.266461 298.7136 
L 132.211658 300.358136 
L 133.700693 301.008391 
L 137.39528 302.584845 
L 142.700834 304.98592 
L 144.68217 305.87996 
L 148.304147 307.584 
L 149.02272 307.584 
L 157.11744 307.584 
L 165.21216 307.584 
L 173.30688 307.584 
L 181.4016 307.584 
L 189.49632 307.584 
L 197.59104 307.584 
L 205.68576 307.584 
L 213.78048 307.584 
L 221.8752 307.584 
" clip-path="url(#p45746feea5)" style="fill: #ff3800"/>
   </g>
   <g id="PathCollection_20">
    <path d="M 148.304147 307.584 
L 144.68217 305.87996 
L 142.700834 304.98592 
L 137.39528 302.584845 
L 133.700693 301.008391 
L 132.211658 300.358136 
L 128.266461 298.7136 
L 125.706899 297.65247 
L 122.699194 296.478811 
L 118.170331 294.675181 
L 114.606352 293.323311 
L 113.766349 292.996428 
L 112.259587 292.44128 
L 107.044191 290.526296 
L 105.111626 289.8432 
L 101.588386 288.600549 
L 100.4544 288.218956 
L 100.4544 289.8432 
L 100.4544 298.7136 
L 100.4544 307.584 
L 108.54912 307.584 
L 116.64384 307.584 
L 124.73856 307.584 
L 132.83328 307.584 
L 140.928 307.584 
" clip-path="url(#p45746feea5)" style="fill: #b60000"/>
   </g>
   <g id="matplotlib.axis_1">
    <g id="xtick_1">
     <g id="line2d_1">
      <defs>
       <path id="m479bd7b9c3" d="M 0 0 
L 0 3.5 
" style="stroke: #000000; stroke-width: 0.8"/>
      </defs>
      <g>
       <use xlink:href="#m479bd7b9c3" x="57.6" y="307.584" style="stroke: #000000; stroke-width: 0.8"/>
      </g>
     </g>
     <g id="text_1">
      <!-- 0.0 -->
      <g transform="translate(51.26875 321.385562) scale(0.1 -0.1)">
       <defs>
        <path id="Calibri-30" d="M 3022 2031 
Q 3022 1566 2948 1181 
Q 2875 797 2704 520 
Q 2534 244 2259 92 
Q 1984 -59 1581 -59 
Q 1200 -59 939 77 
Q 678 213 518 477 
Q 359 741 292 1127 
Q 225 1513 225 2013 
Q 225 2475 300 2861 
Q 375 3247 544 3523 
Q 713 3800 988 3951 
Q 1263 4103 1663 4103 
Q 2047 4103 2308 3967 
Q 2569 3831 2728 3567 
Q 2888 3303 2955 2917 
Q 3022 2531 3022 2031 
z
M 2472 1994 
Q 2472 2297 2450 2537 
Q 2428 2778 2386 2962 
Q 2344 3147 2276 3280 
Q 2209 3413 2115 3498 
Q 2022 3584 1901 3623 
Q 1781 3663 1631 3663 
Q 1366 3663 1200 3538 
Q 1034 3413 939 3194 
Q 844 2975 809 2681 
Q 775 2388 775 2050 
Q 775 1597 822 1280 
Q 869 963 970 763 
Q 1072 563 1230 472 
Q 1388 381 1613 381 
Q 1788 381 1920 437 
Q 2053 494 2148 598 
Q 2244 703 2306 850 
Q 2369 997 2406 1175 
Q 2444 1353 2458 1561 
Q 2472 1769 2472 1994 
z
" transform="scale(0.015625)"/>
        <path id="Calibri-2e" d="M 1144 341 
Q 1144 119 1070 45 
Q 997 -28 803 -28 
Q 616 -28 544 44 
Q 472 116 472 331 
Q 472 553 545 626 
Q 619 700 813 700 
Q 1000 700 1072 628 
Q 1144 556 1144 341 
z
" transform="scale(0.015625)"/>
       </defs>
       <use xlink:href="#Calibri-30"/>
       <use xlink:href="#Calibri-2e" x="50.683594"/>
       <use xlink:href="#Calibri-30" x="75.927734"/>
      </g>
     </g>
    </g>
    <g id="xtick_2">
     <g id="line2d_2">
      <g>
       <use xlink:href="#m479bd7b9c3" x="86.1696" y="307.584" style="stroke: #000000; stroke-width: 0.8"/>
      </g>
     </g>
     <g id="text_2">
      <!-- 0.1 -->
      <g transform="translate(79.83835 321.385562) scale(0.1 -0.1)">
       <defs>
        <path id="Calibri-31" d="M 2897 213 
Q 2897 153 2887 112 
Q 2878 72 2862 47 
Q 2847 22 2826 11 
Q 2806 0 2784 0 
L 672 0 
Q 650 0 631 11 
Q 613 22 595 47 
Q 578 72 568 112 
Q 559 153 559 213 
Q 559 269 568 309 
Q 578 350 592 376 
Q 606 403 626 417 
Q 647 431 672 431 
L 1516 431 
L 1516 3506 
L 734 3041 
Q 675 3009 639 3003 
Q 603 2997 581 3017 
Q 559 3038 551 3084 
Q 544 3131 544 3203 
Q 544 3256 548 3293 
Q 553 3331 562 3356 
Q 572 3381 589 3400 
Q 606 3419 634 3438 
L 1566 4034 
Q 1578 4044 1597 4050 
Q 1616 4056 1644 4062 
Q 1672 4069 1709 4070 
Q 1747 4072 1803 4072 
Q 1878 4072 1928 4065 
Q 1978 4059 2006 4048 
Q 2034 4038 2043 4020 
Q 2053 4003 2053 3984 
L 2053 431 
L 2784 431 
Q 2809 431 2831 417 
Q 2853 403 2867 376 
Q 2881 350 2889 309 
Q 2897 269 2897 213 
z
" transform="scale(0.015625)"/>
       </defs>
       <use xlink:href="#Calibri-30"/>
       <use xlink:href="#Calibri-2e" x="50.683594"/>
       <use xlink:href="#Calibri-31" x="75.927734"/>
      </g>
     </g>
    </g>
    <g id="xtick_3">
     <g id="line2d_3">
      <g>
       <use xlink:href="#m479bd7b9c3" x="114.7392" y="307.584" style="stroke: #000000; stroke-width: 0.8"/>
      </g>
     </g>
     <g id="text_3">
      <!-- 0.2 -->
      <g transform="translate(108.40795 321.385562) scale(0.1 -0.1)">
       <defs>
        <path id="Calibri-32" d="M 2888 231 
Q 2888 175 2880 131 
Q 2872 88 2858 58 
Q 2844 28 2820 14 
Q 2797 0 2769 0 
L 534 0 
Q 491 0 458 11 
Q 425 22 401 47 
Q 378 72 367 119 
Q 356 166 356 234 
Q 356 297 361 344 
Q 366 391 381 427 
Q 397 463 420 498 
Q 444 534 481 575 
L 1266 1406 
Q 1538 1694 1702 1922 
Q 1866 2150 1955 2337 
Q 2044 2525 2072 2678 
Q 2100 2831 2100 2966 
Q 2100 3100 2056 3220 
Q 2013 3341 1930 3431 
Q 1847 3522 1722 3575 
Q 1597 3628 1434 3628 
Q 1244 3628 1092 3575 
Q 941 3522 827 3459 
Q 713 3397 636 3344 
Q 559 3291 522 3291 
Q 500 3291 483 3303 
Q 466 3316 455 3344 
Q 444 3372 437 3419 
Q 431 3466 431 3531 
Q 431 3578 434 3612 
Q 438 3647 445 3672 
Q 453 3697 465 3719 
Q 478 3741 515 3773 
Q 553 3806 645 3862 
Q 738 3919 877 3973 
Q 1016 4028 1183 4065 
Q 1350 4103 1534 4103 
Q 1828 4103 2048 4020 
Q 2269 3938 2414 3794 
Q 2559 3650 2631 3459 
Q 2703 3269 2703 3053 
Q 2703 2859 2668 2667 
Q 2634 2475 2523 2251 
Q 2413 2028 2203 1754 
Q 1994 1481 1647 1125 
L 1006 456 
L 2766 456 
Q 2791 456 2814 442 
Q 2838 428 2855 400 
Q 2872 372 2880 330 
Q 2888 288 2888 231 
z
" transform="scale(0.015625)"/>
       </defs>
       <use xlink:href="#Calibri-30"/>
       <use xlink:href="#Calibri-2e" x="50.683594"/>
       <use xlink:href="#Calibri-32" x="75.927734"/>
      </g>
     </g>
    </g>
    <g id="xtick_4">
     <g id="line2d_4">
      <g>
       <use xlink:href="#m479bd7b9c3" x="143.3088" y="307.584" style="stroke: #000000; stroke-width: 0.8"/>
      </g>
     </g>
     <g id="text_4">
      <!-- 0.3 -->
      <g transform="translate(136.97755 321.385562) scale(0.1 -0.1)">
       <defs>
        <path id="Calibri-33" d="M 2856 1156 
Q 2856 878 2759 654 
Q 2663 431 2481 272 
Q 2300 113 2034 27 
Q 1769 -59 1434 -59 
Q 1231 -59 1054 -26 
Q 878 6 740 51 
Q 603 97 512 145 
Q 422 194 398 216 
Q 375 238 362 259 
Q 350 281 340 312 
Q 331 344 326 389 
Q 322 434 322 500 
Q 322 613 344 656 
Q 366 700 406 700 
Q 434 700 517 650 
Q 600 600 729 542 
Q 859 484 1032 434 
Q 1206 384 1419 384 
Q 1625 384 1781 437 
Q 1938 491 2044 587 
Q 2150 684 2203 817 
Q 2256 950 2256 1106 
Q 2256 1278 2189 1415 
Q 2122 1553 1992 1653 
Q 1863 1753 1673 1806 
Q 1484 1859 1244 1859 
L 859 1859 
Q 834 1859 811 1870 
Q 788 1881 770 1906 
Q 753 1931 742 1972 
Q 731 2013 731 2078 
Q 731 2138 740 2177 
Q 750 2216 767 2239 
Q 784 2263 806 2273 
Q 828 2284 856 2284 
L 1209 2284 
Q 1416 2284 1580 2337 
Q 1744 2391 1858 2491 
Q 1972 2591 2033 2730 
Q 2094 2869 2094 3041 
Q 2094 3166 2053 3280 
Q 2013 3394 1931 3478 
Q 1850 3563 1723 3611 
Q 1597 3659 1431 3659 
Q 1250 3659 1098 3604 
Q 947 3550 828 3487 
Q 709 3425 631 3370 
Q 553 3316 522 3316 
Q 500 3316 483 3323 
Q 466 3331 455 3354 
Q 444 3378 439 3420 
Q 434 3463 434 3531 
Q 434 3578 437 3614 
Q 441 3650 450 3676 
Q 459 3703 471 3725 
Q 484 3747 514 3776 
Q 544 3806 634 3862 
Q 725 3919 858 3973 
Q 991 4028 1164 4065 
Q 1338 4103 1538 4103 
Q 1819 4103 2031 4031 
Q 2244 3959 2386 3828 
Q 2528 3697 2598 3514 
Q 2669 3331 2669 3109 
Q 2669 2919 2619 2755 
Q 2569 2591 2472 2464 
Q 2375 2338 2234 2248 
Q 2094 2159 1909 2125 
L 1909 2119 
Q 2119 2097 2292 2014 
Q 2466 1931 2591 1806 
Q 2716 1681 2786 1514 
Q 2856 1347 2856 1156 
z
" transform="scale(0.015625)"/>
       </defs>
       <use xlink:href="#Calibri-30"/>
       <use xlink:href="#Calibri-2e" x="50.683594"/>
       <use xlink:href="#Calibri-33" x="75.927734"/>
      </g>
     </g>
    </g>
    <g id="xtick_5">
     <g id="line2d_5">
      <g>
       <use xlink:href="#m479bd7b9c3" x="171.8784" y="307.584" style="stroke: #000000; stroke-width: 0.8"/>
      </g>
     </g>
     <g id="text_5">
      <!-- 0.4 -->
      <g transform="translate(165.54715 321.385562) scale(0.1 -0.1)">
       <defs>
        <path id="Calibri-34" d="M 3059 1150 
Q 3059 1047 3028 987 
Q 2997 928 2941 928 
L 2484 928 
L 2484 78 
Q 2484 53 2471 36 
Q 2459 19 2428 6 
Q 2397 -6 2347 -12 
Q 2297 -19 2219 -19 
Q 2144 -19 2094 -12 
Q 2044 -6 2014 6 
Q 1984 19 1973 36 
Q 1963 53 1963 78 
L 1963 928 
L 294 928 
Q 256 928 231 937 
Q 206 947 186 972 
Q 166 997 158 1044 
Q 150 1091 150 1166 
Q 150 1225 153 1272 
Q 156 1319 165 1358 
Q 175 1397 190 1433 
Q 206 1469 228 1509 
L 1684 3966 
Q 1700 3991 1729 4009 
Q 1759 4028 1806 4040 
Q 1853 4053 1922 4058 
Q 1991 4063 2084 4063 
Q 2188 4063 2264 4055 
Q 2341 4047 2387 4034 
Q 2434 4022 2459 4001 
Q 2484 3981 2484 3953 
L 2484 1372 
L 2941 1372 
Q 2994 1372 3026 1317 
Q 3059 1263 3059 1150 
z
M 1963 3591 
L 1956 3591 
L 641 1372 
L 1963 1372 
L 1963 3591 
z
" transform="scale(0.015625)"/>
       </defs>
       <use xlink:href="#Calibri-30"/>
       <use xlink:href="#Calibri-2e" x="50.683594"/>
       <use xlink:href="#Calibri-34" x="75.927734"/>
      </g>
     </g>
    </g>
    <g id="xtick_6">
     <g id="line2d_6">
      <g>
       <use xlink:href="#m479bd7b9c3" x="200.448" y="307.584" style="stroke: #000000; stroke-width: 0.8"/>
      </g>
     </g>
     <g id="text_6">
      <!-- 0.5 -->
      <g transform="translate(194.11675 321.385562) scale(0.1 -0.1)">
       <defs>
        <path id="Calibri-35" d="M 2869 1300 
Q 2869 975 2759 722 
Q 2650 469 2450 295 
Q 2250 122 1973 31 
Q 1697 -59 1359 -59 
Q 1172 -59 1003 -32 
Q 834 -6 703 33 
Q 572 72 487 109 
Q 403 147 379 169 
Q 356 191 347 209 
Q 338 228 330 254 
Q 322 281 319 322 
Q 316 363 316 419 
Q 316 472 320 514 
Q 325 556 337 582 
Q 350 609 367 621 
Q 384 634 406 634 
Q 438 634 503 595 
Q 569 556 680 511 
Q 791 466 955 425 
Q 1119 384 1344 384 
Q 1553 384 1728 434 
Q 1903 484 2029 590 
Q 2156 697 2228 858 
Q 2300 1019 2300 1250 
Q 2300 1444 2239 1592 
Q 2178 1741 2051 1839 
Q 1925 1938 1731 1986 
Q 1538 2034 1269 2034 
Q 1078 2034 940 2015 
Q 803 1997 684 1997 
Q 597 1997 559 2037 
Q 522 2078 522 2194 
L 522 3841 
Q 522 3944 570 3994 
Q 619 4044 709 4044 
L 2500 4044 
Q 2525 4044 2548 4030 
Q 2572 4016 2587 3987 
Q 2603 3959 2611 3915 
Q 2619 3872 2619 3813 
Q 2619 3700 2587 3637 
Q 2556 3575 2500 3575 
L 991 3575 
L 991 2441 
Q 1100 2456 1214 2459 
Q 1328 2463 1478 2463 
Q 1825 2463 2084 2380 
Q 2344 2297 2517 2145 
Q 2691 1994 2780 1778 
Q 2869 1563 2869 1300 
z
" transform="scale(0.015625)"/>
       </defs>
       <use xlink:href="#Calibri-30"/>
       <use xlink:href="#Calibri-2e" x="50.683594"/>
       <use xlink:href="#Calibri-35" x="75.927734"/>
      </g>
     </g>
    </g>
    <g id="xtick_7">
     <g id="line2d_7">
      <g>
       <use xlink:href="#m479bd7b9c3" x="229.0176" y="307.584" style="stroke: #000000; stroke-width: 0.8"/>
      </g>
     </g>
     <g id="text_7">
      <!-- 0.6 -->
      <g transform="translate(222.68635 321.385562) scale(0.1 -0.1)">
       <defs>
        <path id="Calibri-36" d="M 2991 1309 
Q 2991 1044 2909 795 
Q 2828 547 2659 358 
Q 2491 169 2231 55 
Q 1972 -59 1619 -59 
Q 1366 -59 1172 3 
Q 978 66 834 181 
Q 691 297 595 465 
Q 500 634 442 850 
Q 384 1066 359 1322 
Q 334 1578 334 1872 
Q 334 2131 362 2397 
Q 391 2663 462 2909 
Q 534 3156 657 3373 
Q 781 3591 967 3752 
Q 1153 3913 1412 4006 
Q 1672 4100 2016 4100 
Q 2131 4100 2250 4086 
Q 2369 4072 2469 4048 
Q 2569 4025 2637 3997 
Q 2706 3969 2728 3951 
Q 2750 3934 2761 3914 
Q 2772 3894 2778 3870 
Q 2784 3847 2787 3817 
Q 2791 3788 2791 3744 
Q 2791 3688 2789 3647 
Q 2788 3606 2777 3581 
Q 2766 3556 2748 3543 
Q 2731 3531 2703 3531 
Q 2669 3531 2609 3553 
Q 2550 3575 2465 3601 
Q 2381 3628 2261 3650 
Q 2141 3672 1981 3672 
Q 1691 3672 1481 3553 
Q 1272 3434 1139 3234 
Q 1006 3034 942 2770 
Q 878 2506 869 2219 
Q 950 2266 1051 2312 
Q 1153 2359 1273 2396 
Q 1394 2434 1528 2457 
Q 1663 2481 1816 2481 
Q 2144 2481 2369 2392 
Q 2594 2303 2733 2145 
Q 2872 1988 2931 1773 
Q 2991 1559 2991 1309 
z
M 2447 1259 
Q 2447 1441 2411 1589 
Q 2375 1738 2290 1841 
Q 2206 1944 2065 2000 
Q 1925 2056 1719 2056 
Q 1603 2056 1487 2036 
Q 1372 2016 1264 1980 
Q 1156 1944 1057 1895 
Q 959 1847 878 1791 
Q 878 1388 929 1116 
Q 981 844 1079 680 
Q 1178 516 1325 445 
Q 1472 375 1669 375 
Q 1869 375 2016 450 
Q 2163 525 2259 651 
Q 2356 778 2401 936 
Q 2447 1094 2447 1259 
z
" transform="scale(0.015625)"/>
       </defs>
       <use xlink:href="#Calibri-30"/>
       <use xlink:href="#Calibri-2e" x="50.683594"/>
       <use xlink:href="#Calibri-36" x="75.927734"/>
      </g>
     </g>
    </g>
    <g id="xtick_8">
     <g id="line2d_8">
      <g>
       <use xlink:href="#m479bd7b9c3" x="257.5872" y="307.584" style="stroke: #000000; stroke-width: 0.8"/>
      </g>
     </g>
     <g id="text_8">
      <!-- 0.7 -->
      <g transform="translate(251.25595 321.385562) scale(0.1 -0.1)">
       <defs>
        <path id="Calibri-37" d="M 2947 3813 
Q 2947 3756 2942 3711 
Q 2938 3666 2930 3623 
Q 2922 3581 2908 3542 
Q 2894 3503 2875 3459 
L 1419 103 
Q 1403 66 1379 42 
Q 1356 19 1320 5 
Q 1284 -9 1228 -14 
Q 1172 -19 1091 -19 
Q 984 -19 925 -9 
Q 866 0 839 20 
Q 813 41 816 70 
Q 819 100 838 141 
L 2369 3572 
L 428 3572 
Q 369 3572 339 3634 
Q 309 3697 309 3809 
Q 309 3869 317 3912 
Q 325 3956 340 3986 
Q 356 4016 378 4030 
Q 400 4044 428 4044 
L 2784 4044 
Q 2828 4044 2861 4034 
Q 2894 4025 2911 3997 
Q 2928 3969 2937 3925 
Q 2947 3881 2947 3813 
z
" transform="scale(0.015625)"/>
       </defs>
       <use xlink:href="#Calibri-30"/>
       <use xlink:href="#Calibri-2e" x="50.683594"/>
       <use xlink:href="#Calibri-37" x="75.927734"/>
      </g>
     </g>
    </g>
    <g id="xtick_9">
     <g id="line2d_9">
      <g>
       <use xlink:href="#m479bd7b9c3" x="286.1568" y="307.584" style="stroke: #000000; stroke-width: 0.8"/>
      </g>
     </g>
     <g id="text_9">
      <!-- 0.8 -->
      <g transform="translate(279.82555 321.385562) scale(0.1 -0.1)">
       <defs>
        <path id="Calibri-38" d="M 2981 1038 
Q 2981 775 2887 570 
Q 2794 366 2617 225 
Q 2441 84 2181 12 
Q 1922 -59 1588 -59 
Q 1275 -59 1028 6 
Q 781 72 609 200 
Q 438 328 347 515 
Q 256 703 256 944 
Q 256 1134 318 1293 
Q 381 1453 498 1587 
Q 616 1722 787 1839 
Q 959 1956 1175 2063 
Q 988 2159 844 2267 
Q 700 2375 600 2501 
Q 500 2628 448 2772 
Q 397 2916 397 3084 
Q 397 3297 473 3483 
Q 550 3669 704 3806 
Q 859 3944 1098 4023 
Q 1338 4103 1656 4103 
Q 1963 4103 2186 4029 
Q 2409 3956 2554 3829 
Q 2700 3703 2769 3531 
Q 2838 3359 2838 3163 
Q 2838 3003 2786 2856 
Q 2734 2709 2634 2578 
Q 2534 2447 2389 2333 
Q 2244 2219 2056 2119 
Q 2278 2009 2451 1893 
Q 2625 1778 2742 1645 
Q 2859 1513 2920 1364 
Q 2981 1216 2981 1038 
z
M 2306 3113 
Q 2306 3244 2261 3350 
Q 2216 3456 2128 3531 
Q 2041 3606 1911 3645 
Q 1781 3684 1616 3684 
Q 1278 3684 1104 3531 
Q 931 3378 931 3113 
Q 931 2991 973 2886 
Q 1016 2781 1105 2687 
Q 1194 2594 1330 2505 
Q 1466 2416 1653 2319 
Q 1969 2481 2137 2678 
Q 2306 2875 2306 3113 
z
M 2438 981 
Q 2438 1125 2384 1242 
Q 2331 1359 2223 1461 
Q 2116 1563 1955 1658 
Q 1794 1753 1581 1856 
Q 1384 1759 1236 1662 
Q 1088 1566 992 1462 
Q 897 1359 848 1245 
Q 800 1131 800 994 
Q 800 691 1008 525 
Q 1216 359 1628 359 
Q 2028 359 2233 526 
Q 2438 694 2438 981 
z
" transform="scale(0.015625)"/>
       </defs>
       <use xlink:href="#Calibri-30"/>
       <use xlink:href="#Calibri-2e" x="50.683594"/>
       <use xlink:href="#Calibri-38" x="75.927734"/>
      </g>
     </g>
    </g>
    <g id="xtick_10">
     <g id="line2d_10">
      <g>
       <use xlink:href="#m479bd7b9c3" x="314.7264" y="307.584" style="stroke: #000000; stroke-width: 0.8"/>
      </g>
     </g>
     <g id="text_10">
      <!-- 0.9 -->
      <g transform="translate(308.39515 321.385562) scale(0.1 -0.1)">
       <defs>
        <path id="Calibri-39" d="M 2919 2181 
Q 2919 1919 2887 1650 
Q 2856 1381 2781 1132 
Q 2706 884 2579 667 
Q 2453 450 2261 287 
Q 2069 125 1805 33 
Q 1541 -59 1191 -59 
Q 1056 -59 929 -42 
Q 803 -25 701 0 
Q 600 25 531 53 
Q 463 81 431 109 
Q 400 138 386 186 
Q 372 234 372 316 
Q 372 384 376 425 
Q 381 466 390 487 
Q 400 509 417 517 
Q 434 525 459 525 
Q 494 525 556 501 
Q 619 478 714 450 
Q 809 422 937 398 
Q 1066 375 1225 375 
Q 1528 375 1745 492 
Q 1963 609 2100 806 
Q 2238 1003 2306 1262 
Q 2375 1522 2381 1809 
Q 2216 1713 1984 1638 
Q 1753 1563 1453 1563 
Q 1116 1563 886 1655 
Q 656 1747 517 1906 
Q 378 2066 317 2284 
Q 256 2503 256 2763 
Q 256 3031 334 3273 
Q 413 3516 578 3700 
Q 744 3884 1000 3993 
Q 1256 4103 1613 4103 
Q 1866 4103 2061 4039 
Q 2256 3975 2400 3854 
Q 2544 3734 2644 3564 
Q 2744 3394 2805 3178 
Q 2866 2963 2892 2711 
Q 2919 2459 2919 2181 
z
M 2372 2241 
Q 2372 2641 2319 2914 
Q 2266 3188 2162 3356 
Q 2059 3525 1909 3600 
Q 1759 3675 1563 3675 
Q 1359 3675 1215 3601 
Q 1072 3528 980 3404 
Q 888 3281 844 3125 
Q 800 2969 800 2803 
Q 800 2619 839 2466 
Q 878 2313 965 2206 
Q 1053 2100 1193 2042 
Q 1334 1984 1541 1984 
Q 1775 1984 1994 2054 
Q 2213 2125 2372 2241 
z
" transform="scale(0.015625)"/>
       </defs>
       <use xlink:href="#Calibri-30"/>
       <use xlink:href="#Calibri-2e" x="50.683594"/>
       <use xlink:href="#Calibri-39" x="75.927734"/>
      </g>
     </g>
    </g>
    <g id="xtick_11">
     <g id="line2d_11">
      <g>
       <use xlink:href="#m479bd7b9c3" x="343.296" y="307.584" style="stroke: #000000; stroke-width: 0.8"/>
      </g>
     </g>
     <g id="text_11">
      <!-- 1.0 -->
      <g transform="translate(336.96475 321.385562) scale(0.1 -0.1)">
       <use xlink:href="#Calibri-31"/>
       <use xlink:href="#Calibri-2e" x="50.683594"/>
       <use xlink:href="#Calibri-30" x="75.927734"/>
      </g>
     </g>
    </g>
    <g id="text_12">
     <!-- $\mathit{p}$ (cm$^2$/cm$^2$) -->
     <g transform="translate(174.148 336.263687) scale(0.1 -0.1)">
      <defs>
       <path id="DejaVuSans-Oblique-70" d="M 3175 2156 
Q 3175 2616 2975 2859 
Q 2775 3103 2400 3103 
Q 2144 3103 1911 2972 
Q 1678 2841 1497 2591 
Q 1319 2344 1212 1994 
Q 1106 1644 1106 1300 
Q 1106 863 1306 627 
Q 1506 391 1875 391 
Q 2147 391 2380 519 
Q 2613 647 2778 891 
Q 2956 1147 3065 1494 
Q 3175 1841 3175 2156 
z
M 1394 2969 
Q 1625 3272 1939 3428 
Q 2253 3584 2638 3584 
Q 3175 3584 3472 3232 
Q 3769 2881 3769 2247 
Q 3769 1728 3584 1258 
Q 3400 788 3053 416 
Q 2822 169 2531 39 
Q 2241 -91 1919 -91 
Q 1547 -91 1294 64 
Q 1041 219 916 525 
L 556 -1331 
L -19 -1331 
L 922 3500 
L 1497 3500 
L 1394 2969 
z
" transform="scale(0.015625)"/>
       <path id="Calibri-20" transform="scale(0.015625)"/>
       <path id="Calibri-28" d="M 1547 4306 
Q 1250 3678 1104 3017 
Q 959 2356 959 1688 
Q 959 1016 1107 356 
Q 1256 -303 1541 -938 
Q 1556 -975 1557 -1001 
Q 1559 -1028 1537 -1045 
Q 1516 -1063 1470 -1070 
Q 1425 -1078 1347 -1078 
Q 1291 -1078 1250 -1075 
Q 1209 -1072 1179 -1062 
Q 1150 -1053 1131 -1040 
Q 1113 -1028 1103 -1013 
Q 934 -694 806 -367 
Q 678 -41 590 296 
Q 503 634 459 979 
Q 416 1325 416 1678 
Q 416 2031 464 2375 
Q 513 2719 602 3058 
Q 691 3397 819 3725 
Q 947 4053 1106 4375 
Q 1109 4388 1123 4397 
Q 1138 4406 1163 4415 
Q 1188 4425 1231 4429 
Q 1275 4434 1344 4434 
Q 1416 4434 1459 4425 
Q 1503 4416 1528 4400 
Q 1553 4384 1556 4359 
Q 1559 4334 1547 4306 
z
" transform="scale(0.015625)"/>
       <path id="Calibri-63" d="M 2500 506 
Q 2500 453 2497 414 
Q 2494 375 2486 348 
Q 2478 322 2467 301 
Q 2456 281 2417 242 
Q 2378 203 2284 145 
Q 2191 88 2073 42 
Q 1956 -3 1818 -31 
Q 1681 -59 1534 -59 
Q 1231 -59 997 41 
Q 763 141 605 333 
Q 447 525 364 804 
Q 281 1084 281 1450 
Q 281 1866 382 2164 
Q 484 2463 661 2653 
Q 838 2844 1077 2936 
Q 1316 3028 1594 3028 
Q 1728 3028 1854 3003 
Q 1981 2978 2087 2937 
Q 2194 2897 2276 2844 
Q 2359 2791 2396 2753 
Q 2434 2716 2448 2694 
Q 2463 2672 2472 2642 
Q 2481 2613 2484 2575 
Q 2488 2538 2488 2481 
Q 2488 2359 2459 2311 
Q 2431 2263 2391 2263 
Q 2344 2263 2283 2314 
Q 2222 2366 2128 2428 
Q 2034 2491 1901 2542 
Q 1769 2594 1588 2594 
Q 1216 2594 1017 2308 
Q 819 2022 819 1478 
Q 819 1206 870 1001 
Q 922 797 1022 659 
Q 1122 522 1267 455 
Q 1413 388 1600 388 
Q 1778 388 1912 444 
Q 2047 500 2145 567 
Q 2244 634 2311 689 
Q 2378 744 2416 744 
Q 2438 744 2453 731 
Q 2469 719 2480 689 
Q 2491 659 2495 614 
Q 2500 569 2500 506 
z
" transform="scale(0.015625)"/>
       <path id="Calibri-6d" d="M 4650 78 
Q 4650 53 4637 36 
Q 4625 19 4597 6 
Q 4569 -6 4519 -12 
Q 4469 -19 4394 -19 
Q 4316 -19 4266 -12 
Q 4216 -6 4186 6 
Q 4156 19 4143 36 
Q 4131 53 4131 78 
L 4131 1788 
Q 4131 1966 4100 2112 
Q 4069 2259 4000 2365 
Q 3931 2472 3825 2528 
Q 3719 2584 3575 2584 
Q 3397 2584 3217 2446 
Q 3038 2309 2822 2044 
L 2822 78 
Q 2822 53 2809 36 
Q 2797 19 2767 6 
Q 2738 -6 2688 -12 
Q 2638 -19 2563 -19 
Q 2491 -19 2439 -12 
Q 2388 -6 2358 6 
Q 2328 19 2317 36 
Q 2306 53 2306 78 
L 2306 1788 
Q 2306 1966 2272 2112 
Q 2238 2259 2169 2365 
Q 2100 2472 1995 2528 
Q 1891 2584 1747 2584 
Q 1569 2584 1387 2446 
Q 1206 2309 994 2044 
L 994 78 
Q 994 53 981 36 
Q 969 19 941 6 
Q 913 -6 863 -12 
Q 813 -19 734 -19 
Q 659 -19 609 -12 
Q 559 -6 529 6 
Q 500 19 489 36 
Q 478 53 478 78 
L 478 2891 
Q 478 2916 487 2933 
Q 497 2950 525 2964 
Q 553 2978 597 2983 
Q 641 2988 713 2988 
Q 781 2988 826 2983 
Q 872 2978 897 2964 
Q 922 2950 933 2933 
Q 944 2916 944 2891 
L 944 2519 
Q 1181 2784 1404 2907 
Q 1628 3031 1856 3031 
Q 2031 3031 2170 2990 
Q 2309 2950 2415 2876 
Q 2522 2803 2597 2701 
Q 2672 2600 2722 2475 
Q 2863 2628 2989 2734 
Q 3116 2841 3233 2906 
Q 3350 2972 3461 3001 
Q 3572 3031 3684 3031 
Q 3956 3031 4140 2936 
Q 4325 2841 4439 2681 
Q 4553 2522 4601 2308 
Q 4650 2094 4650 1856 
L 4650 78 
z
" transform="scale(0.015625)"/>
       <path id="DejaVuSans-32" d="M 1228 531 
L 3431 531 
L 3431 0 
L 469 0 
L 469 531 
Q 828 903 1448 1529 
Q 2069 2156 2228 2338 
Q 2531 2678 2651 2914 
Q 2772 3150 2772 3378 
Q 2772 3750 2511 3984 
Q 2250 4219 1831 4219 
Q 1534 4219 1204 4116 
Q 875 4013 500 3803 
L 500 4441 
Q 881 4594 1212 4672 
Q 1544 4750 1819 4750 
Q 2544 4750 2975 4387 
Q 3406 4025 3406 3419 
Q 3406 3131 3298 2873 
Q 3191 2616 2906 2266 
Q 2828 2175 2409 1742 
Q 1991 1309 1228 531 
z
" transform="scale(0.015625)"/>
       <path id="Calibri-2f" d="M 525 -753 
Q 513 -794 492 -817 
Q 472 -841 440 -853 
Q 409 -866 364 -872 
Q 319 -878 253 -878 
Q 175 -878 123 -867 
Q 72 -856 44 -836 
Q 16 -816 9 -786 
Q 3 -756 22 -716 
L 1913 4469 
Q 1925 4509 1945 4532 
Q 1966 4556 1995 4570 
Q 2025 4584 2072 4589 
Q 2119 4594 2184 4594 
Q 2263 4594 2313 4583 
Q 2363 4572 2391 4553 
Q 2419 4534 2425 4503 
Q 2431 4472 2416 4431 
L 525 -753 
z
" transform="scale(0.015625)"/>
       <path id="Calibri-29" d="M 1522 1678 
Q 1522 1325 1478 979 
Q 1434 634 1346 296 
Q 1259 -41 1132 -367 
Q 1006 -694 838 -1013 
Q 828 -1028 809 -1040 
Q 791 -1053 761 -1062 
Q 731 -1072 690 -1075 
Q 650 -1078 594 -1078 
Q 513 -1078 467 -1070 
Q 422 -1063 401 -1045 
Q 381 -1028 382 -1001 
Q 384 -975 400 -938 
Q 688 -306 834 355 
Q 981 1016 981 1688 
Q 981 2356 834 3017 
Q 688 3678 394 4306 
Q 381 4334 384 4359 
Q 388 4384 413 4400 
Q 438 4416 481 4425 
Q 525 4434 597 4434 
Q 663 4434 706 4429 
Q 750 4425 776 4415 
Q 803 4406 815 4397 
Q 828 4388 834 4375 
Q 1156 3734 1339 3057 
Q 1522 2381 1522 1678 
z
" transform="scale(0.015625)"/>
      </defs>
      <use xlink:href="#DejaVuSans-Oblique-70" transform="translate(0 0.765625)"/>
      <use xlink:href="#Calibri-20" transform="translate(63.476562 0.765625)"/>
      <use xlink:href="#Calibri-28" transform="translate(84.958984 0.765625)"/>
      <use xlink:href="#Calibri-63" transform="translate(115.28125 0.765625)"/>
      <use xlink:href="#Calibri-6d" transform="translate(157.566406 0.765625)"/>
      <use xlink:href="#DejaVuSans-32" transform="translate(238.40625 39.046875) scale(0.7)"/>
      <use xlink:href="#Calibri-2f" transform="translate(285.676758 0.765625)"/>
      <use xlink:href="#Calibri-63" transform="translate(324.299805 0.765625)"/>
      <use xlink:href="#Calibri-6d" transform="translate(366.584961 0.765625)"/>
      <use xlink:href="#DejaVuSans-32" transform="translate(447.424805 39.046875) scale(0.7)"/>
      <use xlink:href="#Calibri-29" transform="translate(494.695312 0.765625)"/>
     </g>
    </g>
   </g>
   <g id="matplotlib.axis_2">
    <g id="ytick_1">
     <g id="line2d_12">
      <defs>
       <path id="m91e146c0d5" d="M 0 0 
L -3.5 0 
" style="stroke: #000000; stroke-width: 0.8"/>
      </defs>
      <g>
       <use xlink:href="#m91e146c0d5" x="57.6" y="275.65056" style="stroke: #000000; stroke-width: 0.8"/>
      </g>
     </g>
     <g id="text_13">
      <!-- 25 -->
      <g transform="translate(40.4625 279.051341) scale(0.1 -0.1)">
       <use xlink:href="#Calibri-32"/>
       <use xlink:href="#Calibri-35" x="50.683594"/>
      </g>
     </g>
    </g>
    <g id="ytick_2">
     <g id="line2d_13">
      <g>
       <use xlink:href="#m91e146c0d5" x="57.6" y="242.38656" style="stroke: #000000; stroke-width: 0.8"/>
      </g>
     </g>
     <g id="text_14">
      <!-- 50 -->
      <g transform="translate(40.4625 245.787341) scale(0.1 -0.1)">
       <use xlink:href="#Calibri-35"/>
       <use xlink:href="#Calibri-30" x="50.683594"/>
      </g>
     </g>
    </g>
    <g id="ytick_3">
     <g id="line2d_14">
      <g>
       <use xlink:href="#m91e146c0d5" x="57.6" y="209.12256" style="stroke: #000000; stroke-width: 0.8"/>
      </g>
     </g>
     <g id="text_15">
      <!-- 75 -->
      <g transform="translate(40.4625 212.523341) scale(0.1 -0.1)">
       <use xlink:href="#Calibri-37"/>
       <use xlink:href="#Calibri-35" x="50.683594"/>
      </g>
     </g>
    </g>
    <g id="ytick_4">
     <g id="line2d_15">
      <g>
       <use xlink:href="#m91e146c0d5" x="57.6" y="175.85856" style="stroke: #000000; stroke-width: 0.8"/>
      </g>
     </g>
     <g id="text_16">
      <!-- 100 -->
      <g transform="translate(35.39375 179.259341) scale(0.1 -0.1)">
       <use xlink:href="#Calibri-31"/>
       <use xlink:href="#Calibri-30" x="50.683594"/>
       <use xlink:href="#Calibri-30" x="101.367188"/>
      </g>
     </g>
    </g>
    <g id="ytick_5">
     <g id="line2d_16">
      <g>
       <use xlink:href="#m91e146c0d5" x="57.6" y="142.59456" style="stroke: #000000; stroke-width: 0.8"/>
      </g>
     </g>
     <g id="text_17">
      <!-- 125 -->
      <g transform="translate(35.39375 145.995341) scale(0.1 -0.1)">
       <use xlink:href="#Calibri-31"/>
       <use xlink:href="#Calibri-32" x="50.683594"/>
       <use xlink:href="#Calibri-35" x="101.367188"/>
      </g>
     </g>
    </g>
    <g id="ytick_6">
     <g id="line2d_17">
      <g>
       <use xlink:href="#m91e146c0d5" x="57.6" y="109.33056" style="stroke: #000000; stroke-width: 0.8"/>
      </g>
     </g>
     <g id="text_18">
      <!-- 150 -->
      <g transform="translate(35.39375 112.731341) scale(0.1 -0.1)">
       <use xlink:href="#Calibri-31"/>
       <use xlink:href="#Calibri-35" x="50.683594"/>
       <use xlink:href="#Calibri-30" x="101.367188"/>
      </g>
     </g>
    </g>
    <g id="ytick_7">
     <g id="line2d_18">
      <g>
       <use xlink:href="#m91e146c0d5" x="57.6" y="76.06656" style="stroke: #000000; stroke-width: 0.8"/>
      </g>
     </g>
     <g id="text_19">
      <!-- 175 -->
      <g transform="translate(35.39375 79.467341) scale(0.1 -0.1)">
       <use xlink:href="#Calibri-31"/>
       <use xlink:href="#Calibri-37" x="50.683594"/>
       <use xlink:href="#Calibri-35" x="101.367188"/>
      </g>
     </g>
    </g>
    <g id="ytick_8">
     <g id="line2d_19">
      <g>
       <use xlink:href="#m91e146c0d5" x="57.6" y="42.80256" style="stroke: #000000; stroke-width: 0.8"/>
      </g>
     </g>
     <g id="text_20">
      <!-- 200 -->
      <g transform="translate(35.39375 46.203341) scale(0.1 -0.1)">
       <use xlink:href="#Calibri-32"/>
       <use xlink:href="#Calibri-30" x="50.683594"/>
       <use xlink:href="#Calibri-30" x="101.367188"/>
      </g>
     </g>
    </g>
    <g id="text_21">
     <!-- $\mathit{Z}$$_{a}$ (nm) -->
     <g transform="translate(29.59375 191.028) rotate(-90) scale(0.1 -0.1)">
      <defs>
       <path id="DejaVuSans-Oblique-5a" d="M 838 4666 
L 4500 4666 
L 4409 4184 
L 794 531 
L 3769 531 
L 3669 0 
L -141 0 
L -50 481 
L 3566 4134 
L 738 4134 
L 838 4666 
z
" transform="scale(0.015625)"/>
       <path id="DejaVuSans-Oblique-61" d="M 3438 1997 
L 3047 0 
L 2472 0 
L 2578 531 
Q 2325 219 2001 64 
Q 1678 -91 1281 -91 
Q 834 -91 548 182 
Q 263 456 263 884 
Q 263 1497 752 1853 
Q 1241 2209 2100 2209 
L 2900 2209 
L 2931 2363 
Q 2938 2388 2941 2417 
Q 2944 2447 2944 2509 
Q 2944 2788 2717 2942 
Q 2491 3097 2081 3097 
Q 1800 3097 1504 3025 
Q 1209 2953 897 2809 
L 997 3341 
Q 1322 3463 1633 3523 
Q 1944 3584 2234 3584 
Q 2853 3584 3176 3315 
Q 3500 3047 3500 2534 
Q 3500 2431 3484 2292 
Q 3469 2153 3438 1997 
z
M 2816 1759 
L 2241 1759 
Q 1534 1759 1195 1570 
Q 856 1381 856 984 
Q 856 709 1029 553 
Q 1203 397 1509 397 
Q 1978 397 2328 733 
Q 2678 1069 2791 1631 
L 2816 1759 
z
" transform="scale(0.015625)"/>
       <path id="Calibri-6e" d="M 2900 78 
Q 2900 53 2887 36 
Q 2875 19 2847 6 
Q 2819 -6 2769 -12 
Q 2719 -19 2644 -19 
Q 2566 -19 2516 -12 
Q 2466 -6 2437 6 
Q 2409 19 2396 36 
Q 2384 53 2384 78 
L 2384 1725 
Q 2384 1966 2346 2112 
Q 2309 2259 2237 2365 
Q 2166 2472 2052 2528 
Q 1938 2584 1788 2584 
Q 1594 2584 1400 2446 
Q 1206 2309 994 2044 
L 994 78 
Q 994 53 981 36 
Q 969 19 941 6 
Q 913 -6 863 -12 
Q 813 -19 734 -19 
Q 659 -19 609 -12 
Q 559 -6 529 6 
Q 500 19 489 36 
Q 478 53 478 78 
L 478 2891 
Q 478 2916 487 2933 
Q 497 2950 525 2964 
Q 553 2978 597 2983 
Q 641 2988 713 2988 
Q 781 2988 826 2983 
Q 872 2978 897 2964 
Q 922 2950 933 2933 
Q 944 2916 944 2891 
L 944 2519 
Q 1181 2784 1417 2907 
Q 1653 3031 1894 3031 
Q 2175 3031 2367 2936 
Q 2559 2841 2678 2681 
Q 2797 2522 2848 2308 
Q 2900 2094 2900 1794 
L 2900 78 
z
" transform="scale(0.015625)"/>
      </defs>
      <use xlink:href="#DejaVuSans-Oblique-5a" transform="translate(0 0.09375)"/>
      <use xlink:href="#DejaVuSans-Oblique-61" transform="translate(69.462891 -16.3125) scale(0.7)"/>
      <use xlink:href="#Calibri-20" transform="translate(115.092773 0.09375)"/>
      <use xlink:href="#Calibri-28" transform="translate(136.575195 0.09375)"/>
      <use xlink:href="#Calibri-6e" transform="translate(166.897461 0.09375)"/>
      <use xlink:href="#Calibri-6d" transform="translate(219.436523 0.09375)"/>
      <use xlink:href="#Calibri-29" transform="translate(299.319336 0.09375)"/>
     </g>
    </g>
   </g>
   <g id="patch_3">
    <path d="M 57.6 307.584 
L 57.6 41.472 
" style="fill: none; stroke: #000000; stroke-width: 0.8; stroke-linejoin: miter; stroke-linecap: square"/>
   </g>
   <g id="patch_4">
    <path d="M 343.296 307.584 
L 343.296 41.472 
" style="fill: none; stroke: #000000; stroke-width: 0.8; stroke-linejoin: miter; stroke-linecap: square"/>
   </g>
   <g id="patch_5">
    <path d="M 57.6 307.584 
L 343.296 307.584 
" style="fill: none; stroke: #000000; stroke-width: 0.8; stroke-linejoin: miter; stroke-linecap: square"/>
   </g>
   <g id="patch_6">
    <path d="M 57.6 41.472 
L 343.296 41.472 
" style="fill: none; stroke: #000000; stroke-width: 0.8; stroke-linejoin: miter; stroke-linecap: square"/>
   </g>
   <g id="text_22">
    <!-- $\lambda$ = 735 nm -->
    <g transform="translate(177.348 35.472) scale(0.1 -0.1)">
     <defs>
      <path id="DejaVuSans-Oblique-3bb" d="M 2350 4316 
L 3125 0 
L 2516 0 
L 2038 2588 
L 328 0 
L -281 0 
L 1903 3356 
L 1794 3975 
Q 1725 4369 1391 4369 
L 1091 4369 
L 1184 4863 
L 1550 4856 
Q 2253 4847 2350 4316 
z
" transform="scale(0.015625)"/>
      <path id="Calibri-3d" d="M 2891 2409 
Q 2891 2284 2855 2236 
Q 2819 2188 2772 2188 
L 409 2188 
Q 363 2188 328 2236 
Q 294 2284 294 2409 
Q 294 2522 325 2575 
Q 356 2628 409 2628 
L 2772 2628 
Q 2828 2628 2859 2575 
Q 2891 2522 2891 2409 
z
M 2891 1194 
Q 2891 1069 2855 1022 
Q 2819 975 2772 975 
L 409 975 
Q 363 975 328 1022 
Q 294 1069 294 1194 
Q 294 1309 325 1362 
Q 356 1416 409 1416 
L 2772 1416 
Q 2828 1416 2859 1362 
Q 2891 1309 2891 1194 
z
" transform="scale(0.015625)"/>
     </defs>
     <use xlink:href="#DejaVuSans-Oblique-3bb" transform="translate(0 0.015625)"/>
     <use xlink:href="#Calibri-20" transform="translate(59.179688 0.015625)"/>
     <use xlink:href="#Calibri-3d" transform="translate(81.787109 0.015625)"/>
     <use xlink:href="#Calibri-20" transform="translate(131.591797 0.015625)"/>
     <use xlink:href="#Calibri-37" transform="translate(154.199219 0.015625)"/>
     <use xlink:href="#Calibri-33" transform="translate(204.882812 0.015625)"/>
     <use xlink:href="#Calibri-35" transform="translate(255.566406 0.015625)"/>
     <use xlink:href="#Calibri-20" transform="translate(306.25 0.015625)"/>
     <use xlink:href="#Calibri-6e" transform="translate(328.857422 0.015625)"/>
     <use xlink:href="#Calibri-6d" transform="translate(381.396484 0.015625)"/>
    </g>
   </g>
  </g>
  <g id="axes_2">
   <g id="patch_7">
    <path d="M 361.152 307.584 
L 374.4576 307.584 
L 374.4576 41.472 
L 361.152 41.472 
z
" style="fill: #ffffff"/>
   </g>
   <g id="QuadMesh_1">
    <path d="M 361.152 307.584 
L 374.4576 307.584 
L 374.4576 280.9728 
L 361.152 280.9728 
L 361.152 307.584 
" clip-path="url(#pffd53dfaff)" style="fill: #0000b6"/>
    <path d="M 361.152 280.9728 
L 374.4576 280.9728 
L 374.4576 254.3616 
L 361.152 254.3616 
L 361.152 280.9728 
" clip-path="url(#pffd53dfaff)" style="fill: #0018ff"/>
    <path d="M 361.152 254.3616 
L 374.4576 254.3616 
L 374.4576 227.7504 
L 361.152 227.7504 
L 361.152 254.3616 
" clip-path="url(#pffd53dfaff)" style="fill: #0080ff"/>
    <path d="M 361.152 227.7504 
L 374.4576 227.7504 
L 374.4576 201.1392 
L 361.152 201.1392 
L 361.152 227.7504 
" clip-path="url(#pffd53dfaff)" style="fill: #00e4f8"/>
    <path d="M 361.152 201.1392 
L 374.4576 201.1392 
L 374.4576 174.528 
L 361.152 174.528 
L 361.152 201.1392 
" clip-path="url(#pffd53dfaff)" style="fill: #53ffa4"/>
    <path d="M 361.152 174.528 
L 374.4576 174.528 
L 374.4576 147.9168 
L 361.152 147.9168 
L 361.152 174.528 
" clip-path="url(#pffd53dfaff)" style="fill: #a4ff53"/>
    <path d="M 361.152 147.9168 
L 374.4576 147.9168 
L 374.4576 121.3056 
L 361.152 121.3056 
L 361.152 147.9168 
" clip-path="url(#pffd53dfaff)" style="fill: #f8f500"/>
    <path d="M 361.152 121.3056 
L 374.4576 121.3056 
L 374.4576 94.6944 
L 361.152 94.6944 
L 361.152 121.3056 
" clip-path="url(#pffd53dfaff)" style="fill: #ff9400"/>
    <path d="M 361.152 94.6944 
L 374.4576 94.6944 
L 374.4576 68.0832 
L 361.152 68.0832 
L 361.152 94.6944 
" clip-path="url(#pffd53dfaff)" style="fill: #ff3800"/>
    <path d="M 361.152 68.0832 
L 374.4576 68.0832 
L 374.4576 41.472 
L 361.152 41.472 
L 361.152 68.0832 
" clip-path="url(#pffd53dfaff)" style="fill: #b60000"/>
   </g>
   <g id="matplotlib.axis_3"/>
   <g id="matplotlib.axis_4">
    <g id="ytick_9">
     <g id="line2d_20">
      <defs>
       <path id="mac5290eae2" d="M 0 0 
L 3.5 0 
" style="stroke: #000000; stroke-width: 0.8"/>
      </defs>
      <g>
       <use xlink:href="#mac5290eae2" x="374.4576" y="307.584" style="stroke: #000000; stroke-width: 0.8"/>
      </g>
     </g>
     <g id="text_23">
      <!-- 0 -->
      <g transform="translate(381.4576 310.984781) scale(0.1 -0.1)">
       <use xlink:href="#Calibri-30"/>
      </g>
     </g>
    </g>
    <g id="ytick_10">
     <g id="line2d_21">
      <g>
       <use xlink:href="#mac5290eae2" x="374.4576" y="280.9728" style="stroke: #000000; stroke-width: 0.8"/>
      </g>
     </g>
     <g id="text_24">
      <!-- 0.1 -->
      <g transform="translate(381.4576 284.373581) scale(0.1 -0.1)">
       <use xlink:href="#Calibri-30"/>
       <use xlink:href="#Calibri-2e" x="50.683594"/>
       <use xlink:href="#Calibri-31" x="75.927734"/>
      </g>
     </g>
    </g>
    <g id="ytick_11">
     <g id="line2d_22">
      <g>
       <use xlink:href="#mac5290eae2" x="374.4576" y="254.3616" style="stroke: #000000; stroke-width: 0.8"/>
      </g>
     </g>
     <g id="text_25">
      <!-- 0.2 -->
      <g transform="translate(381.4576 257.762381) scale(0.1 -0.1)">
       <use xlink:href="#Calibri-30"/>
       <use xlink:href="#Calibri-2e" x="50.683594"/>
       <use xlink:href="#Calibri-32" x="75.927734"/>
      </g>
     </g>
    </g>
    <g id="ytick_12">
     <g id="line2d_23">
      <g>
       <use xlink:href="#mac5290eae2" x="374.4576" y="227.7504" style="stroke: #000000; stroke-width: 0.8"/>
      </g>
     </g>
     <g id="text_26">
      <!-- 0.3 -->
      <g transform="translate(381.4576 231.151181) scale(0.1 -0.1)">
       <use xlink:href="#Calibri-30"/>
       <use xlink:href="#Calibri-2e" x="50.683594"/>
       <use xlink:href="#Calibri-33" x="75.927734"/>
      </g>
     </g>
    </g>
    <g id="ytick_13">
     <g id="line2d_24">
      <g>
       <use xlink:href="#mac5290eae2" x="374.4576" y="201.1392" style="stroke: #000000; stroke-width: 0.8"/>
      </g>
     </g>
     <g id="text_27">
      <!-- 0.4 -->
      <g transform="translate(381.4576 204.539981) scale(0.1 -0.1)">
       <use xlink:href="#Calibri-30"/>
       <use xlink:href="#Calibri-2e" x="50.683594"/>
       <use xlink:href="#Calibri-34" x="75.927734"/>
      </g>
     </g>
    </g>
    <g id="ytick_14">
     <g id="line2d_25">
      <g>
       <use xlink:href="#mac5290eae2" x="374.4576" y="174.528" style="stroke: #000000; stroke-width: 0.8"/>
      </g>
     </g>
     <g id="text_28">
      <!-- 0.5 -->
      <g transform="translate(381.4576 177.928781) scale(0.1 -0.1)">
       <use xlink:href="#Calibri-30"/>
       <use xlink:href="#Calibri-2e" x="50.683594"/>
       <use xlink:href="#Calibri-35" x="75.927734"/>
      </g>
     </g>
    </g>
    <g id="ytick_15">
     <g id="line2d_26">
      <g>
       <use xlink:href="#mac5290eae2" x="374.4576" y="147.9168" style="stroke: #000000; stroke-width: 0.8"/>
      </g>
     </g>
     <g id="text_29">
      <!-- 0.6 -->
      <g transform="translate(381.4576 151.317581) scale(0.1 -0.1)">
       <use xlink:href="#Calibri-30"/>
       <use xlink:href="#Calibri-2e" x="50.683594"/>
       <use xlink:href="#Calibri-36" x="75.927734"/>
      </g>
     </g>
    </g>
    <g id="ytick_16">
     <g id="line2d_27">
      <g>
       <use xlink:href="#mac5290eae2" x="374.4576" y="121.3056" style="stroke: #000000; stroke-width: 0.8"/>
      </g>
     </g>
     <g id="text_30">
      <!-- 0.7 -->
      <g transform="translate(381.4576 124.706381) scale(0.1 -0.1)">
       <use xlink:href="#Calibri-30"/>
       <use xlink:href="#Calibri-2e" x="50.683594"/>
       <use xlink:href="#Calibri-37" x="75.927734"/>
      </g>
     </g>
    </g>
    <g id="ytick_17">
     <g id="line2d_28">
      <g>
       <use xlink:href="#mac5290eae2" x="374.4576" y="94.6944" style="stroke: #000000; stroke-width: 0.8"/>
      </g>
     </g>
     <g id="text_31">
      <!-- 0.8 -->
      <g transform="translate(381.4576 98.095181) scale(0.1 -0.1)">
       <use xlink:href="#Calibri-30"/>
       <use xlink:href="#Calibri-2e" x="50.683594"/>
       <use xlink:href="#Calibri-38" x="75.927734"/>
      </g>
     </g>
    </g>
    <g id="ytick_18">
     <g id="line2d_29">
      <g>
       <use xlink:href="#mac5290eae2" x="374.4576" y="68.0832" style="stroke: #000000; stroke-width: 0.8"/>
      </g>
     </g>
     <g id="text_32">
      <!-- 0.9 -->
      <g transform="translate(381.4576 71.483981) scale(0.1 -0.1)">
       <use xlink:href="#Calibri-30"/>
       <use xlink:href="#Calibri-2e" x="50.683594"/>
       <use xlink:href="#Calibri-39" x="75.927734"/>
      </g>
     </g>
    </g>
    <g id="ytick_19">
     <g id="line2d_30">
      <g>
       <use xlink:href="#mac5290eae2" x="374.4576" y="41.472" style="stroke: #000000; stroke-width: 0.8"/>
      </g>
     </g>
     <g id="text_33">
      <!-- 1.0 -->
      <g transform="translate(381.4576 44.872781) scale(0.1 -0.1)">
       <use xlink:href="#Calibri-31"/>
       <use xlink:href="#Calibri-2e" x="50.683594"/>
       <use xlink:href="#Calibri-30" x="75.927734"/>
      </g>
     </g>
    </g>
   </g>
   <g id="LineCollection_1"/>
   <g id="patch_8">
    <path d="M 361.152 307.584 
L 367.8048 307.584 
L 374.4576 307.584 
L 374.4576 41.472 
L 367.8048 41.472 
L 361.152 41.472 
L 361.152 307.584 
z
" style="fill: none; stroke: #000000; stroke-width: 0.8; stroke-linejoin: miter; stroke-linecap: square"/>
   </g>
   <g id="text_34">
    <!-- $\mathit{E}_{\mathrm{dis}}$/$\mathit{E}_{\mathrm{i}}$ -->
    <g transform="translate(353.2548 35.472) scale(0.1 -0.1)">
     <defs>
      <path id="DejaVuSans-Oblique-45" d="M 1081 4666 
L 4031 4666 
L 3928 4134 
L 1606 4134 
L 1338 2753 
L 3566 2753 
L 3463 2222 
L 1234 2222 
L 909 531 
L 3284 531 
L 3181 0 
L 172 0 
L 1081 4666 
z
" transform="scale(0.015625)"/>
      <path id="DejaVuSans-64" d="M 2906 2969 
L 2906 4863 
L 3481 4863 
L 3481 0 
L 2906 0 
L 2906 525 
Q 2725 213 2448 61 
Q 2172 -91 1784 -91 
Q 1150 -91 751 415 
Q 353 922 353 1747 
Q 353 2572 751 3078 
Q 1150 3584 1784 3584 
Q 2172 3584 2448 3432 
Q 2725 3281 2906 2969 
z
M 947 1747 
Q 947 1113 1208 752 
Q 1469 391 1925 391 
Q 2381 391 2643 752 
Q 2906 1113 2906 1747 
Q 2906 2381 2643 2742 
Q 2381 3103 1925 3103 
Q 1469 3103 1208 2742 
Q 947 2381 947 1747 
z
" transform="scale(0.015625)"/>
      <path id="DejaVuSans-69" d="M 603 3500 
L 1178 3500 
L 1178 0 
L 603 0 
L 603 3500 
z
M 603 4863 
L 1178 4863 
L 1178 4134 
L 603 4134 
L 603 4863 
z
" transform="scale(0.015625)"/>
      <path id="DejaVuSans-73" d="M 2834 3397 
L 2834 2853 
Q 2591 2978 2328 3040 
Q 2066 3103 1784 3103 
Q 1356 3103 1142 2972 
Q 928 2841 928 2578 
Q 928 2378 1081 2264 
Q 1234 2150 1697 2047 
L 1894 2003 
Q 2506 1872 2764 1633 
Q 3022 1394 3022 966 
Q 3022 478 2636 193 
Q 2250 -91 1575 -91 
Q 1294 -91 989 -36 
Q 684 19 347 128 
L 347 722 
Q 666 556 975 473 
Q 1284 391 1588 391 
Q 1994 391 2212 530 
Q 2431 669 2431 922 
Q 2431 1156 2273 1281 
Q 2116 1406 1581 1522 
L 1381 1569 
Q 847 1681 609 1914 
Q 372 2147 372 2553 
Q 372 3047 722 3315 
Q 1072 3584 1716 3584 
Q 2034 3584 2315 3537 
Q 2597 3491 2834 3397 
z
" transform="scale(0.015625)"/>
     </defs>
     <use xlink:href="#DejaVuSans-Oblique-45" transform="translate(0 0.09375)"/>
     <use xlink:href="#DejaVuSans-64" transform="translate(63.183594 -16.3125) scale(0.7)"/>
     <use xlink:href="#DejaVuSans-69" transform="translate(107.617188 -16.3125) scale(0.7)"/>
     <use xlink:href="#DejaVuSans-73" transform="translate(127.06543 -16.3125) scale(0.7)"/>
     <use xlink:href="#Calibri-2f" transform="translate(166.269531 0.09375)"/>
     <use xlink:href="#DejaVuSans-Oblique-45" transform="translate(204.892578 0.09375)"/>
     <use xlink:href="#DejaVuSans-69" transform="translate(268.076172 -16.3125) scale(0.7)"/>
    </g>
   </g>
  </g>
 </g>
 <defs>
  <clipPath id="p45746feea5">
   <rect x="57.6" y="41.472" width="285.696" height="266.112"/>
  </clipPath>
  <clipPath id="pffd53dfaff">
   <rect x="361.152" y="41.472" width="13.3056" height="266.112"/>
  </clipPath>
 </defs>
</svg>
