<?xml version="1.0" encoding="utf-8" standalone="no"?>
<!DOCTYPE svg PUBLIC "-//W3C//DTD SVG 1.1//EN"
  "http://www.w3.org/Graphics/SVG/1.1/DTD/svg11.dtd">
<svg xmlns:xlink="http://www.w3.org/1999/xlink" width="460.8pt" height="345.6pt" viewBox="0 0 460.8 345.6" xmlns="http://www.w3.org/2000/svg" version="1.1">
 <metadata>
  <rdf:RDF xmlns:dc="http://purl.org/dc/elements/1.1/" xmlns:cc="http://creativecommons.org/ns#" xmlns:rdf="http://www.w3.org/1999/02/22-rdf-syntax-ns#">
   <cc:Work>
    <dc:type rdf:resource="http://purl.org/dc/dcmitype/StillImage"/>
    <dc:date>2024-01-22T08:50:34.480032</dc:date>
    <dc:format>image/svg+xml</dc:format>
    <dc:creator>
     <cc:Agent>
      <dc:title>Matplotlib v3.7.1, https://matplotlib.org/</dc:title>
     </cc:Agent>
    </dc:creator>
   </cc:Work>
  </rdf:RDF>
 </metadata>
 <defs>
  <style type="text/css">*{stroke-linejoin: round; stroke-linecap: butt}</style>
 </defs>
 <g id="figure_1">
  <g id="patch_1">
   <path d="M 0 345.6 
L 460.8 345.6 
L 460.8 0 
L 0 0 
z
" style="fill: #ffffff"/>
  </g>
  <g id="axes_1">
   <g id="patch_2">
    <path d="M 57.6 307.584 
L 343.296 307.584 
L 343.296 41.472 
L 57.6 41.472 
z
" style="fill: #ffffff"/>
   </g>
   <g id="PathCollection_1">
    <path clip-path="url(#p8a1d215f61)" style="fill: #0000b6"/>
   </g>
   <g id="PathCollection_2">
    <path clip-path="url(#p8a1d215f61)" style="fill: #0018ff"/>
   </g>
   <g id="PathCollection_3">
    <path d="M 57.62857 49.869196 
L 57.998169 49.503249 
L 58.178381 49.325088 
L 58.403282 49.09908 
L 59.263482 48.225354 
L 59.293827 48.194803 
L 59.362215 48.1248 
L 60.282843 47.176798 
L 60.307941 47.15052 
L 60.987683 46.441142 
L 61.878593 45.499418 
L 62.312387 45.044393 
L 62.543222 44.7984 
L 63.522835 43.74124 
L 64.02893 43.188215 
L 64.350466 42.840902 
L 64.710177 42.44628 
L 65.435173 41.642041 
L 65.587449 41.472 
L 65.24713 41.472 
L 63.723418 41.472 
L 62.199706 41.472 
L 60.675994 41.472 
L 59.152282 41.472 
L 57.62857 41.472 
L 57.62857 44.7984 
L 57.62857 48.1248 
" clip-path="url(#p8a1d215f61)" style="fill: #0080ff"/>
   </g>
   <g id="PathCollection_4">
    <path d="M 65.587449 41.472 
L 65.435173 41.642041 
L 64.710177 42.44628 
L 64.350466 42.840902 
L 64.02893 43.188215 
L 63.522835 43.74124 
L 62.543222 44.7984 
L 62.312387 45.044393 
L 61.878593 45.499418 
L 60.987683 46.441142 
L 60.307941 47.15052 
L 60.282843 47.176798 
L 59.362215 48.1248 
L 59.293827 48.194803 
L 59.263482 48.225354 
L 58.403282 49.09908 
L 58.178381 49.325088 
L 57.998169 49.503249 
L 57.62857 49.869196 
L 57.62857 51.4512 
L 57.62857 54.7776 
L 57.62857 58.104 
L 57.62857 61.4304 
L 57.62857 64.7568 
L 57.62857 68.0832 
L 57.62857 71.4096 
L 57.62857 74.736 
L 57.62857 78.0624 
L 57.62857 81.3888 
L 57.62857 84.7152 
L 57.62857 88.0416 
L 57.62857 91.368 
L 57.62857 94.6944 
L 57.62857 98.0208 
L 57.62857 100.668256 
L 58.039475 100.450156 
L 58.115378 100.409564 
L 58.183068 100.37292 
L 59.82027 99.479078 
L 60.46819 99.11602 
L 60.844648 98.909685 
L 62.120211 98.194344 
L 62.247179 98.124439 
L 62.43058 98.0208 
L 63.597002 97.354534 
L 63.881343 97.188462 
L 64.661548 96.742422 
L 66.262814 95.80347 
L 66.341527 95.758121 
L 66.493355 95.66868 
L 67.304177 95.1842 
L 68.12542 94.6944 
L 68.201764 94.64851 
L 68.226819 94.63315 
L 68.641608 94.380571 
L 69.727634 93.72012 
L 70.208291 93.423605 
L 70.478299 93.253488 
L 71.823669 92.419575 
L 72.781591 91.811237 
L 72.932023 91.717609 
L 73.482024 91.368 
L 74.182998 90.917402 
L 74.773994 90.5284 
L 75.64653 89.962985 
L 76.256211 89.559726 
L 76.527816 89.38355 
L 77.081375 89.01588 
L 77.904225 88.464253 
L 78.530152 88.0416 
L 79.352219 87.481744 
L 79.642339 87.280289 
L 79.951265 87.06732 
L 81.172405 86.217506 
L 81.80889 85.764394 
L 82.160418 85.518711 
L 83.287949 84.7152 
L 83.471167 84.583108 
L 83.65387 84.448434 
L 84.841011 83.585352 
L 85.339892 83.215725 
L 85.754136 82.914235 
L 86.494801 82.36308 
L 87.129285 81.886315 
L 87.311027 81.750782 
L 87.787233 81.3888 
L 88.782281 80.625382 
L 89.055433 80.41452 
L 90.270145 79.467488 
L 90.992845 78.89191 
L 91.266902 78.677293 
L 92.038097 78.0624 
L 92.502342 77.687773 
L 93.053613 77.233552 
L 93.908373 76.537743 
L 94.594843 75.969055 
L 94.716909 75.869572 
L 94.908327 75.71028 
L 95.887985 74.886664 
L 96.066233 74.736 
L 97.057532 73.88968 
L 97.20459 73.76172 
L 97.622597 73.399275 
L 98.016455 73.052023 
L 99.091683 72.114496 
L 99.884053 71.4096 
L 100.232891 71.095407 
L 100.377182 70.963316 
L 101.250876 70.17541 
L 102.466423 69.05748 
L 102.67709 68.861657 
L 103.213982 68.358156 
L 103.33993 68.23964 
L 103.33993 68.0832 
L 103.33993 64.7568 
L 103.33993 61.4304 
L 103.33993 58.104 
L 103.33993 54.7776 
L 103.33993 51.4512 
L 103.33993 48.1248 
L 103.33993 44.7984 
L 103.33993 41.472 
L 101.816218 41.472 
L 100.292506 41.472 
L 98.768794 41.472 
L 97.245082 41.472 
L 95.72137 41.472 
L 94.197658 41.472 
L 92.673946 41.472 
L 91.150234 41.472 
L 89.626522 41.472 
L 88.10281 41.472 
L 86.579098 41.472 
L 85.055386 41.472 
L 83.531674 41.472 
L 82.007962 41.472 
L 80.48425 41.472 
L 78.960538 41.472 
L 77.436826 41.472 
L 75.913114 41.472 
L 74.389402 41.472 
L 72.86569 41.472 
L 71.341978 41.472 
L 69.818266 41.472 
L 68.294554 41.472 
L 66.770842 41.472 
" clip-path="url(#p8a1d215f61)" style="fill: #00e4f8"/>
   </g>
   <g id="PathCollection_5">
    <path d="M 103.33993 68.23964 
L 103.213982 68.358156 
L 102.67709 68.861657 
L 102.466423 69.05748 
L 101.250876 70.17541 
L 100.377182 70.963316 
L 100.232891 71.095407 
L 99.884053 71.4096 
L 99.091683 72.114496 
L 98.016455 73.052023 
L 97.622597 73.399275 
L 97.20459 73.76172 
L 97.057532 73.88968 
L 96.066233 74.736 
L 95.887985 74.886664 
L 94.908327 75.71028 
L 94.716909 75.869572 
L 94.594843 75.969055 
L 93.908373 76.537743 
L 93.053613 77.233552 
L 92.502342 77.687773 
L 92.038097 78.0624 
L 91.266902 78.677293 
L 90.992845 78.89191 
L 90.270145 79.467488 
L 89.055433 80.41452 
L 88.782281 80.625382 
L 87.787233 81.3888 
L 87.311027 81.750782 
L 87.129285 81.886315 
L 86.494801 82.36308 
L 85.754136 82.914235 
L 85.339892 83.215725 
L 84.841011 83.585352 
L 83.65387 84.448434 
L 83.471167 84.583108 
L 83.287949 84.7152 
L 82.160418 85.518711 
L 81.80889 85.764394 
L 81.172405 86.217506 
L 79.951265 87.06732 
L 79.642339 87.280289 
L 79.352219 87.481744 
L 78.530152 88.0416 
L 77.904225 88.464253 
L 77.081375 89.01588 
L 76.527816 89.38355 
L 76.256211 89.559726 
L 75.64653 89.962985 
L 74.773994 90.5284 
L 74.182998 90.917402 
L 73.482024 91.368 
L 72.932023 91.717609 
L 72.781591 91.811237 
L 71.823669 92.419575 
L 70.478299 93.253488 
L 70.208291 93.423605 
L 69.727634 93.72012 
L 68.641608 94.380571 
L 68.226819 94.63315 
L 68.201764 94.64851 
L 68.12542 94.6944 
L 67.304177 95.1842 
L 66.493355 95.66868 
L 66.341527 95.758121 
L 66.262814 95.80347 
L 64.661548 96.742422 
L 63.881343 97.188462 
L 63.597002 97.354534 
L 62.43058 98.0208 
L 62.247179 98.124439 
L 62.120211 98.194344 
L 60.844648 98.909685 
L 60.46819 99.11602 
L 59.82027 99.479078 
L 58.183068 100.37292 
L 58.115378 100.409564 
L 58.039475 100.450156 
L 57.62857 100.668256 
L 57.62857 101.3472 
L 57.62857 104.6736 
L 57.62857 108 
L 57.62857 111.3264 
L 57.62857 114.6528 
L 57.62857 117.9792 
L 57.62857 121.3056 
L 57.62857 124.632 
L 57.62857 127.9584 
L 57.62857 131.2848 
L 57.62857 134.6112 
L 57.62857 137.9376 
L 57.62857 141.264 
L 57.62857 142.200755 
L 58.013671 142.104712 
L 58.308996 142.026554 
L 59.617949 141.685087 
L 59.870943 141.61942 
L 61.20233 141.264 
L 61.971487 141.05763 
L 62.625583 140.878894 
L 63.411377 140.664757 
L 64.314483 140.42064 
L 64.790037 140.28972 
L 66.151676 139.912306 
L 66.410403 139.837271 
L 67.095138 139.646786 
L 67.575484 139.507394 
L 68.850504 139.15129 
L 69.631277 138.923113 
L 69.986367 138.823572 
L 71.083046 138.502871 
L 71.541769 138.373762 
L 72.856397 137.986575 
L 72.874037 137.981592 
L 73.023307 137.9376 
L 74.225594 137.579994 
L 74.607569 137.461321 
L 75.757383 137.11683 
L 76.088441 137.013547 
L 76.90184 136.769679 
L 78.151016 136.378459 
L 78.636869 136.23172 
L 79.325287 136.015211 
L 79.569814 135.941304 
L 80.696791 135.58548 
L 81.336635 135.381983 
L 81.767307 135.245748 
L 83.425775 134.70696 
L 83.582125 134.656821 
L 83.722056 134.6112 
L 85.816065 133.921216 
L 86.664981 133.63692 
L 87.523787 133.347142 
L 87.724918 133.276455 
L 88.435051 133.035857 
L 88.899208 132.87259 
L 90.15765 132.444301 
L 90.985946 132.150671 
L 91.294513 132.045217 
L 92.525731 131.608365 
L 92.781878 131.520427 
L 93.440752 131.2848 
L 94.149109 131.028925 
L 94.253633 130.989784 
L 95.396888 130.576427 
L 96.180911 130.28158 
L 96.998213 129.983694 
L 97.53008 129.782731 
L 98.001898 129.610599 
L 99.788319 128.93268 
L 99.829009 128.917116 
L 100.325516 128.728291 
L 101.449959 128.289595 
L 101.96331 128.09141 
L 102.301825 127.9584 
L 103.180949 127.611331 
L 103.33993 127.545513 
L 103.33993 124.632 
L 103.33993 121.3056 
L 103.33993 117.9792 
L 103.33993 114.6528 
L 103.33993 111.3264 
L 103.33993 108 
L 103.33993 104.6736 
L 103.33993 101.3472 
L 103.33993 98.0208 
L 103.33993 94.6944 
L 103.33993 91.368 
L 103.33993 88.0416 
L 103.33993 84.7152 
L 103.33993 81.3888 
L 103.33993 78.0624 
L 103.33993 74.736 
L 103.33993 71.4096 
" clip-path="url(#p8a1d215f61)" style="fill: #53ffa4"/>
   </g>
   <g id="PathCollection_6">
    <path d="M 103.33993 127.545513 
L 103.180949 127.611331 
L 102.301825 127.9584 
L 101.96331 128.09141 
L 101.449959 128.289595 
L 100.325516 128.728291 
L 99.829009 128.917116 
L 99.788319 128.93268 
L 98.001898 129.610599 
L 97.53008 129.782731 
L 96.998213 129.983694 
L 96.180911 130.28158 
L 95.396888 130.576427 
L 94.253633 130.989784 
L 94.149109 131.028925 
L 93.440752 131.2848 
L 92.781878 131.520427 
L 92.525731 131.608365 
L 91.294513 132.045217 
L 90.985946 132.150671 
L 90.15765 132.444301 
L 88.899208 132.87259 
L 88.435051 133.035857 
L 87.724918 133.276455 
L 87.523787 133.347142 
L 86.664981 133.63692 
L 85.816065 133.921216 
L 83.722056 134.6112 
L 83.582125 134.656821 
L 83.425775 134.70696 
L 81.767307 135.245748 
L 81.336635 135.381983 
L 80.696791 135.58548 
L 79.569814 135.941304 
L 79.325287 136.015211 
L 78.636869 136.23172 
L 78.151016 136.378459 
L 76.90184 136.769679 
L 76.088441 137.013547 
L 75.757383 137.11683 
L 74.607569 137.461321 
L 74.225594 137.579994 
L 73.023307 137.9376 
L 72.874037 137.981592 
L 72.856397 137.986575 
L 71.541769 138.373762 
L 71.083046 138.502871 
L 69.986367 138.823572 
L 69.631277 138.923113 
L 68.850504 139.15129 
L 67.575484 139.507394 
L 67.095138 139.646786 
L 66.410403 139.837271 
L 66.151676 139.912306 
L 64.790037 140.28972 
L 64.314483 140.42064 
L 63.411377 140.664757 
L 62.625583 140.878894 
L 61.971487 141.05763 
L 61.20233 141.264 
L 59.870943 141.61942 
L 59.617949 141.685087 
L 58.308996 142.026554 
L 58.013671 142.104712 
L 57.62857 142.200755 
L 57.62857 144.5904 
L 57.62857 147.9168 
L 57.62857 151.2432 
L 57.62857 154.5696 
L 57.62857 157.896 
L 57.62857 161.2224 
L 57.62857 164.5488 
L 57.62857 167.8752 
L 57.62857 171.2016 
L 57.62857 174.528 
L 57.62857 177.8544 
L 57.62857 178.330462 
L 57.717963 178.325544 
L 58.978203 178.234429 
L 59.316761 178.213473 
L 60.625897 178.118429 
L 60.724926 178.112295 
L 62.128168 178.010573 
L 62.267292 178.001947 
L 63.715424 177.896528 
L 63.731225 177.895548 
L 64.297331 177.8544 
L 65.216331 177.787164 
L 65.280397 177.781774 
L 66.736757 177.674762 
L 66.806034 177.668923 
L 68.163956 177.569293 
L 68.43566 177.546352 
L 69.741559 177.450121 
L 69.897475 177.436932 
L 71.109886 177.347724 
L 71.592815 177.3068 
L 72.745624 177.221603 
L 72.989686 177.200882 
L 74.054069 177.122339 
L 74.751922 177.062985 
L 75.748931 176.989085 
L 76.082693 176.960643 
L 76.996449 176.893017 
L 77.913047 176.814766 
L 78.751454 176.752437 
L 79.17652 176.716078 
L 79.936966 176.659631 
L 81.076255 176.561999 
L 81.753168 176.511524 
L 82.271195 176.467043 
L 82.875561 176.422046 
L 84.241617 176.304529 
L 84.754045 176.266202 
L 85.366747 176.213388 
L 85.812168 176.180124 
L 87.409206 176.042198 
L 87.754058 176.016325 
L 88.463205 175.954956 
L 88.746722 175.933717 
L 90.579099 175.774838 
L 90.753177 175.761736 
L 91.560601 175.691582 
L 91.679151 175.682674 
L 93.751285 175.50228 
L 93.751365 175.502273 
L 94.510385 175.436228 
L 94.740615 175.414863 
L 96.52832 175.257698 
L 97.09645 175.208058 
L 98.122513 175.112409 
L 99.300101 175.008442 
L 99.673929 174.975643 
L 101.511486 174.803558 
L 102.066524 174.754343 
L 103.288847 174.639519 
L 103.33993 174.634552 
L 103.33993 174.528 
L 103.33993 171.2016 
L 103.33993 167.8752 
L 103.33993 164.5488 
L 103.33993 161.2224 
L 103.33993 157.896 
L 103.33993 154.5696 
L 103.33993 151.2432 
L 103.33993 147.9168 
L 103.33993 144.5904 
L 103.33993 141.264 
L 103.33993 137.9376 
L 103.33993 134.6112 
L 103.33993 131.2848 
L 103.33993 127.9584 
" clip-path="url(#p8a1d215f61)" style="fill: #a4ff53"/>
   </g>
   <g id="PathCollection_7">
    <path d="M 103.33993 174.634552 
L 103.288847 174.639519 
L 102.066524 174.754343 
L 101.511486 174.803558 
L 99.673929 174.975643 
L 99.300101 175.008442 
L 98.122513 175.112409 
L 97.09645 175.208058 
L 96.52832 175.257698 
L 94.740615 175.414863 
L 94.510385 175.436228 
L 93.751365 175.502273 
L 93.751285 175.50228 
L 91.679151 175.682674 
L 91.560601 175.691582 
L 90.753177 175.761736 
L 90.579099 175.774838 
L 88.746722 175.933717 
L 88.463205 175.954956 
L 87.754058 176.016325 
L 87.409206 176.042198 
L 85.812168 176.180124 
L 85.366747 176.213388 
L 84.754045 176.266202 
L 84.241617 176.304529 
L 82.875561 176.422046 
L 82.271195 176.467043 
L 81.753168 176.511524 
L 81.076255 176.561999 
L 79.936966 176.659631 
L 79.17652 176.716078 
L 78.751454 176.752437 
L 77.913047 176.814766 
L 76.996449 176.893017 
L 76.082693 176.960643 
L 75.748931 176.989085 
L 74.751922 177.062985 
L 74.054069 177.122339 
L 72.989686 177.200882 
L 72.745624 177.221603 
L 71.592815 177.3068 
L 71.109886 177.347724 
L 69.897475 177.436932 
L 69.741559 177.450121 
L 68.43566 177.546352 
L 68.163956 177.569293 
L 66.806034 177.668923 
L 66.736757 177.674762 
L 65.280397 177.781774 
L 65.216331 177.787164 
L 64.297331 177.8544 
L 63.731225 177.895548 
L 63.715424 177.896528 
L 62.267292 178.001947 
L 62.128168 178.010573 
L 60.724926 178.112295 
L 60.625897 178.118429 
L 59.316761 178.213473 
L 58.978203 178.234429 
L 57.717963 178.325544 
L 57.62857 178.330462 
L 57.62857 181.1808 
L 57.62857 184.5072 
L 57.62857 187.8336 
L 57.62857 191.16 
L 57.62857 194.4864 
L 57.62857 197.8128 
L 57.62857 201.1392 
L 57.62857 204.4656 
L 57.62857 207.792 
L 57.62857 211.1184 
L 57.62857 211.306874 
L 57.664887 211.30981 
L 59.022131 211.402531 
L 59.292061 211.423551 
L 60.600962 211.51385 
L 60.753292 211.525796 
L 61.974318 211.610442 
L 62.442013 211.647379 
L 63.607568 211.728981 
L 63.842818 211.747692 
L 64.924028 211.82376 
L 65.594846 211.877496 
L 66.613085 211.949849 
L 66.933503 211.975699 
L 67.871183 212.042656 
L 68.75066 212.114121 
L 69.617478 212.176641 
L 70.025388 212.210025 
L 70.8157 212.26731 
L 71.90956 212.357484 
L 72.62071 212.409554 
L 73.118512 212.450889 
L 73.757495 212.497908 
L 75.071658 212.607828 
L 75.622741 212.648793 
L 76.212921 212.698519 
L 76.696478 212.734645 
L 78.237069 212.865403 
L 78.623531 212.894574 
L 79.308659 212.953153 
L 79.632556 212.977724 
L 81.405914 213.130477 
L 81.623038 213.147119 
L 82.405773 213.215044 
L 82.56563 213.227359 
L 84.578321 213.403326 
L 84.621216 213.406665 
L 85.346146 213.47052 
L 85.518517 213.485754 
L 87.450673 213.656665 
L 88.063059 213.710893 
L 88.901601 213.789279 
L 90.220474 213.907709 
L 90.63684 213.945138 
L 92.29542 214.102513 
L 92.983135 214.16521 
L 95.679087 214.423889 
L 95.700427 214.425863 
L 95.738422 214.42938 
L 95.896712 214.4448 
L 98.297022 214.678119 
L 98.489036 214.697776 
L 99.120053 214.762432 
L 100.832266 214.931422 
L 101.232117 214.972982 
L 102.552184 215.110309 
L 103.013893 215.156567 
L 103.33993 215.188806 
L 103.33993 214.4448 
L 103.33993 211.1184 
L 103.33993 207.792 
L 103.33993 204.4656 
L 103.33993 201.1392 
L 103.33993 197.8128 
L 103.33993 194.4864 
L 103.33993 191.16 
L 103.33993 187.8336 
L 103.33993 184.5072 
L 103.33993 181.1808 
L 103.33993 177.8544 
" clip-path="url(#p8a1d215f61)" style="fill: #f8f500"/>
   </g>
   <g id="PathCollection_8">
    <path d="M 103.33993 215.188806 
L 103.013893 215.156567 
L 102.552184 215.110309 
L 101.232117 214.972982 
L 100.832266 214.931422 
L 99.120053 214.762432 
L 98.489036 214.697776 
L 98.297022 214.678119 
L 95.896712 214.4448 
L 95.738422 214.42938 
L 95.700427 214.425863 
L 95.679087 214.423889 
L 92.983135 214.16521 
L 92.29542 214.102513 
L 90.63684 213.945138 
L 90.220474 213.907709 
L 88.901601 213.789279 
L 88.063059 213.710893 
L 87.450673 213.656665 
L 85.518517 213.485754 
L 85.346146 213.47052 
L 84.621216 213.406665 
L 84.578321 213.403326 
L 82.56563 213.227359 
L 82.405773 213.215044 
L 81.623038 213.147119 
L 81.405914 213.130477 
L 79.632556 212.977724 
L 79.308659 212.953153 
L 78.623531 212.894574 
L 78.237069 212.865403 
L 76.696478 212.734645 
L 76.212921 212.698519 
L 75.622741 212.648793 
L 75.071658 212.607828 
L 73.757495 212.497908 
L 73.118512 212.450889 
L 72.62071 212.409554 
L 71.90956 212.357484 
L 70.8157 212.26731 
L 70.025388 212.210025 
L 69.617478 212.176641 
L 68.75066 212.114121 
L 67.871183 212.042656 
L 66.933503 211.975699 
L 66.613085 211.949849 
L 65.594846 211.877496 
L 64.924028 211.82376 
L 63.842818 211.747692 
L 63.607568 211.728981 
L 62.442013 211.647379 
L 61.974318 211.610442 
L 60.753292 211.525796 
L 60.600962 211.51385 
L 59.292061 211.423551 
L 59.022131 211.402531 
L 57.664887 211.30981 
L 57.62857 211.306874 
L 57.62857 214.4448 
L 57.62857 217.7712 
L 57.62857 221.0976 
L 57.62857 224.424 
L 57.62857 227.7504 
L 57.62857 231.0768 
L 57.62857 234.4032 
L 57.62857 237.7296 
L 57.62857 241.056 
L 57.62857 242.792197 
L 57.92052 242.84369 
L 58.496068 242.949827 
L 59.70977 243.165352 
L 60.471935 243.306921 
L 60.866683 243.377384 
L 61.820781 243.555173 
L 62.521072 243.680829 
L 63.629791 243.888945 
L 63.810848 243.921604 
L 65.151721 244.174114 
L 65.327904 244.206062 
L 66.257399 244.3824 
L 66.753003 244.476417 
L 66.79007 244.483741 
L 68.131216 244.738981 
L 68.49059 244.810364 
L 69.693315 245.040944 
L 69.953057 245.092813 
L 70.930449 245.280804 
L 71.836866 245.462786 
L 72.631485 245.616761 
L 73.118548 245.715077 
L 73.724945 245.832967 
L 75.190067 246.130325 
L 75.567442 246.204244 
L 76.286632 246.351007 
L 76.514555 246.3958 
L 78.165278 246.73452 
L 78.449732 246.792864 
L 78.766 246.859024 
L 79.776067 247.068415 
L 80.928221 247.307332 
L 82.826311 247.7088 
L 83.397679 247.829967 
L 83.749893 247.906128 
L 84.071203 247.975629 
L 85.859858 248.359183 
L 87.34105 248.68308 
L 87.627818 248.74575 
L 87.670246 248.755397 
L 88.500743 248.937913 
L 88.685092 248.979975 
L 90.394864 249.357839 
L 90.851918 249.462946 
L 91.424407 249.590186 
L 92.081497 249.741831 
L 93.156341 249.982086 
L 94.0367 250.18688 
L 94.345446 250.25629 
L 95.486615 250.52271 
L 95.912059 250.618908 
L 97.224712 250.927843 
L 97.263766 250.936725 
L 97.680661 251.0352 
L 98.662681 251.266853 
L 98.901745 251.325445 
L 100.179773 251.629352 
L 100.416302 251.687664 
L 101.408841 251.92454 
L 102.328013 252.152495 
L 103.093013 252.336559 
L 103.33993 252.397735 
L 103.33993 251.0352 
L 103.33993 247.7088 
L 103.33993 244.3824 
L 103.33993 241.056 
L 103.33993 237.7296 
L 103.33993 234.4032 
L 103.33993 231.0768 
L 103.33993 227.7504 
L 103.33993 224.424 
L 103.33993 221.0976 
L 103.33993 217.7712 
" clip-path="url(#p8a1d215f61)" style="fill: #ff9400"/>
   </g>
   <g id="PathCollection_9">
    <path d="M 103.33993 252.397735 
L 103.093013 252.336559 
L 102.328013 252.152495 
L 101.408841 251.92454 
L 100.416302 251.687664 
L 100.179773 251.629352 
L 98.901745 251.325445 
L 98.662681 251.266853 
L 97.680661 251.0352 
L 97.263766 250.936725 
L 97.224712 250.927843 
L 95.912059 250.618908 
L 95.486615 250.52271 
L 94.345446 250.25629 
L 94.0367 250.18688 
L 93.156341 249.982086 
L 92.081497 249.741831 
L 91.424407 249.590186 
L 90.851918 249.462946 
L 90.394864 249.357839 
L 88.685092 248.979975 
L 88.500743 248.937913 
L 87.670246 248.755397 
L 87.627818 248.74575 
L 87.34105 248.68308 
L 85.859858 248.359183 
L 84.071203 247.975629 
L 83.749893 247.906128 
L 83.397679 247.829967 
L 82.826311 247.7088 
L 80.928221 247.307332 
L 79.776067 247.068415 
L 78.766 246.859024 
L 78.449732 246.792864 
L 78.165278 246.73452 
L 76.514555 246.3958 
L 76.286632 246.351007 
L 75.567442 246.204244 
L 75.190067 246.130325 
L 73.724945 245.832967 
L 73.118548 245.715077 
L 72.631485 245.616761 
L 71.836866 245.462786 
L 70.930449 245.280804 
L 69.953057 245.092813 
L 69.693315 245.040944 
L 68.49059 244.810364 
L 68.131216 244.738981 
L 66.79007 244.483741 
L 66.753003 244.476417 
L 66.257399 244.3824 
L 65.327904 244.206062 
L 65.151721 244.174114 
L 63.810848 243.921604 
L 63.629791 243.888945 
L 62.521072 243.680829 
L 61.820781 243.555173 
L 60.866683 243.377384 
L 60.471935 243.306921 
L 59.70977 243.165352 
L 58.496068 242.949827 
L 57.92052 242.84369 
L 57.62857 242.792197 
L 57.62857 244.3824 
L 57.62857 247.7088 
L 57.62857 251.0352 
L 57.62857 254.3616 
L 57.62857 257.688 
L 57.62857 261.0144 
L 57.62857 264.3408 
L 57.62857 267.6672 
L 57.62857 270.9936 
L 57.62857 274.32 
L 57.62857 274.463801 
L 57.703714 274.484047 
L 58.676693 274.750058 
L 60.046384 275.128506 
L 60.64583 275.29428 
L 61.098356 275.42036 
L 61.192243 275.447018 
L 62.978232 275.946808 
L 63.425162 276.074458 
L 63.991469 276.23365 
L 64.691938 276.434367 
L 65.675153 276.711988 
L 66.646686 276.992043 
L 66.882316 277.058881 
L 68.199994 277.439968 
L 68.367279 277.487635 
L 68.912923 277.6464 
L 69.77067 277.897251 
L 69.871564 277.927306 
L 71.054341 278.274336 
L 71.721015 278.473872 
L 72.65631 278.749926 
L 73.100407 278.883467 
L 73.736466 279.071818 
L 75.252113 279.529776 
L 75.539521 279.615399 
L 76.332376 279.8561 
L 76.413525 279.880356 
L 76.800853 279.99852 
L 78.081023 280.390275 
L 79.96346 280.9728 
L 80.351145 281.093162 
L 80.75891 281.221166 
L 82.149693 281.656271 
L 82.61357 281.80301 
L 83.06806 281.94708 
L 84.413193 282.374764 
L 84.708398 282.470419 
L 85.362708 282.679476 
L 85.9202 282.860768 
L 87.069047 283.229597 
L 87.954872 283.519502 
L 88.23368 283.609457 
L 89.501296 284.025821 
L 89.719362 284.096521 
L 90.332428 284.2992 
L 91.101772 284.554613 
L 91.20533 284.589584 
L 92.364083 284.975658 
L 93.09791 285.224752 
L 93.966768 285.51609 
L 94.460507 285.684536 
L 95.003145 285.86715 
L 96.707316 286.451609 
L 96.828877 286.492785 
L 97.288771 286.65132 
L 97.52602 286.733094 
L 97.942056 286.878009 
L 99.136632 287.292976 
L 100.083544 287.6256 
L 101.330509 288.06481 
L 102.832866 288.59988 
L 102.885102 288.61853 
L 102.898078 288.623245 
L 103.33993 288.78351 
L 103.33993 287.6256 
L 103.33993 284.2992 
L 103.33993 280.9728 
L 103.33993 277.6464 
L 103.33993 274.32 
L 103.33993 270.9936 
L 103.33993 267.6672 
L 103.33993 264.3408 
L 103.33993 261.0144 
L 103.33993 257.688 
L 103.33993 254.3616 
" clip-path="url(#p8a1d215f61)" style="fill: #ff3800"/>
   </g>
   <g id="PathCollection_10">
    <path d="M 103.33993 288.78351 
L 102.898078 288.623245 
L 102.885102 288.61853 
L 102.832866 288.59988 
L 101.330509 288.06481 
L 100.083544 287.6256 
L 99.136632 287.292976 
L 97.942056 286.878009 
L 97.52602 286.733094 
L 97.288771 286.65132 
L 96.828877 286.492785 
L 96.707316 286.451609 
L 95.003145 285.86715 
L 94.460507 285.684536 
L 93.966768 285.51609 
L 93.09791 285.224752 
L 92.364083 284.975658 
L 91.20533 284.589584 
L 91.101772 284.554613 
L 90.332428 284.2992 
L 89.719362 284.096521 
L 89.501296 284.025821 
L 88.23368 283.609457 
L 87.954872 283.519502 
L 87.069047 283.229597 
L 85.9202 282.860768 
L 85.362708 282.679476 
L 84.708398 282.470419 
L 84.413193 282.374764 
L 83.06806 281.94708 
L 82.61357 281.80301 
L 82.149693 281.656271 
L 80.75891 281.221166 
L 80.351145 281.093162 
L 79.96346 280.9728 
L 78.081023 280.390275 
L 76.800853 279.99852 
L 76.413525 279.880356 
L 76.332376 279.8561 
L 75.539521 279.615399 
L 75.252113 279.529776 
L 73.736466 279.071818 
L 73.100407 278.883467 
L 72.65631 278.749926 
L 71.721015 278.473872 
L 71.054341 278.274336 
L 69.871564 277.927306 
L 69.77067 277.897251 
L 68.912923 277.6464 
L 68.367279 277.487635 
L 68.199994 277.439968 
L 66.882316 277.058881 
L 66.646686 276.992043 
L 65.675153 276.711988 
L 64.691938 276.434367 
L 63.991469 276.23365 
L 63.425162 276.074458 
L 62.978232 275.946808 
L 61.192243 275.447018 
L 61.098356 275.42036 
L 60.64583 275.29428 
L 60.046384 275.128506 
L 58.676693 274.750058 
L 57.703714 274.484047 
L 57.62857 274.463801 
L 57.62857 277.6464 
L 57.62857 280.9728 
L 57.62857 284.2992 
L 57.62857 287.6256 
L 57.62857 290.952 
L 57.62857 294.2784 
L 57.62857 297.6048 
L 57.62857 300.9312 
L 57.62857 304.2576 
L 57.62857 307.584 
L 59.152282 307.584 
L 60.675994 307.584 
L 62.199706 307.584 
L 63.723418 307.584 
L 65.24713 307.584 
L 66.770842 307.584 
L 68.294554 307.584 
L 69.818266 307.584 
L 71.341978 307.584 
L 72.86569 307.584 
L 74.389402 307.584 
L 75.913114 307.584 
L 77.436826 307.584 
L 78.960538 307.584 
L 80.48425 307.584 
L 82.007962 307.584 
L 83.531674 307.584 
L 85.055386 307.584 
L 86.579098 307.584 
L 88.10281 307.584 
L 89.626522 307.584 
L 91.150234 307.584 
L 92.673946 307.584 
L 94.197658 307.584 
L 95.72137 307.584 
L 97.245082 307.584 
L 98.768794 307.584 
L 100.292506 307.584 
L 101.816218 307.584 
L 103.33993 307.584 
L 103.33993 304.2576 
L 103.33993 300.9312 
L 103.33993 297.6048 
L 103.33993 294.2784 
L 103.33993 290.952 
" clip-path="url(#p8a1d215f61)" style="fill: #b60000"/>
   </g>
   <g id="PathCollection_11">
    <path clip-path="url(#p8a1d215f61)" style="fill: #0000b6"/>
   </g>
   <g id="PathCollection_12">
    <path clip-path="url(#p8a1d215f61)" style="fill: #0018ff"/>
   </g>
   <g id="PathCollection_13">
    <path clip-path="url(#p8a1d215f61)" style="fill: #0080ff"/>
   </g>
   <g id="PathCollection_14">
    <path d="M 100.4544 70.853982 
L 101.246445 70.178599 
L 103.529321 68.0832 
L 106.214 65.524316 
L 109.903579 61.81088 
L 111.215798 60.42322 
L 112.388698 59.2128 
L 114.622485 56.701491 
L 114.693163 56.61472 
L 117.708674 53.159478 
L 120.084637 50.3424 
L 122.271983 47.639462 
L 125.030583 44.07008 
L 126.379813 42.216974 
L 126.919834 41.472 
L 124.73856 41.472 
L 116.64384 41.472 
L 108.54912 41.472 
L 100.4544 41.472 
L 100.4544 50.3424 
L 100.4544 59.2128 
L 100.4544 68.0832 
" clip-path="url(#p8a1d215f61)" style="fill: #00e4f8"/>
   </g>
   <g id="PathCollection_15">
    <path d="M 126.919834 41.472 
L 126.379813 42.216974 
L 125.030583 44.07008 
L 122.271983 47.639462 
L 120.084637 50.3424 
L 117.708674 53.159478 
L 114.693163 56.61472 
L 114.622485 56.701491 
L 112.388698 59.2128 
L 111.215798 60.42322 
L 109.903579 61.81088 
L 106.214 65.524316 
L 103.529321 68.0832 
L 101.246445 70.178599 
L 100.4544 70.853982 
L 100.4544 76.9536 
L 100.4544 85.824 
L 100.4544 94.6944 
L 100.4544 103.5648 
L 100.4544 112.4352 
L 100.4544 121.3056 
L 100.4544 128.652871 
L 102.583328 127.843067 
L 103.033826 127.672576 
L 103.271417 127.57792 
L 111.276346 124.294163 
L 116.396182 121.960793 
L 116.823616 121.781208 
L 117.860387 121.3056 
L 122.663451 119.031643 
L 130.325452 115.03328 
L 130.387995 114.999511 
L 135.05748 112.4352 
L 136.82418 111.416429 
L 137.597713 110.923564 
L 139.397253 109.83712 
L 144.012305 106.94466 
L 148.95812 103.5648 
L 149.009074 103.5287 
L 149.047239 103.499932 
L 153.893331 100.031739 
L 157.422435 97.29248 
L 159.366939 95.71546 
L 159.825736 95.366733 
L 160.627124 94.6944 
L 163.442311 92.245528 
L 163.59662 92.09632 
L 166.569629 89.415262 
L 170.345243 85.824 
L 171.901004 84.283405 
L 176.362499 79.55168 
L 177.132251 78.689958 
L 178.715719 76.9536 
L 180.554609 74.733827 
L 180.835209 74.35552 
L 182.838074 71.883473 
L 185.788501 68.0832 
L 187.452022 65.843006 
L 190.275883 61.81088 
L 191.408615 60.080802 
L 192.003195 59.2128 
L 192.420218 58.486944 
L 192.944525 57.64764 
L 193.631406 56.61472 
L 194.274341 55.578277 
L 197.355156 50.3424 
L 197.496016 50.091008 
L 198.121523 48.938978 
L 200.485878 44.644238 
L 200.786661 44.07008 
L 201.017067 43.591147 
L 202.129404 41.472 
L 197.59104 41.472 
L 189.49632 41.472 
L 181.4016 41.472 
L 173.30688 41.472 
L 165.21216 41.472 
L 157.11744 41.472 
L 149.02272 41.472 
L 140.928 41.472 
L 132.83328 41.472 
" clip-path="url(#p8a1d215f61)" style="fill: #53ffa4"/>
   </g>
   <g id="PathCollection_16">
    <path d="M 202.129404 41.472 
L 201.017067 43.591147 
L 200.786661 44.07008 
L 200.485878 44.644238 
L 198.121523 48.938978 
L 197.496016 50.091008 
L 197.355156 50.3424 
L 194.274341 55.578277 
L 193.631406 56.61472 
L 192.944525 57.64764 
L 192.420218 58.486944 
L 192.003195 59.2128 
L 191.408615 60.080802 
L 190.275883 61.81088 
L 187.452022 65.843006 
L 185.788501 68.0832 
L 182.838074 71.883473 
L 180.835209 74.35552 
L 180.554609 74.733827 
L 178.715719 76.9536 
L 177.132251 78.689958 
L 176.362499 79.55168 
L 171.901004 84.283405 
L 170.345243 85.824 
L 166.569629 89.415262 
L 163.59662 92.09632 
L 163.442311 92.245528 
L 160.627124 94.6944 
L 159.825736 95.366733 
L 159.366939 95.71546 
L 157.422435 97.29248 
L 153.893331 100.031739 
L 149.047239 103.499932 
L 149.009074 103.5287 
L 148.95812 103.5648 
L 144.012305 106.94466 
L 139.397253 109.83712 
L 137.597713 110.923564 
L 136.82418 111.416429 
L 135.05748 112.4352 
L 130.387995 114.999511 
L 130.325452 115.03328 
L 122.663451 119.031643 
L 117.860387 121.3056 
L 116.823616 121.781208 
L 116.396182 121.960793 
L 111.276346 124.294163 
L 103.271417 127.57792 
L 103.033826 127.672576 
L 102.583328 127.843067 
L 100.4544 128.652871 
L 100.4544 130.176 
L 100.4544 139.0464 
L 100.4544 147.9168 
L 100.4544 156.7872 
L 100.4544 165.6576 
L 100.4544 174.528 
L 100.4544 174.896921 
L 100.591318 174.890225 
L 104.511535 174.528 
L 108.228693 174.176868 
L 108.955218 174.082987 
L 116.208448 173.376146 
L 117.124813 173.255559 
L 123.052614 172.680498 
L 126.893778 172.166258 
L 131.75618 171.678472 
L 134.027651 171.368225 
L 137.708953 171.000486 
L 145.08396 169.973794 
L 147.217715 169.752757 
L 151.033001 169.209689 
L 152.158227 169.093569 
L 157.920622 168.25568 
L 161.625806 167.703973 
L 163.994182 167.364746 
L 172.906663 165.839261 
L 173.501775 165.746064 
L 173.602332 165.730946 
L 174.007193 165.6576 
L 182.990066 164.042427 
L 184.990212 163.612252 
L 187.669313 163.05952 
L 193.995271 161.717265 
L 195.92306 161.199936 
L 199.00354 160.524048 
L 203.352752 159.34377 
L 207.214377 158.462297 
L 212.971538 156.7872 
L 213.697776 156.568401 
L 213.889207 156.499557 
L 219.927639 154.653013 
L 225.860564 152.419937 
L 228.045273 151.695437 
L 231.013908 150.51488 
L 231.545936 150.317553 
L 237.033284 147.9168 
L 237.54583 147.681309 
L 242.365637 145.31872 
L 243.336498 144.823436 
L 244.165399 144.321537 
L 247.475013 142.527035 
L 253.060008 139.0464 
L 253.809762 138.559505 
L 256.720867 136.343232 
L 260.328941 133.702748 
L 261.448092 132.77408 
L 262.266763 132.165143 
L 264.505248 130.176 
L 265.783373 129.019122 
L 266.399072 128.340202 
L 267.155293 127.57792 
L 271.718368 122.702611 
L 272.842391 121.3056 
L 276.657131 116.329019 
L 277.558323 115.03328 
L 277.811708 114.62507 
L 279.390325 112.4352 
L 280.372342 110.881006 
L 280.89563 109.83712 
L 280.903951 109.823423 
L 284.403724 103.5648 
L 285.222833 102.019547 
L 287.433837 97.29248 
L 288.228607 95.418673 
L 288.546315 94.6944 
L 288.909679 93.660984 
L 289.600094 92.09632 
L 290.438234 89.993916 
L 291.912465 85.824 
L 293.228838 81.858729 
L 293.94507 79.55168 
L 294.228013 78.839067 
L 294.830714 76.9536 
L 295.323336 75.091963 
L 295.465216 74.35552 
L 296.153302 71.854763 
L 297.131853 68.0832 
L 298.321923 63.151463 
L 298.612956 61.81088 
L 298.746593 61.062832 
L 299.236303 59.2128 
L 299.408276 58.365246 
L 299.504205 57.706652 
L 299.739759 56.61472 
L 300.377705 53.021359 
L 300.942022 50.3424 
L 301.272094 48.643535 
L 302.088747 44.07008 
L 302.428856 41.650632 
L 302.463594 41.472 
L 294.72768 41.472 
L 286.63296 41.472 
L 278.53824 41.472 
L 270.44352 41.472 
L 262.3488 41.472 
L 254.25408 41.472 
L 246.15936 41.472 
L 238.06464 41.472 
L 229.96992 41.472 
L 221.8752 41.472 
L 213.78048 41.472 
L 205.68576 41.472 
" clip-path="url(#p8a1d215f61)" style="fill: #a4ff53"/>
   </g>
   <g id="PathCollection_17">
    <path d="M 302.463594 41.472 
L 302.428856 41.650632 
L 302.088747 44.07008 
L 301.272094 48.643535 
L 300.942022 50.3424 
L 300.377705 53.021359 
L 299.739759 56.61472 
L 299.504205 57.706652 
L 299.408276 58.365246 
L 299.236303 59.2128 
L 298.746593 61.062832 
L 298.612956 61.81088 
L 298.321923 63.151463 
L 297.131853 68.0832 
L 296.153302 71.854763 
L 295.465216 74.35552 
L 295.323336 75.091963 
L 294.830714 76.9536 
L 294.228013 78.839067 
L 293.94507 79.55168 
L 293.228838 81.858729 
L 291.912465 85.824 
L 290.438234 89.993916 
L 289.600094 92.09632 
L 288.909679 93.660984 
L 288.546315 94.6944 
L 288.228607 95.418673 
L 287.433837 97.29248 
L 285.222833 102.019547 
L 284.403724 103.5648 
L 280.903951 109.823423 
L 280.89563 109.83712 
L 280.372342 110.881006 
L 279.390325 112.4352 
L 277.811708 114.62507 
L 277.558323 115.03328 
L 276.657131 116.329019 
L 272.842391 121.3056 
L 271.718368 122.702611 
L 267.155293 127.57792 
L 266.399072 128.340202 
L 265.783373 129.019122 
L 264.505248 130.176 
L 262.266763 132.165143 
L 261.448092 132.77408 
L 260.328941 133.702748 
L 256.720867 136.343232 
L 253.809762 138.559505 
L 253.060008 139.0464 
L 247.475013 142.527035 
L 244.165399 144.321537 
L 243.336498 144.823436 
L 242.365637 145.31872 
L 237.54583 147.681309 
L 237.033284 147.9168 
L 231.545936 150.317553 
L 231.013908 150.51488 
L 228.045273 151.695437 
L 225.860564 152.419937 
L 219.927639 154.653013 
L 213.889207 156.499557 
L 213.697776 156.568401 
L 212.971538 156.7872 
L 207.214377 158.462297 
L 203.352752 159.34377 
L 199.00354 160.524048 
L 195.92306 161.199936 
L 193.995271 161.717265 
L 187.669313 163.05952 
L 184.990212 163.612252 
L 182.990066 164.042427 
L 174.007193 165.6576 
L 173.602332 165.730946 
L 173.501775 165.746064 
L 172.906663 165.839261 
L 163.994182 167.364746 
L 161.625806 167.703973 
L 157.920622 168.25568 
L 152.158227 169.093569 
L 151.033001 169.209689 
L 147.217715 169.752757 
L 145.08396 169.973794 
L 137.708953 171.000486 
L 134.027651 171.368225 
L 131.75618 171.678472 
L 126.893778 172.166258 
L 123.052614 172.680498 
L 117.124813 173.255559 
L 116.208448 173.376146 
L 108.955218 174.082987 
L 108.228693 174.176868 
L 104.511535 174.528 
L 100.591318 174.890225 
L 100.4544 174.896921 
L 100.4544 183.3984 
L 100.4544 192.2688 
L 100.4544 201.1392 
L 100.4544 210.0096 
L 100.4544 214.874226 
L 102.376626 215.094956 
L 103.803558 215.209907 
L 113.367657 216.28192 
L 114.095225 216.362591 
L 115.119675 216.492118 
L 121.047868 217.204774 
L 126.88024 217.907879 
L 128.072643 218.052316 
L 133.950397 218.88 
L 139.286425 219.62512 
L 144.318196 220.41883 
L 151.023064 221.47808 
L 151.372129 221.534904 
L 151.461685 221.55268 
L 161.250852 223.220903 
L 163.695691 223.738496 
L 166.536656 224.246371 
L 170.99591 225.217981 
L 174.941417 225.959232 
L 181.285053 227.442068 
L 181.501922 227.484993 
L 182.602251 227.7504 
L 188.275517 229.088186 
L 191.577026 230.03049 
L 196.277279 231.226029 
L 199.242877 232.120428 
L 201.222502 232.641352 
L 205.542831 234.02272 
L 209.010669 235.111605 
L 210.225294 235.493864 
L 213.353033 236.6208 
L 216.928526 237.848808 
L 218.12962 238.32094 
L 220.407672 239.21888 
L 225.723579 241.274048 
L 228.930834 242.742238 
L 230.727859 243.486028 
L 234.926649 245.4912 
L 237.130488 246.514868 
L 240.854212 248.548084 
L 244.326373 250.340471 
L 246.735826 251.76352 
L 248.654293 252.971457 
L 251.004178 254.3616 
L 252.391777 255.20691 
L 254.976953 256.95968 
L 258.09394 259.024184 
L 261.866419 261.955834 
L 262.623257 262.50591 
L 263.504026 263.232 
L 267.518515 266.437295 
L 270.779541 269.50432 
L 272.565966 271.139009 
L 272.936785 271.483449 
L 273.492261 272.1024 
L 275.979996 274.615438 
L 276.067122 274.70048 
L 276.120839 274.75145 
L 276.234446 274.877981 
L 279.519965 278.37559 
L 281.684425 280.9728 
L 284.08961 283.759867 
L 286.618458 287.24512 
L 288.078953 289.186856 
L 288.497366 289.8432 
L 289.315671 291.060898 
L 290.287538 292.44128 
L 291.208074 293.700074 
L 294.275738 298.7136 
L 294.559184 299.159365 
L 295.581303 300.971907 
L 297.585703 304.452106 
L 297.835623 304.98592 
L 298.048609 305.417149 
L 299.19746 307.584 
L 302.8224 307.584 
L 310.91712 307.584 
L 319.01184 307.584 
L 327.10656 307.584 
L 335.20128 307.584 
L 343.296 307.584 
L 343.296 298.7136 
L 343.296 289.8432 
L 343.296 280.9728 
L 343.296 272.1024 
L 343.296 263.232 
L 343.296 254.3616 
L 343.296 245.4912 
L 343.296 236.6208 
L 343.296 227.7504 
L 343.296 218.88 
L 343.296 210.0096 
L 343.296 201.1392 
L 343.296 192.2688 
L 343.296 183.3984 
L 343.296 174.528 
L 343.296 165.6576 
L 343.296 156.7872 
L 343.296 147.9168 
L 343.296 139.0464 
L 343.296 130.176 
L 343.296 121.3056 
L 343.296 112.4352 
L 343.296 103.5648 
L 343.296 94.6944 
L 343.296 85.824 
L 343.296 76.9536 
L 343.296 68.0832 
L 343.296 59.2128 
L 343.296 50.3424 
L 343.296 41.472 
L 335.20128 41.472 
L 327.10656 41.472 
L 319.01184 41.472 
L 310.91712 41.472 
L 302.8224 41.472 
" clip-path="url(#p8a1d215f61)" style="fill: #f8f500"/>
   </g>
   <g id="PathCollection_18">
    <path d="M 299.19746 307.584 
L 298.048609 305.417149 
L 297.835623 304.98592 
L 297.585703 304.452106 
L 295.581303 300.971907 
L 294.559184 299.159365 
L 294.275738 298.7136 
L 291.208074 293.700074 
L 290.287538 292.44128 
L 289.315671 291.060898 
L 288.497366 289.8432 
L 288.078953 289.186856 
L 286.618458 287.24512 
L 284.08961 283.759867 
L 281.684425 280.9728 
L 279.519965 278.37559 
L 276.234446 274.877981 
L 276.120839 274.75145 
L 276.067122 274.70048 
L 275.979996 274.615438 
L 273.492261 272.1024 
L 272.936785 271.483449 
L 272.565966 271.139009 
L 270.779541 269.50432 
L 267.518515 266.437295 
L 263.504026 263.232 
L 262.623257 262.50591 
L 261.866419 261.955834 
L 258.09394 259.024184 
L 254.976953 256.95968 
L 252.391777 255.20691 
L 251.004178 254.3616 
L 248.654293 252.971457 
L 246.735826 251.76352 
L 244.326373 250.340471 
L 240.854212 248.548084 
L 237.130488 246.514868 
L 234.926649 245.4912 
L 230.727859 243.486028 
L 228.930834 242.742238 
L 225.723579 241.274048 
L 220.407672 239.21888 
L 218.12962 238.32094 
L 216.928526 237.848808 
L 213.353033 236.6208 
L 210.225294 235.493864 
L 209.010669 235.111605 
L 205.542831 234.02272 
L 201.222502 232.641352 
L 199.242877 232.120428 
L 196.277279 231.226029 
L 191.577026 230.03049 
L 188.275517 229.088186 
L 182.602251 227.7504 
L 181.501922 227.484993 
L 181.285053 227.442068 
L 174.941417 225.959232 
L 170.99591 225.217981 
L 166.536656 224.246371 
L 163.695691 223.738496 
L 161.250852 223.220903 
L 151.461685 221.55268 
L 151.372129 221.534904 
L 151.023064 221.47808 
L 144.318196 220.41883 
L 139.286425 219.62512 
L 133.950397 218.88 
L 128.072643 218.052316 
L 126.88024 217.907879 
L 121.047868 217.204774 
L 115.119675 216.492118 
L 114.095225 216.362591 
L 113.367657 216.28192 
L 103.803558 215.209907 
L 102.376626 215.094956 
L 100.4544 214.874226 
L 100.4544 218.88 
L 100.4544 227.7504 
L 100.4544 236.6208 
L 100.4544 245.4912 
L 100.4544 251.69089 
L 102.448115 252.176837 
L 105.350165 252.909576 
L 109.484911 253.936839 
L 109.871605 254.033294 
L 111.08993 254.3616 
L 119.669751 256.662361 
L 120.711008 256.95968 
L 128.455575 259.1588 
L 131.677439 260.174157 
L 133.757945 260.785745 
L 140.754269 263.041622 
L 141.026151 263.124443 
L 141.342971 263.232 
L 148.15676 265.522946 
L 150.167057 266.259408 
L 153.353525 267.356594 
L 158.984655 269.50432 
L 161.089245 270.299575 
L 165.564957 272.1024 
L 168.536694 273.286595 
L 169.64751 273.763409 
L 171.80428 274.70048 
L 176.995323 276.93091 
L 180.499994 278.587551 
L 182.041417 279.280127 
L 185.515153 280.9728 
L 188.282425 282.303018 
L 192.967842 284.776982 
L 195.636197 286.144448 
L 197.620864 287.24512 
L 199.432335 288.290792 
L 202.206583 289.8432 
L 203.761857 290.716471 
L 206.608544 292.44128 
L 209.719011 294.293861 
L 212.895842 296.373241 
L 214.324748 297.273707 
L 216.440313 298.7136 
L 219.816462 300.969618 
L 225.272047 304.98592 
L 226.171913 305.633697 
L 228.688574 307.584 
L 229.96992 307.584 
L 238.06464 307.584 
L 246.15936 307.584 
L 254.25408 307.584 
L 262.3488 307.584 
L 270.44352 307.584 
L 278.53824 307.584 
L 286.63296 307.584 
L 294.72768 307.584 
" clip-path="url(#p8a1d215f61)" style="fill: #ff9400"/>
   </g>
   <g id="PathCollection_19">
    <path d="M 228.688574 307.584 
L 226.171913 305.633697 
L 225.272047 304.98592 
L 219.816462 300.969618 
L 216.440313 298.7136 
L 214.324748 297.273707 
L 212.895842 296.373241 
L 209.719011 294.293861 
L 206.608544 292.44128 
L 203.761857 290.716471 
L 202.206583 289.8432 
L 199.432335 288.290792 
L 197.620864 287.24512 
L 195.636197 286.144448 
L 192.967842 284.776982 
L 188.282425 282.303018 
L 185.515153 280.9728 
L 182.041417 279.280127 
L 180.499994 278.587551 
L 176.995323 276.93091 
L 171.80428 274.70048 
L 169.64751 273.763409 
L 168.536694 273.286595 
L 165.564957 272.1024 
L 161.089245 270.299575 
L 158.984655 269.50432 
L 153.353525 267.356594 
L 150.167057 266.259408 
L 148.15676 265.522946 
L 141.342971 263.232 
L 141.026151 263.124443 
L 140.754269 263.041622 
L 133.757945 260.785745 
L 131.677439 260.174157 
L 128.455575 259.1588 
L 120.711008 256.95968 
L 119.669751 256.662361 
L 111.08993 254.3616 
L 109.871605 254.033294 
L 109.484911 253.936839 
L 105.350165 252.909576 
L 102.448115 252.176837 
L 100.4544 251.69089 
L 100.4544 254.3616 
L 100.4544 263.232 
L 100.4544 272.1024 
L 100.4544 280.9728 
L 100.4544 287.766495 
L 101.895522 288.263982 
L 106.263958 289.8432 
L 107.534847 290.303584 
L 113.217826 292.44128 
L 114.002674 292.737457 
L 114.452627 292.916623 
L 118.273874 294.401252 
L 122.300818 296.04226 
L 125.873335 297.470085 
L 128.804937 298.7136 
L 132.274069 300.193025 
L 133.619521 300.793646 
L 137.488552 302.482635 
L 142.899553 304.98592 
L 144.76081 305.844266 
L 148.379483 307.584 
L 149.02272 307.584 
L 157.11744 307.584 
L 165.21216 307.584 
L 173.30688 307.584 
L 181.4016 307.584 
L 189.49632 307.584 
L 197.59104 307.584 
L 205.68576 307.584 
L 213.78048 307.584 
L 221.8752 307.584 
" clip-path="url(#p8a1d215f61)" style="fill: #ff3800"/>
   </g>
   <g id="PathCollection_20">
    <path d="M 148.379483 307.584 
L 144.76081 305.844266 
L 142.899553 304.98592 
L 137.488552 302.482635 
L 133.619521 300.793646 
L 132.274069 300.193025 
L 128.804937 298.7136 
L 125.873335 297.470085 
L 122.300818 296.04226 
L 118.273874 294.401252 
L 114.452627 292.916623 
L 114.002674 292.737457 
L 113.217826 292.44128 
L 107.534847 290.303584 
L 106.263958 289.8432 
L 101.895522 288.263982 
L 100.4544 287.766495 
L 100.4544 289.8432 
L 100.4544 298.7136 
L 100.4544 307.584 
L 108.54912 307.584 
L 116.64384 307.584 
L 124.73856 307.584 
L 132.83328 307.584 
L 140.928 307.584 
" clip-path="url(#p8a1d215f61)" style="fill: #b60000"/>
   </g>
   <g id="matplotlib.axis_1">
    <g id="xtick_1">
     <g id="line2d_1">
      <defs>
       <path id="ma2c7fd12fc" d="M 0 0 
L 0 3.5 
" style="stroke: #000000; stroke-width: 0.8"/>
      </defs>
      <g>
       <use xlink:href="#ma2c7fd12fc" x="57.6" y="307.584" style="stroke: #000000; stroke-width: 0.8"/>
      </g>
     </g>
     <g id="text_1">
      <!-- 0.0 -->
      <g transform="translate(51.26875 321.385562) scale(0.1 -0.1)">
       <defs>
        <path id="Calibri-30" d="M 3022 2031 
Q 3022 1566 2948 1181 
Q 2875 797 2704 520 
Q 2534 244 2259 92 
Q 1984 -59 1581 -59 
Q 1200 -59 939 77 
Q 678 213 518 477 
Q 359 741 292 1127 
Q 225 1513 225 2013 
Q 225 2475 300 2861 
Q 375 3247 544 3523 
Q 713 3800 988 3951 
Q 1263 4103 1663 4103 
Q 2047 4103 2308 3967 
Q 2569 3831 2728 3567 
Q 2888 3303 2955 2917 
Q 3022 2531 3022 2031 
z
M 2472 1994 
Q 2472 2297 2450 2537 
Q 2428 2778 2386 2962 
Q 2344 3147 2276 3280 
Q 2209 3413 2115 3498 
Q 2022 3584 1901 3623 
Q 1781 3663 1631 3663 
Q 1366 3663 1200 3538 
Q 1034 3413 939 3194 
Q 844 2975 809 2681 
Q 775 2388 775 2050 
Q 775 1597 822 1280 
Q 869 963 970 763 
Q 1072 563 1230 472 
Q 1388 381 1613 381 
Q 1788 381 1920 437 
Q 2053 494 2148 598 
Q 2244 703 2306 850 
Q 2369 997 2406 1175 
Q 2444 1353 2458 1561 
Q 2472 1769 2472 1994 
z
" transform="scale(0.015625)"/>
        <path id="Calibri-2e" d="M 1144 341 
Q 1144 119 1070 45 
Q 997 -28 803 -28 
Q 616 -28 544 44 
Q 472 116 472 331 
Q 472 553 545 626 
Q 619 700 813 700 
Q 1000 700 1072 628 
Q 1144 556 1144 341 
z
" transform="scale(0.015625)"/>
       </defs>
       <use xlink:href="#Calibri-30"/>
       <use xlink:href="#Calibri-2e" x="50.683594"/>
       <use xlink:href="#Calibri-30" x="75.927734"/>
      </g>
     </g>
    </g>
    <g id="xtick_2">
     <g id="line2d_2">
      <g>
       <use xlink:href="#ma2c7fd12fc" x="86.1696" y="307.584" style="stroke: #000000; stroke-width: 0.8"/>
      </g>
     </g>
     <g id="text_2">
      <!-- 0.1 -->
      <g transform="translate(79.83835 321.385562) scale(0.1 -0.1)">
       <defs>
        <path id="Calibri-31" d="M 2897 213 
Q 2897 153 2887 112 
Q 2878 72 2862 47 
Q 2847 22 2826 11 
Q 2806 0 2784 0 
L 672 0 
Q 650 0 631 11 
Q 613 22 595 47 
Q 578 72 568 112 
Q 559 153 559 213 
Q 559 269 568 309 
Q 578 350 592 376 
Q 606 403 626 417 
Q 647 431 672 431 
L 1516 431 
L 1516 3506 
L 734 3041 
Q 675 3009 639 3003 
Q 603 2997 581 3017 
Q 559 3038 551 3084 
Q 544 3131 544 3203 
Q 544 3256 548 3293 
Q 553 3331 562 3356 
Q 572 3381 589 3400 
Q 606 3419 634 3438 
L 1566 4034 
Q 1578 4044 1597 4050 
Q 1616 4056 1644 4062 
Q 1672 4069 1709 4070 
Q 1747 4072 1803 4072 
Q 1878 4072 1928 4065 
Q 1978 4059 2006 4048 
Q 2034 4038 2043 4020 
Q 2053 4003 2053 3984 
L 2053 431 
L 2784 431 
Q 2809 431 2831 417 
Q 2853 403 2867 376 
Q 2881 350 2889 309 
Q 2897 269 2897 213 
z
" transform="scale(0.015625)"/>
       </defs>
       <use xlink:href="#Calibri-30"/>
       <use xlink:href="#Calibri-2e" x="50.683594"/>
       <use xlink:href="#Calibri-31" x="75.927734"/>
      </g>
     </g>
    </g>
    <g id="xtick_3">
     <g id="line2d_3">
      <g>
       <use xlink:href="#ma2c7fd12fc" x="114.7392" y="307.584" style="stroke: #000000; stroke-width: 0.8"/>
      </g>
     </g>
     <g id="text_3">
      <!-- 0.2 -->
      <g transform="translate(108.40795 321.385562) scale(0.1 -0.1)">
       <defs>
        <path id="Calibri-32" d="M 2888 231 
Q 2888 175 2880 131 
Q 2872 88 2858 58 
Q 2844 28 2820 14 
Q 2797 0 2769 0 
L 534 0 
Q 491 0 458 11 
Q 425 22 401 47 
Q 378 72 367 119 
Q 356 166 356 234 
Q 356 297 361 344 
Q 366 391 381 427 
Q 397 463 420 498 
Q 444 534 481 575 
L 1266 1406 
Q 1538 1694 1702 1922 
Q 1866 2150 1955 2337 
Q 2044 2525 2072 2678 
Q 2100 2831 2100 2966 
Q 2100 3100 2056 3220 
Q 2013 3341 1930 3431 
Q 1847 3522 1722 3575 
Q 1597 3628 1434 3628 
Q 1244 3628 1092 3575 
Q 941 3522 827 3459 
Q 713 3397 636 3344 
Q 559 3291 522 3291 
Q 500 3291 483 3303 
Q 466 3316 455 3344 
Q 444 3372 437 3419 
Q 431 3466 431 3531 
Q 431 3578 434 3612 
Q 438 3647 445 3672 
Q 453 3697 465 3719 
Q 478 3741 515 3773 
Q 553 3806 645 3862 
Q 738 3919 877 3973 
Q 1016 4028 1183 4065 
Q 1350 4103 1534 4103 
Q 1828 4103 2048 4020 
Q 2269 3938 2414 3794 
Q 2559 3650 2631 3459 
Q 2703 3269 2703 3053 
Q 2703 2859 2668 2667 
Q 2634 2475 2523 2251 
Q 2413 2028 2203 1754 
Q 1994 1481 1647 1125 
L 1006 456 
L 2766 456 
Q 2791 456 2814 442 
Q 2838 428 2855 400 
Q 2872 372 2880 330 
Q 2888 288 2888 231 
z
" transform="scale(0.015625)"/>
       </defs>
       <use xlink:href="#Calibri-30"/>
       <use xlink:href="#Calibri-2e" x="50.683594"/>
       <use xlink:href="#Calibri-32" x="75.927734"/>
      </g>
     </g>
    </g>
    <g id="xtick_4">
     <g id="line2d_4">
      <g>
       <use xlink:href="#ma2c7fd12fc" x="143.3088" y="307.584" style="stroke: #000000; stroke-width: 0.8"/>
      </g>
     </g>
     <g id="text_4">
      <!-- 0.3 -->
      <g transform="translate(136.97755 321.385562) scale(0.1 -0.1)">
       <defs>
        <path id="Calibri-33" d="M 2856 1156 
Q 2856 878 2759 654 
Q 2663 431 2481 272 
Q 2300 113 2034 27 
Q 1769 -59 1434 -59 
Q 1231 -59 1054 -26 
Q 878 6 740 51 
Q 603 97 512 145 
Q 422 194 398 216 
Q 375 238 362 259 
Q 350 281 340 312 
Q 331 344 326 389 
Q 322 434 322 500 
Q 322 613 344 656 
Q 366 700 406 700 
Q 434 700 517 650 
Q 600 600 729 542 
Q 859 484 1032 434 
Q 1206 384 1419 384 
Q 1625 384 1781 437 
Q 1938 491 2044 587 
Q 2150 684 2203 817 
Q 2256 950 2256 1106 
Q 2256 1278 2189 1415 
Q 2122 1553 1992 1653 
Q 1863 1753 1673 1806 
Q 1484 1859 1244 1859 
L 859 1859 
Q 834 1859 811 1870 
Q 788 1881 770 1906 
Q 753 1931 742 1972 
Q 731 2013 731 2078 
Q 731 2138 740 2177 
Q 750 2216 767 2239 
Q 784 2263 806 2273 
Q 828 2284 856 2284 
L 1209 2284 
Q 1416 2284 1580 2337 
Q 1744 2391 1858 2491 
Q 1972 2591 2033 2730 
Q 2094 2869 2094 3041 
Q 2094 3166 2053 3280 
Q 2013 3394 1931 3478 
Q 1850 3563 1723 3611 
Q 1597 3659 1431 3659 
Q 1250 3659 1098 3604 
Q 947 3550 828 3487 
Q 709 3425 631 3370 
Q 553 3316 522 3316 
Q 500 3316 483 3323 
Q 466 3331 455 3354 
Q 444 3378 439 3420 
Q 434 3463 434 3531 
Q 434 3578 437 3614 
Q 441 3650 450 3676 
Q 459 3703 471 3725 
Q 484 3747 514 3776 
Q 544 3806 634 3862 
Q 725 3919 858 3973 
Q 991 4028 1164 4065 
Q 1338 4103 1538 4103 
Q 1819 4103 2031 4031 
Q 2244 3959 2386 3828 
Q 2528 3697 2598 3514 
Q 2669 3331 2669 3109 
Q 2669 2919 2619 2755 
Q 2569 2591 2472 2464 
Q 2375 2338 2234 2248 
Q 2094 2159 1909 2125 
L 1909 2119 
Q 2119 2097 2292 2014 
Q 2466 1931 2591 1806 
Q 2716 1681 2786 1514 
Q 2856 1347 2856 1156 
z
" transform="scale(0.015625)"/>
       </defs>
       <use xlink:href="#Calibri-30"/>
       <use xlink:href="#Calibri-2e" x="50.683594"/>
       <use xlink:href="#Calibri-33" x="75.927734"/>
      </g>
     </g>
    </g>
    <g id="xtick_5">
     <g id="line2d_5">
      <g>
       <use xlink:href="#ma2c7fd12fc" x="171.8784" y="307.584" style="stroke: #000000; stroke-width: 0.8"/>
      </g>
     </g>
     <g id="text_5">
      <!-- 0.4 -->
      <g transform="translate(165.54715 321.385562) scale(0.1 -0.1)">
       <defs>
        <path id="Calibri-34" d="M 3059 1150 
Q 3059 1047 3028 987 
Q 2997 928 2941 928 
L 2484 928 
L 2484 78 
Q 2484 53 2471 36 
Q 2459 19 2428 6 
Q 2397 -6 2347 -12 
Q 2297 -19 2219 -19 
Q 2144 -19 2094 -12 
Q 2044 -6 2014 6 
Q 1984 19 1973 36 
Q 1963 53 1963 78 
L 1963 928 
L 294 928 
Q 256 928 231 937 
Q 206 947 186 972 
Q 166 997 158 1044 
Q 150 1091 150 1166 
Q 150 1225 153 1272 
Q 156 1319 165 1358 
Q 175 1397 190 1433 
Q 206 1469 228 1509 
L 1684 3966 
Q 1700 3991 1729 4009 
Q 1759 4028 1806 4040 
Q 1853 4053 1922 4058 
Q 1991 4063 2084 4063 
Q 2188 4063 2264 4055 
Q 2341 4047 2387 4034 
Q 2434 4022 2459 4001 
Q 2484 3981 2484 3953 
L 2484 1372 
L 2941 1372 
Q 2994 1372 3026 1317 
Q 3059 1263 3059 1150 
z
M 1963 3591 
L 1956 3591 
L 641 1372 
L 1963 1372 
L 1963 3591 
z
" transform="scale(0.015625)"/>
       </defs>
       <use xlink:href="#Calibri-30"/>
       <use xlink:href="#Calibri-2e" x="50.683594"/>
       <use xlink:href="#Calibri-34" x="75.927734"/>
      </g>
     </g>
    </g>
    <g id="xtick_6">
     <g id="line2d_6">
      <g>
       <use xlink:href="#ma2c7fd12fc" x="200.448" y="307.584" style="stroke: #000000; stroke-width: 0.8"/>
      </g>
     </g>
     <g id="text_6">
      <!-- 0.5 -->
      <g transform="translate(194.11675 321.385562) scale(0.1 -0.1)">
       <defs>
        <path id="Calibri-35" d="M 2869 1300 
Q 2869 975 2759 722 
Q 2650 469 2450 295 
Q 2250 122 1973 31 
Q 1697 -59 1359 -59 
Q 1172 -59 1003 -32 
Q 834 -6 703 33 
Q 572 72 487 109 
Q 403 147 379 169 
Q 356 191 347 209 
Q 338 228 330 254 
Q 322 281 319 322 
Q 316 363 316 419 
Q 316 472 320 514 
Q 325 556 337 582 
Q 350 609 367 621 
Q 384 634 406 634 
Q 438 634 503 595 
Q 569 556 680 511 
Q 791 466 955 425 
Q 1119 384 1344 384 
Q 1553 384 1728 434 
Q 1903 484 2029 590 
Q 2156 697 2228 858 
Q 2300 1019 2300 1250 
Q 2300 1444 2239 1592 
Q 2178 1741 2051 1839 
Q 1925 1938 1731 1986 
Q 1538 2034 1269 2034 
Q 1078 2034 940 2015 
Q 803 1997 684 1997 
Q 597 1997 559 2037 
Q 522 2078 522 2194 
L 522 3841 
Q 522 3944 570 3994 
Q 619 4044 709 4044 
L 2500 4044 
Q 2525 4044 2548 4030 
Q 2572 4016 2587 3987 
Q 2603 3959 2611 3915 
Q 2619 3872 2619 3813 
Q 2619 3700 2587 3637 
Q 2556 3575 2500 3575 
L 991 3575 
L 991 2441 
Q 1100 2456 1214 2459 
Q 1328 2463 1478 2463 
Q 1825 2463 2084 2380 
Q 2344 2297 2517 2145 
Q 2691 1994 2780 1778 
Q 2869 1563 2869 1300 
z
" transform="scale(0.015625)"/>
       </defs>
       <use xlink:href="#Calibri-30"/>
       <use xlink:href="#Calibri-2e" x="50.683594"/>
       <use xlink:href="#Calibri-35" x="75.927734"/>
      </g>
     </g>
    </g>
    <g id="xtick_7">
     <g id="line2d_7">
      <g>
       <use xlink:href="#ma2c7fd12fc" x="229.0176" y="307.584" style="stroke: #000000; stroke-width: 0.8"/>
      </g>
     </g>
     <g id="text_7">
      <!-- 0.6 -->
      <g transform="translate(222.68635 321.385562) scale(0.1 -0.1)">
       <defs>
        <path id="Calibri-36" d="M 2991 1309 
Q 2991 1044 2909 795 
Q 2828 547 2659 358 
Q 2491 169 2231 55 
Q 1972 -59 1619 -59 
Q 1366 -59 1172 3 
Q 978 66 834 181 
Q 691 297 595 465 
Q 500 634 442 850 
Q 384 1066 359 1322 
Q 334 1578 334 1872 
Q 334 2131 362 2397 
Q 391 2663 462 2909 
Q 534 3156 657 3373 
Q 781 3591 967 3752 
Q 1153 3913 1412 4006 
Q 1672 4100 2016 4100 
Q 2131 4100 2250 4086 
Q 2369 4072 2469 4048 
Q 2569 4025 2637 3997 
Q 2706 3969 2728 3951 
Q 2750 3934 2761 3914 
Q 2772 3894 2778 3870 
Q 2784 3847 2787 3817 
Q 2791 3788 2791 3744 
Q 2791 3688 2789 3647 
Q 2788 3606 2777 3581 
Q 2766 3556 2748 3543 
Q 2731 3531 2703 3531 
Q 2669 3531 2609 3553 
Q 2550 3575 2465 3601 
Q 2381 3628 2261 3650 
Q 2141 3672 1981 3672 
Q 1691 3672 1481 3553 
Q 1272 3434 1139 3234 
Q 1006 3034 942 2770 
Q 878 2506 869 2219 
Q 950 2266 1051 2312 
Q 1153 2359 1273 2396 
Q 1394 2434 1528 2457 
Q 1663 2481 1816 2481 
Q 2144 2481 2369 2392 
Q 2594 2303 2733 2145 
Q 2872 1988 2931 1773 
Q 2991 1559 2991 1309 
z
M 2447 1259 
Q 2447 1441 2411 1589 
Q 2375 1738 2290 1841 
Q 2206 1944 2065 2000 
Q 1925 2056 1719 2056 
Q 1603 2056 1487 2036 
Q 1372 2016 1264 1980 
Q 1156 1944 1057 1895 
Q 959 1847 878 1791 
Q 878 1388 929 1116 
Q 981 844 1079 680 
Q 1178 516 1325 445 
Q 1472 375 1669 375 
Q 1869 375 2016 450 
Q 2163 525 2259 651 
Q 2356 778 2401 936 
Q 2447 1094 2447 1259 
z
" transform="scale(0.015625)"/>
       </defs>
       <use xlink:href="#Calibri-30"/>
       <use xlink:href="#Calibri-2e" x="50.683594"/>
       <use xlink:href="#Calibri-36" x="75.927734"/>
      </g>
     </g>
    </g>
    <g id="xtick_8">
     <g id="line2d_8">
      <g>
       <use xlink:href="#ma2c7fd12fc" x="257.5872" y="307.584" style="stroke: #000000; stroke-width: 0.8"/>
      </g>
     </g>
     <g id="text_8">
      <!-- 0.7 -->
      <g transform="translate(251.25595 321.385562) scale(0.1 -0.1)">
       <defs>
        <path id="Calibri-37" d="M 2947 3813 
Q 2947 3756 2942 3711 
Q 2938 3666 2930 3623 
Q 2922 3581 2908 3542 
Q 2894 3503 2875 3459 
L 1419 103 
Q 1403 66 1379 42 
Q 1356 19 1320 5 
Q 1284 -9 1228 -14 
Q 1172 -19 1091 -19 
Q 984 -19 925 -9 
Q 866 0 839 20 
Q 813 41 816 70 
Q 819 100 838 141 
L 2369 3572 
L 428 3572 
Q 369 3572 339 3634 
Q 309 3697 309 3809 
Q 309 3869 317 3912 
Q 325 3956 340 3986 
Q 356 4016 378 4030 
Q 400 4044 428 4044 
L 2784 4044 
Q 2828 4044 2861 4034 
Q 2894 4025 2911 3997 
Q 2928 3969 2937 3925 
Q 2947 3881 2947 3813 
z
" transform="scale(0.015625)"/>
       </defs>
       <use xlink:href="#Calibri-30"/>
       <use xlink:href="#Calibri-2e" x="50.683594"/>
       <use xlink:href="#Calibri-37" x="75.927734"/>
      </g>
     </g>
    </g>
    <g id="xtick_9">
     <g id="line2d_9">
      <g>
       <use xlink:href="#ma2c7fd12fc" x="286.1568" y="307.584" style="stroke: #000000; stroke-width: 0.8"/>
      </g>
     </g>
     <g id="text_9">
      <!-- 0.8 -->
      <g transform="translate(279.82555 321.385562) scale(0.1 -0.1)">
       <defs>
        <path id="Calibri-38" d="M 2981 1038 
Q 2981 775 2887 570 
Q 2794 366 2617 225 
Q 2441 84 2181 12 
Q 1922 -59 1588 -59 
Q 1275 -59 1028 6 
Q 781 72 609 200 
Q 438 328 347 515 
Q 256 703 256 944 
Q 256 1134 318 1293 
Q 381 1453 498 1587 
Q 616 1722 787 1839 
Q 959 1956 1175 2063 
Q 988 2159 844 2267 
Q 700 2375 600 2501 
Q 500 2628 448 2772 
Q 397 2916 397 3084 
Q 397 3297 473 3483 
Q 550 3669 704 3806 
Q 859 3944 1098 4023 
Q 1338 4103 1656 4103 
Q 1963 4103 2186 4029 
Q 2409 3956 2554 3829 
Q 2700 3703 2769 3531 
Q 2838 3359 2838 3163 
Q 2838 3003 2786 2856 
Q 2734 2709 2634 2578 
Q 2534 2447 2389 2333 
Q 2244 2219 2056 2119 
Q 2278 2009 2451 1893 
Q 2625 1778 2742 1645 
Q 2859 1513 2920 1364 
Q 2981 1216 2981 1038 
z
M 2306 3113 
Q 2306 3244 2261 3350 
Q 2216 3456 2128 3531 
Q 2041 3606 1911 3645 
Q 1781 3684 1616 3684 
Q 1278 3684 1104 3531 
Q 931 3378 931 3113 
Q 931 2991 973 2886 
Q 1016 2781 1105 2687 
Q 1194 2594 1330 2505 
Q 1466 2416 1653 2319 
Q 1969 2481 2137 2678 
Q 2306 2875 2306 3113 
z
M 2438 981 
Q 2438 1125 2384 1242 
Q 2331 1359 2223 1461 
Q 2116 1563 1955 1658 
Q 1794 1753 1581 1856 
Q 1384 1759 1236 1662 
Q 1088 1566 992 1462 
Q 897 1359 848 1245 
Q 800 1131 800 994 
Q 800 691 1008 525 
Q 1216 359 1628 359 
Q 2028 359 2233 526 
Q 2438 694 2438 981 
z
" transform="scale(0.015625)"/>
       </defs>
       <use xlink:href="#Calibri-30"/>
       <use xlink:href="#Calibri-2e" x="50.683594"/>
       <use xlink:href="#Calibri-38" x="75.927734"/>
      </g>
     </g>
    </g>
    <g id="xtick_10">
     <g id="line2d_10">
      <g>
       <use xlink:href="#ma2c7fd12fc" x="314.7264" y="307.584" style="stroke: #000000; stroke-width: 0.8"/>
      </g>
     </g>
     <g id="text_10">
      <!-- 0.9 -->
      <g transform="translate(308.39515 321.385562) scale(0.1 -0.1)">
       <defs>
        <path id="Calibri-39" d="M 2919 2181 
Q 2919 1919 2887 1650 
Q 2856 1381 2781 1132 
Q 2706 884 2579 667 
Q 2453 450 2261 287 
Q 2069 125 1805 33 
Q 1541 -59 1191 -59 
Q 1056 -59 929 -42 
Q 803 -25 701 0 
Q 600 25 531 53 
Q 463 81 431 109 
Q 400 138 386 186 
Q 372 234 372 316 
Q 372 384 376 425 
Q 381 466 390 487 
Q 400 509 417 517 
Q 434 525 459 525 
Q 494 525 556 501 
Q 619 478 714 450 
Q 809 422 937 398 
Q 1066 375 1225 375 
Q 1528 375 1745 492 
Q 1963 609 2100 806 
Q 2238 1003 2306 1262 
Q 2375 1522 2381 1809 
Q 2216 1713 1984 1638 
Q 1753 1563 1453 1563 
Q 1116 1563 886 1655 
Q 656 1747 517 1906 
Q 378 2066 317 2284 
Q 256 2503 256 2763 
Q 256 3031 334 3273 
Q 413 3516 578 3700 
Q 744 3884 1000 3993 
Q 1256 4103 1613 4103 
Q 1866 4103 2061 4039 
Q 2256 3975 2400 3854 
Q 2544 3734 2644 3564 
Q 2744 3394 2805 3178 
Q 2866 2963 2892 2711 
Q 2919 2459 2919 2181 
z
M 2372 2241 
Q 2372 2641 2319 2914 
Q 2266 3188 2162 3356 
Q 2059 3525 1909 3600 
Q 1759 3675 1563 3675 
Q 1359 3675 1215 3601 
Q 1072 3528 980 3404 
Q 888 3281 844 3125 
Q 800 2969 800 2803 
Q 800 2619 839 2466 
Q 878 2313 965 2206 
Q 1053 2100 1193 2042 
Q 1334 1984 1541 1984 
Q 1775 1984 1994 2054 
Q 2213 2125 2372 2241 
z
" transform="scale(0.015625)"/>
       </defs>
       <use xlink:href="#Calibri-30"/>
       <use xlink:href="#Calibri-2e" x="50.683594"/>
       <use xlink:href="#Calibri-39" x="75.927734"/>
      </g>
     </g>
    </g>
    <g id="xtick_11">
     <g id="line2d_11">
      <g>
       <use xlink:href="#ma2c7fd12fc" x="343.296" y="307.584" style="stroke: #000000; stroke-width: 0.8"/>
      </g>
     </g>
     <g id="text_11">
      <!-- 1.0 -->
      <g transform="translate(336.96475 321.385562) scale(0.1 -0.1)">
       <use xlink:href="#Calibri-31"/>
       <use xlink:href="#Calibri-2e" x="50.683594"/>
       <use xlink:href="#Calibri-30" x="75.927734"/>
      </g>
     </g>
    </g>
    <g id="text_12">
     <!-- $\mathit{p}$ (cm$^2$/cm$^2$) -->
     <g transform="translate(174.148 336.263687) scale(0.1 -0.1)">
      <defs>
       <path id="DejaVuSans-Oblique-70" d="M 3175 2156 
Q 3175 2616 2975 2859 
Q 2775 3103 2400 3103 
Q 2144 3103 1911 2972 
Q 1678 2841 1497 2591 
Q 1319 2344 1212 1994 
Q 1106 1644 1106 1300 
Q 1106 863 1306 627 
Q 1506 391 1875 391 
Q 2147 391 2380 519 
Q 2613 647 2778 891 
Q 2956 1147 3065 1494 
Q 3175 1841 3175 2156 
z
M 1394 2969 
Q 1625 3272 1939 3428 
Q 2253 3584 2638 3584 
Q 3175 3584 3472 3232 
Q 3769 2881 3769 2247 
Q 3769 1728 3584 1258 
Q 3400 788 3053 416 
Q 2822 169 2531 39 
Q 2241 -91 1919 -91 
Q 1547 -91 1294 64 
Q 1041 219 916 525 
L 556 -1331 
L -19 -1331 
L 922 3500 
L 1497 3500 
L 1394 2969 
z
" transform="scale(0.015625)"/>
       <path id="Calibri-20" transform="scale(0.015625)"/>
       <path id="Calibri-28" d="M 1547 4306 
Q 1250 3678 1104 3017 
Q 959 2356 959 1688 
Q 959 1016 1107 356 
Q 1256 -303 1541 -938 
Q 1556 -975 1557 -1001 
Q 1559 -1028 1537 -1045 
Q 1516 -1063 1470 -1070 
Q 1425 -1078 1347 -1078 
Q 1291 -1078 1250 -1075 
Q 1209 -1072 1179 -1062 
Q 1150 -1053 1131 -1040 
Q 1113 -1028 1103 -1013 
Q 934 -694 806 -367 
Q 678 -41 590 296 
Q 503 634 459 979 
Q 416 1325 416 1678 
Q 416 2031 464 2375 
Q 513 2719 602 3058 
Q 691 3397 819 3725 
Q 947 4053 1106 4375 
Q 1109 4388 1123 4397 
Q 1138 4406 1163 4415 
Q 1188 4425 1231 4429 
Q 1275 4434 1344 4434 
Q 1416 4434 1459 4425 
Q 1503 4416 1528 4400 
Q 1553 4384 1556 4359 
Q 1559 4334 1547 4306 
z
" transform="scale(0.015625)"/>
       <path id="Calibri-63" d="M 2500 506 
Q 2500 453 2497 414 
Q 2494 375 2486 348 
Q 2478 322 2467 301 
Q 2456 281 2417 242 
Q 2378 203 2284 145 
Q 2191 88 2073 42 
Q 1956 -3 1818 -31 
Q 1681 -59 1534 -59 
Q 1231 -59 997 41 
Q 763 141 605 333 
Q 447 525 364 804 
Q 281 1084 281 1450 
Q 281 1866 382 2164 
Q 484 2463 661 2653 
Q 838 2844 1077 2936 
Q 1316 3028 1594 3028 
Q 1728 3028 1854 3003 
Q 1981 2978 2087 2937 
Q 2194 2897 2276 2844 
Q 2359 2791 2396 2753 
Q 2434 2716 2448 2694 
Q 2463 2672 2472 2642 
Q 2481 2613 2484 2575 
Q 2488 2538 2488 2481 
Q 2488 2359 2459 2311 
Q 2431 2263 2391 2263 
Q 2344 2263 2283 2314 
Q 2222 2366 2128 2428 
Q 2034 2491 1901 2542 
Q 1769 2594 1588 2594 
Q 1216 2594 1017 2308 
Q 819 2022 819 1478 
Q 819 1206 870 1001 
Q 922 797 1022 659 
Q 1122 522 1267 455 
Q 1413 388 1600 388 
Q 1778 388 1912 444 
Q 2047 500 2145 567 
Q 2244 634 2311 689 
Q 2378 744 2416 744 
Q 2438 744 2453 731 
Q 2469 719 2480 689 
Q 2491 659 2495 614 
Q 2500 569 2500 506 
z
" transform="scale(0.015625)"/>
       <path id="Calibri-6d" d="M 4650 78 
Q 4650 53 4637 36 
Q 4625 19 4597 6 
Q 4569 -6 4519 -12 
Q 4469 -19 4394 -19 
Q 4316 -19 4266 -12 
Q 4216 -6 4186 6 
Q 4156 19 4143 36 
Q 4131 53 4131 78 
L 4131 1788 
Q 4131 1966 4100 2112 
Q 4069 2259 4000 2365 
Q 3931 2472 3825 2528 
Q 3719 2584 3575 2584 
Q 3397 2584 3217 2446 
Q 3038 2309 2822 2044 
L 2822 78 
Q 2822 53 2809 36 
Q 2797 19 2767 6 
Q 2738 -6 2688 -12 
Q 2638 -19 2563 -19 
Q 2491 -19 2439 -12 
Q 2388 -6 2358 6 
Q 2328 19 2317 36 
Q 2306 53 2306 78 
L 2306 1788 
Q 2306 1966 2272 2112 
Q 2238 2259 2169 2365 
Q 2100 2472 1995 2528 
Q 1891 2584 1747 2584 
Q 1569 2584 1387 2446 
Q 1206 2309 994 2044 
L 994 78 
Q 994 53 981 36 
Q 969 19 941 6 
Q 913 -6 863 -12 
Q 813 -19 734 -19 
Q 659 -19 609 -12 
Q 559 -6 529 6 
Q 500 19 489 36 
Q 478 53 478 78 
L 478 2891 
Q 478 2916 487 2933 
Q 497 2950 525 2964 
Q 553 2978 597 2983 
Q 641 2988 713 2988 
Q 781 2988 826 2983 
Q 872 2978 897 2964 
Q 922 2950 933 2933 
Q 944 2916 944 2891 
L 944 2519 
Q 1181 2784 1404 2907 
Q 1628 3031 1856 3031 
Q 2031 3031 2170 2990 
Q 2309 2950 2415 2876 
Q 2522 2803 2597 2701 
Q 2672 2600 2722 2475 
Q 2863 2628 2989 2734 
Q 3116 2841 3233 2906 
Q 3350 2972 3461 3001 
Q 3572 3031 3684 3031 
Q 3956 3031 4140 2936 
Q 4325 2841 4439 2681 
Q 4553 2522 4601 2308 
Q 4650 2094 4650 1856 
L 4650 78 
z
" transform="scale(0.015625)"/>
       <path id="DejaVuSans-32" d="M 1228 531 
L 3431 531 
L 3431 0 
L 469 0 
L 469 531 
Q 828 903 1448 1529 
Q 2069 2156 2228 2338 
Q 2531 2678 2651 2914 
Q 2772 3150 2772 3378 
Q 2772 3750 2511 3984 
Q 2250 4219 1831 4219 
Q 1534 4219 1204 4116 
Q 875 4013 500 3803 
L 500 4441 
Q 881 4594 1212 4672 
Q 1544 4750 1819 4750 
Q 2544 4750 2975 4387 
Q 3406 4025 3406 3419 
Q 3406 3131 3298 2873 
Q 3191 2616 2906 2266 
Q 2828 2175 2409 1742 
Q 1991 1309 1228 531 
z
" transform="scale(0.015625)"/>
       <path id="Calibri-2f" d="M 525 -753 
Q 513 -794 492 -817 
Q 472 -841 440 -853 
Q 409 -866 364 -872 
Q 319 -878 253 -878 
Q 175 -878 123 -867 
Q 72 -856 44 -836 
Q 16 -816 9 -786 
Q 3 -756 22 -716 
L 1913 4469 
Q 1925 4509 1945 4532 
Q 1966 4556 1995 4570 
Q 2025 4584 2072 4589 
Q 2119 4594 2184 4594 
Q 2263 4594 2313 4583 
Q 2363 4572 2391 4553 
Q 2419 4534 2425 4503 
Q 2431 4472 2416 4431 
L 525 -753 
z
" transform="scale(0.015625)"/>
       <path id="Calibri-29" d="M 1522 1678 
Q 1522 1325 1478 979 
Q 1434 634 1346 296 
Q 1259 -41 1132 -367 
Q 1006 -694 838 -1013 
Q 828 -1028 809 -1040 
Q 791 -1053 761 -1062 
Q 731 -1072 690 -1075 
Q 650 -1078 594 -1078 
Q 513 -1078 467 -1070 
Q 422 -1063 401 -1045 
Q 381 -1028 382 -1001 
Q 384 -975 400 -938 
Q 688 -306 834 355 
Q 981 1016 981 1688 
Q 981 2356 834 3017 
Q 688 3678 394 4306 
Q 381 4334 384 4359 
Q 388 4384 413 4400 
Q 438 4416 481 4425 
Q 525 4434 597 4434 
Q 663 4434 706 4429 
Q 750 4425 776 4415 
Q 803 4406 815 4397 
Q 828 4388 834 4375 
Q 1156 3734 1339 3057 
Q 1522 2381 1522 1678 
z
" transform="scale(0.015625)"/>
      </defs>
      <use xlink:href="#DejaVuSans-Oblique-70" transform="translate(0 0.765625)"/>
      <use xlink:href="#Calibri-20" transform="translate(63.476562 0.765625)"/>
      <use xlink:href="#Calibri-28" transform="translate(84.958984 0.765625)"/>
      <use xlink:href="#Calibri-63" transform="translate(115.28125 0.765625)"/>
      <use xlink:href="#Calibri-6d" transform="translate(157.566406 0.765625)"/>
      <use xlink:href="#DejaVuSans-32" transform="translate(238.40625 39.046875) scale(0.7)"/>
      <use xlink:href="#Calibri-2f" transform="translate(285.676758 0.765625)"/>
      <use xlink:href="#Calibri-63" transform="translate(324.299805 0.765625)"/>
      <use xlink:href="#Calibri-6d" transform="translate(366.584961 0.765625)"/>
      <use xlink:href="#DejaVuSans-32" transform="translate(447.424805 39.046875) scale(0.7)"/>
      <use xlink:href="#Calibri-29" transform="translate(494.695312 0.765625)"/>
     </g>
    </g>
   </g>
   <g id="matplotlib.axis_2">
    <g id="ytick_1">
     <g id="line2d_12">
      <defs>
       <path id="m9f57c86610" d="M 0 0 
L -3.5 0 
" style="stroke: #000000; stroke-width: 0.8"/>
      </defs>
      <g>
       <use xlink:href="#m9f57c86610" x="57.6" y="275.65056" style="stroke: #000000; stroke-width: 0.8"/>
      </g>
     </g>
     <g id="text_13">
      <!-- 25 -->
      <g transform="translate(40.4625 279.051341) scale(0.1 -0.1)">
       <use xlink:href="#Calibri-32"/>
       <use xlink:href="#Calibri-35" x="50.683594"/>
      </g>
     </g>
    </g>
    <g id="ytick_2">
     <g id="line2d_13">
      <g>
       <use xlink:href="#m9f57c86610" x="57.6" y="242.38656" style="stroke: #000000; stroke-width: 0.8"/>
      </g>
     </g>
     <g id="text_14">
      <!-- 50 -->
      <g transform="translate(40.4625 245.787341) scale(0.1 -0.1)">
       <use xlink:href="#Calibri-35"/>
       <use xlink:href="#Calibri-30" x="50.683594"/>
      </g>
     </g>
    </g>
    <g id="ytick_3">
     <g id="line2d_14">
      <g>
       <use xlink:href="#m9f57c86610" x="57.6" y="209.12256" style="stroke: #000000; stroke-width: 0.8"/>
      </g>
     </g>
     <g id="text_15">
      <!-- 75 -->
      <g transform="translate(40.4625 212.523341) scale(0.1 -0.1)">
       <use xlink:href="#Calibri-37"/>
       <use xlink:href="#Calibri-35" x="50.683594"/>
      </g>
     </g>
    </g>
    <g id="ytick_4">
     <g id="line2d_15">
      <g>
       <use xlink:href="#m9f57c86610" x="57.6" y="175.85856" style="stroke: #000000; stroke-width: 0.8"/>
      </g>
     </g>
     <g id="text_16">
      <!-- 100 -->
      <g transform="translate(35.39375 179.259341) scale(0.1 -0.1)">
       <use xlink:href="#Calibri-31"/>
       <use xlink:href="#Calibri-30" x="50.683594"/>
       <use xlink:href="#Calibri-30" x="101.367188"/>
      </g>
     </g>
    </g>
    <g id="ytick_5">
     <g id="line2d_16">
      <g>
       <use xlink:href="#m9f57c86610" x="57.6" y="142.59456" style="stroke: #000000; stroke-width: 0.8"/>
      </g>
     </g>
     <g id="text_17">
      <!-- 125 -->
      <g transform="translate(35.39375 145.995341) scale(0.1 -0.1)">
       <use xlink:href="#Calibri-31"/>
       <use xlink:href="#Calibri-32" x="50.683594"/>
       <use xlink:href="#Calibri-35" x="101.367188"/>
      </g>
     </g>
    </g>
    <g id="ytick_6">
     <g id="line2d_17">
      <g>
       <use xlink:href="#m9f57c86610" x="57.6" y="109.33056" style="stroke: #000000; stroke-width: 0.8"/>
      </g>
     </g>
     <g id="text_18">
      <!-- 150 -->
      <g transform="translate(35.39375 112.731341) scale(0.1 -0.1)">
       <use xlink:href="#Calibri-31"/>
       <use xlink:href="#Calibri-35" x="50.683594"/>
       <use xlink:href="#Calibri-30" x="101.367188"/>
      </g>
     </g>
    </g>
    <g id="ytick_7">
     <g id="line2d_18">
      <g>
       <use xlink:href="#m9f57c86610" x="57.6" y="76.06656" style="stroke: #000000; stroke-width: 0.8"/>
      </g>
     </g>
     <g id="text_19">
      <!-- 175 -->
      <g transform="translate(35.39375 79.467341) scale(0.1 -0.1)">
       <use xlink:href="#Calibri-31"/>
       <use xlink:href="#Calibri-37" x="50.683594"/>
       <use xlink:href="#Calibri-35" x="101.367188"/>
      </g>
     </g>
    </g>
    <g id="ytick_8">
     <g id="line2d_19">
      <g>
       <use xlink:href="#m9f57c86610" x="57.6" y="42.80256" style="stroke: #000000; stroke-width: 0.8"/>
      </g>
     </g>
     <g id="text_20">
      <!-- 200 -->
      <g transform="translate(35.39375 46.203341) scale(0.1 -0.1)">
       <use xlink:href="#Calibri-32"/>
       <use xlink:href="#Calibri-30" x="50.683594"/>
       <use xlink:href="#Calibri-30" x="101.367188"/>
      </g>
     </g>
    </g>
    <g id="text_21">
     <!-- $\mathit{Z}$$_{a}$ (nm) -->
     <g transform="translate(29.59375 191.028) rotate(-90) scale(0.1 -0.1)">
      <defs>
       <path id="DejaVuSans-Oblique-5a" d="M 838 4666 
L 4500 4666 
L 4409 4184 
L 794 531 
L 3769 531 
L 3669 0 
L -141 0 
L -50 481 
L 3566 4134 
L 738 4134 
L 838 4666 
z
" transform="scale(0.015625)"/>
       <path id="DejaVuSans-Oblique-61" d="M 3438 1997 
L 3047 0 
L 2472 0 
L 2578 531 
Q 2325 219 2001 64 
Q 1678 -91 1281 -91 
Q 834 -91 548 182 
Q 263 456 263 884 
Q 263 1497 752 1853 
Q 1241 2209 2100 2209 
L 2900 2209 
L 2931 2363 
Q 2938 2388 2941 2417 
Q 2944 2447 2944 2509 
Q 2944 2788 2717 2942 
Q 2491 3097 2081 3097 
Q 1800 3097 1504 3025 
Q 1209 2953 897 2809 
L 997 3341 
Q 1322 3463 1633 3523 
Q 1944 3584 2234 3584 
Q 2853 3584 3176 3315 
Q 3500 3047 3500 2534 
Q 3500 2431 3484 2292 
Q 3469 2153 3438 1997 
z
M 2816 1759 
L 2241 1759 
Q 1534 1759 1195 1570 
Q 856 1381 856 984 
Q 856 709 1029 553 
Q 1203 397 1509 397 
Q 1978 397 2328 733 
Q 2678 1069 2791 1631 
L 2816 1759 
z
" transform="scale(0.015625)"/>
       <path id="Calibri-6e" d="M 2900 78 
Q 2900 53 2887 36 
Q 2875 19 2847 6 
Q 2819 -6 2769 -12 
Q 2719 -19 2644 -19 
Q 2566 -19 2516 -12 
Q 2466 -6 2437 6 
Q 2409 19 2396 36 
Q 2384 53 2384 78 
L 2384 1725 
Q 2384 1966 2346 2112 
Q 2309 2259 2237 2365 
Q 2166 2472 2052 2528 
Q 1938 2584 1788 2584 
Q 1594 2584 1400 2446 
Q 1206 2309 994 2044 
L 994 78 
Q 994 53 981 36 
Q 969 19 941 6 
Q 913 -6 863 -12 
Q 813 -19 734 -19 
Q 659 -19 609 -12 
Q 559 -6 529 6 
Q 500 19 489 36 
Q 478 53 478 78 
L 478 2891 
Q 478 2916 487 2933 
Q 497 2950 525 2964 
Q 553 2978 597 2983 
Q 641 2988 713 2988 
Q 781 2988 826 2983 
Q 872 2978 897 2964 
Q 922 2950 933 2933 
Q 944 2916 944 2891 
L 944 2519 
Q 1181 2784 1417 2907 
Q 1653 3031 1894 3031 
Q 2175 3031 2367 2936 
Q 2559 2841 2678 2681 
Q 2797 2522 2848 2308 
Q 2900 2094 2900 1794 
L 2900 78 
z
" transform="scale(0.015625)"/>
      </defs>
      <use xlink:href="#DejaVuSans-Oblique-5a" transform="translate(0 0.09375)"/>
      <use xlink:href="#DejaVuSans-Oblique-61" transform="translate(69.462891 -16.3125) scale(0.7)"/>
      <use xlink:href="#Calibri-20" transform="translate(115.092773 0.09375)"/>
      <use xlink:href="#Calibri-28" transform="translate(136.575195 0.09375)"/>
      <use xlink:href="#Calibri-6e" transform="translate(166.897461 0.09375)"/>
      <use xlink:href="#Calibri-6d" transform="translate(219.436523 0.09375)"/>
      <use xlink:href="#Calibri-29" transform="translate(299.319336 0.09375)"/>
     </g>
    </g>
   </g>
   <g id="patch_3">
    <path d="M 57.6 307.584 
L 57.6 41.472 
" style="fill: none; stroke: #000000; stroke-width: 0.8; stroke-linejoin: miter; stroke-linecap: square"/>
   </g>
   <g id="patch_4">
    <path d="M 343.296 307.584 
L 343.296 41.472 
" style="fill: none; stroke: #000000; stroke-width: 0.8; stroke-linejoin: miter; stroke-linecap: square"/>
   </g>
   <g id="patch_5">
    <path d="M 57.6 307.584 
L 343.296 307.584 
" style="fill: none; stroke: #000000; stroke-width: 0.8; stroke-linejoin: miter; stroke-linecap: square"/>
   </g>
   <g id="patch_6">
    <path d="M 57.6 41.472 
L 343.296 41.472 
" style="fill: none; stroke: #000000; stroke-width: 0.8; stroke-linejoin: miter; stroke-linecap: square"/>
   </g>
   <g id="text_22">
    <!-- $\lambda$ = 750 nm -->
    <g transform="translate(177.348 35.472) scale(0.1 -0.1)">
     <defs>
      <path id="DejaVuSans-Oblique-3bb" d="M 2350 4316 
L 3125 0 
L 2516 0 
L 2038 2588 
L 328 0 
L -281 0 
L 1903 3356 
L 1794 3975 
Q 1725 4369 1391 4369 
L 1091 4369 
L 1184 4863 
L 1550 4856 
Q 2253 4847 2350 4316 
z
" transform="scale(0.015625)"/>
      <path id="Calibri-3d" d="M 2891 2409 
Q 2891 2284 2855 2236 
Q 2819 2188 2772 2188 
L 409 2188 
Q 363 2188 328 2236 
Q 294 2284 294 2409 
Q 294 2522 325 2575 
Q 356 2628 409 2628 
L 2772 2628 
Q 2828 2628 2859 2575 
Q 2891 2522 2891 2409 
z
M 2891 1194 
Q 2891 1069 2855 1022 
Q 2819 975 2772 975 
L 409 975 
Q 363 975 328 1022 
Q 294 1069 294 1194 
Q 294 1309 325 1362 
Q 356 1416 409 1416 
L 2772 1416 
Q 2828 1416 2859 1362 
Q 2891 1309 2891 1194 
z
" transform="scale(0.015625)"/>
     </defs>
     <use xlink:href="#DejaVuSans-Oblique-3bb" transform="translate(0 0.015625)"/>
     <use xlink:href="#Calibri-20" transform="translate(59.179688 0.015625)"/>
     <use xlink:href="#Calibri-3d" transform="translate(81.787109 0.015625)"/>
     <use xlink:href="#Calibri-20" transform="translate(131.591797 0.015625)"/>
     <use xlink:href="#Calibri-37" transform="translate(154.199219 0.015625)"/>
     <use xlink:href="#Calibri-35" transform="translate(204.882812 0.015625)"/>
     <use xlink:href="#Calibri-30" transform="translate(255.566406 0.015625)"/>
     <use xlink:href="#Calibri-20" transform="translate(306.25 0.015625)"/>
     <use xlink:href="#Calibri-6e" transform="translate(328.857422 0.015625)"/>
     <use xlink:href="#Calibri-6d" transform="translate(381.396484 0.015625)"/>
    </g>
   </g>
  </g>
  <g id="axes_2">
   <g id="patch_7">
    <path d="M 361.152 307.584 
L 374.4576 307.584 
L 374.4576 41.472 
L 361.152 41.472 
z
" style="fill: #ffffff"/>
   </g>
   <g id="QuadMesh_1">
    <path d="M 361.152 307.584 
L 374.4576 307.584 
L 374.4576 280.9728 
L 361.152 280.9728 
L 361.152 307.584 
" clip-path="url(#p5e4d49a192)" style="fill: #0000b6"/>
    <path d="M 361.152 280.9728 
L 374.4576 280.9728 
L 374.4576 254.3616 
L 361.152 254.3616 
L 361.152 280.9728 
" clip-path="url(#p5e4d49a192)" style="fill: #0018ff"/>
    <path d="M 361.152 254.3616 
L 374.4576 254.3616 
L 374.4576 227.7504 
L 361.152 227.7504 
L 361.152 254.3616 
" clip-path="url(#p5e4d49a192)" style="fill: #0080ff"/>
    <path d="M 361.152 227.7504 
L 374.4576 227.7504 
L 374.4576 201.1392 
L 361.152 201.1392 
L 361.152 227.7504 
" clip-path="url(#p5e4d49a192)" style="fill: #00e4f8"/>
    <path d="M 361.152 201.1392 
L 374.4576 201.1392 
L 374.4576 174.528 
L 361.152 174.528 
L 361.152 201.1392 
" clip-path="url(#p5e4d49a192)" style="fill: #53ffa4"/>
    <path d="M 361.152 174.528 
L 374.4576 174.528 
L 374.4576 147.9168 
L 361.152 147.9168 
L 361.152 174.528 
" clip-path="url(#p5e4d49a192)" style="fill: #a4ff53"/>
    <path d="M 361.152 147.9168 
L 374.4576 147.9168 
L 374.4576 121.3056 
L 361.152 121.3056 
L 361.152 147.9168 
" clip-path="url(#p5e4d49a192)" style="fill: #f8f500"/>
    <path d="M 361.152 121.3056 
L 374.4576 121.3056 
L 374.4576 94.6944 
L 361.152 94.6944 
L 361.152 121.3056 
" clip-path="url(#p5e4d49a192)" style="fill: #ff9400"/>
    <path d="M 361.152 94.6944 
L 374.4576 94.6944 
L 374.4576 68.0832 
L 361.152 68.0832 
L 361.152 94.6944 
" clip-path="url(#p5e4d49a192)" style="fill: #ff3800"/>
    <path d="M 361.152 68.0832 
L 374.4576 68.0832 
L 374.4576 41.472 
L 361.152 41.472 
L 361.152 68.0832 
" clip-path="url(#p5e4d49a192)" style="fill: #b60000"/>
   </g>
   <g id="matplotlib.axis_3"/>
   <g id="matplotlib.axis_4">
    <g id="ytick_9">
     <g id="line2d_20">
      <defs>
       <path id="ma5453cc9e8" d="M 0 0 
L 3.5 0 
" style="stroke: #000000; stroke-width: 0.8"/>
      </defs>
      <g>
       <use xlink:href="#ma5453cc9e8" x="374.4576" y="307.584" style="stroke: #000000; stroke-width: 0.8"/>
      </g>
     </g>
     <g id="text_23">
      <!-- 0 -->
      <g transform="translate(381.4576 310.984781) scale(0.1 -0.1)">
       <use xlink:href="#Calibri-30"/>
      </g>
     </g>
    </g>
    <g id="ytick_10">
     <g id="line2d_21">
      <g>
       <use xlink:href="#ma5453cc9e8" x="374.4576" y="280.9728" style="stroke: #000000; stroke-width: 0.8"/>
      </g>
     </g>
     <g id="text_24">
      <!-- 0.1 -->
      <g transform="translate(381.4576 284.373581) scale(0.1 -0.1)">
       <use xlink:href="#Calibri-30"/>
       <use xlink:href="#Calibri-2e" x="50.683594"/>
       <use xlink:href="#Calibri-31" x="75.927734"/>
      </g>
     </g>
    </g>
    <g id="ytick_11">
     <g id="line2d_22">
      <g>
       <use xlink:href="#ma5453cc9e8" x="374.4576" y="254.3616" style="stroke: #000000; stroke-width: 0.8"/>
      </g>
     </g>
     <g id="text_25">
      <!-- 0.2 -->
      <g transform="translate(381.4576 257.762381) scale(0.1 -0.1)">
       <use xlink:href="#Calibri-30"/>
       <use xlink:href="#Calibri-2e" x="50.683594"/>
       <use xlink:href="#Calibri-32" x="75.927734"/>
      </g>
     </g>
    </g>
    <g id="ytick_12">
     <g id="line2d_23">
      <g>
       <use xlink:href="#ma5453cc9e8" x="374.4576" y="227.7504" style="stroke: #000000; stroke-width: 0.8"/>
      </g>
     </g>
     <g id="text_26">
      <!-- 0.3 -->
      <g transform="translate(381.4576 231.151181) scale(0.1 -0.1)">
       <use xlink:href="#Calibri-30"/>
       <use xlink:href="#Calibri-2e" x="50.683594"/>
       <use xlink:href="#Calibri-33" x="75.927734"/>
      </g>
     </g>
    </g>
    <g id="ytick_13">
     <g id="line2d_24">
      <g>
       <use xlink:href="#ma5453cc9e8" x="374.4576" y="201.1392" style="stroke: #000000; stroke-width: 0.8"/>
      </g>
     </g>
     <g id="text_27">
      <!-- 0.4 -->
      <g transform="translate(381.4576 204.539981) scale(0.1 -0.1)">
       <use xlink:href="#Calibri-30"/>
       <use xlink:href="#Calibri-2e" x="50.683594"/>
       <use xlink:href="#Calibri-34" x="75.927734"/>
      </g>
     </g>
    </g>
    <g id="ytick_14">
     <g id="line2d_25">
      <g>
       <use xlink:href="#ma5453cc9e8" x="374.4576" y="174.528" style="stroke: #000000; stroke-width: 0.8"/>
      </g>
     </g>
     <g id="text_28">
      <!-- 0.5 -->
      <g transform="translate(381.4576 177.928781) scale(0.1 -0.1)">
       <use xlink:href="#Calibri-30"/>
       <use xlink:href="#Calibri-2e" x="50.683594"/>
       <use xlink:href="#Calibri-35" x="75.927734"/>
      </g>
     </g>
    </g>
    <g id="ytick_15">
     <g id="line2d_26">
      <g>
       <use xlink:href="#ma5453cc9e8" x="374.4576" y="147.9168" style="stroke: #000000; stroke-width: 0.8"/>
      </g>
     </g>
     <g id="text_29">
      <!-- 0.6 -->
      <g transform="translate(381.4576 151.317581) scale(0.1 -0.1)">
       <use xlink:href="#Calibri-30"/>
       <use xlink:href="#Calibri-2e" x="50.683594"/>
       <use xlink:href="#Calibri-36" x="75.927734"/>
      </g>
     </g>
    </g>
    <g id="ytick_16">
     <g id="line2d_27">
      <g>
       <use xlink:href="#ma5453cc9e8" x="374.4576" y="121.3056" style="stroke: #000000; stroke-width: 0.8"/>
      </g>
     </g>
     <g id="text_30">
      <!-- 0.7 -->
      <g transform="translate(381.4576 124.706381) scale(0.1 -0.1)">
       <use xlink:href="#Calibri-30"/>
       <use xlink:href="#Calibri-2e" x="50.683594"/>
       <use xlink:href="#Calibri-37" x="75.927734"/>
      </g>
     </g>
    </g>
    <g id="ytick_17">
     <g id="line2d_28">
      <g>
       <use xlink:href="#ma5453cc9e8" x="374.4576" y="94.6944" style="stroke: #000000; stroke-width: 0.8"/>
      </g>
     </g>
     <g id="text_31">
      <!-- 0.8 -->
      <g transform="translate(381.4576 98.095181) scale(0.1 -0.1)">
       <use xlink:href="#Calibri-30"/>
       <use xlink:href="#Calibri-2e" x="50.683594"/>
       <use xlink:href="#Calibri-38" x="75.927734"/>
      </g>
     </g>
    </g>
    <g id="ytick_18">
     <g id="line2d_29">
      <g>
       <use xlink:href="#ma5453cc9e8" x="374.4576" y="68.0832" style="stroke: #000000; stroke-width: 0.8"/>
      </g>
     </g>
     <g id="text_32">
      <!-- 0.9 -->
      <g transform="translate(381.4576 71.483981) scale(0.1 -0.1)">
       <use xlink:href="#Calibri-30"/>
       <use xlink:href="#Calibri-2e" x="50.683594"/>
       <use xlink:href="#Calibri-39" x="75.927734"/>
      </g>
     </g>
    </g>
    <g id="ytick_19">
     <g id="line2d_30">
      <g>
       <use xlink:href="#ma5453cc9e8" x="374.4576" y="41.472" style="stroke: #000000; stroke-width: 0.8"/>
      </g>
     </g>
     <g id="text_33">
      <!-- 1.0 -->
      <g transform="translate(381.4576 44.872781) scale(0.1 -0.1)">
       <use xlink:href="#Calibri-31"/>
       <use xlink:href="#Calibri-2e" x="50.683594"/>
       <use xlink:href="#Calibri-30" x="75.927734"/>
      </g>
     </g>
    </g>
   </g>
   <g id="LineCollection_1"/>
   <g id="patch_8">
    <path d="M 361.152 307.584 
L 367.8048 307.584 
L 374.4576 307.584 
L 374.4576 41.472 
L 367.8048 41.472 
L 361.152 41.472 
L 361.152 307.584 
z
" style="fill: none; stroke: #000000; stroke-width: 0.8; stroke-linejoin: miter; stroke-linecap: square"/>
   </g>
   <g id="text_34">
    <!-- $\mathit{E}_{\mathrm{dis}}$/$\mathit{E}_{\mathrm{i}}$ -->
    <g transform="translate(353.2548 35.472) scale(0.1 -0.1)">
     <defs>
      <path id="DejaVuSans-Oblique-45" d="M 1081 4666 
L 4031 4666 
L 3928 4134 
L 1606 4134 
L 1338 2753 
L 3566 2753 
L 3463 2222 
L 1234 2222 
L 909 531 
L 3284 531 
L 3181 0 
L 172 0 
L 1081 4666 
z
" transform="scale(0.015625)"/>
      <path id="DejaVuSans-64" d="M 2906 2969 
L 2906 4863 
L 3481 4863 
L 3481 0 
L 2906 0 
L 2906 525 
Q 2725 213 2448 61 
Q 2172 -91 1784 -91 
Q 1150 -91 751 415 
Q 353 922 353 1747 
Q 353 2572 751 3078 
Q 1150 3584 1784 3584 
Q 2172 3584 2448 3432 
Q 2725 3281 2906 2969 
z
M 947 1747 
Q 947 1113 1208 752 
Q 1469 391 1925 391 
Q 2381 391 2643 752 
Q 2906 1113 2906 1747 
Q 2906 2381 2643 2742 
Q 2381 3103 1925 3103 
Q 1469 3103 1208 2742 
Q 947 2381 947 1747 
z
" transform="scale(0.015625)"/>
      <path id="DejaVuSans-69" d="M 603 3500 
L 1178 3500 
L 1178 0 
L 603 0 
L 603 3500 
z
M 603 4863 
L 1178 4863 
L 1178 4134 
L 603 4134 
L 603 4863 
z
" transform="scale(0.015625)"/>
      <path id="DejaVuSans-73" d="M 2834 3397 
L 2834 2853 
Q 2591 2978 2328 3040 
Q 2066 3103 1784 3103 
Q 1356 3103 1142 2972 
Q 928 2841 928 2578 
Q 928 2378 1081 2264 
Q 1234 2150 1697 2047 
L 1894 2003 
Q 2506 1872 2764 1633 
Q 3022 1394 3022 966 
Q 3022 478 2636 193 
Q 2250 -91 1575 -91 
Q 1294 -91 989 -36 
Q 684 19 347 128 
L 347 722 
Q 666 556 975 473 
Q 1284 391 1588 391 
Q 1994 391 2212 530 
Q 2431 669 2431 922 
Q 2431 1156 2273 1281 
Q 2116 1406 1581 1522 
L 1381 1569 
Q 847 1681 609 1914 
Q 372 2147 372 2553 
Q 372 3047 722 3315 
Q 1072 3584 1716 3584 
Q 2034 3584 2315 3537 
Q 2597 3491 2834 3397 
z
" transform="scale(0.015625)"/>
     </defs>
     <use xlink:href="#DejaVuSans-Oblique-45" transform="translate(0 0.09375)"/>
     <use xlink:href="#DejaVuSans-64" transform="translate(63.183594 -16.3125) scale(0.7)"/>
     <use xlink:href="#DejaVuSans-69" transform="translate(107.617188 -16.3125) scale(0.7)"/>
     <use xlink:href="#DejaVuSans-73" transform="translate(127.06543 -16.3125) scale(0.7)"/>
     <use xlink:href="#Calibri-2f" transform="translate(166.269531 0.09375)"/>
     <use xlink:href="#DejaVuSans-Oblique-45" transform="translate(204.892578 0.09375)"/>
     <use xlink:href="#DejaVuSans-69" transform="translate(268.076172 -16.3125) scale(0.7)"/>
    </g>
   </g>
  </g>
 </g>
 <defs>
  <clipPath id="p8a1d215f61">
   <rect x="57.6" y="41.472" width="285.696" height="266.112"/>
  </clipPath>
  <clipPath id="p5e4d49a192">
   <rect x="361.152" y="41.472" width="13.3056" height="266.112"/>
  </clipPath>
 </defs>
</svg>
