<?xml version="1.0" encoding="utf-8" standalone="no"?>
<!DOCTYPE svg PUBLIC "-//W3C//DTD SVG 1.1//EN"
  "http://www.w3.org/Graphics/SVG/1.1/DTD/svg11.dtd">
<svg xmlns:xlink="http://www.w3.org/1999/xlink" width="460.8pt" height="345.6pt" viewBox="0 0 460.8 345.6" xmlns="http://www.w3.org/2000/svg" version="1.1">
 <metadata>
  <rdf:RDF xmlns:dc="http://purl.org/dc/elements/1.1/" xmlns:cc="http://creativecommons.org/ns#" xmlns:rdf="http://www.w3.org/1999/02/22-rdf-syntax-ns#">
   <cc:Work>
    <dc:type rdf:resource="http://purl.org/dc/dcmitype/StillImage"/>
    <dc:date>2024-01-22T08:50:41.375308</dc:date>
    <dc:format>image/svg+xml</dc:format>
    <dc:creator>
     <cc:Agent>
      <dc:title>Matplotlib v3.7.1, https://matplotlib.org/</dc:title>
     </cc:Agent>
    </dc:creator>
   </cc:Work>
  </rdf:RDF>
 </metadata>
 <defs>
  <style type="text/css">*{stroke-linejoin: round; stroke-linecap: butt}</style>
 </defs>
 <g id="figure_1">
  <g id="patch_1">
   <path d="M 0 345.6 
L 460.8 345.6 
L 460.8 0 
L 0 0 
z
" style="fill: #ffffff"/>
  </g>
  <g id="axes_1">
   <g id="patch_2">
    <path d="M 57.6 307.584 
L 343.296 307.584 
L 343.296 41.472 
L 57.6 41.472 
z
" style="fill: #ffffff"/>
   </g>
   <g id="PathCollection_1">
    <path clip-path="url(#p24479792ad)" style="fill: #0000b6"/>
   </g>
   <g id="PathCollection_2">
    <path clip-path="url(#p24479792ad)" style="fill: #0018ff"/>
   </g>
   <g id="PathCollection_3">
    <path d="M 57.62857 46.149779 
L 57.844324 45.935519 
L 58.956733 44.7984 
L 59.089398 44.661119 
L 59.331979 44.406105 
L 60.391794 43.300541 
L 61.102715 42.549386 
L 61.147898 42.50221 
L 61.200626 42.44628 
L 61.622406 41.994032 
L 62.109925 41.472 
L 60.675994 41.472 
L 59.152282 41.472 
L 57.62857 41.472 
L 57.62857 44.7984 
" clip-path="url(#p24479792ad)" style="fill: #0080ff"/>
   </g>
   <g id="PathCollection_4">
    <path d="M 62.109925 41.472 
L 61.622406 41.994032 
L 61.200626 42.44628 
L 61.147898 42.50221 
L 61.102715 42.549386 
L 60.391794 43.300541 
L 59.331979 44.406105 
L 59.089398 44.661119 
L 58.956733 44.7984 
L 57.844324 45.935519 
L 57.62857 46.149779 
L 57.62857 48.1248 
L 57.62857 51.4512 
L 57.62857 54.7776 
L 57.62857 58.104 
L 57.62857 61.4304 
L 57.62857 64.7568 
L 57.62857 68.0832 
L 57.62857 71.4096 
L 57.62857 74.736 
L 57.62857 78.0624 
L 57.62857 81.3888 
L 57.62857 84.7152 
L 57.62857 88.0416 
L 57.62857 91.368 
L 57.62857 94.6944 
L 57.62857 97.682507 
L 57.700217 97.643184 
L 58.723075 97.083804 
L 59.878513 96.435372 
L 60.328168 96.187602 
L 61.107137 95.748482 
L 61.148408 95.725722 
L 61.249202 95.66868 
L 62.492428 94.959099 
L 62.952284 94.6944 
L 64.347756 93.881128 
L 64.621731 93.72012 
L 65.960924 92.926277 
L 66.542191 92.573093 
L 66.953092 92.328542 
L 68.202651 91.568631 
L 68.346937 91.482357 
L 68.533516 91.368 
L 69.683115 90.655694 
L 69.990295 90.461326 
L 70.719504 90.009085 
L 72.282809 89.01588 
L 72.362741 88.964641 
L 72.732451 88.729271 
L 73.791899 88.0416 
L 74.049814 87.873654 
L 74.138535 87.81475 
L 75.272249 87.06732 
L 75.42138 86.968102 
L 75.495189 86.91785 
L 76.237006 86.422258 
L 76.844539 86.008215 
L 77.750499 85.399976 
L 78.747143 84.7152 
L 78.93568 84.58419 
L 78.993116 84.543499 
L 80.064298 83.798408 
L 81.31026 82.911946 
L 81.624059 82.691863 
L 82.083857 82.36308 
L 83.201904 81.55189 
L 83.427501 81.3888 
L 83.485031 81.346623 
L 83.992004 80.972539 
L 84.748829 80.41452 
L 85.408083 79.921272 
L 85.898978 79.547162 
L 86.910681 78.786276 
L 87.852513 78.0624 
L 88.070629 77.892792 
L 88.146367 77.832831 
L 89.159935 77.043799 
L 90.627736 75.876659 
L 90.721542 75.803003 
L 90.837532 75.71028 
L 91.046098 75.541067 
L 92.042943 74.736 
L 92.281173 74.541751 
L 92.37391 74.464688 
L 93.226699 73.76172 
L 93.606514 73.44548 
L 93.850755 73.237929 
L 94.449539 72.737126 
L 95.537111 71.811854 
L 95.803147 71.588128 
L 96.011146 71.4096 
L 97.070474 70.489338 
L 97.49 70.118772 
L 97.981634 69.691161 
L 98.695774 69.05748 
L 99.273459 68.539552 
L 99.780035 68.0832 
L 100.49687 67.430704 
L 100.791958 67.156997 
L 100.844241 67.10892 
L 102.281749 65.773097 
L 103.336726 64.773683 
L 103.33993 64.770657 
L 103.33993 64.7568 
L 103.33993 61.4304 
L 103.33993 58.104 
L 103.33993 54.7776 
L 103.33993 51.4512 
L 103.33993 48.1248 
L 103.33993 44.7984 
L 103.33993 41.472 
L 101.816218 41.472 
L 100.292506 41.472 
L 98.768794 41.472 
L 97.245082 41.472 
L 95.72137 41.472 
L 94.197658 41.472 
L 92.673946 41.472 
L 91.150234 41.472 
L 89.626522 41.472 
L 88.10281 41.472 
L 86.579098 41.472 
L 85.055386 41.472 
L 83.531674 41.472 
L 82.007962 41.472 
L 80.48425 41.472 
L 78.960538 41.472 
L 77.436826 41.472 
L 75.913114 41.472 
L 74.389402 41.472 
L 72.86569 41.472 
L 71.341978 41.472 
L 69.818266 41.472 
L 68.294554 41.472 
L 66.770842 41.472 
L 65.24713 41.472 
L 63.723418 41.472 
L 62.199706 41.472 
" clip-path="url(#p24479792ad)" style="fill: #00e4f8"/>
   </g>
   <g id="PathCollection_5">
    <path d="M 103.33993 64.770657 
L 103.336726 64.773683 
L 102.281749 65.773097 
L 100.844241 67.10892 
L 100.791958 67.156997 
L 100.49687 67.430704 
L 99.780035 68.0832 
L 99.273459 68.539552 
L 98.695774 69.05748 
L 97.981634 69.691161 
L 97.49 70.118772 
L 97.070474 70.489338 
L 96.011146 71.4096 
L 95.803147 71.588128 
L 95.537111 71.811854 
L 94.449539 72.737126 
L 93.850755 73.237929 
L 93.606514 73.44548 
L 93.226699 73.76172 
L 92.37391 74.464688 
L 92.281173 74.541751 
L 92.042943 74.736 
L 91.046098 75.541067 
L 90.837532 75.71028 
L 90.721542 75.803003 
L 90.627736 75.876659 
L 89.159935 77.043799 
L 88.146367 77.832831 
L 88.070629 77.892792 
L 87.852513 78.0624 
L 86.910681 78.786276 
L 85.898978 79.547162 
L 85.408083 79.921272 
L 84.748829 80.41452 
L 83.992004 80.972539 
L 83.485031 81.346623 
L 83.427501 81.3888 
L 83.201904 81.55189 
L 82.083857 82.36308 
L 81.624059 82.691863 
L 81.31026 82.911946 
L 80.064298 83.798408 
L 78.993116 84.543499 
L 78.93568 84.58419 
L 78.747143 84.7152 
L 77.750499 85.399976 
L 76.844539 86.008215 
L 76.237006 86.422258 
L 75.495189 86.91785 
L 75.42138 86.968102 
L 75.272249 87.06732 
L 74.138535 87.81475 
L 74.049814 87.873654 
L 73.791899 88.0416 
L 72.732451 88.729271 
L 72.362741 88.964641 
L 72.282809 89.01588 
L 70.719504 90.009085 
L 69.990295 90.461326 
L 69.683115 90.655694 
L 68.533516 91.368 
L 68.346937 91.482357 
L 68.202651 91.568631 
L 66.953092 92.328542 
L 66.542191 92.573093 
L 65.960924 92.926277 
L 64.621731 93.72012 
L 64.347756 93.881128 
L 62.952284 94.6944 
L 62.492428 94.959099 
L 61.249202 95.66868 
L 61.148408 95.725722 
L 61.107137 95.748482 
L 60.328168 96.187602 
L 59.878513 96.435372 
L 58.723075 97.083804 
L 57.700217 97.643184 
L 57.62857 97.682507 
L 57.62857 98.0208 
L 57.62857 101.3472 
L 57.62857 104.6736 
L 57.62857 108 
L 57.62857 111.3264 
L 57.62857 114.6528 
L 57.62857 117.9792 
L 57.62857 121.3056 
L 57.62857 124.632 
L 57.62857 127.9584 
L 57.62857 131.2848 
L 57.62857 134.6112 
L 57.62857 137.9376 
L 57.62857 139.810669 
L 57.967739 139.725171 
L 58.385821 139.610852 
L 59.754052 139.25132 
L 60.463805 139.055928 
L 60.867961 138.949354 
L 61.861626 138.675658 
L 62.464666 138.516032 
L 63.677487 138.179676 
L 63.76494 138.156444 
L 64.553605 137.9376 
L 65.168311 137.765532 
L 65.350357 137.712244 
L 66.65814 137.343611 
L 66.896854 137.273458 
L 67.865224 137.000334 
L 68.858019 136.707504 
L 69.547702 136.511607 
L 70.121045 136.341818 
L 70.554564 136.218606 
L 72.377609 135.676723 
L 72.433672 135.660675 
L 72.685626 135.58548 
L 73.626776 135.300816 
L 74.770481 134.955797 
L 74.966963 134.896838 
L 75.893563 134.6112 
L 77.042868 134.254958 
L 78.252335 133.873763 
L 78.707139 133.732314 
L 79.005747 133.63692 
L 79.383954 133.516394 
L 79.475995 133.485909 
L 81.234681 132.92306 
L 81.728381 132.758314 
L 82.255412 132.588974 
L 83.056879 132.32132 
L 83.884178 132.054349 
L 84.97929 131.685857 
L 85.122667 131.639403 
L 86.175658 131.2848 
L 86.524732 131.166115 
L 86.654505 131.120179 
L 87.985076 130.664293 
L 88.237577 130.574514 
L 89.156777 130.259305 
L 90.279953 129.8583 
L 90.842674 129.663826 
L 91.502708 129.427105 
L 91.779191 129.331469 
L 92.886472 128.93268 
L 93.503671 128.708692 
L 95.540131 127.9584 
L 95.668487 127.91058 
L 95.850268 127.841842 
L 96.300422 127.672024 
L 97.820251 127.100665 
L 98.125689 126.98412 
L 99.588525 126.421547 
L 99.982845 126.26405 
L 100.559876 126.041162 
L 101.307685 125.742173 
L 102.171219 125.406999 
L 103.277503 124.961015 
L 103.33993 124.936032 
L 103.33993 124.632 
L 103.33993 121.3056 
L 103.33993 117.9792 
L 103.33993 114.6528 
L 103.33993 111.3264 
L 103.33993 108 
L 103.33993 104.6736 
L 103.33993 101.3472 
L 103.33993 98.0208 
L 103.33993 94.6944 
L 103.33993 91.368 
L 103.33993 88.0416 
L 103.33993 84.7152 
L 103.33993 81.3888 
L 103.33993 78.0624 
L 103.33993 74.736 
L 103.33993 71.4096 
L 103.33993 68.0832 
" clip-path="url(#p24479792ad)" style="fill: #53ffa4"/>
   </g>
   <g id="PathCollection_6">
    <path d="M 103.33993 124.936032 
L 103.277503 124.961015 
L 102.171219 125.406999 
L 101.307685 125.742173 
L 100.559876 126.041162 
L 99.982845 126.26405 
L 99.588525 126.421547 
L 98.125689 126.98412 
L 97.820251 127.100665 
L 96.300422 127.672024 
L 95.850268 127.841842 
L 95.668487 127.91058 
L 95.540131 127.9584 
L 93.503671 128.708692 
L 92.886472 128.93268 
L 91.779191 129.331469 
L 91.502708 129.427105 
L 90.842674 129.663826 
L 90.279953 129.8583 
L 89.156777 130.259305 
L 88.237577 130.574514 
L 87.985076 130.664293 
L 86.654505 131.120179 
L 86.524732 131.166115 
L 86.175658 131.2848 
L 85.122667 131.639403 
L 84.97929 131.685857 
L 83.884178 132.054349 
L 83.056879 132.32132 
L 82.255412 132.588974 
L 81.728381 132.758314 
L 81.234681 132.92306 
L 79.475995 133.485909 
L 79.383954 133.516394 
L 79.005747 133.63692 
L 78.707139 133.732314 
L 78.252335 133.873763 
L 77.042868 134.254958 
L 75.893563 134.6112 
L 74.966963 134.896838 
L 74.770481 134.955797 
L 73.626776 135.300816 
L 72.685626 135.58548 
L 72.433672 135.660675 
L 72.377609 135.676723 
L 70.554564 136.218606 
L 70.121045 136.341818 
L 69.547702 136.511607 
L 68.858019 136.707504 
L 67.865224 137.000334 
L 66.896854 137.273458 
L 66.65814 137.343611 
L 65.350357 137.712244 
L 65.168311 137.765532 
L 64.553605 137.9376 
L 63.76494 138.156444 
L 63.677487 138.179676 
L 62.464666 138.516032 
L 61.861626 138.675658 
L 60.867961 138.949354 
L 60.463805 139.055928 
L 59.754052 139.25132 
L 58.385821 139.610852 
L 57.967739 139.725171 
L 57.62857 139.810669 
L 57.62857 141.264 
L 57.62857 144.5904 
L 57.62857 147.9168 
L 57.62857 151.2432 
L 57.62857 154.5696 
L 57.62857 157.896 
L 57.62857 161.2224 
L 57.62857 164.5488 
L 57.62857 167.8752 
L 57.62857 171.2016 
L 57.62857 174.528 
L 57.62857 176.459296 
L 57.896787 176.440777 
L 58.487129 176.402313 
L 59.865317 176.297779 
L 60.374328 176.264488 
L 60.986482 176.217988 
L 61.436658 176.188599 
L 63.017847 176.068325 
L 63.380029 176.044589 
L 64.076879 175.991503 
L 64.38458 175.971376 
L 66.172145 175.835009 
L 66.385035 175.821029 
L 67.167998 175.761209 
L 67.330844 175.750536 
L 69.328267 175.597712 
L 69.389325 175.593694 
L 70.259863 175.526986 
L 70.2754 175.525965 
L 70.584051 175.50228 
L 72.27518 175.371863 
L 72.94453 175.320557 
L 73.56958 175.269336 
L 75.080011 175.152494 
L 76.391185 175.045131 
L 76.909671 175.004688 
L 77.880655 174.92934 
L 80.0298 174.752752 
L 80.255209 174.735113 
L 80.67698 174.70228 
L 82.790604 174.528 
L 83.469296 174.471594 
L 83.607463 174.459466 
L 86.033173 174.258008 
L 86.258437 174.238038 
L 86.969005 174.17542 
L 87.361628 174.140992 
L 89.042878 174.000231 
L 90.336766 173.885751 
L 91.052573 173.822733 
L 91.822461 173.758032 
L 93.710967 173.590258 
L 94.124318 173.55372 
L 94.635264 173.50798 
L 94.666337 173.50483 
L 96.69311 173.322996 
L 96.845521 173.30746 
L 97.631239 173.236823 
L 97.846573 173.21489 
L 99.617906 173.055289 
L 99.947192 173.021557 
L 100.626187 172.960249 
L 101.029553 172.918959 
L 102.540259 172.782247 
L 103.04998 172.729765 
L 103.33993 172.700994 
L 103.33993 171.2016 
L 103.33993 167.8752 
L 103.33993 164.5488 
L 103.33993 161.2224 
L 103.33993 157.896 
L 103.33993 154.5696 
L 103.33993 151.2432 
L 103.33993 147.9168 
L 103.33993 144.5904 
L 103.33993 141.264 
L 103.33993 137.9376 
L 103.33993 134.6112 
L 103.33993 131.2848 
L 103.33993 127.9584 
" clip-path="url(#p24479792ad)" style="fill: #a4ff53"/>
   </g>
   <g id="PathCollection_7">
    <path d="M 103.33993 172.700994 
L 103.04998 172.729765 
L 102.540259 172.782247 
L 101.029553 172.918959 
L 100.626187 172.960249 
L 99.947192 173.021557 
L 99.617906 173.055289 
L 97.846573 173.21489 
L 97.631239 173.236823 
L 96.845521 173.30746 
L 96.69311 173.322996 
L 94.666337 173.50483 
L 94.635264 173.50798 
L 94.124318 173.55372 
L 93.710967 173.590258 
L 91.822461 173.758032 
L 91.052573 173.822733 
L 90.336766 173.885751 
L 89.042878 174.000231 
L 87.361628 174.140992 
L 86.969005 174.17542 
L 86.258437 174.238038 
L 86.033173 174.258008 
L 83.607463 174.459466 
L 83.469296 174.471594 
L 82.790604 174.528 
L 80.67698 174.70228 
L 80.255209 174.735113 
L 80.0298 174.752752 
L 77.880655 174.92934 
L 76.909671 175.004688 
L 76.391185 175.045131 
L 75.080011 175.152494 
L 73.56958 175.269336 
L 72.94453 175.320557 
L 72.27518 175.371863 
L 70.584051 175.50228 
L 70.2754 175.525965 
L 70.259863 175.526986 
L 69.389325 175.593694 
L 69.328267 175.597712 
L 67.330844 175.750536 
L 67.167998 175.761209 
L 66.385035 175.821029 
L 66.172145 175.835009 
L 64.38458 175.971376 
L 64.076879 175.991503 
L 63.380029 176.044589 
L 63.017847 176.068325 
L 61.436658 176.188599 
L 60.986482 176.217988 
L 60.374328 176.264488 
L 59.865317 176.297779 
L 58.487129 176.402313 
L 57.896787 176.440777 
L 57.62857 176.459296 
L 57.62857 177.8544 
L 57.62857 181.1808 
L 57.62857 184.5072 
L 57.62857 187.8336 
L 57.62857 191.16 
L 57.62857 194.4864 
L 57.62857 197.8128 
L 57.62857 201.1392 
L 57.62857 204.4656 
L 57.62857 207.792 
L 57.62857 209.909904 
L 57.854895 209.925565 
L 58.632519 209.983712 
L 59.641598 210.050179 
L 60.4854 210.113886 
L 60.861847 210.13887 
L 61.783023 210.208745 
L 62.59162 210.262815 
L 63.575378 210.338167 
L 63.86772 210.357864 
L 64.936428 210.44011 
L 65.53909 210.481024 
L 66.666533 210.568645 
L 66.872478 210.582733 
L 68.092833 210.678026 
L 68.483925 210.704985 
L 69.758903 210.805531 
L 69.876084 210.813671 
L 71.252345 210.922724 
L 71.426041 210.934883 
L 72.852531 211.049048 
L 72.878501 211.05088 
L 73.718123 211.1184 
L 74.365645 211.170264 
L 74.415204 211.17473 
L 75.879943 211.293222 
L 75.947446 211.299348 
L 77.30345 211.409572 
L 77.581859 211.435022 
L 78.880236 211.541624 
L 79.043695 211.556674 
L 80.238344 211.655235 
L 80.751975 211.702869 
L 81.879241 211.796816 
L 82.141328 211.821298 
L 83.170229 211.907466 
L 83.92568 211.978552 
L 84.876913 212.059032 
L 85.240396 212.093486 
L 86.099005 212.166486 
L 87.10311 212.262367 
L 87.873205 212.328518 
L 88.340951 212.373514 
L 89.024564 212.432527 
L 90.284407 212.554622 
L 90.868069 212.605533 
L 91.44305 212.661672 
L 91.946797 212.705831 
L 93.469718 212.855643 
L 93.861453 212.890346 
L 94.546749 212.958267 
L 94.865586 212.986653 
L 96.659203 213.165774 
L 96.853305 213.183239 
L 97.65211 213.263619 
L 97.78081 213.275258 
L 99.706528 213.47052 
L 99.832181 213.483215 
L 99.882715 213.488569 
L 100.870756 213.589851 
L 102.569016 213.76407 
L 103.05189 213.815983 
L 103.33993 213.844187 
L 103.33993 211.1184 
L 103.33993 207.792 
L 103.33993 204.4656 
L 103.33993 201.1392 
L 103.33993 197.8128 
L 103.33993 194.4864 
L 103.33993 191.16 
L 103.33993 187.8336 
L 103.33993 184.5072 
L 103.33993 181.1808 
L 103.33993 177.8544 
L 103.33993 174.528 
" clip-path="url(#p24479792ad)" style="fill: #f8f500"/>
   </g>
   <g id="PathCollection_8">
    <path d="M 103.33993 213.844187 
L 103.05189 213.815983 
L 102.569016 213.76407 
L 100.870756 213.589851 
L 99.882715 213.488569 
L 99.832181 213.483215 
L 99.706528 213.47052 
L 97.78081 213.275258 
L 97.65211 213.263619 
L 96.853305 213.183239 
L 96.659203 213.165774 
L 94.865586 212.986653 
L 94.546749 212.958267 
L 93.861453 212.890346 
L 93.469718 212.855643 
L 91.946797 212.705831 
L 91.44305 212.661672 
L 90.868069 212.605533 
L 90.284407 212.554622 
L 89.024564 212.432527 
L 88.340951 212.373514 
L 87.873205 212.328518 
L 87.10311 212.262367 
L 86.099005 212.166486 
L 85.240396 212.093486 
L 84.876913 212.059032 
L 83.92568 211.978552 
L 83.170229 211.907466 
L 82.141328 211.821298 
L 81.879241 211.796816 
L 80.751975 211.702869 
L 80.238344 211.655235 
L 79.043695 211.556674 
L 78.880236 211.541624 
L 77.581859 211.435022 
L 77.30345 211.409572 
L 75.947446 211.299348 
L 75.879943 211.293222 
L 74.415204 211.17473 
L 74.365645 211.170264 
L 73.718123 211.1184 
L 72.878501 211.05088 
L 72.852531 211.049048 
L 71.426041 210.934883 
L 71.252345 210.922724 
L 69.876084 210.813671 
L 69.758903 210.805531 
L 68.483925 210.704985 
L 68.092833 210.678026 
L 66.872478 210.582733 
L 66.666533 210.568645 
L 65.53909 210.481024 
L 64.936428 210.44011 
L 63.86772 210.357864 
L 63.575378 210.338167 
L 62.59162 210.262815 
L 61.783023 210.208745 
L 60.861847 210.13887 
L 60.4854 210.113886 
L 59.641598 210.050179 
L 58.632519 209.983712 
L 57.854895 209.925565 
L 57.62857 209.909904 
L 57.62857 211.1184 
L 57.62857 214.4448 
L 57.62857 217.7712 
L 57.62857 221.0976 
L 57.62857 224.424 
L 57.62857 227.7504 
L 57.62857 231.0768 
L 57.62857 234.4032 
L 57.62857 237.7296 
L 57.62857 241.056 
L 57.62857 241.848319 
L 58.024468 241.920282 
L 58.168029 241.946025 
L 58.628189 242.03028 
L 60.105762 242.300868 
L 60.28765 242.335655 
L 61.038126 242.473802 
L 61.353126 242.53424 
L 62.913989 242.823055 
L 63.447101 242.926088 
L 63.980896 243.025376 
L 64.688357 243.162548 
L 65.717736 243.355024 
L 66.608938 243.529096 
L 66.921594 243.587867 
L 68.030109 243.805094 
L 68.516863 243.897078 
L 69.773244 244.145117 
L 69.860154 244.161629 
L 70.974723 244.3824 
L 71.311433 244.449081 
L 71.378902 244.463009 
L 72.796726 244.745871 
L 72.940308 244.77567 
L 74.102683 245.008332 
L 74.736724 245.140636 
L 75.731197 245.341183 
L 76.110114 245.420681 
L 76.889032 245.578282 
L 78.101813 245.834128 
L 78.663369 245.948611 
L 79.28263 246.079969 
L 79.670324 246.159274 
L 81.474451 246.544098 
L 81.593164 246.568568 
L 82.366863 246.73452 
L 82.481587 246.759243 
L 84.177481 247.124818 
L 86.374701 247.607714 
L 86.496713 247.634303 
L 86.629477 247.663244 
L 86.834439 247.7088 
L 89.074516 248.207959 
L 90.548856 248.542835 
L 90.85049 248.610607 
L 91.166102 248.68308 
L 91.578651 248.777252 
L 91.647076 248.793451 
L 93.505402 249.220056 
L 93.869754 249.307001 
L 94.498038 249.452061 
L 95.057567 249.58606 
L 96.257534 249.864705 
L 97.059741 250.058371 
L 97.414693 250.141274 
L 98.477246 250.398725 
L 99.00369 250.522399 
L 100.253117 250.827602 
L 100.328514 250.845419 
L 101.102577 251.0352 
L 101.744256 251.192298 
L 101.907141 251.233693 
L 103.239857 251.562628 
L 103.33993 251.588052 
L 103.33993 251.0352 
L 103.33993 247.7088 
L 103.33993 244.3824 
L 103.33993 241.056 
L 103.33993 237.7296 
L 103.33993 234.4032 
L 103.33993 231.0768 
L 103.33993 227.7504 
L 103.33993 224.424 
L 103.33993 221.0976 
L 103.33993 217.7712 
L 103.33993 214.4448 
" clip-path="url(#p24479792ad)" style="fill: #ff9400"/>
   </g>
   <g id="PathCollection_9">
    <path d="M 103.33993 251.588052 
L 103.239857 251.562628 
L 101.907141 251.233693 
L 101.744256 251.192298 
L 101.102577 251.0352 
L 100.328514 250.845419 
L 100.253117 250.827602 
L 99.00369 250.522399 
L 98.477246 250.398725 
L 97.414693 250.141274 
L 97.059741 250.058371 
L 96.257534 249.864705 
L 95.057567 249.58606 
L 94.498038 249.452061 
L 93.869754 249.307001 
L 93.505402 249.220056 
L 91.647076 248.793451 
L 91.578651 248.777252 
L 91.166102 248.68308 
L 90.85049 248.610607 
L 90.548856 248.542835 
L 89.074516 248.207959 
L 86.834439 247.7088 
L 86.629477 247.663244 
L 86.496713 247.634303 
L 86.374701 247.607714 
L 84.177481 247.124818 
L 82.481587 246.759243 
L 82.366863 246.73452 
L 81.593164 246.568568 
L 81.474451 246.544098 
L 79.670324 246.159274 
L 79.28263 246.079969 
L 78.663369 245.948611 
L 78.101813 245.834128 
L 76.889032 245.578282 
L 76.110114 245.420681 
L 75.731197 245.341183 
L 74.736724 245.140636 
L 74.102683 245.008332 
L 72.940308 244.77567 
L 72.796726 244.745871 
L 71.378902 244.463009 
L 71.311433 244.449081 
L 70.974723 244.3824 
L 69.860154 244.161629 
L 69.773244 244.145117 
L 68.516863 243.897078 
L 68.030109 243.805094 
L 66.921594 243.587867 
L 66.608938 243.529096 
L 65.717736 243.355024 
L 64.688357 243.162548 
L 63.980896 243.025376 
L 63.447101 242.926088 
L 62.913989 242.823055 
L 61.353126 242.53424 
L 61.038126 242.473802 
L 60.28765 242.335655 
L 60.105762 242.300868 
L 58.628189 242.03028 
L 58.168029 241.946025 
L 58.024468 241.920282 
L 57.62857 241.848319 
L 57.62857 244.3824 
L 57.62857 247.7088 
L 57.62857 251.0352 
L 57.62857 254.3616 
L 57.62857 257.688 
L 57.62857 261.0144 
L 57.62857 264.3408 
L 57.62857 267.6672 
L 57.62857 270.9936 
L 57.62857 273.973685 
L 57.769805 274.011671 
L 58.878897 274.32 
L 59.087889 274.378228 
L 59.274892 274.430872 
L 59.51096 274.497388 
L 61.412802 275.03157 
L 62.337613 275.29428 
L 63.168605 275.531207 
L 63.331051 275.578456 
L 64.075338 275.791621 
L 64.447227 275.900142 
L 65.860763 276.306783 
L 66.555353 276.51068 
L 66.963927 276.628756 
L 67.963218 276.923066 
L 68.548111 277.092861 
L 69.782643 277.458655 
L 69.850152 277.478344 
L 70.415444 277.6464 
L 71.230436 277.889906 
L 71.489701 277.968893 
L 72.733567 278.342747 
L 73.014105 278.428614 
L 73.907669 278.698066 
L 75.029126 279.042975 
L 75.61444 279.220542 
L 76.248991 279.416625 
L 76.579819 279.517322 
L 78.129454 279.99852 
L 78.415665 280.08767 
L 79.183396 280.329451 
L 80.086575 280.613197 
L 80.676702 280.798772 
L 81.223973 280.9728 
L 82.627892 281.419774 
L 82.929889 281.516973 
L 84.263385 281.94708 
L 84.564481 282.044488 
L 84.631792 282.066672 
L 85.429759 282.326087 
L 85.719122 282.421795 
L 87.215214 282.9105 
L 87.881396 283.132249 
L 88.298259 283.269097 
L 89.309401 283.606896 
L 89.860385 283.788654 
L 91.134661 284.217123 
L 91.163963 284.226838 
L 91.378379 284.2992 
L 92.499863 284.679238 
L 92.913404 284.82196 
L 94.026449 285.201546 
L 94.392989 285.328686 
L 95.13367 285.582202 
L 96.532494 286.069956 
L 96.885997 286.191738 
L 97.655326 286.461371 
L 97.761551 286.498101 
L 98.1964 286.65132 
L 99.382841 287.070338 
L 100.937795 287.6256 
L 101.567059 287.850905 
L 102.398037 288.151719 
L 102.999504 288.36878 
L 103.33993 288.494254 
L 103.33993 287.6256 
L 103.33993 284.2992 
L 103.33993 280.9728 
L 103.33993 277.6464 
L 103.33993 274.32 
L 103.33993 270.9936 
L 103.33993 267.6672 
L 103.33993 264.3408 
L 103.33993 261.0144 
L 103.33993 257.688 
L 103.33993 254.3616 
" clip-path="url(#p24479792ad)" style="fill: #ff3800"/>
   </g>
   <g id="PathCollection_10">
    <path d="M 103.33993 288.494254 
L 102.999504 288.36878 
L 102.398037 288.151719 
L 101.567059 287.850905 
L 100.937795 287.6256 
L 99.382841 287.070338 
L 98.1964 286.65132 
L 97.761551 286.498101 
L 97.655326 286.461371 
L 96.885997 286.191738 
L 96.532494 286.069956 
L 95.13367 285.582202 
L 94.392989 285.328686 
L 94.026449 285.201546 
L 92.913404 284.82196 
L 92.499863 284.679238 
L 91.378379 284.2992 
L 91.163963 284.226838 
L 91.134661 284.217123 
L 89.860385 283.788654 
L 89.309401 283.606896 
L 88.298259 283.269097 
L 87.881396 283.132249 
L 87.215214 282.9105 
L 85.719122 282.421795 
L 85.429759 282.326087 
L 84.631792 282.066672 
L 84.564481 282.044488 
L 84.263385 281.94708 
L 82.929889 281.516973 
L 82.627892 281.419774 
L 81.223973 280.9728 
L 80.676702 280.798772 
L 80.086575 280.613197 
L 79.183396 280.329451 
L 78.415665 280.08767 
L 78.129454 279.99852 
L 76.579819 279.517322 
L 76.248991 279.416625 
L 75.61444 279.220542 
L 75.029126 279.042975 
L 73.907669 278.698066 
L 73.014105 278.428614 
L 72.733567 278.342747 
L 71.489701 277.968893 
L 71.230436 277.889906 
L 70.415444 277.6464 
L 69.850152 277.478344 
L 69.782643 277.458655 
L 68.548111 277.092861 
L 67.963218 276.923066 
L 66.963927 276.628756 
L 66.555353 276.51068 
L 65.860763 276.306783 
L 64.447227 275.900142 
L 64.075338 275.791621 
L 63.331051 275.578456 
L 63.168605 275.531207 
L 62.337613 275.29428 
L 61.412802 275.03157 
L 59.51096 274.497388 
L 59.274892 274.430872 
L 59.087889 274.378228 
L 58.878897 274.32 
L 57.769805 274.011671 
L 57.62857 273.973685 
L 57.62857 274.32 
L 57.62857 277.6464 
L 57.62857 280.9728 
L 57.62857 284.2992 
L 57.62857 287.6256 
L 57.62857 290.952 
L 57.62857 294.2784 
L 57.62857 297.6048 
L 57.62857 300.9312 
L 57.62857 304.2576 
L 57.62857 307.584 
L 59.152282 307.584 
L 60.675994 307.584 
L 62.199706 307.584 
L 63.723418 307.584 
L 65.24713 307.584 
L 66.770842 307.584 
L 68.294554 307.584 
L 69.818266 307.584 
L 71.341978 307.584 
L 72.86569 307.584 
L 74.389402 307.584 
L 75.913114 307.584 
L 77.436826 307.584 
L 78.960538 307.584 
L 80.48425 307.584 
L 82.007962 307.584 
L 83.531674 307.584 
L 85.055386 307.584 
L 86.579098 307.584 
L 88.10281 307.584 
L 89.626522 307.584 
L 91.150234 307.584 
L 92.673946 307.584 
L 94.197658 307.584 
L 95.72137 307.584 
L 97.245082 307.584 
L 98.768794 307.584 
L 100.292506 307.584 
L 101.816218 307.584 
L 103.33993 307.584 
L 103.33993 304.2576 
L 103.33993 300.9312 
L 103.33993 297.6048 
L 103.33993 294.2784 
L 103.33993 290.952 
" clip-path="url(#p24479792ad)" style="fill: #b60000"/>
   </g>
   <g id="PathCollection_11">
    <path clip-path="url(#p24479792ad)" style="fill: #0000b6"/>
   </g>
   <g id="PathCollection_12">
    <path clip-path="url(#p24479792ad)" style="fill: #0018ff"/>
   </g>
   <g id="PathCollection_13">
    <path clip-path="url(#p24479792ad)" style="fill: #0080ff"/>
   </g>
   <g id="PathCollection_14">
    <path d="M 100.4544 67.453552 
L 100.825205 67.102215 
L 104.521629 63.669773 
L 106.415323 61.81088 
L 108.818676 59.335153 
L 108.940162 59.2128 
L 109.217205 58.909552 
L 111.426975 56.61472 
L 112.852718 55.058392 
L 116.400287 50.986733 
L 116.742824 50.604268 
L 116.969263 50.3424 
L 120.670838 45.884887 
L 122.108567 44.07008 
L 123.697223 41.944669 
L 124.067817 41.472 
L 116.64384 41.472 
L 108.54912 41.472 
L 100.4544 41.472 
L 100.4544 50.3424 
L 100.4544 59.2128 
" clip-path="url(#p24479792ad)" style="fill: #00e4f8"/>
   </g>
   <g id="PathCollection_15">
    <path d="M 124.067817 41.472 
L 123.697223 41.944669 
L 122.108567 44.07008 
L 120.670838 45.884887 
L 116.969263 50.3424 
L 116.742824 50.604268 
L 116.400287 50.986733 
L 112.852718 55.058392 
L 111.426975 56.61472 
L 109.217205 58.909552 
L 108.940162 59.2128 
L 108.818676 59.335153 
L 106.415323 61.81088 
L 104.521629 63.669773 
L 100.825205 67.102215 
L 100.4544 67.453552 
L 100.4544 68.0832 
L 100.4544 76.9536 
L 100.4544 85.824 
L 100.4544 94.6944 
L 100.4544 103.5648 
L 100.4544 112.4352 
L 100.4544 121.3056 
L 100.4544 126.042375 
L 102.02655 125.464812 
L 106.460033 123.594875 
L 109.528772 122.379128 
L 111.961565 121.3056 
L 115.956822 119.488054 
L 117.646083 118.654108 
L 120.941551 117.144741 
L 125.114602 115.03328 
L 127.599246 113.733682 
L 130.036162 112.4352 
L 133.386861 110.563118 
L 134.562318 109.83712 
L 135.087635 109.528824 
L 136.021277 108.941712 
L 142.334394 105.105962 
L 144.656449 103.5648 
L 148.122052 101.182031 
L 150.613345 99.356711 
L 152.243944 98.2243 
L 153.478983 97.29248 
L 156.316732 95.057846 
L 156.794019 94.6944 
L 156.909886 94.60019 
L 159.991931 92.09632 
L 161.597105 90.732931 
L 164.28644 88.273045 
L 165.677225 87.054355 
L 167.00658 85.824 
L 170.360377 82.595147 
L 173.30784 79.55168 
L 174.992049 77.718508 
L 175.707907 76.9536 
L 177.223369 75.175883 
L 177.969559 74.35552 
L 178.484781 73.757276 
L 179.934813 71.963668 
L 181.952539 69.54074 
L 183.114283 68.0832 
L 186.020607 64.274425 
L 187.791187 61.81088 
L 189.529661 59.227934 
L 189.540287 59.2128 
L 189.547851 59.200007 
L 189.557461 59.185048 
L 191.310603 56.61472 
L 192.918321 54.092316 
L 195.1825 50.3424 
L 196.636279 47.816525 
L 198.72364 44.07008 
L 199.182935 43.216439 
L 200.122308 41.472 
L 197.59104 41.472 
L 189.49632 41.472 
L 181.4016 41.472 
L 173.30688 41.472 
L 165.21216 41.472 
L 157.11744 41.472 
L 149.02272 41.472 
L 140.928 41.472 
L 132.83328 41.472 
L 124.73856 41.472 
" clip-path="url(#p24479792ad)" style="fill: #53ffa4"/>
   </g>
   <g id="PathCollection_16">
    <path d="M 200.122308 41.472 
L 199.182935 43.216439 
L 198.72364 44.07008 
L 196.636279 47.816525 
L 195.1825 50.3424 
L 192.918321 54.092316 
L 191.310603 56.61472 
L 189.557461 59.185048 
L 189.547851 59.200007 
L 189.540287 59.2128 
L 189.529661 59.227934 
L 187.791187 61.81088 
L 186.020607 64.274425 
L 183.114283 68.0832 
L 181.952539 69.54074 
L 179.934813 71.963668 
L 178.484781 73.757276 
L 177.969559 74.35552 
L 177.223369 75.175883 
L 175.707907 76.9536 
L 174.992049 77.718508 
L 173.30784 79.55168 
L 170.360377 82.595147 
L 167.00658 85.824 
L 165.677225 87.054355 
L 164.28644 88.273045 
L 161.597105 90.732931 
L 159.991931 92.09632 
L 156.909886 94.60019 
L 156.794019 94.6944 
L 156.316732 95.057846 
L 153.478983 97.29248 
L 152.243944 98.2243 
L 150.613345 99.356711 
L 148.122052 101.182031 
L 144.656449 103.5648 
L 142.334394 105.105962 
L 136.021277 108.941712 
L 135.087635 109.528824 
L 134.562318 109.83712 
L 133.386861 110.563118 
L 130.036162 112.4352 
L 127.599246 113.733682 
L 125.114602 115.03328 
L 120.941551 117.144741 
L 117.646083 118.654108 
L 115.956822 119.488054 
L 111.961565 121.3056 
L 109.528772 122.379128 
L 106.460033 123.594875 
L 102.02655 125.464812 
L 100.4544 126.042375 
L 100.4544 130.176 
L 100.4544 139.0464 
L 100.4544 147.9168 
L 100.4544 156.7872 
L 100.4544 165.6576 
L 100.4544 172.957836 
L 101.072779 172.892043 
L 106.624021 172.418428 
L 110.946343 171.901062 
L 115.4997 171.501113 
L 117.89837 171.20907 
L 121.428718 170.900991 
L 128.890918 169.97774 
L 131.040171 169.784229 
L 134.80583 169.309507 
L 136.063195 169.197023 
L 143.39834 168.25568 
L 145.922477 167.924622 
L 148.664892 167.578278 
L 154.991216 166.622705 
L 158.25881 166.175674 
L 158.876944 166.094396 
L 161.633137 165.6576 
L 170.229993 164.260983 
L 176.885196 163.05952 
L 178.72046 162.719539 
L 179.202129 162.606026 
L 183.305488 161.824044 
L 185.341307 161.340369 
L 192.384892 159.95257 
L 196.817624 158.833316 
L 198.25396 158.540991 
L 205.127119 156.7872 
L 205.577392 156.668448 
L 205.885649 156.568157 
L 212.943189 154.572098 
L 214.865393 153.917 
L 218.345105 152.918832 
L 225.088233 150.51488 
L 226.473089 150.003808 
L 228.050614 149.449842 
L 231.74022 147.9168 
L 234.967307 146.510903 
L 237.523314 145.31872 
L 241.866475 143.212547 
L 245.346031 141.198107 
L 246.707543 140.49665 
L 249.142201 139.0464 
L 252.406523 137.0218 
L 258.220962 132.77408 
L 258.874353 132.273169 
L 259.861904 131.568138 
L 261.49164 130.176 
L 263.48277 128.447999 
L 264.304927 127.57792 
L 264.611876 127.292697 
L 270.410205 121.3056 
L 270.42698 121.287475 
L 275.47134 115.03328 
L 275.649055 114.798022 
L 277.40874 112.4352 
L 278.699704 110.465775 
L 279.026597 109.83712 
L 280.202289 107.967136 
L 282.744106 103.5648 
L 284.203049 100.902042 
L 285.94377 97.29248 
L 287.008349 94.864791 
L 287.085221 94.6944 
L 287.174782 94.448464 
L 288.243185 92.09632 
L 289.521678 88.98953 
L 290.674161 85.824 
L 292.600551 80.19656 
L 292.806625 79.55168 
L 293.200917 78.584091 
L 293.735319 76.9536 
L 294.313652 74.841309 
L 294.410642 74.35552 
L 295.5623 70.291234 
L 296.151269 68.0832 
L 297.579 62.337349 
L 297.696368 61.81088 
L 297.751015 61.514731 
L 298.374527 59.2128 
L 298.594927 58.163333 
L 298.717875 57.349732 
L 298.880368 56.61472 
L 299.327117 54.17262 
L 300.155815 50.3424 
L 300.635028 47.945423 
L 301.344966 44.07008 
L 301.644737 42.006548 
L 301.751404 41.472 
L 294.72768 41.472 
L 286.63296 41.472 
L 278.53824 41.472 
L 270.44352 41.472 
L 262.3488 41.472 
L 254.25408 41.472 
L 246.15936 41.472 
L 238.06464 41.472 
L 229.96992 41.472 
L 221.8752 41.472 
L 213.78048 41.472 
L 205.68576 41.472 
" clip-path="url(#p24479792ad)" style="fill: #a4ff53"/>
   </g>
   <g id="PathCollection_17">
    <path d="M 301.751404 41.472 
L 301.644737 42.006548 
L 301.344966 44.07008 
L 300.635028 47.945423 
L 300.155815 50.3424 
L 299.327117 54.17262 
L 298.880368 56.61472 
L 298.717875 57.349732 
L 298.594927 58.163333 
L 298.374527 59.2128 
L 297.751015 61.514731 
L 297.696368 61.81088 
L 297.579 62.337349 
L 296.151269 68.0832 
L 295.5623 70.291234 
L 294.410642 74.35552 
L 294.313652 74.841309 
L 293.735319 76.9536 
L 293.200917 78.584091 
L 292.806625 79.55168 
L 292.600551 80.19656 
L 290.674161 85.824 
L 289.521678 88.98953 
L 288.243185 92.09632 
L 287.174782 94.448464 
L 287.085221 94.6944 
L 287.008349 94.864791 
L 285.94377 97.29248 
L 284.203049 100.902042 
L 282.744106 103.5648 
L 280.202289 107.967136 
L 279.026597 109.83712 
L 278.699704 110.465775 
L 277.40874 112.4352 
L 275.649055 114.798022 
L 275.47134 115.03328 
L 270.42698 121.287475 
L 270.410205 121.3056 
L 264.611876 127.292697 
L 264.304927 127.57792 
L 263.48277 128.447999 
L 261.49164 130.176 
L 259.861904 131.568138 
L 258.874353 132.273169 
L 258.220962 132.77408 
L 252.406523 137.0218 
L 249.142201 139.0464 
L 246.707543 140.49665 
L 245.346031 141.198107 
L 241.866475 143.212547 
L 237.523314 145.31872 
L 234.967307 146.510903 
L 231.74022 147.9168 
L 228.050614 149.449842 
L 226.473089 150.003808 
L 225.088233 150.51488 
L 218.345105 152.918832 
L 214.865393 153.917 
L 212.943189 154.572098 
L 205.885649 156.568157 
L 205.577392 156.668448 
L 205.127119 156.7872 
L 198.25396 158.540991 
L 196.817624 158.833316 
L 192.384892 159.95257 
L 185.341307 161.340369 
L 183.305488 161.824044 
L 179.202129 162.606026 
L 178.72046 162.719539 
L 176.885196 163.05952 
L 170.229993 164.260983 
L 161.633137 165.6576 
L 158.876944 166.094396 
L 158.25881 166.175674 
L 154.991216 166.622705 
L 148.664892 167.578278 
L 145.922477 167.924622 
L 143.39834 168.25568 
L 136.063195 169.197023 
L 134.80583 169.309507 
L 131.040171 169.784229 
L 128.890918 169.97774 
L 121.428718 170.900991 
L 117.89837 171.20907 
L 115.4997 171.501113 
L 110.946343 171.901062 
L 106.624021 172.418428 
L 101.072779 172.892043 
L 100.4544 172.957836 
L 100.4544 174.528 
L 100.4544 183.3984 
L 100.4544 192.2688 
L 100.4544 201.1392 
L 100.4544 210.0096 
L 100.4544 213.526689 
L 101.847852 213.696056 
L 104.937564 213.967235 
L 113.043017 214.934126 
L 114.723269 215.090579 
L 118.753793 215.591599 
L 119.573035 215.670114 
L 124.289284 216.28192 
L 129.103037 216.898939 
L 131.484015 217.205446 
L 140.042989 218.478288 
L 141.395942 218.667598 
L 142.734647 218.88 
L 153.346419 220.591688 
L 158.230516 221.47808 
L 162.193987 222.187391 
L 163.19255 222.407407 
L 166.964234 223.115188 
L 169.628145 223.719148 
L 175.863843 224.948415 
L 180.795738 226.147559 
L 181.919294 226.38081 
L 187.37912 227.7504 
L 189.109009 228.174825 
L 190.169143 228.487696 
L 196.662961 230.205686 
L 198.7671 230.861733 
L 202.031357 231.754988 
L 208.893161 234.02272 
L 210.360253 234.499021 
L 212.036044 235.044346 
L 216.276965 236.6208 
L 218.582961 237.438096 
L 219.371433 237.757274 
L 222.971673 239.21888 
L 226.365471 240.570647 
L 228.486732 241.567341 
L 231.041388 242.65657 
L 236.824535 245.4912 
L 237.688566 245.903311 
L 239.223918 246.761567 
L 244.601814 249.611777 
L 248.160843 251.76352 
L 250.898486 253.528576 
L 252.274826 254.3616 
L 253.108938 254.881386 
L 256.107867 256.95968 
L 258.499835 258.579393 
L 261.484593 260.94569 
L 262.834007 261.948357 
L 264.360295 263.232 
L 267.849075 266.075059 
L 271.427956 269.50432 
L 272.979721 270.951204 
L 273.416134 271.364451 
L 274.066293 272.1024 
L 276.509384 274.615571 
L 276.577684 274.70048 
L 279.65021 278.031022 
L 282.061274 280.9728 
L 284.263769 283.569019 
L 286.889034 287.24512 
L 288.264182 289.102779 
L 288.728658 289.8432 
L 289.628324 291.202813 
L 290.486787 292.44128 
L 291.311476 293.586763 
L 294.402821 298.7136 
L 294.605418 299.03705 
L 295.369167 300.41069 
L 297.63274 304.400562 
L 297.902921 304.98592 
L 298.131161 305.45462 
L 299.244261 307.584 
L 302.8224 307.584 
L 310.91712 307.584 
L 319.01184 307.584 
L 327.10656 307.584 
L 335.20128 307.584 
L 343.296 307.584 
L 343.296 298.7136 
L 343.296 289.8432 
L 343.296 280.9728 
L 343.296 272.1024 
L 343.296 263.232 
L 343.296 254.3616 
L 343.296 245.4912 
L 343.296 236.6208 
L 343.296 227.7504 
L 343.296 218.88 
L 343.296 210.0096 
L 343.296 201.1392 
L 343.296 192.2688 
L 343.296 183.3984 
L 343.296 174.528 
L 343.296 165.6576 
L 343.296 156.7872 
L 343.296 147.9168 
L 343.296 139.0464 
L 343.296 130.176 
L 343.296 121.3056 
L 343.296 112.4352 
L 343.296 103.5648 
L 343.296 94.6944 
L 343.296 85.824 
L 343.296 76.9536 
L 343.296 68.0832 
L 343.296 59.2128 
L 343.296 50.3424 
L 343.296 41.472 
L 335.20128 41.472 
L 327.10656 41.472 
L 319.01184 41.472 
L 310.91712 41.472 
L 302.8224 41.472 
" clip-path="url(#p24479792ad)" style="fill: #f8f500"/>
   </g>
   <g id="PathCollection_18">
    <path d="M 299.244261 307.584 
L 298.131161 305.45462 
L 297.902921 304.98592 
L 297.63274 304.400562 
L 295.369167 300.41069 
L 294.605418 299.03705 
L 294.402821 298.7136 
L 291.311476 293.586763 
L 290.486787 292.44128 
L 289.628324 291.202813 
L 288.728658 289.8432 
L 288.264182 289.102779 
L 286.889034 287.24512 
L 284.263769 283.569019 
L 282.061274 280.9728 
L 279.65021 278.031022 
L 276.577684 274.70048 
L 276.509384 274.615571 
L 274.066293 272.1024 
L 273.416134 271.364451 
L 272.979721 270.951204 
L 271.427956 269.50432 
L 267.849075 266.075059 
L 264.360295 263.232 
L 262.834007 261.948357 
L 261.484593 260.94569 
L 258.499835 258.579393 
L 256.107867 256.95968 
L 253.108938 254.881386 
L 252.274826 254.3616 
L 250.898486 253.528576 
L 248.160843 251.76352 
L 244.601814 249.611777 
L 239.223918 246.761567 
L 237.688566 245.903311 
L 236.824535 245.4912 
L 231.041388 242.65657 
L 228.486732 241.567341 
L 226.365471 240.570647 
L 222.971673 239.21888 
L 219.371433 237.757274 
L 218.582961 237.438096 
L 216.276965 236.6208 
L 212.036044 235.044346 
L 210.360253 234.499021 
L 208.893161 234.02272 
L 202.031357 231.754988 
L 198.7671 230.861733 
L 196.662961 230.205686 
L 190.169143 228.487696 
L 189.109009 228.174825 
L 187.37912 227.7504 
L 181.919294 226.38081 
L 180.795738 226.147559 
L 175.863843 224.948415 
L 169.628145 223.719148 
L 166.964234 223.115188 
L 163.19255 222.407407 
L 162.193987 222.187391 
L 158.230516 221.47808 
L 153.346419 220.591688 
L 142.734647 218.88 
L 141.395942 218.667598 
L 140.042989 218.478288 
L 131.484015 217.205446 
L 129.103037 216.898939 
L 124.289284 216.28192 
L 119.573035 215.670114 
L 118.753793 215.591599 
L 114.723269 215.090579 
L 113.043017 214.934126 
L 104.937564 213.967235 
L 101.847852 213.696056 
L 100.4544 213.526689 
L 100.4544 218.88 
L 100.4544 227.7504 
L 100.4544 236.6208 
L 100.4544 245.4912 
L 100.4544 250.870613 
L 102.699698 251.431263 
L 103.054864 251.511946 
L 104.037899 251.76352 
L 110.593529 253.433631 
L 111.427631 253.647012 
L 114.016768 254.3616 
L 120.696683 256.196231 
L 123.30973 256.95968 
L 128.963195 258.602538 
L 131.376985 259.37929 
L 133.992208 260.165989 
L 139.907315 262.113508 
L 141.496618 262.608894 
L 143.29433 263.232 
L 148.364639 264.972991 
L 149.897143 265.545335 
L 153.765149 266.905525 
L 160.449164 269.50432 
L 161.743077 270.002797 
L 166.858166 272.1024 
L 169.304986 273.095867 
L 170.228761 273.499576 
L 172.942818 274.70048 
L 177.293335 276.604341 
L 180.296074 278.048069 
L 182.181066 278.91068 
L 186.341561 280.9728 
L 188.522827 282.039579 
L 192.338049 284.086839 
L 195.742945 285.862041 
L 198.197054 287.24512 
L 200.380123 288.526079 
L 202.696478 289.8432 
L 204.021133 290.598784 
L 207.014938 292.44128 
L 209.846386 294.154281 
L 212.798336 296.115281 
L 214.379929 297.127724 
L 216.675733 298.7136 
L 219.887228 300.89207 
L 225.369277 304.98592 
L 226.223996 305.610057 
L 228.735356 307.584 
L 229.96992 307.584 
L 238.06464 307.584 
L 246.15936 307.584 
L 254.25408 307.584 
L 262.3488 307.584 
L 270.44352 307.584 
L 278.53824 307.584 
L 286.63296 307.584 
L 294.72768 307.584 
" clip-path="url(#p24479792ad)" style="fill: #ff9400"/>
   </g>
   <g id="PathCollection_19">
    <path d="M 228.735356 307.584 
L 226.223996 305.610057 
L 225.369277 304.98592 
L 219.887228 300.89207 
L 216.675733 298.7136 
L 214.379929 297.127724 
L 212.798336 296.115281 
L 209.846386 294.154281 
L 207.014938 292.44128 
L 204.021133 290.598784 
L 202.696478 289.8432 
L 200.380123 288.526079 
L 198.197054 287.24512 
L 195.742945 285.862041 
L 192.338049 284.086839 
L 188.522827 282.039579 
L 186.341561 280.9728 
L 182.181066 278.91068 
L 180.296074 278.048069 
L 177.293335 276.604341 
L 172.942818 274.70048 
L 170.228761 273.499576 
L 169.304986 273.095867 
L 166.858166 272.1024 
L 161.743077 270.002797 
L 160.449164 269.50432 
L 153.765149 266.905525 
L 149.897143 265.545335 
L 148.364639 264.972991 
L 143.29433 263.232 
L 141.496618 262.608894 
L 139.907315 262.113508 
L 133.992208 260.165989 
L 131.376985 259.37929 
L 128.963195 258.602538 
L 123.30973 256.95968 
L 120.696683 256.196231 
L 114.016768 254.3616 
L 111.427631 253.647012 
L 110.593529 253.433631 
L 104.037899 251.76352 
L 103.054864 251.511946 
L 102.699698 251.431263 
L 100.4544 250.870613 
L 100.4544 254.3616 
L 100.4544 263.232 
L 100.4544 272.1024 
L 100.4544 280.9728 
L 100.4544 287.464059 
L 102.098756 288.041272 
L 107.003407 289.8432 
L 107.856912 290.157397 
L 113.833169 292.44128 
L 114.158979 292.566174 
L 114.34923 292.64308 
L 118.342695 294.219182 
L 122.028686 295.744051 
L 125.983312 297.349569 
L 129.151108 298.7136 
L 132.31551 300.083391 
L 133.564944 300.649259 
L 137.550114 302.415173 
L 143.027249 304.98592 
L 144.812217 305.820931 
L 148.427687 307.584 
L 149.02272 307.584 
L 157.11744 307.584 
L 165.21216 307.584 
L 173.30688 307.584 
L 181.4016 307.584 
L 189.49632 307.584 
L 197.59104 307.584 
L 205.68576 307.584 
L 213.78048 307.584 
L 221.8752 307.584 
" clip-path="url(#p24479792ad)" style="fill: #ff3800"/>
   </g>
   <g id="PathCollection_20">
    <path d="M 148.427687 307.584 
L 144.812217 305.820931 
L 143.027249 304.98592 
L 137.550114 302.415173 
L 133.564944 300.649259 
L 132.31551 300.083391 
L 129.151108 298.7136 
L 125.983312 297.349569 
L 122.028686 295.744051 
L 118.342695 294.219182 
L 114.34923 292.64308 
L 114.158979 292.566174 
L 113.833169 292.44128 
L 107.856912 290.157397 
L 107.003407 289.8432 
L 102.098756 288.041272 
L 100.4544 287.464059 
L 100.4544 289.8432 
L 100.4544 298.7136 
L 100.4544 307.584 
L 108.54912 307.584 
L 116.64384 307.584 
L 124.73856 307.584 
L 132.83328 307.584 
L 140.928 307.584 
" clip-path="url(#p24479792ad)" style="fill: #b60000"/>
   </g>
   <g id="matplotlib.axis_1">
    <g id="xtick_1">
     <g id="line2d_1">
      <defs>
       <path id="m2510ff9305" d="M 0 0 
L 0 3.5 
" style="stroke: #000000; stroke-width: 0.8"/>
      </defs>
      <g>
       <use xlink:href="#m2510ff9305" x="57.6" y="307.584" style="stroke: #000000; stroke-width: 0.8"/>
      </g>
     </g>
     <g id="text_1">
      <!-- 0.0 -->
      <g transform="translate(51.26875 321.385562) scale(0.1 -0.1)">
       <defs>
        <path id="Calibri-30" d="M 3022 2031 
Q 3022 1566 2948 1181 
Q 2875 797 2704 520 
Q 2534 244 2259 92 
Q 1984 -59 1581 -59 
Q 1200 -59 939 77 
Q 678 213 518 477 
Q 359 741 292 1127 
Q 225 1513 225 2013 
Q 225 2475 300 2861 
Q 375 3247 544 3523 
Q 713 3800 988 3951 
Q 1263 4103 1663 4103 
Q 2047 4103 2308 3967 
Q 2569 3831 2728 3567 
Q 2888 3303 2955 2917 
Q 3022 2531 3022 2031 
z
M 2472 1994 
Q 2472 2297 2450 2537 
Q 2428 2778 2386 2962 
Q 2344 3147 2276 3280 
Q 2209 3413 2115 3498 
Q 2022 3584 1901 3623 
Q 1781 3663 1631 3663 
Q 1366 3663 1200 3538 
Q 1034 3413 939 3194 
Q 844 2975 809 2681 
Q 775 2388 775 2050 
Q 775 1597 822 1280 
Q 869 963 970 763 
Q 1072 563 1230 472 
Q 1388 381 1613 381 
Q 1788 381 1920 437 
Q 2053 494 2148 598 
Q 2244 703 2306 850 
Q 2369 997 2406 1175 
Q 2444 1353 2458 1561 
Q 2472 1769 2472 1994 
z
" transform="scale(0.015625)"/>
        <path id="Calibri-2e" d="M 1144 341 
Q 1144 119 1070 45 
Q 997 -28 803 -28 
Q 616 -28 544 44 
Q 472 116 472 331 
Q 472 553 545 626 
Q 619 700 813 700 
Q 1000 700 1072 628 
Q 1144 556 1144 341 
z
" transform="scale(0.015625)"/>
       </defs>
       <use xlink:href="#Calibri-30"/>
       <use xlink:href="#Calibri-2e" x="50.683594"/>
       <use xlink:href="#Calibri-30" x="75.927734"/>
      </g>
     </g>
    </g>
    <g id="xtick_2">
     <g id="line2d_2">
      <g>
       <use xlink:href="#m2510ff9305" x="86.1696" y="307.584" style="stroke: #000000; stroke-width: 0.8"/>
      </g>
     </g>
     <g id="text_2">
      <!-- 0.1 -->
      <g transform="translate(79.83835 321.385562) scale(0.1 -0.1)">
       <defs>
        <path id="Calibri-31" d="M 2897 213 
Q 2897 153 2887 112 
Q 2878 72 2862 47 
Q 2847 22 2826 11 
Q 2806 0 2784 0 
L 672 0 
Q 650 0 631 11 
Q 613 22 595 47 
Q 578 72 568 112 
Q 559 153 559 213 
Q 559 269 568 309 
Q 578 350 592 376 
Q 606 403 626 417 
Q 647 431 672 431 
L 1516 431 
L 1516 3506 
L 734 3041 
Q 675 3009 639 3003 
Q 603 2997 581 3017 
Q 559 3038 551 3084 
Q 544 3131 544 3203 
Q 544 3256 548 3293 
Q 553 3331 562 3356 
Q 572 3381 589 3400 
Q 606 3419 634 3438 
L 1566 4034 
Q 1578 4044 1597 4050 
Q 1616 4056 1644 4062 
Q 1672 4069 1709 4070 
Q 1747 4072 1803 4072 
Q 1878 4072 1928 4065 
Q 1978 4059 2006 4048 
Q 2034 4038 2043 4020 
Q 2053 4003 2053 3984 
L 2053 431 
L 2784 431 
Q 2809 431 2831 417 
Q 2853 403 2867 376 
Q 2881 350 2889 309 
Q 2897 269 2897 213 
z
" transform="scale(0.015625)"/>
       </defs>
       <use xlink:href="#Calibri-30"/>
       <use xlink:href="#Calibri-2e" x="50.683594"/>
       <use xlink:href="#Calibri-31" x="75.927734"/>
      </g>
     </g>
    </g>
    <g id="xtick_3">
     <g id="line2d_3">
      <g>
       <use xlink:href="#m2510ff9305" x="114.7392" y="307.584" style="stroke: #000000; stroke-width: 0.8"/>
      </g>
     </g>
     <g id="text_3">
      <!-- 0.2 -->
      <g transform="translate(108.40795 321.385562) scale(0.1 -0.1)">
       <defs>
        <path id="Calibri-32" d="M 2888 231 
Q 2888 175 2880 131 
Q 2872 88 2858 58 
Q 2844 28 2820 14 
Q 2797 0 2769 0 
L 534 0 
Q 491 0 458 11 
Q 425 22 401 47 
Q 378 72 367 119 
Q 356 166 356 234 
Q 356 297 361 344 
Q 366 391 381 427 
Q 397 463 420 498 
Q 444 534 481 575 
L 1266 1406 
Q 1538 1694 1702 1922 
Q 1866 2150 1955 2337 
Q 2044 2525 2072 2678 
Q 2100 2831 2100 2966 
Q 2100 3100 2056 3220 
Q 2013 3341 1930 3431 
Q 1847 3522 1722 3575 
Q 1597 3628 1434 3628 
Q 1244 3628 1092 3575 
Q 941 3522 827 3459 
Q 713 3397 636 3344 
Q 559 3291 522 3291 
Q 500 3291 483 3303 
Q 466 3316 455 3344 
Q 444 3372 437 3419 
Q 431 3466 431 3531 
Q 431 3578 434 3612 
Q 438 3647 445 3672 
Q 453 3697 465 3719 
Q 478 3741 515 3773 
Q 553 3806 645 3862 
Q 738 3919 877 3973 
Q 1016 4028 1183 4065 
Q 1350 4103 1534 4103 
Q 1828 4103 2048 4020 
Q 2269 3938 2414 3794 
Q 2559 3650 2631 3459 
Q 2703 3269 2703 3053 
Q 2703 2859 2668 2667 
Q 2634 2475 2523 2251 
Q 2413 2028 2203 1754 
Q 1994 1481 1647 1125 
L 1006 456 
L 2766 456 
Q 2791 456 2814 442 
Q 2838 428 2855 400 
Q 2872 372 2880 330 
Q 2888 288 2888 231 
z
" transform="scale(0.015625)"/>
       </defs>
       <use xlink:href="#Calibri-30"/>
       <use xlink:href="#Calibri-2e" x="50.683594"/>
       <use xlink:href="#Calibri-32" x="75.927734"/>
      </g>
     </g>
    </g>
    <g id="xtick_4">
     <g id="line2d_4">
      <g>
       <use xlink:href="#m2510ff9305" x="143.3088" y="307.584" style="stroke: #000000; stroke-width: 0.8"/>
      </g>
     </g>
     <g id="text_4">
      <!-- 0.3 -->
      <g transform="translate(136.97755 321.385562) scale(0.1 -0.1)">
       <defs>
        <path id="Calibri-33" d="M 2856 1156 
Q 2856 878 2759 654 
Q 2663 431 2481 272 
Q 2300 113 2034 27 
Q 1769 -59 1434 -59 
Q 1231 -59 1054 -26 
Q 878 6 740 51 
Q 603 97 512 145 
Q 422 194 398 216 
Q 375 238 362 259 
Q 350 281 340 312 
Q 331 344 326 389 
Q 322 434 322 500 
Q 322 613 344 656 
Q 366 700 406 700 
Q 434 700 517 650 
Q 600 600 729 542 
Q 859 484 1032 434 
Q 1206 384 1419 384 
Q 1625 384 1781 437 
Q 1938 491 2044 587 
Q 2150 684 2203 817 
Q 2256 950 2256 1106 
Q 2256 1278 2189 1415 
Q 2122 1553 1992 1653 
Q 1863 1753 1673 1806 
Q 1484 1859 1244 1859 
L 859 1859 
Q 834 1859 811 1870 
Q 788 1881 770 1906 
Q 753 1931 742 1972 
Q 731 2013 731 2078 
Q 731 2138 740 2177 
Q 750 2216 767 2239 
Q 784 2263 806 2273 
Q 828 2284 856 2284 
L 1209 2284 
Q 1416 2284 1580 2337 
Q 1744 2391 1858 2491 
Q 1972 2591 2033 2730 
Q 2094 2869 2094 3041 
Q 2094 3166 2053 3280 
Q 2013 3394 1931 3478 
Q 1850 3563 1723 3611 
Q 1597 3659 1431 3659 
Q 1250 3659 1098 3604 
Q 947 3550 828 3487 
Q 709 3425 631 3370 
Q 553 3316 522 3316 
Q 500 3316 483 3323 
Q 466 3331 455 3354 
Q 444 3378 439 3420 
Q 434 3463 434 3531 
Q 434 3578 437 3614 
Q 441 3650 450 3676 
Q 459 3703 471 3725 
Q 484 3747 514 3776 
Q 544 3806 634 3862 
Q 725 3919 858 3973 
Q 991 4028 1164 4065 
Q 1338 4103 1538 4103 
Q 1819 4103 2031 4031 
Q 2244 3959 2386 3828 
Q 2528 3697 2598 3514 
Q 2669 3331 2669 3109 
Q 2669 2919 2619 2755 
Q 2569 2591 2472 2464 
Q 2375 2338 2234 2248 
Q 2094 2159 1909 2125 
L 1909 2119 
Q 2119 2097 2292 2014 
Q 2466 1931 2591 1806 
Q 2716 1681 2786 1514 
Q 2856 1347 2856 1156 
z
" transform="scale(0.015625)"/>
       </defs>
       <use xlink:href="#Calibri-30"/>
       <use xlink:href="#Calibri-2e" x="50.683594"/>
       <use xlink:href="#Calibri-33" x="75.927734"/>
      </g>
     </g>
    </g>
    <g id="xtick_5">
     <g id="line2d_5">
      <g>
       <use xlink:href="#m2510ff9305" x="171.8784" y="307.584" style="stroke: #000000; stroke-width: 0.8"/>
      </g>
     </g>
     <g id="text_5">
      <!-- 0.4 -->
      <g transform="translate(165.54715 321.385562) scale(0.1 -0.1)">
       <defs>
        <path id="Calibri-34" d="M 3059 1150 
Q 3059 1047 3028 987 
Q 2997 928 2941 928 
L 2484 928 
L 2484 78 
Q 2484 53 2471 36 
Q 2459 19 2428 6 
Q 2397 -6 2347 -12 
Q 2297 -19 2219 -19 
Q 2144 -19 2094 -12 
Q 2044 -6 2014 6 
Q 1984 19 1973 36 
Q 1963 53 1963 78 
L 1963 928 
L 294 928 
Q 256 928 231 937 
Q 206 947 186 972 
Q 166 997 158 1044 
Q 150 1091 150 1166 
Q 150 1225 153 1272 
Q 156 1319 165 1358 
Q 175 1397 190 1433 
Q 206 1469 228 1509 
L 1684 3966 
Q 1700 3991 1729 4009 
Q 1759 4028 1806 4040 
Q 1853 4053 1922 4058 
Q 1991 4063 2084 4063 
Q 2188 4063 2264 4055 
Q 2341 4047 2387 4034 
Q 2434 4022 2459 4001 
Q 2484 3981 2484 3953 
L 2484 1372 
L 2941 1372 
Q 2994 1372 3026 1317 
Q 3059 1263 3059 1150 
z
M 1963 3591 
L 1956 3591 
L 641 1372 
L 1963 1372 
L 1963 3591 
z
" transform="scale(0.015625)"/>
       </defs>
       <use xlink:href="#Calibri-30"/>
       <use xlink:href="#Calibri-2e" x="50.683594"/>
       <use xlink:href="#Calibri-34" x="75.927734"/>
      </g>
     </g>
    </g>
    <g id="xtick_6">
     <g id="line2d_6">
      <g>
       <use xlink:href="#m2510ff9305" x="200.448" y="307.584" style="stroke: #000000; stroke-width: 0.8"/>
      </g>
     </g>
     <g id="text_6">
      <!-- 0.5 -->
      <g transform="translate(194.11675 321.385562) scale(0.1 -0.1)">
       <defs>
        <path id="Calibri-35" d="M 2869 1300 
Q 2869 975 2759 722 
Q 2650 469 2450 295 
Q 2250 122 1973 31 
Q 1697 -59 1359 -59 
Q 1172 -59 1003 -32 
Q 834 -6 703 33 
Q 572 72 487 109 
Q 403 147 379 169 
Q 356 191 347 209 
Q 338 228 330 254 
Q 322 281 319 322 
Q 316 363 316 419 
Q 316 472 320 514 
Q 325 556 337 582 
Q 350 609 367 621 
Q 384 634 406 634 
Q 438 634 503 595 
Q 569 556 680 511 
Q 791 466 955 425 
Q 1119 384 1344 384 
Q 1553 384 1728 434 
Q 1903 484 2029 590 
Q 2156 697 2228 858 
Q 2300 1019 2300 1250 
Q 2300 1444 2239 1592 
Q 2178 1741 2051 1839 
Q 1925 1938 1731 1986 
Q 1538 2034 1269 2034 
Q 1078 2034 940 2015 
Q 803 1997 684 1997 
Q 597 1997 559 2037 
Q 522 2078 522 2194 
L 522 3841 
Q 522 3944 570 3994 
Q 619 4044 709 4044 
L 2500 4044 
Q 2525 4044 2548 4030 
Q 2572 4016 2587 3987 
Q 2603 3959 2611 3915 
Q 2619 3872 2619 3813 
Q 2619 3700 2587 3637 
Q 2556 3575 2500 3575 
L 991 3575 
L 991 2441 
Q 1100 2456 1214 2459 
Q 1328 2463 1478 2463 
Q 1825 2463 2084 2380 
Q 2344 2297 2517 2145 
Q 2691 1994 2780 1778 
Q 2869 1563 2869 1300 
z
" transform="scale(0.015625)"/>
       </defs>
       <use xlink:href="#Calibri-30"/>
       <use xlink:href="#Calibri-2e" x="50.683594"/>
       <use xlink:href="#Calibri-35" x="75.927734"/>
      </g>
     </g>
    </g>
    <g id="xtick_7">
     <g id="line2d_7">
      <g>
       <use xlink:href="#m2510ff9305" x="229.0176" y="307.584" style="stroke: #000000; stroke-width: 0.8"/>
      </g>
     </g>
     <g id="text_7">
      <!-- 0.6 -->
      <g transform="translate(222.68635 321.385562) scale(0.1 -0.1)">
       <defs>
        <path id="Calibri-36" d="M 2991 1309 
Q 2991 1044 2909 795 
Q 2828 547 2659 358 
Q 2491 169 2231 55 
Q 1972 -59 1619 -59 
Q 1366 -59 1172 3 
Q 978 66 834 181 
Q 691 297 595 465 
Q 500 634 442 850 
Q 384 1066 359 1322 
Q 334 1578 334 1872 
Q 334 2131 362 2397 
Q 391 2663 462 2909 
Q 534 3156 657 3373 
Q 781 3591 967 3752 
Q 1153 3913 1412 4006 
Q 1672 4100 2016 4100 
Q 2131 4100 2250 4086 
Q 2369 4072 2469 4048 
Q 2569 4025 2637 3997 
Q 2706 3969 2728 3951 
Q 2750 3934 2761 3914 
Q 2772 3894 2778 3870 
Q 2784 3847 2787 3817 
Q 2791 3788 2791 3744 
Q 2791 3688 2789 3647 
Q 2788 3606 2777 3581 
Q 2766 3556 2748 3543 
Q 2731 3531 2703 3531 
Q 2669 3531 2609 3553 
Q 2550 3575 2465 3601 
Q 2381 3628 2261 3650 
Q 2141 3672 1981 3672 
Q 1691 3672 1481 3553 
Q 1272 3434 1139 3234 
Q 1006 3034 942 2770 
Q 878 2506 869 2219 
Q 950 2266 1051 2312 
Q 1153 2359 1273 2396 
Q 1394 2434 1528 2457 
Q 1663 2481 1816 2481 
Q 2144 2481 2369 2392 
Q 2594 2303 2733 2145 
Q 2872 1988 2931 1773 
Q 2991 1559 2991 1309 
z
M 2447 1259 
Q 2447 1441 2411 1589 
Q 2375 1738 2290 1841 
Q 2206 1944 2065 2000 
Q 1925 2056 1719 2056 
Q 1603 2056 1487 2036 
Q 1372 2016 1264 1980 
Q 1156 1944 1057 1895 
Q 959 1847 878 1791 
Q 878 1388 929 1116 
Q 981 844 1079 680 
Q 1178 516 1325 445 
Q 1472 375 1669 375 
Q 1869 375 2016 450 
Q 2163 525 2259 651 
Q 2356 778 2401 936 
Q 2447 1094 2447 1259 
z
" transform="scale(0.015625)"/>
       </defs>
       <use xlink:href="#Calibri-30"/>
       <use xlink:href="#Calibri-2e" x="50.683594"/>
       <use xlink:href="#Calibri-36" x="75.927734"/>
      </g>
     </g>
    </g>
    <g id="xtick_8">
     <g id="line2d_8">
      <g>
       <use xlink:href="#m2510ff9305" x="257.5872" y="307.584" style="stroke: #000000; stroke-width: 0.8"/>
      </g>
     </g>
     <g id="text_8">
      <!-- 0.7 -->
      <g transform="translate(251.25595 321.385562) scale(0.1 -0.1)">
       <defs>
        <path id="Calibri-37" d="M 2947 3813 
Q 2947 3756 2942 3711 
Q 2938 3666 2930 3623 
Q 2922 3581 2908 3542 
Q 2894 3503 2875 3459 
L 1419 103 
Q 1403 66 1379 42 
Q 1356 19 1320 5 
Q 1284 -9 1228 -14 
Q 1172 -19 1091 -19 
Q 984 -19 925 -9 
Q 866 0 839 20 
Q 813 41 816 70 
Q 819 100 838 141 
L 2369 3572 
L 428 3572 
Q 369 3572 339 3634 
Q 309 3697 309 3809 
Q 309 3869 317 3912 
Q 325 3956 340 3986 
Q 356 4016 378 4030 
Q 400 4044 428 4044 
L 2784 4044 
Q 2828 4044 2861 4034 
Q 2894 4025 2911 3997 
Q 2928 3969 2937 3925 
Q 2947 3881 2947 3813 
z
" transform="scale(0.015625)"/>
       </defs>
       <use xlink:href="#Calibri-30"/>
       <use xlink:href="#Calibri-2e" x="50.683594"/>
       <use xlink:href="#Calibri-37" x="75.927734"/>
      </g>
     </g>
    </g>
    <g id="xtick_9">
     <g id="line2d_9">
      <g>
       <use xlink:href="#m2510ff9305" x="286.1568" y="307.584" style="stroke: #000000; stroke-width: 0.8"/>
      </g>
     </g>
     <g id="text_9">
      <!-- 0.8 -->
      <g transform="translate(279.82555 321.385562) scale(0.1 -0.1)">
       <defs>
        <path id="Calibri-38" d="M 2981 1038 
Q 2981 775 2887 570 
Q 2794 366 2617 225 
Q 2441 84 2181 12 
Q 1922 -59 1588 -59 
Q 1275 -59 1028 6 
Q 781 72 609 200 
Q 438 328 347 515 
Q 256 703 256 944 
Q 256 1134 318 1293 
Q 381 1453 498 1587 
Q 616 1722 787 1839 
Q 959 1956 1175 2063 
Q 988 2159 844 2267 
Q 700 2375 600 2501 
Q 500 2628 448 2772 
Q 397 2916 397 3084 
Q 397 3297 473 3483 
Q 550 3669 704 3806 
Q 859 3944 1098 4023 
Q 1338 4103 1656 4103 
Q 1963 4103 2186 4029 
Q 2409 3956 2554 3829 
Q 2700 3703 2769 3531 
Q 2838 3359 2838 3163 
Q 2838 3003 2786 2856 
Q 2734 2709 2634 2578 
Q 2534 2447 2389 2333 
Q 2244 2219 2056 2119 
Q 2278 2009 2451 1893 
Q 2625 1778 2742 1645 
Q 2859 1513 2920 1364 
Q 2981 1216 2981 1038 
z
M 2306 3113 
Q 2306 3244 2261 3350 
Q 2216 3456 2128 3531 
Q 2041 3606 1911 3645 
Q 1781 3684 1616 3684 
Q 1278 3684 1104 3531 
Q 931 3378 931 3113 
Q 931 2991 973 2886 
Q 1016 2781 1105 2687 
Q 1194 2594 1330 2505 
Q 1466 2416 1653 2319 
Q 1969 2481 2137 2678 
Q 2306 2875 2306 3113 
z
M 2438 981 
Q 2438 1125 2384 1242 
Q 2331 1359 2223 1461 
Q 2116 1563 1955 1658 
Q 1794 1753 1581 1856 
Q 1384 1759 1236 1662 
Q 1088 1566 992 1462 
Q 897 1359 848 1245 
Q 800 1131 800 994 
Q 800 691 1008 525 
Q 1216 359 1628 359 
Q 2028 359 2233 526 
Q 2438 694 2438 981 
z
" transform="scale(0.015625)"/>
       </defs>
       <use xlink:href="#Calibri-30"/>
       <use xlink:href="#Calibri-2e" x="50.683594"/>
       <use xlink:href="#Calibri-38" x="75.927734"/>
      </g>
     </g>
    </g>
    <g id="xtick_10">
     <g id="line2d_10">
      <g>
       <use xlink:href="#m2510ff9305" x="314.7264" y="307.584" style="stroke: #000000; stroke-width: 0.8"/>
      </g>
     </g>
     <g id="text_10">
      <!-- 0.9 -->
      <g transform="translate(308.39515 321.385562) scale(0.1 -0.1)">
       <defs>
        <path id="Calibri-39" d="M 2919 2181 
Q 2919 1919 2887 1650 
Q 2856 1381 2781 1132 
Q 2706 884 2579 667 
Q 2453 450 2261 287 
Q 2069 125 1805 33 
Q 1541 -59 1191 -59 
Q 1056 -59 929 -42 
Q 803 -25 701 0 
Q 600 25 531 53 
Q 463 81 431 109 
Q 400 138 386 186 
Q 372 234 372 316 
Q 372 384 376 425 
Q 381 466 390 487 
Q 400 509 417 517 
Q 434 525 459 525 
Q 494 525 556 501 
Q 619 478 714 450 
Q 809 422 937 398 
Q 1066 375 1225 375 
Q 1528 375 1745 492 
Q 1963 609 2100 806 
Q 2238 1003 2306 1262 
Q 2375 1522 2381 1809 
Q 2216 1713 1984 1638 
Q 1753 1563 1453 1563 
Q 1116 1563 886 1655 
Q 656 1747 517 1906 
Q 378 2066 317 2284 
Q 256 2503 256 2763 
Q 256 3031 334 3273 
Q 413 3516 578 3700 
Q 744 3884 1000 3993 
Q 1256 4103 1613 4103 
Q 1866 4103 2061 4039 
Q 2256 3975 2400 3854 
Q 2544 3734 2644 3564 
Q 2744 3394 2805 3178 
Q 2866 2963 2892 2711 
Q 2919 2459 2919 2181 
z
M 2372 2241 
Q 2372 2641 2319 2914 
Q 2266 3188 2162 3356 
Q 2059 3525 1909 3600 
Q 1759 3675 1563 3675 
Q 1359 3675 1215 3601 
Q 1072 3528 980 3404 
Q 888 3281 844 3125 
Q 800 2969 800 2803 
Q 800 2619 839 2466 
Q 878 2313 965 2206 
Q 1053 2100 1193 2042 
Q 1334 1984 1541 1984 
Q 1775 1984 1994 2054 
Q 2213 2125 2372 2241 
z
" transform="scale(0.015625)"/>
       </defs>
       <use xlink:href="#Calibri-30"/>
       <use xlink:href="#Calibri-2e" x="50.683594"/>
       <use xlink:href="#Calibri-39" x="75.927734"/>
      </g>
     </g>
    </g>
    <g id="xtick_11">
     <g id="line2d_11">
      <g>
       <use xlink:href="#m2510ff9305" x="343.296" y="307.584" style="stroke: #000000; stroke-width: 0.8"/>
      </g>
     </g>
     <g id="text_11">
      <!-- 1.0 -->
      <g transform="translate(336.96475 321.385562) scale(0.1 -0.1)">
       <use xlink:href="#Calibri-31"/>
       <use xlink:href="#Calibri-2e" x="50.683594"/>
       <use xlink:href="#Calibri-30" x="75.927734"/>
      </g>
     </g>
    </g>
    <g id="text_12">
     <!-- $\mathit{p}$ (cm$^2$/cm$^2$) -->
     <g transform="translate(174.148 336.263687) scale(0.1 -0.1)">
      <defs>
       <path id="DejaVuSans-Oblique-70" d="M 3175 2156 
Q 3175 2616 2975 2859 
Q 2775 3103 2400 3103 
Q 2144 3103 1911 2972 
Q 1678 2841 1497 2591 
Q 1319 2344 1212 1994 
Q 1106 1644 1106 1300 
Q 1106 863 1306 627 
Q 1506 391 1875 391 
Q 2147 391 2380 519 
Q 2613 647 2778 891 
Q 2956 1147 3065 1494 
Q 3175 1841 3175 2156 
z
M 1394 2969 
Q 1625 3272 1939 3428 
Q 2253 3584 2638 3584 
Q 3175 3584 3472 3232 
Q 3769 2881 3769 2247 
Q 3769 1728 3584 1258 
Q 3400 788 3053 416 
Q 2822 169 2531 39 
Q 2241 -91 1919 -91 
Q 1547 -91 1294 64 
Q 1041 219 916 525 
L 556 -1331 
L -19 -1331 
L 922 3500 
L 1497 3500 
L 1394 2969 
z
" transform="scale(0.015625)"/>
       <path id="Calibri-20" transform="scale(0.015625)"/>
       <path id="Calibri-28" d="M 1547 4306 
Q 1250 3678 1104 3017 
Q 959 2356 959 1688 
Q 959 1016 1107 356 
Q 1256 -303 1541 -938 
Q 1556 -975 1557 -1001 
Q 1559 -1028 1537 -1045 
Q 1516 -1063 1470 -1070 
Q 1425 -1078 1347 -1078 
Q 1291 -1078 1250 -1075 
Q 1209 -1072 1179 -1062 
Q 1150 -1053 1131 -1040 
Q 1113 -1028 1103 -1013 
Q 934 -694 806 -367 
Q 678 -41 590 296 
Q 503 634 459 979 
Q 416 1325 416 1678 
Q 416 2031 464 2375 
Q 513 2719 602 3058 
Q 691 3397 819 3725 
Q 947 4053 1106 4375 
Q 1109 4388 1123 4397 
Q 1138 4406 1163 4415 
Q 1188 4425 1231 4429 
Q 1275 4434 1344 4434 
Q 1416 4434 1459 4425 
Q 1503 4416 1528 4400 
Q 1553 4384 1556 4359 
Q 1559 4334 1547 4306 
z
" transform="scale(0.015625)"/>
       <path id="Calibri-63" d="M 2500 506 
Q 2500 453 2497 414 
Q 2494 375 2486 348 
Q 2478 322 2467 301 
Q 2456 281 2417 242 
Q 2378 203 2284 145 
Q 2191 88 2073 42 
Q 1956 -3 1818 -31 
Q 1681 -59 1534 -59 
Q 1231 -59 997 41 
Q 763 141 605 333 
Q 447 525 364 804 
Q 281 1084 281 1450 
Q 281 1866 382 2164 
Q 484 2463 661 2653 
Q 838 2844 1077 2936 
Q 1316 3028 1594 3028 
Q 1728 3028 1854 3003 
Q 1981 2978 2087 2937 
Q 2194 2897 2276 2844 
Q 2359 2791 2396 2753 
Q 2434 2716 2448 2694 
Q 2463 2672 2472 2642 
Q 2481 2613 2484 2575 
Q 2488 2538 2488 2481 
Q 2488 2359 2459 2311 
Q 2431 2263 2391 2263 
Q 2344 2263 2283 2314 
Q 2222 2366 2128 2428 
Q 2034 2491 1901 2542 
Q 1769 2594 1588 2594 
Q 1216 2594 1017 2308 
Q 819 2022 819 1478 
Q 819 1206 870 1001 
Q 922 797 1022 659 
Q 1122 522 1267 455 
Q 1413 388 1600 388 
Q 1778 388 1912 444 
Q 2047 500 2145 567 
Q 2244 634 2311 689 
Q 2378 744 2416 744 
Q 2438 744 2453 731 
Q 2469 719 2480 689 
Q 2491 659 2495 614 
Q 2500 569 2500 506 
z
" transform="scale(0.015625)"/>
       <path id="Calibri-6d" d="M 4650 78 
Q 4650 53 4637 36 
Q 4625 19 4597 6 
Q 4569 -6 4519 -12 
Q 4469 -19 4394 -19 
Q 4316 -19 4266 -12 
Q 4216 -6 4186 6 
Q 4156 19 4143 36 
Q 4131 53 4131 78 
L 4131 1788 
Q 4131 1966 4100 2112 
Q 4069 2259 4000 2365 
Q 3931 2472 3825 2528 
Q 3719 2584 3575 2584 
Q 3397 2584 3217 2446 
Q 3038 2309 2822 2044 
L 2822 78 
Q 2822 53 2809 36 
Q 2797 19 2767 6 
Q 2738 -6 2688 -12 
Q 2638 -19 2563 -19 
Q 2491 -19 2439 -12 
Q 2388 -6 2358 6 
Q 2328 19 2317 36 
Q 2306 53 2306 78 
L 2306 1788 
Q 2306 1966 2272 2112 
Q 2238 2259 2169 2365 
Q 2100 2472 1995 2528 
Q 1891 2584 1747 2584 
Q 1569 2584 1387 2446 
Q 1206 2309 994 2044 
L 994 78 
Q 994 53 981 36 
Q 969 19 941 6 
Q 913 -6 863 -12 
Q 813 -19 734 -19 
Q 659 -19 609 -12 
Q 559 -6 529 6 
Q 500 19 489 36 
Q 478 53 478 78 
L 478 2891 
Q 478 2916 487 2933 
Q 497 2950 525 2964 
Q 553 2978 597 2983 
Q 641 2988 713 2988 
Q 781 2988 826 2983 
Q 872 2978 897 2964 
Q 922 2950 933 2933 
Q 944 2916 944 2891 
L 944 2519 
Q 1181 2784 1404 2907 
Q 1628 3031 1856 3031 
Q 2031 3031 2170 2990 
Q 2309 2950 2415 2876 
Q 2522 2803 2597 2701 
Q 2672 2600 2722 2475 
Q 2863 2628 2989 2734 
Q 3116 2841 3233 2906 
Q 3350 2972 3461 3001 
Q 3572 3031 3684 3031 
Q 3956 3031 4140 2936 
Q 4325 2841 4439 2681 
Q 4553 2522 4601 2308 
Q 4650 2094 4650 1856 
L 4650 78 
z
" transform="scale(0.015625)"/>
       <path id="DejaVuSans-32" d="M 1228 531 
L 3431 531 
L 3431 0 
L 469 0 
L 469 531 
Q 828 903 1448 1529 
Q 2069 2156 2228 2338 
Q 2531 2678 2651 2914 
Q 2772 3150 2772 3378 
Q 2772 3750 2511 3984 
Q 2250 4219 1831 4219 
Q 1534 4219 1204 4116 
Q 875 4013 500 3803 
L 500 4441 
Q 881 4594 1212 4672 
Q 1544 4750 1819 4750 
Q 2544 4750 2975 4387 
Q 3406 4025 3406 3419 
Q 3406 3131 3298 2873 
Q 3191 2616 2906 2266 
Q 2828 2175 2409 1742 
Q 1991 1309 1228 531 
z
" transform="scale(0.015625)"/>
       <path id="Calibri-2f" d="M 525 -753 
Q 513 -794 492 -817 
Q 472 -841 440 -853 
Q 409 -866 364 -872 
Q 319 -878 253 -878 
Q 175 -878 123 -867 
Q 72 -856 44 -836 
Q 16 -816 9 -786 
Q 3 -756 22 -716 
L 1913 4469 
Q 1925 4509 1945 4532 
Q 1966 4556 1995 4570 
Q 2025 4584 2072 4589 
Q 2119 4594 2184 4594 
Q 2263 4594 2313 4583 
Q 2363 4572 2391 4553 
Q 2419 4534 2425 4503 
Q 2431 4472 2416 4431 
L 525 -753 
z
" transform="scale(0.015625)"/>
       <path id="Calibri-29" d="M 1522 1678 
Q 1522 1325 1478 979 
Q 1434 634 1346 296 
Q 1259 -41 1132 -367 
Q 1006 -694 838 -1013 
Q 828 -1028 809 -1040 
Q 791 -1053 761 -1062 
Q 731 -1072 690 -1075 
Q 650 -1078 594 -1078 
Q 513 -1078 467 -1070 
Q 422 -1063 401 -1045 
Q 381 -1028 382 -1001 
Q 384 -975 400 -938 
Q 688 -306 834 355 
Q 981 1016 981 1688 
Q 981 2356 834 3017 
Q 688 3678 394 4306 
Q 381 4334 384 4359 
Q 388 4384 413 4400 
Q 438 4416 481 4425 
Q 525 4434 597 4434 
Q 663 4434 706 4429 
Q 750 4425 776 4415 
Q 803 4406 815 4397 
Q 828 4388 834 4375 
Q 1156 3734 1339 3057 
Q 1522 2381 1522 1678 
z
" transform="scale(0.015625)"/>
      </defs>
      <use xlink:href="#DejaVuSans-Oblique-70" transform="translate(0 0.765625)"/>
      <use xlink:href="#Calibri-20" transform="translate(63.476562 0.765625)"/>
      <use xlink:href="#Calibri-28" transform="translate(84.958984 0.765625)"/>
      <use xlink:href="#Calibri-63" transform="translate(115.28125 0.765625)"/>
      <use xlink:href="#Calibri-6d" transform="translate(157.566406 0.765625)"/>
      <use xlink:href="#DejaVuSans-32" transform="translate(238.40625 39.046875) scale(0.7)"/>
      <use xlink:href="#Calibri-2f" transform="translate(285.676758 0.765625)"/>
      <use xlink:href="#Calibri-63" transform="translate(324.299805 0.765625)"/>
      <use xlink:href="#Calibri-6d" transform="translate(366.584961 0.765625)"/>
      <use xlink:href="#DejaVuSans-32" transform="translate(447.424805 39.046875) scale(0.7)"/>
      <use xlink:href="#Calibri-29" transform="translate(494.695312 0.765625)"/>
     </g>
    </g>
   </g>
   <g id="matplotlib.axis_2">
    <g id="ytick_1">
     <g id="line2d_12">
      <defs>
       <path id="ma36866634a" d="M 0 0 
L -3.5 0 
" style="stroke: #000000; stroke-width: 0.8"/>
      </defs>
      <g>
       <use xlink:href="#ma36866634a" x="57.6" y="275.65056" style="stroke: #000000; stroke-width: 0.8"/>
      </g>
     </g>
     <g id="text_13">
      <!-- 25 -->
      <g transform="translate(40.4625 279.051341) scale(0.1 -0.1)">
       <use xlink:href="#Calibri-32"/>
       <use xlink:href="#Calibri-35" x="50.683594"/>
      </g>
     </g>
    </g>
    <g id="ytick_2">
     <g id="line2d_13">
      <g>
       <use xlink:href="#ma36866634a" x="57.6" y="242.38656" style="stroke: #000000; stroke-width: 0.8"/>
      </g>
     </g>
     <g id="text_14">
      <!-- 50 -->
      <g transform="translate(40.4625 245.787341) scale(0.1 -0.1)">
       <use xlink:href="#Calibri-35"/>
       <use xlink:href="#Calibri-30" x="50.683594"/>
      </g>
     </g>
    </g>
    <g id="ytick_3">
     <g id="line2d_14">
      <g>
       <use xlink:href="#ma36866634a" x="57.6" y="209.12256" style="stroke: #000000; stroke-width: 0.8"/>
      </g>
     </g>
     <g id="text_15">
      <!-- 75 -->
      <g transform="translate(40.4625 212.523341) scale(0.1 -0.1)">
       <use xlink:href="#Calibri-37"/>
       <use xlink:href="#Calibri-35" x="50.683594"/>
      </g>
     </g>
    </g>
    <g id="ytick_4">
     <g id="line2d_15">
      <g>
       <use xlink:href="#ma36866634a" x="57.6" y="175.85856" style="stroke: #000000; stroke-width: 0.8"/>
      </g>
     </g>
     <g id="text_16">
      <!-- 100 -->
      <g transform="translate(35.39375 179.259341) scale(0.1 -0.1)">
       <use xlink:href="#Calibri-31"/>
       <use xlink:href="#Calibri-30" x="50.683594"/>
       <use xlink:href="#Calibri-30" x="101.367188"/>
      </g>
     </g>
    </g>
    <g id="ytick_5">
     <g id="line2d_16">
      <g>
       <use xlink:href="#ma36866634a" x="57.6" y="142.59456" style="stroke: #000000; stroke-width: 0.8"/>
      </g>
     </g>
     <g id="text_17">
      <!-- 125 -->
      <g transform="translate(35.39375 145.995341) scale(0.1 -0.1)">
       <use xlink:href="#Calibri-31"/>
       <use xlink:href="#Calibri-32" x="50.683594"/>
       <use xlink:href="#Calibri-35" x="101.367188"/>
      </g>
     </g>
    </g>
    <g id="ytick_6">
     <g id="line2d_17">
      <g>
       <use xlink:href="#ma36866634a" x="57.6" y="109.33056" style="stroke: #000000; stroke-width: 0.8"/>
      </g>
     </g>
     <g id="text_18">
      <!-- 150 -->
      <g transform="translate(35.39375 112.731341) scale(0.1 -0.1)">
       <use xlink:href="#Calibri-31"/>
       <use xlink:href="#Calibri-35" x="50.683594"/>
       <use xlink:href="#Calibri-30" x="101.367188"/>
      </g>
     </g>
    </g>
    <g id="ytick_7">
     <g id="line2d_18">
      <g>
       <use xlink:href="#ma36866634a" x="57.6" y="76.06656" style="stroke: #000000; stroke-width: 0.8"/>
      </g>
     </g>
     <g id="text_19">
      <!-- 175 -->
      <g transform="translate(35.39375 79.467341) scale(0.1 -0.1)">
       <use xlink:href="#Calibri-31"/>
       <use xlink:href="#Calibri-37" x="50.683594"/>
       <use xlink:href="#Calibri-35" x="101.367188"/>
      </g>
     </g>
    </g>
    <g id="ytick_8">
     <g id="line2d_19">
      <g>
       <use xlink:href="#ma36866634a" x="57.6" y="42.80256" style="stroke: #000000; stroke-width: 0.8"/>
      </g>
     </g>
     <g id="text_20">
      <!-- 200 -->
      <g transform="translate(35.39375 46.203341) scale(0.1 -0.1)">
       <use xlink:href="#Calibri-32"/>
       <use xlink:href="#Calibri-30" x="50.683594"/>
       <use xlink:href="#Calibri-30" x="101.367188"/>
      </g>
     </g>
    </g>
    <g id="text_21">
     <!-- $\mathit{Z}$$_{a}$ (nm) -->
     <g transform="translate(29.59375 191.028) rotate(-90) scale(0.1 -0.1)">
      <defs>
       <path id="DejaVuSans-Oblique-5a" d="M 838 4666 
L 4500 4666 
L 4409 4184 
L 794 531 
L 3769 531 
L 3669 0 
L -141 0 
L -50 481 
L 3566 4134 
L 738 4134 
L 838 4666 
z
" transform="scale(0.015625)"/>
       <path id="DejaVuSans-Oblique-61" d="M 3438 1997 
L 3047 0 
L 2472 0 
L 2578 531 
Q 2325 219 2001 64 
Q 1678 -91 1281 -91 
Q 834 -91 548 182 
Q 263 456 263 884 
Q 263 1497 752 1853 
Q 1241 2209 2100 2209 
L 2900 2209 
L 2931 2363 
Q 2938 2388 2941 2417 
Q 2944 2447 2944 2509 
Q 2944 2788 2717 2942 
Q 2491 3097 2081 3097 
Q 1800 3097 1504 3025 
Q 1209 2953 897 2809 
L 997 3341 
Q 1322 3463 1633 3523 
Q 1944 3584 2234 3584 
Q 2853 3584 3176 3315 
Q 3500 3047 3500 2534 
Q 3500 2431 3484 2292 
Q 3469 2153 3438 1997 
z
M 2816 1759 
L 2241 1759 
Q 1534 1759 1195 1570 
Q 856 1381 856 984 
Q 856 709 1029 553 
Q 1203 397 1509 397 
Q 1978 397 2328 733 
Q 2678 1069 2791 1631 
L 2816 1759 
z
" transform="scale(0.015625)"/>
       <path id="Calibri-6e" d="M 2900 78 
Q 2900 53 2887 36 
Q 2875 19 2847 6 
Q 2819 -6 2769 -12 
Q 2719 -19 2644 -19 
Q 2566 -19 2516 -12 
Q 2466 -6 2437 6 
Q 2409 19 2396 36 
Q 2384 53 2384 78 
L 2384 1725 
Q 2384 1966 2346 2112 
Q 2309 2259 2237 2365 
Q 2166 2472 2052 2528 
Q 1938 2584 1788 2584 
Q 1594 2584 1400 2446 
Q 1206 2309 994 2044 
L 994 78 
Q 994 53 981 36 
Q 969 19 941 6 
Q 913 -6 863 -12 
Q 813 -19 734 -19 
Q 659 -19 609 -12 
Q 559 -6 529 6 
Q 500 19 489 36 
Q 478 53 478 78 
L 478 2891 
Q 478 2916 487 2933 
Q 497 2950 525 2964 
Q 553 2978 597 2983 
Q 641 2988 713 2988 
Q 781 2988 826 2983 
Q 872 2978 897 2964 
Q 922 2950 933 2933 
Q 944 2916 944 2891 
L 944 2519 
Q 1181 2784 1417 2907 
Q 1653 3031 1894 3031 
Q 2175 3031 2367 2936 
Q 2559 2841 2678 2681 
Q 2797 2522 2848 2308 
Q 2900 2094 2900 1794 
L 2900 78 
z
" transform="scale(0.015625)"/>
      </defs>
      <use xlink:href="#DejaVuSans-Oblique-5a" transform="translate(0 0.09375)"/>
      <use xlink:href="#DejaVuSans-Oblique-61" transform="translate(69.462891 -16.3125) scale(0.7)"/>
      <use xlink:href="#Calibri-20" transform="translate(115.092773 0.09375)"/>
      <use xlink:href="#Calibri-28" transform="translate(136.575195 0.09375)"/>
      <use xlink:href="#Calibri-6e" transform="translate(166.897461 0.09375)"/>
      <use xlink:href="#Calibri-6d" transform="translate(219.436523 0.09375)"/>
      <use xlink:href="#Calibri-29" transform="translate(299.319336 0.09375)"/>
     </g>
    </g>
   </g>
   <g id="patch_3">
    <path d="M 57.6 307.584 
L 57.6 41.472 
" style="fill: none; stroke: #000000; stroke-width: 0.8; stroke-linejoin: miter; stroke-linecap: square"/>
   </g>
   <g id="patch_4">
    <path d="M 343.296 307.584 
L 343.296 41.472 
" style="fill: none; stroke: #000000; stroke-width: 0.8; stroke-linejoin: miter; stroke-linecap: square"/>
   </g>
   <g id="patch_5">
    <path d="M 57.6 307.584 
L 343.296 307.584 
" style="fill: none; stroke: #000000; stroke-width: 0.8; stroke-linejoin: miter; stroke-linecap: square"/>
   </g>
   <g id="patch_6">
    <path d="M 57.6 41.472 
L 343.296 41.472 
" style="fill: none; stroke: #000000; stroke-width: 0.8; stroke-linejoin: miter; stroke-linecap: square"/>
   </g>
   <g id="text_22">
    <!-- $\lambda$ = 760 nm -->
    <g transform="translate(177.348 35.472) scale(0.1 -0.1)">
     <defs>
      <path id="DejaVuSans-Oblique-3bb" d="M 2350 4316 
L 3125 0 
L 2516 0 
L 2038 2588 
L 328 0 
L -281 0 
L 1903 3356 
L 1794 3975 
Q 1725 4369 1391 4369 
L 1091 4369 
L 1184 4863 
L 1550 4856 
Q 2253 4847 2350 4316 
z
" transform="scale(0.015625)"/>
      <path id="Calibri-3d" d="M 2891 2409 
Q 2891 2284 2855 2236 
Q 2819 2188 2772 2188 
L 409 2188 
Q 363 2188 328 2236 
Q 294 2284 294 2409 
Q 294 2522 325 2575 
Q 356 2628 409 2628 
L 2772 2628 
Q 2828 2628 2859 2575 
Q 2891 2522 2891 2409 
z
M 2891 1194 
Q 2891 1069 2855 1022 
Q 2819 975 2772 975 
L 409 975 
Q 363 975 328 1022 
Q 294 1069 294 1194 
Q 294 1309 325 1362 
Q 356 1416 409 1416 
L 2772 1416 
Q 2828 1416 2859 1362 
Q 2891 1309 2891 1194 
z
" transform="scale(0.015625)"/>
     </defs>
     <use xlink:href="#DejaVuSans-Oblique-3bb" transform="translate(0 0.015625)"/>
     <use xlink:href="#Calibri-20" transform="translate(59.179688 0.015625)"/>
     <use xlink:href="#Calibri-3d" transform="translate(81.787109 0.015625)"/>
     <use xlink:href="#Calibri-20" transform="translate(131.591797 0.015625)"/>
     <use xlink:href="#Calibri-37" transform="translate(154.199219 0.015625)"/>
     <use xlink:href="#Calibri-36" transform="translate(204.882812 0.015625)"/>
     <use xlink:href="#Calibri-30" transform="translate(255.566406 0.015625)"/>
     <use xlink:href="#Calibri-20" transform="translate(306.25 0.015625)"/>
     <use xlink:href="#Calibri-6e" transform="translate(328.857422 0.015625)"/>
     <use xlink:href="#Calibri-6d" transform="translate(381.396484 0.015625)"/>
    </g>
   </g>
  </g>
  <g id="axes_2">
   <g id="patch_7">
    <path d="M 361.152 307.584 
L 374.4576 307.584 
L 374.4576 41.472 
L 361.152 41.472 
z
" style="fill: #ffffff"/>
   </g>
   <g id="QuadMesh_1">
    <path d="M 361.152 307.584 
L 374.4576 307.584 
L 374.4576 280.9728 
L 361.152 280.9728 
L 361.152 307.584 
" clip-path="url(#pb5f322f203)" style="fill: #0000b6"/>
    <path d="M 361.152 280.9728 
L 374.4576 280.9728 
L 374.4576 254.3616 
L 361.152 254.3616 
L 361.152 280.9728 
" clip-path="url(#pb5f322f203)" style="fill: #0018ff"/>
    <path d="M 361.152 254.3616 
L 374.4576 254.3616 
L 374.4576 227.7504 
L 361.152 227.7504 
L 361.152 254.3616 
" clip-path="url(#pb5f322f203)" style="fill: #0080ff"/>
    <path d="M 361.152 227.7504 
L 374.4576 227.7504 
L 374.4576 201.1392 
L 361.152 201.1392 
L 361.152 227.7504 
" clip-path="url(#pb5f322f203)" style="fill: #00e4f8"/>
    <path d="M 361.152 201.1392 
L 374.4576 201.1392 
L 374.4576 174.528 
L 361.152 174.528 
L 361.152 201.1392 
" clip-path="url(#pb5f322f203)" style="fill: #53ffa4"/>
    <path d="M 361.152 174.528 
L 374.4576 174.528 
L 374.4576 147.9168 
L 361.152 147.9168 
L 361.152 174.528 
" clip-path="url(#pb5f322f203)" style="fill: #a4ff53"/>
    <path d="M 361.152 147.9168 
L 374.4576 147.9168 
L 374.4576 121.3056 
L 361.152 121.3056 
L 361.152 147.9168 
" clip-path="url(#pb5f322f203)" style="fill: #f8f500"/>
    <path d="M 361.152 121.3056 
L 374.4576 121.3056 
L 374.4576 94.6944 
L 361.152 94.6944 
L 361.152 121.3056 
" clip-path="url(#pb5f322f203)" style="fill: #ff9400"/>
    <path d="M 361.152 94.6944 
L 374.4576 94.6944 
L 374.4576 68.0832 
L 361.152 68.0832 
L 361.152 94.6944 
" clip-path="url(#pb5f322f203)" style="fill: #ff3800"/>
    <path d="M 361.152 68.0832 
L 374.4576 68.0832 
L 374.4576 41.472 
L 361.152 41.472 
L 361.152 68.0832 
" clip-path="url(#pb5f322f203)" style="fill: #b60000"/>
   </g>
   <g id="matplotlib.axis_3"/>
   <g id="matplotlib.axis_4">
    <g id="ytick_9">
     <g id="line2d_20">
      <defs>
       <path id="macb8e9f63c" d="M 0 0 
L 3.5 0 
" style="stroke: #000000; stroke-width: 0.8"/>
      </defs>
      <g>
       <use xlink:href="#macb8e9f63c" x="374.4576" y="307.584" style="stroke: #000000; stroke-width: 0.8"/>
      </g>
     </g>
     <g id="text_23">
      <!-- 0 -->
      <g transform="translate(381.4576 310.984781) scale(0.1 -0.1)">
       <use xlink:href="#Calibri-30"/>
      </g>
     </g>
    </g>
    <g id="ytick_10">
     <g id="line2d_21">
      <g>
       <use xlink:href="#macb8e9f63c" x="374.4576" y="280.9728" style="stroke: #000000; stroke-width: 0.8"/>
      </g>
     </g>
     <g id="text_24">
      <!-- 0.1 -->
      <g transform="translate(381.4576 284.373581) scale(0.1 -0.1)">
       <use xlink:href="#Calibri-30"/>
       <use xlink:href="#Calibri-2e" x="50.683594"/>
       <use xlink:href="#Calibri-31" x="75.927734"/>
      </g>
     </g>
    </g>
    <g id="ytick_11">
     <g id="line2d_22">
      <g>
       <use xlink:href="#macb8e9f63c" x="374.4576" y="254.3616" style="stroke: #000000; stroke-width: 0.8"/>
      </g>
     </g>
     <g id="text_25">
      <!-- 0.2 -->
      <g transform="translate(381.4576 257.762381) scale(0.1 -0.1)">
       <use xlink:href="#Calibri-30"/>
       <use xlink:href="#Calibri-2e" x="50.683594"/>
       <use xlink:href="#Calibri-32" x="75.927734"/>
      </g>
     </g>
    </g>
    <g id="ytick_12">
     <g id="line2d_23">
      <g>
       <use xlink:href="#macb8e9f63c" x="374.4576" y="227.7504" style="stroke: #000000; stroke-width: 0.8"/>
      </g>
     </g>
     <g id="text_26">
      <!-- 0.3 -->
      <g transform="translate(381.4576 231.151181) scale(0.1 -0.1)">
       <use xlink:href="#Calibri-30"/>
       <use xlink:href="#Calibri-2e" x="50.683594"/>
       <use xlink:href="#Calibri-33" x="75.927734"/>
      </g>
     </g>
    </g>
    <g id="ytick_13">
     <g id="line2d_24">
      <g>
       <use xlink:href="#macb8e9f63c" x="374.4576" y="201.1392" style="stroke: #000000; stroke-width: 0.8"/>
      </g>
     </g>
     <g id="text_27">
      <!-- 0.4 -->
      <g transform="translate(381.4576 204.539981) scale(0.1 -0.1)">
       <use xlink:href="#Calibri-30"/>
       <use xlink:href="#Calibri-2e" x="50.683594"/>
       <use xlink:href="#Calibri-34" x="75.927734"/>
      </g>
     </g>
    </g>
    <g id="ytick_14">
     <g id="line2d_25">
      <g>
       <use xlink:href="#macb8e9f63c" x="374.4576" y="174.528" style="stroke: #000000; stroke-width: 0.8"/>
      </g>
     </g>
     <g id="text_28">
      <!-- 0.5 -->
      <g transform="translate(381.4576 177.928781) scale(0.1 -0.1)">
       <use xlink:href="#Calibri-30"/>
       <use xlink:href="#Calibri-2e" x="50.683594"/>
       <use xlink:href="#Calibri-35" x="75.927734"/>
      </g>
     </g>
    </g>
    <g id="ytick_15">
     <g id="line2d_26">
      <g>
       <use xlink:href="#macb8e9f63c" x="374.4576" y="147.9168" style="stroke: #000000; stroke-width: 0.8"/>
      </g>
     </g>
     <g id="text_29">
      <!-- 0.6 -->
      <g transform="translate(381.4576 151.317581) scale(0.1 -0.1)">
       <use xlink:href="#Calibri-30"/>
       <use xlink:href="#Calibri-2e" x="50.683594"/>
       <use xlink:href="#Calibri-36" x="75.927734"/>
      </g>
     </g>
    </g>
    <g id="ytick_16">
     <g id="line2d_27">
      <g>
       <use xlink:href="#macb8e9f63c" x="374.4576" y="121.3056" style="stroke: #000000; stroke-width: 0.8"/>
      </g>
     </g>
     <g id="text_30">
      <!-- 0.7 -->
      <g transform="translate(381.4576 124.706381) scale(0.1 -0.1)">
       <use xlink:href="#Calibri-30"/>
       <use xlink:href="#Calibri-2e" x="50.683594"/>
       <use xlink:href="#Calibri-37" x="75.927734"/>
      </g>
     </g>
    </g>
    <g id="ytick_17">
     <g id="line2d_28">
      <g>
       <use xlink:href="#macb8e9f63c" x="374.4576" y="94.6944" style="stroke: #000000; stroke-width: 0.8"/>
      </g>
     </g>
     <g id="text_31">
      <!-- 0.8 -->
      <g transform="translate(381.4576 98.095181) scale(0.1 -0.1)">
       <use xlink:href="#Calibri-30"/>
       <use xlink:href="#Calibri-2e" x="50.683594"/>
       <use xlink:href="#Calibri-38" x="75.927734"/>
      </g>
     </g>
    </g>
    <g id="ytick_18">
     <g id="line2d_29">
      <g>
       <use xlink:href="#macb8e9f63c" x="374.4576" y="68.0832" style="stroke: #000000; stroke-width: 0.8"/>
      </g>
     </g>
     <g id="text_32">
      <!-- 0.9 -->
      <g transform="translate(381.4576 71.483981) scale(0.1 -0.1)">
       <use xlink:href="#Calibri-30"/>
       <use xlink:href="#Calibri-2e" x="50.683594"/>
       <use xlink:href="#Calibri-39" x="75.927734"/>
      </g>
     </g>
    </g>
    <g id="ytick_19">
     <g id="line2d_30">
      <g>
       <use xlink:href="#macb8e9f63c" x="374.4576" y="41.472" style="stroke: #000000; stroke-width: 0.8"/>
      </g>
     </g>
     <g id="text_33">
      <!-- 1.0 -->
      <g transform="translate(381.4576 44.872781) scale(0.1 -0.1)">
       <use xlink:href="#Calibri-31"/>
       <use xlink:href="#Calibri-2e" x="50.683594"/>
       <use xlink:href="#Calibri-30" x="75.927734"/>
      </g>
     </g>
    </g>
   </g>
   <g id="LineCollection_1"/>
   <g id="patch_8">
    <path d="M 361.152 307.584 
L 367.8048 307.584 
L 374.4576 307.584 
L 374.4576 41.472 
L 367.8048 41.472 
L 361.152 41.472 
L 361.152 307.584 
z
" style="fill: none; stroke: #000000; stroke-width: 0.8; stroke-linejoin: miter; stroke-linecap: square"/>
   </g>
   <g id="text_34">
    <!-- $\mathit{E}_{\mathrm{dis}}$/$\mathit{E}_{\mathrm{i}}$ -->
    <g transform="translate(353.2548 35.472) scale(0.1 -0.1)">
     <defs>
      <path id="DejaVuSans-Oblique-45" d="M 1081 4666 
L 4031 4666 
L 3928 4134 
L 1606 4134 
L 1338 2753 
L 3566 2753 
L 3463 2222 
L 1234 2222 
L 909 531 
L 3284 531 
L 3181 0 
L 172 0 
L 1081 4666 
z
" transform="scale(0.015625)"/>
      <path id="DejaVuSans-64" d="M 2906 2969 
L 2906 4863 
L 3481 4863 
L 3481 0 
L 2906 0 
L 2906 525 
Q 2725 213 2448 61 
Q 2172 -91 1784 -91 
Q 1150 -91 751 415 
Q 353 922 353 1747 
Q 353 2572 751 3078 
Q 1150 3584 1784 3584 
Q 2172 3584 2448 3432 
Q 2725 3281 2906 2969 
z
M 947 1747 
Q 947 1113 1208 752 
Q 1469 391 1925 391 
Q 2381 391 2643 752 
Q 2906 1113 2906 1747 
Q 2906 2381 2643 2742 
Q 2381 3103 1925 3103 
Q 1469 3103 1208 2742 
Q 947 2381 947 1747 
z
" transform="scale(0.015625)"/>
      <path id="DejaVuSans-69" d="M 603 3500 
L 1178 3500 
L 1178 0 
L 603 0 
L 603 3500 
z
M 603 4863 
L 1178 4863 
L 1178 4134 
L 603 4134 
L 603 4863 
z
" transform="scale(0.015625)"/>
      <path id="DejaVuSans-73" d="M 2834 3397 
L 2834 2853 
Q 2591 2978 2328 3040 
Q 2066 3103 1784 3103 
Q 1356 3103 1142 2972 
Q 928 2841 928 2578 
Q 928 2378 1081 2264 
Q 1234 2150 1697 2047 
L 1894 2003 
Q 2506 1872 2764 1633 
Q 3022 1394 3022 966 
Q 3022 478 2636 193 
Q 2250 -91 1575 -91 
Q 1294 -91 989 -36 
Q 684 19 347 128 
L 347 722 
Q 666 556 975 473 
Q 1284 391 1588 391 
Q 1994 391 2212 530 
Q 2431 669 2431 922 
Q 2431 1156 2273 1281 
Q 2116 1406 1581 1522 
L 1381 1569 
Q 847 1681 609 1914 
Q 372 2147 372 2553 
Q 372 3047 722 3315 
Q 1072 3584 1716 3584 
Q 2034 3584 2315 3537 
Q 2597 3491 2834 3397 
z
" transform="scale(0.015625)"/>
     </defs>
     <use xlink:href="#DejaVuSans-Oblique-45" transform="translate(0 0.09375)"/>
     <use xlink:href="#DejaVuSans-64" transform="translate(63.183594 -16.3125) scale(0.7)"/>
     <use xlink:href="#DejaVuSans-69" transform="translate(107.617188 -16.3125) scale(0.7)"/>
     <use xlink:href="#DejaVuSans-73" transform="translate(127.06543 -16.3125) scale(0.7)"/>
     <use xlink:href="#Calibri-2f" transform="translate(166.269531 0.09375)"/>
     <use xlink:href="#DejaVuSans-Oblique-45" transform="translate(204.892578 0.09375)"/>
     <use xlink:href="#DejaVuSans-69" transform="translate(268.076172 -16.3125) scale(0.7)"/>
    </g>
   </g>
  </g>
 </g>
 <defs>
  <clipPath id="p24479792ad">
   <rect x="57.6" y="41.472" width="285.696" height="266.112"/>
  </clipPath>
  <clipPath id="pb5f322f203">
   <rect x="361.152" y="41.472" width="13.3056" height="266.112"/>
  </clipPath>
 </defs>
</svg>
