<?xml version="1.0" encoding="utf-8" standalone="no"?>
<!DOCTYPE svg PUBLIC "-//W3C//DTD SVG 1.1//EN"
  "http://www.w3.org/Graphics/SVG/1.1/DTD/svg11.dtd">
<svg xmlns:xlink="http://www.w3.org/1999/xlink" width="460.8pt" height="345.6pt" viewBox="0 0 460.8 345.6" xmlns="http://www.w3.org/2000/svg" version="1.1">
 <metadata>
  <rdf:RDF xmlns:dc="http://purl.org/dc/elements/1.1/" xmlns:cc="http://creativecommons.org/ns#" xmlns:rdf="http://www.w3.org/1999/02/22-rdf-syntax-ns#">
   <cc:Work>
    <dc:type rdf:resource="http://purl.org/dc/dcmitype/StillImage"/>
    <dc:date>2024-01-22T08:28:38.944001</dc:date>
    <dc:format>image/svg+xml</dc:format>
    <dc:creator>
     <cc:Agent>
      <dc:title>Matplotlib v3.7.1, https://matplotlib.org/</dc:title>
     </cc:Agent>
    </dc:creator>
   </cc:Work>
  </rdf:RDF>
 </metadata>
 <defs>
  <style type="text/css">*{stroke-linejoin: round; stroke-linecap: butt}</style>
 </defs>
 <g id="figure_1">
  <g id="patch_1">
   <path d="M 0 345.6 
L 460.8 345.6 
L 460.8 0 
L 0 0 
z
" style="fill: #ffffff"/>
  </g>
  <g id="axes_1">
   <g id="patch_2">
    <path d="M 57.6 307.584 
L 343.296 307.584 
L 343.296 41.472 
L 57.6 41.472 
z
" style="fill: #ffffff"/>
   </g>
   <g id="PathCollection_1">
    <path clip-path="url(#p90db40b481)" style="fill: #0000b6"/>
   </g>
   <g id="PathCollection_2">
    <path d="M 57.62857 95.652497 
L 57.974006 96.200196 
L 59.120858 98.0208 
L 59.13908 98.049619 
L 59.236466 98.204582 
L 60.315576 99.920361 
L 60.598886 100.37292 
L 60.764069 100.637193 
L 61.209181 101.3472 
L 61.444166 101.720859 
L 61.567821 101.918592 
L 61.819263 102.32148 
L 62.661183 103.666154 
L 63.288046 104.6736 
L 63.621978 105.208233 
L 63.913976 105.677926 
L 64.417099 106.485632 
L 64.751416 107.02572 
L 65.317155 107.936678 
L 65.356247 108 
L 65.495202 108.224323 
L 65.95995 108.97428 
L 66.169885 109.311941 
L 66.48557 109.822892 
L 66.922266 110.528327 
L 67.413967 111.3264 
L 67.919863 112.144383 
L 68.862678 113.67852 
L 69.044996 113.9742 
L 69.460867 114.6528 
L 69.899577 115.366152 
L 70.059131 115.62708 
L 70.216091 115.882484 
L 70.875117 116.960001 
L 71.409154 117.832548 
L 71.498335 117.9792 
L 72.541472 119.687972 
L 72.932317 120.33132 
L 73.020367 120.475537 
L 73.524234 121.3056 
L 73.831566 121.810032 
L 74.116 122.27988 
L 74.886112 123.547636 
L 75.540547 124.632 
L 75.824262 125.10029 
L 76.083572 125.53039 
L 76.619152 126.417055 
L 76.959438 126.98412 
L 77.507599 127.894402 
L 77.54588 127.9584 
L 77.59182 128.035054 
L 77.675481 128.174207 
L 78.131096 128.93268 
L 78.348813 129.293851 
L 78.691288 129.865736 
L 79.100406 130.547634 
L 79.540501 131.2848 
L 80.075416 132.17732 
L 80.944407 133.63692 
L 81.160927 133.999304 
L 81.28849 134.213456 
L 81.524014 134.6112 
L 81.957137 135.33963 
L 82.103788 135.58548 
L 82.369533 136.031956 
L 83.498137 137.9376 
L 83.51708 137.96946 
L 83.64717 138.189738 
L 84.676912 139.932326 
L 84.887045 140.28972 
L 85.000628 140.483354 
L 85.460053 141.264 
L 85.849294 141.923936 
L 86.03337 142.23828 
L 86.945585 143.790326 
L 87.41263 144.5904 
L 87.934009 145.480053 
L 88.43446 146.338344 
L 88.653823 146.713889 
L 88.786453 146.94252 
L 89.050423 147.395854 
L 89.353798 147.9168 
L 89.44815 148.078095 
L 89.920205 148.89108 
L 90.359046 149.644033 
L 91.084675 150.897678 
L 91.183465 151.068053 
L 91.2845 151.2432 
L 92.060318 152.582803 
L 92.642633 153.59532 
L 93.022919 154.254035 
L 93.086941 154.36535 
L 93.203697 154.5696 
L 93.76159 155.538827 
L 93.764481 155.54388 
L 94.425686 156.694189 
L 95.112907 157.896 
L 95.451337 158.485505 
L 96.456125 160.24812 
L 96.572982 160.452317 
L 97.010185 161.2224 
L 97.515291 162.1096 
L 97.565038 162.19668 
L 97.659805 162.363024 
L 98.221873 163.354824 
L 98.826912 164.421923 
L 98.898336 164.5488 
L 99.94211 166.395541 
L 100.226237 166.90092 
L 100.371998 167.160948 
L 100.773787 167.8752 
L 101.001592 168.278081 
L 101.125955 168.49938 
L 101.32185 168.84948 
L 102.187686 170.390652 
L 102.63998 171.2016 
L 103.162788 172.135214 
L 103.33993 172.452205 
L 103.33993 171.2016 
L 103.33993 167.8752 
L 103.33993 164.5488 
L 103.33993 161.2224 
L 103.33993 157.896 
L 103.33993 154.5696 
L 103.33993 151.2432 
L 103.33993 147.9168 
L 103.33993 144.5904 
L 103.33993 141.264 
L 103.33993 137.9376 
L 103.33993 134.6112 
L 103.33993 131.2848 
L 103.33993 127.9584 
L 103.33993 124.632 
L 103.33993 121.3056 
L 103.33993 117.9792 
L 103.33993 114.6528 
L 103.33993 111.3264 
L 103.33993 108 
L 103.33993 104.6736 
L 103.33993 101.3472 
L 103.33993 98.0208 
L 103.33993 94.6944 
L 103.33993 91.368 
L 103.33993 88.0416 
L 103.33993 84.7152 
L 103.33993 81.3888 
L 103.33993 78.0624 
L 103.33993 74.736 
L 103.33993 71.4096 
L 103.33993 68.0832 
L 103.33993 64.7568 
L 103.33993 61.4304 
L 103.33993 58.104 
L 103.33993 54.7776 
L 103.33993 51.4512 
L 103.33993 48.1248 
L 103.33993 44.7984 
L 103.33993 41.472 
L 101.816218 41.472 
L 100.292506 41.472 
L 98.768794 41.472 
L 97.245082 41.472 
L 95.72137 41.472 
L 94.197658 41.472 
L 92.673946 41.472 
L 91.150234 41.472 
L 89.626522 41.472 
L 88.10281 41.472 
L 86.579098 41.472 
L 85.055386 41.472 
L 83.531674 41.472 
L 82.007962 41.472 
L 80.48425 41.472 
L 78.960538 41.472 
L 77.436826 41.472 
L 75.913114 41.472 
L 74.389402 41.472 
L 72.86569 41.472 
L 71.341978 41.472 
L 69.818266 41.472 
L 68.294554 41.472 
L 66.770842 41.472 
L 65.24713 41.472 
L 63.723418 41.472 
L 62.199706 41.472 
L 60.675994 41.472 
L 59.152282 41.472 
L 57.62857 41.472 
L 57.62857 44.7984 
L 57.62857 48.1248 
L 57.62857 51.4512 
L 57.62857 54.7776 
L 57.62857 58.104 
L 57.62857 61.4304 
L 57.62857 64.7568 
L 57.62857 68.0832 
L 57.62857 71.4096 
L 57.62857 74.736 
L 57.62857 78.0624 
L 57.62857 81.3888 
L 57.62857 84.7152 
L 57.62857 88.0416 
L 57.62857 91.368 
L 57.62857 94.6944 
" clip-path="url(#p90db40b481)" style="fill: #0018ff"/>
   </g>
   <g id="PathCollection_3">
    <path d="M 103.33993 172.452205 
L 103.162788 172.135214 
L 102.63998 171.2016 
L 102.187686 170.390652 
L 101.32185 168.84948 
L 101.125955 168.49938 
L 101.001592 168.278081 
L 100.773787 167.8752 
L 100.371998 167.160948 
L 100.226237 166.90092 
L 99.94211 166.395541 
L 98.898336 164.5488 
L 98.826912 164.421923 
L 98.221873 163.354824 
L 97.659805 162.363024 
L 97.565038 162.19668 
L 97.515291 162.1096 
L 97.010185 161.2224 
L 96.572982 160.452317 
L 96.456125 160.24812 
L 95.451337 158.485505 
L 95.112907 157.896 
L 94.425686 156.694189 
L 93.764481 155.54388 
L 93.76159 155.538827 
L 93.203697 154.5696 
L 93.086941 154.36535 
L 93.022919 154.254035 
L 92.642633 153.59532 
L 92.060318 152.582803 
L 91.2845 151.2432 
L 91.183465 151.068053 
L 91.084675 150.897678 
L 90.359046 149.644033 
L 89.920205 148.89108 
L 89.44815 148.078095 
L 89.353798 147.9168 
L 89.050423 147.395854 
L 88.786453 146.94252 
L 88.653823 146.713889 
L 88.43446 146.338344 
L 87.934009 145.480053 
L 87.41263 144.5904 
L 86.945585 143.790326 
L 86.03337 142.23828 
L 85.849294 141.923936 
L 85.460053 141.264 
L 85.000628 140.483354 
L 84.887045 140.28972 
L 84.676912 139.932326 
L 83.64717 138.189738 
L 83.51708 137.96946 
L 83.498137 137.9376 
L 82.369533 136.031956 
L 82.103788 135.58548 
L 81.957137 135.33963 
L 81.524014 134.6112 
L 81.28849 134.213456 
L 81.160927 133.999304 
L 80.944407 133.63692 
L 80.075416 132.17732 
L 79.540501 131.2848 
L 79.100406 130.547634 
L 78.691288 129.865736 
L 78.348813 129.293851 
L 78.131096 128.93268 
L 77.675481 128.174207 
L 77.59182 128.035054 
L 77.54588 127.9584 
L 77.507599 127.894402 
L 76.959438 126.98412 
L 76.619152 126.417055 
L 76.083572 125.53039 
L 75.824262 125.10029 
L 75.540547 124.632 
L 74.886112 123.547636 
L 74.116 122.27988 
L 73.831566 121.810032 
L 73.524234 121.3056 
L 73.020367 120.475537 
L 72.932317 120.33132 
L 72.541472 119.687972 
L 71.498335 117.9792 
L 71.409154 117.832548 
L 70.875117 116.960001 
L 70.216091 115.882484 
L 70.059131 115.62708 
L 69.899577 115.366152 
L 69.460867 114.6528 
L 69.044996 113.9742 
L 68.862678 113.67852 
L 67.919863 112.144383 
L 67.413967 111.3264 
L 66.922266 110.528327 
L 66.48557 109.822892 
L 66.169885 109.311941 
L 65.95995 108.97428 
L 65.495202 108.224323 
L 65.356247 108 
L 65.317155 107.936678 
L 64.751416 107.02572 
L 64.417099 106.485632 
L 63.913976 105.677926 
L 63.621978 105.208233 
L 63.288046 104.6736 
L 62.661183 103.666154 
L 61.819263 102.32148 
L 61.567821 101.918592 
L 61.444166 101.720859 
L 61.209181 101.3472 
L 60.764069 100.637193 
L 60.598886 100.37292 
L 60.315576 99.920361 
L 59.236466 98.204582 
L 59.13908 98.049619 
L 59.120858 98.0208 
L 57.974006 96.200196 
L 57.62857 95.652497 
L 57.62857 98.0208 
L 57.62857 101.3472 
L 57.62857 104.6736 
L 57.62857 108 
L 57.62857 111.3264 
L 57.62857 114.6528 
L 57.62857 117.9792 
L 57.62857 121.3056 
L 57.62857 124.632 
L 57.62857 127.9584 
L 57.62857 131.2848 
L 57.62857 134.6112 
L 57.62857 137.9376 
L 57.62857 141.264 
L 57.62857 144.5904 
L 57.62857 147.9168 
L 57.62857 151.2432 
L 57.62857 154.5696 
L 57.62857 157.896 
L 57.62857 161.2224 
L 57.62857 164.5488 
L 57.62857 167.8752 
L 57.62857 171.2016 
L 57.62857 174.528 
L 57.62857 177.8544 
L 57.62857 181.1808 
L 57.62857 184.5072 
L 57.62857 187.8336 
L 57.62857 191.16 
L 57.62857 194.4864 
L 57.62857 197.8128 
L 57.62857 201.1392 
L 57.62857 204.4656 
L 57.62857 207.792 
L 57.62857 211.1184 
L 57.62857 214.4448 
L 57.62857 217.7712 
L 57.62857 221.0976 
L 57.62857 224.424 
L 57.62857 227.7504 
L 57.62857 231.0768 
L 57.62857 234.4032 
L 57.62857 237.7296 
L 57.62857 241.056 
L 57.62857 244.3824 
L 57.62857 247.7088 
L 57.62857 251.0352 
L 57.62857 254.3616 
L 57.62857 257.688 
L 57.62857 261.0144 
L 57.62857 264.3408 
L 57.62857 267.6672 
L 57.62857 270.9936 
L 57.62857 274.32 
L 57.62857 277.6464 
L 57.62857 280.9728 
L 57.62857 284.2992 
L 57.62857 287.6256 
L 57.62857 290.952 
L 57.62857 294.2784 
L 57.62857 297.6048 
L 57.62857 300.9312 
L 57.62857 304.2576 
L 57.62857 307.584 
L 59.152282 307.584 
L 60.675994 307.584 
L 62.199706 307.584 
L 63.723418 307.584 
L 65.24713 307.584 
L 66.770842 307.584 
L 68.294554 307.584 
L 69.818266 307.584 
L 71.341978 307.584 
L 72.86569 307.584 
L 74.389402 307.584 
L 75.913114 307.584 
L 77.436826 307.584 
L 78.960538 307.584 
L 80.48425 307.584 
L 82.007962 307.584 
L 83.531674 307.584 
L 85.055386 307.584 
L 86.579098 307.584 
L 88.10281 307.584 
L 89.626522 307.584 
L 91.150234 307.584 
L 92.673946 307.584 
L 94.197658 307.584 
L 95.72137 307.584 
L 97.245082 307.584 
L 98.768794 307.584 
L 100.292506 307.584 
L 101.816218 307.584 
L 103.33993 307.584 
L 103.33993 304.2576 
L 103.33993 300.9312 
L 103.33993 297.6048 
L 103.33993 294.2784 
L 103.33993 290.952 
L 103.33993 287.6256 
L 103.33993 284.2992 
L 103.33993 280.9728 
L 103.33993 277.6464 
L 103.33993 274.32 
L 103.33993 270.9936 
L 103.33993 267.6672 
L 103.33993 264.3408 
L 103.33993 261.0144 
L 103.33993 257.688 
L 103.33993 254.3616 
L 103.33993 251.0352 
L 103.33993 247.7088 
L 103.33993 244.3824 
L 103.33993 241.056 
L 103.33993 237.7296 
L 103.33993 234.4032 
L 103.33993 231.0768 
L 103.33993 227.7504 
L 103.33993 224.424 
L 103.33993 221.0976 
L 103.33993 217.7712 
L 103.33993 214.4448 
L 103.33993 211.1184 
L 103.33993 207.792 
L 103.33993 204.4656 
L 103.33993 201.1392 
L 103.33993 197.8128 
L 103.33993 194.4864 
L 103.33993 191.16 
L 103.33993 187.8336 
L 103.33993 184.5072 
L 103.33993 181.1808 
L 103.33993 177.8544 
L 103.33993 174.528 
" clip-path="url(#p90db40b481)" style="fill: #0080ff"/>
   </g>
   <g id="PathCollection_4">
    <path clip-path="url(#p90db40b481)" style="fill: #00e4f8"/>
   </g>
   <g id="PathCollection_5">
    <path clip-path="url(#p90db40b481)" style="fill: #53ffa4"/>
   </g>
   <g id="PathCollection_6">
    <path clip-path="url(#p90db40b481)" style="fill: #a4ff53"/>
   </g>
   <g id="PathCollection_7">
    <path clip-path="url(#p90db40b481)" style="fill: #f8f500"/>
   </g>
   <g id="PathCollection_8">
    <path clip-path="url(#p90db40b481)" style="fill: #ff9400"/>
   </g>
   <g id="PathCollection_9">
    <path clip-path="url(#p90db40b481)" style="fill: #ff3800"/>
   </g>
   <g id="PathCollection_10">
    <path clip-path="url(#p90db40b481)" style="fill: #b60000"/>
   </g>
   <g id="PathCollection_11">
    <path d="M 207.249848 41.472 
L 207.341801 41.753882 
L 207.548864 42.44628 
L 208.020748 43.838873 
L 208.317013 44.7984 
L 208.715401 46.043384 
L 209.063962 47.15052 
L 209.1976 47.527033 
L 209.352344 48.1248 
L 209.595821 48.79035 
L 209.688172 49.09908 
L 209.898854 49.719894 
L 210.43398 51.4512 
L 211.15401 53.698293 
L 211.187103 53.80332 
L 211.199802 53.839029 
L 211.311996 54.253834 
L 211.442567 54.7776 
L 211.641541 55.332044 
L 211.799254 55.75188 
L 211.973401 56.311227 
L 212.528111 58.104 
L 212.830506 59.046453 
L 213.261752 60.45612 
L 213.332662 60.718523 
L 213.509976 61.4304 
L 213.786831 62.183374 
L 213.864238 62.40468 
L 214.404475 64.137745 
L 214.587999 64.7568 
L 214.944041 65.91115 
L 215.31087 67.10892 
L 215.399283 67.480334 
L 215.554939 68.0832 
L 215.897931 69.033887 
L 215.906837 69.05748 
L 215.964651 69.24272 
L 216.607664 71.4096 
L 217.200884 73.330438 
L 217.319994 73.76172 
L 217.387919 73.972199 
L 217.472086 74.326099 
L 217.577821 74.736 
L 217.72075 75.122752 
L 217.827085 75.425049 
L 217.90059 75.71028 
L 218.150662 76.531859 
L 218.605282 78.0624 
L 218.973955 79.254622 
L 219.294523 80.41452 
L 219.477616 80.980696 
L 219.578985 81.3888 
L 219.655546 81.595435 
L 219.712512 81.756921 
L 219.868721 82.36308 
L 220.401109 84.109445 
L 220.58121 84.7152 
L 220.72727 85.186924 
L 221.247335 87.06732 
L 221.544838 87.985368 
L 221.558792 88.0416 
L 221.577238 88.092318 
L 221.81524 89.01588 
L 222.460034 91.127671 
L 222.525355 91.368 
L 222.611542 91.670588 
L 223.178782 93.72012 
L 223.410315 94.433101 
L 223.465748 94.6944 
L 223.563486 94.981771 
L 223.740495 95.66868 
L 224.171254 97.077272 
L 224.427955 98.0208 
L 224.766884 99.209093 
L 225.089214 100.37292 
L 225.22094 100.777706 
L 225.277513 101.030467 
L 225.34156 101.3472 
L 225.452519 101.680225 
L 225.555194 101.973589 
L 225.644838 102.32148 
L 225.863303 103.034751 
L 226.309616 104.6736 
L 226.899283 106.738169 
L 226.978977 107.02572 
L 227.011585 107.125712 
L 227.196455 108 
L 227.367305 108.511279 
L 227.525382 108.961744 
L 227.528612 108.97428 
L 227.536495 108.999978 
L 228.17068 111.3264 
L 228.568357 112.716868 
L 228.827522 113.67852 
L 228.849683 113.794948 
L 229.030769 114.6528 
L 229.261214 115.34039 
L 229.362086 115.62708 
L 230.002411 117.946966 
L 230.010765 117.9792 
L 230.025949 118.034785 
L 230.645518 120.33132 
L 230.679951 120.485935 
L 230.844837 121.3056 
L 231.068835 121.956864 
L 231.174204 122.27988 
L 231.425224 123.188217 
L 231.799745 124.632 
L 232.432748 126.946339 
L 232.441702 126.98412 
L 232.44699 127.002194 
L 232.530627 127.443219 
L 232.638992 127.9584 
L 232.807788 128.447779 
L 232.933456 128.831803 
L 232.955106 128.93268 
L 233.031892 129.21667 
L 233.568839 131.2848 
L 234.023624 132.945393 
L 234.187585 133.63692 
L 234.28461 133.967783 
L 234.413563 134.6112 
L 234.527465 134.940488 
L 234.612279 135.198843 
L 234.695219 135.58548 
L 234.990061 136.674149 
L 235.318375 137.9376 
L 235.596504 138.951842 
L 235.913881 140.28972 
L 236.102055 140.929939 
L 236.131159 141.084006 
L 236.168878 141.264 
L 236.228185 141.434962 
L 236.272352 141.569074 
L 236.415838 142.23828 
L 236.927099 144.122945 
L 237.048674 144.5904 
L 237.151686 144.965564 
L 237.620908 146.94252 
L 237.899658 147.888718 
L 237.902099 147.901669 
L 237.905264 147.9168 
L 237.910264 147.931171 
L 237.913988 147.942443 
L 238.117282 148.89108 
L 238.68692 150.987484 
L 238.746746 151.2432 
L 238.824596 151.555492 
L 239.308982 153.59532 
L 239.523354 154.321306 
L 239.542667 154.432005 
L 239.563625 154.5696 
L 239.607957 154.713273 
L 239.64895 154.839273 
L 239.799865 155.54388 
L 240.201093 157.018058 
L 240.406676 157.896 
L 240.674391 158.968437 
L 240.978419 160.24812 
L 241.113196 160.703491 
L 241.197098 161.2224 
L 241.376001 161.786042 
L 241.463902 162.19668 
L 241.698087 163.055691 
L 242.048031 164.5488 
L 242.504075 166.373117 
L 242.62953 166.90092 
L 242.68524 167.088706 
L 242.812005 167.8752 
L 242.953376 168.330309 
L 243.084054 168.729578 
L 243.109705 168.84948 
L 243.178188 169.100267 
L 243.671116 171.2016 
L 244.166131 173.179051 
L 244.253065 173.55372 
L 244.259164 173.597538 
L 244.408648 174.528 
L 244.598222 175.136234 
L 244.718389 175.50228 
L 245.008074 176.712228 
L 245.276238 177.8544 
L 245.452124 178.556038 
L 245.835462 180.20652 
L 245.862235 180.399574 
L 245.987327 181.1808 
L 246.224904 181.940467 
L 246.295572 182.15508 
L 246.724903 183.946134 
L 246.848859 184.5072 
L 247.061371 185.40207 
L 247.400162 186.85932 
L 247.417951 186.962868 
L 247.548339 187.8336 
L 247.833728 188.743038 
L 247.855144 188.80788 
L 247.984973 189.348839 
L 248.38541 191.16 
L 248.907831 193.356958 
L 248.938306 193.51212 
L 248.957467 193.584839 
L 249.091979 194.4864 
L 249.354585 195.320366 
L 249.378321 195.46068 
L 249.469589 195.846688 
L 249.904607 197.8128 
L 250.292259 199.440849 
L 250.434508 200.16492 
L 250.524172 200.504315 
L 250.618542 201.1392 
L 250.724866 201.467747 
L 250.804096 201.726438 
L 250.869484 202.11348 
L 251.121729 203.178409 
L 251.406738 204.4656 
L 251.660817 205.531261 
L 251.913607 206.81772 
L 252.073355 207.420809 
L 252.096609 207.591154 
L 252.128319 207.792 
L 252.190687 207.984088 
L 252.237174 208.135307 
L 252.343627 208.76628 
L 252.755651 210.502644 
L 252.89209 211.1184 
L 253.013772 211.628085 
L 253.375884 213.47052 
L 253.605311 214.33437 
L 253.6122 214.385045 
L 253.621599 214.4448 
L 253.640215 214.501947 
L 253.654094 214.546926 
L 253.801031 215.41908 
L 254.350733 217.731482 
L 254.358474 217.7712 
L 254.36849 217.818215 
L 254.821621 220.12332 
L 255.045206 220.962939 
L 255.05252 221.02327 
L 255.059832 221.0976 
L 255.081935 221.174668 
L 255.102361 221.24199 
L 255.241976 222.07188 
L 255.664137 223.844559 
L 255.777161 224.424 
L 255.923523 225.110032 
L 256.251094 226.77612 
L 256.413109 227.382902 
L 256.432955 227.547561 
L 256.452767 227.7504 
L 256.513325 227.960721 
L 256.569275 228.14448 
L 256.666738 228.72468 
L 256.962383 229.963865 
L 257.17963 231.0768 
L 257.461214 232.394722 
L 257.66458 233.42892 
L 257.765406 233.805521 
L 257.797492 234.073331 
L 257.82948 234.4032 
L 257.928357 234.745251 
L 258.019687 235.044162 
L 258.075592 235.37748 
L 258.245726 236.089295 
L 258.566149 237.7296 
L 258.981852 239.672405 
L 259.062352 240.08172 
L 259.102359 240.230752 
L 259.146396 240.600557 
L 259.190234 241.056 
L 259.453877 241.941082 
L 259.468814 242.03028 
L 259.51442 242.220744 
L 259.93699 244.3824 
L 260.359822 246.355633 
L 260.433222 246.73452 
L 260.479929 247.129214 
L 260.535293 247.7088 
L 260.803625 248.606211 
L 260.825283 248.68308 
L 261.03803 249.734806 
L 261.292417 251.0352 
L 261.477843 251.899262 
L 261.766376 253.38732 
L 261.798353 253.659277 
L 261.864919 254.3616 
L 262.098106 255.138504 
L 262.153959 255.33588 
L 262.583228 257.455428 
L 262.625426 257.688 
L 262.694396 258.03086 
L 263.084333 260.04012 
L 263.108189 260.331528 
L 263.17937 261.0144 
L 263.430312 261.868647 
L 263.467514 261.98868 
L 263.677225 263.022891 
L 263.916477 264.3408 
L 264.308024 266.284514 
L 264.387353 266.69292 
L 264.390904 266.723528 
L 264.478904 267.6672 
L 264.764052 268.633929 
L 264.764965 268.64148 
L 264.769072 268.661773 
L 265.192616 270.9936 
L 265.594571 272.9862 
L 265.649984 273.34572 
L 265.688942 273.510701 
L 265.763777 274.32 
L 265.988377 275.078331 
L 266.014412 275.29428 
L 266.132119 275.874696 
L 266.454092 277.6464 
L 266.759876 279.160137 
L 266.889056 279.99852 
L 266.980202 280.383292 
L 267.001602 280.65238 
L 267.034243 280.9728 
L 267.198515 281.525147 
L 267.249222 281.94708 
L 267.479705 283.081266 
L 267.701154 284.2992 
L 267.911624 285.339644 
L 268.113662 286.65132 
L 268.256733 287.253377 
L 268.270107 287.423269 
L 268.290554 287.6256 
L 268.394704 287.974339 
L 268.469637 288.59988 
L 268.812092 290.28159 
L 268.934049 290.952 
L 269.050047 291.524626 
L 269.324044 293.30412 
L 269.518787 294.120997 
L 269.524383 294.192834 
L 269.532959 294.2784 
L 269.577184 294.425863 
L 269.675898 295.25268 
L 270.129541 297.475775 
L 270.153023 297.6048 
L 270.175376 297.71499 
L 270.520442 299.95692 
L 270.741336 300.880507 
L 270.743848 300.9312 
L 270.758705 300.984849 
L 270.868245 301.90548 
L 271.279013 303.914267 
L 271.332167 304.2576 
L 271.401804 304.651392 
L 271.703095 306.60972 
L 271.878271 307.339784 
L 271.912465 307.584 
L 278.53824 307.584 
L 286.63296 307.584 
L 294.72768 307.584 
L 302.8224 307.584 
L 310.91712 307.584 
L 319.01184 307.584 
L 327.10656 307.584 
L 335.20128 307.584 
L 343.296 307.584 
L 343.296 304.2576 
L 343.296 300.9312 
L 343.296 297.6048 
L 343.296 294.2784 
L 343.296 290.952 
L 343.296 287.6256 
L 343.296 284.2992 
L 343.296 280.9728 
L 343.296 277.6464 
L 343.296 274.32 
L 343.296 270.9936 
L 343.296 267.6672 
L 343.296 264.3408 
L 343.296 261.0144 
L 343.296 257.688 
L 343.296 254.3616 
L 343.296 251.0352 
L 343.296 247.7088 
L 343.296 244.3824 
L 343.296 241.056 
L 343.296 237.7296 
L 343.296 234.4032 
L 343.296 231.0768 
L 343.296 227.7504 
L 343.296 224.424 
L 343.296 221.0976 
L 343.296 217.7712 
L 343.296 214.4448 
L 343.296 211.1184 
L 343.296 207.792 
L 343.296 204.4656 
L 343.296 201.1392 
L 343.296 197.8128 
L 343.296 194.4864 
L 343.296 191.16 
L 343.296 187.8336 
L 343.296 184.5072 
L 343.296 181.1808 
L 343.296 177.8544 
L 343.296 174.528 
L 343.296 171.2016 
L 343.296 167.8752 
L 343.296 164.5488 
L 343.296 161.2224 
L 343.296 157.896 
L 343.296 154.5696 
L 343.296 151.2432 
L 343.296 147.9168 
L 343.296 144.5904 
L 343.296 141.264 
L 343.296 137.9376 
L 343.296 134.6112 
L 343.296 131.2848 
L 343.296 127.9584 
L 343.296 124.632 
L 343.296 121.3056 
L 343.296 117.9792 
L 343.296 114.6528 
L 343.296 111.3264 
L 343.296 108 
L 343.296 104.6736 
L 343.296 101.3472 
L 343.296 98.0208 
L 343.296 94.6944 
L 343.296 91.368 
L 343.296 88.0416 
L 343.296 84.7152 
L 343.296 81.3888 
L 343.296 78.0624 
L 343.296 74.736 
L 343.296 71.4096 
L 343.296 68.0832 
L 343.296 64.7568 
L 343.296 61.4304 
L 343.296 58.104 
L 343.296 54.7776 
L 343.296 51.4512 
L 343.296 48.1248 
L 343.296 44.7984 
L 343.296 41.472 
L 335.20128 41.472 
L 327.10656 41.472 
L 319.01184 41.472 
L 310.91712 41.472 
L 302.8224 41.472 
L 294.72768 41.472 
L 286.63296 41.472 
L 278.53824 41.472 
L 270.44352 41.472 
L 262.3488 41.472 
L 254.25408 41.472 
L 246.15936 41.472 
L 238.06464 41.472 
L 229.96992 41.472 
L 221.8752 41.472 
L 213.78048 41.472 
" clip-path="url(#p90db40b481)" style="fill: #0000b6"/>
   </g>
   <g id="PathCollection_12">
    <path d="M 271.912465 307.584 
L 271.878271 307.339784 
L 271.703095 306.60972 
L 271.401804 304.651392 
L 271.332167 304.2576 
L 271.279013 303.914267 
L 270.868245 301.90548 
L 270.758705 300.984849 
L 270.743848 300.9312 
L 270.741336 300.880507 
L 270.520442 299.95692 
L 270.175376 297.71499 
L 270.153023 297.6048 
L 270.129541 297.475775 
L 269.675898 295.25268 
L 269.577184 294.425863 
L 269.532959 294.2784 
L 269.524383 294.192834 
L 269.518787 294.120997 
L 269.324044 293.30412 
L 269.050047 291.524626 
L 268.934049 290.952 
L 268.812092 290.28159 
L 268.469637 288.59988 
L 268.394704 287.974339 
L 268.290554 287.6256 
L 268.270107 287.423269 
L 268.256733 287.253377 
L 268.113662 286.65132 
L 267.911624 285.339644 
L 267.701154 284.2992 
L 267.479705 283.081266 
L 267.249222 281.94708 
L 267.198515 281.525147 
L 267.034243 280.9728 
L 267.001602 280.65238 
L 266.980202 280.383292 
L 266.889056 279.99852 
L 266.759876 279.160137 
L 266.454092 277.6464 
L 266.132119 275.874696 
L 266.014412 275.29428 
L 265.988377 275.078331 
L 265.763777 274.32 
L 265.688942 273.510701 
L 265.649984 273.34572 
L 265.594571 272.9862 
L 265.192616 270.9936 
L 264.769072 268.661773 
L 264.764965 268.64148 
L 264.764052 268.633929 
L 264.478904 267.6672 
L 264.390904 266.723528 
L 264.387353 266.69292 
L 264.308024 266.284514 
L 263.916477 264.3408 
L 263.677225 263.022891 
L 263.467514 261.98868 
L 263.430312 261.868647 
L 263.17937 261.0144 
L 263.108189 260.331528 
L 263.084333 260.04012 
L 262.694396 258.03086 
L 262.625426 257.688 
L 262.583228 257.455428 
L 262.153959 255.33588 
L 262.098106 255.138504 
L 261.864919 254.3616 
L 261.798353 253.659277 
L 261.766376 253.38732 
L 261.477843 251.899262 
L 261.292417 251.0352 
L 261.03803 249.734806 
L 260.825283 248.68308 
L 260.803625 248.606211 
L 260.535293 247.7088 
L 260.479929 247.129214 
L 260.433222 246.73452 
L 260.359822 246.355633 
L 259.93699 244.3824 
L 259.51442 242.220744 
L 259.468814 242.03028 
L 259.453877 241.941082 
L 259.190234 241.056 
L 259.146396 240.600557 
L 259.102359 240.230752 
L 259.062352 240.08172 
L 258.981852 239.672405 
L 258.566149 237.7296 
L 258.245726 236.089295 
L 258.075592 235.37748 
L 258.019687 235.044162 
L 257.928357 234.745251 
L 257.82948 234.4032 
L 257.797492 234.073331 
L 257.765406 233.805521 
L 257.66458 233.42892 
L 257.461214 232.394722 
L 257.17963 231.0768 
L 256.962383 229.963865 
L 256.666738 228.72468 
L 256.569275 228.14448 
L 256.513325 227.960721 
L 256.452767 227.7504 
L 256.432955 227.547561 
L 256.413109 227.382902 
L 256.251094 226.77612 
L 255.923523 225.110032 
L 255.777161 224.424 
L 255.664137 223.844559 
L 255.241976 222.07188 
L 255.102361 221.24199 
L 255.081935 221.174668 
L 255.059832 221.0976 
L 255.05252 221.02327 
L 255.045206 220.962939 
L 254.821621 220.12332 
L 254.36849 217.818215 
L 254.358474 217.7712 
L 254.350733 217.731482 
L 253.801031 215.41908 
L 253.654094 214.546926 
L 253.640215 214.501947 
L 253.621599 214.4448 
L 253.6122 214.385045 
L 253.605311 214.33437 
L 253.375884 213.47052 
L 253.013772 211.628085 
L 252.89209 211.1184 
L 252.755651 210.502644 
L 252.343627 208.76628 
L 252.237174 208.135307 
L 252.190687 207.984088 
L 252.128319 207.792 
L 252.096609 207.591154 
L 252.073355 207.420809 
L 251.913607 206.81772 
L 251.660817 205.531261 
L 251.406738 204.4656 
L 251.121729 203.178409 
L 250.869484 202.11348 
L 250.804096 201.726438 
L 250.724866 201.467747 
L 250.618542 201.1392 
L 250.524172 200.504315 
L 250.434508 200.16492 
L 250.292259 199.440849 
L 249.904607 197.8128 
L 249.469589 195.846688 
L 249.378321 195.46068 
L 249.354585 195.320366 
L 249.091979 194.4864 
L 248.957467 193.584839 
L 248.938306 193.51212 
L 248.907831 193.356958 
L 248.38541 191.16 
L 247.984973 189.348839 
L 247.855144 188.80788 
L 247.833728 188.743038 
L 247.548339 187.8336 
L 247.417951 186.962868 
L 247.400162 186.85932 
L 247.061371 185.40207 
L 246.848859 184.5072 
L 246.724903 183.946134 
L 246.295572 182.15508 
L 246.224904 181.940467 
L 245.987327 181.1808 
L 245.862235 180.399574 
L 245.835462 180.20652 
L 245.452124 178.556038 
L 245.276238 177.8544 
L 245.008074 176.712228 
L 244.718389 175.50228 
L 244.598222 175.136234 
L 244.408648 174.528 
L 244.259164 173.597538 
L 244.253065 173.55372 
L 244.166131 173.179051 
L 243.671116 171.2016 
L 243.178188 169.100267 
L 243.109705 168.84948 
L 243.084054 168.729578 
L 242.953376 168.330309 
L 242.812005 167.8752 
L 242.68524 167.088706 
L 242.62953 166.90092 
L 242.504075 166.373117 
L 242.048031 164.5488 
L 241.698087 163.055691 
L 241.463902 162.19668 
L 241.376001 161.786042 
L 241.197098 161.2224 
L 241.113196 160.703491 
L 240.978419 160.24812 
L 240.674391 158.968437 
L 240.406676 157.896 
L 240.201093 157.018058 
L 239.799865 155.54388 
L 239.64895 154.839273 
L 239.607957 154.713273 
L 239.563625 154.5696 
L 239.542667 154.432005 
L 239.523354 154.321306 
L 239.308982 153.59532 
L 238.824596 151.555492 
L 238.746746 151.2432 
L 238.68692 150.987484 
L 238.117282 148.89108 
L 237.913988 147.942443 
L 237.910264 147.931171 
L 237.905264 147.9168 
L 237.902099 147.901669 
L 237.899658 147.888718 
L 237.620908 146.94252 
L 237.151686 144.965564 
L 237.048674 144.5904 
L 236.927099 144.122945 
L 236.415838 142.23828 
L 236.272352 141.569074 
L 236.228185 141.434962 
L 236.168878 141.264 
L 236.131159 141.084006 
L 236.102055 140.929939 
L 235.913881 140.28972 
L 235.596504 138.951842 
L 235.318375 137.9376 
L 234.990061 136.674149 
L 234.695219 135.58548 
L 234.612279 135.198843 
L 234.527465 134.940488 
L 234.413563 134.6112 
L 234.28461 133.967783 
L 234.187585 133.63692 
L 234.023624 132.945393 
L 233.568839 131.2848 
L 233.031892 129.21667 
L 232.955106 128.93268 
L 232.933456 128.831803 
L 232.807788 128.447779 
L 232.638992 127.9584 
L 232.530627 127.443219 
L 232.44699 127.002194 
L 232.441702 126.98412 
L 232.432748 126.946339 
L 231.799745 124.632 
L 231.425224 123.188217 
L 231.174204 122.27988 
L 231.068835 121.956864 
L 230.844837 121.3056 
L 230.679951 120.485935 
L 230.645518 120.33132 
L 230.025949 118.034785 
L 230.010765 117.9792 
L 230.002411 117.946966 
L 229.362086 115.62708 
L 229.261214 115.34039 
L 229.030769 114.6528 
L 228.849683 113.794948 
L 228.827522 113.67852 
L 228.568357 112.716868 
L 228.17068 111.3264 
L 227.536495 108.999978 
L 227.528612 108.97428 
L 227.525382 108.961744 
L 227.367305 108.511279 
L 227.196455 108 
L 227.011585 107.125712 
L 226.978977 107.02572 
L 226.899283 106.738169 
L 226.309616 104.6736 
L 225.863303 103.034751 
L 225.644838 102.32148 
L 225.555194 101.973589 
L 225.452519 101.680225 
L 225.34156 101.3472 
L 225.277513 101.030467 
L 225.22094 100.777706 
L 225.089214 100.37292 
L 224.766884 99.209093 
L 224.427955 98.0208 
L 224.171254 97.077272 
L 223.740495 95.66868 
L 223.563486 94.981771 
L 223.465748 94.6944 
L 223.410315 94.433101 
L 223.178782 93.72012 
L 222.611542 91.670588 
L 222.525355 91.368 
L 222.460034 91.127671 
L 221.81524 89.01588 
L 221.577238 88.092318 
L 221.558792 88.0416 
L 221.544838 87.985368 
L 221.247335 87.06732 
L 220.72727 85.186924 
L 220.58121 84.7152 
L 220.401109 84.109445 
L 219.868721 82.36308 
L 219.712512 81.756921 
L 219.655546 81.595435 
L 219.578985 81.3888 
L 219.477616 80.980696 
L 219.294523 80.41452 
L 218.973955 79.254622 
L 218.605282 78.0624 
L 218.150662 76.531859 
L 217.90059 75.71028 
L 217.827085 75.425049 
L 217.72075 75.122752 
L 217.577821 74.736 
L 217.472086 74.326099 
L 217.387919 73.972199 
L 217.319994 73.76172 
L 217.200884 73.330438 
L 216.607664 71.4096 
L 215.964651 69.24272 
L 215.906837 69.05748 
L 215.897931 69.033887 
L 215.554939 68.0832 
L 215.399283 67.480334 
L 215.31087 67.10892 
L 214.944041 65.91115 
L 214.587999 64.7568 
L 214.404475 64.137745 
L 213.864238 62.40468 
L 213.786831 62.183374 
L 213.509976 61.4304 
L 213.332662 60.718523 
L 213.261752 60.45612 
L 212.830506 59.046453 
L 212.528111 58.104 
L 211.973401 56.311227 
L 211.799254 55.75188 
L 211.641541 55.332044 
L 211.442567 54.7776 
L 211.311996 54.253834 
L 211.199802 53.839029 
L 211.187103 53.80332 
L 211.15401 53.698293 
L 210.43398 51.4512 
L 209.898854 49.719894 
L 209.688172 49.09908 
L 209.595821 48.79035 
L 209.352344 48.1248 
L 209.1976 47.527033 
L 209.063962 47.15052 
L 208.715401 46.043384 
L 208.317013 44.7984 
L 208.020748 43.838873 
L 207.548864 42.44628 
L 207.341801 41.753882 
L 207.249848 41.472 
L 205.68576 41.472 
L 197.59104 41.472 
L 189.49632 41.472 
L 181.4016 41.472 
L 173.30688 41.472 
L 165.21216 41.472 
L 157.11744 41.472 
L 149.02272 41.472 
L 140.928 41.472 
L 132.83328 41.472 
L 124.73856 41.472 
L 116.64384 41.472 
L 108.54912 41.472 
L 100.4544 41.472 
L 100.4544 44.7984 
L 100.4544 48.1248 
L 100.4544 51.4512 
L 100.4544 54.7776 
L 100.4544 58.104 
L 100.4544 61.4304 
L 100.4544 64.7568 
L 100.4544 68.0832 
L 100.4544 71.4096 
L 100.4544 74.736 
L 100.4544 78.0624 
L 100.4544 81.3888 
L 100.4544 84.7152 
L 100.4544 88.0416 
L 100.4544 91.368 
L 100.4544 94.6944 
L 100.4544 98.0208 
L 100.4544 101.3472 
L 100.4544 104.6736 
L 100.4544 108 
L 100.4544 111.3264 
L 100.4544 114.6528 
L 100.4544 117.9792 
L 100.4544 121.3056 
L 100.4544 124.632 
L 100.4544 127.9584 
L 100.4544 131.2848 
L 100.4544 134.6112 
L 100.4544 137.9376 
L 100.4544 141.264 
L 100.4544 144.5904 
L 100.4544 147.9168 
L 100.4544 151.2432 
L 100.4544 154.5696 
L 100.4544 157.896 
L 100.4544 161.2224 
L 100.4544 164.5488 
L 100.4544 167.304649 
L 100.714699 167.768234 
L 100.77357 167.8752 
L 100.870035 168.045999 
L 101.860861 169.806272 
L 102.633907 171.2016 
L 103.743292 173.176481 
L 103.946881 173.55372 
L 104.066365 173.764969 
L 104.486678 174.528 
L 104.843403 175.158767 
L 105.025537 175.50228 
L 105.67754 176.674369 
L 106.331973 177.8544 
L 106.748196 178.594462 
L 107.618976 180.20652 
L 108.130608 181.109563 
L 108.169883 181.1808 
L 108.203224 181.239677 
L 108.688841 182.15508 
L 109.728973 184.022358 
L 109.988057 184.5072 
L 110.40109 185.268238 
L 111.261311 186.85932 
L 111.526609 187.326788 
L 111.780554 187.8336 
L 111.960122 188.151142 
L 112.128888 188.442929 
L 112.322595 188.80788 
L 112.686282 189.459897 
L 113.595734 191.16 
L 114.663393 193.124769 
L 114.869172 193.51212 
L 115.057188 193.880541 
L 115.356423 194.4864 
L 115.735587 195.155413 
L 115.912502 195.46068 
L 116.98967 197.469707 
L 117.169342 197.8128 
L 117.758035 198.918174 
L 118.421084 200.16492 
L 118.448002 200.217679 
L 118.903125 201.1392 
L 119.417578 202.044909 
L 119.451608 202.11348 
L 119.572541 202.342705 
L 120.685361 204.4656 
L 121.413842 205.831842 
L 121.91508 206.81772 
L 122.208699 207.361381 
L 122.421362 207.792 
L 122.626062 208.151578 
L 122.931255 208.76628 
L 124.017288 210.822004 
L 124.17281 211.1184 
L 124.27459 211.309061 
L 125.374447 213.47052 
L 125.803479 214.263535 
L 125.887397 214.4448 
L 125.948386 214.557427 
L 126.005509 214.660453 
L 126.382322 215.41908 
L 127.110906 216.796321 
L 127.601856 217.7712 
L 128.367251 219.262354 
L 128.805721 220.12332 
L 128.945638 220.381494 
L 129.092412 220.692285 
L 129.277067 221.0976 
L 129.518593 221.54259 
L 129.744803 221.949736 
L 129.805499 222.07188 
L 129.922932 222.293562 
L 130.996931 224.424 
L 131.617042 225.63061 
L 132.190307 226.77612 
L 132.317177 227.04488 
L 132.638523 227.7504 
L 133.059964 228.525069 
L 133.171098 228.72468 
L 133.850452 230.06768 
L 134.346967 231.0768 
L 135.472947 233.31847 
L 135.525392 233.42892 
L 135.556069 233.488819 
L 135.749468 233.921112 
L 135.972441 234.4032 
L 136.214365 234.842009 
L 136.393333 235.175067 
L 136.486538 235.37748 
L 136.816458 236.040025 
L 137.64856 237.7296 
L 138.210196 238.846439 
L 138.797207 240.08172 
L 139.141022 240.75183 
L 139.279491 241.056 
L 139.360138 241.201958 
L 139.419802 241.312717 
L 139.750324 242.03028 
L 140.921954 244.379916 
L 140.923179 244.3824 
L 140.924005 244.384042 
L 142.04184 246.73452 
L 142.412713 247.45608 
L 142.460265 247.566156 
L 142.519462 247.7088 
L 142.60004 247.864456 
L 142.675245 248.006207 
L 142.987118 248.68308 
L 143.611059 249.932639 
L 144.130336 251.0352 
L 144.921527 252.676278 
L 145.259945 253.38732 
L 145.372106 253.605148 
L 145.514348 253.934641 
L 145.691451 254.3616 
L 145.933247 254.827556 
L 146.158909 255.251977 
L 146.197579 255.33588 
L 146.275006 255.490731 
L 147.310893 257.688 
L 147.865214 258.836343 
L 148.428394 260.04012 
L 148.54288 260.305504 
L 148.836782 261.0144 
L 149.239266 261.788125 
L 149.346132 261.98868 
L 150.000796 263.370466 
L 150.445754 264.3408 
L 151.526368 266.638365 
L 151.550361 266.69292 
L 151.564428 266.721996 
L 151.745219 267.167081 
L 151.956096 267.6672 
L 152.376872 268.474114 
L 152.447594 268.64148 
L 152.697739 269.177392 
L 153.53133 270.9936 
L 154.112734 272.228337 
L 154.604497 273.34572 
L 154.893238 273.941408 
L 155.050031 274.32 
L 155.147007 274.503434 
L 155.218955 274.64315 
L 155.494139 275.29428 
L 156.469011 277.379938 
L 156.591419 277.6464 
L 156.676783 277.827481 
L 157.632938 279.99852 
L 158.030587 280.817369 
L 158.089563 280.9728 
L 158.179791 281.153628 
L 158.515173 281.94708 
L 159.213045 283.438043 
L 159.588996 284.2992 
L 160.148652 285.54483 
L 160.636307 286.65132 
L 160.804942 286.997933 
L 160.911639 287.272385 
L 161.042883 287.6256 
L 161.232168 288.008654 
L 161.408196 288.35595 
L 161.511316 288.59988 
L 161.726111 289.058138 
L 162.553693 290.952 
L 163.374031 292.775578 
L 163.603172 293.30412 
L 163.742037 293.661693 
L 163.970988 294.2784 
L 164.302366 294.94727 
L 164.457521 295.25268 
L 165.407369 297.411136 
L 165.489362 297.6048 
L 165.701336 298.090104 
L 166.511467 299.95692 
L 166.548817 300.0532 
L 166.874484 300.9312 
L 167.347536 301.883555 
L 167.3587 301.90548 
L 167.426932 302.060361 
L 168.357975 304.2576 
L 169.111815 305.981497 
L 169.365107 306.60972 
L 169.514774 306.938528 
L 169.7832 307.584 
L 173.30688 307.584 
L 181.4016 307.584 
L 189.49632 307.584 
L 197.59104 307.584 
L 205.68576 307.584 
L 213.78048 307.584 
L 221.8752 307.584 
L 229.96992 307.584 
L 238.06464 307.584 
L 246.15936 307.584 
L 254.25408 307.584 
L 262.3488 307.584 
L 270.44352 307.584 
" clip-path="url(#p90db40b481)" style="fill: #0018ff"/>
   </g>
   <g id="PathCollection_13">
    <path d="M 169.7832 307.584 
L 169.514774 306.938528 
L 169.365107 306.60972 
L 169.111815 305.981497 
L 168.357975 304.2576 
L 167.426932 302.060361 
L 167.3587 301.90548 
L 167.347536 301.883555 
L 166.874484 300.9312 
L 166.548817 300.0532 
L 166.511467 299.95692 
L 165.701336 298.090104 
L 165.489362 297.6048 
L 165.407369 297.411136 
L 164.457521 295.25268 
L 164.302366 294.94727 
L 163.970988 294.2784 
L 163.742037 293.661693 
L 163.603172 293.30412 
L 163.374031 292.775578 
L 162.553693 290.952 
L 161.726111 289.058138 
L 161.511316 288.59988 
L 161.408196 288.35595 
L 161.232168 288.008654 
L 161.042883 287.6256 
L 160.911639 287.272385 
L 160.804942 286.997933 
L 160.636307 286.65132 
L 160.148652 285.54483 
L 159.588996 284.2992 
L 159.213045 283.438043 
L 158.515173 281.94708 
L 158.179791 281.153628 
L 158.089563 280.9728 
L 158.030587 280.817369 
L 157.632938 279.99852 
L 156.676783 277.827481 
L 156.591419 277.6464 
L 156.469011 277.379938 
L 155.494139 275.29428 
L 155.218955 274.64315 
L 155.147007 274.503434 
L 155.050031 274.32 
L 154.893238 273.941408 
L 154.604497 273.34572 
L 154.112734 272.228337 
L 153.53133 270.9936 
L 152.697739 269.177392 
L 152.447594 268.64148 
L 152.376872 268.474114 
L 151.956096 267.6672 
L 151.745219 267.167081 
L 151.564428 266.721996 
L 151.550361 266.69292 
L 151.526368 266.638365 
L 150.445754 264.3408 
L 150.000796 263.370466 
L 149.346132 261.98868 
L 149.239266 261.788125 
L 148.836782 261.0144 
L 148.54288 260.305504 
L 148.428394 260.04012 
L 147.865214 258.836343 
L 147.310893 257.688 
L 146.275006 255.490731 
L 146.197579 255.33588 
L 146.158909 255.251977 
L 145.933247 254.827556 
L 145.691451 254.3616 
L 145.514348 253.934641 
L 145.372106 253.605148 
L 145.259945 253.38732 
L 144.921527 252.676278 
L 144.130336 251.0352 
L 143.611059 249.932639 
L 142.987118 248.68308 
L 142.675245 248.006207 
L 142.60004 247.864456 
L 142.519462 247.7088 
L 142.460265 247.566156 
L 142.412713 247.45608 
L 142.04184 246.73452 
L 140.924005 244.384042 
L 140.923179 244.3824 
L 140.921954 244.379916 
L 139.750324 242.03028 
L 139.419802 241.312717 
L 139.360138 241.201958 
L 139.279491 241.056 
L 139.141022 240.75183 
L 138.797207 240.08172 
L 138.210196 238.846439 
L 137.64856 237.7296 
L 136.816458 236.040025 
L 136.486538 235.37748 
L 136.393333 235.175067 
L 136.214365 234.842009 
L 135.972441 234.4032 
L 135.749468 233.921112 
L 135.556069 233.488819 
L 135.525392 233.42892 
L 135.472947 233.31847 
L 134.346967 231.0768 
L 133.850452 230.06768 
L 133.171098 228.72468 
L 133.059964 228.525069 
L 132.638523 227.7504 
L 132.317177 227.04488 
L 132.190307 226.77612 
L 131.617042 225.63061 
L 130.996931 224.424 
L 129.922932 222.293562 
L 129.805499 222.07188 
L 129.744803 221.949736 
L 129.518593 221.54259 
L 129.277067 221.0976 
L 129.092412 220.692285 
L 128.945638 220.381494 
L 128.805721 220.12332 
L 128.367251 219.262354 
L 127.601856 217.7712 
L 127.110906 216.796321 
L 126.382322 215.41908 
L 126.005509 214.660453 
L 125.948386 214.557427 
L 125.887397 214.4448 
L 125.803479 214.263535 
L 125.374447 213.47052 
L 124.27459 211.309061 
L 124.17281 211.1184 
L 124.017288 210.822004 
L 122.931255 208.76628 
L 122.626062 208.151578 
L 122.421362 207.792 
L 122.208699 207.361381 
L 121.91508 206.81772 
L 121.413842 205.831842 
L 120.685361 204.4656 
L 119.572541 202.342705 
L 119.451608 202.11348 
L 119.417578 202.044909 
L 118.903125 201.1392 
L 118.448002 200.217679 
L 118.421084 200.16492 
L 117.758035 198.918174 
L 117.169342 197.8128 
L 116.98967 197.469707 
L 115.912502 195.46068 
L 115.735587 195.155413 
L 115.356423 194.4864 
L 115.057188 193.880541 
L 114.869172 193.51212 
L 114.663393 193.124769 
L 113.595734 191.16 
L 112.686282 189.459897 
L 112.322595 188.80788 
L 112.128888 188.442929 
L 111.960122 188.151142 
L 111.780554 187.8336 
L 111.526609 187.326788 
L 111.261311 186.85932 
L 110.40109 185.268238 
L 109.988057 184.5072 
L 109.728973 184.022358 
L 108.688841 182.15508 
L 108.203224 181.239677 
L 108.169883 181.1808 
L 108.130608 181.109563 
L 107.618976 180.20652 
L 106.748196 178.594462 
L 106.331973 177.8544 
L 105.67754 176.674369 
L 105.025537 175.50228 
L 104.843403 175.158767 
L 104.486678 174.528 
L 104.066365 173.764969 
L 103.946881 173.55372 
L 103.743292 173.176481 
L 102.633907 171.2016 
L 101.860861 169.806272 
L 100.870035 168.045999 
L 100.77357 167.8752 
L 100.714699 167.768234 
L 100.4544 167.304649 
L 100.4544 167.8752 
L 100.4544 171.2016 
L 100.4544 174.528 
L 100.4544 177.8544 
L 100.4544 181.1808 
L 100.4544 184.5072 
L 100.4544 187.8336 
L 100.4544 191.16 
L 100.4544 194.4864 
L 100.4544 197.8128 
L 100.4544 201.1392 
L 100.4544 204.4656 
L 100.4544 207.792 
L 100.4544 211.1184 
L 100.4544 214.4448 
L 100.4544 217.7712 
L 100.4544 221.0976 
L 100.4544 224.424 
L 100.4544 227.7504 
L 100.4544 231.0768 
L 100.4544 234.4032 
L 100.4544 237.7296 
L 100.4544 241.056 
L 100.4544 244.3824 
L 100.4544 247.7088 
L 100.4544 251.0352 
L 100.4544 254.3616 
L 100.4544 257.688 
L 100.4544 261.0144 
L 100.4544 264.3408 
L 100.4544 267.6672 
L 100.4544 270.9936 
L 100.4544 274.32 
L 100.4544 277.6464 
L 100.4544 280.9728 
L 100.4544 284.2992 
L 100.4544 287.6256 
L 100.4544 290.952 
L 100.4544 294.2784 
L 100.4544 297.6048 
L 100.4544 300.9312 
L 100.4544 304.2576 
L 100.4544 307.584 
L 108.54912 307.584 
L 116.64384 307.584 
L 124.73856 307.584 
L 132.83328 307.584 
L 140.928 307.584 
L 149.02272 307.584 
L 157.11744 307.584 
L 165.21216 307.584 
" clip-path="url(#p90db40b481)" style="fill: #0080ff"/>
   </g>
   <g id="PathCollection_14">
    <path clip-path="url(#p90db40b481)" style="fill: #00e4f8"/>
   </g>
   <g id="PathCollection_15">
    <path clip-path="url(#p90db40b481)" style="fill: #53ffa4"/>
   </g>
   <g id="PathCollection_16">
    <path clip-path="url(#p90db40b481)" style="fill: #a4ff53"/>
   </g>
   <g id="PathCollection_17">
    <path clip-path="url(#p90db40b481)" style="fill: #f8f500"/>
   </g>
   <g id="PathCollection_18">
    <path clip-path="url(#p90db40b481)" style="fill: #ff9400"/>
   </g>
   <g id="PathCollection_19">
    <path clip-path="url(#p90db40b481)" style="fill: #ff3800"/>
   </g>
   <g id="PathCollection_20">
    <path clip-path="url(#p90db40b481)" style="fill: #b60000"/>
   </g>
   <g id="matplotlib.axis_1">
    <g id="xtick_1">
     <g id="line2d_1">
      <defs>
       <path id="mb709f61659" d="M 0 0 
L 0 3.5 
" style="stroke: #000000; stroke-width: 0.8"/>
      </defs>
      <g>
       <use xlink:href="#mb709f61659" x="57.6" y="307.584" style="stroke: #000000; stroke-width: 0.8"/>
      </g>
     </g>
     <g id="text_1">
      <!-- 0.0 -->
      <g transform="translate(51.26875 321.385562) scale(0.1 -0.1)">
       <defs>
        <path id="Calibri-30" d="M 3022 2031 
Q 3022 1566 2948 1181 
Q 2875 797 2704 520 
Q 2534 244 2259 92 
Q 1984 -59 1581 -59 
Q 1200 -59 939 77 
Q 678 213 518 477 
Q 359 741 292 1127 
Q 225 1513 225 2013 
Q 225 2475 300 2861 
Q 375 3247 544 3523 
Q 713 3800 988 3951 
Q 1263 4103 1663 4103 
Q 2047 4103 2308 3967 
Q 2569 3831 2728 3567 
Q 2888 3303 2955 2917 
Q 3022 2531 3022 2031 
z
M 2472 1994 
Q 2472 2297 2450 2537 
Q 2428 2778 2386 2962 
Q 2344 3147 2276 3280 
Q 2209 3413 2115 3498 
Q 2022 3584 1901 3623 
Q 1781 3663 1631 3663 
Q 1366 3663 1200 3538 
Q 1034 3413 939 3194 
Q 844 2975 809 2681 
Q 775 2388 775 2050 
Q 775 1597 822 1280 
Q 869 963 970 763 
Q 1072 563 1230 472 
Q 1388 381 1613 381 
Q 1788 381 1920 437 
Q 2053 494 2148 598 
Q 2244 703 2306 850 
Q 2369 997 2406 1175 
Q 2444 1353 2458 1561 
Q 2472 1769 2472 1994 
z
" transform="scale(0.015625)"/>
        <path id="Calibri-2e" d="M 1144 341 
Q 1144 119 1070 45 
Q 997 -28 803 -28 
Q 616 -28 544 44 
Q 472 116 472 331 
Q 472 553 545 626 
Q 619 700 813 700 
Q 1000 700 1072 628 
Q 1144 556 1144 341 
z
" transform="scale(0.015625)"/>
       </defs>
       <use xlink:href="#Calibri-30"/>
       <use xlink:href="#Calibri-2e" x="50.683594"/>
       <use xlink:href="#Calibri-30" x="75.927734"/>
      </g>
     </g>
    </g>
    <g id="xtick_2">
     <g id="line2d_2">
      <g>
       <use xlink:href="#mb709f61659" x="86.1696" y="307.584" style="stroke: #000000; stroke-width: 0.8"/>
      </g>
     </g>
     <g id="text_2">
      <!-- 0.1 -->
      <g transform="translate(79.83835 321.385562) scale(0.1 -0.1)">
       <defs>
        <path id="Calibri-31" d="M 2897 213 
Q 2897 153 2887 112 
Q 2878 72 2862 47 
Q 2847 22 2826 11 
Q 2806 0 2784 0 
L 672 0 
Q 650 0 631 11 
Q 613 22 595 47 
Q 578 72 568 112 
Q 559 153 559 213 
Q 559 269 568 309 
Q 578 350 592 376 
Q 606 403 626 417 
Q 647 431 672 431 
L 1516 431 
L 1516 3506 
L 734 3041 
Q 675 3009 639 3003 
Q 603 2997 581 3017 
Q 559 3038 551 3084 
Q 544 3131 544 3203 
Q 544 3256 548 3293 
Q 553 3331 562 3356 
Q 572 3381 589 3400 
Q 606 3419 634 3438 
L 1566 4034 
Q 1578 4044 1597 4050 
Q 1616 4056 1644 4062 
Q 1672 4069 1709 4070 
Q 1747 4072 1803 4072 
Q 1878 4072 1928 4065 
Q 1978 4059 2006 4048 
Q 2034 4038 2043 4020 
Q 2053 4003 2053 3984 
L 2053 431 
L 2784 431 
Q 2809 431 2831 417 
Q 2853 403 2867 376 
Q 2881 350 2889 309 
Q 2897 269 2897 213 
z
" transform="scale(0.015625)"/>
       </defs>
       <use xlink:href="#Calibri-30"/>
       <use xlink:href="#Calibri-2e" x="50.683594"/>
       <use xlink:href="#Calibri-31" x="75.927734"/>
      </g>
     </g>
    </g>
    <g id="xtick_3">
     <g id="line2d_3">
      <g>
       <use xlink:href="#mb709f61659" x="114.7392" y="307.584" style="stroke: #000000; stroke-width: 0.8"/>
      </g>
     </g>
     <g id="text_3">
      <!-- 0.2 -->
      <g transform="translate(108.40795 321.385562) scale(0.1 -0.1)">
       <defs>
        <path id="Calibri-32" d="M 2888 231 
Q 2888 175 2880 131 
Q 2872 88 2858 58 
Q 2844 28 2820 14 
Q 2797 0 2769 0 
L 534 0 
Q 491 0 458 11 
Q 425 22 401 47 
Q 378 72 367 119 
Q 356 166 356 234 
Q 356 297 361 344 
Q 366 391 381 427 
Q 397 463 420 498 
Q 444 534 481 575 
L 1266 1406 
Q 1538 1694 1702 1922 
Q 1866 2150 1955 2337 
Q 2044 2525 2072 2678 
Q 2100 2831 2100 2966 
Q 2100 3100 2056 3220 
Q 2013 3341 1930 3431 
Q 1847 3522 1722 3575 
Q 1597 3628 1434 3628 
Q 1244 3628 1092 3575 
Q 941 3522 827 3459 
Q 713 3397 636 3344 
Q 559 3291 522 3291 
Q 500 3291 483 3303 
Q 466 3316 455 3344 
Q 444 3372 437 3419 
Q 431 3466 431 3531 
Q 431 3578 434 3612 
Q 438 3647 445 3672 
Q 453 3697 465 3719 
Q 478 3741 515 3773 
Q 553 3806 645 3862 
Q 738 3919 877 3973 
Q 1016 4028 1183 4065 
Q 1350 4103 1534 4103 
Q 1828 4103 2048 4020 
Q 2269 3938 2414 3794 
Q 2559 3650 2631 3459 
Q 2703 3269 2703 3053 
Q 2703 2859 2668 2667 
Q 2634 2475 2523 2251 
Q 2413 2028 2203 1754 
Q 1994 1481 1647 1125 
L 1006 456 
L 2766 456 
Q 2791 456 2814 442 
Q 2838 428 2855 400 
Q 2872 372 2880 330 
Q 2888 288 2888 231 
z
" transform="scale(0.015625)"/>
       </defs>
       <use xlink:href="#Calibri-30"/>
       <use xlink:href="#Calibri-2e" x="50.683594"/>
       <use xlink:href="#Calibri-32" x="75.927734"/>
      </g>
     </g>
    </g>
    <g id="xtick_4">
     <g id="line2d_4">
      <g>
       <use xlink:href="#mb709f61659" x="143.3088" y="307.584" style="stroke: #000000; stroke-width: 0.8"/>
      </g>
     </g>
     <g id="text_4">
      <!-- 0.3 -->
      <g transform="translate(136.97755 321.385562) scale(0.1 -0.1)">
       <defs>
        <path id="Calibri-33" d="M 2856 1156 
Q 2856 878 2759 654 
Q 2663 431 2481 272 
Q 2300 113 2034 27 
Q 1769 -59 1434 -59 
Q 1231 -59 1054 -26 
Q 878 6 740 51 
Q 603 97 512 145 
Q 422 194 398 216 
Q 375 238 362 259 
Q 350 281 340 312 
Q 331 344 326 389 
Q 322 434 322 500 
Q 322 613 344 656 
Q 366 700 406 700 
Q 434 700 517 650 
Q 600 600 729 542 
Q 859 484 1032 434 
Q 1206 384 1419 384 
Q 1625 384 1781 437 
Q 1938 491 2044 587 
Q 2150 684 2203 817 
Q 2256 950 2256 1106 
Q 2256 1278 2189 1415 
Q 2122 1553 1992 1653 
Q 1863 1753 1673 1806 
Q 1484 1859 1244 1859 
L 859 1859 
Q 834 1859 811 1870 
Q 788 1881 770 1906 
Q 753 1931 742 1972 
Q 731 2013 731 2078 
Q 731 2138 740 2177 
Q 750 2216 767 2239 
Q 784 2263 806 2273 
Q 828 2284 856 2284 
L 1209 2284 
Q 1416 2284 1580 2337 
Q 1744 2391 1858 2491 
Q 1972 2591 2033 2730 
Q 2094 2869 2094 3041 
Q 2094 3166 2053 3280 
Q 2013 3394 1931 3478 
Q 1850 3563 1723 3611 
Q 1597 3659 1431 3659 
Q 1250 3659 1098 3604 
Q 947 3550 828 3487 
Q 709 3425 631 3370 
Q 553 3316 522 3316 
Q 500 3316 483 3323 
Q 466 3331 455 3354 
Q 444 3378 439 3420 
Q 434 3463 434 3531 
Q 434 3578 437 3614 
Q 441 3650 450 3676 
Q 459 3703 471 3725 
Q 484 3747 514 3776 
Q 544 3806 634 3862 
Q 725 3919 858 3973 
Q 991 4028 1164 4065 
Q 1338 4103 1538 4103 
Q 1819 4103 2031 4031 
Q 2244 3959 2386 3828 
Q 2528 3697 2598 3514 
Q 2669 3331 2669 3109 
Q 2669 2919 2619 2755 
Q 2569 2591 2472 2464 
Q 2375 2338 2234 2248 
Q 2094 2159 1909 2125 
L 1909 2119 
Q 2119 2097 2292 2014 
Q 2466 1931 2591 1806 
Q 2716 1681 2786 1514 
Q 2856 1347 2856 1156 
z
" transform="scale(0.015625)"/>
       </defs>
       <use xlink:href="#Calibri-30"/>
       <use xlink:href="#Calibri-2e" x="50.683594"/>
       <use xlink:href="#Calibri-33" x="75.927734"/>
      </g>
     </g>
    </g>
    <g id="xtick_5">
     <g id="line2d_5">
      <g>
       <use xlink:href="#mb709f61659" x="171.8784" y="307.584" style="stroke: #000000; stroke-width: 0.8"/>
      </g>
     </g>
     <g id="text_5">
      <!-- 0.4 -->
      <g transform="translate(165.54715 321.385562) scale(0.1 -0.1)">
       <defs>
        <path id="Calibri-34" d="M 3059 1150 
Q 3059 1047 3028 987 
Q 2997 928 2941 928 
L 2484 928 
L 2484 78 
Q 2484 53 2471 36 
Q 2459 19 2428 6 
Q 2397 -6 2347 -12 
Q 2297 -19 2219 -19 
Q 2144 -19 2094 -12 
Q 2044 -6 2014 6 
Q 1984 19 1973 36 
Q 1963 53 1963 78 
L 1963 928 
L 294 928 
Q 256 928 231 937 
Q 206 947 186 972 
Q 166 997 158 1044 
Q 150 1091 150 1166 
Q 150 1225 153 1272 
Q 156 1319 165 1358 
Q 175 1397 190 1433 
Q 206 1469 228 1509 
L 1684 3966 
Q 1700 3991 1729 4009 
Q 1759 4028 1806 4040 
Q 1853 4053 1922 4058 
Q 1991 4063 2084 4063 
Q 2188 4063 2264 4055 
Q 2341 4047 2387 4034 
Q 2434 4022 2459 4001 
Q 2484 3981 2484 3953 
L 2484 1372 
L 2941 1372 
Q 2994 1372 3026 1317 
Q 3059 1263 3059 1150 
z
M 1963 3591 
L 1956 3591 
L 641 1372 
L 1963 1372 
L 1963 3591 
z
" transform="scale(0.015625)"/>
       </defs>
       <use xlink:href="#Calibri-30"/>
       <use xlink:href="#Calibri-2e" x="50.683594"/>
       <use xlink:href="#Calibri-34" x="75.927734"/>
      </g>
     </g>
    </g>
    <g id="xtick_6">
     <g id="line2d_6">
      <g>
       <use xlink:href="#mb709f61659" x="200.448" y="307.584" style="stroke: #000000; stroke-width: 0.8"/>
      </g>
     </g>
     <g id="text_6">
      <!-- 0.5 -->
      <g transform="translate(194.11675 321.385562) scale(0.1 -0.1)">
       <defs>
        <path id="Calibri-35" d="M 2869 1300 
Q 2869 975 2759 722 
Q 2650 469 2450 295 
Q 2250 122 1973 31 
Q 1697 -59 1359 -59 
Q 1172 -59 1003 -32 
Q 834 -6 703 33 
Q 572 72 487 109 
Q 403 147 379 169 
Q 356 191 347 209 
Q 338 228 330 254 
Q 322 281 319 322 
Q 316 363 316 419 
Q 316 472 320 514 
Q 325 556 337 582 
Q 350 609 367 621 
Q 384 634 406 634 
Q 438 634 503 595 
Q 569 556 680 511 
Q 791 466 955 425 
Q 1119 384 1344 384 
Q 1553 384 1728 434 
Q 1903 484 2029 590 
Q 2156 697 2228 858 
Q 2300 1019 2300 1250 
Q 2300 1444 2239 1592 
Q 2178 1741 2051 1839 
Q 1925 1938 1731 1986 
Q 1538 2034 1269 2034 
Q 1078 2034 940 2015 
Q 803 1997 684 1997 
Q 597 1997 559 2037 
Q 522 2078 522 2194 
L 522 3841 
Q 522 3944 570 3994 
Q 619 4044 709 4044 
L 2500 4044 
Q 2525 4044 2548 4030 
Q 2572 4016 2587 3987 
Q 2603 3959 2611 3915 
Q 2619 3872 2619 3813 
Q 2619 3700 2587 3637 
Q 2556 3575 2500 3575 
L 991 3575 
L 991 2441 
Q 1100 2456 1214 2459 
Q 1328 2463 1478 2463 
Q 1825 2463 2084 2380 
Q 2344 2297 2517 2145 
Q 2691 1994 2780 1778 
Q 2869 1563 2869 1300 
z
" transform="scale(0.015625)"/>
       </defs>
       <use xlink:href="#Calibri-30"/>
       <use xlink:href="#Calibri-2e" x="50.683594"/>
       <use xlink:href="#Calibri-35" x="75.927734"/>
      </g>
     </g>
    </g>
    <g id="xtick_7">
     <g id="line2d_7">
      <g>
       <use xlink:href="#mb709f61659" x="229.0176" y="307.584" style="stroke: #000000; stroke-width: 0.8"/>
      </g>
     </g>
     <g id="text_7">
      <!-- 0.6 -->
      <g transform="translate(222.68635 321.385562) scale(0.1 -0.1)">
       <defs>
        <path id="Calibri-36" d="M 2991 1309 
Q 2991 1044 2909 795 
Q 2828 547 2659 358 
Q 2491 169 2231 55 
Q 1972 -59 1619 -59 
Q 1366 -59 1172 3 
Q 978 66 834 181 
Q 691 297 595 465 
Q 500 634 442 850 
Q 384 1066 359 1322 
Q 334 1578 334 1872 
Q 334 2131 362 2397 
Q 391 2663 462 2909 
Q 534 3156 657 3373 
Q 781 3591 967 3752 
Q 1153 3913 1412 4006 
Q 1672 4100 2016 4100 
Q 2131 4100 2250 4086 
Q 2369 4072 2469 4048 
Q 2569 4025 2637 3997 
Q 2706 3969 2728 3951 
Q 2750 3934 2761 3914 
Q 2772 3894 2778 3870 
Q 2784 3847 2787 3817 
Q 2791 3788 2791 3744 
Q 2791 3688 2789 3647 
Q 2788 3606 2777 3581 
Q 2766 3556 2748 3543 
Q 2731 3531 2703 3531 
Q 2669 3531 2609 3553 
Q 2550 3575 2465 3601 
Q 2381 3628 2261 3650 
Q 2141 3672 1981 3672 
Q 1691 3672 1481 3553 
Q 1272 3434 1139 3234 
Q 1006 3034 942 2770 
Q 878 2506 869 2219 
Q 950 2266 1051 2312 
Q 1153 2359 1273 2396 
Q 1394 2434 1528 2457 
Q 1663 2481 1816 2481 
Q 2144 2481 2369 2392 
Q 2594 2303 2733 2145 
Q 2872 1988 2931 1773 
Q 2991 1559 2991 1309 
z
M 2447 1259 
Q 2447 1441 2411 1589 
Q 2375 1738 2290 1841 
Q 2206 1944 2065 2000 
Q 1925 2056 1719 2056 
Q 1603 2056 1487 2036 
Q 1372 2016 1264 1980 
Q 1156 1944 1057 1895 
Q 959 1847 878 1791 
Q 878 1388 929 1116 
Q 981 844 1079 680 
Q 1178 516 1325 445 
Q 1472 375 1669 375 
Q 1869 375 2016 450 
Q 2163 525 2259 651 
Q 2356 778 2401 936 
Q 2447 1094 2447 1259 
z
" transform="scale(0.015625)"/>
       </defs>
       <use xlink:href="#Calibri-30"/>
       <use xlink:href="#Calibri-2e" x="50.683594"/>
       <use xlink:href="#Calibri-36" x="75.927734"/>
      </g>
     </g>
    </g>
    <g id="xtick_8">
     <g id="line2d_8">
      <g>
       <use xlink:href="#mb709f61659" x="257.5872" y="307.584" style="stroke: #000000; stroke-width: 0.8"/>
      </g>
     </g>
     <g id="text_8">
      <!-- 0.7 -->
      <g transform="translate(251.25595 321.385562) scale(0.1 -0.1)">
       <defs>
        <path id="Calibri-37" d="M 2947 3813 
Q 2947 3756 2942 3711 
Q 2938 3666 2930 3623 
Q 2922 3581 2908 3542 
Q 2894 3503 2875 3459 
L 1419 103 
Q 1403 66 1379 42 
Q 1356 19 1320 5 
Q 1284 -9 1228 -14 
Q 1172 -19 1091 -19 
Q 984 -19 925 -9 
Q 866 0 839 20 
Q 813 41 816 70 
Q 819 100 838 141 
L 2369 3572 
L 428 3572 
Q 369 3572 339 3634 
Q 309 3697 309 3809 
Q 309 3869 317 3912 
Q 325 3956 340 3986 
Q 356 4016 378 4030 
Q 400 4044 428 4044 
L 2784 4044 
Q 2828 4044 2861 4034 
Q 2894 4025 2911 3997 
Q 2928 3969 2937 3925 
Q 2947 3881 2947 3813 
z
" transform="scale(0.015625)"/>
       </defs>
       <use xlink:href="#Calibri-30"/>
       <use xlink:href="#Calibri-2e" x="50.683594"/>
       <use xlink:href="#Calibri-37" x="75.927734"/>
      </g>
     </g>
    </g>
    <g id="xtick_9">
     <g id="line2d_9">
      <g>
       <use xlink:href="#mb709f61659" x="286.1568" y="307.584" style="stroke: #000000; stroke-width: 0.8"/>
      </g>
     </g>
     <g id="text_9">
      <!-- 0.8 -->
      <g transform="translate(279.82555 321.385562) scale(0.1 -0.1)">
       <defs>
        <path id="Calibri-38" d="M 2981 1038 
Q 2981 775 2887 570 
Q 2794 366 2617 225 
Q 2441 84 2181 12 
Q 1922 -59 1588 -59 
Q 1275 -59 1028 6 
Q 781 72 609 200 
Q 438 328 347 515 
Q 256 703 256 944 
Q 256 1134 318 1293 
Q 381 1453 498 1587 
Q 616 1722 787 1839 
Q 959 1956 1175 2063 
Q 988 2159 844 2267 
Q 700 2375 600 2501 
Q 500 2628 448 2772 
Q 397 2916 397 3084 
Q 397 3297 473 3483 
Q 550 3669 704 3806 
Q 859 3944 1098 4023 
Q 1338 4103 1656 4103 
Q 1963 4103 2186 4029 
Q 2409 3956 2554 3829 
Q 2700 3703 2769 3531 
Q 2838 3359 2838 3163 
Q 2838 3003 2786 2856 
Q 2734 2709 2634 2578 
Q 2534 2447 2389 2333 
Q 2244 2219 2056 2119 
Q 2278 2009 2451 1893 
Q 2625 1778 2742 1645 
Q 2859 1513 2920 1364 
Q 2981 1216 2981 1038 
z
M 2306 3113 
Q 2306 3244 2261 3350 
Q 2216 3456 2128 3531 
Q 2041 3606 1911 3645 
Q 1781 3684 1616 3684 
Q 1278 3684 1104 3531 
Q 931 3378 931 3113 
Q 931 2991 973 2886 
Q 1016 2781 1105 2687 
Q 1194 2594 1330 2505 
Q 1466 2416 1653 2319 
Q 1969 2481 2137 2678 
Q 2306 2875 2306 3113 
z
M 2438 981 
Q 2438 1125 2384 1242 
Q 2331 1359 2223 1461 
Q 2116 1563 1955 1658 
Q 1794 1753 1581 1856 
Q 1384 1759 1236 1662 
Q 1088 1566 992 1462 
Q 897 1359 848 1245 
Q 800 1131 800 994 
Q 800 691 1008 525 
Q 1216 359 1628 359 
Q 2028 359 2233 526 
Q 2438 694 2438 981 
z
" transform="scale(0.015625)"/>
       </defs>
       <use xlink:href="#Calibri-30"/>
       <use xlink:href="#Calibri-2e" x="50.683594"/>
       <use xlink:href="#Calibri-38" x="75.927734"/>
      </g>
     </g>
    </g>
    <g id="xtick_10">
     <g id="line2d_10">
      <g>
       <use xlink:href="#mb709f61659" x="314.7264" y="307.584" style="stroke: #000000; stroke-width: 0.8"/>
      </g>
     </g>
     <g id="text_10">
      <!-- 0.9 -->
      <g transform="translate(308.39515 321.385562) scale(0.1 -0.1)">
       <defs>
        <path id="Calibri-39" d="M 2919 2181 
Q 2919 1919 2887 1650 
Q 2856 1381 2781 1132 
Q 2706 884 2579 667 
Q 2453 450 2261 287 
Q 2069 125 1805 33 
Q 1541 -59 1191 -59 
Q 1056 -59 929 -42 
Q 803 -25 701 0 
Q 600 25 531 53 
Q 463 81 431 109 
Q 400 138 386 186 
Q 372 234 372 316 
Q 372 384 376 425 
Q 381 466 390 487 
Q 400 509 417 517 
Q 434 525 459 525 
Q 494 525 556 501 
Q 619 478 714 450 
Q 809 422 937 398 
Q 1066 375 1225 375 
Q 1528 375 1745 492 
Q 1963 609 2100 806 
Q 2238 1003 2306 1262 
Q 2375 1522 2381 1809 
Q 2216 1713 1984 1638 
Q 1753 1563 1453 1563 
Q 1116 1563 886 1655 
Q 656 1747 517 1906 
Q 378 2066 317 2284 
Q 256 2503 256 2763 
Q 256 3031 334 3273 
Q 413 3516 578 3700 
Q 744 3884 1000 3993 
Q 1256 4103 1613 4103 
Q 1866 4103 2061 4039 
Q 2256 3975 2400 3854 
Q 2544 3734 2644 3564 
Q 2744 3394 2805 3178 
Q 2866 2963 2892 2711 
Q 2919 2459 2919 2181 
z
M 2372 2241 
Q 2372 2641 2319 2914 
Q 2266 3188 2162 3356 
Q 2059 3525 1909 3600 
Q 1759 3675 1563 3675 
Q 1359 3675 1215 3601 
Q 1072 3528 980 3404 
Q 888 3281 844 3125 
Q 800 2969 800 2803 
Q 800 2619 839 2466 
Q 878 2313 965 2206 
Q 1053 2100 1193 2042 
Q 1334 1984 1541 1984 
Q 1775 1984 1994 2054 
Q 2213 2125 2372 2241 
z
" transform="scale(0.015625)"/>
       </defs>
       <use xlink:href="#Calibri-30"/>
       <use xlink:href="#Calibri-2e" x="50.683594"/>
       <use xlink:href="#Calibri-39" x="75.927734"/>
      </g>
     </g>
    </g>
    <g id="xtick_11">
     <g id="line2d_11">
      <g>
       <use xlink:href="#mb709f61659" x="343.296" y="307.584" style="stroke: #000000; stroke-width: 0.8"/>
      </g>
     </g>
     <g id="text_11">
      <!-- 1.0 -->
      <g transform="translate(336.96475 321.385562) scale(0.1 -0.1)">
       <use xlink:href="#Calibri-31"/>
       <use xlink:href="#Calibri-2e" x="50.683594"/>
       <use xlink:href="#Calibri-30" x="75.927734"/>
      </g>
     </g>
    </g>
    <g id="text_12">
     <!-- $\mathit{p}$ (cm$^2$/cm$^2$) -->
     <g transform="translate(174.148 336.263687) scale(0.1 -0.1)">
      <defs>
       <path id="DejaVuSans-Oblique-70" d="M 3175 2156 
Q 3175 2616 2975 2859 
Q 2775 3103 2400 3103 
Q 2144 3103 1911 2972 
Q 1678 2841 1497 2591 
Q 1319 2344 1212 1994 
Q 1106 1644 1106 1300 
Q 1106 863 1306 627 
Q 1506 391 1875 391 
Q 2147 391 2380 519 
Q 2613 647 2778 891 
Q 2956 1147 3065 1494 
Q 3175 1841 3175 2156 
z
M 1394 2969 
Q 1625 3272 1939 3428 
Q 2253 3584 2638 3584 
Q 3175 3584 3472 3232 
Q 3769 2881 3769 2247 
Q 3769 1728 3584 1258 
Q 3400 788 3053 416 
Q 2822 169 2531 39 
Q 2241 -91 1919 -91 
Q 1547 -91 1294 64 
Q 1041 219 916 525 
L 556 -1331 
L -19 -1331 
L 922 3500 
L 1497 3500 
L 1394 2969 
z
" transform="scale(0.015625)"/>
       <path id="Calibri-20" transform="scale(0.015625)"/>
       <path id="Calibri-28" d="M 1547 4306 
Q 1250 3678 1104 3017 
Q 959 2356 959 1688 
Q 959 1016 1107 356 
Q 1256 -303 1541 -938 
Q 1556 -975 1557 -1001 
Q 1559 -1028 1537 -1045 
Q 1516 -1063 1470 -1070 
Q 1425 -1078 1347 -1078 
Q 1291 -1078 1250 -1075 
Q 1209 -1072 1179 -1062 
Q 1150 -1053 1131 -1040 
Q 1113 -1028 1103 -1013 
Q 934 -694 806 -367 
Q 678 -41 590 296 
Q 503 634 459 979 
Q 416 1325 416 1678 
Q 416 2031 464 2375 
Q 513 2719 602 3058 
Q 691 3397 819 3725 
Q 947 4053 1106 4375 
Q 1109 4388 1123 4397 
Q 1138 4406 1163 4415 
Q 1188 4425 1231 4429 
Q 1275 4434 1344 4434 
Q 1416 4434 1459 4425 
Q 1503 4416 1528 4400 
Q 1553 4384 1556 4359 
Q 1559 4334 1547 4306 
z
" transform="scale(0.015625)"/>
       <path id="Calibri-63" d="M 2500 506 
Q 2500 453 2497 414 
Q 2494 375 2486 348 
Q 2478 322 2467 301 
Q 2456 281 2417 242 
Q 2378 203 2284 145 
Q 2191 88 2073 42 
Q 1956 -3 1818 -31 
Q 1681 -59 1534 -59 
Q 1231 -59 997 41 
Q 763 141 605 333 
Q 447 525 364 804 
Q 281 1084 281 1450 
Q 281 1866 382 2164 
Q 484 2463 661 2653 
Q 838 2844 1077 2936 
Q 1316 3028 1594 3028 
Q 1728 3028 1854 3003 
Q 1981 2978 2087 2937 
Q 2194 2897 2276 2844 
Q 2359 2791 2396 2753 
Q 2434 2716 2448 2694 
Q 2463 2672 2472 2642 
Q 2481 2613 2484 2575 
Q 2488 2538 2488 2481 
Q 2488 2359 2459 2311 
Q 2431 2263 2391 2263 
Q 2344 2263 2283 2314 
Q 2222 2366 2128 2428 
Q 2034 2491 1901 2542 
Q 1769 2594 1588 2594 
Q 1216 2594 1017 2308 
Q 819 2022 819 1478 
Q 819 1206 870 1001 
Q 922 797 1022 659 
Q 1122 522 1267 455 
Q 1413 388 1600 388 
Q 1778 388 1912 444 
Q 2047 500 2145 567 
Q 2244 634 2311 689 
Q 2378 744 2416 744 
Q 2438 744 2453 731 
Q 2469 719 2480 689 
Q 2491 659 2495 614 
Q 2500 569 2500 506 
z
" transform="scale(0.015625)"/>
       <path id="Calibri-6d" d="M 4650 78 
Q 4650 53 4637 36 
Q 4625 19 4597 6 
Q 4569 -6 4519 -12 
Q 4469 -19 4394 -19 
Q 4316 -19 4266 -12 
Q 4216 -6 4186 6 
Q 4156 19 4143 36 
Q 4131 53 4131 78 
L 4131 1788 
Q 4131 1966 4100 2112 
Q 4069 2259 4000 2365 
Q 3931 2472 3825 2528 
Q 3719 2584 3575 2584 
Q 3397 2584 3217 2446 
Q 3038 2309 2822 2044 
L 2822 78 
Q 2822 53 2809 36 
Q 2797 19 2767 6 
Q 2738 -6 2688 -12 
Q 2638 -19 2563 -19 
Q 2491 -19 2439 -12 
Q 2388 -6 2358 6 
Q 2328 19 2317 36 
Q 2306 53 2306 78 
L 2306 1788 
Q 2306 1966 2272 2112 
Q 2238 2259 2169 2365 
Q 2100 2472 1995 2528 
Q 1891 2584 1747 2584 
Q 1569 2584 1387 2446 
Q 1206 2309 994 2044 
L 994 78 
Q 994 53 981 36 
Q 969 19 941 6 
Q 913 -6 863 -12 
Q 813 -19 734 -19 
Q 659 -19 609 -12 
Q 559 -6 529 6 
Q 500 19 489 36 
Q 478 53 478 78 
L 478 2891 
Q 478 2916 487 2933 
Q 497 2950 525 2964 
Q 553 2978 597 2983 
Q 641 2988 713 2988 
Q 781 2988 826 2983 
Q 872 2978 897 2964 
Q 922 2950 933 2933 
Q 944 2916 944 2891 
L 944 2519 
Q 1181 2784 1404 2907 
Q 1628 3031 1856 3031 
Q 2031 3031 2170 2990 
Q 2309 2950 2415 2876 
Q 2522 2803 2597 2701 
Q 2672 2600 2722 2475 
Q 2863 2628 2989 2734 
Q 3116 2841 3233 2906 
Q 3350 2972 3461 3001 
Q 3572 3031 3684 3031 
Q 3956 3031 4140 2936 
Q 4325 2841 4439 2681 
Q 4553 2522 4601 2308 
Q 4650 2094 4650 1856 
L 4650 78 
z
" transform="scale(0.015625)"/>
       <path id="DejaVuSans-32" d="M 1228 531 
L 3431 531 
L 3431 0 
L 469 0 
L 469 531 
Q 828 903 1448 1529 
Q 2069 2156 2228 2338 
Q 2531 2678 2651 2914 
Q 2772 3150 2772 3378 
Q 2772 3750 2511 3984 
Q 2250 4219 1831 4219 
Q 1534 4219 1204 4116 
Q 875 4013 500 3803 
L 500 4441 
Q 881 4594 1212 4672 
Q 1544 4750 1819 4750 
Q 2544 4750 2975 4387 
Q 3406 4025 3406 3419 
Q 3406 3131 3298 2873 
Q 3191 2616 2906 2266 
Q 2828 2175 2409 1742 
Q 1991 1309 1228 531 
z
" transform="scale(0.015625)"/>
       <path id="Calibri-2f" d="M 525 -753 
Q 513 -794 492 -817 
Q 472 -841 440 -853 
Q 409 -866 364 -872 
Q 319 -878 253 -878 
Q 175 -878 123 -867 
Q 72 -856 44 -836 
Q 16 -816 9 -786 
Q 3 -756 22 -716 
L 1913 4469 
Q 1925 4509 1945 4532 
Q 1966 4556 1995 4570 
Q 2025 4584 2072 4589 
Q 2119 4594 2184 4594 
Q 2263 4594 2313 4583 
Q 2363 4572 2391 4553 
Q 2419 4534 2425 4503 
Q 2431 4472 2416 4431 
L 525 -753 
z
" transform="scale(0.015625)"/>
       <path id="Calibri-29" d="M 1522 1678 
Q 1522 1325 1478 979 
Q 1434 634 1346 296 
Q 1259 -41 1132 -367 
Q 1006 -694 838 -1013 
Q 828 -1028 809 -1040 
Q 791 -1053 761 -1062 
Q 731 -1072 690 -1075 
Q 650 -1078 594 -1078 
Q 513 -1078 467 -1070 
Q 422 -1063 401 -1045 
Q 381 -1028 382 -1001 
Q 384 -975 400 -938 
Q 688 -306 834 355 
Q 981 1016 981 1688 
Q 981 2356 834 3017 
Q 688 3678 394 4306 
Q 381 4334 384 4359 
Q 388 4384 413 4400 
Q 438 4416 481 4425 
Q 525 4434 597 4434 
Q 663 4434 706 4429 
Q 750 4425 776 4415 
Q 803 4406 815 4397 
Q 828 4388 834 4375 
Q 1156 3734 1339 3057 
Q 1522 2381 1522 1678 
z
" transform="scale(0.015625)"/>
      </defs>
      <use xlink:href="#DejaVuSans-Oblique-70" transform="translate(0 0.765625)"/>
      <use xlink:href="#Calibri-20" transform="translate(63.476562 0.765625)"/>
      <use xlink:href="#Calibri-28" transform="translate(84.958984 0.765625)"/>
      <use xlink:href="#Calibri-63" transform="translate(115.28125 0.765625)"/>
      <use xlink:href="#Calibri-6d" transform="translate(157.566406 0.765625)"/>
      <use xlink:href="#DejaVuSans-32" transform="translate(238.40625 39.046875) scale(0.7)"/>
      <use xlink:href="#Calibri-2f" transform="translate(285.676758 0.765625)"/>
      <use xlink:href="#Calibri-63" transform="translate(324.299805 0.765625)"/>
      <use xlink:href="#Calibri-6d" transform="translate(366.584961 0.765625)"/>
      <use xlink:href="#DejaVuSans-32" transform="translate(447.424805 39.046875) scale(0.7)"/>
      <use xlink:href="#Calibri-29" transform="translate(494.695312 0.765625)"/>
     </g>
    </g>
   </g>
   <g id="matplotlib.axis_2">
    <g id="ytick_1">
     <g id="line2d_12">
      <defs>
       <path id="m9c10a7f265" d="M 0 0 
L -3.5 0 
" style="stroke: #000000; stroke-width: 0.8"/>
      </defs>
      <g>
       <use xlink:href="#m9c10a7f265" x="57.6" y="275.65056" style="stroke: #000000; stroke-width: 0.8"/>
      </g>
     </g>
     <g id="text_13">
      <!-- 25 -->
      <g transform="translate(40.4625 279.051341) scale(0.1 -0.1)">
       <use xlink:href="#Calibri-32"/>
       <use xlink:href="#Calibri-35" x="50.683594"/>
      </g>
     </g>
    </g>
    <g id="ytick_2">
     <g id="line2d_13">
      <g>
       <use xlink:href="#m9c10a7f265" x="57.6" y="242.38656" style="stroke: #000000; stroke-width: 0.8"/>
      </g>
     </g>
     <g id="text_14">
      <!-- 50 -->
      <g transform="translate(40.4625 245.787341) scale(0.1 -0.1)">
       <use xlink:href="#Calibri-35"/>
       <use xlink:href="#Calibri-30" x="50.683594"/>
      </g>
     </g>
    </g>
    <g id="ytick_3">
     <g id="line2d_14">
      <g>
       <use xlink:href="#m9c10a7f265" x="57.6" y="209.12256" style="stroke: #000000; stroke-width: 0.8"/>
      </g>
     </g>
     <g id="text_15">
      <!-- 75 -->
      <g transform="translate(40.4625 212.523341) scale(0.1 -0.1)">
       <use xlink:href="#Calibri-37"/>
       <use xlink:href="#Calibri-35" x="50.683594"/>
      </g>
     </g>
    </g>
    <g id="ytick_4">
     <g id="line2d_15">
      <g>
       <use xlink:href="#m9c10a7f265" x="57.6" y="175.85856" style="stroke: #000000; stroke-width: 0.8"/>
      </g>
     </g>
     <g id="text_16">
      <!-- 100 -->
      <g transform="translate(35.39375 179.259341) scale(0.1 -0.1)">
       <use xlink:href="#Calibri-31"/>
       <use xlink:href="#Calibri-30" x="50.683594"/>
       <use xlink:href="#Calibri-30" x="101.367188"/>
      </g>
     </g>
    </g>
    <g id="ytick_5">
     <g id="line2d_16">
      <g>
       <use xlink:href="#m9c10a7f265" x="57.6" y="142.59456" style="stroke: #000000; stroke-width: 0.8"/>
      </g>
     </g>
     <g id="text_17">
      <!-- 125 -->
      <g transform="translate(35.39375 145.995341) scale(0.1 -0.1)">
       <use xlink:href="#Calibri-31"/>
       <use xlink:href="#Calibri-32" x="50.683594"/>
       <use xlink:href="#Calibri-35" x="101.367188"/>
      </g>
     </g>
    </g>
    <g id="ytick_6">
     <g id="line2d_17">
      <g>
       <use xlink:href="#m9c10a7f265" x="57.6" y="109.33056" style="stroke: #000000; stroke-width: 0.8"/>
      </g>
     </g>
     <g id="text_18">
      <!-- 150 -->
      <g transform="translate(35.39375 112.731341) scale(0.1 -0.1)">
       <use xlink:href="#Calibri-31"/>
       <use xlink:href="#Calibri-35" x="50.683594"/>
       <use xlink:href="#Calibri-30" x="101.367188"/>
      </g>
     </g>
    </g>
    <g id="ytick_7">
     <g id="line2d_18">
      <g>
       <use xlink:href="#m9c10a7f265" x="57.6" y="76.06656" style="stroke: #000000; stroke-width: 0.8"/>
      </g>
     </g>
     <g id="text_19">
      <!-- 175 -->
      <g transform="translate(35.39375 79.467341) scale(0.1 -0.1)">
       <use xlink:href="#Calibri-31"/>
       <use xlink:href="#Calibri-37" x="50.683594"/>
       <use xlink:href="#Calibri-35" x="101.367188"/>
      </g>
     </g>
    </g>
    <g id="ytick_8">
     <g id="line2d_19">
      <g>
       <use xlink:href="#m9c10a7f265" x="57.6" y="42.80256" style="stroke: #000000; stroke-width: 0.8"/>
      </g>
     </g>
     <g id="text_20">
      <!-- 200 -->
      <g transform="translate(35.39375 46.203341) scale(0.1 -0.1)">
       <use xlink:href="#Calibri-32"/>
       <use xlink:href="#Calibri-30" x="50.683594"/>
       <use xlink:href="#Calibri-30" x="101.367188"/>
      </g>
     </g>
    </g>
    <g id="text_21">
     <!-- $\mathit{Z}$$_{a}$ (nm) -->
     <g transform="translate(29.59375 191.028) rotate(-90) scale(0.1 -0.1)">
      <defs>
       <path id="DejaVuSans-Oblique-5a" d="M 838 4666 
L 4500 4666 
L 4409 4184 
L 794 531 
L 3769 531 
L 3669 0 
L -141 0 
L -50 481 
L 3566 4134 
L 738 4134 
L 838 4666 
z
" transform="scale(0.015625)"/>
       <path id="DejaVuSans-Oblique-61" d="M 3438 1997 
L 3047 0 
L 2472 0 
L 2578 531 
Q 2325 219 2001 64 
Q 1678 -91 1281 -91 
Q 834 -91 548 182 
Q 263 456 263 884 
Q 263 1497 752 1853 
Q 1241 2209 2100 2209 
L 2900 2209 
L 2931 2363 
Q 2938 2388 2941 2417 
Q 2944 2447 2944 2509 
Q 2944 2788 2717 2942 
Q 2491 3097 2081 3097 
Q 1800 3097 1504 3025 
Q 1209 2953 897 2809 
L 997 3341 
Q 1322 3463 1633 3523 
Q 1944 3584 2234 3584 
Q 2853 3584 3176 3315 
Q 3500 3047 3500 2534 
Q 3500 2431 3484 2292 
Q 3469 2153 3438 1997 
z
M 2816 1759 
L 2241 1759 
Q 1534 1759 1195 1570 
Q 856 1381 856 984 
Q 856 709 1029 553 
Q 1203 397 1509 397 
Q 1978 397 2328 733 
Q 2678 1069 2791 1631 
L 2816 1759 
z
" transform="scale(0.015625)"/>
       <path id="Calibri-6e" d="M 2900 78 
Q 2900 53 2887 36 
Q 2875 19 2847 6 
Q 2819 -6 2769 -12 
Q 2719 -19 2644 -19 
Q 2566 -19 2516 -12 
Q 2466 -6 2437 6 
Q 2409 19 2396 36 
Q 2384 53 2384 78 
L 2384 1725 
Q 2384 1966 2346 2112 
Q 2309 2259 2237 2365 
Q 2166 2472 2052 2528 
Q 1938 2584 1788 2584 
Q 1594 2584 1400 2446 
Q 1206 2309 994 2044 
L 994 78 
Q 994 53 981 36 
Q 969 19 941 6 
Q 913 -6 863 -12 
Q 813 -19 734 -19 
Q 659 -19 609 -12 
Q 559 -6 529 6 
Q 500 19 489 36 
Q 478 53 478 78 
L 478 2891 
Q 478 2916 487 2933 
Q 497 2950 525 2964 
Q 553 2978 597 2983 
Q 641 2988 713 2988 
Q 781 2988 826 2983 
Q 872 2978 897 2964 
Q 922 2950 933 2933 
Q 944 2916 944 2891 
L 944 2519 
Q 1181 2784 1417 2907 
Q 1653 3031 1894 3031 
Q 2175 3031 2367 2936 
Q 2559 2841 2678 2681 
Q 2797 2522 2848 2308 
Q 2900 2094 2900 1794 
L 2900 78 
z
" transform="scale(0.015625)"/>
      </defs>
      <use xlink:href="#DejaVuSans-Oblique-5a" transform="translate(0 0.09375)"/>
      <use xlink:href="#DejaVuSans-Oblique-61" transform="translate(69.462891 -16.3125) scale(0.7)"/>
      <use xlink:href="#Calibri-20" transform="translate(115.092773 0.09375)"/>
      <use xlink:href="#Calibri-28" transform="translate(136.575195 0.09375)"/>
      <use xlink:href="#Calibri-6e" transform="translate(166.897461 0.09375)"/>
      <use xlink:href="#Calibri-6d" transform="translate(219.436523 0.09375)"/>
      <use xlink:href="#Calibri-29" transform="translate(299.319336 0.09375)"/>
     </g>
    </g>
   </g>
   <g id="patch_3">
    <path d="M 57.6 307.584 
L 57.6 41.472 
" style="fill: none; stroke: #000000; stroke-width: 0.8; stroke-linejoin: miter; stroke-linecap: square"/>
   </g>
   <g id="patch_4">
    <path d="M 343.296 307.584 
L 343.296 41.472 
" style="fill: none; stroke: #000000; stroke-width: 0.8; stroke-linejoin: miter; stroke-linecap: square"/>
   </g>
   <g id="patch_5">
    <path d="M 57.6 307.584 
L 343.296 307.584 
" style="fill: none; stroke: #000000; stroke-width: 0.8; stroke-linejoin: miter; stroke-linecap: square"/>
   </g>
   <g id="patch_6">
    <path d="M 57.6 41.472 
L 343.296 41.472 
" style="fill: none; stroke: #000000; stroke-width: 0.8; stroke-linejoin: miter; stroke-linecap: square"/>
   </g>
   <g id="text_22">
    <!-- $n_e$ = 1.47 -->
    <g transform="translate(181.348 35.472) scale(0.1 -0.1)">
     <defs>
      <path id="DejaVuSans-Oblique-6e" d="M 3566 2113 
L 3156 0 
L 2578 0 
L 2988 2091 
Q 3016 2238 3031 2350 
Q 3047 2463 3047 2528 
Q 3047 2791 2881 2937 
Q 2716 3084 2419 3084 
Q 1956 3084 1622 2776 
Q 1288 2469 1184 1941 
L 800 0 
L 225 0 
L 903 3500 
L 1478 3500 
L 1363 2950 
Q 1603 3253 1940 3418 
Q 2278 3584 2650 3584 
Q 3113 3584 3367 3334 
Q 3622 3084 3622 2631 
Q 3622 2519 3608 2391 
Q 3594 2263 3566 2113 
z
" transform="scale(0.015625)"/>
      <path id="DejaVuSans-Oblique-65" d="M 3078 2063 
Q 3088 2113 3092 2166 
Q 3097 2219 3097 2272 
Q 3097 2653 2873 2875 
Q 2650 3097 2266 3097 
Q 1838 3097 1509 2826 
Q 1181 2556 1013 2059 
L 3078 2063 
z
M 3578 1613 
L 903 1613 
Q 884 1494 878 1425 
Q 872 1356 872 1306 
Q 872 872 1139 634 
Q 1406 397 1894 397 
Q 2269 397 2603 481 
Q 2938 566 3225 728 
L 3116 159 
Q 2806 34 2476 -28 
Q 2147 -91 1806 -91 
Q 1078 -91 686 257 
Q 294 606 294 1247 
Q 294 1794 489 2264 
Q 684 2734 1063 3103 
Q 1306 3334 1642 3459 
Q 1978 3584 2356 3584 
Q 2950 3584 3301 3228 
Q 3653 2872 3653 2272 
Q 3653 2128 3634 1964 
Q 3616 1800 3578 1613 
z
" transform="scale(0.015625)"/>
      <path id="Calibri-3d" d="M 2891 2409 
Q 2891 2284 2855 2236 
Q 2819 2188 2772 2188 
L 409 2188 
Q 363 2188 328 2236 
Q 294 2284 294 2409 
Q 294 2522 325 2575 
Q 356 2628 409 2628 
L 2772 2628 
Q 2828 2628 2859 2575 
Q 2891 2522 2891 2409 
z
M 2891 1194 
Q 2891 1069 2855 1022 
Q 2819 975 2772 975 
L 409 975 
Q 363 975 328 1022 
Q 294 1069 294 1194 
Q 294 1309 325 1362 
Q 356 1416 409 1416 
L 2772 1416 
Q 2828 1416 2859 1362 
Q 2891 1309 2891 1194 
z
" transform="scale(0.015625)"/>
     </defs>
     <use xlink:href="#DejaVuSans-Oblique-6e" transform="translate(0 0.375)"/>
     <use xlink:href="#DejaVuSans-Oblique-65" transform="translate(63.378906 -16.03125) scale(0.7)"/>
     <use xlink:href="#Calibri-20" transform="translate(109.179688 0.375)"/>
     <use xlink:href="#Calibri-3d" transform="translate(131.787109 0.375)"/>
     <use xlink:href="#Calibri-20" transform="translate(181.591797 0.375)"/>
     <use xlink:href="#Calibri-31" transform="translate(204.199219 0.375)"/>
     <use xlink:href="#Calibri-2e" transform="translate(254.882812 0.375)"/>
     <use xlink:href="#Calibri-34" transform="translate(280.126953 0.375)"/>
     <use xlink:href="#Calibri-37" transform="translate(330.810547 0.375)"/>
    </g>
   </g>
  </g>
  <g id="axes_2">
   <g id="patch_7">
    <path d="M 361.152 307.584 
L 374.4576 307.584 
L 374.4576 41.472 
L 361.152 41.472 
z
" style="fill: #ffffff"/>
   </g>
   <g id="QuadMesh_1">
    <path d="M 361.152 307.584 
L 374.4576 307.584 
L 374.4576 280.9728 
L 361.152 280.9728 
L 361.152 307.584 
" clip-path="url(#p02b7eb25db)" style="fill: #0000b6"/>
    <path d="M 361.152 280.9728 
L 374.4576 280.9728 
L 374.4576 254.3616 
L 361.152 254.3616 
L 361.152 280.9728 
" clip-path="url(#p02b7eb25db)" style="fill: #0018ff"/>
    <path d="M 361.152 254.3616 
L 374.4576 254.3616 
L 374.4576 227.7504 
L 361.152 227.7504 
L 361.152 254.3616 
" clip-path="url(#p02b7eb25db)" style="fill: #0080ff"/>
    <path d="M 361.152 227.7504 
L 374.4576 227.7504 
L 374.4576 201.1392 
L 361.152 201.1392 
L 361.152 227.7504 
" clip-path="url(#p02b7eb25db)" style="fill: #00e4f8"/>
    <path d="M 361.152 201.1392 
L 374.4576 201.1392 
L 374.4576 174.528 
L 361.152 174.528 
L 361.152 201.1392 
" clip-path="url(#p02b7eb25db)" style="fill: #53ffa4"/>
    <path d="M 361.152 174.528 
L 374.4576 174.528 
L 374.4576 147.9168 
L 361.152 147.9168 
L 361.152 174.528 
" clip-path="url(#p02b7eb25db)" style="fill: #a4ff53"/>
    <path d="M 361.152 147.9168 
L 374.4576 147.9168 
L 374.4576 121.3056 
L 361.152 121.3056 
L 361.152 147.9168 
" clip-path="url(#p02b7eb25db)" style="fill: #f8f500"/>
    <path d="M 361.152 121.3056 
L 374.4576 121.3056 
L 374.4576 94.6944 
L 361.152 94.6944 
L 361.152 121.3056 
" clip-path="url(#p02b7eb25db)" style="fill: #ff9400"/>
    <path d="M 361.152 94.6944 
L 374.4576 94.6944 
L 374.4576 68.0832 
L 361.152 68.0832 
L 361.152 94.6944 
" clip-path="url(#p02b7eb25db)" style="fill: #ff3800"/>
    <path d="M 361.152 68.0832 
L 374.4576 68.0832 
L 374.4576 41.472 
L 361.152 41.472 
L 361.152 68.0832 
" clip-path="url(#p02b7eb25db)" style="fill: #b60000"/>
   </g>
   <g id="matplotlib.axis_3"/>
   <g id="matplotlib.axis_4">
    <g id="ytick_9">
     <g id="line2d_20">
      <defs>
       <path id="mfc3f16419f" d="M 0 0 
L 3.5 0 
" style="stroke: #000000; stroke-width: 0.8"/>
      </defs>
      <g>
       <use xlink:href="#mfc3f16419f" x="374.4576" y="307.584" style="stroke: #000000; stroke-width: 0.8"/>
      </g>
     </g>
     <g id="text_23">
      <!-- 0 -->
      <g transform="translate(381.4576 310.984781) scale(0.1 -0.1)">
       <use xlink:href="#Calibri-30"/>
      </g>
     </g>
    </g>
    <g id="ytick_10">
     <g id="line2d_21">
      <g>
       <use xlink:href="#mfc3f16419f" x="374.4576" y="280.9728" style="stroke: #000000; stroke-width: 0.8"/>
      </g>
     </g>
     <g id="text_24">
      <!-- 0.1 -->
      <g transform="translate(381.4576 284.373581) scale(0.1 -0.1)">
       <use xlink:href="#Calibri-30"/>
       <use xlink:href="#Calibri-2e" x="50.683594"/>
       <use xlink:href="#Calibri-31" x="75.927734"/>
      </g>
     </g>
    </g>
    <g id="ytick_11">
     <g id="line2d_22">
      <g>
       <use xlink:href="#mfc3f16419f" x="374.4576" y="254.3616" style="stroke: #000000; stroke-width: 0.8"/>
      </g>
     </g>
     <g id="text_25">
      <!-- 0.2 -->
      <g transform="translate(381.4576 257.762381) scale(0.1 -0.1)">
       <use xlink:href="#Calibri-30"/>
       <use xlink:href="#Calibri-2e" x="50.683594"/>
       <use xlink:href="#Calibri-32" x="75.927734"/>
      </g>
     </g>
    </g>
    <g id="ytick_12">
     <g id="line2d_23">
      <g>
       <use xlink:href="#mfc3f16419f" x="374.4576" y="227.7504" style="stroke: #000000; stroke-width: 0.8"/>
      </g>
     </g>
     <g id="text_26">
      <!-- 0.3 -->
      <g transform="translate(381.4576 231.151181) scale(0.1 -0.1)">
       <use xlink:href="#Calibri-30"/>
       <use xlink:href="#Calibri-2e" x="50.683594"/>
       <use xlink:href="#Calibri-33" x="75.927734"/>
      </g>
     </g>
    </g>
    <g id="ytick_13">
     <g id="line2d_24">
      <g>
       <use xlink:href="#mfc3f16419f" x="374.4576" y="201.1392" style="stroke: #000000; stroke-width: 0.8"/>
      </g>
     </g>
     <g id="text_27">
      <!-- 0.4 -->
      <g transform="translate(381.4576 204.539981) scale(0.1 -0.1)">
       <use xlink:href="#Calibri-30"/>
       <use xlink:href="#Calibri-2e" x="50.683594"/>
       <use xlink:href="#Calibri-34" x="75.927734"/>
      </g>
     </g>
    </g>
    <g id="ytick_14">
     <g id="line2d_25">
      <g>
       <use xlink:href="#mfc3f16419f" x="374.4576" y="174.528" style="stroke: #000000; stroke-width: 0.8"/>
      </g>
     </g>
     <g id="text_28">
      <!-- 0.5 -->
      <g transform="translate(381.4576 177.928781) scale(0.1 -0.1)">
       <use xlink:href="#Calibri-30"/>
       <use xlink:href="#Calibri-2e" x="50.683594"/>
       <use xlink:href="#Calibri-35" x="75.927734"/>
      </g>
     </g>
    </g>
    <g id="ytick_15">
     <g id="line2d_26">
      <g>
       <use xlink:href="#mfc3f16419f" x="374.4576" y="147.9168" style="stroke: #000000; stroke-width: 0.8"/>
      </g>
     </g>
     <g id="text_29">
      <!-- 0.6 -->
      <g transform="translate(381.4576 151.317581) scale(0.1 -0.1)">
       <use xlink:href="#Calibri-30"/>
       <use xlink:href="#Calibri-2e" x="50.683594"/>
       <use xlink:href="#Calibri-36" x="75.927734"/>
      </g>
     </g>
    </g>
    <g id="ytick_16">
     <g id="line2d_27">
      <g>
       <use xlink:href="#mfc3f16419f" x="374.4576" y="121.3056" style="stroke: #000000; stroke-width: 0.8"/>
      </g>
     </g>
     <g id="text_30">
      <!-- 0.7 -->
      <g transform="translate(381.4576 124.706381) scale(0.1 -0.1)">
       <use xlink:href="#Calibri-30"/>
       <use xlink:href="#Calibri-2e" x="50.683594"/>
       <use xlink:href="#Calibri-37" x="75.927734"/>
      </g>
     </g>
    </g>
    <g id="ytick_17">
     <g id="line2d_28">
      <g>
       <use xlink:href="#mfc3f16419f" x="374.4576" y="94.6944" style="stroke: #000000; stroke-width: 0.8"/>
      </g>
     </g>
     <g id="text_31">
      <!-- 0.8 -->
      <g transform="translate(381.4576 98.095181) scale(0.1 -0.1)">
       <use xlink:href="#Calibri-30"/>
       <use xlink:href="#Calibri-2e" x="50.683594"/>
       <use xlink:href="#Calibri-38" x="75.927734"/>
      </g>
     </g>
    </g>
    <g id="ytick_18">
     <g id="line2d_29">
      <g>
       <use xlink:href="#mfc3f16419f" x="374.4576" y="68.0832" style="stroke: #000000; stroke-width: 0.8"/>
      </g>
     </g>
     <g id="text_32">
      <!-- 0.9 -->
      <g transform="translate(381.4576 71.483981) scale(0.1 -0.1)">
       <use xlink:href="#Calibri-30"/>
       <use xlink:href="#Calibri-2e" x="50.683594"/>
       <use xlink:href="#Calibri-39" x="75.927734"/>
      </g>
     </g>
    </g>
    <g id="ytick_19">
     <g id="line2d_30">
      <g>
       <use xlink:href="#mfc3f16419f" x="374.4576" y="41.472" style="stroke: #000000; stroke-width: 0.8"/>
      </g>
     </g>
     <g id="text_33">
      <!-- 1.0 -->
      <g transform="translate(381.4576 44.872781) scale(0.1 -0.1)">
       <use xlink:href="#Calibri-31"/>
       <use xlink:href="#Calibri-2e" x="50.683594"/>
       <use xlink:href="#Calibri-30" x="75.927734"/>
      </g>
     </g>
    </g>
   </g>
   <g id="LineCollection_1"/>
   <g id="patch_8">
    <path d="M 361.152 307.584 
L 367.8048 307.584 
L 374.4576 307.584 
L 374.4576 41.472 
L 367.8048 41.472 
L 361.152 41.472 
L 361.152 307.584 
z
" style="fill: none; stroke: #000000; stroke-width: 0.8; stroke-linejoin: miter; stroke-linecap: square"/>
   </g>
   <g id="text_34">
    <!-- $\mathit{E}_{\mathrm{NF}}$/$\mathit{E}_{\mathrm{i}}$ -->
    <g transform="translate(353.6548 35.472) scale(0.1 -0.1)">
     <defs>
      <path id="DejaVuSans-Oblique-45" d="M 1081 4666 
L 4031 4666 
L 3928 4134 
L 1606 4134 
L 1338 2753 
L 3566 2753 
L 3463 2222 
L 1234 2222 
L 909 531 
L 3284 531 
L 3181 0 
L 172 0 
L 1081 4666 
z
" transform="scale(0.015625)"/>
      <path id="DejaVuSans-4e" d="M 628 4666 
L 1478 4666 
L 3547 763 
L 3547 4666 
L 4159 4666 
L 4159 0 
L 3309 0 
L 1241 3903 
L 1241 0 
L 628 0 
L 628 4666 
z
" transform="scale(0.015625)"/>
      <path id="DejaVuSans-46" d="M 628 4666 
L 3309 4666 
L 3309 4134 
L 1259 4134 
L 1259 2759 
L 3109 2759 
L 3109 2228 
L 1259 2228 
L 1259 0 
L 628 0 
L 628 4666 
z
" transform="scale(0.015625)"/>
      <path id="DejaVuSans-69" d="M 603 3500 
L 1178 3500 
L 1178 0 
L 603 0 
L 603 3500 
z
M 603 4863 
L 1178 4863 
L 1178 4134 
L 603 4134 
L 603 4863 
z
" transform="scale(0.015625)"/>
     </defs>
     <use xlink:href="#DejaVuSans-Oblique-45" transform="translate(0 0.09375)"/>
     <use xlink:href="#DejaVuSans-4e" transform="translate(63.183594 -16.3125) scale(0.7)"/>
     <use xlink:href="#DejaVuSans-46" transform="translate(115.546875 -16.3125) scale(0.7)"/>
     <use xlink:href="#Calibri-2f" transform="translate(158.544922 0.09375)"/>
     <use xlink:href="#DejaVuSans-Oblique-45" transform="translate(197.167969 0.09375)"/>
     <use xlink:href="#DejaVuSans-69" transform="translate(260.351562 -16.3125) scale(0.7)"/>
    </g>
   </g>
  </g>
 </g>
 <defs>
  <clipPath id="p90db40b481">
   <rect x="57.6" y="41.472" width="285.696" height="266.112"/>
  </clipPath>
  <clipPath id="p02b7eb25db">
   <rect x="361.152" y="41.472" width="13.3056" height="266.112"/>
  </clipPath>
 </defs>
</svg>
