<?xml version="1.0" encoding="utf-8" standalone="no"?>
<!DOCTYPE svg PUBLIC "-//W3C//DTD SVG 1.1//EN"
  "http://www.w3.org/Graphics/SVG/1.1/DTD/svg11.dtd">
<svg xmlns:xlink="http://www.w3.org/1999/xlink" width="460.8pt" height="345.6pt" viewBox="0 0 460.8 345.6" xmlns="http://www.w3.org/2000/svg" version="1.1">
 <metadata>
  <rdf:RDF xmlns:dc="http://purl.org/dc/elements/1.1/" xmlns:cc="http://creativecommons.org/ns#" xmlns:rdf="http://www.w3.org/1999/02/22-rdf-syntax-ns#">
   <cc:Work>
    <dc:type rdf:resource="http://purl.org/dc/dcmitype/StillImage"/>
    <dc:date>2024-01-22T08:37:41.631705</dc:date>
    <dc:format>image/svg+xml</dc:format>
    <dc:creator>
     <cc:Agent>
      <dc:title>Matplotlib v3.7.1, https://matplotlib.org/</dc:title>
     </cc:Agent>
    </dc:creator>
   </cc:Work>
  </rdf:RDF>
 </metadata>
 <defs>
  <style type="text/css">*{stroke-linejoin: round; stroke-linecap: butt}</style>
 </defs>
 <g id="figure_1">
  <g id="patch_1">
   <path d="M 0 345.6 
L 460.8 345.6 
L 460.8 0 
L 0 0 
z
" style="fill: #ffffff"/>
  </g>
  <g id="axes_1">
   <g id="patch_2">
    <path d="M 57.6 307.584 
L 343.296 307.584 
L 343.296 41.472 
L 57.6 41.472 
z
" style="fill: #ffffff"/>
   </g>
   <g id="PathCollection_1">
    <path d="M 69.138076 41.472 
L 69.561206 42.033183 
L 69.873954 42.44628 
L 70.186887 42.855601 
L 70.854842 43.734939 
L 71.464516 44.530887 
L 71.667706 44.7984 
L 72.628919 46.046288 
L 73.258598 46.869203 
L 73.373263 47.016721 
L 73.476363 47.15052 
L 73.855295 47.641826 
L 74.131078 47.997044 
L 74.231131 48.1248 
L 74.295675 48.209553 
L 74.989703 49.09908 
L 75.29045 49.484131 
L 75.620851 49.910847 
L 76.091774 50.50958 
L 76.827225 51.4512 
L 77.213512 51.938714 
L 78.285389 53.303689 
L 78.546505 53.633335 
L 78.680189 53.80332 
L 78.888912 54.059457 
L 79.462891 54.7776 
L 79.886514 55.318111 
L 80.23412 55.75188 
L 81.079445 56.804635 
L 81.975038 57.930477 
L 82.028365 57.996467 
L 82.11461 58.104 
L 83.021411 59.217948 
L 84.019687 60.45612 
L 84.268564 60.764055 
L 84.447106 60.977665 
L 84.818299 61.4304 
L 85.322136 62.052042 
L 85.560314 62.351651 
L 85.603905 62.40468 
L 86.923367 64.005229 
L 87.536795 64.7568 
L 87.997363 65.312552 
L 88.271526 65.646011 
L 88.883548 66.378778 
L 89.487171 67.10892 
L 90.008652 67.737652 
L 90.300706 68.0832 
L 90.766886 68.647178 
L 91.108766 69.05748 
L 91.507029 69.52913 
L 92.181468 70.334477 
L 92.820249 71.090207 
L 93.087375 71.4096 
L 93.994963 72.47789 
L 94.518199 73.098994 
L 94.797842 73.425744 
L 95.082286 73.76172 
L 95.828282 74.639323 
L 95.911889 74.736 
L 96.552359 75.487435 
L 96.743351 75.71028 
L 96.779537 75.752327 
L 96.814586 75.793495 
L 97.520675 76.6099 
L 98.765951 78.0624 
L 98.767814 78.064539 
L 98.771997 78.069394 
L 100.019127 79.503225 
L 100.720187 80.316471 
L 100.761891 80.364089 
L 100.805559 80.41452 
L 101.051835 80.697595 
L 101.53296 81.248712 
L 101.656177 81.3888 
L 101.726307 81.470103 
L 102.509027 82.36308 
L 102.762054 82.650355 
L 102.999996 82.923597 
L 103.33993 83.303092 
L 103.33993 81.3888 
L 103.33993 78.0624 
L 103.33993 74.736 
L 103.33993 71.4096 
L 103.33993 68.0832 
L 103.33993 64.7568 
L 103.33993 61.4304 
L 103.33993 58.104 
L 103.33993 54.7776 
L 103.33993 51.4512 
L 103.33993 48.1248 
L 103.33993 44.7984 
L 103.33993 41.472 
L 101.816218 41.472 
L 100.292506 41.472 
L 98.768794 41.472 
L 97.245082 41.472 
L 95.72137 41.472 
L 94.197658 41.472 
L 92.673946 41.472 
L 91.150234 41.472 
L 89.626522 41.472 
L 88.10281 41.472 
L 86.579098 41.472 
L 85.055386 41.472 
L 83.531674 41.472 
L 82.007962 41.472 
L 80.48425 41.472 
L 78.960538 41.472 
L 77.436826 41.472 
L 75.913114 41.472 
L 74.389402 41.472 
L 72.86569 41.472 
L 71.341978 41.472 
L 69.818266 41.472 
" clip-path="url(#p1e89d0a206)" style="fill: #0000b6"/>
   </g>
   <g id="PathCollection_2">
    <path d="M 103.33993 83.303092 
L 102.999996 82.923597 
L 102.762054 82.650355 
L 102.509027 82.36308 
L 101.726307 81.470103 
L 101.656177 81.3888 
L 101.53296 81.248712 
L 101.051835 80.697595 
L 100.805559 80.41452 
L 100.761891 80.364089 
L 100.720187 80.316471 
L 100.019127 79.503225 
L 98.771997 78.069394 
L 98.767814 78.064539 
L 98.765951 78.0624 
L 97.520675 76.6099 
L 96.814586 75.793495 
L 96.779537 75.752327 
L 96.743351 75.71028 
L 96.552359 75.487435 
L 95.911889 74.736 
L 95.828282 74.639323 
L 95.082286 73.76172 
L 94.797842 73.425744 
L 94.518199 73.098994 
L 93.994963 72.47789 
L 93.087375 71.4096 
L 92.820249 71.090207 
L 92.181468 70.334477 
L 91.507029 69.52913 
L 91.108766 69.05748 
L 90.766886 68.647178 
L 90.300706 68.0832 
L 90.008652 67.737652 
L 89.487171 67.10892 
L 88.883548 66.378778 
L 88.271526 65.646011 
L 87.997363 65.312552 
L 87.536795 64.7568 
L 86.923367 64.005229 
L 85.603905 62.40468 
L 85.560314 62.351651 
L 85.322136 62.052042 
L 84.818299 61.4304 
L 84.447106 60.977665 
L 84.268564 60.764055 
L 84.019687 60.45612 
L 83.021411 59.217948 
L 82.11461 58.104 
L 82.028365 57.996467 
L 81.975038 57.930477 
L 81.079445 56.804635 
L 80.23412 55.75188 
L 79.886514 55.318111 
L 79.462891 54.7776 
L 78.888912 54.059457 
L 78.680189 53.80332 
L 78.546505 53.633335 
L 78.285389 53.303689 
L 77.213512 51.938714 
L 76.827225 51.4512 
L 76.091774 50.50958 
L 75.620851 49.910847 
L 75.29045 49.484131 
L 74.989703 49.09908 
L 74.295675 48.209553 
L 74.231131 48.1248 
L 74.131078 47.997044 
L 73.855295 47.641826 
L 73.476363 47.15052 
L 73.373263 47.016721 
L 73.258598 46.869203 
L 72.628919 46.046288 
L 71.667706 44.7984 
L 71.464516 44.530887 
L 70.854842 43.734939 
L 70.186887 42.855601 
L 69.873954 42.44628 
L 69.561206 42.033183 
L 69.138076 41.472 
L 68.294554 41.472 
L 66.770842 41.472 
L 65.24713 41.472 
L 63.723418 41.472 
L 62.199706 41.472 
L 60.675994 41.472 
L 59.152282 41.472 
L 57.62857 41.472 
L 57.62857 44.7984 
L 57.62857 48.1248 
L 57.62857 51.4512 
L 57.62857 54.7776 
L 57.62857 58.104 
L 57.62857 61.4304 
L 57.62857 64.7568 
L 57.62857 68.0832 
L 57.62857 71.4096 
L 57.62857 74.736 
L 57.62857 78.0624 
L 57.62857 81.3888 
L 57.62857 84.7152 
L 57.62857 88.0416 
L 57.62857 91.368 
L 57.62857 94.6944 
L 57.62857 98.0208 
L 57.62857 101.3472 
L 57.62857 104.6736 
L 57.62857 108 
L 57.62857 111.3264 
L 57.62857 114.6528 
L 57.62857 117.9792 
L 57.62857 121.3056 
L 57.62857 124.632 
L 57.62857 127.9584 
L 57.62857 131.2848 
L 57.62857 134.6112 
L 57.62857 137.9376 
L 57.62857 141.264 
L 57.62857 144.5904 
L 57.62857 147.104607 
L 57.872413 147.384468 
L 58.344905 147.9168 
L 58.704561 148.321658 
L 59.213286 148.89108 
L 59.885559 149.642389 
L 60.503613 150.334679 
L 60.788425 150.650636 
L 61.321478 151.2432 
L 61.905373 151.885755 
L 63.095467 153.198727 
L 63.308132 153.431937 
L 63.456789 153.59532 
L 63.681229 153.836899 
L 64.355686 154.5696 
L 64.758185 155.011735 
L 65.250489 155.54388 
L 65.969393 156.319234 
L 66.601363 157.002774 
L 66.88306 157.30456 
L 67.433736 157.896 
L 68.012661 158.511397 
L 69.114718 159.686492 
L 69.417633 160.007511 
L 69.644064 160.24812 
L 69.885665 160.502167 
L 70.572867 161.2224 
L 70.817827 161.481623 
L 70.926724 161.5979 
L 71.499183 162.19668 
L 72.121887 162.846187 
L 72.646891 163.395634 
L 73.012559 163.774732 
L 73.757008 164.5488 
L 74.18682 164.991054 
L 74.955647 165.784964 
L 75.560742 166.405953 
L 76.041548 166.90092 
L 76.583311 167.453086 
L 76.998762 167.8752 
L 77.141381 168.021315 
L 77.203843 168.085878 
L 77.956778 168.84948 
L 78.337822 169.234643 
L 78.646822 169.54818 
L 79.173747 170.07789 
L 80.287826 171.2016 
L 80.422625 171.336131 
L 80.650439 171.564406 
L 81.734327 172.643774 
L 82.409637 173.318608 
L 82.514425 173.422344 
L 82.646536 173.55372 
L 83.583105 174.481492 
L 83.630583 174.528 
L 84.615323 175.499203 
L 84.618415 175.50228 
L 85.363574 176.230111 
L 86.219378 177.0691 
L 86.716829 177.55372 
L 87.02401 177.8544 
L 87.935384 178.736808 
L 88.345947 179.13584 
L 88.827235 179.599315 
L 89.454691 180.20652 
L 90.059473 180.789297 
L 90.182427 180.905872 
L 90.469793 181.1808 
L 91.219408 181.900155 
L 91.482699 182.15508 
L 91.579122 182.246768 
L 91.68468 182.347544 
L 93.063845 183.656015 
L 93.95645 184.5072 
L 94.161043 184.700177 
L 94.250315 184.784729 
L 95.190166 185.666865 
L 96.453984 186.85932 
L 96.623123 187.018176 
L 96.883321 187.258946 
L 97.498857 187.8336 
L 98.122193 188.418298 
L 98.541032 188.80788 
L 99.457561 189.656359 
L 100.1251 190.277699 
L 100.410041 190.540535 
L 101.078463 191.16 
L 101.598058 191.636261 
L 102.353201 192.332282 
L 103.004344 192.928684 
L 103.33993 193.232747 
L 103.33993 191.16 
L 103.33993 187.8336 
L 103.33993 184.5072 
L 103.33993 181.1808 
L 103.33993 177.8544 
L 103.33993 174.528 
L 103.33993 171.2016 
L 103.33993 167.8752 
L 103.33993 164.5488 
L 103.33993 161.2224 
L 103.33993 157.896 
L 103.33993 154.5696 
L 103.33993 151.2432 
L 103.33993 147.9168 
L 103.33993 144.5904 
L 103.33993 141.264 
L 103.33993 137.9376 
L 103.33993 134.6112 
L 103.33993 131.2848 
L 103.33993 127.9584 
L 103.33993 124.632 
L 103.33993 121.3056 
L 103.33993 117.9792 
L 103.33993 114.6528 
L 103.33993 111.3264 
L 103.33993 108 
L 103.33993 104.6736 
L 103.33993 101.3472 
L 103.33993 98.0208 
L 103.33993 94.6944 
L 103.33993 91.368 
L 103.33993 88.0416 
L 103.33993 84.7152 
" clip-path="url(#p1e89d0a206)" style="fill: #0018ff"/>
   </g>
   <g id="PathCollection_3">
    <path d="M 103.33993 193.232747 
L 103.004344 192.928684 
L 102.353201 192.332282 
L 101.598058 191.636261 
L 101.078463 191.16 
L 100.410041 190.540535 
L 100.1251 190.277699 
L 99.457561 189.656359 
L 98.541032 188.80788 
L 98.122193 188.418298 
L 97.498857 187.8336 
L 96.883321 187.258946 
L 96.623123 187.018176 
L 96.453984 186.85932 
L 95.190166 185.666865 
L 94.250315 184.784729 
L 94.161043 184.700177 
L 93.95645 184.5072 
L 93.063845 183.656015 
L 91.68468 182.347544 
L 91.579122 182.246768 
L 91.482699 182.15508 
L 91.219408 181.900155 
L 90.469793 181.1808 
L 90.182427 180.905872 
L 90.059473 180.789297 
L 89.454691 180.20652 
L 88.827235 179.599315 
L 88.345947 179.13584 
L 87.935384 178.736808 
L 87.02401 177.8544 
L 86.716829 177.55372 
L 86.219378 177.0691 
L 85.363574 176.230111 
L 84.618415 175.50228 
L 84.615323 175.499203 
L 83.630583 174.528 
L 83.583105 174.481492 
L 82.646536 173.55372 
L 82.514425 173.422344 
L 82.409637 173.318608 
L 81.734327 172.643774 
L 80.650439 171.564406 
L 80.422625 171.336131 
L 80.287826 171.2016 
L 79.173747 170.07789 
L 78.646822 169.54818 
L 78.337822 169.234643 
L 77.956778 168.84948 
L 77.203843 168.085878 
L 77.141381 168.021315 
L 76.998762 167.8752 
L 76.583311 167.453086 
L 76.041548 166.90092 
L 75.560742 166.405953 
L 74.955647 165.784964 
L 74.18682 164.991054 
L 73.757008 164.5488 
L 73.012559 163.774732 
L 72.646891 163.395634 
L 72.121887 162.846187 
L 71.499183 162.19668 
L 70.926724 161.5979 
L 70.817827 161.481623 
L 70.572867 161.2224 
L 69.885665 160.502167 
L 69.644064 160.24812 
L 69.417633 160.007511 
L 69.114718 159.686492 
L 68.012661 158.511397 
L 67.433736 157.896 
L 66.88306 157.30456 
L 66.601363 157.002774 
L 65.969393 156.319234 
L 65.250489 155.54388 
L 64.758185 155.011735 
L 64.355686 154.5696 
L 63.681229 153.836899 
L 63.456789 153.59532 
L 63.308132 153.431937 
L 63.095467 153.198727 
L 61.905373 151.885755 
L 61.321478 151.2432 
L 60.788425 150.650636 
L 60.503613 150.334679 
L 59.885559 149.642389 
L 59.213286 148.89108 
L 58.704561 148.321658 
L 58.344905 147.9168 
L 57.872413 147.384468 
L 57.62857 147.104607 
L 57.62857 147.9168 
L 57.62857 151.2432 
L 57.62857 154.5696 
L 57.62857 157.896 
L 57.62857 161.2224 
L 57.62857 164.5488 
L 57.62857 167.8752 
L 57.62857 171.2016 
L 57.62857 174.528 
L 57.62857 177.8544 
L 57.62857 181.1808 
L 57.62857 184.5072 
L 57.62857 187.8336 
L 57.62857 191.16 
L 57.62857 194.4864 
L 57.62857 197.8128 
L 57.62857 201.1392 
L 57.62857 204.4656 
L 57.62857 207.792 
L 57.62857 211.1184 
L 57.62857 214.4448 
L 57.62857 217.7712 
L 57.62857 221.0976 
L 57.62857 222.242701 
L 57.977089 222.587145 
L 58.584023 223.183441 
L 59.367832 223.953433 
L 59.849973 224.424 
L 60.546961 225.10406 
L 60.863258 225.410969 
L 61.475489 226.00503 
L 62.275296 226.77612 
L 62.75972 227.243999 
L 62.917783 227.395268 
L 63.289856 227.7504 
L 63.955024 228.389423 
L 64.239306 228.66174 
L 64.305591 228.72468 
L 65.711811 230.06236 
L 66.767726 231.060377 
L 66.77301 231.065372 
L 66.785159 231.0768 
L 67.840047 232.069029 
L 69.295068 233.42892 
L 69.332855 233.4643 
L 69.631667 233.741918 
L 70.345576 234.4032 
L 70.691084 234.725105 
L 70.836575 234.860218 
L 71.39768 235.37748 
L 72.115665 236.040572 
L 72.635774 236.517845 
L 73.027374 236.877454 
L 73.960017 237.7296 
L 74.262668 238.006271 
L 74.696742 238.400551 
L 75.62562 239.244822 
L 76.319704 239.87251 
L 76.415512 239.959219 
L 76.551654 240.08172 
L 77.534642 240.967548 
L 77.633623 241.056 
L 78.646589 241.964832 
L 78.719764 242.03028 
L 79.307152 242.55559 
L 79.881553 243.06666 
L 80.737719 243.829054 
L 81.362781 244.3824 
L 81.915117 244.87173 
L 82.138094 245.068257 
L 82.906753 245.746658 
L 84.032651 246.73452 
L 84.324984 246.991437 
L 85.147303 247.7088 
L 85.875207 248.345304 
L 86.264274 248.68308 
L 87.259901 249.548946 
L 87.930862 250.128958 
L 88.226233 250.384706 
L 88.981093 251.0352 
L 89.443688 251.434341 
L 90.045948 251.950846 
L 90.846122 252.638004 
L 91.572062 253.258426 
L 91.632041 253.309771 
L 91.723122 253.38732 
L 92.767015 254.27744 
L 92.795385 254.301541 
L 92.866319 254.3616 
L 93.134832 254.589536 
L 94.013215 255.33588 
L 94.556516 255.796659 
L 95.043111 256.2073 
L 96.021014 257.033849 
L 96.799317 257.688 
L 97.183686 258.011582 
L 97.32968 258.133871 
L 98.221542 258.8827 
L 99.607915 260.04012 
L 99.731718 260.143661 
L 100.778347 261.0144 
L 101.318631 261.46435 
L 101.95142 261.98868 
L 102.634056 262.555386 
L 103.069326 262.9146 
L 103.33993 263.138976 
L 103.33993 261.0144 
L 103.33993 257.688 
L 103.33993 254.3616 
L 103.33993 251.0352 
L 103.33993 247.7088 
L 103.33993 244.3824 
L 103.33993 241.056 
L 103.33993 237.7296 
L 103.33993 234.4032 
L 103.33993 231.0768 
L 103.33993 227.7504 
L 103.33993 224.424 
L 103.33993 221.0976 
L 103.33993 217.7712 
L 103.33993 214.4448 
L 103.33993 211.1184 
L 103.33993 207.792 
L 103.33993 204.4656 
L 103.33993 201.1392 
L 103.33993 197.8128 
L 103.33993 194.4864 
" clip-path="url(#p1e89d0a206)" style="fill: #0080ff"/>
   </g>
   <g id="PathCollection_4">
    <path d="M 103.33993 263.138976 
L 103.069326 262.9146 
L 102.634056 262.555386 
L 101.95142 261.98868 
L 101.318631 261.46435 
L 100.778347 261.0144 
L 99.731718 260.143661 
L 99.607915 260.04012 
L 98.221542 258.8827 
L 97.32968 258.133871 
L 97.183686 258.011582 
L 96.799317 257.688 
L 96.021014 257.033849 
L 95.043111 256.2073 
L 94.556516 255.796659 
L 94.013215 255.33588 
L 93.134832 254.589536 
L 92.866319 254.3616 
L 92.795385 254.301541 
L 92.767015 254.27744 
L 91.723122 253.38732 
L 91.632041 253.309771 
L 91.572062 253.258426 
L 90.846122 252.638004 
L 90.045948 251.950846 
L 89.443688 251.434341 
L 88.981093 251.0352 
L 88.226233 250.384706 
L 87.930862 250.128958 
L 87.259901 249.548946 
L 86.264274 248.68308 
L 85.875207 248.345304 
L 85.147303 247.7088 
L 84.324984 246.991437 
L 84.032651 246.73452 
L 82.906753 245.746658 
L 82.138094 245.068257 
L 81.915117 244.87173 
L 81.362781 244.3824 
L 80.737719 243.829054 
L 79.881553 243.06666 
L 79.307152 242.55559 
L 78.719764 242.03028 
L 78.646589 241.964832 
L 77.633623 241.056 
L 77.534642 240.967548 
L 76.551654 240.08172 
L 76.415512 239.959219 
L 76.319704 239.87251 
L 75.62562 239.244822 
L 74.696742 238.400551 
L 74.262668 238.006271 
L 73.960017 237.7296 
L 73.027374 236.877454 
L 72.635774 236.517845 
L 72.115665 236.040572 
L 71.39768 235.37748 
L 70.836575 234.860218 
L 70.691084 234.725105 
L 70.345576 234.4032 
L 69.631667 233.741918 
L 69.332855 233.4643 
L 69.295068 233.42892 
L 67.840047 232.069029 
L 66.785159 231.0768 
L 66.77301 231.065372 
L 66.767726 231.060377 
L 65.711811 230.06236 
L 64.305591 228.72468 
L 64.239306 228.66174 
L 63.955024 228.389423 
L 63.289856 227.7504 
L 62.917783 227.395268 
L 62.75972 227.243999 
L 62.275296 226.77612 
L 61.475489 226.00503 
L 60.863258 225.410969 
L 60.546961 225.10406 
L 59.849973 224.424 
L 59.367832 223.953433 
L 58.584023 223.183441 
L 57.977089 222.587145 
L 57.62857 222.242701 
L 57.62857 224.424 
L 57.62857 227.7504 
L 57.62857 231.0768 
L 57.62857 234.4032 
L 57.62857 237.7296 
L 57.62857 241.056 
L 57.62857 244.3824 
L 57.62857 247.7088 
L 57.62857 251.0352 
L 57.62857 254.3616 
L 57.62857 257.688 
L 57.62857 261.0144 
L 57.62857 264.3408 
L 57.62857 267.6672 
L 57.62857 270.9936 
L 57.62857 274.32 
L 57.62857 277.6464 
L 57.62857 280.9728 
L 57.62857 284.2992 
L 57.62857 287.6256 
L 57.62857 290.952 
L 57.62857 294.2784 
L 57.62857 297.6048 
L 57.62857 298.782162 
L 57.904185 299.057415 
L 58.298324 299.469066 
L 58.778757 299.95692 
L 59.454793 300.657649 
L 59.535424 300.741713 
L 59.722021 300.9312 
L 60.253651 301.475892 
L 60.669017 301.90548 
L 61.047234 302.300998 
L 61.528615 302.792549 
L 62.439536 303.734029 
L 62.96094 304.2576 
L 63.598019 304.918507 
L 63.908467 305.232891 
L 64.514102 305.857866 
L 65.2643 306.60972 
L 65.76142 307.118945 
L 66.222591 307.584 
L 66.770842 307.584 
L 68.294554 307.584 
L 69.818266 307.584 
L 71.341978 307.584 
L 72.86569 307.584 
L 74.389402 307.584 
L 75.913114 307.584 
L 77.436826 307.584 
L 78.960538 307.584 
L 80.48425 307.584 
L 82.007962 307.584 
L 83.531674 307.584 
L 85.055386 307.584 
L 86.579098 307.584 
L 88.10281 307.584 
L 89.626522 307.584 
L 91.150234 307.584 
L 92.673946 307.584 
L 94.197658 307.584 
L 95.72137 307.584 
L 97.245082 307.584 
L 98.768794 307.584 
L 100.292506 307.584 
L 101.816218 307.584 
L 103.33993 307.584 
L 103.33993 304.2576 
L 103.33993 300.9312 
L 103.33993 297.6048 
L 103.33993 294.2784 
L 103.33993 290.952 
L 103.33993 287.6256 
L 103.33993 284.2992 
L 103.33993 280.9728 
L 103.33993 277.6464 
L 103.33993 274.32 
L 103.33993 270.9936 
L 103.33993 267.6672 
L 103.33993 264.3408 
" clip-path="url(#p1e89d0a206)" style="fill: #00e4f8"/>
   </g>
   <g id="PathCollection_5">
    <path d="M 66.222591 307.584 
L 65.76142 307.118945 
L 65.2643 306.60972 
L 64.514102 305.857866 
L 63.908467 305.232891 
L 63.598019 304.918507 
L 62.96094 304.2576 
L 62.439536 303.734029 
L 61.528615 302.792549 
L 61.047234 302.300998 
L 60.669017 301.90548 
L 60.253651 301.475892 
L 59.722021 300.9312 
L 59.535424 300.741713 
L 59.454793 300.657649 
L 58.778757 299.95692 
L 58.298324 299.469066 
L 57.904185 299.057415 
L 57.62857 298.782162 
L 57.62857 300.9312 
L 57.62857 304.2576 
L 57.62857 307.584 
L 59.152282 307.584 
L 60.675994 307.584 
L 62.199706 307.584 
L 63.723418 307.584 
L 65.24713 307.584 
" clip-path="url(#p1e89d0a206)" style="fill: #53ffa4"/>
   </g>
   <g id="PathCollection_6">
    <path clip-path="url(#p1e89d0a206)" style="fill: #a4ff53"/>
   </g>
   <g id="PathCollection_7">
    <path clip-path="url(#p1e89d0a206)" style="fill: #f8f500"/>
   </g>
   <g id="PathCollection_8">
    <path clip-path="url(#p1e89d0a206)" style="fill: #ff9400"/>
   </g>
   <g id="PathCollection_9">
    <path clip-path="url(#p1e89d0a206)" style="fill: #ff3800"/>
   </g>
   <g id="PathCollection_10">
    <path clip-path="url(#p1e89d0a206)" style="fill: #b60000"/>
   </g>
   <g id="PathCollection_11">
    <path d="M 100.4544 79.943261 
L 102.003668 81.725324 
L 105.616569 85.824 
L 107.078374 87.435681 
L 111.265618 92.09632 
L 112.109067 93.07852 
L 113.735313 94.6944 
L 115.647114 96.951345 
L 115.911306 97.29248 
L 118.122944 99.651746 
L 121.750121 103.5648 
L 123.280846 105.1622 
L 127.680383 109.83712 
L 128.494375 110.730414 
L 130.266368 112.4352 
L 132.212523 114.598811 
L 132.569963 115.03328 
L 134.472079 116.970065 
L 138.657588 121.3056 
L 139.845798 122.491505 
L 144.811335 127.57792 
L 145.368062 128.16063 
L 146.16948 128.874806 
L 147.513218 130.176 
L 149.441824 132.289551 
L 149.908488 132.77408 
L 150.991393 133.838165 
L 156.172283 139.0464 
L 156.674762 139.531498 
L 162.471611 145.31872 
L 162.586153 145.43452 
L 165.264238 147.9168 
L 167.67494 150.47317 
L 167.717773 150.51488 
L 173.686902 156.370762 
L 174.093633 156.7872 
L 179.428124 162.008143 
L 180.468244 163.05952 
L 180.959162 163.538257 
L 183.248725 165.6576 
L 185.144711 167.63282 
L 185.782792 168.25568 
L 190.772268 173.129783 
L 192.132822 174.528 
L 196.115694 178.431111 
L 198.443092 180.80032 
L 198.775506 181.094849 
L 201.15271 183.3984 
L 202.529318 184.831127 
L 203.701179 185.99648 
L 207.752482 190.004033 
L 209.910302 192.2688 
L 212.719905 195.074612 
L 216.041301 198.54112 
L 217.521189 200.05832 
L 218.638936 201.1392 
L 219.609504 202.167612 
L 221.129201 203.73728 
L 224.477622 207.157799 
L 227.083593 210.0096 
L 229.155975 212.162939 
L 231.930297 215.195888 
L 232.644538 215.949086 
L 232.936872 216.28192 
L 233.34217 216.736444 
L 235.369886 218.88 
L 236.155685 219.746485 
L 237.731904 221.47808 
L 240.782157 224.772476 
L 243.326546 227.7504 
L 245.32273 229.963751 
L 248.334393 233.504574 
L 248.662553 233.877738 
L 248.779064 234.02272 
L 248.92697 234.202794 
L 251.033046 236.6208 
L 251.613893 237.276225 
L 251.928943 237.676193 
L 253.209944 239.21888 
L 256.474791 243.057689 
L 258.356667 245.4912 
L 261.08764 248.827671 
L 263.332047 251.76352 
L 264.089239 252.784154 
L 265.368682 254.3616 
L 266.681633 256.069142 
L 267.329352 256.95968 
L 271.321666 262.269705 
L 271.966019 263.232 
L 276.258044 269.264388 
L 276.415397 269.50432 
L 277.124793 270.443779 
L 278.202458 272.1024 
L 279.461844 273.882625 
L 279.95588 274.70048 
L 280.575412 275.583346 
L 284.047712 280.9728 
L 285.156626 282.590605 
L 287.93653 287.24512 
L 288.922583 288.803927 
L 289.487921 289.8432 
L 290.522132 291.608518 
L 291.026628 292.44128 
L 291.57716 293.29562 
L 294.581528 298.7136 
L 294.670806 298.864062 
L 295.058507 299.588822 
L 297.655383 304.375748 
L 297.929454 304.98592 
L 298.168172 305.471419 
L 299.255147 307.584 
L 302.8224 307.584 
L 310.91712 307.584 
L 319.01184 307.584 
L 327.10656 307.584 
L 335.20128 307.584 
L 343.296 307.584 
L 343.296 298.7136 
L 343.296 289.8432 
L 343.296 280.9728 
L 343.296 272.1024 
L 343.296 263.232 
L 343.296 254.3616 
L 343.296 245.4912 
L 343.296 236.6208 
L 343.296 227.7504 
L 343.296 218.88 
L 343.296 210.0096 
L 343.296 201.1392 
L 343.296 192.2688 
L 343.296 183.3984 
L 343.296 174.528 
L 343.296 165.6576 
L 343.296 156.7872 
L 343.296 147.9168 
L 343.296 139.0464 
L 343.296 130.176 
L 343.296 121.3056 
L 343.296 112.4352 
L 343.296 103.5648 
L 343.296 94.6944 
L 343.296 85.824 
L 343.296 76.9536 
L 343.296 68.0832 
L 343.296 59.2128 
L 343.296 50.3424 
L 343.296 41.472 
L 335.20128 41.472 
L 327.10656 41.472 
L 319.01184 41.472 
L 310.91712 41.472 
L 302.8224 41.472 
L 294.72768 41.472 
L 286.63296 41.472 
L 278.53824 41.472 
L 270.44352 41.472 
L 262.3488 41.472 
L 254.25408 41.472 
L 246.15936 41.472 
L 238.06464 41.472 
L 229.96992 41.472 
L 221.8752 41.472 
L 213.78048 41.472 
L 205.68576 41.472 
L 197.59104 41.472 
L 189.49632 41.472 
L 181.4016 41.472 
L 173.30688 41.472 
L 165.21216 41.472 
L 157.11744 41.472 
L 149.02272 41.472 
L 140.928 41.472 
L 132.83328 41.472 
L 124.73856 41.472 
L 116.64384 41.472 
L 108.54912 41.472 
L 100.4544 41.472 
L 100.4544 50.3424 
L 100.4544 59.2128 
L 100.4544 68.0832 
L 100.4544 76.9536 
" clip-path="url(#p1e89d0a206)" style="fill: #0000b6"/>
   </g>
   <g id="PathCollection_12">
    <path d="M 299.255147 307.584 
L 298.168172 305.471419 
L 297.929454 304.98592 
L 297.655383 304.375748 
L 295.058507 299.588822 
L 294.670806 298.864062 
L 294.581528 298.7136 
L 291.57716 293.29562 
L 291.026628 292.44128 
L 290.522132 291.608518 
L 289.487921 289.8432 
L 288.922583 288.803927 
L 287.93653 287.24512 
L 285.156626 282.590605 
L 284.047712 280.9728 
L 280.575412 275.583346 
L 279.95588 274.70048 
L 279.461844 273.882625 
L 278.202458 272.1024 
L 277.124793 270.443779 
L 276.415397 269.50432 
L 276.258044 269.264388 
L 271.966019 263.232 
L 271.321666 262.269705 
L 267.329352 256.95968 
L 266.681633 256.069142 
L 265.368682 254.3616 
L 264.089239 252.784154 
L 263.332047 251.76352 
L 261.08764 248.827671 
L 258.356667 245.4912 
L 256.474791 243.057689 
L 253.209944 239.21888 
L 251.928943 237.676193 
L 251.613893 237.276225 
L 251.033046 236.6208 
L 248.92697 234.202794 
L 248.779064 234.02272 
L 248.662553 233.877738 
L 248.334393 233.504574 
L 245.32273 229.963751 
L 243.326546 227.7504 
L 240.782157 224.772476 
L 237.731904 221.47808 
L 236.155685 219.746485 
L 235.369886 218.88 
L 233.34217 216.736444 
L 232.936872 216.28192 
L 232.644538 215.949086 
L 231.930297 215.195888 
L 229.155975 212.162939 
L 227.083593 210.0096 
L 224.477622 207.157799 
L 221.129201 203.73728 
L 219.609504 202.167612 
L 218.638936 201.1392 
L 217.521189 200.05832 
L 216.041301 198.54112 
L 212.719905 195.074612 
L 209.910302 192.2688 
L 207.752482 190.004033 
L 203.701179 185.99648 
L 202.529318 184.831127 
L 201.15271 183.3984 
L 198.775506 181.094849 
L 198.443092 180.80032 
L 196.115694 178.431111 
L 192.132822 174.528 
L 190.772268 173.129783 
L 185.782792 168.25568 
L 185.144711 167.63282 
L 183.248725 165.6576 
L 180.959162 163.538257 
L 180.468244 163.05952 
L 179.428124 162.008143 
L 174.093633 156.7872 
L 173.686902 156.370762 
L 167.717773 150.51488 
L 167.67494 150.47317 
L 165.264238 147.9168 
L 162.586153 145.43452 
L 162.471611 145.31872 
L 156.674762 139.531498 
L 156.172283 139.0464 
L 150.991393 133.838165 
L 149.908488 132.77408 
L 149.441824 132.289551 
L 147.513218 130.176 
L 146.16948 128.874806 
L 145.368062 128.16063 
L 144.811335 127.57792 
L 139.845798 122.491505 
L 138.657588 121.3056 
L 134.472079 116.970065 
L 132.569963 115.03328 
L 132.212523 114.598811 
L 130.266368 112.4352 
L 128.494375 110.730414 
L 127.680383 109.83712 
L 123.280846 105.1622 
L 121.750121 103.5648 
L 118.122944 99.651746 
L 115.911306 97.29248 
L 115.647114 96.951345 
L 113.735313 94.6944 
L 112.109067 93.07852 
L 111.265618 92.09632 
L 107.078374 87.435681 
L 105.616569 85.824 
L 102.003668 81.725324 
L 100.4544 79.943261 
L 100.4544 85.824 
L 100.4544 94.6944 
L 100.4544 103.5648 
L 100.4544 112.4352 
L 100.4544 121.3056 
L 100.4544 130.176 
L 100.4544 139.0464 
L 100.4544 147.9168 
L 100.4544 156.7872 
L 100.4544 165.6576 
L 100.4544 174.528 
L 100.4544 183.3984 
L 100.4544 190.553589 
L 100.933245 191.001989 
L 102.307444 192.2688 
L 105.733039 195.354733 
L 109.252534 198.54112 
L 110.916687 200.064548 
L 112.177803 201.1392 
L 114.865079 203.590285 
L 115.019854 203.73728 
L 118.025769 206.353628 
L 122.196157 210.0096 
L 123.623656 211.23134 
L 129.46274 216.28192 
L 129.80606 216.579833 
L 130.794647 217.376581 
L 132.589641 218.88 
L 135.4319 221.374712 
L 135.554971 221.47808 
L 141.840539 226.750417 
L 143.009888 227.7504 
L 147.58447 231.555371 
L 150.506879 234.02272 
L 152.15764 235.389533 
L 153.673808 236.6208 
L 154.46273 237.27983 
L 154.876687 237.637891 
L 156.7893 239.21888 
L 160.249694 242.058796 
L 164.333109 245.4912 
L 165.004557 246.040425 
L 165.610601 246.545298 
L 169.467016 249.69902 
L 171.918144 251.76352 
L 174.429927 253.851842 
L 175.042994 254.3616 
L 175.758443 254.970199 
L 177.094258 256.080713 
L 178.158284 256.95968 
L 178.658422 257.367644 
L 179.429477 258.014637 
L 182.435668 260.496314 
L 185.667256 263.232 
L 187.853876 265.031832 
L 193.104466 269.50432 
L 193.848998 270.126694 
L 194.677497 270.816176 
L 196.159487 272.1024 
L 198.875048 274.430663 
L 199.19667 274.70048 
L 199.7772 275.189189 
L 202.791275 277.80095 
L 206.030238 280.595312 
L 206.44836 280.9728 
L 211.959168 285.791184 
L 213.566099 287.24512 
L 214.137428 287.745079 
L 216.439724 289.8432 
L 218.289941 291.470569 
L 219.332238 292.44128 
L 223.865166 296.532945 
L 226.156527 298.7136 
L 228.984651 301.320186 
L 232.075546 304.284154 
L 232.560646 304.745017 
L 232.798723 304.98592 
L 233.201298 305.376501 
L 235.475503 307.584 
L 238.06464 307.584 
L 246.15936 307.584 
L 254.25408 307.584 
L 262.3488 307.584 
L 270.44352 307.584 
L 278.53824 307.584 
L 286.63296 307.584 
L 294.72768 307.584 
" clip-path="url(#p1e89d0a206)" style="fill: #0018ff"/>
   </g>
   <g id="PathCollection_13">
    <path d="M 235.475503 307.584 
L 233.201298 305.376501 
L 232.798723 304.98592 
L 232.560646 304.745017 
L 232.075546 304.284154 
L 228.984651 301.320186 
L 226.156527 298.7136 
L 223.865166 296.532945 
L 219.332238 292.44128 
L 218.289941 291.470569 
L 216.439724 289.8432 
L 214.137428 287.745079 
L 213.566099 287.24512 
L 211.959168 285.791184 
L 206.44836 280.9728 
L 206.030238 280.595312 
L 202.791275 277.80095 
L 199.7772 275.189189 
L 199.19667 274.70048 
L 198.875048 274.430663 
L 196.159487 272.1024 
L 194.677497 270.816176 
L 193.848998 270.126694 
L 193.104466 269.50432 
L 187.853876 265.031832 
L 185.667256 263.232 
L 182.435668 260.496314 
L 179.429477 258.014637 
L 178.658422 257.367644 
L 178.158284 256.95968 
L 177.094258 256.080713 
L 175.758443 254.970199 
L 175.042994 254.3616 
L 174.429927 253.851842 
L 171.918144 251.76352 
L 169.467016 249.69902 
L 165.610601 246.545298 
L 165.004557 246.040425 
L 164.333109 245.4912 
L 160.249694 242.058796 
L 156.7893 239.21888 
L 154.876687 237.637891 
L 154.46273 237.27983 
L 153.673808 236.6208 
L 152.15764 235.389533 
L 150.506879 234.02272 
L 147.58447 231.555371 
L 143.009888 227.7504 
L 141.840539 226.750417 
L 135.554971 221.47808 
L 135.4319 221.374712 
L 132.589641 218.88 
L 130.794647 217.376581 
L 129.80606 216.579833 
L 129.46274 216.28192 
L 123.623656 211.23134 
L 122.196157 210.0096 
L 118.025769 206.353628 
L 115.019854 203.73728 
L 114.865079 203.590285 
L 112.177803 201.1392 
L 110.916687 200.064548 
L 109.252534 198.54112 
L 105.733039 195.354733 
L 102.307444 192.2688 
L 100.933245 191.001989 
L 100.4544 190.553589 
L 100.4544 192.2688 
L 100.4544 201.1392 
L 100.4544 210.0096 
L 100.4544 218.88 
L 100.4544 227.7504 
L 100.4544 236.6208 
L 100.4544 245.4912 
L 100.4544 254.3616 
L 100.4544 260.750062 
L 101.167819 261.34461 
L 103.45865 263.232 
L 106.356224 265.635031 
L 111.122012 269.50432 
L 112.247174 270.423832 
L 114.333894 272.1024 
L 116.779624 274.0782 
L 117.564436 274.70048 
L 118.675956 275.596721 
L 122.880291 278.936462 
L 125.031891 280.651361 
L 125.440867 280.9728 
L 131.132452 285.472438 
L 133.400708 287.24512 
L 133.825153 287.58746 
L 136.690972 289.8432 
L 138.255497 291.056264 
L 140.022635 292.44128 
L 143.887375 295.470641 
L 148.084961 298.7136 
L 148.808799 299.279541 
L 149.413031 299.746189 
L 153.352105 302.83975 
L 156.1117 304.98592 
L 158.600593 306.910788 
L 159.463825 307.584 
L 165.21216 307.584 
L 173.30688 307.584 
L 181.4016 307.584 
L 189.49632 307.584 
L 197.59104 307.584 
L 205.68576 307.584 
L 213.78048 307.584 
L 221.8752 307.584 
L 229.96992 307.584 
" clip-path="url(#p1e89d0a206)" style="fill: #0080ff"/>
   </g>
   <g id="PathCollection_14">
    <path d="M 159.463825 307.584 
L 158.600593 306.910788 
L 156.1117 304.98592 
L 153.352105 302.83975 
L 149.413031 299.746189 
L 148.808799 299.279541 
L 148.084961 298.7136 
L 143.887375 295.470641 
L 140.022635 292.44128 
L 138.255497 291.056264 
L 136.690972 289.8432 
L 133.825153 287.58746 
L 133.400708 287.24512 
L 131.132452 285.472438 
L 125.440867 280.9728 
L 125.031891 280.651361 
L 122.880291 278.936462 
L 118.675956 275.596721 
L 117.564436 274.70048 
L 116.779624 274.0782 
L 114.333894 272.1024 
L 112.247174 270.423832 
L 111.122012 269.50432 
L 106.356224 265.635031 
L 103.45865 263.232 
L 101.167819 261.34461 
L 100.4544 260.750062 
L 100.4544 263.232 
L 100.4544 272.1024 
L 100.4544 280.9728 
L 100.4544 289.8432 
L 100.4544 298.7136 
L 100.4544 307.584 
L 108.54912 307.584 
L 116.64384 307.584 
L 124.73856 307.584 
L 132.83328 307.584 
L 140.928 307.584 
L 149.02272 307.584 
L 157.11744 307.584 
" clip-path="url(#p1e89d0a206)" style="fill: #00e4f8"/>
   </g>
   <g id="PathCollection_15">
    <path clip-path="url(#p1e89d0a206)" style="fill: #53ffa4"/>
   </g>
   <g id="PathCollection_16">
    <path clip-path="url(#p1e89d0a206)" style="fill: #a4ff53"/>
   </g>
   <g id="PathCollection_17">
    <path clip-path="url(#p1e89d0a206)" style="fill: #f8f500"/>
   </g>
   <g id="PathCollection_18">
    <path clip-path="url(#p1e89d0a206)" style="fill: #ff9400"/>
   </g>
   <g id="PathCollection_19">
    <path clip-path="url(#p1e89d0a206)" style="fill: #ff3800"/>
   </g>
   <g id="PathCollection_20">
    <path clip-path="url(#p1e89d0a206)" style="fill: #b60000"/>
   </g>
   <g id="matplotlib.axis_1">
    <g id="xtick_1">
     <g id="line2d_1">
      <defs>
       <path id="m9260714ac2" d="M 0 0 
L 0 3.5 
" style="stroke: #000000; stroke-width: 0.8"/>
      </defs>
      <g>
       <use xlink:href="#m9260714ac2" x="57.6" y="307.584" style="stroke: #000000; stroke-width: 0.8"/>
      </g>
     </g>
     <g id="text_1">
      <!-- 0.0 -->
      <g transform="translate(51.26875 321.385562) scale(0.1 -0.1)">
       <defs>
        <path id="Calibri-30" d="M 3022 2031 
Q 3022 1566 2948 1181 
Q 2875 797 2704 520 
Q 2534 244 2259 92 
Q 1984 -59 1581 -59 
Q 1200 -59 939 77 
Q 678 213 518 477 
Q 359 741 292 1127 
Q 225 1513 225 2013 
Q 225 2475 300 2861 
Q 375 3247 544 3523 
Q 713 3800 988 3951 
Q 1263 4103 1663 4103 
Q 2047 4103 2308 3967 
Q 2569 3831 2728 3567 
Q 2888 3303 2955 2917 
Q 3022 2531 3022 2031 
z
M 2472 1994 
Q 2472 2297 2450 2537 
Q 2428 2778 2386 2962 
Q 2344 3147 2276 3280 
Q 2209 3413 2115 3498 
Q 2022 3584 1901 3623 
Q 1781 3663 1631 3663 
Q 1366 3663 1200 3538 
Q 1034 3413 939 3194 
Q 844 2975 809 2681 
Q 775 2388 775 2050 
Q 775 1597 822 1280 
Q 869 963 970 763 
Q 1072 563 1230 472 
Q 1388 381 1613 381 
Q 1788 381 1920 437 
Q 2053 494 2148 598 
Q 2244 703 2306 850 
Q 2369 997 2406 1175 
Q 2444 1353 2458 1561 
Q 2472 1769 2472 1994 
z
" transform="scale(0.015625)"/>
        <path id="Calibri-2e" d="M 1144 341 
Q 1144 119 1070 45 
Q 997 -28 803 -28 
Q 616 -28 544 44 
Q 472 116 472 331 
Q 472 553 545 626 
Q 619 700 813 700 
Q 1000 700 1072 628 
Q 1144 556 1144 341 
z
" transform="scale(0.015625)"/>
       </defs>
       <use xlink:href="#Calibri-30"/>
       <use xlink:href="#Calibri-2e" x="50.683594"/>
       <use xlink:href="#Calibri-30" x="75.927734"/>
      </g>
     </g>
    </g>
    <g id="xtick_2">
     <g id="line2d_2">
      <g>
       <use xlink:href="#m9260714ac2" x="86.1696" y="307.584" style="stroke: #000000; stroke-width: 0.8"/>
      </g>
     </g>
     <g id="text_2">
      <!-- 0.1 -->
      <g transform="translate(79.83835 321.385562) scale(0.1 -0.1)">
       <defs>
        <path id="Calibri-31" d="M 2897 213 
Q 2897 153 2887 112 
Q 2878 72 2862 47 
Q 2847 22 2826 11 
Q 2806 0 2784 0 
L 672 0 
Q 650 0 631 11 
Q 613 22 595 47 
Q 578 72 568 112 
Q 559 153 559 213 
Q 559 269 568 309 
Q 578 350 592 376 
Q 606 403 626 417 
Q 647 431 672 431 
L 1516 431 
L 1516 3506 
L 734 3041 
Q 675 3009 639 3003 
Q 603 2997 581 3017 
Q 559 3038 551 3084 
Q 544 3131 544 3203 
Q 544 3256 548 3293 
Q 553 3331 562 3356 
Q 572 3381 589 3400 
Q 606 3419 634 3438 
L 1566 4034 
Q 1578 4044 1597 4050 
Q 1616 4056 1644 4062 
Q 1672 4069 1709 4070 
Q 1747 4072 1803 4072 
Q 1878 4072 1928 4065 
Q 1978 4059 2006 4048 
Q 2034 4038 2043 4020 
Q 2053 4003 2053 3984 
L 2053 431 
L 2784 431 
Q 2809 431 2831 417 
Q 2853 403 2867 376 
Q 2881 350 2889 309 
Q 2897 269 2897 213 
z
" transform="scale(0.015625)"/>
       </defs>
       <use xlink:href="#Calibri-30"/>
       <use xlink:href="#Calibri-2e" x="50.683594"/>
       <use xlink:href="#Calibri-31" x="75.927734"/>
      </g>
     </g>
    </g>
    <g id="xtick_3">
     <g id="line2d_3">
      <g>
       <use xlink:href="#m9260714ac2" x="114.7392" y="307.584" style="stroke: #000000; stroke-width: 0.8"/>
      </g>
     </g>
     <g id="text_3">
      <!-- 0.2 -->
      <g transform="translate(108.40795 321.385562) scale(0.1 -0.1)">
       <defs>
        <path id="Calibri-32" d="M 2888 231 
Q 2888 175 2880 131 
Q 2872 88 2858 58 
Q 2844 28 2820 14 
Q 2797 0 2769 0 
L 534 0 
Q 491 0 458 11 
Q 425 22 401 47 
Q 378 72 367 119 
Q 356 166 356 234 
Q 356 297 361 344 
Q 366 391 381 427 
Q 397 463 420 498 
Q 444 534 481 575 
L 1266 1406 
Q 1538 1694 1702 1922 
Q 1866 2150 1955 2337 
Q 2044 2525 2072 2678 
Q 2100 2831 2100 2966 
Q 2100 3100 2056 3220 
Q 2013 3341 1930 3431 
Q 1847 3522 1722 3575 
Q 1597 3628 1434 3628 
Q 1244 3628 1092 3575 
Q 941 3522 827 3459 
Q 713 3397 636 3344 
Q 559 3291 522 3291 
Q 500 3291 483 3303 
Q 466 3316 455 3344 
Q 444 3372 437 3419 
Q 431 3466 431 3531 
Q 431 3578 434 3612 
Q 438 3647 445 3672 
Q 453 3697 465 3719 
Q 478 3741 515 3773 
Q 553 3806 645 3862 
Q 738 3919 877 3973 
Q 1016 4028 1183 4065 
Q 1350 4103 1534 4103 
Q 1828 4103 2048 4020 
Q 2269 3938 2414 3794 
Q 2559 3650 2631 3459 
Q 2703 3269 2703 3053 
Q 2703 2859 2668 2667 
Q 2634 2475 2523 2251 
Q 2413 2028 2203 1754 
Q 1994 1481 1647 1125 
L 1006 456 
L 2766 456 
Q 2791 456 2814 442 
Q 2838 428 2855 400 
Q 2872 372 2880 330 
Q 2888 288 2888 231 
z
" transform="scale(0.015625)"/>
       </defs>
       <use xlink:href="#Calibri-30"/>
       <use xlink:href="#Calibri-2e" x="50.683594"/>
       <use xlink:href="#Calibri-32" x="75.927734"/>
      </g>
     </g>
    </g>
    <g id="xtick_4">
     <g id="line2d_4">
      <g>
       <use xlink:href="#m9260714ac2" x="143.3088" y="307.584" style="stroke: #000000; stroke-width: 0.8"/>
      </g>
     </g>
     <g id="text_4">
      <!-- 0.3 -->
      <g transform="translate(136.97755 321.385562) scale(0.1 -0.1)">
       <defs>
        <path id="Calibri-33" d="M 2856 1156 
Q 2856 878 2759 654 
Q 2663 431 2481 272 
Q 2300 113 2034 27 
Q 1769 -59 1434 -59 
Q 1231 -59 1054 -26 
Q 878 6 740 51 
Q 603 97 512 145 
Q 422 194 398 216 
Q 375 238 362 259 
Q 350 281 340 312 
Q 331 344 326 389 
Q 322 434 322 500 
Q 322 613 344 656 
Q 366 700 406 700 
Q 434 700 517 650 
Q 600 600 729 542 
Q 859 484 1032 434 
Q 1206 384 1419 384 
Q 1625 384 1781 437 
Q 1938 491 2044 587 
Q 2150 684 2203 817 
Q 2256 950 2256 1106 
Q 2256 1278 2189 1415 
Q 2122 1553 1992 1653 
Q 1863 1753 1673 1806 
Q 1484 1859 1244 1859 
L 859 1859 
Q 834 1859 811 1870 
Q 788 1881 770 1906 
Q 753 1931 742 1972 
Q 731 2013 731 2078 
Q 731 2138 740 2177 
Q 750 2216 767 2239 
Q 784 2263 806 2273 
Q 828 2284 856 2284 
L 1209 2284 
Q 1416 2284 1580 2337 
Q 1744 2391 1858 2491 
Q 1972 2591 2033 2730 
Q 2094 2869 2094 3041 
Q 2094 3166 2053 3280 
Q 2013 3394 1931 3478 
Q 1850 3563 1723 3611 
Q 1597 3659 1431 3659 
Q 1250 3659 1098 3604 
Q 947 3550 828 3487 
Q 709 3425 631 3370 
Q 553 3316 522 3316 
Q 500 3316 483 3323 
Q 466 3331 455 3354 
Q 444 3378 439 3420 
Q 434 3463 434 3531 
Q 434 3578 437 3614 
Q 441 3650 450 3676 
Q 459 3703 471 3725 
Q 484 3747 514 3776 
Q 544 3806 634 3862 
Q 725 3919 858 3973 
Q 991 4028 1164 4065 
Q 1338 4103 1538 4103 
Q 1819 4103 2031 4031 
Q 2244 3959 2386 3828 
Q 2528 3697 2598 3514 
Q 2669 3331 2669 3109 
Q 2669 2919 2619 2755 
Q 2569 2591 2472 2464 
Q 2375 2338 2234 2248 
Q 2094 2159 1909 2125 
L 1909 2119 
Q 2119 2097 2292 2014 
Q 2466 1931 2591 1806 
Q 2716 1681 2786 1514 
Q 2856 1347 2856 1156 
z
" transform="scale(0.015625)"/>
       </defs>
       <use xlink:href="#Calibri-30"/>
       <use xlink:href="#Calibri-2e" x="50.683594"/>
       <use xlink:href="#Calibri-33" x="75.927734"/>
      </g>
     </g>
    </g>
    <g id="xtick_5">
     <g id="line2d_5">
      <g>
       <use xlink:href="#m9260714ac2" x="171.8784" y="307.584" style="stroke: #000000; stroke-width: 0.8"/>
      </g>
     </g>
     <g id="text_5">
      <!-- 0.4 -->
      <g transform="translate(165.54715 321.385562) scale(0.1 -0.1)">
       <defs>
        <path id="Calibri-34" d="M 3059 1150 
Q 3059 1047 3028 987 
Q 2997 928 2941 928 
L 2484 928 
L 2484 78 
Q 2484 53 2471 36 
Q 2459 19 2428 6 
Q 2397 -6 2347 -12 
Q 2297 -19 2219 -19 
Q 2144 -19 2094 -12 
Q 2044 -6 2014 6 
Q 1984 19 1973 36 
Q 1963 53 1963 78 
L 1963 928 
L 294 928 
Q 256 928 231 937 
Q 206 947 186 972 
Q 166 997 158 1044 
Q 150 1091 150 1166 
Q 150 1225 153 1272 
Q 156 1319 165 1358 
Q 175 1397 190 1433 
Q 206 1469 228 1509 
L 1684 3966 
Q 1700 3991 1729 4009 
Q 1759 4028 1806 4040 
Q 1853 4053 1922 4058 
Q 1991 4063 2084 4063 
Q 2188 4063 2264 4055 
Q 2341 4047 2387 4034 
Q 2434 4022 2459 4001 
Q 2484 3981 2484 3953 
L 2484 1372 
L 2941 1372 
Q 2994 1372 3026 1317 
Q 3059 1263 3059 1150 
z
M 1963 3591 
L 1956 3591 
L 641 1372 
L 1963 1372 
L 1963 3591 
z
" transform="scale(0.015625)"/>
       </defs>
       <use xlink:href="#Calibri-30"/>
       <use xlink:href="#Calibri-2e" x="50.683594"/>
       <use xlink:href="#Calibri-34" x="75.927734"/>
      </g>
     </g>
    </g>
    <g id="xtick_6">
     <g id="line2d_6">
      <g>
       <use xlink:href="#m9260714ac2" x="200.448" y="307.584" style="stroke: #000000; stroke-width: 0.8"/>
      </g>
     </g>
     <g id="text_6">
      <!-- 0.5 -->
      <g transform="translate(194.11675 321.385562) scale(0.1 -0.1)">
       <defs>
        <path id="Calibri-35" d="M 2869 1300 
Q 2869 975 2759 722 
Q 2650 469 2450 295 
Q 2250 122 1973 31 
Q 1697 -59 1359 -59 
Q 1172 -59 1003 -32 
Q 834 -6 703 33 
Q 572 72 487 109 
Q 403 147 379 169 
Q 356 191 347 209 
Q 338 228 330 254 
Q 322 281 319 322 
Q 316 363 316 419 
Q 316 472 320 514 
Q 325 556 337 582 
Q 350 609 367 621 
Q 384 634 406 634 
Q 438 634 503 595 
Q 569 556 680 511 
Q 791 466 955 425 
Q 1119 384 1344 384 
Q 1553 384 1728 434 
Q 1903 484 2029 590 
Q 2156 697 2228 858 
Q 2300 1019 2300 1250 
Q 2300 1444 2239 1592 
Q 2178 1741 2051 1839 
Q 1925 1938 1731 1986 
Q 1538 2034 1269 2034 
Q 1078 2034 940 2015 
Q 803 1997 684 1997 
Q 597 1997 559 2037 
Q 522 2078 522 2194 
L 522 3841 
Q 522 3944 570 3994 
Q 619 4044 709 4044 
L 2500 4044 
Q 2525 4044 2548 4030 
Q 2572 4016 2587 3987 
Q 2603 3959 2611 3915 
Q 2619 3872 2619 3813 
Q 2619 3700 2587 3637 
Q 2556 3575 2500 3575 
L 991 3575 
L 991 2441 
Q 1100 2456 1214 2459 
Q 1328 2463 1478 2463 
Q 1825 2463 2084 2380 
Q 2344 2297 2517 2145 
Q 2691 1994 2780 1778 
Q 2869 1563 2869 1300 
z
" transform="scale(0.015625)"/>
       </defs>
       <use xlink:href="#Calibri-30"/>
       <use xlink:href="#Calibri-2e" x="50.683594"/>
       <use xlink:href="#Calibri-35" x="75.927734"/>
      </g>
     </g>
    </g>
    <g id="xtick_7">
     <g id="line2d_7">
      <g>
       <use xlink:href="#m9260714ac2" x="229.0176" y="307.584" style="stroke: #000000; stroke-width: 0.8"/>
      </g>
     </g>
     <g id="text_7">
      <!-- 0.6 -->
      <g transform="translate(222.68635 321.385562) scale(0.1 -0.1)">
       <defs>
        <path id="Calibri-36" d="M 2991 1309 
Q 2991 1044 2909 795 
Q 2828 547 2659 358 
Q 2491 169 2231 55 
Q 1972 -59 1619 -59 
Q 1366 -59 1172 3 
Q 978 66 834 181 
Q 691 297 595 465 
Q 500 634 442 850 
Q 384 1066 359 1322 
Q 334 1578 334 1872 
Q 334 2131 362 2397 
Q 391 2663 462 2909 
Q 534 3156 657 3373 
Q 781 3591 967 3752 
Q 1153 3913 1412 4006 
Q 1672 4100 2016 4100 
Q 2131 4100 2250 4086 
Q 2369 4072 2469 4048 
Q 2569 4025 2637 3997 
Q 2706 3969 2728 3951 
Q 2750 3934 2761 3914 
Q 2772 3894 2778 3870 
Q 2784 3847 2787 3817 
Q 2791 3788 2791 3744 
Q 2791 3688 2789 3647 
Q 2788 3606 2777 3581 
Q 2766 3556 2748 3543 
Q 2731 3531 2703 3531 
Q 2669 3531 2609 3553 
Q 2550 3575 2465 3601 
Q 2381 3628 2261 3650 
Q 2141 3672 1981 3672 
Q 1691 3672 1481 3553 
Q 1272 3434 1139 3234 
Q 1006 3034 942 2770 
Q 878 2506 869 2219 
Q 950 2266 1051 2312 
Q 1153 2359 1273 2396 
Q 1394 2434 1528 2457 
Q 1663 2481 1816 2481 
Q 2144 2481 2369 2392 
Q 2594 2303 2733 2145 
Q 2872 1988 2931 1773 
Q 2991 1559 2991 1309 
z
M 2447 1259 
Q 2447 1441 2411 1589 
Q 2375 1738 2290 1841 
Q 2206 1944 2065 2000 
Q 1925 2056 1719 2056 
Q 1603 2056 1487 2036 
Q 1372 2016 1264 1980 
Q 1156 1944 1057 1895 
Q 959 1847 878 1791 
Q 878 1388 929 1116 
Q 981 844 1079 680 
Q 1178 516 1325 445 
Q 1472 375 1669 375 
Q 1869 375 2016 450 
Q 2163 525 2259 651 
Q 2356 778 2401 936 
Q 2447 1094 2447 1259 
z
" transform="scale(0.015625)"/>
       </defs>
       <use xlink:href="#Calibri-30"/>
       <use xlink:href="#Calibri-2e" x="50.683594"/>
       <use xlink:href="#Calibri-36" x="75.927734"/>
      </g>
     </g>
    </g>
    <g id="xtick_8">
     <g id="line2d_8">
      <g>
       <use xlink:href="#m9260714ac2" x="257.5872" y="307.584" style="stroke: #000000; stroke-width: 0.8"/>
      </g>
     </g>
     <g id="text_8">
      <!-- 0.7 -->
      <g transform="translate(251.25595 321.385562) scale(0.1 -0.1)">
       <defs>
        <path id="Calibri-37" d="M 2947 3813 
Q 2947 3756 2942 3711 
Q 2938 3666 2930 3623 
Q 2922 3581 2908 3542 
Q 2894 3503 2875 3459 
L 1419 103 
Q 1403 66 1379 42 
Q 1356 19 1320 5 
Q 1284 -9 1228 -14 
Q 1172 -19 1091 -19 
Q 984 -19 925 -9 
Q 866 0 839 20 
Q 813 41 816 70 
Q 819 100 838 141 
L 2369 3572 
L 428 3572 
Q 369 3572 339 3634 
Q 309 3697 309 3809 
Q 309 3869 317 3912 
Q 325 3956 340 3986 
Q 356 4016 378 4030 
Q 400 4044 428 4044 
L 2784 4044 
Q 2828 4044 2861 4034 
Q 2894 4025 2911 3997 
Q 2928 3969 2937 3925 
Q 2947 3881 2947 3813 
z
" transform="scale(0.015625)"/>
       </defs>
       <use xlink:href="#Calibri-30"/>
       <use xlink:href="#Calibri-2e" x="50.683594"/>
       <use xlink:href="#Calibri-37" x="75.927734"/>
      </g>
     </g>
    </g>
    <g id="xtick_9">
     <g id="line2d_9">
      <g>
       <use xlink:href="#m9260714ac2" x="286.1568" y="307.584" style="stroke: #000000; stroke-width: 0.8"/>
      </g>
     </g>
     <g id="text_9">
      <!-- 0.8 -->
      <g transform="translate(279.82555 321.385562) scale(0.1 -0.1)">
       <defs>
        <path id="Calibri-38" d="M 2981 1038 
Q 2981 775 2887 570 
Q 2794 366 2617 225 
Q 2441 84 2181 12 
Q 1922 -59 1588 -59 
Q 1275 -59 1028 6 
Q 781 72 609 200 
Q 438 328 347 515 
Q 256 703 256 944 
Q 256 1134 318 1293 
Q 381 1453 498 1587 
Q 616 1722 787 1839 
Q 959 1956 1175 2063 
Q 988 2159 844 2267 
Q 700 2375 600 2501 
Q 500 2628 448 2772 
Q 397 2916 397 3084 
Q 397 3297 473 3483 
Q 550 3669 704 3806 
Q 859 3944 1098 4023 
Q 1338 4103 1656 4103 
Q 1963 4103 2186 4029 
Q 2409 3956 2554 3829 
Q 2700 3703 2769 3531 
Q 2838 3359 2838 3163 
Q 2838 3003 2786 2856 
Q 2734 2709 2634 2578 
Q 2534 2447 2389 2333 
Q 2244 2219 2056 2119 
Q 2278 2009 2451 1893 
Q 2625 1778 2742 1645 
Q 2859 1513 2920 1364 
Q 2981 1216 2981 1038 
z
M 2306 3113 
Q 2306 3244 2261 3350 
Q 2216 3456 2128 3531 
Q 2041 3606 1911 3645 
Q 1781 3684 1616 3684 
Q 1278 3684 1104 3531 
Q 931 3378 931 3113 
Q 931 2991 973 2886 
Q 1016 2781 1105 2687 
Q 1194 2594 1330 2505 
Q 1466 2416 1653 2319 
Q 1969 2481 2137 2678 
Q 2306 2875 2306 3113 
z
M 2438 981 
Q 2438 1125 2384 1242 
Q 2331 1359 2223 1461 
Q 2116 1563 1955 1658 
Q 1794 1753 1581 1856 
Q 1384 1759 1236 1662 
Q 1088 1566 992 1462 
Q 897 1359 848 1245 
Q 800 1131 800 994 
Q 800 691 1008 525 
Q 1216 359 1628 359 
Q 2028 359 2233 526 
Q 2438 694 2438 981 
z
" transform="scale(0.015625)"/>
       </defs>
       <use xlink:href="#Calibri-30"/>
       <use xlink:href="#Calibri-2e" x="50.683594"/>
       <use xlink:href="#Calibri-38" x="75.927734"/>
      </g>
     </g>
    </g>
    <g id="xtick_10">
     <g id="line2d_10">
      <g>
       <use xlink:href="#m9260714ac2" x="314.7264" y="307.584" style="stroke: #000000; stroke-width: 0.8"/>
      </g>
     </g>
     <g id="text_10">
      <!-- 0.9 -->
      <g transform="translate(308.39515 321.385562) scale(0.1 -0.1)">
       <defs>
        <path id="Calibri-39" d="M 2919 2181 
Q 2919 1919 2887 1650 
Q 2856 1381 2781 1132 
Q 2706 884 2579 667 
Q 2453 450 2261 287 
Q 2069 125 1805 33 
Q 1541 -59 1191 -59 
Q 1056 -59 929 -42 
Q 803 -25 701 0 
Q 600 25 531 53 
Q 463 81 431 109 
Q 400 138 386 186 
Q 372 234 372 316 
Q 372 384 376 425 
Q 381 466 390 487 
Q 400 509 417 517 
Q 434 525 459 525 
Q 494 525 556 501 
Q 619 478 714 450 
Q 809 422 937 398 
Q 1066 375 1225 375 
Q 1528 375 1745 492 
Q 1963 609 2100 806 
Q 2238 1003 2306 1262 
Q 2375 1522 2381 1809 
Q 2216 1713 1984 1638 
Q 1753 1563 1453 1563 
Q 1116 1563 886 1655 
Q 656 1747 517 1906 
Q 378 2066 317 2284 
Q 256 2503 256 2763 
Q 256 3031 334 3273 
Q 413 3516 578 3700 
Q 744 3884 1000 3993 
Q 1256 4103 1613 4103 
Q 1866 4103 2061 4039 
Q 2256 3975 2400 3854 
Q 2544 3734 2644 3564 
Q 2744 3394 2805 3178 
Q 2866 2963 2892 2711 
Q 2919 2459 2919 2181 
z
M 2372 2241 
Q 2372 2641 2319 2914 
Q 2266 3188 2162 3356 
Q 2059 3525 1909 3600 
Q 1759 3675 1563 3675 
Q 1359 3675 1215 3601 
Q 1072 3528 980 3404 
Q 888 3281 844 3125 
Q 800 2969 800 2803 
Q 800 2619 839 2466 
Q 878 2313 965 2206 
Q 1053 2100 1193 2042 
Q 1334 1984 1541 1984 
Q 1775 1984 1994 2054 
Q 2213 2125 2372 2241 
z
" transform="scale(0.015625)"/>
       </defs>
       <use xlink:href="#Calibri-30"/>
       <use xlink:href="#Calibri-2e" x="50.683594"/>
       <use xlink:href="#Calibri-39" x="75.927734"/>
      </g>
     </g>
    </g>
    <g id="xtick_11">
     <g id="line2d_11">
      <g>
       <use xlink:href="#m9260714ac2" x="343.296" y="307.584" style="stroke: #000000; stroke-width: 0.8"/>
      </g>
     </g>
     <g id="text_11">
      <!-- 1.0 -->
      <g transform="translate(336.96475 321.385562) scale(0.1 -0.1)">
       <use xlink:href="#Calibri-31"/>
       <use xlink:href="#Calibri-2e" x="50.683594"/>
       <use xlink:href="#Calibri-30" x="75.927734"/>
      </g>
     </g>
    </g>
    <g id="text_12">
     <!-- $\mathit{p}$ (cm$^2$/cm$^2$) -->
     <g transform="translate(174.148 336.263687) scale(0.1 -0.1)">
      <defs>
       <path id="DejaVuSans-Oblique-70" d="M 3175 2156 
Q 3175 2616 2975 2859 
Q 2775 3103 2400 3103 
Q 2144 3103 1911 2972 
Q 1678 2841 1497 2591 
Q 1319 2344 1212 1994 
Q 1106 1644 1106 1300 
Q 1106 863 1306 627 
Q 1506 391 1875 391 
Q 2147 391 2380 519 
Q 2613 647 2778 891 
Q 2956 1147 3065 1494 
Q 3175 1841 3175 2156 
z
M 1394 2969 
Q 1625 3272 1939 3428 
Q 2253 3584 2638 3584 
Q 3175 3584 3472 3232 
Q 3769 2881 3769 2247 
Q 3769 1728 3584 1258 
Q 3400 788 3053 416 
Q 2822 169 2531 39 
Q 2241 -91 1919 -91 
Q 1547 -91 1294 64 
Q 1041 219 916 525 
L 556 -1331 
L -19 -1331 
L 922 3500 
L 1497 3500 
L 1394 2969 
z
" transform="scale(0.015625)"/>
       <path id="Calibri-20" transform="scale(0.015625)"/>
       <path id="Calibri-28" d="M 1547 4306 
Q 1250 3678 1104 3017 
Q 959 2356 959 1688 
Q 959 1016 1107 356 
Q 1256 -303 1541 -938 
Q 1556 -975 1557 -1001 
Q 1559 -1028 1537 -1045 
Q 1516 -1063 1470 -1070 
Q 1425 -1078 1347 -1078 
Q 1291 -1078 1250 -1075 
Q 1209 -1072 1179 -1062 
Q 1150 -1053 1131 -1040 
Q 1113 -1028 1103 -1013 
Q 934 -694 806 -367 
Q 678 -41 590 296 
Q 503 634 459 979 
Q 416 1325 416 1678 
Q 416 2031 464 2375 
Q 513 2719 602 3058 
Q 691 3397 819 3725 
Q 947 4053 1106 4375 
Q 1109 4388 1123 4397 
Q 1138 4406 1163 4415 
Q 1188 4425 1231 4429 
Q 1275 4434 1344 4434 
Q 1416 4434 1459 4425 
Q 1503 4416 1528 4400 
Q 1553 4384 1556 4359 
Q 1559 4334 1547 4306 
z
" transform="scale(0.015625)"/>
       <path id="Calibri-63" d="M 2500 506 
Q 2500 453 2497 414 
Q 2494 375 2486 348 
Q 2478 322 2467 301 
Q 2456 281 2417 242 
Q 2378 203 2284 145 
Q 2191 88 2073 42 
Q 1956 -3 1818 -31 
Q 1681 -59 1534 -59 
Q 1231 -59 997 41 
Q 763 141 605 333 
Q 447 525 364 804 
Q 281 1084 281 1450 
Q 281 1866 382 2164 
Q 484 2463 661 2653 
Q 838 2844 1077 2936 
Q 1316 3028 1594 3028 
Q 1728 3028 1854 3003 
Q 1981 2978 2087 2937 
Q 2194 2897 2276 2844 
Q 2359 2791 2396 2753 
Q 2434 2716 2448 2694 
Q 2463 2672 2472 2642 
Q 2481 2613 2484 2575 
Q 2488 2538 2488 2481 
Q 2488 2359 2459 2311 
Q 2431 2263 2391 2263 
Q 2344 2263 2283 2314 
Q 2222 2366 2128 2428 
Q 2034 2491 1901 2542 
Q 1769 2594 1588 2594 
Q 1216 2594 1017 2308 
Q 819 2022 819 1478 
Q 819 1206 870 1001 
Q 922 797 1022 659 
Q 1122 522 1267 455 
Q 1413 388 1600 388 
Q 1778 388 1912 444 
Q 2047 500 2145 567 
Q 2244 634 2311 689 
Q 2378 744 2416 744 
Q 2438 744 2453 731 
Q 2469 719 2480 689 
Q 2491 659 2495 614 
Q 2500 569 2500 506 
z
" transform="scale(0.015625)"/>
       <path id="Calibri-6d" d="M 4650 78 
Q 4650 53 4637 36 
Q 4625 19 4597 6 
Q 4569 -6 4519 -12 
Q 4469 -19 4394 -19 
Q 4316 -19 4266 -12 
Q 4216 -6 4186 6 
Q 4156 19 4143 36 
Q 4131 53 4131 78 
L 4131 1788 
Q 4131 1966 4100 2112 
Q 4069 2259 4000 2365 
Q 3931 2472 3825 2528 
Q 3719 2584 3575 2584 
Q 3397 2584 3217 2446 
Q 3038 2309 2822 2044 
L 2822 78 
Q 2822 53 2809 36 
Q 2797 19 2767 6 
Q 2738 -6 2688 -12 
Q 2638 -19 2563 -19 
Q 2491 -19 2439 -12 
Q 2388 -6 2358 6 
Q 2328 19 2317 36 
Q 2306 53 2306 78 
L 2306 1788 
Q 2306 1966 2272 2112 
Q 2238 2259 2169 2365 
Q 2100 2472 1995 2528 
Q 1891 2584 1747 2584 
Q 1569 2584 1387 2446 
Q 1206 2309 994 2044 
L 994 78 
Q 994 53 981 36 
Q 969 19 941 6 
Q 913 -6 863 -12 
Q 813 -19 734 -19 
Q 659 -19 609 -12 
Q 559 -6 529 6 
Q 500 19 489 36 
Q 478 53 478 78 
L 478 2891 
Q 478 2916 487 2933 
Q 497 2950 525 2964 
Q 553 2978 597 2983 
Q 641 2988 713 2988 
Q 781 2988 826 2983 
Q 872 2978 897 2964 
Q 922 2950 933 2933 
Q 944 2916 944 2891 
L 944 2519 
Q 1181 2784 1404 2907 
Q 1628 3031 1856 3031 
Q 2031 3031 2170 2990 
Q 2309 2950 2415 2876 
Q 2522 2803 2597 2701 
Q 2672 2600 2722 2475 
Q 2863 2628 2989 2734 
Q 3116 2841 3233 2906 
Q 3350 2972 3461 3001 
Q 3572 3031 3684 3031 
Q 3956 3031 4140 2936 
Q 4325 2841 4439 2681 
Q 4553 2522 4601 2308 
Q 4650 2094 4650 1856 
L 4650 78 
z
" transform="scale(0.015625)"/>
       <path id="DejaVuSans-32" d="M 1228 531 
L 3431 531 
L 3431 0 
L 469 0 
L 469 531 
Q 828 903 1448 1529 
Q 2069 2156 2228 2338 
Q 2531 2678 2651 2914 
Q 2772 3150 2772 3378 
Q 2772 3750 2511 3984 
Q 2250 4219 1831 4219 
Q 1534 4219 1204 4116 
Q 875 4013 500 3803 
L 500 4441 
Q 881 4594 1212 4672 
Q 1544 4750 1819 4750 
Q 2544 4750 2975 4387 
Q 3406 4025 3406 3419 
Q 3406 3131 3298 2873 
Q 3191 2616 2906 2266 
Q 2828 2175 2409 1742 
Q 1991 1309 1228 531 
z
" transform="scale(0.015625)"/>
       <path id="Calibri-2f" d="M 525 -753 
Q 513 -794 492 -817 
Q 472 -841 440 -853 
Q 409 -866 364 -872 
Q 319 -878 253 -878 
Q 175 -878 123 -867 
Q 72 -856 44 -836 
Q 16 -816 9 -786 
Q 3 -756 22 -716 
L 1913 4469 
Q 1925 4509 1945 4532 
Q 1966 4556 1995 4570 
Q 2025 4584 2072 4589 
Q 2119 4594 2184 4594 
Q 2263 4594 2313 4583 
Q 2363 4572 2391 4553 
Q 2419 4534 2425 4503 
Q 2431 4472 2416 4431 
L 525 -753 
z
" transform="scale(0.015625)"/>
       <path id="Calibri-29" d="M 1522 1678 
Q 1522 1325 1478 979 
Q 1434 634 1346 296 
Q 1259 -41 1132 -367 
Q 1006 -694 838 -1013 
Q 828 -1028 809 -1040 
Q 791 -1053 761 -1062 
Q 731 -1072 690 -1075 
Q 650 -1078 594 -1078 
Q 513 -1078 467 -1070 
Q 422 -1063 401 -1045 
Q 381 -1028 382 -1001 
Q 384 -975 400 -938 
Q 688 -306 834 355 
Q 981 1016 981 1688 
Q 981 2356 834 3017 
Q 688 3678 394 4306 
Q 381 4334 384 4359 
Q 388 4384 413 4400 
Q 438 4416 481 4425 
Q 525 4434 597 4434 
Q 663 4434 706 4429 
Q 750 4425 776 4415 
Q 803 4406 815 4397 
Q 828 4388 834 4375 
Q 1156 3734 1339 3057 
Q 1522 2381 1522 1678 
z
" transform="scale(0.015625)"/>
      </defs>
      <use xlink:href="#DejaVuSans-Oblique-70" transform="translate(0 0.765625)"/>
      <use xlink:href="#Calibri-20" transform="translate(63.476562 0.765625)"/>
      <use xlink:href="#Calibri-28" transform="translate(84.958984 0.765625)"/>
      <use xlink:href="#Calibri-63" transform="translate(115.28125 0.765625)"/>
      <use xlink:href="#Calibri-6d" transform="translate(157.566406 0.765625)"/>
      <use xlink:href="#DejaVuSans-32" transform="translate(238.40625 39.046875) scale(0.7)"/>
      <use xlink:href="#Calibri-2f" transform="translate(285.676758 0.765625)"/>
      <use xlink:href="#Calibri-63" transform="translate(324.299805 0.765625)"/>
      <use xlink:href="#Calibri-6d" transform="translate(366.584961 0.765625)"/>
      <use xlink:href="#DejaVuSans-32" transform="translate(447.424805 39.046875) scale(0.7)"/>
      <use xlink:href="#Calibri-29" transform="translate(494.695312 0.765625)"/>
     </g>
    </g>
   </g>
   <g id="matplotlib.axis_2">
    <g id="ytick_1">
     <g id="line2d_12">
      <defs>
       <path id="m2b1cb53701" d="M 0 0 
L -3.5 0 
" style="stroke: #000000; stroke-width: 0.8"/>
      </defs>
      <g>
       <use xlink:href="#m2b1cb53701" x="57.6" y="275.65056" style="stroke: #000000; stroke-width: 0.8"/>
      </g>
     </g>
     <g id="text_13">
      <!-- 25 -->
      <g transform="translate(40.4625 279.051341) scale(0.1 -0.1)">
       <use xlink:href="#Calibri-32"/>
       <use xlink:href="#Calibri-35" x="50.683594"/>
      </g>
     </g>
    </g>
    <g id="ytick_2">
     <g id="line2d_13">
      <g>
       <use xlink:href="#m2b1cb53701" x="57.6" y="242.38656" style="stroke: #000000; stroke-width: 0.8"/>
      </g>
     </g>
     <g id="text_14">
      <!-- 50 -->
      <g transform="translate(40.4625 245.787341) scale(0.1 -0.1)">
       <use xlink:href="#Calibri-35"/>
       <use xlink:href="#Calibri-30" x="50.683594"/>
      </g>
     </g>
    </g>
    <g id="ytick_3">
     <g id="line2d_14">
      <g>
       <use xlink:href="#m2b1cb53701" x="57.6" y="209.12256" style="stroke: #000000; stroke-width: 0.8"/>
      </g>
     </g>
     <g id="text_15">
      <!-- 75 -->
      <g transform="translate(40.4625 212.523341) scale(0.1 -0.1)">
       <use xlink:href="#Calibri-37"/>
       <use xlink:href="#Calibri-35" x="50.683594"/>
      </g>
     </g>
    </g>
    <g id="ytick_4">
     <g id="line2d_15">
      <g>
       <use xlink:href="#m2b1cb53701" x="57.6" y="175.85856" style="stroke: #000000; stroke-width: 0.8"/>
      </g>
     </g>
     <g id="text_16">
      <!-- 100 -->
      <g transform="translate(35.39375 179.259341) scale(0.1 -0.1)">
       <use xlink:href="#Calibri-31"/>
       <use xlink:href="#Calibri-30" x="50.683594"/>
       <use xlink:href="#Calibri-30" x="101.367188"/>
      </g>
     </g>
    </g>
    <g id="ytick_5">
     <g id="line2d_16">
      <g>
       <use xlink:href="#m2b1cb53701" x="57.6" y="142.59456" style="stroke: #000000; stroke-width: 0.8"/>
      </g>
     </g>
     <g id="text_17">
      <!-- 125 -->
      <g transform="translate(35.39375 145.995341) scale(0.1 -0.1)">
       <use xlink:href="#Calibri-31"/>
       <use xlink:href="#Calibri-32" x="50.683594"/>
       <use xlink:href="#Calibri-35" x="101.367188"/>
      </g>
     </g>
    </g>
    <g id="ytick_6">
     <g id="line2d_17">
      <g>
       <use xlink:href="#m2b1cb53701" x="57.6" y="109.33056" style="stroke: #000000; stroke-width: 0.8"/>
      </g>
     </g>
     <g id="text_18">
      <!-- 150 -->
      <g transform="translate(35.39375 112.731341) scale(0.1 -0.1)">
       <use xlink:href="#Calibri-31"/>
       <use xlink:href="#Calibri-35" x="50.683594"/>
       <use xlink:href="#Calibri-30" x="101.367188"/>
      </g>
     </g>
    </g>
    <g id="ytick_7">
     <g id="line2d_18">
      <g>
       <use xlink:href="#m2b1cb53701" x="57.6" y="76.06656" style="stroke: #000000; stroke-width: 0.8"/>
      </g>
     </g>
     <g id="text_19">
      <!-- 175 -->
      <g transform="translate(35.39375 79.467341) scale(0.1 -0.1)">
       <use xlink:href="#Calibri-31"/>
       <use xlink:href="#Calibri-37" x="50.683594"/>
       <use xlink:href="#Calibri-35" x="101.367188"/>
      </g>
     </g>
    </g>
    <g id="ytick_8">
     <g id="line2d_19">
      <g>
       <use xlink:href="#m2b1cb53701" x="57.6" y="42.80256" style="stroke: #000000; stroke-width: 0.8"/>
      </g>
     </g>
     <g id="text_20">
      <!-- 200 -->
      <g transform="translate(35.39375 46.203341) scale(0.1 -0.1)">
       <use xlink:href="#Calibri-32"/>
       <use xlink:href="#Calibri-30" x="50.683594"/>
       <use xlink:href="#Calibri-30" x="101.367188"/>
      </g>
     </g>
    </g>
    <g id="text_21">
     <!-- $\mathit{Z}$$_{a}$ (nm) -->
     <g transform="translate(29.59375 191.028) rotate(-90) scale(0.1 -0.1)">
      <defs>
       <path id="DejaVuSans-Oblique-5a" d="M 838 4666 
L 4500 4666 
L 4409 4184 
L 794 531 
L 3769 531 
L 3669 0 
L -141 0 
L -50 481 
L 3566 4134 
L 738 4134 
L 838 4666 
z
" transform="scale(0.015625)"/>
       <path id="DejaVuSans-Oblique-61" d="M 3438 1997 
L 3047 0 
L 2472 0 
L 2578 531 
Q 2325 219 2001 64 
Q 1678 -91 1281 -91 
Q 834 -91 548 182 
Q 263 456 263 884 
Q 263 1497 752 1853 
Q 1241 2209 2100 2209 
L 2900 2209 
L 2931 2363 
Q 2938 2388 2941 2417 
Q 2944 2447 2944 2509 
Q 2944 2788 2717 2942 
Q 2491 3097 2081 3097 
Q 1800 3097 1504 3025 
Q 1209 2953 897 2809 
L 997 3341 
Q 1322 3463 1633 3523 
Q 1944 3584 2234 3584 
Q 2853 3584 3176 3315 
Q 3500 3047 3500 2534 
Q 3500 2431 3484 2292 
Q 3469 2153 3438 1997 
z
M 2816 1759 
L 2241 1759 
Q 1534 1759 1195 1570 
Q 856 1381 856 984 
Q 856 709 1029 553 
Q 1203 397 1509 397 
Q 1978 397 2328 733 
Q 2678 1069 2791 1631 
L 2816 1759 
z
" transform="scale(0.015625)"/>
       <path id="Calibri-6e" d="M 2900 78 
Q 2900 53 2887 36 
Q 2875 19 2847 6 
Q 2819 -6 2769 -12 
Q 2719 -19 2644 -19 
Q 2566 -19 2516 -12 
Q 2466 -6 2437 6 
Q 2409 19 2396 36 
Q 2384 53 2384 78 
L 2384 1725 
Q 2384 1966 2346 2112 
Q 2309 2259 2237 2365 
Q 2166 2472 2052 2528 
Q 1938 2584 1788 2584 
Q 1594 2584 1400 2446 
Q 1206 2309 994 2044 
L 994 78 
Q 994 53 981 36 
Q 969 19 941 6 
Q 913 -6 863 -12 
Q 813 -19 734 -19 
Q 659 -19 609 -12 
Q 559 -6 529 6 
Q 500 19 489 36 
Q 478 53 478 78 
L 478 2891 
Q 478 2916 487 2933 
Q 497 2950 525 2964 
Q 553 2978 597 2983 
Q 641 2988 713 2988 
Q 781 2988 826 2983 
Q 872 2978 897 2964 
Q 922 2950 933 2933 
Q 944 2916 944 2891 
L 944 2519 
Q 1181 2784 1417 2907 
Q 1653 3031 1894 3031 
Q 2175 3031 2367 2936 
Q 2559 2841 2678 2681 
Q 2797 2522 2848 2308 
Q 2900 2094 2900 1794 
L 2900 78 
z
" transform="scale(0.015625)"/>
      </defs>
      <use xlink:href="#DejaVuSans-Oblique-5a" transform="translate(0 0.09375)"/>
      <use xlink:href="#DejaVuSans-Oblique-61" transform="translate(69.462891 -16.3125) scale(0.7)"/>
      <use xlink:href="#Calibri-20" transform="translate(115.092773 0.09375)"/>
      <use xlink:href="#Calibri-28" transform="translate(136.575195 0.09375)"/>
      <use xlink:href="#Calibri-6e" transform="translate(166.897461 0.09375)"/>
      <use xlink:href="#Calibri-6d" transform="translate(219.436523 0.09375)"/>
      <use xlink:href="#Calibri-29" transform="translate(299.319336 0.09375)"/>
     </g>
    </g>
   </g>
   <g id="patch_3">
    <path d="M 57.6 307.584 
L 57.6 41.472 
" style="fill: none; stroke: #000000; stroke-width: 0.8; stroke-linejoin: miter; stroke-linecap: square"/>
   </g>
   <g id="patch_4">
    <path d="M 343.296 307.584 
L 343.296 41.472 
" style="fill: none; stroke: #000000; stroke-width: 0.8; stroke-linejoin: miter; stroke-linecap: square"/>
   </g>
   <g id="patch_5">
    <path d="M 57.6 307.584 
L 343.296 307.584 
" style="fill: none; stroke: #000000; stroke-width: 0.8; stroke-linejoin: miter; stroke-linecap: square"/>
   </g>
   <g id="patch_6">
    <path d="M 57.6 41.472 
L 343.296 41.472 
" style="fill: none; stroke: #000000; stroke-width: 0.8; stroke-linejoin: miter; stroke-linecap: square"/>
   </g>
   <g id="text_22">
    <!-- $\theta_m$ = 28 -->
    <g transform="translate(182.298 35.472) scale(0.1 -0.1)">
     <defs>
      <path id="DejaVuSans-Oblique-3b8" d="M 2913 2219 
L 925 2219 
Q 791 1284 928 888 
Q 1100 400 1566 400 
Q 2034 400 2391 891 
Q 2703 1322 2913 2219 
z
M 3009 2750 
Q 3094 3638 2984 3950 
Q 2813 4444 2353 4444 
Q 1875 4444 1525 3956 
Q 1250 3563 1034 2750 
L 3009 2750 
z
M 2444 4913 
Q 3194 4913 3494 4250 
Q 3794 3591 3566 2422 
Q 3341 1256 2781 594 
Q 2225 -72 1475 -72 
Q 722 -72 425 594 
Q 128 1256 353 2422 
Q 581 3591 1134 4250 
Q 1691 4913 2444 4913 
z
" transform="scale(0.015625)"/>
      <path id="DejaVuSans-Oblique-6d" d="M 5747 2113 
L 5338 0 
L 4763 0 
L 5166 2094 
Q 5191 2228 5203 2325 
Q 5216 2422 5216 2491 
Q 5216 2772 5059 2928 
Q 4903 3084 4622 3084 
Q 4203 3084 3875 2770 
Q 3547 2456 3450 1953 
L 3066 0 
L 2491 0 
L 2900 2094 
Q 2925 2209 2937 2307 
Q 2950 2406 2950 2484 
Q 2950 2769 2794 2926 
Q 2638 3084 2363 3084 
Q 1938 3084 1609 2770 
Q 1281 2456 1184 1953 
L 800 0 
L 225 0 
L 909 3500 
L 1484 3500 
L 1375 2956 
Q 1609 3263 1923 3423 
Q 2238 3584 2597 3584 
Q 2978 3584 3223 3384 
Q 3469 3184 3519 2828 
Q 3781 3197 4126 3390 
Q 4472 3584 4856 3584 
Q 5306 3584 5551 3325 
Q 5797 3066 5797 2591 
Q 5797 2488 5784 2364 
Q 5772 2241 5747 2113 
z
" transform="scale(0.015625)"/>
      <path id="Calibri-3d" d="M 2891 2409 
Q 2891 2284 2855 2236 
Q 2819 2188 2772 2188 
L 409 2188 
Q 363 2188 328 2236 
Q 294 2284 294 2409 
Q 294 2522 325 2575 
Q 356 2628 409 2628 
L 2772 2628 
Q 2828 2628 2859 2575 
Q 2891 2522 2891 2409 
z
M 2891 1194 
Q 2891 1069 2855 1022 
Q 2819 975 2772 975 
L 409 975 
Q 363 975 328 1022 
Q 294 1069 294 1194 
Q 294 1309 325 1362 
Q 356 1416 409 1416 
L 2772 1416 
Q 2828 1416 2859 1362 
Q 2891 1309 2891 1194 
z
" transform="scale(0.015625)"/>
      <path id="Calibri-b0" d="M 1847 3541 
Q 1847 3388 1789 3253 
Q 1731 3119 1626 3017 
Q 1522 2916 1380 2859 
Q 1238 2803 1072 2803 
Q 906 2803 770 2854 
Q 634 2906 534 3000 
Q 434 3094 378 3225 
Q 322 3356 322 3516 
Q 322 3675 381 3811 
Q 441 3947 545 4044 
Q 650 4141 790 4197 
Q 931 4253 1097 4253 
Q 1259 4253 1396 4200 
Q 1534 4147 1634 4055 
Q 1734 3963 1790 3831 
Q 1847 3700 1847 3541 
z
M 1453 3528 
Q 1453 3613 1425 3686 
Q 1397 3759 1347 3812 
Q 1297 3866 1228 3895 
Q 1159 3925 1078 3925 
Q 1000 3925 933 3895 
Q 866 3866 816 3812 
Q 766 3759 737 3687 
Q 709 3616 709 3534 
Q 709 3444 737 3369 
Q 766 3294 817 3241 
Q 869 3188 939 3158 
Q 1009 3128 1091 3128 
Q 1166 3128 1233 3159 
Q 1300 3191 1348 3245 
Q 1397 3300 1425 3372 
Q 1453 3444 1453 3528 
z
M 0 4044 
L 0 4044 
z
" transform="scale(0.015625)"/>
     </defs>
     <use xlink:href="#DejaVuSans-Oblique-3b8" transform="translate(0 0.234375)"/>
     <use xlink:href="#DejaVuSans-Oblique-6d" transform="translate(61.181641 -16.171875) scale(0.7)"/>
     <use xlink:href="#Calibri-20" transform="translate(132.104492 0.234375)"/>
     <use xlink:href="#Calibri-3d" transform="translate(154.711914 0.234375)"/>
     <use xlink:href="#Calibri-20" transform="translate(204.516602 0.234375)"/>
     <use xlink:href="#Calibri-32" transform="translate(227.124023 0.234375)"/>
     <use xlink:href="#Calibri-38" transform="translate(277.807617 0.234375)"/>
     <use xlink:href="#Calibri-b0" transform="translate(328.491211 0.234375)"/>
    </g>
   </g>
  </g>
  <g id="axes_2">
   <g id="patch_7">
    <path d="M 361.152 307.584 
L 374.4576 307.584 
L 374.4576 41.472 
L 361.152 41.472 
z
" style="fill: #ffffff"/>
   </g>
   <g id="QuadMesh_1">
    <path d="M 361.152 307.584 
L 374.4576 307.584 
L 374.4576 280.9728 
L 361.152 280.9728 
L 361.152 307.584 
" clip-path="url(#p3833ca4e38)" style="fill: #0000b6"/>
    <path d="M 361.152 280.9728 
L 374.4576 280.9728 
L 374.4576 254.3616 
L 361.152 254.3616 
L 361.152 280.9728 
" clip-path="url(#p3833ca4e38)" style="fill: #0018ff"/>
    <path d="M 361.152 254.3616 
L 374.4576 254.3616 
L 374.4576 227.7504 
L 361.152 227.7504 
L 361.152 254.3616 
" clip-path="url(#p3833ca4e38)" style="fill: #0080ff"/>
    <path d="M 361.152 227.7504 
L 374.4576 227.7504 
L 374.4576 201.1392 
L 361.152 201.1392 
L 361.152 227.7504 
" clip-path="url(#p3833ca4e38)" style="fill: #00e4f8"/>
    <path d="M 361.152 201.1392 
L 374.4576 201.1392 
L 374.4576 174.528 
L 361.152 174.528 
L 361.152 201.1392 
" clip-path="url(#p3833ca4e38)" style="fill: #53ffa4"/>
    <path d="M 361.152 174.528 
L 374.4576 174.528 
L 374.4576 147.9168 
L 361.152 147.9168 
L 361.152 174.528 
" clip-path="url(#p3833ca4e38)" style="fill: #a4ff53"/>
    <path d="M 361.152 147.9168 
L 374.4576 147.9168 
L 374.4576 121.3056 
L 361.152 121.3056 
L 361.152 147.9168 
" clip-path="url(#p3833ca4e38)" style="fill: #f8f500"/>
    <path d="M 361.152 121.3056 
L 374.4576 121.3056 
L 374.4576 94.6944 
L 361.152 94.6944 
L 361.152 121.3056 
" clip-path="url(#p3833ca4e38)" style="fill: #ff9400"/>
    <path d="M 361.152 94.6944 
L 374.4576 94.6944 
L 374.4576 68.0832 
L 361.152 68.0832 
L 361.152 94.6944 
" clip-path="url(#p3833ca4e38)" style="fill: #ff3800"/>
    <path d="M 361.152 68.0832 
L 374.4576 68.0832 
L 374.4576 41.472 
L 361.152 41.472 
L 361.152 68.0832 
" clip-path="url(#p3833ca4e38)" style="fill: #b60000"/>
   </g>
   <g id="matplotlib.axis_3"/>
   <g id="matplotlib.axis_4">
    <g id="ytick_9">
     <g id="line2d_20">
      <defs>
       <path id="m19075a18de" d="M 0 0 
L 3.5 0 
" style="stroke: #000000; stroke-width: 0.8"/>
      </defs>
      <g>
       <use xlink:href="#m19075a18de" x="374.4576" y="307.584" style="stroke: #000000; stroke-width: 0.8"/>
      </g>
     </g>
     <g id="text_23">
      <!-- 0 -->
      <g transform="translate(381.4576 310.984781) scale(0.1 -0.1)">
       <use xlink:href="#Calibri-30"/>
      </g>
     </g>
    </g>
    <g id="ytick_10">
     <g id="line2d_21">
      <g>
       <use xlink:href="#m19075a18de" x="374.4576" y="280.9728" style="stroke: #000000; stroke-width: 0.8"/>
      </g>
     </g>
     <g id="text_24">
      <!-- 0.1 -->
      <g transform="translate(381.4576 284.373581) scale(0.1 -0.1)">
       <use xlink:href="#Calibri-30"/>
       <use xlink:href="#Calibri-2e" x="50.683594"/>
       <use xlink:href="#Calibri-31" x="75.927734"/>
      </g>
     </g>
    </g>
    <g id="ytick_11">
     <g id="line2d_22">
      <g>
       <use xlink:href="#m19075a18de" x="374.4576" y="254.3616" style="stroke: #000000; stroke-width: 0.8"/>
      </g>
     </g>
     <g id="text_25">
      <!-- 0.2 -->
      <g transform="translate(381.4576 257.762381) scale(0.1 -0.1)">
       <use xlink:href="#Calibri-30"/>
       <use xlink:href="#Calibri-2e" x="50.683594"/>
       <use xlink:href="#Calibri-32" x="75.927734"/>
      </g>
     </g>
    </g>
    <g id="ytick_12">
     <g id="line2d_23">
      <g>
       <use xlink:href="#m19075a18de" x="374.4576" y="227.7504" style="stroke: #000000; stroke-width: 0.8"/>
      </g>
     </g>
     <g id="text_26">
      <!-- 0.3 -->
      <g transform="translate(381.4576 231.151181) scale(0.1 -0.1)">
       <use xlink:href="#Calibri-30"/>
       <use xlink:href="#Calibri-2e" x="50.683594"/>
       <use xlink:href="#Calibri-33" x="75.927734"/>
      </g>
     </g>
    </g>
    <g id="ytick_13">
     <g id="line2d_24">
      <g>
       <use xlink:href="#m19075a18de" x="374.4576" y="201.1392" style="stroke: #000000; stroke-width: 0.8"/>
      </g>
     </g>
     <g id="text_27">
      <!-- 0.4 -->
      <g transform="translate(381.4576 204.539981) scale(0.1 -0.1)">
       <use xlink:href="#Calibri-30"/>
       <use xlink:href="#Calibri-2e" x="50.683594"/>
       <use xlink:href="#Calibri-34" x="75.927734"/>
      </g>
     </g>
    </g>
    <g id="ytick_14">
     <g id="line2d_25">
      <g>
       <use xlink:href="#m19075a18de" x="374.4576" y="174.528" style="stroke: #000000; stroke-width: 0.8"/>
      </g>
     </g>
     <g id="text_28">
      <!-- 0.5 -->
      <g transform="translate(381.4576 177.928781) scale(0.1 -0.1)">
       <use xlink:href="#Calibri-30"/>
       <use xlink:href="#Calibri-2e" x="50.683594"/>
       <use xlink:href="#Calibri-35" x="75.927734"/>
      </g>
     </g>
    </g>
    <g id="ytick_15">
     <g id="line2d_26">
      <g>
       <use xlink:href="#m19075a18de" x="374.4576" y="147.9168" style="stroke: #000000; stroke-width: 0.8"/>
      </g>
     </g>
     <g id="text_29">
      <!-- 0.6 -->
      <g transform="translate(381.4576 151.317581) scale(0.1 -0.1)">
       <use xlink:href="#Calibri-30"/>
       <use xlink:href="#Calibri-2e" x="50.683594"/>
       <use xlink:href="#Calibri-36" x="75.927734"/>
      </g>
     </g>
    </g>
    <g id="ytick_16">
     <g id="line2d_27">
      <g>
       <use xlink:href="#m19075a18de" x="374.4576" y="121.3056" style="stroke: #000000; stroke-width: 0.8"/>
      </g>
     </g>
     <g id="text_30">
      <!-- 0.7 -->
      <g transform="translate(381.4576 124.706381) scale(0.1 -0.1)">
       <use xlink:href="#Calibri-30"/>
       <use xlink:href="#Calibri-2e" x="50.683594"/>
       <use xlink:href="#Calibri-37" x="75.927734"/>
      </g>
     </g>
    </g>
    <g id="ytick_17">
     <g id="line2d_28">
      <g>
       <use xlink:href="#m19075a18de" x="374.4576" y="94.6944" style="stroke: #000000; stroke-width: 0.8"/>
      </g>
     </g>
     <g id="text_31">
      <!-- 0.8 -->
      <g transform="translate(381.4576 98.095181) scale(0.1 -0.1)">
       <use xlink:href="#Calibri-30"/>
       <use xlink:href="#Calibri-2e" x="50.683594"/>
       <use xlink:href="#Calibri-38" x="75.927734"/>
      </g>
     </g>
    </g>
    <g id="ytick_18">
     <g id="line2d_29">
      <g>
       <use xlink:href="#m19075a18de" x="374.4576" y="68.0832" style="stroke: #000000; stroke-width: 0.8"/>
      </g>
     </g>
     <g id="text_32">
      <!-- 0.9 -->
      <g transform="translate(381.4576 71.483981) scale(0.1 -0.1)">
       <use xlink:href="#Calibri-30"/>
       <use xlink:href="#Calibri-2e" x="50.683594"/>
       <use xlink:href="#Calibri-39" x="75.927734"/>
      </g>
     </g>
    </g>
    <g id="ytick_19">
     <g id="line2d_30">
      <g>
       <use xlink:href="#m19075a18de" x="374.4576" y="41.472" style="stroke: #000000; stroke-width: 0.8"/>
      </g>
     </g>
     <g id="text_33">
      <!-- 1.0 -->
      <g transform="translate(381.4576 44.872781) scale(0.1 -0.1)">
       <use xlink:href="#Calibri-31"/>
       <use xlink:href="#Calibri-2e" x="50.683594"/>
       <use xlink:href="#Calibri-30" x="75.927734"/>
      </g>
     </g>
    </g>
   </g>
   <g id="LineCollection_1"/>
   <g id="patch_8">
    <path d="M 361.152 307.584 
L 367.8048 307.584 
L 374.4576 307.584 
L 374.4576 41.472 
L 367.8048 41.472 
L 361.152 41.472 
L 361.152 307.584 
z
" style="fill: none; stroke: #000000; stroke-width: 0.8; stroke-linejoin: miter; stroke-linecap: square"/>
   </g>
   <g id="text_34">
    <!-- $\mathit{E}_{\mathrm{NF}}$/$\mathit{E}_{\mathrm{i}}$ -->
    <g transform="translate(353.6548 35.472) scale(0.1 -0.1)">
     <defs>
      <path id="DejaVuSans-Oblique-45" d="M 1081 4666 
L 4031 4666 
L 3928 4134 
L 1606 4134 
L 1338 2753 
L 3566 2753 
L 3463 2222 
L 1234 2222 
L 909 531 
L 3284 531 
L 3181 0 
L 172 0 
L 1081 4666 
z
" transform="scale(0.015625)"/>
      <path id="DejaVuSans-4e" d="M 628 4666 
L 1478 4666 
L 3547 763 
L 3547 4666 
L 4159 4666 
L 4159 0 
L 3309 0 
L 1241 3903 
L 1241 0 
L 628 0 
L 628 4666 
z
" transform="scale(0.015625)"/>
      <path id="DejaVuSans-46" d="M 628 4666 
L 3309 4666 
L 3309 4134 
L 1259 4134 
L 1259 2759 
L 3109 2759 
L 3109 2228 
L 1259 2228 
L 1259 0 
L 628 0 
L 628 4666 
z
" transform="scale(0.015625)"/>
      <path id="DejaVuSans-69" d="M 603 3500 
L 1178 3500 
L 1178 0 
L 603 0 
L 603 3500 
z
M 603 4863 
L 1178 4863 
L 1178 4134 
L 603 4134 
L 603 4863 
z
" transform="scale(0.015625)"/>
     </defs>
     <use xlink:href="#DejaVuSans-Oblique-45" transform="translate(0 0.09375)"/>
     <use xlink:href="#DejaVuSans-4e" transform="translate(63.183594 -16.3125) scale(0.7)"/>
     <use xlink:href="#DejaVuSans-46" transform="translate(115.546875 -16.3125) scale(0.7)"/>
     <use xlink:href="#Calibri-2f" transform="translate(158.544922 0.09375)"/>
     <use xlink:href="#DejaVuSans-Oblique-45" transform="translate(197.167969 0.09375)"/>
     <use xlink:href="#DejaVuSans-69" transform="translate(260.351562 -16.3125) scale(0.7)"/>
    </g>
   </g>
  </g>
 </g>
 <defs>
  <clipPath id="p1e89d0a206">
   <rect x="57.6" y="41.472" width="285.696" height="266.112"/>
  </clipPath>
  <clipPath id="p3833ca4e38">
   <rect x="361.152" y="41.472" width="13.3056" height="266.112"/>
  </clipPath>
 </defs>
</svg>
