<?xml version="1.0" encoding="utf-8" standalone="no"?>
<!DOCTYPE svg PUBLIC "-//W3C//DTD SVG 1.1//EN"
  "http://www.w3.org/Graphics/SVG/1.1/DTD/svg11.dtd">
<svg xmlns:xlink="http://www.w3.org/1999/xlink" width="460.8pt" height="345.6pt" viewBox="0 0 460.8 345.6" xmlns="http://www.w3.org/2000/svg" version="1.1">
 <metadata>
  <rdf:RDF xmlns:dc="http://purl.org/dc/elements/1.1/" xmlns:cc="http://creativecommons.org/ns#" xmlns:rdf="http://www.w3.org/1999/02/22-rdf-syntax-ns#">
   <cc:Work>
    <dc:type rdf:resource="http://purl.org/dc/dcmitype/StillImage"/>
    <dc:date>2024-01-22T08:38:27.694168</dc:date>
    <dc:format>image/svg+xml</dc:format>
    <dc:creator>
     <cc:Agent>
      <dc:title>Matplotlib v3.7.1, https://matplotlib.org/</dc:title>
     </cc:Agent>
    </dc:creator>
   </cc:Work>
  </rdf:RDF>
 </metadata>
 <defs>
  <style type="text/css">*{stroke-linejoin: round; stroke-linecap: butt}</style>
 </defs>
 <g id="figure_1">
  <g id="patch_1">
   <path d="M 0 345.6 
L 460.8 345.6 
L 460.8 0 
L 0 0 
z
" style="fill: #ffffff"/>
  </g>
  <g id="axes_1">
   <g id="patch_2">
    <path d="M 57.6 307.584 
L 343.296 307.584 
L 343.296 41.472 
L 57.6 41.472 
z
" style="fill: #ffffff"/>
   </g>
   <g id="PathCollection_1">
    <path d="M 90.050032 41.472 
L 90.732573 42.383791 
L 90.779519 42.44628 
L 91.433146 43.307323 
L 92.556917 44.7984 
L 92.630111 44.894096 
L 92.85178 45.186628 
L 93.870951 46.520292 
L 94.349012 47.15052 
L 94.716309 47.627738 
L 95.102399 48.1248 
L 95.271584 48.347246 
L 95.353621 48.457342 
L 95.849868 49.09908 
L 96.446176 49.868882 
L 97.108729 50.732562 
L 97.328048 51.013931 
L 97.666245 51.4512 
L 98.36261 52.337936 
L 99.501931 53.80332 
L 99.644243 53.985961 
L 99.851149 54.242311 
L 100.274515 54.7776 
L 100.910189 55.59689 
L 101.033042 55.75188 
L 102.213347 57.237032 
L 102.895228 58.104 
L 103.254584 58.553807 
L 103.33993 58.659702 
L 103.33993 58.104 
L 103.33993 54.7776 
L 103.33993 51.4512 
L 103.33993 48.1248 
L 103.33993 44.7984 
L 103.33993 41.472 
L 101.816218 41.472 
L 100.292506 41.472 
L 98.768794 41.472 
L 97.245082 41.472 
L 95.72137 41.472 
L 94.197658 41.472 
L 92.673946 41.472 
L 91.150234 41.472 
" clip-path="url(#p1f77e7c4d6)" style="fill: #0000b6"/>
   </g>
   <g id="PathCollection_2">
    <path d="M 103.33993 58.659702 
L 103.254584 58.553807 
L 102.895228 58.104 
L 102.213347 57.237032 
L 101.033042 55.75188 
L 100.910189 55.59689 
L 100.274515 54.7776 
L 99.851149 54.242311 
L 99.644243 53.985961 
L 99.501931 53.80332 
L 98.36261 52.337936 
L 97.666245 51.4512 
L 97.328048 51.013931 
L 97.108729 50.732562 
L 96.446176 49.868882 
L 95.849868 49.09908 
L 95.353621 48.457342 
L 95.271584 48.347246 
L 95.102399 48.1248 
L 94.716309 47.627738 
L 94.349012 47.15052 
L 93.870951 46.520292 
L 92.85178 45.186628 
L 92.630111 44.894096 
L 92.556917 44.7984 
L 91.433146 43.307323 
L 90.779519 42.44628 
L 90.732573 42.383791 
L 90.050032 41.472 
L 89.626522 41.472 
L 88.10281 41.472 
L 86.579098 41.472 
L 85.055386 41.472 
L 83.531674 41.472 
L 82.007962 41.472 
L 80.48425 41.472 
L 78.960538 41.472 
L 77.436826 41.472 
L 75.913114 41.472 
L 74.389402 41.472 
L 72.86569 41.472 
L 71.341978 41.472 
L 69.818266 41.472 
L 68.294554 41.472 
L 66.770842 41.472 
L 65.24713 41.472 
L 63.723418 41.472 
L 62.199706 41.472 
L 60.675994 41.472 
L 59.152282 41.472 
L 57.62857 41.472 
L 57.62857 44.7984 
L 57.62857 48.1248 
L 57.62857 51.4512 
L 57.62857 54.7776 
L 57.62857 58.104 
L 57.62857 61.4304 
L 57.62857 64.7568 
L 57.62857 68.0832 
L 57.62857 71.4096 
L 57.62857 74.736 
L 57.62857 78.0624 
L 57.62857 81.3888 
L 57.62857 84.7152 
L 57.62857 88.0416 
L 57.62857 91.368 
L 57.62857 94.6944 
L 57.62857 98.0208 
L 57.62857 101.3472 
L 57.62857 104.6736 
L 57.62857 108 
L 57.62857 111.3264 
L 57.62857 114.6528 
L 57.62857 117.9792 
L 57.62857 121.3056 
L 57.62857 121.623721 
L 57.985788 122.085441 
L 58.111521 122.246724 
L 58.137588 122.27988 
L 59.459258 123.961844 
L 59.984958 124.632 
L 60.542527 125.335431 
L 60.893618 125.778975 
L 61.39011 126.39942 
L 61.857029 126.98412 
L 62.452519 127.72979 
L 62.513126 127.803395 
L 62.639295 127.9584 
L 62.927061 128.31812 
L 63.421104 128.93268 
L 64.028328 129.677787 
L 65.13309 131.035841 
L 65.279332 131.2145 
L 65.33673 131.2848 
L 66.502781 132.697598 
L 67.199362 133.543295 
L 67.238489 133.590284 
L 67.277211 133.63692 
L 67.458975 133.855615 
L 67.945396 134.438521 
L 68.090158 134.6112 
L 68.177324 134.717207 
L 68.906344 135.58548 
L 69.207726 135.944062 
L 69.507986 136.302287 
L 70.015 136.900722 
L 70.891358 137.9376 
L 71.184715 138.280918 
L 71.86508 139.079579 
L 72.506962 139.828256 
L 72.901559 140.28972 
L 73.26255 140.706705 
L 73.74714 141.264 
L 74.027118 141.591601 
L 74.590238 142.23828 
L 75.16503 142.897134 
L 75.710986 143.525099 
L 76.043456 143.90344 
L 76.645324 144.5904 
L 77.167085 145.179267 
L 78.288459 146.449592 
L 78.551592 146.745725 
L 78.7259 146.94252 
L 78.936711 147.175018 
L 79.602003 147.9168 
L 79.871471 148.219855 
L 79.994473 148.359688 
L 80.47333 148.89108 
L 81.195525 149.690422 
L 81.851711 150.419688 
L 82.110268 150.703999 
L 82.598902 151.2432 
L 83.220883 151.921685 
L 84.468693 153.288797 
L 84.633275 153.46791 
L 84.749915 153.59532 
L 84.98787 153.849425 
L 85.655015 154.5696 
L 85.943947 154.88372 
L 86.073855 155.026473 
L 86.555336 155.54388 
L 87.294069 156.335152 
L 87.938178 157.028318 
L 88.212098 157.32 
L 88.750855 157.896 
L 89.340922 158.519491 
L 90.453083 159.700458 
L 90.748704 160.012239 
L 90.971424 160.24812 
L 91.2105 160.49864 
L 91.903863 161.2224 
L 92.149913 161.481565 
L 92.258964 161.597654 
L 92.833403 162.19668 
L 93.455399 162.842816 
L 93.977396 163.387921 
L 94.345705 163.768524 
L 95.097411 164.5488 
L 95.521919 164.984218 
L 96.278 165.763974 
L 96.894675 166.3956 
L 97.385753 166.90092 
L 97.486386 167.002295 
L 98.343748 167.8752 
L 98.482294 168.016891 
L 98.542869 168.079496 
L 99.302213 168.84948 
L 99.674192 169.225035 
L 99.975536 169.531028 
L 100.507956 170.06608 
L 101.632376 171.2016 
L 101.758551 171.327492 
L 101.972038 171.541771 
L 103.068094 172.634297 
L 103.33993 172.902317 
L 103.33993 171.2016 
L 103.33993 167.8752 
L 103.33993 164.5488 
L 103.33993 161.2224 
L 103.33993 157.896 
L 103.33993 154.5696 
L 103.33993 151.2432 
L 103.33993 147.9168 
L 103.33993 144.5904 
L 103.33993 141.264 
L 103.33993 137.9376 
L 103.33993 134.6112 
L 103.33993 131.2848 
L 103.33993 127.9584 
L 103.33993 124.632 
L 103.33993 121.3056 
L 103.33993 117.9792 
L 103.33993 114.6528 
L 103.33993 111.3264 
L 103.33993 108 
L 103.33993 104.6736 
L 103.33993 101.3472 
L 103.33993 98.0208 
L 103.33993 94.6944 
L 103.33993 91.368 
L 103.33993 88.0416 
L 103.33993 84.7152 
L 103.33993 81.3888 
L 103.33993 78.0624 
L 103.33993 74.736 
L 103.33993 71.4096 
L 103.33993 68.0832 
L 103.33993 64.7568 
L 103.33993 61.4304 
" clip-path="url(#p1f77e7c4d6)" style="fill: #0018ff"/>
   </g>
   <g id="PathCollection_3">
    <path d="M 103.33993 172.902317 
L 103.068094 172.634297 
L 101.972038 171.541771 
L 101.758551 171.327492 
L 101.632376 171.2016 
L 100.507956 170.06608 
L 99.975536 169.531028 
L 99.674192 169.225035 
L 99.302213 168.84948 
L 98.542869 168.079496 
L 98.482294 168.016891 
L 98.343748 167.8752 
L 97.486386 167.002295 
L 97.385753 166.90092 
L 96.894675 166.3956 
L 96.278 165.763974 
L 95.521919 164.984218 
L 95.097411 164.5488 
L 94.345705 163.768524 
L 93.977396 163.387921 
L 93.455399 162.842816 
L 92.833403 162.19668 
L 92.258964 161.597654 
L 92.149913 161.481565 
L 91.903863 161.2224 
L 91.2105 160.49864 
L 90.971424 160.24812 
L 90.748704 160.012239 
L 90.453083 159.700458 
L 89.340922 158.519491 
L 88.750855 157.896 
L 88.212098 157.32 
L 87.938178 157.028318 
L 87.294069 156.335152 
L 86.555336 155.54388 
L 86.073855 155.026473 
L 85.943947 154.88372 
L 85.655015 154.5696 
L 84.98787 153.849425 
L 84.749915 153.59532 
L 84.633275 153.46791 
L 84.468693 153.288797 
L 83.220883 151.921685 
L 82.598902 151.2432 
L 82.110268 150.703999 
L 81.851711 150.419688 
L 81.195525 149.690422 
L 80.47333 148.89108 
L 79.994473 148.359688 
L 79.871471 148.219855 
L 79.602003 147.9168 
L 78.936711 147.175018 
L 78.7259 146.94252 
L 78.551592 146.745725 
L 78.288459 146.449592 
L 77.167085 145.179267 
L 76.645324 144.5904 
L 76.043456 143.90344 
L 75.710986 143.525099 
L 75.16503 142.897134 
L 74.590238 142.23828 
L 74.027118 141.591601 
L 73.74714 141.264 
L 73.26255 140.706705 
L 72.901559 140.28972 
L 72.506962 139.828256 
L 71.86508 139.079579 
L 71.184715 138.280918 
L 70.891358 137.9376 
L 70.015 136.900722 
L 69.507986 136.302287 
L 69.207726 135.944062 
L 68.906344 135.58548 
L 68.177324 134.717207 
L 68.090158 134.6112 
L 67.945396 134.438521 
L 67.458975 133.855615 
L 67.277211 133.63692 
L 67.238489 133.590284 
L 67.199362 133.543295 
L 66.502781 132.697598 
L 65.33673 131.2848 
L 65.279332 131.2145 
L 65.13309 131.035841 
L 64.028328 129.677787 
L 63.421104 128.93268 
L 62.927061 128.31812 
L 62.639295 127.9584 
L 62.513126 127.803395 
L 62.452519 127.72979 
L 61.857029 126.98412 
L 61.39011 126.39942 
L 60.893618 125.778975 
L 60.542527 125.335431 
L 59.984958 124.632 
L 59.459258 123.961844 
L 58.137588 122.27988 
L 58.111521 122.246724 
L 57.985788 122.085441 
L 57.62857 121.623721 
L 57.62857 124.632 
L 57.62857 127.9584 
L 57.62857 131.2848 
L 57.62857 134.6112 
L 57.62857 137.9376 
L 57.62857 141.264 
L 57.62857 144.5904 
L 57.62857 147.9168 
L 57.62857 151.2432 
L 57.62857 154.5696 
L 57.62857 157.896 
L 57.62857 161.2224 
L 57.62857 164.5488 
L 57.62857 167.8752 
L 57.62857 171.2016 
L 57.62857 174.528 
L 57.62857 177.8544 
L 57.62857 181.1808 
L 57.62857 184.5072 
L 57.62857 187.8336 
L 57.62857 191.16 
L 57.62857 194.4864 
L 57.62857 196.62618 
L 57.814535 196.832678 
L 58.704629 197.8128 
L 59.002525 198.139732 
L 59.601617 198.793739 
L 60.337699 199.595761 
L 60.862156 200.16492 
L 61.399833 200.743616 
L 61.767405 201.1392 
L 61.902666 201.286104 
L 61.963813 201.35251 
L 62.675215 202.11348 
L 63.079048 202.545918 
L 63.430163 202.920016 
L 63.918275 203.438616 
L 64.888551 204.4656 
L 65.130303 204.720642 
L 65.580426 205.193216 
L 66.458234 206.113183 
L 67.132946 206.81772 
L 67.870812 207.582435 
L 68.073025 207.792 
L 68.175823 207.899364 
L 69.017163 208.76628 
L 69.258153 209.014775 
L 69.45806 209.219954 
L 70.061289 209.837557 
L 71.3167 211.1184 
L 71.333944 211.135938 
L 71.363909 211.166277 
L 72.616373 212.432411 
L 73.232853 213.053515 
L 73.417837 213.239413 
L 73.648687 213.47052 
L 74.511468 214.334419 
L 74.623012 214.4448 
L 74.853463 214.674306 
L 75.601356 215.41908 
L 76.239593 216.050507 
L 76.985615 216.786166 
L 77.607542 217.398511 
L 77.987455 217.7712 
L 78.808261 218.573766 
L 79.181916 218.93796 
L 79.713135 219.454613 
L 80.40314 220.12332 
L 80.96236 220.665261 
L 81.413142 221.0976 
L 82.391351 222.040775 
L 82.423612 222.07188 
L 82.449532 222.096726 
L 82.478158 222.124081 
L 83.94426 223.523287 
L 84.891293 224.424 
L 85.030364 224.555873 
L 85.091345 224.613522 
L 86.069455 225.536597 
L 87.38729 226.77612 
L 87.519269 226.900235 
L 87.7893 227.151884 
L 88.431577 227.7504 
L 89.018767 228.299971 
L 89.476585 228.72468 
L 90.337985 229.523612 
L 90.965623 230.10382 
L 91.279822 230.393809 
L 92.021655 231.0768 
L 92.480837 231.498374 
L 93.145809 232.10692 
L 93.875614 232.774113 
L 94.593601 233.42892 
L 95.602048 234.344189 
L 95.66706 234.4032 
L 95.68617 234.420609 
L 95.694117 234.427844 
L 96.744748 235.37748 
L 96.782974 235.412023 
L 96.809963 235.436334 
L 97.553302 236.105142 
L 98.353816 236.823666 
L 98.942115 237.351224 
L 99.365149 237.7296 
L 100.158275 238.437055 
L 100.481272 238.72448 
L 101.106095 239.279862 
L 102.010513 240.08172 
L 102.456565 240.476956 
L 103.112275 241.056 
L 103.274378 241.199105 
L 103.33993 241.256608 
L 103.33993 241.056 
L 103.33993 237.7296 
L 103.33993 234.4032 
L 103.33993 231.0768 
L 103.33993 227.7504 
L 103.33993 224.424 
L 103.33993 221.0976 
L 103.33993 217.7712 
L 103.33993 214.4448 
L 103.33993 211.1184 
L 103.33993 207.792 
L 103.33993 204.4656 
L 103.33993 201.1392 
L 103.33993 197.8128 
L 103.33993 194.4864 
L 103.33993 191.16 
L 103.33993 187.8336 
L 103.33993 184.5072 
L 103.33993 181.1808 
L 103.33993 177.8544 
L 103.33993 174.528 
" clip-path="url(#p1f77e7c4d6)" style="fill: #0080ff"/>
   </g>
   <g id="PathCollection_4">
    <path d="M 103.33993 241.256608 
L 103.274378 241.199105 
L 103.112275 241.056 
L 102.456565 240.476956 
L 102.010513 240.08172 
L 101.106095 239.279862 
L 100.481272 238.72448 
L 100.158275 238.437055 
L 99.365149 237.7296 
L 98.942115 237.351224 
L 98.353816 236.823666 
L 97.553302 236.105142 
L 96.809963 235.436334 
L 96.782974 235.412023 
L 96.744748 235.37748 
L 95.694117 234.427844 
L 95.68617 234.420609 
L 95.66706 234.4032 
L 95.602048 234.344189 
L 94.593601 233.42892 
L 93.875614 232.774113 
L 93.145809 232.10692 
L 92.480837 231.498374 
L 92.021655 231.0768 
L 91.279822 230.393809 
L 90.965623 230.10382 
L 90.337985 229.523612 
L 89.476585 228.72468 
L 89.018767 228.299971 
L 88.431577 227.7504 
L 87.7893 227.151884 
L 87.519269 226.900235 
L 87.38729 226.77612 
L 86.069455 225.536597 
L 85.091345 224.613522 
L 85.030364 224.555873 
L 84.891293 224.424 
L 83.94426 223.523287 
L 82.478158 222.124081 
L 82.449532 222.096726 
L 82.423612 222.07188 
L 82.391351 222.040775 
L 81.413142 221.0976 
L 80.96236 220.665261 
L 80.40314 220.12332 
L 79.713135 219.454613 
L 79.181916 218.93796 
L 78.808261 218.573766 
L 77.987455 217.7712 
L 77.607542 217.398511 
L 76.985615 216.786166 
L 76.239593 216.050507 
L 75.601356 215.41908 
L 74.853463 214.674306 
L 74.623012 214.4448 
L 74.511468 214.334419 
L 73.648687 213.47052 
L 73.417837 213.239413 
L 73.232853 213.053515 
L 72.616373 212.432411 
L 71.363909 211.166277 
L 71.333944 211.135938 
L 71.3167 211.1184 
L 70.061289 209.837557 
L 69.45806 209.219954 
L 69.258153 209.014775 
L 69.017163 208.76628 
L 68.175823 207.899364 
L 68.073025 207.792 
L 67.870812 207.582435 
L 67.132946 206.81772 
L 66.458234 206.113183 
L 65.580426 205.193216 
L 65.130303 204.720642 
L 64.888551 204.4656 
L 63.918275 203.438616 
L 63.430163 202.920016 
L 63.079048 202.545918 
L 62.675215 202.11348 
L 61.963813 201.35251 
L 61.902666 201.286104 
L 61.767405 201.1392 
L 61.399833 200.743616 
L 60.862156 200.16492 
L 60.337699 199.595761 
L 59.601617 198.793739 
L 59.002525 198.139732 
L 58.704629 197.8128 
L 57.814535 196.832678 
L 57.62857 196.62618 
L 57.62857 197.8128 
L 57.62857 201.1392 
L 57.62857 204.4656 
L 57.62857 207.792 
L 57.62857 211.1184 
L 57.62857 214.4448 
L 57.62857 217.7712 
L 57.62857 221.0976 
L 57.62857 224.424 
L 57.62857 227.7504 
L 57.62857 231.0768 
L 57.62857 234.4032 
L 57.62857 237.7296 
L 57.62857 241.056 
L 57.62857 244.3824 
L 57.62857 247.7088 
L 57.62857 251.0352 
L 57.62857 254.3616 
L 57.62857 257.688 
L 57.62857 261.0144 
L 57.62857 262.921628 
L 57.854193 263.151665 
L 59.019255 264.3408 
L 59.109528 264.434134 
L 59.269349 264.596369 
L 60.407026 265.758381 
L 61.071953 266.427681 
L 61.189212 266.546798 
L 61.335603 266.69292 
L 62.253986 267.618116 
L 62.268806 267.633026 
L 62.303279 267.6672 
L 62.405154 267.768806 
L 63.262722 268.628449 
L 63.275722 268.64148 
L 63.276686 268.642455 
L 63.277465 268.643229 
L 64.026691 269.395212 
L 64.919294 270.277906 
L 65.369631 270.726169 
L 65.643115 270.9936 
L 66.592333 271.934419 
L 67.030537 272.36231 
L 67.469341 272.795113 
L 68.037642 273.34572 
L 68.678558 273.972758 
L 69.037283 274.32 
L 69.813679 275.075834 
L 70.041566 275.29428 
L 70.229701 275.477953 
L 70.442344 275.68242 
L 71.688656 276.889571 
L 72.48435 277.6464 
L 72.806658 277.957521 
L 72.950701 278.094448 
L 73.807124 278.917565 
L 74.952581 279.99852 
L 75.202889 280.237192 
L 75.432832 280.456762 
L 75.981909 280.9728 
L 76.480244 281.445886 
L 76.693429 281.645028 
L 77.016185 281.94708 
L 78.061408 282.93568 
L 78.838749 283.657321 
L 79.04549 283.851465 
L 79.529516 284.2992 
L 80.196923 284.92646 
L 81.191955 285.844185 
L 81.636399 286.257501 
L 82.066375 286.65132 
L 82.65351 287.191296 
L 83.123384 287.6256 
L 83.265227 287.757373 
L 83.325285 287.81223 
L 84.184816 288.59988 
L 84.482653 288.875927 
L 84.698754 289.072394 
L 85.305954 289.631393 
L 86.448532 290.666963 
L 86.632584 290.835235 
L 86.762681 290.952 
L 87.904987 291.994614 
L 88.381933 292.423107 
L 88.784759 292.789642 
L 89.360854 293.30412 
L 90.032805 293.911012 
L 90.15157 294.018732 
L 90.442716 294.2784 
L 91.23379 294.990642 
L 91.52984 295.25268 
L 91.586741 295.30421 
L 91.643142 295.354462 
L 93.103142 296.667825 
L 94.164927 297.6048 
L 94.192889 297.629933 
L 94.204349 297.640065 
L 95.268303 298.593885 
L 96.785448 299.927778 
L 96.801604 299.942123 
L 96.818537 299.95692 
L 96.843908 299.97923 
L 97.921088 300.9312 
L 98.349984 301.309915 
L 99.029055 301.90548 
L 99.609931 302.421321 
L 100.010203 302.769739 
L 100.493781 303.19679 
L 101.714784 304.2576 
L 101.786931 304.321536 
L 101.884194 304.405999 
L 103.107971 305.480123 
L 103.33993 305.686267 
L 103.33993 304.2576 
L 103.33993 300.9312 
L 103.33993 297.6048 
L 103.33993 294.2784 
L 103.33993 290.952 
L 103.33993 287.6256 
L 103.33993 284.2992 
L 103.33993 280.9728 
L 103.33993 277.6464 
L 103.33993 274.32 
L 103.33993 270.9936 
L 103.33993 267.6672 
L 103.33993 264.3408 
L 103.33993 261.0144 
L 103.33993 257.688 
L 103.33993 254.3616 
L 103.33993 251.0352 
L 103.33993 247.7088 
L 103.33993 244.3824 
" clip-path="url(#p1f77e7c4d6)" style="fill: #00e4f8"/>
   </g>
   <g id="PathCollection_5">
    <path d="M 103.33993 305.686267 
L 103.107971 305.480123 
L 101.884194 304.405999 
L 101.786931 304.321536 
L 101.714784 304.2576 
L 100.493781 303.19679 
L 100.010203 302.769739 
L 99.609931 302.421321 
L 99.029055 301.90548 
L 98.349984 301.309915 
L 97.921088 300.9312 
L 96.843908 299.97923 
L 96.818537 299.95692 
L 96.801604 299.942123 
L 96.785448 299.927778 
L 95.268303 298.593885 
L 94.204349 297.640065 
L 94.192889 297.629933 
L 94.164927 297.6048 
L 93.103142 296.667825 
L 91.643142 295.354462 
L 91.586741 295.30421 
L 91.52984 295.25268 
L 91.23379 294.990642 
L 90.442716 294.2784 
L 90.15157 294.018732 
L 90.032805 293.911012 
L 89.360854 293.30412 
L 88.784759 292.789642 
L 88.381933 292.423107 
L 87.904987 291.994614 
L 86.762681 290.952 
L 86.632584 290.835235 
L 86.448532 290.666963 
L 85.305954 289.631393 
L 84.698754 289.072394 
L 84.482653 288.875927 
L 84.184816 288.59988 
L 83.325285 287.81223 
L 83.265227 287.757373 
L 83.123384 287.6256 
L 82.65351 287.191296 
L 82.066375 286.65132 
L 81.636399 286.257501 
L 81.191955 285.844185 
L 80.196923 284.92646 
L 79.529516 284.2992 
L 79.04549 283.851465 
L 78.838749 283.657321 
L 78.061408 282.93568 
L 77.016185 281.94708 
L 76.693429 281.645028 
L 76.480244 281.445886 
L 75.981909 280.9728 
L 75.432832 280.456762 
L 75.202889 280.237192 
L 74.952581 279.99852 
L 73.807124 278.917565 
L 72.950701 278.094448 
L 72.806658 277.957521 
L 72.48435 277.6464 
L 71.688656 276.889571 
L 70.442344 275.68242 
L 70.229701 275.477953 
L 70.041566 275.29428 
L 69.813679 275.075834 
L 69.037283 274.32 
L 68.678558 273.972758 
L 68.037642 273.34572 
L 67.469341 272.795113 
L 67.030537 272.36231 
L 66.592333 271.934419 
L 65.643115 270.9936 
L 65.369631 270.726169 
L 64.919294 270.277906 
L 64.026691 269.395212 
L 63.277465 268.643229 
L 63.276686 268.642455 
L 63.275722 268.64148 
L 63.262722 268.628449 
L 62.405154 267.768806 
L 62.303279 267.6672 
L 62.268806 267.633026 
L 62.253986 267.618116 
L 61.335603 266.69292 
L 61.189212 266.546798 
L 61.071953 266.427681 
L 60.407026 265.758381 
L 59.269349 264.596369 
L 59.109528 264.434134 
L 59.019255 264.3408 
L 57.854193 263.151665 
L 57.62857 262.921628 
L 57.62857 264.3408 
L 57.62857 267.6672 
L 57.62857 270.9936 
L 57.62857 274.32 
L 57.62857 277.6464 
L 57.62857 280.9728 
L 57.62857 284.2992 
L 57.62857 287.6256 
L 57.62857 290.952 
L 57.62857 294.2784 
L 57.62857 297.6048 
L 57.62857 300.9312 
L 57.62857 304.2576 
L 57.62857 307.584 
L 59.152282 307.584 
L 60.675994 307.584 
L 62.199706 307.584 
L 63.723418 307.584 
L 65.24713 307.584 
L 66.770842 307.584 
L 68.294554 307.584 
L 69.818266 307.584 
L 71.341978 307.584 
L 72.86569 307.584 
L 74.389402 307.584 
L 75.913114 307.584 
L 77.436826 307.584 
L 78.960538 307.584 
L 80.48425 307.584 
L 82.007962 307.584 
L 83.531674 307.584 
L 85.055386 307.584 
L 86.579098 307.584 
L 88.10281 307.584 
L 89.626522 307.584 
L 91.150234 307.584 
L 92.673946 307.584 
L 94.197658 307.584 
L 95.72137 307.584 
L 97.245082 307.584 
L 98.768794 307.584 
L 100.292506 307.584 
L 101.816218 307.584 
L 103.33993 307.584 
" clip-path="url(#p1f77e7c4d6)" style="fill: #53ffa4"/>
   </g>
   <g id="PathCollection_6">
    <path clip-path="url(#p1f77e7c4d6)" style="fill: #a4ff53"/>
   </g>
   <g id="PathCollection_7">
    <path clip-path="url(#p1f77e7c4d6)" style="fill: #f8f500"/>
   </g>
   <g id="PathCollection_8">
    <path clip-path="url(#p1f77e7c4d6)" style="fill: #ff9400"/>
   </g>
   <g id="PathCollection_9">
    <path clip-path="url(#p1f77e7c4d6)" style="fill: #ff3800"/>
   </g>
   <g id="PathCollection_10">
    <path clip-path="url(#p1f77e7c4d6)" style="fill: #b60000"/>
   </g>
   <g id="PathCollection_11">
    <path d="M 100.4544 54.945659 
L 102.237553 57.258775 
L 103.850468 59.2128 
L 105.093421 60.781362 
L 105.976799 61.81088 
L 109.864469 66.641807 
L 111.022403 68.0832 
L 114.877165 72.757038 
L 116.191102 74.35552 
L 116.75287 74.917025 
L 118.620374 76.9536 
L 119.597699 78.229815 
L 120.156928 79.033229 
L 120.622627 79.55168 
L 125.38428 85.116403 
L 125.982479 85.824 
L 130.762629 91.302024 
L 131.448584 92.09632 
L 132.217311 92.837805 
L 133.982116 94.6944 
L 135.820564 97.012694 
L 136.08139 97.29248 
L 141.328406 103.126025 
L 141.714687 103.5648 
L 146.882735 109.226252 
L 147.431024 109.83712 
L 148.260193 110.614988 
L 150.038374 112.4352 
L 151.293595 113.880965 
L 151.989636 114.76274 
L 152.248787 115.03328 
L 157.606728 120.769425 
L 158.092636 121.3056 
L 163.175511 126.693672 
L 163.990601 127.57792 
L 164.355894 127.953924 
L 166.636825 130.176 
L 168.529558 132.344454 
L 168.947562 132.77408 
L 174.109606 138.166753 
L 174.919609 139.0464 
L 179.572789 143.884623 
L 180.912274 145.31872 
L 181.513593 145.935094 
L 183.558938 147.9168 
L 185.273275 149.833664 
L 185.9374 150.51488 
L 190.712047 155.454976 
L 191.940036 156.7872 
L 196.001186 160.993248 
L 197.926811 163.05952 
L 198.779094 163.943025 
L 200.533321 165.6576 
L 201.50367 166.695801 
L 202.028315 167.317735 
L 202.930002 168.25568 
L 207.275981 172.785395 
L 208.856051 174.528 
L 212.381232 178.229789 
L 214.728722 180.80032 
L 215.025381 181.079846 
L 217.253856 183.3984 
L 218.116657 184.331456 
L 218.582709 184.892881 
L 219.608963 185.99648 
L 223.64977 190.324181 
L 225.348546 192.2688 
L 228.623815 195.829996 
L 230.998352 198.54112 
L 231.268974 198.807202 
L 233.401816 201.1392 
L 234.709101 202.662298 
L 235.653529 203.73728 
L 239.663921 208.257067 
L 241.101735 210.0096 
L 244.622403 214.075707 
L 246.427148 216.28192 
L 246.828922 216.704273 
L 248.671036 218.88 
L 250.166903 220.735193 
L 250.765316 221.47808 
L 255.121572 226.79978 
L 255.830487 227.7504 
L 260.23784 233.335063 
L 260.745615 234.02272 
L 260.913666 234.255021 
L 262.795753 236.6208 
L 264.692796 239.212204 
L 264.698158 239.21888 
L 264.712722 239.237311 
L 269.323876 245.4912 
L 269.840138 246.152401 
L 273.776682 251.76352 
L 274.367275 252.580585 
L 274.877254 253.260929 
L 275.582166 254.3616 
L 276.543617 255.875945 
L 277.315027 256.95968 
L 279.62752 260.350248 
L 281.436054 263.232 
L 283.631418 266.521166 
L 285.371571 269.50432 
L 286.884767 271.988103 
L 286.946942 272.1024 
L 287.05389 272.293462 
L 288.49041 274.70048 
L 290.063224 277.21383 
L 292.093297 280.9728 
L 293.685176 283.730804 
L 295.519059 287.24512 
L 295.924544 288.130812 
L 296.850006 289.8432 
L 297.605529 291.138285 
L 298.026731 292.019982 
L 298.214954 292.44128 
L 299.462101 295.031298 
L 301.314602 298.7136 
L 301.874985 299.751801 
L 304.215477 304.98592 
L 305.003646 306.59392 
L 305.398235 307.584 
L 310.91712 307.584 
L 319.01184 307.584 
L 327.10656 307.584 
L 335.20128 307.584 
L 343.296 307.584 
L 343.296 298.7136 
L 343.296 289.8432 
L 343.296 280.9728 
L 343.296 272.1024 
L 343.296 263.232 
L 343.296 254.3616 
L 343.296 245.4912 
L 343.296 236.6208 
L 343.296 227.7504 
L 343.296 218.88 
L 343.296 210.0096 
L 343.296 201.1392 
L 343.296 192.2688 
L 343.296 183.3984 
L 343.296 174.528 
L 343.296 165.6576 
L 343.296 156.7872 
L 343.296 147.9168 
L 343.296 139.0464 
L 343.296 130.176 
L 343.296 121.3056 
L 343.296 112.4352 
L 343.296 103.5648 
L 343.296 94.6944 
L 343.296 85.824 
L 343.296 76.9536 
L 343.296 68.0832 
L 343.296 59.2128 
L 343.296 50.3424 
L 343.296 41.472 
L 335.20128 41.472 
L 327.10656 41.472 
L 319.01184 41.472 
L 310.91712 41.472 
L 302.8224 41.472 
L 294.72768 41.472 
L 286.63296 41.472 
L 278.53824 41.472 
L 270.44352 41.472 
L 262.3488 41.472 
L 254.25408 41.472 
L 246.15936 41.472 
L 238.06464 41.472 
L 229.96992 41.472 
L 221.8752 41.472 
L 213.78048 41.472 
L 205.68576 41.472 
L 197.59104 41.472 
L 189.49632 41.472 
L 181.4016 41.472 
L 173.30688 41.472 
L 165.21216 41.472 
L 157.11744 41.472 
L 149.02272 41.472 
L 140.928 41.472 
L 132.83328 41.472 
L 124.73856 41.472 
L 116.64384 41.472 
L 108.54912 41.472 
L 100.4544 41.472 
L 100.4544 50.3424 
" clip-path="url(#p1f77e7c4d6)" style="fill: #0000b6"/>
   </g>
   <g id="PathCollection_12">
    <path d="M 305.398235 307.584 
L 305.003646 306.59392 
L 304.215477 304.98592 
L 301.874985 299.751801 
L 301.314602 298.7136 
L 299.462101 295.031298 
L 298.214954 292.44128 
L 298.026731 292.019982 
L 297.605529 291.138285 
L 296.850006 289.8432 
L 295.924544 288.130812 
L 295.519059 287.24512 
L 293.685176 283.730804 
L 292.093297 280.9728 
L 290.063224 277.21383 
L 288.49041 274.70048 
L 287.05389 272.293462 
L 286.946942 272.1024 
L 286.884767 271.988103 
L 285.371571 269.50432 
L 283.631418 266.521166 
L 281.436054 263.232 
L 279.62752 260.350248 
L 277.315027 256.95968 
L 276.543617 255.875945 
L 275.582166 254.3616 
L 274.877254 253.260929 
L 274.367275 252.580585 
L 273.776682 251.76352 
L 269.840138 246.152401 
L 269.323876 245.4912 
L 264.712722 239.237311 
L 264.698158 239.21888 
L 264.692796 239.212204 
L 262.795753 236.6208 
L 260.913666 234.255021 
L 260.745615 234.02272 
L 260.23784 233.335063 
L 255.830487 227.7504 
L 255.121572 226.79978 
L 250.765316 221.47808 
L 250.166903 220.735193 
L 248.671036 218.88 
L 246.828922 216.704273 
L 246.427148 216.28192 
L 244.622403 214.075707 
L 241.101735 210.0096 
L 239.663921 208.257067 
L 235.653529 203.73728 
L 234.709101 202.662298 
L 233.401816 201.1392 
L 231.268974 198.807202 
L 230.998352 198.54112 
L 228.623815 195.829996 
L 225.348546 192.2688 
L 223.64977 190.324181 
L 219.608963 185.99648 
L 218.582709 184.892881 
L 218.116657 184.331456 
L 217.253856 183.3984 
L 215.025381 181.079846 
L 214.728722 180.80032 
L 212.381232 178.229789 
L 208.856051 174.528 
L 207.275981 172.785395 
L 202.930002 168.25568 
L 202.028315 167.317735 
L 201.50367 166.695801 
L 200.533321 165.6576 
L 198.779094 163.943025 
L 197.926811 163.05952 
L 196.001186 160.993248 
L 191.940036 156.7872 
L 190.712047 155.454976 
L 185.9374 150.51488 
L 185.273275 149.833664 
L 183.558938 147.9168 
L 181.513593 145.935094 
L 180.912274 145.31872 
L 179.572789 143.884623 
L 174.919609 139.0464 
L 174.109606 138.166753 
L 168.947562 132.77408 
L 168.529558 132.344454 
L 166.636825 130.176 
L 164.355894 127.953924 
L 163.990601 127.57792 
L 163.175511 126.693672 
L 158.092636 121.3056 
L 157.606728 120.769425 
L 152.248787 115.03328 
L 151.989636 114.76274 
L 151.293595 113.880965 
L 150.038374 112.4352 
L 148.260193 110.614988 
L 147.431024 109.83712 
L 146.882735 109.226252 
L 141.714687 103.5648 
L 141.328406 103.126025 
L 136.08139 97.29248 
L 135.820564 97.012694 
L 133.982116 94.6944 
L 132.217311 92.837805 
L 131.448584 92.09632 
L 130.762629 91.302024 
L 125.982479 85.824 
L 125.38428 85.116403 
L 120.622627 79.55168 
L 120.156928 79.033229 
L 119.597699 78.229815 
L 118.620374 76.9536 
L 116.75287 74.917025 
L 116.191102 74.35552 
L 114.877165 72.757038 
L 111.022403 68.0832 
L 109.864469 66.641807 
L 105.976799 61.81088 
L 105.093421 60.781362 
L 103.850468 59.2128 
L 102.237553 57.258775 
L 100.4544 54.945659 
L 100.4544 59.2128 
L 100.4544 68.0832 
L 100.4544 76.9536 
L 100.4544 85.824 
L 100.4544 94.6944 
L 100.4544 103.5648 
L 100.4544 112.4352 
L 100.4544 121.3056 
L 100.4544 130.176 
L 100.4544 139.0464 
L 100.4544 147.9168 
L 100.4544 156.7872 
L 100.4544 165.6576 
L 100.4544 169.961425 
L 101.70213 171.22706 
L 105.01301 174.528 
L 106.885 176.351585 
L 111.443773 180.80032 
L 112.32944 181.682491 
L 114.227753 183.3984 
L 116.328816 185.486113 
L 116.818261 185.99648 
L 118.44126 187.513623 
L 123.499749 192.2688 
L 124.1744 192.887021 
L 130.288135 198.54112 
L 130.345113 198.594353 
L 133.268117 201.1392 
L 135.74666 203.49104 
L 136.023789 203.73728 
L 141.88113 208.965136 
L 143.029309 210.0096 
L 147.523544 213.975754 
L 150.097983 216.28192 
L 151.47112 217.478305 
L 153.120674 218.88 
L 154.455112 220.088446 
L 156.055207 221.47808 
L 159.845632 224.760778 
L 163.212047 227.7504 
L 164.721069 229.049609 
L 166.190966 230.339886 
L 168.857821 232.625791 
L 170.437679 234.02272 
L 173.369819 236.592232 
L 173.381801 236.602201 
L 173.402991 236.6208 
L 173.439549 236.653735 
L 173.504412 236.710461 
L 176.41428 239.21888 
L 177.884687 240.474723 
L 180.314405 242.614965 
L 181.954629 244.028131 
L 183.60805 245.4912 
L 186.913379 248.321652 
L 190.786225 251.76352 
L 192.300637 253.088704 
L 193.747706 254.3616 
L 195.360825 255.817459 
L 196.664018 256.95968 
L 199.144035 259.123463 
L 203.707723 263.232 
L 204.809664 264.192048 
L 210.646751 269.50432 
L 210.904423 269.733619 
L 211.850356 270.572043 
L 213.486866 272.1024 
L 215.293509 273.7363 
L 216.255642 274.65315 
L 216.305101 274.70048 
L 222.410945 280.385717 
L 223.006445 280.9728 
L 228.131193 285.837257 
L 229.552273 287.24512 
L 230.131488 287.793582 
L 232.179908 289.8432 
L 234.069354 291.656683 
L 234.831314 292.44128 
L 239.533252 297.104257 
L 241.049185 298.7136 
L 244.736916 302.476756 
L 247.074483 304.98592 
L 247.819976 305.764254 
L 249.490315 307.584 
L 254.25408 307.584 
L 262.3488 307.584 
L 270.44352 307.584 
L 278.53824 307.584 
L 286.63296 307.584 
L 294.72768 307.584 
L 302.8224 307.584 
" clip-path="url(#p1f77e7c4d6)" style="fill: #0018ff"/>
   </g>
   <g id="PathCollection_13">
    <path d="M 249.490315 307.584 
L 247.819976 305.764254 
L 247.074483 304.98592 
L 244.736916 302.476756 
L 241.049185 298.7136 
L 239.533252 297.104257 
L 234.831314 292.44128 
L 234.069354 291.656683 
L 232.179908 289.8432 
L 230.131488 287.793582 
L 229.552273 287.24512 
L 228.131193 285.837257 
L 223.006445 280.9728 
L 222.410945 280.385717 
L 216.305101 274.70048 
L 216.255642 274.65315 
L 215.293509 273.7363 
L 213.486866 272.1024 
L 211.850356 270.572043 
L 210.904423 269.733619 
L 210.646751 269.50432 
L 204.809664 264.192048 
L 203.707723 263.232 
L 199.144035 259.123463 
L 196.664018 256.95968 
L 195.360825 255.817459 
L 193.747706 254.3616 
L 192.300637 253.088704 
L 190.786225 251.76352 
L 186.913379 248.321652 
L 183.60805 245.4912 
L 181.954629 244.028131 
L 180.314405 242.614965 
L 177.884687 240.474723 
L 176.41428 239.21888 
L 173.504412 236.710461 
L 173.439549 236.653735 
L 173.402991 236.6208 
L 173.381801 236.602201 
L 173.369819 236.592232 
L 170.437679 234.02272 
L 168.857821 232.625791 
L 166.190966 230.339886 
L 164.721069 229.049609 
L 163.212047 227.7504 
L 159.845632 224.760778 
L 156.055207 221.47808 
L 154.455112 220.088446 
L 153.120674 218.88 
L 151.47112 217.478305 
L 150.097983 216.28192 
L 147.523544 213.975754 
L 143.029309 210.0096 
L 141.88113 208.965136 
L 136.023789 203.73728 
L 135.74666 203.49104 
L 133.268117 201.1392 
L 130.345113 198.594353 
L 130.288135 198.54112 
L 124.1744 192.887021 
L 123.499749 192.2688 
L 118.44126 187.513623 
L 116.818261 185.99648 
L 116.328816 185.486113 
L 114.227753 183.3984 
L 112.32944 181.682491 
L 111.443773 180.80032 
L 106.885 176.351585 
L 105.01301 174.528 
L 101.70213 171.22706 
L 100.4544 169.961425 
L 100.4544 174.528 
L 100.4544 183.3984 
L 100.4544 192.2688 
L 100.4544 201.1392 
L 100.4544 210.0096 
L 100.4544 218.88 
L 100.4544 227.7504 
L 100.4544 236.6208 
L 100.4544 238.693479 
L 102.3774 240.403795 
L 108.184755 245.4912 
L 108.387387 245.668431 
L 109.889404 246.959918 
L 114.569189 250.979806 
L 115.489301 251.76352 
L 116.293919 252.438959 
L 118.59068 254.3616 
L 120.723592 256.184017 
L 121.656322 256.95968 
L 126.656056 261.130759 
L 129.195435 263.232 
L 131.969256 265.517823 
L 134.471928 267.567135 
L 135.902808 268.738733 
L 136.840392 269.50432 
L 138.902475 271.183003 
L 140.031539 272.1024 
L 140.352326 272.363702 
L 143.233728 274.70048 
L 145.199344 276.292152 
L 148.151674 278.6684 
L 149.486395 279.746121 
L 151.005722 280.9728 
L 154.528985 283.809295 
L 158.799744 287.24512 
L 160.264634 288.41467 
L 160.872517 288.911005 
L 162.01801 289.8432 
L 164.242519 291.611996 
L 165.282015 292.44128 
L 167.046818 293.859907 
L 173.077891 298.7136 
L 173.209837 298.819942 
L 173.944876 299.412733 
L 179.452112 303.871082 
L 180.821639 304.98592 
L 182.516112 306.362689 
L 183.999377 307.584 
L 189.49632 307.584 
L 197.59104 307.584 
L 205.68576 307.584 
L 213.78048 307.584 
L 221.8752 307.584 
L 229.96992 307.584 
L 238.06464 307.584 
L 246.15936 307.584 
" clip-path="url(#p1f77e7c4d6)" style="fill: #0080ff"/>
   </g>
   <g id="PathCollection_14">
    <path d="M 100.4544 303.237363 
L 102.701276 305.121817 
L 105.519634 307.584 
L 108.54912 307.584 
L 116.64384 307.584 
L 124.73856 307.584 
L 132.83328 307.584 
L 140.928 307.584 
L 149.02272 307.584 
L 157.11744 307.584 
L 165.21216 307.584 
L 173.30688 307.584 
L 181.4016 307.584 
L 183.999377 307.584 
L 182.516112 306.362689 
L 180.821639 304.98592 
L 179.452112 303.871082 
L 173.944876 299.412733 
L 173.209837 298.819942 
L 173.077891 298.7136 
L 167.046818 293.859907 
L 165.282015 292.44128 
L 164.242519 291.611996 
L 162.01801 289.8432 
L 160.872517 288.911005 
L 160.264634 288.41467 
L 158.799744 287.24512 
L 154.528985 283.809295 
L 151.005722 280.9728 
L 149.486395 279.746121 
L 148.151674 278.6684 
L 145.199344 276.292152 
L 143.233728 274.70048 
L 140.352326 272.363702 
L 140.031539 272.1024 
L 138.902475 271.183003 
L 136.840392 269.50432 
L 135.902808 268.738733 
L 134.471928 267.567135 
L 131.969256 265.517823 
L 129.195435 263.232 
L 126.656056 261.130759 
L 121.656322 256.95968 
L 120.723592 256.184017 
L 118.59068 254.3616 
L 116.293919 252.438959 
L 115.489301 251.76352 
L 114.569189 250.979806 
L 109.889404 246.959918 
L 108.387387 245.668431 
L 108.184755 245.4912 
L 102.3774 240.403795 
L 100.4544 238.693479 
L 100.4544 245.4912 
L 100.4544 254.3616 
L 100.4544 263.232 
L 100.4544 272.1024 
L 100.4544 280.9728 
L 100.4544 289.8432 
L 100.4544 298.7136 
" clip-path="url(#p1f77e7c4d6)" style="fill: #00e4f8"/>
   </g>
   <g id="PathCollection_15">
    <path d="M 105.519634 307.584 
L 102.701276 305.121817 
L 100.4544 303.237363 
L 100.4544 307.584 
" clip-path="url(#p1f77e7c4d6)" style="fill: #53ffa4"/>
   </g>
   <g id="PathCollection_16">
    <path clip-path="url(#p1f77e7c4d6)" style="fill: #a4ff53"/>
   </g>
   <g id="PathCollection_17">
    <path clip-path="url(#p1f77e7c4d6)" style="fill: #f8f500"/>
   </g>
   <g id="PathCollection_18">
    <path clip-path="url(#p1f77e7c4d6)" style="fill: #ff9400"/>
   </g>
   <g id="PathCollection_19">
    <path clip-path="url(#p1f77e7c4d6)" style="fill: #ff3800"/>
   </g>
   <g id="PathCollection_20">
    <path clip-path="url(#p1f77e7c4d6)" style="fill: #b60000"/>
   </g>
   <g id="matplotlib.axis_1">
    <g id="xtick_1">
     <g id="line2d_1">
      <defs>
       <path id="mee1a8f314e" d="M 0 0 
L 0 3.5 
" style="stroke: #000000; stroke-width: 0.8"/>
      </defs>
      <g>
       <use xlink:href="#mee1a8f314e" x="57.6" y="307.584" style="stroke: #000000; stroke-width: 0.8"/>
      </g>
     </g>
     <g id="text_1">
      <!-- 0.0 -->
      <g transform="translate(51.26875 321.385562) scale(0.1 -0.1)">
       <defs>
        <path id="Calibri-30" d="M 3022 2031 
Q 3022 1566 2948 1181 
Q 2875 797 2704 520 
Q 2534 244 2259 92 
Q 1984 -59 1581 -59 
Q 1200 -59 939 77 
Q 678 213 518 477 
Q 359 741 292 1127 
Q 225 1513 225 2013 
Q 225 2475 300 2861 
Q 375 3247 544 3523 
Q 713 3800 988 3951 
Q 1263 4103 1663 4103 
Q 2047 4103 2308 3967 
Q 2569 3831 2728 3567 
Q 2888 3303 2955 2917 
Q 3022 2531 3022 2031 
z
M 2472 1994 
Q 2472 2297 2450 2537 
Q 2428 2778 2386 2962 
Q 2344 3147 2276 3280 
Q 2209 3413 2115 3498 
Q 2022 3584 1901 3623 
Q 1781 3663 1631 3663 
Q 1366 3663 1200 3538 
Q 1034 3413 939 3194 
Q 844 2975 809 2681 
Q 775 2388 775 2050 
Q 775 1597 822 1280 
Q 869 963 970 763 
Q 1072 563 1230 472 
Q 1388 381 1613 381 
Q 1788 381 1920 437 
Q 2053 494 2148 598 
Q 2244 703 2306 850 
Q 2369 997 2406 1175 
Q 2444 1353 2458 1561 
Q 2472 1769 2472 1994 
z
" transform="scale(0.015625)"/>
        <path id="Calibri-2e" d="M 1144 341 
Q 1144 119 1070 45 
Q 997 -28 803 -28 
Q 616 -28 544 44 
Q 472 116 472 331 
Q 472 553 545 626 
Q 619 700 813 700 
Q 1000 700 1072 628 
Q 1144 556 1144 341 
z
" transform="scale(0.015625)"/>
       </defs>
       <use xlink:href="#Calibri-30"/>
       <use xlink:href="#Calibri-2e" x="50.683594"/>
       <use xlink:href="#Calibri-30" x="75.927734"/>
      </g>
     </g>
    </g>
    <g id="xtick_2">
     <g id="line2d_2">
      <g>
       <use xlink:href="#mee1a8f314e" x="86.1696" y="307.584" style="stroke: #000000; stroke-width: 0.8"/>
      </g>
     </g>
     <g id="text_2">
      <!-- 0.1 -->
      <g transform="translate(79.83835 321.385562) scale(0.1 -0.1)">
       <defs>
        <path id="Calibri-31" d="M 2897 213 
Q 2897 153 2887 112 
Q 2878 72 2862 47 
Q 2847 22 2826 11 
Q 2806 0 2784 0 
L 672 0 
Q 650 0 631 11 
Q 613 22 595 47 
Q 578 72 568 112 
Q 559 153 559 213 
Q 559 269 568 309 
Q 578 350 592 376 
Q 606 403 626 417 
Q 647 431 672 431 
L 1516 431 
L 1516 3506 
L 734 3041 
Q 675 3009 639 3003 
Q 603 2997 581 3017 
Q 559 3038 551 3084 
Q 544 3131 544 3203 
Q 544 3256 548 3293 
Q 553 3331 562 3356 
Q 572 3381 589 3400 
Q 606 3419 634 3438 
L 1566 4034 
Q 1578 4044 1597 4050 
Q 1616 4056 1644 4062 
Q 1672 4069 1709 4070 
Q 1747 4072 1803 4072 
Q 1878 4072 1928 4065 
Q 1978 4059 2006 4048 
Q 2034 4038 2043 4020 
Q 2053 4003 2053 3984 
L 2053 431 
L 2784 431 
Q 2809 431 2831 417 
Q 2853 403 2867 376 
Q 2881 350 2889 309 
Q 2897 269 2897 213 
z
" transform="scale(0.015625)"/>
       </defs>
       <use xlink:href="#Calibri-30"/>
       <use xlink:href="#Calibri-2e" x="50.683594"/>
       <use xlink:href="#Calibri-31" x="75.927734"/>
      </g>
     </g>
    </g>
    <g id="xtick_3">
     <g id="line2d_3">
      <g>
       <use xlink:href="#mee1a8f314e" x="114.7392" y="307.584" style="stroke: #000000; stroke-width: 0.8"/>
      </g>
     </g>
     <g id="text_3">
      <!-- 0.2 -->
      <g transform="translate(108.40795 321.385562) scale(0.1 -0.1)">
       <defs>
        <path id="Calibri-32" d="M 2888 231 
Q 2888 175 2880 131 
Q 2872 88 2858 58 
Q 2844 28 2820 14 
Q 2797 0 2769 0 
L 534 0 
Q 491 0 458 11 
Q 425 22 401 47 
Q 378 72 367 119 
Q 356 166 356 234 
Q 356 297 361 344 
Q 366 391 381 427 
Q 397 463 420 498 
Q 444 534 481 575 
L 1266 1406 
Q 1538 1694 1702 1922 
Q 1866 2150 1955 2337 
Q 2044 2525 2072 2678 
Q 2100 2831 2100 2966 
Q 2100 3100 2056 3220 
Q 2013 3341 1930 3431 
Q 1847 3522 1722 3575 
Q 1597 3628 1434 3628 
Q 1244 3628 1092 3575 
Q 941 3522 827 3459 
Q 713 3397 636 3344 
Q 559 3291 522 3291 
Q 500 3291 483 3303 
Q 466 3316 455 3344 
Q 444 3372 437 3419 
Q 431 3466 431 3531 
Q 431 3578 434 3612 
Q 438 3647 445 3672 
Q 453 3697 465 3719 
Q 478 3741 515 3773 
Q 553 3806 645 3862 
Q 738 3919 877 3973 
Q 1016 4028 1183 4065 
Q 1350 4103 1534 4103 
Q 1828 4103 2048 4020 
Q 2269 3938 2414 3794 
Q 2559 3650 2631 3459 
Q 2703 3269 2703 3053 
Q 2703 2859 2668 2667 
Q 2634 2475 2523 2251 
Q 2413 2028 2203 1754 
Q 1994 1481 1647 1125 
L 1006 456 
L 2766 456 
Q 2791 456 2814 442 
Q 2838 428 2855 400 
Q 2872 372 2880 330 
Q 2888 288 2888 231 
z
" transform="scale(0.015625)"/>
       </defs>
       <use xlink:href="#Calibri-30"/>
       <use xlink:href="#Calibri-2e" x="50.683594"/>
       <use xlink:href="#Calibri-32" x="75.927734"/>
      </g>
     </g>
    </g>
    <g id="xtick_4">
     <g id="line2d_4">
      <g>
       <use xlink:href="#mee1a8f314e" x="143.3088" y="307.584" style="stroke: #000000; stroke-width: 0.8"/>
      </g>
     </g>
     <g id="text_4">
      <!-- 0.3 -->
      <g transform="translate(136.97755 321.385562) scale(0.1 -0.1)">
       <defs>
        <path id="Calibri-33" d="M 2856 1156 
Q 2856 878 2759 654 
Q 2663 431 2481 272 
Q 2300 113 2034 27 
Q 1769 -59 1434 -59 
Q 1231 -59 1054 -26 
Q 878 6 740 51 
Q 603 97 512 145 
Q 422 194 398 216 
Q 375 238 362 259 
Q 350 281 340 312 
Q 331 344 326 389 
Q 322 434 322 500 
Q 322 613 344 656 
Q 366 700 406 700 
Q 434 700 517 650 
Q 600 600 729 542 
Q 859 484 1032 434 
Q 1206 384 1419 384 
Q 1625 384 1781 437 
Q 1938 491 2044 587 
Q 2150 684 2203 817 
Q 2256 950 2256 1106 
Q 2256 1278 2189 1415 
Q 2122 1553 1992 1653 
Q 1863 1753 1673 1806 
Q 1484 1859 1244 1859 
L 859 1859 
Q 834 1859 811 1870 
Q 788 1881 770 1906 
Q 753 1931 742 1972 
Q 731 2013 731 2078 
Q 731 2138 740 2177 
Q 750 2216 767 2239 
Q 784 2263 806 2273 
Q 828 2284 856 2284 
L 1209 2284 
Q 1416 2284 1580 2337 
Q 1744 2391 1858 2491 
Q 1972 2591 2033 2730 
Q 2094 2869 2094 3041 
Q 2094 3166 2053 3280 
Q 2013 3394 1931 3478 
Q 1850 3563 1723 3611 
Q 1597 3659 1431 3659 
Q 1250 3659 1098 3604 
Q 947 3550 828 3487 
Q 709 3425 631 3370 
Q 553 3316 522 3316 
Q 500 3316 483 3323 
Q 466 3331 455 3354 
Q 444 3378 439 3420 
Q 434 3463 434 3531 
Q 434 3578 437 3614 
Q 441 3650 450 3676 
Q 459 3703 471 3725 
Q 484 3747 514 3776 
Q 544 3806 634 3862 
Q 725 3919 858 3973 
Q 991 4028 1164 4065 
Q 1338 4103 1538 4103 
Q 1819 4103 2031 4031 
Q 2244 3959 2386 3828 
Q 2528 3697 2598 3514 
Q 2669 3331 2669 3109 
Q 2669 2919 2619 2755 
Q 2569 2591 2472 2464 
Q 2375 2338 2234 2248 
Q 2094 2159 1909 2125 
L 1909 2119 
Q 2119 2097 2292 2014 
Q 2466 1931 2591 1806 
Q 2716 1681 2786 1514 
Q 2856 1347 2856 1156 
z
" transform="scale(0.015625)"/>
       </defs>
       <use xlink:href="#Calibri-30"/>
       <use xlink:href="#Calibri-2e" x="50.683594"/>
       <use xlink:href="#Calibri-33" x="75.927734"/>
      </g>
     </g>
    </g>
    <g id="xtick_5">
     <g id="line2d_5">
      <g>
       <use xlink:href="#mee1a8f314e" x="171.8784" y="307.584" style="stroke: #000000; stroke-width: 0.8"/>
      </g>
     </g>
     <g id="text_5">
      <!-- 0.4 -->
      <g transform="translate(165.54715 321.385562) scale(0.1 -0.1)">
       <defs>
        <path id="Calibri-34" d="M 3059 1150 
Q 3059 1047 3028 987 
Q 2997 928 2941 928 
L 2484 928 
L 2484 78 
Q 2484 53 2471 36 
Q 2459 19 2428 6 
Q 2397 -6 2347 -12 
Q 2297 -19 2219 -19 
Q 2144 -19 2094 -12 
Q 2044 -6 2014 6 
Q 1984 19 1973 36 
Q 1963 53 1963 78 
L 1963 928 
L 294 928 
Q 256 928 231 937 
Q 206 947 186 972 
Q 166 997 158 1044 
Q 150 1091 150 1166 
Q 150 1225 153 1272 
Q 156 1319 165 1358 
Q 175 1397 190 1433 
Q 206 1469 228 1509 
L 1684 3966 
Q 1700 3991 1729 4009 
Q 1759 4028 1806 4040 
Q 1853 4053 1922 4058 
Q 1991 4063 2084 4063 
Q 2188 4063 2264 4055 
Q 2341 4047 2387 4034 
Q 2434 4022 2459 4001 
Q 2484 3981 2484 3953 
L 2484 1372 
L 2941 1372 
Q 2994 1372 3026 1317 
Q 3059 1263 3059 1150 
z
M 1963 3591 
L 1956 3591 
L 641 1372 
L 1963 1372 
L 1963 3591 
z
" transform="scale(0.015625)"/>
       </defs>
       <use xlink:href="#Calibri-30"/>
       <use xlink:href="#Calibri-2e" x="50.683594"/>
       <use xlink:href="#Calibri-34" x="75.927734"/>
      </g>
     </g>
    </g>
    <g id="xtick_6">
     <g id="line2d_6">
      <g>
       <use xlink:href="#mee1a8f314e" x="200.448" y="307.584" style="stroke: #000000; stroke-width: 0.8"/>
      </g>
     </g>
     <g id="text_6">
      <!-- 0.5 -->
      <g transform="translate(194.11675 321.385562) scale(0.1 -0.1)">
       <defs>
        <path id="Calibri-35" d="M 2869 1300 
Q 2869 975 2759 722 
Q 2650 469 2450 295 
Q 2250 122 1973 31 
Q 1697 -59 1359 -59 
Q 1172 -59 1003 -32 
Q 834 -6 703 33 
Q 572 72 487 109 
Q 403 147 379 169 
Q 356 191 347 209 
Q 338 228 330 254 
Q 322 281 319 322 
Q 316 363 316 419 
Q 316 472 320 514 
Q 325 556 337 582 
Q 350 609 367 621 
Q 384 634 406 634 
Q 438 634 503 595 
Q 569 556 680 511 
Q 791 466 955 425 
Q 1119 384 1344 384 
Q 1553 384 1728 434 
Q 1903 484 2029 590 
Q 2156 697 2228 858 
Q 2300 1019 2300 1250 
Q 2300 1444 2239 1592 
Q 2178 1741 2051 1839 
Q 1925 1938 1731 1986 
Q 1538 2034 1269 2034 
Q 1078 2034 940 2015 
Q 803 1997 684 1997 
Q 597 1997 559 2037 
Q 522 2078 522 2194 
L 522 3841 
Q 522 3944 570 3994 
Q 619 4044 709 4044 
L 2500 4044 
Q 2525 4044 2548 4030 
Q 2572 4016 2587 3987 
Q 2603 3959 2611 3915 
Q 2619 3872 2619 3813 
Q 2619 3700 2587 3637 
Q 2556 3575 2500 3575 
L 991 3575 
L 991 2441 
Q 1100 2456 1214 2459 
Q 1328 2463 1478 2463 
Q 1825 2463 2084 2380 
Q 2344 2297 2517 2145 
Q 2691 1994 2780 1778 
Q 2869 1563 2869 1300 
z
" transform="scale(0.015625)"/>
       </defs>
       <use xlink:href="#Calibri-30"/>
       <use xlink:href="#Calibri-2e" x="50.683594"/>
       <use xlink:href="#Calibri-35" x="75.927734"/>
      </g>
     </g>
    </g>
    <g id="xtick_7">
     <g id="line2d_7">
      <g>
       <use xlink:href="#mee1a8f314e" x="229.0176" y="307.584" style="stroke: #000000; stroke-width: 0.8"/>
      </g>
     </g>
     <g id="text_7">
      <!-- 0.6 -->
      <g transform="translate(222.68635 321.385562) scale(0.1 -0.1)">
       <defs>
        <path id="Calibri-36" d="M 2991 1309 
Q 2991 1044 2909 795 
Q 2828 547 2659 358 
Q 2491 169 2231 55 
Q 1972 -59 1619 -59 
Q 1366 -59 1172 3 
Q 978 66 834 181 
Q 691 297 595 465 
Q 500 634 442 850 
Q 384 1066 359 1322 
Q 334 1578 334 1872 
Q 334 2131 362 2397 
Q 391 2663 462 2909 
Q 534 3156 657 3373 
Q 781 3591 967 3752 
Q 1153 3913 1412 4006 
Q 1672 4100 2016 4100 
Q 2131 4100 2250 4086 
Q 2369 4072 2469 4048 
Q 2569 4025 2637 3997 
Q 2706 3969 2728 3951 
Q 2750 3934 2761 3914 
Q 2772 3894 2778 3870 
Q 2784 3847 2787 3817 
Q 2791 3788 2791 3744 
Q 2791 3688 2789 3647 
Q 2788 3606 2777 3581 
Q 2766 3556 2748 3543 
Q 2731 3531 2703 3531 
Q 2669 3531 2609 3553 
Q 2550 3575 2465 3601 
Q 2381 3628 2261 3650 
Q 2141 3672 1981 3672 
Q 1691 3672 1481 3553 
Q 1272 3434 1139 3234 
Q 1006 3034 942 2770 
Q 878 2506 869 2219 
Q 950 2266 1051 2312 
Q 1153 2359 1273 2396 
Q 1394 2434 1528 2457 
Q 1663 2481 1816 2481 
Q 2144 2481 2369 2392 
Q 2594 2303 2733 2145 
Q 2872 1988 2931 1773 
Q 2991 1559 2991 1309 
z
M 2447 1259 
Q 2447 1441 2411 1589 
Q 2375 1738 2290 1841 
Q 2206 1944 2065 2000 
Q 1925 2056 1719 2056 
Q 1603 2056 1487 2036 
Q 1372 2016 1264 1980 
Q 1156 1944 1057 1895 
Q 959 1847 878 1791 
Q 878 1388 929 1116 
Q 981 844 1079 680 
Q 1178 516 1325 445 
Q 1472 375 1669 375 
Q 1869 375 2016 450 
Q 2163 525 2259 651 
Q 2356 778 2401 936 
Q 2447 1094 2447 1259 
z
" transform="scale(0.015625)"/>
       </defs>
       <use xlink:href="#Calibri-30"/>
       <use xlink:href="#Calibri-2e" x="50.683594"/>
       <use xlink:href="#Calibri-36" x="75.927734"/>
      </g>
     </g>
    </g>
    <g id="xtick_8">
     <g id="line2d_8">
      <g>
       <use xlink:href="#mee1a8f314e" x="257.5872" y="307.584" style="stroke: #000000; stroke-width: 0.8"/>
      </g>
     </g>
     <g id="text_8">
      <!-- 0.7 -->
      <g transform="translate(251.25595 321.385562) scale(0.1 -0.1)">
       <defs>
        <path id="Calibri-37" d="M 2947 3813 
Q 2947 3756 2942 3711 
Q 2938 3666 2930 3623 
Q 2922 3581 2908 3542 
Q 2894 3503 2875 3459 
L 1419 103 
Q 1403 66 1379 42 
Q 1356 19 1320 5 
Q 1284 -9 1228 -14 
Q 1172 -19 1091 -19 
Q 984 -19 925 -9 
Q 866 0 839 20 
Q 813 41 816 70 
Q 819 100 838 141 
L 2369 3572 
L 428 3572 
Q 369 3572 339 3634 
Q 309 3697 309 3809 
Q 309 3869 317 3912 
Q 325 3956 340 3986 
Q 356 4016 378 4030 
Q 400 4044 428 4044 
L 2784 4044 
Q 2828 4044 2861 4034 
Q 2894 4025 2911 3997 
Q 2928 3969 2937 3925 
Q 2947 3881 2947 3813 
z
" transform="scale(0.015625)"/>
       </defs>
       <use xlink:href="#Calibri-30"/>
       <use xlink:href="#Calibri-2e" x="50.683594"/>
       <use xlink:href="#Calibri-37" x="75.927734"/>
      </g>
     </g>
    </g>
    <g id="xtick_9">
     <g id="line2d_9">
      <g>
       <use xlink:href="#mee1a8f314e" x="286.1568" y="307.584" style="stroke: #000000; stroke-width: 0.8"/>
      </g>
     </g>
     <g id="text_9">
      <!-- 0.8 -->
      <g transform="translate(279.82555 321.385562) scale(0.1 -0.1)">
       <defs>
        <path id="Calibri-38" d="M 2981 1038 
Q 2981 775 2887 570 
Q 2794 366 2617 225 
Q 2441 84 2181 12 
Q 1922 -59 1588 -59 
Q 1275 -59 1028 6 
Q 781 72 609 200 
Q 438 328 347 515 
Q 256 703 256 944 
Q 256 1134 318 1293 
Q 381 1453 498 1587 
Q 616 1722 787 1839 
Q 959 1956 1175 2063 
Q 988 2159 844 2267 
Q 700 2375 600 2501 
Q 500 2628 448 2772 
Q 397 2916 397 3084 
Q 397 3297 473 3483 
Q 550 3669 704 3806 
Q 859 3944 1098 4023 
Q 1338 4103 1656 4103 
Q 1963 4103 2186 4029 
Q 2409 3956 2554 3829 
Q 2700 3703 2769 3531 
Q 2838 3359 2838 3163 
Q 2838 3003 2786 2856 
Q 2734 2709 2634 2578 
Q 2534 2447 2389 2333 
Q 2244 2219 2056 2119 
Q 2278 2009 2451 1893 
Q 2625 1778 2742 1645 
Q 2859 1513 2920 1364 
Q 2981 1216 2981 1038 
z
M 2306 3113 
Q 2306 3244 2261 3350 
Q 2216 3456 2128 3531 
Q 2041 3606 1911 3645 
Q 1781 3684 1616 3684 
Q 1278 3684 1104 3531 
Q 931 3378 931 3113 
Q 931 2991 973 2886 
Q 1016 2781 1105 2687 
Q 1194 2594 1330 2505 
Q 1466 2416 1653 2319 
Q 1969 2481 2137 2678 
Q 2306 2875 2306 3113 
z
M 2438 981 
Q 2438 1125 2384 1242 
Q 2331 1359 2223 1461 
Q 2116 1563 1955 1658 
Q 1794 1753 1581 1856 
Q 1384 1759 1236 1662 
Q 1088 1566 992 1462 
Q 897 1359 848 1245 
Q 800 1131 800 994 
Q 800 691 1008 525 
Q 1216 359 1628 359 
Q 2028 359 2233 526 
Q 2438 694 2438 981 
z
" transform="scale(0.015625)"/>
       </defs>
       <use xlink:href="#Calibri-30"/>
       <use xlink:href="#Calibri-2e" x="50.683594"/>
       <use xlink:href="#Calibri-38" x="75.927734"/>
      </g>
     </g>
    </g>
    <g id="xtick_10">
     <g id="line2d_10">
      <g>
       <use xlink:href="#mee1a8f314e" x="314.7264" y="307.584" style="stroke: #000000; stroke-width: 0.8"/>
      </g>
     </g>
     <g id="text_10">
      <!-- 0.9 -->
      <g transform="translate(308.39515 321.385562) scale(0.1 -0.1)">
       <defs>
        <path id="Calibri-39" d="M 2919 2181 
Q 2919 1919 2887 1650 
Q 2856 1381 2781 1132 
Q 2706 884 2579 667 
Q 2453 450 2261 287 
Q 2069 125 1805 33 
Q 1541 -59 1191 -59 
Q 1056 -59 929 -42 
Q 803 -25 701 0 
Q 600 25 531 53 
Q 463 81 431 109 
Q 400 138 386 186 
Q 372 234 372 316 
Q 372 384 376 425 
Q 381 466 390 487 
Q 400 509 417 517 
Q 434 525 459 525 
Q 494 525 556 501 
Q 619 478 714 450 
Q 809 422 937 398 
Q 1066 375 1225 375 
Q 1528 375 1745 492 
Q 1963 609 2100 806 
Q 2238 1003 2306 1262 
Q 2375 1522 2381 1809 
Q 2216 1713 1984 1638 
Q 1753 1563 1453 1563 
Q 1116 1563 886 1655 
Q 656 1747 517 1906 
Q 378 2066 317 2284 
Q 256 2503 256 2763 
Q 256 3031 334 3273 
Q 413 3516 578 3700 
Q 744 3884 1000 3993 
Q 1256 4103 1613 4103 
Q 1866 4103 2061 4039 
Q 2256 3975 2400 3854 
Q 2544 3734 2644 3564 
Q 2744 3394 2805 3178 
Q 2866 2963 2892 2711 
Q 2919 2459 2919 2181 
z
M 2372 2241 
Q 2372 2641 2319 2914 
Q 2266 3188 2162 3356 
Q 2059 3525 1909 3600 
Q 1759 3675 1563 3675 
Q 1359 3675 1215 3601 
Q 1072 3528 980 3404 
Q 888 3281 844 3125 
Q 800 2969 800 2803 
Q 800 2619 839 2466 
Q 878 2313 965 2206 
Q 1053 2100 1193 2042 
Q 1334 1984 1541 1984 
Q 1775 1984 1994 2054 
Q 2213 2125 2372 2241 
z
" transform="scale(0.015625)"/>
       </defs>
       <use xlink:href="#Calibri-30"/>
       <use xlink:href="#Calibri-2e" x="50.683594"/>
       <use xlink:href="#Calibri-39" x="75.927734"/>
      </g>
     </g>
    </g>
    <g id="xtick_11">
     <g id="line2d_11">
      <g>
       <use xlink:href="#mee1a8f314e" x="343.296" y="307.584" style="stroke: #000000; stroke-width: 0.8"/>
      </g>
     </g>
     <g id="text_11">
      <!-- 1.0 -->
      <g transform="translate(336.96475 321.385562) scale(0.1 -0.1)">
       <use xlink:href="#Calibri-31"/>
       <use xlink:href="#Calibri-2e" x="50.683594"/>
       <use xlink:href="#Calibri-30" x="75.927734"/>
      </g>
     </g>
    </g>
    <g id="text_12">
     <!-- $\mathit{p}$ (cm$^2$/cm$^2$) -->
     <g transform="translate(174.148 336.263687) scale(0.1 -0.1)">
      <defs>
       <path id="DejaVuSans-Oblique-70" d="M 3175 2156 
Q 3175 2616 2975 2859 
Q 2775 3103 2400 3103 
Q 2144 3103 1911 2972 
Q 1678 2841 1497 2591 
Q 1319 2344 1212 1994 
Q 1106 1644 1106 1300 
Q 1106 863 1306 627 
Q 1506 391 1875 391 
Q 2147 391 2380 519 
Q 2613 647 2778 891 
Q 2956 1147 3065 1494 
Q 3175 1841 3175 2156 
z
M 1394 2969 
Q 1625 3272 1939 3428 
Q 2253 3584 2638 3584 
Q 3175 3584 3472 3232 
Q 3769 2881 3769 2247 
Q 3769 1728 3584 1258 
Q 3400 788 3053 416 
Q 2822 169 2531 39 
Q 2241 -91 1919 -91 
Q 1547 -91 1294 64 
Q 1041 219 916 525 
L 556 -1331 
L -19 -1331 
L 922 3500 
L 1497 3500 
L 1394 2969 
z
" transform="scale(0.015625)"/>
       <path id="Calibri-20" transform="scale(0.015625)"/>
       <path id="Calibri-28" d="M 1547 4306 
Q 1250 3678 1104 3017 
Q 959 2356 959 1688 
Q 959 1016 1107 356 
Q 1256 -303 1541 -938 
Q 1556 -975 1557 -1001 
Q 1559 -1028 1537 -1045 
Q 1516 -1063 1470 -1070 
Q 1425 -1078 1347 -1078 
Q 1291 -1078 1250 -1075 
Q 1209 -1072 1179 -1062 
Q 1150 -1053 1131 -1040 
Q 1113 -1028 1103 -1013 
Q 934 -694 806 -367 
Q 678 -41 590 296 
Q 503 634 459 979 
Q 416 1325 416 1678 
Q 416 2031 464 2375 
Q 513 2719 602 3058 
Q 691 3397 819 3725 
Q 947 4053 1106 4375 
Q 1109 4388 1123 4397 
Q 1138 4406 1163 4415 
Q 1188 4425 1231 4429 
Q 1275 4434 1344 4434 
Q 1416 4434 1459 4425 
Q 1503 4416 1528 4400 
Q 1553 4384 1556 4359 
Q 1559 4334 1547 4306 
z
" transform="scale(0.015625)"/>
       <path id="Calibri-63" d="M 2500 506 
Q 2500 453 2497 414 
Q 2494 375 2486 348 
Q 2478 322 2467 301 
Q 2456 281 2417 242 
Q 2378 203 2284 145 
Q 2191 88 2073 42 
Q 1956 -3 1818 -31 
Q 1681 -59 1534 -59 
Q 1231 -59 997 41 
Q 763 141 605 333 
Q 447 525 364 804 
Q 281 1084 281 1450 
Q 281 1866 382 2164 
Q 484 2463 661 2653 
Q 838 2844 1077 2936 
Q 1316 3028 1594 3028 
Q 1728 3028 1854 3003 
Q 1981 2978 2087 2937 
Q 2194 2897 2276 2844 
Q 2359 2791 2396 2753 
Q 2434 2716 2448 2694 
Q 2463 2672 2472 2642 
Q 2481 2613 2484 2575 
Q 2488 2538 2488 2481 
Q 2488 2359 2459 2311 
Q 2431 2263 2391 2263 
Q 2344 2263 2283 2314 
Q 2222 2366 2128 2428 
Q 2034 2491 1901 2542 
Q 1769 2594 1588 2594 
Q 1216 2594 1017 2308 
Q 819 2022 819 1478 
Q 819 1206 870 1001 
Q 922 797 1022 659 
Q 1122 522 1267 455 
Q 1413 388 1600 388 
Q 1778 388 1912 444 
Q 2047 500 2145 567 
Q 2244 634 2311 689 
Q 2378 744 2416 744 
Q 2438 744 2453 731 
Q 2469 719 2480 689 
Q 2491 659 2495 614 
Q 2500 569 2500 506 
z
" transform="scale(0.015625)"/>
       <path id="Calibri-6d" d="M 4650 78 
Q 4650 53 4637 36 
Q 4625 19 4597 6 
Q 4569 -6 4519 -12 
Q 4469 -19 4394 -19 
Q 4316 -19 4266 -12 
Q 4216 -6 4186 6 
Q 4156 19 4143 36 
Q 4131 53 4131 78 
L 4131 1788 
Q 4131 1966 4100 2112 
Q 4069 2259 4000 2365 
Q 3931 2472 3825 2528 
Q 3719 2584 3575 2584 
Q 3397 2584 3217 2446 
Q 3038 2309 2822 2044 
L 2822 78 
Q 2822 53 2809 36 
Q 2797 19 2767 6 
Q 2738 -6 2688 -12 
Q 2638 -19 2563 -19 
Q 2491 -19 2439 -12 
Q 2388 -6 2358 6 
Q 2328 19 2317 36 
Q 2306 53 2306 78 
L 2306 1788 
Q 2306 1966 2272 2112 
Q 2238 2259 2169 2365 
Q 2100 2472 1995 2528 
Q 1891 2584 1747 2584 
Q 1569 2584 1387 2446 
Q 1206 2309 994 2044 
L 994 78 
Q 994 53 981 36 
Q 969 19 941 6 
Q 913 -6 863 -12 
Q 813 -19 734 -19 
Q 659 -19 609 -12 
Q 559 -6 529 6 
Q 500 19 489 36 
Q 478 53 478 78 
L 478 2891 
Q 478 2916 487 2933 
Q 497 2950 525 2964 
Q 553 2978 597 2983 
Q 641 2988 713 2988 
Q 781 2988 826 2983 
Q 872 2978 897 2964 
Q 922 2950 933 2933 
Q 944 2916 944 2891 
L 944 2519 
Q 1181 2784 1404 2907 
Q 1628 3031 1856 3031 
Q 2031 3031 2170 2990 
Q 2309 2950 2415 2876 
Q 2522 2803 2597 2701 
Q 2672 2600 2722 2475 
Q 2863 2628 2989 2734 
Q 3116 2841 3233 2906 
Q 3350 2972 3461 3001 
Q 3572 3031 3684 3031 
Q 3956 3031 4140 2936 
Q 4325 2841 4439 2681 
Q 4553 2522 4601 2308 
Q 4650 2094 4650 1856 
L 4650 78 
z
" transform="scale(0.015625)"/>
       <path id="DejaVuSans-32" d="M 1228 531 
L 3431 531 
L 3431 0 
L 469 0 
L 469 531 
Q 828 903 1448 1529 
Q 2069 2156 2228 2338 
Q 2531 2678 2651 2914 
Q 2772 3150 2772 3378 
Q 2772 3750 2511 3984 
Q 2250 4219 1831 4219 
Q 1534 4219 1204 4116 
Q 875 4013 500 3803 
L 500 4441 
Q 881 4594 1212 4672 
Q 1544 4750 1819 4750 
Q 2544 4750 2975 4387 
Q 3406 4025 3406 3419 
Q 3406 3131 3298 2873 
Q 3191 2616 2906 2266 
Q 2828 2175 2409 1742 
Q 1991 1309 1228 531 
z
" transform="scale(0.015625)"/>
       <path id="Calibri-2f" d="M 525 -753 
Q 513 -794 492 -817 
Q 472 -841 440 -853 
Q 409 -866 364 -872 
Q 319 -878 253 -878 
Q 175 -878 123 -867 
Q 72 -856 44 -836 
Q 16 -816 9 -786 
Q 3 -756 22 -716 
L 1913 4469 
Q 1925 4509 1945 4532 
Q 1966 4556 1995 4570 
Q 2025 4584 2072 4589 
Q 2119 4594 2184 4594 
Q 2263 4594 2313 4583 
Q 2363 4572 2391 4553 
Q 2419 4534 2425 4503 
Q 2431 4472 2416 4431 
L 525 -753 
z
" transform="scale(0.015625)"/>
       <path id="Calibri-29" d="M 1522 1678 
Q 1522 1325 1478 979 
Q 1434 634 1346 296 
Q 1259 -41 1132 -367 
Q 1006 -694 838 -1013 
Q 828 -1028 809 -1040 
Q 791 -1053 761 -1062 
Q 731 -1072 690 -1075 
Q 650 -1078 594 -1078 
Q 513 -1078 467 -1070 
Q 422 -1063 401 -1045 
Q 381 -1028 382 -1001 
Q 384 -975 400 -938 
Q 688 -306 834 355 
Q 981 1016 981 1688 
Q 981 2356 834 3017 
Q 688 3678 394 4306 
Q 381 4334 384 4359 
Q 388 4384 413 4400 
Q 438 4416 481 4425 
Q 525 4434 597 4434 
Q 663 4434 706 4429 
Q 750 4425 776 4415 
Q 803 4406 815 4397 
Q 828 4388 834 4375 
Q 1156 3734 1339 3057 
Q 1522 2381 1522 1678 
z
" transform="scale(0.015625)"/>
      </defs>
      <use xlink:href="#DejaVuSans-Oblique-70" transform="translate(0 0.765625)"/>
      <use xlink:href="#Calibri-20" transform="translate(63.476562 0.765625)"/>
      <use xlink:href="#Calibri-28" transform="translate(84.958984 0.765625)"/>
      <use xlink:href="#Calibri-63" transform="translate(115.28125 0.765625)"/>
      <use xlink:href="#Calibri-6d" transform="translate(157.566406 0.765625)"/>
      <use xlink:href="#DejaVuSans-32" transform="translate(238.40625 39.046875) scale(0.7)"/>
      <use xlink:href="#Calibri-2f" transform="translate(285.676758 0.765625)"/>
      <use xlink:href="#Calibri-63" transform="translate(324.299805 0.765625)"/>
      <use xlink:href="#Calibri-6d" transform="translate(366.584961 0.765625)"/>
      <use xlink:href="#DejaVuSans-32" transform="translate(447.424805 39.046875) scale(0.7)"/>
      <use xlink:href="#Calibri-29" transform="translate(494.695312 0.765625)"/>
     </g>
    </g>
   </g>
   <g id="matplotlib.axis_2">
    <g id="ytick_1">
     <g id="line2d_12">
      <defs>
       <path id="md70c89ea54" d="M 0 0 
L -3.5 0 
" style="stroke: #000000; stroke-width: 0.8"/>
      </defs>
      <g>
       <use xlink:href="#md70c89ea54" x="57.6" y="275.65056" style="stroke: #000000; stroke-width: 0.8"/>
      </g>
     </g>
     <g id="text_13">
      <!-- 25 -->
      <g transform="translate(40.4625 279.051341) scale(0.1 -0.1)">
       <use xlink:href="#Calibri-32"/>
       <use xlink:href="#Calibri-35" x="50.683594"/>
      </g>
     </g>
    </g>
    <g id="ytick_2">
     <g id="line2d_13">
      <g>
       <use xlink:href="#md70c89ea54" x="57.6" y="242.38656" style="stroke: #000000; stroke-width: 0.8"/>
      </g>
     </g>
     <g id="text_14">
      <!-- 50 -->
      <g transform="translate(40.4625 245.787341) scale(0.1 -0.1)">
       <use xlink:href="#Calibri-35"/>
       <use xlink:href="#Calibri-30" x="50.683594"/>
      </g>
     </g>
    </g>
    <g id="ytick_3">
     <g id="line2d_14">
      <g>
       <use xlink:href="#md70c89ea54" x="57.6" y="209.12256" style="stroke: #000000; stroke-width: 0.8"/>
      </g>
     </g>
     <g id="text_15">
      <!-- 75 -->
      <g transform="translate(40.4625 212.523341) scale(0.1 -0.1)">
       <use xlink:href="#Calibri-37"/>
       <use xlink:href="#Calibri-35" x="50.683594"/>
      </g>
     </g>
    </g>
    <g id="ytick_4">
     <g id="line2d_15">
      <g>
       <use xlink:href="#md70c89ea54" x="57.6" y="175.85856" style="stroke: #000000; stroke-width: 0.8"/>
      </g>
     </g>
     <g id="text_16">
      <!-- 100 -->
      <g transform="translate(35.39375 179.259341) scale(0.1 -0.1)">
       <use xlink:href="#Calibri-31"/>
       <use xlink:href="#Calibri-30" x="50.683594"/>
       <use xlink:href="#Calibri-30" x="101.367188"/>
      </g>
     </g>
    </g>
    <g id="ytick_5">
     <g id="line2d_16">
      <g>
       <use xlink:href="#md70c89ea54" x="57.6" y="142.59456" style="stroke: #000000; stroke-width: 0.8"/>
      </g>
     </g>
     <g id="text_17">
      <!-- 125 -->
      <g transform="translate(35.39375 145.995341) scale(0.1 -0.1)">
       <use xlink:href="#Calibri-31"/>
       <use xlink:href="#Calibri-32" x="50.683594"/>
       <use xlink:href="#Calibri-35" x="101.367188"/>
      </g>
     </g>
    </g>
    <g id="ytick_6">
     <g id="line2d_17">
      <g>
       <use xlink:href="#md70c89ea54" x="57.6" y="109.33056" style="stroke: #000000; stroke-width: 0.8"/>
      </g>
     </g>
     <g id="text_18">
      <!-- 150 -->
      <g transform="translate(35.39375 112.731341) scale(0.1 -0.1)">
       <use xlink:href="#Calibri-31"/>
       <use xlink:href="#Calibri-35" x="50.683594"/>
       <use xlink:href="#Calibri-30" x="101.367188"/>
      </g>
     </g>
    </g>
    <g id="ytick_7">
     <g id="line2d_18">
      <g>
       <use xlink:href="#md70c89ea54" x="57.6" y="76.06656" style="stroke: #000000; stroke-width: 0.8"/>
      </g>
     </g>
     <g id="text_19">
      <!-- 175 -->
      <g transform="translate(35.39375 79.467341) scale(0.1 -0.1)">
       <use xlink:href="#Calibri-31"/>
       <use xlink:href="#Calibri-37" x="50.683594"/>
       <use xlink:href="#Calibri-35" x="101.367188"/>
      </g>
     </g>
    </g>
    <g id="ytick_8">
     <g id="line2d_19">
      <g>
       <use xlink:href="#md70c89ea54" x="57.6" y="42.80256" style="stroke: #000000; stroke-width: 0.8"/>
      </g>
     </g>
     <g id="text_20">
      <!-- 200 -->
      <g transform="translate(35.39375 46.203341) scale(0.1 -0.1)">
       <use xlink:href="#Calibri-32"/>
       <use xlink:href="#Calibri-30" x="50.683594"/>
       <use xlink:href="#Calibri-30" x="101.367188"/>
      </g>
     </g>
    </g>
    <g id="text_21">
     <!-- $\mathit{Z}$$_{a}$ (nm) -->
     <g transform="translate(29.59375 191.028) rotate(-90) scale(0.1 -0.1)">
      <defs>
       <path id="DejaVuSans-Oblique-5a" d="M 838 4666 
L 4500 4666 
L 4409 4184 
L 794 531 
L 3769 531 
L 3669 0 
L -141 0 
L -50 481 
L 3566 4134 
L 738 4134 
L 838 4666 
z
" transform="scale(0.015625)"/>
       <path id="DejaVuSans-Oblique-61" d="M 3438 1997 
L 3047 0 
L 2472 0 
L 2578 531 
Q 2325 219 2001 64 
Q 1678 -91 1281 -91 
Q 834 -91 548 182 
Q 263 456 263 884 
Q 263 1497 752 1853 
Q 1241 2209 2100 2209 
L 2900 2209 
L 2931 2363 
Q 2938 2388 2941 2417 
Q 2944 2447 2944 2509 
Q 2944 2788 2717 2942 
Q 2491 3097 2081 3097 
Q 1800 3097 1504 3025 
Q 1209 2953 897 2809 
L 997 3341 
Q 1322 3463 1633 3523 
Q 1944 3584 2234 3584 
Q 2853 3584 3176 3315 
Q 3500 3047 3500 2534 
Q 3500 2431 3484 2292 
Q 3469 2153 3438 1997 
z
M 2816 1759 
L 2241 1759 
Q 1534 1759 1195 1570 
Q 856 1381 856 984 
Q 856 709 1029 553 
Q 1203 397 1509 397 
Q 1978 397 2328 733 
Q 2678 1069 2791 1631 
L 2816 1759 
z
" transform="scale(0.015625)"/>
       <path id="Calibri-6e" d="M 2900 78 
Q 2900 53 2887 36 
Q 2875 19 2847 6 
Q 2819 -6 2769 -12 
Q 2719 -19 2644 -19 
Q 2566 -19 2516 -12 
Q 2466 -6 2437 6 
Q 2409 19 2396 36 
Q 2384 53 2384 78 
L 2384 1725 
Q 2384 1966 2346 2112 
Q 2309 2259 2237 2365 
Q 2166 2472 2052 2528 
Q 1938 2584 1788 2584 
Q 1594 2584 1400 2446 
Q 1206 2309 994 2044 
L 994 78 
Q 994 53 981 36 
Q 969 19 941 6 
Q 913 -6 863 -12 
Q 813 -19 734 -19 
Q 659 -19 609 -12 
Q 559 -6 529 6 
Q 500 19 489 36 
Q 478 53 478 78 
L 478 2891 
Q 478 2916 487 2933 
Q 497 2950 525 2964 
Q 553 2978 597 2983 
Q 641 2988 713 2988 
Q 781 2988 826 2983 
Q 872 2978 897 2964 
Q 922 2950 933 2933 
Q 944 2916 944 2891 
L 944 2519 
Q 1181 2784 1417 2907 
Q 1653 3031 1894 3031 
Q 2175 3031 2367 2936 
Q 2559 2841 2678 2681 
Q 2797 2522 2848 2308 
Q 2900 2094 2900 1794 
L 2900 78 
z
" transform="scale(0.015625)"/>
      </defs>
      <use xlink:href="#DejaVuSans-Oblique-5a" transform="translate(0 0.09375)"/>
      <use xlink:href="#DejaVuSans-Oblique-61" transform="translate(69.462891 -16.3125) scale(0.7)"/>
      <use xlink:href="#Calibri-20" transform="translate(115.092773 0.09375)"/>
      <use xlink:href="#Calibri-28" transform="translate(136.575195 0.09375)"/>
      <use xlink:href="#Calibri-6e" transform="translate(166.897461 0.09375)"/>
      <use xlink:href="#Calibri-6d" transform="translate(219.436523 0.09375)"/>
      <use xlink:href="#Calibri-29" transform="translate(299.319336 0.09375)"/>
     </g>
    </g>
   </g>
   <g id="patch_3">
    <path d="M 57.6 307.584 
L 57.6 41.472 
" style="fill: none; stroke: #000000; stroke-width: 0.8; stroke-linejoin: miter; stroke-linecap: square"/>
   </g>
   <g id="patch_4">
    <path d="M 343.296 307.584 
L 343.296 41.472 
" style="fill: none; stroke: #000000; stroke-width: 0.8; stroke-linejoin: miter; stroke-linecap: square"/>
   </g>
   <g id="patch_5">
    <path d="M 57.6 307.584 
L 343.296 307.584 
" style="fill: none; stroke: #000000; stroke-width: 0.8; stroke-linejoin: miter; stroke-linecap: square"/>
   </g>
   <g id="patch_6">
    <path d="M 57.6 41.472 
L 343.296 41.472 
" style="fill: none; stroke: #000000; stroke-width: 0.8; stroke-linejoin: miter; stroke-linecap: square"/>
   </g>
   <g id="text_22">
    <!-- $\theta_m$ = 34 -->
    <g transform="translate(182.298 35.472) scale(0.1 -0.1)">
     <defs>
      <path id="DejaVuSans-Oblique-3b8" d="M 2913 2219 
L 925 2219 
Q 791 1284 928 888 
Q 1100 400 1566 400 
Q 2034 400 2391 891 
Q 2703 1322 2913 2219 
z
M 3009 2750 
Q 3094 3638 2984 3950 
Q 2813 4444 2353 4444 
Q 1875 4444 1525 3956 
Q 1250 3563 1034 2750 
L 3009 2750 
z
M 2444 4913 
Q 3194 4913 3494 4250 
Q 3794 3591 3566 2422 
Q 3341 1256 2781 594 
Q 2225 -72 1475 -72 
Q 722 -72 425 594 
Q 128 1256 353 2422 
Q 581 3591 1134 4250 
Q 1691 4913 2444 4913 
z
" transform="scale(0.015625)"/>
      <path id="DejaVuSans-Oblique-6d" d="M 5747 2113 
L 5338 0 
L 4763 0 
L 5166 2094 
Q 5191 2228 5203 2325 
Q 5216 2422 5216 2491 
Q 5216 2772 5059 2928 
Q 4903 3084 4622 3084 
Q 4203 3084 3875 2770 
Q 3547 2456 3450 1953 
L 3066 0 
L 2491 0 
L 2900 2094 
Q 2925 2209 2937 2307 
Q 2950 2406 2950 2484 
Q 2950 2769 2794 2926 
Q 2638 3084 2363 3084 
Q 1938 3084 1609 2770 
Q 1281 2456 1184 1953 
L 800 0 
L 225 0 
L 909 3500 
L 1484 3500 
L 1375 2956 
Q 1609 3263 1923 3423 
Q 2238 3584 2597 3584 
Q 2978 3584 3223 3384 
Q 3469 3184 3519 2828 
Q 3781 3197 4126 3390 
Q 4472 3584 4856 3584 
Q 5306 3584 5551 3325 
Q 5797 3066 5797 2591 
Q 5797 2488 5784 2364 
Q 5772 2241 5747 2113 
z
" transform="scale(0.015625)"/>
      <path id="Calibri-3d" d="M 2891 2409 
Q 2891 2284 2855 2236 
Q 2819 2188 2772 2188 
L 409 2188 
Q 363 2188 328 2236 
Q 294 2284 294 2409 
Q 294 2522 325 2575 
Q 356 2628 409 2628 
L 2772 2628 
Q 2828 2628 2859 2575 
Q 2891 2522 2891 2409 
z
M 2891 1194 
Q 2891 1069 2855 1022 
Q 2819 975 2772 975 
L 409 975 
Q 363 975 328 1022 
Q 294 1069 294 1194 
Q 294 1309 325 1362 
Q 356 1416 409 1416 
L 2772 1416 
Q 2828 1416 2859 1362 
Q 2891 1309 2891 1194 
z
" transform="scale(0.015625)"/>
      <path id="Calibri-b0" d="M 1847 3541 
Q 1847 3388 1789 3253 
Q 1731 3119 1626 3017 
Q 1522 2916 1380 2859 
Q 1238 2803 1072 2803 
Q 906 2803 770 2854 
Q 634 2906 534 3000 
Q 434 3094 378 3225 
Q 322 3356 322 3516 
Q 322 3675 381 3811 
Q 441 3947 545 4044 
Q 650 4141 790 4197 
Q 931 4253 1097 4253 
Q 1259 4253 1396 4200 
Q 1534 4147 1634 4055 
Q 1734 3963 1790 3831 
Q 1847 3700 1847 3541 
z
M 1453 3528 
Q 1453 3613 1425 3686 
Q 1397 3759 1347 3812 
Q 1297 3866 1228 3895 
Q 1159 3925 1078 3925 
Q 1000 3925 933 3895 
Q 866 3866 816 3812 
Q 766 3759 737 3687 
Q 709 3616 709 3534 
Q 709 3444 737 3369 
Q 766 3294 817 3241 
Q 869 3188 939 3158 
Q 1009 3128 1091 3128 
Q 1166 3128 1233 3159 
Q 1300 3191 1348 3245 
Q 1397 3300 1425 3372 
Q 1453 3444 1453 3528 
z
M 0 4044 
L 0 4044 
z
" transform="scale(0.015625)"/>
     </defs>
     <use xlink:href="#DejaVuSans-Oblique-3b8" transform="translate(0 0.234375)"/>
     <use xlink:href="#DejaVuSans-Oblique-6d" transform="translate(61.181641 -16.171875) scale(0.7)"/>
     <use xlink:href="#Calibri-20" transform="translate(132.104492 0.234375)"/>
     <use xlink:href="#Calibri-3d" transform="translate(154.711914 0.234375)"/>
     <use xlink:href="#Calibri-20" transform="translate(204.516602 0.234375)"/>
     <use xlink:href="#Calibri-33" transform="translate(227.124023 0.234375)"/>
     <use xlink:href="#Calibri-34" transform="translate(277.807617 0.234375)"/>
     <use xlink:href="#Calibri-b0" transform="translate(328.491211 0.234375)"/>
    </g>
   </g>
  </g>
  <g id="axes_2">
   <g id="patch_7">
    <path d="M 361.152 307.584 
L 374.4576 307.584 
L 374.4576 41.472 
L 361.152 41.472 
z
" style="fill: #ffffff"/>
   </g>
   <g id="QuadMesh_1">
    <path d="M 361.152 307.584 
L 374.4576 307.584 
L 374.4576 280.9728 
L 361.152 280.9728 
L 361.152 307.584 
" clip-path="url(#pc58ff7f4c1)" style="fill: #0000b6"/>
    <path d="M 361.152 280.9728 
L 374.4576 280.9728 
L 374.4576 254.3616 
L 361.152 254.3616 
L 361.152 280.9728 
" clip-path="url(#pc58ff7f4c1)" style="fill: #0018ff"/>
    <path d="M 361.152 254.3616 
L 374.4576 254.3616 
L 374.4576 227.7504 
L 361.152 227.7504 
L 361.152 254.3616 
" clip-path="url(#pc58ff7f4c1)" style="fill: #0080ff"/>
    <path d="M 361.152 227.7504 
L 374.4576 227.7504 
L 374.4576 201.1392 
L 361.152 201.1392 
L 361.152 227.7504 
" clip-path="url(#pc58ff7f4c1)" style="fill: #00e4f8"/>
    <path d="M 361.152 201.1392 
L 374.4576 201.1392 
L 374.4576 174.528 
L 361.152 174.528 
L 361.152 201.1392 
" clip-path="url(#pc58ff7f4c1)" style="fill: #53ffa4"/>
    <path d="M 361.152 174.528 
L 374.4576 174.528 
L 374.4576 147.9168 
L 361.152 147.9168 
L 361.152 174.528 
" clip-path="url(#pc58ff7f4c1)" style="fill: #a4ff53"/>
    <path d="M 361.152 147.9168 
L 374.4576 147.9168 
L 374.4576 121.3056 
L 361.152 121.3056 
L 361.152 147.9168 
" clip-path="url(#pc58ff7f4c1)" style="fill: #f8f500"/>
    <path d="M 361.152 121.3056 
L 374.4576 121.3056 
L 374.4576 94.6944 
L 361.152 94.6944 
L 361.152 121.3056 
" clip-path="url(#pc58ff7f4c1)" style="fill: #ff9400"/>
    <path d="M 361.152 94.6944 
L 374.4576 94.6944 
L 374.4576 68.0832 
L 361.152 68.0832 
L 361.152 94.6944 
" clip-path="url(#pc58ff7f4c1)" style="fill: #ff3800"/>
    <path d="M 361.152 68.0832 
L 374.4576 68.0832 
L 374.4576 41.472 
L 361.152 41.472 
L 361.152 68.0832 
" clip-path="url(#pc58ff7f4c1)" style="fill: #b60000"/>
   </g>
   <g id="matplotlib.axis_3"/>
   <g id="matplotlib.axis_4">
    <g id="ytick_9">
     <g id="line2d_20">
      <defs>
       <path id="mc5d029b86a" d="M 0 0 
L 3.5 0 
" style="stroke: #000000; stroke-width: 0.8"/>
      </defs>
      <g>
       <use xlink:href="#mc5d029b86a" x="374.4576" y="307.584" style="stroke: #000000; stroke-width: 0.8"/>
      </g>
     </g>
     <g id="text_23">
      <!-- 0 -->
      <g transform="translate(381.4576 310.984781) scale(0.1 -0.1)">
       <use xlink:href="#Calibri-30"/>
      </g>
     </g>
    </g>
    <g id="ytick_10">
     <g id="line2d_21">
      <g>
       <use xlink:href="#mc5d029b86a" x="374.4576" y="280.9728" style="stroke: #000000; stroke-width: 0.8"/>
      </g>
     </g>
     <g id="text_24">
      <!-- 0.1 -->
      <g transform="translate(381.4576 284.373581) scale(0.1 -0.1)">
       <use xlink:href="#Calibri-30"/>
       <use xlink:href="#Calibri-2e" x="50.683594"/>
       <use xlink:href="#Calibri-31" x="75.927734"/>
      </g>
     </g>
    </g>
    <g id="ytick_11">
     <g id="line2d_22">
      <g>
       <use xlink:href="#mc5d029b86a" x="374.4576" y="254.3616" style="stroke: #000000; stroke-width: 0.8"/>
      </g>
     </g>
     <g id="text_25">
      <!-- 0.2 -->
      <g transform="translate(381.4576 257.762381) scale(0.1 -0.1)">
       <use xlink:href="#Calibri-30"/>
       <use xlink:href="#Calibri-2e" x="50.683594"/>
       <use xlink:href="#Calibri-32" x="75.927734"/>
      </g>
     </g>
    </g>
    <g id="ytick_12">
     <g id="line2d_23">
      <g>
       <use xlink:href="#mc5d029b86a" x="374.4576" y="227.7504" style="stroke: #000000; stroke-width: 0.8"/>
      </g>
     </g>
     <g id="text_26">
      <!-- 0.3 -->
      <g transform="translate(381.4576 231.151181) scale(0.1 -0.1)">
       <use xlink:href="#Calibri-30"/>
       <use xlink:href="#Calibri-2e" x="50.683594"/>
       <use xlink:href="#Calibri-33" x="75.927734"/>
      </g>
     </g>
    </g>
    <g id="ytick_13">
     <g id="line2d_24">
      <g>
       <use xlink:href="#mc5d029b86a" x="374.4576" y="201.1392" style="stroke: #000000; stroke-width: 0.8"/>
      </g>
     </g>
     <g id="text_27">
      <!-- 0.4 -->
      <g transform="translate(381.4576 204.539981) scale(0.1 -0.1)">
       <use xlink:href="#Calibri-30"/>
       <use xlink:href="#Calibri-2e" x="50.683594"/>
       <use xlink:href="#Calibri-34" x="75.927734"/>
      </g>
     </g>
    </g>
    <g id="ytick_14">
     <g id="line2d_25">
      <g>
       <use xlink:href="#mc5d029b86a" x="374.4576" y="174.528" style="stroke: #000000; stroke-width: 0.8"/>
      </g>
     </g>
     <g id="text_28">
      <!-- 0.5 -->
      <g transform="translate(381.4576 177.928781) scale(0.1 -0.1)">
       <use xlink:href="#Calibri-30"/>
       <use xlink:href="#Calibri-2e" x="50.683594"/>
       <use xlink:href="#Calibri-35" x="75.927734"/>
      </g>
     </g>
    </g>
    <g id="ytick_15">
     <g id="line2d_26">
      <g>
       <use xlink:href="#mc5d029b86a" x="374.4576" y="147.9168" style="stroke: #000000; stroke-width: 0.8"/>
      </g>
     </g>
     <g id="text_29">
      <!-- 0.6 -->
      <g transform="translate(381.4576 151.317581) scale(0.1 -0.1)">
       <use xlink:href="#Calibri-30"/>
       <use xlink:href="#Calibri-2e" x="50.683594"/>
       <use xlink:href="#Calibri-36" x="75.927734"/>
      </g>
     </g>
    </g>
    <g id="ytick_16">
     <g id="line2d_27">
      <g>
       <use xlink:href="#mc5d029b86a" x="374.4576" y="121.3056" style="stroke: #000000; stroke-width: 0.8"/>
      </g>
     </g>
     <g id="text_30">
      <!-- 0.7 -->
      <g transform="translate(381.4576 124.706381) scale(0.1 -0.1)">
       <use xlink:href="#Calibri-30"/>
       <use xlink:href="#Calibri-2e" x="50.683594"/>
       <use xlink:href="#Calibri-37" x="75.927734"/>
      </g>
     </g>
    </g>
    <g id="ytick_17">
     <g id="line2d_28">
      <g>
       <use xlink:href="#mc5d029b86a" x="374.4576" y="94.6944" style="stroke: #000000; stroke-width: 0.8"/>
      </g>
     </g>
     <g id="text_31">
      <!-- 0.8 -->
      <g transform="translate(381.4576 98.095181) scale(0.1 -0.1)">
       <use xlink:href="#Calibri-30"/>
       <use xlink:href="#Calibri-2e" x="50.683594"/>
       <use xlink:href="#Calibri-38" x="75.927734"/>
      </g>
     </g>
    </g>
    <g id="ytick_18">
     <g id="line2d_29">
      <g>
       <use xlink:href="#mc5d029b86a" x="374.4576" y="68.0832" style="stroke: #000000; stroke-width: 0.8"/>
      </g>
     </g>
     <g id="text_32">
      <!-- 0.9 -->
      <g transform="translate(381.4576 71.483981) scale(0.1 -0.1)">
       <use xlink:href="#Calibri-30"/>
       <use xlink:href="#Calibri-2e" x="50.683594"/>
       <use xlink:href="#Calibri-39" x="75.927734"/>
      </g>
     </g>
    </g>
    <g id="ytick_19">
     <g id="line2d_30">
      <g>
       <use xlink:href="#mc5d029b86a" x="374.4576" y="41.472" style="stroke: #000000; stroke-width: 0.8"/>
      </g>
     </g>
     <g id="text_33">
      <!-- 1.0 -->
      <g transform="translate(381.4576 44.872781) scale(0.1 -0.1)">
       <use xlink:href="#Calibri-31"/>
       <use xlink:href="#Calibri-2e" x="50.683594"/>
       <use xlink:href="#Calibri-30" x="75.927734"/>
      </g>
     </g>
    </g>
   </g>
   <g id="LineCollection_1"/>
   <g id="patch_8">
    <path d="M 361.152 307.584 
L 367.8048 307.584 
L 374.4576 307.584 
L 374.4576 41.472 
L 367.8048 41.472 
L 361.152 41.472 
L 361.152 307.584 
z
" style="fill: none; stroke: #000000; stroke-width: 0.8; stroke-linejoin: miter; stroke-linecap: square"/>
   </g>
   <g id="text_34">
    <!-- $\mathit{E}_{\mathrm{NF}}$/$\mathit{E}_{\mathrm{i}}$ -->
    <g transform="translate(353.6548 35.472) scale(0.1 -0.1)">
     <defs>
      <path id="DejaVuSans-Oblique-45" d="M 1081 4666 
L 4031 4666 
L 3928 4134 
L 1606 4134 
L 1338 2753 
L 3566 2753 
L 3463 2222 
L 1234 2222 
L 909 531 
L 3284 531 
L 3181 0 
L 172 0 
L 1081 4666 
z
" transform="scale(0.015625)"/>
      <path id="DejaVuSans-4e" d="M 628 4666 
L 1478 4666 
L 3547 763 
L 3547 4666 
L 4159 4666 
L 4159 0 
L 3309 0 
L 1241 3903 
L 1241 0 
L 628 0 
L 628 4666 
z
" transform="scale(0.015625)"/>
      <path id="DejaVuSans-46" d="M 628 4666 
L 3309 4666 
L 3309 4134 
L 1259 4134 
L 1259 2759 
L 3109 2759 
L 3109 2228 
L 1259 2228 
L 1259 0 
L 628 0 
L 628 4666 
z
" transform="scale(0.015625)"/>
      <path id="DejaVuSans-69" d="M 603 3500 
L 1178 3500 
L 1178 0 
L 603 0 
L 603 3500 
z
M 603 4863 
L 1178 4863 
L 1178 4134 
L 603 4134 
L 603 4863 
z
" transform="scale(0.015625)"/>
     </defs>
     <use xlink:href="#DejaVuSans-Oblique-45" transform="translate(0 0.09375)"/>
     <use xlink:href="#DejaVuSans-4e" transform="translate(63.183594 -16.3125) scale(0.7)"/>
     <use xlink:href="#DejaVuSans-46" transform="translate(115.546875 -16.3125) scale(0.7)"/>
     <use xlink:href="#Calibri-2f" transform="translate(158.544922 0.09375)"/>
     <use xlink:href="#DejaVuSans-Oblique-45" transform="translate(197.167969 0.09375)"/>
     <use xlink:href="#DejaVuSans-69" transform="translate(260.351562 -16.3125) scale(0.7)"/>
    </g>
   </g>
  </g>
 </g>
 <defs>
  <clipPath id="p1f77e7c4d6">
   <rect x="57.6" y="41.472" width="285.696" height="266.112"/>
  </clipPath>
  <clipPath id="pc58ff7f4c1">
   <rect x="361.152" y="41.472" width="13.3056" height="266.112"/>
  </clipPath>
 </defs>
</svg>
