<?xml version="1.0" encoding="utf-8" standalone="no"?>
<!DOCTYPE svg PUBLIC "-//W3C//DTD SVG 1.1//EN"
  "http://www.w3.org/Graphics/SVG/1.1/DTD/svg11.dtd">
<svg xmlns:xlink="http://www.w3.org/1999/xlink" width="460.8pt" height="345.6pt" viewBox="0 0 460.8 345.6" xmlns="http://www.w3.org/2000/svg" version="1.1">
 <metadata>
  <rdf:RDF xmlns:dc="http://purl.org/dc/elements/1.1/" xmlns:cc="http://creativecommons.org/ns#" xmlns:rdf="http://www.w3.org/1999/02/22-rdf-syntax-ns#">
   <cc:Work>
    <dc:type rdf:resource="http://purl.org/dc/dcmitype/StillImage"/>
    <dc:date>2024-01-22T08:38:34.136752</dc:date>
    <dc:format>image/svg+xml</dc:format>
    <dc:creator>
     <cc:Agent>
      <dc:title>Matplotlib v3.7.1, https://matplotlib.org/</dc:title>
     </cc:Agent>
    </dc:creator>
   </cc:Work>
  </rdf:RDF>
 </metadata>
 <defs>
  <style type="text/css">*{stroke-linejoin: round; stroke-linecap: butt}</style>
 </defs>
 <g id="figure_1">
  <g id="patch_1">
   <path d="M 0 345.6 
L 460.8 345.6 
L 460.8 0 
L 0 0 
z
" style="fill: #ffffff"/>
  </g>
  <g id="axes_1">
   <g id="patch_2">
    <path d="M 57.6 307.584 
L 343.296 307.584 
L 343.296 41.472 
L 57.6 41.472 
z
" style="fill: #ffffff"/>
   </g>
   <g id="PathCollection_1">
    <path d="M 93.772898 41.472 
L 94.036015 41.82488 
L 94.501007 42.44628 
L 94.615271 42.597391 
L 94.866396 42.931917 
L 95.93171 44.339208 
L 96.276032 44.7984 
L 97.051722 45.817491 
L 97.568134 46.501029 
L 97.831642 46.844285 
L 98.06444 47.15052 
L 98.79099 48.104729 
L 98.806625 48.1248 
L 98.82931 48.154729 
L 98.890873 48.235192 
L 99.556236 49.09908 
L 99.738194 49.334913 
L 99.941442 49.600941 
L 100.505669 50.327736 
L 101.371026 51.4512 
L 101.65179 51.810159 
L 102.456991 52.850065 
L 102.953823 53.486156 
L 103.33993 53.976316 
L 103.33993 51.4512 
L 103.33993 48.1248 
L 103.33993 44.7984 
L 103.33993 41.472 
L 101.816218 41.472 
L 100.292506 41.472 
L 98.768794 41.472 
L 97.245082 41.472 
L 95.72137 41.472 
L 94.197658 41.472 
" clip-path="url(#pb6ac157fed)" style="fill: #0000b6"/>
   </g>
   <g id="PathCollection_2">
    <path d="M 103.33993 53.976316 
L 102.953823 53.486156 
L 102.456991 52.850065 
L 101.65179 51.810159 
L 101.371026 51.4512 
L 100.505669 50.327736 
L 99.941442 49.600941 
L 99.738194 49.334913 
L 99.556236 49.09908 
L 98.890873 48.235192 
L 98.82931 48.154729 
L 98.806625 48.1248 
L 98.79099 48.104729 
L 98.06444 47.15052 
L 97.831642 46.844285 
L 97.568134 46.501029 
L 97.051722 45.817491 
L 96.276032 44.7984 
L 95.93171 44.339208 
L 94.866396 42.931917 
L 94.615271 42.597391 
L 94.501007 42.44628 
L 94.036015 41.82488 
L 93.772898 41.472 
L 92.673946 41.472 
L 91.150234 41.472 
L 89.626522 41.472 
L 88.10281 41.472 
L 86.579098 41.472 
L 85.055386 41.472 
L 83.531674 41.472 
L 82.007962 41.472 
L 80.48425 41.472 
L 78.960538 41.472 
L 77.436826 41.472 
L 75.913114 41.472 
L 74.389402 41.472 
L 72.86569 41.472 
L 71.341978 41.472 
L 69.818266 41.472 
L 68.294554 41.472 
L 66.770842 41.472 
L 65.24713 41.472 
L 63.723418 41.472 
L 62.199706 41.472 
L 60.675994 41.472 
L 59.152282 41.472 
L 57.62857 41.472 
L 57.62857 44.7984 
L 57.62857 48.1248 
L 57.62857 51.4512 
L 57.62857 54.7776 
L 57.62857 58.104 
L 57.62857 61.4304 
L 57.62857 64.7568 
L 57.62857 68.0832 
L 57.62857 71.4096 
L 57.62857 74.736 
L 57.62857 78.0624 
L 57.62857 81.3888 
L 57.62857 84.7152 
L 57.62857 88.0416 
L 57.62857 91.368 
L 57.62857 94.6944 
L 57.62857 98.0208 
L 57.62857 101.3472 
L 57.62857 104.6736 
L 57.62857 108 
L 57.62857 111.3264 
L 57.62857 114.6528 
L 57.62857 116.806587 
L 57.806219 117.042908 
L 58.516773 117.9792 
L 58.914595 118.498091 
L 60.097927 120.043629 
L 60.247458 120.237771 
L 60.319419 120.33132 
L 60.545127 120.616756 
L 61.083465 121.3056 
L 61.540319 121.901861 
L 61.837277 122.27988 
L 62.746645 123.437981 
L 63.682457 124.632 
L 63.715502 124.67372 
L 63.736331 124.700057 
L 64.67705 125.876535 
L 65.560697 126.98412 
L 65.880846 127.385352 
L 66.032683 127.569897 
L 66.348612 127.9584 
L 66.901347 128.647423 
L 67.127551 128.93268 
L 67.200199 129.021898 
L 67.332646 129.18487 
L 68.565769 130.692713 
L 69.048664 131.2848 
L 69.674304 132.043543 
L 70.048523 132.49836 
L 70.524173 133.07014 
L 70.994226 133.63692 
L 71.605372 134.373021 
L 71.8072 134.6112 
L 72.561608 135.515152 
L 72.619631 135.58548 
L 73.185186 136.253711 
L 74.131616 137.374831 
L 74.466596 137.769077 
L 74.609286 137.9376 
L 75.676631 139.183971 
L 76.284696 139.896003 
L 76.451337 140.08901 
L 76.623973 140.28972 
L 77.451883 141.250384 
L 77.45568 141.254676 
L 77.463834 141.264 
L 77.483945 141.287303 
L 77.561409 141.376656 
L 78.310728 142.23828 
L 78.444126 142.391372 
L 78.571035 142.537547 
L 79.211563 143.267383 
L 80.369043 144.5904 
L 80.444955 144.676184 
L 80.60857 144.861803 
L 81.719018 146.113263 
L 82.452379 146.94252 
L 82.452956 146.943158 
L 83.324896 147.9168 
L 83.387991 147.98786 
L 83.416806 148.020671 
L 84.199951 148.89108 
L 84.471318 149.191873 
L 84.71835 149.46687 
L 85.275915 150.080913 
L 86.327422 151.2432 
L 86.495156 151.426452 
L 86.832765 151.796979 
L 87.798079 152.849266 
L 88.479827 153.59532 
L 88.501729 153.618745 
L 89.381016 154.5696 
L 89.492185 154.691076 
L 90.28433 155.54388 
L 90.565672 155.845751 
L 90.811522 156.110837 
L 91.374912 156.711846 
L 92.480317 157.896 
L 92.610717 158.034035 
L 92.857409 158.296517 
L 93.910518 159.409356 
L 94.629603 160.172543 
L 94.662662 160.207253 
L 94.701366 160.24812 
L 95.053583 160.618544 
L 95.546122 161.13573 
L 95.628987 161.2224 
L 95.658465 161.25351 
L 95.67154 161.26746 
L 96.560734 162.19668 
L 96.721935 162.364476 
L 96.857568 162.506428 
L 97.505322 163.177216 
L 98.718823 164.43971 
L 98.786661 164.509794 
L 98.824193 164.5488 
L 100.053138 165.810376 
L 100.648369 166.424357 
L 100.858745 166.639049 
L 101.11377 166.90092 
L 101.94922 167.75493 
L 102.067103 167.8752 
L 102.935283 168.758581 
L 103.33993 169.161813 
L 103.33993 167.8752 
L 103.33993 164.5488 
L 103.33993 161.2224 
L 103.33993 157.896 
L 103.33993 154.5696 
L 103.33993 151.2432 
L 103.33993 147.9168 
L 103.33993 144.5904 
L 103.33993 141.264 
L 103.33993 137.9376 
L 103.33993 134.6112 
L 103.33993 131.2848 
L 103.33993 127.9584 
L 103.33993 124.632 
L 103.33993 121.3056 
L 103.33993 117.9792 
L 103.33993 114.6528 
L 103.33993 111.3264 
L 103.33993 108 
L 103.33993 104.6736 
L 103.33993 101.3472 
L 103.33993 98.0208 
L 103.33993 94.6944 
L 103.33993 91.368 
L 103.33993 88.0416 
L 103.33993 84.7152 
L 103.33993 81.3888 
L 103.33993 78.0624 
L 103.33993 74.736 
L 103.33993 71.4096 
L 103.33993 68.0832 
L 103.33993 64.7568 
L 103.33993 61.4304 
L 103.33993 58.104 
L 103.33993 54.7776 
" clip-path="url(#pb6ac157fed)" style="fill: #0018ff"/>
   </g>
   <g id="PathCollection_3">
    <path d="M 103.33993 169.161813 
L 102.935283 168.758581 
L 102.067103 167.8752 
L 101.94922 167.75493 
L 101.11377 166.90092 
L 100.858745 166.639049 
L 100.648369 166.424357 
L 100.053138 165.810376 
L 98.824193 164.5488 
L 98.786661 164.509794 
L 98.718823 164.43971 
L 97.505322 163.177216 
L 96.857568 162.506428 
L 96.721935 162.364476 
L 96.560734 162.19668 
L 95.67154 161.26746 
L 95.658465 161.25351 
L 95.628987 161.2224 
L 95.546122 161.13573 
L 95.053583 160.618544 
L 94.701366 160.24812 
L 94.662662 160.207253 
L 94.629603 160.172543 
L 93.910518 159.409356 
L 92.857409 158.296517 
L 92.610717 158.034035 
L 92.480317 157.896 
L 91.374912 156.711846 
L 90.811522 156.110837 
L 90.565672 155.845751 
L 90.28433 155.54388 
L 89.492185 154.691076 
L 89.381016 154.5696 
L 88.501729 153.618745 
L 88.479827 153.59532 
L 87.798079 152.849266 
L 86.832765 151.796979 
L 86.495156 151.426452 
L 86.327422 151.2432 
L 85.275915 150.080913 
L 84.71835 149.46687 
L 84.471318 149.191873 
L 84.199951 148.89108 
L 83.416806 148.020671 
L 83.387991 147.98786 
L 83.324896 147.9168 
L 82.452956 146.943158 
L 82.452379 146.94252 
L 81.719018 146.113263 
L 80.60857 144.861803 
L 80.444955 144.676184 
L 80.369043 144.5904 
L 79.211563 143.267383 
L 78.571035 142.537547 
L 78.444126 142.391372 
L 78.310728 142.23828 
L 77.561409 141.376656 
L 77.483945 141.287303 
L 77.463834 141.264 
L 77.45568 141.254676 
L 77.451883 141.250384 
L 76.623973 140.28972 
L 76.451337 140.08901 
L 76.284696 139.896003 
L 75.676631 139.183971 
L 74.609286 137.9376 
L 74.466596 137.769077 
L 74.131616 137.374831 
L 73.185186 136.253711 
L 72.619631 135.58548 
L 72.561608 135.515152 
L 71.8072 134.6112 
L 71.605372 134.373021 
L 70.994226 133.63692 
L 70.524173 133.07014 
L 70.048523 132.49836 
L 69.674304 132.043543 
L 69.048664 131.2848 
L 68.565769 130.692713 
L 67.332646 129.18487 
L 67.200199 129.021898 
L 67.127551 128.93268 
L 66.901347 128.647423 
L 66.348612 127.9584 
L 66.032683 127.569897 
L 65.880846 127.385352 
L 65.560697 126.98412 
L 64.67705 125.876535 
L 63.736331 124.700057 
L 63.715502 124.67372 
L 63.682457 124.632 
L 62.746645 123.437981 
L 61.837277 122.27988 
L 61.540319 121.901861 
L 61.083465 121.3056 
L 60.545127 120.616756 
L 60.319419 120.33132 
L 60.247458 120.237771 
L 60.097927 120.043629 
L 58.914595 118.498091 
L 58.516773 117.9792 
L 57.806219 117.042908 
L 57.62857 116.806587 
L 57.62857 117.9792 
L 57.62857 121.3056 
L 57.62857 124.632 
L 57.62857 127.9584 
L 57.62857 131.2848 
L 57.62857 134.6112 
L 57.62857 137.9376 
L 57.62857 141.264 
L 57.62857 144.5904 
L 57.62857 147.9168 
L 57.62857 151.2432 
L 57.62857 154.5696 
L 57.62857 157.896 
L 57.62857 161.2224 
L 57.62857 164.5488 
L 57.62857 167.8752 
L 57.62857 171.2016 
L 57.62857 174.528 
L 57.62857 177.8544 
L 57.62857 181.1808 
L 57.62857 184.5072 
L 57.62857 187.8336 
L 57.62857 191.16 
L 57.62857 191.95527 
L 57.820815 192.173218 
L 58.392944 192.817701 
L 59.012438 193.51212 
L 59.555586 194.121706 
L 59.885997 194.4864 
L 60.47058 195.138377 
L 60.759659 195.46068 
L 61.059427 195.791935 
L 61.492222 196.268299 
L 62.433587 197.302215 
L 62.900606 197.8128 
L 63.582515 198.555418 
L 63.937364 198.940391 
L 64.467862 199.514011 
L 65.072476 200.16492 
L 65.643835 200.780473 
L 65.748335 200.891324 
L 65.981783 201.1392 
L 66.61212 201.814269 
L 66.891582 202.11348 
L 67.162528 202.401237 
L 67.524308 202.784085 
L 68.562539 203.880564 
L 69.118776 204.4656 
L 69.70227 205.076948 
L 69.991575 205.379018 
L 70.622654 206.035947 
L 71.376616 206.81772 
L 71.862304 207.321487 
L 72.002774 207.465197 
L 72.321943 207.792 
L 72.992076 208.48306 
L 73.266551 208.76628 
L 73.304587 208.805216 
L 73.351942 208.853532 
L 74.766816 210.294469 
L 75.578855 211.1184 
L 75.85932 211.401916 
L 75.99234 211.535956 
L 76.850508 212.398383 
L 77.921155 213.47052 
L 78.202587 213.752349 
L 78.414012 213.961524 
L 78.902163 214.4448 
L 79.42709 214.967628 
L 79.654966 215.194692 
L 79.882798 215.41908 
L 81.039769 216.558452 
L 81.946754 217.448609 
L 82.049994 217.549669 
L 82.276876 217.7712 
L 83.144871 218.615626 
L 84.536676 219.96521 
L 84.623207 220.048974 
L 84.700196 220.12332 
L 84.972837 220.384859 
L 85.715503 221.0976 
L 86.133345 221.500678 
L 86.731407 222.07188 
L 87.375026 222.686417 
L 87.860864 223.148837 
L 88.270875 223.53822 
L 89.205765 224.424 
L 89.499481 224.70134 
L 89.94618 225.121843 
L 90.855625 225.976719 
L 91.572389 226.648949 
L 91.630054 226.702909 
L 91.708483 226.77612 
L 92.714056 227.71413 
L 92.725637 227.724836 
L 92.753271 227.7504 
L 93.78467 228.708213 
L 93.802394 228.72468 
L 94.518442 229.386122 
L 95.26002 230.069632 
L 95.909068 230.667038 
L 96.355308 231.0768 
L 97.113444 231.770586 
L 97.431892 232.061375 
L 98.056856 232.631024 
L 98.934244 233.42892 
L 99.389122 233.842259 
L 99.571135 234.006395 
L 100.010987 234.4032 
L 100.913218 235.219751 
L 101.08874 235.37748 
L 102.367637 236.525802 
L 103.263863 237.328696 
L 103.33993 237.396487 
L 103.33993 234.4032 
L 103.33993 231.0768 
L 103.33993 227.7504 
L 103.33993 224.424 
L 103.33993 221.0976 
L 103.33993 217.7712 
L 103.33993 214.4448 
L 103.33993 211.1184 
L 103.33993 207.792 
L 103.33993 204.4656 
L 103.33993 201.1392 
L 103.33993 197.8128 
L 103.33993 194.4864 
L 103.33993 191.16 
L 103.33993 187.8336 
L 103.33993 184.5072 
L 103.33993 181.1808 
L 103.33993 177.8544 
L 103.33993 174.528 
L 103.33993 171.2016 
" clip-path="url(#pb6ac157fed)" style="fill: #0080ff"/>
   </g>
   <g id="PathCollection_4">
    <path d="M 103.33993 237.396487 
L 103.263863 237.328696 
L 102.367637 236.525802 
L 101.08874 235.37748 
L 100.913218 235.219751 
L 100.010987 234.4032 
L 99.571135 234.006395 
L 99.389122 233.842259 
L 98.934244 233.42892 
L 98.056856 232.631024 
L 97.431892 232.061375 
L 97.113444 231.770586 
L 96.355308 231.0768 
L 95.909068 230.667038 
L 95.26002 230.069632 
L 94.518442 229.386122 
L 93.802394 228.72468 
L 93.78467 228.708213 
L 92.753271 227.7504 
L 92.725637 227.724836 
L 92.714056 227.71413 
L 91.708483 226.77612 
L 91.630054 226.702909 
L 91.572389 226.648949 
L 90.855625 225.976719 
L 89.94618 225.121843 
L 89.499481 224.70134 
L 89.205765 224.424 
L 88.270875 223.53822 
L 87.860864 223.148837 
L 87.375026 222.686417 
L 86.731407 222.07188 
L 86.133345 221.500678 
L 85.715503 221.0976 
L 84.972837 220.384859 
L 84.700196 220.12332 
L 84.623207 220.048974 
L 84.536676 219.96521 
L 83.144871 218.615626 
L 82.276876 217.7712 
L 82.049994 217.549669 
L 81.946754 217.448609 
L 81.039769 216.558452 
L 79.882798 215.41908 
L 79.654966 215.194692 
L 79.42709 214.967628 
L 78.902163 214.4448 
L 78.414012 213.961524 
L 78.202587 213.752349 
L 77.921155 213.47052 
L 76.850508 212.398383 
L 75.99234 211.535956 
L 75.85932 211.401916 
L 75.578855 211.1184 
L 74.766816 210.294469 
L 73.351942 208.853532 
L 73.304587 208.805216 
L 73.266551 208.76628 
L 72.992076 208.48306 
L 72.321943 207.792 
L 72.002774 207.465197 
L 71.862304 207.321487 
L 71.376616 206.81772 
L 70.622654 206.035947 
L 69.991575 205.379018 
L 69.70227 205.076948 
L 69.118776 204.4656 
L 68.562539 203.880564 
L 67.524308 202.784085 
L 67.162528 202.401237 
L 66.891582 202.11348 
L 66.61212 201.814269 
L 65.981783 201.1392 
L 65.748335 200.891324 
L 65.643835 200.780473 
L 65.072476 200.16492 
L 64.467862 199.514011 
L 63.937364 198.940391 
L 63.582515 198.555418 
L 62.900606 197.8128 
L 62.433587 197.302215 
L 61.492222 196.268299 
L 61.059427 195.791935 
L 60.759659 195.46068 
L 60.47058 195.138377 
L 59.885997 194.4864 
L 59.555586 194.121706 
L 59.012438 193.51212 
L 58.392944 192.817701 
L 57.820815 192.173218 
L 57.62857 191.95527 
L 57.62857 194.4864 
L 57.62857 197.8128 
L 57.62857 201.1392 
L 57.62857 204.4656 
L 57.62857 207.792 
L 57.62857 211.1184 
L 57.62857 214.4448 
L 57.62857 217.7712 
L 57.62857 221.0976 
L 57.62857 224.424 
L 57.62857 227.7504 
L 57.62857 231.0768 
L 57.62857 234.4032 
L 57.62857 237.7296 
L 57.62857 241.056 
L 57.62857 244.3824 
L 57.62857 247.7088 
L 57.62857 251.0352 
L 57.62857 254.3616 
L 57.62857 257.268061 
L 57.695166 257.337007 
L 58.034449 257.688 
L 58.790274 258.478296 
L 60.158619 259.884924 
L 60.242674 259.971786 
L 60.309699 260.04012 
L 60.385143 260.116991 
L 61.261673 261.0144 
L 61.565874 261.327867 
L 61.701105 261.465267 
L 62.21752 261.98868 
L 62.93919 262.72644 
L 63.529711 263.319882 
L 63.854638 263.64921 
L 64.546356 264.3408 
L 65.025244 264.825197 
L 65.84018 265.635482 
L 66.415932 266.211332 
L 66.904075 266.69292 
L 67.007547 266.796569 
L 67.8892 267.6672 
L 68.082373 267.859068 
L 68.878908 268.64148 
L 69.218019 268.977592 
L 69.48512 269.237776 
L 70.04665 269.789911 
L 71.287958 270.9936 
L 71.325216 271.030191 
L 71.385302 271.08818 
L 72.620131 272.287805 
L 73.220349 272.862811 
L 73.437139 273.072475 
L 73.724421 273.34572 
L 74.569788 274.156883 
L 74.741468 274.32 
L 75.12301 274.682813 
L 75.763113 275.29428 
L 76.267742 275.777348 
L 76.818961 276.297546 
L 77.679911 277.115724 
L 78.24787 277.6464 
L 78.851995 278.218466 
L 79.115801 278.464708 
L 79.809641 279.119131 
L 80.75805 279.99852 
L 81.152945 280.368122 
L 81.804816 280.9728 
L 82.403471 281.530763 
L 82.657111 281.763637 
L 82.856541 281.94708 
L 84.086054 283.088939 
L 84.980674 283.905435 
L 85.107836 284.022762 
L 85.411698 284.2992 
L 86.232198 285.056514 
L 87.419036 286.132861 
L 87.705254 286.394493 
L 87.990244 286.65132 
L 88.185815 286.830983 
L 89.06432 287.6256 
L 89.261897 287.805929 
L 89.344767 287.880381 
L 90.143031 288.59988 
L 90.53884 288.960327 
L 90.820064 289.211858 
L 91.38362 289.72195 
L 92.612698 290.818291 
L 92.69945 290.896321 
L 92.762429 290.952 
L 93.988772 292.052921 
L 94.4908 292.496992 
L 94.861596 292.828964 
L 95.401653 293.30412 
L 96.106228 293.930386 
L 96.500466 294.2784 
L 97.49463 295.155382 
L 97.604432 295.25268 
L 97.678797 295.31893 
L 97.750554 295.381892 
L 99.199365 296.664823 
L 100.280051 297.6048 
L 100.290716 297.614233 
L 100.295004 297.617969 
L 101.37398 298.570244 
L 102.840799 299.841554 
L 102.904895 299.897628 
L 103.33993 300.281884 
L 103.33993 297.6048 
L 103.33993 294.2784 
L 103.33993 290.952 
L 103.33993 287.6256 
L 103.33993 284.2992 
L 103.33993 280.9728 
L 103.33993 277.6464 
L 103.33993 274.32 
L 103.33993 270.9936 
L 103.33993 267.6672 
L 103.33993 264.3408 
L 103.33993 261.0144 
L 103.33993 257.688 
L 103.33993 254.3616 
L 103.33993 251.0352 
L 103.33993 247.7088 
L 103.33993 244.3824 
L 103.33993 241.056 
L 103.33993 237.7296 
" clip-path="url(#pb6ac157fed)" style="fill: #00e4f8"/>
   </g>
   <g id="PathCollection_5">
    <path d="M 103.33993 300.281884 
L 102.904895 299.897628 
L 102.840799 299.841554 
L 101.37398 298.570244 
L 100.295004 297.617969 
L 100.290716 297.614233 
L 100.280051 297.6048 
L 99.199365 296.664823 
L 97.750554 295.381892 
L 97.678797 295.31893 
L 97.604432 295.25268 
L 97.49463 295.155382 
L 96.500466 294.2784 
L 96.106228 293.930386 
L 95.401653 293.30412 
L 94.861596 292.828964 
L 94.4908 292.496992 
L 93.988772 292.052921 
L 92.762429 290.952 
L 92.69945 290.896321 
L 92.612698 290.818291 
L 91.38362 289.72195 
L 90.820064 289.211858 
L 90.53884 288.960327 
L 90.143031 288.59988 
L 89.344767 287.880381 
L 89.261897 287.805929 
L 89.06432 287.6256 
L 88.185815 286.830983 
L 87.990244 286.65132 
L 87.705254 286.394493 
L 87.419036 286.132861 
L 86.232198 285.056514 
L 85.411698 284.2992 
L 85.107836 284.022762 
L 84.980674 283.905435 
L 84.086054 283.088939 
L 82.856541 281.94708 
L 82.657111 281.763637 
L 82.403471 281.530763 
L 81.804816 280.9728 
L 81.152945 280.368122 
L 80.75805 279.99852 
L 79.809641 279.119131 
L 79.115801 278.464708 
L 78.851995 278.218466 
L 78.24787 277.6464 
L 77.679911 277.115724 
L 76.818961 276.297546 
L 76.267742 275.777348 
L 75.763113 275.29428 
L 75.12301 274.682813 
L 74.741468 274.32 
L 74.569788 274.156883 
L 73.724421 273.34572 
L 73.437139 273.072475 
L 73.220349 272.862811 
L 72.620131 272.287805 
L 71.385302 271.08818 
L 71.325216 271.030191 
L 71.287958 270.9936 
L 70.04665 269.789911 
L 69.48512 269.237776 
L 69.218019 268.977592 
L 68.878908 268.64148 
L 68.082373 267.859068 
L 67.8892 267.6672 
L 67.007547 266.796569 
L 66.904075 266.69292 
L 66.415932 266.211332 
L 65.84018 265.635482 
L 65.025244 264.825197 
L 64.546356 264.3408 
L 63.854638 263.64921 
L 63.529711 263.319882 
L 62.93919 262.72644 
L 62.21752 261.98868 
L 61.701105 261.465267 
L 61.565874 261.327867 
L 61.261673 261.0144 
L 60.385143 260.116991 
L 60.309699 260.04012 
L 60.242674 259.971786 
L 60.158619 259.884924 
L 58.790274 258.478296 
L 58.034449 257.688 
L 57.695166 257.337007 
L 57.62857 257.268061 
L 57.62857 257.688 
L 57.62857 261.0144 
L 57.62857 264.3408 
L 57.62857 267.6672 
L 57.62857 270.9936 
L 57.62857 274.32 
L 57.62857 277.6464 
L 57.62857 280.9728 
L 57.62857 284.2992 
L 57.62857 287.6256 
L 57.62857 290.952 
L 57.62857 294.2784 
L 57.62857 297.6048 
L 57.62857 300.9312 
L 57.62857 304.2576 
L 57.62857 307.584 
L 59.152282 307.584 
L 60.675994 307.584 
L 62.199706 307.584 
L 63.723418 307.584 
L 65.24713 307.584 
L 66.770842 307.584 
L 68.294554 307.584 
L 69.818266 307.584 
L 71.341978 307.584 
L 72.86569 307.584 
L 74.389402 307.584 
L 75.913114 307.584 
L 77.436826 307.584 
L 78.960538 307.584 
L 80.48425 307.584 
L 82.007962 307.584 
L 83.531674 307.584 
L 85.055386 307.584 
L 86.579098 307.584 
L 88.10281 307.584 
L 89.626522 307.584 
L 91.150234 307.584 
L 92.673946 307.584 
L 94.197658 307.584 
L 95.72137 307.584 
L 97.245082 307.584 
L 98.768794 307.584 
L 100.292506 307.584 
L 101.816218 307.584 
L 103.33993 307.584 
L 103.33993 304.2576 
L 103.33993 300.9312 
" clip-path="url(#pb6ac157fed)" style="fill: #53ffa4"/>
   </g>
   <g id="PathCollection_6">
    <path clip-path="url(#pb6ac157fed)" style="fill: #a4ff53"/>
   </g>
   <g id="PathCollection_7">
    <path clip-path="url(#pb6ac157fed)" style="fill: #f8f500"/>
   </g>
   <g id="PathCollection_8">
    <path clip-path="url(#pb6ac157fed)" style="fill: #ff9400"/>
   </g>
   <g id="PathCollection_9">
    <path clip-path="url(#pb6ac157fed)" style="fill: #ff3800"/>
   </g>
   <g id="PathCollection_10">
    <path clip-path="url(#pb6ac157fed)" style="fill: #b60000"/>
   </g>
   <g id="PathCollection_11">
    <path d="M 100.4544 50.266365 
L 100.473659 50.29145 
L 100.513403 50.3424 
L 104.259484 55.043092 
L 105.514217 56.61472 
L 106.879671 58.455027 
L 107.499217 59.2128 
L 107.774717 59.564306 
L 109.68626 61.81088 
L 111.823541 64.495007 
L 114.679943 68.0832 
L 116.022504 69.72698 
L 118.340538 72.571912 
L 119.449265 73.879344 
L 119.849532 74.35552 
L 120.320887 74.948393 
L 122.147074 76.9536 
L 122.557044 77.49516 
L 122.792269 77.837033 
L 124.321448 79.55168 
L 127.27964 83.03942 
L 129.615754 85.824 
L 131.855241 88.411457 
L 135.014106 92.09632 
L 135.052827 92.13389 
L 137.472408 94.6944 
L 138.380699 95.850635 
L 139.716656 97.29248 
L 143.146406 101.133815 
L 145.272845 103.5648 
L 147.919345 106.48384 
L 150.910552 109.83712 
L 151.011224 109.932047 
L 153.444224 112.4352 
L 154.091425 113.186406 
L 154.451041 113.645494 
L 155.773547 115.03328 
L 159.337702 118.87258 
L 161.530786 121.3056 
L 164.154742 124.10306 
L 167.341298 127.57792 
L 168.763293 129.048058 
L 169.916131 130.176 
L 170.873941 131.280325 
L 172.320953 132.77408 
L 175.747382 136.372035 
L 178.198966 139.0464 
L 180.494915 141.445086 
L 183.549994 144.730098 
L 183.941114 145.133936 
L 184.112332 145.31872 
L 184.353938 145.582643 
L 185.708745 146.976537 
L 186.675656 147.9168 
L 187.487068 148.828811 
L 189.12482 150.51488 
L 192.253478 153.765836 
L 195.028063 156.7872 
L 196.867908 158.700287 
L 199.307032 161.326953 
L 200.457042 162.516962 
L 200.954222 163.05952 
L 201.654866 163.827954 
L 202.70206 164.916899 
L 203.457553 165.6576 
L 203.875731 166.106938 
L 204.102115 166.376426 
L 205.903201 168.25568 
L 208.720463 171.202495 
L 211.726504 174.528 
L 213.195475 176.075663 
L 215.19594 178.27268 
L 216.856757 180.027337 
L 217.543847 180.80032 
L 218.48773 181.860808 
L 219.9618 183.3984 
L 220.318013 183.78497 
L 220.510627 184.017787 
L 222.34598 185.99648 
L 224.99875 188.845935 
L 227.981337 192.2688 
L 229.389573 193.80414 
L 231.435271 196.145469 
L 232.976163 197.844882 
L 233.562468 198.54112 
L 234.327322 199.44281 
L 235.875542 201.1392 
L 236.488042 201.854827 
L 238.138425 203.73728 
L 240.920413 206.880171 
L 243.482601 210.0096 
L 245.344665 212.164922 
L 248.378818 215.881301 
L 248.627415 216.175442 
L 248.709865 216.28192 
L 248.809248 216.40856 
L 250.89807 218.88 
L 251.79577 219.995841 
L 252.987715 221.47808 
L 256.289702 225.519714 
L 257.950483 227.7504 
L 260.922679 231.523283 
L 262.765408 234.02272 
L 263.374543 234.865931 
L 264.768529 236.6208 
L 266.182066 238.555099 
L 266.652369 239.21888 
L 270.865905 245.02834 
L 271.165652 245.4912 
L 273.373373 248.701807 
L 275.51846 251.76352 
L 275.678585 251.985374 
L 276.358198 252.893285 
L 277.297446 254.3616 
L 278.577867 256.380946 
L 278.989241 256.95968 
L 280.223937 258.772393 
L 283.019466 263.232 
L 284.544816 265.520241 
L 286.866365 269.50432 
L 288.054733 271.457049 
L 288.405402 272.1024 
L 289.008366 273.18061 
L 289.914411 274.70048 
L 290.907287 276.288884 
L 293.434525 280.9728 
L 294.215624 282.327474 
L 296.779528 287.24512 
L 297.345975 288.483681 
L 298.079831 289.8432 
L 298.679366 290.871705 
L 299.013761 291.571963 
L 299.401766 292.44128 
L 301.970381 297.779936 
L 302.439679 298.7136 
L 302.581836 298.977217 
L 305.266439 304.98592 
L 305.863056 306.203829 
L 306.412683 307.584 
L 310.91712 307.584 
L 319.01184 307.584 
L 327.10656 307.584 
L 335.20128 307.584 
L 343.296 307.584 
L 343.296 298.7136 
L 343.296 289.8432 
L 343.296 280.9728 
L 343.296 272.1024 
L 343.296 263.232 
L 343.296 254.3616 
L 343.296 245.4912 
L 343.296 236.6208 
L 343.296 227.7504 
L 343.296 218.88 
L 343.296 210.0096 
L 343.296 201.1392 
L 343.296 192.2688 
L 343.296 183.3984 
L 343.296 174.528 
L 343.296 165.6576 
L 343.296 156.7872 
L 343.296 147.9168 
L 343.296 139.0464 
L 343.296 130.176 
L 343.296 121.3056 
L 343.296 112.4352 
L 343.296 103.5648 
L 343.296 94.6944 
L 343.296 85.824 
L 343.296 76.9536 
L 343.296 68.0832 
L 343.296 59.2128 
L 343.296 50.3424 
L 343.296 41.472 
L 335.20128 41.472 
L 327.10656 41.472 
L 319.01184 41.472 
L 310.91712 41.472 
L 302.8224 41.472 
L 294.72768 41.472 
L 286.63296 41.472 
L 278.53824 41.472 
L 270.44352 41.472 
L 262.3488 41.472 
L 254.25408 41.472 
L 246.15936 41.472 
L 238.06464 41.472 
L 229.96992 41.472 
L 221.8752 41.472 
L 213.78048 41.472 
L 205.68576 41.472 
L 197.59104 41.472 
L 189.49632 41.472 
L 181.4016 41.472 
L 173.30688 41.472 
L 165.21216 41.472 
L 157.11744 41.472 
L 149.02272 41.472 
L 140.928 41.472 
L 132.83328 41.472 
L 124.73856 41.472 
L 116.64384 41.472 
L 108.54912 41.472 
L 100.4544 41.472 
" clip-path="url(#pb6ac157fed)" style="fill: #0000b6"/>
   </g>
   <g id="PathCollection_12">
    <path d="M 306.412683 307.584 
L 305.863056 306.203829 
L 305.266439 304.98592 
L 302.581836 298.977217 
L 302.439679 298.7136 
L 301.970381 297.779936 
L 299.401766 292.44128 
L 299.013761 291.571963 
L 298.679366 290.871705 
L 298.079831 289.8432 
L 297.345975 288.483681 
L 296.779528 287.24512 
L 294.215624 282.327474 
L 293.434525 280.9728 
L 290.907287 276.288884 
L 289.914411 274.70048 
L 289.008366 273.18061 
L 288.405402 272.1024 
L 288.054733 271.457049 
L 286.866365 269.50432 
L 284.544816 265.520241 
L 283.019466 263.232 
L 280.223937 258.772393 
L 278.989241 256.95968 
L 278.577867 256.380946 
L 277.297446 254.3616 
L 276.358198 252.893285 
L 275.678585 251.985374 
L 275.51846 251.76352 
L 273.373373 248.701807 
L 271.165652 245.4912 
L 270.865905 245.02834 
L 266.652369 239.21888 
L 266.182066 238.555099 
L 264.768529 236.6208 
L 263.374543 234.865931 
L 262.765408 234.02272 
L 260.922679 231.523283 
L 257.950483 227.7504 
L 256.289702 225.519714 
L 252.987715 221.47808 
L 251.79577 219.995841 
L 250.89807 218.88 
L 248.809248 216.40856 
L 248.709865 216.28192 
L 248.627415 216.175442 
L 248.378818 215.881301 
L 245.344665 212.164922 
L 243.482601 210.0096 
L 240.920413 206.880171 
L 238.138425 203.73728 
L 236.488042 201.854827 
L 235.875542 201.1392 
L 234.327322 199.44281 
L 233.562468 198.54112 
L 232.976163 197.844882 
L 231.435271 196.145469 
L 229.389573 193.80414 
L 227.981337 192.2688 
L 224.99875 188.845935 
L 222.34598 185.99648 
L 220.510627 184.017787 
L 220.318013 183.78497 
L 219.9618 183.3984 
L 218.48773 181.860808 
L 217.543847 180.80032 
L 216.856757 180.027337 
L 215.19594 178.27268 
L 213.195475 176.075663 
L 211.726504 174.528 
L 208.720463 171.202495 
L 205.903201 168.25568 
L 204.102115 166.376426 
L 203.875731 166.106938 
L 203.457553 165.6576 
L 202.70206 164.916899 
L 201.654866 163.827954 
L 200.954222 163.05952 
L 200.457042 162.516962 
L 199.307032 161.326953 
L 196.867908 158.700287 
L 195.028063 156.7872 
L 192.253478 153.765836 
L 189.12482 150.51488 
L 187.487068 148.828811 
L 186.675656 147.9168 
L 185.708745 146.976537 
L 184.353938 145.582643 
L 184.112332 145.31872 
L 183.941114 145.133936 
L 183.549994 144.730098 
L 180.494915 141.445086 
L 178.198966 139.0464 
L 175.747382 136.372035 
L 172.320953 132.77408 
L 170.873941 131.280325 
L 169.916131 130.176 
L 168.763293 129.048058 
L 167.341298 127.57792 
L 164.154742 124.10306 
L 161.530786 121.3056 
L 159.337702 118.87258 
L 155.773547 115.03328 
L 154.451041 113.645494 
L 154.091425 113.186406 
L 153.444224 112.4352 
L 151.011224 109.932047 
L 150.910552 109.83712 
L 147.919345 106.48384 
L 145.272845 103.5648 
L 143.146406 101.133815 
L 139.716656 97.29248 
L 138.380699 95.850635 
L 137.472408 94.6944 
L 135.052827 92.13389 
L 135.014106 92.09632 
L 131.855241 88.411457 
L 129.615754 85.824 
L 127.27964 83.03942 
L 124.321448 79.55168 
L 122.792269 77.837033 
L 122.557044 77.49516 
L 122.147074 76.9536 
L 120.320887 74.948393 
L 119.849532 74.35552 
L 119.449265 73.879344 
L 118.340538 72.571912 
L 116.022504 69.72698 
L 114.679943 68.0832 
L 111.823541 64.495007 
L 109.68626 61.81088 
L 107.774717 59.564306 
L 107.499217 59.2128 
L 106.879671 58.455027 
L 105.514217 56.61472 
L 104.259484 55.043092 
L 100.513403 50.3424 
L 100.473659 50.29145 
L 100.4544 50.266365 
L 100.4544 50.3424 
L 100.4544 59.2128 
L 100.4544 68.0832 
L 100.4544 76.9536 
L 100.4544 85.824 
L 100.4544 94.6944 
L 100.4544 103.5648 
L 100.4544 112.4352 
L 100.4544 121.3056 
L 100.4544 130.176 
L 100.4544 139.0464 
L 100.4544 147.9168 
L 100.4544 156.7872 
L 100.4544 165.6576 
L 100.4544 166.214215 
L 102.720446 168.533047 
L 107.061148 172.897443 
L 108.616018 174.454692 
L 108.68897 174.528 
L 114.495299 180.212087 
L 115.093857 180.80032 
L 115.390259 181.077691 
L 117.940331 183.3984 
L 119.289844 184.75104 
L 120.034335 185.533675 
L 120.533025 185.99648 
L 125.874918 191.02355 
L 127.183258 192.2688 
L 131.369513 196.141278 
L 133.939416 198.54112 
L 135.265922 199.733593 
L 136.871078 201.1392 
L 138.177675 202.387588 
L 139.688366 203.73728 
L 143.515579 207.174065 
L 146.61621 210.0096 
L 148.41819 211.608919 
L 150.25104 213.25919 
L 152.417693 215.159702 
L 153.666318 216.28192 
L 155.992945 218.369585 
L 156.361678 218.692383 
L 156.581383 218.88 
L 156.759694 219.042383 
L 159.551355 221.47808 
L 161.384858 223.074055 
L 164.492223 225.845766 
L 165.575734 226.788545 
L 166.657456 227.7504 
L 170.381135 230.956506 
L 173.835452 234.02272 
L 175.603263 235.578459 
L 176.039111 235.942526 
L 176.809235 236.6208 
L 178.134276 237.819198 
L 179.728255 239.21888 
L 182.776071 241.85496 
L 186.87127 245.4912 
L 188.342397 246.755698 
L 193.959164 251.76352 
L 194.388873 252.140842 
L 196.905776 254.3616 
L 199.705056 256.895912 
L 199.77757 256.95968 
L 199.916096 257.080932 
L 200.804646 257.883152 
L 206.17029 262.70104 
L 206.733782 263.232 
L 211.97967 267.996145 
L 213.581061 269.50432 
L 214.142166 270.003103 
L 216.381504 272.1024 
L 217.562262 273.173084 
L 218.191807 273.774313 
L 219.157359 274.70048 
L 223.716034 278.955568 
L 225.757959 280.9728 
L 228.855862 283.920103 
L 232.205382 287.24512 
L 232.233455 287.27177 
L 234.797925 289.8432 
L 235.845403 290.850524 
L 237.387232 292.44128 
L 240.744266 295.777198 
L 243.505601 298.7136 
L 245.419674 300.670482 
L 247.911879 303.349989 
L 248.984055 304.488628 
L 249.415957 304.98592 
L 250.043706 305.672887 
L 251.794906 307.584 
L 254.25408 307.584 
L 262.3488 307.584 
L 270.44352 307.584 
L 278.53824 307.584 
L 286.63296 307.584 
L 294.72768 307.584 
L 302.8224 307.584 
" clip-path="url(#pb6ac157fed)" style="fill: #0018ff"/>
   </g>
   <g id="PathCollection_13">
    <path d="M 251.794906 307.584 
L 250.043706 305.672887 
L 249.415957 304.98592 
L 248.984055 304.488628 
L 247.911879 303.349989 
L 245.419674 300.670482 
L 243.505601 298.7136 
L 240.744266 295.777198 
L 237.387232 292.44128 
L 235.845403 290.850524 
L 234.797925 289.8432 
L 232.233455 287.27177 
L 232.205382 287.24512 
L 228.855862 283.920103 
L 225.757959 280.9728 
L 223.716034 278.955568 
L 219.157359 274.70048 
L 218.191807 273.774313 
L 217.562262 273.173084 
L 216.381504 272.1024 
L 214.142166 270.003103 
L 213.581061 269.50432 
L 211.97967 267.996145 
L 206.733782 263.232 
L 206.17029 262.70104 
L 200.804646 257.883152 
L 199.916096 257.080932 
L 199.77757 256.95968 
L 199.705056 256.895912 
L 196.905776 254.3616 
L 194.388873 252.140842 
L 193.959164 251.76352 
L 188.342397 246.755698 
L 186.87127 245.4912 
L 182.776071 241.85496 
L 179.728255 239.21888 
L 178.134276 237.819198 
L 176.809235 236.6208 
L 176.039111 235.942526 
L 175.603263 235.578459 
L 173.835452 234.02272 
L 170.381135 230.956506 
L 166.657456 227.7504 
L 165.575734 226.788545 
L 164.492223 225.845766 
L 161.384858 223.074055 
L 159.551355 221.47808 
L 156.759694 219.042383 
L 156.581383 218.88 
L 156.361678 218.692383 
L 155.992945 218.369585 
L 153.666318 216.28192 
L 152.417693 215.159702 
L 150.25104 213.25919 
L 148.41819 211.608919 
L 146.61621 210.0096 
L 143.515579 207.174065 
L 139.688366 203.73728 
L 138.177675 202.387588 
L 136.871078 201.1392 
L 135.265922 199.733593 
L 133.939416 198.54112 
L 131.369513 196.141278 
L 127.183258 192.2688 
L 125.874918 191.02355 
L 120.533025 185.99648 
L 120.034335 185.533675 
L 119.289844 184.75104 
L 117.940331 183.3984 
L 115.390259 181.077691 
L 115.093857 180.80032 
L 114.495299 180.212087 
L 108.68897 174.528 
L 108.616018 174.454692 
L 107.061148 172.897443 
L 102.720446 168.533047 
L 100.4544 166.214215 
L 100.4544 174.528 
L 100.4544 183.3984 
L 100.4544 192.2688 
L 100.4544 201.1392 
L 100.4544 210.0096 
L 100.4544 218.88 
L 100.4544 227.7504 
L 100.4544 234.795185 
L 101.364473 235.623519 
L 102.486159 236.6208 
L 104.526306 238.446778 
L 105.410476 239.21888 
L 110.321506 243.548975 
L 112.55227 245.4912 
L 115.635315 248.159311 
L 118.619724 250.718514 
L 119.377899 251.365549 
L 119.847336 251.76352 
L 120.801562 252.574574 
L 122.9223 254.3616 
L 123.549556 254.901296 
L 126.009363 256.95968 
L 128.530414 259.07679 
L 132.516603 262.394214 
L 132.998638 262.794537 
L 133.526694 263.232 
L 137.75217 266.712155 
L 141.154164 269.50432 
L 143.115425 271.109515 
L 143.538609 271.454318 
L 144.332154 272.1024 
L 145.824973 273.31807 
L 147.522283 274.70048 
L 150.484849 277.104655 
L 155.254148 280.9728 
L 156.32608 281.839992 
L 162.350221 286.707014 
L 162.882033 287.137283 
L 163.014841 287.24512 
L 164.076147 288.115706 
L 166.190481 289.8432 
L 168.770254 291.902401 
L 169.427686 292.44128 
L 174.949146 296.913963 
L 177.154103 298.7136 
L 180.403664 301.353696 
L 183.290742 303.711432 
L 184.230118 304.484438 
L 184.831143 304.98592 
L 186.149161 306.064705 
L 187.988306 307.584 
L 189.49632 307.584 
L 197.59104 307.584 
L 205.68576 307.584 
L 213.78048 307.584 
L 221.8752 307.584 
L 229.96992 307.584 
L 238.06464 307.584 
L 246.15936 307.584 
" clip-path="url(#pb6ac157fed)" style="fill: #0080ff"/>
   </g>
   <g id="PathCollection_14">
    <path d="M 187.988306 307.584 
L 186.149161 306.064705 
L 184.831143 304.98592 
L 184.230118 304.484438 
L 183.290742 303.711432 
L 180.403664 301.353696 
L 177.154103 298.7136 
L 174.949146 296.913963 
L 169.427686 292.44128 
L 168.770254 291.902401 
L 166.190481 289.8432 
L 164.076147 288.115706 
L 163.014841 287.24512 
L 162.882033 287.137283 
L 162.350221 286.707014 
L 156.32608 281.839992 
L 155.254148 280.9728 
L 150.484849 277.104655 
L 147.522283 274.70048 
L 145.824973 273.31807 
L 144.332154 272.1024 
L 143.538609 271.454318 
L 143.115425 271.109515 
L 141.154164 269.50432 
L 137.75217 266.712155 
L 133.526694 263.232 
L 132.998638 262.794537 
L 132.516603 262.394214 
L 128.530414 259.07679 
L 126.009363 256.95968 
L 123.549556 254.901296 
L 122.9223 254.3616 
L 120.801562 252.574574 
L 119.847336 251.76352 
L 119.377899 251.365549 
L 118.619724 250.718514 
L 115.635315 248.159311 
L 112.55227 245.4912 
L 110.321506 243.548975 
L 105.410476 239.21888 
L 104.526306 238.446778 
L 102.486159 236.6208 
L 101.364473 235.623519 
L 100.4544 234.795185 
L 100.4544 236.6208 
L 100.4544 245.4912 
L 100.4544 254.3616 
L 100.4544 263.232 
L 100.4544 272.1024 
L 100.4544 280.9728 
L 100.4544 289.8432 
L 100.4544 297.782872 
L 100.71982 298.011417 
L 101.540854 298.7136 
L 105.405141 302.158852 
L 108.752048 304.98592 
L 110.66115 306.625337 
L 111.800643 307.584 
L 116.64384 307.584 
L 124.73856 307.584 
L 132.83328 307.584 
L 140.928 307.584 
L 149.02272 307.584 
L 157.11744 307.584 
L 165.21216 307.584 
L 173.30688 307.584 
L 181.4016 307.584 
" clip-path="url(#pb6ac157fed)" style="fill: #00e4f8"/>
   </g>
   <g id="PathCollection_15">
    <path d="M 111.800643 307.584 
L 110.66115 306.625337 
L 108.752048 304.98592 
L 105.405141 302.158852 
L 101.540854 298.7136 
L 100.71982 298.011417 
L 100.4544 297.782872 
L 100.4544 298.7136 
L 100.4544 307.584 
L 108.54912 307.584 
" clip-path="url(#pb6ac157fed)" style="fill: #53ffa4"/>
   </g>
   <g id="PathCollection_16">
    <path clip-path="url(#pb6ac157fed)" style="fill: #a4ff53"/>
   </g>
   <g id="PathCollection_17">
    <path clip-path="url(#pb6ac157fed)" style="fill: #f8f500"/>
   </g>
   <g id="PathCollection_18">
    <path clip-path="url(#pb6ac157fed)" style="fill: #ff9400"/>
   </g>
   <g id="PathCollection_19">
    <path clip-path="url(#pb6ac157fed)" style="fill: #ff3800"/>
   </g>
   <g id="PathCollection_20">
    <path clip-path="url(#pb6ac157fed)" style="fill: #b60000"/>
   </g>
   <g id="matplotlib.axis_1">
    <g id="xtick_1">
     <g id="line2d_1">
      <defs>
       <path id="m268d5d0e88" d="M 0 0 
L 0 3.5 
" style="stroke: #000000; stroke-width: 0.8"/>
      </defs>
      <g>
       <use xlink:href="#m268d5d0e88" x="57.6" y="307.584" style="stroke: #000000; stroke-width: 0.8"/>
      </g>
     </g>
     <g id="text_1">
      <!-- 0.0 -->
      <g transform="translate(51.26875 321.385562) scale(0.1 -0.1)">
       <defs>
        <path id="Calibri-30" d="M 3022 2031 
Q 3022 1566 2948 1181 
Q 2875 797 2704 520 
Q 2534 244 2259 92 
Q 1984 -59 1581 -59 
Q 1200 -59 939 77 
Q 678 213 518 477 
Q 359 741 292 1127 
Q 225 1513 225 2013 
Q 225 2475 300 2861 
Q 375 3247 544 3523 
Q 713 3800 988 3951 
Q 1263 4103 1663 4103 
Q 2047 4103 2308 3967 
Q 2569 3831 2728 3567 
Q 2888 3303 2955 2917 
Q 3022 2531 3022 2031 
z
M 2472 1994 
Q 2472 2297 2450 2537 
Q 2428 2778 2386 2962 
Q 2344 3147 2276 3280 
Q 2209 3413 2115 3498 
Q 2022 3584 1901 3623 
Q 1781 3663 1631 3663 
Q 1366 3663 1200 3538 
Q 1034 3413 939 3194 
Q 844 2975 809 2681 
Q 775 2388 775 2050 
Q 775 1597 822 1280 
Q 869 963 970 763 
Q 1072 563 1230 472 
Q 1388 381 1613 381 
Q 1788 381 1920 437 
Q 2053 494 2148 598 
Q 2244 703 2306 850 
Q 2369 997 2406 1175 
Q 2444 1353 2458 1561 
Q 2472 1769 2472 1994 
z
" transform="scale(0.015625)"/>
        <path id="Calibri-2e" d="M 1144 341 
Q 1144 119 1070 45 
Q 997 -28 803 -28 
Q 616 -28 544 44 
Q 472 116 472 331 
Q 472 553 545 626 
Q 619 700 813 700 
Q 1000 700 1072 628 
Q 1144 556 1144 341 
z
" transform="scale(0.015625)"/>
       </defs>
       <use xlink:href="#Calibri-30"/>
       <use xlink:href="#Calibri-2e" x="50.683594"/>
       <use xlink:href="#Calibri-30" x="75.927734"/>
      </g>
     </g>
    </g>
    <g id="xtick_2">
     <g id="line2d_2">
      <g>
       <use xlink:href="#m268d5d0e88" x="86.1696" y="307.584" style="stroke: #000000; stroke-width: 0.8"/>
      </g>
     </g>
     <g id="text_2">
      <!-- 0.1 -->
      <g transform="translate(79.83835 321.385562) scale(0.1 -0.1)">
       <defs>
        <path id="Calibri-31" d="M 2897 213 
Q 2897 153 2887 112 
Q 2878 72 2862 47 
Q 2847 22 2826 11 
Q 2806 0 2784 0 
L 672 0 
Q 650 0 631 11 
Q 613 22 595 47 
Q 578 72 568 112 
Q 559 153 559 213 
Q 559 269 568 309 
Q 578 350 592 376 
Q 606 403 626 417 
Q 647 431 672 431 
L 1516 431 
L 1516 3506 
L 734 3041 
Q 675 3009 639 3003 
Q 603 2997 581 3017 
Q 559 3038 551 3084 
Q 544 3131 544 3203 
Q 544 3256 548 3293 
Q 553 3331 562 3356 
Q 572 3381 589 3400 
Q 606 3419 634 3438 
L 1566 4034 
Q 1578 4044 1597 4050 
Q 1616 4056 1644 4062 
Q 1672 4069 1709 4070 
Q 1747 4072 1803 4072 
Q 1878 4072 1928 4065 
Q 1978 4059 2006 4048 
Q 2034 4038 2043 4020 
Q 2053 4003 2053 3984 
L 2053 431 
L 2784 431 
Q 2809 431 2831 417 
Q 2853 403 2867 376 
Q 2881 350 2889 309 
Q 2897 269 2897 213 
z
" transform="scale(0.015625)"/>
       </defs>
       <use xlink:href="#Calibri-30"/>
       <use xlink:href="#Calibri-2e" x="50.683594"/>
       <use xlink:href="#Calibri-31" x="75.927734"/>
      </g>
     </g>
    </g>
    <g id="xtick_3">
     <g id="line2d_3">
      <g>
       <use xlink:href="#m268d5d0e88" x="114.7392" y="307.584" style="stroke: #000000; stroke-width: 0.8"/>
      </g>
     </g>
     <g id="text_3">
      <!-- 0.2 -->
      <g transform="translate(108.40795 321.385562) scale(0.1 -0.1)">
       <defs>
        <path id="Calibri-32" d="M 2888 231 
Q 2888 175 2880 131 
Q 2872 88 2858 58 
Q 2844 28 2820 14 
Q 2797 0 2769 0 
L 534 0 
Q 491 0 458 11 
Q 425 22 401 47 
Q 378 72 367 119 
Q 356 166 356 234 
Q 356 297 361 344 
Q 366 391 381 427 
Q 397 463 420 498 
Q 444 534 481 575 
L 1266 1406 
Q 1538 1694 1702 1922 
Q 1866 2150 1955 2337 
Q 2044 2525 2072 2678 
Q 2100 2831 2100 2966 
Q 2100 3100 2056 3220 
Q 2013 3341 1930 3431 
Q 1847 3522 1722 3575 
Q 1597 3628 1434 3628 
Q 1244 3628 1092 3575 
Q 941 3522 827 3459 
Q 713 3397 636 3344 
Q 559 3291 522 3291 
Q 500 3291 483 3303 
Q 466 3316 455 3344 
Q 444 3372 437 3419 
Q 431 3466 431 3531 
Q 431 3578 434 3612 
Q 438 3647 445 3672 
Q 453 3697 465 3719 
Q 478 3741 515 3773 
Q 553 3806 645 3862 
Q 738 3919 877 3973 
Q 1016 4028 1183 4065 
Q 1350 4103 1534 4103 
Q 1828 4103 2048 4020 
Q 2269 3938 2414 3794 
Q 2559 3650 2631 3459 
Q 2703 3269 2703 3053 
Q 2703 2859 2668 2667 
Q 2634 2475 2523 2251 
Q 2413 2028 2203 1754 
Q 1994 1481 1647 1125 
L 1006 456 
L 2766 456 
Q 2791 456 2814 442 
Q 2838 428 2855 400 
Q 2872 372 2880 330 
Q 2888 288 2888 231 
z
" transform="scale(0.015625)"/>
       </defs>
       <use xlink:href="#Calibri-30"/>
       <use xlink:href="#Calibri-2e" x="50.683594"/>
       <use xlink:href="#Calibri-32" x="75.927734"/>
      </g>
     </g>
    </g>
    <g id="xtick_4">
     <g id="line2d_4">
      <g>
       <use xlink:href="#m268d5d0e88" x="143.3088" y="307.584" style="stroke: #000000; stroke-width: 0.8"/>
      </g>
     </g>
     <g id="text_4">
      <!-- 0.3 -->
      <g transform="translate(136.97755 321.385562) scale(0.1 -0.1)">
       <defs>
        <path id="Calibri-33" d="M 2856 1156 
Q 2856 878 2759 654 
Q 2663 431 2481 272 
Q 2300 113 2034 27 
Q 1769 -59 1434 -59 
Q 1231 -59 1054 -26 
Q 878 6 740 51 
Q 603 97 512 145 
Q 422 194 398 216 
Q 375 238 362 259 
Q 350 281 340 312 
Q 331 344 326 389 
Q 322 434 322 500 
Q 322 613 344 656 
Q 366 700 406 700 
Q 434 700 517 650 
Q 600 600 729 542 
Q 859 484 1032 434 
Q 1206 384 1419 384 
Q 1625 384 1781 437 
Q 1938 491 2044 587 
Q 2150 684 2203 817 
Q 2256 950 2256 1106 
Q 2256 1278 2189 1415 
Q 2122 1553 1992 1653 
Q 1863 1753 1673 1806 
Q 1484 1859 1244 1859 
L 859 1859 
Q 834 1859 811 1870 
Q 788 1881 770 1906 
Q 753 1931 742 1972 
Q 731 2013 731 2078 
Q 731 2138 740 2177 
Q 750 2216 767 2239 
Q 784 2263 806 2273 
Q 828 2284 856 2284 
L 1209 2284 
Q 1416 2284 1580 2337 
Q 1744 2391 1858 2491 
Q 1972 2591 2033 2730 
Q 2094 2869 2094 3041 
Q 2094 3166 2053 3280 
Q 2013 3394 1931 3478 
Q 1850 3563 1723 3611 
Q 1597 3659 1431 3659 
Q 1250 3659 1098 3604 
Q 947 3550 828 3487 
Q 709 3425 631 3370 
Q 553 3316 522 3316 
Q 500 3316 483 3323 
Q 466 3331 455 3354 
Q 444 3378 439 3420 
Q 434 3463 434 3531 
Q 434 3578 437 3614 
Q 441 3650 450 3676 
Q 459 3703 471 3725 
Q 484 3747 514 3776 
Q 544 3806 634 3862 
Q 725 3919 858 3973 
Q 991 4028 1164 4065 
Q 1338 4103 1538 4103 
Q 1819 4103 2031 4031 
Q 2244 3959 2386 3828 
Q 2528 3697 2598 3514 
Q 2669 3331 2669 3109 
Q 2669 2919 2619 2755 
Q 2569 2591 2472 2464 
Q 2375 2338 2234 2248 
Q 2094 2159 1909 2125 
L 1909 2119 
Q 2119 2097 2292 2014 
Q 2466 1931 2591 1806 
Q 2716 1681 2786 1514 
Q 2856 1347 2856 1156 
z
" transform="scale(0.015625)"/>
       </defs>
       <use xlink:href="#Calibri-30"/>
       <use xlink:href="#Calibri-2e" x="50.683594"/>
       <use xlink:href="#Calibri-33" x="75.927734"/>
      </g>
     </g>
    </g>
    <g id="xtick_5">
     <g id="line2d_5">
      <g>
       <use xlink:href="#m268d5d0e88" x="171.8784" y="307.584" style="stroke: #000000; stroke-width: 0.8"/>
      </g>
     </g>
     <g id="text_5">
      <!-- 0.4 -->
      <g transform="translate(165.54715 321.385562) scale(0.1 -0.1)">
       <defs>
        <path id="Calibri-34" d="M 3059 1150 
Q 3059 1047 3028 987 
Q 2997 928 2941 928 
L 2484 928 
L 2484 78 
Q 2484 53 2471 36 
Q 2459 19 2428 6 
Q 2397 -6 2347 -12 
Q 2297 -19 2219 -19 
Q 2144 -19 2094 -12 
Q 2044 -6 2014 6 
Q 1984 19 1973 36 
Q 1963 53 1963 78 
L 1963 928 
L 294 928 
Q 256 928 231 937 
Q 206 947 186 972 
Q 166 997 158 1044 
Q 150 1091 150 1166 
Q 150 1225 153 1272 
Q 156 1319 165 1358 
Q 175 1397 190 1433 
Q 206 1469 228 1509 
L 1684 3966 
Q 1700 3991 1729 4009 
Q 1759 4028 1806 4040 
Q 1853 4053 1922 4058 
Q 1991 4063 2084 4063 
Q 2188 4063 2264 4055 
Q 2341 4047 2387 4034 
Q 2434 4022 2459 4001 
Q 2484 3981 2484 3953 
L 2484 1372 
L 2941 1372 
Q 2994 1372 3026 1317 
Q 3059 1263 3059 1150 
z
M 1963 3591 
L 1956 3591 
L 641 1372 
L 1963 1372 
L 1963 3591 
z
" transform="scale(0.015625)"/>
       </defs>
       <use xlink:href="#Calibri-30"/>
       <use xlink:href="#Calibri-2e" x="50.683594"/>
       <use xlink:href="#Calibri-34" x="75.927734"/>
      </g>
     </g>
    </g>
    <g id="xtick_6">
     <g id="line2d_6">
      <g>
       <use xlink:href="#m268d5d0e88" x="200.448" y="307.584" style="stroke: #000000; stroke-width: 0.8"/>
      </g>
     </g>
     <g id="text_6">
      <!-- 0.5 -->
      <g transform="translate(194.11675 321.385562) scale(0.1 -0.1)">
       <defs>
        <path id="Calibri-35" d="M 2869 1300 
Q 2869 975 2759 722 
Q 2650 469 2450 295 
Q 2250 122 1973 31 
Q 1697 -59 1359 -59 
Q 1172 -59 1003 -32 
Q 834 -6 703 33 
Q 572 72 487 109 
Q 403 147 379 169 
Q 356 191 347 209 
Q 338 228 330 254 
Q 322 281 319 322 
Q 316 363 316 419 
Q 316 472 320 514 
Q 325 556 337 582 
Q 350 609 367 621 
Q 384 634 406 634 
Q 438 634 503 595 
Q 569 556 680 511 
Q 791 466 955 425 
Q 1119 384 1344 384 
Q 1553 384 1728 434 
Q 1903 484 2029 590 
Q 2156 697 2228 858 
Q 2300 1019 2300 1250 
Q 2300 1444 2239 1592 
Q 2178 1741 2051 1839 
Q 1925 1938 1731 1986 
Q 1538 2034 1269 2034 
Q 1078 2034 940 2015 
Q 803 1997 684 1997 
Q 597 1997 559 2037 
Q 522 2078 522 2194 
L 522 3841 
Q 522 3944 570 3994 
Q 619 4044 709 4044 
L 2500 4044 
Q 2525 4044 2548 4030 
Q 2572 4016 2587 3987 
Q 2603 3959 2611 3915 
Q 2619 3872 2619 3813 
Q 2619 3700 2587 3637 
Q 2556 3575 2500 3575 
L 991 3575 
L 991 2441 
Q 1100 2456 1214 2459 
Q 1328 2463 1478 2463 
Q 1825 2463 2084 2380 
Q 2344 2297 2517 2145 
Q 2691 1994 2780 1778 
Q 2869 1563 2869 1300 
z
" transform="scale(0.015625)"/>
       </defs>
       <use xlink:href="#Calibri-30"/>
       <use xlink:href="#Calibri-2e" x="50.683594"/>
       <use xlink:href="#Calibri-35" x="75.927734"/>
      </g>
     </g>
    </g>
    <g id="xtick_7">
     <g id="line2d_7">
      <g>
       <use xlink:href="#m268d5d0e88" x="229.0176" y="307.584" style="stroke: #000000; stroke-width: 0.8"/>
      </g>
     </g>
     <g id="text_7">
      <!-- 0.6 -->
      <g transform="translate(222.68635 321.385562) scale(0.1 -0.1)">
       <defs>
        <path id="Calibri-36" d="M 2991 1309 
Q 2991 1044 2909 795 
Q 2828 547 2659 358 
Q 2491 169 2231 55 
Q 1972 -59 1619 -59 
Q 1366 -59 1172 3 
Q 978 66 834 181 
Q 691 297 595 465 
Q 500 634 442 850 
Q 384 1066 359 1322 
Q 334 1578 334 1872 
Q 334 2131 362 2397 
Q 391 2663 462 2909 
Q 534 3156 657 3373 
Q 781 3591 967 3752 
Q 1153 3913 1412 4006 
Q 1672 4100 2016 4100 
Q 2131 4100 2250 4086 
Q 2369 4072 2469 4048 
Q 2569 4025 2637 3997 
Q 2706 3969 2728 3951 
Q 2750 3934 2761 3914 
Q 2772 3894 2778 3870 
Q 2784 3847 2787 3817 
Q 2791 3788 2791 3744 
Q 2791 3688 2789 3647 
Q 2788 3606 2777 3581 
Q 2766 3556 2748 3543 
Q 2731 3531 2703 3531 
Q 2669 3531 2609 3553 
Q 2550 3575 2465 3601 
Q 2381 3628 2261 3650 
Q 2141 3672 1981 3672 
Q 1691 3672 1481 3553 
Q 1272 3434 1139 3234 
Q 1006 3034 942 2770 
Q 878 2506 869 2219 
Q 950 2266 1051 2312 
Q 1153 2359 1273 2396 
Q 1394 2434 1528 2457 
Q 1663 2481 1816 2481 
Q 2144 2481 2369 2392 
Q 2594 2303 2733 2145 
Q 2872 1988 2931 1773 
Q 2991 1559 2991 1309 
z
M 2447 1259 
Q 2447 1441 2411 1589 
Q 2375 1738 2290 1841 
Q 2206 1944 2065 2000 
Q 1925 2056 1719 2056 
Q 1603 2056 1487 2036 
Q 1372 2016 1264 1980 
Q 1156 1944 1057 1895 
Q 959 1847 878 1791 
Q 878 1388 929 1116 
Q 981 844 1079 680 
Q 1178 516 1325 445 
Q 1472 375 1669 375 
Q 1869 375 2016 450 
Q 2163 525 2259 651 
Q 2356 778 2401 936 
Q 2447 1094 2447 1259 
z
" transform="scale(0.015625)"/>
       </defs>
       <use xlink:href="#Calibri-30"/>
       <use xlink:href="#Calibri-2e" x="50.683594"/>
       <use xlink:href="#Calibri-36" x="75.927734"/>
      </g>
     </g>
    </g>
    <g id="xtick_8">
     <g id="line2d_8">
      <g>
       <use xlink:href="#m268d5d0e88" x="257.5872" y="307.584" style="stroke: #000000; stroke-width: 0.8"/>
      </g>
     </g>
     <g id="text_8">
      <!-- 0.7 -->
      <g transform="translate(251.25595 321.385562) scale(0.1 -0.1)">
       <defs>
        <path id="Calibri-37" d="M 2947 3813 
Q 2947 3756 2942 3711 
Q 2938 3666 2930 3623 
Q 2922 3581 2908 3542 
Q 2894 3503 2875 3459 
L 1419 103 
Q 1403 66 1379 42 
Q 1356 19 1320 5 
Q 1284 -9 1228 -14 
Q 1172 -19 1091 -19 
Q 984 -19 925 -9 
Q 866 0 839 20 
Q 813 41 816 70 
Q 819 100 838 141 
L 2369 3572 
L 428 3572 
Q 369 3572 339 3634 
Q 309 3697 309 3809 
Q 309 3869 317 3912 
Q 325 3956 340 3986 
Q 356 4016 378 4030 
Q 400 4044 428 4044 
L 2784 4044 
Q 2828 4044 2861 4034 
Q 2894 4025 2911 3997 
Q 2928 3969 2937 3925 
Q 2947 3881 2947 3813 
z
" transform="scale(0.015625)"/>
       </defs>
       <use xlink:href="#Calibri-30"/>
       <use xlink:href="#Calibri-2e" x="50.683594"/>
       <use xlink:href="#Calibri-37" x="75.927734"/>
      </g>
     </g>
    </g>
    <g id="xtick_9">
     <g id="line2d_9">
      <g>
       <use xlink:href="#m268d5d0e88" x="286.1568" y="307.584" style="stroke: #000000; stroke-width: 0.8"/>
      </g>
     </g>
     <g id="text_9">
      <!-- 0.8 -->
      <g transform="translate(279.82555 321.385562) scale(0.1 -0.1)">
       <defs>
        <path id="Calibri-38" d="M 2981 1038 
Q 2981 775 2887 570 
Q 2794 366 2617 225 
Q 2441 84 2181 12 
Q 1922 -59 1588 -59 
Q 1275 -59 1028 6 
Q 781 72 609 200 
Q 438 328 347 515 
Q 256 703 256 944 
Q 256 1134 318 1293 
Q 381 1453 498 1587 
Q 616 1722 787 1839 
Q 959 1956 1175 2063 
Q 988 2159 844 2267 
Q 700 2375 600 2501 
Q 500 2628 448 2772 
Q 397 2916 397 3084 
Q 397 3297 473 3483 
Q 550 3669 704 3806 
Q 859 3944 1098 4023 
Q 1338 4103 1656 4103 
Q 1963 4103 2186 4029 
Q 2409 3956 2554 3829 
Q 2700 3703 2769 3531 
Q 2838 3359 2838 3163 
Q 2838 3003 2786 2856 
Q 2734 2709 2634 2578 
Q 2534 2447 2389 2333 
Q 2244 2219 2056 2119 
Q 2278 2009 2451 1893 
Q 2625 1778 2742 1645 
Q 2859 1513 2920 1364 
Q 2981 1216 2981 1038 
z
M 2306 3113 
Q 2306 3244 2261 3350 
Q 2216 3456 2128 3531 
Q 2041 3606 1911 3645 
Q 1781 3684 1616 3684 
Q 1278 3684 1104 3531 
Q 931 3378 931 3113 
Q 931 2991 973 2886 
Q 1016 2781 1105 2687 
Q 1194 2594 1330 2505 
Q 1466 2416 1653 2319 
Q 1969 2481 2137 2678 
Q 2306 2875 2306 3113 
z
M 2438 981 
Q 2438 1125 2384 1242 
Q 2331 1359 2223 1461 
Q 2116 1563 1955 1658 
Q 1794 1753 1581 1856 
Q 1384 1759 1236 1662 
Q 1088 1566 992 1462 
Q 897 1359 848 1245 
Q 800 1131 800 994 
Q 800 691 1008 525 
Q 1216 359 1628 359 
Q 2028 359 2233 526 
Q 2438 694 2438 981 
z
" transform="scale(0.015625)"/>
       </defs>
       <use xlink:href="#Calibri-30"/>
       <use xlink:href="#Calibri-2e" x="50.683594"/>
       <use xlink:href="#Calibri-38" x="75.927734"/>
      </g>
     </g>
    </g>
    <g id="xtick_10">
     <g id="line2d_10">
      <g>
       <use xlink:href="#m268d5d0e88" x="314.7264" y="307.584" style="stroke: #000000; stroke-width: 0.8"/>
      </g>
     </g>
     <g id="text_10">
      <!-- 0.9 -->
      <g transform="translate(308.39515 321.385562) scale(0.1 -0.1)">
       <defs>
        <path id="Calibri-39" d="M 2919 2181 
Q 2919 1919 2887 1650 
Q 2856 1381 2781 1132 
Q 2706 884 2579 667 
Q 2453 450 2261 287 
Q 2069 125 1805 33 
Q 1541 -59 1191 -59 
Q 1056 -59 929 -42 
Q 803 -25 701 0 
Q 600 25 531 53 
Q 463 81 431 109 
Q 400 138 386 186 
Q 372 234 372 316 
Q 372 384 376 425 
Q 381 466 390 487 
Q 400 509 417 517 
Q 434 525 459 525 
Q 494 525 556 501 
Q 619 478 714 450 
Q 809 422 937 398 
Q 1066 375 1225 375 
Q 1528 375 1745 492 
Q 1963 609 2100 806 
Q 2238 1003 2306 1262 
Q 2375 1522 2381 1809 
Q 2216 1713 1984 1638 
Q 1753 1563 1453 1563 
Q 1116 1563 886 1655 
Q 656 1747 517 1906 
Q 378 2066 317 2284 
Q 256 2503 256 2763 
Q 256 3031 334 3273 
Q 413 3516 578 3700 
Q 744 3884 1000 3993 
Q 1256 4103 1613 4103 
Q 1866 4103 2061 4039 
Q 2256 3975 2400 3854 
Q 2544 3734 2644 3564 
Q 2744 3394 2805 3178 
Q 2866 2963 2892 2711 
Q 2919 2459 2919 2181 
z
M 2372 2241 
Q 2372 2641 2319 2914 
Q 2266 3188 2162 3356 
Q 2059 3525 1909 3600 
Q 1759 3675 1563 3675 
Q 1359 3675 1215 3601 
Q 1072 3528 980 3404 
Q 888 3281 844 3125 
Q 800 2969 800 2803 
Q 800 2619 839 2466 
Q 878 2313 965 2206 
Q 1053 2100 1193 2042 
Q 1334 1984 1541 1984 
Q 1775 1984 1994 2054 
Q 2213 2125 2372 2241 
z
" transform="scale(0.015625)"/>
       </defs>
       <use xlink:href="#Calibri-30"/>
       <use xlink:href="#Calibri-2e" x="50.683594"/>
       <use xlink:href="#Calibri-39" x="75.927734"/>
      </g>
     </g>
    </g>
    <g id="xtick_11">
     <g id="line2d_11">
      <g>
       <use xlink:href="#m268d5d0e88" x="343.296" y="307.584" style="stroke: #000000; stroke-width: 0.8"/>
      </g>
     </g>
     <g id="text_11">
      <!-- 1.0 -->
      <g transform="translate(336.96475 321.385562) scale(0.1 -0.1)">
       <use xlink:href="#Calibri-31"/>
       <use xlink:href="#Calibri-2e" x="50.683594"/>
       <use xlink:href="#Calibri-30" x="75.927734"/>
      </g>
     </g>
    </g>
    <g id="text_12">
     <!-- $\mathit{p}$ (cm$^2$/cm$^2$) -->
     <g transform="translate(174.148 336.263687) scale(0.1 -0.1)">
      <defs>
       <path id="DejaVuSans-Oblique-70" d="M 3175 2156 
Q 3175 2616 2975 2859 
Q 2775 3103 2400 3103 
Q 2144 3103 1911 2972 
Q 1678 2841 1497 2591 
Q 1319 2344 1212 1994 
Q 1106 1644 1106 1300 
Q 1106 863 1306 627 
Q 1506 391 1875 391 
Q 2147 391 2380 519 
Q 2613 647 2778 891 
Q 2956 1147 3065 1494 
Q 3175 1841 3175 2156 
z
M 1394 2969 
Q 1625 3272 1939 3428 
Q 2253 3584 2638 3584 
Q 3175 3584 3472 3232 
Q 3769 2881 3769 2247 
Q 3769 1728 3584 1258 
Q 3400 788 3053 416 
Q 2822 169 2531 39 
Q 2241 -91 1919 -91 
Q 1547 -91 1294 64 
Q 1041 219 916 525 
L 556 -1331 
L -19 -1331 
L 922 3500 
L 1497 3500 
L 1394 2969 
z
" transform="scale(0.015625)"/>
       <path id="Calibri-20" transform="scale(0.015625)"/>
       <path id="Calibri-28" d="M 1547 4306 
Q 1250 3678 1104 3017 
Q 959 2356 959 1688 
Q 959 1016 1107 356 
Q 1256 -303 1541 -938 
Q 1556 -975 1557 -1001 
Q 1559 -1028 1537 -1045 
Q 1516 -1063 1470 -1070 
Q 1425 -1078 1347 -1078 
Q 1291 -1078 1250 -1075 
Q 1209 -1072 1179 -1062 
Q 1150 -1053 1131 -1040 
Q 1113 -1028 1103 -1013 
Q 934 -694 806 -367 
Q 678 -41 590 296 
Q 503 634 459 979 
Q 416 1325 416 1678 
Q 416 2031 464 2375 
Q 513 2719 602 3058 
Q 691 3397 819 3725 
Q 947 4053 1106 4375 
Q 1109 4388 1123 4397 
Q 1138 4406 1163 4415 
Q 1188 4425 1231 4429 
Q 1275 4434 1344 4434 
Q 1416 4434 1459 4425 
Q 1503 4416 1528 4400 
Q 1553 4384 1556 4359 
Q 1559 4334 1547 4306 
z
" transform="scale(0.015625)"/>
       <path id="Calibri-63" d="M 2500 506 
Q 2500 453 2497 414 
Q 2494 375 2486 348 
Q 2478 322 2467 301 
Q 2456 281 2417 242 
Q 2378 203 2284 145 
Q 2191 88 2073 42 
Q 1956 -3 1818 -31 
Q 1681 -59 1534 -59 
Q 1231 -59 997 41 
Q 763 141 605 333 
Q 447 525 364 804 
Q 281 1084 281 1450 
Q 281 1866 382 2164 
Q 484 2463 661 2653 
Q 838 2844 1077 2936 
Q 1316 3028 1594 3028 
Q 1728 3028 1854 3003 
Q 1981 2978 2087 2937 
Q 2194 2897 2276 2844 
Q 2359 2791 2396 2753 
Q 2434 2716 2448 2694 
Q 2463 2672 2472 2642 
Q 2481 2613 2484 2575 
Q 2488 2538 2488 2481 
Q 2488 2359 2459 2311 
Q 2431 2263 2391 2263 
Q 2344 2263 2283 2314 
Q 2222 2366 2128 2428 
Q 2034 2491 1901 2542 
Q 1769 2594 1588 2594 
Q 1216 2594 1017 2308 
Q 819 2022 819 1478 
Q 819 1206 870 1001 
Q 922 797 1022 659 
Q 1122 522 1267 455 
Q 1413 388 1600 388 
Q 1778 388 1912 444 
Q 2047 500 2145 567 
Q 2244 634 2311 689 
Q 2378 744 2416 744 
Q 2438 744 2453 731 
Q 2469 719 2480 689 
Q 2491 659 2495 614 
Q 2500 569 2500 506 
z
" transform="scale(0.015625)"/>
       <path id="Calibri-6d" d="M 4650 78 
Q 4650 53 4637 36 
Q 4625 19 4597 6 
Q 4569 -6 4519 -12 
Q 4469 -19 4394 -19 
Q 4316 -19 4266 -12 
Q 4216 -6 4186 6 
Q 4156 19 4143 36 
Q 4131 53 4131 78 
L 4131 1788 
Q 4131 1966 4100 2112 
Q 4069 2259 4000 2365 
Q 3931 2472 3825 2528 
Q 3719 2584 3575 2584 
Q 3397 2584 3217 2446 
Q 3038 2309 2822 2044 
L 2822 78 
Q 2822 53 2809 36 
Q 2797 19 2767 6 
Q 2738 -6 2688 -12 
Q 2638 -19 2563 -19 
Q 2491 -19 2439 -12 
Q 2388 -6 2358 6 
Q 2328 19 2317 36 
Q 2306 53 2306 78 
L 2306 1788 
Q 2306 1966 2272 2112 
Q 2238 2259 2169 2365 
Q 2100 2472 1995 2528 
Q 1891 2584 1747 2584 
Q 1569 2584 1387 2446 
Q 1206 2309 994 2044 
L 994 78 
Q 994 53 981 36 
Q 969 19 941 6 
Q 913 -6 863 -12 
Q 813 -19 734 -19 
Q 659 -19 609 -12 
Q 559 -6 529 6 
Q 500 19 489 36 
Q 478 53 478 78 
L 478 2891 
Q 478 2916 487 2933 
Q 497 2950 525 2964 
Q 553 2978 597 2983 
Q 641 2988 713 2988 
Q 781 2988 826 2983 
Q 872 2978 897 2964 
Q 922 2950 933 2933 
Q 944 2916 944 2891 
L 944 2519 
Q 1181 2784 1404 2907 
Q 1628 3031 1856 3031 
Q 2031 3031 2170 2990 
Q 2309 2950 2415 2876 
Q 2522 2803 2597 2701 
Q 2672 2600 2722 2475 
Q 2863 2628 2989 2734 
Q 3116 2841 3233 2906 
Q 3350 2972 3461 3001 
Q 3572 3031 3684 3031 
Q 3956 3031 4140 2936 
Q 4325 2841 4439 2681 
Q 4553 2522 4601 2308 
Q 4650 2094 4650 1856 
L 4650 78 
z
" transform="scale(0.015625)"/>
       <path id="DejaVuSans-32" d="M 1228 531 
L 3431 531 
L 3431 0 
L 469 0 
L 469 531 
Q 828 903 1448 1529 
Q 2069 2156 2228 2338 
Q 2531 2678 2651 2914 
Q 2772 3150 2772 3378 
Q 2772 3750 2511 3984 
Q 2250 4219 1831 4219 
Q 1534 4219 1204 4116 
Q 875 4013 500 3803 
L 500 4441 
Q 881 4594 1212 4672 
Q 1544 4750 1819 4750 
Q 2544 4750 2975 4387 
Q 3406 4025 3406 3419 
Q 3406 3131 3298 2873 
Q 3191 2616 2906 2266 
Q 2828 2175 2409 1742 
Q 1991 1309 1228 531 
z
" transform="scale(0.015625)"/>
       <path id="Calibri-2f" d="M 525 -753 
Q 513 -794 492 -817 
Q 472 -841 440 -853 
Q 409 -866 364 -872 
Q 319 -878 253 -878 
Q 175 -878 123 -867 
Q 72 -856 44 -836 
Q 16 -816 9 -786 
Q 3 -756 22 -716 
L 1913 4469 
Q 1925 4509 1945 4532 
Q 1966 4556 1995 4570 
Q 2025 4584 2072 4589 
Q 2119 4594 2184 4594 
Q 2263 4594 2313 4583 
Q 2363 4572 2391 4553 
Q 2419 4534 2425 4503 
Q 2431 4472 2416 4431 
L 525 -753 
z
" transform="scale(0.015625)"/>
       <path id="Calibri-29" d="M 1522 1678 
Q 1522 1325 1478 979 
Q 1434 634 1346 296 
Q 1259 -41 1132 -367 
Q 1006 -694 838 -1013 
Q 828 -1028 809 -1040 
Q 791 -1053 761 -1062 
Q 731 -1072 690 -1075 
Q 650 -1078 594 -1078 
Q 513 -1078 467 -1070 
Q 422 -1063 401 -1045 
Q 381 -1028 382 -1001 
Q 384 -975 400 -938 
Q 688 -306 834 355 
Q 981 1016 981 1688 
Q 981 2356 834 3017 
Q 688 3678 394 4306 
Q 381 4334 384 4359 
Q 388 4384 413 4400 
Q 438 4416 481 4425 
Q 525 4434 597 4434 
Q 663 4434 706 4429 
Q 750 4425 776 4415 
Q 803 4406 815 4397 
Q 828 4388 834 4375 
Q 1156 3734 1339 3057 
Q 1522 2381 1522 1678 
z
" transform="scale(0.015625)"/>
      </defs>
      <use xlink:href="#DejaVuSans-Oblique-70" transform="translate(0 0.765625)"/>
      <use xlink:href="#Calibri-20" transform="translate(63.476562 0.765625)"/>
      <use xlink:href="#Calibri-28" transform="translate(84.958984 0.765625)"/>
      <use xlink:href="#Calibri-63" transform="translate(115.28125 0.765625)"/>
      <use xlink:href="#Calibri-6d" transform="translate(157.566406 0.765625)"/>
      <use xlink:href="#DejaVuSans-32" transform="translate(238.40625 39.046875) scale(0.7)"/>
      <use xlink:href="#Calibri-2f" transform="translate(285.676758 0.765625)"/>
      <use xlink:href="#Calibri-63" transform="translate(324.299805 0.765625)"/>
      <use xlink:href="#Calibri-6d" transform="translate(366.584961 0.765625)"/>
      <use xlink:href="#DejaVuSans-32" transform="translate(447.424805 39.046875) scale(0.7)"/>
      <use xlink:href="#Calibri-29" transform="translate(494.695312 0.765625)"/>
     </g>
    </g>
   </g>
   <g id="matplotlib.axis_2">
    <g id="ytick_1">
     <g id="line2d_12">
      <defs>
       <path id="maf25ab9d01" d="M 0 0 
L -3.5 0 
" style="stroke: #000000; stroke-width: 0.8"/>
      </defs>
      <g>
       <use xlink:href="#maf25ab9d01" x="57.6" y="275.65056" style="stroke: #000000; stroke-width: 0.8"/>
      </g>
     </g>
     <g id="text_13">
      <!-- 25 -->
      <g transform="translate(40.4625 279.051341) scale(0.1 -0.1)">
       <use xlink:href="#Calibri-32"/>
       <use xlink:href="#Calibri-35" x="50.683594"/>
      </g>
     </g>
    </g>
    <g id="ytick_2">
     <g id="line2d_13">
      <g>
       <use xlink:href="#maf25ab9d01" x="57.6" y="242.38656" style="stroke: #000000; stroke-width: 0.8"/>
      </g>
     </g>
     <g id="text_14">
      <!-- 50 -->
      <g transform="translate(40.4625 245.787341) scale(0.1 -0.1)">
       <use xlink:href="#Calibri-35"/>
       <use xlink:href="#Calibri-30" x="50.683594"/>
      </g>
     </g>
    </g>
    <g id="ytick_3">
     <g id="line2d_14">
      <g>
       <use xlink:href="#maf25ab9d01" x="57.6" y="209.12256" style="stroke: #000000; stroke-width: 0.8"/>
      </g>
     </g>
     <g id="text_15">
      <!-- 75 -->
      <g transform="translate(40.4625 212.523341) scale(0.1 -0.1)">
       <use xlink:href="#Calibri-37"/>
       <use xlink:href="#Calibri-35" x="50.683594"/>
      </g>
     </g>
    </g>
    <g id="ytick_4">
     <g id="line2d_15">
      <g>
       <use xlink:href="#maf25ab9d01" x="57.6" y="175.85856" style="stroke: #000000; stroke-width: 0.8"/>
      </g>
     </g>
     <g id="text_16">
      <!-- 100 -->
      <g transform="translate(35.39375 179.259341) scale(0.1 -0.1)">
       <use xlink:href="#Calibri-31"/>
       <use xlink:href="#Calibri-30" x="50.683594"/>
       <use xlink:href="#Calibri-30" x="101.367188"/>
      </g>
     </g>
    </g>
    <g id="ytick_5">
     <g id="line2d_16">
      <g>
       <use xlink:href="#maf25ab9d01" x="57.6" y="142.59456" style="stroke: #000000; stroke-width: 0.8"/>
      </g>
     </g>
     <g id="text_17">
      <!-- 125 -->
      <g transform="translate(35.39375 145.995341) scale(0.1 -0.1)">
       <use xlink:href="#Calibri-31"/>
       <use xlink:href="#Calibri-32" x="50.683594"/>
       <use xlink:href="#Calibri-35" x="101.367188"/>
      </g>
     </g>
    </g>
    <g id="ytick_6">
     <g id="line2d_17">
      <g>
       <use xlink:href="#maf25ab9d01" x="57.6" y="109.33056" style="stroke: #000000; stroke-width: 0.8"/>
      </g>
     </g>
     <g id="text_18">
      <!-- 150 -->
      <g transform="translate(35.39375 112.731341) scale(0.1 -0.1)">
       <use xlink:href="#Calibri-31"/>
       <use xlink:href="#Calibri-35" x="50.683594"/>
       <use xlink:href="#Calibri-30" x="101.367188"/>
      </g>
     </g>
    </g>
    <g id="ytick_7">
     <g id="line2d_18">
      <g>
       <use xlink:href="#maf25ab9d01" x="57.6" y="76.06656" style="stroke: #000000; stroke-width: 0.8"/>
      </g>
     </g>
     <g id="text_19">
      <!-- 175 -->
      <g transform="translate(35.39375 79.467341) scale(0.1 -0.1)">
       <use xlink:href="#Calibri-31"/>
       <use xlink:href="#Calibri-37" x="50.683594"/>
       <use xlink:href="#Calibri-35" x="101.367188"/>
      </g>
     </g>
    </g>
    <g id="ytick_8">
     <g id="line2d_19">
      <g>
       <use xlink:href="#maf25ab9d01" x="57.6" y="42.80256" style="stroke: #000000; stroke-width: 0.8"/>
      </g>
     </g>
     <g id="text_20">
      <!-- 200 -->
      <g transform="translate(35.39375 46.203341) scale(0.1 -0.1)">
       <use xlink:href="#Calibri-32"/>
       <use xlink:href="#Calibri-30" x="50.683594"/>
       <use xlink:href="#Calibri-30" x="101.367188"/>
      </g>
     </g>
    </g>
    <g id="text_21">
     <!-- $\mathit{Z}$$_{a}$ (nm) -->
     <g transform="translate(29.59375 191.028) rotate(-90) scale(0.1 -0.1)">
      <defs>
       <path id="DejaVuSans-Oblique-5a" d="M 838 4666 
L 4500 4666 
L 4409 4184 
L 794 531 
L 3769 531 
L 3669 0 
L -141 0 
L -50 481 
L 3566 4134 
L 738 4134 
L 838 4666 
z
" transform="scale(0.015625)"/>
       <path id="DejaVuSans-Oblique-61" d="M 3438 1997 
L 3047 0 
L 2472 0 
L 2578 531 
Q 2325 219 2001 64 
Q 1678 -91 1281 -91 
Q 834 -91 548 182 
Q 263 456 263 884 
Q 263 1497 752 1853 
Q 1241 2209 2100 2209 
L 2900 2209 
L 2931 2363 
Q 2938 2388 2941 2417 
Q 2944 2447 2944 2509 
Q 2944 2788 2717 2942 
Q 2491 3097 2081 3097 
Q 1800 3097 1504 3025 
Q 1209 2953 897 2809 
L 997 3341 
Q 1322 3463 1633 3523 
Q 1944 3584 2234 3584 
Q 2853 3584 3176 3315 
Q 3500 3047 3500 2534 
Q 3500 2431 3484 2292 
Q 3469 2153 3438 1997 
z
M 2816 1759 
L 2241 1759 
Q 1534 1759 1195 1570 
Q 856 1381 856 984 
Q 856 709 1029 553 
Q 1203 397 1509 397 
Q 1978 397 2328 733 
Q 2678 1069 2791 1631 
L 2816 1759 
z
" transform="scale(0.015625)"/>
       <path id="Calibri-6e" d="M 2900 78 
Q 2900 53 2887 36 
Q 2875 19 2847 6 
Q 2819 -6 2769 -12 
Q 2719 -19 2644 -19 
Q 2566 -19 2516 -12 
Q 2466 -6 2437 6 
Q 2409 19 2396 36 
Q 2384 53 2384 78 
L 2384 1725 
Q 2384 1966 2346 2112 
Q 2309 2259 2237 2365 
Q 2166 2472 2052 2528 
Q 1938 2584 1788 2584 
Q 1594 2584 1400 2446 
Q 1206 2309 994 2044 
L 994 78 
Q 994 53 981 36 
Q 969 19 941 6 
Q 913 -6 863 -12 
Q 813 -19 734 -19 
Q 659 -19 609 -12 
Q 559 -6 529 6 
Q 500 19 489 36 
Q 478 53 478 78 
L 478 2891 
Q 478 2916 487 2933 
Q 497 2950 525 2964 
Q 553 2978 597 2983 
Q 641 2988 713 2988 
Q 781 2988 826 2983 
Q 872 2978 897 2964 
Q 922 2950 933 2933 
Q 944 2916 944 2891 
L 944 2519 
Q 1181 2784 1417 2907 
Q 1653 3031 1894 3031 
Q 2175 3031 2367 2936 
Q 2559 2841 2678 2681 
Q 2797 2522 2848 2308 
Q 2900 2094 2900 1794 
L 2900 78 
z
" transform="scale(0.015625)"/>
      </defs>
      <use xlink:href="#DejaVuSans-Oblique-5a" transform="translate(0 0.09375)"/>
      <use xlink:href="#DejaVuSans-Oblique-61" transform="translate(69.462891 -16.3125) scale(0.7)"/>
      <use xlink:href="#Calibri-20" transform="translate(115.092773 0.09375)"/>
      <use xlink:href="#Calibri-28" transform="translate(136.575195 0.09375)"/>
      <use xlink:href="#Calibri-6e" transform="translate(166.897461 0.09375)"/>
      <use xlink:href="#Calibri-6d" transform="translate(219.436523 0.09375)"/>
      <use xlink:href="#Calibri-29" transform="translate(299.319336 0.09375)"/>
     </g>
    </g>
   </g>
   <g id="patch_3">
    <path d="M 57.6 307.584 
L 57.6 41.472 
" style="fill: none; stroke: #000000; stroke-width: 0.8; stroke-linejoin: miter; stroke-linecap: square"/>
   </g>
   <g id="patch_4">
    <path d="M 343.296 307.584 
L 343.296 41.472 
" style="fill: none; stroke: #000000; stroke-width: 0.8; stroke-linejoin: miter; stroke-linecap: square"/>
   </g>
   <g id="patch_5">
    <path d="M 57.6 307.584 
L 343.296 307.584 
" style="fill: none; stroke: #000000; stroke-width: 0.8; stroke-linejoin: miter; stroke-linecap: square"/>
   </g>
   <g id="patch_6">
    <path d="M 57.6 41.472 
L 343.296 41.472 
" style="fill: none; stroke: #000000; stroke-width: 0.8; stroke-linejoin: miter; stroke-linecap: square"/>
   </g>
   <g id="text_22">
    <!-- $\theta_m$ = 35 -->
    <g transform="translate(182.298 35.472) scale(0.1 -0.1)">
     <defs>
      <path id="DejaVuSans-Oblique-3b8" d="M 2913 2219 
L 925 2219 
Q 791 1284 928 888 
Q 1100 400 1566 400 
Q 2034 400 2391 891 
Q 2703 1322 2913 2219 
z
M 3009 2750 
Q 3094 3638 2984 3950 
Q 2813 4444 2353 4444 
Q 1875 4444 1525 3956 
Q 1250 3563 1034 2750 
L 3009 2750 
z
M 2444 4913 
Q 3194 4913 3494 4250 
Q 3794 3591 3566 2422 
Q 3341 1256 2781 594 
Q 2225 -72 1475 -72 
Q 722 -72 425 594 
Q 128 1256 353 2422 
Q 581 3591 1134 4250 
Q 1691 4913 2444 4913 
z
" transform="scale(0.015625)"/>
      <path id="DejaVuSans-Oblique-6d" d="M 5747 2113 
L 5338 0 
L 4763 0 
L 5166 2094 
Q 5191 2228 5203 2325 
Q 5216 2422 5216 2491 
Q 5216 2772 5059 2928 
Q 4903 3084 4622 3084 
Q 4203 3084 3875 2770 
Q 3547 2456 3450 1953 
L 3066 0 
L 2491 0 
L 2900 2094 
Q 2925 2209 2937 2307 
Q 2950 2406 2950 2484 
Q 2950 2769 2794 2926 
Q 2638 3084 2363 3084 
Q 1938 3084 1609 2770 
Q 1281 2456 1184 1953 
L 800 0 
L 225 0 
L 909 3500 
L 1484 3500 
L 1375 2956 
Q 1609 3263 1923 3423 
Q 2238 3584 2597 3584 
Q 2978 3584 3223 3384 
Q 3469 3184 3519 2828 
Q 3781 3197 4126 3390 
Q 4472 3584 4856 3584 
Q 5306 3584 5551 3325 
Q 5797 3066 5797 2591 
Q 5797 2488 5784 2364 
Q 5772 2241 5747 2113 
z
" transform="scale(0.015625)"/>
      <path id="Calibri-3d" d="M 2891 2409 
Q 2891 2284 2855 2236 
Q 2819 2188 2772 2188 
L 409 2188 
Q 363 2188 328 2236 
Q 294 2284 294 2409 
Q 294 2522 325 2575 
Q 356 2628 409 2628 
L 2772 2628 
Q 2828 2628 2859 2575 
Q 2891 2522 2891 2409 
z
M 2891 1194 
Q 2891 1069 2855 1022 
Q 2819 975 2772 975 
L 409 975 
Q 363 975 328 1022 
Q 294 1069 294 1194 
Q 294 1309 325 1362 
Q 356 1416 409 1416 
L 2772 1416 
Q 2828 1416 2859 1362 
Q 2891 1309 2891 1194 
z
" transform="scale(0.015625)"/>
      <path id="Calibri-b0" d="M 1847 3541 
Q 1847 3388 1789 3253 
Q 1731 3119 1626 3017 
Q 1522 2916 1380 2859 
Q 1238 2803 1072 2803 
Q 906 2803 770 2854 
Q 634 2906 534 3000 
Q 434 3094 378 3225 
Q 322 3356 322 3516 
Q 322 3675 381 3811 
Q 441 3947 545 4044 
Q 650 4141 790 4197 
Q 931 4253 1097 4253 
Q 1259 4253 1396 4200 
Q 1534 4147 1634 4055 
Q 1734 3963 1790 3831 
Q 1847 3700 1847 3541 
z
M 1453 3528 
Q 1453 3613 1425 3686 
Q 1397 3759 1347 3812 
Q 1297 3866 1228 3895 
Q 1159 3925 1078 3925 
Q 1000 3925 933 3895 
Q 866 3866 816 3812 
Q 766 3759 737 3687 
Q 709 3616 709 3534 
Q 709 3444 737 3369 
Q 766 3294 817 3241 
Q 869 3188 939 3158 
Q 1009 3128 1091 3128 
Q 1166 3128 1233 3159 
Q 1300 3191 1348 3245 
Q 1397 3300 1425 3372 
Q 1453 3444 1453 3528 
z
M 0 4044 
L 0 4044 
z
" transform="scale(0.015625)"/>
     </defs>
     <use xlink:href="#DejaVuSans-Oblique-3b8" transform="translate(0 0.234375)"/>
     <use xlink:href="#DejaVuSans-Oblique-6d" transform="translate(61.181641 -16.171875) scale(0.7)"/>
     <use xlink:href="#Calibri-20" transform="translate(132.104492 0.234375)"/>
     <use xlink:href="#Calibri-3d" transform="translate(154.711914 0.234375)"/>
     <use xlink:href="#Calibri-20" transform="translate(204.516602 0.234375)"/>
     <use xlink:href="#Calibri-33" transform="translate(227.124023 0.234375)"/>
     <use xlink:href="#Calibri-35" transform="translate(277.807617 0.234375)"/>
     <use xlink:href="#Calibri-b0" transform="translate(328.491211 0.234375)"/>
    </g>
   </g>
  </g>
  <g id="axes_2">
   <g id="patch_7">
    <path d="M 361.152 307.584 
L 374.4576 307.584 
L 374.4576 41.472 
L 361.152 41.472 
z
" style="fill: #ffffff"/>
   </g>
   <g id="QuadMesh_1">
    <path d="M 361.152 307.584 
L 374.4576 307.584 
L 374.4576 280.9728 
L 361.152 280.9728 
L 361.152 307.584 
" clip-path="url(#p0a283bb50d)" style="fill: #0000b6"/>
    <path d="M 361.152 280.9728 
L 374.4576 280.9728 
L 374.4576 254.3616 
L 361.152 254.3616 
L 361.152 280.9728 
" clip-path="url(#p0a283bb50d)" style="fill: #0018ff"/>
    <path d="M 361.152 254.3616 
L 374.4576 254.3616 
L 374.4576 227.7504 
L 361.152 227.7504 
L 361.152 254.3616 
" clip-path="url(#p0a283bb50d)" style="fill: #0080ff"/>
    <path d="M 361.152 227.7504 
L 374.4576 227.7504 
L 374.4576 201.1392 
L 361.152 201.1392 
L 361.152 227.7504 
" clip-path="url(#p0a283bb50d)" style="fill: #00e4f8"/>
    <path d="M 361.152 201.1392 
L 374.4576 201.1392 
L 374.4576 174.528 
L 361.152 174.528 
L 361.152 201.1392 
" clip-path="url(#p0a283bb50d)" style="fill: #53ffa4"/>
    <path d="M 361.152 174.528 
L 374.4576 174.528 
L 374.4576 147.9168 
L 361.152 147.9168 
L 361.152 174.528 
" clip-path="url(#p0a283bb50d)" style="fill: #a4ff53"/>
    <path d="M 361.152 147.9168 
L 374.4576 147.9168 
L 374.4576 121.3056 
L 361.152 121.3056 
L 361.152 147.9168 
" clip-path="url(#p0a283bb50d)" style="fill: #f8f500"/>
    <path d="M 361.152 121.3056 
L 374.4576 121.3056 
L 374.4576 94.6944 
L 361.152 94.6944 
L 361.152 121.3056 
" clip-path="url(#p0a283bb50d)" style="fill: #ff9400"/>
    <path d="M 361.152 94.6944 
L 374.4576 94.6944 
L 374.4576 68.0832 
L 361.152 68.0832 
L 361.152 94.6944 
" clip-path="url(#p0a283bb50d)" style="fill: #ff3800"/>
    <path d="M 361.152 68.0832 
L 374.4576 68.0832 
L 374.4576 41.472 
L 361.152 41.472 
L 361.152 68.0832 
" clip-path="url(#p0a283bb50d)" style="fill: #b60000"/>
   </g>
   <g id="matplotlib.axis_3"/>
   <g id="matplotlib.axis_4">
    <g id="ytick_9">
     <g id="line2d_20">
      <defs>
       <path id="ma49b24d7db" d="M 0 0 
L 3.5 0 
" style="stroke: #000000; stroke-width: 0.8"/>
      </defs>
      <g>
       <use xlink:href="#ma49b24d7db" x="374.4576" y="307.584" style="stroke: #000000; stroke-width: 0.8"/>
      </g>
     </g>
     <g id="text_23">
      <!-- 0 -->
      <g transform="translate(381.4576 310.984781) scale(0.1 -0.1)">
       <use xlink:href="#Calibri-30"/>
      </g>
     </g>
    </g>
    <g id="ytick_10">
     <g id="line2d_21">
      <g>
       <use xlink:href="#ma49b24d7db" x="374.4576" y="280.9728" style="stroke: #000000; stroke-width: 0.8"/>
      </g>
     </g>
     <g id="text_24">
      <!-- 0.1 -->
      <g transform="translate(381.4576 284.373581) scale(0.1 -0.1)">
       <use xlink:href="#Calibri-30"/>
       <use xlink:href="#Calibri-2e" x="50.683594"/>
       <use xlink:href="#Calibri-31" x="75.927734"/>
      </g>
     </g>
    </g>
    <g id="ytick_11">
     <g id="line2d_22">
      <g>
       <use xlink:href="#ma49b24d7db" x="374.4576" y="254.3616" style="stroke: #000000; stroke-width: 0.8"/>
      </g>
     </g>
     <g id="text_25">
      <!-- 0.2 -->
      <g transform="translate(381.4576 257.762381) scale(0.1 -0.1)">
       <use xlink:href="#Calibri-30"/>
       <use xlink:href="#Calibri-2e" x="50.683594"/>
       <use xlink:href="#Calibri-32" x="75.927734"/>
      </g>
     </g>
    </g>
    <g id="ytick_12">
     <g id="line2d_23">
      <g>
       <use xlink:href="#ma49b24d7db" x="374.4576" y="227.7504" style="stroke: #000000; stroke-width: 0.8"/>
      </g>
     </g>
     <g id="text_26">
      <!-- 0.3 -->
      <g transform="translate(381.4576 231.151181) scale(0.1 -0.1)">
       <use xlink:href="#Calibri-30"/>
       <use xlink:href="#Calibri-2e" x="50.683594"/>
       <use xlink:href="#Calibri-33" x="75.927734"/>
      </g>
     </g>
    </g>
    <g id="ytick_13">
     <g id="line2d_24">
      <g>
       <use xlink:href="#ma49b24d7db" x="374.4576" y="201.1392" style="stroke: #000000; stroke-width: 0.8"/>
      </g>
     </g>
     <g id="text_27">
      <!-- 0.4 -->
      <g transform="translate(381.4576 204.539981) scale(0.1 -0.1)">
       <use xlink:href="#Calibri-30"/>
       <use xlink:href="#Calibri-2e" x="50.683594"/>
       <use xlink:href="#Calibri-34" x="75.927734"/>
      </g>
     </g>
    </g>
    <g id="ytick_14">
     <g id="line2d_25">
      <g>
       <use xlink:href="#ma49b24d7db" x="374.4576" y="174.528" style="stroke: #000000; stroke-width: 0.8"/>
      </g>
     </g>
     <g id="text_28">
      <!-- 0.5 -->
      <g transform="translate(381.4576 177.928781) scale(0.1 -0.1)">
       <use xlink:href="#Calibri-30"/>
       <use xlink:href="#Calibri-2e" x="50.683594"/>
       <use xlink:href="#Calibri-35" x="75.927734"/>
      </g>
     </g>
    </g>
    <g id="ytick_15">
     <g id="line2d_26">
      <g>
       <use xlink:href="#ma49b24d7db" x="374.4576" y="147.9168" style="stroke: #000000; stroke-width: 0.8"/>
      </g>
     </g>
     <g id="text_29">
      <!-- 0.6 -->
      <g transform="translate(381.4576 151.317581) scale(0.1 -0.1)">
       <use xlink:href="#Calibri-30"/>
       <use xlink:href="#Calibri-2e" x="50.683594"/>
       <use xlink:href="#Calibri-36" x="75.927734"/>
      </g>
     </g>
    </g>
    <g id="ytick_16">
     <g id="line2d_27">
      <g>
       <use xlink:href="#ma49b24d7db" x="374.4576" y="121.3056" style="stroke: #000000; stroke-width: 0.8"/>
      </g>
     </g>
     <g id="text_30">
      <!-- 0.7 -->
      <g transform="translate(381.4576 124.706381) scale(0.1 -0.1)">
       <use xlink:href="#Calibri-30"/>
       <use xlink:href="#Calibri-2e" x="50.683594"/>
       <use xlink:href="#Calibri-37" x="75.927734"/>
      </g>
     </g>
    </g>
    <g id="ytick_17">
     <g id="line2d_28">
      <g>
       <use xlink:href="#ma49b24d7db" x="374.4576" y="94.6944" style="stroke: #000000; stroke-width: 0.8"/>
      </g>
     </g>
     <g id="text_31">
      <!-- 0.8 -->
      <g transform="translate(381.4576 98.095181) scale(0.1 -0.1)">
       <use xlink:href="#Calibri-30"/>
       <use xlink:href="#Calibri-2e" x="50.683594"/>
       <use xlink:href="#Calibri-38" x="75.927734"/>
      </g>
     </g>
    </g>
    <g id="ytick_18">
     <g id="line2d_29">
      <g>
       <use xlink:href="#ma49b24d7db" x="374.4576" y="68.0832" style="stroke: #000000; stroke-width: 0.8"/>
      </g>
     </g>
     <g id="text_32">
      <!-- 0.9 -->
      <g transform="translate(381.4576 71.483981) scale(0.1 -0.1)">
       <use xlink:href="#Calibri-30"/>
       <use xlink:href="#Calibri-2e" x="50.683594"/>
       <use xlink:href="#Calibri-39" x="75.927734"/>
      </g>
     </g>
    </g>
    <g id="ytick_19">
     <g id="line2d_30">
      <g>
       <use xlink:href="#ma49b24d7db" x="374.4576" y="41.472" style="stroke: #000000; stroke-width: 0.8"/>
      </g>
     </g>
     <g id="text_33">
      <!-- 1.0 -->
      <g transform="translate(381.4576 44.872781) scale(0.1 -0.1)">
       <use xlink:href="#Calibri-31"/>
       <use xlink:href="#Calibri-2e" x="50.683594"/>
       <use xlink:href="#Calibri-30" x="75.927734"/>
      </g>
     </g>
    </g>
   </g>
   <g id="LineCollection_1"/>
   <g id="patch_8">
    <path d="M 361.152 307.584 
L 367.8048 307.584 
L 374.4576 307.584 
L 374.4576 41.472 
L 367.8048 41.472 
L 361.152 41.472 
L 361.152 307.584 
z
" style="fill: none; stroke: #000000; stroke-width: 0.8; stroke-linejoin: miter; stroke-linecap: square"/>
   </g>
   <g id="text_34">
    <!-- $\mathit{E}_{\mathrm{NF}}$/$\mathit{E}_{\mathrm{i}}$ -->
    <g transform="translate(353.6548 35.472) scale(0.1 -0.1)">
     <defs>
      <path id="DejaVuSans-Oblique-45" d="M 1081 4666 
L 4031 4666 
L 3928 4134 
L 1606 4134 
L 1338 2753 
L 3566 2753 
L 3463 2222 
L 1234 2222 
L 909 531 
L 3284 531 
L 3181 0 
L 172 0 
L 1081 4666 
z
" transform="scale(0.015625)"/>
      <path id="DejaVuSans-4e" d="M 628 4666 
L 1478 4666 
L 3547 763 
L 3547 4666 
L 4159 4666 
L 4159 0 
L 3309 0 
L 1241 3903 
L 1241 0 
L 628 0 
L 628 4666 
z
" transform="scale(0.015625)"/>
      <path id="DejaVuSans-46" d="M 628 4666 
L 3309 4666 
L 3309 4134 
L 1259 4134 
L 1259 2759 
L 3109 2759 
L 3109 2228 
L 1259 2228 
L 1259 0 
L 628 0 
L 628 4666 
z
" transform="scale(0.015625)"/>
      <path id="DejaVuSans-69" d="M 603 3500 
L 1178 3500 
L 1178 0 
L 603 0 
L 603 3500 
z
M 603 4863 
L 1178 4863 
L 1178 4134 
L 603 4134 
L 603 4863 
z
" transform="scale(0.015625)"/>
     </defs>
     <use xlink:href="#DejaVuSans-Oblique-45" transform="translate(0 0.09375)"/>
     <use xlink:href="#DejaVuSans-4e" transform="translate(63.183594 -16.3125) scale(0.7)"/>
     <use xlink:href="#DejaVuSans-46" transform="translate(115.546875 -16.3125) scale(0.7)"/>
     <use xlink:href="#Calibri-2f" transform="translate(158.544922 0.09375)"/>
     <use xlink:href="#DejaVuSans-Oblique-45" transform="translate(197.167969 0.09375)"/>
     <use xlink:href="#DejaVuSans-69" transform="translate(260.351562 -16.3125) scale(0.7)"/>
    </g>
   </g>
  </g>
 </g>
 <defs>
  <clipPath id="pb6ac157fed">
   <rect x="57.6" y="41.472" width="285.696" height="266.112"/>
  </clipPath>
  <clipPath id="p0a283bb50d">
   <rect x="361.152" y="41.472" width="13.3056" height="266.112"/>
  </clipPath>
 </defs>
</svg>
