<?xml version="1.0" encoding="utf-8" standalone="no"?>
<!DOCTYPE svg PUBLIC "-//W3C//DTD SVG 1.1//EN"
  "http://www.w3.org/Graphics/SVG/1.1/DTD/svg11.dtd">
<svg xmlns:xlink="http://www.w3.org/1999/xlink" width="460.8pt" height="345.6pt" viewBox="0 0 460.8 345.6" xmlns="http://www.w3.org/2000/svg" version="1.1">
 <metadata>
  <rdf:RDF xmlns:dc="http://purl.org/dc/elements/1.1/" xmlns:cc="http://creativecommons.org/ns#" xmlns:rdf="http://www.w3.org/1999/02/22-rdf-syntax-ns#">
   <cc:Work>
    <dc:type rdf:resource="http://purl.org/dc/dcmitype/StillImage"/>
    <dc:date>2024-01-22T08:39:43.881341</dc:date>
    <dc:format>image/svg+xml</dc:format>
    <dc:creator>
     <cc:Agent>
      <dc:title>Matplotlib v3.7.1, https://matplotlib.org/</dc:title>
     </cc:Agent>
    </dc:creator>
   </cc:Work>
  </rdf:RDF>
 </metadata>
 <defs>
  <style type="text/css">*{stroke-linejoin: round; stroke-linecap: butt}</style>
 </defs>
 <g id="figure_1">
  <g id="patch_1">
   <path d="M 0 345.6 
L 460.8 345.6 
L 460.8 0 
L 0 0 
z
" style="fill: #ffffff"/>
  </g>
  <g id="axes_1">
   <g id="patch_2">
    <path d="M 57.6 307.584 
L 343.296 307.584 
L 343.296 41.472 
L 57.6 41.472 
z
" style="fill: #ffffff"/>
   </g>
   <g id="PathCollection_1">
    <path clip-path="url(#p334f4547c7)" style="fill: #0000b6"/>
   </g>
   <g id="PathCollection_2">
    <path d="M 57.62857 53.38588 
L 57.970337 54.03149 
L 58.374115 54.7776 
L 58.628483 55.251253 
L 58.903357 55.75188 
L 59.622302 57.077903 
L 60.180846 58.104 
L 60.548787 58.774437 
L 60.937078 59.48003 
L 61.284146 60.102748 
L 61.481713 60.45612 
L 61.841029 61.106061 
L 62.024718 61.4304 
L 62.082081 61.536764 
L 62.575302 62.40468 
L 62.962011 63.092619 
L 63.633686 64.283873 
L 63.768393 64.519761 
L 63.904005 64.7568 
L 64.652857 66.05415 
L 65.263065 67.10892 
L 65.625345 67.741193 
L 65.697694 67.860369 
L 65.830743 68.0832 
L 66.37653 69.031776 
L 66.391079 69.05748 
L 67.016383 70.115489 
L 67.782174 71.4096 
L 68.072163 71.895098 
L 69.188743 73.76172 
L 69.252726 73.869558 
L 69.440479 74.169272 
L 69.789792 74.736 
L 70.143127 75.328902 
L 70.331358 75.649869 
L 70.36874 75.71028 
L 71.543586 77.622272 
L 71.814179 78.0624 
L 72.619609 79.359355 
L 73.275075 80.41452 
L 73.666 81.031035 
L 73.894743 81.3888 
L 74.01035 81.576263 
L 74.071217 81.676523 
L 74.5096 82.36308 
L 75.065627 83.23894 
L 75.874915 84.513878 
L 75.933904 84.605628 
L 76.004321 84.7152 
L 76.844359 86.008608 
L 77.531487 87.06732 
L 77.89384 87.628338 
L 78.170651 88.0416 
L 78.732732 88.907829 
L 78.801754 89.01588 
L 79.272236 89.72521 
L 80.360912 91.368 
L 80.434164 91.477341 
L 80.751778 91.952039 
L 81.645214 93.279843 
L 81.941102 93.72012 
L 82.072587 93.908873 
L 82.61142 94.6944 
L 82.840389 95.036281 
L 82.957404 95.213692 
L 83.27086 95.66868 
L 84.073705 96.837498 
L 84.884878 98.0208 
L 85.018752 98.213875 
L 85.119683 98.359674 
L 85.908501 99.484773 
L 86.529639 100.37292 
L 86.965615 100.997685 
L 87.217034 101.3472 
L 87.552988 101.828847 
L 87.899151 102.32148 
L 88.412755 103.040048 
L 89.577787 104.6736 
L 89.607598 104.714912 
L 89.711757 104.859677 
L 90.823574 106.395239 
L 91.278929 107.02572 
L 91.606568 107.472119 
L 91.99674 108 
L 92.263416 108.371228 
L 92.708873 108.97428 
L 93.352169 109.845777 
L 94.112993 110.88018 
L 94.247949 111.061343 
L 94.444801 111.3264 
L 95.238084 112.381456 
L 96.20944 113.67852 
L 96.447393 113.996282 
L 96.951625 114.6528 
L 97.674868 115.61892 
L 97.681018 115.62708 
L 97.68931 115.637916 
L 97.706884 115.660956 
L 99.037175 117.393299 
L 99.485045 117.9792 
L 100.133567 118.816878 
L 100.555137 119.363386 
L 100.950411 119.869334 
L 101.309553 120.33132 
L 101.963858 121.172094 
L 102.068432 121.3056 
L 102.68237 122.088831 
L 102.832791 122.27988 
L 102.871279 122.328707 
L 102.913001 122.381899 
L 103.33993 122.914766 
L 103.33993 121.3056 
L 103.33993 117.9792 
L 103.33993 114.6528 
L 103.33993 111.3264 
L 103.33993 108 
L 103.33993 104.6736 
L 103.33993 101.3472 
L 103.33993 98.0208 
L 103.33993 94.6944 
L 103.33993 91.368 
L 103.33993 88.0416 
L 103.33993 84.7152 
L 103.33993 81.3888 
L 103.33993 78.0624 
L 103.33993 74.736 
L 103.33993 71.4096 
L 103.33993 68.0832 
L 103.33993 64.7568 
L 103.33993 61.4304 
L 103.33993 58.104 
L 103.33993 54.7776 
L 103.33993 51.4512 
L 103.33993 48.1248 
L 103.33993 44.7984 
L 103.33993 41.472 
L 101.816218 41.472 
L 100.292506 41.472 
L 98.768794 41.472 
L 97.245082 41.472 
L 95.72137 41.472 
L 94.197658 41.472 
L 92.673946 41.472 
L 91.150234 41.472 
L 89.626522 41.472 
L 88.10281 41.472 
L 86.579098 41.472 
L 85.055386 41.472 
L 83.531674 41.472 
L 82.007962 41.472 
L 80.48425 41.472 
L 78.960538 41.472 
L 77.436826 41.472 
L 75.913114 41.472 
L 74.389402 41.472 
L 72.86569 41.472 
L 71.341978 41.472 
L 69.818266 41.472 
L 68.294554 41.472 
L 66.770842 41.472 
L 65.24713 41.472 
L 63.723418 41.472 
L 62.199706 41.472 
L 60.675994 41.472 
L 59.152282 41.472 
L 57.62857 41.472 
L 57.62857 44.7984 
L 57.62857 48.1248 
L 57.62857 51.4512 
" clip-path="url(#p334f4547c7)" style="fill: #0018ff"/>
   </g>
   <g id="PathCollection_3">
    <path d="M 103.33993 122.914766 
L 102.913001 122.381899 
L 102.871279 122.328707 
L 102.832791 122.27988 
L 102.68237 122.088831 
L 102.068432 121.3056 
L 101.963858 121.172094 
L 101.309553 120.33132 
L 100.950411 119.869334 
L 100.555137 119.363386 
L 100.133567 118.816878 
L 99.485045 117.9792 
L 99.037175 117.393299 
L 97.706884 115.660956 
L 97.68931 115.637916 
L 97.681018 115.62708 
L 97.674868 115.61892 
L 96.951625 114.6528 
L 96.447393 113.996282 
L 96.20944 113.67852 
L 95.238084 112.381456 
L 94.444801 111.3264 
L 94.247949 111.061343 
L 94.112993 110.88018 
L 93.352169 109.845777 
L 92.708873 108.97428 
L 92.263416 108.371228 
L 91.99674 108 
L 91.606568 107.472119 
L 91.278929 107.02572 
L 90.823574 106.395239 
L 89.711757 104.859677 
L 89.607598 104.714912 
L 89.577787 104.6736 
L 88.412755 103.040048 
L 87.899151 102.32148 
L 87.552988 101.828847 
L 87.217034 101.3472 
L 86.965615 100.997685 
L 86.529639 100.37292 
L 85.908501 99.484773 
L 85.119683 98.359674 
L 85.018752 98.213875 
L 84.884878 98.0208 
L 84.073705 96.837498 
L 83.27086 95.66868 
L 82.957404 95.213692 
L 82.840389 95.036281 
L 82.61142 94.6944 
L 82.072587 93.908873 
L 81.941102 93.72012 
L 81.645214 93.279843 
L 80.751778 91.952039 
L 80.434164 91.477341 
L 80.360912 91.368 
L 79.272236 89.72521 
L 78.801754 89.01588 
L 78.732732 88.907829 
L 78.170651 88.0416 
L 77.89384 87.628338 
L 77.531487 87.06732 
L 76.844359 86.008608 
L 76.004321 84.7152 
L 75.933904 84.605628 
L 75.874915 84.513878 
L 75.065627 83.23894 
L 74.5096 82.36308 
L 74.071217 81.676523 
L 74.01035 81.576263 
L 73.894743 81.3888 
L 73.666 81.031035 
L 73.275075 80.41452 
L 72.619609 79.359355 
L 71.814179 78.0624 
L 71.543586 77.622272 
L 70.36874 75.71028 
L 70.331358 75.649869 
L 70.143127 75.328902 
L 69.789792 74.736 
L 69.440479 74.169272 
L 69.252726 73.869558 
L 69.188743 73.76172 
L 68.072163 71.895098 
L 67.782174 71.4096 
L 67.016383 70.115489 
L 66.391079 69.05748 
L 66.37653 69.031776 
L 65.830743 68.0832 
L 65.697694 67.860369 
L 65.625345 67.741193 
L 65.263065 67.10892 
L 64.652857 66.05415 
L 63.904005 64.7568 
L 63.768393 64.519761 
L 63.633686 64.283873 
L 62.962011 63.092619 
L 62.575302 62.40468 
L 62.082081 61.536764 
L 62.024718 61.4304 
L 61.841029 61.106061 
L 61.481713 60.45612 
L 61.284146 60.102748 
L 60.937078 59.48003 
L 60.548787 58.774437 
L 60.180846 58.104 
L 59.622302 57.077903 
L 58.903357 55.75188 
L 58.628483 55.251253 
L 58.374115 54.7776 
L 57.970337 54.03149 
L 57.62857 53.38588 
L 57.62857 54.7776 
L 57.62857 58.104 
L 57.62857 61.4304 
L 57.62857 64.7568 
L 57.62857 68.0832 
L 57.62857 71.4096 
L 57.62857 74.736 
L 57.62857 78.0624 
L 57.62857 81.3888 
L 57.62857 84.7152 
L 57.62857 88.0416 
L 57.62857 91.368 
L 57.62857 94.6944 
L 57.62857 98.0208 
L 57.62857 101.3472 
L 57.62857 104.6736 
L 57.62857 108 
L 57.62857 111.3264 
L 57.62857 114.6528 
L 57.62857 117.9792 
L 57.62857 121.3056 
L 57.62857 124.632 
L 57.62857 127.9584 
L 57.62857 131.2848 
L 57.62857 133.467541 
L 57.931899 133.949004 
L 58.35634 134.6112 
L 58.647648 135.067523 
L 58.983774 135.58548 
L 59.712169 136.715316 
L 60.505426 137.9376 
L 60.637581 138.140051 
L 60.745667 138.304811 
L 61.505213 139.453739 
L 62.061202 140.28972 
L 62.516243 140.977766 
L 62.582732 141.074571 
L 62.712006 141.264 
L 63.34024 142.20707 
L 63.360906 142.23828 
L 63.992947 143.169861 
L 64.960845 144.5904 
L 65.132458 144.840739 
L 65.816123 145.832564 
L 66.380383 146.648289 
L 66.584704 146.94252 
L 66.749137 147.173969 
L 67.273743 147.9168 
L 67.66587 148.485297 
L 67.954386 148.89108 
L 68.815204 150.106574 
L 69.623968 151.2432 
L 69.777571 151.457678 
L 69.888151 151.611526 
L 70.6753 152.698616 
L 71.327319 153.59532 
L 71.759698 154.19187 
L 71.853139 154.316801 
L 72.041066 154.5696 
L 72.663898 155.422964 
L 72.751638 155.54388 
L 73.197774 156.14577 
L 74.213479 157.511946 
L 74.431504 157.804087 
L 74.500338 157.896 
L 75.62912 159.392773 
L 76.275921 160.24812 
L 76.76997 160.892601 
L 77.023431 161.2224 
L 77.190925 161.44476 
L 77.771475 162.19668 
L 78.237324 162.801241 
L 78.75635 163.472642 
L 79.084707 163.89437 
L 79.595367 164.5488 
L 80.156913 165.263406 
L 81.447308 166.90092 
L 81.494856 166.961343 
L 82.230186 167.8752 
L 82.772783 168.561438 
L 83.005561 168.84948 
L 84.028646 170.116665 
L 84.906557 171.2016 
L 85.027281 171.349722 
L 85.100506 171.439403 
L 85.980093 172.509282 
L 86.840375 173.55372 
L 87.188679 173.976776 
L 87.337264 174.153042 
L 87.65153 174.528 
L 88.225531 175.220873 
L 88.45738 175.50228 
L 88.532171 175.591476 
L 88.659315 175.7429 
L 89.912688 177.229673 
L 90.44007 177.8544 
L 91.020702 178.537089 
L 91.354046 178.928581 
L 91.893595 179.557974 
L 92.450147 180.20652 
L 93.018814 180.868947 
L 93.105239 180.9675 
L 93.291219 181.1808 
L 93.749912 181.712929 
L 94.13189 182.15508 
L 94.552536 182.636833 
L 95.20846 183.387472 
L 95.882415 184.155624 
L 96.191067 184.5072 
L 97.058944 185.488226 
L 97.532792 186.02356 
L 97.890372 186.424873 
L 98.277599 186.85932 
L 98.978058 187.644369 
L 99.031845 187.703506 
L 99.149497 187.8336 
L 99.96908 188.747119 
L 100.023294 188.80788 
L 100.614941 189.460621 
L 101.469626 190.40336 
L 101.930763 190.909938 
L 102.158379 191.16 
L 103.137433 192.227249 
L 103.33993 192.445943 
L 103.33993 191.16 
L 103.33993 187.8336 
L 103.33993 184.5072 
L 103.33993 181.1808 
L 103.33993 177.8544 
L 103.33993 174.528 
L 103.33993 171.2016 
L 103.33993 167.8752 
L 103.33993 164.5488 
L 103.33993 161.2224 
L 103.33993 157.896 
L 103.33993 154.5696 
L 103.33993 151.2432 
L 103.33993 147.9168 
L 103.33993 144.5904 
L 103.33993 141.264 
L 103.33993 137.9376 
L 103.33993 134.6112 
L 103.33993 131.2848 
L 103.33993 127.9584 
L 103.33993 124.632 
" clip-path="url(#p334f4547c7)" style="fill: #0080ff"/>
   </g>
   <g id="PathCollection_4">
    <path d="M 103.33993 192.445943 
L 103.137433 192.227249 
L 102.158379 191.16 
L 101.930763 190.909938 
L 101.469626 190.40336 
L 100.614941 189.460621 
L 100.023294 188.80788 
L 99.96908 188.747119 
L 99.149497 187.8336 
L 99.031845 187.703506 
L 98.978058 187.644369 
L 98.277599 186.85932 
L 97.890372 186.424873 
L 97.532792 186.02356 
L 97.058944 185.488226 
L 96.191067 184.5072 
L 95.882415 184.155624 
L 95.20846 183.387472 
L 94.552536 182.636833 
L 94.13189 182.15508 
L 93.749912 181.712929 
L 93.291219 181.1808 
L 93.105239 180.9675 
L 93.018814 180.868947 
L 92.450147 180.20652 
L 91.893595 179.557974 
L 91.354046 178.928581 
L 91.020702 178.537089 
L 90.44007 177.8544 
L 89.912688 177.229673 
L 88.659315 175.7429 
L 88.532171 175.591476 
L 88.45738 175.50228 
L 88.225531 175.220873 
L 87.65153 174.528 
L 87.337264 174.153042 
L 87.188679 173.976776 
L 86.840375 173.55372 
L 85.980093 172.509282 
L 85.100506 171.439403 
L 85.027281 171.349722 
L 84.906557 171.2016 
L 84.028646 170.116665 
L 83.005561 168.84948 
L 82.772783 168.561438 
L 82.230186 167.8752 
L 81.494856 166.961343 
L 81.447308 166.90092 
L 80.156913 165.263406 
L 79.595367 164.5488 
L 79.084707 163.89437 
L 78.75635 163.472642 
L 78.237324 162.801241 
L 77.771475 162.19668 
L 77.190925 161.44476 
L 77.023431 161.2224 
L 76.76997 160.892601 
L 76.275921 160.24812 
L 75.62912 159.392773 
L 74.500338 157.896 
L 74.431504 157.804087 
L 74.213479 157.511946 
L 73.197774 156.14577 
L 72.751638 155.54388 
L 72.663898 155.422964 
L 72.041066 154.5696 
L 71.853139 154.316801 
L 71.759698 154.19187 
L 71.327319 153.59532 
L 70.6753 152.698616 
L 69.888151 151.611526 
L 69.777571 151.457678 
L 69.623968 151.2432 
L 68.815204 150.106574 
L 67.954386 148.89108 
L 67.66587 148.485297 
L 67.273743 147.9168 
L 66.749137 147.173969 
L 66.584704 146.94252 
L 66.380383 146.648289 
L 65.816123 145.832564 
L 65.132458 144.840739 
L 64.960845 144.5904 
L 63.992947 143.169861 
L 63.360906 142.23828 
L 63.34024 142.20707 
L 62.712006 141.264 
L 62.582732 141.074571 
L 62.516243 140.977766 
L 62.061202 140.28972 
L 61.505213 139.453739 
L 60.745667 138.304811 
L 60.637581 138.140051 
L 60.505426 137.9376 
L 59.712169 136.715316 
L 58.983774 135.58548 
L 58.647648 135.067523 
L 58.35634 134.6112 
L 57.931899 133.949004 
L 57.62857 133.467541 
L 57.62857 134.6112 
L 57.62857 137.9376 
L 57.62857 141.264 
L 57.62857 144.5904 
L 57.62857 147.9168 
L 57.62857 151.2432 
L 57.62857 154.5696 
L 57.62857 157.896 
L 57.62857 161.2224 
L 57.62857 164.5488 
L 57.62857 167.8752 
L 57.62857 171.2016 
L 57.62857 174.528 
L 57.62857 177.8544 
L 57.62857 181.1808 
L 57.62857 184.5072 
L 57.62857 187.8336 
L 57.62857 191.16 
L 57.62857 194.4864 
L 57.62857 194.939633 
L 58.060684 195.535365 
L 58.189923 195.711886 
L 59.374038 197.328687 
L 59.732958 197.8128 
L 60.483789 198.825804 
L 60.998778 199.514017 
L 61.260384 199.863423 
L 61.488794 200.16492 
L 62.213685 201.126559 
L 62.216875 201.130709 
L 62.223434 201.1392 
L 62.237771 201.158026 
L 62.275641 201.207865 
L 62.966197 202.11348 
L 63.160068 202.369042 
L 63.379957 202.65541 
L 63.930793 203.372637 
L 64.777856 204.4656 
L 65.072748 204.846291 
L 65.912055 205.917192 
L 66.381725 206.516419 
L 66.619973 206.81772 
L 66.812752 207.059161 
L 67.396562 207.792 
L 67.770208 208.266147 
L 68.172493 208.76628 
L 68.935543 209.719062 
L 69.741611 210.714395 
L 69.865818 210.867778 
L 70.070486 211.1184 
L 70.884944 212.116146 
L 72.002525 213.47052 
L 72.180261 213.68677 
L 72.383119 213.929894 
L 72.814915 214.4448 
L 73.489857 215.258227 
L 73.625754 215.41908 
L 74.818006 216.835517 
L 75.613792 217.7712 
L 75.858491 218.059087 
L 75.998796 218.222784 
L 76.800967 219.159336 
L 77.634984 220.12332 
L 78.020196 220.570079 
L 78.16598 220.73699 
L 78.482507 221.0976 
L 79.272142 222.005272 
L 79.329967 222.07188 
L 79.39312 222.1441 
L 79.49051 222.254577 
L 80.798132 223.738767 
L 81.407729 224.424 
L 81.902389 224.980416 
L 82.170253 225.279349 
L 82.811643 225.995891 
L 83.516674 226.77612 
L 84.00711 227.320479 
L 84.129428 227.454775 
L 84.400017 227.7504 
L 85.108493 228.53023 
L 85.284801 228.72468 
L 85.464334 228.921459 
L 85.718377 229.19777 
L 86.867045 230.448185 
L 87.449826 231.0768 
L 87.991795 231.661895 
L 88.270478 231.960488 
L 88.908255 232.644841 
L 89.645554 233.42892 
L 90.131245 233.946796 
L 90.264551 234.087657 
L 90.564667 234.4032 
L 91.235845 235.114426 
L 91.485391 235.37748 
L 91.577993 235.475119 
L 91.699495 235.602286 
L 93.016339 236.982125 
L 93.735955 237.7296 
L 94.121574 238.130593 
L 94.310806 238.325941 
L 95.082561 239.124178 
L 96.016318 240.08172 
L 96.382511 240.458152 
L 96.970457 241.056 
L 97.556857 241.655374 
L 97.815346 241.91817 
L 97.926374 242.03028 
L 99.238084 243.357896 
L 100.258878 244.3824 
L 100.28712 244.410786 
L 100.300407 244.424046 
L 101.326797 245.45085 
L 102.620642 246.73452 
L 102.750663 246.863814 
L 103.119976 247.228621 
L 103.33993 247.446107 
L 103.33993 244.3824 
L 103.33993 241.056 
L 103.33993 237.7296 
L 103.33993 234.4032 
L 103.33993 231.0768 
L 103.33993 227.7504 
L 103.33993 224.424 
L 103.33993 221.0976 
L 103.33993 217.7712 
L 103.33993 214.4448 
L 103.33993 211.1184 
L 103.33993 207.792 
L 103.33993 204.4656 
L 103.33993 201.1392 
L 103.33993 197.8128 
L 103.33993 194.4864 
" clip-path="url(#p334f4547c7)" style="fill: #00e4f8"/>
   </g>
   <g id="PathCollection_5">
    <path d="M 103.33993 247.446107 
L 103.119976 247.228621 
L 102.750663 246.863814 
L 102.620642 246.73452 
L 101.326797 245.45085 
L 100.300407 244.424046 
L 100.28712 244.410786 
L 100.258878 244.3824 
L 99.238084 243.357896 
L 97.926374 242.03028 
L 97.815346 241.91817 
L 97.556857 241.655374 
L 96.970457 241.056 
L 96.382511 240.458152 
L 96.016318 240.08172 
L 95.082561 239.124178 
L 94.310806 238.325941 
L 94.121574 238.130593 
L 93.735955 237.7296 
L 93.016339 236.982125 
L 91.699495 235.602286 
L 91.577993 235.475119 
L 91.485391 235.37748 
L 91.235845 235.114426 
L 90.564667 234.4032 
L 90.264551 234.087657 
L 90.131245 233.946796 
L 89.645554 233.42892 
L 88.908255 232.644841 
L 88.270478 231.960488 
L 87.991795 231.661895 
L 87.449826 231.0768 
L 86.867045 230.448185 
L 85.718377 229.19777 
L 85.464334 228.921459 
L 85.284801 228.72468 
L 85.108493 228.53023 
L 84.400017 227.7504 
L 84.129428 227.454775 
L 84.00711 227.320479 
L 83.516674 226.77612 
L 82.811643 225.995891 
L 82.170253 225.279349 
L 81.902389 224.980416 
L 81.407729 224.424 
L 80.798132 223.738767 
L 79.49051 222.254577 
L 79.39312 222.1441 
L 79.329967 222.07188 
L 79.272142 222.005272 
L 78.482507 221.0976 
L 78.16598 220.73699 
L 78.020196 220.570079 
L 77.634984 220.12332 
L 76.800967 219.159336 
L 75.998796 218.222784 
L 75.858491 218.059087 
L 75.613792 217.7712 
L 74.818006 216.835517 
L 73.625754 215.41908 
L 73.489857 215.258227 
L 72.814915 214.4448 
L 72.383119 213.929894 
L 72.180261 213.68677 
L 72.002525 213.47052 
L 70.884944 212.116146 
L 70.070486 211.1184 
L 69.865818 210.867778 
L 69.741611 210.714395 
L 68.935543 209.719062 
L 68.172493 208.76628 
L 67.770208 208.266147 
L 67.396562 207.792 
L 66.812752 207.059161 
L 66.619973 206.81772 
L 66.381725 206.516419 
L 65.912055 205.917192 
L 65.072748 204.846291 
L 64.777856 204.4656 
L 63.930793 203.372637 
L 63.379957 202.65541 
L 63.160068 202.369042 
L 62.966197 202.11348 
L 62.275641 201.207865 
L 62.237771 201.158026 
L 62.223434 201.1392 
L 62.216875 201.130709 
L 62.213685 201.126559 
L 61.488794 200.16492 
L 61.260384 199.863423 
L 60.998778 199.514017 
L 60.483789 198.825804 
L 59.732958 197.8128 
L 59.374038 197.328687 
L 58.189923 195.711886 
L 58.060684 195.535365 
L 57.62857 194.939633 
L 57.62857 197.8128 
L 57.62857 201.1392 
L 57.62857 204.4656 
L 57.62857 207.792 
L 57.62857 211.1184 
L 57.62857 214.4448 
L 57.62857 217.7712 
L 57.62857 221.0976 
L 57.62857 224.424 
L 57.62857 227.7504 
L 57.62857 231.0768 
L 57.62857 234.4032 
L 57.62857 237.7296 
L 57.62857 241.056 
L 57.62857 244.3824 
L 57.62857 247.7088 
L 57.62857 251.0352 
L 57.62857 254.3616 
L 57.62857 255.175911 
L 58.012998 255.661891 
L 58.51208 256.290384 
L 59.322495 257.316408 
L 59.622694 257.688 
L 60.4735 258.75523 
L 61.002038 259.406399 
L 61.263529 259.731758 
L 61.516958 260.04012 
L 62.262974 260.957189 
L 62.278045 260.975656 
L 62.310284 261.0144 
L 62.628315 261.401976 
L 63.10898 261.98868 
L 63.216413 262.121236 
L 63.327754 262.255478 
L 63.970492 263.038607 
L 65.058538 264.3408 
L 65.179724 264.487953 
L 65.475105 264.838491 
L 66.454487 266.008128 
L 67.038193 266.69292 
L 67.090479 266.755555 
L 67.867148 267.6672 
L 68.052399 267.886172 
L 68.700995 268.64148 
L 69.136908 269.154665 
L 69.562212 269.644084 
L 69.981692 270.132272 
L 70.735084 270.9936 
L 71.131297 271.453534 
L 72.008781 272.449292 
L 72.486012 272.994672 
L 72.798694 273.34572 
L 73.09727 273.680965 
L 73.66193 274.32 
L 73.985074 274.68562 
L 74.530251 275.29428 
L 75.147595 275.991195 
L 75.718636 276.621419 
L 76.039571 276.979915 
L 76.646942 277.6464 
L 77.169762 278.229424 
L 78.236753 279.392714 
L 78.561496 279.749527 
L 78.792178 279.99852 
L 79.026602 280.251907 
L 79.688478 280.9728 
L 80.049637 281.365805 
L 80.590229 281.94708 
L 81.238644 282.652288 
L 81.810936 283.26079 
L 82.138122 283.613197 
L 82.786536 284.2992 
L 83.285632 284.836331 
L 84.235508 285.835733 
L 84.675301 286.302417 
L 85.010049 286.65132 
L 85.370261 287.027759 
L 85.938095 287.6256 
L 86.142271 287.841637 
L 86.234506 287.937202 
L 86.871642 288.59988 
L 87.401221 289.157231 
L 87.849847 289.618774 
L 88.272186 290.05931 
L 89.143633 290.952 
L 89.470388 291.292854 
L 90.056336 291.890323 
L 90.822572 292.67892 
L 91.441172 293.30412 
L 91.491329 293.356142 
L 92.399571 294.2784 
L 92.488776 294.369977 
L 92.528514 294.409909 
L 93.362748 295.25268 
L 93.627393 295.523338 
L 93.84376 295.7396 
L 94.43732 296.341674 
L 95.705667 297.6048 
L 95.716385 297.615682 
L 95.73466 297.633814 
L 96.999125 298.901101 
L 97.603951 299.496201 
L 97.808731 299.700703 
L 98.071045 299.95692 
L 98.919084 300.795297 
L 98.960424 300.836427 
L 99.057686 300.9312 
L 99.980249 301.839195 
L 100.049028 301.90548 
L 100.629688 302.4805 
L 101.301122 303.133099 
L 102.011639 303.830978 
L 102.455826 304.2576 
L 103.201341 304.988026 
L 103.33993 305.12496 
L 103.33993 304.2576 
L 103.33993 300.9312 
L 103.33993 297.6048 
L 103.33993 294.2784 
L 103.33993 290.952 
L 103.33993 287.6256 
L 103.33993 284.2992 
L 103.33993 280.9728 
L 103.33993 277.6464 
L 103.33993 274.32 
L 103.33993 270.9936 
L 103.33993 267.6672 
L 103.33993 264.3408 
L 103.33993 261.0144 
L 103.33993 257.688 
L 103.33993 254.3616 
L 103.33993 251.0352 
L 103.33993 247.7088 
" clip-path="url(#p334f4547c7)" style="fill: #53ffa4"/>
   </g>
   <g id="PathCollection_6">
    <path d="M 103.33993 305.12496 
L 103.201341 304.988026 
L 102.455826 304.2576 
L 102.011639 303.830978 
L 101.301122 303.133099 
L 100.629688 302.4805 
L 100.049028 301.90548 
L 99.980249 301.839195 
L 99.057686 300.9312 
L 98.960424 300.836427 
L 98.919084 300.795297 
L 98.071045 299.95692 
L 97.808731 299.700703 
L 97.603951 299.496201 
L 96.999125 298.901101 
L 95.73466 297.633814 
L 95.716385 297.615682 
L 95.705667 297.6048 
L 94.43732 296.341674 
L 93.84376 295.7396 
L 93.627393 295.523338 
L 93.362748 295.25268 
L 92.528514 294.409909 
L 92.488776 294.369977 
L 92.399571 294.2784 
L 91.491329 293.356142 
L 91.441172 293.30412 
L 90.822572 292.67892 
L 90.056336 291.890323 
L 89.470388 291.292854 
L 89.143633 290.952 
L 88.272186 290.05931 
L 87.849847 289.618774 
L 87.401221 289.157231 
L 86.871642 288.59988 
L 86.234506 287.937202 
L 86.142271 287.841637 
L 85.938095 287.6256 
L 85.370261 287.027759 
L 85.010049 286.65132 
L 84.675301 286.302417 
L 84.235508 285.835733 
L 83.285632 284.836331 
L 82.786536 284.2992 
L 82.138122 283.613197 
L 81.810936 283.26079 
L 81.238644 282.652288 
L 80.590229 281.94708 
L 80.049637 281.365805 
L 79.688478 280.9728 
L 79.026602 280.251907 
L 78.792178 279.99852 
L 78.561496 279.749527 
L 78.236753 279.392714 
L 77.169762 278.229424 
L 76.646942 277.6464 
L 76.039571 276.979915 
L 75.718636 276.621419 
L 75.147595 275.991195 
L 74.530251 275.29428 
L 73.985074 274.68562 
L 73.66193 274.32 
L 73.09727 273.680965 
L 72.798694 273.34572 
L 72.486012 272.994672 
L 72.008781 272.449292 
L 71.131297 271.453534 
L 70.735084 270.9936 
L 69.981692 270.132272 
L 69.562212 269.644084 
L 69.136908 269.154665 
L 68.700995 268.64148 
L 68.052399 267.886172 
L 67.867148 267.6672 
L 67.090479 266.755555 
L 67.038193 266.69292 
L 66.454487 266.008128 
L 65.475105 264.838491 
L 65.179724 264.487953 
L 65.058538 264.3408 
L 63.970492 263.038607 
L 63.327754 262.255478 
L 63.216413 262.121236 
L 63.10898 261.98868 
L 62.628315 261.401976 
L 62.310284 261.0144 
L 62.278045 260.975656 
L 62.262974 260.957189 
L 61.516958 260.04012 
L 61.263529 259.731758 
L 61.002038 259.406399 
L 60.4735 258.75523 
L 59.622694 257.688 
L 59.322495 257.316408 
L 58.51208 256.290384 
L 58.012998 255.661891 
L 57.62857 255.175911 
L 57.62857 257.688 
L 57.62857 261.0144 
L 57.62857 264.3408 
L 57.62857 267.6672 
L 57.62857 270.9936 
L 57.62857 274.32 
L 57.62857 277.6464 
L 57.62857 280.9728 
L 57.62857 284.2992 
L 57.62857 287.6256 
L 57.62857 290.952 
L 57.62857 294.2784 
L 57.62857 297.6048 
L 57.62857 300.9312 
L 57.62857 304.2576 
L 57.62857 307.584 
L 59.152282 307.584 
L 60.675994 307.584 
L 62.199706 307.584 
L 63.723418 307.584 
L 65.24713 307.584 
L 66.770842 307.584 
L 68.294554 307.584 
L 69.818266 307.584 
L 71.341978 307.584 
L 72.86569 307.584 
L 74.389402 307.584 
L 75.913114 307.584 
L 77.436826 307.584 
L 78.960538 307.584 
L 80.48425 307.584 
L 82.007962 307.584 
L 83.531674 307.584 
L 85.055386 307.584 
L 86.579098 307.584 
L 88.10281 307.584 
L 89.626522 307.584 
L 91.150234 307.584 
L 92.673946 307.584 
L 94.197658 307.584 
L 95.72137 307.584 
L 97.245082 307.584 
L 98.768794 307.584 
L 100.292506 307.584 
L 101.816218 307.584 
L 103.33993 307.584 
" clip-path="url(#p334f4547c7)" style="fill: #a4ff53"/>
   </g>
   <g id="PathCollection_7">
    <path clip-path="url(#p334f4547c7)" style="fill: #f8f500"/>
   </g>
   <g id="PathCollection_8">
    <path clip-path="url(#p334f4547c7)" style="fill: #ff9400"/>
   </g>
   <g id="PathCollection_9">
    <path clip-path="url(#p334f4547c7)" style="fill: #ff3800"/>
   </g>
   <g id="PathCollection_10">
    <path clip-path="url(#p334f4547c7)" style="fill: #b60000"/>
   </g>
   <g id="PathCollection_11">
    <path d="M 135.904933 41.472 
L 137.129716 43.196063 
L 137.810654 44.07008 
L 141.707792 49.487884 
L 142.322331 50.3424 
L 146.751383 56.35135 
L 146.944988 56.61472 
L 147.773039 57.513524 
L 149.191241 59.2128 
L 150.760662 61.653751 
L 150.869764 61.81088 
L 151.221869 62.265226 
L 155.703562 68.0832 
L 156.360825 68.912318 
L 160.623907 74.35552 
L 161.179518 75.109799 
L 161.819088 75.786419 
L 162.817577 76.9536 
L 163.985314 78.658545 
L 164.645226 79.55168 
L 166.647807 82.025916 
L 169.679919 85.824 
L 171.403047 87.910269 
L 174.782016 92.09632 
L 175.88264 93.525248 
L 176.936175 94.6944 
L 178.799376 97.187476 
L 178.889355 97.29248 
L 178.956343 97.373975 
L 179.155498 97.622611 
L 182.245653 101.331809 
L 184.067193 103.5648 
L 186.681886 106.648928 
L 189.296332 109.83712 
L 190.862308 111.81517 
L 191.421681 112.4352 
L 191.849969 113.019492 
L 192.449093 113.775481 
L 193.540521 115.03328 
L 194.34631 115.990858 
L 196.659887 118.842183 
L 197.946045 120.366413 
L 198.71647 121.3056 
L 202.089446 125.246533 
L 203.999792 127.57792 
L 205.971206 130.046435 
L 206.086395 130.176 
L 206.301773 130.455612 
L 208.306548 132.77408 
L 209.799451 134.538513 
L 213.438542 139.0464 
L 213.674743 139.326134 
L 214.068859 139.809324 
L 217.492988 143.848539 
L 218.673441 145.31872 
L 220.079885 147.101896 
L 220.795147 147.9168 
L 221.075112 148.279964 
L 222.964356 150.51488 
L 225.176601 153.16944 
L 228.021145 156.7872 
L 229.357606 158.407112 
L 231.703402 161.373224 
L 232.733969 162.628685 
L 233.065007 163.05952 
L 233.446189 163.561259 
L 235.215726 165.6576 
L 235.94164 166.621242 
L 237.261074 168.25568 
L 240.312157 172.065114 
L 242.150027 174.528 
L 244.856571 177.974602 
L 246.965879 180.80032 
L 247.250555 181.118003 
L 249.052772 183.3984 
L 250.327118 185.18087 
L 250.937526 185.99648 
L 255.005801 191.445045 
L 255.570259 192.2688 
L 260.021839 198.424907 
L 260.100943 198.54112 
L 260.884606 199.493177 
L 262.060391 201.1392 
L 263.573698 203.452789 
L 263.780914 203.73728 
L 264.399389 204.584649 
L 268.115118 210.0096 
L 269.145105 211.432436 
L 272.321311 216.28192 
L 273.208389 217.62501 
L 273.55829 218.106761 
L 274.03343 218.88 
L 275.41722 221.137591 
L 275.64951 221.47808 
L 275.872525 221.801159 
L 276.941931 223.527275 
L 278.944497 226.675625 
L 279.577607 227.7504 
L 282.444655 232.340052 
L 283.371319 234.02272 
L 284.209612 235.520828 
L 284.895198 236.6208 
L 285.265222 237.241624 
L 286.395967 239.21888 
L 288.720783 243.20331 
L 289.882783 245.4912 
L 292.733826 250.766054 
L 293.224839 251.76352 
L 293.730766 252.599575 
L 294.598297 254.3616 
L 295.685647 256.608923 
L 295.88545 256.95968 
L 296.593369 258.296214 
L 298.959868 263.232 
L 300.347967 265.943546 
L 301.878473 269.50432 
L 303.010733 272.016914 
L 303.026475 272.051739 
L 303.043429 272.1024 
L 303.064287 272.162448 
L 303.09191 272.224732 
L 304.18014 274.70048 
L 305.6514 277.87271 
L 306.82906 280.9728 
L 308.953351 286.168063 
L 309.339693 287.24512 
L 309.398695 287.456744 
L 310.293108 289.8432 
L 311.049787 291.885643 
L 311.307322 292.44128 
L 312.310689 295.026834 
L 313.549461 298.7136 
L 315.109873 302.989475 
L 315.656014 304.98592 
L 316.047412 306.238429 
L 316.505402 307.584 
L 319.01184 307.584 
L 327.10656 307.584 
L 335.20128 307.584 
L 343.296 307.584 
L 343.296 298.7136 
L 343.296 289.8432 
L 343.296 280.9728 
L 343.296 272.1024 
L 343.296 263.232 
L 343.296 254.3616 
L 343.296 245.4912 
L 343.296 236.6208 
L 343.296 227.7504 
L 343.296 218.88 
L 343.296 210.0096 
L 343.296 201.1392 
L 343.296 192.2688 
L 343.296 183.3984 
L 343.296 174.528 
L 343.296 165.6576 
L 343.296 156.7872 
L 343.296 147.9168 
L 343.296 139.0464 
L 343.296 130.176 
L 343.296 121.3056 
L 343.296 112.4352 
L 343.296 103.5648 
L 343.296 94.6944 
L 343.296 85.824 
L 343.296 76.9536 
L 343.296 68.0832 
L 343.296 59.2128 
L 343.296 50.3424 
L 343.296 41.472 
L 335.20128 41.472 
L 327.10656 41.472 
L 319.01184 41.472 
L 310.91712 41.472 
L 302.8224 41.472 
L 294.72768 41.472 
L 286.63296 41.472 
L 278.53824 41.472 
L 270.44352 41.472 
L 262.3488 41.472 
L 254.25408 41.472 
L 246.15936 41.472 
L 238.06464 41.472 
L 229.96992 41.472 
L 221.8752 41.472 
L 213.78048 41.472 
L 205.68576 41.472 
L 197.59104 41.472 
L 189.49632 41.472 
L 181.4016 41.472 
L 173.30688 41.472 
L 165.21216 41.472 
L 157.11744 41.472 
L 149.02272 41.472 
L 140.928 41.472 
" clip-path="url(#p334f4547c7)" style="fill: #0000b6"/>
   </g>
   <g id="PathCollection_12">
    <path d="M 316.505402 307.584 
L 316.047412 306.238429 
L 315.656014 304.98592 
L 315.109873 302.989475 
L 313.549461 298.7136 
L 312.310689 295.026834 
L 311.307322 292.44128 
L 311.049787 291.885643 
L 310.293108 289.8432 
L 309.398695 287.456744 
L 309.339693 287.24512 
L 308.953351 286.168063 
L 306.82906 280.9728 
L 305.6514 277.87271 
L 304.18014 274.70048 
L 303.09191 272.224732 
L 303.064287 272.162448 
L 303.043429 272.1024 
L 303.026475 272.051739 
L 303.010733 272.016914 
L 301.878473 269.50432 
L 300.347967 265.943546 
L 298.959868 263.232 
L 296.593369 258.296214 
L 295.88545 256.95968 
L 295.685647 256.608923 
L 294.598297 254.3616 
L 293.730766 252.599575 
L 293.224839 251.76352 
L 292.733826 250.766054 
L 289.882783 245.4912 
L 288.720783 243.20331 
L 286.395967 239.21888 
L 285.265222 237.241624 
L 284.895198 236.6208 
L 284.209612 235.520828 
L 283.371319 234.02272 
L 282.444655 232.340052 
L 279.577607 227.7504 
L 278.944497 226.675625 
L 276.941931 223.527275 
L 275.872525 221.801159 
L 275.64951 221.47808 
L 275.41722 221.137591 
L 274.03343 218.88 
L 273.55829 218.106761 
L 273.208389 217.62501 
L 272.321311 216.28192 
L 269.145105 211.432436 
L 268.115118 210.0096 
L 264.399389 204.584649 
L 263.780914 203.73728 
L 263.573698 203.452789 
L 262.060391 201.1392 
L 260.884606 199.493177 
L 260.100943 198.54112 
L 260.021839 198.424907 
L 255.570259 192.2688 
L 255.005801 191.445045 
L 250.937526 185.99648 
L 250.327118 185.18087 
L 249.052772 183.3984 
L 247.250555 181.118003 
L 246.965879 180.80032 
L 244.856571 177.974602 
L 242.150027 174.528 
L 240.312157 172.065114 
L 237.261074 168.25568 
L 235.94164 166.621242 
L 235.215726 165.6576 
L 233.446189 163.561259 
L 233.065007 163.05952 
L 232.733969 162.628685 
L 231.703402 161.373224 
L 229.357606 158.407112 
L 228.021145 156.7872 
L 225.176601 153.16944 
L 222.964356 150.51488 
L 221.075112 148.279964 
L 220.795147 147.9168 
L 220.079885 147.101896 
L 218.673441 145.31872 
L 217.492988 143.848539 
L 214.068859 139.809324 
L 213.674743 139.326134 
L 213.438542 139.0464 
L 209.799451 134.538513 
L 208.306548 132.77408 
L 206.301773 130.455612 
L 206.086395 130.176 
L 205.971206 130.046435 
L 203.999792 127.57792 
L 202.089446 125.246533 
L 198.71647 121.3056 
L 197.946045 120.366413 
L 196.659887 118.842183 
L 194.34631 115.990858 
L 193.540521 115.03328 
L 192.449093 113.775481 
L 191.849969 113.019492 
L 191.421681 112.4352 
L 190.862308 111.81517 
L 189.296332 109.83712 
L 186.681886 106.648928 
L 184.067193 103.5648 
L 182.245653 101.331809 
L 179.155498 97.622611 
L 178.956343 97.373975 
L 178.889355 97.29248 
L 178.799376 97.187476 
L 176.936175 94.6944 
L 175.88264 93.525248 
L 174.782016 92.09632 
L 171.403047 87.910269 
L 169.679919 85.824 
L 166.647807 82.025916 
L 164.645226 79.55168 
L 163.985314 78.658545 
L 162.817577 76.9536 
L 161.819088 75.786419 
L 161.179518 75.109799 
L 160.623907 74.35552 
L 156.360825 68.912318 
L 155.703562 68.0832 
L 151.221869 62.265226 
L 150.869764 61.81088 
L 150.760662 61.653751 
L 149.191241 59.2128 
L 147.773039 57.513524 
L 146.944988 56.61472 
L 146.751383 56.35135 
L 142.322331 50.3424 
L 141.707792 49.487884 
L 137.810654 44.07008 
L 137.129716 43.196063 
L 135.904933 41.472 
L 132.83328 41.472 
L 124.73856 41.472 
L 116.64384 41.472 
L 108.54912 41.472 
L 100.4544 41.472 
L 100.4544 50.3424 
L 100.4544 59.2128 
L 100.4544 68.0832 
L 100.4544 76.9536 
L 100.4544 85.824 
L 100.4544 94.6944 
L 100.4544 103.5648 
L 100.4544 112.4352 
L 100.4544 119.190991 
L 100.991095 119.885744 
L 102.113678 121.3056 
L 105.127508 125.055089 
L 107.187903 127.57792 
L 109.014005 129.964986 
L 109.210704 130.176 
L 109.558154 130.634006 
L 111.410865 132.77408 
L 112.76194 134.429884 
L 116.578865 139.0464 
L 116.623744 139.099565 
L 116.696144 139.184774 
L 120.577548 143.606143 
L 122.084588 145.31872 
L 123.982261 147.573512 
L 124.167689 147.775082 
L 124.303182 147.9168 
L 124.417177 148.062678 
L 126.689152 150.51488 
L 128.552162 152.608158 
L 132.272075 156.7872 
L 132.669042 157.221701 
L 133.230122 157.837067 
L 136.653379 161.471438 
L 138.136063 163.05952 
L 140.188517 165.321945 
L 140.38307 165.522321 
L 140.519346 165.6576 
L 140.633999 165.791049 
L 143.043269 168.25568 
L 144.886543 170.190128 
L 148.975972 174.528 
L 149.009625 174.562644 
L 149.052758 174.607466 
L 153.218329 178.800745 
L 155.168103 180.80032 
L 157.495895 183.226617 
L 157.675946 183.3984 
L 158.100467 183.844601 
L 160.286874 185.99648 
L 161.623759 187.330661 
L 164.423088 190.181265 
L 165.572452 191.315627 
L 166.520682 192.2688 
L 170.118387 195.762832 
L 172.901553 198.54112 
L 174.80953 200.457139 
L 175.531876 201.1392 
L 176.227908 201.864343 
L 177.330838 202.965698 
L 178.132699 203.73728 
L 178.609906 204.198409 
L 179.563536 205.146898 
L 182.256778 207.747179 
L 184.542975 210.0096 
L 187.190953 212.535879 
L 190.978514 216.28192 
L 192.315478 217.600368 
L 192.816215 218.055838 
L 193.660991 218.88 
L 194.988402 220.243406 
L 196.24313 221.47808 
L 198.969829 224.102735 
L 202.643809 227.7504 
L 204.268836 229.303101 
L 208.992147 234.02272 
L 209.7531 234.774611 
L 210.460936 235.435366 
L 211.641718 236.6208 
L 213.665786 238.658781 
L 214.181808 239.21888 
L 215.619041 240.627181 
L 220.40008 245.4912 
L 221.179727 246.253317 
L 226.518658 251.76352 
L 226.853201 252.102056 
L 229.04845 254.3616 
L 230.790747 256.167339 
L 231.497309 256.95968 
L 232.105881 257.581193 
L 237.39586 263.232 
L 237.7415 263.586105 
L 243.150765 269.50432 
L 243.341689 269.707117 
L 244.171662 270.586336 
L 245.486892 272.1024 
L 247.579952 274.46457 
L 247.800123 274.70048 
L 248.316604 275.265689 
L 253.257807 280.9728 
L 253.753907 281.520902 
L 258.533777 287.24512 
L 258.94308 287.714836 
L 260.632872 289.8432 
L 262.326426 291.858263 
L 262.772283 292.44128 
L 264.107249 294.061525 
L 267.695712 298.7136 
L 268.987775 300.308842 
L 272.408583 304.98592 
L 273.389725 306.2467 
L 274.325256 307.584 
L 278.53824 307.584 
L 286.63296 307.584 
L 294.72768 307.584 
L 302.8224 307.584 
L 310.91712 307.584 
" clip-path="url(#p334f4547c7)" style="fill: #0018ff"/>
   </g>
   <g id="PathCollection_13">
    <path d="M 274.325256 307.584 
L 273.389725 306.2467 
L 272.408583 304.98592 
L 268.987775 300.308842 
L 267.695712 298.7136 
L 264.107249 294.061525 
L 262.772283 292.44128 
L 262.326426 291.858263 
L 260.632872 289.8432 
L 258.94308 287.714836 
L 258.533777 287.24512 
L 253.753907 281.520902 
L 253.257807 280.9728 
L 248.316604 275.265689 
L 247.800123 274.70048 
L 247.579952 274.46457 
L 245.486892 272.1024 
L 244.171662 270.586336 
L 243.341689 269.707117 
L 243.150765 269.50432 
L 237.7415 263.586105 
L 237.39586 263.232 
L 232.105881 257.581193 
L 231.497309 256.95968 
L 230.790747 256.167339 
L 229.04845 254.3616 
L 226.853201 252.102056 
L 226.518658 251.76352 
L 221.179727 246.253317 
L 220.40008 245.4912 
L 215.619041 240.627181 
L 214.181808 239.21888 
L 213.665786 238.658781 
L 211.641718 236.6208 
L 210.460936 235.435366 
L 209.7531 234.774611 
L 208.992147 234.02272 
L 204.268836 229.303101 
L 202.643809 227.7504 
L 198.969829 224.102735 
L 196.24313 221.47808 
L 194.988402 220.243406 
L 193.660991 218.88 
L 192.816215 218.055838 
L 192.315478 217.600368 
L 190.978514 216.28192 
L 187.190953 212.535879 
L 184.542975 210.0096 
L 182.256778 207.747179 
L 179.563536 205.146898 
L 178.609906 204.198409 
L 178.132699 203.73728 
L 177.330838 202.965698 
L 176.227908 201.864343 
L 175.531876 201.1392 
L 174.80953 200.457139 
L 172.901553 198.54112 
L 170.118387 195.762832 
L 166.520682 192.2688 
L 165.572452 191.315627 
L 164.423088 190.181265 
L 161.623759 187.330661 
L 160.286874 185.99648 
L 158.100467 183.844601 
L 157.675946 183.3984 
L 157.495895 183.226617 
L 155.168103 180.80032 
L 153.218329 178.800745 
L 149.052758 174.607466 
L 149.009625 174.562644 
L 148.975972 174.528 
L 144.886543 170.190128 
L 143.043269 168.25568 
L 140.633999 165.791049 
L 140.519346 165.6576 
L 140.38307 165.522321 
L 140.188517 165.321945 
L 138.136063 163.05952 
L 136.653379 161.471438 
L 133.230122 157.837067 
L 132.669042 157.221701 
L 132.272075 156.7872 
L 128.552162 152.608158 
L 126.689152 150.51488 
L 124.417177 148.062678 
L 124.303182 147.9168 
L 124.167689 147.775082 
L 123.982261 147.573512 
L 122.084588 145.31872 
L 120.577548 143.606143 
L 116.696144 139.184774 
L 116.623744 139.099565 
L 116.578865 139.0464 
L 112.76194 134.429884 
L 111.410865 132.77408 
L 109.558154 130.634006 
L 109.210704 130.176 
L 109.014005 129.964986 
L 107.187903 127.57792 
L 105.127508 125.055089 
L 102.113678 121.3056 
L 100.991095 119.885744 
L 100.4544 119.190991 
L 100.4544 121.3056 
L 100.4544 130.176 
L 100.4544 139.0464 
L 100.4544 147.9168 
L 100.4544 156.7872 
L 100.4544 165.6576 
L 100.4544 174.528 
L 100.4544 183.3984 
L 100.4544 189.251964 
L 101.257304 190.144673 
L 103.211221 192.2688 
L 105.90575 195.165472 
L 109.104215 198.54112 
L 110.627032 200.196024 
L 111.594364 201.1392 
L 113.813652 203.528801 
L 114.018039 203.73728 
L 114.148333 203.87384 
L 114.436932 204.171099 
L 117.628884 207.403609 
L 120.221713 210.0096 
L 122.593491 212.360221 
L 126.584686 216.28192 
L 127.796634 217.491923 
L 128.338987 217.986197 
L 129.293975 218.88 
L 130.798665 220.384417 
L 131.908682 221.47808 
L 134.334737 223.778209 
L 138.530889 227.7504 
L 139.826189 228.957793 
L 145.264111 234.02272 
L 145.717063 234.447017 
L 148.143678 236.6208 
L 150.031031 238.379996 
L 150.911027 239.21888 
L 151.270632 239.544222 
L 153.718983 241.767084 
L 157.441947 245.135598 
L 157.830808 245.4912 
L 163.344595 250.431949 
L 164.817886 251.76352 
L 165.580563 252.443547 
L 167.758304 254.3616 
L 169.617215 256.03636 
L 170.653333 256.95968 
L 175.289033 261.059907 
L 177.703662 263.232 
L 180.477282 265.677337 
L 183.268264 268.170364 
L 184.220735 269.013121 
L 184.762699 269.50432 
L 185.787056 270.418744 
L 186.972471 271.475856 
L 187.682537 272.1024 
L 188.083147 272.453219 
L 188.299393 272.645692 
L 190.59543 274.70048 
L 193.15828 276.959931 
L 197.582952 280.951402 
L 197.595037 280.962226 
L 197.606587 280.9728 
L 202.05199 284.954777 
L 204.531385 287.24512 
L 206.833416 289.322272 
L 207.034112 289.508473 
L 207.383845 289.8432 
L 208.010529 290.420322 
L 209.066905 291.377921 
L 210.225348 292.44128 
L 210.876607 293.025338 
L 212.034698 294.095036 
L 214.624307 296.481209 
L 216.98191 298.7136 
L 219.633125 301.170523 
L 223.593943 304.98592 
L 224.906208 306.208208 
L 226.314625 307.584 
L 229.96992 307.584 
L 238.06464 307.584 
L 246.15936 307.584 
L 254.25408 307.584 
L 262.3488 307.584 
L 270.44352 307.584 
" clip-path="url(#p334f4547c7)" style="fill: #0080ff"/>
   </g>
   <g id="PathCollection_14">
    <path d="M 226.314625 307.584 
L 224.906208 306.208208 
L 223.593943 304.98592 
L 219.633125 301.170523 
L 216.98191 298.7136 
L 214.624307 296.481209 
L 212.034698 294.095036 
L 210.876607 293.025338 
L 210.225348 292.44128 
L 209.066905 291.377921 
L 208.010529 290.420322 
L 207.383845 289.8432 
L 207.034112 289.508473 
L 206.833416 289.322272 
L 204.531385 287.24512 
L 202.05199 284.954777 
L 197.606587 280.9728 
L 197.595037 280.962226 
L 197.582952 280.951402 
L 193.15828 276.959931 
L 190.59543 274.70048 
L 188.299393 272.645692 
L 188.083147 272.453219 
L 187.682537 272.1024 
L 186.972471 271.475856 
L 185.787056 270.418744 
L 184.762699 269.50432 
L 184.220735 269.013121 
L 183.268264 268.170364 
L 180.477282 265.677337 
L 177.703662 263.232 
L 175.289033 261.059907 
L 170.653333 256.95968 
L 169.617215 256.03636 
L 167.758304 254.3616 
L 165.580563 252.443547 
L 164.817886 251.76352 
L 163.344595 250.431949 
L 157.830808 245.4912 
L 157.441947 245.135598 
L 153.718983 241.767084 
L 151.270632 239.544222 
L 150.911027 239.21888 
L 150.031031 238.379996 
L 148.143678 236.6208 
L 145.717063 234.447017 
L 145.264111 234.02272 
L 139.826189 228.957793 
L 138.530889 227.7504 
L 134.334737 223.778209 
L 131.908682 221.47808 
L 130.798665 220.384417 
L 129.293975 218.88 
L 128.338987 217.986197 
L 127.796634 217.491923 
L 126.584686 216.28192 
L 122.593491 212.360221 
L 120.221713 210.0096 
L 117.628884 207.403609 
L 114.436932 204.171099 
L 114.148333 203.87384 
L 114.018039 203.73728 
L 113.813652 203.528801 
L 111.594364 201.1392 
L 110.627032 200.196024 
L 109.104215 198.54112 
L 105.90575 195.165472 
L 103.211221 192.2688 
L 101.257304 190.144673 
L 100.4544 189.251964 
L 100.4544 192.2688 
L 100.4544 201.1392 
L 100.4544 210.0096 
L 100.4544 218.88 
L 100.4544 227.7504 
L 100.4544 236.6208 
L 100.4544 244.578946 
L 100.704199 244.830344 
L 101.37459 245.4912 
L 105.140704 249.226229 
L 107.78461 251.76352 
L 109.848239 253.771923 
L 110.073229 253.983241 
L 110.482941 254.3616 
L 111.168764 255.011925 
L 112.234197 256.034278 
L 113.207744 256.95968 
L 113.774318 257.506095 
L 114.862942 258.520535 
L 117.492568 260.986643 
L 119.93531 263.232 
L 122.538734 265.642625 
L 126.823559 269.50432 
L 128.037318 270.605075 
L 128.626493 271.137223 
L 129.718153 272.1024 
L 131.658141 273.820181 
L 132.638831 274.70048 
L 134.558481 276.408684 
L 139.775147 280.9728 
L 140.413321 281.536798 
L 145.270151 285.73104 
L 146.741892 287.006859 
L 147.020106 287.24512 
L 147.976696 288.093366 
L 150.004431 289.8432 
L 151.607252 291.2111 
L 152.49087 291.943227 
L 153.071531 292.44128 
L 158.562081 297.130526 
L 160.440041 298.7136 
L 164.05234 301.781969 
L 167.452798 304.641334 
L 167.702662 304.854845 
L 167.85706 304.98592 
L 168.180007 305.256883 
L 170.913415 307.584 
L 173.30688 307.584 
L 181.4016 307.584 
L 189.49632 307.584 
L 197.59104 307.584 
L 205.68576 307.584 
L 213.78048 307.584 
L 221.8752 307.584 
" clip-path="url(#p334f4547c7)" style="fill: #00e4f8"/>
   </g>
   <g id="PathCollection_15">
    <path d="M 100.4544 302.385359 
L 102.607717 304.410323 
L 102.997811 304.796865 
L 103.201301 304.98592 
L 103.550019 305.314879 
L 105.878875 307.584 
L 108.54912 307.584 
L 116.64384 307.584 
L 124.73856 307.584 
L 132.83328 307.584 
L 140.928 307.584 
L 149.02272 307.584 
L 157.11744 307.584 
L 165.21216 307.584 
L 170.913415 307.584 
L 168.180007 305.256883 
L 167.85706 304.98592 
L 167.702662 304.854845 
L 167.452798 304.641334 
L 164.05234 301.781969 
L 160.440041 298.7136 
L 158.562081 297.130526 
L 153.071531 292.44128 
L 152.49087 291.943227 
L 151.607252 291.2111 
L 150.004431 289.8432 
L 147.976696 288.093366 
L 147.020106 287.24512 
L 146.741892 287.006859 
L 145.270151 285.73104 
L 140.413321 281.536798 
L 139.775147 280.9728 
L 134.558481 276.408684 
L 132.638831 274.70048 
L 131.658141 273.820181 
L 129.718153 272.1024 
L 128.626493 271.137223 
L 128.037318 270.605075 
L 126.823559 269.50432 
L 122.538734 265.642625 
L 119.93531 263.232 
L 117.492568 260.986643 
L 114.862942 258.520535 
L 113.774318 257.506095 
L 113.207744 256.95968 
L 112.234197 256.034278 
L 111.168764 255.011925 
L 110.482941 254.3616 
L 110.073229 253.983241 
L 109.848239 253.771923 
L 107.78461 251.76352 
L 105.140704 249.226229 
L 101.37459 245.4912 
L 100.704199 244.830344 
L 100.4544 244.578946 
L 100.4544 245.4912 
L 100.4544 254.3616 
L 100.4544 263.232 
L 100.4544 272.1024 
L 100.4544 280.9728 
L 100.4544 289.8432 
L 100.4544 298.7136 
" clip-path="url(#p334f4547c7)" style="fill: #53ffa4"/>
   </g>
   <g id="PathCollection_16">
    <path d="M 105.878875 307.584 
L 103.550019 305.314879 
L 103.201301 304.98592 
L 102.997811 304.796865 
L 102.607717 304.410323 
L 100.4544 302.385359 
L 100.4544 307.584 
" clip-path="url(#p334f4547c7)" style="fill: #a4ff53"/>
   </g>
   <g id="PathCollection_17">
    <path clip-path="url(#p334f4547c7)" style="fill: #f8f500"/>
   </g>
   <g id="PathCollection_18">
    <path clip-path="url(#p334f4547c7)" style="fill: #ff9400"/>
   </g>
   <g id="PathCollection_19">
    <path clip-path="url(#p334f4547c7)" style="fill: #ff3800"/>
   </g>
   <g id="PathCollection_20">
    <path clip-path="url(#p334f4547c7)" style="fill: #b60000"/>
   </g>
   <g id="matplotlib.axis_1">
    <g id="xtick_1">
     <g id="line2d_1">
      <defs>
       <path id="mbc4a0fb49a" d="M 0 0 
L 0 3.5 
" style="stroke: #000000; stroke-width: 0.8"/>
      </defs>
      <g>
       <use xlink:href="#mbc4a0fb49a" x="57.6" y="307.584" style="stroke: #000000; stroke-width: 0.8"/>
      </g>
     </g>
     <g id="text_1">
      <!-- 0.0 -->
      <g transform="translate(51.26875 321.385562) scale(0.1 -0.1)">
       <defs>
        <path id="Calibri-30" d="M 3022 2031 
Q 3022 1566 2948 1181 
Q 2875 797 2704 520 
Q 2534 244 2259 92 
Q 1984 -59 1581 -59 
Q 1200 -59 939 77 
Q 678 213 518 477 
Q 359 741 292 1127 
Q 225 1513 225 2013 
Q 225 2475 300 2861 
Q 375 3247 544 3523 
Q 713 3800 988 3951 
Q 1263 4103 1663 4103 
Q 2047 4103 2308 3967 
Q 2569 3831 2728 3567 
Q 2888 3303 2955 2917 
Q 3022 2531 3022 2031 
z
M 2472 1994 
Q 2472 2297 2450 2537 
Q 2428 2778 2386 2962 
Q 2344 3147 2276 3280 
Q 2209 3413 2115 3498 
Q 2022 3584 1901 3623 
Q 1781 3663 1631 3663 
Q 1366 3663 1200 3538 
Q 1034 3413 939 3194 
Q 844 2975 809 2681 
Q 775 2388 775 2050 
Q 775 1597 822 1280 
Q 869 963 970 763 
Q 1072 563 1230 472 
Q 1388 381 1613 381 
Q 1788 381 1920 437 
Q 2053 494 2148 598 
Q 2244 703 2306 850 
Q 2369 997 2406 1175 
Q 2444 1353 2458 1561 
Q 2472 1769 2472 1994 
z
" transform="scale(0.015625)"/>
        <path id="Calibri-2e" d="M 1144 341 
Q 1144 119 1070 45 
Q 997 -28 803 -28 
Q 616 -28 544 44 
Q 472 116 472 331 
Q 472 553 545 626 
Q 619 700 813 700 
Q 1000 700 1072 628 
Q 1144 556 1144 341 
z
" transform="scale(0.015625)"/>
       </defs>
       <use xlink:href="#Calibri-30"/>
       <use xlink:href="#Calibri-2e" x="50.683594"/>
       <use xlink:href="#Calibri-30" x="75.927734"/>
      </g>
     </g>
    </g>
    <g id="xtick_2">
     <g id="line2d_2">
      <g>
       <use xlink:href="#mbc4a0fb49a" x="86.1696" y="307.584" style="stroke: #000000; stroke-width: 0.8"/>
      </g>
     </g>
     <g id="text_2">
      <!-- 0.1 -->
      <g transform="translate(79.83835 321.385562) scale(0.1 -0.1)">
       <defs>
        <path id="Calibri-31" d="M 2897 213 
Q 2897 153 2887 112 
Q 2878 72 2862 47 
Q 2847 22 2826 11 
Q 2806 0 2784 0 
L 672 0 
Q 650 0 631 11 
Q 613 22 595 47 
Q 578 72 568 112 
Q 559 153 559 213 
Q 559 269 568 309 
Q 578 350 592 376 
Q 606 403 626 417 
Q 647 431 672 431 
L 1516 431 
L 1516 3506 
L 734 3041 
Q 675 3009 639 3003 
Q 603 2997 581 3017 
Q 559 3038 551 3084 
Q 544 3131 544 3203 
Q 544 3256 548 3293 
Q 553 3331 562 3356 
Q 572 3381 589 3400 
Q 606 3419 634 3438 
L 1566 4034 
Q 1578 4044 1597 4050 
Q 1616 4056 1644 4062 
Q 1672 4069 1709 4070 
Q 1747 4072 1803 4072 
Q 1878 4072 1928 4065 
Q 1978 4059 2006 4048 
Q 2034 4038 2043 4020 
Q 2053 4003 2053 3984 
L 2053 431 
L 2784 431 
Q 2809 431 2831 417 
Q 2853 403 2867 376 
Q 2881 350 2889 309 
Q 2897 269 2897 213 
z
" transform="scale(0.015625)"/>
       </defs>
       <use xlink:href="#Calibri-30"/>
       <use xlink:href="#Calibri-2e" x="50.683594"/>
       <use xlink:href="#Calibri-31" x="75.927734"/>
      </g>
     </g>
    </g>
    <g id="xtick_3">
     <g id="line2d_3">
      <g>
       <use xlink:href="#mbc4a0fb49a" x="114.7392" y="307.584" style="stroke: #000000; stroke-width: 0.8"/>
      </g>
     </g>
     <g id="text_3">
      <!-- 0.2 -->
      <g transform="translate(108.40795 321.385562) scale(0.1 -0.1)">
       <defs>
        <path id="Calibri-32" d="M 2888 231 
Q 2888 175 2880 131 
Q 2872 88 2858 58 
Q 2844 28 2820 14 
Q 2797 0 2769 0 
L 534 0 
Q 491 0 458 11 
Q 425 22 401 47 
Q 378 72 367 119 
Q 356 166 356 234 
Q 356 297 361 344 
Q 366 391 381 427 
Q 397 463 420 498 
Q 444 534 481 575 
L 1266 1406 
Q 1538 1694 1702 1922 
Q 1866 2150 1955 2337 
Q 2044 2525 2072 2678 
Q 2100 2831 2100 2966 
Q 2100 3100 2056 3220 
Q 2013 3341 1930 3431 
Q 1847 3522 1722 3575 
Q 1597 3628 1434 3628 
Q 1244 3628 1092 3575 
Q 941 3522 827 3459 
Q 713 3397 636 3344 
Q 559 3291 522 3291 
Q 500 3291 483 3303 
Q 466 3316 455 3344 
Q 444 3372 437 3419 
Q 431 3466 431 3531 
Q 431 3578 434 3612 
Q 438 3647 445 3672 
Q 453 3697 465 3719 
Q 478 3741 515 3773 
Q 553 3806 645 3862 
Q 738 3919 877 3973 
Q 1016 4028 1183 4065 
Q 1350 4103 1534 4103 
Q 1828 4103 2048 4020 
Q 2269 3938 2414 3794 
Q 2559 3650 2631 3459 
Q 2703 3269 2703 3053 
Q 2703 2859 2668 2667 
Q 2634 2475 2523 2251 
Q 2413 2028 2203 1754 
Q 1994 1481 1647 1125 
L 1006 456 
L 2766 456 
Q 2791 456 2814 442 
Q 2838 428 2855 400 
Q 2872 372 2880 330 
Q 2888 288 2888 231 
z
" transform="scale(0.015625)"/>
       </defs>
       <use xlink:href="#Calibri-30"/>
       <use xlink:href="#Calibri-2e" x="50.683594"/>
       <use xlink:href="#Calibri-32" x="75.927734"/>
      </g>
     </g>
    </g>
    <g id="xtick_4">
     <g id="line2d_4">
      <g>
       <use xlink:href="#mbc4a0fb49a" x="143.3088" y="307.584" style="stroke: #000000; stroke-width: 0.8"/>
      </g>
     </g>
     <g id="text_4">
      <!-- 0.3 -->
      <g transform="translate(136.97755 321.385562) scale(0.1 -0.1)">
       <defs>
        <path id="Calibri-33" d="M 2856 1156 
Q 2856 878 2759 654 
Q 2663 431 2481 272 
Q 2300 113 2034 27 
Q 1769 -59 1434 -59 
Q 1231 -59 1054 -26 
Q 878 6 740 51 
Q 603 97 512 145 
Q 422 194 398 216 
Q 375 238 362 259 
Q 350 281 340 312 
Q 331 344 326 389 
Q 322 434 322 500 
Q 322 613 344 656 
Q 366 700 406 700 
Q 434 700 517 650 
Q 600 600 729 542 
Q 859 484 1032 434 
Q 1206 384 1419 384 
Q 1625 384 1781 437 
Q 1938 491 2044 587 
Q 2150 684 2203 817 
Q 2256 950 2256 1106 
Q 2256 1278 2189 1415 
Q 2122 1553 1992 1653 
Q 1863 1753 1673 1806 
Q 1484 1859 1244 1859 
L 859 1859 
Q 834 1859 811 1870 
Q 788 1881 770 1906 
Q 753 1931 742 1972 
Q 731 2013 731 2078 
Q 731 2138 740 2177 
Q 750 2216 767 2239 
Q 784 2263 806 2273 
Q 828 2284 856 2284 
L 1209 2284 
Q 1416 2284 1580 2337 
Q 1744 2391 1858 2491 
Q 1972 2591 2033 2730 
Q 2094 2869 2094 3041 
Q 2094 3166 2053 3280 
Q 2013 3394 1931 3478 
Q 1850 3563 1723 3611 
Q 1597 3659 1431 3659 
Q 1250 3659 1098 3604 
Q 947 3550 828 3487 
Q 709 3425 631 3370 
Q 553 3316 522 3316 
Q 500 3316 483 3323 
Q 466 3331 455 3354 
Q 444 3378 439 3420 
Q 434 3463 434 3531 
Q 434 3578 437 3614 
Q 441 3650 450 3676 
Q 459 3703 471 3725 
Q 484 3747 514 3776 
Q 544 3806 634 3862 
Q 725 3919 858 3973 
Q 991 4028 1164 4065 
Q 1338 4103 1538 4103 
Q 1819 4103 2031 4031 
Q 2244 3959 2386 3828 
Q 2528 3697 2598 3514 
Q 2669 3331 2669 3109 
Q 2669 2919 2619 2755 
Q 2569 2591 2472 2464 
Q 2375 2338 2234 2248 
Q 2094 2159 1909 2125 
L 1909 2119 
Q 2119 2097 2292 2014 
Q 2466 1931 2591 1806 
Q 2716 1681 2786 1514 
Q 2856 1347 2856 1156 
z
" transform="scale(0.015625)"/>
       </defs>
       <use xlink:href="#Calibri-30"/>
       <use xlink:href="#Calibri-2e" x="50.683594"/>
       <use xlink:href="#Calibri-33" x="75.927734"/>
      </g>
     </g>
    </g>
    <g id="xtick_5">
     <g id="line2d_5">
      <g>
       <use xlink:href="#mbc4a0fb49a" x="171.8784" y="307.584" style="stroke: #000000; stroke-width: 0.8"/>
      </g>
     </g>
     <g id="text_5">
      <!-- 0.4 -->
      <g transform="translate(165.54715 321.385562) scale(0.1 -0.1)">
       <defs>
        <path id="Calibri-34" d="M 3059 1150 
Q 3059 1047 3028 987 
Q 2997 928 2941 928 
L 2484 928 
L 2484 78 
Q 2484 53 2471 36 
Q 2459 19 2428 6 
Q 2397 -6 2347 -12 
Q 2297 -19 2219 -19 
Q 2144 -19 2094 -12 
Q 2044 -6 2014 6 
Q 1984 19 1973 36 
Q 1963 53 1963 78 
L 1963 928 
L 294 928 
Q 256 928 231 937 
Q 206 947 186 972 
Q 166 997 158 1044 
Q 150 1091 150 1166 
Q 150 1225 153 1272 
Q 156 1319 165 1358 
Q 175 1397 190 1433 
Q 206 1469 228 1509 
L 1684 3966 
Q 1700 3991 1729 4009 
Q 1759 4028 1806 4040 
Q 1853 4053 1922 4058 
Q 1991 4063 2084 4063 
Q 2188 4063 2264 4055 
Q 2341 4047 2387 4034 
Q 2434 4022 2459 4001 
Q 2484 3981 2484 3953 
L 2484 1372 
L 2941 1372 
Q 2994 1372 3026 1317 
Q 3059 1263 3059 1150 
z
M 1963 3591 
L 1956 3591 
L 641 1372 
L 1963 1372 
L 1963 3591 
z
" transform="scale(0.015625)"/>
       </defs>
       <use xlink:href="#Calibri-30"/>
       <use xlink:href="#Calibri-2e" x="50.683594"/>
       <use xlink:href="#Calibri-34" x="75.927734"/>
      </g>
     </g>
    </g>
    <g id="xtick_6">
     <g id="line2d_6">
      <g>
       <use xlink:href="#mbc4a0fb49a" x="200.448" y="307.584" style="stroke: #000000; stroke-width: 0.8"/>
      </g>
     </g>
     <g id="text_6">
      <!-- 0.5 -->
      <g transform="translate(194.11675 321.385562) scale(0.1 -0.1)">
       <defs>
        <path id="Calibri-35" d="M 2869 1300 
Q 2869 975 2759 722 
Q 2650 469 2450 295 
Q 2250 122 1973 31 
Q 1697 -59 1359 -59 
Q 1172 -59 1003 -32 
Q 834 -6 703 33 
Q 572 72 487 109 
Q 403 147 379 169 
Q 356 191 347 209 
Q 338 228 330 254 
Q 322 281 319 322 
Q 316 363 316 419 
Q 316 472 320 514 
Q 325 556 337 582 
Q 350 609 367 621 
Q 384 634 406 634 
Q 438 634 503 595 
Q 569 556 680 511 
Q 791 466 955 425 
Q 1119 384 1344 384 
Q 1553 384 1728 434 
Q 1903 484 2029 590 
Q 2156 697 2228 858 
Q 2300 1019 2300 1250 
Q 2300 1444 2239 1592 
Q 2178 1741 2051 1839 
Q 1925 1938 1731 1986 
Q 1538 2034 1269 2034 
Q 1078 2034 940 2015 
Q 803 1997 684 1997 
Q 597 1997 559 2037 
Q 522 2078 522 2194 
L 522 3841 
Q 522 3944 570 3994 
Q 619 4044 709 4044 
L 2500 4044 
Q 2525 4044 2548 4030 
Q 2572 4016 2587 3987 
Q 2603 3959 2611 3915 
Q 2619 3872 2619 3813 
Q 2619 3700 2587 3637 
Q 2556 3575 2500 3575 
L 991 3575 
L 991 2441 
Q 1100 2456 1214 2459 
Q 1328 2463 1478 2463 
Q 1825 2463 2084 2380 
Q 2344 2297 2517 2145 
Q 2691 1994 2780 1778 
Q 2869 1563 2869 1300 
z
" transform="scale(0.015625)"/>
       </defs>
       <use xlink:href="#Calibri-30"/>
       <use xlink:href="#Calibri-2e" x="50.683594"/>
       <use xlink:href="#Calibri-35" x="75.927734"/>
      </g>
     </g>
    </g>
    <g id="xtick_7">
     <g id="line2d_7">
      <g>
       <use xlink:href="#mbc4a0fb49a" x="229.0176" y="307.584" style="stroke: #000000; stroke-width: 0.8"/>
      </g>
     </g>
     <g id="text_7">
      <!-- 0.6 -->
      <g transform="translate(222.68635 321.385562) scale(0.1 -0.1)">
       <defs>
        <path id="Calibri-36" d="M 2991 1309 
Q 2991 1044 2909 795 
Q 2828 547 2659 358 
Q 2491 169 2231 55 
Q 1972 -59 1619 -59 
Q 1366 -59 1172 3 
Q 978 66 834 181 
Q 691 297 595 465 
Q 500 634 442 850 
Q 384 1066 359 1322 
Q 334 1578 334 1872 
Q 334 2131 362 2397 
Q 391 2663 462 2909 
Q 534 3156 657 3373 
Q 781 3591 967 3752 
Q 1153 3913 1412 4006 
Q 1672 4100 2016 4100 
Q 2131 4100 2250 4086 
Q 2369 4072 2469 4048 
Q 2569 4025 2637 3997 
Q 2706 3969 2728 3951 
Q 2750 3934 2761 3914 
Q 2772 3894 2778 3870 
Q 2784 3847 2787 3817 
Q 2791 3788 2791 3744 
Q 2791 3688 2789 3647 
Q 2788 3606 2777 3581 
Q 2766 3556 2748 3543 
Q 2731 3531 2703 3531 
Q 2669 3531 2609 3553 
Q 2550 3575 2465 3601 
Q 2381 3628 2261 3650 
Q 2141 3672 1981 3672 
Q 1691 3672 1481 3553 
Q 1272 3434 1139 3234 
Q 1006 3034 942 2770 
Q 878 2506 869 2219 
Q 950 2266 1051 2312 
Q 1153 2359 1273 2396 
Q 1394 2434 1528 2457 
Q 1663 2481 1816 2481 
Q 2144 2481 2369 2392 
Q 2594 2303 2733 2145 
Q 2872 1988 2931 1773 
Q 2991 1559 2991 1309 
z
M 2447 1259 
Q 2447 1441 2411 1589 
Q 2375 1738 2290 1841 
Q 2206 1944 2065 2000 
Q 1925 2056 1719 2056 
Q 1603 2056 1487 2036 
Q 1372 2016 1264 1980 
Q 1156 1944 1057 1895 
Q 959 1847 878 1791 
Q 878 1388 929 1116 
Q 981 844 1079 680 
Q 1178 516 1325 445 
Q 1472 375 1669 375 
Q 1869 375 2016 450 
Q 2163 525 2259 651 
Q 2356 778 2401 936 
Q 2447 1094 2447 1259 
z
" transform="scale(0.015625)"/>
       </defs>
       <use xlink:href="#Calibri-30"/>
       <use xlink:href="#Calibri-2e" x="50.683594"/>
       <use xlink:href="#Calibri-36" x="75.927734"/>
      </g>
     </g>
    </g>
    <g id="xtick_8">
     <g id="line2d_8">
      <g>
       <use xlink:href="#mbc4a0fb49a" x="257.5872" y="307.584" style="stroke: #000000; stroke-width: 0.8"/>
      </g>
     </g>
     <g id="text_8">
      <!-- 0.7 -->
      <g transform="translate(251.25595 321.385562) scale(0.1 -0.1)">
       <defs>
        <path id="Calibri-37" d="M 2947 3813 
Q 2947 3756 2942 3711 
Q 2938 3666 2930 3623 
Q 2922 3581 2908 3542 
Q 2894 3503 2875 3459 
L 1419 103 
Q 1403 66 1379 42 
Q 1356 19 1320 5 
Q 1284 -9 1228 -14 
Q 1172 -19 1091 -19 
Q 984 -19 925 -9 
Q 866 0 839 20 
Q 813 41 816 70 
Q 819 100 838 141 
L 2369 3572 
L 428 3572 
Q 369 3572 339 3634 
Q 309 3697 309 3809 
Q 309 3869 317 3912 
Q 325 3956 340 3986 
Q 356 4016 378 4030 
Q 400 4044 428 4044 
L 2784 4044 
Q 2828 4044 2861 4034 
Q 2894 4025 2911 3997 
Q 2928 3969 2937 3925 
Q 2947 3881 2947 3813 
z
" transform="scale(0.015625)"/>
       </defs>
       <use xlink:href="#Calibri-30"/>
       <use xlink:href="#Calibri-2e" x="50.683594"/>
       <use xlink:href="#Calibri-37" x="75.927734"/>
      </g>
     </g>
    </g>
    <g id="xtick_9">
     <g id="line2d_9">
      <g>
       <use xlink:href="#mbc4a0fb49a" x="286.1568" y="307.584" style="stroke: #000000; stroke-width: 0.8"/>
      </g>
     </g>
     <g id="text_9">
      <!-- 0.8 -->
      <g transform="translate(279.82555 321.385562) scale(0.1 -0.1)">
       <defs>
        <path id="Calibri-38" d="M 2981 1038 
Q 2981 775 2887 570 
Q 2794 366 2617 225 
Q 2441 84 2181 12 
Q 1922 -59 1588 -59 
Q 1275 -59 1028 6 
Q 781 72 609 200 
Q 438 328 347 515 
Q 256 703 256 944 
Q 256 1134 318 1293 
Q 381 1453 498 1587 
Q 616 1722 787 1839 
Q 959 1956 1175 2063 
Q 988 2159 844 2267 
Q 700 2375 600 2501 
Q 500 2628 448 2772 
Q 397 2916 397 3084 
Q 397 3297 473 3483 
Q 550 3669 704 3806 
Q 859 3944 1098 4023 
Q 1338 4103 1656 4103 
Q 1963 4103 2186 4029 
Q 2409 3956 2554 3829 
Q 2700 3703 2769 3531 
Q 2838 3359 2838 3163 
Q 2838 3003 2786 2856 
Q 2734 2709 2634 2578 
Q 2534 2447 2389 2333 
Q 2244 2219 2056 2119 
Q 2278 2009 2451 1893 
Q 2625 1778 2742 1645 
Q 2859 1513 2920 1364 
Q 2981 1216 2981 1038 
z
M 2306 3113 
Q 2306 3244 2261 3350 
Q 2216 3456 2128 3531 
Q 2041 3606 1911 3645 
Q 1781 3684 1616 3684 
Q 1278 3684 1104 3531 
Q 931 3378 931 3113 
Q 931 2991 973 2886 
Q 1016 2781 1105 2687 
Q 1194 2594 1330 2505 
Q 1466 2416 1653 2319 
Q 1969 2481 2137 2678 
Q 2306 2875 2306 3113 
z
M 2438 981 
Q 2438 1125 2384 1242 
Q 2331 1359 2223 1461 
Q 2116 1563 1955 1658 
Q 1794 1753 1581 1856 
Q 1384 1759 1236 1662 
Q 1088 1566 992 1462 
Q 897 1359 848 1245 
Q 800 1131 800 994 
Q 800 691 1008 525 
Q 1216 359 1628 359 
Q 2028 359 2233 526 
Q 2438 694 2438 981 
z
" transform="scale(0.015625)"/>
       </defs>
       <use xlink:href="#Calibri-30"/>
       <use xlink:href="#Calibri-2e" x="50.683594"/>
       <use xlink:href="#Calibri-38" x="75.927734"/>
      </g>
     </g>
    </g>
    <g id="xtick_10">
     <g id="line2d_10">
      <g>
       <use xlink:href="#mbc4a0fb49a" x="314.7264" y="307.584" style="stroke: #000000; stroke-width: 0.8"/>
      </g>
     </g>
     <g id="text_10">
      <!-- 0.9 -->
      <g transform="translate(308.39515 321.385562) scale(0.1 -0.1)">
       <defs>
        <path id="Calibri-39" d="M 2919 2181 
Q 2919 1919 2887 1650 
Q 2856 1381 2781 1132 
Q 2706 884 2579 667 
Q 2453 450 2261 287 
Q 2069 125 1805 33 
Q 1541 -59 1191 -59 
Q 1056 -59 929 -42 
Q 803 -25 701 0 
Q 600 25 531 53 
Q 463 81 431 109 
Q 400 138 386 186 
Q 372 234 372 316 
Q 372 384 376 425 
Q 381 466 390 487 
Q 400 509 417 517 
Q 434 525 459 525 
Q 494 525 556 501 
Q 619 478 714 450 
Q 809 422 937 398 
Q 1066 375 1225 375 
Q 1528 375 1745 492 
Q 1963 609 2100 806 
Q 2238 1003 2306 1262 
Q 2375 1522 2381 1809 
Q 2216 1713 1984 1638 
Q 1753 1563 1453 1563 
Q 1116 1563 886 1655 
Q 656 1747 517 1906 
Q 378 2066 317 2284 
Q 256 2503 256 2763 
Q 256 3031 334 3273 
Q 413 3516 578 3700 
Q 744 3884 1000 3993 
Q 1256 4103 1613 4103 
Q 1866 4103 2061 4039 
Q 2256 3975 2400 3854 
Q 2544 3734 2644 3564 
Q 2744 3394 2805 3178 
Q 2866 2963 2892 2711 
Q 2919 2459 2919 2181 
z
M 2372 2241 
Q 2372 2641 2319 2914 
Q 2266 3188 2162 3356 
Q 2059 3525 1909 3600 
Q 1759 3675 1563 3675 
Q 1359 3675 1215 3601 
Q 1072 3528 980 3404 
Q 888 3281 844 3125 
Q 800 2969 800 2803 
Q 800 2619 839 2466 
Q 878 2313 965 2206 
Q 1053 2100 1193 2042 
Q 1334 1984 1541 1984 
Q 1775 1984 1994 2054 
Q 2213 2125 2372 2241 
z
" transform="scale(0.015625)"/>
       </defs>
       <use xlink:href="#Calibri-30"/>
       <use xlink:href="#Calibri-2e" x="50.683594"/>
       <use xlink:href="#Calibri-39" x="75.927734"/>
      </g>
     </g>
    </g>
    <g id="xtick_11">
     <g id="line2d_11">
      <g>
       <use xlink:href="#mbc4a0fb49a" x="343.296" y="307.584" style="stroke: #000000; stroke-width: 0.8"/>
      </g>
     </g>
     <g id="text_11">
      <!-- 1.0 -->
      <g transform="translate(336.96475 321.385562) scale(0.1 -0.1)">
       <use xlink:href="#Calibri-31"/>
       <use xlink:href="#Calibri-2e" x="50.683594"/>
       <use xlink:href="#Calibri-30" x="75.927734"/>
      </g>
     </g>
    </g>
    <g id="text_12">
     <!-- $\mathit{p}$ (cm$^2$/cm$^2$) -->
     <g transform="translate(174.148 336.263687) scale(0.1 -0.1)">
      <defs>
       <path id="DejaVuSans-Oblique-70" d="M 3175 2156 
Q 3175 2616 2975 2859 
Q 2775 3103 2400 3103 
Q 2144 3103 1911 2972 
Q 1678 2841 1497 2591 
Q 1319 2344 1212 1994 
Q 1106 1644 1106 1300 
Q 1106 863 1306 627 
Q 1506 391 1875 391 
Q 2147 391 2380 519 
Q 2613 647 2778 891 
Q 2956 1147 3065 1494 
Q 3175 1841 3175 2156 
z
M 1394 2969 
Q 1625 3272 1939 3428 
Q 2253 3584 2638 3584 
Q 3175 3584 3472 3232 
Q 3769 2881 3769 2247 
Q 3769 1728 3584 1258 
Q 3400 788 3053 416 
Q 2822 169 2531 39 
Q 2241 -91 1919 -91 
Q 1547 -91 1294 64 
Q 1041 219 916 525 
L 556 -1331 
L -19 -1331 
L 922 3500 
L 1497 3500 
L 1394 2969 
z
" transform="scale(0.015625)"/>
       <path id="Calibri-20" transform="scale(0.015625)"/>
       <path id="Calibri-28" d="M 1547 4306 
Q 1250 3678 1104 3017 
Q 959 2356 959 1688 
Q 959 1016 1107 356 
Q 1256 -303 1541 -938 
Q 1556 -975 1557 -1001 
Q 1559 -1028 1537 -1045 
Q 1516 -1063 1470 -1070 
Q 1425 -1078 1347 -1078 
Q 1291 -1078 1250 -1075 
Q 1209 -1072 1179 -1062 
Q 1150 -1053 1131 -1040 
Q 1113 -1028 1103 -1013 
Q 934 -694 806 -367 
Q 678 -41 590 296 
Q 503 634 459 979 
Q 416 1325 416 1678 
Q 416 2031 464 2375 
Q 513 2719 602 3058 
Q 691 3397 819 3725 
Q 947 4053 1106 4375 
Q 1109 4388 1123 4397 
Q 1138 4406 1163 4415 
Q 1188 4425 1231 4429 
Q 1275 4434 1344 4434 
Q 1416 4434 1459 4425 
Q 1503 4416 1528 4400 
Q 1553 4384 1556 4359 
Q 1559 4334 1547 4306 
z
" transform="scale(0.015625)"/>
       <path id="Calibri-63" d="M 2500 506 
Q 2500 453 2497 414 
Q 2494 375 2486 348 
Q 2478 322 2467 301 
Q 2456 281 2417 242 
Q 2378 203 2284 145 
Q 2191 88 2073 42 
Q 1956 -3 1818 -31 
Q 1681 -59 1534 -59 
Q 1231 -59 997 41 
Q 763 141 605 333 
Q 447 525 364 804 
Q 281 1084 281 1450 
Q 281 1866 382 2164 
Q 484 2463 661 2653 
Q 838 2844 1077 2936 
Q 1316 3028 1594 3028 
Q 1728 3028 1854 3003 
Q 1981 2978 2087 2937 
Q 2194 2897 2276 2844 
Q 2359 2791 2396 2753 
Q 2434 2716 2448 2694 
Q 2463 2672 2472 2642 
Q 2481 2613 2484 2575 
Q 2488 2538 2488 2481 
Q 2488 2359 2459 2311 
Q 2431 2263 2391 2263 
Q 2344 2263 2283 2314 
Q 2222 2366 2128 2428 
Q 2034 2491 1901 2542 
Q 1769 2594 1588 2594 
Q 1216 2594 1017 2308 
Q 819 2022 819 1478 
Q 819 1206 870 1001 
Q 922 797 1022 659 
Q 1122 522 1267 455 
Q 1413 388 1600 388 
Q 1778 388 1912 444 
Q 2047 500 2145 567 
Q 2244 634 2311 689 
Q 2378 744 2416 744 
Q 2438 744 2453 731 
Q 2469 719 2480 689 
Q 2491 659 2495 614 
Q 2500 569 2500 506 
z
" transform="scale(0.015625)"/>
       <path id="Calibri-6d" d="M 4650 78 
Q 4650 53 4637 36 
Q 4625 19 4597 6 
Q 4569 -6 4519 -12 
Q 4469 -19 4394 -19 
Q 4316 -19 4266 -12 
Q 4216 -6 4186 6 
Q 4156 19 4143 36 
Q 4131 53 4131 78 
L 4131 1788 
Q 4131 1966 4100 2112 
Q 4069 2259 4000 2365 
Q 3931 2472 3825 2528 
Q 3719 2584 3575 2584 
Q 3397 2584 3217 2446 
Q 3038 2309 2822 2044 
L 2822 78 
Q 2822 53 2809 36 
Q 2797 19 2767 6 
Q 2738 -6 2688 -12 
Q 2638 -19 2563 -19 
Q 2491 -19 2439 -12 
Q 2388 -6 2358 6 
Q 2328 19 2317 36 
Q 2306 53 2306 78 
L 2306 1788 
Q 2306 1966 2272 2112 
Q 2238 2259 2169 2365 
Q 2100 2472 1995 2528 
Q 1891 2584 1747 2584 
Q 1569 2584 1387 2446 
Q 1206 2309 994 2044 
L 994 78 
Q 994 53 981 36 
Q 969 19 941 6 
Q 913 -6 863 -12 
Q 813 -19 734 -19 
Q 659 -19 609 -12 
Q 559 -6 529 6 
Q 500 19 489 36 
Q 478 53 478 78 
L 478 2891 
Q 478 2916 487 2933 
Q 497 2950 525 2964 
Q 553 2978 597 2983 
Q 641 2988 713 2988 
Q 781 2988 826 2983 
Q 872 2978 897 2964 
Q 922 2950 933 2933 
Q 944 2916 944 2891 
L 944 2519 
Q 1181 2784 1404 2907 
Q 1628 3031 1856 3031 
Q 2031 3031 2170 2990 
Q 2309 2950 2415 2876 
Q 2522 2803 2597 2701 
Q 2672 2600 2722 2475 
Q 2863 2628 2989 2734 
Q 3116 2841 3233 2906 
Q 3350 2972 3461 3001 
Q 3572 3031 3684 3031 
Q 3956 3031 4140 2936 
Q 4325 2841 4439 2681 
Q 4553 2522 4601 2308 
Q 4650 2094 4650 1856 
L 4650 78 
z
" transform="scale(0.015625)"/>
       <path id="DejaVuSans-32" d="M 1228 531 
L 3431 531 
L 3431 0 
L 469 0 
L 469 531 
Q 828 903 1448 1529 
Q 2069 2156 2228 2338 
Q 2531 2678 2651 2914 
Q 2772 3150 2772 3378 
Q 2772 3750 2511 3984 
Q 2250 4219 1831 4219 
Q 1534 4219 1204 4116 
Q 875 4013 500 3803 
L 500 4441 
Q 881 4594 1212 4672 
Q 1544 4750 1819 4750 
Q 2544 4750 2975 4387 
Q 3406 4025 3406 3419 
Q 3406 3131 3298 2873 
Q 3191 2616 2906 2266 
Q 2828 2175 2409 1742 
Q 1991 1309 1228 531 
z
" transform="scale(0.015625)"/>
       <path id="Calibri-2f" d="M 525 -753 
Q 513 -794 492 -817 
Q 472 -841 440 -853 
Q 409 -866 364 -872 
Q 319 -878 253 -878 
Q 175 -878 123 -867 
Q 72 -856 44 -836 
Q 16 -816 9 -786 
Q 3 -756 22 -716 
L 1913 4469 
Q 1925 4509 1945 4532 
Q 1966 4556 1995 4570 
Q 2025 4584 2072 4589 
Q 2119 4594 2184 4594 
Q 2263 4594 2313 4583 
Q 2363 4572 2391 4553 
Q 2419 4534 2425 4503 
Q 2431 4472 2416 4431 
L 525 -753 
z
" transform="scale(0.015625)"/>
       <path id="Calibri-29" d="M 1522 1678 
Q 1522 1325 1478 979 
Q 1434 634 1346 296 
Q 1259 -41 1132 -367 
Q 1006 -694 838 -1013 
Q 828 -1028 809 -1040 
Q 791 -1053 761 -1062 
Q 731 -1072 690 -1075 
Q 650 -1078 594 -1078 
Q 513 -1078 467 -1070 
Q 422 -1063 401 -1045 
Q 381 -1028 382 -1001 
Q 384 -975 400 -938 
Q 688 -306 834 355 
Q 981 1016 981 1688 
Q 981 2356 834 3017 
Q 688 3678 394 4306 
Q 381 4334 384 4359 
Q 388 4384 413 4400 
Q 438 4416 481 4425 
Q 525 4434 597 4434 
Q 663 4434 706 4429 
Q 750 4425 776 4415 
Q 803 4406 815 4397 
Q 828 4388 834 4375 
Q 1156 3734 1339 3057 
Q 1522 2381 1522 1678 
z
" transform="scale(0.015625)"/>
      </defs>
      <use xlink:href="#DejaVuSans-Oblique-70" transform="translate(0 0.765625)"/>
      <use xlink:href="#Calibri-20" transform="translate(63.476562 0.765625)"/>
      <use xlink:href="#Calibri-28" transform="translate(84.958984 0.765625)"/>
      <use xlink:href="#Calibri-63" transform="translate(115.28125 0.765625)"/>
      <use xlink:href="#Calibri-6d" transform="translate(157.566406 0.765625)"/>
      <use xlink:href="#DejaVuSans-32" transform="translate(238.40625 39.046875) scale(0.7)"/>
      <use xlink:href="#Calibri-2f" transform="translate(285.676758 0.765625)"/>
      <use xlink:href="#Calibri-63" transform="translate(324.299805 0.765625)"/>
      <use xlink:href="#Calibri-6d" transform="translate(366.584961 0.765625)"/>
      <use xlink:href="#DejaVuSans-32" transform="translate(447.424805 39.046875) scale(0.7)"/>
      <use xlink:href="#Calibri-29" transform="translate(494.695312 0.765625)"/>
     </g>
    </g>
   </g>
   <g id="matplotlib.axis_2">
    <g id="ytick_1">
     <g id="line2d_12">
      <defs>
       <path id="m64b9052c92" d="M 0 0 
L -3.5 0 
" style="stroke: #000000; stroke-width: 0.8"/>
      </defs>
      <g>
       <use xlink:href="#m64b9052c92" x="57.6" y="275.65056" style="stroke: #000000; stroke-width: 0.8"/>
      </g>
     </g>
     <g id="text_13">
      <!-- 25 -->
      <g transform="translate(40.4625 279.051341) scale(0.1 -0.1)">
       <use xlink:href="#Calibri-32"/>
       <use xlink:href="#Calibri-35" x="50.683594"/>
      </g>
     </g>
    </g>
    <g id="ytick_2">
     <g id="line2d_13">
      <g>
       <use xlink:href="#m64b9052c92" x="57.6" y="242.38656" style="stroke: #000000; stroke-width: 0.8"/>
      </g>
     </g>
     <g id="text_14">
      <!-- 50 -->
      <g transform="translate(40.4625 245.787341) scale(0.1 -0.1)">
       <use xlink:href="#Calibri-35"/>
       <use xlink:href="#Calibri-30" x="50.683594"/>
      </g>
     </g>
    </g>
    <g id="ytick_3">
     <g id="line2d_14">
      <g>
       <use xlink:href="#m64b9052c92" x="57.6" y="209.12256" style="stroke: #000000; stroke-width: 0.8"/>
      </g>
     </g>
     <g id="text_15">
      <!-- 75 -->
      <g transform="translate(40.4625 212.523341) scale(0.1 -0.1)">
       <use xlink:href="#Calibri-37"/>
       <use xlink:href="#Calibri-35" x="50.683594"/>
      </g>
     </g>
    </g>
    <g id="ytick_4">
     <g id="line2d_15">
      <g>
       <use xlink:href="#m64b9052c92" x="57.6" y="175.85856" style="stroke: #000000; stroke-width: 0.8"/>
      </g>
     </g>
     <g id="text_16">
      <!-- 100 -->
      <g transform="translate(35.39375 179.259341) scale(0.1 -0.1)">
       <use xlink:href="#Calibri-31"/>
       <use xlink:href="#Calibri-30" x="50.683594"/>
       <use xlink:href="#Calibri-30" x="101.367188"/>
      </g>
     </g>
    </g>
    <g id="ytick_5">
     <g id="line2d_16">
      <g>
       <use xlink:href="#m64b9052c92" x="57.6" y="142.59456" style="stroke: #000000; stroke-width: 0.8"/>
      </g>
     </g>
     <g id="text_17">
      <!-- 125 -->
      <g transform="translate(35.39375 145.995341) scale(0.1 -0.1)">
       <use xlink:href="#Calibri-31"/>
       <use xlink:href="#Calibri-32" x="50.683594"/>
       <use xlink:href="#Calibri-35" x="101.367188"/>
      </g>
     </g>
    </g>
    <g id="ytick_6">
     <g id="line2d_17">
      <g>
       <use xlink:href="#m64b9052c92" x="57.6" y="109.33056" style="stroke: #000000; stroke-width: 0.8"/>
      </g>
     </g>
     <g id="text_18">
      <!-- 150 -->
      <g transform="translate(35.39375 112.731341) scale(0.1 -0.1)">
       <use xlink:href="#Calibri-31"/>
       <use xlink:href="#Calibri-35" x="50.683594"/>
       <use xlink:href="#Calibri-30" x="101.367188"/>
      </g>
     </g>
    </g>
    <g id="ytick_7">
     <g id="line2d_18">
      <g>
       <use xlink:href="#m64b9052c92" x="57.6" y="76.06656" style="stroke: #000000; stroke-width: 0.8"/>
      </g>
     </g>
     <g id="text_19">
      <!-- 175 -->
      <g transform="translate(35.39375 79.467341) scale(0.1 -0.1)">
       <use xlink:href="#Calibri-31"/>
       <use xlink:href="#Calibri-37" x="50.683594"/>
       <use xlink:href="#Calibri-35" x="101.367188"/>
      </g>
     </g>
    </g>
    <g id="ytick_8">
     <g id="line2d_19">
      <g>
       <use xlink:href="#m64b9052c92" x="57.6" y="42.80256" style="stroke: #000000; stroke-width: 0.8"/>
      </g>
     </g>
     <g id="text_20">
      <!-- 200 -->
      <g transform="translate(35.39375 46.203341) scale(0.1 -0.1)">
       <use xlink:href="#Calibri-32"/>
       <use xlink:href="#Calibri-30" x="50.683594"/>
       <use xlink:href="#Calibri-30" x="101.367188"/>
      </g>
     </g>
    </g>
    <g id="text_21">
     <!-- $\mathit{Z}$$_{a}$ (nm) -->
     <g transform="translate(29.59375 191.028) rotate(-90) scale(0.1 -0.1)">
      <defs>
       <path id="DejaVuSans-Oblique-5a" d="M 838 4666 
L 4500 4666 
L 4409 4184 
L 794 531 
L 3769 531 
L 3669 0 
L -141 0 
L -50 481 
L 3566 4134 
L 738 4134 
L 838 4666 
z
" transform="scale(0.015625)"/>
       <path id="DejaVuSans-Oblique-61" d="M 3438 1997 
L 3047 0 
L 2472 0 
L 2578 531 
Q 2325 219 2001 64 
Q 1678 -91 1281 -91 
Q 834 -91 548 182 
Q 263 456 263 884 
Q 263 1497 752 1853 
Q 1241 2209 2100 2209 
L 2900 2209 
L 2931 2363 
Q 2938 2388 2941 2417 
Q 2944 2447 2944 2509 
Q 2944 2788 2717 2942 
Q 2491 3097 2081 3097 
Q 1800 3097 1504 3025 
Q 1209 2953 897 2809 
L 997 3341 
Q 1322 3463 1633 3523 
Q 1944 3584 2234 3584 
Q 2853 3584 3176 3315 
Q 3500 3047 3500 2534 
Q 3500 2431 3484 2292 
Q 3469 2153 3438 1997 
z
M 2816 1759 
L 2241 1759 
Q 1534 1759 1195 1570 
Q 856 1381 856 984 
Q 856 709 1029 553 
Q 1203 397 1509 397 
Q 1978 397 2328 733 
Q 2678 1069 2791 1631 
L 2816 1759 
z
" transform="scale(0.015625)"/>
       <path id="Calibri-6e" d="M 2900 78 
Q 2900 53 2887 36 
Q 2875 19 2847 6 
Q 2819 -6 2769 -12 
Q 2719 -19 2644 -19 
Q 2566 -19 2516 -12 
Q 2466 -6 2437 6 
Q 2409 19 2396 36 
Q 2384 53 2384 78 
L 2384 1725 
Q 2384 1966 2346 2112 
Q 2309 2259 2237 2365 
Q 2166 2472 2052 2528 
Q 1938 2584 1788 2584 
Q 1594 2584 1400 2446 
Q 1206 2309 994 2044 
L 994 78 
Q 994 53 981 36 
Q 969 19 941 6 
Q 913 -6 863 -12 
Q 813 -19 734 -19 
Q 659 -19 609 -12 
Q 559 -6 529 6 
Q 500 19 489 36 
Q 478 53 478 78 
L 478 2891 
Q 478 2916 487 2933 
Q 497 2950 525 2964 
Q 553 2978 597 2983 
Q 641 2988 713 2988 
Q 781 2988 826 2983 
Q 872 2978 897 2964 
Q 922 2950 933 2933 
Q 944 2916 944 2891 
L 944 2519 
Q 1181 2784 1417 2907 
Q 1653 3031 1894 3031 
Q 2175 3031 2367 2936 
Q 2559 2841 2678 2681 
Q 2797 2522 2848 2308 
Q 2900 2094 2900 1794 
L 2900 78 
z
" transform="scale(0.015625)"/>
      </defs>
      <use xlink:href="#DejaVuSans-Oblique-5a" transform="translate(0 0.09375)"/>
      <use xlink:href="#DejaVuSans-Oblique-61" transform="translate(69.462891 -16.3125) scale(0.7)"/>
      <use xlink:href="#Calibri-20" transform="translate(115.092773 0.09375)"/>
      <use xlink:href="#Calibri-28" transform="translate(136.575195 0.09375)"/>
      <use xlink:href="#Calibri-6e" transform="translate(166.897461 0.09375)"/>
      <use xlink:href="#Calibri-6d" transform="translate(219.436523 0.09375)"/>
      <use xlink:href="#Calibri-29" transform="translate(299.319336 0.09375)"/>
     </g>
    </g>
   </g>
   <g id="patch_3">
    <path d="M 57.6 307.584 
L 57.6 41.472 
" style="fill: none; stroke: #000000; stroke-width: 0.8; stroke-linejoin: miter; stroke-linecap: square"/>
   </g>
   <g id="patch_4">
    <path d="M 343.296 307.584 
L 343.296 41.472 
" style="fill: none; stroke: #000000; stroke-width: 0.8; stroke-linejoin: miter; stroke-linecap: square"/>
   </g>
   <g id="patch_5">
    <path d="M 57.6 307.584 
L 343.296 307.584 
" style="fill: none; stroke: #000000; stroke-width: 0.8; stroke-linejoin: miter; stroke-linecap: square"/>
   </g>
   <g id="patch_6">
    <path d="M 57.6 41.472 
L 343.296 41.472 
" style="fill: none; stroke: #000000; stroke-width: 0.8; stroke-linejoin: miter; stroke-linecap: square"/>
   </g>
   <g id="text_22">
    <!-- $\theta_m$ = 45 -->
    <g transform="translate(182.298 35.472) scale(0.1 -0.1)">
     <defs>
      <path id="DejaVuSans-Oblique-3b8" d="M 2913 2219 
L 925 2219 
Q 791 1284 928 888 
Q 1100 400 1566 400 
Q 2034 400 2391 891 
Q 2703 1322 2913 2219 
z
M 3009 2750 
Q 3094 3638 2984 3950 
Q 2813 4444 2353 4444 
Q 1875 4444 1525 3956 
Q 1250 3563 1034 2750 
L 3009 2750 
z
M 2444 4913 
Q 3194 4913 3494 4250 
Q 3794 3591 3566 2422 
Q 3341 1256 2781 594 
Q 2225 -72 1475 -72 
Q 722 -72 425 594 
Q 128 1256 353 2422 
Q 581 3591 1134 4250 
Q 1691 4913 2444 4913 
z
" transform="scale(0.015625)"/>
      <path id="DejaVuSans-Oblique-6d" d="M 5747 2113 
L 5338 0 
L 4763 0 
L 5166 2094 
Q 5191 2228 5203 2325 
Q 5216 2422 5216 2491 
Q 5216 2772 5059 2928 
Q 4903 3084 4622 3084 
Q 4203 3084 3875 2770 
Q 3547 2456 3450 1953 
L 3066 0 
L 2491 0 
L 2900 2094 
Q 2925 2209 2937 2307 
Q 2950 2406 2950 2484 
Q 2950 2769 2794 2926 
Q 2638 3084 2363 3084 
Q 1938 3084 1609 2770 
Q 1281 2456 1184 1953 
L 800 0 
L 225 0 
L 909 3500 
L 1484 3500 
L 1375 2956 
Q 1609 3263 1923 3423 
Q 2238 3584 2597 3584 
Q 2978 3584 3223 3384 
Q 3469 3184 3519 2828 
Q 3781 3197 4126 3390 
Q 4472 3584 4856 3584 
Q 5306 3584 5551 3325 
Q 5797 3066 5797 2591 
Q 5797 2488 5784 2364 
Q 5772 2241 5747 2113 
z
" transform="scale(0.015625)"/>
      <path id="Calibri-3d" d="M 2891 2409 
Q 2891 2284 2855 2236 
Q 2819 2188 2772 2188 
L 409 2188 
Q 363 2188 328 2236 
Q 294 2284 294 2409 
Q 294 2522 325 2575 
Q 356 2628 409 2628 
L 2772 2628 
Q 2828 2628 2859 2575 
Q 2891 2522 2891 2409 
z
M 2891 1194 
Q 2891 1069 2855 1022 
Q 2819 975 2772 975 
L 409 975 
Q 363 975 328 1022 
Q 294 1069 294 1194 
Q 294 1309 325 1362 
Q 356 1416 409 1416 
L 2772 1416 
Q 2828 1416 2859 1362 
Q 2891 1309 2891 1194 
z
" transform="scale(0.015625)"/>
      <path id="Calibri-b0" d="M 1847 3541 
Q 1847 3388 1789 3253 
Q 1731 3119 1626 3017 
Q 1522 2916 1380 2859 
Q 1238 2803 1072 2803 
Q 906 2803 770 2854 
Q 634 2906 534 3000 
Q 434 3094 378 3225 
Q 322 3356 322 3516 
Q 322 3675 381 3811 
Q 441 3947 545 4044 
Q 650 4141 790 4197 
Q 931 4253 1097 4253 
Q 1259 4253 1396 4200 
Q 1534 4147 1634 4055 
Q 1734 3963 1790 3831 
Q 1847 3700 1847 3541 
z
M 1453 3528 
Q 1453 3613 1425 3686 
Q 1397 3759 1347 3812 
Q 1297 3866 1228 3895 
Q 1159 3925 1078 3925 
Q 1000 3925 933 3895 
Q 866 3866 816 3812 
Q 766 3759 737 3687 
Q 709 3616 709 3534 
Q 709 3444 737 3369 
Q 766 3294 817 3241 
Q 869 3188 939 3158 
Q 1009 3128 1091 3128 
Q 1166 3128 1233 3159 
Q 1300 3191 1348 3245 
Q 1397 3300 1425 3372 
Q 1453 3444 1453 3528 
z
M 0 4044 
L 0 4044 
z
" transform="scale(0.015625)"/>
     </defs>
     <use xlink:href="#DejaVuSans-Oblique-3b8" transform="translate(0 0.234375)"/>
     <use xlink:href="#DejaVuSans-Oblique-6d" transform="translate(61.181641 -16.171875) scale(0.7)"/>
     <use xlink:href="#Calibri-20" transform="translate(132.104492 0.234375)"/>
     <use xlink:href="#Calibri-3d" transform="translate(154.711914 0.234375)"/>
     <use xlink:href="#Calibri-20" transform="translate(204.516602 0.234375)"/>
     <use xlink:href="#Calibri-34" transform="translate(227.124023 0.234375)"/>
     <use xlink:href="#Calibri-35" transform="translate(277.807617 0.234375)"/>
     <use xlink:href="#Calibri-b0" transform="translate(328.491211 0.234375)"/>
    </g>
   </g>
  </g>
  <g id="axes_2">
   <g id="patch_7">
    <path d="M 361.152 307.584 
L 374.4576 307.584 
L 374.4576 41.472 
L 361.152 41.472 
z
" style="fill: #ffffff"/>
   </g>
   <g id="QuadMesh_1">
    <path d="M 361.152 307.584 
L 374.4576 307.584 
L 374.4576 280.9728 
L 361.152 280.9728 
L 361.152 307.584 
" clip-path="url(#pc6d20d5724)" style="fill: #0000b6"/>
    <path d="M 361.152 280.9728 
L 374.4576 280.9728 
L 374.4576 254.3616 
L 361.152 254.3616 
L 361.152 280.9728 
" clip-path="url(#pc6d20d5724)" style="fill: #0018ff"/>
    <path d="M 361.152 254.3616 
L 374.4576 254.3616 
L 374.4576 227.7504 
L 361.152 227.7504 
L 361.152 254.3616 
" clip-path="url(#pc6d20d5724)" style="fill: #0080ff"/>
    <path d="M 361.152 227.7504 
L 374.4576 227.7504 
L 374.4576 201.1392 
L 361.152 201.1392 
L 361.152 227.7504 
" clip-path="url(#pc6d20d5724)" style="fill: #00e4f8"/>
    <path d="M 361.152 201.1392 
L 374.4576 201.1392 
L 374.4576 174.528 
L 361.152 174.528 
L 361.152 201.1392 
" clip-path="url(#pc6d20d5724)" style="fill: #53ffa4"/>
    <path d="M 361.152 174.528 
L 374.4576 174.528 
L 374.4576 147.9168 
L 361.152 147.9168 
L 361.152 174.528 
" clip-path="url(#pc6d20d5724)" style="fill: #a4ff53"/>
    <path d="M 361.152 147.9168 
L 374.4576 147.9168 
L 374.4576 121.3056 
L 361.152 121.3056 
L 361.152 147.9168 
" clip-path="url(#pc6d20d5724)" style="fill: #f8f500"/>
    <path d="M 361.152 121.3056 
L 374.4576 121.3056 
L 374.4576 94.6944 
L 361.152 94.6944 
L 361.152 121.3056 
" clip-path="url(#pc6d20d5724)" style="fill: #ff9400"/>
    <path d="M 361.152 94.6944 
L 374.4576 94.6944 
L 374.4576 68.0832 
L 361.152 68.0832 
L 361.152 94.6944 
" clip-path="url(#pc6d20d5724)" style="fill: #ff3800"/>
    <path d="M 361.152 68.0832 
L 374.4576 68.0832 
L 374.4576 41.472 
L 361.152 41.472 
L 361.152 68.0832 
" clip-path="url(#pc6d20d5724)" style="fill: #b60000"/>
   </g>
   <g id="matplotlib.axis_3"/>
   <g id="matplotlib.axis_4">
    <g id="ytick_9">
     <g id="line2d_20">
      <defs>
       <path id="mc55b9e60b4" d="M 0 0 
L 3.5 0 
" style="stroke: #000000; stroke-width: 0.8"/>
      </defs>
      <g>
       <use xlink:href="#mc55b9e60b4" x="374.4576" y="307.584" style="stroke: #000000; stroke-width: 0.8"/>
      </g>
     </g>
     <g id="text_23">
      <!-- 0 -->
      <g transform="translate(381.4576 310.984781) scale(0.1 -0.1)">
       <use xlink:href="#Calibri-30"/>
      </g>
     </g>
    </g>
    <g id="ytick_10">
     <g id="line2d_21">
      <g>
       <use xlink:href="#mc55b9e60b4" x="374.4576" y="280.9728" style="stroke: #000000; stroke-width: 0.8"/>
      </g>
     </g>
     <g id="text_24">
      <!-- 0.1 -->
      <g transform="translate(381.4576 284.373581) scale(0.1 -0.1)">
       <use xlink:href="#Calibri-30"/>
       <use xlink:href="#Calibri-2e" x="50.683594"/>
       <use xlink:href="#Calibri-31" x="75.927734"/>
      </g>
     </g>
    </g>
    <g id="ytick_11">
     <g id="line2d_22">
      <g>
       <use xlink:href="#mc55b9e60b4" x="374.4576" y="254.3616" style="stroke: #000000; stroke-width: 0.8"/>
      </g>
     </g>
     <g id="text_25">
      <!-- 0.2 -->
      <g transform="translate(381.4576 257.762381) scale(0.1 -0.1)">
       <use xlink:href="#Calibri-30"/>
       <use xlink:href="#Calibri-2e" x="50.683594"/>
       <use xlink:href="#Calibri-32" x="75.927734"/>
      </g>
     </g>
    </g>
    <g id="ytick_12">
     <g id="line2d_23">
      <g>
       <use xlink:href="#mc55b9e60b4" x="374.4576" y="227.7504" style="stroke: #000000; stroke-width: 0.8"/>
      </g>
     </g>
     <g id="text_26">
      <!-- 0.3 -->
      <g transform="translate(381.4576 231.151181) scale(0.1 -0.1)">
       <use xlink:href="#Calibri-30"/>
       <use xlink:href="#Calibri-2e" x="50.683594"/>
       <use xlink:href="#Calibri-33" x="75.927734"/>
      </g>
     </g>
    </g>
    <g id="ytick_13">
     <g id="line2d_24">
      <g>
       <use xlink:href="#mc55b9e60b4" x="374.4576" y="201.1392" style="stroke: #000000; stroke-width: 0.8"/>
      </g>
     </g>
     <g id="text_27">
      <!-- 0.4 -->
      <g transform="translate(381.4576 204.539981) scale(0.1 -0.1)">
       <use xlink:href="#Calibri-30"/>
       <use xlink:href="#Calibri-2e" x="50.683594"/>
       <use xlink:href="#Calibri-34" x="75.927734"/>
      </g>
     </g>
    </g>
    <g id="ytick_14">
     <g id="line2d_25">
      <g>
       <use xlink:href="#mc55b9e60b4" x="374.4576" y="174.528" style="stroke: #000000; stroke-width: 0.8"/>
      </g>
     </g>
     <g id="text_28">
      <!-- 0.5 -->
      <g transform="translate(381.4576 177.928781) scale(0.1 -0.1)">
       <use xlink:href="#Calibri-30"/>
       <use xlink:href="#Calibri-2e" x="50.683594"/>
       <use xlink:href="#Calibri-35" x="75.927734"/>
      </g>
     </g>
    </g>
    <g id="ytick_15">
     <g id="line2d_26">
      <g>
       <use xlink:href="#mc55b9e60b4" x="374.4576" y="147.9168" style="stroke: #000000; stroke-width: 0.8"/>
      </g>
     </g>
     <g id="text_29">
      <!-- 0.6 -->
      <g transform="translate(381.4576 151.317581) scale(0.1 -0.1)">
       <use xlink:href="#Calibri-30"/>
       <use xlink:href="#Calibri-2e" x="50.683594"/>
       <use xlink:href="#Calibri-36" x="75.927734"/>
      </g>
     </g>
    </g>
    <g id="ytick_16">
     <g id="line2d_27">
      <g>
       <use xlink:href="#mc55b9e60b4" x="374.4576" y="121.3056" style="stroke: #000000; stroke-width: 0.8"/>
      </g>
     </g>
     <g id="text_30">
      <!-- 0.7 -->
      <g transform="translate(381.4576 124.706381) scale(0.1 -0.1)">
       <use xlink:href="#Calibri-30"/>
       <use xlink:href="#Calibri-2e" x="50.683594"/>
       <use xlink:href="#Calibri-37" x="75.927734"/>
      </g>
     </g>
    </g>
    <g id="ytick_17">
     <g id="line2d_28">
      <g>
       <use xlink:href="#mc55b9e60b4" x="374.4576" y="94.6944" style="stroke: #000000; stroke-width: 0.8"/>
      </g>
     </g>
     <g id="text_31">
      <!-- 0.8 -->
      <g transform="translate(381.4576 98.095181) scale(0.1 -0.1)">
       <use xlink:href="#Calibri-30"/>
       <use xlink:href="#Calibri-2e" x="50.683594"/>
       <use xlink:href="#Calibri-38" x="75.927734"/>
      </g>
     </g>
    </g>
    <g id="ytick_18">
     <g id="line2d_29">
      <g>
       <use xlink:href="#mc55b9e60b4" x="374.4576" y="68.0832" style="stroke: #000000; stroke-width: 0.8"/>
      </g>
     </g>
     <g id="text_32">
      <!-- 0.9 -->
      <g transform="translate(381.4576 71.483981) scale(0.1 -0.1)">
       <use xlink:href="#Calibri-30"/>
       <use xlink:href="#Calibri-2e" x="50.683594"/>
       <use xlink:href="#Calibri-39" x="75.927734"/>
      </g>
     </g>
    </g>
    <g id="ytick_19">
     <g id="line2d_30">
      <g>
       <use xlink:href="#mc55b9e60b4" x="374.4576" y="41.472" style="stroke: #000000; stroke-width: 0.8"/>
      </g>
     </g>
     <g id="text_33">
      <!-- 1.0 -->
      <g transform="translate(381.4576 44.872781) scale(0.1 -0.1)">
       <use xlink:href="#Calibri-31"/>
       <use xlink:href="#Calibri-2e" x="50.683594"/>
       <use xlink:href="#Calibri-30" x="75.927734"/>
      </g>
     </g>
    </g>
   </g>
   <g id="LineCollection_1"/>
   <g id="patch_8">
    <path d="M 361.152 307.584 
L 367.8048 307.584 
L 374.4576 307.584 
L 374.4576 41.472 
L 367.8048 41.472 
L 361.152 41.472 
L 361.152 307.584 
z
" style="fill: none; stroke: #000000; stroke-width: 0.8; stroke-linejoin: miter; stroke-linecap: square"/>
   </g>
   <g id="text_34">
    <!-- $\mathit{E}_{\mathrm{NF}}$/$\mathit{E}_{\mathrm{i}}$ -->
    <g transform="translate(353.6548 35.472) scale(0.1 -0.1)">
     <defs>
      <path id="DejaVuSans-Oblique-45" d="M 1081 4666 
L 4031 4666 
L 3928 4134 
L 1606 4134 
L 1338 2753 
L 3566 2753 
L 3463 2222 
L 1234 2222 
L 909 531 
L 3284 531 
L 3181 0 
L 172 0 
L 1081 4666 
z
" transform="scale(0.015625)"/>
      <path id="DejaVuSans-4e" d="M 628 4666 
L 1478 4666 
L 3547 763 
L 3547 4666 
L 4159 4666 
L 4159 0 
L 3309 0 
L 1241 3903 
L 1241 0 
L 628 0 
L 628 4666 
z
" transform="scale(0.015625)"/>
      <path id="DejaVuSans-46" d="M 628 4666 
L 3309 4666 
L 3309 4134 
L 1259 4134 
L 1259 2759 
L 3109 2759 
L 3109 2228 
L 1259 2228 
L 1259 0 
L 628 0 
L 628 4666 
z
" transform="scale(0.015625)"/>
      <path id="DejaVuSans-69" d="M 603 3500 
L 1178 3500 
L 1178 0 
L 603 0 
L 603 3500 
z
M 603 4863 
L 1178 4863 
L 1178 4134 
L 603 4134 
L 603 4863 
z
" transform="scale(0.015625)"/>
     </defs>
     <use xlink:href="#DejaVuSans-Oblique-45" transform="translate(0 0.09375)"/>
     <use xlink:href="#DejaVuSans-4e" transform="translate(63.183594 -16.3125) scale(0.7)"/>
     <use xlink:href="#DejaVuSans-46" transform="translate(115.546875 -16.3125) scale(0.7)"/>
     <use xlink:href="#Calibri-2f" transform="translate(158.544922 0.09375)"/>
     <use xlink:href="#DejaVuSans-Oblique-45" transform="translate(197.167969 0.09375)"/>
     <use xlink:href="#DejaVuSans-69" transform="translate(260.351562 -16.3125) scale(0.7)"/>
    </g>
   </g>
  </g>
 </g>
 <defs>
  <clipPath id="p334f4547c7">
   <rect x="57.6" y="41.472" width="285.696" height="266.112"/>
  </clipPath>
  <clipPath id="pc6d20d5724">
   <rect x="361.152" y="41.472" width="13.3056" height="266.112"/>
  </clipPath>
 </defs>
</svg>
