<?xml version="1.0" encoding="utf-8" standalone="no"?>
<!DOCTYPE svg PUBLIC "-//W3C//DTD SVG 1.1//EN"
  "http://www.w3.org/Graphics/SVG/1.1/DTD/svg11.dtd">
<svg xmlns:xlink="http://www.w3.org/1999/xlink" width="460.8pt" height="345.6pt" viewBox="0 0 460.8 345.6" xmlns="http://www.w3.org/2000/svg" version="1.1">
 <metadata>
  <rdf:RDF xmlns:dc="http://purl.org/dc/elements/1.1/" xmlns:cc="http://creativecommons.org/ns#" xmlns:rdf="http://www.w3.org/1999/02/22-rdf-syntax-ns#">
   <cc:Work>
    <dc:type rdf:resource="http://purl.org/dc/dcmitype/StillImage"/>
    <dc:date>2024-01-22T08:40:06.449333</dc:date>
    <dc:format>image/svg+xml</dc:format>
    <dc:creator>
     <cc:Agent>
      <dc:title>Matplotlib v3.7.1, https://matplotlib.org/</dc:title>
     </cc:Agent>
    </dc:creator>
   </cc:Work>
  </rdf:RDF>
 </metadata>
 <defs>
  <style type="text/css">*{stroke-linejoin: round; stroke-linecap: butt}</style>
 </defs>
 <g id="figure_1">
  <g id="patch_1">
   <path d="M 0 345.6 
L 460.8 345.6 
L 460.8 0 
L 0 0 
z
" style="fill: #ffffff"/>
  </g>
  <g id="axes_1">
   <g id="patch_2">
    <path d="M 57.6 307.584 
L 343.296 307.584 
L 343.296 41.472 
L 57.6 41.472 
z
" style="fill: #ffffff"/>
   </g>
   <g id="PathCollection_1">
    <path clip-path="url(#pb3d4343303)" style="fill: #0000b6"/>
   </g>
   <g id="PathCollection_2">
    <path d="M 65.151396 41.472 
L 65.181066 41.531739 
L 65.647278 42.44628 
L 66.001267 43.15205 
L 66.734207 44.605318 
L 66.787635 44.709892 
L 66.833013 44.7984 
L 67.607745 46.297766 
L 68.050367 47.15052 
L 68.468339 47.967651 
L 68.499071 48.023654 
L 68.553557 48.1248 
L 68.640838 48.296058 
L 68.777685 48.561679 
L 69.061654 49.09908 
L 69.226787 49.416051 
L 69.548933 50.0317 
L 69.945615 50.780015 
L 70.302383 51.4512 
L 70.862946 52.496968 
L 71.565631 53.80332 
L 71.842634 54.324874 
L 71.933503 54.485056 
L 72.096483 54.7776 
L 72.364141 55.28312 
L 72.61493 55.75188 
L 73.133064 56.694816 
L 73.908972 58.104 
L 74.172291 58.577972 
L 75.218345 60.45612 
L 75.300969 60.606101 
L 75.77855 61.4304 
L 76.296911 62.373776 
L 76.314062 62.40468 
L 76.348063 62.464426 
L 76.545337 62.8106 
L 77.535491 64.541405 
L 77.658896 64.7568 
L 78.639083 66.451009 
L 79.020076 67.10892 
L 79.229782 67.462791 
L 79.60095 68.0832 
L 79.901259 68.610378 
L 80.16804 69.05748 
L 80.953663 70.384829 
L 81.560604 71.4096 
L 81.900258 71.977248 
L 82.215637 72.504142 
L 82.679751 73.269423 
L 82.978307 73.76172 
L 83.553275 74.716467 
L 83.56554 74.736 
L 83.606399 74.803571 
L 84.164922 75.71028 
L 84.418933 76.125434 
L 84.808771 76.762632 
L 85.18641 77.371845 
L 85.614295 78.0624 
L 86.171554 78.952105 
L 87.086872 80.41452 
L 87.292003 80.744144 
L 87.436378 80.964824 
L 87.709105 81.3888 
L 88.210376 82.195563 
L 88.315383 82.36308 
L 88.495639 82.644815 
L 89.139635 83.652283 
L 89.708164 84.536967 
L 89.822527 84.7152 
L 90.849887 86.29816 
L 91.348445 87.06732 
L 91.661239 87.540757 
L 91.994935 88.0416 
L 92.159222 88.296161 
L 92.244275 88.430137 
L 92.633872 89.01588 
L 93.294635 90.01298 
L 94.190675 91.368 
L 94.196115 91.376131 
L 94.200425 91.382583 
L 95.103449 92.716975 
L 95.780503 93.72012 
L 96.165755 94.292557 
L 96.445113 94.6944 
L 97.027278 95.555682 
L 97.102411 95.66868 
L 97.564344 96.338146 
L 98.72265 98.0208 
L 98.750491 98.060757 
L 98.858 98.215546 
L 99.957145 99.7883 
L 100.364624 100.37292 
L 100.463093 100.509269 
L 101.058532 101.3472 
L 101.3503 101.768514 
L 101.744824 102.32148 
L 102.444127 103.302818 
L 103.311746 104.525062 
L 103.33993 104.563957 
L 103.33993 101.3472 
L 103.33993 98.0208 
L 103.33993 94.6944 
L 103.33993 91.368 
L 103.33993 88.0416 
L 103.33993 84.7152 
L 103.33993 81.3888 
L 103.33993 78.0624 
L 103.33993 74.736 
L 103.33993 71.4096 
L 103.33993 68.0832 
L 103.33993 64.7568 
L 103.33993 61.4304 
L 103.33993 58.104 
L 103.33993 54.7776 
L 103.33993 51.4512 
L 103.33993 48.1248 
L 103.33993 44.7984 
L 103.33993 41.472 
L 101.816218 41.472 
L 100.292506 41.472 
L 98.768794 41.472 
L 97.245082 41.472 
L 95.72137 41.472 
L 94.197658 41.472 
L 92.673946 41.472 
L 91.150234 41.472 
L 89.626522 41.472 
L 88.10281 41.472 
L 86.579098 41.472 
L 85.055386 41.472 
L 83.531674 41.472 
L 82.007962 41.472 
L 80.48425 41.472 
L 78.960538 41.472 
L 77.436826 41.472 
L 75.913114 41.472 
L 74.389402 41.472 
L 72.86569 41.472 
L 71.341978 41.472 
L 69.818266 41.472 
L 68.294554 41.472 
L 66.770842 41.472 
L 65.24713 41.472 
" clip-path="url(#pb3d4343303)" style="fill: #0018ff"/>
   </g>
   <g id="PathCollection_3">
    <path d="M 103.33993 104.563957 
L 103.311746 104.525062 
L 102.444127 103.302818 
L 101.744824 102.32148 
L 101.3503 101.768514 
L 101.058532 101.3472 
L 100.463093 100.509269 
L 100.364624 100.37292 
L 99.957145 99.7883 
L 98.858 98.215546 
L 98.750491 98.060757 
L 98.72265 98.0208 
L 97.564344 96.338146 
L 97.102411 95.66868 
L 97.027278 95.555682 
L 96.445113 94.6944 
L 96.165755 94.292557 
L 95.780503 93.72012 
L 95.103449 92.716975 
L 94.200425 91.382583 
L 94.196115 91.376131 
L 94.190675 91.368 
L 93.294635 90.01298 
L 92.633872 89.01588 
L 92.244275 88.430137 
L 92.159222 88.296161 
L 91.994935 88.0416 
L 91.661239 87.540757 
L 91.348445 87.06732 
L 90.849887 86.29816 
L 89.822527 84.7152 
L 89.708164 84.536967 
L 89.139635 83.652283 
L 88.495639 82.644815 
L 88.315383 82.36308 
L 88.210376 82.195563 
L 87.709105 81.3888 
L 87.436378 80.964824 
L 87.292003 80.744144 
L 87.086872 80.41452 
L 86.171554 78.952105 
L 85.614295 78.0624 
L 85.18641 77.371845 
L 84.808771 76.762632 
L 84.418933 76.125434 
L 84.164922 75.71028 
L 83.606399 74.803571 
L 83.56554 74.736 
L 83.553275 74.716467 
L 82.978307 73.76172 
L 82.679751 73.269423 
L 82.215637 72.504142 
L 81.900258 71.977248 
L 81.560604 71.4096 
L 80.953663 70.384829 
L 80.16804 69.05748 
L 79.901259 68.610378 
L 79.60095 68.0832 
L 79.229782 67.462791 
L 79.020076 67.10892 
L 78.639083 66.451009 
L 77.658896 64.7568 
L 77.535491 64.541405 
L 76.545337 62.8106 
L 76.348063 62.464426 
L 76.314062 62.40468 
L 76.296911 62.373776 
L 75.77855 61.4304 
L 75.300969 60.606101 
L 75.218345 60.45612 
L 74.172291 58.577972 
L 73.908972 58.104 
L 73.133064 56.694816 
L 72.61493 55.75188 
L 72.364141 55.28312 
L 72.096483 54.7776 
L 71.933503 54.485056 
L 71.842634 54.324874 
L 71.565631 53.80332 
L 70.862946 52.496968 
L 70.302383 51.4512 
L 69.945615 50.780015 
L 69.548933 50.0317 
L 69.226787 49.416051 
L 69.061654 49.09908 
L 68.777685 48.561679 
L 68.640838 48.296058 
L 68.553557 48.1248 
L 68.499071 48.023654 
L 68.468339 47.967651 
L 68.050367 47.15052 
L 67.607745 46.297766 
L 66.833013 44.7984 
L 66.787635 44.709892 
L 66.734207 44.605318 
L 66.001267 43.15205 
L 65.647278 42.44628 
L 65.181066 41.531739 
L 65.151396 41.472 
L 63.723418 41.472 
L 62.199706 41.472 
L 60.675994 41.472 
L 59.152282 41.472 
L 57.62857 41.472 
L 57.62857 44.7984 
L 57.62857 48.1248 
L 57.62857 51.4512 
L 57.62857 54.7776 
L 57.62857 58.104 
L 57.62857 61.4304 
L 57.62857 64.7568 
L 57.62857 68.0832 
L 57.62857 71.4096 
L 57.62857 74.736 
L 57.62857 78.0624 
L 57.62857 81.3888 
L 57.62857 84.7152 
L 57.62857 88.0416 
L 57.62857 91.368 
L 57.62857 94.6944 
L 57.62857 98.0208 
L 57.62857 101.3472 
L 57.62857 104.6736 
L 57.62857 108 
L 57.62857 109.337001 
L 57.90837 109.851727 
L 58.718803 111.3264 
L 58.955759 111.755427 
L 60.02782 113.67852 
L 60.094965 113.800364 
L 60.269437 114.100301 
L 60.588151 114.6528 
L 61.125592 115.624083 
L 61.127332 115.62708 
L 62.323511 117.708923 
L 62.480056 117.9792 
L 63.417952 119.589137 
L 63.852838 120.33132 
L 64.095143 120.735875 
L 64.437858 121.3056 
L 64.618082 121.616701 
L 64.715577 121.786264 
L 65.013583 122.27988 
L 65.756198 123.520658 
L 66.426126 124.632 
L 66.688698 125.064931 
L 66.927213 125.456145 
L 67.494504 126.378581 
L 67.869292 126.98412 
L 68.405932 127.857684 
L 68.428177 127.892315 
L 68.470279 127.9584 
L 68.54743 128.083462 
L 68.693348 128.319016 
L 69.078228 128.93268 
L 69.247466 129.204506 
L 69.500035 129.607583 
L 69.989539 130.382111 
L 70.562558 131.2848 
L 71.016526 131.99529 
L 72.071444 133.63692 
L 72.19882 133.836387 
L 72.711802 134.6112 
L 73.11659 135.240681 
L 73.327629 135.571324 
L 73.337037 135.58548 
L 74.595043 137.488666 
L 74.893206 137.9376 
L 75.687732 139.125462 
L 76.316116 140.061602 
L 76.404255 140.191794 
L 76.470825 140.28972 
L 76.646564 140.549394 
L 76.980406 141.038274 
L 77.135114 141.264 
L 77.210005 141.376176 
L 77.248521 141.434277 
L 77.801763 142.23828 
L 78.228756 142.861545 
L 78.786258 143.671868 
L 79.059964 144.066378 
L 79.42457 144.5904 
L 80.065428 145.504725 
L 81.076896 146.94252 
L 81.26497 147.210822 
L 81.435753 147.446225 
L 81.774581 147.9168 
L 82.229176 148.560962 
L 82.458049 148.887641 
L 82.460541 148.89108 
L 83.775425 150.711068 
L 84.160995 151.2432 
L 84.870916 152.215439 
L 85.368992 152.896047 
L 85.648479 153.274825 
L 85.88553 153.59532 
L 86.594377 154.555783 
L 86.597839 154.560331 
L 86.604842 154.5696 
L 86.619734 154.589697 
L 86.657514 154.640509 
L 87.333219 155.54388 
L 87.533565 155.812311 
L 87.766528 156.123646 
L 88.30392 156.836059 
L 89.104782 157.896 
L 89.430562 158.323796 
L 90.410965 159.608511 
L 90.743086 160.041851 
L 90.901386 160.24812 
L 91.024828 160.406814 
L 91.661276 161.2224 
L 91.939726 161.585515 
L 92.075387 161.763656 
L 92.414529 162.19668 
L 93.257717 163.274376 
L 94.178922 164.450054 
L 94.209136 164.488306 
L 94.256957 164.5488 
L 95.186928 165.715533 
L 96.132771 166.90092 
L 96.411843 167.250829 
L 96.576672 167.452202 
L 96.920405 167.8752 
L 97.445521 168.529637 
L 97.696596 168.844751 
L 97.700461 168.84948 
L 99.075499 170.532035 
L 99.622966 171.2016 
L 100.167262 171.86169 
L 100.492573 172.256045 
L 101.034576 172.907994 
L 101.571482 173.55372 
L 102.139082 174.236045 
L 102.383647 174.528 
L 103.001943 175.265855 
L 103.33993 175.662528 
L 103.33993 174.528 
L 103.33993 171.2016 
L 103.33993 167.8752 
L 103.33993 164.5488 
L 103.33993 161.2224 
L 103.33993 157.896 
L 103.33993 154.5696 
L 103.33993 151.2432 
L 103.33993 147.9168 
L 103.33993 144.5904 
L 103.33993 141.264 
L 103.33993 137.9376 
L 103.33993 134.6112 
L 103.33993 131.2848 
L 103.33993 127.9584 
L 103.33993 124.632 
L 103.33993 121.3056 
L 103.33993 117.9792 
L 103.33993 114.6528 
L 103.33993 111.3264 
L 103.33993 108 
L 103.33993 104.6736 
" clip-path="url(#pb3d4343303)" style="fill: #0080ff"/>
   </g>
   <g id="PathCollection_4">
    <path d="M 103.33993 175.662528 
L 103.001943 175.265855 
L 102.383647 174.528 
L 102.139082 174.236045 
L 101.571482 173.55372 
L 101.034576 172.907994 
L 100.492573 172.256045 
L 100.167262 171.86169 
L 99.622966 171.2016 
L 99.075499 170.532035 
L 97.700461 168.84948 
L 97.696596 168.844751 
L 97.445521 168.529637 
L 96.920405 167.8752 
L 96.576672 167.452202 
L 96.411843 167.250829 
L 96.132771 166.90092 
L 95.186928 165.715533 
L 94.256957 164.5488 
L 94.209136 164.488306 
L 94.178922 164.450054 
L 93.257717 163.274376 
L 92.414529 162.19668 
L 92.075387 161.763656 
L 91.939726 161.585515 
L 91.661276 161.2224 
L 91.024828 160.406814 
L 90.901386 160.24812 
L 90.743086 160.041851 
L 90.410965 159.608511 
L 89.430562 158.323796 
L 89.104782 157.896 
L 88.30392 156.836059 
L 87.766528 156.123646 
L 87.533565 155.812311 
L 87.333219 155.54388 
L 86.657514 154.640509 
L 86.619734 154.589697 
L 86.604842 154.5696 
L 86.597839 154.560331 
L 86.594377 154.555783 
L 85.88553 153.59532 
L 85.648479 153.274825 
L 85.368992 152.896047 
L 84.870916 152.215439 
L 84.160995 151.2432 
L 83.775425 150.711068 
L 82.460541 148.89108 
L 82.458049 148.887641 
L 82.229176 148.560962 
L 81.774581 147.9168 
L 81.435753 147.446225 
L 81.26497 147.210822 
L 81.076896 146.94252 
L 80.065428 145.504725 
L 79.42457 144.5904 
L 79.059964 144.066378 
L 78.786258 143.671868 
L 78.228756 142.861545 
L 77.801763 142.23828 
L 77.248521 141.434277 
L 77.210005 141.376176 
L 77.135114 141.264 
L 76.980406 141.038274 
L 76.646564 140.549394 
L 76.470825 140.28972 
L 76.404255 140.191794 
L 76.316116 140.061602 
L 75.687732 139.125462 
L 74.893206 137.9376 
L 74.595043 137.488666 
L 73.337037 135.58548 
L 73.327629 135.571324 
L 73.11659 135.240681 
L 72.711802 134.6112 
L 72.19882 133.836387 
L 72.071444 133.63692 
L 71.016526 131.99529 
L 70.562558 131.2848 
L 69.989539 130.382111 
L 69.500035 129.607583 
L 69.247466 129.204506 
L 69.078228 128.93268 
L 68.693348 128.319016 
L 68.54743 128.083462 
L 68.470279 127.9584 
L 68.428177 127.892315 
L 68.405932 127.857684 
L 67.869292 126.98412 
L 67.494504 126.378581 
L 66.927213 125.456145 
L 66.688698 125.064931 
L 66.426126 124.632 
L 65.756198 123.520658 
L 65.013583 122.27988 
L 64.715577 121.786264 
L 64.618082 121.616701 
L 64.437858 121.3056 
L 64.095143 120.735875 
L 63.852838 120.33132 
L 63.417952 119.589137 
L 62.480056 117.9792 
L 62.323511 117.708923 
L 61.127332 115.62708 
L 61.125592 115.624083 
L 60.588151 114.6528 
L 60.269437 114.100301 
L 60.094965 113.800364 
L 60.02782 113.67852 
L 58.955759 111.755427 
L 58.718803 111.3264 
L 57.90837 109.851727 
L 57.62857 109.337001 
L 57.62857 111.3264 
L 57.62857 114.6528 
L 57.62857 117.9792 
L 57.62857 121.3056 
L 57.62857 124.632 
L 57.62857 127.9584 
L 57.62857 131.2848 
L 57.62857 134.6112 
L 57.62857 137.9376 
L 57.62857 141.264 
L 57.62857 144.5904 
L 57.62857 147.9168 
L 57.62857 151.2432 
L 57.62857 154.5696 
L 57.62857 157.896 
L 57.62857 161.2224 
L 57.62857 164.5488 
L 57.62857 167.8752 
L 57.62857 171.2016 
L 57.62857 171.53782 
L 57.719885 171.682874 
L 58.422315 172.795182 
L 58.907696 173.55372 
L 59.389903 174.313127 
L 59.530975 174.528 
L 59.70701 174.802346 
L 60.053092 175.342572 
L 60.156251 175.50228 
L 60.199092 175.569119 
L 60.260256 175.66328 
L 60.904139 176.651972 
L 61.694808 177.8544 
L 61.992506 178.306735 
L 63.258748 180.20652 
L 63.265632 180.21692 
L 63.488144 180.543591 
L 63.92348 181.1808 
L 64.252231 181.672836 
L 64.422369 181.926603 
L 64.579824 182.15508 
L 65.625338 183.681538 
L 66.197528 184.5072 
L 66.647726 185.156072 
L 66.985502 185.638554 
L 67.463961 186.320458 
L 67.846295 186.85932 
L 68.440624 187.701514 
L 68.536358 187.8336 
L 68.973264 188.447334 
L 69.231178 188.80788 
L 69.316832 188.928275 
L 69.422753 189.075473 
L 70.048979 189.944038 
L 70.933064 191.16 
L 71.184037 191.504798 
L 72.020818 192.64197 
L 72.469042 193.250509 
L 72.663293 193.51212 
L 72.807534 193.704073 
L 73.39459 194.4864 
L 73.793212 195.025514 
L 74.122736 195.46068 
L 74.958839 196.569667 
L 75.905658 197.8128 
L 75.911628 197.820629 
L 75.915573 197.825761 
L 76.86561 199.059816 
L 77.724686 200.16492 
L 78.049873 200.584843 
L 78.488456 201.1392 
L 79.04435 201.851316 
L 79.24963 202.11348 
L 79.376337 202.274154 
L 79.622117 202.583486 
L 80.716141 203.959361 
L 81.122366 204.4656 
L 81.8388 205.357156 
L 82.280711 205.903112 
L 82.659251 206.370176 
L 83.025158 206.81772 
L 83.697266 207.642261 
L 83.821634 207.792 
L 84.618108 208.761825 
L 84.621777 208.76628 
L 85.337741 209.630263 
L 86.578702 211.117536 
L 86.579213 211.118148 
L 86.579425 211.1184 
L 87.82296 212.593334 
L 88.54381 213.44267 
L 88.555532 213.456467 
L 88.567566 213.47052 
L 88.630306 213.543957 
L 89.401182 214.4448 
L 89.498941 214.560167 
L 90.239021 215.41908 
L 90.542306 215.77196 
L 90.834979 216.109667 
L 91.352301 216.706217 
L 92.281685 217.7712 
L 92.539024 218.065745 
L 93.101307 218.704167 
L 93.857735 219.562746 
L 94.354638 220.12332 
L 94.831882 220.657696 
L 95.224283 221.0976 
L 95.44534 221.347204 
L 96.096547 222.07188 
L 96.561372 222.590198 
L 96.986372 223.060487 
L 97.414029 223.533574 
L 98.223654 224.424 
L 98.5863 224.8224 
L 99.315554 225.617626 
L 99.937387 226.295632 
L 100.380567 226.77612 
L 100.834235 227.264752 
L 101.284615 227.7504 
L 101.526324 228.012541 
L 102.191298 228.72468 
L 102.662244 229.229849 
L 103.072374 229.666662 
L 103.33993 229.951356 
L 103.33993 227.7504 
L 103.33993 224.424 
L 103.33993 221.0976 
L 103.33993 217.7712 
L 103.33993 214.4448 
L 103.33993 211.1184 
L 103.33993 207.792 
L 103.33993 204.4656 
L 103.33993 201.1392 
L 103.33993 197.8128 
L 103.33993 194.4864 
L 103.33993 191.16 
L 103.33993 187.8336 
L 103.33993 184.5072 
L 103.33993 181.1808 
L 103.33993 177.8544 
" clip-path="url(#pb3d4343303)" style="fill: #00e4f8"/>
   </g>
   <g id="PathCollection_5">
    <path d="M 103.33993 229.951356 
L 103.072374 229.666662 
L 102.662244 229.229849 
L 102.191298 228.72468 
L 101.526324 228.012541 
L 101.284615 227.7504 
L 100.834235 227.264752 
L 100.380567 226.77612 
L 99.937387 226.295632 
L 99.315554 225.617626 
L 98.5863 224.8224 
L 98.223654 224.424 
L 97.414029 223.533574 
L 96.986372 223.060487 
L 96.561372 222.590198 
L 96.096547 222.07188 
L 95.44534 221.347204 
L 95.224283 221.0976 
L 94.831882 220.657696 
L 94.354638 220.12332 
L 93.857735 219.562746 
L 93.101307 218.704167 
L 92.539024 218.065745 
L 92.281685 217.7712 
L 91.352301 216.706217 
L 90.834979 216.109667 
L 90.542306 215.77196 
L 90.239021 215.41908 
L 89.498941 214.560167 
L 89.401182 214.4448 
L 88.630306 213.543957 
L 88.567566 213.47052 
L 88.555532 213.456467 
L 88.54381 213.44267 
L 87.82296 212.593334 
L 86.579425 211.1184 
L 86.579213 211.118148 
L 86.578702 211.117536 
L 85.337741 209.630263 
L 84.621777 208.76628 
L 84.618108 208.761825 
L 83.821634 207.792 
L 83.697266 207.642261 
L 83.025158 206.81772 
L 82.659251 206.370176 
L 82.280711 205.903112 
L 81.8388 205.357156 
L 81.122366 204.4656 
L 80.716141 203.959361 
L 79.622117 202.583486 
L 79.376337 202.274154 
L 79.24963 202.11348 
L 79.04435 201.851316 
L 78.488456 201.1392 
L 78.049873 200.584843 
L 77.724686 200.16492 
L 76.86561 199.059816 
L 75.915573 197.825761 
L 75.911628 197.820629 
L 75.905658 197.8128 
L 74.958839 196.569667 
L 74.122736 195.46068 
L 73.793212 195.025514 
L 73.39459 194.4864 
L 72.807534 193.704073 
L 72.663293 193.51212 
L 72.469042 193.250509 
L 72.020818 192.64197 
L 71.184037 191.504798 
L 70.933064 191.16 
L 70.048979 189.944038 
L 69.422753 189.075473 
L 69.316832 188.928275 
L 69.231178 188.80788 
L 68.973264 188.447334 
L 68.536358 187.8336 
L 68.440624 187.701514 
L 67.846295 186.85932 
L 67.463961 186.320458 
L 66.985502 185.638554 
L 66.647726 185.156072 
L 66.197528 184.5072 
L 65.625338 183.681538 
L 64.579824 182.15508 
L 64.422369 181.926603 
L 64.252231 181.672836 
L 63.92348 181.1808 
L 63.488144 180.543591 
L 63.265632 180.21692 
L 63.258748 180.20652 
L 61.992506 178.306735 
L 61.694808 177.8544 
L 60.904139 176.651972 
L 60.260256 175.66328 
L 60.199092 175.569119 
L 60.156251 175.50228 
L 60.053092 175.342572 
L 59.70701 174.802346 
L 59.530975 174.528 
L 59.389903 174.313127 
L 58.907696 173.55372 
L 58.422315 172.795182 
L 57.719885 171.682874 
L 57.62857 171.53782 
L 57.62857 174.528 
L 57.62857 177.8544 
L 57.62857 181.1808 
L 57.62857 184.5072 
L 57.62857 187.8336 
L 57.62857 191.16 
L 57.62857 194.4864 
L 57.62857 197.8128 
L 57.62857 201.1392 
L 57.62857 204.4656 
L 57.62857 207.792 
L 57.62857 211.1184 
L 57.62857 214.4448 
L 57.62857 217.7712 
L 57.62857 221.0976 
L 57.62857 224.424 
L 57.62857 227.7504 
L 57.62857 228.945427 
L 57.947025 229.398399 
L 59.137007 231.0768 
L 59.146257 231.089953 
L 59.179526 231.136276 
L 60.353628 232.775808 
L 60.828764 233.42892 
L 61.169816 233.893859 
L 61.540617 234.4032 
L 61.713589 234.643613 
L 61.801275 234.763487 
L 62.255217 235.37748 
L 62.884153 236.235389 
L 63.628749 237.230654 
L 63.779593 237.43353 
L 64.003137 237.7296 
L 64.775003 238.760295 
L 65.784487 240.08172 
L 66.004078 240.371518 
L 66.532986 241.056 
L 67.25559 241.995498 
L 67.282856 242.03028 
L 68.597597 243.720828 
L 69.122166 244.3824 
L 69.682923 245.095718 
L 70.038004 245.540517 
L 70.528213 246.15892 
L 70.993271 246.73452 
L 71.592647 247.482128 
L 71.777528 247.7088 
L 72.070396 248.069046 
L 72.566265 248.68308 
L 73.170666 249.427838 
L 74.257206 250.746605 
L 74.426868 250.953408 
L 74.495233 251.0352 
L 75.648888 252.427787 
L 76.331319 253.239326 
L 76.393216 253.313494 
L 76.455971 253.38732 
L 76.766779 253.7557 
L 77.277576 254.3616 
L 77.346179 254.443568 
L 78.104582 255.33588 
L 78.370046 255.650696 
L 78.631763 255.955212 
L 79.169602 256.586139 
L 80.122887 257.688 
L 80.358352 257.962847 
L 80.888112 258.569669 
L 81.6699 259.469734 
L 82.172652 260.04012 
L 82.257285 260.137529 
L 83.031337 261.0144 
L 83.182206 261.187233 
L 83.252683 261.266681 
L 83.894775 261.98868 
L 84.365001 262.521572 
L 84.802561 263.008302 
L 85.219445 263.476132 
L 86.00126 264.3408 
L 86.38346 264.767895 
L 87.169958 265.630701 
L 87.73896 266.258448 
L 88.138518 266.69292 
L 88.265526 266.833161 
L 89.032941 267.6672 
L 89.301766 267.960865 
L 89.932248 268.64148 
L 90.447271 269.201831 
L 90.902547 269.688183 
L 91.313776 270.131661 
L 92.124659 270.9936 
L 92.492746 271.389175 
L 93.19423 272.129428 
L 93.85002 272.825804 
L 94.346728 273.34572 
L 94.441038 273.446068 
L 95.27561 274.32 
L 95.417702 274.470182 
L 95.481693 274.536731 
L 96.20953 275.29428 
L 96.607528 275.711837 
L 96.943746 276.05823 
L 97.447028 276.582051 
L 98.484479 277.6464 
L 98.677174 277.846413 
L 99.020916 278.196806 
L 99.997825 279.199496 
L 100.7272 279.93743 
L 100.754153 279.964981 
L 100.787536 279.99852 
L 101.195394 280.411411 
L 101.749529 280.9728 
L 101.771279 280.995025 
L 101.780921 281.004718 
L 102.716164 281.94708 
L 102.837283 282.070123 
L 102.935601 282.168209 
L 103.33993 282.5803 
L 103.33993 280.9728 
L 103.33993 277.6464 
L 103.33993 274.32 
L 103.33993 270.9936 
L 103.33993 267.6672 
L 103.33993 264.3408 
L 103.33993 261.0144 
L 103.33993 257.688 
L 103.33993 254.3616 
L 103.33993 251.0352 
L 103.33993 247.7088 
L 103.33993 244.3824 
L 103.33993 241.056 
L 103.33993 237.7296 
L 103.33993 234.4032 
L 103.33993 231.0768 
" clip-path="url(#pb3d4343303)" style="fill: #53ffa4"/>
   </g>
   <g id="PathCollection_6">
    <path d="M 103.33993 282.5803 
L 102.935601 282.168209 
L 102.837283 282.070123 
L 102.716164 281.94708 
L 101.780921 281.004718 
L 101.771279 280.995025 
L 101.749529 280.9728 
L 101.195394 280.411411 
L 100.787536 279.99852 
L 100.754153 279.964981 
L 100.7272 279.93743 
L 99.997825 279.199496 
L 99.020916 278.196806 
L 98.677174 277.846413 
L 98.484479 277.6464 
L 97.447028 276.582051 
L 96.943746 276.05823 
L 96.607528 275.711837 
L 96.20953 275.29428 
L 95.481693 274.536731 
L 95.417702 274.470182 
L 95.27561 274.32 
L 94.441038 273.446068 
L 94.346728 273.34572 
L 93.85002 272.825804 
L 93.19423 272.129428 
L 92.492746 271.389175 
L 92.124659 270.9936 
L 91.313776 270.131661 
L 90.902547 269.688183 
L 90.447271 269.201831 
L 89.932248 268.64148 
L 89.301766 267.960865 
L 89.032941 267.6672 
L 88.265526 266.833161 
L 88.138518 266.69292 
L 87.73896 266.258448 
L 87.169958 265.630701 
L 86.38346 264.767895 
L 86.00126 264.3408 
L 85.219445 263.476132 
L 84.802561 263.008302 
L 84.365001 262.521572 
L 83.894775 261.98868 
L 83.252683 261.266681 
L 83.182206 261.187233 
L 83.031337 261.0144 
L 82.257285 260.137529 
L 82.172652 260.04012 
L 81.6699 259.469734 
L 80.888112 258.569669 
L 80.358352 257.962847 
L 80.122887 257.688 
L 79.169602 256.586139 
L 78.631763 255.955212 
L 78.370046 255.650696 
L 78.104582 255.33588 
L 77.346179 254.443568 
L 77.277576 254.3616 
L 76.766779 253.7557 
L 76.455971 253.38732 
L 76.393216 253.313494 
L 76.331319 253.239326 
L 75.648888 252.427787 
L 74.495233 251.0352 
L 74.426868 250.953408 
L 74.257206 250.746605 
L 73.170666 249.427838 
L 72.566265 248.68308 
L 72.070396 248.069046 
L 71.777528 247.7088 
L 71.592647 247.482128 
L 70.993271 246.73452 
L 70.528213 246.15892 
L 70.038004 245.540517 
L 69.682923 245.095718 
L 69.122166 244.3824 
L 68.597597 243.720828 
L 67.282856 242.03028 
L 67.25559 241.995498 
L 66.532986 241.056 
L 66.004078 240.371518 
L 65.784487 240.08172 
L 64.775003 238.760295 
L 64.003137 237.7296 
L 63.779593 237.43353 
L 63.628749 237.230654 
L 62.884153 236.235389 
L 62.255217 235.37748 
L 61.801275 234.763487 
L 61.713589 234.643613 
L 61.540617 234.4032 
L 61.169816 233.893859 
L 60.828764 233.42892 
L 60.353628 232.775808 
L 59.179526 231.136276 
L 59.146257 231.089953 
L 59.137007 231.0768 
L 57.947025 229.398399 
L 57.62857 228.945427 
L 57.62857 231.0768 
L 57.62857 234.4032 
L 57.62857 237.7296 
L 57.62857 241.056 
L 57.62857 244.3824 
L 57.62857 247.7088 
L 57.62857 251.0352 
L 57.62857 254.3616 
L 57.62857 257.688 
L 57.62857 261.0144 
L 57.62857 264.3408 
L 57.62857 267.6672 
L 57.62857 270.9936 
L 57.62857 274.32 
L 57.62857 277.6464 
L 57.62857 280.9728 
L 57.62857 284.2992 
L 57.62857 287.6256 
L 57.62857 290.952 
L 57.62857 294.2784 
L 57.62857 297.6048 
L 57.62857 300.9312 
L 57.62857 302.046635 
L 57.955762 302.533152 
L 59.111842 304.2576 
L 59.135509 304.294216 
L 59.240578 304.45036 
L 60.329672 306.082867 
L 60.691891 306.60972 
L 60.947524 306.991225 
L 61.350564 307.584 
L 62.199706 307.584 
L 63.723418 307.584 
L 65.24713 307.584 
L 66.770842 307.584 
L 68.294554 307.584 
L 69.818266 307.584 
L 71.341978 307.584 
L 72.86569 307.584 
L 74.389402 307.584 
L 75.913114 307.584 
L 77.436826 307.584 
L 78.960538 307.584 
L 80.48425 307.584 
L 82.007962 307.584 
L 83.531674 307.584 
L 85.055386 307.584 
L 86.579098 307.584 
L 88.10281 307.584 
L 89.626522 307.584 
L 91.150234 307.584 
L 92.673946 307.584 
L 94.197658 307.584 
L 95.72137 307.584 
L 97.245082 307.584 
L 98.768794 307.584 
L 100.292506 307.584 
L 101.816218 307.584 
L 103.33993 307.584 
L 103.33993 304.2576 
L 103.33993 300.9312 
L 103.33993 297.6048 
L 103.33993 294.2784 
L 103.33993 290.952 
L 103.33993 287.6256 
L 103.33993 284.2992 
" clip-path="url(#pb3d4343303)" style="fill: #a4ff53"/>
   </g>
   <g id="PathCollection_7">
    <path d="M 61.350564 307.584 
L 60.947524 306.991225 
L 60.691891 306.60972 
L 60.329672 306.082867 
L 59.240578 304.45036 
L 59.135509 304.294216 
L 59.111842 304.2576 
L 57.955762 302.533152 
L 57.62857 302.046635 
L 57.62857 304.2576 
L 57.62857 307.584 
L 59.152282 307.584 
L 60.675994 307.584 
" clip-path="url(#pb3d4343303)" style="fill: #f8f500"/>
   </g>
   <g id="PathCollection_8">
    <path clip-path="url(#pb3d4343303)" style="fill: #ff9400"/>
   </g>
   <g id="PathCollection_9">
    <path clip-path="url(#pb3d4343303)" style="fill: #ff3800"/>
   </g>
   <g id="PathCollection_10">
    <path clip-path="url(#pb3d4343303)" style="fill: #b60000"/>
   </g>
   <g id="PathCollection_11">
    <path d="M 150.502339 41.472 
L 152.088489 43.75467 
L 152.328144 44.07008 
L 155.442119 48.506541 
L 156.759667 50.3424 
L 156.919276 50.559553 
L 161.351984 56.61472 
L 161.701852 57.131909 
L 162.394832 57.902691 
L 163.457361 59.2128 
L 164.830004 61.317178 
L 165.115942 61.81088 
L 166.759124 63.990619 
L 169.817719 68.0832 
L 171.414616 70.156791 
L 174.596437 74.35552 
L 175.68005 75.876404 
L 176.604156 76.9536 
L 178.100445 79.129427 
L 178.441927 79.55168 
L 178.710492 79.902585 
L 179.622505 81.117305 
L 182.019137 84.19027 
L 183.272398 85.824 
L 186.169296 89.469837 
L 188.199932 92.09632 
L 189.95956 94.484133 
L 190.140692 94.6944 
L 190.271007 94.886716 
L 190.447342 95.126075 
L 192.228179 97.29248 
L 193.614455 99.052042 
L 197.062519 103.5648 
L 197.420579 104.015764 
L 198.085439 104.872761 
L 201.090371 108.600544 
L 202.049699 109.83712 
L 203.122017 111.271502 
L 203.670106 111.934815 
L 204.114125 112.4352 
L 204.498405 112.974147 
L 206.19178 115.03328 
L 208.623179 118.086701 
L 211.081101 121.3056 
L 212.911859 123.603585 
L 215.981839 127.57792 
L 217.138172 129.000036 
L 218.169315 130.176 
L 218.753154 130.951046 
L 219.080695 131.444442 
L 220.154063 132.77408 
L 223.604292 137.151618 
L 225.019721 139.0464 
L 228.357024 143.313409 
L 229.865682 145.31872 
L 230.323362 145.81955 
L 232.025956 147.9168 
L 233.491258 149.992685 
L 233.895572 150.51488 
L 238.394213 156.426046 
L 238.651381 156.7872 
L 241.31569 160.349783 
L 243.372849 163.05952 
L 243.478275 163.20032 
L 244.274127 164.116099 
L 245.451207 165.6576 
L 246.932672 167.859083 
L 247.227279 168.25568 
L 248.098899 169.396839 
L 251.825916 174.528 
L 252.932652 175.976054 
L 256.342426 180.80032 
L 257.220274 182.052027 
L 257.628515 182.560699 
L 258.20972 183.3984 
L 258.926302 184.558276 
L 259.897305 185.959892 
L 259.924442 185.99648 
L 259.94836 186.028863 
L 260.042635 186.167711 
L 263.038744 190.443515 
L 264.242749 192.2688 
L 266.92588 196.123519 
L 268.454457 198.54112 
L 269.952503 200.916325 
L 270.110577 201.1392 
L 270.186167 201.256014 
L 271.829377 203.73728 
L 273.655013 206.490365 
L 275.757545 210.0096 
L 277.497472 212.76301 
L 279.567017 216.28192 
L 279.770954 216.564471 
L 281.185881 218.88 
L 281.900022 220.054949 
L 282.297415 220.847929 
L 282.649372 221.47808 
L 285.445502 226.449153 
L 286.207268 227.7504 
L 286.379553 228.02809 
L 289.662453 234.02272 
L 290.205344 234.999274 
L 290.58986 235.638502 
L 291.068615 236.6208 
L 292.374467 239.214492 
L 292.376189 239.21888 
L 295.097279 244.513406 
L 295.554072 245.4912 
L 298.118248 250.646129 
L 298.588053 251.76352 
L 298.951235 252.604456 
L 299.812391 254.3616 
L 300.352164 255.482854 
L 300.993785 256.95968 
L 303.484282 262.506693 
L 303.752943 263.232 
L 304.468918 265.036296 
L 306.381507 269.50432 
L 306.747885 270.3206 
L 307.074521 271.046814 
L 307.426297 272.1024 
L 307.859539 273.352866 
L 308.432275 274.648755 
L 308.45491 274.70048 
L 308.485597 274.766925 
L 310.834853 280.9728 
L 310.877526 281.077549 
L 313.082603 287.24512 
L 313.418189 288.45458 
L 313.935768 289.8432 
L 314.665691 291.815942 
L 314.8354 292.44128 
L 315.597932 294.972553 
L 316.850777 298.7136 
L 317.466671 300.406836 
L 318.715021 304.98592 
L 319.462361 307.379506 
L 319.506432 307.584 
L 327.10656 307.584 
L 335.20128 307.584 
L 343.296 307.584 
L 343.296 298.7136 
L 343.296 289.8432 
L 343.296 280.9728 
L 343.296 272.1024 
L 343.296 263.232 
L 343.296 254.3616 
L 343.296 245.4912 
L 343.296 236.6208 
L 343.296 227.7504 
L 343.296 218.88 
L 343.296 210.0096 
L 343.296 201.1392 
L 343.296 192.2688 
L 343.296 183.3984 
L 343.296 174.528 
L 343.296 165.6576 
L 343.296 156.7872 
L 343.296 147.9168 
L 343.296 139.0464 
L 343.296 130.176 
L 343.296 121.3056 
L 343.296 112.4352 
L 343.296 103.5648 
L 343.296 94.6944 
L 343.296 85.824 
L 343.296 76.9536 
L 343.296 68.0832 
L 343.296 59.2128 
L 343.296 50.3424 
L 343.296 41.472 
L 335.20128 41.472 
L 327.10656 41.472 
L 319.01184 41.472 
L 310.91712 41.472 
L 302.8224 41.472 
L 294.72768 41.472 
L 286.63296 41.472 
L 278.53824 41.472 
L 270.44352 41.472 
L 262.3488 41.472 
L 254.25408 41.472 
L 246.15936 41.472 
L 238.06464 41.472 
L 229.96992 41.472 
L 221.8752 41.472 
L 213.78048 41.472 
L 205.68576 41.472 
L 197.59104 41.472 
L 189.49632 41.472 
L 181.4016 41.472 
L 173.30688 41.472 
L 165.21216 41.472 
L 157.11744 41.472 
" clip-path="url(#pb3d4343303)" style="fill: #0000b6"/>
   </g>
   <g id="PathCollection_12">
    <path d="M 319.506432 307.584 
L 319.462361 307.379506 
L 318.715021 304.98592 
L 317.466671 300.406836 
L 316.850777 298.7136 
L 315.597932 294.972553 
L 314.8354 292.44128 
L 314.665691 291.815942 
L 313.935768 289.8432 
L 313.418189 288.45458 
L 313.082603 287.24512 
L 310.877526 281.077549 
L 310.834853 280.9728 
L 308.485597 274.766925 
L 308.45491 274.70048 
L 308.432275 274.648755 
L 307.859539 273.352866 
L 307.426297 272.1024 
L 307.074521 271.046814 
L 306.747885 270.3206 
L 306.381507 269.50432 
L 304.468918 265.036296 
L 303.752943 263.232 
L 303.484282 262.506693 
L 300.993785 256.95968 
L 300.352164 255.482854 
L 299.812391 254.3616 
L 298.951235 252.604456 
L 298.588053 251.76352 
L 298.118248 250.646129 
L 295.554072 245.4912 
L 295.097279 244.513406 
L 292.376189 239.21888 
L 292.374467 239.214492 
L 291.068615 236.6208 
L 290.58986 235.638502 
L 290.205344 234.999274 
L 289.662453 234.02272 
L 286.379553 228.02809 
L 286.207268 227.7504 
L 285.445502 226.449153 
L 282.649372 221.47808 
L 282.297415 220.847929 
L 281.900022 220.054949 
L 281.185881 218.88 
L 279.770954 216.564471 
L 279.567017 216.28192 
L 277.497472 212.76301 
L 275.757545 210.0096 
L 273.655013 206.490365 
L 271.829377 203.73728 
L 270.186167 201.256014 
L 270.110577 201.1392 
L 269.952503 200.916325 
L 268.454457 198.54112 
L 266.92588 196.123519 
L 264.242749 192.2688 
L 263.038744 190.443515 
L 260.042635 186.167711 
L 259.94836 186.028863 
L 259.924442 185.99648 
L 259.897305 185.959892 
L 258.926302 184.558276 
L 258.20972 183.3984 
L 257.628515 182.560699 
L 257.220274 182.052027 
L 256.342426 180.80032 
L 252.932652 175.976054 
L 251.825916 174.528 
L 248.098899 169.396839 
L 247.227279 168.25568 
L 246.932672 167.859083 
L 245.451207 165.6576 
L 244.274127 164.116099 
L 243.478275 163.20032 
L 243.372849 163.05952 
L 241.31569 160.349783 
L 238.651381 156.7872 
L 238.394213 156.426046 
L 233.895572 150.51488 
L 233.491258 149.992685 
L 232.025956 147.9168 
L 230.323362 145.81955 
L 229.865682 145.31872 
L 228.357024 143.313409 
L 225.019721 139.0464 
L 223.604292 137.151618 
L 220.154063 132.77408 
L 219.080695 131.444442 
L 218.753154 130.951046 
L 218.169315 130.176 
L 217.138172 129.000036 
L 215.981839 127.57792 
L 212.911859 123.603585 
L 211.081101 121.3056 
L 208.623179 118.086701 
L 206.19178 115.03328 
L 204.498405 112.974147 
L 204.114125 112.4352 
L 203.670106 111.934815 
L 203.122017 111.271502 
L 202.049699 109.83712 
L 201.090371 108.600544 
L 198.085439 104.872761 
L 197.420579 104.015764 
L 197.062519 103.5648 
L 193.614455 99.052042 
L 192.228179 97.29248 
L 190.447342 95.126075 
L 190.271007 94.886716 
L 190.140692 94.6944 
L 189.95956 94.484133 
L 188.199932 92.09632 
L 186.169296 89.469837 
L 183.272398 85.824 
L 182.019137 84.19027 
L 179.622505 81.117305 
L 178.710492 79.902585 
L 178.441927 79.55168 
L 178.100445 79.129427 
L 176.604156 76.9536 
L 175.68005 75.876404 
L 174.596437 74.35552 
L 171.414616 70.156791 
L 169.817719 68.0832 
L 166.759124 63.990619 
L 165.115942 61.81088 
L 164.830004 61.317178 
L 163.457361 59.2128 
L 162.394832 57.902691 
L 161.701852 57.131909 
L 161.351984 56.61472 
L 156.919276 50.559553 
L 156.759667 50.3424 
L 155.442119 48.506541 
L 152.328144 44.07008 
L 152.088489 43.75467 
L 150.502339 41.472 
L 149.02272 41.472 
L 140.928 41.472 
L 132.83328 41.472 
L 124.73856 41.472 
L 116.64384 41.472 
L 108.54912 41.472 
L 100.4544 41.472 
L 100.4544 50.3424 
L 100.4544 59.2128 
L 100.4544 68.0832 
L 100.4544 76.9536 
L 100.4544 85.824 
L 100.4544 94.6944 
L 100.4544 100.443518 
L 101.221904 101.534324 
L 102.689273 103.5648 
L 105.295034 107.13071 
L 107.32592 109.83712 
L 108.975856 112.241502 
L 109.145737 112.4352 
L 109.409678 112.825812 
L 111.181435 115.03328 
L 112.566302 116.90347 
L 115.902404 121.3056 
L 116.399854 121.951078 
L 117.34624 123.163839 
L 120.019237 126.477154 
L 120.916244 127.57792 
L 121.928651 128.900566 
L 122.560794 129.635371 
L 123.046996 130.176 
L 123.301974 130.532631 
L 123.45325 130.75941 
L 125.194744 132.77408 
L 127.682979 135.819831 
L 130.337977 139.0464 
L 132.060505 141.09082 
L 134.858187 144.403407 
L 135.435934 145.064746 
L 135.657071 145.31872 
L 135.933114 145.649593 
L 137.144815 146.977627 
L 138.038941 147.9168 
L 138.792619 148.886062 
L 140.28726 150.51488 
L 143.417445 154.059202 
L 145.812808 156.7872 
L 148.0761 159.291537 
L 151.345184 162.93141 
L 151.428585 163.021192 
L 151.463668 163.05952 
L 151.511205 163.112898 
L 153.982309 165.6576 
L 154.852426 166.685703 
L 156.358828 168.25568 
L 159.64227 171.761227 
L 162.190343 174.528 
L 164.353118 176.800645 
L 167.229767 179.865693 
L 167.851281 180.506384 
L 168.129406 180.80032 
L 168.529952 181.230125 
L 169.809426 182.530159 
L 170.699425 183.3984 
L 171.185682 183.924986 
L 171.455918 184.238562 
L 173.191373 185.99648 
L 176.207321 189.090423 
L 179.223329 192.2688 
L 180.796879 193.868624 
L 182.787535 195.935371 
L 184.541123 197.698831 
L 185.350272 198.54112 
L 186.559462 199.806143 
L 187.36044 200.608969 
L 187.911509 201.1392 
L 188.384595 201.643819 
L 190.473883 203.73728 
L 192.94961 206.225397 
L 196.580192 210.0096 
L 197.313138 210.744807 
L 198.224049 211.684262 
L 201.325563 214.787614 
L 202.754497 216.28192 
L 204.911621 218.528614 
L 205.266288 218.88 
L 205.393176 219.012806 
L 207.832087 221.47808 
L 209.69813 223.353543 
L 213.717612 227.584079 
L 213.808301 227.676798 
L 213.87767 227.7504 
L 218.024885 231.969673 
L 219.935974 234.02272 
L 222.232571 236.458587 
L 222.386282 236.6208 
L 222.751606 237.018606 
L 224.861471 239.21888 
L 226.273933 240.670957 
L 229.457028 244.134314 
L 230.189475 244.910356 
L 230.713633 245.4912 
L 234.449948 249.452272 
L 236.490169 251.76352 
L 238.61115 254.113536 
L 238.829344 254.3616 
L 239.031556 254.601636 
L 239.331661 254.936708 
L 241.162533 256.95968 
L 242.485697 258.387293 
L 245.758693 262.172014 
L 246.320283 262.806269 
L 246.677415 263.232 
L 250.395457 267.460377 
L 252.052356 269.50432 
L 254.21642 272.085306 
L 254.231115 272.1024 
L 254.237661 272.109853 
L 256.37851 274.70048 
L 258.121204 276.735107 
L 261.452963 280.9728 
L 262.067469 281.717078 
L 263.1647 283.13131 
L 265.629055 286.248613 
L 266.340337 287.24512 
L 267.177509 288.360739 
L 267.782394 289.182577 
L 268.302438 289.8432 
L 268.669865 290.283509 
L 268.876171 290.554629 
L 270.238372 292.44128 
L 272.935402 295.982932 
L 274.799798 298.7136 
L 277.252841 302.114195 
L 279.169087 304.98592 
L 279.920946 306.068796 
L 280.904107 307.584 
L 286.63296 307.584 
L 294.72768 307.584 
L 302.8224 307.584 
L 310.91712 307.584 
L 319.01184 307.584 
" clip-path="url(#pb3d4343303)" style="fill: #0018ff"/>
   </g>
   <g id="PathCollection_13">
    <path d="M 280.904107 307.584 
L 279.920946 306.068796 
L 279.169087 304.98592 
L 277.252841 302.114195 
L 274.799798 298.7136 
L 272.935402 295.982932 
L 270.238372 292.44128 
L 268.876171 290.554629 
L 268.669865 290.283509 
L 268.302438 289.8432 
L 267.782394 289.182577 
L 267.177509 288.360739 
L 266.340337 287.24512 
L 265.629055 286.248613 
L 263.1647 283.13131 
L 262.067469 281.717078 
L 261.452963 280.9728 
L 258.121204 276.735107 
L 256.37851 274.70048 
L 254.237661 272.109853 
L 254.231115 272.1024 
L 254.21642 272.085306 
L 252.052356 269.50432 
L 250.395457 267.460377 
L 246.677415 263.232 
L 246.320283 262.806269 
L 245.758693 262.172014 
L 242.485697 258.387293 
L 241.162533 256.95968 
L 239.331661 254.936708 
L 239.031556 254.601636 
L 238.829344 254.3616 
L 238.61115 254.113536 
L 236.490169 251.76352 
L 234.449948 249.452272 
L 230.713633 245.4912 
L 230.189475 244.910356 
L 229.457028 244.134314 
L 226.273933 240.670957 
L 224.861471 239.21888 
L 222.751606 237.018606 
L 222.386282 236.6208 
L 222.232571 236.458587 
L 219.935974 234.02272 
L 218.024885 231.969673 
L 213.87767 227.7504 
L 213.808301 227.676798 
L 213.717612 227.584079 
L 209.69813 223.353543 
L 207.832087 221.47808 
L 205.393176 219.012806 
L 205.266288 218.88 
L 204.911621 218.528614 
L 202.754497 216.28192 
L 201.325563 214.787614 
L 198.224049 211.684262 
L 197.313138 210.744807 
L 196.580192 210.0096 
L 192.94961 206.225397 
L 190.473883 203.73728 
L 188.384595 201.643819 
L 187.911509 201.1392 
L 187.36044 200.608969 
L 186.559462 199.806143 
L 185.350272 198.54112 
L 184.541123 197.698831 
L 182.787535 195.935371 
L 180.796879 193.868624 
L 179.223329 192.2688 
L 176.207321 189.090423 
L 173.191373 185.99648 
L 171.455918 184.238562 
L 171.185682 183.924986 
L 170.699425 183.3984 
L 169.809426 182.530159 
L 168.529952 181.230125 
L 168.129406 180.80032 
L 167.851281 180.506384 
L 167.229767 179.865693 
L 164.353118 176.800645 
L 162.190343 174.528 
L 159.64227 171.761227 
L 156.358828 168.25568 
L 154.852426 166.685703 
L 153.982309 165.6576 
L 151.511205 163.112898 
L 151.463668 163.05952 
L 151.428585 163.021192 
L 151.345184 162.93141 
L 148.0761 159.291537 
L 145.812808 156.7872 
L 143.417445 154.059202 
L 140.28726 150.51488 
L 138.792619 148.886062 
L 138.038941 147.9168 
L 137.144815 146.977627 
L 135.933114 145.649593 
L 135.657071 145.31872 
L 135.435934 145.064746 
L 134.858187 144.403407 
L 132.060505 141.09082 
L 130.337977 139.0464 
L 127.682979 135.819831 
L 125.194744 132.77408 
L 123.45325 130.75941 
L 123.301974 130.532631 
L 123.046996 130.176 
L 122.560794 129.635371 
L 121.928651 128.900566 
L 120.916244 127.57792 
L 120.019237 126.477154 
L 117.34624 123.163839 
L 116.399854 121.951078 
L 115.902404 121.3056 
L 112.566302 116.90347 
L 111.181435 115.03328 
L 109.409678 112.825812 
L 109.145737 112.4352 
L 108.975856 112.241502 
L 107.32592 109.83712 
L 105.295034 107.13071 
L 102.689273 103.5648 
L 101.221904 101.534324 
L 100.4544 100.443518 
L 100.4544 103.5648 
L 100.4544 112.4352 
L 100.4544 121.3056 
L 100.4544 130.176 
L 100.4544 139.0464 
L 100.4544 147.9168 
L 100.4544 156.7872 
L 100.4544 165.6576 
L 100.4544 172.17913 
L 101.06277 172.918523 
L 102.421104 174.528 
L 105.381244 177.999439 
L 107.827542 180.80032 
L 109.600237 182.921292 
L 110.061115 183.3984 
L 110.995229 184.508703 
L 112.350852 185.99648 
L 113.291783 187.07167 
L 115.694876 189.758261 
L 117.037271 191.227955 
L 117.997505 192.2688 
L 121.411676 195.914484 
L 123.899686 198.54112 
L 125.836524 200.640828 
L 126.346412 201.1392 
L 126.819736 201.655851 
L 127.516065 202.399926 
L 128.828417 203.73728 
L 129.665147 204.61092 
L 131.515505 206.523352 
L 133.420846 208.45516 
L 134.957746 210.0096 
L 138.089209 213.120419 
L 141.276071 216.28192 
L 142.948177 217.96303 
L 143.925967 218.88 
L 144.898222 219.865605 
L 146.410489 221.368533 
L 146.524196 221.47808 
L 146.591733 221.543937 
L 146.726271 221.675015 
L 150.098092 224.905442 
L 153.055928 227.7504 
L 155.238785 229.809078 
L 159.675569 234.02272 
L 160.697282 234.995889 
L 162.472458 236.6208 
L 164.333935 238.41229 
L 165.187591 239.21888 
L 166.96331 240.858434 
L 171.933154 245.4912 
L 172.682409 246.175511 
L 178.713811 251.76352 
L 178.818432 251.859875 
L 181.566998 254.3616 
L 184.162253 256.782764 
L 184.35279 256.95968 
L 190.26511 262.38954 
L 191.158357 263.232 
L 195.932006 267.621068 
L 197.938925 269.50432 
L 198.373884 269.898551 
L 200.734017 272.1024 
L 202.366348 273.6091 
L 203.520365 274.70048 
L 207.793358 278.663241 
L 210.199463 280.9728 
L 212.845089 283.447429 
L 215.781564 286.266782 
L 216.45722 286.909961 
L 216.794309 287.24512 
L 217.36455 287.79579 
L 219.475684 289.8432 
L 220.261386 290.57572 
L 222.152261 292.44128 
L 225.058664 295.225079 
L 228.545782 298.7136 
L 229.586672 299.727505 
L 230.823869 300.972771 
L 233.528876 303.684006 
L 234.758651 304.98592 
L 236.713983 306.970929 
L 237.314541 307.584 
L 238.06464 307.584 
L 246.15936 307.584 
L 254.25408 307.584 
L 262.3488 307.584 
L 270.44352 307.584 
L 278.53824 307.584 
" clip-path="url(#pb3d4343303)" style="fill: #0080ff"/>
   </g>
   <g id="PathCollection_14">
    <path d="M 237.314541 307.584 
L 236.713983 306.970929 
L 234.758651 304.98592 
L 233.528876 303.684006 
L 230.823869 300.972771 
L 229.586672 299.727505 
L 228.545782 298.7136 
L 225.058664 295.225079 
L 222.152261 292.44128 
L 220.261386 290.57572 
L 219.475684 289.8432 
L 217.36455 287.79579 
L 216.794309 287.24512 
L 216.45722 286.909961 
L 215.781564 286.266782 
L 212.845089 283.447429 
L 210.199463 280.9728 
L 207.793358 278.663241 
L 203.520365 274.70048 
L 202.366348 273.6091 
L 200.734017 272.1024 
L 198.373884 269.898551 
L 197.938925 269.50432 
L 195.932006 267.621068 
L 191.158357 263.232 
L 190.26511 262.38954 
L 184.35279 256.95968 
L 184.162253 256.782764 
L 181.566998 254.3616 
L 178.818432 251.859875 
L 178.713811 251.76352 
L 172.682409 246.175511 
L 171.933154 245.4912 
L 166.96331 240.858434 
L 165.187591 239.21888 
L 164.333935 238.41229 
L 162.472458 236.6208 
L 160.697282 234.995889 
L 159.675569 234.02272 
L 155.238785 229.809078 
L 153.055928 227.7504 
L 150.098092 224.905442 
L 146.726271 221.675015 
L 146.591733 221.543937 
L 146.524196 221.47808 
L 146.410489 221.368533 
L 144.898222 219.865605 
L 143.925967 218.88 
L 142.948177 217.96303 
L 141.276071 216.28192 
L 138.089209 213.120419 
L 134.957746 210.0096 
L 133.420846 208.45516 
L 131.515505 206.523352 
L 129.665147 204.61092 
L 128.828417 203.73728 
L 127.516065 202.399926 
L 126.819736 201.655851 
L 126.346412 201.1392 
L 125.836524 200.640828 
L 123.899686 198.54112 
L 121.411676 195.914484 
L 117.997505 192.2688 
L 117.037271 191.227955 
L 115.694876 189.758261 
L 113.291783 187.07167 
L 112.350852 185.99648 
L 110.995229 184.508703 
L 110.061115 183.3984 
L 109.600237 182.921292 
L 107.827542 180.80032 
L 105.381244 177.999439 
L 102.421104 174.528 
L 101.06277 172.918523 
L 100.4544 172.17913 
L 100.4544 174.528 
L 100.4544 183.3984 
L 100.4544 192.2688 
L 100.4544 201.1392 
L 100.4544 210.0096 
L 100.4544 218.88 
L 100.4544 226.852866 
L 100.694662 227.114773 
L 101.291993 227.7504 
L 104.970792 231.671623 
L 107.250979 234.02272 
L 109.366067 236.249983 
L 109.745083 236.6208 
L 110.681242 237.588583 
L 112.292248 239.21888 
L 113.311945 240.271975 
L 115.495691 242.453707 
L 117.162962 244.117832 
L 118.564764 245.4912 
L 121.823135 248.685996 
L 125.039615 251.76352 
L 126.772496 253.438385 
L 127.126569 253.768778 
L 127.766995 254.3616 
L 128.841141 255.380063 
L 130.496365 256.95968 
L 133.975368 260.210541 
L 137.253335 263.232 
L 139.247849 265.073153 
L 144.135388 269.50432 
L 144.97393 270.265929 
L 145.695326 270.918915 
L 147.018426 272.1024 
L 149.363429 274.196489 
L 149.923151 274.70048 
L 151.022179 275.683118 
L 156.996821 280.9728 
L 157.063436 281.031979 
L 157.603768 281.505731 
L 163.163426 286.392842 
L 164.137544 287.24512 
L 164.884545 287.915022 
L 167.071237 289.8432 
L 169.226825 291.69516 
L 170.074702 292.44128 
L 175.064153 296.787936 
L 177.279157 298.7136 
L 180.381974 301.411078 
L 183.41708 304.045667 
L 184.090613 304.637311 
L 184.485365 304.98592 
L 185.26883 305.665118 
L 187.452624 307.584 
L 189.49632 307.584 
L 197.59104 307.584 
L 205.68576 307.584 
L 213.78048 307.584 
L 221.8752 307.584 
L 229.96992 307.584 
" clip-path="url(#pb3d4343303)" style="fill: #00e4f8"/>
   </g>
   <g id="PathCollection_15">
    <path d="M 187.452624 307.584 
L 185.26883 305.665118 
L 184.485365 304.98592 
L 184.090613 304.637311 
L 183.41708 304.045667 
L 180.381974 301.411078 
L 177.279157 298.7136 
L 175.064153 296.787936 
L 170.074702 292.44128 
L 169.226825 291.69516 
L 167.071237 289.8432 
L 164.884545 287.915022 
L 164.137544 287.24512 
L 163.163426 286.392842 
L 157.603768 281.505731 
L 157.063436 281.031979 
L 156.996821 280.9728 
L 151.022179 275.683118 
L 149.923151 274.70048 
L 149.363429 274.196489 
L 147.018426 272.1024 
L 145.695326 270.918915 
L 144.97393 270.265929 
L 144.135388 269.50432 
L 139.247849 265.073153 
L 137.253335 263.232 
L 133.975368 260.210541 
L 130.496365 256.95968 
L 128.841141 255.380063 
L 127.766995 254.3616 
L 127.126569 253.768778 
L 126.772496 253.438385 
L 125.039615 251.76352 
L 121.823135 248.685996 
L 118.564764 245.4912 
L 117.162962 244.117832 
L 115.495691 242.453707 
L 113.311945 240.271975 
L 112.292248 239.21888 
L 110.681242 237.588583 
L 109.745083 236.6208 
L 109.366067 236.249983 
L 107.250979 234.02272 
L 104.970792 231.671623 
L 101.291993 227.7504 
L 100.694662 227.114773 
L 100.4544 226.852866 
L 100.4544 227.7504 
L 100.4544 236.6208 
L 100.4544 245.4912 
L 100.4544 254.3616 
L 100.4544 263.232 
L 100.4544 272.1024 
L 100.4544 279.683339 
L 100.80689 280.040268 
L 101.746663 280.9728 
L 105.265842 284.570699 
L 108.034415 287.24512 
L 110.010845 289.179714 
L 110.250185 289.420912 
L 110.697036 289.8432 
L 111.479447 290.570652 
L 112.654984 291.706875 
L 113.404256 292.44128 
L 113.859545 292.894301 
L 114.764896 293.742748 
L 117.519184 296.397829 
L 120.01484 298.7136 
L 122.532229 301.131353 
L 126.763397 304.98592 
L 127.986743 306.109631 
L 129.619663 307.584 
L 132.83328 307.584 
L 140.928 307.584 
L 149.02272 307.584 
L 157.11744 307.584 
L 165.21216 307.584 
L 173.30688 307.584 
L 181.4016 307.584 
" clip-path="url(#pb3d4343303)" style="fill: #53ffa4"/>
   </g>
   <g id="PathCollection_16">
    <path d="M 129.619663 307.584 
L 127.986743 306.109631 
L 126.763397 304.98592 
L 122.532229 301.131353 
L 120.01484 298.7136 
L 117.519184 296.397829 
L 114.764896 293.742748 
L 113.859545 292.894301 
L 113.404256 292.44128 
L 112.654984 291.706875 
L 111.479447 290.570652 
L 110.697036 289.8432 
L 110.250185 289.420912 
L 110.010845 289.179714 
L 108.034415 287.24512 
L 105.265842 284.570699 
L 101.746663 280.9728 
L 100.80689 280.040268 
L 100.4544 279.683339 
L 100.4544 280.9728 
L 100.4544 289.8432 
L 100.4544 298.7136 
L 100.4544 307.584 
L 108.54912 307.584 
L 116.64384 307.584 
L 124.73856 307.584 
" clip-path="url(#pb3d4343303)" style="fill: #a4ff53"/>
   </g>
   <g id="PathCollection_17">
    <path clip-path="url(#pb3d4343303)" style="fill: #f8f500"/>
   </g>
   <g id="PathCollection_18">
    <path clip-path="url(#pb3d4343303)" style="fill: #ff9400"/>
   </g>
   <g id="PathCollection_19">
    <path clip-path="url(#pb3d4343303)" style="fill: #ff3800"/>
   </g>
   <g id="PathCollection_20">
    <path clip-path="url(#pb3d4343303)" style="fill: #b60000"/>
   </g>
   <g id="matplotlib.axis_1">
    <g id="xtick_1">
     <g id="line2d_1">
      <defs>
       <path id="mf04a1b7cc4" d="M 0 0 
L 0 3.5 
" style="stroke: #000000; stroke-width: 0.8"/>
      </defs>
      <g>
       <use xlink:href="#mf04a1b7cc4" x="57.6" y="307.584" style="stroke: #000000; stroke-width: 0.8"/>
      </g>
     </g>
     <g id="text_1">
      <!-- 0.0 -->
      <g transform="translate(51.26875 321.385562) scale(0.1 -0.1)">
       <defs>
        <path id="Calibri-30" d="M 3022 2031 
Q 3022 1566 2948 1181 
Q 2875 797 2704 520 
Q 2534 244 2259 92 
Q 1984 -59 1581 -59 
Q 1200 -59 939 77 
Q 678 213 518 477 
Q 359 741 292 1127 
Q 225 1513 225 2013 
Q 225 2475 300 2861 
Q 375 3247 544 3523 
Q 713 3800 988 3951 
Q 1263 4103 1663 4103 
Q 2047 4103 2308 3967 
Q 2569 3831 2728 3567 
Q 2888 3303 2955 2917 
Q 3022 2531 3022 2031 
z
M 2472 1994 
Q 2472 2297 2450 2537 
Q 2428 2778 2386 2962 
Q 2344 3147 2276 3280 
Q 2209 3413 2115 3498 
Q 2022 3584 1901 3623 
Q 1781 3663 1631 3663 
Q 1366 3663 1200 3538 
Q 1034 3413 939 3194 
Q 844 2975 809 2681 
Q 775 2388 775 2050 
Q 775 1597 822 1280 
Q 869 963 970 763 
Q 1072 563 1230 472 
Q 1388 381 1613 381 
Q 1788 381 1920 437 
Q 2053 494 2148 598 
Q 2244 703 2306 850 
Q 2369 997 2406 1175 
Q 2444 1353 2458 1561 
Q 2472 1769 2472 1994 
z
" transform="scale(0.015625)"/>
        <path id="Calibri-2e" d="M 1144 341 
Q 1144 119 1070 45 
Q 997 -28 803 -28 
Q 616 -28 544 44 
Q 472 116 472 331 
Q 472 553 545 626 
Q 619 700 813 700 
Q 1000 700 1072 628 
Q 1144 556 1144 341 
z
" transform="scale(0.015625)"/>
       </defs>
       <use xlink:href="#Calibri-30"/>
       <use xlink:href="#Calibri-2e" x="50.683594"/>
       <use xlink:href="#Calibri-30" x="75.927734"/>
      </g>
     </g>
    </g>
    <g id="xtick_2">
     <g id="line2d_2">
      <g>
       <use xlink:href="#mf04a1b7cc4" x="86.1696" y="307.584" style="stroke: #000000; stroke-width: 0.8"/>
      </g>
     </g>
     <g id="text_2">
      <!-- 0.1 -->
      <g transform="translate(79.83835 321.385562) scale(0.1 -0.1)">
       <defs>
        <path id="Calibri-31" d="M 2897 213 
Q 2897 153 2887 112 
Q 2878 72 2862 47 
Q 2847 22 2826 11 
Q 2806 0 2784 0 
L 672 0 
Q 650 0 631 11 
Q 613 22 595 47 
Q 578 72 568 112 
Q 559 153 559 213 
Q 559 269 568 309 
Q 578 350 592 376 
Q 606 403 626 417 
Q 647 431 672 431 
L 1516 431 
L 1516 3506 
L 734 3041 
Q 675 3009 639 3003 
Q 603 2997 581 3017 
Q 559 3038 551 3084 
Q 544 3131 544 3203 
Q 544 3256 548 3293 
Q 553 3331 562 3356 
Q 572 3381 589 3400 
Q 606 3419 634 3438 
L 1566 4034 
Q 1578 4044 1597 4050 
Q 1616 4056 1644 4062 
Q 1672 4069 1709 4070 
Q 1747 4072 1803 4072 
Q 1878 4072 1928 4065 
Q 1978 4059 2006 4048 
Q 2034 4038 2043 4020 
Q 2053 4003 2053 3984 
L 2053 431 
L 2784 431 
Q 2809 431 2831 417 
Q 2853 403 2867 376 
Q 2881 350 2889 309 
Q 2897 269 2897 213 
z
" transform="scale(0.015625)"/>
       </defs>
       <use xlink:href="#Calibri-30"/>
       <use xlink:href="#Calibri-2e" x="50.683594"/>
       <use xlink:href="#Calibri-31" x="75.927734"/>
      </g>
     </g>
    </g>
    <g id="xtick_3">
     <g id="line2d_3">
      <g>
       <use xlink:href="#mf04a1b7cc4" x="114.7392" y="307.584" style="stroke: #000000; stroke-width: 0.8"/>
      </g>
     </g>
     <g id="text_3">
      <!-- 0.2 -->
      <g transform="translate(108.40795 321.385562) scale(0.1 -0.1)">
       <defs>
        <path id="Calibri-32" d="M 2888 231 
Q 2888 175 2880 131 
Q 2872 88 2858 58 
Q 2844 28 2820 14 
Q 2797 0 2769 0 
L 534 0 
Q 491 0 458 11 
Q 425 22 401 47 
Q 378 72 367 119 
Q 356 166 356 234 
Q 356 297 361 344 
Q 366 391 381 427 
Q 397 463 420 498 
Q 444 534 481 575 
L 1266 1406 
Q 1538 1694 1702 1922 
Q 1866 2150 1955 2337 
Q 2044 2525 2072 2678 
Q 2100 2831 2100 2966 
Q 2100 3100 2056 3220 
Q 2013 3341 1930 3431 
Q 1847 3522 1722 3575 
Q 1597 3628 1434 3628 
Q 1244 3628 1092 3575 
Q 941 3522 827 3459 
Q 713 3397 636 3344 
Q 559 3291 522 3291 
Q 500 3291 483 3303 
Q 466 3316 455 3344 
Q 444 3372 437 3419 
Q 431 3466 431 3531 
Q 431 3578 434 3612 
Q 438 3647 445 3672 
Q 453 3697 465 3719 
Q 478 3741 515 3773 
Q 553 3806 645 3862 
Q 738 3919 877 3973 
Q 1016 4028 1183 4065 
Q 1350 4103 1534 4103 
Q 1828 4103 2048 4020 
Q 2269 3938 2414 3794 
Q 2559 3650 2631 3459 
Q 2703 3269 2703 3053 
Q 2703 2859 2668 2667 
Q 2634 2475 2523 2251 
Q 2413 2028 2203 1754 
Q 1994 1481 1647 1125 
L 1006 456 
L 2766 456 
Q 2791 456 2814 442 
Q 2838 428 2855 400 
Q 2872 372 2880 330 
Q 2888 288 2888 231 
z
" transform="scale(0.015625)"/>
       </defs>
       <use xlink:href="#Calibri-30"/>
       <use xlink:href="#Calibri-2e" x="50.683594"/>
       <use xlink:href="#Calibri-32" x="75.927734"/>
      </g>
     </g>
    </g>
    <g id="xtick_4">
     <g id="line2d_4">
      <g>
       <use xlink:href="#mf04a1b7cc4" x="143.3088" y="307.584" style="stroke: #000000; stroke-width: 0.8"/>
      </g>
     </g>
     <g id="text_4">
      <!-- 0.3 -->
      <g transform="translate(136.97755 321.385562) scale(0.1 -0.1)">
       <defs>
        <path id="Calibri-33" d="M 2856 1156 
Q 2856 878 2759 654 
Q 2663 431 2481 272 
Q 2300 113 2034 27 
Q 1769 -59 1434 -59 
Q 1231 -59 1054 -26 
Q 878 6 740 51 
Q 603 97 512 145 
Q 422 194 398 216 
Q 375 238 362 259 
Q 350 281 340 312 
Q 331 344 326 389 
Q 322 434 322 500 
Q 322 613 344 656 
Q 366 700 406 700 
Q 434 700 517 650 
Q 600 600 729 542 
Q 859 484 1032 434 
Q 1206 384 1419 384 
Q 1625 384 1781 437 
Q 1938 491 2044 587 
Q 2150 684 2203 817 
Q 2256 950 2256 1106 
Q 2256 1278 2189 1415 
Q 2122 1553 1992 1653 
Q 1863 1753 1673 1806 
Q 1484 1859 1244 1859 
L 859 1859 
Q 834 1859 811 1870 
Q 788 1881 770 1906 
Q 753 1931 742 1972 
Q 731 2013 731 2078 
Q 731 2138 740 2177 
Q 750 2216 767 2239 
Q 784 2263 806 2273 
Q 828 2284 856 2284 
L 1209 2284 
Q 1416 2284 1580 2337 
Q 1744 2391 1858 2491 
Q 1972 2591 2033 2730 
Q 2094 2869 2094 3041 
Q 2094 3166 2053 3280 
Q 2013 3394 1931 3478 
Q 1850 3563 1723 3611 
Q 1597 3659 1431 3659 
Q 1250 3659 1098 3604 
Q 947 3550 828 3487 
Q 709 3425 631 3370 
Q 553 3316 522 3316 
Q 500 3316 483 3323 
Q 466 3331 455 3354 
Q 444 3378 439 3420 
Q 434 3463 434 3531 
Q 434 3578 437 3614 
Q 441 3650 450 3676 
Q 459 3703 471 3725 
Q 484 3747 514 3776 
Q 544 3806 634 3862 
Q 725 3919 858 3973 
Q 991 4028 1164 4065 
Q 1338 4103 1538 4103 
Q 1819 4103 2031 4031 
Q 2244 3959 2386 3828 
Q 2528 3697 2598 3514 
Q 2669 3331 2669 3109 
Q 2669 2919 2619 2755 
Q 2569 2591 2472 2464 
Q 2375 2338 2234 2248 
Q 2094 2159 1909 2125 
L 1909 2119 
Q 2119 2097 2292 2014 
Q 2466 1931 2591 1806 
Q 2716 1681 2786 1514 
Q 2856 1347 2856 1156 
z
" transform="scale(0.015625)"/>
       </defs>
       <use xlink:href="#Calibri-30"/>
       <use xlink:href="#Calibri-2e" x="50.683594"/>
       <use xlink:href="#Calibri-33" x="75.927734"/>
      </g>
     </g>
    </g>
    <g id="xtick_5">
     <g id="line2d_5">
      <g>
       <use xlink:href="#mf04a1b7cc4" x="171.8784" y="307.584" style="stroke: #000000; stroke-width: 0.8"/>
      </g>
     </g>
     <g id="text_5">
      <!-- 0.4 -->
      <g transform="translate(165.54715 321.385562) scale(0.1 -0.1)">
       <defs>
        <path id="Calibri-34" d="M 3059 1150 
Q 3059 1047 3028 987 
Q 2997 928 2941 928 
L 2484 928 
L 2484 78 
Q 2484 53 2471 36 
Q 2459 19 2428 6 
Q 2397 -6 2347 -12 
Q 2297 -19 2219 -19 
Q 2144 -19 2094 -12 
Q 2044 -6 2014 6 
Q 1984 19 1973 36 
Q 1963 53 1963 78 
L 1963 928 
L 294 928 
Q 256 928 231 937 
Q 206 947 186 972 
Q 166 997 158 1044 
Q 150 1091 150 1166 
Q 150 1225 153 1272 
Q 156 1319 165 1358 
Q 175 1397 190 1433 
Q 206 1469 228 1509 
L 1684 3966 
Q 1700 3991 1729 4009 
Q 1759 4028 1806 4040 
Q 1853 4053 1922 4058 
Q 1991 4063 2084 4063 
Q 2188 4063 2264 4055 
Q 2341 4047 2387 4034 
Q 2434 4022 2459 4001 
Q 2484 3981 2484 3953 
L 2484 1372 
L 2941 1372 
Q 2994 1372 3026 1317 
Q 3059 1263 3059 1150 
z
M 1963 3591 
L 1956 3591 
L 641 1372 
L 1963 1372 
L 1963 3591 
z
" transform="scale(0.015625)"/>
       </defs>
       <use xlink:href="#Calibri-30"/>
       <use xlink:href="#Calibri-2e" x="50.683594"/>
       <use xlink:href="#Calibri-34" x="75.927734"/>
      </g>
     </g>
    </g>
    <g id="xtick_6">
     <g id="line2d_6">
      <g>
       <use xlink:href="#mf04a1b7cc4" x="200.448" y="307.584" style="stroke: #000000; stroke-width: 0.8"/>
      </g>
     </g>
     <g id="text_6">
      <!-- 0.5 -->
      <g transform="translate(194.11675 321.385562) scale(0.1 -0.1)">
       <defs>
        <path id="Calibri-35" d="M 2869 1300 
Q 2869 975 2759 722 
Q 2650 469 2450 295 
Q 2250 122 1973 31 
Q 1697 -59 1359 -59 
Q 1172 -59 1003 -32 
Q 834 -6 703 33 
Q 572 72 487 109 
Q 403 147 379 169 
Q 356 191 347 209 
Q 338 228 330 254 
Q 322 281 319 322 
Q 316 363 316 419 
Q 316 472 320 514 
Q 325 556 337 582 
Q 350 609 367 621 
Q 384 634 406 634 
Q 438 634 503 595 
Q 569 556 680 511 
Q 791 466 955 425 
Q 1119 384 1344 384 
Q 1553 384 1728 434 
Q 1903 484 2029 590 
Q 2156 697 2228 858 
Q 2300 1019 2300 1250 
Q 2300 1444 2239 1592 
Q 2178 1741 2051 1839 
Q 1925 1938 1731 1986 
Q 1538 2034 1269 2034 
Q 1078 2034 940 2015 
Q 803 1997 684 1997 
Q 597 1997 559 2037 
Q 522 2078 522 2194 
L 522 3841 
Q 522 3944 570 3994 
Q 619 4044 709 4044 
L 2500 4044 
Q 2525 4044 2548 4030 
Q 2572 4016 2587 3987 
Q 2603 3959 2611 3915 
Q 2619 3872 2619 3813 
Q 2619 3700 2587 3637 
Q 2556 3575 2500 3575 
L 991 3575 
L 991 2441 
Q 1100 2456 1214 2459 
Q 1328 2463 1478 2463 
Q 1825 2463 2084 2380 
Q 2344 2297 2517 2145 
Q 2691 1994 2780 1778 
Q 2869 1563 2869 1300 
z
" transform="scale(0.015625)"/>
       </defs>
       <use xlink:href="#Calibri-30"/>
       <use xlink:href="#Calibri-2e" x="50.683594"/>
       <use xlink:href="#Calibri-35" x="75.927734"/>
      </g>
     </g>
    </g>
    <g id="xtick_7">
     <g id="line2d_7">
      <g>
       <use xlink:href="#mf04a1b7cc4" x="229.0176" y="307.584" style="stroke: #000000; stroke-width: 0.8"/>
      </g>
     </g>
     <g id="text_7">
      <!-- 0.6 -->
      <g transform="translate(222.68635 321.385562) scale(0.1 -0.1)">
       <defs>
        <path id="Calibri-36" d="M 2991 1309 
Q 2991 1044 2909 795 
Q 2828 547 2659 358 
Q 2491 169 2231 55 
Q 1972 -59 1619 -59 
Q 1366 -59 1172 3 
Q 978 66 834 181 
Q 691 297 595 465 
Q 500 634 442 850 
Q 384 1066 359 1322 
Q 334 1578 334 1872 
Q 334 2131 362 2397 
Q 391 2663 462 2909 
Q 534 3156 657 3373 
Q 781 3591 967 3752 
Q 1153 3913 1412 4006 
Q 1672 4100 2016 4100 
Q 2131 4100 2250 4086 
Q 2369 4072 2469 4048 
Q 2569 4025 2637 3997 
Q 2706 3969 2728 3951 
Q 2750 3934 2761 3914 
Q 2772 3894 2778 3870 
Q 2784 3847 2787 3817 
Q 2791 3788 2791 3744 
Q 2791 3688 2789 3647 
Q 2788 3606 2777 3581 
Q 2766 3556 2748 3543 
Q 2731 3531 2703 3531 
Q 2669 3531 2609 3553 
Q 2550 3575 2465 3601 
Q 2381 3628 2261 3650 
Q 2141 3672 1981 3672 
Q 1691 3672 1481 3553 
Q 1272 3434 1139 3234 
Q 1006 3034 942 2770 
Q 878 2506 869 2219 
Q 950 2266 1051 2312 
Q 1153 2359 1273 2396 
Q 1394 2434 1528 2457 
Q 1663 2481 1816 2481 
Q 2144 2481 2369 2392 
Q 2594 2303 2733 2145 
Q 2872 1988 2931 1773 
Q 2991 1559 2991 1309 
z
M 2447 1259 
Q 2447 1441 2411 1589 
Q 2375 1738 2290 1841 
Q 2206 1944 2065 2000 
Q 1925 2056 1719 2056 
Q 1603 2056 1487 2036 
Q 1372 2016 1264 1980 
Q 1156 1944 1057 1895 
Q 959 1847 878 1791 
Q 878 1388 929 1116 
Q 981 844 1079 680 
Q 1178 516 1325 445 
Q 1472 375 1669 375 
Q 1869 375 2016 450 
Q 2163 525 2259 651 
Q 2356 778 2401 936 
Q 2447 1094 2447 1259 
z
" transform="scale(0.015625)"/>
       </defs>
       <use xlink:href="#Calibri-30"/>
       <use xlink:href="#Calibri-2e" x="50.683594"/>
       <use xlink:href="#Calibri-36" x="75.927734"/>
      </g>
     </g>
    </g>
    <g id="xtick_8">
     <g id="line2d_8">
      <g>
       <use xlink:href="#mf04a1b7cc4" x="257.5872" y="307.584" style="stroke: #000000; stroke-width: 0.8"/>
      </g>
     </g>
     <g id="text_8">
      <!-- 0.7 -->
      <g transform="translate(251.25595 321.385562) scale(0.1 -0.1)">
       <defs>
        <path id="Calibri-37" d="M 2947 3813 
Q 2947 3756 2942 3711 
Q 2938 3666 2930 3623 
Q 2922 3581 2908 3542 
Q 2894 3503 2875 3459 
L 1419 103 
Q 1403 66 1379 42 
Q 1356 19 1320 5 
Q 1284 -9 1228 -14 
Q 1172 -19 1091 -19 
Q 984 -19 925 -9 
Q 866 0 839 20 
Q 813 41 816 70 
Q 819 100 838 141 
L 2369 3572 
L 428 3572 
Q 369 3572 339 3634 
Q 309 3697 309 3809 
Q 309 3869 317 3912 
Q 325 3956 340 3986 
Q 356 4016 378 4030 
Q 400 4044 428 4044 
L 2784 4044 
Q 2828 4044 2861 4034 
Q 2894 4025 2911 3997 
Q 2928 3969 2937 3925 
Q 2947 3881 2947 3813 
z
" transform="scale(0.015625)"/>
       </defs>
       <use xlink:href="#Calibri-30"/>
       <use xlink:href="#Calibri-2e" x="50.683594"/>
       <use xlink:href="#Calibri-37" x="75.927734"/>
      </g>
     </g>
    </g>
    <g id="xtick_9">
     <g id="line2d_9">
      <g>
       <use xlink:href="#mf04a1b7cc4" x="286.1568" y="307.584" style="stroke: #000000; stroke-width: 0.8"/>
      </g>
     </g>
     <g id="text_9">
      <!-- 0.8 -->
      <g transform="translate(279.82555 321.385562) scale(0.1 -0.1)">
       <defs>
        <path id="Calibri-38" d="M 2981 1038 
Q 2981 775 2887 570 
Q 2794 366 2617 225 
Q 2441 84 2181 12 
Q 1922 -59 1588 -59 
Q 1275 -59 1028 6 
Q 781 72 609 200 
Q 438 328 347 515 
Q 256 703 256 944 
Q 256 1134 318 1293 
Q 381 1453 498 1587 
Q 616 1722 787 1839 
Q 959 1956 1175 2063 
Q 988 2159 844 2267 
Q 700 2375 600 2501 
Q 500 2628 448 2772 
Q 397 2916 397 3084 
Q 397 3297 473 3483 
Q 550 3669 704 3806 
Q 859 3944 1098 4023 
Q 1338 4103 1656 4103 
Q 1963 4103 2186 4029 
Q 2409 3956 2554 3829 
Q 2700 3703 2769 3531 
Q 2838 3359 2838 3163 
Q 2838 3003 2786 2856 
Q 2734 2709 2634 2578 
Q 2534 2447 2389 2333 
Q 2244 2219 2056 2119 
Q 2278 2009 2451 1893 
Q 2625 1778 2742 1645 
Q 2859 1513 2920 1364 
Q 2981 1216 2981 1038 
z
M 2306 3113 
Q 2306 3244 2261 3350 
Q 2216 3456 2128 3531 
Q 2041 3606 1911 3645 
Q 1781 3684 1616 3684 
Q 1278 3684 1104 3531 
Q 931 3378 931 3113 
Q 931 2991 973 2886 
Q 1016 2781 1105 2687 
Q 1194 2594 1330 2505 
Q 1466 2416 1653 2319 
Q 1969 2481 2137 2678 
Q 2306 2875 2306 3113 
z
M 2438 981 
Q 2438 1125 2384 1242 
Q 2331 1359 2223 1461 
Q 2116 1563 1955 1658 
Q 1794 1753 1581 1856 
Q 1384 1759 1236 1662 
Q 1088 1566 992 1462 
Q 897 1359 848 1245 
Q 800 1131 800 994 
Q 800 691 1008 525 
Q 1216 359 1628 359 
Q 2028 359 2233 526 
Q 2438 694 2438 981 
z
" transform="scale(0.015625)"/>
       </defs>
       <use xlink:href="#Calibri-30"/>
       <use xlink:href="#Calibri-2e" x="50.683594"/>
       <use xlink:href="#Calibri-38" x="75.927734"/>
      </g>
     </g>
    </g>
    <g id="xtick_10">
     <g id="line2d_10">
      <g>
       <use xlink:href="#mf04a1b7cc4" x="314.7264" y="307.584" style="stroke: #000000; stroke-width: 0.8"/>
      </g>
     </g>
     <g id="text_10">
      <!-- 0.9 -->
      <g transform="translate(308.39515 321.385562) scale(0.1 -0.1)">
       <defs>
        <path id="Calibri-39" d="M 2919 2181 
Q 2919 1919 2887 1650 
Q 2856 1381 2781 1132 
Q 2706 884 2579 667 
Q 2453 450 2261 287 
Q 2069 125 1805 33 
Q 1541 -59 1191 -59 
Q 1056 -59 929 -42 
Q 803 -25 701 0 
Q 600 25 531 53 
Q 463 81 431 109 
Q 400 138 386 186 
Q 372 234 372 316 
Q 372 384 376 425 
Q 381 466 390 487 
Q 400 509 417 517 
Q 434 525 459 525 
Q 494 525 556 501 
Q 619 478 714 450 
Q 809 422 937 398 
Q 1066 375 1225 375 
Q 1528 375 1745 492 
Q 1963 609 2100 806 
Q 2238 1003 2306 1262 
Q 2375 1522 2381 1809 
Q 2216 1713 1984 1638 
Q 1753 1563 1453 1563 
Q 1116 1563 886 1655 
Q 656 1747 517 1906 
Q 378 2066 317 2284 
Q 256 2503 256 2763 
Q 256 3031 334 3273 
Q 413 3516 578 3700 
Q 744 3884 1000 3993 
Q 1256 4103 1613 4103 
Q 1866 4103 2061 4039 
Q 2256 3975 2400 3854 
Q 2544 3734 2644 3564 
Q 2744 3394 2805 3178 
Q 2866 2963 2892 2711 
Q 2919 2459 2919 2181 
z
M 2372 2241 
Q 2372 2641 2319 2914 
Q 2266 3188 2162 3356 
Q 2059 3525 1909 3600 
Q 1759 3675 1563 3675 
Q 1359 3675 1215 3601 
Q 1072 3528 980 3404 
Q 888 3281 844 3125 
Q 800 2969 800 2803 
Q 800 2619 839 2466 
Q 878 2313 965 2206 
Q 1053 2100 1193 2042 
Q 1334 1984 1541 1984 
Q 1775 1984 1994 2054 
Q 2213 2125 2372 2241 
z
" transform="scale(0.015625)"/>
       </defs>
       <use xlink:href="#Calibri-30"/>
       <use xlink:href="#Calibri-2e" x="50.683594"/>
       <use xlink:href="#Calibri-39" x="75.927734"/>
      </g>
     </g>
    </g>
    <g id="xtick_11">
     <g id="line2d_11">
      <g>
       <use xlink:href="#mf04a1b7cc4" x="343.296" y="307.584" style="stroke: #000000; stroke-width: 0.8"/>
      </g>
     </g>
     <g id="text_11">
      <!-- 1.0 -->
      <g transform="translate(336.96475 321.385562) scale(0.1 -0.1)">
       <use xlink:href="#Calibri-31"/>
       <use xlink:href="#Calibri-2e" x="50.683594"/>
       <use xlink:href="#Calibri-30" x="75.927734"/>
      </g>
     </g>
    </g>
    <g id="text_12">
     <!-- $\mathit{p}$ (cm$^2$/cm$^2$) -->
     <g transform="translate(174.148 336.263687) scale(0.1 -0.1)">
      <defs>
       <path id="DejaVuSans-Oblique-70" d="M 3175 2156 
Q 3175 2616 2975 2859 
Q 2775 3103 2400 3103 
Q 2144 3103 1911 2972 
Q 1678 2841 1497 2591 
Q 1319 2344 1212 1994 
Q 1106 1644 1106 1300 
Q 1106 863 1306 627 
Q 1506 391 1875 391 
Q 2147 391 2380 519 
Q 2613 647 2778 891 
Q 2956 1147 3065 1494 
Q 3175 1841 3175 2156 
z
M 1394 2969 
Q 1625 3272 1939 3428 
Q 2253 3584 2638 3584 
Q 3175 3584 3472 3232 
Q 3769 2881 3769 2247 
Q 3769 1728 3584 1258 
Q 3400 788 3053 416 
Q 2822 169 2531 39 
Q 2241 -91 1919 -91 
Q 1547 -91 1294 64 
Q 1041 219 916 525 
L 556 -1331 
L -19 -1331 
L 922 3500 
L 1497 3500 
L 1394 2969 
z
" transform="scale(0.015625)"/>
       <path id="Calibri-20" transform="scale(0.015625)"/>
       <path id="Calibri-28" d="M 1547 4306 
Q 1250 3678 1104 3017 
Q 959 2356 959 1688 
Q 959 1016 1107 356 
Q 1256 -303 1541 -938 
Q 1556 -975 1557 -1001 
Q 1559 -1028 1537 -1045 
Q 1516 -1063 1470 -1070 
Q 1425 -1078 1347 -1078 
Q 1291 -1078 1250 -1075 
Q 1209 -1072 1179 -1062 
Q 1150 -1053 1131 -1040 
Q 1113 -1028 1103 -1013 
Q 934 -694 806 -367 
Q 678 -41 590 296 
Q 503 634 459 979 
Q 416 1325 416 1678 
Q 416 2031 464 2375 
Q 513 2719 602 3058 
Q 691 3397 819 3725 
Q 947 4053 1106 4375 
Q 1109 4388 1123 4397 
Q 1138 4406 1163 4415 
Q 1188 4425 1231 4429 
Q 1275 4434 1344 4434 
Q 1416 4434 1459 4425 
Q 1503 4416 1528 4400 
Q 1553 4384 1556 4359 
Q 1559 4334 1547 4306 
z
" transform="scale(0.015625)"/>
       <path id="Calibri-63" d="M 2500 506 
Q 2500 453 2497 414 
Q 2494 375 2486 348 
Q 2478 322 2467 301 
Q 2456 281 2417 242 
Q 2378 203 2284 145 
Q 2191 88 2073 42 
Q 1956 -3 1818 -31 
Q 1681 -59 1534 -59 
Q 1231 -59 997 41 
Q 763 141 605 333 
Q 447 525 364 804 
Q 281 1084 281 1450 
Q 281 1866 382 2164 
Q 484 2463 661 2653 
Q 838 2844 1077 2936 
Q 1316 3028 1594 3028 
Q 1728 3028 1854 3003 
Q 1981 2978 2087 2937 
Q 2194 2897 2276 2844 
Q 2359 2791 2396 2753 
Q 2434 2716 2448 2694 
Q 2463 2672 2472 2642 
Q 2481 2613 2484 2575 
Q 2488 2538 2488 2481 
Q 2488 2359 2459 2311 
Q 2431 2263 2391 2263 
Q 2344 2263 2283 2314 
Q 2222 2366 2128 2428 
Q 2034 2491 1901 2542 
Q 1769 2594 1588 2594 
Q 1216 2594 1017 2308 
Q 819 2022 819 1478 
Q 819 1206 870 1001 
Q 922 797 1022 659 
Q 1122 522 1267 455 
Q 1413 388 1600 388 
Q 1778 388 1912 444 
Q 2047 500 2145 567 
Q 2244 634 2311 689 
Q 2378 744 2416 744 
Q 2438 744 2453 731 
Q 2469 719 2480 689 
Q 2491 659 2495 614 
Q 2500 569 2500 506 
z
" transform="scale(0.015625)"/>
       <path id="Calibri-6d" d="M 4650 78 
Q 4650 53 4637 36 
Q 4625 19 4597 6 
Q 4569 -6 4519 -12 
Q 4469 -19 4394 -19 
Q 4316 -19 4266 -12 
Q 4216 -6 4186 6 
Q 4156 19 4143 36 
Q 4131 53 4131 78 
L 4131 1788 
Q 4131 1966 4100 2112 
Q 4069 2259 4000 2365 
Q 3931 2472 3825 2528 
Q 3719 2584 3575 2584 
Q 3397 2584 3217 2446 
Q 3038 2309 2822 2044 
L 2822 78 
Q 2822 53 2809 36 
Q 2797 19 2767 6 
Q 2738 -6 2688 -12 
Q 2638 -19 2563 -19 
Q 2491 -19 2439 -12 
Q 2388 -6 2358 6 
Q 2328 19 2317 36 
Q 2306 53 2306 78 
L 2306 1788 
Q 2306 1966 2272 2112 
Q 2238 2259 2169 2365 
Q 2100 2472 1995 2528 
Q 1891 2584 1747 2584 
Q 1569 2584 1387 2446 
Q 1206 2309 994 2044 
L 994 78 
Q 994 53 981 36 
Q 969 19 941 6 
Q 913 -6 863 -12 
Q 813 -19 734 -19 
Q 659 -19 609 -12 
Q 559 -6 529 6 
Q 500 19 489 36 
Q 478 53 478 78 
L 478 2891 
Q 478 2916 487 2933 
Q 497 2950 525 2964 
Q 553 2978 597 2983 
Q 641 2988 713 2988 
Q 781 2988 826 2983 
Q 872 2978 897 2964 
Q 922 2950 933 2933 
Q 944 2916 944 2891 
L 944 2519 
Q 1181 2784 1404 2907 
Q 1628 3031 1856 3031 
Q 2031 3031 2170 2990 
Q 2309 2950 2415 2876 
Q 2522 2803 2597 2701 
Q 2672 2600 2722 2475 
Q 2863 2628 2989 2734 
Q 3116 2841 3233 2906 
Q 3350 2972 3461 3001 
Q 3572 3031 3684 3031 
Q 3956 3031 4140 2936 
Q 4325 2841 4439 2681 
Q 4553 2522 4601 2308 
Q 4650 2094 4650 1856 
L 4650 78 
z
" transform="scale(0.015625)"/>
       <path id="DejaVuSans-32" d="M 1228 531 
L 3431 531 
L 3431 0 
L 469 0 
L 469 531 
Q 828 903 1448 1529 
Q 2069 2156 2228 2338 
Q 2531 2678 2651 2914 
Q 2772 3150 2772 3378 
Q 2772 3750 2511 3984 
Q 2250 4219 1831 4219 
Q 1534 4219 1204 4116 
Q 875 4013 500 3803 
L 500 4441 
Q 881 4594 1212 4672 
Q 1544 4750 1819 4750 
Q 2544 4750 2975 4387 
Q 3406 4025 3406 3419 
Q 3406 3131 3298 2873 
Q 3191 2616 2906 2266 
Q 2828 2175 2409 1742 
Q 1991 1309 1228 531 
z
" transform="scale(0.015625)"/>
       <path id="Calibri-2f" d="M 525 -753 
Q 513 -794 492 -817 
Q 472 -841 440 -853 
Q 409 -866 364 -872 
Q 319 -878 253 -878 
Q 175 -878 123 -867 
Q 72 -856 44 -836 
Q 16 -816 9 -786 
Q 3 -756 22 -716 
L 1913 4469 
Q 1925 4509 1945 4532 
Q 1966 4556 1995 4570 
Q 2025 4584 2072 4589 
Q 2119 4594 2184 4594 
Q 2263 4594 2313 4583 
Q 2363 4572 2391 4553 
Q 2419 4534 2425 4503 
Q 2431 4472 2416 4431 
L 525 -753 
z
" transform="scale(0.015625)"/>
       <path id="Calibri-29" d="M 1522 1678 
Q 1522 1325 1478 979 
Q 1434 634 1346 296 
Q 1259 -41 1132 -367 
Q 1006 -694 838 -1013 
Q 828 -1028 809 -1040 
Q 791 -1053 761 -1062 
Q 731 -1072 690 -1075 
Q 650 -1078 594 -1078 
Q 513 -1078 467 -1070 
Q 422 -1063 401 -1045 
Q 381 -1028 382 -1001 
Q 384 -975 400 -938 
Q 688 -306 834 355 
Q 981 1016 981 1688 
Q 981 2356 834 3017 
Q 688 3678 394 4306 
Q 381 4334 384 4359 
Q 388 4384 413 4400 
Q 438 4416 481 4425 
Q 525 4434 597 4434 
Q 663 4434 706 4429 
Q 750 4425 776 4415 
Q 803 4406 815 4397 
Q 828 4388 834 4375 
Q 1156 3734 1339 3057 
Q 1522 2381 1522 1678 
z
" transform="scale(0.015625)"/>
      </defs>
      <use xlink:href="#DejaVuSans-Oblique-70" transform="translate(0 0.765625)"/>
      <use xlink:href="#Calibri-20" transform="translate(63.476562 0.765625)"/>
      <use xlink:href="#Calibri-28" transform="translate(84.958984 0.765625)"/>
      <use xlink:href="#Calibri-63" transform="translate(115.28125 0.765625)"/>
      <use xlink:href="#Calibri-6d" transform="translate(157.566406 0.765625)"/>
      <use xlink:href="#DejaVuSans-32" transform="translate(238.40625 39.046875) scale(0.7)"/>
      <use xlink:href="#Calibri-2f" transform="translate(285.676758 0.765625)"/>
      <use xlink:href="#Calibri-63" transform="translate(324.299805 0.765625)"/>
      <use xlink:href="#Calibri-6d" transform="translate(366.584961 0.765625)"/>
      <use xlink:href="#DejaVuSans-32" transform="translate(447.424805 39.046875) scale(0.7)"/>
      <use xlink:href="#Calibri-29" transform="translate(494.695312 0.765625)"/>
     </g>
    </g>
   </g>
   <g id="matplotlib.axis_2">
    <g id="ytick_1">
     <g id="line2d_12">
      <defs>
       <path id="m87d3e946a4" d="M 0 0 
L -3.5 0 
" style="stroke: #000000; stroke-width: 0.8"/>
      </defs>
      <g>
       <use xlink:href="#m87d3e946a4" x="57.6" y="275.65056" style="stroke: #000000; stroke-width: 0.8"/>
      </g>
     </g>
     <g id="text_13">
      <!-- 25 -->
      <g transform="translate(40.4625 279.051341) scale(0.1 -0.1)">
       <use xlink:href="#Calibri-32"/>
       <use xlink:href="#Calibri-35" x="50.683594"/>
      </g>
     </g>
    </g>
    <g id="ytick_2">
     <g id="line2d_13">
      <g>
       <use xlink:href="#m87d3e946a4" x="57.6" y="242.38656" style="stroke: #000000; stroke-width: 0.8"/>
      </g>
     </g>
     <g id="text_14">
      <!-- 50 -->
      <g transform="translate(40.4625 245.787341) scale(0.1 -0.1)">
       <use xlink:href="#Calibri-35"/>
       <use xlink:href="#Calibri-30" x="50.683594"/>
      </g>
     </g>
    </g>
    <g id="ytick_3">
     <g id="line2d_14">
      <g>
       <use xlink:href="#m87d3e946a4" x="57.6" y="209.12256" style="stroke: #000000; stroke-width: 0.8"/>
      </g>
     </g>
     <g id="text_15">
      <!-- 75 -->
      <g transform="translate(40.4625 212.523341) scale(0.1 -0.1)">
       <use xlink:href="#Calibri-37"/>
       <use xlink:href="#Calibri-35" x="50.683594"/>
      </g>
     </g>
    </g>
    <g id="ytick_4">
     <g id="line2d_15">
      <g>
       <use xlink:href="#m87d3e946a4" x="57.6" y="175.85856" style="stroke: #000000; stroke-width: 0.8"/>
      </g>
     </g>
     <g id="text_16">
      <!-- 100 -->
      <g transform="translate(35.39375 179.259341) scale(0.1 -0.1)">
       <use xlink:href="#Calibri-31"/>
       <use xlink:href="#Calibri-30" x="50.683594"/>
       <use xlink:href="#Calibri-30" x="101.367188"/>
      </g>
     </g>
    </g>
    <g id="ytick_5">
     <g id="line2d_16">
      <g>
       <use xlink:href="#m87d3e946a4" x="57.6" y="142.59456" style="stroke: #000000; stroke-width: 0.8"/>
      </g>
     </g>
     <g id="text_17">
      <!-- 125 -->
      <g transform="translate(35.39375 145.995341) scale(0.1 -0.1)">
       <use xlink:href="#Calibri-31"/>
       <use xlink:href="#Calibri-32" x="50.683594"/>
       <use xlink:href="#Calibri-35" x="101.367188"/>
      </g>
     </g>
    </g>
    <g id="ytick_6">
     <g id="line2d_17">
      <g>
       <use xlink:href="#m87d3e946a4" x="57.6" y="109.33056" style="stroke: #000000; stroke-width: 0.8"/>
      </g>
     </g>
     <g id="text_18">
      <!-- 150 -->
      <g transform="translate(35.39375 112.731341) scale(0.1 -0.1)">
       <use xlink:href="#Calibri-31"/>
       <use xlink:href="#Calibri-35" x="50.683594"/>
       <use xlink:href="#Calibri-30" x="101.367188"/>
      </g>
     </g>
    </g>
    <g id="ytick_7">
     <g id="line2d_18">
      <g>
       <use xlink:href="#m87d3e946a4" x="57.6" y="76.06656" style="stroke: #000000; stroke-width: 0.8"/>
      </g>
     </g>
     <g id="text_19">
      <!-- 175 -->
      <g transform="translate(35.39375 79.467341) scale(0.1 -0.1)">
       <use xlink:href="#Calibri-31"/>
       <use xlink:href="#Calibri-37" x="50.683594"/>
       <use xlink:href="#Calibri-35" x="101.367188"/>
      </g>
     </g>
    </g>
    <g id="ytick_8">
     <g id="line2d_19">
      <g>
       <use xlink:href="#m87d3e946a4" x="57.6" y="42.80256" style="stroke: #000000; stroke-width: 0.8"/>
      </g>
     </g>
     <g id="text_20">
      <!-- 200 -->
      <g transform="translate(35.39375 46.203341) scale(0.1 -0.1)">
       <use xlink:href="#Calibri-32"/>
       <use xlink:href="#Calibri-30" x="50.683594"/>
       <use xlink:href="#Calibri-30" x="101.367188"/>
      </g>
     </g>
    </g>
    <g id="text_21">
     <!-- $\mathit{Z}$$_{a}$ (nm) -->
     <g transform="translate(29.59375 191.028) rotate(-90) scale(0.1 -0.1)">
      <defs>
       <path id="DejaVuSans-Oblique-5a" d="M 838 4666 
L 4500 4666 
L 4409 4184 
L 794 531 
L 3769 531 
L 3669 0 
L -141 0 
L -50 481 
L 3566 4134 
L 738 4134 
L 838 4666 
z
" transform="scale(0.015625)"/>
       <path id="DejaVuSans-Oblique-61" d="M 3438 1997 
L 3047 0 
L 2472 0 
L 2578 531 
Q 2325 219 2001 64 
Q 1678 -91 1281 -91 
Q 834 -91 548 182 
Q 263 456 263 884 
Q 263 1497 752 1853 
Q 1241 2209 2100 2209 
L 2900 2209 
L 2931 2363 
Q 2938 2388 2941 2417 
Q 2944 2447 2944 2509 
Q 2944 2788 2717 2942 
Q 2491 3097 2081 3097 
Q 1800 3097 1504 3025 
Q 1209 2953 897 2809 
L 997 3341 
Q 1322 3463 1633 3523 
Q 1944 3584 2234 3584 
Q 2853 3584 3176 3315 
Q 3500 3047 3500 2534 
Q 3500 2431 3484 2292 
Q 3469 2153 3438 1997 
z
M 2816 1759 
L 2241 1759 
Q 1534 1759 1195 1570 
Q 856 1381 856 984 
Q 856 709 1029 553 
Q 1203 397 1509 397 
Q 1978 397 2328 733 
Q 2678 1069 2791 1631 
L 2816 1759 
z
" transform="scale(0.015625)"/>
       <path id="Calibri-6e" d="M 2900 78 
Q 2900 53 2887 36 
Q 2875 19 2847 6 
Q 2819 -6 2769 -12 
Q 2719 -19 2644 -19 
Q 2566 -19 2516 -12 
Q 2466 -6 2437 6 
Q 2409 19 2396 36 
Q 2384 53 2384 78 
L 2384 1725 
Q 2384 1966 2346 2112 
Q 2309 2259 2237 2365 
Q 2166 2472 2052 2528 
Q 1938 2584 1788 2584 
Q 1594 2584 1400 2446 
Q 1206 2309 994 2044 
L 994 78 
Q 994 53 981 36 
Q 969 19 941 6 
Q 913 -6 863 -12 
Q 813 -19 734 -19 
Q 659 -19 609 -12 
Q 559 -6 529 6 
Q 500 19 489 36 
Q 478 53 478 78 
L 478 2891 
Q 478 2916 487 2933 
Q 497 2950 525 2964 
Q 553 2978 597 2983 
Q 641 2988 713 2988 
Q 781 2988 826 2983 
Q 872 2978 897 2964 
Q 922 2950 933 2933 
Q 944 2916 944 2891 
L 944 2519 
Q 1181 2784 1417 2907 
Q 1653 3031 1894 3031 
Q 2175 3031 2367 2936 
Q 2559 2841 2678 2681 
Q 2797 2522 2848 2308 
Q 2900 2094 2900 1794 
L 2900 78 
z
" transform="scale(0.015625)"/>
      </defs>
      <use xlink:href="#DejaVuSans-Oblique-5a" transform="translate(0 0.09375)"/>
      <use xlink:href="#DejaVuSans-Oblique-61" transform="translate(69.462891 -16.3125) scale(0.7)"/>
      <use xlink:href="#Calibri-20" transform="translate(115.092773 0.09375)"/>
      <use xlink:href="#Calibri-28" transform="translate(136.575195 0.09375)"/>
      <use xlink:href="#Calibri-6e" transform="translate(166.897461 0.09375)"/>
      <use xlink:href="#Calibri-6d" transform="translate(219.436523 0.09375)"/>
      <use xlink:href="#Calibri-29" transform="translate(299.319336 0.09375)"/>
     </g>
    </g>
   </g>
   <g id="patch_3">
    <path d="M 57.6 307.584 
L 57.6 41.472 
" style="fill: none; stroke: #000000; stroke-width: 0.8; stroke-linejoin: miter; stroke-linecap: square"/>
   </g>
   <g id="patch_4">
    <path d="M 343.296 307.584 
L 343.296 41.472 
" style="fill: none; stroke: #000000; stroke-width: 0.8; stroke-linejoin: miter; stroke-linecap: square"/>
   </g>
   <g id="patch_5">
    <path d="M 57.6 307.584 
L 343.296 307.584 
" style="fill: none; stroke: #000000; stroke-width: 0.8; stroke-linejoin: miter; stroke-linecap: square"/>
   </g>
   <g id="patch_6">
    <path d="M 57.6 41.472 
L 343.296 41.472 
" style="fill: none; stroke: #000000; stroke-width: 0.8; stroke-linejoin: miter; stroke-linecap: square"/>
   </g>
   <g id="text_22">
    <!-- $\theta_m$ = 48 -->
    <g transform="translate(182.298 35.472) scale(0.1 -0.1)">
     <defs>
      <path id="DejaVuSans-Oblique-3b8" d="M 2913 2219 
L 925 2219 
Q 791 1284 928 888 
Q 1100 400 1566 400 
Q 2034 400 2391 891 
Q 2703 1322 2913 2219 
z
M 3009 2750 
Q 3094 3638 2984 3950 
Q 2813 4444 2353 4444 
Q 1875 4444 1525 3956 
Q 1250 3563 1034 2750 
L 3009 2750 
z
M 2444 4913 
Q 3194 4913 3494 4250 
Q 3794 3591 3566 2422 
Q 3341 1256 2781 594 
Q 2225 -72 1475 -72 
Q 722 -72 425 594 
Q 128 1256 353 2422 
Q 581 3591 1134 4250 
Q 1691 4913 2444 4913 
z
" transform="scale(0.015625)"/>
      <path id="DejaVuSans-Oblique-6d" d="M 5747 2113 
L 5338 0 
L 4763 0 
L 5166 2094 
Q 5191 2228 5203 2325 
Q 5216 2422 5216 2491 
Q 5216 2772 5059 2928 
Q 4903 3084 4622 3084 
Q 4203 3084 3875 2770 
Q 3547 2456 3450 1953 
L 3066 0 
L 2491 0 
L 2900 2094 
Q 2925 2209 2937 2307 
Q 2950 2406 2950 2484 
Q 2950 2769 2794 2926 
Q 2638 3084 2363 3084 
Q 1938 3084 1609 2770 
Q 1281 2456 1184 1953 
L 800 0 
L 225 0 
L 909 3500 
L 1484 3500 
L 1375 2956 
Q 1609 3263 1923 3423 
Q 2238 3584 2597 3584 
Q 2978 3584 3223 3384 
Q 3469 3184 3519 2828 
Q 3781 3197 4126 3390 
Q 4472 3584 4856 3584 
Q 5306 3584 5551 3325 
Q 5797 3066 5797 2591 
Q 5797 2488 5784 2364 
Q 5772 2241 5747 2113 
z
" transform="scale(0.015625)"/>
      <path id="Calibri-3d" d="M 2891 2409 
Q 2891 2284 2855 2236 
Q 2819 2188 2772 2188 
L 409 2188 
Q 363 2188 328 2236 
Q 294 2284 294 2409 
Q 294 2522 325 2575 
Q 356 2628 409 2628 
L 2772 2628 
Q 2828 2628 2859 2575 
Q 2891 2522 2891 2409 
z
M 2891 1194 
Q 2891 1069 2855 1022 
Q 2819 975 2772 975 
L 409 975 
Q 363 975 328 1022 
Q 294 1069 294 1194 
Q 294 1309 325 1362 
Q 356 1416 409 1416 
L 2772 1416 
Q 2828 1416 2859 1362 
Q 2891 1309 2891 1194 
z
" transform="scale(0.015625)"/>
      <path id="Calibri-b0" d="M 1847 3541 
Q 1847 3388 1789 3253 
Q 1731 3119 1626 3017 
Q 1522 2916 1380 2859 
Q 1238 2803 1072 2803 
Q 906 2803 770 2854 
Q 634 2906 534 3000 
Q 434 3094 378 3225 
Q 322 3356 322 3516 
Q 322 3675 381 3811 
Q 441 3947 545 4044 
Q 650 4141 790 4197 
Q 931 4253 1097 4253 
Q 1259 4253 1396 4200 
Q 1534 4147 1634 4055 
Q 1734 3963 1790 3831 
Q 1847 3700 1847 3541 
z
M 1453 3528 
Q 1453 3613 1425 3686 
Q 1397 3759 1347 3812 
Q 1297 3866 1228 3895 
Q 1159 3925 1078 3925 
Q 1000 3925 933 3895 
Q 866 3866 816 3812 
Q 766 3759 737 3687 
Q 709 3616 709 3534 
Q 709 3444 737 3369 
Q 766 3294 817 3241 
Q 869 3188 939 3158 
Q 1009 3128 1091 3128 
Q 1166 3128 1233 3159 
Q 1300 3191 1348 3245 
Q 1397 3300 1425 3372 
Q 1453 3444 1453 3528 
z
M 0 4044 
L 0 4044 
z
" transform="scale(0.015625)"/>
     </defs>
     <use xlink:href="#DejaVuSans-Oblique-3b8" transform="translate(0 0.234375)"/>
     <use xlink:href="#DejaVuSans-Oblique-6d" transform="translate(61.181641 -16.171875) scale(0.7)"/>
     <use xlink:href="#Calibri-20" transform="translate(132.104492 0.234375)"/>
     <use xlink:href="#Calibri-3d" transform="translate(154.711914 0.234375)"/>
     <use xlink:href="#Calibri-20" transform="translate(204.516602 0.234375)"/>
     <use xlink:href="#Calibri-34" transform="translate(227.124023 0.234375)"/>
     <use xlink:href="#Calibri-38" transform="translate(277.807617 0.234375)"/>
     <use xlink:href="#Calibri-b0" transform="translate(328.491211 0.234375)"/>
    </g>
   </g>
  </g>
  <g id="axes_2">
   <g id="patch_7">
    <path d="M 361.152 307.584 
L 374.4576 307.584 
L 374.4576 41.472 
L 361.152 41.472 
z
" style="fill: #ffffff"/>
   </g>
   <g id="QuadMesh_1">
    <path d="M 361.152 307.584 
L 374.4576 307.584 
L 374.4576 280.9728 
L 361.152 280.9728 
L 361.152 307.584 
" clip-path="url(#p01d5b0592c)" style="fill: #0000b6"/>
    <path d="M 361.152 280.9728 
L 374.4576 280.9728 
L 374.4576 254.3616 
L 361.152 254.3616 
L 361.152 280.9728 
" clip-path="url(#p01d5b0592c)" style="fill: #0018ff"/>
    <path d="M 361.152 254.3616 
L 374.4576 254.3616 
L 374.4576 227.7504 
L 361.152 227.7504 
L 361.152 254.3616 
" clip-path="url(#p01d5b0592c)" style="fill: #0080ff"/>
    <path d="M 361.152 227.7504 
L 374.4576 227.7504 
L 374.4576 201.1392 
L 361.152 201.1392 
L 361.152 227.7504 
" clip-path="url(#p01d5b0592c)" style="fill: #00e4f8"/>
    <path d="M 361.152 201.1392 
L 374.4576 201.1392 
L 374.4576 174.528 
L 361.152 174.528 
L 361.152 201.1392 
" clip-path="url(#p01d5b0592c)" style="fill: #53ffa4"/>
    <path d="M 361.152 174.528 
L 374.4576 174.528 
L 374.4576 147.9168 
L 361.152 147.9168 
L 361.152 174.528 
" clip-path="url(#p01d5b0592c)" style="fill: #a4ff53"/>
    <path d="M 361.152 147.9168 
L 374.4576 147.9168 
L 374.4576 121.3056 
L 361.152 121.3056 
L 361.152 147.9168 
" clip-path="url(#p01d5b0592c)" style="fill: #f8f500"/>
    <path d="M 361.152 121.3056 
L 374.4576 121.3056 
L 374.4576 94.6944 
L 361.152 94.6944 
L 361.152 121.3056 
" clip-path="url(#p01d5b0592c)" style="fill: #ff9400"/>
    <path d="M 361.152 94.6944 
L 374.4576 94.6944 
L 374.4576 68.0832 
L 361.152 68.0832 
L 361.152 94.6944 
" clip-path="url(#p01d5b0592c)" style="fill: #ff3800"/>
    <path d="M 361.152 68.0832 
L 374.4576 68.0832 
L 374.4576 41.472 
L 361.152 41.472 
L 361.152 68.0832 
" clip-path="url(#p01d5b0592c)" style="fill: #b60000"/>
   </g>
   <g id="matplotlib.axis_3"/>
   <g id="matplotlib.axis_4">
    <g id="ytick_9">
     <g id="line2d_20">
      <defs>
       <path id="me5a1c6b750" d="M 0 0 
L 3.5 0 
" style="stroke: #000000; stroke-width: 0.8"/>
      </defs>
      <g>
       <use xlink:href="#me5a1c6b750" x="374.4576" y="307.584" style="stroke: #000000; stroke-width: 0.8"/>
      </g>
     </g>
     <g id="text_23">
      <!-- 0 -->
      <g transform="translate(381.4576 310.984781) scale(0.1 -0.1)">
       <use xlink:href="#Calibri-30"/>
      </g>
     </g>
    </g>
    <g id="ytick_10">
     <g id="line2d_21">
      <g>
       <use xlink:href="#me5a1c6b750" x="374.4576" y="280.9728" style="stroke: #000000; stroke-width: 0.8"/>
      </g>
     </g>
     <g id="text_24">
      <!-- 0.1 -->
      <g transform="translate(381.4576 284.373581) scale(0.1 -0.1)">
       <use xlink:href="#Calibri-30"/>
       <use xlink:href="#Calibri-2e" x="50.683594"/>
       <use xlink:href="#Calibri-31" x="75.927734"/>
      </g>
     </g>
    </g>
    <g id="ytick_11">
     <g id="line2d_22">
      <g>
       <use xlink:href="#me5a1c6b750" x="374.4576" y="254.3616" style="stroke: #000000; stroke-width: 0.8"/>
      </g>
     </g>
     <g id="text_25">
      <!-- 0.2 -->
      <g transform="translate(381.4576 257.762381) scale(0.1 -0.1)">
       <use xlink:href="#Calibri-30"/>
       <use xlink:href="#Calibri-2e" x="50.683594"/>
       <use xlink:href="#Calibri-32" x="75.927734"/>
      </g>
     </g>
    </g>
    <g id="ytick_12">
     <g id="line2d_23">
      <g>
       <use xlink:href="#me5a1c6b750" x="374.4576" y="227.7504" style="stroke: #000000; stroke-width: 0.8"/>
      </g>
     </g>
     <g id="text_26">
      <!-- 0.3 -->
      <g transform="translate(381.4576 231.151181) scale(0.1 -0.1)">
       <use xlink:href="#Calibri-30"/>
       <use xlink:href="#Calibri-2e" x="50.683594"/>
       <use xlink:href="#Calibri-33" x="75.927734"/>
      </g>
     </g>
    </g>
    <g id="ytick_13">
     <g id="line2d_24">
      <g>
       <use xlink:href="#me5a1c6b750" x="374.4576" y="201.1392" style="stroke: #000000; stroke-width: 0.8"/>
      </g>
     </g>
     <g id="text_27">
      <!-- 0.4 -->
      <g transform="translate(381.4576 204.539981) scale(0.1 -0.1)">
       <use xlink:href="#Calibri-30"/>
       <use xlink:href="#Calibri-2e" x="50.683594"/>
       <use xlink:href="#Calibri-34" x="75.927734"/>
      </g>
     </g>
    </g>
    <g id="ytick_14">
     <g id="line2d_25">
      <g>
       <use xlink:href="#me5a1c6b750" x="374.4576" y="174.528" style="stroke: #000000; stroke-width: 0.8"/>
      </g>
     </g>
     <g id="text_28">
      <!-- 0.5 -->
      <g transform="translate(381.4576 177.928781) scale(0.1 -0.1)">
       <use xlink:href="#Calibri-30"/>
       <use xlink:href="#Calibri-2e" x="50.683594"/>
       <use xlink:href="#Calibri-35" x="75.927734"/>
      </g>
     </g>
    </g>
    <g id="ytick_15">
     <g id="line2d_26">
      <g>
       <use xlink:href="#me5a1c6b750" x="374.4576" y="147.9168" style="stroke: #000000; stroke-width: 0.8"/>
      </g>
     </g>
     <g id="text_29">
      <!-- 0.6 -->
      <g transform="translate(381.4576 151.317581) scale(0.1 -0.1)">
       <use xlink:href="#Calibri-30"/>
       <use xlink:href="#Calibri-2e" x="50.683594"/>
       <use xlink:href="#Calibri-36" x="75.927734"/>
      </g>
     </g>
    </g>
    <g id="ytick_16">
     <g id="line2d_27">
      <g>
       <use xlink:href="#me5a1c6b750" x="374.4576" y="121.3056" style="stroke: #000000; stroke-width: 0.8"/>
      </g>
     </g>
     <g id="text_30">
      <!-- 0.7 -->
      <g transform="translate(381.4576 124.706381) scale(0.1 -0.1)">
       <use xlink:href="#Calibri-30"/>
       <use xlink:href="#Calibri-2e" x="50.683594"/>
       <use xlink:href="#Calibri-37" x="75.927734"/>
      </g>
     </g>
    </g>
    <g id="ytick_17">
     <g id="line2d_28">
      <g>
       <use xlink:href="#me5a1c6b750" x="374.4576" y="94.6944" style="stroke: #000000; stroke-width: 0.8"/>
      </g>
     </g>
     <g id="text_31">
      <!-- 0.8 -->
      <g transform="translate(381.4576 98.095181) scale(0.1 -0.1)">
       <use xlink:href="#Calibri-30"/>
       <use xlink:href="#Calibri-2e" x="50.683594"/>
       <use xlink:href="#Calibri-38" x="75.927734"/>
      </g>
     </g>
    </g>
    <g id="ytick_18">
     <g id="line2d_29">
      <g>
       <use xlink:href="#me5a1c6b750" x="374.4576" y="68.0832" style="stroke: #000000; stroke-width: 0.8"/>
      </g>
     </g>
     <g id="text_32">
      <!-- 0.9 -->
      <g transform="translate(381.4576 71.483981) scale(0.1 -0.1)">
       <use xlink:href="#Calibri-30"/>
       <use xlink:href="#Calibri-2e" x="50.683594"/>
       <use xlink:href="#Calibri-39" x="75.927734"/>
      </g>
     </g>
    </g>
    <g id="ytick_19">
     <g id="line2d_30">
      <g>
       <use xlink:href="#me5a1c6b750" x="374.4576" y="41.472" style="stroke: #000000; stroke-width: 0.8"/>
      </g>
     </g>
     <g id="text_33">
      <!-- 1.0 -->
      <g transform="translate(381.4576 44.872781) scale(0.1 -0.1)">
       <use xlink:href="#Calibri-31"/>
       <use xlink:href="#Calibri-2e" x="50.683594"/>
       <use xlink:href="#Calibri-30" x="75.927734"/>
      </g>
     </g>
    </g>
   </g>
   <g id="LineCollection_1"/>
   <g id="patch_8">
    <path d="M 361.152 307.584 
L 367.8048 307.584 
L 374.4576 307.584 
L 374.4576 41.472 
L 367.8048 41.472 
L 361.152 41.472 
L 361.152 307.584 
z
" style="fill: none; stroke: #000000; stroke-width: 0.8; stroke-linejoin: miter; stroke-linecap: square"/>
   </g>
   <g id="text_34">
    <!-- $\mathit{E}_{\mathrm{NF}}$/$\mathit{E}_{\mathrm{i}}$ -->
    <g transform="translate(353.6548 35.472) scale(0.1 -0.1)">
     <defs>
      <path id="DejaVuSans-Oblique-45" d="M 1081 4666 
L 4031 4666 
L 3928 4134 
L 1606 4134 
L 1338 2753 
L 3566 2753 
L 3463 2222 
L 1234 2222 
L 909 531 
L 3284 531 
L 3181 0 
L 172 0 
L 1081 4666 
z
" transform="scale(0.015625)"/>
      <path id="DejaVuSans-4e" d="M 628 4666 
L 1478 4666 
L 3547 763 
L 3547 4666 
L 4159 4666 
L 4159 0 
L 3309 0 
L 1241 3903 
L 1241 0 
L 628 0 
L 628 4666 
z
" transform="scale(0.015625)"/>
      <path id="DejaVuSans-46" d="M 628 4666 
L 3309 4666 
L 3309 4134 
L 1259 4134 
L 1259 2759 
L 3109 2759 
L 3109 2228 
L 1259 2228 
L 1259 0 
L 628 0 
L 628 4666 
z
" transform="scale(0.015625)"/>
      <path id="DejaVuSans-69" d="M 603 3500 
L 1178 3500 
L 1178 0 
L 603 0 
L 603 3500 
z
M 603 4863 
L 1178 4863 
L 1178 4134 
L 603 4134 
L 603 4863 
z
" transform="scale(0.015625)"/>
     </defs>
     <use xlink:href="#DejaVuSans-Oblique-45" transform="translate(0 0.09375)"/>
     <use xlink:href="#DejaVuSans-4e" transform="translate(63.183594 -16.3125) scale(0.7)"/>
     <use xlink:href="#DejaVuSans-46" transform="translate(115.546875 -16.3125) scale(0.7)"/>
     <use xlink:href="#Calibri-2f" transform="translate(158.544922 0.09375)"/>
     <use xlink:href="#DejaVuSans-Oblique-45" transform="translate(197.167969 0.09375)"/>
     <use xlink:href="#DejaVuSans-69" transform="translate(260.351562 -16.3125) scale(0.7)"/>
    </g>
   </g>
  </g>
 </g>
 <defs>
  <clipPath id="pb3d4343303">
   <rect x="57.6" y="41.472" width="285.696" height="266.112"/>
  </clipPath>
  <clipPath id="p01d5b0592c">
   <rect x="361.152" y="41.472" width="13.3056" height="266.112"/>
  </clipPath>
 </defs>
</svg>
