<?xml version="1.0" encoding="utf-8" standalone="no"?>
<!DOCTYPE svg PUBLIC "-//W3C//DTD SVG 1.1//EN"
  "http://www.w3.org/Graphics/SVG/1.1/DTD/svg11.dtd">
<svg xmlns:xlink="http://www.w3.org/1999/xlink" width="460.8pt" height="345.6pt" viewBox="0 0 460.8 345.6" xmlns="http://www.w3.org/2000/svg" version="1.1">
 <metadata>
  <rdf:RDF xmlns:dc="http://purl.org/dc/elements/1.1/" xmlns:cc="http://creativecommons.org/ns#" xmlns:rdf="http://www.w3.org/1999/02/22-rdf-syntax-ns#">
   <cc:Work>
    <dc:type rdf:resource="http://purl.org/dc/dcmitype/StillImage"/>
    <dc:date>2024-01-22T08:40:12.622970</dc:date>
    <dc:format>image/svg+xml</dc:format>
    <dc:creator>
     <cc:Agent>
      <dc:title>Matplotlib v3.7.1, https://matplotlib.org/</dc:title>
     </cc:Agent>
    </dc:creator>
   </cc:Work>
  </rdf:RDF>
 </metadata>
 <defs>
  <style type="text/css">*{stroke-linejoin: round; stroke-linecap: butt}</style>
 </defs>
 <g id="figure_1">
  <g id="patch_1">
   <path d="M 0 345.6 
L 460.8 345.6 
L 460.8 0 
L 0 0 
z
" style="fill: #ffffff"/>
  </g>
  <g id="axes_1">
   <g id="patch_2">
    <path d="M 57.6 307.584 
L 343.296 307.584 
L 343.296 41.472 
L 57.6 41.472 
z
" style="fill: #ffffff"/>
   </g>
   <g id="PathCollection_1">
    <path clip-path="url(#paa6c605888)" style="fill: #0000b6"/>
   </g>
   <g id="PathCollection_2">
    <path d="M 69.94116 41.472 
L 70.379283 42.342531 
L 70.43282 42.44628 
L 71.47763 44.502259 
L 71.628822 44.7984 
L 72.532541 46.554242 
L 72.840404 47.15052 
L 72.990346 47.432884 
L 73.3618 48.1248 
L 73.683477 48.763143 
L 73.863037 49.09908 
L 74.721369 50.726486 
L 75.104957 51.4512 
L 75.701223 52.567957 
L 76.357755 53.794657 
L 76.360797 53.800267 
L 76.362457 53.80332 
L 76.365347 53.808699 
L 76.696604 54.411516 
L 76.899889 54.7776 
L 77.01093 54.98823 
L 77.072464 55.10708 
L 77.429169 55.75188 
L 78.019648 56.831646 
L 78.717224 58.104 
L 78.898411 58.431433 
L 79.087332 58.772264 
L 79.68813 59.842001 
L 80.033639 60.45612 
L 80.545406 61.375098 
L 80.577752 61.4304 
L 80.613152 61.49415 
L 80.673278 61.601332 
L 81.13288 62.40468 
L 81.369966 62.823202 
L 81.777292 63.541067 
L 82.124161 64.144378 
L 82.476556 64.7568 
L 83.066605 65.772086 
L 83.844219 67.10892 
L 84.10637 67.563522 
L 84.420038 68.0832 
L 84.90056 68.913336 
L 84.982536 69.05748 
L 85.376077 69.719413 
L 86.381172 71.4096 
L 86.493481 71.596509 
L 87.213704 72.795002 
L 87.690197 73.584253 
L 87.797319 73.76172 
L 87.859107 73.861909 
L 88.403205 74.736 
L 88.682776 75.202738 
L 88.831325 75.455069 
L 88.98979 75.71028 
L 89.973641 77.304608 
L 90.440904 78.0624 
L 90.984735 78.93465 
L 91.460673 79.698556 
L 91.729463 80.12429 
L 91.912446 80.41452 
L 92.326415 81.07454 
L 92.458481 81.28224 
L 92.526843 81.3888 
L 92.561333 81.444494 
L 92.57945 81.474249 
L 93.148448 82.36308 
L 93.499168 82.913666 
L 94.007463 83.712788 
L 94.301344 84.168726 
L 94.653081 84.7152 
L 95.280203 85.678307 
L 96.182811 87.06732 
L 96.410219 87.418697 
L 96.827854 88.0416 
L 97.299961 88.768024 
L 97.458338 89.01588 
L 97.6396 89.288711 
L 98.211159 90.150634 
L 98.872338 91.141954 
L 99.022682 91.368 
L 100.013316 92.839451 
L 100.604891 93.72012 
L 100.992666 94.287105 
L 101.273533 94.6944 
L 101.477586 95.000613 
L 101.93747 95.66868 
L 102.511089 96.503833 
L 103.259557 97.5972 
L 103.33993 97.712259 
L 103.33993 94.6944 
L 103.33993 91.368 
L 103.33993 88.0416 
L 103.33993 84.7152 
L 103.33993 81.3888 
L 103.33993 78.0624 
L 103.33993 74.736 
L 103.33993 71.4096 
L 103.33993 68.0832 
L 103.33993 64.7568 
L 103.33993 61.4304 
L 103.33993 58.104 
L 103.33993 54.7776 
L 103.33993 51.4512 
L 103.33993 48.1248 
L 103.33993 44.7984 
L 103.33993 41.472 
L 101.816218 41.472 
L 100.292506 41.472 
L 98.768794 41.472 
L 97.245082 41.472 
L 95.72137 41.472 
L 94.197658 41.472 
L 92.673946 41.472 
L 91.150234 41.472 
L 89.626522 41.472 
L 88.10281 41.472 
L 86.579098 41.472 
L 85.055386 41.472 
L 83.531674 41.472 
L 82.007962 41.472 
L 80.48425 41.472 
L 78.960538 41.472 
L 77.436826 41.472 
L 75.913114 41.472 
L 74.389402 41.472 
L 72.86569 41.472 
L 71.341978 41.472 
" clip-path="url(#paa6c605888)" style="fill: #0018ff"/>
   </g>
   <g id="PathCollection_3">
    <path d="M 103.33993 97.712259 
L 103.259557 97.5972 
L 102.511089 96.503833 
L 101.93747 95.66868 
L 101.477586 95.000613 
L 101.273533 94.6944 
L 100.992666 94.287105 
L 100.604891 93.72012 
L 100.013316 92.839451 
L 99.022682 91.368 
L 98.872338 91.141954 
L 98.211159 90.150634 
L 97.6396 89.288711 
L 97.458338 89.01588 
L 97.299961 88.768024 
L 96.827854 88.0416 
L 96.410219 87.418697 
L 96.182811 87.06732 
L 95.280203 85.678307 
L 94.653081 84.7152 
L 94.301344 84.168726 
L 94.007463 83.712788 
L 93.499168 82.913666 
L 93.148448 82.36308 
L 92.57945 81.474249 
L 92.561333 81.444494 
L 92.526843 81.3888 
L 92.458481 81.28224 
L 92.326415 81.07454 
L 91.912446 80.41452 
L 91.729463 80.12429 
L 91.460673 79.698556 
L 90.984735 78.93465 
L 90.440904 78.0624 
L 89.973641 77.304608 
L 88.98979 75.71028 
L 88.831325 75.455069 
L 88.682776 75.202738 
L 88.403205 74.736 
L 87.859107 73.861909 
L 87.797319 73.76172 
L 87.690197 73.584253 
L 87.213704 72.795002 
L 86.493481 71.596509 
L 86.381172 71.4096 
L 85.376077 69.719413 
L 84.982536 69.05748 
L 84.90056 68.913336 
L 84.420038 68.0832 
L 84.10637 67.563522 
L 83.844219 67.10892 
L 83.066605 65.772086 
L 82.476556 64.7568 
L 82.124161 64.144378 
L 81.777292 63.541067 
L 81.369966 62.823202 
L 81.13288 62.40468 
L 80.673278 61.601332 
L 80.613152 61.49415 
L 80.577752 61.4304 
L 80.545406 61.375098 
L 80.033639 60.45612 
L 79.68813 59.842001 
L 79.087332 58.772264 
L 78.898411 58.431433 
L 78.717224 58.104 
L 78.019648 56.831646 
L 77.429169 55.75188 
L 77.072464 55.10708 
L 77.01093 54.98823 
L 76.899889 54.7776 
L 76.696604 54.411516 
L 76.365347 53.808699 
L 76.362457 53.80332 
L 76.360797 53.800267 
L 76.357755 53.794657 
L 75.701223 52.567957 
L 75.104957 51.4512 
L 74.721369 50.726486 
L 73.863037 49.09908 
L 73.683477 48.763143 
L 73.3618 48.1248 
L 72.990346 47.432884 
L 72.840404 47.15052 
L 72.532541 46.554242 
L 71.628822 44.7984 
L 71.47763 44.502259 
L 70.43282 42.44628 
L 70.379283 42.342531 
L 69.94116 41.472 
L 69.818266 41.472 
L 68.294554 41.472 
L 66.770842 41.472 
L 65.24713 41.472 
L 63.723418 41.472 
L 62.199706 41.472 
L 60.675994 41.472 
L 59.152282 41.472 
L 57.62857 41.472 
L 57.62857 44.7984 
L 57.62857 48.1248 
L 57.62857 51.4512 
L 57.62857 54.7776 
L 57.62857 58.104 
L 57.62857 61.4304 
L 57.62857 64.7568 
L 57.62857 68.0832 
L 57.62857 71.4096 
L 57.62857 74.736 
L 57.62857 78.0624 
L 57.62857 81.3888 
L 57.62857 84.7152 
L 57.62857 88.0416 
L 57.62857 91.368 
L 57.62857 94.6944 
L 57.62857 98.0208 
L 57.62857 100.099545 
L 57.929649 100.689917 
L 58.271774 101.3472 
L 58.551926 101.890081 
L 58.780311 102.32148 
L 59.552268 103.800393 
L 60.012789 104.6736 
L 60.501158 105.595063 
L 61.043616 106.611131 
L 61.188779 106.880543 
L 61.267731 107.02572 
L 61.405074 107.281443 
L 61.799548 108 
L 61.928142 108.245565 
L 62.330562 108.97428 
L 62.8451 109.917447 
L 63.620839 111.3264 
L 63.697233 111.464407 
L 63.776643 111.606924 
L 64.516169 112.922153 
L 64.944975 113.67852 
L 65.409224 114.506224 
L 65.495409 114.6528 
L 65.754426 115.11153 
L 66.051015 115.62708 
L 66.202595 115.893334 
L 66.460244 116.342214 
L 66.928154 117.150091 
L 67.411048 117.9792 
L 67.906904 118.825474 
L 68.795702 120.33132 
L 68.995052 120.672164 
L 69.381944 121.3056 
L 69.826916 122.063444 
L 69.954577 122.27988 
L 70.19035 122.67095 
L 71.228601 124.384489 
L 71.35791 124.597219 
L 71.379183 124.632 
L 72.51553 126.477497 
L 72.828891 126.98412 
L 72.944653 127.165782 
L 73.445546 127.9584 
L 73.781637 128.50798 
L 74.051731 128.93268 
L 74.872028 130.231183 
L 75.541275 131.2848 
L 75.828044 131.733152 
L 76.069531 132.109187 
L 76.649293 133.004055 
L 77.061276 133.63692 
L 77.597742 134.465689 
L 77.695296 134.6112 
L 78.06616 135.180285 
L 78.333328 135.58548 
L 78.439844 135.747922 
L 78.587632 135.972219 
L 79.167818 136.845141 
L 79.896306 137.9376 
L 80.245867 138.458011 
L 81.48142 140.28972 
L 81.51174 140.334876 
L 82.15606 141.264 
L 82.500719 141.773868 
L 82.677068 142.036791 
L 82.817288 142.23828 
L 83.896201 143.794604 
L 84.449743 144.5904 
L 84.926375 145.270346 
L 85.279824 145.773291 
L 85.739924 146.422391 
L 86.109645 146.94252 
L 86.713776 147.795015 
L 86.743466 147.83551 
L 86.802577 147.9168 
L 86.923878 148.087314 
L 87.208615 148.48605 
L 87.499933 148.89108 
L 87.595487 149.024331 
L 87.712741 149.187364 
L 88.331113 150.039937 
L 89.205509 151.2432 
L 89.464535 151.596831 
L 90.325835 152.769863 
L 90.751138 153.346611 
L 90.934829 153.59532 
L 91.07078 153.77674 
L 91.667059 154.5696 
L 91.936109 154.934504 
L 92.069233 155.116421 
L 92.391818 155.54388 
L 93.237305 156.666135 
L 94.165468 157.896 
L 94.191233 157.92986 
L 94.208342 157.952314 
L 95.140063 159.165045 
L 95.973233 160.24812 
L 96.311705 160.688581 
L 96.73153 161.2224 
L 97.354416 162.030038 
L 97.483377 162.19668 
L 97.650852 162.41021 
L 97.983016 162.833376 
L 98.977091 164.094068 
L 99.335892 164.5488 
L 100.108355 165.519357 
L 100.591862 166.126543 
L 100.911275 166.524371 
L 101.213682 166.90092 
L 101.920433 167.780962 
L 101.996701 167.8752 
L 102.489366 168.483905 
L 102.786067 168.84948 
L 102.854832 168.934212 
L 102.92646 169.022431 
L 103.33993 169.524568 
L 103.33993 167.8752 
L 103.33993 164.5488 
L 103.33993 161.2224 
L 103.33993 157.896 
L 103.33993 154.5696 
L 103.33993 151.2432 
L 103.33993 147.9168 
L 103.33993 144.5904 
L 103.33993 141.264 
L 103.33993 137.9376 
L 103.33993 134.6112 
L 103.33993 131.2848 
L 103.33993 127.9584 
L 103.33993 124.632 
L 103.33993 121.3056 
L 103.33993 117.9792 
L 103.33993 114.6528 
L 103.33993 111.3264 
L 103.33993 108 
L 103.33993 104.6736 
L 103.33993 101.3472 
L 103.33993 98.0208 
" clip-path="url(#paa6c605888)" style="fill: #0080ff"/>
   </g>
   <g id="PathCollection_4">
    <path d="M 103.33993 169.524568 
L 102.92646 169.022431 
L 102.854832 168.934212 
L 102.786067 168.84948 
L 102.489366 168.483905 
L 101.996701 167.8752 
L 101.920433 167.780962 
L 101.213682 166.90092 
L 100.911275 166.524371 
L 100.591862 166.126543 
L 100.108355 165.519357 
L 99.335892 164.5488 
L 98.977091 164.094068 
L 97.983016 162.833376 
L 97.650852 162.41021 
L 97.483377 162.19668 
L 97.354416 162.030038 
L 96.73153 161.2224 
L 96.311705 160.688581 
L 95.973233 160.24812 
L 95.140063 159.165045 
L 94.208342 157.952314 
L 94.191233 157.92986 
L 94.165468 157.896 
L 93.237305 156.666135 
L 92.391818 155.54388 
L 92.069233 155.116421 
L 91.936109 154.934504 
L 91.667059 154.5696 
L 91.07078 153.77674 
L 90.934829 153.59532 
L 90.751138 153.346611 
L 90.325835 152.769863 
L 89.464535 151.596831 
L 89.205509 151.2432 
L 88.331113 150.039937 
L 87.712741 149.187364 
L 87.595487 149.024331 
L 87.499933 148.89108 
L 87.208615 148.48605 
L 86.923878 148.087314 
L 86.802577 147.9168 
L 86.743466 147.83551 
L 86.713776 147.795015 
L 86.109645 146.94252 
L 85.739924 146.422391 
L 85.279824 145.773291 
L 84.926375 145.270346 
L 84.449743 144.5904 
L 83.896201 143.794604 
L 82.817288 142.23828 
L 82.677068 142.036791 
L 82.500719 141.773868 
L 82.15606 141.264 
L 81.51174 140.334876 
L 81.48142 140.28972 
L 80.245867 138.458011 
L 79.896306 137.9376 
L 79.167818 136.845141 
L 78.587632 135.972219 
L 78.439844 135.747922 
L 78.333328 135.58548 
L 78.06616 135.180285 
L 77.695296 134.6112 
L 77.597742 134.465689 
L 77.061276 133.63692 
L 76.649293 133.004055 
L 76.069531 132.109187 
L 75.828044 131.733152 
L 75.541275 131.2848 
L 74.872028 130.231183 
L 74.051731 128.93268 
L 73.781637 128.50798 
L 73.445546 127.9584 
L 72.944653 127.165782 
L 72.828891 126.98412 
L 72.51553 126.477497 
L 71.379183 124.632 
L 71.35791 124.597219 
L 71.228601 124.384489 
L 70.19035 122.67095 
L 69.954577 122.27988 
L 69.826916 122.063444 
L 69.381944 121.3056 
L 68.995052 120.672164 
L 68.795702 120.33132 
L 67.906904 118.825474 
L 67.411048 117.9792 
L 66.928154 117.150091 
L 66.460244 116.342214 
L 66.202595 115.893334 
L 66.051015 115.62708 
L 65.754426 115.11153 
L 65.495409 114.6528 
L 65.409224 114.506224 
L 64.944975 113.67852 
L 64.516169 112.922153 
L 63.776643 111.606924 
L 63.697233 111.464407 
L 63.620839 111.3264 
L 62.8451 109.917447 
L 62.330562 108.97428 
L 61.928142 108.245565 
L 61.799548 108 
L 61.405074 107.281443 
L 61.267731 107.02572 
L 61.188779 106.880543 
L 61.043616 106.611131 
L 60.501158 105.595063 
L 60.012789 104.6736 
L 59.552268 103.800393 
L 58.780311 102.32148 
L 58.551926 101.890081 
L 58.271774 101.3472 
L 57.929649 100.689917 
L 57.62857 100.099545 
L 57.62857 101.3472 
L 57.62857 104.6736 
L 57.62857 108 
L 57.62857 111.3264 
L 57.62857 114.6528 
L 57.62857 117.9792 
L 57.62857 121.3056 
L 57.62857 124.632 
L 57.62857 127.9584 
L 57.62857 131.2848 
L 57.62857 134.6112 
L 57.62857 137.9376 
L 57.62857 141.264 
L 57.62857 144.5904 
L 57.62857 147.9168 
L 57.62857 151.2432 
L 57.62857 154.5696 
L 57.62857 157.896 
L 57.62857 161.2224 
L 57.62857 162.790953 
L 57.881184 163.217412 
L 58.678847 164.5488 
L 58.947254 164.996394 
L 60.10544 166.90092 
L 60.149276 166.973652 
L 60.344193 167.285729 
L 60.713189 167.8752 
L 61.057056 168.440308 
L 61.241144 168.741994 
L 61.309029 168.84948 
L 62.445915 170.664102 
L 62.787014 171.2016 
L 63.50812 172.336312 
L 64.119506 173.289162 
L 64.219636 173.444711 
L 64.290662 173.55372 
L 64.461197 173.817309 
L 64.771273 174.292661 
L 64.924583 174.528 
L 65.042401 174.713129 
L 65.561506 175.50228 
L 66.010017 176.188948 
L 66.63385 177.132394 
L 66.846886 177.453612 
L 67.115064 177.8544 
L 67.815674 178.899837 
L 68.701581 180.20652 
L 68.955399 180.583221 
L 69.095146 180.78486 
L 69.370114 181.1808 
L 69.915604 181.982505 
L 70.032882 182.15508 
L 70.214563 182.418539 
L 70.71441 183.137164 
L 71.471554 184.224322 
L 71.670684 184.5072 
L 72.612343 185.84245 
L 73.303449 186.814389 
L 73.32117 186.839244 
L 73.33563 186.85932 
L 73.379203 186.920112 
L 74.037199 187.8336 
L 74.128416 187.962673 
L 74.174601 188.027836 
L 74.741137 188.80788 
L 75.185309 189.422462 
L 75.723187 190.159002 
L 76.02485 190.571101 
L 76.459245 191.16 
L 77.062734 191.976676 
L 78.208643 193.51212 
L 78.331469 193.677405 
L 78.947016 194.4864 
L 79.568188 195.314762 
L 79.680162 195.46068 
L 80.856682 196.999748 
L 81.483958 197.8128 
L 81.904687 198.357104 
L 82.17779 198.707872 
L 82.77248 199.470188 
L 83.319223 200.16492 
L 83.854474 200.847303 
L 83.930267 200.942072 
L 84.08822 201.1392 
L 84.445865 201.591322 
L 84.858514 202.11348 
L 85.378192 202.764268 
L 86.358043 203.983018 
L 86.63979 204.333103 
L 86.7473 204.4656 
L 87.846347 205.817272 
L 88.514072 206.633135 
L 88.590785 206.726705 
L 88.665989 206.81772 
L 89.008066 207.232752 
L 89.470039 207.792 
L 89.536516 207.873389 
L 90.279369 208.76628 
L 90.552928 209.095971 
L 90.829153 209.42616 
L 91.352727 210.051167 
L 92.252269 211.1184 
L 92.525644 211.442155 
L 93.167971 212.196902 
L 93.842711 212.989128 
L 94.255144 213.47052 
L 94.631035 213.905565 
L 95.096512 214.4448 
L 95.282216 214.661988 
L 95.369104 214.763341 
L 95.939339 215.41908 
L 96.501875 216.067287 
L 97.038172 216.680696 
L 97.378265 217.069266 
L 97.996067 217.7712 
L 98.504609 218.347939 
L 99.595844 219.576725 
L 99.887628 219.905087 
L 100.082597 220.12332 
L 100.27225 220.334017 
L 100.958964 221.0976 
L 101.341939 221.526474 
L 101.835815 222.07188 
L 102.53793 222.848438 
L 103.173457 223.546615 
L 103.33993 223.729067 
L 103.33993 221.0976 
L 103.33993 217.7712 
L 103.33993 214.4448 
L 103.33993 211.1184 
L 103.33993 207.792 
L 103.33993 204.4656 
L 103.33993 201.1392 
L 103.33993 197.8128 
L 103.33993 194.4864 
L 103.33993 191.16 
L 103.33993 187.8336 
L 103.33993 184.5072 
L 103.33993 181.1808 
L 103.33993 177.8544 
L 103.33993 174.528 
L 103.33993 171.2016 
" clip-path="url(#paa6c605888)" style="fill: #00e4f8"/>
   </g>
   <g id="PathCollection_5">
    <path d="M 103.33993 223.729067 
L 103.173457 223.546615 
L 102.53793 222.848438 
L 101.835815 222.07188 
L 101.341939 221.526474 
L 100.958964 221.0976 
L 100.27225 220.334017 
L 100.082597 220.12332 
L 99.887628 219.905087 
L 99.595844 219.576725 
L 98.504609 218.347939 
L 97.996067 217.7712 
L 97.378265 217.069266 
L 97.038172 216.680696 
L 96.501875 216.067287 
L 95.939339 215.41908 
L 95.369104 214.763341 
L 95.282216 214.661988 
L 95.096512 214.4448 
L 94.631035 213.905565 
L 94.255144 213.47052 
L 93.842711 212.989128 
L 93.167971 212.196902 
L 92.525644 211.442155 
L 92.252269 211.1184 
L 91.352727 210.051167 
L 90.829153 209.42616 
L 90.552928 209.095971 
L 90.279369 208.76628 
L 89.536516 207.873389 
L 89.470039 207.792 
L 89.008066 207.232752 
L 88.665989 206.81772 
L 88.590785 206.726705 
L 88.514072 206.633135 
L 87.846347 205.817272 
L 86.7473 204.4656 
L 86.63979 204.333103 
L 86.358043 203.983018 
L 85.378192 202.764268 
L 84.858514 202.11348 
L 84.445865 201.591322 
L 84.08822 201.1392 
L 83.930267 200.942072 
L 83.854474 200.847303 
L 83.319223 200.16492 
L 82.77248 199.470188 
L 82.17779 198.707872 
L 81.904687 198.357104 
L 81.483958 197.8128 
L 80.856682 196.999748 
L 79.680162 195.46068 
L 79.568188 195.314762 
L 78.947016 194.4864 
L 78.331469 193.677405 
L 78.208643 193.51212 
L 77.062734 191.976676 
L 76.459245 191.16 
L 76.02485 190.571101 
L 75.723187 190.159002 
L 75.185309 189.422462 
L 74.741137 188.80788 
L 74.174601 188.027836 
L 74.128416 187.962673 
L 74.037199 187.8336 
L 73.379203 186.920112 
L 73.33563 186.85932 
L 73.32117 186.839244 
L 73.303449 186.814389 
L 72.612343 185.84245 
L 71.670684 184.5072 
L 71.471554 184.224322 
L 70.71441 183.137164 
L 70.214563 182.418539 
L 70.032882 182.15508 
L 69.915604 181.982505 
L 69.370114 181.1808 
L 69.095146 180.78486 
L 68.955399 180.583221 
L 68.701581 180.20652 
L 67.815674 178.899837 
L 67.115064 177.8544 
L 66.846886 177.453612 
L 66.63385 177.132394 
L 66.010017 176.188948 
L 65.561506 175.50228 
L 65.042401 174.713129 
L 64.924583 174.528 
L 64.771273 174.292661 
L 64.461197 173.817309 
L 64.290662 173.55372 
L 64.219636 173.444711 
L 64.119506 173.289162 
L 63.50812 172.336312 
L 62.787014 171.2016 
L 62.445915 170.664102 
L 61.309029 168.84948 
L 61.241144 168.741994 
L 61.057056 168.440308 
L 60.713189 167.8752 
L 60.344193 167.285729 
L 60.149276 166.973652 
L 60.10544 166.90092 
L 58.947254 164.996394 
L 58.678847 164.5488 
L 57.881184 163.217412 
L 57.62857 162.790953 
L 57.62857 164.5488 
L 57.62857 167.8752 
L 57.62857 171.2016 
L 57.62857 174.528 
L 57.62857 177.8544 
L 57.62857 181.1808 
L 57.62857 184.5072 
L 57.62857 187.8336 
L 57.62857 191.16 
L 57.62857 194.4864 
L 57.62857 197.8128 
L 57.62857 201.1392 
L 57.62857 204.4656 
L 57.62857 207.792 
L 57.62857 211.1184 
L 57.62857 214.4448 
L 57.62857 217.7712 
L 57.62857 219.684809 
L 58.013139 220.25805 
L 58.578403 221.0976 
L 58.794877 221.420788 
L 59.238898 222.07188 
L 59.829515 222.945538 
L 60.610129 224.076862 
L 60.713346 224.227137 
L 60.850636 224.424 
L 61.662751 225.596219 
L 62.496632 226.77612 
L 62.799425 227.208095 
L 62.928623 227.389907 
L 63.188554 227.7504 
L 63.722644 228.504348 
L 63.88107 228.72468 
L 64.109071 229.044233 
L 64.672037 229.82132 
L 65.375983 230.795501 
L 65.583183 231.0768 
L 66.526263 232.365837 
L 67.183285 233.250559 
L 67.254604 233.347104 
L 67.316185 233.42892 
L 67.522427 233.704993 
L 67.898513 234.207334 
L 68.04414 234.4032 
L 68.110911 234.494022 
L 68.144445 234.538938 
L 68.77712 235.37748 
L 69.146172 235.87044 
L 69.571182 236.42736 
L 69.966495 236.948364 
L 70.56795 237.7296 
L 71.051913 238.362838 
L 72.390527 240.08172 
L 72.402408 240.09709 
L 73.157641 241.056 
L 73.668639 241.707761 
L 73.92615 242.03028 
L 74.902563 243.262122 
L 75.806926 244.3824 
L 75.892779 244.489572 
L 75.945832 244.554843 
L 76.846757 245.670573 
L 77.721444 246.73452 
L 78.058138 247.146968 
L 78.524371 247.7088 
L 79.091502 248.397596 
L 79.329981 248.68308 
L 79.392472 248.758716 
L 79.500526 248.887643 
L 80.770847 250.409533 
L 81.302346 251.0352 
L 81.878291 251.71862 
L 82.211627 252.108605 
L 82.749607 252.742521 
L 83.306385 253.38732 
L 83.875398 254.050782 
L 83.960492 254.149524 
L 84.145829 254.3616 
L 84.608068 254.893941 
L 84.989621 255.33588 
L 85.409684 255.820691 
L 86.06581 256.567447 
L 86.739533 257.337754 
L 87.051124 257.688 
L 87.916659 258.669095 
L 88.38919 259.197352 
L 88.749301 259.60305 
L 89.143846 260.04012 
L 89.842428 260.819163 
L 89.897493 260.880389 
L 90.019711 261.0144 
L 90.339652 261.367085 
L 90.900485 261.98868 
L 91.475815 262.624841 
L 92.299356 263.523037 
L 92.798092 264.069777 
L 93.049465 264.3408 
L 94.001223 265.376097 
L 94.494526 265.905431 
L 94.835611 266.274491 
L 95.228749 266.69292 
L 95.947363 267.462842 
L 96.006541 267.526166 
L 96.140197 267.6672 
L 96.506625 268.055555 
L 97.056603 268.64148 
L 97.58474 269.20345 
L 98.28595 269.93951 
L 98.936871 270.626672 
L 99.290179 270.9936 
L 100.126202 271.870092 
L 100.54002 272.298112 
L 100.999162 272.777305 
L 101.552721 273.34572 
L 102.178396 273.992494 
L 102.498318 274.32 
L 103.070536 274.90811 
L 103.33993 275.187514 
L 103.33993 274.32 
L 103.33993 270.9936 
L 103.33993 267.6672 
L 103.33993 264.3408 
L 103.33993 261.0144 
L 103.33993 257.688 
L 103.33993 254.3616 
L 103.33993 251.0352 
L 103.33993 247.7088 
L 103.33993 244.3824 
L 103.33993 241.056 
L 103.33993 237.7296 
L 103.33993 234.4032 
L 103.33993 231.0768 
L 103.33993 227.7504 
L 103.33993 224.424 
" clip-path="url(#paa6c605888)" style="fill: #53ffa4"/>
   </g>
   <g id="PathCollection_6">
    <path d="M 103.33993 275.187514 
L 103.070536 274.90811 
L 102.498318 274.32 
L 102.178396 273.992494 
L 101.552721 273.34572 
L 100.999162 272.777305 
L 100.54002 272.298112 
L 100.126202 271.870092 
L 99.290179 270.9936 
L 98.936871 270.626672 
L 98.28595 269.93951 
L 97.58474 269.20345 
L 97.056603 268.64148 
L 96.506625 268.055555 
L 96.140197 267.6672 
L 96.006541 267.526166 
L 95.947363 267.462842 
L 95.228749 266.69292 
L 94.835611 266.274491 
L 94.494526 265.905431 
L 94.001223 265.376097 
L 93.049465 264.3408 
L 92.798092 264.069777 
L 92.299356 263.523037 
L 91.475815 262.624841 
L 90.900485 261.98868 
L 90.339652 261.367085 
L 90.019711 261.0144 
L 89.897493 260.880389 
L 89.842428 260.819163 
L 89.143846 260.04012 
L 88.749301 259.60305 
L 88.38919 259.197352 
L 87.916659 258.669095 
L 87.051124 257.688 
L 86.739533 257.337754 
L 86.06581 256.567447 
L 85.409684 255.820691 
L 84.989621 255.33588 
L 84.608068 254.893941 
L 84.145829 254.3616 
L 83.960492 254.149524 
L 83.875398 254.050782 
L 83.306385 253.38732 
L 82.749607 252.742521 
L 82.211627 252.108605 
L 81.878291 251.71862 
L 81.302346 251.0352 
L 80.770847 250.409533 
L 79.500526 248.887643 
L 79.392472 248.758716 
L 79.329981 248.68308 
L 79.091502 248.397596 
L 78.524371 247.7088 
L 78.058138 247.146968 
L 77.721444 246.73452 
L 76.846757 245.670573 
L 75.945832 244.554843 
L 75.892779 244.489572 
L 75.806926 244.3824 
L 74.902563 243.262122 
L 73.92615 242.03028 
L 73.668639 241.707761 
L 73.157641 241.056 
L 72.402408 240.09709 
L 72.390527 240.08172 
L 71.051913 238.362838 
L 70.56795 237.7296 
L 69.966495 236.948364 
L 69.571182 236.42736 
L 69.146172 235.87044 
L 68.77712 235.37748 
L 68.144445 234.538938 
L 68.110911 234.494022 
L 68.04414 234.4032 
L 67.898513 234.207334 
L 67.522427 233.704993 
L 67.316185 233.42892 
L 67.254604 233.347104 
L 67.183285 233.250559 
L 66.526263 232.365837 
L 65.583183 231.0768 
L 65.375983 230.795501 
L 64.672037 229.82132 
L 64.109071 229.044233 
L 63.88107 228.72468 
L 63.722644 228.504348 
L 63.188554 227.7504 
L 62.928623 227.389907 
L 62.799425 227.208095 
L 62.496632 226.77612 
L 61.662751 225.596219 
L 60.850636 224.424 
L 60.713346 224.227137 
L 60.610129 224.076862 
L 59.829515 222.945538 
L 59.238898 222.07188 
L 58.794877 221.420788 
L 58.578403 221.0976 
L 58.013139 220.25805 
L 57.62857 219.684809 
L 57.62857 221.0976 
L 57.62857 224.424 
L 57.62857 227.7504 
L 57.62857 231.0768 
L 57.62857 234.4032 
L 57.62857 237.7296 
L 57.62857 241.056 
L 57.62857 244.3824 
L 57.62857 247.7088 
L 57.62857 251.0352 
L 57.62857 254.3616 
L 57.62857 257.688 
L 57.62857 261.0144 
L 57.62857 264.3408 
L 57.62857 267.6672 
L 57.62857 270.9936 
L 57.62857 274.32 
L 57.62857 277.6464 
L 57.62857 280.9728 
L 57.62857 284.2992 
L 57.62857 287.367632 
L 57.699759 287.470187 
L 57.805517 287.6256 
L 58.315157 288.382583 
L 58.464632 288.59988 
L 59.516361 290.157182 
L 60.072436 290.952 
L 60.54434 291.645873 
L 60.905753 292.162936 
L 61.349316 292.808477 
L 61.702045 293.30412 
L 62.311802 294.177035 
L 62.335538 294.211223 
L 62.383878 294.2784 
L 62.484525 294.41926 
L 62.709025 294.73896 
L 63.069238 295.25268 
L 63.194015 295.434133 
L 63.35419 295.658805 
L 63.935227 296.488473 
L 64.73868 297.6048 
L 65.045729 298.044476 
L 66.142615 299.559726 
L 66.346103 299.843363 
L 66.42982 299.95692 
L 66.633181 300.245716 
L 67.134064 300.9312 
L 67.437821 301.354905 
L 67.593918 301.564761 
L 67.845291 301.90548 
L 68.780022 303.197778 
L 69.574422 304.2576 
L 69.767761 304.523782 
L 69.903164 304.705055 
L 70.662403 305.741172 
L 71.321874 306.60972 
L 71.763356 307.202962 
L 72.052628 307.584 
L 72.86569 307.584 
L 74.389402 307.584 
L 75.913114 307.584 
L 77.436826 307.584 
L 78.960538 307.584 
L 80.48425 307.584 
L 82.007962 307.584 
L 83.531674 307.584 
L 85.055386 307.584 
L 86.579098 307.584 
L 88.10281 307.584 
L 89.626522 307.584 
L 91.150234 307.584 
L 92.673946 307.584 
L 94.197658 307.584 
L 95.72137 307.584 
L 97.245082 307.584 
L 98.768794 307.584 
L 100.292506 307.584 
L 101.816218 307.584 
L 103.33993 307.584 
L 103.33993 304.2576 
L 103.33993 300.9312 
L 103.33993 297.6048 
L 103.33993 294.2784 
L 103.33993 290.952 
L 103.33993 287.6256 
L 103.33993 284.2992 
L 103.33993 280.9728 
L 103.33993 277.6464 
" clip-path="url(#paa6c605888)" style="fill: #a4ff53"/>
   </g>
   <g id="PathCollection_7">
    <path d="M 72.052628 307.584 
L 71.763356 307.202962 
L 71.321874 306.60972 
L 70.662403 305.741172 
L 69.903164 304.705055 
L 69.767761 304.523782 
L 69.574422 304.2576 
L 68.780022 303.197778 
L 67.845291 301.90548 
L 67.593918 301.564761 
L 67.437821 301.354905 
L 67.134064 300.9312 
L 66.633181 300.245716 
L 66.42982 299.95692 
L 66.346103 299.843363 
L 66.142615 299.559726 
L 65.045729 298.044476 
L 64.73868 297.6048 
L 63.935227 296.488473 
L 63.35419 295.658805 
L 63.194015 295.434133 
L 63.069238 295.25268 
L 62.709025 294.73896 
L 62.484525 294.41926 
L 62.383878 294.2784 
L 62.335538 294.211223 
L 62.311802 294.177035 
L 61.702045 293.30412 
L 61.349316 292.808477 
L 60.905753 292.162936 
L 60.54434 291.645873 
L 60.072436 290.952 
L 59.516361 290.157182 
L 58.464632 288.59988 
L 58.315157 288.382583 
L 57.805517 287.6256 
L 57.699759 287.470187 
L 57.62857 287.367632 
L 57.62857 287.6256 
L 57.62857 290.952 
L 57.62857 294.2784 
L 57.62857 297.6048 
L 57.62857 300.9312 
L 57.62857 304.2576 
L 57.62857 307.584 
L 59.152282 307.584 
L 60.675994 307.584 
L 62.199706 307.584 
L 63.723418 307.584 
L 65.24713 307.584 
L 66.770842 307.584 
L 68.294554 307.584 
L 69.818266 307.584 
L 71.341978 307.584 
" clip-path="url(#paa6c605888)" style="fill: #f8f500"/>
   </g>
   <g id="PathCollection_8">
    <path clip-path="url(#paa6c605888)" style="fill: #ff9400"/>
   </g>
   <g id="PathCollection_9">
    <path clip-path="url(#paa6c605888)" style="fill: #ff3800"/>
   </g>
   <g id="PathCollection_10">
    <path clip-path="url(#paa6c605888)" style="fill: #b60000"/>
   </g>
   <g id="PathCollection_11">
    <path d="M 155.644877 41.472 
L 155.993889 41.981986 
L 157.562832 44.07008 
L 159.838622 47.36046 
L 161.897476 50.3424 
L 164.0583 53.395002 
L 166.328735 56.61472 
L 166.555991 56.869686 
L 168.439666 59.2128 
L 169.108317 60.25509 
L 169.499005 60.941216 
L 170.17264 61.81088 
L 174.095592 67.21891 
L 174.713446 68.0832 
L 179.134826 74.080079 
L 179.335429 74.35552 
L 179.410012 74.449681 
L 181.542186 76.9536 
L 182.688823 78.643556 
L 183.234588 79.55168 
L 183.595679 80.01944 
L 188.007684 85.824 
L 188.696918 86.700005 
L 192.833913 92.09632 
L 193.427308 92.910102 
L 194.954746 94.6944 
L 196.044036 96.319866 
L 196.752978 97.29248 
L 198.920774 100.046912 
L 201.625739 103.5648 
L 203.521757 105.936169 
L 206.526966 109.83712 
L 207.756045 111.495486 
L 208.071806 111.842866 
L 208.552274 112.4352 
L 209.920547 114.357394 
L 210.472839 115.03328 
L 210.907507 115.583477 
L 212.323066 117.449928 
L 214.292424 119.951223 
L 215.326214 121.3056 
L 218.378983 125.136843 
L 220.231833 127.57792 
L 222.078382 130.083775 
L 222.154261 130.176 
L 222.285254 130.362126 
L 224.222104 132.77408 
L 225.781634 134.765631 
L 228.961705 139.0464 
L 229.640099 139.91896 
L 230.972984 141.700063 
L 233.119282 144.465649 
L 233.742235 145.31872 
L 234.414334 146.259905 
L 235.753815 147.9168 
L 236.311657 148.712489 
L 237.70119 150.51488 
L 240.461307 154.160871 
L 242.32304 156.7872 
L 244.867211 160.205653 
L 246.893984 163.05952 
L 247.183508 163.393847 
L 248.906258 165.6576 
L 250.152294 167.519424 
L 250.681386 168.25568 
L 254.748109 173.98663 
L 255.102355 174.528 
L 257.716685 178.32241 
L 259.461825 180.80032 
L 259.586033 180.978196 
L 260.318135 181.893003 
L 261.359804 183.3984 
L 262.640385 185.480294 
L 262.996463 185.99648 
L 264.114453 187.597666 
L 267.186076 192.2688 
L 268.592895 194.296762 
L 271.26894 198.54112 
L 272.356242 200.271005 
L 272.913956 201.1392 
L 273.797498 202.66159 
L 274.508005 203.73728 
L 275.20505 204.791794 
L 278.314155 210.0096 
L 278.454217 210.231887 
L 278.926685 211.037254 
L 281.615866 215.50746 
L 282.028747 216.28192 
L 282.387159 216.952806 
L 283.562376 218.88 
L 283.963856 219.542603 
L 284.187431 219.99004 
L 285.016859 221.47808 
L 287.811544 226.458878 
L 288.445636 227.7504 
L 290.858078 232.380392 
L 291.755631 234.02272 
L 291.876528 234.240714 
L 292.440004 235.179205 
L 293.141499 236.6208 
L 294.214833 238.757622 
L 294.395528 239.21888 
L 295.951721 242.252931 
L 297.461913 245.4912 
L 299.350691 249.295587 
L 300.386726 251.76352 
L 301.186774 253.61918 
L 301.55001 254.3616 
L 301.777834 254.835735 
L 302.699153 256.95968 
L 304.625117 261.256537 
L 305.355852 263.232 
L 307.30007 268.138744 
L 307.883737 269.50432 
L 307.995727 269.754197 
L 308.425481 270.711439 
L 308.888306 272.1024 
L 309.458542 273.749818 
L 309.878165 274.70048 
L 311.583266 279.210473 
L 312.164367 280.9728 
L 314.085315 286.371411 
L 314.321869 287.24512 
L 314.482693 287.787394 
L 314.75973 288.787617 
L 315.152377 289.8432 
L 315.707136 291.343224 
L 316.004664 292.44128 
L 317.341624 296.883335 
L 317.953816 298.7136 
L 318.255088 299.542868 
L 319.737101 304.98592 
L 320.357406 306.97324 
L 320.488873 307.584 
L 327.10656 307.584 
L 335.20128 307.584 
L 343.296 307.584 
L 343.296 298.7136 
L 343.296 289.8432 
L 343.296 280.9728 
L 343.296 272.1024 
L 343.296 263.232 
L 343.296 254.3616 
L 343.296 245.4912 
L 343.296 236.6208 
L 343.296 227.7504 
L 343.296 218.88 
L 343.296 210.0096 
L 343.296 201.1392 
L 343.296 192.2688 
L 343.296 183.3984 
L 343.296 174.528 
L 343.296 165.6576 
L 343.296 156.7872 
L 343.296 147.9168 
L 343.296 139.0464 
L 343.296 130.176 
L 343.296 121.3056 
L 343.296 112.4352 
L 343.296 103.5648 
L 343.296 94.6944 
L 343.296 85.824 
L 343.296 76.9536 
L 343.296 68.0832 
L 343.296 59.2128 
L 343.296 50.3424 
L 343.296 41.472 
L 335.20128 41.472 
L 327.10656 41.472 
L 319.01184 41.472 
L 310.91712 41.472 
L 302.8224 41.472 
L 294.72768 41.472 
L 286.63296 41.472 
L 278.53824 41.472 
L 270.44352 41.472 
L 262.3488 41.472 
L 254.25408 41.472 
L 246.15936 41.472 
L 238.06464 41.472 
L 229.96992 41.472 
L 221.8752 41.472 
L 213.78048 41.472 
L 205.68576 41.472 
L 197.59104 41.472 
L 189.49632 41.472 
L 181.4016 41.472 
L 173.30688 41.472 
L 165.21216 41.472 
L 157.11744 41.472 
" clip-path="url(#paa6c605888)" style="fill: #0000b6"/>
   </g>
   <g id="PathCollection_12">
    <path d="M 320.488873 307.584 
L 320.357406 306.97324 
L 319.737101 304.98592 
L 318.255088 299.542868 
L 317.953816 298.7136 
L 317.341624 296.883335 
L 316.004664 292.44128 
L 315.707136 291.343224 
L 315.152377 289.8432 
L 314.75973 288.787617 
L 314.482693 287.787394 
L 314.321869 287.24512 
L 314.085315 286.371411 
L 312.164367 280.9728 
L 311.583266 279.210473 
L 309.878165 274.70048 
L 309.458542 273.749818 
L 308.888306 272.1024 
L 308.425481 270.711439 
L 307.995727 269.754197 
L 307.883737 269.50432 
L 307.30007 268.138744 
L 305.355852 263.232 
L 304.625117 261.256537 
L 302.699153 256.95968 
L 301.777834 254.835735 
L 301.55001 254.3616 
L 301.186774 253.61918 
L 300.386726 251.76352 
L 299.350691 249.295587 
L 297.461913 245.4912 
L 295.951721 242.252931 
L 294.395528 239.21888 
L 294.214833 238.757622 
L 293.141499 236.6208 
L 292.440004 235.179205 
L 291.876528 234.240714 
L 291.755631 234.02272 
L 290.858078 232.380392 
L 288.445636 227.7504 
L 287.811544 226.458878 
L 285.016859 221.47808 
L 284.187431 219.99004 
L 283.963856 219.542603 
L 283.562376 218.88 
L 282.387159 216.952806 
L 282.028747 216.28192 
L 281.615866 215.50746 
L 278.926685 211.037254 
L 278.454217 210.231887 
L 278.314155 210.0096 
L 275.20505 204.791794 
L 274.508005 203.73728 
L 273.797498 202.66159 
L 272.913956 201.1392 
L 272.356242 200.271005 
L 271.26894 198.54112 
L 268.592895 194.296762 
L 267.186076 192.2688 
L 264.114453 187.597666 
L 262.996463 185.99648 
L 262.640385 185.480294 
L 261.359804 183.3984 
L 260.318135 181.893003 
L 259.586033 180.978196 
L 259.461825 180.80032 
L 257.716685 178.32241 
L 255.102355 174.528 
L 254.748109 173.98663 
L 250.681386 168.25568 
L 250.152294 167.519424 
L 248.906258 165.6576 
L 247.183508 163.393847 
L 246.893984 163.05952 
L 244.867211 160.205653 
L 242.32304 156.7872 
L 240.461307 154.160871 
L 237.70119 150.51488 
L 236.311657 148.712489 
L 235.753815 147.9168 
L 234.414334 146.259905 
L 233.742235 145.31872 
L 233.119282 144.465649 
L 230.972984 141.700063 
L 229.640099 139.91896 
L 228.961705 139.0464 
L 225.781634 134.765631 
L 224.222104 132.77408 
L 222.285254 130.362126 
L 222.154261 130.176 
L 222.078382 130.083775 
L 220.231833 127.57792 
L 218.378983 125.136843 
L 215.326214 121.3056 
L 214.292424 119.951223 
L 212.323066 117.449928 
L 210.907507 115.583477 
L 210.472839 115.03328 
L 209.920547 114.357394 
L 208.552274 112.4352 
L 208.071806 111.842866 
L 207.756045 111.495486 
L 206.526966 109.83712 
L 203.521757 105.936169 
L 201.625739 103.5648 
L 198.920774 100.046912 
L 196.752978 97.29248 
L 196.044036 96.319866 
L 194.954746 94.6944 
L 193.427308 92.910102 
L 192.833913 92.09632 
L 188.696918 86.700005 
L 188.007684 85.824 
L 183.595679 80.01944 
L 183.234588 79.55168 
L 182.688823 78.643556 
L 181.542186 76.9536 
L 179.410012 74.449681 
L 179.335429 74.35552 
L 179.134826 74.080079 
L 174.713446 68.0832 
L 174.095592 67.21891 
L 170.17264 61.81088 
L 169.499005 60.941216 
L 169.108317 60.25509 
L 168.439666 59.2128 
L 166.555991 56.869686 
L 166.328735 56.61472 
L 164.0583 53.395002 
L 161.897476 50.3424 
L 159.838622 47.36046 
L 157.562832 44.07008 
L 155.993889 41.981986 
L 155.644877 41.472 
L 149.02272 41.472 
L 140.928 41.472 
L 132.83328 41.472 
L 124.73856 41.472 
L 116.64384 41.472 
L 108.54912 41.472 
L 100.4544 41.472 
L 100.4544 50.3424 
L 100.4544 59.2128 
L 100.4544 68.0832 
L 100.4544 76.9536 
L 100.4544 85.824 
L 100.4544 93.468056 
L 100.92607 94.177532 
L 101.298169 94.6944 
L 103.000222 97.213077 
L 103.060948 97.29248 
L 103.808762 98.370195 
L 107.489228 103.5648 
L 107.954889 104.215974 
L 112.097881 109.83712 
L 112.605349 110.594054 
L 114.198984 112.4352 
L 115.68207 114.683467 
L 115.895443 115.03328 
L 117.987104 117.751918 
L 120.753447 121.3056 
L 122.605972 123.642545 
L 125.765677 127.57792 
L 126.960239 129.167567 
L 127.314543 129.536514 
L 127.88493 130.176 
L 128.57092 131.127381 
L 129.484718 132.330308 
L 129.863072 132.77408 
L 130.143628 133.12339 
L 130.987895 134.164328 
L 133.532091 137.197655 
L 135.085167 139.0464 
L 137.921921 142.340538 
L 140.483447 145.31872 
L 142.159634 147.357754 
L 142.696234 147.9168 
L 143.127767 148.462891 
L 143.731398 149.189279 
L 144.933841 150.51488 
L 145.772828 151.478114 
L 147.9754 154.016456 
L 149.449259 155.658766 
L 150.454752 156.7872 
L 153.796048 160.426866 
L 156.181554 163.05952 
L 158.082444 165.219579 
L 158.246306 165.37736 
L 158.516611 165.6576 
L 158.888348 166.097227 
L 159.430369 166.707452 
L 160.90163 168.25568 
L 161.878593 169.310608 
L 164.203643 171.859911 
L 165.643432 173.387044 
L 166.703197 174.528 
L 170.089881 178.05327 
L 172.667506 180.80032 
L 174.546208 182.835862 
L 174.759616 183.037759 
L 175.113247 183.3984 
L 176.386718 184.796356 
L 177.562003 185.99648 
L 178.317168 186.778398 
L 180.003316 188.56956 
L 182.01695 190.640857 
L 183.56486 192.2688 
L 186.646023 195.392227 
L 189.650276 198.54112 
L 191.326439 200.308499 
L 191.641757 200.606597 
L 192.163261 201.1392 
L 192.936782 201.993292 
L 194.122395 203.239002 
L 194.61636 203.73728 
L 194.93016 204.055059 
L 195.609784 204.768075 
L 198.471681 207.679815 
L 200.695612 210.0096 
L 203.29582 212.628557 
L 206.769709 216.28192 
L 208.171827 217.75156 
L 209.285229 218.88 
L 211.65602 221.416904 
L 211.708529 221.47808 
L 214.907974 224.76755 
L 217.705331 227.7504 
L 219.862033 229.95648 
L 223.629746 234.02272 
L 224.815082 235.286371 
L 226.074331 236.6208 
L 228.291585 239.046954 
L 228.435169 239.21888 
L 231.220279 242.183304 
L 234.193345 245.4912 
L 236.156739 247.581926 
L 239.834248 251.76352 
L 240.980092 253.03826 
L 242.140011 254.3616 
L 243.212782 255.639623 
L 244.390523 256.95968 
L 247.288497 260.244803 
L 249.786242 263.232 
L 251.974706 265.729796 
L 255.025315 269.50432 
L 256.387466 271.134044 
L 256.691628 271.49728 
L 257.146493 272.1024 
L 257.830848 272.99033 
L 258.804964 274.168072 
L 259.243558 274.70048 
L 259.598504 275.116244 
L 260.634488 276.437491 
L 262.962703 279.348684 
L 264.179396 280.9728 
L 267.082588 284.655795 
L 268.926354 287.24512 
L 270.762852 289.698253 
L 270.802928 289.753977 
L 270.859182 289.8432 
L 270.943376 289.967289 
L 271.057896 290.122069 
L 272.728033 292.44128 
L 274.290365 294.49813 
L 277.16249 298.7136 
L 278.064485 299.966945 
L 280.255842 303.257612 
L 281.204532 304.662209 
L 281.39572 304.98592 
L 281.593958 305.296768 
L 283.074767 307.584 
L 286.63296 307.584 
L 294.72768 307.584 
L 302.8224 307.584 
L 310.91712 307.584 
L 319.01184 307.584 
" clip-path="url(#paa6c605888)" style="fill: #0018ff"/>
   </g>
   <g id="PathCollection_13">
    <path d="M 283.074767 307.584 
L 281.593958 305.296768 
L 281.39572 304.98592 
L 281.204532 304.662209 
L 280.255842 303.257612 
L 278.064485 299.966945 
L 277.16249 298.7136 
L 274.290365 294.49813 
L 272.728033 292.44128 
L 271.057896 290.122069 
L 270.943376 289.967289 
L 270.859182 289.8432 
L 270.802928 289.753977 
L 270.762852 289.698253 
L 268.926354 287.24512 
L 267.082588 284.655795 
L 264.179396 280.9728 
L 262.962703 279.348684 
L 260.634488 276.437491 
L 259.598504 275.116244 
L 259.243558 274.70048 
L 258.804964 274.168072 
L 257.830848 272.99033 
L 257.146493 272.1024 
L 256.691628 271.49728 
L 256.387466 271.134044 
L 255.025315 269.50432 
L 251.974706 265.729796 
L 249.786242 263.232 
L 247.288497 260.244803 
L 244.390523 256.95968 
L 243.212782 255.639623 
L 242.140011 254.3616 
L 240.980092 253.03826 
L 239.834248 251.76352 
L 236.156739 247.581926 
L 234.193345 245.4912 
L 231.220279 242.183304 
L 228.435169 239.21888 
L 228.291585 239.046954 
L 226.074331 236.6208 
L 224.815082 235.286371 
L 223.629746 234.02272 
L 219.862033 229.95648 
L 217.705331 227.7504 
L 214.907974 224.76755 
L 211.708529 221.47808 
L 211.65602 221.416904 
L 209.285229 218.88 
L 208.171827 217.75156 
L 206.769709 216.28192 
L 203.29582 212.628557 
L 200.695612 210.0096 
L 198.471681 207.679815 
L 195.609784 204.768075 
L 194.93016 204.055059 
L 194.61636 203.73728 
L 194.122395 203.239002 
L 192.936782 201.993292 
L 192.163261 201.1392 
L 191.641757 200.606597 
L 191.326439 200.308499 
L 189.650276 198.54112 
L 186.646023 195.392227 
L 183.56486 192.2688 
L 182.01695 190.640857 
L 180.003316 188.56956 
L 178.317168 186.778398 
L 177.562003 185.99648 
L 176.386718 184.796356 
L 175.113247 183.3984 
L 174.759616 183.037759 
L 174.546208 182.835862 
L 172.667506 180.80032 
L 170.089881 178.05327 
L 166.703197 174.528 
L 165.643432 173.387044 
L 164.203643 171.859911 
L 161.878593 169.310608 
L 160.90163 168.25568 
L 159.430369 166.707452 
L 158.888348 166.097227 
L 158.516611 165.6576 
L 158.246306 165.37736 
L 158.082444 165.219579 
L 156.181554 163.05952 
L 153.796048 160.426866 
L 150.454752 156.7872 
L 149.449259 155.658766 
L 147.9754 154.016456 
L 145.772828 151.478114 
L 144.933841 150.51488 
L 143.731398 149.189279 
L 143.127767 148.462891 
L 142.696234 147.9168 
L 142.159634 147.357754 
L 140.483447 145.31872 
L 137.921921 142.340538 
L 135.085167 139.0464 
L 133.532091 137.197655 
L 130.987895 134.164328 
L 130.143628 133.12339 
L 129.863072 132.77408 
L 129.484718 132.330308 
L 128.57092 131.127381 
L 127.88493 130.176 
L 127.314543 129.536514 
L 126.960239 129.167567 
L 125.765677 127.57792 
L 122.605972 123.642545 
L 120.753447 121.3056 
L 117.987104 117.751918 
L 115.895443 115.03328 
L 115.68207 114.683467 
L 114.198984 112.4352 
L 112.605349 110.594054 
L 112.097881 109.83712 
L 107.954889 104.215974 
L 107.489228 103.5648 
L 103.808762 98.370195 
L 103.060948 97.29248 
L 103.000222 97.213077 
L 101.298169 94.6944 
L 100.92607 94.177532 
L 100.4544 93.468056 
L 100.4544 94.6944 
L 100.4544 103.5648 
L 100.4544 112.4352 
L 100.4544 121.3056 
L 100.4544 130.176 
L 100.4544 139.0464 
L 100.4544 147.9168 
L 100.4544 156.7872 
L 100.4544 165.6576 
L 100.4544 165.951361 
L 102.661889 168.687963 
L 107.499176 174.528 
L 108.001061 175.128577 
L 112.870374 180.80032 
L 113.250566 181.264387 
L 115.282643 183.3984 
L 116.890119 185.34677 
L 117.408625 185.99648 
L 118.538972 187.255122 
L 123.094572 192.2688 
L 123.920496 193.165255 
L 128.941696 198.54112 
L 129.38549 199.029932 
L 131.517512 201.1392 
L 133.475153 203.308053 
L 133.870623 203.73728 
L 134.831 204.724517 
L 139.992047 210.0096 
L 140.479853 210.500691 
L 146.240887 216.28192 
L 146.36759 216.410939 
L 148.973627 218.88 
L 151.471886 221.442549 
L 151.508854 221.47808 
L 157.524681 227.304135 
L 157.980979 227.7504 
L 163.293444 232.826471 
L 164.534967 234.02272 
L 165.142183 234.59392 
L 167.337462 236.6208 
L 169.238435 238.467491 
L 170.039043 239.21888 
L 174.886695 243.759999 
L 176.702002 245.4912 
L 180.17852 248.726928 
L 183.395397 251.76352 
L 184.977297 253.239756 
L 186.200868 254.3616 
L 187.274083 255.370286 
L 188.97465 256.95968 
L 192.361608 260.092145 
L 195.670868 263.232 
L 197.093412 264.548502 
L 198.640663 266.008837 
L 201.077908 268.281402 
L 202.346041 269.50432 
L 204.544135 271.58421 
L 205.09584 272.1024 
L 205.289541 272.282246 
L 207.832639 274.70048 
L 209.764911 276.502763 
L 213.425454 280.033558 
L 213.947186 280.531769 
L 214.395547 280.9728 
L 218.38865 284.79345 
L 220.843761 287.24512 
L 222.997146 289.333942 
L 223.181896 289.518814 
L 223.4916 289.8432 
L 224.024885 290.376858 
L 224.871511 291.203243 
L 226.12064 292.44128 
L 226.907793 293.198756 
L 228.483576 294.781393 
L 230.641743 296.936254 
L 232.357198 298.7136 
L 235.332143 301.70794 
L 238.417513 304.98592 
L 240.07293 306.672426 
L 240.913869 307.584 
L 246.15936 307.584 
L 254.25408 307.584 
L 262.3488 307.584 
L 270.44352 307.584 
L 278.53824 307.584 
" clip-path="url(#paa6c605888)" style="fill: #0080ff"/>
   </g>
   <g id="PathCollection_14">
    <path d="M 240.913869 307.584 
L 240.07293 306.672426 
L 238.417513 304.98592 
L 235.332143 301.70794 
L 232.357198 298.7136 
L 230.641743 296.936254 
L 228.483576 294.781393 
L 226.907793 293.198756 
L 226.12064 292.44128 
L 224.871511 291.203243 
L 224.024885 290.376858 
L 223.4916 289.8432 
L 223.181896 289.518814 
L 222.997146 289.333942 
L 220.843761 287.24512 
L 218.38865 284.79345 
L 214.395547 280.9728 
L 213.947186 280.531769 
L 213.425454 280.033558 
L 209.764911 276.502763 
L 207.832639 274.70048 
L 205.289541 272.282246 
L 205.09584 272.1024 
L 204.544135 271.58421 
L 202.346041 269.50432 
L 201.077908 268.281402 
L 198.640663 266.008837 
L 197.093412 264.548502 
L 195.670868 263.232 
L 192.361608 260.092145 
L 188.97465 256.95968 
L 187.274083 255.370286 
L 186.200868 254.3616 
L 184.977297 253.239756 
L 183.395397 251.76352 
L 180.17852 248.726928 
L 176.702002 245.4912 
L 174.886695 243.759999 
L 170.039043 239.21888 
L 169.238435 238.467491 
L 167.337462 236.6208 
L 165.142183 234.59392 
L 164.534967 234.02272 
L 163.293444 232.826471 
L 157.980979 227.7504 
L 157.524681 227.304135 
L 151.508854 221.47808 
L 151.471886 221.442549 
L 148.973627 218.88 
L 146.36759 216.410939 
L 146.240887 216.28192 
L 140.479853 210.500691 
L 139.992047 210.0096 
L 134.831 204.724517 
L 133.870623 203.73728 
L 133.475153 203.308053 
L 131.517512 201.1392 
L 129.38549 199.029932 
L 128.941696 198.54112 
L 123.920496 193.165255 
L 123.094572 192.2688 
L 118.538972 187.255122 
L 117.408625 185.99648 
L 116.890119 185.34677 
L 115.282643 183.3984 
L 113.250566 181.264387 
L 112.870374 180.80032 
L 108.001061 175.128577 
L 107.499176 174.528 
L 102.661889 168.687963 
L 100.4544 165.951361 
L 100.4544 174.528 
L 100.4544 183.3984 
L 100.4544 192.2688 
L 100.4544 201.1392 
L 100.4544 210.0096 
L 100.4544 218.88 
L 100.4544 220.533172 
L 102.375592 222.667778 
L 107.066515 227.7504 
L 107.810958 228.559297 
L 113.022169 234.02272 
L 113.394204 234.421588 
L 115.608302 236.6208 
L 117.352222 238.454453 
L 118.087427 239.21888 
L 118.757748 239.898737 
L 124.383661 245.4912 
L 124.5696 245.67635 
L 127.506771 248.524676 
L 130.565563 251.490575 
L 130.851059 251.76352 
L 131.755927 252.619543 
L 133.615567 254.3616 
L 135.962666 256.615393 
L 136.333551 256.95968 
L 141.906717 262.159497 
L 143.071934 263.232 
L 147.490428 267.285765 
L 149.931398 269.50432 
L 150.243277 269.789889 
L 152.803124 272.1024 
L 154.24742 273.405119 
L 155.689967 274.70048 
L 159.625333 278.224587 
L 162.71848 280.9728 
L 164.586057 282.629192 
L 166.464535 284.28603 
L 168.574145 286.159051 
L 169.798183 287.24512 
L 172.170365 289.327329 
L 172.7506 289.8432 
L 172.941905 290.008864 
L 175.68501 292.44128 
L 177.542475 294.072127 
L 180.687809 296.825225 
L 181.757903 297.770979 
L 182.82122 298.7136 
L 186.51478 301.980847 
L 189.896967 304.98592 
L 191.718927 306.575146 
L 192.849764 307.584 
L 197.59104 307.584 
L 205.68576 307.584 
L 213.78048 307.584 
L 221.8752 307.584 
L 229.96992 307.584 
L 238.06464 307.584 
" clip-path="url(#paa6c605888)" style="fill: #00e4f8"/>
   </g>
   <g id="PathCollection_15">
    <path d="M 192.849764 307.584 
L 191.718927 306.575146 
L 189.896967 304.98592 
L 186.51478 301.980847 
L 182.82122 298.7136 
L 181.757903 297.770979 
L 180.687809 296.825225 
L 177.542475 294.072127 
L 175.68501 292.44128 
L 172.941905 290.008864 
L 172.7506 289.8432 
L 172.170365 289.327329 
L 169.798183 287.24512 
L 168.574145 286.159051 
L 166.464535 284.28603 
L 164.586057 282.629192 
L 162.71848 280.9728 
L 159.625333 278.224587 
L 155.689967 274.70048 
L 154.24742 273.405119 
L 152.803124 272.1024 
L 150.243277 269.789889 
L 149.931398 269.50432 
L 147.490428 267.285765 
L 143.071934 263.232 
L 141.906717 262.159497 
L 136.333551 256.95968 
L 135.962666 256.615393 
L 133.615567 254.3616 
L 131.755927 252.619543 
L 130.851059 251.76352 
L 130.565563 251.490575 
L 127.506771 248.524676 
L 124.5696 245.67635 
L 124.383661 245.4912 
L 118.757748 239.898737 
L 118.087427 239.21888 
L 117.352222 238.454453 
L 115.608302 236.6208 
L 113.394204 234.421588 
L 113.022169 234.02272 
L 107.810958 228.559297 
L 107.066515 227.7504 
L 102.375592 222.667778 
L 100.4544 220.533172 
L 100.4544 227.7504 
L 100.4544 236.6208 
L 100.4544 245.4912 
L 100.4544 254.3616 
L 100.4544 263.232 
L 100.4544 272.1024 
L 100.4544 272.209713 
L 102.116637 273.923921 
L 102.855262 274.686875 
L 102.868911 274.70048 
L 108.797795 280.700295 
L 109.081123 280.9728 
L 114.592017 286.401014 
L 115.480929 287.24512 
L 116.170088 287.9513 
L 118.143764 289.8432 
L 120.287272 291.863665 
L 120.903208 292.44128 
L 126.033548 297.294519 
L 127.604342 298.7136 
L 131.47433 302.308779 
L 134.455976 304.98592 
L 134.863212 305.359549 
L 137.306667 307.584 
L 140.928 307.584 
L 149.02272 307.584 
L 157.11744 307.584 
L 165.21216 307.584 
L 173.30688 307.584 
L 181.4016 307.584 
L 189.49632 307.584 
" clip-path="url(#paa6c605888)" style="fill: #53ffa4"/>
   </g>
   <g id="PathCollection_16">
    <path d="M 137.306667 307.584 
L 134.863212 305.359549 
L 134.455976 304.98592 
L 131.47433 302.308779 
L 127.604342 298.7136 
L 126.033548 297.294519 
L 120.903208 292.44128 
L 120.287272 291.863665 
L 118.143764 289.8432 
L 116.170088 287.9513 
L 115.480929 287.24512 
L 114.592017 286.401014 
L 109.081123 280.9728 
L 108.797795 280.700295 
L 102.868911 274.70048 
L 102.855262 274.686875 
L 102.116637 273.923921 
L 100.4544 272.209713 
L 100.4544 280.9728 
L 100.4544 289.8432 
L 100.4544 298.7136 
L 100.4544 307.584 
L 108.54912 307.584 
L 116.64384 307.584 
L 124.73856 307.584 
L 132.83328 307.584 
" clip-path="url(#paa6c605888)" style="fill: #a4ff53"/>
   </g>
   <g id="PathCollection_17">
    <path clip-path="url(#paa6c605888)" style="fill: #f8f500"/>
   </g>
   <g id="PathCollection_18">
    <path clip-path="url(#paa6c605888)" style="fill: #ff9400"/>
   </g>
   <g id="PathCollection_19">
    <path clip-path="url(#paa6c605888)" style="fill: #ff3800"/>
   </g>
   <g id="PathCollection_20">
    <path clip-path="url(#paa6c605888)" style="fill: #b60000"/>
   </g>
   <g id="matplotlib.axis_1">
    <g id="xtick_1">
     <g id="line2d_1">
      <defs>
       <path id="m3bf5a05403" d="M 0 0 
L 0 3.5 
" style="stroke: #000000; stroke-width: 0.8"/>
      </defs>
      <g>
       <use xlink:href="#m3bf5a05403" x="57.6" y="307.584" style="stroke: #000000; stroke-width: 0.8"/>
      </g>
     </g>
     <g id="text_1">
      <!-- 0.0 -->
      <g transform="translate(51.26875 321.385562) scale(0.1 -0.1)">
       <defs>
        <path id="Calibri-30" d="M 3022 2031 
Q 3022 1566 2948 1181 
Q 2875 797 2704 520 
Q 2534 244 2259 92 
Q 1984 -59 1581 -59 
Q 1200 -59 939 77 
Q 678 213 518 477 
Q 359 741 292 1127 
Q 225 1513 225 2013 
Q 225 2475 300 2861 
Q 375 3247 544 3523 
Q 713 3800 988 3951 
Q 1263 4103 1663 4103 
Q 2047 4103 2308 3967 
Q 2569 3831 2728 3567 
Q 2888 3303 2955 2917 
Q 3022 2531 3022 2031 
z
M 2472 1994 
Q 2472 2297 2450 2537 
Q 2428 2778 2386 2962 
Q 2344 3147 2276 3280 
Q 2209 3413 2115 3498 
Q 2022 3584 1901 3623 
Q 1781 3663 1631 3663 
Q 1366 3663 1200 3538 
Q 1034 3413 939 3194 
Q 844 2975 809 2681 
Q 775 2388 775 2050 
Q 775 1597 822 1280 
Q 869 963 970 763 
Q 1072 563 1230 472 
Q 1388 381 1613 381 
Q 1788 381 1920 437 
Q 2053 494 2148 598 
Q 2244 703 2306 850 
Q 2369 997 2406 1175 
Q 2444 1353 2458 1561 
Q 2472 1769 2472 1994 
z
" transform="scale(0.015625)"/>
        <path id="Calibri-2e" d="M 1144 341 
Q 1144 119 1070 45 
Q 997 -28 803 -28 
Q 616 -28 544 44 
Q 472 116 472 331 
Q 472 553 545 626 
Q 619 700 813 700 
Q 1000 700 1072 628 
Q 1144 556 1144 341 
z
" transform="scale(0.015625)"/>
       </defs>
       <use xlink:href="#Calibri-30"/>
       <use xlink:href="#Calibri-2e" x="50.683594"/>
       <use xlink:href="#Calibri-30" x="75.927734"/>
      </g>
     </g>
    </g>
    <g id="xtick_2">
     <g id="line2d_2">
      <g>
       <use xlink:href="#m3bf5a05403" x="86.1696" y="307.584" style="stroke: #000000; stroke-width: 0.8"/>
      </g>
     </g>
     <g id="text_2">
      <!-- 0.1 -->
      <g transform="translate(79.83835 321.385562) scale(0.1 -0.1)">
       <defs>
        <path id="Calibri-31" d="M 2897 213 
Q 2897 153 2887 112 
Q 2878 72 2862 47 
Q 2847 22 2826 11 
Q 2806 0 2784 0 
L 672 0 
Q 650 0 631 11 
Q 613 22 595 47 
Q 578 72 568 112 
Q 559 153 559 213 
Q 559 269 568 309 
Q 578 350 592 376 
Q 606 403 626 417 
Q 647 431 672 431 
L 1516 431 
L 1516 3506 
L 734 3041 
Q 675 3009 639 3003 
Q 603 2997 581 3017 
Q 559 3038 551 3084 
Q 544 3131 544 3203 
Q 544 3256 548 3293 
Q 553 3331 562 3356 
Q 572 3381 589 3400 
Q 606 3419 634 3438 
L 1566 4034 
Q 1578 4044 1597 4050 
Q 1616 4056 1644 4062 
Q 1672 4069 1709 4070 
Q 1747 4072 1803 4072 
Q 1878 4072 1928 4065 
Q 1978 4059 2006 4048 
Q 2034 4038 2043 4020 
Q 2053 4003 2053 3984 
L 2053 431 
L 2784 431 
Q 2809 431 2831 417 
Q 2853 403 2867 376 
Q 2881 350 2889 309 
Q 2897 269 2897 213 
z
" transform="scale(0.015625)"/>
       </defs>
       <use xlink:href="#Calibri-30"/>
       <use xlink:href="#Calibri-2e" x="50.683594"/>
       <use xlink:href="#Calibri-31" x="75.927734"/>
      </g>
     </g>
    </g>
    <g id="xtick_3">
     <g id="line2d_3">
      <g>
       <use xlink:href="#m3bf5a05403" x="114.7392" y="307.584" style="stroke: #000000; stroke-width: 0.8"/>
      </g>
     </g>
     <g id="text_3">
      <!-- 0.2 -->
      <g transform="translate(108.40795 321.385562) scale(0.1 -0.1)">
       <defs>
        <path id="Calibri-32" d="M 2888 231 
Q 2888 175 2880 131 
Q 2872 88 2858 58 
Q 2844 28 2820 14 
Q 2797 0 2769 0 
L 534 0 
Q 491 0 458 11 
Q 425 22 401 47 
Q 378 72 367 119 
Q 356 166 356 234 
Q 356 297 361 344 
Q 366 391 381 427 
Q 397 463 420 498 
Q 444 534 481 575 
L 1266 1406 
Q 1538 1694 1702 1922 
Q 1866 2150 1955 2337 
Q 2044 2525 2072 2678 
Q 2100 2831 2100 2966 
Q 2100 3100 2056 3220 
Q 2013 3341 1930 3431 
Q 1847 3522 1722 3575 
Q 1597 3628 1434 3628 
Q 1244 3628 1092 3575 
Q 941 3522 827 3459 
Q 713 3397 636 3344 
Q 559 3291 522 3291 
Q 500 3291 483 3303 
Q 466 3316 455 3344 
Q 444 3372 437 3419 
Q 431 3466 431 3531 
Q 431 3578 434 3612 
Q 438 3647 445 3672 
Q 453 3697 465 3719 
Q 478 3741 515 3773 
Q 553 3806 645 3862 
Q 738 3919 877 3973 
Q 1016 4028 1183 4065 
Q 1350 4103 1534 4103 
Q 1828 4103 2048 4020 
Q 2269 3938 2414 3794 
Q 2559 3650 2631 3459 
Q 2703 3269 2703 3053 
Q 2703 2859 2668 2667 
Q 2634 2475 2523 2251 
Q 2413 2028 2203 1754 
Q 1994 1481 1647 1125 
L 1006 456 
L 2766 456 
Q 2791 456 2814 442 
Q 2838 428 2855 400 
Q 2872 372 2880 330 
Q 2888 288 2888 231 
z
" transform="scale(0.015625)"/>
       </defs>
       <use xlink:href="#Calibri-30"/>
       <use xlink:href="#Calibri-2e" x="50.683594"/>
       <use xlink:href="#Calibri-32" x="75.927734"/>
      </g>
     </g>
    </g>
    <g id="xtick_4">
     <g id="line2d_4">
      <g>
       <use xlink:href="#m3bf5a05403" x="143.3088" y="307.584" style="stroke: #000000; stroke-width: 0.8"/>
      </g>
     </g>
     <g id="text_4">
      <!-- 0.3 -->
      <g transform="translate(136.97755 321.385562) scale(0.1 -0.1)">
       <defs>
        <path id="Calibri-33" d="M 2856 1156 
Q 2856 878 2759 654 
Q 2663 431 2481 272 
Q 2300 113 2034 27 
Q 1769 -59 1434 -59 
Q 1231 -59 1054 -26 
Q 878 6 740 51 
Q 603 97 512 145 
Q 422 194 398 216 
Q 375 238 362 259 
Q 350 281 340 312 
Q 331 344 326 389 
Q 322 434 322 500 
Q 322 613 344 656 
Q 366 700 406 700 
Q 434 700 517 650 
Q 600 600 729 542 
Q 859 484 1032 434 
Q 1206 384 1419 384 
Q 1625 384 1781 437 
Q 1938 491 2044 587 
Q 2150 684 2203 817 
Q 2256 950 2256 1106 
Q 2256 1278 2189 1415 
Q 2122 1553 1992 1653 
Q 1863 1753 1673 1806 
Q 1484 1859 1244 1859 
L 859 1859 
Q 834 1859 811 1870 
Q 788 1881 770 1906 
Q 753 1931 742 1972 
Q 731 2013 731 2078 
Q 731 2138 740 2177 
Q 750 2216 767 2239 
Q 784 2263 806 2273 
Q 828 2284 856 2284 
L 1209 2284 
Q 1416 2284 1580 2337 
Q 1744 2391 1858 2491 
Q 1972 2591 2033 2730 
Q 2094 2869 2094 3041 
Q 2094 3166 2053 3280 
Q 2013 3394 1931 3478 
Q 1850 3563 1723 3611 
Q 1597 3659 1431 3659 
Q 1250 3659 1098 3604 
Q 947 3550 828 3487 
Q 709 3425 631 3370 
Q 553 3316 522 3316 
Q 500 3316 483 3323 
Q 466 3331 455 3354 
Q 444 3378 439 3420 
Q 434 3463 434 3531 
Q 434 3578 437 3614 
Q 441 3650 450 3676 
Q 459 3703 471 3725 
Q 484 3747 514 3776 
Q 544 3806 634 3862 
Q 725 3919 858 3973 
Q 991 4028 1164 4065 
Q 1338 4103 1538 4103 
Q 1819 4103 2031 4031 
Q 2244 3959 2386 3828 
Q 2528 3697 2598 3514 
Q 2669 3331 2669 3109 
Q 2669 2919 2619 2755 
Q 2569 2591 2472 2464 
Q 2375 2338 2234 2248 
Q 2094 2159 1909 2125 
L 1909 2119 
Q 2119 2097 2292 2014 
Q 2466 1931 2591 1806 
Q 2716 1681 2786 1514 
Q 2856 1347 2856 1156 
z
" transform="scale(0.015625)"/>
       </defs>
       <use xlink:href="#Calibri-30"/>
       <use xlink:href="#Calibri-2e" x="50.683594"/>
       <use xlink:href="#Calibri-33" x="75.927734"/>
      </g>
     </g>
    </g>
    <g id="xtick_5">
     <g id="line2d_5">
      <g>
       <use xlink:href="#m3bf5a05403" x="171.8784" y="307.584" style="stroke: #000000; stroke-width: 0.8"/>
      </g>
     </g>
     <g id="text_5">
      <!-- 0.4 -->
      <g transform="translate(165.54715 321.385562) scale(0.1 -0.1)">
       <defs>
        <path id="Calibri-34" d="M 3059 1150 
Q 3059 1047 3028 987 
Q 2997 928 2941 928 
L 2484 928 
L 2484 78 
Q 2484 53 2471 36 
Q 2459 19 2428 6 
Q 2397 -6 2347 -12 
Q 2297 -19 2219 -19 
Q 2144 -19 2094 -12 
Q 2044 -6 2014 6 
Q 1984 19 1973 36 
Q 1963 53 1963 78 
L 1963 928 
L 294 928 
Q 256 928 231 937 
Q 206 947 186 972 
Q 166 997 158 1044 
Q 150 1091 150 1166 
Q 150 1225 153 1272 
Q 156 1319 165 1358 
Q 175 1397 190 1433 
Q 206 1469 228 1509 
L 1684 3966 
Q 1700 3991 1729 4009 
Q 1759 4028 1806 4040 
Q 1853 4053 1922 4058 
Q 1991 4063 2084 4063 
Q 2188 4063 2264 4055 
Q 2341 4047 2387 4034 
Q 2434 4022 2459 4001 
Q 2484 3981 2484 3953 
L 2484 1372 
L 2941 1372 
Q 2994 1372 3026 1317 
Q 3059 1263 3059 1150 
z
M 1963 3591 
L 1956 3591 
L 641 1372 
L 1963 1372 
L 1963 3591 
z
" transform="scale(0.015625)"/>
       </defs>
       <use xlink:href="#Calibri-30"/>
       <use xlink:href="#Calibri-2e" x="50.683594"/>
       <use xlink:href="#Calibri-34" x="75.927734"/>
      </g>
     </g>
    </g>
    <g id="xtick_6">
     <g id="line2d_6">
      <g>
       <use xlink:href="#m3bf5a05403" x="200.448" y="307.584" style="stroke: #000000; stroke-width: 0.8"/>
      </g>
     </g>
     <g id="text_6">
      <!-- 0.5 -->
      <g transform="translate(194.11675 321.385562) scale(0.1 -0.1)">
       <defs>
        <path id="Calibri-35" d="M 2869 1300 
Q 2869 975 2759 722 
Q 2650 469 2450 295 
Q 2250 122 1973 31 
Q 1697 -59 1359 -59 
Q 1172 -59 1003 -32 
Q 834 -6 703 33 
Q 572 72 487 109 
Q 403 147 379 169 
Q 356 191 347 209 
Q 338 228 330 254 
Q 322 281 319 322 
Q 316 363 316 419 
Q 316 472 320 514 
Q 325 556 337 582 
Q 350 609 367 621 
Q 384 634 406 634 
Q 438 634 503 595 
Q 569 556 680 511 
Q 791 466 955 425 
Q 1119 384 1344 384 
Q 1553 384 1728 434 
Q 1903 484 2029 590 
Q 2156 697 2228 858 
Q 2300 1019 2300 1250 
Q 2300 1444 2239 1592 
Q 2178 1741 2051 1839 
Q 1925 1938 1731 1986 
Q 1538 2034 1269 2034 
Q 1078 2034 940 2015 
Q 803 1997 684 1997 
Q 597 1997 559 2037 
Q 522 2078 522 2194 
L 522 3841 
Q 522 3944 570 3994 
Q 619 4044 709 4044 
L 2500 4044 
Q 2525 4044 2548 4030 
Q 2572 4016 2587 3987 
Q 2603 3959 2611 3915 
Q 2619 3872 2619 3813 
Q 2619 3700 2587 3637 
Q 2556 3575 2500 3575 
L 991 3575 
L 991 2441 
Q 1100 2456 1214 2459 
Q 1328 2463 1478 2463 
Q 1825 2463 2084 2380 
Q 2344 2297 2517 2145 
Q 2691 1994 2780 1778 
Q 2869 1563 2869 1300 
z
" transform="scale(0.015625)"/>
       </defs>
       <use xlink:href="#Calibri-30"/>
       <use xlink:href="#Calibri-2e" x="50.683594"/>
       <use xlink:href="#Calibri-35" x="75.927734"/>
      </g>
     </g>
    </g>
    <g id="xtick_7">
     <g id="line2d_7">
      <g>
       <use xlink:href="#m3bf5a05403" x="229.0176" y="307.584" style="stroke: #000000; stroke-width: 0.8"/>
      </g>
     </g>
     <g id="text_7">
      <!-- 0.6 -->
      <g transform="translate(222.68635 321.385562) scale(0.1 -0.1)">
       <defs>
        <path id="Calibri-36" d="M 2991 1309 
Q 2991 1044 2909 795 
Q 2828 547 2659 358 
Q 2491 169 2231 55 
Q 1972 -59 1619 -59 
Q 1366 -59 1172 3 
Q 978 66 834 181 
Q 691 297 595 465 
Q 500 634 442 850 
Q 384 1066 359 1322 
Q 334 1578 334 1872 
Q 334 2131 362 2397 
Q 391 2663 462 2909 
Q 534 3156 657 3373 
Q 781 3591 967 3752 
Q 1153 3913 1412 4006 
Q 1672 4100 2016 4100 
Q 2131 4100 2250 4086 
Q 2369 4072 2469 4048 
Q 2569 4025 2637 3997 
Q 2706 3969 2728 3951 
Q 2750 3934 2761 3914 
Q 2772 3894 2778 3870 
Q 2784 3847 2787 3817 
Q 2791 3788 2791 3744 
Q 2791 3688 2789 3647 
Q 2788 3606 2777 3581 
Q 2766 3556 2748 3543 
Q 2731 3531 2703 3531 
Q 2669 3531 2609 3553 
Q 2550 3575 2465 3601 
Q 2381 3628 2261 3650 
Q 2141 3672 1981 3672 
Q 1691 3672 1481 3553 
Q 1272 3434 1139 3234 
Q 1006 3034 942 2770 
Q 878 2506 869 2219 
Q 950 2266 1051 2312 
Q 1153 2359 1273 2396 
Q 1394 2434 1528 2457 
Q 1663 2481 1816 2481 
Q 2144 2481 2369 2392 
Q 2594 2303 2733 2145 
Q 2872 1988 2931 1773 
Q 2991 1559 2991 1309 
z
M 2447 1259 
Q 2447 1441 2411 1589 
Q 2375 1738 2290 1841 
Q 2206 1944 2065 2000 
Q 1925 2056 1719 2056 
Q 1603 2056 1487 2036 
Q 1372 2016 1264 1980 
Q 1156 1944 1057 1895 
Q 959 1847 878 1791 
Q 878 1388 929 1116 
Q 981 844 1079 680 
Q 1178 516 1325 445 
Q 1472 375 1669 375 
Q 1869 375 2016 450 
Q 2163 525 2259 651 
Q 2356 778 2401 936 
Q 2447 1094 2447 1259 
z
" transform="scale(0.015625)"/>
       </defs>
       <use xlink:href="#Calibri-30"/>
       <use xlink:href="#Calibri-2e" x="50.683594"/>
       <use xlink:href="#Calibri-36" x="75.927734"/>
      </g>
     </g>
    </g>
    <g id="xtick_8">
     <g id="line2d_8">
      <g>
       <use xlink:href="#m3bf5a05403" x="257.5872" y="307.584" style="stroke: #000000; stroke-width: 0.8"/>
      </g>
     </g>
     <g id="text_8">
      <!-- 0.7 -->
      <g transform="translate(251.25595 321.385562) scale(0.1 -0.1)">
       <defs>
        <path id="Calibri-37" d="M 2947 3813 
Q 2947 3756 2942 3711 
Q 2938 3666 2930 3623 
Q 2922 3581 2908 3542 
Q 2894 3503 2875 3459 
L 1419 103 
Q 1403 66 1379 42 
Q 1356 19 1320 5 
Q 1284 -9 1228 -14 
Q 1172 -19 1091 -19 
Q 984 -19 925 -9 
Q 866 0 839 20 
Q 813 41 816 70 
Q 819 100 838 141 
L 2369 3572 
L 428 3572 
Q 369 3572 339 3634 
Q 309 3697 309 3809 
Q 309 3869 317 3912 
Q 325 3956 340 3986 
Q 356 4016 378 4030 
Q 400 4044 428 4044 
L 2784 4044 
Q 2828 4044 2861 4034 
Q 2894 4025 2911 3997 
Q 2928 3969 2937 3925 
Q 2947 3881 2947 3813 
z
" transform="scale(0.015625)"/>
       </defs>
       <use xlink:href="#Calibri-30"/>
       <use xlink:href="#Calibri-2e" x="50.683594"/>
       <use xlink:href="#Calibri-37" x="75.927734"/>
      </g>
     </g>
    </g>
    <g id="xtick_9">
     <g id="line2d_9">
      <g>
       <use xlink:href="#m3bf5a05403" x="286.1568" y="307.584" style="stroke: #000000; stroke-width: 0.8"/>
      </g>
     </g>
     <g id="text_9">
      <!-- 0.8 -->
      <g transform="translate(279.82555 321.385562) scale(0.1 -0.1)">
       <defs>
        <path id="Calibri-38" d="M 2981 1038 
Q 2981 775 2887 570 
Q 2794 366 2617 225 
Q 2441 84 2181 12 
Q 1922 -59 1588 -59 
Q 1275 -59 1028 6 
Q 781 72 609 200 
Q 438 328 347 515 
Q 256 703 256 944 
Q 256 1134 318 1293 
Q 381 1453 498 1587 
Q 616 1722 787 1839 
Q 959 1956 1175 2063 
Q 988 2159 844 2267 
Q 700 2375 600 2501 
Q 500 2628 448 2772 
Q 397 2916 397 3084 
Q 397 3297 473 3483 
Q 550 3669 704 3806 
Q 859 3944 1098 4023 
Q 1338 4103 1656 4103 
Q 1963 4103 2186 4029 
Q 2409 3956 2554 3829 
Q 2700 3703 2769 3531 
Q 2838 3359 2838 3163 
Q 2838 3003 2786 2856 
Q 2734 2709 2634 2578 
Q 2534 2447 2389 2333 
Q 2244 2219 2056 2119 
Q 2278 2009 2451 1893 
Q 2625 1778 2742 1645 
Q 2859 1513 2920 1364 
Q 2981 1216 2981 1038 
z
M 2306 3113 
Q 2306 3244 2261 3350 
Q 2216 3456 2128 3531 
Q 2041 3606 1911 3645 
Q 1781 3684 1616 3684 
Q 1278 3684 1104 3531 
Q 931 3378 931 3113 
Q 931 2991 973 2886 
Q 1016 2781 1105 2687 
Q 1194 2594 1330 2505 
Q 1466 2416 1653 2319 
Q 1969 2481 2137 2678 
Q 2306 2875 2306 3113 
z
M 2438 981 
Q 2438 1125 2384 1242 
Q 2331 1359 2223 1461 
Q 2116 1563 1955 1658 
Q 1794 1753 1581 1856 
Q 1384 1759 1236 1662 
Q 1088 1566 992 1462 
Q 897 1359 848 1245 
Q 800 1131 800 994 
Q 800 691 1008 525 
Q 1216 359 1628 359 
Q 2028 359 2233 526 
Q 2438 694 2438 981 
z
" transform="scale(0.015625)"/>
       </defs>
       <use xlink:href="#Calibri-30"/>
       <use xlink:href="#Calibri-2e" x="50.683594"/>
       <use xlink:href="#Calibri-38" x="75.927734"/>
      </g>
     </g>
    </g>
    <g id="xtick_10">
     <g id="line2d_10">
      <g>
       <use xlink:href="#m3bf5a05403" x="314.7264" y="307.584" style="stroke: #000000; stroke-width: 0.8"/>
      </g>
     </g>
     <g id="text_10">
      <!-- 0.9 -->
      <g transform="translate(308.39515 321.385562) scale(0.1 -0.1)">
       <defs>
        <path id="Calibri-39" d="M 2919 2181 
Q 2919 1919 2887 1650 
Q 2856 1381 2781 1132 
Q 2706 884 2579 667 
Q 2453 450 2261 287 
Q 2069 125 1805 33 
Q 1541 -59 1191 -59 
Q 1056 -59 929 -42 
Q 803 -25 701 0 
Q 600 25 531 53 
Q 463 81 431 109 
Q 400 138 386 186 
Q 372 234 372 316 
Q 372 384 376 425 
Q 381 466 390 487 
Q 400 509 417 517 
Q 434 525 459 525 
Q 494 525 556 501 
Q 619 478 714 450 
Q 809 422 937 398 
Q 1066 375 1225 375 
Q 1528 375 1745 492 
Q 1963 609 2100 806 
Q 2238 1003 2306 1262 
Q 2375 1522 2381 1809 
Q 2216 1713 1984 1638 
Q 1753 1563 1453 1563 
Q 1116 1563 886 1655 
Q 656 1747 517 1906 
Q 378 2066 317 2284 
Q 256 2503 256 2763 
Q 256 3031 334 3273 
Q 413 3516 578 3700 
Q 744 3884 1000 3993 
Q 1256 4103 1613 4103 
Q 1866 4103 2061 4039 
Q 2256 3975 2400 3854 
Q 2544 3734 2644 3564 
Q 2744 3394 2805 3178 
Q 2866 2963 2892 2711 
Q 2919 2459 2919 2181 
z
M 2372 2241 
Q 2372 2641 2319 2914 
Q 2266 3188 2162 3356 
Q 2059 3525 1909 3600 
Q 1759 3675 1563 3675 
Q 1359 3675 1215 3601 
Q 1072 3528 980 3404 
Q 888 3281 844 3125 
Q 800 2969 800 2803 
Q 800 2619 839 2466 
Q 878 2313 965 2206 
Q 1053 2100 1193 2042 
Q 1334 1984 1541 1984 
Q 1775 1984 1994 2054 
Q 2213 2125 2372 2241 
z
" transform="scale(0.015625)"/>
       </defs>
       <use xlink:href="#Calibri-30"/>
       <use xlink:href="#Calibri-2e" x="50.683594"/>
       <use xlink:href="#Calibri-39" x="75.927734"/>
      </g>
     </g>
    </g>
    <g id="xtick_11">
     <g id="line2d_11">
      <g>
       <use xlink:href="#m3bf5a05403" x="343.296" y="307.584" style="stroke: #000000; stroke-width: 0.8"/>
      </g>
     </g>
     <g id="text_11">
      <!-- 1.0 -->
      <g transform="translate(336.96475 321.385562) scale(0.1 -0.1)">
       <use xlink:href="#Calibri-31"/>
       <use xlink:href="#Calibri-2e" x="50.683594"/>
       <use xlink:href="#Calibri-30" x="75.927734"/>
      </g>
     </g>
    </g>
    <g id="text_12">
     <!-- $\mathit{p}$ (cm$^2$/cm$^2$) -->
     <g transform="translate(174.148 336.263687) scale(0.1 -0.1)">
      <defs>
       <path id="DejaVuSans-Oblique-70" d="M 3175 2156 
Q 3175 2616 2975 2859 
Q 2775 3103 2400 3103 
Q 2144 3103 1911 2972 
Q 1678 2841 1497 2591 
Q 1319 2344 1212 1994 
Q 1106 1644 1106 1300 
Q 1106 863 1306 627 
Q 1506 391 1875 391 
Q 2147 391 2380 519 
Q 2613 647 2778 891 
Q 2956 1147 3065 1494 
Q 3175 1841 3175 2156 
z
M 1394 2969 
Q 1625 3272 1939 3428 
Q 2253 3584 2638 3584 
Q 3175 3584 3472 3232 
Q 3769 2881 3769 2247 
Q 3769 1728 3584 1258 
Q 3400 788 3053 416 
Q 2822 169 2531 39 
Q 2241 -91 1919 -91 
Q 1547 -91 1294 64 
Q 1041 219 916 525 
L 556 -1331 
L -19 -1331 
L 922 3500 
L 1497 3500 
L 1394 2969 
z
" transform="scale(0.015625)"/>
       <path id="Calibri-20" transform="scale(0.015625)"/>
       <path id="Calibri-28" d="M 1547 4306 
Q 1250 3678 1104 3017 
Q 959 2356 959 1688 
Q 959 1016 1107 356 
Q 1256 -303 1541 -938 
Q 1556 -975 1557 -1001 
Q 1559 -1028 1537 -1045 
Q 1516 -1063 1470 -1070 
Q 1425 -1078 1347 -1078 
Q 1291 -1078 1250 -1075 
Q 1209 -1072 1179 -1062 
Q 1150 -1053 1131 -1040 
Q 1113 -1028 1103 -1013 
Q 934 -694 806 -367 
Q 678 -41 590 296 
Q 503 634 459 979 
Q 416 1325 416 1678 
Q 416 2031 464 2375 
Q 513 2719 602 3058 
Q 691 3397 819 3725 
Q 947 4053 1106 4375 
Q 1109 4388 1123 4397 
Q 1138 4406 1163 4415 
Q 1188 4425 1231 4429 
Q 1275 4434 1344 4434 
Q 1416 4434 1459 4425 
Q 1503 4416 1528 4400 
Q 1553 4384 1556 4359 
Q 1559 4334 1547 4306 
z
" transform="scale(0.015625)"/>
       <path id="Calibri-63" d="M 2500 506 
Q 2500 453 2497 414 
Q 2494 375 2486 348 
Q 2478 322 2467 301 
Q 2456 281 2417 242 
Q 2378 203 2284 145 
Q 2191 88 2073 42 
Q 1956 -3 1818 -31 
Q 1681 -59 1534 -59 
Q 1231 -59 997 41 
Q 763 141 605 333 
Q 447 525 364 804 
Q 281 1084 281 1450 
Q 281 1866 382 2164 
Q 484 2463 661 2653 
Q 838 2844 1077 2936 
Q 1316 3028 1594 3028 
Q 1728 3028 1854 3003 
Q 1981 2978 2087 2937 
Q 2194 2897 2276 2844 
Q 2359 2791 2396 2753 
Q 2434 2716 2448 2694 
Q 2463 2672 2472 2642 
Q 2481 2613 2484 2575 
Q 2488 2538 2488 2481 
Q 2488 2359 2459 2311 
Q 2431 2263 2391 2263 
Q 2344 2263 2283 2314 
Q 2222 2366 2128 2428 
Q 2034 2491 1901 2542 
Q 1769 2594 1588 2594 
Q 1216 2594 1017 2308 
Q 819 2022 819 1478 
Q 819 1206 870 1001 
Q 922 797 1022 659 
Q 1122 522 1267 455 
Q 1413 388 1600 388 
Q 1778 388 1912 444 
Q 2047 500 2145 567 
Q 2244 634 2311 689 
Q 2378 744 2416 744 
Q 2438 744 2453 731 
Q 2469 719 2480 689 
Q 2491 659 2495 614 
Q 2500 569 2500 506 
z
" transform="scale(0.015625)"/>
       <path id="Calibri-6d" d="M 4650 78 
Q 4650 53 4637 36 
Q 4625 19 4597 6 
Q 4569 -6 4519 -12 
Q 4469 -19 4394 -19 
Q 4316 -19 4266 -12 
Q 4216 -6 4186 6 
Q 4156 19 4143 36 
Q 4131 53 4131 78 
L 4131 1788 
Q 4131 1966 4100 2112 
Q 4069 2259 4000 2365 
Q 3931 2472 3825 2528 
Q 3719 2584 3575 2584 
Q 3397 2584 3217 2446 
Q 3038 2309 2822 2044 
L 2822 78 
Q 2822 53 2809 36 
Q 2797 19 2767 6 
Q 2738 -6 2688 -12 
Q 2638 -19 2563 -19 
Q 2491 -19 2439 -12 
Q 2388 -6 2358 6 
Q 2328 19 2317 36 
Q 2306 53 2306 78 
L 2306 1788 
Q 2306 1966 2272 2112 
Q 2238 2259 2169 2365 
Q 2100 2472 1995 2528 
Q 1891 2584 1747 2584 
Q 1569 2584 1387 2446 
Q 1206 2309 994 2044 
L 994 78 
Q 994 53 981 36 
Q 969 19 941 6 
Q 913 -6 863 -12 
Q 813 -19 734 -19 
Q 659 -19 609 -12 
Q 559 -6 529 6 
Q 500 19 489 36 
Q 478 53 478 78 
L 478 2891 
Q 478 2916 487 2933 
Q 497 2950 525 2964 
Q 553 2978 597 2983 
Q 641 2988 713 2988 
Q 781 2988 826 2983 
Q 872 2978 897 2964 
Q 922 2950 933 2933 
Q 944 2916 944 2891 
L 944 2519 
Q 1181 2784 1404 2907 
Q 1628 3031 1856 3031 
Q 2031 3031 2170 2990 
Q 2309 2950 2415 2876 
Q 2522 2803 2597 2701 
Q 2672 2600 2722 2475 
Q 2863 2628 2989 2734 
Q 3116 2841 3233 2906 
Q 3350 2972 3461 3001 
Q 3572 3031 3684 3031 
Q 3956 3031 4140 2936 
Q 4325 2841 4439 2681 
Q 4553 2522 4601 2308 
Q 4650 2094 4650 1856 
L 4650 78 
z
" transform="scale(0.015625)"/>
       <path id="DejaVuSans-32" d="M 1228 531 
L 3431 531 
L 3431 0 
L 469 0 
L 469 531 
Q 828 903 1448 1529 
Q 2069 2156 2228 2338 
Q 2531 2678 2651 2914 
Q 2772 3150 2772 3378 
Q 2772 3750 2511 3984 
Q 2250 4219 1831 4219 
Q 1534 4219 1204 4116 
Q 875 4013 500 3803 
L 500 4441 
Q 881 4594 1212 4672 
Q 1544 4750 1819 4750 
Q 2544 4750 2975 4387 
Q 3406 4025 3406 3419 
Q 3406 3131 3298 2873 
Q 3191 2616 2906 2266 
Q 2828 2175 2409 1742 
Q 1991 1309 1228 531 
z
" transform="scale(0.015625)"/>
       <path id="Calibri-2f" d="M 525 -753 
Q 513 -794 492 -817 
Q 472 -841 440 -853 
Q 409 -866 364 -872 
Q 319 -878 253 -878 
Q 175 -878 123 -867 
Q 72 -856 44 -836 
Q 16 -816 9 -786 
Q 3 -756 22 -716 
L 1913 4469 
Q 1925 4509 1945 4532 
Q 1966 4556 1995 4570 
Q 2025 4584 2072 4589 
Q 2119 4594 2184 4594 
Q 2263 4594 2313 4583 
Q 2363 4572 2391 4553 
Q 2419 4534 2425 4503 
Q 2431 4472 2416 4431 
L 525 -753 
z
" transform="scale(0.015625)"/>
       <path id="Calibri-29" d="M 1522 1678 
Q 1522 1325 1478 979 
Q 1434 634 1346 296 
Q 1259 -41 1132 -367 
Q 1006 -694 838 -1013 
Q 828 -1028 809 -1040 
Q 791 -1053 761 -1062 
Q 731 -1072 690 -1075 
Q 650 -1078 594 -1078 
Q 513 -1078 467 -1070 
Q 422 -1063 401 -1045 
Q 381 -1028 382 -1001 
Q 384 -975 400 -938 
Q 688 -306 834 355 
Q 981 1016 981 1688 
Q 981 2356 834 3017 
Q 688 3678 394 4306 
Q 381 4334 384 4359 
Q 388 4384 413 4400 
Q 438 4416 481 4425 
Q 525 4434 597 4434 
Q 663 4434 706 4429 
Q 750 4425 776 4415 
Q 803 4406 815 4397 
Q 828 4388 834 4375 
Q 1156 3734 1339 3057 
Q 1522 2381 1522 1678 
z
" transform="scale(0.015625)"/>
      </defs>
      <use xlink:href="#DejaVuSans-Oblique-70" transform="translate(0 0.765625)"/>
      <use xlink:href="#Calibri-20" transform="translate(63.476562 0.765625)"/>
      <use xlink:href="#Calibri-28" transform="translate(84.958984 0.765625)"/>
      <use xlink:href="#Calibri-63" transform="translate(115.28125 0.765625)"/>
      <use xlink:href="#Calibri-6d" transform="translate(157.566406 0.765625)"/>
      <use xlink:href="#DejaVuSans-32" transform="translate(238.40625 39.046875) scale(0.7)"/>
      <use xlink:href="#Calibri-2f" transform="translate(285.676758 0.765625)"/>
      <use xlink:href="#Calibri-63" transform="translate(324.299805 0.765625)"/>
      <use xlink:href="#Calibri-6d" transform="translate(366.584961 0.765625)"/>
      <use xlink:href="#DejaVuSans-32" transform="translate(447.424805 39.046875) scale(0.7)"/>
      <use xlink:href="#Calibri-29" transform="translate(494.695312 0.765625)"/>
     </g>
    </g>
   </g>
   <g id="matplotlib.axis_2">
    <g id="ytick_1">
     <g id="line2d_12">
      <defs>
       <path id="m9486f28910" d="M 0 0 
L -3.5 0 
" style="stroke: #000000; stroke-width: 0.8"/>
      </defs>
      <g>
       <use xlink:href="#m9486f28910" x="57.6" y="275.65056" style="stroke: #000000; stroke-width: 0.8"/>
      </g>
     </g>
     <g id="text_13">
      <!-- 25 -->
      <g transform="translate(40.4625 279.051341) scale(0.1 -0.1)">
       <use xlink:href="#Calibri-32"/>
       <use xlink:href="#Calibri-35" x="50.683594"/>
      </g>
     </g>
    </g>
    <g id="ytick_2">
     <g id="line2d_13">
      <g>
       <use xlink:href="#m9486f28910" x="57.6" y="242.38656" style="stroke: #000000; stroke-width: 0.8"/>
      </g>
     </g>
     <g id="text_14">
      <!-- 50 -->
      <g transform="translate(40.4625 245.787341) scale(0.1 -0.1)">
       <use xlink:href="#Calibri-35"/>
       <use xlink:href="#Calibri-30" x="50.683594"/>
      </g>
     </g>
    </g>
    <g id="ytick_3">
     <g id="line2d_14">
      <g>
       <use xlink:href="#m9486f28910" x="57.6" y="209.12256" style="stroke: #000000; stroke-width: 0.8"/>
      </g>
     </g>
     <g id="text_15">
      <!-- 75 -->
      <g transform="translate(40.4625 212.523341) scale(0.1 -0.1)">
       <use xlink:href="#Calibri-37"/>
       <use xlink:href="#Calibri-35" x="50.683594"/>
      </g>
     </g>
    </g>
    <g id="ytick_4">
     <g id="line2d_15">
      <g>
       <use xlink:href="#m9486f28910" x="57.6" y="175.85856" style="stroke: #000000; stroke-width: 0.8"/>
      </g>
     </g>
     <g id="text_16">
      <!-- 100 -->
      <g transform="translate(35.39375 179.259341) scale(0.1 -0.1)">
       <use xlink:href="#Calibri-31"/>
       <use xlink:href="#Calibri-30" x="50.683594"/>
       <use xlink:href="#Calibri-30" x="101.367188"/>
      </g>
     </g>
    </g>
    <g id="ytick_5">
     <g id="line2d_16">
      <g>
       <use xlink:href="#m9486f28910" x="57.6" y="142.59456" style="stroke: #000000; stroke-width: 0.8"/>
      </g>
     </g>
     <g id="text_17">
      <!-- 125 -->
      <g transform="translate(35.39375 145.995341) scale(0.1 -0.1)">
       <use xlink:href="#Calibri-31"/>
       <use xlink:href="#Calibri-32" x="50.683594"/>
       <use xlink:href="#Calibri-35" x="101.367188"/>
      </g>
     </g>
    </g>
    <g id="ytick_6">
     <g id="line2d_17">
      <g>
       <use xlink:href="#m9486f28910" x="57.6" y="109.33056" style="stroke: #000000; stroke-width: 0.8"/>
      </g>
     </g>
     <g id="text_18">
      <!-- 150 -->
      <g transform="translate(35.39375 112.731341) scale(0.1 -0.1)">
       <use xlink:href="#Calibri-31"/>
       <use xlink:href="#Calibri-35" x="50.683594"/>
       <use xlink:href="#Calibri-30" x="101.367188"/>
      </g>
     </g>
    </g>
    <g id="ytick_7">
     <g id="line2d_18">
      <g>
       <use xlink:href="#m9486f28910" x="57.6" y="76.06656" style="stroke: #000000; stroke-width: 0.8"/>
      </g>
     </g>
     <g id="text_19">
      <!-- 175 -->
      <g transform="translate(35.39375 79.467341) scale(0.1 -0.1)">
       <use xlink:href="#Calibri-31"/>
       <use xlink:href="#Calibri-37" x="50.683594"/>
       <use xlink:href="#Calibri-35" x="101.367188"/>
      </g>
     </g>
    </g>
    <g id="ytick_8">
     <g id="line2d_19">
      <g>
       <use xlink:href="#m9486f28910" x="57.6" y="42.80256" style="stroke: #000000; stroke-width: 0.8"/>
      </g>
     </g>
     <g id="text_20">
      <!-- 200 -->
      <g transform="translate(35.39375 46.203341) scale(0.1 -0.1)">
       <use xlink:href="#Calibri-32"/>
       <use xlink:href="#Calibri-30" x="50.683594"/>
       <use xlink:href="#Calibri-30" x="101.367188"/>
      </g>
     </g>
    </g>
    <g id="text_21">
     <!-- $\mathit{Z}$$_{a}$ (nm) -->
     <g transform="translate(29.59375 191.028) rotate(-90) scale(0.1 -0.1)">
      <defs>
       <path id="DejaVuSans-Oblique-5a" d="M 838 4666 
L 4500 4666 
L 4409 4184 
L 794 531 
L 3769 531 
L 3669 0 
L -141 0 
L -50 481 
L 3566 4134 
L 738 4134 
L 838 4666 
z
" transform="scale(0.015625)"/>
       <path id="DejaVuSans-Oblique-61" d="M 3438 1997 
L 3047 0 
L 2472 0 
L 2578 531 
Q 2325 219 2001 64 
Q 1678 -91 1281 -91 
Q 834 -91 548 182 
Q 263 456 263 884 
Q 263 1497 752 1853 
Q 1241 2209 2100 2209 
L 2900 2209 
L 2931 2363 
Q 2938 2388 2941 2417 
Q 2944 2447 2944 2509 
Q 2944 2788 2717 2942 
Q 2491 3097 2081 3097 
Q 1800 3097 1504 3025 
Q 1209 2953 897 2809 
L 997 3341 
Q 1322 3463 1633 3523 
Q 1944 3584 2234 3584 
Q 2853 3584 3176 3315 
Q 3500 3047 3500 2534 
Q 3500 2431 3484 2292 
Q 3469 2153 3438 1997 
z
M 2816 1759 
L 2241 1759 
Q 1534 1759 1195 1570 
Q 856 1381 856 984 
Q 856 709 1029 553 
Q 1203 397 1509 397 
Q 1978 397 2328 733 
Q 2678 1069 2791 1631 
L 2816 1759 
z
" transform="scale(0.015625)"/>
       <path id="Calibri-6e" d="M 2900 78 
Q 2900 53 2887 36 
Q 2875 19 2847 6 
Q 2819 -6 2769 -12 
Q 2719 -19 2644 -19 
Q 2566 -19 2516 -12 
Q 2466 -6 2437 6 
Q 2409 19 2396 36 
Q 2384 53 2384 78 
L 2384 1725 
Q 2384 1966 2346 2112 
Q 2309 2259 2237 2365 
Q 2166 2472 2052 2528 
Q 1938 2584 1788 2584 
Q 1594 2584 1400 2446 
Q 1206 2309 994 2044 
L 994 78 
Q 994 53 981 36 
Q 969 19 941 6 
Q 913 -6 863 -12 
Q 813 -19 734 -19 
Q 659 -19 609 -12 
Q 559 -6 529 6 
Q 500 19 489 36 
Q 478 53 478 78 
L 478 2891 
Q 478 2916 487 2933 
Q 497 2950 525 2964 
Q 553 2978 597 2983 
Q 641 2988 713 2988 
Q 781 2988 826 2983 
Q 872 2978 897 2964 
Q 922 2950 933 2933 
Q 944 2916 944 2891 
L 944 2519 
Q 1181 2784 1417 2907 
Q 1653 3031 1894 3031 
Q 2175 3031 2367 2936 
Q 2559 2841 2678 2681 
Q 2797 2522 2848 2308 
Q 2900 2094 2900 1794 
L 2900 78 
z
" transform="scale(0.015625)"/>
      </defs>
      <use xlink:href="#DejaVuSans-Oblique-5a" transform="translate(0 0.09375)"/>
      <use xlink:href="#DejaVuSans-Oblique-61" transform="translate(69.462891 -16.3125) scale(0.7)"/>
      <use xlink:href="#Calibri-20" transform="translate(115.092773 0.09375)"/>
      <use xlink:href="#Calibri-28" transform="translate(136.575195 0.09375)"/>
      <use xlink:href="#Calibri-6e" transform="translate(166.897461 0.09375)"/>
      <use xlink:href="#Calibri-6d" transform="translate(219.436523 0.09375)"/>
      <use xlink:href="#Calibri-29" transform="translate(299.319336 0.09375)"/>
     </g>
    </g>
   </g>
   <g id="patch_3">
    <path d="M 57.6 307.584 
L 57.6 41.472 
" style="fill: none; stroke: #000000; stroke-width: 0.8; stroke-linejoin: miter; stroke-linecap: square"/>
   </g>
   <g id="patch_4">
    <path d="M 343.296 307.584 
L 343.296 41.472 
" style="fill: none; stroke: #000000; stroke-width: 0.8; stroke-linejoin: miter; stroke-linecap: square"/>
   </g>
   <g id="patch_5">
    <path d="M 57.6 307.584 
L 343.296 307.584 
" style="fill: none; stroke: #000000; stroke-width: 0.8; stroke-linejoin: miter; stroke-linecap: square"/>
   </g>
   <g id="patch_6">
    <path d="M 57.6 41.472 
L 343.296 41.472 
" style="fill: none; stroke: #000000; stroke-width: 0.8; stroke-linejoin: miter; stroke-linecap: square"/>
   </g>
   <g id="text_22">
    <!-- $\theta_m$ = 49 -->
    <g transform="translate(182.298 35.472) scale(0.1 -0.1)">
     <defs>
      <path id="DejaVuSans-Oblique-3b8" d="M 2913 2219 
L 925 2219 
Q 791 1284 928 888 
Q 1100 400 1566 400 
Q 2034 400 2391 891 
Q 2703 1322 2913 2219 
z
M 3009 2750 
Q 3094 3638 2984 3950 
Q 2813 4444 2353 4444 
Q 1875 4444 1525 3956 
Q 1250 3563 1034 2750 
L 3009 2750 
z
M 2444 4913 
Q 3194 4913 3494 4250 
Q 3794 3591 3566 2422 
Q 3341 1256 2781 594 
Q 2225 -72 1475 -72 
Q 722 -72 425 594 
Q 128 1256 353 2422 
Q 581 3591 1134 4250 
Q 1691 4913 2444 4913 
z
" transform="scale(0.015625)"/>
      <path id="DejaVuSans-Oblique-6d" d="M 5747 2113 
L 5338 0 
L 4763 0 
L 5166 2094 
Q 5191 2228 5203 2325 
Q 5216 2422 5216 2491 
Q 5216 2772 5059 2928 
Q 4903 3084 4622 3084 
Q 4203 3084 3875 2770 
Q 3547 2456 3450 1953 
L 3066 0 
L 2491 0 
L 2900 2094 
Q 2925 2209 2937 2307 
Q 2950 2406 2950 2484 
Q 2950 2769 2794 2926 
Q 2638 3084 2363 3084 
Q 1938 3084 1609 2770 
Q 1281 2456 1184 1953 
L 800 0 
L 225 0 
L 909 3500 
L 1484 3500 
L 1375 2956 
Q 1609 3263 1923 3423 
Q 2238 3584 2597 3584 
Q 2978 3584 3223 3384 
Q 3469 3184 3519 2828 
Q 3781 3197 4126 3390 
Q 4472 3584 4856 3584 
Q 5306 3584 5551 3325 
Q 5797 3066 5797 2591 
Q 5797 2488 5784 2364 
Q 5772 2241 5747 2113 
z
" transform="scale(0.015625)"/>
      <path id="Calibri-3d" d="M 2891 2409 
Q 2891 2284 2855 2236 
Q 2819 2188 2772 2188 
L 409 2188 
Q 363 2188 328 2236 
Q 294 2284 294 2409 
Q 294 2522 325 2575 
Q 356 2628 409 2628 
L 2772 2628 
Q 2828 2628 2859 2575 
Q 2891 2522 2891 2409 
z
M 2891 1194 
Q 2891 1069 2855 1022 
Q 2819 975 2772 975 
L 409 975 
Q 363 975 328 1022 
Q 294 1069 294 1194 
Q 294 1309 325 1362 
Q 356 1416 409 1416 
L 2772 1416 
Q 2828 1416 2859 1362 
Q 2891 1309 2891 1194 
z
" transform="scale(0.015625)"/>
      <path id="Calibri-b0" d="M 1847 3541 
Q 1847 3388 1789 3253 
Q 1731 3119 1626 3017 
Q 1522 2916 1380 2859 
Q 1238 2803 1072 2803 
Q 906 2803 770 2854 
Q 634 2906 534 3000 
Q 434 3094 378 3225 
Q 322 3356 322 3516 
Q 322 3675 381 3811 
Q 441 3947 545 4044 
Q 650 4141 790 4197 
Q 931 4253 1097 4253 
Q 1259 4253 1396 4200 
Q 1534 4147 1634 4055 
Q 1734 3963 1790 3831 
Q 1847 3700 1847 3541 
z
M 1453 3528 
Q 1453 3613 1425 3686 
Q 1397 3759 1347 3812 
Q 1297 3866 1228 3895 
Q 1159 3925 1078 3925 
Q 1000 3925 933 3895 
Q 866 3866 816 3812 
Q 766 3759 737 3687 
Q 709 3616 709 3534 
Q 709 3444 737 3369 
Q 766 3294 817 3241 
Q 869 3188 939 3158 
Q 1009 3128 1091 3128 
Q 1166 3128 1233 3159 
Q 1300 3191 1348 3245 
Q 1397 3300 1425 3372 
Q 1453 3444 1453 3528 
z
M 0 4044 
L 0 4044 
z
" transform="scale(0.015625)"/>
     </defs>
     <use xlink:href="#DejaVuSans-Oblique-3b8" transform="translate(0 0.234375)"/>
     <use xlink:href="#DejaVuSans-Oblique-6d" transform="translate(61.181641 -16.171875) scale(0.7)"/>
     <use xlink:href="#Calibri-20" transform="translate(132.104492 0.234375)"/>
     <use xlink:href="#Calibri-3d" transform="translate(154.711914 0.234375)"/>
     <use xlink:href="#Calibri-20" transform="translate(204.516602 0.234375)"/>
     <use xlink:href="#Calibri-34" transform="translate(227.124023 0.234375)"/>
     <use xlink:href="#Calibri-39" transform="translate(277.807617 0.234375)"/>
     <use xlink:href="#Calibri-b0" transform="translate(328.491211 0.234375)"/>
    </g>
   </g>
  </g>
  <g id="axes_2">
   <g id="patch_7">
    <path d="M 361.152 307.584 
L 374.4576 307.584 
L 374.4576 41.472 
L 361.152 41.472 
z
" style="fill: #ffffff"/>
   </g>
   <g id="QuadMesh_1">
    <path d="M 361.152 307.584 
L 374.4576 307.584 
L 374.4576 280.9728 
L 361.152 280.9728 
L 361.152 307.584 
" clip-path="url(#p6465b78faf)" style="fill: #0000b6"/>
    <path d="M 361.152 280.9728 
L 374.4576 280.9728 
L 374.4576 254.3616 
L 361.152 254.3616 
L 361.152 280.9728 
" clip-path="url(#p6465b78faf)" style="fill: #0018ff"/>
    <path d="M 361.152 254.3616 
L 374.4576 254.3616 
L 374.4576 227.7504 
L 361.152 227.7504 
L 361.152 254.3616 
" clip-path="url(#p6465b78faf)" style="fill: #0080ff"/>
    <path d="M 361.152 227.7504 
L 374.4576 227.7504 
L 374.4576 201.1392 
L 361.152 201.1392 
L 361.152 227.7504 
" clip-path="url(#p6465b78faf)" style="fill: #00e4f8"/>
    <path d="M 361.152 201.1392 
L 374.4576 201.1392 
L 374.4576 174.528 
L 361.152 174.528 
L 361.152 201.1392 
" clip-path="url(#p6465b78faf)" style="fill: #53ffa4"/>
    <path d="M 361.152 174.528 
L 374.4576 174.528 
L 374.4576 147.9168 
L 361.152 147.9168 
L 361.152 174.528 
" clip-path="url(#p6465b78faf)" style="fill: #a4ff53"/>
    <path d="M 361.152 147.9168 
L 374.4576 147.9168 
L 374.4576 121.3056 
L 361.152 121.3056 
L 361.152 147.9168 
" clip-path="url(#p6465b78faf)" style="fill: #f8f500"/>
    <path d="M 361.152 121.3056 
L 374.4576 121.3056 
L 374.4576 94.6944 
L 361.152 94.6944 
L 361.152 121.3056 
" clip-path="url(#p6465b78faf)" style="fill: #ff9400"/>
    <path d="M 361.152 94.6944 
L 374.4576 94.6944 
L 374.4576 68.0832 
L 361.152 68.0832 
L 361.152 94.6944 
" clip-path="url(#p6465b78faf)" style="fill: #ff3800"/>
    <path d="M 361.152 68.0832 
L 374.4576 68.0832 
L 374.4576 41.472 
L 361.152 41.472 
L 361.152 68.0832 
" clip-path="url(#p6465b78faf)" style="fill: #b60000"/>
   </g>
   <g id="matplotlib.axis_3"/>
   <g id="matplotlib.axis_4">
    <g id="ytick_9">
     <g id="line2d_20">
      <defs>
       <path id="m032a06d503" d="M 0 0 
L 3.5 0 
" style="stroke: #000000; stroke-width: 0.8"/>
      </defs>
      <g>
       <use xlink:href="#m032a06d503" x="374.4576" y="307.584" style="stroke: #000000; stroke-width: 0.8"/>
      </g>
     </g>
     <g id="text_23">
      <!-- 0 -->
      <g transform="translate(381.4576 310.984781) scale(0.1 -0.1)">
       <use xlink:href="#Calibri-30"/>
      </g>
     </g>
    </g>
    <g id="ytick_10">
     <g id="line2d_21">
      <g>
       <use xlink:href="#m032a06d503" x="374.4576" y="280.9728" style="stroke: #000000; stroke-width: 0.8"/>
      </g>
     </g>
     <g id="text_24">
      <!-- 0.1 -->
      <g transform="translate(381.4576 284.373581) scale(0.1 -0.1)">
       <use xlink:href="#Calibri-30"/>
       <use xlink:href="#Calibri-2e" x="50.683594"/>
       <use xlink:href="#Calibri-31" x="75.927734"/>
      </g>
     </g>
    </g>
    <g id="ytick_11">
     <g id="line2d_22">
      <g>
       <use xlink:href="#m032a06d503" x="374.4576" y="254.3616" style="stroke: #000000; stroke-width: 0.8"/>
      </g>
     </g>
     <g id="text_25">
      <!-- 0.2 -->
      <g transform="translate(381.4576 257.762381) scale(0.1 -0.1)">
       <use xlink:href="#Calibri-30"/>
       <use xlink:href="#Calibri-2e" x="50.683594"/>
       <use xlink:href="#Calibri-32" x="75.927734"/>
      </g>
     </g>
    </g>
    <g id="ytick_12">
     <g id="line2d_23">
      <g>
       <use xlink:href="#m032a06d503" x="374.4576" y="227.7504" style="stroke: #000000; stroke-width: 0.8"/>
      </g>
     </g>
     <g id="text_26">
      <!-- 0.3 -->
      <g transform="translate(381.4576 231.151181) scale(0.1 -0.1)">
       <use xlink:href="#Calibri-30"/>
       <use xlink:href="#Calibri-2e" x="50.683594"/>
       <use xlink:href="#Calibri-33" x="75.927734"/>
      </g>
     </g>
    </g>
    <g id="ytick_13">
     <g id="line2d_24">
      <g>
       <use xlink:href="#m032a06d503" x="374.4576" y="201.1392" style="stroke: #000000; stroke-width: 0.8"/>
      </g>
     </g>
     <g id="text_27">
      <!-- 0.4 -->
      <g transform="translate(381.4576 204.539981) scale(0.1 -0.1)">
       <use xlink:href="#Calibri-30"/>
       <use xlink:href="#Calibri-2e" x="50.683594"/>
       <use xlink:href="#Calibri-34" x="75.927734"/>
      </g>
     </g>
    </g>
    <g id="ytick_14">
     <g id="line2d_25">
      <g>
       <use xlink:href="#m032a06d503" x="374.4576" y="174.528" style="stroke: #000000; stroke-width: 0.8"/>
      </g>
     </g>
     <g id="text_28">
      <!-- 0.5 -->
      <g transform="translate(381.4576 177.928781) scale(0.1 -0.1)">
       <use xlink:href="#Calibri-30"/>
       <use xlink:href="#Calibri-2e" x="50.683594"/>
       <use xlink:href="#Calibri-35" x="75.927734"/>
      </g>
     </g>
    </g>
    <g id="ytick_15">
     <g id="line2d_26">
      <g>
       <use xlink:href="#m032a06d503" x="374.4576" y="147.9168" style="stroke: #000000; stroke-width: 0.8"/>
      </g>
     </g>
     <g id="text_29">
      <!-- 0.6 -->
      <g transform="translate(381.4576 151.317581) scale(0.1 -0.1)">
       <use xlink:href="#Calibri-30"/>
       <use xlink:href="#Calibri-2e" x="50.683594"/>
       <use xlink:href="#Calibri-36" x="75.927734"/>
      </g>
     </g>
    </g>
    <g id="ytick_16">
     <g id="line2d_27">
      <g>
       <use xlink:href="#m032a06d503" x="374.4576" y="121.3056" style="stroke: #000000; stroke-width: 0.8"/>
      </g>
     </g>
     <g id="text_30">
      <!-- 0.7 -->
      <g transform="translate(381.4576 124.706381) scale(0.1 -0.1)">
       <use xlink:href="#Calibri-30"/>
       <use xlink:href="#Calibri-2e" x="50.683594"/>
       <use xlink:href="#Calibri-37" x="75.927734"/>
      </g>
     </g>
    </g>
    <g id="ytick_17">
     <g id="line2d_28">
      <g>
       <use xlink:href="#m032a06d503" x="374.4576" y="94.6944" style="stroke: #000000; stroke-width: 0.8"/>
      </g>
     </g>
     <g id="text_31">
      <!-- 0.8 -->
      <g transform="translate(381.4576 98.095181) scale(0.1 -0.1)">
       <use xlink:href="#Calibri-30"/>
       <use xlink:href="#Calibri-2e" x="50.683594"/>
       <use xlink:href="#Calibri-38" x="75.927734"/>
      </g>
     </g>
    </g>
    <g id="ytick_18">
     <g id="line2d_29">
      <g>
       <use xlink:href="#m032a06d503" x="374.4576" y="68.0832" style="stroke: #000000; stroke-width: 0.8"/>
      </g>
     </g>
     <g id="text_32">
      <!-- 0.9 -->
      <g transform="translate(381.4576 71.483981) scale(0.1 -0.1)">
       <use xlink:href="#Calibri-30"/>
       <use xlink:href="#Calibri-2e" x="50.683594"/>
       <use xlink:href="#Calibri-39" x="75.927734"/>
      </g>
     </g>
    </g>
    <g id="ytick_19">
     <g id="line2d_30">
      <g>
       <use xlink:href="#m032a06d503" x="374.4576" y="41.472" style="stroke: #000000; stroke-width: 0.8"/>
      </g>
     </g>
     <g id="text_33">
      <!-- 1.0 -->
      <g transform="translate(381.4576 44.872781) scale(0.1 -0.1)">
       <use xlink:href="#Calibri-31"/>
       <use xlink:href="#Calibri-2e" x="50.683594"/>
       <use xlink:href="#Calibri-30" x="75.927734"/>
      </g>
     </g>
    </g>
   </g>
   <g id="LineCollection_1"/>
   <g id="patch_8">
    <path d="M 361.152 307.584 
L 367.8048 307.584 
L 374.4576 307.584 
L 374.4576 41.472 
L 367.8048 41.472 
L 361.152 41.472 
L 361.152 307.584 
z
" style="fill: none; stroke: #000000; stroke-width: 0.8; stroke-linejoin: miter; stroke-linecap: square"/>
   </g>
   <g id="text_34">
    <!-- $\mathit{E}_{\mathrm{NF}}$/$\mathit{E}_{\mathrm{i}}$ -->
    <g transform="translate(353.6548 35.472) scale(0.1 -0.1)">
     <defs>
      <path id="DejaVuSans-Oblique-45" d="M 1081 4666 
L 4031 4666 
L 3928 4134 
L 1606 4134 
L 1338 2753 
L 3566 2753 
L 3463 2222 
L 1234 2222 
L 909 531 
L 3284 531 
L 3181 0 
L 172 0 
L 1081 4666 
z
" transform="scale(0.015625)"/>
      <path id="DejaVuSans-4e" d="M 628 4666 
L 1478 4666 
L 3547 763 
L 3547 4666 
L 4159 4666 
L 4159 0 
L 3309 0 
L 1241 3903 
L 1241 0 
L 628 0 
L 628 4666 
z
" transform="scale(0.015625)"/>
      <path id="DejaVuSans-46" d="M 628 4666 
L 3309 4666 
L 3309 4134 
L 1259 4134 
L 1259 2759 
L 3109 2759 
L 3109 2228 
L 1259 2228 
L 1259 0 
L 628 0 
L 628 4666 
z
" transform="scale(0.015625)"/>
      <path id="DejaVuSans-69" d="M 603 3500 
L 1178 3500 
L 1178 0 
L 603 0 
L 603 3500 
z
M 603 4863 
L 1178 4863 
L 1178 4134 
L 603 4134 
L 603 4863 
z
" transform="scale(0.015625)"/>
     </defs>
     <use xlink:href="#DejaVuSans-Oblique-45" transform="translate(0 0.09375)"/>
     <use xlink:href="#DejaVuSans-4e" transform="translate(63.183594 -16.3125) scale(0.7)"/>
     <use xlink:href="#DejaVuSans-46" transform="translate(115.546875 -16.3125) scale(0.7)"/>
     <use xlink:href="#Calibri-2f" transform="translate(158.544922 0.09375)"/>
     <use xlink:href="#DejaVuSans-Oblique-45" transform="translate(197.167969 0.09375)"/>
     <use xlink:href="#DejaVuSans-69" transform="translate(260.351562 -16.3125) scale(0.7)"/>
    </g>
   </g>
  </g>
 </g>
 <defs>
  <clipPath id="paa6c605888">
   <rect x="57.6" y="41.472" width="285.696" height="266.112"/>
  </clipPath>
  <clipPath id="p6465b78faf">
   <rect x="361.152" y="41.472" width="13.3056" height="266.112"/>
  </clipPath>
 </defs>
</svg>
