<?xml version="1.0" encoding="utf-8" standalone="no"?>
<!DOCTYPE svg PUBLIC "-//W3C//DTD SVG 1.1//EN"
  "http://www.w3.org/Graphics/SVG/1.1/DTD/svg11.dtd">
<svg xmlns:xlink="http://www.w3.org/1999/xlink" width="460.8pt" height="345.6pt" viewBox="0 0 460.8 345.6" xmlns="http://www.w3.org/2000/svg" version="1.1">
 <metadata>
  <rdf:RDF xmlns:dc="http://purl.org/dc/elements/1.1/" xmlns:cc="http://creativecommons.org/ns#" xmlns:rdf="http://www.w3.org/1999/02/22-rdf-syntax-ns#">
   <cc:Work>
    <dc:type rdf:resource="http://purl.org/dc/dcmitype/StillImage"/>
    <dc:date>2024-01-22T08:40:17.835597</dc:date>
    <dc:format>image/svg+xml</dc:format>
    <dc:creator>
     <cc:Agent>
      <dc:title>Matplotlib v3.7.1, https://matplotlib.org/</dc:title>
     </cc:Agent>
    </dc:creator>
   </cc:Work>
  </rdf:RDF>
 </metadata>
 <defs>
  <style type="text/css">*{stroke-linejoin: round; stroke-linecap: butt}</style>
 </defs>
 <g id="figure_1">
  <g id="patch_1">
   <path d="M 0 345.6 
L 460.8 345.6 
L 460.8 0 
L 0 0 
z
" style="fill: #ffffff"/>
  </g>
  <g id="axes_1">
   <g id="patch_2">
    <path d="M 57.6 307.584 
L 343.296 307.584 
L 343.296 41.472 
L 57.6 41.472 
z
" style="fill: #ffffff"/>
   </g>
   <g id="PathCollection_1">
    <path clip-path="url(#pe5c8eba3e8)" style="fill: #0000b6"/>
   </g>
   <g id="PathCollection_2">
    <path d="M 74.863233 41.472 
L 75.255192 42.254904 
L 75.3528 42.44628 
L 75.412425 42.565048 
L 75.535741 42.809478 
L 76.086172 43.886304 
L 76.553832 44.7984 
L 77.022009 45.703981 
L 77.772808 47.15052 
L 78.007356 47.608889 
L 78.287072 48.1248 
L 78.573579 48.686992 
L 78.78595 49.09908 
L 79.243195 49.961468 
L 80.034889 51.4512 
L 80.27722 51.903164 
L 81.298989 53.80332 
L 81.38422 53.963788 
L 81.840337 54.7776 
L 82.193065 55.439621 
L 82.356384 55.75188 
L 82.429127 55.884272 
L 82.940699 56.813849 
L 83.586744 57.983777 
L 83.653252 58.104 
L 84.699892 59.977611 
L 84.967503 60.45612 
L 85.087504 60.66095 
L 85.530122 61.4304 
L 85.755289 61.837822 
L 85.878163 62.064231 
L 86.074583 62.40468 
L 86.952794 63.940987 
L 87.419569 64.7568 
L 87.933965 65.646687 
L 88.436532 66.515668 
L 88.65225 66.883722 
L 88.784264 67.10892 
L 89.045054 67.557399 
L 89.357339 68.0832 
L 89.41675 68.186944 
L 89.448797 68.24391 
L 89.933559 69.05748 
L 90.367639 69.791674 
L 91.067986 70.976116 
L 91.192923 71.184609 
L 91.327707 71.4096 
L 92.094189 72.675261 
L 92.751763 73.76172 
L 93.103811 74.347288 
L 93.347395 74.736 
L 93.893093 75.640191 
L 93.934647 75.71028 
L 94.477488 76.58757 
L 95.389301 78.0624 
L 95.580957 78.368932 
L 96.634997 80.056932 
L 96.812874 80.340327 
L 96.859385 80.41452 
L 96.887419 80.458349 
L 97.488002 81.3888 
L 97.948015 82.131002 
L 98.097449 82.36308 
L 99.117382 83.954199 
L 99.604167 84.7152 
L 100.136475 85.537553 
L 100.578255 86.221225 
L 100.900778 86.713687 
L 101.131759 87.06732 
L 101.693795 87.930898 
L 101.766921 88.0416 
L 101.78499 88.069838 
L 102.412231 89.01588 
L 102.696548 89.446161 
L 103.087994 90.040188 
L 103.33993 90.414998 
L 103.33993 88.0416 
L 103.33993 84.7152 
L 103.33993 81.3888 
L 103.33993 78.0624 
L 103.33993 74.736 
L 103.33993 71.4096 
L 103.33993 68.0832 
L 103.33993 64.7568 
L 103.33993 61.4304 
L 103.33993 58.104 
L 103.33993 54.7776 
L 103.33993 51.4512 
L 103.33993 48.1248 
L 103.33993 44.7984 
L 103.33993 41.472 
L 101.816218 41.472 
L 100.292506 41.472 
L 98.768794 41.472 
L 97.245082 41.472 
L 95.72137 41.472 
L 94.197658 41.472 
L 92.673946 41.472 
L 91.150234 41.472 
L 89.626522 41.472 
L 88.10281 41.472 
L 86.579098 41.472 
L 85.055386 41.472 
L 83.531674 41.472 
L 82.007962 41.472 
L 80.48425 41.472 
L 78.960538 41.472 
L 77.436826 41.472 
L 75.913114 41.472 
" clip-path="url(#pe5c8eba3e8)" style="fill: #0018ff"/>
   </g>
   <g id="PathCollection_3">
    <path d="M 103.33993 90.414998 
L 103.087994 90.040188 
L 102.696548 89.446161 
L 102.412231 89.01588 
L 101.78499 88.069838 
L 101.766921 88.0416 
L 101.693795 87.930898 
L 101.131759 87.06732 
L 100.900778 86.713687 
L 100.578255 86.221225 
L 100.136475 85.537553 
L 99.604167 84.7152 
L 99.117382 83.954199 
L 98.097449 82.36308 
L 97.948015 82.131002 
L 97.488002 81.3888 
L 96.887419 80.458349 
L 96.859385 80.41452 
L 96.812874 80.340327 
L 96.634997 80.056932 
L 95.580957 78.368932 
L 95.389301 78.0624 
L 94.477488 76.58757 
L 93.934647 75.71028 
L 93.893093 75.640191 
L 93.347395 74.736 
L 93.103811 74.347288 
L 92.751763 73.76172 
L 92.094189 72.675261 
L 91.327707 71.4096 
L 91.192923 71.184609 
L 91.067986 70.976116 
L 90.367639 69.791674 
L 89.933559 69.05748 
L 89.448797 68.24391 
L 89.41675 68.186944 
L 89.357339 68.0832 
L 89.045054 67.557399 
L 88.784264 67.10892 
L 88.65225 66.883722 
L 88.436532 66.515668 
L 87.933965 65.646687 
L 87.419569 64.7568 
L 86.952794 63.940987 
L 86.074583 62.40468 
L 85.878163 62.064231 
L 85.755289 61.837822 
L 85.530122 61.4304 
L 85.087504 60.66095 
L 84.967503 60.45612 
L 84.699892 59.977611 
L 83.653252 58.104 
L 83.586744 57.983777 
L 82.940699 56.813849 
L 82.429127 55.884272 
L 82.356384 55.75188 
L 82.193065 55.439621 
L 81.840337 54.7776 
L 81.38422 53.963788 
L 81.298989 53.80332 
L 80.27722 51.903164 
L 80.034889 51.4512 
L 79.243195 49.961468 
L 78.78595 49.09908 
L 78.573579 48.686992 
L 78.287072 48.1248 
L 78.007356 47.608889 
L 77.772808 47.15052 
L 77.022009 45.703981 
L 76.553832 44.7984 
L 76.086172 43.886304 
L 75.535741 42.809478 
L 75.412425 42.565048 
L 75.3528 42.44628 
L 75.255192 42.254904 
L 74.863233 41.472 
L 74.389402 41.472 
L 72.86569 41.472 
L 71.341978 41.472 
L 69.818266 41.472 
L 68.294554 41.472 
L 66.770842 41.472 
L 65.24713 41.472 
L 63.723418 41.472 
L 62.199706 41.472 
L 60.675994 41.472 
L 59.152282 41.472 
L 57.62857 41.472 
L 57.62857 44.7984 
L 57.62857 48.1248 
L 57.62857 51.4512 
L 57.62857 54.7776 
L 57.62857 58.104 
L 57.62857 61.4304 
L 57.62857 64.7568 
L 57.62857 68.0832 
L 57.62857 71.4096 
L 57.62857 74.736 
L 57.62857 78.0624 
L 57.62857 81.3888 
L 57.62857 84.7152 
L 57.62857 88.0416 
L 57.62857 90.096604 
L 57.801365 90.45729 
L 58.242794 91.368 
L 58.711278 92.330751 
L 59.395591 93.72012 
L 59.649551 94.244736 
L 59.73365 94.406879 
L 59.881257 94.6944 
L 60.111405 95.168743 
L 60.355396 95.66868 
L 60.912331 96.775196 
L 61.544299 98.0208 
L 61.889479 98.698053 
L 62.752335 100.37292 
L 62.917422 100.698194 
L 63.04289 100.930195 
L 63.266187 101.3472 
L 63.624911 102.052048 
L 63.762798 102.32148 
L 64.061905 102.889623 
L 65.00784 104.6736 
L 65.136526 104.915057 
L 66.272186 107.02572 
L 66.289179 107.057711 
L 66.816609 108 
L 67.125651 108.578092 
L 67.297189 108.901882 
L 67.337808 108.97428 
L 68.451939 110.982813 
L 68.644086 111.3264 
L 69.522146 112.887082 
L 69.970024 113.67852 
L 70.210189 114.093064 
L 70.536131 114.6528 
L 70.710586 114.96506 
L 70.806047 115.137423 
L 71.091966 115.62708 
L 71.83267 116.907975 
L 72.456601 117.9792 
L 72.765654 118.506433 
L 73.060748 119.007245 
L 73.545282 119.821988 
L 73.850119 120.33132 
L 74.414735 121.282692 
L 74.428915 121.3056 
L 74.445411 121.3333 
L 74.47534 121.383311 
L 75.019539 122.27988 
L 75.27355 122.701824 
L 75.671526 123.358728 
L 76.040272 123.961821 
L 76.451804 124.632 
L 77.017636 125.547129 
L 77.911112 126.98412 
L 78.127197 127.334121 
L 78.52785 127.9584 
L 79.009945 128.736401 
L 79.132132 128.93268 
L 79.343632 129.265722 
L 80.110225 130.468271 
L 80.546167 131.149629 
L 80.633048 131.2848 
L 81.696406 132.926835 
L 82.157798 133.63692 
L 82.231454 133.747104 
L 82.804119 134.6112 
L 83.071854 135.026999 
L 83.444282 135.58548 
L 84.133388 136.624003 
L 85.008482 137.9376 
L 85.04505 137.992073 
L 85.073832 138.034822 
L 85.946269 139.319121 
L 86.607822 140.28972 
L 87.006703 140.877332 
L 87.277562 141.264 
L 87.63249 141.784965 
L 87.942631 142.23828 
L 88.41915 142.923143 
L 89.581834 144.5904 
L 89.60889 144.628891 
L 89.709585 144.771734 
L 90.818593 146.338294 
L 91.247152 146.94252 
L 91.339579 147.069592 
L 91.950672 147.9168 
L 92.23234 148.316129 
L 92.649565 148.89108 
L 93.324353 149.823302 
L 94.142166 150.950735 
L 94.230298 151.071168 
L 94.356352 151.2432 
L 95.199021 152.383534 
L 96.09593 153.59532 
L 96.377437 153.976341 
L 96.827084 154.5696 
L 97.349068 155.271738 
L 97.549725 155.54388 
L 97.662921 155.6938 
L 97.909451 156.019978 
L 98.981416 157.431827 
L 99.334174 157.896 
L 100.102388 158.898006 
L 100.607554 159.556446 
L 100.88902 159.920155 
L 101.142949 160.24812 
L 101.863639 161.179518 
L 101.897107 161.2224 
L 102.090923 161.470807 
L 102.659181 162.19668 
L 102.807062 162.385698 
L 102.968677 162.592135 
L 103.33993 163.059605 
L 103.33993 161.2224 
L 103.33993 157.896 
L 103.33993 154.5696 
L 103.33993 151.2432 
L 103.33993 147.9168 
L 103.33993 144.5904 
L 103.33993 141.264 
L 103.33993 137.9376 
L 103.33993 134.6112 
L 103.33993 131.2848 
L 103.33993 127.9584 
L 103.33993 124.632 
L 103.33993 121.3056 
L 103.33993 117.9792 
L 103.33993 114.6528 
L 103.33993 111.3264 
L 103.33993 108 
L 103.33993 104.6736 
L 103.33993 101.3472 
L 103.33993 98.0208 
L 103.33993 94.6944 
L 103.33993 91.368 
" clip-path="url(#pe5c8eba3e8)" style="fill: #0080ff"/>
   </g>
   <g id="PathCollection_4">
    <path d="M 103.33993 163.059605 
L 102.968677 162.592135 
L 102.807062 162.385698 
L 102.659181 162.19668 
L 102.090923 161.470807 
L 101.897107 161.2224 
L 101.863639 161.179518 
L 101.142949 160.24812 
L 100.88902 159.920155 
L 100.607554 159.556446 
L 100.102388 158.898006 
L 99.334174 157.896 
L 98.981416 157.431827 
L 97.909451 156.019978 
L 97.662921 155.6938 
L 97.549725 155.54388 
L 97.349068 155.271738 
L 96.827084 154.5696 
L 96.377437 153.976341 
L 96.09593 153.59532 
L 95.199021 152.383534 
L 94.356352 151.2432 
L 94.230298 151.071168 
L 94.142166 150.950735 
L 93.324353 149.823302 
L 92.649565 148.89108 
L 92.23234 148.316129 
L 91.950672 147.9168 
L 91.339579 147.069592 
L 91.247152 146.94252 
L 90.818593 146.338294 
L 89.709585 144.771734 
L 89.60889 144.628891 
L 89.581834 144.5904 
L 88.41915 142.923143 
L 87.942631 142.23828 
L 87.63249 141.784965 
L 87.277562 141.264 
L 87.006703 140.877332 
L 86.607822 140.28972 
L 85.946269 139.319121 
L 85.073832 138.034822 
L 85.04505 137.992073 
L 85.008482 137.9376 
L 84.133388 136.624003 
L 83.444282 135.58548 
L 83.071854 135.026999 
L 82.804119 134.6112 
L 82.231454 133.747104 
L 82.157798 133.63692 
L 81.696406 132.926835 
L 80.633048 131.2848 
L 80.546167 131.149629 
L 80.110225 130.468271 
L 79.343632 129.265722 
L 79.132132 128.93268 
L 79.009945 128.736401 
L 78.52785 127.9584 
L 78.127197 127.334121 
L 77.911112 126.98412 
L 77.017636 125.547129 
L 76.451804 124.632 
L 76.040272 123.961821 
L 75.671526 123.358728 
L 75.27355 122.701824 
L 75.019539 122.27988 
L 74.47534 121.383311 
L 74.445411 121.3333 
L 74.428915 121.3056 
L 74.414735 121.282692 
L 73.850119 120.33132 
L 73.545282 119.821988 
L 73.060748 119.007245 
L 72.765654 118.506433 
L 72.456601 117.9792 
L 71.83267 116.907975 
L 71.091966 115.62708 
L 70.806047 115.137423 
L 70.710586 114.96506 
L 70.536131 114.6528 
L 70.210189 114.093064 
L 69.970024 113.67852 
L 69.522146 112.887082 
L 68.644086 111.3264 
L 68.451939 110.982813 
L 67.337808 108.97428 
L 67.297189 108.901882 
L 67.125651 108.578092 
L 66.816609 108 
L 66.289179 107.057711 
L 66.272186 107.02572 
L 65.136526 104.915057 
L 65.00784 104.6736 
L 64.061905 102.889623 
L 63.762798 102.32148 
L 63.624911 102.052048 
L 63.266187 101.3472 
L 63.04289 100.930195 
L 62.917422 100.698194 
L 62.752335 100.37292 
L 61.889479 98.698053 
L 61.544299 98.0208 
L 60.912331 96.775196 
L 60.355396 95.66868 
L 60.111405 95.168743 
L 59.881257 94.6944 
L 59.73365 94.406879 
L 59.649551 94.244736 
L 59.395591 93.72012 
L 58.711278 92.330751 
L 58.242794 91.368 
L 57.801365 90.45729 
L 57.62857 90.096604 
L 57.62857 91.368 
L 57.62857 94.6944 
L 57.62857 98.0208 
L 57.62857 101.3472 
L 57.62857 104.6736 
L 57.62857 108 
L 57.62857 111.3264 
L 57.62857 114.6528 
L 57.62857 117.9792 
L 57.62857 121.3056 
L 57.62857 124.632 
L 57.62857 127.9584 
L 57.62857 131.2848 
L 57.62857 134.6112 
L 57.62857 137.9376 
L 57.62857 141.264 
L 57.62857 144.5904 
L 57.62857 147.9168 
L 57.62857 151.2432 
L 57.62857 153.432488 
L 57.914143 153.946167 
L 58.266036 154.5696 
L 58.564223 155.101361 
L 58.818015 155.54388 
L 59.599092 156.920573 
L 60.16064 157.896 
L 60.548366 158.568656 
L 60.926901 159.218396 
L 61.30101 159.857933 
L 61.532399 160.24812 
L 61.997052 161.039147 
L 62.105947 161.2224 
L 62.126714 161.258499 
L 62.13805 161.278153 
L 62.688783 162.19668 
L 63.020958 162.755931 
L 63.549909 163.634335 
L 63.814027 164.071246 
L 64.105542 164.5488 
L 64.758173 165.616237 
L 65.553824 166.90092 
L 65.829045 167.348994 
L 66.164099 167.8752 
L 66.664016 168.681597 
L 66.768278 168.84948 
L 67.113355 169.396404 
L 68.262984 171.2016 
L 68.281359 171.230406 
L 68.372162 171.371026 
L 69.465362 173.061558 
L 69.786454 173.55372 
L 69.988669 173.858709 
L 70.432062 174.528 
L 70.768063 175.046971 
L 71.072453 175.50228 
L 71.869642 176.702461 
L 72.643433 177.8544 
L 72.816814 178.111996 
L 72.952486 178.311854 
L 73.686287 179.389362 
L 74.248716 180.20652 
L 74.714391 180.886923 
L 74.92137 181.1808 
L 75.197373 181.58039 
L 75.59402 182.15508 
L 76.196214 183.015137 
L 77.249182 184.5072 
L 77.36306 184.668236 
L 77.774197 185.243712 
L 78.601415 186.399937 
L 78.932555 186.85932 
L 79.169063 187.183162 
L 79.643734 187.8336 
L 79.974463 188.294582 
L 80.352257 188.80788 
L 81.096471 189.823467 
L 81.981329 191.019637 
L 82.023745 191.076814 
L 82.085883 191.16 
L 82.982921 192.357977 
L 83.854905 193.51212 
L 84.160342 193.917917 
L 84.598137 194.4864 
L 85.239171 195.330858 
L 85.337647 195.46068 
L 85.469155 195.632049 
L 85.741811 195.984928 
L 86.793637 197.344442 
L 87.159008 197.8128 
L 87.918543 198.783968 
L 88.40411 199.40079 
L 88.717307 199.797697 
L 89.009365 200.16492 
L 89.717095 201.057298 
L 89.738528 201.083806 
L 89.783364 201.1392 
L 89.885909 201.267483 
L 90.191771 201.650335 
L 90.562895 202.11348 
L 90.652548 202.225692 
L 90.747638 202.34374 
L 91.399581 203.151426 
L 92.466825 204.4656 
L 92.599362 204.628423 
L 92.937124 205.040141 
L 93.872546 206.179083 
L 94.400127 206.81772 
L 94.471232 206.903135 
L 95.212394 207.792 
L 95.429829 208.05563 
L 96.026467 208.76628 
L 96.525778 209.362305 
L 97.023881 209.952572 
L 97.385191 210.37996 
L 98.012867 211.1184 
L 98.5045 211.695377 
L 99.638464 213.016969 
L 99.879116 213.297147 
L 100.028807 213.47052 
L 100.166898 213.629114 
L 100.876699 214.4448 
L 101.157567 214.770542 
L 101.288441 214.92205 
L 101.723926 215.41908 
L 102.491652 216.296667 
L 103.216304 217.119638 
L 103.33993 217.259534 
L 103.33993 214.4448 
L 103.33993 211.1184 
L 103.33993 207.792 
L 103.33993 204.4656 
L 103.33993 201.1392 
L 103.33993 197.8128 
L 103.33993 194.4864 
L 103.33993 191.16 
L 103.33993 187.8336 
L 103.33993 184.5072 
L 103.33993 181.1808 
L 103.33993 177.8544 
L 103.33993 174.528 
L 103.33993 171.2016 
L 103.33993 167.8752 
L 103.33993 164.5488 
" clip-path="url(#pe5c8eba3e8)" style="fill: #00e4f8"/>
   </g>
   <g id="PathCollection_5">
    <path d="M 103.33993 217.259534 
L 103.216304 217.119638 
L 102.491652 216.296667 
L 101.723926 215.41908 
L 101.288441 214.92205 
L 101.157567 214.770542 
L 100.876699 214.4448 
L 100.166898 213.629114 
L 100.028807 213.47052 
L 99.879116 213.297147 
L 99.638464 213.016969 
L 98.5045 211.695377 
L 98.012867 211.1184 
L 97.385191 210.37996 
L 97.023881 209.952572 
L 96.525778 209.362305 
L 96.026467 208.76628 
L 95.429829 208.05563 
L 95.212394 207.792 
L 94.471232 206.903135 
L 94.400127 206.81772 
L 93.872546 206.179083 
L 92.937124 205.040141 
L 92.599362 204.628423 
L 92.466825 204.4656 
L 91.399581 203.151426 
L 90.747638 202.34374 
L 90.652548 202.225692 
L 90.562895 202.11348 
L 90.191771 201.650335 
L 89.885909 201.267483 
L 89.783364 201.1392 
L 89.738528 201.083806 
L 89.717095 201.057298 
L 89.009365 200.16492 
L 88.717307 199.797697 
L 88.40411 199.40079 
L 87.918543 198.783968 
L 87.159008 197.8128 
L 86.793637 197.344442 
L 85.741811 195.984928 
L 85.469155 195.632049 
L 85.337647 195.46068 
L 85.239171 195.330858 
L 84.598137 194.4864 
L 84.160342 193.917917 
L 83.854905 193.51212 
L 82.982921 192.357977 
L 82.085883 191.16 
L 82.023745 191.076814 
L 81.981329 191.019637 
L 81.096471 189.823467 
L 80.352257 188.80788 
L 79.974463 188.294582 
L 79.643734 187.8336 
L 79.169063 187.183162 
L 78.932555 186.85932 
L 78.601415 186.399937 
L 77.774197 185.243712 
L 77.36306 184.668236 
L 77.249182 184.5072 
L 76.196214 183.015137 
L 75.59402 182.15508 
L 75.197373 181.58039 
L 74.92137 181.1808 
L 74.714391 180.886923 
L 74.248716 180.20652 
L 73.686287 179.389362 
L 72.952486 178.311854 
L 72.816814 178.111996 
L 72.643433 177.8544 
L 71.869642 176.702461 
L 71.072453 175.50228 
L 70.768063 175.046971 
L 70.432062 174.528 
L 69.988669 173.858709 
L 69.786454 173.55372 
L 69.465362 173.061558 
L 68.372162 171.371026 
L 68.281359 171.230406 
L 68.262984 171.2016 
L 67.113355 169.396404 
L 66.768278 168.84948 
L 66.664016 168.681597 
L 66.164099 167.8752 
L 65.829045 167.348994 
L 65.553824 166.90092 
L 64.758173 165.616237 
L 64.105542 164.5488 
L 63.814027 164.071246 
L 63.549909 163.634335 
L 63.020958 162.755931 
L 62.688783 162.19668 
L 62.13805 161.278153 
L 62.126714 161.258499 
L 62.105947 161.2224 
L 61.997052 161.039147 
L 61.532399 160.24812 
L 61.30101 159.857933 
L 60.926901 159.218396 
L 60.548366 158.568656 
L 60.16064 157.896 
L 59.599092 156.920573 
L 58.818015 155.54388 
L 58.564223 155.101361 
L 58.266036 154.5696 
L 57.914143 153.946167 
L 57.62857 153.432488 
L 57.62857 154.5696 
L 57.62857 157.896 
L 57.62857 161.2224 
L 57.62857 164.5488 
L 57.62857 167.8752 
L 57.62857 171.2016 
L 57.62857 174.528 
L 57.62857 177.8544 
L 57.62857 181.1808 
L 57.62857 184.5072 
L 57.62857 187.8336 
L 57.62857 191.16 
L 57.62857 194.4864 
L 57.62857 197.8128 
L 57.62857 201.1392 
L 57.62857 204.4656 
L 57.62857 207.792 
L 57.62857 210.004753 
L 57.790939 210.262639 
L 58.335564 211.1184 
L 58.809364 211.86702 
L 59.845336 213.47052 
L 59.986276 213.690648 
L 60.483046 214.4448 
L 60.899488 215.087835 
L 61.117101 215.41908 
L 61.121115 215.425214 
L 61.133909 215.444471 
L 62.394816 217.345256 
L 62.682958 217.7712 
L 63.494536 218.977505 
L 64.128406 219.905671 
L 64.21267 220.029519 
L 64.277713 220.12332 
L 64.455518 220.381773 
L 64.948756 221.0976 
L 65.023487 221.208205 
L 65.062265 221.264766 
L 65.62426 222.07188 
L 66.045313 222.681494 
L 66.585878 223.44916 
L 66.877027 223.864355 
L 67.27517 224.424 
L 67.89387 225.298727 
L 68.958681 226.77612 
L 69.121011 227.003064 
L 69.66775 227.7504 
L 70.108551 228.360403 
L 70.33125 228.664366 
L 70.376005 228.72468 
L 71.63595 230.435032 
L 72.117339 231.0768 
L 72.713891 231.876846 
L 73.119165 232.412727 
L 73.528387 232.956473 
L 73.890281 233.42892 
L 74.532813 234.273518 
L 74.565553 234.316083 
L 74.633428 234.4032 
L 74.783912 234.598309 
L 75.187989 235.125335 
L 75.381675 235.37748 
L 75.434876 235.447235 
L 75.494673 235.524232 
L 76.16653 236.393983 
L 77.212557 237.7296 
L 77.353724 237.911019 
L 77.747882 238.408663 
L 78.621724 239.515297 
L 79.075086 240.08172 
L 79.446491 240.542767 
L 79.857545 241.056 
L 80.034216 241.278568 
L 80.120102 241.385286 
L 80.643441 242.03028 
L 81.228934 242.756686 
L 81.841161 243.503287 
L 82.11178 243.835229 
L 82.563806 244.3824 
L 83.184959 245.139309 
L 84.516405 246.73452 
L 84.556129 246.782421 
L 85.336526 247.7088 
L 85.872856 248.34743 
L 86.159062 248.68308 
L 87.131069 249.830198 
L 88.084074 250.936457 
L 88.114747 250.972287 
L 88.169296 251.0352 
L 89.120512 252.139864 
L 90.212321 253.38732 
L 90.428772 253.636153 
L 90.629348 253.865643 
L 91.068494 254.3616 
L 91.779984 255.169978 
L 91.927949 255.33588 
L 93.130165 256.692033 
L 94.027305 257.688 
L 94.167835 257.845179 
L 94.243285 257.928475 
L 95.149574 258.93628 
L 96.158026 260.04012 
L 96.446956 260.358278 
L 97.049908 261.0144 
L 97.585167 261.599773 
L 97.829645 261.86364 
L 97.945777 261.98868 
L 99.216003 263.364503 
L 100.131519 264.3408 
L 100.265235 264.484526 
L 100.333526 264.556995 
L 101.262209 265.55025 
L 102.347211 266.69292 
L 102.598841 266.959501 
L 103.27339 267.6672 
L 103.31828 267.714463 
L 103.33993 267.737402 
L 103.33993 267.6672 
L 103.33993 264.3408 
L 103.33993 261.0144 
L 103.33993 257.688 
L 103.33993 254.3616 
L 103.33993 251.0352 
L 103.33993 247.7088 
L 103.33993 244.3824 
L 103.33993 241.056 
L 103.33993 237.7296 
L 103.33993 234.4032 
L 103.33993 231.0768 
L 103.33993 227.7504 
L 103.33993 224.424 
L 103.33993 221.0976 
L 103.33993 217.7712 
" clip-path="url(#pe5c8eba3e8)" style="fill: #53ffa4"/>
   </g>
   <g id="PathCollection_6">
    <path d="M 103.33993 267.737402 
L 103.31828 267.714463 
L 103.27339 267.6672 
L 102.598841 266.959501 
L 102.347211 266.69292 
L 101.262209 265.55025 
L 100.333526 264.556995 
L 100.265235 264.484526 
L 100.131519 264.3408 
L 99.216003 263.364503 
L 97.945777 261.98868 
L 97.829645 261.86364 
L 97.585167 261.599773 
L 97.049908 261.0144 
L 96.446956 260.358278 
L 96.158026 260.04012 
L 95.149574 258.93628 
L 94.243285 257.928475 
L 94.167835 257.845179 
L 94.027305 257.688 
L 93.130165 256.692033 
L 91.927949 255.33588 
L 91.779984 255.169978 
L 91.068494 254.3616 
L 90.629348 253.865643 
L 90.428772 253.636153 
L 90.212321 253.38732 
L 89.120512 252.139864 
L 88.169296 251.0352 
L 88.114747 250.972287 
L 88.084074 250.936457 
L 87.131069 249.830198 
L 86.159062 248.68308 
L 85.872856 248.34743 
L 85.336526 247.7088 
L 84.556129 246.782421 
L 84.516405 246.73452 
L 83.184959 245.139309 
L 82.563806 244.3824 
L 82.11178 243.835229 
L 81.841161 243.503287 
L 81.228934 242.756686 
L 80.643441 242.03028 
L 80.120102 241.385286 
L 80.034216 241.278568 
L 79.857545 241.056 
L 79.446491 240.542767 
L 79.075086 240.08172 
L 78.621724 239.515297 
L 77.747882 238.408663 
L 77.353724 237.911019 
L 77.212557 237.7296 
L 76.16653 236.393983 
L 75.494673 235.524232 
L 75.434876 235.447235 
L 75.381675 235.37748 
L 75.187989 235.125335 
L 74.783912 234.598309 
L 74.633428 234.4032 
L 74.565553 234.316083 
L 74.532813 234.273518 
L 73.890281 233.42892 
L 73.528387 232.956473 
L 73.119165 232.412727 
L 72.713891 231.876846 
L 72.117339 231.0768 
L 71.63595 230.435032 
L 70.376005 228.72468 
L 70.33125 228.664366 
L 70.108551 228.360403 
L 69.66775 227.7504 
L 69.121011 227.003064 
L 68.958681 226.77612 
L 67.89387 225.298727 
L 67.27517 224.424 
L 66.877027 223.864355 
L 66.585878 223.44916 
L 66.045313 222.681494 
L 65.62426 222.07188 
L 65.062265 221.264766 
L 65.023487 221.208205 
L 64.948756 221.0976 
L 64.455518 220.381773 
L 64.277713 220.12332 
L 64.21267 220.029519 
L 64.128406 219.905671 
L 63.494536 218.977505 
L 62.682958 217.7712 
L 62.394816 217.345256 
L 61.133909 215.444471 
L 61.121115 215.425214 
L 61.117101 215.41908 
L 60.899488 215.087835 
L 60.483046 214.4448 
L 59.986276 213.690648 
L 59.845336 213.47052 
L 58.809364 211.86702 
L 58.335564 211.1184 
L 57.790939 210.262639 
L 57.62857 210.004753 
L 57.62857 211.1184 
L 57.62857 214.4448 
L 57.62857 217.7712 
L 57.62857 221.0976 
L 57.62857 224.424 
L 57.62857 227.7504 
L 57.62857 231.0768 
L 57.62857 234.4032 
L 57.62857 237.7296 
L 57.62857 241.056 
L 57.62857 244.3824 
L 57.62857 247.7088 
L 57.62857 251.0352 
L 57.62857 254.3616 
L 57.62857 257.688 
L 57.62857 261.0144 
L 57.62857 264.3408 
L 57.62857 267.6672 
L 57.62857 270.9936 
L 57.62857 273.957022 
L 57.727834 274.103296 
L 57.872997 274.32 
L 58.352905 275.042849 
L 58.523366 275.29428 
L 59.535386 276.810048 
L 60.112256 277.6464 
L 60.552221 278.298737 
L 60.893355 278.791993 
L 61.360779 279.477852 
L 61.727239 279.99852 
L 62.324372 280.860069 
L 62.40399 280.9728 
L 62.514197 281.128335 
L 62.757709 281.477383 
L 63.085175 281.94708 
L 63.200281 282.114855 
L 63.348671 282.324119 
L 63.938026 283.168121 
L 64.747792 284.2992 
L 65.049448 284.730758 
L 66.130287 286.227211 
L 66.347517 286.53031 
L 66.436422 286.65132 
L 66.638818 286.937328 
L 67.142067 287.6256 
L 67.444173 288.046163 
L 67.598909 288.254647 
L 67.853949 288.59988 
L 68.785138 289.881009 
L 69.58919 290.952 
L 69.771118 291.200489 
L 69.897291 291.3685 
L 70.671205 292.416356 
L 71.348319 293.30412 
L 71.781264 293.881169 
L 71.879327 294.012649 
L 72.084012 294.2784 
L 72.712317 295.107817 
L 72.825637 295.25268 
L 73.214029 295.768899 
L 74.036803 296.835045 
L 74.477805 297.411808 
L 74.630154 297.6048 
L 75.659238 298.942836 
L 76.3278 299.790384 
L 76.395608 299.877871 
L 76.458856 299.95692 
L 76.704104 300.268625 
L 77.089948 300.759649 
L 77.222797 300.9312 
L 77.311216 301.044785 
L 77.990893 301.90548 
L 78.31998 302.329594 
L 78.679894 302.778486 
L 79.132174 303.353001 
L 79.862588 304.2576 
L 80.255227 304.757577 
L 81.307095 306.053945 
L 81.598309 306.41665 
L 81.757296 306.60972 
L 82.201976 307.160448 
L 82.547963 307.584 
L 83.531674 307.584 
L 85.055386 307.584 
L 86.579098 307.584 
L 88.10281 307.584 
L 89.626522 307.584 
L 91.150234 307.584 
L 92.673946 307.584 
L 94.197658 307.584 
L 95.72137 307.584 
L 97.245082 307.584 
L 98.768794 307.584 
L 100.292506 307.584 
L 101.816218 307.584 
L 103.33993 307.584 
L 103.33993 304.2576 
L 103.33993 300.9312 
L 103.33993 297.6048 
L 103.33993 294.2784 
L 103.33993 290.952 
L 103.33993 287.6256 
L 103.33993 284.2992 
L 103.33993 280.9728 
L 103.33993 277.6464 
L 103.33993 274.32 
L 103.33993 270.9936 
" clip-path="url(#pe5c8eba3e8)" style="fill: #a4ff53"/>
   </g>
   <g id="PathCollection_7">
    <path d="M 82.547963 307.584 
L 82.201976 307.160448 
L 81.757296 306.60972 
L 81.598309 306.41665 
L 81.307095 306.053945 
L 80.255227 304.757577 
L 79.862588 304.2576 
L 79.132174 303.353001 
L 78.679894 302.778486 
L 78.31998 302.329594 
L 77.990893 301.90548 
L 77.311216 301.044785 
L 77.222797 300.9312 
L 77.089948 300.759649 
L 76.704104 300.268625 
L 76.458856 299.95692 
L 76.395608 299.877871 
L 76.3278 299.790384 
L 75.659238 298.942836 
L 74.630154 297.6048 
L 74.477805 297.411808 
L 74.036803 296.835045 
L 73.214029 295.768899 
L 72.825637 295.25268 
L 72.712317 295.107817 
L 72.084012 294.2784 
L 71.879327 294.012649 
L 71.781264 293.881169 
L 71.348319 293.30412 
L 70.671205 292.416356 
L 69.897291 291.3685 
L 69.771118 291.200489 
L 69.58919 290.952 
L 68.785138 289.881009 
L 67.853949 288.59988 
L 67.598909 288.254647 
L 67.444173 288.046163 
L 67.142067 287.6256 
L 66.638818 286.937328 
L 66.436422 286.65132 
L 66.347517 286.53031 
L 66.130287 286.227211 
L 65.049448 284.730758 
L 64.747792 284.2992 
L 63.938026 283.168121 
L 63.348671 282.324119 
L 63.200281 282.114855 
L 63.085175 281.94708 
L 62.757709 281.477383 
L 62.514197 281.128335 
L 62.40399 280.9728 
L 62.324372 280.860069 
L 61.727239 279.99852 
L 61.360779 279.477852 
L 60.893355 278.791993 
L 60.552221 278.298737 
L 60.112256 277.6464 
L 59.535386 276.810048 
L 58.523366 275.29428 
L 58.352905 275.042849 
L 57.872997 274.32 
L 57.727834 274.103296 
L 57.62857 273.957022 
L 57.62857 274.32 
L 57.62857 277.6464 
L 57.62857 280.9728 
L 57.62857 284.2992 
L 57.62857 287.6256 
L 57.62857 290.952 
L 57.62857 294.2784 
L 57.62857 297.6048 
L 57.62857 300.9312 
L 57.62857 304.2576 
L 57.62857 307.584 
L 59.152282 307.584 
L 60.675994 307.584 
L 62.199706 307.584 
L 63.723418 307.584 
L 65.24713 307.584 
L 66.770842 307.584 
L 68.294554 307.584 
L 69.818266 307.584 
L 71.341978 307.584 
L 72.86569 307.584 
L 74.389402 307.584 
L 75.913114 307.584 
L 77.436826 307.584 
L 78.960538 307.584 
L 80.48425 307.584 
L 82.007962 307.584 
" clip-path="url(#pe5c8eba3e8)" style="fill: #f8f500"/>
   </g>
   <g id="PathCollection_8">
    <path clip-path="url(#pe5c8eba3e8)" style="fill: #ff9400"/>
   </g>
   <g id="PathCollection_9">
    <path clip-path="url(#pe5c8eba3e8)" style="fill: #ff3800"/>
   </g>
   <g id="PathCollection_10">
    <path clip-path="url(#pe5c8eba3e8)" style="fill: #b60000"/>
   </g>
   <g id="PathCollection_11">
    <path d="M 160.960946 41.472 
L 162.598274 43.959782 
L 162.680178 44.07008 
L 162.749015 44.171177 
L 163.042046 44.601241 
L 165.869035 48.604599 
L 167.091397 50.3424 
L 169.836564 54.14526 
L 171.602251 56.61472 
L 173.319338 59.207145 
L 173.323975 59.2128 
L 173.330905 59.223705 
L 175.314958 61.81088 
L 176.948693 64.092409 
L 179.770278 68.0832 
L 180.844371 69.55738 
L 183.188353 72.810157 
L 184.086491 74.011428 
L 184.338255 74.35552 
L 184.595435 74.72906 
L 185.579177 75.981172 
L 186.400786 76.9536 
L 186.841577 77.612638 
L 187.096416 78.04293 
L 188.275497 79.55168 
L 191.385859 83.753396 
L 192.880794 85.824 
L 196.009665 90.007617 
L 197.542023 92.09632 
L 198.107566 92.813119 
L 199.707406 94.6944 
L 201.089197 96.780806 
L 201.490374 97.29248 
L 205.969027 103.254389 
L 206.193767 103.5648 
L 208.596884 106.754884 
L 210.953849 109.83712 
L 211.067784 109.992268 
L 211.884918 110.896263 
L 213.126283 112.4352 
L 214.429603 114.283564 
L 214.892892 115.03328 
L 215.74111 116.118642 
L 219.674067 121.3056 
L 220.696215 122.597562 
L 224.453497 127.57792 
L 225.237482 128.649841 
L 226.487428 130.176 
L 228.198034 132.625378 
L 228.288179 132.77408 
L 231.0014 136.317562 
L 233.012244 139.0464 
L 235.326956 142.046424 
L 237.704718 145.31872 
L 239.187097 147.40731 
L 239.582992 147.9168 
L 240.24951 148.908525 
L 241.482304 150.51488 
L 242.524778 151.899668 
L 245.972965 156.7872 
L 246.096365 156.953856 
L 246.367116 157.336829 
L 249.653118 161.829051 
L 250.48878 163.05952 
L 251.339677 164.334736 
L 252.342813 165.6576 
L 252.786152 166.323901 
L 254.169322 168.25568 
L 256.703808 171.843526 
L 258.453728 174.528 
L 260.965258 178.188238 
L 262.659567 180.80032 
L 263.00016 181.227192 
L 264.49831 183.3984 
L 265.79121 185.51011 
L 266.103588 185.99648 
L 269.295307 191.010559 
L 270.119979 192.2688 
L 270.259425 192.470536 
L 274.075548 198.54112 
L 274.538556 199.28044 
L 275.729922 201.1392 
L 277.098578 203.506104 
L 277.207678 203.73728 
L 279.492634 207.484698 
L 280.924434 210.0096 
L 283.188647 213.783965 
L 284.517323 216.28192 
L 285.668104 218.442046 
L 285.934595 218.88 
L 286.025645 219.030766 
L 286.076388 219.132631 
L 287.38094 221.47808 
L 289.272439 224.857992 
L 290.689511 227.7504 
L 293.027579 232.248115 
L 293.871552 234.02272 
L 294.28943 234.720087 
L 295.212792 236.6208 
L 296.054641 238.300891 
L 296.413475 239.21888 
L 296.807541 239.988811 
L 299.368937 245.4912 
L 300.584185 247.943893 
L 302.185044 251.76352 
L 303.224593 254.179042 
L 303.258343 254.253378 
L 303.294737 254.3616 
L 303.336112 254.489129 
L 303.391164 254.619765 
L 304.404485 256.95968 
L 305.767111 260.00511 
L 306.959046 263.232 
L 308.983178 268.348353 
L 309.386864 269.50432 
L 309.777369 270.375834 
L 310.350929 272.1024 
L 311.057899 274.146857 
L 311.301941 274.70048 
L 312.294364 277.329222 
L 313.494227 280.9728 
L 315.040615 285.324569 
L 315.559948 287.24512 
L 315.913092 288.43666 
L 316.102253 289.120897 
L 316.370352 289.8432 
L 316.749883 290.869915 
L 317.174948 292.44128 
L 319.048832 298.673064 
L 319.057488 298.7136 
L 319.073354 298.781009 
L 320.760553 304.98592 
L 321.253715 306.5664 
L 321.472474 307.584 
L 327.10656 307.584 
L 335.20128 307.584 
L 343.296 307.584 
L 343.296 298.7136 
L 343.296 289.8432 
L 343.296 280.9728 
L 343.296 272.1024 
L 343.296 263.232 
L 343.296 254.3616 
L 343.296 245.4912 
L 343.296 236.6208 
L 343.296 227.7504 
L 343.296 218.88 
L 343.296 210.0096 
L 343.296 201.1392 
L 343.296 192.2688 
L 343.296 183.3984 
L 343.296 174.528 
L 343.296 165.6576 
L 343.296 156.7872 
L 343.296 147.9168 
L 343.296 139.0464 
L 343.296 130.176 
L 343.296 121.3056 
L 343.296 112.4352 
L 343.296 103.5648 
L 343.296 94.6944 
L 343.296 85.824 
L 343.296 76.9536 
L 343.296 68.0832 
L 343.296 59.2128 
L 343.296 50.3424 
L 343.296 41.472 
L 335.20128 41.472 
L 327.10656 41.472 
L 319.01184 41.472 
L 310.91712 41.472 
L 302.8224 41.472 
L 294.72768 41.472 
L 286.63296 41.472 
L 278.53824 41.472 
L 270.44352 41.472 
L 262.3488 41.472 
L 254.25408 41.472 
L 246.15936 41.472 
L 238.06464 41.472 
L 229.96992 41.472 
L 221.8752 41.472 
L 213.78048 41.472 
L 205.68576 41.472 
L 197.59104 41.472 
L 189.49632 41.472 
L 181.4016 41.472 
L 173.30688 41.472 
L 165.21216 41.472 
" clip-path="url(#pe5c8eba3e8)" style="fill: #0000b6"/>
   </g>
   <g id="PathCollection_12">
    <path d="M 321.472474 307.584 
L 321.253715 306.5664 
L 320.760553 304.98592 
L 319.073354 298.781009 
L 319.057488 298.7136 
L 319.048832 298.673064 
L 317.174948 292.44128 
L 316.749883 290.869915 
L 316.370352 289.8432 
L 316.102253 289.120897 
L 315.913092 288.43666 
L 315.559948 287.24512 
L 315.040615 285.324569 
L 313.494227 280.9728 
L 312.294364 277.329222 
L 311.301941 274.70048 
L 311.057899 274.146857 
L 310.350929 272.1024 
L 309.777369 270.375834 
L 309.386864 269.50432 
L 308.983178 268.348353 
L 306.959046 263.232 
L 305.767111 260.00511 
L 304.404485 256.95968 
L 303.391164 254.619765 
L 303.336112 254.489129 
L 303.294737 254.3616 
L 303.258343 254.253378 
L 303.224593 254.179042 
L 302.185044 251.76352 
L 300.584185 247.943893 
L 299.368937 245.4912 
L 296.807541 239.988811 
L 296.413475 239.21888 
L 296.054641 238.300891 
L 295.212792 236.6208 
L 294.28943 234.720087 
L 293.871552 234.02272 
L 293.027579 232.248115 
L 290.689511 227.7504 
L 289.272439 224.857992 
L 287.38094 221.47808 
L 286.076388 219.132631 
L 286.025645 219.030766 
L 285.934595 218.88 
L 285.668104 218.442046 
L 284.517323 216.28192 
L 283.188647 213.783965 
L 280.924434 210.0096 
L 279.492634 207.484698 
L 277.207678 203.73728 
L 277.098578 203.506104 
L 275.729922 201.1392 
L 274.538556 199.28044 
L 274.075548 198.54112 
L 270.259425 192.470536 
L 270.119979 192.2688 
L 269.295307 191.010559 
L 266.103588 185.99648 
L 265.79121 185.51011 
L 264.49831 183.3984 
L 263.00016 181.227192 
L 262.659567 180.80032 
L 260.965258 178.188238 
L 258.453728 174.528 
L 256.703808 171.843526 
L 254.169322 168.25568 
L 252.786152 166.323901 
L 252.342813 165.6576 
L 251.339677 164.334736 
L 250.48878 163.05952 
L 249.653118 161.829051 
L 246.367116 157.336829 
L 246.096365 156.953856 
L 245.972965 156.7872 
L 242.524778 151.899668 
L 241.482304 150.51488 
L 240.24951 148.908525 
L 239.582992 147.9168 
L 239.187097 147.40731 
L 237.704718 145.31872 
L 235.326956 142.046424 
L 233.012244 139.0464 
L 231.0014 136.317562 
L 228.288179 132.77408 
L 228.198034 132.625378 
L 226.487428 130.176 
L 225.237482 128.649841 
L 224.453497 127.57792 
L 220.696215 122.597562 
L 219.674067 121.3056 
L 215.74111 116.118642 
L 214.892892 115.03328 
L 214.429603 114.283564 
L 213.126283 112.4352 
L 211.884918 110.896263 
L 211.067784 109.992268 
L 210.953849 109.83712 
L 208.596884 106.754884 
L 206.193767 103.5648 
L 205.969027 103.254389 
L 201.490374 97.29248 
L 201.089197 96.780806 
L 199.707406 94.6944 
L 198.107566 92.813119 
L 197.542023 92.09632 
L 196.009665 90.007617 
L 192.880794 85.824 
L 191.385859 83.753396 
L 188.275497 79.55168 
L 187.096416 78.04293 
L 186.841577 77.612638 
L 186.400786 76.9536 
L 185.579177 75.981172 
L 184.595435 74.72906 
L 184.338255 74.35552 
L 184.086491 74.011428 
L 183.188353 72.810157 
L 180.844371 69.55738 
L 179.770278 68.0832 
L 176.948693 64.092409 
L 175.314958 61.81088 
L 173.330905 59.223705 
L 173.323975 59.2128 
L 173.319338 59.207145 
L 171.602251 56.61472 
L 169.836564 54.14526 
L 167.091397 50.3424 
L 165.869035 48.604599 
L 163.042046 44.601241 
L 162.749015 44.171177 
L 162.680178 44.07008 
L 162.598274 43.959782 
L 160.960946 41.472 
L 157.11744 41.472 
L 149.02272 41.472 
L 140.928 41.472 
L 132.83328 41.472 
L 124.73856 41.472 
L 116.64384 41.472 
L 108.54912 41.472 
L 100.4544 41.472 
L 100.4544 50.3424 
L 100.4544 59.2128 
L 100.4544 68.0832 
L 100.4544 76.9536 
L 100.4544 85.824 
L 100.4544 86.027787 
L 100.638471 86.31097 
L 103.801844 91.026186 
L 104.546903 92.09632 
L 105.221918 93.184164 
L 106.287077 94.6944 
L 106.808181 95.484622 
L 108.166856 97.29248 
L 110.769476 101.131677 
L 112.474591 103.5648 
L 115.194712 107.398549 
L 116.956886 109.83712 
L 117.634086 110.671519 
L 119.139486 112.4352 
L 119.909925 113.633905 
L 120.374986 114.415851 
L 120.876809 115.03328 
L 125.216928 120.781392 
L 125.618448 121.3056 
L 130.482415 127.524946 
L 130.524124 127.57792 
L 131.416094 128.518307 
L 132.877089 130.176 
L 134.608924 132.626311 
L 134.718953 132.77408 
L 135.051775 133.177246 
L 139.912703 139.0464 
L 140.401751 139.623077 
L 145.236945 145.31872 
L 145.617012 145.788431 
L 147.63898 147.9168 
L 149.245094 149.981513 
L 149.681392 150.51488 
L 150.881494 151.869707 
L 155.212314 156.7872 
L 156.16173 157.834492 
L 160.845429 163.05952 
L 161.40993 163.709214 
L 162.133556 164.412353 
L 163.324333 165.6576 
L 164.947539 167.601417 
L 165.521417 168.25568 
L 166.988509 169.828568 
L 171.311757 174.528 
L 172.329791 175.598718 
L 177.167355 180.80032 
L 177.71351 181.398205 
L 178.467671 182.117237 
L 179.714835 183.3984 
L 181.504016 185.382484 
L 182.015589 185.99648 
L 183.277486 187.306036 
L 187.959153 192.2688 
L 188.754382 193.081834 
L 193.924948 198.54112 
L 194.312446 198.953133 
L 195.13791 199.738679 
L 196.500928 201.1392 
L 198.511782 203.377282 
L 198.851644 203.73728 
L 199.651919 204.557429 
L 204.822827 210.0096 
L 205.270965 210.464142 
L 210.769906 216.28192 
L 210.962303 216.484947 
L 213.313086 218.88 
L 214.916907 220.607391 
L 215.659825 221.47808 
L 216.013212 221.843581 
L 221.52358 227.7504 
L 221.704937 227.936978 
L 227.316437 234.02272 
L 227.400507 234.112831 
L 229.756781 236.6208 
L 231.286627 238.303437 
L 232.047691 239.21888 
L 232.256421 239.442131 
L 237.670012 245.4912 
L 237.869692 245.704829 
L 243.176999 251.76352 
L 243.353649 251.960888 
L 245.450087 254.3616 
L 247.384848 256.675335 
L 247.637499 256.95968 
L 248.261722 257.670083 
L 252.896354 263.232 
L 253.560114 263.992465 
L 258.000713 269.50432 
L 258.543198 270.155545 
L 259.152899 270.886272 
L 260.064354 272.1024 
L 261.434345 273.884896 
L 262.106795 274.70048 
L 263.879292 276.923797 
L 266.904266 280.9728 
L 268.5419 283.056644 
L 271.5168 287.24512 
L 272.694089 288.821654 
L 272.975761 289.214573 
L 273.371079 289.8432 
L 273.962754 290.716847 
L 274.766248 291.805311 
L 275.222961 292.44128 
L 275.651323 293.006757 
L 277.295034 295.424627 
L 278.901659 297.752154 
L 279.513228 298.7136 
L 282.537329 303.201696 
L 283.588986 304.98592 
L 284.67813 306.696691 
L 285.251246 307.584 
L 286.63296 307.584 
L 294.72768 307.584 
L 302.8224 307.584 
L 310.91712 307.584 
L 319.01184 307.584 
" clip-path="url(#pe5c8eba3e8)" style="fill: #0018ff"/>
   </g>
   <g id="PathCollection_13">
    <path d="M 285.251246 307.584 
L 284.67813 306.696691 
L 283.588986 304.98592 
L 282.537329 303.201696 
L 279.513228 298.7136 
L 278.901659 297.752154 
L 277.295034 295.424627 
L 275.651323 293.006757 
L 275.222961 292.44128 
L 274.766248 291.805311 
L 273.962754 290.716847 
L 273.371079 289.8432 
L 272.975761 289.214573 
L 272.694089 288.821654 
L 271.5168 287.24512 
L 268.5419 283.056644 
L 266.904266 280.9728 
L 263.879292 276.923797 
L 262.106795 274.70048 
L 261.434345 273.884896 
L 260.064354 272.1024 
L 259.152899 270.886272 
L 258.543198 270.155545 
L 258.000713 269.50432 
L 253.560114 263.992465 
L 252.896354 263.232 
L 248.261722 257.670083 
L 247.637499 256.95968 
L 247.384848 256.675335 
L 245.450087 254.3616 
L 243.353649 251.960888 
L 243.176999 251.76352 
L 237.869692 245.704829 
L 237.670012 245.4912 
L 232.256421 239.442131 
L 232.047691 239.21888 
L 231.286627 238.303437 
L 229.756781 236.6208 
L 227.400507 234.112831 
L 227.316437 234.02272 
L 221.704937 227.936978 
L 221.52358 227.7504 
L 216.013212 221.843581 
L 215.659825 221.47808 
L 214.916907 220.607391 
L 213.313086 218.88 
L 210.962303 216.484947 
L 210.769906 216.28192 
L 205.270965 210.464142 
L 204.822827 210.0096 
L 199.651919 204.557429 
L 198.851644 203.73728 
L 198.511782 203.377282 
L 196.500928 201.1392 
L 195.13791 199.738679 
L 194.312446 198.953133 
L 193.924948 198.54112 
L 188.754382 193.081834 
L 187.959153 192.2688 
L 183.277486 187.306036 
L 182.015589 185.99648 
L 181.504016 185.382484 
L 179.714835 183.3984 
L 178.467671 182.117237 
L 177.71351 181.398205 
L 177.167355 180.80032 
L 172.329791 175.598718 
L 171.311757 174.528 
L 166.988509 169.828568 
L 165.521417 168.25568 
L 164.947539 167.601417 
L 163.324333 165.6576 
L 162.133556 164.412353 
L 161.40993 163.709214 
L 160.845429 163.05952 
L 156.16173 157.834492 
L 155.212314 156.7872 
L 150.881494 151.869707 
L 149.681392 150.51488 
L 149.245094 149.981513 
L 147.63898 147.9168 
L 145.617012 145.788431 
L 145.236945 145.31872 
L 140.401751 139.623077 
L 139.912703 139.0464 
L 135.051775 133.177246 
L 134.718953 132.77408 
L 134.608924 132.626311 
L 132.877089 130.176 
L 131.416094 128.518307 
L 130.524124 127.57792 
L 130.482415 127.524946 
L 125.618448 121.3056 
L 125.216928 120.781392 
L 120.876809 115.03328 
L 120.374986 114.415851 
L 119.909925 113.633905 
L 119.139486 112.4352 
L 117.634086 110.671519 
L 116.956886 109.83712 
L 115.194712 107.398549 
L 112.474591 103.5648 
L 110.769476 101.131677 
L 108.166856 97.29248 
L 106.808181 95.484622 
L 106.287077 94.6944 
L 105.221918 93.184164 
L 104.546903 92.09632 
L 103.801844 91.026186 
L 100.638471 86.31097 
L 100.4544 86.027787 
L 100.4544 94.6944 
L 100.4544 103.5648 
L 100.4544 112.4352 
L 100.4544 121.3056 
L 100.4544 130.176 
L 100.4544 139.0464 
L 100.4544 147.9168 
L 100.4544 156.7872 
L 100.4544 159.323091 
L 102.342347 161.781872 
L 103.106131 162.751766 
L 103.355833 163.05952 
L 103.637057 163.427986 
L 105.452187 165.6576 
L 106.265708 166.694054 
L 107.598935 168.25568 
L 110.732133 172.135799 
L 112.716404 174.528 
L 115.424988 177.752541 
L 118.026002 180.80032 
L 119.132833 182.006782 
L 120.437804 183.3984 
L 121.156235 184.28771 
L 121.58178 184.831281 
L 122.660199 185.99648 
L 126.519562 190.317133 
L 128.284829 192.2688 
L 131.509084 195.772034 
L 134.074948 198.54112 
L 135.2325 199.725296 
L 136.643272 201.1392 
L 137.874508 202.525198 
L 139.068775 203.73728 
L 142.966914 207.775306 
L 145.126371 210.0096 
L 147.94341 212.864976 
L 151.311884 216.28192 
L 152.900558 217.833162 
L 153.993473 218.88 
L 154.943465 219.86678 
L 156.603064 221.47808 
L 159.897244 224.70422 
L 162.982104 227.7504 
L 164.61592 229.327788 
L 166.501572 231.161612 
L 168.474597 233.045739 
L 169.481229 234.02272 
L 171.149853 235.641713 
L 171.783055 236.242511 
L 172.189017 236.6208 
L 172.542587 236.967717 
L 174.921135 239.21888 
L 177.127389 241.304589 
L 181.355075 245.368116 
L 181.423631 245.432916 
L 181.484277 245.4912 
L 185.803817 249.537538 
L 188.122831 251.76352 
L 190.416228 253.944048 
L 190.857496 254.3616 
L 191.324074 254.815339 
L 192.083161 255.535782 
L 193.596056 256.95968 
L 194.473799 257.777552 
L 196.125435 259.354658 
L 198.286887 261.391098 
L 200.197112 263.232 
L 203.15351 266.006904 
L 206.759853 269.50432 
L 208.261182 270.933401 
L 208.703251 271.35331 
L 209.458489 272.1024 
L 212.00358 274.553023 
L 212.150518 274.70048 
L 215.085892 277.519257 
L 218.579504 280.9728 
L 220.334497 282.661141 
L 224.903792 287.24512 
L 225.760173 288.079788 
L 226.397174 288.720623 
L 227.464226 289.8432 
L 229.298393 291.686002 
L 230.068687 292.44128 
L 231.716169 294.0938 
L 236.157135 298.7136 
L 237.149281 299.716673 
L 242.090254 304.98592 
L 242.612313 305.519785 
L 244.509727 307.584 
L 246.15936 307.584 
L 254.25408 307.584 
L 262.3488 307.584 
L 270.44352 307.584 
L 278.53824 307.584 
" clip-path="url(#pe5c8eba3e8)" style="fill: #0080ff"/>
   </g>
   <g id="PathCollection_14">
    <path d="M 244.509727 307.584 
L 242.612313 305.519785 
L 242.090254 304.98592 
L 237.149281 299.716673 
L 236.157135 298.7136 
L 231.716169 294.0938 
L 230.068687 292.44128 
L 229.298393 291.686002 
L 227.464226 289.8432 
L 226.397174 288.720623 
L 225.760173 288.079788 
L 224.903792 287.24512 
L 220.334497 282.661141 
L 218.579504 280.9728 
L 215.085892 277.519257 
L 212.150518 274.70048 
L 212.00358 274.553023 
L 209.458489 272.1024 
L 208.703251 271.35331 
L 208.261182 270.933401 
L 206.759853 269.50432 
L 203.15351 266.006904 
L 200.197112 263.232 
L 198.286887 261.391098 
L 196.125435 259.354658 
L 194.473799 257.777552 
L 193.596056 256.95968 
L 192.083161 255.535782 
L 191.324074 254.815339 
L 190.857496 254.3616 
L 190.416228 253.944048 
L 188.122831 251.76352 
L 185.803817 249.537538 
L 181.484277 245.4912 
L 181.423631 245.432916 
L 181.355075 245.368116 
L 177.127389 241.304589 
L 174.921135 239.21888 
L 172.542587 236.967717 
L 172.189017 236.6208 
L 171.783055 236.242511 
L 171.149853 235.641713 
L 169.481229 234.02272 
L 168.474597 233.045739 
L 166.501572 231.161612 
L 164.61592 229.327788 
L 162.982104 227.7504 
L 159.897244 224.70422 
L 156.603064 221.47808 
L 154.943465 219.86678 
L 153.993473 218.88 
L 152.900558 217.833162 
L 151.311884 216.28192 
L 147.94341 212.864976 
L 145.126371 210.0096 
L 142.966914 207.775306 
L 139.068775 203.73728 
L 137.874508 202.525198 
L 136.643272 201.1392 
L 135.2325 199.725296 
L 134.074948 198.54112 
L 131.509084 195.772034 
L 128.284829 192.2688 
L 126.519562 190.317133 
L 122.660199 185.99648 
L 121.58178 184.831281 
L 121.156235 184.28771 
L 120.437804 183.3984 
L 119.132833 182.006782 
L 118.026002 180.80032 
L 115.424988 177.752541 
L 112.716404 174.528 
L 110.732133 172.135799 
L 107.598935 168.25568 
L 106.265708 166.694054 
L 105.452187 165.6576 
L 103.637057 163.427986 
L 103.355833 163.05952 
L 103.106131 162.751766 
L 102.342347 161.781872 
L 100.4544 159.323091 
L 100.4544 165.6576 
L 100.4544 174.528 
L 100.4544 183.3984 
L 100.4544 192.2688 
L 100.4544 201.1392 
L 100.4544 210.0096 
L 100.4544 213.948641 
L 102.648614 216.475524 
L 104.808986 218.88 
L 105.877675 220.092584 
L 107.16862 221.47808 
L 110.706181 225.386637 
L 112.917733 227.7504 
L 115.572833 230.583811 
L 118.866646 234.02272 
L 120.376087 235.537819 
L 121.448832 236.6208 
L 122.067969 237.283772 
L 122.431637 237.667926 
L 123.992489 239.21888 
L 127.360179 242.618364 
L 130.272211 245.4912 
L 132.139043 247.327844 
L 134.32961 249.449825 
L 135.916231 250.983224 
L 136.73534 251.76352 
L 138.113662 253.084156 
L 139.46003 254.3616 
L 139.92688 254.816014 
L 142.208574 256.95968 
L 144.594481 259.214177 
L 148.911822 263.232 
L 148.993914 263.308207 
L 149.08217 263.389278 
L 153.371188 267.337238 
L 155.743377 269.50432 
L 158.103958 271.654614 
L 158.597201 272.1024 
L 160.088505 273.450984 
L 161.466287 274.70048 
L 162.219447 275.381891 
L 163.549541 276.574248 
L 166.030217 278.808584 
L 168.437213 280.9728 
L 171.116349 283.37324 
L 175.445661 287.24512 
L 176.66109 288.320705 
L 177.25617 288.862792 
L 178.337779 289.8432 
L 180.317574 291.5836 
L 181.288906 292.44128 
L 183.146965 294.096137 
L 188.319614 298.7136 
L 188.968561 299.291932 
L 194.707522 304.424167 
L 195.24896 304.909705 
L 195.333269 304.98592 
L 197.87484 307.273005 
L 198.214591 307.584 
L 205.68576 307.584 
L 213.78048 307.584 
L 221.8752 307.584 
L 229.96992 307.584 
L 238.06464 307.584 
" clip-path="url(#pe5c8eba3e8)" style="fill: #00e4f8"/>
   </g>
   <g id="PathCollection_15">
    <path d="M 198.214591 307.584 
L 197.87484 307.273005 
L 195.333269 304.98592 
L 195.24896 304.909705 
L 194.707522 304.424167 
L 188.968561 299.291932 
L 188.319614 298.7136 
L 183.146965 294.096137 
L 181.288906 292.44128 
L 180.317574 291.5836 
L 178.337779 289.8432 
L 177.25617 288.862792 
L 176.66109 288.320705 
L 175.445661 287.24512 
L 171.116349 283.37324 
L 168.437213 280.9728 
L 166.030217 278.808584 
L 163.549541 276.574248 
L 162.219447 275.381891 
L 161.466287 274.70048 
L 160.088505 273.450984 
L 158.597201 272.1024 
L 158.103958 271.654614 
L 155.743377 269.50432 
L 153.371188 267.337238 
L 149.08217 263.389278 
L 148.993914 263.308207 
L 148.911822 263.232 
L 144.594481 259.214177 
L 142.208574 256.95968 
L 139.92688 254.816014 
L 139.46003 254.3616 
L 138.113662 253.084156 
L 136.73534 251.76352 
L 135.916231 250.983224 
L 134.32961 249.449825 
L 132.139043 247.327844 
L 130.272211 245.4912 
L 127.360179 242.618364 
L 123.992489 239.21888 
L 122.431637 237.667926 
L 122.067969 237.283772 
L 121.448832 236.6208 
L 120.376087 235.537819 
L 118.866646 234.02272 
L 115.572833 230.583811 
L 112.917733 227.7504 
L 110.706181 225.386637 
L 107.16862 221.47808 
L 105.877675 220.092584 
L 104.808986 218.88 
L 102.648614 216.475524 
L 100.4544 213.948641 
L 100.4544 218.88 
L 100.4544 227.7504 
L 100.4544 236.6208 
L 100.4544 245.4912 
L 100.4544 254.3616 
L 100.4544 263.232 
L 100.4544 264.704778 
L 101.372909 265.661967 
L 103.886527 268.341388 
L 105.035173 269.50432 
L 106.783709 271.30107 
L 107.552543 272.1024 
L 107.852731 272.418495 
L 110.102359 274.70048 
L 112.251903 276.915196 
L 116.404308 280.9728 
L 116.578068 281.146805 
L 116.785046 281.346369 
L 120.79472 285.29456 
L 122.866384 287.24512 
L 125.324966 289.577027 
L 125.423398 289.673189 
L 125.606564 289.8432 
L 125.932304 290.139546 
L 126.439231 290.615144 
L 128.35932 292.44128 
L 129.480617 293.517133 
L 131.603001 295.458827 
L 133.419556 297.162574 
L 135.122697 298.7136 
L 138.256358 301.641253 
L 141.984267 304.98592 
L 143.55059 306.393591 
L 144.886295 307.584 
L 149.02272 307.584 
L 157.11744 307.584 
L 165.21216 307.584 
L 173.30688 307.584 
L 181.4016 307.584 
L 189.49632 307.584 
L 197.59104 307.584 
" clip-path="url(#pe5c8eba3e8)" style="fill: #53ffa4"/>
   </g>
   <g id="PathCollection_16">
    <path d="M 144.886295 307.584 
L 143.55059 306.393591 
L 141.984267 304.98592 
L 138.256358 301.641253 
L 135.122697 298.7136 
L 133.419556 297.162574 
L 131.603001 295.458827 
L 129.480617 293.517133 
L 128.35932 292.44128 
L 126.439231 290.615144 
L 125.932304 290.139546 
L 125.606564 289.8432 
L 125.423398 289.673189 
L 125.324966 289.577027 
L 122.866384 287.24512 
L 120.79472 285.29456 
L 116.785046 281.346369 
L 116.578068 281.146805 
L 116.404308 280.9728 
L 112.251903 276.915196 
L 110.102359 274.70048 
L 107.852731 272.418495 
L 107.552543 272.1024 
L 106.783709 271.30107 
L 105.035173 269.50432 
L 103.886527 268.341388 
L 101.372909 265.661967 
L 100.4544 264.704778 
L 100.4544 272.1024 
L 100.4544 280.9728 
L 100.4544 289.8432 
L 100.4544 298.7136 
L 100.4544 307.584 
L 108.54912 307.584 
L 116.64384 307.584 
L 124.73856 307.584 
L 132.83328 307.584 
L 140.928 307.584 
" clip-path="url(#pe5c8eba3e8)" style="fill: #a4ff53"/>
   </g>
   <g id="PathCollection_17">
    <path clip-path="url(#pe5c8eba3e8)" style="fill: #f8f500"/>
   </g>
   <g id="PathCollection_18">
    <path clip-path="url(#pe5c8eba3e8)" style="fill: #ff9400"/>
   </g>
   <g id="PathCollection_19">
    <path clip-path="url(#pe5c8eba3e8)" style="fill: #ff3800"/>
   </g>
   <g id="PathCollection_20">
    <path clip-path="url(#pe5c8eba3e8)" style="fill: #b60000"/>
   </g>
   <g id="matplotlib.axis_1">
    <g id="xtick_1">
     <g id="line2d_1">
      <defs>
       <path id="m7523aa20fc" d="M 0 0 
L 0 3.5 
" style="stroke: #000000; stroke-width: 0.8"/>
      </defs>
      <g>
       <use xlink:href="#m7523aa20fc" x="57.6" y="307.584" style="stroke: #000000; stroke-width: 0.8"/>
      </g>
     </g>
     <g id="text_1">
      <!-- 0.0 -->
      <g transform="translate(51.26875 321.385562) scale(0.1 -0.1)">
       <defs>
        <path id="Calibri-30" d="M 3022 2031 
Q 3022 1566 2948 1181 
Q 2875 797 2704 520 
Q 2534 244 2259 92 
Q 1984 -59 1581 -59 
Q 1200 -59 939 77 
Q 678 213 518 477 
Q 359 741 292 1127 
Q 225 1513 225 2013 
Q 225 2475 300 2861 
Q 375 3247 544 3523 
Q 713 3800 988 3951 
Q 1263 4103 1663 4103 
Q 2047 4103 2308 3967 
Q 2569 3831 2728 3567 
Q 2888 3303 2955 2917 
Q 3022 2531 3022 2031 
z
M 2472 1994 
Q 2472 2297 2450 2537 
Q 2428 2778 2386 2962 
Q 2344 3147 2276 3280 
Q 2209 3413 2115 3498 
Q 2022 3584 1901 3623 
Q 1781 3663 1631 3663 
Q 1366 3663 1200 3538 
Q 1034 3413 939 3194 
Q 844 2975 809 2681 
Q 775 2388 775 2050 
Q 775 1597 822 1280 
Q 869 963 970 763 
Q 1072 563 1230 472 
Q 1388 381 1613 381 
Q 1788 381 1920 437 
Q 2053 494 2148 598 
Q 2244 703 2306 850 
Q 2369 997 2406 1175 
Q 2444 1353 2458 1561 
Q 2472 1769 2472 1994 
z
" transform="scale(0.015625)"/>
        <path id="Calibri-2e" d="M 1144 341 
Q 1144 119 1070 45 
Q 997 -28 803 -28 
Q 616 -28 544 44 
Q 472 116 472 331 
Q 472 553 545 626 
Q 619 700 813 700 
Q 1000 700 1072 628 
Q 1144 556 1144 341 
z
" transform="scale(0.015625)"/>
       </defs>
       <use xlink:href="#Calibri-30"/>
       <use xlink:href="#Calibri-2e" x="50.683594"/>
       <use xlink:href="#Calibri-30" x="75.927734"/>
      </g>
     </g>
    </g>
    <g id="xtick_2">
     <g id="line2d_2">
      <g>
       <use xlink:href="#m7523aa20fc" x="86.1696" y="307.584" style="stroke: #000000; stroke-width: 0.8"/>
      </g>
     </g>
     <g id="text_2">
      <!-- 0.1 -->
      <g transform="translate(79.83835 321.385562) scale(0.1 -0.1)">
       <defs>
        <path id="Calibri-31" d="M 2897 213 
Q 2897 153 2887 112 
Q 2878 72 2862 47 
Q 2847 22 2826 11 
Q 2806 0 2784 0 
L 672 0 
Q 650 0 631 11 
Q 613 22 595 47 
Q 578 72 568 112 
Q 559 153 559 213 
Q 559 269 568 309 
Q 578 350 592 376 
Q 606 403 626 417 
Q 647 431 672 431 
L 1516 431 
L 1516 3506 
L 734 3041 
Q 675 3009 639 3003 
Q 603 2997 581 3017 
Q 559 3038 551 3084 
Q 544 3131 544 3203 
Q 544 3256 548 3293 
Q 553 3331 562 3356 
Q 572 3381 589 3400 
Q 606 3419 634 3438 
L 1566 4034 
Q 1578 4044 1597 4050 
Q 1616 4056 1644 4062 
Q 1672 4069 1709 4070 
Q 1747 4072 1803 4072 
Q 1878 4072 1928 4065 
Q 1978 4059 2006 4048 
Q 2034 4038 2043 4020 
Q 2053 4003 2053 3984 
L 2053 431 
L 2784 431 
Q 2809 431 2831 417 
Q 2853 403 2867 376 
Q 2881 350 2889 309 
Q 2897 269 2897 213 
z
" transform="scale(0.015625)"/>
       </defs>
       <use xlink:href="#Calibri-30"/>
       <use xlink:href="#Calibri-2e" x="50.683594"/>
       <use xlink:href="#Calibri-31" x="75.927734"/>
      </g>
     </g>
    </g>
    <g id="xtick_3">
     <g id="line2d_3">
      <g>
       <use xlink:href="#m7523aa20fc" x="114.7392" y="307.584" style="stroke: #000000; stroke-width: 0.8"/>
      </g>
     </g>
     <g id="text_3">
      <!-- 0.2 -->
      <g transform="translate(108.40795 321.385562) scale(0.1 -0.1)">
       <defs>
        <path id="Calibri-32" d="M 2888 231 
Q 2888 175 2880 131 
Q 2872 88 2858 58 
Q 2844 28 2820 14 
Q 2797 0 2769 0 
L 534 0 
Q 491 0 458 11 
Q 425 22 401 47 
Q 378 72 367 119 
Q 356 166 356 234 
Q 356 297 361 344 
Q 366 391 381 427 
Q 397 463 420 498 
Q 444 534 481 575 
L 1266 1406 
Q 1538 1694 1702 1922 
Q 1866 2150 1955 2337 
Q 2044 2525 2072 2678 
Q 2100 2831 2100 2966 
Q 2100 3100 2056 3220 
Q 2013 3341 1930 3431 
Q 1847 3522 1722 3575 
Q 1597 3628 1434 3628 
Q 1244 3628 1092 3575 
Q 941 3522 827 3459 
Q 713 3397 636 3344 
Q 559 3291 522 3291 
Q 500 3291 483 3303 
Q 466 3316 455 3344 
Q 444 3372 437 3419 
Q 431 3466 431 3531 
Q 431 3578 434 3612 
Q 438 3647 445 3672 
Q 453 3697 465 3719 
Q 478 3741 515 3773 
Q 553 3806 645 3862 
Q 738 3919 877 3973 
Q 1016 4028 1183 4065 
Q 1350 4103 1534 4103 
Q 1828 4103 2048 4020 
Q 2269 3938 2414 3794 
Q 2559 3650 2631 3459 
Q 2703 3269 2703 3053 
Q 2703 2859 2668 2667 
Q 2634 2475 2523 2251 
Q 2413 2028 2203 1754 
Q 1994 1481 1647 1125 
L 1006 456 
L 2766 456 
Q 2791 456 2814 442 
Q 2838 428 2855 400 
Q 2872 372 2880 330 
Q 2888 288 2888 231 
z
" transform="scale(0.015625)"/>
       </defs>
       <use xlink:href="#Calibri-30"/>
       <use xlink:href="#Calibri-2e" x="50.683594"/>
       <use xlink:href="#Calibri-32" x="75.927734"/>
      </g>
     </g>
    </g>
    <g id="xtick_4">
     <g id="line2d_4">
      <g>
       <use xlink:href="#m7523aa20fc" x="143.3088" y="307.584" style="stroke: #000000; stroke-width: 0.8"/>
      </g>
     </g>
     <g id="text_4">
      <!-- 0.3 -->
      <g transform="translate(136.97755 321.385562) scale(0.1 -0.1)">
       <defs>
        <path id="Calibri-33" d="M 2856 1156 
Q 2856 878 2759 654 
Q 2663 431 2481 272 
Q 2300 113 2034 27 
Q 1769 -59 1434 -59 
Q 1231 -59 1054 -26 
Q 878 6 740 51 
Q 603 97 512 145 
Q 422 194 398 216 
Q 375 238 362 259 
Q 350 281 340 312 
Q 331 344 326 389 
Q 322 434 322 500 
Q 322 613 344 656 
Q 366 700 406 700 
Q 434 700 517 650 
Q 600 600 729 542 
Q 859 484 1032 434 
Q 1206 384 1419 384 
Q 1625 384 1781 437 
Q 1938 491 2044 587 
Q 2150 684 2203 817 
Q 2256 950 2256 1106 
Q 2256 1278 2189 1415 
Q 2122 1553 1992 1653 
Q 1863 1753 1673 1806 
Q 1484 1859 1244 1859 
L 859 1859 
Q 834 1859 811 1870 
Q 788 1881 770 1906 
Q 753 1931 742 1972 
Q 731 2013 731 2078 
Q 731 2138 740 2177 
Q 750 2216 767 2239 
Q 784 2263 806 2273 
Q 828 2284 856 2284 
L 1209 2284 
Q 1416 2284 1580 2337 
Q 1744 2391 1858 2491 
Q 1972 2591 2033 2730 
Q 2094 2869 2094 3041 
Q 2094 3166 2053 3280 
Q 2013 3394 1931 3478 
Q 1850 3563 1723 3611 
Q 1597 3659 1431 3659 
Q 1250 3659 1098 3604 
Q 947 3550 828 3487 
Q 709 3425 631 3370 
Q 553 3316 522 3316 
Q 500 3316 483 3323 
Q 466 3331 455 3354 
Q 444 3378 439 3420 
Q 434 3463 434 3531 
Q 434 3578 437 3614 
Q 441 3650 450 3676 
Q 459 3703 471 3725 
Q 484 3747 514 3776 
Q 544 3806 634 3862 
Q 725 3919 858 3973 
Q 991 4028 1164 4065 
Q 1338 4103 1538 4103 
Q 1819 4103 2031 4031 
Q 2244 3959 2386 3828 
Q 2528 3697 2598 3514 
Q 2669 3331 2669 3109 
Q 2669 2919 2619 2755 
Q 2569 2591 2472 2464 
Q 2375 2338 2234 2248 
Q 2094 2159 1909 2125 
L 1909 2119 
Q 2119 2097 2292 2014 
Q 2466 1931 2591 1806 
Q 2716 1681 2786 1514 
Q 2856 1347 2856 1156 
z
" transform="scale(0.015625)"/>
       </defs>
       <use xlink:href="#Calibri-30"/>
       <use xlink:href="#Calibri-2e" x="50.683594"/>
       <use xlink:href="#Calibri-33" x="75.927734"/>
      </g>
     </g>
    </g>
    <g id="xtick_5">
     <g id="line2d_5">
      <g>
       <use xlink:href="#m7523aa20fc" x="171.8784" y="307.584" style="stroke: #000000; stroke-width: 0.8"/>
      </g>
     </g>
     <g id="text_5">
      <!-- 0.4 -->
      <g transform="translate(165.54715 321.385562) scale(0.1 -0.1)">
       <defs>
        <path id="Calibri-34" d="M 3059 1150 
Q 3059 1047 3028 987 
Q 2997 928 2941 928 
L 2484 928 
L 2484 78 
Q 2484 53 2471 36 
Q 2459 19 2428 6 
Q 2397 -6 2347 -12 
Q 2297 -19 2219 -19 
Q 2144 -19 2094 -12 
Q 2044 -6 2014 6 
Q 1984 19 1973 36 
Q 1963 53 1963 78 
L 1963 928 
L 294 928 
Q 256 928 231 937 
Q 206 947 186 972 
Q 166 997 158 1044 
Q 150 1091 150 1166 
Q 150 1225 153 1272 
Q 156 1319 165 1358 
Q 175 1397 190 1433 
Q 206 1469 228 1509 
L 1684 3966 
Q 1700 3991 1729 4009 
Q 1759 4028 1806 4040 
Q 1853 4053 1922 4058 
Q 1991 4063 2084 4063 
Q 2188 4063 2264 4055 
Q 2341 4047 2387 4034 
Q 2434 4022 2459 4001 
Q 2484 3981 2484 3953 
L 2484 1372 
L 2941 1372 
Q 2994 1372 3026 1317 
Q 3059 1263 3059 1150 
z
M 1963 3591 
L 1956 3591 
L 641 1372 
L 1963 1372 
L 1963 3591 
z
" transform="scale(0.015625)"/>
       </defs>
       <use xlink:href="#Calibri-30"/>
       <use xlink:href="#Calibri-2e" x="50.683594"/>
       <use xlink:href="#Calibri-34" x="75.927734"/>
      </g>
     </g>
    </g>
    <g id="xtick_6">
     <g id="line2d_6">
      <g>
       <use xlink:href="#m7523aa20fc" x="200.448" y="307.584" style="stroke: #000000; stroke-width: 0.8"/>
      </g>
     </g>
     <g id="text_6">
      <!-- 0.5 -->
      <g transform="translate(194.11675 321.385562) scale(0.1 -0.1)">
       <defs>
        <path id="Calibri-35" d="M 2869 1300 
Q 2869 975 2759 722 
Q 2650 469 2450 295 
Q 2250 122 1973 31 
Q 1697 -59 1359 -59 
Q 1172 -59 1003 -32 
Q 834 -6 703 33 
Q 572 72 487 109 
Q 403 147 379 169 
Q 356 191 347 209 
Q 338 228 330 254 
Q 322 281 319 322 
Q 316 363 316 419 
Q 316 472 320 514 
Q 325 556 337 582 
Q 350 609 367 621 
Q 384 634 406 634 
Q 438 634 503 595 
Q 569 556 680 511 
Q 791 466 955 425 
Q 1119 384 1344 384 
Q 1553 384 1728 434 
Q 1903 484 2029 590 
Q 2156 697 2228 858 
Q 2300 1019 2300 1250 
Q 2300 1444 2239 1592 
Q 2178 1741 2051 1839 
Q 1925 1938 1731 1986 
Q 1538 2034 1269 2034 
Q 1078 2034 940 2015 
Q 803 1997 684 1997 
Q 597 1997 559 2037 
Q 522 2078 522 2194 
L 522 3841 
Q 522 3944 570 3994 
Q 619 4044 709 4044 
L 2500 4044 
Q 2525 4044 2548 4030 
Q 2572 4016 2587 3987 
Q 2603 3959 2611 3915 
Q 2619 3872 2619 3813 
Q 2619 3700 2587 3637 
Q 2556 3575 2500 3575 
L 991 3575 
L 991 2441 
Q 1100 2456 1214 2459 
Q 1328 2463 1478 2463 
Q 1825 2463 2084 2380 
Q 2344 2297 2517 2145 
Q 2691 1994 2780 1778 
Q 2869 1563 2869 1300 
z
" transform="scale(0.015625)"/>
       </defs>
       <use xlink:href="#Calibri-30"/>
       <use xlink:href="#Calibri-2e" x="50.683594"/>
       <use xlink:href="#Calibri-35" x="75.927734"/>
      </g>
     </g>
    </g>
    <g id="xtick_7">
     <g id="line2d_7">
      <g>
       <use xlink:href="#m7523aa20fc" x="229.0176" y="307.584" style="stroke: #000000; stroke-width: 0.8"/>
      </g>
     </g>
     <g id="text_7">
      <!-- 0.6 -->
      <g transform="translate(222.68635 321.385562) scale(0.1 -0.1)">
       <defs>
        <path id="Calibri-36" d="M 2991 1309 
Q 2991 1044 2909 795 
Q 2828 547 2659 358 
Q 2491 169 2231 55 
Q 1972 -59 1619 -59 
Q 1366 -59 1172 3 
Q 978 66 834 181 
Q 691 297 595 465 
Q 500 634 442 850 
Q 384 1066 359 1322 
Q 334 1578 334 1872 
Q 334 2131 362 2397 
Q 391 2663 462 2909 
Q 534 3156 657 3373 
Q 781 3591 967 3752 
Q 1153 3913 1412 4006 
Q 1672 4100 2016 4100 
Q 2131 4100 2250 4086 
Q 2369 4072 2469 4048 
Q 2569 4025 2637 3997 
Q 2706 3969 2728 3951 
Q 2750 3934 2761 3914 
Q 2772 3894 2778 3870 
Q 2784 3847 2787 3817 
Q 2791 3788 2791 3744 
Q 2791 3688 2789 3647 
Q 2788 3606 2777 3581 
Q 2766 3556 2748 3543 
Q 2731 3531 2703 3531 
Q 2669 3531 2609 3553 
Q 2550 3575 2465 3601 
Q 2381 3628 2261 3650 
Q 2141 3672 1981 3672 
Q 1691 3672 1481 3553 
Q 1272 3434 1139 3234 
Q 1006 3034 942 2770 
Q 878 2506 869 2219 
Q 950 2266 1051 2312 
Q 1153 2359 1273 2396 
Q 1394 2434 1528 2457 
Q 1663 2481 1816 2481 
Q 2144 2481 2369 2392 
Q 2594 2303 2733 2145 
Q 2872 1988 2931 1773 
Q 2991 1559 2991 1309 
z
M 2447 1259 
Q 2447 1441 2411 1589 
Q 2375 1738 2290 1841 
Q 2206 1944 2065 2000 
Q 1925 2056 1719 2056 
Q 1603 2056 1487 2036 
Q 1372 2016 1264 1980 
Q 1156 1944 1057 1895 
Q 959 1847 878 1791 
Q 878 1388 929 1116 
Q 981 844 1079 680 
Q 1178 516 1325 445 
Q 1472 375 1669 375 
Q 1869 375 2016 450 
Q 2163 525 2259 651 
Q 2356 778 2401 936 
Q 2447 1094 2447 1259 
z
" transform="scale(0.015625)"/>
       </defs>
       <use xlink:href="#Calibri-30"/>
       <use xlink:href="#Calibri-2e" x="50.683594"/>
       <use xlink:href="#Calibri-36" x="75.927734"/>
      </g>
     </g>
    </g>
    <g id="xtick_8">
     <g id="line2d_8">
      <g>
       <use xlink:href="#m7523aa20fc" x="257.5872" y="307.584" style="stroke: #000000; stroke-width: 0.8"/>
      </g>
     </g>
     <g id="text_8">
      <!-- 0.7 -->
      <g transform="translate(251.25595 321.385562) scale(0.1 -0.1)">
       <defs>
        <path id="Calibri-37" d="M 2947 3813 
Q 2947 3756 2942 3711 
Q 2938 3666 2930 3623 
Q 2922 3581 2908 3542 
Q 2894 3503 2875 3459 
L 1419 103 
Q 1403 66 1379 42 
Q 1356 19 1320 5 
Q 1284 -9 1228 -14 
Q 1172 -19 1091 -19 
Q 984 -19 925 -9 
Q 866 0 839 20 
Q 813 41 816 70 
Q 819 100 838 141 
L 2369 3572 
L 428 3572 
Q 369 3572 339 3634 
Q 309 3697 309 3809 
Q 309 3869 317 3912 
Q 325 3956 340 3986 
Q 356 4016 378 4030 
Q 400 4044 428 4044 
L 2784 4044 
Q 2828 4044 2861 4034 
Q 2894 4025 2911 3997 
Q 2928 3969 2937 3925 
Q 2947 3881 2947 3813 
z
" transform="scale(0.015625)"/>
       </defs>
       <use xlink:href="#Calibri-30"/>
       <use xlink:href="#Calibri-2e" x="50.683594"/>
       <use xlink:href="#Calibri-37" x="75.927734"/>
      </g>
     </g>
    </g>
    <g id="xtick_9">
     <g id="line2d_9">
      <g>
       <use xlink:href="#m7523aa20fc" x="286.1568" y="307.584" style="stroke: #000000; stroke-width: 0.8"/>
      </g>
     </g>
     <g id="text_9">
      <!-- 0.8 -->
      <g transform="translate(279.82555 321.385562) scale(0.1 -0.1)">
       <defs>
        <path id="Calibri-38" d="M 2981 1038 
Q 2981 775 2887 570 
Q 2794 366 2617 225 
Q 2441 84 2181 12 
Q 1922 -59 1588 -59 
Q 1275 -59 1028 6 
Q 781 72 609 200 
Q 438 328 347 515 
Q 256 703 256 944 
Q 256 1134 318 1293 
Q 381 1453 498 1587 
Q 616 1722 787 1839 
Q 959 1956 1175 2063 
Q 988 2159 844 2267 
Q 700 2375 600 2501 
Q 500 2628 448 2772 
Q 397 2916 397 3084 
Q 397 3297 473 3483 
Q 550 3669 704 3806 
Q 859 3944 1098 4023 
Q 1338 4103 1656 4103 
Q 1963 4103 2186 4029 
Q 2409 3956 2554 3829 
Q 2700 3703 2769 3531 
Q 2838 3359 2838 3163 
Q 2838 3003 2786 2856 
Q 2734 2709 2634 2578 
Q 2534 2447 2389 2333 
Q 2244 2219 2056 2119 
Q 2278 2009 2451 1893 
Q 2625 1778 2742 1645 
Q 2859 1513 2920 1364 
Q 2981 1216 2981 1038 
z
M 2306 3113 
Q 2306 3244 2261 3350 
Q 2216 3456 2128 3531 
Q 2041 3606 1911 3645 
Q 1781 3684 1616 3684 
Q 1278 3684 1104 3531 
Q 931 3378 931 3113 
Q 931 2991 973 2886 
Q 1016 2781 1105 2687 
Q 1194 2594 1330 2505 
Q 1466 2416 1653 2319 
Q 1969 2481 2137 2678 
Q 2306 2875 2306 3113 
z
M 2438 981 
Q 2438 1125 2384 1242 
Q 2331 1359 2223 1461 
Q 2116 1563 1955 1658 
Q 1794 1753 1581 1856 
Q 1384 1759 1236 1662 
Q 1088 1566 992 1462 
Q 897 1359 848 1245 
Q 800 1131 800 994 
Q 800 691 1008 525 
Q 1216 359 1628 359 
Q 2028 359 2233 526 
Q 2438 694 2438 981 
z
" transform="scale(0.015625)"/>
       </defs>
       <use xlink:href="#Calibri-30"/>
       <use xlink:href="#Calibri-2e" x="50.683594"/>
       <use xlink:href="#Calibri-38" x="75.927734"/>
      </g>
     </g>
    </g>
    <g id="xtick_10">
     <g id="line2d_10">
      <g>
       <use xlink:href="#m7523aa20fc" x="314.7264" y="307.584" style="stroke: #000000; stroke-width: 0.8"/>
      </g>
     </g>
     <g id="text_10">
      <!-- 0.9 -->
      <g transform="translate(308.39515 321.385562) scale(0.1 -0.1)">
       <defs>
        <path id="Calibri-39" d="M 2919 2181 
Q 2919 1919 2887 1650 
Q 2856 1381 2781 1132 
Q 2706 884 2579 667 
Q 2453 450 2261 287 
Q 2069 125 1805 33 
Q 1541 -59 1191 -59 
Q 1056 -59 929 -42 
Q 803 -25 701 0 
Q 600 25 531 53 
Q 463 81 431 109 
Q 400 138 386 186 
Q 372 234 372 316 
Q 372 384 376 425 
Q 381 466 390 487 
Q 400 509 417 517 
Q 434 525 459 525 
Q 494 525 556 501 
Q 619 478 714 450 
Q 809 422 937 398 
Q 1066 375 1225 375 
Q 1528 375 1745 492 
Q 1963 609 2100 806 
Q 2238 1003 2306 1262 
Q 2375 1522 2381 1809 
Q 2216 1713 1984 1638 
Q 1753 1563 1453 1563 
Q 1116 1563 886 1655 
Q 656 1747 517 1906 
Q 378 2066 317 2284 
Q 256 2503 256 2763 
Q 256 3031 334 3273 
Q 413 3516 578 3700 
Q 744 3884 1000 3993 
Q 1256 4103 1613 4103 
Q 1866 4103 2061 4039 
Q 2256 3975 2400 3854 
Q 2544 3734 2644 3564 
Q 2744 3394 2805 3178 
Q 2866 2963 2892 2711 
Q 2919 2459 2919 2181 
z
M 2372 2241 
Q 2372 2641 2319 2914 
Q 2266 3188 2162 3356 
Q 2059 3525 1909 3600 
Q 1759 3675 1563 3675 
Q 1359 3675 1215 3601 
Q 1072 3528 980 3404 
Q 888 3281 844 3125 
Q 800 2969 800 2803 
Q 800 2619 839 2466 
Q 878 2313 965 2206 
Q 1053 2100 1193 2042 
Q 1334 1984 1541 1984 
Q 1775 1984 1994 2054 
Q 2213 2125 2372 2241 
z
" transform="scale(0.015625)"/>
       </defs>
       <use xlink:href="#Calibri-30"/>
       <use xlink:href="#Calibri-2e" x="50.683594"/>
       <use xlink:href="#Calibri-39" x="75.927734"/>
      </g>
     </g>
    </g>
    <g id="xtick_11">
     <g id="line2d_11">
      <g>
       <use xlink:href="#m7523aa20fc" x="343.296" y="307.584" style="stroke: #000000; stroke-width: 0.8"/>
      </g>
     </g>
     <g id="text_11">
      <!-- 1.0 -->
      <g transform="translate(336.96475 321.385562) scale(0.1 -0.1)">
       <use xlink:href="#Calibri-31"/>
       <use xlink:href="#Calibri-2e" x="50.683594"/>
       <use xlink:href="#Calibri-30" x="75.927734"/>
      </g>
     </g>
    </g>
    <g id="text_12">
     <!-- $\mathit{p}$ (cm$^2$/cm$^2$) -->
     <g transform="translate(174.148 336.263687) scale(0.1 -0.1)">
      <defs>
       <path id="DejaVuSans-Oblique-70" d="M 3175 2156 
Q 3175 2616 2975 2859 
Q 2775 3103 2400 3103 
Q 2144 3103 1911 2972 
Q 1678 2841 1497 2591 
Q 1319 2344 1212 1994 
Q 1106 1644 1106 1300 
Q 1106 863 1306 627 
Q 1506 391 1875 391 
Q 2147 391 2380 519 
Q 2613 647 2778 891 
Q 2956 1147 3065 1494 
Q 3175 1841 3175 2156 
z
M 1394 2969 
Q 1625 3272 1939 3428 
Q 2253 3584 2638 3584 
Q 3175 3584 3472 3232 
Q 3769 2881 3769 2247 
Q 3769 1728 3584 1258 
Q 3400 788 3053 416 
Q 2822 169 2531 39 
Q 2241 -91 1919 -91 
Q 1547 -91 1294 64 
Q 1041 219 916 525 
L 556 -1331 
L -19 -1331 
L 922 3500 
L 1497 3500 
L 1394 2969 
z
" transform="scale(0.015625)"/>
       <path id="Calibri-20" transform="scale(0.015625)"/>
       <path id="Calibri-28" d="M 1547 4306 
Q 1250 3678 1104 3017 
Q 959 2356 959 1688 
Q 959 1016 1107 356 
Q 1256 -303 1541 -938 
Q 1556 -975 1557 -1001 
Q 1559 -1028 1537 -1045 
Q 1516 -1063 1470 -1070 
Q 1425 -1078 1347 -1078 
Q 1291 -1078 1250 -1075 
Q 1209 -1072 1179 -1062 
Q 1150 -1053 1131 -1040 
Q 1113 -1028 1103 -1013 
Q 934 -694 806 -367 
Q 678 -41 590 296 
Q 503 634 459 979 
Q 416 1325 416 1678 
Q 416 2031 464 2375 
Q 513 2719 602 3058 
Q 691 3397 819 3725 
Q 947 4053 1106 4375 
Q 1109 4388 1123 4397 
Q 1138 4406 1163 4415 
Q 1188 4425 1231 4429 
Q 1275 4434 1344 4434 
Q 1416 4434 1459 4425 
Q 1503 4416 1528 4400 
Q 1553 4384 1556 4359 
Q 1559 4334 1547 4306 
z
" transform="scale(0.015625)"/>
       <path id="Calibri-63" d="M 2500 506 
Q 2500 453 2497 414 
Q 2494 375 2486 348 
Q 2478 322 2467 301 
Q 2456 281 2417 242 
Q 2378 203 2284 145 
Q 2191 88 2073 42 
Q 1956 -3 1818 -31 
Q 1681 -59 1534 -59 
Q 1231 -59 997 41 
Q 763 141 605 333 
Q 447 525 364 804 
Q 281 1084 281 1450 
Q 281 1866 382 2164 
Q 484 2463 661 2653 
Q 838 2844 1077 2936 
Q 1316 3028 1594 3028 
Q 1728 3028 1854 3003 
Q 1981 2978 2087 2937 
Q 2194 2897 2276 2844 
Q 2359 2791 2396 2753 
Q 2434 2716 2448 2694 
Q 2463 2672 2472 2642 
Q 2481 2613 2484 2575 
Q 2488 2538 2488 2481 
Q 2488 2359 2459 2311 
Q 2431 2263 2391 2263 
Q 2344 2263 2283 2314 
Q 2222 2366 2128 2428 
Q 2034 2491 1901 2542 
Q 1769 2594 1588 2594 
Q 1216 2594 1017 2308 
Q 819 2022 819 1478 
Q 819 1206 870 1001 
Q 922 797 1022 659 
Q 1122 522 1267 455 
Q 1413 388 1600 388 
Q 1778 388 1912 444 
Q 2047 500 2145 567 
Q 2244 634 2311 689 
Q 2378 744 2416 744 
Q 2438 744 2453 731 
Q 2469 719 2480 689 
Q 2491 659 2495 614 
Q 2500 569 2500 506 
z
" transform="scale(0.015625)"/>
       <path id="Calibri-6d" d="M 4650 78 
Q 4650 53 4637 36 
Q 4625 19 4597 6 
Q 4569 -6 4519 -12 
Q 4469 -19 4394 -19 
Q 4316 -19 4266 -12 
Q 4216 -6 4186 6 
Q 4156 19 4143 36 
Q 4131 53 4131 78 
L 4131 1788 
Q 4131 1966 4100 2112 
Q 4069 2259 4000 2365 
Q 3931 2472 3825 2528 
Q 3719 2584 3575 2584 
Q 3397 2584 3217 2446 
Q 3038 2309 2822 2044 
L 2822 78 
Q 2822 53 2809 36 
Q 2797 19 2767 6 
Q 2738 -6 2688 -12 
Q 2638 -19 2563 -19 
Q 2491 -19 2439 -12 
Q 2388 -6 2358 6 
Q 2328 19 2317 36 
Q 2306 53 2306 78 
L 2306 1788 
Q 2306 1966 2272 2112 
Q 2238 2259 2169 2365 
Q 2100 2472 1995 2528 
Q 1891 2584 1747 2584 
Q 1569 2584 1387 2446 
Q 1206 2309 994 2044 
L 994 78 
Q 994 53 981 36 
Q 969 19 941 6 
Q 913 -6 863 -12 
Q 813 -19 734 -19 
Q 659 -19 609 -12 
Q 559 -6 529 6 
Q 500 19 489 36 
Q 478 53 478 78 
L 478 2891 
Q 478 2916 487 2933 
Q 497 2950 525 2964 
Q 553 2978 597 2983 
Q 641 2988 713 2988 
Q 781 2988 826 2983 
Q 872 2978 897 2964 
Q 922 2950 933 2933 
Q 944 2916 944 2891 
L 944 2519 
Q 1181 2784 1404 2907 
Q 1628 3031 1856 3031 
Q 2031 3031 2170 2990 
Q 2309 2950 2415 2876 
Q 2522 2803 2597 2701 
Q 2672 2600 2722 2475 
Q 2863 2628 2989 2734 
Q 3116 2841 3233 2906 
Q 3350 2972 3461 3001 
Q 3572 3031 3684 3031 
Q 3956 3031 4140 2936 
Q 4325 2841 4439 2681 
Q 4553 2522 4601 2308 
Q 4650 2094 4650 1856 
L 4650 78 
z
" transform="scale(0.015625)"/>
       <path id="DejaVuSans-32" d="M 1228 531 
L 3431 531 
L 3431 0 
L 469 0 
L 469 531 
Q 828 903 1448 1529 
Q 2069 2156 2228 2338 
Q 2531 2678 2651 2914 
Q 2772 3150 2772 3378 
Q 2772 3750 2511 3984 
Q 2250 4219 1831 4219 
Q 1534 4219 1204 4116 
Q 875 4013 500 3803 
L 500 4441 
Q 881 4594 1212 4672 
Q 1544 4750 1819 4750 
Q 2544 4750 2975 4387 
Q 3406 4025 3406 3419 
Q 3406 3131 3298 2873 
Q 3191 2616 2906 2266 
Q 2828 2175 2409 1742 
Q 1991 1309 1228 531 
z
" transform="scale(0.015625)"/>
       <path id="Calibri-2f" d="M 525 -753 
Q 513 -794 492 -817 
Q 472 -841 440 -853 
Q 409 -866 364 -872 
Q 319 -878 253 -878 
Q 175 -878 123 -867 
Q 72 -856 44 -836 
Q 16 -816 9 -786 
Q 3 -756 22 -716 
L 1913 4469 
Q 1925 4509 1945 4532 
Q 1966 4556 1995 4570 
Q 2025 4584 2072 4589 
Q 2119 4594 2184 4594 
Q 2263 4594 2313 4583 
Q 2363 4572 2391 4553 
Q 2419 4534 2425 4503 
Q 2431 4472 2416 4431 
L 525 -753 
z
" transform="scale(0.015625)"/>
       <path id="Calibri-29" d="M 1522 1678 
Q 1522 1325 1478 979 
Q 1434 634 1346 296 
Q 1259 -41 1132 -367 
Q 1006 -694 838 -1013 
Q 828 -1028 809 -1040 
Q 791 -1053 761 -1062 
Q 731 -1072 690 -1075 
Q 650 -1078 594 -1078 
Q 513 -1078 467 -1070 
Q 422 -1063 401 -1045 
Q 381 -1028 382 -1001 
Q 384 -975 400 -938 
Q 688 -306 834 355 
Q 981 1016 981 1688 
Q 981 2356 834 3017 
Q 688 3678 394 4306 
Q 381 4334 384 4359 
Q 388 4384 413 4400 
Q 438 4416 481 4425 
Q 525 4434 597 4434 
Q 663 4434 706 4429 
Q 750 4425 776 4415 
Q 803 4406 815 4397 
Q 828 4388 834 4375 
Q 1156 3734 1339 3057 
Q 1522 2381 1522 1678 
z
" transform="scale(0.015625)"/>
      </defs>
      <use xlink:href="#DejaVuSans-Oblique-70" transform="translate(0 0.765625)"/>
      <use xlink:href="#Calibri-20" transform="translate(63.476562 0.765625)"/>
      <use xlink:href="#Calibri-28" transform="translate(84.958984 0.765625)"/>
      <use xlink:href="#Calibri-63" transform="translate(115.28125 0.765625)"/>
      <use xlink:href="#Calibri-6d" transform="translate(157.566406 0.765625)"/>
      <use xlink:href="#DejaVuSans-32" transform="translate(238.40625 39.046875) scale(0.7)"/>
      <use xlink:href="#Calibri-2f" transform="translate(285.676758 0.765625)"/>
      <use xlink:href="#Calibri-63" transform="translate(324.299805 0.765625)"/>
      <use xlink:href="#Calibri-6d" transform="translate(366.584961 0.765625)"/>
      <use xlink:href="#DejaVuSans-32" transform="translate(447.424805 39.046875) scale(0.7)"/>
      <use xlink:href="#Calibri-29" transform="translate(494.695312 0.765625)"/>
     </g>
    </g>
   </g>
   <g id="matplotlib.axis_2">
    <g id="ytick_1">
     <g id="line2d_12">
      <defs>
       <path id="m39451753ac" d="M 0 0 
L -3.5 0 
" style="stroke: #000000; stroke-width: 0.8"/>
      </defs>
      <g>
       <use xlink:href="#m39451753ac" x="57.6" y="275.65056" style="stroke: #000000; stroke-width: 0.8"/>
      </g>
     </g>
     <g id="text_13">
      <!-- 25 -->
      <g transform="translate(40.4625 279.051341) scale(0.1 -0.1)">
       <use xlink:href="#Calibri-32"/>
       <use xlink:href="#Calibri-35" x="50.683594"/>
      </g>
     </g>
    </g>
    <g id="ytick_2">
     <g id="line2d_13">
      <g>
       <use xlink:href="#m39451753ac" x="57.6" y="242.38656" style="stroke: #000000; stroke-width: 0.8"/>
      </g>
     </g>
     <g id="text_14">
      <!-- 50 -->
      <g transform="translate(40.4625 245.787341) scale(0.1 -0.1)">
       <use xlink:href="#Calibri-35"/>
       <use xlink:href="#Calibri-30" x="50.683594"/>
      </g>
     </g>
    </g>
    <g id="ytick_3">
     <g id="line2d_14">
      <g>
       <use xlink:href="#m39451753ac" x="57.6" y="209.12256" style="stroke: #000000; stroke-width: 0.8"/>
      </g>
     </g>
     <g id="text_15">
      <!-- 75 -->
      <g transform="translate(40.4625 212.523341) scale(0.1 -0.1)">
       <use xlink:href="#Calibri-37"/>
       <use xlink:href="#Calibri-35" x="50.683594"/>
      </g>
     </g>
    </g>
    <g id="ytick_4">
     <g id="line2d_15">
      <g>
       <use xlink:href="#m39451753ac" x="57.6" y="175.85856" style="stroke: #000000; stroke-width: 0.8"/>
      </g>
     </g>
     <g id="text_16">
      <!-- 100 -->
      <g transform="translate(35.39375 179.259341) scale(0.1 -0.1)">
       <use xlink:href="#Calibri-31"/>
       <use xlink:href="#Calibri-30" x="50.683594"/>
       <use xlink:href="#Calibri-30" x="101.367188"/>
      </g>
     </g>
    </g>
    <g id="ytick_5">
     <g id="line2d_16">
      <g>
       <use xlink:href="#m39451753ac" x="57.6" y="142.59456" style="stroke: #000000; stroke-width: 0.8"/>
      </g>
     </g>
     <g id="text_17">
      <!-- 125 -->
      <g transform="translate(35.39375 145.995341) scale(0.1 -0.1)">
       <use xlink:href="#Calibri-31"/>
       <use xlink:href="#Calibri-32" x="50.683594"/>
       <use xlink:href="#Calibri-35" x="101.367188"/>
      </g>
     </g>
    </g>
    <g id="ytick_6">
     <g id="line2d_17">
      <g>
       <use xlink:href="#m39451753ac" x="57.6" y="109.33056" style="stroke: #000000; stroke-width: 0.8"/>
      </g>
     </g>
     <g id="text_18">
      <!-- 150 -->
      <g transform="translate(35.39375 112.731341) scale(0.1 -0.1)">
       <use xlink:href="#Calibri-31"/>
       <use xlink:href="#Calibri-35" x="50.683594"/>
       <use xlink:href="#Calibri-30" x="101.367188"/>
      </g>
     </g>
    </g>
    <g id="ytick_7">
     <g id="line2d_18">
      <g>
       <use xlink:href="#m39451753ac" x="57.6" y="76.06656" style="stroke: #000000; stroke-width: 0.8"/>
      </g>
     </g>
     <g id="text_19">
      <!-- 175 -->
      <g transform="translate(35.39375 79.467341) scale(0.1 -0.1)">
       <use xlink:href="#Calibri-31"/>
       <use xlink:href="#Calibri-37" x="50.683594"/>
       <use xlink:href="#Calibri-35" x="101.367188"/>
      </g>
     </g>
    </g>
    <g id="ytick_8">
     <g id="line2d_19">
      <g>
       <use xlink:href="#m39451753ac" x="57.6" y="42.80256" style="stroke: #000000; stroke-width: 0.8"/>
      </g>
     </g>
     <g id="text_20">
      <!-- 200 -->
      <g transform="translate(35.39375 46.203341) scale(0.1 -0.1)">
       <use xlink:href="#Calibri-32"/>
       <use xlink:href="#Calibri-30" x="50.683594"/>
       <use xlink:href="#Calibri-30" x="101.367188"/>
      </g>
     </g>
    </g>
    <g id="text_21">
     <!-- $\mathit{Z}$$_{a}$ (nm) -->
     <g transform="translate(29.59375 191.028) rotate(-90) scale(0.1 -0.1)">
      <defs>
       <path id="DejaVuSans-Oblique-5a" d="M 838 4666 
L 4500 4666 
L 4409 4184 
L 794 531 
L 3769 531 
L 3669 0 
L -141 0 
L -50 481 
L 3566 4134 
L 738 4134 
L 838 4666 
z
" transform="scale(0.015625)"/>
       <path id="DejaVuSans-Oblique-61" d="M 3438 1997 
L 3047 0 
L 2472 0 
L 2578 531 
Q 2325 219 2001 64 
Q 1678 -91 1281 -91 
Q 834 -91 548 182 
Q 263 456 263 884 
Q 263 1497 752 1853 
Q 1241 2209 2100 2209 
L 2900 2209 
L 2931 2363 
Q 2938 2388 2941 2417 
Q 2944 2447 2944 2509 
Q 2944 2788 2717 2942 
Q 2491 3097 2081 3097 
Q 1800 3097 1504 3025 
Q 1209 2953 897 2809 
L 997 3341 
Q 1322 3463 1633 3523 
Q 1944 3584 2234 3584 
Q 2853 3584 3176 3315 
Q 3500 3047 3500 2534 
Q 3500 2431 3484 2292 
Q 3469 2153 3438 1997 
z
M 2816 1759 
L 2241 1759 
Q 1534 1759 1195 1570 
Q 856 1381 856 984 
Q 856 709 1029 553 
Q 1203 397 1509 397 
Q 1978 397 2328 733 
Q 2678 1069 2791 1631 
L 2816 1759 
z
" transform="scale(0.015625)"/>
       <path id="Calibri-6e" d="M 2900 78 
Q 2900 53 2887 36 
Q 2875 19 2847 6 
Q 2819 -6 2769 -12 
Q 2719 -19 2644 -19 
Q 2566 -19 2516 -12 
Q 2466 -6 2437 6 
Q 2409 19 2396 36 
Q 2384 53 2384 78 
L 2384 1725 
Q 2384 1966 2346 2112 
Q 2309 2259 2237 2365 
Q 2166 2472 2052 2528 
Q 1938 2584 1788 2584 
Q 1594 2584 1400 2446 
Q 1206 2309 994 2044 
L 994 78 
Q 994 53 981 36 
Q 969 19 941 6 
Q 913 -6 863 -12 
Q 813 -19 734 -19 
Q 659 -19 609 -12 
Q 559 -6 529 6 
Q 500 19 489 36 
Q 478 53 478 78 
L 478 2891 
Q 478 2916 487 2933 
Q 497 2950 525 2964 
Q 553 2978 597 2983 
Q 641 2988 713 2988 
Q 781 2988 826 2983 
Q 872 2978 897 2964 
Q 922 2950 933 2933 
Q 944 2916 944 2891 
L 944 2519 
Q 1181 2784 1417 2907 
Q 1653 3031 1894 3031 
Q 2175 3031 2367 2936 
Q 2559 2841 2678 2681 
Q 2797 2522 2848 2308 
Q 2900 2094 2900 1794 
L 2900 78 
z
" transform="scale(0.015625)"/>
      </defs>
      <use xlink:href="#DejaVuSans-Oblique-5a" transform="translate(0 0.09375)"/>
      <use xlink:href="#DejaVuSans-Oblique-61" transform="translate(69.462891 -16.3125) scale(0.7)"/>
      <use xlink:href="#Calibri-20" transform="translate(115.092773 0.09375)"/>
      <use xlink:href="#Calibri-28" transform="translate(136.575195 0.09375)"/>
      <use xlink:href="#Calibri-6e" transform="translate(166.897461 0.09375)"/>
      <use xlink:href="#Calibri-6d" transform="translate(219.436523 0.09375)"/>
      <use xlink:href="#Calibri-29" transform="translate(299.319336 0.09375)"/>
     </g>
    </g>
   </g>
   <g id="patch_3">
    <path d="M 57.6 307.584 
L 57.6 41.472 
" style="fill: none; stroke: #000000; stroke-width: 0.8; stroke-linejoin: miter; stroke-linecap: square"/>
   </g>
   <g id="patch_4">
    <path d="M 343.296 307.584 
L 343.296 41.472 
" style="fill: none; stroke: #000000; stroke-width: 0.8; stroke-linejoin: miter; stroke-linecap: square"/>
   </g>
   <g id="patch_5">
    <path d="M 57.6 307.584 
L 343.296 307.584 
" style="fill: none; stroke: #000000; stroke-width: 0.8; stroke-linejoin: miter; stroke-linecap: square"/>
   </g>
   <g id="patch_6">
    <path d="M 57.6 41.472 
L 343.296 41.472 
" style="fill: none; stroke: #000000; stroke-width: 0.8; stroke-linejoin: miter; stroke-linecap: square"/>
   </g>
   <g id="text_22">
    <!-- $\theta_m$ = 50 -->
    <g transform="translate(182.298 35.472) scale(0.1 -0.1)">
     <defs>
      <path id="DejaVuSans-Oblique-3b8" d="M 2913 2219 
L 925 2219 
Q 791 1284 928 888 
Q 1100 400 1566 400 
Q 2034 400 2391 891 
Q 2703 1322 2913 2219 
z
M 3009 2750 
Q 3094 3638 2984 3950 
Q 2813 4444 2353 4444 
Q 1875 4444 1525 3956 
Q 1250 3563 1034 2750 
L 3009 2750 
z
M 2444 4913 
Q 3194 4913 3494 4250 
Q 3794 3591 3566 2422 
Q 3341 1256 2781 594 
Q 2225 -72 1475 -72 
Q 722 -72 425 594 
Q 128 1256 353 2422 
Q 581 3591 1134 4250 
Q 1691 4913 2444 4913 
z
" transform="scale(0.015625)"/>
      <path id="DejaVuSans-Oblique-6d" d="M 5747 2113 
L 5338 0 
L 4763 0 
L 5166 2094 
Q 5191 2228 5203 2325 
Q 5216 2422 5216 2491 
Q 5216 2772 5059 2928 
Q 4903 3084 4622 3084 
Q 4203 3084 3875 2770 
Q 3547 2456 3450 1953 
L 3066 0 
L 2491 0 
L 2900 2094 
Q 2925 2209 2937 2307 
Q 2950 2406 2950 2484 
Q 2950 2769 2794 2926 
Q 2638 3084 2363 3084 
Q 1938 3084 1609 2770 
Q 1281 2456 1184 1953 
L 800 0 
L 225 0 
L 909 3500 
L 1484 3500 
L 1375 2956 
Q 1609 3263 1923 3423 
Q 2238 3584 2597 3584 
Q 2978 3584 3223 3384 
Q 3469 3184 3519 2828 
Q 3781 3197 4126 3390 
Q 4472 3584 4856 3584 
Q 5306 3584 5551 3325 
Q 5797 3066 5797 2591 
Q 5797 2488 5784 2364 
Q 5772 2241 5747 2113 
z
" transform="scale(0.015625)"/>
      <path id="Calibri-3d" d="M 2891 2409 
Q 2891 2284 2855 2236 
Q 2819 2188 2772 2188 
L 409 2188 
Q 363 2188 328 2236 
Q 294 2284 294 2409 
Q 294 2522 325 2575 
Q 356 2628 409 2628 
L 2772 2628 
Q 2828 2628 2859 2575 
Q 2891 2522 2891 2409 
z
M 2891 1194 
Q 2891 1069 2855 1022 
Q 2819 975 2772 975 
L 409 975 
Q 363 975 328 1022 
Q 294 1069 294 1194 
Q 294 1309 325 1362 
Q 356 1416 409 1416 
L 2772 1416 
Q 2828 1416 2859 1362 
Q 2891 1309 2891 1194 
z
" transform="scale(0.015625)"/>
      <path id="Calibri-b0" d="M 1847 3541 
Q 1847 3388 1789 3253 
Q 1731 3119 1626 3017 
Q 1522 2916 1380 2859 
Q 1238 2803 1072 2803 
Q 906 2803 770 2854 
Q 634 2906 534 3000 
Q 434 3094 378 3225 
Q 322 3356 322 3516 
Q 322 3675 381 3811 
Q 441 3947 545 4044 
Q 650 4141 790 4197 
Q 931 4253 1097 4253 
Q 1259 4253 1396 4200 
Q 1534 4147 1634 4055 
Q 1734 3963 1790 3831 
Q 1847 3700 1847 3541 
z
M 1453 3528 
Q 1453 3613 1425 3686 
Q 1397 3759 1347 3812 
Q 1297 3866 1228 3895 
Q 1159 3925 1078 3925 
Q 1000 3925 933 3895 
Q 866 3866 816 3812 
Q 766 3759 737 3687 
Q 709 3616 709 3534 
Q 709 3444 737 3369 
Q 766 3294 817 3241 
Q 869 3188 939 3158 
Q 1009 3128 1091 3128 
Q 1166 3128 1233 3159 
Q 1300 3191 1348 3245 
Q 1397 3300 1425 3372 
Q 1453 3444 1453 3528 
z
M 0 4044 
L 0 4044 
z
" transform="scale(0.015625)"/>
     </defs>
     <use xlink:href="#DejaVuSans-Oblique-3b8" transform="translate(0 0.234375)"/>
     <use xlink:href="#DejaVuSans-Oblique-6d" transform="translate(61.181641 -16.171875) scale(0.7)"/>
     <use xlink:href="#Calibri-20" transform="translate(132.104492 0.234375)"/>
     <use xlink:href="#Calibri-3d" transform="translate(154.711914 0.234375)"/>
     <use xlink:href="#Calibri-20" transform="translate(204.516602 0.234375)"/>
     <use xlink:href="#Calibri-35" transform="translate(227.124023 0.234375)"/>
     <use xlink:href="#Calibri-30" transform="translate(277.807617 0.234375)"/>
     <use xlink:href="#Calibri-b0" transform="translate(328.491211 0.234375)"/>
    </g>
   </g>
  </g>
  <g id="axes_2">
   <g id="patch_7">
    <path d="M 361.152 307.584 
L 374.4576 307.584 
L 374.4576 41.472 
L 361.152 41.472 
z
" style="fill: #ffffff"/>
   </g>
   <g id="QuadMesh_1">
    <path d="M 361.152 307.584 
L 374.4576 307.584 
L 374.4576 280.9728 
L 361.152 280.9728 
L 361.152 307.584 
" clip-path="url(#pab9c7c2344)" style="fill: #0000b6"/>
    <path d="M 361.152 280.9728 
L 374.4576 280.9728 
L 374.4576 254.3616 
L 361.152 254.3616 
L 361.152 280.9728 
" clip-path="url(#pab9c7c2344)" style="fill: #0018ff"/>
    <path d="M 361.152 254.3616 
L 374.4576 254.3616 
L 374.4576 227.7504 
L 361.152 227.7504 
L 361.152 254.3616 
" clip-path="url(#pab9c7c2344)" style="fill: #0080ff"/>
    <path d="M 361.152 227.7504 
L 374.4576 227.7504 
L 374.4576 201.1392 
L 361.152 201.1392 
L 361.152 227.7504 
" clip-path="url(#pab9c7c2344)" style="fill: #00e4f8"/>
    <path d="M 361.152 201.1392 
L 374.4576 201.1392 
L 374.4576 174.528 
L 361.152 174.528 
L 361.152 201.1392 
" clip-path="url(#pab9c7c2344)" style="fill: #53ffa4"/>
    <path d="M 361.152 174.528 
L 374.4576 174.528 
L 374.4576 147.9168 
L 361.152 147.9168 
L 361.152 174.528 
" clip-path="url(#pab9c7c2344)" style="fill: #a4ff53"/>
    <path d="M 361.152 147.9168 
L 374.4576 147.9168 
L 374.4576 121.3056 
L 361.152 121.3056 
L 361.152 147.9168 
" clip-path="url(#pab9c7c2344)" style="fill: #f8f500"/>
    <path d="M 361.152 121.3056 
L 374.4576 121.3056 
L 374.4576 94.6944 
L 361.152 94.6944 
L 361.152 121.3056 
" clip-path="url(#pab9c7c2344)" style="fill: #ff9400"/>
    <path d="M 361.152 94.6944 
L 374.4576 94.6944 
L 374.4576 68.0832 
L 361.152 68.0832 
L 361.152 94.6944 
" clip-path="url(#pab9c7c2344)" style="fill: #ff3800"/>
    <path d="M 361.152 68.0832 
L 374.4576 68.0832 
L 374.4576 41.472 
L 361.152 41.472 
L 361.152 68.0832 
" clip-path="url(#pab9c7c2344)" style="fill: #b60000"/>
   </g>
   <g id="matplotlib.axis_3"/>
   <g id="matplotlib.axis_4">
    <g id="ytick_9">
     <g id="line2d_20">
      <defs>
       <path id="m4f73cbcb12" d="M 0 0 
L 3.5 0 
" style="stroke: #000000; stroke-width: 0.8"/>
      </defs>
      <g>
       <use xlink:href="#m4f73cbcb12" x="374.4576" y="307.584" style="stroke: #000000; stroke-width: 0.8"/>
      </g>
     </g>
     <g id="text_23">
      <!-- 0 -->
      <g transform="translate(381.4576 310.984781) scale(0.1 -0.1)">
       <use xlink:href="#Calibri-30"/>
      </g>
     </g>
    </g>
    <g id="ytick_10">
     <g id="line2d_21">
      <g>
       <use xlink:href="#m4f73cbcb12" x="374.4576" y="280.9728" style="stroke: #000000; stroke-width: 0.8"/>
      </g>
     </g>
     <g id="text_24">
      <!-- 0.1 -->
      <g transform="translate(381.4576 284.373581) scale(0.1 -0.1)">
       <use xlink:href="#Calibri-30"/>
       <use xlink:href="#Calibri-2e" x="50.683594"/>
       <use xlink:href="#Calibri-31" x="75.927734"/>
      </g>
     </g>
    </g>
    <g id="ytick_11">
     <g id="line2d_22">
      <g>
       <use xlink:href="#m4f73cbcb12" x="374.4576" y="254.3616" style="stroke: #000000; stroke-width: 0.8"/>
      </g>
     </g>
     <g id="text_25">
      <!-- 0.2 -->
      <g transform="translate(381.4576 257.762381) scale(0.1 -0.1)">
       <use xlink:href="#Calibri-30"/>
       <use xlink:href="#Calibri-2e" x="50.683594"/>
       <use xlink:href="#Calibri-32" x="75.927734"/>
      </g>
     </g>
    </g>
    <g id="ytick_12">
     <g id="line2d_23">
      <g>
       <use xlink:href="#m4f73cbcb12" x="374.4576" y="227.7504" style="stroke: #000000; stroke-width: 0.8"/>
      </g>
     </g>
     <g id="text_26">
      <!-- 0.3 -->
      <g transform="translate(381.4576 231.151181) scale(0.1 -0.1)">
       <use xlink:href="#Calibri-30"/>
       <use xlink:href="#Calibri-2e" x="50.683594"/>
       <use xlink:href="#Calibri-33" x="75.927734"/>
      </g>
     </g>
    </g>
    <g id="ytick_13">
     <g id="line2d_24">
      <g>
       <use xlink:href="#m4f73cbcb12" x="374.4576" y="201.1392" style="stroke: #000000; stroke-width: 0.8"/>
      </g>
     </g>
     <g id="text_27">
      <!-- 0.4 -->
      <g transform="translate(381.4576 204.539981) scale(0.1 -0.1)">
       <use xlink:href="#Calibri-30"/>
       <use xlink:href="#Calibri-2e" x="50.683594"/>
       <use xlink:href="#Calibri-34" x="75.927734"/>
      </g>
     </g>
    </g>
    <g id="ytick_14">
     <g id="line2d_25">
      <g>
       <use xlink:href="#m4f73cbcb12" x="374.4576" y="174.528" style="stroke: #000000; stroke-width: 0.8"/>
      </g>
     </g>
     <g id="text_28">
      <!-- 0.5 -->
      <g transform="translate(381.4576 177.928781) scale(0.1 -0.1)">
       <use xlink:href="#Calibri-30"/>
       <use xlink:href="#Calibri-2e" x="50.683594"/>
       <use xlink:href="#Calibri-35" x="75.927734"/>
      </g>
     </g>
    </g>
    <g id="ytick_15">
     <g id="line2d_26">
      <g>
       <use xlink:href="#m4f73cbcb12" x="374.4576" y="147.9168" style="stroke: #000000; stroke-width: 0.8"/>
      </g>
     </g>
     <g id="text_29">
      <!-- 0.6 -->
      <g transform="translate(381.4576 151.317581) scale(0.1 -0.1)">
       <use xlink:href="#Calibri-30"/>
       <use xlink:href="#Calibri-2e" x="50.683594"/>
       <use xlink:href="#Calibri-36" x="75.927734"/>
      </g>
     </g>
    </g>
    <g id="ytick_16">
     <g id="line2d_27">
      <g>
       <use xlink:href="#m4f73cbcb12" x="374.4576" y="121.3056" style="stroke: #000000; stroke-width: 0.8"/>
      </g>
     </g>
     <g id="text_30">
      <!-- 0.7 -->
      <g transform="translate(381.4576 124.706381) scale(0.1 -0.1)">
       <use xlink:href="#Calibri-30"/>
       <use xlink:href="#Calibri-2e" x="50.683594"/>
       <use xlink:href="#Calibri-37" x="75.927734"/>
      </g>
     </g>
    </g>
    <g id="ytick_17">
     <g id="line2d_28">
      <g>
       <use xlink:href="#m4f73cbcb12" x="374.4576" y="94.6944" style="stroke: #000000; stroke-width: 0.8"/>
      </g>
     </g>
     <g id="text_31">
      <!-- 0.8 -->
      <g transform="translate(381.4576 98.095181) scale(0.1 -0.1)">
       <use xlink:href="#Calibri-30"/>
       <use xlink:href="#Calibri-2e" x="50.683594"/>
       <use xlink:href="#Calibri-38" x="75.927734"/>
      </g>
     </g>
    </g>
    <g id="ytick_18">
     <g id="line2d_29">
      <g>
       <use xlink:href="#m4f73cbcb12" x="374.4576" y="68.0832" style="stroke: #000000; stroke-width: 0.8"/>
      </g>
     </g>
     <g id="text_32">
      <!-- 0.9 -->
      <g transform="translate(381.4576 71.483981) scale(0.1 -0.1)">
       <use xlink:href="#Calibri-30"/>
       <use xlink:href="#Calibri-2e" x="50.683594"/>
       <use xlink:href="#Calibri-39" x="75.927734"/>
      </g>
     </g>
    </g>
    <g id="ytick_19">
     <g id="line2d_30">
      <g>
       <use xlink:href="#m4f73cbcb12" x="374.4576" y="41.472" style="stroke: #000000; stroke-width: 0.8"/>
      </g>
     </g>
     <g id="text_33">
      <!-- 1.0 -->
      <g transform="translate(381.4576 44.872781) scale(0.1 -0.1)">
       <use xlink:href="#Calibri-31"/>
       <use xlink:href="#Calibri-2e" x="50.683594"/>
       <use xlink:href="#Calibri-30" x="75.927734"/>
      </g>
     </g>
    </g>
   </g>
   <g id="LineCollection_1"/>
   <g id="patch_8">
    <path d="M 361.152 307.584 
L 367.8048 307.584 
L 374.4576 307.584 
L 374.4576 41.472 
L 367.8048 41.472 
L 361.152 41.472 
L 361.152 307.584 
z
" style="fill: none; stroke: #000000; stroke-width: 0.8; stroke-linejoin: miter; stroke-linecap: square"/>
   </g>
   <g id="text_34">
    <!-- $\mathit{E}_{\mathrm{NF}}$/$\mathit{E}_{\mathrm{i}}$ -->
    <g transform="translate(353.6548 35.472) scale(0.1 -0.1)">
     <defs>
      <path id="DejaVuSans-Oblique-45" d="M 1081 4666 
L 4031 4666 
L 3928 4134 
L 1606 4134 
L 1338 2753 
L 3566 2753 
L 3463 2222 
L 1234 2222 
L 909 531 
L 3284 531 
L 3181 0 
L 172 0 
L 1081 4666 
z
" transform="scale(0.015625)"/>
      <path id="DejaVuSans-4e" d="M 628 4666 
L 1478 4666 
L 3547 763 
L 3547 4666 
L 4159 4666 
L 4159 0 
L 3309 0 
L 1241 3903 
L 1241 0 
L 628 0 
L 628 4666 
z
" transform="scale(0.015625)"/>
      <path id="DejaVuSans-46" d="M 628 4666 
L 3309 4666 
L 3309 4134 
L 1259 4134 
L 1259 2759 
L 3109 2759 
L 3109 2228 
L 1259 2228 
L 1259 0 
L 628 0 
L 628 4666 
z
" transform="scale(0.015625)"/>
      <path id="DejaVuSans-69" d="M 603 3500 
L 1178 3500 
L 1178 0 
L 603 0 
L 603 3500 
z
M 603 4863 
L 1178 4863 
L 1178 4134 
L 603 4134 
L 603 4863 
z
" transform="scale(0.015625)"/>
     </defs>
     <use xlink:href="#DejaVuSans-Oblique-45" transform="translate(0 0.09375)"/>
     <use xlink:href="#DejaVuSans-4e" transform="translate(63.183594 -16.3125) scale(0.7)"/>
     <use xlink:href="#DejaVuSans-46" transform="translate(115.546875 -16.3125) scale(0.7)"/>
     <use xlink:href="#Calibri-2f" transform="translate(158.544922 0.09375)"/>
     <use xlink:href="#DejaVuSans-Oblique-45" transform="translate(197.167969 0.09375)"/>
     <use xlink:href="#DejaVuSans-69" transform="translate(260.351562 -16.3125) scale(0.7)"/>
    </g>
   </g>
  </g>
 </g>
 <defs>
  <clipPath id="pe5c8eba3e8">
   <rect x="57.6" y="41.472" width="285.696" height="266.112"/>
  </clipPath>
  <clipPath id="pab9c7c2344">
   <rect x="361.152" y="41.472" width="13.3056" height="266.112"/>
  </clipPath>
 </defs>
</svg>
