<?xml version="1.0" encoding="utf-8" standalone="no"?>
<!DOCTYPE svg PUBLIC "-//W3C//DTD SVG 1.1//EN"
  "http://www.w3.org/Graphics/SVG/1.1/DTD/svg11.dtd">
<svg xmlns:xlink="http://www.w3.org/1999/xlink" width="460.8pt" height="345.6pt" viewBox="0 0 460.8 345.6" xmlns="http://www.w3.org/2000/svg" version="1.1">
 <metadata>
  <rdf:RDF xmlns:dc="http://purl.org/dc/elements/1.1/" xmlns:cc="http://creativecommons.org/ns#" xmlns:rdf="http://www.w3.org/1999/02/22-rdf-syntax-ns#">
   <cc:Work>
    <dc:type rdf:resource="http://purl.org/dc/dcmitype/StillImage"/>
    <dc:date>2024-01-22T08:40:33.023966</dc:date>
    <dc:format>image/svg+xml</dc:format>
    <dc:creator>
     <cc:Agent>
      <dc:title>Matplotlib v3.7.1, https://matplotlib.org/</dc:title>
     </cc:Agent>
    </dc:creator>
   </cc:Work>
  </rdf:RDF>
 </metadata>
 <defs>
  <style type="text/css">*{stroke-linejoin: round; stroke-linecap: butt}</style>
 </defs>
 <g id="figure_1">
  <g id="patch_1">
   <path d="M 0 345.6 
L 460.8 345.6 
L 460.8 0 
L 0 0 
z
" style="fill: #ffffff"/>
  </g>
  <g id="axes_1">
   <g id="patch_2">
    <path d="M 57.6 307.584 
L 343.296 307.584 
L 343.296 41.472 
L 57.6 41.472 
z
" style="fill: #ffffff"/>
   </g>
   <g id="PathCollection_1">
    <path clip-path="url(#p6340bb3cf7)" style="fill: #0000b6"/>
   </g>
   <g id="PathCollection_2">
    <path d="M 85.141461 41.472 
L 85.593189 42.363523 
L 85.636133 42.44628 
L 86.70204 44.530006 
L 86.8398 44.7984 
L 87.76418 46.583131 
L 88.058711 47.15052 
L 88.163068 47.341433 
L 88.582968 48.1248 
L 88.793416 48.53682 
L 88.911091 48.771739 
L 89.086908 49.09908 
L 89.954661 50.734842 
L 90.335567 51.4512 
L 90.937502 52.572389 
L 91.594976 53.795189 
L 91.597838 53.80044 
L 91.599409 53.80332 
L 91.602166 53.808427 
L 92.139236 54.7776 
L 92.311748 55.105123 
L 92.671013 55.75188 
L 93.260263 56.824016 
L 93.964699 58.104 
L 94.138384 58.416398 
L 94.318272 58.739689 
L 94.931841 59.827613 
L 95.28651 60.45612 
L 95.794296 61.364456 
L 95.808008 61.387552 
L 95.832964 61.4304 
L 95.875396 61.506575 
L 95.947781 61.635136 
L 96.389535 62.40468 
L 96.616246 62.803205 
L 97.003522 63.483674 
L 97.36707 64.113864 
L 97.737956 64.7568 
L 98.315292 65.746834 
L 99.109371 67.10892 
L 99.362416 67.546408 
L 99.687015 68.0832 
L 100.161868 68.901374 
L 100.250788 69.05748 
L 100.620961 69.678495 
L 101.652172 71.4096 
L 101.745362 71.564285 
L 102.338659 72.550136 
L 102.936074 73.538097 
L 103.33993 74.199916 
L 103.33993 71.4096 
L 103.33993 68.0832 
L 103.33993 64.7568 
L 103.33993 61.4304 
L 103.33993 58.104 
L 103.33993 54.7776 
L 103.33993 51.4512 
L 103.33993 48.1248 
L 103.33993 44.7984 
L 103.33993 41.472 
L 101.816218 41.472 
L 100.292506 41.472 
L 98.768794 41.472 
L 97.245082 41.472 
L 95.72137 41.472 
L 94.197658 41.472 
L 92.673946 41.472 
L 91.150234 41.472 
L 89.626522 41.472 
L 88.10281 41.472 
L 86.579098 41.472 
" clip-path="url(#p6340bb3cf7)" style="fill: #0018ff"/>
   </g>
   <g id="PathCollection_3">
    <path d="M 103.33993 74.199916 
L 102.936074 73.538097 
L 102.338659 72.550136 
L 101.745362 71.564285 
L 101.652172 71.4096 
L 100.620961 69.678495 
L 100.250788 69.05748 
L 100.161868 68.901374 
L 99.687015 68.0832 
L 99.362416 67.546408 
L 99.109371 67.10892 
L 98.315292 65.746834 
L 97.737956 64.7568 
L 97.36707 64.113864 
L 97.003522 63.483674 
L 96.616246 62.803205 
L 96.389535 62.40468 
L 95.947781 61.635136 
L 95.875396 61.506575 
L 95.832964 61.4304 
L 95.808008 61.387552 
L 95.794296 61.364456 
L 95.28651 60.45612 
L 94.931841 59.827613 
L 94.318272 58.739689 
L 94.138384 58.416398 
L 93.964699 58.104 
L 93.260263 56.824016 
L 92.671013 55.75188 
L 92.311748 55.105123 
L 92.139236 54.7776 
L 91.602166 53.808427 
L 91.599409 53.80332 
L 91.597838 53.80044 
L 91.594976 53.795189 
L 90.937502 52.572389 
L 90.335567 51.4512 
L 89.954661 50.734842 
L 89.086908 49.09908 
L 88.911091 48.771739 
L 88.793416 48.53682 
L 88.582968 48.1248 
L 88.163068 47.341433 
L 88.058711 47.15052 
L 87.76418 46.583131 
L 86.8398 44.7984 
L 86.70204 44.530006 
L 85.636133 42.44628 
L 85.593189 42.363523 
L 85.141461 41.472 
L 85.055386 41.472 
L 83.531674 41.472 
L 82.007962 41.472 
L 80.48425 41.472 
L 78.960538 41.472 
L 77.436826 41.472 
L 75.913114 41.472 
L 74.389402 41.472 
L 72.86569 41.472 
L 71.341978 41.472 
L 69.818266 41.472 
L 68.294554 41.472 
L 66.770842 41.472 
L 65.24713 41.472 
L 63.723418 41.472 
L 62.199706 41.472 
L 60.675994 41.472 
L 59.152282 41.472 
L 57.62857 41.472 
L 57.62857 44.7984 
L 57.62857 48.1248 
L 57.62857 51.4512 
L 57.62857 54.7776 
L 57.62857 58.104 
L 57.62857 61.4304 
L 57.62857 64.7568 
L 57.62857 67.083108 
L 57.845029 67.61065 
L 58.04381 68.0832 
L 58.345718 68.812548 
L 58.451187 69.05748 
L 59.301259 71.084369 
L 59.439912 71.4096 
L 60.295961 73.41254 
L 60.446855 73.76172 
L 60.571146 74.034288 
L 60.887298 74.736 
L 61.112384 75.273745 
L 61.246563 75.597894 
L 61.297352 75.71028 
L 62.269167 77.910759 
L 62.337111 78.0624 
L 63.311999 80.23076 
L 63.395432 80.41452 
L 63.54329 80.724318 
L 63.856732 81.3888 
L 64.252426 82.288276 
L 64.287844 82.36308 
L 65.312864 84.571696 
L 65.380314 84.7152 
L 66.372158 86.816441 
L 66.491618 87.06732 
L 66.635181 87.355127 
L 66.973723 88.0416 
L 67.363632 88.8834 
L 67.42925 89.01588 
L 68.430133 91.072019 
L 68.575825 91.368 
L 69.473831 93.183325 
L 69.741437 93.72012 
L 69.848548 93.925858 
L 70.244259 94.6944 
L 70.457854 95.131651 
L 70.5797 95.383702 
L 70.727141 95.66868 
L 71.618385 97.417377 
L 71.928949 98.0208 
L 72.614397 99.345222 
L 73.149938 100.37292 
L 73.41316 100.864391 
L 73.673363 101.3472 
L 73.818072 101.629756 
L 73.89944 101.790256 
L 74.186129 102.32148 
L 74.87474 103.614063 
L 75.444052 104.6736 
L 75.791256 105.315846 
L 76.165541 106.004006 
L 76.526445 106.661042 
L 76.72828 107.02572 
L 77.089588 107.686005 
L 77.19919 107.882475 
L 77.265139 108 
L 77.301111 108.067119 
L 77.321051 108.104691 
L 77.809924 108.97428 
L 78.196098 109.66884 
L 78.876496 110.883463 
L 79.002364 111.105956 
L 79.127701 111.3264 
L 79.881247 112.642808 
L 80.478023 113.67852 
L 80.846877 114.324889 
L 81.042738 114.6528 
L 81.593238 115.611471 
L 81.60211 115.62708 
L 82.246597 116.721483 
L 82.990507 117.9792 
L 83.296434 118.49275 
L 84.397929 120.33132 
L 84.471741 120.45553 
L 84.655365 120.749868 
L 84.998529 121.3056 
L 85.359308 121.908858 
L 85.552044 122.234329 
L 85.580336 122.27988 
L 86.771681 124.211572 
L 87.032169 124.632 
L 87.853304 125.947004 
L 88.50308 126.98412 
L 88.894188 127.596218 
L 89.126797 127.9584 
L 89.244351 128.147406 
L 89.306303 128.247963 
L 89.747169 128.93268 
L 90.304874 129.803895 
L 91.105686 131.050016 
L 91.174623 131.156256 
L 91.258245 131.2848 
L 92.091802 132.555672 
L 92.803277 133.63692 
L 93.155898 134.175387 
L 93.256595 134.323045 
L 93.45115 134.6112 
L 93.825073 135.180501 
L 94.092383 135.58548 
L 94.522515 136.22546 
L 95.675673 137.9376 
L 95.702964 137.977782 
L 95.815419 138.142918 
L 96.9041 139.734724 
L 97.284328 140.28972 
L 97.389491 140.439015 
L 97.965064 141.264 
L 98.271251 141.713911 
L 98.639225 142.23828 
L 99.368643 143.280876 
L 100.286487 144.5904 
L 100.291232 144.597111 
L 100.294711 144.602024 
L 101.218698 145.894839 
L 101.968449 146.94252 
L 102.331441 147.450901 
L 102.667711 147.9168 
L 103.078751 148.486976 
L 103.33993 148.842596 
L 103.33993 147.9168 
L 103.33993 144.5904 
L 103.33993 141.264 
L 103.33993 137.9376 
L 103.33993 134.6112 
L 103.33993 131.2848 
L 103.33993 127.9584 
L 103.33993 124.632 
L 103.33993 121.3056 
L 103.33993 117.9792 
L 103.33993 114.6528 
L 103.33993 111.3264 
L 103.33993 108 
L 103.33993 104.6736 
L 103.33993 101.3472 
L 103.33993 98.0208 
L 103.33993 94.6944 
L 103.33993 91.368 
L 103.33993 88.0416 
L 103.33993 84.7152 
L 103.33993 81.3888 
L 103.33993 78.0624 
L 103.33993 74.736 
" clip-path="url(#p6340bb3cf7)" style="fill: #0080ff"/>
   </g>
   <g id="PathCollection_4">
    <path d="M 103.33993 148.842596 
L 103.078751 148.486976 
L 102.667711 147.9168 
L 102.331441 147.450901 
L 101.968449 146.94252 
L 101.218698 145.894839 
L 100.294711 144.602024 
L 100.291232 144.597111 
L 100.286487 144.5904 
L 99.368643 143.280876 
L 98.639225 142.23828 
L 98.271251 141.713911 
L 97.965064 141.264 
L 97.389491 140.439015 
L 97.284328 140.28972 
L 96.9041 139.734724 
L 95.815419 138.142918 
L 95.702964 137.977782 
L 95.675673 137.9376 
L 94.522515 136.22546 
L 94.092383 135.58548 
L 93.825073 135.180501 
L 93.45115 134.6112 
L 93.256595 134.323045 
L 93.155898 134.175387 
L 92.803277 133.63692 
L 92.091802 132.555672 
L 91.258245 131.2848 
L 91.174623 131.156256 
L 91.105686 131.050016 
L 90.304874 129.803895 
L 89.747169 128.93268 
L 89.306303 128.247963 
L 89.244351 128.147406 
L 89.126797 127.9584 
L 88.894188 127.596218 
L 88.50308 126.98412 
L 87.853304 125.947004 
L 87.032169 124.632 
L 86.771681 124.211572 
L 85.580336 122.27988 
L 85.552044 122.234329 
L 85.359308 121.908858 
L 84.998529 121.3056 
L 84.655365 120.749868 
L 84.471741 120.45553 
L 84.397929 120.33132 
L 83.296434 118.49275 
L 82.990507 117.9792 
L 82.246597 116.721483 
L 81.60211 115.62708 
L 81.593238 115.611471 
L 81.042738 114.6528 
L 80.846877 114.324889 
L 80.478023 113.67852 
L 79.881247 112.642808 
L 79.127701 111.3264 
L 79.002364 111.105956 
L 78.876496 110.883463 
L 78.196098 109.66884 
L 77.809924 108.97428 
L 77.321051 108.104691 
L 77.301111 108.067119 
L 77.265139 108 
L 77.19919 107.882475 
L 77.089588 107.686005 
L 76.72828 107.02572 
L 76.526445 106.661042 
L 76.165541 106.004006 
L 75.791256 105.315846 
L 75.444052 104.6736 
L 74.87474 103.614063 
L 74.186129 102.32148 
L 73.89944 101.790256 
L 73.818072 101.629756 
L 73.673363 101.3472 
L 73.41316 100.864391 
L 73.149938 100.37292 
L 72.614397 99.345222 
L 71.928949 98.0208 
L 71.618385 97.417377 
L 70.727141 95.66868 
L 70.5797 95.383702 
L 70.457854 95.131651 
L 70.244259 94.6944 
L 69.848548 93.925858 
L 69.741437 93.72012 
L 69.473831 93.183325 
L 68.575825 91.368 
L 68.430133 91.072019 
L 67.42925 89.01588 
L 67.363632 88.8834 
L 66.973723 88.0416 
L 66.635181 87.355127 
L 66.491618 87.06732 
L 66.372158 86.816441 
L 65.380314 84.7152 
L 65.312864 84.571696 
L 64.287844 82.36308 
L 64.252426 82.288276 
L 63.856732 81.3888 
L 63.54329 80.724318 
L 63.395432 80.41452 
L 63.311999 80.23076 
L 62.337111 78.0624 
L 62.269167 77.910759 
L 61.297352 75.71028 
L 61.246563 75.597894 
L 61.112384 75.273745 
L 60.887298 74.736 
L 60.571146 74.034288 
L 60.446855 73.76172 
L 60.295961 73.41254 
L 59.439912 71.4096 
L 59.301259 71.084369 
L 58.451187 69.05748 
L 58.345718 68.812548 
L 58.04381 68.0832 
L 57.845029 67.61065 
L 57.62857 67.083108 
L 57.62857 68.0832 
L 57.62857 71.4096 
L 57.62857 74.736 
L 57.62857 78.0624 
L 57.62857 81.3888 
L 57.62857 84.7152 
L 57.62857 88.0416 
L 57.62857 91.368 
L 57.62857 94.6944 
L 57.62857 98.0208 
L 57.62857 101.3472 
L 57.62857 104.6736 
L 57.62857 108 
L 57.62857 111.3264 
L 57.62857 114.6528 
L 57.62857 117.9792 
L 57.62857 121.3056 
L 57.62857 124.632 
L 57.62857 127.9584 
L 57.62857 131.2848 
L 57.62857 132.200389 
L 57.915141 132.795161 
L 58.195453 133.373642 
L 58.325284 133.63692 
L 58.520996 134.04035 
L 58.801106 134.6112 
L 58.908308 134.831817 
L 59.285425 135.58548 
L 59.774631 136.578955 
L 60.455374 137.9376 
L 60.615434 138.256774 
L 60.808833 138.637724 
L 61.37283 139.742743 
L 61.656535 140.28972 
L 62.116099 141.188397 
L 62.155516 141.264 
L 62.169242 141.291547 
L 62.667043 142.23828 
L 62.990981 142.862976 
L 63.623384 144.063177 
L 63.770686 144.341272 
L 63.90411 144.5904 
L 64.628509 145.940905 
L 65.173811 146.94252 
L 65.550324 147.642631 
L 65.605111 147.739757 
L 65.704919 147.9168 
L 65.872884 148.226272 
L 66.146106 148.729714 
L 66.23509 148.89108 
L 66.283694 148.980287 
L 66.371669 149.139383 
L 66.966816 150.210327 
L 67.546759 151.2432 
L 67.958924 151.975909 
L 68.882538 153.59532 
L 69.047911 153.888365 
L 69.44926 154.5696 
L 69.902083 155.364618 
L 70.004168 155.54388 
L 70.200523 155.881332 
L 71.192465 157.5696 
L 71.360608 157.855328 
L 71.384842 157.896 
L 72.508711 159.777438 
L 72.792456 160.24812 
L 72.913551 160.445164 
L 73.391214 161.2224 
L 73.740966 161.808758 
L 73.981386 162.19668 
L 74.832567 163.58133 
L 75.434268 164.5488 
L 75.801403 165.137564 
L 76.12133 165.646191 
L 76.592532 166.391969 
L 76.917618 166.90092 
L 77.499553 167.818478 
L 77.512289 167.837879 
L 77.536774 167.8752 
L 77.673957 168.08963 
L 78.164472 168.84948 
L 78.368473 169.16773 
L 78.659979 169.617521 
L 79.125415 170.332623 
L 79.695471 171.2016 
L 80.160478 171.908423 
L 81.254086 173.55372 
L 81.369119 173.727843 
L 81.55392 173.998985 
L 81.914416 174.528 
L 82.31527 175.129584 
L 82.522524 175.440539 
L 82.564936 175.50228 
L 83.788666 177.293363 
L 84.175581 177.8544 
L 84.866035 178.85236 
L 85.386438 179.599192 
L 85.624197 179.939034 
L 85.812975 180.20652 
L 86.355173 180.978313 
L 86.454876 181.119365 
L 86.498295 181.1808 
L 86.529423 181.225719 
L 87.191522 182.15508 
L 87.474034 182.553473 
L 87.825251 183.044344 
L 88.26436 183.655756 
L 88.879838 184.5072 
L 89.337471 185.138223 
L 90.596168 186.85932 
L 90.638971 186.918077 
L 91.322594 187.8336 
L 91.682592 188.323883 
L 91.861851 188.567949 
L 92.042344 188.80788 
L 93.103199 190.222902 
L 93.811139 191.16 
L 94.120282 191.567802 
L 94.326286 191.837931 
L 95.004716 192.724519 
L 95.611735 193.51212 
L 96.098454 194.145416 
L 96.366232 194.4864 
L 97.031492 195.345598 
L 97.120596 195.46068 
L 97.58005 196.047367 
L 98.488687 197.201303 
L 98.843101 197.65058 
L 98.971906 197.8128 
L 100.038565 199.15118 
L 100.704065 199.981902 
L 100.779584 200.075865 
L 100.851597 200.16492 
L 101.156345 200.5425 
L 101.52133 200.993361 
L 101.63938 201.1392 
L 101.689487 201.201876 
L 101.713587 201.232005 
L 102.432032 202.11348 
L 102.727341 202.476536 
L 103.033485 202.8505 
L 103.33993 203.222788 
L 103.33993 201.1392 
L 103.33993 197.8128 
L 103.33993 194.4864 
L 103.33993 191.16 
L 103.33993 187.8336 
L 103.33993 184.5072 
L 103.33993 181.1808 
L 103.33993 177.8544 
L 103.33993 174.528 
L 103.33993 171.2016 
L 103.33993 167.8752 
L 103.33993 164.5488 
L 103.33993 161.2224 
L 103.33993 157.896 
L 103.33993 154.5696 
L 103.33993 151.2432 
" clip-path="url(#p6340bb3cf7)" style="fill: #00e4f8"/>
   </g>
   <g id="PathCollection_5">
    <path d="M 103.33993 203.222788 
L 103.033485 202.8505 
L 102.727341 202.476536 
L 102.432032 202.11348 
L 101.713587 201.232005 
L 101.689487 201.201876 
L 101.63938 201.1392 
L 101.52133 200.993361 
L 101.156345 200.5425 
L 100.851597 200.16492 
L 100.779584 200.075865 
L 100.704065 199.981902 
L 100.038565 199.15118 
L 98.971906 197.8128 
L 98.843101 197.65058 
L 98.488687 197.201303 
L 97.58005 196.047367 
L 97.120596 195.46068 
L 97.031492 195.345598 
L 96.366232 194.4864 
L 96.098454 194.145416 
L 95.611735 193.51212 
L 95.004716 192.724519 
L 94.326286 191.837931 
L 94.120282 191.567802 
L 93.811139 191.16 
L 93.103199 190.222902 
L 92.042344 188.80788 
L 91.861851 188.567949 
L 91.682592 188.323883 
L 91.322594 187.8336 
L 90.638971 186.918077 
L 90.596168 186.85932 
L 89.337471 185.138223 
L 88.879838 184.5072 
L 88.26436 183.655756 
L 87.825251 183.044344 
L 87.474034 182.553473 
L 87.191522 182.15508 
L 86.529423 181.225719 
L 86.498295 181.1808 
L 86.454876 181.119365 
L 86.355173 180.978313 
L 85.812975 180.20652 
L 85.624197 179.939034 
L 85.386438 179.599192 
L 84.866035 178.85236 
L 84.175581 177.8544 
L 83.788666 177.293363 
L 82.564936 175.50228 
L 82.522524 175.440539 
L 82.31527 175.129584 
L 81.914416 174.528 
L 81.55392 173.998985 
L 81.369119 173.727843 
L 81.254086 173.55372 
L 80.160478 171.908423 
L 79.695471 171.2016 
L 79.125415 170.332623 
L 78.659979 169.617521 
L 78.368473 169.16773 
L 78.164472 168.84948 
L 77.673957 168.08963 
L 77.536774 167.8752 
L 77.512289 167.837879 
L 77.499553 167.818478 
L 76.917618 166.90092 
L 76.592532 166.391969 
L 76.12133 165.646191 
L 75.801403 165.137564 
L 75.434268 164.5488 
L 74.832567 163.58133 
L 73.981386 162.19668 
L 73.740966 161.808758 
L 73.391214 161.2224 
L 72.913551 160.445164 
L 72.792456 160.24812 
L 72.508711 159.777438 
L 71.384842 157.896 
L 71.360608 157.855328 
L 71.192465 157.5696 
L 70.200523 155.881332 
L 70.004168 155.54388 
L 69.902083 155.364618 
L 69.44926 154.5696 
L 69.047911 153.888365 
L 68.882538 153.59532 
L 67.958924 151.975909 
L 67.546759 151.2432 
L 66.966816 150.210327 
L 66.371669 149.139383 
L 66.283694 148.980287 
L 66.23509 148.89108 
L 66.146106 148.729714 
L 65.872884 148.226272 
L 65.704919 147.9168 
L 65.605111 147.739757 
L 65.550324 147.642631 
L 65.173811 146.94252 
L 64.628509 145.940905 
L 63.90411 144.5904 
L 63.770686 144.341272 
L 63.623384 144.063177 
L 62.990981 142.862976 
L 62.667043 142.23828 
L 62.169242 141.291547 
L 62.155516 141.264 
L 62.116099 141.188397 
L 61.656535 140.28972 
L 61.37283 139.742743 
L 60.808833 138.637724 
L 60.615434 138.256774 
L 60.455374 137.9376 
L 59.774631 136.578955 
L 59.285425 135.58548 
L 58.908308 134.831817 
L 58.801106 134.6112 
L 58.520996 134.04035 
L 58.325284 133.63692 
L 58.195453 133.373642 
L 57.915141 132.795161 
L 57.62857 132.200389 
L 57.62857 134.6112 
L 57.62857 137.9376 
L 57.62857 141.264 
L 57.62857 144.5904 
L 57.62857 147.9168 
L 57.62857 151.2432 
L 57.62857 154.5696 
L 57.62857 157.896 
L 57.62857 161.2224 
L 57.62857 164.5488 
L 57.62857 167.8752 
L 57.62857 171.2016 
L 57.62857 174.528 
L 57.62857 177.8544 
L 57.62857 181.1808 
L 57.62857 184.5072 
L 57.62857 187.8336 
L 57.62857 188.633803 
L 57.985046 189.281208 
L 59.032807 191.16 
L 59.098276 191.277899 
L 59.658361 192.264816 
L 60.263866 193.332097 
L 60.367596 193.51212 
L 60.42395 193.608184 
L 60.935671 194.4864 
L 61.365951 195.240336 
L 61.496374 195.46068 
L 62.49575 197.166508 
L 62.882149 197.8128 
L 63.520162 198.884049 
L 64.112584 199.86388 
L 64.223469 200.047542 
L 64.295727 200.16492 
L 64.450711 200.419027 
L 64.892137 201.1392 
L 65.016957 201.347337 
L 65.491821 202.11348 
L 65.968767 202.890201 
L 66.690655 204.042979 
L 66.813685 204.239796 
L 66.956861 204.4656 
L 67.732248 205.693164 
L 68.456098 206.81772 
L 68.791256 207.342849 
L 68.891625 207.496713 
L 69.086446 207.792 
L 69.459865 208.368315 
L 69.716153 208.76628 
L 70.14106 209.41713 
L 71.26739 211.1184 
L 71.311401 211.185152 
L 71.503755 211.471575 
L 72.513178 212.976296 
L 72.849255 213.47052 
L 72.965579 213.641833 
L 73.517209 214.4448 
L 73.848177 214.934211 
L 74.18466 215.41908 
L 74.954755 216.536982 
L 75.819966 217.7712 
L 75.893209 217.876106 
L 75.947603 217.952973 
L 76.800087 219.161258 
L 77.490433 220.12332 
L 77.891677 220.686294 
L 77.991031 220.823513 
L 78.191667 221.0976 
L 78.61137 221.678482 
L 78.894087 222.07188 
L 79.30058 222.631823 
L 80.262435 223.939758 
L 80.535624 224.311846 
L 80.619307 224.424 
L 81.725552 225.912427 
L 82.37562 226.77612 
L 82.865147 227.420763 
L 83.114172 227.7504 
L 83.282862 227.975392 
L 83.856219 228.72468 
L 84.326088 229.342522 
L 84.856566 230.028933 
L 85.175588 230.44328 
L 85.66933 231.0768 
L 86.241405 231.814012 
L 87.514364 233.42892 
L 87.573326 233.504154 
L 87.80519 233.796825 
L 88.290878 234.4032 
L 88.666322 234.878075 
L 88.848879 235.106396 
L 89.06783 235.37748 
L 90.109756 236.674657 
L 90.970013 237.7296 
L 91.116089 237.909556 
L 91.204885 238.017635 
L 92.06199 239.065555 
L 92.905487 240.08172 
L 93.267091 240.519639 
L 93.41044 240.69176 
L 93.717038 241.056 
L 94.45129 241.935002 
L 94.530517 242.03028 
L 94.62297 242.140812 
L 94.779052 242.325237 
L 96.000642 243.772723 
L 96.522589 244.3824 
L 97.113499 245.075899 
L 97.450944 245.467384 
L 97.986037 246.091228 
L 98.545608 246.73452 
L 99.116674 247.394223 
L 99.392729 247.7088 
L 99.868685 248.252761 
L 100.243605 248.68308 
L 100.650576 249.148009 
L 101.27469 249.852996 
L 101.987654 250.660938 
L 102.322466 251.0352 
L 103.161161 251.97739 
L 103.33993 252.177249 
L 103.33993 251.0352 
L 103.33993 247.7088 
L 103.33993 244.3824 
L 103.33993 241.056 
L 103.33993 237.7296 
L 103.33993 234.4032 
L 103.33993 231.0768 
L 103.33993 227.7504 
L 103.33993 224.424 
L 103.33993 221.0976 
L 103.33993 217.7712 
L 103.33993 214.4448 
L 103.33993 211.1184 
L 103.33993 207.792 
L 103.33993 204.4656 
" clip-path="url(#p6340bb3cf7)" style="fill: #53ffa4"/>
   </g>
   <g id="PathCollection_6">
    <path d="M 103.33993 252.177249 
L 103.161161 251.97739 
L 102.322466 251.0352 
L 101.987654 250.660938 
L 101.27469 249.852996 
L 100.650576 249.148009 
L 100.243605 248.68308 
L 99.868685 248.252761 
L 99.392729 247.7088 
L 99.116674 247.394223 
L 98.545608 246.73452 
L 97.986037 246.091228 
L 97.450944 245.467384 
L 97.113499 245.075899 
L 96.522589 244.3824 
L 96.000642 243.772723 
L 94.779052 242.325237 
L 94.62297 242.140812 
L 94.530517 242.03028 
L 94.45129 241.935002 
L 93.717038 241.056 
L 93.41044 240.69176 
L 93.267091 240.519639 
L 92.905487 240.08172 
L 92.06199 239.065555 
L 91.204885 238.017635 
L 91.116089 237.909556 
L 90.970013 237.7296 
L 90.109756 236.674657 
L 89.06783 235.37748 
L 88.848879 235.106396 
L 88.666322 234.878075 
L 88.290878 234.4032 
L 87.80519 233.796825 
L 87.573326 233.504154 
L 87.514364 233.42892 
L 86.241405 231.814012 
L 85.66933 231.0768 
L 85.175588 230.44328 
L 84.856566 230.028933 
L 84.326088 229.342522 
L 83.856219 228.72468 
L 83.282862 227.975392 
L 83.114172 227.7504 
L 82.865147 227.420763 
L 82.37562 226.77612 
L 81.725552 225.912427 
L 80.619307 224.424 
L 80.535624 224.311846 
L 80.262435 223.939758 
L 79.30058 222.631823 
L 78.894087 222.07188 
L 78.61137 221.678482 
L 78.191667 221.0976 
L 77.991031 220.823513 
L 77.891677 220.686294 
L 77.490433 220.12332 
L 76.800087 219.161258 
L 75.947603 217.952973 
L 75.893209 217.876106 
L 75.819966 217.7712 
L 74.954755 216.536982 
L 74.18466 215.41908 
L 73.848177 214.934211 
L 73.517209 214.4448 
L 72.965579 213.641833 
L 72.849255 213.47052 
L 72.513178 212.976296 
L 71.503755 211.471575 
L 71.311401 211.185152 
L 71.26739 211.1184 
L 70.14106 209.41713 
L 69.716153 208.76628 
L 69.459865 208.368315 
L 69.086446 207.792 
L 68.891625 207.496713 
L 68.791256 207.342849 
L 68.456098 206.81772 
L 67.732248 205.693164 
L 66.956861 204.4656 
L 66.813685 204.239796 
L 66.690655 204.042979 
L 65.968767 202.890201 
L 65.491821 202.11348 
L 65.016957 201.347337 
L 64.892137 201.1392 
L 64.450711 200.419027 
L 64.295727 200.16492 
L 64.223469 200.047542 
L 64.112584 199.86388 
L 63.520162 198.884049 
L 62.882149 197.8128 
L 62.49575 197.166508 
L 61.496374 195.46068 
L 61.365951 195.240336 
L 60.935671 194.4864 
L 60.42395 193.608184 
L 60.367596 193.51212 
L 60.263866 193.332097 
L 59.658361 192.264816 
L 59.098276 191.277899 
L 59.032807 191.16 
L 57.985046 189.281208 
L 57.62857 188.633803 
L 57.62857 191.16 
L 57.62857 194.4864 
L 57.62857 197.8128 
L 57.62857 201.1392 
L 57.62857 204.4656 
L 57.62857 207.792 
L 57.62857 211.1184 
L 57.62857 214.4448 
L 57.62857 217.7712 
L 57.62857 221.0976 
L 57.62857 224.424 
L 57.62857 227.7504 
L 57.62857 231.0768 
L 57.62857 234.4032 
L 57.62857 237.7296 
L 57.62857 241.056 
L 57.62857 244.3824 
L 57.62857 247.7088 
L 57.62857 247.827774 
L 57.847905 248.187628 
L 58.12257 248.639933 
L 58.149355 248.68308 
L 59.340126 250.625118 
L 59.599101 251.0352 
L 60.424363 252.361406 
L 61.07715 253.38732 
L 61.087749 253.404397 
L 61.698884 254.3616 
L 61.880928 254.649859 
L 62.324633 255.33588 
L 62.879361 256.204251 
L 63.669903 257.405956 
L 63.752771 257.533294 
L 63.855667 257.688 
L 64.67441 258.938299 
L 65.417032 260.04012 
L 65.758102 260.552346 
L 66.072439 261.0144 
L 66.628018 261.8386 
L 66.731951 261.98868 
L 67.110671 262.549749 
L 68.191974 264.116859 
L 68.315013 264.296136 
L 68.346538 264.3408 
L 69.502467 266.0052 
L 69.990574 266.69292 
L 70.32734 267.165402 
L 70.680364 267.6672 
L 70.937796 268.032687 
L 71.374866 268.64148 
L 72.009463 269.53642 
L 72.793027 270.610638 
L 72.908055 270.770316 
L 73.072387 270.9936 
L 73.878763 272.10837 
L 74.799164 273.34572 
L 75.065677 273.708467 
L 75.52281 274.32 
L 76.189715 275.210362 
L 76.251799 275.29428 
L 76.33747 275.409854 
L 76.526824 275.659784 
L 77.658058 277.163429 
L 78.031523 277.6464 
L 78.774806 278.625289 
L 79.266501 279.258961 
L 79.566225 279.65053 
L 79.839937 279.99852 
L 80.55036 280.913018 
L 80.597512 280.9728 
L 80.873589 281.324866 
L 81.359787 281.94708 
L 81.48645 282.111306 
L 81.626288 282.287612 
L 82.240571 283.073246 
L 83.220013 284.2992 
L 83.416679 284.550244 
L 83.949929 285.212288 
L 84.70323 286.155219 
L 85.108147 286.65132 
L 85.445403 287.064921 
L 85.8974 287.6256 
L 86.090982 287.867002 
L 86.185399 287.981608 
L 86.692426 288.59988 
L 87.308052 289.360627 
L 87.946493 290.128144 
L 88.200342 290.43796 
L 88.630627 290.952 
L 89.269591 291.731212 
L 90.595232 293.30412 
L 90.641891 293.360237 
L 90.885987 293.65552 
L 91.414832 294.2784 
L 91.78375 294.718655 
L 91.960275 294.923747 
L 92.241643 295.25268 
L 93.22016 296.412365 
L 94.18184 297.521434 
L 94.207721 297.551762 
L 94.25396 297.6048 
L 95.208723 298.723953 
L 96.28959 299.95692 
L 96.512998 300.215357 
L 97.1386 300.9312 
L 97.859992 301.752998 
L 97.995263 301.90548 
L 99.210031 303.294339 
L 100.075752 304.2576 
L 100.253995 304.460567 
L 100.351654 304.569339 
L 101.221765 305.555344 
L 102.177819 306.60972 
L 102.497746 306.967717 
L 103.056321 307.584 
L 103.33993 307.584 
L 103.33993 304.2576 
L 103.33993 300.9312 
L 103.33993 297.6048 
L 103.33993 294.2784 
L 103.33993 290.952 
L 103.33993 287.6256 
L 103.33993 284.2992 
L 103.33993 280.9728 
L 103.33993 277.6464 
L 103.33993 274.32 
L 103.33993 270.9936 
L 103.33993 267.6672 
L 103.33993 264.3408 
L 103.33993 261.0144 
L 103.33993 257.688 
L 103.33993 254.3616 
" clip-path="url(#p6340bb3cf7)" style="fill: #a4ff53"/>
   </g>
   <g id="PathCollection_7">
    <path d="M 103.056321 307.584 
L 102.497746 306.967717 
L 102.177819 306.60972 
L 101.221765 305.555344 
L 100.351654 304.569339 
L 100.253995 304.460567 
L 100.075752 304.2576 
L 99.210031 303.294339 
L 97.995263 301.90548 
L 97.859992 301.752998 
L 97.1386 300.9312 
L 96.512998 300.215357 
L 96.28959 299.95692 
L 95.208723 298.723953 
L 94.25396 297.6048 
L 94.207721 297.551762 
L 94.18184 297.521434 
L 93.22016 296.412365 
L 92.241643 295.25268 
L 91.960275 294.923747 
L 91.78375 294.718655 
L 91.414832 294.2784 
L 90.885987 293.65552 
L 90.641891 293.360237 
L 90.595232 293.30412 
L 89.269591 291.731212 
L 88.630627 290.952 
L 88.200342 290.43796 
L 87.946493 290.128144 
L 87.308052 289.360627 
L 86.692426 288.59988 
L 86.185399 287.981608 
L 86.090982 287.867002 
L 85.8974 287.6256 
L 85.445403 287.064921 
L 85.108147 286.65132 
L 84.70323 286.155219 
L 83.949929 285.212288 
L 83.416679 284.550244 
L 83.220013 284.2992 
L 82.240571 283.073246 
L 81.626288 282.287612 
L 81.48645 282.111306 
L 81.359787 281.94708 
L 80.873589 281.324866 
L 80.597512 280.9728 
L 80.55036 280.913018 
L 79.839937 279.99852 
L 79.566225 279.65053 
L 79.266501 279.258961 
L 78.774806 278.625289 
L 78.031523 277.6464 
L 77.658058 277.163429 
L 76.526824 275.659784 
L 76.33747 275.409854 
L 76.251799 275.29428 
L 76.189715 275.210362 
L 75.52281 274.32 
L 75.065677 273.708467 
L 74.799164 273.34572 
L 73.878763 272.10837 
L 73.072387 270.9936 
L 72.908055 270.770316 
L 72.793027 270.610638 
L 72.009463 269.53642 
L 71.374866 268.64148 
L 70.937796 268.032687 
L 70.680364 267.6672 
L 70.32734 267.165402 
L 69.990574 266.69292 
L 69.502467 266.0052 
L 68.346538 264.3408 
L 68.315013 264.296136 
L 68.191974 264.116859 
L 67.110671 262.549749 
L 66.731951 261.98868 
L 66.628018 261.8386 
L 66.072439 261.0144 
L 65.758102 260.552346 
L 65.417032 260.04012 
L 64.67441 258.938299 
L 63.855667 257.688 
L 63.752771 257.533294 
L 63.669903 257.405956 
L 62.879361 256.204251 
L 62.324633 255.33588 
L 61.880928 254.649859 
L 61.698884 254.3616 
L 61.087749 253.404397 
L 61.07715 253.38732 
L 60.424363 252.361406 
L 59.599101 251.0352 
L 59.340126 250.625118 
L 58.149355 248.68308 
L 58.12257 248.639933 
L 57.847905 248.187628 
L 57.62857 247.827774 
L 57.62857 251.0352 
L 57.62857 254.3616 
L 57.62857 257.688 
L 57.62857 261.0144 
L 57.62857 264.3408 
L 57.62857 267.6672 
L 57.62857 270.9936 
L 57.62857 274.32 
L 57.62857 277.6464 
L 57.62857 280.9728 
L 57.62857 284.2992 
L 57.62857 287.6256 
L 57.62857 290.952 
L 57.62857 294.2784 
L 57.62857 297.6048 
L 57.62857 300.9312 
L 57.62857 304.2576 
L 57.62857 307.584 
L 59.152282 307.584 
L 60.675994 307.584 
L 62.199706 307.584 
L 63.723418 307.584 
L 65.24713 307.584 
L 66.770842 307.584 
L 68.294554 307.584 
L 69.818266 307.584 
L 71.341978 307.584 
L 72.86569 307.584 
L 74.389402 307.584 
L 75.913114 307.584 
L 77.436826 307.584 
L 78.960538 307.584 
L 80.48425 307.584 
L 82.007962 307.584 
L 83.531674 307.584 
L 85.055386 307.584 
L 86.579098 307.584 
L 88.10281 307.584 
L 89.626522 307.584 
L 91.150234 307.584 
L 92.673946 307.584 
L 94.197658 307.584 
L 95.72137 307.584 
L 97.245082 307.584 
L 98.768794 307.584 
L 100.292506 307.584 
L 101.816218 307.584 
" clip-path="url(#p6340bb3cf7)" style="fill: #f8f500"/>
   </g>
   <g id="PathCollection_8">
    <path clip-path="url(#p6340bb3cf7)" style="fill: #ff9400"/>
   </g>
   <g id="PathCollection_9">
    <path clip-path="url(#p6340bb3cf7)" style="fill: #ff3800"/>
   </g>
   <g id="PathCollection_10">
    <path clip-path="url(#p6340bb3cf7)" style="fill: #b60000"/>
   </g>
   <g id="PathCollection_11">
    <path d="M 171.973975 41.472 
L 172.281777 41.9373 
L 173.828685 44.07008 
L 176.0249 47.363925 
L 178.000985 50.3424 
L 180.187492 53.554392 
L 182.258272 56.61472 
L 182.993244 57.598416 
L 184.295164 59.2128 
L 184.983861 60.333015 
L 185.387157 61.077973 
L 185.930345 61.81088 
L 189.938959 67.598145 
L 190.268841 68.0832 
L 192.842172 71.74967 
L 194.711666 74.35552 
L 194.830417 74.532423 
L 195.616106 75.434367 
L 196.799971 76.9536 
L 198.023145 78.855839 
L 198.415658 79.55168 
L 199.436448 80.94187 
L 202.956928 85.824 
L 204.185232 87.468317 
L 207.539095 92.09632 
L 208.459515 93.435377 
L 208.866923 93.904679 
L 209.477063 94.6944 
L 210.171213 95.807911 
L 211.087531 97.146295 
L 211.200505 97.29248 
L 211.293959 97.419193 
L 211.642133 97.907681 
L 214.47134 101.73709 
L 215.786586 103.5648 
L 218.530756 107.229727 
L 220.401912 109.83712 
L 222.114475 112.326592 
L 222.200063 112.4352 
L 222.33721 112.644909 
L 224.159696 115.03328 
L 225.694569 117.120238 
L 228.632086 121.3056 
L 229.514496 122.51045 
L 231.468672 125.270632 
L 232.795337 127.079836 
L 233.140944 127.57792 
L 233.491046 128.100019 
L 234.350461 129.253958 
L 235.098907 130.176 
L 235.531233 130.804917 
L 235.775803 131.214916 
L 236.923576 132.77408 
L 239.939378 136.992015 
L 241.322331 139.0464 
L 244.470919 143.513267 
L 245.690227 145.31872 
L 246.090667 145.890239 
L 247.654329 147.9168 
L 248.587864 149.323434 
L 249.113949 150.249935 
L 249.296672 150.51488 
L 251.458598 153.72384 
L 253.573911 156.7872 
L 253.874989 157.202618 
L 257.822201 163.05952 
L 258.319606 163.812234 
L 259.63093 165.6576 
L 261.069134 167.984785 
L 261.209315 168.25568 
L 263.450236 171.614088 
L 265.288321 174.528 
L 267.459539 177.797922 
L 269.280396 180.80032 
L 270.749649 183.259446 
L 270.786954 183.313143 
L 270.836745 183.3984 
L 270.967168 183.636087 
L 272.475218 185.99648 
L 273.986313 188.386518 
L 276.209632 192.2688 
L 277.64207 194.639669 
L 279.844993 198.54112 
L 280.435683 199.60073 
L 281.417915 201.1392 
L 282.068605 202.272298 
L 282.431427 203.0463 
L 282.806316 203.73728 
L 285.542735 208.814904 
L 286.217099 210.0096 
L 286.381537 210.285115 
L 289.558458 216.28192 
L 290.101127 217.305779 
L 290.927422 218.88 
L 292.112288 221.367098 
L 292.173787 221.47808 
L 292.243151 221.60261 
L 292.955412 223.061764 
L 294.96705 227.117134 
L 295.253967 227.7504 
L 297.865633 233.182151 
L 298.209815 234.02272 
L 298.46565 234.643246 
L 299.423684 236.6208 
L 299.798227 237.371549 
L 300.004053 237.900064 
L 300.567344 239.21888 
L 303.134006 245.149735 
L 303.256893 245.4912 
L 303.572043 246.312678 
L 305.850429 251.76352 
L 306.289881 252.78769 
L 306.580113 253.42875 
L 306.893149 254.3616 
L 307.248887 255.460472 
L 307.721677 256.58541 
L 307.883305 256.95968 
L 308.100974 257.447605 
L 310.232756 263.232 
L 310.582311 264.117757 
L 312.459492 269.50432 
L 312.542155 269.689478 
L 313.341396 272.1024 
L 314.109979 274.327383 
L 314.211722 274.70048 
L 314.643743 276.186128 
L 316.216817 280.9728 
L 316.998982 283.178541 
L 318.096421 287.24512 
L 318.843468 289.766775 
L 318.853707 289.803943 
L 318.868215 289.8432 
L 318.888852 289.899025 
L 319.574416 292.44128 
L 320.852515 296.696541 
L 321.282684 298.7136 
L 322.071127 302.066044 
L 322.863252 304.98592 
L 323.095625 305.730347 
L 323.493239 307.584 
L 327.10656 307.584 
L 335.20128 307.584 
L 343.296 307.584 
L 343.296 298.7136 
L 343.296 289.8432 
L 343.296 280.9728 
L 343.296 272.1024 
L 343.296 263.232 
L 343.296 254.3616 
L 343.296 245.4912 
L 343.296 236.6208 
L 343.296 227.7504 
L 343.296 218.88 
L 343.296 210.0096 
L 343.296 201.1392 
L 343.296 192.2688 
L 343.296 183.3984 
L 343.296 174.528 
L 343.296 165.6576 
L 343.296 156.7872 
L 343.296 147.9168 
L 343.296 139.0464 
L 343.296 130.176 
L 343.296 121.3056 
L 343.296 112.4352 
L 343.296 103.5648 
L 343.296 94.6944 
L 343.296 85.824 
L 343.296 76.9536 
L 343.296 68.0832 
L 343.296 59.2128 
L 343.296 50.3424 
L 343.296 41.472 
L 335.20128 41.472 
L 327.10656 41.472 
L 319.01184 41.472 
L 310.91712 41.472 
L 302.8224 41.472 
L 294.72768 41.472 
L 286.63296 41.472 
L 278.53824 41.472 
L 270.44352 41.472 
L 262.3488 41.472 
L 254.25408 41.472 
L 246.15936 41.472 
L 238.06464 41.472 
L 229.96992 41.472 
L 221.8752 41.472 
L 213.78048 41.472 
L 205.68576 41.472 
L 197.59104 41.472 
L 189.49632 41.472 
L 181.4016 41.472 
L 173.30688 41.472 
" clip-path="url(#p6340bb3cf7)" style="fill: #0000b6"/>
   </g>
   <g id="PathCollection_12">
    <path d="M 323.493239 307.584 
L 323.095625 305.730347 
L 322.863252 304.98592 
L 322.071127 302.066044 
L 321.282684 298.7136 
L 320.852515 296.696541 
L 319.574416 292.44128 
L 318.888852 289.899025 
L 318.868215 289.8432 
L 318.853707 289.803943 
L 318.843468 289.766775 
L 318.096421 287.24512 
L 316.998982 283.178541 
L 316.216817 280.9728 
L 314.643743 276.186128 
L 314.211722 274.70048 
L 314.109979 274.327383 
L 313.341396 272.1024 
L 312.542155 269.689478 
L 312.459492 269.50432 
L 310.582311 264.117757 
L 310.232756 263.232 
L 308.100974 257.447605 
L 307.883305 256.95968 
L 307.721677 256.58541 
L 307.248887 255.460472 
L 306.893149 254.3616 
L 306.580113 253.42875 
L 306.289881 252.78769 
L 305.850429 251.76352 
L 303.572043 246.312678 
L 303.256893 245.4912 
L 303.134006 245.149735 
L 300.567344 239.21888 
L 300.004053 237.900064 
L 299.798227 237.371549 
L 299.423684 236.6208 
L 298.46565 234.643246 
L 298.209815 234.02272 
L 297.865633 233.182151 
L 295.253967 227.7504 
L 294.96705 227.117134 
L 292.955412 223.061764 
L 292.243151 221.60261 
L 292.173787 221.47808 
L 292.112288 221.367098 
L 290.927422 218.88 
L 290.101127 217.305779 
L 289.558458 216.28192 
L 286.381537 210.285115 
L 286.217099 210.0096 
L 285.542735 208.814904 
L 282.806316 203.73728 
L 282.431427 203.0463 
L 282.068605 202.272298 
L 281.417915 201.1392 
L 280.435683 199.60073 
L 279.844993 198.54112 
L 277.64207 194.639669 
L 276.209632 192.2688 
L 273.986313 188.386518 
L 272.475218 185.99648 
L 270.967168 183.636087 
L 270.836745 183.3984 
L 270.786954 183.313143 
L 270.749649 183.259446 
L 269.280396 180.80032 
L 267.459539 177.797922 
L 265.288321 174.528 
L 263.450236 171.614088 
L 261.209315 168.25568 
L 261.069134 167.984785 
L 259.63093 165.6576 
L 258.319606 163.812234 
L 257.822201 163.05952 
L 253.874989 157.202618 
L 253.573911 156.7872 
L 251.458598 153.72384 
L 249.296672 150.51488 
L 249.113949 150.249935 
L 248.587864 149.323434 
L 247.654329 147.9168 
L 246.090667 145.890239 
L 245.690227 145.31872 
L 244.470919 143.513267 
L 241.322331 139.0464 
L 239.939378 136.992015 
L 236.923576 132.77408 
L 235.775803 131.214916 
L 235.531233 130.804917 
L 235.098907 130.176 
L 234.350461 129.253958 
L 233.491046 128.100019 
L 233.140944 127.57792 
L 232.795337 127.079836 
L 231.468672 125.270632 
L 229.514496 122.51045 
L 228.632086 121.3056 
L 225.694569 117.120238 
L 224.159696 115.03328 
L 222.33721 112.644909 
L 222.200063 112.4352 
L 222.114475 112.326592 
L 220.401912 109.83712 
L 218.530756 107.229727 
L 215.786586 103.5648 
L 214.47134 101.73709 
L 211.642133 97.907681 
L 211.293959 97.419193 
L 211.200505 97.29248 
L 211.087531 97.146295 
L 210.171213 95.807911 
L 209.477063 94.6944 
L 208.866923 93.904679 
L 208.459515 93.435377 
L 207.539095 92.09632 
L 204.185232 87.468317 
L 202.956928 85.824 
L 199.436448 80.94187 
L 198.415658 79.55168 
L 198.023145 78.855839 
L 196.799971 76.9536 
L 195.616106 75.434367 
L 194.830417 74.532423 
L 194.711666 74.35552 
L 192.842172 71.74967 
L 190.268841 68.0832 
L 189.938959 67.598145 
L 185.930345 61.81088 
L 185.387157 61.077973 
L 184.983861 60.333015 
L 184.295164 59.2128 
L 182.993244 57.598416 
L 182.258272 56.61472 
L 180.187492 53.554392 
L 178.000985 50.3424 
L 176.0249 47.363925 
L 173.828685 44.07008 
L 172.281777 41.9373 
L 171.973975 41.472 
L 165.21216 41.472 
L 157.11744 41.472 
L 149.02272 41.472 
L 140.928 41.472 
L 132.83328 41.472 
L 124.73856 41.472 
L 116.64384 41.472 
L 108.54912 41.472 
L 100.4544 41.472 
L 100.4544 50.3424 
L 100.4544 59.2128 
L 100.4544 68.0832 
L 100.4544 69.370526 
L 101.79492 71.62962 
L 103.205113 73.939299 
L 103.472534 74.35552 
L 103.689974 74.748006 
L 105.124597 76.9536 
L 105.854465 78.176719 
L 106.818572 79.55168 
L 109.819159 84.432259 
L 110.715654 85.824 
L 114.460129 91.601132 
L 114.789497 92.09632 
L 114.910436 92.254575 
L 116.883443 94.6944 
L 117.855873 96.403022 
L 118.320481 97.29248 
L 118.769812 97.94042 
L 122.750424 103.5648 
L 123.624747 104.785345 
L 127.334383 109.83712 
L 128.063443 110.926017 
L 129.361826 112.4352 
L 130.982941 114.904054 
L 131.060846 115.03328 
L 133.834451 118.656945 
L 135.878385 121.3056 
L 138.21798 124.275309 
L 140.839651 127.57792 
L 142.306854 129.55013 
L 142.525035 129.779537 
L 142.873254 130.176 
L 143.288783 130.762063 
L 143.841811 131.498595 
L 144.918227 132.77408 
L 145.725969 133.788663 
L 148.209141 136.894029 
L 149.326128 138.243717 
L 149.989065 139.0464 
L 153.423956 143.093813 
L 155.299866 145.31872 
L 157.320593 147.824588 
L 157.407227 147.9168 
L 157.475634 148.005721 
L 157.570665 148.122522 
L 159.700812 150.51488 
L 161.220566 152.29089 
L 165.032214 156.7872 
L 165.157827 156.930941 
L 165.350635 157.153544 
L 169.127334 161.367253 
L 170.615927 163.05952 
L 172.537943 165.308575 
L 172.865731 165.6576 
L 172.984646 165.803864 
L 175.249774 168.25568 
L 177.128028 170.340689 
L 180.820326 174.528 
L 181.231384 174.978315 
L 181.819604 175.633852 
L 185.181311 179.256497 
L 186.571712 180.80032 
L 188.454781 182.92564 
L 188.908131 183.3984 
L 189.01385 183.518173 
L 189.072961 183.590565 
L 191.337893 185.99648 
L 193.296166 188.104833 
L 197.040172 192.2688 
L 197.432326 192.688686 
L 197.974879 193.284267 
L 201.419108 196.944306 
L 202.861773 198.54112 
L 204.858027 200.763487 
L 205.219154 201.1392 
L 205.352733 201.290363 
L 207.653509 203.73728 
L 209.556462 205.767986 
L 213.362509 210.0096 
L 213.660127 210.328 
L 214.073569 210.784983 
L 217.660007 214.628716 
L 219.124435 216.28192 
L 221.136279 218.544599 
L 221.318354 218.741763 
L 221.452596 218.88 
L 221.530897 218.965473 
L 221.574068 219.016685 
L 223.833682 221.47808 
L 225.727497 223.528955 
L 229.417422 227.7504 
L 229.808151 228.178369 
L 230.376991 228.827329 
L 233.710008 232.522317 
L 234.978885 234.02272 
L 236.658275 235.982443 
L 236.984608 236.352683 
L 237.234272 236.6208 
L 237.38587 236.789304 
L 237.46957 236.890906 
L 239.500954 239.21888 
L 241.61312 241.602685 
L 244.831698 245.4912 
L 245.756283 246.557562 
L 247.244351 248.361606 
L 249.35708 250.857457 
L 250.065253 251.76352 
L 250.941358 252.857936 
L 251.636442 253.711773 
L 252.19965 254.3616 
L 252.761768 255.038969 
L 254.303008 256.95968 
L 256.995415 260.227975 
L 259.269162 263.232 
L 261.357069 265.855682 
L 264.088462 269.50432 
L 264.196109 269.634298 
L 266.034896 272.1024 
L 267.170517 273.588035 
L 267.95636 274.70048 
L 271.622344 279.681014 
L 272.476015 280.9728 
L 276.409836 286.603613 
L 276.825061 287.24512 
L 277.438469 288.106709 
L 278.524732 289.8432 
L 280.15141 292.253177 
L 280.289636 292.44128 
L 280.689215 293.023073 
L 284.29339 298.7136 
L 285.284304 300.191492 
L 288.098851 304.98592 
L 289.051027 306.486425 
L 289.65332 307.584 
L 294.72768 307.584 
L 302.8224 307.584 
L 310.91712 307.584 
L 319.01184 307.584 
" clip-path="url(#p6340bb3cf7)" style="fill: #0018ff"/>
   </g>
   <g id="PathCollection_13">
    <path d="M 289.65332 307.584 
L 289.051027 306.486425 
L 288.098851 304.98592 
L 285.284304 300.191492 
L 284.29339 298.7136 
L 280.689215 293.023073 
L 280.289636 292.44128 
L 280.15141 292.253177 
L 278.524732 289.8432 
L 277.438469 288.106709 
L 276.825061 287.24512 
L 276.409836 286.603613 
L 272.476015 280.9728 
L 271.622344 279.681014 
L 267.95636 274.70048 
L 267.170517 273.588035 
L 266.034896 272.1024 
L 264.196109 269.634298 
L 264.088462 269.50432 
L 261.357069 265.855682 
L 259.269162 263.232 
L 256.995415 260.227975 
L 254.303008 256.95968 
L 252.761768 255.038969 
L 252.19965 254.3616 
L 251.636442 253.711773 
L 250.941358 252.857936 
L 250.065253 251.76352 
L 249.35708 250.857457 
L 247.244351 248.361606 
L 245.756283 246.557562 
L 244.831698 245.4912 
L 241.61312 241.602685 
L 239.500954 239.21888 
L 237.46957 236.890906 
L 237.38587 236.789304 
L 237.234272 236.6208 
L 236.984608 236.352683 
L 236.658275 235.982443 
L 234.978885 234.02272 
L 233.710008 232.522317 
L 230.376991 228.827329 
L 229.808151 228.178369 
L 229.417422 227.7504 
L 225.727497 223.528955 
L 223.833682 221.47808 
L 221.574068 219.016685 
L 221.530897 218.965473 
L 221.452596 218.88 
L 221.318354 218.741763 
L 221.136279 218.544599 
L 219.124435 216.28192 
L 217.660007 214.628716 
L 214.073569 210.784983 
L 213.660127 210.328 
L 213.362509 210.0096 
L 209.556462 205.767986 
L 207.653509 203.73728 
L 205.352733 201.290363 
L 205.219154 201.1392 
L 204.858027 200.763487 
L 202.861773 198.54112 
L 201.419108 196.944306 
L 197.974879 193.284267 
L 197.432326 192.688686 
L 197.040172 192.2688 
L 193.296166 188.104833 
L 191.337893 185.99648 
L 189.072961 183.590565 
L 189.01385 183.518173 
L 188.908131 183.3984 
L 188.454781 182.92564 
L 186.571712 180.80032 
L 185.181311 179.256497 
L 181.819604 175.633852 
L 181.231384 174.978315 
L 180.820326 174.528 
L 177.128028 170.340689 
L 175.249774 168.25568 
L 172.984646 165.803864 
L 172.865731 165.6576 
L 172.537943 165.308575 
L 170.615927 163.05952 
L 169.127334 161.367253 
L 165.350635 157.153544 
L 165.157827 156.930941 
L 165.032214 156.7872 
L 161.220566 152.29089 
L 159.700812 150.51488 
L 157.570665 148.122522 
L 157.475634 148.005721 
L 157.407227 147.9168 
L 157.320593 147.824588 
L 155.299866 145.31872 
L 153.423956 143.093813 
L 149.989065 139.0464 
L 149.326128 138.243717 
L 148.209141 136.894029 
L 145.725969 133.788663 
L 144.918227 132.77408 
L 143.841811 131.498595 
L 143.288783 130.762063 
L 142.873254 130.176 
L 142.525035 129.779537 
L 142.306854 129.55013 
L 140.839651 127.57792 
L 138.21798 124.275309 
L 135.878385 121.3056 
L 133.834451 118.656945 
L 131.060846 115.03328 
L 130.982941 114.904054 
L 129.361826 112.4352 
L 128.063443 110.926017 
L 127.334383 109.83712 
L 123.624747 104.785345 
L 122.750424 103.5648 
L 118.769812 97.94042 
L 118.320481 97.29248 
L 117.855873 96.403022 
L 116.883443 94.6944 
L 114.910436 92.254575 
L 114.789497 92.09632 
L 114.460129 91.601132 
L 110.715654 85.824 
L 109.819159 84.432259 
L 106.818572 79.55168 
L 105.854465 78.176719 
L 105.124597 76.9536 
L 103.689974 74.748006 
L 103.472534 74.35552 
L 103.205113 73.939299 
L 101.79492 71.62962 
L 100.4544 69.370526 
L 100.4544 76.9536 
L 100.4544 85.824 
L 100.4544 94.6944 
L 100.4544 103.5648 
L 100.4544 112.4352 
L 100.4544 121.3056 
L 100.4544 130.176 
L 100.4544 139.0464 
L 100.4544 144.783408 
L 101.69791 146.55413 
L 102.722288 147.9168 
L 104.150447 149.913383 
L 104.629253 150.51488 
L 108.94109 156.357669 
L 109.269335 156.7872 
L 113.23597 161.923169 
L 114.121064 163.05952 
L 114.158726 163.111368 
L 116.419578 165.6576 
L 118.123931 168.03454 
L 118.286964 168.25568 
L 118.784378 168.865087 
L 123.485574 174.528 
L 124.086281 175.242783 
L 128.853636 180.80032 
L 129.290157 181.332404 
L 130.025466 182.085929 
L 131.252269 183.3984 
L 132.894235 185.392777 
L 133.371089 185.99648 
L 134.660403 187.435042 
L 139.023653 192.2688 
L 139.978853 193.308899 
L 144.818424 198.54112 
L 145.350513 199.131796 
L 146.094505 199.856619 
L 147.356559 201.1392 
L 149.178158 203.187296 
L 149.680139 203.73728 
L 150.910271 205.015978 
L 155.70928 210.0096 
L 156.438817 210.753252 
L 161.842212 216.28192 
L 162.146537 216.597264 
L 164.505337 218.88 
L 166.788522 221.280839 
L 166.980803 221.47808 
L 167.419111 221.911787 
L 173.271959 227.7504 
L 173.290437 227.768419 
L 173.624807 228.098792 
L 179.195646 233.586377 
L 179.632446 234.02272 
L 180.505382 234.833777 
L 182.351539 236.6208 
L 184.571538 238.856187 
L 184.942606 239.21888 
L 190.385668 244.51663 
L 191.360723 245.4912 
L 195.917914 249.917549 
L 197.779805 251.76352 
L 198.644275 252.613556 
L 200.46606 254.3616 
L 202.1111 255.984159 
L 203.09921 256.95968 
L 207.499289 261.244688 
L 209.468231 263.232 
L 212.61525 266.314681 
L 215.784076 269.50432 
L 215.859368 269.576809 
L 218.377207 272.1024 
L 219.087381 272.794474 
L 219.478161 273.19043 
L 220.956022 274.70048 
L 224.433188 278.169692 
L 227.116411 280.9728 
L 229.180205 283.062036 
L 231.795668 285.80292 
L 232.752265 286.794236 
L 233.163264 287.24512 
L 233.780019 287.898386 
L 235.61063 289.8432 
L 236.369684 290.61255 
L 238.050398 292.44128 
L 240.981757 295.516949 
L 243.855185 298.7136 
L 245.493402 300.475429 
L 247.808298 303.075958 
L 249.029926 304.438361 
L 249.486452 304.98592 
L 250.119912 305.707477 
L 251.761441 307.584 
L 254.25408 307.584 
L 262.3488 307.584 
L 270.44352 307.584 
L 278.53824 307.584 
L 286.63296 307.584 
" clip-path="url(#p6340bb3cf7)" style="fill: #0080ff"/>
   </g>
   <g id="PathCollection_14">
    <path d="M 251.761441 307.584 
L 250.119912 305.707477 
L 249.486452 304.98592 
L 249.029926 304.438361 
L 247.808298 303.075958 
L 245.493402 300.475429 
L 243.855185 298.7136 
L 240.981757 295.516949 
L 238.050398 292.44128 
L 236.369684 290.61255 
L 235.61063 289.8432 
L 233.780019 287.898386 
L 233.163264 287.24512 
L 232.752265 286.794236 
L 231.795668 285.80292 
L 229.180205 283.062036 
L 227.116411 280.9728 
L 224.433188 278.169692 
L 220.956022 274.70048 
L 219.478161 273.19043 
L 219.087381 272.794474 
L 218.377207 272.1024 
L 215.859368 269.576809 
L 215.784076 269.50432 
L 212.61525 266.314681 
L 209.468231 263.232 
L 207.499289 261.244688 
L 203.09921 256.95968 
L 202.1111 255.984159 
L 200.46606 254.3616 
L 198.644275 252.613556 
L 197.779805 251.76352 
L 195.917914 249.917549 
L 191.360723 245.4912 
L 190.385668 244.51663 
L 184.942606 239.21888 
L 184.571538 238.856187 
L 182.351539 236.6208 
L 180.505382 234.833777 
L 179.632446 234.02272 
L 179.195646 233.586377 
L 173.624807 228.098792 
L 173.290437 227.768419 
L 173.271959 227.7504 
L 167.419111 221.911787 
L 166.980803 221.47808 
L 166.788522 221.280839 
L 164.505337 218.88 
L 162.146537 216.597264 
L 161.842212 216.28192 
L 156.438817 210.753252 
L 155.70928 210.0096 
L 150.910271 205.015978 
L 149.680139 203.73728 
L 149.178158 203.187296 
L 147.356559 201.1392 
L 146.094505 199.856619 
L 145.350513 199.131796 
L 144.818424 198.54112 
L 139.978853 193.308899 
L 139.023653 192.2688 
L 134.660403 187.435042 
L 133.371089 185.99648 
L 132.894235 185.392777 
L 131.252269 183.3984 
L 130.025466 182.085929 
L 129.290157 181.332404 
L 128.853636 180.80032 
L 124.086281 175.242783 
L 123.485574 174.528 
L 118.784378 168.865087 
L 118.286964 168.25568 
L 118.123931 168.03454 
L 116.419578 165.6576 
L 114.158726 163.111368 
L 114.121064 163.05952 
L 113.23597 161.923169 
L 109.269335 156.7872 
L 108.94109 156.357669 
L 104.629253 150.51488 
L 104.150447 149.913383 
L 102.722288 147.9168 
L 101.69791 146.55413 
L 100.4544 144.783408 
L 100.4544 147.9168 
L 100.4544 156.7872 
L 100.4544 165.6576 
L 100.4544 174.528 
L 100.4544 183.3984 
L 100.4544 192.2688 
L 100.4544 199.659488 
L 101.084159 200.449094 
L 101.659588 201.1392 
L 103.513429 203.424929 
L 103.785699 203.73728 
L 108.799402 209.735335 
L 109.037146 210.0096 
L 114.340152 216.104138 
L 114.498451 216.28192 
L 114.567119 216.354947 
L 116.944435 218.88 
L 118.311002 220.475637 
L 119.127876 221.426722 
L 119.176668 221.47808 
L 124.863866 227.613086 
L 124.99414 227.7504 
L 130.610681 233.630412 
L 130.991023 234.02272 
L 131.83302 234.859605 
L 133.603479 236.6208 
L 135.814128 238.942016 
L 136.094699 239.21888 
L 141.618736 244.734274 
L 142.386874 245.4912 
L 147.232441 250.227484 
L 148.81711 251.76352 
L 149.583592 252.491327 
L 151.551739 254.3616 
L 153.323766 256.08357 
L 154.251076 256.95968 
L 158.860516 261.321893 
L 160.889279 263.232 
L 164.08437 266.215632 
L 167.564822 269.456101 
L 167.598489 269.4874 
L 167.616637 269.50432 
L 167.648956 269.534236 
L 169.368506 271.124701 
L 170.4229 272.1024 
L 171.033716 272.666711 
L 171.374637 272.979456 
L 173.237254 274.70048 
L 176.390457 277.593737 
L 180.067113 280.9728 
L 181.059428 281.878034 
L 182.104902 282.833425 
L 185.204882 285.675467 
L 186.900641 287.24512 
L 189.667098 289.765683 
L 189.749203 289.8432 
L 189.843606 289.929414 
L 189.999806 290.071735 
L 192.564881 292.44128 
L 194.015737 293.761108 
L 196.622454 296.151151 
L 198.058827 297.476042 
L 199.385342 298.7136 
L 202.802325 301.873342 
L 206.113279 304.98592 
L 207.867276 306.593797 
L 208.912622 307.584 
L 213.78048 307.584 
L 221.8752 307.584 
L 229.96992 307.584 
L 238.06464 307.584 
L 246.15936 307.584 
" clip-path="url(#p6340bb3cf7)" style="fill: #00e4f8"/>
   </g>
   <g id="PathCollection_15">
    <path d="M 208.912622 307.584 
L 207.867276 306.593797 
L 206.113279 304.98592 
L 202.802325 301.873342 
L 199.385342 298.7136 
L 198.058827 297.476042 
L 196.622454 296.151151 
L 194.015737 293.761108 
L 192.564881 292.44128 
L 189.999806 290.071735 
L 189.843606 289.929414 
L 189.749203 289.8432 
L 189.667098 289.765683 
L 186.900641 287.24512 
L 185.204882 285.675467 
L 182.104902 282.833425 
L 181.059428 281.878034 
L 180.067113 280.9728 
L 176.390457 277.593737 
L 173.237254 274.70048 
L 171.374637 272.979456 
L 171.033716 272.666711 
L 170.4229 272.1024 
L 169.368506 271.124701 
L 167.648956 269.534236 
L 167.616637 269.50432 
L 167.598489 269.4874 
L 167.564822 269.456101 
L 164.08437 266.215632 
L 160.889279 263.232 
L 158.860516 261.321893 
L 154.251076 256.95968 
L 153.323766 256.08357 
L 151.551739 254.3616 
L 149.583592 252.491327 
L 148.81711 251.76352 
L 147.232441 250.227484 
L 142.386874 245.4912 
L 141.618736 244.734274 
L 136.094699 239.21888 
L 135.814128 238.942016 
L 133.603479 236.6208 
L 131.83302 234.859605 
L 130.991023 234.02272 
L 130.610681 233.630412 
L 124.99414 227.7504 
L 124.863866 227.613086 
L 119.176668 221.47808 
L 119.127876 221.426722 
L 118.311002 220.475637 
L 116.944435 218.88 
L 114.567119 216.354947 
L 114.498451 216.28192 
L 114.340152 216.104138 
L 109.037146 210.0096 
L 108.799402 209.735335 
L 103.785699 203.73728 
L 103.513429 203.424929 
L 101.659588 201.1392 
L 101.084159 200.449094 
L 100.4544 199.659488 
L 100.4544 201.1392 
L 100.4544 210.0096 
L 100.4544 218.88 
L 100.4544 227.7504 
L 100.4544 236.6208 
L 100.4544 245.4912 
L 100.4544 248.942245 
L 102.717127 251.477373 
L 102.898597 251.683186 
L 102.97308 251.76352 
L 103.076721 251.877646 
L 105.323341 254.3616 
L 106.253229 255.403718 
L 107.708227 256.95968 
L 110.997192 260.54934 
L 113.581398 263.232 
L 115.770848 265.541549 
L 118.610479 268.434855 
L 119.321445 269.168213 
L 119.660759 269.50432 
L 120.197136 270.041022 
L 121.440552 271.283672 
L 122.234094 272.1024 
L 122.717001 272.604251 
L 123.006296 272.888685 
L 124.836563 274.70048 
L 127.777303 277.642868 
L 131.247649 280.9728 
L 132.405699 282.103991 
L 133.738413 283.367379 
L 136.39937 285.935388 
L 137.803124 287.24512 
L 140.254165 289.537342 
L 140.573745 289.8432 
L 140.689329 289.951534 
L 143.338136 292.44128 
L 145.118861 294.121148 
L 148.422827 297.12655 
L 149.310715 297.951693 
L 150.148183 298.7136 
L 153.923945 302.213113 
L 157.003993 304.98592 
L 158.965748 306.745043 
L 159.901306 307.584 
L 165.21216 307.584 
L 173.30688 307.584 
L 181.4016 307.584 
L 189.49632 307.584 
L 197.59104 307.584 
L 205.68576 307.584 
" clip-path="url(#p6340bb3cf7)" style="fill: #53ffa4"/>
   </g>
   <g id="PathCollection_16">
    <path d="M 100.4544 304.767612 
L 101.753374 306.160551 
L 103.037607 307.584 
L 108.54912 307.584 
L 116.64384 307.584 
L 124.73856 307.584 
L 132.83328 307.584 
L 140.928 307.584 
L 149.02272 307.584 
L 157.11744 307.584 
L 159.901306 307.584 
L 158.965748 306.745043 
L 157.003993 304.98592 
L 153.923945 302.213113 
L 150.148183 298.7136 
L 149.310715 297.951693 
L 148.422827 297.12655 
L 145.118861 294.121148 
L 143.338136 292.44128 
L 140.689329 289.951534 
L 140.573745 289.8432 
L 140.254165 289.537342 
L 137.803124 287.24512 
L 136.39937 285.935388 
L 133.738413 283.367379 
L 132.405699 282.103991 
L 131.247649 280.9728 
L 127.777303 277.642868 
L 124.836563 274.70048 
L 123.006296 272.888685 
L 122.717001 272.604251 
L 122.234094 272.1024 
L 121.440552 271.283672 
L 120.197136 270.041022 
L 119.660759 269.50432 
L 119.321445 269.168213 
L 118.610479 268.434855 
L 115.770848 265.541549 
L 113.581398 263.232 
L 110.997192 260.54934 
L 107.708227 256.95968 
L 106.253229 255.403718 
L 105.323341 254.3616 
L 103.076721 251.877646 
L 102.97308 251.76352 
L 102.898597 251.683186 
L 102.717127 251.477373 
L 100.4544 248.942245 
L 100.4544 254.3616 
L 100.4544 263.232 
L 100.4544 272.1024 
L 100.4544 280.9728 
L 100.4544 289.8432 
L 100.4544 298.7136 
" clip-path="url(#p6340bb3cf7)" style="fill: #a4ff53"/>
   </g>
   <g id="PathCollection_17">
    <path d="M 103.037607 307.584 
L 101.753374 306.160551 
L 100.4544 304.767612 
L 100.4544 307.584 
" clip-path="url(#p6340bb3cf7)" style="fill: #f8f500"/>
   </g>
   <g id="PathCollection_18">
    <path clip-path="url(#p6340bb3cf7)" style="fill: #ff9400"/>
   </g>
   <g id="PathCollection_19">
    <path clip-path="url(#p6340bb3cf7)" style="fill: #ff3800"/>
   </g>
   <g id="PathCollection_20">
    <path clip-path="url(#p6340bb3cf7)" style="fill: #b60000"/>
   </g>
   <g id="matplotlib.axis_1">
    <g id="xtick_1">
     <g id="line2d_1">
      <defs>
       <path id="mfad35ac46c" d="M 0 0 
L 0 3.5 
" style="stroke: #000000; stroke-width: 0.8"/>
      </defs>
      <g>
       <use xlink:href="#mfad35ac46c" x="57.6" y="307.584" style="stroke: #000000; stroke-width: 0.8"/>
      </g>
     </g>
     <g id="text_1">
      <!-- 0.0 -->
      <g transform="translate(51.26875 321.385562) scale(0.1 -0.1)">
       <defs>
        <path id="Calibri-30" d="M 3022 2031 
Q 3022 1566 2948 1181 
Q 2875 797 2704 520 
Q 2534 244 2259 92 
Q 1984 -59 1581 -59 
Q 1200 -59 939 77 
Q 678 213 518 477 
Q 359 741 292 1127 
Q 225 1513 225 2013 
Q 225 2475 300 2861 
Q 375 3247 544 3523 
Q 713 3800 988 3951 
Q 1263 4103 1663 4103 
Q 2047 4103 2308 3967 
Q 2569 3831 2728 3567 
Q 2888 3303 2955 2917 
Q 3022 2531 3022 2031 
z
M 2472 1994 
Q 2472 2297 2450 2537 
Q 2428 2778 2386 2962 
Q 2344 3147 2276 3280 
Q 2209 3413 2115 3498 
Q 2022 3584 1901 3623 
Q 1781 3663 1631 3663 
Q 1366 3663 1200 3538 
Q 1034 3413 939 3194 
Q 844 2975 809 2681 
Q 775 2388 775 2050 
Q 775 1597 822 1280 
Q 869 963 970 763 
Q 1072 563 1230 472 
Q 1388 381 1613 381 
Q 1788 381 1920 437 
Q 2053 494 2148 598 
Q 2244 703 2306 850 
Q 2369 997 2406 1175 
Q 2444 1353 2458 1561 
Q 2472 1769 2472 1994 
z
" transform="scale(0.015625)"/>
        <path id="Calibri-2e" d="M 1144 341 
Q 1144 119 1070 45 
Q 997 -28 803 -28 
Q 616 -28 544 44 
Q 472 116 472 331 
Q 472 553 545 626 
Q 619 700 813 700 
Q 1000 700 1072 628 
Q 1144 556 1144 341 
z
" transform="scale(0.015625)"/>
       </defs>
       <use xlink:href="#Calibri-30"/>
       <use xlink:href="#Calibri-2e" x="50.683594"/>
       <use xlink:href="#Calibri-30" x="75.927734"/>
      </g>
     </g>
    </g>
    <g id="xtick_2">
     <g id="line2d_2">
      <g>
       <use xlink:href="#mfad35ac46c" x="86.1696" y="307.584" style="stroke: #000000; stroke-width: 0.8"/>
      </g>
     </g>
     <g id="text_2">
      <!-- 0.1 -->
      <g transform="translate(79.83835 321.385562) scale(0.1 -0.1)">
       <defs>
        <path id="Calibri-31" d="M 2897 213 
Q 2897 153 2887 112 
Q 2878 72 2862 47 
Q 2847 22 2826 11 
Q 2806 0 2784 0 
L 672 0 
Q 650 0 631 11 
Q 613 22 595 47 
Q 578 72 568 112 
Q 559 153 559 213 
Q 559 269 568 309 
Q 578 350 592 376 
Q 606 403 626 417 
Q 647 431 672 431 
L 1516 431 
L 1516 3506 
L 734 3041 
Q 675 3009 639 3003 
Q 603 2997 581 3017 
Q 559 3038 551 3084 
Q 544 3131 544 3203 
Q 544 3256 548 3293 
Q 553 3331 562 3356 
Q 572 3381 589 3400 
Q 606 3419 634 3438 
L 1566 4034 
Q 1578 4044 1597 4050 
Q 1616 4056 1644 4062 
Q 1672 4069 1709 4070 
Q 1747 4072 1803 4072 
Q 1878 4072 1928 4065 
Q 1978 4059 2006 4048 
Q 2034 4038 2043 4020 
Q 2053 4003 2053 3984 
L 2053 431 
L 2784 431 
Q 2809 431 2831 417 
Q 2853 403 2867 376 
Q 2881 350 2889 309 
Q 2897 269 2897 213 
z
" transform="scale(0.015625)"/>
       </defs>
       <use xlink:href="#Calibri-30"/>
       <use xlink:href="#Calibri-2e" x="50.683594"/>
       <use xlink:href="#Calibri-31" x="75.927734"/>
      </g>
     </g>
    </g>
    <g id="xtick_3">
     <g id="line2d_3">
      <g>
       <use xlink:href="#mfad35ac46c" x="114.7392" y="307.584" style="stroke: #000000; stroke-width: 0.8"/>
      </g>
     </g>
     <g id="text_3">
      <!-- 0.2 -->
      <g transform="translate(108.40795 321.385562) scale(0.1 -0.1)">
       <defs>
        <path id="Calibri-32" d="M 2888 231 
Q 2888 175 2880 131 
Q 2872 88 2858 58 
Q 2844 28 2820 14 
Q 2797 0 2769 0 
L 534 0 
Q 491 0 458 11 
Q 425 22 401 47 
Q 378 72 367 119 
Q 356 166 356 234 
Q 356 297 361 344 
Q 366 391 381 427 
Q 397 463 420 498 
Q 444 534 481 575 
L 1266 1406 
Q 1538 1694 1702 1922 
Q 1866 2150 1955 2337 
Q 2044 2525 2072 2678 
Q 2100 2831 2100 2966 
Q 2100 3100 2056 3220 
Q 2013 3341 1930 3431 
Q 1847 3522 1722 3575 
Q 1597 3628 1434 3628 
Q 1244 3628 1092 3575 
Q 941 3522 827 3459 
Q 713 3397 636 3344 
Q 559 3291 522 3291 
Q 500 3291 483 3303 
Q 466 3316 455 3344 
Q 444 3372 437 3419 
Q 431 3466 431 3531 
Q 431 3578 434 3612 
Q 438 3647 445 3672 
Q 453 3697 465 3719 
Q 478 3741 515 3773 
Q 553 3806 645 3862 
Q 738 3919 877 3973 
Q 1016 4028 1183 4065 
Q 1350 4103 1534 4103 
Q 1828 4103 2048 4020 
Q 2269 3938 2414 3794 
Q 2559 3650 2631 3459 
Q 2703 3269 2703 3053 
Q 2703 2859 2668 2667 
Q 2634 2475 2523 2251 
Q 2413 2028 2203 1754 
Q 1994 1481 1647 1125 
L 1006 456 
L 2766 456 
Q 2791 456 2814 442 
Q 2838 428 2855 400 
Q 2872 372 2880 330 
Q 2888 288 2888 231 
z
" transform="scale(0.015625)"/>
       </defs>
       <use xlink:href="#Calibri-30"/>
       <use xlink:href="#Calibri-2e" x="50.683594"/>
       <use xlink:href="#Calibri-32" x="75.927734"/>
      </g>
     </g>
    </g>
    <g id="xtick_4">
     <g id="line2d_4">
      <g>
       <use xlink:href="#mfad35ac46c" x="143.3088" y="307.584" style="stroke: #000000; stroke-width: 0.8"/>
      </g>
     </g>
     <g id="text_4">
      <!-- 0.3 -->
      <g transform="translate(136.97755 321.385562) scale(0.1 -0.1)">
       <defs>
        <path id="Calibri-33" d="M 2856 1156 
Q 2856 878 2759 654 
Q 2663 431 2481 272 
Q 2300 113 2034 27 
Q 1769 -59 1434 -59 
Q 1231 -59 1054 -26 
Q 878 6 740 51 
Q 603 97 512 145 
Q 422 194 398 216 
Q 375 238 362 259 
Q 350 281 340 312 
Q 331 344 326 389 
Q 322 434 322 500 
Q 322 613 344 656 
Q 366 700 406 700 
Q 434 700 517 650 
Q 600 600 729 542 
Q 859 484 1032 434 
Q 1206 384 1419 384 
Q 1625 384 1781 437 
Q 1938 491 2044 587 
Q 2150 684 2203 817 
Q 2256 950 2256 1106 
Q 2256 1278 2189 1415 
Q 2122 1553 1992 1653 
Q 1863 1753 1673 1806 
Q 1484 1859 1244 1859 
L 859 1859 
Q 834 1859 811 1870 
Q 788 1881 770 1906 
Q 753 1931 742 1972 
Q 731 2013 731 2078 
Q 731 2138 740 2177 
Q 750 2216 767 2239 
Q 784 2263 806 2273 
Q 828 2284 856 2284 
L 1209 2284 
Q 1416 2284 1580 2337 
Q 1744 2391 1858 2491 
Q 1972 2591 2033 2730 
Q 2094 2869 2094 3041 
Q 2094 3166 2053 3280 
Q 2013 3394 1931 3478 
Q 1850 3563 1723 3611 
Q 1597 3659 1431 3659 
Q 1250 3659 1098 3604 
Q 947 3550 828 3487 
Q 709 3425 631 3370 
Q 553 3316 522 3316 
Q 500 3316 483 3323 
Q 466 3331 455 3354 
Q 444 3378 439 3420 
Q 434 3463 434 3531 
Q 434 3578 437 3614 
Q 441 3650 450 3676 
Q 459 3703 471 3725 
Q 484 3747 514 3776 
Q 544 3806 634 3862 
Q 725 3919 858 3973 
Q 991 4028 1164 4065 
Q 1338 4103 1538 4103 
Q 1819 4103 2031 4031 
Q 2244 3959 2386 3828 
Q 2528 3697 2598 3514 
Q 2669 3331 2669 3109 
Q 2669 2919 2619 2755 
Q 2569 2591 2472 2464 
Q 2375 2338 2234 2248 
Q 2094 2159 1909 2125 
L 1909 2119 
Q 2119 2097 2292 2014 
Q 2466 1931 2591 1806 
Q 2716 1681 2786 1514 
Q 2856 1347 2856 1156 
z
" transform="scale(0.015625)"/>
       </defs>
       <use xlink:href="#Calibri-30"/>
       <use xlink:href="#Calibri-2e" x="50.683594"/>
       <use xlink:href="#Calibri-33" x="75.927734"/>
      </g>
     </g>
    </g>
    <g id="xtick_5">
     <g id="line2d_5">
      <g>
       <use xlink:href="#mfad35ac46c" x="171.8784" y="307.584" style="stroke: #000000; stroke-width: 0.8"/>
      </g>
     </g>
     <g id="text_5">
      <!-- 0.4 -->
      <g transform="translate(165.54715 321.385562) scale(0.1 -0.1)">
       <defs>
        <path id="Calibri-34" d="M 3059 1150 
Q 3059 1047 3028 987 
Q 2997 928 2941 928 
L 2484 928 
L 2484 78 
Q 2484 53 2471 36 
Q 2459 19 2428 6 
Q 2397 -6 2347 -12 
Q 2297 -19 2219 -19 
Q 2144 -19 2094 -12 
Q 2044 -6 2014 6 
Q 1984 19 1973 36 
Q 1963 53 1963 78 
L 1963 928 
L 294 928 
Q 256 928 231 937 
Q 206 947 186 972 
Q 166 997 158 1044 
Q 150 1091 150 1166 
Q 150 1225 153 1272 
Q 156 1319 165 1358 
Q 175 1397 190 1433 
Q 206 1469 228 1509 
L 1684 3966 
Q 1700 3991 1729 4009 
Q 1759 4028 1806 4040 
Q 1853 4053 1922 4058 
Q 1991 4063 2084 4063 
Q 2188 4063 2264 4055 
Q 2341 4047 2387 4034 
Q 2434 4022 2459 4001 
Q 2484 3981 2484 3953 
L 2484 1372 
L 2941 1372 
Q 2994 1372 3026 1317 
Q 3059 1263 3059 1150 
z
M 1963 3591 
L 1956 3591 
L 641 1372 
L 1963 1372 
L 1963 3591 
z
" transform="scale(0.015625)"/>
       </defs>
       <use xlink:href="#Calibri-30"/>
       <use xlink:href="#Calibri-2e" x="50.683594"/>
       <use xlink:href="#Calibri-34" x="75.927734"/>
      </g>
     </g>
    </g>
    <g id="xtick_6">
     <g id="line2d_6">
      <g>
       <use xlink:href="#mfad35ac46c" x="200.448" y="307.584" style="stroke: #000000; stroke-width: 0.8"/>
      </g>
     </g>
     <g id="text_6">
      <!-- 0.5 -->
      <g transform="translate(194.11675 321.385562) scale(0.1 -0.1)">
       <defs>
        <path id="Calibri-35" d="M 2869 1300 
Q 2869 975 2759 722 
Q 2650 469 2450 295 
Q 2250 122 1973 31 
Q 1697 -59 1359 -59 
Q 1172 -59 1003 -32 
Q 834 -6 703 33 
Q 572 72 487 109 
Q 403 147 379 169 
Q 356 191 347 209 
Q 338 228 330 254 
Q 322 281 319 322 
Q 316 363 316 419 
Q 316 472 320 514 
Q 325 556 337 582 
Q 350 609 367 621 
Q 384 634 406 634 
Q 438 634 503 595 
Q 569 556 680 511 
Q 791 466 955 425 
Q 1119 384 1344 384 
Q 1553 384 1728 434 
Q 1903 484 2029 590 
Q 2156 697 2228 858 
Q 2300 1019 2300 1250 
Q 2300 1444 2239 1592 
Q 2178 1741 2051 1839 
Q 1925 1938 1731 1986 
Q 1538 2034 1269 2034 
Q 1078 2034 940 2015 
Q 803 1997 684 1997 
Q 597 1997 559 2037 
Q 522 2078 522 2194 
L 522 3841 
Q 522 3944 570 3994 
Q 619 4044 709 4044 
L 2500 4044 
Q 2525 4044 2548 4030 
Q 2572 4016 2587 3987 
Q 2603 3959 2611 3915 
Q 2619 3872 2619 3813 
Q 2619 3700 2587 3637 
Q 2556 3575 2500 3575 
L 991 3575 
L 991 2441 
Q 1100 2456 1214 2459 
Q 1328 2463 1478 2463 
Q 1825 2463 2084 2380 
Q 2344 2297 2517 2145 
Q 2691 1994 2780 1778 
Q 2869 1563 2869 1300 
z
" transform="scale(0.015625)"/>
       </defs>
       <use xlink:href="#Calibri-30"/>
       <use xlink:href="#Calibri-2e" x="50.683594"/>
       <use xlink:href="#Calibri-35" x="75.927734"/>
      </g>
     </g>
    </g>
    <g id="xtick_7">
     <g id="line2d_7">
      <g>
       <use xlink:href="#mfad35ac46c" x="229.0176" y="307.584" style="stroke: #000000; stroke-width: 0.8"/>
      </g>
     </g>
     <g id="text_7">
      <!-- 0.6 -->
      <g transform="translate(222.68635 321.385562) scale(0.1 -0.1)">
       <defs>
        <path id="Calibri-36" d="M 2991 1309 
Q 2991 1044 2909 795 
Q 2828 547 2659 358 
Q 2491 169 2231 55 
Q 1972 -59 1619 -59 
Q 1366 -59 1172 3 
Q 978 66 834 181 
Q 691 297 595 465 
Q 500 634 442 850 
Q 384 1066 359 1322 
Q 334 1578 334 1872 
Q 334 2131 362 2397 
Q 391 2663 462 2909 
Q 534 3156 657 3373 
Q 781 3591 967 3752 
Q 1153 3913 1412 4006 
Q 1672 4100 2016 4100 
Q 2131 4100 2250 4086 
Q 2369 4072 2469 4048 
Q 2569 4025 2637 3997 
Q 2706 3969 2728 3951 
Q 2750 3934 2761 3914 
Q 2772 3894 2778 3870 
Q 2784 3847 2787 3817 
Q 2791 3788 2791 3744 
Q 2791 3688 2789 3647 
Q 2788 3606 2777 3581 
Q 2766 3556 2748 3543 
Q 2731 3531 2703 3531 
Q 2669 3531 2609 3553 
Q 2550 3575 2465 3601 
Q 2381 3628 2261 3650 
Q 2141 3672 1981 3672 
Q 1691 3672 1481 3553 
Q 1272 3434 1139 3234 
Q 1006 3034 942 2770 
Q 878 2506 869 2219 
Q 950 2266 1051 2312 
Q 1153 2359 1273 2396 
Q 1394 2434 1528 2457 
Q 1663 2481 1816 2481 
Q 2144 2481 2369 2392 
Q 2594 2303 2733 2145 
Q 2872 1988 2931 1773 
Q 2991 1559 2991 1309 
z
M 2447 1259 
Q 2447 1441 2411 1589 
Q 2375 1738 2290 1841 
Q 2206 1944 2065 2000 
Q 1925 2056 1719 2056 
Q 1603 2056 1487 2036 
Q 1372 2016 1264 1980 
Q 1156 1944 1057 1895 
Q 959 1847 878 1791 
Q 878 1388 929 1116 
Q 981 844 1079 680 
Q 1178 516 1325 445 
Q 1472 375 1669 375 
Q 1869 375 2016 450 
Q 2163 525 2259 651 
Q 2356 778 2401 936 
Q 2447 1094 2447 1259 
z
" transform="scale(0.015625)"/>
       </defs>
       <use xlink:href="#Calibri-30"/>
       <use xlink:href="#Calibri-2e" x="50.683594"/>
       <use xlink:href="#Calibri-36" x="75.927734"/>
      </g>
     </g>
    </g>
    <g id="xtick_8">
     <g id="line2d_8">
      <g>
       <use xlink:href="#mfad35ac46c" x="257.5872" y="307.584" style="stroke: #000000; stroke-width: 0.8"/>
      </g>
     </g>
     <g id="text_8">
      <!-- 0.7 -->
      <g transform="translate(251.25595 321.385562) scale(0.1 -0.1)">
       <defs>
        <path id="Calibri-37" d="M 2947 3813 
Q 2947 3756 2942 3711 
Q 2938 3666 2930 3623 
Q 2922 3581 2908 3542 
Q 2894 3503 2875 3459 
L 1419 103 
Q 1403 66 1379 42 
Q 1356 19 1320 5 
Q 1284 -9 1228 -14 
Q 1172 -19 1091 -19 
Q 984 -19 925 -9 
Q 866 0 839 20 
Q 813 41 816 70 
Q 819 100 838 141 
L 2369 3572 
L 428 3572 
Q 369 3572 339 3634 
Q 309 3697 309 3809 
Q 309 3869 317 3912 
Q 325 3956 340 3986 
Q 356 4016 378 4030 
Q 400 4044 428 4044 
L 2784 4044 
Q 2828 4044 2861 4034 
Q 2894 4025 2911 3997 
Q 2928 3969 2937 3925 
Q 2947 3881 2947 3813 
z
" transform="scale(0.015625)"/>
       </defs>
       <use xlink:href="#Calibri-30"/>
       <use xlink:href="#Calibri-2e" x="50.683594"/>
       <use xlink:href="#Calibri-37" x="75.927734"/>
      </g>
     </g>
    </g>
    <g id="xtick_9">
     <g id="line2d_9">
      <g>
       <use xlink:href="#mfad35ac46c" x="286.1568" y="307.584" style="stroke: #000000; stroke-width: 0.8"/>
      </g>
     </g>
     <g id="text_9">
      <!-- 0.8 -->
      <g transform="translate(279.82555 321.385562) scale(0.1 -0.1)">
       <defs>
        <path id="Calibri-38" d="M 2981 1038 
Q 2981 775 2887 570 
Q 2794 366 2617 225 
Q 2441 84 2181 12 
Q 1922 -59 1588 -59 
Q 1275 -59 1028 6 
Q 781 72 609 200 
Q 438 328 347 515 
Q 256 703 256 944 
Q 256 1134 318 1293 
Q 381 1453 498 1587 
Q 616 1722 787 1839 
Q 959 1956 1175 2063 
Q 988 2159 844 2267 
Q 700 2375 600 2501 
Q 500 2628 448 2772 
Q 397 2916 397 3084 
Q 397 3297 473 3483 
Q 550 3669 704 3806 
Q 859 3944 1098 4023 
Q 1338 4103 1656 4103 
Q 1963 4103 2186 4029 
Q 2409 3956 2554 3829 
Q 2700 3703 2769 3531 
Q 2838 3359 2838 3163 
Q 2838 3003 2786 2856 
Q 2734 2709 2634 2578 
Q 2534 2447 2389 2333 
Q 2244 2219 2056 2119 
Q 2278 2009 2451 1893 
Q 2625 1778 2742 1645 
Q 2859 1513 2920 1364 
Q 2981 1216 2981 1038 
z
M 2306 3113 
Q 2306 3244 2261 3350 
Q 2216 3456 2128 3531 
Q 2041 3606 1911 3645 
Q 1781 3684 1616 3684 
Q 1278 3684 1104 3531 
Q 931 3378 931 3113 
Q 931 2991 973 2886 
Q 1016 2781 1105 2687 
Q 1194 2594 1330 2505 
Q 1466 2416 1653 2319 
Q 1969 2481 2137 2678 
Q 2306 2875 2306 3113 
z
M 2438 981 
Q 2438 1125 2384 1242 
Q 2331 1359 2223 1461 
Q 2116 1563 1955 1658 
Q 1794 1753 1581 1856 
Q 1384 1759 1236 1662 
Q 1088 1566 992 1462 
Q 897 1359 848 1245 
Q 800 1131 800 994 
Q 800 691 1008 525 
Q 1216 359 1628 359 
Q 2028 359 2233 526 
Q 2438 694 2438 981 
z
" transform="scale(0.015625)"/>
       </defs>
       <use xlink:href="#Calibri-30"/>
       <use xlink:href="#Calibri-2e" x="50.683594"/>
       <use xlink:href="#Calibri-38" x="75.927734"/>
      </g>
     </g>
    </g>
    <g id="xtick_10">
     <g id="line2d_10">
      <g>
       <use xlink:href="#mfad35ac46c" x="314.7264" y="307.584" style="stroke: #000000; stroke-width: 0.8"/>
      </g>
     </g>
     <g id="text_10">
      <!-- 0.9 -->
      <g transform="translate(308.39515 321.385562) scale(0.1 -0.1)">
       <defs>
        <path id="Calibri-39" d="M 2919 2181 
Q 2919 1919 2887 1650 
Q 2856 1381 2781 1132 
Q 2706 884 2579 667 
Q 2453 450 2261 287 
Q 2069 125 1805 33 
Q 1541 -59 1191 -59 
Q 1056 -59 929 -42 
Q 803 -25 701 0 
Q 600 25 531 53 
Q 463 81 431 109 
Q 400 138 386 186 
Q 372 234 372 316 
Q 372 384 376 425 
Q 381 466 390 487 
Q 400 509 417 517 
Q 434 525 459 525 
Q 494 525 556 501 
Q 619 478 714 450 
Q 809 422 937 398 
Q 1066 375 1225 375 
Q 1528 375 1745 492 
Q 1963 609 2100 806 
Q 2238 1003 2306 1262 
Q 2375 1522 2381 1809 
Q 2216 1713 1984 1638 
Q 1753 1563 1453 1563 
Q 1116 1563 886 1655 
Q 656 1747 517 1906 
Q 378 2066 317 2284 
Q 256 2503 256 2763 
Q 256 3031 334 3273 
Q 413 3516 578 3700 
Q 744 3884 1000 3993 
Q 1256 4103 1613 4103 
Q 1866 4103 2061 4039 
Q 2256 3975 2400 3854 
Q 2544 3734 2644 3564 
Q 2744 3394 2805 3178 
Q 2866 2963 2892 2711 
Q 2919 2459 2919 2181 
z
M 2372 2241 
Q 2372 2641 2319 2914 
Q 2266 3188 2162 3356 
Q 2059 3525 1909 3600 
Q 1759 3675 1563 3675 
Q 1359 3675 1215 3601 
Q 1072 3528 980 3404 
Q 888 3281 844 3125 
Q 800 2969 800 2803 
Q 800 2619 839 2466 
Q 878 2313 965 2206 
Q 1053 2100 1193 2042 
Q 1334 1984 1541 1984 
Q 1775 1984 1994 2054 
Q 2213 2125 2372 2241 
z
" transform="scale(0.015625)"/>
       </defs>
       <use xlink:href="#Calibri-30"/>
       <use xlink:href="#Calibri-2e" x="50.683594"/>
       <use xlink:href="#Calibri-39" x="75.927734"/>
      </g>
     </g>
    </g>
    <g id="xtick_11">
     <g id="line2d_11">
      <g>
       <use xlink:href="#mfad35ac46c" x="343.296" y="307.584" style="stroke: #000000; stroke-width: 0.8"/>
      </g>
     </g>
     <g id="text_11">
      <!-- 1.0 -->
      <g transform="translate(336.96475 321.385562) scale(0.1 -0.1)">
       <use xlink:href="#Calibri-31"/>
       <use xlink:href="#Calibri-2e" x="50.683594"/>
       <use xlink:href="#Calibri-30" x="75.927734"/>
      </g>
     </g>
    </g>
    <g id="text_12">
     <!-- $\mathit{p}$ (cm$^2$/cm$^2$) -->
     <g transform="translate(174.148 336.263687) scale(0.1 -0.1)">
      <defs>
       <path id="DejaVuSans-Oblique-70" d="M 3175 2156 
Q 3175 2616 2975 2859 
Q 2775 3103 2400 3103 
Q 2144 3103 1911 2972 
Q 1678 2841 1497 2591 
Q 1319 2344 1212 1994 
Q 1106 1644 1106 1300 
Q 1106 863 1306 627 
Q 1506 391 1875 391 
Q 2147 391 2380 519 
Q 2613 647 2778 891 
Q 2956 1147 3065 1494 
Q 3175 1841 3175 2156 
z
M 1394 2969 
Q 1625 3272 1939 3428 
Q 2253 3584 2638 3584 
Q 3175 3584 3472 3232 
Q 3769 2881 3769 2247 
Q 3769 1728 3584 1258 
Q 3400 788 3053 416 
Q 2822 169 2531 39 
Q 2241 -91 1919 -91 
Q 1547 -91 1294 64 
Q 1041 219 916 525 
L 556 -1331 
L -19 -1331 
L 922 3500 
L 1497 3500 
L 1394 2969 
z
" transform="scale(0.015625)"/>
       <path id="Calibri-20" transform="scale(0.015625)"/>
       <path id="Calibri-28" d="M 1547 4306 
Q 1250 3678 1104 3017 
Q 959 2356 959 1688 
Q 959 1016 1107 356 
Q 1256 -303 1541 -938 
Q 1556 -975 1557 -1001 
Q 1559 -1028 1537 -1045 
Q 1516 -1063 1470 -1070 
Q 1425 -1078 1347 -1078 
Q 1291 -1078 1250 -1075 
Q 1209 -1072 1179 -1062 
Q 1150 -1053 1131 -1040 
Q 1113 -1028 1103 -1013 
Q 934 -694 806 -367 
Q 678 -41 590 296 
Q 503 634 459 979 
Q 416 1325 416 1678 
Q 416 2031 464 2375 
Q 513 2719 602 3058 
Q 691 3397 819 3725 
Q 947 4053 1106 4375 
Q 1109 4388 1123 4397 
Q 1138 4406 1163 4415 
Q 1188 4425 1231 4429 
Q 1275 4434 1344 4434 
Q 1416 4434 1459 4425 
Q 1503 4416 1528 4400 
Q 1553 4384 1556 4359 
Q 1559 4334 1547 4306 
z
" transform="scale(0.015625)"/>
       <path id="Calibri-63" d="M 2500 506 
Q 2500 453 2497 414 
Q 2494 375 2486 348 
Q 2478 322 2467 301 
Q 2456 281 2417 242 
Q 2378 203 2284 145 
Q 2191 88 2073 42 
Q 1956 -3 1818 -31 
Q 1681 -59 1534 -59 
Q 1231 -59 997 41 
Q 763 141 605 333 
Q 447 525 364 804 
Q 281 1084 281 1450 
Q 281 1866 382 2164 
Q 484 2463 661 2653 
Q 838 2844 1077 2936 
Q 1316 3028 1594 3028 
Q 1728 3028 1854 3003 
Q 1981 2978 2087 2937 
Q 2194 2897 2276 2844 
Q 2359 2791 2396 2753 
Q 2434 2716 2448 2694 
Q 2463 2672 2472 2642 
Q 2481 2613 2484 2575 
Q 2488 2538 2488 2481 
Q 2488 2359 2459 2311 
Q 2431 2263 2391 2263 
Q 2344 2263 2283 2314 
Q 2222 2366 2128 2428 
Q 2034 2491 1901 2542 
Q 1769 2594 1588 2594 
Q 1216 2594 1017 2308 
Q 819 2022 819 1478 
Q 819 1206 870 1001 
Q 922 797 1022 659 
Q 1122 522 1267 455 
Q 1413 388 1600 388 
Q 1778 388 1912 444 
Q 2047 500 2145 567 
Q 2244 634 2311 689 
Q 2378 744 2416 744 
Q 2438 744 2453 731 
Q 2469 719 2480 689 
Q 2491 659 2495 614 
Q 2500 569 2500 506 
z
" transform="scale(0.015625)"/>
       <path id="Calibri-6d" d="M 4650 78 
Q 4650 53 4637 36 
Q 4625 19 4597 6 
Q 4569 -6 4519 -12 
Q 4469 -19 4394 -19 
Q 4316 -19 4266 -12 
Q 4216 -6 4186 6 
Q 4156 19 4143 36 
Q 4131 53 4131 78 
L 4131 1788 
Q 4131 1966 4100 2112 
Q 4069 2259 4000 2365 
Q 3931 2472 3825 2528 
Q 3719 2584 3575 2584 
Q 3397 2584 3217 2446 
Q 3038 2309 2822 2044 
L 2822 78 
Q 2822 53 2809 36 
Q 2797 19 2767 6 
Q 2738 -6 2688 -12 
Q 2638 -19 2563 -19 
Q 2491 -19 2439 -12 
Q 2388 -6 2358 6 
Q 2328 19 2317 36 
Q 2306 53 2306 78 
L 2306 1788 
Q 2306 1966 2272 2112 
Q 2238 2259 2169 2365 
Q 2100 2472 1995 2528 
Q 1891 2584 1747 2584 
Q 1569 2584 1387 2446 
Q 1206 2309 994 2044 
L 994 78 
Q 994 53 981 36 
Q 969 19 941 6 
Q 913 -6 863 -12 
Q 813 -19 734 -19 
Q 659 -19 609 -12 
Q 559 -6 529 6 
Q 500 19 489 36 
Q 478 53 478 78 
L 478 2891 
Q 478 2916 487 2933 
Q 497 2950 525 2964 
Q 553 2978 597 2983 
Q 641 2988 713 2988 
Q 781 2988 826 2983 
Q 872 2978 897 2964 
Q 922 2950 933 2933 
Q 944 2916 944 2891 
L 944 2519 
Q 1181 2784 1404 2907 
Q 1628 3031 1856 3031 
Q 2031 3031 2170 2990 
Q 2309 2950 2415 2876 
Q 2522 2803 2597 2701 
Q 2672 2600 2722 2475 
Q 2863 2628 2989 2734 
Q 3116 2841 3233 2906 
Q 3350 2972 3461 3001 
Q 3572 3031 3684 3031 
Q 3956 3031 4140 2936 
Q 4325 2841 4439 2681 
Q 4553 2522 4601 2308 
Q 4650 2094 4650 1856 
L 4650 78 
z
" transform="scale(0.015625)"/>
       <path id="DejaVuSans-32" d="M 1228 531 
L 3431 531 
L 3431 0 
L 469 0 
L 469 531 
Q 828 903 1448 1529 
Q 2069 2156 2228 2338 
Q 2531 2678 2651 2914 
Q 2772 3150 2772 3378 
Q 2772 3750 2511 3984 
Q 2250 4219 1831 4219 
Q 1534 4219 1204 4116 
Q 875 4013 500 3803 
L 500 4441 
Q 881 4594 1212 4672 
Q 1544 4750 1819 4750 
Q 2544 4750 2975 4387 
Q 3406 4025 3406 3419 
Q 3406 3131 3298 2873 
Q 3191 2616 2906 2266 
Q 2828 2175 2409 1742 
Q 1991 1309 1228 531 
z
" transform="scale(0.015625)"/>
       <path id="Calibri-2f" d="M 525 -753 
Q 513 -794 492 -817 
Q 472 -841 440 -853 
Q 409 -866 364 -872 
Q 319 -878 253 -878 
Q 175 -878 123 -867 
Q 72 -856 44 -836 
Q 16 -816 9 -786 
Q 3 -756 22 -716 
L 1913 4469 
Q 1925 4509 1945 4532 
Q 1966 4556 1995 4570 
Q 2025 4584 2072 4589 
Q 2119 4594 2184 4594 
Q 2263 4594 2313 4583 
Q 2363 4572 2391 4553 
Q 2419 4534 2425 4503 
Q 2431 4472 2416 4431 
L 525 -753 
z
" transform="scale(0.015625)"/>
       <path id="Calibri-29" d="M 1522 1678 
Q 1522 1325 1478 979 
Q 1434 634 1346 296 
Q 1259 -41 1132 -367 
Q 1006 -694 838 -1013 
Q 828 -1028 809 -1040 
Q 791 -1053 761 -1062 
Q 731 -1072 690 -1075 
Q 650 -1078 594 -1078 
Q 513 -1078 467 -1070 
Q 422 -1063 401 -1045 
Q 381 -1028 382 -1001 
Q 384 -975 400 -938 
Q 688 -306 834 355 
Q 981 1016 981 1688 
Q 981 2356 834 3017 
Q 688 3678 394 4306 
Q 381 4334 384 4359 
Q 388 4384 413 4400 
Q 438 4416 481 4425 
Q 525 4434 597 4434 
Q 663 4434 706 4429 
Q 750 4425 776 4415 
Q 803 4406 815 4397 
Q 828 4388 834 4375 
Q 1156 3734 1339 3057 
Q 1522 2381 1522 1678 
z
" transform="scale(0.015625)"/>
      </defs>
      <use xlink:href="#DejaVuSans-Oblique-70" transform="translate(0 0.765625)"/>
      <use xlink:href="#Calibri-20" transform="translate(63.476562 0.765625)"/>
      <use xlink:href="#Calibri-28" transform="translate(84.958984 0.765625)"/>
      <use xlink:href="#Calibri-63" transform="translate(115.28125 0.765625)"/>
      <use xlink:href="#Calibri-6d" transform="translate(157.566406 0.765625)"/>
      <use xlink:href="#DejaVuSans-32" transform="translate(238.40625 39.046875) scale(0.7)"/>
      <use xlink:href="#Calibri-2f" transform="translate(285.676758 0.765625)"/>
      <use xlink:href="#Calibri-63" transform="translate(324.299805 0.765625)"/>
      <use xlink:href="#Calibri-6d" transform="translate(366.584961 0.765625)"/>
      <use xlink:href="#DejaVuSans-32" transform="translate(447.424805 39.046875) scale(0.7)"/>
      <use xlink:href="#Calibri-29" transform="translate(494.695312 0.765625)"/>
     </g>
    </g>
   </g>
   <g id="matplotlib.axis_2">
    <g id="ytick_1">
     <g id="line2d_12">
      <defs>
       <path id="m2cf06740d7" d="M 0 0 
L -3.5 0 
" style="stroke: #000000; stroke-width: 0.8"/>
      </defs>
      <g>
       <use xlink:href="#m2cf06740d7" x="57.6" y="275.65056" style="stroke: #000000; stroke-width: 0.8"/>
      </g>
     </g>
     <g id="text_13">
      <!-- 25 -->
      <g transform="translate(40.4625 279.051341) scale(0.1 -0.1)">
       <use xlink:href="#Calibri-32"/>
       <use xlink:href="#Calibri-35" x="50.683594"/>
      </g>
     </g>
    </g>
    <g id="ytick_2">
     <g id="line2d_13">
      <g>
       <use xlink:href="#m2cf06740d7" x="57.6" y="242.38656" style="stroke: #000000; stroke-width: 0.8"/>
      </g>
     </g>
     <g id="text_14">
      <!-- 50 -->
      <g transform="translate(40.4625 245.787341) scale(0.1 -0.1)">
       <use xlink:href="#Calibri-35"/>
       <use xlink:href="#Calibri-30" x="50.683594"/>
      </g>
     </g>
    </g>
    <g id="ytick_3">
     <g id="line2d_14">
      <g>
       <use xlink:href="#m2cf06740d7" x="57.6" y="209.12256" style="stroke: #000000; stroke-width: 0.8"/>
      </g>
     </g>
     <g id="text_15">
      <!-- 75 -->
      <g transform="translate(40.4625 212.523341) scale(0.1 -0.1)">
       <use xlink:href="#Calibri-37"/>
       <use xlink:href="#Calibri-35" x="50.683594"/>
      </g>
     </g>
    </g>
    <g id="ytick_4">
     <g id="line2d_15">
      <g>
       <use xlink:href="#m2cf06740d7" x="57.6" y="175.85856" style="stroke: #000000; stroke-width: 0.8"/>
      </g>
     </g>
     <g id="text_16">
      <!-- 100 -->
      <g transform="translate(35.39375 179.259341) scale(0.1 -0.1)">
       <use xlink:href="#Calibri-31"/>
       <use xlink:href="#Calibri-30" x="50.683594"/>
       <use xlink:href="#Calibri-30" x="101.367188"/>
      </g>
     </g>
    </g>
    <g id="ytick_5">
     <g id="line2d_16">
      <g>
       <use xlink:href="#m2cf06740d7" x="57.6" y="142.59456" style="stroke: #000000; stroke-width: 0.8"/>
      </g>
     </g>
     <g id="text_17">
      <!-- 125 -->
      <g transform="translate(35.39375 145.995341) scale(0.1 -0.1)">
       <use xlink:href="#Calibri-31"/>
       <use xlink:href="#Calibri-32" x="50.683594"/>
       <use xlink:href="#Calibri-35" x="101.367188"/>
      </g>
     </g>
    </g>
    <g id="ytick_6">
     <g id="line2d_17">
      <g>
       <use xlink:href="#m2cf06740d7" x="57.6" y="109.33056" style="stroke: #000000; stroke-width: 0.8"/>
      </g>
     </g>
     <g id="text_18">
      <!-- 150 -->
      <g transform="translate(35.39375 112.731341) scale(0.1 -0.1)">
       <use xlink:href="#Calibri-31"/>
       <use xlink:href="#Calibri-35" x="50.683594"/>
       <use xlink:href="#Calibri-30" x="101.367188"/>
      </g>
     </g>
    </g>
    <g id="ytick_7">
     <g id="line2d_18">
      <g>
       <use xlink:href="#m2cf06740d7" x="57.6" y="76.06656" style="stroke: #000000; stroke-width: 0.8"/>
      </g>
     </g>
     <g id="text_19">
      <!-- 175 -->
      <g transform="translate(35.39375 79.467341) scale(0.1 -0.1)">
       <use xlink:href="#Calibri-31"/>
       <use xlink:href="#Calibri-37" x="50.683594"/>
       <use xlink:href="#Calibri-35" x="101.367188"/>
      </g>
     </g>
    </g>
    <g id="ytick_8">
     <g id="line2d_19">
      <g>
       <use xlink:href="#m2cf06740d7" x="57.6" y="42.80256" style="stroke: #000000; stroke-width: 0.8"/>
      </g>
     </g>
     <g id="text_20">
      <!-- 200 -->
      <g transform="translate(35.39375 46.203341) scale(0.1 -0.1)">
       <use xlink:href="#Calibri-32"/>
       <use xlink:href="#Calibri-30" x="50.683594"/>
       <use xlink:href="#Calibri-30" x="101.367188"/>
      </g>
     </g>
    </g>
    <g id="text_21">
     <!-- $\mathit{Z}$$_{a}$ (nm) -->
     <g transform="translate(29.59375 191.028) rotate(-90) scale(0.1 -0.1)">
      <defs>
       <path id="DejaVuSans-Oblique-5a" d="M 838 4666 
L 4500 4666 
L 4409 4184 
L 794 531 
L 3769 531 
L 3669 0 
L -141 0 
L -50 481 
L 3566 4134 
L 738 4134 
L 838 4666 
z
" transform="scale(0.015625)"/>
       <path id="DejaVuSans-Oblique-61" d="M 3438 1997 
L 3047 0 
L 2472 0 
L 2578 531 
Q 2325 219 2001 64 
Q 1678 -91 1281 -91 
Q 834 -91 548 182 
Q 263 456 263 884 
Q 263 1497 752 1853 
Q 1241 2209 2100 2209 
L 2900 2209 
L 2931 2363 
Q 2938 2388 2941 2417 
Q 2944 2447 2944 2509 
Q 2944 2788 2717 2942 
Q 2491 3097 2081 3097 
Q 1800 3097 1504 3025 
Q 1209 2953 897 2809 
L 997 3341 
Q 1322 3463 1633 3523 
Q 1944 3584 2234 3584 
Q 2853 3584 3176 3315 
Q 3500 3047 3500 2534 
Q 3500 2431 3484 2292 
Q 3469 2153 3438 1997 
z
M 2816 1759 
L 2241 1759 
Q 1534 1759 1195 1570 
Q 856 1381 856 984 
Q 856 709 1029 553 
Q 1203 397 1509 397 
Q 1978 397 2328 733 
Q 2678 1069 2791 1631 
L 2816 1759 
z
" transform="scale(0.015625)"/>
       <path id="Calibri-6e" d="M 2900 78 
Q 2900 53 2887 36 
Q 2875 19 2847 6 
Q 2819 -6 2769 -12 
Q 2719 -19 2644 -19 
Q 2566 -19 2516 -12 
Q 2466 -6 2437 6 
Q 2409 19 2396 36 
Q 2384 53 2384 78 
L 2384 1725 
Q 2384 1966 2346 2112 
Q 2309 2259 2237 2365 
Q 2166 2472 2052 2528 
Q 1938 2584 1788 2584 
Q 1594 2584 1400 2446 
Q 1206 2309 994 2044 
L 994 78 
Q 994 53 981 36 
Q 969 19 941 6 
Q 913 -6 863 -12 
Q 813 -19 734 -19 
Q 659 -19 609 -12 
Q 559 -6 529 6 
Q 500 19 489 36 
Q 478 53 478 78 
L 478 2891 
Q 478 2916 487 2933 
Q 497 2950 525 2964 
Q 553 2978 597 2983 
Q 641 2988 713 2988 
Q 781 2988 826 2983 
Q 872 2978 897 2964 
Q 922 2950 933 2933 
Q 944 2916 944 2891 
L 944 2519 
Q 1181 2784 1417 2907 
Q 1653 3031 1894 3031 
Q 2175 3031 2367 2936 
Q 2559 2841 2678 2681 
Q 2797 2522 2848 2308 
Q 2900 2094 2900 1794 
L 2900 78 
z
" transform="scale(0.015625)"/>
      </defs>
      <use xlink:href="#DejaVuSans-Oblique-5a" transform="translate(0 0.09375)"/>
      <use xlink:href="#DejaVuSans-Oblique-61" transform="translate(69.462891 -16.3125) scale(0.7)"/>
      <use xlink:href="#Calibri-20" transform="translate(115.092773 0.09375)"/>
      <use xlink:href="#Calibri-28" transform="translate(136.575195 0.09375)"/>
      <use xlink:href="#Calibri-6e" transform="translate(166.897461 0.09375)"/>
      <use xlink:href="#Calibri-6d" transform="translate(219.436523 0.09375)"/>
      <use xlink:href="#Calibri-29" transform="translate(299.319336 0.09375)"/>
     </g>
    </g>
   </g>
   <g id="patch_3">
    <path d="M 57.6 307.584 
L 57.6 41.472 
" style="fill: none; stroke: #000000; stroke-width: 0.8; stroke-linejoin: miter; stroke-linecap: square"/>
   </g>
   <g id="patch_4">
    <path d="M 343.296 307.584 
L 343.296 41.472 
" style="fill: none; stroke: #000000; stroke-width: 0.8; stroke-linejoin: miter; stroke-linecap: square"/>
   </g>
   <g id="patch_5">
    <path d="M 57.6 307.584 
L 343.296 307.584 
" style="fill: none; stroke: #000000; stroke-width: 0.8; stroke-linejoin: miter; stroke-linecap: square"/>
   </g>
   <g id="patch_6">
    <path d="M 57.6 41.472 
L 343.296 41.472 
" style="fill: none; stroke: #000000; stroke-width: 0.8; stroke-linejoin: miter; stroke-linecap: square"/>
   </g>
   <g id="text_22">
    <!-- $\theta_m$ = 52 -->
    <g transform="translate(182.298 35.472) scale(0.1 -0.1)">
     <defs>
      <path id="DejaVuSans-Oblique-3b8" d="M 2913 2219 
L 925 2219 
Q 791 1284 928 888 
Q 1100 400 1566 400 
Q 2034 400 2391 891 
Q 2703 1322 2913 2219 
z
M 3009 2750 
Q 3094 3638 2984 3950 
Q 2813 4444 2353 4444 
Q 1875 4444 1525 3956 
Q 1250 3563 1034 2750 
L 3009 2750 
z
M 2444 4913 
Q 3194 4913 3494 4250 
Q 3794 3591 3566 2422 
Q 3341 1256 2781 594 
Q 2225 -72 1475 -72 
Q 722 -72 425 594 
Q 128 1256 353 2422 
Q 581 3591 1134 4250 
Q 1691 4913 2444 4913 
z
" transform="scale(0.015625)"/>
      <path id="DejaVuSans-Oblique-6d" d="M 5747 2113 
L 5338 0 
L 4763 0 
L 5166 2094 
Q 5191 2228 5203 2325 
Q 5216 2422 5216 2491 
Q 5216 2772 5059 2928 
Q 4903 3084 4622 3084 
Q 4203 3084 3875 2770 
Q 3547 2456 3450 1953 
L 3066 0 
L 2491 0 
L 2900 2094 
Q 2925 2209 2937 2307 
Q 2950 2406 2950 2484 
Q 2950 2769 2794 2926 
Q 2638 3084 2363 3084 
Q 1938 3084 1609 2770 
Q 1281 2456 1184 1953 
L 800 0 
L 225 0 
L 909 3500 
L 1484 3500 
L 1375 2956 
Q 1609 3263 1923 3423 
Q 2238 3584 2597 3584 
Q 2978 3584 3223 3384 
Q 3469 3184 3519 2828 
Q 3781 3197 4126 3390 
Q 4472 3584 4856 3584 
Q 5306 3584 5551 3325 
Q 5797 3066 5797 2591 
Q 5797 2488 5784 2364 
Q 5772 2241 5747 2113 
z
" transform="scale(0.015625)"/>
      <path id="Calibri-3d" d="M 2891 2409 
Q 2891 2284 2855 2236 
Q 2819 2188 2772 2188 
L 409 2188 
Q 363 2188 328 2236 
Q 294 2284 294 2409 
Q 294 2522 325 2575 
Q 356 2628 409 2628 
L 2772 2628 
Q 2828 2628 2859 2575 
Q 2891 2522 2891 2409 
z
M 2891 1194 
Q 2891 1069 2855 1022 
Q 2819 975 2772 975 
L 409 975 
Q 363 975 328 1022 
Q 294 1069 294 1194 
Q 294 1309 325 1362 
Q 356 1416 409 1416 
L 2772 1416 
Q 2828 1416 2859 1362 
Q 2891 1309 2891 1194 
z
" transform="scale(0.015625)"/>
      <path id="Calibri-b0" d="M 1847 3541 
Q 1847 3388 1789 3253 
Q 1731 3119 1626 3017 
Q 1522 2916 1380 2859 
Q 1238 2803 1072 2803 
Q 906 2803 770 2854 
Q 634 2906 534 3000 
Q 434 3094 378 3225 
Q 322 3356 322 3516 
Q 322 3675 381 3811 
Q 441 3947 545 4044 
Q 650 4141 790 4197 
Q 931 4253 1097 4253 
Q 1259 4253 1396 4200 
Q 1534 4147 1634 4055 
Q 1734 3963 1790 3831 
Q 1847 3700 1847 3541 
z
M 1453 3528 
Q 1453 3613 1425 3686 
Q 1397 3759 1347 3812 
Q 1297 3866 1228 3895 
Q 1159 3925 1078 3925 
Q 1000 3925 933 3895 
Q 866 3866 816 3812 
Q 766 3759 737 3687 
Q 709 3616 709 3534 
Q 709 3444 737 3369 
Q 766 3294 817 3241 
Q 869 3188 939 3158 
Q 1009 3128 1091 3128 
Q 1166 3128 1233 3159 
Q 1300 3191 1348 3245 
Q 1397 3300 1425 3372 
Q 1453 3444 1453 3528 
z
M 0 4044 
L 0 4044 
z
" transform="scale(0.015625)"/>
     </defs>
     <use xlink:href="#DejaVuSans-Oblique-3b8" transform="translate(0 0.234375)"/>
     <use xlink:href="#DejaVuSans-Oblique-6d" transform="translate(61.181641 -16.171875) scale(0.7)"/>
     <use xlink:href="#Calibri-20" transform="translate(132.104492 0.234375)"/>
     <use xlink:href="#Calibri-3d" transform="translate(154.711914 0.234375)"/>
     <use xlink:href="#Calibri-20" transform="translate(204.516602 0.234375)"/>
     <use xlink:href="#Calibri-35" transform="translate(227.124023 0.234375)"/>
     <use xlink:href="#Calibri-32" transform="translate(277.807617 0.234375)"/>
     <use xlink:href="#Calibri-b0" transform="translate(328.491211 0.234375)"/>
    </g>
   </g>
  </g>
  <g id="axes_2">
   <g id="patch_7">
    <path d="M 361.152 307.584 
L 374.4576 307.584 
L 374.4576 41.472 
L 361.152 41.472 
z
" style="fill: #ffffff"/>
   </g>
   <g id="QuadMesh_1">
    <path d="M 361.152 307.584 
L 374.4576 307.584 
L 374.4576 280.9728 
L 361.152 280.9728 
L 361.152 307.584 
" clip-path="url(#p3eff0f711f)" style="fill: #0000b6"/>
    <path d="M 361.152 280.9728 
L 374.4576 280.9728 
L 374.4576 254.3616 
L 361.152 254.3616 
L 361.152 280.9728 
" clip-path="url(#p3eff0f711f)" style="fill: #0018ff"/>
    <path d="M 361.152 254.3616 
L 374.4576 254.3616 
L 374.4576 227.7504 
L 361.152 227.7504 
L 361.152 254.3616 
" clip-path="url(#p3eff0f711f)" style="fill: #0080ff"/>
    <path d="M 361.152 227.7504 
L 374.4576 227.7504 
L 374.4576 201.1392 
L 361.152 201.1392 
L 361.152 227.7504 
" clip-path="url(#p3eff0f711f)" style="fill: #00e4f8"/>
    <path d="M 361.152 201.1392 
L 374.4576 201.1392 
L 374.4576 174.528 
L 361.152 174.528 
L 361.152 201.1392 
" clip-path="url(#p3eff0f711f)" style="fill: #53ffa4"/>
    <path d="M 361.152 174.528 
L 374.4576 174.528 
L 374.4576 147.9168 
L 361.152 147.9168 
L 361.152 174.528 
" clip-path="url(#p3eff0f711f)" style="fill: #a4ff53"/>
    <path d="M 361.152 147.9168 
L 374.4576 147.9168 
L 374.4576 121.3056 
L 361.152 121.3056 
L 361.152 147.9168 
" clip-path="url(#p3eff0f711f)" style="fill: #f8f500"/>
    <path d="M 361.152 121.3056 
L 374.4576 121.3056 
L 374.4576 94.6944 
L 361.152 94.6944 
L 361.152 121.3056 
" clip-path="url(#p3eff0f711f)" style="fill: #ff9400"/>
    <path d="M 361.152 94.6944 
L 374.4576 94.6944 
L 374.4576 68.0832 
L 361.152 68.0832 
L 361.152 94.6944 
" clip-path="url(#p3eff0f711f)" style="fill: #ff3800"/>
    <path d="M 361.152 68.0832 
L 374.4576 68.0832 
L 374.4576 41.472 
L 361.152 41.472 
L 361.152 68.0832 
" clip-path="url(#p3eff0f711f)" style="fill: #b60000"/>
   </g>
   <g id="matplotlib.axis_3"/>
   <g id="matplotlib.axis_4">
    <g id="ytick_9">
     <g id="line2d_20">
      <defs>
       <path id="mb46840d238" d="M 0 0 
L 3.5 0 
" style="stroke: #000000; stroke-width: 0.8"/>
      </defs>
      <g>
       <use xlink:href="#mb46840d238" x="374.4576" y="307.584" style="stroke: #000000; stroke-width: 0.8"/>
      </g>
     </g>
     <g id="text_23">
      <!-- 0 -->
      <g transform="translate(381.4576 310.984781) scale(0.1 -0.1)">
       <use xlink:href="#Calibri-30"/>
      </g>
     </g>
    </g>
    <g id="ytick_10">
     <g id="line2d_21">
      <g>
       <use xlink:href="#mb46840d238" x="374.4576" y="280.9728" style="stroke: #000000; stroke-width: 0.8"/>
      </g>
     </g>
     <g id="text_24">
      <!-- 0.1 -->
      <g transform="translate(381.4576 284.373581) scale(0.1 -0.1)">
       <use xlink:href="#Calibri-30"/>
       <use xlink:href="#Calibri-2e" x="50.683594"/>
       <use xlink:href="#Calibri-31" x="75.927734"/>
      </g>
     </g>
    </g>
    <g id="ytick_11">
     <g id="line2d_22">
      <g>
       <use xlink:href="#mb46840d238" x="374.4576" y="254.3616" style="stroke: #000000; stroke-width: 0.8"/>
      </g>
     </g>
     <g id="text_25">
      <!-- 0.2 -->
      <g transform="translate(381.4576 257.762381) scale(0.1 -0.1)">
       <use xlink:href="#Calibri-30"/>
       <use xlink:href="#Calibri-2e" x="50.683594"/>
       <use xlink:href="#Calibri-32" x="75.927734"/>
      </g>
     </g>
    </g>
    <g id="ytick_12">
     <g id="line2d_23">
      <g>
       <use xlink:href="#mb46840d238" x="374.4576" y="227.7504" style="stroke: #000000; stroke-width: 0.8"/>
      </g>
     </g>
     <g id="text_26">
      <!-- 0.3 -->
      <g transform="translate(381.4576 231.151181) scale(0.1 -0.1)">
       <use xlink:href="#Calibri-30"/>
       <use xlink:href="#Calibri-2e" x="50.683594"/>
       <use xlink:href="#Calibri-33" x="75.927734"/>
      </g>
     </g>
    </g>
    <g id="ytick_13">
     <g id="line2d_24">
      <g>
       <use xlink:href="#mb46840d238" x="374.4576" y="201.1392" style="stroke: #000000; stroke-width: 0.8"/>
      </g>
     </g>
     <g id="text_27">
      <!-- 0.4 -->
      <g transform="translate(381.4576 204.539981) scale(0.1 -0.1)">
       <use xlink:href="#Calibri-30"/>
       <use xlink:href="#Calibri-2e" x="50.683594"/>
       <use xlink:href="#Calibri-34" x="75.927734"/>
      </g>
     </g>
    </g>
    <g id="ytick_14">
     <g id="line2d_25">
      <g>
       <use xlink:href="#mb46840d238" x="374.4576" y="174.528" style="stroke: #000000; stroke-width: 0.8"/>
      </g>
     </g>
     <g id="text_28">
      <!-- 0.5 -->
      <g transform="translate(381.4576 177.928781) scale(0.1 -0.1)">
       <use xlink:href="#Calibri-30"/>
       <use xlink:href="#Calibri-2e" x="50.683594"/>
       <use xlink:href="#Calibri-35" x="75.927734"/>
      </g>
     </g>
    </g>
    <g id="ytick_15">
     <g id="line2d_26">
      <g>
       <use xlink:href="#mb46840d238" x="374.4576" y="147.9168" style="stroke: #000000; stroke-width: 0.8"/>
      </g>
     </g>
     <g id="text_29">
      <!-- 0.6 -->
      <g transform="translate(381.4576 151.317581) scale(0.1 -0.1)">
       <use xlink:href="#Calibri-30"/>
       <use xlink:href="#Calibri-2e" x="50.683594"/>
       <use xlink:href="#Calibri-36" x="75.927734"/>
      </g>
     </g>
    </g>
    <g id="ytick_16">
     <g id="line2d_27">
      <g>
       <use xlink:href="#mb46840d238" x="374.4576" y="121.3056" style="stroke: #000000; stroke-width: 0.8"/>
      </g>
     </g>
     <g id="text_30">
      <!-- 0.7 -->
      <g transform="translate(381.4576 124.706381) scale(0.1 -0.1)">
       <use xlink:href="#Calibri-30"/>
       <use xlink:href="#Calibri-2e" x="50.683594"/>
       <use xlink:href="#Calibri-37" x="75.927734"/>
      </g>
     </g>
    </g>
    <g id="ytick_17">
     <g id="line2d_28">
      <g>
       <use xlink:href="#mb46840d238" x="374.4576" y="94.6944" style="stroke: #000000; stroke-width: 0.8"/>
      </g>
     </g>
     <g id="text_31">
      <!-- 0.8 -->
      <g transform="translate(381.4576 98.095181) scale(0.1 -0.1)">
       <use xlink:href="#Calibri-30"/>
       <use xlink:href="#Calibri-2e" x="50.683594"/>
       <use xlink:href="#Calibri-38" x="75.927734"/>
      </g>
     </g>
    </g>
    <g id="ytick_18">
     <g id="line2d_29">
      <g>
       <use xlink:href="#mb46840d238" x="374.4576" y="68.0832" style="stroke: #000000; stroke-width: 0.8"/>
      </g>
     </g>
     <g id="text_32">
      <!-- 0.9 -->
      <g transform="translate(381.4576 71.483981) scale(0.1 -0.1)">
       <use xlink:href="#Calibri-30"/>
       <use xlink:href="#Calibri-2e" x="50.683594"/>
       <use xlink:href="#Calibri-39" x="75.927734"/>
      </g>
     </g>
    </g>
    <g id="ytick_19">
     <g id="line2d_30">
      <g>
       <use xlink:href="#mb46840d238" x="374.4576" y="41.472" style="stroke: #000000; stroke-width: 0.8"/>
      </g>
     </g>
     <g id="text_33">
      <!-- 1.0 -->
      <g transform="translate(381.4576 44.872781) scale(0.1 -0.1)">
       <use xlink:href="#Calibri-31"/>
       <use xlink:href="#Calibri-2e" x="50.683594"/>
       <use xlink:href="#Calibri-30" x="75.927734"/>
      </g>
     </g>
    </g>
   </g>
   <g id="LineCollection_1"/>
   <g id="patch_8">
    <path d="M 361.152 307.584 
L 367.8048 307.584 
L 374.4576 307.584 
L 374.4576 41.472 
L 367.8048 41.472 
L 361.152 41.472 
L 361.152 307.584 
z
" style="fill: none; stroke: #000000; stroke-width: 0.8; stroke-linejoin: miter; stroke-linecap: square"/>
   </g>
   <g id="text_34">
    <!-- $\mathit{E}_{\mathrm{NF}}$/$\mathit{E}_{\mathrm{i}}$ -->
    <g transform="translate(353.6548 35.472) scale(0.1 -0.1)">
     <defs>
      <path id="DejaVuSans-Oblique-45" d="M 1081 4666 
L 4031 4666 
L 3928 4134 
L 1606 4134 
L 1338 2753 
L 3566 2753 
L 3463 2222 
L 1234 2222 
L 909 531 
L 3284 531 
L 3181 0 
L 172 0 
L 1081 4666 
z
" transform="scale(0.015625)"/>
      <path id="DejaVuSans-4e" d="M 628 4666 
L 1478 4666 
L 3547 763 
L 3547 4666 
L 4159 4666 
L 4159 0 
L 3309 0 
L 1241 3903 
L 1241 0 
L 628 0 
L 628 4666 
z
" transform="scale(0.015625)"/>
      <path id="DejaVuSans-46" d="M 628 4666 
L 3309 4666 
L 3309 4134 
L 1259 4134 
L 1259 2759 
L 3109 2759 
L 3109 2228 
L 1259 2228 
L 1259 0 
L 628 0 
L 628 4666 
z
" transform="scale(0.015625)"/>
      <path id="DejaVuSans-69" d="M 603 3500 
L 1178 3500 
L 1178 0 
L 603 0 
L 603 3500 
z
M 603 4863 
L 1178 4863 
L 1178 4134 
L 603 4134 
L 603 4863 
z
" transform="scale(0.015625)"/>
     </defs>
     <use xlink:href="#DejaVuSans-Oblique-45" transform="translate(0 0.09375)"/>
     <use xlink:href="#DejaVuSans-4e" transform="translate(63.183594 -16.3125) scale(0.7)"/>
     <use xlink:href="#DejaVuSans-46" transform="translate(115.546875 -16.3125) scale(0.7)"/>
     <use xlink:href="#Calibri-2f" transform="translate(158.544922 0.09375)"/>
     <use xlink:href="#DejaVuSans-Oblique-45" transform="translate(197.167969 0.09375)"/>
     <use xlink:href="#DejaVuSans-69" transform="translate(260.351562 -16.3125) scale(0.7)"/>
    </g>
   </g>
  </g>
 </g>
 <defs>
  <clipPath id="p6340bb3cf7">
   <rect x="57.6" y="41.472" width="285.696" height="266.112"/>
  </clipPath>
  <clipPath id="p3eff0f711f">
   <rect x="361.152" y="41.472" width="13.3056" height="266.112"/>
  </clipPath>
 </defs>
</svg>
