<?xml version="1.0" encoding="utf-8" standalone="no"?>
<!DOCTYPE svg PUBLIC "-//W3C//DTD SVG 1.1//EN"
  "http://www.w3.org/Graphics/SVG/1.1/DTD/svg11.dtd">
<svg xmlns:xlink="http://www.w3.org/1999/xlink" width="460.8pt" height="345.6pt" viewBox="0 0 460.8 345.6" xmlns="http://www.w3.org/2000/svg" version="1.1">
 <metadata>
  <rdf:RDF xmlns:dc="http://purl.org/dc/elements/1.1/" xmlns:cc="http://creativecommons.org/ns#" xmlns:rdf="http://www.w3.org/1999/02/22-rdf-syntax-ns#">
   <cc:Work>
    <dc:type rdf:resource="http://purl.org/dc/dcmitype/StillImage"/>
    <dc:date>2024-01-22T08:38:55.795077</dc:date>
    <dc:format>image/svg+xml</dc:format>
    <dc:creator>
     <cc:Agent>
      <dc:title>Matplotlib v3.7.1, https://matplotlib.org/</dc:title>
     </cc:Agent>
    </dc:creator>
   </cc:Work>
  </rdf:RDF>
 </metadata>
 <defs>
  <style type="text/css">*{stroke-linejoin: round; stroke-linecap: butt}</style>
 </defs>
 <g id="figure_1">
  <g id="patch_1">
   <path d="M 0 345.6 
L 460.8 345.6 
L 460.8 0 
L 0 0 
z
" style="fill: #ffffff"/>
  </g>
  <g id="axes_1">
   <g id="patch_2">
    <path d="M 57.6 307.584 
L 343.296 307.584 
L 343.296 41.472 
L 57.6 41.472 
z
" style="fill: #ffffff"/>
   </g>
   <g id="PathCollection_1">
    <path d="M 94.692848 41.472 
L 95.05617 42.073517 
L 95.283744 42.44628 
L 96.148404 43.866147 
L 96.713681 44.7984 
L 97.119768 45.458861 
L 97.4828 46.051282 
L 97.892543 46.711333 
L 98.16389 47.15052 
L 98.759633 48.116516 
L 98.764823 48.1248 
L 98.766232 48.127116 
L 99.376769 49.09908 
L 99.648067 49.531666 
L 100.05071 50.176829 
L 100.422679 50.765129 
L 100.854786 51.4512 
L 101.414761 52.327615 
L 102.352654 53.80332 
L 102.549979 54.114085 
L 102.975025 54.7776 
L 103.187753 55.109816 
L 103.33993 55.342033 
L 103.33993 54.7776 
L 103.33993 51.4512 
L 103.33993 48.1248 
L 103.33993 44.7984 
L 103.33993 41.472 
L 101.816218 41.472 
L 100.292506 41.472 
L 98.768794 41.472 
L 97.245082 41.472 
L 95.72137 41.472 
" clip-path="url(#p7d1ac68634)" style="fill: #0000b6"/>
   </g>
   <g id="PathCollection_2">
    <path d="M 103.33993 55.342033 
L 103.187753 55.109816 
L 102.975025 54.7776 
L 102.549979 54.114085 
L 102.352654 53.80332 
L 101.414761 52.327615 
L 100.854786 51.4512 
L 100.422679 50.765129 
L 100.05071 50.176829 
L 99.648067 49.531666 
L 99.376769 49.09908 
L 98.766232 48.127116 
L 98.764823 48.1248 
L 98.759633 48.116516 
L 98.16389 47.15052 
L 97.892543 46.711333 
L 97.4828 46.051282 
L 97.119768 45.458861 
L 96.713681 44.7984 
L 96.148404 43.866147 
L 95.283744 42.44628 
L 95.05617 42.073517 
L 94.692848 41.472 
L 94.197658 41.472 
L 92.673946 41.472 
L 91.150234 41.472 
L 89.626522 41.472 
L 88.10281 41.472 
L 86.579098 41.472 
L 85.055386 41.472 
L 83.531674 41.472 
L 82.007962 41.472 
L 80.48425 41.472 
L 78.960538 41.472 
L 77.436826 41.472 
L 75.913114 41.472 
L 74.389402 41.472 
L 72.86569 41.472 
L 71.341978 41.472 
L 69.818266 41.472 
L 68.294554 41.472 
L 66.770842 41.472 
L 65.24713 41.472 
L 63.723418 41.472 
L 62.199706 41.472 
L 60.675994 41.472 
L 59.152282 41.472 
L 57.62857 41.472 
L 57.62857 44.7984 
L 57.62857 48.1248 
L 57.62857 51.4512 
L 57.62857 54.7776 
L 57.62857 58.104 
L 57.62857 61.4304 
L 57.62857 64.7568 
L 57.62857 68.0832 
L 57.62857 71.4096 
L 57.62857 74.736 
L 57.62857 78.0624 
L 57.62857 81.3888 
L 57.62857 84.7152 
L 57.62857 88.0416 
L 57.62857 91.368 
L 57.62857 94.6944 
L 57.62857 98.0208 
L 57.62857 100.84046 
L 57.759799 101.060715 
L 57.934001 101.3472 
L 58.365349 102.058796 
L 58.526987 102.32148 
L 59.500981 103.912358 
L 59.968378 104.6736 
L 60.510175 105.547537 
L 60.987647 106.31615 
L 61.253311 106.739665 
L 61.433158 107.02572 
L 61.838888 107.673725 
L 62.045951 108 
L 62.100966 108.089287 
L 62.665713 108.97428 
L 63.021051 109.533329 
L 63.536824 110.342971 
L 63.825007 110.790978 
L 64.169897 111.3264 
L 64.802066 112.298015 
L 65.701803 113.67852 
L 65.932273 114.033248 
L 66.347785 114.6528 
L 66.823322 115.380411 
L 66.982812 115.62708 
L 67.165218 115.900663 
L 67.730289 116.747359 
L 68.400662 117.747555 
L 68.556071 117.9792 
L 69.542264 119.433849 
L 70.151115 120.33132 
L 70.55476 120.916274 
L 70.824815 121.3056 
L 71.020865 121.595971 
L 71.496207 122.27988 
L 72.05232 123.081258 
L 72.766678 124.110164 
L 72.922524 124.332459 
L 73.132545 124.632 
L 73.895972 125.709202 
L 74.799558 126.98412 
L 75.060034 127.35197 
L 75.500906 127.9584 
L 76.005197 128.666425 
L 76.192855 128.93268 
L 76.324846 129.114789 
L 76.64554 129.557352 
L 77.616989 130.891487 
L 77.903214 131.2848 
L 78.743792 132.427148 
L 79.328 133.221492 
L 79.494451 133.44562 
L 79.63638 133.63692 
L 80.104705 134.267991 
L 80.288774 134.514526 
L 80.361298 134.6112 
L 80.394121 134.655774 
L 80.410345 134.67803 
L 81.092515 135.58548 
L 81.384075 135.973201 
L 81.720109 136.420487 
L 82.180627 137.027577 
L 82.870255 137.9376 
L 83.284236 138.477779 
L 84.516797 140.088213 
L 84.62151 140.224319 
L 84.671762 140.28972 
L 84.711057 140.340144 
L 85.434343 141.264 
L 85.903437 141.874977 
L 86.188417 142.23828 
L 87.115724 143.418897 
L 88.034161 144.5904 
L 88.089556 144.660252 
L 88.124416 144.704275 
L 89.046221 145.857249 
L 89.911978 146.94252 
L 90.244211 147.358245 
L 90.391931 147.53826 
L 90.699353 147.9168 
L 91.402922 148.795335 
L 91.479938 148.89108 
L 91.574507 149.007093 
L 91.746488 149.218477 
L 92.935591 150.672005 
L 93.401613 151.2432 
L 94.048893 152.027255 
L 94.435458 152.496516 
L 94.894476 153.048382 
L 95.34802 153.59532 
L 95.970641 154.344193 
L 96.161318 154.5696 
L 96.923859 155.482029 
L 96.97502 155.54388 
L 97.560276 156.234785 
L 98.537796 157.391712 
L 98.837977 157.744966 
L 98.965875 157.896 
L 100.052053 159.163291 
L 100.670174 159.886483 
L 100.823214 160.063817 
L 100.981668 160.24812 
L 101.819522 161.219412 
L 101.822111 161.2224 
L 101.84362 161.247179 
L 102.669605 162.19668 
L 102.816533 162.365021 
L 102.956019 162.525419 
L 103.33993 162.958728 
L 103.33993 161.2224 
L 103.33993 157.896 
L 103.33993 154.5696 
L 103.33993 151.2432 
L 103.33993 147.9168 
L 103.33993 144.5904 
L 103.33993 141.264 
L 103.33993 137.9376 
L 103.33993 134.6112 
L 103.33993 131.2848 
L 103.33993 127.9584 
L 103.33993 124.632 
L 103.33993 121.3056 
L 103.33993 117.9792 
L 103.33993 114.6528 
L 103.33993 111.3264 
L 103.33993 108 
L 103.33993 104.6736 
L 103.33993 101.3472 
L 103.33993 98.0208 
L 103.33993 94.6944 
L 103.33993 91.368 
L 103.33993 88.0416 
L 103.33993 84.7152 
L 103.33993 81.3888 
L 103.33993 78.0624 
L 103.33993 74.736 
L 103.33993 71.4096 
L 103.33993 68.0832 
L 103.33993 64.7568 
L 103.33993 61.4304 
L 103.33993 58.104 
" clip-path="url(#p7d1ac68634)" style="fill: #0018ff"/>
   </g>
   <g id="PathCollection_3">
    <path d="M 103.33993 162.958728 
L 102.956019 162.525419 
L 102.816533 162.365021 
L 102.669605 162.19668 
L 101.84362 161.247179 
L 101.822111 161.2224 
L 101.819522 161.219412 
L 100.981668 160.24812 
L 100.823214 160.063817 
L 100.670174 159.886483 
L 100.052053 159.163291 
L 98.965875 157.896 
L 98.837977 157.744966 
L 98.537796 157.391712 
L 97.560276 156.234785 
L 96.97502 155.54388 
L 96.923859 155.482029 
L 96.161318 154.5696 
L 95.970641 154.344193 
L 95.34802 153.59532 
L 94.894476 153.048382 
L 94.435458 152.496516 
L 94.048893 152.027255 
L 93.401613 151.2432 
L 92.935591 150.672005 
L 91.746488 149.218477 
L 91.574507 149.007093 
L 91.479938 148.89108 
L 91.402922 148.795335 
L 90.699353 147.9168 
L 90.391931 147.53826 
L 90.244211 147.358245 
L 89.911978 146.94252 
L 89.046221 145.857249 
L 88.124416 144.704275 
L 88.089556 144.660252 
L 88.034161 144.5904 
L 87.115724 143.418897 
L 86.188417 142.23828 
L 85.903437 141.874977 
L 85.434343 141.264 
L 84.711057 140.340144 
L 84.671762 140.28972 
L 84.62151 140.224319 
L 84.516797 140.088213 
L 83.284236 138.477779 
L 82.870255 137.9376 
L 82.180627 137.027577 
L 81.720109 136.420487 
L 81.384075 135.973201 
L 81.092515 135.58548 
L 80.410345 134.67803 
L 80.394121 134.655774 
L 80.361298 134.6112 
L 80.288774 134.514526 
L 80.104705 134.267991 
L 79.63638 133.63692 
L 79.494451 133.44562 
L 79.328 133.221492 
L 78.743792 132.427148 
L 77.903214 131.2848 
L 77.616989 130.891487 
L 76.64554 129.557352 
L 76.324846 129.114789 
L 76.192855 128.93268 
L 76.005197 128.666425 
L 75.500906 127.9584 
L 75.060034 127.35197 
L 74.799558 126.98412 
L 73.895972 125.709202 
L 73.132545 124.632 
L 72.922524 124.332459 
L 72.766678 124.110164 
L 72.05232 123.081258 
L 71.496207 122.27988 
L 71.020865 121.595971 
L 70.824815 121.3056 
L 70.55476 120.916274 
L 70.151115 120.33132 
L 69.542264 119.433849 
L 68.556071 117.9792 
L 68.400662 117.747555 
L 67.730289 116.747359 
L 67.165218 115.900663 
L 66.982812 115.62708 
L 66.823322 115.380411 
L 66.347785 114.6528 
L 65.932273 114.033248 
L 65.701803 113.67852 
L 64.802066 112.298015 
L 64.169897 111.3264 
L 63.825007 110.790978 
L 63.536824 110.342971 
L 63.021051 109.533329 
L 62.665713 108.97428 
L 62.100966 108.089287 
L 62.045951 108 
L 61.838888 107.673725 
L 61.433158 107.02572 
L 61.253311 106.739665 
L 60.987647 106.31615 
L 60.510175 105.547537 
L 59.968378 104.6736 
L 59.500981 103.912358 
L 58.526987 102.32148 
L 58.365349 102.058796 
L 57.934001 101.3472 
L 57.759799 101.060715 
L 57.62857 100.84046 
L 57.62857 101.3472 
L 57.62857 104.6736 
L 57.62857 108 
L 57.62857 111.3264 
L 57.62857 114.6528 
L 57.62857 117.9792 
L 57.62857 121.3056 
L 57.62857 124.632 
L 57.62857 127.9584 
L 57.62857 131.2848 
L 57.62857 134.6112 
L 57.62857 137.9376 
L 57.62857 141.264 
L 57.62857 144.5904 
L 57.62857 147.9168 
L 57.62857 151.2432 
L 57.62857 154.5696 
L 57.62857 157.896 
L 57.62857 161.2224 
L 57.62857 164.5488 
L 57.62857 167.8752 
L 57.62857 171.2016 
L 57.62857 174.528 
L 57.62857 176.751667 
L 57.795094 176.976742 
L 58.451159 177.8544 
L 58.88664 178.43432 
L 60.226983 180.20652 
L 60.228089 180.207985 
L 60.474331 180.526969 
L 60.978729 181.1808 
L 61.312382 181.619634 
L 61.476141 181.835094 
L 61.724826 182.15508 
L 62.700731 183.413417 
L 63.554615 184.5072 
L 63.690535 184.680505 
L 63.777144 184.790364 
L 64.625978 185.863229 
L 65.418984 186.85932 
L 65.79767 187.335765 
L 66.201335 187.8336 
L 66.826753 188.614817 
L 66.981348 188.80788 
L 67.172369 189.04377 
L 67.522009 189.473465 
L 68.511283 190.68686 
L 68.899249 191.16 
L 69.646238 192.066665 
L 70.092624 192.605993 
L 70.470949 193.061534 
L 70.847189 193.51212 
L 71.523232 194.322498 
L 71.662402 194.4864 
L 71.890076 194.757467 
L 72.480863 195.46068 
L 73.160122 196.261008 
L 74.280911 197.575955 
L 74.42214 197.741328 
L 74.483483 197.8128 
L 75.655306 199.171559 
L 76.315601 199.934088 
L 76.413509 200.046793 
L 76.516612 200.16492 
L 77.104472 200.838665 
L 77.367207 201.1392 
L 77.397783 201.174505 
L 78.224006 202.11348 
L 78.414852 202.330482 
L 78.593847 202.532979 
L 79.197934 203.214414 
L 80.311295 204.4656 
L 80.425647 204.593535 
L 80.664844 204.859853 
L 81.712273 206.024011 
L 82.428972 206.81772 
L 82.436823 206.826337 
L 83.316381 207.792 
L 83.413196 207.899135 
L 84.207856 208.76628 
L 84.475374 209.058217 
L 84.713595 209.317012 
L 85.280608 209.931378 
L 86.379824 211.1184 
L 86.513342 211.26195 
L 86.771393 211.538199 
L 87.812114 212.650498 
L 88.540801 213.426808 
L 88.559848 213.447045 
L 88.582022 213.47052 
L 88.775614 213.675354 
L 89.503557 214.4448 
L 89.56005 214.504908 
L 90.429858 215.41908 
L 90.614893 215.613496 
L 90.772038 215.777938 
L 91.403371 216.437055 
L 92.663755 217.748953 
L 92.677563 217.763302 
L 92.685189 217.7712 
L 93.950213 219.075345 
L 94.565016 219.70734 
L 94.748363 219.895361 
L 94.971368 220.12332 
L 95.829516 220.999807 
L 95.858961 221.029553 
L 95.926276 221.0976 
L 96.120593 221.295039 
L 96.885258 222.07188 
L 97.56184 222.754541 
L 98.382197 223.580024 
L 98.911687 224.112051 
L 99.223083 224.424 
L 100.122331 225.320897 
L 100.541868 225.73825 
L 101.004037 226.197063 
L 101.588999 226.77612 
L 102.212169 227.392355 
L 102.575874 227.7504 
L 103.102567 228.268583 
L 103.33993 228.499865 
L 103.33993 227.7504 
L 103.33993 224.424 
L 103.33993 221.0976 
L 103.33993 217.7712 
L 103.33993 214.4448 
L 103.33993 211.1184 
L 103.33993 207.792 
L 103.33993 204.4656 
L 103.33993 201.1392 
L 103.33993 197.8128 
L 103.33993 194.4864 
L 103.33993 191.16 
L 103.33993 187.8336 
L 103.33993 184.5072 
L 103.33993 181.1808 
L 103.33993 177.8544 
L 103.33993 174.528 
L 103.33993 171.2016 
L 103.33993 167.8752 
L 103.33993 164.5488 
" clip-path="url(#p7d1ac68634)" style="fill: #0080ff"/>
   </g>
   <g id="PathCollection_4">
    <path d="M 103.33993 228.499865 
L 103.102567 228.268583 
L 102.575874 227.7504 
L 102.212169 227.392355 
L 101.588999 226.77612 
L 101.004037 226.197063 
L 100.541868 225.73825 
L 100.122331 225.320897 
L 99.223083 224.424 
L 98.911687 224.112051 
L 98.382197 223.580024 
L 97.56184 222.754541 
L 96.885258 222.07188 
L 96.120593 221.295039 
L 95.926276 221.0976 
L 95.858961 221.029553 
L 95.829516 220.999807 
L 94.971368 220.12332 
L 94.748363 219.895361 
L 94.565016 219.70734 
L 93.950213 219.075345 
L 92.685189 217.7712 
L 92.677563 217.763302 
L 92.663755 217.748953 
L 91.403371 216.437055 
L 90.772038 215.777938 
L 90.614893 215.613496 
L 90.429858 215.41908 
L 89.56005 214.504908 
L 89.503557 214.4448 
L 88.775614 213.675354 
L 88.582022 213.47052 
L 88.559848 213.447045 
L 88.540801 213.426808 
L 87.812114 212.650498 
L 86.771393 211.538199 
L 86.513342 211.26195 
L 86.379824 211.1184 
L 85.280608 209.931378 
L 84.713595 209.317012 
L 84.475374 209.058217 
L 84.207856 208.76628 
L 83.413196 207.899135 
L 83.316381 207.792 
L 82.436823 206.826337 
L 82.428972 206.81772 
L 81.712273 206.024011 
L 80.664844 204.859853 
L 80.425647 204.593535 
L 80.311295 204.4656 
L 79.197934 203.214414 
L 78.593847 202.532979 
L 78.414852 202.330482 
L 78.224006 202.11348 
L 77.397783 201.174505 
L 77.367207 201.1392 
L 77.104472 200.838665 
L 76.516612 200.16492 
L 76.413509 200.046793 
L 76.315601 199.934088 
L 75.655306 199.171559 
L 74.483483 197.8128 
L 74.42214 197.741328 
L 74.280911 197.575955 
L 73.160122 196.261008 
L 72.480863 195.46068 
L 71.890076 194.757467 
L 71.662402 194.4864 
L 71.523232 194.322498 
L 70.847189 193.51212 
L 70.470949 193.061534 
L 70.092624 192.605993 
L 69.646238 192.066665 
L 68.899249 191.16 
L 68.511283 190.68686 
L 67.522009 189.473465 
L 67.172369 189.04377 
L 66.981348 188.80788 
L 66.826753 188.614817 
L 66.201335 187.8336 
L 65.79767 187.335765 
L 65.418984 186.85932 
L 64.625978 185.863229 
L 63.777144 184.790364 
L 63.690535 184.680505 
L 63.554615 184.5072 
L 62.700731 183.413417 
L 61.724826 182.15508 
L 61.476141 181.835094 
L 61.312382 181.619634 
L 60.978729 181.1808 
L 60.474331 180.526969 
L 60.228089 180.207985 
L 60.226983 180.20652 
L 58.88664 178.43432 
L 58.451159 177.8544 
L 57.795094 176.976742 
L 57.62857 176.751667 
L 57.62857 177.8544 
L 57.62857 181.1808 
L 57.62857 184.5072 
L 57.62857 187.8336 
L 57.62857 191.16 
L 57.62857 194.4864 
L 57.62857 197.8128 
L 57.62857 201.1392 
L 57.62857 204.4656 
L 57.62857 207.792 
L 57.62857 211.1184 
L 57.62857 214.4448 
L 57.62857 217.7712 
L 57.62857 221.0976 
L 57.62857 224.424 
L 57.62857 227.7504 
L 57.62857 231.0768 
L 57.62857 234.4032 
L 57.62857 237.7296 
L 57.62857 239.988759 
L 57.946529 240.361865 
L 58.537663 241.056 
L 58.80449 241.370496 
L 59.371105 242.03028 
L 59.929789 242.685032 
L 60.472736 243.311143 
L 60.805931 243.69757 
L 61.403879 244.3824 
L 61.924648 244.982874 
L 63.070225 246.282821 
L 63.310844 246.556849 
L 63.468809 246.73452 
L 63.620358 246.904265 
L 64.335229 247.7088 
L 64.740797 248.166659 
L 65.204818 248.68308 
L 65.944868 249.511974 
L 66.623857 250.260523 
L 66.866708 250.529944 
L 67.327817 251.0352 
L 67.969909 251.743929 
L 69.262578 253.148485 
L 69.390762 253.288336 
L 69.482613 253.38732 
L 69.576977 253.488703 
L 70.385717 254.3616 
L 70.821134 254.832581 
L 71.292395 255.33588 
L 72.047578 256.147612 
L 72.70552 256.843837 
L 72.971986 257.127769 
L 73.504281 257.688 
L 74.099933 258.319937 
L 75.20997 259.479375 
L 75.512907 259.797268 
L 75.7472 260.04012 
L 76.003997 260.305782 
L 76.68592 261.0144 
L 76.927185 261.266447 
L 77.035062 261.377701 
L 77.628938 261.98868 
L 78.229404 262.610531 
L 78.728863 263.119773 
L 79.116624 263.518157 
L 79.927294 264.3408 
L 80.306454 264.728943 
L 80.967001 265.394691 
L 81.672398 266.109369 
L 82.255538 266.69292 
L 82.934705 267.371964 
L 83.228704 267.6672 
L 83.328367 267.767747 
L 83.372209 267.811398 
L 84.206692 268.64148 
L 84.482543 268.917767 
L 84.702713 269.13486 
L 85.296108 269.724886 
L 86.571742 270.977542 
L 86.581871 270.987544 
L 86.588096 270.9936 
L 87.86495 272.247226 
L 88.447917 272.81247 
L 88.686496 273.04576 
L 88.997861 273.34572 
L 89.821095 274.144054 
L 90.004124 274.32 
L 90.908806 275.192966 
L 91.015163 275.29428 
L 91.506483 275.768806 
L 92.052326 276.289348 
L 92.915963 277.118055 
L 93.474928 277.6464 
L 94.086803 278.230652 
L 94.35681 278.485206 
L 95.039552 279.134869 
L 95.960993 279.99852 
L 96.370916 280.385438 
L 96.998017 280.9728 
L 97.868136 281.787234 
L 98.040189 281.94708 
L 99.304353 283.130026 
L 100.23305 283.985841 
L 100.334118 284.079882 
L 100.572753 284.2992 
L 101.444961 285.109686 
L 102.723255 286.279343 
L 102.928363 286.468337 
L 103.33993 286.848742 
L 103.33993 284.2992 
L 103.33993 280.9728 
L 103.33993 277.6464 
L 103.33993 274.32 
L 103.33993 270.9936 
L 103.33993 267.6672 
L 103.33993 264.3408 
L 103.33993 261.0144 
L 103.33993 257.688 
L 103.33993 254.3616 
L 103.33993 251.0352 
L 103.33993 247.7088 
L 103.33993 244.3824 
L 103.33993 241.056 
L 103.33993 237.7296 
L 103.33993 234.4032 
L 103.33993 231.0768 
" clip-path="url(#p7d1ac68634)" style="fill: #00e4f8"/>
   </g>
   <g id="PathCollection_5">
    <path d="M 103.33993 286.848742 
L 102.928363 286.468337 
L 102.723255 286.279343 
L 101.444961 285.109686 
L 100.572753 284.2992 
L 100.334118 284.079882 
L 100.23305 283.985841 
L 99.304353 283.130026 
L 98.040189 281.94708 
L 97.868136 281.787234 
L 96.998017 280.9728 
L 96.370916 280.385438 
L 95.960993 279.99852 
L 95.039552 279.134869 
L 94.35681 278.485206 
L 94.086803 278.230652 
L 93.474928 277.6464 
L 92.915963 277.118055 
L 92.052326 276.289348 
L 91.506483 275.768806 
L 91.015163 275.29428 
L 90.908806 275.192966 
L 90.004124 274.32 
L 89.821095 274.144054 
L 88.997861 273.34572 
L 88.686496 273.04576 
L 88.447917 272.81247 
L 87.86495 272.247226 
L 86.588096 270.9936 
L 86.581871 270.987544 
L 86.571742 270.977542 
L 85.296108 269.724886 
L 84.702713 269.13486 
L 84.482543 268.917767 
L 84.206692 268.64148 
L 83.372209 267.811398 
L 83.328367 267.767747 
L 83.228704 267.6672 
L 82.934705 267.371964 
L 82.255538 266.69292 
L 81.672398 266.109369 
L 80.967001 265.394691 
L 80.306454 264.728943 
L 79.927294 264.3408 
L 79.116624 263.518157 
L 78.728863 263.119773 
L 78.229404 262.610531 
L 77.628938 261.98868 
L 77.035062 261.377701 
L 76.927185 261.266447 
L 76.68592 261.0144 
L 76.003997 260.305782 
L 75.7472 260.04012 
L 75.512907 259.797268 
L 75.20997 259.479375 
L 74.099933 258.319937 
L 73.504281 257.688 
L 72.971986 257.127769 
L 72.70552 256.843837 
L 72.047578 256.147612 
L 71.292395 255.33588 
L 70.821134 254.832581 
L 70.385717 254.3616 
L 69.576977 253.488703 
L 69.482613 253.38732 
L 69.390762 253.288336 
L 69.262578 253.148485 
L 67.969909 251.743929 
L 67.327817 251.0352 
L 66.866708 250.529944 
L 66.623857 250.260523 
L 65.944868 249.511974 
L 65.204818 248.68308 
L 64.740797 248.166659 
L 64.335229 247.7088 
L 63.620358 246.904265 
L 63.468809 246.73452 
L 63.310844 246.556849 
L 63.070225 246.282821 
L 61.924648 244.982874 
L 61.403879 244.3824 
L 60.805931 243.69757 
L 60.472736 243.311143 
L 59.929789 242.685032 
L 59.371105 242.03028 
L 58.80449 241.370496 
L 58.537663 241.056 
L 57.946529 240.361865 
L 57.62857 239.988759 
L 57.62857 241.056 
L 57.62857 244.3824 
L 57.62857 247.7088 
L 57.62857 251.0352 
L 57.62857 254.3616 
L 57.62857 257.688 
L 57.62857 261.0144 
L 57.62857 264.3408 
L 57.62857 267.6672 
L 57.62857 270.9936 
L 57.62857 274.32 
L 57.62857 277.6464 
L 57.62857 280.9728 
L 57.62857 284.2992 
L 57.62857 287.6256 
L 57.62857 290.952 
L 57.62857 294.2784 
L 57.62857 297.6048 
L 57.62857 300.9312 
L 57.62857 304.2576 
L 57.62857 307.584 
L 59.152282 307.584 
L 60.675994 307.584 
L 62.199706 307.584 
L 63.723418 307.584 
L 65.24713 307.584 
L 66.770842 307.584 
L 68.294554 307.584 
L 69.818266 307.584 
L 71.341978 307.584 
L 72.86569 307.584 
L 74.389402 307.584 
L 75.913114 307.584 
L 77.436826 307.584 
L 78.960538 307.584 
L 80.48425 307.584 
L 82.007962 307.584 
L 83.531674 307.584 
L 85.055386 307.584 
L 86.579098 307.584 
L 88.10281 307.584 
L 89.626522 307.584 
L 91.150234 307.584 
L 92.673946 307.584 
L 94.197658 307.584 
L 95.72137 307.584 
L 97.245082 307.584 
L 98.768794 307.584 
L 100.292506 307.584 
L 101.816218 307.584 
L 103.33993 307.584 
L 103.33993 304.2576 
L 103.33993 300.9312 
L 103.33993 297.6048 
L 103.33993 294.2784 
L 103.33993 290.952 
L 103.33993 287.6256 
" clip-path="url(#p7d1ac68634)" style="fill: #53ffa4"/>
   </g>
   <g id="PathCollection_6">
    <path clip-path="url(#p7d1ac68634)" style="fill: #a4ff53"/>
   </g>
   <g id="PathCollection_7">
    <path clip-path="url(#p7d1ac68634)" style="fill: #f8f500"/>
   </g>
   <g id="PathCollection_8">
    <path clip-path="url(#p7d1ac68634)" style="fill: #ff9400"/>
   </g>
   <g id="PathCollection_9">
    <path clip-path="url(#p7d1ac68634)" style="fill: #ff3800"/>
   </g>
   <g id="PathCollection_10">
    <path clip-path="url(#p7d1ac68634)" style="fill: #b60000"/>
   </g>
   <g id="PathCollection_11">
    <path d="M 100.4544 50.806695 
L 100.893276 51.50347 
L 103.635465 55.726908 
L 104.226371 56.61472 
L 104.750793 57.488718 
L 105.925137 59.2128 
L 106.517133 60.13513 
L 107.723836 61.81088 
L 110.463747 65.985103 
L 111.870343 68.0832 
L 114.943745 72.580898 
L 116.169669 74.35552 
L 116.67052 74.937468 
L 118.269132 76.9536 
L 119.134369 78.344836 
L 119.654862 79.26112 
L 119.879384 79.55168 
L 123.130191 84.061508 
L 124.422465 85.824 
L 124.565139 86.014039 
L 129.159611 92.09632 
L 129.475996 92.544051 
L 130.199478 93.338731 
L 131.336336 94.6944 
L 132.649947 96.658396 
L 133.101116 97.29248 
L 134.522939 99.094713 
L 138.04245 103.5648 
L 139.400365 105.238821 
L 143.106908 109.83712 
L 144.023345 111.030205 
L 144.514274 111.54491 
L 145.295739 112.4352 
L 147.160196 114.907079 
L 147.24707 115.03328 
L 150.108699 118.43258 
L 152.503234 121.3056 
L 154.745927 123.904365 
L 157.861462 127.57792 
L 159.212288 129.225136 
L 160.103108 130.176 
L 160.817782 131.094607 
L 161.82365 132.312176 
L 162.237971 132.77408 
L 162.532606 133.112323 
L 163.316133 134.030354 
L 165.972636 137.034516 
L 167.720887 139.0464 
L 170.499922 142.122336 
L 173.308944 145.31872 
L 174.915203 147.186773 
L 175.613026 147.9168 
L 176.197013 148.634273 
L 177.043112 149.612697 
L 177.878149 150.51488 
L 178.453237 151.147691 
L 179.883149 152.770051 
L 182.031144 155.121705 
L 183.515359 156.7872 
L 186.533776 160.033631 
L 189.243331 163.05952 
L 190.955858 164.995107 
L 191.591701 165.6576 
L 192.946531 167.223671 
L 193.916187 168.25568 
L 194.574717 168.962963 
L 196.156072 170.73171 
L 198.194288 172.932074 
L 199.626376 174.528 
L 202.699335 177.800601 
L 205.385119 180.80032 
L 207.121481 182.746718 
L 207.358877 182.98305 
L 207.737786 183.3984 
L 209.073057 184.935914 
L 210.065974 185.99648 
L 210.746005 186.723655 
L 212.378749 188.560441 
L 214.365976 190.719836 
L 215.736812 192.2688 
L 218.832633 195.602922 
L 221.406531 198.54112 
L 223.173213 200.550025 
L 223.382234 200.76508 
L 223.710064 201.1392 
L 224.176431 201.710479 
L 224.865107 202.496336 
L 225.998017 203.73728 
L 226.801166 204.611601 
L 228.807738 206.934983 
L 230.440769 208.763943 
L 231.502017 210.0096 
L 234.753476 213.638058 
L 236.962044 216.28192 
L 238.854074 218.521671 
L 238.975286 218.653933 
L 239.160121 218.88 
L 239.42096 219.216706 
L 239.798645 219.667075 
L 241.369913 221.47808 
L 242.55677 222.82781 
L 245.800727 226.801616 
L 246.295793 227.389458 
L 246.583276 227.7504 
L 250.259825 232.127406 
L 251.72252 234.02272 
L 253.495177 236.276329 
L 253.783324 236.6208 
L 253.865046 236.717377 
L 253.910029 236.776967 
L 255.860098 239.21888 
L 257.803849 241.601272 
L 260.704074 245.4912 
L 261.815516 246.902034 
L 264.000268 249.860251 
L 265.115556 251.329718 
L 265.412296 251.76352 
L 265.737591 252.225552 
L 266.583047 253.40324 
L 267.33416 254.3616 
L 268.117789 255.417263 
L 269.20465 256.95968 
L 272.292876 261.205428 
L 273.611055 263.232 
L 276.794671 267.844711 
L 277.853669 269.50432 
L 278.323574 270.146182 
L 279.56009 272.1024 
L 280.59192 273.602084 
L 281.170019 274.58206 
L 281.239305 274.70048 
L 281.916455 275.804334 
L 285.16347 280.9728 
L 285.784298 281.902785 
L 288.901221 287.24512 
L 289.658558 288.469864 
L 290.387276 289.8432 
L 291.710716 292.148023 
L 291.884151 292.44128 
L 292.07713 292.747741 
L 293.376795 295.139756 
L 294.979329 298.047847 
L 295.309162 298.7136 
L 298.074127 303.916878 
L 298.545326 304.98592 
L 298.952531 305.827444 
L 299.838289 307.584 
L 302.8224 307.584 
L 310.91712 307.584 
L 319.01184 307.584 
L 327.10656 307.584 
L 335.20128 307.584 
L 343.296 307.584 
L 343.296 298.7136 
L 343.296 289.8432 
L 343.296 280.9728 
L 343.296 272.1024 
L 343.296 263.232 
L 343.296 254.3616 
L 343.296 245.4912 
L 343.296 236.6208 
L 343.296 227.7504 
L 343.296 218.88 
L 343.296 210.0096 
L 343.296 201.1392 
L 343.296 192.2688 
L 343.296 183.3984 
L 343.296 174.528 
L 343.296 165.6576 
L 343.296 156.7872 
L 343.296 147.9168 
L 343.296 139.0464 
L 343.296 130.176 
L 343.296 121.3056 
L 343.296 112.4352 
L 343.296 103.5648 
L 343.296 94.6944 
L 343.296 85.824 
L 343.296 76.9536 
L 343.296 68.0832 
L 343.296 59.2128 
L 343.296 50.3424 
L 343.296 41.472 
L 335.20128 41.472 
L 327.10656 41.472 
L 319.01184 41.472 
L 310.91712 41.472 
L 302.8224 41.472 
L 294.72768 41.472 
L 286.63296 41.472 
L 278.53824 41.472 
L 270.44352 41.472 
L 262.3488 41.472 
L 254.25408 41.472 
L 246.15936 41.472 
L 238.06464 41.472 
L 229.96992 41.472 
L 221.8752 41.472 
L 213.78048 41.472 
L 205.68576 41.472 
L 197.59104 41.472 
L 189.49632 41.472 
L 181.4016 41.472 
L 173.30688 41.472 
L 165.21216 41.472 
L 157.11744 41.472 
L 149.02272 41.472 
L 140.928 41.472 
L 132.83328 41.472 
L 124.73856 41.472 
L 116.64384 41.472 
L 108.54912 41.472 
L 100.4544 41.472 
L 100.4544 50.3424 
" clip-path="url(#p7d1ac68634)" style="fill: #0000b6"/>
   </g>
   <g id="PathCollection_12">
    <path d="M 299.838289 307.584 
L 298.952531 305.827444 
L 298.545326 304.98592 
L 298.074127 303.916878 
L 295.309162 298.7136 
L 294.979329 298.047847 
L 293.376795 295.139756 
L 292.07713 292.747741 
L 291.884151 292.44128 
L 291.710716 292.148023 
L 290.387276 289.8432 
L 289.658558 288.469864 
L 288.901221 287.24512 
L 285.784298 281.902785 
L 285.16347 280.9728 
L 281.916455 275.804334 
L 281.239305 274.70048 
L 281.170019 274.58206 
L 280.59192 273.602084 
L 279.56009 272.1024 
L 278.323574 270.146182 
L 277.853669 269.50432 
L 276.794671 267.844711 
L 273.611055 263.232 
L 272.292876 261.205428 
L 269.20465 256.95968 
L 268.117789 255.417263 
L 267.33416 254.3616 
L 266.583047 253.40324 
L 265.737591 252.225552 
L 265.412296 251.76352 
L 265.115556 251.329718 
L 264.000268 249.860251 
L 261.815516 246.902034 
L 260.704074 245.4912 
L 257.803849 241.601272 
L 255.860098 239.21888 
L 253.910029 236.776967 
L 253.865046 236.717377 
L 253.783324 236.6208 
L 253.495177 236.276329 
L 251.72252 234.02272 
L 250.259825 232.127406 
L 246.583276 227.7504 
L 246.295793 227.389458 
L 245.800727 226.801616 
L 242.55677 222.82781 
L 241.369913 221.47808 
L 239.798645 219.667075 
L 239.42096 219.216706 
L 239.160121 218.88 
L 238.975286 218.653933 
L 238.854074 218.521671 
L 236.962044 216.28192 
L 234.753476 213.638058 
L 231.502017 210.0096 
L 230.440769 208.763943 
L 228.807738 206.934983 
L 226.801166 204.611601 
L 225.998017 203.73728 
L 224.865107 202.496336 
L 224.176431 201.710479 
L 223.710064 201.1392 
L 223.382234 200.76508 
L 223.173213 200.550025 
L 221.406531 198.54112 
L 218.832633 195.602922 
L 215.736812 192.2688 
L 214.365976 190.719836 
L 212.378749 188.560441 
L 210.746005 186.723655 
L 210.065974 185.99648 
L 209.073057 184.935914 
L 207.737786 183.3984 
L 207.358877 182.98305 
L 207.121481 182.746718 
L 205.385119 180.80032 
L 202.699335 177.800601 
L 199.626376 174.528 
L 198.194288 172.932074 
L 196.156072 170.73171 
L 194.574717 168.962963 
L 193.916187 168.25568 
L 192.946531 167.223671 
L 191.591701 165.6576 
L 190.955858 164.995107 
L 189.243331 163.05952 
L 186.533776 160.033631 
L 183.515359 156.7872 
L 182.031144 155.121705 
L 179.883149 152.770051 
L 178.453237 151.147691 
L 177.878149 150.51488 
L 177.043112 149.612697 
L 176.197013 148.634273 
L 175.613026 147.9168 
L 174.915203 147.186773 
L 173.308944 145.31872 
L 170.499922 142.122336 
L 167.720887 139.0464 
L 165.972636 137.034516 
L 163.316133 134.030354 
L 162.532606 133.112323 
L 162.237971 132.77408 
L 161.82365 132.312176 
L 160.817782 131.094607 
L 160.103108 130.176 
L 159.212288 129.225136 
L 157.861462 127.57792 
L 154.745927 123.904365 
L 152.503234 121.3056 
L 150.108699 118.43258 
L 147.24707 115.03328 
L 147.160196 114.907079 
L 145.295739 112.4352 
L 144.514274 111.54491 
L 144.023345 111.030205 
L 143.106908 109.83712 
L 139.400365 105.238821 
L 138.04245 103.5648 
L 134.522939 99.094713 
L 133.101116 97.29248 
L 132.649947 96.658396 
L 131.336336 94.6944 
L 130.199478 93.338731 
L 129.475996 92.544051 
L 129.159611 92.09632 
L 124.565139 86.014039 
L 124.422465 85.824 
L 123.130191 84.061508 
L 119.879384 79.55168 
L 119.654862 79.26112 
L 119.134369 78.344836 
L 118.269132 76.9536 
L 116.67052 74.937468 
L 116.169669 74.35552 
L 114.943745 72.580898 
L 111.870343 68.0832 
L 110.463747 65.985103 
L 107.723836 61.81088 
L 106.517133 60.13513 
L 105.925137 59.2128 
L 104.750793 57.488718 
L 104.226371 56.61472 
L 103.635465 55.726908 
L 100.893276 51.50347 
L 100.4544 50.806695 
L 100.4544 59.2128 
L 100.4544 68.0832 
L 100.4544 76.9536 
L 100.4544 85.824 
L 100.4544 94.6944 
L 100.4544 103.5648 
L 100.4544 112.4352 
L 100.4544 121.3056 
L 100.4544 130.176 
L 100.4544 139.0464 
L 100.4544 147.9168 
L 100.4544 156.7872 
L 100.4544 159.588186 
L 102.360715 161.830465 
L 103.138077 162.716759 
L 103.441628 163.05952 
L 103.831293 163.516151 
L 105.753964 165.6576 
L 106.550666 166.56471 
L 108.122052 168.25568 
L 111.173915 171.651683 
L 113.778235 174.528 
L 115.81359 176.724473 
L 118.611585 179.733782 
L 119.315112 180.471152 
L 119.628839 180.80032 
L 120.079163 181.283473 
L 121.328616 182.551884 
L 122.184272 183.3984 
L 122.65225 183.916325 
L 122.919159 184.224237 
L 124.680946 185.99648 
L 127.666585 189.060196 
L 130.785259 192.2688 
L 132.270562 193.757503 
L 134.086247 195.583594 
L 136.100172 197.559257 
L 137.090987 198.54112 
L 138.65436 200.107182 
L 139.309214 200.737338 
L 139.737134 201.1392 
L 140.100589 201.514766 
L 142.427427 203.73728 
L 144.674818 205.903742 
L 148.886793 210.0096 
L 148.986866 210.104453 
L 149.099199 210.211928 
L 153.326811 214.163468 
L 155.552736 216.28192 
L 157.904079 218.52294 
L 158.297068 218.88 
L 158.700676 219.273037 
L 159.362503 219.899047 
L 161.075275 221.47808 
L 162.034187 222.362504 
L 163.804327 224.025899 
L 165.894081 225.946338 
L 167.823219 227.7504 
L 170.823756 230.47147 
L 174.641794 234.02272 
L 176.087568 235.35863 
L 176.596876 235.804061 
L 177.485632 236.6208 
L 178.970738 238.026849 
L 180.265953 239.21888 
L 182.87926 241.581967 
L 187.105122 245.4912 
L 188.420282 246.67035 
L 193.91983 251.76352 
L 194.351561 252.157778 
L 196.761158 254.3616 
L 199.372434 256.813338 
L 199.532708 256.95968 
L 199.852305 257.249695 
L 202.375893 259.604964 
L 205.957877 262.933807 
L 206.264711 263.232 
L 211.813942 268.434587 
L 212.917072 269.50432 
L 213.605886 270.136234 
L 215.643926 272.1024 
L 216.952269 273.324514 
L 217.657895 274.016659 
L 218.35165 274.70048 
L 223.281864 279.431342 
L 224.803902 280.9728 
L 228.577651 284.656127 
L 231.125149 287.24512 
L 231.371956 287.485637 
L 233.668293 289.8432 
L 235.056512 291.208607 
L 236.22503 292.44128 
L 240.149782 296.428648 
L 242.256078 298.7136 
L 245.055225 301.634651 
L 248.113964 304.98592 
L 248.324958 305.210883 
L 250.458996 307.584 
L 254.25408 307.584 
L 262.3488 307.584 
L 270.44352 307.584 
L 278.53824 307.584 
L 286.63296 307.584 
L 294.72768 307.584 
" clip-path="url(#p7d1ac68634)" style="fill: #0018ff"/>
   </g>
   <g id="PathCollection_13">
    <path d="M 250.458996 307.584 
L 248.324958 305.210883 
L 248.113964 304.98592 
L 245.055225 301.634651 
L 242.256078 298.7136 
L 240.149782 296.428648 
L 236.22503 292.44128 
L 235.056512 291.208607 
L 233.668293 289.8432 
L 231.371956 287.485637 
L 231.125149 287.24512 
L 228.577651 284.656127 
L 224.803902 280.9728 
L 223.281864 279.431342 
L 218.35165 274.70048 
L 217.657895 274.016659 
L 216.952269 273.324514 
L 215.643926 272.1024 
L 213.605886 270.136234 
L 212.917072 269.50432 
L 211.813942 268.434587 
L 206.264711 263.232 
L 205.957877 262.933807 
L 202.375893 259.604964 
L 199.852305 257.249695 
L 199.532708 256.95968 
L 199.372434 256.813338 
L 196.761158 254.3616 
L 194.351561 252.157778 
L 193.91983 251.76352 
L 188.420282 246.67035 
L 187.105122 245.4912 
L 182.87926 241.581967 
L 180.265953 239.21888 
L 178.970738 238.026849 
L 177.485632 236.6208 
L 176.596876 235.804061 
L 176.087568 235.35863 
L 174.641794 234.02272 
L 170.823756 230.47147 
L 167.823219 227.7504 
L 165.894081 225.946338 
L 163.804327 224.025899 
L 162.034187 222.362504 
L 161.075275 221.47808 
L 159.362503 219.899047 
L 158.700676 219.273037 
L 158.297068 218.88 
L 157.904079 218.52294 
L 155.552736 216.28192 
L 153.326811 214.163468 
L 149.099199 210.211928 
L 148.986866 210.104453 
L 148.886793 210.0096 
L 144.674818 205.903742 
L 142.427427 203.73728 
L 140.100589 201.514766 
L 139.737134 201.1392 
L 139.309214 200.737338 
L 138.65436 200.107182 
L 137.090987 198.54112 
L 136.100172 197.559257 
L 134.086247 195.583594 
L 132.270562 193.757503 
L 130.785259 192.2688 
L 127.666585 189.060196 
L 124.680946 185.99648 
L 122.919159 184.224237 
L 122.65225 183.916325 
L 122.184272 183.3984 
L 121.328616 182.551884 
L 120.079163 181.283473 
L 119.628839 180.80032 
L 119.315112 180.471152 
L 118.611585 179.733782 
L 115.81359 176.724473 
L 113.778235 174.528 
L 111.173915 171.651683 
L 108.122052 168.25568 
L 106.550666 166.56471 
L 105.753964 165.6576 
L 103.831293 163.516151 
L 103.441628 163.05952 
L 103.138077 162.716759 
L 102.360715 161.830465 
L 100.4544 159.588186 
L 100.4544 165.6576 
L 100.4544 174.528 
L 100.4544 183.3984 
L 100.4544 192.2688 
L 100.4544 201.1392 
L 100.4544 210.0096 
L 100.4544 218.88 
L 100.4544 225.637116 
L 101.033654 226.21795 
L 102.593391 227.7504 
L 105.743652 230.824703 
L 109.084075 234.02272 
L 110.738843 235.626872 
L 111.825566 236.6208 
L 114.48669 239.16582 
L 114.542016 239.21888 
L 117.85455 242.288198 
L 121.346345 245.4912 
L 123.198199 247.179166 
L 128.293656 251.76352 
L 129.018799 252.418775 
L 129.80259 253.104458 
L 131.236573 254.3616 
L 133.735433 256.595067 
L 134.14326 256.95968 
L 134.939751 257.659213 
L 139.371906 261.526793 
L 141.10497 263.038072 
L 141.327984 263.232 
L 147.132994 268.231377 
L 148.613842 269.50432 
L 149.238936 270.039216 
L 151.655763 272.1024 
L 153.554994 273.719415 
L 154.70666 274.70048 
L 159.295907 278.58558 
L 162.112452 280.9728 
L 164.46417 282.951651 
L 166.658724 284.799767 
L 168.440979 286.304978 
L 169.545885 287.24512 
L 171.855027 289.184196 
L 172.632947 289.8432 
L 172.871815 290.040678 
L 175.702609 292.44128 
L 177.588496 294.021696 
L 180.579938 296.539848 
L 181.824759 297.594109 
L 183.135556 298.7136 
L 186.7207 301.755195 
L 190.48634 304.98592 
L 192.145268 306.381627 
L 193.539118 307.584 
L 197.59104 307.584 
L 205.68576 307.584 
L 213.78048 307.584 
L 221.8752 307.584 
L 229.96992 307.584 
L 238.06464 307.584 
L 246.15936 307.584 
" clip-path="url(#p7d1ac68634)" style="fill: #0080ff"/>
   </g>
   <g id="PathCollection_14">
    <path d="M 193.539118 307.584 
L 192.145268 306.381627 
L 190.48634 304.98592 
L 186.7207 301.755195 
L 183.135556 298.7136 
L 181.824759 297.594109 
L 180.579938 296.539848 
L 177.588496 294.021696 
L 175.702609 292.44128 
L 172.871815 290.040678 
L 172.632947 289.8432 
L 171.855027 289.184196 
L 169.545885 287.24512 
L 168.440979 286.304978 
L 166.658724 284.799767 
L 164.46417 282.951651 
L 162.112452 280.9728 
L 159.295907 278.58558 
L 154.70666 274.70048 
L 153.554994 273.719415 
L 151.655763 272.1024 
L 149.238936 270.039216 
L 148.613842 269.50432 
L 147.132994 268.231377 
L 141.327984 263.232 
L 141.10497 263.038072 
L 139.371906 261.526793 
L 134.939751 257.659213 
L 134.14326 256.95968 
L 133.735433 256.595067 
L 131.236573 254.3616 
L 129.80259 253.104458 
L 129.018799 252.418775 
L 128.293656 251.76352 
L 123.198199 247.179166 
L 121.346345 245.4912 
L 117.85455 242.288198 
L 114.542016 239.21888 
L 114.48669 239.16582 
L 111.825566 236.6208 
L 110.738843 235.626872 
L 109.084075 234.02272 
L 105.743652 230.824703 
L 102.593391 227.7504 
L 101.033654 226.21795 
L 100.4544 225.637116 
L 100.4544 227.7504 
L 100.4544 236.6208 
L 100.4544 245.4912 
L 100.4544 254.3616 
L 100.4544 263.232 
L 100.4544 272.1024 
L 100.4544 280.9728 
L 100.4544 284.234261 
L 102.323164 285.916721 
L 103.250279 286.779405 
L 103.773598 287.24512 
L 104.739191 288.113851 
L 106.628777 289.8432 
L 107.261793 290.427525 
L 109.497815 292.44128 
L 112.102624 294.81958 
L 116.583316 298.7136 
L 116.62849 298.754208 
L 116.674123 298.793715 
L 121.081706 302.720874 
L 123.737848 304.98592 
L 126.061478 306.98352 
L 126.769136 307.584 
L 132.83328 307.584 
L 140.928 307.584 
L 149.02272 307.584 
L 157.11744 307.584 
L 165.21216 307.584 
L 173.30688 307.584 
L 181.4016 307.584 
L 189.49632 307.584 
" clip-path="url(#p7d1ac68634)" style="fill: #00e4f8"/>
   </g>
   <g id="PathCollection_15">
    <path d="M 126.769136 307.584 
L 126.061478 306.98352 
L 123.737848 304.98592 
L 121.081706 302.720874 
L 116.674123 298.793715 
L 116.62849 298.754208 
L 116.583316 298.7136 
L 112.102624 294.81958 
L 109.497815 292.44128 
L 107.261793 290.427525 
L 106.628777 289.8432 
L 104.739191 288.113851 
L 103.773598 287.24512 
L 103.250279 286.779405 
L 102.323164 285.916721 
L 100.4544 284.234261 
L 100.4544 289.8432 
L 100.4544 298.7136 
L 100.4544 307.584 
L 108.54912 307.584 
L 116.64384 307.584 
L 124.73856 307.584 
" clip-path="url(#p7d1ac68634)" style="fill: #53ffa4"/>
   </g>
   <g id="PathCollection_16">
    <path clip-path="url(#p7d1ac68634)" style="fill: #a4ff53"/>
   </g>
   <g id="PathCollection_17">
    <path clip-path="url(#p7d1ac68634)" style="fill: #f8f500"/>
   </g>
   <g id="PathCollection_18">
    <path clip-path="url(#p7d1ac68634)" style="fill: #ff9400"/>
   </g>
   <g id="PathCollection_19">
    <path clip-path="url(#p7d1ac68634)" style="fill: #ff3800"/>
   </g>
   <g id="PathCollection_20">
    <path clip-path="url(#p7d1ac68634)" style="fill: #b60000"/>
   </g>
   <g id="matplotlib.axis_1">
    <g id="xtick_1">
     <g id="line2d_1">
      <defs>
       <path id="m630917ff8d" d="M 0 0 
L 0 3.5 
" style="stroke: #000000; stroke-width: 0.8"/>
      </defs>
      <g>
       <use xlink:href="#m630917ff8d" x="57.6" y="307.584" style="stroke: #000000; stroke-width: 0.8"/>
      </g>
     </g>
     <g id="text_1">
      <!-- 0.0 -->
      <g transform="translate(51.26875 321.385562) scale(0.1 -0.1)">
       <defs>
        <path id="Calibri-30" d="M 3022 2031 
Q 3022 1566 2948 1181 
Q 2875 797 2704 520 
Q 2534 244 2259 92 
Q 1984 -59 1581 -59 
Q 1200 -59 939 77 
Q 678 213 518 477 
Q 359 741 292 1127 
Q 225 1513 225 2013 
Q 225 2475 300 2861 
Q 375 3247 544 3523 
Q 713 3800 988 3951 
Q 1263 4103 1663 4103 
Q 2047 4103 2308 3967 
Q 2569 3831 2728 3567 
Q 2888 3303 2955 2917 
Q 3022 2531 3022 2031 
z
M 2472 1994 
Q 2472 2297 2450 2537 
Q 2428 2778 2386 2962 
Q 2344 3147 2276 3280 
Q 2209 3413 2115 3498 
Q 2022 3584 1901 3623 
Q 1781 3663 1631 3663 
Q 1366 3663 1200 3538 
Q 1034 3413 939 3194 
Q 844 2975 809 2681 
Q 775 2388 775 2050 
Q 775 1597 822 1280 
Q 869 963 970 763 
Q 1072 563 1230 472 
Q 1388 381 1613 381 
Q 1788 381 1920 437 
Q 2053 494 2148 598 
Q 2244 703 2306 850 
Q 2369 997 2406 1175 
Q 2444 1353 2458 1561 
Q 2472 1769 2472 1994 
z
" transform="scale(0.015625)"/>
        <path id="Calibri-2e" d="M 1144 341 
Q 1144 119 1070 45 
Q 997 -28 803 -28 
Q 616 -28 544 44 
Q 472 116 472 331 
Q 472 553 545 626 
Q 619 700 813 700 
Q 1000 700 1072 628 
Q 1144 556 1144 341 
z
" transform="scale(0.015625)"/>
       </defs>
       <use xlink:href="#Calibri-30"/>
       <use xlink:href="#Calibri-2e" x="50.683594"/>
       <use xlink:href="#Calibri-30" x="75.927734"/>
      </g>
     </g>
    </g>
    <g id="xtick_2">
     <g id="line2d_2">
      <g>
       <use xlink:href="#m630917ff8d" x="86.1696" y="307.584" style="stroke: #000000; stroke-width: 0.8"/>
      </g>
     </g>
     <g id="text_2">
      <!-- 0.1 -->
      <g transform="translate(79.83835 321.385562) scale(0.1 -0.1)">
       <defs>
        <path id="Calibri-31" d="M 2897 213 
Q 2897 153 2887 112 
Q 2878 72 2862 47 
Q 2847 22 2826 11 
Q 2806 0 2784 0 
L 672 0 
Q 650 0 631 11 
Q 613 22 595 47 
Q 578 72 568 112 
Q 559 153 559 213 
Q 559 269 568 309 
Q 578 350 592 376 
Q 606 403 626 417 
Q 647 431 672 431 
L 1516 431 
L 1516 3506 
L 734 3041 
Q 675 3009 639 3003 
Q 603 2997 581 3017 
Q 559 3038 551 3084 
Q 544 3131 544 3203 
Q 544 3256 548 3293 
Q 553 3331 562 3356 
Q 572 3381 589 3400 
Q 606 3419 634 3438 
L 1566 4034 
Q 1578 4044 1597 4050 
Q 1616 4056 1644 4062 
Q 1672 4069 1709 4070 
Q 1747 4072 1803 4072 
Q 1878 4072 1928 4065 
Q 1978 4059 2006 4048 
Q 2034 4038 2043 4020 
Q 2053 4003 2053 3984 
L 2053 431 
L 2784 431 
Q 2809 431 2831 417 
Q 2853 403 2867 376 
Q 2881 350 2889 309 
Q 2897 269 2897 213 
z
" transform="scale(0.015625)"/>
       </defs>
       <use xlink:href="#Calibri-30"/>
       <use xlink:href="#Calibri-2e" x="50.683594"/>
       <use xlink:href="#Calibri-31" x="75.927734"/>
      </g>
     </g>
    </g>
    <g id="xtick_3">
     <g id="line2d_3">
      <g>
       <use xlink:href="#m630917ff8d" x="114.7392" y="307.584" style="stroke: #000000; stroke-width: 0.8"/>
      </g>
     </g>
     <g id="text_3">
      <!-- 0.2 -->
      <g transform="translate(108.40795 321.385562) scale(0.1 -0.1)">
       <defs>
        <path id="Calibri-32" d="M 2888 231 
Q 2888 175 2880 131 
Q 2872 88 2858 58 
Q 2844 28 2820 14 
Q 2797 0 2769 0 
L 534 0 
Q 491 0 458 11 
Q 425 22 401 47 
Q 378 72 367 119 
Q 356 166 356 234 
Q 356 297 361 344 
Q 366 391 381 427 
Q 397 463 420 498 
Q 444 534 481 575 
L 1266 1406 
Q 1538 1694 1702 1922 
Q 1866 2150 1955 2337 
Q 2044 2525 2072 2678 
Q 2100 2831 2100 2966 
Q 2100 3100 2056 3220 
Q 2013 3341 1930 3431 
Q 1847 3522 1722 3575 
Q 1597 3628 1434 3628 
Q 1244 3628 1092 3575 
Q 941 3522 827 3459 
Q 713 3397 636 3344 
Q 559 3291 522 3291 
Q 500 3291 483 3303 
Q 466 3316 455 3344 
Q 444 3372 437 3419 
Q 431 3466 431 3531 
Q 431 3578 434 3612 
Q 438 3647 445 3672 
Q 453 3697 465 3719 
Q 478 3741 515 3773 
Q 553 3806 645 3862 
Q 738 3919 877 3973 
Q 1016 4028 1183 4065 
Q 1350 4103 1534 4103 
Q 1828 4103 2048 4020 
Q 2269 3938 2414 3794 
Q 2559 3650 2631 3459 
Q 2703 3269 2703 3053 
Q 2703 2859 2668 2667 
Q 2634 2475 2523 2251 
Q 2413 2028 2203 1754 
Q 1994 1481 1647 1125 
L 1006 456 
L 2766 456 
Q 2791 456 2814 442 
Q 2838 428 2855 400 
Q 2872 372 2880 330 
Q 2888 288 2888 231 
z
" transform="scale(0.015625)"/>
       </defs>
       <use xlink:href="#Calibri-30"/>
       <use xlink:href="#Calibri-2e" x="50.683594"/>
       <use xlink:href="#Calibri-32" x="75.927734"/>
      </g>
     </g>
    </g>
    <g id="xtick_4">
     <g id="line2d_4">
      <g>
       <use xlink:href="#m630917ff8d" x="143.3088" y="307.584" style="stroke: #000000; stroke-width: 0.8"/>
      </g>
     </g>
     <g id="text_4">
      <!-- 0.3 -->
      <g transform="translate(136.97755 321.385562) scale(0.1 -0.1)">
       <defs>
        <path id="Calibri-33" d="M 2856 1156 
Q 2856 878 2759 654 
Q 2663 431 2481 272 
Q 2300 113 2034 27 
Q 1769 -59 1434 -59 
Q 1231 -59 1054 -26 
Q 878 6 740 51 
Q 603 97 512 145 
Q 422 194 398 216 
Q 375 238 362 259 
Q 350 281 340 312 
Q 331 344 326 389 
Q 322 434 322 500 
Q 322 613 344 656 
Q 366 700 406 700 
Q 434 700 517 650 
Q 600 600 729 542 
Q 859 484 1032 434 
Q 1206 384 1419 384 
Q 1625 384 1781 437 
Q 1938 491 2044 587 
Q 2150 684 2203 817 
Q 2256 950 2256 1106 
Q 2256 1278 2189 1415 
Q 2122 1553 1992 1653 
Q 1863 1753 1673 1806 
Q 1484 1859 1244 1859 
L 859 1859 
Q 834 1859 811 1870 
Q 788 1881 770 1906 
Q 753 1931 742 1972 
Q 731 2013 731 2078 
Q 731 2138 740 2177 
Q 750 2216 767 2239 
Q 784 2263 806 2273 
Q 828 2284 856 2284 
L 1209 2284 
Q 1416 2284 1580 2337 
Q 1744 2391 1858 2491 
Q 1972 2591 2033 2730 
Q 2094 2869 2094 3041 
Q 2094 3166 2053 3280 
Q 2013 3394 1931 3478 
Q 1850 3563 1723 3611 
Q 1597 3659 1431 3659 
Q 1250 3659 1098 3604 
Q 947 3550 828 3487 
Q 709 3425 631 3370 
Q 553 3316 522 3316 
Q 500 3316 483 3323 
Q 466 3331 455 3354 
Q 444 3378 439 3420 
Q 434 3463 434 3531 
Q 434 3578 437 3614 
Q 441 3650 450 3676 
Q 459 3703 471 3725 
Q 484 3747 514 3776 
Q 544 3806 634 3862 
Q 725 3919 858 3973 
Q 991 4028 1164 4065 
Q 1338 4103 1538 4103 
Q 1819 4103 2031 4031 
Q 2244 3959 2386 3828 
Q 2528 3697 2598 3514 
Q 2669 3331 2669 3109 
Q 2669 2919 2619 2755 
Q 2569 2591 2472 2464 
Q 2375 2338 2234 2248 
Q 2094 2159 1909 2125 
L 1909 2119 
Q 2119 2097 2292 2014 
Q 2466 1931 2591 1806 
Q 2716 1681 2786 1514 
Q 2856 1347 2856 1156 
z
" transform="scale(0.015625)"/>
       </defs>
       <use xlink:href="#Calibri-30"/>
       <use xlink:href="#Calibri-2e" x="50.683594"/>
       <use xlink:href="#Calibri-33" x="75.927734"/>
      </g>
     </g>
    </g>
    <g id="xtick_5">
     <g id="line2d_5">
      <g>
       <use xlink:href="#m630917ff8d" x="171.8784" y="307.584" style="stroke: #000000; stroke-width: 0.8"/>
      </g>
     </g>
     <g id="text_5">
      <!-- 0.4 -->
      <g transform="translate(165.54715 321.385562) scale(0.1 -0.1)">
       <defs>
        <path id="Calibri-34" d="M 3059 1150 
Q 3059 1047 3028 987 
Q 2997 928 2941 928 
L 2484 928 
L 2484 78 
Q 2484 53 2471 36 
Q 2459 19 2428 6 
Q 2397 -6 2347 -12 
Q 2297 -19 2219 -19 
Q 2144 -19 2094 -12 
Q 2044 -6 2014 6 
Q 1984 19 1973 36 
Q 1963 53 1963 78 
L 1963 928 
L 294 928 
Q 256 928 231 937 
Q 206 947 186 972 
Q 166 997 158 1044 
Q 150 1091 150 1166 
Q 150 1225 153 1272 
Q 156 1319 165 1358 
Q 175 1397 190 1433 
Q 206 1469 228 1509 
L 1684 3966 
Q 1700 3991 1729 4009 
Q 1759 4028 1806 4040 
Q 1853 4053 1922 4058 
Q 1991 4063 2084 4063 
Q 2188 4063 2264 4055 
Q 2341 4047 2387 4034 
Q 2434 4022 2459 4001 
Q 2484 3981 2484 3953 
L 2484 1372 
L 2941 1372 
Q 2994 1372 3026 1317 
Q 3059 1263 3059 1150 
z
M 1963 3591 
L 1956 3591 
L 641 1372 
L 1963 1372 
L 1963 3591 
z
" transform="scale(0.015625)"/>
       </defs>
       <use xlink:href="#Calibri-30"/>
       <use xlink:href="#Calibri-2e" x="50.683594"/>
       <use xlink:href="#Calibri-34" x="75.927734"/>
      </g>
     </g>
    </g>
    <g id="xtick_6">
     <g id="line2d_6">
      <g>
       <use xlink:href="#m630917ff8d" x="200.448" y="307.584" style="stroke: #000000; stroke-width: 0.8"/>
      </g>
     </g>
     <g id="text_6">
      <!-- 0.5 -->
      <g transform="translate(194.11675 321.385562) scale(0.1 -0.1)">
       <defs>
        <path id="Calibri-35" d="M 2869 1300 
Q 2869 975 2759 722 
Q 2650 469 2450 295 
Q 2250 122 1973 31 
Q 1697 -59 1359 -59 
Q 1172 -59 1003 -32 
Q 834 -6 703 33 
Q 572 72 487 109 
Q 403 147 379 169 
Q 356 191 347 209 
Q 338 228 330 254 
Q 322 281 319 322 
Q 316 363 316 419 
Q 316 472 320 514 
Q 325 556 337 582 
Q 350 609 367 621 
Q 384 634 406 634 
Q 438 634 503 595 
Q 569 556 680 511 
Q 791 466 955 425 
Q 1119 384 1344 384 
Q 1553 384 1728 434 
Q 1903 484 2029 590 
Q 2156 697 2228 858 
Q 2300 1019 2300 1250 
Q 2300 1444 2239 1592 
Q 2178 1741 2051 1839 
Q 1925 1938 1731 1986 
Q 1538 2034 1269 2034 
Q 1078 2034 940 2015 
Q 803 1997 684 1997 
Q 597 1997 559 2037 
Q 522 2078 522 2194 
L 522 3841 
Q 522 3944 570 3994 
Q 619 4044 709 4044 
L 2500 4044 
Q 2525 4044 2548 4030 
Q 2572 4016 2587 3987 
Q 2603 3959 2611 3915 
Q 2619 3872 2619 3813 
Q 2619 3700 2587 3637 
Q 2556 3575 2500 3575 
L 991 3575 
L 991 2441 
Q 1100 2456 1214 2459 
Q 1328 2463 1478 2463 
Q 1825 2463 2084 2380 
Q 2344 2297 2517 2145 
Q 2691 1994 2780 1778 
Q 2869 1563 2869 1300 
z
" transform="scale(0.015625)"/>
       </defs>
       <use xlink:href="#Calibri-30"/>
       <use xlink:href="#Calibri-2e" x="50.683594"/>
       <use xlink:href="#Calibri-35" x="75.927734"/>
      </g>
     </g>
    </g>
    <g id="xtick_7">
     <g id="line2d_7">
      <g>
       <use xlink:href="#m630917ff8d" x="229.0176" y="307.584" style="stroke: #000000; stroke-width: 0.8"/>
      </g>
     </g>
     <g id="text_7">
      <!-- 0.6 -->
      <g transform="translate(222.68635 321.385562) scale(0.1 -0.1)">
       <defs>
        <path id="Calibri-36" d="M 2991 1309 
Q 2991 1044 2909 795 
Q 2828 547 2659 358 
Q 2491 169 2231 55 
Q 1972 -59 1619 -59 
Q 1366 -59 1172 3 
Q 978 66 834 181 
Q 691 297 595 465 
Q 500 634 442 850 
Q 384 1066 359 1322 
Q 334 1578 334 1872 
Q 334 2131 362 2397 
Q 391 2663 462 2909 
Q 534 3156 657 3373 
Q 781 3591 967 3752 
Q 1153 3913 1412 4006 
Q 1672 4100 2016 4100 
Q 2131 4100 2250 4086 
Q 2369 4072 2469 4048 
Q 2569 4025 2637 3997 
Q 2706 3969 2728 3951 
Q 2750 3934 2761 3914 
Q 2772 3894 2778 3870 
Q 2784 3847 2787 3817 
Q 2791 3788 2791 3744 
Q 2791 3688 2789 3647 
Q 2788 3606 2777 3581 
Q 2766 3556 2748 3543 
Q 2731 3531 2703 3531 
Q 2669 3531 2609 3553 
Q 2550 3575 2465 3601 
Q 2381 3628 2261 3650 
Q 2141 3672 1981 3672 
Q 1691 3672 1481 3553 
Q 1272 3434 1139 3234 
Q 1006 3034 942 2770 
Q 878 2506 869 2219 
Q 950 2266 1051 2312 
Q 1153 2359 1273 2396 
Q 1394 2434 1528 2457 
Q 1663 2481 1816 2481 
Q 2144 2481 2369 2392 
Q 2594 2303 2733 2145 
Q 2872 1988 2931 1773 
Q 2991 1559 2991 1309 
z
M 2447 1259 
Q 2447 1441 2411 1589 
Q 2375 1738 2290 1841 
Q 2206 1944 2065 2000 
Q 1925 2056 1719 2056 
Q 1603 2056 1487 2036 
Q 1372 2016 1264 1980 
Q 1156 1944 1057 1895 
Q 959 1847 878 1791 
Q 878 1388 929 1116 
Q 981 844 1079 680 
Q 1178 516 1325 445 
Q 1472 375 1669 375 
Q 1869 375 2016 450 
Q 2163 525 2259 651 
Q 2356 778 2401 936 
Q 2447 1094 2447 1259 
z
" transform="scale(0.015625)"/>
       </defs>
       <use xlink:href="#Calibri-30"/>
       <use xlink:href="#Calibri-2e" x="50.683594"/>
       <use xlink:href="#Calibri-36" x="75.927734"/>
      </g>
     </g>
    </g>
    <g id="xtick_8">
     <g id="line2d_8">
      <g>
       <use xlink:href="#m630917ff8d" x="257.5872" y="307.584" style="stroke: #000000; stroke-width: 0.8"/>
      </g>
     </g>
     <g id="text_8">
      <!-- 0.7 -->
      <g transform="translate(251.25595 321.385562) scale(0.1 -0.1)">
       <defs>
        <path id="Calibri-37" d="M 2947 3813 
Q 2947 3756 2942 3711 
Q 2938 3666 2930 3623 
Q 2922 3581 2908 3542 
Q 2894 3503 2875 3459 
L 1419 103 
Q 1403 66 1379 42 
Q 1356 19 1320 5 
Q 1284 -9 1228 -14 
Q 1172 -19 1091 -19 
Q 984 -19 925 -9 
Q 866 0 839 20 
Q 813 41 816 70 
Q 819 100 838 141 
L 2369 3572 
L 428 3572 
Q 369 3572 339 3634 
Q 309 3697 309 3809 
Q 309 3869 317 3912 
Q 325 3956 340 3986 
Q 356 4016 378 4030 
Q 400 4044 428 4044 
L 2784 4044 
Q 2828 4044 2861 4034 
Q 2894 4025 2911 3997 
Q 2928 3969 2937 3925 
Q 2947 3881 2947 3813 
z
" transform="scale(0.015625)"/>
       </defs>
       <use xlink:href="#Calibri-30"/>
       <use xlink:href="#Calibri-2e" x="50.683594"/>
       <use xlink:href="#Calibri-37" x="75.927734"/>
      </g>
     </g>
    </g>
    <g id="xtick_9">
     <g id="line2d_9">
      <g>
       <use xlink:href="#m630917ff8d" x="286.1568" y="307.584" style="stroke: #000000; stroke-width: 0.8"/>
      </g>
     </g>
     <g id="text_9">
      <!-- 0.8 -->
      <g transform="translate(279.82555 321.385562) scale(0.1 -0.1)">
       <defs>
        <path id="Calibri-38" d="M 2981 1038 
Q 2981 775 2887 570 
Q 2794 366 2617 225 
Q 2441 84 2181 12 
Q 1922 -59 1588 -59 
Q 1275 -59 1028 6 
Q 781 72 609 200 
Q 438 328 347 515 
Q 256 703 256 944 
Q 256 1134 318 1293 
Q 381 1453 498 1587 
Q 616 1722 787 1839 
Q 959 1956 1175 2063 
Q 988 2159 844 2267 
Q 700 2375 600 2501 
Q 500 2628 448 2772 
Q 397 2916 397 3084 
Q 397 3297 473 3483 
Q 550 3669 704 3806 
Q 859 3944 1098 4023 
Q 1338 4103 1656 4103 
Q 1963 4103 2186 4029 
Q 2409 3956 2554 3829 
Q 2700 3703 2769 3531 
Q 2838 3359 2838 3163 
Q 2838 3003 2786 2856 
Q 2734 2709 2634 2578 
Q 2534 2447 2389 2333 
Q 2244 2219 2056 2119 
Q 2278 2009 2451 1893 
Q 2625 1778 2742 1645 
Q 2859 1513 2920 1364 
Q 2981 1216 2981 1038 
z
M 2306 3113 
Q 2306 3244 2261 3350 
Q 2216 3456 2128 3531 
Q 2041 3606 1911 3645 
Q 1781 3684 1616 3684 
Q 1278 3684 1104 3531 
Q 931 3378 931 3113 
Q 931 2991 973 2886 
Q 1016 2781 1105 2687 
Q 1194 2594 1330 2505 
Q 1466 2416 1653 2319 
Q 1969 2481 2137 2678 
Q 2306 2875 2306 3113 
z
M 2438 981 
Q 2438 1125 2384 1242 
Q 2331 1359 2223 1461 
Q 2116 1563 1955 1658 
Q 1794 1753 1581 1856 
Q 1384 1759 1236 1662 
Q 1088 1566 992 1462 
Q 897 1359 848 1245 
Q 800 1131 800 994 
Q 800 691 1008 525 
Q 1216 359 1628 359 
Q 2028 359 2233 526 
Q 2438 694 2438 981 
z
" transform="scale(0.015625)"/>
       </defs>
       <use xlink:href="#Calibri-30"/>
       <use xlink:href="#Calibri-2e" x="50.683594"/>
       <use xlink:href="#Calibri-38" x="75.927734"/>
      </g>
     </g>
    </g>
    <g id="xtick_10">
     <g id="line2d_10">
      <g>
       <use xlink:href="#m630917ff8d" x="314.7264" y="307.584" style="stroke: #000000; stroke-width: 0.8"/>
      </g>
     </g>
     <g id="text_10">
      <!-- 0.9 -->
      <g transform="translate(308.39515 321.385562) scale(0.1 -0.1)">
       <defs>
        <path id="Calibri-39" d="M 2919 2181 
Q 2919 1919 2887 1650 
Q 2856 1381 2781 1132 
Q 2706 884 2579 667 
Q 2453 450 2261 287 
Q 2069 125 1805 33 
Q 1541 -59 1191 -59 
Q 1056 -59 929 -42 
Q 803 -25 701 0 
Q 600 25 531 53 
Q 463 81 431 109 
Q 400 138 386 186 
Q 372 234 372 316 
Q 372 384 376 425 
Q 381 466 390 487 
Q 400 509 417 517 
Q 434 525 459 525 
Q 494 525 556 501 
Q 619 478 714 450 
Q 809 422 937 398 
Q 1066 375 1225 375 
Q 1528 375 1745 492 
Q 1963 609 2100 806 
Q 2238 1003 2306 1262 
Q 2375 1522 2381 1809 
Q 2216 1713 1984 1638 
Q 1753 1563 1453 1563 
Q 1116 1563 886 1655 
Q 656 1747 517 1906 
Q 378 2066 317 2284 
Q 256 2503 256 2763 
Q 256 3031 334 3273 
Q 413 3516 578 3700 
Q 744 3884 1000 3993 
Q 1256 4103 1613 4103 
Q 1866 4103 2061 4039 
Q 2256 3975 2400 3854 
Q 2544 3734 2644 3564 
Q 2744 3394 2805 3178 
Q 2866 2963 2892 2711 
Q 2919 2459 2919 2181 
z
M 2372 2241 
Q 2372 2641 2319 2914 
Q 2266 3188 2162 3356 
Q 2059 3525 1909 3600 
Q 1759 3675 1563 3675 
Q 1359 3675 1215 3601 
Q 1072 3528 980 3404 
Q 888 3281 844 3125 
Q 800 2969 800 2803 
Q 800 2619 839 2466 
Q 878 2313 965 2206 
Q 1053 2100 1193 2042 
Q 1334 1984 1541 1984 
Q 1775 1984 1994 2054 
Q 2213 2125 2372 2241 
z
" transform="scale(0.015625)"/>
       </defs>
       <use xlink:href="#Calibri-30"/>
       <use xlink:href="#Calibri-2e" x="50.683594"/>
       <use xlink:href="#Calibri-39" x="75.927734"/>
      </g>
     </g>
    </g>
    <g id="xtick_11">
     <g id="line2d_11">
      <g>
       <use xlink:href="#m630917ff8d" x="343.296" y="307.584" style="stroke: #000000; stroke-width: 0.8"/>
      </g>
     </g>
     <g id="text_11">
      <!-- 1.0 -->
      <g transform="translate(336.96475 321.385562) scale(0.1 -0.1)">
       <use xlink:href="#Calibri-31"/>
       <use xlink:href="#Calibri-2e" x="50.683594"/>
       <use xlink:href="#Calibri-30" x="75.927734"/>
      </g>
     </g>
    </g>
    <g id="text_12">
     <!-- $\mathit{p}$ (cm$^2$/cm$^2$) -->
     <g transform="translate(174.148 336.263687) scale(0.1 -0.1)">
      <defs>
       <path id="DejaVuSans-Oblique-70" d="M 3175 2156 
Q 3175 2616 2975 2859 
Q 2775 3103 2400 3103 
Q 2144 3103 1911 2972 
Q 1678 2841 1497 2591 
Q 1319 2344 1212 1994 
Q 1106 1644 1106 1300 
Q 1106 863 1306 627 
Q 1506 391 1875 391 
Q 2147 391 2380 519 
Q 2613 647 2778 891 
Q 2956 1147 3065 1494 
Q 3175 1841 3175 2156 
z
M 1394 2969 
Q 1625 3272 1939 3428 
Q 2253 3584 2638 3584 
Q 3175 3584 3472 3232 
Q 3769 2881 3769 2247 
Q 3769 1728 3584 1258 
Q 3400 788 3053 416 
Q 2822 169 2531 39 
Q 2241 -91 1919 -91 
Q 1547 -91 1294 64 
Q 1041 219 916 525 
L 556 -1331 
L -19 -1331 
L 922 3500 
L 1497 3500 
L 1394 2969 
z
" transform="scale(0.015625)"/>
       <path id="Calibri-20" transform="scale(0.015625)"/>
       <path id="Calibri-28" d="M 1547 4306 
Q 1250 3678 1104 3017 
Q 959 2356 959 1688 
Q 959 1016 1107 356 
Q 1256 -303 1541 -938 
Q 1556 -975 1557 -1001 
Q 1559 -1028 1537 -1045 
Q 1516 -1063 1470 -1070 
Q 1425 -1078 1347 -1078 
Q 1291 -1078 1250 -1075 
Q 1209 -1072 1179 -1062 
Q 1150 -1053 1131 -1040 
Q 1113 -1028 1103 -1013 
Q 934 -694 806 -367 
Q 678 -41 590 296 
Q 503 634 459 979 
Q 416 1325 416 1678 
Q 416 2031 464 2375 
Q 513 2719 602 3058 
Q 691 3397 819 3725 
Q 947 4053 1106 4375 
Q 1109 4388 1123 4397 
Q 1138 4406 1163 4415 
Q 1188 4425 1231 4429 
Q 1275 4434 1344 4434 
Q 1416 4434 1459 4425 
Q 1503 4416 1528 4400 
Q 1553 4384 1556 4359 
Q 1559 4334 1547 4306 
z
" transform="scale(0.015625)"/>
       <path id="Calibri-63" d="M 2500 506 
Q 2500 453 2497 414 
Q 2494 375 2486 348 
Q 2478 322 2467 301 
Q 2456 281 2417 242 
Q 2378 203 2284 145 
Q 2191 88 2073 42 
Q 1956 -3 1818 -31 
Q 1681 -59 1534 -59 
Q 1231 -59 997 41 
Q 763 141 605 333 
Q 447 525 364 804 
Q 281 1084 281 1450 
Q 281 1866 382 2164 
Q 484 2463 661 2653 
Q 838 2844 1077 2936 
Q 1316 3028 1594 3028 
Q 1728 3028 1854 3003 
Q 1981 2978 2087 2937 
Q 2194 2897 2276 2844 
Q 2359 2791 2396 2753 
Q 2434 2716 2448 2694 
Q 2463 2672 2472 2642 
Q 2481 2613 2484 2575 
Q 2488 2538 2488 2481 
Q 2488 2359 2459 2311 
Q 2431 2263 2391 2263 
Q 2344 2263 2283 2314 
Q 2222 2366 2128 2428 
Q 2034 2491 1901 2542 
Q 1769 2594 1588 2594 
Q 1216 2594 1017 2308 
Q 819 2022 819 1478 
Q 819 1206 870 1001 
Q 922 797 1022 659 
Q 1122 522 1267 455 
Q 1413 388 1600 388 
Q 1778 388 1912 444 
Q 2047 500 2145 567 
Q 2244 634 2311 689 
Q 2378 744 2416 744 
Q 2438 744 2453 731 
Q 2469 719 2480 689 
Q 2491 659 2495 614 
Q 2500 569 2500 506 
z
" transform="scale(0.015625)"/>
       <path id="Calibri-6d" d="M 4650 78 
Q 4650 53 4637 36 
Q 4625 19 4597 6 
Q 4569 -6 4519 -12 
Q 4469 -19 4394 -19 
Q 4316 -19 4266 -12 
Q 4216 -6 4186 6 
Q 4156 19 4143 36 
Q 4131 53 4131 78 
L 4131 1788 
Q 4131 1966 4100 2112 
Q 4069 2259 4000 2365 
Q 3931 2472 3825 2528 
Q 3719 2584 3575 2584 
Q 3397 2584 3217 2446 
Q 3038 2309 2822 2044 
L 2822 78 
Q 2822 53 2809 36 
Q 2797 19 2767 6 
Q 2738 -6 2688 -12 
Q 2638 -19 2563 -19 
Q 2491 -19 2439 -12 
Q 2388 -6 2358 6 
Q 2328 19 2317 36 
Q 2306 53 2306 78 
L 2306 1788 
Q 2306 1966 2272 2112 
Q 2238 2259 2169 2365 
Q 2100 2472 1995 2528 
Q 1891 2584 1747 2584 
Q 1569 2584 1387 2446 
Q 1206 2309 994 2044 
L 994 78 
Q 994 53 981 36 
Q 969 19 941 6 
Q 913 -6 863 -12 
Q 813 -19 734 -19 
Q 659 -19 609 -12 
Q 559 -6 529 6 
Q 500 19 489 36 
Q 478 53 478 78 
L 478 2891 
Q 478 2916 487 2933 
Q 497 2950 525 2964 
Q 553 2978 597 2983 
Q 641 2988 713 2988 
Q 781 2988 826 2983 
Q 872 2978 897 2964 
Q 922 2950 933 2933 
Q 944 2916 944 2891 
L 944 2519 
Q 1181 2784 1404 2907 
Q 1628 3031 1856 3031 
Q 2031 3031 2170 2990 
Q 2309 2950 2415 2876 
Q 2522 2803 2597 2701 
Q 2672 2600 2722 2475 
Q 2863 2628 2989 2734 
Q 3116 2841 3233 2906 
Q 3350 2972 3461 3001 
Q 3572 3031 3684 3031 
Q 3956 3031 4140 2936 
Q 4325 2841 4439 2681 
Q 4553 2522 4601 2308 
Q 4650 2094 4650 1856 
L 4650 78 
z
" transform="scale(0.015625)"/>
       <path id="DejaVuSans-32" d="M 1228 531 
L 3431 531 
L 3431 0 
L 469 0 
L 469 531 
Q 828 903 1448 1529 
Q 2069 2156 2228 2338 
Q 2531 2678 2651 2914 
Q 2772 3150 2772 3378 
Q 2772 3750 2511 3984 
Q 2250 4219 1831 4219 
Q 1534 4219 1204 4116 
Q 875 4013 500 3803 
L 500 4441 
Q 881 4594 1212 4672 
Q 1544 4750 1819 4750 
Q 2544 4750 2975 4387 
Q 3406 4025 3406 3419 
Q 3406 3131 3298 2873 
Q 3191 2616 2906 2266 
Q 2828 2175 2409 1742 
Q 1991 1309 1228 531 
z
" transform="scale(0.015625)"/>
       <path id="Calibri-2f" d="M 525 -753 
Q 513 -794 492 -817 
Q 472 -841 440 -853 
Q 409 -866 364 -872 
Q 319 -878 253 -878 
Q 175 -878 123 -867 
Q 72 -856 44 -836 
Q 16 -816 9 -786 
Q 3 -756 22 -716 
L 1913 4469 
Q 1925 4509 1945 4532 
Q 1966 4556 1995 4570 
Q 2025 4584 2072 4589 
Q 2119 4594 2184 4594 
Q 2263 4594 2313 4583 
Q 2363 4572 2391 4553 
Q 2419 4534 2425 4503 
Q 2431 4472 2416 4431 
L 525 -753 
z
" transform="scale(0.015625)"/>
       <path id="Calibri-29" d="M 1522 1678 
Q 1522 1325 1478 979 
Q 1434 634 1346 296 
Q 1259 -41 1132 -367 
Q 1006 -694 838 -1013 
Q 828 -1028 809 -1040 
Q 791 -1053 761 -1062 
Q 731 -1072 690 -1075 
Q 650 -1078 594 -1078 
Q 513 -1078 467 -1070 
Q 422 -1063 401 -1045 
Q 381 -1028 382 -1001 
Q 384 -975 400 -938 
Q 688 -306 834 355 
Q 981 1016 981 1688 
Q 981 2356 834 3017 
Q 688 3678 394 4306 
Q 381 4334 384 4359 
Q 388 4384 413 4400 
Q 438 4416 481 4425 
Q 525 4434 597 4434 
Q 663 4434 706 4429 
Q 750 4425 776 4415 
Q 803 4406 815 4397 
Q 828 4388 834 4375 
Q 1156 3734 1339 3057 
Q 1522 2381 1522 1678 
z
" transform="scale(0.015625)"/>
      </defs>
      <use xlink:href="#DejaVuSans-Oblique-70" transform="translate(0 0.765625)"/>
      <use xlink:href="#Calibri-20" transform="translate(63.476562 0.765625)"/>
      <use xlink:href="#Calibri-28" transform="translate(84.958984 0.765625)"/>
      <use xlink:href="#Calibri-63" transform="translate(115.28125 0.765625)"/>
      <use xlink:href="#Calibri-6d" transform="translate(157.566406 0.765625)"/>
      <use xlink:href="#DejaVuSans-32" transform="translate(238.40625 39.046875) scale(0.7)"/>
      <use xlink:href="#Calibri-2f" transform="translate(285.676758 0.765625)"/>
      <use xlink:href="#Calibri-63" transform="translate(324.299805 0.765625)"/>
      <use xlink:href="#Calibri-6d" transform="translate(366.584961 0.765625)"/>
      <use xlink:href="#DejaVuSans-32" transform="translate(447.424805 39.046875) scale(0.7)"/>
      <use xlink:href="#Calibri-29" transform="translate(494.695312 0.765625)"/>
     </g>
    </g>
   </g>
   <g id="matplotlib.axis_2">
    <g id="ytick_1">
     <g id="line2d_12">
      <defs>
       <path id="mac6b6e0e71" d="M 0 0 
L -3.5 0 
" style="stroke: #000000; stroke-width: 0.8"/>
      </defs>
      <g>
       <use xlink:href="#mac6b6e0e71" x="57.6" y="275.65056" style="stroke: #000000; stroke-width: 0.8"/>
      </g>
     </g>
     <g id="text_13">
      <!-- 25 -->
      <g transform="translate(40.4625 279.051341) scale(0.1 -0.1)">
       <use xlink:href="#Calibri-32"/>
       <use xlink:href="#Calibri-35" x="50.683594"/>
      </g>
     </g>
    </g>
    <g id="ytick_2">
     <g id="line2d_13">
      <g>
       <use xlink:href="#mac6b6e0e71" x="57.6" y="242.38656" style="stroke: #000000; stroke-width: 0.8"/>
      </g>
     </g>
     <g id="text_14">
      <!-- 50 -->
      <g transform="translate(40.4625 245.787341) scale(0.1 -0.1)">
       <use xlink:href="#Calibri-35"/>
       <use xlink:href="#Calibri-30" x="50.683594"/>
      </g>
     </g>
    </g>
    <g id="ytick_3">
     <g id="line2d_14">
      <g>
       <use xlink:href="#mac6b6e0e71" x="57.6" y="209.12256" style="stroke: #000000; stroke-width: 0.8"/>
      </g>
     </g>
     <g id="text_15">
      <!-- 75 -->
      <g transform="translate(40.4625 212.523341) scale(0.1 -0.1)">
       <use xlink:href="#Calibri-37"/>
       <use xlink:href="#Calibri-35" x="50.683594"/>
      </g>
     </g>
    </g>
    <g id="ytick_4">
     <g id="line2d_15">
      <g>
       <use xlink:href="#mac6b6e0e71" x="57.6" y="175.85856" style="stroke: #000000; stroke-width: 0.8"/>
      </g>
     </g>
     <g id="text_16">
      <!-- 100 -->
      <g transform="translate(35.39375 179.259341) scale(0.1 -0.1)">
       <use xlink:href="#Calibri-31"/>
       <use xlink:href="#Calibri-30" x="50.683594"/>
       <use xlink:href="#Calibri-30" x="101.367188"/>
      </g>
     </g>
    </g>
    <g id="ytick_5">
     <g id="line2d_16">
      <g>
       <use xlink:href="#mac6b6e0e71" x="57.6" y="142.59456" style="stroke: #000000; stroke-width: 0.8"/>
      </g>
     </g>
     <g id="text_17">
      <!-- 125 -->
      <g transform="translate(35.39375 145.995341) scale(0.1 -0.1)">
       <use xlink:href="#Calibri-31"/>
       <use xlink:href="#Calibri-32" x="50.683594"/>
       <use xlink:href="#Calibri-35" x="101.367188"/>
      </g>
     </g>
    </g>
    <g id="ytick_6">
     <g id="line2d_17">
      <g>
       <use xlink:href="#mac6b6e0e71" x="57.6" y="109.33056" style="stroke: #000000; stroke-width: 0.8"/>
      </g>
     </g>
     <g id="text_18">
      <!-- 150 -->
      <g transform="translate(35.39375 112.731341) scale(0.1 -0.1)">
       <use xlink:href="#Calibri-31"/>
       <use xlink:href="#Calibri-35" x="50.683594"/>
       <use xlink:href="#Calibri-30" x="101.367188"/>
      </g>
     </g>
    </g>
    <g id="ytick_7">
     <g id="line2d_18">
      <g>
       <use xlink:href="#mac6b6e0e71" x="57.6" y="76.06656" style="stroke: #000000; stroke-width: 0.8"/>
      </g>
     </g>
     <g id="text_19">
      <!-- 175 -->
      <g transform="translate(35.39375 79.467341) scale(0.1 -0.1)">
       <use xlink:href="#Calibri-31"/>
       <use xlink:href="#Calibri-37" x="50.683594"/>
       <use xlink:href="#Calibri-35" x="101.367188"/>
      </g>
     </g>
    </g>
    <g id="ytick_8">
     <g id="line2d_19">
      <g>
       <use xlink:href="#mac6b6e0e71" x="57.6" y="42.80256" style="stroke: #000000; stroke-width: 0.8"/>
      </g>
     </g>
     <g id="text_20">
      <!-- 200 -->
      <g transform="translate(35.39375 46.203341) scale(0.1 -0.1)">
       <use xlink:href="#Calibri-32"/>
       <use xlink:href="#Calibri-30" x="50.683594"/>
       <use xlink:href="#Calibri-30" x="101.367188"/>
      </g>
     </g>
    </g>
    <g id="text_21">
     <!-- $\mathit{Z}$$_{a}$ (nm) -->
     <g transform="translate(29.59375 191.028) rotate(-90) scale(0.1 -0.1)">
      <defs>
       <path id="DejaVuSans-Oblique-5a" d="M 838 4666 
L 4500 4666 
L 4409 4184 
L 794 531 
L 3769 531 
L 3669 0 
L -141 0 
L -50 481 
L 3566 4134 
L 738 4134 
L 838 4666 
z
" transform="scale(0.015625)"/>
       <path id="DejaVuSans-Oblique-61" d="M 3438 1997 
L 3047 0 
L 2472 0 
L 2578 531 
Q 2325 219 2001 64 
Q 1678 -91 1281 -91 
Q 834 -91 548 182 
Q 263 456 263 884 
Q 263 1497 752 1853 
Q 1241 2209 2100 2209 
L 2900 2209 
L 2931 2363 
Q 2938 2388 2941 2417 
Q 2944 2447 2944 2509 
Q 2944 2788 2717 2942 
Q 2491 3097 2081 3097 
Q 1800 3097 1504 3025 
Q 1209 2953 897 2809 
L 997 3341 
Q 1322 3463 1633 3523 
Q 1944 3584 2234 3584 
Q 2853 3584 3176 3315 
Q 3500 3047 3500 2534 
Q 3500 2431 3484 2292 
Q 3469 2153 3438 1997 
z
M 2816 1759 
L 2241 1759 
Q 1534 1759 1195 1570 
Q 856 1381 856 984 
Q 856 709 1029 553 
Q 1203 397 1509 397 
Q 1978 397 2328 733 
Q 2678 1069 2791 1631 
L 2816 1759 
z
" transform="scale(0.015625)"/>
       <path id="Calibri-6e" d="M 2900 78 
Q 2900 53 2887 36 
Q 2875 19 2847 6 
Q 2819 -6 2769 -12 
Q 2719 -19 2644 -19 
Q 2566 -19 2516 -12 
Q 2466 -6 2437 6 
Q 2409 19 2396 36 
Q 2384 53 2384 78 
L 2384 1725 
Q 2384 1966 2346 2112 
Q 2309 2259 2237 2365 
Q 2166 2472 2052 2528 
Q 1938 2584 1788 2584 
Q 1594 2584 1400 2446 
Q 1206 2309 994 2044 
L 994 78 
Q 994 53 981 36 
Q 969 19 941 6 
Q 913 -6 863 -12 
Q 813 -19 734 -19 
Q 659 -19 609 -12 
Q 559 -6 529 6 
Q 500 19 489 36 
Q 478 53 478 78 
L 478 2891 
Q 478 2916 487 2933 
Q 497 2950 525 2964 
Q 553 2978 597 2983 
Q 641 2988 713 2988 
Q 781 2988 826 2983 
Q 872 2978 897 2964 
Q 922 2950 933 2933 
Q 944 2916 944 2891 
L 944 2519 
Q 1181 2784 1417 2907 
Q 1653 3031 1894 3031 
Q 2175 3031 2367 2936 
Q 2559 2841 2678 2681 
Q 2797 2522 2848 2308 
Q 2900 2094 2900 1794 
L 2900 78 
z
" transform="scale(0.015625)"/>
      </defs>
      <use xlink:href="#DejaVuSans-Oblique-5a" transform="translate(0 0.09375)"/>
      <use xlink:href="#DejaVuSans-Oblique-61" transform="translate(69.462891 -16.3125) scale(0.7)"/>
      <use xlink:href="#Calibri-20" transform="translate(115.092773 0.09375)"/>
      <use xlink:href="#Calibri-28" transform="translate(136.575195 0.09375)"/>
      <use xlink:href="#Calibri-6e" transform="translate(166.897461 0.09375)"/>
      <use xlink:href="#Calibri-6d" transform="translate(219.436523 0.09375)"/>
      <use xlink:href="#Calibri-29" transform="translate(299.319336 0.09375)"/>
     </g>
    </g>
   </g>
   <g id="patch_3">
    <path d="M 57.6 307.584 
L 57.6 41.472 
" style="fill: none; stroke: #000000; stroke-width: 0.8; stroke-linejoin: miter; stroke-linecap: square"/>
   </g>
   <g id="patch_4">
    <path d="M 343.296 307.584 
L 343.296 41.472 
" style="fill: none; stroke: #000000; stroke-width: 0.8; stroke-linejoin: miter; stroke-linecap: square"/>
   </g>
   <g id="patch_5">
    <path d="M 57.6 307.584 
L 343.296 307.584 
" style="fill: none; stroke: #000000; stroke-width: 0.8; stroke-linejoin: miter; stroke-linecap: square"/>
   </g>
   <g id="patch_6">
    <path d="M 57.6 41.472 
L 343.296 41.472 
" style="fill: none; stroke: #000000; stroke-width: 0.8; stroke-linejoin: miter; stroke-linecap: square"/>
   </g>
   <g id="text_22">
    <!-- $\theta_m$ = 38 -->
    <g transform="translate(182.298 35.472) scale(0.1 -0.1)">
     <defs>
      <path id="DejaVuSans-Oblique-3b8" d="M 2913 2219 
L 925 2219 
Q 791 1284 928 888 
Q 1100 400 1566 400 
Q 2034 400 2391 891 
Q 2703 1322 2913 2219 
z
M 3009 2750 
Q 3094 3638 2984 3950 
Q 2813 4444 2353 4444 
Q 1875 4444 1525 3956 
Q 1250 3563 1034 2750 
L 3009 2750 
z
M 2444 4913 
Q 3194 4913 3494 4250 
Q 3794 3591 3566 2422 
Q 3341 1256 2781 594 
Q 2225 -72 1475 -72 
Q 722 -72 425 594 
Q 128 1256 353 2422 
Q 581 3591 1134 4250 
Q 1691 4913 2444 4913 
z
" transform="scale(0.015625)"/>
      <path id="DejaVuSans-Oblique-6d" d="M 5747 2113 
L 5338 0 
L 4763 0 
L 5166 2094 
Q 5191 2228 5203 2325 
Q 5216 2422 5216 2491 
Q 5216 2772 5059 2928 
Q 4903 3084 4622 3084 
Q 4203 3084 3875 2770 
Q 3547 2456 3450 1953 
L 3066 0 
L 2491 0 
L 2900 2094 
Q 2925 2209 2937 2307 
Q 2950 2406 2950 2484 
Q 2950 2769 2794 2926 
Q 2638 3084 2363 3084 
Q 1938 3084 1609 2770 
Q 1281 2456 1184 1953 
L 800 0 
L 225 0 
L 909 3500 
L 1484 3500 
L 1375 2956 
Q 1609 3263 1923 3423 
Q 2238 3584 2597 3584 
Q 2978 3584 3223 3384 
Q 3469 3184 3519 2828 
Q 3781 3197 4126 3390 
Q 4472 3584 4856 3584 
Q 5306 3584 5551 3325 
Q 5797 3066 5797 2591 
Q 5797 2488 5784 2364 
Q 5772 2241 5747 2113 
z
" transform="scale(0.015625)"/>
      <path id="Calibri-3d" d="M 2891 2409 
Q 2891 2284 2855 2236 
Q 2819 2188 2772 2188 
L 409 2188 
Q 363 2188 328 2236 
Q 294 2284 294 2409 
Q 294 2522 325 2575 
Q 356 2628 409 2628 
L 2772 2628 
Q 2828 2628 2859 2575 
Q 2891 2522 2891 2409 
z
M 2891 1194 
Q 2891 1069 2855 1022 
Q 2819 975 2772 975 
L 409 975 
Q 363 975 328 1022 
Q 294 1069 294 1194 
Q 294 1309 325 1362 
Q 356 1416 409 1416 
L 2772 1416 
Q 2828 1416 2859 1362 
Q 2891 1309 2891 1194 
z
" transform="scale(0.015625)"/>
      <path id="Calibri-b0" d="M 1847 3541 
Q 1847 3388 1789 3253 
Q 1731 3119 1626 3017 
Q 1522 2916 1380 2859 
Q 1238 2803 1072 2803 
Q 906 2803 770 2854 
Q 634 2906 534 3000 
Q 434 3094 378 3225 
Q 322 3356 322 3516 
Q 322 3675 381 3811 
Q 441 3947 545 4044 
Q 650 4141 790 4197 
Q 931 4253 1097 4253 
Q 1259 4253 1396 4200 
Q 1534 4147 1634 4055 
Q 1734 3963 1790 3831 
Q 1847 3700 1847 3541 
z
M 1453 3528 
Q 1453 3613 1425 3686 
Q 1397 3759 1347 3812 
Q 1297 3866 1228 3895 
Q 1159 3925 1078 3925 
Q 1000 3925 933 3895 
Q 866 3866 816 3812 
Q 766 3759 737 3687 
Q 709 3616 709 3534 
Q 709 3444 737 3369 
Q 766 3294 817 3241 
Q 869 3188 939 3158 
Q 1009 3128 1091 3128 
Q 1166 3128 1233 3159 
Q 1300 3191 1348 3245 
Q 1397 3300 1425 3372 
Q 1453 3444 1453 3528 
z
M 0 4044 
L 0 4044 
z
" transform="scale(0.015625)"/>
     </defs>
     <use xlink:href="#DejaVuSans-Oblique-3b8" transform="translate(0 0.234375)"/>
     <use xlink:href="#DejaVuSans-Oblique-6d" transform="translate(61.181641 -16.171875) scale(0.7)"/>
     <use xlink:href="#Calibri-20" transform="translate(132.104492 0.234375)"/>
     <use xlink:href="#Calibri-3d" transform="translate(154.711914 0.234375)"/>
     <use xlink:href="#Calibri-20" transform="translate(204.516602 0.234375)"/>
     <use xlink:href="#Calibri-33" transform="translate(227.124023 0.234375)"/>
     <use xlink:href="#Calibri-38" transform="translate(277.807617 0.234375)"/>
     <use xlink:href="#Calibri-b0" transform="translate(328.491211 0.234375)"/>
    </g>
   </g>
  </g>
  <g id="axes_2">
   <g id="patch_7">
    <path d="M 361.152 307.584 
L 374.4576 307.584 
L 374.4576 41.472 
L 361.152 41.472 
z
" style="fill: #ffffff"/>
   </g>
   <g id="QuadMesh_1">
    <path d="M 361.152 307.584 
L 374.4576 307.584 
L 374.4576 280.9728 
L 361.152 280.9728 
L 361.152 307.584 
" clip-path="url(#pd5c066c1ee)" style="fill: #0000b6"/>
    <path d="M 361.152 280.9728 
L 374.4576 280.9728 
L 374.4576 254.3616 
L 361.152 254.3616 
L 361.152 280.9728 
" clip-path="url(#pd5c066c1ee)" style="fill: #0018ff"/>
    <path d="M 361.152 254.3616 
L 374.4576 254.3616 
L 374.4576 227.7504 
L 361.152 227.7504 
L 361.152 254.3616 
" clip-path="url(#pd5c066c1ee)" style="fill: #0080ff"/>
    <path d="M 361.152 227.7504 
L 374.4576 227.7504 
L 374.4576 201.1392 
L 361.152 201.1392 
L 361.152 227.7504 
" clip-path="url(#pd5c066c1ee)" style="fill: #00e4f8"/>
    <path d="M 361.152 201.1392 
L 374.4576 201.1392 
L 374.4576 174.528 
L 361.152 174.528 
L 361.152 201.1392 
" clip-path="url(#pd5c066c1ee)" style="fill: #53ffa4"/>
    <path d="M 361.152 174.528 
L 374.4576 174.528 
L 374.4576 147.9168 
L 361.152 147.9168 
L 361.152 174.528 
" clip-path="url(#pd5c066c1ee)" style="fill: #a4ff53"/>
    <path d="M 361.152 147.9168 
L 374.4576 147.9168 
L 374.4576 121.3056 
L 361.152 121.3056 
L 361.152 147.9168 
" clip-path="url(#pd5c066c1ee)" style="fill: #f8f500"/>
    <path d="M 361.152 121.3056 
L 374.4576 121.3056 
L 374.4576 94.6944 
L 361.152 94.6944 
L 361.152 121.3056 
" clip-path="url(#pd5c066c1ee)" style="fill: #ff9400"/>
    <path d="M 361.152 94.6944 
L 374.4576 94.6944 
L 374.4576 68.0832 
L 361.152 68.0832 
L 361.152 94.6944 
" clip-path="url(#pd5c066c1ee)" style="fill: #ff3800"/>
    <path d="M 361.152 68.0832 
L 374.4576 68.0832 
L 374.4576 41.472 
L 361.152 41.472 
L 361.152 68.0832 
" clip-path="url(#pd5c066c1ee)" style="fill: #b60000"/>
   </g>
   <g id="matplotlib.axis_3"/>
   <g id="matplotlib.axis_4">
    <g id="ytick_9">
     <g id="line2d_20">
      <defs>
       <path id="m61ed20a4f2" d="M 0 0 
L 3.5 0 
" style="stroke: #000000; stroke-width: 0.8"/>
      </defs>
      <g>
       <use xlink:href="#m61ed20a4f2" x="374.4576" y="307.584" style="stroke: #000000; stroke-width: 0.8"/>
      </g>
     </g>
     <g id="text_23">
      <!-- 0 -->
      <g transform="translate(381.4576 310.984781) scale(0.1 -0.1)">
       <use xlink:href="#Calibri-30"/>
      </g>
     </g>
    </g>
    <g id="ytick_10">
     <g id="line2d_21">
      <g>
       <use xlink:href="#m61ed20a4f2" x="374.4576" y="280.9728" style="stroke: #000000; stroke-width: 0.8"/>
      </g>
     </g>
     <g id="text_24">
      <!-- 0.1 -->
      <g transform="translate(381.4576 284.373581) scale(0.1 -0.1)">
       <use xlink:href="#Calibri-30"/>
       <use xlink:href="#Calibri-2e" x="50.683594"/>
       <use xlink:href="#Calibri-31" x="75.927734"/>
      </g>
     </g>
    </g>
    <g id="ytick_11">
     <g id="line2d_22">
      <g>
       <use xlink:href="#m61ed20a4f2" x="374.4576" y="254.3616" style="stroke: #000000; stroke-width: 0.8"/>
      </g>
     </g>
     <g id="text_25">
      <!-- 0.2 -->
      <g transform="translate(381.4576 257.762381) scale(0.1 -0.1)">
       <use xlink:href="#Calibri-30"/>
       <use xlink:href="#Calibri-2e" x="50.683594"/>
       <use xlink:href="#Calibri-32" x="75.927734"/>
      </g>
     </g>
    </g>
    <g id="ytick_12">
     <g id="line2d_23">
      <g>
       <use xlink:href="#m61ed20a4f2" x="374.4576" y="227.7504" style="stroke: #000000; stroke-width: 0.8"/>
      </g>
     </g>
     <g id="text_26">
      <!-- 0.3 -->
      <g transform="translate(381.4576 231.151181) scale(0.1 -0.1)">
       <use xlink:href="#Calibri-30"/>
       <use xlink:href="#Calibri-2e" x="50.683594"/>
       <use xlink:href="#Calibri-33" x="75.927734"/>
      </g>
     </g>
    </g>
    <g id="ytick_13">
     <g id="line2d_24">
      <g>
       <use xlink:href="#m61ed20a4f2" x="374.4576" y="201.1392" style="stroke: #000000; stroke-width: 0.8"/>
      </g>
     </g>
     <g id="text_27">
      <!-- 0.4 -->
      <g transform="translate(381.4576 204.539981) scale(0.1 -0.1)">
       <use xlink:href="#Calibri-30"/>
       <use xlink:href="#Calibri-2e" x="50.683594"/>
       <use xlink:href="#Calibri-34" x="75.927734"/>
      </g>
     </g>
    </g>
    <g id="ytick_14">
     <g id="line2d_25">
      <g>
       <use xlink:href="#m61ed20a4f2" x="374.4576" y="174.528" style="stroke: #000000; stroke-width: 0.8"/>
      </g>
     </g>
     <g id="text_28">
      <!-- 0.5 -->
      <g transform="translate(381.4576 177.928781) scale(0.1 -0.1)">
       <use xlink:href="#Calibri-30"/>
       <use xlink:href="#Calibri-2e" x="50.683594"/>
       <use xlink:href="#Calibri-35" x="75.927734"/>
      </g>
     </g>
    </g>
    <g id="ytick_15">
     <g id="line2d_26">
      <g>
       <use xlink:href="#m61ed20a4f2" x="374.4576" y="147.9168" style="stroke: #000000; stroke-width: 0.8"/>
      </g>
     </g>
     <g id="text_29">
      <!-- 0.6 -->
      <g transform="translate(381.4576 151.317581) scale(0.1 -0.1)">
       <use xlink:href="#Calibri-30"/>
       <use xlink:href="#Calibri-2e" x="50.683594"/>
       <use xlink:href="#Calibri-36" x="75.927734"/>
      </g>
     </g>
    </g>
    <g id="ytick_16">
     <g id="line2d_27">
      <g>
       <use xlink:href="#m61ed20a4f2" x="374.4576" y="121.3056" style="stroke: #000000; stroke-width: 0.8"/>
      </g>
     </g>
     <g id="text_30">
      <!-- 0.7 -->
      <g transform="translate(381.4576 124.706381) scale(0.1 -0.1)">
       <use xlink:href="#Calibri-30"/>
       <use xlink:href="#Calibri-2e" x="50.683594"/>
       <use xlink:href="#Calibri-37" x="75.927734"/>
      </g>
     </g>
    </g>
    <g id="ytick_17">
     <g id="line2d_28">
      <g>
       <use xlink:href="#m61ed20a4f2" x="374.4576" y="94.6944" style="stroke: #000000; stroke-width: 0.8"/>
      </g>
     </g>
     <g id="text_31">
      <!-- 0.8 -->
      <g transform="translate(381.4576 98.095181) scale(0.1 -0.1)">
       <use xlink:href="#Calibri-30"/>
       <use xlink:href="#Calibri-2e" x="50.683594"/>
       <use xlink:href="#Calibri-38" x="75.927734"/>
      </g>
     </g>
    </g>
    <g id="ytick_18">
     <g id="line2d_29">
      <g>
       <use xlink:href="#m61ed20a4f2" x="374.4576" y="68.0832" style="stroke: #000000; stroke-width: 0.8"/>
      </g>
     </g>
     <g id="text_32">
      <!-- 0.9 -->
      <g transform="translate(381.4576 71.483981) scale(0.1 -0.1)">
       <use xlink:href="#Calibri-30"/>
       <use xlink:href="#Calibri-2e" x="50.683594"/>
       <use xlink:href="#Calibri-39" x="75.927734"/>
      </g>
     </g>
    </g>
    <g id="ytick_19">
     <g id="line2d_30">
      <g>
       <use xlink:href="#m61ed20a4f2" x="374.4576" y="41.472" style="stroke: #000000; stroke-width: 0.8"/>
      </g>
     </g>
     <g id="text_33">
      <!-- 1.0 -->
      <g transform="translate(381.4576 44.872781) scale(0.1 -0.1)">
       <use xlink:href="#Calibri-31"/>
       <use xlink:href="#Calibri-2e" x="50.683594"/>
       <use xlink:href="#Calibri-30" x="75.927734"/>
      </g>
     </g>
    </g>
   </g>
   <g id="LineCollection_1"/>
   <g id="patch_8">
    <path d="M 361.152 307.584 
L 367.8048 307.584 
L 374.4576 307.584 
L 374.4576 41.472 
L 367.8048 41.472 
L 361.152 41.472 
L 361.152 307.584 
z
" style="fill: none; stroke: #000000; stroke-width: 0.8; stroke-linejoin: miter; stroke-linecap: square"/>
   </g>
   <g id="text_34">
    <!-- $\mathit{E}_{\mathrm{Edis}}$/$\mathit{E}_{\mathrm{i}}$ -->
    <g transform="translate(351.0548 35.472) scale(0.1 -0.1)">
     <defs>
      <path id="DejaVuSans-Oblique-45" d="M 1081 4666 
L 4031 4666 
L 3928 4134 
L 1606 4134 
L 1338 2753 
L 3566 2753 
L 3463 2222 
L 1234 2222 
L 909 531 
L 3284 531 
L 3181 0 
L 172 0 
L 1081 4666 
z
" transform="scale(0.015625)"/>
      <path id="DejaVuSans-45" d="M 628 4666 
L 3578 4666 
L 3578 4134 
L 1259 4134 
L 1259 2753 
L 3481 2753 
L 3481 2222 
L 1259 2222 
L 1259 531 
L 3634 531 
L 3634 0 
L 628 0 
L 628 4666 
z
" transform="scale(0.015625)"/>
      <path id="DejaVuSans-64" d="M 2906 2969 
L 2906 4863 
L 3481 4863 
L 3481 0 
L 2906 0 
L 2906 525 
Q 2725 213 2448 61 
Q 2172 -91 1784 -91 
Q 1150 -91 751 415 
Q 353 922 353 1747 
Q 353 2572 751 3078 
Q 1150 3584 1784 3584 
Q 2172 3584 2448 3432 
Q 2725 3281 2906 2969 
z
M 947 1747 
Q 947 1113 1208 752 
Q 1469 391 1925 391 
Q 2381 391 2643 752 
Q 2906 1113 2906 1747 
Q 2906 2381 2643 2742 
Q 2381 3103 1925 3103 
Q 1469 3103 1208 2742 
Q 947 2381 947 1747 
z
" transform="scale(0.015625)"/>
      <path id="DejaVuSans-69" d="M 603 3500 
L 1178 3500 
L 1178 0 
L 603 0 
L 603 3500 
z
M 603 4863 
L 1178 4863 
L 1178 4134 
L 603 4134 
L 603 4863 
z
" transform="scale(0.015625)"/>
      <path id="DejaVuSans-73" d="M 2834 3397 
L 2834 2853 
Q 2591 2978 2328 3040 
Q 2066 3103 1784 3103 
Q 1356 3103 1142 2972 
Q 928 2841 928 2578 
Q 928 2378 1081 2264 
Q 1234 2150 1697 2047 
L 1894 2003 
Q 2506 1872 2764 1633 
Q 3022 1394 3022 966 
Q 3022 478 2636 193 
Q 2250 -91 1575 -91 
Q 1294 -91 989 -36 
Q 684 19 347 128 
L 347 722 
Q 666 556 975 473 
Q 1284 391 1588 391 
Q 1994 391 2212 530 
Q 2431 669 2431 922 
Q 2431 1156 2273 1281 
Q 2116 1406 1581 1522 
L 1381 1569 
Q 847 1681 609 1914 
Q 372 2147 372 2553 
Q 372 3047 722 3315 
Q 1072 3584 1716 3584 
Q 2034 3584 2315 3537 
Q 2597 3491 2834 3397 
z
" transform="scale(0.015625)"/>
     </defs>
     <use xlink:href="#DejaVuSans-Oblique-45" transform="translate(0 0.09375)"/>
     <use xlink:href="#DejaVuSans-45" transform="translate(63.183594 -16.3125) scale(0.7)"/>
     <use xlink:href="#DejaVuSans-64" transform="translate(107.412109 -16.3125) scale(0.7)"/>
     <use xlink:href="#DejaVuSans-69" transform="translate(151.845703 -16.3125) scale(0.7)"/>
     <use xlink:href="#DejaVuSans-73" transform="translate(171.293945 -16.3125) scale(0.7)"/>
     <use xlink:href="#Calibri-2f" transform="translate(210.498047 0.09375)"/>
     <use xlink:href="#DejaVuSans-Oblique-45" transform="translate(249.121094 0.09375)"/>
     <use xlink:href="#DejaVuSans-69" transform="translate(312.304688 -16.3125) scale(0.7)"/>
    </g>
   </g>
  </g>
 </g>
 <defs>
  <clipPath id="p7d1ac68634">
   <rect x="57.6" y="41.472" width="285.696" height="266.112"/>
  </clipPath>
  <clipPath id="pd5c066c1ee">
   <rect x="361.152" y="41.472" width="13.3056" height="266.112"/>
  </clipPath>
 </defs>
</svg>
