<?xml version="1.0" encoding="utf-8" standalone="no"?>
<!DOCTYPE svg PUBLIC "-//W3C//DTD SVG 1.1//EN"
  "http://www.w3.org/Graphics/SVG/1.1/DTD/svg11.dtd">
<svg xmlns:xlink="http://www.w3.org/1999/xlink" width="460.8pt" height="345.6pt" viewBox="0 0 460.8 345.6" xmlns="http://www.w3.org/2000/svg" version="1.1">
 <metadata>
  <rdf:RDF xmlns:dc="http://purl.org/dc/elements/1.1/" xmlns:cc="http://creativecommons.org/ns#" xmlns:rdf="http://www.w3.org/1999/02/22-rdf-syntax-ns#">
   <cc:Work>
    <dc:type rdf:resource="http://purl.org/dc/dcmitype/StillImage"/>
    <dc:date>2024-01-22T08:39:09.548921</dc:date>
    <dc:format>image/svg+xml</dc:format>
    <dc:creator>
     <cc:Agent>
      <dc:title>Matplotlib v3.7.1, https://matplotlib.org/</dc:title>
     </cc:Agent>
    </dc:creator>
   </cc:Work>
  </rdf:RDF>
 </metadata>
 <defs>
  <style type="text/css">*{stroke-linejoin: round; stroke-linecap: butt}</style>
 </defs>
 <g id="figure_1">
  <g id="patch_1">
   <path d="M 0 345.6 
L 460.8 345.6 
L 460.8 0 
L 0 0 
z
" style="fill: #ffffff"/>
  </g>
  <g id="axes_1">
   <g id="patch_2">
    <path d="M 57.6 307.584 
L 343.296 307.584 
L 343.296 41.472 
L 57.6 41.472 
z
" style="fill: #ffffff"/>
   </g>
   <g id="PathCollection_1">
    <path d="M 100.808978 41.472 
L 101.16436 42.061452 
L 101.398836 42.44628 
L 102.251245 43.848697 
L 102.82584 44.7984 
L 103.218511 45.43833 
L 103.33993 45.634446 
L 103.33993 44.7984 
L 103.33993 41.472 
L 101.816218 41.472 
" clip-path="url(#p8e766b3f7b)" style="fill: #0000b6"/>
   </g>
   <g id="PathCollection_2">
    <path d="M 103.33993 45.634446 
L 103.218511 45.43833 
L 102.82584 44.7984 
L 102.251245 43.848697 
L 101.398836 42.44628 
L 101.16436 42.061452 
L 100.808978 41.472 
L 100.292506 41.472 
L 98.768794 41.472 
L 97.245082 41.472 
L 95.72137 41.472 
L 94.197658 41.472 
L 92.673946 41.472 
L 91.150234 41.472 
L 89.626522 41.472 
L 88.10281 41.472 
L 86.579098 41.472 
L 85.055386 41.472 
L 83.531674 41.472 
L 82.007962 41.472 
L 80.48425 41.472 
L 78.960538 41.472 
L 77.436826 41.472 
L 75.913114 41.472 
L 74.389402 41.472 
L 72.86569 41.472 
L 71.341978 41.472 
L 69.818266 41.472 
L 68.294554 41.472 
L 66.770842 41.472 
L 65.24713 41.472 
L 63.723418 41.472 
L 62.199706 41.472 
L 60.675994 41.472 
L 59.152282 41.472 
L 57.62857 41.472 
L 57.62857 44.7984 
L 57.62857 48.1248 
L 57.62857 51.4512 
L 57.62857 54.7776 
L 57.62857 58.104 
L 57.62857 61.4304 
L 57.62857 64.7568 
L 57.62857 68.0832 
L 57.62857 71.4096 
L 57.62857 74.736 
L 57.62857 78.0624 
L 57.62857 81.3888 
L 57.62857 84.7152 
L 57.62857 88.0416 
L 57.62857 89.1064 
L 57.949132 89.678495 
L 58.90582 91.368 
L 59.042614 91.607415 
L 60.130599 93.503756 
L 60.236007 93.686926 
L 60.255161 93.72012 
L 60.453145 94.051046 
L 60.833502 94.6944 
L 61.298423 95.509399 
L 61.393068 95.66868 
L 62.45414 97.465347 
L 62.783227 98.0208 
L 63.497017 99.214034 
L 64.159462 100.31895 
L 64.179368 100.35182 
L 64.192178 100.37292 
L 64.219229 100.417706 
L 64.789345 101.3472 
L 64.949265 101.616549 
L 65.383915 102.32148 
L 65.922479 103.199252 
L 66.744747 104.536072 
L 66.784726 104.600421 
L 66.830262 104.6736 
L 67.677269 106.021187 
L 68.309865 107.02572 
L 68.694254 107.638565 
L 68.928833 108 
L 69.502649 108.909657 
L 69.542948 108.97428 
L 70.100404 109.839405 
L 71.05963 111.3264 
L 71.225441 111.580811 
L 72.007304 112.778866 
L 72.459257 113.46848 
L 72.597016 113.67852 
L 72.776282 113.943452 
L 73.250837 114.6528 
L 73.673106 115.300521 
L 73.892754 115.62708 
L 74.828264 117.021123 
L 75.47159 117.9792 
L 75.816652 118.487598 
L 76.084396 118.881935 
L 76.647321 119.70276 
L 77.078435 120.33132 
L 77.627536 121.133147 
L 77.668588 121.19098 
L 77.749026 121.3056 
L 78.264475 122.054015 
L 78.421585 122.27988 
L 78.477426 122.360275 
L 78.549077 122.463419 
L 79.196829 123.386639 
L 80.070429 124.632 
L 80.321861 124.986509 
L 81.239518 126.28082 
L 81.599302 126.785817 
L 81.740511 126.98412 
L 81.93035 127.243218 
L 82.448571 127.9584 
L 82.872024 128.554898 
L 83.147233 128.93268 
L 84.044681 130.164859 
L 84.859584 131.2848 
L 85.015252 131.496324 
L 85.123434 131.643444 
L 85.922185 132.7189 
L 86.603056 133.63692 
L 87.026059 134.207028 
L 87.127722 134.339873 
L 87.333059 134.6112 
L 87.771401 135.200864 
L 88.058768 135.58548 
L 88.450971 136.102636 
L 89.298674 137.221879 
L 89.708074 137.759564 
L 89.843367 137.9376 
L 90.891576 139.300842 
L 91.578721 140.195919 
L 91.616921 140.24518 
L 91.651378 140.28972 
L 91.779728 140.45539 
L 92.243639 141.051188 
L 92.41014 141.264 
L 92.518188 141.404846 
L 93.171327 142.23828 
L 93.537596 142.704974 
L 93.936607 143.214549 
L 94.357687 143.746974 
L 95.023369 144.5904 
L 95.466961 145.145796 
L 96.664276 146.64885 
L 96.818086 146.840858 
L 96.899336 146.94252 
L 97.1278 147.221237 
L 97.691806 147.9168 
L 97.997762 148.298121 
L 98.143739 148.482015 
L 98.477088 148.89108 
L 99.35429 149.96501 
L 100.261347 151.078981 
L 100.311982 151.140548 
L 100.396179 151.2432 
L 101.311328 152.345419 
L 102.345504 153.59532 
L 102.58047 153.878513 
L 103.156761 154.5696 
L 103.275057 154.711222 
L 103.33993 154.787299 
L 103.33993 154.5696 
L 103.33993 151.2432 
L 103.33993 147.9168 
L 103.33993 144.5904 
L 103.33993 141.264 
L 103.33993 137.9376 
L 103.33993 134.6112 
L 103.33993 131.2848 
L 103.33993 127.9584 
L 103.33993 124.632 
L 103.33993 121.3056 
L 103.33993 117.9792 
L 103.33993 114.6528 
L 103.33993 111.3264 
L 103.33993 108 
L 103.33993 104.6736 
L 103.33993 101.3472 
L 103.33993 98.0208 
L 103.33993 94.6944 
L 103.33993 91.368 
L 103.33993 88.0416 
L 103.33993 84.7152 
L 103.33993 81.3888 
L 103.33993 78.0624 
L 103.33993 74.736 
L 103.33993 71.4096 
L 103.33993 68.0832 
L 103.33993 64.7568 
L 103.33993 61.4304 
L 103.33993 58.104 
L 103.33993 54.7776 
L 103.33993 51.4512 
L 103.33993 48.1248 
" clip-path="url(#p8e766b3f7b)" style="fill: #0018ff"/>
   </g>
   <g id="PathCollection_3">
    <path d="M 103.33993 154.787299 
L 103.275057 154.711222 
L 103.156761 154.5696 
L 102.58047 153.878513 
L 102.345504 153.59532 
L 101.311328 152.345419 
L 100.396179 151.2432 
L 100.311982 151.140548 
L 100.261347 151.078981 
L 99.35429 149.96501 
L 98.477088 148.89108 
L 98.143739 148.482015 
L 97.997762 148.298121 
L 97.691806 147.9168 
L 97.1278 147.221237 
L 96.899336 146.94252 
L 96.818086 146.840858 
L 96.664276 146.64885 
L 95.466961 145.145796 
L 95.023369 144.5904 
L 94.357687 143.746974 
L 93.936607 143.214549 
L 93.537596 142.704974 
L 93.171327 142.23828 
L 92.518188 141.404846 
L 92.41014 141.264 
L 92.243639 141.051188 
L 91.779728 140.45539 
L 91.651378 140.28972 
L 91.616921 140.24518 
L 91.578721 140.195919 
L 90.891576 139.300842 
L 89.843367 137.9376 
L 89.708074 137.759564 
L 89.298674 137.221879 
L 88.450971 136.102636 
L 88.058768 135.58548 
L 87.771401 135.200864 
L 87.333059 134.6112 
L 87.127722 134.339873 
L 87.026059 134.207028 
L 86.603056 133.63692 
L 85.922185 132.7189 
L 85.123434 131.643444 
L 85.015252 131.496324 
L 84.859584 131.2848 
L 84.044681 130.164859 
L 83.147233 128.93268 
L 82.872024 128.554898 
L 82.448571 127.9584 
L 81.93035 127.243218 
L 81.740511 126.98412 
L 81.599302 126.785817 
L 81.239518 126.28082 
L 80.321861 124.986509 
L 80.070429 124.632 
L 79.196829 123.386639 
L 78.549077 122.463419 
L 78.477426 122.360275 
L 78.421585 122.27988 
L 78.264475 122.054015 
L 77.749026 121.3056 
L 77.668588 121.19098 
L 77.627536 121.133147 
L 77.078435 120.33132 
L 76.647321 119.70276 
L 76.084396 118.881935 
L 75.816652 118.487598 
L 75.47159 117.9792 
L 74.828264 117.021123 
L 73.892754 115.62708 
L 73.673106 115.300521 
L 73.250837 114.6528 
L 72.776282 113.943452 
L 72.597016 113.67852 
L 72.459257 113.46848 
L 72.007304 112.778866 
L 71.225441 111.580811 
L 71.05963 111.3264 
L 70.100404 109.839405 
L 69.542948 108.97428 
L 69.502649 108.909657 
L 68.928833 108 
L 68.694254 107.638565 
L 68.309865 107.02572 
L 67.677269 106.021187 
L 66.830262 104.6736 
L 66.784726 104.600421 
L 66.744747 104.536072 
L 65.922479 103.199252 
L 65.383915 102.32148 
L 64.949265 101.616549 
L 64.789345 101.3472 
L 64.219229 100.417706 
L 64.192178 100.37292 
L 64.179368 100.35182 
L 64.159462 100.31895 
L 63.497017 99.214034 
L 62.783227 98.0208 
L 62.45414 97.465347 
L 61.393068 95.66868 
L 61.298423 95.509399 
L 60.833502 94.6944 
L 60.453145 94.051046 
L 60.255161 93.72012 
L 60.236007 93.686926 
L 60.130599 93.503756 
L 59.042614 91.607415 
L 58.90582 91.368 
L 57.949132 89.678495 
L 57.62857 89.1064 
L 57.62857 91.368 
L 57.62857 94.6944 
L 57.62857 98.0208 
L 57.62857 101.3472 
L 57.62857 104.6736 
L 57.62857 108 
L 57.62857 111.3264 
L 57.62857 114.6528 
L 57.62857 117.9792 
L 57.62857 121.3056 
L 57.62857 124.632 
L 57.62857 127.9584 
L 57.62857 131.2848 
L 57.62857 134.6112 
L 57.62857 137.9376 
L 57.62857 141.264 
L 57.62857 144.5904 
L 57.62857 147.9168 
L 57.62857 151.2432 
L 57.62857 154.5696 
L 57.62857 157.896 
L 57.62857 161.2224 
L 57.62857 164.5488 
L 57.62857 165.814299 
L 57.958844 166.289495 
L 58.198296 166.631435 
L 58.38838 166.90092 
L 58.935437 167.679115 
L 59.07374 167.8752 
L 59.104287 167.9186 
L 59.76797 168.84948 
L 60.048719 169.244598 
L 60.396991 169.731134 
L 60.8385 170.345118 
L 61.4577 171.2016 
L 61.912813 171.827913 
L 63.175598 173.55372 
L 63.215961 173.609036 
L 63.903005 174.528 
L 64.439701 175.25813 
L 64.623491 175.50228 
L 65.680111 176.909163 
L 66.394504 177.8544 
L 66.695638 178.250757 
L 66.895783 178.512899 
L 67.582614 179.408628 
L 68.198041 180.20652 
L 68.679893 180.832351 
L 68.76938 180.94597 
L 68.95401 181.1808 
L 69.364108 181.709758 
L 69.709592 182.15508 
L 70.15656 182.724236 
L 71.035837 183.838868 
L 71.423521 184.329183 
L 71.565031 184.5072 
L 72.616163 185.822317 
L 73.269704 186.636534 
L 73.361727 186.750705 
L 73.449711 186.85932 
L 73.825526 187.323707 
L 74.239524 187.8336 
L 74.282094 187.88667 
L 74.302522 187.912162 
L 75.034832 188.80788 
L 75.311596 189.146767 
L 75.597113 189.494535 
L 76.110849 190.117845 
L 76.973118 191.16 
L 77.272145 191.519512 
L 78.000833 192.391278 
L 78.59284 193.097929 
L 78.941098 193.51212 
L 79.250399 193.876188 
L 79.769098 194.4864 
L 80.077976 194.853779 
L 80.597027 195.46068 
L 81.225131 196.195389 
L 81.836058 196.906789 
L 82.11784 197.233693 
L 82.618664 197.8128 
L 83.216635 198.500557 
L 84.542059 200.018562 
L 84.619976 200.107601 
L 84.670291 200.16492 
L 84.923878 200.450672 
L 85.53408 201.1392 
L 85.996691 201.66585 
L 86.395851 202.11348 
L 87.228741 203.047371 
L 87.996407 203.904812 
L 88.172107 204.10037 
L 88.501174 204.4656 
L 89.248568 205.290707 
L 90.636771 206.81772 
L 90.667087 206.851053 
L 90.937198 207.143793 
L 91.534508 207.792 
L 91.889485 208.179962 
L 92.050313 208.355929 
L 92.430631 208.76628 
L 93.314694 209.719588 
L 94.090444 210.553339 
L 94.268649 210.744242 
L 94.618757 211.1184 
L 95.360283 211.906685 
L 96.763783 213.394083 
L 96.805024 213.437699 
L 96.836127 213.47052 
L 96.86955 213.505512 
L 97.767121 214.4448 
L 98.087231 214.781873 
L 98.229821 214.932174 
L 98.697425 215.41908 
L 99.475469 216.228465 
L 100.128279 216.905653 
L 100.402852 217.189626 
L 100.966313 217.7712 
L 101.544342 218.36473 
L 102.568566 219.413645 
L 102.95362 219.807224 
L 103.33993 220.198692 
L 103.33993 217.7712 
L 103.33993 214.4448 
L 103.33993 211.1184 
L 103.33993 207.792 
L 103.33993 204.4656 
L 103.33993 201.1392 
L 103.33993 197.8128 
L 103.33993 194.4864 
L 103.33993 191.16 
L 103.33993 187.8336 
L 103.33993 184.5072 
L 103.33993 181.1808 
L 103.33993 177.8544 
L 103.33993 174.528 
L 103.33993 171.2016 
L 103.33993 167.8752 
L 103.33993 164.5488 
L 103.33993 161.2224 
L 103.33993 157.896 
" clip-path="url(#p8e766b3f7b)" style="fill: #0080ff"/>
   </g>
   <g id="PathCollection_4">
    <path d="M 103.33993 220.198692 
L 102.95362 219.807224 
L 102.568566 219.413645 
L 101.544342 218.36473 
L 100.966313 217.7712 
L 100.402852 217.189626 
L 100.128279 216.905653 
L 99.475469 216.228465 
L 98.697425 215.41908 
L 98.229821 214.932174 
L 98.087231 214.781873 
L 97.767121 214.4448 
L 96.86955 213.505512 
L 96.836127 213.47052 
L 96.805024 213.437699 
L 96.763783 213.394083 
L 95.360283 211.906685 
L 94.618757 211.1184 
L 94.268649 210.744242 
L 94.090444 210.553339 
L 93.314694 209.719588 
L 92.430631 208.76628 
L 92.050313 208.355929 
L 91.889485 208.179962 
L 91.534508 207.792 
L 90.937198 207.143793 
L 90.667087 206.851053 
L 90.636771 206.81772 
L 89.248568 205.290707 
L 88.501174 204.4656 
L 88.172107 204.10037 
L 87.996407 203.904812 
L 87.228741 203.047371 
L 86.395851 202.11348 
L 85.996691 201.66585 
L 85.53408 201.1392 
L 84.923878 200.450672 
L 84.670291 200.16492 
L 84.619976 200.107601 
L 84.542059 200.018562 
L 83.216635 198.500557 
L 82.618664 197.8128 
L 82.11784 197.233693 
L 81.836058 196.906789 
L 81.225131 196.195389 
L 80.597027 195.46068 
L 80.077976 194.853779 
L 79.769098 194.4864 
L 79.250399 193.876188 
L 78.941098 193.51212 
L 78.59284 193.097929 
L 78.000833 192.391278 
L 77.272145 191.519512 
L 76.973118 191.16 
L 76.110849 190.117845 
L 75.597113 189.494535 
L 75.311596 189.146767 
L 75.034832 188.80788 
L 74.302522 187.912162 
L 74.282094 187.88667 
L 74.239524 187.8336 
L 73.825526 187.323707 
L 73.449711 186.85932 
L 73.361727 186.750705 
L 73.269704 186.636534 
L 72.616163 185.822317 
L 71.565031 184.5072 
L 71.423521 184.329183 
L 71.035837 183.838868 
L 70.15656 182.724236 
L 69.709592 182.15508 
L 69.364108 181.709758 
L 68.95401 181.1808 
L 68.76938 180.94597 
L 68.679893 180.832351 
L 68.198041 180.20652 
L 67.582614 179.408628 
L 66.895783 178.512899 
L 66.695638 178.250757 
L 66.394504 177.8544 
L 65.680111 176.909163 
L 64.623491 175.50228 
L 64.439701 175.25813 
L 63.903005 174.528 
L 63.215961 173.609036 
L 63.175598 173.55372 
L 61.912813 171.827913 
L 61.4577 171.2016 
L 60.8385 170.345118 
L 60.396991 169.731134 
L 60.048719 169.244598 
L 59.76797 168.84948 
L 59.104287 167.9186 
L 59.07374 167.8752 
L 58.935437 167.679115 
L 58.38838 166.90092 
L 58.198296 166.631435 
L 57.958844 166.289495 
L 57.62857 165.814299 
L 57.62857 167.8752 
L 57.62857 171.2016 
L 57.62857 174.528 
L 57.62857 177.8544 
L 57.62857 181.1808 
L 57.62857 184.5072 
L 57.62857 187.8336 
L 57.62857 191.16 
L 57.62857 194.4864 
L 57.62857 197.8128 
L 57.62857 201.1392 
L 57.62857 204.4656 
L 57.62857 207.792 
L 57.62857 211.1184 
L 57.62857 214.4448 
L 57.62857 217.7712 
L 57.62857 221.0976 
L 57.62857 224.424 
L 57.62857 227.7504 
L 57.62857 228.097228 
L 57.996921 228.554545 
L 58.108927 228.69387 
L 58.134009 228.72468 
L 59.472425 230.377899 
L 60.046713 231.0768 
L 60.557536 231.701126 
L 60.864881 232.072322 
L 61.429863 232.757436 
L 61.99175 233.42892 
L 62.54374 234.092102 
L 62.807014 234.4032 
L 63.522676 235.256044 
L 63.625649 235.37748 
L 64.0698 235.904013 
L 64.806042 236.766666 
L 65.379588 237.440432 
L 65.629285 237.7296 
L 66.564419 238.817538 
L 67.092491 239.424835 
L 67.370767 239.74631 
L 67.665224 240.08172 
L 68.418393 240.944016 
L 68.517657 241.056 
L 68.690598 241.251867 
L 69.375093 242.03028 
L 70.10734 242.858847 
L 71.208205 244.090363 
L 71.384922 244.288649 
L 71.469641 244.3824 
L 72.622429 245.66449 
L 73.237221 246.340536 
L 73.406664 246.527804 
L 73.596284 246.73452 
L 74.442082 247.661163 
L 74.455712 247.676006 
L 74.486134 247.7088 
L 74.962228 248.226787 
L 75.381555 248.68308 
L 75.438361 248.745228 
L 75.488978 248.799816 
L 76.192487 249.562778 
L 77.312553 250.763902 
L 77.479035 250.943052 
L 77.565836 251.0352 
L 78.725633 252.273251 
L 79.313104 252.893381 
L 79.528393 253.121921 
L 79.781789 253.38732 
L 80.604287 254.253055 
L 80.708607 254.3616 
L 81.614953 255.309532 
L 81.640412 255.33588 
L 82.319744 256.044769 
L 83.190612 256.943432 
L 83.653207 257.422683 
L 83.912751 257.688 
L 84.868812 258.671324 
L 85.331192 259.141624 
L 85.727458 259.547205 
L 86.215503 260.04012 
L 86.894415 260.729269 
L 87.178179 261.0144 
L 87.983389 261.827026 
L 88.145305 261.98868 
L 88.484275 262.330306 
L 88.891484 262.736148 
L 89.899365 263.745157 
L 90.502308 264.3408 
L 91.047369 264.882943 
L 91.300303 265.131732 
L 91.99601 265.820795 
L 92.888309 266.69292 
L 93.301947 267.09932 
L 93.476292 267.270392 
L 93.885112 267.6672 
L 94.502081 268.270211 
L 94.769099 268.528306 
L 94.886287 268.64148 
L 96.21007 269.926723 
L 97.227619 270.901563 
L 97.257139 270.93005 
L 97.323701 270.9936 
L 98.326819 271.958471 
L 99.788423 273.34572 
L 99.816543 273.372557 
L 100.817042 274.32 
L 101.159143 274.644962 
L 101.30519 274.782105 
L 101.850297 275.29428 
L 102.57848 275.982314 
L 103.119968 276.487106 
L 103.33993 276.69534 
L 103.33993 274.32 
L 103.33993 270.9936 
L 103.33993 267.6672 
L 103.33993 264.3408 
L 103.33993 261.0144 
L 103.33993 257.688 
L 103.33993 254.3616 
L 103.33993 251.0352 
L 103.33993 247.7088 
L 103.33993 244.3824 
L 103.33993 241.056 
L 103.33993 237.7296 
L 103.33993 234.4032 
L 103.33993 231.0768 
L 103.33993 227.7504 
L 103.33993 224.424 
L 103.33993 221.0976 
" clip-path="url(#p8e766b3f7b)" style="fill: #00e4f8"/>
   </g>
   <g id="PathCollection_5">
    <path d="M 103.33993 276.69534 
L 103.119968 276.487106 
L 102.57848 275.982314 
L 101.850297 275.29428 
L 101.30519 274.782105 
L 101.159143 274.644962 
L 100.817042 274.32 
L 99.816543 273.372557 
L 99.788423 273.34572 
L 98.326819 271.958471 
L 97.323701 270.9936 
L 97.257139 270.93005 
L 97.227619 270.901563 
L 96.21007 269.926723 
L 94.886287 268.64148 
L 94.769099 268.528306 
L 94.502081 268.270211 
L 93.885112 267.6672 
L 93.476292 267.270392 
L 93.301947 267.09932 
L 92.888309 266.69292 
L 91.99601 265.820795 
L 91.300303 265.131732 
L 91.047369 264.882943 
L 90.502308 264.3408 
L 89.899365 263.745157 
L 88.891484 262.736148 
L 88.484275 262.330306 
L 88.145305 261.98868 
L 87.983389 261.827026 
L 87.178179 261.0144 
L 86.894415 260.729269 
L 86.215503 260.04012 
L 85.727458 259.547205 
L 85.331192 259.141624 
L 84.868812 258.671324 
L 83.912751 257.688 
L 83.653207 257.422683 
L 83.190612 256.943432 
L 82.319744 256.044769 
L 81.640412 255.33588 
L 81.614953 255.309532 
L 80.708607 254.3616 
L 80.604287 254.253055 
L 79.781789 253.38732 
L 79.528393 253.121921 
L 79.313104 252.893381 
L 78.725633 252.273251 
L 77.565836 251.0352 
L 77.479035 250.943052 
L 77.312553 250.763902 
L 76.192487 249.562778 
L 75.488978 248.799816 
L 75.438361 248.745228 
L 75.381555 248.68308 
L 74.962228 248.226787 
L 74.486134 247.7088 
L 74.455712 247.676006 
L 74.442082 247.661163 
L 73.596284 246.73452 
L 73.406664 246.527804 
L 73.237221 246.340536 
L 72.622429 245.66449 
L 71.469641 244.3824 
L 71.384922 244.288649 
L 71.208205 244.090363 
L 70.10734 242.858847 
L 69.375093 242.03028 
L 68.690598 241.251867 
L 68.517657 241.056 
L 68.418393 240.944016 
L 67.665224 240.08172 
L 67.370767 239.74631 
L 67.092491 239.424835 
L 66.564419 238.817538 
L 65.629285 237.7296 
L 65.379588 237.440432 
L 64.806042 236.766666 
L 64.0698 235.904013 
L 63.625649 235.37748 
L 63.522676 235.256044 
L 62.807014 234.4032 
L 62.54374 234.092102 
L 61.99175 233.42892 
L 61.429863 232.757436 
L 60.864881 232.072322 
L 60.557536 231.701126 
L 60.046713 231.0768 
L 59.472425 230.377899 
L 58.134009 228.72468 
L 58.108927 228.69387 
L 57.996921 228.554545 
L 57.62857 228.097228 
L 57.62857 231.0768 
L 57.62857 234.4032 
L 57.62857 237.7296 
L 57.62857 241.056 
L 57.62857 244.3824 
L 57.62857 247.7088 
L 57.62857 251.0352 
L 57.62857 254.3616 
L 57.62857 257.688 
L 57.62857 261.0144 
L 57.62857 264.3408 
L 57.62857 267.6672 
L 57.62857 270.9936 
L 57.62857 274.32 
L 57.62857 277.6464 
L 57.62857 280.9728 
L 57.62857 284.2992 
L 57.62857 287.6256 
L 57.62857 290.952 
L 57.62857 294.2784 
L 57.62857 297.6048 
L 57.62857 300.084353 
L 57.875788 300.3915 
L 58.296465 300.9312 
L 58.647605 301.387562 
L 59.053998 301.90548 
L 59.790197 302.864974 
L 60.606791 303.89287 
L 60.718102 304.035668 
L 60.895811 304.2576 
L 61.714694 305.316424 
L 62.750456 306.60972 
L 62.968705 306.888621 
L 63.52365 307.584 
L 63.723418 307.584 
L 65.24713 307.584 
L 66.770842 307.584 
L 68.294554 307.584 
L 69.818266 307.584 
L 71.341978 307.584 
L 72.86569 307.584 
L 74.389402 307.584 
L 75.913114 307.584 
L 77.436826 307.584 
L 78.960538 307.584 
L 80.48425 307.584 
L 82.007962 307.584 
L 83.531674 307.584 
L 85.055386 307.584 
L 86.579098 307.584 
L 88.10281 307.584 
L 89.626522 307.584 
L 91.150234 307.584 
L 92.673946 307.584 
L 94.197658 307.584 
L 95.72137 307.584 
L 97.245082 307.584 
L 98.768794 307.584 
L 100.292506 307.584 
L 101.816218 307.584 
L 103.33993 307.584 
L 103.33993 304.2576 
L 103.33993 300.9312 
L 103.33993 297.6048 
L 103.33993 294.2784 
L 103.33993 290.952 
L 103.33993 287.6256 
L 103.33993 284.2992 
L 103.33993 280.9728 
L 103.33993 277.6464 
" clip-path="url(#p8e766b3f7b)" style="fill: #53ffa4"/>
   </g>
   <g id="PathCollection_6">
    <path d="M 63.52365 307.584 
L 62.968705 306.888621 
L 62.750456 306.60972 
L 61.714694 305.316424 
L 60.895811 304.2576 
L 60.718102 304.035668 
L 60.606791 303.89287 
L 59.790197 302.864974 
L 59.053998 301.90548 
L 58.647605 301.387562 
L 58.296465 300.9312 
L 57.875788 300.3915 
L 57.62857 300.084353 
L 57.62857 300.9312 
L 57.62857 304.2576 
L 57.62857 307.584 
L 59.152282 307.584 
L 60.675994 307.584 
L 62.199706 307.584 
" clip-path="url(#p8e766b3f7b)" style="fill: #a4ff53"/>
   </g>
   <g id="PathCollection_7">
    <path clip-path="url(#p8e766b3f7b)" style="fill: #f8f500"/>
   </g>
   <g id="PathCollection_8">
    <path clip-path="url(#p8e766b3f7b)" style="fill: #ff9400"/>
   </g>
   <g id="PathCollection_9">
    <path clip-path="url(#p8e766b3f7b)" style="fill: #ff3800"/>
   </g>
   <g id="PathCollection_10">
    <path clip-path="url(#p8e766b3f7b)" style="fill: #b60000"/>
   </g>
   <g id="PathCollection_11">
    <path d="M 100.820933 41.472 
L 101.504488 42.622713 
L 102.659142 44.509629 
L 106.32582 50.3424 
L 107.238625 51.778473 
L 110.402127 56.61472 
L 111.214964 58.002758 
L 112.157676 59.2128 
L 113.405249 61.417025 
L 113.684564 61.81088 
L 113.927669 62.189249 
L 115.073485 63.928738 
L 117.091025 66.900145 
L 117.903425 68.0832 
L 120.871639 72.320671 
L 122.314948 74.35552 
L 123.705217 76.48456 
L 124.072685 76.9536 
L 124.159824 77.097271 
L 124.212505 77.192379 
L 126.01187 79.55168 
L 127.956735 82.297442 
L 130.477187 85.824 
L 132.031472 87.945227 
L 135.082973 92.09632 
L 135.105126 92.120907 
L 137.240682 94.6944 
L 138.086347 95.984243 
L 139.147137 97.29248 
L 142.575998 101.758881 
L 143.956213 103.5648 
L 147.380717 107.908813 
L 148.892493 109.83712 
L 149.367808 110.340024 
L 151.190192 112.4352 
L 152.112534 113.677664 
L 152.645871 114.464871 
L 153.129722 115.03328 
L 157.721139 120.644051 
L 158.25371 121.3056 
L 163.04292 127.044448 
L 163.482125 127.57792 
L 163.66113 127.781449 
L 165.886977 130.176 
L 167.804912 132.673375 
L 167.893641 132.77408 
L 172.732212 138.416664 
L 173.27435 139.0464 
L 173.290451 139.064403 
L 178.739488 145.31872 
L 178.820627 145.414078 
L 181.196935 147.9168 
L 183.16875 150.365002 
L 183.297023 150.51488 
L 183.63246 150.885334 
L 188.851191 156.7872 
L 189.17541 157.138861 
L 194.438966 163.05952 
L 194.661421 163.313131 
L 196.898749 165.6576 
L 198.441279 167.456037 
L 199.06217 168.25568 
L 199.699827 168.949084 
L 204.673768 174.528 
L 205.185213 175.076512 
L 210.279362 180.80032 
L 210.603471 181.166222 
L 211.413337 181.976533 
L 212.704283 183.3984 
L 214.321453 185.273612 
L 214.882677 185.99648 
L 215.780404 186.977887 
L 220.437948 192.2688 
L 221.160713 193.051753 
L 225.945749 198.54112 
L 226.415467 199.078347 
L 227.144065 199.831208 
L 228.285674 201.1392 
L 229.903612 203.132248 
L 230.43085 203.73728 
L 231.770743 205.245422 
L 235.811913 210.0096 
L 236.925319 211.258097 
L 241.105089 216.28192 
L 241.846302 217.163482 
L 242.425217 217.79749 
L 243.307387 218.88 
L 244.548866 220.489705 
L 245.373983 221.47808 
L 247.54973 224.072098 
L 250.469061 227.7504 
L 252.279472 229.914226 
L 255.439852 234.02272 
L 256.630534 235.542114 
L 257.461759 236.6208 
L 258.144413 237.586572 
L 259.101341 238.821 
L 259.418045 239.21888 
L 259.681804 239.543362 
L 260.533857 240.689667 
L 262.962558 243.867468 
L 264.124083 245.4912 
L 266.988527 249.277269 
L 268.684833 251.76352 
L 270.492999 254.339141 
L 270.49928 254.347758 
L 270.507924 254.3616 
L 270.519594 254.380485 
L 270.535389 254.4033 
L 272.331924 256.95968 
L 274.030318 259.301495 
L 276.58086 263.232 
L 277.844395 265.067607 
L 280.669034 269.50432 
L 280.705864 269.55478 
L 282.312257 272.1024 
L 282.941288 273.018855 
L 283.294098 273.617929 
L 283.926088 274.70048 
L 287.310711 280.230103 
L 287.70403 280.9728 
L 289.449998 284.059782 
L 291.304618 287.24512 
L 291.534872 287.618194 
L 292.712539 289.8432 
L 293.97225 292.040243 
L 294.161223 292.44128 
L 295.902104 295.606596 
L 297.438755 298.7136 
L 299.417654 302.444608 
L 300.535932 304.98592 
L 301.502138 306.984725 
L 301.80373 307.584 
L 302.8224 307.584 
L 310.91712 307.584 
L 319.01184 307.584 
L 327.10656 307.584 
L 335.20128 307.584 
L 343.296 307.584 
L 343.296 298.7136 
L 343.296 289.8432 
L 343.296 280.9728 
L 343.296 272.1024 
L 343.296 263.232 
L 343.296 254.3616 
L 343.296 245.4912 
L 343.296 236.6208 
L 343.296 227.7504 
L 343.296 218.88 
L 343.296 210.0096 
L 343.296 201.1392 
L 343.296 192.2688 
L 343.296 183.3984 
L 343.296 174.528 
L 343.296 165.6576 
L 343.296 156.7872 
L 343.296 147.9168 
L 343.296 139.0464 
L 343.296 130.176 
L 343.296 121.3056 
L 343.296 112.4352 
L 343.296 103.5648 
L 343.296 94.6944 
L 343.296 85.824 
L 343.296 76.9536 
L 343.296 68.0832 
L 343.296 59.2128 
L 343.296 50.3424 
L 343.296 41.472 
L 335.20128 41.472 
L 327.10656 41.472 
L 319.01184 41.472 
L 310.91712 41.472 
L 302.8224 41.472 
L 294.72768 41.472 
L 286.63296 41.472 
L 278.53824 41.472 
L 270.44352 41.472 
L 262.3488 41.472 
L 254.25408 41.472 
L 246.15936 41.472 
L 238.06464 41.472 
L 229.96992 41.472 
L 221.8752 41.472 
L 213.78048 41.472 
L 205.68576 41.472 
L 197.59104 41.472 
L 189.49632 41.472 
L 181.4016 41.472 
L 173.30688 41.472 
L 165.21216 41.472 
L 157.11744 41.472 
L 149.02272 41.472 
L 140.928 41.472 
L 132.83328 41.472 
L 124.73856 41.472 
L 116.64384 41.472 
L 108.54912 41.472 
" clip-path="url(#p8e766b3f7b)" style="fill: #0000b6"/>
   </g>
   <g id="PathCollection_12">
    <path d="M 301.80373 307.584 
L 301.502138 306.984725 
L 300.535932 304.98592 
L 299.417654 302.444608 
L 297.438755 298.7136 
L 295.902104 295.606596 
L 294.161223 292.44128 
L 293.97225 292.040243 
L 292.712539 289.8432 
L 291.534872 287.618194 
L 291.304618 287.24512 
L 289.449998 284.059782 
L 287.70403 280.9728 
L 287.310711 280.230103 
L 283.926088 274.70048 
L 283.294098 273.617929 
L 282.941288 273.018855 
L 282.312257 272.1024 
L 280.705864 269.55478 
L 280.669034 269.50432 
L 277.844395 265.067607 
L 276.58086 263.232 
L 274.030318 259.301495 
L 272.331924 256.95968 
L 270.535389 254.4033 
L 270.519594 254.380485 
L 270.507924 254.3616 
L 270.49928 254.347758 
L 270.492999 254.339141 
L 268.684833 251.76352 
L 266.988527 249.277269 
L 264.124083 245.4912 
L 262.962558 243.867468 
L 260.533857 240.689667 
L 259.681804 239.543362 
L 259.418045 239.21888 
L 259.101341 238.821 
L 258.144413 237.586572 
L 257.461759 236.6208 
L 256.630534 235.542114 
L 255.439852 234.02272 
L 252.279472 229.914226 
L 250.469061 227.7504 
L 247.54973 224.072098 
L 245.373983 221.47808 
L 244.548866 220.489705 
L 243.307387 218.88 
L 242.425217 217.79749 
L 241.846302 217.163482 
L 241.105089 216.28192 
L 236.925319 211.258097 
L 235.811913 210.0096 
L 231.770743 205.245422 
L 230.43085 203.73728 
L 229.903612 203.132248 
L 228.285674 201.1392 
L 227.144065 199.831208 
L 226.415467 199.078347 
L 225.945749 198.54112 
L 221.160713 193.051753 
L 220.437948 192.2688 
L 215.780404 186.977887 
L 214.882677 185.99648 
L 214.321453 185.273612 
L 212.704283 183.3984 
L 211.413337 181.976533 
L 210.603471 181.166222 
L 210.279362 180.80032 
L 205.185213 175.076512 
L 204.673768 174.528 
L 199.699827 168.949084 
L 199.06217 168.25568 
L 198.441279 167.456037 
L 196.898749 165.6576 
L 194.661421 163.313131 
L 194.438966 163.05952 
L 189.17541 157.138861 
L 188.851191 156.7872 
L 183.63246 150.885334 
L 183.297023 150.51488 
L 183.16875 150.365002 
L 181.196935 147.9168 
L 178.820627 145.414078 
L 178.739488 145.31872 
L 173.290451 139.064403 
L 173.27435 139.0464 
L 172.732212 138.416664 
L 167.893641 132.77408 
L 167.804912 132.673375 
L 165.886977 130.176 
L 163.66113 127.781449 
L 163.482125 127.57792 
L 163.04292 127.044448 
L 158.25371 121.3056 
L 157.721139 120.644051 
L 153.129722 115.03328 
L 152.645871 114.464871 
L 152.112534 113.677664 
L 151.190192 112.4352 
L 149.367808 110.340024 
L 148.892493 109.83712 
L 147.380717 107.908813 
L 143.956213 103.5648 
L 142.575998 101.758881 
L 139.147137 97.29248 
L 138.086347 95.984243 
L 137.240682 94.6944 
L 135.105126 92.120907 
L 135.082973 92.09632 
L 132.031472 87.945227 
L 130.477187 85.824 
L 127.956735 82.297442 
L 126.01187 79.55168 
L 124.212505 77.192379 
L 124.159824 77.097271 
L 124.072685 76.9536 
L 123.705217 76.48456 
L 122.314948 74.35552 
L 120.871639 72.320671 
L 117.903425 68.0832 
L 117.091025 66.900145 
L 115.073485 63.928738 
L 113.927669 62.189249 
L 113.684564 61.81088 
L 113.405249 61.417025 
L 112.157676 59.2128 
L 111.214964 58.002758 
L 110.402127 56.61472 
L 107.238625 51.778473 
L 106.32582 50.3424 
L 102.659142 44.509629 
L 101.504488 42.622713 
L 100.820933 41.472 
L 100.4544 41.472 
L 100.4544 50.3424 
L 100.4544 59.2128 
L 100.4544 68.0832 
L 100.4544 76.9536 
L 100.4544 85.824 
L 100.4544 94.6944 
L 100.4544 103.5648 
L 100.4544 112.4352 
L 100.4544 121.3056 
L 100.4544 130.176 
L 100.4544 139.0464 
L 100.4544 147.9168 
L 100.4544 151.25991 
L 101.886165 152.999386 
L 105.077339 156.7872 
L 106.760669 158.747031 
L 110.512154 163.05952 
L 111.546214 164.297202 
L 112.858908 165.6576 
L 113.961612 167.001247 
L 115.025273 168.25568 
L 117.846807 171.345481 
L 120.7613 174.528 
L 122.777007 176.67752 
L 126.64846 180.80032 
L 127.768681 182.023011 
L 128.288959 182.517016 
L 129.172135 183.3984 
L 131.351955 185.775646 
L 131.544513 185.99648 
L 134.187425 188.686333 
L 137.692275 192.2688 
L 139.388004 193.956367 
L 143.957684 198.54112 
L 144.789716 199.386345 
L 145.474603 200.010509 
L 146.653625 201.1392 
L 148.460264 203.009079 
L 149.185094 203.73728 
L 150.804125 205.296792 
L 155.64519 210.0096 
L 156.435352 210.75705 
L 162.181038 216.28192 
L 162.392381 216.485674 
L 165.003517 218.88 
L 167.62416 221.459419 
L 167.643984 221.47808 
L 173.776218 227.236088 
L 174.309017 227.7504 
L 179.551801 232.644149 
L 180.997475 234.02272 
L 181.606944 234.560315 
L 183.832255 236.6208 
L 185.657096 238.363446 
L 186.569892 239.21888 
L 191.254605 243.564427 
L 193.259348 245.4912 
L 196.465726 248.468282 
L 199.920065 251.76352 
L 201.588439 253.344443 
L 202.693087 254.3616 
L 203.663841 255.279361 
L 205.428178 256.95968 
L 208.655024 259.978205 
L 211.984681 263.232 
L 213.308474 264.480718 
L 214.803385 265.938153 
L 217.259683 268.289801 
L 218.46386 269.50432 
L 220.448459 271.454794 
L 221.116078 272.1024 
L 221.274733 272.251465 
L 221.360521 272.336016 
L 223.747122 274.70048 
L 225.795577 276.676751 
L 229.939593 280.892569 
L 229.983597 280.936616 
L 230.018208 280.9728 
L 234.213496 285.192982 
L 236.128452 287.24512 
L 238.466475 289.660805 
L 238.630395 289.8432 
L 239.05367 290.292126 
L 241.08221 292.44128 
L 242.483535 293.871263 
L 245.619661 297.285796 
L 246.387122 298.111044 
L 246.918822 298.7136 
L 250.599924 302.717917 
L 252.527929 304.98592 
L 254.679866 307.390733 
L 254.839291 307.584 
L 262.3488 307.584 
L 270.44352 307.584 
L 278.53824 307.584 
L 286.63296 307.584 
L 294.72768 307.584 
" clip-path="url(#p8e766b3f7b)" style="fill: #0018ff"/>
   </g>
   <g id="PathCollection_13">
    <path d="M 254.839291 307.584 
L 254.679866 307.390733 
L 252.527929 304.98592 
L 250.599924 302.717917 
L 246.918822 298.7136 
L 246.387122 298.111044 
L 245.619661 297.285796 
L 242.483535 293.871263 
L 241.08221 292.44128 
L 239.05367 290.292126 
L 238.630395 289.8432 
L 238.466475 289.660805 
L 236.128452 287.24512 
L 234.213496 285.192982 
L 230.018208 280.9728 
L 229.983597 280.936616 
L 229.939593 280.892569 
L 225.795577 276.676751 
L 223.747122 274.70048 
L 221.360521 272.336016 
L 221.274733 272.251465 
L 221.116078 272.1024 
L 220.448459 271.454794 
L 218.46386 269.50432 
L 217.259683 268.289801 
L 214.803385 265.938153 
L 213.308474 264.480718 
L 211.984681 263.232 
L 208.655024 259.978205 
L 205.428178 256.95968 
L 203.663841 255.279361 
L 202.693087 254.3616 
L 201.588439 253.344443 
L 199.920065 251.76352 
L 196.465726 248.468282 
L 193.259348 245.4912 
L 191.254605 243.564427 
L 186.569892 239.21888 
L 185.657096 238.363446 
L 183.832255 236.6208 
L 181.606944 234.560315 
L 180.997475 234.02272 
L 179.551801 232.644149 
L 174.309017 227.7504 
L 173.776218 227.236088 
L 167.643984 221.47808 
L 167.62416 221.459419 
L 165.003517 218.88 
L 162.392381 216.485674 
L 162.181038 216.28192 
L 156.435352 210.75705 
L 155.64519 210.0096 
L 150.804125 205.296792 
L 149.185094 203.73728 
L 148.460264 203.009079 
L 146.653625 201.1392 
L 145.474603 200.010509 
L 144.789716 199.386345 
L 143.957684 198.54112 
L 139.388004 193.956367 
L 137.692275 192.2688 
L 134.187425 188.686333 
L 131.544513 185.99648 
L 131.351955 185.775646 
L 129.172135 183.3984 
L 128.288959 182.517016 
L 127.768681 182.023011 
L 126.64846 180.80032 
L 122.777007 176.67752 
L 120.7613 174.528 
L 117.846807 171.345481 
L 115.025273 168.25568 
L 113.961612 167.001247 
L 112.858908 165.6576 
L 111.546214 164.297202 
L 110.512154 163.05952 
L 106.760669 158.747031 
L 105.077339 156.7872 
L 101.886165 152.999386 
L 100.4544 151.25991 
L 100.4544 156.7872 
L 100.4544 165.6576 
L 100.4544 174.528 
L 100.4544 183.3984 
L 100.4544 192.2688 
L 100.4544 201.1392 
L 100.4544 210.0096 
L 100.4544 217.228486 
L 101.225873 218.0346 
L 102.063085 218.88 
L 104.058148 220.918478 
L 104.627501 221.47808 
L 109.670235 226.521853 
L 110.919789 227.7504 
L 115.104446 231.822953 
L 117.390585 234.02272 
L 118.523299 235.077866 
L 120.183028 236.6208 
L 121.108348 237.521998 
L 121.631028 238.031327 
L 122.917387 239.21888 
L 126.997581 243.015707 
L 129.684707 245.4912 
L 132.026119 247.626591 
L 134.481046 249.850459 
L 135.836303 251.070811 
L 136.60806 251.76352 
L 138.044124 253.052592 
L 139.517875 254.3616 
L 139.988434 254.788074 
L 142.447468 256.95968 
L 144.775104 259.016246 
L 148.750938 262.512985 
L 149.159263 262.870767 
L 149.571097 263.232 
L 153.782709 266.886283 
L 156.794434 269.50432 
L 158.877827 271.30335 
L 159.801819 272.1024 
L 162.797666 274.680687 
L 162.820662 274.70048 
L 162.832234 274.710383 
L 162.851123 274.726542 
L 166.418379 277.78168 
L 170.127881 280.9728 
L 171.915664 282.497329 
L 177.449198 287.24512 
L 178.000998 287.712513 
L 178.865576 288.463258 
L 180.448427 289.8432 
L 183.408618 292.350949 
L 183.515303 292.44128 
L 183.709731 292.607309 
L 184.706968 293.465307 
L 190.069715 298.085259 
L 190.786748 298.7136 
L 195.913443 303.151778 
L 198.00519 304.98592 
L 199.09576 305.935089 
L 200.955575 307.584 
L 205.68576 307.584 
L 213.78048 307.584 
L 221.8752 307.584 
L 229.96992 307.584 
L 238.06464 307.584 
L 246.15936 307.584 
L 254.25408 307.584 
" clip-path="url(#p8e766b3f7b)" style="fill: #0080ff"/>
   </g>
   <g id="PathCollection_14">
    <path d="M 200.955575 307.584 
L 199.09576 305.935089 
L 198.00519 304.98592 
L 195.913443 303.151778 
L 190.786748 298.7136 
L 190.069715 298.085259 
L 184.706968 293.465307 
L 183.709731 292.607309 
L 183.515303 292.44128 
L 183.408618 292.350949 
L 180.448427 289.8432 
L 178.865576 288.463258 
L 178.000998 287.712513 
L 177.449198 287.24512 
L 171.915664 282.497329 
L 170.127881 280.9728 
L 166.418379 277.78168 
L 162.851123 274.726542 
L 162.832234 274.710383 
L 162.820662 274.70048 
L 162.797666 274.680687 
L 159.801819 272.1024 
L 158.877827 271.30335 
L 156.794434 269.50432 
L 153.782709 266.886283 
L 149.571097 263.232 
L 149.159263 262.870767 
L 148.750938 262.512985 
L 144.775104 259.016246 
L 142.447468 256.95968 
L 139.988434 254.788074 
L 139.517875 254.3616 
L 138.044124 253.052592 
L 136.60806 251.76352 
L 135.836303 251.070811 
L 134.481046 249.850459 
L 132.026119 247.626591 
L 129.684707 245.4912 
L 126.997581 243.015707 
L 122.917387 239.21888 
L 121.631028 238.031327 
L 121.108348 237.521998 
L 120.183028 236.6208 
L 118.523299 235.077866 
L 117.390585 234.02272 
L 115.104446 231.822953 
L 110.919789 227.7504 
L 109.670235 226.521853 
L 104.627501 221.47808 
L 104.058148 220.918478 
L 102.063085 218.88 
L 101.225873 218.0346 
L 100.4544 217.228486 
L 100.4544 218.88 
L 100.4544 227.7504 
L 100.4544 236.6208 
L 100.4544 245.4912 
L 100.4544 254.3616 
L 100.4544 263.232 
L 100.4544 272.1024 
L 100.4544 274.000442 
L 102.398761 275.828883 
L 107.957848 280.9728 
L 108.274765 281.273445 
L 111.430486 284.130274 
L 114.421525 286.85206 
L 114.866247 287.24512 
L 115.733641 288.059648 
L 117.735202 289.8432 
L 120.12129 291.939005 
L 120.694077 292.44128 
L 126.102841 297.218586 
L 127.859427 298.7136 
L 131.600345 301.975398 
L 135.152656 304.98592 
L 135.181458 305.010807 
L 138.176092 307.584 
L 140.928 307.584 
L 149.02272 307.584 
L 157.11744 307.584 
L 165.21216 307.584 
L 173.30688 307.584 
L 181.4016 307.584 
L 189.49632 307.584 
L 197.59104 307.584 
" clip-path="url(#p8e766b3f7b)" style="fill: #00e4f8"/>
   </g>
   <g id="PathCollection_15">
    <path d="M 138.176092 307.584 
L 135.181458 305.010807 
L 135.152656 304.98592 
L 131.600345 301.975398 
L 127.859427 298.7136 
L 126.102841 297.218586 
L 120.694077 292.44128 
L 120.12129 291.939005 
L 117.735202 289.8432 
L 115.733641 288.059648 
L 114.866247 287.24512 
L 114.421525 286.85206 
L 111.430486 284.130274 
L 108.274765 281.273445 
L 107.957848 280.9728 
L 102.398761 275.828883 
L 100.4544 274.000442 
L 100.4544 280.9728 
L 100.4544 289.8432 
L 100.4544 298.7136 
L 100.4544 307.584 
L 108.54912 307.584 
L 116.64384 307.584 
L 124.73856 307.584 
L 132.83328 307.584 
" clip-path="url(#p8e766b3f7b)" style="fill: #53ffa4"/>
   </g>
   <g id="PathCollection_16">
    <path clip-path="url(#p8e766b3f7b)" style="fill: #a4ff53"/>
   </g>
   <g id="PathCollection_17">
    <path clip-path="url(#p8e766b3f7b)" style="fill: #f8f500"/>
   </g>
   <g id="PathCollection_18">
    <path clip-path="url(#p8e766b3f7b)" style="fill: #ff9400"/>
   </g>
   <g id="PathCollection_19">
    <path clip-path="url(#p8e766b3f7b)" style="fill: #ff3800"/>
   </g>
   <g id="PathCollection_20">
    <path clip-path="url(#p8e766b3f7b)" style="fill: #b60000"/>
   </g>
   <g id="matplotlib.axis_1">
    <g id="xtick_1">
     <g id="line2d_1">
      <defs>
       <path id="m196f0a5699" d="M 0 0 
L 0 3.5 
" style="stroke: #000000; stroke-width: 0.8"/>
      </defs>
      <g>
       <use xlink:href="#m196f0a5699" x="57.6" y="307.584" style="stroke: #000000; stroke-width: 0.8"/>
      </g>
     </g>
     <g id="text_1">
      <!-- 0.0 -->
      <g transform="translate(51.26875 321.385562) scale(0.1 -0.1)">
       <defs>
        <path id="Calibri-30" d="M 3022 2031 
Q 3022 1566 2948 1181 
Q 2875 797 2704 520 
Q 2534 244 2259 92 
Q 1984 -59 1581 -59 
Q 1200 -59 939 77 
Q 678 213 518 477 
Q 359 741 292 1127 
Q 225 1513 225 2013 
Q 225 2475 300 2861 
Q 375 3247 544 3523 
Q 713 3800 988 3951 
Q 1263 4103 1663 4103 
Q 2047 4103 2308 3967 
Q 2569 3831 2728 3567 
Q 2888 3303 2955 2917 
Q 3022 2531 3022 2031 
z
M 2472 1994 
Q 2472 2297 2450 2537 
Q 2428 2778 2386 2962 
Q 2344 3147 2276 3280 
Q 2209 3413 2115 3498 
Q 2022 3584 1901 3623 
Q 1781 3663 1631 3663 
Q 1366 3663 1200 3538 
Q 1034 3413 939 3194 
Q 844 2975 809 2681 
Q 775 2388 775 2050 
Q 775 1597 822 1280 
Q 869 963 970 763 
Q 1072 563 1230 472 
Q 1388 381 1613 381 
Q 1788 381 1920 437 
Q 2053 494 2148 598 
Q 2244 703 2306 850 
Q 2369 997 2406 1175 
Q 2444 1353 2458 1561 
Q 2472 1769 2472 1994 
z
" transform="scale(0.015625)"/>
        <path id="Calibri-2e" d="M 1144 341 
Q 1144 119 1070 45 
Q 997 -28 803 -28 
Q 616 -28 544 44 
Q 472 116 472 331 
Q 472 553 545 626 
Q 619 700 813 700 
Q 1000 700 1072 628 
Q 1144 556 1144 341 
z
" transform="scale(0.015625)"/>
       </defs>
       <use xlink:href="#Calibri-30"/>
       <use xlink:href="#Calibri-2e" x="50.683594"/>
       <use xlink:href="#Calibri-30" x="75.927734"/>
      </g>
     </g>
    </g>
    <g id="xtick_2">
     <g id="line2d_2">
      <g>
       <use xlink:href="#m196f0a5699" x="86.1696" y="307.584" style="stroke: #000000; stroke-width: 0.8"/>
      </g>
     </g>
     <g id="text_2">
      <!-- 0.1 -->
      <g transform="translate(79.83835 321.385562) scale(0.1 -0.1)">
       <defs>
        <path id="Calibri-31" d="M 2897 213 
Q 2897 153 2887 112 
Q 2878 72 2862 47 
Q 2847 22 2826 11 
Q 2806 0 2784 0 
L 672 0 
Q 650 0 631 11 
Q 613 22 595 47 
Q 578 72 568 112 
Q 559 153 559 213 
Q 559 269 568 309 
Q 578 350 592 376 
Q 606 403 626 417 
Q 647 431 672 431 
L 1516 431 
L 1516 3506 
L 734 3041 
Q 675 3009 639 3003 
Q 603 2997 581 3017 
Q 559 3038 551 3084 
Q 544 3131 544 3203 
Q 544 3256 548 3293 
Q 553 3331 562 3356 
Q 572 3381 589 3400 
Q 606 3419 634 3438 
L 1566 4034 
Q 1578 4044 1597 4050 
Q 1616 4056 1644 4062 
Q 1672 4069 1709 4070 
Q 1747 4072 1803 4072 
Q 1878 4072 1928 4065 
Q 1978 4059 2006 4048 
Q 2034 4038 2043 4020 
Q 2053 4003 2053 3984 
L 2053 431 
L 2784 431 
Q 2809 431 2831 417 
Q 2853 403 2867 376 
Q 2881 350 2889 309 
Q 2897 269 2897 213 
z
" transform="scale(0.015625)"/>
       </defs>
       <use xlink:href="#Calibri-30"/>
       <use xlink:href="#Calibri-2e" x="50.683594"/>
       <use xlink:href="#Calibri-31" x="75.927734"/>
      </g>
     </g>
    </g>
    <g id="xtick_3">
     <g id="line2d_3">
      <g>
       <use xlink:href="#m196f0a5699" x="114.7392" y="307.584" style="stroke: #000000; stroke-width: 0.8"/>
      </g>
     </g>
     <g id="text_3">
      <!-- 0.2 -->
      <g transform="translate(108.40795 321.385562) scale(0.1 -0.1)">
       <defs>
        <path id="Calibri-32" d="M 2888 231 
Q 2888 175 2880 131 
Q 2872 88 2858 58 
Q 2844 28 2820 14 
Q 2797 0 2769 0 
L 534 0 
Q 491 0 458 11 
Q 425 22 401 47 
Q 378 72 367 119 
Q 356 166 356 234 
Q 356 297 361 344 
Q 366 391 381 427 
Q 397 463 420 498 
Q 444 534 481 575 
L 1266 1406 
Q 1538 1694 1702 1922 
Q 1866 2150 1955 2337 
Q 2044 2525 2072 2678 
Q 2100 2831 2100 2966 
Q 2100 3100 2056 3220 
Q 2013 3341 1930 3431 
Q 1847 3522 1722 3575 
Q 1597 3628 1434 3628 
Q 1244 3628 1092 3575 
Q 941 3522 827 3459 
Q 713 3397 636 3344 
Q 559 3291 522 3291 
Q 500 3291 483 3303 
Q 466 3316 455 3344 
Q 444 3372 437 3419 
Q 431 3466 431 3531 
Q 431 3578 434 3612 
Q 438 3647 445 3672 
Q 453 3697 465 3719 
Q 478 3741 515 3773 
Q 553 3806 645 3862 
Q 738 3919 877 3973 
Q 1016 4028 1183 4065 
Q 1350 4103 1534 4103 
Q 1828 4103 2048 4020 
Q 2269 3938 2414 3794 
Q 2559 3650 2631 3459 
Q 2703 3269 2703 3053 
Q 2703 2859 2668 2667 
Q 2634 2475 2523 2251 
Q 2413 2028 2203 1754 
Q 1994 1481 1647 1125 
L 1006 456 
L 2766 456 
Q 2791 456 2814 442 
Q 2838 428 2855 400 
Q 2872 372 2880 330 
Q 2888 288 2888 231 
z
" transform="scale(0.015625)"/>
       </defs>
       <use xlink:href="#Calibri-30"/>
       <use xlink:href="#Calibri-2e" x="50.683594"/>
       <use xlink:href="#Calibri-32" x="75.927734"/>
      </g>
     </g>
    </g>
    <g id="xtick_4">
     <g id="line2d_4">
      <g>
       <use xlink:href="#m196f0a5699" x="143.3088" y="307.584" style="stroke: #000000; stroke-width: 0.8"/>
      </g>
     </g>
     <g id="text_4">
      <!-- 0.3 -->
      <g transform="translate(136.97755 321.385562) scale(0.1 -0.1)">
       <defs>
        <path id="Calibri-33" d="M 2856 1156 
Q 2856 878 2759 654 
Q 2663 431 2481 272 
Q 2300 113 2034 27 
Q 1769 -59 1434 -59 
Q 1231 -59 1054 -26 
Q 878 6 740 51 
Q 603 97 512 145 
Q 422 194 398 216 
Q 375 238 362 259 
Q 350 281 340 312 
Q 331 344 326 389 
Q 322 434 322 500 
Q 322 613 344 656 
Q 366 700 406 700 
Q 434 700 517 650 
Q 600 600 729 542 
Q 859 484 1032 434 
Q 1206 384 1419 384 
Q 1625 384 1781 437 
Q 1938 491 2044 587 
Q 2150 684 2203 817 
Q 2256 950 2256 1106 
Q 2256 1278 2189 1415 
Q 2122 1553 1992 1653 
Q 1863 1753 1673 1806 
Q 1484 1859 1244 1859 
L 859 1859 
Q 834 1859 811 1870 
Q 788 1881 770 1906 
Q 753 1931 742 1972 
Q 731 2013 731 2078 
Q 731 2138 740 2177 
Q 750 2216 767 2239 
Q 784 2263 806 2273 
Q 828 2284 856 2284 
L 1209 2284 
Q 1416 2284 1580 2337 
Q 1744 2391 1858 2491 
Q 1972 2591 2033 2730 
Q 2094 2869 2094 3041 
Q 2094 3166 2053 3280 
Q 2013 3394 1931 3478 
Q 1850 3563 1723 3611 
Q 1597 3659 1431 3659 
Q 1250 3659 1098 3604 
Q 947 3550 828 3487 
Q 709 3425 631 3370 
Q 553 3316 522 3316 
Q 500 3316 483 3323 
Q 466 3331 455 3354 
Q 444 3378 439 3420 
Q 434 3463 434 3531 
Q 434 3578 437 3614 
Q 441 3650 450 3676 
Q 459 3703 471 3725 
Q 484 3747 514 3776 
Q 544 3806 634 3862 
Q 725 3919 858 3973 
Q 991 4028 1164 4065 
Q 1338 4103 1538 4103 
Q 1819 4103 2031 4031 
Q 2244 3959 2386 3828 
Q 2528 3697 2598 3514 
Q 2669 3331 2669 3109 
Q 2669 2919 2619 2755 
Q 2569 2591 2472 2464 
Q 2375 2338 2234 2248 
Q 2094 2159 1909 2125 
L 1909 2119 
Q 2119 2097 2292 2014 
Q 2466 1931 2591 1806 
Q 2716 1681 2786 1514 
Q 2856 1347 2856 1156 
z
" transform="scale(0.015625)"/>
       </defs>
       <use xlink:href="#Calibri-30"/>
       <use xlink:href="#Calibri-2e" x="50.683594"/>
       <use xlink:href="#Calibri-33" x="75.927734"/>
      </g>
     </g>
    </g>
    <g id="xtick_5">
     <g id="line2d_5">
      <g>
       <use xlink:href="#m196f0a5699" x="171.8784" y="307.584" style="stroke: #000000; stroke-width: 0.8"/>
      </g>
     </g>
     <g id="text_5">
      <!-- 0.4 -->
      <g transform="translate(165.54715 321.385562) scale(0.1 -0.1)">
       <defs>
        <path id="Calibri-34" d="M 3059 1150 
Q 3059 1047 3028 987 
Q 2997 928 2941 928 
L 2484 928 
L 2484 78 
Q 2484 53 2471 36 
Q 2459 19 2428 6 
Q 2397 -6 2347 -12 
Q 2297 -19 2219 -19 
Q 2144 -19 2094 -12 
Q 2044 -6 2014 6 
Q 1984 19 1973 36 
Q 1963 53 1963 78 
L 1963 928 
L 294 928 
Q 256 928 231 937 
Q 206 947 186 972 
Q 166 997 158 1044 
Q 150 1091 150 1166 
Q 150 1225 153 1272 
Q 156 1319 165 1358 
Q 175 1397 190 1433 
Q 206 1469 228 1509 
L 1684 3966 
Q 1700 3991 1729 4009 
Q 1759 4028 1806 4040 
Q 1853 4053 1922 4058 
Q 1991 4063 2084 4063 
Q 2188 4063 2264 4055 
Q 2341 4047 2387 4034 
Q 2434 4022 2459 4001 
Q 2484 3981 2484 3953 
L 2484 1372 
L 2941 1372 
Q 2994 1372 3026 1317 
Q 3059 1263 3059 1150 
z
M 1963 3591 
L 1956 3591 
L 641 1372 
L 1963 1372 
L 1963 3591 
z
" transform="scale(0.015625)"/>
       </defs>
       <use xlink:href="#Calibri-30"/>
       <use xlink:href="#Calibri-2e" x="50.683594"/>
       <use xlink:href="#Calibri-34" x="75.927734"/>
      </g>
     </g>
    </g>
    <g id="xtick_6">
     <g id="line2d_6">
      <g>
       <use xlink:href="#m196f0a5699" x="200.448" y="307.584" style="stroke: #000000; stroke-width: 0.8"/>
      </g>
     </g>
     <g id="text_6">
      <!-- 0.5 -->
      <g transform="translate(194.11675 321.385562) scale(0.1 -0.1)">
       <defs>
        <path id="Calibri-35" d="M 2869 1300 
Q 2869 975 2759 722 
Q 2650 469 2450 295 
Q 2250 122 1973 31 
Q 1697 -59 1359 -59 
Q 1172 -59 1003 -32 
Q 834 -6 703 33 
Q 572 72 487 109 
Q 403 147 379 169 
Q 356 191 347 209 
Q 338 228 330 254 
Q 322 281 319 322 
Q 316 363 316 419 
Q 316 472 320 514 
Q 325 556 337 582 
Q 350 609 367 621 
Q 384 634 406 634 
Q 438 634 503 595 
Q 569 556 680 511 
Q 791 466 955 425 
Q 1119 384 1344 384 
Q 1553 384 1728 434 
Q 1903 484 2029 590 
Q 2156 697 2228 858 
Q 2300 1019 2300 1250 
Q 2300 1444 2239 1592 
Q 2178 1741 2051 1839 
Q 1925 1938 1731 1986 
Q 1538 2034 1269 2034 
Q 1078 2034 940 2015 
Q 803 1997 684 1997 
Q 597 1997 559 2037 
Q 522 2078 522 2194 
L 522 3841 
Q 522 3944 570 3994 
Q 619 4044 709 4044 
L 2500 4044 
Q 2525 4044 2548 4030 
Q 2572 4016 2587 3987 
Q 2603 3959 2611 3915 
Q 2619 3872 2619 3813 
Q 2619 3700 2587 3637 
Q 2556 3575 2500 3575 
L 991 3575 
L 991 2441 
Q 1100 2456 1214 2459 
Q 1328 2463 1478 2463 
Q 1825 2463 2084 2380 
Q 2344 2297 2517 2145 
Q 2691 1994 2780 1778 
Q 2869 1563 2869 1300 
z
" transform="scale(0.015625)"/>
       </defs>
       <use xlink:href="#Calibri-30"/>
       <use xlink:href="#Calibri-2e" x="50.683594"/>
       <use xlink:href="#Calibri-35" x="75.927734"/>
      </g>
     </g>
    </g>
    <g id="xtick_7">
     <g id="line2d_7">
      <g>
       <use xlink:href="#m196f0a5699" x="229.0176" y="307.584" style="stroke: #000000; stroke-width: 0.8"/>
      </g>
     </g>
     <g id="text_7">
      <!-- 0.6 -->
      <g transform="translate(222.68635 321.385562) scale(0.1 -0.1)">
       <defs>
        <path id="Calibri-36" d="M 2991 1309 
Q 2991 1044 2909 795 
Q 2828 547 2659 358 
Q 2491 169 2231 55 
Q 1972 -59 1619 -59 
Q 1366 -59 1172 3 
Q 978 66 834 181 
Q 691 297 595 465 
Q 500 634 442 850 
Q 384 1066 359 1322 
Q 334 1578 334 1872 
Q 334 2131 362 2397 
Q 391 2663 462 2909 
Q 534 3156 657 3373 
Q 781 3591 967 3752 
Q 1153 3913 1412 4006 
Q 1672 4100 2016 4100 
Q 2131 4100 2250 4086 
Q 2369 4072 2469 4048 
Q 2569 4025 2637 3997 
Q 2706 3969 2728 3951 
Q 2750 3934 2761 3914 
Q 2772 3894 2778 3870 
Q 2784 3847 2787 3817 
Q 2791 3788 2791 3744 
Q 2791 3688 2789 3647 
Q 2788 3606 2777 3581 
Q 2766 3556 2748 3543 
Q 2731 3531 2703 3531 
Q 2669 3531 2609 3553 
Q 2550 3575 2465 3601 
Q 2381 3628 2261 3650 
Q 2141 3672 1981 3672 
Q 1691 3672 1481 3553 
Q 1272 3434 1139 3234 
Q 1006 3034 942 2770 
Q 878 2506 869 2219 
Q 950 2266 1051 2312 
Q 1153 2359 1273 2396 
Q 1394 2434 1528 2457 
Q 1663 2481 1816 2481 
Q 2144 2481 2369 2392 
Q 2594 2303 2733 2145 
Q 2872 1988 2931 1773 
Q 2991 1559 2991 1309 
z
M 2447 1259 
Q 2447 1441 2411 1589 
Q 2375 1738 2290 1841 
Q 2206 1944 2065 2000 
Q 1925 2056 1719 2056 
Q 1603 2056 1487 2036 
Q 1372 2016 1264 1980 
Q 1156 1944 1057 1895 
Q 959 1847 878 1791 
Q 878 1388 929 1116 
Q 981 844 1079 680 
Q 1178 516 1325 445 
Q 1472 375 1669 375 
Q 1869 375 2016 450 
Q 2163 525 2259 651 
Q 2356 778 2401 936 
Q 2447 1094 2447 1259 
z
" transform="scale(0.015625)"/>
       </defs>
       <use xlink:href="#Calibri-30"/>
       <use xlink:href="#Calibri-2e" x="50.683594"/>
       <use xlink:href="#Calibri-36" x="75.927734"/>
      </g>
     </g>
    </g>
    <g id="xtick_8">
     <g id="line2d_8">
      <g>
       <use xlink:href="#m196f0a5699" x="257.5872" y="307.584" style="stroke: #000000; stroke-width: 0.8"/>
      </g>
     </g>
     <g id="text_8">
      <!-- 0.7 -->
      <g transform="translate(251.25595 321.385562) scale(0.1 -0.1)">
       <defs>
        <path id="Calibri-37" d="M 2947 3813 
Q 2947 3756 2942 3711 
Q 2938 3666 2930 3623 
Q 2922 3581 2908 3542 
Q 2894 3503 2875 3459 
L 1419 103 
Q 1403 66 1379 42 
Q 1356 19 1320 5 
Q 1284 -9 1228 -14 
Q 1172 -19 1091 -19 
Q 984 -19 925 -9 
Q 866 0 839 20 
Q 813 41 816 70 
Q 819 100 838 141 
L 2369 3572 
L 428 3572 
Q 369 3572 339 3634 
Q 309 3697 309 3809 
Q 309 3869 317 3912 
Q 325 3956 340 3986 
Q 356 4016 378 4030 
Q 400 4044 428 4044 
L 2784 4044 
Q 2828 4044 2861 4034 
Q 2894 4025 2911 3997 
Q 2928 3969 2937 3925 
Q 2947 3881 2947 3813 
z
" transform="scale(0.015625)"/>
       </defs>
       <use xlink:href="#Calibri-30"/>
       <use xlink:href="#Calibri-2e" x="50.683594"/>
       <use xlink:href="#Calibri-37" x="75.927734"/>
      </g>
     </g>
    </g>
    <g id="xtick_9">
     <g id="line2d_9">
      <g>
       <use xlink:href="#m196f0a5699" x="286.1568" y="307.584" style="stroke: #000000; stroke-width: 0.8"/>
      </g>
     </g>
     <g id="text_9">
      <!-- 0.8 -->
      <g transform="translate(279.82555 321.385562) scale(0.1 -0.1)">
       <defs>
        <path id="Calibri-38" d="M 2981 1038 
Q 2981 775 2887 570 
Q 2794 366 2617 225 
Q 2441 84 2181 12 
Q 1922 -59 1588 -59 
Q 1275 -59 1028 6 
Q 781 72 609 200 
Q 438 328 347 515 
Q 256 703 256 944 
Q 256 1134 318 1293 
Q 381 1453 498 1587 
Q 616 1722 787 1839 
Q 959 1956 1175 2063 
Q 988 2159 844 2267 
Q 700 2375 600 2501 
Q 500 2628 448 2772 
Q 397 2916 397 3084 
Q 397 3297 473 3483 
Q 550 3669 704 3806 
Q 859 3944 1098 4023 
Q 1338 4103 1656 4103 
Q 1963 4103 2186 4029 
Q 2409 3956 2554 3829 
Q 2700 3703 2769 3531 
Q 2838 3359 2838 3163 
Q 2838 3003 2786 2856 
Q 2734 2709 2634 2578 
Q 2534 2447 2389 2333 
Q 2244 2219 2056 2119 
Q 2278 2009 2451 1893 
Q 2625 1778 2742 1645 
Q 2859 1513 2920 1364 
Q 2981 1216 2981 1038 
z
M 2306 3113 
Q 2306 3244 2261 3350 
Q 2216 3456 2128 3531 
Q 2041 3606 1911 3645 
Q 1781 3684 1616 3684 
Q 1278 3684 1104 3531 
Q 931 3378 931 3113 
Q 931 2991 973 2886 
Q 1016 2781 1105 2687 
Q 1194 2594 1330 2505 
Q 1466 2416 1653 2319 
Q 1969 2481 2137 2678 
Q 2306 2875 2306 3113 
z
M 2438 981 
Q 2438 1125 2384 1242 
Q 2331 1359 2223 1461 
Q 2116 1563 1955 1658 
Q 1794 1753 1581 1856 
Q 1384 1759 1236 1662 
Q 1088 1566 992 1462 
Q 897 1359 848 1245 
Q 800 1131 800 994 
Q 800 691 1008 525 
Q 1216 359 1628 359 
Q 2028 359 2233 526 
Q 2438 694 2438 981 
z
" transform="scale(0.015625)"/>
       </defs>
       <use xlink:href="#Calibri-30"/>
       <use xlink:href="#Calibri-2e" x="50.683594"/>
       <use xlink:href="#Calibri-38" x="75.927734"/>
      </g>
     </g>
    </g>
    <g id="xtick_10">
     <g id="line2d_10">
      <g>
       <use xlink:href="#m196f0a5699" x="314.7264" y="307.584" style="stroke: #000000; stroke-width: 0.8"/>
      </g>
     </g>
     <g id="text_10">
      <!-- 0.9 -->
      <g transform="translate(308.39515 321.385562) scale(0.1 -0.1)">
       <defs>
        <path id="Calibri-39" d="M 2919 2181 
Q 2919 1919 2887 1650 
Q 2856 1381 2781 1132 
Q 2706 884 2579 667 
Q 2453 450 2261 287 
Q 2069 125 1805 33 
Q 1541 -59 1191 -59 
Q 1056 -59 929 -42 
Q 803 -25 701 0 
Q 600 25 531 53 
Q 463 81 431 109 
Q 400 138 386 186 
Q 372 234 372 316 
Q 372 384 376 425 
Q 381 466 390 487 
Q 400 509 417 517 
Q 434 525 459 525 
Q 494 525 556 501 
Q 619 478 714 450 
Q 809 422 937 398 
Q 1066 375 1225 375 
Q 1528 375 1745 492 
Q 1963 609 2100 806 
Q 2238 1003 2306 1262 
Q 2375 1522 2381 1809 
Q 2216 1713 1984 1638 
Q 1753 1563 1453 1563 
Q 1116 1563 886 1655 
Q 656 1747 517 1906 
Q 378 2066 317 2284 
Q 256 2503 256 2763 
Q 256 3031 334 3273 
Q 413 3516 578 3700 
Q 744 3884 1000 3993 
Q 1256 4103 1613 4103 
Q 1866 4103 2061 4039 
Q 2256 3975 2400 3854 
Q 2544 3734 2644 3564 
Q 2744 3394 2805 3178 
Q 2866 2963 2892 2711 
Q 2919 2459 2919 2181 
z
M 2372 2241 
Q 2372 2641 2319 2914 
Q 2266 3188 2162 3356 
Q 2059 3525 1909 3600 
Q 1759 3675 1563 3675 
Q 1359 3675 1215 3601 
Q 1072 3528 980 3404 
Q 888 3281 844 3125 
Q 800 2969 800 2803 
Q 800 2619 839 2466 
Q 878 2313 965 2206 
Q 1053 2100 1193 2042 
Q 1334 1984 1541 1984 
Q 1775 1984 1994 2054 
Q 2213 2125 2372 2241 
z
" transform="scale(0.015625)"/>
       </defs>
       <use xlink:href="#Calibri-30"/>
       <use xlink:href="#Calibri-2e" x="50.683594"/>
       <use xlink:href="#Calibri-39" x="75.927734"/>
      </g>
     </g>
    </g>
    <g id="xtick_11">
     <g id="line2d_11">
      <g>
       <use xlink:href="#m196f0a5699" x="343.296" y="307.584" style="stroke: #000000; stroke-width: 0.8"/>
      </g>
     </g>
     <g id="text_11">
      <!-- 1.0 -->
      <g transform="translate(336.96475 321.385562) scale(0.1 -0.1)">
       <use xlink:href="#Calibri-31"/>
       <use xlink:href="#Calibri-2e" x="50.683594"/>
       <use xlink:href="#Calibri-30" x="75.927734"/>
      </g>
     </g>
    </g>
    <g id="text_12">
     <!-- $\mathit{p}$ (cm$^2$/cm$^2$) -->
     <g transform="translate(174.148 336.263687) scale(0.1 -0.1)">
      <defs>
       <path id="DejaVuSans-Oblique-70" d="M 3175 2156 
Q 3175 2616 2975 2859 
Q 2775 3103 2400 3103 
Q 2144 3103 1911 2972 
Q 1678 2841 1497 2591 
Q 1319 2344 1212 1994 
Q 1106 1644 1106 1300 
Q 1106 863 1306 627 
Q 1506 391 1875 391 
Q 2147 391 2380 519 
Q 2613 647 2778 891 
Q 2956 1147 3065 1494 
Q 3175 1841 3175 2156 
z
M 1394 2969 
Q 1625 3272 1939 3428 
Q 2253 3584 2638 3584 
Q 3175 3584 3472 3232 
Q 3769 2881 3769 2247 
Q 3769 1728 3584 1258 
Q 3400 788 3053 416 
Q 2822 169 2531 39 
Q 2241 -91 1919 -91 
Q 1547 -91 1294 64 
Q 1041 219 916 525 
L 556 -1331 
L -19 -1331 
L 922 3500 
L 1497 3500 
L 1394 2969 
z
" transform="scale(0.015625)"/>
       <path id="Calibri-20" transform="scale(0.015625)"/>
       <path id="Calibri-28" d="M 1547 4306 
Q 1250 3678 1104 3017 
Q 959 2356 959 1688 
Q 959 1016 1107 356 
Q 1256 -303 1541 -938 
Q 1556 -975 1557 -1001 
Q 1559 -1028 1537 -1045 
Q 1516 -1063 1470 -1070 
Q 1425 -1078 1347 -1078 
Q 1291 -1078 1250 -1075 
Q 1209 -1072 1179 -1062 
Q 1150 -1053 1131 -1040 
Q 1113 -1028 1103 -1013 
Q 934 -694 806 -367 
Q 678 -41 590 296 
Q 503 634 459 979 
Q 416 1325 416 1678 
Q 416 2031 464 2375 
Q 513 2719 602 3058 
Q 691 3397 819 3725 
Q 947 4053 1106 4375 
Q 1109 4388 1123 4397 
Q 1138 4406 1163 4415 
Q 1188 4425 1231 4429 
Q 1275 4434 1344 4434 
Q 1416 4434 1459 4425 
Q 1503 4416 1528 4400 
Q 1553 4384 1556 4359 
Q 1559 4334 1547 4306 
z
" transform="scale(0.015625)"/>
       <path id="Calibri-63" d="M 2500 506 
Q 2500 453 2497 414 
Q 2494 375 2486 348 
Q 2478 322 2467 301 
Q 2456 281 2417 242 
Q 2378 203 2284 145 
Q 2191 88 2073 42 
Q 1956 -3 1818 -31 
Q 1681 -59 1534 -59 
Q 1231 -59 997 41 
Q 763 141 605 333 
Q 447 525 364 804 
Q 281 1084 281 1450 
Q 281 1866 382 2164 
Q 484 2463 661 2653 
Q 838 2844 1077 2936 
Q 1316 3028 1594 3028 
Q 1728 3028 1854 3003 
Q 1981 2978 2087 2937 
Q 2194 2897 2276 2844 
Q 2359 2791 2396 2753 
Q 2434 2716 2448 2694 
Q 2463 2672 2472 2642 
Q 2481 2613 2484 2575 
Q 2488 2538 2488 2481 
Q 2488 2359 2459 2311 
Q 2431 2263 2391 2263 
Q 2344 2263 2283 2314 
Q 2222 2366 2128 2428 
Q 2034 2491 1901 2542 
Q 1769 2594 1588 2594 
Q 1216 2594 1017 2308 
Q 819 2022 819 1478 
Q 819 1206 870 1001 
Q 922 797 1022 659 
Q 1122 522 1267 455 
Q 1413 388 1600 388 
Q 1778 388 1912 444 
Q 2047 500 2145 567 
Q 2244 634 2311 689 
Q 2378 744 2416 744 
Q 2438 744 2453 731 
Q 2469 719 2480 689 
Q 2491 659 2495 614 
Q 2500 569 2500 506 
z
" transform="scale(0.015625)"/>
       <path id="Calibri-6d" d="M 4650 78 
Q 4650 53 4637 36 
Q 4625 19 4597 6 
Q 4569 -6 4519 -12 
Q 4469 -19 4394 -19 
Q 4316 -19 4266 -12 
Q 4216 -6 4186 6 
Q 4156 19 4143 36 
Q 4131 53 4131 78 
L 4131 1788 
Q 4131 1966 4100 2112 
Q 4069 2259 4000 2365 
Q 3931 2472 3825 2528 
Q 3719 2584 3575 2584 
Q 3397 2584 3217 2446 
Q 3038 2309 2822 2044 
L 2822 78 
Q 2822 53 2809 36 
Q 2797 19 2767 6 
Q 2738 -6 2688 -12 
Q 2638 -19 2563 -19 
Q 2491 -19 2439 -12 
Q 2388 -6 2358 6 
Q 2328 19 2317 36 
Q 2306 53 2306 78 
L 2306 1788 
Q 2306 1966 2272 2112 
Q 2238 2259 2169 2365 
Q 2100 2472 1995 2528 
Q 1891 2584 1747 2584 
Q 1569 2584 1387 2446 
Q 1206 2309 994 2044 
L 994 78 
Q 994 53 981 36 
Q 969 19 941 6 
Q 913 -6 863 -12 
Q 813 -19 734 -19 
Q 659 -19 609 -12 
Q 559 -6 529 6 
Q 500 19 489 36 
Q 478 53 478 78 
L 478 2891 
Q 478 2916 487 2933 
Q 497 2950 525 2964 
Q 553 2978 597 2983 
Q 641 2988 713 2988 
Q 781 2988 826 2983 
Q 872 2978 897 2964 
Q 922 2950 933 2933 
Q 944 2916 944 2891 
L 944 2519 
Q 1181 2784 1404 2907 
Q 1628 3031 1856 3031 
Q 2031 3031 2170 2990 
Q 2309 2950 2415 2876 
Q 2522 2803 2597 2701 
Q 2672 2600 2722 2475 
Q 2863 2628 2989 2734 
Q 3116 2841 3233 2906 
Q 3350 2972 3461 3001 
Q 3572 3031 3684 3031 
Q 3956 3031 4140 2936 
Q 4325 2841 4439 2681 
Q 4553 2522 4601 2308 
Q 4650 2094 4650 1856 
L 4650 78 
z
" transform="scale(0.015625)"/>
       <path id="DejaVuSans-32" d="M 1228 531 
L 3431 531 
L 3431 0 
L 469 0 
L 469 531 
Q 828 903 1448 1529 
Q 2069 2156 2228 2338 
Q 2531 2678 2651 2914 
Q 2772 3150 2772 3378 
Q 2772 3750 2511 3984 
Q 2250 4219 1831 4219 
Q 1534 4219 1204 4116 
Q 875 4013 500 3803 
L 500 4441 
Q 881 4594 1212 4672 
Q 1544 4750 1819 4750 
Q 2544 4750 2975 4387 
Q 3406 4025 3406 3419 
Q 3406 3131 3298 2873 
Q 3191 2616 2906 2266 
Q 2828 2175 2409 1742 
Q 1991 1309 1228 531 
z
" transform="scale(0.015625)"/>
       <path id="Calibri-2f" d="M 525 -753 
Q 513 -794 492 -817 
Q 472 -841 440 -853 
Q 409 -866 364 -872 
Q 319 -878 253 -878 
Q 175 -878 123 -867 
Q 72 -856 44 -836 
Q 16 -816 9 -786 
Q 3 -756 22 -716 
L 1913 4469 
Q 1925 4509 1945 4532 
Q 1966 4556 1995 4570 
Q 2025 4584 2072 4589 
Q 2119 4594 2184 4594 
Q 2263 4594 2313 4583 
Q 2363 4572 2391 4553 
Q 2419 4534 2425 4503 
Q 2431 4472 2416 4431 
L 525 -753 
z
" transform="scale(0.015625)"/>
       <path id="Calibri-29" d="M 1522 1678 
Q 1522 1325 1478 979 
Q 1434 634 1346 296 
Q 1259 -41 1132 -367 
Q 1006 -694 838 -1013 
Q 828 -1028 809 -1040 
Q 791 -1053 761 -1062 
Q 731 -1072 690 -1075 
Q 650 -1078 594 -1078 
Q 513 -1078 467 -1070 
Q 422 -1063 401 -1045 
Q 381 -1028 382 -1001 
Q 384 -975 400 -938 
Q 688 -306 834 355 
Q 981 1016 981 1688 
Q 981 2356 834 3017 
Q 688 3678 394 4306 
Q 381 4334 384 4359 
Q 388 4384 413 4400 
Q 438 4416 481 4425 
Q 525 4434 597 4434 
Q 663 4434 706 4429 
Q 750 4425 776 4415 
Q 803 4406 815 4397 
Q 828 4388 834 4375 
Q 1156 3734 1339 3057 
Q 1522 2381 1522 1678 
z
" transform="scale(0.015625)"/>
      </defs>
      <use xlink:href="#DejaVuSans-Oblique-70" transform="translate(0 0.765625)"/>
      <use xlink:href="#Calibri-20" transform="translate(63.476562 0.765625)"/>
      <use xlink:href="#Calibri-28" transform="translate(84.958984 0.765625)"/>
      <use xlink:href="#Calibri-63" transform="translate(115.28125 0.765625)"/>
      <use xlink:href="#Calibri-6d" transform="translate(157.566406 0.765625)"/>
      <use xlink:href="#DejaVuSans-32" transform="translate(238.40625 39.046875) scale(0.7)"/>
      <use xlink:href="#Calibri-2f" transform="translate(285.676758 0.765625)"/>
      <use xlink:href="#Calibri-63" transform="translate(324.299805 0.765625)"/>
      <use xlink:href="#Calibri-6d" transform="translate(366.584961 0.765625)"/>
      <use xlink:href="#DejaVuSans-32" transform="translate(447.424805 39.046875) scale(0.7)"/>
      <use xlink:href="#Calibri-29" transform="translate(494.695312 0.765625)"/>
     </g>
    </g>
   </g>
   <g id="matplotlib.axis_2">
    <g id="ytick_1">
     <g id="line2d_12">
      <defs>
       <path id="mc925de68ff" d="M 0 0 
L -3.5 0 
" style="stroke: #000000; stroke-width: 0.8"/>
      </defs>
      <g>
       <use xlink:href="#mc925de68ff" x="57.6" y="275.65056" style="stroke: #000000; stroke-width: 0.8"/>
      </g>
     </g>
     <g id="text_13">
      <!-- 25 -->
      <g transform="translate(40.4625 279.051341) scale(0.1 -0.1)">
       <use xlink:href="#Calibri-32"/>
       <use xlink:href="#Calibri-35" x="50.683594"/>
      </g>
     </g>
    </g>
    <g id="ytick_2">
     <g id="line2d_13">
      <g>
       <use xlink:href="#mc925de68ff" x="57.6" y="242.38656" style="stroke: #000000; stroke-width: 0.8"/>
      </g>
     </g>
     <g id="text_14">
      <!-- 50 -->
      <g transform="translate(40.4625 245.787341) scale(0.1 -0.1)">
       <use xlink:href="#Calibri-35"/>
       <use xlink:href="#Calibri-30" x="50.683594"/>
      </g>
     </g>
    </g>
    <g id="ytick_3">
     <g id="line2d_14">
      <g>
       <use xlink:href="#mc925de68ff" x="57.6" y="209.12256" style="stroke: #000000; stroke-width: 0.8"/>
      </g>
     </g>
     <g id="text_15">
      <!-- 75 -->
      <g transform="translate(40.4625 212.523341) scale(0.1 -0.1)">
       <use xlink:href="#Calibri-37"/>
       <use xlink:href="#Calibri-35" x="50.683594"/>
      </g>
     </g>
    </g>
    <g id="ytick_4">
     <g id="line2d_15">
      <g>
       <use xlink:href="#mc925de68ff" x="57.6" y="175.85856" style="stroke: #000000; stroke-width: 0.8"/>
      </g>
     </g>
     <g id="text_16">
      <!-- 100 -->
      <g transform="translate(35.39375 179.259341) scale(0.1 -0.1)">
       <use xlink:href="#Calibri-31"/>
       <use xlink:href="#Calibri-30" x="50.683594"/>
       <use xlink:href="#Calibri-30" x="101.367188"/>
      </g>
     </g>
    </g>
    <g id="ytick_5">
     <g id="line2d_16">
      <g>
       <use xlink:href="#mc925de68ff" x="57.6" y="142.59456" style="stroke: #000000; stroke-width: 0.8"/>
      </g>
     </g>
     <g id="text_17">
      <!-- 125 -->
      <g transform="translate(35.39375 145.995341) scale(0.1 -0.1)">
       <use xlink:href="#Calibri-31"/>
       <use xlink:href="#Calibri-32" x="50.683594"/>
       <use xlink:href="#Calibri-35" x="101.367188"/>
      </g>
     </g>
    </g>
    <g id="ytick_6">
     <g id="line2d_17">
      <g>
       <use xlink:href="#mc925de68ff" x="57.6" y="109.33056" style="stroke: #000000; stroke-width: 0.8"/>
      </g>
     </g>
     <g id="text_18">
      <!-- 150 -->
      <g transform="translate(35.39375 112.731341) scale(0.1 -0.1)">
       <use xlink:href="#Calibri-31"/>
       <use xlink:href="#Calibri-35" x="50.683594"/>
       <use xlink:href="#Calibri-30" x="101.367188"/>
      </g>
     </g>
    </g>
    <g id="ytick_7">
     <g id="line2d_18">
      <g>
       <use xlink:href="#mc925de68ff" x="57.6" y="76.06656" style="stroke: #000000; stroke-width: 0.8"/>
      </g>
     </g>
     <g id="text_19">
      <!-- 175 -->
      <g transform="translate(35.39375 79.467341) scale(0.1 -0.1)">
       <use xlink:href="#Calibri-31"/>
       <use xlink:href="#Calibri-37" x="50.683594"/>
       <use xlink:href="#Calibri-35" x="101.367188"/>
      </g>
     </g>
    </g>
    <g id="ytick_8">
     <g id="line2d_19">
      <g>
       <use xlink:href="#mc925de68ff" x="57.6" y="42.80256" style="stroke: #000000; stroke-width: 0.8"/>
      </g>
     </g>
     <g id="text_20">
      <!-- 200 -->
      <g transform="translate(35.39375 46.203341) scale(0.1 -0.1)">
       <use xlink:href="#Calibri-32"/>
       <use xlink:href="#Calibri-30" x="50.683594"/>
       <use xlink:href="#Calibri-30" x="101.367188"/>
      </g>
     </g>
    </g>
    <g id="text_21">
     <!-- $\mathit{Z}$$_{a}$ (nm) -->
     <g transform="translate(29.59375 191.028) rotate(-90) scale(0.1 -0.1)">
      <defs>
       <path id="DejaVuSans-Oblique-5a" d="M 838 4666 
L 4500 4666 
L 4409 4184 
L 794 531 
L 3769 531 
L 3669 0 
L -141 0 
L -50 481 
L 3566 4134 
L 738 4134 
L 838 4666 
z
" transform="scale(0.015625)"/>
       <path id="DejaVuSans-Oblique-61" d="M 3438 1997 
L 3047 0 
L 2472 0 
L 2578 531 
Q 2325 219 2001 64 
Q 1678 -91 1281 -91 
Q 834 -91 548 182 
Q 263 456 263 884 
Q 263 1497 752 1853 
Q 1241 2209 2100 2209 
L 2900 2209 
L 2931 2363 
Q 2938 2388 2941 2417 
Q 2944 2447 2944 2509 
Q 2944 2788 2717 2942 
Q 2491 3097 2081 3097 
Q 1800 3097 1504 3025 
Q 1209 2953 897 2809 
L 997 3341 
Q 1322 3463 1633 3523 
Q 1944 3584 2234 3584 
Q 2853 3584 3176 3315 
Q 3500 3047 3500 2534 
Q 3500 2431 3484 2292 
Q 3469 2153 3438 1997 
z
M 2816 1759 
L 2241 1759 
Q 1534 1759 1195 1570 
Q 856 1381 856 984 
Q 856 709 1029 553 
Q 1203 397 1509 397 
Q 1978 397 2328 733 
Q 2678 1069 2791 1631 
L 2816 1759 
z
" transform="scale(0.015625)"/>
       <path id="Calibri-6e" d="M 2900 78 
Q 2900 53 2887 36 
Q 2875 19 2847 6 
Q 2819 -6 2769 -12 
Q 2719 -19 2644 -19 
Q 2566 -19 2516 -12 
Q 2466 -6 2437 6 
Q 2409 19 2396 36 
Q 2384 53 2384 78 
L 2384 1725 
Q 2384 1966 2346 2112 
Q 2309 2259 2237 2365 
Q 2166 2472 2052 2528 
Q 1938 2584 1788 2584 
Q 1594 2584 1400 2446 
Q 1206 2309 994 2044 
L 994 78 
Q 994 53 981 36 
Q 969 19 941 6 
Q 913 -6 863 -12 
Q 813 -19 734 -19 
Q 659 -19 609 -12 
Q 559 -6 529 6 
Q 500 19 489 36 
Q 478 53 478 78 
L 478 2891 
Q 478 2916 487 2933 
Q 497 2950 525 2964 
Q 553 2978 597 2983 
Q 641 2988 713 2988 
Q 781 2988 826 2983 
Q 872 2978 897 2964 
Q 922 2950 933 2933 
Q 944 2916 944 2891 
L 944 2519 
Q 1181 2784 1417 2907 
Q 1653 3031 1894 3031 
Q 2175 3031 2367 2936 
Q 2559 2841 2678 2681 
Q 2797 2522 2848 2308 
Q 2900 2094 2900 1794 
L 2900 78 
z
" transform="scale(0.015625)"/>
      </defs>
      <use xlink:href="#DejaVuSans-Oblique-5a" transform="translate(0 0.09375)"/>
      <use xlink:href="#DejaVuSans-Oblique-61" transform="translate(69.462891 -16.3125) scale(0.7)"/>
      <use xlink:href="#Calibri-20" transform="translate(115.092773 0.09375)"/>
      <use xlink:href="#Calibri-28" transform="translate(136.575195 0.09375)"/>
      <use xlink:href="#Calibri-6e" transform="translate(166.897461 0.09375)"/>
      <use xlink:href="#Calibri-6d" transform="translate(219.436523 0.09375)"/>
      <use xlink:href="#Calibri-29" transform="translate(299.319336 0.09375)"/>
     </g>
    </g>
   </g>
   <g id="patch_3">
    <path d="M 57.6 307.584 
L 57.6 41.472 
" style="fill: none; stroke: #000000; stroke-width: 0.8; stroke-linejoin: miter; stroke-linecap: square"/>
   </g>
   <g id="patch_4">
    <path d="M 343.296 307.584 
L 343.296 41.472 
" style="fill: none; stroke: #000000; stroke-width: 0.8; stroke-linejoin: miter; stroke-linecap: square"/>
   </g>
   <g id="patch_5">
    <path d="M 57.6 307.584 
L 343.296 307.584 
" style="fill: none; stroke: #000000; stroke-width: 0.8; stroke-linejoin: miter; stroke-linecap: square"/>
   </g>
   <g id="patch_6">
    <path d="M 57.6 41.472 
L 343.296 41.472 
" style="fill: none; stroke: #000000; stroke-width: 0.8; stroke-linejoin: miter; stroke-linecap: square"/>
   </g>
   <g id="text_22">
    <!-- $\theta_m$ = 40 -->
    <g transform="translate(182.298 35.472) scale(0.1 -0.1)">
     <defs>
      <path id="DejaVuSans-Oblique-3b8" d="M 2913 2219 
L 925 2219 
Q 791 1284 928 888 
Q 1100 400 1566 400 
Q 2034 400 2391 891 
Q 2703 1322 2913 2219 
z
M 3009 2750 
Q 3094 3638 2984 3950 
Q 2813 4444 2353 4444 
Q 1875 4444 1525 3956 
Q 1250 3563 1034 2750 
L 3009 2750 
z
M 2444 4913 
Q 3194 4913 3494 4250 
Q 3794 3591 3566 2422 
Q 3341 1256 2781 594 
Q 2225 -72 1475 -72 
Q 722 -72 425 594 
Q 128 1256 353 2422 
Q 581 3591 1134 4250 
Q 1691 4913 2444 4913 
z
" transform="scale(0.015625)"/>
      <path id="DejaVuSans-Oblique-6d" d="M 5747 2113 
L 5338 0 
L 4763 0 
L 5166 2094 
Q 5191 2228 5203 2325 
Q 5216 2422 5216 2491 
Q 5216 2772 5059 2928 
Q 4903 3084 4622 3084 
Q 4203 3084 3875 2770 
Q 3547 2456 3450 1953 
L 3066 0 
L 2491 0 
L 2900 2094 
Q 2925 2209 2937 2307 
Q 2950 2406 2950 2484 
Q 2950 2769 2794 2926 
Q 2638 3084 2363 3084 
Q 1938 3084 1609 2770 
Q 1281 2456 1184 1953 
L 800 0 
L 225 0 
L 909 3500 
L 1484 3500 
L 1375 2956 
Q 1609 3263 1923 3423 
Q 2238 3584 2597 3584 
Q 2978 3584 3223 3384 
Q 3469 3184 3519 2828 
Q 3781 3197 4126 3390 
Q 4472 3584 4856 3584 
Q 5306 3584 5551 3325 
Q 5797 3066 5797 2591 
Q 5797 2488 5784 2364 
Q 5772 2241 5747 2113 
z
" transform="scale(0.015625)"/>
      <path id="Calibri-3d" d="M 2891 2409 
Q 2891 2284 2855 2236 
Q 2819 2188 2772 2188 
L 409 2188 
Q 363 2188 328 2236 
Q 294 2284 294 2409 
Q 294 2522 325 2575 
Q 356 2628 409 2628 
L 2772 2628 
Q 2828 2628 2859 2575 
Q 2891 2522 2891 2409 
z
M 2891 1194 
Q 2891 1069 2855 1022 
Q 2819 975 2772 975 
L 409 975 
Q 363 975 328 1022 
Q 294 1069 294 1194 
Q 294 1309 325 1362 
Q 356 1416 409 1416 
L 2772 1416 
Q 2828 1416 2859 1362 
Q 2891 1309 2891 1194 
z
" transform="scale(0.015625)"/>
      <path id="Calibri-b0" d="M 1847 3541 
Q 1847 3388 1789 3253 
Q 1731 3119 1626 3017 
Q 1522 2916 1380 2859 
Q 1238 2803 1072 2803 
Q 906 2803 770 2854 
Q 634 2906 534 3000 
Q 434 3094 378 3225 
Q 322 3356 322 3516 
Q 322 3675 381 3811 
Q 441 3947 545 4044 
Q 650 4141 790 4197 
Q 931 4253 1097 4253 
Q 1259 4253 1396 4200 
Q 1534 4147 1634 4055 
Q 1734 3963 1790 3831 
Q 1847 3700 1847 3541 
z
M 1453 3528 
Q 1453 3613 1425 3686 
Q 1397 3759 1347 3812 
Q 1297 3866 1228 3895 
Q 1159 3925 1078 3925 
Q 1000 3925 933 3895 
Q 866 3866 816 3812 
Q 766 3759 737 3687 
Q 709 3616 709 3534 
Q 709 3444 737 3369 
Q 766 3294 817 3241 
Q 869 3188 939 3158 
Q 1009 3128 1091 3128 
Q 1166 3128 1233 3159 
Q 1300 3191 1348 3245 
Q 1397 3300 1425 3372 
Q 1453 3444 1453 3528 
z
M 0 4044 
L 0 4044 
z
" transform="scale(0.015625)"/>
     </defs>
     <use xlink:href="#DejaVuSans-Oblique-3b8" transform="translate(0 0.234375)"/>
     <use xlink:href="#DejaVuSans-Oblique-6d" transform="translate(61.181641 -16.171875) scale(0.7)"/>
     <use xlink:href="#Calibri-20" transform="translate(132.104492 0.234375)"/>
     <use xlink:href="#Calibri-3d" transform="translate(154.711914 0.234375)"/>
     <use xlink:href="#Calibri-20" transform="translate(204.516602 0.234375)"/>
     <use xlink:href="#Calibri-34" transform="translate(227.124023 0.234375)"/>
     <use xlink:href="#Calibri-30" transform="translate(277.807617 0.234375)"/>
     <use xlink:href="#Calibri-b0" transform="translate(328.491211 0.234375)"/>
    </g>
   </g>
  </g>
  <g id="axes_2">
   <g id="patch_7">
    <path d="M 361.152 307.584 
L 374.4576 307.584 
L 374.4576 41.472 
L 361.152 41.472 
z
" style="fill: #ffffff"/>
   </g>
   <g id="QuadMesh_1">
    <path d="M 361.152 307.584 
L 374.4576 307.584 
L 374.4576 280.9728 
L 361.152 280.9728 
L 361.152 307.584 
" clip-path="url(#pb6e8a44c72)" style="fill: #0000b6"/>
    <path d="M 361.152 280.9728 
L 374.4576 280.9728 
L 374.4576 254.3616 
L 361.152 254.3616 
L 361.152 280.9728 
" clip-path="url(#pb6e8a44c72)" style="fill: #0018ff"/>
    <path d="M 361.152 254.3616 
L 374.4576 254.3616 
L 374.4576 227.7504 
L 361.152 227.7504 
L 361.152 254.3616 
" clip-path="url(#pb6e8a44c72)" style="fill: #0080ff"/>
    <path d="M 361.152 227.7504 
L 374.4576 227.7504 
L 374.4576 201.1392 
L 361.152 201.1392 
L 361.152 227.7504 
" clip-path="url(#pb6e8a44c72)" style="fill: #00e4f8"/>
    <path d="M 361.152 201.1392 
L 374.4576 201.1392 
L 374.4576 174.528 
L 361.152 174.528 
L 361.152 201.1392 
" clip-path="url(#pb6e8a44c72)" style="fill: #53ffa4"/>
    <path d="M 361.152 174.528 
L 374.4576 174.528 
L 374.4576 147.9168 
L 361.152 147.9168 
L 361.152 174.528 
" clip-path="url(#pb6e8a44c72)" style="fill: #a4ff53"/>
    <path d="M 361.152 147.9168 
L 374.4576 147.9168 
L 374.4576 121.3056 
L 361.152 121.3056 
L 361.152 147.9168 
" clip-path="url(#pb6e8a44c72)" style="fill: #f8f500"/>
    <path d="M 361.152 121.3056 
L 374.4576 121.3056 
L 374.4576 94.6944 
L 361.152 94.6944 
L 361.152 121.3056 
" clip-path="url(#pb6e8a44c72)" style="fill: #ff9400"/>
    <path d="M 361.152 94.6944 
L 374.4576 94.6944 
L 374.4576 68.0832 
L 361.152 68.0832 
L 361.152 94.6944 
" clip-path="url(#pb6e8a44c72)" style="fill: #ff3800"/>
    <path d="M 361.152 68.0832 
L 374.4576 68.0832 
L 374.4576 41.472 
L 361.152 41.472 
L 361.152 68.0832 
" clip-path="url(#pb6e8a44c72)" style="fill: #b60000"/>
   </g>
   <g id="matplotlib.axis_3"/>
   <g id="matplotlib.axis_4">
    <g id="ytick_9">
     <g id="line2d_20">
      <defs>
       <path id="m72da58fd02" d="M 0 0 
L 3.5 0 
" style="stroke: #000000; stroke-width: 0.8"/>
      </defs>
      <g>
       <use xlink:href="#m72da58fd02" x="374.4576" y="307.584" style="stroke: #000000; stroke-width: 0.8"/>
      </g>
     </g>
     <g id="text_23">
      <!-- 0 -->
      <g transform="translate(381.4576 310.984781) scale(0.1 -0.1)">
       <use xlink:href="#Calibri-30"/>
      </g>
     </g>
    </g>
    <g id="ytick_10">
     <g id="line2d_21">
      <g>
       <use xlink:href="#m72da58fd02" x="374.4576" y="280.9728" style="stroke: #000000; stroke-width: 0.8"/>
      </g>
     </g>
     <g id="text_24">
      <!-- 0.1 -->
      <g transform="translate(381.4576 284.373581) scale(0.1 -0.1)">
       <use xlink:href="#Calibri-30"/>
       <use xlink:href="#Calibri-2e" x="50.683594"/>
       <use xlink:href="#Calibri-31" x="75.927734"/>
      </g>
     </g>
    </g>
    <g id="ytick_11">
     <g id="line2d_22">
      <g>
       <use xlink:href="#m72da58fd02" x="374.4576" y="254.3616" style="stroke: #000000; stroke-width: 0.8"/>
      </g>
     </g>
     <g id="text_25">
      <!-- 0.2 -->
      <g transform="translate(381.4576 257.762381) scale(0.1 -0.1)">
       <use xlink:href="#Calibri-30"/>
       <use xlink:href="#Calibri-2e" x="50.683594"/>
       <use xlink:href="#Calibri-32" x="75.927734"/>
      </g>
     </g>
    </g>
    <g id="ytick_12">
     <g id="line2d_23">
      <g>
       <use xlink:href="#m72da58fd02" x="374.4576" y="227.7504" style="stroke: #000000; stroke-width: 0.8"/>
      </g>
     </g>
     <g id="text_26">
      <!-- 0.3 -->
      <g transform="translate(381.4576 231.151181) scale(0.1 -0.1)">
       <use xlink:href="#Calibri-30"/>
       <use xlink:href="#Calibri-2e" x="50.683594"/>
       <use xlink:href="#Calibri-33" x="75.927734"/>
      </g>
     </g>
    </g>
    <g id="ytick_13">
     <g id="line2d_24">
      <g>
       <use xlink:href="#m72da58fd02" x="374.4576" y="201.1392" style="stroke: #000000; stroke-width: 0.8"/>
      </g>
     </g>
     <g id="text_27">
      <!-- 0.4 -->
      <g transform="translate(381.4576 204.539981) scale(0.1 -0.1)">
       <use xlink:href="#Calibri-30"/>
       <use xlink:href="#Calibri-2e" x="50.683594"/>
       <use xlink:href="#Calibri-34" x="75.927734"/>
      </g>
     </g>
    </g>
    <g id="ytick_14">
     <g id="line2d_25">
      <g>
       <use xlink:href="#m72da58fd02" x="374.4576" y="174.528" style="stroke: #000000; stroke-width: 0.8"/>
      </g>
     </g>
     <g id="text_28">
      <!-- 0.5 -->
      <g transform="translate(381.4576 177.928781) scale(0.1 -0.1)">
       <use xlink:href="#Calibri-30"/>
       <use xlink:href="#Calibri-2e" x="50.683594"/>
       <use xlink:href="#Calibri-35" x="75.927734"/>
      </g>
     </g>
    </g>
    <g id="ytick_15">
     <g id="line2d_26">
      <g>
       <use xlink:href="#m72da58fd02" x="374.4576" y="147.9168" style="stroke: #000000; stroke-width: 0.8"/>
      </g>
     </g>
     <g id="text_29">
      <!-- 0.6 -->
      <g transform="translate(381.4576 151.317581) scale(0.1 -0.1)">
       <use xlink:href="#Calibri-30"/>
       <use xlink:href="#Calibri-2e" x="50.683594"/>
       <use xlink:href="#Calibri-36" x="75.927734"/>
      </g>
     </g>
    </g>
    <g id="ytick_16">
     <g id="line2d_27">
      <g>
       <use xlink:href="#m72da58fd02" x="374.4576" y="121.3056" style="stroke: #000000; stroke-width: 0.8"/>
      </g>
     </g>
     <g id="text_30">
      <!-- 0.7 -->
      <g transform="translate(381.4576 124.706381) scale(0.1 -0.1)">
       <use xlink:href="#Calibri-30"/>
       <use xlink:href="#Calibri-2e" x="50.683594"/>
       <use xlink:href="#Calibri-37" x="75.927734"/>
      </g>
     </g>
    </g>
    <g id="ytick_17">
     <g id="line2d_28">
      <g>
       <use xlink:href="#m72da58fd02" x="374.4576" y="94.6944" style="stroke: #000000; stroke-width: 0.8"/>
      </g>
     </g>
     <g id="text_31">
      <!-- 0.8 -->
      <g transform="translate(381.4576 98.095181) scale(0.1 -0.1)">
       <use xlink:href="#Calibri-30"/>
       <use xlink:href="#Calibri-2e" x="50.683594"/>
       <use xlink:href="#Calibri-38" x="75.927734"/>
      </g>
     </g>
    </g>
    <g id="ytick_18">
     <g id="line2d_29">
      <g>
       <use xlink:href="#m72da58fd02" x="374.4576" y="68.0832" style="stroke: #000000; stroke-width: 0.8"/>
      </g>
     </g>
     <g id="text_32">
      <!-- 0.9 -->
      <g transform="translate(381.4576 71.483981) scale(0.1 -0.1)">
       <use xlink:href="#Calibri-30"/>
       <use xlink:href="#Calibri-2e" x="50.683594"/>
       <use xlink:href="#Calibri-39" x="75.927734"/>
      </g>
     </g>
    </g>
    <g id="ytick_19">
     <g id="line2d_30">
      <g>
       <use xlink:href="#m72da58fd02" x="374.4576" y="41.472" style="stroke: #000000; stroke-width: 0.8"/>
      </g>
     </g>
     <g id="text_33">
      <!-- 1.0 -->
      <g transform="translate(381.4576 44.872781) scale(0.1 -0.1)">
       <use xlink:href="#Calibri-31"/>
       <use xlink:href="#Calibri-2e" x="50.683594"/>
       <use xlink:href="#Calibri-30" x="75.927734"/>
      </g>
     </g>
    </g>
   </g>
   <g id="LineCollection_1"/>
   <g id="patch_8">
    <path d="M 361.152 307.584 
L 367.8048 307.584 
L 374.4576 307.584 
L 374.4576 41.472 
L 367.8048 41.472 
L 361.152 41.472 
L 361.152 307.584 
z
" style="fill: none; stroke: #000000; stroke-width: 0.8; stroke-linejoin: miter; stroke-linecap: square"/>
   </g>
   <g id="text_34">
    <!-- $\mathit{E}_{\mathrm{Edis}}$/$\mathit{E}_{\mathrm{i}}$ -->
    <g transform="translate(351.0548 35.472) scale(0.1 -0.1)">
     <defs>
      <path id="DejaVuSans-Oblique-45" d="M 1081 4666 
L 4031 4666 
L 3928 4134 
L 1606 4134 
L 1338 2753 
L 3566 2753 
L 3463 2222 
L 1234 2222 
L 909 531 
L 3284 531 
L 3181 0 
L 172 0 
L 1081 4666 
z
" transform="scale(0.015625)"/>
      <path id="DejaVuSans-45" d="M 628 4666 
L 3578 4666 
L 3578 4134 
L 1259 4134 
L 1259 2753 
L 3481 2753 
L 3481 2222 
L 1259 2222 
L 1259 531 
L 3634 531 
L 3634 0 
L 628 0 
L 628 4666 
z
" transform="scale(0.015625)"/>
      <path id="DejaVuSans-64" d="M 2906 2969 
L 2906 4863 
L 3481 4863 
L 3481 0 
L 2906 0 
L 2906 525 
Q 2725 213 2448 61 
Q 2172 -91 1784 -91 
Q 1150 -91 751 415 
Q 353 922 353 1747 
Q 353 2572 751 3078 
Q 1150 3584 1784 3584 
Q 2172 3584 2448 3432 
Q 2725 3281 2906 2969 
z
M 947 1747 
Q 947 1113 1208 752 
Q 1469 391 1925 391 
Q 2381 391 2643 752 
Q 2906 1113 2906 1747 
Q 2906 2381 2643 2742 
Q 2381 3103 1925 3103 
Q 1469 3103 1208 2742 
Q 947 2381 947 1747 
z
" transform="scale(0.015625)"/>
      <path id="DejaVuSans-69" d="M 603 3500 
L 1178 3500 
L 1178 0 
L 603 0 
L 603 3500 
z
M 603 4863 
L 1178 4863 
L 1178 4134 
L 603 4134 
L 603 4863 
z
" transform="scale(0.015625)"/>
      <path id="DejaVuSans-73" d="M 2834 3397 
L 2834 2853 
Q 2591 2978 2328 3040 
Q 2066 3103 1784 3103 
Q 1356 3103 1142 2972 
Q 928 2841 928 2578 
Q 928 2378 1081 2264 
Q 1234 2150 1697 2047 
L 1894 2003 
Q 2506 1872 2764 1633 
Q 3022 1394 3022 966 
Q 3022 478 2636 193 
Q 2250 -91 1575 -91 
Q 1294 -91 989 -36 
Q 684 19 347 128 
L 347 722 
Q 666 556 975 473 
Q 1284 391 1588 391 
Q 1994 391 2212 530 
Q 2431 669 2431 922 
Q 2431 1156 2273 1281 
Q 2116 1406 1581 1522 
L 1381 1569 
Q 847 1681 609 1914 
Q 372 2147 372 2553 
Q 372 3047 722 3315 
Q 1072 3584 1716 3584 
Q 2034 3584 2315 3537 
Q 2597 3491 2834 3397 
z
" transform="scale(0.015625)"/>
     </defs>
     <use xlink:href="#DejaVuSans-Oblique-45" transform="translate(0 0.09375)"/>
     <use xlink:href="#DejaVuSans-45" transform="translate(63.183594 -16.3125) scale(0.7)"/>
     <use xlink:href="#DejaVuSans-64" transform="translate(107.412109 -16.3125) scale(0.7)"/>
     <use xlink:href="#DejaVuSans-69" transform="translate(151.845703 -16.3125) scale(0.7)"/>
     <use xlink:href="#DejaVuSans-73" transform="translate(171.293945 -16.3125) scale(0.7)"/>
     <use xlink:href="#Calibri-2f" transform="translate(210.498047 0.09375)"/>
     <use xlink:href="#DejaVuSans-Oblique-45" transform="translate(249.121094 0.09375)"/>
     <use xlink:href="#DejaVuSans-69" transform="translate(312.304688 -16.3125) scale(0.7)"/>
    </g>
   </g>
  </g>
 </g>
 <defs>
  <clipPath id="p8e766b3f7b">
   <rect x="57.6" y="41.472" width="285.696" height="266.112"/>
  </clipPath>
  <clipPath id="pb6e8a44c72">
   <rect x="361.152" y="41.472" width="13.3056" height="266.112"/>
  </clipPath>
 </defs>
</svg>
