<?xml version="1.0" encoding="utf-8" standalone="no"?>
<!DOCTYPE svg PUBLIC "-//W3C//DTD SVG 1.1//EN"
  "http://www.w3.org/Graphics/SVG/1.1/DTD/svg11.dtd">
<svg xmlns:xlink="http://www.w3.org/1999/xlink" width="460.8pt" height="345.6pt" viewBox="0 0 460.8 345.6" xmlns="http://www.w3.org/2000/svg" version="1.1">
 <metadata>
  <rdf:RDF xmlns:dc="http://purl.org/dc/elements/1.1/" xmlns:cc="http://creativecommons.org/ns#" xmlns:rdf="http://www.w3.org/1999/02/22-rdf-syntax-ns#">
   <cc:Work>
    <dc:type rdf:resource="http://purl.org/dc/dcmitype/StillImage"/>
    <dc:date>2024-01-22T08:39:23.971708</dc:date>
    <dc:format>image/svg+xml</dc:format>
    <dc:creator>
     <cc:Agent>
      <dc:title>Matplotlib v3.7.1, https://matplotlib.org/</dc:title>
     </cc:Agent>
    </dc:creator>
   </cc:Work>
  </rdf:RDF>
 </metadata>
 <defs>
  <style type="text/css">*{stroke-linejoin: round; stroke-linecap: butt}</style>
 </defs>
 <g id="figure_1">
  <g id="patch_1">
   <path d="M 0 345.6 
L 460.8 345.6 
L 460.8 0 
L 0 0 
z
" style="fill: #ffffff"/>
  </g>
  <g id="axes_1">
   <g id="patch_2">
    <path d="M 57.6 307.584 
L 343.296 307.584 
L 343.296 41.472 
L 57.6 41.472 
z
" style="fill: #ffffff"/>
   </g>
   <g id="PathCollection_1">
    <path clip-path="url(#pde4026ba29)" style="fill: #0000b6"/>
   </g>
   <g id="PathCollection_2">
    <path d="M 57.62857 76.107499 
L 57.899973 76.631986 
L 58.648074 78.0624 
L 58.917912 78.57405 
L 59.893989 80.41452 
L 60.002062 80.620373 
L 60.1538 80.89349 
L 60.425458 81.3888 
L 60.872193 82.239398 
L 60.937632 82.36308 
L 61.074447 82.615172 
L 62.101543 84.500903 
L 62.208305 84.696427 
L 62.218601 84.7152 
L 63.339272 86.739821 
L 63.52112 87.06732 
L 63.616517 87.235165 
L 64.078123 88.0416 
L 64.32818 88.496075 
L 64.46537 88.748518 
L 64.618445 89.01588 
L 65.563136 90.67813 
L 65.956641 91.368 
L 66.569057 92.431492 
L 67.170184 93.472714 
L 67.259955 93.626621 
L 67.314653 93.72012 
L 67.422742 93.906051 
L 67.720402 94.410448 
L 67.889107 94.6944 
L 67.978647 94.850634 
L 68.027116 94.936234 
L 68.462554 95.66868 
L 68.97485 96.535653 
L 69.800983 97.929713 
L 69.82723 97.973552 
L 69.855571 98.0208 
L 70.702004 99.41792 
L 71.281889 100.37292 
L 71.683768 101.038131 
L 71.877511 101.3472 
L 72.457799 102.302492 
L 72.469193 102.32148 
L 73.114838 103.360475 
L 73.931906 104.6736 
L 74.196562 105.094586 
L 75.412522 107.02572 
L 75.432175 107.057056 
L 76.044164 108 
L 76.375276 108.524999 
L 76.54863 108.803165 
L 76.659798 108.97428 
L 77.745985 110.651477 
L 78.183432 111.3264 
L 78.786026 112.246152 
L 79.277229 112.995503 
L 79.53879 113.390424 
L 79.729652 113.67852 
L 80.209214 114.404095 
L 80.375526 114.6528 
L 80.402102 114.693427 
L 80.415834 114.714666 
L 81.029194 115.62708 
L 81.3456 116.098796 
L 81.771672 116.733847 
L 82.140904 117.278536 
L 82.61582 117.9792 
L 83.16478 118.780161 
L 84.227653 120.33132 
L 84.37345 120.54441 
L 84.554573 120.799716 
L 84.90923 121.3056 
L 85.333178 121.921781 
L 85.548122 122.237875 
L 85.577723 122.27988 
L 86.83718 124.068584 
L 87.233528 124.632 
L 87.919822 125.596425 
L 88.418996 126.298442 
L 88.690242 126.675982 
L 88.911324 126.98412 
L 89.580116 127.916437 
L 89.601488 127.94602 
L 89.610482 127.9584 
L 89.614657 127.964268 
L 89.616747 127.967239 
L 90.319025 128.93268 
L 90.555207 129.257397 
L 90.839935 129.649388 
L 91.333045 130.321303 
L 92.039217 131.2848 
L 92.431581 131.813903 
L 93.703149 133.531643 
L 93.757493 133.604666 
L 93.781458 133.63692 
L 94.017996 133.946487 
L 94.520043 134.6112 
L 95.002356 135.261379 
L 95.248387 135.58548 
L 96.215691 136.858453 
L 97.033786 137.9376 
L 97.203189 138.158391 
L 97.314569 138.303829 
L 98.122644 139.348202 
L 98.849147 140.28972 
L 99.259302 140.82045 
L 99.374015 140.964682 
L 99.609317 141.264 
L 100.221857 142.052505 
L 100.364519 142.23828 
L 100.666226 142.620729 
L 101.258961 143.373859 
L 101.964925 144.265758 
L 102.22105 144.5904 
L 103.12517 145.722278 
L 103.33993 145.988252 
L 103.33993 144.5904 
L 103.33993 141.264 
L 103.33993 137.9376 
L 103.33993 134.6112 
L 103.33993 131.2848 
L 103.33993 127.9584 
L 103.33993 124.632 
L 103.33993 121.3056 
L 103.33993 117.9792 
L 103.33993 114.6528 
L 103.33993 111.3264 
L 103.33993 108 
L 103.33993 104.6736 
L 103.33993 101.3472 
L 103.33993 98.0208 
L 103.33993 94.6944 
L 103.33993 91.368 
L 103.33993 88.0416 
L 103.33993 84.7152 
L 103.33993 81.3888 
L 103.33993 78.0624 
L 103.33993 74.736 
L 103.33993 71.4096 
L 103.33993 68.0832 
L 103.33993 64.7568 
L 103.33993 61.4304 
L 103.33993 58.104 
L 103.33993 54.7776 
L 103.33993 51.4512 
L 103.33993 48.1248 
L 103.33993 44.7984 
L 103.33993 41.472 
L 101.816218 41.472 
L 100.292506 41.472 
L 98.768794 41.472 
L 97.245082 41.472 
L 95.72137 41.472 
L 94.197658 41.472 
L 92.673946 41.472 
L 91.150234 41.472 
L 89.626522 41.472 
L 88.10281 41.472 
L 86.579098 41.472 
L 85.055386 41.472 
L 83.531674 41.472 
L 82.007962 41.472 
L 80.48425 41.472 
L 78.960538 41.472 
L 77.436826 41.472 
L 75.913114 41.472 
L 74.389402 41.472 
L 72.86569 41.472 
L 71.341978 41.472 
L 69.818266 41.472 
L 68.294554 41.472 
L 66.770842 41.472 
L 65.24713 41.472 
L 63.723418 41.472 
L 62.199706 41.472 
L 60.675994 41.472 
L 59.152282 41.472 
L 57.62857 41.472 
L 57.62857 44.7984 
L 57.62857 48.1248 
L 57.62857 51.4512 
L 57.62857 54.7776 
L 57.62857 58.104 
L 57.62857 61.4304 
L 57.62857 64.7568 
L 57.62857 68.0832 
L 57.62857 71.4096 
L 57.62857 74.736 
" clip-path="url(#pde4026ba29)" style="fill: #0018ff"/>
   </g>
   <g id="PathCollection_3">
    <path d="M 103.33993 145.988252 
L 103.12517 145.722278 
L 102.22105 144.5904 
L 101.964925 144.265758 
L 101.258961 143.373859 
L 100.666226 142.620729 
L 100.364519 142.23828 
L 100.221857 142.052505 
L 99.609317 141.264 
L 99.374015 140.964682 
L 99.259302 140.82045 
L 98.849147 140.28972 
L 98.122644 139.348202 
L 97.314569 138.303829 
L 97.203189 138.158391 
L 97.033786 137.9376 
L 96.215691 136.858453 
L 95.248387 135.58548 
L 95.002356 135.261379 
L 94.520043 134.6112 
L 94.017996 133.946487 
L 93.781458 133.63692 
L 93.757493 133.604666 
L 93.703149 133.531643 
L 92.431581 131.813903 
L 92.039217 131.2848 
L 91.333045 130.321303 
L 90.839935 129.649388 
L 90.555207 129.257397 
L 90.319025 128.93268 
L 89.616747 127.967239 
L 89.614657 127.964268 
L 89.610482 127.9584 
L 89.601488 127.94602 
L 89.580116 127.916437 
L 88.911324 126.98412 
L 88.690242 126.675982 
L 88.418996 126.298442 
L 87.919822 125.596425 
L 87.233528 124.632 
L 86.83718 124.068584 
L 85.577723 122.27988 
L 85.548122 122.237875 
L 85.333178 121.921781 
L 84.90923 121.3056 
L 84.554573 120.799716 
L 84.37345 120.54441 
L 84.227653 120.33132 
L 83.16478 118.780161 
L 82.61582 117.9792 
L 82.140904 117.278536 
L 81.771672 116.733847 
L 81.3456 116.098796 
L 81.029194 115.62708 
L 80.415834 114.714666 
L 80.402102 114.693427 
L 80.375526 114.6528 
L 80.209214 114.404095 
L 79.729652 113.67852 
L 79.53879 113.390424 
L 79.277229 112.995503 
L 78.786026 112.246152 
L 78.183432 111.3264 
L 77.745985 110.651477 
L 76.659798 108.97428 
L 76.54863 108.803165 
L 76.375276 108.524999 
L 76.044164 108 
L 75.432175 107.057056 
L 75.412522 107.02572 
L 74.196562 105.094586 
L 73.931906 104.6736 
L 73.114838 103.360475 
L 72.469193 102.32148 
L 72.457799 102.302492 
L 71.877511 101.3472 
L 71.683768 101.038131 
L 71.281889 100.37292 
L 70.702004 99.41792 
L 69.855571 98.0208 
L 69.82723 97.973552 
L 69.800983 97.929713 
L 68.97485 96.535653 
L 68.462554 95.66868 
L 68.027116 94.936234 
L 67.978647 94.850634 
L 67.889107 94.6944 
L 67.720402 94.410448 
L 67.422742 93.906051 
L 67.314653 93.72012 
L 67.259955 93.626621 
L 67.170184 93.472714 
L 66.569057 92.431492 
L 65.956641 91.368 
L 65.563136 90.67813 
L 64.618445 89.01588 
L 64.46537 88.748518 
L 64.32818 88.496075 
L 64.078123 88.0416 
L 63.616517 87.235165 
L 63.52112 87.06732 
L 63.339272 86.739821 
L 62.218601 84.7152 
L 62.208305 84.696427 
L 62.101543 84.500903 
L 61.074447 82.615172 
L 60.937632 82.36308 
L 60.872193 82.239398 
L 60.425458 81.3888 
L 60.1538 80.89349 
L 60.002062 80.620373 
L 59.893989 80.41452 
L 58.917912 78.57405 
L 58.648074 78.0624 
L 57.899973 76.631986 
L 57.62857 76.107499 
L 57.62857 78.0624 
L 57.62857 81.3888 
L 57.62857 84.7152 
L 57.62857 88.0416 
L 57.62857 91.368 
L 57.62857 94.6944 
L 57.62857 98.0208 
L 57.62857 101.3472 
L 57.62857 104.6736 
L 57.62857 108 
L 57.62857 111.3264 
L 57.62857 114.6528 
L 57.62857 117.9792 
L 57.62857 121.3056 
L 57.62857 124.632 
L 57.62857 127.9584 
L 57.62857 131.2848 
L 57.62857 134.6112 
L 57.62857 137.9376 
L 57.62857 141.264 
L 57.62857 144.5904 
L 57.62857 147.9168 
L 57.62857 151.2432 
L 57.62857 153.910081 
L 57.805039 154.18435 
L 58.056926 154.5696 
L 58.463167 155.192743 
L 58.695518 155.54388 
L 59.600356 156.917813 
L 60.249628 157.896 
L 60.581608 158.393455 
L 60.844754 158.785445 
L 61.40919 159.621766 
L 61.834999 160.24812 
L 62.382681 161.056942 
L 62.497979 161.2224 
L 62.978812 161.926919 
L 63.164307 162.19668 
L 63.231917 162.295391 
L 63.320115 162.423215 
L 63.953459 163.33638 
L 64.798827 164.5488 
L 65.069977 164.93554 
L 66.079015 166.36488 
L 66.352848 166.751811 
L 66.458899 166.90092 
L 66.53345 167.00423 
L 67.1627 167.8752 
L 67.456596 168.28962 
L 67.604743 168.498972 
L 67.859636 168.84948 
L 68.786546 170.127537 
L 69.570324 171.2016 
L 69.767334 171.470031 
L 69.904485 171.656014 
L 70.664233 172.681178 
L 71.314575 173.55372 
L 71.758847 174.15104 
L 72.045834 174.528 
L 72.459739 175.080799 
L 72.775667 175.50228 
L 73.204778 176.067252 
L 74.120952 177.26835 
L 74.456732 177.707411 
L 74.569719 177.8544 
L 75.648446 179.249316 
L 76.348971 180.15156 
L 76.371404 180.180312 
L 76.391948 180.20652 
L 76.470883 180.307332 
L 76.979779 180.954764 
L 77.157622 181.1808 
L 77.272689 181.329223 
L 77.926518 182.15508 
L 78.298667 182.625723 
L 78.699184 183.129748 
L 79.121516 183.658771 
L 79.801258 184.5072 
L 80.236738 185.047541 
L 81.376758 186.455626 
L 81.588727 186.716753 
L 81.704839 186.85932 
L 81.922139 187.122479 
L 82.50798 187.8336 
L 82.801964 188.194485 
L 82.942036 188.366789 
L 83.30782 188.80788 
L 84.14594 189.819001 
L 84.994363 190.838383 
L 85.093834 190.957361 
L 85.263747 191.16 
L 86.11622 192.170504 
L 87.252286 193.51212 
L 87.427582 193.719145 
L 87.637734 193.962841 
L 88.088158 194.4864 
L 88.757469 195.272254 
L 88.920584 195.46068 
L 90.08692 196.807709 
L 90.960096 197.8128 
L 91.116319 197.991545 
L 91.202891 198.090328 
L 92.086748 199.094705 
L 93.031425 200.16492 
L 93.351095 200.526877 
L 93.899847 201.1392 
L 94.455948 201.765026 
L 94.711081 202.052769 
L 94.765766 202.11348 
L 96.113792 203.608908 
L 96.888119 204.4656 
L 97.183458 204.790384 
L 97.33911 204.961171 
L 98.140552 205.837109 
L 99.039957 206.81772 
L 99.405696 207.216071 
L 99.941272 207.792 
L 100.794128 208.71624 
L 100.840882 208.76628 
L 102.218878 210.239357 
L 103.042929 211.1184 
L 103.290185 211.380576 
L 103.33993 211.432848 
L 103.33993 211.1184 
L 103.33993 207.792 
L 103.33993 204.4656 
L 103.33993 201.1392 
L 103.33993 197.8128 
L 103.33993 194.4864 
L 103.33993 191.16 
L 103.33993 187.8336 
L 103.33993 184.5072 
L 103.33993 181.1808 
L 103.33993 177.8544 
L 103.33993 174.528 
L 103.33993 171.2016 
L 103.33993 167.8752 
L 103.33993 164.5488 
L 103.33993 161.2224 
L 103.33993 157.896 
L 103.33993 154.5696 
L 103.33993 151.2432 
L 103.33993 147.9168 
" clip-path="url(#pde4026ba29)" style="fill: #0080ff"/>
   </g>
   <g id="PathCollection_4">
    <path d="M 103.33993 211.432848 
L 103.290185 211.380576 
L 103.042929 211.1184 
L 102.218878 210.239357 
L 100.840882 208.76628 
L 100.794128 208.71624 
L 99.941272 207.792 
L 99.405696 207.216071 
L 99.039957 206.81772 
L 98.140552 205.837109 
L 97.33911 204.961171 
L 97.183458 204.790384 
L 96.888119 204.4656 
L 96.113792 203.608908 
L 94.765766 202.11348 
L 94.711081 202.052769 
L 94.455948 201.765026 
L 93.899847 201.1392 
L 93.351095 200.526877 
L 93.031425 200.16492 
L 92.086748 199.094705 
L 91.202891 198.090328 
L 91.116319 197.991545 
L 90.960096 197.8128 
L 90.08692 196.807709 
L 88.920584 195.46068 
L 88.757469 195.272254 
L 88.088158 194.4864 
L 87.637734 193.962841 
L 87.427582 193.719145 
L 87.252286 193.51212 
L 86.11622 192.170504 
L 85.263747 191.16 
L 85.093834 190.957361 
L 84.994363 190.838383 
L 84.14594 189.819001 
L 83.30782 188.80788 
L 82.942036 188.366789 
L 82.801964 188.194485 
L 82.50798 187.8336 
L 81.922139 187.122479 
L 81.704839 186.85932 
L 81.588727 186.716753 
L 81.376758 186.455626 
L 80.236738 185.047541 
L 79.801258 184.5072 
L 79.121516 183.658771 
L 78.699184 183.129748 
L 78.298667 182.625723 
L 77.926518 182.15508 
L 77.272689 181.329223 
L 77.157622 181.1808 
L 76.979779 180.954764 
L 76.470883 180.307332 
L 76.391948 180.20652 
L 76.371404 180.180312 
L 76.348971 180.15156 
L 75.648446 179.249316 
L 74.569719 177.8544 
L 74.456732 177.707411 
L 74.120952 177.26835 
L 73.204778 176.067252 
L 72.775667 175.50228 
L 72.459739 175.080799 
L 72.045834 174.528 
L 71.758847 174.15104 
L 71.314575 173.55372 
L 70.664233 172.681178 
L 69.904485 171.656014 
L 69.767334 171.470031 
L 69.570324 171.2016 
L 68.786546 170.127537 
L 67.859636 168.84948 
L 67.604743 168.498972 
L 67.456596 168.28962 
L 67.1627 167.8752 
L 66.53345 167.00423 
L 66.458899 166.90092 
L 66.352848 166.751811 
L 66.079015 166.36488 
L 65.069977 164.93554 
L 64.798827 164.5488 
L 63.953459 163.33638 
L 63.320115 162.423215 
L 63.231917 162.295391 
L 63.164307 162.19668 
L 62.978812 161.926919 
L 62.497979 161.2224 
L 62.382681 161.056942 
L 61.834999 160.24812 
L 61.40919 159.621766 
L 60.844754 158.785445 
L 60.581608 158.393455 
L 60.249628 157.896 
L 59.600356 156.917813 
L 58.695518 155.54388 
L 58.463167 155.192743 
L 58.056926 154.5696 
L 57.805039 154.18435 
L 57.62857 153.910081 
L 57.62857 154.5696 
L 57.62857 157.896 
L 57.62857 161.2224 
L 57.62857 164.5488 
L 57.62857 167.8752 
L 57.62857 171.2016 
L 57.62857 174.528 
L 57.62857 177.8544 
L 57.62857 181.1808 
L 57.62857 184.5072 
L 57.62857 187.8336 
L 57.62857 191.16 
L 57.62857 194.4864 
L 57.62857 197.8128 
L 57.62857 201.1392 
L 57.62857 204.4656 
L 57.62857 207.792 
L 57.62857 211.1184 
L 57.62857 214.4448 
L 57.62857 215.611051 
L 57.956044 216.045265 
L 58.975294 217.384821 
L 59.196155 217.675421 
L 59.269983 217.7712 
L 60.39776 219.237617 
L 61.086549 220.12332 
L 61.096464 220.136087 
L 61.85012 221.0976 
L 61.946791 221.222681 
L 61.994196 221.283435 
L 62.617545 222.07188 
L 63.034378 222.601834 
L 63.48481 223.166434 
L 63.870136 223.650731 
L 64.492063 224.424 
L 64.972654 225.023205 
L 66.22955 226.568712 
L 66.33846 226.702845 
L 66.39859 226.77612 
L 66.634508 227.064259 
L 67.201369 227.7504 
L 67.666362 228.318452 
L 68.004679 228.72468 
L 68.885334 229.787074 
L 69.774314 230.845156 
L 69.845982 230.930722 
L 69.969607 231.0768 
L 70.859097 232.130972 
L 71.968857 233.42892 
L 72.164815 233.659137 
L 72.368122 233.895711 
L 72.808132 234.4032 
L 73.500033 235.207425 
L 73.648581 235.37748 
L 74.839567 236.746848 
L 75.705405 237.7296 
L 75.876204 237.924128 
L 75.970102 238.029954 
L 76.845538 239.020433 
L 77.79555 240.08172 
L 78.116309 240.441566 
L 78.671602 241.056 
L 79.228971 241.676809 
L 79.485093 241.959503 
L 79.549679 242.03028 
L 80.887389 243.50231 
L 81.69721 244.3824 
L 81.954671 244.663266 
L 82.088715 244.808005 
L 82.922504 245.712272 
L 83.876756 246.73452 
L 84.211235 247.094296 
L 84.789494 247.7088 
L 85.611041 248.58418 
L 85.704959 248.68308 
L 87.019744 250.073229 
L 87.94069 251.0352 
L 88.075898 251.177034 
L 88.142928 251.246644 
L 89.081153 252.225789 
L 90.207619 253.38732 
L 90.439019 253.626887 
L 90.657249 253.851844 
L 91.156254 254.3616 
L 91.86719 255.091121 
L 92.108179 255.33588 
L 93.228199 256.478015 
L 94.142969 257.399769 
L 94.234715 257.492691 
L 94.429378 257.688 
L 95.313263 258.578934 
L 96.780199 260.04012 
L 96.78903 260.048952 
L 97.763283 261.0144 
L 98.097198 261.346544 
L 98.242819 261.490021 
L 98.750094 261.98868 
L 99.504927 262.733755 
L 100.097208 263.311496 
L 100.426505 263.634563 
L 101.153151 264.3408 
L 101.611213 264.788344 
L 102.34639 265.498214 
L 103.000077 266.131975 
L 103.33993 266.460709 
L 103.33993 264.3408 
L 103.33993 261.0144 
L 103.33993 257.688 
L 103.33993 254.3616 
L 103.33993 251.0352 
L 103.33993 247.7088 
L 103.33993 244.3824 
L 103.33993 241.056 
L 103.33993 237.7296 
L 103.33993 234.4032 
L 103.33993 231.0768 
L 103.33993 227.7504 
L 103.33993 224.424 
L 103.33993 221.0976 
L 103.33993 217.7712 
L 103.33993 214.4448 
" clip-path="url(#pde4026ba29)" style="fill: #00e4f8"/>
   </g>
   <g id="PathCollection_5">
    <path d="M 103.33993 266.460709 
L 103.000077 266.131975 
L 102.34639 265.498214 
L 101.611213 264.788344 
L 101.153151 264.3408 
L 100.426505 263.634563 
L 100.097208 263.311496 
L 99.504927 262.733755 
L 98.750094 261.98868 
L 98.242819 261.490021 
L 98.097198 261.346544 
L 97.763283 261.0144 
L 96.78903 260.048952 
L 96.780199 260.04012 
L 95.313263 258.578934 
L 94.429378 257.688 
L 94.234715 257.492691 
L 94.142969 257.399769 
L 93.228199 256.478015 
L 92.108179 255.33588 
L 91.86719 255.091121 
L 91.156254 254.3616 
L 90.657249 253.851844 
L 90.439019 253.626887 
L 90.207619 253.38732 
L 89.081153 252.225789 
L 88.142928 251.246644 
L 88.075898 251.177034 
L 87.94069 251.0352 
L 87.019744 250.073229 
L 85.704959 248.68308 
L 85.611041 248.58418 
L 84.789494 247.7088 
L 84.211235 247.094296 
L 83.876756 246.73452 
L 82.922504 245.712272 
L 82.088715 244.808005 
L 81.954671 244.663266 
L 81.69721 244.3824 
L 80.887389 243.50231 
L 79.549679 242.03028 
L 79.485093 241.959503 
L 79.228971 241.676809 
L 78.671602 241.056 
L 78.116309 240.441566 
L 77.79555 240.08172 
L 76.845538 239.020433 
L 75.970102 238.029954 
L 75.876204 237.924128 
L 75.705405 237.7296 
L 74.839567 236.746848 
L 73.648581 235.37748 
L 73.500033 235.207425 
L 72.808132 234.4032 
L 72.368122 233.895711 
L 72.164815 233.659137 
L 71.968857 233.42892 
L 70.859097 232.130972 
L 69.969607 231.0768 
L 69.845982 230.930722 
L 69.774314 230.845156 
L 68.885334 229.787074 
L 68.004679 228.72468 
L 67.666362 228.318452 
L 67.201369 227.7504 
L 66.634508 227.064259 
L 66.39859 226.77612 
L 66.33846 226.702845 
L 66.22955 226.568712 
L 64.972654 225.023205 
L 64.492063 224.424 
L 63.870136 223.650731 
L 63.48481 223.166434 
L 63.034378 222.601834 
L 62.617545 222.07188 
L 61.994196 221.283435 
L 61.946791 221.222681 
L 61.85012 221.0976 
L 61.096464 220.136087 
L 61.086549 220.12332 
L 60.39776 219.237617 
L 59.269983 217.7712 
L 59.196155 217.675421 
L 58.975294 217.384821 
L 57.956044 216.045265 
L 57.62857 215.611051 
L 57.62857 217.7712 
L 57.62857 221.0976 
L 57.62857 224.424 
L 57.62857 227.7504 
L 57.62857 231.0768 
L 57.62857 234.4032 
L 57.62857 237.7296 
L 57.62857 241.056 
L 57.62857 244.3824 
L 57.62857 247.7088 
L 57.62857 251.0352 
L 57.62857 254.3616 
L 57.62857 257.688 
L 57.62857 261.0144 
L 57.62857 264.3408 
L 57.62857 267.6672 
L 57.62857 270.9936 
L 57.62857 274.32 
L 57.62857 277.6464 
L 57.62857 280.9728 
L 57.62857 281.220946 
L 57.895902 281.556412 
L 58.150038 281.879094 
L 58.20451 281.94708 
L 59.485892 283.570898 
L 60.077278 284.2992 
L 60.560469 284.908068 
L 60.861974 285.279399 
L 61.427064 285.985946 
L 61.974644 286.65132 
L 62.525403 287.331083 
L 62.767645 287.6256 
L 63.480988 288.499061 
L 63.565621 288.59988 
L 64.055242 289.203136 
L 64.926606 290.252267 
L 65.338441 290.75266 
L 65.507264 290.952 
L 66.534933 292.195341 
L 67.143192 292.914452 
L 67.306015 293.110069 
L 67.472226 293.30412 
L 68.289125 294.273491 
L 68.293248 294.2784 
L 68.293809 294.279073 
L 69.1174 295.25268 
L 69.281546 295.450107 
L 69.445828 295.64189 
L 70.053753 296.363676 
L 71.123762 297.6048 
L 71.264938 297.772983 
L 71.592497 298.151706 
L 72.549742 299.269984 
L 73.151683 299.95692 
L 73.198882 300.012851 
L 73.99684 300.9312 
L 74.11352 301.06764 
L 74.168931 301.130564 
L 74.8465 301.90548 
L 75.25103 302.376588 
L 75.639508 302.815579 
L 76.088672 303.332331 
L 76.912206 304.2576 
L 77.255211 304.654081 
L 78.00214 305.491732 
L 78.598126 306.167671 
L 78.997277 306.60972 
L 79.26713 306.914682 
L 79.865836 307.584 
L 80.48425 307.584 
L 82.007962 307.584 
L 83.531674 307.584 
L 85.055386 307.584 
L 86.579098 307.584 
L 88.10281 307.584 
L 89.626522 307.584 
L 91.150234 307.584 
L 92.673946 307.584 
L 94.197658 307.584 
L 95.72137 307.584 
L 97.245082 307.584 
L 98.768794 307.584 
L 100.292506 307.584 
L 101.816218 307.584 
L 103.33993 307.584 
L 103.33993 304.2576 
L 103.33993 300.9312 
L 103.33993 297.6048 
L 103.33993 294.2784 
L 103.33993 290.952 
L 103.33993 287.6256 
L 103.33993 284.2992 
L 103.33993 280.9728 
L 103.33993 277.6464 
L 103.33993 274.32 
L 103.33993 270.9936 
L 103.33993 267.6672 
" clip-path="url(#pde4026ba29)" style="fill: #53ffa4"/>
   </g>
   <g id="PathCollection_6">
    <path d="M 79.865836 307.584 
L 79.26713 306.914682 
L 78.997277 306.60972 
L 78.598126 306.167671 
L 78.00214 305.491732 
L 77.255211 304.654081 
L 76.912206 304.2576 
L 76.088672 303.332331 
L 75.639508 302.815579 
L 75.25103 302.376588 
L 74.8465 301.90548 
L 74.168931 301.130564 
L 74.11352 301.06764 
L 73.99684 300.9312 
L 73.198882 300.012851 
L 73.151683 299.95692 
L 72.549742 299.269984 
L 71.592497 298.151706 
L 71.264938 297.772983 
L 71.123762 297.6048 
L 70.053753 296.363676 
L 69.445828 295.64189 
L 69.281546 295.450107 
L 69.1174 295.25268 
L 68.293809 294.279073 
L 68.293248 294.2784 
L 68.289125 294.273491 
L 67.472226 293.30412 
L 67.306015 293.110069 
L 67.143192 292.914452 
L 66.534933 292.195341 
L 65.507264 290.952 
L 65.338441 290.75266 
L 64.926606 290.252267 
L 64.055242 289.203136 
L 63.565621 288.59988 
L 63.480988 288.499061 
L 62.767645 287.6256 
L 62.525403 287.331083 
L 61.974644 286.65132 
L 61.427064 285.985946 
L 60.861974 285.279399 
L 60.560469 284.908068 
L 60.077278 284.2992 
L 59.485892 283.570898 
L 58.20451 281.94708 
L 58.150038 281.879094 
L 57.895902 281.556412 
L 57.62857 281.220946 
L 57.62857 284.2992 
L 57.62857 287.6256 
L 57.62857 290.952 
L 57.62857 294.2784 
L 57.62857 297.6048 
L 57.62857 300.9312 
L 57.62857 304.2576 
L 57.62857 307.584 
L 59.152282 307.584 
L 60.675994 307.584 
L 62.199706 307.584 
L 63.723418 307.584 
L 65.24713 307.584 
L 66.770842 307.584 
L 68.294554 307.584 
L 69.818266 307.584 
L 71.341978 307.584 
L 72.86569 307.584 
L 74.389402 307.584 
L 75.913114 307.584 
L 77.436826 307.584 
L 78.960538 307.584 
" clip-path="url(#pde4026ba29)" style="fill: #a4ff53"/>
   </g>
   <g id="PathCollection_7">
    <path clip-path="url(#pde4026ba29)" style="fill: #f8f500"/>
   </g>
   <g id="PathCollection_8">
    <path clip-path="url(#pde4026ba29)" style="fill: #ff9400"/>
   </g>
   <g id="PathCollection_9">
    <path clip-path="url(#pde4026ba29)" style="fill: #ff3800"/>
   </g>
   <g id="PathCollection_10">
    <path clip-path="url(#pde4026ba29)" style="fill: #b60000"/>
   </g>
   <g id="PathCollection_11">
    <path d="M 107.184793 41.472 
L 107.468841 41.962345 
L 108.877218 44.07008 
L 111.003012 47.653362 
L 112.653752 50.3424 
L 115.13482 54.334599 
L 116.578301 56.61472 
L 117.083113 57.312341 
L 118.545549 59.2128 
L 119.28909 60.565627 
L 119.74487 61.479465 
L 119.983355 61.81088 
L 122.480129 65.608354 
L 124.149882 68.0832 
L 124.402716 68.451226 
L 128.523815 74.35552 
L 128.959646 75.037625 
L 129.574771 75.753014 
L 130.52164 76.9536 
L 131.911965 79.191824 
L 132.114877 79.55168 
L 134.146695 82.349287 
L 136.679516 85.824 
L 138.592929 88.38283 
L 141.373816 92.09632 
L 142.64838 93.91351 
L 142.909406 94.202517 
L 143.316574 94.6944 
L 143.784442 95.40351 
L 144.393747 96.267522 
L 145.214708 97.29248 
L 145.86563 98.15402 
L 148.095144 101.110844 
L 149.344774 102.712789 
L 150.005946 103.5648 
L 153.329898 107.715285 
L 155.010478 109.83712 
L 156.896594 112.334957 
L 156.982922 112.4352 
L 157.003544 112.463475 
L 157.015518 112.481463 
L 159.16519 115.03328 
L 160.89106 117.170372 
L 164.182804 121.3056 
L 164.888568 122.16168 
L 166.096327 123.644713 
L 168.534813 126.534953 
L 169.395221 127.57792 
L 170.423624 128.867274 
L 171.083421 129.624028 
L 171.592138 130.176 
L 172.030684 130.755273 
L 173.793778 132.77408 
L 176.316484 135.7484 
L 179.042611 139.0464 
L 180.681211 140.952229 
L 183.293887 144.052554 
L 184.093031 144.967462 
L 184.38981 145.31872 
L 184.760261 145.767075 
L 185.874128 147.017593 
L 186.721685 147.9168 
L 187.458189 148.841919 
L 188.948573 150.51488 
L 192.017472 154.024458 
L 194.346508 156.7872 
L 196.616191 159.366217 
L 199.777891 163.05952 
L 201.078285 164.513798 
L 202.163035 165.6576 
L 202.776636 166.379788 
L 203.117781 166.82322 
L 204.395739 168.25568 
L 207.84603 172.160721 
L 209.840672 174.528 
L 212.598922 177.653879 
L 215.279097 180.80032 
L 215.451735 180.974004 
L 217.641507 183.3984 
L 218.383351 184.265249 
L 218.793356 184.797267 
L 219.842045 185.99648 
L 223.634259 190.341178 
L 225.220383 192.2688 
L 228.524638 196.092376 
L 230.551187 198.54112 
L 230.896549 198.899656 
L 232.842788 201.1392 
L 234.242541 202.874073 
L 234.96377 203.73728 
L 239.193449 208.772623 
L 240.160322 210.0096 
L 244.271592 215.003797 
L 245.270336 216.28192 
L 245.870784 216.94213 
L 247.444392 218.88 
L 249.203815 221.172344 
L 249.440255 221.47808 
L 254.307235 227.692151 
L 254.349018 227.7504 
L 254.813815 228.363772 
L 259.151459 234.02272 
L 259.367652 234.29972 
L 261.150738 236.6208 
L 262.611883 238.695619 
L 263.015939 239.21888 
L 264.154548 240.713992 
L 267.561412 245.4912 
L 268.865343 247.220606 
L 271.956157 251.76352 
L 272.971394 253.214184 
L 273.291498 253.654592 
L 273.731878 254.3616 
L 274.325876 255.325392 
L 275.128511 256.488144 
L 275.458929 256.95968 
L 275.772076 257.392833 
L 277.115836 259.468949 
L 278.926954 262.203635 
L 279.555446 263.232 
L 282.497366 267.763889 
L 283.488095 269.50432 
L 284.440772 271.107353 
L 285.066528 272.1024 
L 285.294068 272.434779 
L 285.421843 272.652133 
L 286.614805 274.70048 
L 288.916708 278.470211 
L 290.239488 280.9728 
L 292.927429 285.735465 
L 293.699407 287.24512 
L 293.867406 287.620129 
L 295.04084 289.8432 
L 296.009105 291.534596 
L 296.436112 292.44128 
L 296.828393 293.156045 
L 299.57192 298.7136 
L 300.765183 300.96795 
L 302.530093 304.98592 
L 303.61162 307.225769 
L 303.751993 307.584 
L 310.91712 307.584 
L 319.01184 307.584 
L 327.10656 307.584 
L 335.20128 307.584 
L 343.296 307.584 
L 343.296 298.7136 
L 343.296 289.8432 
L 343.296 280.9728 
L 343.296 272.1024 
L 343.296 263.232 
L 343.296 254.3616 
L 343.296 245.4912 
L 343.296 236.6208 
L 343.296 227.7504 
L 343.296 218.88 
L 343.296 210.0096 
L 343.296 201.1392 
L 343.296 192.2688 
L 343.296 183.3984 
L 343.296 174.528 
L 343.296 165.6576 
L 343.296 156.7872 
L 343.296 147.9168 
L 343.296 139.0464 
L 343.296 130.176 
L 343.296 121.3056 
L 343.296 112.4352 
L 343.296 103.5648 
L 343.296 94.6944 
L 343.296 85.824 
L 343.296 76.9536 
L 343.296 68.0832 
L 343.296 59.2128 
L 343.296 50.3424 
L 343.296 41.472 
L 335.20128 41.472 
L 327.10656 41.472 
L 319.01184 41.472 
L 310.91712 41.472 
L 302.8224 41.472 
L 294.72768 41.472 
L 286.63296 41.472 
L 278.53824 41.472 
L 270.44352 41.472 
L 262.3488 41.472 
L 254.25408 41.472 
L 246.15936 41.472 
L 238.06464 41.472 
L 229.96992 41.472 
L 221.8752 41.472 
L 213.78048 41.472 
L 205.68576 41.472 
L 197.59104 41.472 
L 189.49632 41.472 
L 181.4016 41.472 
L 173.30688 41.472 
L 165.21216 41.472 
L 157.11744 41.472 
L 149.02272 41.472 
L 140.928 41.472 
L 132.83328 41.472 
L 124.73856 41.472 
L 116.64384 41.472 
L 108.54912 41.472 
" clip-path="url(#pde4026ba29)" style="fill: #0000b6"/>
   </g>
   <g id="PathCollection_12">
    <path d="M 303.751993 307.584 
L 303.61162 307.225769 
L 302.530093 304.98592 
L 300.765183 300.96795 
L 299.57192 298.7136 
L 296.828393 293.156045 
L 296.436112 292.44128 
L 296.009105 291.534596 
L 295.04084 289.8432 
L 293.867406 287.620129 
L 293.699407 287.24512 
L 292.927429 285.735465 
L 290.239488 280.9728 
L 288.916708 278.470211 
L 286.614805 274.70048 
L 285.421843 272.652133 
L 285.294068 272.434779 
L 285.066528 272.1024 
L 284.440772 271.107353 
L 283.488095 269.50432 
L 282.497366 267.763889 
L 279.555446 263.232 
L 278.926954 262.203635 
L 277.115836 259.468949 
L 275.772076 257.392833 
L 275.458929 256.95968 
L 275.128511 256.488144 
L 274.325876 255.325392 
L 273.731878 254.3616 
L 273.291498 253.654592 
L 272.971394 253.214184 
L 271.956157 251.76352 
L 268.865343 247.220606 
L 267.561412 245.4912 
L 264.154548 240.713992 
L 263.015939 239.21888 
L 262.611883 238.695619 
L 261.150738 236.6208 
L 259.367652 234.29972 
L 259.151459 234.02272 
L 254.813815 228.363772 
L 254.349018 227.7504 
L 254.307235 227.692151 
L 249.440255 221.47808 
L 249.203815 221.172344 
L 247.444392 218.88 
L 245.870784 216.94213 
L 245.270336 216.28192 
L 244.271592 215.003797 
L 240.160322 210.0096 
L 239.193449 208.772623 
L 234.96377 203.73728 
L 234.242541 202.874073 
L 232.842788 201.1392 
L 230.896549 198.899656 
L 230.551187 198.54112 
L 228.524638 196.092376 
L 225.220383 192.2688 
L 223.634259 190.341178 
L 219.842045 185.99648 
L 218.793356 184.797267 
L 218.383351 184.265249 
L 217.641507 183.3984 
L 215.451735 180.974004 
L 215.279097 180.80032 
L 212.598922 177.653879 
L 209.840672 174.528 
L 207.84603 172.160721 
L 204.395739 168.25568 
L 203.117781 166.82322 
L 202.776636 166.379788 
L 202.163035 165.6576 
L 201.078285 164.513798 
L 199.777891 163.05952 
L 196.616191 159.366217 
L 194.346508 156.7872 
L 192.017472 154.024458 
L 188.948573 150.51488 
L 187.458189 148.841919 
L 186.721685 147.9168 
L 185.874128 147.017593 
L 184.760261 145.767075 
L 184.38981 145.31872 
L 184.093031 144.967462 
L 183.293887 144.052554 
L 180.681211 140.952229 
L 179.042611 139.0464 
L 176.316484 135.7484 
L 173.793778 132.77408 
L 172.030684 130.755273 
L 171.592138 130.176 
L 171.083421 129.624028 
L 170.423624 128.867274 
L 169.395221 127.57792 
L 168.534813 126.534953 
L 166.096327 123.644713 
L 164.888568 122.16168 
L 164.182804 121.3056 
L 160.89106 117.170372 
L 159.16519 115.03328 
L 157.015518 112.481463 
L 157.003544 112.463475 
L 156.982922 112.4352 
L 156.896594 112.334957 
L 155.010478 109.83712 
L 153.329898 107.715285 
L 150.005946 103.5648 
L 149.344774 102.712789 
L 148.095144 101.110844 
L 145.86563 98.15402 
L 145.214708 97.29248 
L 144.393747 96.267522 
L 143.784442 95.40351 
L 143.316574 94.6944 
L 142.909406 94.202517 
L 142.64838 93.91351 
L 141.373816 92.09632 
L 138.592929 88.38283 
L 136.679516 85.824 
L 134.146695 82.349287 
L 132.114877 79.55168 
L 131.911965 79.191824 
L 130.52164 76.9536 
L 129.574771 75.753014 
L 128.959646 75.037625 
L 128.523815 74.35552 
L 124.402716 68.451226 
L 124.149882 68.0832 
L 122.480129 65.608354 
L 119.983355 61.81088 
L 119.74487 61.479465 
L 119.28909 60.565627 
L 118.545549 59.2128 
L 117.083113 57.312341 
L 116.578301 56.61472 
L 115.13482 54.334599 
L 112.653752 50.3424 
L 111.003012 47.653362 
L 108.877218 44.07008 
L 107.468841 41.962345 
L 107.184793 41.472 
L 100.4544 41.472 
L 100.4544 50.3424 
L 100.4544 59.2128 
L 100.4544 68.0832 
L 100.4544 76.9536 
L 100.4544 85.824 
L 100.4544 94.6944 
L 100.4544 103.5648 
L 100.4544 112.4352 
L 100.4544 121.3056 
L 100.4544 130.176 
L 100.4544 139.0464 
L 100.4544 142.298534 
L 102.8113 145.334049 
L 104.943693 147.9168 
L 105.903864 149.117497 
L 107.107404 150.51488 
L 110.499061 154.650405 
L 112.276356 156.7872 
L 115.299346 160.344134 
L 117.624056 163.05952 
L 118.616273 164.137746 
L 120.05938 165.6576 
L 121.308282 167.214623 
L 122.274335 168.25568 
L 126.337862 172.775444 
L 127.916075 174.528 
L 131.405956 178.304066 
L 133.71107 180.80032 
L 134.016977 181.095039 
L 136.294122 183.3984 
L 137.140379 184.338674 
L 137.620975 184.899478 
L 138.700547 185.99648 
L 142.789917 190.228464 
L 144.744284 192.2688 
L 147.837198 195.405164 
L 150.905257 198.54112 
L 151.008777 198.636654 
L 153.593062 201.1392 
L 154.656598 202.25619 
L 156.177088 203.73728 
L 159.692591 207.187684 
L 162.51693 210.0096 
L 164.489956 211.920232 
L 166.787463 214.177154 
L 168.236882 215.565432 
L 168.966434 216.28192 
L 170.155636 217.449632 
L 171.075475 218.326055 
L 171.673497 218.88 
L 172.184865 219.389289 
L 174.383055 221.47808 
L 176.873874 223.841597 
L 180.886972 227.7504 
L 181.266406 228.108062 
L 181.691273 228.516746 
L 185.516475 232.111615 
L 187.483458 234.02272 
L 189.961414 236.409691 
L 190.184667 236.6208 
L 190.784681 237.205594 
L 192.916031 239.21888 
L 194.158892 240.381835 
L 196.526105 242.673855 
L 198.094445 244.159415 
L 199.460283 245.4912 
L 202.809476 248.643106 
L 205.989696 251.76352 
L 207.723612 253.436607 
L 208.674614 254.3616 
L 209.658419 255.34781 
L 211.251183 256.887778 
L 211.32618 256.95968 
L 211.37103 257.001937 
L 211.457816 257.08726 
L 214.861977 260.370839 
L 217.724963 263.232 
L 219.933407 265.359866 
L 224.020639 269.50432 
L 225.146763 270.617419 
L 226.593502 272.1024 
L 228.086659 273.64439 
L 229.148947 274.70048 
L 231.461197 277.027541 
L 235.217212 280.9728 
L 236.698068 282.470324 
L 241.134134 287.24512 
L 241.941744 288.08336 
L 243.515998 289.8432 
L 245.545953 292.004986 
L 245.928671 292.44128 
L 247.776035 294.436594 
L 251.535599 298.7136 
L 252.896882 300.200852 
L 256.950001 304.98592 
L 257.822424 305.964308 
L 259.153914 307.584 
L 262.3488 307.584 
L 270.44352 307.584 
L 278.53824 307.584 
L 286.63296 307.584 
L 294.72768 307.584 
L 302.8224 307.584 
" clip-path="url(#pde4026ba29)" style="fill: #0018ff"/>
   </g>
   <g id="PathCollection_13">
    <path d="M 259.153914 307.584 
L 257.822424 305.964308 
L 256.950001 304.98592 
L 252.896882 300.200852 
L 251.535599 298.7136 
L 247.776035 294.436594 
L 245.928671 292.44128 
L 245.545953 292.004986 
L 243.515998 289.8432 
L 241.941744 288.08336 
L 241.134134 287.24512 
L 236.698068 282.470324 
L 235.217212 280.9728 
L 231.461197 277.027541 
L 229.148947 274.70048 
L 228.086659 273.64439 
L 226.593502 272.1024 
L 225.146763 270.617419 
L 224.020639 269.50432 
L 219.933407 265.359866 
L 217.724963 263.232 
L 214.861977 260.370839 
L 211.457816 257.08726 
L 211.37103 257.001937 
L 211.32618 256.95968 
L 211.251183 256.887778 
L 209.658419 255.34781 
L 208.674614 254.3616 
L 207.723612 253.436607 
L 205.989696 251.76352 
L 202.809476 248.643106 
L 199.460283 245.4912 
L 198.094445 244.159415 
L 196.526105 242.673855 
L 194.158892 240.381835 
L 192.916031 239.21888 
L 190.784681 237.205594 
L 190.184667 236.6208 
L 189.961414 236.409691 
L 187.483458 234.02272 
L 185.516475 232.111615 
L 181.691273 228.516746 
L 181.266406 228.108062 
L 180.886972 227.7504 
L 176.873874 223.841597 
L 174.383055 221.47808 
L 172.184865 219.389289 
L 171.673497 218.88 
L 171.075475 218.326055 
L 170.155636 217.449632 
L 168.966434 216.28192 
L 168.236882 215.565432 
L 166.787463 214.177154 
L 164.489956 211.920232 
L 162.51693 210.0096 
L 159.692591 207.187684 
L 156.177088 203.73728 
L 154.656598 202.25619 
L 153.593062 201.1392 
L 151.008777 198.636654 
L 150.905257 198.54112 
L 147.837198 195.405164 
L 144.744284 192.2688 
L 142.789917 190.228464 
L 138.700547 185.99648 
L 137.620975 184.899478 
L 137.140379 184.338674 
L 136.294122 183.3984 
L 134.016977 181.095039 
L 133.71107 180.80032 
L 131.405956 178.304066 
L 127.916075 174.528 
L 126.337862 172.775444 
L 122.274335 168.25568 
L 121.308282 167.214623 
L 120.05938 165.6576 
L 118.616273 164.137746 
L 117.624056 163.05952 
L 115.299346 160.344134 
L 112.276356 156.7872 
L 110.499061 154.650405 
L 107.107404 150.51488 
L 105.903864 149.117497 
L 104.943693 147.9168 
L 102.8113 145.334049 
L 100.4544 142.298534 
L 100.4544 147.9168 
L 100.4544 156.7872 
L 100.4544 165.6576 
L 100.4544 174.528 
L 100.4544 183.3984 
L 100.4544 192.2688 
L 100.4544 201.1392 
L 100.4544 208.332269 
L 100.903661 208.821054 
L 102.021513 210.0096 
L 105.349967 213.515313 
L 108.031468 216.28192 
L 109.911164 218.26176 
L 110.550171 218.88 
L 112.09993 220.491733 
L 113.083838 221.47808 
L 113.69908 222.106943 
L 115.00526 223.415443 
L 117.389021 225.778982 
L 119.39685 227.7504 
L 122.228679 230.500792 
L 125.898771 234.02272 
L 127.354706 235.433316 
L 127.818957 235.856094 
L 128.647591 236.6208 
L 130.00585 237.928401 
L 131.354905 239.21888 
L 134.203861 241.865251 
L 138.125285 245.4912 
L 139.652975 246.888404 
L 145.011713 251.76352 
L 145.557275 252.260345 
L 147.924537 254.3616 
L 150.562772 256.753425 
L 150.791319 256.95968 
L 151.242261 257.36008 
L 153.962265 259.774479 
L 157.450926 262.866557 
L 157.86093 263.232 
L 163.380112 268.078786 
L 164.995918 269.50432 
L 165.845953 270.25023 
L 167.96473 272.1024 
L 169.150587 273.134197 
L 169.794381 273.696743 
L 170.937756 274.70048 
L 175.45231 278.621783 
L 178.129797 280.9728 
L 180.594458 283.108139 
L 183.004644 285.213744 
L 184.463801 286.487562 
L 185.316177 287.24512 
L 186.989648 288.705407 
L 188.283523 289.8432 
L 188.704362 290.202674 
L 191.236539 292.44128 
L 193.458682 294.371543 
L 197.196743 297.670466 
L 197.787766 298.193149 
L 198.366344 298.7136 
L 202.411577 302.301533 
L 205.367157 304.98592 
L 207.416402 306.798452 
L 208.273787 307.584 
L 213.78048 307.584 
L 221.8752 307.584 
L 229.96992 307.584 
L 238.06464 307.584 
L 246.15936 307.584 
L 254.25408 307.584 
" clip-path="url(#pde4026ba29)" style="fill: #0080ff"/>
   </g>
   <g id="PathCollection_14">
    <path d="M 208.273787 307.584 
L 207.416402 306.798452 
L 205.367157 304.98592 
L 202.411577 302.301533 
L 198.366344 298.7136 
L 197.787766 298.193149 
L 197.196743 297.670466 
L 193.458682 294.371543 
L 191.236539 292.44128 
L 188.704362 290.202674 
L 188.283523 289.8432 
L 186.989648 288.705407 
L 185.316177 287.24512 
L 184.463801 286.487562 
L 183.004644 285.213744 
L 180.594458 283.108139 
L 178.129797 280.9728 
L 175.45231 278.621783 
L 170.937756 274.70048 
L 169.794381 273.696743 
L 169.150587 273.134197 
L 167.96473 272.1024 
L 165.845953 270.25023 
L 164.995918 269.50432 
L 163.380112 268.078786 
L 157.86093 263.232 
L 157.450926 262.866557 
L 153.962265 259.774479 
L 151.242261 257.36008 
L 150.791319 256.95968 
L 150.562772 256.753425 
L 147.924537 254.3616 
L 145.557275 252.260345 
L 145.011713 251.76352 
L 139.652975 246.888404 
L 138.125285 245.4912 
L 134.203861 241.865251 
L 131.354905 239.21888 
L 130.00585 237.928401 
L 128.647591 236.6208 
L 127.818957 235.856094 
L 127.354706 235.433316 
L 125.898771 234.02272 
L 122.228679 230.500792 
L 119.39685 227.7504 
L 117.389021 225.778982 
L 115.00526 223.415443 
L 113.69908 222.106943 
L 113.083838 221.47808 
L 112.09993 220.491733 
L 110.550171 218.88 
L 109.911164 218.26176 
L 108.031468 216.28192 
L 105.349967 213.515313 
L 102.021513 210.0096 
L 100.903661 208.821054 
L 100.4544 208.332269 
L 100.4544 210.0096 
L 100.4544 218.88 
L 100.4544 227.7504 
L 100.4544 236.6208 
L 100.4544 245.4912 
L 100.4544 254.3616 
L 100.4544 263.232 
L 100.4544 263.664386 
L 100.71041 263.909289 
L 104.532369 267.633658 
L 106.528155 269.50432 
L 109.036833 271.881024 
L 109.276803 272.1024 
L 109.973977 272.749151 
L 112.057329 274.70048 
L 113.245211 275.826704 
L 115.460103 277.841158 
L 117.214847 279.46217 
L 118.892219 280.9728 
L 122.077059 283.88934 
L 125.871914 287.24512 
L 127.423571 288.624458 
L 127.899488 289.058502 
L 128.794722 289.8432 
L 130.438473 291.258199 
L 131.780888 292.44128 
L 134.347589 294.707411 
L 138.994178 298.7136 
L 140.065978 299.658225 
L 146.313925 304.98592 
L 146.431215 305.086059 
L 147.818834 306.264751 
L 149.172434 307.41994 
L 149.364706 307.584 
L 157.11744 307.584 
L 165.21216 307.584 
L 173.30688 307.584 
L 181.4016 307.584 
L 189.49632 307.584 
L 197.59104 307.584 
L 205.68576 307.584 
" clip-path="url(#pde4026ba29)" style="fill: #00e4f8"/>
   </g>
   <g id="PathCollection_15">
    <path d="M 149.364706 307.584 
L 149.172434 307.41994 
L 147.818834 306.264751 
L 146.431215 305.086059 
L 146.313925 304.98592 
L 140.065978 299.658225 
L 138.994178 298.7136 
L 134.347589 294.707411 
L 131.780888 292.44128 
L 130.438473 291.258199 
L 128.794722 289.8432 
L 127.899488 289.058502 
L 127.423571 288.624458 
L 125.871914 287.24512 
L 122.077059 283.88934 
L 118.892219 280.9728 
L 117.214847 279.46217 
L 115.460103 277.841158 
L 113.245211 275.826704 
L 112.057329 274.70048 
L 109.973977 272.749151 
L 109.276803 272.1024 
L 109.036833 271.881024 
L 106.528155 269.50432 
L 104.532369 267.633658 
L 100.71041 263.909289 
L 100.4544 263.664386 
L 100.4544 272.1024 
L 100.4544 280.9728 
L 100.4544 289.8432 
L 100.4544 298.7136 
L 100.4544 307.584 
L 108.54912 307.584 
L 116.64384 307.584 
L 124.73856 307.584 
L 132.83328 307.584 
L 140.928 307.584 
L 149.02272 307.584 
" clip-path="url(#pde4026ba29)" style="fill: #53ffa4"/>
   </g>
   <g id="PathCollection_16">
    <path clip-path="url(#pde4026ba29)" style="fill: #a4ff53"/>
   </g>
   <g id="PathCollection_17">
    <path clip-path="url(#pde4026ba29)" style="fill: #f8f500"/>
   </g>
   <g id="PathCollection_18">
    <path clip-path="url(#pde4026ba29)" style="fill: #ff9400"/>
   </g>
   <g id="PathCollection_19">
    <path clip-path="url(#pde4026ba29)" style="fill: #ff3800"/>
   </g>
   <g id="PathCollection_20">
    <path clip-path="url(#pde4026ba29)" style="fill: #b60000"/>
   </g>
   <g id="matplotlib.axis_1">
    <g id="xtick_1">
     <g id="line2d_1">
      <defs>
       <path id="m133079d79c" d="M 0 0 
L 0 3.5 
" style="stroke: #000000; stroke-width: 0.8"/>
      </defs>
      <g>
       <use xlink:href="#m133079d79c" x="57.6" y="307.584" style="stroke: #000000; stroke-width: 0.8"/>
      </g>
     </g>
     <g id="text_1">
      <!-- 0.0 -->
      <g transform="translate(51.26875 321.385562) scale(0.1 -0.1)">
       <defs>
        <path id="Calibri-30" d="M 3022 2031 
Q 3022 1566 2948 1181 
Q 2875 797 2704 520 
Q 2534 244 2259 92 
Q 1984 -59 1581 -59 
Q 1200 -59 939 77 
Q 678 213 518 477 
Q 359 741 292 1127 
Q 225 1513 225 2013 
Q 225 2475 300 2861 
Q 375 3247 544 3523 
Q 713 3800 988 3951 
Q 1263 4103 1663 4103 
Q 2047 4103 2308 3967 
Q 2569 3831 2728 3567 
Q 2888 3303 2955 2917 
Q 3022 2531 3022 2031 
z
M 2472 1994 
Q 2472 2297 2450 2537 
Q 2428 2778 2386 2962 
Q 2344 3147 2276 3280 
Q 2209 3413 2115 3498 
Q 2022 3584 1901 3623 
Q 1781 3663 1631 3663 
Q 1366 3663 1200 3538 
Q 1034 3413 939 3194 
Q 844 2975 809 2681 
Q 775 2388 775 2050 
Q 775 1597 822 1280 
Q 869 963 970 763 
Q 1072 563 1230 472 
Q 1388 381 1613 381 
Q 1788 381 1920 437 
Q 2053 494 2148 598 
Q 2244 703 2306 850 
Q 2369 997 2406 1175 
Q 2444 1353 2458 1561 
Q 2472 1769 2472 1994 
z
" transform="scale(0.015625)"/>
        <path id="Calibri-2e" d="M 1144 341 
Q 1144 119 1070 45 
Q 997 -28 803 -28 
Q 616 -28 544 44 
Q 472 116 472 331 
Q 472 553 545 626 
Q 619 700 813 700 
Q 1000 700 1072 628 
Q 1144 556 1144 341 
z
" transform="scale(0.015625)"/>
       </defs>
       <use xlink:href="#Calibri-30"/>
       <use xlink:href="#Calibri-2e" x="50.683594"/>
       <use xlink:href="#Calibri-30" x="75.927734"/>
      </g>
     </g>
    </g>
    <g id="xtick_2">
     <g id="line2d_2">
      <g>
       <use xlink:href="#m133079d79c" x="86.1696" y="307.584" style="stroke: #000000; stroke-width: 0.8"/>
      </g>
     </g>
     <g id="text_2">
      <!-- 0.1 -->
      <g transform="translate(79.83835 321.385562) scale(0.1 -0.1)">
       <defs>
        <path id="Calibri-31" d="M 2897 213 
Q 2897 153 2887 112 
Q 2878 72 2862 47 
Q 2847 22 2826 11 
Q 2806 0 2784 0 
L 672 0 
Q 650 0 631 11 
Q 613 22 595 47 
Q 578 72 568 112 
Q 559 153 559 213 
Q 559 269 568 309 
Q 578 350 592 376 
Q 606 403 626 417 
Q 647 431 672 431 
L 1516 431 
L 1516 3506 
L 734 3041 
Q 675 3009 639 3003 
Q 603 2997 581 3017 
Q 559 3038 551 3084 
Q 544 3131 544 3203 
Q 544 3256 548 3293 
Q 553 3331 562 3356 
Q 572 3381 589 3400 
Q 606 3419 634 3438 
L 1566 4034 
Q 1578 4044 1597 4050 
Q 1616 4056 1644 4062 
Q 1672 4069 1709 4070 
Q 1747 4072 1803 4072 
Q 1878 4072 1928 4065 
Q 1978 4059 2006 4048 
Q 2034 4038 2043 4020 
Q 2053 4003 2053 3984 
L 2053 431 
L 2784 431 
Q 2809 431 2831 417 
Q 2853 403 2867 376 
Q 2881 350 2889 309 
Q 2897 269 2897 213 
z
" transform="scale(0.015625)"/>
       </defs>
       <use xlink:href="#Calibri-30"/>
       <use xlink:href="#Calibri-2e" x="50.683594"/>
       <use xlink:href="#Calibri-31" x="75.927734"/>
      </g>
     </g>
    </g>
    <g id="xtick_3">
     <g id="line2d_3">
      <g>
       <use xlink:href="#m133079d79c" x="114.7392" y="307.584" style="stroke: #000000; stroke-width: 0.8"/>
      </g>
     </g>
     <g id="text_3">
      <!-- 0.2 -->
      <g transform="translate(108.40795 321.385562) scale(0.1 -0.1)">
       <defs>
        <path id="Calibri-32" d="M 2888 231 
Q 2888 175 2880 131 
Q 2872 88 2858 58 
Q 2844 28 2820 14 
Q 2797 0 2769 0 
L 534 0 
Q 491 0 458 11 
Q 425 22 401 47 
Q 378 72 367 119 
Q 356 166 356 234 
Q 356 297 361 344 
Q 366 391 381 427 
Q 397 463 420 498 
Q 444 534 481 575 
L 1266 1406 
Q 1538 1694 1702 1922 
Q 1866 2150 1955 2337 
Q 2044 2525 2072 2678 
Q 2100 2831 2100 2966 
Q 2100 3100 2056 3220 
Q 2013 3341 1930 3431 
Q 1847 3522 1722 3575 
Q 1597 3628 1434 3628 
Q 1244 3628 1092 3575 
Q 941 3522 827 3459 
Q 713 3397 636 3344 
Q 559 3291 522 3291 
Q 500 3291 483 3303 
Q 466 3316 455 3344 
Q 444 3372 437 3419 
Q 431 3466 431 3531 
Q 431 3578 434 3612 
Q 438 3647 445 3672 
Q 453 3697 465 3719 
Q 478 3741 515 3773 
Q 553 3806 645 3862 
Q 738 3919 877 3973 
Q 1016 4028 1183 4065 
Q 1350 4103 1534 4103 
Q 1828 4103 2048 4020 
Q 2269 3938 2414 3794 
Q 2559 3650 2631 3459 
Q 2703 3269 2703 3053 
Q 2703 2859 2668 2667 
Q 2634 2475 2523 2251 
Q 2413 2028 2203 1754 
Q 1994 1481 1647 1125 
L 1006 456 
L 2766 456 
Q 2791 456 2814 442 
Q 2838 428 2855 400 
Q 2872 372 2880 330 
Q 2888 288 2888 231 
z
" transform="scale(0.015625)"/>
       </defs>
       <use xlink:href="#Calibri-30"/>
       <use xlink:href="#Calibri-2e" x="50.683594"/>
       <use xlink:href="#Calibri-32" x="75.927734"/>
      </g>
     </g>
    </g>
    <g id="xtick_4">
     <g id="line2d_4">
      <g>
       <use xlink:href="#m133079d79c" x="143.3088" y="307.584" style="stroke: #000000; stroke-width: 0.8"/>
      </g>
     </g>
     <g id="text_4">
      <!-- 0.3 -->
      <g transform="translate(136.97755 321.385562) scale(0.1 -0.1)">
       <defs>
        <path id="Calibri-33" d="M 2856 1156 
Q 2856 878 2759 654 
Q 2663 431 2481 272 
Q 2300 113 2034 27 
Q 1769 -59 1434 -59 
Q 1231 -59 1054 -26 
Q 878 6 740 51 
Q 603 97 512 145 
Q 422 194 398 216 
Q 375 238 362 259 
Q 350 281 340 312 
Q 331 344 326 389 
Q 322 434 322 500 
Q 322 613 344 656 
Q 366 700 406 700 
Q 434 700 517 650 
Q 600 600 729 542 
Q 859 484 1032 434 
Q 1206 384 1419 384 
Q 1625 384 1781 437 
Q 1938 491 2044 587 
Q 2150 684 2203 817 
Q 2256 950 2256 1106 
Q 2256 1278 2189 1415 
Q 2122 1553 1992 1653 
Q 1863 1753 1673 1806 
Q 1484 1859 1244 1859 
L 859 1859 
Q 834 1859 811 1870 
Q 788 1881 770 1906 
Q 753 1931 742 1972 
Q 731 2013 731 2078 
Q 731 2138 740 2177 
Q 750 2216 767 2239 
Q 784 2263 806 2273 
Q 828 2284 856 2284 
L 1209 2284 
Q 1416 2284 1580 2337 
Q 1744 2391 1858 2491 
Q 1972 2591 2033 2730 
Q 2094 2869 2094 3041 
Q 2094 3166 2053 3280 
Q 2013 3394 1931 3478 
Q 1850 3563 1723 3611 
Q 1597 3659 1431 3659 
Q 1250 3659 1098 3604 
Q 947 3550 828 3487 
Q 709 3425 631 3370 
Q 553 3316 522 3316 
Q 500 3316 483 3323 
Q 466 3331 455 3354 
Q 444 3378 439 3420 
Q 434 3463 434 3531 
Q 434 3578 437 3614 
Q 441 3650 450 3676 
Q 459 3703 471 3725 
Q 484 3747 514 3776 
Q 544 3806 634 3862 
Q 725 3919 858 3973 
Q 991 4028 1164 4065 
Q 1338 4103 1538 4103 
Q 1819 4103 2031 4031 
Q 2244 3959 2386 3828 
Q 2528 3697 2598 3514 
Q 2669 3331 2669 3109 
Q 2669 2919 2619 2755 
Q 2569 2591 2472 2464 
Q 2375 2338 2234 2248 
Q 2094 2159 1909 2125 
L 1909 2119 
Q 2119 2097 2292 2014 
Q 2466 1931 2591 1806 
Q 2716 1681 2786 1514 
Q 2856 1347 2856 1156 
z
" transform="scale(0.015625)"/>
       </defs>
       <use xlink:href="#Calibri-30"/>
       <use xlink:href="#Calibri-2e" x="50.683594"/>
       <use xlink:href="#Calibri-33" x="75.927734"/>
      </g>
     </g>
    </g>
    <g id="xtick_5">
     <g id="line2d_5">
      <g>
       <use xlink:href="#m133079d79c" x="171.8784" y="307.584" style="stroke: #000000; stroke-width: 0.8"/>
      </g>
     </g>
     <g id="text_5">
      <!-- 0.4 -->
      <g transform="translate(165.54715 321.385562) scale(0.1 -0.1)">
       <defs>
        <path id="Calibri-34" d="M 3059 1150 
Q 3059 1047 3028 987 
Q 2997 928 2941 928 
L 2484 928 
L 2484 78 
Q 2484 53 2471 36 
Q 2459 19 2428 6 
Q 2397 -6 2347 -12 
Q 2297 -19 2219 -19 
Q 2144 -19 2094 -12 
Q 2044 -6 2014 6 
Q 1984 19 1973 36 
Q 1963 53 1963 78 
L 1963 928 
L 294 928 
Q 256 928 231 937 
Q 206 947 186 972 
Q 166 997 158 1044 
Q 150 1091 150 1166 
Q 150 1225 153 1272 
Q 156 1319 165 1358 
Q 175 1397 190 1433 
Q 206 1469 228 1509 
L 1684 3966 
Q 1700 3991 1729 4009 
Q 1759 4028 1806 4040 
Q 1853 4053 1922 4058 
Q 1991 4063 2084 4063 
Q 2188 4063 2264 4055 
Q 2341 4047 2387 4034 
Q 2434 4022 2459 4001 
Q 2484 3981 2484 3953 
L 2484 1372 
L 2941 1372 
Q 2994 1372 3026 1317 
Q 3059 1263 3059 1150 
z
M 1963 3591 
L 1956 3591 
L 641 1372 
L 1963 1372 
L 1963 3591 
z
" transform="scale(0.015625)"/>
       </defs>
       <use xlink:href="#Calibri-30"/>
       <use xlink:href="#Calibri-2e" x="50.683594"/>
       <use xlink:href="#Calibri-34" x="75.927734"/>
      </g>
     </g>
    </g>
    <g id="xtick_6">
     <g id="line2d_6">
      <g>
       <use xlink:href="#m133079d79c" x="200.448" y="307.584" style="stroke: #000000; stroke-width: 0.8"/>
      </g>
     </g>
     <g id="text_6">
      <!-- 0.5 -->
      <g transform="translate(194.11675 321.385562) scale(0.1 -0.1)">
       <defs>
        <path id="Calibri-35" d="M 2869 1300 
Q 2869 975 2759 722 
Q 2650 469 2450 295 
Q 2250 122 1973 31 
Q 1697 -59 1359 -59 
Q 1172 -59 1003 -32 
Q 834 -6 703 33 
Q 572 72 487 109 
Q 403 147 379 169 
Q 356 191 347 209 
Q 338 228 330 254 
Q 322 281 319 322 
Q 316 363 316 419 
Q 316 472 320 514 
Q 325 556 337 582 
Q 350 609 367 621 
Q 384 634 406 634 
Q 438 634 503 595 
Q 569 556 680 511 
Q 791 466 955 425 
Q 1119 384 1344 384 
Q 1553 384 1728 434 
Q 1903 484 2029 590 
Q 2156 697 2228 858 
Q 2300 1019 2300 1250 
Q 2300 1444 2239 1592 
Q 2178 1741 2051 1839 
Q 1925 1938 1731 1986 
Q 1538 2034 1269 2034 
Q 1078 2034 940 2015 
Q 803 1997 684 1997 
Q 597 1997 559 2037 
Q 522 2078 522 2194 
L 522 3841 
Q 522 3944 570 3994 
Q 619 4044 709 4044 
L 2500 4044 
Q 2525 4044 2548 4030 
Q 2572 4016 2587 3987 
Q 2603 3959 2611 3915 
Q 2619 3872 2619 3813 
Q 2619 3700 2587 3637 
Q 2556 3575 2500 3575 
L 991 3575 
L 991 2441 
Q 1100 2456 1214 2459 
Q 1328 2463 1478 2463 
Q 1825 2463 2084 2380 
Q 2344 2297 2517 2145 
Q 2691 1994 2780 1778 
Q 2869 1563 2869 1300 
z
" transform="scale(0.015625)"/>
       </defs>
       <use xlink:href="#Calibri-30"/>
       <use xlink:href="#Calibri-2e" x="50.683594"/>
       <use xlink:href="#Calibri-35" x="75.927734"/>
      </g>
     </g>
    </g>
    <g id="xtick_7">
     <g id="line2d_7">
      <g>
       <use xlink:href="#m133079d79c" x="229.0176" y="307.584" style="stroke: #000000; stroke-width: 0.8"/>
      </g>
     </g>
     <g id="text_7">
      <!-- 0.6 -->
      <g transform="translate(222.68635 321.385562) scale(0.1 -0.1)">
       <defs>
        <path id="Calibri-36" d="M 2991 1309 
Q 2991 1044 2909 795 
Q 2828 547 2659 358 
Q 2491 169 2231 55 
Q 1972 -59 1619 -59 
Q 1366 -59 1172 3 
Q 978 66 834 181 
Q 691 297 595 465 
Q 500 634 442 850 
Q 384 1066 359 1322 
Q 334 1578 334 1872 
Q 334 2131 362 2397 
Q 391 2663 462 2909 
Q 534 3156 657 3373 
Q 781 3591 967 3752 
Q 1153 3913 1412 4006 
Q 1672 4100 2016 4100 
Q 2131 4100 2250 4086 
Q 2369 4072 2469 4048 
Q 2569 4025 2637 3997 
Q 2706 3969 2728 3951 
Q 2750 3934 2761 3914 
Q 2772 3894 2778 3870 
Q 2784 3847 2787 3817 
Q 2791 3788 2791 3744 
Q 2791 3688 2789 3647 
Q 2788 3606 2777 3581 
Q 2766 3556 2748 3543 
Q 2731 3531 2703 3531 
Q 2669 3531 2609 3553 
Q 2550 3575 2465 3601 
Q 2381 3628 2261 3650 
Q 2141 3672 1981 3672 
Q 1691 3672 1481 3553 
Q 1272 3434 1139 3234 
Q 1006 3034 942 2770 
Q 878 2506 869 2219 
Q 950 2266 1051 2312 
Q 1153 2359 1273 2396 
Q 1394 2434 1528 2457 
Q 1663 2481 1816 2481 
Q 2144 2481 2369 2392 
Q 2594 2303 2733 2145 
Q 2872 1988 2931 1773 
Q 2991 1559 2991 1309 
z
M 2447 1259 
Q 2447 1441 2411 1589 
Q 2375 1738 2290 1841 
Q 2206 1944 2065 2000 
Q 1925 2056 1719 2056 
Q 1603 2056 1487 2036 
Q 1372 2016 1264 1980 
Q 1156 1944 1057 1895 
Q 959 1847 878 1791 
Q 878 1388 929 1116 
Q 981 844 1079 680 
Q 1178 516 1325 445 
Q 1472 375 1669 375 
Q 1869 375 2016 450 
Q 2163 525 2259 651 
Q 2356 778 2401 936 
Q 2447 1094 2447 1259 
z
" transform="scale(0.015625)"/>
       </defs>
       <use xlink:href="#Calibri-30"/>
       <use xlink:href="#Calibri-2e" x="50.683594"/>
       <use xlink:href="#Calibri-36" x="75.927734"/>
      </g>
     </g>
    </g>
    <g id="xtick_8">
     <g id="line2d_8">
      <g>
       <use xlink:href="#m133079d79c" x="257.5872" y="307.584" style="stroke: #000000; stroke-width: 0.8"/>
      </g>
     </g>
     <g id="text_8">
      <!-- 0.7 -->
      <g transform="translate(251.25595 321.385562) scale(0.1 -0.1)">
       <defs>
        <path id="Calibri-37" d="M 2947 3813 
Q 2947 3756 2942 3711 
Q 2938 3666 2930 3623 
Q 2922 3581 2908 3542 
Q 2894 3503 2875 3459 
L 1419 103 
Q 1403 66 1379 42 
Q 1356 19 1320 5 
Q 1284 -9 1228 -14 
Q 1172 -19 1091 -19 
Q 984 -19 925 -9 
Q 866 0 839 20 
Q 813 41 816 70 
Q 819 100 838 141 
L 2369 3572 
L 428 3572 
Q 369 3572 339 3634 
Q 309 3697 309 3809 
Q 309 3869 317 3912 
Q 325 3956 340 3986 
Q 356 4016 378 4030 
Q 400 4044 428 4044 
L 2784 4044 
Q 2828 4044 2861 4034 
Q 2894 4025 2911 3997 
Q 2928 3969 2937 3925 
Q 2947 3881 2947 3813 
z
" transform="scale(0.015625)"/>
       </defs>
       <use xlink:href="#Calibri-30"/>
       <use xlink:href="#Calibri-2e" x="50.683594"/>
       <use xlink:href="#Calibri-37" x="75.927734"/>
      </g>
     </g>
    </g>
    <g id="xtick_9">
     <g id="line2d_9">
      <g>
       <use xlink:href="#m133079d79c" x="286.1568" y="307.584" style="stroke: #000000; stroke-width: 0.8"/>
      </g>
     </g>
     <g id="text_9">
      <!-- 0.8 -->
      <g transform="translate(279.82555 321.385562) scale(0.1 -0.1)">
       <defs>
        <path id="Calibri-38" d="M 2981 1038 
Q 2981 775 2887 570 
Q 2794 366 2617 225 
Q 2441 84 2181 12 
Q 1922 -59 1588 -59 
Q 1275 -59 1028 6 
Q 781 72 609 200 
Q 438 328 347 515 
Q 256 703 256 944 
Q 256 1134 318 1293 
Q 381 1453 498 1587 
Q 616 1722 787 1839 
Q 959 1956 1175 2063 
Q 988 2159 844 2267 
Q 700 2375 600 2501 
Q 500 2628 448 2772 
Q 397 2916 397 3084 
Q 397 3297 473 3483 
Q 550 3669 704 3806 
Q 859 3944 1098 4023 
Q 1338 4103 1656 4103 
Q 1963 4103 2186 4029 
Q 2409 3956 2554 3829 
Q 2700 3703 2769 3531 
Q 2838 3359 2838 3163 
Q 2838 3003 2786 2856 
Q 2734 2709 2634 2578 
Q 2534 2447 2389 2333 
Q 2244 2219 2056 2119 
Q 2278 2009 2451 1893 
Q 2625 1778 2742 1645 
Q 2859 1513 2920 1364 
Q 2981 1216 2981 1038 
z
M 2306 3113 
Q 2306 3244 2261 3350 
Q 2216 3456 2128 3531 
Q 2041 3606 1911 3645 
Q 1781 3684 1616 3684 
Q 1278 3684 1104 3531 
Q 931 3378 931 3113 
Q 931 2991 973 2886 
Q 1016 2781 1105 2687 
Q 1194 2594 1330 2505 
Q 1466 2416 1653 2319 
Q 1969 2481 2137 2678 
Q 2306 2875 2306 3113 
z
M 2438 981 
Q 2438 1125 2384 1242 
Q 2331 1359 2223 1461 
Q 2116 1563 1955 1658 
Q 1794 1753 1581 1856 
Q 1384 1759 1236 1662 
Q 1088 1566 992 1462 
Q 897 1359 848 1245 
Q 800 1131 800 994 
Q 800 691 1008 525 
Q 1216 359 1628 359 
Q 2028 359 2233 526 
Q 2438 694 2438 981 
z
" transform="scale(0.015625)"/>
       </defs>
       <use xlink:href="#Calibri-30"/>
       <use xlink:href="#Calibri-2e" x="50.683594"/>
       <use xlink:href="#Calibri-38" x="75.927734"/>
      </g>
     </g>
    </g>
    <g id="xtick_10">
     <g id="line2d_10">
      <g>
       <use xlink:href="#m133079d79c" x="314.7264" y="307.584" style="stroke: #000000; stroke-width: 0.8"/>
      </g>
     </g>
     <g id="text_10">
      <!-- 0.9 -->
      <g transform="translate(308.39515 321.385562) scale(0.1 -0.1)">
       <defs>
        <path id="Calibri-39" d="M 2919 2181 
Q 2919 1919 2887 1650 
Q 2856 1381 2781 1132 
Q 2706 884 2579 667 
Q 2453 450 2261 287 
Q 2069 125 1805 33 
Q 1541 -59 1191 -59 
Q 1056 -59 929 -42 
Q 803 -25 701 0 
Q 600 25 531 53 
Q 463 81 431 109 
Q 400 138 386 186 
Q 372 234 372 316 
Q 372 384 376 425 
Q 381 466 390 487 
Q 400 509 417 517 
Q 434 525 459 525 
Q 494 525 556 501 
Q 619 478 714 450 
Q 809 422 937 398 
Q 1066 375 1225 375 
Q 1528 375 1745 492 
Q 1963 609 2100 806 
Q 2238 1003 2306 1262 
Q 2375 1522 2381 1809 
Q 2216 1713 1984 1638 
Q 1753 1563 1453 1563 
Q 1116 1563 886 1655 
Q 656 1747 517 1906 
Q 378 2066 317 2284 
Q 256 2503 256 2763 
Q 256 3031 334 3273 
Q 413 3516 578 3700 
Q 744 3884 1000 3993 
Q 1256 4103 1613 4103 
Q 1866 4103 2061 4039 
Q 2256 3975 2400 3854 
Q 2544 3734 2644 3564 
Q 2744 3394 2805 3178 
Q 2866 2963 2892 2711 
Q 2919 2459 2919 2181 
z
M 2372 2241 
Q 2372 2641 2319 2914 
Q 2266 3188 2162 3356 
Q 2059 3525 1909 3600 
Q 1759 3675 1563 3675 
Q 1359 3675 1215 3601 
Q 1072 3528 980 3404 
Q 888 3281 844 3125 
Q 800 2969 800 2803 
Q 800 2619 839 2466 
Q 878 2313 965 2206 
Q 1053 2100 1193 2042 
Q 1334 1984 1541 1984 
Q 1775 1984 1994 2054 
Q 2213 2125 2372 2241 
z
" transform="scale(0.015625)"/>
       </defs>
       <use xlink:href="#Calibri-30"/>
       <use xlink:href="#Calibri-2e" x="50.683594"/>
       <use xlink:href="#Calibri-39" x="75.927734"/>
      </g>
     </g>
    </g>
    <g id="xtick_11">
     <g id="line2d_11">
      <g>
       <use xlink:href="#m133079d79c" x="343.296" y="307.584" style="stroke: #000000; stroke-width: 0.8"/>
      </g>
     </g>
     <g id="text_11">
      <!-- 1.0 -->
      <g transform="translate(336.96475 321.385562) scale(0.1 -0.1)">
       <use xlink:href="#Calibri-31"/>
       <use xlink:href="#Calibri-2e" x="50.683594"/>
       <use xlink:href="#Calibri-30" x="75.927734"/>
      </g>
     </g>
    </g>
    <g id="text_12">
     <!-- $\mathit{p}$ (cm$^2$/cm$^2$) -->
     <g transform="translate(174.148 336.263687) scale(0.1 -0.1)">
      <defs>
       <path id="DejaVuSans-Oblique-70" d="M 3175 2156 
Q 3175 2616 2975 2859 
Q 2775 3103 2400 3103 
Q 2144 3103 1911 2972 
Q 1678 2841 1497 2591 
Q 1319 2344 1212 1994 
Q 1106 1644 1106 1300 
Q 1106 863 1306 627 
Q 1506 391 1875 391 
Q 2147 391 2380 519 
Q 2613 647 2778 891 
Q 2956 1147 3065 1494 
Q 3175 1841 3175 2156 
z
M 1394 2969 
Q 1625 3272 1939 3428 
Q 2253 3584 2638 3584 
Q 3175 3584 3472 3232 
Q 3769 2881 3769 2247 
Q 3769 1728 3584 1258 
Q 3400 788 3053 416 
Q 2822 169 2531 39 
Q 2241 -91 1919 -91 
Q 1547 -91 1294 64 
Q 1041 219 916 525 
L 556 -1331 
L -19 -1331 
L 922 3500 
L 1497 3500 
L 1394 2969 
z
" transform="scale(0.015625)"/>
       <path id="Calibri-20" transform="scale(0.015625)"/>
       <path id="Calibri-28" d="M 1547 4306 
Q 1250 3678 1104 3017 
Q 959 2356 959 1688 
Q 959 1016 1107 356 
Q 1256 -303 1541 -938 
Q 1556 -975 1557 -1001 
Q 1559 -1028 1537 -1045 
Q 1516 -1063 1470 -1070 
Q 1425 -1078 1347 -1078 
Q 1291 -1078 1250 -1075 
Q 1209 -1072 1179 -1062 
Q 1150 -1053 1131 -1040 
Q 1113 -1028 1103 -1013 
Q 934 -694 806 -367 
Q 678 -41 590 296 
Q 503 634 459 979 
Q 416 1325 416 1678 
Q 416 2031 464 2375 
Q 513 2719 602 3058 
Q 691 3397 819 3725 
Q 947 4053 1106 4375 
Q 1109 4388 1123 4397 
Q 1138 4406 1163 4415 
Q 1188 4425 1231 4429 
Q 1275 4434 1344 4434 
Q 1416 4434 1459 4425 
Q 1503 4416 1528 4400 
Q 1553 4384 1556 4359 
Q 1559 4334 1547 4306 
z
" transform="scale(0.015625)"/>
       <path id="Calibri-63" d="M 2500 506 
Q 2500 453 2497 414 
Q 2494 375 2486 348 
Q 2478 322 2467 301 
Q 2456 281 2417 242 
Q 2378 203 2284 145 
Q 2191 88 2073 42 
Q 1956 -3 1818 -31 
Q 1681 -59 1534 -59 
Q 1231 -59 997 41 
Q 763 141 605 333 
Q 447 525 364 804 
Q 281 1084 281 1450 
Q 281 1866 382 2164 
Q 484 2463 661 2653 
Q 838 2844 1077 2936 
Q 1316 3028 1594 3028 
Q 1728 3028 1854 3003 
Q 1981 2978 2087 2937 
Q 2194 2897 2276 2844 
Q 2359 2791 2396 2753 
Q 2434 2716 2448 2694 
Q 2463 2672 2472 2642 
Q 2481 2613 2484 2575 
Q 2488 2538 2488 2481 
Q 2488 2359 2459 2311 
Q 2431 2263 2391 2263 
Q 2344 2263 2283 2314 
Q 2222 2366 2128 2428 
Q 2034 2491 1901 2542 
Q 1769 2594 1588 2594 
Q 1216 2594 1017 2308 
Q 819 2022 819 1478 
Q 819 1206 870 1001 
Q 922 797 1022 659 
Q 1122 522 1267 455 
Q 1413 388 1600 388 
Q 1778 388 1912 444 
Q 2047 500 2145 567 
Q 2244 634 2311 689 
Q 2378 744 2416 744 
Q 2438 744 2453 731 
Q 2469 719 2480 689 
Q 2491 659 2495 614 
Q 2500 569 2500 506 
z
" transform="scale(0.015625)"/>
       <path id="Calibri-6d" d="M 4650 78 
Q 4650 53 4637 36 
Q 4625 19 4597 6 
Q 4569 -6 4519 -12 
Q 4469 -19 4394 -19 
Q 4316 -19 4266 -12 
Q 4216 -6 4186 6 
Q 4156 19 4143 36 
Q 4131 53 4131 78 
L 4131 1788 
Q 4131 1966 4100 2112 
Q 4069 2259 4000 2365 
Q 3931 2472 3825 2528 
Q 3719 2584 3575 2584 
Q 3397 2584 3217 2446 
Q 3038 2309 2822 2044 
L 2822 78 
Q 2822 53 2809 36 
Q 2797 19 2767 6 
Q 2738 -6 2688 -12 
Q 2638 -19 2563 -19 
Q 2491 -19 2439 -12 
Q 2388 -6 2358 6 
Q 2328 19 2317 36 
Q 2306 53 2306 78 
L 2306 1788 
Q 2306 1966 2272 2112 
Q 2238 2259 2169 2365 
Q 2100 2472 1995 2528 
Q 1891 2584 1747 2584 
Q 1569 2584 1387 2446 
Q 1206 2309 994 2044 
L 994 78 
Q 994 53 981 36 
Q 969 19 941 6 
Q 913 -6 863 -12 
Q 813 -19 734 -19 
Q 659 -19 609 -12 
Q 559 -6 529 6 
Q 500 19 489 36 
Q 478 53 478 78 
L 478 2891 
Q 478 2916 487 2933 
Q 497 2950 525 2964 
Q 553 2978 597 2983 
Q 641 2988 713 2988 
Q 781 2988 826 2983 
Q 872 2978 897 2964 
Q 922 2950 933 2933 
Q 944 2916 944 2891 
L 944 2519 
Q 1181 2784 1404 2907 
Q 1628 3031 1856 3031 
Q 2031 3031 2170 2990 
Q 2309 2950 2415 2876 
Q 2522 2803 2597 2701 
Q 2672 2600 2722 2475 
Q 2863 2628 2989 2734 
Q 3116 2841 3233 2906 
Q 3350 2972 3461 3001 
Q 3572 3031 3684 3031 
Q 3956 3031 4140 2936 
Q 4325 2841 4439 2681 
Q 4553 2522 4601 2308 
Q 4650 2094 4650 1856 
L 4650 78 
z
" transform="scale(0.015625)"/>
       <path id="DejaVuSans-32" d="M 1228 531 
L 3431 531 
L 3431 0 
L 469 0 
L 469 531 
Q 828 903 1448 1529 
Q 2069 2156 2228 2338 
Q 2531 2678 2651 2914 
Q 2772 3150 2772 3378 
Q 2772 3750 2511 3984 
Q 2250 4219 1831 4219 
Q 1534 4219 1204 4116 
Q 875 4013 500 3803 
L 500 4441 
Q 881 4594 1212 4672 
Q 1544 4750 1819 4750 
Q 2544 4750 2975 4387 
Q 3406 4025 3406 3419 
Q 3406 3131 3298 2873 
Q 3191 2616 2906 2266 
Q 2828 2175 2409 1742 
Q 1991 1309 1228 531 
z
" transform="scale(0.015625)"/>
       <path id="Calibri-2f" d="M 525 -753 
Q 513 -794 492 -817 
Q 472 -841 440 -853 
Q 409 -866 364 -872 
Q 319 -878 253 -878 
Q 175 -878 123 -867 
Q 72 -856 44 -836 
Q 16 -816 9 -786 
Q 3 -756 22 -716 
L 1913 4469 
Q 1925 4509 1945 4532 
Q 1966 4556 1995 4570 
Q 2025 4584 2072 4589 
Q 2119 4594 2184 4594 
Q 2263 4594 2313 4583 
Q 2363 4572 2391 4553 
Q 2419 4534 2425 4503 
Q 2431 4472 2416 4431 
L 525 -753 
z
" transform="scale(0.015625)"/>
       <path id="Calibri-29" d="M 1522 1678 
Q 1522 1325 1478 979 
Q 1434 634 1346 296 
Q 1259 -41 1132 -367 
Q 1006 -694 838 -1013 
Q 828 -1028 809 -1040 
Q 791 -1053 761 -1062 
Q 731 -1072 690 -1075 
Q 650 -1078 594 -1078 
Q 513 -1078 467 -1070 
Q 422 -1063 401 -1045 
Q 381 -1028 382 -1001 
Q 384 -975 400 -938 
Q 688 -306 834 355 
Q 981 1016 981 1688 
Q 981 2356 834 3017 
Q 688 3678 394 4306 
Q 381 4334 384 4359 
Q 388 4384 413 4400 
Q 438 4416 481 4425 
Q 525 4434 597 4434 
Q 663 4434 706 4429 
Q 750 4425 776 4415 
Q 803 4406 815 4397 
Q 828 4388 834 4375 
Q 1156 3734 1339 3057 
Q 1522 2381 1522 1678 
z
" transform="scale(0.015625)"/>
      </defs>
      <use xlink:href="#DejaVuSans-Oblique-70" transform="translate(0 0.765625)"/>
      <use xlink:href="#Calibri-20" transform="translate(63.476562 0.765625)"/>
      <use xlink:href="#Calibri-28" transform="translate(84.958984 0.765625)"/>
      <use xlink:href="#Calibri-63" transform="translate(115.28125 0.765625)"/>
      <use xlink:href="#Calibri-6d" transform="translate(157.566406 0.765625)"/>
      <use xlink:href="#DejaVuSans-32" transform="translate(238.40625 39.046875) scale(0.7)"/>
      <use xlink:href="#Calibri-2f" transform="translate(285.676758 0.765625)"/>
      <use xlink:href="#Calibri-63" transform="translate(324.299805 0.765625)"/>
      <use xlink:href="#Calibri-6d" transform="translate(366.584961 0.765625)"/>
      <use xlink:href="#DejaVuSans-32" transform="translate(447.424805 39.046875) scale(0.7)"/>
      <use xlink:href="#Calibri-29" transform="translate(494.695312 0.765625)"/>
     </g>
    </g>
   </g>
   <g id="matplotlib.axis_2">
    <g id="ytick_1">
     <g id="line2d_12">
      <defs>
       <path id="m229a4e2f83" d="M 0 0 
L -3.5 0 
" style="stroke: #000000; stroke-width: 0.8"/>
      </defs>
      <g>
       <use xlink:href="#m229a4e2f83" x="57.6" y="275.65056" style="stroke: #000000; stroke-width: 0.8"/>
      </g>
     </g>
     <g id="text_13">
      <!-- 25 -->
      <g transform="translate(40.4625 279.051341) scale(0.1 -0.1)">
       <use xlink:href="#Calibri-32"/>
       <use xlink:href="#Calibri-35" x="50.683594"/>
      </g>
     </g>
    </g>
    <g id="ytick_2">
     <g id="line2d_13">
      <g>
       <use xlink:href="#m229a4e2f83" x="57.6" y="242.38656" style="stroke: #000000; stroke-width: 0.8"/>
      </g>
     </g>
     <g id="text_14">
      <!-- 50 -->
      <g transform="translate(40.4625 245.787341) scale(0.1 -0.1)">
       <use xlink:href="#Calibri-35"/>
       <use xlink:href="#Calibri-30" x="50.683594"/>
      </g>
     </g>
    </g>
    <g id="ytick_3">
     <g id="line2d_14">
      <g>
       <use xlink:href="#m229a4e2f83" x="57.6" y="209.12256" style="stroke: #000000; stroke-width: 0.8"/>
      </g>
     </g>
     <g id="text_15">
      <!-- 75 -->
      <g transform="translate(40.4625 212.523341) scale(0.1 -0.1)">
       <use xlink:href="#Calibri-37"/>
       <use xlink:href="#Calibri-35" x="50.683594"/>
      </g>
     </g>
    </g>
    <g id="ytick_4">
     <g id="line2d_15">
      <g>
       <use xlink:href="#m229a4e2f83" x="57.6" y="175.85856" style="stroke: #000000; stroke-width: 0.8"/>
      </g>
     </g>
     <g id="text_16">
      <!-- 100 -->
      <g transform="translate(35.39375 179.259341) scale(0.1 -0.1)">
       <use xlink:href="#Calibri-31"/>
       <use xlink:href="#Calibri-30" x="50.683594"/>
       <use xlink:href="#Calibri-30" x="101.367188"/>
      </g>
     </g>
    </g>
    <g id="ytick_5">
     <g id="line2d_16">
      <g>
       <use xlink:href="#m229a4e2f83" x="57.6" y="142.59456" style="stroke: #000000; stroke-width: 0.8"/>
      </g>
     </g>
     <g id="text_17">
      <!-- 125 -->
      <g transform="translate(35.39375 145.995341) scale(0.1 -0.1)">
       <use xlink:href="#Calibri-31"/>
       <use xlink:href="#Calibri-32" x="50.683594"/>
       <use xlink:href="#Calibri-35" x="101.367188"/>
      </g>
     </g>
    </g>
    <g id="ytick_6">
     <g id="line2d_17">
      <g>
       <use xlink:href="#m229a4e2f83" x="57.6" y="109.33056" style="stroke: #000000; stroke-width: 0.8"/>
      </g>
     </g>
     <g id="text_18">
      <!-- 150 -->
      <g transform="translate(35.39375 112.731341) scale(0.1 -0.1)">
       <use xlink:href="#Calibri-31"/>
       <use xlink:href="#Calibri-35" x="50.683594"/>
       <use xlink:href="#Calibri-30" x="101.367188"/>
      </g>
     </g>
    </g>
    <g id="ytick_7">
     <g id="line2d_18">
      <g>
       <use xlink:href="#m229a4e2f83" x="57.6" y="76.06656" style="stroke: #000000; stroke-width: 0.8"/>
      </g>
     </g>
     <g id="text_19">
      <!-- 175 -->
      <g transform="translate(35.39375 79.467341) scale(0.1 -0.1)">
       <use xlink:href="#Calibri-31"/>
       <use xlink:href="#Calibri-37" x="50.683594"/>
       <use xlink:href="#Calibri-35" x="101.367188"/>
      </g>
     </g>
    </g>
    <g id="ytick_8">
     <g id="line2d_19">
      <g>
       <use xlink:href="#m229a4e2f83" x="57.6" y="42.80256" style="stroke: #000000; stroke-width: 0.8"/>
      </g>
     </g>
     <g id="text_20">
      <!-- 200 -->
      <g transform="translate(35.39375 46.203341) scale(0.1 -0.1)">
       <use xlink:href="#Calibri-32"/>
       <use xlink:href="#Calibri-30" x="50.683594"/>
       <use xlink:href="#Calibri-30" x="101.367188"/>
      </g>
     </g>
    </g>
    <g id="text_21">
     <!-- $\mathit{Z}$$_{a}$ (nm) -->
     <g transform="translate(29.59375 191.028) rotate(-90) scale(0.1 -0.1)">
      <defs>
       <path id="DejaVuSans-Oblique-5a" d="M 838 4666 
L 4500 4666 
L 4409 4184 
L 794 531 
L 3769 531 
L 3669 0 
L -141 0 
L -50 481 
L 3566 4134 
L 738 4134 
L 838 4666 
z
" transform="scale(0.015625)"/>
       <path id="DejaVuSans-Oblique-61" d="M 3438 1997 
L 3047 0 
L 2472 0 
L 2578 531 
Q 2325 219 2001 64 
Q 1678 -91 1281 -91 
Q 834 -91 548 182 
Q 263 456 263 884 
Q 263 1497 752 1853 
Q 1241 2209 2100 2209 
L 2900 2209 
L 2931 2363 
Q 2938 2388 2941 2417 
Q 2944 2447 2944 2509 
Q 2944 2788 2717 2942 
Q 2491 3097 2081 3097 
Q 1800 3097 1504 3025 
Q 1209 2953 897 2809 
L 997 3341 
Q 1322 3463 1633 3523 
Q 1944 3584 2234 3584 
Q 2853 3584 3176 3315 
Q 3500 3047 3500 2534 
Q 3500 2431 3484 2292 
Q 3469 2153 3438 1997 
z
M 2816 1759 
L 2241 1759 
Q 1534 1759 1195 1570 
Q 856 1381 856 984 
Q 856 709 1029 553 
Q 1203 397 1509 397 
Q 1978 397 2328 733 
Q 2678 1069 2791 1631 
L 2816 1759 
z
" transform="scale(0.015625)"/>
       <path id="Calibri-6e" d="M 2900 78 
Q 2900 53 2887 36 
Q 2875 19 2847 6 
Q 2819 -6 2769 -12 
Q 2719 -19 2644 -19 
Q 2566 -19 2516 -12 
Q 2466 -6 2437 6 
Q 2409 19 2396 36 
Q 2384 53 2384 78 
L 2384 1725 
Q 2384 1966 2346 2112 
Q 2309 2259 2237 2365 
Q 2166 2472 2052 2528 
Q 1938 2584 1788 2584 
Q 1594 2584 1400 2446 
Q 1206 2309 994 2044 
L 994 78 
Q 994 53 981 36 
Q 969 19 941 6 
Q 913 -6 863 -12 
Q 813 -19 734 -19 
Q 659 -19 609 -12 
Q 559 -6 529 6 
Q 500 19 489 36 
Q 478 53 478 78 
L 478 2891 
Q 478 2916 487 2933 
Q 497 2950 525 2964 
Q 553 2978 597 2983 
Q 641 2988 713 2988 
Q 781 2988 826 2983 
Q 872 2978 897 2964 
Q 922 2950 933 2933 
Q 944 2916 944 2891 
L 944 2519 
Q 1181 2784 1417 2907 
Q 1653 3031 1894 3031 
Q 2175 3031 2367 2936 
Q 2559 2841 2678 2681 
Q 2797 2522 2848 2308 
Q 2900 2094 2900 1794 
L 2900 78 
z
" transform="scale(0.015625)"/>
      </defs>
      <use xlink:href="#DejaVuSans-Oblique-5a" transform="translate(0 0.09375)"/>
      <use xlink:href="#DejaVuSans-Oblique-61" transform="translate(69.462891 -16.3125) scale(0.7)"/>
      <use xlink:href="#Calibri-20" transform="translate(115.092773 0.09375)"/>
      <use xlink:href="#Calibri-28" transform="translate(136.575195 0.09375)"/>
      <use xlink:href="#Calibri-6e" transform="translate(166.897461 0.09375)"/>
      <use xlink:href="#Calibri-6d" transform="translate(219.436523 0.09375)"/>
      <use xlink:href="#Calibri-29" transform="translate(299.319336 0.09375)"/>
     </g>
    </g>
   </g>
   <g id="patch_3">
    <path d="M 57.6 307.584 
L 57.6 41.472 
" style="fill: none; stroke: #000000; stroke-width: 0.8; stroke-linejoin: miter; stroke-linecap: square"/>
   </g>
   <g id="patch_4">
    <path d="M 343.296 307.584 
L 343.296 41.472 
" style="fill: none; stroke: #000000; stroke-width: 0.8; stroke-linejoin: miter; stroke-linecap: square"/>
   </g>
   <g id="patch_5">
    <path d="M 57.6 307.584 
L 343.296 307.584 
" style="fill: none; stroke: #000000; stroke-width: 0.8; stroke-linejoin: miter; stroke-linecap: square"/>
   </g>
   <g id="patch_6">
    <path d="M 57.6 41.472 
L 343.296 41.472 
" style="fill: none; stroke: #000000; stroke-width: 0.8; stroke-linejoin: miter; stroke-linecap: square"/>
   </g>
   <g id="text_22">
    <!-- $\theta_m$ = 42 -->
    <g transform="translate(182.298 35.472) scale(0.1 -0.1)">
     <defs>
      <path id="DejaVuSans-Oblique-3b8" d="M 2913 2219 
L 925 2219 
Q 791 1284 928 888 
Q 1100 400 1566 400 
Q 2034 400 2391 891 
Q 2703 1322 2913 2219 
z
M 3009 2750 
Q 3094 3638 2984 3950 
Q 2813 4444 2353 4444 
Q 1875 4444 1525 3956 
Q 1250 3563 1034 2750 
L 3009 2750 
z
M 2444 4913 
Q 3194 4913 3494 4250 
Q 3794 3591 3566 2422 
Q 3341 1256 2781 594 
Q 2225 -72 1475 -72 
Q 722 -72 425 594 
Q 128 1256 353 2422 
Q 581 3591 1134 4250 
Q 1691 4913 2444 4913 
z
" transform="scale(0.015625)"/>
      <path id="DejaVuSans-Oblique-6d" d="M 5747 2113 
L 5338 0 
L 4763 0 
L 5166 2094 
Q 5191 2228 5203 2325 
Q 5216 2422 5216 2491 
Q 5216 2772 5059 2928 
Q 4903 3084 4622 3084 
Q 4203 3084 3875 2770 
Q 3547 2456 3450 1953 
L 3066 0 
L 2491 0 
L 2900 2094 
Q 2925 2209 2937 2307 
Q 2950 2406 2950 2484 
Q 2950 2769 2794 2926 
Q 2638 3084 2363 3084 
Q 1938 3084 1609 2770 
Q 1281 2456 1184 1953 
L 800 0 
L 225 0 
L 909 3500 
L 1484 3500 
L 1375 2956 
Q 1609 3263 1923 3423 
Q 2238 3584 2597 3584 
Q 2978 3584 3223 3384 
Q 3469 3184 3519 2828 
Q 3781 3197 4126 3390 
Q 4472 3584 4856 3584 
Q 5306 3584 5551 3325 
Q 5797 3066 5797 2591 
Q 5797 2488 5784 2364 
Q 5772 2241 5747 2113 
z
" transform="scale(0.015625)"/>
      <path id="Calibri-3d" d="M 2891 2409 
Q 2891 2284 2855 2236 
Q 2819 2188 2772 2188 
L 409 2188 
Q 363 2188 328 2236 
Q 294 2284 294 2409 
Q 294 2522 325 2575 
Q 356 2628 409 2628 
L 2772 2628 
Q 2828 2628 2859 2575 
Q 2891 2522 2891 2409 
z
M 2891 1194 
Q 2891 1069 2855 1022 
Q 2819 975 2772 975 
L 409 975 
Q 363 975 328 1022 
Q 294 1069 294 1194 
Q 294 1309 325 1362 
Q 356 1416 409 1416 
L 2772 1416 
Q 2828 1416 2859 1362 
Q 2891 1309 2891 1194 
z
" transform="scale(0.015625)"/>
      <path id="Calibri-b0" d="M 1847 3541 
Q 1847 3388 1789 3253 
Q 1731 3119 1626 3017 
Q 1522 2916 1380 2859 
Q 1238 2803 1072 2803 
Q 906 2803 770 2854 
Q 634 2906 534 3000 
Q 434 3094 378 3225 
Q 322 3356 322 3516 
Q 322 3675 381 3811 
Q 441 3947 545 4044 
Q 650 4141 790 4197 
Q 931 4253 1097 4253 
Q 1259 4253 1396 4200 
Q 1534 4147 1634 4055 
Q 1734 3963 1790 3831 
Q 1847 3700 1847 3541 
z
M 1453 3528 
Q 1453 3613 1425 3686 
Q 1397 3759 1347 3812 
Q 1297 3866 1228 3895 
Q 1159 3925 1078 3925 
Q 1000 3925 933 3895 
Q 866 3866 816 3812 
Q 766 3759 737 3687 
Q 709 3616 709 3534 
Q 709 3444 737 3369 
Q 766 3294 817 3241 
Q 869 3188 939 3158 
Q 1009 3128 1091 3128 
Q 1166 3128 1233 3159 
Q 1300 3191 1348 3245 
Q 1397 3300 1425 3372 
Q 1453 3444 1453 3528 
z
M 0 4044 
L 0 4044 
z
" transform="scale(0.015625)"/>
     </defs>
     <use xlink:href="#DejaVuSans-Oblique-3b8" transform="translate(0 0.234375)"/>
     <use xlink:href="#DejaVuSans-Oblique-6d" transform="translate(61.181641 -16.171875) scale(0.7)"/>
     <use xlink:href="#Calibri-20" transform="translate(132.104492 0.234375)"/>
     <use xlink:href="#Calibri-3d" transform="translate(154.711914 0.234375)"/>
     <use xlink:href="#Calibri-20" transform="translate(204.516602 0.234375)"/>
     <use xlink:href="#Calibri-34" transform="translate(227.124023 0.234375)"/>
     <use xlink:href="#Calibri-32" transform="translate(277.807617 0.234375)"/>
     <use xlink:href="#Calibri-b0" transform="translate(328.491211 0.234375)"/>
    </g>
   </g>
  </g>
  <g id="axes_2">
   <g id="patch_7">
    <path d="M 361.152 307.584 
L 374.4576 307.584 
L 374.4576 41.472 
L 361.152 41.472 
z
" style="fill: #ffffff"/>
   </g>
   <g id="QuadMesh_1">
    <path d="M 361.152 307.584 
L 374.4576 307.584 
L 374.4576 280.9728 
L 361.152 280.9728 
L 361.152 307.584 
" clip-path="url(#pd77ecc5308)" style="fill: #0000b6"/>
    <path d="M 361.152 280.9728 
L 374.4576 280.9728 
L 374.4576 254.3616 
L 361.152 254.3616 
L 361.152 280.9728 
" clip-path="url(#pd77ecc5308)" style="fill: #0018ff"/>
    <path d="M 361.152 254.3616 
L 374.4576 254.3616 
L 374.4576 227.7504 
L 361.152 227.7504 
L 361.152 254.3616 
" clip-path="url(#pd77ecc5308)" style="fill: #0080ff"/>
    <path d="M 361.152 227.7504 
L 374.4576 227.7504 
L 374.4576 201.1392 
L 361.152 201.1392 
L 361.152 227.7504 
" clip-path="url(#pd77ecc5308)" style="fill: #00e4f8"/>
    <path d="M 361.152 201.1392 
L 374.4576 201.1392 
L 374.4576 174.528 
L 361.152 174.528 
L 361.152 201.1392 
" clip-path="url(#pd77ecc5308)" style="fill: #53ffa4"/>
    <path d="M 361.152 174.528 
L 374.4576 174.528 
L 374.4576 147.9168 
L 361.152 147.9168 
L 361.152 174.528 
" clip-path="url(#pd77ecc5308)" style="fill: #a4ff53"/>
    <path d="M 361.152 147.9168 
L 374.4576 147.9168 
L 374.4576 121.3056 
L 361.152 121.3056 
L 361.152 147.9168 
" clip-path="url(#pd77ecc5308)" style="fill: #f8f500"/>
    <path d="M 361.152 121.3056 
L 374.4576 121.3056 
L 374.4576 94.6944 
L 361.152 94.6944 
L 361.152 121.3056 
" clip-path="url(#pd77ecc5308)" style="fill: #ff9400"/>
    <path d="M 361.152 94.6944 
L 374.4576 94.6944 
L 374.4576 68.0832 
L 361.152 68.0832 
L 361.152 94.6944 
" clip-path="url(#pd77ecc5308)" style="fill: #ff3800"/>
    <path d="M 361.152 68.0832 
L 374.4576 68.0832 
L 374.4576 41.472 
L 361.152 41.472 
L 361.152 68.0832 
" clip-path="url(#pd77ecc5308)" style="fill: #b60000"/>
   </g>
   <g id="matplotlib.axis_3"/>
   <g id="matplotlib.axis_4">
    <g id="ytick_9">
     <g id="line2d_20">
      <defs>
       <path id="mcc4632bcda" d="M 0 0 
L 3.5 0 
" style="stroke: #000000; stroke-width: 0.8"/>
      </defs>
      <g>
       <use xlink:href="#mcc4632bcda" x="374.4576" y="307.584" style="stroke: #000000; stroke-width: 0.8"/>
      </g>
     </g>
     <g id="text_23">
      <!-- 0 -->
      <g transform="translate(381.4576 310.984781) scale(0.1 -0.1)">
       <use xlink:href="#Calibri-30"/>
      </g>
     </g>
    </g>
    <g id="ytick_10">
     <g id="line2d_21">
      <g>
       <use xlink:href="#mcc4632bcda" x="374.4576" y="280.9728" style="stroke: #000000; stroke-width: 0.8"/>
      </g>
     </g>
     <g id="text_24">
      <!-- 0.1 -->
      <g transform="translate(381.4576 284.373581) scale(0.1 -0.1)">
       <use xlink:href="#Calibri-30"/>
       <use xlink:href="#Calibri-2e" x="50.683594"/>
       <use xlink:href="#Calibri-31" x="75.927734"/>
      </g>
     </g>
    </g>
    <g id="ytick_11">
     <g id="line2d_22">
      <g>
       <use xlink:href="#mcc4632bcda" x="374.4576" y="254.3616" style="stroke: #000000; stroke-width: 0.8"/>
      </g>
     </g>
     <g id="text_25">
      <!-- 0.2 -->
      <g transform="translate(381.4576 257.762381) scale(0.1 -0.1)">
       <use xlink:href="#Calibri-30"/>
       <use xlink:href="#Calibri-2e" x="50.683594"/>
       <use xlink:href="#Calibri-32" x="75.927734"/>
      </g>
     </g>
    </g>
    <g id="ytick_12">
     <g id="line2d_23">
      <g>
       <use xlink:href="#mcc4632bcda" x="374.4576" y="227.7504" style="stroke: #000000; stroke-width: 0.8"/>
      </g>
     </g>
     <g id="text_26">
      <!-- 0.3 -->
      <g transform="translate(381.4576 231.151181) scale(0.1 -0.1)">
       <use xlink:href="#Calibri-30"/>
       <use xlink:href="#Calibri-2e" x="50.683594"/>
       <use xlink:href="#Calibri-33" x="75.927734"/>
      </g>
     </g>
    </g>
    <g id="ytick_13">
     <g id="line2d_24">
      <g>
       <use xlink:href="#mcc4632bcda" x="374.4576" y="201.1392" style="stroke: #000000; stroke-width: 0.8"/>
      </g>
     </g>
     <g id="text_27">
      <!-- 0.4 -->
      <g transform="translate(381.4576 204.539981) scale(0.1 -0.1)">
       <use xlink:href="#Calibri-30"/>
       <use xlink:href="#Calibri-2e" x="50.683594"/>
       <use xlink:href="#Calibri-34" x="75.927734"/>
      </g>
     </g>
    </g>
    <g id="ytick_14">
     <g id="line2d_25">
      <g>
       <use xlink:href="#mcc4632bcda" x="374.4576" y="174.528" style="stroke: #000000; stroke-width: 0.8"/>
      </g>
     </g>
     <g id="text_28">
      <!-- 0.5 -->
      <g transform="translate(381.4576 177.928781) scale(0.1 -0.1)">
       <use xlink:href="#Calibri-30"/>
       <use xlink:href="#Calibri-2e" x="50.683594"/>
       <use xlink:href="#Calibri-35" x="75.927734"/>
      </g>
     </g>
    </g>
    <g id="ytick_15">
     <g id="line2d_26">
      <g>
       <use xlink:href="#mcc4632bcda" x="374.4576" y="147.9168" style="stroke: #000000; stroke-width: 0.8"/>
      </g>
     </g>
     <g id="text_29">
      <!-- 0.6 -->
      <g transform="translate(381.4576 151.317581) scale(0.1 -0.1)">
       <use xlink:href="#Calibri-30"/>
       <use xlink:href="#Calibri-2e" x="50.683594"/>
       <use xlink:href="#Calibri-36" x="75.927734"/>
      </g>
     </g>
    </g>
    <g id="ytick_16">
     <g id="line2d_27">
      <g>
       <use xlink:href="#mcc4632bcda" x="374.4576" y="121.3056" style="stroke: #000000; stroke-width: 0.8"/>
      </g>
     </g>
     <g id="text_30">
      <!-- 0.7 -->
      <g transform="translate(381.4576 124.706381) scale(0.1 -0.1)">
       <use xlink:href="#Calibri-30"/>
       <use xlink:href="#Calibri-2e" x="50.683594"/>
       <use xlink:href="#Calibri-37" x="75.927734"/>
      </g>
     </g>
    </g>
    <g id="ytick_17">
     <g id="line2d_28">
      <g>
       <use xlink:href="#mcc4632bcda" x="374.4576" y="94.6944" style="stroke: #000000; stroke-width: 0.8"/>
      </g>
     </g>
     <g id="text_31">
      <!-- 0.8 -->
      <g transform="translate(381.4576 98.095181) scale(0.1 -0.1)">
       <use xlink:href="#Calibri-30"/>
       <use xlink:href="#Calibri-2e" x="50.683594"/>
       <use xlink:href="#Calibri-38" x="75.927734"/>
      </g>
     </g>
    </g>
    <g id="ytick_18">
     <g id="line2d_29">
      <g>
       <use xlink:href="#mcc4632bcda" x="374.4576" y="68.0832" style="stroke: #000000; stroke-width: 0.8"/>
      </g>
     </g>
     <g id="text_32">
      <!-- 0.9 -->
      <g transform="translate(381.4576 71.483981) scale(0.1 -0.1)">
       <use xlink:href="#Calibri-30"/>
       <use xlink:href="#Calibri-2e" x="50.683594"/>
       <use xlink:href="#Calibri-39" x="75.927734"/>
      </g>
     </g>
    </g>
    <g id="ytick_19">
     <g id="line2d_30">
      <g>
       <use xlink:href="#mcc4632bcda" x="374.4576" y="41.472" style="stroke: #000000; stroke-width: 0.8"/>
      </g>
     </g>
     <g id="text_33">
      <!-- 1.0 -->
      <g transform="translate(381.4576 44.872781) scale(0.1 -0.1)">
       <use xlink:href="#Calibri-31"/>
       <use xlink:href="#Calibri-2e" x="50.683594"/>
       <use xlink:href="#Calibri-30" x="75.927734"/>
      </g>
     </g>
    </g>
   </g>
   <g id="LineCollection_1"/>
   <g id="patch_8">
    <path d="M 361.152 307.584 
L 367.8048 307.584 
L 374.4576 307.584 
L 374.4576 41.472 
L 367.8048 41.472 
L 361.152 41.472 
L 361.152 307.584 
z
" style="fill: none; stroke: #000000; stroke-width: 0.8; stroke-linejoin: miter; stroke-linecap: square"/>
   </g>
   <g id="text_34">
    <!-- $\mathit{E}_{\mathrm{Edis}}$/$\mathit{E}_{\mathrm{i}}$ -->
    <g transform="translate(351.0548 35.472) scale(0.1 -0.1)">
     <defs>
      <path id="DejaVuSans-Oblique-45" d="M 1081 4666 
L 4031 4666 
L 3928 4134 
L 1606 4134 
L 1338 2753 
L 3566 2753 
L 3463 2222 
L 1234 2222 
L 909 531 
L 3284 531 
L 3181 0 
L 172 0 
L 1081 4666 
z
" transform="scale(0.015625)"/>
      <path id="DejaVuSans-45" d="M 628 4666 
L 3578 4666 
L 3578 4134 
L 1259 4134 
L 1259 2753 
L 3481 2753 
L 3481 2222 
L 1259 2222 
L 1259 531 
L 3634 531 
L 3634 0 
L 628 0 
L 628 4666 
z
" transform="scale(0.015625)"/>
      <path id="DejaVuSans-64" d="M 2906 2969 
L 2906 4863 
L 3481 4863 
L 3481 0 
L 2906 0 
L 2906 525 
Q 2725 213 2448 61 
Q 2172 -91 1784 -91 
Q 1150 -91 751 415 
Q 353 922 353 1747 
Q 353 2572 751 3078 
Q 1150 3584 1784 3584 
Q 2172 3584 2448 3432 
Q 2725 3281 2906 2969 
z
M 947 1747 
Q 947 1113 1208 752 
Q 1469 391 1925 391 
Q 2381 391 2643 752 
Q 2906 1113 2906 1747 
Q 2906 2381 2643 2742 
Q 2381 3103 1925 3103 
Q 1469 3103 1208 2742 
Q 947 2381 947 1747 
z
" transform="scale(0.015625)"/>
      <path id="DejaVuSans-69" d="M 603 3500 
L 1178 3500 
L 1178 0 
L 603 0 
L 603 3500 
z
M 603 4863 
L 1178 4863 
L 1178 4134 
L 603 4134 
L 603 4863 
z
" transform="scale(0.015625)"/>
      <path id="DejaVuSans-73" d="M 2834 3397 
L 2834 2853 
Q 2591 2978 2328 3040 
Q 2066 3103 1784 3103 
Q 1356 3103 1142 2972 
Q 928 2841 928 2578 
Q 928 2378 1081 2264 
Q 1234 2150 1697 2047 
L 1894 2003 
Q 2506 1872 2764 1633 
Q 3022 1394 3022 966 
Q 3022 478 2636 193 
Q 2250 -91 1575 -91 
Q 1294 -91 989 -36 
Q 684 19 347 128 
L 347 722 
Q 666 556 975 473 
Q 1284 391 1588 391 
Q 1994 391 2212 530 
Q 2431 669 2431 922 
Q 2431 1156 2273 1281 
Q 2116 1406 1581 1522 
L 1381 1569 
Q 847 1681 609 1914 
Q 372 2147 372 2553 
Q 372 3047 722 3315 
Q 1072 3584 1716 3584 
Q 2034 3584 2315 3537 
Q 2597 3491 2834 3397 
z
" transform="scale(0.015625)"/>
     </defs>
     <use xlink:href="#DejaVuSans-Oblique-45" transform="translate(0 0.09375)"/>
     <use xlink:href="#DejaVuSans-45" transform="translate(63.183594 -16.3125) scale(0.7)"/>
     <use xlink:href="#DejaVuSans-64" transform="translate(107.412109 -16.3125) scale(0.7)"/>
     <use xlink:href="#DejaVuSans-69" transform="translate(151.845703 -16.3125) scale(0.7)"/>
     <use xlink:href="#DejaVuSans-73" transform="translate(171.293945 -16.3125) scale(0.7)"/>
     <use xlink:href="#Calibri-2f" transform="translate(210.498047 0.09375)"/>
     <use xlink:href="#DejaVuSans-Oblique-45" transform="translate(249.121094 0.09375)"/>
     <use xlink:href="#DejaVuSans-69" transform="translate(312.304688 -16.3125) scale(0.7)"/>
    </g>
   </g>
  </g>
 </g>
 <defs>
  <clipPath id="pde4026ba29">
   <rect x="57.6" y="41.472" width="285.696" height="266.112"/>
  </clipPath>
  <clipPath id="pd77ecc5308">
   <rect x="361.152" y="41.472" width="13.3056" height="266.112"/>
  </clipPath>
 </defs>
</svg>
