<?xml version="1.0" encoding="utf-8" standalone="no"?>
<!DOCTYPE svg PUBLIC "-//W3C//DTD SVG 1.1//EN"
  "http://www.w3.org/Graphics/SVG/1.1/DTD/svg11.dtd">
<svg xmlns:xlink="http://www.w3.org/1999/xlink" width="460.8pt" height="345.6pt" viewBox="0 0 460.8 345.6" xmlns="http://www.w3.org/2000/svg" version="1.1">
 <metadata>
  <rdf:RDF xmlns:dc="http://purl.org/dc/elements/1.1/" xmlns:cc="http://creativecommons.org/ns#" xmlns:rdf="http://www.w3.org/1999/02/22-rdf-syntax-ns#">
   <cc:Work>
    <dc:type rdf:resource="http://purl.org/dc/dcmitype/StillImage"/>
    <dc:date>2024-01-22T08:39:38.011580</dc:date>
    <dc:format>image/svg+xml</dc:format>
    <dc:creator>
     <cc:Agent>
      <dc:title>Matplotlib v3.7.1, https://matplotlib.org/</dc:title>
     </cc:Agent>
    </dc:creator>
   </cc:Work>
  </rdf:RDF>
 </metadata>
 <defs>
  <style type="text/css">*{stroke-linejoin: round; stroke-linecap: butt}</style>
 </defs>
 <g id="figure_1">
  <g id="patch_1">
   <path d="M 0 345.6 
L 460.8 345.6 
L 460.8 0 
L 0 0 
z
" style="fill: #ffffff"/>
  </g>
  <g id="axes_1">
   <g id="patch_2">
    <path d="M 57.6 307.584 
L 343.296 307.584 
L 343.296 41.472 
L 57.6 41.472 
z
" style="fill: #ffffff"/>
   </g>
   <g id="PathCollection_1">
    <path clip-path="url(#p1c4fbcb234)" style="fill: #0000b6"/>
   </g>
   <g id="PathCollection_2">
    <path d="M 57.62857 61.546229 
L 58.063868 62.462582 
L 58.87602 64.153696 
L 59.15892 64.742308 
L 59.165937 64.7568 
L 60.253232 66.984941 
L 60.314039 67.10892 
L 60.342087 67.164498 
L 60.809615 68.0832 
L 61.230548 68.959576 
L 61.280295 69.05748 
L 62.324306 71.137586 
L 62.461688 71.4096 
L 63.380948 73.214568 
L 63.660815 73.76172 
L 63.76716 73.960801 
L 64.175662 74.736 
L 64.510294 75.402295 
L 64.67323 75.71028 
L 65.553932 77.392623 
L 65.906396 78.0624 
L 66.543248 79.261922 
L 67.157405 80.41452 
L 67.170272 80.437692 
L 67.691405 81.3888 
L 67.816087 81.62543 
L 67.885426 81.758759 
L 68.217967 82.36308 
L 68.845189 83.513114 
L 69.503613 84.7152 
L 69.737869 85.138924 
L 69.982301 85.579742 
L 70.512511 86.525999 
L 70.816902 87.06732 
L 71.354316 88.030443 
L 71.360816 88.0416 
L 71.367999 88.054469 
L 71.380197 88.076161 
L 71.917537 89.01588 
L 72.195264 89.505199 
L 72.670609 90.339837 
L 72.964035 90.849675 
L 73.262995 91.368 
L 73.893543 92.450504 
L 74.635105 93.72012 
L 74.921376 94.213354 
L 75.023425 94.380838 
L 75.211987 94.6944 
L 75.71018 95.548329 
L 75.77949 95.66868 
L 76.219687 96.405024 
L 77.187188 98.0208 
L 77.32925 98.255647 
L 78.210063 99.708848 
L 78.537987 100.247831 
L 78.614187 100.37292 
L 78.802741 100.671674 
L 79.223648 101.3472 
L 79.66876 102.084619 
L 79.817068 102.32148 
L 80.822812 103.934489 
L 81.284189 104.6736 
L 81.840636 105.555479 
L 82.319037 106.313105 
L 82.587778 106.734209 
L 82.773922 107.02572 
L 83.207323 107.706701 
L 83.332796 107.901643 
L 83.396515 108 
L 83.445402 108.078012 
L 84.026455 108.97428 
L 84.367426 109.501878 
L 84.851147 110.24997 
L 85.167713 110.734387 
L 85.554628 111.3264 
L 86.159703 112.241976 
L 87.109055 113.67852 
L 87.313542 113.988667 
L 87.765077 114.6528 
L 88.22466 115.346104 
L 88.408605 115.62708 
L 88.518313 115.789311 
L 88.844277 116.27149 
L 89.778658 117.647073 
L 90.004092 117.9792 
L 90.902097 119.286989 
L 91.588031 120.286588 
L 91.605483 120.31175 
L 91.61904 120.33132 
L 91.65671 120.385749 
L 92.100831 121.022161 
L 92.299819 121.3056 
L 92.442696 121.514711 
L 92.98037 122.27988 
L 93.446966 122.944427 
L 94.037144 123.786024 
L 94.29038 124.143314 
L 94.63632 124.632 
L 95.298153 125.555919 
L 96.319493 126.98412 
L 96.507705 127.247344 
L 96.682146 127.483239 
L 97.029202 127.9584 
L 97.712796 128.913302 
L 97.727019 128.93268 
L 99.032104 130.70997 
L 99.453232 131.2848 
L 100.121524 132.18595 
L 100.581353 132.807156 
L 100.914753 133.252778 
L 101.201371 133.63692 
L 101.883557 134.550308 
L 101.929371 134.6112 
L 102.170724 134.931768 
L 102.665096 135.58548 
L 102.807489 135.773566 
L 102.970228 135.98911 
L 103.33993 136.469844 
L 103.33993 134.6112 
L 103.33993 131.2848 
L 103.33993 127.9584 
L 103.33993 124.632 
L 103.33993 121.3056 
L 103.33993 117.9792 
L 103.33993 114.6528 
L 103.33993 111.3264 
L 103.33993 108 
L 103.33993 104.6736 
L 103.33993 101.3472 
L 103.33993 98.0208 
L 103.33993 94.6944 
L 103.33993 91.368 
L 103.33993 88.0416 
L 103.33993 84.7152 
L 103.33993 81.3888 
L 103.33993 78.0624 
L 103.33993 74.736 
L 103.33993 71.4096 
L 103.33993 68.0832 
L 103.33993 64.7568 
L 103.33993 61.4304 
L 103.33993 58.104 
L 103.33993 54.7776 
L 103.33993 51.4512 
L 103.33993 48.1248 
L 103.33993 44.7984 
L 103.33993 41.472 
L 101.816218 41.472 
L 100.292506 41.472 
L 98.768794 41.472 
L 97.245082 41.472 
L 95.72137 41.472 
L 94.197658 41.472 
L 92.673946 41.472 
L 91.150234 41.472 
L 89.626522 41.472 
L 88.10281 41.472 
L 86.579098 41.472 
L 85.055386 41.472 
L 83.531674 41.472 
L 82.007962 41.472 
L 80.48425 41.472 
L 78.960538 41.472 
L 77.436826 41.472 
L 75.913114 41.472 
L 74.389402 41.472 
L 72.86569 41.472 
L 71.341978 41.472 
L 69.818266 41.472 
L 68.294554 41.472 
L 66.770842 41.472 
L 65.24713 41.472 
L 63.723418 41.472 
L 62.199706 41.472 
L 60.675994 41.472 
L 59.152282 41.472 
L 57.62857 41.472 
L 57.62857 44.7984 
L 57.62857 48.1248 
L 57.62857 51.4512 
L 57.62857 54.7776 
L 57.62857 58.104 
L 57.62857 61.4304 
" clip-path="url(#p1c4fbcb234)" style="fill: #0018ff"/>
   </g>
   <g id="PathCollection_3">
    <path d="M 103.33993 136.469844 
L 102.970228 135.98911 
L 102.807489 135.773566 
L 102.665096 135.58548 
L 102.170724 134.931768 
L 101.929371 134.6112 
L 101.883557 134.550308 
L 101.201371 133.63692 
L 100.914753 133.252778 
L 100.581353 132.807156 
L 100.121524 132.18595 
L 99.453232 131.2848 
L 99.032104 130.70997 
L 97.727019 128.93268 
L 97.712796 128.913302 
L 97.029202 127.9584 
L 96.682146 127.483239 
L 96.507705 127.247344 
L 96.319493 126.98412 
L 95.298153 125.555919 
L 94.63632 124.632 
L 94.29038 124.143314 
L 94.037144 123.786024 
L 93.446966 122.944427 
L 92.98037 122.27988 
L 92.442696 121.514711 
L 92.299819 121.3056 
L 92.100831 121.022161 
L 91.65671 120.385749 
L 91.61904 120.33132 
L 91.605483 120.31175 
L 91.588031 120.286588 
L 90.902097 119.286989 
L 90.004092 117.9792 
L 89.778658 117.647073 
L 88.844277 116.27149 
L 88.518313 115.789311 
L 88.408605 115.62708 
L 88.22466 115.346104 
L 87.765077 114.6528 
L 87.313542 113.988667 
L 87.109055 113.67852 
L 86.159703 112.241976 
L 85.554628 111.3264 
L 85.167713 110.734387 
L 84.851147 110.24997 
L 84.367426 109.501878 
L 84.026455 108.97428 
L 83.445402 108.078012 
L 83.396515 108 
L 83.332796 107.901643 
L 83.207323 107.706701 
L 82.773922 107.02572 
L 82.587778 106.734209 
L 82.319037 106.313105 
L 81.840636 105.555479 
L 81.284189 104.6736 
L 80.822812 103.934489 
L 79.817068 102.32148 
L 79.66876 102.084619 
L 79.223648 101.3472 
L 78.802741 100.671674 
L 78.614187 100.37292 
L 78.537987 100.247831 
L 78.210063 99.708848 
L 77.32925 98.255647 
L 77.187188 98.0208 
L 76.219687 96.405024 
L 75.77949 95.66868 
L 75.71018 95.548329 
L 75.211987 94.6944 
L 75.023425 94.380838 
L 74.921376 94.213354 
L 74.635105 93.72012 
L 73.893543 92.450504 
L 73.262995 91.368 
L 72.964035 90.849675 
L 72.670609 90.339837 
L 72.195264 89.505199 
L 71.917537 89.01588 
L 71.380197 88.076161 
L 71.367999 88.054469 
L 71.360816 88.0416 
L 71.354316 88.030443 
L 70.816902 87.06732 
L 70.512511 86.525999 
L 69.982301 85.579742 
L 69.737869 85.138924 
L 69.503613 84.7152 
L 68.845189 83.513114 
L 68.217967 82.36308 
L 67.885426 81.758759 
L 67.816087 81.62543 
L 67.691405 81.3888 
L 67.170272 80.437692 
L 67.157405 80.41452 
L 66.543248 79.261922 
L 65.906396 78.0624 
L 65.553932 77.392623 
L 64.67323 75.71028 
L 64.510294 75.402295 
L 64.175662 74.736 
L 63.76716 73.960801 
L 63.660815 73.76172 
L 63.380948 73.214568 
L 62.461688 71.4096 
L 62.324306 71.137586 
L 61.280295 69.05748 
L 61.230548 68.959576 
L 60.809615 68.0832 
L 60.342087 67.164498 
L 60.314039 67.10892 
L 60.253232 66.984941 
L 59.165937 64.7568 
L 59.15892 64.742308 
L 58.87602 64.153696 
L 58.063868 62.462582 
L 57.62857 61.546229 
L 57.62857 64.7568 
L 57.62857 68.0832 
L 57.62857 71.4096 
L 57.62857 74.736 
L 57.62857 78.0624 
L 57.62857 81.3888 
L 57.62857 84.7152 
L 57.62857 88.0416 
L 57.62857 91.368 
L 57.62857 94.6944 
L 57.62857 98.0208 
L 57.62857 101.3472 
L 57.62857 104.6736 
L 57.62857 108 
L 57.62857 111.3264 
L 57.62857 114.6528 
L 57.62857 117.9792 
L 57.62857 121.3056 
L 57.62857 124.632 
L 57.62857 127.9584 
L 57.62857 131.2848 
L 57.62857 134.6112 
L 57.62857 137.9376 
L 57.62857 140.799766 
L 57.748417 141.002362 
L 57.905894 141.264 
L 58.344004 141.994898 
L 58.492479 142.23828 
L 59.481823 143.870982 
L 59.921579 144.5904 
L 60.498048 145.528253 
L 61.011377 146.358022 
L 61.229499 146.708448 
L 61.376372 146.94252 
L 61.705266 147.469696 
L 61.890789 147.764023 
L 61.987258 147.9168 
L 62.036763 147.997385 
L 62.063079 148.040347 
L 62.603719 148.89108 
L 62.994131 149.508898 
L 63.564119 150.403627 
L 63.80994 150.787189 
L 64.103868 151.2432 
L 64.773794 152.276533 
L 65.635185 153.59532 
L 65.8904 153.987913 
L 66.280578 154.5696 
L 66.775142 155.325292 
L 66.91844 155.54388 
L 67.150964 155.892585 
L 67.864163 156.956418 
L 68.376077 157.718027 
L 68.496494 157.896 
L 69.530178 159.414351 
L 70.100645 160.24812 
L 70.48229 160.797234 
L 70.778267 161.2224 
L 70.920396 161.430897 
L 70.993104 161.537875 
L 71.454587 162.19668 
L 72.03718 163.03111 
L 72.777737 164.08525 
L 72.916405 164.28151 
L 73.106092 164.5488 
L 73.887917 165.643585 
L 74.790937 166.90092 
L 75.056641 167.271838 
L 75.499977 167.8752 
L 76.009448 168.581123 
L 76.202497 168.84948 
L 76.327116 169.019624 
L 76.619318 169.416909 
L 77.627934 170.784394 
L 77.937193 171.2016 
L 78.753056 172.29512 
L 79.308806 173.037127 
L 79.516893 173.313426 
L 79.698691 173.55372 
L 80.327878 174.386599 
L 80.405726 174.489166 
L 80.435243 174.528 
L 80.448477 174.545692 
L 80.455005 174.554444 
L 81.17971 175.50228 
L 81.418435 175.814989 
L 81.687587 176.165883 
L 82.20181 176.832733 
L 82.992312 177.8544 
L 83.331916 178.290489 
L 84.296144 179.523308 
L 84.652527 179.977644 
L 84.832618 180.20652 
L 84.977878 180.388902 
L 85.609483 181.1808 
L 86.012333 181.693305 
L 86.382691 182.15508 
L 87.193279 183.166388 
L 88.050581 184.231935 
L 88.135189 184.336547 
L 88.273578 184.5072 
L 89.14024 185.568796 
L 90.197412 186.85932 
L 90.412939 187.12247 
L 91.006025 187.8336 
L 91.48912 188.419567 
L 91.717992 188.698036 
L 91.810078 188.80788 
L 93.065506 190.305188 
L 93.784344 191.16 
L 94.121985 191.558827 
L 94.316913 191.78853 
L 95.043287 192.640316 
L 95.788687 193.51212 
L 96.229257 194.027135 
L 96.628437 194.4864 
L 97.267523 195.228867 
L 97.466429 195.46068 
L 97.651084 195.672988 
L 97.940991 196.005633 
L 99.027294 197.248471 
L 99.521632 197.8128 
L 100.156027 198.532104 
L 100.503629 198.925512 
L 101.033247 199.522095 
L 101.605012 200.16492 
L 102.1798 200.810425 
L 102.474298 201.1392 
L 103.047172 201.778315 
L 103.33993 202.100412 
L 103.33993 201.1392 
L 103.33993 197.8128 
L 103.33993 194.4864 
L 103.33993 191.16 
L 103.33993 187.8336 
L 103.33993 184.5072 
L 103.33993 181.1808 
L 103.33993 177.8544 
L 103.33993 174.528 
L 103.33993 171.2016 
L 103.33993 167.8752 
L 103.33993 164.5488 
L 103.33993 161.2224 
L 103.33993 157.896 
L 103.33993 154.5696 
L 103.33993 151.2432 
L 103.33993 147.9168 
L 103.33993 144.5904 
L 103.33993 141.264 
L 103.33993 137.9376 
" clip-path="url(#p1c4fbcb234)" style="fill: #0080ff"/>
   </g>
   <g id="PathCollection_4">
    <path d="M 103.33993 202.100412 
L 103.047172 201.778315 
L 102.474298 201.1392 
L 102.1798 200.810425 
L 101.605012 200.16492 
L 101.033247 199.522095 
L 100.503629 198.925512 
L 100.156027 198.532104 
L 99.521632 197.8128 
L 99.027294 197.248471 
L 97.940991 196.005633 
L 97.651084 195.672988 
L 97.466429 195.46068 
L 97.267523 195.228867 
L 96.628437 194.4864 
L 96.229257 194.027135 
L 95.788687 193.51212 
L 95.043287 192.640316 
L 94.316913 191.78853 
L 94.121985 191.558827 
L 93.784344 191.16 
L 93.065506 190.305188 
L 91.810078 188.80788 
L 91.717992 188.698036 
L 91.48912 188.419567 
L 91.006025 187.8336 
L 90.412939 187.12247 
L 90.197412 186.85932 
L 89.14024 185.568796 
L 88.273578 184.5072 
L 88.135189 184.336547 
L 88.050581 184.231935 
L 87.193279 183.166388 
L 86.382691 182.15508 
L 86.012333 181.693305 
L 85.609483 181.1808 
L 84.977878 180.388902 
L 84.832618 180.20652 
L 84.652527 179.977644 
L 84.296144 179.523308 
L 83.331916 178.290489 
L 82.992312 177.8544 
L 82.20181 176.832733 
L 81.687587 176.165883 
L 81.418435 175.814989 
L 81.17971 175.50228 
L 80.455005 174.554444 
L 80.448477 174.545692 
L 80.435243 174.528 
L 80.405726 174.489166 
L 80.327878 174.386599 
L 79.698691 173.55372 
L 79.516893 173.313426 
L 79.308806 173.037127 
L 78.753056 172.29512 
L 77.937193 171.2016 
L 77.627934 170.784394 
L 76.619318 169.416909 
L 76.327116 169.019624 
L 76.202497 168.84948 
L 76.009448 168.581123 
L 75.499977 167.8752 
L 75.056641 167.271838 
L 74.790937 166.90092 
L 73.887917 165.643585 
L 73.106092 164.5488 
L 72.916405 164.28151 
L 72.777737 164.08525 
L 72.03718 163.03111 
L 71.454587 162.19668 
L 70.993104 161.537875 
L 70.920396 161.430897 
L 70.778267 161.2224 
L 70.48229 160.797234 
L 70.100645 160.24812 
L 69.530178 159.414351 
L 68.496494 157.896 
L 68.376077 157.718027 
L 67.864163 156.956418 
L 67.150964 155.892585 
L 66.91844 155.54388 
L 66.775142 155.325292 
L 66.280578 154.5696 
L 65.8904 153.987913 
L 65.635185 153.59532 
L 64.773794 152.276533 
L 64.103868 151.2432 
L 63.80994 150.787189 
L 63.564119 150.403627 
L 62.994131 149.508898 
L 62.603719 148.89108 
L 62.063079 148.040347 
L 62.036763 147.997385 
L 61.987258 147.9168 
L 61.890789 147.764023 
L 61.705266 147.469696 
L 61.376372 146.94252 
L 61.229499 146.708448 
L 61.011377 146.358022 
L 60.498048 145.528253 
L 59.921579 144.5904 
L 59.481823 143.870982 
L 58.492479 142.23828 
L 58.344004 141.994898 
L 57.905894 141.264 
L 57.748417 141.002362 
L 57.62857 140.799766 
L 57.62857 141.264 
L 57.62857 144.5904 
L 57.62857 147.9168 
L 57.62857 151.2432 
L 57.62857 154.5696 
L 57.62857 157.896 
L 57.62857 161.2224 
L 57.62857 164.5488 
L 57.62857 167.8752 
L 57.62857 171.2016 
L 57.62857 174.528 
L 57.62857 177.8544 
L 57.62857 181.1808 
L 57.62857 184.5072 
L 57.62857 187.8336 
L 57.62857 191.16 
L 57.62857 194.4864 
L 57.62857 197.8128 
L 57.62857 201.1392 
L 57.62857 202.282155 
L 57.954439 202.748121 
L 59.123836 204.4035 
L 59.158344 204.452365 
L 59.167821 204.4656 
L 60.359882 206.131647 
L 60.856092 206.81772 
L 61.211178 207.303114 
L 61.567516 207.792 
L 61.816932 208.138129 
L 62.280145 208.76628 
L 62.89389 209.602933 
L 63.621493 210.581214 
L 63.783872 210.799779 
L 64.023044 211.1184 
L 64.782911 212.131831 
L 65.800161 213.47052 
L 66.013131 213.752131 
L 66.547986 214.4448 
L 67.262139 215.378377 
L 67.293913 215.41908 
L 68.601353 217.10143 
L 69.128569 217.7712 
L 69.684171 218.47794 
L 70.03655 218.921658 
L 70.52993 219.543972 
L 70.994998 220.12332 
L 71.592655 220.870921 
L 71.777218 221.0976 
L 72.066925 221.456129 
L 72.562895 222.07188 
L 73.170133 222.819449 
L 74.266831 224.156418 
L 74.424069 224.348317 
L 74.48683 224.424 
L 75.647244 225.825251 
L 76.335069 226.647893 
L 76.388696 226.712161 
L 76.442691 226.77612 
L 76.707377 227.090785 
L 77.262686 227.7504 
L 77.337584 227.840141 
L 78.087987 228.72468 
L 78.364413 229.051794 
L 78.63672 229.370138 
L 79.166541 229.991072 
L 80.101645 231.0768 
L 80.351245 231.367162 
L 80.913119 232.013061 
L 81.665874 232.879753 
L 82.147239 233.42892 
L 82.239966 233.534895 
L 83.005542 234.4032 
L 83.16422 234.584928 
L 83.237999 234.66876 
L 83.867333 235.37748 
L 84.35608 235.929846 
L 84.810152 236.437108 
L 85.214635 236.890287 
L 85.970506 237.7296 
L 86.373617 238.178183 
L 87.202116 239.089706 
L 87.73359 239.675554 
L 88.105324 240.08172 
L 88.480151 240.489052 
L 89.000371 241.056 
L 89.195007 241.269409 
L 89.283754 241.365953 
L 89.898797 242.03028 
L 90.436847 242.613386 
L 90.911004 243.121555 
L 91.308384 243.548874 
L 92.090262 244.3824 
L 92.482115 244.801183 
L 93.225935 245.587443 
L 93.844644 246.242939 
L 94.312626 246.73452 
L 94.816208 247.261144 
L 95.243101 247.7088 
L 95.395857 247.869785 
L 95.464256 247.941299 
L 96.177582 248.68308 
L 96.597927 249.121596 
L 96.951168 249.486145 
L 97.442428 249.995097 
L 98.454903 251.0352 
L 98.668153 251.254907 
L 99.045737 251.639793 
L 99.993918 252.60889 
L 100.733276 253.358255 
L 100.746119 253.371322 
L 100.761999 253.38732 
L 100.960127 253.587467 
L 101.640663 254.274778 
L 101.726399 254.3616 
L 101.755791 254.391485 
L 101.768733 254.404538 
L 102.69567 255.33588 
L 102.831111 255.472397 
L 102.940188 255.581183 
L 103.33993 255.982692 
L 103.33993 254.3616 
L 103.33993 251.0352 
L 103.33993 247.7088 
L 103.33993 244.3824 
L 103.33993 241.056 
L 103.33993 237.7296 
L 103.33993 234.4032 
L 103.33993 231.0768 
L 103.33993 227.7504 
L 103.33993 224.424 
L 103.33993 221.0976 
L 103.33993 217.7712 
L 103.33993 214.4448 
L 103.33993 211.1184 
L 103.33993 207.792 
L 103.33993 204.4656 
" clip-path="url(#p1c4fbcb234)" style="fill: #00e4f8"/>
   </g>
   <g id="PathCollection_5">
    <path d="M 103.33993 255.982692 
L 102.940188 255.581183 
L 102.831111 255.472397 
L 102.69567 255.33588 
L 101.768733 254.404538 
L 101.755791 254.391485 
L 101.726399 254.3616 
L 101.640663 254.274778 
L 100.960127 253.587467 
L 100.761999 253.38732 
L 100.746119 253.371322 
L 100.733276 253.358255 
L 99.993918 252.60889 
L 99.045737 251.639793 
L 98.668153 251.254907 
L 98.454903 251.0352 
L 97.442428 249.995097 
L 96.951168 249.486145 
L 96.597927 249.121596 
L 96.177582 248.68308 
L 95.464256 247.941299 
L 95.395857 247.869785 
L 95.243101 247.7088 
L 94.816208 247.261144 
L 94.312626 246.73452 
L 93.844644 246.242939 
L 93.225935 245.587443 
L 92.482115 244.801183 
L 92.090262 244.3824 
L 91.308384 243.548874 
L 90.911004 243.121555 
L 90.436847 242.613386 
L 89.898797 242.03028 
L 89.283754 241.365953 
L 89.195007 241.269409 
L 89.000371 241.056 
L 88.480151 240.489052 
L 88.105324 240.08172 
L 87.73359 239.675554 
L 87.202116 239.089706 
L 86.373617 238.178183 
L 85.970506 237.7296 
L 85.214635 236.890287 
L 84.810152 236.437108 
L 84.35608 235.929846 
L 83.867333 235.37748 
L 83.237999 234.66876 
L 83.16422 234.584928 
L 83.005542 234.4032 
L 82.239966 233.534895 
L 82.147239 233.42892 
L 81.665874 232.879753 
L 80.913119 232.013061 
L 80.351245 231.367162 
L 80.101645 231.0768 
L 79.166541 229.991072 
L 78.63672 229.370138 
L 78.364413 229.051794 
L 78.087987 228.72468 
L 77.337584 227.840141 
L 77.262686 227.7504 
L 76.707377 227.090785 
L 76.442691 226.77612 
L 76.388696 226.712161 
L 76.335069 226.647893 
L 75.647244 225.825251 
L 74.48683 224.424 
L 74.424069 224.348317 
L 74.266831 224.156418 
L 73.170133 222.819449 
L 72.562895 222.07188 
L 72.066925 221.456129 
L 71.777218 221.0976 
L 71.592655 220.870921 
L 70.994998 220.12332 
L 70.52993 219.543972 
L 70.03655 218.921658 
L 69.684171 218.47794 
L 69.128569 217.7712 
L 68.601353 217.10143 
L 67.293913 215.41908 
L 67.262139 215.378377 
L 66.547986 214.4448 
L 66.013131 213.752131 
L 65.800161 213.47052 
L 64.782911 212.131831 
L 64.023044 211.1184 
L 63.783872 210.799779 
L 63.621493 210.581214 
L 62.89389 209.602933 
L 62.280145 208.76628 
L 61.816932 208.138129 
L 61.567516 207.792 
L 61.211178 207.303114 
L 60.856092 206.81772 
L 60.359882 206.131647 
L 59.167821 204.4656 
L 59.158344 204.452365 
L 59.123836 204.4035 
L 57.954439 202.748121 
L 57.62857 202.282155 
L 57.62857 204.4656 
L 57.62857 207.792 
L 57.62857 211.1184 
L 57.62857 214.4448 
L 57.62857 217.7712 
L 57.62857 221.0976 
L 57.62857 224.424 
L 57.62857 227.7504 
L 57.62857 231.0768 
L 57.62857 234.4032 
L 57.62857 237.7296 
L 57.62857 241.056 
L 57.62857 244.3824 
L 57.62857 247.7088 
L 57.62857 251.0352 
L 57.62857 254.3616 
L 57.62857 257.688 
L 57.62857 261.0144 
L 57.62857 263.913771 
L 57.693552 263.998314 
L 57.957829 264.3408 
L 58.70301 265.321601 
L 59.771614 266.69292 
L 59.959685 266.937093 
L 60.531767 267.6672 
L 61.223464 268.549981 
L 61.296362 268.64148 
L 62.548677 270.231764 
L 63.163827 270.9936 
L 63.615508 271.562331 
L 63.897321 271.910149 
L 64.488788 272.649127 
L 65.060391 273.34572 
L 65.595219 274.005235 
L 65.677753 274.107031 
L 65.85442 274.32 
L 66.272177 274.826946 
L 66.65353 275.29428 
L 67.110825 275.854534 
L 67.917504 276.823266 
L 68.402711 277.410283 
L 68.602768 277.6464 
L 69.592674 278.835367 
L 70.173638 279.519369 
L 70.37436 279.758796 
L 70.580352 279.99852 
L 71.379024 280.939301 
L 71.388087 280.949996 
L 71.407857 280.9728 
L 71.633022 281.235982 
L 72.239987 281.94708 
L 72.356221 282.085016 
L 72.470701 282.217436 
L 73.116891 282.975259 
L 74.26865 284.2992 
L 74.347225 284.391275 
L 74.524141 284.593347 
L 75.618172 285.853676 
L 76.324581 286.65132 
L 76.33498 286.663397 
L 77.183657 287.6256 
L 77.295634 287.753274 
L 78.047585 288.59988 
L 78.354068 288.949578 
L 78.64119 289.268895 
L 79.167239 289.86259 
L 80.152201 290.952 
L 80.371069 291.199083 
L 80.827459 291.701258 
L 81.685068 292.65379 
L 82.28255 293.30412 
L 82.878781 293.955506 
L 83.171637 294.2784 
L 83.28272 294.401522 
L 83.334083 294.457074 
L 84.065691 295.25268 
L 84.426728 295.650816 
L 84.750703 295.998987 
L 85.255511 296.550049 
L 86.24167 297.6048 
L 86.46651 297.850589 
L 86.906274 298.319055 
L 87.787372 299.267295 
L 88.441436 299.95692 
L 89.128161 300.684731 
L 89.358632 300.9312 
L 89.481558 301.062286 
L 90.280395 301.90548 
L 90.564535 302.209832 
L 90.810372 302.466378 
L 91.376184 303.066741 
L 92.52205 304.2576 
L 92.624179 304.366245 
L 92.813659 304.562606 
L 93.919859 305.721724 
L 94.609794 306.429743 
L 94.688676 306.512063 
L 94.784648 306.60972 
L 95.725064 307.58066 
L 95.728341 307.584 
L 97.245082 307.584 
L 98.768794 307.584 
L 100.292506 307.584 
L 101.816218 307.584 
L 103.33993 307.584 
L 103.33993 304.2576 
L 103.33993 300.9312 
L 103.33993 297.6048 
L 103.33993 294.2784 
L 103.33993 290.952 
L 103.33993 287.6256 
L 103.33993 284.2992 
L 103.33993 280.9728 
L 103.33993 277.6464 
L 103.33993 274.32 
L 103.33993 270.9936 
L 103.33993 267.6672 
L 103.33993 264.3408 
L 103.33993 261.0144 
L 103.33993 257.688 
" clip-path="url(#p1c4fbcb234)" style="fill: #53ffa4"/>
   </g>
   <g id="PathCollection_6">
    <path d="M 95.728341 307.584 
L 95.725064 307.58066 
L 94.784648 306.60972 
L 94.688676 306.512063 
L 94.609794 306.429743 
L 93.919859 305.721724 
L 92.813659 304.562606 
L 92.624179 304.366245 
L 92.52205 304.2576 
L 91.376184 303.066741 
L 90.810372 302.466378 
L 90.564535 302.209832 
L 90.280395 301.90548 
L 89.481558 301.062286 
L 89.358632 300.9312 
L 89.128161 300.684731 
L 88.441436 299.95692 
L 87.787372 299.267295 
L 86.906274 298.319055 
L 86.46651 297.850589 
L 86.24167 297.6048 
L 85.255511 296.550049 
L 84.750703 295.998987 
L 84.426728 295.650816 
L 84.065691 295.25268 
L 83.334083 294.457074 
L 83.28272 294.401522 
L 83.171637 294.2784 
L 82.878781 293.955506 
L 82.28255 293.30412 
L 81.685068 292.65379 
L 80.827459 291.701258 
L 80.371069 291.199083 
L 80.152201 290.952 
L 79.167239 289.86259 
L 78.64119 289.268895 
L 78.354068 288.949578 
L 78.047585 288.59988 
L 77.295634 287.753274 
L 77.183657 287.6256 
L 76.33498 286.663397 
L 76.324581 286.65132 
L 75.618172 285.853676 
L 74.524141 284.593347 
L 74.347225 284.391275 
L 74.26865 284.2992 
L 73.116891 282.975259 
L 72.470701 282.217436 
L 72.356221 282.085016 
L 72.239987 281.94708 
L 71.633022 281.235982 
L 71.407857 280.9728 
L 71.388087 280.949996 
L 71.379024 280.939301 
L 70.580352 279.99852 
L 70.37436 279.758796 
L 70.173638 279.519369 
L 69.592674 278.835367 
L 68.602768 277.6464 
L 68.402711 277.410283 
L 67.917504 276.823266 
L 67.110825 275.854534 
L 66.65353 275.29428 
L 66.272177 274.826946 
L 65.85442 274.32 
L 65.677753 274.107031 
L 65.595219 274.005235 
L 65.060391 273.34572 
L 64.488788 272.649127 
L 63.897321 271.910149 
L 63.615508 271.562331 
L 63.163827 270.9936 
L 62.548677 270.231764 
L 61.296362 268.64148 
L 61.223464 268.549981 
L 60.531767 267.6672 
L 59.959685 266.937093 
L 59.771614 266.69292 
L 58.70301 265.321601 
L 57.957829 264.3408 
L 57.693552 263.998314 
L 57.62857 263.913771 
L 57.62857 264.3408 
L 57.62857 267.6672 
L 57.62857 270.9936 
L 57.62857 274.32 
L 57.62857 277.6464 
L 57.62857 280.9728 
L 57.62857 284.2992 
L 57.62857 287.6256 
L 57.62857 290.952 
L 57.62857 294.2784 
L 57.62857 297.6048 
L 57.62857 300.9312 
L 57.62857 304.2576 
L 57.62857 307.584 
L 59.152282 307.584 
L 60.675994 307.584 
L 62.199706 307.584 
L 63.723418 307.584 
L 65.24713 307.584 
L 66.770842 307.584 
L 68.294554 307.584 
L 69.818266 307.584 
L 71.341978 307.584 
L 72.86569 307.584 
L 74.389402 307.584 
L 75.913114 307.584 
L 77.436826 307.584 
L 78.960538 307.584 
L 80.48425 307.584 
L 82.007962 307.584 
L 83.531674 307.584 
L 85.055386 307.584 
L 86.579098 307.584 
L 88.10281 307.584 
L 89.626522 307.584 
L 91.150234 307.584 
L 92.673946 307.584 
L 94.197658 307.584 
L 95.72137 307.584 
" clip-path="url(#p1c4fbcb234)" style="fill: #a4ff53"/>
   </g>
   <g id="PathCollection_7">
    <path clip-path="url(#p1c4fbcb234)" style="fill: #f8f500"/>
   </g>
   <g id="PathCollection_8">
    <path clip-path="url(#p1c4fbcb234)" style="fill: #ff9400"/>
   </g>
   <g id="PathCollection_9">
    <path clip-path="url(#p1c4fbcb234)" style="fill: #ff3800"/>
   </g>
   <g id="PathCollection_10">
    <path clip-path="url(#p1c4fbcb234)" style="fill: #b60000"/>
   </g>
   <g id="PathCollection_11">
    <path d="M 113.770551 41.472 
L 114.869706 43.416141 
L 115.270562 44.07008 
L 117.593227 47.830742 
L 119.174558 50.3424 
L 121.463689 53.931086 
L 123.217186 56.61472 
L 124.739992 59.21215 
L 124.740496 59.2128 
L 124.741164 59.213982 
L 126.581088 61.81088 
L 128.185813 64.305613 
L 130.665328 68.0832 
L 132.050643 70.153711 
L 134.890336 74.35552 
L 134.945005 74.419857 
L 136.919233 76.9536 
L 137.442947 77.818762 
L 137.75809 78.39244 
L 138.634939 79.55168 
L 142.124111 84.513271 
L 143.049962 85.824 
L 146.976488 91.237422 
L 147.599577 92.09632 
L 148.288559 92.867146 
L 149.785231 94.6944 
L 151.448382 97.267618 
L 151.46821 97.29248 
L 151.82652 97.766875 
L 156.26513 103.5648 
L 156.66037 104.065669 
L 161.174853 109.83712 
L 161.595181 110.402727 
L 163.383969 112.4352 
L 164.700988 114.317811 
L 165.235831 115.03328 
L 166.838755 117.00235 
L 170.300086 121.3056 
L 171.735325 123.02775 
L 175.45006 127.57792 
L 176.392733 128.775314 
L 177.656929 130.176 
L 178.636405 131.499051 
L 179.645381 132.77408 
L 182.499654 136.141437 
L 184.913355 139.0464 
L 187.142998 141.62523 
L 190.236626 145.31872 
L 191.585316 146.968593 
L 191.920305 147.315047 
L 192.449274 147.9168 
L 194.122258 150.01654 
L 194.562606 150.51488 
L 194.882719 150.884647 
L 195.753888 151.926911 
L 198.311816 154.880346 
L 199.918203 156.7872 
L 202.749272 160.005078 
L 205.324273 163.05952 
L 206.99089 165.065194 
L 207.525809 165.6576 
L 208.588747 166.975283 
L 209.723283 168.25568 
L 210.549333 169.198373 
L 212.768475 171.850683 
L 214.177757 173.476982 
L 215.056751 174.528 
L 218.396683 178.339847 
L 220.439161 180.80032 
L 222.39015 183.164661 
L 222.470583 183.250597 
L 222.594736 183.3984 
L 223.002112 183.909912 
L 224.816487 185.99648 
L 226.17208 187.56017 
L 229.923177 192.145139 
L 229.987802 192.221491 
L 230.026132 192.2688 
L 233.905792 196.826172 
L 235.271765 198.54112 
L 236.935813 200.626819 
L 237.378994 201.1392 
L 237.561882 201.367405 
L 239.532786 203.73728 
L 241.566643 206.172016 
L 244.552405 210.0096 
L 245.651913 211.352079 
L 247.625973 213.889607 
L 249.071097 215.689245 
L 249.509862 216.28192 
L 250.012554 216.954747 
L 251.569852 218.88 
L 252.260653 219.784828 
L 253.56518 221.47808 
L 256.519883 225.267475 
L 258.294417 227.7504 
L 260.995784 231.329881 
L 262.905849 234.02272 
L 263.518625 234.9017 
L 264.834824 236.6208 
L 266.18922 238.551851 
L 266.645757 239.21888 
L 270.774978 245.12798 
L 271.002695 245.4912 
L 272.501304 247.746172 
L 275.226183 251.76352 
L 275.452494 252.087998 
L 276.085061 252.961091 
L 276.955112 254.3616 
L 278.127316 256.269097 
L 278.602485 256.95968 
L 280.06936 259.181335 
L 282.538504 263.232 
L 284.237532 265.856971 
L 286.308814 269.50432 
L 287.591215 271.667443 
L 287.821581 272.1024 
L 288.213247 272.819702 
L 289.305768 274.70048 
L 290.526986 276.705628 
L 292.77776 280.9728 
L 293.944458 283.044859 
L 296.08802 287.24512 
L 296.55363 288.286982 
L 297.372625 289.8432 
L 298.049733 291.028011 
L 298.430396 291.836756 
L 298.694419 292.44128 
L 300.403019 296.062381 
L 301.709167 298.7136 
L 302.117268 299.486302 
L 304.528309 304.98592 
L 305.249908 306.48214 
L 305.6809 307.584 
L 310.91712 307.584 
L 319.01184 307.584 
L 327.10656 307.584 
L 335.20128 307.584 
L 343.296 307.584 
L 343.296 298.7136 
L 343.296 289.8432 
L 343.296 280.9728 
L 343.296 272.1024 
L 343.296 263.232 
L 343.296 254.3616 
L 343.296 245.4912 
L 343.296 236.6208 
L 343.296 227.7504 
L 343.296 218.88 
L 343.296 210.0096 
L 343.296 201.1392 
L 343.296 192.2688 
L 343.296 183.3984 
L 343.296 174.528 
L 343.296 165.6576 
L 343.296 156.7872 
L 343.296 147.9168 
L 343.296 139.0464 
L 343.296 130.176 
L 343.296 121.3056 
L 343.296 112.4352 
L 343.296 103.5648 
L 343.296 94.6944 
L 343.296 85.824 
L 343.296 76.9536 
L 343.296 68.0832 
L 343.296 59.2128 
L 343.296 50.3424 
L 343.296 41.472 
L 335.20128 41.472 
L 327.10656 41.472 
L 319.01184 41.472 
L 310.91712 41.472 
L 302.8224 41.472 
L 294.72768 41.472 
L 286.63296 41.472 
L 278.53824 41.472 
L 270.44352 41.472 
L 262.3488 41.472 
L 254.25408 41.472 
L 246.15936 41.472 
L 238.06464 41.472 
L 229.96992 41.472 
L 221.8752 41.472 
L 213.78048 41.472 
L 205.68576 41.472 
L 197.59104 41.472 
L 189.49632 41.472 
L 181.4016 41.472 
L 173.30688 41.472 
L 165.21216 41.472 
L 157.11744 41.472 
L 149.02272 41.472 
L 140.928 41.472 
L 132.83328 41.472 
L 124.73856 41.472 
L 116.64384 41.472 
" clip-path="url(#p1c4fbcb234)" style="fill: #0000b6"/>
   </g>
   <g id="PathCollection_12">
    <path d="M 305.6809 307.584 
L 305.249908 306.48214 
L 304.528309 304.98592 
L 302.117268 299.486302 
L 301.709167 298.7136 
L 300.403019 296.062381 
L 298.694419 292.44128 
L 298.430396 291.836756 
L 298.049733 291.028011 
L 297.372625 289.8432 
L 296.55363 288.286982 
L 296.08802 287.24512 
L 293.944458 283.044859 
L 292.77776 280.9728 
L 290.526986 276.705628 
L 289.305768 274.70048 
L 288.213247 272.819702 
L 287.821581 272.1024 
L 287.591215 271.667443 
L 286.308814 269.50432 
L 284.237532 265.856971 
L 282.538504 263.232 
L 280.06936 259.181335 
L 278.602485 256.95968 
L 278.127316 256.269097 
L 276.955112 254.3616 
L 276.085061 252.961091 
L 275.452494 252.087998 
L 275.226183 251.76352 
L 272.501304 247.746172 
L 271.002695 245.4912 
L 270.774978 245.12798 
L 266.645757 239.21888 
L 266.18922 238.551851 
L 264.834824 236.6208 
L 263.518625 234.9017 
L 262.905849 234.02272 
L 260.995784 231.329881 
L 258.294417 227.7504 
L 256.519883 225.267475 
L 253.56518 221.47808 
L 252.260653 219.784828 
L 251.569852 218.88 
L 250.012554 216.954747 
L 249.509862 216.28192 
L 249.071097 215.689245 
L 247.625973 213.889607 
L 245.651913 211.352079 
L 244.552405 210.0096 
L 241.566643 206.172016 
L 239.532786 203.73728 
L 237.561882 201.367405 
L 237.378994 201.1392 
L 236.935813 200.626819 
L 235.271765 198.54112 
L 233.905792 196.826172 
L 230.026132 192.2688 
L 229.987802 192.221491 
L 229.923177 192.145139 
L 226.17208 187.56017 
L 224.816487 185.99648 
L 223.002112 183.909912 
L 222.594736 183.3984 
L 222.470583 183.250597 
L 222.39015 183.164661 
L 220.439161 180.80032 
L 218.396683 178.339847 
L 215.056751 174.528 
L 214.177757 173.476982 
L 212.768475 171.850683 
L 210.549333 169.198373 
L 209.723283 168.25568 
L 208.588747 166.975283 
L 207.525809 165.6576 
L 206.99089 165.065194 
L 205.324273 163.05952 
L 202.749272 160.005078 
L 199.918203 156.7872 
L 198.311816 154.880346 
L 195.753888 151.926911 
L 194.882719 150.884647 
L 194.562606 150.51488 
L 194.122258 150.01654 
L 192.449274 147.9168 
L 191.920305 147.315047 
L 191.585316 146.968593 
L 190.236626 145.31872 
L 187.142998 141.62523 
L 184.913355 139.0464 
L 182.499654 136.141437 
L 179.645381 132.77408 
L 178.636405 131.499051 
L 177.656929 130.176 
L 176.392733 128.775314 
L 175.45006 127.57792 
L 171.735325 123.02775 
L 170.300086 121.3056 
L 166.838755 117.00235 
L 165.235831 115.03328 
L 164.700988 114.317811 
L 163.383969 112.4352 
L 161.595181 110.402727 
L 161.174853 109.83712 
L 156.66037 104.065669 
L 156.26513 103.5648 
L 151.82652 97.766875 
L 151.46821 97.29248 
L 151.448382 97.267618 
L 149.785231 94.6944 
L 148.288559 92.867146 
L 147.599577 92.09632 
L 146.976488 91.237422 
L 143.049962 85.824 
L 142.124111 84.513271 
L 138.634939 79.55168 
L 137.75809 78.39244 
L 137.442947 77.818762 
L 136.919233 76.9536 
L 134.945005 74.419857 
L 134.890336 74.35552 
L 132.050643 70.153711 
L 130.665328 68.0832 
L 128.185813 64.305613 
L 126.581088 61.81088 
L 124.741164 59.213982 
L 124.740496 59.2128 
L 124.739992 59.21215 
L 123.217186 56.61472 
L 121.463689 53.931086 
L 119.174558 50.3424 
L 117.593227 47.830742 
L 115.270562 44.07008 
L 114.869706 43.416141 
L 113.770551 41.472 
L 108.54912 41.472 
L 100.4544 41.472 
L 100.4544 50.3424 
L 100.4544 59.2128 
L 100.4544 68.0832 
L 100.4544 76.9536 
L 100.4544 85.824 
L 100.4544 94.6944 
L 100.4544 103.5648 
L 100.4544 112.4352 
L 100.4544 121.3056 
L 100.4544 130.176 
L 100.4544 132.591373 
L 102.075195 134.758495 
L 105.367397 139.0464 
L 106.833699 140.926202 
L 110.33329 145.31872 
L 111.334652 146.652431 
L 112.476909 147.9168 
L 113.348997 149.108366 
L 114.419228 150.51488 
L 117.584586 154.298402 
L 119.682093 156.7872 
L 122.137552 159.637451 
L 125.106726 163.05952 
L 126.578222 164.822567 
L 127.380531 165.6576 
L 128.050562 166.479802 
L 128.985952 167.585516 
L 129.597017 168.25568 
L 130.02199 168.738284 
L 131.109427 169.96745 
L 133.544785 172.645674 
L 135.254414 174.528 
L 138.121938 177.602954 
L 141.090498 180.80032 
L 142.712422 182.58844 
L 143.528309 183.3984 
L 144.260853 184.225778 
L 145.339384 185.400753 
L 145.91706 185.99648 
L 146.291824 186.390985 
L 147.14098 187.290549 
L 149.848847 190.083235 
L 151.94986 192.2688 
L 154.639052 194.98468 
L 158.110434 198.54112 
L 159.551728 200.034263 
L 160.700436 201.1392 
L 163.12805 203.666087 
L 163.192573 203.73728 
L 166.391241 206.890273 
L 169.507552 210.0096 
L 171.523321 211.964069 
L 175.874139 216.28192 
L 176.864014 217.265396 
L 178.566655 218.88 
L 180.253065 220.604385 
L 181.137689 221.47808 
L 183.070621 223.33491 
L 187.568444 227.7504 
L 188.601401 228.731075 
L 194.00078 234.02272 
L 194.388787 234.400081 
L 196.718737 236.6208 
L 198.525879 238.398236 
L 199.312124 239.21888 
L 199.789511 239.67502 
L 205.485884 245.27217 
L 205.697032 245.478847 
L 205.7091 245.4912 
L 211.590908 251.283838 
L 212.061807 251.76352 
L 212.272615 251.977765 
L 214.706922 254.3616 
L 216.930421 256.606064 
L 217.275701 256.95968 
L 222.665743 262.365703 
L 223.483266 263.232 
L 228.167698 267.999881 
L 229.586318 269.50432 
L 230.183016 270.145792 
L 232.078132 272.1024 
L 233.899139 273.993145 
L 234.549242 274.70048 
L 239.257122 279.666048 
L 240.415335 280.9728 
L 244.492912 285.381484 
L 246.132811 287.24512 
L 246.759596 287.9827 
L 248.415421 289.8432 
L 249.515171 291.019631 
L 250.125209 291.717318 
L 250.730523 292.44128 
L 255.255557 297.616156 
L 256.13798 298.7136 
L 260.424864 303.803482 
L 261.361569 304.98592 
L 262.949713 306.925504 
L 263.461166 307.584 
L 270.44352 307.584 
L 278.53824 307.584 
L 286.63296 307.584 
L 294.72768 307.584 
L 302.8224 307.584 
" clip-path="url(#p1c4fbcb234)" style="fill: #0018ff"/>
   </g>
   <g id="PathCollection_13">
    <path d="M 263.461166 307.584 
L 262.949713 306.925504 
L 261.361569 304.98592 
L 260.424864 303.803482 
L 256.13798 298.7136 
L 255.255557 297.616156 
L 250.730523 292.44128 
L 250.125209 291.717318 
L 249.515171 291.019631 
L 248.415421 289.8432 
L 246.759596 287.9827 
L 246.132811 287.24512 
L 244.492912 285.381484 
L 240.415335 280.9728 
L 239.257122 279.666048 
L 234.549242 274.70048 
L 233.899139 273.993145 
L 232.078132 272.1024 
L 230.183016 270.145792 
L 229.586318 269.50432 
L 228.167698 267.999881 
L 223.483266 263.232 
L 222.665743 262.365703 
L 217.275701 256.95968 
L 216.930421 256.606064 
L 214.706922 254.3616 
L 212.272615 251.977765 
L 212.061807 251.76352 
L 211.590908 251.283838 
L 205.7091 245.4912 
L 205.697032 245.478847 
L 205.485884 245.27217 
L 199.789511 239.67502 
L 199.312124 239.21888 
L 198.525879 238.398236 
L 196.718737 236.6208 
L 194.388787 234.400081 
L 194.00078 234.02272 
L 188.601401 228.731075 
L 187.568444 227.7504 
L 183.070621 223.33491 
L 181.137689 221.47808 
L 180.253065 220.604385 
L 178.566655 218.88 
L 176.864014 217.265396 
L 175.874139 216.28192 
L 171.523321 211.964069 
L 169.507552 210.0096 
L 166.391241 206.890273 
L 163.192573 203.73728 
L 163.12805 203.666087 
L 160.700436 201.1392 
L 159.551728 200.034263 
L 158.110434 198.54112 
L 154.639052 194.98468 
L 151.94986 192.2688 
L 149.848847 190.083235 
L 147.14098 187.290549 
L 146.291824 186.390985 
L 145.91706 185.99648 
L 145.339384 185.400753 
L 144.260853 184.225778 
L 143.528309 183.3984 
L 142.712422 182.58844 
L 141.090498 180.80032 
L 138.121938 177.602954 
L 135.254414 174.528 
L 133.544785 172.645674 
L 131.109427 169.96745 
L 130.02199 168.738284 
L 129.597017 168.25568 
L 128.985952 167.585516 
L 128.050562 166.479802 
L 127.380531 165.6576 
L 126.578222 164.822567 
L 125.106726 163.05952 
L 122.137552 159.637451 
L 119.682093 156.7872 
L 117.584586 154.298402 
L 114.419228 150.51488 
L 113.348997 149.108366 
L 112.476909 147.9168 
L 111.334652 146.652431 
L 110.33329 145.31872 
L 106.833699 140.926202 
L 105.367397 139.0464 
L 102.075195 134.758495 
L 100.4544 132.591373 
L 100.4544 139.0464 
L 100.4544 147.9168 
L 100.4544 156.7872 
L 100.4544 165.6576 
L 100.4544 174.528 
L 100.4544 183.3984 
L 100.4544 192.2688 
L 100.4544 198.846221 
L 101.478162 200.017335 
L 102.501845 201.1392 
L 104.249909 203.090637 
L 104.860452 203.73728 
L 109.581412 208.878388 
L 110.641236 210.0096 
L 114.933546 214.534279 
L 116.612445 216.28192 
L 117.390515 217.055853 
L 119.238968 218.88 
L 120.278754 219.987144 
L 120.87847 220.632117 
L 121.737405 221.47808 
L 126.299873 226.039474 
L 128.029009 227.7504 
L 131.53891 231.174728 
L 134.476485 234.02272 
L 134.630151 234.16522 
L 137.248882 236.6208 
L 138.413396 237.762193 
L 139.974421 239.21888 
L 143.572308 242.5935 
L 146.669894 245.4912 
L 148.41464 247.099909 
L 150.280299 248.818196 
L 152.353764 250.711357 
L 153.500887 251.76352 
L 155.577753 253.662727 
L 156.060194 254.09914 
L 156.351727 254.3616 
L 156.604757 254.59431 
L 159.229925 256.95968 
L 161.214364 258.742487 
L 164.704916 261.890059 
L 165.462792 262.56894 
L 166.197643 263.232 
L 170.124539 266.71929 
L 173.227244 269.50432 
L 175.190043 271.247621 
L 176.144492 272.1024 
L 179.059913 274.693231 
L 179.067943 274.70048 
L 182.593726 277.818962 
L 186.11816 280.9728 
L 187.99013 282.623321 
L 193.146317 287.24512 
L 193.851815 287.866216 
L 196.016759 289.8432 
L 198.548538 292.090407 
L 198.946514 292.44128 
L 199.705913 293.118583 
L 204.760489 297.699665 
L 205.773315 298.617656 
L 205.876116 298.7136 
L 211.748801 304.088522 
L 212.707816 304.98592 
L 214.576358 306.711857 
L 215.497313 307.584 
L 221.8752 307.584 
L 229.96992 307.584 
L 238.06464 307.584 
L 246.15936 307.584 
L 254.25408 307.584 
L 262.3488 307.584 
" clip-path="url(#p1c4fbcb234)" style="fill: #0080ff"/>
   </g>
   <g id="PathCollection_14">
    <path d="M 215.497313 307.584 
L 214.576358 306.711857 
L 212.707816 304.98592 
L 211.748801 304.088522 
L 205.876116 298.7136 
L 205.773315 298.617656 
L 204.760489 297.699665 
L 199.705913 293.118583 
L 198.946514 292.44128 
L 198.548538 292.090407 
L 196.016759 289.8432 
L 193.851815 287.866216 
L 193.146317 287.24512 
L 187.99013 282.623321 
L 186.11816 280.9728 
L 182.593726 277.818962 
L 179.067943 274.70048 
L 179.059913 274.693231 
L 176.144492 272.1024 
L 175.190043 271.247621 
L 173.227244 269.50432 
L 170.124539 266.71929 
L 166.197643 263.232 
L 165.462792 262.56894 
L 164.704916 261.890059 
L 161.214364 258.742487 
L 159.229925 256.95968 
L 156.604757 254.59431 
L 156.351727 254.3616 
L 156.060194 254.09914 
L 155.577753 253.662727 
L 153.500887 251.76352 
L 152.353764 250.711357 
L 150.280299 248.818196 
L 148.41464 247.099909 
L 146.669894 245.4912 
L 143.572308 242.5935 
L 139.974421 239.21888 
L 138.413396 237.762193 
L 137.248882 236.6208 
L 134.630151 234.16522 
L 134.476485 234.02272 
L 131.53891 231.174728 
L 128.029009 227.7504 
L 126.299873 226.039474 
L 121.737405 221.47808 
L 120.87847 220.632117 
L 120.278754 219.987144 
L 119.238968 218.88 
L 117.390515 217.055853 
L 116.612445 216.28192 
L 114.933546 214.534279 
L 110.641236 210.0096 
L 109.581412 208.878388 
L 104.860452 203.73728 
L 104.249909 203.090637 
L 102.501845 201.1392 
L 101.478162 200.017335 
L 100.4544 198.846221 
L 100.4544 201.1392 
L 100.4544 210.0096 
L 100.4544 218.88 
L 100.4544 227.7504 
L 100.4544 236.6208 
L 100.4544 245.4912 
L 100.4544 253.07981 
L 101.062865 253.694828 
L 101.731641 254.3616 
L 103.850859 256.494168 
L 104.329577 256.95968 
L 109.563598 262.12031 
L 110.731633 263.232 
L 115.069708 267.396454 
L 117.321595 269.50432 
L 118.44468 270.539949 
L 120.103626 272.1024 
L 121.066027 273.014104 
L 121.619493 273.518163 
L 122.911814 274.70048 
L 127.014284 278.479004 
L 129.804785 280.9728 
L 132.061939 283.013426 
L 134.378966 285.061999 
L 135.928201 286.451707 
L 136.833721 287.24512 
L 138.586838 288.780533 
L 139.779783 289.8432 
L 140.172153 290.186283 
L 142.735524 292.44128 
L 144.906609 294.353739 
L 148.558207 297.484705 
L 149.256705 298.09458 
L 149.976338 298.7136 
L 153.953576 302.180642 
L 157.239045 304.98592 
L 159.190426 306.64306 
L 160.294376 307.584 
L 165.21216 307.584 
L 173.30688 307.584 
L 181.4016 307.584 
L 189.49632 307.584 
L 197.59104 307.584 
L 205.68576 307.584 
L 213.78048 307.584 
" clip-path="url(#p1c4fbcb234)" style="fill: #00e4f8"/>
   </g>
   <g id="PathCollection_15">
    <path d="M 160.294376 307.584 
L 159.190426 306.64306 
L 157.239045 304.98592 
L 153.953576 302.180642 
L 149.976338 298.7136 
L 149.256705 298.09458 
L 148.558207 297.484705 
L 144.906609 294.353739 
L 142.735524 292.44128 
L 140.172153 290.186283 
L 139.779783 289.8432 
L 138.586838 288.780533 
L 136.833721 287.24512 
L 135.928201 286.451707 
L 134.378966 285.061999 
L 132.061939 283.013426 
L 129.804785 280.9728 
L 127.014284 278.479004 
L 122.911814 274.70048 
L 121.619493 273.518163 
L 121.066027 273.014104 
L 120.103626 272.1024 
L 118.44468 270.539949 
L 117.321595 269.50432 
L 115.069708 267.396454 
L 110.731633 263.232 
L 109.563598 262.12031 
L 104.329577 256.95968 
L 103.850859 256.494168 
L 101.731641 254.3616 
L 101.062865 253.694828 
L 100.4544 253.07981 
L 100.4544 254.3616 
L 100.4544 263.232 
L 100.4544 272.1024 
L 100.4544 280.9728 
L 100.4544 289.8432 
L 100.4544 298.7136 
L 100.4544 307.584 
L 108.54912 307.584 
L 116.64384 307.584 
L 124.73856 307.584 
L 132.83328 307.584 
L 140.928 307.584 
L 149.02272 307.584 
L 157.11744 307.584 
" clip-path="url(#p1c4fbcb234)" style="fill: #53ffa4"/>
   </g>
   <g id="PathCollection_16">
    <path clip-path="url(#p1c4fbcb234)" style="fill: #a4ff53"/>
   </g>
   <g id="PathCollection_17">
    <path clip-path="url(#p1c4fbcb234)" style="fill: #f8f500"/>
   </g>
   <g id="PathCollection_18">
    <path clip-path="url(#p1c4fbcb234)" style="fill: #ff9400"/>
   </g>
   <g id="PathCollection_19">
    <path clip-path="url(#p1c4fbcb234)" style="fill: #ff3800"/>
   </g>
   <g id="PathCollection_20">
    <path clip-path="url(#p1c4fbcb234)" style="fill: #b60000"/>
   </g>
   <g id="matplotlib.axis_1">
    <g id="xtick_1">
     <g id="line2d_1">
      <defs>
       <path id="m988c5568b2" d="M 0 0 
L 0 3.5 
" style="stroke: #000000; stroke-width: 0.8"/>
      </defs>
      <g>
       <use xlink:href="#m988c5568b2" x="57.6" y="307.584" style="stroke: #000000; stroke-width: 0.8"/>
      </g>
     </g>
     <g id="text_1">
      <!-- 0.0 -->
      <g transform="translate(51.26875 321.385562) scale(0.1 -0.1)">
       <defs>
        <path id="Calibri-30" d="M 3022 2031 
Q 3022 1566 2948 1181 
Q 2875 797 2704 520 
Q 2534 244 2259 92 
Q 1984 -59 1581 -59 
Q 1200 -59 939 77 
Q 678 213 518 477 
Q 359 741 292 1127 
Q 225 1513 225 2013 
Q 225 2475 300 2861 
Q 375 3247 544 3523 
Q 713 3800 988 3951 
Q 1263 4103 1663 4103 
Q 2047 4103 2308 3967 
Q 2569 3831 2728 3567 
Q 2888 3303 2955 2917 
Q 3022 2531 3022 2031 
z
M 2472 1994 
Q 2472 2297 2450 2537 
Q 2428 2778 2386 2962 
Q 2344 3147 2276 3280 
Q 2209 3413 2115 3498 
Q 2022 3584 1901 3623 
Q 1781 3663 1631 3663 
Q 1366 3663 1200 3538 
Q 1034 3413 939 3194 
Q 844 2975 809 2681 
Q 775 2388 775 2050 
Q 775 1597 822 1280 
Q 869 963 970 763 
Q 1072 563 1230 472 
Q 1388 381 1613 381 
Q 1788 381 1920 437 
Q 2053 494 2148 598 
Q 2244 703 2306 850 
Q 2369 997 2406 1175 
Q 2444 1353 2458 1561 
Q 2472 1769 2472 1994 
z
" transform="scale(0.015625)"/>
        <path id="Calibri-2e" d="M 1144 341 
Q 1144 119 1070 45 
Q 997 -28 803 -28 
Q 616 -28 544 44 
Q 472 116 472 331 
Q 472 553 545 626 
Q 619 700 813 700 
Q 1000 700 1072 628 
Q 1144 556 1144 341 
z
" transform="scale(0.015625)"/>
       </defs>
       <use xlink:href="#Calibri-30"/>
       <use xlink:href="#Calibri-2e" x="50.683594"/>
       <use xlink:href="#Calibri-30" x="75.927734"/>
      </g>
     </g>
    </g>
    <g id="xtick_2">
     <g id="line2d_2">
      <g>
       <use xlink:href="#m988c5568b2" x="86.1696" y="307.584" style="stroke: #000000; stroke-width: 0.8"/>
      </g>
     </g>
     <g id="text_2">
      <!-- 0.1 -->
      <g transform="translate(79.83835 321.385562) scale(0.1 -0.1)">
       <defs>
        <path id="Calibri-31" d="M 2897 213 
Q 2897 153 2887 112 
Q 2878 72 2862 47 
Q 2847 22 2826 11 
Q 2806 0 2784 0 
L 672 0 
Q 650 0 631 11 
Q 613 22 595 47 
Q 578 72 568 112 
Q 559 153 559 213 
Q 559 269 568 309 
Q 578 350 592 376 
Q 606 403 626 417 
Q 647 431 672 431 
L 1516 431 
L 1516 3506 
L 734 3041 
Q 675 3009 639 3003 
Q 603 2997 581 3017 
Q 559 3038 551 3084 
Q 544 3131 544 3203 
Q 544 3256 548 3293 
Q 553 3331 562 3356 
Q 572 3381 589 3400 
Q 606 3419 634 3438 
L 1566 4034 
Q 1578 4044 1597 4050 
Q 1616 4056 1644 4062 
Q 1672 4069 1709 4070 
Q 1747 4072 1803 4072 
Q 1878 4072 1928 4065 
Q 1978 4059 2006 4048 
Q 2034 4038 2043 4020 
Q 2053 4003 2053 3984 
L 2053 431 
L 2784 431 
Q 2809 431 2831 417 
Q 2853 403 2867 376 
Q 2881 350 2889 309 
Q 2897 269 2897 213 
z
" transform="scale(0.015625)"/>
       </defs>
       <use xlink:href="#Calibri-30"/>
       <use xlink:href="#Calibri-2e" x="50.683594"/>
       <use xlink:href="#Calibri-31" x="75.927734"/>
      </g>
     </g>
    </g>
    <g id="xtick_3">
     <g id="line2d_3">
      <g>
       <use xlink:href="#m988c5568b2" x="114.7392" y="307.584" style="stroke: #000000; stroke-width: 0.8"/>
      </g>
     </g>
     <g id="text_3">
      <!-- 0.2 -->
      <g transform="translate(108.40795 321.385562) scale(0.1 -0.1)">
       <defs>
        <path id="Calibri-32" d="M 2888 231 
Q 2888 175 2880 131 
Q 2872 88 2858 58 
Q 2844 28 2820 14 
Q 2797 0 2769 0 
L 534 0 
Q 491 0 458 11 
Q 425 22 401 47 
Q 378 72 367 119 
Q 356 166 356 234 
Q 356 297 361 344 
Q 366 391 381 427 
Q 397 463 420 498 
Q 444 534 481 575 
L 1266 1406 
Q 1538 1694 1702 1922 
Q 1866 2150 1955 2337 
Q 2044 2525 2072 2678 
Q 2100 2831 2100 2966 
Q 2100 3100 2056 3220 
Q 2013 3341 1930 3431 
Q 1847 3522 1722 3575 
Q 1597 3628 1434 3628 
Q 1244 3628 1092 3575 
Q 941 3522 827 3459 
Q 713 3397 636 3344 
Q 559 3291 522 3291 
Q 500 3291 483 3303 
Q 466 3316 455 3344 
Q 444 3372 437 3419 
Q 431 3466 431 3531 
Q 431 3578 434 3612 
Q 438 3647 445 3672 
Q 453 3697 465 3719 
Q 478 3741 515 3773 
Q 553 3806 645 3862 
Q 738 3919 877 3973 
Q 1016 4028 1183 4065 
Q 1350 4103 1534 4103 
Q 1828 4103 2048 4020 
Q 2269 3938 2414 3794 
Q 2559 3650 2631 3459 
Q 2703 3269 2703 3053 
Q 2703 2859 2668 2667 
Q 2634 2475 2523 2251 
Q 2413 2028 2203 1754 
Q 1994 1481 1647 1125 
L 1006 456 
L 2766 456 
Q 2791 456 2814 442 
Q 2838 428 2855 400 
Q 2872 372 2880 330 
Q 2888 288 2888 231 
z
" transform="scale(0.015625)"/>
       </defs>
       <use xlink:href="#Calibri-30"/>
       <use xlink:href="#Calibri-2e" x="50.683594"/>
       <use xlink:href="#Calibri-32" x="75.927734"/>
      </g>
     </g>
    </g>
    <g id="xtick_4">
     <g id="line2d_4">
      <g>
       <use xlink:href="#m988c5568b2" x="143.3088" y="307.584" style="stroke: #000000; stroke-width: 0.8"/>
      </g>
     </g>
     <g id="text_4">
      <!-- 0.3 -->
      <g transform="translate(136.97755 321.385562) scale(0.1 -0.1)">
       <defs>
        <path id="Calibri-33" d="M 2856 1156 
Q 2856 878 2759 654 
Q 2663 431 2481 272 
Q 2300 113 2034 27 
Q 1769 -59 1434 -59 
Q 1231 -59 1054 -26 
Q 878 6 740 51 
Q 603 97 512 145 
Q 422 194 398 216 
Q 375 238 362 259 
Q 350 281 340 312 
Q 331 344 326 389 
Q 322 434 322 500 
Q 322 613 344 656 
Q 366 700 406 700 
Q 434 700 517 650 
Q 600 600 729 542 
Q 859 484 1032 434 
Q 1206 384 1419 384 
Q 1625 384 1781 437 
Q 1938 491 2044 587 
Q 2150 684 2203 817 
Q 2256 950 2256 1106 
Q 2256 1278 2189 1415 
Q 2122 1553 1992 1653 
Q 1863 1753 1673 1806 
Q 1484 1859 1244 1859 
L 859 1859 
Q 834 1859 811 1870 
Q 788 1881 770 1906 
Q 753 1931 742 1972 
Q 731 2013 731 2078 
Q 731 2138 740 2177 
Q 750 2216 767 2239 
Q 784 2263 806 2273 
Q 828 2284 856 2284 
L 1209 2284 
Q 1416 2284 1580 2337 
Q 1744 2391 1858 2491 
Q 1972 2591 2033 2730 
Q 2094 2869 2094 3041 
Q 2094 3166 2053 3280 
Q 2013 3394 1931 3478 
Q 1850 3563 1723 3611 
Q 1597 3659 1431 3659 
Q 1250 3659 1098 3604 
Q 947 3550 828 3487 
Q 709 3425 631 3370 
Q 553 3316 522 3316 
Q 500 3316 483 3323 
Q 466 3331 455 3354 
Q 444 3378 439 3420 
Q 434 3463 434 3531 
Q 434 3578 437 3614 
Q 441 3650 450 3676 
Q 459 3703 471 3725 
Q 484 3747 514 3776 
Q 544 3806 634 3862 
Q 725 3919 858 3973 
Q 991 4028 1164 4065 
Q 1338 4103 1538 4103 
Q 1819 4103 2031 4031 
Q 2244 3959 2386 3828 
Q 2528 3697 2598 3514 
Q 2669 3331 2669 3109 
Q 2669 2919 2619 2755 
Q 2569 2591 2472 2464 
Q 2375 2338 2234 2248 
Q 2094 2159 1909 2125 
L 1909 2119 
Q 2119 2097 2292 2014 
Q 2466 1931 2591 1806 
Q 2716 1681 2786 1514 
Q 2856 1347 2856 1156 
z
" transform="scale(0.015625)"/>
       </defs>
       <use xlink:href="#Calibri-30"/>
       <use xlink:href="#Calibri-2e" x="50.683594"/>
       <use xlink:href="#Calibri-33" x="75.927734"/>
      </g>
     </g>
    </g>
    <g id="xtick_5">
     <g id="line2d_5">
      <g>
       <use xlink:href="#m988c5568b2" x="171.8784" y="307.584" style="stroke: #000000; stroke-width: 0.8"/>
      </g>
     </g>
     <g id="text_5">
      <!-- 0.4 -->
      <g transform="translate(165.54715 321.385562) scale(0.1 -0.1)">
       <defs>
        <path id="Calibri-34" d="M 3059 1150 
Q 3059 1047 3028 987 
Q 2997 928 2941 928 
L 2484 928 
L 2484 78 
Q 2484 53 2471 36 
Q 2459 19 2428 6 
Q 2397 -6 2347 -12 
Q 2297 -19 2219 -19 
Q 2144 -19 2094 -12 
Q 2044 -6 2014 6 
Q 1984 19 1973 36 
Q 1963 53 1963 78 
L 1963 928 
L 294 928 
Q 256 928 231 937 
Q 206 947 186 972 
Q 166 997 158 1044 
Q 150 1091 150 1166 
Q 150 1225 153 1272 
Q 156 1319 165 1358 
Q 175 1397 190 1433 
Q 206 1469 228 1509 
L 1684 3966 
Q 1700 3991 1729 4009 
Q 1759 4028 1806 4040 
Q 1853 4053 1922 4058 
Q 1991 4063 2084 4063 
Q 2188 4063 2264 4055 
Q 2341 4047 2387 4034 
Q 2434 4022 2459 4001 
Q 2484 3981 2484 3953 
L 2484 1372 
L 2941 1372 
Q 2994 1372 3026 1317 
Q 3059 1263 3059 1150 
z
M 1963 3591 
L 1956 3591 
L 641 1372 
L 1963 1372 
L 1963 3591 
z
" transform="scale(0.015625)"/>
       </defs>
       <use xlink:href="#Calibri-30"/>
       <use xlink:href="#Calibri-2e" x="50.683594"/>
       <use xlink:href="#Calibri-34" x="75.927734"/>
      </g>
     </g>
    </g>
    <g id="xtick_6">
     <g id="line2d_6">
      <g>
       <use xlink:href="#m988c5568b2" x="200.448" y="307.584" style="stroke: #000000; stroke-width: 0.8"/>
      </g>
     </g>
     <g id="text_6">
      <!-- 0.5 -->
      <g transform="translate(194.11675 321.385562) scale(0.1 -0.1)">
       <defs>
        <path id="Calibri-35" d="M 2869 1300 
Q 2869 975 2759 722 
Q 2650 469 2450 295 
Q 2250 122 1973 31 
Q 1697 -59 1359 -59 
Q 1172 -59 1003 -32 
Q 834 -6 703 33 
Q 572 72 487 109 
Q 403 147 379 169 
Q 356 191 347 209 
Q 338 228 330 254 
Q 322 281 319 322 
Q 316 363 316 419 
Q 316 472 320 514 
Q 325 556 337 582 
Q 350 609 367 621 
Q 384 634 406 634 
Q 438 634 503 595 
Q 569 556 680 511 
Q 791 466 955 425 
Q 1119 384 1344 384 
Q 1553 384 1728 434 
Q 1903 484 2029 590 
Q 2156 697 2228 858 
Q 2300 1019 2300 1250 
Q 2300 1444 2239 1592 
Q 2178 1741 2051 1839 
Q 1925 1938 1731 1986 
Q 1538 2034 1269 2034 
Q 1078 2034 940 2015 
Q 803 1997 684 1997 
Q 597 1997 559 2037 
Q 522 2078 522 2194 
L 522 3841 
Q 522 3944 570 3994 
Q 619 4044 709 4044 
L 2500 4044 
Q 2525 4044 2548 4030 
Q 2572 4016 2587 3987 
Q 2603 3959 2611 3915 
Q 2619 3872 2619 3813 
Q 2619 3700 2587 3637 
Q 2556 3575 2500 3575 
L 991 3575 
L 991 2441 
Q 1100 2456 1214 2459 
Q 1328 2463 1478 2463 
Q 1825 2463 2084 2380 
Q 2344 2297 2517 2145 
Q 2691 1994 2780 1778 
Q 2869 1563 2869 1300 
z
" transform="scale(0.015625)"/>
       </defs>
       <use xlink:href="#Calibri-30"/>
       <use xlink:href="#Calibri-2e" x="50.683594"/>
       <use xlink:href="#Calibri-35" x="75.927734"/>
      </g>
     </g>
    </g>
    <g id="xtick_7">
     <g id="line2d_7">
      <g>
       <use xlink:href="#m988c5568b2" x="229.0176" y="307.584" style="stroke: #000000; stroke-width: 0.8"/>
      </g>
     </g>
     <g id="text_7">
      <!-- 0.6 -->
      <g transform="translate(222.68635 321.385562) scale(0.1 -0.1)">
       <defs>
        <path id="Calibri-36" d="M 2991 1309 
Q 2991 1044 2909 795 
Q 2828 547 2659 358 
Q 2491 169 2231 55 
Q 1972 -59 1619 -59 
Q 1366 -59 1172 3 
Q 978 66 834 181 
Q 691 297 595 465 
Q 500 634 442 850 
Q 384 1066 359 1322 
Q 334 1578 334 1872 
Q 334 2131 362 2397 
Q 391 2663 462 2909 
Q 534 3156 657 3373 
Q 781 3591 967 3752 
Q 1153 3913 1412 4006 
Q 1672 4100 2016 4100 
Q 2131 4100 2250 4086 
Q 2369 4072 2469 4048 
Q 2569 4025 2637 3997 
Q 2706 3969 2728 3951 
Q 2750 3934 2761 3914 
Q 2772 3894 2778 3870 
Q 2784 3847 2787 3817 
Q 2791 3788 2791 3744 
Q 2791 3688 2789 3647 
Q 2788 3606 2777 3581 
Q 2766 3556 2748 3543 
Q 2731 3531 2703 3531 
Q 2669 3531 2609 3553 
Q 2550 3575 2465 3601 
Q 2381 3628 2261 3650 
Q 2141 3672 1981 3672 
Q 1691 3672 1481 3553 
Q 1272 3434 1139 3234 
Q 1006 3034 942 2770 
Q 878 2506 869 2219 
Q 950 2266 1051 2312 
Q 1153 2359 1273 2396 
Q 1394 2434 1528 2457 
Q 1663 2481 1816 2481 
Q 2144 2481 2369 2392 
Q 2594 2303 2733 2145 
Q 2872 1988 2931 1773 
Q 2991 1559 2991 1309 
z
M 2447 1259 
Q 2447 1441 2411 1589 
Q 2375 1738 2290 1841 
Q 2206 1944 2065 2000 
Q 1925 2056 1719 2056 
Q 1603 2056 1487 2036 
Q 1372 2016 1264 1980 
Q 1156 1944 1057 1895 
Q 959 1847 878 1791 
Q 878 1388 929 1116 
Q 981 844 1079 680 
Q 1178 516 1325 445 
Q 1472 375 1669 375 
Q 1869 375 2016 450 
Q 2163 525 2259 651 
Q 2356 778 2401 936 
Q 2447 1094 2447 1259 
z
" transform="scale(0.015625)"/>
       </defs>
       <use xlink:href="#Calibri-30"/>
       <use xlink:href="#Calibri-2e" x="50.683594"/>
       <use xlink:href="#Calibri-36" x="75.927734"/>
      </g>
     </g>
    </g>
    <g id="xtick_8">
     <g id="line2d_8">
      <g>
       <use xlink:href="#m988c5568b2" x="257.5872" y="307.584" style="stroke: #000000; stroke-width: 0.8"/>
      </g>
     </g>
     <g id="text_8">
      <!-- 0.7 -->
      <g transform="translate(251.25595 321.385562) scale(0.1 -0.1)">
       <defs>
        <path id="Calibri-37" d="M 2947 3813 
Q 2947 3756 2942 3711 
Q 2938 3666 2930 3623 
Q 2922 3581 2908 3542 
Q 2894 3503 2875 3459 
L 1419 103 
Q 1403 66 1379 42 
Q 1356 19 1320 5 
Q 1284 -9 1228 -14 
Q 1172 -19 1091 -19 
Q 984 -19 925 -9 
Q 866 0 839 20 
Q 813 41 816 70 
Q 819 100 838 141 
L 2369 3572 
L 428 3572 
Q 369 3572 339 3634 
Q 309 3697 309 3809 
Q 309 3869 317 3912 
Q 325 3956 340 3986 
Q 356 4016 378 4030 
Q 400 4044 428 4044 
L 2784 4044 
Q 2828 4044 2861 4034 
Q 2894 4025 2911 3997 
Q 2928 3969 2937 3925 
Q 2947 3881 2947 3813 
z
" transform="scale(0.015625)"/>
       </defs>
       <use xlink:href="#Calibri-30"/>
       <use xlink:href="#Calibri-2e" x="50.683594"/>
       <use xlink:href="#Calibri-37" x="75.927734"/>
      </g>
     </g>
    </g>
    <g id="xtick_9">
     <g id="line2d_9">
      <g>
       <use xlink:href="#m988c5568b2" x="286.1568" y="307.584" style="stroke: #000000; stroke-width: 0.8"/>
      </g>
     </g>
     <g id="text_9">
      <!-- 0.8 -->
      <g transform="translate(279.82555 321.385562) scale(0.1 -0.1)">
       <defs>
        <path id="Calibri-38" d="M 2981 1038 
Q 2981 775 2887 570 
Q 2794 366 2617 225 
Q 2441 84 2181 12 
Q 1922 -59 1588 -59 
Q 1275 -59 1028 6 
Q 781 72 609 200 
Q 438 328 347 515 
Q 256 703 256 944 
Q 256 1134 318 1293 
Q 381 1453 498 1587 
Q 616 1722 787 1839 
Q 959 1956 1175 2063 
Q 988 2159 844 2267 
Q 700 2375 600 2501 
Q 500 2628 448 2772 
Q 397 2916 397 3084 
Q 397 3297 473 3483 
Q 550 3669 704 3806 
Q 859 3944 1098 4023 
Q 1338 4103 1656 4103 
Q 1963 4103 2186 4029 
Q 2409 3956 2554 3829 
Q 2700 3703 2769 3531 
Q 2838 3359 2838 3163 
Q 2838 3003 2786 2856 
Q 2734 2709 2634 2578 
Q 2534 2447 2389 2333 
Q 2244 2219 2056 2119 
Q 2278 2009 2451 1893 
Q 2625 1778 2742 1645 
Q 2859 1513 2920 1364 
Q 2981 1216 2981 1038 
z
M 2306 3113 
Q 2306 3244 2261 3350 
Q 2216 3456 2128 3531 
Q 2041 3606 1911 3645 
Q 1781 3684 1616 3684 
Q 1278 3684 1104 3531 
Q 931 3378 931 3113 
Q 931 2991 973 2886 
Q 1016 2781 1105 2687 
Q 1194 2594 1330 2505 
Q 1466 2416 1653 2319 
Q 1969 2481 2137 2678 
Q 2306 2875 2306 3113 
z
M 2438 981 
Q 2438 1125 2384 1242 
Q 2331 1359 2223 1461 
Q 2116 1563 1955 1658 
Q 1794 1753 1581 1856 
Q 1384 1759 1236 1662 
Q 1088 1566 992 1462 
Q 897 1359 848 1245 
Q 800 1131 800 994 
Q 800 691 1008 525 
Q 1216 359 1628 359 
Q 2028 359 2233 526 
Q 2438 694 2438 981 
z
" transform="scale(0.015625)"/>
       </defs>
       <use xlink:href="#Calibri-30"/>
       <use xlink:href="#Calibri-2e" x="50.683594"/>
       <use xlink:href="#Calibri-38" x="75.927734"/>
      </g>
     </g>
    </g>
    <g id="xtick_10">
     <g id="line2d_10">
      <g>
       <use xlink:href="#m988c5568b2" x="314.7264" y="307.584" style="stroke: #000000; stroke-width: 0.8"/>
      </g>
     </g>
     <g id="text_10">
      <!-- 0.9 -->
      <g transform="translate(308.39515 321.385562) scale(0.1 -0.1)">
       <defs>
        <path id="Calibri-39" d="M 2919 2181 
Q 2919 1919 2887 1650 
Q 2856 1381 2781 1132 
Q 2706 884 2579 667 
Q 2453 450 2261 287 
Q 2069 125 1805 33 
Q 1541 -59 1191 -59 
Q 1056 -59 929 -42 
Q 803 -25 701 0 
Q 600 25 531 53 
Q 463 81 431 109 
Q 400 138 386 186 
Q 372 234 372 316 
Q 372 384 376 425 
Q 381 466 390 487 
Q 400 509 417 517 
Q 434 525 459 525 
Q 494 525 556 501 
Q 619 478 714 450 
Q 809 422 937 398 
Q 1066 375 1225 375 
Q 1528 375 1745 492 
Q 1963 609 2100 806 
Q 2238 1003 2306 1262 
Q 2375 1522 2381 1809 
Q 2216 1713 1984 1638 
Q 1753 1563 1453 1563 
Q 1116 1563 886 1655 
Q 656 1747 517 1906 
Q 378 2066 317 2284 
Q 256 2503 256 2763 
Q 256 3031 334 3273 
Q 413 3516 578 3700 
Q 744 3884 1000 3993 
Q 1256 4103 1613 4103 
Q 1866 4103 2061 4039 
Q 2256 3975 2400 3854 
Q 2544 3734 2644 3564 
Q 2744 3394 2805 3178 
Q 2866 2963 2892 2711 
Q 2919 2459 2919 2181 
z
M 2372 2241 
Q 2372 2641 2319 2914 
Q 2266 3188 2162 3356 
Q 2059 3525 1909 3600 
Q 1759 3675 1563 3675 
Q 1359 3675 1215 3601 
Q 1072 3528 980 3404 
Q 888 3281 844 3125 
Q 800 2969 800 2803 
Q 800 2619 839 2466 
Q 878 2313 965 2206 
Q 1053 2100 1193 2042 
Q 1334 1984 1541 1984 
Q 1775 1984 1994 2054 
Q 2213 2125 2372 2241 
z
" transform="scale(0.015625)"/>
       </defs>
       <use xlink:href="#Calibri-30"/>
       <use xlink:href="#Calibri-2e" x="50.683594"/>
       <use xlink:href="#Calibri-39" x="75.927734"/>
      </g>
     </g>
    </g>
    <g id="xtick_11">
     <g id="line2d_11">
      <g>
       <use xlink:href="#m988c5568b2" x="343.296" y="307.584" style="stroke: #000000; stroke-width: 0.8"/>
      </g>
     </g>
     <g id="text_11">
      <!-- 1.0 -->
      <g transform="translate(336.96475 321.385562) scale(0.1 -0.1)">
       <use xlink:href="#Calibri-31"/>
       <use xlink:href="#Calibri-2e" x="50.683594"/>
       <use xlink:href="#Calibri-30" x="75.927734"/>
      </g>
     </g>
    </g>
    <g id="text_12">
     <!-- $\mathit{p}$ (cm$^2$/cm$^2$) -->
     <g transform="translate(174.148 336.263687) scale(0.1 -0.1)">
      <defs>
       <path id="DejaVuSans-Oblique-70" d="M 3175 2156 
Q 3175 2616 2975 2859 
Q 2775 3103 2400 3103 
Q 2144 3103 1911 2972 
Q 1678 2841 1497 2591 
Q 1319 2344 1212 1994 
Q 1106 1644 1106 1300 
Q 1106 863 1306 627 
Q 1506 391 1875 391 
Q 2147 391 2380 519 
Q 2613 647 2778 891 
Q 2956 1147 3065 1494 
Q 3175 1841 3175 2156 
z
M 1394 2969 
Q 1625 3272 1939 3428 
Q 2253 3584 2638 3584 
Q 3175 3584 3472 3232 
Q 3769 2881 3769 2247 
Q 3769 1728 3584 1258 
Q 3400 788 3053 416 
Q 2822 169 2531 39 
Q 2241 -91 1919 -91 
Q 1547 -91 1294 64 
Q 1041 219 916 525 
L 556 -1331 
L -19 -1331 
L 922 3500 
L 1497 3500 
L 1394 2969 
z
" transform="scale(0.015625)"/>
       <path id="Calibri-20" transform="scale(0.015625)"/>
       <path id="Calibri-28" d="M 1547 4306 
Q 1250 3678 1104 3017 
Q 959 2356 959 1688 
Q 959 1016 1107 356 
Q 1256 -303 1541 -938 
Q 1556 -975 1557 -1001 
Q 1559 -1028 1537 -1045 
Q 1516 -1063 1470 -1070 
Q 1425 -1078 1347 -1078 
Q 1291 -1078 1250 -1075 
Q 1209 -1072 1179 -1062 
Q 1150 -1053 1131 -1040 
Q 1113 -1028 1103 -1013 
Q 934 -694 806 -367 
Q 678 -41 590 296 
Q 503 634 459 979 
Q 416 1325 416 1678 
Q 416 2031 464 2375 
Q 513 2719 602 3058 
Q 691 3397 819 3725 
Q 947 4053 1106 4375 
Q 1109 4388 1123 4397 
Q 1138 4406 1163 4415 
Q 1188 4425 1231 4429 
Q 1275 4434 1344 4434 
Q 1416 4434 1459 4425 
Q 1503 4416 1528 4400 
Q 1553 4384 1556 4359 
Q 1559 4334 1547 4306 
z
" transform="scale(0.015625)"/>
       <path id="Calibri-63" d="M 2500 506 
Q 2500 453 2497 414 
Q 2494 375 2486 348 
Q 2478 322 2467 301 
Q 2456 281 2417 242 
Q 2378 203 2284 145 
Q 2191 88 2073 42 
Q 1956 -3 1818 -31 
Q 1681 -59 1534 -59 
Q 1231 -59 997 41 
Q 763 141 605 333 
Q 447 525 364 804 
Q 281 1084 281 1450 
Q 281 1866 382 2164 
Q 484 2463 661 2653 
Q 838 2844 1077 2936 
Q 1316 3028 1594 3028 
Q 1728 3028 1854 3003 
Q 1981 2978 2087 2937 
Q 2194 2897 2276 2844 
Q 2359 2791 2396 2753 
Q 2434 2716 2448 2694 
Q 2463 2672 2472 2642 
Q 2481 2613 2484 2575 
Q 2488 2538 2488 2481 
Q 2488 2359 2459 2311 
Q 2431 2263 2391 2263 
Q 2344 2263 2283 2314 
Q 2222 2366 2128 2428 
Q 2034 2491 1901 2542 
Q 1769 2594 1588 2594 
Q 1216 2594 1017 2308 
Q 819 2022 819 1478 
Q 819 1206 870 1001 
Q 922 797 1022 659 
Q 1122 522 1267 455 
Q 1413 388 1600 388 
Q 1778 388 1912 444 
Q 2047 500 2145 567 
Q 2244 634 2311 689 
Q 2378 744 2416 744 
Q 2438 744 2453 731 
Q 2469 719 2480 689 
Q 2491 659 2495 614 
Q 2500 569 2500 506 
z
" transform="scale(0.015625)"/>
       <path id="Calibri-6d" d="M 4650 78 
Q 4650 53 4637 36 
Q 4625 19 4597 6 
Q 4569 -6 4519 -12 
Q 4469 -19 4394 -19 
Q 4316 -19 4266 -12 
Q 4216 -6 4186 6 
Q 4156 19 4143 36 
Q 4131 53 4131 78 
L 4131 1788 
Q 4131 1966 4100 2112 
Q 4069 2259 4000 2365 
Q 3931 2472 3825 2528 
Q 3719 2584 3575 2584 
Q 3397 2584 3217 2446 
Q 3038 2309 2822 2044 
L 2822 78 
Q 2822 53 2809 36 
Q 2797 19 2767 6 
Q 2738 -6 2688 -12 
Q 2638 -19 2563 -19 
Q 2491 -19 2439 -12 
Q 2388 -6 2358 6 
Q 2328 19 2317 36 
Q 2306 53 2306 78 
L 2306 1788 
Q 2306 1966 2272 2112 
Q 2238 2259 2169 2365 
Q 2100 2472 1995 2528 
Q 1891 2584 1747 2584 
Q 1569 2584 1387 2446 
Q 1206 2309 994 2044 
L 994 78 
Q 994 53 981 36 
Q 969 19 941 6 
Q 913 -6 863 -12 
Q 813 -19 734 -19 
Q 659 -19 609 -12 
Q 559 -6 529 6 
Q 500 19 489 36 
Q 478 53 478 78 
L 478 2891 
Q 478 2916 487 2933 
Q 497 2950 525 2964 
Q 553 2978 597 2983 
Q 641 2988 713 2988 
Q 781 2988 826 2983 
Q 872 2978 897 2964 
Q 922 2950 933 2933 
Q 944 2916 944 2891 
L 944 2519 
Q 1181 2784 1404 2907 
Q 1628 3031 1856 3031 
Q 2031 3031 2170 2990 
Q 2309 2950 2415 2876 
Q 2522 2803 2597 2701 
Q 2672 2600 2722 2475 
Q 2863 2628 2989 2734 
Q 3116 2841 3233 2906 
Q 3350 2972 3461 3001 
Q 3572 3031 3684 3031 
Q 3956 3031 4140 2936 
Q 4325 2841 4439 2681 
Q 4553 2522 4601 2308 
Q 4650 2094 4650 1856 
L 4650 78 
z
" transform="scale(0.015625)"/>
       <path id="DejaVuSans-32" d="M 1228 531 
L 3431 531 
L 3431 0 
L 469 0 
L 469 531 
Q 828 903 1448 1529 
Q 2069 2156 2228 2338 
Q 2531 2678 2651 2914 
Q 2772 3150 2772 3378 
Q 2772 3750 2511 3984 
Q 2250 4219 1831 4219 
Q 1534 4219 1204 4116 
Q 875 4013 500 3803 
L 500 4441 
Q 881 4594 1212 4672 
Q 1544 4750 1819 4750 
Q 2544 4750 2975 4387 
Q 3406 4025 3406 3419 
Q 3406 3131 3298 2873 
Q 3191 2616 2906 2266 
Q 2828 2175 2409 1742 
Q 1991 1309 1228 531 
z
" transform="scale(0.015625)"/>
       <path id="Calibri-2f" d="M 525 -753 
Q 513 -794 492 -817 
Q 472 -841 440 -853 
Q 409 -866 364 -872 
Q 319 -878 253 -878 
Q 175 -878 123 -867 
Q 72 -856 44 -836 
Q 16 -816 9 -786 
Q 3 -756 22 -716 
L 1913 4469 
Q 1925 4509 1945 4532 
Q 1966 4556 1995 4570 
Q 2025 4584 2072 4589 
Q 2119 4594 2184 4594 
Q 2263 4594 2313 4583 
Q 2363 4572 2391 4553 
Q 2419 4534 2425 4503 
Q 2431 4472 2416 4431 
L 525 -753 
z
" transform="scale(0.015625)"/>
       <path id="Calibri-29" d="M 1522 1678 
Q 1522 1325 1478 979 
Q 1434 634 1346 296 
Q 1259 -41 1132 -367 
Q 1006 -694 838 -1013 
Q 828 -1028 809 -1040 
Q 791 -1053 761 -1062 
Q 731 -1072 690 -1075 
Q 650 -1078 594 -1078 
Q 513 -1078 467 -1070 
Q 422 -1063 401 -1045 
Q 381 -1028 382 -1001 
Q 384 -975 400 -938 
Q 688 -306 834 355 
Q 981 1016 981 1688 
Q 981 2356 834 3017 
Q 688 3678 394 4306 
Q 381 4334 384 4359 
Q 388 4384 413 4400 
Q 438 4416 481 4425 
Q 525 4434 597 4434 
Q 663 4434 706 4429 
Q 750 4425 776 4415 
Q 803 4406 815 4397 
Q 828 4388 834 4375 
Q 1156 3734 1339 3057 
Q 1522 2381 1522 1678 
z
" transform="scale(0.015625)"/>
      </defs>
      <use xlink:href="#DejaVuSans-Oblique-70" transform="translate(0 0.765625)"/>
      <use xlink:href="#Calibri-20" transform="translate(63.476562 0.765625)"/>
      <use xlink:href="#Calibri-28" transform="translate(84.958984 0.765625)"/>
      <use xlink:href="#Calibri-63" transform="translate(115.28125 0.765625)"/>
      <use xlink:href="#Calibri-6d" transform="translate(157.566406 0.765625)"/>
      <use xlink:href="#DejaVuSans-32" transform="translate(238.40625 39.046875) scale(0.7)"/>
      <use xlink:href="#Calibri-2f" transform="translate(285.676758 0.765625)"/>
      <use xlink:href="#Calibri-63" transform="translate(324.299805 0.765625)"/>
      <use xlink:href="#Calibri-6d" transform="translate(366.584961 0.765625)"/>
      <use xlink:href="#DejaVuSans-32" transform="translate(447.424805 39.046875) scale(0.7)"/>
      <use xlink:href="#Calibri-29" transform="translate(494.695312 0.765625)"/>
     </g>
    </g>
   </g>
   <g id="matplotlib.axis_2">
    <g id="ytick_1">
     <g id="line2d_12">
      <defs>
       <path id="m549c5ddda5" d="M 0 0 
L -3.5 0 
" style="stroke: #000000; stroke-width: 0.8"/>
      </defs>
      <g>
       <use xlink:href="#m549c5ddda5" x="57.6" y="275.65056" style="stroke: #000000; stroke-width: 0.8"/>
      </g>
     </g>
     <g id="text_13">
      <!-- 25 -->
      <g transform="translate(40.4625 279.051341) scale(0.1 -0.1)">
       <use xlink:href="#Calibri-32"/>
       <use xlink:href="#Calibri-35" x="50.683594"/>
      </g>
     </g>
    </g>
    <g id="ytick_2">
     <g id="line2d_13">
      <g>
       <use xlink:href="#m549c5ddda5" x="57.6" y="242.38656" style="stroke: #000000; stroke-width: 0.8"/>
      </g>
     </g>
     <g id="text_14">
      <!-- 50 -->
      <g transform="translate(40.4625 245.787341) scale(0.1 -0.1)">
       <use xlink:href="#Calibri-35"/>
       <use xlink:href="#Calibri-30" x="50.683594"/>
      </g>
     </g>
    </g>
    <g id="ytick_3">
     <g id="line2d_14">
      <g>
       <use xlink:href="#m549c5ddda5" x="57.6" y="209.12256" style="stroke: #000000; stroke-width: 0.8"/>
      </g>
     </g>
     <g id="text_15">
      <!-- 75 -->
      <g transform="translate(40.4625 212.523341) scale(0.1 -0.1)">
       <use xlink:href="#Calibri-37"/>
       <use xlink:href="#Calibri-35" x="50.683594"/>
      </g>
     </g>
    </g>
    <g id="ytick_4">
     <g id="line2d_15">
      <g>
       <use xlink:href="#m549c5ddda5" x="57.6" y="175.85856" style="stroke: #000000; stroke-width: 0.8"/>
      </g>
     </g>
     <g id="text_16">
      <!-- 100 -->
      <g transform="translate(35.39375 179.259341) scale(0.1 -0.1)">
       <use xlink:href="#Calibri-31"/>
       <use xlink:href="#Calibri-30" x="50.683594"/>
       <use xlink:href="#Calibri-30" x="101.367188"/>
      </g>
     </g>
    </g>
    <g id="ytick_5">
     <g id="line2d_16">
      <g>
       <use xlink:href="#m549c5ddda5" x="57.6" y="142.59456" style="stroke: #000000; stroke-width: 0.8"/>
      </g>
     </g>
     <g id="text_17">
      <!-- 125 -->
      <g transform="translate(35.39375 145.995341) scale(0.1 -0.1)">
       <use xlink:href="#Calibri-31"/>
       <use xlink:href="#Calibri-32" x="50.683594"/>
       <use xlink:href="#Calibri-35" x="101.367188"/>
      </g>
     </g>
    </g>
    <g id="ytick_6">
     <g id="line2d_17">
      <g>
       <use xlink:href="#m549c5ddda5" x="57.6" y="109.33056" style="stroke: #000000; stroke-width: 0.8"/>
      </g>
     </g>
     <g id="text_18">
      <!-- 150 -->
      <g transform="translate(35.39375 112.731341) scale(0.1 -0.1)">
       <use xlink:href="#Calibri-31"/>
       <use xlink:href="#Calibri-35" x="50.683594"/>
       <use xlink:href="#Calibri-30" x="101.367188"/>
      </g>
     </g>
    </g>
    <g id="ytick_7">
     <g id="line2d_18">
      <g>
       <use xlink:href="#m549c5ddda5" x="57.6" y="76.06656" style="stroke: #000000; stroke-width: 0.8"/>
      </g>
     </g>
     <g id="text_19">
      <!-- 175 -->
      <g transform="translate(35.39375 79.467341) scale(0.1 -0.1)">
       <use xlink:href="#Calibri-31"/>
       <use xlink:href="#Calibri-37" x="50.683594"/>
       <use xlink:href="#Calibri-35" x="101.367188"/>
      </g>
     </g>
    </g>
    <g id="ytick_8">
     <g id="line2d_19">
      <g>
       <use xlink:href="#m549c5ddda5" x="57.6" y="42.80256" style="stroke: #000000; stroke-width: 0.8"/>
      </g>
     </g>
     <g id="text_20">
      <!-- 200 -->
      <g transform="translate(35.39375 46.203341) scale(0.1 -0.1)">
       <use xlink:href="#Calibri-32"/>
       <use xlink:href="#Calibri-30" x="50.683594"/>
       <use xlink:href="#Calibri-30" x="101.367188"/>
      </g>
     </g>
    </g>
    <g id="text_21">
     <!-- $\mathit{Z}$$_{a}$ (nm) -->
     <g transform="translate(29.59375 191.028) rotate(-90) scale(0.1 -0.1)">
      <defs>
       <path id="DejaVuSans-Oblique-5a" d="M 838 4666 
L 4500 4666 
L 4409 4184 
L 794 531 
L 3769 531 
L 3669 0 
L -141 0 
L -50 481 
L 3566 4134 
L 738 4134 
L 838 4666 
z
" transform="scale(0.015625)"/>
       <path id="DejaVuSans-Oblique-61" d="M 3438 1997 
L 3047 0 
L 2472 0 
L 2578 531 
Q 2325 219 2001 64 
Q 1678 -91 1281 -91 
Q 834 -91 548 182 
Q 263 456 263 884 
Q 263 1497 752 1853 
Q 1241 2209 2100 2209 
L 2900 2209 
L 2931 2363 
Q 2938 2388 2941 2417 
Q 2944 2447 2944 2509 
Q 2944 2788 2717 2942 
Q 2491 3097 2081 3097 
Q 1800 3097 1504 3025 
Q 1209 2953 897 2809 
L 997 3341 
Q 1322 3463 1633 3523 
Q 1944 3584 2234 3584 
Q 2853 3584 3176 3315 
Q 3500 3047 3500 2534 
Q 3500 2431 3484 2292 
Q 3469 2153 3438 1997 
z
M 2816 1759 
L 2241 1759 
Q 1534 1759 1195 1570 
Q 856 1381 856 984 
Q 856 709 1029 553 
Q 1203 397 1509 397 
Q 1978 397 2328 733 
Q 2678 1069 2791 1631 
L 2816 1759 
z
" transform="scale(0.015625)"/>
       <path id="Calibri-6e" d="M 2900 78 
Q 2900 53 2887 36 
Q 2875 19 2847 6 
Q 2819 -6 2769 -12 
Q 2719 -19 2644 -19 
Q 2566 -19 2516 -12 
Q 2466 -6 2437 6 
Q 2409 19 2396 36 
Q 2384 53 2384 78 
L 2384 1725 
Q 2384 1966 2346 2112 
Q 2309 2259 2237 2365 
Q 2166 2472 2052 2528 
Q 1938 2584 1788 2584 
Q 1594 2584 1400 2446 
Q 1206 2309 994 2044 
L 994 78 
Q 994 53 981 36 
Q 969 19 941 6 
Q 913 -6 863 -12 
Q 813 -19 734 -19 
Q 659 -19 609 -12 
Q 559 -6 529 6 
Q 500 19 489 36 
Q 478 53 478 78 
L 478 2891 
Q 478 2916 487 2933 
Q 497 2950 525 2964 
Q 553 2978 597 2983 
Q 641 2988 713 2988 
Q 781 2988 826 2983 
Q 872 2978 897 2964 
Q 922 2950 933 2933 
Q 944 2916 944 2891 
L 944 2519 
Q 1181 2784 1417 2907 
Q 1653 3031 1894 3031 
Q 2175 3031 2367 2936 
Q 2559 2841 2678 2681 
Q 2797 2522 2848 2308 
Q 2900 2094 2900 1794 
L 2900 78 
z
" transform="scale(0.015625)"/>
      </defs>
      <use xlink:href="#DejaVuSans-Oblique-5a" transform="translate(0 0.09375)"/>
      <use xlink:href="#DejaVuSans-Oblique-61" transform="translate(69.462891 -16.3125) scale(0.7)"/>
      <use xlink:href="#Calibri-20" transform="translate(115.092773 0.09375)"/>
      <use xlink:href="#Calibri-28" transform="translate(136.575195 0.09375)"/>
      <use xlink:href="#Calibri-6e" transform="translate(166.897461 0.09375)"/>
      <use xlink:href="#Calibri-6d" transform="translate(219.436523 0.09375)"/>
      <use xlink:href="#Calibri-29" transform="translate(299.319336 0.09375)"/>
     </g>
    </g>
   </g>
   <g id="patch_3">
    <path d="M 57.6 307.584 
L 57.6 41.472 
" style="fill: none; stroke: #000000; stroke-width: 0.8; stroke-linejoin: miter; stroke-linecap: square"/>
   </g>
   <g id="patch_4">
    <path d="M 343.296 307.584 
L 343.296 41.472 
" style="fill: none; stroke: #000000; stroke-width: 0.8; stroke-linejoin: miter; stroke-linecap: square"/>
   </g>
   <g id="patch_5">
    <path d="M 57.6 307.584 
L 343.296 307.584 
" style="fill: none; stroke: #000000; stroke-width: 0.8; stroke-linejoin: miter; stroke-linecap: square"/>
   </g>
   <g id="patch_6">
    <path d="M 57.6 41.472 
L 343.296 41.472 
" style="fill: none; stroke: #000000; stroke-width: 0.8; stroke-linejoin: miter; stroke-linecap: square"/>
   </g>
   <g id="text_22">
    <!-- $\theta_m$ = 44 -->
    <g transform="translate(182.298 35.472) scale(0.1 -0.1)">
     <defs>
      <path id="DejaVuSans-Oblique-3b8" d="M 2913 2219 
L 925 2219 
Q 791 1284 928 888 
Q 1100 400 1566 400 
Q 2034 400 2391 891 
Q 2703 1322 2913 2219 
z
M 3009 2750 
Q 3094 3638 2984 3950 
Q 2813 4444 2353 4444 
Q 1875 4444 1525 3956 
Q 1250 3563 1034 2750 
L 3009 2750 
z
M 2444 4913 
Q 3194 4913 3494 4250 
Q 3794 3591 3566 2422 
Q 3341 1256 2781 594 
Q 2225 -72 1475 -72 
Q 722 -72 425 594 
Q 128 1256 353 2422 
Q 581 3591 1134 4250 
Q 1691 4913 2444 4913 
z
" transform="scale(0.015625)"/>
      <path id="DejaVuSans-Oblique-6d" d="M 5747 2113 
L 5338 0 
L 4763 0 
L 5166 2094 
Q 5191 2228 5203 2325 
Q 5216 2422 5216 2491 
Q 5216 2772 5059 2928 
Q 4903 3084 4622 3084 
Q 4203 3084 3875 2770 
Q 3547 2456 3450 1953 
L 3066 0 
L 2491 0 
L 2900 2094 
Q 2925 2209 2937 2307 
Q 2950 2406 2950 2484 
Q 2950 2769 2794 2926 
Q 2638 3084 2363 3084 
Q 1938 3084 1609 2770 
Q 1281 2456 1184 1953 
L 800 0 
L 225 0 
L 909 3500 
L 1484 3500 
L 1375 2956 
Q 1609 3263 1923 3423 
Q 2238 3584 2597 3584 
Q 2978 3584 3223 3384 
Q 3469 3184 3519 2828 
Q 3781 3197 4126 3390 
Q 4472 3584 4856 3584 
Q 5306 3584 5551 3325 
Q 5797 3066 5797 2591 
Q 5797 2488 5784 2364 
Q 5772 2241 5747 2113 
z
" transform="scale(0.015625)"/>
      <path id="Calibri-3d" d="M 2891 2409 
Q 2891 2284 2855 2236 
Q 2819 2188 2772 2188 
L 409 2188 
Q 363 2188 328 2236 
Q 294 2284 294 2409 
Q 294 2522 325 2575 
Q 356 2628 409 2628 
L 2772 2628 
Q 2828 2628 2859 2575 
Q 2891 2522 2891 2409 
z
M 2891 1194 
Q 2891 1069 2855 1022 
Q 2819 975 2772 975 
L 409 975 
Q 363 975 328 1022 
Q 294 1069 294 1194 
Q 294 1309 325 1362 
Q 356 1416 409 1416 
L 2772 1416 
Q 2828 1416 2859 1362 
Q 2891 1309 2891 1194 
z
" transform="scale(0.015625)"/>
      <path id="Calibri-b0" d="M 1847 3541 
Q 1847 3388 1789 3253 
Q 1731 3119 1626 3017 
Q 1522 2916 1380 2859 
Q 1238 2803 1072 2803 
Q 906 2803 770 2854 
Q 634 2906 534 3000 
Q 434 3094 378 3225 
Q 322 3356 322 3516 
Q 322 3675 381 3811 
Q 441 3947 545 4044 
Q 650 4141 790 4197 
Q 931 4253 1097 4253 
Q 1259 4253 1396 4200 
Q 1534 4147 1634 4055 
Q 1734 3963 1790 3831 
Q 1847 3700 1847 3541 
z
M 1453 3528 
Q 1453 3613 1425 3686 
Q 1397 3759 1347 3812 
Q 1297 3866 1228 3895 
Q 1159 3925 1078 3925 
Q 1000 3925 933 3895 
Q 866 3866 816 3812 
Q 766 3759 737 3687 
Q 709 3616 709 3534 
Q 709 3444 737 3369 
Q 766 3294 817 3241 
Q 869 3188 939 3158 
Q 1009 3128 1091 3128 
Q 1166 3128 1233 3159 
Q 1300 3191 1348 3245 
Q 1397 3300 1425 3372 
Q 1453 3444 1453 3528 
z
M 0 4044 
L 0 4044 
z
" transform="scale(0.015625)"/>
     </defs>
     <use xlink:href="#DejaVuSans-Oblique-3b8" transform="translate(0 0.234375)"/>
     <use xlink:href="#DejaVuSans-Oblique-6d" transform="translate(61.181641 -16.171875) scale(0.7)"/>
     <use xlink:href="#Calibri-20" transform="translate(132.104492 0.234375)"/>
     <use xlink:href="#Calibri-3d" transform="translate(154.711914 0.234375)"/>
     <use xlink:href="#Calibri-20" transform="translate(204.516602 0.234375)"/>
     <use xlink:href="#Calibri-34" transform="translate(227.124023 0.234375)"/>
     <use xlink:href="#Calibri-34" transform="translate(277.807617 0.234375)"/>
     <use xlink:href="#Calibri-b0" transform="translate(328.491211 0.234375)"/>
    </g>
   </g>
  </g>
  <g id="axes_2">
   <g id="patch_7">
    <path d="M 361.152 307.584 
L 374.4576 307.584 
L 374.4576 41.472 
L 361.152 41.472 
z
" style="fill: #ffffff"/>
   </g>
   <g id="QuadMesh_1">
    <path d="M 361.152 307.584 
L 374.4576 307.584 
L 374.4576 280.9728 
L 361.152 280.9728 
L 361.152 307.584 
" clip-path="url(#pc476a9af76)" style="fill: #0000b6"/>
    <path d="M 361.152 280.9728 
L 374.4576 280.9728 
L 374.4576 254.3616 
L 361.152 254.3616 
L 361.152 280.9728 
" clip-path="url(#pc476a9af76)" style="fill: #0018ff"/>
    <path d="M 361.152 254.3616 
L 374.4576 254.3616 
L 374.4576 227.7504 
L 361.152 227.7504 
L 361.152 254.3616 
" clip-path="url(#pc476a9af76)" style="fill: #0080ff"/>
    <path d="M 361.152 227.7504 
L 374.4576 227.7504 
L 374.4576 201.1392 
L 361.152 201.1392 
L 361.152 227.7504 
" clip-path="url(#pc476a9af76)" style="fill: #00e4f8"/>
    <path d="M 361.152 201.1392 
L 374.4576 201.1392 
L 374.4576 174.528 
L 361.152 174.528 
L 361.152 201.1392 
" clip-path="url(#pc476a9af76)" style="fill: #53ffa4"/>
    <path d="M 361.152 174.528 
L 374.4576 174.528 
L 374.4576 147.9168 
L 361.152 147.9168 
L 361.152 174.528 
" clip-path="url(#pc476a9af76)" style="fill: #a4ff53"/>
    <path d="M 361.152 147.9168 
L 374.4576 147.9168 
L 374.4576 121.3056 
L 361.152 121.3056 
L 361.152 147.9168 
" clip-path="url(#pc476a9af76)" style="fill: #f8f500"/>
    <path d="M 361.152 121.3056 
L 374.4576 121.3056 
L 374.4576 94.6944 
L 361.152 94.6944 
L 361.152 121.3056 
" clip-path="url(#pc476a9af76)" style="fill: #ff9400"/>
    <path d="M 361.152 94.6944 
L 374.4576 94.6944 
L 374.4576 68.0832 
L 361.152 68.0832 
L 361.152 94.6944 
" clip-path="url(#pc476a9af76)" style="fill: #ff3800"/>
    <path d="M 361.152 68.0832 
L 374.4576 68.0832 
L 374.4576 41.472 
L 361.152 41.472 
L 361.152 68.0832 
" clip-path="url(#pc476a9af76)" style="fill: #b60000"/>
   </g>
   <g id="matplotlib.axis_3"/>
   <g id="matplotlib.axis_4">
    <g id="ytick_9">
     <g id="line2d_20">
      <defs>
       <path id="mf2b4befbb1" d="M 0 0 
L 3.5 0 
" style="stroke: #000000; stroke-width: 0.8"/>
      </defs>
      <g>
       <use xlink:href="#mf2b4befbb1" x="374.4576" y="307.584" style="stroke: #000000; stroke-width: 0.8"/>
      </g>
     </g>
     <g id="text_23">
      <!-- 0 -->
      <g transform="translate(381.4576 310.984781) scale(0.1 -0.1)">
       <use xlink:href="#Calibri-30"/>
      </g>
     </g>
    </g>
    <g id="ytick_10">
     <g id="line2d_21">
      <g>
       <use xlink:href="#mf2b4befbb1" x="374.4576" y="280.9728" style="stroke: #000000; stroke-width: 0.8"/>
      </g>
     </g>
     <g id="text_24">
      <!-- 0.1 -->
      <g transform="translate(381.4576 284.373581) scale(0.1 -0.1)">
       <use xlink:href="#Calibri-30"/>
       <use xlink:href="#Calibri-2e" x="50.683594"/>
       <use xlink:href="#Calibri-31" x="75.927734"/>
      </g>
     </g>
    </g>
    <g id="ytick_11">
     <g id="line2d_22">
      <g>
       <use xlink:href="#mf2b4befbb1" x="374.4576" y="254.3616" style="stroke: #000000; stroke-width: 0.8"/>
      </g>
     </g>
     <g id="text_25">
      <!-- 0.2 -->
      <g transform="translate(381.4576 257.762381) scale(0.1 -0.1)">
       <use xlink:href="#Calibri-30"/>
       <use xlink:href="#Calibri-2e" x="50.683594"/>
       <use xlink:href="#Calibri-32" x="75.927734"/>
      </g>
     </g>
    </g>
    <g id="ytick_12">
     <g id="line2d_23">
      <g>
       <use xlink:href="#mf2b4befbb1" x="374.4576" y="227.7504" style="stroke: #000000; stroke-width: 0.8"/>
      </g>
     </g>
     <g id="text_26">
      <!-- 0.3 -->
      <g transform="translate(381.4576 231.151181) scale(0.1 -0.1)">
       <use xlink:href="#Calibri-30"/>
       <use xlink:href="#Calibri-2e" x="50.683594"/>
       <use xlink:href="#Calibri-33" x="75.927734"/>
      </g>
     </g>
    </g>
    <g id="ytick_13">
     <g id="line2d_24">
      <g>
       <use xlink:href="#mf2b4befbb1" x="374.4576" y="201.1392" style="stroke: #000000; stroke-width: 0.8"/>
      </g>
     </g>
     <g id="text_27">
      <!-- 0.4 -->
      <g transform="translate(381.4576 204.539981) scale(0.1 -0.1)">
       <use xlink:href="#Calibri-30"/>
       <use xlink:href="#Calibri-2e" x="50.683594"/>
       <use xlink:href="#Calibri-34" x="75.927734"/>
      </g>
     </g>
    </g>
    <g id="ytick_14">
     <g id="line2d_25">
      <g>
       <use xlink:href="#mf2b4befbb1" x="374.4576" y="174.528" style="stroke: #000000; stroke-width: 0.8"/>
      </g>
     </g>
     <g id="text_28">
      <!-- 0.5 -->
      <g transform="translate(381.4576 177.928781) scale(0.1 -0.1)">
       <use xlink:href="#Calibri-30"/>
       <use xlink:href="#Calibri-2e" x="50.683594"/>
       <use xlink:href="#Calibri-35" x="75.927734"/>
      </g>
     </g>
    </g>
    <g id="ytick_15">
     <g id="line2d_26">
      <g>
       <use xlink:href="#mf2b4befbb1" x="374.4576" y="147.9168" style="stroke: #000000; stroke-width: 0.8"/>
      </g>
     </g>
     <g id="text_29">
      <!-- 0.6 -->
      <g transform="translate(381.4576 151.317581) scale(0.1 -0.1)">
       <use xlink:href="#Calibri-30"/>
       <use xlink:href="#Calibri-2e" x="50.683594"/>
       <use xlink:href="#Calibri-36" x="75.927734"/>
      </g>
     </g>
    </g>
    <g id="ytick_16">
     <g id="line2d_27">
      <g>
       <use xlink:href="#mf2b4befbb1" x="374.4576" y="121.3056" style="stroke: #000000; stroke-width: 0.8"/>
      </g>
     </g>
     <g id="text_30">
      <!-- 0.7 -->
      <g transform="translate(381.4576 124.706381) scale(0.1 -0.1)">
       <use xlink:href="#Calibri-30"/>
       <use xlink:href="#Calibri-2e" x="50.683594"/>
       <use xlink:href="#Calibri-37" x="75.927734"/>
      </g>
     </g>
    </g>
    <g id="ytick_17">
     <g id="line2d_28">
      <g>
       <use xlink:href="#mf2b4befbb1" x="374.4576" y="94.6944" style="stroke: #000000; stroke-width: 0.8"/>
      </g>
     </g>
     <g id="text_31">
      <!-- 0.8 -->
      <g transform="translate(381.4576 98.095181) scale(0.1 -0.1)">
       <use xlink:href="#Calibri-30"/>
       <use xlink:href="#Calibri-2e" x="50.683594"/>
       <use xlink:href="#Calibri-38" x="75.927734"/>
      </g>
     </g>
    </g>
    <g id="ytick_18">
     <g id="line2d_29">
      <g>
       <use xlink:href="#mf2b4befbb1" x="374.4576" y="68.0832" style="stroke: #000000; stroke-width: 0.8"/>
      </g>
     </g>
     <g id="text_32">
      <!-- 0.9 -->
      <g transform="translate(381.4576 71.483981) scale(0.1 -0.1)">
       <use xlink:href="#Calibri-30"/>
       <use xlink:href="#Calibri-2e" x="50.683594"/>
       <use xlink:href="#Calibri-39" x="75.927734"/>
      </g>
     </g>
    </g>
    <g id="ytick_19">
     <g id="line2d_30">
      <g>
       <use xlink:href="#mf2b4befbb1" x="374.4576" y="41.472" style="stroke: #000000; stroke-width: 0.8"/>
      </g>
     </g>
     <g id="text_33">
      <!-- 1.0 -->
      <g transform="translate(381.4576 44.872781) scale(0.1 -0.1)">
       <use xlink:href="#Calibri-31"/>
       <use xlink:href="#Calibri-2e" x="50.683594"/>
       <use xlink:href="#Calibri-30" x="75.927734"/>
      </g>
     </g>
    </g>
   </g>
   <g id="LineCollection_1"/>
   <g id="patch_8">
    <path d="M 361.152 307.584 
L 367.8048 307.584 
L 374.4576 307.584 
L 374.4576 41.472 
L 367.8048 41.472 
L 361.152 41.472 
L 361.152 307.584 
z
" style="fill: none; stroke: #000000; stroke-width: 0.8; stroke-linejoin: miter; stroke-linecap: square"/>
   </g>
   <g id="text_34">
    <!-- $\mathit{E}_{\mathrm{Edis}}$/$\mathit{E}_{\mathrm{i}}$ -->
    <g transform="translate(351.0548 35.472) scale(0.1 -0.1)">
     <defs>
      <path id="DejaVuSans-Oblique-45" d="M 1081 4666 
L 4031 4666 
L 3928 4134 
L 1606 4134 
L 1338 2753 
L 3566 2753 
L 3463 2222 
L 1234 2222 
L 909 531 
L 3284 531 
L 3181 0 
L 172 0 
L 1081 4666 
z
" transform="scale(0.015625)"/>
      <path id="DejaVuSans-45" d="M 628 4666 
L 3578 4666 
L 3578 4134 
L 1259 4134 
L 1259 2753 
L 3481 2753 
L 3481 2222 
L 1259 2222 
L 1259 531 
L 3634 531 
L 3634 0 
L 628 0 
L 628 4666 
z
" transform="scale(0.015625)"/>
      <path id="DejaVuSans-64" d="M 2906 2969 
L 2906 4863 
L 3481 4863 
L 3481 0 
L 2906 0 
L 2906 525 
Q 2725 213 2448 61 
Q 2172 -91 1784 -91 
Q 1150 -91 751 415 
Q 353 922 353 1747 
Q 353 2572 751 3078 
Q 1150 3584 1784 3584 
Q 2172 3584 2448 3432 
Q 2725 3281 2906 2969 
z
M 947 1747 
Q 947 1113 1208 752 
Q 1469 391 1925 391 
Q 2381 391 2643 752 
Q 2906 1113 2906 1747 
Q 2906 2381 2643 2742 
Q 2381 3103 1925 3103 
Q 1469 3103 1208 2742 
Q 947 2381 947 1747 
z
" transform="scale(0.015625)"/>
      <path id="DejaVuSans-69" d="M 603 3500 
L 1178 3500 
L 1178 0 
L 603 0 
L 603 3500 
z
M 603 4863 
L 1178 4863 
L 1178 4134 
L 603 4134 
L 603 4863 
z
" transform="scale(0.015625)"/>
      <path id="DejaVuSans-73" d="M 2834 3397 
L 2834 2853 
Q 2591 2978 2328 3040 
Q 2066 3103 1784 3103 
Q 1356 3103 1142 2972 
Q 928 2841 928 2578 
Q 928 2378 1081 2264 
Q 1234 2150 1697 2047 
L 1894 2003 
Q 2506 1872 2764 1633 
Q 3022 1394 3022 966 
Q 3022 478 2636 193 
Q 2250 -91 1575 -91 
Q 1294 -91 989 -36 
Q 684 19 347 128 
L 347 722 
Q 666 556 975 473 
Q 1284 391 1588 391 
Q 1994 391 2212 530 
Q 2431 669 2431 922 
Q 2431 1156 2273 1281 
Q 2116 1406 1581 1522 
L 1381 1569 
Q 847 1681 609 1914 
Q 372 2147 372 2553 
Q 372 3047 722 3315 
Q 1072 3584 1716 3584 
Q 2034 3584 2315 3537 
Q 2597 3491 2834 3397 
z
" transform="scale(0.015625)"/>
     </defs>
     <use xlink:href="#DejaVuSans-Oblique-45" transform="translate(0 0.09375)"/>
     <use xlink:href="#DejaVuSans-45" transform="translate(63.183594 -16.3125) scale(0.7)"/>
     <use xlink:href="#DejaVuSans-64" transform="translate(107.412109 -16.3125) scale(0.7)"/>
     <use xlink:href="#DejaVuSans-69" transform="translate(151.845703 -16.3125) scale(0.7)"/>
     <use xlink:href="#DejaVuSans-73" transform="translate(171.293945 -16.3125) scale(0.7)"/>
     <use xlink:href="#Calibri-2f" transform="translate(210.498047 0.09375)"/>
     <use xlink:href="#DejaVuSans-Oblique-45" transform="translate(249.121094 0.09375)"/>
     <use xlink:href="#DejaVuSans-69" transform="translate(312.304688 -16.3125) scale(0.7)"/>
    </g>
   </g>
  </g>
 </g>
 <defs>
  <clipPath id="p1c4fbcb234">
   <rect x="57.6" y="41.472" width="285.696" height="266.112"/>
  </clipPath>
  <clipPath id="pc476a9af76">
   <rect x="361.152" y="41.472" width="13.3056" height="266.112"/>
  </clipPath>
 </defs>
</svg>
