<?xml version="1.0" encoding="utf-8" standalone="no"?>
<!DOCTYPE svg PUBLIC "-//W3C//DTD SVG 1.1//EN"
  "http://www.w3.org/Graphics/SVG/1.1/DTD/svg11.dtd">
<svg xmlns:xlink="http://www.w3.org/1999/xlink" width="460.8pt" height="345.6pt" viewBox="0 0 460.8 345.6" xmlns="http://www.w3.org/2000/svg" version="1.1">
 <metadata>
  <rdf:RDF xmlns:dc="http://purl.org/dc/elements/1.1/" xmlns:cc="http://creativecommons.org/ns#" xmlns:rdf="http://www.w3.org/1999/02/22-rdf-syntax-ns#">
   <cc:Work>
    <dc:type rdf:resource="http://purl.org/dc/dcmitype/StillImage"/>
    <dc:date>2024-01-22T08:40:25.972847</dc:date>
    <dc:format>image/svg+xml</dc:format>
    <dc:creator>
     <cc:Agent>
      <dc:title>Matplotlib v3.7.1, https://matplotlib.org/</dc:title>
     </cc:Agent>
    </dc:creator>
   </cc:Work>
  </rdf:RDF>
 </metadata>
 <defs>
  <style type="text/css">*{stroke-linejoin: round; stroke-linecap: butt}</style>
 </defs>
 <g id="figure_1">
  <g id="patch_1">
   <path d="M 0 345.6 
L 460.8 345.6 
L 460.8 0 
L 0 0 
z
" style="fill: #ffffff"/>
  </g>
  <g id="axes_1">
   <g id="patch_2">
    <path d="M 57.6 307.584 
L 343.296 307.584 
L 343.296 41.472 
L 57.6 41.472 
z
" style="fill: #ffffff"/>
   </g>
   <g id="PathCollection_1">
    <path clip-path="url(#pc7c17e0b7e)" style="fill: #0000b6"/>
   </g>
   <g id="PathCollection_2">
    <path d="M 76.164049 41.472 
L 76.517837 42.30301 
L 76.580803 42.44628 
L 77.51766 44.62193 
L 77.594368 44.7984 
L 78.547433 46.975644 
L 78.624466 47.15052 
L 78.656562 47.2209 
L 79.073251 48.1248 
L 79.466661 49.04497 
L 79.49148 49.09908 
L 80.518055 51.3774 
L 80.551573 51.4512 
L 81.581163 53.70062 
L 81.628421 53.80332 
L 81.648928 53.846471 
L 82.096057 54.7776 
L 82.35783 55.358135 
L 82.510076 55.701395 
L 82.534217 55.75188 
L 83.585916 57.985584 
L 83.642038 58.104 
L 84.653762 60.220734 
L 84.76677 60.45612 
L 84.913628 60.746942 
L 85.253115 61.4304 
L 85.504001 61.962099 
L 85.648026 62.272336 
L 85.713928 62.40468 
L 86.71927 64.450791 
L 86.870433 64.7568 
L 87.763051 66.547477 
L 88.043937 67.10892 
L 88.148048 67.307261 
L 88.548802 68.0832 
L 88.76007 68.511712 
L 88.879787 68.758447 
L 89.034685 69.05748 
L 89.915805 70.778069 
L 90.240588 71.4096 
L 90.906796 72.692626 
L 91.463512 73.76172 
L 91.736505 74.27238 
L 91.986661 74.736 
L 92.126052 75.006966 
L 92.204021 75.160936 
L 92.499728 75.71028 
L 93.172925 76.973082 
L 93.755504 78.0624 
L 94.082733 78.668103 
L 94.436592 79.32169 
L 94.822095 80.025596 
L 95.03561 80.41452 
L 95.415342 81.11207 
L 95.511235 81.284876 
L 95.56942 81.3888 
L 95.618842 81.481512 
L 96.111475 82.36308 
L 96.487806 83.042001 
L 97.155722 84.244238 
L 97.289333 84.481974 
L 97.42058 84.7152 
L 98.167386 86.028127 
L 98.759393 87.06732 
L 99.127219 87.717488 
L 99.19484 87.830895 
L 99.318523 88.0416 
L 99.531732 88.418918 
L 99.872003 89.01588 
L 100.52602 90.137274 
L 101.244289 91.368 
L 101.566284 91.913628 
L 102.633113 93.72012 
L 102.723478 93.873995 
L 103.212552 94.6944 
L 103.284486 94.815438 
L 103.33993 94.90667 
L 103.33993 94.6944 
L 103.33993 91.368 
L 103.33993 88.0416 
L 103.33993 84.7152 
L 103.33993 81.3888 
L 103.33993 78.0624 
L 103.33993 74.736 
L 103.33993 71.4096 
L 103.33993 68.0832 
L 103.33993 64.7568 
L 103.33993 61.4304 
L 103.33993 58.104 
L 103.33993 54.7776 
L 103.33993 51.4512 
L 103.33993 48.1248 
L 103.33993 44.7984 
L 103.33993 41.472 
L 101.816218 41.472 
L 100.292506 41.472 
L 98.768794 41.472 
L 97.245082 41.472 
L 95.72137 41.472 
L 94.197658 41.472 
L 92.673946 41.472 
L 91.150234 41.472 
L 89.626522 41.472 
L 88.10281 41.472 
L 86.579098 41.472 
L 85.055386 41.472 
L 83.531674 41.472 
L 82.007962 41.472 
L 80.48425 41.472 
L 78.960538 41.472 
L 77.436826 41.472 
" clip-path="url(#pc7c17e0b7e)" style="fill: #0018ff"/>
   </g>
   <g id="PathCollection_3">
    <path d="M 103.33993 94.90667 
L 103.284486 94.815438 
L 103.212552 94.6944 
L 102.723478 93.873995 
L 102.633113 93.72012 
L 101.566284 91.913628 
L 101.244289 91.368 
L 100.52602 90.137274 
L 99.872003 89.01588 
L 99.531732 88.418918 
L 99.318523 88.0416 
L 99.19484 87.830895 
L 99.127219 87.717488 
L 98.759393 87.06732 
L 98.167386 86.028127 
L 97.42058 84.7152 
L 97.289333 84.481974 
L 97.155722 84.244238 
L 96.487806 83.042001 
L 96.111475 82.36308 
L 95.618842 81.481512 
L 95.56942 81.3888 
L 95.511235 81.284876 
L 95.415342 81.11207 
L 95.03561 80.41452 
L 94.822095 80.025596 
L 94.436592 79.32169 
L 94.082733 78.668103 
L 93.755504 78.0624 
L 93.172925 76.973082 
L 92.499728 75.71028 
L 92.204021 75.160936 
L 92.126052 75.006966 
L 91.986661 74.736 
L 91.736505 74.27238 
L 91.463512 73.76172 
L 90.906796 72.692626 
L 90.240588 71.4096 
L 89.915805 70.778069 
L 89.034685 69.05748 
L 88.879787 68.758447 
L 88.76007 68.511712 
L 88.548802 68.0832 
L 88.148048 67.307261 
L 88.043937 67.10892 
L 87.763051 66.547477 
L 86.870433 64.7568 
L 86.71927 64.450791 
L 85.713928 62.40468 
L 85.648026 62.272336 
L 85.504001 61.962099 
L 85.253115 61.4304 
L 84.913628 60.746942 
L 84.76677 60.45612 
L 84.653762 60.220734 
L 83.642038 58.104 
L 83.585916 57.985584 
L 82.534217 55.75188 
L 82.510076 55.701395 
L 82.35783 55.358135 
L 82.096057 54.7776 
L 81.648928 53.846471 
L 81.628421 53.80332 
L 81.581163 53.70062 
L 80.551573 51.4512 
L 80.518055 51.3774 
L 79.49148 49.09908 
L 79.466661 49.04497 
L 79.073251 48.1248 
L 78.656562 47.2209 
L 78.624466 47.15052 
L 78.547433 46.975644 
L 77.594368 44.7984 
L 77.51766 44.62193 
L 76.580803 42.44628 
L 76.517837 42.30301 
L 76.164049 41.472 
L 75.913114 41.472 
L 74.389402 41.472 
L 72.86569 41.472 
L 71.341978 41.472 
L 69.818266 41.472 
L 68.294554 41.472 
L 66.770842 41.472 
L 65.24713 41.472 
L 63.723418 41.472 
L 62.199706 41.472 
L 60.675994 41.472 
L 59.152282 41.472 
L 57.62857 41.472 
L 57.62857 44.7984 
L 57.62857 48.1248 
L 57.62857 51.4512 
L 57.62857 54.7776 
L 57.62857 58.104 
L 57.62857 61.4304 
L 57.62857 64.7568 
L 57.62857 68.0832 
L 57.62857 71.4096 
L 57.62857 74.736 
L 57.62857 78.0624 
L 57.62857 79.072344 
L 57.999938 80.019675 
L 58.118424 80.319405 
L 58.15672 80.41452 
L 58.201745 80.529263 
L 58.547104 81.3888 
L 58.70659 81.791823 
L 58.941679 82.36308 
L 59.543227 83.861731 
L 59.892013 84.7152 
L 60.42787 86.022919 
L 60.861008 87.06732 
L 60.907324 87.173628 
L 61.282348 88.0416 
L 61.43465 88.419965 
L 61.526654 88.650217 
L 61.68528 89.01588 
L 62.450957 90.819496 
L 62.68756 91.368 
L 63.407755 93.031684 
L 63.709018 93.72012 
L 63.794097 93.905879 
L 64.152312 94.6944 
L 64.343036 95.141528 
L 64.456456 95.409379 
L 64.574808 95.66868 
L 65.439932 97.599894 
L 65.631186 98.0208 
L 66.436152 99.784765 
L 66.707179 100.37292 
L 66.805124 100.57668 
L 67.172561 101.3472 
L 67.377123 101.800924 
L 67.496891 102.068499 
L 67.618167 102.32148 
L 68.507947 104.207744 
L 68.7305 104.6736 
L 69.510141 106.297552 
L 69.86281 107.02572 
L 70.023567 107.347968 
L 70.350369 108 
L 70.539132 108.397055 
L 70.647952 108.627583 
L 70.822225 108.97428 
L 71.65236 110.648807 
L 71.992086 111.3264 
L 72.626801 112.585449 
L 73.182219 113.67852 
L 73.209045 113.729425 
L 73.692007 114.6528 
L 73.908832 115.087362 
L 74.19285 115.62708 
L 74.870193 116.929588 
L 75.421547 117.9792 
L 75.783241 118.663688 
L 76.186898 119.422164 
L 76.504604 120.014324 
L 76.676232 120.33132 
L 76.974065 120.887141 
L 77.115776 121.146822 
L 77.202785 121.3056 
L 77.278024 121.449198 
L 77.734955 122.27988 
L 78.158215 123.057143 
L 78.927305 124.456848 
L 78.976812 124.546225 
L 79.024617 124.632 
L 79.828126 126.064377 
L 80.348258 126.98412 
L 80.756456 127.712253 
L 80.807278 127.798643 
L 80.900544 127.9584 
L 81.061227 128.24375 
L 81.334709 128.727441 
L 81.452544 128.93268 
L 81.513017 129.038908 
L 81.615823 129.218054 
L 82.206385 130.23902 
L 82.814631 131.2848 
L 83.21696 131.971849 
L 84.199062 133.63692 
L 84.341013 133.879343 
L 84.49682 134.133878 
L 84.786867 134.6112 
L 85.19155 135.297424 
L 85.360248 135.58548 
L 85.467827 135.763851 
L 85.940937 136.544439 
L 86.66875 137.74188 
L 86.788441 137.9376 
L 87.79333 139.568696 
L 88.239531 140.28972 
L 88.503932 140.708813 
L 88.85548 141.264 
L 89.130628 141.712419 
L 89.465004 142.23828 
L 90.183618 143.374209 
L 90.957192 144.5904 
L 91.106138 144.822806 
L 91.23121 145.017184 
L 91.962133 146.144351 
L 92.482189 146.94252 
L 92.9515 147.665817 
L 93.11963 147.9168 
L 93.755007 148.889282 
L 93.756174 148.89108 
L 94.447046 149.928813 
L 95.32498 151.2432 
L 95.560862 151.593603 
L 96.556554 153.066482 
L 96.824259 153.461121 
L 96.915558 153.59532 
L 96.976241 153.683077 
L 97.591341 154.5696 
L 97.887171 155.005615 
L 98.038438 155.230036 
L 98.257084 155.54388 
L 99.21486 156.922198 
L 99.893843 157.896 
L 100.207773 158.342576 
L 100.439668 158.671613 
L 101.060475 159.545854 
L 101.56059 160.24812 
L 102.082186 160.981894 
L 102.254995 161.2224 
L 102.917296 162.145047 
L 103.33993 162.723541 
L 103.33993 161.2224 
L 103.33993 157.896 
L 103.33993 154.5696 
L 103.33993 151.2432 
L 103.33993 147.9168 
L 103.33993 144.5904 
L 103.33993 141.264 
L 103.33993 137.9376 
L 103.33993 134.6112 
L 103.33993 131.2848 
L 103.33993 127.9584 
L 103.33993 124.632 
L 103.33993 121.3056 
L 103.33993 117.9792 
L 103.33993 114.6528 
L 103.33993 111.3264 
L 103.33993 108 
L 103.33993 104.6736 
L 103.33993 101.3472 
L 103.33993 98.0208 
" clip-path="url(#pc7c17e0b7e)" style="fill: #0080ff"/>
   </g>
   <g id="PathCollection_4">
    <path d="M 103.33993 162.723541 
L 102.917296 162.145047 
L 102.254995 161.2224 
L 102.082186 160.981894 
L 101.56059 160.24812 
L 101.060475 159.545854 
L 100.439668 158.671613 
L 100.207773 158.342576 
L 99.893843 157.896 
L 99.21486 156.922198 
L 98.257084 155.54388 
L 98.038438 155.230036 
L 97.887171 155.005615 
L 97.591341 154.5696 
L 96.976241 153.683077 
L 96.915558 153.59532 
L 96.824259 153.461121 
L 96.556554 153.066482 
L 95.560862 151.593603 
L 95.32498 151.2432 
L 94.447046 149.928813 
L 93.756174 148.89108 
L 93.755007 148.889282 
L 93.11963 147.9168 
L 92.9515 147.665817 
L 92.482189 146.94252 
L 91.962133 146.144351 
L 91.23121 145.017184 
L 91.106138 144.822806 
L 90.957192 144.5904 
L 90.183618 143.374209 
L 89.465004 142.23828 
L 89.130628 141.712419 
L 88.85548 141.264 
L 88.503932 140.708813 
L 88.239531 140.28972 
L 87.79333 139.568696 
L 86.788441 137.9376 
L 86.66875 137.74188 
L 85.940937 136.544439 
L 85.467827 135.763851 
L 85.360248 135.58548 
L 85.19155 135.297424 
L 84.786867 134.6112 
L 84.49682 134.133878 
L 84.341013 133.879343 
L 84.199062 133.63692 
L 83.21696 131.971849 
L 82.814631 131.2848 
L 82.206385 130.23902 
L 81.615823 129.218054 
L 81.513017 129.038908 
L 81.452544 128.93268 
L 81.334709 128.727441 
L 81.061227 128.24375 
L 80.900544 127.9584 
L 80.807278 127.798643 
L 80.756456 127.712253 
L 80.348258 126.98412 
L 79.828126 126.064377 
L 79.024617 124.632 
L 78.976812 124.546225 
L 78.927305 124.456848 
L 78.158215 123.057143 
L 77.734955 122.27988 
L 77.278024 121.449198 
L 77.202785 121.3056 
L 77.115776 121.146822 
L 76.974065 120.887141 
L 76.676232 120.33132 
L 76.504604 120.014324 
L 76.186898 119.422164 
L 75.783241 118.663688 
L 75.421547 117.9792 
L 74.870193 116.929588 
L 74.19285 115.62708 
L 73.908832 115.087362 
L 73.692007 114.6528 
L 73.209045 113.729425 
L 73.182219 113.67852 
L 72.626801 112.585449 
L 71.992086 111.3264 
L 71.65236 110.648807 
L 70.822225 108.97428 
L 70.647952 108.627583 
L 70.539132 108.397055 
L 70.350369 108 
L 70.023567 107.347968 
L 69.86281 107.02572 
L 69.510141 106.297552 
L 68.7305 104.6736 
L 68.507947 104.207744 
L 67.618167 102.32148 
L 67.496891 102.068499 
L 67.377123 101.800924 
L 67.172561 101.3472 
L 66.805124 100.57668 
L 66.707179 100.37292 
L 66.436152 99.784765 
L 65.631186 98.0208 
L 65.439932 97.599894 
L 64.574808 95.66868 
L 64.456456 95.409379 
L 64.343036 95.141528 
L 64.152312 94.6944 
L 63.794097 93.905879 
L 63.709018 93.72012 
L 63.407755 93.031684 
L 62.68756 91.368 
L 62.450957 90.819496 
L 61.68528 89.01588 
L 61.526654 88.650217 
L 61.43465 88.419965 
L 61.282348 88.0416 
L 60.907324 87.173628 
L 60.861008 87.06732 
L 60.42787 86.022919 
L 59.892013 84.7152 
L 59.543227 83.861731 
L 58.941679 82.36308 
L 58.70659 81.791823 
L 58.547104 81.3888 
L 58.201745 80.529263 
L 58.15672 80.41452 
L 58.118424 80.319405 
L 57.999938 80.019675 
L 57.62857 79.072344 
L 57.62857 81.3888 
L 57.62857 84.7152 
L 57.62857 88.0416 
L 57.62857 91.368 
L 57.62857 94.6944 
L 57.62857 98.0208 
L 57.62857 101.3472 
L 57.62857 104.6736 
L 57.62857 108 
L 57.62857 111.3264 
L 57.62857 114.6528 
L 57.62857 117.9792 
L 57.62857 121.3056 
L 57.62857 124.632 
L 57.62857 127.9584 
L 57.62857 131.2848 
L 57.62857 134.6112 
L 57.62857 137.9376 
L 57.62857 141.264 
L 57.62857 143.14987 
L 57.823483 143.563117 
L 58.314809 144.5904 
L 58.74268 145.484598 
L 59.453502 146.94252 
L 59.688597 147.431829 
L 59.934362 147.9168 
L 60.37281 148.820308 
L 60.407271 148.89108 
L 60.925158 149.929992 
L 61.588181 151.2432 
L 61.908938 151.877971 
L 62.791965 153.59532 
L 62.944622 153.895998 
L 63.073146 154.137632 
L 63.303511 154.5696 
L 63.679202 155.301298 
L 63.803505 155.54388 
L 64.072544 156.055951 
L 65.050959 157.896 
L 65.156399 158.094073 
L 66.321811 160.24812 
L 66.322706 160.249793 
L 66.515431 160.59515 
L 66.866439 161.2224 
L 67.167678 161.779707 
L 67.33569 162.089467 
L 67.396243 162.19668 
L 68.482396 164.138723 
L 68.715157 164.5488 
L 69.542268 166.003428 
L 70.058118 166.90092 
L 70.338413 167.378878 
L 70.629001 167.8752 
L 70.785435 168.150443 
L 70.871238 168.300874 
L 71.195754 168.84948 
L 71.882823 170.020887 
L 72.585047 171.2016 
L 72.797907 171.558845 
L 72.995866 171.887689 
L 73.609553 172.904079 
L 74.006972 173.55372 
L 74.524443 174.405887 
L 74.601189 174.528 
L 74.864612 174.957717 
L 75.20136 175.50228 
L 75.353385 175.749938 
L 75.584241 176.121094 
L 76.08857 176.929668 
L 76.670822 177.8544 
L 77.114616 178.557812 
L 78.167844 180.20652 
L 78.294168 180.405535 
L 78.467712 180.670966 
L 78.8019 181.1808 
L 79.2067 181.812624 
L 79.419434 182.143676 
L 79.426975 182.15508 
L 80.685114 184.068694 
L 80.976736 184.5072 
L 81.779472 185.711442 
L 82.416093 186.658233 
L 82.493653 186.773292 
L 82.552275 186.85932 
L 82.70766 187.088473 
L 83.215846 187.8336 
L 83.2943 187.950995 
L 83.334896 188.011539 
L 83.882697 188.80788 
L 84.317876 189.443649 
L 84.885293 190.263534 
L 85.15241 190.648636 
L 85.509966 191.16 
L 86.15652 192.082526 
L 87.168969 193.51212 
L 87.358814 193.781329 
L 87.528727 194.016752 
L 87.868514 194.4864 
L 88.557035 195.4535 
L 88.562271 195.46068 
L 89.875865 197.268462 
L 90.275238 197.8128 
L 90.970799 198.758498 
L 91.453177 199.409445 
L 91.755841 199.817106 
L 92.016452 200.16492 
L 92.715841 201.101315 
L 92.744756 201.1392 
L 92.895813 201.339827 
L 93.480312 202.11348 
L 93.648849 202.337298 
L 93.842067 202.591479 
L 94.411372 203.339229 
L 95.274962 204.4656 
L 95.554652 204.829559 
L 96.369365 205.880233 
L 96.857363 206.509047 
L 97.098522 206.81772 
L 97.290511 207.060902 
L 97.867048 207.792 
L 98.240024 208.270148 
L 98.634504 208.76628 
L 99.402619 209.734703 
L 100.225063 210.762946 
L 100.334115 210.8991 
L 100.510866 211.1184 
L 101.343918 212.149471 
L 102.41985 213.47052 
L 102.620562 213.717459 
L 103.217394 214.4448 
L 103.295999 214.540704 
L 103.33993 214.593808 
L 103.33993 214.4448 
L 103.33993 211.1184 
L 103.33993 207.792 
L 103.33993 204.4656 
L 103.33993 201.1392 
L 103.33993 197.8128 
L 103.33993 194.4864 
L 103.33993 191.16 
L 103.33993 187.8336 
L 103.33993 184.5072 
L 103.33993 181.1808 
L 103.33993 177.8544 
L 103.33993 174.528 
L 103.33993 171.2016 
L 103.33993 167.8752 
L 103.33993 164.5488 
" clip-path="url(#pc7c17e0b7e)" style="fill: #00e4f8"/>
   </g>
   <g id="PathCollection_5">
    <path d="M 103.33993 214.593808 
L 103.295999 214.540704 
L 103.217394 214.4448 
L 102.620562 213.717459 
L 102.41985 213.47052 
L 101.343918 212.149471 
L 100.510866 211.1184 
L 100.334115 210.8991 
L 100.225063 210.762946 
L 99.402619 209.734703 
L 98.634504 208.76628 
L 98.240024 208.270148 
L 97.867048 207.792 
L 97.290511 207.060902 
L 97.098522 206.81772 
L 96.857363 206.509047 
L 96.369365 205.880233 
L 95.554652 204.829559 
L 95.274962 204.4656 
L 94.411372 203.339229 
L 93.842067 202.591479 
L 93.648849 202.337298 
L 93.480312 202.11348 
L 92.895813 201.339827 
L 92.744756 201.1392 
L 92.715841 201.101315 
L 92.016452 200.16492 
L 91.755841 199.817106 
L 91.453177 199.409445 
L 90.970799 198.758498 
L 90.275238 197.8128 
L 89.875865 197.268462 
L 88.562271 195.46068 
L 88.557035 195.4535 
L 87.868514 194.4864 
L 87.528727 194.016752 
L 87.358814 193.781329 
L 87.168969 193.51212 
L 86.15652 192.082526 
L 85.509966 191.16 
L 85.15241 190.648636 
L 84.885293 190.263534 
L 84.317876 189.443649 
L 83.882697 188.80788 
L 83.334896 188.011539 
L 83.2943 187.950995 
L 83.215846 187.8336 
L 82.70766 187.088473 
L 82.552275 186.85932 
L 82.493653 186.773292 
L 82.416093 186.658233 
L 81.779472 185.711442 
L 80.976736 184.5072 
L 80.685114 184.068694 
L 79.426975 182.15508 
L 79.419434 182.143676 
L 79.2067 181.812624 
L 78.8019 181.1808 
L 78.467712 180.670966 
L 78.294168 180.405535 
L 78.167844 180.20652 
L 77.114616 178.557812 
L 76.670822 177.8544 
L 76.08857 176.929668 
L 75.584241 176.121094 
L 75.353385 175.749938 
L 75.20136 175.50228 
L 74.864612 174.957717 
L 74.601189 174.528 
L 74.524443 174.405887 
L 74.006972 173.55372 
L 73.609553 172.904079 
L 72.995866 171.887689 
L 72.797907 171.558845 
L 72.585047 171.2016 
L 71.882823 170.020887 
L 71.195754 168.84948 
L 70.871238 168.300874 
L 70.785435 168.150443 
L 70.629001 167.8752 
L 70.338413 167.378878 
L 70.058118 166.90092 
L 69.542268 166.003428 
L 68.715157 164.5488 
L 68.482396 164.138723 
L 67.396243 162.19668 
L 67.33569 162.089467 
L 67.167678 161.779707 
L 66.866439 161.2224 
L 66.515431 160.59515 
L 66.322706 160.249793 
L 66.321811 160.24812 
L 65.156399 158.094073 
L 65.050959 157.896 
L 64.072544 156.055951 
L 63.803505 155.54388 
L 63.679202 155.301298 
L 63.303511 154.5696 
L 63.073146 154.137632 
L 62.944622 153.895998 
L 62.791965 153.59532 
L 61.908938 151.877971 
L 61.588181 151.2432 
L 60.925158 149.929992 
L 60.407271 148.89108 
L 60.37281 148.820308 
L 59.934362 147.9168 
L 59.688597 147.431829 
L 59.453502 146.94252 
L 58.74268 145.484598 
L 58.314809 144.5904 
L 57.823483 143.563117 
L 57.62857 143.14987 
L 57.62857 144.5904 
L 57.62857 147.9168 
L 57.62857 151.2432 
L 57.62857 154.5696 
L 57.62857 157.896 
L 57.62857 161.2224 
L 57.62857 164.5488 
L 57.62857 167.8752 
L 57.62857 171.2016 
L 57.62857 174.528 
L 57.62857 177.8544 
L 57.62857 181.1808 
L 57.62857 184.5072 
L 57.62857 187.8336 
L 57.62857 191.16 
L 57.62857 194.4864 
L 57.62857 197.8128 
L 57.62857 199.498454 
L 58.038857 200.243505 
L 58.53659 201.1392 
L 58.741633 201.510536 
L 59.082368 202.11348 
L 59.713057 203.241377 
L 60.413295 204.4656 
L 60.610317 204.811743 
L 60.805734 205.149389 
L 61.408272 206.193369 
L 61.776552 206.81772 
L 62.295267 207.705587 
L 62.347415 207.792 
L 62.408935 207.895476 
L 62.517246 208.079141 
L 62.925221 208.76628 
L 63.123034 209.102692 
L 63.441494 209.632536 
L 63.869731 210.347265 
L 64.339146 211.1184 
L 64.856152 211.971939 
L 65.783274 213.47052 
L 65.976355 213.785387 
L 66.392763 214.4448 
L 66.903861 215.264152 
L 66.999739 215.41908 
L 67.16666 215.68506 
L 67.778988 216.645674 
L 68.378605 217.587707 
L 68.497764 217.7712 
L 69.518558 219.350792 
L 70.02543 220.12332 
L 70.083796 220.212714 
L 70.670099 221.0976 
L 70.919481 221.479649 
L 71.316182 222.07188 
L 71.969281 223.054541 
L 72.853307 224.358741 
L 72.872638 224.387377 
L 72.897723 224.424 
L 73.789762 225.733068 
L 74.514243 226.77612 
L 74.880091 227.306687 
L 74.984539 227.45607 
L 75.193194 227.7504 
L 75.61902 228.358519 
L 75.873652 228.72468 
L 76.256102 229.269099 
L 77.243029 230.653725 
L 77.478775 230.98522 
L 77.545107 231.0768 
L 78.665485 232.631858 
L 79.247969 233.42892 
L 79.289914 233.486738 
L 79.9643 234.4032 
L 80.101463 234.592511 
L 80.170718 234.686716 
L 80.68399 235.37748 
L 81.225553 236.111268 
L 81.861418 236.957251 
L 82.095184 237.2699 
L 82.443671 237.7296 
L 83.120389 238.627471 
L 84.236169 240.08172 
L 84.388347 240.28134 
L 84.583933 240.535595 
L 84.989766 241.056 
L 85.643669 241.901875 
L 85.744704 242.03028 
L 86.9503 243.572032 
L 87.595012 244.3824 
L 88.00454 244.900323 
L 88.262024 245.221528 
L 88.884371 246.002582 
L 89.477536 246.73452 
L 89.994404 247.376136 
L 90.081656 247.483709 
L 90.266663 247.7088 
L 90.956708 248.558075 
L 91.059659 248.68308 
L 91.495226 249.216939 
L 92.270575 250.154605 
L 92.789048 250.783922 
L 92.999503 251.0352 
L 93.975205 252.207624 
L 94.549276 252.888387 
L 94.758238 253.137802 
L 94.970697 253.38732 
L 95.763404 254.323589 
L 95.773717 254.335711 
L 95.79603 254.3616 
L 96.048275 254.65721 
L 96.62703 255.33588 
L 96.738538 255.467431 
L 96.84781 255.594202 
L 97.49818 256.354059 
L 98.654843 257.688 
L 98.729219 257.774395 
L 98.895274 257.964119 
L 99.999653 259.231464 
L 100.713426 260.04012 
L 101.38936 260.803294 
L 101.57533 261.0144 
L 101.682103 261.135675 
L 102.442176 261.98868 
L 102.73976 262.324624 
L 103.015495 262.630888 
L 103.33993 262.996014 
L 103.33993 261.0144 
L 103.33993 257.688 
L 103.33993 254.3616 
L 103.33993 251.0352 
L 103.33993 247.7088 
L 103.33993 244.3824 
L 103.33993 241.056 
L 103.33993 237.7296 
L 103.33993 234.4032 
L 103.33993 231.0768 
L 103.33993 227.7504 
L 103.33993 224.424 
L 103.33993 221.0976 
L 103.33993 217.7712 
" clip-path="url(#pc7c17e0b7e)" style="fill: #53ffa4"/>
   </g>
   <g id="PathCollection_6">
    <path d="M 103.33993 262.996014 
L 103.015495 262.630888 
L 102.73976 262.324624 
L 102.442176 261.98868 
L 101.682103 261.135675 
L 101.57533 261.0144 
L 101.38936 260.803294 
L 100.713426 260.04012 
L 99.999653 259.231464 
L 98.895274 257.964119 
L 98.729219 257.774395 
L 98.654843 257.688 
L 97.49818 256.354059 
L 96.84781 255.594202 
L 96.738538 255.467431 
L 96.62703 255.33588 
L 96.048275 254.65721 
L 95.79603 254.3616 
L 95.773717 254.335711 
L 95.763404 254.323589 
L 94.970697 253.38732 
L 94.758238 253.137802 
L 94.549276 252.888387 
L 93.975205 252.207624 
L 92.999503 251.0352 
L 92.789048 250.783922 
L 92.270575 250.154605 
L 91.495226 249.216939 
L 91.059659 248.68308 
L 90.956708 248.558075 
L 90.266663 247.7088 
L 90.081656 247.483709 
L 89.994404 247.376136 
L 89.477536 246.73452 
L 88.884371 246.002582 
L 88.262024 245.221528 
L 88.00454 244.900323 
L 87.595012 244.3824 
L 86.9503 243.572032 
L 85.744704 242.03028 
L 85.643669 241.901875 
L 84.989766 241.056 
L 84.583933 240.535595 
L 84.388347 240.28134 
L 84.236169 240.08172 
L 83.120389 238.627471 
L 82.443671 237.7296 
L 82.095184 237.2699 
L 81.861418 236.957251 
L 81.225553 236.111268 
L 80.68399 235.37748 
L 80.170718 234.686716 
L 80.101463 234.592511 
L 79.9643 234.4032 
L 79.289914 233.486738 
L 79.247969 233.42892 
L 78.665485 232.631858 
L 77.545107 231.0768 
L 77.478775 230.98522 
L 77.243029 230.653725 
L 76.256102 229.269099 
L 75.873652 228.72468 
L 75.61902 228.358519 
L 75.193194 227.7504 
L 74.984539 227.45607 
L 74.880091 227.306687 
L 74.514243 226.77612 
L 73.789762 225.733068 
L 72.897723 224.424 
L 72.872638 224.387377 
L 72.853307 224.358741 
L 71.969281 223.054541 
L 71.316182 222.07188 
L 70.919481 221.479649 
L 70.670099 221.0976 
L 70.083796 220.212714 
L 70.02543 220.12332 
L 69.518558 219.350792 
L 68.497764 217.7712 
L 68.378605 217.587707 
L 67.778988 216.645674 
L 67.16666 215.68506 
L 66.999739 215.41908 
L 66.903861 215.264152 
L 66.392763 214.4448 
L 65.976355 213.785387 
L 65.783274 213.47052 
L 64.856152 211.971939 
L 64.339146 211.1184 
L 63.869731 210.347265 
L 63.441494 209.632536 
L 63.123034 209.102692 
L 62.925221 208.76628 
L 62.517246 208.079141 
L 62.408935 207.895476 
L 62.347415 207.792 
L 62.295267 207.705587 
L 61.776552 206.81772 
L 61.408272 206.193369 
L 60.805734 205.149389 
L 60.610317 204.811743 
L 60.413295 204.4656 
L 59.713057 203.241377 
L 59.082368 202.11348 
L 58.741633 201.510536 
L 58.53659 201.1392 
L 58.038857 200.243505 
L 57.62857 199.498454 
L 57.62857 201.1392 
L 57.62857 204.4656 
L 57.62857 207.792 
L 57.62857 211.1184 
L 57.62857 214.4448 
L 57.62857 217.7712 
L 57.62857 221.0976 
L 57.62857 224.424 
L 57.62857 227.7504 
L 57.62857 231.0768 
L 57.62857 234.4032 
L 57.62857 237.7296 
L 57.62857 241.056 
L 57.62857 244.3824 
L 57.62857 247.7088 
L 57.62857 251.0352 
L 57.62857 254.3616 
L 57.62857 257.688 
L 57.62857 260.643047 
L 57.725755 260.802235 
L 57.854473 261.0144 
L 58.311868 261.774357 
L 58.443793 261.98868 
L 59.461771 263.665156 
L 59.885437 264.3408 
L 60.489751 265.322384 
L 61.022478 266.166927 
L 61.218846 266.482106 
L 61.354409 266.69292 
L 61.666818 267.185328 
L 61.868805 267.50355 
L 61.970934 267.6672 
L 62.053577 267.799339 
L 62.592156 268.64148 
L 62.988931 269.27065 
L 63.564065 270.153743 
L 63.810141 270.536528 
L 64.111081 270.9936 
L 64.775653 272.022875 
L 65.657332 273.34572 
L 65.906059 273.724153 
L 66.039922 273.927917 
L 66.305672 274.32 
L 66.833332 275.104471 
L 66.95899 275.29428 
L 67.159782 275.59651 
L 67.758446 276.476029 
L 68.397736 277.421144 
L 68.55491 277.6464 
L 69.543796 279.092976 
L 70.177883 279.99852 
L 70.606129 280.608879 
L 70.857562 280.9728 
L 70.98029 281.151676 
L 71.044273 281.242004 
L 71.542222 281.94708 
L 72.071221 282.707197 
L 72.740415 283.638947 
L 72.937987 283.918159 
L 73.214119 284.2992 
L 73.928068 285.306333 
L 74.911762 286.65132 
L 75.130753 286.955222 
L 75.291606 287.179407 
L 75.621866 287.6256 
L 76.326891 288.583803 
L 76.338547 288.59988 
L 76.355072 288.622684 
L 76.39363 288.674611 
L 77.680013 290.4211 
L 78.083296 290.952 
L 78.781921 291.89339 
L 79.257938 292.51943 
L 79.57323 292.940838 
L 79.853493 293.30412 
L 80.549182 294.219684 
L 80.594453 294.2784 
L 80.843821 294.603548 
L 81.339193 295.25268 
L 81.477388 295.436691 
L 81.635228 295.640328 
L 82.232103 296.423477 
L 83.154548 297.6048 
L 83.39002 297.914042 
L 84.069338 298.77857 
L 84.683081 299.567013 
L 84.994022 299.95692 
L 85.133638 300.138934 
L 85.760964 300.9312 
L 85.988656 301.223208 
L 86.101346 301.363214 
L 86.534295 301.90548 
L 87.243097 302.80803 
L 88.006543 303.75023 
L 88.162018 303.945548 
L 88.416505 304.2576 
L 89.183929 305.223819 
L 90.319577 306.60972 
L 90.481582 306.810799 
L 91.115145 307.584 
L 91.150234 307.584 
L 92.673946 307.584 
L 94.197658 307.584 
L 95.72137 307.584 
L 97.245082 307.584 
L 98.768794 307.584 
L 100.292506 307.584 
L 101.816218 307.584 
L 103.33993 307.584 
L 103.33993 304.2576 
L 103.33993 300.9312 
L 103.33993 297.6048 
L 103.33993 294.2784 
L 103.33993 290.952 
L 103.33993 287.6256 
L 103.33993 284.2992 
L 103.33993 280.9728 
L 103.33993 277.6464 
L 103.33993 274.32 
L 103.33993 270.9936 
L 103.33993 267.6672 
L 103.33993 264.3408 
" clip-path="url(#pc7c17e0b7e)" style="fill: #a4ff53"/>
   </g>
   <g id="PathCollection_7">
    <path d="M 91.115145 307.584 
L 90.481582 306.810799 
L 90.319577 306.60972 
L 89.183929 305.223819 
L 88.416505 304.2576 
L 88.162018 303.945548 
L 88.006543 303.75023 
L 87.243097 302.80803 
L 86.534295 301.90548 
L 86.101346 301.363214 
L 85.988656 301.223208 
L 85.760964 300.9312 
L 85.133638 300.138934 
L 84.994022 299.95692 
L 84.683081 299.567013 
L 84.069338 298.77857 
L 83.39002 297.914042 
L 83.154548 297.6048 
L 82.232103 296.423477 
L 81.635228 295.640328 
L 81.477388 295.436691 
L 81.339193 295.25268 
L 80.843821 294.603548 
L 80.594453 294.2784 
L 80.549182 294.219684 
L 79.853493 293.30412 
L 79.57323 292.940838 
L 79.257938 292.51943 
L 78.781921 291.89339 
L 78.083296 290.952 
L 77.680013 290.4211 
L 76.39363 288.674611 
L 76.355072 288.622684 
L 76.338547 288.59988 
L 76.326891 288.583803 
L 75.621866 287.6256 
L 75.291606 287.179407 
L 75.130753 286.955222 
L 74.911762 286.65132 
L 73.928068 285.306333 
L 73.214119 284.2992 
L 72.937987 283.918159 
L 72.740415 283.638947 
L 72.071221 282.707197 
L 71.542222 281.94708 
L 71.044273 281.242004 
L 70.98029 281.151676 
L 70.857562 280.9728 
L 70.606129 280.608879 
L 70.177883 279.99852 
L 69.543796 279.092976 
L 68.55491 277.6464 
L 68.397736 277.421144 
L 67.758446 276.476029 
L 67.159782 275.59651 
L 66.95899 275.29428 
L 66.833332 275.104471 
L 66.305672 274.32 
L 66.039922 273.927917 
L 65.906059 273.724153 
L 65.657332 273.34572 
L 64.775653 272.022875 
L 64.111081 270.9936 
L 63.810141 270.536528 
L 63.564065 270.153743 
L 62.988931 269.27065 
L 62.592156 268.64148 
L 62.053577 267.799339 
L 61.970934 267.6672 
L 61.868805 267.50355 
L 61.666818 267.185328 
L 61.354409 266.69292 
L 61.218846 266.482106 
L 61.022478 266.166927 
L 60.489751 265.322384 
L 59.885437 264.3408 
L 59.461771 263.665156 
L 58.443793 261.98868 
L 58.311868 261.774357 
L 57.854473 261.0144 
L 57.725755 260.802235 
L 57.62857 260.643047 
L 57.62857 261.0144 
L 57.62857 264.3408 
L 57.62857 267.6672 
L 57.62857 270.9936 
L 57.62857 274.32 
L 57.62857 277.6464 
L 57.62857 280.9728 
L 57.62857 284.2992 
L 57.62857 287.6256 
L 57.62857 290.952 
L 57.62857 294.2784 
L 57.62857 297.6048 
L 57.62857 300.9312 
L 57.62857 304.2576 
L 57.62857 307.584 
L 59.152282 307.584 
L 60.675994 307.584 
L 62.199706 307.584 
L 63.723418 307.584 
L 65.24713 307.584 
L 66.770842 307.584 
L 68.294554 307.584 
L 69.818266 307.584 
L 71.341978 307.584 
L 72.86569 307.584 
L 74.389402 307.584 
L 75.913114 307.584 
L 77.436826 307.584 
L 78.960538 307.584 
L 80.48425 307.584 
L 82.007962 307.584 
L 83.531674 307.584 
L 85.055386 307.584 
L 86.579098 307.584 
L 88.10281 307.584 
L 89.626522 307.584 
" clip-path="url(#pc7c17e0b7e)" style="fill: #f8f500"/>
   </g>
   <g id="PathCollection_8">
    <path clip-path="url(#pc7c17e0b7e)" style="fill: #ff9400"/>
   </g>
   <g id="PathCollection_9">
    <path clip-path="url(#pc7c17e0b7e)" style="fill: #ff3800"/>
   </g>
   <g id="PathCollection_10">
    <path clip-path="url(#pc7c17e0b7e)" style="fill: #b60000"/>
   </g>
   <g id="PathCollection_11">
    <path d="M 138.719767 41.472 
L 139.172337 42.268906 
L 140.352114 44.07008 
L 142.798772 48.292361 
L 144.021902 50.3424 
L 147.099457 55.4305 
L 147.826562 56.61472 
L 148.416798 57.353711 
L 149.765747 59.2128 
L 151.040585 61.723242 
L 151.088869 61.81088 
L 151.281232 62.108178 
L 155.185695 68.0832 
L 156.001046 69.306572 
L 159.400002 74.35552 
L 160.149662 75.577257 
L 160.581106 76.093747 
L 161.23296 76.9536 
L 161.905483 78.142228 
L 162.741327 79.506315 
L 162.774321 79.55168 
L 162.802658 79.593994 
L 162.927067 79.778658 
L 165.888549 84.034575 
L 167.1329 85.824 
L 169.844204 89.618488 
L 171.605454 92.09632 
L 173.322522 94.6873 
L 173.328291 94.6944 
L 173.337059 94.708098 
L 175.308027 97.29248 
L 176.945531 99.577474 
L 179.776788 103.5648 
L 180.848696 105.027538 
L 183.154666 108.202635 
L 184.107293 109.470233 
L 184.377857 109.83712 
L 184.659554 110.239764 
L 186.443918 112.4352 
L 186.885747 113.083273 
L 187.142772 113.503489 
L 188.34661 115.03328 
L 191.450193 119.164496 
L 193.0223 121.3056 
L 196.075883 125.314034 
L 197.769577 127.57792 
L 198.401841 128.367772 
L 199.951063 130.176 
L 200.817804 131.384467 
L 201.314828 132.159991 
L 201.804388 132.77408 
L 206.202235 138.480433 
L 206.623044 139.0464 
L 211.433674 145.255009 
L 211.481729 145.31872 
L 212.343809 146.263944 
L 213.701575 147.9168 
L 215.397411 150.327711 
L 215.539812 150.51488 
L 215.955967 151.031826 
L 220.452238 156.7872 
L 221.123949 157.61044 
L 225.365367 163.05952 
L 225.940041 163.812545 
L 226.551822 164.496632 
L 227.479923 165.6576 
L 228.65804 167.341435 
L 229.353842 168.25568 
L 231.376841 170.80591 
L 234.217006 174.528 
L 236.014034 176.775107 
L 239.044214 180.80032 
L 240.2426 182.409812 
L 240.558561 182.779286 
L 241.026709 183.3984 
L 241.621767 184.281454 
L 242.436528 185.382825 
L 242.921677 185.99648 
L 243.322439 186.50717 
L 244.679177 188.352893 
L 246.655433 190.956411 
L 247.604618 192.2688 
L 250.627017 196.243427 
L 252.246836 198.54112 
L 253.987578 201.018233 
L 254.037933 201.085542 
L 254.081558 201.1392 
L 254.108508 201.175338 
L 254.123601 201.198425 
L 255.997337 203.73728 
L 257.777477 206.148572 
L 260.403856 210.0096 
L 261.677303 211.786082 
L 264.718693 216.28192 
L 265.669933 217.69496 
L 266.550477 218.88 
L 267.123072 219.704299 
L 267.444256 220.241383 
L 268.261428 221.47808 
L 271.597571 226.485761 
L 272.357424 227.7504 
L 276.233083 233.848823 
L 276.335973 234.02272 
L 277.022566 234.987556 
L 278.014222 236.6208 
L 279.281698 238.814872 
L 279.545474 239.21888 
L 280.400025 240.565742 
L 283.296941 245.4912 
L 284.650813 247.663287 
L 286.905634 251.76352 
L 288.018623 253.732639 
L 288.165441 253.981163 
L 288.34882 254.3616 
L 288.577068 254.844224 
L 288.874496 255.379046 
L 289.770931 256.95968 
L 290.781578 258.685839 
L 293.099321 263.232 
L 294.059245 265.000382 
L 296.285003 269.50432 
L 296.77002 270.599901 
L 297.55755 272.1024 
L 298.181599 273.254476 
L 298.530708 274.050424 
L 298.81104 274.70048 
L 300.516543 278.445983 
L 301.728803 280.9728 
L 302.122266 281.740024 
L 304.484147 287.24512 
L 305.186982 288.769903 
L 305.581066 289.8432 
L 305.857536 290.59667 
L 306.217951 291.38446 
L 306.675189 292.44128 
L 307.309984 293.795992 
L 309.188439 298.7136 
L 310.091022 300.89909 
L 311.565103 304.98592 
L 312.073828 306.31645 
L 312.498691 307.584 
L 319.01184 307.584 
L 327.10656 307.584 
L 335.20128 307.584 
L 343.296 307.584 
L 343.296 298.7136 
L 343.296 289.8432 
L 343.296 280.9728 
L 343.296 272.1024 
L 343.296 263.232 
L 343.296 254.3616 
L 343.296 245.4912 
L 343.296 236.6208 
L 343.296 227.7504 
L 343.296 218.88 
L 343.296 210.0096 
L 343.296 201.1392 
L 343.296 192.2688 
L 343.296 183.3984 
L 343.296 174.528 
L 343.296 165.6576 
L 343.296 156.7872 
L 343.296 147.9168 
L 343.296 139.0464 
L 343.296 130.176 
L 343.296 121.3056 
L 343.296 112.4352 
L 343.296 103.5648 
L 343.296 94.6944 
L 343.296 85.824 
L 343.296 76.9536 
L 343.296 68.0832 
L 343.296 59.2128 
L 343.296 50.3424 
L 343.296 41.472 
L 335.20128 41.472 
L 327.10656 41.472 
L 319.01184 41.472 
L 310.91712 41.472 
L 302.8224 41.472 
L 294.72768 41.472 
L 286.63296 41.472 
L 278.53824 41.472 
L 270.44352 41.472 
L 262.3488 41.472 
L 254.25408 41.472 
L 246.15936 41.472 
L 238.06464 41.472 
L 229.96992 41.472 
L 221.8752 41.472 
L 213.78048 41.472 
L 205.68576 41.472 
L 197.59104 41.472 
L 189.49632 41.472 
L 181.4016 41.472 
L 173.30688 41.472 
L 165.21216 41.472 
L 157.11744 41.472 
L 149.02272 41.472 
L 140.928 41.472 
" clip-path="url(#pc7c17e0b7e)" style="fill: #0000b6"/>
   </g>
   <g id="PathCollection_12">
    <path d="M 312.498691 307.584 
L 312.073828 306.31645 
L 311.565103 304.98592 
L 310.091022 300.89909 
L 309.188439 298.7136 
L 307.309984 293.795992 
L 306.675189 292.44128 
L 306.217951 291.38446 
L 305.857536 290.59667 
L 305.581066 289.8432 
L 305.186982 288.769903 
L 304.484147 287.24512 
L 302.122266 281.740024 
L 301.728803 280.9728 
L 300.516543 278.445983 
L 298.81104 274.70048 
L 298.530708 274.050424 
L 298.181599 273.254476 
L 297.55755 272.1024 
L 296.77002 270.599901 
L 296.285003 269.50432 
L 294.059245 265.000382 
L 293.099321 263.232 
L 290.781578 258.685839 
L 289.770931 256.95968 
L 288.874496 255.379046 
L 288.577068 254.844224 
L 288.34882 254.3616 
L 288.165441 253.981163 
L 288.018623 253.732639 
L 286.905634 251.76352 
L 284.650813 247.663287 
L 283.296941 245.4912 
L 280.400025 240.565742 
L 279.545474 239.21888 
L 279.281698 238.814872 
L 278.014222 236.6208 
L 277.022566 234.987556 
L 276.335973 234.02272 
L 276.233083 233.848823 
L 272.357424 227.7504 
L 271.597571 226.485761 
L 268.261428 221.47808 
L 267.444256 220.241383 
L 267.123072 219.704299 
L 266.550477 218.88 
L 265.669933 217.69496 
L 264.718693 216.28192 
L 261.677303 211.786082 
L 260.403856 210.0096 
L 257.777477 206.148572 
L 255.997337 203.73728 
L 254.123601 201.198425 
L 254.108508 201.175338 
L 254.081558 201.1392 
L 254.037933 201.085542 
L 253.987578 201.018233 
L 252.246836 198.54112 
L 250.627017 196.243427 
L 247.604618 192.2688 
L 246.655433 190.956411 
L 244.679177 188.352893 
L 243.322439 186.50717 
L 242.921677 185.99648 
L 242.436528 185.382825 
L 241.621767 184.281454 
L 241.026709 183.3984 
L 240.558561 182.779286 
L 240.2426 182.409812 
L 239.044214 180.80032 
L 236.014034 176.775107 
L 234.217006 174.528 
L 231.376841 170.80591 
L 229.353842 168.25568 
L 228.65804 167.341435 
L 227.479923 165.6576 
L 226.551822 164.496632 
L 225.940041 163.812545 
L 225.365367 163.05952 
L 221.123949 157.61044 
L 220.452238 156.7872 
L 215.955967 151.031826 
L 215.539812 150.51488 
L 215.397411 150.327711 
L 213.701575 147.9168 
L 212.343809 146.263944 
L 211.481729 145.31872 
L 211.433674 145.255009 
L 206.623044 139.0464 
L 206.202235 138.480433 
L 201.804388 132.77408 
L 201.314828 132.159991 
L 200.817804 131.384467 
L 199.951063 130.176 
L 198.401841 128.367772 
L 197.769577 127.57792 
L 196.075883 125.314034 
L 193.0223 121.3056 
L 191.450193 119.164496 
L 188.34661 115.03328 
L 187.142772 113.503489 
L 186.885747 113.083273 
L 186.443918 112.4352 
L 184.659554 110.239764 
L 184.377857 109.83712 
L 184.107293 109.470233 
L 183.154666 108.202635 
L 180.848696 105.027538 
L 179.776788 103.5648 
L 176.945531 99.577474 
L 175.308027 97.29248 
L 173.337059 94.708098 
L 173.328291 94.6944 
L 173.322522 94.6873 
L 171.605454 92.09632 
L 169.844204 89.618488 
L 167.1329 85.824 
L 165.888549 84.034575 
L 162.927067 79.778658 
L 162.802658 79.593994 
L 162.774321 79.55168 
L 162.741327 79.506315 
L 161.905483 78.142228 
L 161.23296 76.9536 
L 160.581106 76.093747 
L 160.149662 75.577257 
L 159.400002 74.35552 
L 156.001046 69.306572 
L 155.185695 68.0832 
L 151.281232 62.108178 
L 151.088869 61.81088 
L 151.040585 61.723242 
L 149.765747 59.2128 
L 148.416798 57.353711 
L 147.826562 56.61472 
L 147.099457 55.4305 
L 144.021902 50.3424 
L 142.798772 48.292361 
L 140.352114 44.07008 
L 139.172337 42.268906 
L 138.719767 41.472 
L 132.83328 41.472 
L 124.73856 41.472 
L 116.64384 41.472 
L 108.54912 41.472 
L 100.4544 41.472 
L 100.4544 50.3424 
L 100.4544 59.2128 
L 100.4544 68.0832 
L 100.4544 76.9536 
L 100.4544 85.824 
L 100.4544 89.957497 
L 102.131739 92.85633 
L 103.294754 94.6944 
L 104.395405 96.579795 
L 104.881531 97.29248 
L 108.619438 103.487744 
L 108.66825 103.5648 
L 108.945402 103.999056 
L 112.773386 109.83712 
L 113.086622 110.375602 
L 114.70894 112.4352 
L 115.951152 114.616668 
L 116.171904 115.03328 
L 118.003986 117.707258 
L 120.52344 121.3056 
L 122.366823 123.90461 
L 125.043055 127.57792 
L 126.308056 129.463597 
L 126.541873 129.728329 
L 126.910626 130.176 
L 127.323417 130.817689 
L 127.842834 131.585048 
L 128.7694 132.77408 
L 129.518188 133.808763 
L 132.246454 137.493918 
L 133.031116 138.523013 
L 133.434 139.0464 
L 136.902027 143.458163 
L 138.378661 145.31872 
L 140.017994 147.503743 
L 140.215931 147.740029 
L 140.3702 147.9168 
L 140.503235 148.109603 
L 142.52715 150.51488 
L 144.454114 152.923194 
L 147.564972 156.7872 
L 148.564822 157.998595 
L 150.252163 160.03976 
L 152.133793 162.248407 
L 152.821668 163.05952 
L 153.664125 164.09012 
L 155.080507 165.6576 
L 155.60799 166.342748 
L 157.315978 168.25568 
L 160.003524 171.365355 
L 162.716514 174.528 
L 164.464481 176.506027 
L 167.092368 179.502196 
L 167.925975 180.424532 
L 168.259966 180.80032 
L 168.701424 181.307957 
L 169.841604 182.538148 
L 170.67093 183.3984 
L 171.132582 183.938168 
L 171.395449 184.26601 
L 173.005203 185.99648 
L 176.01877 189.297042 
L 178.680151 192.2688 
L 180.612702 194.355873 
L 183.308247 197.312943 
L 184.11192 198.169162 
L 184.451443 198.54112 
L 184.923944 199.063772 
L 186.091796 200.294029 
L 186.926467 201.1392 
L 187.661725 201.971933 
L 189.33955 203.73728 
L 192.328967 206.905513 
L 195.170467 210.0096 
L 196.901663 211.833386 
L 199.22918 214.343392 
L 200.507562 215.684001 
L 201.056081 216.28192 
L 201.837841 217.133407 
L 203.529571 218.88 
L 204.160346 219.572394 
L 205.971761 221.47808 
L 208.74981 224.392736 
L 211.821307 227.7504 
L 213.223212 229.224684 
L 215.112384 231.274027 
L 216.91817 233.18244 
L 217.674537 234.02272 
L 218.745837 235.200364 
L 220.095941 236.6208 
L 220.432797 236.978875 
L 220.618932 237.191027 
L 222.501023 239.21888 
L 225.087233 241.971373 
L 228.22516 245.4912 
L 229.465289 246.82623 
L 231.214952 248.785003 
L 233.139158 250.888668 
L 233.890824 251.76352 
L 234.91642 252.932605 
L 235.656473 253.763774 
L 236.214267 254.3616 
L 236.559625 254.735219 
L 236.750895 254.957917 
L 238.514975 256.95968 
L 241.135493 259.866881 
L 243.975559 263.232 
L 245.504139 264.965424 
L 247.886443 267.801095 
L 248.951491 269.042711 
L 249.317652 269.50432 
L 249.784443 270.073606 
L 251.488512 272.1024 
L 252.263967 273.005724 
L 253.63432 274.70048 
L 256.670425 278.324908 
L 258.712282 280.9728 
L 261.190627 284.036813 
L 263.634313 287.24512 
L 264.433174 288.351136 
L 265.583746 289.8432 
L 266.405137 290.845726 
L 266.869749 291.465355 
L 267.561849 292.44128 
L 271.438935 297.622799 
L 272.172384 298.7136 
L 276.326109 304.565919 
L 276.602317 304.98592 
L 277.90308 306.887975 
L 278.379619 307.584 
L 278.53824 307.584 
L 286.63296 307.584 
L 294.72768 307.584 
L 302.8224 307.584 
L 310.91712 307.584 
" clip-path="url(#pc7c17e0b7e)" style="fill: #0018ff"/>
   </g>
   <g id="PathCollection_13">
    <path d="M 278.379619 307.584 
L 277.90308 306.887975 
L 276.602317 304.98592 
L 276.326109 304.565919 
L 272.172384 298.7136 
L 271.438935 297.622799 
L 267.561849 292.44128 
L 266.869749 291.465355 
L 266.405137 290.845726 
L 265.583746 289.8432 
L 264.433174 288.351136 
L 263.634313 287.24512 
L 261.190627 284.036813 
L 258.712282 280.9728 
L 256.670425 278.324908 
L 253.63432 274.70048 
L 252.263967 273.005724 
L 251.488512 272.1024 
L 249.784443 270.073606 
L 249.317652 269.50432 
L 248.951491 269.042711 
L 247.886443 267.801095 
L 245.504139 264.965424 
L 243.975559 263.232 
L 241.135493 259.866881 
L 238.514975 256.95968 
L 236.750895 254.957917 
L 236.559625 254.735219 
L 236.214267 254.3616 
L 235.656473 253.763774 
L 234.91642 252.932605 
L 233.890824 251.76352 
L 233.139158 250.888668 
L 231.214952 248.785003 
L 229.465289 246.82623 
L 228.22516 245.4912 
L 225.087233 241.971373 
L 222.501023 239.21888 
L 220.618932 237.191027 
L 220.432797 236.978875 
L 220.095941 236.6208 
L 218.745837 235.200364 
L 217.674537 234.02272 
L 216.91817 233.18244 
L 215.112384 231.274027 
L 213.223212 229.224684 
L 211.821307 227.7504 
L 208.74981 224.392736 
L 205.971761 221.47808 
L 204.160346 219.572394 
L 203.529571 218.88 
L 201.837841 217.133407 
L 201.056081 216.28192 
L 200.507562 215.684001 
L 199.22918 214.343392 
L 196.901663 211.833386 
L 195.170467 210.0096 
L 192.328967 206.905513 
L 189.33955 203.73728 
L 187.661725 201.971933 
L 186.926467 201.1392 
L 186.091796 200.294029 
L 184.923944 199.063772 
L 184.451443 198.54112 
L 184.11192 198.169162 
L 183.308247 197.312943 
L 180.612702 194.355873 
L 178.680151 192.2688 
L 176.01877 189.297042 
L 173.005203 185.99648 
L 171.395449 184.26601 
L 171.132582 183.938168 
L 170.67093 183.3984 
L 169.841604 182.538148 
L 168.701424 181.307957 
L 168.259966 180.80032 
L 167.925975 180.424532 
L 167.092368 179.502196 
L 164.464481 176.506027 
L 162.716514 174.528 
L 160.003524 171.365355 
L 157.315978 168.25568 
L 155.60799 166.342748 
L 155.080507 165.6576 
L 153.664125 164.09012 
L 152.821668 163.05952 
L 152.133793 162.248407 
L 150.252163 160.03976 
L 148.564822 157.998595 
L 147.564972 156.7872 
L 144.454114 152.923194 
L 142.52715 150.51488 
L 140.503235 148.109603 
L 140.3702 147.9168 
L 140.215931 147.740029 
L 140.017994 147.503743 
L 138.378661 145.31872 
L 136.902027 143.458163 
L 133.434 139.0464 
L 133.031116 138.523013 
L 132.246454 137.493918 
L 129.518188 133.808763 
L 128.7694 132.77408 
L 127.842834 131.585048 
L 127.323417 130.817689 
L 126.910626 130.176 
L 126.541873 129.728329 
L 126.308056 129.463597 
L 125.043055 127.57792 
L 122.366823 123.90461 
L 120.52344 121.3056 
L 118.003986 117.707258 
L 116.171904 115.03328 
L 115.951152 114.616668 
L 114.70894 112.4352 
L 113.086622 110.375602 
L 112.773386 109.83712 
L 108.945402 103.999056 
L 108.66825 103.5648 
L 108.619438 103.487744 
L 104.881531 97.29248 
L 104.395405 96.579795 
L 103.294754 94.6944 
L 102.131739 92.85633 
L 100.4544 89.957497 
L 100.4544 94.6944 
L 100.4544 103.5648 
L 100.4544 112.4352 
L 100.4544 121.3056 
L 100.4544 130.176 
L 100.4544 139.0464 
L 100.4544 147.9168 
L 100.4544 156.7872 
L 100.4544 158.665719 
L 101.979447 160.821799 
L 103.255514 162.588068 
L 103.610152 163.05952 
L 103.976241 163.581944 
L 105.538859 165.6576 
L 106.281657 166.686814 
L 107.529144 168.25568 
L 110.561823 172.322429 
L 112.267431 174.528 
L 115.216661 178.303682 
L 117.209309 180.80032 
L 118.012945 181.728771 
L 119.486234 183.3984 
L 120.309399 184.497936 
L 120.8088 185.182141 
L 121.519645 185.99648 
L 125.800431 191.105175 
L 126.794823 192.2688 
L 131.001338 197.115307 
L 132.25291 198.54112 
L 132.791416 199.119299 
L 134.707601 201.1392 
L 136.422166 203.184424 
L 136.941369 203.73728 
L 141.808279 209.044968 
L 142.698739 210.0096 
L 147.210338 214.804359 
L 148.604638 216.28192 
L 149.235892 216.923411 
L 151.195084 218.88 
L 152.939323 220.776471 
L 153.634148 221.47808 
L 158.400899 226.343953 
L 159.773306 227.7504 
L 163.716881 231.706245 
L 166.01623 234.02272 
L 167.092568 235.078101 
L 168.692059 236.6208 
L 170.11586 238.069222 
L 171.292243 239.21888 
L 175.38227 243.216935 
L 177.678528 245.4912 
L 180.404136 248.130047 
L 183.570259 251.22851 
L 183.937376 251.582832 
L 184.120639 251.76352 
L 184.422444 252.058539 
L 185.876836 253.463066 
L 186.821951 254.3616 
L 187.67156 255.189869 
L 189.5033 256.95968 
L 192.554519 259.880748 
L 195.980055 263.232 
L 197.16355 264.362948 
L 198.51498 265.676336 
L 201.146126 268.206646 
L 202.455392 269.50432 
L 204.634397 271.62518 
L 205.12795 272.1024 
L 205.307552 272.274071 
L 207.790313 274.70048 
L 209.720164 276.551798 
L 213.53543 280.324508 
L 213.893011 280.675092 
L 214.188482 280.9728 
L 218.243708 284.952282 
L 220.488881 287.24512 
L 222.720451 289.459536 
L 222.85693 289.599486 
L 223.084698 289.8432 
L 223.473311 290.23993 
L 224.078019 290.843072 
L 225.654238 292.44128 
L 226.678577 293.449938 
L 228.803559 295.627925 
L 230.487017 297.345591 
L 231.781662 298.7136 
L 235.023881 302.045741 
L 237.740727 304.98592 
L 239.581221 306.895615 
L 240.205139 307.584 
L 246.15936 307.584 
L 254.25408 307.584 
L 262.3488 307.584 
L 270.44352 307.584 
" clip-path="url(#pc7c17e0b7e)" style="fill: #0080ff"/>
   </g>
   <g id="PathCollection_14">
    <path d="M 240.205139 307.584 
L 239.581221 306.895615 
L 237.740727 304.98592 
L 235.023881 302.045741 
L 231.781662 298.7136 
L 230.487017 297.345591 
L 228.803559 295.627925 
L 226.678577 293.449938 
L 225.654238 292.44128 
L 224.078019 290.843072 
L 223.473311 290.23993 
L 223.084698 289.8432 
L 222.85693 289.599486 
L 222.720451 289.459536 
L 220.488881 287.24512 
L 218.243708 284.952282 
L 214.188482 280.9728 
L 213.893011 280.675092 
L 213.53543 280.324508 
L 209.720164 276.551798 
L 207.790313 274.70048 
L 205.307552 272.274071 
L 205.12795 272.1024 
L 204.634397 271.62518 
L 202.455392 269.50432 
L 201.146126 268.206646 
L 198.51498 265.676336 
L 197.16355 264.362948 
L 195.980055 263.232 
L 192.554519 259.880748 
L 189.5033 256.95968 
L 187.67156 255.189869 
L 186.821951 254.3616 
L 185.876836 253.463066 
L 184.422444 252.058539 
L 184.120639 251.76352 
L 183.937376 251.582832 
L 183.570259 251.22851 
L 180.404136 248.130047 
L 177.678528 245.4912 
L 175.38227 243.216935 
L 171.292243 239.21888 
L 170.11586 238.069222 
L 168.692059 236.6208 
L 167.092568 235.078101 
L 166.01623 234.02272 
L 163.716881 231.706245 
L 159.773306 227.7504 
L 158.400899 226.343953 
L 153.634148 221.47808 
L 152.939323 220.776471 
L 151.195084 218.88 
L 149.235892 216.923411 
L 148.604638 216.28192 
L 147.210338 214.804359 
L 142.698739 210.0096 
L 141.808279 209.044968 
L 136.941369 203.73728 
L 136.422166 203.184424 
L 134.707601 201.1392 
L 132.791416 199.119299 
L 132.25291 198.54112 
L 131.001338 197.115307 
L 126.794823 192.2688 
L 125.800431 191.105175 
L 121.519645 185.99648 
L 120.8088 185.182141 
L 120.309399 184.497936 
L 119.486234 183.3984 
L 118.012945 181.728771 
L 117.209309 180.80032 
L 115.216661 178.303682 
L 112.267431 174.528 
L 110.561823 172.322429 
L 107.529144 168.25568 
L 106.281657 166.686814 
L 105.538859 165.6576 
L 103.976241 163.581944 
L 103.610152 163.05952 
L 103.255514 162.588068 
L 101.979447 160.821799 
L 100.4544 158.665719 
L 100.4544 165.6576 
L 100.4544 174.528 
L 100.4544 183.3984 
L 100.4544 192.2688 
L 100.4544 201.1392 
L 100.4544 210.0096 
L 100.4544 211.043571 
L 101.18472 211.941702 
L 103.832562 215.178124 
L 104.774407 216.28192 
L 105.938664 217.695099 
L 106.937866 218.88 
L 107.376929 219.412064 
L 109.192754 221.47808 
L 111.643722 224.359256 
L 114.646113 227.7504 
L 116.046084 229.331797 
L 118.093209 231.584788 
L 119.666389 233.308614 
L 120.337123 234.02272 
L 121.288271 235.054694 
L 122.169839 235.983117 
L 122.769656 236.6208 
L 123.123554 237.021724 
L 123.335831 237.257507 
L 125.218375 239.21888 
L 127.883224 242.045197 
L 131.224925 245.4912 
L 132.382657 246.683349 
L 133.840948 248.157042 
L 136.263422 250.602763 
L 137.435023 251.76352 
L 139.296786 253.621183 
L 140.046004 254.3616 
L 140.318439 254.638283 
L 142.695649 256.95968 
L 144.780824 259.009978 
L 148.945028 263.026461 
L 149.058861 263.136387 
L 149.158752 263.232 
L 153.414044 267.290275 
L 155.761437 269.50432 
L 158.064987 271.672303 
L 158.524453 272.1024 
L 159.858828 273.346732 
L 161.304825 274.70048 
L 162.134068 275.475451 
L 163.670137 276.893292 
L 165.953033 279.012779 
L 168.072482 280.9728 
L 170.914429 283.594508 
L 174.890246 287.24512 
L 176.269324 288.49853 
L 176.783481 288.980136 
L 177.712403 289.8432 
L 179.389666 291.353247 
L 180.590605 292.44128 
L 182.955846 294.601754 
L 187.455482 298.7136 
L 188.568589 299.730232 
L 194.31692 304.98592 
L 194.620229 305.258228 
L 197.156518 307.584 
L 197.59104 307.584 
L 205.68576 307.584 
L 213.78048 307.584 
L 221.8752 307.584 
L 229.96992 307.584 
L 238.06464 307.584 
" clip-path="url(#pc7c17e0b7e)" style="fill: #00e4f8"/>
   </g>
   <g id="PathCollection_15">
    <path d="M 197.156518 307.584 
L 194.620229 305.258228 
L 194.31692 304.98592 
L 188.568589 299.730232 
L 187.455482 298.7136 
L 182.955846 294.601754 
L 180.590605 292.44128 
L 179.389666 291.353247 
L 177.712403 289.8432 
L 176.783481 288.980136 
L 176.269324 288.49853 
L 174.890246 287.24512 
L 170.914429 283.594508 
L 168.072482 280.9728 
L 165.953033 279.012779 
L 163.670137 276.893292 
L 162.134068 275.475451 
L 161.304825 274.70048 
L 159.858828 273.346732 
L 158.524453 272.1024 
L 158.064987 271.672303 
L 155.761437 269.50432 
L 153.414044 267.290275 
L 149.158752 263.232 
L 149.058861 263.136387 
L 148.945028 263.026461 
L 144.780824 259.009978 
L 142.695649 256.95968 
L 140.318439 254.638283 
L 140.046004 254.3616 
L 139.296786 253.621183 
L 137.435023 251.76352 
L 136.263422 250.602763 
L 133.840948 248.157042 
L 132.382657 246.683349 
L 131.224925 245.4912 
L 127.883224 242.045197 
L 125.218375 239.21888 
L 123.335831 237.257507 
L 123.123554 237.021724 
L 122.769656 236.6208 
L 122.169839 235.983117 
L 121.288271 235.054694 
L 120.337123 234.02272 
L 119.666389 233.308614 
L 118.093209 231.584788 
L 116.046084 229.331797 
L 114.646113 227.7504 
L 111.643722 224.359256 
L 109.192754 221.47808 
L 107.376929 219.412064 
L 106.937866 218.88 
L 105.938664 217.695099 
L 104.774407 216.28192 
L 103.832562 215.178124 
L 101.18472 211.941702 
L 100.4544 211.043571 
L 100.4544 218.88 
L 100.4544 227.7504 
L 100.4544 236.6208 
L 100.4544 245.4912 
L 100.4544 254.3616 
L 100.4544 259.773025 
L 101.369214 260.811808 
L 103.560383 263.232 
L 106.018408 266.005218 
L 109.302264 269.50432 
L 110.77074 271.093994 
L 111.738292 272.1024 
L 114.168551 274.653092 
L 114.212935 274.70048 
L 114.243088 274.733205 
L 114.311999 274.803784 
L 117.655982 278.29512 
L 120.313925 280.9728 
L 122.593546 283.323361 
L 126.588375 287.24512 
L 127.806704 288.450552 
L 128.303965 288.958091 
L 129.221611 289.8432 
L 130.820285 291.352984 
L 131.933526 292.44128 
L 134.322836 294.772895 
L 138.491968 298.7136 
L 139.783351 299.967935 
L 145.182053 304.98592 
L 145.663623 305.434474 
L 147.994983 307.584 
L 149.02272 307.584 
L 157.11744 307.584 
L 165.21216 307.584 
L 173.30688 307.584 
L 181.4016 307.584 
L 189.49632 307.584 
" clip-path="url(#pc7c17e0b7e)" style="fill: #53ffa4"/>
   </g>
   <g id="PathCollection_16">
    <path d="M 147.994983 307.584 
L 145.663623 305.434474 
L 145.182053 304.98592 
L 139.783351 299.967935 
L 138.491968 298.7136 
L 134.322836 294.772895 
L 131.933526 292.44128 
L 130.820285 291.352984 
L 129.221611 289.8432 
L 128.303965 288.958091 
L 127.806704 288.450552 
L 126.588375 287.24512 
L 122.593546 283.323361 
L 120.313925 280.9728 
L 117.655982 278.29512 
L 114.311999 274.803784 
L 114.243088 274.733205 
L 114.212935 274.70048 
L 114.168551 274.653092 
L 111.738292 272.1024 
L 110.77074 271.093994 
L 109.302264 269.50432 
L 106.018408 266.005218 
L 103.560383 263.232 
L 101.369214 260.811808 
L 100.4544 259.773025 
L 100.4544 263.232 
L 100.4544 272.1024 
L 100.4544 280.9728 
L 100.4544 289.8432 
L 100.4544 298.7136 
L 100.4544 307.584 
L 108.54912 307.584 
L 116.64384 307.584 
L 124.73856 307.584 
L 132.83328 307.584 
L 140.928 307.584 
" clip-path="url(#pc7c17e0b7e)" style="fill: #a4ff53"/>
   </g>
   <g id="PathCollection_17">
    <path clip-path="url(#pc7c17e0b7e)" style="fill: #f8f500"/>
   </g>
   <g id="PathCollection_18">
    <path clip-path="url(#pc7c17e0b7e)" style="fill: #ff9400"/>
   </g>
   <g id="PathCollection_19">
    <path clip-path="url(#pc7c17e0b7e)" style="fill: #ff3800"/>
   </g>
   <g id="PathCollection_20">
    <path clip-path="url(#pc7c17e0b7e)" style="fill: #b60000"/>
   </g>
   <g id="matplotlib.axis_1">
    <g id="xtick_1">
     <g id="line2d_1">
      <defs>
       <path id="m9462daa7b2" d="M 0 0 
L 0 3.5 
" style="stroke: #000000; stroke-width: 0.8"/>
      </defs>
      <g>
       <use xlink:href="#m9462daa7b2" x="57.6" y="307.584" style="stroke: #000000; stroke-width: 0.8"/>
      </g>
     </g>
     <g id="text_1">
      <!-- 0.0 -->
      <g transform="translate(51.26875 321.385562) scale(0.1 -0.1)">
       <defs>
        <path id="Calibri-30" d="M 3022 2031 
Q 3022 1566 2948 1181 
Q 2875 797 2704 520 
Q 2534 244 2259 92 
Q 1984 -59 1581 -59 
Q 1200 -59 939 77 
Q 678 213 518 477 
Q 359 741 292 1127 
Q 225 1513 225 2013 
Q 225 2475 300 2861 
Q 375 3247 544 3523 
Q 713 3800 988 3951 
Q 1263 4103 1663 4103 
Q 2047 4103 2308 3967 
Q 2569 3831 2728 3567 
Q 2888 3303 2955 2917 
Q 3022 2531 3022 2031 
z
M 2472 1994 
Q 2472 2297 2450 2537 
Q 2428 2778 2386 2962 
Q 2344 3147 2276 3280 
Q 2209 3413 2115 3498 
Q 2022 3584 1901 3623 
Q 1781 3663 1631 3663 
Q 1366 3663 1200 3538 
Q 1034 3413 939 3194 
Q 844 2975 809 2681 
Q 775 2388 775 2050 
Q 775 1597 822 1280 
Q 869 963 970 763 
Q 1072 563 1230 472 
Q 1388 381 1613 381 
Q 1788 381 1920 437 
Q 2053 494 2148 598 
Q 2244 703 2306 850 
Q 2369 997 2406 1175 
Q 2444 1353 2458 1561 
Q 2472 1769 2472 1994 
z
" transform="scale(0.015625)"/>
        <path id="Calibri-2e" d="M 1144 341 
Q 1144 119 1070 45 
Q 997 -28 803 -28 
Q 616 -28 544 44 
Q 472 116 472 331 
Q 472 553 545 626 
Q 619 700 813 700 
Q 1000 700 1072 628 
Q 1144 556 1144 341 
z
" transform="scale(0.015625)"/>
       </defs>
       <use xlink:href="#Calibri-30"/>
       <use xlink:href="#Calibri-2e" x="50.683594"/>
       <use xlink:href="#Calibri-30" x="75.927734"/>
      </g>
     </g>
    </g>
    <g id="xtick_2">
     <g id="line2d_2">
      <g>
       <use xlink:href="#m9462daa7b2" x="86.1696" y="307.584" style="stroke: #000000; stroke-width: 0.8"/>
      </g>
     </g>
     <g id="text_2">
      <!-- 0.1 -->
      <g transform="translate(79.83835 321.385562) scale(0.1 -0.1)">
       <defs>
        <path id="Calibri-31" d="M 2897 213 
Q 2897 153 2887 112 
Q 2878 72 2862 47 
Q 2847 22 2826 11 
Q 2806 0 2784 0 
L 672 0 
Q 650 0 631 11 
Q 613 22 595 47 
Q 578 72 568 112 
Q 559 153 559 213 
Q 559 269 568 309 
Q 578 350 592 376 
Q 606 403 626 417 
Q 647 431 672 431 
L 1516 431 
L 1516 3506 
L 734 3041 
Q 675 3009 639 3003 
Q 603 2997 581 3017 
Q 559 3038 551 3084 
Q 544 3131 544 3203 
Q 544 3256 548 3293 
Q 553 3331 562 3356 
Q 572 3381 589 3400 
Q 606 3419 634 3438 
L 1566 4034 
Q 1578 4044 1597 4050 
Q 1616 4056 1644 4062 
Q 1672 4069 1709 4070 
Q 1747 4072 1803 4072 
Q 1878 4072 1928 4065 
Q 1978 4059 2006 4048 
Q 2034 4038 2043 4020 
Q 2053 4003 2053 3984 
L 2053 431 
L 2784 431 
Q 2809 431 2831 417 
Q 2853 403 2867 376 
Q 2881 350 2889 309 
Q 2897 269 2897 213 
z
" transform="scale(0.015625)"/>
       </defs>
       <use xlink:href="#Calibri-30"/>
       <use xlink:href="#Calibri-2e" x="50.683594"/>
       <use xlink:href="#Calibri-31" x="75.927734"/>
      </g>
     </g>
    </g>
    <g id="xtick_3">
     <g id="line2d_3">
      <g>
       <use xlink:href="#m9462daa7b2" x="114.7392" y="307.584" style="stroke: #000000; stroke-width: 0.8"/>
      </g>
     </g>
     <g id="text_3">
      <!-- 0.2 -->
      <g transform="translate(108.40795 321.385562) scale(0.1 -0.1)">
       <defs>
        <path id="Calibri-32" d="M 2888 231 
Q 2888 175 2880 131 
Q 2872 88 2858 58 
Q 2844 28 2820 14 
Q 2797 0 2769 0 
L 534 0 
Q 491 0 458 11 
Q 425 22 401 47 
Q 378 72 367 119 
Q 356 166 356 234 
Q 356 297 361 344 
Q 366 391 381 427 
Q 397 463 420 498 
Q 444 534 481 575 
L 1266 1406 
Q 1538 1694 1702 1922 
Q 1866 2150 1955 2337 
Q 2044 2525 2072 2678 
Q 2100 2831 2100 2966 
Q 2100 3100 2056 3220 
Q 2013 3341 1930 3431 
Q 1847 3522 1722 3575 
Q 1597 3628 1434 3628 
Q 1244 3628 1092 3575 
Q 941 3522 827 3459 
Q 713 3397 636 3344 
Q 559 3291 522 3291 
Q 500 3291 483 3303 
Q 466 3316 455 3344 
Q 444 3372 437 3419 
Q 431 3466 431 3531 
Q 431 3578 434 3612 
Q 438 3647 445 3672 
Q 453 3697 465 3719 
Q 478 3741 515 3773 
Q 553 3806 645 3862 
Q 738 3919 877 3973 
Q 1016 4028 1183 4065 
Q 1350 4103 1534 4103 
Q 1828 4103 2048 4020 
Q 2269 3938 2414 3794 
Q 2559 3650 2631 3459 
Q 2703 3269 2703 3053 
Q 2703 2859 2668 2667 
Q 2634 2475 2523 2251 
Q 2413 2028 2203 1754 
Q 1994 1481 1647 1125 
L 1006 456 
L 2766 456 
Q 2791 456 2814 442 
Q 2838 428 2855 400 
Q 2872 372 2880 330 
Q 2888 288 2888 231 
z
" transform="scale(0.015625)"/>
       </defs>
       <use xlink:href="#Calibri-30"/>
       <use xlink:href="#Calibri-2e" x="50.683594"/>
       <use xlink:href="#Calibri-32" x="75.927734"/>
      </g>
     </g>
    </g>
    <g id="xtick_4">
     <g id="line2d_4">
      <g>
       <use xlink:href="#m9462daa7b2" x="143.3088" y="307.584" style="stroke: #000000; stroke-width: 0.8"/>
      </g>
     </g>
     <g id="text_4">
      <!-- 0.3 -->
      <g transform="translate(136.97755 321.385562) scale(0.1 -0.1)">
       <defs>
        <path id="Calibri-33" d="M 2856 1156 
Q 2856 878 2759 654 
Q 2663 431 2481 272 
Q 2300 113 2034 27 
Q 1769 -59 1434 -59 
Q 1231 -59 1054 -26 
Q 878 6 740 51 
Q 603 97 512 145 
Q 422 194 398 216 
Q 375 238 362 259 
Q 350 281 340 312 
Q 331 344 326 389 
Q 322 434 322 500 
Q 322 613 344 656 
Q 366 700 406 700 
Q 434 700 517 650 
Q 600 600 729 542 
Q 859 484 1032 434 
Q 1206 384 1419 384 
Q 1625 384 1781 437 
Q 1938 491 2044 587 
Q 2150 684 2203 817 
Q 2256 950 2256 1106 
Q 2256 1278 2189 1415 
Q 2122 1553 1992 1653 
Q 1863 1753 1673 1806 
Q 1484 1859 1244 1859 
L 859 1859 
Q 834 1859 811 1870 
Q 788 1881 770 1906 
Q 753 1931 742 1972 
Q 731 2013 731 2078 
Q 731 2138 740 2177 
Q 750 2216 767 2239 
Q 784 2263 806 2273 
Q 828 2284 856 2284 
L 1209 2284 
Q 1416 2284 1580 2337 
Q 1744 2391 1858 2491 
Q 1972 2591 2033 2730 
Q 2094 2869 2094 3041 
Q 2094 3166 2053 3280 
Q 2013 3394 1931 3478 
Q 1850 3563 1723 3611 
Q 1597 3659 1431 3659 
Q 1250 3659 1098 3604 
Q 947 3550 828 3487 
Q 709 3425 631 3370 
Q 553 3316 522 3316 
Q 500 3316 483 3323 
Q 466 3331 455 3354 
Q 444 3378 439 3420 
Q 434 3463 434 3531 
Q 434 3578 437 3614 
Q 441 3650 450 3676 
Q 459 3703 471 3725 
Q 484 3747 514 3776 
Q 544 3806 634 3862 
Q 725 3919 858 3973 
Q 991 4028 1164 4065 
Q 1338 4103 1538 4103 
Q 1819 4103 2031 4031 
Q 2244 3959 2386 3828 
Q 2528 3697 2598 3514 
Q 2669 3331 2669 3109 
Q 2669 2919 2619 2755 
Q 2569 2591 2472 2464 
Q 2375 2338 2234 2248 
Q 2094 2159 1909 2125 
L 1909 2119 
Q 2119 2097 2292 2014 
Q 2466 1931 2591 1806 
Q 2716 1681 2786 1514 
Q 2856 1347 2856 1156 
z
" transform="scale(0.015625)"/>
       </defs>
       <use xlink:href="#Calibri-30"/>
       <use xlink:href="#Calibri-2e" x="50.683594"/>
       <use xlink:href="#Calibri-33" x="75.927734"/>
      </g>
     </g>
    </g>
    <g id="xtick_5">
     <g id="line2d_5">
      <g>
       <use xlink:href="#m9462daa7b2" x="171.8784" y="307.584" style="stroke: #000000; stroke-width: 0.8"/>
      </g>
     </g>
     <g id="text_5">
      <!-- 0.4 -->
      <g transform="translate(165.54715 321.385562) scale(0.1 -0.1)">
       <defs>
        <path id="Calibri-34" d="M 3059 1150 
Q 3059 1047 3028 987 
Q 2997 928 2941 928 
L 2484 928 
L 2484 78 
Q 2484 53 2471 36 
Q 2459 19 2428 6 
Q 2397 -6 2347 -12 
Q 2297 -19 2219 -19 
Q 2144 -19 2094 -12 
Q 2044 -6 2014 6 
Q 1984 19 1973 36 
Q 1963 53 1963 78 
L 1963 928 
L 294 928 
Q 256 928 231 937 
Q 206 947 186 972 
Q 166 997 158 1044 
Q 150 1091 150 1166 
Q 150 1225 153 1272 
Q 156 1319 165 1358 
Q 175 1397 190 1433 
Q 206 1469 228 1509 
L 1684 3966 
Q 1700 3991 1729 4009 
Q 1759 4028 1806 4040 
Q 1853 4053 1922 4058 
Q 1991 4063 2084 4063 
Q 2188 4063 2264 4055 
Q 2341 4047 2387 4034 
Q 2434 4022 2459 4001 
Q 2484 3981 2484 3953 
L 2484 1372 
L 2941 1372 
Q 2994 1372 3026 1317 
Q 3059 1263 3059 1150 
z
M 1963 3591 
L 1956 3591 
L 641 1372 
L 1963 1372 
L 1963 3591 
z
" transform="scale(0.015625)"/>
       </defs>
       <use xlink:href="#Calibri-30"/>
       <use xlink:href="#Calibri-2e" x="50.683594"/>
       <use xlink:href="#Calibri-34" x="75.927734"/>
      </g>
     </g>
    </g>
    <g id="xtick_6">
     <g id="line2d_6">
      <g>
       <use xlink:href="#m9462daa7b2" x="200.448" y="307.584" style="stroke: #000000; stroke-width: 0.8"/>
      </g>
     </g>
     <g id="text_6">
      <!-- 0.5 -->
      <g transform="translate(194.11675 321.385562) scale(0.1 -0.1)">
       <defs>
        <path id="Calibri-35" d="M 2869 1300 
Q 2869 975 2759 722 
Q 2650 469 2450 295 
Q 2250 122 1973 31 
Q 1697 -59 1359 -59 
Q 1172 -59 1003 -32 
Q 834 -6 703 33 
Q 572 72 487 109 
Q 403 147 379 169 
Q 356 191 347 209 
Q 338 228 330 254 
Q 322 281 319 322 
Q 316 363 316 419 
Q 316 472 320 514 
Q 325 556 337 582 
Q 350 609 367 621 
Q 384 634 406 634 
Q 438 634 503 595 
Q 569 556 680 511 
Q 791 466 955 425 
Q 1119 384 1344 384 
Q 1553 384 1728 434 
Q 1903 484 2029 590 
Q 2156 697 2228 858 
Q 2300 1019 2300 1250 
Q 2300 1444 2239 1592 
Q 2178 1741 2051 1839 
Q 1925 1938 1731 1986 
Q 1538 2034 1269 2034 
Q 1078 2034 940 2015 
Q 803 1997 684 1997 
Q 597 1997 559 2037 
Q 522 2078 522 2194 
L 522 3841 
Q 522 3944 570 3994 
Q 619 4044 709 4044 
L 2500 4044 
Q 2525 4044 2548 4030 
Q 2572 4016 2587 3987 
Q 2603 3959 2611 3915 
Q 2619 3872 2619 3813 
Q 2619 3700 2587 3637 
Q 2556 3575 2500 3575 
L 991 3575 
L 991 2441 
Q 1100 2456 1214 2459 
Q 1328 2463 1478 2463 
Q 1825 2463 2084 2380 
Q 2344 2297 2517 2145 
Q 2691 1994 2780 1778 
Q 2869 1563 2869 1300 
z
" transform="scale(0.015625)"/>
       </defs>
       <use xlink:href="#Calibri-30"/>
       <use xlink:href="#Calibri-2e" x="50.683594"/>
       <use xlink:href="#Calibri-35" x="75.927734"/>
      </g>
     </g>
    </g>
    <g id="xtick_7">
     <g id="line2d_7">
      <g>
       <use xlink:href="#m9462daa7b2" x="229.0176" y="307.584" style="stroke: #000000; stroke-width: 0.8"/>
      </g>
     </g>
     <g id="text_7">
      <!-- 0.6 -->
      <g transform="translate(222.68635 321.385562) scale(0.1 -0.1)">
       <defs>
        <path id="Calibri-36" d="M 2991 1309 
Q 2991 1044 2909 795 
Q 2828 547 2659 358 
Q 2491 169 2231 55 
Q 1972 -59 1619 -59 
Q 1366 -59 1172 3 
Q 978 66 834 181 
Q 691 297 595 465 
Q 500 634 442 850 
Q 384 1066 359 1322 
Q 334 1578 334 1872 
Q 334 2131 362 2397 
Q 391 2663 462 2909 
Q 534 3156 657 3373 
Q 781 3591 967 3752 
Q 1153 3913 1412 4006 
Q 1672 4100 2016 4100 
Q 2131 4100 2250 4086 
Q 2369 4072 2469 4048 
Q 2569 4025 2637 3997 
Q 2706 3969 2728 3951 
Q 2750 3934 2761 3914 
Q 2772 3894 2778 3870 
Q 2784 3847 2787 3817 
Q 2791 3788 2791 3744 
Q 2791 3688 2789 3647 
Q 2788 3606 2777 3581 
Q 2766 3556 2748 3543 
Q 2731 3531 2703 3531 
Q 2669 3531 2609 3553 
Q 2550 3575 2465 3601 
Q 2381 3628 2261 3650 
Q 2141 3672 1981 3672 
Q 1691 3672 1481 3553 
Q 1272 3434 1139 3234 
Q 1006 3034 942 2770 
Q 878 2506 869 2219 
Q 950 2266 1051 2312 
Q 1153 2359 1273 2396 
Q 1394 2434 1528 2457 
Q 1663 2481 1816 2481 
Q 2144 2481 2369 2392 
Q 2594 2303 2733 2145 
Q 2872 1988 2931 1773 
Q 2991 1559 2991 1309 
z
M 2447 1259 
Q 2447 1441 2411 1589 
Q 2375 1738 2290 1841 
Q 2206 1944 2065 2000 
Q 1925 2056 1719 2056 
Q 1603 2056 1487 2036 
Q 1372 2016 1264 1980 
Q 1156 1944 1057 1895 
Q 959 1847 878 1791 
Q 878 1388 929 1116 
Q 981 844 1079 680 
Q 1178 516 1325 445 
Q 1472 375 1669 375 
Q 1869 375 2016 450 
Q 2163 525 2259 651 
Q 2356 778 2401 936 
Q 2447 1094 2447 1259 
z
" transform="scale(0.015625)"/>
       </defs>
       <use xlink:href="#Calibri-30"/>
       <use xlink:href="#Calibri-2e" x="50.683594"/>
       <use xlink:href="#Calibri-36" x="75.927734"/>
      </g>
     </g>
    </g>
    <g id="xtick_8">
     <g id="line2d_8">
      <g>
       <use xlink:href="#m9462daa7b2" x="257.5872" y="307.584" style="stroke: #000000; stroke-width: 0.8"/>
      </g>
     </g>
     <g id="text_8">
      <!-- 0.7 -->
      <g transform="translate(251.25595 321.385562) scale(0.1 -0.1)">
       <defs>
        <path id="Calibri-37" d="M 2947 3813 
Q 2947 3756 2942 3711 
Q 2938 3666 2930 3623 
Q 2922 3581 2908 3542 
Q 2894 3503 2875 3459 
L 1419 103 
Q 1403 66 1379 42 
Q 1356 19 1320 5 
Q 1284 -9 1228 -14 
Q 1172 -19 1091 -19 
Q 984 -19 925 -9 
Q 866 0 839 20 
Q 813 41 816 70 
Q 819 100 838 141 
L 2369 3572 
L 428 3572 
Q 369 3572 339 3634 
Q 309 3697 309 3809 
Q 309 3869 317 3912 
Q 325 3956 340 3986 
Q 356 4016 378 4030 
Q 400 4044 428 4044 
L 2784 4044 
Q 2828 4044 2861 4034 
Q 2894 4025 2911 3997 
Q 2928 3969 2937 3925 
Q 2947 3881 2947 3813 
z
" transform="scale(0.015625)"/>
       </defs>
       <use xlink:href="#Calibri-30"/>
       <use xlink:href="#Calibri-2e" x="50.683594"/>
       <use xlink:href="#Calibri-37" x="75.927734"/>
      </g>
     </g>
    </g>
    <g id="xtick_9">
     <g id="line2d_9">
      <g>
       <use xlink:href="#m9462daa7b2" x="286.1568" y="307.584" style="stroke: #000000; stroke-width: 0.8"/>
      </g>
     </g>
     <g id="text_9">
      <!-- 0.8 -->
      <g transform="translate(279.82555 321.385562) scale(0.1 -0.1)">
       <defs>
        <path id="Calibri-38" d="M 2981 1038 
Q 2981 775 2887 570 
Q 2794 366 2617 225 
Q 2441 84 2181 12 
Q 1922 -59 1588 -59 
Q 1275 -59 1028 6 
Q 781 72 609 200 
Q 438 328 347 515 
Q 256 703 256 944 
Q 256 1134 318 1293 
Q 381 1453 498 1587 
Q 616 1722 787 1839 
Q 959 1956 1175 2063 
Q 988 2159 844 2267 
Q 700 2375 600 2501 
Q 500 2628 448 2772 
Q 397 2916 397 3084 
Q 397 3297 473 3483 
Q 550 3669 704 3806 
Q 859 3944 1098 4023 
Q 1338 4103 1656 4103 
Q 1963 4103 2186 4029 
Q 2409 3956 2554 3829 
Q 2700 3703 2769 3531 
Q 2838 3359 2838 3163 
Q 2838 3003 2786 2856 
Q 2734 2709 2634 2578 
Q 2534 2447 2389 2333 
Q 2244 2219 2056 2119 
Q 2278 2009 2451 1893 
Q 2625 1778 2742 1645 
Q 2859 1513 2920 1364 
Q 2981 1216 2981 1038 
z
M 2306 3113 
Q 2306 3244 2261 3350 
Q 2216 3456 2128 3531 
Q 2041 3606 1911 3645 
Q 1781 3684 1616 3684 
Q 1278 3684 1104 3531 
Q 931 3378 931 3113 
Q 931 2991 973 2886 
Q 1016 2781 1105 2687 
Q 1194 2594 1330 2505 
Q 1466 2416 1653 2319 
Q 1969 2481 2137 2678 
Q 2306 2875 2306 3113 
z
M 2438 981 
Q 2438 1125 2384 1242 
Q 2331 1359 2223 1461 
Q 2116 1563 1955 1658 
Q 1794 1753 1581 1856 
Q 1384 1759 1236 1662 
Q 1088 1566 992 1462 
Q 897 1359 848 1245 
Q 800 1131 800 994 
Q 800 691 1008 525 
Q 1216 359 1628 359 
Q 2028 359 2233 526 
Q 2438 694 2438 981 
z
" transform="scale(0.015625)"/>
       </defs>
       <use xlink:href="#Calibri-30"/>
       <use xlink:href="#Calibri-2e" x="50.683594"/>
       <use xlink:href="#Calibri-38" x="75.927734"/>
      </g>
     </g>
    </g>
    <g id="xtick_10">
     <g id="line2d_10">
      <g>
       <use xlink:href="#m9462daa7b2" x="314.7264" y="307.584" style="stroke: #000000; stroke-width: 0.8"/>
      </g>
     </g>
     <g id="text_10">
      <!-- 0.9 -->
      <g transform="translate(308.39515 321.385562) scale(0.1 -0.1)">
       <defs>
        <path id="Calibri-39" d="M 2919 2181 
Q 2919 1919 2887 1650 
Q 2856 1381 2781 1132 
Q 2706 884 2579 667 
Q 2453 450 2261 287 
Q 2069 125 1805 33 
Q 1541 -59 1191 -59 
Q 1056 -59 929 -42 
Q 803 -25 701 0 
Q 600 25 531 53 
Q 463 81 431 109 
Q 400 138 386 186 
Q 372 234 372 316 
Q 372 384 376 425 
Q 381 466 390 487 
Q 400 509 417 517 
Q 434 525 459 525 
Q 494 525 556 501 
Q 619 478 714 450 
Q 809 422 937 398 
Q 1066 375 1225 375 
Q 1528 375 1745 492 
Q 1963 609 2100 806 
Q 2238 1003 2306 1262 
Q 2375 1522 2381 1809 
Q 2216 1713 1984 1638 
Q 1753 1563 1453 1563 
Q 1116 1563 886 1655 
Q 656 1747 517 1906 
Q 378 2066 317 2284 
Q 256 2503 256 2763 
Q 256 3031 334 3273 
Q 413 3516 578 3700 
Q 744 3884 1000 3993 
Q 1256 4103 1613 4103 
Q 1866 4103 2061 4039 
Q 2256 3975 2400 3854 
Q 2544 3734 2644 3564 
Q 2744 3394 2805 3178 
Q 2866 2963 2892 2711 
Q 2919 2459 2919 2181 
z
M 2372 2241 
Q 2372 2641 2319 2914 
Q 2266 3188 2162 3356 
Q 2059 3525 1909 3600 
Q 1759 3675 1563 3675 
Q 1359 3675 1215 3601 
Q 1072 3528 980 3404 
Q 888 3281 844 3125 
Q 800 2969 800 2803 
Q 800 2619 839 2466 
Q 878 2313 965 2206 
Q 1053 2100 1193 2042 
Q 1334 1984 1541 1984 
Q 1775 1984 1994 2054 
Q 2213 2125 2372 2241 
z
" transform="scale(0.015625)"/>
       </defs>
       <use xlink:href="#Calibri-30"/>
       <use xlink:href="#Calibri-2e" x="50.683594"/>
       <use xlink:href="#Calibri-39" x="75.927734"/>
      </g>
     </g>
    </g>
    <g id="xtick_11">
     <g id="line2d_11">
      <g>
       <use xlink:href="#m9462daa7b2" x="343.296" y="307.584" style="stroke: #000000; stroke-width: 0.8"/>
      </g>
     </g>
     <g id="text_11">
      <!-- 1.0 -->
      <g transform="translate(336.96475 321.385562) scale(0.1 -0.1)">
       <use xlink:href="#Calibri-31"/>
       <use xlink:href="#Calibri-2e" x="50.683594"/>
       <use xlink:href="#Calibri-30" x="75.927734"/>
      </g>
     </g>
    </g>
    <g id="text_12">
     <!-- $\mathit{p}$ (cm$^2$/cm$^2$) -->
     <g transform="translate(174.148 336.263687) scale(0.1 -0.1)">
      <defs>
       <path id="DejaVuSans-Oblique-70" d="M 3175 2156 
Q 3175 2616 2975 2859 
Q 2775 3103 2400 3103 
Q 2144 3103 1911 2972 
Q 1678 2841 1497 2591 
Q 1319 2344 1212 1994 
Q 1106 1644 1106 1300 
Q 1106 863 1306 627 
Q 1506 391 1875 391 
Q 2147 391 2380 519 
Q 2613 647 2778 891 
Q 2956 1147 3065 1494 
Q 3175 1841 3175 2156 
z
M 1394 2969 
Q 1625 3272 1939 3428 
Q 2253 3584 2638 3584 
Q 3175 3584 3472 3232 
Q 3769 2881 3769 2247 
Q 3769 1728 3584 1258 
Q 3400 788 3053 416 
Q 2822 169 2531 39 
Q 2241 -91 1919 -91 
Q 1547 -91 1294 64 
Q 1041 219 916 525 
L 556 -1331 
L -19 -1331 
L 922 3500 
L 1497 3500 
L 1394 2969 
z
" transform="scale(0.015625)"/>
       <path id="Calibri-20" transform="scale(0.015625)"/>
       <path id="Calibri-28" d="M 1547 4306 
Q 1250 3678 1104 3017 
Q 959 2356 959 1688 
Q 959 1016 1107 356 
Q 1256 -303 1541 -938 
Q 1556 -975 1557 -1001 
Q 1559 -1028 1537 -1045 
Q 1516 -1063 1470 -1070 
Q 1425 -1078 1347 -1078 
Q 1291 -1078 1250 -1075 
Q 1209 -1072 1179 -1062 
Q 1150 -1053 1131 -1040 
Q 1113 -1028 1103 -1013 
Q 934 -694 806 -367 
Q 678 -41 590 296 
Q 503 634 459 979 
Q 416 1325 416 1678 
Q 416 2031 464 2375 
Q 513 2719 602 3058 
Q 691 3397 819 3725 
Q 947 4053 1106 4375 
Q 1109 4388 1123 4397 
Q 1138 4406 1163 4415 
Q 1188 4425 1231 4429 
Q 1275 4434 1344 4434 
Q 1416 4434 1459 4425 
Q 1503 4416 1528 4400 
Q 1553 4384 1556 4359 
Q 1559 4334 1547 4306 
z
" transform="scale(0.015625)"/>
       <path id="Calibri-63" d="M 2500 506 
Q 2500 453 2497 414 
Q 2494 375 2486 348 
Q 2478 322 2467 301 
Q 2456 281 2417 242 
Q 2378 203 2284 145 
Q 2191 88 2073 42 
Q 1956 -3 1818 -31 
Q 1681 -59 1534 -59 
Q 1231 -59 997 41 
Q 763 141 605 333 
Q 447 525 364 804 
Q 281 1084 281 1450 
Q 281 1866 382 2164 
Q 484 2463 661 2653 
Q 838 2844 1077 2936 
Q 1316 3028 1594 3028 
Q 1728 3028 1854 3003 
Q 1981 2978 2087 2937 
Q 2194 2897 2276 2844 
Q 2359 2791 2396 2753 
Q 2434 2716 2448 2694 
Q 2463 2672 2472 2642 
Q 2481 2613 2484 2575 
Q 2488 2538 2488 2481 
Q 2488 2359 2459 2311 
Q 2431 2263 2391 2263 
Q 2344 2263 2283 2314 
Q 2222 2366 2128 2428 
Q 2034 2491 1901 2542 
Q 1769 2594 1588 2594 
Q 1216 2594 1017 2308 
Q 819 2022 819 1478 
Q 819 1206 870 1001 
Q 922 797 1022 659 
Q 1122 522 1267 455 
Q 1413 388 1600 388 
Q 1778 388 1912 444 
Q 2047 500 2145 567 
Q 2244 634 2311 689 
Q 2378 744 2416 744 
Q 2438 744 2453 731 
Q 2469 719 2480 689 
Q 2491 659 2495 614 
Q 2500 569 2500 506 
z
" transform="scale(0.015625)"/>
       <path id="Calibri-6d" d="M 4650 78 
Q 4650 53 4637 36 
Q 4625 19 4597 6 
Q 4569 -6 4519 -12 
Q 4469 -19 4394 -19 
Q 4316 -19 4266 -12 
Q 4216 -6 4186 6 
Q 4156 19 4143 36 
Q 4131 53 4131 78 
L 4131 1788 
Q 4131 1966 4100 2112 
Q 4069 2259 4000 2365 
Q 3931 2472 3825 2528 
Q 3719 2584 3575 2584 
Q 3397 2584 3217 2446 
Q 3038 2309 2822 2044 
L 2822 78 
Q 2822 53 2809 36 
Q 2797 19 2767 6 
Q 2738 -6 2688 -12 
Q 2638 -19 2563 -19 
Q 2491 -19 2439 -12 
Q 2388 -6 2358 6 
Q 2328 19 2317 36 
Q 2306 53 2306 78 
L 2306 1788 
Q 2306 1966 2272 2112 
Q 2238 2259 2169 2365 
Q 2100 2472 1995 2528 
Q 1891 2584 1747 2584 
Q 1569 2584 1387 2446 
Q 1206 2309 994 2044 
L 994 78 
Q 994 53 981 36 
Q 969 19 941 6 
Q 913 -6 863 -12 
Q 813 -19 734 -19 
Q 659 -19 609 -12 
Q 559 -6 529 6 
Q 500 19 489 36 
Q 478 53 478 78 
L 478 2891 
Q 478 2916 487 2933 
Q 497 2950 525 2964 
Q 553 2978 597 2983 
Q 641 2988 713 2988 
Q 781 2988 826 2983 
Q 872 2978 897 2964 
Q 922 2950 933 2933 
Q 944 2916 944 2891 
L 944 2519 
Q 1181 2784 1404 2907 
Q 1628 3031 1856 3031 
Q 2031 3031 2170 2990 
Q 2309 2950 2415 2876 
Q 2522 2803 2597 2701 
Q 2672 2600 2722 2475 
Q 2863 2628 2989 2734 
Q 3116 2841 3233 2906 
Q 3350 2972 3461 3001 
Q 3572 3031 3684 3031 
Q 3956 3031 4140 2936 
Q 4325 2841 4439 2681 
Q 4553 2522 4601 2308 
Q 4650 2094 4650 1856 
L 4650 78 
z
" transform="scale(0.015625)"/>
       <path id="DejaVuSans-32" d="M 1228 531 
L 3431 531 
L 3431 0 
L 469 0 
L 469 531 
Q 828 903 1448 1529 
Q 2069 2156 2228 2338 
Q 2531 2678 2651 2914 
Q 2772 3150 2772 3378 
Q 2772 3750 2511 3984 
Q 2250 4219 1831 4219 
Q 1534 4219 1204 4116 
Q 875 4013 500 3803 
L 500 4441 
Q 881 4594 1212 4672 
Q 1544 4750 1819 4750 
Q 2544 4750 2975 4387 
Q 3406 4025 3406 3419 
Q 3406 3131 3298 2873 
Q 3191 2616 2906 2266 
Q 2828 2175 2409 1742 
Q 1991 1309 1228 531 
z
" transform="scale(0.015625)"/>
       <path id="Calibri-2f" d="M 525 -753 
Q 513 -794 492 -817 
Q 472 -841 440 -853 
Q 409 -866 364 -872 
Q 319 -878 253 -878 
Q 175 -878 123 -867 
Q 72 -856 44 -836 
Q 16 -816 9 -786 
Q 3 -756 22 -716 
L 1913 4469 
Q 1925 4509 1945 4532 
Q 1966 4556 1995 4570 
Q 2025 4584 2072 4589 
Q 2119 4594 2184 4594 
Q 2263 4594 2313 4583 
Q 2363 4572 2391 4553 
Q 2419 4534 2425 4503 
Q 2431 4472 2416 4431 
L 525 -753 
z
" transform="scale(0.015625)"/>
       <path id="Calibri-29" d="M 1522 1678 
Q 1522 1325 1478 979 
Q 1434 634 1346 296 
Q 1259 -41 1132 -367 
Q 1006 -694 838 -1013 
Q 828 -1028 809 -1040 
Q 791 -1053 761 -1062 
Q 731 -1072 690 -1075 
Q 650 -1078 594 -1078 
Q 513 -1078 467 -1070 
Q 422 -1063 401 -1045 
Q 381 -1028 382 -1001 
Q 384 -975 400 -938 
Q 688 -306 834 355 
Q 981 1016 981 1688 
Q 981 2356 834 3017 
Q 688 3678 394 4306 
Q 381 4334 384 4359 
Q 388 4384 413 4400 
Q 438 4416 481 4425 
Q 525 4434 597 4434 
Q 663 4434 706 4429 
Q 750 4425 776 4415 
Q 803 4406 815 4397 
Q 828 4388 834 4375 
Q 1156 3734 1339 3057 
Q 1522 2381 1522 1678 
z
" transform="scale(0.015625)"/>
      </defs>
      <use xlink:href="#DejaVuSans-Oblique-70" transform="translate(0 0.765625)"/>
      <use xlink:href="#Calibri-20" transform="translate(63.476562 0.765625)"/>
      <use xlink:href="#Calibri-28" transform="translate(84.958984 0.765625)"/>
      <use xlink:href="#Calibri-63" transform="translate(115.28125 0.765625)"/>
      <use xlink:href="#Calibri-6d" transform="translate(157.566406 0.765625)"/>
      <use xlink:href="#DejaVuSans-32" transform="translate(238.40625 39.046875) scale(0.7)"/>
      <use xlink:href="#Calibri-2f" transform="translate(285.676758 0.765625)"/>
      <use xlink:href="#Calibri-63" transform="translate(324.299805 0.765625)"/>
      <use xlink:href="#Calibri-6d" transform="translate(366.584961 0.765625)"/>
      <use xlink:href="#DejaVuSans-32" transform="translate(447.424805 39.046875) scale(0.7)"/>
      <use xlink:href="#Calibri-29" transform="translate(494.695312 0.765625)"/>
     </g>
    </g>
   </g>
   <g id="matplotlib.axis_2">
    <g id="ytick_1">
     <g id="line2d_12">
      <defs>
       <path id="m54db63e664" d="M 0 0 
L -3.5 0 
" style="stroke: #000000; stroke-width: 0.8"/>
      </defs>
      <g>
       <use xlink:href="#m54db63e664" x="57.6" y="275.65056" style="stroke: #000000; stroke-width: 0.8"/>
      </g>
     </g>
     <g id="text_13">
      <!-- 25 -->
      <g transform="translate(40.4625 279.051341) scale(0.1 -0.1)">
       <use xlink:href="#Calibri-32"/>
       <use xlink:href="#Calibri-35" x="50.683594"/>
      </g>
     </g>
    </g>
    <g id="ytick_2">
     <g id="line2d_13">
      <g>
       <use xlink:href="#m54db63e664" x="57.6" y="242.38656" style="stroke: #000000; stroke-width: 0.8"/>
      </g>
     </g>
     <g id="text_14">
      <!-- 50 -->
      <g transform="translate(40.4625 245.787341) scale(0.1 -0.1)">
       <use xlink:href="#Calibri-35"/>
       <use xlink:href="#Calibri-30" x="50.683594"/>
      </g>
     </g>
    </g>
    <g id="ytick_3">
     <g id="line2d_14">
      <g>
       <use xlink:href="#m54db63e664" x="57.6" y="209.12256" style="stroke: #000000; stroke-width: 0.8"/>
      </g>
     </g>
     <g id="text_15">
      <!-- 75 -->
      <g transform="translate(40.4625 212.523341) scale(0.1 -0.1)">
       <use xlink:href="#Calibri-37"/>
       <use xlink:href="#Calibri-35" x="50.683594"/>
      </g>
     </g>
    </g>
    <g id="ytick_4">
     <g id="line2d_15">
      <g>
       <use xlink:href="#m54db63e664" x="57.6" y="175.85856" style="stroke: #000000; stroke-width: 0.8"/>
      </g>
     </g>
     <g id="text_16">
      <!-- 100 -->
      <g transform="translate(35.39375 179.259341) scale(0.1 -0.1)">
       <use xlink:href="#Calibri-31"/>
       <use xlink:href="#Calibri-30" x="50.683594"/>
       <use xlink:href="#Calibri-30" x="101.367188"/>
      </g>
     </g>
    </g>
    <g id="ytick_5">
     <g id="line2d_16">
      <g>
       <use xlink:href="#m54db63e664" x="57.6" y="142.59456" style="stroke: #000000; stroke-width: 0.8"/>
      </g>
     </g>
     <g id="text_17">
      <!-- 125 -->
      <g transform="translate(35.39375 145.995341) scale(0.1 -0.1)">
       <use xlink:href="#Calibri-31"/>
       <use xlink:href="#Calibri-32" x="50.683594"/>
       <use xlink:href="#Calibri-35" x="101.367188"/>
      </g>
     </g>
    </g>
    <g id="ytick_6">
     <g id="line2d_17">
      <g>
       <use xlink:href="#m54db63e664" x="57.6" y="109.33056" style="stroke: #000000; stroke-width: 0.8"/>
      </g>
     </g>
     <g id="text_18">
      <!-- 150 -->
      <g transform="translate(35.39375 112.731341) scale(0.1 -0.1)">
       <use xlink:href="#Calibri-31"/>
       <use xlink:href="#Calibri-35" x="50.683594"/>
       <use xlink:href="#Calibri-30" x="101.367188"/>
      </g>
     </g>
    </g>
    <g id="ytick_7">
     <g id="line2d_18">
      <g>
       <use xlink:href="#m54db63e664" x="57.6" y="76.06656" style="stroke: #000000; stroke-width: 0.8"/>
      </g>
     </g>
     <g id="text_19">
      <!-- 175 -->
      <g transform="translate(35.39375 79.467341) scale(0.1 -0.1)">
       <use xlink:href="#Calibri-31"/>
       <use xlink:href="#Calibri-37" x="50.683594"/>
       <use xlink:href="#Calibri-35" x="101.367188"/>
      </g>
     </g>
    </g>
    <g id="ytick_8">
     <g id="line2d_19">
      <g>
       <use xlink:href="#m54db63e664" x="57.6" y="42.80256" style="stroke: #000000; stroke-width: 0.8"/>
      </g>
     </g>
     <g id="text_20">
      <!-- 200 -->
      <g transform="translate(35.39375 46.203341) scale(0.1 -0.1)">
       <use xlink:href="#Calibri-32"/>
       <use xlink:href="#Calibri-30" x="50.683594"/>
       <use xlink:href="#Calibri-30" x="101.367188"/>
      </g>
     </g>
    </g>
    <g id="text_21">
     <!-- $\mathit{Z}$$_{a}$ (nm) -->
     <g transform="translate(29.59375 191.028) rotate(-90) scale(0.1 -0.1)">
      <defs>
       <path id="DejaVuSans-Oblique-5a" d="M 838 4666 
L 4500 4666 
L 4409 4184 
L 794 531 
L 3769 531 
L 3669 0 
L -141 0 
L -50 481 
L 3566 4134 
L 738 4134 
L 838 4666 
z
" transform="scale(0.015625)"/>
       <path id="DejaVuSans-Oblique-61" d="M 3438 1997 
L 3047 0 
L 2472 0 
L 2578 531 
Q 2325 219 2001 64 
Q 1678 -91 1281 -91 
Q 834 -91 548 182 
Q 263 456 263 884 
Q 263 1497 752 1853 
Q 1241 2209 2100 2209 
L 2900 2209 
L 2931 2363 
Q 2938 2388 2941 2417 
Q 2944 2447 2944 2509 
Q 2944 2788 2717 2942 
Q 2491 3097 2081 3097 
Q 1800 3097 1504 3025 
Q 1209 2953 897 2809 
L 997 3341 
Q 1322 3463 1633 3523 
Q 1944 3584 2234 3584 
Q 2853 3584 3176 3315 
Q 3500 3047 3500 2534 
Q 3500 2431 3484 2292 
Q 3469 2153 3438 1997 
z
M 2816 1759 
L 2241 1759 
Q 1534 1759 1195 1570 
Q 856 1381 856 984 
Q 856 709 1029 553 
Q 1203 397 1509 397 
Q 1978 397 2328 733 
Q 2678 1069 2791 1631 
L 2816 1759 
z
" transform="scale(0.015625)"/>
       <path id="Calibri-6e" d="M 2900 78 
Q 2900 53 2887 36 
Q 2875 19 2847 6 
Q 2819 -6 2769 -12 
Q 2719 -19 2644 -19 
Q 2566 -19 2516 -12 
Q 2466 -6 2437 6 
Q 2409 19 2396 36 
Q 2384 53 2384 78 
L 2384 1725 
Q 2384 1966 2346 2112 
Q 2309 2259 2237 2365 
Q 2166 2472 2052 2528 
Q 1938 2584 1788 2584 
Q 1594 2584 1400 2446 
Q 1206 2309 994 2044 
L 994 78 
Q 994 53 981 36 
Q 969 19 941 6 
Q 913 -6 863 -12 
Q 813 -19 734 -19 
Q 659 -19 609 -12 
Q 559 -6 529 6 
Q 500 19 489 36 
Q 478 53 478 78 
L 478 2891 
Q 478 2916 487 2933 
Q 497 2950 525 2964 
Q 553 2978 597 2983 
Q 641 2988 713 2988 
Q 781 2988 826 2983 
Q 872 2978 897 2964 
Q 922 2950 933 2933 
Q 944 2916 944 2891 
L 944 2519 
Q 1181 2784 1417 2907 
Q 1653 3031 1894 3031 
Q 2175 3031 2367 2936 
Q 2559 2841 2678 2681 
Q 2797 2522 2848 2308 
Q 2900 2094 2900 1794 
L 2900 78 
z
" transform="scale(0.015625)"/>
      </defs>
      <use xlink:href="#DejaVuSans-Oblique-5a" transform="translate(0 0.09375)"/>
      <use xlink:href="#DejaVuSans-Oblique-61" transform="translate(69.462891 -16.3125) scale(0.7)"/>
      <use xlink:href="#Calibri-20" transform="translate(115.092773 0.09375)"/>
      <use xlink:href="#Calibri-28" transform="translate(136.575195 0.09375)"/>
      <use xlink:href="#Calibri-6e" transform="translate(166.897461 0.09375)"/>
      <use xlink:href="#Calibri-6d" transform="translate(219.436523 0.09375)"/>
      <use xlink:href="#Calibri-29" transform="translate(299.319336 0.09375)"/>
     </g>
    </g>
   </g>
   <g id="patch_3">
    <path d="M 57.6 307.584 
L 57.6 41.472 
" style="fill: none; stroke: #000000; stroke-width: 0.8; stroke-linejoin: miter; stroke-linecap: square"/>
   </g>
   <g id="patch_4">
    <path d="M 343.296 307.584 
L 343.296 41.472 
" style="fill: none; stroke: #000000; stroke-width: 0.8; stroke-linejoin: miter; stroke-linecap: square"/>
   </g>
   <g id="patch_5">
    <path d="M 57.6 307.584 
L 343.296 307.584 
" style="fill: none; stroke: #000000; stroke-width: 0.8; stroke-linejoin: miter; stroke-linecap: square"/>
   </g>
   <g id="patch_6">
    <path d="M 57.6 41.472 
L 343.296 41.472 
" style="fill: none; stroke: #000000; stroke-width: 0.8; stroke-linejoin: miter; stroke-linecap: square"/>
   </g>
   <g id="text_22">
    <!-- $\theta_m$ = 51 -->
    <g transform="translate(182.298 35.472) scale(0.1 -0.1)">
     <defs>
      <path id="DejaVuSans-Oblique-3b8" d="M 2913 2219 
L 925 2219 
Q 791 1284 928 888 
Q 1100 400 1566 400 
Q 2034 400 2391 891 
Q 2703 1322 2913 2219 
z
M 3009 2750 
Q 3094 3638 2984 3950 
Q 2813 4444 2353 4444 
Q 1875 4444 1525 3956 
Q 1250 3563 1034 2750 
L 3009 2750 
z
M 2444 4913 
Q 3194 4913 3494 4250 
Q 3794 3591 3566 2422 
Q 3341 1256 2781 594 
Q 2225 -72 1475 -72 
Q 722 -72 425 594 
Q 128 1256 353 2422 
Q 581 3591 1134 4250 
Q 1691 4913 2444 4913 
z
" transform="scale(0.015625)"/>
      <path id="DejaVuSans-Oblique-6d" d="M 5747 2113 
L 5338 0 
L 4763 0 
L 5166 2094 
Q 5191 2228 5203 2325 
Q 5216 2422 5216 2491 
Q 5216 2772 5059 2928 
Q 4903 3084 4622 3084 
Q 4203 3084 3875 2770 
Q 3547 2456 3450 1953 
L 3066 0 
L 2491 0 
L 2900 2094 
Q 2925 2209 2937 2307 
Q 2950 2406 2950 2484 
Q 2950 2769 2794 2926 
Q 2638 3084 2363 3084 
Q 1938 3084 1609 2770 
Q 1281 2456 1184 1953 
L 800 0 
L 225 0 
L 909 3500 
L 1484 3500 
L 1375 2956 
Q 1609 3263 1923 3423 
Q 2238 3584 2597 3584 
Q 2978 3584 3223 3384 
Q 3469 3184 3519 2828 
Q 3781 3197 4126 3390 
Q 4472 3584 4856 3584 
Q 5306 3584 5551 3325 
Q 5797 3066 5797 2591 
Q 5797 2488 5784 2364 
Q 5772 2241 5747 2113 
z
" transform="scale(0.015625)"/>
      <path id="Calibri-3d" d="M 2891 2409 
Q 2891 2284 2855 2236 
Q 2819 2188 2772 2188 
L 409 2188 
Q 363 2188 328 2236 
Q 294 2284 294 2409 
Q 294 2522 325 2575 
Q 356 2628 409 2628 
L 2772 2628 
Q 2828 2628 2859 2575 
Q 2891 2522 2891 2409 
z
M 2891 1194 
Q 2891 1069 2855 1022 
Q 2819 975 2772 975 
L 409 975 
Q 363 975 328 1022 
Q 294 1069 294 1194 
Q 294 1309 325 1362 
Q 356 1416 409 1416 
L 2772 1416 
Q 2828 1416 2859 1362 
Q 2891 1309 2891 1194 
z
" transform="scale(0.015625)"/>
      <path id="Calibri-b0" d="M 1847 3541 
Q 1847 3388 1789 3253 
Q 1731 3119 1626 3017 
Q 1522 2916 1380 2859 
Q 1238 2803 1072 2803 
Q 906 2803 770 2854 
Q 634 2906 534 3000 
Q 434 3094 378 3225 
Q 322 3356 322 3516 
Q 322 3675 381 3811 
Q 441 3947 545 4044 
Q 650 4141 790 4197 
Q 931 4253 1097 4253 
Q 1259 4253 1396 4200 
Q 1534 4147 1634 4055 
Q 1734 3963 1790 3831 
Q 1847 3700 1847 3541 
z
M 1453 3528 
Q 1453 3613 1425 3686 
Q 1397 3759 1347 3812 
Q 1297 3866 1228 3895 
Q 1159 3925 1078 3925 
Q 1000 3925 933 3895 
Q 866 3866 816 3812 
Q 766 3759 737 3687 
Q 709 3616 709 3534 
Q 709 3444 737 3369 
Q 766 3294 817 3241 
Q 869 3188 939 3158 
Q 1009 3128 1091 3128 
Q 1166 3128 1233 3159 
Q 1300 3191 1348 3245 
Q 1397 3300 1425 3372 
Q 1453 3444 1453 3528 
z
M 0 4044 
L 0 4044 
z
" transform="scale(0.015625)"/>
     </defs>
     <use xlink:href="#DejaVuSans-Oblique-3b8" transform="translate(0 0.234375)"/>
     <use xlink:href="#DejaVuSans-Oblique-6d" transform="translate(61.181641 -16.171875) scale(0.7)"/>
     <use xlink:href="#Calibri-20" transform="translate(132.104492 0.234375)"/>
     <use xlink:href="#Calibri-3d" transform="translate(154.711914 0.234375)"/>
     <use xlink:href="#Calibri-20" transform="translate(204.516602 0.234375)"/>
     <use xlink:href="#Calibri-35" transform="translate(227.124023 0.234375)"/>
     <use xlink:href="#Calibri-31" transform="translate(277.807617 0.234375)"/>
     <use xlink:href="#Calibri-b0" transform="translate(328.491211 0.234375)"/>
    </g>
   </g>
  </g>
  <g id="axes_2">
   <g id="patch_7">
    <path d="M 361.152 307.584 
L 374.4576 307.584 
L 374.4576 41.472 
L 361.152 41.472 
z
" style="fill: #ffffff"/>
   </g>
   <g id="QuadMesh_1">
    <path d="M 361.152 307.584 
L 374.4576 307.584 
L 374.4576 280.9728 
L 361.152 280.9728 
L 361.152 307.584 
" clip-path="url(#p4d847b2c5e)" style="fill: #0000b6"/>
    <path d="M 361.152 280.9728 
L 374.4576 280.9728 
L 374.4576 254.3616 
L 361.152 254.3616 
L 361.152 280.9728 
" clip-path="url(#p4d847b2c5e)" style="fill: #0018ff"/>
    <path d="M 361.152 254.3616 
L 374.4576 254.3616 
L 374.4576 227.7504 
L 361.152 227.7504 
L 361.152 254.3616 
" clip-path="url(#p4d847b2c5e)" style="fill: #0080ff"/>
    <path d="M 361.152 227.7504 
L 374.4576 227.7504 
L 374.4576 201.1392 
L 361.152 201.1392 
L 361.152 227.7504 
" clip-path="url(#p4d847b2c5e)" style="fill: #00e4f8"/>
    <path d="M 361.152 201.1392 
L 374.4576 201.1392 
L 374.4576 174.528 
L 361.152 174.528 
L 361.152 201.1392 
" clip-path="url(#p4d847b2c5e)" style="fill: #53ffa4"/>
    <path d="M 361.152 174.528 
L 374.4576 174.528 
L 374.4576 147.9168 
L 361.152 147.9168 
L 361.152 174.528 
" clip-path="url(#p4d847b2c5e)" style="fill: #a4ff53"/>
    <path d="M 361.152 147.9168 
L 374.4576 147.9168 
L 374.4576 121.3056 
L 361.152 121.3056 
L 361.152 147.9168 
" clip-path="url(#p4d847b2c5e)" style="fill: #f8f500"/>
    <path d="M 361.152 121.3056 
L 374.4576 121.3056 
L 374.4576 94.6944 
L 361.152 94.6944 
L 361.152 121.3056 
" clip-path="url(#p4d847b2c5e)" style="fill: #ff9400"/>
    <path d="M 361.152 94.6944 
L 374.4576 94.6944 
L 374.4576 68.0832 
L 361.152 68.0832 
L 361.152 94.6944 
" clip-path="url(#p4d847b2c5e)" style="fill: #ff3800"/>
    <path d="M 361.152 68.0832 
L 374.4576 68.0832 
L 374.4576 41.472 
L 361.152 41.472 
L 361.152 68.0832 
" clip-path="url(#p4d847b2c5e)" style="fill: #b60000"/>
   </g>
   <g id="matplotlib.axis_3"/>
   <g id="matplotlib.axis_4">
    <g id="ytick_9">
     <g id="line2d_20">
      <defs>
       <path id="m58d9ac1bd2" d="M 0 0 
L 3.5 0 
" style="stroke: #000000; stroke-width: 0.8"/>
      </defs>
      <g>
       <use xlink:href="#m58d9ac1bd2" x="374.4576" y="307.584" style="stroke: #000000; stroke-width: 0.8"/>
      </g>
     </g>
     <g id="text_23">
      <!-- 0 -->
      <g transform="translate(381.4576 310.984781) scale(0.1 -0.1)">
       <use xlink:href="#Calibri-30"/>
      </g>
     </g>
    </g>
    <g id="ytick_10">
     <g id="line2d_21">
      <g>
       <use xlink:href="#m58d9ac1bd2" x="374.4576" y="280.9728" style="stroke: #000000; stroke-width: 0.8"/>
      </g>
     </g>
     <g id="text_24">
      <!-- 0.1 -->
      <g transform="translate(381.4576 284.373581) scale(0.1 -0.1)">
       <use xlink:href="#Calibri-30"/>
       <use xlink:href="#Calibri-2e" x="50.683594"/>
       <use xlink:href="#Calibri-31" x="75.927734"/>
      </g>
     </g>
    </g>
    <g id="ytick_11">
     <g id="line2d_22">
      <g>
       <use xlink:href="#m58d9ac1bd2" x="374.4576" y="254.3616" style="stroke: #000000; stroke-width: 0.8"/>
      </g>
     </g>
     <g id="text_25">
      <!-- 0.2 -->
      <g transform="translate(381.4576 257.762381) scale(0.1 -0.1)">
       <use xlink:href="#Calibri-30"/>
       <use xlink:href="#Calibri-2e" x="50.683594"/>
       <use xlink:href="#Calibri-32" x="75.927734"/>
      </g>
     </g>
    </g>
    <g id="ytick_12">
     <g id="line2d_23">
      <g>
       <use xlink:href="#m58d9ac1bd2" x="374.4576" y="227.7504" style="stroke: #000000; stroke-width: 0.8"/>
      </g>
     </g>
     <g id="text_26">
      <!-- 0.3 -->
      <g transform="translate(381.4576 231.151181) scale(0.1 -0.1)">
       <use xlink:href="#Calibri-30"/>
       <use xlink:href="#Calibri-2e" x="50.683594"/>
       <use xlink:href="#Calibri-33" x="75.927734"/>
      </g>
     </g>
    </g>
    <g id="ytick_13">
     <g id="line2d_24">
      <g>
       <use xlink:href="#m58d9ac1bd2" x="374.4576" y="201.1392" style="stroke: #000000; stroke-width: 0.8"/>
      </g>
     </g>
     <g id="text_27">
      <!-- 0.4 -->
      <g transform="translate(381.4576 204.539981) scale(0.1 -0.1)">
       <use xlink:href="#Calibri-30"/>
       <use xlink:href="#Calibri-2e" x="50.683594"/>
       <use xlink:href="#Calibri-34" x="75.927734"/>
      </g>
     </g>
    </g>
    <g id="ytick_14">
     <g id="line2d_25">
      <g>
       <use xlink:href="#m58d9ac1bd2" x="374.4576" y="174.528" style="stroke: #000000; stroke-width: 0.8"/>
      </g>
     </g>
     <g id="text_28">
      <!-- 0.5 -->
      <g transform="translate(381.4576 177.928781) scale(0.1 -0.1)">
       <use xlink:href="#Calibri-30"/>
       <use xlink:href="#Calibri-2e" x="50.683594"/>
       <use xlink:href="#Calibri-35" x="75.927734"/>
      </g>
     </g>
    </g>
    <g id="ytick_15">
     <g id="line2d_26">
      <g>
       <use xlink:href="#m58d9ac1bd2" x="374.4576" y="147.9168" style="stroke: #000000; stroke-width: 0.8"/>
      </g>
     </g>
     <g id="text_29">
      <!-- 0.6 -->
      <g transform="translate(381.4576 151.317581) scale(0.1 -0.1)">
       <use xlink:href="#Calibri-30"/>
       <use xlink:href="#Calibri-2e" x="50.683594"/>
       <use xlink:href="#Calibri-36" x="75.927734"/>
      </g>
     </g>
    </g>
    <g id="ytick_16">
     <g id="line2d_27">
      <g>
       <use xlink:href="#m58d9ac1bd2" x="374.4576" y="121.3056" style="stroke: #000000; stroke-width: 0.8"/>
      </g>
     </g>
     <g id="text_30">
      <!-- 0.7 -->
      <g transform="translate(381.4576 124.706381) scale(0.1 -0.1)">
       <use xlink:href="#Calibri-30"/>
       <use xlink:href="#Calibri-2e" x="50.683594"/>
       <use xlink:href="#Calibri-37" x="75.927734"/>
      </g>
     </g>
    </g>
    <g id="ytick_17">
     <g id="line2d_28">
      <g>
       <use xlink:href="#m58d9ac1bd2" x="374.4576" y="94.6944" style="stroke: #000000; stroke-width: 0.8"/>
      </g>
     </g>
     <g id="text_31">
      <!-- 0.8 -->
      <g transform="translate(381.4576 98.095181) scale(0.1 -0.1)">
       <use xlink:href="#Calibri-30"/>
       <use xlink:href="#Calibri-2e" x="50.683594"/>
       <use xlink:href="#Calibri-38" x="75.927734"/>
      </g>
     </g>
    </g>
    <g id="ytick_18">
     <g id="line2d_29">
      <g>
       <use xlink:href="#m58d9ac1bd2" x="374.4576" y="68.0832" style="stroke: #000000; stroke-width: 0.8"/>
      </g>
     </g>
     <g id="text_32">
      <!-- 0.9 -->
      <g transform="translate(381.4576 71.483981) scale(0.1 -0.1)">
       <use xlink:href="#Calibri-30"/>
       <use xlink:href="#Calibri-2e" x="50.683594"/>
       <use xlink:href="#Calibri-39" x="75.927734"/>
      </g>
     </g>
    </g>
    <g id="ytick_19">
     <g id="line2d_30">
      <g>
       <use xlink:href="#m58d9ac1bd2" x="374.4576" y="41.472" style="stroke: #000000; stroke-width: 0.8"/>
      </g>
     </g>
     <g id="text_33">
      <!-- 1.0 -->
      <g transform="translate(381.4576 44.872781) scale(0.1 -0.1)">
       <use xlink:href="#Calibri-31"/>
       <use xlink:href="#Calibri-2e" x="50.683594"/>
       <use xlink:href="#Calibri-30" x="75.927734"/>
      </g>
     </g>
    </g>
   </g>
   <g id="LineCollection_1"/>
   <g id="patch_8">
    <path d="M 361.152 307.584 
L 367.8048 307.584 
L 374.4576 307.584 
L 374.4576 41.472 
L 367.8048 41.472 
L 361.152 41.472 
L 361.152 307.584 
z
" style="fill: none; stroke: #000000; stroke-width: 0.8; stroke-linejoin: miter; stroke-linecap: square"/>
   </g>
   <g id="text_34">
    <!-- $\mathit{E}_{\mathrm{Edis}}$/$\mathit{E}_{\mathrm{i}}$ -->
    <g transform="translate(351.0548 35.472) scale(0.1 -0.1)">
     <defs>
      <path id="DejaVuSans-Oblique-45" d="M 1081 4666 
L 4031 4666 
L 3928 4134 
L 1606 4134 
L 1338 2753 
L 3566 2753 
L 3463 2222 
L 1234 2222 
L 909 531 
L 3284 531 
L 3181 0 
L 172 0 
L 1081 4666 
z
" transform="scale(0.015625)"/>
      <path id="DejaVuSans-45" d="M 628 4666 
L 3578 4666 
L 3578 4134 
L 1259 4134 
L 1259 2753 
L 3481 2753 
L 3481 2222 
L 1259 2222 
L 1259 531 
L 3634 531 
L 3634 0 
L 628 0 
L 628 4666 
z
" transform="scale(0.015625)"/>
      <path id="DejaVuSans-64" d="M 2906 2969 
L 2906 4863 
L 3481 4863 
L 3481 0 
L 2906 0 
L 2906 525 
Q 2725 213 2448 61 
Q 2172 -91 1784 -91 
Q 1150 -91 751 415 
Q 353 922 353 1747 
Q 353 2572 751 3078 
Q 1150 3584 1784 3584 
Q 2172 3584 2448 3432 
Q 2725 3281 2906 2969 
z
M 947 1747 
Q 947 1113 1208 752 
Q 1469 391 1925 391 
Q 2381 391 2643 752 
Q 2906 1113 2906 1747 
Q 2906 2381 2643 2742 
Q 2381 3103 1925 3103 
Q 1469 3103 1208 2742 
Q 947 2381 947 1747 
z
" transform="scale(0.015625)"/>
      <path id="DejaVuSans-69" d="M 603 3500 
L 1178 3500 
L 1178 0 
L 603 0 
L 603 3500 
z
M 603 4863 
L 1178 4863 
L 1178 4134 
L 603 4134 
L 603 4863 
z
" transform="scale(0.015625)"/>
      <path id="DejaVuSans-73" d="M 2834 3397 
L 2834 2853 
Q 2591 2978 2328 3040 
Q 2066 3103 1784 3103 
Q 1356 3103 1142 2972 
Q 928 2841 928 2578 
Q 928 2378 1081 2264 
Q 1234 2150 1697 2047 
L 1894 2003 
Q 2506 1872 2764 1633 
Q 3022 1394 3022 966 
Q 3022 478 2636 193 
Q 2250 -91 1575 -91 
Q 1294 -91 989 -36 
Q 684 19 347 128 
L 347 722 
Q 666 556 975 473 
Q 1284 391 1588 391 
Q 1994 391 2212 530 
Q 2431 669 2431 922 
Q 2431 1156 2273 1281 
Q 2116 1406 1581 1522 
L 1381 1569 
Q 847 1681 609 1914 
Q 372 2147 372 2553 
Q 372 3047 722 3315 
Q 1072 3584 1716 3584 
Q 2034 3584 2315 3537 
Q 2597 3491 2834 3397 
z
" transform="scale(0.015625)"/>
     </defs>
     <use xlink:href="#DejaVuSans-Oblique-45" transform="translate(0 0.09375)"/>
     <use xlink:href="#DejaVuSans-45" transform="translate(63.183594 -16.3125) scale(0.7)"/>
     <use xlink:href="#DejaVuSans-64" transform="translate(107.412109 -16.3125) scale(0.7)"/>
     <use xlink:href="#DejaVuSans-69" transform="translate(151.845703 -16.3125) scale(0.7)"/>
     <use xlink:href="#DejaVuSans-73" transform="translate(171.293945 -16.3125) scale(0.7)"/>
     <use xlink:href="#Calibri-2f" transform="translate(210.498047 0.09375)"/>
     <use xlink:href="#DejaVuSans-Oblique-45" transform="translate(249.121094 0.09375)"/>
     <use xlink:href="#DejaVuSans-69" transform="translate(312.304688 -16.3125) scale(0.7)"/>
    </g>
   </g>
  </g>
 </g>
 <defs>
  <clipPath id="pc7c17e0b7e">
   <rect x="57.6" y="41.472" width="285.696" height="266.112"/>
  </clipPath>
  <clipPath id="p4d847b2c5e">
   <rect x="361.152" y="41.472" width="13.3056" height="266.112"/>
  </clipPath>
 </defs>
</svg>
