<?xml version="1.0" encoding="utf-8" standalone="no"?>
<!DOCTYPE svg PUBLIC "-//W3C//DTD SVG 1.1//EN"
  "http://www.w3.org/Graphics/SVG/1.1/DTD/svg11.dtd">
<svg xmlns:xlink="http://www.w3.org/1999/xlink" width="460.8pt" height="345.6pt" viewBox="0 0 460.8 345.6" xmlns="http://www.w3.org/2000/svg" version="1.1">
 <metadata>
  <rdf:RDF xmlns:dc="http://purl.org/dc/elements/1.1/" xmlns:cc="http://creativecommons.org/ns#" xmlns:rdf="http://www.w3.org/1999/02/22-rdf-syntax-ns#">
   <cc:Work>
    <dc:type rdf:resource="http://purl.org/dc/dcmitype/StillImage"/>
    <dc:date>2024-01-22T08:39:57.852344</dc:date>
    <dc:format>image/svg+xml</dc:format>
    <dc:creator>
     <cc:Agent>
      <dc:title>Matplotlib v3.7.1, https://matplotlib.org/</dc:title>
     </cc:Agent>
    </dc:creator>
   </cc:Work>
  </rdf:RDF>
 </metadata>
 <defs>
  <style type="text/css">*{stroke-linejoin: round; stroke-linecap: butt}</style>
 </defs>
 <g id="figure_1">
  <g id="patch_1">
   <path d="M 0 345.6 
L 460.8 345.6 
L 460.8 0 
L 0 0 
z
" style="fill: #ffffff"/>
  </g>
  <g id="axes_1">
   <g id="patch_2">
    <path d="M 57.6 307.584 
L 343.296 307.584 
L 343.296 41.472 
L 57.6 41.472 
z
" style="fill: #ffffff"/>
   </g>
   <g id="PathCollection_1">
    <path clip-path="url(#p355f97bf4f)" style="fill: #0000b6"/>
   </g>
   <g id="PathCollection_2">
    <path clip-path="url(#p355f97bf4f)" style="fill: #0018ff"/>
   </g>
   <g id="PathCollection_3">
    <path clip-path="url(#p355f97bf4f)" style="fill: #0080ff"/>
   </g>
   <g id="PathCollection_4">
    <path clip-path="url(#p355f97bf4f)" style="fill: #00e4f8"/>
   </g>
   <g id="PathCollection_5">
    <path clip-path="url(#p355f97bf4f)" style="fill: #53ffa4"/>
   </g>
   <g id="PathCollection_6">
    <path d="M 57.62857 131.30069 
L 57.630984 131.297522 
L 57.640344 131.2848 
L 58.564835 130.002352 
L 59.322276 128.93268 
L 59.672258 128.428596 
L 60.000301 127.9584 
L 60.554369 127.144684 
L 60.661137 126.98412 
L 61.020558 126.448009 
L 62.148625 124.743513 
L 62.209137 124.652589 
L 62.222608 124.632 
L 63.380523 122.824792 
L 63.725342 122.27988 
L 63.924039 121.959947 
L 64.335475 121.3056 
L 64.547368 120.959527 
L 64.658638 120.773448 
L 64.929112 120.33132 
L 65.719826 119.011139 
L 66.328317 117.9792 
L 66.66135 117.40213 
L 66.989408 116.827259 
L 67.422824 116.076136 
L 67.678051 115.62708 
L 68.144057 114.788889 
L 68.191864 114.703586 
L 68.220703 114.6528 
L 68.236531 114.624105 
L 68.245143 114.608119 
L 68.758505 113.67852 
L 69.090446 113.063903 
L 69.709077 111.901872 
L 69.870509 111.601747 
L 70.017075 111.3264 
L 70.721913 109.972744 
L 71.234636 108.97428 
L 71.604396 108.237296 
L 71.724845 108 
L 71.846413 107.750527 
L 72.031166 107.376791 
L 72.206497 107.02572 
L 72.316302 106.800638 
L 72.556946 106.300814 
L 73.001026 105.386883 
L 73.344377 104.6736 
L 73.873971 103.548368 
L 74.444121 102.32148 
L 74.741535 101.665622 
L 74.796239 101.548405 
L 74.887985 101.3472 
L 75.026709 101.032014 
L 75.222489 100.593868 
L 75.322444 100.37292 
L 75.393294 100.212388 
L 75.577385 99.790238 
L 76.046418 98.723374 
L 76.352721 98.0208 
L 76.875157 96.794627 
L 77.34938 95.66868 
L 77.664689 94.900449 
L 77.750692 94.6944 
L 77.827625 94.501127 
L 77.929707 94.248704 
L 78.146643 93.72012 
L 78.317975 93.291628 
L 78.851488 91.942738 
L 78.99922 91.571876 
L 79.079834 91.368 
L 79.722304 89.704605 
L 79.985559 89.01588 
L 80.278857 88.22733 
L 80.318014 88.123813 
L 80.349615 88.0416 
L 80.370382 87.985286 
L 80.383053 87.950092 
L 80.712182 87.06732 
L 81.087582 86.032328 
L 81.560674 84.7152 
L 81.850931 83.887578 
L 82.382253 82.36308 
L 82.550568 81.874015 
L 82.720356 81.3888 
L 82.907393 80.824285 
L 83.046356 80.41452 
L 83.700052 78.429984 
L 83.820089 78.0624 
L 84.47963 75.992925 
L 84.57019 75.71028 
L 84.578728 75.682815 
L 84.880728 74.736 
L 85.10242 74.005696 
L 85.174702 73.76172 
L 85.375717 73.097889 
L 85.88445 71.4096 
L 86.155991 70.485921 
L 86.572912 69.05748 
L 86.793512 68.277087 
L 86.849949 68.0832 
L 86.89224 67.928332 
L 86.939922 67.756919 
L 87.124994 67.10892 
L 87.325083 66.385354 
L 87.772504 64.7568 
L 87.965866 64.035049 
L 88.400969 62.40468 
L 88.513211 61.980998 
L 88.661758 61.4304 
L 88.84082 60.719917 
L 88.909598 60.45612 
L 89.350227 58.707175 
L 89.503558 58.104 
L 89.546725 57.929796 
L 90.083692 55.75188 
L 90.193508 55.290306 
L 90.245251 55.083598 
L 90.320056 54.7776 
L 90.408756 54.390739 
L 90.503785 53.984321 
L 90.547554 53.80332 
L 90.600327 53.577104 
L 91.094121 51.4512 
L 91.124643 51.316327 
L 91.44538 49.895646 
L 91.615934 49.141466 
L 91.625483 49.09908 
L 91.632549 49.066499 
L 91.740618 48.586386 
L 91.846524 48.1248 
L 91.925806 47.7548 
L 91.979676 47.496996 
L 92.056327 47.15052 
L 92.455741 45.27476 
L 92.558373 44.7984 
L 92.594681 44.625358 
L 93.050633 42.44628 
L 93.158437 41.910109 
L 93.247918 41.472 
L 92.673946 41.472 
L 91.150234 41.472 
L 89.626522 41.472 
L 88.10281 41.472 
L 86.579098 41.472 
L 85.055386 41.472 
L 83.531674 41.472 
L 82.007962 41.472 
L 80.48425 41.472 
L 78.960538 41.472 
L 77.436826 41.472 
L 75.913114 41.472 
L 74.389402 41.472 
L 72.86569 41.472 
L 71.341978 41.472 
L 69.818266 41.472 
L 68.294554 41.472 
L 66.770842 41.472 
L 65.24713 41.472 
L 63.723418 41.472 
L 62.199706 41.472 
L 60.675994 41.472 
L 59.152282 41.472 
L 57.62857 41.472 
L 57.62857 44.7984 
L 57.62857 48.1248 
L 57.62857 51.4512 
L 57.62857 54.7776 
L 57.62857 58.104 
L 57.62857 61.4304 
L 57.62857 64.7568 
L 57.62857 68.0832 
L 57.62857 71.4096 
L 57.62857 74.736 
L 57.62857 78.0624 
L 57.62857 81.3888 
L 57.62857 84.7152 
L 57.62857 88.0416 
L 57.62857 91.368 
L 57.62857 94.6944 
L 57.62857 98.0208 
L 57.62857 101.3472 
L 57.62857 104.6736 
L 57.62857 108 
L 57.62857 111.3264 
L 57.62857 114.6528 
L 57.62857 117.9792 
L 57.62857 121.3056 
L 57.62857 124.632 
L 57.62857 127.9584 
L 57.62857 131.2848 
" clip-path="url(#p355f97bf4f)" style="fill: #a4ff53"/>
   </g>
   <g id="PathCollection_7">
    <path d="M 93.247918 41.472 
L 93.158437 41.910109 
L 93.050633 42.44628 
L 92.594681 44.625358 
L 92.558373 44.7984 
L 92.455741 45.27476 
L 92.056327 47.15052 
L 91.979676 47.496996 
L 91.925806 47.7548 
L 91.846524 48.1248 
L 91.740618 48.586386 
L 91.632549 49.066499 
L 91.625483 49.09908 
L 91.615934 49.141466 
L 91.44538 49.895646 
L 91.124643 51.316327 
L 91.094121 51.4512 
L 90.600327 53.577104 
L 90.547554 53.80332 
L 90.503785 53.984321 
L 90.408756 54.390739 
L 90.320056 54.7776 
L 90.245251 55.083598 
L 90.193508 55.290306 
L 90.083692 55.75188 
L 89.546725 57.929796 
L 89.503558 58.104 
L 89.350227 58.707175 
L 88.909598 60.45612 
L 88.84082 60.719917 
L 88.661758 61.4304 
L 88.513211 61.980998 
L 88.400969 62.40468 
L 87.965866 64.035049 
L 87.772504 64.7568 
L 87.325083 66.385354 
L 87.124994 67.10892 
L 86.939922 67.756919 
L 86.89224 67.928332 
L 86.849949 68.0832 
L 86.793512 68.277087 
L 86.572912 69.05748 
L 86.155991 70.485921 
L 85.88445 71.4096 
L 85.375717 73.097889 
L 85.174702 73.76172 
L 85.10242 74.005696 
L 84.880728 74.736 
L 84.578728 75.682815 
L 84.57019 75.71028 
L 84.47963 75.992925 
L 83.820089 78.0624 
L 83.700052 78.429984 
L 83.046356 80.41452 
L 82.907393 80.824285 
L 82.720356 81.3888 
L 82.550568 81.874015 
L 82.382253 82.36308 
L 81.850931 83.887578 
L 81.560674 84.7152 
L 81.087582 86.032328 
L 80.712182 87.06732 
L 80.383053 87.950092 
L 80.370382 87.985286 
L 80.349615 88.0416 
L 80.318014 88.123813 
L 80.278857 88.22733 
L 79.985559 89.01588 
L 79.722304 89.704605 
L 79.079834 91.368 
L 78.99922 91.571876 
L 78.851488 91.942738 
L 78.317975 93.291628 
L 78.146643 93.72012 
L 77.929707 94.248704 
L 77.827625 94.501127 
L 77.750692 94.6944 
L 77.664689 94.900449 
L 77.34938 95.66868 
L 76.875157 96.794627 
L 76.352721 98.0208 
L 76.046418 98.723374 
L 75.577385 99.790238 
L 75.393294 100.212388 
L 75.322444 100.37292 
L 75.222489 100.593868 
L 75.026709 101.032014 
L 74.887985 101.3472 
L 74.796239 101.548405 
L 74.741535 101.665622 
L 74.444121 102.32148 
L 73.873971 103.548368 
L 73.344377 104.6736 
L 73.001026 105.386883 
L 72.556946 106.300814 
L 72.316302 106.800638 
L 72.206497 107.02572 
L 72.031166 107.376791 
L 71.846413 107.750527 
L 71.724845 108 
L 71.604396 108.237296 
L 71.234636 108.97428 
L 70.721913 109.972744 
L 70.017075 111.3264 
L 69.870509 111.601747 
L 69.709077 111.901872 
L 69.090446 113.063903 
L 68.758505 113.67852 
L 68.245143 114.608119 
L 68.236531 114.624105 
L 68.220703 114.6528 
L 68.191864 114.703586 
L 68.144057 114.788889 
L 67.678051 115.62708 
L 67.422824 116.076136 
L 66.989408 116.827259 
L 66.66135 117.40213 
L 66.328317 117.9792 
L 65.719826 119.011139 
L 64.929112 120.33132 
L 64.658638 120.773448 
L 64.547368 120.959527 
L 64.335475 121.3056 
L 63.924039 121.959947 
L 63.725342 122.27988 
L 63.380523 122.824792 
L 62.222608 124.632 
L 62.209137 124.652589 
L 62.148625 124.743513 
L 61.020558 126.448009 
L 60.661137 126.98412 
L 60.554369 127.144684 
L 60.000301 127.9584 
L 59.672258 128.428596 
L 59.322276 128.93268 
L 58.564835 130.002352 
L 57.640344 131.2848 
L 57.630984 131.297522 
L 57.62857 131.30069 
L 57.62857 134.6112 
L 57.62857 137.9376 
L 57.62857 141.264 
L 57.62857 144.5904 
L 57.62857 147.9168 
L 57.62857 151.2432 
L 57.62857 154.5696 
L 57.62857 157.896 
L 57.62857 161.2224 
L 57.62857 164.5488 
L 57.62857 167.8752 
L 57.62857 171.2016 
L 57.62857 174.528 
L 57.62857 177.8544 
L 57.62857 181.1808 
L 57.62857 184.5072 
L 57.62857 187.8336 
L 57.62857 189.664707 
L 57.941749 189.509403 
L 58.312281 189.326204 
L 59.321553 188.80788 
L 59.898066 188.507987 
L 61.179963 187.8336 
L 61.67116 187.572203 
L 61.820334 187.490548 
L 62.985816 186.85932 
L 63.218608 186.731556 
L 63.311385 186.678796 
L 64.057426 186.267574 
L 64.575791 185.972791 
L 65.646648 185.379384 
L 66.722557 184.761682 
L 66.809903 184.713069 
L 67.168475 184.5072 
L 68.056899 183.988379 
L 68.714121 183.591247 
L 69.550854 183.097823 
L 70.155361 182.730559 
L 70.448867 182.557459 
L 71.108298 182.15508 
L 71.88663 181.67331 
L 72.088301 181.549901 
L 72.675232 181.1808 
L 73.680753 180.539993 
L 74.199533 180.20652 
L 75.175264 179.570009 
L 75.648011 179.25161 
L 76.119584 178.942592 
L 77.303714 178.144995 
L 77.508202 178.010221 
L 77.737217 177.8544 
L 78.818366 177.105095 
L 79.147093 176.87117 
L 79.820152 176.404614 
L 81.08247 175.50228 
L 81.348263 175.309298 
L 82.417105 174.528 
L 83.027304 174.071916 
L 83.716163 173.55372 
L 84.377526 173.048172 
L 84.762493 172.745273 
L 85.273777 172.352618 
L 86.49043 171.395169 
L 86.621405 171.293961 
L 86.737535 171.2016 
L 87.920721 170.241913 
L 88.353003 169.882971 
L 88.841106 169.486967 
L 89.605277 168.84948 
L 90.172106 168.368553 
L 90.340021 168.228068 
L 90.750932 167.8752 
L 91.449484 167.269631 
L 91.729088 167.020798 
L 91.865749 166.90092 
L 93.204174 165.706336 
L 94.140873 164.848078 
L 94.237927 164.761037 
L 94.469502 164.5488 
L 95.345812 163.728923 
L 96.68609 162.44273 
L 96.821222 162.31487 
L 96.94356 162.19668 
L 97.197439 161.952403 
L 97.936927 161.2224 
L 98.212526 160.947293 
L 98.330695 160.826242 
L 98.904113 160.24812 
L 99.544809 159.590111 
L 100.07736 159.029912 
L 100.437189 158.658544 
L 101.161867 157.896 
L 101.600298 157.424628 
L 102.470987 156.466579 
L 102.966456 155.927629 
L 103.33993 155.503006 
L 103.33993 154.5696 
L 103.33993 151.2432 
L 103.33993 147.9168 
L 103.33993 144.5904 
L 103.33993 141.264 
L 103.33993 137.9376 
L 103.33993 134.6112 
L 103.33993 131.2848 
L 103.33993 127.9584 
L 103.33993 124.632 
L 103.33993 121.3056 
L 103.33993 117.9792 
L 103.33993 114.6528 
L 103.33993 111.3264 
L 103.33993 108 
L 103.33993 104.6736 
L 103.33993 101.3472 
L 103.33993 98.0208 
L 103.33993 94.6944 
L 103.33993 91.368 
L 103.33993 88.0416 
L 103.33993 84.7152 
L 103.33993 81.3888 
L 103.33993 78.0624 
L 103.33993 74.736 
L 103.33993 71.4096 
L 103.33993 68.0832 
L 103.33993 64.7568 
L 103.33993 61.4304 
L 103.33993 58.104 
L 103.33993 54.7776 
L 103.33993 51.4512 
L 103.33993 48.1248 
L 103.33993 44.7984 
L 103.33993 41.472 
L 101.816218 41.472 
L 100.292506 41.472 
L 98.768794 41.472 
L 97.245082 41.472 
L 95.72137 41.472 
L 94.197658 41.472 
" clip-path="url(#p355f97bf4f)" style="fill: #f8f500"/>
   </g>
   <g id="PathCollection_8">
    <path d="M 103.33993 155.503006 
L 102.966456 155.927629 
L 102.470987 156.466579 
L 101.600298 157.424628 
L 101.161867 157.896 
L 100.437189 158.658544 
L 100.07736 159.029912 
L 99.544809 159.590111 
L 98.904113 160.24812 
L 98.330695 160.826242 
L 98.212526 160.947293 
L 97.936927 161.2224 
L 97.197439 161.952403 
L 96.94356 162.19668 
L 96.821222 162.31487 
L 96.68609 162.44273 
L 95.345812 163.728923 
L 94.469502 164.5488 
L 94.237927 164.761037 
L 94.140873 164.848078 
L 93.204174 165.706336 
L 91.865749 166.90092 
L 91.729088 167.020798 
L 91.449484 167.269631 
L 90.750932 167.8752 
L 90.340021 168.228068 
L 90.172106 168.368553 
L 89.605277 168.84948 
L 88.841106 169.486967 
L 88.353003 169.882971 
L 87.920721 170.241913 
L 86.737535 171.2016 
L 86.621405 171.293961 
L 86.49043 171.395169 
L 85.273777 172.352618 
L 84.762493 172.745273 
L 84.377526 173.048172 
L 83.716163 173.55372 
L 83.027304 174.071916 
L 82.417105 174.528 
L 81.348263 175.309298 
L 81.08247 175.50228 
L 79.820152 176.404614 
L 79.147093 176.87117 
L 78.818366 177.105095 
L 77.737217 177.8544 
L 77.508202 178.010221 
L 77.303714 178.144995 
L 76.119584 178.942592 
L 75.648011 179.25161 
L 75.175264 179.570009 
L 74.199533 180.20652 
L 73.680753 180.539993 
L 72.675232 181.1808 
L 72.088301 181.549901 
L 71.88663 181.67331 
L 71.108298 182.15508 
L 70.448867 182.557459 
L 70.155361 182.730559 
L 69.550854 183.097823 
L 68.714121 183.591247 
L 68.056899 183.988379 
L 67.168475 184.5072 
L 66.809903 184.713069 
L 66.722557 184.761682 
L 65.646648 185.379384 
L 64.575791 185.972791 
L 64.057426 186.267574 
L 63.311385 186.678796 
L 63.218608 186.731556 
L 62.985816 186.85932 
L 61.820334 187.490548 
L 61.67116 187.572203 
L 61.179963 187.8336 
L 59.898066 188.507987 
L 59.321553 188.80788 
L 58.312281 189.326204 
L 57.941749 189.509403 
L 57.62857 189.664707 
L 57.62857 191.16 
L 57.62857 194.4864 
L 57.62857 197.8128 
L 57.62857 201.1392 
L 57.62857 204.4656 
L 57.62857 207.792 
L 57.62857 211.1184 
L 57.62857 214.4448 
L 57.62857 217.7712 
L 57.62857 221.0976 
L 57.62857 224.424 
L 57.62857 227.7504 
L 57.62857 231.0768 
L 57.62857 231.875177 
L 57.776262 231.855204 
L 58.875314 231.681444 
L 59.394764 231.60616 
L 60.612339 231.412286 
L 60.736229 231.39427 
L 62.157956 231.167944 
L 62.236223 231.156521 
L 62.733425 231.0768 
L 63.693927 230.921371 
L 63.754945 230.910637 
L 65.073306 230.697328 
L 65.451538 230.630558 
L 66.649132 230.435335 
L 66.90102 230.390701 
L 67.905294 230.227011 
L 68.752853 230.076292 
L 69.601973 229.936843 
L 70.049723 229.856916 
L 70.731878 229.744899 
L 72.06116 229.506759 
L 72.552373 229.42548 
L 73.201145 229.308802 
L 73.552883 229.250606 
L 75.376714 228.921409 
L 75.500248 228.900812 
L 76.355381 228.745857 
L 76.368125 228.743732 
L 76.472878 228.72468 
L 78.170069 228.413447 
L 78.614003 228.332584 
L 80.167824 228.036533 
L 80.693271 227.93941 
L 80.819551 227.916226 
L 81.68301 227.7504 
L 83.01433 227.494543 
L 83.206125 227.456017 
L 84.041516 227.289367 
L 84.747328 227.149187 
L 85.707354 226.962113 
L 86.632131 226.77612 
L 87.56937 226.585853 
L 87.697972 226.557674 
L 88.477499 226.398779 
L 88.749216 226.339236 
L 90.353383 226.010804 
L 90.870853 225.896459 
L 91.408637 225.7859 
L 92.122354 225.628173 
L 93.130202 225.420049 
L 94.047456 225.215627 
L 94.336487 225.155692 
L 95.505569 224.895112 
L 95.899574 224.813037 
L 97.227925 224.514425 
L 97.260929 224.507521 
L 97.632403 224.424 
L 98.661343 224.189425 
L 98.90339 224.130165 
L 100.181001 223.836321 
L 100.414928 223.778779 
L 101.415248 223.548648 
L 102.319519 223.325247 
L 103.097205 223.144734 
L 103.33993 223.0804 
L 103.33993 221.0976 
L 103.33993 217.7712 
L 103.33993 214.4448 
L 103.33993 211.1184 
L 103.33993 207.792 
L 103.33993 204.4656 
L 103.33993 201.1392 
L 103.33993 197.8128 
L 103.33993 194.4864 
L 103.33993 191.16 
L 103.33993 187.8336 
L 103.33993 184.5072 
L 103.33993 181.1808 
L 103.33993 177.8544 
L 103.33993 174.528 
L 103.33993 171.2016 
L 103.33993 167.8752 
L 103.33993 164.5488 
L 103.33993 161.2224 
L 103.33993 157.896 
" clip-path="url(#p355f97bf4f)" style="fill: #ff9400"/>
   </g>
   <g id="PathCollection_9">
    <path d="M 103.33993 223.0804 
L 103.097205 223.144734 
L 102.319519 223.325247 
L 101.415248 223.548648 
L 100.414928 223.778779 
L 100.181001 223.836321 
L 98.90339 224.130165 
L 98.661343 224.189425 
L 97.632403 224.424 
L 97.260929 224.507521 
L 97.227925 224.514425 
L 95.899574 224.813037 
L 95.505569 224.895112 
L 94.336487 225.155692 
L 94.047456 225.215627 
L 93.130202 225.420049 
L 92.122354 225.628173 
L 91.408637 225.7859 
L 90.870853 225.896459 
L 90.353383 226.010804 
L 88.749216 226.339236 
L 88.477499 226.398779 
L 87.697972 226.557674 
L 87.56937 226.585853 
L 86.632131 226.77612 
L 85.707354 226.962113 
L 84.747328 227.149187 
L 84.041516 227.289367 
L 83.206125 227.456017 
L 83.01433 227.494543 
L 81.68301 227.7504 
L 80.819551 227.916226 
L 80.693271 227.93941 
L 80.167824 228.036533 
L 78.614003 228.332584 
L 78.170069 228.413447 
L 76.472878 228.72468 
L 76.368125 228.743732 
L 76.355381 228.745857 
L 75.500248 228.900812 
L 75.376714 228.921409 
L 73.552883 229.250606 
L 73.201145 229.308802 
L 72.552373 229.42548 
L 72.06116 229.506759 
L 70.731878 229.744899 
L 70.049723 229.856916 
L 69.601973 229.936843 
L 68.752853 230.076292 
L 67.905294 230.227011 
L 66.90102 230.390701 
L 66.649132 230.435335 
L 65.451538 230.630558 
L 65.073306 230.697328 
L 63.754945 230.910637 
L 63.693927 230.921371 
L 62.733425 231.0768 
L 62.236223 231.156521 
L 62.157956 231.167944 
L 60.736229 231.39427 
L 60.612339 231.412286 
L 59.394764 231.60616 
L 58.875314 231.681444 
L 57.776262 231.855204 
L 57.62857 231.875177 
L 57.62857 234.4032 
L 57.62857 237.7296 
L 57.62857 241.056 
L 57.62857 244.3824 
L 57.62857 247.7088 
L 57.62857 251.0352 
L 57.62857 254.3616 
L 57.62857 257.688 
L 57.62857 261.0144 
L 57.62857 264.3408 
L 57.62857 267.6672 
L 57.62857 268.729828 
L 58.055729 268.74228 
L 58.122345 268.745156 
L 60.150365 268.814693 
L 60.263509 268.819625 
L 61.083103 268.847954 
L 61.219596 268.853933 
L 63.14902 268.921161 
L 63.331732 268.929243 
L 64.109917 268.956578 
L 64.318281 268.965839 
L 66.146328 269.03057 
L 66.400547 269.041983 
L 67.136154 269.068242 
L 67.418445 269.080977 
L 69.142246 269.143011 
L 69.469973 269.157943 
L 70.161796 269.183042 
L 70.520138 269.199451 
L 72.136733 269.258578 
L 72.54003 269.27723 
L 73.186824 269.30108 
L 73.623411 269.321373 
L 75.129742 269.37737 
L 75.610739 269.399954 
L 76.211218 269.422459 
L 76.728315 269.446858 
L 78.121226 269.499492 
L 78.682122 269.526228 
L 79.234957 269.547289 
L 79.834908 269.57603 
L 81.111136 269.625051 
L 81.754202 269.656173 
L 82.258019 269.675685 
L 82.943248 269.709014 
L 84.099419 269.754161 
L 84.827002 269.789916 
L 85.280382 269.807767 
L 86.053395 269.845945 
L 87.086021 269.88694 
L 87.900547 269.927588 
L 88.302023 269.943659 
L 89.165415 269.986963 
L 90.070886 270.023513 
L 90.974865 270.069328 
L 91.322914 270.083495 
L 92.279375 270.132216 
L 93.053953 270.164009 
L 94.049982 270.215282 
L 94.343032 270.227412 
L 95.395345 270.281859 
L 96.035161 270.308565 
L 97.125927 270.365603 
L 97.362348 270.375555 
L 98.513401 270.436054 
L 99.014443 270.457324 
L 100.202732 270.520452 
L 100.380833 270.528077 
L 101.63362 270.594974 
L 101.991732 270.610437 
L 103.280427 270.679997 
L 103.33993 270.682418 
L 103.33993 267.6672 
L 103.33993 264.3408 
L 103.33993 261.0144 
L 103.33993 257.688 
L 103.33993 254.3616 
L 103.33993 251.0352 
L 103.33993 247.7088 
L 103.33993 244.3824 
L 103.33993 241.056 
L 103.33993 237.7296 
L 103.33993 234.4032 
L 103.33993 231.0768 
L 103.33993 227.7504 
L 103.33993 224.424 
" clip-path="url(#p355f97bf4f)" style="fill: #ff3800"/>
   </g>
   <g id="PathCollection_10">
    <path d="M 103.33993 270.682418 
L 103.280427 270.679997 
L 101.991732 270.610437 
L 101.63362 270.594974 
L 100.380833 270.528077 
L 100.202732 270.520452 
L 99.014443 270.457324 
L 98.513401 270.436054 
L 97.362348 270.375555 
L 97.125927 270.365603 
L 96.035161 270.308565 
L 95.395345 270.281859 
L 94.343032 270.227412 
L 94.049982 270.215282 
L 93.053953 270.164009 
L 92.279375 270.132216 
L 91.322914 270.083495 
L 90.974865 270.069328 
L 90.070886 270.023513 
L 89.165415 269.986963 
L 88.302023 269.943659 
L 87.900547 269.927588 
L 87.086021 269.88694 
L 86.053395 269.845945 
L 85.280382 269.807767 
L 84.827002 269.789916 
L 84.099419 269.754161 
L 82.943248 269.709014 
L 82.258019 269.675685 
L 81.754202 269.656173 
L 81.111136 269.625051 
L 79.834908 269.57603 
L 79.234957 269.547289 
L 78.682122 269.526228 
L 78.121226 269.499492 
L 76.728315 269.446858 
L 76.211218 269.422459 
L 75.610739 269.399954 
L 75.129742 269.37737 
L 73.623411 269.321373 
L 73.186824 269.30108 
L 72.54003 269.27723 
L 72.136733 269.258578 
L 70.520138 269.199451 
L 70.161796 269.183042 
L 69.469973 269.157943 
L 69.142246 269.143011 
L 67.418445 269.080977 
L 67.136154 269.068242 
L 66.400547 269.041983 
L 66.146328 269.03057 
L 64.318281 268.965839 
L 64.109917 268.956578 
L 63.331732 268.929243 
L 63.14902 268.921161 
L 61.219596 268.853933 
L 61.083103 268.847954 
L 60.263509 268.819625 
L 60.150365 268.814693 
L 58.122345 268.745156 
L 58.055729 268.74228 
L 57.62857 268.729828 
L 57.62857 270.9936 
L 57.62857 274.32 
L 57.62857 277.6464 
L 57.62857 280.9728 
L 57.62857 284.2992 
L 57.62857 287.6256 
L 57.62857 290.952 
L 57.62857 294.2784 
L 57.62857 297.6048 
L 57.62857 300.9312 
L 57.62857 304.2576 
L 57.62857 307.584 
L 59.152282 307.584 
L 60.675994 307.584 
L 62.199706 307.584 
L 63.723418 307.584 
L 65.24713 307.584 
L 66.770842 307.584 
L 68.294554 307.584 
L 69.818266 307.584 
L 71.341978 307.584 
L 72.86569 307.584 
L 74.389402 307.584 
L 75.913114 307.584 
L 77.436826 307.584 
L 78.960538 307.584 
L 80.48425 307.584 
L 82.007962 307.584 
L 83.531674 307.584 
L 85.055386 307.584 
L 86.579098 307.584 
L 88.10281 307.584 
L 89.626522 307.584 
L 91.150234 307.584 
L 92.673946 307.584 
L 94.197658 307.584 
L 95.72137 307.584 
L 97.245082 307.584 
L 98.768794 307.584 
L 100.292506 307.584 
L 101.816218 307.584 
L 103.33993 307.584 
L 103.33993 304.2576 
L 103.33993 300.9312 
L 103.33993 297.6048 
L 103.33993 294.2784 
L 103.33993 290.952 
L 103.33993 287.6256 
L 103.33993 284.2992 
L 103.33993 280.9728 
L 103.33993 277.6464 
L 103.33993 274.32 
L 103.33993 270.9936 
" clip-path="url(#p355f97bf4f)" style="fill: #b60000"/>
   </g>
   <g id="PathCollection_11">
    <path clip-path="url(#p355f97bf4f)" style="fill: #0000b6"/>
   </g>
   <g id="PathCollection_12">
    <path clip-path="url(#p355f97bf4f)" style="fill: #0018ff"/>
   </g>
   <g id="PathCollection_13">
    <path clip-path="url(#p355f97bf4f)" style="fill: #0080ff"/>
   </g>
   <g id="PathCollection_14">
    <path clip-path="url(#p355f97bf4f)" style="fill: #00e4f8"/>
   </g>
   <g id="PathCollection_15">
    <path clip-path="url(#p355f97bf4f)" style="fill: #53ffa4"/>
   </g>
   <g id="PathCollection_16">
    <path clip-path="url(#p355f97bf4f)" style="fill: #a4ff53"/>
   </g>
   <g id="PathCollection_17">
    <path d="M 100.4544 158.587815 
L 100.954748 158.110898 
L 102.215439 156.7872 
L 105.344302 153.275279 
L 107.664297 150.51488 
L 109.363384 148.286399 
L 109.485278 148.149201 
L 109.670402 147.9168 
L 110.184505 147.17449 
L 111.632961 145.31872 
L 112.783374 143.686404 
L 115.903234 139.0464 
L 116.364222 138.306656 
L 117.846452 135.864821 
L 119.461644 133.263821 
L 119.75417 132.77408 
L 119.985221 132.333568 
L 120.669316 131.186187 
L 121.323317 130.176 
L 121.70568 129.42309 
L 121.936397 128.904082 
L 122.684594 127.57792 
L 125.412826 122.044478 
L 125.767384 121.3056 
L 126.723037 119.13096 
L 128.622687 115.03328 
L 128.901955 114.324989 
L 129.818186 112.4352 
L 130.687702 109.893053 
L 130.704209 109.83712 
L 132.942662 103.854177 
L 133.050523 103.5648 
L 134.87884 98.153156 
L 135.171208 97.29248 
L 135.174329 97.285072 
L 136.155894 94.6944 
L 136.616447 92.737361 
L 136.829988 92.09632 
L 137.502339 89.577926 
L 138.610082 85.824 
L 139.13109 83.8549 
L 140.297251 79.55168 
L 140.821202 77.002076 
L 140.828349 76.978338 
L 140.836528 76.9536 
L 140.843093 76.91506 
L 141.541583 74.35552 
L 142.490124 69.795015 
L 142.862642 68.0832 
L 143.375529 65.401136 
L 144.165638 61.81088 
L 144.329559 60.756787 
L 144.511917 60.102505 
L 144.735679 59.2128 
L 144.834563 58.242998 
L 144.939593 57.391915 
L 145.116283 56.61472 
L 145.349226 55.187292 
L 146.202614 50.3424 
L 147.011928 45.022736 
L 147.163603 44.07008 
L 147.258364 43.405427 
L 147.579643 41.472 
L 140.928 41.472 
L 132.83328 41.472 
L 124.73856 41.472 
L 116.64384 41.472 
L 108.54912 41.472 
L 100.4544 41.472 
L 100.4544 50.3424 
L 100.4544 59.2128 
L 100.4544 68.0832 
L 100.4544 76.9536 
L 100.4544 85.824 
L 100.4544 94.6944 
L 100.4544 103.5648 
L 100.4544 112.4352 
L 100.4544 121.3056 
L 100.4544 130.176 
L 100.4544 139.0464 
L 100.4544 147.9168 
L 100.4544 156.7872 
" clip-path="url(#p355f97bf4f)" style="fill: #f8f500"/>
   </g>
   <g id="PathCollection_18">
    <path d="M 147.579643 41.472 
L 147.258364 43.405427 
L 147.163603 44.07008 
L 147.011928 45.022736 
L 146.202614 50.3424 
L 145.349226 55.187292 
L 145.116283 56.61472 
L 144.939593 57.391915 
L 144.834563 58.242998 
L 144.735679 59.2128 
L 144.511917 60.102505 
L 144.329559 60.756787 
L 144.165638 61.81088 
L 143.375529 65.401136 
L 142.862642 68.0832 
L 142.490124 69.795015 
L 141.541583 74.35552 
L 140.843093 76.91506 
L 140.836528 76.9536 
L 140.828349 76.978338 
L 140.821202 77.002076 
L 140.297251 79.55168 
L 139.13109 83.8549 
L 138.610082 85.824 
L 137.502339 89.577926 
L 136.829988 92.09632 
L 136.616447 92.737361 
L 136.155894 94.6944 
L 135.174329 97.285072 
L 135.171208 97.29248 
L 134.87884 98.153156 
L 133.050523 103.5648 
L 132.942662 103.854177 
L 130.704209 109.83712 
L 130.687702 109.893053 
L 129.818186 112.4352 
L 128.901955 114.324989 
L 128.622687 115.03328 
L 126.723037 119.13096 
L 125.767384 121.3056 
L 125.412826 122.044478 
L 122.684594 127.57792 
L 121.936397 128.904082 
L 121.70568 129.42309 
L 121.323317 130.176 
L 120.669316 131.186187 
L 119.985221 132.333568 
L 119.75417 132.77408 
L 119.461644 133.263821 
L 117.846452 135.864821 
L 116.364222 138.306656 
L 115.903234 139.0464 
L 112.783374 143.686404 
L 111.632961 145.31872 
L 110.184505 147.17449 
L 109.670402 147.9168 
L 109.485278 148.149201 
L 109.363384 148.286399 
L 107.664297 150.51488 
L 105.344302 153.275279 
L 102.215439 156.7872 
L 100.954748 158.110898 
L 100.4544 158.587815 
L 100.4544 165.6576 
L 100.4544 174.528 
L 100.4544 183.3984 
L 100.4544 192.2688 
L 100.4544 201.1392 
L 100.4544 210.0096 
L 100.4544 218.88 
L 100.4544 223.715805 
L 102.123411 223.334937 
L 104.140303 222.919106 
L 109.824939 221.47808 
L 112.640678 220.737182 
L 119.303819 218.88 
L 121.804913 218.151724 
L 122.569139 217.895287 
L 127.651827 216.28192 
L 129.809049 215.565971 
L 130.891995 215.14538 
L 134.331307 213.972715 
L 138.956002 212.170565 
L 141.939346 211.117859 
L 144.624419 210.0096 
L 148.399099 208.359774 
L 149.929714 207.610095 
L 153.496628 206.041822 
L 158.066635 203.73728 
L 160.256197 202.5639 
L 162.876 201.1392 
L 165.962906 199.316064 
L 167.103354 198.54112 
L 167.489995 198.29494 
L 168.356445 197.693613 
L 174.511458 193.588807 
L 176.282401 192.2688 
L 180.211815 189.121155 
L 183.743371 186.073512 
L 183.800561 186.027242 
L 183.835004 185.99648 
L 183.88943 185.9434 
L 185.569491 184.373233 
L 186.694836 183.3984 
L 187.54697 182.513579 
L 189.2636 180.80032 
L 192.242244 177.537053 
L 194.773849 174.528 
L 196.666761 172.082769 
L 199.487034 168.25568 
L 200.376353 166.975657 
L 201.382065 165.6576 
L 201.958254 164.732249 
L 202.287511 164.115115 
L 202.975668 163.05952 
L 206.232575 157.386414 
L 206.557687 156.7872 
L 207.580449 154.710952 
L 209.751616 150.51488 
L 210.029291 149.888354 
L 210.470799 149.104683 
L 211.058334 147.9168 
L 211.57686 146.454339 
L 212.037307 145.31872 
L 214.15387 140.034225 
L 214.542397 139.0464 
L 216.586869 133.251312 
L 216.751777 132.77408 
L 216.837998 132.462415 
L 217.252581 131.323562 
L 217.719222 130.176 
L 217.973436 129.20739 
L 218.131918 128.476903 
L 218.431629 127.57792 
L 219.368511 124.052494 
L 220.181867 121.3056 
L 220.559693 119.864034 
L 221.835067 115.03328 
L 222.309033 112.632119 
L 222.367181 112.4352 
L 222.402698 112.195766 
L 223.020937 109.83712 
L 223.831501 105.708564 
L 224.266504 103.5648 
L 224.833866 100.322618 
L 225.456847 97.29248 
L 225.585115 96.378352 
L 225.99641 94.6944 
L 226.180856 92.740038 
L 226.316585 92.09632 
L 226.493594 90.884953 
L 227.290296 85.824 
L 227.986085 80.575653 
L 228.128281 79.55168 
L 228.347113 78.560248 
L 228.663294 76.9536 
L 228.788553 74.650818 
L 228.798986 74.35552 
L 229.316714 69.811294 
L 229.530584 68.0832 
L 229.623329 67.166274 
L 230.205343 61.81088 
L 230.314359 61.136802 
L 230.659909 59.2128 
L 230.704254 57.385589 
L 230.711548 56.61472 
L 231.019737 53.119749 
L 231.287426 50.3424 
L 231.615598 45.988666 
L 231.780441 44.07008 
L 231.821069 43.500536 
L 232.013526 41.472 
L 229.96992 41.472 
L 221.8752 41.472 
L 213.78048 41.472 
L 205.68576 41.472 
L 197.59104 41.472 
L 189.49632 41.472 
L 181.4016 41.472 
L 173.30688 41.472 
L 165.21216 41.472 
L 157.11744 41.472 
L 149.02272 41.472 
" clip-path="url(#p355f97bf4f)" style="fill: #ff9400"/>
   </g>
   <g id="PathCollection_19">
    <path d="M 232.013526 41.472 
L 231.821069 43.500536 
L 231.780441 44.07008 
L 231.615598 45.988666 
L 231.287426 50.3424 
L 231.019737 53.119749 
L 230.711548 56.61472 
L 230.704254 57.385589 
L 230.659909 59.2128 
L 230.314359 61.136802 
L 230.205343 61.81088 
L 229.623329 67.166274 
L 229.530584 68.0832 
L 229.316714 69.811294 
L 228.798986 74.35552 
L 228.788553 74.650818 
L 228.663294 76.9536 
L 228.347113 78.560248 
L 228.128281 79.55168 
L 227.986085 80.575653 
L 227.290296 85.824 
L 226.493594 90.884953 
L 226.316585 92.09632 
L 226.180856 92.740038 
L 225.99641 94.6944 
L 225.585115 96.378352 
L 225.456847 97.29248 
L 224.833866 100.322618 
L 224.266504 103.5648 
L 223.831501 105.708564 
L 223.020937 109.83712 
L 222.402698 112.195766 
L 222.367181 112.4352 
L 222.309033 112.632119 
L 221.835067 115.03328 
L 220.559693 119.864034 
L 220.181867 121.3056 
L 219.368511 124.052494 
L 218.431629 127.57792 
L 218.131918 128.476903 
L 217.973436 129.20739 
L 217.719222 130.176 
L 217.252581 131.323562 
L 216.837998 132.462415 
L 216.751777 132.77408 
L 216.586869 133.251312 
L 214.542397 139.0464 
L 214.15387 140.034225 
L 212.037307 145.31872 
L 211.57686 146.454339 
L 211.058334 147.9168 
L 210.470799 149.104683 
L 210.029291 149.888354 
L 209.751616 150.51488 
L 207.580449 154.710952 
L 206.557687 156.7872 
L 206.232575 157.386414 
L 202.975668 163.05952 
L 202.287511 164.115115 
L 201.958254 164.732249 
L 201.382065 165.6576 
L 200.376353 166.975657 
L 199.487034 168.25568 
L 196.666761 172.082769 
L 194.773849 174.528 
L 192.242244 177.537053 
L 189.2636 180.80032 
L 187.54697 182.513579 
L 186.694836 183.3984 
L 185.569491 184.373233 
L 183.88943 185.9434 
L 183.835004 185.99648 
L 183.800561 186.027242 
L 183.743371 186.073512 
L 180.211815 189.121155 
L 176.282401 192.2688 
L 174.511458 193.588807 
L 168.356445 197.693613 
L 167.489995 198.29494 
L 167.103354 198.54112 
L 165.962906 199.316064 
L 162.876 201.1392 
L 160.256197 202.5639 
L 158.066635 203.73728 
L 153.496628 206.041822 
L 149.929714 207.610095 
L 148.399099 208.359774 
L 144.624419 210.0096 
L 141.939346 211.117859 
L 138.956002 212.170565 
L 134.331307 213.972715 
L 130.891995 215.14538 
L 129.809049 215.565971 
L 127.651827 216.28192 
L 122.569139 217.895287 
L 121.804913 218.151724 
L 119.303819 218.88 
L 112.640678 220.737182 
L 109.824939 221.47808 
L 104.140303 222.919106 
L 102.123411 223.334937 
L 100.4544 223.715805 
L 100.4544 227.7504 
L 100.4544 236.6208 
L 100.4544 245.4912 
L 100.4544 254.3616 
L 100.4544 263.232 
L 100.4544 270.527164 
L 101.828504 270.596622 
L 105.738626 270.826701 
L 110.814328 271.074209 
L 123.885679 271.890673 
L 124.323219 271.913874 
L 125.066523 271.953536 
L 125.289847 271.965543 
L 127.25137 272.1024 
L 139.118517 272.923735 
L 143.566592 273.300072 
L 146.887386 273.581813 
L 152.860602 274.034603 
L 160.044479 274.70048 
L 162.626498 274.935834 
L 162.945596 274.976476 
L 167.320908 275.393987 
L 168.337521 275.52725 
L 177.444545 276.438641 
L 179.813343 276.770976 
L 182.868376 277.092362 
L 186.425049 277.607223 
L 192.003402 278.225476 
L 196.837654 278.979674 
L 198.28056 279.148635 
L 205.013197 280.235788 
L 206.221518 280.385702 
L 209.566125 280.9728 
L 213.52865 281.63903 
L 214.076964 281.757165 
L 220.187262 282.822485 
L 224.458471 283.803615 
L 228.6013 284.593562 
L 231.618976 285.335472 
L 233.705108 285.750086 
L 239.354484 287.24512 
L 242.194339 287.968706 
L 248.575146 289.8432 
L 251.21325 290.598084 
L 251.999828 290.866418 
L 256.563042 292.44128 
L 259.185779 293.309319 
L 260.516115 293.865129 
L 263.740058 295.032948 
L 269.364583 297.531274 
L 270.945466 298.163555 
L 272.011138 298.7136 
L 277.529813 301.38145 
L 280.120636 302.899918 
L 281.946097 303.849583 
L 283.64311 304.98592 
L 287.284124 307.288433 
L 287.677965 307.584 
L 294.72768 307.584 
L 302.8224 307.584 
L 310.91712 307.584 
L 319.01184 307.584 
L 327.10656 307.584 
L 335.20128 307.584 
L 343.296 307.584 
L 343.296 298.7136 
L 343.296 289.8432 
L 343.296 280.9728 
L 343.296 272.1024 
L 343.296 263.232 
L 343.296 254.3616 
L 343.296 245.4912 
L 343.296 236.6208 
L 343.296 227.7504 
L 343.296 218.88 
L 343.296 210.0096 
L 343.296 201.1392 
L 343.296 192.2688 
L 343.296 183.3984 
L 343.296 174.528 
L 343.296 165.6576 
L 343.296 156.7872 
L 343.296 147.9168 
L 343.296 139.0464 
L 343.296 130.176 
L 343.296 121.3056 
L 343.296 112.4352 
L 343.296 103.5648 
L 343.296 94.6944 
L 343.296 85.824 
L 343.296 76.9536 
L 343.296 68.0832 
L 343.296 59.2128 
L 343.296 50.3424 
L 343.296 41.472 
L 335.20128 41.472 
L 327.10656 41.472 
L 319.01184 41.472 
L 310.91712 41.472 
L 302.8224 41.472 
L 294.72768 41.472 
L 286.63296 41.472 
L 278.53824 41.472 
L 270.44352 41.472 
L 262.3488 41.472 
L 254.25408 41.472 
L 246.15936 41.472 
L 238.06464 41.472 
" clip-path="url(#p355f97bf4f)" style="fill: #ff3800"/>
   </g>
   <g id="PathCollection_20">
    <path d="M 287.677965 307.584 
L 287.284124 307.288433 
L 283.64311 304.98592 
L 281.946097 303.849583 
L 280.120636 302.899918 
L 277.529813 301.38145 
L 272.011138 298.7136 
L 270.945466 298.163555 
L 269.364583 297.531274 
L 263.740058 295.032948 
L 260.516115 293.865129 
L 259.185779 293.309319 
L 256.563042 292.44128 
L 251.999828 290.866418 
L 251.21325 290.598084 
L 248.575146 289.8432 
L 242.194339 287.968706 
L 239.354484 287.24512 
L 233.705108 285.750086 
L 231.618976 285.335472 
L 228.6013 284.593562 
L 224.458471 283.803615 
L 220.187262 282.822485 
L 214.076964 281.757165 
L 213.52865 281.63903 
L 209.566125 280.9728 
L 206.221518 280.385702 
L 205.013197 280.235788 
L 198.28056 279.148635 
L 196.837654 278.979674 
L 192.003402 278.225476 
L 186.425049 277.607223 
L 182.868376 277.092362 
L 179.813343 276.770976 
L 177.444545 276.438641 
L 168.337521 275.52725 
L 167.320908 275.393987 
L 162.945596 274.976476 
L 162.626498 274.935834 
L 160.044479 274.70048 
L 152.860602 274.034603 
L 146.887386 273.581813 
L 143.566592 273.300072 
L 139.118517 272.923735 
L 127.25137 272.1024 
L 125.289847 271.965543 
L 125.066523 271.953536 
L 124.323219 271.913874 
L 123.885679 271.890673 
L 110.814328 271.074209 
L 105.738626 270.826701 
L 101.828504 270.596622 
L 100.4544 270.527164 
L 100.4544 272.1024 
L 100.4544 280.9728 
L 100.4544 289.8432 
L 100.4544 298.7136 
L 100.4544 307.584 
L 108.54912 307.584 
L 116.64384 307.584 
L 124.73856 307.584 
L 132.83328 307.584 
L 140.928 307.584 
L 149.02272 307.584 
L 157.11744 307.584 
L 165.21216 307.584 
L 173.30688 307.584 
L 181.4016 307.584 
L 189.49632 307.584 
L 197.59104 307.584 
L 205.68576 307.584 
L 213.78048 307.584 
L 221.8752 307.584 
L 229.96992 307.584 
L 238.06464 307.584 
L 246.15936 307.584 
L 254.25408 307.584 
L 262.3488 307.584 
L 270.44352 307.584 
L 278.53824 307.584 
L 286.63296 307.584 
" clip-path="url(#p355f97bf4f)" style="fill: #b60000"/>
   </g>
   <g id="matplotlib.axis_1">
    <g id="xtick_1">
     <g id="line2d_1">
      <defs>
       <path id="m11321f875e" d="M 0 0 
L 0 3.5 
" style="stroke: #000000; stroke-width: 0.8"/>
      </defs>
      <g>
       <use xlink:href="#m11321f875e" x="57.6" y="307.584" style="stroke: #000000; stroke-width: 0.8"/>
      </g>
     </g>
     <g id="text_1">
      <!-- 0.0 -->
      <g transform="translate(51.26875 321.385562) scale(0.1 -0.1)">
       <defs>
        <path id="Calibri-30" d="M 3022 2031 
Q 3022 1566 2948 1181 
Q 2875 797 2704 520 
Q 2534 244 2259 92 
Q 1984 -59 1581 -59 
Q 1200 -59 939 77 
Q 678 213 518 477 
Q 359 741 292 1127 
Q 225 1513 225 2013 
Q 225 2475 300 2861 
Q 375 3247 544 3523 
Q 713 3800 988 3951 
Q 1263 4103 1663 4103 
Q 2047 4103 2308 3967 
Q 2569 3831 2728 3567 
Q 2888 3303 2955 2917 
Q 3022 2531 3022 2031 
z
M 2472 1994 
Q 2472 2297 2450 2537 
Q 2428 2778 2386 2962 
Q 2344 3147 2276 3280 
Q 2209 3413 2115 3498 
Q 2022 3584 1901 3623 
Q 1781 3663 1631 3663 
Q 1366 3663 1200 3538 
Q 1034 3413 939 3194 
Q 844 2975 809 2681 
Q 775 2388 775 2050 
Q 775 1597 822 1280 
Q 869 963 970 763 
Q 1072 563 1230 472 
Q 1388 381 1613 381 
Q 1788 381 1920 437 
Q 2053 494 2148 598 
Q 2244 703 2306 850 
Q 2369 997 2406 1175 
Q 2444 1353 2458 1561 
Q 2472 1769 2472 1994 
z
" transform="scale(0.015625)"/>
        <path id="Calibri-2e" d="M 1144 341 
Q 1144 119 1070 45 
Q 997 -28 803 -28 
Q 616 -28 544 44 
Q 472 116 472 331 
Q 472 553 545 626 
Q 619 700 813 700 
Q 1000 700 1072 628 
Q 1144 556 1144 341 
z
" transform="scale(0.015625)"/>
       </defs>
       <use xlink:href="#Calibri-30"/>
       <use xlink:href="#Calibri-2e" x="50.683594"/>
       <use xlink:href="#Calibri-30" x="75.927734"/>
      </g>
     </g>
    </g>
    <g id="xtick_2">
     <g id="line2d_2">
      <g>
       <use xlink:href="#m11321f875e" x="86.1696" y="307.584" style="stroke: #000000; stroke-width: 0.8"/>
      </g>
     </g>
     <g id="text_2">
      <!-- 0.1 -->
      <g transform="translate(79.83835 321.385562) scale(0.1 -0.1)">
       <defs>
        <path id="Calibri-31" d="M 2897 213 
Q 2897 153 2887 112 
Q 2878 72 2862 47 
Q 2847 22 2826 11 
Q 2806 0 2784 0 
L 672 0 
Q 650 0 631 11 
Q 613 22 595 47 
Q 578 72 568 112 
Q 559 153 559 213 
Q 559 269 568 309 
Q 578 350 592 376 
Q 606 403 626 417 
Q 647 431 672 431 
L 1516 431 
L 1516 3506 
L 734 3041 
Q 675 3009 639 3003 
Q 603 2997 581 3017 
Q 559 3038 551 3084 
Q 544 3131 544 3203 
Q 544 3256 548 3293 
Q 553 3331 562 3356 
Q 572 3381 589 3400 
Q 606 3419 634 3438 
L 1566 4034 
Q 1578 4044 1597 4050 
Q 1616 4056 1644 4062 
Q 1672 4069 1709 4070 
Q 1747 4072 1803 4072 
Q 1878 4072 1928 4065 
Q 1978 4059 2006 4048 
Q 2034 4038 2043 4020 
Q 2053 4003 2053 3984 
L 2053 431 
L 2784 431 
Q 2809 431 2831 417 
Q 2853 403 2867 376 
Q 2881 350 2889 309 
Q 2897 269 2897 213 
z
" transform="scale(0.015625)"/>
       </defs>
       <use xlink:href="#Calibri-30"/>
       <use xlink:href="#Calibri-2e" x="50.683594"/>
       <use xlink:href="#Calibri-31" x="75.927734"/>
      </g>
     </g>
    </g>
    <g id="xtick_3">
     <g id="line2d_3">
      <g>
       <use xlink:href="#m11321f875e" x="114.7392" y="307.584" style="stroke: #000000; stroke-width: 0.8"/>
      </g>
     </g>
     <g id="text_3">
      <!-- 0.2 -->
      <g transform="translate(108.40795 321.385562) scale(0.1 -0.1)">
       <defs>
        <path id="Calibri-32" d="M 2888 231 
Q 2888 175 2880 131 
Q 2872 88 2858 58 
Q 2844 28 2820 14 
Q 2797 0 2769 0 
L 534 0 
Q 491 0 458 11 
Q 425 22 401 47 
Q 378 72 367 119 
Q 356 166 356 234 
Q 356 297 361 344 
Q 366 391 381 427 
Q 397 463 420 498 
Q 444 534 481 575 
L 1266 1406 
Q 1538 1694 1702 1922 
Q 1866 2150 1955 2337 
Q 2044 2525 2072 2678 
Q 2100 2831 2100 2966 
Q 2100 3100 2056 3220 
Q 2013 3341 1930 3431 
Q 1847 3522 1722 3575 
Q 1597 3628 1434 3628 
Q 1244 3628 1092 3575 
Q 941 3522 827 3459 
Q 713 3397 636 3344 
Q 559 3291 522 3291 
Q 500 3291 483 3303 
Q 466 3316 455 3344 
Q 444 3372 437 3419 
Q 431 3466 431 3531 
Q 431 3578 434 3612 
Q 438 3647 445 3672 
Q 453 3697 465 3719 
Q 478 3741 515 3773 
Q 553 3806 645 3862 
Q 738 3919 877 3973 
Q 1016 4028 1183 4065 
Q 1350 4103 1534 4103 
Q 1828 4103 2048 4020 
Q 2269 3938 2414 3794 
Q 2559 3650 2631 3459 
Q 2703 3269 2703 3053 
Q 2703 2859 2668 2667 
Q 2634 2475 2523 2251 
Q 2413 2028 2203 1754 
Q 1994 1481 1647 1125 
L 1006 456 
L 2766 456 
Q 2791 456 2814 442 
Q 2838 428 2855 400 
Q 2872 372 2880 330 
Q 2888 288 2888 231 
z
" transform="scale(0.015625)"/>
       </defs>
       <use xlink:href="#Calibri-30"/>
       <use xlink:href="#Calibri-2e" x="50.683594"/>
       <use xlink:href="#Calibri-32" x="75.927734"/>
      </g>
     </g>
    </g>
    <g id="xtick_4">
     <g id="line2d_4">
      <g>
       <use xlink:href="#m11321f875e" x="143.3088" y="307.584" style="stroke: #000000; stroke-width: 0.8"/>
      </g>
     </g>
     <g id="text_4">
      <!-- 0.3 -->
      <g transform="translate(136.97755 321.385562) scale(0.1 -0.1)">
       <defs>
        <path id="Calibri-33" d="M 2856 1156 
Q 2856 878 2759 654 
Q 2663 431 2481 272 
Q 2300 113 2034 27 
Q 1769 -59 1434 -59 
Q 1231 -59 1054 -26 
Q 878 6 740 51 
Q 603 97 512 145 
Q 422 194 398 216 
Q 375 238 362 259 
Q 350 281 340 312 
Q 331 344 326 389 
Q 322 434 322 500 
Q 322 613 344 656 
Q 366 700 406 700 
Q 434 700 517 650 
Q 600 600 729 542 
Q 859 484 1032 434 
Q 1206 384 1419 384 
Q 1625 384 1781 437 
Q 1938 491 2044 587 
Q 2150 684 2203 817 
Q 2256 950 2256 1106 
Q 2256 1278 2189 1415 
Q 2122 1553 1992 1653 
Q 1863 1753 1673 1806 
Q 1484 1859 1244 1859 
L 859 1859 
Q 834 1859 811 1870 
Q 788 1881 770 1906 
Q 753 1931 742 1972 
Q 731 2013 731 2078 
Q 731 2138 740 2177 
Q 750 2216 767 2239 
Q 784 2263 806 2273 
Q 828 2284 856 2284 
L 1209 2284 
Q 1416 2284 1580 2337 
Q 1744 2391 1858 2491 
Q 1972 2591 2033 2730 
Q 2094 2869 2094 3041 
Q 2094 3166 2053 3280 
Q 2013 3394 1931 3478 
Q 1850 3563 1723 3611 
Q 1597 3659 1431 3659 
Q 1250 3659 1098 3604 
Q 947 3550 828 3487 
Q 709 3425 631 3370 
Q 553 3316 522 3316 
Q 500 3316 483 3323 
Q 466 3331 455 3354 
Q 444 3378 439 3420 
Q 434 3463 434 3531 
Q 434 3578 437 3614 
Q 441 3650 450 3676 
Q 459 3703 471 3725 
Q 484 3747 514 3776 
Q 544 3806 634 3862 
Q 725 3919 858 3973 
Q 991 4028 1164 4065 
Q 1338 4103 1538 4103 
Q 1819 4103 2031 4031 
Q 2244 3959 2386 3828 
Q 2528 3697 2598 3514 
Q 2669 3331 2669 3109 
Q 2669 2919 2619 2755 
Q 2569 2591 2472 2464 
Q 2375 2338 2234 2248 
Q 2094 2159 1909 2125 
L 1909 2119 
Q 2119 2097 2292 2014 
Q 2466 1931 2591 1806 
Q 2716 1681 2786 1514 
Q 2856 1347 2856 1156 
z
" transform="scale(0.015625)"/>
       </defs>
       <use xlink:href="#Calibri-30"/>
       <use xlink:href="#Calibri-2e" x="50.683594"/>
       <use xlink:href="#Calibri-33" x="75.927734"/>
      </g>
     </g>
    </g>
    <g id="xtick_5">
     <g id="line2d_5">
      <g>
       <use xlink:href="#m11321f875e" x="171.8784" y="307.584" style="stroke: #000000; stroke-width: 0.8"/>
      </g>
     </g>
     <g id="text_5">
      <!-- 0.4 -->
      <g transform="translate(165.54715 321.385562) scale(0.1 -0.1)">
       <defs>
        <path id="Calibri-34" d="M 3059 1150 
Q 3059 1047 3028 987 
Q 2997 928 2941 928 
L 2484 928 
L 2484 78 
Q 2484 53 2471 36 
Q 2459 19 2428 6 
Q 2397 -6 2347 -12 
Q 2297 -19 2219 -19 
Q 2144 -19 2094 -12 
Q 2044 -6 2014 6 
Q 1984 19 1973 36 
Q 1963 53 1963 78 
L 1963 928 
L 294 928 
Q 256 928 231 937 
Q 206 947 186 972 
Q 166 997 158 1044 
Q 150 1091 150 1166 
Q 150 1225 153 1272 
Q 156 1319 165 1358 
Q 175 1397 190 1433 
Q 206 1469 228 1509 
L 1684 3966 
Q 1700 3991 1729 4009 
Q 1759 4028 1806 4040 
Q 1853 4053 1922 4058 
Q 1991 4063 2084 4063 
Q 2188 4063 2264 4055 
Q 2341 4047 2387 4034 
Q 2434 4022 2459 4001 
Q 2484 3981 2484 3953 
L 2484 1372 
L 2941 1372 
Q 2994 1372 3026 1317 
Q 3059 1263 3059 1150 
z
M 1963 3591 
L 1956 3591 
L 641 1372 
L 1963 1372 
L 1963 3591 
z
" transform="scale(0.015625)"/>
       </defs>
       <use xlink:href="#Calibri-30"/>
       <use xlink:href="#Calibri-2e" x="50.683594"/>
       <use xlink:href="#Calibri-34" x="75.927734"/>
      </g>
     </g>
    </g>
    <g id="xtick_6">
     <g id="line2d_6">
      <g>
       <use xlink:href="#m11321f875e" x="200.448" y="307.584" style="stroke: #000000; stroke-width: 0.8"/>
      </g>
     </g>
     <g id="text_6">
      <!-- 0.5 -->
      <g transform="translate(194.11675 321.385562) scale(0.1 -0.1)">
       <defs>
        <path id="Calibri-35" d="M 2869 1300 
Q 2869 975 2759 722 
Q 2650 469 2450 295 
Q 2250 122 1973 31 
Q 1697 -59 1359 -59 
Q 1172 -59 1003 -32 
Q 834 -6 703 33 
Q 572 72 487 109 
Q 403 147 379 169 
Q 356 191 347 209 
Q 338 228 330 254 
Q 322 281 319 322 
Q 316 363 316 419 
Q 316 472 320 514 
Q 325 556 337 582 
Q 350 609 367 621 
Q 384 634 406 634 
Q 438 634 503 595 
Q 569 556 680 511 
Q 791 466 955 425 
Q 1119 384 1344 384 
Q 1553 384 1728 434 
Q 1903 484 2029 590 
Q 2156 697 2228 858 
Q 2300 1019 2300 1250 
Q 2300 1444 2239 1592 
Q 2178 1741 2051 1839 
Q 1925 1938 1731 1986 
Q 1538 2034 1269 2034 
Q 1078 2034 940 2015 
Q 803 1997 684 1997 
Q 597 1997 559 2037 
Q 522 2078 522 2194 
L 522 3841 
Q 522 3944 570 3994 
Q 619 4044 709 4044 
L 2500 4044 
Q 2525 4044 2548 4030 
Q 2572 4016 2587 3987 
Q 2603 3959 2611 3915 
Q 2619 3872 2619 3813 
Q 2619 3700 2587 3637 
Q 2556 3575 2500 3575 
L 991 3575 
L 991 2441 
Q 1100 2456 1214 2459 
Q 1328 2463 1478 2463 
Q 1825 2463 2084 2380 
Q 2344 2297 2517 2145 
Q 2691 1994 2780 1778 
Q 2869 1563 2869 1300 
z
" transform="scale(0.015625)"/>
       </defs>
       <use xlink:href="#Calibri-30"/>
       <use xlink:href="#Calibri-2e" x="50.683594"/>
       <use xlink:href="#Calibri-35" x="75.927734"/>
      </g>
     </g>
    </g>
    <g id="xtick_7">
     <g id="line2d_7">
      <g>
       <use xlink:href="#m11321f875e" x="229.0176" y="307.584" style="stroke: #000000; stroke-width: 0.8"/>
      </g>
     </g>
     <g id="text_7">
      <!-- 0.6 -->
      <g transform="translate(222.68635 321.385562) scale(0.1 -0.1)">
       <defs>
        <path id="Calibri-36" d="M 2991 1309 
Q 2991 1044 2909 795 
Q 2828 547 2659 358 
Q 2491 169 2231 55 
Q 1972 -59 1619 -59 
Q 1366 -59 1172 3 
Q 978 66 834 181 
Q 691 297 595 465 
Q 500 634 442 850 
Q 384 1066 359 1322 
Q 334 1578 334 1872 
Q 334 2131 362 2397 
Q 391 2663 462 2909 
Q 534 3156 657 3373 
Q 781 3591 967 3752 
Q 1153 3913 1412 4006 
Q 1672 4100 2016 4100 
Q 2131 4100 2250 4086 
Q 2369 4072 2469 4048 
Q 2569 4025 2637 3997 
Q 2706 3969 2728 3951 
Q 2750 3934 2761 3914 
Q 2772 3894 2778 3870 
Q 2784 3847 2787 3817 
Q 2791 3788 2791 3744 
Q 2791 3688 2789 3647 
Q 2788 3606 2777 3581 
Q 2766 3556 2748 3543 
Q 2731 3531 2703 3531 
Q 2669 3531 2609 3553 
Q 2550 3575 2465 3601 
Q 2381 3628 2261 3650 
Q 2141 3672 1981 3672 
Q 1691 3672 1481 3553 
Q 1272 3434 1139 3234 
Q 1006 3034 942 2770 
Q 878 2506 869 2219 
Q 950 2266 1051 2312 
Q 1153 2359 1273 2396 
Q 1394 2434 1528 2457 
Q 1663 2481 1816 2481 
Q 2144 2481 2369 2392 
Q 2594 2303 2733 2145 
Q 2872 1988 2931 1773 
Q 2991 1559 2991 1309 
z
M 2447 1259 
Q 2447 1441 2411 1589 
Q 2375 1738 2290 1841 
Q 2206 1944 2065 2000 
Q 1925 2056 1719 2056 
Q 1603 2056 1487 2036 
Q 1372 2016 1264 1980 
Q 1156 1944 1057 1895 
Q 959 1847 878 1791 
Q 878 1388 929 1116 
Q 981 844 1079 680 
Q 1178 516 1325 445 
Q 1472 375 1669 375 
Q 1869 375 2016 450 
Q 2163 525 2259 651 
Q 2356 778 2401 936 
Q 2447 1094 2447 1259 
z
" transform="scale(0.015625)"/>
       </defs>
       <use xlink:href="#Calibri-30"/>
       <use xlink:href="#Calibri-2e" x="50.683594"/>
       <use xlink:href="#Calibri-36" x="75.927734"/>
      </g>
     </g>
    </g>
    <g id="xtick_8">
     <g id="line2d_8">
      <g>
       <use xlink:href="#m11321f875e" x="257.5872" y="307.584" style="stroke: #000000; stroke-width: 0.8"/>
      </g>
     </g>
     <g id="text_8">
      <!-- 0.7 -->
      <g transform="translate(251.25595 321.385562) scale(0.1 -0.1)">
       <defs>
        <path id="Calibri-37" d="M 2947 3813 
Q 2947 3756 2942 3711 
Q 2938 3666 2930 3623 
Q 2922 3581 2908 3542 
Q 2894 3503 2875 3459 
L 1419 103 
Q 1403 66 1379 42 
Q 1356 19 1320 5 
Q 1284 -9 1228 -14 
Q 1172 -19 1091 -19 
Q 984 -19 925 -9 
Q 866 0 839 20 
Q 813 41 816 70 
Q 819 100 838 141 
L 2369 3572 
L 428 3572 
Q 369 3572 339 3634 
Q 309 3697 309 3809 
Q 309 3869 317 3912 
Q 325 3956 340 3986 
Q 356 4016 378 4030 
Q 400 4044 428 4044 
L 2784 4044 
Q 2828 4044 2861 4034 
Q 2894 4025 2911 3997 
Q 2928 3969 2937 3925 
Q 2947 3881 2947 3813 
z
" transform="scale(0.015625)"/>
       </defs>
       <use xlink:href="#Calibri-30"/>
       <use xlink:href="#Calibri-2e" x="50.683594"/>
       <use xlink:href="#Calibri-37" x="75.927734"/>
      </g>
     </g>
    </g>
    <g id="xtick_9">
     <g id="line2d_9">
      <g>
       <use xlink:href="#m11321f875e" x="286.1568" y="307.584" style="stroke: #000000; stroke-width: 0.8"/>
      </g>
     </g>
     <g id="text_9">
      <!-- 0.8 -->
      <g transform="translate(279.82555 321.385562) scale(0.1 -0.1)">
       <defs>
        <path id="Calibri-38" d="M 2981 1038 
Q 2981 775 2887 570 
Q 2794 366 2617 225 
Q 2441 84 2181 12 
Q 1922 -59 1588 -59 
Q 1275 -59 1028 6 
Q 781 72 609 200 
Q 438 328 347 515 
Q 256 703 256 944 
Q 256 1134 318 1293 
Q 381 1453 498 1587 
Q 616 1722 787 1839 
Q 959 1956 1175 2063 
Q 988 2159 844 2267 
Q 700 2375 600 2501 
Q 500 2628 448 2772 
Q 397 2916 397 3084 
Q 397 3297 473 3483 
Q 550 3669 704 3806 
Q 859 3944 1098 4023 
Q 1338 4103 1656 4103 
Q 1963 4103 2186 4029 
Q 2409 3956 2554 3829 
Q 2700 3703 2769 3531 
Q 2838 3359 2838 3163 
Q 2838 3003 2786 2856 
Q 2734 2709 2634 2578 
Q 2534 2447 2389 2333 
Q 2244 2219 2056 2119 
Q 2278 2009 2451 1893 
Q 2625 1778 2742 1645 
Q 2859 1513 2920 1364 
Q 2981 1216 2981 1038 
z
M 2306 3113 
Q 2306 3244 2261 3350 
Q 2216 3456 2128 3531 
Q 2041 3606 1911 3645 
Q 1781 3684 1616 3684 
Q 1278 3684 1104 3531 
Q 931 3378 931 3113 
Q 931 2991 973 2886 
Q 1016 2781 1105 2687 
Q 1194 2594 1330 2505 
Q 1466 2416 1653 2319 
Q 1969 2481 2137 2678 
Q 2306 2875 2306 3113 
z
M 2438 981 
Q 2438 1125 2384 1242 
Q 2331 1359 2223 1461 
Q 2116 1563 1955 1658 
Q 1794 1753 1581 1856 
Q 1384 1759 1236 1662 
Q 1088 1566 992 1462 
Q 897 1359 848 1245 
Q 800 1131 800 994 
Q 800 691 1008 525 
Q 1216 359 1628 359 
Q 2028 359 2233 526 
Q 2438 694 2438 981 
z
" transform="scale(0.015625)"/>
       </defs>
       <use xlink:href="#Calibri-30"/>
       <use xlink:href="#Calibri-2e" x="50.683594"/>
       <use xlink:href="#Calibri-38" x="75.927734"/>
      </g>
     </g>
    </g>
    <g id="xtick_10">
     <g id="line2d_10">
      <g>
       <use xlink:href="#m11321f875e" x="314.7264" y="307.584" style="stroke: #000000; stroke-width: 0.8"/>
      </g>
     </g>
     <g id="text_10">
      <!-- 0.9 -->
      <g transform="translate(308.39515 321.385562) scale(0.1 -0.1)">
       <defs>
        <path id="Calibri-39" d="M 2919 2181 
Q 2919 1919 2887 1650 
Q 2856 1381 2781 1132 
Q 2706 884 2579 667 
Q 2453 450 2261 287 
Q 2069 125 1805 33 
Q 1541 -59 1191 -59 
Q 1056 -59 929 -42 
Q 803 -25 701 0 
Q 600 25 531 53 
Q 463 81 431 109 
Q 400 138 386 186 
Q 372 234 372 316 
Q 372 384 376 425 
Q 381 466 390 487 
Q 400 509 417 517 
Q 434 525 459 525 
Q 494 525 556 501 
Q 619 478 714 450 
Q 809 422 937 398 
Q 1066 375 1225 375 
Q 1528 375 1745 492 
Q 1963 609 2100 806 
Q 2238 1003 2306 1262 
Q 2375 1522 2381 1809 
Q 2216 1713 1984 1638 
Q 1753 1563 1453 1563 
Q 1116 1563 886 1655 
Q 656 1747 517 1906 
Q 378 2066 317 2284 
Q 256 2503 256 2763 
Q 256 3031 334 3273 
Q 413 3516 578 3700 
Q 744 3884 1000 3993 
Q 1256 4103 1613 4103 
Q 1866 4103 2061 4039 
Q 2256 3975 2400 3854 
Q 2544 3734 2644 3564 
Q 2744 3394 2805 3178 
Q 2866 2963 2892 2711 
Q 2919 2459 2919 2181 
z
M 2372 2241 
Q 2372 2641 2319 2914 
Q 2266 3188 2162 3356 
Q 2059 3525 1909 3600 
Q 1759 3675 1563 3675 
Q 1359 3675 1215 3601 
Q 1072 3528 980 3404 
Q 888 3281 844 3125 
Q 800 2969 800 2803 
Q 800 2619 839 2466 
Q 878 2313 965 2206 
Q 1053 2100 1193 2042 
Q 1334 1984 1541 1984 
Q 1775 1984 1994 2054 
Q 2213 2125 2372 2241 
z
" transform="scale(0.015625)"/>
       </defs>
       <use xlink:href="#Calibri-30"/>
       <use xlink:href="#Calibri-2e" x="50.683594"/>
       <use xlink:href="#Calibri-39" x="75.927734"/>
      </g>
     </g>
    </g>
    <g id="xtick_11">
     <g id="line2d_11">
      <g>
       <use xlink:href="#m11321f875e" x="343.296" y="307.584" style="stroke: #000000; stroke-width: 0.8"/>
      </g>
     </g>
     <g id="text_11">
      <!-- 1.0 -->
      <g transform="translate(336.96475 321.385562) scale(0.1 -0.1)">
       <use xlink:href="#Calibri-31"/>
       <use xlink:href="#Calibri-2e" x="50.683594"/>
       <use xlink:href="#Calibri-30" x="75.927734"/>
      </g>
     </g>
    </g>
    <g id="text_12">
     <!-- $\mathit{p}$ (cm$^2$/cm$^2$) -->
     <g transform="translate(174.148 336.263687) scale(0.1 -0.1)">
      <defs>
       <path id="DejaVuSans-Oblique-70" d="M 3175 2156 
Q 3175 2616 2975 2859 
Q 2775 3103 2400 3103 
Q 2144 3103 1911 2972 
Q 1678 2841 1497 2591 
Q 1319 2344 1212 1994 
Q 1106 1644 1106 1300 
Q 1106 863 1306 627 
Q 1506 391 1875 391 
Q 2147 391 2380 519 
Q 2613 647 2778 891 
Q 2956 1147 3065 1494 
Q 3175 1841 3175 2156 
z
M 1394 2969 
Q 1625 3272 1939 3428 
Q 2253 3584 2638 3584 
Q 3175 3584 3472 3232 
Q 3769 2881 3769 2247 
Q 3769 1728 3584 1258 
Q 3400 788 3053 416 
Q 2822 169 2531 39 
Q 2241 -91 1919 -91 
Q 1547 -91 1294 64 
Q 1041 219 916 525 
L 556 -1331 
L -19 -1331 
L 922 3500 
L 1497 3500 
L 1394 2969 
z
" transform="scale(0.015625)"/>
       <path id="Calibri-20" transform="scale(0.015625)"/>
       <path id="Calibri-28" d="M 1547 4306 
Q 1250 3678 1104 3017 
Q 959 2356 959 1688 
Q 959 1016 1107 356 
Q 1256 -303 1541 -938 
Q 1556 -975 1557 -1001 
Q 1559 -1028 1537 -1045 
Q 1516 -1063 1470 -1070 
Q 1425 -1078 1347 -1078 
Q 1291 -1078 1250 -1075 
Q 1209 -1072 1179 -1062 
Q 1150 -1053 1131 -1040 
Q 1113 -1028 1103 -1013 
Q 934 -694 806 -367 
Q 678 -41 590 296 
Q 503 634 459 979 
Q 416 1325 416 1678 
Q 416 2031 464 2375 
Q 513 2719 602 3058 
Q 691 3397 819 3725 
Q 947 4053 1106 4375 
Q 1109 4388 1123 4397 
Q 1138 4406 1163 4415 
Q 1188 4425 1231 4429 
Q 1275 4434 1344 4434 
Q 1416 4434 1459 4425 
Q 1503 4416 1528 4400 
Q 1553 4384 1556 4359 
Q 1559 4334 1547 4306 
z
" transform="scale(0.015625)"/>
       <path id="Calibri-63" d="M 2500 506 
Q 2500 453 2497 414 
Q 2494 375 2486 348 
Q 2478 322 2467 301 
Q 2456 281 2417 242 
Q 2378 203 2284 145 
Q 2191 88 2073 42 
Q 1956 -3 1818 -31 
Q 1681 -59 1534 -59 
Q 1231 -59 997 41 
Q 763 141 605 333 
Q 447 525 364 804 
Q 281 1084 281 1450 
Q 281 1866 382 2164 
Q 484 2463 661 2653 
Q 838 2844 1077 2936 
Q 1316 3028 1594 3028 
Q 1728 3028 1854 3003 
Q 1981 2978 2087 2937 
Q 2194 2897 2276 2844 
Q 2359 2791 2396 2753 
Q 2434 2716 2448 2694 
Q 2463 2672 2472 2642 
Q 2481 2613 2484 2575 
Q 2488 2538 2488 2481 
Q 2488 2359 2459 2311 
Q 2431 2263 2391 2263 
Q 2344 2263 2283 2314 
Q 2222 2366 2128 2428 
Q 2034 2491 1901 2542 
Q 1769 2594 1588 2594 
Q 1216 2594 1017 2308 
Q 819 2022 819 1478 
Q 819 1206 870 1001 
Q 922 797 1022 659 
Q 1122 522 1267 455 
Q 1413 388 1600 388 
Q 1778 388 1912 444 
Q 2047 500 2145 567 
Q 2244 634 2311 689 
Q 2378 744 2416 744 
Q 2438 744 2453 731 
Q 2469 719 2480 689 
Q 2491 659 2495 614 
Q 2500 569 2500 506 
z
" transform="scale(0.015625)"/>
       <path id="Calibri-6d" d="M 4650 78 
Q 4650 53 4637 36 
Q 4625 19 4597 6 
Q 4569 -6 4519 -12 
Q 4469 -19 4394 -19 
Q 4316 -19 4266 -12 
Q 4216 -6 4186 6 
Q 4156 19 4143 36 
Q 4131 53 4131 78 
L 4131 1788 
Q 4131 1966 4100 2112 
Q 4069 2259 4000 2365 
Q 3931 2472 3825 2528 
Q 3719 2584 3575 2584 
Q 3397 2584 3217 2446 
Q 3038 2309 2822 2044 
L 2822 78 
Q 2822 53 2809 36 
Q 2797 19 2767 6 
Q 2738 -6 2688 -12 
Q 2638 -19 2563 -19 
Q 2491 -19 2439 -12 
Q 2388 -6 2358 6 
Q 2328 19 2317 36 
Q 2306 53 2306 78 
L 2306 1788 
Q 2306 1966 2272 2112 
Q 2238 2259 2169 2365 
Q 2100 2472 1995 2528 
Q 1891 2584 1747 2584 
Q 1569 2584 1387 2446 
Q 1206 2309 994 2044 
L 994 78 
Q 994 53 981 36 
Q 969 19 941 6 
Q 913 -6 863 -12 
Q 813 -19 734 -19 
Q 659 -19 609 -12 
Q 559 -6 529 6 
Q 500 19 489 36 
Q 478 53 478 78 
L 478 2891 
Q 478 2916 487 2933 
Q 497 2950 525 2964 
Q 553 2978 597 2983 
Q 641 2988 713 2988 
Q 781 2988 826 2983 
Q 872 2978 897 2964 
Q 922 2950 933 2933 
Q 944 2916 944 2891 
L 944 2519 
Q 1181 2784 1404 2907 
Q 1628 3031 1856 3031 
Q 2031 3031 2170 2990 
Q 2309 2950 2415 2876 
Q 2522 2803 2597 2701 
Q 2672 2600 2722 2475 
Q 2863 2628 2989 2734 
Q 3116 2841 3233 2906 
Q 3350 2972 3461 3001 
Q 3572 3031 3684 3031 
Q 3956 3031 4140 2936 
Q 4325 2841 4439 2681 
Q 4553 2522 4601 2308 
Q 4650 2094 4650 1856 
L 4650 78 
z
" transform="scale(0.015625)"/>
       <path id="DejaVuSans-32" d="M 1228 531 
L 3431 531 
L 3431 0 
L 469 0 
L 469 531 
Q 828 903 1448 1529 
Q 2069 2156 2228 2338 
Q 2531 2678 2651 2914 
Q 2772 3150 2772 3378 
Q 2772 3750 2511 3984 
Q 2250 4219 1831 4219 
Q 1534 4219 1204 4116 
Q 875 4013 500 3803 
L 500 4441 
Q 881 4594 1212 4672 
Q 1544 4750 1819 4750 
Q 2544 4750 2975 4387 
Q 3406 4025 3406 3419 
Q 3406 3131 3298 2873 
Q 3191 2616 2906 2266 
Q 2828 2175 2409 1742 
Q 1991 1309 1228 531 
z
" transform="scale(0.015625)"/>
       <path id="Calibri-2f" d="M 525 -753 
Q 513 -794 492 -817 
Q 472 -841 440 -853 
Q 409 -866 364 -872 
Q 319 -878 253 -878 
Q 175 -878 123 -867 
Q 72 -856 44 -836 
Q 16 -816 9 -786 
Q 3 -756 22 -716 
L 1913 4469 
Q 1925 4509 1945 4532 
Q 1966 4556 1995 4570 
Q 2025 4584 2072 4589 
Q 2119 4594 2184 4594 
Q 2263 4594 2313 4583 
Q 2363 4572 2391 4553 
Q 2419 4534 2425 4503 
Q 2431 4472 2416 4431 
L 525 -753 
z
" transform="scale(0.015625)"/>
       <path id="Calibri-29" d="M 1522 1678 
Q 1522 1325 1478 979 
Q 1434 634 1346 296 
Q 1259 -41 1132 -367 
Q 1006 -694 838 -1013 
Q 828 -1028 809 -1040 
Q 791 -1053 761 -1062 
Q 731 -1072 690 -1075 
Q 650 -1078 594 -1078 
Q 513 -1078 467 -1070 
Q 422 -1063 401 -1045 
Q 381 -1028 382 -1001 
Q 384 -975 400 -938 
Q 688 -306 834 355 
Q 981 1016 981 1688 
Q 981 2356 834 3017 
Q 688 3678 394 4306 
Q 381 4334 384 4359 
Q 388 4384 413 4400 
Q 438 4416 481 4425 
Q 525 4434 597 4434 
Q 663 4434 706 4429 
Q 750 4425 776 4415 
Q 803 4406 815 4397 
Q 828 4388 834 4375 
Q 1156 3734 1339 3057 
Q 1522 2381 1522 1678 
z
" transform="scale(0.015625)"/>
      </defs>
      <use xlink:href="#DejaVuSans-Oblique-70" transform="translate(0 0.765625)"/>
      <use xlink:href="#Calibri-20" transform="translate(63.476562 0.765625)"/>
      <use xlink:href="#Calibri-28" transform="translate(84.958984 0.765625)"/>
      <use xlink:href="#Calibri-63" transform="translate(115.28125 0.765625)"/>
      <use xlink:href="#Calibri-6d" transform="translate(157.566406 0.765625)"/>
      <use xlink:href="#DejaVuSans-32" transform="translate(238.40625 39.046875) scale(0.7)"/>
      <use xlink:href="#Calibri-2f" transform="translate(285.676758 0.765625)"/>
      <use xlink:href="#Calibri-63" transform="translate(324.299805 0.765625)"/>
      <use xlink:href="#Calibri-6d" transform="translate(366.584961 0.765625)"/>
      <use xlink:href="#DejaVuSans-32" transform="translate(447.424805 39.046875) scale(0.7)"/>
      <use xlink:href="#Calibri-29" transform="translate(494.695312 0.765625)"/>
     </g>
    </g>
   </g>
   <g id="matplotlib.axis_2">
    <g id="ytick_1">
     <g id="line2d_12">
      <defs>
       <path id="m8111e8c1c2" d="M 0 0 
L -3.5 0 
" style="stroke: #000000; stroke-width: 0.8"/>
      </defs>
      <g>
       <use xlink:href="#m8111e8c1c2" x="57.6" y="275.65056" style="stroke: #000000; stroke-width: 0.8"/>
      </g>
     </g>
     <g id="text_13">
      <!-- 25 -->
      <g transform="translate(40.4625 279.051341) scale(0.1 -0.1)">
       <use xlink:href="#Calibri-32"/>
       <use xlink:href="#Calibri-35" x="50.683594"/>
      </g>
     </g>
    </g>
    <g id="ytick_2">
     <g id="line2d_13">
      <g>
       <use xlink:href="#m8111e8c1c2" x="57.6" y="242.38656" style="stroke: #000000; stroke-width: 0.8"/>
      </g>
     </g>
     <g id="text_14">
      <!-- 50 -->
      <g transform="translate(40.4625 245.787341) scale(0.1 -0.1)">
       <use xlink:href="#Calibri-35"/>
       <use xlink:href="#Calibri-30" x="50.683594"/>
      </g>
     </g>
    </g>
    <g id="ytick_3">
     <g id="line2d_14">
      <g>
       <use xlink:href="#m8111e8c1c2" x="57.6" y="209.12256" style="stroke: #000000; stroke-width: 0.8"/>
      </g>
     </g>
     <g id="text_15">
      <!-- 75 -->
      <g transform="translate(40.4625 212.523341) scale(0.1 -0.1)">
       <use xlink:href="#Calibri-37"/>
       <use xlink:href="#Calibri-35" x="50.683594"/>
      </g>
     </g>
    </g>
    <g id="ytick_4">
     <g id="line2d_15">
      <g>
       <use xlink:href="#m8111e8c1c2" x="57.6" y="175.85856" style="stroke: #000000; stroke-width: 0.8"/>
      </g>
     </g>
     <g id="text_16">
      <!-- 100 -->
      <g transform="translate(35.39375 179.259341) scale(0.1 -0.1)">
       <use xlink:href="#Calibri-31"/>
       <use xlink:href="#Calibri-30" x="50.683594"/>
       <use xlink:href="#Calibri-30" x="101.367188"/>
      </g>
     </g>
    </g>
    <g id="ytick_5">
     <g id="line2d_16">
      <g>
       <use xlink:href="#m8111e8c1c2" x="57.6" y="142.59456" style="stroke: #000000; stroke-width: 0.8"/>
      </g>
     </g>
     <g id="text_17">
      <!-- 125 -->
      <g transform="translate(35.39375 145.995341) scale(0.1 -0.1)">
       <use xlink:href="#Calibri-31"/>
       <use xlink:href="#Calibri-32" x="50.683594"/>
       <use xlink:href="#Calibri-35" x="101.367188"/>
      </g>
     </g>
    </g>
    <g id="ytick_6">
     <g id="line2d_17">
      <g>
       <use xlink:href="#m8111e8c1c2" x="57.6" y="109.33056" style="stroke: #000000; stroke-width: 0.8"/>
      </g>
     </g>
     <g id="text_18">
      <!-- 150 -->
      <g transform="translate(35.39375 112.731341) scale(0.1 -0.1)">
       <use xlink:href="#Calibri-31"/>
       <use xlink:href="#Calibri-35" x="50.683594"/>
       <use xlink:href="#Calibri-30" x="101.367188"/>
      </g>
     </g>
    </g>
    <g id="ytick_7">
     <g id="line2d_18">
      <g>
       <use xlink:href="#m8111e8c1c2" x="57.6" y="76.06656" style="stroke: #000000; stroke-width: 0.8"/>
      </g>
     </g>
     <g id="text_19">
      <!-- 175 -->
      <g transform="translate(35.39375 79.467341) scale(0.1 -0.1)">
       <use xlink:href="#Calibri-31"/>
       <use xlink:href="#Calibri-37" x="50.683594"/>
       <use xlink:href="#Calibri-35" x="101.367188"/>
      </g>
     </g>
    </g>
    <g id="ytick_8">
     <g id="line2d_19">
      <g>
       <use xlink:href="#m8111e8c1c2" x="57.6" y="42.80256" style="stroke: #000000; stroke-width: 0.8"/>
      </g>
     </g>
     <g id="text_20">
      <!-- 200 -->
      <g transform="translate(35.39375 46.203341) scale(0.1 -0.1)">
       <use xlink:href="#Calibri-32"/>
       <use xlink:href="#Calibri-30" x="50.683594"/>
       <use xlink:href="#Calibri-30" x="101.367188"/>
      </g>
     </g>
    </g>
    <g id="text_21">
     <!-- $\mathit{Z}$$_{a}$ (nm) -->
     <g transform="translate(29.59375 191.028) rotate(-90) scale(0.1 -0.1)">
      <defs>
       <path id="DejaVuSans-Oblique-5a" d="M 838 4666 
L 4500 4666 
L 4409 4184 
L 794 531 
L 3769 531 
L 3669 0 
L -141 0 
L -50 481 
L 3566 4134 
L 738 4134 
L 838 4666 
z
" transform="scale(0.015625)"/>
       <path id="DejaVuSans-Oblique-61" d="M 3438 1997 
L 3047 0 
L 2472 0 
L 2578 531 
Q 2325 219 2001 64 
Q 1678 -91 1281 -91 
Q 834 -91 548 182 
Q 263 456 263 884 
Q 263 1497 752 1853 
Q 1241 2209 2100 2209 
L 2900 2209 
L 2931 2363 
Q 2938 2388 2941 2417 
Q 2944 2447 2944 2509 
Q 2944 2788 2717 2942 
Q 2491 3097 2081 3097 
Q 1800 3097 1504 3025 
Q 1209 2953 897 2809 
L 997 3341 
Q 1322 3463 1633 3523 
Q 1944 3584 2234 3584 
Q 2853 3584 3176 3315 
Q 3500 3047 3500 2534 
Q 3500 2431 3484 2292 
Q 3469 2153 3438 1997 
z
M 2816 1759 
L 2241 1759 
Q 1534 1759 1195 1570 
Q 856 1381 856 984 
Q 856 709 1029 553 
Q 1203 397 1509 397 
Q 1978 397 2328 733 
Q 2678 1069 2791 1631 
L 2816 1759 
z
" transform="scale(0.015625)"/>
       <path id="Calibri-6e" d="M 2900 78 
Q 2900 53 2887 36 
Q 2875 19 2847 6 
Q 2819 -6 2769 -12 
Q 2719 -19 2644 -19 
Q 2566 -19 2516 -12 
Q 2466 -6 2437 6 
Q 2409 19 2396 36 
Q 2384 53 2384 78 
L 2384 1725 
Q 2384 1966 2346 2112 
Q 2309 2259 2237 2365 
Q 2166 2472 2052 2528 
Q 1938 2584 1788 2584 
Q 1594 2584 1400 2446 
Q 1206 2309 994 2044 
L 994 78 
Q 994 53 981 36 
Q 969 19 941 6 
Q 913 -6 863 -12 
Q 813 -19 734 -19 
Q 659 -19 609 -12 
Q 559 -6 529 6 
Q 500 19 489 36 
Q 478 53 478 78 
L 478 2891 
Q 478 2916 487 2933 
Q 497 2950 525 2964 
Q 553 2978 597 2983 
Q 641 2988 713 2988 
Q 781 2988 826 2983 
Q 872 2978 897 2964 
Q 922 2950 933 2933 
Q 944 2916 944 2891 
L 944 2519 
Q 1181 2784 1417 2907 
Q 1653 3031 1894 3031 
Q 2175 3031 2367 2936 
Q 2559 2841 2678 2681 
Q 2797 2522 2848 2308 
Q 2900 2094 2900 1794 
L 2900 78 
z
" transform="scale(0.015625)"/>
      </defs>
      <use xlink:href="#DejaVuSans-Oblique-5a" transform="translate(0 0.09375)"/>
      <use xlink:href="#DejaVuSans-Oblique-61" transform="translate(69.462891 -16.3125) scale(0.7)"/>
      <use xlink:href="#Calibri-20" transform="translate(115.092773 0.09375)"/>
      <use xlink:href="#Calibri-28" transform="translate(136.575195 0.09375)"/>
      <use xlink:href="#Calibri-6e" transform="translate(166.897461 0.09375)"/>
      <use xlink:href="#Calibri-6d" transform="translate(219.436523 0.09375)"/>
      <use xlink:href="#Calibri-29" transform="translate(299.319336 0.09375)"/>
     </g>
    </g>
   </g>
   <g id="patch_3">
    <path d="M 57.6 307.584 
L 57.6 41.472 
" style="fill: none; stroke: #000000; stroke-width: 0.8; stroke-linejoin: miter; stroke-linecap: square"/>
   </g>
   <g id="patch_4">
    <path d="M 343.296 307.584 
L 343.296 41.472 
" style="fill: none; stroke: #000000; stroke-width: 0.8; stroke-linejoin: miter; stroke-linecap: square"/>
   </g>
   <g id="patch_5">
    <path d="M 57.6 307.584 
L 343.296 307.584 
" style="fill: none; stroke: #000000; stroke-width: 0.8; stroke-linejoin: miter; stroke-linecap: square"/>
   </g>
   <g id="patch_6">
    <path d="M 57.6 41.472 
L 343.296 41.472 
" style="fill: none; stroke: #000000; stroke-width: 0.8; stroke-linejoin: miter; stroke-linecap: square"/>
   </g>
   <g id="text_22">
    <!-- $\theta_m$ = 47 -->
    <g transform="translate(182.298 35.472) scale(0.1 -0.1)">
     <defs>
      <path id="DejaVuSans-Oblique-3b8" d="M 2913 2219 
L 925 2219 
Q 791 1284 928 888 
Q 1100 400 1566 400 
Q 2034 400 2391 891 
Q 2703 1322 2913 2219 
z
M 3009 2750 
Q 3094 3638 2984 3950 
Q 2813 4444 2353 4444 
Q 1875 4444 1525 3956 
Q 1250 3563 1034 2750 
L 3009 2750 
z
M 2444 4913 
Q 3194 4913 3494 4250 
Q 3794 3591 3566 2422 
Q 3341 1256 2781 594 
Q 2225 -72 1475 -72 
Q 722 -72 425 594 
Q 128 1256 353 2422 
Q 581 3591 1134 4250 
Q 1691 4913 2444 4913 
z
" transform="scale(0.015625)"/>
      <path id="DejaVuSans-Oblique-6d" d="M 5747 2113 
L 5338 0 
L 4763 0 
L 5166 2094 
Q 5191 2228 5203 2325 
Q 5216 2422 5216 2491 
Q 5216 2772 5059 2928 
Q 4903 3084 4622 3084 
Q 4203 3084 3875 2770 
Q 3547 2456 3450 1953 
L 3066 0 
L 2491 0 
L 2900 2094 
Q 2925 2209 2937 2307 
Q 2950 2406 2950 2484 
Q 2950 2769 2794 2926 
Q 2638 3084 2363 3084 
Q 1938 3084 1609 2770 
Q 1281 2456 1184 1953 
L 800 0 
L 225 0 
L 909 3500 
L 1484 3500 
L 1375 2956 
Q 1609 3263 1923 3423 
Q 2238 3584 2597 3584 
Q 2978 3584 3223 3384 
Q 3469 3184 3519 2828 
Q 3781 3197 4126 3390 
Q 4472 3584 4856 3584 
Q 5306 3584 5551 3325 
Q 5797 3066 5797 2591 
Q 5797 2488 5784 2364 
Q 5772 2241 5747 2113 
z
" transform="scale(0.015625)"/>
      <path id="Calibri-3d" d="M 2891 2409 
Q 2891 2284 2855 2236 
Q 2819 2188 2772 2188 
L 409 2188 
Q 363 2188 328 2236 
Q 294 2284 294 2409 
Q 294 2522 325 2575 
Q 356 2628 409 2628 
L 2772 2628 
Q 2828 2628 2859 2575 
Q 2891 2522 2891 2409 
z
M 2891 1194 
Q 2891 1069 2855 1022 
Q 2819 975 2772 975 
L 409 975 
Q 363 975 328 1022 
Q 294 1069 294 1194 
Q 294 1309 325 1362 
Q 356 1416 409 1416 
L 2772 1416 
Q 2828 1416 2859 1362 
Q 2891 1309 2891 1194 
z
" transform="scale(0.015625)"/>
      <path id="Calibri-b0" d="M 1847 3541 
Q 1847 3388 1789 3253 
Q 1731 3119 1626 3017 
Q 1522 2916 1380 2859 
Q 1238 2803 1072 2803 
Q 906 2803 770 2854 
Q 634 2906 534 3000 
Q 434 3094 378 3225 
Q 322 3356 322 3516 
Q 322 3675 381 3811 
Q 441 3947 545 4044 
Q 650 4141 790 4197 
Q 931 4253 1097 4253 
Q 1259 4253 1396 4200 
Q 1534 4147 1634 4055 
Q 1734 3963 1790 3831 
Q 1847 3700 1847 3541 
z
M 1453 3528 
Q 1453 3613 1425 3686 
Q 1397 3759 1347 3812 
Q 1297 3866 1228 3895 
Q 1159 3925 1078 3925 
Q 1000 3925 933 3895 
Q 866 3866 816 3812 
Q 766 3759 737 3687 
Q 709 3616 709 3534 
Q 709 3444 737 3369 
Q 766 3294 817 3241 
Q 869 3188 939 3158 
Q 1009 3128 1091 3128 
Q 1166 3128 1233 3159 
Q 1300 3191 1348 3245 
Q 1397 3300 1425 3372 
Q 1453 3444 1453 3528 
z
M 0 4044 
L 0 4044 
z
" transform="scale(0.015625)"/>
     </defs>
     <use xlink:href="#DejaVuSans-Oblique-3b8" transform="translate(0 0.234375)"/>
     <use xlink:href="#DejaVuSans-Oblique-6d" transform="translate(61.181641 -16.171875) scale(0.7)"/>
     <use xlink:href="#Calibri-20" transform="translate(132.104492 0.234375)"/>
     <use xlink:href="#Calibri-3d" transform="translate(154.711914 0.234375)"/>
     <use xlink:href="#Calibri-20" transform="translate(204.516602 0.234375)"/>
     <use xlink:href="#Calibri-34" transform="translate(227.124023 0.234375)"/>
     <use xlink:href="#Calibri-37" transform="translate(277.807617 0.234375)"/>
     <use xlink:href="#Calibri-b0" transform="translate(328.491211 0.234375)"/>
    </g>
   </g>
  </g>
  <g id="axes_2">
   <g id="patch_7">
    <path d="M 361.152 307.584 
L 374.4576 307.584 
L 374.4576 41.472 
L 361.152 41.472 
z
" style="fill: #ffffff"/>
   </g>
   <g id="QuadMesh_1">
    <path d="M 361.152 307.584 
L 374.4576 307.584 
L 374.4576 280.9728 
L 361.152 280.9728 
L 361.152 307.584 
" clip-path="url(#p2d751b30f8)" style="fill: #0000b6"/>
    <path d="M 361.152 280.9728 
L 374.4576 280.9728 
L 374.4576 254.3616 
L 361.152 254.3616 
L 361.152 280.9728 
" clip-path="url(#p2d751b30f8)" style="fill: #0018ff"/>
    <path d="M 361.152 254.3616 
L 374.4576 254.3616 
L 374.4576 227.7504 
L 361.152 227.7504 
L 361.152 254.3616 
" clip-path="url(#p2d751b30f8)" style="fill: #0080ff"/>
    <path d="M 361.152 227.7504 
L 374.4576 227.7504 
L 374.4576 201.1392 
L 361.152 201.1392 
L 361.152 227.7504 
" clip-path="url(#p2d751b30f8)" style="fill: #00e4f8"/>
    <path d="M 361.152 201.1392 
L 374.4576 201.1392 
L 374.4576 174.528 
L 361.152 174.528 
L 361.152 201.1392 
" clip-path="url(#p2d751b30f8)" style="fill: #53ffa4"/>
    <path d="M 361.152 174.528 
L 374.4576 174.528 
L 374.4576 147.9168 
L 361.152 147.9168 
L 361.152 174.528 
" clip-path="url(#p2d751b30f8)" style="fill: #a4ff53"/>
    <path d="M 361.152 147.9168 
L 374.4576 147.9168 
L 374.4576 121.3056 
L 361.152 121.3056 
L 361.152 147.9168 
" clip-path="url(#p2d751b30f8)" style="fill: #f8f500"/>
    <path d="M 361.152 121.3056 
L 374.4576 121.3056 
L 374.4576 94.6944 
L 361.152 94.6944 
L 361.152 121.3056 
" clip-path="url(#p2d751b30f8)" style="fill: #ff9400"/>
    <path d="M 361.152 94.6944 
L 374.4576 94.6944 
L 374.4576 68.0832 
L 361.152 68.0832 
L 361.152 94.6944 
" clip-path="url(#p2d751b30f8)" style="fill: #ff3800"/>
    <path d="M 361.152 68.0832 
L 374.4576 68.0832 
L 374.4576 41.472 
L 361.152 41.472 
L 361.152 68.0832 
" clip-path="url(#p2d751b30f8)" style="fill: #b60000"/>
   </g>
   <g id="matplotlib.axis_3"/>
   <g id="matplotlib.axis_4">
    <g id="ytick_9">
     <g id="line2d_20">
      <defs>
       <path id="mcd11d1fe70" d="M 0 0 
L 3.5 0 
" style="stroke: #000000; stroke-width: 0.8"/>
      </defs>
      <g>
       <use xlink:href="#mcd11d1fe70" x="374.4576" y="307.584" style="stroke: #000000; stroke-width: 0.8"/>
      </g>
     </g>
     <g id="text_23">
      <!-- 0 -->
      <g transform="translate(381.4576 310.984781) scale(0.1 -0.1)">
       <use xlink:href="#Calibri-30"/>
      </g>
     </g>
    </g>
    <g id="ytick_10">
     <g id="line2d_21">
      <g>
       <use xlink:href="#mcd11d1fe70" x="374.4576" y="280.9728" style="stroke: #000000; stroke-width: 0.8"/>
      </g>
     </g>
     <g id="text_24">
      <!-- 0.1 -->
      <g transform="translate(381.4576 284.373581) scale(0.1 -0.1)">
       <use xlink:href="#Calibri-30"/>
       <use xlink:href="#Calibri-2e" x="50.683594"/>
       <use xlink:href="#Calibri-31" x="75.927734"/>
      </g>
     </g>
    </g>
    <g id="ytick_11">
     <g id="line2d_22">
      <g>
       <use xlink:href="#mcd11d1fe70" x="374.4576" y="254.3616" style="stroke: #000000; stroke-width: 0.8"/>
      </g>
     </g>
     <g id="text_25">
      <!-- 0.2 -->
      <g transform="translate(381.4576 257.762381) scale(0.1 -0.1)">
       <use xlink:href="#Calibri-30"/>
       <use xlink:href="#Calibri-2e" x="50.683594"/>
       <use xlink:href="#Calibri-32" x="75.927734"/>
      </g>
     </g>
    </g>
    <g id="ytick_12">
     <g id="line2d_23">
      <g>
       <use xlink:href="#mcd11d1fe70" x="374.4576" y="227.7504" style="stroke: #000000; stroke-width: 0.8"/>
      </g>
     </g>
     <g id="text_26">
      <!-- 0.3 -->
      <g transform="translate(381.4576 231.151181) scale(0.1 -0.1)">
       <use xlink:href="#Calibri-30"/>
       <use xlink:href="#Calibri-2e" x="50.683594"/>
       <use xlink:href="#Calibri-33" x="75.927734"/>
      </g>
     </g>
    </g>
    <g id="ytick_13">
     <g id="line2d_24">
      <g>
       <use xlink:href="#mcd11d1fe70" x="374.4576" y="201.1392" style="stroke: #000000; stroke-width: 0.8"/>
      </g>
     </g>
     <g id="text_27">
      <!-- 0.4 -->
      <g transform="translate(381.4576 204.539981) scale(0.1 -0.1)">
       <use xlink:href="#Calibri-30"/>
       <use xlink:href="#Calibri-2e" x="50.683594"/>
       <use xlink:href="#Calibri-34" x="75.927734"/>
      </g>
     </g>
    </g>
    <g id="ytick_14">
     <g id="line2d_25">
      <g>
       <use xlink:href="#mcd11d1fe70" x="374.4576" y="174.528" style="stroke: #000000; stroke-width: 0.8"/>
      </g>
     </g>
     <g id="text_28">
      <!-- 0.5 -->
      <g transform="translate(381.4576 177.928781) scale(0.1 -0.1)">
       <use xlink:href="#Calibri-30"/>
       <use xlink:href="#Calibri-2e" x="50.683594"/>
       <use xlink:href="#Calibri-35" x="75.927734"/>
      </g>
     </g>
    </g>
    <g id="ytick_15">
     <g id="line2d_26">
      <g>
       <use xlink:href="#mcd11d1fe70" x="374.4576" y="147.9168" style="stroke: #000000; stroke-width: 0.8"/>
      </g>
     </g>
     <g id="text_29">
      <!-- 0.6 -->
      <g transform="translate(381.4576 151.317581) scale(0.1 -0.1)">
       <use xlink:href="#Calibri-30"/>
       <use xlink:href="#Calibri-2e" x="50.683594"/>
       <use xlink:href="#Calibri-36" x="75.927734"/>
      </g>
     </g>
    </g>
    <g id="ytick_16">
     <g id="line2d_27">
      <g>
       <use xlink:href="#mcd11d1fe70" x="374.4576" y="121.3056" style="stroke: #000000; stroke-width: 0.8"/>
      </g>
     </g>
     <g id="text_30">
      <!-- 0.7 -->
      <g transform="translate(381.4576 124.706381) scale(0.1 -0.1)">
       <use xlink:href="#Calibri-30"/>
       <use xlink:href="#Calibri-2e" x="50.683594"/>
       <use xlink:href="#Calibri-37" x="75.927734"/>
      </g>
     </g>
    </g>
    <g id="ytick_17">
     <g id="line2d_28">
      <g>
       <use xlink:href="#mcd11d1fe70" x="374.4576" y="94.6944" style="stroke: #000000; stroke-width: 0.8"/>
      </g>
     </g>
     <g id="text_31">
      <!-- 0.8 -->
      <g transform="translate(381.4576 98.095181) scale(0.1 -0.1)">
       <use xlink:href="#Calibri-30"/>
       <use xlink:href="#Calibri-2e" x="50.683594"/>
       <use xlink:href="#Calibri-38" x="75.927734"/>
      </g>
     </g>
    </g>
    <g id="ytick_18">
     <g id="line2d_29">
      <g>
       <use xlink:href="#mcd11d1fe70" x="374.4576" y="68.0832" style="stroke: #000000; stroke-width: 0.8"/>
      </g>
     </g>
     <g id="text_32">
      <!-- 0.9 -->
      <g transform="translate(381.4576 71.483981) scale(0.1 -0.1)">
       <use xlink:href="#Calibri-30"/>
       <use xlink:href="#Calibri-2e" x="50.683594"/>
       <use xlink:href="#Calibri-39" x="75.927734"/>
      </g>
     </g>
    </g>
    <g id="ytick_19">
     <g id="line2d_30">
      <g>
       <use xlink:href="#mcd11d1fe70" x="374.4576" y="41.472" style="stroke: #000000; stroke-width: 0.8"/>
      </g>
     </g>
     <g id="text_33">
      <!-- 1.0 -->
      <g transform="translate(381.4576 44.872781) scale(0.1 -0.1)">
       <use xlink:href="#Calibri-31"/>
       <use xlink:href="#Calibri-2e" x="50.683594"/>
       <use xlink:href="#Calibri-30" x="75.927734"/>
      </g>
     </g>
    </g>
   </g>
   <g id="LineCollection_1"/>
   <g id="patch_8">
    <path d="M 361.152 307.584 
L 367.8048 307.584 
L 374.4576 307.584 
L 374.4576 41.472 
L 367.8048 41.472 
L 361.152 41.472 
L 361.152 307.584 
z
" style="fill: none; stroke: #000000; stroke-width: 0.8; stroke-linejoin: miter; stroke-linecap: square"/>
   </g>
   <g id="text_34">
    <!-- $\mathit{E}_{\mathrm{dis}}$/$\mathit{E}_{\mathrm{i}}$ -->
    <g transform="translate(353.2548 35.472) scale(0.1 -0.1)">
     <defs>
      <path id="DejaVuSans-Oblique-45" d="M 1081 4666 
L 4031 4666 
L 3928 4134 
L 1606 4134 
L 1338 2753 
L 3566 2753 
L 3463 2222 
L 1234 2222 
L 909 531 
L 3284 531 
L 3181 0 
L 172 0 
L 1081 4666 
z
" transform="scale(0.015625)"/>
      <path id="DejaVuSans-64" d="M 2906 2969 
L 2906 4863 
L 3481 4863 
L 3481 0 
L 2906 0 
L 2906 525 
Q 2725 213 2448 61 
Q 2172 -91 1784 -91 
Q 1150 -91 751 415 
Q 353 922 353 1747 
Q 353 2572 751 3078 
Q 1150 3584 1784 3584 
Q 2172 3584 2448 3432 
Q 2725 3281 2906 2969 
z
M 947 1747 
Q 947 1113 1208 752 
Q 1469 391 1925 391 
Q 2381 391 2643 752 
Q 2906 1113 2906 1747 
Q 2906 2381 2643 2742 
Q 2381 3103 1925 3103 
Q 1469 3103 1208 2742 
Q 947 2381 947 1747 
z
" transform="scale(0.015625)"/>
      <path id="DejaVuSans-69" d="M 603 3500 
L 1178 3500 
L 1178 0 
L 603 0 
L 603 3500 
z
M 603 4863 
L 1178 4863 
L 1178 4134 
L 603 4134 
L 603 4863 
z
" transform="scale(0.015625)"/>
      <path id="DejaVuSans-73" d="M 2834 3397 
L 2834 2853 
Q 2591 2978 2328 3040 
Q 2066 3103 1784 3103 
Q 1356 3103 1142 2972 
Q 928 2841 928 2578 
Q 928 2378 1081 2264 
Q 1234 2150 1697 2047 
L 1894 2003 
Q 2506 1872 2764 1633 
Q 3022 1394 3022 966 
Q 3022 478 2636 193 
Q 2250 -91 1575 -91 
Q 1294 -91 989 -36 
Q 684 19 347 128 
L 347 722 
Q 666 556 975 473 
Q 1284 391 1588 391 
Q 1994 391 2212 530 
Q 2431 669 2431 922 
Q 2431 1156 2273 1281 
Q 2116 1406 1581 1522 
L 1381 1569 
Q 847 1681 609 1914 
Q 372 2147 372 2553 
Q 372 3047 722 3315 
Q 1072 3584 1716 3584 
Q 2034 3584 2315 3537 
Q 2597 3491 2834 3397 
z
" transform="scale(0.015625)"/>
     </defs>
     <use xlink:href="#DejaVuSans-Oblique-45" transform="translate(0 0.09375)"/>
     <use xlink:href="#DejaVuSans-64" transform="translate(63.183594 -16.3125) scale(0.7)"/>
     <use xlink:href="#DejaVuSans-69" transform="translate(107.617188 -16.3125) scale(0.7)"/>
     <use xlink:href="#DejaVuSans-73" transform="translate(127.06543 -16.3125) scale(0.7)"/>
     <use xlink:href="#Calibri-2f" transform="translate(166.269531 0.09375)"/>
     <use xlink:href="#DejaVuSans-Oblique-45" transform="translate(204.892578 0.09375)"/>
     <use xlink:href="#DejaVuSans-69" transform="translate(268.076172 -16.3125) scale(0.7)"/>
    </g>
   </g>
  </g>
 </g>
 <defs>
  <clipPath id="p355f97bf4f">
   <rect x="57.6" y="41.472" width="285.696" height="266.112"/>
  </clipPath>
  <clipPath id="p2d751b30f8">
   <rect x="361.152" y="41.472" width="13.3056" height="266.112"/>
  </clipPath>
 </defs>
</svg>
