<?xml version="1.0" encoding="utf-8" standalone="no"?>
<!DOCTYPE svg PUBLIC "-//W3C//DTD SVG 1.1//EN"
  "http://www.w3.org/Graphics/SVG/1.1/DTD/svg11.dtd">
<svg xmlns:xlink="http://www.w3.org/1999/xlink" width="460.8pt" height="345.6pt" viewBox="0 0 460.8 345.6" xmlns="http://www.w3.org/2000/svg" version="1.1">
 <metadata>
  <rdf:RDF xmlns:dc="http://purl.org/dc/elements/1.1/" xmlns:cc="http://creativecommons.org/ns#" xmlns:rdf="http://www.w3.org/1999/02/22-rdf-syntax-ns#">
   <cc:Work>
    <dc:type rdf:resource="http://purl.org/dc/dcmitype/StillImage"/>
    <dc:date>2024-01-22T08:40:25.323763</dc:date>
    <dc:format>image/svg+xml</dc:format>
    <dc:creator>
     <cc:Agent>
      <dc:title>Matplotlib v3.7.1, https://matplotlib.org/</dc:title>
     </cc:Agent>
    </dc:creator>
   </cc:Work>
  </rdf:RDF>
 </metadata>
 <defs>
  <style type="text/css">*{stroke-linejoin: round; stroke-linecap: butt}</style>
 </defs>
 <g id="figure_1">
  <g id="patch_1">
   <path d="M 0 345.6 
L 460.8 345.6 
L 460.8 0 
L 0 0 
z
" style="fill: #ffffff"/>
  </g>
  <g id="axes_1">
   <g id="patch_2">
    <path d="M 57.6 307.584 
L 343.296 307.584 
L 343.296 41.472 
L 57.6 41.472 
z
" style="fill: #ffffff"/>
   </g>
   <g id="PathCollection_1">
    <path clip-path="url(#p3c0bce7fa9)" style="fill: #0000b6"/>
   </g>
   <g id="PathCollection_2">
    <path clip-path="url(#p3c0bce7fa9)" style="fill: #0018ff"/>
   </g>
   <g id="PathCollection_3">
    <path clip-path="url(#p3c0bce7fa9)" style="fill: #0080ff"/>
   </g>
   <g id="PathCollection_4">
    <path clip-path="url(#p3c0bce7fa9)" style="fill: #00e4f8"/>
   </g>
   <g id="PathCollection_5">
    <path d="M 57.62857 83.85637 
L 57.946707 83.038475 
L 58.14783 82.522393 
L 58.209293 82.36308 
L 58.278488 82.178941 
L 58.579951 81.3888 
L 58.725083 81.002499 
L 58.946592 80.41452 
L 59.517221 78.859095 
L 59.806742 78.0624 
L 60.373344 76.467303 
L 60.640613 75.71028 
L 60.726293 75.46469 
L 60.984637 74.736 
L 61.267947 73.893443 
L 61.313258 73.76172 
L 61.830179 72.216309 
L 62.10123 71.4096 
L 62.142345 71.284376 
L 62.867585 69.05748 
L 62.958686 68.769519 
L 63.046649 68.502064 
L 63.18131 68.0832 
L 63.455335 67.197051 
L 63.481951 67.10892 
L 63.907822 65.728692 
L 64.206258 64.7568 
L 64.618109 63.383591 
L 64.909638 62.40468 
L 65.171185 61.499074 
L 65.181975 61.462623 
L 65.191678 61.4304 
L 65.202989 61.390485 
L 65.475534 60.45612 
L 65.799621 59.310139 
L 66.138536 58.104 
L 66.512321 56.741481 
L 66.782761 55.75188 
L 66.835595 55.56319 
L 67.050588 54.7776 
L 67.286417 53.865977 
L 67.303164 53.80332 
L 67.414766 53.371856 
L 67.915727 51.4512 
L 68.05105 50.91961 
L 68.512161 49.09908 
L 68.668002 48.462496 
L 68.702901 48.326752 
L 68.75364 48.1248 
L 68.814391 47.86771 
L 68.879954 47.595443 
L 68.99057 47.15052 
L 69.121788 46.604326 
L 69.553744 44.7984 
L 69.699634 44.17316 
L 70.10159 42.44628 
L 70.155857 42.208992 
L 70.325498 41.472 
L 69.818266 41.472 
L 68.294554 41.472 
L 66.770842 41.472 
L 65.24713 41.472 
L 63.723418 41.472 
L 62.199706 41.472 
L 60.675994 41.472 
L 59.152282 41.472 
L 57.62857 41.472 
L 57.62857 44.7984 
L 57.62857 48.1248 
L 57.62857 51.4512 
L 57.62857 54.7776 
L 57.62857 58.104 
L 57.62857 61.4304 
L 57.62857 64.7568 
L 57.62857 68.0832 
L 57.62857 71.4096 
L 57.62857 74.736 
L 57.62857 78.0624 
L 57.62857 81.3888 
" clip-path="url(#p3c0bce7fa9)" style="fill: #53ffa4"/>
   </g>
   <g id="PathCollection_6">
    <path d="M 70.325498 41.472 
L 70.155857 42.208992 
L 70.10159 42.44628 
L 69.699634 44.17316 
L 69.553744 44.7984 
L 69.121788 46.604326 
L 68.99057 47.15052 
L 68.879954 47.595443 
L 68.814391 47.86771 
L 68.75364 48.1248 
L 68.702901 48.326752 
L 68.668002 48.462496 
L 68.512161 49.09908 
L 68.05105 50.91961 
L 67.915727 51.4512 
L 67.414766 53.371856 
L 67.303164 53.80332 
L 67.286417 53.865977 
L 67.050588 54.7776 
L 66.835595 55.56319 
L 66.782761 55.75188 
L 66.512321 56.741481 
L 66.138536 58.104 
L 65.799621 59.310139 
L 65.475534 60.45612 
L 65.202989 61.390485 
L 65.191678 61.4304 
L 65.181975 61.462623 
L 65.171185 61.499074 
L 64.909638 62.40468 
L 64.618109 63.383591 
L 64.206258 64.7568 
L 63.907822 65.728692 
L 63.481951 67.10892 
L 63.455335 67.197051 
L 63.18131 68.0832 
L 63.046649 68.502064 
L 62.958686 68.769519 
L 62.867585 69.05748 
L 62.142345 71.284376 
L 62.10123 71.4096 
L 61.830179 72.216309 
L 61.313258 73.76172 
L 61.267947 73.893443 
L 60.984637 74.736 
L 60.726293 75.46469 
L 60.640613 75.71028 
L 60.373344 76.467303 
L 59.806742 78.0624 
L 59.517221 78.859095 
L 58.946592 80.41452 
L 58.725083 81.002499 
L 58.579951 81.3888 
L 58.278488 82.178941 
L 58.209293 82.36308 
L 58.14783 82.522393 
L 57.946707 83.038475 
L 57.62857 83.85637 
L 57.62857 84.7152 
L 57.62857 88.0416 
L 57.62857 91.368 
L 57.62857 94.6944 
L 57.62857 98.0208 
L 57.62857 101.3472 
L 57.62857 104.6736 
L 57.62857 108 
L 57.62857 111.3264 
L 57.62857 114.6528 
L 57.62857 117.9792 
L 57.62857 121.3056 
L 57.62857 124.632 
L 57.62857 127.9584 
L 57.62857 131.2848 
L 57.62857 134.6112 
L 57.62857 137.9376 
L 57.62857 141.264 
L 57.62857 144.5904 
L 57.62857 147.9168 
L 57.62857 151.2432 
L 57.62857 154.5696 
L 57.62857 155.957319 
L 58.074271 155.546957 
L 58.075674 155.545668 
L 58.077572 155.54388 
L 58.123812 155.49961 
L 59.095869 154.5696 
L 59.123142 154.54325 
L 60.094977 153.59532 
L 60.187615 153.503425 
L 60.261347 153.428573 
L 60.958799 152.733712 
L 62.002115 151.674557 
L 62.272924 151.403042 
L 62.428721 151.2432 
L 63.508977 150.113002 
L 64.046513 149.540342 
L 64.330837 149.242851 
L 64.659619 148.89108 
L 65.414902 148.068511 
L 65.458801 148.021484 
L 65.554183 147.9168 
L 65.797194 147.644761 
L 66.430408 146.94252 
L 67.078016 146.209345 
L 68.083059 145.052113 
L 68.360962 144.735375 
L 68.485501 144.5904 
L 69.573106 143.298298 
L 70.209151 142.530258 
L 70.331633 142.384727 
L 70.452388 142.23828 
L 70.964541 141.605303 
L 71.174108 141.347022 
L 71.242165 141.264 
L 71.270518 141.228659 
L 71.28394 141.211518 
L 72.019226 140.28972 
L 72.27165 139.967158 
L 72.549233 139.605467 
L 73.058199 138.95221 
L 73.836784 137.9376 
L 74.180114 137.480707 
L 75.285113 135.982181 
L 75.489816 135.706631 
L 75.578511 135.58548 
L 75.787162 135.302475 
L 76.284815 134.6112 
L 76.732456 133.974263 
L 76.970563 133.63692 
L 77.899205 132.294216 
L 78.584964 131.2848 
L 78.877148 130.845301 
L 79.111782 130.487676 
L 79.708129 129.590458 
L 80.137823 128.93268 
L 80.659551 128.116919 
L 80.695027 128.062642 
L 80.761561 127.9584 
L 80.884614 127.760396 
L 81.124221 127.379696 
L 81.374704 126.98412 
L 81.482218 126.810654 
L 81.645361 126.543066 
L 82.20002 125.644235 
L 82.817026 124.632 
L 83.221154 123.954108 
L 84.203476 122.27988 
L 84.342041 122.038388 
L 84.766055 121.3056 
L 85.235697 120.46286 
L 85.310002 120.33132 
L 85.452787 120.073683 
L 86.468679 118.220255 
L 86.589128 118.001098 
L 86.600984 117.9792 
L 87.706435 115.890132 
L 87.844162 115.62708 
L 87.908124 115.502649 
L 88.351191 114.6528 
L 88.606062 114.148122 
L 88.748614 113.858939 
L 88.839967 113.67852 
L 89.807442 111.721365 
L 90.000013 111.3264 
L 90.822568 109.599458 
L 91.117529 108.97428 
L 91.209061 108.78266 
L 91.574185 108 
L 91.776012 107.555919 
L 91.892484 107.293351 
L 92.01473 107.02572 
L 92.870831 105.103419 
L 93.059866 104.6736 
L 93.848994 102.83599 
L 94.068081 102.32148 
L 94.169427 102.086804 
L 94.481355 101.3472 
L 94.814255 100.526928 
L 94.877816 100.37292 
L 95.775491 98.138953 
L 95.822433 98.0208 
L 96.379592 96.583842 
L 96.735308 95.66868 
L 96.751484 95.625896 
L 97.110437 94.6944 
L 97.366689 94.000977 
L 97.467967 93.72012 
L 97.615206 93.318718 
L 98.325844 91.368 
L 98.519369 90.823484 
L 99.155534 89.01588 
L 99.3186 88.538771 
L 99.386558 88.347121 
L 99.492346 88.0416 
L 99.633777 87.613814 
L 99.805154 87.104455 
L 99.8179 87.06732 
L 99.829826 87.03153 
L 99.884328 86.866477 
L 100.403803 85.301787 
L 100.59739 84.7152 
L 101.100325 83.152341 
L 101.352126 82.36308 
L 101.590259 81.593127 
L 101.655426 81.3888 
L 101.676583 81.319742 
L 101.690043 81.274705 
L 101.957976 80.41452 
L 102.329657 79.183283 
L 102.665345 78.0624 
L 103.074176 76.661758 
L 103.33993 75.734515 
L 103.33993 74.736 
L 103.33993 71.4096 
L 103.33993 68.0832 
L 103.33993 64.7568 
L 103.33993 61.4304 
L 103.33993 58.104 
L 103.33993 54.7776 
L 103.33993 51.4512 
L 103.33993 48.1248 
L 103.33993 44.7984 
L 103.33993 41.472 
L 101.816218 41.472 
L 100.292506 41.472 
L 98.768794 41.472 
L 97.245082 41.472 
L 95.72137 41.472 
L 94.197658 41.472 
L 92.673946 41.472 
L 91.150234 41.472 
L 89.626522 41.472 
L 88.10281 41.472 
L 86.579098 41.472 
L 85.055386 41.472 
L 83.531674 41.472 
L 82.007962 41.472 
L 80.48425 41.472 
L 78.960538 41.472 
L 77.436826 41.472 
L 75.913114 41.472 
L 74.389402 41.472 
L 72.86569 41.472 
L 71.341978 41.472 
" clip-path="url(#p3c0bce7fa9)" style="fill: #a4ff53"/>
   </g>
   <g id="PathCollection_7">
    <path d="M 103.33993 75.734515 
L 103.074176 76.661758 
L 102.665345 78.0624 
L 102.329657 79.183283 
L 101.957976 80.41452 
L 101.690043 81.274705 
L 101.676583 81.319742 
L 101.655426 81.3888 
L 101.590259 81.593127 
L 101.352126 82.36308 
L 101.100325 83.152341 
L 100.59739 84.7152 
L 100.403803 85.301787 
L 99.884328 86.866477 
L 99.829826 87.03153 
L 99.8179 87.06732 
L 99.805154 87.104455 
L 99.633777 87.613814 
L 99.492346 88.0416 
L 99.386558 88.347121 
L 99.3186 88.538771 
L 99.155534 89.01588 
L 98.519369 90.823484 
L 98.325844 91.368 
L 97.615206 93.318718 
L 97.467967 93.72012 
L 97.366689 94.000977 
L 97.110437 94.6944 
L 96.751484 95.625896 
L 96.735308 95.66868 
L 96.379592 96.583842 
L 95.822433 98.0208 
L 95.775491 98.138953 
L 94.877816 100.37292 
L 94.814255 100.526928 
L 94.481355 101.3472 
L 94.169427 102.086804 
L 94.068081 102.32148 
L 93.848994 102.83599 
L 93.059866 104.6736 
L 92.870831 105.103419 
L 92.01473 107.02572 
L 91.892484 107.293351 
L 91.776012 107.555919 
L 91.574185 108 
L 91.209061 108.78266 
L 91.117529 108.97428 
L 90.822568 109.599458 
L 90.000013 111.3264 
L 89.807442 111.721365 
L 88.839967 113.67852 
L 88.748614 113.858939 
L 88.606062 114.148122 
L 88.351191 114.6528 
L 87.908124 115.502649 
L 87.844162 115.62708 
L 87.706435 115.890132 
L 86.600984 117.9792 
L 86.589128 118.001098 
L 86.468679 118.220255 
L 85.452787 120.073683 
L 85.310002 120.33132 
L 85.235697 120.46286 
L 84.766055 121.3056 
L 84.342041 122.038388 
L 84.203476 122.27988 
L 83.221154 123.954108 
L 82.817026 124.632 
L 82.20002 125.644235 
L 81.645361 126.543066 
L 81.482218 126.810654 
L 81.374704 126.98412 
L 81.124221 127.379696 
L 80.884614 127.760396 
L 80.761561 127.9584 
L 80.695027 128.062642 
L 80.659551 128.116919 
L 80.137823 128.93268 
L 79.708129 129.590458 
L 79.111782 130.487676 
L 78.877148 130.845301 
L 78.584964 131.2848 
L 77.899205 132.294216 
L 76.970563 133.63692 
L 76.732456 133.974263 
L 76.284815 134.6112 
L 75.787162 135.302475 
L 75.578511 135.58548 
L 75.489816 135.706631 
L 75.285113 135.982181 
L 74.180114 137.480707 
L 73.836784 137.9376 
L 73.058199 138.95221 
L 72.549233 139.605467 
L 72.27165 139.967158 
L 72.019226 140.28972 
L 71.28394 141.211518 
L 71.270518 141.228659 
L 71.242165 141.264 
L 71.174108 141.347022 
L 70.964541 141.605303 
L 70.452388 142.23828 
L 70.331633 142.384727 
L 70.209151 142.530258 
L 69.573106 143.298298 
L 68.485501 144.5904 
L 68.360962 144.735375 
L 68.083059 145.052113 
L 67.078016 146.209345 
L 66.430408 146.94252 
L 65.797194 147.644761 
L 65.554183 147.9168 
L 65.458801 148.021484 
L 65.414902 148.068511 
L 64.659619 148.89108 
L 64.330837 149.242851 
L 64.046513 149.540342 
L 63.508977 150.113002 
L 62.428721 151.2432 
L 62.272924 151.403042 
L 62.002115 151.674557 
L 60.958799 152.733712 
L 60.261347 153.428573 
L 60.187615 153.503425 
L 60.094977 153.59532 
L 59.123142 154.54325 
L 59.095869 154.5696 
L 58.123812 155.49961 
L 58.077572 155.54388 
L 58.075674 155.545668 
L 58.074271 155.546957 
L 57.62857 155.957319 
L 57.62857 157.896 
L 57.62857 161.2224 
L 57.62857 164.5488 
L 57.62857 167.8752 
L 57.62857 171.2016 
L 57.62857 174.528 
L 57.62857 177.8544 
L 57.62857 181.1808 
L 57.62857 184.5072 
L 57.62857 187.8336 
L 57.62857 191.16 
L 57.62857 194.4864 
L 57.62857 197.8128 
L 57.62857 201.1392 
L 57.62857 202.196196 
L 58.043229 202.044439 
L 58.23329 201.970212 
L 59.521428 201.473006 
L 60.372465 201.1392 
L 61.387285 200.73741 
L 61.64086 200.633855 
L 62.799597 200.16492 
L 63.201717 200.000281 
L 63.317792 199.950629 
L 64.070337 199.641217 
L 64.492269 199.460729 
L 65.761726 198.936209 
L 66.628692 198.561989 
L 66.892241 198.452631 
L 68.274849 197.855817 
L 68.307938 197.842018 
L 68.375013 197.8128 
L 69.706488 197.223685 
L 69.951392 197.111165 
L 70.840385 196.717778 
L 72.112422 196.13085 
L 72.512643 195.952088 
L 73.286861 195.593039 
L 73.358039 195.561242 
L 73.57395 195.46068 
L 74.81784 194.873822 
L 75.000356 194.788553 
L 75.628223 194.4864 
L 76.542828 194.044265 
L 76.804044 193.914198 
L 77.619723 193.51212 
L 78.347675 193.148465 
L 78.609002 193.012751 
L 79.250952 192.690613 
L 79.949268 192.327912 
L 80.818373 191.889422 
L 81.985722 191.277212 
L 82.026299 191.256646 
L 82.210554 191.16 
L 83.272136 190.593406 
L 83.967717 190.208077 
L 84.790607 189.7645 
L 85.382747 189.43466 
L 85.708358 189.259097 
L 86.514718 188.80788 
L 87.216162 188.409675 
L 88.220152 187.8336 
L 89.073916 187.333898 
L 89.87642 186.85932 
L 90.525492 186.469733 
L 90.811601 186.291946 
L 91.419327 185.925442 
L 92.265092 185.399763 
L 92.904988 185.011587 
L 93.708195 184.5072 
L 94.14466 184.227881 
L 94.265795 184.148088 
L 95.264124 183.508991 
L 96.576484 182.640409 
L 96.856509 182.459248 
L 97.313333 182.15508 
L 98.678618 181.225397 
L 98.744398 181.1808 
L 98.758209 181.171229 
L 98.851261 181.106228 
L 100.020658 180.29279 
L 100.141281 180.20652 
L 100.66755 179.831053 
L 101.03365 179.562816 
L 102.21144 178.717205 
L 103.333974 177.885788 
L 103.33993 177.881378 
L 103.33993 177.8544 
L 103.33993 174.528 
L 103.33993 171.2016 
L 103.33993 167.8752 
L 103.33993 164.5488 
L 103.33993 161.2224 
L 103.33993 157.896 
L 103.33993 154.5696 
L 103.33993 151.2432 
L 103.33993 147.9168 
L 103.33993 144.5904 
L 103.33993 141.264 
L 103.33993 137.9376 
L 103.33993 134.6112 
L 103.33993 131.2848 
L 103.33993 127.9584 
L 103.33993 124.632 
L 103.33993 121.3056 
L 103.33993 117.9792 
L 103.33993 114.6528 
L 103.33993 111.3264 
L 103.33993 108 
L 103.33993 104.6736 
L 103.33993 101.3472 
L 103.33993 98.0208 
L 103.33993 94.6944 
L 103.33993 91.368 
L 103.33993 88.0416 
L 103.33993 84.7152 
L 103.33993 81.3888 
L 103.33993 78.0624 
" clip-path="url(#p3c0bce7fa9)" style="fill: #f8f500"/>
   </g>
   <g id="PathCollection_8">
    <path d="M 103.33993 177.881378 
L 103.333974 177.885788 
L 102.21144 178.717205 
L 101.03365 179.562816 
L 100.66755 179.831053 
L 100.141281 180.20652 
L 100.020658 180.29279 
L 98.851261 181.106228 
L 98.758209 181.171229 
L 98.744398 181.1808 
L 98.678618 181.225397 
L 97.313333 182.15508 
L 96.856509 182.459248 
L 96.576484 182.640409 
L 95.264124 183.508991 
L 94.265795 184.148088 
L 94.14466 184.227881 
L 93.708195 184.5072 
L 92.904988 185.011587 
L 92.265092 185.399763 
L 91.419327 185.925442 
L 90.811601 186.291946 
L 90.525492 186.469733 
L 89.87642 186.85932 
L 89.073916 187.333898 
L 88.220152 187.8336 
L 87.216162 188.409675 
L 86.514718 188.80788 
L 85.708358 189.259097 
L 85.382747 189.43466 
L 84.790607 189.7645 
L 83.967717 190.208077 
L 83.272136 190.593406 
L 82.210554 191.16 
L 82.026299 191.256646 
L 81.985722 191.277212 
L 80.818373 191.889422 
L 79.949268 192.327912 
L 79.250952 192.690613 
L 78.609002 193.012751 
L 78.347675 193.148465 
L 77.619723 193.51212 
L 76.804044 193.914198 
L 76.542828 194.044265 
L 75.628223 194.4864 
L 75.000356 194.788553 
L 74.81784 194.873822 
L 73.57395 195.46068 
L 73.358039 195.561242 
L 73.286861 195.593039 
L 72.512643 195.952088 
L 72.112422 196.13085 
L 70.840385 196.717778 
L 69.951392 197.111165 
L 69.706488 197.223685 
L 68.375013 197.8128 
L 68.307938 197.842018 
L 68.274849 197.855817 
L 66.892241 198.452631 
L 66.628692 198.561989 
L 65.761726 198.936209 
L 64.492269 199.460729 
L 64.070337 199.641217 
L 63.317792 199.950629 
L 63.201717 200.000281 
L 62.799597 200.16492 
L 61.64086 200.633855 
L 61.387285 200.73741 
L 60.372465 201.1392 
L 59.521428 201.473006 
L 58.23329 201.970212 
L 58.043229 202.044439 
L 57.62857 202.196196 
L 57.62857 204.4656 
L 57.62857 207.792 
L 57.62857 211.1184 
L 57.62857 214.4448 
L 57.62857 217.7712 
L 57.62857 221.0976 
L 57.62857 224.424 
L 57.62857 227.7504 
L 57.62857 231.0768 
L 57.62857 234.4032 
L 57.62857 237.7296 
L 57.62857 238.557793 
L 57.782871 238.542837 
L 58.836192 238.419652 
L 59.439552 238.356737 
L 60.582532 238.222186 
L 60.765819 238.203018 
L 62.052184 238.051654 
L 62.333699 238.02212 
L 63.698591 237.860447 
L 63.747272 237.855325 
L 64.809129 237.7296 
L 65.224435 237.680056 
L 65.272773 237.673618 
L 66.727073 237.498922 
L 66.816887 237.48692 
L 68.112141 237.331377 
L 68.500837 237.279264 
L 69.705187 237.133623 
L 69.937269 237.1024 
L 70.996046 236.9744 
L 71.733506 236.874858 
L 72.681611 236.759425 
L 73.059479 236.708242 
L 73.876025 236.608854 
L 74.97094 236.46005 
L 75.656292 236.376033 
L 76.183581 236.304118 
L 76.751952 236.234459 
L 78.213306 236.034474 
L 78.629168 235.983137 
L 79.309639 235.88968 
L 79.62369 235.85092 
L 81.460781 235.597744 
L 81.600181 235.580414 
L 82.437723 235.464567 
L 82.491099 235.457932 
L 83.070731 235.37748 
L 84.403066 235.19117 
L 84.96662 235.112866 
L 85.954379 234.968111 
L 87.035395 234.815814 
L 89.53418 234.448868 
L 89.583853 234.441784 
L 89.657612 234.431314 
L 89.847613 234.4032 
L 92.272633 234.040307 
L 93.242263 233.88929 
L 94.347155 233.72357 
L 94.877171 233.63982 
L 96.220658 233.42892 
L 96.759692 233.343552 
L 96.816882 233.333602 
L 97.648201 233.201419 
L 97.80834 233.173556 
L 99.59832 232.88773 
L 99.960975 232.824114 
L 100.604461 232.720946 
L 101.103166 232.633456 
L 102.431309 232.419599 
L 103.107857 232.299927 
L 103.33993 232.259281 
L 103.33993 231.0768 
L 103.33993 227.7504 
L 103.33993 224.424 
L 103.33993 221.0976 
L 103.33993 217.7712 
L 103.33993 214.4448 
L 103.33993 211.1184 
L 103.33993 207.792 
L 103.33993 204.4656 
L 103.33993 201.1392 
L 103.33993 197.8128 
L 103.33993 194.4864 
L 103.33993 191.16 
L 103.33993 187.8336 
L 103.33993 184.5072 
L 103.33993 181.1808 
" clip-path="url(#p3c0bce7fa9)" style="fill: #ff9400"/>
   </g>
   <g id="PathCollection_9">
    <path d="M 103.33993 232.259281 
L 103.107857 232.299927 
L 102.431309 232.419599 
L 101.103166 232.633456 
L 100.604461 232.720946 
L 99.960975 232.824114 
L 99.59832 232.88773 
L 97.80834 233.173556 
L 97.648201 233.201419 
L 96.816882 233.333602 
L 96.759692 233.343552 
L 96.220658 233.42892 
L 94.877171 233.63982 
L 94.347155 233.72357 
L 93.242263 233.88929 
L 92.272633 234.040307 
L 89.847613 234.4032 
L 89.657612 234.431314 
L 89.583853 234.441784 
L 89.53418 234.448868 
L 87.035395 234.815814 
L 85.954379 234.968111 
L 84.96662 235.112866 
L 84.403066 235.19117 
L 83.070731 235.37748 
L 82.491099 235.457932 
L 82.437723 235.464567 
L 81.600181 235.580414 
L 81.460781 235.597744 
L 79.62369 235.85092 
L 79.309639 235.88968 
L 78.629168 235.983137 
L 78.213306 236.034474 
L 76.751952 236.234459 
L 76.183581 236.304118 
L 75.656292 236.376033 
L 74.97094 236.46005 
L 73.876025 236.608854 
L 73.059479 236.708242 
L 72.681611 236.759425 
L 71.733506 236.874858 
L 70.996046 236.9744 
L 69.937269 237.1024 
L 69.705187 237.133623 
L 68.500837 237.279264 
L 68.112141 237.331377 
L 66.816887 237.48692 
L 66.727073 237.498922 
L 65.272773 237.673618 
L 65.224435 237.680056 
L 64.809129 237.7296 
L 63.747272 237.855325 
L 63.698591 237.860447 
L 62.333699 238.02212 
L 62.052184 238.051654 
L 60.765819 238.203018 
L 60.582532 238.222186 
L 59.439552 238.356737 
L 58.836192 238.419652 
L 57.782871 238.542837 
L 57.62857 238.557793 
L 57.62857 241.056 
L 57.62857 244.3824 
L 57.62857 247.7088 
L 57.62857 251.0352 
L 57.62857 254.3616 
L 57.62857 257.688 
L 57.62857 261.0144 
L 57.62857 264.3408 
L 57.62857 267.6672 
L 57.62857 270.9936 
L 57.62857 271.732597 
L 57.769975 271.738871 
L 58.790594 271.783196 
L 59.531726 271.821961 
L 60.51068 271.864875 
L 60.844644 271.882461 
L 61.773802 271.923385 
L 62.646808 271.969664 
L 63.530765 272.008966 
L 63.920012 272.02974 
L 64.755414 272.067058 
L 65.763661 272.121234 
L 66.550158 272.156702 
L 66.996103 272.180827 
L 67.735381 272.214324 
L 68.882343 272.276797 
L 69.568837 272.308201 
L 70.07294 272.335846 
L 70.71365 272.365295 
L 72.002915 272.436486 
L 72.586779 272.46358 
L 73.150547 272.494925 
L 73.690169 272.520087 
L 75.12544 272.600439 
L 75.603962 272.622968 
L 76.22895 272.6582 
L 76.664882 272.678823 
L 78.249986 272.768802 
L 78.620359 272.786495 
L 79.308177 272.825812 
L 79.637729 272.841631 
L 81.376622 272.941729 
L 81.635944 272.954299 
L 82.388254 272.99791 
L 82.608649 273.008645 
L 84.505421 273.119379 
L 84.65069 273.126525 
L 85.469212 273.174649 
L 85.577579 273.180006 
L 87.636461 273.301919 
L 87.664569 273.303323 
L 88.375491 273.34572 
L 88.561451 273.356893 
L 90.558766 273.477003 
L 91.030828 273.507381 
L 91.829086 273.556023 
L 93.412045 273.652562 
L 93.956325 273.685788 
L 95.103067 273.76089 
L 96.260498 273.832485 
L 98.018253 273.948813 
L 98.383643 273.971721 
L 99.103962 274.016919 
L 101.533093 274.179978 
L 101.671078 274.188755 
L 101.942267 274.206018 
L 103.331018 274.300545 
L 103.33993 274.301111 
L 103.33993 270.9936 
L 103.33993 267.6672 
L 103.33993 264.3408 
L 103.33993 261.0144 
L 103.33993 257.688 
L 103.33993 254.3616 
L 103.33993 251.0352 
L 103.33993 247.7088 
L 103.33993 244.3824 
L 103.33993 241.056 
L 103.33993 237.7296 
L 103.33993 234.4032 
" clip-path="url(#p3c0bce7fa9)" style="fill: #ff3800"/>
   </g>
   <g id="PathCollection_10">
    <path d="M 103.33993 274.301111 
L 103.331018 274.300545 
L 101.942267 274.206018 
L 101.671078 274.188755 
L 101.533093 274.179978 
L 99.103962 274.016919 
L 98.383643 273.971721 
L 98.018253 273.948813 
L 96.260498 273.832485 
L 95.103067 273.76089 
L 93.956325 273.685788 
L 93.412045 273.652562 
L 91.829086 273.556023 
L 91.030828 273.507381 
L 90.558766 273.477003 
L 88.561451 273.356893 
L 88.375491 273.34572 
L 87.664569 273.303323 
L 87.636461 273.301919 
L 85.577579 273.180006 
L 85.469212 273.174649 
L 84.65069 273.126525 
L 84.505421 273.119379 
L 82.608649 273.008645 
L 82.388254 272.99791 
L 81.635944 272.954299 
L 81.376622 272.941729 
L 79.637729 272.841631 
L 79.308177 272.825812 
L 78.620359 272.786495 
L 78.249986 272.768802 
L 76.664882 272.678823 
L 76.22895 272.6582 
L 75.603962 272.622968 
L 75.12544 272.600439 
L 73.690169 272.520087 
L 73.150547 272.494925 
L 72.586779 272.46358 
L 72.002915 272.436486 
L 70.71365 272.365295 
L 70.07294 272.335846 
L 69.568837 272.308201 
L 68.882343 272.276797 
L 67.735381 272.214324 
L 66.996103 272.180827 
L 66.550158 272.156702 
L 65.763661 272.121234 
L 64.755414 272.067058 
L 63.920012 272.02974 
L 63.530765 272.008966 
L 62.646808 271.969664 
L 61.773802 271.923385 
L 60.844644 271.882461 
L 60.51068 271.864875 
L 59.531726 271.821961 
L 58.790594 271.783196 
L 57.769975 271.738871 
L 57.62857 271.732597 
L 57.62857 274.32 
L 57.62857 277.6464 
L 57.62857 280.9728 
L 57.62857 284.2992 
L 57.62857 287.6256 
L 57.62857 290.952 
L 57.62857 294.2784 
L 57.62857 297.6048 
L 57.62857 300.9312 
L 57.62857 304.2576 
L 57.62857 307.584 
L 59.152282 307.584 
L 60.675994 307.584 
L 62.199706 307.584 
L 63.723418 307.584 
L 65.24713 307.584 
L 66.770842 307.584 
L 68.294554 307.584 
L 69.818266 307.584 
L 71.341978 307.584 
L 72.86569 307.584 
L 74.389402 307.584 
L 75.913114 307.584 
L 77.436826 307.584 
L 78.960538 307.584 
L 80.48425 307.584 
L 82.007962 307.584 
L 83.531674 307.584 
L 85.055386 307.584 
L 86.579098 307.584 
L 88.10281 307.584 
L 89.626522 307.584 
L 91.150234 307.584 
L 92.673946 307.584 
L 94.197658 307.584 
L 95.72137 307.584 
L 97.245082 307.584 
L 98.768794 307.584 
L 100.292506 307.584 
L 101.816218 307.584 
L 103.33993 307.584 
L 103.33993 304.2576 
L 103.33993 300.9312 
L 103.33993 297.6048 
L 103.33993 294.2784 
L 103.33993 290.952 
L 103.33993 287.6256 
L 103.33993 284.2992 
L 103.33993 280.9728 
L 103.33993 277.6464 
L 103.33993 274.32 
" clip-path="url(#p3c0bce7fa9)" style="fill: #b60000"/>
   </g>
   <g id="PathCollection_11">
    <path clip-path="url(#p3c0bce7fa9)" style="fill: #0000b6"/>
   </g>
   <g id="PathCollection_12">
    <path clip-path="url(#p3c0bce7fa9)" style="fill: #0018ff"/>
   </g>
   <g id="PathCollection_13">
    <path clip-path="url(#p3c0bce7fa9)" style="fill: #0080ff"/>
   </g>
   <g id="PathCollection_14">
    <path clip-path="url(#p3c0bce7fa9)" style="fill: #00e4f8"/>
   </g>
   <g id="PathCollection_15">
    <path clip-path="url(#p3c0bce7fa9)" style="fill: #53ffa4"/>
   </g>
   <g id="PathCollection_16">
    <path d="M 100.4544 85.124236 
L 102.371625 79.054544 
L 103.031779 76.9536 
L 103.646369 74.728213 
L 103.764136 74.35552 
L 104.121543 72.935051 
L 105.476199 68.0832 
L 106.139079 65.442216 
L 107.079986 61.81088 
L 107.49362 59.691897 
L 107.616844 59.2128 
L 107.701412 58.82802 
L 108.28442 56.61472 
L 109.360853 51.231918 
L 109.548325 50.3424 
L 109.803942 48.967334 
L 110.852381 44.07008 
L 111.071657 42.616994 
L 111.297709 41.472 
L 108.54912 41.472 
L 100.4544 41.472 
L 100.4544 50.3424 
L 100.4544 59.2128 
L 100.4544 68.0832 
L 100.4544 76.9536 
" clip-path="url(#p3c0bce7fa9)" style="fill: #a4ff53"/>
   </g>
   <g id="PathCollection_17">
    <path d="M 111.297709 41.472 
L 111.071657 42.616994 
L 110.852381 44.07008 
L 109.803942 48.967334 
L 109.548325 50.3424 
L 109.360853 51.231918 
L 108.28442 56.61472 
L 107.701412 58.82802 
L 107.616844 59.2128 
L 107.49362 59.691897 
L 107.079986 61.81088 
L 106.139079 65.442216 
L 105.476199 68.0832 
L 104.121543 72.935051 
L 103.764136 74.35552 
L 103.646369 74.728213 
L 103.031779 76.9536 
L 102.371625 79.054544 
L 100.4544 85.124236 
L 100.4544 85.824 
L 100.4544 94.6944 
L 100.4544 103.5648 
L 100.4544 112.4352 
L 100.4544 121.3056 
L 100.4544 130.176 
L 100.4544 139.0464 
L 100.4544 147.9168 
L 100.4544 156.7872 
L 100.4544 165.6576 
L 100.4544 174.528 
L 100.4544 179.908278 
L 102.073654 178.811828 
L 107.662049 174.528 
L 108.170923 174.113562 
L 112.016228 170.728655 
L 114.420856 168.64697 
L 114.847714 168.25568 
L 115.792385 167.455735 
L 117.691798 165.6576 
L 119.051083 164.245688 
L 119.768357 163.401596 
L 120.101716 163.05952 
L 125.223748 157.318881 
L 125.668974 156.7872 
L 130.491038 150.590666 
L 130.547797 150.51488 
L 131.346677 149.55726 
L 132.570972 147.9168 
L 133.717186 146.12672 
L 134.17043 145.31872 
L 134.821224 144.305617 
L 138.104854 139.0464 
L 139.1968 137.149307 
L 141.625007 132.77408 
L 142.528058 130.902275 
L 142.701163 130.616187 
L 142.939291 130.176 
L 143.161518 129.621531 
L 143.419431 129.045125 
L 144.189784 127.57792 
L 145.007916 125.776476 
L 146.990398 121.3056 
L 148.040328 118.706626 
L 149.510227 115.03328 
L 149.83588 114.242842 
L 150.653477 112.4352 
L 151.404571 109.842096 
L 151.406476 109.83712 
L 151.41326 109.815586 
L 153.555369 103.5648 
L 154.455722 100.648021 
L 155.49916 97.29248 
L 156.010831 95.196696 
L 156.188216 94.6944 
L 156.268567 94.309092 
L 156.949297 92.09632 
L 158.182729 86.991371 
L 158.47236 85.824 
L 158.90106 83.869464 
L 159.973107 79.55168 
L 160.192892 78.349565 
L 160.372483 77.761662 
L 160.594262 76.9536 
L 160.706741 76.062558 
L 160.826181 75.270181 
L 161.05654 74.35552 
L 161.36 72.732305 
L 162.27919 68.0832 
L 163.196287 62.750093 
L 163.363646 61.81088 
L 163.394192 61.673618 
L 163.997736 59.2128 
L 164.143821 57.468506 
L 164.232484 56.61472 
L 165.156159 50.490553 
L 165.179782 50.3424 
L 165.188348 50.279404 
L 166.078636 44.07008 
L 166.262542 42.623035 
L 166.435033 41.472 
L 165.21216 41.472 
L 157.11744 41.472 
L 149.02272 41.472 
L 140.928 41.472 
L 132.83328 41.472 
L 124.73856 41.472 
L 116.64384 41.472 
" clip-path="url(#p3c0bce7fa9)" style="fill: #f8f500"/>
   </g>
   <g id="PathCollection_18">
    <path d="M 166.435033 41.472 
L 166.262542 42.623035 
L 166.078636 44.07008 
L 165.188348 50.279404 
L 165.179782 50.3424 
L 165.156159 50.490553 
L 164.232484 56.61472 
L 164.143821 57.468506 
L 163.997736 59.2128 
L 163.394192 61.673618 
L 163.363646 61.81088 
L 163.196287 62.750093 
L 162.27919 68.0832 
L 161.36 72.732305 
L 161.05654 74.35552 
L 160.826181 75.270181 
L 160.706741 76.062558 
L 160.594262 76.9536 
L 160.372483 77.761662 
L 160.192892 78.349565 
L 159.973107 79.55168 
L 158.90106 83.869464 
L 158.47236 85.824 
L 158.182729 86.991371 
L 156.949297 92.09632 
L 156.268567 94.309092 
L 156.188216 94.6944 
L 156.010831 95.196696 
L 155.49916 97.29248 
L 154.455722 100.648021 
L 153.555369 103.5648 
L 151.41326 109.815586 
L 151.406476 109.83712 
L 151.404571 109.842096 
L 150.653477 112.4352 
L 149.83588 114.242842 
L 149.510227 115.03328 
L 148.040328 118.706626 
L 146.990398 121.3056 
L 145.007916 125.776476 
L 144.189784 127.57792 
L 143.419431 129.045125 
L 143.161518 129.621531 
L 142.939291 130.176 
L 142.701163 130.616187 
L 142.528058 130.902275 
L 141.625007 132.77408 
L 139.1968 137.149307 
L 138.104854 139.0464 
L 134.821224 144.305617 
L 134.17043 145.31872 
L 133.717186 146.12672 
L 132.570972 147.9168 
L 131.346677 149.55726 
L 130.547797 150.51488 
L 130.491038 150.590666 
L 125.668974 156.7872 
L 125.223748 157.318881 
L 120.101716 163.05952 
L 119.768357 163.401596 
L 119.051083 164.245688 
L 117.691798 165.6576 
L 115.792385 167.455735 
L 114.847714 168.25568 
L 114.420856 168.64697 
L 112.016228 170.728655 
L 108.170923 174.113562 
L 107.662049 174.528 
L 102.073654 178.811828 
L 100.4544 179.908278 
L 100.4544 183.3984 
L 100.4544 192.2688 
L 100.4544 201.1392 
L 100.4544 210.0096 
L 100.4544 218.88 
L 100.4544 227.7504 
L 100.4544 232.696169 
L 102.231226 232.451094 
L 104.70766 231.95997 
L 111.402685 230.877409 
L 115.807345 229.963396 
L 117.381888 229.702949 
L 124.261319 228.273373 
L 125.087709 228.133007 
L 126.841927 227.7504 
L 132.357588 226.49193 
L 133.419063 226.200678 
L 138.460161 225.046079 
L 145.102926 223.17541 
L 147.109818 222.68971 
L 151.276598 221.47808 
L 151.331662 221.462702 
L 151.664577 221.355086 
L 158.111673 219.331288 
L 158.486497 219.219868 
L 159.470678 218.88 
L 165.204829 216.868671 
L 166.64057 216.28192 
L 167.462117 215.961988 
L 168.156189 215.653858 
L 175.673584 212.603094 
L 181.135656 210.0096 
L 181.358839 209.896474 
L 181.467667 209.834815 
L 186.831071 207.088952 
L 192.537517 203.73728 
L 193.661075 203.029606 
L 194.696344 202.430102 
L 196.631265 201.1392 
L 200.080185 198.594797 
L 200.152777 198.54112 
L 206.656354 193.332402 
L 207.843322 192.2688 
L 212.186169 188.050959 
L 214.153978 185.99648 
L 214.920911 185.124797 
L 216.58649 183.3984 
L 217.965832 181.623915 
L 218.641743 180.80032 
L 222.640705 175.36686 
L 223.209381 174.528 
L 226.004021 170.003533 
L 227.119024 168.25568 
L 227.216178 168.0819 
L 227.853862 167.141799 
L 228.727504 165.6576 
L 229.591652 163.741996 
L 229.942826 163.05952 
L 231.295134 160.293129 
L 232.952287 156.7872 
L 234.579026 152.967575 
L 235.577835 150.51488 
L 236.161376 148.780702 
L 236.544426 147.9168 
L 236.728686 147.310403 
L 237.495538 145.31872 
L 239.11429 140.196633 
L 239.468278 139.0464 
L 240.06465 136.854738 
L 241.303262 132.77408 
L 241.54383 131.755225 
L 241.776353 131.09743 
L 242.05964 130.176 
L 242.231043 129.141693 
L 242.421899 128.198215 
L 242.605027 127.57792 
L 242.84238 126.541168 
L 244.048228 121.3056 
L 244.779081 117.653993 
L 245.309378 115.03328 
L 245.402782 114.632528 
L 245.983383 112.4352 
L 246.218273 110.440316 
L 246.271253 109.83712 
L 246.962798 105.690342 
L 247.32609 103.5648 
L 248.049933 98.563183 
L 248.245632 97.29248 
L 248.472184 96.129752 
L 248.787724 94.6944 
L 248.881572 93.360679 
L 248.933108 92.27918 
L 248.963178 92.09632 
L 249.01736 91.562531 
L 249.775828 85.824 
L 250.252358 81.438812 
L 250.483738 79.55168 
L 250.538103 78.640303 
L 250.8384 76.9536 
L 250.868084 76.113029 
L 250.880475 75.422301 
L 251.025887 74.35552 
L 251.24474 71.380911 
L 251.586329 68.0832 
L 251.806343 65.400907 
L 252.160914 61.81088 
L 252.221004 60.135625 
L 252.365041 59.2128 
L 252.367525 58.356482 
L 252.568717 56.61472 
L 252.816385 51.917863 
L 252.945894 50.3424 
L 253.029191 49.000135 
L 253.428115 44.07008 
L 253.468226 41.828704 
L 253.497586 41.472 
L 246.15936 41.472 
L 238.06464 41.472 
L 229.96992 41.472 
L 221.8752 41.472 
L 213.78048 41.472 
L 205.68576 41.472 
L 197.59104 41.472 
L 189.49632 41.472 
L 181.4016 41.472 
L 173.30688 41.472 
" clip-path="url(#p3c0bce7fa9)" style="fill: #ff9400"/>
   </g>
   <g id="PathCollection_19">
    <path d="M 253.497586 41.472 
L 253.468226 41.828704 
L 253.428115 44.07008 
L 253.029191 49.000135 
L 252.945894 50.3424 
L 252.816385 51.917863 
L 252.568717 56.61472 
L 252.367525 58.356482 
L 252.365041 59.2128 
L 252.221004 60.135625 
L 252.160914 61.81088 
L 251.806343 65.400907 
L 251.586329 68.0832 
L 251.24474 71.380911 
L 251.025887 74.35552 
L 250.880475 75.422301 
L 250.868084 76.113029 
L 250.8384 76.9536 
L 250.538103 78.640303 
L 250.483738 79.55168 
L 250.252358 81.438812 
L 249.775828 85.824 
L 249.01736 91.562531 
L 248.963178 92.09632 
L 248.933108 92.27918 
L 248.881572 93.360679 
L 248.787724 94.6944 
L 248.472184 96.129752 
L 248.245632 97.29248 
L 248.049933 98.563183 
L 247.32609 103.5648 
L 246.962798 105.690342 
L 246.271253 109.83712 
L 246.218273 110.440316 
L 245.983383 112.4352 
L 245.402782 114.632528 
L 245.309378 115.03328 
L 244.779081 117.653993 
L 244.048228 121.3056 
L 242.84238 126.541168 
L 242.605027 127.57792 
L 242.421899 128.198215 
L 242.231043 129.141693 
L 242.05964 130.176 
L 241.776353 131.09743 
L 241.54383 131.755225 
L 241.303262 132.77408 
L 240.06465 136.854738 
L 239.468278 139.0464 
L 239.11429 140.196633 
L 237.495538 145.31872 
L 236.728686 147.310403 
L 236.544426 147.9168 
L 236.161376 148.780702 
L 235.577835 150.51488 
L 234.579026 152.967575 
L 232.952287 156.7872 
L 231.295134 160.293129 
L 229.942826 163.05952 
L 229.591652 163.741996 
L 228.727504 165.6576 
L 227.853862 167.141799 
L 227.216178 168.0819 
L 227.119024 168.25568 
L 226.004021 170.003533 
L 223.209381 174.528 
L 222.640705 175.36686 
L 218.641743 180.80032 
L 217.965832 181.623915 
L 216.58649 183.3984 
L 214.920911 185.124797 
L 214.153978 185.99648 
L 212.186169 188.050959 
L 207.843322 192.2688 
L 206.656354 193.332402 
L 200.152777 198.54112 
L 200.080185 198.594797 
L 196.631265 201.1392 
L 194.696344 202.430102 
L 193.661075 203.029606 
L 192.537517 203.73728 
L 186.831071 207.088952 
L 181.467667 209.834815 
L 181.358839 209.896474 
L 181.135656 210.0096 
L 175.673584 212.603094 
L 168.156189 215.653858 
L 167.462117 215.961988 
L 166.64057 216.28192 
L 165.204829 216.868671 
L 159.470678 218.88 
L 158.486497 219.219868 
L 158.111673 219.331288 
L 151.664577 221.355086 
L 151.331662 221.462702 
L 151.276598 221.47808 
L 147.109818 222.68971 
L 145.102926 223.17541 
L 138.460161 225.046079 
L 133.419063 226.200678 
L 132.357588 226.49193 
L 126.841927 227.7504 
L 125.087709 228.133007 
L 124.261319 228.273373 
L 117.381888 229.702949 
L 115.807345 229.963396 
L 111.402685 230.877409 
L 104.70766 231.95997 
L 102.231226 232.451094 
L 100.4544 232.696169 
L 100.4544 236.6208 
L 100.4544 245.4912 
L 100.4544 254.3616 
L 100.4544 263.232 
L 100.4544 272.1024 
L 100.4544 274.110515 
L 102.406497 274.241557 
L 103.672572 274.315893 
L 109.044844 274.70048 
L 113.952501 275.051637 
L 114.423335 275.098328 
L 118.743094 275.419104 
L 119.765228 275.522897 
L 129.05776 276.239711 
L 131.128028 276.46146 
L 134.438131 276.727077 
L 137.344894 277.046341 
L 144.003304 277.602804 
L 147.921147 278.058527 
L 150.054005 278.244476 
L 155.187399 278.857812 
L 158.751265 279.182413 
L 164.827404 279.954907 
L 165.570149 280.02572 
L 172.807647 280.9728 
L 173.254667 281.030016 
L 173.377531 281.050221 
L 180.98075 282.086184 
L 181.881173 282.241539 
L 187.605666 283.044627 
L 192.137852 283.867458 
L 196.262407 284.487774 
L 199.126996 285.036257 
L 201.62371 285.424098 
L 210.609721 287.24512 
L 211.167179 287.355153 
L 213.688824 287.856445 
L 221.433779 289.642836 
L 222.026518 289.774516 
L 222.092446 289.789269 
L 222.29741 289.8432 
L 232.364133 292.430693 
L 232.40023 292.44128 
L 241.450003 295.003834 
L 245.263006 296.342245 
L 246.870314 296.832732 
L 251.958719 298.7136 
L 253.696378 299.324744 
L 255.532254 300.114255 
L 261.003444 302.272817 
L 264.276893 303.81448 
L 265.370925 304.272279 
L 266.735774 304.98592 
L 271.233041 307.225632 
L 271.858176 307.584 
L 278.53824 307.584 
L 286.63296 307.584 
L 294.72768 307.584 
L 302.8224 307.584 
L 310.91712 307.584 
L 319.01184 307.584 
L 327.10656 307.584 
L 335.20128 307.584 
L 343.296 307.584 
L 343.296 298.7136 
L 343.296 289.8432 
L 343.296 280.9728 
L 343.296 272.1024 
L 343.296 263.232 
L 343.296 254.3616 
L 343.296 245.4912 
L 343.296 236.6208 
L 343.296 227.7504 
L 343.296 218.88 
L 343.296 210.0096 
L 343.296 201.1392 
L 343.296 192.2688 
L 343.296 183.3984 
L 343.296 174.528 
L 343.296 165.6576 
L 343.296 156.7872 
L 343.296 147.9168 
L 343.296 139.0464 
L 343.296 130.176 
L 343.296 121.3056 
L 343.296 112.4352 
L 343.296 103.5648 
L 343.296 94.6944 
L 343.296 85.824 
L 343.296 76.9536 
L 343.296 68.0832 
L 343.296 59.2128 
L 343.296 50.3424 
L 343.296 41.472 
L 335.20128 41.472 
L 327.10656 41.472 
L 319.01184 41.472 
L 310.91712 41.472 
L 302.8224 41.472 
L 294.72768 41.472 
L 286.63296 41.472 
L 278.53824 41.472 
L 270.44352 41.472 
L 262.3488 41.472 
L 254.25408 41.472 
" clip-path="url(#p3c0bce7fa9)" style="fill: #ff3800"/>
   </g>
   <g id="PathCollection_20">
    <path d="M 271.858176 307.584 
L 271.233041 307.225632 
L 266.735774 304.98592 
L 265.370925 304.272279 
L 264.276893 303.81448 
L 261.003444 302.272817 
L 255.532254 300.114255 
L 253.696378 299.324744 
L 251.958719 298.7136 
L 246.870314 296.832732 
L 245.263006 296.342245 
L 241.450003 295.003834 
L 232.40023 292.44128 
L 232.364133 292.430693 
L 222.29741 289.8432 
L 222.092446 289.789269 
L 222.026518 289.774516 
L 221.433779 289.642836 
L 213.688824 287.856445 
L 211.167179 287.355153 
L 210.609721 287.24512 
L 201.62371 285.424098 
L 199.126996 285.036257 
L 196.262407 284.487774 
L 192.137852 283.867458 
L 187.605666 283.044627 
L 181.881173 282.241539 
L 180.98075 282.086184 
L 173.377531 281.050221 
L 173.254667 281.030016 
L 172.807647 280.9728 
L 165.570149 280.02572 
L 164.827404 279.954907 
L 158.751265 279.182413 
L 155.187399 278.857812 
L 150.054005 278.244476 
L 147.921147 278.058527 
L 144.003304 277.602804 
L 137.344894 277.046341 
L 134.438131 276.727077 
L 131.128028 276.46146 
L 129.05776 276.239711 
L 119.765228 275.522897 
L 118.743094 275.419104 
L 114.423335 275.098328 
L 113.952501 275.051637 
L 109.044844 274.70048 
L 103.672572 274.315893 
L 102.406497 274.241557 
L 100.4544 274.110515 
L 100.4544 280.9728 
L 100.4544 289.8432 
L 100.4544 298.7136 
L 100.4544 307.584 
L 108.54912 307.584 
L 116.64384 307.584 
L 124.73856 307.584 
L 132.83328 307.584 
L 140.928 307.584 
L 149.02272 307.584 
L 157.11744 307.584 
L 165.21216 307.584 
L 173.30688 307.584 
L 181.4016 307.584 
L 189.49632 307.584 
L 197.59104 307.584 
L 205.68576 307.584 
L 213.78048 307.584 
L 221.8752 307.584 
L 229.96992 307.584 
L 238.06464 307.584 
L 246.15936 307.584 
L 254.25408 307.584 
L 262.3488 307.584 
L 270.44352 307.584 
" clip-path="url(#p3c0bce7fa9)" style="fill: #b60000"/>
   </g>
   <g id="matplotlib.axis_1">
    <g id="xtick_1">
     <g id="line2d_1">
      <defs>
       <path id="mcf8182cc22" d="M 0 0 
L 0 3.5 
" style="stroke: #000000; stroke-width: 0.8"/>
      </defs>
      <g>
       <use xlink:href="#mcf8182cc22" x="57.6" y="307.584" style="stroke: #000000; stroke-width: 0.8"/>
      </g>
     </g>
     <g id="text_1">
      <!-- 0.0 -->
      <g transform="translate(51.26875 321.385562) scale(0.1 -0.1)">
       <defs>
        <path id="Calibri-30" d="M 3022 2031 
Q 3022 1566 2948 1181 
Q 2875 797 2704 520 
Q 2534 244 2259 92 
Q 1984 -59 1581 -59 
Q 1200 -59 939 77 
Q 678 213 518 477 
Q 359 741 292 1127 
Q 225 1513 225 2013 
Q 225 2475 300 2861 
Q 375 3247 544 3523 
Q 713 3800 988 3951 
Q 1263 4103 1663 4103 
Q 2047 4103 2308 3967 
Q 2569 3831 2728 3567 
Q 2888 3303 2955 2917 
Q 3022 2531 3022 2031 
z
M 2472 1994 
Q 2472 2297 2450 2537 
Q 2428 2778 2386 2962 
Q 2344 3147 2276 3280 
Q 2209 3413 2115 3498 
Q 2022 3584 1901 3623 
Q 1781 3663 1631 3663 
Q 1366 3663 1200 3538 
Q 1034 3413 939 3194 
Q 844 2975 809 2681 
Q 775 2388 775 2050 
Q 775 1597 822 1280 
Q 869 963 970 763 
Q 1072 563 1230 472 
Q 1388 381 1613 381 
Q 1788 381 1920 437 
Q 2053 494 2148 598 
Q 2244 703 2306 850 
Q 2369 997 2406 1175 
Q 2444 1353 2458 1561 
Q 2472 1769 2472 1994 
z
" transform="scale(0.015625)"/>
        <path id="Calibri-2e" d="M 1144 341 
Q 1144 119 1070 45 
Q 997 -28 803 -28 
Q 616 -28 544 44 
Q 472 116 472 331 
Q 472 553 545 626 
Q 619 700 813 700 
Q 1000 700 1072 628 
Q 1144 556 1144 341 
z
" transform="scale(0.015625)"/>
       </defs>
       <use xlink:href="#Calibri-30"/>
       <use xlink:href="#Calibri-2e" x="50.683594"/>
       <use xlink:href="#Calibri-30" x="75.927734"/>
      </g>
     </g>
    </g>
    <g id="xtick_2">
     <g id="line2d_2">
      <g>
       <use xlink:href="#mcf8182cc22" x="86.1696" y="307.584" style="stroke: #000000; stroke-width: 0.8"/>
      </g>
     </g>
     <g id="text_2">
      <!-- 0.1 -->
      <g transform="translate(79.83835 321.385562) scale(0.1 -0.1)">
       <defs>
        <path id="Calibri-31" d="M 2897 213 
Q 2897 153 2887 112 
Q 2878 72 2862 47 
Q 2847 22 2826 11 
Q 2806 0 2784 0 
L 672 0 
Q 650 0 631 11 
Q 613 22 595 47 
Q 578 72 568 112 
Q 559 153 559 213 
Q 559 269 568 309 
Q 578 350 592 376 
Q 606 403 626 417 
Q 647 431 672 431 
L 1516 431 
L 1516 3506 
L 734 3041 
Q 675 3009 639 3003 
Q 603 2997 581 3017 
Q 559 3038 551 3084 
Q 544 3131 544 3203 
Q 544 3256 548 3293 
Q 553 3331 562 3356 
Q 572 3381 589 3400 
Q 606 3419 634 3438 
L 1566 4034 
Q 1578 4044 1597 4050 
Q 1616 4056 1644 4062 
Q 1672 4069 1709 4070 
Q 1747 4072 1803 4072 
Q 1878 4072 1928 4065 
Q 1978 4059 2006 4048 
Q 2034 4038 2043 4020 
Q 2053 4003 2053 3984 
L 2053 431 
L 2784 431 
Q 2809 431 2831 417 
Q 2853 403 2867 376 
Q 2881 350 2889 309 
Q 2897 269 2897 213 
z
" transform="scale(0.015625)"/>
       </defs>
       <use xlink:href="#Calibri-30"/>
       <use xlink:href="#Calibri-2e" x="50.683594"/>
       <use xlink:href="#Calibri-31" x="75.927734"/>
      </g>
     </g>
    </g>
    <g id="xtick_3">
     <g id="line2d_3">
      <g>
       <use xlink:href="#mcf8182cc22" x="114.7392" y="307.584" style="stroke: #000000; stroke-width: 0.8"/>
      </g>
     </g>
     <g id="text_3">
      <!-- 0.2 -->
      <g transform="translate(108.40795 321.385562) scale(0.1 -0.1)">
       <defs>
        <path id="Calibri-32" d="M 2888 231 
Q 2888 175 2880 131 
Q 2872 88 2858 58 
Q 2844 28 2820 14 
Q 2797 0 2769 0 
L 534 0 
Q 491 0 458 11 
Q 425 22 401 47 
Q 378 72 367 119 
Q 356 166 356 234 
Q 356 297 361 344 
Q 366 391 381 427 
Q 397 463 420 498 
Q 444 534 481 575 
L 1266 1406 
Q 1538 1694 1702 1922 
Q 1866 2150 1955 2337 
Q 2044 2525 2072 2678 
Q 2100 2831 2100 2966 
Q 2100 3100 2056 3220 
Q 2013 3341 1930 3431 
Q 1847 3522 1722 3575 
Q 1597 3628 1434 3628 
Q 1244 3628 1092 3575 
Q 941 3522 827 3459 
Q 713 3397 636 3344 
Q 559 3291 522 3291 
Q 500 3291 483 3303 
Q 466 3316 455 3344 
Q 444 3372 437 3419 
Q 431 3466 431 3531 
Q 431 3578 434 3612 
Q 438 3647 445 3672 
Q 453 3697 465 3719 
Q 478 3741 515 3773 
Q 553 3806 645 3862 
Q 738 3919 877 3973 
Q 1016 4028 1183 4065 
Q 1350 4103 1534 4103 
Q 1828 4103 2048 4020 
Q 2269 3938 2414 3794 
Q 2559 3650 2631 3459 
Q 2703 3269 2703 3053 
Q 2703 2859 2668 2667 
Q 2634 2475 2523 2251 
Q 2413 2028 2203 1754 
Q 1994 1481 1647 1125 
L 1006 456 
L 2766 456 
Q 2791 456 2814 442 
Q 2838 428 2855 400 
Q 2872 372 2880 330 
Q 2888 288 2888 231 
z
" transform="scale(0.015625)"/>
       </defs>
       <use xlink:href="#Calibri-30"/>
       <use xlink:href="#Calibri-2e" x="50.683594"/>
       <use xlink:href="#Calibri-32" x="75.927734"/>
      </g>
     </g>
    </g>
    <g id="xtick_4">
     <g id="line2d_4">
      <g>
       <use xlink:href="#mcf8182cc22" x="143.3088" y="307.584" style="stroke: #000000; stroke-width: 0.8"/>
      </g>
     </g>
     <g id="text_4">
      <!-- 0.3 -->
      <g transform="translate(136.97755 321.385562) scale(0.1 -0.1)">
       <defs>
        <path id="Calibri-33" d="M 2856 1156 
Q 2856 878 2759 654 
Q 2663 431 2481 272 
Q 2300 113 2034 27 
Q 1769 -59 1434 -59 
Q 1231 -59 1054 -26 
Q 878 6 740 51 
Q 603 97 512 145 
Q 422 194 398 216 
Q 375 238 362 259 
Q 350 281 340 312 
Q 331 344 326 389 
Q 322 434 322 500 
Q 322 613 344 656 
Q 366 700 406 700 
Q 434 700 517 650 
Q 600 600 729 542 
Q 859 484 1032 434 
Q 1206 384 1419 384 
Q 1625 384 1781 437 
Q 1938 491 2044 587 
Q 2150 684 2203 817 
Q 2256 950 2256 1106 
Q 2256 1278 2189 1415 
Q 2122 1553 1992 1653 
Q 1863 1753 1673 1806 
Q 1484 1859 1244 1859 
L 859 1859 
Q 834 1859 811 1870 
Q 788 1881 770 1906 
Q 753 1931 742 1972 
Q 731 2013 731 2078 
Q 731 2138 740 2177 
Q 750 2216 767 2239 
Q 784 2263 806 2273 
Q 828 2284 856 2284 
L 1209 2284 
Q 1416 2284 1580 2337 
Q 1744 2391 1858 2491 
Q 1972 2591 2033 2730 
Q 2094 2869 2094 3041 
Q 2094 3166 2053 3280 
Q 2013 3394 1931 3478 
Q 1850 3563 1723 3611 
Q 1597 3659 1431 3659 
Q 1250 3659 1098 3604 
Q 947 3550 828 3487 
Q 709 3425 631 3370 
Q 553 3316 522 3316 
Q 500 3316 483 3323 
Q 466 3331 455 3354 
Q 444 3378 439 3420 
Q 434 3463 434 3531 
Q 434 3578 437 3614 
Q 441 3650 450 3676 
Q 459 3703 471 3725 
Q 484 3747 514 3776 
Q 544 3806 634 3862 
Q 725 3919 858 3973 
Q 991 4028 1164 4065 
Q 1338 4103 1538 4103 
Q 1819 4103 2031 4031 
Q 2244 3959 2386 3828 
Q 2528 3697 2598 3514 
Q 2669 3331 2669 3109 
Q 2669 2919 2619 2755 
Q 2569 2591 2472 2464 
Q 2375 2338 2234 2248 
Q 2094 2159 1909 2125 
L 1909 2119 
Q 2119 2097 2292 2014 
Q 2466 1931 2591 1806 
Q 2716 1681 2786 1514 
Q 2856 1347 2856 1156 
z
" transform="scale(0.015625)"/>
       </defs>
       <use xlink:href="#Calibri-30"/>
       <use xlink:href="#Calibri-2e" x="50.683594"/>
       <use xlink:href="#Calibri-33" x="75.927734"/>
      </g>
     </g>
    </g>
    <g id="xtick_5">
     <g id="line2d_5">
      <g>
       <use xlink:href="#mcf8182cc22" x="171.8784" y="307.584" style="stroke: #000000; stroke-width: 0.8"/>
      </g>
     </g>
     <g id="text_5">
      <!-- 0.4 -->
      <g transform="translate(165.54715 321.385562) scale(0.1 -0.1)">
       <defs>
        <path id="Calibri-34" d="M 3059 1150 
Q 3059 1047 3028 987 
Q 2997 928 2941 928 
L 2484 928 
L 2484 78 
Q 2484 53 2471 36 
Q 2459 19 2428 6 
Q 2397 -6 2347 -12 
Q 2297 -19 2219 -19 
Q 2144 -19 2094 -12 
Q 2044 -6 2014 6 
Q 1984 19 1973 36 
Q 1963 53 1963 78 
L 1963 928 
L 294 928 
Q 256 928 231 937 
Q 206 947 186 972 
Q 166 997 158 1044 
Q 150 1091 150 1166 
Q 150 1225 153 1272 
Q 156 1319 165 1358 
Q 175 1397 190 1433 
Q 206 1469 228 1509 
L 1684 3966 
Q 1700 3991 1729 4009 
Q 1759 4028 1806 4040 
Q 1853 4053 1922 4058 
Q 1991 4063 2084 4063 
Q 2188 4063 2264 4055 
Q 2341 4047 2387 4034 
Q 2434 4022 2459 4001 
Q 2484 3981 2484 3953 
L 2484 1372 
L 2941 1372 
Q 2994 1372 3026 1317 
Q 3059 1263 3059 1150 
z
M 1963 3591 
L 1956 3591 
L 641 1372 
L 1963 1372 
L 1963 3591 
z
" transform="scale(0.015625)"/>
       </defs>
       <use xlink:href="#Calibri-30"/>
       <use xlink:href="#Calibri-2e" x="50.683594"/>
       <use xlink:href="#Calibri-34" x="75.927734"/>
      </g>
     </g>
    </g>
    <g id="xtick_6">
     <g id="line2d_6">
      <g>
       <use xlink:href="#mcf8182cc22" x="200.448" y="307.584" style="stroke: #000000; stroke-width: 0.8"/>
      </g>
     </g>
     <g id="text_6">
      <!-- 0.5 -->
      <g transform="translate(194.11675 321.385562) scale(0.1 -0.1)">
       <defs>
        <path id="Calibri-35" d="M 2869 1300 
Q 2869 975 2759 722 
Q 2650 469 2450 295 
Q 2250 122 1973 31 
Q 1697 -59 1359 -59 
Q 1172 -59 1003 -32 
Q 834 -6 703 33 
Q 572 72 487 109 
Q 403 147 379 169 
Q 356 191 347 209 
Q 338 228 330 254 
Q 322 281 319 322 
Q 316 363 316 419 
Q 316 472 320 514 
Q 325 556 337 582 
Q 350 609 367 621 
Q 384 634 406 634 
Q 438 634 503 595 
Q 569 556 680 511 
Q 791 466 955 425 
Q 1119 384 1344 384 
Q 1553 384 1728 434 
Q 1903 484 2029 590 
Q 2156 697 2228 858 
Q 2300 1019 2300 1250 
Q 2300 1444 2239 1592 
Q 2178 1741 2051 1839 
Q 1925 1938 1731 1986 
Q 1538 2034 1269 2034 
Q 1078 2034 940 2015 
Q 803 1997 684 1997 
Q 597 1997 559 2037 
Q 522 2078 522 2194 
L 522 3841 
Q 522 3944 570 3994 
Q 619 4044 709 4044 
L 2500 4044 
Q 2525 4044 2548 4030 
Q 2572 4016 2587 3987 
Q 2603 3959 2611 3915 
Q 2619 3872 2619 3813 
Q 2619 3700 2587 3637 
Q 2556 3575 2500 3575 
L 991 3575 
L 991 2441 
Q 1100 2456 1214 2459 
Q 1328 2463 1478 2463 
Q 1825 2463 2084 2380 
Q 2344 2297 2517 2145 
Q 2691 1994 2780 1778 
Q 2869 1563 2869 1300 
z
" transform="scale(0.015625)"/>
       </defs>
       <use xlink:href="#Calibri-30"/>
       <use xlink:href="#Calibri-2e" x="50.683594"/>
       <use xlink:href="#Calibri-35" x="75.927734"/>
      </g>
     </g>
    </g>
    <g id="xtick_7">
     <g id="line2d_7">
      <g>
       <use xlink:href="#mcf8182cc22" x="229.0176" y="307.584" style="stroke: #000000; stroke-width: 0.8"/>
      </g>
     </g>
     <g id="text_7">
      <!-- 0.6 -->
      <g transform="translate(222.68635 321.385562) scale(0.1 -0.1)">
       <defs>
        <path id="Calibri-36" d="M 2991 1309 
Q 2991 1044 2909 795 
Q 2828 547 2659 358 
Q 2491 169 2231 55 
Q 1972 -59 1619 -59 
Q 1366 -59 1172 3 
Q 978 66 834 181 
Q 691 297 595 465 
Q 500 634 442 850 
Q 384 1066 359 1322 
Q 334 1578 334 1872 
Q 334 2131 362 2397 
Q 391 2663 462 2909 
Q 534 3156 657 3373 
Q 781 3591 967 3752 
Q 1153 3913 1412 4006 
Q 1672 4100 2016 4100 
Q 2131 4100 2250 4086 
Q 2369 4072 2469 4048 
Q 2569 4025 2637 3997 
Q 2706 3969 2728 3951 
Q 2750 3934 2761 3914 
Q 2772 3894 2778 3870 
Q 2784 3847 2787 3817 
Q 2791 3788 2791 3744 
Q 2791 3688 2789 3647 
Q 2788 3606 2777 3581 
Q 2766 3556 2748 3543 
Q 2731 3531 2703 3531 
Q 2669 3531 2609 3553 
Q 2550 3575 2465 3601 
Q 2381 3628 2261 3650 
Q 2141 3672 1981 3672 
Q 1691 3672 1481 3553 
Q 1272 3434 1139 3234 
Q 1006 3034 942 2770 
Q 878 2506 869 2219 
Q 950 2266 1051 2312 
Q 1153 2359 1273 2396 
Q 1394 2434 1528 2457 
Q 1663 2481 1816 2481 
Q 2144 2481 2369 2392 
Q 2594 2303 2733 2145 
Q 2872 1988 2931 1773 
Q 2991 1559 2991 1309 
z
M 2447 1259 
Q 2447 1441 2411 1589 
Q 2375 1738 2290 1841 
Q 2206 1944 2065 2000 
Q 1925 2056 1719 2056 
Q 1603 2056 1487 2036 
Q 1372 2016 1264 1980 
Q 1156 1944 1057 1895 
Q 959 1847 878 1791 
Q 878 1388 929 1116 
Q 981 844 1079 680 
Q 1178 516 1325 445 
Q 1472 375 1669 375 
Q 1869 375 2016 450 
Q 2163 525 2259 651 
Q 2356 778 2401 936 
Q 2447 1094 2447 1259 
z
" transform="scale(0.015625)"/>
       </defs>
       <use xlink:href="#Calibri-30"/>
       <use xlink:href="#Calibri-2e" x="50.683594"/>
       <use xlink:href="#Calibri-36" x="75.927734"/>
      </g>
     </g>
    </g>
    <g id="xtick_8">
     <g id="line2d_8">
      <g>
       <use xlink:href="#mcf8182cc22" x="257.5872" y="307.584" style="stroke: #000000; stroke-width: 0.8"/>
      </g>
     </g>
     <g id="text_8">
      <!-- 0.7 -->
      <g transform="translate(251.25595 321.385562) scale(0.1 -0.1)">
       <defs>
        <path id="Calibri-37" d="M 2947 3813 
Q 2947 3756 2942 3711 
Q 2938 3666 2930 3623 
Q 2922 3581 2908 3542 
Q 2894 3503 2875 3459 
L 1419 103 
Q 1403 66 1379 42 
Q 1356 19 1320 5 
Q 1284 -9 1228 -14 
Q 1172 -19 1091 -19 
Q 984 -19 925 -9 
Q 866 0 839 20 
Q 813 41 816 70 
Q 819 100 838 141 
L 2369 3572 
L 428 3572 
Q 369 3572 339 3634 
Q 309 3697 309 3809 
Q 309 3869 317 3912 
Q 325 3956 340 3986 
Q 356 4016 378 4030 
Q 400 4044 428 4044 
L 2784 4044 
Q 2828 4044 2861 4034 
Q 2894 4025 2911 3997 
Q 2928 3969 2937 3925 
Q 2947 3881 2947 3813 
z
" transform="scale(0.015625)"/>
       </defs>
       <use xlink:href="#Calibri-30"/>
       <use xlink:href="#Calibri-2e" x="50.683594"/>
       <use xlink:href="#Calibri-37" x="75.927734"/>
      </g>
     </g>
    </g>
    <g id="xtick_9">
     <g id="line2d_9">
      <g>
       <use xlink:href="#mcf8182cc22" x="286.1568" y="307.584" style="stroke: #000000; stroke-width: 0.8"/>
      </g>
     </g>
     <g id="text_9">
      <!-- 0.8 -->
      <g transform="translate(279.82555 321.385562) scale(0.1 -0.1)">
       <defs>
        <path id="Calibri-38" d="M 2981 1038 
Q 2981 775 2887 570 
Q 2794 366 2617 225 
Q 2441 84 2181 12 
Q 1922 -59 1588 -59 
Q 1275 -59 1028 6 
Q 781 72 609 200 
Q 438 328 347 515 
Q 256 703 256 944 
Q 256 1134 318 1293 
Q 381 1453 498 1587 
Q 616 1722 787 1839 
Q 959 1956 1175 2063 
Q 988 2159 844 2267 
Q 700 2375 600 2501 
Q 500 2628 448 2772 
Q 397 2916 397 3084 
Q 397 3297 473 3483 
Q 550 3669 704 3806 
Q 859 3944 1098 4023 
Q 1338 4103 1656 4103 
Q 1963 4103 2186 4029 
Q 2409 3956 2554 3829 
Q 2700 3703 2769 3531 
Q 2838 3359 2838 3163 
Q 2838 3003 2786 2856 
Q 2734 2709 2634 2578 
Q 2534 2447 2389 2333 
Q 2244 2219 2056 2119 
Q 2278 2009 2451 1893 
Q 2625 1778 2742 1645 
Q 2859 1513 2920 1364 
Q 2981 1216 2981 1038 
z
M 2306 3113 
Q 2306 3244 2261 3350 
Q 2216 3456 2128 3531 
Q 2041 3606 1911 3645 
Q 1781 3684 1616 3684 
Q 1278 3684 1104 3531 
Q 931 3378 931 3113 
Q 931 2991 973 2886 
Q 1016 2781 1105 2687 
Q 1194 2594 1330 2505 
Q 1466 2416 1653 2319 
Q 1969 2481 2137 2678 
Q 2306 2875 2306 3113 
z
M 2438 981 
Q 2438 1125 2384 1242 
Q 2331 1359 2223 1461 
Q 2116 1563 1955 1658 
Q 1794 1753 1581 1856 
Q 1384 1759 1236 1662 
Q 1088 1566 992 1462 
Q 897 1359 848 1245 
Q 800 1131 800 994 
Q 800 691 1008 525 
Q 1216 359 1628 359 
Q 2028 359 2233 526 
Q 2438 694 2438 981 
z
" transform="scale(0.015625)"/>
       </defs>
       <use xlink:href="#Calibri-30"/>
       <use xlink:href="#Calibri-2e" x="50.683594"/>
       <use xlink:href="#Calibri-38" x="75.927734"/>
      </g>
     </g>
    </g>
    <g id="xtick_10">
     <g id="line2d_10">
      <g>
       <use xlink:href="#mcf8182cc22" x="314.7264" y="307.584" style="stroke: #000000; stroke-width: 0.8"/>
      </g>
     </g>
     <g id="text_10">
      <!-- 0.9 -->
      <g transform="translate(308.39515 321.385562) scale(0.1 -0.1)">
       <defs>
        <path id="Calibri-39" d="M 2919 2181 
Q 2919 1919 2887 1650 
Q 2856 1381 2781 1132 
Q 2706 884 2579 667 
Q 2453 450 2261 287 
Q 2069 125 1805 33 
Q 1541 -59 1191 -59 
Q 1056 -59 929 -42 
Q 803 -25 701 0 
Q 600 25 531 53 
Q 463 81 431 109 
Q 400 138 386 186 
Q 372 234 372 316 
Q 372 384 376 425 
Q 381 466 390 487 
Q 400 509 417 517 
Q 434 525 459 525 
Q 494 525 556 501 
Q 619 478 714 450 
Q 809 422 937 398 
Q 1066 375 1225 375 
Q 1528 375 1745 492 
Q 1963 609 2100 806 
Q 2238 1003 2306 1262 
Q 2375 1522 2381 1809 
Q 2216 1713 1984 1638 
Q 1753 1563 1453 1563 
Q 1116 1563 886 1655 
Q 656 1747 517 1906 
Q 378 2066 317 2284 
Q 256 2503 256 2763 
Q 256 3031 334 3273 
Q 413 3516 578 3700 
Q 744 3884 1000 3993 
Q 1256 4103 1613 4103 
Q 1866 4103 2061 4039 
Q 2256 3975 2400 3854 
Q 2544 3734 2644 3564 
Q 2744 3394 2805 3178 
Q 2866 2963 2892 2711 
Q 2919 2459 2919 2181 
z
M 2372 2241 
Q 2372 2641 2319 2914 
Q 2266 3188 2162 3356 
Q 2059 3525 1909 3600 
Q 1759 3675 1563 3675 
Q 1359 3675 1215 3601 
Q 1072 3528 980 3404 
Q 888 3281 844 3125 
Q 800 2969 800 2803 
Q 800 2619 839 2466 
Q 878 2313 965 2206 
Q 1053 2100 1193 2042 
Q 1334 1984 1541 1984 
Q 1775 1984 1994 2054 
Q 2213 2125 2372 2241 
z
" transform="scale(0.015625)"/>
       </defs>
       <use xlink:href="#Calibri-30"/>
       <use xlink:href="#Calibri-2e" x="50.683594"/>
       <use xlink:href="#Calibri-39" x="75.927734"/>
      </g>
     </g>
    </g>
    <g id="xtick_11">
     <g id="line2d_11">
      <g>
       <use xlink:href="#mcf8182cc22" x="343.296" y="307.584" style="stroke: #000000; stroke-width: 0.8"/>
      </g>
     </g>
     <g id="text_11">
      <!-- 1.0 -->
      <g transform="translate(336.96475 321.385562) scale(0.1 -0.1)">
       <use xlink:href="#Calibri-31"/>
       <use xlink:href="#Calibri-2e" x="50.683594"/>
       <use xlink:href="#Calibri-30" x="75.927734"/>
      </g>
     </g>
    </g>
    <g id="text_12">
     <!-- $\mathit{p}$ (cm$^2$/cm$^2$) -->
     <g transform="translate(174.148 336.263687) scale(0.1 -0.1)">
      <defs>
       <path id="DejaVuSans-Oblique-70" d="M 3175 2156 
Q 3175 2616 2975 2859 
Q 2775 3103 2400 3103 
Q 2144 3103 1911 2972 
Q 1678 2841 1497 2591 
Q 1319 2344 1212 1994 
Q 1106 1644 1106 1300 
Q 1106 863 1306 627 
Q 1506 391 1875 391 
Q 2147 391 2380 519 
Q 2613 647 2778 891 
Q 2956 1147 3065 1494 
Q 3175 1841 3175 2156 
z
M 1394 2969 
Q 1625 3272 1939 3428 
Q 2253 3584 2638 3584 
Q 3175 3584 3472 3232 
Q 3769 2881 3769 2247 
Q 3769 1728 3584 1258 
Q 3400 788 3053 416 
Q 2822 169 2531 39 
Q 2241 -91 1919 -91 
Q 1547 -91 1294 64 
Q 1041 219 916 525 
L 556 -1331 
L -19 -1331 
L 922 3500 
L 1497 3500 
L 1394 2969 
z
" transform="scale(0.015625)"/>
       <path id="Calibri-20" transform="scale(0.015625)"/>
       <path id="Calibri-28" d="M 1547 4306 
Q 1250 3678 1104 3017 
Q 959 2356 959 1688 
Q 959 1016 1107 356 
Q 1256 -303 1541 -938 
Q 1556 -975 1557 -1001 
Q 1559 -1028 1537 -1045 
Q 1516 -1063 1470 -1070 
Q 1425 -1078 1347 -1078 
Q 1291 -1078 1250 -1075 
Q 1209 -1072 1179 -1062 
Q 1150 -1053 1131 -1040 
Q 1113 -1028 1103 -1013 
Q 934 -694 806 -367 
Q 678 -41 590 296 
Q 503 634 459 979 
Q 416 1325 416 1678 
Q 416 2031 464 2375 
Q 513 2719 602 3058 
Q 691 3397 819 3725 
Q 947 4053 1106 4375 
Q 1109 4388 1123 4397 
Q 1138 4406 1163 4415 
Q 1188 4425 1231 4429 
Q 1275 4434 1344 4434 
Q 1416 4434 1459 4425 
Q 1503 4416 1528 4400 
Q 1553 4384 1556 4359 
Q 1559 4334 1547 4306 
z
" transform="scale(0.015625)"/>
       <path id="Calibri-63" d="M 2500 506 
Q 2500 453 2497 414 
Q 2494 375 2486 348 
Q 2478 322 2467 301 
Q 2456 281 2417 242 
Q 2378 203 2284 145 
Q 2191 88 2073 42 
Q 1956 -3 1818 -31 
Q 1681 -59 1534 -59 
Q 1231 -59 997 41 
Q 763 141 605 333 
Q 447 525 364 804 
Q 281 1084 281 1450 
Q 281 1866 382 2164 
Q 484 2463 661 2653 
Q 838 2844 1077 2936 
Q 1316 3028 1594 3028 
Q 1728 3028 1854 3003 
Q 1981 2978 2087 2937 
Q 2194 2897 2276 2844 
Q 2359 2791 2396 2753 
Q 2434 2716 2448 2694 
Q 2463 2672 2472 2642 
Q 2481 2613 2484 2575 
Q 2488 2538 2488 2481 
Q 2488 2359 2459 2311 
Q 2431 2263 2391 2263 
Q 2344 2263 2283 2314 
Q 2222 2366 2128 2428 
Q 2034 2491 1901 2542 
Q 1769 2594 1588 2594 
Q 1216 2594 1017 2308 
Q 819 2022 819 1478 
Q 819 1206 870 1001 
Q 922 797 1022 659 
Q 1122 522 1267 455 
Q 1413 388 1600 388 
Q 1778 388 1912 444 
Q 2047 500 2145 567 
Q 2244 634 2311 689 
Q 2378 744 2416 744 
Q 2438 744 2453 731 
Q 2469 719 2480 689 
Q 2491 659 2495 614 
Q 2500 569 2500 506 
z
" transform="scale(0.015625)"/>
       <path id="Calibri-6d" d="M 4650 78 
Q 4650 53 4637 36 
Q 4625 19 4597 6 
Q 4569 -6 4519 -12 
Q 4469 -19 4394 -19 
Q 4316 -19 4266 -12 
Q 4216 -6 4186 6 
Q 4156 19 4143 36 
Q 4131 53 4131 78 
L 4131 1788 
Q 4131 1966 4100 2112 
Q 4069 2259 4000 2365 
Q 3931 2472 3825 2528 
Q 3719 2584 3575 2584 
Q 3397 2584 3217 2446 
Q 3038 2309 2822 2044 
L 2822 78 
Q 2822 53 2809 36 
Q 2797 19 2767 6 
Q 2738 -6 2688 -12 
Q 2638 -19 2563 -19 
Q 2491 -19 2439 -12 
Q 2388 -6 2358 6 
Q 2328 19 2317 36 
Q 2306 53 2306 78 
L 2306 1788 
Q 2306 1966 2272 2112 
Q 2238 2259 2169 2365 
Q 2100 2472 1995 2528 
Q 1891 2584 1747 2584 
Q 1569 2584 1387 2446 
Q 1206 2309 994 2044 
L 994 78 
Q 994 53 981 36 
Q 969 19 941 6 
Q 913 -6 863 -12 
Q 813 -19 734 -19 
Q 659 -19 609 -12 
Q 559 -6 529 6 
Q 500 19 489 36 
Q 478 53 478 78 
L 478 2891 
Q 478 2916 487 2933 
Q 497 2950 525 2964 
Q 553 2978 597 2983 
Q 641 2988 713 2988 
Q 781 2988 826 2983 
Q 872 2978 897 2964 
Q 922 2950 933 2933 
Q 944 2916 944 2891 
L 944 2519 
Q 1181 2784 1404 2907 
Q 1628 3031 1856 3031 
Q 2031 3031 2170 2990 
Q 2309 2950 2415 2876 
Q 2522 2803 2597 2701 
Q 2672 2600 2722 2475 
Q 2863 2628 2989 2734 
Q 3116 2841 3233 2906 
Q 3350 2972 3461 3001 
Q 3572 3031 3684 3031 
Q 3956 3031 4140 2936 
Q 4325 2841 4439 2681 
Q 4553 2522 4601 2308 
Q 4650 2094 4650 1856 
L 4650 78 
z
" transform="scale(0.015625)"/>
       <path id="DejaVuSans-32" d="M 1228 531 
L 3431 531 
L 3431 0 
L 469 0 
L 469 531 
Q 828 903 1448 1529 
Q 2069 2156 2228 2338 
Q 2531 2678 2651 2914 
Q 2772 3150 2772 3378 
Q 2772 3750 2511 3984 
Q 2250 4219 1831 4219 
Q 1534 4219 1204 4116 
Q 875 4013 500 3803 
L 500 4441 
Q 881 4594 1212 4672 
Q 1544 4750 1819 4750 
Q 2544 4750 2975 4387 
Q 3406 4025 3406 3419 
Q 3406 3131 3298 2873 
Q 3191 2616 2906 2266 
Q 2828 2175 2409 1742 
Q 1991 1309 1228 531 
z
" transform="scale(0.015625)"/>
       <path id="Calibri-2f" d="M 525 -753 
Q 513 -794 492 -817 
Q 472 -841 440 -853 
Q 409 -866 364 -872 
Q 319 -878 253 -878 
Q 175 -878 123 -867 
Q 72 -856 44 -836 
Q 16 -816 9 -786 
Q 3 -756 22 -716 
L 1913 4469 
Q 1925 4509 1945 4532 
Q 1966 4556 1995 4570 
Q 2025 4584 2072 4589 
Q 2119 4594 2184 4594 
Q 2263 4594 2313 4583 
Q 2363 4572 2391 4553 
Q 2419 4534 2425 4503 
Q 2431 4472 2416 4431 
L 525 -753 
z
" transform="scale(0.015625)"/>
       <path id="Calibri-29" d="M 1522 1678 
Q 1522 1325 1478 979 
Q 1434 634 1346 296 
Q 1259 -41 1132 -367 
Q 1006 -694 838 -1013 
Q 828 -1028 809 -1040 
Q 791 -1053 761 -1062 
Q 731 -1072 690 -1075 
Q 650 -1078 594 -1078 
Q 513 -1078 467 -1070 
Q 422 -1063 401 -1045 
Q 381 -1028 382 -1001 
Q 384 -975 400 -938 
Q 688 -306 834 355 
Q 981 1016 981 1688 
Q 981 2356 834 3017 
Q 688 3678 394 4306 
Q 381 4334 384 4359 
Q 388 4384 413 4400 
Q 438 4416 481 4425 
Q 525 4434 597 4434 
Q 663 4434 706 4429 
Q 750 4425 776 4415 
Q 803 4406 815 4397 
Q 828 4388 834 4375 
Q 1156 3734 1339 3057 
Q 1522 2381 1522 1678 
z
" transform="scale(0.015625)"/>
      </defs>
      <use xlink:href="#DejaVuSans-Oblique-70" transform="translate(0 0.765625)"/>
      <use xlink:href="#Calibri-20" transform="translate(63.476562 0.765625)"/>
      <use xlink:href="#Calibri-28" transform="translate(84.958984 0.765625)"/>
      <use xlink:href="#Calibri-63" transform="translate(115.28125 0.765625)"/>
      <use xlink:href="#Calibri-6d" transform="translate(157.566406 0.765625)"/>
      <use xlink:href="#DejaVuSans-32" transform="translate(238.40625 39.046875) scale(0.7)"/>
      <use xlink:href="#Calibri-2f" transform="translate(285.676758 0.765625)"/>
      <use xlink:href="#Calibri-63" transform="translate(324.299805 0.765625)"/>
      <use xlink:href="#Calibri-6d" transform="translate(366.584961 0.765625)"/>
      <use xlink:href="#DejaVuSans-32" transform="translate(447.424805 39.046875) scale(0.7)"/>
      <use xlink:href="#Calibri-29" transform="translate(494.695312 0.765625)"/>
     </g>
    </g>
   </g>
   <g id="matplotlib.axis_2">
    <g id="ytick_1">
     <g id="line2d_12">
      <defs>
       <path id="m13c10a8ce3" d="M 0 0 
L -3.5 0 
" style="stroke: #000000; stroke-width: 0.8"/>
      </defs>
      <g>
       <use xlink:href="#m13c10a8ce3" x="57.6" y="275.65056" style="stroke: #000000; stroke-width: 0.8"/>
      </g>
     </g>
     <g id="text_13">
      <!-- 25 -->
      <g transform="translate(40.4625 279.051341) scale(0.1 -0.1)">
       <use xlink:href="#Calibri-32"/>
       <use xlink:href="#Calibri-35" x="50.683594"/>
      </g>
     </g>
    </g>
    <g id="ytick_2">
     <g id="line2d_13">
      <g>
       <use xlink:href="#m13c10a8ce3" x="57.6" y="242.38656" style="stroke: #000000; stroke-width: 0.8"/>
      </g>
     </g>
     <g id="text_14">
      <!-- 50 -->
      <g transform="translate(40.4625 245.787341) scale(0.1 -0.1)">
       <use xlink:href="#Calibri-35"/>
       <use xlink:href="#Calibri-30" x="50.683594"/>
      </g>
     </g>
    </g>
    <g id="ytick_3">
     <g id="line2d_14">
      <g>
       <use xlink:href="#m13c10a8ce3" x="57.6" y="209.12256" style="stroke: #000000; stroke-width: 0.8"/>
      </g>
     </g>
     <g id="text_15">
      <!-- 75 -->
      <g transform="translate(40.4625 212.523341) scale(0.1 -0.1)">
       <use xlink:href="#Calibri-37"/>
       <use xlink:href="#Calibri-35" x="50.683594"/>
      </g>
     </g>
    </g>
    <g id="ytick_4">
     <g id="line2d_15">
      <g>
       <use xlink:href="#m13c10a8ce3" x="57.6" y="175.85856" style="stroke: #000000; stroke-width: 0.8"/>
      </g>
     </g>
     <g id="text_16">
      <!-- 100 -->
      <g transform="translate(35.39375 179.259341) scale(0.1 -0.1)">
       <use xlink:href="#Calibri-31"/>
       <use xlink:href="#Calibri-30" x="50.683594"/>
       <use xlink:href="#Calibri-30" x="101.367188"/>
      </g>
     </g>
    </g>
    <g id="ytick_5">
     <g id="line2d_16">
      <g>
       <use xlink:href="#m13c10a8ce3" x="57.6" y="142.59456" style="stroke: #000000; stroke-width: 0.8"/>
      </g>
     </g>
     <g id="text_17">
      <!-- 125 -->
      <g transform="translate(35.39375 145.995341) scale(0.1 -0.1)">
       <use xlink:href="#Calibri-31"/>
       <use xlink:href="#Calibri-32" x="50.683594"/>
       <use xlink:href="#Calibri-35" x="101.367188"/>
      </g>
     </g>
    </g>
    <g id="ytick_6">
     <g id="line2d_17">
      <g>
       <use xlink:href="#m13c10a8ce3" x="57.6" y="109.33056" style="stroke: #000000; stroke-width: 0.8"/>
      </g>
     </g>
     <g id="text_18">
      <!-- 150 -->
      <g transform="translate(35.39375 112.731341) scale(0.1 -0.1)">
       <use xlink:href="#Calibri-31"/>
       <use xlink:href="#Calibri-35" x="50.683594"/>
       <use xlink:href="#Calibri-30" x="101.367188"/>
      </g>
     </g>
    </g>
    <g id="ytick_7">
     <g id="line2d_18">
      <g>
       <use xlink:href="#m13c10a8ce3" x="57.6" y="76.06656" style="stroke: #000000; stroke-width: 0.8"/>
      </g>
     </g>
     <g id="text_19">
      <!-- 175 -->
      <g transform="translate(35.39375 79.467341) scale(0.1 -0.1)">
       <use xlink:href="#Calibri-31"/>
       <use xlink:href="#Calibri-37" x="50.683594"/>
       <use xlink:href="#Calibri-35" x="101.367188"/>
      </g>
     </g>
    </g>
    <g id="ytick_8">
     <g id="line2d_19">
      <g>
       <use xlink:href="#m13c10a8ce3" x="57.6" y="42.80256" style="stroke: #000000; stroke-width: 0.8"/>
      </g>
     </g>
     <g id="text_20">
      <!-- 200 -->
      <g transform="translate(35.39375 46.203341) scale(0.1 -0.1)">
       <use xlink:href="#Calibri-32"/>
       <use xlink:href="#Calibri-30" x="50.683594"/>
       <use xlink:href="#Calibri-30" x="101.367188"/>
      </g>
     </g>
    </g>
    <g id="text_21">
     <!-- $\mathit{Z}$$_{a}$ (nm) -->
     <g transform="translate(29.59375 191.028) rotate(-90) scale(0.1 -0.1)">
      <defs>
       <path id="DejaVuSans-Oblique-5a" d="M 838 4666 
L 4500 4666 
L 4409 4184 
L 794 531 
L 3769 531 
L 3669 0 
L -141 0 
L -50 481 
L 3566 4134 
L 738 4134 
L 838 4666 
z
" transform="scale(0.015625)"/>
       <path id="DejaVuSans-Oblique-61" d="M 3438 1997 
L 3047 0 
L 2472 0 
L 2578 531 
Q 2325 219 2001 64 
Q 1678 -91 1281 -91 
Q 834 -91 548 182 
Q 263 456 263 884 
Q 263 1497 752 1853 
Q 1241 2209 2100 2209 
L 2900 2209 
L 2931 2363 
Q 2938 2388 2941 2417 
Q 2944 2447 2944 2509 
Q 2944 2788 2717 2942 
Q 2491 3097 2081 3097 
Q 1800 3097 1504 3025 
Q 1209 2953 897 2809 
L 997 3341 
Q 1322 3463 1633 3523 
Q 1944 3584 2234 3584 
Q 2853 3584 3176 3315 
Q 3500 3047 3500 2534 
Q 3500 2431 3484 2292 
Q 3469 2153 3438 1997 
z
M 2816 1759 
L 2241 1759 
Q 1534 1759 1195 1570 
Q 856 1381 856 984 
Q 856 709 1029 553 
Q 1203 397 1509 397 
Q 1978 397 2328 733 
Q 2678 1069 2791 1631 
L 2816 1759 
z
" transform="scale(0.015625)"/>
       <path id="Calibri-6e" d="M 2900 78 
Q 2900 53 2887 36 
Q 2875 19 2847 6 
Q 2819 -6 2769 -12 
Q 2719 -19 2644 -19 
Q 2566 -19 2516 -12 
Q 2466 -6 2437 6 
Q 2409 19 2396 36 
Q 2384 53 2384 78 
L 2384 1725 
Q 2384 1966 2346 2112 
Q 2309 2259 2237 2365 
Q 2166 2472 2052 2528 
Q 1938 2584 1788 2584 
Q 1594 2584 1400 2446 
Q 1206 2309 994 2044 
L 994 78 
Q 994 53 981 36 
Q 969 19 941 6 
Q 913 -6 863 -12 
Q 813 -19 734 -19 
Q 659 -19 609 -12 
Q 559 -6 529 6 
Q 500 19 489 36 
Q 478 53 478 78 
L 478 2891 
Q 478 2916 487 2933 
Q 497 2950 525 2964 
Q 553 2978 597 2983 
Q 641 2988 713 2988 
Q 781 2988 826 2983 
Q 872 2978 897 2964 
Q 922 2950 933 2933 
Q 944 2916 944 2891 
L 944 2519 
Q 1181 2784 1417 2907 
Q 1653 3031 1894 3031 
Q 2175 3031 2367 2936 
Q 2559 2841 2678 2681 
Q 2797 2522 2848 2308 
Q 2900 2094 2900 1794 
L 2900 78 
z
" transform="scale(0.015625)"/>
      </defs>
      <use xlink:href="#DejaVuSans-Oblique-5a" transform="translate(0 0.09375)"/>
      <use xlink:href="#DejaVuSans-Oblique-61" transform="translate(69.462891 -16.3125) scale(0.7)"/>
      <use xlink:href="#Calibri-20" transform="translate(115.092773 0.09375)"/>
      <use xlink:href="#Calibri-28" transform="translate(136.575195 0.09375)"/>
      <use xlink:href="#Calibri-6e" transform="translate(166.897461 0.09375)"/>
      <use xlink:href="#Calibri-6d" transform="translate(219.436523 0.09375)"/>
      <use xlink:href="#Calibri-29" transform="translate(299.319336 0.09375)"/>
     </g>
    </g>
   </g>
   <g id="patch_3">
    <path d="M 57.6 307.584 
L 57.6 41.472 
" style="fill: none; stroke: #000000; stroke-width: 0.8; stroke-linejoin: miter; stroke-linecap: square"/>
   </g>
   <g id="patch_4">
    <path d="M 343.296 307.584 
L 343.296 41.472 
" style="fill: none; stroke: #000000; stroke-width: 0.8; stroke-linejoin: miter; stroke-linecap: square"/>
   </g>
   <g id="patch_5">
    <path d="M 57.6 307.584 
L 343.296 307.584 
" style="fill: none; stroke: #000000; stroke-width: 0.8; stroke-linejoin: miter; stroke-linecap: square"/>
   </g>
   <g id="patch_6">
    <path d="M 57.6 41.472 
L 343.296 41.472 
" style="fill: none; stroke: #000000; stroke-width: 0.8; stroke-linejoin: miter; stroke-linecap: square"/>
   </g>
   <g id="text_22">
    <!-- $\theta_m$ = 51 -->
    <g transform="translate(182.298 35.472) scale(0.1 -0.1)">
     <defs>
      <path id="DejaVuSans-Oblique-3b8" d="M 2913 2219 
L 925 2219 
Q 791 1284 928 888 
Q 1100 400 1566 400 
Q 2034 400 2391 891 
Q 2703 1322 2913 2219 
z
M 3009 2750 
Q 3094 3638 2984 3950 
Q 2813 4444 2353 4444 
Q 1875 4444 1525 3956 
Q 1250 3563 1034 2750 
L 3009 2750 
z
M 2444 4913 
Q 3194 4913 3494 4250 
Q 3794 3591 3566 2422 
Q 3341 1256 2781 594 
Q 2225 -72 1475 -72 
Q 722 -72 425 594 
Q 128 1256 353 2422 
Q 581 3591 1134 4250 
Q 1691 4913 2444 4913 
z
" transform="scale(0.015625)"/>
      <path id="DejaVuSans-Oblique-6d" d="M 5747 2113 
L 5338 0 
L 4763 0 
L 5166 2094 
Q 5191 2228 5203 2325 
Q 5216 2422 5216 2491 
Q 5216 2772 5059 2928 
Q 4903 3084 4622 3084 
Q 4203 3084 3875 2770 
Q 3547 2456 3450 1953 
L 3066 0 
L 2491 0 
L 2900 2094 
Q 2925 2209 2937 2307 
Q 2950 2406 2950 2484 
Q 2950 2769 2794 2926 
Q 2638 3084 2363 3084 
Q 1938 3084 1609 2770 
Q 1281 2456 1184 1953 
L 800 0 
L 225 0 
L 909 3500 
L 1484 3500 
L 1375 2956 
Q 1609 3263 1923 3423 
Q 2238 3584 2597 3584 
Q 2978 3584 3223 3384 
Q 3469 3184 3519 2828 
Q 3781 3197 4126 3390 
Q 4472 3584 4856 3584 
Q 5306 3584 5551 3325 
Q 5797 3066 5797 2591 
Q 5797 2488 5784 2364 
Q 5772 2241 5747 2113 
z
" transform="scale(0.015625)"/>
      <path id="Calibri-3d" d="M 2891 2409 
Q 2891 2284 2855 2236 
Q 2819 2188 2772 2188 
L 409 2188 
Q 363 2188 328 2236 
Q 294 2284 294 2409 
Q 294 2522 325 2575 
Q 356 2628 409 2628 
L 2772 2628 
Q 2828 2628 2859 2575 
Q 2891 2522 2891 2409 
z
M 2891 1194 
Q 2891 1069 2855 1022 
Q 2819 975 2772 975 
L 409 975 
Q 363 975 328 1022 
Q 294 1069 294 1194 
Q 294 1309 325 1362 
Q 356 1416 409 1416 
L 2772 1416 
Q 2828 1416 2859 1362 
Q 2891 1309 2891 1194 
z
" transform="scale(0.015625)"/>
      <path id="Calibri-b0" d="M 1847 3541 
Q 1847 3388 1789 3253 
Q 1731 3119 1626 3017 
Q 1522 2916 1380 2859 
Q 1238 2803 1072 2803 
Q 906 2803 770 2854 
Q 634 2906 534 3000 
Q 434 3094 378 3225 
Q 322 3356 322 3516 
Q 322 3675 381 3811 
Q 441 3947 545 4044 
Q 650 4141 790 4197 
Q 931 4253 1097 4253 
Q 1259 4253 1396 4200 
Q 1534 4147 1634 4055 
Q 1734 3963 1790 3831 
Q 1847 3700 1847 3541 
z
M 1453 3528 
Q 1453 3613 1425 3686 
Q 1397 3759 1347 3812 
Q 1297 3866 1228 3895 
Q 1159 3925 1078 3925 
Q 1000 3925 933 3895 
Q 866 3866 816 3812 
Q 766 3759 737 3687 
Q 709 3616 709 3534 
Q 709 3444 737 3369 
Q 766 3294 817 3241 
Q 869 3188 939 3158 
Q 1009 3128 1091 3128 
Q 1166 3128 1233 3159 
Q 1300 3191 1348 3245 
Q 1397 3300 1425 3372 
Q 1453 3444 1453 3528 
z
M 0 4044 
L 0 4044 
z
" transform="scale(0.015625)"/>
     </defs>
     <use xlink:href="#DejaVuSans-Oblique-3b8" transform="translate(0 0.234375)"/>
     <use xlink:href="#DejaVuSans-Oblique-6d" transform="translate(61.181641 -16.171875) scale(0.7)"/>
     <use xlink:href="#Calibri-20" transform="translate(132.104492 0.234375)"/>
     <use xlink:href="#Calibri-3d" transform="translate(154.711914 0.234375)"/>
     <use xlink:href="#Calibri-20" transform="translate(204.516602 0.234375)"/>
     <use xlink:href="#Calibri-35" transform="translate(227.124023 0.234375)"/>
     <use xlink:href="#Calibri-31" transform="translate(277.807617 0.234375)"/>
     <use xlink:href="#Calibri-b0" transform="translate(328.491211 0.234375)"/>
    </g>
   </g>
  </g>
  <g id="axes_2">
   <g id="patch_7">
    <path d="M 361.152 307.584 
L 374.4576 307.584 
L 374.4576 41.472 
L 361.152 41.472 
z
" style="fill: #ffffff"/>
   </g>
   <g id="QuadMesh_1">
    <path d="M 361.152 307.584 
L 374.4576 307.584 
L 374.4576 280.9728 
L 361.152 280.9728 
L 361.152 307.584 
" clip-path="url(#p742854f72f)" style="fill: #0000b6"/>
    <path d="M 361.152 280.9728 
L 374.4576 280.9728 
L 374.4576 254.3616 
L 361.152 254.3616 
L 361.152 280.9728 
" clip-path="url(#p742854f72f)" style="fill: #0018ff"/>
    <path d="M 361.152 254.3616 
L 374.4576 254.3616 
L 374.4576 227.7504 
L 361.152 227.7504 
L 361.152 254.3616 
" clip-path="url(#p742854f72f)" style="fill: #0080ff"/>
    <path d="M 361.152 227.7504 
L 374.4576 227.7504 
L 374.4576 201.1392 
L 361.152 201.1392 
L 361.152 227.7504 
" clip-path="url(#p742854f72f)" style="fill: #00e4f8"/>
    <path d="M 361.152 201.1392 
L 374.4576 201.1392 
L 374.4576 174.528 
L 361.152 174.528 
L 361.152 201.1392 
" clip-path="url(#p742854f72f)" style="fill: #53ffa4"/>
    <path d="M 361.152 174.528 
L 374.4576 174.528 
L 374.4576 147.9168 
L 361.152 147.9168 
L 361.152 174.528 
" clip-path="url(#p742854f72f)" style="fill: #a4ff53"/>
    <path d="M 361.152 147.9168 
L 374.4576 147.9168 
L 374.4576 121.3056 
L 361.152 121.3056 
L 361.152 147.9168 
" clip-path="url(#p742854f72f)" style="fill: #f8f500"/>
    <path d="M 361.152 121.3056 
L 374.4576 121.3056 
L 374.4576 94.6944 
L 361.152 94.6944 
L 361.152 121.3056 
" clip-path="url(#p742854f72f)" style="fill: #ff9400"/>
    <path d="M 361.152 94.6944 
L 374.4576 94.6944 
L 374.4576 68.0832 
L 361.152 68.0832 
L 361.152 94.6944 
" clip-path="url(#p742854f72f)" style="fill: #ff3800"/>
    <path d="M 361.152 68.0832 
L 374.4576 68.0832 
L 374.4576 41.472 
L 361.152 41.472 
L 361.152 68.0832 
" clip-path="url(#p742854f72f)" style="fill: #b60000"/>
   </g>
   <g id="matplotlib.axis_3"/>
   <g id="matplotlib.axis_4">
    <g id="ytick_9">
     <g id="line2d_20">
      <defs>
       <path id="mf5472fa7d4" d="M 0 0 
L 3.5 0 
" style="stroke: #000000; stroke-width: 0.8"/>
      </defs>
      <g>
       <use xlink:href="#mf5472fa7d4" x="374.4576" y="307.584" style="stroke: #000000; stroke-width: 0.8"/>
      </g>
     </g>
     <g id="text_23">
      <!-- 0 -->
      <g transform="translate(381.4576 310.984781) scale(0.1 -0.1)">
       <use xlink:href="#Calibri-30"/>
      </g>
     </g>
    </g>
    <g id="ytick_10">
     <g id="line2d_21">
      <g>
       <use xlink:href="#mf5472fa7d4" x="374.4576" y="280.9728" style="stroke: #000000; stroke-width: 0.8"/>
      </g>
     </g>
     <g id="text_24">
      <!-- 0.1 -->
      <g transform="translate(381.4576 284.373581) scale(0.1 -0.1)">
       <use xlink:href="#Calibri-30"/>
       <use xlink:href="#Calibri-2e" x="50.683594"/>
       <use xlink:href="#Calibri-31" x="75.927734"/>
      </g>
     </g>
    </g>
    <g id="ytick_11">
     <g id="line2d_22">
      <g>
       <use xlink:href="#mf5472fa7d4" x="374.4576" y="254.3616" style="stroke: #000000; stroke-width: 0.8"/>
      </g>
     </g>
     <g id="text_25">
      <!-- 0.2 -->
      <g transform="translate(381.4576 257.762381) scale(0.1 -0.1)">
       <use xlink:href="#Calibri-30"/>
       <use xlink:href="#Calibri-2e" x="50.683594"/>
       <use xlink:href="#Calibri-32" x="75.927734"/>
      </g>
     </g>
    </g>
    <g id="ytick_12">
     <g id="line2d_23">
      <g>
       <use xlink:href="#mf5472fa7d4" x="374.4576" y="227.7504" style="stroke: #000000; stroke-width: 0.8"/>
      </g>
     </g>
     <g id="text_26">
      <!-- 0.3 -->
      <g transform="translate(381.4576 231.151181) scale(0.1 -0.1)">
       <use xlink:href="#Calibri-30"/>
       <use xlink:href="#Calibri-2e" x="50.683594"/>
       <use xlink:href="#Calibri-33" x="75.927734"/>
      </g>
     </g>
    </g>
    <g id="ytick_13">
     <g id="line2d_24">
      <g>
       <use xlink:href="#mf5472fa7d4" x="374.4576" y="201.1392" style="stroke: #000000; stroke-width: 0.8"/>
      </g>
     </g>
     <g id="text_27">
      <!-- 0.4 -->
      <g transform="translate(381.4576 204.539981) scale(0.1 -0.1)">
       <use xlink:href="#Calibri-30"/>
       <use xlink:href="#Calibri-2e" x="50.683594"/>
       <use xlink:href="#Calibri-34" x="75.927734"/>
      </g>
     </g>
    </g>
    <g id="ytick_14">
     <g id="line2d_25">
      <g>
       <use xlink:href="#mf5472fa7d4" x="374.4576" y="174.528" style="stroke: #000000; stroke-width: 0.8"/>
      </g>
     </g>
     <g id="text_28">
      <!-- 0.5 -->
      <g transform="translate(381.4576 177.928781) scale(0.1 -0.1)">
       <use xlink:href="#Calibri-30"/>
       <use xlink:href="#Calibri-2e" x="50.683594"/>
       <use xlink:href="#Calibri-35" x="75.927734"/>
      </g>
     </g>
    </g>
    <g id="ytick_15">
     <g id="line2d_26">
      <g>
       <use xlink:href="#mf5472fa7d4" x="374.4576" y="147.9168" style="stroke: #000000; stroke-width: 0.8"/>
      </g>
     </g>
     <g id="text_29">
      <!-- 0.6 -->
      <g transform="translate(381.4576 151.317581) scale(0.1 -0.1)">
       <use xlink:href="#Calibri-30"/>
       <use xlink:href="#Calibri-2e" x="50.683594"/>
       <use xlink:href="#Calibri-36" x="75.927734"/>
      </g>
     </g>
    </g>
    <g id="ytick_16">
     <g id="line2d_27">
      <g>
       <use xlink:href="#mf5472fa7d4" x="374.4576" y="121.3056" style="stroke: #000000; stroke-width: 0.8"/>
      </g>
     </g>
     <g id="text_30">
      <!-- 0.7 -->
      <g transform="translate(381.4576 124.706381) scale(0.1 -0.1)">
       <use xlink:href="#Calibri-30"/>
       <use xlink:href="#Calibri-2e" x="50.683594"/>
       <use xlink:href="#Calibri-37" x="75.927734"/>
      </g>
     </g>
    </g>
    <g id="ytick_17">
     <g id="line2d_28">
      <g>
       <use xlink:href="#mf5472fa7d4" x="374.4576" y="94.6944" style="stroke: #000000; stroke-width: 0.8"/>
      </g>
     </g>
     <g id="text_31">
      <!-- 0.8 -->
      <g transform="translate(381.4576 98.095181) scale(0.1 -0.1)">
       <use xlink:href="#Calibri-30"/>
       <use xlink:href="#Calibri-2e" x="50.683594"/>
       <use xlink:href="#Calibri-38" x="75.927734"/>
      </g>
     </g>
    </g>
    <g id="ytick_18">
     <g id="line2d_29">
      <g>
       <use xlink:href="#mf5472fa7d4" x="374.4576" y="68.0832" style="stroke: #000000; stroke-width: 0.8"/>
      </g>
     </g>
     <g id="text_32">
      <!-- 0.9 -->
      <g transform="translate(381.4576 71.483981) scale(0.1 -0.1)">
       <use xlink:href="#Calibri-30"/>
       <use xlink:href="#Calibri-2e" x="50.683594"/>
       <use xlink:href="#Calibri-39" x="75.927734"/>
      </g>
     </g>
    </g>
    <g id="ytick_19">
     <g id="line2d_30">
      <g>
       <use xlink:href="#mf5472fa7d4" x="374.4576" y="41.472" style="stroke: #000000; stroke-width: 0.8"/>
      </g>
     </g>
     <g id="text_33">
      <!-- 1.0 -->
      <g transform="translate(381.4576 44.872781) scale(0.1 -0.1)">
       <use xlink:href="#Calibri-31"/>
       <use xlink:href="#Calibri-2e" x="50.683594"/>
       <use xlink:href="#Calibri-30" x="75.927734"/>
      </g>
     </g>
    </g>
   </g>
   <g id="LineCollection_1"/>
   <g id="patch_8">
    <path d="M 361.152 307.584 
L 367.8048 307.584 
L 374.4576 307.584 
L 374.4576 41.472 
L 367.8048 41.472 
L 361.152 41.472 
L 361.152 307.584 
z
" style="fill: none; stroke: #000000; stroke-width: 0.8; stroke-linejoin: miter; stroke-linecap: square"/>
   </g>
   <g id="text_34">
    <!-- $\mathit{E}_{\mathrm{dis}}$/$\mathit{E}_{\mathrm{i}}$ -->
    <g transform="translate(353.2548 35.472) scale(0.1 -0.1)">
     <defs>
      <path id="DejaVuSans-Oblique-45" d="M 1081 4666 
L 4031 4666 
L 3928 4134 
L 1606 4134 
L 1338 2753 
L 3566 2753 
L 3463 2222 
L 1234 2222 
L 909 531 
L 3284 531 
L 3181 0 
L 172 0 
L 1081 4666 
z
" transform="scale(0.015625)"/>
      <path id="DejaVuSans-64" d="M 2906 2969 
L 2906 4863 
L 3481 4863 
L 3481 0 
L 2906 0 
L 2906 525 
Q 2725 213 2448 61 
Q 2172 -91 1784 -91 
Q 1150 -91 751 415 
Q 353 922 353 1747 
Q 353 2572 751 3078 
Q 1150 3584 1784 3584 
Q 2172 3584 2448 3432 
Q 2725 3281 2906 2969 
z
M 947 1747 
Q 947 1113 1208 752 
Q 1469 391 1925 391 
Q 2381 391 2643 752 
Q 2906 1113 2906 1747 
Q 2906 2381 2643 2742 
Q 2381 3103 1925 3103 
Q 1469 3103 1208 2742 
Q 947 2381 947 1747 
z
" transform="scale(0.015625)"/>
      <path id="DejaVuSans-69" d="M 603 3500 
L 1178 3500 
L 1178 0 
L 603 0 
L 603 3500 
z
M 603 4863 
L 1178 4863 
L 1178 4134 
L 603 4134 
L 603 4863 
z
" transform="scale(0.015625)"/>
      <path id="DejaVuSans-73" d="M 2834 3397 
L 2834 2853 
Q 2591 2978 2328 3040 
Q 2066 3103 1784 3103 
Q 1356 3103 1142 2972 
Q 928 2841 928 2578 
Q 928 2378 1081 2264 
Q 1234 2150 1697 2047 
L 1894 2003 
Q 2506 1872 2764 1633 
Q 3022 1394 3022 966 
Q 3022 478 2636 193 
Q 2250 -91 1575 -91 
Q 1294 -91 989 -36 
Q 684 19 347 128 
L 347 722 
Q 666 556 975 473 
Q 1284 391 1588 391 
Q 1994 391 2212 530 
Q 2431 669 2431 922 
Q 2431 1156 2273 1281 
Q 2116 1406 1581 1522 
L 1381 1569 
Q 847 1681 609 1914 
Q 372 2147 372 2553 
Q 372 3047 722 3315 
Q 1072 3584 1716 3584 
Q 2034 3584 2315 3537 
Q 2597 3491 2834 3397 
z
" transform="scale(0.015625)"/>
     </defs>
     <use xlink:href="#DejaVuSans-Oblique-45" transform="translate(0 0.09375)"/>
     <use xlink:href="#DejaVuSans-64" transform="translate(63.183594 -16.3125) scale(0.7)"/>
     <use xlink:href="#DejaVuSans-69" transform="translate(107.617188 -16.3125) scale(0.7)"/>
     <use xlink:href="#DejaVuSans-73" transform="translate(127.06543 -16.3125) scale(0.7)"/>
     <use xlink:href="#Calibri-2f" transform="translate(166.269531 0.09375)"/>
     <use xlink:href="#DejaVuSans-Oblique-45" transform="translate(204.892578 0.09375)"/>
     <use xlink:href="#DejaVuSans-69" transform="translate(268.076172 -16.3125) scale(0.7)"/>
    </g>
   </g>
  </g>
 </g>
 <defs>
  <clipPath id="p3c0bce7fa9">
   <rect x="57.6" y="41.472" width="285.696" height="266.112"/>
  </clipPath>
  <clipPath id="p742854f72f">
   <rect x="361.152" y="41.472" width="13.3056" height="266.112"/>
  </clipPath>
 </defs>
</svg>
