<?xml version="1.0" encoding="utf-8" standalone="no"?>
<!DOCTYPE svg PUBLIC "-//W3C//DTD SVG 1.1//EN"
  "http://www.w3.org/Graphics/SVG/1.1/DTD/svg11.dtd">
<svg xmlns:xlink="http://www.w3.org/1999/xlink" width="460.8pt" height="345.6pt" viewBox="0 0 460.8 345.6" xmlns="http://www.w3.org/2000/svg" version="1.1">
 <metadata>
  <rdf:RDF xmlns:dc="http://purl.org/dc/elements/1.1/" xmlns:cc="http://creativecommons.org/ns#" xmlns:rdf="http://www.w3.org/1999/02/22-rdf-syntax-ns#">
   <cc:Work>
    <dc:type rdf:resource="http://purl.org/dc/dcmitype/StillImage"/>
    <dc:date>2024-01-22T08:41:03.393342</dc:date>
    <dc:format>image/svg+xml</dc:format>
    <dc:creator>
     <cc:Agent>
      <dc:title>Matplotlib v3.7.1, https://matplotlib.org/</dc:title>
     </cc:Agent>
    </dc:creator>
   </cc:Work>
  </rdf:RDF>
 </metadata>
 <defs>
  <style type="text/css">*{stroke-linejoin: round; stroke-linecap: butt}</style>
 </defs>
 <g id="figure_1">
  <g id="patch_1">
   <path d="M 0 345.6 
L 460.8 345.6 
L 460.8 0 
L 0 0 
z
" style="fill: #ffffff"/>
  </g>
  <g id="axes_1">
   <g id="patch_2">
    <path d="M 57.6 307.584 
L 343.296 307.584 
L 343.296 41.472 
L 57.6 41.472 
z
" style="fill: #ffffff"/>
   </g>
   <g id="PathCollection_1">
    <path clip-path="url(#pa5887391de)" style="fill: #0000b6"/>
   </g>
   <g id="PathCollection_2">
    <path clip-path="url(#pa5887391de)" style="fill: #0018ff"/>
   </g>
   <g id="PathCollection_3">
    <path clip-path="url(#pa5887391de)" style="fill: #0080ff"/>
   </g>
   <g id="PathCollection_4">
    <path d="M 57.62857 82.535284 
L 57.867343 81.910063 
L 58.062682 81.3888 
L 58.335238 80.649976 
L 58.422394 80.41452 
L 59.218076 78.206034 
L 59.26936 78.0624 
L 59.643782 76.989411 
L 60.091878 75.71028 
L 60.124337 75.614996 
L 60.430773 74.736 
L 60.680316 73.980297 
L 60.753701 73.76172 
L 60.988251 73.055336 
L 61.531826 71.4096 
L 61.807869 70.554185 
L 62.287173 69.05748 
L 62.50442 68.358742 
L 62.539246 68.251123 
L 62.592371 68.0832 
L 62.741148 67.593592 
L 62.893058 67.10892 
L 63.046339 66.605077 
L 63.604689 64.7568 
L 63.676947 64.511879 
L 63.93941 63.618425 
L 64.247399 62.574299 
L 64.297103 62.40468 
L 64.341129 62.249665 
L 64.467494 61.815976 
L 64.581776 61.4304 
L 64.715641 60.949794 
L 64.857373 60.45612 
L 65.411736 58.463352 
L 65.511108 58.104 
L 65.889856 56.700871 
L 66.148002 55.75188 
L 66.181951 55.622927 
L 66.274897 55.285892 
L 66.411913 54.7776 
L 66.579562 54.118633 
L 66.661263 53.80332 
L 66.981351 52.560677 
L 67.266252 51.4512 
L 67.62986 50.000114 
L 67.854605 49.09908 
L 68.032171 48.362064 
L 68.091724 48.1248 
L 68.127385 47.973635 
L 68.328978 47.15052 
L 68.684124 45.648868 
L 68.884475 44.7984 
L 69.395924 42.572473 
L 69.424857 42.44628 
L 69.476008 42.219179 
L 69.645513 41.472 
L 68.294554 41.472 
L 66.770842 41.472 
L 65.24713 41.472 
L 63.723418 41.472 
L 62.199706 41.472 
L 60.675994 41.472 
L 59.152282 41.472 
L 57.62857 41.472 
L 57.62857 44.7984 
L 57.62857 48.1248 
L 57.62857 51.4512 
L 57.62857 54.7776 
L 57.62857 58.104 
L 57.62857 61.4304 
L 57.62857 64.7568 
L 57.62857 68.0832 
L 57.62857 71.4096 
L 57.62857 74.736 
L 57.62857 78.0624 
L 57.62857 81.3888 
" clip-path="url(#pa5887391de)" style="fill: #00e4f8"/>
   </g>
   <g id="PathCollection_5">
    <path d="M 69.645513 41.472 
L 69.476008 42.219179 
L 69.424857 42.44628 
L 69.395924 42.572473 
L 68.884475 44.7984 
L 68.684124 45.648868 
L 68.328978 47.15052 
L 68.127385 47.973635 
L 68.091724 48.1248 
L 68.032171 48.362064 
L 67.854605 49.09908 
L 67.62986 50.000114 
L 67.266252 51.4512 
L 66.981351 52.560677 
L 66.661263 53.80332 
L 66.579562 54.118633 
L 66.411913 54.7776 
L 66.274897 55.285892 
L 66.181951 55.622927 
L 66.148002 55.75188 
L 65.889856 56.700871 
L 65.511108 58.104 
L 65.411736 58.463352 
L 64.857373 60.45612 
L 64.715641 60.949794 
L 64.581776 61.4304 
L 64.467494 61.815976 
L 64.341129 62.249665 
L 64.297103 62.40468 
L 64.247399 62.574299 
L 63.93941 63.618425 
L 63.676947 64.511879 
L 63.604689 64.7568 
L 63.046339 66.605077 
L 62.893058 67.10892 
L 62.741148 67.593592 
L 62.592371 68.0832 
L 62.539246 68.251123 
L 62.50442 68.358742 
L 62.287173 69.05748 
L 61.807869 70.554185 
L 61.531826 71.4096 
L 60.988251 73.055336 
L 60.753701 73.76172 
L 60.680316 73.980297 
L 60.430773 74.736 
L 60.124337 75.614996 
L 60.091878 75.71028 
L 59.643782 76.989411 
L 59.26936 78.0624 
L 59.218076 78.206034 
L 58.422394 80.41452 
L 58.335238 80.649976 
L 58.062682 81.3888 
L 57.867343 81.910063 
L 57.62857 82.535284 
L 57.62857 84.7152 
L 57.62857 88.0416 
L 57.62857 91.368 
L 57.62857 94.6944 
L 57.62857 98.0208 
L 57.62857 101.3472 
L 57.62857 104.6736 
L 57.62857 108 
L 57.62857 111.3264 
L 57.62857 114.6528 
L 57.62857 117.9792 
L 57.62857 121.3056 
L 57.62857 124.632 
L 57.62857 127.9584 
L 57.62857 131.2848 
L 57.62857 134.6112 
L 57.62857 137.9376 
L 57.62857 141.264 
L 57.62857 144.5904 
L 57.62857 146.566297 
L 57.938862 146.225778 
L 58.912665 145.113504 
L 59.228393 144.756557 
L 59.372362 144.5904 
L 60.437953 143.33582 
L 61.05382 142.599088 
L 61.205674 142.42034 
L 61.357279 142.23828 
L 62.022902 141.423877 
L 62.154247 141.264 
L 62.173383 141.240197 
L 62.939541 140.28972 
L 63.153328 140.019444 
L 63.385071 139.720835 
L 63.930431 139.028655 
L 64.77736 137.9376 
L 65.070534 137.552075 
L 65.98456 136.327724 
L 66.368534 135.817261 
L 66.540399 135.58548 
L 66.722928 135.34107 
L 67.25537 134.6112 
L 67.527651 134.231921 
L 67.662457 134.039617 
L 67.950638 133.63692 
L 68.810459 132.411067 
L 69.586715 131.2848 
L 69.767445 131.016954 
L 69.909574 130.803567 
L 70.631499 129.733762 
L 71.162989 128.93268 
L 71.627982 128.217024 
L 71.686564 128.128818 
L 71.797132 127.9584 
L 72.003989 127.630996 
L 72.415503 126.987648 
L 72.417773 126.98412 
L 72.418718 126.982621 
L 72.420118 126.980363 
L 73.104372 125.889963 
L 73.884286 124.632 
L 74.172082 124.157572 
L 75.29346 122.27988 
L 75.353389 122.1773 
L 75.535736 121.87253 
L 75.86712 121.3056 
L 76.213531 120.700609 
L 76.399658 120.367725 
L 76.420521 120.33132 
L 77.572532 118.275459 
L 77.736107 117.9792 
L 78.642129 116.301043 
L 79.002205 115.62708 
L 79.173252 115.301166 
L 79.518236 114.6528 
L 79.823608 114.055405 
L 80.018504 113.67852 
L 80.827725 112.076237 
L 81.201331 111.3264 
L 81.781793 110.134393 
L 82.341448 108.97428 
L 82.363391 108.929347 
L 82.806817 108 
L 82.942329 107.708534 
L 83.020043 107.53735 
L 83.259189 107.02572 
L 83.932561 105.548773 
L 84.326675 104.6736 
L 84.835797 103.516269 
L 85.357018 102.32148 
L 85.558656 101.851869 
L 85.778669 101.3472 
L 85.997499 100.821281 
L 86.187221 100.37292 
L 86.883129 98.684528 
L 87.153656 98.0208 
L 87.796379 96.405777 
L 88.087555 95.66868 
L 88.190325 95.404684 
L 88.471259 94.6944 
L 88.653844 94.213354 
L 88.764446 93.914855 
L 88.839146 93.72012 
L 89.676237 91.476533 
L 89.716327 91.368 
L 90.048053 90.44776 
L 90.566039 89.01588 
L 90.599301 88.921251 
L 90.915392 88.0416 
L 91.170758 87.298185 
L 91.24816 87.06732 
L 91.472139 86.411787 
L 92.048387 84.7152 
L 92.310962 83.922774 
L 92.823372 82.36308 
L 93.030975 81.711649 
L 93.072645 81.58598 
L 93.136507 81.3888 
L 93.317613 80.806754 
L 93.443459 80.41452 
L 93.568009 80.014221 
L 94.170539 78.0624 
L 94.187173 78.007141 
L 94.244367 77.816219 
L 94.785232 76.018728 
L 94.877358 75.71028 
L 94.960013 75.424468 
L 95.068434 75.058915 
L 95.165914 74.736 
L 95.234798 74.495362 
L 95.279252 74.336208 
L 95.447008 73.76172 
L 95.962848 71.93677 
L 96.110858 71.4096 
L 96.688721 69.297786 
L 96.754986 69.05748 
L 96.763496 69.025559 
L 97.022969 68.0832 
L 97.221741 67.318091 
L 97.274751 67.10892 
L 97.515669 66.182915 
L 97.885395 64.7568 
L 98.19937 63.513697 
L 98.478021 62.40468 
L 98.698839 61.493657 
L 98.714821 61.4304 
L 98.724353 61.390214 
L 98.954356 60.45612 
L 99.258853 59.173843 
L 99.511763 58.104 
L 99.939737 56.244751 
L 100.052907 55.75188 
L 100.124741 55.448196 
L 100.279622 54.7776 
L 100.459914 53.941241 
L 100.49025 53.80332 
L 100.623497 53.195671 
L 101.005258 51.4512 
L 101.26266 50.242734 
L 101.505548 49.09908 
L 101.678984 48.248895 
L 101.705611 48.1248 
L 101.715626 48.075051 
L 101.722495 48.04005 
L 101.908105 47.15052 
L 102.208017 45.653734 
L 102.379035 44.7984 
L 102.794331 42.663091 
L 102.83707 42.44628 
L 102.845326 42.402587 
L 103.024329 41.472 
L 101.816218 41.472 
L 100.292506 41.472 
L 98.768794 41.472 
L 97.245082 41.472 
L 95.72137 41.472 
L 94.197658 41.472 
L 92.673946 41.472 
L 91.150234 41.472 
L 89.626522 41.472 
L 88.10281 41.472 
L 86.579098 41.472 
L 85.055386 41.472 
L 83.531674 41.472 
L 82.007962 41.472 
L 80.48425 41.472 
L 78.960538 41.472 
L 77.436826 41.472 
L 75.913114 41.472 
L 74.389402 41.472 
L 72.86569 41.472 
L 71.341978 41.472 
L 69.818266 41.472 
" clip-path="url(#pa5887391de)" style="fill: #53ffa4"/>
   </g>
   <g id="PathCollection_6">
    <path d="M 103.024329 41.472 
L 102.845326 42.402587 
L 102.83707 42.44628 
L 102.794331 42.663091 
L 102.379035 44.7984 
L 102.208017 45.653734 
L 101.908105 47.15052 
L 101.722495 48.04005 
L 101.715626 48.075051 
L 101.705611 48.1248 
L 101.678984 48.248895 
L 101.505548 49.09908 
L 101.26266 50.242734 
L 101.005258 51.4512 
L 100.623497 53.195671 
L 100.49025 53.80332 
L 100.459914 53.941241 
L 100.279622 54.7776 
L 100.124741 55.448196 
L 100.052907 55.75188 
L 99.939737 56.244751 
L 99.511763 58.104 
L 99.258853 59.173843 
L 98.954356 60.45612 
L 98.724353 61.390214 
L 98.714821 61.4304 
L 98.698839 61.493657 
L 98.478021 62.40468 
L 98.19937 63.513697 
L 97.885395 64.7568 
L 97.515669 66.182915 
L 97.274751 67.10892 
L 97.221741 67.318091 
L 97.022969 68.0832 
L 96.763496 69.025559 
L 96.754986 69.05748 
L 96.688721 69.297786 
L 96.110858 71.4096 
L 95.962848 71.93677 
L 95.447008 73.76172 
L 95.279252 74.336208 
L 95.234798 74.495362 
L 95.165914 74.736 
L 95.068434 75.058915 
L 94.960013 75.424468 
L 94.877358 75.71028 
L 94.785232 76.018728 
L 94.244367 77.816219 
L 94.187173 78.007141 
L 94.170539 78.0624 
L 93.568009 80.014221 
L 93.443459 80.41452 
L 93.317613 80.806754 
L 93.136507 81.3888 
L 93.072645 81.58598 
L 93.030975 81.711649 
L 92.823372 82.36308 
L 92.310962 83.922774 
L 92.048387 84.7152 
L 91.472139 86.411787 
L 91.24816 87.06732 
L 91.170758 87.298185 
L 90.915392 88.0416 
L 90.599301 88.921251 
L 90.566039 89.01588 
L 90.048053 90.44776 
L 89.716327 91.368 
L 89.676237 91.476533 
L 88.839146 93.72012 
L 88.764446 93.914855 
L 88.653844 94.213354 
L 88.471259 94.6944 
L 88.190325 95.404684 
L 88.087555 95.66868 
L 87.796379 96.405777 
L 87.153656 98.0208 
L 86.883129 98.684528 
L 86.187221 100.37292 
L 85.997499 100.821281 
L 85.778669 101.3472 
L 85.558656 101.851869 
L 85.357018 102.32148 
L 84.835797 103.516269 
L 84.326675 104.6736 
L 83.932561 105.548773 
L 83.259189 107.02572 
L 83.020043 107.53735 
L 82.942329 107.708534 
L 82.806817 108 
L 82.363391 108.929347 
L 82.341448 108.97428 
L 81.781793 110.134393 
L 81.201331 111.3264 
L 80.827725 112.076237 
L 80.018504 113.67852 
L 79.823608 114.055405 
L 79.518236 114.6528 
L 79.173252 115.301166 
L 79.002205 115.62708 
L 78.642129 116.301043 
L 77.736107 117.9792 
L 77.572532 118.275459 
L 76.420521 120.33132 
L 76.399658 120.367725 
L 76.213531 120.700609 
L 75.86712 121.3056 
L 75.535736 121.87253 
L 75.353389 122.1773 
L 75.29346 122.27988 
L 74.172082 124.157572 
L 73.884286 124.632 
L 73.104372 125.889963 
L 72.420118 126.980363 
L 72.418718 126.982621 
L 72.417773 126.98412 
L 72.415503 126.987648 
L 72.003989 127.630996 
L 71.797132 127.9584 
L 71.686564 128.128818 
L 71.627982 128.217024 
L 71.162989 128.93268 
L 70.631499 129.733762 
L 69.909574 130.803567 
L 69.767445 131.016954 
L 69.586715 131.2848 
L 68.810459 132.411067 
L 67.950638 133.63692 
L 67.662457 134.039617 
L 67.527651 134.231921 
L 67.25537 134.6112 
L 66.722928 135.34107 
L 66.540399 135.58548 
L 66.368534 135.817261 
L 65.98456 136.327724 
L 65.070534 137.552075 
L 64.77736 137.9376 
L 63.930431 139.028655 
L 63.385071 139.720835 
L 63.153328 140.019444 
L 62.939541 140.28972 
L 62.173383 141.240197 
L 62.154247 141.264 
L 62.022902 141.423877 
L 61.357279 142.23828 
L 61.205674 142.42034 
L 61.05382 142.599088 
L 60.437953 143.33582 
L 59.372362 144.5904 
L 59.228393 144.756557 
L 58.912665 145.113504 
L 57.938862 146.225778 
L 57.62857 146.566297 
L 57.62857 147.9168 
L 57.62857 151.2432 
L 57.62857 154.5696 
L 57.62857 157.896 
L 57.62857 161.2224 
L 57.62857 164.5488 
L 57.62857 167.8752 
L 57.62857 171.2016 
L 57.62857 174.528 
L 57.62857 177.8544 
L 57.62857 181.1808 
L 57.62857 184.5072 
L 57.62857 187.8336 
L 57.62857 188.981594 
L 58.054062 188.762487 
L 58.231856 188.665909 
L 59.384768 188.043829 
L 59.770565 187.8336 
L 60.918977 187.200204 
L 61.275627 186.997988 
L 61.523012 186.85932 
L 62.914873 186.068475 
L 63.491501 185.729502 
L 63.910041 185.490789 
L 65.123081 184.778009 
L 65.319588 184.665382 
L 65.586363 184.5072 
L 66.649203 183.866109 
L 66.924956 183.69495 
L 67.706597 183.223637 
L 69.35217 182.198329 
L 69.377286 182.183043 
L 69.421941 182.15508 
L 69.794333 181.92253 
L 70.950694 181.1808 
L 71.178296 181.032788 
L 72.366764 180.254121 
L 72.439562 180.20652 
L 73.213884 179.689537 
L 73.702115 179.354809 
L 74.753442 178.649132 
L 75.901582 177.8544 
L 75.911753 177.847229 
L 75.914907 177.844948 
L 77.062085 177.036307 
L 78.185125 176.220795 
L 78.595196 175.928888 
L 79.179469 175.50228 
L 80.477211 174.534364 
L 80.48493 174.528615 
L 80.485751 174.528 
L 80.488482 174.525907 
L 81.764125 173.55372 
L 82.36541 173.085511 
L 82.843218 172.704561 
L 83.856582 171.910904 
L 84.737283 171.2016 
L 85.012497 170.975556 
L 85.114543 170.889816 
L 86.074978 170.101061 
L 87.558337 168.84948 
L 87.608713 168.806245 
L 87.923441 168.540057 
L 88.689586 167.8752 
L 89.02756 167.578978 
L 89.163611 167.456606 
L 89.790794 166.90092 
L 90.437049 166.318253 
L 90.894839 165.894844 
L 91.330734 165.500118 
L 92.359388 164.5488 
L 92.578983 164.341487 
L 92.92012 164.01138 
L 93.915463 163.061509 
L 94.607772 162.387317 
L 94.693703 162.305311 
L 94.804766 162.19668 
L 95.753525 161.251477 
L 95.762458 161.242721 
L 95.782668 161.2224 
L 96.272565 160.723973 
L 96.741208 160.24812 
L 96.780281 160.2077 
L 96.813049 160.173003 
L 97.534813 159.423014 
L 98.572762 158.323955 
L 98.837818 158.046686 
L 98.978555 157.896 
L 100.066631 156.705541 
L 100.639472 156.067333 
L 100.865352 155.820176 
L 101.112241 155.54388 
L 101.899751 154.645137 
L 101.965389 154.5696 
L 102.484299 153.965477 
L 102.803288 153.59532 
L 102.861878 153.525971 
L 102.920178 153.455477 
L 103.33993 152.948493 
L 103.33993 151.2432 
L 103.33993 147.9168 
L 103.33993 144.5904 
L 103.33993 141.264 
L 103.33993 137.9376 
L 103.33993 134.6112 
L 103.33993 131.2848 
L 103.33993 127.9584 
L 103.33993 124.632 
L 103.33993 121.3056 
L 103.33993 117.9792 
L 103.33993 114.6528 
L 103.33993 111.3264 
L 103.33993 108 
L 103.33993 104.6736 
L 103.33993 101.3472 
L 103.33993 98.0208 
L 103.33993 94.6944 
L 103.33993 91.368 
L 103.33993 88.0416 
L 103.33993 84.7152 
L 103.33993 81.3888 
L 103.33993 78.0624 
L 103.33993 74.736 
L 103.33993 71.4096 
L 103.33993 68.0832 
L 103.33993 64.7568 
L 103.33993 61.4304 
L 103.33993 58.104 
L 103.33993 54.7776 
L 103.33993 51.4512 
L 103.33993 48.1248 
L 103.33993 44.7984 
L 103.33993 41.472 
" clip-path="url(#pa5887391de)" style="fill: #a4ff53"/>
   </g>
   <g id="PathCollection_7">
    <path d="M 103.33993 152.948493 
L 102.920178 153.455477 
L 102.861878 153.525971 
L 102.803288 153.59532 
L 102.484299 153.965477 
L 101.965389 154.5696 
L 101.899751 154.645137 
L 101.112241 155.54388 
L 100.865352 155.820176 
L 100.639472 156.067333 
L 100.066631 156.705541 
L 98.978555 157.896 
L 98.837818 158.046686 
L 98.572762 158.323955 
L 97.534813 159.423014 
L 96.813049 160.173003 
L 96.780281 160.2077 
L 96.741208 160.24812 
L 96.272565 160.723973 
L 95.782668 161.2224 
L 95.762458 161.242721 
L 95.753525 161.251477 
L 94.804766 162.19668 
L 94.693703 162.305311 
L 94.607772 162.387317 
L 93.915463 163.061509 
L 92.92012 164.01138 
L 92.578983 164.341487 
L 92.359388 164.5488 
L 91.330734 165.500118 
L 90.894839 165.894844 
L 90.437049 166.318253 
L 89.790794 166.90092 
L 89.163611 167.456606 
L 89.02756 167.578978 
L 88.689586 167.8752 
L 87.923441 168.540057 
L 87.608713 168.806245 
L 87.558337 168.84948 
L 86.074978 170.101061 
L 85.114543 170.889816 
L 85.012497 170.975556 
L 84.737283 171.2016 
L 83.856582 171.910904 
L 82.843218 172.704561 
L 82.36541 173.085511 
L 81.764125 173.55372 
L 80.488482 174.525907 
L 80.485751 174.528 
L 80.48493 174.528615 
L 80.477211 174.534364 
L 79.179469 175.50228 
L 78.595196 175.928888 
L 78.185125 176.220795 
L 77.062085 177.036307 
L 75.914907 177.844948 
L 75.911753 177.847229 
L 75.901582 177.8544 
L 74.753442 178.649132 
L 73.702115 179.354809 
L 73.213884 179.689537 
L 72.439562 180.20652 
L 72.366764 180.254121 
L 71.178296 181.032788 
L 70.950694 181.1808 
L 69.794333 181.92253 
L 69.421941 182.15508 
L 69.377286 182.183043 
L 69.35217 182.198329 
L 67.706597 183.223637 
L 66.924956 183.69495 
L 66.649203 183.866109 
L 65.586363 184.5072 
L 65.319588 184.665382 
L 65.123081 184.778009 
L 63.910041 185.490789 
L 63.491501 185.729502 
L 62.914873 186.068475 
L 61.523012 186.85932 
L 61.275627 186.997988 
L 60.918977 187.200204 
L 59.770565 187.8336 
L 59.384768 188.043829 
L 58.231856 188.665909 
L 58.054062 188.762487 
L 57.62857 188.981594 
L 57.62857 191.16 
L 57.62857 194.4864 
L 57.62857 197.8128 
L 57.62857 201.1392 
L 57.62857 204.4656 
L 57.62857 207.792 
L 57.62857 211.1184 
L 57.62857 214.4448 
L 57.62857 217.7712 
L 57.62857 221.0976 
L 57.62857 222.084261 
L 58.038479 221.99247 
L 58.20826 221.951246 
L 59.70323 221.595804 
L 61.749594 221.0976 
L 62.103281 221.010406 
L 62.370756 220.942925 
L 62.658594 220.870652 
L 64.492992 220.41566 
L 65.644676 220.12332 
L 66.253149 219.967431 
L 66.359634 219.938446 
L 67.143817 219.736944 
L 67.42973 219.659188 
L 68.976667 219.260314 
L 69.566378 219.098762 
L 70.046589 218.974566 
L 70.897438 218.741669 
L 71.692049 218.535438 
L 72.777475 218.236128 
L 72.945599 218.19236 
L 74.377163 217.797919 
L 74.399024 217.792207 
L 74.474699 217.7712 
L 75.840231 217.387074 
L 75.994695 217.341228 
L 77.097825 217.031132 
L 77.88291 216.797358 
L 78.73022 216.557322 
L 79.21855 216.41136 
L 79.787563 216.25027 
L 81.402822 215.765875 
L 81.615939 215.705066 
L 82.447482 215.454734 
L 82.46791 215.448908 
L 82.566661 215.41908 
L 84.093442 214.952788 
L 85.723885 214.4448 
L 86.246749 214.280434 
L 86.357477 214.244397 
L 87.04644 214.022199 
L 88.150429 213.667684 
L 88.606405 213.522344 
L 88.76586 213.47052 
L 90.450219 212.916605 
L 90.834308 212.783468 
L 91.42892 212.5872 
L 92.109085 212.351542 
L 93.089871 212.026402 
L 94.091802 211.676308 
L 94.290941 211.610043 
L 95.698561 211.1184 
L 95.71818 211.111437 
L 95.725874 211.108566 
L 97.146701 210.599891 
L 97.358528 210.520488 
L 98.334849 210.17106 
L 99.383497 209.776446 
L 99.995928 209.555307 
L 100.634917 209.313742 
L 100.939242 209.203884 
L 102.092229 208.76628 
L 102.654523 208.55005 
L 103.066917 208.388011 
L 103.33993 208.278492 
L 103.33993 207.792 
L 103.33993 204.4656 
L 103.33993 201.1392 
L 103.33993 197.8128 
L 103.33993 194.4864 
L 103.33993 191.16 
L 103.33993 187.8336 
L 103.33993 184.5072 
L 103.33993 181.1808 
L 103.33993 177.8544 
L 103.33993 174.528 
L 103.33993 171.2016 
L 103.33993 167.8752 
L 103.33993 164.5488 
L 103.33993 161.2224 
L 103.33993 157.896 
L 103.33993 154.5696 
" clip-path="url(#pa5887391de)" style="fill: #f8f500"/>
   </g>
   <g id="PathCollection_8">
    <path d="M 103.33993 208.278492 
L 103.066917 208.388011 
L 102.654523 208.55005 
L 102.092229 208.76628 
L 100.939242 209.203884 
L 100.634917 209.313742 
L 99.995928 209.555307 
L 99.383497 209.776446 
L 98.334849 210.17106 
L 97.358528 210.520488 
L 97.146701 210.599891 
L 95.725874 211.108566 
L 95.71818 211.111437 
L 95.698561 211.1184 
L 94.290941 211.610043 
L 94.091802 211.676308 
L 93.089871 212.026402 
L 92.109085 212.351542 
L 91.42892 212.5872 
L 90.834308 212.783468 
L 90.450219 212.916605 
L 88.76586 213.47052 
L 88.606405 213.522344 
L 88.150429 213.667684 
L 87.04644 214.022199 
L 86.357477 214.244397 
L 86.246749 214.280434 
L 85.723885 214.4448 
L 84.093442 214.952788 
L 82.566661 215.41908 
L 82.46791 215.448908 
L 82.447482 215.454734 
L 81.615939 215.705066 
L 81.402822 215.765875 
L 79.787563 216.25027 
L 79.21855 216.41136 
L 78.73022 216.557322 
L 77.88291 216.797358 
L 77.097825 217.031132 
L 75.994695 217.341228 
L 75.840231 217.387074 
L 74.474699 217.7712 
L 74.399024 217.792207 
L 74.377163 217.797919 
L 72.945599 218.19236 
L 72.777475 218.236128 
L 71.692049 218.535438 
L 70.897438 218.741669 
L 70.046589 218.974566 
L 69.566378 219.098762 
L 68.976667 219.260314 
L 67.42973 219.659188 
L 67.143817 219.736944 
L 66.359634 219.938446 
L 66.253149 219.967431 
L 65.644676 220.12332 
L 64.492992 220.41566 
L 62.658594 220.870652 
L 62.370756 220.942925 
L 62.103281 221.010406 
L 61.749594 221.0976 
L 59.70323 221.595804 
L 58.20826 221.951246 
L 58.038479 221.99247 
L 57.62857 222.084261 
L 57.62857 224.424 
L 57.62857 227.7504 
L 57.62857 231.0768 
L 57.62857 234.4032 
L 57.62857 237.7296 
L 57.62857 241.056 
L 57.62857 244.3824 
L 57.62857 247.7088 
L 57.62857 250.897894 
L 57.654961 250.896105 
L 59.050296 250.812556 
L 59.261193 250.797437 
L 60.615481 250.716271 
L 60.738173 250.707485 
L 62.014734 250.63139 
L 62.397206 250.604039 
L 63.62768 250.530619 
L 63.821786 250.516754 
L 64.97821 250.448123 
L 65.534218 250.408459 
L 66.639467 250.342799 
L 66.905817 250.323819 
L 67.940684 250.26267 
L 68.672274 250.210603 
L 69.650826 250.152719 
L 69.990284 250.128585 
L 70.902114 250.074937 
L 71.811418 250.010369 
L 72.661738 249.960283 
L 73.075206 249.930953 
L 73.862456 249.88483 
L 74.9517 249.807652 
L 75.672183 249.76539 
L 76.160604 249.730817 
L 76.821665 249.692249 
L 78.093169 249.602343 
L 78.682143 249.567937 
L 79.246497 249.528069 
L 79.779692 249.497088 
L 81.235878 249.394327 
L 81.691596 249.367812 
L 82.332907 249.322595 
L 82.736489 249.29924 
L 84.379882 249.183484 
L 84.70052 249.164903 
L 85.419856 249.114277 
L 85.692001 249.09859 
L 87.525238 248.96969 
L 87.708894 248.959089 
L 88.50737 248.902989 
L 88.646176 248.895019 
L 90.672006 248.752814 
L 90.716692 248.750244 
L 91.595471 248.688601 
L 91.598956 248.688402 
L 91.674891 248.68308 
L 93.601188 248.547273 
L 94.102682 248.509337 
L 94.898581 248.45282 
L 96.425269 248.345312 
L 97.672441 248.251011 
L 98.211462 248.212775 
L 99.245672 248.140025 
L 99.591958 248.115903 
L 101.528729 247.968766 
L 102.062242 247.931272 
L 103.280392 247.838776 
L 103.33993 247.834016 
L 103.33993 247.7088 
L 103.33993 244.3824 
L 103.33993 241.056 
L 103.33993 237.7296 
L 103.33993 234.4032 
L 103.33993 231.0768 
L 103.33993 227.7504 
L 103.33993 224.424 
L 103.33993 221.0976 
L 103.33993 217.7712 
L 103.33993 214.4448 
L 103.33993 211.1184 
" clip-path="url(#pa5887391de)" style="fill: #ff9400"/>
   </g>
   <g id="PathCollection_9">
    <path d="M 103.33993 247.834016 
L 103.280392 247.838776 
L 102.062242 247.931272 
L 101.528729 247.968766 
L 99.591958 248.115903 
L 99.245672 248.140025 
L 98.211462 248.212775 
L 97.672441 248.251011 
L 96.425269 248.345312 
L 94.898581 248.45282 
L 94.102682 248.509337 
L 93.601188 248.547273 
L 91.674891 248.68308 
L 91.598956 248.688402 
L 91.595471 248.688601 
L 90.716692 248.750244 
L 90.672006 248.752814 
L 88.646176 248.895019 
L 88.50737 248.902989 
L 87.708894 248.959089 
L 87.525238 248.96969 
L 85.692001 249.09859 
L 85.419856 249.114277 
L 84.70052 249.164903 
L 84.379882 249.183484 
L 82.736489 249.29924 
L 82.332907 249.322595 
L 81.691596 249.367812 
L 81.235878 249.394327 
L 79.779692 249.497088 
L 79.246497 249.528069 
L 78.682143 249.567937 
L 78.093169 249.602343 
L 76.821665 249.692249 
L 76.160604 249.730817 
L 75.672183 249.76539 
L 74.9517 249.807652 
L 73.862456 249.88483 
L 73.075206 249.930953 
L 72.661738 249.960283 
L 71.811418 250.010369 
L 70.902114 250.074937 
L 69.990284 250.128585 
L 69.650826 250.152719 
L 68.672274 250.210603 
L 67.940684 250.26267 
L 66.905817 250.323819 
L 66.639467 250.342799 
L 65.534218 250.408459 
L 64.97821 250.448123 
L 63.821786 250.516754 
L 63.62768 250.530619 
L 62.397206 250.604039 
L 62.014734 250.63139 
L 60.738173 250.707485 
L 60.615481 250.716271 
L 59.261193 250.797437 
L 59.050296 250.812556 
L 57.654961 250.896105 
L 57.62857 250.897894 
L 57.62857 251.0352 
L 57.62857 254.3616 
L 57.62857 257.688 
L 57.62857 261.0144 
L 57.62857 264.3408 
L 57.62857 267.6672 
L 57.62857 270.9936 
L 57.62857 274.32 
L 57.62857 277.6464 
L 57.62857 278.786162 
L 57.846849 278.79683 
L 58.607063 278.836661 
L 59.728468 278.904266 
L 60.430256 278.941549 
L 60.927482 278.971857 
L 61.576607 279.006679 
L 62.859007 279.085714 
L 63.444287 279.117544 
L 64.009227 279.152742 
L 64.543684 279.182086 
L 65.992373 279.273332 
L 66.457243 279.299203 
L 67.092109 279.339621 
L 67.508239 279.362996 
L 69.128633 279.467271 
L 69.469101 279.486653 
L 70.176155 279.532638 
L 70.470217 279.549531 
L 72.267863 279.667691 
L 72.479834 279.680031 
L 73.261395 279.731943 
L 73.42956 279.74182 
L 75.410138 279.874759 
L 75.489416 279.879477 
L 76.347858 279.937696 
L 76.386205 279.939998 
L 77.24022 279.99852 
L 78.424144 280.080002 
L 78.722923 280.10172 
L 79.587807 280.162178 
L 81.251497 280.279005 
L 82.283517 280.355513 
L 82.897456 280.399299 
L 84.072784 280.483493 
L 85.863421 280.618856 
L 86.216052 280.644511 
L 86.887863 280.693594 
L 87.110588 280.709947 
L 89.543877 280.898068 
L 89.696584 280.909445 
L 90.502962 280.9728 
L 92.499668 281.130393 
L 92.883432 281.162231 
L 93.092111 281.179607 
L 95.296584 281.356919 
L 96.233754 281.436131 
L 96.7461 281.47959 
L 98.086833 281.589473 
L 99.594295 281.719272 
L 100.2042 281.770038 
L 100.870238 281.828217 
L 102.225462 281.94708 
L 102.867781 282.003543 
L 102.905041 282.007144 
L 103.33993 282.047173 
L 103.33993 280.9728 
L 103.33993 277.6464 
L 103.33993 274.32 
L 103.33993 270.9936 
L 103.33993 267.6672 
L 103.33993 264.3408 
L 103.33993 261.0144 
L 103.33993 257.688 
L 103.33993 254.3616 
L 103.33993 251.0352 
" clip-path="url(#pa5887391de)" style="fill: #ff3800"/>
   </g>
   <g id="PathCollection_10">
    <path d="M 103.33993 282.047173 
L 102.905041 282.007144 
L 102.867781 282.003543 
L 102.225462 281.94708 
L 100.870238 281.828217 
L 100.2042 281.770038 
L 99.594295 281.719272 
L 98.086833 281.589473 
L 96.7461 281.47959 
L 96.233754 281.436131 
L 95.296584 281.356919 
L 93.092111 281.179607 
L 92.883432 281.162231 
L 92.499668 281.130393 
L 90.502962 280.9728 
L 89.696584 280.909445 
L 89.543877 280.898068 
L 87.110588 280.709947 
L 86.887863 280.693594 
L 86.216052 280.644511 
L 85.863421 280.618856 
L 84.072784 280.483493 
L 82.897456 280.399299 
L 82.283517 280.355513 
L 81.251497 280.279005 
L 79.587807 280.162178 
L 78.722923 280.10172 
L 78.424144 280.080002 
L 77.24022 279.99852 
L 76.386205 279.939998 
L 76.347858 279.937696 
L 75.489416 279.879477 
L 75.410138 279.874759 
L 73.42956 279.74182 
L 73.261395 279.731943 
L 72.479834 279.680031 
L 72.267863 279.667691 
L 70.470217 279.549531 
L 70.176155 279.532638 
L 69.469101 279.486653 
L 69.128633 279.467271 
L 67.508239 279.362996 
L 67.092109 279.339621 
L 66.457243 279.299203 
L 65.992373 279.273332 
L 64.543684 279.182086 
L 64.009227 279.152742 
L 63.444287 279.117544 
L 62.859007 279.085714 
L 61.576607 279.006679 
L 60.927482 278.971857 
L 60.430256 278.941549 
L 59.728468 278.904266 
L 58.607063 278.836661 
L 57.846849 278.79683 
L 57.62857 278.786162 
L 57.62857 280.9728 
L 57.62857 284.2992 
L 57.62857 287.6256 
L 57.62857 290.952 
L 57.62857 294.2784 
L 57.62857 297.6048 
L 57.62857 300.9312 
L 57.62857 304.2576 
L 57.62857 307.584 
L 59.152282 307.584 
L 60.675994 307.584 
L 62.199706 307.584 
L 63.723418 307.584 
L 65.24713 307.584 
L 66.770842 307.584 
L 68.294554 307.584 
L 69.818266 307.584 
L 71.341978 307.584 
L 72.86569 307.584 
L 74.389402 307.584 
L 75.913114 307.584 
L 77.436826 307.584 
L 78.960538 307.584 
L 80.48425 307.584 
L 82.007962 307.584 
L 83.531674 307.584 
L 85.055386 307.584 
L 86.579098 307.584 
L 88.10281 307.584 
L 89.626522 307.584 
L 91.150234 307.584 
L 92.673946 307.584 
L 94.197658 307.584 
L 95.72137 307.584 
L 97.245082 307.584 
L 98.768794 307.584 
L 100.292506 307.584 
L 101.816218 307.584 
L 103.33993 307.584 
L 103.33993 304.2576 
L 103.33993 300.9312 
L 103.33993 297.6048 
L 103.33993 294.2784 
L 103.33993 290.952 
L 103.33993 287.6256 
L 103.33993 284.2992 
" clip-path="url(#pa5887391de)" style="fill: #b60000"/>
   </g>
   <g id="PathCollection_11">
    <path clip-path="url(#pa5887391de)" style="fill: #0000b6"/>
   </g>
   <g id="PathCollection_12">
    <path clip-path="url(#pa5887391de)" style="fill: #0018ff"/>
   </g>
   <g id="PathCollection_13">
    <path clip-path="url(#pa5887391de)" style="fill: #0080ff"/>
   </g>
   <g id="PathCollection_14">
    <path clip-path="url(#pa5887391de)" style="fill: #00e4f8"/>
   </g>
   <g id="PathCollection_15">
    <path d="M 100.4544 53.877125 
L 100.957898 51.674431 
L 101.258401 50.3424 
L 102.162061 45.824687 
L 102.576787 43.797766 
L 103.067861 41.472 
L 100.4544 41.472 
L 100.4544 50.3424 
" clip-path="url(#pa5887391de)" style="fill: #53ffa4"/>
   </g>
   <g id="PathCollection_16">
    <path d="M 103.067861 41.472 
L 102.576787 43.797766 
L 102.162061 45.824687 
L 101.258401 50.3424 
L 100.957898 51.674431 
L 100.4544 53.877125 
L 100.4544 59.2128 
L 100.4544 68.0832 
L 100.4544 76.9536 
L 100.4544 85.824 
L 100.4544 94.6944 
L 100.4544 103.5648 
L 100.4544 112.4352 
L 100.4544 121.3056 
L 100.4544 130.176 
L 100.4544 139.0464 
L 100.4544 147.9168 
L 100.4544 156.260549 
L 100.810402 155.845377 
L 104.179242 151.998576 
L 105.408416 150.51488 
L 106.740087 148.73793 
L 107.402174 147.9168 
L 107.696479 147.529781 
L 109.400047 145.31872 
L 111.504612 142.285103 
L 113.653884 139.0464 
L 115.505065 136.033707 
L 117.459435 132.77408 
L 118.00734 131.847021 
L 119.079355 130.176 
L 119.703423 128.926031 
L 120.081154 128.061976 
L 120.351774 127.57792 
L 121.882263 124.435603 
L 123.477388 121.3056 
L 123.904884 120.392037 
L 126.365191 115.03328 
L 126.980075 113.452637 
L 127.470466 112.4352 
L 127.963707 110.971287 
L 128.464918 109.83712 
L 129.04452 108.283381 
L 130.794378 103.5648 
L 131.754164 100.709939 
L 132.904616 97.29248 
L 133.121287 96.775406 
L 133.905916 94.6944 
L 134.46495 92.27983 
L 134.5134 92.09632 
L 134.813245 91.06211 
L 136.346317 85.824 
L 137.368611 81.923531 
L 138.00695 79.55168 
L 138.291404 78.150366 
L 138.467098 77.564517 
L 138.668174 76.9536 
L 138.827629 76.00023 
L 139.274108 74.35552 
L 140.460186 68.595842 
L 140.580556 68.0832 
L 140.64493 67.773005 
L 141.948249 61.81088 
L 142.254518 59.814914 
L 142.325457 59.559718 
L 142.412529 59.2128 
L 142.450282 58.834894 
L 142.490391 58.503622 
L 142.917745 56.61472 
L 143.479251 53.138126 
L 143.968257 50.3424 
L 144.570185 46.351201 
L 144.980574 44.07008 
L 145.063718 43.349226 
L 145.373786 41.472 
L 140.928 41.472 
L 132.83328 41.472 
L 124.73856 41.472 
L 116.64384 41.472 
L 108.54912 41.472 
" clip-path="url(#pa5887391de)" style="fill: #a4ff53"/>
   </g>
   <g id="PathCollection_17">
    <path d="M 145.373786 41.472 
L 145.063718 43.349226 
L 144.980574 44.07008 
L 144.570185 46.351201 
L 143.968257 50.3424 
L 143.479251 53.138126 
L 142.917745 56.61472 
L 142.490391 58.503622 
L 142.450282 58.834894 
L 142.412529 59.2128 
L 142.325457 59.559718 
L 142.254518 59.814914 
L 141.948249 61.81088 
L 140.64493 67.773005 
L 140.580556 68.0832 
L 140.460186 68.595842 
L 139.274108 74.35552 
L 138.827629 76.00023 
L 138.668174 76.9536 
L 138.467098 77.564517 
L 138.291404 78.150366 
L 138.00695 79.55168 
L 137.368611 81.923531 
L 136.346317 85.824 
L 134.813245 91.06211 
L 134.5134 92.09632 
L 134.46495 92.27983 
L 133.905916 94.6944 
L 133.121287 96.775406 
L 132.904616 97.29248 
L 131.754164 100.709939 
L 130.794378 103.5648 
L 129.04452 108.283381 
L 128.464918 109.83712 
L 127.963707 110.971287 
L 127.470466 112.4352 
L 126.980075 113.452637 
L 126.365191 115.03328 
L 123.904884 120.392037 
L 123.477388 121.3056 
L 121.882263 124.435603 
L 120.351774 127.57792 
L 120.081154 128.061976 
L 119.703423 128.926031 
L 119.079355 130.176 
L 118.00734 131.847021 
L 117.459435 132.77408 
L 115.505065 136.033707 
L 113.653884 139.0464 
L 111.504612 142.285103 
L 109.400047 145.31872 
L 107.696479 147.529781 
L 107.402174 147.9168 
L 106.740087 148.73793 
L 105.408416 150.51488 
L 104.179242 151.998576 
L 100.810402 155.845377 
L 100.4544 156.260549 
L 100.4544 156.7872 
L 100.4544 165.6576 
L 100.4544 174.528 
L 100.4544 183.3984 
L 100.4544 192.2688 
L 100.4544 201.1392 
L 100.4544 209.367941 
L 100.740219 209.25345 
L 106.034101 207.253578 
L 114.183609 203.73728 
L 114.228269 203.716998 
L 119.829965 201.1392 
L 121.471726 200.328211 
L 122.133613 199.956799 
L 124.8711 198.54112 
L 128.597463 196.497484 
L 132.027743 194.399893 
L 133.356614 193.65331 
L 135.617624 192.2688 
L 138.947857 190.098908 
L 144.660483 185.99648 
L 145.397277 185.42703 
L 146.369615 184.749277 
L 148.088568 183.3984 
L 150.136941 181.665496 
L 151.033497 180.80032 
L 151.303153 180.561015 
L 153.49066 178.502318 
L 157.414984 174.854057 
L 157.738638 174.528 
L 163.036736 168.772794 
L 163.489269 168.25568 
L 164.280077 167.43572 
L 165.802298 165.6576 
L 167.640215 163.085468 
L 167.660444 163.05952 
L 167.912172 162.698858 
L 172.121599 156.7872 
L 172.616856 156.031054 
L 176.055695 150.51488 
L 176.646517 149.43268 
L 177.04167 148.843959 
L 177.593583 147.9168 
L 178.790235 145.427874 
L 178.853714 145.31872 
L 178.916881 145.193982 
L 179.628588 143.737004 
L 181.639349 139.675378 
L 181.944159 139.0464 
L 184.400341 133.462097 
L 184.695164 132.77408 
L 184.873398 132.274371 
L 185.844569 130.176 
L 186.129039 129.340075 
L 186.306181 128.727978 
L 186.776898 127.57792 
L 188.552463 122.339903 
L 188.932311 121.3056 
L 189.082047 120.851629 
L 190.995447 115.03328 
L 191.441346 113.318059 
L 191.581198 112.95277 
L 191.7573 112.4352 
L 191.994981 111.301043 
L 192.465917 109.83712 
L 193.065318 107.475798 
L 194.07479 103.5648 
L 195.395237 97.755679 
L 195.502162 97.29248 
L 195.824191 96.26529 
L 196.263502 94.6944 
L 196.586646 92.435551 
L 196.625494 92.09632 
L 197.756853 86.262667 
L 197.844195 85.824 
L 198.05524 84.595933 
L 198.963715 79.55168 
L 199.182802 78.567955 
L 199.581519 76.9536 
L 199.795393 74.396862 
L 199.799738 74.35552 
L 199.845949 74.048691 
L 200.78509 68.0832 
L 201.407884 63.395395 
L 201.642055 61.81088 
L 201.70763 61.018496 
L 201.87239 60.159466 
L 202.07314 59.2128 
L 202.15063 57.608184 
L 202.310443 56.61472 
L 202.586884 53.738227 
L 203.014686 50.3424 
L 203.286516 47.713248 
L 203.726547 44.07008 
L 203.824665 42.316762 
L 203.927113 41.472 
L 197.59104 41.472 
L 189.49632 41.472 
L 181.4016 41.472 
L 173.30688 41.472 
L 165.21216 41.472 
L 157.11744 41.472 
L 149.02272 41.472 
" clip-path="url(#pa5887391de)" style="fill: #f8f500"/>
   </g>
   <g id="PathCollection_18">
    <path d="M 203.927113 41.472 
L 203.824665 42.316762 
L 203.726547 44.07008 
L 203.286516 47.713248 
L 203.014686 50.3424 
L 202.586884 53.738227 
L 202.310443 56.61472 
L 202.15063 57.608184 
L 202.07314 59.2128 
L 201.87239 60.159466 
L 201.70763 61.018496 
L 201.642055 61.81088 
L 201.407884 63.395395 
L 200.78509 68.0832 
L 199.845949 74.048691 
L 199.799738 74.35552 
L 199.795393 74.396862 
L 199.581519 76.9536 
L 199.182802 78.567955 
L 198.963715 79.55168 
L 198.05524 84.595933 
L 197.844195 85.824 
L 197.756853 86.262667 
L 196.625494 92.09632 
L 196.586646 92.435551 
L 196.263502 94.6944 
L 195.824191 96.26529 
L 195.502162 97.29248 
L 195.395237 97.755679 
L 194.07479 103.5648 
L 193.065318 107.475798 
L 192.465917 109.83712 
L 191.994981 111.301043 
L 191.7573 112.4352 
L 191.581198 112.95277 
L 191.441346 113.318059 
L 190.995447 115.03328 
L 189.082047 120.851629 
L 188.932311 121.3056 
L 188.552463 122.339903 
L 186.776898 127.57792 
L 186.306181 128.727978 
L 186.129039 129.340075 
L 185.844569 130.176 
L 184.873398 132.274371 
L 184.695164 132.77408 
L 184.400341 133.462097 
L 181.944159 139.0464 
L 181.639349 139.675378 
L 179.628588 143.737004 
L 178.916881 145.193982 
L 178.853714 145.31872 
L 178.790235 145.427874 
L 177.593583 147.9168 
L 177.04167 148.843959 
L 176.646517 149.43268 
L 176.055695 150.51488 
L 172.616856 156.031054 
L 172.121599 156.7872 
L 167.912172 162.698858 
L 167.660444 163.05952 
L 167.640215 163.085468 
L 165.802298 165.6576 
L 164.280077 167.43572 
L 163.489269 168.25568 
L 163.036736 168.772794 
L 157.738638 174.528 
L 157.414984 174.854057 
L 153.49066 178.502318 
L 151.303153 180.561015 
L 151.033497 180.80032 
L 150.136941 181.665496 
L 148.088568 183.3984 
L 146.369615 184.749277 
L 145.397277 185.42703 
L 144.660483 185.99648 
L 138.947857 190.098908 
L 135.617624 192.2688 
L 133.356614 193.65331 
L 132.027743 194.399893 
L 128.597463 196.497484 
L 124.8711 198.54112 
L 122.133613 199.956799 
L 121.471726 200.328211 
L 119.829965 201.1392 
L 114.228269 203.716998 
L 114.183609 203.73728 
L 106.034101 207.253578 
L 100.740219 209.25345 
L 100.4544 209.367941 
L 100.4544 210.0096 
L 100.4544 218.88 
L 100.4544 227.7504 
L 100.4544 236.6208 
L 100.4544 245.4912 
L 100.4544 248.020049 
L 101.396056 247.982403 
L 106.699695 247.517847 
L 110.229723 247.332848 
L 116.148203 246.802435 
L 117.12044 246.752072 
L 124.154501 246.131226 
L 125.270347 246.073946 
L 131.701868 245.4912 
L 132.794482 245.388558 
L 132.876231 245.37757 
L 140.203872 244.697682 
L 141.857927 244.472163 
L 148.400233 243.844375 
L 149.714182 243.661899 
L 154.990974 243.160964 
L 159.873568 242.470965 
L 163.919691 242.071899 
L 166.653925 241.67693 
L 169.566322 241.392202 
L 178.211427 240.116673 
L 179.327005 240.002742 
L 183.728156 239.336165 
L 183.86669 239.322108 
L 184.530996 239.21888 
L 192.400059 237.938824 
L 199.5539 236.6208 
L 203.007291 235.955872 
L 203.80419 235.766744 
L 211.253551 234.093547 
L 211.574847 234.02272 
L 215.761439 232.991138 
L 217.617945 232.415608 
L 224.506573 230.633926 
L 229.518444 228.944805 
L 230.337431 228.72267 
L 233.175982 227.7504 
L 236.8339 226.401724 
L 241.069342 224.457771 
L 244.40113 223.098903 
L 247.70105 221.47808 
L 247.992799 221.344659 
L 252.44957 218.88 
L 253.222449 218.411737 
L 256.568903 216.28192 
L 258.660411 214.83817 
L 261.361423 212.621762 
L 262.902785 211.4752 
L 264.628554 210.0096 
L 267.775923 207.086379 
L 270.859823 203.73728 
L 272.308452 201.985703 
L 273.012714 201.1392 
L 274.196392 199.43575 
L 274.91323 198.54112 
L 275.46398 197.770348 
L 277.967569 193.778541 
L 278.689986 192.670252 
L 278.929772 192.2688 
L 281.787381 186.958892 
L 282.245746 185.99648 
L 282.545611 185.253671 
L 282.998708 184.300601 
L 283.505016 183.3984 
L 283.969676 182.18952 
L 284.571679 180.80032 
L 286.790692 174.700846 
L 286.847393 174.528 
L 286.947053 174.183809 
L 288.896029 168.25568 
L 289.264233 166.85195 
L 289.448185 166.356478 
L 289.657021 165.6576 
L 289.787926 164.874382 
L 289.950866 164.151583 
L 290.289809 163.05952 
L 290.728151 161.274814 
L 291.763886 156.7872 
L 292.788994 151.658296 
L 293.011989 150.51488 
L 293.047753 150.343349 
L 293.664983 147.9168 
L 293.924384 145.707874 
L 293.952613 145.31872 
L 294.877209 139.441987 
L 294.93903 139.0464 
L 295.051125 138.190709 
L 295.820429 132.77408 
L 295.888661 132.473721 
L 296.322696 130.176 
L 296.445638 127.740009 
L 296.458918 127.57792 
L 296.606953 126.277322 
L 297.185842 121.3056 
L 297.712945 115.70653 
L 297.781456 115.03328 
L 297.795073 114.717133 
L 297.950639 113.644611 
L 298.158363 112.4352 
L 298.195119 110.334851 
L 298.252313 109.83712 
L 298.328284 108.489567 
L 298.763862 103.5648 
L 299.046034 99.426562 
L 299.217372 97.29248 
L 299.238228 96.321276 
L 299.335127 95.560113 
L 299.463415 94.6944 
L 299.464771 93.860871 
L 299.453783 93.165365 
L 299.556999 92.09632 
L 299.663215 89.285915 
L 299.899742 85.824 
L 300.050051 82.78599 
L 300.259636 79.55168 
L 300.267834 78.113132 
L 300.411146 76.9536 
L 300.400339 76.352325 
L 300.384769 75.847145 
L 300.509065 74.35552 
L 300.602053 70.516313 
L 300.732485 68.0832 
L 300.811279 65.879362 
L 301.028801 61.81088 
L 301.018106 60.031779 
L 301.110557 59.2128 
L 301.096566 58.784363 
L 301.081337 58.422521 
L 301.214541 56.61472 
L 301.279423 52.033233 
L 301.351636 50.3424 
L 301.391702 48.774605 
L 301.603751 44.07008 
L 301.573665 42.038808 
L 301.600659 41.472 
L 294.72768 41.472 
L 286.63296 41.472 
L 278.53824 41.472 
L 270.44352 41.472 
L 262.3488 41.472 
L 254.25408 41.472 
L 246.15936 41.472 
L 238.06464 41.472 
L 229.96992 41.472 
L 221.8752 41.472 
L 213.78048 41.472 
L 205.68576 41.472 
" clip-path="url(#pa5887391de)" style="fill: #ff9400"/>
   </g>
   <g id="PathCollection_19">
    <path d="M 301.600659 41.472 
L 301.573665 42.038808 
L 301.603751 44.07008 
L 301.391702 48.774605 
L 301.351636 50.3424 
L 301.279423 52.033233 
L 301.214541 56.61472 
L 301.081337 58.422521 
L 301.096566 58.784363 
L 301.110557 59.2128 
L 301.018106 60.031779 
L 301.028801 61.81088 
L 300.811279 65.879362 
L 300.732485 68.0832 
L 300.602053 70.516313 
L 300.509065 74.35552 
L 300.384769 75.847145 
L 300.400339 76.352325 
L 300.411146 76.9536 
L 300.267834 78.113132 
L 300.259636 79.55168 
L 300.050051 82.78599 
L 299.899742 85.824 
L 299.663215 89.285915 
L 299.556999 92.09632 
L 299.453783 93.165365 
L 299.464771 93.860871 
L 299.463415 94.6944 
L 299.335127 95.560113 
L 299.238228 96.321276 
L 299.217372 97.29248 
L 299.046034 99.426562 
L 298.763862 103.5648 
L 298.328284 108.489567 
L 298.252313 109.83712 
L 298.195119 110.334851 
L 298.158363 112.4352 
L 297.950639 113.644611 
L 297.795073 114.717133 
L 297.781456 115.03328 
L 297.712945 115.70653 
L 297.185842 121.3056 
L 296.606953 126.277322 
L 296.458918 127.57792 
L 296.445638 127.740009 
L 296.322696 130.176 
L 295.888661 132.473721 
L 295.820429 132.77408 
L 295.051125 138.190709 
L 294.93903 139.0464 
L 294.877209 139.441987 
L 293.952613 145.31872 
L 293.924384 145.707874 
L 293.664983 147.9168 
L 293.047753 150.343349 
L 293.011989 150.51488 
L 292.788994 151.658296 
L 291.763886 156.7872 
L 290.728151 161.274814 
L 290.289809 163.05952 
L 289.950866 164.151583 
L 289.787926 164.874382 
L 289.657021 165.6576 
L 289.448185 166.356478 
L 289.264233 166.85195 
L 288.896029 168.25568 
L 286.947053 174.183809 
L 286.847393 174.528 
L 286.790692 174.700846 
L 284.571679 180.80032 
L 283.969676 182.18952 
L 283.505016 183.3984 
L 282.998708 184.300601 
L 282.545611 185.253671 
L 282.245746 185.99648 
L 281.787381 186.958892 
L 278.929772 192.2688 
L 278.689986 192.670252 
L 277.967569 193.778541 
L 275.46398 197.770348 
L 274.91323 198.54112 
L 274.196392 199.43575 
L 273.012714 201.1392 
L 272.308452 201.985703 
L 270.859823 203.73728 
L 267.775923 207.086379 
L 264.628554 210.0096 
L 262.902785 211.4752 
L 261.361423 212.621762 
L 258.660411 214.83817 
L 256.568903 216.28192 
L 253.222449 218.411737 
L 252.44957 218.88 
L 247.992799 221.344659 
L 247.70105 221.47808 
L 244.40113 223.098903 
L 241.069342 224.457771 
L 236.8339 226.401724 
L 233.175982 227.7504 
L 230.337431 228.72267 
L 229.518444 228.944805 
L 224.506573 230.633926 
L 217.617945 232.415608 
L 215.761439 232.991138 
L 211.574847 234.02272 
L 211.253551 234.093547 
L 203.80419 235.766744 
L 203.007291 235.955872 
L 199.5539 236.6208 
L 192.400059 237.938824 
L 184.530996 239.21888 
L 183.86669 239.322108 
L 183.728156 239.336165 
L 179.327005 240.002742 
L 178.211427 240.116673 
L 169.566322 241.392202 
L 166.653925 241.67693 
L 163.919691 242.071899 
L 159.873568 242.470965 
L 154.990974 243.160964 
L 149.714182 243.661899 
L 148.400233 243.844375 
L 141.857927 244.472163 
L 140.203872 244.697682 
L 132.876231 245.37757 
L 132.794482 245.388558 
L 131.701868 245.4912 
L 125.270347 246.073946 
L 124.154501 246.131226 
L 117.12044 246.752072 
L 116.148203 246.802435 
L 110.229723 247.332848 
L 106.699695 247.517847 
L 101.396056 247.982403 
L 100.4544 248.020049 
L 100.4544 254.3616 
L 100.4544 263.232 
L 100.4544 272.1024 
L 100.4544 280.9728 
L 100.4544 281.799013 
L 100.778662 281.830655 
L 107.261274 282.384055 
L 110.124837 282.699511 
L 115.796985 283.213203 
L 117.567894 283.417436 
L 122.11838 283.84406 
L 128.008322 284.555889 
L 131.353055 284.888819 
L 134.462265 285.282371 
L 136.777769 285.520728 
L 146.222351 286.774484 
L 146.805589 286.838345 
L 149.727749 287.24512 
L 150.809134 287.390215 
L 152.162736 287.594231 
L 159.67867 288.680643 
L 161.012296 288.876305 
L 166.842785 289.8432 
L 171.591865 290.621655 
L 177.337313 291.672637 
L 181.510532 292.44128 
L 183.621278 292.841317 
L 184.268825 292.985178 
L 193.117287 294.745652 
L 196.385432 295.524097 
L 198.619635 295.992394 
L 204.539193 297.457163 
L 206.447252 297.879138 
L 209.567126 298.7136 
L 213.404262 299.708907 
L 214.252841 299.963257 
L 219.454708 301.366037 
L 226.290013 303.551464 
L 227.956798 304.039428 
L 230.727652 304.98592 
L 231.965125 305.397603 
L 238.061569 307.582606 
L 238.065015 307.58383 
L 238.065445 307.584 
L 246.15936 307.584 
L 254.25408 307.584 
L 262.3488 307.584 
L 270.44352 307.584 
L 278.53824 307.584 
L 286.63296 307.584 
L 294.72768 307.584 
L 302.8224 307.584 
L 310.91712 307.584 
L 319.01184 307.584 
L 327.10656 307.584 
L 335.20128 307.584 
L 343.296 307.584 
L 343.296 298.7136 
L 343.296 289.8432 
L 343.296 280.9728 
L 343.296 272.1024 
L 343.296 263.232 
L 343.296 254.3616 
L 343.296 245.4912 
L 343.296 236.6208 
L 343.296 227.7504 
L 343.296 218.88 
L 343.296 210.0096 
L 343.296 201.1392 
L 343.296 192.2688 
L 343.296 183.3984 
L 343.296 174.528 
L 343.296 165.6576 
L 343.296 156.7872 
L 343.296 147.9168 
L 343.296 139.0464 
L 343.296 130.176 
L 343.296 121.3056 
L 343.296 112.4352 
L 343.296 103.5648 
L 343.296 94.6944 
L 343.296 85.824 
L 343.296 76.9536 
L 343.296 68.0832 
L 343.296 59.2128 
L 343.296 50.3424 
L 343.296 41.472 
L 335.20128 41.472 
L 327.10656 41.472 
L 319.01184 41.472 
L 310.91712 41.472 
L 302.8224 41.472 
" clip-path="url(#pa5887391de)" style="fill: #ff3800"/>
   </g>
   <g id="PathCollection_20">
    <path d="M 238.065445 307.584 
L 238.065015 307.58383 
L 238.061569 307.582606 
L 231.965125 305.397603 
L 230.727652 304.98592 
L 227.956798 304.039428 
L 226.290013 303.551464 
L 219.454708 301.366037 
L 214.252841 299.963257 
L 213.404262 299.708907 
L 209.567126 298.7136 
L 206.447252 297.879138 
L 204.539193 297.457163 
L 198.619635 295.992394 
L 196.385432 295.524097 
L 193.117287 294.745652 
L 184.268825 292.985178 
L 183.621278 292.841317 
L 181.510532 292.44128 
L 177.337313 291.672637 
L 171.591865 290.621655 
L 166.842785 289.8432 
L 161.012296 288.876305 
L 159.67867 288.680643 
L 152.162736 287.594231 
L 150.809134 287.390215 
L 149.727749 287.24512 
L 146.805589 286.838345 
L 146.222351 286.774484 
L 136.777769 285.520728 
L 134.462265 285.282371 
L 131.353055 284.888819 
L 128.008322 284.555889 
L 122.11838 283.84406 
L 117.567894 283.417436 
L 115.796985 283.213203 
L 110.124837 282.699511 
L 107.261274 282.384055 
L 100.778662 281.830655 
L 100.4544 281.799013 
L 100.4544 289.8432 
L 100.4544 298.7136 
L 100.4544 307.584 
L 108.54912 307.584 
L 116.64384 307.584 
L 124.73856 307.584 
L 132.83328 307.584 
L 140.928 307.584 
L 149.02272 307.584 
L 157.11744 307.584 
L 165.21216 307.584 
L 173.30688 307.584 
L 181.4016 307.584 
L 189.49632 307.584 
L 197.59104 307.584 
L 205.68576 307.584 
L 213.78048 307.584 
L 221.8752 307.584 
L 229.96992 307.584 
L 238.06464 307.584 
" clip-path="url(#pa5887391de)" style="fill: #b60000"/>
   </g>
   <g id="matplotlib.axis_1">
    <g id="xtick_1">
     <g id="line2d_1">
      <defs>
       <path id="m3107d89b25" d="M 0 0 
L 0 3.5 
" style="stroke: #000000; stroke-width: 0.8"/>
      </defs>
      <g>
       <use xlink:href="#m3107d89b25" x="57.6" y="307.584" style="stroke: #000000; stroke-width: 0.8"/>
      </g>
     </g>
     <g id="text_1">
      <!-- 0.0 -->
      <g transform="translate(51.26875 321.385562) scale(0.1 -0.1)">
       <defs>
        <path id="Calibri-30" d="M 3022 2031 
Q 3022 1566 2948 1181 
Q 2875 797 2704 520 
Q 2534 244 2259 92 
Q 1984 -59 1581 -59 
Q 1200 -59 939 77 
Q 678 213 518 477 
Q 359 741 292 1127 
Q 225 1513 225 2013 
Q 225 2475 300 2861 
Q 375 3247 544 3523 
Q 713 3800 988 3951 
Q 1263 4103 1663 4103 
Q 2047 4103 2308 3967 
Q 2569 3831 2728 3567 
Q 2888 3303 2955 2917 
Q 3022 2531 3022 2031 
z
M 2472 1994 
Q 2472 2297 2450 2537 
Q 2428 2778 2386 2962 
Q 2344 3147 2276 3280 
Q 2209 3413 2115 3498 
Q 2022 3584 1901 3623 
Q 1781 3663 1631 3663 
Q 1366 3663 1200 3538 
Q 1034 3413 939 3194 
Q 844 2975 809 2681 
Q 775 2388 775 2050 
Q 775 1597 822 1280 
Q 869 963 970 763 
Q 1072 563 1230 472 
Q 1388 381 1613 381 
Q 1788 381 1920 437 
Q 2053 494 2148 598 
Q 2244 703 2306 850 
Q 2369 997 2406 1175 
Q 2444 1353 2458 1561 
Q 2472 1769 2472 1994 
z
" transform="scale(0.015625)"/>
        <path id="Calibri-2e" d="M 1144 341 
Q 1144 119 1070 45 
Q 997 -28 803 -28 
Q 616 -28 544 44 
Q 472 116 472 331 
Q 472 553 545 626 
Q 619 700 813 700 
Q 1000 700 1072 628 
Q 1144 556 1144 341 
z
" transform="scale(0.015625)"/>
       </defs>
       <use xlink:href="#Calibri-30"/>
       <use xlink:href="#Calibri-2e" x="50.683594"/>
       <use xlink:href="#Calibri-30" x="75.927734"/>
      </g>
     </g>
    </g>
    <g id="xtick_2">
     <g id="line2d_2">
      <g>
       <use xlink:href="#m3107d89b25" x="86.1696" y="307.584" style="stroke: #000000; stroke-width: 0.8"/>
      </g>
     </g>
     <g id="text_2">
      <!-- 0.1 -->
      <g transform="translate(79.83835 321.385562) scale(0.1 -0.1)">
       <defs>
        <path id="Calibri-31" d="M 2897 213 
Q 2897 153 2887 112 
Q 2878 72 2862 47 
Q 2847 22 2826 11 
Q 2806 0 2784 0 
L 672 0 
Q 650 0 631 11 
Q 613 22 595 47 
Q 578 72 568 112 
Q 559 153 559 213 
Q 559 269 568 309 
Q 578 350 592 376 
Q 606 403 626 417 
Q 647 431 672 431 
L 1516 431 
L 1516 3506 
L 734 3041 
Q 675 3009 639 3003 
Q 603 2997 581 3017 
Q 559 3038 551 3084 
Q 544 3131 544 3203 
Q 544 3256 548 3293 
Q 553 3331 562 3356 
Q 572 3381 589 3400 
Q 606 3419 634 3438 
L 1566 4034 
Q 1578 4044 1597 4050 
Q 1616 4056 1644 4062 
Q 1672 4069 1709 4070 
Q 1747 4072 1803 4072 
Q 1878 4072 1928 4065 
Q 1978 4059 2006 4048 
Q 2034 4038 2043 4020 
Q 2053 4003 2053 3984 
L 2053 431 
L 2784 431 
Q 2809 431 2831 417 
Q 2853 403 2867 376 
Q 2881 350 2889 309 
Q 2897 269 2897 213 
z
" transform="scale(0.015625)"/>
       </defs>
       <use xlink:href="#Calibri-30"/>
       <use xlink:href="#Calibri-2e" x="50.683594"/>
       <use xlink:href="#Calibri-31" x="75.927734"/>
      </g>
     </g>
    </g>
    <g id="xtick_3">
     <g id="line2d_3">
      <g>
       <use xlink:href="#m3107d89b25" x="114.7392" y="307.584" style="stroke: #000000; stroke-width: 0.8"/>
      </g>
     </g>
     <g id="text_3">
      <!-- 0.2 -->
      <g transform="translate(108.40795 321.385562) scale(0.1 -0.1)">
       <defs>
        <path id="Calibri-32" d="M 2888 231 
Q 2888 175 2880 131 
Q 2872 88 2858 58 
Q 2844 28 2820 14 
Q 2797 0 2769 0 
L 534 0 
Q 491 0 458 11 
Q 425 22 401 47 
Q 378 72 367 119 
Q 356 166 356 234 
Q 356 297 361 344 
Q 366 391 381 427 
Q 397 463 420 498 
Q 444 534 481 575 
L 1266 1406 
Q 1538 1694 1702 1922 
Q 1866 2150 1955 2337 
Q 2044 2525 2072 2678 
Q 2100 2831 2100 2966 
Q 2100 3100 2056 3220 
Q 2013 3341 1930 3431 
Q 1847 3522 1722 3575 
Q 1597 3628 1434 3628 
Q 1244 3628 1092 3575 
Q 941 3522 827 3459 
Q 713 3397 636 3344 
Q 559 3291 522 3291 
Q 500 3291 483 3303 
Q 466 3316 455 3344 
Q 444 3372 437 3419 
Q 431 3466 431 3531 
Q 431 3578 434 3612 
Q 438 3647 445 3672 
Q 453 3697 465 3719 
Q 478 3741 515 3773 
Q 553 3806 645 3862 
Q 738 3919 877 3973 
Q 1016 4028 1183 4065 
Q 1350 4103 1534 4103 
Q 1828 4103 2048 4020 
Q 2269 3938 2414 3794 
Q 2559 3650 2631 3459 
Q 2703 3269 2703 3053 
Q 2703 2859 2668 2667 
Q 2634 2475 2523 2251 
Q 2413 2028 2203 1754 
Q 1994 1481 1647 1125 
L 1006 456 
L 2766 456 
Q 2791 456 2814 442 
Q 2838 428 2855 400 
Q 2872 372 2880 330 
Q 2888 288 2888 231 
z
" transform="scale(0.015625)"/>
       </defs>
       <use xlink:href="#Calibri-30"/>
       <use xlink:href="#Calibri-2e" x="50.683594"/>
       <use xlink:href="#Calibri-32" x="75.927734"/>
      </g>
     </g>
    </g>
    <g id="xtick_4">
     <g id="line2d_4">
      <g>
       <use xlink:href="#m3107d89b25" x="143.3088" y="307.584" style="stroke: #000000; stroke-width: 0.8"/>
      </g>
     </g>
     <g id="text_4">
      <!-- 0.3 -->
      <g transform="translate(136.97755 321.385562) scale(0.1 -0.1)">
       <defs>
        <path id="Calibri-33" d="M 2856 1156 
Q 2856 878 2759 654 
Q 2663 431 2481 272 
Q 2300 113 2034 27 
Q 1769 -59 1434 -59 
Q 1231 -59 1054 -26 
Q 878 6 740 51 
Q 603 97 512 145 
Q 422 194 398 216 
Q 375 238 362 259 
Q 350 281 340 312 
Q 331 344 326 389 
Q 322 434 322 500 
Q 322 613 344 656 
Q 366 700 406 700 
Q 434 700 517 650 
Q 600 600 729 542 
Q 859 484 1032 434 
Q 1206 384 1419 384 
Q 1625 384 1781 437 
Q 1938 491 2044 587 
Q 2150 684 2203 817 
Q 2256 950 2256 1106 
Q 2256 1278 2189 1415 
Q 2122 1553 1992 1653 
Q 1863 1753 1673 1806 
Q 1484 1859 1244 1859 
L 859 1859 
Q 834 1859 811 1870 
Q 788 1881 770 1906 
Q 753 1931 742 1972 
Q 731 2013 731 2078 
Q 731 2138 740 2177 
Q 750 2216 767 2239 
Q 784 2263 806 2273 
Q 828 2284 856 2284 
L 1209 2284 
Q 1416 2284 1580 2337 
Q 1744 2391 1858 2491 
Q 1972 2591 2033 2730 
Q 2094 2869 2094 3041 
Q 2094 3166 2053 3280 
Q 2013 3394 1931 3478 
Q 1850 3563 1723 3611 
Q 1597 3659 1431 3659 
Q 1250 3659 1098 3604 
Q 947 3550 828 3487 
Q 709 3425 631 3370 
Q 553 3316 522 3316 
Q 500 3316 483 3323 
Q 466 3331 455 3354 
Q 444 3378 439 3420 
Q 434 3463 434 3531 
Q 434 3578 437 3614 
Q 441 3650 450 3676 
Q 459 3703 471 3725 
Q 484 3747 514 3776 
Q 544 3806 634 3862 
Q 725 3919 858 3973 
Q 991 4028 1164 4065 
Q 1338 4103 1538 4103 
Q 1819 4103 2031 4031 
Q 2244 3959 2386 3828 
Q 2528 3697 2598 3514 
Q 2669 3331 2669 3109 
Q 2669 2919 2619 2755 
Q 2569 2591 2472 2464 
Q 2375 2338 2234 2248 
Q 2094 2159 1909 2125 
L 1909 2119 
Q 2119 2097 2292 2014 
Q 2466 1931 2591 1806 
Q 2716 1681 2786 1514 
Q 2856 1347 2856 1156 
z
" transform="scale(0.015625)"/>
       </defs>
       <use xlink:href="#Calibri-30"/>
       <use xlink:href="#Calibri-2e" x="50.683594"/>
       <use xlink:href="#Calibri-33" x="75.927734"/>
      </g>
     </g>
    </g>
    <g id="xtick_5">
     <g id="line2d_5">
      <g>
       <use xlink:href="#m3107d89b25" x="171.8784" y="307.584" style="stroke: #000000; stroke-width: 0.8"/>
      </g>
     </g>
     <g id="text_5">
      <!-- 0.4 -->
      <g transform="translate(165.54715 321.385562) scale(0.1 -0.1)">
       <defs>
        <path id="Calibri-34" d="M 3059 1150 
Q 3059 1047 3028 987 
Q 2997 928 2941 928 
L 2484 928 
L 2484 78 
Q 2484 53 2471 36 
Q 2459 19 2428 6 
Q 2397 -6 2347 -12 
Q 2297 -19 2219 -19 
Q 2144 -19 2094 -12 
Q 2044 -6 2014 6 
Q 1984 19 1973 36 
Q 1963 53 1963 78 
L 1963 928 
L 294 928 
Q 256 928 231 937 
Q 206 947 186 972 
Q 166 997 158 1044 
Q 150 1091 150 1166 
Q 150 1225 153 1272 
Q 156 1319 165 1358 
Q 175 1397 190 1433 
Q 206 1469 228 1509 
L 1684 3966 
Q 1700 3991 1729 4009 
Q 1759 4028 1806 4040 
Q 1853 4053 1922 4058 
Q 1991 4063 2084 4063 
Q 2188 4063 2264 4055 
Q 2341 4047 2387 4034 
Q 2434 4022 2459 4001 
Q 2484 3981 2484 3953 
L 2484 1372 
L 2941 1372 
Q 2994 1372 3026 1317 
Q 3059 1263 3059 1150 
z
M 1963 3591 
L 1956 3591 
L 641 1372 
L 1963 1372 
L 1963 3591 
z
" transform="scale(0.015625)"/>
       </defs>
       <use xlink:href="#Calibri-30"/>
       <use xlink:href="#Calibri-2e" x="50.683594"/>
       <use xlink:href="#Calibri-34" x="75.927734"/>
      </g>
     </g>
    </g>
    <g id="xtick_6">
     <g id="line2d_6">
      <g>
       <use xlink:href="#m3107d89b25" x="200.448" y="307.584" style="stroke: #000000; stroke-width: 0.8"/>
      </g>
     </g>
     <g id="text_6">
      <!-- 0.5 -->
      <g transform="translate(194.11675 321.385562) scale(0.1 -0.1)">
       <defs>
        <path id="Calibri-35" d="M 2869 1300 
Q 2869 975 2759 722 
Q 2650 469 2450 295 
Q 2250 122 1973 31 
Q 1697 -59 1359 -59 
Q 1172 -59 1003 -32 
Q 834 -6 703 33 
Q 572 72 487 109 
Q 403 147 379 169 
Q 356 191 347 209 
Q 338 228 330 254 
Q 322 281 319 322 
Q 316 363 316 419 
Q 316 472 320 514 
Q 325 556 337 582 
Q 350 609 367 621 
Q 384 634 406 634 
Q 438 634 503 595 
Q 569 556 680 511 
Q 791 466 955 425 
Q 1119 384 1344 384 
Q 1553 384 1728 434 
Q 1903 484 2029 590 
Q 2156 697 2228 858 
Q 2300 1019 2300 1250 
Q 2300 1444 2239 1592 
Q 2178 1741 2051 1839 
Q 1925 1938 1731 1986 
Q 1538 2034 1269 2034 
Q 1078 2034 940 2015 
Q 803 1997 684 1997 
Q 597 1997 559 2037 
Q 522 2078 522 2194 
L 522 3841 
Q 522 3944 570 3994 
Q 619 4044 709 4044 
L 2500 4044 
Q 2525 4044 2548 4030 
Q 2572 4016 2587 3987 
Q 2603 3959 2611 3915 
Q 2619 3872 2619 3813 
Q 2619 3700 2587 3637 
Q 2556 3575 2500 3575 
L 991 3575 
L 991 2441 
Q 1100 2456 1214 2459 
Q 1328 2463 1478 2463 
Q 1825 2463 2084 2380 
Q 2344 2297 2517 2145 
Q 2691 1994 2780 1778 
Q 2869 1563 2869 1300 
z
" transform="scale(0.015625)"/>
       </defs>
       <use xlink:href="#Calibri-30"/>
       <use xlink:href="#Calibri-2e" x="50.683594"/>
       <use xlink:href="#Calibri-35" x="75.927734"/>
      </g>
     </g>
    </g>
    <g id="xtick_7">
     <g id="line2d_7">
      <g>
       <use xlink:href="#m3107d89b25" x="229.0176" y="307.584" style="stroke: #000000; stroke-width: 0.8"/>
      </g>
     </g>
     <g id="text_7">
      <!-- 0.6 -->
      <g transform="translate(222.68635 321.385562) scale(0.1 -0.1)">
       <defs>
        <path id="Calibri-36" d="M 2991 1309 
Q 2991 1044 2909 795 
Q 2828 547 2659 358 
Q 2491 169 2231 55 
Q 1972 -59 1619 -59 
Q 1366 -59 1172 3 
Q 978 66 834 181 
Q 691 297 595 465 
Q 500 634 442 850 
Q 384 1066 359 1322 
Q 334 1578 334 1872 
Q 334 2131 362 2397 
Q 391 2663 462 2909 
Q 534 3156 657 3373 
Q 781 3591 967 3752 
Q 1153 3913 1412 4006 
Q 1672 4100 2016 4100 
Q 2131 4100 2250 4086 
Q 2369 4072 2469 4048 
Q 2569 4025 2637 3997 
Q 2706 3969 2728 3951 
Q 2750 3934 2761 3914 
Q 2772 3894 2778 3870 
Q 2784 3847 2787 3817 
Q 2791 3788 2791 3744 
Q 2791 3688 2789 3647 
Q 2788 3606 2777 3581 
Q 2766 3556 2748 3543 
Q 2731 3531 2703 3531 
Q 2669 3531 2609 3553 
Q 2550 3575 2465 3601 
Q 2381 3628 2261 3650 
Q 2141 3672 1981 3672 
Q 1691 3672 1481 3553 
Q 1272 3434 1139 3234 
Q 1006 3034 942 2770 
Q 878 2506 869 2219 
Q 950 2266 1051 2312 
Q 1153 2359 1273 2396 
Q 1394 2434 1528 2457 
Q 1663 2481 1816 2481 
Q 2144 2481 2369 2392 
Q 2594 2303 2733 2145 
Q 2872 1988 2931 1773 
Q 2991 1559 2991 1309 
z
M 2447 1259 
Q 2447 1441 2411 1589 
Q 2375 1738 2290 1841 
Q 2206 1944 2065 2000 
Q 1925 2056 1719 2056 
Q 1603 2056 1487 2036 
Q 1372 2016 1264 1980 
Q 1156 1944 1057 1895 
Q 959 1847 878 1791 
Q 878 1388 929 1116 
Q 981 844 1079 680 
Q 1178 516 1325 445 
Q 1472 375 1669 375 
Q 1869 375 2016 450 
Q 2163 525 2259 651 
Q 2356 778 2401 936 
Q 2447 1094 2447 1259 
z
" transform="scale(0.015625)"/>
       </defs>
       <use xlink:href="#Calibri-30"/>
       <use xlink:href="#Calibri-2e" x="50.683594"/>
       <use xlink:href="#Calibri-36" x="75.927734"/>
      </g>
     </g>
    </g>
    <g id="xtick_8">
     <g id="line2d_8">
      <g>
       <use xlink:href="#m3107d89b25" x="257.5872" y="307.584" style="stroke: #000000; stroke-width: 0.8"/>
      </g>
     </g>
     <g id="text_8">
      <!-- 0.7 -->
      <g transform="translate(251.25595 321.385562) scale(0.1 -0.1)">
       <defs>
        <path id="Calibri-37" d="M 2947 3813 
Q 2947 3756 2942 3711 
Q 2938 3666 2930 3623 
Q 2922 3581 2908 3542 
Q 2894 3503 2875 3459 
L 1419 103 
Q 1403 66 1379 42 
Q 1356 19 1320 5 
Q 1284 -9 1228 -14 
Q 1172 -19 1091 -19 
Q 984 -19 925 -9 
Q 866 0 839 20 
Q 813 41 816 70 
Q 819 100 838 141 
L 2369 3572 
L 428 3572 
Q 369 3572 339 3634 
Q 309 3697 309 3809 
Q 309 3869 317 3912 
Q 325 3956 340 3986 
Q 356 4016 378 4030 
Q 400 4044 428 4044 
L 2784 4044 
Q 2828 4044 2861 4034 
Q 2894 4025 2911 3997 
Q 2928 3969 2937 3925 
Q 2947 3881 2947 3813 
z
" transform="scale(0.015625)"/>
       </defs>
       <use xlink:href="#Calibri-30"/>
       <use xlink:href="#Calibri-2e" x="50.683594"/>
       <use xlink:href="#Calibri-37" x="75.927734"/>
      </g>
     </g>
    </g>
    <g id="xtick_9">
     <g id="line2d_9">
      <g>
       <use xlink:href="#m3107d89b25" x="286.1568" y="307.584" style="stroke: #000000; stroke-width: 0.8"/>
      </g>
     </g>
     <g id="text_9">
      <!-- 0.8 -->
      <g transform="translate(279.82555 321.385562) scale(0.1 -0.1)">
       <defs>
        <path id="Calibri-38" d="M 2981 1038 
Q 2981 775 2887 570 
Q 2794 366 2617 225 
Q 2441 84 2181 12 
Q 1922 -59 1588 -59 
Q 1275 -59 1028 6 
Q 781 72 609 200 
Q 438 328 347 515 
Q 256 703 256 944 
Q 256 1134 318 1293 
Q 381 1453 498 1587 
Q 616 1722 787 1839 
Q 959 1956 1175 2063 
Q 988 2159 844 2267 
Q 700 2375 600 2501 
Q 500 2628 448 2772 
Q 397 2916 397 3084 
Q 397 3297 473 3483 
Q 550 3669 704 3806 
Q 859 3944 1098 4023 
Q 1338 4103 1656 4103 
Q 1963 4103 2186 4029 
Q 2409 3956 2554 3829 
Q 2700 3703 2769 3531 
Q 2838 3359 2838 3163 
Q 2838 3003 2786 2856 
Q 2734 2709 2634 2578 
Q 2534 2447 2389 2333 
Q 2244 2219 2056 2119 
Q 2278 2009 2451 1893 
Q 2625 1778 2742 1645 
Q 2859 1513 2920 1364 
Q 2981 1216 2981 1038 
z
M 2306 3113 
Q 2306 3244 2261 3350 
Q 2216 3456 2128 3531 
Q 2041 3606 1911 3645 
Q 1781 3684 1616 3684 
Q 1278 3684 1104 3531 
Q 931 3378 931 3113 
Q 931 2991 973 2886 
Q 1016 2781 1105 2687 
Q 1194 2594 1330 2505 
Q 1466 2416 1653 2319 
Q 1969 2481 2137 2678 
Q 2306 2875 2306 3113 
z
M 2438 981 
Q 2438 1125 2384 1242 
Q 2331 1359 2223 1461 
Q 2116 1563 1955 1658 
Q 1794 1753 1581 1856 
Q 1384 1759 1236 1662 
Q 1088 1566 992 1462 
Q 897 1359 848 1245 
Q 800 1131 800 994 
Q 800 691 1008 525 
Q 1216 359 1628 359 
Q 2028 359 2233 526 
Q 2438 694 2438 981 
z
" transform="scale(0.015625)"/>
       </defs>
       <use xlink:href="#Calibri-30"/>
       <use xlink:href="#Calibri-2e" x="50.683594"/>
       <use xlink:href="#Calibri-38" x="75.927734"/>
      </g>
     </g>
    </g>
    <g id="xtick_10">
     <g id="line2d_10">
      <g>
       <use xlink:href="#m3107d89b25" x="314.7264" y="307.584" style="stroke: #000000; stroke-width: 0.8"/>
      </g>
     </g>
     <g id="text_10">
      <!-- 0.9 -->
      <g transform="translate(308.39515 321.385562) scale(0.1 -0.1)">
       <defs>
        <path id="Calibri-39" d="M 2919 2181 
Q 2919 1919 2887 1650 
Q 2856 1381 2781 1132 
Q 2706 884 2579 667 
Q 2453 450 2261 287 
Q 2069 125 1805 33 
Q 1541 -59 1191 -59 
Q 1056 -59 929 -42 
Q 803 -25 701 0 
Q 600 25 531 53 
Q 463 81 431 109 
Q 400 138 386 186 
Q 372 234 372 316 
Q 372 384 376 425 
Q 381 466 390 487 
Q 400 509 417 517 
Q 434 525 459 525 
Q 494 525 556 501 
Q 619 478 714 450 
Q 809 422 937 398 
Q 1066 375 1225 375 
Q 1528 375 1745 492 
Q 1963 609 2100 806 
Q 2238 1003 2306 1262 
Q 2375 1522 2381 1809 
Q 2216 1713 1984 1638 
Q 1753 1563 1453 1563 
Q 1116 1563 886 1655 
Q 656 1747 517 1906 
Q 378 2066 317 2284 
Q 256 2503 256 2763 
Q 256 3031 334 3273 
Q 413 3516 578 3700 
Q 744 3884 1000 3993 
Q 1256 4103 1613 4103 
Q 1866 4103 2061 4039 
Q 2256 3975 2400 3854 
Q 2544 3734 2644 3564 
Q 2744 3394 2805 3178 
Q 2866 2963 2892 2711 
Q 2919 2459 2919 2181 
z
M 2372 2241 
Q 2372 2641 2319 2914 
Q 2266 3188 2162 3356 
Q 2059 3525 1909 3600 
Q 1759 3675 1563 3675 
Q 1359 3675 1215 3601 
Q 1072 3528 980 3404 
Q 888 3281 844 3125 
Q 800 2969 800 2803 
Q 800 2619 839 2466 
Q 878 2313 965 2206 
Q 1053 2100 1193 2042 
Q 1334 1984 1541 1984 
Q 1775 1984 1994 2054 
Q 2213 2125 2372 2241 
z
" transform="scale(0.015625)"/>
       </defs>
       <use xlink:href="#Calibri-30"/>
       <use xlink:href="#Calibri-2e" x="50.683594"/>
       <use xlink:href="#Calibri-39" x="75.927734"/>
      </g>
     </g>
    </g>
    <g id="xtick_11">
     <g id="line2d_11">
      <g>
       <use xlink:href="#m3107d89b25" x="343.296" y="307.584" style="stroke: #000000; stroke-width: 0.8"/>
      </g>
     </g>
     <g id="text_11">
      <!-- 1.0 -->
      <g transform="translate(336.96475 321.385562) scale(0.1 -0.1)">
       <use xlink:href="#Calibri-31"/>
       <use xlink:href="#Calibri-2e" x="50.683594"/>
       <use xlink:href="#Calibri-30" x="75.927734"/>
      </g>
     </g>
    </g>
    <g id="text_12">
     <!-- $\mathit{p}$ (cm$^2$/cm$^2$) -->
     <g transform="translate(174.148 336.263687) scale(0.1 -0.1)">
      <defs>
       <path id="DejaVuSans-Oblique-70" d="M 3175 2156 
Q 3175 2616 2975 2859 
Q 2775 3103 2400 3103 
Q 2144 3103 1911 2972 
Q 1678 2841 1497 2591 
Q 1319 2344 1212 1994 
Q 1106 1644 1106 1300 
Q 1106 863 1306 627 
Q 1506 391 1875 391 
Q 2147 391 2380 519 
Q 2613 647 2778 891 
Q 2956 1147 3065 1494 
Q 3175 1841 3175 2156 
z
M 1394 2969 
Q 1625 3272 1939 3428 
Q 2253 3584 2638 3584 
Q 3175 3584 3472 3232 
Q 3769 2881 3769 2247 
Q 3769 1728 3584 1258 
Q 3400 788 3053 416 
Q 2822 169 2531 39 
Q 2241 -91 1919 -91 
Q 1547 -91 1294 64 
Q 1041 219 916 525 
L 556 -1331 
L -19 -1331 
L 922 3500 
L 1497 3500 
L 1394 2969 
z
" transform="scale(0.015625)"/>
       <path id="Calibri-20" transform="scale(0.015625)"/>
       <path id="Calibri-28" d="M 1547 4306 
Q 1250 3678 1104 3017 
Q 959 2356 959 1688 
Q 959 1016 1107 356 
Q 1256 -303 1541 -938 
Q 1556 -975 1557 -1001 
Q 1559 -1028 1537 -1045 
Q 1516 -1063 1470 -1070 
Q 1425 -1078 1347 -1078 
Q 1291 -1078 1250 -1075 
Q 1209 -1072 1179 -1062 
Q 1150 -1053 1131 -1040 
Q 1113 -1028 1103 -1013 
Q 934 -694 806 -367 
Q 678 -41 590 296 
Q 503 634 459 979 
Q 416 1325 416 1678 
Q 416 2031 464 2375 
Q 513 2719 602 3058 
Q 691 3397 819 3725 
Q 947 4053 1106 4375 
Q 1109 4388 1123 4397 
Q 1138 4406 1163 4415 
Q 1188 4425 1231 4429 
Q 1275 4434 1344 4434 
Q 1416 4434 1459 4425 
Q 1503 4416 1528 4400 
Q 1553 4384 1556 4359 
Q 1559 4334 1547 4306 
z
" transform="scale(0.015625)"/>
       <path id="Calibri-63" d="M 2500 506 
Q 2500 453 2497 414 
Q 2494 375 2486 348 
Q 2478 322 2467 301 
Q 2456 281 2417 242 
Q 2378 203 2284 145 
Q 2191 88 2073 42 
Q 1956 -3 1818 -31 
Q 1681 -59 1534 -59 
Q 1231 -59 997 41 
Q 763 141 605 333 
Q 447 525 364 804 
Q 281 1084 281 1450 
Q 281 1866 382 2164 
Q 484 2463 661 2653 
Q 838 2844 1077 2936 
Q 1316 3028 1594 3028 
Q 1728 3028 1854 3003 
Q 1981 2978 2087 2937 
Q 2194 2897 2276 2844 
Q 2359 2791 2396 2753 
Q 2434 2716 2448 2694 
Q 2463 2672 2472 2642 
Q 2481 2613 2484 2575 
Q 2488 2538 2488 2481 
Q 2488 2359 2459 2311 
Q 2431 2263 2391 2263 
Q 2344 2263 2283 2314 
Q 2222 2366 2128 2428 
Q 2034 2491 1901 2542 
Q 1769 2594 1588 2594 
Q 1216 2594 1017 2308 
Q 819 2022 819 1478 
Q 819 1206 870 1001 
Q 922 797 1022 659 
Q 1122 522 1267 455 
Q 1413 388 1600 388 
Q 1778 388 1912 444 
Q 2047 500 2145 567 
Q 2244 634 2311 689 
Q 2378 744 2416 744 
Q 2438 744 2453 731 
Q 2469 719 2480 689 
Q 2491 659 2495 614 
Q 2500 569 2500 506 
z
" transform="scale(0.015625)"/>
       <path id="Calibri-6d" d="M 4650 78 
Q 4650 53 4637 36 
Q 4625 19 4597 6 
Q 4569 -6 4519 -12 
Q 4469 -19 4394 -19 
Q 4316 -19 4266 -12 
Q 4216 -6 4186 6 
Q 4156 19 4143 36 
Q 4131 53 4131 78 
L 4131 1788 
Q 4131 1966 4100 2112 
Q 4069 2259 4000 2365 
Q 3931 2472 3825 2528 
Q 3719 2584 3575 2584 
Q 3397 2584 3217 2446 
Q 3038 2309 2822 2044 
L 2822 78 
Q 2822 53 2809 36 
Q 2797 19 2767 6 
Q 2738 -6 2688 -12 
Q 2638 -19 2563 -19 
Q 2491 -19 2439 -12 
Q 2388 -6 2358 6 
Q 2328 19 2317 36 
Q 2306 53 2306 78 
L 2306 1788 
Q 2306 1966 2272 2112 
Q 2238 2259 2169 2365 
Q 2100 2472 1995 2528 
Q 1891 2584 1747 2584 
Q 1569 2584 1387 2446 
Q 1206 2309 994 2044 
L 994 78 
Q 994 53 981 36 
Q 969 19 941 6 
Q 913 -6 863 -12 
Q 813 -19 734 -19 
Q 659 -19 609 -12 
Q 559 -6 529 6 
Q 500 19 489 36 
Q 478 53 478 78 
L 478 2891 
Q 478 2916 487 2933 
Q 497 2950 525 2964 
Q 553 2978 597 2983 
Q 641 2988 713 2988 
Q 781 2988 826 2983 
Q 872 2978 897 2964 
Q 922 2950 933 2933 
Q 944 2916 944 2891 
L 944 2519 
Q 1181 2784 1404 2907 
Q 1628 3031 1856 3031 
Q 2031 3031 2170 2990 
Q 2309 2950 2415 2876 
Q 2522 2803 2597 2701 
Q 2672 2600 2722 2475 
Q 2863 2628 2989 2734 
Q 3116 2841 3233 2906 
Q 3350 2972 3461 3001 
Q 3572 3031 3684 3031 
Q 3956 3031 4140 2936 
Q 4325 2841 4439 2681 
Q 4553 2522 4601 2308 
Q 4650 2094 4650 1856 
L 4650 78 
z
" transform="scale(0.015625)"/>
       <path id="DejaVuSans-32" d="M 1228 531 
L 3431 531 
L 3431 0 
L 469 0 
L 469 531 
Q 828 903 1448 1529 
Q 2069 2156 2228 2338 
Q 2531 2678 2651 2914 
Q 2772 3150 2772 3378 
Q 2772 3750 2511 3984 
Q 2250 4219 1831 4219 
Q 1534 4219 1204 4116 
Q 875 4013 500 3803 
L 500 4441 
Q 881 4594 1212 4672 
Q 1544 4750 1819 4750 
Q 2544 4750 2975 4387 
Q 3406 4025 3406 3419 
Q 3406 3131 3298 2873 
Q 3191 2616 2906 2266 
Q 2828 2175 2409 1742 
Q 1991 1309 1228 531 
z
" transform="scale(0.015625)"/>
       <path id="Calibri-2f" d="M 525 -753 
Q 513 -794 492 -817 
Q 472 -841 440 -853 
Q 409 -866 364 -872 
Q 319 -878 253 -878 
Q 175 -878 123 -867 
Q 72 -856 44 -836 
Q 16 -816 9 -786 
Q 3 -756 22 -716 
L 1913 4469 
Q 1925 4509 1945 4532 
Q 1966 4556 1995 4570 
Q 2025 4584 2072 4589 
Q 2119 4594 2184 4594 
Q 2263 4594 2313 4583 
Q 2363 4572 2391 4553 
Q 2419 4534 2425 4503 
Q 2431 4472 2416 4431 
L 525 -753 
z
" transform="scale(0.015625)"/>
       <path id="Calibri-29" d="M 1522 1678 
Q 1522 1325 1478 979 
Q 1434 634 1346 296 
Q 1259 -41 1132 -367 
Q 1006 -694 838 -1013 
Q 828 -1028 809 -1040 
Q 791 -1053 761 -1062 
Q 731 -1072 690 -1075 
Q 650 -1078 594 -1078 
Q 513 -1078 467 -1070 
Q 422 -1063 401 -1045 
Q 381 -1028 382 -1001 
Q 384 -975 400 -938 
Q 688 -306 834 355 
Q 981 1016 981 1688 
Q 981 2356 834 3017 
Q 688 3678 394 4306 
Q 381 4334 384 4359 
Q 388 4384 413 4400 
Q 438 4416 481 4425 
Q 525 4434 597 4434 
Q 663 4434 706 4429 
Q 750 4425 776 4415 
Q 803 4406 815 4397 
Q 828 4388 834 4375 
Q 1156 3734 1339 3057 
Q 1522 2381 1522 1678 
z
" transform="scale(0.015625)"/>
      </defs>
      <use xlink:href="#DejaVuSans-Oblique-70" transform="translate(0 0.765625)"/>
      <use xlink:href="#Calibri-20" transform="translate(63.476562 0.765625)"/>
      <use xlink:href="#Calibri-28" transform="translate(84.958984 0.765625)"/>
      <use xlink:href="#Calibri-63" transform="translate(115.28125 0.765625)"/>
      <use xlink:href="#Calibri-6d" transform="translate(157.566406 0.765625)"/>
      <use xlink:href="#DejaVuSans-32" transform="translate(238.40625 39.046875) scale(0.7)"/>
      <use xlink:href="#Calibri-2f" transform="translate(285.676758 0.765625)"/>
      <use xlink:href="#Calibri-63" transform="translate(324.299805 0.765625)"/>
      <use xlink:href="#Calibri-6d" transform="translate(366.584961 0.765625)"/>
      <use xlink:href="#DejaVuSans-32" transform="translate(447.424805 39.046875) scale(0.7)"/>
      <use xlink:href="#Calibri-29" transform="translate(494.695312 0.765625)"/>
     </g>
    </g>
   </g>
   <g id="matplotlib.axis_2">
    <g id="ytick_1">
     <g id="line2d_12">
      <defs>
       <path id="ma08b8886d8" d="M 0 0 
L -3.5 0 
" style="stroke: #000000; stroke-width: 0.8"/>
      </defs>
      <g>
       <use xlink:href="#ma08b8886d8" x="57.6" y="275.65056" style="stroke: #000000; stroke-width: 0.8"/>
      </g>
     </g>
     <g id="text_13">
      <!-- 25 -->
      <g transform="translate(40.4625 279.051341) scale(0.1 -0.1)">
       <use xlink:href="#Calibri-32"/>
       <use xlink:href="#Calibri-35" x="50.683594"/>
      </g>
     </g>
    </g>
    <g id="ytick_2">
     <g id="line2d_13">
      <g>
       <use xlink:href="#ma08b8886d8" x="57.6" y="242.38656" style="stroke: #000000; stroke-width: 0.8"/>
      </g>
     </g>
     <g id="text_14">
      <!-- 50 -->
      <g transform="translate(40.4625 245.787341) scale(0.1 -0.1)">
       <use xlink:href="#Calibri-35"/>
       <use xlink:href="#Calibri-30" x="50.683594"/>
      </g>
     </g>
    </g>
    <g id="ytick_3">
     <g id="line2d_14">
      <g>
       <use xlink:href="#ma08b8886d8" x="57.6" y="209.12256" style="stroke: #000000; stroke-width: 0.8"/>
      </g>
     </g>
     <g id="text_15">
      <!-- 75 -->
      <g transform="translate(40.4625 212.523341) scale(0.1 -0.1)">
       <use xlink:href="#Calibri-37"/>
       <use xlink:href="#Calibri-35" x="50.683594"/>
      </g>
     </g>
    </g>
    <g id="ytick_4">
     <g id="line2d_15">
      <g>
       <use xlink:href="#ma08b8886d8" x="57.6" y="175.85856" style="stroke: #000000; stroke-width: 0.8"/>
      </g>
     </g>
     <g id="text_16">
      <!-- 100 -->
      <g transform="translate(35.39375 179.259341) scale(0.1 -0.1)">
       <use xlink:href="#Calibri-31"/>
       <use xlink:href="#Calibri-30" x="50.683594"/>
       <use xlink:href="#Calibri-30" x="101.367188"/>
      </g>
     </g>
    </g>
    <g id="ytick_5">
     <g id="line2d_16">
      <g>
       <use xlink:href="#ma08b8886d8" x="57.6" y="142.59456" style="stroke: #000000; stroke-width: 0.8"/>
      </g>
     </g>
     <g id="text_17">
      <!-- 125 -->
      <g transform="translate(35.39375 145.995341) scale(0.1 -0.1)">
       <use xlink:href="#Calibri-31"/>
       <use xlink:href="#Calibri-32" x="50.683594"/>
       <use xlink:href="#Calibri-35" x="101.367188"/>
      </g>
     </g>
    </g>
    <g id="ytick_6">
     <g id="line2d_17">
      <g>
       <use xlink:href="#ma08b8886d8" x="57.6" y="109.33056" style="stroke: #000000; stroke-width: 0.8"/>
      </g>
     </g>
     <g id="text_18">
      <!-- 150 -->
      <g transform="translate(35.39375 112.731341) scale(0.1 -0.1)">
       <use xlink:href="#Calibri-31"/>
       <use xlink:href="#Calibri-35" x="50.683594"/>
       <use xlink:href="#Calibri-30" x="101.367188"/>
      </g>
     </g>
    </g>
    <g id="ytick_7">
     <g id="line2d_18">
      <g>
       <use xlink:href="#ma08b8886d8" x="57.6" y="76.06656" style="stroke: #000000; stroke-width: 0.8"/>
      </g>
     </g>
     <g id="text_19">
      <!-- 175 -->
      <g transform="translate(35.39375 79.467341) scale(0.1 -0.1)">
       <use xlink:href="#Calibri-31"/>
       <use xlink:href="#Calibri-37" x="50.683594"/>
       <use xlink:href="#Calibri-35" x="101.367188"/>
      </g>
     </g>
    </g>
    <g id="ytick_8">
     <g id="line2d_19">
      <g>
       <use xlink:href="#ma08b8886d8" x="57.6" y="42.80256" style="stroke: #000000; stroke-width: 0.8"/>
      </g>
     </g>
     <g id="text_20">
      <!-- 200 -->
      <g transform="translate(35.39375 46.203341) scale(0.1 -0.1)">
       <use xlink:href="#Calibri-32"/>
       <use xlink:href="#Calibri-30" x="50.683594"/>
       <use xlink:href="#Calibri-30" x="101.367188"/>
      </g>
     </g>
    </g>
    <g id="text_21">
     <!-- $\mathit{Z}$$_{a}$ (nm) -->
     <g transform="translate(29.59375 191.028) rotate(-90) scale(0.1 -0.1)">
      <defs>
       <path id="DejaVuSans-Oblique-5a" d="M 838 4666 
L 4500 4666 
L 4409 4184 
L 794 531 
L 3769 531 
L 3669 0 
L -141 0 
L -50 481 
L 3566 4134 
L 738 4134 
L 838 4666 
z
" transform="scale(0.015625)"/>
       <path id="DejaVuSans-Oblique-61" d="M 3438 1997 
L 3047 0 
L 2472 0 
L 2578 531 
Q 2325 219 2001 64 
Q 1678 -91 1281 -91 
Q 834 -91 548 182 
Q 263 456 263 884 
Q 263 1497 752 1853 
Q 1241 2209 2100 2209 
L 2900 2209 
L 2931 2363 
Q 2938 2388 2941 2417 
Q 2944 2447 2944 2509 
Q 2944 2788 2717 2942 
Q 2491 3097 2081 3097 
Q 1800 3097 1504 3025 
Q 1209 2953 897 2809 
L 997 3341 
Q 1322 3463 1633 3523 
Q 1944 3584 2234 3584 
Q 2853 3584 3176 3315 
Q 3500 3047 3500 2534 
Q 3500 2431 3484 2292 
Q 3469 2153 3438 1997 
z
M 2816 1759 
L 2241 1759 
Q 1534 1759 1195 1570 
Q 856 1381 856 984 
Q 856 709 1029 553 
Q 1203 397 1509 397 
Q 1978 397 2328 733 
Q 2678 1069 2791 1631 
L 2816 1759 
z
" transform="scale(0.015625)"/>
       <path id="Calibri-6e" d="M 2900 78 
Q 2900 53 2887 36 
Q 2875 19 2847 6 
Q 2819 -6 2769 -12 
Q 2719 -19 2644 -19 
Q 2566 -19 2516 -12 
Q 2466 -6 2437 6 
Q 2409 19 2396 36 
Q 2384 53 2384 78 
L 2384 1725 
Q 2384 1966 2346 2112 
Q 2309 2259 2237 2365 
Q 2166 2472 2052 2528 
Q 1938 2584 1788 2584 
Q 1594 2584 1400 2446 
Q 1206 2309 994 2044 
L 994 78 
Q 994 53 981 36 
Q 969 19 941 6 
Q 913 -6 863 -12 
Q 813 -19 734 -19 
Q 659 -19 609 -12 
Q 559 -6 529 6 
Q 500 19 489 36 
Q 478 53 478 78 
L 478 2891 
Q 478 2916 487 2933 
Q 497 2950 525 2964 
Q 553 2978 597 2983 
Q 641 2988 713 2988 
Q 781 2988 826 2983 
Q 872 2978 897 2964 
Q 922 2950 933 2933 
Q 944 2916 944 2891 
L 944 2519 
Q 1181 2784 1417 2907 
Q 1653 3031 1894 3031 
Q 2175 3031 2367 2936 
Q 2559 2841 2678 2681 
Q 2797 2522 2848 2308 
Q 2900 2094 2900 1794 
L 2900 78 
z
" transform="scale(0.015625)"/>
      </defs>
      <use xlink:href="#DejaVuSans-Oblique-5a" transform="translate(0 0.09375)"/>
      <use xlink:href="#DejaVuSans-Oblique-61" transform="translate(69.462891 -16.3125) scale(0.7)"/>
      <use xlink:href="#Calibri-20" transform="translate(115.092773 0.09375)"/>
      <use xlink:href="#Calibri-28" transform="translate(136.575195 0.09375)"/>
      <use xlink:href="#Calibri-6e" transform="translate(166.897461 0.09375)"/>
      <use xlink:href="#Calibri-6d" transform="translate(219.436523 0.09375)"/>
      <use xlink:href="#Calibri-29" transform="translate(299.319336 0.09375)"/>
     </g>
    </g>
   </g>
   <g id="patch_3">
    <path d="M 57.6 307.584 
L 57.6 41.472 
" style="fill: none; stroke: #000000; stroke-width: 0.8; stroke-linejoin: miter; stroke-linecap: square"/>
   </g>
   <g id="patch_4">
    <path d="M 343.296 307.584 
L 343.296 41.472 
" style="fill: none; stroke: #000000; stroke-width: 0.8; stroke-linejoin: miter; stroke-linecap: square"/>
   </g>
   <g id="patch_5">
    <path d="M 57.6 307.584 
L 343.296 307.584 
" style="fill: none; stroke: #000000; stroke-width: 0.8; stroke-linejoin: miter; stroke-linecap: square"/>
   </g>
   <g id="patch_6">
    <path d="M 57.6 41.472 
L 343.296 41.472 
" style="fill: none; stroke: #000000; stroke-width: 0.8; stroke-linejoin: miter; stroke-linecap: square"/>
   </g>
   <g id="text_22">
    <!-- $\theta_m$ = 57 -->
    <g transform="translate(182.298 35.472) scale(0.1 -0.1)">
     <defs>
      <path id="DejaVuSans-Oblique-3b8" d="M 2913 2219 
L 925 2219 
Q 791 1284 928 888 
Q 1100 400 1566 400 
Q 2034 400 2391 891 
Q 2703 1322 2913 2219 
z
M 3009 2750 
Q 3094 3638 2984 3950 
Q 2813 4444 2353 4444 
Q 1875 4444 1525 3956 
Q 1250 3563 1034 2750 
L 3009 2750 
z
M 2444 4913 
Q 3194 4913 3494 4250 
Q 3794 3591 3566 2422 
Q 3341 1256 2781 594 
Q 2225 -72 1475 -72 
Q 722 -72 425 594 
Q 128 1256 353 2422 
Q 581 3591 1134 4250 
Q 1691 4913 2444 4913 
z
" transform="scale(0.015625)"/>
      <path id="DejaVuSans-Oblique-6d" d="M 5747 2113 
L 5338 0 
L 4763 0 
L 5166 2094 
Q 5191 2228 5203 2325 
Q 5216 2422 5216 2491 
Q 5216 2772 5059 2928 
Q 4903 3084 4622 3084 
Q 4203 3084 3875 2770 
Q 3547 2456 3450 1953 
L 3066 0 
L 2491 0 
L 2900 2094 
Q 2925 2209 2937 2307 
Q 2950 2406 2950 2484 
Q 2950 2769 2794 2926 
Q 2638 3084 2363 3084 
Q 1938 3084 1609 2770 
Q 1281 2456 1184 1953 
L 800 0 
L 225 0 
L 909 3500 
L 1484 3500 
L 1375 2956 
Q 1609 3263 1923 3423 
Q 2238 3584 2597 3584 
Q 2978 3584 3223 3384 
Q 3469 3184 3519 2828 
Q 3781 3197 4126 3390 
Q 4472 3584 4856 3584 
Q 5306 3584 5551 3325 
Q 5797 3066 5797 2591 
Q 5797 2488 5784 2364 
Q 5772 2241 5747 2113 
z
" transform="scale(0.015625)"/>
      <path id="Calibri-3d" d="M 2891 2409 
Q 2891 2284 2855 2236 
Q 2819 2188 2772 2188 
L 409 2188 
Q 363 2188 328 2236 
Q 294 2284 294 2409 
Q 294 2522 325 2575 
Q 356 2628 409 2628 
L 2772 2628 
Q 2828 2628 2859 2575 
Q 2891 2522 2891 2409 
z
M 2891 1194 
Q 2891 1069 2855 1022 
Q 2819 975 2772 975 
L 409 975 
Q 363 975 328 1022 
Q 294 1069 294 1194 
Q 294 1309 325 1362 
Q 356 1416 409 1416 
L 2772 1416 
Q 2828 1416 2859 1362 
Q 2891 1309 2891 1194 
z
" transform="scale(0.015625)"/>
      <path id="Calibri-b0" d="M 1847 3541 
Q 1847 3388 1789 3253 
Q 1731 3119 1626 3017 
Q 1522 2916 1380 2859 
Q 1238 2803 1072 2803 
Q 906 2803 770 2854 
Q 634 2906 534 3000 
Q 434 3094 378 3225 
Q 322 3356 322 3516 
Q 322 3675 381 3811 
Q 441 3947 545 4044 
Q 650 4141 790 4197 
Q 931 4253 1097 4253 
Q 1259 4253 1396 4200 
Q 1534 4147 1634 4055 
Q 1734 3963 1790 3831 
Q 1847 3700 1847 3541 
z
M 1453 3528 
Q 1453 3613 1425 3686 
Q 1397 3759 1347 3812 
Q 1297 3866 1228 3895 
Q 1159 3925 1078 3925 
Q 1000 3925 933 3895 
Q 866 3866 816 3812 
Q 766 3759 737 3687 
Q 709 3616 709 3534 
Q 709 3444 737 3369 
Q 766 3294 817 3241 
Q 869 3188 939 3158 
Q 1009 3128 1091 3128 
Q 1166 3128 1233 3159 
Q 1300 3191 1348 3245 
Q 1397 3300 1425 3372 
Q 1453 3444 1453 3528 
z
M 0 4044 
L 0 4044 
z
" transform="scale(0.015625)"/>
     </defs>
     <use xlink:href="#DejaVuSans-Oblique-3b8" transform="translate(0 0.234375)"/>
     <use xlink:href="#DejaVuSans-Oblique-6d" transform="translate(61.181641 -16.171875) scale(0.7)"/>
     <use xlink:href="#Calibri-20" transform="translate(132.104492 0.234375)"/>
     <use xlink:href="#Calibri-3d" transform="translate(154.711914 0.234375)"/>
     <use xlink:href="#Calibri-20" transform="translate(204.516602 0.234375)"/>
     <use xlink:href="#Calibri-35" transform="translate(227.124023 0.234375)"/>
     <use xlink:href="#Calibri-37" transform="translate(277.807617 0.234375)"/>
     <use xlink:href="#Calibri-b0" transform="translate(328.491211 0.234375)"/>
    </g>
   </g>
  </g>
  <g id="axes_2">
   <g id="patch_7">
    <path d="M 361.152 307.584 
L 374.4576 307.584 
L 374.4576 41.472 
L 361.152 41.472 
z
" style="fill: #ffffff"/>
   </g>
   <g id="QuadMesh_1">
    <path d="M 361.152 307.584 
L 374.4576 307.584 
L 374.4576 280.9728 
L 361.152 280.9728 
L 361.152 307.584 
" clip-path="url(#pa3f5da16b6)" style="fill: #0000b6"/>
    <path d="M 361.152 280.9728 
L 374.4576 280.9728 
L 374.4576 254.3616 
L 361.152 254.3616 
L 361.152 280.9728 
" clip-path="url(#pa3f5da16b6)" style="fill: #0018ff"/>
    <path d="M 361.152 254.3616 
L 374.4576 254.3616 
L 374.4576 227.7504 
L 361.152 227.7504 
L 361.152 254.3616 
" clip-path="url(#pa3f5da16b6)" style="fill: #0080ff"/>
    <path d="M 361.152 227.7504 
L 374.4576 227.7504 
L 374.4576 201.1392 
L 361.152 201.1392 
L 361.152 227.7504 
" clip-path="url(#pa3f5da16b6)" style="fill: #00e4f8"/>
    <path d="M 361.152 201.1392 
L 374.4576 201.1392 
L 374.4576 174.528 
L 361.152 174.528 
L 361.152 201.1392 
" clip-path="url(#pa3f5da16b6)" style="fill: #53ffa4"/>
    <path d="M 361.152 174.528 
L 374.4576 174.528 
L 374.4576 147.9168 
L 361.152 147.9168 
L 361.152 174.528 
" clip-path="url(#pa3f5da16b6)" style="fill: #a4ff53"/>
    <path d="M 361.152 147.9168 
L 374.4576 147.9168 
L 374.4576 121.3056 
L 361.152 121.3056 
L 361.152 147.9168 
" clip-path="url(#pa3f5da16b6)" style="fill: #f8f500"/>
    <path d="M 361.152 121.3056 
L 374.4576 121.3056 
L 374.4576 94.6944 
L 361.152 94.6944 
L 361.152 121.3056 
" clip-path="url(#pa3f5da16b6)" style="fill: #ff9400"/>
    <path d="M 361.152 94.6944 
L 374.4576 94.6944 
L 374.4576 68.0832 
L 361.152 68.0832 
L 361.152 94.6944 
" clip-path="url(#pa3f5da16b6)" style="fill: #ff3800"/>
    <path d="M 361.152 68.0832 
L 374.4576 68.0832 
L 374.4576 41.472 
L 361.152 41.472 
L 361.152 68.0832 
" clip-path="url(#pa3f5da16b6)" style="fill: #b60000"/>
   </g>
   <g id="matplotlib.axis_3"/>
   <g id="matplotlib.axis_4">
    <g id="ytick_9">
     <g id="line2d_20">
      <defs>
       <path id="m745929e845" d="M 0 0 
L 3.5 0 
" style="stroke: #000000; stroke-width: 0.8"/>
      </defs>
      <g>
       <use xlink:href="#m745929e845" x="374.4576" y="307.584" style="stroke: #000000; stroke-width: 0.8"/>
      </g>
     </g>
     <g id="text_23">
      <!-- 0 -->
      <g transform="translate(381.4576 310.984781) scale(0.1 -0.1)">
       <use xlink:href="#Calibri-30"/>
      </g>
     </g>
    </g>
    <g id="ytick_10">
     <g id="line2d_21">
      <g>
       <use xlink:href="#m745929e845" x="374.4576" y="280.9728" style="stroke: #000000; stroke-width: 0.8"/>
      </g>
     </g>
     <g id="text_24">
      <!-- 0.1 -->
      <g transform="translate(381.4576 284.373581) scale(0.1 -0.1)">
       <use xlink:href="#Calibri-30"/>
       <use xlink:href="#Calibri-2e" x="50.683594"/>
       <use xlink:href="#Calibri-31" x="75.927734"/>
      </g>
     </g>
    </g>
    <g id="ytick_11">
     <g id="line2d_22">
      <g>
       <use xlink:href="#m745929e845" x="374.4576" y="254.3616" style="stroke: #000000; stroke-width: 0.8"/>
      </g>
     </g>
     <g id="text_25">
      <!-- 0.2 -->
      <g transform="translate(381.4576 257.762381) scale(0.1 -0.1)">
       <use xlink:href="#Calibri-30"/>
       <use xlink:href="#Calibri-2e" x="50.683594"/>
       <use xlink:href="#Calibri-32" x="75.927734"/>
      </g>
     </g>
    </g>
    <g id="ytick_12">
     <g id="line2d_23">
      <g>
       <use xlink:href="#m745929e845" x="374.4576" y="227.7504" style="stroke: #000000; stroke-width: 0.8"/>
      </g>
     </g>
     <g id="text_26">
      <!-- 0.3 -->
      <g transform="translate(381.4576 231.151181) scale(0.1 -0.1)">
       <use xlink:href="#Calibri-30"/>
       <use xlink:href="#Calibri-2e" x="50.683594"/>
       <use xlink:href="#Calibri-33" x="75.927734"/>
      </g>
     </g>
    </g>
    <g id="ytick_13">
     <g id="line2d_24">
      <g>
       <use xlink:href="#m745929e845" x="374.4576" y="201.1392" style="stroke: #000000; stroke-width: 0.8"/>
      </g>
     </g>
     <g id="text_27">
      <!-- 0.4 -->
      <g transform="translate(381.4576 204.539981) scale(0.1 -0.1)">
       <use xlink:href="#Calibri-30"/>
       <use xlink:href="#Calibri-2e" x="50.683594"/>
       <use xlink:href="#Calibri-34" x="75.927734"/>
      </g>
     </g>
    </g>
    <g id="ytick_14">
     <g id="line2d_25">
      <g>
       <use xlink:href="#m745929e845" x="374.4576" y="174.528" style="stroke: #000000; stroke-width: 0.8"/>
      </g>
     </g>
     <g id="text_28">
      <!-- 0.5 -->
      <g transform="translate(381.4576 177.928781) scale(0.1 -0.1)">
       <use xlink:href="#Calibri-30"/>
       <use xlink:href="#Calibri-2e" x="50.683594"/>
       <use xlink:href="#Calibri-35" x="75.927734"/>
      </g>
     </g>
    </g>
    <g id="ytick_15">
     <g id="line2d_26">
      <g>
       <use xlink:href="#m745929e845" x="374.4576" y="147.9168" style="stroke: #000000; stroke-width: 0.8"/>
      </g>
     </g>
     <g id="text_29">
      <!-- 0.6 -->
      <g transform="translate(381.4576 151.317581) scale(0.1 -0.1)">
       <use xlink:href="#Calibri-30"/>
       <use xlink:href="#Calibri-2e" x="50.683594"/>
       <use xlink:href="#Calibri-36" x="75.927734"/>
      </g>
     </g>
    </g>
    <g id="ytick_16">
     <g id="line2d_27">
      <g>
       <use xlink:href="#m745929e845" x="374.4576" y="121.3056" style="stroke: #000000; stroke-width: 0.8"/>
      </g>
     </g>
     <g id="text_30">
      <!-- 0.7 -->
      <g transform="translate(381.4576 124.706381) scale(0.1 -0.1)">
       <use xlink:href="#Calibri-30"/>
       <use xlink:href="#Calibri-2e" x="50.683594"/>
       <use xlink:href="#Calibri-37" x="75.927734"/>
      </g>
     </g>
    </g>
    <g id="ytick_17">
     <g id="line2d_28">
      <g>
       <use xlink:href="#m745929e845" x="374.4576" y="94.6944" style="stroke: #000000; stroke-width: 0.8"/>
      </g>
     </g>
     <g id="text_31">
      <!-- 0.8 -->
      <g transform="translate(381.4576 98.095181) scale(0.1 -0.1)">
       <use xlink:href="#Calibri-30"/>
       <use xlink:href="#Calibri-2e" x="50.683594"/>
       <use xlink:href="#Calibri-38" x="75.927734"/>
      </g>
     </g>
    </g>
    <g id="ytick_18">
     <g id="line2d_29">
      <g>
       <use xlink:href="#m745929e845" x="374.4576" y="68.0832" style="stroke: #000000; stroke-width: 0.8"/>
      </g>
     </g>
     <g id="text_32">
      <!-- 0.9 -->
      <g transform="translate(381.4576 71.483981) scale(0.1 -0.1)">
       <use xlink:href="#Calibri-30"/>
       <use xlink:href="#Calibri-2e" x="50.683594"/>
       <use xlink:href="#Calibri-39" x="75.927734"/>
      </g>
     </g>
    </g>
    <g id="ytick_19">
     <g id="line2d_30">
      <g>
       <use xlink:href="#m745929e845" x="374.4576" y="41.472" style="stroke: #000000; stroke-width: 0.8"/>
      </g>
     </g>
     <g id="text_33">
      <!-- 1.0 -->
      <g transform="translate(381.4576 44.872781) scale(0.1 -0.1)">
       <use xlink:href="#Calibri-31"/>
       <use xlink:href="#Calibri-2e" x="50.683594"/>
       <use xlink:href="#Calibri-30" x="75.927734"/>
      </g>
     </g>
    </g>
   </g>
   <g id="LineCollection_1"/>
   <g id="patch_8">
    <path d="M 361.152 307.584 
L 367.8048 307.584 
L 374.4576 307.584 
L 374.4576 41.472 
L 367.8048 41.472 
L 361.152 41.472 
L 361.152 307.584 
z
" style="fill: none; stroke: #000000; stroke-width: 0.8; stroke-linejoin: miter; stroke-linecap: square"/>
   </g>
   <g id="text_34">
    <!-- $\mathit{E}_{\mathrm{dis}}$/$\mathit{E}_{\mathrm{i}}$ -->
    <g transform="translate(353.2548 35.472) scale(0.1 -0.1)">
     <defs>
      <path id="DejaVuSans-Oblique-45" d="M 1081 4666 
L 4031 4666 
L 3928 4134 
L 1606 4134 
L 1338 2753 
L 3566 2753 
L 3463 2222 
L 1234 2222 
L 909 531 
L 3284 531 
L 3181 0 
L 172 0 
L 1081 4666 
z
" transform="scale(0.015625)"/>
      <path id="DejaVuSans-64" d="M 2906 2969 
L 2906 4863 
L 3481 4863 
L 3481 0 
L 2906 0 
L 2906 525 
Q 2725 213 2448 61 
Q 2172 -91 1784 -91 
Q 1150 -91 751 415 
Q 353 922 353 1747 
Q 353 2572 751 3078 
Q 1150 3584 1784 3584 
Q 2172 3584 2448 3432 
Q 2725 3281 2906 2969 
z
M 947 1747 
Q 947 1113 1208 752 
Q 1469 391 1925 391 
Q 2381 391 2643 752 
Q 2906 1113 2906 1747 
Q 2906 2381 2643 2742 
Q 2381 3103 1925 3103 
Q 1469 3103 1208 2742 
Q 947 2381 947 1747 
z
" transform="scale(0.015625)"/>
      <path id="DejaVuSans-69" d="M 603 3500 
L 1178 3500 
L 1178 0 
L 603 0 
L 603 3500 
z
M 603 4863 
L 1178 4863 
L 1178 4134 
L 603 4134 
L 603 4863 
z
" transform="scale(0.015625)"/>
      <path id="DejaVuSans-73" d="M 2834 3397 
L 2834 2853 
Q 2591 2978 2328 3040 
Q 2066 3103 1784 3103 
Q 1356 3103 1142 2972 
Q 928 2841 928 2578 
Q 928 2378 1081 2264 
Q 1234 2150 1697 2047 
L 1894 2003 
Q 2506 1872 2764 1633 
Q 3022 1394 3022 966 
Q 3022 478 2636 193 
Q 2250 -91 1575 -91 
Q 1294 -91 989 -36 
Q 684 19 347 128 
L 347 722 
Q 666 556 975 473 
Q 1284 391 1588 391 
Q 1994 391 2212 530 
Q 2431 669 2431 922 
Q 2431 1156 2273 1281 
Q 2116 1406 1581 1522 
L 1381 1569 
Q 847 1681 609 1914 
Q 372 2147 372 2553 
Q 372 3047 722 3315 
Q 1072 3584 1716 3584 
Q 2034 3584 2315 3537 
Q 2597 3491 2834 3397 
z
" transform="scale(0.015625)"/>
     </defs>
     <use xlink:href="#DejaVuSans-Oblique-45" transform="translate(0 0.09375)"/>
     <use xlink:href="#DejaVuSans-64" transform="translate(63.183594 -16.3125) scale(0.7)"/>
     <use xlink:href="#DejaVuSans-69" transform="translate(107.617188 -16.3125) scale(0.7)"/>
     <use xlink:href="#DejaVuSans-73" transform="translate(127.06543 -16.3125) scale(0.7)"/>
     <use xlink:href="#Calibri-2f" transform="translate(166.269531 0.09375)"/>
     <use xlink:href="#DejaVuSans-Oblique-45" transform="translate(204.892578 0.09375)"/>
     <use xlink:href="#DejaVuSans-69" transform="translate(268.076172 -16.3125) scale(0.7)"/>
    </g>
   </g>
  </g>
 </g>
 <defs>
  <clipPath id="pa5887391de">
   <rect x="57.6" y="41.472" width="285.696" height="266.112"/>
  </clipPath>
  <clipPath id="pa3f5da16b6">
   <rect x="361.152" y="41.472" width="13.3056" height="266.112"/>
  </clipPath>
 </defs>
</svg>
