<?xml version="1.0" encoding="utf-8" standalone="no"?>
<!DOCTYPE svg PUBLIC "-//W3C//DTD SVG 1.1//EN"
  "http://www.w3.org/Graphics/SVG/1.1/DTD/svg11.dtd">
<svg xmlns:xlink="http://www.w3.org/1999/xlink" width="460.8pt" height="345.6pt" viewBox="0 0 460.8 345.6" xmlns="http://www.w3.org/2000/svg" version="1.1">
 <metadata>
  <rdf:RDF xmlns:dc="http://purl.org/dc/elements/1.1/" xmlns:cc="http://creativecommons.org/ns#" xmlns:rdf="http://www.w3.org/1999/02/22-rdf-syntax-ns#">
   <cc:Work>
    <dc:type rdf:resource="http://purl.org/dc/dcmitype/StillImage"/>
    <dc:date>2024-01-22T08:41:27.556688</dc:date>
    <dc:format>image/svg+xml</dc:format>
    <dc:creator>
     <cc:Agent>
      <dc:title>Matplotlib v3.7.1, https://matplotlib.org/</dc:title>
     </cc:Agent>
    </dc:creator>
   </cc:Work>
  </rdf:RDF>
 </metadata>
 <defs>
  <style type="text/css">*{stroke-linejoin: round; stroke-linecap: butt}</style>
 </defs>
 <g id="figure_1">
  <g id="patch_1">
   <path d="M 0 345.6 
L 460.8 345.6 
L 460.8 0 
L 0 0 
z
" style="fill: #ffffff"/>
  </g>
  <g id="axes_1">
   <g id="patch_2">
    <path d="M 57.6 307.584 
L 343.296 307.584 
L 343.296 41.472 
L 57.6 41.472 
z
" style="fill: #ffffff"/>
   </g>
   <g id="PathCollection_1">
    <path clip-path="url(#p3ce1a552ee)" style="fill: #0000b6"/>
   </g>
   <g id="PathCollection_2">
    <path clip-path="url(#p3ce1a552ee)" style="fill: #0018ff"/>
   </g>
   <g id="PathCollection_3">
    <path d="M 57.62857 67.85924 
L 57.997064 66.698931 
L 58.603079 64.7568 
L 58.822536 64.036936 
L 59.316674 62.40468 
L 59.508274 61.752311 
L 59.547062 61.625642 
L 59.605513 61.4304 
L 59.679658 61.169581 
L 59.764313 60.876961 
L 59.889117 60.45612 
L 60.020492 59.999381 
L 60.562206 58.104 
L 60.629946 57.861307 
L 60.919903 56.818491 
L 61.181477 55.881115 
L 61.217326 55.75188 
L 61.247823 55.638354 
L 61.487472 54.7776 
L 61.624476 54.25744 
L 61.748007 53.80332 
L 62.306237 51.683767 
L 62.367163 51.4512 
L 62.578787 50.62363 
L 62.971971 49.09908 
L 63.028126 48.873912 
L 63.106784 48.573404 
L 63.221564 48.1248 
L 63.439037 47.230591 
L 63.458051 47.15052 
L 63.858586 45.510799 
L 64.032142 44.7984 
L 64.447254 43.0522 
L 64.59073 42.44628 
L 64.700387 41.9664 
L 64.816384 41.472 
L 63.723418 41.472 
L 62.199706 41.472 
L 60.675994 41.472 
L 59.152282 41.472 
L 57.62857 41.472 
L 57.62857 44.7984 
L 57.62857 48.1248 
L 57.62857 51.4512 
L 57.62857 54.7776 
L 57.62857 58.104 
L 57.62857 61.4304 
L 57.62857 64.7568 
" clip-path="url(#p3ce1a552ee)" style="fill: #0080ff"/>
   </g>
   <g id="PathCollection_4">
    <path d="M 64.816384 41.472 
L 64.700387 41.9664 
L 64.59073 42.44628 
L 64.447254 43.0522 
L 64.032142 44.7984 
L 63.858586 45.510799 
L 63.458051 47.15052 
L 63.439037 47.230591 
L 63.221564 48.1248 
L 63.106784 48.573404 
L 63.028126 48.873912 
L 62.971971 49.09908 
L 62.578787 50.62363 
L 62.367163 51.4512 
L 62.306237 51.683767 
L 61.748007 53.80332 
L 61.624476 54.25744 
L 61.487472 54.7776 
L 61.247823 55.638354 
L 61.217326 55.75188 
L 61.181477 55.881115 
L 60.919903 56.818491 
L 60.629946 57.861307 
L 60.562206 58.104 
L 60.020492 59.999381 
L 59.889117 60.45612 
L 59.764313 60.876961 
L 59.679658 61.169581 
L 59.605513 61.4304 
L 59.547062 61.625642 
L 59.508274 61.752311 
L 59.316674 62.40468 
L 58.822536 64.036936 
L 58.603079 64.7568 
L 57.997064 66.698931 
L 57.62857 67.85924 
L 57.62857 68.0832 
L 57.62857 71.4096 
L 57.62857 74.736 
L 57.62857 78.0624 
L 57.62857 81.3888 
L 57.62857 84.7152 
L 57.62857 88.0416 
L 57.62857 91.368 
L 57.62857 94.6944 
L 57.62857 98.0208 
L 57.62857 101.3472 
L 57.62857 104.6736 
L 57.62857 108 
L 57.62857 111.3264 
L 57.62857 114.6528 
L 57.62857 117.9792 
L 57.62857 121.3056 
L 57.62857 124.632 
L 57.62857 127.9584 
L 57.62857 131.2848 
L 57.62857 131.440671 
L 57.652183 131.409253 
L 57.742526 131.2848 
L 58.599991 130.0791 
L 59.401185 128.93268 
L 59.71811 128.470059 
L 60.07055 127.9584 
L 60.601612 127.168048 
L 60.722322 126.98412 
L 61.033157 126.514412 
L 62.050676 124.957346 
L 62.226293 124.690042 
L 62.2638 124.632 
L 63.386674 122.857212 
L 63.74754 122.27988 
L 63.95248 121.945881 
L 64.350241 121.3056 
L 64.556695 120.964139 
L 64.665596 120.77974 
L 64.936659 120.33132 
L 65.718932 119.009188 
L 66.319123 117.9792 
L 66.658065 117.384815 
L 66.997956 116.782206 
L 67.412915 116.054503 
L 67.653072 115.62708 
L 68.083595 114.843563 
L 68.149557 114.72451 
L 68.189814 114.6528 
L 68.212052 114.611998 
L 68.224199 114.589181 
L 68.721427 113.67852 
L 69.071553 113.022659 
L 69.735866 111.760682 
L 69.857328 111.532276 
L 69.965701 111.3264 
L 70.694006 109.911819 
L 71.170206 108.97428 
L 71.557076 108.194506 
L 71.654765 108 
L 71.752637 107.796905 
L 71.900058 107.495347 
L 72.132077 107.02572 
L 72.279468 106.720226 
L 72.608396 106.02965 
L 72.97734 105.262045 
L 73.257602 104.6736 
L 73.828127 103.448286 
L 74.346327 102.32148 
L 74.669709 101.600672 
L 74.712895 101.507186 
L 74.785115 101.3472 
L 74.893727 101.097781 
L 75.045915 100.753538 
L 75.216335 100.37292 
L 75.33859 100.092964 
L 75.662209 99.343177 
L 76.011636 98.540056 
L 76.235726 98.0208 
L 76.811453 96.655556 
L 77.222966 95.66868 
L 77.569878 94.814714 
L 77.619613 94.6944 
L 77.663849 94.582124 
L 77.722201 94.436345 
L 78.013256 93.72012 
L 78.245488 93.133382 
L 78.936875 91.368 
L 78.952692 91.326651 
L 78.98404 91.244132 
L 79.640834 89.526749 
L 79.834241 89.01588 
L 80.047655 88.436397 
L 80.129926 88.216834 
L 80.196643 88.0416 
L 80.240626 87.921114 
L 80.267532 87.84563 
L 80.554974 87.06732 
L 80.997419 85.835494 
L 81.39601 84.7152 
L 81.791779 83.575819 
L 82.210483 82.36308 
L 82.342115 81.977107 
L 82.546106 81.3888 
L 82.771606 80.701498 
L 82.868045 80.41452 
L 83.592338 78.194837 
L 83.635193 78.0624 
L 83.864883 77.334974 
L 84.380698 75.71028 
L 84.430447 75.548729 
L 84.687412 74.736 
L 84.932304 73.921563 
L 84.979217 73.76172 
L 85.299279 72.695028 
L 85.68316 71.4096 
L 86.031447 70.21403 
L 86.366045 69.05748 
L 86.626847 68.126378 
L 86.639309 68.0832 
L 86.648611 68.048821 
L 86.659067 68.010887 
L 86.914439 67.10892 
L 87.192217 66.095295 
L 87.556739 64.7568 
L 87.87523 63.557356 
L 88.180178 62.40468 
L 88.258376 62.107029 
L 88.439401 61.4304 
L 88.658094 60.554684 
L 88.683576 60.45612 
L 88.844795 59.81058 
L 89.274891 58.104 
L 89.397632 57.604312 
L 89.850489 55.75188 
L 90.000496 55.115772 
L 90.034378 54.979309 
L 90.083292 54.7776 
L 90.141126 54.523098 
L 90.202937 54.256368 
L 90.311579 53.80332 
L 90.443213 53.23411 
L 90.853852 51.4512 
L 91.014435 50.735481 
L 91.380775 49.09908 
L 91.464799 48.722795 
L 91.600904 48.1248 
L 91.702891 47.644556 
L 91.772293 47.309467 
L 91.807173 47.15052 
L 91.987291 46.297428 
L 92.307575 44.7984 
L 92.422005 44.248392 
L 92.795999 42.44628 
L 92.94191 41.714311 
L 92.990998 41.472 
L 92.673946 41.472 
L 91.150234 41.472 
L 89.626522 41.472 
L 88.10281 41.472 
L 86.579098 41.472 
L 85.055386 41.472 
L 83.531674 41.472 
L 82.007962 41.472 
L 80.48425 41.472 
L 78.960538 41.472 
L 77.436826 41.472 
L 75.913114 41.472 
L 74.389402 41.472 
L 72.86569 41.472 
L 71.341978 41.472 
L 69.818266 41.472 
L 68.294554 41.472 
L 66.770842 41.472 
L 65.24713 41.472 
" clip-path="url(#p3ce1a552ee)" style="fill: #00e4f8"/>
   </g>
   <g id="PathCollection_5">
    <path d="M 92.990998 41.472 
L 92.94191 41.714311 
L 92.795999 42.44628 
L 92.422005 44.248392 
L 92.307575 44.7984 
L 91.987291 46.297428 
L 91.807173 47.15052 
L 91.772293 47.309467 
L 91.702891 47.644556 
L 91.600904 48.1248 
L 91.464799 48.722795 
L 91.380775 49.09908 
L 91.014435 50.735481 
L 90.853852 51.4512 
L 90.443213 53.23411 
L 90.311579 53.80332 
L 90.202937 54.256368 
L 90.141126 54.523098 
L 90.083292 54.7776 
L 90.034378 54.979309 
L 90.000496 55.115772 
L 89.850489 55.75188 
L 89.397632 57.604312 
L 89.274891 58.104 
L 88.844795 59.81058 
L 88.683576 60.45612 
L 88.658094 60.554684 
L 88.439401 61.4304 
L 88.258376 62.107029 
L 88.180178 62.40468 
L 87.87523 63.557356 
L 87.556739 64.7568 
L 87.192217 66.095295 
L 86.914439 67.10892 
L 86.659067 68.010887 
L 86.648611 68.048821 
L 86.639309 68.0832 
L 86.626847 68.126378 
L 86.366045 69.05748 
L 86.031447 70.21403 
L 85.68316 71.4096 
L 85.299279 72.695028 
L 84.979217 73.76172 
L 84.932304 73.921563 
L 84.687412 74.736 
L 84.430447 75.548729 
L 84.380698 75.71028 
L 83.864883 77.334974 
L 83.635193 78.0624 
L 83.592338 78.194837 
L 82.868045 80.41452 
L 82.771606 80.701498 
L 82.546106 81.3888 
L 82.342115 81.977107 
L 82.210483 82.36308 
L 81.791779 83.575819 
L 81.39601 84.7152 
L 80.997419 85.835494 
L 80.554974 87.06732 
L 80.267532 87.84563 
L 80.240626 87.921114 
L 80.196643 88.0416 
L 80.129926 88.216834 
L 80.047655 88.436397 
L 79.834241 89.01588 
L 79.640834 89.526749 
L 78.98404 91.244132 
L 78.952692 91.326651 
L 78.936875 91.368 
L 78.245488 93.133382 
L 78.013256 93.72012 
L 77.722201 94.436345 
L 77.663849 94.582124 
L 77.619613 94.6944 
L 77.569878 94.814714 
L 77.222966 95.66868 
L 76.811453 96.655556 
L 76.235726 98.0208 
L 76.011636 98.540056 
L 75.662209 99.343177 
L 75.33859 100.092964 
L 75.216335 100.37292 
L 75.045915 100.753538 
L 74.893727 101.097781 
L 74.785115 101.3472 
L 74.712895 101.507186 
L 74.669709 101.600672 
L 74.346327 102.32148 
L 73.828127 103.448286 
L 73.257602 104.6736 
L 72.97734 105.262045 
L 72.608396 106.02965 
L 72.279468 106.720226 
L 72.132077 107.02572 
L 71.900058 107.495347 
L 71.752637 107.796905 
L 71.654765 108 
L 71.557076 108.194506 
L 71.170206 108.97428 
L 70.694006 109.911819 
L 69.965701 111.3264 
L 69.857328 111.532276 
L 69.735866 111.760682 
L 69.071553 113.022659 
L 68.721427 113.67852 
L 68.224199 114.589181 
L 68.212052 114.611998 
L 68.189814 114.6528 
L 68.149557 114.72451 
L 68.083595 114.843563 
L 67.653072 115.62708 
L 67.412915 116.054503 
L 66.997956 116.782206 
L 66.658065 117.384815 
L 66.319123 117.9792 
L 65.718932 119.009188 
L 64.936659 120.33132 
L 64.665596 120.77974 
L 64.556695 120.964139 
L 64.350241 121.3056 
L 63.95248 121.945881 
L 63.74754 122.27988 
L 63.386674 122.857212 
L 62.2638 124.632 
L 62.226293 124.690042 
L 62.050676 124.957346 
L 61.033157 126.514412 
L 60.722322 126.98412 
L 60.601612 127.168048 
L 60.07055 127.9584 
L 59.71811 128.470059 
L 59.401185 128.93268 
L 58.599991 130.0791 
L 57.742526 131.2848 
L 57.652183 131.409253 
L 57.62857 131.440671 
L 57.62857 134.6112 
L 57.62857 137.9376 
L 57.62857 141.264 
L 57.62857 144.5904 
L 57.62857 147.9168 
L 57.62857 151.2432 
L 57.62857 154.5696 
L 57.62857 157.896 
L 57.62857 161.2224 
L 57.62857 164.5488 
L 57.62857 167.8752 
L 57.62857 171.2016 
L 57.62857 173.268592 
L 57.975299 173.02902 
L 58.486189 172.65574 
L 59.489121 171.936951 
L 60.485975 171.2016 
L 60.652293 171.076686 
L 60.707793 171.034001 
L 61.760751 170.243323 
L 63.119129 169.194416 
L 63.314474 169.046287 
L 63.567946 168.84948 
L 64.050453 168.467027 
L 64.801508 167.8752 
L 64.971695 167.738981 
L 65.0371 167.685278 
L 66.005759 166.90092 
L 66.237296 166.710423 
L 66.384255 166.586282 
L 67.052654 166.034078 
L 67.968522 165.260556 
L 68.440814 164.8681 
L 68.815095 164.5488 
L 69.676193 163.800014 
L 70.017931 163.496474 
L 70.620108 162.972893 
L 71.490397 162.19668 
L 71.954193 161.776005 
L 72.134884 161.614539 
L 72.562886 161.2224 
L 73.462099 160.383872 
L 73.607325 160.24812 
L 74.902588 159.016331 
L 75.881479 158.062726 
L 75.935042 158.01157 
L 76.053688 157.896 
L 77.004148 156.951425 
L 78.387816 155.54388 
L 78.446752 155.482841 
L 78.720147 155.204278 
L 79.327881 154.5696 
L 79.858877 154.004097 
L 80.242554 153.59532 
L 81.123689 152.639154 
L 81.908234 151.768808 
L 82.073511 151.588675 
L 82.384935 151.2432 
L 83.139927 150.387982 
L 84.43345 148.89108 
L 84.509673 148.801171 
L 85.260404 147.9168 
L 85.823518 147.233556 
L 86.063784 146.94252 
L 87.080991 145.686078 
L 87.95027 144.5904 
L 88.072853 144.432515 
L 88.152542 144.328287 
L 89.004035 143.231456 
L 89.76009 142.23828 
L 90.140288 141.728581 
L 90.256645 141.575633 
L 90.488038 141.264 
L 91.068335 140.469931 
L 91.196827 140.28972 
L 91.512977 139.849418 
L 92.321331 138.70739 
L 92.750636 138.105022 
L 92.867763 137.9376 
L 93.9089 136.41572 
L 94.469112 135.58548 
L 94.513107 135.520774 
L 95.116814 134.6112 
L 95.339833 134.26619 
L 95.749066 133.63692 
L 96.359401 132.67768 
L 97.230659 131.2848 
L 97.241665 131.266796 
L 97.251628 131.250295 
L 98.109806 129.846172 
L 98.658982 128.93268 
L 99.070948 128.231628 
L 99.128354 128.136224 
L 99.232807 127.9584 
L 99.41514 127.638744 
L 99.736039 127.083753 
L 99.794083 126.98412 
L 99.822975 126.933372 
L 99.872674 126.844699 
L 100.501757 125.734847 
L 101.119723 124.632 
L 101.498886 123.939237 
L 102.393456 122.27988 
L 102.554747 121.973426 
L 102.905346 121.3056 
L 103.135893 120.860171 
L 103.33993 120.455354 
L 103.33993 117.9792 
L 103.33993 114.6528 
L 103.33993 111.3264 
L 103.33993 108 
L 103.33993 104.6736 
L 103.33993 101.3472 
L 103.33993 98.0208 
L 103.33993 94.6944 
L 103.33993 91.368 
L 103.33993 88.0416 
L 103.33993 84.7152 
L 103.33993 81.3888 
L 103.33993 78.0624 
L 103.33993 74.736 
L 103.33993 71.4096 
L 103.33993 68.0832 
L 103.33993 64.7568 
L 103.33993 61.4304 
L 103.33993 58.104 
L 103.33993 54.7776 
L 103.33993 51.4512 
L 103.33993 48.1248 
L 103.33993 44.7984 
L 103.33993 41.472 
L 101.816218 41.472 
L 100.292506 41.472 
L 98.768794 41.472 
L 97.245082 41.472 
L 95.72137 41.472 
L 94.197658 41.472 
" clip-path="url(#p3ce1a552ee)" style="fill: #53ffa4"/>
   </g>
   <g id="PathCollection_6">
    <path d="M 103.33993 120.455354 
L 103.135893 120.860171 
L 102.905346 121.3056 
L 102.554747 121.973426 
L 102.393456 122.27988 
L 101.498886 123.939237 
L 101.119723 124.632 
L 100.501757 125.734847 
L 99.872674 126.844699 
L 99.822975 126.933372 
L 99.794083 126.98412 
L 99.736039 127.083753 
L 99.41514 127.638744 
L 99.232807 127.9584 
L 99.128354 128.136224 
L 99.070948 128.231628 
L 98.658982 128.93268 
L 98.109806 129.846172 
L 97.251628 131.250295 
L 97.241665 131.266796 
L 97.230659 131.2848 
L 96.359401 132.67768 
L 95.749066 133.63692 
L 95.339833 134.26619 
L 95.116814 134.6112 
L 94.513107 135.520774 
L 94.469112 135.58548 
L 93.9089 136.41572 
L 92.867763 137.9376 
L 92.750636 138.105022 
L 92.321331 138.70739 
L 91.512977 139.849418 
L 91.196827 140.28972 
L 91.068335 140.469931 
L 90.488038 141.264 
L 90.256645 141.575633 
L 90.140288 141.728581 
L 89.76009 142.23828 
L 89.004035 143.231456 
L 88.152542 144.328287 
L 88.072853 144.432515 
L 87.95027 144.5904 
L 87.080991 145.686078 
L 86.063784 146.94252 
L 85.823518 147.233556 
L 85.260404 147.9168 
L 84.509673 148.801171 
L 84.43345 148.89108 
L 83.139927 150.387982 
L 82.384935 151.2432 
L 82.073511 151.588675 
L 81.908234 151.768808 
L 81.123689 152.639154 
L 80.242554 153.59532 
L 79.858877 154.004097 
L 79.327881 154.5696 
L 78.720147 155.204278 
L 78.446752 155.482841 
L 78.387816 155.54388 
L 77.004148 156.951425 
L 76.053688 157.896 
L 75.935042 158.01157 
L 75.881479 158.062726 
L 74.902588 159.016331 
L 73.607325 160.24812 
L 73.462099 160.383872 
L 72.562886 161.2224 
L 72.134884 161.614539 
L 71.954193 161.776005 
L 71.490397 162.19668 
L 70.620108 162.972893 
L 70.017931 163.496474 
L 69.676193 163.800014 
L 68.815095 164.5488 
L 68.440814 164.8681 
L 67.968522 165.260556 
L 67.052654 166.034078 
L 66.384255 166.586282 
L 66.237296 166.710423 
L 66.005759 166.90092 
L 65.0371 167.685278 
L 64.971695 167.738981 
L 64.801508 167.8752 
L 64.050453 168.467027 
L 63.567946 168.84948 
L 63.314474 169.046287 
L 63.119129 169.194416 
L 61.760751 170.243323 
L 60.707793 171.034001 
L 60.652293 171.076686 
L 60.485975 171.2016 
L 59.489121 171.936951 
L 58.486189 172.65574 
L 57.975299 173.02902 
L 57.62857 173.268592 
L 57.62857 174.528 
L 57.62857 177.8544 
L 57.62857 181.1808 
L 57.62857 184.5072 
L 57.62857 187.8336 
L 57.62857 191.16 
L 57.62857 194.4864 
L 57.62857 197.8128 
L 57.62857 201.1392 
L 57.62857 204.4656 
L 57.62857 205.372813 
L 57.790326 205.318126 
L 58.959893 204.885603 
L 59.290787 204.76797 
L 60.101774 204.4656 
L 60.637551 204.262993 
L 60.720652 204.230231 
L 61.889497 203.788387 
L 62.647251 203.488569 
L 63.477955 203.171901 
L 64.008914 202.960906 
L 64.476295 202.782799 
L 66.154449 202.11348 
L 66.272068 202.066017 
L 66.74164 201.878324 
L 68.093151 201.321321 
L 68.370954 201.208286 
L 68.538257 201.1392 
L 70.059145 200.504764 
L 70.453032 200.335358 
L 70.85322 200.16492 
L 72.161079 199.600973 
L 72.560493 199.42132 
L 73.124556 199.177141 
L 73.930435 198.814764 
L 74.695868 198.481843 
L 75.888862 197.940618 
L 75.933654 197.921058 
L 76.172341 197.8128 
L 77.216357 197.331498 
L 77.781585 197.060159 
L 78.73369 196.617211 
L 79.233095 196.376301 
L 79.722054 196.148858 
L 81.142918 195.46068 
L 81.414334 195.327443 
L 83.106879 194.4864 
L 83.317522 194.380489 
L 83.379223 194.348545 
L 84.082456 193.988347 
L 84.817639 193.615254 
L 85.014991 193.51212 
L 85.457844 193.281137 
L 85.65656 193.173982 
L 87.14432 192.393932 
L 87.952126 191.954171 
L 88.226119 191.809897 
L 89.420046 191.16 
L 89.584717 191.068736 
L 89.698196 191.003528 
L 90.984008 190.283916 
L 91.357387 190.068207 
L 92.007237 189.704516 
L 93.552572 188.80788 
L 93.67296 188.736974 
L 94.053078 188.515662 
L 95.191875 187.8336 
L 95.508669 187.641263 
L 96.784514 186.85932 
L 96.795628 186.852403 
L 96.800733 186.849117 
L 97.595185 186.352403 
L 98.060908 186.052577 
L 99.16007 185.361391 
L 100.267032 184.641459 
L 100.312526 184.612719 
L 100.474762 184.5072 
L 101.503632 183.824797 
L 102.414744 183.200562 
L 103.015604 182.79786 
L 103.33993 182.566372 
L 103.33993 181.1808 
L 103.33993 177.8544 
L 103.33993 174.528 
L 103.33993 171.2016 
L 103.33993 167.8752 
L 103.33993 164.5488 
L 103.33993 161.2224 
L 103.33993 157.896 
L 103.33993 154.5696 
L 103.33993 151.2432 
L 103.33993 147.9168 
L 103.33993 144.5904 
L 103.33993 141.264 
L 103.33993 137.9376 
L 103.33993 134.6112 
L 103.33993 131.2848 
L 103.33993 127.9584 
L 103.33993 124.632 
L 103.33993 121.3056 
" clip-path="url(#p3ce1a552ee)" style="fill: #a4ff53"/>
   </g>
   <g id="PathCollection_7">
    <path d="M 103.33993 182.566372 
L 103.015604 182.79786 
L 102.414744 183.200562 
L 101.503632 183.824797 
L 100.474762 184.5072 
L 100.312526 184.612719 
L 100.267032 184.641459 
L 99.16007 185.361391 
L 98.060908 186.052577 
L 97.595185 186.352403 
L 96.800733 186.849117 
L 96.795628 186.852403 
L 96.784514 186.85932 
L 95.508669 187.641263 
L 95.191875 187.8336 
L 94.053078 188.515662 
L 93.67296 188.736974 
L 93.552572 188.80788 
L 92.007237 189.704516 
L 91.357387 190.068207 
L 90.984008 190.283916 
L 89.698196 191.003528 
L 89.584717 191.068736 
L 89.420046 191.16 
L 88.226119 191.809897 
L 87.952126 191.954171 
L 87.14432 192.393932 
L 85.65656 193.173982 
L 85.457844 193.281137 
L 85.014991 193.51212 
L 84.817639 193.615254 
L 84.082456 193.988347 
L 83.379223 194.348545 
L 83.317522 194.380489 
L 83.106879 194.4864 
L 81.414334 195.327443 
L 81.142918 195.46068 
L 79.722054 196.148858 
L 79.233095 196.376301 
L 78.73369 196.617211 
L 77.781585 197.060159 
L 77.216357 197.331498 
L 76.172341 197.8128 
L 75.933654 197.921058 
L 75.888862 197.940618 
L 74.695868 198.481843 
L 73.930435 198.814764 
L 73.124556 199.177141 
L 72.560493 199.42132 
L 72.161079 199.600973 
L 70.85322 200.16492 
L 70.453032 200.335358 
L 70.059145 200.504764 
L 68.538257 201.1392 
L 68.370954 201.208286 
L 68.093151 201.321321 
L 66.74164 201.878324 
L 66.272068 202.066017 
L 66.154449 202.11348 
L 64.476295 202.782799 
L 64.008914 202.960906 
L 63.477955 203.171901 
L 62.647251 203.488569 
L 61.889497 203.788387 
L 60.720652 204.230231 
L 60.637551 204.262993 
L 60.101774 204.4656 
L 59.290787 204.76797 
L 58.959893 204.885603 
L 57.790326 205.318126 
L 57.62857 205.372813 
L 57.62857 207.792 
L 57.62857 211.1184 
L 57.62857 214.4448 
L 57.62857 217.7712 
L 57.62857 221.0976 
L 57.62857 224.424 
L 57.62857 227.7504 
L 57.62857 231.0768 
L 57.62857 232.479065 
L 57.88754 232.441689 
L 58.580155 232.325803 
L 59.648931 232.16103 
L 60.497379 232.01818 
L 60.844432 231.964547 
L 61.87224 231.791687 
L 62.483765 231.696927 
L 63.642982 231.50073 
L 63.799247 231.476456 
L 65.170237 231.244664 
L 65.31378 231.222305 
L 66.16891 231.0768 
L 66.751838 230.976645 
L 66.791234 230.969322 
L 68.139324 230.737921 
L 68.478762 230.674656 
L 69.701862 230.4633 
L 69.943231 230.418175 
L 70.959884 230.242656 
L 71.795862 230.085929 
L 72.649531 229.937547 
L 73.097846 229.853235 
L 73.775056 229.735629 
L 75.119932 229.481986 
L 75.594764 229.398959 
L 76.25517 229.274009 
L 76.58466 229.216445 
L 78.451231 228.862261 
L 78.537478 228.847089 
L 79.180491 228.72468 
L 79.344026 228.693623 
L 79.468463 228.668941 
L 81.143313 228.346368 
L 81.537112 228.271103 
L 83.357822 227.907608 
L 83.644143 227.852102 
L 83.711222 227.839197 
L 84.15307 227.7504 
L 86.135491 227.349262 
L 87.288411 227.108993 
L 88.300383 226.899122 
L 88.614373 226.835149 
L 88.895674 226.77612 
L 90.543957 226.426844 
L 90.780451 226.372917 
L 91.491336 226.221762 
L 91.892312 226.130376 
L 93.31635 225.826426 
L 93.959598 225.678677 
L 94.417123 225.580681 
L 95.282544 225.381996 
L 96.081503 225.210203 
L 97.142492 224.964691 
L 97.339601 224.922158 
L 98.682929 224.611449 
L 98.839155 224.577605 
L 99.497976 224.424 
L 100.258384 224.244163 
L 100.330059 224.226075 
L 101.589193 223.928384 
L 102.102841 223.798276 
L 103.17281 223.543204 
L 103.33993 223.497843 
L 103.33993 221.0976 
L 103.33993 217.7712 
L 103.33993 214.4448 
L 103.33993 211.1184 
L 103.33993 207.792 
L 103.33993 204.4656 
L 103.33993 201.1392 
L 103.33993 197.8128 
L 103.33993 194.4864 
L 103.33993 191.16 
L 103.33993 187.8336 
L 103.33993 184.5072 
" clip-path="url(#p3ce1a552ee)" style="fill: #f8f500"/>
   </g>
   <g id="PathCollection_8">
    <path d="M 103.33993 223.497843 
L 103.17281 223.543204 
L 102.102841 223.798276 
L 101.589193 223.928384 
L 100.330059 224.226075 
L 100.258384 224.244163 
L 99.497976 224.424 
L 98.839155 224.577605 
L 98.682929 224.611449 
L 97.339601 224.922158 
L 97.142492 224.964691 
L 96.081503 225.210203 
L 95.282544 225.381996 
L 94.417123 225.580681 
L 93.959598 225.678677 
L 93.31635 225.826426 
L 91.892312 226.130376 
L 91.491336 226.221762 
L 90.780451 226.372917 
L 90.543957 226.426844 
L 88.895674 226.77612 
L 88.614373 226.835149 
L 88.300383 226.899122 
L 87.288411 227.108993 
L 86.135491 227.349262 
L 84.15307 227.7504 
L 83.711222 227.839197 
L 83.644143 227.852102 
L 83.357822 227.907608 
L 81.537112 228.271103 
L 81.143313 228.346368 
L 79.468463 228.668941 
L 79.344026 228.693623 
L 79.180491 228.72468 
L 78.537478 228.847089 
L 78.451231 228.862261 
L 76.58466 229.216445 
L 76.25517 229.274009 
L 75.594764 229.398959 
L 75.119932 229.481986 
L 73.775056 229.735629 
L 73.097846 229.853235 
L 72.649531 229.937547 
L 71.795862 230.085929 
L 70.959884 230.242656 
L 69.943231 230.418175 
L 69.701862 230.4633 
L 68.478762 230.674656 
L 68.139324 230.737921 
L 66.791234 230.969322 
L 66.751838 230.976645 
L 66.16891 231.0768 
L 65.31378 231.222305 
L 65.170237 231.244664 
L 63.799247 231.476456 
L 63.642982 231.50073 
L 62.483765 231.696927 
L 61.87224 231.791687 
L 60.844432 231.964547 
L 60.497379 232.01818 
L 59.648931 232.16103 
L 58.580155 232.325803 
L 57.88754 232.441689 
L 57.62857 232.479065 
L 57.62857 234.4032 
L 57.62857 237.7296 
L 57.62857 241.056 
L 57.62857 244.3824 
L 57.62857 247.7088 
L 57.62857 251.0352 
L 57.62857 254.3616 
L 57.62857 257.228387 
L 57.716301 257.225617 
L 58.928261 257.198943 
L 59.383157 257.183979 
L 60.575417 257.157914 
L 60.777827 257.15129 
L 61.942343 257.126155 
L 62.46486 257.109145 
L 63.608934 257.084622 
L 63.839317 257.07716 
L 64.956497 257.053524 
L 65.546468 257.034518 
L 66.642483 257.011494 
L 66.90077 257.003217 
L 67.970718 256.981038 
L 68.627986 256.960088 
L 69.676062 256.938522 
L 69.962191 256.92945 
L 70.985001 256.908687 
L 71.709419 256.885842 
L 72.709667 256.865692 
L 73.02358 256.855846 
L 73.99934 256.83646 
L 74.790773 256.81177 
L 75.743298 256.792994 
L 76.084941 256.782394 
L 77.01373 256.764344 
L 77.872053 256.737859 
L 78.776951 256.720416 
L 79.146275 256.709082 
L 80.028166 256.692328 
L 80.953266 256.664096 
L 81.810624 256.647945 
L 82.207585 256.635898 
L 83.042642 256.620399 
L 84.034416 256.590468 
L 84.844316 256.575568 
L 85.268873 256.562827 
L 86.057151 256.548544 
L 87.11551 256.516963 
L 87.878023 256.503272 
L 88.330142 256.489857 
L 89.071689 256.47675 
L 90.196555 256.443566 
L 90.911742 256.431044 
L 91.391395 256.416975 
L 92.086248 256.405003 
L 93.277557 256.370263 
L 93.945472 256.358868 
L 94.452633 256.344164 
L 95.100821 256.333287 
L 96.358522 256.297039 
L 96.979208 256.28673 
L 97.513861 256.271411 
L 98.115403 256.261589 
L 99.439458 256.223879 
L 100.012949 256.214615 
L 100.575081 256.1987 
L 101.129985 256.189893 
L 102.520372 256.150767 
L 103.046692 256.142506 
L 103.33993 256.13196 
L 103.33993 254.3616 
L 103.33993 251.0352 
L 103.33993 247.7088 
L 103.33993 244.3824 
L 103.33993 241.056 
L 103.33993 237.7296 
L 103.33993 234.4032 
L 103.33993 231.0768 
L 103.33993 227.7504 
L 103.33993 224.424 
" clip-path="url(#p3ce1a552ee)" style="fill: #ff9400"/>
   </g>
   <g id="PathCollection_9">
    <path d="M 103.33993 256.13196 
L 103.046692 256.142506 
L 102.520372 256.150767 
L 101.129985 256.189893 
L 100.575081 256.1987 
L 100.012949 256.214615 
L 99.439458 256.223879 
L 98.115403 256.261589 
L 97.513861 256.271411 
L 96.979208 256.28673 
L 96.358522 256.297039 
L 95.100821 256.333287 
L 94.452633 256.344164 
L 93.945472 256.358868 
L 93.277557 256.370263 
L 92.086248 256.405003 
L 91.391395 256.416975 
L 90.911742 256.431044 
L 90.196555 256.443566 
L 89.071689 256.47675 
L 88.330142 256.489857 
L 87.878023 256.503272 
L 87.11551 256.516963 
L 86.057151 256.548544 
L 85.268873 256.562827 
L 84.844316 256.575568 
L 84.034416 256.590468 
L 83.042642 256.620399 
L 82.207585 256.635898 
L 81.810624 256.647945 
L 80.953266 256.664096 
L 80.028166 256.692328 
L 79.146275 256.709082 
L 78.776951 256.720416 
L 77.872053 256.737859 
L 77.01373 256.764344 
L 76.084941 256.782394 
L 75.743298 256.792994 
L 74.790773 256.81177 
L 73.99934 256.83646 
L 73.02358 256.855846 
L 72.709667 256.865692 
L 71.709419 256.885842 
L 70.985001 256.908687 
L 69.962191 256.92945 
L 69.676062 256.938522 
L 68.627986 256.960088 
L 67.970718 256.981038 
L 66.90077 257.003217 
L 66.642483 257.011494 
L 65.546468 257.034518 
L 64.956497 257.053524 
L 63.839317 257.07716 
L 63.608934 257.084622 
L 62.46486 257.109145 
L 61.942343 257.126155 
L 60.777827 257.15129 
L 60.575417 257.157914 
L 59.383157 257.183979 
L 58.928261 257.198943 
L 57.716301 257.225617 
L 57.62857 257.228387 
L 57.62857 257.688 
L 57.62857 261.0144 
L 57.62857 264.3408 
L 57.62857 267.6672 
L 57.62857 270.9936 
L 57.62857 274.32 
L 57.62857 277.6464 
L 57.62857 280.9728 
L 57.62857 281.872244 
L 58.052221 281.897668 
L 58.123966 281.902671 
L 58.73223 281.94708 
L 60.180874 282.05369 
L 60.251011 282.05935 
L 61.089177 282.12154 
L 61.20656 282.131073 
L 63.12705 282.274725 
L 63.342654 282.292408 
L 64.093439 282.349025 
L 64.364049 282.371356 
L 66.070779 282.5011 
L 66.435441 282.53149 
L 67.096628 282.582161 
L 67.524468 282.618033 
L 69.012 282.732949 
L 69.529402 282.776759 
L 70.098717 282.821096 
L 70.687898 282.871285 
L 71.950651 282.970412 
L 72.624569 283.028386 
L 73.099677 283.065983 
L 73.854426 283.131301 
L 74.886662 283.213636 
L 75.720976 283.286552 
L 76.099476 283.316985 
L 77.024144 283.398279 
L 77.819964 283.462775 
L 78.818661 283.551445 
L 79.098084 283.574271 
L 80.197147 283.672429 
L 80.750482 283.717991 
L 81.917659 283.823264 
L 82.095464 283.838021 
L 83.373537 283.953973 
L 83.678138 283.979454 
L 85.018011 284.102219 
L 85.091583 284.108423 
L 86.55342 284.243144 
L 86.602851 284.247345 
L 87.159988 284.2992 
L 88.086335 284.386031 
L 88.11993 284.389432 
L 89.524541 284.521833 
L 89.738499 284.543658 
L 91.079635 284.671284 
L 91.22364 284.686084 
L 92.443265 284.802796 
L 92.927602 284.852955 
L 94.071619 284.963482 
L 94.328788 284.990316 
L 95.358949 285.090398 
L 96.120468 285.170468 
L 97.062242 285.262843 
L 97.435422 285.30238 
L 98.271497 285.384842 
L 99.317228 285.496481 
L 100.051463 285.5696 
L 100.543592 285.622538 
L 101.180813 285.686346 
L 102.518018 285.831294 
L 103.039235 285.883994 
L 103.33993 285.918529 
L 103.33993 284.2992 
L 103.33993 280.9728 
L 103.33993 277.6464 
L 103.33993 274.32 
L 103.33993 270.9936 
L 103.33993 267.6672 
L 103.33993 264.3408 
L 103.33993 261.0144 
L 103.33993 257.688 
" clip-path="url(#p3ce1a552ee)" style="fill: #ff3800"/>
   </g>
   <g id="PathCollection_10">
    <path d="M 103.33993 285.918529 
L 103.039235 285.883994 
L 102.518018 285.831294 
L 101.180813 285.686346 
L 100.543592 285.622538 
L 100.051463 285.5696 
L 99.317228 285.496481 
L 98.271497 285.384842 
L 97.435422 285.30238 
L 97.062242 285.262843 
L 96.120468 285.170468 
L 95.358949 285.090398 
L 94.328788 284.990316 
L 94.071619 284.963482 
L 92.927602 284.852955 
L 92.443265 284.802796 
L 91.22364 284.686084 
L 91.079635 284.671284 
L 89.738499 284.543658 
L 89.524541 284.521833 
L 88.11993 284.389432 
L 88.086335 284.386031 
L 87.159988 284.2992 
L 86.602851 284.247345 
L 86.55342 284.243144 
L 85.091583 284.108423 
L 85.018011 284.102219 
L 83.678138 283.979454 
L 83.373537 283.953973 
L 82.095464 283.838021 
L 81.917659 283.823264 
L 80.750482 283.717991 
L 80.197147 283.672429 
L 79.098084 283.574271 
L 78.818661 283.551445 
L 77.819964 283.462775 
L 77.024144 283.398279 
L 76.099476 283.316985 
L 75.720976 283.286552 
L 74.886662 283.213636 
L 73.854426 283.131301 
L 73.099677 283.065983 
L 72.624569 283.028386 
L 71.950651 282.970412 
L 70.687898 282.871285 
L 70.098717 282.821096 
L 69.529402 282.776759 
L 69.012 282.732949 
L 67.524468 282.618033 
L 67.096628 282.582161 
L 66.435441 282.53149 
L 66.070779 282.5011 
L 64.364049 282.371356 
L 64.093439 282.349025 
L 63.342654 282.292408 
L 63.12705 282.274725 
L 61.20656 282.131073 
L 61.089177 282.12154 
L 60.251011 282.05935 
L 60.180874 282.05369 
L 58.73223 281.94708 
L 58.123966 281.902671 
L 58.052221 281.897668 
L 57.62857 281.872244 
L 57.62857 284.2992 
L 57.62857 287.6256 
L 57.62857 290.952 
L 57.62857 294.2784 
L 57.62857 297.6048 
L 57.62857 300.9312 
L 57.62857 304.2576 
L 57.62857 307.584 
L 59.152282 307.584 
L 60.675994 307.584 
L 62.199706 307.584 
L 63.723418 307.584 
L 65.24713 307.584 
L 66.770842 307.584 
L 68.294554 307.584 
L 69.818266 307.584 
L 71.341978 307.584 
L 72.86569 307.584 
L 74.389402 307.584 
L 75.913114 307.584 
L 77.436826 307.584 
L 78.960538 307.584 
L 80.48425 307.584 
L 82.007962 307.584 
L 83.531674 307.584 
L 85.055386 307.584 
L 86.579098 307.584 
L 88.10281 307.584 
L 89.626522 307.584 
L 91.150234 307.584 
L 92.673946 307.584 
L 94.197658 307.584 
L 95.72137 307.584 
L 97.245082 307.584 
L 98.768794 307.584 
L 100.292506 307.584 
L 101.816218 307.584 
L 103.33993 307.584 
L 103.33993 304.2576 
L 103.33993 300.9312 
L 103.33993 297.6048 
L 103.33993 294.2784 
L 103.33993 290.952 
L 103.33993 287.6256 
" clip-path="url(#p3ce1a552ee)" style="fill: #b60000"/>
   </g>
   <g id="PathCollection_11">
    <path clip-path="url(#p3ce1a552ee)" style="fill: #0000b6"/>
   </g>
   <g id="PathCollection_12">
    <path clip-path="url(#p3ce1a552ee)" style="fill: #0018ff"/>
   </g>
   <g id="PathCollection_13">
    <path clip-path="url(#p3ce1a552ee)" style="fill: #0080ff"/>
   </g>
   <g id="PathCollection_14">
    <path clip-path="url(#p3ce1a552ee)" style="fill: #00e4f8"/>
   </g>
   <g id="PathCollection_15">
    <path d="M 100.4544 125.732873 
L 101.469285 123.990537 
L 102.942441 121.3056 
L 104.942935 117.353851 
L 106.090889 115.03328 
L 106.871282 113.19678 
L 107.241212 112.4352 
L 107.46102 111.941305 
L 108.459818 109.83712 
L 110.250273 105.428967 
L 110.999169 103.5648 
L 112.642649 99.079007 
L 113.343205 97.29248 
L 113.462703 96.924704 
L 114.402283 94.6944 
L 115.066588 92.29334 
L 115.113453 92.09632 
L 116.891548 86.479326 
L 117.100179 85.824 
L 118.543079 80.799455 
L 118.906304 79.55168 
L 119.307311 78.301904 
L 119.781032 76.9536 
L 120.17685 74.883014 
L 120.331421 74.35552 
L 120.769884 72.432176 
L 121.884275 68.0832 
L 122.455808 65.581702 
L 123.353982 61.81088 
L 123.725081 59.672824 
L 123.785973 59.449279 
L 123.856537 59.2128 
L 123.888158 59.001688 
L 123.908735 58.836138 
L 124.451266 56.61472 
L 125.44186 51.113094 
L 125.590025 50.3424 
L 125.781794 49.199198 
L 126.789255 44.07008 
L 126.997582 42.497383 
L 127.182935 41.472 
L 124.73856 41.472 
L 116.64384 41.472 
L 108.54912 41.472 
L 100.4544 41.472 
L 100.4544 50.3424 
L 100.4544 59.2128 
L 100.4544 68.0832 
L 100.4544 76.9536 
L 100.4544 85.824 
L 100.4544 94.6944 
L 100.4544 103.5648 
L 100.4544 112.4352 
L 100.4544 121.3056 
" clip-path="url(#p3ce1a552ee)" style="fill: #53ffa4"/>
   </g>
   <g id="PathCollection_16">
    <path d="M 127.182935 41.472 
L 126.997582 42.497383 
L 126.789255 44.07008 
L 125.781794 49.199198 
L 125.590025 50.3424 
L 125.44186 51.113094 
L 124.451266 56.61472 
L 123.908735 58.836138 
L 123.888158 59.001688 
L 123.856537 59.2128 
L 123.785973 59.449279 
L 123.725081 59.672824 
L 123.353982 61.81088 
L 122.455808 65.581702 
L 121.884275 68.0832 
L 120.769884 72.432176 
L 120.331421 74.35552 
L 120.17685 74.883014 
L 119.781032 76.9536 
L 119.307311 78.301904 
L 118.906304 79.55168 
L 118.543079 80.799455 
L 117.100179 85.824 
L 116.891548 86.479326 
L 115.113453 92.09632 
L 115.066588 92.29334 
L 114.402283 94.6944 
L 113.462703 96.924704 
L 113.343205 97.29248 
L 112.642649 99.079007 
L 110.999169 103.5648 
L 110.250273 105.428967 
L 108.459818 109.83712 
L 107.46102 111.941305 
L 107.241212 112.4352 
L 106.871282 113.19678 
L 106.090889 115.03328 
L 104.942935 117.353851 
L 102.942441 121.3056 
L 101.469285 123.990537 
L 100.4544 125.732873 
L 100.4544 130.176 
L 100.4544 139.0464 
L 100.4544 147.9168 
L 100.4544 156.7872 
L 100.4544 165.6576 
L 100.4544 174.528 
L 100.4544 183.3984 
L 100.4544 184.485897 
L 101.096652 184.102196 
L 102.163346 183.3984 
L 104.707968 181.654879 
L 105.919694 180.80032 
L 110.865651 177.066514 
L 113.958459 174.528 
L 115.976529 172.762591 
L 118.02846 170.86491 
L 119.899171 169.224875 
L 120.925283 168.25568 
L 122.434643 166.703361 
L 123.531571 165.6576 
L 123.762345 165.415255 
L 123.884534 165.269953 
L 126.024547 163.05952 
L 128.209502 160.590746 
L 131.37429 156.7872 
L 132.354053 155.519377 
L 134.300716 152.905016 
L 135.712316 151.071721 
L 136.118789 150.51488 
L 136.502927 149.925366 
L 137.996024 147.9168 
L 138.395311 147.288062 
L 138.626734 146.872242 
L 139.681652 145.31872 
L 142.455074 140.719807 
L 143.423412 139.0464 
L 146.695199 132.888811 
L 146.75487 132.77408 
L 147.359497 131.772615 
L 148.221707 130.176 
L 149.021882 128.166699 
L 149.283635 127.57792 
L 150.42479 125.014854 
L 152.055697 121.3056 
L 153.597795 117.448684 
L 154.551324 115.03328 
L 155.098332 113.351685 
L 155.288643 112.889198 
L 155.493663 112.4352 
L 155.681185 111.783276 
L 156.424984 109.83712 
L 158.06703 104.605384 
L 158.394595 103.5648 
L 158.965347 101.539816 
L 160.2831 97.29248 
L 160.537199 96.246648 
L 160.77321 95.601942 
L 161.070952 94.6944 
L 161.455643 92.725265 
L 161.648844 92.09632 
L 161.897722 91.062355 
L 163.194499 85.824 
L 163.933988 82.442524 
L 164.579611 79.55168 
L 164.7913 78.85863 
L 165.314304 76.9536 
L 165.577343 74.853435 
L 165.651829 74.35552 
L 166.297222 70.953794 
L 166.858951 68.0832 
L 167.869818 62.12513 
L 167.927209 61.81088 
L 167.94661 61.645857 
L 168.206471 60.478973 
L 168.517113 59.2128 
L 168.690778 57.117525 
L 168.787757 56.61472 
L 168.984592 55.078873 
L 169.731536 50.3424 
L 170.189203 46.925971 
L 170.61662 44.07008 
L 170.738354 42.637869 
L 170.912837 41.472 
L 165.21216 41.472 
L 157.11744 41.472 
L 149.02272 41.472 
L 140.928 41.472 
L 132.83328 41.472 
" clip-path="url(#p3ce1a552ee)" style="fill: #a4ff53"/>
   </g>
   <g id="PathCollection_17">
    <path d="M 170.912837 41.472 
L 170.738354 42.637869 
L 170.61662 44.07008 
L 170.189203 46.925971 
L 169.731536 50.3424 
L 168.984592 55.078873 
L 168.787757 56.61472 
L 168.690778 57.117525 
L 168.517113 59.2128 
L 168.206471 60.478973 
L 167.94661 61.645857 
L 167.927209 61.81088 
L 167.869818 62.12513 
L 166.858951 68.0832 
L 166.297222 70.953794 
L 165.651829 74.35552 
L 165.577343 74.853435 
L 165.314304 76.9536 
L 164.7913 78.85863 
L 164.579611 79.55168 
L 163.933988 82.442524 
L 163.194499 85.824 
L 161.897722 91.062355 
L 161.648844 92.09632 
L 161.455643 92.725265 
L 161.070952 94.6944 
L 160.77321 95.601942 
L 160.537199 96.246648 
L 160.2831 97.29248 
L 158.965347 101.539816 
L 158.394595 103.5648 
L 158.06703 104.605384 
L 156.424984 109.83712 
L 155.681185 111.783276 
L 155.493663 112.4352 
L 155.288643 112.889198 
L 155.098332 113.351685 
L 154.551324 115.03328 
L 153.597795 117.448684 
L 152.055697 121.3056 
L 150.42479 125.014854 
L 149.283635 127.57792 
L 149.021882 128.166699 
L 148.221707 130.176 
L 147.359497 131.772615 
L 146.75487 132.77408 
L 146.695199 132.888811 
L 143.423412 139.0464 
L 142.455074 140.719807 
L 139.681652 145.31872 
L 138.626734 146.872242 
L 138.395311 147.288062 
L 137.996024 147.9168 
L 136.502927 149.925366 
L 136.118789 150.51488 
L 135.712316 151.071721 
L 134.300716 152.905016 
L 132.354053 155.519377 
L 131.37429 156.7872 
L 128.209502 160.590746 
L 126.024547 163.05952 
L 123.884534 165.269953 
L 123.762345 165.415255 
L 123.531571 165.6576 
L 122.434643 166.703361 
L 120.925283 168.25568 
L 119.899171 169.224875 
L 118.02846 170.86491 
L 115.976529 172.762591 
L 113.958459 174.528 
L 110.865651 177.066514 
L 105.919694 180.80032 
L 104.707968 181.654879 
L 102.163346 183.3984 
L 101.096652 184.102196 
L 100.4544 184.485897 
L 100.4544 192.2688 
L 100.4544 201.1392 
L 100.4544 210.0096 
L 100.4544 218.88 
L 100.4544 224.141144 
L 101.951159 223.790638 
L 104.451324 223.259931 
L 111.329019 221.47808 
L 113.176802 220.980531 
L 120.586766 218.88 
L 122.477299 218.318644 
L 123.061864 218.118938 
L 128.76977 216.28192 
L 130.06437 215.845757 
L 130.725396 215.586126 
L 134.454541 214.298739 
L 138.446992 212.728352 
L 142.190863 211.393477 
L 145.519234 210.0096 
L 148.522597 208.686496 
L 149.751701 208.08104 
L 153.745356 206.314385 
L 158.835997 203.73728 
L 160.667756 202.750709 
L 163.626406 201.1392 
L 166.48338 199.445271 
L 167.71901 198.602834 
L 167.818161 198.54112 
L 174.784659 193.888188 
L 176.957085 192.2688 
L 180.368171 189.534805 
L 183.435064 186.889157 
L 184.097952 186.353132 
L 184.497945 185.99648 
L 185.130321 185.380152 
L 186.441217 184.156827 
L 187.317756 183.3984 
L 187.979951 182.710111 
L 189.896941 180.80032 
L 192.559964 177.885219 
L 195.389697 174.528 
L 196.869488 172.619095 
L 199.826024 168.615222 
L 200.037775 168.338795 
L 200.097103 168.25568 
L 200.15148 168.169642 
L 201.110644 166.793369 
L 201.979602 165.6576 
L 202.475994 164.860778 
L 202.759726 164.329456 
L 203.590201 163.05952 
L 206.613924 157.804306 
L 207.167454 156.7872 
L 208.915526 153.24794 
L 210.333271 150.51488 
L 210.513762 150.108258 
L 211.005994 149.237544 
L 211.661734 147.9168 
L 212.239654 146.2898 
L 212.633957 145.31872 
L 214.445906 140.806823 
L 215.140446 139.0464 
L 217.021854 133.72798 
L 217.352595 132.77408 
L 217.525604 132.150306 
L 217.884997 131.166565 
L 218.289059 130.176 
L 218.508605 129.340245 
L 218.645529 128.710034 
L 219.024252 127.57792 
L 220.209072 123.131386 
L 220.751078 121.3056 
L 221.002326 120.349082 
L 222.409818 115.03328 
L 222.837299 112.871902 
L 222.96672 112.4352 
L 223.045686 111.90391 
L 223.589015 109.83712 
L 224.300255 106.222236 
L 224.841037 103.5648 
L 225.546927 99.541229 
L 226.010386 97.29248 
L 226.105634 96.614618 
L 226.576107 94.6944 
L 226.786755 92.465017 
L 226.864691 92.09632 
L 226.966192 91.402838 
L 227.846546 85.824 
L 228.398749 81.667378 
L 228.693265 79.55168 
L 228.883207 78.693333 
L 229.226556 76.9536 
L 229.344304 74.788783 
L 229.359627 74.35552 
L 230.051181 68.298181 
L 230.077292 68.0832 
L 230.115262 67.69869 
L 230.756426 61.81088 
L 230.888858 60.994183 
L 231.209544 59.2128 
L 231.250476 57.521188 
L 231.259023 56.61472 
L 231.463927 54.294879 
L 231.845634 50.3424 
L 232.313813 44.141499 
L 232.319959 44.07008 
L 232.321472 44.048891 
L 232.566406 41.472 
L 229.96992 41.472 
L 221.8752 41.472 
L 213.78048 41.472 
L 205.68576 41.472 
L 197.59104 41.472 
L 189.49632 41.472 
L 181.4016 41.472 
L 173.30688 41.472 
" clip-path="url(#p3ce1a552ee)" style="fill: #f8f500"/>
   </g>
   <g id="PathCollection_18">
    <path d="M 232.566406 41.472 
L 232.321472 44.048891 
L 232.319959 44.07008 
L 232.313813 44.141499 
L 231.845634 50.3424 
L 231.463927 54.294879 
L 231.259023 56.61472 
L 231.250476 57.521188 
L 231.209544 59.2128 
L 230.888858 60.994183 
L 230.756426 61.81088 
L 230.115262 67.69869 
L 230.077292 68.0832 
L 230.051181 68.298181 
L 229.359627 74.35552 
L 229.344304 74.788783 
L 229.226556 76.9536 
L 228.883207 78.693333 
L 228.693265 79.55168 
L 228.398749 81.667378 
L 227.846546 85.824 
L 226.966192 91.402838 
L 226.864691 92.09632 
L 226.786755 92.465017 
L 226.576107 94.6944 
L 226.105634 96.614618 
L 226.010386 97.29248 
L 225.546927 99.541229 
L 224.841037 103.5648 
L 224.300255 106.222236 
L 223.589015 109.83712 
L 223.045686 111.90391 
L 222.96672 112.4352 
L 222.837299 112.871902 
L 222.409818 115.03328 
L 221.002326 120.349082 
L 220.751078 121.3056 
L 220.209072 123.131386 
L 219.024252 127.57792 
L 218.645529 128.710034 
L 218.508605 129.340245 
L 218.289059 130.176 
L 217.884997 131.166565 
L 217.525604 132.150306 
L 217.352595 132.77408 
L 217.021854 133.72798 
L 215.140446 139.0464 
L 214.445906 140.806823 
L 212.633957 145.31872 
L 212.239654 146.2898 
L 211.661734 147.9168 
L 211.005994 149.237544 
L 210.513762 150.108258 
L 210.333271 150.51488 
L 208.915526 153.24794 
L 207.167454 156.7872 
L 206.613924 157.804306 
L 203.590201 163.05952 
L 202.759726 164.329456 
L 202.475994 164.860778 
L 201.979602 165.6576 
L 201.110644 166.793369 
L 200.15148 168.169642 
L 200.097103 168.25568 
L 200.037775 168.338795 
L 199.826024 168.615222 
L 196.869488 172.619095 
L 195.389697 174.528 
L 192.559964 177.885219 
L 189.896941 180.80032 
L 187.979951 182.710111 
L 187.317756 183.3984 
L 186.441217 184.156827 
L 185.130321 185.380152 
L 184.497945 185.99648 
L 184.097952 186.353132 
L 183.435064 186.889157 
L 180.368171 189.534805 
L 176.957085 192.2688 
L 174.784659 193.888188 
L 167.818161 198.54112 
L 167.71901 198.602834 
L 166.48338 199.445271 
L 163.626406 201.1392 
L 160.667756 202.750709 
L 158.835997 203.73728 
L 153.745356 206.314385 
L 149.751701 208.08104 
L 148.522597 208.686496 
L 145.519234 210.0096 
L 142.190863 211.393477 
L 138.446992 212.728352 
L 134.454541 214.298739 
L 130.725396 215.586126 
L 130.06437 215.845757 
L 128.76977 216.28192 
L 123.061864 218.118938 
L 122.477299 218.318644 
L 120.586766 218.88 
L 113.176802 220.980531 
L 111.329019 221.47808 
L 104.451324 223.259931 
L 101.951159 223.790638 
L 100.4544 224.141144 
L 100.4544 227.7504 
L 100.4544 236.6208 
L 100.4544 245.4912 
L 100.4544 254.3616 
L 100.4544 256.187663 
L 102.105019 256.17039 
L 104.755957 256.083339 
L 112.041555 255.946836 
L 114.751944 255.901447 
L 121.851999 255.671827 
L 127.423685 255.580394 
L 129.525871 255.550047 
L 138.949482 255.259661 
L 142.788529 255.206105 
L 144.258879 255.188488 
L 156.056675 254.843087 
L 158.126659 254.81969 
L 158.932449 254.812175 
L 173.184093 254.417334 
L 173.425208 254.41531 
L 173.520771 254.414698 
L 175.557638 254.3616 
L 188.182155 254.035359 
L 188.720081 254.009261 
L 190.44479 253.931084 
L 202.756573 253.634431 
L 203.954868 253.575938 
L 207.801835 253.401101 
L 217.169844 253.193499 
L 219.092246 253.098401 
L 225.28368 252.814471 
L 231.34571 252.69363 
L 234.084522 252.555001 
L 242.95692 252.140966 
L 245.156159 252.103047 
L 248.850938 251.909083 
L 251.880156 251.76352 
L 259.619517 251.370782 
L 260.153935 251.29784 
L 264.459292 251.074627 
L 265.47764 250.932937 
L 274.947801 250.427106 
L 276.781961 250.137536 
L 280.222653 249.947409 
L 282.976185 249.498387 
L 289.922647 249.096123 
L 293.636313 248.378474 
L 295.769637 248.247757 
L 301.345876 247.109213 
L 304.130271 246.924398 
L 309.599471 245.4912 
L 310.788109 245.149895 
L 311.106857 244.98924 
L 316.876799 243.151568 
L 322.939898 239.21888 
L 323.637975 238.720629 
L 325.798247 236.6208 
L 327.483122 234.704773 
L 327.687086 234.02272 
L 328.831066 232.312679 
L 330.942633 227.7504 
L 332.266969 224.534908 
L 332.932324 221.47808 
L 333.20934 219.784153 
L 333.312588 219.348867 
L 333.529443 218.88 
L 333.692294 218.195063 
L 334.062401 216.28192 
L 334.90664 210.332474 
L 334.983582 210.0096 
L 335.023875 209.815195 
L 335.788687 203.73728 
L 335.960563 201.483843 
L 335.975209 201.1392 
L 335.98106 200.785253 
L 336.263122 198.54112 
L 336.624642 193.828556 
L 336.671014 192.2688 
L 336.698825 190.627752 
L 337.090017 185.99648 
L 337.150604 184.28321 
L 337.179105 183.3984 
L 337.183925 182.498466 
L 337.342581 180.80032 
L 337.508569 177.056386 
L 337.563346 174.528 
L 337.587155 171.913498 
L 337.813104 168.25568 
L 337.829898 166.850745 
L 337.861699 165.6576 
L 337.860225 164.450689 
L 337.96516 163.05952 
L 338.045383 159.90384 
L 338.098149 156.7872 
L 338.111978 153.597583 
L 338.259772 150.51488 
L 338.256219 149.303454 
L 338.288601 147.9168 
L 338.280932 146.518928 
L 338.358296 145.31872 
L 338.39525 142.546434 
L 338.444019 139.0464 
L 338.448307 135.488225 
L 338.55406 132.77408 
L 338.539964 131.691448 
L 338.572209 130.176 
L 338.559375 128.651741 
L 338.621011 127.57792 
L 338.633947 125.067204 
L 338.678876 121.3056 
L 338.675256 117.498728 
L 338.756335 115.03328 
L 338.736322 114.039776 
L 338.768292 112.4352 
L 338.751346 110.823805 
L 338.803335 109.83712 
L 338.801966 107.510524 
L 338.843711 103.5648 
L 338.83382 99.584171 
L 338.899487 97.29248 
L 338.875936 96.362348 
L 338.907661 94.6944 
L 338.887491 93.021208 
L 338.933251 92.09632 
L 338.922885 89.902229 
L 338.96213 85.824 
L 338.947345 81.718967 
L 339.002935 79.55168 
L 338.977153 78.66749 
L 339.008703 76.9536 
L 338.986016 75.235687 
L 339.027602 74.35552 
L 339.011324 72.258343 
L 339.048658 68.0832 
L 339.030077 63.887507 
L 339.078847 61.81088 
L 339.051592 60.960479 
L 339.083035 59.2128 
L 339.058385 57.462038 
L 339.097098 56.61472 
L 339.076796 54.589288 
L 339.112688 50.3424 
L 339.091167 46.079763 
L 339.135201 44.07008 
L 339.106934 43.244799 
L 339.138323 41.472 
L 335.20128 41.472 
L 327.10656 41.472 
L 319.01184 41.472 
L 310.91712 41.472 
L 302.8224 41.472 
L 294.72768 41.472 
L 286.63296 41.472 
L 278.53824 41.472 
L 270.44352 41.472 
L 262.3488 41.472 
L 254.25408 41.472 
L 246.15936 41.472 
L 238.06464 41.472 
" clip-path="url(#p3ce1a552ee)" style="fill: #ff9400"/>
   </g>
   <g id="PathCollection_19">
    <path d="M 339.138323 41.472 
L 339.106934 43.244799 
L 339.135201 44.07008 
L 339.091167 46.079763 
L 339.112688 50.3424 
L 339.076796 54.589288 
L 339.097098 56.61472 
L 339.058385 57.462038 
L 339.083035 59.2128 
L 339.051592 60.960479 
L 339.078847 61.81088 
L 339.030077 63.887507 
L 339.048658 68.0832 
L 339.011324 72.258343 
L 339.027602 74.35552 
L 338.986016 75.235687 
L 339.008703 76.9536 
L 338.977153 78.66749 
L 339.002935 79.55168 
L 338.947345 81.718967 
L 338.96213 85.824 
L 338.922885 89.902229 
L 338.933251 92.09632 
L 338.887491 93.021208 
L 338.907661 94.6944 
L 338.875936 96.362348 
L 338.899487 97.29248 
L 338.83382 99.584171 
L 338.843711 103.5648 
L 338.801966 107.510524 
L 338.803335 109.83712 
L 338.751346 110.823805 
L 338.768292 112.4352 
L 338.736322 114.039776 
L 338.756335 115.03328 
L 338.675256 117.498728 
L 338.678876 121.3056 
L 338.633947 125.067204 
L 338.621011 127.57792 
L 338.559375 128.651741 
L 338.572209 130.176 
L 338.539964 131.691448 
L 338.55406 132.77408 
L 338.448307 135.488225 
L 338.444019 139.0464 
L 338.39525 142.546434 
L 338.358296 145.31872 
L 338.280932 146.518928 
L 338.288601 147.9168 
L 338.256219 149.303454 
L 338.259772 150.51488 
L 338.111978 153.597583 
L 338.098149 156.7872 
L 338.045383 159.90384 
L 337.96516 163.05952 
L 337.860225 164.450689 
L 337.861699 165.6576 
L 337.829898 166.850745 
L 337.813104 168.25568 
L 337.587155 171.913498 
L 337.563346 174.528 
L 337.508569 177.056386 
L 337.342581 180.80032 
L 337.183925 182.498466 
L 337.179105 183.3984 
L 337.150604 184.28321 
L 337.090017 185.99648 
L 336.698825 190.627752 
L 336.671014 192.2688 
L 336.624642 193.828556 
L 336.263122 198.54112 
L 335.98106 200.785253 
L 335.975209 201.1392 
L 335.960563 201.483843 
L 335.788687 203.73728 
L 335.023875 209.815195 
L 334.983582 210.0096 
L 334.90664 210.332474 
L 334.062401 216.28192 
L 333.692294 218.195063 
L 333.529443 218.88 
L 333.312588 219.348867 
L 333.20934 219.784153 
L 332.932324 221.47808 
L 332.266969 224.534908 
L 330.942633 227.7504 
L 328.831066 232.312679 
L 327.687086 234.02272 
L 327.483122 234.704773 
L 325.798247 236.6208 
L 323.637975 238.720629 
L 322.939898 239.21888 
L 316.876799 243.151568 
L 311.106857 244.98924 
L 310.788109 245.149895 
L 309.599471 245.4912 
L 304.130271 246.924398 
L 301.345876 247.109213 
L 295.769637 248.247757 
L 293.636313 248.378474 
L 289.922647 249.096123 
L 282.976185 249.498387 
L 280.222653 249.947409 
L 276.781961 250.137536 
L 274.947801 250.427106 
L 265.47764 250.932937 
L 264.459292 251.074627 
L 260.153935 251.29784 
L 259.619517 251.370782 
L 251.880156 251.76352 
L 248.850938 251.909083 
L 245.156159 252.103047 
L 242.95692 252.140966 
L 234.084522 252.555001 
L 231.34571 252.69363 
L 225.28368 252.814471 
L 219.092246 253.098401 
L 217.169844 253.193499 
L 207.801835 253.401101 
L 203.954868 253.575938 
L 202.756573 253.634431 
L 190.44479 253.931084 
L 188.720081 254.009261 
L 188.182155 254.035359 
L 175.557638 254.3616 
L 173.520771 254.414698 
L 173.425208 254.41531 
L 173.184093 254.417334 
L 158.932449 254.812175 
L 158.126659 254.81969 
L 156.056675 254.843087 
L 144.258879 255.188488 
L 142.788529 255.206105 
L 138.949482 255.259661 
L 129.525871 255.550047 
L 127.423685 255.580394 
L 121.851999 255.671827 
L 114.751944 255.901447 
L 112.041555 255.946836 
L 104.755957 256.083339 
L 102.105019 256.17039 
L 100.4544 256.187663 
L 100.4544 263.232 
L 100.4544 272.1024 
L 100.4544 280.9728 
L 100.4544 285.632882 
L 102.286277 285.819134 
L 103.987915 285.971085 
L 114.168897 287.131095 
L 114.310992 287.144481 
L 115.158203 287.24512 
L 117.783147 287.550859 
L 120.44715 287.895304 
L 127.188217 288.731287 
L 128.534956 288.900747 
L 135.248193 289.8432 
L 139.590325 290.450379 
L 143.645654 291.076759 
L 148.957488 291.868902 
L 151.665737 292.317759 
L 152.399567 292.44128 
L 161.457919 293.957193 
L 163.571183 294.372303 
L 166.649926 294.909909 
L 170.559841 295.703325 
L 175.270195 296.56215 
L 181.060947 297.812384 
L 181.696389 297.933719 
L 185.186098 298.7136 
L 188.775325 299.503684 
L 190.653541 299.981712 
L 196.586408 301.37141 
L 198.822142 301.970549 
L 202.008578 302.74315 
L 209.915833 304.98592 
L 210.842287 305.243423 
L 211.950445 305.578601 
L 214.834972 306.428461 
L 218.499303 307.584 
L 221.8752 307.584 
L 229.96992 307.584 
L 238.06464 307.584 
L 246.15936 307.584 
L 254.25408 307.584 
L 262.3488 307.584 
L 270.44352 307.584 
L 278.53824 307.584 
L 286.63296 307.584 
L 294.72768 307.584 
L 302.8224 307.584 
L 310.91712 307.584 
L 319.01184 307.584 
L 327.10656 307.584 
L 335.20128 307.584 
L 343.296 307.584 
L 343.296 298.7136 
L 343.296 289.8432 
L 343.296 280.9728 
L 343.296 272.1024 
L 343.296 263.232 
L 343.296 254.3616 
L 343.296 245.4912 
L 343.296 236.6208 
L 343.296 227.7504 
L 343.296 218.88 
L 343.296 210.0096 
L 343.296 201.1392 
L 343.296 192.2688 
L 343.296 183.3984 
L 343.296 174.528 
L 343.296 165.6576 
L 343.296 156.7872 
L 343.296 147.9168 
L 343.296 139.0464 
L 343.296 130.176 
L 343.296 121.3056 
L 343.296 112.4352 
L 343.296 103.5648 
L 343.296 94.6944 
L 343.296 85.824 
L 343.296 76.9536 
L 343.296 68.0832 
L 343.296 59.2128 
L 343.296 50.3424 
L 343.296 41.472 
" clip-path="url(#p3ce1a552ee)" style="fill: #ff3800"/>
   </g>
   <g id="PathCollection_20">
    <path d="M 218.499303 307.584 
L 214.834972 306.428461 
L 211.950445 305.578601 
L 210.842287 305.243423 
L 209.915833 304.98592 
L 202.008578 302.74315 
L 198.822142 301.970549 
L 196.586408 301.37141 
L 190.653541 299.981712 
L 188.775325 299.503684 
L 185.186098 298.7136 
L 181.696389 297.933719 
L 181.060947 297.812384 
L 175.270195 296.56215 
L 170.559841 295.703325 
L 166.649926 294.909909 
L 163.571183 294.372303 
L 161.457919 293.957193 
L 152.399567 292.44128 
L 151.665737 292.317759 
L 148.957488 291.868902 
L 143.645654 291.076759 
L 139.590325 290.450379 
L 135.248193 289.8432 
L 128.534956 288.900747 
L 127.188217 288.731287 
L 120.44715 287.895304 
L 117.783147 287.550859 
L 115.158203 287.24512 
L 114.310992 287.144481 
L 114.168897 287.131095 
L 103.987915 285.971085 
L 102.286277 285.819134 
L 100.4544 285.632882 
L 100.4544 289.8432 
L 100.4544 298.7136 
L 100.4544 307.584 
L 108.54912 307.584 
L 116.64384 307.584 
L 124.73856 307.584 
L 132.83328 307.584 
L 140.928 307.584 
L 149.02272 307.584 
L 157.11744 307.584 
L 165.21216 307.584 
L 173.30688 307.584 
L 181.4016 307.584 
L 189.49632 307.584 
L 197.59104 307.584 
L 205.68576 307.584 
L 213.78048 307.584 
" clip-path="url(#p3ce1a552ee)" style="fill: #b60000"/>
   </g>
   <g id="matplotlib.axis_1">
    <g id="xtick_1">
     <g id="line2d_1">
      <defs>
       <path id="mf1978da82c" d="M 0 0 
L 0 3.5 
" style="stroke: #000000; stroke-width: 0.8"/>
      </defs>
      <g>
       <use xlink:href="#mf1978da82c" x="57.6" y="307.584" style="stroke: #000000; stroke-width: 0.8"/>
      </g>
     </g>
     <g id="text_1">
      <!-- 0.0 -->
      <g transform="translate(51.26875 321.385562) scale(0.1 -0.1)">
       <defs>
        <path id="Calibri-30" d="M 3022 2031 
Q 3022 1566 2948 1181 
Q 2875 797 2704 520 
Q 2534 244 2259 92 
Q 1984 -59 1581 -59 
Q 1200 -59 939 77 
Q 678 213 518 477 
Q 359 741 292 1127 
Q 225 1513 225 2013 
Q 225 2475 300 2861 
Q 375 3247 544 3523 
Q 713 3800 988 3951 
Q 1263 4103 1663 4103 
Q 2047 4103 2308 3967 
Q 2569 3831 2728 3567 
Q 2888 3303 2955 2917 
Q 3022 2531 3022 2031 
z
M 2472 1994 
Q 2472 2297 2450 2537 
Q 2428 2778 2386 2962 
Q 2344 3147 2276 3280 
Q 2209 3413 2115 3498 
Q 2022 3584 1901 3623 
Q 1781 3663 1631 3663 
Q 1366 3663 1200 3538 
Q 1034 3413 939 3194 
Q 844 2975 809 2681 
Q 775 2388 775 2050 
Q 775 1597 822 1280 
Q 869 963 970 763 
Q 1072 563 1230 472 
Q 1388 381 1613 381 
Q 1788 381 1920 437 
Q 2053 494 2148 598 
Q 2244 703 2306 850 
Q 2369 997 2406 1175 
Q 2444 1353 2458 1561 
Q 2472 1769 2472 1994 
z
" transform="scale(0.015625)"/>
        <path id="Calibri-2e" d="M 1144 341 
Q 1144 119 1070 45 
Q 997 -28 803 -28 
Q 616 -28 544 44 
Q 472 116 472 331 
Q 472 553 545 626 
Q 619 700 813 700 
Q 1000 700 1072 628 
Q 1144 556 1144 341 
z
" transform="scale(0.015625)"/>
       </defs>
       <use xlink:href="#Calibri-30"/>
       <use xlink:href="#Calibri-2e" x="50.683594"/>
       <use xlink:href="#Calibri-30" x="75.927734"/>
      </g>
     </g>
    </g>
    <g id="xtick_2">
     <g id="line2d_2">
      <g>
       <use xlink:href="#mf1978da82c" x="86.1696" y="307.584" style="stroke: #000000; stroke-width: 0.8"/>
      </g>
     </g>
     <g id="text_2">
      <!-- 0.1 -->
      <g transform="translate(79.83835 321.385562) scale(0.1 -0.1)">
       <defs>
        <path id="Calibri-31" d="M 2897 213 
Q 2897 153 2887 112 
Q 2878 72 2862 47 
Q 2847 22 2826 11 
Q 2806 0 2784 0 
L 672 0 
Q 650 0 631 11 
Q 613 22 595 47 
Q 578 72 568 112 
Q 559 153 559 213 
Q 559 269 568 309 
Q 578 350 592 376 
Q 606 403 626 417 
Q 647 431 672 431 
L 1516 431 
L 1516 3506 
L 734 3041 
Q 675 3009 639 3003 
Q 603 2997 581 3017 
Q 559 3038 551 3084 
Q 544 3131 544 3203 
Q 544 3256 548 3293 
Q 553 3331 562 3356 
Q 572 3381 589 3400 
Q 606 3419 634 3438 
L 1566 4034 
Q 1578 4044 1597 4050 
Q 1616 4056 1644 4062 
Q 1672 4069 1709 4070 
Q 1747 4072 1803 4072 
Q 1878 4072 1928 4065 
Q 1978 4059 2006 4048 
Q 2034 4038 2043 4020 
Q 2053 4003 2053 3984 
L 2053 431 
L 2784 431 
Q 2809 431 2831 417 
Q 2853 403 2867 376 
Q 2881 350 2889 309 
Q 2897 269 2897 213 
z
" transform="scale(0.015625)"/>
       </defs>
       <use xlink:href="#Calibri-30"/>
       <use xlink:href="#Calibri-2e" x="50.683594"/>
       <use xlink:href="#Calibri-31" x="75.927734"/>
      </g>
     </g>
    </g>
    <g id="xtick_3">
     <g id="line2d_3">
      <g>
       <use xlink:href="#mf1978da82c" x="114.7392" y="307.584" style="stroke: #000000; stroke-width: 0.8"/>
      </g>
     </g>
     <g id="text_3">
      <!-- 0.2 -->
      <g transform="translate(108.40795 321.385562) scale(0.1 -0.1)">
       <defs>
        <path id="Calibri-32" d="M 2888 231 
Q 2888 175 2880 131 
Q 2872 88 2858 58 
Q 2844 28 2820 14 
Q 2797 0 2769 0 
L 534 0 
Q 491 0 458 11 
Q 425 22 401 47 
Q 378 72 367 119 
Q 356 166 356 234 
Q 356 297 361 344 
Q 366 391 381 427 
Q 397 463 420 498 
Q 444 534 481 575 
L 1266 1406 
Q 1538 1694 1702 1922 
Q 1866 2150 1955 2337 
Q 2044 2525 2072 2678 
Q 2100 2831 2100 2966 
Q 2100 3100 2056 3220 
Q 2013 3341 1930 3431 
Q 1847 3522 1722 3575 
Q 1597 3628 1434 3628 
Q 1244 3628 1092 3575 
Q 941 3522 827 3459 
Q 713 3397 636 3344 
Q 559 3291 522 3291 
Q 500 3291 483 3303 
Q 466 3316 455 3344 
Q 444 3372 437 3419 
Q 431 3466 431 3531 
Q 431 3578 434 3612 
Q 438 3647 445 3672 
Q 453 3697 465 3719 
Q 478 3741 515 3773 
Q 553 3806 645 3862 
Q 738 3919 877 3973 
Q 1016 4028 1183 4065 
Q 1350 4103 1534 4103 
Q 1828 4103 2048 4020 
Q 2269 3938 2414 3794 
Q 2559 3650 2631 3459 
Q 2703 3269 2703 3053 
Q 2703 2859 2668 2667 
Q 2634 2475 2523 2251 
Q 2413 2028 2203 1754 
Q 1994 1481 1647 1125 
L 1006 456 
L 2766 456 
Q 2791 456 2814 442 
Q 2838 428 2855 400 
Q 2872 372 2880 330 
Q 2888 288 2888 231 
z
" transform="scale(0.015625)"/>
       </defs>
       <use xlink:href="#Calibri-30"/>
       <use xlink:href="#Calibri-2e" x="50.683594"/>
       <use xlink:href="#Calibri-32" x="75.927734"/>
      </g>
     </g>
    </g>
    <g id="xtick_4">
     <g id="line2d_4">
      <g>
       <use xlink:href="#mf1978da82c" x="143.3088" y="307.584" style="stroke: #000000; stroke-width: 0.8"/>
      </g>
     </g>
     <g id="text_4">
      <!-- 0.3 -->
      <g transform="translate(136.97755 321.385562) scale(0.1 -0.1)">
       <defs>
        <path id="Calibri-33" d="M 2856 1156 
Q 2856 878 2759 654 
Q 2663 431 2481 272 
Q 2300 113 2034 27 
Q 1769 -59 1434 -59 
Q 1231 -59 1054 -26 
Q 878 6 740 51 
Q 603 97 512 145 
Q 422 194 398 216 
Q 375 238 362 259 
Q 350 281 340 312 
Q 331 344 326 389 
Q 322 434 322 500 
Q 322 613 344 656 
Q 366 700 406 700 
Q 434 700 517 650 
Q 600 600 729 542 
Q 859 484 1032 434 
Q 1206 384 1419 384 
Q 1625 384 1781 437 
Q 1938 491 2044 587 
Q 2150 684 2203 817 
Q 2256 950 2256 1106 
Q 2256 1278 2189 1415 
Q 2122 1553 1992 1653 
Q 1863 1753 1673 1806 
Q 1484 1859 1244 1859 
L 859 1859 
Q 834 1859 811 1870 
Q 788 1881 770 1906 
Q 753 1931 742 1972 
Q 731 2013 731 2078 
Q 731 2138 740 2177 
Q 750 2216 767 2239 
Q 784 2263 806 2273 
Q 828 2284 856 2284 
L 1209 2284 
Q 1416 2284 1580 2337 
Q 1744 2391 1858 2491 
Q 1972 2591 2033 2730 
Q 2094 2869 2094 3041 
Q 2094 3166 2053 3280 
Q 2013 3394 1931 3478 
Q 1850 3563 1723 3611 
Q 1597 3659 1431 3659 
Q 1250 3659 1098 3604 
Q 947 3550 828 3487 
Q 709 3425 631 3370 
Q 553 3316 522 3316 
Q 500 3316 483 3323 
Q 466 3331 455 3354 
Q 444 3378 439 3420 
Q 434 3463 434 3531 
Q 434 3578 437 3614 
Q 441 3650 450 3676 
Q 459 3703 471 3725 
Q 484 3747 514 3776 
Q 544 3806 634 3862 
Q 725 3919 858 3973 
Q 991 4028 1164 4065 
Q 1338 4103 1538 4103 
Q 1819 4103 2031 4031 
Q 2244 3959 2386 3828 
Q 2528 3697 2598 3514 
Q 2669 3331 2669 3109 
Q 2669 2919 2619 2755 
Q 2569 2591 2472 2464 
Q 2375 2338 2234 2248 
Q 2094 2159 1909 2125 
L 1909 2119 
Q 2119 2097 2292 2014 
Q 2466 1931 2591 1806 
Q 2716 1681 2786 1514 
Q 2856 1347 2856 1156 
z
" transform="scale(0.015625)"/>
       </defs>
       <use xlink:href="#Calibri-30"/>
       <use xlink:href="#Calibri-2e" x="50.683594"/>
       <use xlink:href="#Calibri-33" x="75.927734"/>
      </g>
     </g>
    </g>
    <g id="xtick_5">
     <g id="line2d_5">
      <g>
       <use xlink:href="#mf1978da82c" x="171.8784" y="307.584" style="stroke: #000000; stroke-width: 0.8"/>
      </g>
     </g>
     <g id="text_5">
      <!-- 0.4 -->
      <g transform="translate(165.54715 321.385562) scale(0.1 -0.1)">
       <defs>
        <path id="Calibri-34" d="M 3059 1150 
Q 3059 1047 3028 987 
Q 2997 928 2941 928 
L 2484 928 
L 2484 78 
Q 2484 53 2471 36 
Q 2459 19 2428 6 
Q 2397 -6 2347 -12 
Q 2297 -19 2219 -19 
Q 2144 -19 2094 -12 
Q 2044 -6 2014 6 
Q 1984 19 1973 36 
Q 1963 53 1963 78 
L 1963 928 
L 294 928 
Q 256 928 231 937 
Q 206 947 186 972 
Q 166 997 158 1044 
Q 150 1091 150 1166 
Q 150 1225 153 1272 
Q 156 1319 165 1358 
Q 175 1397 190 1433 
Q 206 1469 228 1509 
L 1684 3966 
Q 1700 3991 1729 4009 
Q 1759 4028 1806 4040 
Q 1853 4053 1922 4058 
Q 1991 4063 2084 4063 
Q 2188 4063 2264 4055 
Q 2341 4047 2387 4034 
Q 2434 4022 2459 4001 
Q 2484 3981 2484 3953 
L 2484 1372 
L 2941 1372 
Q 2994 1372 3026 1317 
Q 3059 1263 3059 1150 
z
M 1963 3591 
L 1956 3591 
L 641 1372 
L 1963 1372 
L 1963 3591 
z
" transform="scale(0.015625)"/>
       </defs>
       <use xlink:href="#Calibri-30"/>
       <use xlink:href="#Calibri-2e" x="50.683594"/>
       <use xlink:href="#Calibri-34" x="75.927734"/>
      </g>
     </g>
    </g>
    <g id="xtick_6">
     <g id="line2d_6">
      <g>
       <use xlink:href="#mf1978da82c" x="200.448" y="307.584" style="stroke: #000000; stroke-width: 0.8"/>
      </g>
     </g>
     <g id="text_6">
      <!-- 0.5 -->
      <g transform="translate(194.11675 321.385562) scale(0.1 -0.1)">
       <defs>
        <path id="Calibri-35" d="M 2869 1300 
Q 2869 975 2759 722 
Q 2650 469 2450 295 
Q 2250 122 1973 31 
Q 1697 -59 1359 -59 
Q 1172 -59 1003 -32 
Q 834 -6 703 33 
Q 572 72 487 109 
Q 403 147 379 169 
Q 356 191 347 209 
Q 338 228 330 254 
Q 322 281 319 322 
Q 316 363 316 419 
Q 316 472 320 514 
Q 325 556 337 582 
Q 350 609 367 621 
Q 384 634 406 634 
Q 438 634 503 595 
Q 569 556 680 511 
Q 791 466 955 425 
Q 1119 384 1344 384 
Q 1553 384 1728 434 
Q 1903 484 2029 590 
Q 2156 697 2228 858 
Q 2300 1019 2300 1250 
Q 2300 1444 2239 1592 
Q 2178 1741 2051 1839 
Q 1925 1938 1731 1986 
Q 1538 2034 1269 2034 
Q 1078 2034 940 2015 
Q 803 1997 684 1997 
Q 597 1997 559 2037 
Q 522 2078 522 2194 
L 522 3841 
Q 522 3944 570 3994 
Q 619 4044 709 4044 
L 2500 4044 
Q 2525 4044 2548 4030 
Q 2572 4016 2587 3987 
Q 2603 3959 2611 3915 
Q 2619 3872 2619 3813 
Q 2619 3700 2587 3637 
Q 2556 3575 2500 3575 
L 991 3575 
L 991 2441 
Q 1100 2456 1214 2459 
Q 1328 2463 1478 2463 
Q 1825 2463 2084 2380 
Q 2344 2297 2517 2145 
Q 2691 1994 2780 1778 
Q 2869 1563 2869 1300 
z
" transform="scale(0.015625)"/>
       </defs>
       <use xlink:href="#Calibri-30"/>
       <use xlink:href="#Calibri-2e" x="50.683594"/>
       <use xlink:href="#Calibri-35" x="75.927734"/>
      </g>
     </g>
    </g>
    <g id="xtick_7">
     <g id="line2d_7">
      <g>
       <use xlink:href="#mf1978da82c" x="229.0176" y="307.584" style="stroke: #000000; stroke-width: 0.8"/>
      </g>
     </g>
     <g id="text_7">
      <!-- 0.6 -->
      <g transform="translate(222.68635 321.385562) scale(0.1 -0.1)">
       <defs>
        <path id="Calibri-36" d="M 2991 1309 
Q 2991 1044 2909 795 
Q 2828 547 2659 358 
Q 2491 169 2231 55 
Q 1972 -59 1619 -59 
Q 1366 -59 1172 3 
Q 978 66 834 181 
Q 691 297 595 465 
Q 500 634 442 850 
Q 384 1066 359 1322 
Q 334 1578 334 1872 
Q 334 2131 362 2397 
Q 391 2663 462 2909 
Q 534 3156 657 3373 
Q 781 3591 967 3752 
Q 1153 3913 1412 4006 
Q 1672 4100 2016 4100 
Q 2131 4100 2250 4086 
Q 2369 4072 2469 4048 
Q 2569 4025 2637 3997 
Q 2706 3969 2728 3951 
Q 2750 3934 2761 3914 
Q 2772 3894 2778 3870 
Q 2784 3847 2787 3817 
Q 2791 3788 2791 3744 
Q 2791 3688 2789 3647 
Q 2788 3606 2777 3581 
Q 2766 3556 2748 3543 
Q 2731 3531 2703 3531 
Q 2669 3531 2609 3553 
Q 2550 3575 2465 3601 
Q 2381 3628 2261 3650 
Q 2141 3672 1981 3672 
Q 1691 3672 1481 3553 
Q 1272 3434 1139 3234 
Q 1006 3034 942 2770 
Q 878 2506 869 2219 
Q 950 2266 1051 2312 
Q 1153 2359 1273 2396 
Q 1394 2434 1528 2457 
Q 1663 2481 1816 2481 
Q 2144 2481 2369 2392 
Q 2594 2303 2733 2145 
Q 2872 1988 2931 1773 
Q 2991 1559 2991 1309 
z
M 2447 1259 
Q 2447 1441 2411 1589 
Q 2375 1738 2290 1841 
Q 2206 1944 2065 2000 
Q 1925 2056 1719 2056 
Q 1603 2056 1487 2036 
Q 1372 2016 1264 1980 
Q 1156 1944 1057 1895 
Q 959 1847 878 1791 
Q 878 1388 929 1116 
Q 981 844 1079 680 
Q 1178 516 1325 445 
Q 1472 375 1669 375 
Q 1869 375 2016 450 
Q 2163 525 2259 651 
Q 2356 778 2401 936 
Q 2447 1094 2447 1259 
z
" transform="scale(0.015625)"/>
       </defs>
       <use xlink:href="#Calibri-30"/>
       <use xlink:href="#Calibri-2e" x="50.683594"/>
       <use xlink:href="#Calibri-36" x="75.927734"/>
      </g>
     </g>
    </g>
    <g id="xtick_8">
     <g id="line2d_8">
      <g>
       <use xlink:href="#mf1978da82c" x="257.5872" y="307.584" style="stroke: #000000; stroke-width: 0.8"/>
      </g>
     </g>
     <g id="text_8">
      <!-- 0.7 -->
      <g transform="translate(251.25595 321.385562) scale(0.1 -0.1)">
       <defs>
        <path id="Calibri-37" d="M 2947 3813 
Q 2947 3756 2942 3711 
Q 2938 3666 2930 3623 
Q 2922 3581 2908 3542 
Q 2894 3503 2875 3459 
L 1419 103 
Q 1403 66 1379 42 
Q 1356 19 1320 5 
Q 1284 -9 1228 -14 
Q 1172 -19 1091 -19 
Q 984 -19 925 -9 
Q 866 0 839 20 
Q 813 41 816 70 
Q 819 100 838 141 
L 2369 3572 
L 428 3572 
Q 369 3572 339 3634 
Q 309 3697 309 3809 
Q 309 3869 317 3912 
Q 325 3956 340 3986 
Q 356 4016 378 4030 
Q 400 4044 428 4044 
L 2784 4044 
Q 2828 4044 2861 4034 
Q 2894 4025 2911 3997 
Q 2928 3969 2937 3925 
Q 2947 3881 2947 3813 
z
" transform="scale(0.015625)"/>
       </defs>
       <use xlink:href="#Calibri-30"/>
       <use xlink:href="#Calibri-2e" x="50.683594"/>
       <use xlink:href="#Calibri-37" x="75.927734"/>
      </g>
     </g>
    </g>
    <g id="xtick_9">
     <g id="line2d_9">
      <g>
       <use xlink:href="#mf1978da82c" x="286.1568" y="307.584" style="stroke: #000000; stroke-width: 0.8"/>
      </g>
     </g>
     <g id="text_9">
      <!-- 0.8 -->
      <g transform="translate(279.82555 321.385562) scale(0.1 -0.1)">
       <defs>
        <path id="Calibri-38" d="M 2981 1038 
Q 2981 775 2887 570 
Q 2794 366 2617 225 
Q 2441 84 2181 12 
Q 1922 -59 1588 -59 
Q 1275 -59 1028 6 
Q 781 72 609 200 
Q 438 328 347 515 
Q 256 703 256 944 
Q 256 1134 318 1293 
Q 381 1453 498 1587 
Q 616 1722 787 1839 
Q 959 1956 1175 2063 
Q 988 2159 844 2267 
Q 700 2375 600 2501 
Q 500 2628 448 2772 
Q 397 2916 397 3084 
Q 397 3297 473 3483 
Q 550 3669 704 3806 
Q 859 3944 1098 4023 
Q 1338 4103 1656 4103 
Q 1963 4103 2186 4029 
Q 2409 3956 2554 3829 
Q 2700 3703 2769 3531 
Q 2838 3359 2838 3163 
Q 2838 3003 2786 2856 
Q 2734 2709 2634 2578 
Q 2534 2447 2389 2333 
Q 2244 2219 2056 2119 
Q 2278 2009 2451 1893 
Q 2625 1778 2742 1645 
Q 2859 1513 2920 1364 
Q 2981 1216 2981 1038 
z
M 2306 3113 
Q 2306 3244 2261 3350 
Q 2216 3456 2128 3531 
Q 2041 3606 1911 3645 
Q 1781 3684 1616 3684 
Q 1278 3684 1104 3531 
Q 931 3378 931 3113 
Q 931 2991 973 2886 
Q 1016 2781 1105 2687 
Q 1194 2594 1330 2505 
Q 1466 2416 1653 2319 
Q 1969 2481 2137 2678 
Q 2306 2875 2306 3113 
z
M 2438 981 
Q 2438 1125 2384 1242 
Q 2331 1359 2223 1461 
Q 2116 1563 1955 1658 
Q 1794 1753 1581 1856 
Q 1384 1759 1236 1662 
Q 1088 1566 992 1462 
Q 897 1359 848 1245 
Q 800 1131 800 994 
Q 800 691 1008 525 
Q 1216 359 1628 359 
Q 2028 359 2233 526 
Q 2438 694 2438 981 
z
" transform="scale(0.015625)"/>
       </defs>
       <use xlink:href="#Calibri-30"/>
       <use xlink:href="#Calibri-2e" x="50.683594"/>
       <use xlink:href="#Calibri-38" x="75.927734"/>
      </g>
     </g>
    </g>
    <g id="xtick_10">
     <g id="line2d_10">
      <g>
       <use xlink:href="#mf1978da82c" x="314.7264" y="307.584" style="stroke: #000000; stroke-width: 0.8"/>
      </g>
     </g>
     <g id="text_10">
      <!-- 0.9 -->
      <g transform="translate(308.39515 321.385562) scale(0.1 -0.1)">
       <defs>
        <path id="Calibri-39" d="M 2919 2181 
Q 2919 1919 2887 1650 
Q 2856 1381 2781 1132 
Q 2706 884 2579 667 
Q 2453 450 2261 287 
Q 2069 125 1805 33 
Q 1541 -59 1191 -59 
Q 1056 -59 929 -42 
Q 803 -25 701 0 
Q 600 25 531 53 
Q 463 81 431 109 
Q 400 138 386 186 
Q 372 234 372 316 
Q 372 384 376 425 
Q 381 466 390 487 
Q 400 509 417 517 
Q 434 525 459 525 
Q 494 525 556 501 
Q 619 478 714 450 
Q 809 422 937 398 
Q 1066 375 1225 375 
Q 1528 375 1745 492 
Q 1963 609 2100 806 
Q 2238 1003 2306 1262 
Q 2375 1522 2381 1809 
Q 2216 1713 1984 1638 
Q 1753 1563 1453 1563 
Q 1116 1563 886 1655 
Q 656 1747 517 1906 
Q 378 2066 317 2284 
Q 256 2503 256 2763 
Q 256 3031 334 3273 
Q 413 3516 578 3700 
Q 744 3884 1000 3993 
Q 1256 4103 1613 4103 
Q 1866 4103 2061 4039 
Q 2256 3975 2400 3854 
Q 2544 3734 2644 3564 
Q 2744 3394 2805 3178 
Q 2866 2963 2892 2711 
Q 2919 2459 2919 2181 
z
M 2372 2241 
Q 2372 2641 2319 2914 
Q 2266 3188 2162 3356 
Q 2059 3525 1909 3600 
Q 1759 3675 1563 3675 
Q 1359 3675 1215 3601 
Q 1072 3528 980 3404 
Q 888 3281 844 3125 
Q 800 2969 800 2803 
Q 800 2619 839 2466 
Q 878 2313 965 2206 
Q 1053 2100 1193 2042 
Q 1334 1984 1541 1984 
Q 1775 1984 1994 2054 
Q 2213 2125 2372 2241 
z
" transform="scale(0.015625)"/>
       </defs>
       <use xlink:href="#Calibri-30"/>
       <use xlink:href="#Calibri-2e" x="50.683594"/>
       <use xlink:href="#Calibri-39" x="75.927734"/>
      </g>
     </g>
    </g>
    <g id="xtick_11">
     <g id="line2d_11">
      <g>
       <use xlink:href="#mf1978da82c" x="343.296" y="307.584" style="stroke: #000000; stroke-width: 0.8"/>
      </g>
     </g>
     <g id="text_11">
      <!-- 1.0 -->
      <g transform="translate(336.96475 321.385562) scale(0.1 -0.1)">
       <use xlink:href="#Calibri-31"/>
       <use xlink:href="#Calibri-2e" x="50.683594"/>
       <use xlink:href="#Calibri-30" x="75.927734"/>
      </g>
     </g>
    </g>
    <g id="text_12">
     <!-- $\mathit{p}$ (cm$^2$/cm$^2$) -->
     <g transform="translate(174.148 336.263687) scale(0.1 -0.1)">
      <defs>
       <path id="DejaVuSans-Oblique-70" d="M 3175 2156 
Q 3175 2616 2975 2859 
Q 2775 3103 2400 3103 
Q 2144 3103 1911 2972 
Q 1678 2841 1497 2591 
Q 1319 2344 1212 1994 
Q 1106 1644 1106 1300 
Q 1106 863 1306 627 
Q 1506 391 1875 391 
Q 2147 391 2380 519 
Q 2613 647 2778 891 
Q 2956 1147 3065 1494 
Q 3175 1841 3175 2156 
z
M 1394 2969 
Q 1625 3272 1939 3428 
Q 2253 3584 2638 3584 
Q 3175 3584 3472 3232 
Q 3769 2881 3769 2247 
Q 3769 1728 3584 1258 
Q 3400 788 3053 416 
Q 2822 169 2531 39 
Q 2241 -91 1919 -91 
Q 1547 -91 1294 64 
Q 1041 219 916 525 
L 556 -1331 
L -19 -1331 
L 922 3500 
L 1497 3500 
L 1394 2969 
z
" transform="scale(0.015625)"/>
       <path id="Calibri-20" transform="scale(0.015625)"/>
       <path id="Calibri-28" d="M 1547 4306 
Q 1250 3678 1104 3017 
Q 959 2356 959 1688 
Q 959 1016 1107 356 
Q 1256 -303 1541 -938 
Q 1556 -975 1557 -1001 
Q 1559 -1028 1537 -1045 
Q 1516 -1063 1470 -1070 
Q 1425 -1078 1347 -1078 
Q 1291 -1078 1250 -1075 
Q 1209 -1072 1179 -1062 
Q 1150 -1053 1131 -1040 
Q 1113 -1028 1103 -1013 
Q 934 -694 806 -367 
Q 678 -41 590 296 
Q 503 634 459 979 
Q 416 1325 416 1678 
Q 416 2031 464 2375 
Q 513 2719 602 3058 
Q 691 3397 819 3725 
Q 947 4053 1106 4375 
Q 1109 4388 1123 4397 
Q 1138 4406 1163 4415 
Q 1188 4425 1231 4429 
Q 1275 4434 1344 4434 
Q 1416 4434 1459 4425 
Q 1503 4416 1528 4400 
Q 1553 4384 1556 4359 
Q 1559 4334 1547 4306 
z
" transform="scale(0.015625)"/>
       <path id="Calibri-63" d="M 2500 506 
Q 2500 453 2497 414 
Q 2494 375 2486 348 
Q 2478 322 2467 301 
Q 2456 281 2417 242 
Q 2378 203 2284 145 
Q 2191 88 2073 42 
Q 1956 -3 1818 -31 
Q 1681 -59 1534 -59 
Q 1231 -59 997 41 
Q 763 141 605 333 
Q 447 525 364 804 
Q 281 1084 281 1450 
Q 281 1866 382 2164 
Q 484 2463 661 2653 
Q 838 2844 1077 2936 
Q 1316 3028 1594 3028 
Q 1728 3028 1854 3003 
Q 1981 2978 2087 2937 
Q 2194 2897 2276 2844 
Q 2359 2791 2396 2753 
Q 2434 2716 2448 2694 
Q 2463 2672 2472 2642 
Q 2481 2613 2484 2575 
Q 2488 2538 2488 2481 
Q 2488 2359 2459 2311 
Q 2431 2263 2391 2263 
Q 2344 2263 2283 2314 
Q 2222 2366 2128 2428 
Q 2034 2491 1901 2542 
Q 1769 2594 1588 2594 
Q 1216 2594 1017 2308 
Q 819 2022 819 1478 
Q 819 1206 870 1001 
Q 922 797 1022 659 
Q 1122 522 1267 455 
Q 1413 388 1600 388 
Q 1778 388 1912 444 
Q 2047 500 2145 567 
Q 2244 634 2311 689 
Q 2378 744 2416 744 
Q 2438 744 2453 731 
Q 2469 719 2480 689 
Q 2491 659 2495 614 
Q 2500 569 2500 506 
z
" transform="scale(0.015625)"/>
       <path id="Calibri-6d" d="M 4650 78 
Q 4650 53 4637 36 
Q 4625 19 4597 6 
Q 4569 -6 4519 -12 
Q 4469 -19 4394 -19 
Q 4316 -19 4266 -12 
Q 4216 -6 4186 6 
Q 4156 19 4143 36 
Q 4131 53 4131 78 
L 4131 1788 
Q 4131 1966 4100 2112 
Q 4069 2259 4000 2365 
Q 3931 2472 3825 2528 
Q 3719 2584 3575 2584 
Q 3397 2584 3217 2446 
Q 3038 2309 2822 2044 
L 2822 78 
Q 2822 53 2809 36 
Q 2797 19 2767 6 
Q 2738 -6 2688 -12 
Q 2638 -19 2563 -19 
Q 2491 -19 2439 -12 
Q 2388 -6 2358 6 
Q 2328 19 2317 36 
Q 2306 53 2306 78 
L 2306 1788 
Q 2306 1966 2272 2112 
Q 2238 2259 2169 2365 
Q 2100 2472 1995 2528 
Q 1891 2584 1747 2584 
Q 1569 2584 1387 2446 
Q 1206 2309 994 2044 
L 994 78 
Q 994 53 981 36 
Q 969 19 941 6 
Q 913 -6 863 -12 
Q 813 -19 734 -19 
Q 659 -19 609 -12 
Q 559 -6 529 6 
Q 500 19 489 36 
Q 478 53 478 78 
L 478 2891 
Q 478 2916 487 2933 
Q 497 2950 525 2964 
Q 553 2978 597 2983 
Q 641 2988 713 2988 
Q 781 2988 826 2983 
Q 872 2978 897 2964 
Q 922 2950 933 2933 
Q 944 2916 944 2891 
L 944 2519 
Q 1181 2784 1404 2907 
Q 1628 3031 1856 3031 
Q 2031 3031 2170 2990 
Q 2309 2950 2415 2876 
Q 2522 2803 2597 2701 
Q 2672 2600 2722 2475 
Q 2863 2628 2989 2734 
Q 3116 2841 3233 2906 
Q 3350 2972 3461 3001 
Q 3572 3031 3684 3031 
Q 3956 3031 4140 2936 
Q 4325 2841 4439 2681 
Q 4553 2522 4601 2308 
Q 4650 2094 4650 1856 
L 4650 78 
z
" transform="scale(0.015625)"/>
       <path id="DejaVuSans-32" d="M 1228 531 
L 3431 531 
L 3431 0 
L 469 0 
L 469 531 
Q 828 903 1448 1529 
Q 2069 2156 2228 2338 
Q 2531 2678 2651 2914 
Q 2772 3150 2772 3378 
Q 2772 3750 2511 3984 
Q 2250 4219 1831 4219 
Q 1534 4219 1204 4116 
Q 875 4013 500 3803 
L 500 4441 
Q 881 4594 1212 4672 
Q 1544 4750 1819 4750 
Q 2544 4750 2975 4387 
Q 3406 4025 3406 3419 
Q 3406 3131 3298 2873 
Q 3191 2616 2906 2266 
Q 2828 2175 2409 1742 
Q 1991 1309 1228 531 
z
" transform="scale(0.015625)"/>
       <path id="Calibri-2f" d="M 525 -753 
Q 513 -794 492 -817 
Q 472 -841 440 -853 
Q 409 -866 364 -872 
Q 319 -878 253 -878 
Q 175 -878 123 -867 
Q 72 -856 44 -836 
Q 16 -816 9 -786 
Q 3 -756 22 -716 
L 1913 4469 
Q 1925 4509 1945 4532 
Q 1966 4556 1995 4570 
Q 2025 4584 2072 4589 
Q 2119 4594 2184 4594 
Q 2263 4594 2313 4583 
Q 2363 4572 2391 4553 
Q 2419 4534 2425 4503 
Q 2431 4472 2416 4431 
L 525 -753 
z
" transform="scale(0.015625)"/>
       <path id="Calibri-29" d="M 1522 1678 
Q 1522 1325 1478 979 
Q 1434 634 1346 296 
Q 1259 -41 1132 -367 
Q 1006 -694 838 -1013 
Q 828 -1028 809 -1040 
Q 791 -1053 761 -1062 
Q 731 -1072 690 -1075 
Q 650 -1078 594 -1078 
Q 513 -1078 467 -1070 
Q 422 -1063 401 -1045 
Q 381 -1028 382 -1001 
Q 384 -975 400 -938 
Q 688 -306 834 355 
Q 981 1016 981 1688 
Q 981 2356 834 3017 
Q 688 3678 394 4306 
Q 381 4334 384 4359 
Q 388 4384 413 4400 
Q 438 4416 481 4425 
Q 525 4434 597 4434 
Q 663 4434 706 4429 
Q 750 4425 776 4415 
Q 803 4406 815 4397 
Q 828 4388 834 4375 
Q 1156 3734 1339 3057 
Q 1522 2381 1522 1678 
z
" transform="scale(0.015625)"/>
      </defs>
      <use xlink:href="#DejaVuSans-Oblique-70" transform="translate(0 0.765625)"/>
      <use xlink:href="#Calibri-20" transform="translate(63.476562 0.765625)"/>
      <use xlink:href="#Calibri-28" transform="translate(84.958984 0.765625)"/>
      <use xlink:href="#Calibri-63" transform="translate(115.28125 0.765625)"/>
      <use xlink:href="#Calibri-6d" transform="translate(157.566406 0.765625)"/>
      <use xlink:href="#DejaVuSans-32" transform="translate(238.40625 39.046875) scale(0.7)"/>
      <use xlink:href="#Calibri-2f" transform="translate(285.676758 0.765625)"/>
      <use xlink:href="#Calibri-63" transform="translate(324.299805 0.765625)"/>
      <use xlink:href="#Calibri-6d" transform="translate(366.584961 0.765625)"/>
      <use xlink:href="#DejaVuSans-32" transform="translate(447.424805 39.046875) scale(0.7)"/>
      <use xlink:href="#Calibri-29" transform="translate(494.695312 0.765625)"/>
     </g>
    </g>
   </g>
   <g id="matplotlib.axis_2">
    <g id="ytick_1">
     <g id="line2d_12">
      <defs>
       <path id="m45799569bc" d="M 0 0 
L -3.5 0 
" style="stroke: #000000; stroke-width: 0.8"/>
      </defs>
      <g>
       <use xlink:href="#m45799569bc" x="57.6" y="275.65056" style="stroke: #000000; stroke-width: 0.8"/>
      </g>
     </g>
     <g id="text_13">
      <!-- 25 -->
      <g transform="translate(40.4625 279.051341) scale(0.1 -0.1)">
       <use xlink:href="#Calibri-32"/>
       <use xlink:href="#Calibri-35" x="50.683594"/>
      </g>
     </g>
    </g>
    <g id="ytick_2">
     <g id="line2d_13">
      <g>
       <use xlink:href="#m45799569bc" x="57.6" y="242.38656" style="stroke: #000000; stroke-width: 0.8"/>
      </g>
     </g>
     <g id="text_14">
      <!-- 50 -->
      <g transform="translate(40.4625 245.787341) scale(0.1 -0.1)">
       <use xlink:href="#Calibri-35"/>
       <use xlink:href="#Calibri-30" x="50.683594"/>
      </g>
     </g>
    </g>
    <g id="ytick_3">
     <g id="line2d_14">
      <g>
       <use xlink:href="#m45799569bc" x="57.6" y="209.12256" style="stroke: #000000; stroke-width: 0.8"/>
      </g>
     </g>
     <g id="text_15">
      <!-- 75 -->
      <g transform="translate(40.4625 212.523341) scale(0.1 -0.1)">
       <use xlink:href="#Calibri-37"/>
       <use xlink:href="#Calibri-35" x="50.683594"/>
      </g>
     </g>
    </g>
    <g id="ytick_4">
     <g id="line2d_15">
      <g>
       <use xlink:href="#m45799569bc" x="57.6" y="175.85856" style="stroke: #000000; stroke-width: 0.8"/>
      </g>
     </g>
     <g id="text_16">
      <!-- 100 -->
      <g transform="translate(35.39375 179.259341) scale(0.1 -0.1)">
       <use xlink:href="#Calibri-31"/>
       <use xlink:href="#Calibri-30" x="50.683594"/>
       <use xlink:href="#Calibri-30" x="101.367188"/>
      </g>
     </g>
    </g>
    <g id="ytick_5">
     <g id="line2d_16">
      <g>
       <use xlink:href="#m45799569bc" x="57.6" y="142.59456" style="stroke: #000000; stroke-width: 0.8"/>
      </g>
     </g>
     <g id="text_17">
      <!-- 125 -->
      <g transform="translate(35.39375 145.995341) scale(0.1 -0.1)">
       <use xlink:href="#Calibri-31"/>
       <use xlink:href="#Calibri-32" x="50.683594"/>
       <use xlink:href="#Calibri-35" x="101.367188"/>
      </g>
     </g>
    </g>
    <g id="ytick_6">
     <g id="line2d_17">
      <g>
       <use xlink:href="#m45799569bc" x="57.6" y="109.33056" style="stroke: #000000; stroke-width: 0.8"/>
      </g>
     </g>
     <g id="text_18">
      <!-- 150 -->
      <g transform="translate(35.39375 112.731341) scale(0.1 -0.1)">
       <use xlink:href="#Calibri-31"/>
       <use xlink:href="#Calibri-35" x="50.683594"/>
       <use xlink:href="#Calibri-30" x="101.367188"/>
      </g>
     </g>
    </g>
    <g id="ytick_7">
     <g id="line2d_18">
      <g>
       <use xlink:href="#m45799569bc" x="57.6" y="76.06656" style="stroke: #000000; stroke-width: 0.8"/>
      </g>
     </g>
     <g id="text_19">
      <!-- 175 -->
      <g transform="translate(35.39375 79.467341) scale(0.1 -0.1)">
       <use xlink:href="#Calibri-31"/>
       <use xlink:href="#Calibri-37" x="50.683594"/>
       <use xlink:href="#Calibri-35" x="101.367188"/>
      </g>
     </g>
    </g>
    <g id="ytick_8">
     <g id="line2d_19">
      <g>
       <use xlink:href="#m45799569bc" x="57.6" y="42.80256" style="stroke: #000000; stroke-width: 0.8"/>
      </g>
     </g>
     <g id="text_20">
      <!-- 200 -->
      <g transform="translate(35.39375 46.203341) scale(0.1 -0.1)">
       <use xlink:href="#Calibri-32"/>
       <use xlink:href="#Calibri-30" x="50.683594"/>
       <use xlink:href="#Calibri-30" x="101.367188"/>
      </g>
     </g>
    </g>
    <g id="text_21">
     <!-- $\mathit{Z}$$_{a}$ (nm) -->
     <g transform="translate(29.59375 191.028) rotate(-90) scale(0.1 -0.1)">
      <defs>
       <path id="DejaVuSans-Oblique-5a" d="M 838 4666 
L 4500 4666 
L 4409 4184 
L 794 531 
L 3769 531 
L 3669 0 
L -141 0 
L -50 481 
L 3566 4134 
L 738 4134 
L 838 4666 
z
" transform="scale(0.015625)"/>
       <path id="DejaVuSans-Oblique-61" d="M 3438 1997 
L 3047 0 
L 2472 0 
L 2578 531 
Q 2325 219 2001 64 
Q 1678 -91 1281 -91 
Q 834 -91 548 182 
Q 263 456 263 884 
Q 263 1497 752 1853 
Q 1241 2209 2100 2209 
L 2900 2209 
L 2931 2363 
Q 2938 2388 2941 2417 
Q 2944 2447 2944 2509 
Q 2944 2788 2717 2942 
Q 2491 3097 2081 3097 
Q 1800 3097 1504 3025 
Q 1209 2953 897 2809 
L 997 3341 
Q 1322 3463 1633 3523 
Q 1944 3584 2234 3584 
Q 2853 3584 3176 3315 
Q 3500 3047 3500 2534 
Q 3500 2431 3484 2292 
Q 3469 2153 3438 1997 
z
M 2816 1759 
L 2241 1759 
Q 1534 1759 1195 1570 
Q 856 1381 856 984 
Q 856 709 1029 553 
Q 1203 397 1509 397 
Q 1978 397 2328 733 
Q 2678 1069 2791 1631 
L 2816 1759 
z
" transform="scale(0.015625)"/>
       <path id="Calibri-6e" d="M 2900 78 
Q 2900 53 2887 36 
Q 2875 19 2847 6 
Q 2819 -6 2769 -12 
Q 2719 -19 2644 -19 
Q 2566 -19 2516 -12 
Q 2466 -6 2437 6 
Q 2409 19 2396 36 
Q 2384 53 2384 78 
L 2384 1725 
Q 2384 1966 2346 2112 
Q 2309 2259 2237 2365 
Q 2166 2472 2052 2528 
Q 1938 2584 1788 2584 
Q 1594 2584 1400 2446 
Q 1206 2309 994 2044 
L 994 78 
Q 994 53 981 36 
Q 969 19 941 6 
Q 913 -6 863 -12 
Q 813 -19 734 -19 
Q 659 -19 609 -12 
Q 559 -6 529 6 
Q 500 19 489 36 
Q 478 53 478 78 
L 478 2891 
Q 478 2916 487 2933 
Q 497 2950 525 2964 
Q 553 2978 597 2983 
Q 641 2988 713 2988 
Q 781 2988 826 2983 
Q 872 2978 897 2964 
Q 922 2950 933 2933 
Q 944 2916 944 2891 
L 944 2519 
Q 1181 2784 1417 2907 
Q 1653 3031 1894 3031 
Q 2175 3031 2367 2936 
Q 2559 2841 2678 2681 
Q 2797 2522 2848 2308 
Q 2900 2094 2900 1794 
L 2900 78 
z
" transform="scale(0.015625)"/>
      </defs>
      <use xlink:href="#DejaVuSans-Oblique-5a" transform="translate(0 0.09375)"/>
      <use xlink:href="#DejaVuSans-Oblique-61" transform="translate(69.462891 -16.3125) scale(0.7)"/>
      <use xlink:href="#Calibri-20" transform="translate(115.092773 0.09375)"/>
      <use xlink:href="#Calibri-28" transform="translate(136.575195 0.09375)"/>
      <use xlink:href="#Calibri-6e" transform="translate(166.897461 0.09375)"/>
      <use xlink:href="#Calibri-6d" transform="translate(219.436523 0.09375)"/>
      <use xlink:href="#Calibri-29" transform="translate(299.319336 0.09375)"/>
     </g>
    </g>
   </g>
   <g id="patch_3">
    <path d="M 57.6 307.584 
L 57.6 41.472 
" style="fill: none; stroke: #000000; stroke-width: 0.8; stroke-linejoin: miter; stroke-linecap: square"/>
   </g>
   <g id="patch_4">
    <path d="M 343.296 307.584 
L 343.296 41.472 
" style="fill: none; stroke: #000000; stroke-width: 0.8; stroke-linejoin: miter; stroke-linecap: square"/>
   </g>
   <g id="patch_5">
    <path d="M 57.6 307.584 
L 343.296 307.584 
" style="fill: none; stroke: #000000; stroke-width: 0.8; stroke-linejoin: miter; stroke-linecap: square"/>
   </g>
   <g id="patch_6">
    <path d="M 57.6 41.472 
L 343.296 41.472 
" style="fill: none; stroke: #000000; stroke-width: 0.8; stroke-linejoin: miter; stroke-linecap: square"/>
   </g>
   <g id="text_22">
    <!-- $\theta_m$ = 61 -->
    <g transform="translate(182.298 35.472) scale(0.1 -0.1)">
     <defs>
      <path id="DejaVuSans-Oblique-3b8" d="M 2913 2219 
L 925 2219 
Q 791 1284 928 888 
Q 1100 400 1566 400 
Q 2034 400 2391 891 
Q 2703 1322 2913 2219 
z
M 3009 2750 
Q 3094 3638 2984 3950 
Q 2813 4444 2353 4444 
Q 1875 4444 1525 3956 
Q 1250 3563 1034 2750 
L 3009 2750 
z
M 2444 4913 
Q 3194 4913 3494 4250 
Q 3794 3591 3566 2422 
Q 3341 1256 2781 594 
Q 2225 -72 1475 -72 
Q 722 -72 425 594 
Q 128 1256 353 2422 
Q 581 3591 1134 4250 
Q 1691 4913 2444 4913 
z
" transform="scale(0.015625)"/>
      <path id="DejaVuSans-Oblique-6d" d="M 5747 2113 
L 5338 0 
L 4763 0 
L 5166 2094 
Q 5191 2228 5203 2325 
Q 5216 2422 5216 2491 
Q 5216 2772 5059 2928 
Q 4903 3084 4622 3084 
Q 4203 3084 3875 2770 
Q 3547 2456 3450 1953 
L 3066 0 
L 2491 0 
L 2900 2094 
Q 2925 2209 2937 2307 
Q 2950 2406 2950 2484 
Q 2950 2769 2794 2926 
Q 2638 3084 2363 3084 
Q 1938 3084 1609 2770 
Q 1281 2456 1184 1953 
L 800 0 
L 225 0 
L 909 3500 
L 1484 3500 
L 1375 2956 
Q 1609 3263 1923 3423 
Q 2238 3584 2597 3584 
Q 2978 3584 3223 3384 
Q 3469 3184 3519 2828 
Q 3781 3197 4126 3390 
Q 4472 3584 4856 3584 
Q 5306 3584 5551 3325 
Q 5797 3066 5797 2591 
Q 5797 2488 5784 2364 
Q 5772 2241 5747 2113 
z
" transform="scale(0.015625)"/>
      <path id="Calibri-3d" d="M 2891 2409 
Q 2891 2284 2855 2236 
Q 2819 2188 2772 2188 
L 409 2188 
Q 363 2188 328 2236 
Q 294 2284 294 2409 
Q 294 2522 325 2575 
Q 356 2628 409 2628 
L 2772 2628 
Q 2828 2628 2859 2575 
Q 2891 2522 2891 2409 
z
M 2891 1194 
Q 2891 1069 2855 1022 
Q 2819 975 2772 975 
L 409 975 
Q 363 975 328 1022 
Q 294 1069 294 1194 
Q 294 1309 325 1362 
Q 356 1416 409 1416 
L 2772 1416 
Q 2828 1416 2859 1362 
Q 2891 1309 2891 1194 
z
" transform="scale(0.015625)"/>
      <path id="Calibri-b0" d="M 1847 3541 
Q 1847 3388 1789 3253 
Q 1731 3119 1626 3017 
Q 1522 2916 1380 2859 
Q 1238 2803 1072 2803 
Q 906 2803 770 2854 
Q 634 2906 534 3000 
Q 434 3094 378 3225 
Q 322 3356 322 3516 
Q 322 3675 381 3811 
Q 441 3947 545 4044 
Q 650 4141 790 4197 
Q 931 4253 1097 4253 
Q 1259 4253 1396 4200 
Q 1534 4147 1634 4055 
Q 1734 3963 1790 3831 
Q 1847 3700 1847 3541 
z
M 1453 3528 
Q 1453 3613 1425 3686 
Q 1397 3759 1347 3812 
Q 1297 3866 1228 3895 
Q 1159 3925 1078 3925 
Q 1000 3925 933 3895 
Q 866 3866 816 3812 
Q 766 3759 737 3687 
Q 709 3616 709 3534 
Q 709 3444 737 3369 
Q 766 3294 817 3241 
Q 869 3188 939 3158 
Q 1009 3128 1091 3128 
Q 1166 3128 1233 3159 
Q 1300 3191 1348 3245 
Q 1397 3300 1425 3372 
Q 1453 3444 1453 3528 
z
M 0 4044 
L 0 4044 
z
" transform="scale(0.015625)"/>
     </defs>
     <use xlink:href="#DejaVuSans-Oblique-3b8" transform="translate(0 0.234375)"/>
     <use xlink:href="#DejaVuSans-Oblique-6d" transform="translate(61.181641 -16.171875) scale(0.7)"/>
     <use xlink:href="#Calibri-20" transform="translate(132.104492 0.234375)"/>
     <use xlink:href="#Calibri-3d" transform="translate(154.711914 0.234375)"/>
     <use xlink:href="#Calibri-20" transform="translate(204.516602 0.234375)"/>
     <use xlink:href="#Calibri-36" transform="translate(227.124023 0.234375)"/>
     <use xlink:href="#Calibri-31" transform="translate(277.807617 0.234375)"/>
     <use xlink:href="#Calibri-b0" transform="translate(328.491211 0.234375)"/>
    </g>
   </g>
  </g>
  <g id="axes_2">
   <g id="patch_7">
    <path d="M 361.152 307.584 
L 374.4576 307.584 
L 374.4576 41.472 
L 361.152 41.472 
z
" style="fill: #ffffff"/>
   </g>
   <g id="QuadMesh_1">
    <path d="M 361.152 307.584 
L 374.4576 307.584 
L 374.4576 280.9728 
L 361.152 280.9728 
L 361.152 307.584 
" clip-path="url(#p1f7dd25acc)" style="fill: #0000b6"/>
    <path d="M 361.152 280.9728 
L 374.4576 280.9728 
L 374.4576 254.3616 
L 361.152 254.3616 
L 361.152 280.9728 
" clip-path="url(#p1f7dd25acc)" style="fill: #0018ff"/>
    <path d="M 361.152 254.3616 
L 374.4576 254.3616 
L 374.4576 227.7504 
L 361.152 227.7504 
L 361.152 254.3616 
" clip-path="url(#p1f7dd25acc)" style="fill: #0080ff"/>
    <path d="M 361.152 227.7504 
L 374.4576 227.7504 
L 374.4576 201.1392 
L 361.152 201.1392 
L 361.152 227.7504 
" clip-path="url(#p1f7dd25acc)" style="fill: #00e4f8"/>
    <path d="M 361.152 201.1392 
L 374.4576 201.1392 
L 374.4576 174.528 
L 361.152 174.528 
L 361.152 201.1392 
" clip-path="url(#p1f7dd25acc)" style="fill: #53ffa4"/>
    <path d="M 361.152 174.528 
L 374.4576 174.528 
L 374.4576 147.9168 
L 361.152 147.9168 
L 361.152 174.528 
" clip-path="url(#p1f7dd25acc)" style="fill: #a4ff53"/>
    <path d="M 361.152 147.9168 
L 374.4576 147.9168 
L 374.4576 121.3056 
L 361.152 121.3056 
L 361.152 147.9168 
" clip-path="url(#p1f7dd25acc)" style="fill: #f8f500"/>
    <path d="M 361.152 121.3056 
L 374.4576 121.3056 
L 374.4576 94.6944 
L 361.152 94.6944 
L 361.152 121.3056 
" clip-path="url(#p1f7dd25acc)" style="fill: #ff9400"/>
    <path d="M 361.152 94.6944 
L 374.4576 94.6944 
L 374.4576 68.0832 
L 361.152 68.0832 
L 361.152 94.6944 
" clip-path="url(#p1f7dd25acc)" style="fill: #ff3800"/>
    <path d="M 361.152 68.0832 
L 374.4576 68.0832 
L 374.4576 41.472 
L 361.152 41.472 
L 361.152 68.0832 
" clip-path="url(#p1f7dd25acc)" style="fill: #b60000"/>
   </g>
   <g id="matplotlib.axis_3"/>
   <g id="matplotlib.axis_4">
    <g id="ytick_9">
     <g id="line2d_20">
      <defs>
       <path id="ma4de5f629d" d="M 0 0 
L 3.5 0 
" style="stroke: #000000; stroke-width: 0.8"/>
      </defs>
      <g>
       <use xlink:href="#ma4de5f629d" x="374.4576" y="307.584" style="stroke: #000000; stroke-width: 0.8"/>
      </g>
     </g>
     <g id="text_23">
      <!-- 0 -->
      <g transform="translate(381.4576 310.984781) scale(0.1 -0.1)">
       <use xlink:href="#Calibri-30"/>
      </g>
     </g>
    </g>
    <g id="ytick_10">
     <g id="line2d_21">
      <g>
       <use xlink:href="#ma4de5f629d" x="374.4576" y="280.9728" style="stroke: #000000; stroke-width: 0.8"/>
      </g>
     </g>
     <g id="text_24">
      <!-- 0.1 -->
      <g transform="translate(381.4576 284.373581) scale(0.1 -0.1)">
       <use xlink:href="#Calibri-30"/>
       <use xlink:href="#Calibri-2e" x="50.683594"/>
       <use xlink:href="#Calibri-31" x="75.927734"/>
      </g>
     </g>
    </g>
    <g id="ytick_11">
     <g id="line2d_22">
      <g>
       <use xlink:href="#ma4de5f629d" x="374.4576" y="254.3616" style="stroke: #000000; stroke-width: 0.8"/>
      </g>
     </g>
     <g id="text_25">
      <!-- 0.2 -->
      <g transform="translate(381.4576 257.762381) scale(0.1 -0.1)">
       <use xlink:href="#Calibri-30"/>
       <use xlink:href="#Calibri-2e" x="50.683594"/>
       <use xlink:href="#Calibri-32" x="75.927734"/>
      </g>
     </g>
    </g>
    <g id="ytick_12">
     <g id="line2d_23">
      <g>
       <use xlink:href="#ma4de5f629d" x="374.4576" y="227.7504" style="stroke: #000000; stroke-width: 0.8"/>
      </g>
     </g>
     <g id="text_26">
      <!-- 0.3 -->
      <g transform="translate(381.4576 231.151181) scale(0.1 -0.1)">
       <use xlink:href="#Calibri-30"/>
       <use xlink:href="#Calibri-2e" x="50.683594"/>
       <use xlink:href="#Calibri-33" x="75.927734"/>
      </g>
     </g>
    </g>
    <g id="ytick_13">
     <g id="line2d_24">
      <g>
       <use xlink:href="#ma4de5f629d" x="374.4576" y="201.1392" style="stroke: #000000; stroke-width: 0.8"/>
      </g>
     </g>
     <g id="text_27">
      <!-- 0.4 -->
      <g transform="translate(381.4576 204.539981) scale(0.1 -0.1)">
       <use xlink:href="#Calibri-30"/>
       <use xlink:href="#Calibri-2e" x="50.683594"/>
       <use xlink:href="#Calibri-34" x="75.927734"/>
      </g>
     </g>
    </g>
    <g id="ytick_14">
     <g id="line2d_25">
      <g>
       <use xlink:href="#ma4de5f629d" x="374.4576" y="174.528" style="stroke: #000000; stroke-width: 0.8"/>
      </g>
     </g>
     <g id="text_28">
      <!-- 0.5 -->
      <g transform="translate(381.4576 177.928781) scale(0.1 -0.1)">
       <use xlink:href="#Calibri-30"/>
       <use xlink:href="#Calibri-2e" x="50.683594"/>
       <use xlink:href="#Calibri-35" x="75.927734"/>
      </g>
     </g>
    </g>
    <g id="ytick_15">
     <g id="line2d_26">
      <g>
       <use xlink:href="#ma4de5f629d" x="374.4576" y="147.9168" style="stroke: #000000; stroke-width: 0.8"/>
      </g>
     </g>
     <g id="text_29">
      <!-- 0.6 -->
      <g transform="translate(381.4576 151.317581) scale(0.1 -0.1)">
       <use xlink:href="#Calibri-30"/>
       <use xlink:href="#Calibri-2e" x="50.683594"/>
       <use xlink:href="#Calibri-36" x="75.927734"/>
      </g>
     </g>
    </g>
    <g id="ytick_16">
     <g id="line2d_27">
      <g>
       <use xlink:href="#ma4de5f629d" x="374.4576" y="121.3056" style="stroke: #000000; stroke-width: 0.8"/>
      </g>
     </g>
     <g id="text_30">
      <!-- 0.7 -->
      <g transform="translate(381.4576 124.706381) scale(0.1 -0.1)">
       <use xlink:href="#Calibri-30"/>
       <use xlink:href="#Calibri-2e" x="50.683594"/>
       <use xlink:href="#Calibri-37" x="75.927734"/>
      </g>
     </g>
    </g>
    <g id="ytick_17">
     <g id="line2d_28">
      <g>
       <use xlink:href="#ma4de5f629d" x="374.4576" y="94.6944" style="stroke: #000000; stroke-width: 0.8"/>
      </g>
     </g>
     <g id="text_31">
      <!-- 0.8 -->
      <g transform="translate(381.4576 98.095181) scale(0.1 -0.1)">
       <use xlink:href="#Calibri-30"/>
       <use xlink:href="#Calibri-2e" x="50.683594"/>
       <use xlink:href="#Calibri-38" x="75.927734"/>
      </g>
     </g>
    </g>
    <g id="ytick_18">
     <g id="line2d_29">
      <g>
       <use xlink:href="#ma4de5f629d" x="374.4576" y="68.0832" style="stroke: #000000; stroke-width: 0.8"/>
      </g>
     </g>
     <g id="text_32">
      <!-- 0.9 -->
      <g transform="translate(381.4576 71.483981) scale(0.1 -0.1)">
       <use xlink:href="#Calibri-30"/>
       <use xlink:href="#Calibri-2e" x="50.683594"/>
       <use xlink:href="#Calibri-39" x="75.927734"/>
      </g>
     </g>
    </g>
    <g id="ytick_19">
     <g id="line2d_30">
      <g>
       <use xlink:href="#ma4de5f629d" x="374.4576" y="41.472" style="stroke: #000000; stroke-width: 0.8"/>
      </g>
     </g>
     <g id="text_33">
      <!-- 1.0 -->
      <g transform="translate(381.4576 44.872781) scale(0.1 -0.1)">
       <use xlink:href="#Calibri-31"/>
       <use xlink:href="#Calibri-2e" x="50.683594"/>
       <use xlink:href="#Calibri-30" x="75.927734"/>
      </g>
     </g>
    </g>
   </g>
   <g id="LineCollection_1"/>
   <g id="patch_8">
    <path d="M 361.152 307.584 
L 367.8048 307.584 
L 374.4576 307.584 
L 374.4576 41.472 
L 367.8048 41.472 
L 361.152 41.472 
L 361.152 307.584 
z
" style="fill: none; stroke: #000000; stroke-width: 0.8; stroke-linejoin: miter; stroke-linecap: square"/>
   </g>
   <g id="text_34">
    <!-- $\mathit{E}_{\mathrm{dis}}$/$\mathit{E}_{\mathrm{i}}$ -->
    <g transform="translate(353.2548 35.472) scale(0.1 -0.1)">
     <defs>
      <path id="DejaVuSans-Oblique-45" d="M 1081 4666 
L 4031 4666 
L 3928 4134 
L 1606 4134 
L 1338 2753 
L 3566 2753 
L 3463 2222 
L 1234 2222 
L 909 531 
L 3284 531 
L 3181 0 
L 172 0 
L 1081 4666 
z
" transform="scale(0.015625)"/>
      <path id="DejaVuSans-64" d="M 2906 2969 
L 2906 4863 
L 3481 4863 
L 3481 0 
L 2906 0 
L 2906 525 
Q 2725 213 2448 61 
Q 2172 -91 1784 -91 
Q 1150 -91 751 415 
Q 353 922 353 1747 
Q 353 2572 751 3078 
Q 1150 3584 1784 3584 
Q 2172 3584 2448 3432 
Q 2725 3281 2906 2969 
z
M 947 1747 
Q 947 1113 1208 752 
Q 1469 391 1925 391 
Q 2381 391 2643 752 
Q 2906 1113 2906 1747 
Q 2906 2381 2643 2742 
Q 2381 3103 1925 3103 
Q 1469 3103 1208 2742 
Q 947 2381 947 1747 
z
" transform="scale(0.015625)"/>
      <path id="DejaVuSans-69" d="M 603 3500 
L 1178 3500 
L 1178 0 
L 603 0 
L 603 3500 
z
M 603 4863 
L 1178 4863 
L 1178 4134 
L 603 4134 
L 603 4863 
z
" transform="scale(0.015625)"/>
      <path id="DejaVuSans-73" d="M 2834 3397 
L 2834 2853 
Q 2591 2978 2328 3040 
Q 2066 3103 1784 3103 
Q 1356 3103 1142 2972 
Q 928 2841 928 2578 
Q 928 2378 1081 2264 
Q 1234 2150 1697 2047 
L 1894 2003 
Q 2506 1872 2764 1633 
Q 3022 1394 3022 966 
Q 3022 478 2636 193 
Q 2250 -91 1575 -91 
Q 1294 -91 989 -36 
Q 684 19 347 128 
L 347 722 
Q 666 556 975 473 
Q 1284 391 1588 391 
Q 1994 391 2212 530 
Q 2431 669 2431 922 
Q 2431 1156 2273 1281 
Q 2116 1406 1581 1522 
L 1381 1569 
Q 847 1681 609 1914 
Q 372 2147 372 2553 
Q 372 3047 722 3315 
Q 1072 3584 1716 3584 
Q 2034 3584 2315 3537 
Q 2597 3491 2834 3397 
z
" transform="scale(0.015625)"/>
     </defs>
     <use xlink:href="#DejaVuSans-Oblique-45" transform="translate(0 0.09375)"/>
     <use xlink:href="#DejaVuSans-64" transform="translate(63.183594 -16.3125) scale(0.7)"/>
     <use xlink:href="#DejaVuSans-69" transform="translate(107.617188 -16.3125) scale(0.7)"/>
     <use xlink:href="#DejaVuSans-73" transform="translate(127.06543 -16.3125) scale(0.7)"/>
     <use xlink:href="#Calibri-2f" transform="translate(166.269531 0.09375)"/>
     <use xlink:href="#DejaVuSans-Oblique-45" transform="translate(204.892578 0.09375)"/>
     <use xlink:href="#DejaVuSans-69" transform="translate(268.076172 -16.3125) scale(0.7)"/>
    </g>
   </g>
  </g>
 </g>
 <defs>
  <clipPath id="p3ce1a552ee">
   <rect x="57.6" y="41.472" width="285.696" height="266.112"/>
  </clipPath>
  <clipPath id="p1f7dd25acc">
   <rect x="361.152" y="41.472" width="13.3056" height="266.112"/>
  </clipPath>
 </defs>
</svg>
