<?xml version="1.0" encoding="utf-8" standalone="no"?>
<!DOCTYPE svg PUBLIC "-//W3C//DTD SVG 1.1//EN"
  "http://www.w3.org/Graphics/SVG/1.1/DTD/svg11.dtd">
<svg xmlns:xlink="http://www.w3.org/1999/xlink" width="460.8pt" height="345.6pt" viewBox="0 0 460.8 345.6" xmlns="http://www.w3.org/2000/svg" version="1.1">
 <metadata>
  <rdf:RDF xmlns:dc="http://purl.org/dc/elements/1.1/" xmlns:cc="http://creativecommons.org/ns#" xmlns:rdf="http://www.w3.org/1999/02/22-rdf-syntax-ns#">
   <cc:Work>
    <dc:type rdf:resource="http://purl.org/dc/dcmitype/StillImage"/>
    <dc:date>2024-01-22T08:41:35.615538</dc:date>
    <dc:format>image/svg+xml</dc:format>
    <dc:creator>
     <cc:Agent>
      <dc:title>Matplotlib v3.7.1, https://matplotlib.org/</dc:title>
     </cc:Agent>
    </dc:creator>
   </cc:Work>
  </rdf:RDF>
 </metadata>
 <defs>
  <style type="text/css">*{stroke-linejoin: round; stroke-linecap: butt}</style>
 </defs>
 <g id="figure_1">
  <g id="patch_1">
   <path d="M 0 345.6 
L 460.8 345.6 
L 460.8 0 
L 0 0 
z
" style="fill: #ffffff"/>
  </g>
  <g id="axes_1">
   <g id="patch_2">
    <path d="M 57.6 307.584 
L 343.296 307.584 
L 343.296 41.472 
L 57.6 41.472 
z
" style="fill: #ffffff"/>
   </g>
   <g id="PathCollection_1">
    <path clip-path="url(#p3cfb0930f0)" style="fill: #0000b6"/>
   </g>
   <g id="PathCollection_2">
    <path clip-path="url(#p3cfb0930f0)" style="fill: #0018ff"/>
   </g>
   <g id="PathCollection_3">
    <path d="M 57.62857 86.425064 
L 57.849147 85.877743 
L 58.307719 84.7152 
L 58.693773 83.714234 
L 59.209793 82.36308 
L 59.466464 81.672904 
L 59.508072 81.56476 
L 59.574261 81.3888 
L 59.665899 81.134786 
L 59.7813 80.82 
L 59.932542 80.41452 
L 60.063947 80.052647 
L 60.559914 78.67419 
L 60.712233 78.253397 
L 60.780946 78.0624 
L 61.397051 76.310133 
L 61.606118 75.71028 
L 61.819899 75.079446 
L 61.884756 74.891761 
L 61.939454 74.736 
L 61.999661 74.555106 
L 62.269987 73.76172 
L 62.692628 72.485693 
L 63.04615 71.4096 
L 63.471788 70.083401 
L 63.799375 69.05748 
L 63.850775 68.899752 
L 64.110911 68.0832 
L 64.260341 67.595175 
L 64.355513 67.276942 
L 64.407867 67.10892 
L 64.870561 65.578883 
L 65.120658 64.7568 
L 65.170416 64.589327 
L 65.815103 62.40468 
L 65.919811 62.038683 
L 66.098971 61.4304 
L 66.365493 60.476366 
L 66.371016 60.45612 
L 66.874978 58.652847 
L 67.027772 58.104 
L 67.499464 56.368249 
L 67.666006 55.75188 
L 67.805001 55.220285 
L 67.925117 54.7776 
L 67.994622 54.506382 
L 68.180917 53.80332 
L 68.608297 52.136131 
L 68.782987 51.4512 
L 69.363971 49.116566 
L 69.368362 49.09908 
L 69.369013 49.096396 
L 69.468684 48.705477 
L 69.613381 48.1248 
L 69.786111 47.387136 
L 69.842573 47.15052 
L 70.077212 46.163164 
L 70.400735 44.7984 
L 70.716469 43.432859 
L 70.943747 42.44628 
L 71.114446 41.677749 
L 71.161409 41.472 
L 69.818266 41.472 
L 68.294554 41.472 
L 66.770842 41.472 
L 65.24713 41.472 
L 63.723418 41.472 
L 62.199706 41.472 
L 60.675994 41.472 
L 59.152282 41.472 
L 57.62857 41.472 
L 57.62857 44.7984 
L 57.62857 48.1248 
L 57.62857 51.4512 
L 57.62857 54.7776 
L 57.62857 58.104 
L 57.62857 61.4304 
L 57.62857 64.7568 
L 57.62857 68.0832 
L 57.62857 71.4096 
L 57.62857 74.736 
L 57.62857 78.0624 
L 57.62857 81.3888 
L 57.62857 84.7152 
" clip-path="url(#p3cfb0930f0)" style="fill: #0080ff"/>
   </g>
   <g id="PathCollection_4">
    <path d="M 71.161409 41.472 
L 71.114446 41.677749 
L 70.943747 42.44628 
L 70.716469 43.432859 
L 70.400735 44.7984 
L 70.077212 46.163164 
L 69.842573 47.15052 
L 69.786111 47.387136 
L 69.613381 48.1248 
L 69.468684 48.705477 
L 69.369013 49.096396 
L 69.368362 49.09908 
L 69.363971 49.116566 
L 68.782987 51.4512 
L 68.608297 52.136131 
L 68.180917 53.80332 
L 67.994622 54.506382 
L 67.925117 54.7776 
L 67.805001 55.220285 
L 67.666006 55.75188 
L 67.499464 56.368249 
L 67.027772 58.104 
L 66.874978 58.652847 
L 66.371016 60.45612 
L 66.365493 60.476366 
L 66.098971 61.4304 
L 65.919811 62.038683 
L 65.815103 62.40468 
L 65.170416 64.589327 
L 65.120658 64.7568 
L 64.870561 65.578883 
L 64.407867 67.10892 
L 64.355513 67.276942 
L 64.260341 67.595175 
L 64.110911 68.0832 
L 63.850775 68.899752 
L 63.799375 69.05748 
L 63.471788 70.083401 
L 63.04615 71.4096 
L 62.692628 72.485693 
L 62.269987 73.76172 
L 61.999661 74.555106 
L 61.939454 74.736 
L 61.884756 74.891761 
L 61.819899 75.079446 
L 61.606118 75.71028 
L 61.397051 76.310133 
L 60.780946 78.0624 
L 60.712233 78.253397 
L 60.559914 78.67419 
L 60.063947 80.052647 
L 59.932542 80.41452 
L 59.7813 80.82 
L 59.665899 81.134786 
L 59.574261 81.3888 
L 59.508072 81.56476 
L 59.466464 81.672904 
L 59.209793 82.36308 
L 58.693773 83.714234 
L 58.307719 84.7152 
L 57.849147 85.877743 
L 57.62857 86.425064 
L 57.62857 88.0416 
L 57.62857 91.368 
L 57.62857 94.6944 
L 57.62857 98.0208 
L 57.62857 101.3472 
L 57.62857 104.6736 
L 57.62857 108 
L 57.62857 111.3264 
L 57.62857 114.6528 
L 57.62857 117.9792 
L 57.62857 121.3056 
L 57.62857 124.632 
L 57.62857 127.9584 
L 57.62857 131.2848 
L 57.62857 134.6112 
L 57.62857 137.9376 
L 57.62857 141.219681 
L 57.673784 141.165294 
L 58.260329 140.457438 
L 58.398338 140.28972 
L 59.566968 138.842897 
L 60.284161 137.9376 
L 60.599035 137.531995 
L 60.803722 137.264415 
L 61.487757 136.383352 
L 62.095672 135.58548 
L 62.572116 134.947958 
L 62.656561 134.837142 
L 62.824745 134.6112 
L 63.469219 133.731918 
L 63.537211 133.63692 
L 64.037935 132.942449 
L 65.216789 131.2848 
L 65.235092 131.25852 
L 65.307873 131.152191 
L 66.435123 129.515413 
L 66.831166 128.93268 
L 67.080376 128.558883 
L 67.485461 127.9584 
L 67.785671 127.498235 
L 68.123162 126.98412 
L 68.85243 125.849893 
L 69.622726 124.632 
L 69.772391 124.390222 
L 69.9054 124.172763 
L 70.610119 123.034288 
L 71.069726 122.27988 
L 71.54249 121.486917 
L 71.580997 121.423809 
L 71.651468 121.3056 
L 71.775814 121.091042 
L 71.998293 120.712117 
L 72.223487 120.33132 
L 72.332836 120.142332 
L 72.516363 119.820305 
L 73.041966 118.908257 
L 73.571434 117.9792 
L 74.020448 117.173741 
L 74.870127 115.62708 
L 75.06517 115.263874 
L 75.185006 115.046273 
L 75.396723 114.6528 
L 75.817985 113.852187 
L 75.90722 113.67852 
L 76.238447 113.04105 
L 77.120481 111.3264 
L 77.28604 110.997221 
L 78.28991 108.97428 
L 78.358254 108.833216 
L 78.767108 108 
L 79.093479 107.312182 
L 79.226211 107.02572 
L 79.354822 106.751653 
L 80.321272 104.6736 
L 80.402441 104.495005 
L 81.378276 102.32148 
L 81.430287 102.202669 
L 81.810553 101.3472 
L 82.163204 100.516858 
L 82.225284 100.37292 
L 82.383516 100.000136 
L 83.21698 98.0208 
L 83.365864 97.658823 
L 84.175394 95.66868 
L 84.289763 95.379914 
L 84.395457 95.121592 
L 84.566225 94.6944 
L 84.808701 94.062835 
L 84.94242 93.72012 
L 85.316871 92.746144 
L 85.842986 91.368 
L 86.173228 90.481951 
L 86.714237 89.01588 
L 86.945049 88.372517 
L 86.992126 88.245867 
L 87.066301 88.0416 
L 87.167386 87.750656 
L 87.292542 87.396457 
L 87.411019 87.06732 
L 87.517332 86.76345 
L 87.952241 85.508765 
L 88.147253 84.949438 
L 88.22842 84.7152 
L 88.822182 82.959254 
L 89.022 82.36308 
L 89.219095 81.757222 
L 89.342448 81.3888 
L 89.406086 81.189467 
L 89.659715 80.41452 
L 90.087264 79.068242 
L 90.4041 78.0624 
L 90.865376 76.561074 
L 91.125462 75.71028 
L 91.199625 75.465139 
L 91.424102 74.736 
L 91.581984 74.195961 
L 91.683445 73.840324 
L 91.706862 73.76172 
L 91.894698 73.110768 
L 92.388958 71.4096 
L 92.497859 71.025187 
L 93.051578 69.05748 
L 93.189816 68.549684 
L 93.242586 68.364426 
L 93.320823 68.0832 
L 93.525089 67.313541 
L 93.581441 67.10892 
L 93.64392 66.874341 
L 94.180249 64.848553 
L 94.200558 64.772088 
L 94.204604 64.7568 
L 94.750928 62.638239 
L 94.810825 62.40468 
L 94.858963 62.210244 
L 95.05995 61.4304 
L 95.131388 61.138619 
L 95.178864 60.939831 
L 95.300409 60.45612 
L 95.819094 58.317341 
L 95.870583 58.104 
L 96.027884 57.434851 
L 96.42754 55.75188 
L 96.491196 55.473727 
L 96.65683 54.7776 
L 96.771244 54.258375 
L 96.873535 53.80332 
L 97.316274 51.826414 
L 97.400117 51.4512 
L 97.840849 49.425415 
L 97.911616 49.09908 
L 97.962783 48.853648 
L 98.122356 48.1248 
L 98.222909 47.631176 
L 98.325293 47.15052 
L 98.795084 44.855794 
L 98.806804 44.7984 
L 98.835928 44.65184 
L 99.279945 42.44628 
L 99.364145 42.010356 
L 99.469912 41.472 
L 98.768794 41.472 
L 97.245082 41.472 
L 95.72137 41.472 
L 94.197658 41.472 
L 92.673946 41.472 
L 91.150234 41.472 
L 89.626522 41.472 
L 88.10281 41.472 
L 86.579098 41.472 
L 85.055386 41.472 
L 83.531674 41.472 
L 82.007962 41.472 
L 80.48425 41.472 
L 78.960538 41.472 
L 77.436826 41.472 
L 75.913114 41.472 
L 74.389402 41.472 
L 72.86569 41.472 
L 71.341978 41.472 
" clip-path="url(#p3cfb0930f0)" style="fill: #00e4f8"/>
   </g>
   <g id="PathCollection_5">
    <path d="M 99.469912 41.472 
L 99.364145 42.010356 
L 99.279945 42.44628 
L 98.835928 44.65184 
L 98.806804 44.7984 
L 98.795084 44.855794 
L 98.325293 47.15052 
L 98.222909 47.631176 
L 98.122356 48.1248 
L 97.962783 48.853648 
L 97.911616 49.09908 
L 97.840849 49.425415 
L 97.400117 51.4512 
L 97.316274 51.826414 
L 96.873535 53.80332 
L 96.771244 54.258375 
L 96.65683 54.7776 
L 96.491196 55.473727 
L 96.42754 55.75188 
L 96.027884 57.434851 
L 95.870583 58.104 
L 95.819094 58.317341 
L 95.300409 60.45612 
L 95.178864 60.939831 
L 95.131388 61.138619 
L 95.05995 61.4304 
L 94.858963 62.210244 
L 94.810825 62.40468 
L 94.750928 62.638239 
L 94.204604 64.7568 
L 94.200558 64.772088 
L 94.180249 64.848553 
L 93.64392 66.874341 
L 93.581441 67.10892 
L 93.525089 67.313541 
L 93.320823 68.0832 
L 93.242586 68.364426 
L 93.189816 68.549684 
L 93.051578 69.05748 
L 92.497859 71.025187 
L 92.388958 71.4096 
L 91.894698 73.110768 
L 91.706862 73.76172 
L 91.683445 73.840324 
L 91.581984 74.195961 
L 91.424102 74.736 
L 91.199625 75.465139 
L 91.125462 75.71028 
L 90.865376 76.561074 
L 90.4041 78.0624 
L 90.087264 79.068242 
L 89.659715 80.41452 
L 89.406086 81.189467 
L 89.342448 81.3888 
L 89.219095 81.757222 
L 89.022 82.36308 
L 88.822182 82.959254 
L 88.22842 84.7152 
L 88.147253 84.949438 
L 87.952241 85.508765 
L 87.517332 86.76345 
L 87.411019 87.06732 
L 87.292542 87.396457 
L 87.167386 87.750656 
L 87.066301 88.0416 
L 86.992126 88.245867 
L 86.945049 88.372517 
L 86.714237 89.01588 
L 86.173228 90.481951 
L 85.842986 91.368 
L 85.316871 92.746144 
L 84.94242 93.72012 
L 84.808701 94.062835 
L 84.566225 94.6944 
L 84.395457 95.121592 
L 84.289763 95.379914 
L 84.175394 95.66868 
L 83.365864 97.658823 
L 83.21698 98.0208 
L 82.383516 100.000136 
L 82.225284 100.37292 
L 82.163204 100.516858 
L 81.810553 101.3472 
L 81.430287 102.202669 
L 81.378276 102.32148 
L 80.402441 104.495005 
L 80.321272 104.6736 
L 79.354822 106.751653 
L 79.226211 107.02572 
L 79.093479 107.312182 
L 78.767108 108 
L 78.358254 108.833216 
L 78.28991 108.97428 
L 77.28604 110.997221 
L 77.120481 111.3264 
L 76.238447 113.04105 
L 75.90722 113.67852 
L 75.817985 113.852187 
L 75.396723 114.6528 
L 75.185006 115.046273 
L 75.06517 115.263874 
L 74.870127 115.62708 
L 74.020448 117.173741 
L 73.571434 117.9792 
L 73.041966 118.908257 
L 72.516363 119.820305 
L 72.332836 120.142332 
L 72.223487 120.33132 
L 71.998293 120.712117 
L 71.775814 121.091042 
L 71.651468 121.3056 
L 71.580997 121.423809 
L 71.54249 121.486917 
L 71.069726 122.27988 
L 70.610119 123.034288 
L 69.9054 124.172763 
L 69.772391 124.390222 
L 69.622726 124.632 
L 68.85243 125.849893 
L 68.123162 126.98412 
L 67.785671 127.498235 
L 67.485461 127.9584 
L 67.080376 128.558883 
L 66.831166 128.93268 
L 66.435123 129.515413 
L 65.307873 131.152191 
L 65.235092 131.25852 
L 65.216789 131.2848 
L 64.037935 132.942449 
L 63.537211 133.63692 
L 63.469219 133.731918 
L 62.824745 134.6112 
L 62.656561 134.837142 
L 62.572116 134.947958 
L 62.095672 135.58548 
L 61.487757 136.383352 
L 60.803722 137.264415 
L 60.599035 137.531995 
L 60.284161 137.9376 
L 59.566968 138.842897 
L 58.398338 140.28972 
L 58.260329 140.457438 
L 57.673784 141.165294 
L 57.62857 141.219681 
L 57.62857 141.264 
L 57.62857 144.5904 
L 57.62857 147.9168 
L 57.62857 151.2432 
L 57.62857 154.5696 
L 57.62857 157.896 
L 57.62857 161.2224 
L 57.62857 164.5488 
L 57.62857 167.8752 
L 57.62857 171.2016 
L 57.62857 174.528 
L 57.62857 177.8544 
L 57.62857 179.263974 
L 57.868364 179.118223 
L 58.86973 178.471237 
L 59.307984 178.194311 
L 59.829189 177.8544 
L 60.581297 177.355309 
L 60.798808 177.207116 
L 61.645798 176.645171 
L 63.259114 175.541617 
L 63.281723 175.526472 
L 63.316903 175.50228 
L 63.674297 175.257273 
L 64.710729 174.528 
L 64.931168 174.371738 
L 65.010493 174.314018 
L 66.068922 173.55372 
L 66.260541 173.413969 
L 66.366107 173.334731 
L 67.076821 172.81425 
L 67.806787 172.266439 
L 68.536248 171.729242 
L 69.232469 171.2016 
L 69.743416 170.80711 
L 69.919528 170.667903 
L 70.78977 169.996081 
L 72.23436 168.84948 
L 72.332167 168.770594 
L 73.437284 167.8752 
L 73.794562 167.581017 
L 73.933896 167.463302 
L 74.609082 166.90092 
L 75.227114 166.377602 
L 75.633074 166.024733 
L 76.11534 165.614622 
L 77.341637 164.5488 
L 77.409339 164.488795 
L 77.503538 164.403161 
L 78.725288 163.308928 
L 79.294582 162.788238 
L 79.566316 162.544869 
L 79.94538 162.19668 
L 80.74019 161.453838 
L 80.987209 161.2224 
L 81.855882 160.393622 
L 82.004568 160.24812 
L 82.384083 159.878327 
L 82.823751 159.441459 
L 83.800738 158.483392 
L 84.385588 157.896 
L 84.946311 157.321127 
L 85.218393 157.036878 
L 85.876487 156.362137 
L 86.656304 155.54388 
L 87.114692 155.05392 
L 87.256653 154.904691 
L 87.567606 154.5696 
L 88.375524 153.681161 
L 88.454324 153.59532 
L 88.532569 153.508222 
L 88.649851 153.375359 
L 89.940567 151.928789 
L 90.53905 151.2432 
L 91.039177 150.657881 
L 91.326085 150.316385 
L 91.927139 149.612854 
L 92.530848 148.89108 
L 93.050567 148.257366 
L 93.330342 147.9168 
L 94.010187 147.070519 
L 94.11048 146.94252 
L 94.540453 146.397085 
L 95.402836 145.285787 
L 95.804694 144.772305 
L 95.94423 144.5904 
L 96.982499 143.206474 
L 97.689086 142.2503 
L 97.69392 142.243855 
L 97.698021 142.23828 
L 97.710459 142.221016 
L 98.40521 141.264 
L 98.547159 141.063584 
L 99.097556 140.28972 
L 99.549149 139.641186 
L 100.130675 138.790519 
L 100.38478 138.423926 
L 100.717168 137.9376 
L 101.369158 136.961629 
L 102.272233 135.58548 
L 102.50046 135.229936 
L 102.895658 134.6112 
L 103.15297 134.203051 
L 103.33993 133.897389 
L 103.33993 131.2848 
L 103.33993 127.9584 
L 103.33993 124.632 
L 103.33993 121.3056 
L 103.33993 117.9792 
L 103.33993 114.6528 
L 103.33993 111.3264 
L 103.33993 108 
L 103.33993 104.6736 
L 103.33993 101.3472 
L 103.33993 98.0208 
L 103.33993 94.6944 
L 103.33993 91.368 
L 103.33993 88.0416 
L 103.33993 84.7152 
L 103.33993 81.3888 
L 103.33993 78.0624 
L 103.33993 74.736 
L 103.33993 71.4096 
L 103.33993 68.0832 
L 103.33993 64.7568 
L 103.33993 61.4304 
L 103.33993 58.104 
L 103.33993 54.7776 
L 103.33993 51.4512 
L 103.33993 48.1248 
L 103.33993 44.7984 
L 103.33993 41.472 
L 101.816218 41.472 
L 100.292506 41.472 
" clip-path="url(#p3cfb0930f0)" style="fill: #53ffa4"/>
   </g>
   <g id="PathCollection_6">
    <path d="M 103.33993 133.897389 
L 103.15297 134.203051 
L 102.895658 134.6112 
L 102.50046 135.229936 
L 102.272233 135.58548 
L 101.369158 136.961629 
L 100.717168 137.9376 
L 100.38478 138.423926 
L 100.130675 138.790519 
L 99.549149 139.641186 
L 99.097556 140.28972 
L 98.547159 141.063584 
L 98.40521 141.264 
L 97.710459 142.221016 
L 97.698021 142.23828 
L 97.69392 142.243855 
L 97.689086 142.2503 
L 96.982499 143.206474 
L 95.94423 144.5904 
L 95.804694 144.772305 
L 95.402836 145.285787 
L 94.540453 146.397085 
L 94.11048 146.94252 
L 94.010187 147.070519 
L 93.330342 147.9168 
L 93.050567 148.257366 
L 92.530848 148.89108 
L 91.927139 149.612854 
L 91.326085 150.316385 
L 91.039177 150.657881 
L 90.53905 151.2432 
L 89.940567 151.928789 
L 88.649851 153.375359 
L 88.532569 153.508222 
L 88.454324 153.59532 
L 88.375524 153.681161 
L 87.567606 154.5696 
L 87.256653 154.904691 
L 87.114692 155.05392 
L 86.656304 155.54388 
L 85.876487 156.362137 
L 85.218393 157.036878 
L 84.946311 157.321127 
L 84.385588 157.896 
L 83.800738 158.483392 
L 82.823751 159.441459 
L 82.384083 159.878327 
L 82.004568 160.24812 
L 81.855882 160.393622 
L 80.987209 161.2224 
L 80.74019 161.453838 
L 79.94538 162.19668 
L 79.566316 162.544869 
L 79.294582 162.788238 
L 78.725288 163.308928 
L 77.503538 164.403161 
L 77.409339 164.488795 
L 77.341637 164.5488 
L 76.11534 165.614622 
L 75.633074 166.024733 
L 75.227114 166.377602 
L 74.609082 166.90092 
L 73.933896 167.463302 
L 73.794562 167.581017 
L 73.437284 167.8752 
L 72.332167 168.770594 
L 72.23436 168.84948 
L 70.78977 169.996081 
L 69.919528 170.667903 
L 69.743416 170.80711 
L 69.232469 171.2016 
L 68.536248 171.729242 
L 67.806787 172.266439 
L 67.076821 172.81425 
L 66.366107 173.334731 
L 66.260541 173.413969 
L 66.068922 173.55372 
L 65.010493 174.314018 
L 64.931168 174.371738 
L 64.710729 174.528 
L 63.674297 175.257273 
L 63.316903 175.50228 
L 63.281723 175.526472 
L 63.259114 175.541617 
L 61.645798 176.645171 
L 60.798808 177.207116 
L 60.581297 177.355309 
L 59.829189 177.8544 
L 59.307984 178.194311 
L 58.86973 178.471237 
L 57.868364 179.118223 
L 57.62857 179.263974 
L 57.62857 181.1808 
L 57.62857 184.5072 
L 57.62857 187.8336 
L 57.62857 191.16 
L 57.62857 194.4864 
L 57.62857 197.8128 
L 57.62857 201.1392 
L 57.62857 204.4656 
L 57.62857 207.792 
L 57.62857 209.28681 
L 57.998422 209.169113 
L 58.226375 209.097063 
L 59.220131 208.76628 
L 59.955999 208.518774 
L 60.353709 208.386177 
L 62.078876 207.792 
L 62.150024 207.767429 
L 62.166166 207.761672 
L 62.276296 207.722742 
L 63.937787 207.144453 
L 64.362269 206.991851 
L 64.85103 206.81772 
L 66.115835 206.362063 
L 66.433807 206.241921 
L 67.064598 206.013824 
L 67.694314 205.775977 
L 68.723561 205.402162 
L 69.711999 205.025672 
L 69.910782 204.953202 
L 71.191357 204.4656 
L 71.319322 204.416142 
L 71.374938 204.393645 
L 72.750301 203.857451 
L 73.000357 203.755842 
L 73.903109 203.40398 
L 75.099178 202.916095 
L 75.583019 202.725856 
L 76.298865 202.432516 
L 76.474002 202.363669 
L 77.08218 202.11348 
L 78.062642 201.705105 
L 79.401437 201.1392 
L 79.982428 200.891019 
L 80.135317 200.823673 
L 81.483417 200.235688 
L 81.646232 200.16492 
L 82.391512 199.834283 
L 82.662998 199.709198 
L 84.105714 199.065983 
L 84.886493 198.702939 
L 85.197832 198.563555 
L 86.515897 197.950772 
L 86.620698 197.903618 
L 86.814249 197.8128 
L 87.995797 197.248795 
L 88.232 197.131908 
L 89.120386 196.70786 
L 90.430995 196.056563 
L 90.784673 195.886134 
L 91.59234 195.482701 
L 91.604026 195.47707 
L 91.636699 195.46068 
L 92.989951 194.772153 
L 93.119685 194.706844 
L 93.544849 194.4864 
L 94.604399 193.933992 
L 94.921923 193.763488 
L 95.395187 193.51212 
L 96.520884 192.905411 
L 96.960592 192.659385 
L 97.47657 192.380044 
L 98.462672 191.828291 
L 98.952717 191.561521 
L 99.663248 191.16 
L 100.230525 190.833335 
L 100.37024 190.750303 
L 101.36589 190.176894 
L 102.605538 189.436843 
L 102.972476 189.223357 
L 103.33993 188.99414 
L 103.33993 187.8336 
L 103.33993 184.5072 
L 103.33993 181.1808 
L 103.33993 177.8544 
L 103.33993 174.528 
L 103.33993 171.2016 
L 103.33993 167.8752 
L 103.33993 164.5488 
L 103.33993 161.2224 
L 103.33993 157.896 
L 103.33993 154.5696 
L 103.33993 151.2432 
L 103.33993 147.9168 
L 103.33993 144.5904 
L 103.33993 141.264 
L 103.33993 137.9376 
L 103.33993 134.6112 
" clip-path="url(#p3cfb0930f0)" style="fill: #a4ff53"/>
   </g>
   <g id="PathCollection_7">
    <path d="M 103.33993 188.99414 
L 102.972476 189.223357 
L 102.605538 189.436843 
L 101.36589 190.176894 
L 100.37024 190.750303 
L 100.230525 190.833335 
L 99.663248 191.16 
L 98.952717 191.561521 
L 98.462672 191.828291 
L 97.47657 192.380044 
L 96.960592 192.659385 
L 96.520884 192.905411 
L 95.395187 193.51212 
L 94.921923 193.763488 
L 94.604399 193.933992 
L 93.544849 194.4864 
L 93.119685 194.706844 
L 92.989951 194.772153 
L 91.636699 195.46068 
L 91.604026 195.47707 
L 91.59234 195.482701 
L 90.784673 195.886134 
L 90.430995 196.056563 
L 89.120386 196.70786 
L 88.232 197.131908 
L 87.995797 197.248795 
L 86.814249 197.8128 
L 86.620698 197.903618 
L 86.515897 197.950772 
L 85.197832 198.563555 
L 84.886493 198.702939 
L 84.105714 199.065983 
L 82.662998 199.709198 
L 82.391512 199.834283 
L 81.646232 200.16492 
L 81.483417 200.235688 
L 80.135317 200.823673 
L 79.982428 200.891019 
L 79.401437 201.1392 
L 78.062642 201.705105 
L 77.08218 202.11348 
L 76.474002 202.363669 
L 76.298865 202.432516 
L 75.583019 202.725856 
L 75.099178 202.916095 
L 73.903109 203.40398 
L 73.000357 203.755842 
L 72.750301 203.857451 
L 71.374938 204.393645 
L 71.319322 204.416142 
L 71.191357 204.4656 
L 69.910782 204.953202 
L 69.711999 205.025672 
L 68.723561 205.402162 
L 67.694314 205.775977 
L 67.064598 206.013824 
L 66.433807 206.241921 
L 66.115835 206.362063 
L 64.85103 206.81772 
L 64.362269 206.991851 
L 63.937787 207.144453 
L 62.276296 207.722742 
L 62.166166 207.761672 
L 62.150024 207.767429 
L 62.078876 207.792 
L 60.353709 208.386177 
L 59.955999 208.518774 
L 59.220131 208.76628 
L 58.226375 209.097063 
L 57.998422 209.169113 
L 57.62857 209.28681 
L 57.62857 211.1184 
L 57.62857 214.4448 
L 57.62857 217.7712 
L 57.62857 221.0976 
L 57.62857 224.424 
L 57.62857 227.7504 
L 57.62857 231.0768 
L 57.62857 234.4032 
L 57.62857 235.066282 
L 57.915045 235.028603 
L 58.565605 234.933711 
L 59.580874 234.790761 
L 62.186257 234.409851 
L 62.193488 234.408823 
L 62.204241 234.407301 
L 62.232157 234.4032 
L 64.554041 234.060427 
L 64.822103 234.018863 
L 65.846518 233.861194 
L 66.886571 233.706869 
L 67.430711 233.622057 
L 68.679043 233.42892 
L 69.325816 233.328138 
L 69.393283 233.316647 
L 70.218778 233.187678 
L 70.388266 233.158839 
L 72.167955 232.879982 
L 72.535504 232.817026 
L 73.17676 232.716279 
L 73.677677 232.630559 
L 75.005298 232.421357 
L 75.680057 232.305112 
L 76.132603 232.233607 
L 76.973208 232.088918 
L 77.837684 231.951911 
L 78.827026 231.780463 
L 79.086233 231.739268 
L 80.275086 231.533424 
L 80.664944 231.471272 
L 81.9765 231.242619 
L 82.037571 231.232855 
L 82.933442 231.0768 
L 83.487002 230.979279 
L 83.584933 230.960531 
L 84.986151 230.711903 
L 85.129858 230.684297 
L 86.303946 230.476118 
L 86.907527 230.359809 
L 87.932051 230.176828 
L 88.286575 230.108274 
L 89.115132 229.960392 
L 90.237657 229.742637 
L 90.875339 229.627984 
L 91.446214 229.516849 
L 91.92036 229.431654 
L 93.575618 229.108369 
L 93.815919 229.064869 
L 94.608887 228.909437 
L 94.719414 228.889441 
L 95.557195 228.72468 
L 96.575221 228.522508 
L 97.654475 228.301496 
L 98.303674 228.170992 
L 99.065405 228.018615 
L 99.240747 227.983809 
L 100.365628 227.7504 
L 101.387007 227.53813 
L 101.543828 227.504088 
L 102.258937 227.350064 
L 103.07781 227.178169 
L 103.33993 227.116983 
L 103.33993 224.424 
L 103.33993 221.0976 
L 103.33993 217.7712 
L 103.33993 214.4448 
L 103.33993 211.1184 
L 103.33993 207.792 
L 103.33993 204.4656 
L 103.33993 201.1392 
L 103.33993 197.8128 
L 103.33993 194.4864 
L 103.33993 191.16 
" clip-path="url(#p3cfb0930f0)" style="fill: #f8f500"/>
   </g>
   <g id="PathCollection_8">
    <path d="M 103.33993 227.116983 
L 103.07781 227.178169 
L 102.258937 227.350064 
L 101.543828 227.504088 
L 101.387007 227.53813 
L 100.365628 227.7504 
L 99.240747 227.983809 
L 99.065405 228.018615 
L 98.303674 228.170992 
L 97.654475 228.301496 
L 96.575221 228.522508 
L 95.557195 228.72468 
L 94.719414 228.889441 
L 94.608887 228.909437 
L 93.815919 229.064869 
L 93.575618 229.108369 
L 91.92036 229.431654 
L 91.446214 229.516849 
L 90.875339 229.627984 
L 90.237657 229.742637 
L 89.115132 229.960392 
L 88.286575 230.108274 
L 87.932051 230.176828 
L 86.907527 230.359809 
L 86.303946 230.476118 
L 85.129858 230.684297 
L 84.986151 230.711903 
L 83.584933 230.960531 
L 83.487002 230.979279 
L 82.933442 231.0768 
L 82.037571 231.232855 
L 81.9765 231.242619 
L 80.664944 231.471272 
L 80.275086 231.533424 
L 79.086233 231.739268 
L 78.827026 231.780463 
L 77.837684 231.951911 
L 76.973208 232.088918 
L 76.132603 232.233607 
L 75.680057 232.305112 
L 75.005298 232.421357 
L 73.677677 232.630559 
L 73.17676 232.716279 
L 72.535504 232.817026 
L 72.167955 232.879982 
L 70.388266 233.158839 
L 70.218778 233.187678 
L 69.393283 233.316647 
L 69.325816 233.328138 
L 68.679043 233.42892 
L 67.430711 233.622057 
L 66.886571 233.706869 
L 65.846518 233.861194 
L 64.822103 234.018863 
L 64.554041 234.060427 
L 62.232157 234.4032 
L 62.204241 234.407301 
L 62.193488 234.408823 
L 62.186257 234.409851 
L 59.580874 234.790761 
L 58.565605 234.933711 
L 57.915045 235.028603 
L 57.62857 235.066282 
L 57.62857 237.7296 
L 57.62857 241.056 
L 57.62857 244.3824 
L 57.62857 247.7088 
L 57.62857 251.0352 
L 57.62857 254.3616 
L 57.62857 257.688 
L 57.62857 258.854764 
L 57.849493 258.852366 
L 58.626476 258.835881 
L 59.673057 258.8249 
L 60.463441 258.808248 
L 60.887722 258.803903 
L 61.696252 258.787085 
L 62.698572 258.777071 
L 63.519999 258.760107 
L 63.926086 258.756152 
L 64.765684 258.739039 
L 65.724409 258.729944 
L 66.576417 258.712705 
L 66.964586 258.709121 
L 67.83477 258.691748 
L 68.75057 258.683526 
L 69.632693 258.666048 
L 70.003225 258.662816 
L 70.903507 258.64522 
L 71.77706 258.637824 
L 72.688827 258.620143 
L 73.042002 258.617244 
L 73.971892 258.599461 
L 74.803881 258.592846 
L 75.744817 258.574998 
L 76.08092 258.572413 
L 77.039921 258.554479 
L 77.831038 258.548601 
L 78.800661 258.53062 
L 79.11998 258.528331 
L 80.10759 258.510282 
L 80.858534 258.505096 
L 81.856358 258.487018 
L 82.159184 258.485007 
L 83.174895 258.466879 
L 83.886373 258.462341 
L 84.911906 258.444202 
L 85.198533 258.442451 
L 86.241833 258.424278 
L 86.914561 258.420347 
L 87.967303 258.402181 
L 88.23803 258.400672 
L 89.308399 258.382491 
L 89.943102 258.379123 
L 91.022547 258.360966 
L 91.277677 258.359681 
L 92.374587 258.341526 
L 92.972001 258.338682 
L 94.077636 258.320567 
L 94.317475 258.319491 
L 95.440393 258.301397 
L 96.001264 258.299034 
L 97.132568 258.280997 
L 97.357427 258.280112 
L 98.505811 258.262114 
L 99.030896 258.260194 
L 100.18734 258.242268 
L 100.397536 258.241558 
L 101.570836 258.22369 
L 102.060905 258.222174 
L 103.24195 258.204394 
L 103.33993 258.203466 
L 103.33993 257.688 
L 103.33993 254.3616 
L 103.33993 251.0352 
L 103.33993 247.7088 
L 103.33993 244.3824 
L 103.33993 241.056 
L 103.33993 237.7296 
L 103.33993 234.4032 
L 103.33993 231.0768 
L 103.33993 227.7504 
" clip-path="url(#p3cfb0930f0)" style="fill: #ff9400"/>
   </g>
   <g id="PathCollection_9">
    <path d="M 103.33993 258.203466 
L 103.24195 258.204394 
L 102.060905 258.222174 
L 101.570836 258.22369 
L 100.397536 258.241558 
L 100.18734 258.242268 
L 99.030896 258.260194 
L 98.505811 258.262114 
L 97.357427 258.280112 
L 97.132568 258.280997 
L 96.001264 258.299034 
L 95.440393 258.301397 
L 94.317475 258.319491 
L 94.077636 258.320567 
L 92.972001 258.338682 
L 92.374587 258.341526 
L 91.277677 258.359681 
L 91.022547 258.360966 
L 89.943102 258.379123 
L 89.308399 258.382491 
L 88.23803 258.400672 
L 87.967303 258.402181 
L 86.914561 258.420347 
L 86.241833 258.424278 
L 85.198533 258.442451 
L 84.911906 258.444202 
L 83.886373 258.462341 
L 83.174895 258.466879 
L 82.159184 258.485007 
L 81.856358 258.487018 
L 80.858534 258.505096 
L 80.10759 258.510282 
L 79.11998 258.528331 
L 78.800661 258.53062 
L 77.831038 258.548601 
L 77.039921 258.554479 
L 76.08092 258.572413 
L 75.744817 258.574998 
L 74.803881 258.592846 
L 73.971892 258.599461 
L 73.042002 258.617244 
L 72.688827 258.620143 
L 71.77706 258.637824 
L 70.903507 258.64522 
L 70.003225 258.662816 
L 69.632693 258.666048 
L 68.75057 258.683526 
L 67.83477 258.691748 
L 66.964586 258.709121 
L 66.576417 258.712705 
L 65.724409 258.729944 
L 64.765684 258.739039 
L 63.926086 258.756152 
L 63.519999 258.760107 
L 62.698572 258.777071 
L 61.696252 258.787085 
L 60.887722 258.803903 
L 60.463441 258.808248 
L 59.673057 258.8249 
L 58.626476 258.835881 
L 57.849493 258.852366 
L 57.62857 258.854764 
L 57.62857 261.0144 
L 57.62857 264.3408 
L 57.62857 267.6672 
L 57.62857 270.9936 
L 57.62857 274.32 
L 57.62857 277.6464 
L 57.62857 280.9728 
L 57.62857 282.701418 
L 57.928268 282.719654 
L 58.447967 282.761619 
L 59.810162 282.862988 
L 60.412813 282.912121 
L 60.931788 282.951049 
L 61.607552 283.006475 
L 62.75222 283.093011 
L 63.506409 283.155466 
L 63.934241 283.188067 
L 64.77005 283.257693 
L 65.691784 283.328479 
L 66.601172 283.404967 
L 66.935599 283.430853 
L 67.935546 283.515454 
L 68.62879 283.569533 
L 69.697136 283.660794 
L 69.935834 283.679561 
L 71.104124 283.779945 
L 71.56317 283.816317 
L 72.794334 283.923126 
L 72.934915 283.934352 
L 74.275876 284.051363 
L 74.494855 284.068986 
L 75.892802 284.192151 
L 75.932809 284.195395 
L 77.104249 284.2992 
L 77.423737 284.327774 
L 77.451128 284.330422 
L 78.929297 284.463851 
L 78.992955 284.470052 
L 80.349582 284.593191 
L 80.631596 284.620869 
L 81.924456 284.739312 
L 82.09466 284.756141 
L 83.272657 284.864657 
L 83.815458 284.918727 
L 84.918381 285.021275 
L 85.197709 285.049307 
L 86.192881 285.142345 
L 87.002825 285.224234 
L 87.911035 285.309938 
L 88.302143 285.349774 
L 89.11017 285.426441 
L 90.193811 285.537643 
L 90.902379 285.605505 
L 91.408006 285.657777 
L 92.024437 285.717136 
L 93.388537 285.859218 
L 93.892372 285.908193 
L 94.515347 285.973563 
L 94.935587 286.014634 
L 96.587133 286.18924 
L 96.88097 286.21823 
L 97.624214 286.297394 
L 97.843523 286.319148 
L 99.789735 286.528006 
L 99.868129 286.535856 
L 100.734659 286.629544 
L 100.748144 286.630901 
L 100.93558 286.65132 
L 102.682431 286.842313 
L 102.997432 286.877897 
L 103.33993 286.917414 
L 103.33993 284.2992 
L 103.33993 280.9728 
L 103.33993 277.6464 
L 103.33993 274.32 
L 103.33993 270.9936 
L 103.33993 267.6672 
L 103.33993 264.3408 
L 103.33993 261.0144 
" clip-path="url(#p3cfb0930f0)" style="fill: #ff3800"/>
   </g>
   <g id="PathCollection_10">
    <path d="M 103.33993 286.917414 
L 102.997432 286.877897 
L 102.682431 286.842313 
L 100.93558 286.65132 
L 100.748144 286.630901 
L 100.734659 286.629544 
L 99.868129 286.535856 
L 99.789735 286.528006 
L 97.843523 286.319148 
L 97.624214 286.297394 
L 96.88097 286.21823 
L 96.587133 286.18924 
L 94.935587 286.014634 
L 94.515347 285.973563 
L 93.892372 285.908193 
L 93.388537 285.859218 
L 92.024437 285.717136 
L 91.408006 285.657777 
L 90.902379 285.605505 
L 90.193811 285.537643 
L 89.11017 285.426441 
L 88.302143 285.349774 
L 87.911035 285.309938 
L 87.002825 285.224234 
L 86.192881 285.142345 
L 85.197709 285.049307 
L 84.918381 285.021275 
L 83.815458 284.918727 
L 83.272657 284.864657 
L 82.09466 284.756141 
L 81.924456 284.739312 
L 80.631596 284.620869 
L 80.349582 284.593191 
L 78.992955 284.470052 
L 78.929297 284.463851 
L 77.451128 284.330422 
L 77.423737 284.327774 
L 77.104249 284.2992 
L 75.932809 284.195395 
L 75.892802 284.192151 
L 74.494855 284.068986 
L 74.275876 284.051363 
L 72.934915 283.934352 
L 72.794334 283.923126 
L 71.56317 283.816317 
L 71.104124 283.779945 
L 69.935834 283.679561 
L 69.697136 283.660794 
L 68.62879 283.569533 
L 67.935546 283.515454 
L 66.935599 283.430853 
L 66.601172 283.404967 
L 65.691784 283.328479 
L 64.77005 283.257693 
L 63.934241 283.188067 
L 63.506409 283.155466 
L 62.75222 283.093011 
L 61.607552 283.006475 
L 60.931788 282.951049 
L 60.412813 282.912121 
L 59.810162 282.862988 
L 58.447967 282.761619 
L 57.928268 282.719654 
L 57.62857 282.701418 
L 57.62857 284.2992 
L 57.62857 287.6256 
L 57.62857 290.952 
L 57.62857 294.2784 
L 57.62857 297.6048 
L 57.62857 300.9312 
L 57.62857 304.2576 
L 57.62857 307.584 
L 59.152282 307.584 
L 60.675994 307.584 
L 62.199706 307.584 
L 63.723418 307.584 
L 65.24713 307.584 
L 66.770842 307.584 
L 68.294554 307.584 
L 69.818266 307.584 
L 71.341978 307.584 
L 72.86569 307.584 
L 74.389402 307.584 
L 75.913114 307.584 
L 77.436826 307.584 
L 78.960538 307.584 
L 80.48425 307.584 
L 82.007962 307.584 
L 83.531674 307.584 
L 85.055386 307.584 
L 86.579098 307.584 
L 88.10281 307.584 
L 89.626522 307.584 
L 91.150234 307.584 
L 92.673946 307.584 
L 94.197658 307.584 
L 95.72137 307.584 
L 97.245082 307.584 
L 98.768794 307.584 
L 100.292506 307.584 
L 101.816218 307.584 
L 103.33993 307.584 
L 103.33993 304.2576 
L 103.33993 300.9312 
L 103.33993 297.6048 
L 103.33993 294.2784 
L 103.33993 290.952 
L 103.33993 287.6256 
" clip-path="url(#p3cfb0930f0)" style="fill: #b60000"/>
   </g>
   <g id="PathCollection_11">
    <path clip-path="url(#p3cfb0930f0)" style="fill: #0000b6"/>
   </g>
   <g id="PathCollection_12">
    <path clip-path="url(#p3cfb0930f0)" style="fill: #0018ff"/>
   </g>
   <g id="PathCollection_13">
    <path clip-path="url(#p3cfb0930f0)" style="fill: #0080ff"/>
   </g>
   <g id="PathCollection_14">
    <path clip-path="url(#p3cfb0930f0)" style="fill: #00e4f8"/>
   </g>
   <g id="PathCollection_15">
    <path d="M 100.4544 138.297017 
L 101.128263 137.263657 
L 103.563229 133.582733 
L 104.077343 132.77408 
L 104.506523 132.010958 
L 105.647378 130.176 
L 106.251305 129.133008 
L 107.184481 127.57792 
L 109.783877 122.658678 
L 110.478712 121.3056 
L 112.548069 116.923449 
L 113.483744 115.03328 
L 113.61145 114.733021 
L 114.795827 112.4352 
L 115.638169 110.176034 
L 115.747978 109.83712 
L 117.434095 105.655463 
L 118.272429 103.5648 
L 120.120833 98.504577 
L 120.562831 97.29248 
L 120.804394 96.480141 
L 121.149265 95.58544 
L 121.524777 94.6944 
L 121.731531 93.947907 
L 121.864431 93.389816 
L 122.326848 92.09632 
L 123.878234 86.766767 
L 124.178546 85.824 
L 124.312658 85.357286 
L 126.012157 79.55168 
L 126.428003 77.720448 
L 126.680878 76.9536 
L 126.765842 76.450329 
L 126.855491 75.992713 
L 127.335413 74.35552 
L 127.960775 71.614185 
L 128.797058 68.0832 
L 130.009045 62.307669 
L 130.127429 61.81088 
L 130.151912 61.669951 
L 130.840769 59.2128 
L 131.156562 56.787047 
L 131.174866 56.61472 
L 131.856447 52.926667 
L 132.353509 50.3424 
L 132.501039 49.463437 
L 133.442946 44.07008 
L 133.702414 42.42442 
L 133.873803 41.472 
L 132.83328 41.472 
L 124.73856 41.472 
L 116.64384 41.472 
L 108.54912 41.472 
L 100.4544 41.472 
L 100.4544 50.3424 
L 100.4544 59.2128 
L 100.4544 68.0832 
L 100.4544 76.9536 
L 100.4544 85.824 
L 100.4544 94.6944 
L 100.4544 103.5648 
L 100.4544 112.4352 
L 100.4544 121.3056 
L 100.4544 130.176 
" clip-path="url(#p3cfb0930f0)" style="fill: #53ffa4"/>
   </g>
   <g id="PathCollection_16">
    <path d="M 133.873803 41.472 
L 133.702414 42.42442 
L 133.442946 44.07008 
L 132.501039 49.463437 
L 132.353509 50.3424 
L 131.856447 52.926667 
L 131.174866 56.61472 
L 131.156562 56.787047 
L 130.840769 59.2128 
L 130.151912 61.669951 
L 130.127429 61.81088 
L 130.009045 62.307669 
L 128.797058 68.0832 
L 127.960775 71.614185 
L 127.335413 74.35552 
L 126.855491 75.992713 
L 126.765842 76.450329 
L 126.680878 76.9536 
L 126.428003 77.720448 
L 126.012157 79.55168 
L 124.312658 85.357286 
L 124.178546 85.824 
L 123.878234 86.766767 
L 122.326848 92.09632 
L 121.864431 93.389816 
L 121.731531 93.947907 
L 121.524777 94.6944 
L 121.149265 95.58544 
L 120.804394 96.480141 
L 120.562831 97.29248 
L 120.120833 98.504577 
L 118.272429 103.5648 
L 117.434095 105.655463 
L 115.747978 109.83712 
L 115.638169 110.176034 
L 114.795827 112.4352 
L 113.61145 114.733021 
L 113.483744 115.03328 
L 112.548069 116.923449 
L 110.478712 121.3056 
L 109.783877 122.658678 
L 107.184481 127.57792 
L 106.251305 129.133008 
L 105.647378 130.176 
L 104.506523 132.010958 
L 104.077343 132.77408 
L 103.563229 133.582733 
L 101.128263 137.263657 
L 100.4544 138.297017 
L 100.4544 139.0464 
L 100.4544 147.9168 
L 100.4544 156.7872 
L 100.4544 165.6576 
L 100.4544 174.528 
L 100.4544 183.3984 
L 100.4544 190.660697 
L 101.239245 190.192447 
L 104.795264 188.155229 
L 108.20484 185.99648 
L 110.644909 184.349691 
L 112.076617 183.3984 
L 115.279267 181.050137 
L 115.580234 180.80032 
L 118.239443 178.749259 
L 123.381125 174.528 
L 124.135567 173.867225 
L 130.08155 168.25568 
L 130.198242 168.135781 
L 131.17192 167.254677 
L 132.747751 165.6576 
L 134.225613 163.993737 
L 134.955479 163.05952 
L 135.12862 162.859651 
L 140.171372 156.7872 
L 140.517761 156.337649 
L 144.770663 150.51488 
L 145.200302 149.856023 
L 145.773407 149.119669 
L 146.609146 147.9168 
L 147.94125 145.638817 
L 148.104411 145.31872 
L 150.111103 141.925779 
L 151.770891 139.0464 
L 153.732235 135.336807 
L 155.0438 132.77408 
L 155.952224 130.704898 
L 156.237931 130.176 
L 156.372665 129.837942 
L 157.469936 127.57792 
L 159.147348 123.530025 
L 160.051704 121.3056 
L 162.035598 115.916157 
L 162.384266 115.03328 
L 162.443093 114.852545 
L 162.88503 113.867 
L 163.458987 112.4352 
L 164.086567 110.146264 
L 164.158449 109.83712 
L 165.706596 104.872858 
L 166.11567 103.5648 
L 167.802189 97.53262 
L 167.870338 97.29248 
L 167.901685 97.147849 
L 168.706689 94.6944 
L 168.919642 93.605271 
L 169.05644 92.765101 
L 169.245533 92.09632 
L 169.762494 89.708028 
L 170.717188 85.824 
L 171.214222 83.530812 
L 172.113579 79.55168 
L 172.468952 77.33394 
L 172.573376 76.9536 
L 172.612873 76.638586 
L 173.141295 74.35552 
L 174.048645 68.896045 
L 174.193573 68.0832 
L 174.37238 66.915598 
L 175.304864 61.81088 
L 175.493744 60.20543 
L 175.720508 59.2128 
L 175.804703 58.079024 
L 176.087161 56.61472 
L 176.449802 53.786494 
L 176.94325 50.3424 
L 177.495194 45.752739 
L 177.747077 44.07008 
L 177.794799 43.509092 
L 178.073138 41.472 
L 173.30688 41.472 
L 165.21216 41.472 
L 157.11744 41.472 
L 149.02272 41.472 
L 140.928 41.472 
" clip-path="url(#p3cfb0930f0)" style="fill: #a4ff53"/>
   </g>
   <g id="PathCollection_17">
    <path d="M 178.073138 41.472 
L 177.794799 43.509092 
L 177.747077 44.07008 
L 177.495194 45.752739 
L 176.94325 50.3424 
L 176.449802 53.786494 
L 176.087161 56.61472 
L 175.804703 58.079024 
L 175.720508 59.2128 
L 175.493744 60.20543 
L 175.304864 61.81088 
L 174.37238 66.915598 
L 174.193573 68.0832 
L 174.048645 68.896045 
L 173.141295 74.35552 
L 172.612873 76.638586 
L 172.573376 76.9536 
L 172.468952 77.33394 
L 172.113579 79.55168 
L 171.214222 83.530812 
L 170.717188 85.824 
L 169.762494 89.708028 
L 169.245533 92.09632 
L 169.05644 92.765101 
L 168.919642 93.605271 
L 168.706689 94.6944 
L 167.901685 97.147849 
L 167.870338 97.29248 
L 167.802189 97.53262 
L 166.11567 103.5648 
L 165.706596 104.872858 
L 164.158449 109.83712 
L 164.086567 110.146264 
L 163.458987 112.4352 
L 162.88503 113.867 
L 162.443093 114.852545 
L 162.384266 115.03328 
L 162.035598 115.916157 
L 160.051704 121.3056 
L 159.147348 123.530025 
L 157.469936 127.57792 
L 156.372665 129.837942 
L 156.237931 130.176 
L 155.952224 130.704898 
L 155.0438 132.77408 
L 153.732235 135.336807 
L 151.770891 139.0464 
L 150.111103 141.925779 
L 148.104411 145.31872 
L 147.94125 145.638817 
L 146.609146 147.9168 
L 145.773407 149.119669 
L 145.200302 149.856023 
L 144.770663 150.51488 
L 140.517761 156.337649 
L 140.171372 156.7872 
L 135.12862 162.859651 
L 134.955479 163.05952 
L 134.225613 163.993737 
L 132.747751 165.6576 
L 131.17192 167.254677 
L 130.198242 168.135781 
L 130.08155 168.25568 
L 124.135567 173.867225 
L 123.381125 174.528 
L 118.239443 178.749259 
L 115.580234 180.80032 
L 115.279267 181.050137 
L 112.076617 183.3984 
L 110.644909 184.349691 
L 108.20484 185.99648 
L 104.795264 188.155229 
L 101.239245 190.192447 
L 100.4544 190.660697 
L 100.4544 192.2688 
L 100.4544 201.1392 
L 100.4544 210.0096 
L 100.4544 218.88 
L 100.4544 227.730438 
L 100.462676 227.728505 
L 107.223321 226.297555 
L 110.693477 225.400559 
L 115.364723 224.366423 
L 118.207611 223.613356 
L 120.500333 223.106043 
L 126.518658 221.47808 
L 128.950904 220.792007 
L 130.63214 220.343077 
L 135.386503 218.88 
L 138.620869 217.83278 
L 143.195975 216.28192 
L 145.804329 215.353205 
L 147.226072 214.762734 
L 150.382839 213.607872 
L 155.95061 211.288242 
L 157.684432 210.630924 
L 159.088783 210.0096 
L 164.287342 207.562943 
L 166.59585 206.348969 
L 168.949329 205.234485 
L 171.710618 203.73728 
L 174.926464 201.874339 
L 175.352459 201.647014 
L 176.183179 201.1392 
L 179.900285 198.756991 
L 180.191525 198.54112 
L 183.031377 196.580468 
L 188.773452 192.2688 
L 189.189472 191.932548 
L 192.478189 189.001192 
L 195.391911 186.45088 
L 195.874704 185.99648 
L 196.78695 185.208294 
L 198.621227 183.3984 
L 200.625104 181.101339 
L 200.900791 180.80032 
L 205.89878 174.761433 
L 206.076987 174.528 
L 207.356523 172.697136 
L 210.527442 168.25568 
L 210.724136 167.944548 
L 212.317679 165.6576 
L 213.475453 163.572369 
L 213.71683 163.05952 
L 215.165438 160.451184 
L 217.131152 156.7872 
L 218.780226 153.395648 
L 220.118575 150.51488 
L 220.975531 148.325165 
L 221.178284 147.9168 
L 221.275077 147.644401 
L 222.291061 145.31872 
L 223.809334 141.165873 
L 224.562068 139.0464 
L 225.989883 134.537426 
L 226.601325 132.77408 
L 226.71291 132.371864 
L 227.521649 130.176 
L 228.075658 127.696242 
L 228.097045 127.57792 
L 229.207769 123.321912 
L 229.744982 121.3056 
L 229.831003 120.938086 
L 231.222479 115.03328 
L 231.476141 114.07079 
L 231.960819 112.4352 
L 232.178115 110.973874 
L 232.310532 109.83712 
L 232.320863 109.784352 
L 233.561748 103.5648 
L 234.27416 99.411096 
L 234.657153 97.29248 
L 234.786014 96.182587 
L 234.941784 95.469647 
L 235.131705 94.6944 
L 235.198967 93.982999 
L 235.238896 93.411778 
L 235.48645 92.09632 
L 235.981101 88.107195 
L 236.334181 85.824 
L 236.549544 84.163719 
L 237.209113 79.55168 
L 237.390017 77.259815 
L 237.450441 76.9536 
L 237.458633 76.803159 
L 237.462977 76.680502 
L 237.823564 74.35552 
L 238.366153 68.413606 
L 238.401447 68.0832 
L 238.436098 67.676147 
L 239.110671 61.81088 
L 239.216848 59.735794 
L 239.25652 59.508683 
L 239.302863 59.2128 
L 239.303773 58.905186 
L 239.307946 58.648456 
L 239.573441 56.61472 
L 239.861246 52.311166 
L 240.028152 50.3424 
L 240.177594 48.026971 
L 240.549499 44.07008 
L 240.593218 42.619736 
L 240.690244 41.472 
L 238.06464 41.472 
L 229.96992 41.472 
L 221.8752 41.472 
L 213.78048 41.472 
L 205.68576 41.472 
L 197.59104 41.472 
L 189.49632 41.472 
L 181.4016 41.472 
" clip-path="url(#p3cfb0930f0)" style="fill: #f8f500"/>
   </g>
   <g id="PathCollection_18">
    <path d="M 240.690244 41.472 
L 240.593218 42.619736 
L 240.549499 44.07008 
L 240.177594 48.026971 
L 240.028152 50.3424 
L 239.861246 52.311166 
L 239.573441 56.61472 
L 239.307946 58.648456 
L 239.303773 58.905186 
L 239.302863 59.2128 
L 239.25652 59.508683 
L 239.216848 59.735794 
L 239.110671 61.81088 
L 238.436098 67.676147 
L 238.401447 68.0832 
L 238.366153 68.413606 
L 237.823564 74.35552 
L 237.462977 76.680502 
L 237.458633 76.803159 
L 237.450441 76.9536 
L 237.390017 77.259815 
L 237.209113 79.55168 
L 236.549544 84.163719 
L 236.334181 85.824 
L 235.981101 88.107195 
L 235.48645 92.09632 
L 235.238896 93.411778 
L 235.198967 93.982999 
L 235.131705 94.6944 
L 234.941784 95.469647 
L 234.786014 96.182587 
L 234.657153 97.29248 
L 234.27416 99.411096 
L 233.561748 103.5648 
L 232.320863 109.784352 
L 232.310532 109.83712 
L 232.178115 110.973874 
L 231.960819 112.4352 
L 231.476141 114.07079 
L 231.222479 115.03328 
L 229.831003 120.938086 
L 229.744982 121.3056 
L 229.207769 123.321912 
L 228.097045 127.57792 
L 228.075658 127.696242 
L 227.521649 130.176 
L 226.71291 132.371864 
L 226.601325 132.77408 
L 225.989883 134.537426 
L 224.562068 139.0464 
L 223.809334 141.165873 
L 222.291061 145.31872 
L 221.275077 147.644401 
L 221.178284 147.9168 
L 220.975531 148.325165 
L 220.118575 150.51488 
L 218.780226 153.395648 
L 217.131152 156.7872 
L 215.165438 160.451184 
L 213.71683 163.05952 
L 213.475453 163.572369 
L 212.317679 165.6576 
L 210.724136 167.944548 
L 210.527442 168.25568 
L 207.356523 172.697136 
L 206.076987 174.528 
L 205.89878 174.761433 
L 200.900791 180.80032 
L 200.625104 181.101339 
L 198.621227 183.3984 
L 196.78695 185.208294 
L 195.874704 185.99648 
L 195.391911 186.45088 
L 192.478189 189.001192 
L 189.189472 191.932548 
L 188.773452 192.2688 
L 183.031377 196.580468 
L 180.191525 198.54112 
L 179.900285 198.756991 
L 176.183179 201.1392 
L 175.352459 201.647014 
L 174.926464 201.874339 
L 171.710618 203.73728 
L 168.949329 205.234485 
L 166.59585 206.348969 
L 164.287342 207.562943 
L 159.088783 210.0096 
L 157.684432 210.630924 
L 155.95061 211.288242 
L 150.382839 213.607872 
L 147.226072 214.762734 
L 145.804329 215.353205 
L 143.195975 216.28192 
L 138.620869 217.83278 
L 135.386503 218.88 
L 130.63214 220.343077 
L 128.950904 220.792007 
L 126.518658 221.47808 
L 120.500333 223.106043 
L 118.207611 223.613356 
L 115.364723 224.366423 
L 110.693477 225.400559 
L 107.223321 226.297555 
L 100.462676 227.728505 
L 100.4544 227.730438 
L 100.4544 227.7504 
L 100.4544 236.6208 
L 100.4544 245.4912 
L 100.4544 254.3616 
L 100.4544 258.216557 
L 102.357338 258.197671 
L 103.974715 258.219251 
L 113.275793 258.052391 
L 114.694351 258.074518 
L 118.61827 258.008533 
L 119.9937 258.032462 
L 129.621022 257.881674 
L 130.819932 257.905573 
L 134.868795 257.84693 
L 136.037125 257.872455 
L 145.938755 257.741087 
L 146.956718 257.766275 
L 151.107567 257.716419 
L 152.108669 257.743262 
L 162.225033 257.63497 
L 163.10658 257.661569 
L 167.332658 257.622102 
L 168.213638 257.650695 
L 178.474147 257.569577 
L 179.272238 257.598652 
L 183.541268 257.571388 
L 184.359842 257.603317 
L 194.677749 257.554059 
L 195.457739 257.58823 
L 199.729245 257.575258 
L 200.559115 257.614092 
L 210.823335 257.602115 
L 211.669295 257.646741 
L 215.890252 257.650478 
L 216.830062 257.70341 
L 226.89157 257.734935 
L 227.916851 257.800491 
L 232.014231 257.823659 
L 233.203444 257.904978 
L 242.85121 257.986755 
L 244.217234 258.093996 
L 248.084346 258.139342 
L 249.73363 258.278376 
L 258.648707 258.416256 
L 260.601146 258.608483 
L 264.070333 258.677588 
L 266.52605 258.939137 
L 274.184597 259.132433 
L 277.130884 259.50876 
L 279.912092 259.597398 
L 283.814556 260.143521 
L 289.251758 260.362254 
L 293.954511 261.186537 
L 295.471384 261.264489 
L 302.240649 262.594502 
L 303.337348 262.667707 
L 305.453005 263.232 
L 310.454786 264.455132 
L 311.574444 264.970989 
L 316.210556 266.301718 
L 321.384514 269.50432 
L 322.855713 270.357644 
L 324.780144 272.1024 
L 326.343012 273.922358 
L 327.35299 274.70048 
L 328.859362 276.335662 
L 331.54571 280.9728 
L 333.046898 283.333626 
L 334.175118 287.24512 
L 334.95307 289.730536 
L 334.969905 289.785761 
L 335.006425 289.8432 
L 335.042896 289.915091 
L 335.707584 292.44128 
L 336.961247 296.784983 
L 337.092028 298.7136 
L 337.26707 300.977345 
L 338.114494 304.98592 
L 338.391098 306.136123 
L 338.475803 307.584 
L 343.296 307.584 
L 343.296 298.7136 
L 343.296 289.8432 
L 343.296 280.9728 
L 343.296 272.1024 
L 343.296 263.232 
L 343.296 254.3616 
L 343.296 245.4912 
L 343.296 236.6208 
L 343.296 227.7504 
L 343.296 218.88 
L 343.296 210.0096 
L 343.296 201.1392 
L 343.296 192.2688 
L 343.296 183.3984 
L 343.296 174.528 
L 343.296 165.6576 
L 343.296 156.7872 
L 343.296 147.9168 
L 343.296 139.0464 
L 343.296 130.176 
L 343.296 121.3056 
L 343.296 112.4352 
L 343.296 103.5648 
L 343.296 94.6944 
L 343.296 85.824 
L 343.296 76.9536 
L 343.296 68.0832 
L 343.296 59.2128 
L 343.296 50.3424 
L 343.296 41.472 
L 335.20128 41.472 
L 327.10656 41.472 
L 319.01184 41.472 
L 310.91712 41.472 
L 302.8224 41.472 
L 294.72768 41.472 
L 286.63296 41.472 
L 278.53824 41.472 
L 270.44352 41.472 
L 262.3488 41.472 
L 254.25408 41.472 
L 246.15936 41.472 
" clip-path="url(#p3cfb0930f0)" style="fill: #ff9400"/>
   </g>
   <g id="PathCollection_19">
    <path d="M 338.475803 307.584 
L 338.391098 306.136123 
L 338.114494 304.98592 
L 337.26707 300.977345 
L 337.092028 298.7136 
L 336.961247 296.784983 
L 335.707584 292.44128 
L 335.042896 289.915091 
L 335.006425 289.8432 
L 334.969905 289.785761 
L 334.95307 289.730536 
L 334.175118 287.24512 
L 333.046898 283.333626 
L 331.54571 280.9728 
L 328.859362 276.335662 
L 327.35299 274.70048 
L 326.343012 273.922358 
L 324.780144 272.1024 
L 322.855713 270.357644 
L 321.384514 269.50432 
L 316.210556 266.301718 
L 311.574444 264.970989 
L 310.454786 264.455132 
L 305.453005 263.232 
L 303.337348 262.667707 
L 302.240649 262.594502 
L 295.471384 261.264489 
L 293.954511 261.186537 
L 289.251758 260.362254 
L 283.814556 260.143521 
L 279.912092 259.597398 
L 277.130884 259.50876 
L 274.184597 259.132433 
L 266.52605 258.939137 
L 264.070333 258.677588 
L 260.601146 258.608483 
L 258.648707 258.416256 
L 249.73363 258.278376 
L 248.084346 258.139342 
L 244.217234 258.093996 
L 242.85121 257.986755 
L 233.203444 257.904978 
L 232.014231 257.823659 
L 227.916851 257.800491 
L 226.89157 257.734935 
L 216.830062 257.70341 
L 215.890252 257.650478 
L 211.669295 257.646741 
L 210.823335 257.602115 
L 200.559115 257.614092 
L 199.729245 257.575258 
L 195.457739 257.58823 
L 194.677749 257.554059 
L 184.359842 257.603317 
L 183.541268 257.571388 
L 179.272238 257.598652 
L 178.474147 257.569577 
L 168.213638 257.650695 
L 167.332658 257.622102 
L 163.10658 257.661569 
L 162.225033 257.63497 
L 152.108669 257.743262 
L 151.107567 257.716419 
L 146.956718 257.766275 
L 145.938755 257.741087 
L 136.037125 257.872455 
L 134.868795 257.84693 
L 130.819932 257.905573 
L 129.621022 257.881674 
L 119.9937 258.032462 
L 118.61827 258.008533 
L 114.694351 258.074518 
L 113.275793 258.052391 
L 103.974715 258.219251 
L 102.357338 258.197671 
L 100.4544 258.216557 
L 100.4544 263.232 
L 100.4544 272.1024 
L 100.4544 280.9728 
L 100.4544 286.620206 
L 102.674868 286.847174 
L 103.149531 286.889807 
L 106.254392 287.24512 
L 112.650706 287.981466 
L 114.960696 288.251531 
L 123.742148 289.390923 
L 125.306205 289.585543 
L 125.617981 289.624884 
L 127.168996 289.8432 
L 137.680686 291.317174 
L 144.942793 292.44128 
L 146.440201 292.67319 
L 146.761372 292.731076 
L 151.024479 293.417833 
L 152.542213 293.699949 
L 160.478706 295.03024 
L 164.088226 295.740169 
L 166.196738 296.108844 
L 172.006987 297.289144 
L 174.235561 297.695928 
L 178.944993 298.7136 
L 181.218211 299.198766 
L 181.621914 299.296454 
L 187.735473 300.643181 
L 192.32334 301.811521 
L 196.086654 302.693538 
L 199.434727 303.591178 
L 200.908474 303.948672 
L 204.564194 304.98592 
L 208.809221 306.166243 
L 213.495208 307.584 
L 213.78048 307.584 
L 221.8752 307.584 
L 229.96992 307.584 
L 238.06464 307.584 
L 246.15936 307.584 
L 254.25408 307.584 
L 262.3488 307.584 
L 270.44352 307.584 
L 278.53824 307.584 
L 286.63296 307.584 
L 294.72768 307.584 
L 302.8224 307.584 
L 310.91712 307.584 
L 319.01184 307.584 
L 327.10656 307.584 
L 335.20128 307.584 
" clip-path="url(#p3cfb0930f0)" style="fill: #ff3800"/>
   </g>
   <g id="PathCollection_20">
    <path d="M 213.495208 307.584 
L 208.809221 306.166243 
L 204.564194 304.98592 
L 200.908474 303.948672 
L 199.434727 303.591178 
L 196.086654 302.693538 
L 192.32334 301.811521 
L 187.735473 300.643181 
L 181.621914 299.296454 
L 181.218211 299.198766 
L 178.944993 298.7136 
L 174.235561 297.695928 
L 172.006987 297.289144 
L 166.196738 296.108844 
L 164.088226 295.740169 
L 160.478706 295.03024 
L 152.542213 293.699949 
L 151.024479 293.417833 
L 146.761372 292.731076 
L 146.440201 292.67319 
L 144.942793 292.44128 
L 137.680686 291.317174 
L 127.168996 289.8432 
L 125.617981 289.624884 
L 125.306205 289.585543 
L 123.742148 289.390923 
L 114.960696 288.251531 
L 112.650706 287.981466 
L 106.254392 287.24512 
L 103.149531 286.889807 
L 102.674868 286.847174 
L 100.4544 286.620206 
L 100.4544 289.8432 
L 100.4544 298.7136 
L 100.4544 307.584 
L 108.54912 307.584 
L 116.64384 307.584 
L 124.73856 307.584 
L 132.83328 307.584 
L 140.928 307.584 
L 149.02272 307.584 
L 157.11744 307.584 
L 165.21216 307.584 
L 173.30688 307.584 
L 181.4016 307.584 
L 189.49632 307.584 
L 197.59104 307.584 
L 205.68576 307.584 
" clip-path="url(#p3cfb0930f0)" style="fill: #b60000"/>
   </g>
   <g id="matplotlib.axis_1">
    <g id="xtick_1">
     <g id="line2d_1">
      <defs>
       <path id="mc63bdde51a" d="M 0 0 
L 0 3.5 
" style="stroke: #000000; stroke-width: 0.8"/>
      </defs>
      <g>
       <use xlink:href="#mc63bdde51a" x="57.6" y="307.584" style="stroke: #000000; stroke-width: 0.8"/>
      </g>
     </g>
     <g id="text_1">
      <!-- 0.0 -->
      <g transform="translate(51.26875 321.385562) scale(0.1 -0.1)">
       <defs>
        <path id="Calibri-30" d="M 3022 2031 
Q 3022 1566 2948 1181 
Q 2875 797 2704 520 
Q 2534 244 2259 92 
Q 1984 -59 1581 -59 
Q 1200 -59 939 77 
Q 678 213 518 477 
Q 359 741 292 1127 
Q 225 1513 225 2013 
Q 225 2475 300 2861 
Q 375 3247 544 3523 
Q 713 3800 988 3951 
Q 1263 4103 1663 4103 
Q 2047 4103 2308 3967 
Q 2569 3831 2728 3567 
Q 2888 3303 2955 2917 
Q 3022 2531 3022 2031 
z
M 2472 1994 
Q 2472 2297 2450 2537 
Q 2428 2778 2386 2962 
Q 2344 3147 2276 3280 
Q 2209 3413 2115 3498 
Q 2022 3584 1901 3623 
Q 1781 3663 1631 3663 
Q 1366 3663 1200 3538 
Q 1034 3413 939 3194 
Q 844 2975 809 2681 
Q 775 2388 775 2050 
Q 775 1597 822 1280 
Q 869 963 970 763 
Q 1072 563 1230 472 
Q 1388 381 1613 381 
Q 1788 381 1920 437 
Q 2053 494 2148 598 
Q 2244 703 2306 850 
Q 2369 997 2406 1175 
Q 2444 1353 2458 1561 
Q 2472 1769 2472 1994 
z
" transform="scale(0.015625)"/>
        <path id="Calibri-2e" d="M 1144 341 
Q 1144 119 1070 45 
Q 997 -28 803 -28 
Q 616 -28 544 44 
Q 472 116 472 331 
Q 472 553 545 626 
Q 619 700 813 700 
Q 1000 700 1072 628 
Q 1144 556 1144 341 
z
" transform="scale(0.015625)"/>
       </defs>
       <use xlink:href="#Calibri-30"/>
       <use xlink:href="#Calibri-2e" x="50.683594"/>
       <use xlink:href="#Calibri-30" x="75.927734"/>
      </g>
     </g>
    </g>
    <g id="xtick_2">
     <g id="line2d_2">
      <g>
       <use xlink:href="#mc63bdde51a" x="86.1696" y="307.584" style="stroke: #000000; stroke-width: 0.8"/>
      </g>
     </g>
     <g id="text_2">
      <!-- 0.1 -->
      <g transform="translate(79.83835 321.385562) scale(0.1 -0.1)">
       <defs>
        <path id="Calibri-31" d="M 2897 213 
Q 2897 153 2887 112 
Q 2878 72 2862 47 
Q 2847 22 2826 11 
Q 2806 0 2784 0 
L 672 0 
Q 650 0 631 11 
Q 613 22 595 47 
Q 578 72 568 112 
Q 559 153 559 213 
Q 559 269 568 309 
Q 578 350 592 376 
Q 606 403 626 417 
Q 647 431 672 431 
L 1516 431 
L 1516 3506 
L 734 3041 
Q 675 3009 639 3003 
Q 603 2997 581 3017 
Q 559 3038 551 3084 
Q 544 3131 544 3203 
Q 544 3256 548 3293 
Q 553 3331 562 3356 
Q 572 3381 589 3400 
Q 606 3419 634 3438 
L 1566 4034 
Q 1578 4044 1597 4050 
Q 1616 4056 1644 4062 
Q 1672 4069 1709 4070 
Q 1747 4072 1803 4072 
Q 1878 4072 1928 4065 
Q 1978 4059 2006 4048 
Q 2034 4038 2043 4020 
Q 2053 4003 2053 3984 
L 2053 431 
L 2784 431 
Q 2809 431 2831 417 
Q 2853 403 2867 376 
Q 2881 350 2889 309 
Q 2897 269 2897 213 
z
" transform="scale(0.015625)"/>
       </defs>
       <use xlink:href="#Calibri-30"/>
       <use xlink:href="#Calibri-2e" x="50.683594"/>
       <use xlink:href="#Calibri-31" x="75.927734"/>
      </g>
     </g>
    </g>
    <g id="xtick_3">
     <g id="line2d_3">
      <g>
       <use xlink:href="#mc63bdde51a" x="114.7392" y="307.584" style="stroke: #000000; stroke-width: 0.8"/>
      </g>
     </g>
     <g id="text_3">
      <!-- 0.2 -->
      <g transform="translate(108.40795 321.385562) scale(0.1 -0.1)">
       <defs>
        <path id="Calibri-32" d="M 2888 231 
Q 2888 175 2880 131 
Q 2872 88 2858 58 
Q 2844 28 2820 14 
Q 2797 0 2769 0 
L 534 0 
Q 491 0 458 11 
Q 425 22 401 47 
Q 378 72 367 119 
Q 356 166 356 234 
Q 356 297 361 344 
Q 366 391 381 427 
Q 397 463 420 498 
Q 444 534 481 575 
L 1266 1406 
Q 1538 1694 1702 1922 
Q 1866 2150 1955 2337 
Q 2044 2525 2072 2678 
Q 2100 2831 2100 2966 
Q 2100 3100 2056 3220 
Q 2013 3341 1930 3431 
Q 1847 3522 1722 3575 
Q 1597 3628 1434 3628 
Q 1244 3628 1092 3575 
Q 941 3522 827 3459 
Q 713 3397 636 3344 
Q 559 3291 522 3291 
Q 500 3291 483 3303 
Q 466 3316 455 3344 
Q 444 3372 437 3419 
Q 431 3466 431 3531 
Q 431 3578 434 3612 
Q 438 3647 445 3672 
Q 453 3697 465 3719 
Q 478 3741 515 3773 
Q 553 3806 645 3862 
Q 738 3919 877 3973 
Q 1016 4028 1183 4065 
Q 1350 4103 1534 4103 
Q 1828 4103 2048 4020 
Q 2269 3938 2414 3794 
Q 2559 3650 2631 3459 
Q 2703 3269 2703 3053 
Q 2703 2859 2668 2667 
Q 2634 2475 2523 2251 
Q 2413 2028 2203 1754 
Q 1994 1481 1647 1125 
L 1006 456 
L 2766 456 
Q 2791 456 2814 442 
Q 2838 428 2855 400 
Q 2872 372 2880 330 
Q 2888 288 2888 231 
z
" transform="scale(0.015625)"/>
       </defs>
       <use xlink:href="#Calibri-30"/>
       <use xlink:href="#Calibri-2e" x="50.683594"/>
       <use xlink:href="#Calibri-32" x="75.927734"/>
      </g>
     </g>
    </g>
    <g id="xtick_4">
     <g id="line2d_4">
      <g>
       <use xlink:href="#mc63bdde51a" x="143.3088" y="307.584" style="stroke: #000000; stroke-width: 0.8"/>
      </g>
     </g>
     <g id="text_4">
      <!-- 0.3 -->
      <g transform="translate(136.97755 321.385562) scale(0.1 -0.1)">
       <defs>
        <path id="Calibri-33" d="M 2856 1156 
Q 2856 878 2759 654 
Q 2663 431 2481 272 
Q 2300 113 2034 27 
Q 1769 -59 1434 -59 
Q 1231 -59 1054 -26 
Q 878 6 740 51 
Q 603 97 512 145 
Q 422 194 398 216 
Q 375 238 362 259 
Q 350 281 340 312 
Q 331 344 326 389 
Q 322 434 322 500 
Q 322 613 344 656 
Q 366 700 406 700 
Q 434 700 517 650 
Q 600 600 729 542 
Q 859 484 1032 434 
Q 1206 384 1419 384 
Q 1625 384 1781 437 
Q 1938 491 2044 587 
Q 2150 684 2203 817 
Q 2256 950 2256 1106 
Q 2256 1278 2189 1415 
Q 2122 1553 1992 1653 
Q 1863 1753 1673 1806 
Q 1484 1859 1244 1859 
L 859 1859 
Q 834 1859 811 1870 
Q 788 1881 770 1906 
Q 753 1931 742 1972 
Q 731 2013 731 2078 
Q 731 2138 740 2177 
Q 750 2216 767 2239 
Q 784 2263 806 2273 
Q 828 2284 856 2284 
L 1209 2284 
Q 1416 2284 1580 2337 
Q 1744 2391 1858 2491 
Q 1972 2591 2033 2730 
Q 2094 2869 2094 3041 
Q 2094 3166 2053 3280 
Q 2013 3394 1931 3478 
Q 1850 3563 1723 3611 
Q 1597 3659 1431 3659 
Q 1250 3659 1098 3604 
Q 947 3550 828 3487 
Q 709 3425 631 3370 
Q 553 3316 522 3316 
Q 500 3316 483 3323 
Q 466 3331 455 3354 
Q 444 3378 439 3420 
Q 434 3463 434 3531 
Q 434 3578 437 3614 
Q 441 3650 450 3676 
Q 459 3703 471 3725 
Q 484 3747 514 3776 
Q 544 3806 634 3862 
Q 725 3919 858 3973 
Q 991 4028 1164 4065 
Q 1338 4103 1538 4103 
Q 1819 4103 2031 4031 
Q 2244 3959 2386 3828 
Q 2528 3697 2598 3514 
Q 2669 3331 2669 3109 
Q 2669 2919 2619 2755 
Q 2569 2591 2472 2464 
Q 2375 2338 2234 2248 
Q 2094 2159 1909 2125 
L 1909 2119 
Q 2119 2097 2292 2014 
Q 2466 1931 2591 1806 
Q 2716 1681 2786 1514 
Q 2856 1347 2856 1156 
z
" transform="scale(0.015625)"/>
       </defs>
       <use xlink:href="#Calibri-30"/>
       <use xlink:href="#Calibri-2e" x="50.683594"/>
       <use xlink:href="#Calibri-33" x="75.927734"/>
      </g>
     </g>
    </g>
    <g id="xtick_5">
     <g id="line2d_5">
      <g>
       <use xlink:href="#mc63bdde51a" x="171.8784" y="307.584" style="stroke: #000000; stroke-width: 0.8"/>
      </g>
     </g>
     <g id="text_5">
      <!-- 0.4 -->
      <g transform="translate(165.54715 321.385562) scale(0.1 -0.1)">
       <defs>
        <path id="Calibri-34" d="M 3059 1150 
Q 3059 1047 3028 987 
Q 2997 928 2941 928 
L 2484 928 
L 2484 78 
Q 2484 53 2471 36 
Q 2459 19 2428 6 
Q 2397 -6 2347 -12 
Q 2297 -19 2219 -19 
Q 2144 -19 2094 -12 
Q 2044 -6 2014 6 
Q 1984 19 1973 36 
Q 1963 53 1963 78 
L 1963 928 
L 294 928 
Q 256 928 231 937 
Q 206 947 186 972 
Q 166 997 158 1044 
Q 150 1091 150 1166 
Q 150 1225 153 1272 
Q 156 1319 165 1358 
Q 175 1397 190 1433 
Q 206 1469 228 1509 
L 1684 3966 
Q 1700 3991 1729 4009 
Q 1759 4028 1806 4040 
Q 1853 4053 1922 4058 
Q 1991 4063 2084 4063 
Q 2188 4063 2264 4055 
Q 2341 4047 2387 4034 
Q 2434 4022 2459 4001 
Q 2484 3981 2484 3953 
L 2484 1372 
L 2941 1372 
Q 2994 1372 3026 1317 
Q 3059 1263 3059 1150 
z
M 1963 3591 
L 1956 3591 
L 641 1372 
L 1963 1372 
L 1963 3591 
z
" transform="scale(0.015625)"/>
       </defs>
       <use xlink:href="#Calibri-30"/>
       <use xlink:href="#Calibri-2e" x="50.683594"/>
       <use xlink:href="#Calibri-34" x="75.927734"/>
      </g>
     </g>
    </g>
    <g id="xtick_6">
     <g id="line2d_6">
      <g>
       <use xlink:href="#mc63bdde51a" x="200.448" y="307.584" style="stroke: #000000; stroke-width: 0.8"/>
      </g>
     </g>
     <g id="text_6">
      <!-- 0.5 -->
      <g transform="translate(194.11675 321.385562) scale(0.1 -0.1)">
       <defs>
        <path id="Calibri-35" d="M 2869 1300 
Q 2869 975 2759 722 
Q 2650 469 2450 295 
Q 2250 122 1973 31 
Q 1697 -59 1359 -59 
Q 1172 -59 1003 -32 
Q 834 -6 703 33 
Q 572 72 487 109 
Q 403 147 379 169 
Q 356 191 347 209 
Q 338 228 330 254 
Q 322 281 319 322 
Q 316 363 316 419 
Q 316 472 320 514 
Q 325 556 337 582 
Q 350 609 367 621 
Q 384 634 406 634 
Q 438 634 503 595 
Q 569 556 680 511 
Q 791 466 955 425 
Q 1119 384 1344 384 
Q 1553 384 1728 434 
Q 1903 484 2029 590 
Q 2156 697 2228 858 
Q 2300 1019 2300 1250 
Q 2300 1444 2239 1592 
Q 2178 1741 2051 1839 
Q 1925 1938 1731 1986 
Q 1538 2034 1269 2034 
Q 1078 2034 940 2015 
Q 803 1997 684 1997 
Q 597 1997 559 2037 
Q 522 2078 522 2194 
L 522 3841 
Q 522 3944 570 3994 
Q 619 4044 709 4044 
L 2500 4044 
Q 2525 4044 2548 4030 
Q 2572 4016 2587 3987 
Q 2603 3959 2611 3915 
Q 2619 3872 2619 3813 
Q 2619 3700 2587 3637 
Q 2556 3575 2500 3575 
L 991 3575 
L 991 2441 
Q 1100 2456 1214 2459 
Q 1328 2463 1478 2463 
Q 1825 2463 2084 2380 
Q 2344 2297 2517 2145 
Q 2691 1994 2780 1778 
Q 2869 1563 2869 1300 
z
" transform="scale(0.015625)"/>
       </defs>
       <use xlink:href="#Calibri-30"/>
       <use xlink:href="#Calibri-2e" x="50.683594"/>
       <use xlink:href="#Calibri-35" x="75.927734"/>
      </g>
     </g>
    </g>
    <g id="xtick_7">
     <g id="line2d_7">
      <g>
       <use xlink:href="#mc63bdde51a" x="229.0176" y="307.584" style="stroke: #000000; stroke-width: 0.8"/>
      </g>
     </g>
     <g id="text_7">
      <!-- 0.6 -->
      <g transform="translate(222.68635 321.385562) scale(0.1 -0.1)">
       <defs>
        <path id="Calibri-36" d="M 2991 1309 
Q 2991 1044 2909 795 
Q 2828 547 2659 358 
Q 2491 169 2231 55 
Q 1972 -59 1619 -59 
Q 1366 -59 1172 3 
Q 978 66 834 181 
Q 691 297 595 465 
Q 500 634 442 850 
Q 384 1066 359 1322 
Q 334 1578 334 1872 
Q 334 2131 362 2397 
Q 391 2663 462 2909 
Q 534 3156 657 3373 
Q 781 3591 967 3752 
Q 1153 3913 1412 4006 
Q 1672 4100 2016 4100 
Q 2131 4100 2250 4086 
Q 2369 4072 2469 4048 
Q 2569 4025 2637 3997 
Q 2706 3969 2728 3951 
Q 2750 3934 2761 3914 
Q 2772 3894 2778 3870 
Q 2784 3847 2787 3817 
Q 2791 3788 2791 3744 
Q 2791 3688 2789 3647 
Q 2788 3606 2777 3581 
Q 2766 3556 2748 3543 
Q 2731 3531 2703 3531 
Q 2669 3531 2609 3553 
Q 2550 3575 2465 3601 
Q 2381 3628 2261 3650 
Q 2141 3672 1981 3672 
Q 1691 3672 1481 3553 
Q 1272 3434 1139 3234 
Q 1006 3034 942 2770 
Q 878 2506 869 2219 
Q 950 2266 1051 2312 
Q 1153 2359 1273 2396 
Q 1394 2434 1528 2457 
Q 1663 2481 1816 2481 
Q 2144 2481 2369 2392 
Q 2594 2303 2733 2145 
Q 2872 1988 2931 1773 
Q 2991 1559 2991 1309 
z
M 2447 1259 
Q 2447 1441 2411 1589 
Q 2375 1738 2290 1841 
Q 2206 1944 2065 2000 
Q 1925 2056 1719 2056 
Q 1603 2056 1487 2036 
Q 1372 2016 1264 1980 
Q 1156 1944 1057 1895 
Q 959 1847 878 1791 
Q 878 1388 929 1116 
Q 981 844 1079 680 
Q 1178 516 1325 445 
Q 1472 375 1669 375 
Q 1869 375 2016 450 
Q 2163 525 2259 651 
Q 2356 778 2401 936 
Q 2447 1094 2447 1259 
z
" transform="scale(0.015625)"/>
       </defs>
       <use xlink:href="#Calibri-30"/>
       <use xlink:href="#Calibri-2e" x="50.683594"/>
       <use xlink:href="#Calibri-36" x="75.927734"/>
      </g>
     </g>
    </g>
    <g id="xtick_8">
     <g id="line2d_8">
      <g>
       <use xlink:href="#mc63bdde51a" x="257.5872" y="307.584" style="stroke: #000000; stroke-width: 0.8"/>
      </g>
     </g>
     <g id="text_8">
      <!-- 0.7 -->
      <g transform="translate(251.25595 321.385562) scale(0.1 -0.1)">
       <defs>
        <path id="Calibri-37" d="M 2947 3813 
Q 2947 3756 2942 3711 
Q 2938 3666 2930 3623 
Q 2922 3581 2908 3542 
Q 2894 3503 2875 3459 
L 1419 103 
Q 1403 66 1379 42 
Q 1356 19 1320 5 
Q 1284 -9 1228 -14 
Q 1172 -19 1091 -19 
Q 984 -19 925 -9 
Q 866 0 839 20 
Q 813 41 816 70 
Q 819 100 838 141 
L 2369 3572 
L 428 3572 
Q 369 3572 339 3634 
Q 309 3697 309 3809 
Q 309 3869 317 3912 
Q 325 3956 340 3986 
Q 356 4016 378 4030 
Q 400 4044 428 4044 
L 2784 4044 
Q 2828 4044 2861 4034 
Q 2894 4025 2911 3997 
Q 2928 3969 2937 3925 
Q 2947 3881 2947 3813 
z
" transform="scale(0.015625)"/>
       </defs>
       <use xlink:href="#Calibri-30"/>
       <use xlink:href="#Calibri-2e" x="50.683594"/>
       <use xlink:href="#Calibri-37" x="75.927734"/>
      </g>
     </g>
    </g>
    <g id="xtick_9">
     <g id="line2d_9">
      <g>
       <use xlink:href="#mc63bdde51a" x="286.1568" y="307.584" style="stroke: #000000; stroke-width: 0.8"/>
      </g>
     </g>
     <g id="text_9">
      <!-- 0.8 -->
      <g transform="translate(279.82555 321.385562) scale(0.1 -0.1)">
       <defs>
        <path id="Calibri-38" d="M 2981 1038 
Q 2981 775 2887 570 
Q 2794 366 2617 225 
Q 2441 84 2181 12 
Q 1922 -59 1588 -59 
Q 1275 -59 1028 6 
Q 781 72 609 200 
Q 438 328 347 515 
Q 256 703 256 944 
Q 256 1134 318 1293 
Q 381 1453 498 1587 
Q 616 1722 787 1839 
Q 959 1956 1175 2063 
Q 988 2159 844 2267 
Q 700 2375 600 2501 
Q 500 2628 448 2772 
Q 397 2916 397 3084 
Q 397 3297 473 3483 
Q 550 3669 704 3806 
Q 859 3944 1098 4023 
Q 1338 4103 1656 4103 
Q 1963 4103 2186 4029 
Q 2409 3956 2554 3829 
Q 2700 3703 2769 3531 
Q 2838 3359 2838 3163 
Q 2838 3003 2786 2856 
Q 2734 2709 2634 2578 
Q 2534 2447 2389 2333 
Q 2244 2219 2056 2119 
Q 2278 2009 2451 1893 
Q 2625 1778 2742 1645 
Q 2859 1513 2920 1364 
Q 2981 1216 2981 1038 
z
M 2306 3113 
Q 2306 3244 2261 3350 
Q 2216 3456 2128 3531 
Q 2041 3606 1911 3645 
Q 1781 3684 1616 3684 
Q 1278 3684 1104 3531 
Q 931 3378 931 3113 
Q 931 2991 973 2886 
Q 1016 2781 1105 2687 
Q 1194 2594 1330 2505 
Q 1466 2416 1653 2319 
Q 1969 2481 2137 2678 
Q 2306 2875 2306 3113 
z
M 2438 981 
Q 2438 1125 2384 1242 
Q 2331 1359 2223 1461 
Q 2116 1563 1955 1658 
Q 1794 1753 1581 1856 
Q 1384 1759 1236 1662 
Q 1088 1566 992 1462 
Q 897 1359 848 1245 
Q 800 1131 800 994 
Q 800 691 1008 525 
Q 1216 359 1628 359 
Q 2028 359 2233 526 
Q 2438 694 2438 981 
z
" transform="scale(0.015625)"/>
       </defs>
       <use xlink:href="#Calibri-30"/>
       <use xlink:href="#Calibri-2e" x="50.683594"/>
       <use xlink:href="#Calibri-38" x="75.927734"/>
      </g>
     </g>
    </g>
    <g id="xtick_10">
     <g id="line2d_10">
      <g>
       <use xlink:href="#mc63bdde51a" x="314.7264" y="307.584" style="stroke: #000000; stroke-width: 0.8"/>
      </g>
     </g>
     <g id="text_10">
      <!-- 0.9 -->
      <g transform="translate(308.39515 321.385562) scale(0.1 -0.1)">
       <defs>
        <path id="Calibri-39" d="M 2919 2181 
Q 2919 1919 2887 1650 
Q 2856 1381 2781 1132 
Q 2706 884 2579 667 
Q 2453 450 2261 287 
Q 2069 125 1805 33 
Q 1541 -59 1191 -59 
Q 1056 -59 929 -42 
Q 803 -25 701 0 
Q 600 25 531 53 
Q 463 81 431 109 
Q 400 138 386 186 
Q 372 234 372 316 
Q 372 384 376 425 
Q 381 466 390 487 
Q 400 509 417 517 
Q 434 525 459 525 
Q 494 525 556 501 
Q 619 478 714 450 
Q 809 422 937 398 
Q 1066 375 1225 375 
Q 1528 375 1745 492 
Q 1963 609 2100 806 
Q 2238 1003 2306 1262 
Q 2375 1522 2381 1809 
Q 2216 1713 1984 1638 
Q 1753 1563 1453 1563 
Q 1116 1563 886 1655 
Q 656 1747 517 1906 
Q 378 2066 317 2284 
Q 256 2503 256 2763 
Q 256 3031 334 3273 
Q 413 3516 578 3700 
Q 744 3884 1000 3993 
Q 1256 4103 1613 4103 
Q 1866 4103 2061 4039 
Q 2256 3975 2400 3854 
Q 2544 3734 2644 3564 
Q 2744 3394 2805 3178 
Q 2866 2963 2892 2711 
Q 2919 2459 2919 2181 
z
M 2372 2241 
Q 2372 2641 2319 2914 
Q 2266 3188 2162 3356 
Q 2059 3525 1909 3600 
Q 1759 3675 1563 3675 
Q 1359 3675 1215 3601 
Q 1072 3528 980 3404 
Q 888 3281 844 3125 
Q 800 2969 800 2803 
Q 800 2619 839 2466 
Q 878 2313 965 2206 
Q 1053 2100 1193 2042 
Q 1334 1984 1541 1984 
Q 1775 1984 1994 2054 
Q 2213 2125 2372 2241 
z
" transform="scale(0.015625)"/>
       </defs>
       <use xlink:href="#Calibri-30"/>
       <use xlink:href="#Calibri-2e" x="50.683594"/>
       <use xlink:href="#Calibri-39" x="75.927734"/>
      </g>
     </g>
    </g>
    <g id="xtick_11">
     <g id="line2d_11">
      <g>
       <use xlink:href="#mc63bdde51a" x="343.296" y="307.584" style="stroke: #000000; stroke-width: 0.8"/>
      </g>
     </g>
     <g id="text_11">
      <!-- 1.0 -->
      <g transform="translate(336.96475 321.385562) scale(0.1 -0.1)">
       <use xlink:href="#Calibri-31"/>
       <use xlink:href="#Calibri-2e" x="50.683594"/>
       <use xlink:href="#Calibri-30" x="75.927734"/>
      </g>
     </g>
    </g>
    <g id="text_12">
     <!-- $\mathit{p}$ (cm$^2$/cm$^2$) -->
     <g transform="translate(174.148 336.263687) scale(0.1 -0.1)">
      <defs>
       <path id="DejaVuSans-Oblique-70" d="M 3175 2156 
Q 3175 2616 2975 2859 
Q 2775 3103 2400 3103 
Q 2144 3103 1911 2972 
Q 1678 2841 1497 2591 
Q 1319 2344 1212 1994 
Q 1106 1644 1106 1300 
Q 1106 863 1306 627 
Q 1506 391 1875 391 
Q 2147 391 2380 519 
Q 2613 647 2778 891 
Q 2956 1147 3065 1494 
Q 3175 1841 3175 2156 
z
M 1394 2969 
Q 1625 3272 1939 3428 
Q 2253 3584 2638 3584 
Q 3175 3584 3472 3232 
Q 3769 2881 3769 2247 
Q 3769 1728 3584 1258 
Q 3400 788 3053 416 
Q 2822 169 2531 39 
Q 2241 -91 1919 -91 
Q 1547 -91 1294 64 
Q 1041 219 916 525 
L 556 -1331 
L -19 -1331 
L 922 3500 
L 1497 3500 
L 1394 2969 
z
" transform="scale(0.015625)"/>
       <path id="Calibri-20" transform="scale(0.015625)"/>
       <path id="Calibri-28" d="M 1547 4306 
Q 1250 3678 1104 3017 
Q 959 2356 959 1688 
Q 959 1016 1107 356 
Q 1256 -303 1541 -938 
Q 1556 -975 1557 -1001 
Q 1559 -1028 1537 -1045 
Q 1516 -1063 1470 -1070 
Q 1425 -1078 1347 -1078 
Q 1291 -1078 1250 -1075 
Q 1209 -1072 1179 -1062 
Q 1150 -1053 1131 -1040 
Q 1113 -1028 1103 -1013 
Q 934 -694 806 -367 
Q 678 -41 590 296 
Q 503 634 459 979 
Q 416 1325 416 1678 
Q 416 2031 464 2375 
Q 513 2719 602 3058 
Q 691 3397 819 3725 
Q 947 4053 1106 4375 
Q 1109 4388 1123 4397 
Q 1138 4406 1163 4415 
Q 1188 4425 1231 4429 
Q 1275 4434 1344 4434 
Q 1416 4434 1459 4425 
Q 1503 4416 1528 4400 
Q 1553 4384 1556 4359 
Q 1559 4334 1547 4306 
z
" transform="scale(0.015625)"/>
       <path id="Calibri-63" d="M 2500 506 
Q 2500 453 2497 414 
Q 2494 375 2486 348 
Q 2478 322 2467 301 
Q 2456 281 2417 242 
Q 2378 203 2284 145 
Q 2191 88 2073 42 
Q 1956 -3 1818 -31 
Q 1681 -59 1534 -59 
Q 1231 -59 997 41 
Q 763 141 605 333 
Q 447 525 364 804 
Q 281 1084 281 1450 
Q 281 1866 382 2164 
Q 484 2463 661 2653 
Q 838 2844 1077 2936 
Q 1316 3028 1594 3028 
Q 1728 3028 1854 3003 
Q 1981 2978 2087 2937 
Q 2194 2897 2276 2844 
Q 2359 2791 2396 2753 
Q 2434 2716 2448 2694 
Q 2463 2672 2472 2642 
Q 2481 2613 2484 2575 
Q 2488 2538 2488 2481 
Q 2488 2359 2459 2311 
Q 2431 2263 2391 2263 
Q 2344 2263 2283 2314 
Q 2222 2366 2128 2428 
Q 2034 2491 1901 2542 
Q 1769 2594 1588 2594 
Q 1216 2594 1017 2308 
Q 819 2022 819 1478 
Q 819 1206 870 1001 
Q 922 797 1022 659 
Q 1122 522 1267 455 
Q 1413 388 1600 388 
Q 1778 388 1912 444 
Q 2047 500 2145 567 
Q 2244 634 2311 689 
Q 2378 744 2416 744 
Q 2438 744 2453 731 
Q 2469 719 2480 689 
Q 2491 659 2495 614 
Q 2500 569 2500 506 
z
" transform="scale(0.015625)"/>
       <path id="Calibri-6d" d="M 4650 78 
Q 4650 53 4637 36 
Q 4625 19 4597 6 
Q 4569 -6 4519 -12 
Q 4469 -19 4394 -19 
Q 4316 -19 4266 -12 
Q 4216 -6 4186 6 
Q 4156 19 4143 36 
Q 4131 53 4131 78 
L 4131 1788 
Q 4131 1966 4100 2112 
Q 4069 2259 4000 2365 
Q 3931 2472 3825 2528 
Q 3719 2584 3575 2584 
Q 3397 2584 3217 2446 
Q 3038 2309 2822 2044 
L 2822 78 
Q 2822 53 2809 36 
Q 2797 19 2767 6 
Q 2738 -6 2688 -12 
Q 2638 -19 2563 -19 
Q 2491 -19 2439 -12 
Q 2388 -6 2358 6 
Q 2328 19 2317 36 
Q 2306 53 2306 78 
L 2306 1788 
Q 2306 1966 2272 2112 
Q 2238 2259 2169 2365 
Q 2100 2472 1995 2528 
Q 1891 2584 1747 2584 
Q 1569 2584 1387 2446 
Q 1206 2309 994 2044 
L 994 78 
Q 994 53 981 36 
Q 969 19 941 6 
Q 913 -6 863 -12 
Q 813 -19 734 -19 
Q 659 -19 609 -12 
Q 559 -6 529 6 
Q 500 19 489 36 
Q 478 53 478 78 
L 478 2891 
Q 478 2916 487 2933 
Q 497 2950 525 2964 
Q 553 2978 597 2983 
Q 641 2988 713 2988 
Q 781 2988 826 2983 
Q 872 2978 897 2964 
Q 922 2950 933 2933 
Q 944 2916 944 2891 
L 944 2519 
Q 1181 2784 1404 2907 
Q 1628 3031 1856 3031 
Q 2031 3031 2170 2990 
Q 2309 2950 2415 2876 
Q 2522 2803 2597 2701 
Q 2672 2600 2722 2475 
Q 2863 2628 2989 2734 
Q 3116 2841 3233 2906 
Q 3350 2972 3461 3001 
Q 3572 3031 3684 3031 
Q 3956 3031 4140 2936 
Q 4325 2841 4439 2681 
Q 4553 2522 4601 2308 
Q 4650 2094 4650 1856 
L 4650 78 
z
" transform="scale(0.015625)"/>
       <path id="DejaVuSans-32" d="M 1228 531 
L 3431 531 
L 3431 0 
L 469 0 
L 469 531 
Q 828 903 1448 1529 
Q 2069 2156 2228 2338 
Q 2531 2678 2651 2914 
Q 2772 3150 2772 3378 
Q 2772 3750 2511 3984 
Q 2250 4219 1831 4219 
Q 1534 4219 1204 4116 
Q 875 4013 500 3803 
L 500 4441 
Q 881 4594 1212 4672 
Q 1544 4750 1819 4750 
Q 2544 4750 2975 4387 
Q 3406 4025 3406 3419 
Q 3406 3131 3298 2873 
Q 3191 2616 2906 2266 
Q 2828 2175 2409 1742 
Q 1991 1309 1228 531 
z
" transform="scale(0.015625)"/>
       <path id="Calibri-2f" d="M 525 -753 
Q 513 -794 492 -817 
Q 472 -841 440 -853 
Q 409 -866 364 -872 
Q 319 -878 253 -878 
Q 175 -878 123 -867 
Q 72 -856 44 -836 
Q 16 -816 9 -786 
Q 3 -756 22 -716 
L 1913 4469 
Q 1925 4509 1945 4532 
Q 1966 4556 1995 4570 
Q 2025 4584 2072 4589 
Q 2119 4594 2184 4594 
Q 2263 4594 2313 4583 
Q 2363 4572 2391 4553 
Q 2419 4534 2425 4503 
Q 2431 4472 2416 4431 
L 525 -753 
z
" transform="scale(0.015625)"/>
       <path id="Calibri-29" d="M 1522 1678 
Q 1522 1325 1478 979 
Q 1434 634 1346 296 
Q 1259 -41 1132 -367 
Q 1006 -694 838 -1013 
Q 828 -1028 809 -1040 
Q 791 -1053 761 -1062 
Q 731 -1072 690 -1075 
Q 650 -1078 594 -1078 
Q 513 -1078 467 -1070 
Q 422 -1063 401 -1045 
Q 381 -1028 382 -1001 
Q 384 -975 400 -938 
Q 688 -306 834 355 
Q 981 1016 981 1688 
Q 981 2356 834 3017 
Q 688 3678 394 4306 
Q 381 4334 384 4359 
Q 388 4384 413 4400 
Q 438 4416 481 4425 
Q 525 4434 597 4434 
Q 663 4434 706 4429 
Q 750 4425 776 4415 
Q 803 4406 815 4397 
Q 828 4388 834 4375 
Q 1156 3734 1339 3057 
Q 1522 2381 1522 1678 
z
" transform="scale(0.015625)"/>
      </defs>
      <use xlink:href="#DejaVuSans-Oblique-70" transform="translate(0 0.765625)"/>
      <use xlink:href="#Calibri-20" transform="translate(63.476562 0.765625)"/>
      <use xlink:href="#Calibri-28" transform="translate(84.958984 0.765625)"/>
      <use xlink:href="#Calibri-63" transform="translate(115.28125 0.765625)"/>
      <use xlink:href="#Calibri-6d" transform="translate(157.566406 0.765625)"/>
      <use xlink:href="#DejaVuSans-32" transform="translate(238.40625 39.046875) scale(0.7)"/>
      <use xlink:href="#Calibri-2f" transform="translate(285.676758 0.765625)"/>
      <use xlink:href="#Calibri-63" transform="translate(324.299805 0.765625)"/>
      <use xlink:href="#Calibri-6d" transform="translate(366.584961 0.765625)"/>
      <use xlink:href="#DejaVuSans-32" transform="translate(447.424805 39.046875) scale(0.7)"/>
      <use xlink:href="#Calibri-29" transform="translate(494.695312 0.765625)"/>
     </g>
    </g>
   </g>
   <g id="matplotlib.axis_2">
    <g id="ytick_1">
     <g id="line2d_12">
      <defs>
       <path id="m763889c982" d="M 0 0 
L -3.5 0 
" style="stroke: #000000; stroke-width: 0.8"/>
      </defs>
      <g>
       <use xlink:href="#m763889c982" x="57.6" y="275.65056" style="stroke: #000000; stroke-width: 0.8"/>
      </g>
     </g>
     <g id="text_13">
      <!-- 25 -->
      <g transform="translate(40.4625 279.051341) scale(0.1 -0.1)">
       <use xlink:href="#Calibri-32"/>
       <use xlink:href="#Calibri-35" x="50.683594"/>
      </g>
     </g>
    </g>
    <g id="ytick_2">
     <g id="line2d_13">
      <g>
       <use xlink:href="#m763889c982" x="57.6" y="242.38656" style="stroke: #000000; stroke-width: 0.8"/>
      </g>
     </g>
     <g id="text_14">
      <!-- 50 -->
      <g transform="translate(40.4625 245.787341) scale(0.1 -0.1)">
       <use xlink:href="#Calibri-35"/>
       <use xlink:href="#Calibri-30" x="50.683594"/>
      </g>
     </g>
    </g>
    <g id="ytick_3">
     <g id="line2d_14">
      <g>
       <use xlink:href="#m763889c982" x="57.6" y="209.12256" style="stroke: #000000; stroke-width: 0.8"/>
      </g>
     </g>
     <g id="text_15">
      <!-- 75 -->
      <g transform="translate(40.4625 212.523341) scale(0.1 -0.1)">
       <use xlink:href="#Calibri-37"/>
       <use xlink:href="#Calibri-35" x="50.683594"/>
      </g>
     </g>
    </g>
    <g id="ytick_4">
     <g id="line2d_15">
      <g>
       <use xlink:href="#m763889c982" x="57.6" y="175.85856" style="stroke: #000000; stroke-width: 0.8"/>
      </g>
     </g>
     <g id="text_16">
      <!-- 100 -->
      <g transform="translate(35.39375 179.259341) scale(0.1 -0.1)">
       <use xlink:href="#Calibri-31"/>
       <use xlink:href="#Calibri-30" x="50.683594"/>
       <use xlink:href="#Calibri-30" x="101.367188"/>
      </g>
     </g>
    </g>
    <g id="ytick_5">
     <g id="line2d_16">
      <g>
       <use xlink:href="#m763889c982" x="57.6" y="142.59456" style="stroke: #000000; stroke-width: 0.8"/>
      </g>
     </g>
     <g id="text_17">
      <!-- 125 -->
      <g transform="translate(35.39375 145.995341) scale(0.1 -0.1)">
       <use xlink:href="#Calibri-31"/>
       <use xlink:href="#Calibri-32" x="50.683594"/>
       <use xlink:href="#Calibri-35" x="101.367188"/>
      </g>
     </g>
    </g>
    <g id="ytick_6">
     <g id="line2d_17">
      <g>
       <use xlink:href="#m763889c982" x="57.6" y="109.33056" style="stroke: #000000; stroke-width: 0.8"/>
      </g>
     </g>
     <g id="text_18">
      <!-- 150 -->
      <g transform="translate(35.39375 112.731341) scale(0.1 -0.1)">
       <use xlink:href="#Calibri-31"/>
       <use xlink:href="#Calibri-35" x="50.683594"/>
       <use xlink:href="#Calibri-30" x="101.367188"/>
      </g>
     </g>
    </g>
    <g id="ytick_7">
     <g id="line2d_18">
      <g>
       <use xlink:href="#m763889c982" x="57.6" y="76.06656" style="stroke: #000000; stroke-width: 0.8"/>
      </g>
     </g>
     <g id="text_19">
      <!-- 175 -->
      <g transform="translate(35.39375 79.467341) scale(0.1 -0.1)">
       <use xlink:href="#Calibri-31"/>
       <use xlink:href="#Calibri-37" x="50.683594"/>
       <use xlink:href="#Calibri-35" x="101.367188"/>
      </g>
     </g>
    </g>
    <g id="ytick_8">
     <g id="line2d_19">
      <g>
       <use xlink:href="#m763889c982" x="57.6" y="42.80256" style="stroke: #000000; stroke-width: 0.8"/>
      </g>
     </g>
     <g id="text_20">
      <!-- 200 -->
      <g transform="translate(35.39375 46.203341) scale(0.1 -0.1)">
       <use xlink:href="#Calibri-32"/>
       <use xlink:href="#Calibri-30" x="50.683594"/>
       <use xlink:href="#Calibri-30" x="101.367188"/>
      </g>
     </g>
    </g>
    <g id="text_21">
     <!-- $\mathit{Z}$$_{a}$ (nm) -->
     <g transform="translate(29.59375 191.028) rotate(-90) scale(0.1 -0.1)">
      <defs>
       <path id="DejaVuSans-Oblique-5a" d="M 838 4666 
L 4500 4666 
L 4409 4184 
L 794 531 
L 3769 531 
L 3669 0 
L -141 0 
L -50 481 
L 3566 4134 
L 738 4134 
L 838 4666 
z
" transform="scale(0.015625)"/>
       <path id="DejaVuSans-Oblique-61" d="M 3438 1997 
L 3047 0 
L 2472 0 
L 2578 531 
Q 2325 219 2001 64 
Q 1678 -91 1281 -91 
Q 834 -91 548 182 
Q 263 456 263 884 
Q 263 1497 752 1853 
Q 1241 2209 2100 2209 
L 2900 2209 
L 2931 2363 
Q 2938 2388 2941 2417 
Q 2944 2447 2944 2509 
Q 2944 2788 2717 2942 
Q 2491 3097 2081 3097 
Q 1800 3097 1504 3025 
Q 1209 2953 897 2809 
L 997 3341 
Q 1322 3463 1633 3523 
Q 1944 3584 2234 3584 
Q 2853 3584 3176 3315 
Q 3500 3047 3500 2534 
Q 3500 2431 3484 2292 
Q 3469 2153 3438 1997 
z
M 2816 1759 
L 2241 1759 
Q 1534 1759 1195 1570 
Q 856 1381 856 984 
Q 856 709 1029 553 
Q 1203 397 1509 397 
Q 1978 397 2328 733 
Q 2678 1069 2791 1631 
L 2816 1759 
z
" transform="scale(0.015625)"/>
       <path id="Calibri-6e" d="M 2900 78 
Q 2900 53 2887 36 
Q 2875 19 2847 6 
Q 2819 -6 2769 -12 
Q 2719 -19 2644 -19 
Q 2566 -19 2516 -12 
Q 2466 -6 2437 6 
Q 2409 19 2396 36 
Q 2384 53 2384 78 
L 2384 1725 
Q 2384 1966 2346 2112 
Q 2309 2259 2237 2365 
Q 2166 2472 2052 2528 
Q 1938 2584 1788 2584 
Q 1594 2584 1400 2446 
Q 1206 2309 994 2044 
L 994 78 
Q 994 53 981 36 
Q 969 19 941 6 
Q 913 -6 863 -12 
Q 813 -19 734 -19 
Q 659 -19 609 -12 
Q 559 -6 529 6 
Q 500 19 489 36 
Q 478 53 478 78 
L 478 2891 
Q 478 2916 487 2933 
Q 497 2950 525 2964 
Q 553 2978 597 2983 
Q 641 2988 713 2988 
Q 781 2988 826 2983 
Q 872 2978 897 2964 
Q 922 2950 933 2933 
Q 944 2916 944 2891 
L 944 2519 
Q 1181 2784 1417 2907 
Q 1653 3031 1894 3031 
Q 2175 3031 2367 2936 
Q 2559 2841 2678 2681 
Q 2797 2522 2848 2308 
Q 2900 2094 2900 1794 
L 2900 78 
z
" transform="scale(0.015625)"/>
      </defs>
      <use xlink:href="#DejaVuSans-Oblique-5a" transform="translate(0 0.09375)"/>
      <use xlink:href="#DejaVuSans-Oblique-61" transform="translate(69.462891 -16.3125) scale(0.7)"/>
      <use xlink:href="#Calibri-20" transform="translate(115.092773 0.09375)"/>
      <use xlink:href="#Calibri-28" transform="translate(136.575195 0.09375)"/>
      <use xlink:href="#Calibri-6e" transform="translate(166.897461 0.09375)"/>
      <use xlink:href="#Calibri-6d" transform="translate(219.436523 0.09375)"/>
      <use xlink:href="#Calibri-29" transform="translate(299.319336 0.09375)"/>
     </g>
    </g>
   </g>
   <g id="patch_3">
    <path d="M 57.6 307.584 
L 57.6 41.472 
" style="fill: none; stroke: #000000; stroke-width: 0.8; stroke-linejoin: miter; stroke-linecap: square"/>
   </g>
   <g id="patch_4">
    <path d="M 343.296 307.584 
L 343.296 41.472 
" style="fill: none; stroke: #000000; stroke-width: 0.8; stroke-linejoin: miter; stroke-linecap: square"/>
   </g>
   <g id="patch_5">
    <path d="M 57.6 307.584 
L 343.296 307.584 
" style="fill: none; stroke: #000000; stroke-width: 0.8; stroke-linejoin: miter; stroke-linecap: square"/>
   </g>
   <g id="patch_6">
    <path d="M 57.6 41.472 
L 343.296 41.472 
" style="fill: none; stroke: #000000; stroke-width: 0.8; stroke-linejoin: miter; stroke-linecap: square"/>
   </g>
   <g id="text_22">
    <!-- $\theta_m$ = 62 -->
    <g transform="translate(182.298 35.472) scale(0.1 -0.1)">
     <defs>
      <path id="DejaVuSans-Oblique-3b8" d="M 2913 2219 
L 925 2219 
Q 791 1284 928 888 
Q 1100 400 1566 400 
Q 2034 400 2391 891 
Q 2703 1322 2913 2219 
z
M 3009 2750 
Q 3094 3638 2984 3950 
Q 2813 4444 2353 4444 
Q 1875 4444 1525 3956 
Q 1250 3563 1034 2750 
L 3009 2750 
z
M 2444 4913 
Q 3194 4913 3494 4250 
Q 3794 3591 3566 2422 
Q 3341 1256 2781 594 
Q 2225 -72 1475 -72 
Q 722 -72 425 594 
Q 128 1256 353 2422 
Q 581 3591 1134 4250 
Q 1691 4913 2444 4913 
z
" transform="scale(0.015625)"/>
      <path id="DejaVuSans-Oblique-6d" d="M 5747 2113 
L 5338 0 
L 4763 0 
L 5166 2094 
Q 5191 2228 5203 2325 
Q 5216 2422 5216 2491 
Q 5216 2772 5059 2928 
Q 4903 3084 4622 3084 
Q 4203 3084 3875 2770 
Q 3547 2456 3450 1953 
L 3066 0 
L 2491 0 
L 2900 2094 
Q 2925 2209 2937 2307 
Q 2950 2406 2950 2484 
Q 2950 2769 2794 2926 
Q 2638 3084 2363 3084 
Q 1938 3084 1609 2770 
Q 1281 2456 1184 1953 
L 800 0 
L 225 0 
L 909 3500 
L 1484 3500 
L 1375 2956 
Q 1609 3263 1923 3423 
Q 2238 3584 2597 3584 
Q 2978 3584 3223 3384 
Q 3469 3184 3519 2828 
Q 3781 3197 4126 3390 
Q 4472 3584 4856 3584 
Q 5306 3584 5551 3325 
Q 5797 3066 5797 2591 
Q 5797 2488 5784 2364 
Q 5772 2241 5747 2113 
z
" transform="scale(0.015625)"/>
      <path id="Calibri-3d" d="M 2891 2409 
Q 2891 2284 2855 2236 
Q 2819 2188 2772 2188 
L 409 2188 
Q 363 2188 328 2236 
Q 294 2284 294 2409 
Q 294 2522 325 2575 
Q 356 2628 409 2628 
L 2772 2628 
Q 2828 2628 2859 2575 
Q 2891 2522 2891 2409 
z
M 2891 1194 
Q 2891 1069 2855 1022 
Q 2819 975 2772 975 
L 409 975 
Q 363 975 328 1022 
Q 294 1069 294 1194 
Q 294 1309 325 1362 
Q 356 1416 409 1416 
L 2772 1416 
Q 2828 1416 2859 1362 
Q 2891 1309 2891 1194 
z
" transform="scale(0.015625)"/>
      <path id="Calibri-b0" d="M 1847 3541 
Q 1847 3388 1789 3253 
Q 1731 3119 1626 3017 
Q 1522 2916 1380 2859 
Q 1238 2803 1072 2803 
Q 906 2803 770 2854 
Q 634 2906 534 3000 
Q 434 3094 378 3225 
Q 322 3356 322 3516 
Q 322 3675 381 3811 
Q 441 3947 545 4044 
Q 650 4141 790 4197 
Q 931 4253 1097 4253 
Q 1259 4253 1396 4200 
Q 1534 4147 1634 4055 
Q 1734 3963 1790 3831 
Q 1847 3700 1847 3541 
z
M 1453 3528 
Q 1453 3613 1425 3686 
Q 1397 3759 1347 3812 
Q 1297 3866 1228 3895 
Q 1159 3925 1078 3925 
Q 1000 3925 933 3895 
Q 866 3866 816 3812 
Q 766 3759 737 3687 
Q 709 3616 709 3534 
Q 709 3444 737 3369 
Q 766 3294 817 3241 
Q 869 3188 939 3158 
Q 1009 3128 1091 3128 
Q 1166 3128 1233 3159 
Q 1300 3191 1348 3245 
Q 1397 3300 1425 3372 
Q 1453 3444 1453 3528 
z
M 0 4044 
L 0 4044 
z
" transform="scale(0.015625)"/>
     </defs>
     <use xlink:href="#DejaVuSans-Oblique-3b8" transform="translate(0 0.234375)"/>
     <use xlink:href="#DejaVuSans-Oblique-6d" transform="translate(61.181641 -16.171875) scale(0.7)"/>
     <use xlink:href="#Calibri-20" transform="translate(132.104492 0.234375)"/>
     <use xlink:href="#Calibri-3d" transform="translate(154.711914 0.234375)"/>
     <use xlink:href="#Calibri-20" transform="translate(204.516602 0.234375)"/>
     <use xlink:href="#Calibri-36" transform="translate(227.124023 0.234375)"/>
     <use xlink:href="#Calibri-32" transform="translate(277.807617 0.234375)"/>
     <use xlink:href="#Calibri-b0" transform="translate(328.491211 0.234375)"/>
    </g>
   </g>
  </g>
  <g id="axes_2">
   <g id="patch_7">
    <path d="M 361.152 307.584 
L 374.4576 307.584 
L 374.4576 41.472 
L 361.152 41.472 
z
" style="fill: #ffffff"/>
   </g>
   <g id="QuadMesh_1">
    <path d="M 361.152 307.584 
L 374.4576 307.584 
L 374.4576 280.9728 
L 361.152 280.9728 
L 361.152 307.584 
" clip-path="url(#p8980a3d54d)" style="fill: #0000b6"/>
    <path d="M 361.152 280.9728 
L 374.4576 280.9728 
L 374.4576 254.3616 
L 361.152 254.3616 
L 361.152 280.9728 
" clip-path="url(#p8980a3d54d)" style="fill: #0018ff"/>
    <path d="M 361.152 254.3616 
L 374.4576 254.3616 
L 374.4576 227.7504 
L 361.152 227.7504 
L 361.152 254.3616 
" clip-path="url(#p8980a3d54d)" style="fill: #0080ff"/>
    <path d="M 361.152 227.7504 
L 374.4576 227.7504 
L 374.4576 201.1392 
L 361.152 201.1392 
L 361.152 227.7504 
" clip-path="url(#p8980a3d54d)" style="fill: #00e4f8"/>
    <path d="M 361.152 201.1392 
L 374.4576 201.1392 
L 374.4576 174.528 
L 361.152 174.528 
L 361.152 201.1392 
" clip-path="url(#p8980a3d54d)" style="fill: #53ffa4"/>
    <path d="M 361.152 174.528 
L 374.4576 174.528 
L 374.4576 147.9168 
L 361.152 147.9168 
L 361.152 174.528 
" clip-path="url(#p8980a3d54d)" style="fill: #a4ff53"/>
    <path d="M 361.152 147.9168 
L 374.4576 147.9168 
L 374.4576 121.3056 
L 361.152 121.3056 
L 361.152 147.9168 
" clip-path="url(#p8980a3d54d)" style="fill: #f8f500"/>
    <path d="M 361.152 121.3056 
L 374.4576 121.3056 
L 374.4576 94.6944 
L 361.152 94.6944 
L 361.152 121.3056 
" clip-path="url(#p8980a3d54d)" style="fill: #ff9400"/>
    <path d="M 361.152 94.6944 
L 374.4576 94.6944 
L 374.4576 68.0832 
L 361.152 68.0832 
L 361.152 94.6944 
" clip-path="url(#p8980a3d54d)" style="fill: #ff3800"/>
    <path d="M 361.152 68.0832 
L 374.4576 68.0832 
L 374.4576 41.472 
L 361.152 41.472 
L 361.152 68.0832 
" clip-path="url(#p8980a3d54d)" style="fill: #b60000"/>
   </g>
   <g id="matplotlib.axis_3"/>
   <g id="matplotlib.axis_4">
    <g id="ytick_9">
     <g id="line2d_20">
      <defs>
       <path id="mf9211331c8" d="M 0 0 
L 3.5 0 
" style="stroke: #000000; stroke-width: 0.8"/>
      </defs>
      <g>
       <use xlink:href="#mf9211331c8" x="374.4576" y="307.584" style="stroke: #000000; stroke-width: 0.8"/>
      </g>
     </g>
     <g id="text_23">
      <!-- 0 -->
      <g transform="translate(381.4576 310.984781) scale(0.1 -0.1)">
       <use xlink:href="#Calibri-30"/>
      </g>
     </g>
    </g>
    <g id="ytick_10">
     <g id="line2d_21">
      <g>
       <use xlink:href="#mf9211331c8" x="374.4576" y="280.9728" style="stroke: #000000; stroke-width: 0.8"/>
      </g>
     </g>
     <g id="text_24">
      <!-- 0.1 -->
      <g transform="translate(381.4576 284.373581) scale(0.1 -0.1)">
       <use xlink:href="#Calibri-30"/>
       <use xlink:href="#Calibri-2e" x="50.683594"/>
       <use xlink:href="#Calibri-31" x="75.927734"/>
      </g>
     </g>
    </g>
    <g id="ytick_11">
     <g id="line2d_22">
      <g>
       <use xlink:href="#mf9211331c8" x="374.4576" y="254.3616" style="stroke: #000000; stroke-width: 0.8"/>
      </g>
     </g>
     <g id="text_25">
      <!-- 0.2 -->
      <g transform="translate(381.4576 257.762381) scale(0.1 -0.1)">
       <use xlink:href="#Calibri-30"/>
       <use xlink:href="#Calibri-2e" x="50.683594"/>
       <use xlink:href="#Calibri-32" x="75.927734"/>
      </g>
     </g>
    </g>
    <g id="ytick_12">
     <g id="line2d_23">
      <g>
       <use xlink:href="#mf9211331c8" x="374.4576" y="227.7504" style="stroke: #000000; stroke-width: 0.8"/>
      </g>
     </g>
     <g id="text_26">
      <!-- 0.3 -->
      <g transform="translate(381.4576 231.151181) scale(0.1 -0.1)">
       <use xlink:href="#Calibri-30"/>
       <use xlink:href="#Calibri-2e" x="50.683594"/>
       <use xlink:href="#Calibri-33" x="75.927734"/>
      </g>
     </g>
    </g>
    <g id="ytick_13">
     <g id="line2d_24">
      <g>
       <use xlink:href="#mf9211331c8" x="374.4576" y="201.1392" style="stroke: #000000; stroke-width: 0.8"/>
      </g>
     </g>
     <g id="text_27">
      <!-- 0.4 -->
      <g transform="translate(381.4576 204.539981) scale(0.1 -0.1)">
       <use xlink:href="#Calibri-30"/>
       <use xlink:href="#Calibri-2e" x="50.683594"/>
       <use xlink:href="#Calibri-34" x="75.927734"/>
      </g>
     </g>
    </g>
    <g id="ytick_14">
     <g id="line2d_25">
      <g>
       <use xlink:href="#mf9211331c8" x="374.4576" y="174.528" style="stroke: #000000; stroke-width: 0.8"/>
      </g>
     </g>
     <g id="text_28">
      <!-- 0.5 -->
      <g transform="translate(381.4576 177.928781) scale(0.1 -0.1)">
       <use xlink:href="#Calibri-30"/>
       <use xlink:href="#Calibri-2e" x="50.683594"/>
       <use xlink:href="#Calibri-35" x="75.927734"/>
      </g>
     </g>
    </g>
    <g id="ytick_15">
     <g id="line2d_26">
      <g>
       <use xlink:href="#mf9211331c8" x="374.4576" y="147.9168" style="stroke: #000000; stroke-width: 0.8"/>
      </g>
     </g>
     <g id="text_29">
      <!-- 0.6 -->
      <g transform="translate(381.4576 151.317581) scale(0.1 -0.1)">
       <use xlink:href="#Calibri-30"/>
       <use xlink:href="#Calibri-2e" x="50.683594"/>
       <use xlink:href="#Calibri-36" x="75.927734"/>
      </g>
     </g>
    </g>
    <g id="ytick_16">
     <g id="line2d_27">
      <g>
       <use xlink:href="#mf9211331c8" x="374.4576" y="121.3056" style="stroke: #000000; stroke-width: 0.8"/>
      </g>
     </g>
     <g id="text_30">
      <!-- 0.7 -->
      <g transform="translate(381.4576 124.706381) scale(0.1 -0.1)">
       <use xlink:href="#Calibri-30"/>
       <use xlink:href="#Calibri-2e" x="50.683594"/>
       <use xlink:href="#Calibri-37" x="75.927734"/>
      </g>
     </g>
    </g>
    <g id="ytick_17">
     <g id="line2d_28">
      <g>
       <use xlink:href="#mf9211331c8" x="374.4576" y="94.6944" style="stroke: #000000; stroke-width: 0.8"/>
      </g>
     </g>
     <g id="text_31">
      <!-- 0.8 -->
      <g transform="translate(381.4576 98.095181) scale(0.1 -0.1)">
       <use xlink:href="#Calibri-30"/>
       <use xlink:href="#Calibri-2e" x="50.683594"/>
       <use xlink:href="#Calibri-38" x="75.927734"/>
      </g>
     </g>
    </g>
    <g id="ytick_18">
     <g id="line2d_29">
      <g>
       <use xlink:href="#mf9211331c8" x="374.4576" y="68.0832" style="stroke: #000000; stroke-width: 0.8"/>
      </g>
     </g>
     <g id="text_32">
      <!-- 0.9 -->
      <g transform="translate(381.4576 71.483981) scale(0.1 -0.1)">
       <use xlink:href="#Calibri-30"/>
       <use xlink:href="#Calibri-2e" x="50.683594"/>
       <use xlink:href="#Calibri-39" x="75.927734"/>
      </g>
     </g>
    </g>
    <g id="ytick_19">
     <g id="line2d_30">
      <g>
       <use xlink:href="#mf9211331c8" x="374.4576" y="41.472" style="stroke: #000000; stroke-width: 0.8"/>
      </g>
     </g>
     <g id="text_33">
      <!-- 1.0 -->
      <g transform="translate(381.4576 44.872781) scale(0.1 -0.1)">
       <use xlink:href="#Calibri-31"/>
       <use xlink:href="#Calibri-2e" x="50.683594"/>
       <use xlink:href="#Calibri-30" x="75.927734"/>
      </g>
     </g>
    </g>
   </g>
   <g id="LineCollection_1"/>
   <g id="patch_8">
    <path d="M 361.152 307.584 
L 367.8048 307.584 
L 374.4576 307.584 
L 374.4576 41.472 
L 367.8048 41.472 
L 361.152 41.472 
L 361.152 307.584 
z
" style="fill: none; stroke: #000000; stroke-width: 0.8; stroke-linejoin: miter; stroke-linecap: square"/>
   </g>
   <g id="text_34">
    <!-- $\mathit{E}_{\mathrm{dis}}$/$\mathit{E}_{\mathrm{i}}$ -->
    <g transform="translate(353.2548 35.472) scale(0.1 -0.1)">
     <defs>
      <path id="DejaVuSans-Oblique-45" d="M 1081 4666 
L 4031 4666 
L 3928 4134 
L 1606 4134 
L 1338 2753 
L 3566 2753 
L 3463 2222 
L 1234 2222 
L 909 531 
L 3284 531 
L 3181 0 
L 172 0 
L 1081 4666 
z
" transform="scale(0.015625)"/>
      <path id="DejaVuSans-64" d="M 2906 2969 
L 2906 4863 
L 3481 4863 
L 3481 0 
L 2906 0 
L 2906 525 
Q 2725 213 2448 61 
Q 2172 -91 1784 -91 
Q 1150 -91 751 415 
Q 353 922 353 1747 
Q 353 2572 751 3078 
Q 1150 3584 1784 3584 
Q 2172 3584 2448 3432 
Q 2725 3281 2906 2969 
z
M 947 1747 
Q 947 1113 1208 752 
Q 1469 391 1925 391 
Q 2381 391 2643 752 
Q 2906 1113 2906 1747 
Q 2906 2381 2643 2742 
Q 2381 3103 1925 3103 
Q 1469 3103 1208 2742 
Q 947 2381 947 1747 
z
" transform="scale(0.015625)"/>
      <path id="DejaVuSans-69" d="M 603 3500 
L 1178 3500 
L 1178 0 
L 603 0 
L 603 3500 
z
M 603 4863 
L 1178 4863 
L 1178 4134 
L 603 4134 
L 603 4863 
z
" transform="scale(0.015625)"/>
      <path id="DejaVuSans-73" d="M 2834 3397 
L 2834 2853 
Q 2591 2978 2328 3040 
Q 2066 3103 1784 3103 
Q 1356 3103 1142 2972 
Q 928 2841 928 2578 
Q 928 2378 1081 2264 
Q 1234 2150 1697 2047 
L 1894 2003 
Q 2506 1872 2764 1633 
Q 3022 1394 3022 966 
Q 3022 478 2636 193 
Q 2250 -91 1575 -91 
Q 1294 -91 989 -36 
Q 684 19 347 128 
L 347 722 
Q 666 556 975 473 
Q 1284 391 1588 391 
Q 1994 391 2212 530 
Q 2431 669 2431 922 
Q 2431 1156 2273 1281 
Q 2116 1406 1581 1522 
L 1381 1569 
Q 847 1681 609 1914 
Q 372 2147 372 2553 
Q 372 3047 722 3315 
Q 1072 3584 1716 3584 
Q 2034 3584 2315 3537 
Q 2597 3491 2834 3397 
z
" transform="scale(0.015625)"/>
     </defs>
     <use xlink:href="#DejaVuSans-Oblique-45" transform="translate(0 0.09375)"/>
     <use xlink:href="#DejaVuSans-64" transform="translate(63.183594 -16.3125) scale(0.7)"/>
     <use xlink:href="#DejaVuSans-69" transform="translate(107.617188 -16.3125) scale(0.7)"/>
     <use xlink:href="#DejaVuSans-73" transform="translate(127.06543 -16.3125) scale(0.7)"/>
     <use xlink:href="#Calibri-2f" transform="translate(166.269531 0.09375)"/>
     <use xlink:href="#DejaVuSans-Oblique-45" transform="translate(204.892578 0.09375)"/>
     <use xlink:href="#DejaVuSans-69" transform="translate(268.076172 -16.3125) scale(0.7)"/>
    </g>
   </g>
  </g>
 </g>
 <defs>
  <clipPath id="p3cfb0930f0">
   <rect x="57.6" y="41.472" width="285.696" height="266.112"/>
  </clipPath>
  <clipPath id="p8980a3d54d">
   <rect x="361.152" y="41.472" width="13.3056" height="266.112"/>
  </clipPath>
 </defs>
</svg>
