<?xml version="1.0" encoding="utf-8" standalone="no"?>
<!DOCTYPE svg PUBLIC "-//W3C//DTD SVG 1.1//EN"
  "http://www.w3.org/Graphics/SVG/1.1/DTD/svg11.dtd">
<svg xmlns:xlink="http://www.w3.org/1999/xlink" width="460.8pt" height="345.6pt" viewBox="0 0 460.8 345.6" xmlns="http://www.w3.org/2000/svg" version="1.1">
 <metadata>
  <rdf:RDF xmlns:dc="http://purl.org/dc/elements/1.1/" xmlns:cc="http://creativecommons.org/ns#" xmlns:rdf="http://www.w3.org/1999/02/22-rdf-syntax-ns#">
   <cc:Work>
    <dc:type rdf:resource="http://purl.org/dc/dcmitype/StillImage"/>
    <dc:date>2024-01-22T08:41:40.383045</dc:date>
    <dc:format>image/svg+xml</dc:format>
    <dc:creator>
     <cc:Agent>
      <dc:title>Matplotlib v3.7.1, https://matplotlib.org/</dc:title>
     </cc:Agent>
    </dc:creator>
   </cc:Work>
  </rdf:RDF>
 </metadata>
 <defs>
  <style type="text/css">*{stroke-linejoin: round; stroke-linecap: butt}</style>
 </defs>
 <g id="figure_1">
  <g id="patch_1">
   <path d="M 0 345.6 
L 460.8 345.6 
L 460.8 0 
L 0 0 
z
" style="fill: #ffffff"/>
  </g>
  <g id="axes_1">
   <g id="patch_2">
    <path d="M 57.6 307.584 
L 343.296 307.584 
L 343.296 41.472 
L 57.6 41.472 
z
" style="fill: #ffffff"/>
   </g>
   <g id="PathCollection_1">
    <path clip-path="url(#p684d0bc317)" style="fill: #0000b6"/>
   </g>
   <g id="PathCollection_2">
    <path clip-path="url(#p684d0bc317)" style="fill: #0018ff"/>
   </g>
   <g id="PathCollection_3">
    <path d="M 57.62857 102.54065 
L 57.912391 101.966808 
L 58.211874 101.3472 
L 58.495162 100.752989 
L 58.67626 100.37292 
L 59.459108 98.690629 
L 59.767042 98.0208 
L 60.406271 96.599244 
L 60.821262 95.66868 
L 60.876267 95.547013 
L 61.253094 94.6944 
L 61.516471 94.076575 
L 61.670872 93.72012 
L 62.441565 91.896 
L 62.662189 91.368 
L 63.386855 89.594167 
L 63.621367 89.01588 
L 63.706224 88.803669 
L 64.015645 88.0416 
L 64.214958 87.53113 
L 64.334893 87.216696 
L 64.393794 87.06732 
L 65.274375 84.774678 
L 65.296992 84.7152 
L 65.511352 84.138379 
L 66.173076 82.36308 
L 66.210492 82.259935 
L 66.533134 81.3888 
L 66.803933 80.618869 
L 66.87699 80.41452 
L 67.098227 79.787869 
L 67.703759 78.0624 
L 67.956661 77.324751 
L 68.505443 75.71028 
L 68.704734 75.106912 
L 68.830202 74.736 
L 68.930888 74.421295 
L 69.051106 74.051876 
L 69.147522 73.76172 
L 69.240312 73.474275 
L 69.697231 72.047506 
L 69.84952 71.574323 
L 69.90226 71.4096 
L 70.486301 69.541581 
L 70.63652 69.05748 
L 70.775644 68.595316 
L 70.934709 68.0832 
L 70.987044 67.907664 
L 71.020558 67.792552 
L 71.228148 67.10892 
L 71.694324 65.526004 
L 71.919301 64.7568 
L 72.487834 62.765331 
L 72.590365 62.40468 
L 72.618075 62.306426 
L 72.869491 61.4304 
L 73.104099 60.558927 
L 73.132281 60.45612 
L 73.23814 60.066979 
L 73.770156 58.104 
L 73.996809 57.246935 
L 74.390014 55.75188 
L 74.591336 54.960202 
L 74.639374 54.7776 
L 74.711608 54.48624 
L 74.887754 53.80332 
L 75.091855 52.984718 
L 75.472359 51.4512 
L 75.719412 50.430305 
L 76.04068 49.09908 
L 76.075525 48.958688 
L 76.277756 48.1248 
L 76.475482 47.25549 
L 76.500303 47.15052 
L 76.640067 46.537796 
L 77.040987 44.7984 
L 77.171265 44.218658 
L 77.568205 42.44628 
L 77.722627 41.73044 
L 77.779166 41.472 
L 77.436826 41.472 
L 75.913114 41.472 
L 74.389402 41.472 
L 72.86569 41.472 
L 71.341978 41.472 
L 69.818266 41.472 
L 68.294554 41.472 
L 66.770842 41.472 
L 65.24713 41.472 
L 63.723418 41.472 
L 62.199706 41.472 
L 60.675994 41.472 
L 59.152282 41.472 
L 57.62857 41.472 
L 57.62857 44.7984 
L 57.62857 48.1248 
L 57.62857 51.4512 
L 57.62857 54.7776 
L 57.62857 58.104 
L 57.62857 61.4304 
L 57.62857 64.7568 
L 57.62857 68.0832 
L 57.62857 71.4096 
L 57.62857 74.736 
L 57.62857 78.0624 
L 57.62857 81.3888 
L 57.62857 84.7152 
L 57.62857 88.0416 
L 57.62857 91.368 
L 57.62857 94.6944 
L 57.62857 98.0208 
L 57.62857 101.3472 
" clip-path="url(#p684d0bc317)" style="fill: #0080ff"/>
   </g>
   <g id="PathCollection_4">
    <path d="M 77.779166 41.472 
L 77.722627 41.73044 
L 77.568205 42.44628 
L 77.171265 44.218658 
L 77.040987 44.7984 
L 76.640067 46.537796 
L 76.500303 47.15052 
L 76.475482 47.25549 
L 76.277756 48.1248 
L 76.075525 48.958688 
L 76.04068 49.09908 
L 75.719412 50.430305 
L 75.472359 51.4512 
L 75.091855 52.984718 
L 74.887754 53.80332 
L 74.711608 54.48624 
L 74.639374 54.7776 
L 74.591336 54.960202 
L 74.390014 55.75188 
L 73.996809 57.246935 
L 73.770156 58.104 
L 73.23814 60.066979 
L 73.132281 60.45612 
L 73.104099 60.558927 
L 72.869491 61.4304 
L 72.618075 62.306426 
L 72.590365 62.40468 
L 72.487834 62.765331 
L 71.919301 64.7568 
L 71.694324 65.526004 
L 71.228148 67.10892 
L 71.020558 67.792552 
L 70.987044 67.907664 
L 70.934709 68.0832 
L 70.775644 68.595316 
L 70.63652 69.05748 
L 70.486301 69.541581 
L 69.90226 71.4096 
L 69.84952 71.574323 
L 69.697231 72.047506 
L 69.240312 73.474275 
L 69.147522 73.76172 
L 69.051106 74.051876 
L 68.930888 74.421295 
L 68.830202 74.736 
L 68.704734 75.106912 
L 68.505443 75.71028 
L 67.956661 77.324751 
L 67.703759 78.0624 
L 67.098227 79.787869 
L 66.87699 80.41452 
L 66.803933 80.618869 
L 66.533134 81.3888 
L 66.210492 82.259935 
L 66.173076 82.36308 
L 65.511352 84.138379 
L 65.296992 84.7152 
L 65.274375 84.774678 
L 64.393794 87.06732 
L 64.334893 87.216696 
L 64.214958 87.53113 
L 64.015645 88.0416 
L 63.706224 88.803669 
L 63.621367 89.01588 
L 63.386855 89.594167 
L 62.662189 91.368 
L 62.441565 91.896 
L 61.670872 93.72012 
L 61.516471 94.076575 
L 61.253094 94.6944 
L 60.876267 95.547013 
L 60.821262 95.66868 
L 60.406271 96.599244 
L 59.767042 98.0208 
L 59.459108 98.690629 
L 58.67626 100.37292 
L 58.495162 100.752989 
L 58.211874 101.3472 
L 57.912391 101.966808 
L 57.62857 102.54065 
L 57.62857 104.6736 
L 57.62857 108 
L 57.62857 111.3264 
L 57.62857 114.6528 
L 57.62857 117.9792 
L 57.62857 121.3056 
L 57.62857 124.632 
L 57.62857 127.9584 
L 57.62857 131.2848 
L 57.62857 134.6112 
L 57.62857 137.9376 
L 57.62857 141.264 
L 57.62857 144.5904 
L 57.62857 147.9168 
L 57.62857 150.298779 
L 57.851797 150.066692 
L 58.367984 149.531008 
L 58.97119 148.89108 
L 59.544807 148.271748 
L 59.873607 147.9168 
L 60.594643 147.123002 
L 60.754659 146.94252 
L 61.057772 146.602544 
L 61.518939 146.076575 
L 62.416405 145.063475 
L 62.826827 144.5904 
L 63.559851 143.728331 
L 63.982921 143.2227 
L 64.397378 142.735315 
L 64.811571 142.23828 
L 65.454814 141.451801 
L 65.608742 141.264 
L 66.371513 140.312943 
L 66.389695 140.28972 
L 67.056565 139.443489 
L 68.225545 137.9376 
L 68.26861 137.880963 
L 68.402957 137.700945 
L 69.497251 136.245713 
L 69.98658 135.58548 
L 70.331306 135.111037 
L 70.698551 134.6112 
L 70.950511 134.25721 
L 71.393996 133.63692 
L 72.014064 132.752024 
L 72.805403 131.602539 
L 72.900201 131.466689 
L 73.02542 131.2848 
L 73.837421 130.079776 
L 74.597244 128.93268 
L 74.918734 128.437057 
L 75.23118 127.9584 
L 75.758824 127.128529 
L 75.848471 126.98412 
L 76.240589 126.357942 
L 77.308267 124.632 
L 77.38144 124.511089 
L 77.860862 123.70629 
L 78.562353 122.533389 
L 78.712201 122.27988 
L 78.791831 122.142601 
L 79.28371 121.3056 
L 79.690249 120.587612 
L 79.836672 120.33132 
L 80.784464 118.634596 
L 81.145147 117.9792 
L 81.78302 116.793659 
L 82.404093 115.62708 
L 82.697893 115.065154 
L 82.916493 114.6528 
L 83.041122 114.410193 
L 83.110474 114.271924 
L 83.41614 113.67852 
L 84.040533 112.437285 
L 84.591766 111.3264 
L 84.924995 110.639185 
L 85.356049 109.741769 
L 85.611686 109.214455 
L 85.726595 108.97428 
L 85.890857 108.622352 
L 86.064549 108.254475 
L 86.186464 108 
L 86.259603 107.841991 
L 86.301598 107.749066 
L 86.63812 107.02572 
L 87.144914 105.908827 
L 87.698457 104.6736 
L 87.980534 104.029151 
L 88.415029 103.028064 
L 88.638658 102.517005 
L 88.723195 102.32148 
L 88.830308 102.067189 
L 89.139825 101.3472 
L 89.223144 101.147706 
L 89.272376 101.026958 
L 89.547624 100.37292 
L 90.0937 99.040692 
L 90.507055 98.0208 
L 90.941771 96.92211 
L 91.434025 95.66868 
L 91.606791 95.222171 
L 91.814297 94.6944 
L 91.94948 94.336109 
L 92.031483 94.113443 
L 92.181432 93.72012 
L 92.883725 91.825967 
L 93.051811 91.368 
L 93.800831 89.276548 
L 93.893577 89.01588 
L 93.923452 88.930777 
L 94.240845 88.0416 
L 94.454607 87.415111 
L 94.570417 87.06732 
L 94.617575 86.928352 
L 95.364109 84.7152 
L 95.513455 84.261303 
L 96.132653 82.36308 
L 96.280839 81.894709 
L 96.345729 81.697583 
L 96.445 81.3888 
L 96.725409 80.480882 
L 96.746546 80.41452 
L 96.767588 80.346389 
L 96.883504 79.968077 
L 97.330899 78.514697 
L 97.469419 78.0624 
L 97.982163 76.345115 
L 98.170297 75.71028 
L 98.338078 75.125482 
L 98.398853 74.918957 
L 98.453659 74.736 
L 98.492473 74.599343 
L 98.517557 74.508816 
L 98.733988 73.76172 
L 99.156292 72.255543 
L 99.391871 71.4096 
L 99.921908 69.456384 
L 100.02972 69.05748 
L 100.057767 68.952858 
L 100.295228 68.0832 
L 100.467095 67.415979 
L 100.54424 67.10892 
L 100.656334 66.674339 
L 101.149188 64.7568 
L 101.384918 63.815235 
L 101.736209 62.40468 
L 101.942753 61.544822 
L 101.970546 61.4304 
L 102.012816 61.252623 
L 102.207188 60.45612 
L 102.440145 59.46609 
L 102.759195 58.104 
L 103.076185 56.713948 
L 103.33993 55.540281 
L 103.33993 54.7776 
L 103.33993 51.4512 
L 103.33993 48.1248 
L 103.33993 44.7984 
L 103.33993 41.472 
L 101.816218 41.472 
L 100.292506 41.472 
L 98.768794 41.472 
L 97.245082 41.472 
L 95.72137 41.472 
L 94.197658 41.472 
L 92.673946 41.472 
L 91.150234 41.472 
L 89.626522 41.472 
L 88.10281 41.472 
L 86.579098 41.472 
L 85.055386 41.472 
L 83.531674 41.472 
L 82.007962 41.472 
L 80.48425 41.472 
L 78.960538 41.472 
" clip-path="url(#p684d0bc317)" style="fill: #00e4f8"/>
   </g>
   <g id="PathCollection_5">
    <path d="M 103.33993 55.540281 
L 103.076185 56.713948 
L 102.759195 58.104 
L 102.440145 59.46609 
L 102.207188 60.45612 
L 102.012816 61.252623 
L 101.970546 61.4304 
L 101.942753 61.544822 
L 101.736209 62.40468 
L 101.384918 63.815235 
L 101.149188 64.7568 
L 100.656334 66.674339 
L 100.54424 67.10892 
L 100.467095 67.415979 
L 100.295228 68.0832 
L 100.057767 68.952858 
L 100.02972 69.05748 
L 99.921908 69.456384 
L 99.391871 71.4096 
L 99.156292 72.255543 
L 98.733988 73.76172 
L 98.517557 74.508816 
L 98.492473 74.599343 
L 98.453659 74.736 
L 98.398853 74.918957 
L 98.338078 75.125482 
L 98.170297 75.71028 
L 97.982163 76.345115 
L 97.469419 78.0624 
L 97.330899 78.514697 
L 96.883504 79.968077 
L 96.767588 80.346389 
L 96.746546 80.41452 
L 96.725409 80.480882 
L 96.445 81.3888 
L 96.345729 81.697583 
L 96.280839 81.894709 
L 96.132653 82.36308 
L 95.513455 84.261303 
L 95.364109 84.7152 
L 94.617575 86.928352 
L 94.570417 87.06732 
L 94.454607 87.415111 
L 94.240845 88.0416 
L 93.923452 88.930777 
L 93.893577 89.01588 
L 93.800831 89.276548 
L 93.051811 91.368 
L 92.883725 91.825967 
L 92.181432 93.72012 
L 92.031483 94.113443 
L 91.94948 94.336109 
L 91.814297 94.6944 
L 91.606791 95.222171 
L 91.434025 95.66868 
L 90.941771 96.92211 
L 90.507055 98.0208 
L 90.0937 99.040692 
L 89.547624 100.37292 
L 89.272376 101.026958 
L 89.223144 101.147706 
L 89.139825 101.3472 
L 88.830308 102.067189 
L 88.723195 102.32148 
L 88.638658 102.517005 
L 88.415029 103.028064 
L 87.980534 104.029151 
L 87.698457 104.6736 
L 87.144914 105.908827 
L 86.63812 107.02572 
L 86.301598 107.749066 
L 86.259603 107.841991 
L 86.186464 108 
L 86.064549 108.254475 
L 85.890857 108.622352 
L 85.726595 108.97428 
L 85.611686 109.214455 
L 85.356049 109.741769 
L 84.924995 110.639185 
L 84.591766 111.3264 
L 84.040533 112.437285 
L 83.41614 113.67852 
L 83.110474 114.271924 
L 83.041122 114.410193 
L 82.916493 114.6528 
L 82.697893 115.065154 
L 82.404093 115.62708 
L 81.78302 116.793659 
L 81.145147 117.9792 
L 80.784464 118.634596 
L 79.836672 120.33132 
L 79.690249 120.587612 
L 79.28371 121.3056 
L 78.791831 122.142601 
L 78.712201 122.27988 
L 78.562353 122.533389 
L 77.860862 123.70629 
L 77.38144 124.511089 
L 77.308267 124.632 
L 76.240589 126.357942 
L 75.848471 126.98412 
L 75.758824 127.128529 
L 75.23118 127.9584 
L 74.918734 128.437057 
L 74.597244 128.93268 
L 73.837421 130.079776 
L 73.02542 131.2848 
L 72.900201 131.466689 
L 72.805403 131.602539 
L 72.014064 132.752024 
L 71.393996 133.63692 
L 70.950511 134.25721 
L 70.698551 134.6112 
L 70.331306 135.111037 
L 69.98658 135.58548 
L 69.497251 136.245713 
L 68.402957 137.700945 
L 68.26861 137.880963 
L 68.225545 137.9376 
L 67.056565 139.443489 
L 66.389695 140.28972 
L 66.371513 140.312943 
L 65.608742 141.264 
L 65.454814 141.451801 
L 64.811571 142.23828 
L 64.397378 142.735315 
L 63.982921 143.2227 
L 63.559851 143.728331 
L 62.826827 144.5904 
L 62.416405 145.063475 
L 61.518939 146.076575 
L 61.057772 146.602544 
L 60.754659 146.94252 
L 60.594643 147.123002 
L 59.873607 147.9168 
L 59.544807 148.271748 
L 58.97119 148.89108 
L 58.367984 149.531008 
L 57.851797 150.066692 
L 57.62857 150.298779 
L 57.62857 151.2432 
L 57.62857 154.5696 
L 57.62857 157.896 
L 57.62857 161.2224 
L 57.62857 164.5488 
L 57.62857 167.8752 
L 57.62857 171.2016 
L 57.62857 174.528 
L 57.62857 177.8544 
L 57.62857 181.1808 
L 57.62857 184.5072 
L 57.62857 185.033839 
L 57.719347 184.985637 
L 58.561986 184.5072 
L 59.028837 184.23771 
L 59.368649 184.034851 
L 60.46516 183.396011 
L 60.940997 183.110516 
L 61.42957 182.825924 
L 62.543272 182.15508 
L 62.981265 181.887537 
L 64.128491 181.1808 
L 64.788467 180.766048 
L 65.671573 180.20652 
L 66.176025 179.882262 
L 66.416326 179.722856 
L 67.048 179.315149 
L 67.877414 178.765054 
L 68.520531 178.34773 
L 69.257262 177.8544 
L 69.754008 177.515734 
L 69.9022 177.412027 
L 70.844955 176.769356 
L 72.310851 175.739263 
L 72.446633 175.645788 
L 72.649738 175.50228 
L 72.922889 175.309854 
L 74.004036 174.528 
L 74.159825 174.414461 
L 74.216744 174.371871 
L 75.324623 173.55372 
L 75.43046 173.474324 
L 75.490718 173.42781 
L 76.229853 172.870959 
L 76.914048 172.34287 
L 77.690201 171.754742 
L 78.399667 171.2016 
L 78.887043 170.814252 
L 79.06086 170.672857 
L 79.926805 169.984647 
L 81.316297 168.84948 
L 81.444196 168.743246 
L 81.743605 168.498026 
L 82.484768 167.8752 
L 82.870352 167.548138 
L 83.023023 167.415245 
L 83.622502 166.90092 
L 84.327352 166.285838 
L 84.807378 165.85591 
L 85.232664 165.483136 
L 86.275876 164.5488 
L 86.48962 164.353463 
L 86.803183 164.059601 
L 87.830018 163.111066 
L 88.494506 162.484384 
L 88.625464 162.363402 
L 88.801461 162.19668 
L 89.722096 161.308825 
L 89.811516 161.2224 
L 90.768442 160.280016 
L 90.800013 160.24812 
L 91.46886 159.575302 
L 92.290867 158.732296 
L 92.814252 158.202302 
L 93.10965 157.896 
L 94.015603 156.936491 
L 94.473441 156.442498 
L 94.865388 156.027315 
L 95.311415 155.54388 
L 95.980899 154.804283 
L 96.193314 154.5696 
L 96.978277 153.684084 
L 97.054994 153.59532 
L 97.577298 152.994129 
L 98.417446 152.010223 
L 98.876428 151.478175 
L 99.074784 151.2432 
L 100.064989 150.044087 
L 100.658732 149.313023 
L 100.834529 149.100087 
L 101.003497 148.89108 
L 101.672011 148.047201 
L 101.775921 147.9168 
L 101.792572 147.895418 
L 102.536351 146.94252 
L 102.759796 146.650317 
L 103.013236 146.312221 
L 103.33993 145.876951 
L 103.33993 144.5904 
L 103.33993 141.264 
L 103.33993 137.9376 
L 103.33993 134.6112 
L 103.33993 131.2848 
L 103.33993 127.9584 
L 103.33993 124.632 
L 103.33993 121.3056 
L 103.33993 117.9792 
L 103.33993 114.6528 
L 103.33993 111.3264 
L 103.33993 108 
L 103.33993 104.6736 
L 103.33993 101.3472 
L 103.33993 98.0208 
L 103.33993 94.6944 
L 103.33993 91.368 
L 103.33993 88.0416 
L 103.33993 84.7152 
L 103.33993 81.3888 
L 103.33993 78.0624 
L 103.33993 74.736 
L 103.33993 71.4096 
L 103.33993 68.0832 
L 103.33993 64.7568 
L 103.33993 61.4304 
L 103.33993 58.104 
" clip-path="url(#p684d0bc317)" style="fill: #53ffa4"/>
   </g>
   <g id="PathCollection_6">
    <path d="M 103.33993 145.876951 
L 103.013236 146.312221 
L 102.759796 146.650317 
L 102.536351 146.94252 
L 101.792572 147.895418 
L 101.775921 147.9168 
L 101.672011 148.047201 
L 101.003497 148.89108 
L 100.834529 149.100087 
L 100.658732 149.313023 
L 100.064989 150.044087 
L 99.074784 151.2432 
L 98.876428 151.478175 
L 98.417446 152.010223 
L 97.577298 152.994129 
L 97.054994 153.59532 
L 96.978277 153.684084 
L 96.193314 154.5696 
L 95.980899 154.804283 
L 95.311415 155.54388 
L 94.865388 156.027315 
L 94.473441 156.442498 
L 94.015603 156.936491 
L 93.10965 157.896 
L 92.814252 158.202302 
L 92.290867 158.732296 
L 91.46886 159.575302 
L 90.800013 160.24812 
L 90.768442 160.280016 
L 89.811516 161.2224 
L 89.722096 161.308825 
L 88.801461 162.19668 
L 88.625464 162.363402 
L 88.494506 162.484384 
L 87.830018 163.111066 
L 86.803183 164.059601 
L 86.48962 164.353463 
L 86.275876 164.5488 
L 85.232664 165.483136 
L 84.807378 165.85591 
L 84.327352 166.285838 
L 83.622502 166.90092 
L 83.023023 167.415245 
L 82.870352 167.548138 
L 82.484768 167.8752 
L 81.743605 168.498026 
L 81.444196 168.743246 
L 81.316297 168.84948 
L 79.926805 169.984647 
L 79.06086 170.672857 
L 78.887043 170.814252 
L 78.399667 171.2016 
L 77.690201 171.754742 
L 76.914048 172.34287 
L 76.229853 172.870959 
L 75.490718 173.42781 
L 75.43046 173.474324 
L 75.324623 173.55372 
L 74.216744 174.371871 
L 74.159825 174.414461 
L 74.004036 174.528 
L 72.922889 175.309854 
L 72.649738 175.50228 
L 72.446633 175.645788 
L 72.310851 175.739263 
L 70.844955 176.769356 
L 69.9022 177.412027 
L 69.754008 177.515734 
L 69.257262 177.8544 
L 68.520531 178.34773 
L 67.877414 178.765054 
L 67.048 179.315149 
L 66.416326 179.722856 
L 66.176025 179.882262 
L 65.671573 180.20652 
L 64.788467 180.766048 
L 64.128491 181.1808 
L 62.981265 181.887537 
L 62.543272 182.15508 
L 61.42957 182.825924 
L 60.940997 183.110516 
L 60.46516 183.396011 
L 59.368649 184.034851 
L 59.028837 184.23771 
L 58.561986 184.5072 
L 57.719347 184.985637 
L 57.62857 185.033839 
L 57.62857 187.8336 
L 57.62857 191.16 
L 57.62857 194.4864 
L 57.62857 197.8128 
L 57.62857 201.1392 
L 57.62857 204.4656 
L 57.62857 207.792 
L 57.62857 211.1184 
L 57.62857 213.129533 
L 57.990813 213.027583 
L 58.32546 212.923425 
L 59.781007 212.490963 
L 60.455727 212.279303 
L 60.872673 212.154989 
L 61.867812 211.842953 
L 62.451553 211.668206 
L 63.69358 211.275657 
L 63.750037 211.258696 
L 64.194122 211.1184 
L 65.112442 210.824365 
L 65.431026 210.716938 
L 66.621738 210.332556 
L 66.94042 210.224646 
L 67.763486 209.959033 
L 69.021446 209.531528 
L 69.488351 209.379604 
L 70.193864 209.138827 
L 70.403905 209.070503 
L 71.292059 208.76628 
L 72.107179 208.483945 
L 74.069872 207.792 
L 74.298774 207.710049 
L 74.602284 207.599498 
L 76.019497 207.091047 
L 76.47497 206.922228 
L 76.759517 206.81772 
L 78.258979 206.260434 
L 78.648818 206.108499 
L 79.231038 205.891255 
L 79.9616 205.606592 
L 80.853712 205.272169 
L 81.935615 204.846899 
L 82.070664 204.79607 
L 82.911555 204.4656 
L 83.435789 204.256275 
L 83.67295 204.15718 
L 84.902845 203.661641 
L 85.234333 203.522469 
L 86.004882 203.212035 
L 87.428144 202.612055 
L 87.727993 202.49015 
L 88.543142 202.144853 
L 88.560275 202.137888 
L 88.617657 202.11348 
L 90.030555 201.504553 
L 90.210223 201.427875 
L 90.86596 201.1392 
L 92.07752 200.599873 
L 93.040781 200.16492 
L 93.628205 199.896035 
L 93.819736 199.804613 
L 94.514937 199.485006 
L 95.078635 199.215948 
L 96.139525 198.725671 
L 97.1657 198.231178 
L 97.311613 198.163448 
L 98.039278 197.8128 
L 98.634933 197.52057 
L 98.984407 197.342097 
L 100.098472 196.790155 
L 100.528425 196.5694 
L 101.113799 196.279356 
L 102.701192 195.46068 
L 102.823091 195.396881 
L 102.955064 195.326596 
L 103.33993 195.11846 
L 103.33993 194.4864 
L 103.33993 191.16 
L 103.33993 187.8336 
L 103.33993 184.5072 
L 103.33993 181.1808 
L 103.33993 177.8544 
L 103.33993 174.528 
L 103.33993 171.2016 
L 103.33993 167.8752 
L 103.33993 164.5488 
L 103.33993 161.2224 
L 103.33993 157.896 
L 103.33993 154.5696 
L 103.33993 151.2432 
L 103.33993 147.9168 
" clip-path="url(#p684d0bc317)" style="fill: #a4ff53"/>
   </g>
   <g id="PathCollection_7">
    <path d="M 103.33993 195.11846 
L 102.955064 195.326596 
L 102.823091 195.396881 
L 102.701192 195.46068 
L 101.113799 196.279356 
L 100.528425 196.5694 
L 100.098472 196.790155 
L 98.984407 197.342097 
L 98.634933 197.52057 
L 98.039278 197.8128 
L 97.311613 198.163448 
L 97.1657 198.231178 
L 96.139525 198.725671 
L 95.078635 199.215948 
L 94.514937 199.485006 
L 93.819736 199.804613 
L 93.628205 199.896035 
L 93.040781 200.16492 
L 92.07752 200.599873 
L 90.86596 201.1392 
L 90.210223 201.427875 
L 90.030555 201.504553 
L 88.617657 202.11348 
L 88.560275 202.137888 
L 88.543142 202.144853 
L 87.727993 202.49015 
L 87.428144 202.612055 
L 86.004882 203.212035 
L 85.234333 203.522469 
L 84.902845 203.661641 
L 83.67295 204.15718 
L 83.435789 204.256275 
L 82.911555 204.4656 
L 82.070664 204.79607 
L 81.935615 204.846899 
L 80.853712 205.272169 
L 79.9616 205.606592 
L 79.231038 205.891255 
L 78.648818 206.108499 
L 78.258979 206.260434 
L 76.759517 206.81772 
L 76.47497 206.922228 
L 76.019497 207.091047 
L 74.602284 207.599498 
L 74.298774 207.710049 
L 74.069872 207.792 
L 72.107179 208.483945 
L 71.292059 208.76628 
L 70.403905 209.070503 
L 70.193864 209.138827 
L 69.488351 209.379604 
L 69.021446 209.531528 
L 67.763486 209.959033 
L 66.94042 210.224646 
L 66.621738 210.332556 
L 65.431026 210.716938 
L 65.112442 210.824365 
L 64.194122 211.1184 
L 63.750037 211.258696 
L 63.69358 211.275657 
L 62.451553 211.668206 
L 61.867812 211.842953 
L 60.872673 212.154989 
L 60.455727 212.279303 
L 59.781007 212.490963 
L 58.32546 212.923425 
L 57.990813 213.027583 
L 57.62857 213.129533 
L 57.62857 214.4448 
L 57.62857 217.7712 
L 57.62857 221.0976 
L 57.62857 224.424 
L 57.62857 227.7504 
L 57.62857 231.0768 
L 57.62857 234.4032 
L 57.62857 237.640213 
L 57.645961 237.637937 
L 59.030591 237.463938 
L 59.290558 237.427731 
L 60.587613 237.263793 
L 60.769185 237.238442 
L 61.90883 237.094592 
L 62.530423 237.007614 
L 63.561589 236.876692 
L 63.894096 236.830049 
L 64.783422 236.717284 
L 65.774677 236.577917 
L 66.533949 236.481071 
L 67.020753 236.412454 
L 67.654247 236.331754 
L 69.023472 236.138306 
L 69.504638 236.076642 
L 70.149217 235.985337 
L 70.521181 235.937728 
L 72.27697 235.688427 
L 72.473599 235.663106 
L 73.279551 235.548367 
L 73.384093 235.534921 
L 74.487304 235.37748 
L 75.332495 235.256007 
L 75.938854 235.169496 
L 76.718912 235.052385 
L 77.956906 234.87349 
L 80.220678 234.533552 
L 80.363106 234.512746 
L 80.57185 234.482414 
L 81.096409 234.4032 
L 83.17987 234.085076 
L 84.032992 233.949875 
L 84.642644 233.853759 
L 85.778546 233.679289 
L 87.348933 233.42892 
L 87.635425 233.382857 
L 87.666295 233.377426 
L 88.513404 233.240815 
L 88.645931 233.217516 
L 90.471785 232.922085 
L 90.811529 232.861926 
L 91.468701 232.755265 
L 91.943589 232.671234 
L 93.3029 232.449864 
L 93.959336 232.332861 
L 94.421649 232.257334 
L 95.248034 232.110134 
L 96.128583 231.965784 
L 97.109816 231.78971 
L 97.372161 231.746565 
L 98.559535 231.533631 
L 98.948637 231.469414 
L 100.263072 231.231928 
L 100.320146 231.222478 
L 101.126903 231.0768 
L 101.762917 230.96044 
L 101.880208 230.937103 
L 103.264979 230.681779 
L 103.33993 230.665645 
L 103.33993 227.7504 
L 103.33993 224.424 
L 103.33993 221.0976 
L 103.33993 217.7712 
L 103.33993 214.4448 
L 103.33993 211.1184 
L 103.33993 207.792 
L 103.33993 204.4656 
L 103.33993 201.1392 
L 103.33993 197.8128 
" clip-path="url(#p684d0bc317)" style="fill: #f8f500"/>
   </g>
   <g id="PathCollection_8">
    <path d="M 103.33993 230.665645 
L 103.264979 230.681779 
L 101.880208 230.937103 
L 101.762917 230.96044 
L 101.126903 231.0768 
L 100.320146 231.222478 
L 100.263072 231.231928 
L 98.948637 231.469414 
L 98.559535 231.533631 
L 97.372161 231.746565 
L 97.109816 231.78971 
L 96.128583 231.965784 
L 95.248034 232.110134 
L 94.421649 232.257334 
L 93.959336 232.332861 
L 93.3029 232.449864 
L 91.943589 232.671234 
L 91.468701 232.755265 
L 90.811529 232.861926 
L 90.471785 232.922085 
L 88.645931 233.217516 
L 88.513404 233.240815 
L 87.666295 233.377426 
L 87.635425 233.382857 
L 87.348933 233.42892 
L 85.778546 233.679289 
L 84.642644 233.853759 
L 84.032992 233.949875 
L 83.17987 234.085076 
L 81.096409 234.4032 
L 80.57185 234.482414 
L 80.363106 234.512746 
L 80.220678 234.533552 
L 77.956906 234.87349 
L 76.718912 235.052385 
L 75.938854 235.169496 
L 75.332495 235.256007 
L 74.487304 235.37748 
L 73.384093 235.534921 
L 73.279551 235.548367 
L 72.473599 235.663106 
L 72.27697 235.688427 
L 70.521181 235.937728 
L 70.149217 235.985337 
L 69.504638 236.076642 
L 69.023472 236.138306 
L 67.654247 236.331754 
L 67.020753 236.412454 
L 66.533949 236.481071 
L 65.774677 236.577917 
L 64.783422 236.717284 
L 63.894096 236.830049 
L 63.561589 236.876692 
L 62.530423 237.007614 
L 61.90883 237.094592 
L 60.769185 237.238442 
L 60.587613 237.263793 
L 59.290558 237.427731 
L 59.030591 237.463938 
L 57.645961 237.637937 
L 57.62857 237.640213 
L 57.62857 237.7296 
L 57.62857 241.056 
L 57.62857 244.3824 
L 57.62857 247.7088 
L 57.62857 251.0352 
L 57.62857 254.3616 
L 57.62857 257.688 
L 57.62857 260.488286 
L 57.870694 260.485821 
L 58.563428 260.48192 
L 59.754071 260.470222 
L 61.085278 260.46325 
L 61.584874 260.458429 
L 62.827366 260.446828 
L 63.35701 260.442044 
L 64.607635 260.436127 
L 65.899258 260.424703 
L 67.092093 260.419712 
L 67.631738 260.415039 
L 68.969724 260.403867 
L 69.538305 260.399291 
L 70.657212 260.39519 
L 72.038738 260.384344 
L 72.624902 260.379918 
L 73.684086 260.376608 
L 75.106275 260.366156 
L 76.120804 260.363549 
L 76.712392 260.35932 
L 78.172306 260.34933 
L 78.789767 260.34529 
L 79.742162 260.343356 
L 81.236803 260.333892 
L 81.867939 260.330084 
L 82.773431 260.328748 
L 84.299735 260.319869 
L 85.173145 260.319073 
L 85.806235 260.315527 
L 87.361069 260.30729 
L 88.196158 260.307001 
L 88.840613 260.30373 
L 90.420771 260.296188 
L 91.08476 260.293215 
L 91.876605 260.293392 
L 93.478805 260.286593 
L 94.250991 260.287211 
L 94.914253 260.284553 
L 96.535133 260.278542 
L 97.282977 260.279576 
L 97.953603 260.277252 
L 99.589715 260.272069 
L 100.318129 260.273507 
L 100.994703 260.271533 
L 102.642508 260.267214 
L 102.998065 260.268078 
L 103.33993 260.264996 
L 103.33993 257.688 
L 103.33993 254.3616 
L 103.33993 251.0352 
L 103.33993 247.7088 
L 103.33993 244.3824 
L 103.33993 241.056 
L 103.33993 237.7296 
L 103.33993 234.4032 
L 103.33993 231.0768 
" clip-path="url(#p684d0bc317)" style="fill: #ff9400"/>
   </g>
   <g id="PathCollection_9">
    <path d="M 103.33993 260.264996 
L 102.998065 260.268078 
L 102.642508 260.267214 
L 100.994703 260.271533 
L 100.318129 260.273507 
L 99.589715 260.272069 
L 97.953603 260.277252 
L 97.282977 260.279576 
L 96.535133 260.278542 
L 94.914253 260.284553 
L 94.250991 260.287211 
L 93.478805 260.286593 
L 91.876605 260.293392 
L 91.08476 260.293215 
L 90.420771 260.296188 
L 88.840613 260.30373 
L 88.196158 260.307001 
L 87.361069 260.30729 
L 85.806235 260.315527 
L 85.173145 260.319073 
L 84.299735 260.319869 
L 82.773431 260.328748 
L 81.867939 260.330084 
L 81.236803 260.333892 
L 79.742162 260.343356 
L 78.789767 260.34529 
L 78.172306 260.34933 
L 76.712392 260.35932 
L 76.120804 260.363549 
L 75.106275 260.366156 
L 73.684086 260.376608 
L 72.624902 260.379918 
L 72.038738 260.384344 
L 70.657212 260.39519 
L 69.538305 260.399291 
L 68.969724 260.403867 
L 67.631738 260.415039 
L 67.092093 260.419712 
L 65.899258 260.424703 
L 64.607635 260.436127 
L 63.35701 260.442044 
L 62.827366 260.446828 
L 61.584874 260.458429 
L 61.085278 260.46325 
L 59.754071 260.470222 
L 58.563428 260.48192 
L 57.870694 260.485821 
L 57.62857 260.488286 
L 57.62857 261.0144 
L 57.62857 264.3408 
L 57.62857 267.6672 
L 57.62857 270.9936 
L 57.62857 274.32 
L 57.62857 277.6464 
L 57.62857 280.9728 
L 57.62857 283.538327 
L 57.771269 283.547113 
L 58.847952 283.634821 
L 59.436363 283.679024 
L 60.576106 283.772749 
L 60.773052 283.787659 
L 62.012339 283.890162 
L 62.374419 283.917784 
L 63.671599 284.026092 
L 63.773746 284.033945 
L 65.179709 284.152014 
L 65.30993 284.162102 
L 66.768286 284.285732 
L 66.773322 284.286125 
L 66.926681 284.2992 
L 68.242591 284.412638 
L 68.351147 284.422749 
L 69.771383 284.546291 
L 69.866847 284.555247 
L 71.172384 284.669437 
L 71.526919 284.702943 
L 72.768296 284.812508 
L 72.966666 284.831392 
L 74.099569 284.93193 
L 74.705866 284.99007 
L 75.76405 285.084833 
L 76.067743 285.114167 
L 77.024074 285.200274 
L 77.888086 285.284343 
L 78.758612 285.36344 
L 79.170116 285.403771 
L 79.945823 285.474634 
L 81.073683 285.585985 
L 81.751946 285.648514 
L 82.273824 285.700413 
L 82.864737 285.755182 
L 84.262763 285.895233 
L 84.744017 285.940249 
L 85.378909 286.004314 
L 85.780733 286.042101 
L 87.455441 286.212336 
L 87.734786 286.238848 
L 88.485416 286.315707 
L 88.693723 286.335582 
L 90.651837 286.537556 
L 90.724212 286.544526 
L 91.593391 286.634835 
L 91.603616 286.635825 
L 91.751656 286.65132 
L 93.542999 286.839745 
L 94.298556 286.921934 
L 95.029233 286.999725 
L 96.267409 287.131835 
L 96.639307 287.171625 
L 98.493675 287.376819 
L 98.985093 287.430008 
L 100.732246 287.6256 
L 101.696267 287.734068 
L 101.971543 287.766055 
L 103.211039 287.906979 
L 103.33993 287.923044 
L 103.33993 287.6256 
L 103.33993 284.2992 
L 103.33993 280.9728 
L 103.33993 277.6464 
L 103.33993 274.32 
L 103.33993 270.9936 
L 103.33993 267.6672 
L 103.33993 264.3408 
L 103.33993 261.0144 
" clip-path="url(#p684d0bc317)" style="fill: #ff3800"/>
   </g>
   <g id="PathCollection_10">
    <path d="M 103.33993 287.923044 
L 103.211039 287.906979 
L 101.971543 287.766055 
L 101.696267 287.734068 
L 100.732246 287.6256 
L 98.985093 287.430008 
L 98.493675 287.376819 
L 96.639307 287.171625 
L 96.267409 287.131835 
L 95.029233 286.999725 
L 94.298556 286.921934 
L 93.542999 286.839745 
L 91.751656 286.65132 
L 91.603616 286.635825 
L 91.593391 286.634835 
L 90.724212 286.544526 
L 90.651837 286.537556 
L 88.693723 286.335582 
L 88.485416 286.315707 
L 87.734786 286.238848 
L 87.455441 286.212336 
L 85.780733 286.042101 
L 85.378909 286.004314 
L 84.744017 285.940249 
L 84.262763 285.895233 
L 82.864737 285.755182 
L 82.273824 285.700413 
L 81.751946 285.648514 
L 81.073683 285.585985 
L 79.945823 285.474634 
L 79.170116 285.403771 
L 78.758612 285.36344 
L 77.888086 285.284343 
L 77.024074 285.200274 
L 76.067743 285.114167 
L 75.76405 285.084833 
L 74.705866 284.99007 
L 74.099569 284.93193 
L 72.966666 284.831392 
L 72.768296 284.812508 
L 71.526919 284.702943 
L 71.172384 284.669437 
L 69.866847 284.555247 
L 69.771383 284.546291 
L 68.351147 284.422749 
L 68.242591 284.412638 
L 66.926681 284.2992 
L 66.773322 284.286125 
L 66.768286 284.285732 
L 65.30993 284.162102 
L 65.179709 284.152014 
L 63.773746 284.033945 
L 63.671599 284.026092 
L 62.374419 283.917784 
L 62.012339 283.890162 
L 60.773052 283.787659 
L 60.576106 283.772749 
L 59.436363 283.679024 
L 58.847952 283.634821 
L 57.771269 283.547113 
L 57.62857 283.538327 
L 57.62857 284.2992 
L 57.62857 287.6256 
L 57.62857 290.952 
L 57.62857 294.2784 
L 57.62857 297.6048 
L 57.62857 300.9312 
L 57.62857 304.2576 
L 57.62857 307.584 
L 59.152282 307.584 
L 60.675994 307.584 
L 62.199706 307.584 
L 63.723418 307.584 
L 65.24713 307.584 
L 66.770842 307.584 
L 68.294554 307.584 
L 69.818266 307.584 
L 71.341978 307.584 
L 72.86569 307.584 
L 74.389402 307.584 
L 75.913114 307.584 
L 77.436826 307.584 
L 78.960538 307.584 
L 80.48425 307.584 
L 82.007962 307.584 
L 83.531674 307.584 
L 85.055386 307.584 
L 86.579098 307.584 
L 88.10281 307.584 
L 89.626522 307.584 
L 91.150234 307.584 
L 92.673946 307.584 
L 94.197658 307.584 
L 95.72137 307.584 
L 97.245082 307.584 
L 98.768794 307.584 
L 100.292506 307.584 
L 101.816218 307.584 
L 103.33993 307.584 
L 103.33993 304.2576 
L 103.33993 300.9312 
L 103.33993 297.6048 
L 103.33993 294.2784 
L 103.33993 290.952 
" clip-path="url(#p684d0bc317)" style="fill: #b60000"/>
   </g>
   <g id="PathCollection_11">
    <path clip-path="url(#p684d0bc317)" style="fill: #0000b6"/>
   </g>
   <g id="PathCollection_12">
    <path clip-path="url(#p684d0bc317)" style="fill: #0018ff"/>
   </g>
   <g id="PathCollection_13">
    <path clip-path="url(#p684d0bc317)" style="fill: #0080ff"/>
   </g>
   <g id="PathCollection_14">
    <path d="M 100.4544 67.427326 
L 102.080627 60.994861 
L 102.536646 59.2128 
L 103.078671 56.729732 
L 103.108853 56.61472 
L 103.187765 56.217509 
L 104.520407 50.3424 
L 105.248474 46.725469 
L 105.814364 44.07008 
L 106.032164 42.614461 
L 106.274531 41.472 
L 100.4544 41.472 
L 100.4544 50.3424 
L 100.4544 59.2128 
" clip-path="url(#p684d0bc317)" style="fill: #00e4f8"/>
   </g>
   <g id="PathCollection_15">
    <path d="M 106.274531 41.472 
L 106.032164 42.614461 
L 105.814364 44.07008 
L 105.248474 46.725469 
L 104.520407 50.3424 
L 103.187765 56.217509 
L 103.108853 56.61472 
L 103.078671 56.729732 
L 102.536646 59.2128 
L 102.080627 60.994861 
L 100.4544 67.427326 
L 100.4544 68.0832 
L 100.4544 76.9536 
L 100.4544 85.824 
L 100.4544 94.6944 
L 100.4544 103.5648 
L 100.4544 112.4352 
L 100.4544 121.3056 
L 100.4544 130.176 
L 100.4544 139.0464 
L 100.4544 147.9168 
L 100.4544 149.517972 
L 101.165547 148.696092 
L 101.798974 147.9168 
L 103.5425 145.644266 
L 103.795099 145.31872 
L 106.981936 140.76376 
L 108.205697 139.0464 
L 108.350086 138.828293 
L 112.201628 132.77408 
L 112.62313 132.025216 
L 113.815333 130.176 
L 115.029828 127.765814 
L 115.112742 127.57792 
L 117.375031 123.240007 
L 118.366864 121.3056 
L 120.535992 116.70032 
L 121.305486 115.03328 
L 121.801162 113.768502 
L 122.124883 113.084044 
L 122.459445 112.4352 
L 122.652685 111.917383 
L 122.77395 111.543452 
L 123.531403 109.83712 
L 125.551762 104.455928 
L 125.883954 103.5648 
L 126.558186 101.570808 
L 128.119015 97.29248 
L 128.397872 96.355383 
L 128.684214 95.673906 
L 129.054486 94.6944 
L 129.320269 93.556994 
L 129.605735 92.485161 
L 129.744794 92.09632 
L 129.918416 91.500218 
L 131.594298 85.824 
L 132.104888 83.896999 
L 133.270853 79.55168 
L 133.497234 78.798282 
L 134.105645 76.9536 
L 134.515821 74.526402 
L 134.549329 74.35552 
L 134.797646 73.280042 
L 136.02308 68.0832 
L 136.935584 63.708209 
L 137.351795 61.81088 
L 137.513866 60.762495 
L 137.705376 60.012814 
L 137.929688 59.2128 
L 138.023656 58.491799 
L 138.084254 57.922007 
L 138.380704 56.61472 
L 139.068443 52.380149 
L 139.458419 50.3424 
L 139.685363 48.980687 
L 140.571675 44.07008 
L 140.870797 41.497965 
L 140.875471 41.472 
L 132.83328 41.472 
L 124.73856 41.472 
L 116.64384 41.472 
L 108.54912 41.472 
" clip-path="url(#p684d0bc317)" style="fill: #53ffa4"/>
   </g>
   <g id="PathCollection_16">
    <path d="M 140.875471 41.472 
L 140.870797 41.497965 
L 140.571675 44.07008 
L 139.685363 48.980687 
L 139.458419 50.3424 
L 139.068443 52.380149 
L 138.380704 56.61472 
L 138.084254 57.922007 
L 138.023656 58.491799 
L 137.929688 59.2128 
L 137.705376 60.012814 
L 137.513866 60.762495 
L 137.351795 61.81088 
L 136.935584 63.708209 
L 136.02308 68.0832 
L 134.797646 73.280042 
L 134.549329 74.35552 
L 134.515821 74.526402 
L 134.105645 76.9536 
L 133.497234 78.798282 
L 133.270853 79.55168 
L 132.104888 83.896999 
L 131.594298 85.824 
L 129.918416 91.500218 
L 129.744794 92.09632 
L 129.605735 92.485161 
L 129.320269 93.556994 
L 129.054486 94.6944 
L 128.684214 95.673906 
L 128.397872 96.355383 
L 128.119015 97.29248 
L 126.558186 101.570808 
L 125.883954 103.5648 
L 125.551762 104.455928 
L 123.531403 109.83712 
L 122.77395 111.543452 
L 122.652685 111.917383 
L 122.459445 112.4352 
L 122.124883 113.084044 
L 121.801162 113.768502 
L 121.305486 115.03328 
L 120.535992 116.70032 
L 118.366864 121.3056 
L 117.375031 123.240007 
L 115.112742 127.57792 
L 115.029828 127.765814 
L 113.815333 130.176 
L 112.62313 132.025216 
L 112.201628 132.77408 
L 108.350086 138.828293 
L 108.205697 139.0464 
L 106.981936 140.76376 
L 103.795099 145.31872 
L 103.5425 145.644266 
L 101.798974 147.9168 
L 101.165547 148.696092 
L 100.4544 149.517972 
L 100.4544 156.7872 
L 100.4544 165.6576 
L 100.4544 174.528 
L 100.4544 183.3984 
L 100.4544 192.2688 
L 100.4544 196.53954 
L 101.829123 195.905707 
L 108.541712 192.2688 
L 108.546579 192.266015 
L 108.5586 192.258412 
L 115.135513 188.278436 
L 118.620613 185.99648 
L 121.000522 184.326365 
L 122.398267 183.3984 
L 122.990678 182.96449 
L 123.270833 182.73219 
L 125.85985 180.80032 
L 128.517307 178.668847 
L 132.619359 175.093939 
L 132.945783 174.825634 
L 133.286435 174.528 
L 137.40874 170.671506 
L 139.80756 168.25568 
L 141.803418 166.054957 
L 141.951912 165.911785 
L 142.186652 165.6576 
L 142.490781 165.269641 
L 142.937691 164.74539 
L 144.467817 163.05952 
L 145.504758 161.802527 
L 148.665901 157.731184 
L 149.151579 157.128103 
L 149.41516 156.7872 
L 152.797526 152.053329 
L 153.841116 150.51488 
L 154.758375 148.987593 
L 155.502593 147.9168 
L 155.707421 147.566764 
L 155.827523 147.331299 
L 157.098535 145.31872 
L 159.273038 141.408559 
L 160.536065 139.0464 
L 163.172642 133.650739 
L 163.592752 132.77408 
L 164.081806 131.904899 
L 164.949491 130.176 
L 165.673692 128.281066 
L 165.904459 127.57792 
L 166.776037 125.442924 
L 168.447727 121.3056 
L 169.836957 117.50317 
L 170.731528 115.03328 
L 171.214786 113.384814 
L 171.595504 112.4352 
L 171.704631 112.037443 
L 171.773977 111.739407 
L 172.443831 109.83712 
L 174.008032 104.33314 
L 174.228295 103.5648 
L 174.585182 102.164004 
L 175.967975 97.29248 
L 176.242416 96.026857 
L 176.667151 94.6944 
L 176.94734 93.041974 
L 177.214758 92.09632 
L 177.563021 90.487988 
L 178.610642 85.824 
L 179.56558 80.966706 
L 179.851061 79.55168 
L 179.903372 79.335043 
L 180.539369 76.9536 
L 180.788805 74.791965 
L 180.828589 74.35552 
L 181.742398 68.984801 
L 181.901537 68.0832 
L 182.234878 65.878715 
L 182.885405 61.81088 
L 183.094185 60.802126 
L 183.457248 59.2128 
L 183.566692 57.740774 
L 183.628657 56.61472 
L 183.666333 56.33388 
L 184.515527 50.3424 
L 185.088316 45.511997 
L 185.283063 44.07008 
L 185.332955 43.361775 
L 185.58866 41.472 
L 181.4016 41.472 
L 173.30688 41.472 
L 165.21216 41.472 
L 157.11744 41.472 
L 149.02272 41.472 
L 140.928 41.472 
" clip-path="url(#p684d0bc317)" style="fill: #a4ff53"/>
   </g>
   <g id="PathCollection_17">
    <path d="M 185.58866 41.472 
L 185.332955 43.361775 
L 185.283063 44.07008 
L 185.088316 45.511997 
L 184.515527 50.3424 
L 183.666333 56.33388 
L 183.628657 56.61472 
L 183.566692 57.740774 
L 183.457248 59.2128 
L 183.094185 60.802126 
L 182.885405 61.81088 
L 182.234878 65.878715 
L 181.901537 68.0832 
L 181.742398 68.984801 
L 180.828589 74.35552 
L 180.788805 74.791965 
L 180.539369 76.9536 
L 179.903372 79.335043 
L 179.851061 79.55168 
L 179.56558 80.966706 
L 178.610642 85.824 
L 177.563021 90.487988 
L 177.214758 92.09632 
L 176.94734 93.041974 
L 176.667151 94.6944 
L 176.242416 96.026857 
L 175.967975 97.29248 
L 174.585182 102.164004 
L 174.228295 103.5648 
L 174.008032 104.33314 
L 172.443831 109.83712 
L 171.773977 111.739407 
L 171.704631 112.037443 
L 171.595504 112.4352 
L 171.214786 113.384814 
L 170.731528 115.03328 
L 169.836957 117.50317 
L 168.447727 121.3056 
L 166.776037 125.442924 
L 165.904459 127.57792 
L 165.673692 128.281066 
L 164.949491 130.176 
L 164.081806 131.904899 
L 163.592752 132.77408 
L 163.172642 133.650739 
L 160.536065 139.0464 
L 159.273038 141.408559 
L 157.098535 145.31872 
L 155.827523 147.331299 
L 155.707421 147.566764 
L 155.502593 147.9168 
L 154.758375 148.987593 
L 153.841116 150.51488 
L 152.797526 152.053329 
L 149.41516 156.7872 
L 149.151579 157.128103 
L 148.665901 157.731184 
L 145.504758 161.802527 
L 144.467817 163.05952 
L 142.937691 164.74539 
L 142.490781 165.269641 
L 142.186652 165.6576 
L 141.951912 165.911785 
L 141.803418 166.054957 
L 139.80756 168.25568 
L 137.40874 170.671506 
L 133.286435 174.528 
L 132.945783 174.825634 
L 132.619359 175.093939 
L 128.517307 178.668847 
L 125.85985 180.80032 
L 123.270833 182.73219 
L 122.990678 182.96449 
L 122.398267 183.3984 
L 121.000522 184.326365 
L 118.620613 185.99648 
L 115.135513 188.278436 
L 108.5586 192.258412 
L 108.546579 192.266015 
L 108.541712 192.2688 
L 101.829123 195.905707 
L 100.4544 196.53954 
L 100.4544 201.1392 
L 100.4544 210.0096 
L 100.4544 218.88 
L 100.4544 227.7504 
L 100.4544 231.148065 
L 101.672962 230.974176 
L 106.502633 229.992993 
L 110.055675 229.401321 
L 116.539089 228.027524 
L 116.735966 227.994124 
L 117.887954 227.7504 
L 123.589633 226.491377 
L 126.639003 225.667847 
L 131.610545 224.515587 
L 134.342563 223.757506 
L 136.770267 223.194251 
L 142.811496 221.47808 
L 145.132127 220.788277 
L 146.76564 220.32919 
L 151.224753 218.88 
L 153.75366 218.044944 
L 154.580551 217.728492 
L 158.606378 216.28192 
L 161.753496 215.089909 
L 163.600495 214.273351 
L 166.409324 213.176766 
L 173.150108 210.181395 
L 173.378861 210.088478 
L 173.545098 210.0096 
L 180.138525 206.668065 
L 183.352036 204.84961 
L 184.33093 204.349234 
L 185.375614 203.73728 
L 189.503038 201.142249 
L 189.504713 201.141284 
L 189.50785 201.1392 
L 189.51372 201.13488 
L 189.529147 201.124299 
L 193.366975 198.54112 
L 194.481858 197.732079 
L 195.987091 196.512138 
L 198.483627 194.630189 
L 201.366201 192.2688 
L 203.755303 190.153356 
L 208.009983 185.99648 
L 209.019255 184.911493 
L 210.486631 183.3984 
L 211.640012 181.920261 
L 212.605948 180.80032 
L 215.008821 177.777644 
L 217.454466 174.528 
L 219.354875 171.766163 
L 221.605347 168.25568 
L 222.822598 166.087629 
L 222.936256 165.921007 
L 223.092224 165.6576 
L 223.246532 165.317168 
L 223.436945 164.948715 
L 224.548649 163.05952 
L 225.644832 160.918059 
L 227.645928 156.7872 
L 228.892135 153.935859 
L 230.346759 150.51488 
L 230.57121 150.075578 
L 231.533338 147.9168 
L 232.324799 145.322694 
L 232.326207 145.31872 
L 232.333268 145.29877 
L 234.511461 139.0464 
L 235.412531 136.140151 
L 236.439258 132.77408 
L 236.933766 130.68931 
L 237.016608 130.436173 
L 237.112423 130.176 
L 237.162473 129.952038 
L 237.193475 129.780573 
L 237.846858 127.57792 
L 239.042797 122.37749 
L 239.290885 121.3056 
L 239.637498 119.582022 
L 240.695262 115.03328 
L 240.912903 113.728043 
L 241.256091 112.4352 
L 241.437225 110.904364 
L 241.686385 109.83712 
L 242.013894 107.892493 
L 242.776748 103.5648 
L 243.702249 97.386965 
L 243.719329 97.29248 
L 243.722792 97.262668 
L 244.289692 94.6944 
L 244.46159 92.263421 
L 244.469608 92.09632 
L 244.812654 89.386786 
L 245.298261 85.824 
L 245.495914 84.068816 
L 246.034344 79.55168 
L 246.15294 78.961515 
L 246.511748 76.9536 
L 246.5794 75.048366 
L 246.591961 74.35552 
L 246.986352 70.271055 
L 247.21389 68.0832 
L 247.50768 64.516144 
L 247.758893 61.81088 
L 247.790947 61.627349 
L 248.169052 59.2128 
L 248.176574 56.70252 
L 248.178004 56.61472 
L 248.235782 55.835692 
L 248.689012 50.3424 
L 249.044635 44.633758 
L 249.090412 44.07008 
L 249.095037 43.813719 
L 249.288431 41.472 
L 246.15936 41.472 
L 238.06464 41.472 
L 229.96992 41.472 
L 221.8752 41.472 
L 213.78048 41.472 
L 205.68576 41.472 
L 197.59104 41.472 
L 189.49632 41.472 
" clip-path="url(#p684d0bc317)" style="fill: #f8f500"/>
   </g>
   <g id="PathCollection_18">
    <path d="M 249.288431 41.472 
L 249.095037 43.813719 
L 249.090412 44.07008 
L 249.044635 44.633758 
L 248.689012 50.3424 
L 248.235782 55.835692 
L 248.178004 56.61472 
L 248.176574 56.70252 
L 248.169052 59.2128 
L 247.790947 61.627349 
L 247.758893 61.81088 
L 247.50768 64.516144 
L 247.21389 68.0832 
L 246.986352 70.271055 
L 246.591961 74.35552 
L 246.5794 75.048366 
L 246.511748 76.9536 
L 246.15294 78.961515 
L 246.034344 79.55168 
L 245.495914 84.068816 
L 245.298261 85.824 
L 244.812654 89.386786 
L 244.469608 92.09632 
L 244.46159 92.263421 
L 244.289692 94.6944 
L 243.722792 97.262668 
L 243.719329 97.29248 
L 243.702249 97.386965 
L 242.776748 103.5648 
L 242.013894 107.892493 
L 241.686385 109.83712 
L 241.437225 110.904364 
L 241.256091 112.4352 
L 240.912903 113.728043 
L 240.695262 115.03328 
L 239.637498 119.582022 
L 239.290885 121.3056 
L 239.042797 122.37749 
L 237.846858 127.57792 
L 237.193475 129.780573 
L 237.162473 129.952038 
L 237.112423 130.176 
L 237.016608 130.436173 
L 236.933766 130.68931 
L 236.439258 132.77408 
L 235.412531 136.140151 
L 234.511461 139.0464 
L 232.333268 145.29877 
L 232.326207 145.31872 
L 232.324799 145.322694 
L 231.533338 147.9168 
L 230.57121 150.075578 
L 230.346759 150.51488 
L 228.892135 153.935859 
L 227.645928 156.7872 
L 225.644832 160.918059 
L 224.548649 163.05952 
L 223.436945 164.948715 
L 223.246532 165.317168 
L 223.092224 165.6576 
L 222.936256 165.921007 
L 222.822598 166.087629 
L 221.605347 168.25568 
L 219.354875 171.766163 
L 217.454466 174.528 
L 215.008821 177.777644 
L 212.605948 180.80032 
L 211.640012 181.920261 
L 210.486631 183.3984 
L 209.019255 184.911493 
L 208.009983 185.99648 
L 203.755303 190.153356 
L 201.366201 192.2688 
L 198.483627 194.630189 
L 195.987091 196.512138 
L 194.481858 197.732079 
L 193.366975 198.54112 
L 189.529147 201.124299 
L 189.51372 201.13488 
L 189.50785 201.1392 
L 189.504713 201.141284 
L 189.503038 201.142249 
L 185.375614 203.73728 
L 184.33093 204.349234 
L 183.352036 204.84961 
L 180.138525 206.668065 
L 173.545098 210.0096 
L 173.378861 210.088478 
L 173.150108 210.181395 
L 166.409324 213.176766 
L 163.600495 214.273351 
L 161.753496 215.089909 
L 158.606378 216.28192 
L 154.580551 217.728492 
L 153.75366 218.044944 
L 151.224753 218.88 
L 146.76564 220.32919 
L 145.132127 220.788277 
L 142.811496 221.47808 
L 136.770267 223.194251 
L 134.342563 223.757506 
L 131.610545 224.515587 
L 126.639003 225.667847 
L 123.589633 226.491377 
L 117.887954 227.7504 
L 116.735966 227.994124 
L 116.539089 228.027524 
L 110.055675 229.401321 
L 106.502633 229.992993 
L 101.672962 230.974176 
L 100.4544 231.148065 
L 100.4544 236.6208 
L 100.4544 245.4912 
L 100.4544 254.3616 
L 100.4544 260.250214 
L 101.585538 260.239511 
L 105.872251 260.298619 
L 111.312917 260.203361 
L 115.524536 260.270819 
L 117.777123 260.233834 
L 122.072243 260.310182 
L 127.480376 260.227448 
L 131.730171 260.313663 
L 133.948254 260.282274 
L 138.324728 260.379269 
L 143.593611 260.310956 
L 147.959905 260.420263 
L 150.095009 260.3952 
L 154.641001 260.518256 
L 159.641615 260.465945 
L 164.219226 260.605137 
L 166.211966 260.586957 
L 171.036927 260.744528 
L 175.609028 260.709248 
L 180.515923 260.888892 
L 182.291453 260.877842 
L 187.535401 261.083175 
L 191.4739 261.064918 
L 196.861379 261.301639 
L 198.322316 261.297369 
L 204.170585 261.571632 
L 207.203915 261.568367 
L 213.272837 261.889002 
L 214.287757 261.889969 
L 220.99563 262.268144 
L 222.749685 262.273717 
L 229.777645 262.723324 
L 230.161372 262.725502 
L 237.567323 263.232 
L 238.037042 263.262243 
L 238.09975 263.270474 
L 245.927067 263.846544 
L 246.418322 263.917098 
L 253.144721 264.447663 
L 255.737842 264.857945 
L 261.533246 265.389593 
L 263.280317 265.696382 
L 267.78723 266.14283 
L 274.263285 267.417796 
L 276.840774 267.722742 
L 280.548661 268.550684 
L 281.649394 268.693118 
L 284.801839 269.50432 
L 289.720212 270.701079 
L 294.042598 272.1024 
L 297.92673 273.317747 
L 299.030817 273.823421 
L 300.936434 274.70048 
L 306.38871 277.064746 
L 310.504006 279.879882 
L 311.189671 280.251751 
L 312.098474 280.9728 
L 316.252469 283.996588 
L 319.068212 287.24512 
L 320.746264 289.055935 
L 321.24696 289.8432 
L 321.569104 290.478039 
L 322.235164 291.306285 
L 323.137632 292.44128 
L 323.909662 293.346442 
L 326.792742 298.7136 
L 326.983965 299.037931 
L 329.028103 303.79715 
L 329.526523 304.932143 
L 329.537894 304.98592 
L 329.545302 305.016719 
L 330.468833 307.584 
L 335.20128 307.584 
L 343.296 307.584 
L 343.296 298.7136 
L 343.296 289.8432 
L 343.296 280.9728 
L 343.296 272.1024 
L 343.296 263.232 
L 343.296 254.3616 
L 343.296 245.4912 
L 343.296 236.6208 
L 343.296 227.7504 
L 343.296 218.88 
L 343.296 210.0096 
L 343.296 201.1392 
L 343.296 192.2688 
L 343.296 183.3984 
L 343.296 174.528 
L 343.296 165.6576 
L 343.296 156.7872 
L 343.296 147.9168 
L 343.296 139.0464 
L 343.296 130.176 
L 343.296 121.3056 
L 343.296 112.4352 
L 343.296 103.5648 
L 343.296 94.6944 
L 343.296 85.824 
L 343.296 76.9536 
L 343.296 68.0832 
L 343.296 59.2128 
L 343.296 50.3424 
L 343.296 41.472 
L 335.20128 41.472 
L 327.10656 41.472 
L 319.01184 41.472 
L 310.91712 41.472 
L 302.8224 41.472 
L 294.72768 41.472 
L 286.63296 41.472 
L 278.53824 41.472 
L 270.44352 41.472 
L 262.3488 41.472 
L 254.25408 41.472 
" clip-path="url(#p684d0bc317)" style="fill: #ff9400"/>
   </g>
   <g id="PathCollection_19">
    <path d="M 330.468833 307.584 
L 329.545302 305.016719 
L 329.537894 304.98592 
L 329.526523 304.932143 
L 329.028103 303.79715 
L 326.983965 299.037931 
L 326.792742 298.7136 
L 323.909662 293.346442 
L 323.137632 292.44128 
L 322.235164 291.306285 
L 321.569104 290.478039 
L 321.24696 289.8432 
L 320.746264 289.055935 
L 319.068212 287.24512 
L 316.252469 283.996588 
L 312.098474 280.9728 
L 311.189671 280.251751 
L 310.504006 279.879882 
L 306.38871 277.064746 
L 300.936434 274.70048 
L 299.030817 273.823421 
L 297.92673 273.317747 
L 294.042598 272.1024 
L 289.720212 270.701079 
L 284.801839 269.50432 
L 281.649394 268.693118 
L 280.548661 268.550684 
L 276.840774 267.722742 
L 274.263285 267.417796 
L 267.78723 266.14283 
L 263.280317 265.696382 
L 261.533246 265.389593 
L 255.737842 264.857945 
L 253.144721 264.447663 
L 246.418322 263.917098 
L 245.927067 263.846544 
L 238.09975 263.270474 
L 238.037042 263.262243 
L 237.567323 263.232 
L 230.161372 262.725502 
L 229.777645 262.723324 
L 222.749685 262.273717 
L 220.99563 262.268144 
L 214.287757 261.889969 
L 213.272837 261.889002 
L 207.203915 261.568367 
L 204.170585 261.571632 
L 198.322316 261.297369 
L 196.861379 261.301639 
L 191.4739 261.064918 
L 187.535401 261.083175 
L 182.291453 260.877842 
L 180.515923 260.888892 
L 175.609028 260.709248 
L 171.036927 260.744528 
L 166.211966 260.586957 
L 164.219226 260.605137 
L 159.641615 260.465945 
L 154.641001 260.518256 
L 150.095009 260.3952 
L 147.959905 260.420263 
L 143.593611 260.310956 
L 138.324728 260.379269 
L 133.948254 260.282274 
L 131.730171 260.313663 
L 127.480376 260.227448 
L 122.072243 260.310182 
L 117.777123 260.233834 
L 115.524536 260.270819 
L 111.312917 260.203361 
L 105.872251 260.298619 
L 101.585538 260.239511 
L 100.4544 260.250214 
L 100.4544 263.232 
L 100.4544 272.1024 
L 100.4544 280.9728 
L 100.4544 287.611993 
L 102.316052 287.803155 
L 104.686671 288.090012 
L 110.844013 288.801535 
L 112.135161 288.952968 
L 118.975805 289.8432 
L 123.454674 290.425963 
L 127.205143 290.962796 
L 132.087247 291.667506 
L 135.768844 292.184971 
L 137.421663 292.44128 
L 145.506982 293.695835 
L 147.244602 294.009488 
L 150.596415 294.5503 
L 153.875065 295.160523 
L 159.498494 296.104381 
L 164.606025 297.110036 
L 165.743061 297.309071 
L 172.650875 298.7136 
L 173.204714 298.825556 
L 173.463661 298.885404 
L 180.748523 300.441353 
L 182.186263 300.789469 
L 186.695061 301.783291 
L 193.994775 303.643122 
L 195.586627 304.016387 
L 199.201468 304.98592 
L 199.813935 305.148095 
L 201.146646 305.52367 
L 206.775656 307.08929 
L 208.410396 307.584 
L 213.78048 307.584 
L 221.8752 307.584 
L 229.96992 307.584 
L 238.06464 307.584 
L 246.15936 307.584 
L 254.25408 307.584 
L 262.3488 307.584 
L 270.44352 307.584 
L 278.53824 307.584 
L 286.63296 307.584 
L 294.72768 307.584 
L 302.8224 307.584 
L 310.91712 307.584 
L 319.01184 307.584 
L 327.10656 307.584 
" clip-path="url(#p684d0bc317)" style="fill: #ff3800"/>
   </g>
   <g id="PathCollection_20">
    <path d="M 208.410396 307.584 
L 206.775656 307.08929 
L 201.146646 305.52367 
L 199.813935 305.148095 
L 199.201468 304.98592 
L 195.586627 304.016387 
L 193.994775 303.643122 
L 186.695061 301.783291 
L 182.186263 300.789469 
L 180.748523 300.441353 
L 173.463661 298.885404 
L 173.204714 298.825556 
L 172.650875 298.7136 
L 165.743061 297.309071 
L 164.606025 297.110036 
L 159.498494 296.104381 
L 153.875065 295.160523 
L 150.596415 294.5503 
L 147.244602 294.009488 
L 145.506982 293.695835 
L 137.421663 292.44128 
L 135.768844 292.184971 
L 132.087247 291.667506 
L 127.205143 290.962796 
L 123.454674 290.425963 
L 118.975805 289.8432 
L 112.135161 288.952968 
L 110.844013 288.801535 
L 104.686671 288.090012 
L 102.316052 287.803155 
L 100.4544 287.611993 
L 100.4544 289.8432 
L 100.4544 298.7136 
L 100.4544 307.584 
L 108.54912 307.584 
L 116.64384 307.584 
L 124.73856 307.584 
L 132.83328 307.584 
L 140.928 307.584 
L 149.02272 307.584 
L 157.11744 307.584 
L 165.21216 307.584 
L 173.30688 307.584 
L 181.4016 307.584 
L 189.49632 307.584 
L 197.59104 307.584 
L 205.68576 307.584 
" clip-path="url(#p684d0bc317)" style="fill: #b60000"/>
   </g>
   <g id="matplotlib.axis_1">
    <g id="xtick_1">
     <g id="line2d_1">
      <defs>
       <path id="m3863e96603" d="M 0 0 
L 0 3.5 
" style="stroke: #000000; stroke-width: 0.8"/>
      </defs>
      <g>
       <use xlink:href="#m3863e96603" x="57.6" y="307.584" style="stroke: #000000; stroke-width: 0.8"/>
      </g>
     </g>
     <g id="text_1">
      <!-- 0.0 -->
      <g transform="translate(51.26875 321.385562) scale(0.1 -0.1)">
       <defs>
        <path id="Calibri-30" d="M 3022 2031 
Q 3022 1566 2948 1181 
Q 2875 797 2704 520 
Q 2534 244 2259 92 
Q 1984 -59 1581 -59 
Q 1200 -59 939 77 
Q 678 213 518 477 
Q 359 741 292 1127 
Q 225 1513 225 2013 
Q 225 2475 300 2861 
Q 375 3247 544 3523 
Q 713 3800 988 3951 
Q 1263 4103 1663 4103 
Q 2047 4103 2308 3967 
Q 2569 3831 2728 3567 
Q 2888 3303 2955 2917 
Q 3022 2531 3022 2031 
z
M 2472 1994 
Q 2472 2297 2450 2537 
Q 2428 2778 2386 2962 
Q 2344 3147 2276 3280 
Q 2209 3413 2115 3498 
Q 2022 3584 1901 3623 
Q 1781 3663 1631 3663 
Q 1366 3663 1200 3538 
Q 1034 3413 939 3194 
Q 844 2975 809 2681 
Q 775 2388 775 2050 
Q 775 1597 822 1280 
Q 869 963 970 763 
Q 1072 563 1230 472 
Q 1388 381 1613 381 
Q 1788 381 1920 437 
Q 2053 494 2148 598 
Q 2244 703 2306 850 
Q 2369 997 2406 1175 
Q 2444 1353 2458 1561 
Q 2472 1769 2472 1994 
z
" transform="scale(0.015625)"/>
        <path id="Calibri-2e" d="M 1144 341 
Q 1144 119 1070 45 
Q 997 -28 803 -28 
Q 616 -28 544 44 
Q 472 116 472 331 
Q 472 553 545 626 
Q 619 700 813 700 
Q 1000 700 1072 628 
Q 1144 556 1144 341 
z
" transform="scale(0.015625)"/>
       </defs>
       <use xlink:href="#Calibri-30"/>
       <use xlink:href="#Calibri-2e" x="50.683594"/>
       <use xlink:href="#Calibri-30" x="75.927734"/>
      </g>
     </g>
    </g>
    <g id="xtick_2">
     <g id="line2d_2">
      <g>
       <use xlink:href="#m3863e96603" x="86.1696" y="307.584" style="stroke: #000000; stroke-width: 0.8"/>
      </g>
     </g>
     <g id="text_2">
      <!-- 0.1 -->
      <g transform="translate(79.83835 321.385562) scale(0.1 -0.1)">
       <defs>
        <path id="Calibri-31" d="M 2897 213 
Q 2897 153 2887 112 
Q 2878 72 2862 47 
Q 2847 22 2826 11 
Q 2806 0 2784 0 
L 672 0 
Q 650 0 631 11 
Q 613 22 595 47 
Q 578 72 568 112 
Q 559 153 559 213 
Q 559 269 568 309 
Q 578 350 592 376 
Q 606 403 626 417 
Q 647 431 672 431 
L 1516 431 
L 1516 3506 
L 734 3041 
Q 675 3009 639 3003 
Q 603 2997 581 3017 
Q 559 3038 551 3084 
Q 544 3131 544 3203 
Q 544 3256 548 3293 
Q 553 3331 562 3356 
Q 572 3381 589 3400 
Q 606 3419 634 3438 
L 1566 4034 
Q 1578 4044 1597 4050 
Q 1616 4056 1644 4062 
Q 1672 4069 1709 4070 
Q 1747 4072 1803 4072 
Q 1878 4072 1928 4065 
Q 1978 4059 2006 4048 
Q 2034 4038 2043 4020 
Q 2053 4003 2053 3984 
L 2053 431 
L 2784 431 
Q 2809 431 2831 417 
Q 2853 403 2867 376 
Q 2881 350 2889 309 
Q 2897 269 2897 213 
z
" transform="scale(0.015625)"/>
       </defs>
       <use xlink:href="#Calibri-30"/>
       <use xlink:href="#Calibri-2e" x="50.683594"/>
       <use xlink:href="#Calibri-31" x="75.927734"/>
      </g>
     </g>
    </g>
    <g id="xtick_3">
     <g id="line2d_3">
      <g>
       <use xlink:href="#m3863e96603" x="114.7392" y="307.584" style="stroke: #000000; stroke-width: 0.8"/>
      </g>
     </g>
     <g id="text_3">
      <!-- 0.2 -->
      <g transform="translate(108.40795 321.385562) scale(0.1 -0.1)">
       <defs>
        <path id="Calibri-32" d="M 2888 231 
Q 2888 175 2880 131 
Q 2872 88 2858 58 
Q 2844 28 2820 14 
Q 2797 0 2769 0 
L 534 0 
Q 491 0 458 11 
Q 425 22 401 47 
Q 378 72 367 119 
Q 356 166 356 234 
Q 356 297 361 344 
Q 366 391 381 427 
Q 397 463 420 498 
Q 444 534 481 575 
L 1266 1406 
Q 1538 1694 1702 1922 
Q 1866 2150 1955 2337 
Q 2044 2525 2072 2678 
Q 2100 2831 2100 2966 
Q 2100 3100 2056 3220 
Q 2013 3341 1930 3431 
Q 1847 3522 1722 3575 
Q 1597 3628 1434 3628 
Q 1244 3628 1092 3575 
Q 941 3522 827 3459 
Q 713 3397 636 3344 
Q 559 3291 522 3291 
Q 500 3291 483 3303 
Q 466 3316 455 3344 
Q 444 3372 437 3419 
Q 431 3466 431 3531 
Q 431 3578 434 3612 
Q 438 3647 445 3672 
Q 453 3697 465 3719 
Q 478 3741 515 3773 
Q 553 3806 645 3862 
Q 738 3919 877 3973 
Q 1016 4028 1183 4065 
Q 1350 4103 1534 4103 
Q 1828 4103 2048 4020 
Q 2269 3938 2414 3794 
Q 2559 3650 2631 3459 
Q 2703 3269 2703 3053 
Q 2703 2859 2668 2667 
Q 2634 2475 2523 2251 
Q 2413 2028 2203 1754 
Q 1994 1481 1647 1125 
L 1006 456 
L 2766 456 
Q 2791 456 2814 442 
Q 2838 428 2855 400 
Q 2872 372 2880 330 
Q 2888 288 2888 231 
z
" transform="scale(0.015625)"/>
       </defs>
       <use xlink:href="#Calibri-30"/>
       <use xlink:href="#Calibri-2e" x="50.683594"/>
       <use xlink:href="#Calibri-32" x="75.927734"/>
      </g>
     </g>
    </g>
    <g id="xtick_4">
     <g id="line2d_4">
      <g>
       <use xlink:href="#m3863e96603" x="143.3088" y="307.584" style="stroke: #000000; stroke-width: 0.8"/>
      </g>
     </g>
     <g id="text_4">
      <!-- 0.3 -->
      <g transform="translate(136.97755 321.385562) scale(0.1 -0.1)">
       <defs>
        <path id="Calibri-33" d="M 2856 1156 
Q 2856 878 2759 654 
Q 2663 431 2481 272 
Q 2300 113 2034 27 
Q 1769 -59 1434 -59 
Q 1231 -59 1054 -26 
Q 878 6 740 51 
Q 603 97 512 145 
Q 422 194 398 216 
Q 375 238 362 259 
Q 350 281 340 312 
Q 331 344 326 389 
Q 322 434 322 500 
Q 322 613 344 656 
Q 366 700 406 700 
Q 434 700 517 650 
Q 600 600 729 542 
Q 859 484 1032 434 
Q 1206 384 1419 384 
Q 1625 384 1781 437 
Q 1938 491 2044 587 
Q 2150 684 2203 817 
Q 2256 950 2256 1106 
Q 2256 1278 2189 1415 
Q 2122 1553 1992 1653 
Q 1863 1753 1673 1806 
Q 1484 1859 1244 1859 
L 859 1859 
Q 834 1859 811 1870 
Q 788 1881 770 1906 
Q 753 1931 742 1972 
Q 731 2013 731 2078 
Q 731 2138 740 2177 
Q 750 2216 767 2239 
Q 784 2263 806 2273 
Q 828 2284 856 2284 
L 1209 2284 
Q 1416 2284 1580 2337 
Q 1744 2391 1858 2491 
Q 1972 2591 2033 2730 
Q 2094 2869 2094 3041 
Q 2094 3166 2053 3280 
Q 2013 3394 1931 3478 
Q 1850 3563 1723 3611 
Q 1597 3659 1431 3659 
Q 1250 3659 1098 3604 
Q 947 3550 828 3487 
Q 709 3425 631 3370 
Q 553 3316 522 3316 
Q 500 3316 483 3323 
Q 466 3331 455 3354 
Q 444 3378 439 3420 
Q 434 3463 434 3531 
Q 434 3578 437 3614 
Q 441 3650 450 3676 
Q 459 3703 471 3725 
Q 484 3747 514 3776 
Q 544 3806 634 3862 
Q 725 3919 858 3973 
Q 991 4028 1164 4065 
Q 1338 4103 1538 4103 
Q 1819 4103 2031 4031 
Q 2244 3959 2386 3828 
Q 2528 3697 2598 3514 
Q 2669 3331 2669 3109 
Q 2669 2919 2619 2755 
Q 2569 2591 2472 2464 
Q 2375 2338 2234 2248 
Q 2094 2159 1909 2125 
L 1909 2119 
Q 2119 2097 2292 2014 
Q 2466 1931 2591 1806 
Q 2716 1681 2786 1514 
Q 2856 1347 2856 1156 
z
" transform="scale(0.015625)"/>
       </defs>
       <use xlink:href="#Calibri-30"/>
       <use xlink:href="#Calibri-2e" x="50.683594"/>
       <use xlink:href="#Calibri-33" x="75.927734"/>
      </g>
     </g>
    </g>
    <g id="xtick_5">
     <g id="line2d_5">
      <g>
       <use xlink:href="#m3863e96603" x="171.8784" y="307.584" style="stroke: #000000; stroke-width: 0.8"/>
      </g>
     </g>
     <g id="text_5">
      <!-- 0.4 -->
      <g transform="translate(165.54715 321.385562) scale(0.1 -0.1)">
       <defs>
        <path id="Calibri-34" d="M 3059 1150 
Q 3059 1047 3028 987 
Q 2997 928 2941 928 
L 2484 928 
L 2484 78 
Q 2484 53 2471 36 
Q 2459 19 2428 6 
Q 2397 -6 2347 -12 
Q 2297 -19 2219 -19 
Q 2144 -19 2094 -12 
Q 2044 -6 2014 6 
Q 1984 19 1973 36 
Q 1963 53 1963 78 
L 1963 928 
L 294 928 
Q 256 928 231 937 
Q 206 947 186 972 
Q 166 997 158 1044 
Q 150 1091 150 1166 
Q 150 1225 153 1272 
Q 156 1319 165 1358 
Q 175 1397 190 1433 
Q 206 1469 228 1509 
L 1684 3966 
Q 1700 3991 1729 4009 
Q 1759 4028 1806 4040 
Q 1853 4053 1922 4058 
Q 1991 4063 2084 4063 
Q 2188 4063 2264 4055 
Q 2341 4047 2387 4034 
Q 2434 4022 2459 4001 
Q 2484 3981 2484 3953 
L 2484 1372 
L 2941 1372 
Q 2994 1372 3026 1317 
Q 3059 1263 3059 1150 
z
M 1963 3591 
L 1956 3591 
L 641 1372 
L 1963 1372 
L 1963 3591 
z
" transform="scale(0.015625)"/>
       </defs>
       <use xlink:href="#Calibri-30"/>
       <use xlink:href="#Calibri-2e" x="50.683594"/>
       <use xlink:href="#Calibri-34" x="75.927734"/>
      </g>
     </g>
    </g>
    <g id="xtick_6">
     <g id="line2d_6">
      <g>
       <use xlink:href="#m3863e96603" x="200.448" y="307.584" style="stroke: #000000; stroke-width: 0.8"/>
      </g>
     </g>
     <g id="text_6">
      <!-- 0.5 -->
      <g transform="translate(194.11675 321.385562) scale(0.1 -0.1)">
       <defs>
        <path id="Calibri-35" d="M 2869 1300 
Q 2869 975 2759 722 
Q 2650 469 2450 295 
Q 2250 122 1973 31 
Q 1697 -59 1359 -59 
Q 1172 -59 1003 -32 
Q 834 -6 703 33 
Q 572 72 487 109 
Q 403 147 379 169 
Q 356 191 347 209 
Q 338 228 330 254 
Q 322 281 319 322 
Q 316 363 316 419 
Q 316 472 320 514 
Q 325 556 337 582 
Q 350 609 367 621 
Q 384 634 406 634 
Q 438 634 503 595 
Q 569 556 680 511 
Q 791 466 955 425 
Q 1119 384 1344 384 
Q 1553 384 1728 434 
Q 1903 484 2029 590 
Q 2156 697 2228 858 
Q 2300 1019 2300 1250 
Q 2300 1444 2239 1592 
Q 2178 1741 2051 1839 
Q 1925 1938 1731 1986 
Q 1538 2034 1269 2034 
Q 1078 2034 940 2015 
Q 803 1997 684 1997 
Q 597 1997 559 2037 
Q 522 2078 522 2194 
L 522 3841 
Q 522 3944 570 3994 
Q 619 4044 709 4044 
L 2500 4044 
Q 2525 4044 2548 4030 
Q 2572 4016 2587 3987 
Q 2603 3959 2611 3915 
Q 2619 3872 2619 3813 
Q 2619 3700 2587 3637 
Q 2556 3575 2500 3575 
L 991 3575 
L 991 2441 
Q 1100 2456 1214 2459 
Q 1328 2463 1478 2463 
Q 1825 2463 2084 2380 
Q 2344 2297 2517 2145 
Q 2691 1994 2780 1778 
Q 2869 1563 2869 1300 
z
" transform="scale(0.015625)"/>
       </defs>
       <use xlink:href="#Calibri-30"/>
       <use xlink:href="#Calibri-2e" x="50.683594"/>
       <use xlink:href="#Calibri-35" x="75.927734"/>
      </g>
     </g>
    </g>
    <g id="xtick_7">
     <g id="line2d_7">
      <g>
       <use xlink:href="#m3863e96603" x="229.0176" y="307.584" style="stroke: #000000; stroke-width: 0.8"/>
      </g>
     </g>
     <g id="text_7">
      <!-- 0.6 -->
      <g transform="translate(222.68635 321.385562) scale(0.1 -0.1)">
       <defs>
        <path id="Calibri-36" d="M 2991 1309 
Q 2991 1044 2909 795 
Q 2828 547 2659 358 
Q 2491 169 2231 55 
Q 1972 -59 1619 -59 
Q 1366 -59 1172 3 
Q 978 66 834 181 
Q 691 297 595 465 
Q 500 634 442 850 
Q 384 1066 359 1322 
Q 334 1578 334 1872 
Q 334 2131 362 2397 
Q 391 2663 462 2909 
Q 534 3156 657 3373 
Q 781 3591 967 3752 
Q 1153 3913 1412 4006 
Q 1672 4100 2016 4100 
Q 2131 4100 2250 4086 
Q 2369 4072 2469 4048 
Q 2569 4025 2637 3997 
Q 2706 3969 2728 3951 
Q 2750 3934 2761 3914 
Q 2772 3894 2778 3870 
Q 2784 3847 2787 3817 
Q 2791 3788 2791 3744 
Q 2791 3688 2789 3647 
Q 2788 3606 2777 3581 
Q 2766 3556 2748 3543 
Q 2731 3531 2703 3531 
Q 2669 3531 2609 3553 
Q 2550 3575 2465 3601 
Q 2381 3628 2261 3650 
Q 2141 3672 1981 3672 
Q 1691 3672 1481 3553 
Q 1272 3434 1139 3234 
Q 1006 3034 942 2770 
Q 878 2506 869 2219 
Q 950 2266 1051 2312 
Q 1153 2359 1273 2396 
Q 1394 2434 1528 2457 
Q 1663 2481 1816 2481 
Q 2144 2481 2369 2392 
Q 2594 2303 2733 2145 
Q 2872 1988 2931 1773 
Q 2991 1559 2991 1309 
z
M 2447 1259 
Q 2447 1441 2411 1589 
Q 2375 1738 2290 1841 
Q 2206 1944 2065 2000 
Q 1925 2056 1719 2056 
Q 1603 2056 1487 2036 
Q 1372 2016 1264 1980 
Q 1156 1944 1057 1895 
Q 959 1847 878 1791 
Q 878 1388 929 1116 
Q 981 844 1079 680 
Q 1178 516 1325 445 
Q 1472 375 1669 375 
Q 1869 375 2016 450 
Q 2163 525 2259 651 
Q 2356 778 2401 936 
Q 2447 1094 2447 1259 
z
" transform="scale(0.015625)"/>
       </defs>
       <use xlink:href="#Calibri-30"/>
       <use xlink:href="#Calibri-2e" x="50.683594"/>
       <use xlink:href="#Calibri-36" x="75.927734"/>
      </g>
     </g>
    </g>
    <g id="xtick_8">
     <g id="line2d_8">
      <g>
       <use xlink:href="#m3863e96603" x="257.5872" y="307.584" style="stroke: #000000; stroke-width: 0.8"/>
      </g>
     </g>
     <g id="text_8">
      <!-- 0.7 -->
      <g transform="translate(251.25595 321.385562) scale(0.1 -0.1)">
       <defs>
        <path id="Calibri-37" d="M 2947 3813 
Q 2947 3756 2942 3711 
Q 2938 3666 2930 3623 
Q 2922 3581 2908 3542 
Q 2894 3503 2875 3459 
L 1419 103 
Q 1403 66 1379 42 
Q 1356 19 1320 5 
Q 1284 -9 1228 -14 
Q 1172 -19 1091 -19 
Q 984 -19 925 -9 
Q 866 0 839 20 
Q 813 41 816 70 
Q 819 100 838 141 
L 2369 3572 
L 428 3572 
Q 369 3572 339 3634 
Q 309 3697 309 3809 
Q 309 3869 317 3912 
Q 325 3956 340 3986 
Q 356 4016 378 4030 
Q 400 4044 428 4044 
L 2784 4044 
Q 2828 4044 2861 4034 
Q 2894 4025 2911 3997 
Q 2928 3969 2937 3925 
Q 2947 3881 2947 3813 
z
" transform="scale(0.015625)"/>
       </defs>
       <use xlink:href="#Calibri-30"/>
       <use xlink:href="#Calibri-2e" x="50.683594"/>
       <use xlink:href="#Calibri-37" x="75.927734"/>
      </g>
     </g>
    </g>
    <g id="xtick_9">
     <g id="line2d_9">
      <g>
       <use xlink:href="#m3863e96603" x="286.1568" y="307.584" style="stroke: #000000; stroke-width: 0.8"/>
      </g>
     </g>
     <g id="text_9">
      <!-- 0.8 -->
      <g transform="translate(279.82555 321.385562) scale(0.1 -0.1)">
       <defs>
        <path id="Calibri-38" d="M 2981 1038 
Q 2981 775 2887 570 
Q 2794 366 2617 225 
Q 2441 84 2181 12 
Q 1922 -59 1588 -59 
Q 1275 -59 1028 6 
Q 781 72 609 200 
Q 438 328 347 515 
Q 256 703 256 944 
Q 256 1134 318 1293 
Q 381 1453 498 1587 
Q 616 1722 787 1839 
Q 959 1956 1175 2063 
Q 988 2159 844 2267 
Q 700 2375 600 2501 
Q 500 2628 448 2772 
Q 397 2916 397 3084 
Q 397 3297 473 3483 
Q 550 3669 704 3806 
Q 859 3944 1098 4023 
Q 1338 4103 1656 4103 
Q 1963 4103 2186 4029 
Q 2409 3956 2554 3829 
Q 2700 3703 2769 3531 
Q 2838 3359 2838 3163 
Q 2838 3003 2786 2856 
Q 2734 2709 2634 2578 
Q 2534 2447 2389 2333 
Q 2244 2219 2056 2119 
Q 2278 2009 2451 1893 
Q 2625 1778 2742 1645 
Q 2859 1513 2920 1364 
Q 2981 1216 2981 1038 
z
M 2306 3113 
Q 2306 3244 2261 3350 
Q 2216 3456 2128 3531 
Q 2041 3606 1911 3645 
Q 1781 3684 1616 3684 
Q 1278 3684 1104 3531 
Q 931 3378 931 3113 
Q 931 2991 973 2886 
Q 1016 2781 1105 2687 
Q 1194 2594 1330 2505 
Q 1466 2416 1653 2319 
Q 1969 2481 2137 2678 
Q 2306 2875 2306 3113 
z
M 2438 981 
Q 2438 1125 2384 1242 
Q 2331 1359 2223 1461 
Q 2116 1563 1955 1658 
Q 1794 1753 1581 1856 
Q 1384 1759 1236 1662 
Q 1088 1566 992 1462 
Q 897 1359 848 1245 
Q 800 1131 800 994 
Q 800 691 1008 525 
Q 1216 359 1628 359 
Q 2028 359 2233 526 
Q 2438 694 2438 981 
z
" transform="scale(0.015625)"/>
       </defs>
       <use xlink:href="#Calibri-30"/>
       <use xlink:href="#Calibri-2e" x="50.683594"/>
       <use xlink:href="#Calibri-38" x="75.927734"/>
      </g>
     </g>
    </g>
    <g id="xtick_10">
     <g id="line2d_10">
      <g>
       <use xlink:href="#m3863e96603" x="314.7264" y="307.584" style="stroke: #000000; stroke-width: 0.8"/>
      </g>
     </g>
     <g id="text_10">
      <!-- 0.9 -->
      <g transform="translate(308.39515 321.385562) scale(0.1 -0.1)">
       <defs>
        <path id="Calibri-39" d="M 2919 2181 
Q 2919 1919 2887 1650 
Q 2856 1381 2781 1132 
Q 2706 884 2579 667 
Q 2453 450 2261 287 
Q 2069 125 1805 33 
Q 1541 -59 1191 -59 
Q 1056 -59 929 -42 
Q 803 -25 701 0 
Q 600 25 531 53 
Q 463 81 431 109 
Q 400 138 386 186 
Q 372 234 372 316 
Q 372 384 376 425 
Q 381 466 390 487 
Q 400 509 417 517 
Q 434 525 459 525 
Q 494 525 556 501 
Q 619 478 714 450 
Q 809 422 937 398 
Q 1066 375 1225 375 
Q 1528 375 1745 492 
Q 1963 609 2100 806 
Q 2238 1003 2306 1262 
Q 2375 1522 2381 1809 
Q 2216 1713 1984 1638 
Q 1753 1563 1453 1563 
Q 1116 1563 886 1655 
Q 656 1747 517 1906 
Q 378 2066 317 2284 
Q 256 2503 256 2763 
Q 256 3031 334 3273 
Q 413 3516 578 3700 
Q 744 3884 1000 3993 
Q 1256 4103 1613 4103 
Q 1866 4103 2061 4039 
Q 2256 3975 2400 3854 
Q 2544 3734 2644 3564 
Q 2744 3394 2805 3178 
Q 2866 2963 2892 2711 
Q 2919 2459 2919 2181 
z
M 2372 2241 
Q 2372 2641 2319 2914 
Q 2266 3188 2162 3356 
Q 2059 3525 1909 3600 
Q 1759 3675 1563 3675 
Q 1359 3675 1215 3601 
Q 1072 3528 980 3404 
Q 888 3281 844 3125 
Q 800 2969 800 2803 
Q 800 2619 839 2466 
Q 878 2313 965 2206 
Q 1053 2100 1193 2042 
Q 1334 1984 1541 1984 
Q 1775 1984 1994 2054 
Q 2213 2125 2372 2241 
z
" transform="scale(0.015625)"/>
       </defs>
       <use xlink:href="#Calibri-30"/>
       <use xlink:href="#Calibri-2e" x="50.683594"/>
       <use xlink:href="#Calibri-39" x="75.927734"/>
      </g>
     </g>
    </g>
    <g id="xtick_11">
     <g id="line2d_11">
      <g>
       <use xlink:href="#m3863e96603" x="343.296" y="307.584" style="stroke: #000000; stroke-width: 0.8"/>
      </g>
     </g>
     <g id="text_11">
      <!-- 1.0 -->
      <g transform="translate(336.96475 321.385562) scale(0.1 -0.1)">
       <use xlink:href="#Calibri-31"/>
       <use xlink:href="#Calibri-2e" x="50.683594"/>
       <use xlink:href="#Calibri-30" x="75.927734"/>
      </g>
     </g>
    </g>
    <g id="text_12">
     <!-- $\mathit{p}$ (cm$^2$/cm$^2$) -->
     <g transform="translate(174.148 336.263687) scale(0.1 -0.1)">
      <defs>
       <path id="DejaVuSans-Oblique-70" d="M 3175 2156 
Q 3175 2616 2975 2859 
Q 2775 3103 2400 3103 
Q 2144 3103 1911 2972 
Q 1678 2841 1497 2591 
Q 1319 2344 1212 1994 
Q 1106 1644 1106 1300 
Q 1106 863 1306 627 
Q 1506 391 1875 391 
Q 2147 391 2380 519 
Q 2613 647 2778 891 
Q 2956 1147 3065 1494 
Q 3175 1841 3175 2156 
z
M 1394 2969 
Q 1625 3272 1939 3428 
Q 2253 3584 2638 3584 
Q 3175 3584 3472 3232 
Q 3769 2881 3769 2247 
Q 3769 1728 3584 1258 
Q 3400 788 3053 416 
Q 2822 169 2531 39 
Q 2241 -91 1919 -91 
Q 1547 -91 1294 64 
Q 1041 219 916 525 
L 556 -1331 
L -19 -1331 
L 922 3500 
L 1497 3500 
L 1394 2969 
z
" transform="scale(0.015625)"/>
       <path id="Calibri-20" transform="scale(0.015625)"/>
       <path id="Calibri-28" d="M 1547 4306 
Q 1250 3678 1104 3017 
Q 959 2356 959 1688 
Q 959 1016 1107 356 
Q 1256 -303 1541 -938 
Q 1556 -975 1557 -1001 
Q 1559 -1028 1537 -1045 
Q 1516 -1063 1470 -1070 
Q 1425 -1078 1347 -1078 
Q 1291 -1078 1250 -1075 
Q 1209 -1072 1179 -1062 
Q 1150 -1053 1131 -1040 
Q 1113 -1028 1103 -1013 
Q 934 -694 806 -367 
Q 678 -41 590 296 
Q 503 634 459 979 
Q 416 1325 416 1678 
Q 416 2031 464 2375 
Q 513 2719 602 3058 
Q 691 3397 819 3725 
Q 947 4053 1106 4375 
Q 1109 4388 1123 4397 
Q 1138 4406 1163 4415 
Q 1188 4425 1231 4429 
Q 1275 4434 1344 4434 
Q 1416 4434 1459 4425 
Q 1503 4416 1528 4400 
Q 1553 4384 1556 4359 
Q 1559 4334 1547 4306 
z
" transform="scale(0.015625)"/>
       <path id="Calibri-63" d="M 2500 506 
Q 2500 453 2497 414 
Q 2494 375 2486 348 
Q 2478 322 2467 301 
Q 2456 281 2417 242 
Q 2378 203 2284 145 
Q 2191 88 2073 42 
Q 1956 -3 1818 -31 
Q 1681 -59 1534 -59 
Q 1231 -59 997 41 
Q 763 141 605 333 
Q 447 525 364 804 
Q 281 1084 281 1450 
Q 281 1866 382 2164 
Q 484 2463 661 2653 
Q 838 2844 1077 2936 
Q 1316 3028 1594 3028 
Q 1728 3028 1854 3003 
Q 1981 2978 2087 2937 
Q 2194 2897 2276 2844 
Q 2359 2791 2396 2753 
Q 2434 2716 2448 2694 
Q 2463 2672 2472 2642 
Q 2481 2613 2484 2575 
Q 2488 2538 2488 2481 
Q 2488 2359 2459 2311 
Q 2431 2263 2391 2263 
Q 2344 2263 2283 2314 
Q 2222 2366 2128 2428 
Q 2034 2491 1901 2542 
Q 1769 2594 1588 2594 
Q 1216 2594 1017 2308 
Q 819 2022 819 1478 
Q 819 1206 870 1001 
Q 922 797 1022 659 
Q 1122 522 1267 455 
Q 1413 388 1600 388 
Q 1778 388 1912 444 
Q 2047 500 2145 567 
Q 2244 634 2311 689 
Q 2378 744 2416 744 
Q 2438 744 2453 731 
Q 2469 719 2480 689 
Q 2491 659 2495 614 
Q 2500 569 2500 506 
z
" transform="scale(0.015625)"/>
       <path id="Calibri-6d" d="M 4650 78 
Q 4650 53 4637 36 
Q 4625 19 4597 6 
Q 4569 -6 4519 -12 
Q 4469 -19 4394 -19 
Q 4316 -19 4266 -12 
Q 4216 -6 4186 6 
Q 4156 19 4143 36 
Q 4131 53 4131 78 
L 4131 1788 
Q 4131 1966 4100 2112 
Q 4069 2259 4000 2365 
Q 3931 2472 3825 2528 
Q 3719 2584 3575 2584 
Q 3397 2584 3217 2446 
Q 3038 2309 2822 2044 
L 2822 78 
Q 2822 53 2809 36 
Q 2797 19 2767 6 
Q 2738 -6 2688 -12 
Q 2638 -19 2563 -19 
Q 2491 -19 2439 -12 
Q 2388 -6 2358 6 
Q 2328 19 2317 36 
Q 2306 53 2306 78 
L 2306 1788 
Q 2306 1966 2272 2112 
Q 2238 2259 2169 2365 
Q 2100 2472 1995 2528 
Q 1891 2584 1747 2584 
Q 1569 2584 1387 2446 
Q 1206 2309 994 2044 
L 994 78 
Q 994 53 981 36 
Q 969 19 941 6 
Q 913 -6 863 -12 
Q 813 -19 734 -19 
Q 659 -19 609 -12 
Q 559 -6 529 6 
Q 500 19 489 36 
Q 478 53 478 78 
L 478 2891 
Q 478 2916 487 2933 
Q 497 2950 525 2964 
Q 553 2978 597 2983 
Q 641 2988 713 2988 
Q 781 2988 826 2983 
Q 872 2978 897 2964 
Q 922 2950 933 2933 
Q 944 2916 944 2891 
L 944 2519 
Q 1181 2784 1404 2907 
Q 1628 3031 1856 3031 
Q 2031 3031 2170 2990 
Q 2309 2950 2415 2876 
Q 2522 2803 2597 2701 
Q 2672 2600 2722 2475 
Q 2863 2628 2989 2734 
Q 3116 2841 3233 2906 
Q 3350 2972 3461 3001 
Q 3572 3031 3684 3031 
Q 3956 3031 4140 2936 
Q 4325 2841 4439 2681 
Q 4553 2522 4601 2308 
Q 4650 2094 4650 1856 
L 4650 78 
z
" transform="scale(0.015625)"/>
       <path id="DejaVuSans-32" d="M 1228 531 
L 3431 531 
L 3431 0 
L 469 0 
L 469 531 
Q 828 903 1448 1529 
Q 2069 2156 2228 2338 
Q 2531 2678 2651 2914 
Q 2772 3150 2772 3378 
Q 2772 3750 2511 3984 
Q 2250 4219 1831 4219 
Q 1534 4219 1204 4116 
Q 875 4013 500 3803 
L 500 4441 
Q 881 4594 1212 4672 
Q 1544 4750 1819 4750 
Q 2544 4750 2975 4387 
Q 3406 4025 3406 3419 
Q 3406 3131 3298 2873 
Q 3191 2616 2906 2266 
Q 2828 2175 2409 1742 
Q 1991 1309 1228 531 
z
" transform="scale(0.015625)"/>
       <path id="Calibri-2f" d="M 525 -753 
Q 513 -794 492 -817 
Q 472 -841 440 -853 
Q 409 -866 364 -872 
Q 319 -878 253 -878 
Q 175 -878 123 -867 
Q 72 -856 44 -836 
Q 16 -816 9 -786 
Q 3 -756 22 -716 
L 1913 4469 
Q 1925 4509 1945 4532 
Q 1966 4556 1995 4570 
Q 2025 4584 2072 4589 
Q 2119 4594 2184 4594 
Q 2263 4594 2313 4583 
Q 2363 4572 2391 4553 
Q 2419 4534 2425 4503 
Q 2431 4472 2416 4431 
L 525 -753 
z
" transform="scale(0.015625)"/>
       <path id="Calibri-29" d="M 1522 1678 
Q 1522 1325 1478 979 
Q 1434 634 1346 296 
Q 1259 -41 1132 -367 
Q 1006 -694 838 -1013 
Q 828 -1028 809 -1040 
Q 791 -1053 761 -1062 
Q 731 -1072 690 -1075 
Q 650 -1078 594 -1078 
Q 513 -1078 467 -1070 
Q 422 -1063 401 -1045 
Q 381 -1028 382 -1001 
Q 384 -975 400 -938 
Q 688 -306 834 355 
Q 981 1016 981 1688 
Q 981 2356 834 3017 
Q 688 3678 394 4306 
Q 381 4334 384 4359 
Q 388 4384 413 4400 
Q 438 4416 481 4425 
Q 525 4434 597 4434 
Q 663 4434 706 4429 
Q 750 4425 776 4415 
Q 803 4406 815 4397 
Q 828 4388 834 4375 
Q 1156 3734 1339 3057 
Q 1522 2381 1522 1678 
z
" transform="scale(0.015625)"/>
      </defs>
      <use xlink:href="#DejaVuSans-Oblique-70" transform="translate(0 0.765625)"/>
      <use xlink:href="#Calibri-20" transform="translate(63.476562 0.765625)"/>
      <use xlink:href="#Calibri-28" transform="translate(84.958984 0.765625)"/>
      <use xlink:href="#Calibri-63" transform="translate(115.28125 0.765625)"/>
      <use xlink:href="#Calibri-6d" transform="translate(157.566406 0.765625)"/>
      <use xlink:href="#DejaVuSans-32" transform="translate(238.40625 39.046875) scale(0.7)"/>
      <use xlink:href="#Calibri-2f" transform="translate(285.676758 0.765625)"/>
      <use xlink:href="#Calibri-63" transform="translate(324.299805 0.765625)"/>
      <use xlink:href="#Calibri-6d" transform="translate(366.584961 0.765625)"/>
      <use xlink:href="#DejaVuSans-32" transform="translate(447.424805 39.046875) scale(0.7)"/>
      <use xlink:href="#Calibri-29" transform="translate(494.695312 0.765625)"/>
     </g>
    </g>
   </g>
   <g id="matplotlib.axis_2">
    <g id="ytick_1">
     <g id="line2d_12">
      <defs>
       <path id="mb8765c684b" d="M 0 0 
L -3.5 0 
" style="stroke: #000000; stroke-width: 0.8"/>
      </defs>
      <g>
       <use xlink:href="#mb8765c684b" x="57.6" y="275.65056" style="stroke: #000000; stroke-width: 0.8"/>
      </g>
     </g>
     <g id="text_13">
      <!-- 25 -->
      <g transform="translate(40.4625 279.051341) scale(0.1 -0.1)">
       <use xlink:href="#Calibri-32"/>
       <use xlink:href="#Calibri-35" x="50.683594"/>
      </g>
     </g>
    </g>
    <g id="ytick_2">
     <g id="line2d_13">
      <g>
       <use xlink:href="#mb8765c684b" x="57.6" y="242.38656" style="stroke: #000000; stroke-width: 0.8"/>
      </g>
     </g>
     <g id="text_14">
      <!-- 50 -->
      <g transform="translate(40.4625 245.787341) scale(0.1 -0.1)">
       <use xlink:href="#Calibri-35"/>
       <use xlink:href="#Calibri-30" x="50.683594"/>
      </g>
     </g>
    </g>
    <g id="ytick_3">
     <g id="line2d_14">
      <g>
       <use xlink:href="#mb8765c684b" x="57.6" y="209.12256" style="stroke: #000000; stroke-width: 0.8"/>
      </g>
     </g>
     <g id="text_15">
      <!-- 75 -->
      <g transform="translate(40.4625 212.523341) scale(0.1 -0.1)">
       <use xlink:href="#Calibri-37"/>
       <use xlink:href="#Calibri-35" x="50.683594"/>
      </g>
     </g>
    </g>
    <g id="ytick_4">
     <g id="line2d_15">
      <g>
       <use xlink:href="#mb8765c684b" x="57.6" y="175.85856" style="stroke: #000000; stroke-width: 0.8"/>
      </g>
     </g>
     <g id="text_16">
      <!-- 100 -->
      <g transform="translate(35.39375 179.259341) scale(0.1 -0.1)">
       <use xlink:href="#Calibri-31"/>
       <use xlink:href="#Calibri-30" x="50.683594"/>
       <use xlink:href="#Calibri-30" x="101.367188"/>
      </g>
     </g>
    </g>
    <g id="ytick_5">
     <g id="line2d_16">
      <g>
       <use xlink:href="#mb8765c684b" x="57.6" y="142.59456" style="stroke: #000000; stroke-width: 0.8"/>
      </g>
     </g>
     <g id="text_17">
      <!-- 125 -->
      <g transform="translate(35.39375 145.995341) scale(0.1 -0.1)">
       <use xlink:href="#Calibri-31"/>
       <use xlink:href="#Calibri-32" x="50.683594"/>
       <use xlink:href="#Calibri-35" x="101.367188"/>
      </g>
     </g>
    </g>
    <g id="ytick_6">
     <g id="line2d_17">
      <g>
       <use xlink:href="#mb8765c684b" x="57.6" y="109.33056" style="stroke: #000000; stroke-width: 0.8"/>
      </g>
     </g>
     <g id="text_18">
      <!-- 150 -->
      <g transform="translate(35.39375 112.731341) scale(0.1 -0.1)">
       <use xlink:href="#Calibri-31"/>
       <use xlink:href="#Calibri-35" x="50.683594"/>
       <use xlink:href="#Calibri-30" x="101.367188"/>
      </g>
     </g>
    </g>
    <g id="ytick_7">
     <g id="line2d_18">
      <g>
       <use xlink:href="#mb8765c684b" x="57.6" y="76.06656" style="stroke: #000000; stroke-width: 0.8"/>
      </g>
     </g>
     <g id="text_19">
      <!-- 175 -->
      <g transform="translate(35.39375 79.467341) scale(0.1 -0.1)">
       <use xlink:href="#Calibri-31"/>
       <use xlink:href="#Calibri-37" x="50.683594"/>
       <use xlink:href="#Calibri-35" x="101.367188"/>
      </g>
     </g>
    </g>
    <g id="ytick_8">
     <g id="line2d_19">
      <g>
       <use xlink:href="#mb8765c684b" x="57.6" y="42.80256" style="stroke: #000000; stroke-width: 0.8"/>
      </g>
     </g>
     <g id="text_20">
      <!-- 200 -->
      <g transform="translate(35.39375 46.203341) scale(0.1 -0.1)">
       <use xlink:href="#Calibri-32"/>
       <use xlink:href="#Calibri-30" x="50.683594"/>
       <use xlink:href="#Calibri-30" x="101.367188"/>
      </g>
     </g>
    </g>
    <g id="text_21">
     <!-- $\mathit{Z}$$_{a}$ (nm) -->
     <g transform="translate(29.59375 191.028) rotate(-90) scale(0.1 -0.1)">
      <defs>
       <path id="DejaVuSans-Oblique-5a" d="M 838 4666 
L 4500 4666 
L 4409 4184 
L 794 531 
L 3769 531 
L 3669 0 
L -141 0 
L -50 481 
L 3566 4134 
L 738 4134 
L 838 4666 
z
" transform="scale(0.015625)"/>
       <path id="DejaVuSans-Oblique-61" d="M 3438 1997 
L 3047 0 
L 2472 0 
L 2578 531 
Q 2325 219 2001 64 
Q 1678 -91 1281 -91 
Q 834 -91 548 182 
Q 263 456 263 884 
Q 263 1497 752 1853 
Q 1241 2209 2100 2209 
L 2900 2209 
L 2931 2363 
Q 2938 2388 2941 2417 
Q 2944 2447 2944 2509 
Q 2944 2788 2717 2942 
Q 2491 3097 2081 3097 
Q 1800 3097 1504 3025 
Q 1209 2953 897 2809 
L 997 3341 
Q 1322 3463 1633 3523 
Q 1944 3584 2234 3584 
Q 2853 3584 3176 3315 
Q 3500 3047 3500 2534 
Q 3500 2431 3484 2292 
Q 3469 2153 3438 1997 
z
M 2816 1759 
L 2241 1759 
Q 1534 1759 1195 1570 
Q 856 1381 856 984 
Q 856 709 1029 553 
Q 1203 397 1509 397 
Q 1978 397 2328 733 
Q 2678 1069 2791 1631 
L 2816 1759 
z
" transform="scale(0.015625)"/>
       <path id="Calibri-6e" d="M 2900 78 
Q 2900 53 2887 36 
Q 2875 19 2847 6 
Q 2819 -6 2769 -12 
Q 2719 -19 2644 -19 
Q 2566 -19 2516 -12 
Q 2466 -6 2437 6 
Q 2409 19 2396 36 
Q 2384 53 2384 78 
L 2384 1725 
Q 2384 1966 2346 2112 
Q 2309 2259 2237 2365 
Q 2166 2472 2052 2528 
Q 1938 2584 1788 2584 
Q 1594 2584 1400 2446 
Q 1206 2309 994 2044 
L 994 78 
Q 994 53 981 36 
Q 969 19 941 6 
Q 913 -6 863 -12 
Q 813 -19 734 -19 
Q 659 -19 609 -12 
Q 559 -6 529 6 
Q 500 19 489 36 
Q 478 53 478 78 
L 478 2891 
Q 478 2916 487 2933 
Q 497 2950 525 2964 
Q 553 2978 597 2983 
Q 641 2988 713 2988 
Q 781 2988 826 2983 
Q 872 2978 897 2964 
Q 922 2950 933 2933 
Q 944 2916 944 2891 
L 944 2519 
Q 1181 2784 1417 2907 
Q 1653 3031 1894 3031 
Q 2175 3031 2367 2936 
Q 2559 2841 2678 2681 
Q 2797 2522 2848 2308 
Q 2900 2094 2900 1794 
L 2900 78 
z
" transform="scale(0.015625)"/>
      </defs>
      <use xlink:href="#DejaVuSans-Oblique-5a" transform="translate(0 0.09375)"/>
      <use xlink:href="#DejaVuSans-Oblique-61" transform="translate(69.462891 -16.3125) scale(0.7)"/>
      <use xlink:href="#Calibri-20" transform="translate(115.092773 0.09375)"/>
      <use xlink:href="#Calibri-28" transform="translate(136.575195 0.09375)"/>
      <use xlink:href="#Calibri-6e" transform="translate(166.897461 0.09375)"/>
      <use xlink:href="#Calibri-6d" transform="translate(219.436523 0.09375)"/>
      <use xlink:href="#Calibri-29" transform="translate(299.319336 0.09375)"/>
     </g>
    </g>
   </g>
   <g id="patch_3">
    <path d="M 57.6 307.584 
L 57.6 41.472 
" style="fill: none; stroke: #000000; stroke-width: 0.8; stroke-linejoin: miter; stroke-linecap: square"/>
   </g>
   <g id="patch_4">
    <path d="M 343.296 307.584 
L 343.296 41.472 
" style="fill: none; stroke: #000000; stroke-width: 0.8; stroke-linejoin: miter; stroke-linecap: square"/>
   </g>
   <g id="patch_5">
    <path d="M 57.6 307.584 
L 343.296 307.584 
" style="fill: none; stroke: #000000; stroke-width: 0.8; stroke-linejoin: miter; stroke-linecap: square"/>
   </g>
   <g id="patch_6">
    <path d="M 57.6 41.472 
L 343.296 41.472 
" style="fill: none; stroke: #000000; stroke-width: 0.8; stroke-linejoin: miter; stroke-linecap: square"/>
   </g>
   <g id="text_22">
    <!-- $\theta_m$ = 63 -->
    <g transform="translate(182.298 35.472) scale(0.1 -0.1)">
     <defs>
      <path id="DejaVuSans-Oblique-3b8" d="M 2913 2219 
L 925 2219 
Q 791 1284 928 888 
Q 1100 400 1566 400 
Q 2034 400 2391 891 
Q 2703 1322 2913 2219 
z
M 3009 2750 
Q 3094 3638 2984 3950 
Q 2813 4444 2353 4444 
Q 1875 4444 1525 3956 
Q 1250 3563 1034 2750 
L 3009 2750 
z
M 2444 4913 
Q 3194 4913 3494 4250 
Q 3794 3591 3566 2422 
Q 3341 1256 2781 594 
Q 2225 -72 1475 -72 
Q 722 -72 425 594 
Q 128 1256 353 2422 
Q 581 3591 1134 4250 
Q 1691 4913 2444 4913 
z
" transform="scale(0.015625)"/>
      <path id="DejaVuSans-Oblique-6d" d="M 5747 2113 
L 5338 0 
L 4763 0 
L 5166 2094 
Q 5191 2228 5203 2325 
Q 5216 2422 5216 2491 
Q 5216 2772 5059 2928 
Q 4903 3084 4622 3084 
Q 4203 3084 3875 2770 
Q 3547 2456 3450 1953 
L 3066 0 
L 2491 0 
L 2900 2094 
Q 2925 2209 2937 2307 
Q 2950 2406 2950 2484 
Q 2950 2769 2794 2926 
Q 2638 3084 2363 3084 
Q 1938 3084 1609 2770 
Q 1281 2456 1184 1953 
L 800 0 
L 225 0 
L 909 3500 
L 1484 3500 
L 1375 2956 
Q 1609 3263 1923 3423 
Q 2238 3584 2597 3584 
Q 2978 3584 3223 3384 
Q 3469 3184 3519 2828 
Q 3781 3197 4126 3390 
Q 4472 3584 4856 3584 
Q 5306 3584 5551 3325 
Q 5797 3066 5797 2591 
Q 5797 2488 5784 2364 
Q 5772 2241 5747 2113 
z
" transform="scale(0.015625)"/>
      <path id="Calibri-3d" d="M 2891 2409 
Q 2891 2284 2855 2236 
Q 2819 2188 2772 2188 
L 409 2188 
Q 363 2188 328 2236 
Q 294 2284 294 2409 
Q 294 2522 325 2575 
Q 356 2628 409 2628 
L 2772 2628 
Q 2828 2628 2859 2575 
Q 2891 2522 2891 2409 
z
M 2891 1194 
Q 2891 1069 2855 1022 
Q 2819 975 2772 975 
L 409 975 
Q 363 975 328 1022 
Q 294 1069 294 1194 
Q 294 1309 325 1362 
Q 356 1416 409 1416 
L 2772 1416 
Q 2828 1416 2859 1362 
Q 2891 1309 2891 1194 
z
" transform="scale(0.015625)"/>
      <path id="Calibri-b0" d="M 1847 3541 
Q 1847 3388 1789 3253 
Q 1731 3119 1626 3017 
Q 1522 2916 1380 2859 
Q 1238 2803 1072 2803 
Q 906 2803 770 2854 
Q 634 2906 534 3000 
Q 434 3094 378 3225 
Q 322 3356 322 3516 
Q 322 3675 381 3811 
Q 441 3947 545 4044 
Q 650 4141 790 4197 
Q 931 4253 1097 4253 
Q 1259 4253 1396 4200 
Q 1534 4147 1634 4055 
Q 1734 3963 1790 3831 
Q 1847 3700 1847 3541 
z
M 1453 3528 
Q 1453 3613 1425 3686 
Q 1397 3759 1347 3812 
Q 1297 3866 1228 3895 
Q 1159 3925 1078 3925 
Q 1000 3925 933 3895 
Q 866 3866 816 3812 
Q 766 3759 737 3687 
Q 709 3616 709 3534 
Q 709 3444 737 3369 
Q 766 3294 817 3241 
Q 869 3188 939 3158 
Q 1009 3128 1091 3128 
Q 1166 3128 1233 3159 
Q 1300 3191 1348 3245 
Q 1397 3300 1425 3372 
Q 1453 3444 1453 3528 
z
M 0 4044 
L 0 4044 
z
" transform="scale(0.015625)"/>
     </defs>
     <use xlink:href="#DejaVuSans-Oblique-3b8" transform="translate(0 0.234375)"/>
     <use xlink:href="#DejaVuSans-Oblique-6d" transform="translate(61.181641 -16.171875) scale(0.7)"/>
     <use xlink:href="#Calibri-20" transform="translate(132.104492 0.234375)"/>
     <use xlink:href="#Calibri-3d" transform="translate(154.711914 0.234375)"/>
     <use xlink:href="#Calibri-20" transform="translate(204.516602 0.234375)"/>
     <use xlink:href="#Calibri-36" transform="translate(227.124023 0.234375)"/>
     <use xlink:href="#Calibri-33" transform="translate(277.807617 0.234375)"/>
     <use xlink:href="#Calibri-b0" transform="translate(328.491211 0.234375)"/>
    </g>
   </g>
  </g>
  <g id="axes_2">
   <g id="patch_7">
    <path d="M 361.152 307.584 
L 374.4576 307.584 
L 374.4576 41.472 
L 361.152 41.472 
z
" style="fill: #ffffff"/>
   </g>
   <g id="QuadMesh_1">
    <path d="M 361.152 307.584 
L 374.4576 307.584 
L 374.4576 280.9728 
L 361.152 280.9728 
L 361.152 307.584 
" clip-path="url(#pa1ddd6cb72)" style="fill: #0000b6"/>
    <path d="M 361.152 280.9728 
L 374.4576 280.9728 
L 374.4576 254.3616 
L 361.152 254.3616 
L 361.152 280.9728 
" clip-path="url(#pa1ddd6cb72)" style="fill: #0018ff"/>
    <path d="M 361.152 254.3616 
L 374.4576 254.3616 
L 374.4576 227.7504 
L 361.152 227.7504 
L 361.152 254.3616 
" clip-path="url(#pa1ddd6cb72)" style="fill: #0080ff"/>
    <path d="M 361.152 227.7504 
L 374.4576 227.7504 
L 374.4576 201.1392 
L 361.152 201.1392 
L 361.152 227.7504 
" clip-path="url(#pa1ddd6cb72)" style="fill: #00e4f8"/>
    <path d="M 361.152 201.1392 
L 374.4576 201.1392 
L 374.4576 174.528 
L 361.152 174.528 
L 361.152 201.1392 
" clip-path="url(#pa1ddd6cb72)" style="fill: #53ffa4"/>
    <path d="M 361.152 174.528 
L 374.4576 174.528 
L 374.4576 147.9168 
L 361.152 147.9168 
L 361.152 174.528 
" clip-path="url(#pa1ddd6cb72)" style="fill: #a4ff53"/>
    <path d="M 361.152 147.9168 
L 374.4576 147.9168 
L 374.4576 121.3056 
L 361.152 121.3056 
L 361.152 147.9168 
" clip-path="url(#pa1ddd6cb72)" style="fill: #f8f500"/>
    <path d="M 361.152 121.3056 
L 374.4576 121.3056 
L 374.4576 94.6944 
L 361.152 94.6944 
L 361.152 121.3056 
" clip-path="url(#pa1ddd6cb72)" style="fill: #ff9400"/>
    <path d="M 361.152 94.6944 
L 374.4576 94.6944 
L 374.4576 68.0832 
L 361.152 68.0832 
L 361.152 94.6944 
" clip-path="url(#pa1ddd6cb72)" style="fill: #ff3800"/>
    <path d="M 361.152 68.0832 
L 374.4576 68.0832 
L 374.4576 41.472 
L 361.152 41.472 
L 361.152 68.0832 
" clip-path="url(#pa1ddd6cb72)" style="fill: #b60000"/>
   </g>
   <g id="matplotlib.axis_3"/>
   <g id="matplotlib.axis_4">
    <g id="ytick_9">
     <g id="line2d_20">
      <defs>
       <path id="mfc3d381dd6" d="M 0 0 
L 3.5 0 
" style="stroke: #000000; stroke-width: 0.8"/>
      </defs>
      <g>
       <use xlink:href="#mfc3d381dd6" x="374.4576" y="307.584" style="stroke: #000000; stroke-width: 0.8"/>
      </g>
     </g>
     <g id="text_23">
      <!-- 0 -->
      <g transform="translate(381.4576 310.984781) scale(0.1 -0.1)">
       <use xlink:href="#Calibri-30"/>
      </g>
     </g>
    </g>
    <g id="ytick_10">
     <g id="line2d_21">
      <g>
       <use xlink:href="#mfc3d381dd6" x="374.4576" y="280.9728" style="stroke: #000000; stroke-width: 0.8"/>
      </g>
     </g>
     <g id="text_24">
      <!-- 0.1 -->
      <g transform="translate(381.4576 284.373581) scale(0.1 -0.1)">
       <use xlink:href="#Calibri-30"/>
       <use xlink:href="#Calibri-2e" x="50.683594"/>
       <use xlink:href="#Calibri-31" x="75.927734"/>
      </g>
     </g>
    </g>
    <g id="ytick_11">
     <g id="line2d_22">
      <g>
       <use xlink:href="#mfc3d381dd6" x="374.4576" y="254.3616" style="stroke: #000000; stroke-width: 0.8"/>
      </g>
     </g>
     <g id="text_25">
      <!-- 0.2 -->
      <g transform="translate(381.4576 257.762381) scale(0.1 -0.1)">
       <use xlink:href="#Calibri-30"/>
       <use xlink:href="#Calibri-2e" x="50.683594"/>
       <use xlink:href="#Calibri-32" x="75.927734"/>
      </g>
     </g>
    </g>
    <g id="ytick_12">
     <g id="line2d_23">
      <g>
       <use xlink:href="#mfc3d381dd6" x="374.4576" y="227.7504" style="stroke: #000000; stroke-width: 0.8"/>
      </g>
     </g>
     <g id="text_26">
      <!-- 0.3 -->
      <g transform="translate(381.4576 231.151181) scale(0.1 -0.1)">
       <use xlink:href="#Calibri-30"/>
       <use xlink:href="#Calibri-2e" x="50.683594"/>
       <use xlink:href="#Calibri-33" x="75.927734"/>
      </g>
     </g>
    </g>
    <g id="ytick_13">
     <g id="line2d_24">
      <g>
       <use xlink:href="#mfc3d381dd6" x="374.4576" y="201.1392" style="stroke: #000000; stroke-width: 0.8"/>
      </g>
     </g>
     <g id="text_27">
      <!-- 0.4 -->
      <g transform="translate(381.4576 204.539981) scale(0.1 -0.1)">
       <use xlink:href="#Calibri-30"/>
       <use xlink:href="#Calibri-2e" x="50.683594"/>
       <use xlink:href="#Calibri-34" x="75.927734"/>
      </g>
     </g>
    </g>
    <g id="ytick_14">
     <g id="line2d_25">
      <g>
       <use xlink:href="#mfc3d381dd6" x="374.4576" y="174.528" style="stroke: #000000; stroke-width: 0.8"/>
      </g>
     </g>
     <g id="text_28">
      <!-- 0.5 -->
      <g transform="translate(381.4576 177.928781) scale(0.1 -0.1)">
       <use xlink:href="#Calibri-30"/>
       <use xlink:href="#Calibri-2e" x="50.683594"/>
       <use xlink:href="#Calibri-35" x="75.927734"/>
      </g>
     </g>
    </g>
    <g id="ytick_15">
     <g id="line2d_26">
      <g>
       <use xlink:href="#mfc3d381dd6" x="374.4576" y="147.9168" style="stroke: #000000; stroke-width: 0.8"/>
      </g>
     </g>
     <g id="text_29">
      <!-- 0.6 -->
      <g transform="translate(381.4576 151.317581) scale(0.1 -0.1)">
       <use xlink:href="#Calibri-30"/>
       <use xlink:href="#Calibri-2e" x="50.683594"/>
       <use xlink:href="#Calibri-36" x="75.927734"/>
      </g>
     </g>
    </g>
    <g id="ytick_16">
     <g id="line2d_27">
      <g>
       <use xlink:href="#mfc3d381dd6" x="374.4576" y="121.3056" style="stroke: #000000; stroke-width: 0.8"/>
      </g>
     </g>
     <g id="text_30">
      <!-- 0.7 -->
      <g transform="translate(381.4576 124.706381) scale(0.1 -0.1)">
       <use xlink:href="#Calibri-30"/>
       <use xlink:href="#Calibri-2e" x="50.683594"/>
       <use xlink:href="#Calibri-37" x="75.927734"/>
      </g>
     </g>
    </g>
    <g id="ytick_17">
     <g id="line2d_28">
      <g>
       <use xlink:href="#mfc3d381dd6" x="374.4576" y="94.6944" style="stroke: #000000; stroke-width: 0.8"/>
      </g>
     </g>
     <g id="text_31">
      <!-- 0.8 -->
      <g transform="translate(381.4576 98.095181) scale(0.1 -0.1)">
       <use xlink:href="#Calibri-30"/>
       <use xlink:href="#Calibri-2e" x="50.683594"/>
       <use xlink:href="#Calibri-38" x="75.927734"/>
      </g>
     </g>
    </g>
    <g id="ytick_18">
     <g id="line2d_29">
      <g>
       <use xlink:href="#mfc3d381dd6" x="374.4576" y="68.0832" style="stroke: #000000; stroke-width: 0.8"/>
      </g>
     </g>
     <g id="text_32">
      <!-- 0.9 -->
      <g transform="translate(381.4576 71.483981) scale(0.1 -0.1)">
       <use xlink:href="#Calibri-30"/>
       <use xlink:href="#Calibri-2e" x="50.683594"/>
       <use xlink:href="#Calibri-39" x="75.927734"/>
      </g>
     </g>
    </g>
    <g id="ytick_19">
     <g id="line2d_30">
      <g>
       <use xlink:href="#mfc3d381dd6" x="374.4576" y="41.472" style="stroke: #000000; stroke-width: 0.8"/>
      </g>
     </g>
     <g id="text_33">
      <!-- 1.0 -->
      <g transform="translate(381.4576 44.872781) scale(0.1 -0.1)">
       <use xlink:href="#Calibri-31"/>
       <use xlink:href="#Calibri-2e" x="50.683594"/>
       <use xlink:href="#Calibri-30" x="75.927734"/>
      </g>
     </g>
    </g>
   </g>
   <g id="LineCollection_1"/>
   <g id="patch_8">
    <path d="M 361.152 307.584 
L 367.8048 307.584 
L 374.4576 307.584 
L 374.4576 41.472 
L 367.8048 41.472 
L 361.152 41.472 
L 361.152 307.584 
z
" style="fill: none; stroke: #000000; stroke-width: 0.8; stroke-linejoin: miter; stroke-linecap: square"/>
   </g>
   <g id="text_34">
    <!-- $\mathit{E}_{\mathrm{dis}}$/$\mathit{E}_{\mathrm{i}}$ -->
    <g transform="translate(353.2548 35.472) scale(0.1 -0.1)">
     <defs>
      <path id="DejaVuSans-Oblique-45" d="M 1081 4666 
L 4031 4666 
L 3928 4134 
L 1606 4134 
L 1338 2753 
L 3566 2753 
L 3463 2222 
L 1234 2222 
L 909 531 
L 3284 531 
L 3181 0 
L 172 0 
L 1081 4666 
z
" transform="scale(0.015625)"/>
      <path id="DejaVuSans-64" d="M 2906 2969 
L 2906 4863 
L 3481 4863 
L 3481 0 
L 2906 0 
L 2906 525 
Q 2725 213 2448 61 
Q 2172 -91 1784 -91 
Q 1150 -91 751 415 
Q 353 922 353 1747 
Q 353 2572 751 3078 
Q 1150 3584 1784 3584 
Q 2172 3584 2448 3432 
Q 2725 3281 2906 2969 
z
M 947 1747 
Q 947 1113 1208 752 
Q 1469 391 1925 391 
Q 2381 391 2643 752 
Q 2906 1113 2906 1747 
Q 2906 2381 2643 2742 
Q 2381 3103 1925 3103 
Q 1469 3103 1208 2742 
Q 947 2381 947 1747 
z
" transform="scale(0.015625)"/>
      <path id="DejaVuSans-69" d="M 603 3500 
L 1178 3500 
L 1178 0 
L 603 0 
L 603 3500 
z
M 603 4863 
L 1178 4863 
L 1178 4134 
L 603 4134 
L 603 4863 
z
" transform="scale(0.015625)"/>
      <path id="DejaVuSans-73" d="M 2834 3397 
L 2834 2853 
Q 2591 2978 2328 3040 
Q 2066 3103 1784 3103 
Q 1356 3103 1142 2972 
Q 928 2841 928 2578 
Q 928 2378 1081 2264 
Q 1234 2150 1697 2047 
L 1894 2003 
Q 2506 1872 2764 1633 
Q 3022 1394 3022 966 
Q 3022 478 2636 193 
Q 2250 -91 1575 -91 
Q 1294 -91 989 -36 
Q 684 19 347 128 
L 347 722 
Q 666 556 975 473 
Q 1284 391 1588 391 
Q 1994 391 2212 530 
Q 2431 669 2431 922 
Q 2431 1156 2273 1281 
Q 2116 1406 1581 1522 
L 1381 1569 
Q 847 1681 609 1914 
Q 372 2147 372 2553 
Q 372 3047 722 3315 
Q 1072 3584 1716 3584 
Q 2034 3584 2315 3537 
Q 2597 3491 2834 3397 
z
" transform="scale(0.015625)"/>
     </defs>
     <use xlink:href="#DejaVuSans-Oblique-45" transform="translate(0 0.09375)"/>
     <use xlink:href="#DejaVuSans-64" transform="translate(63.183594 -16.3125) scale(0.7)"/>
     <use xlink:href="#DejaVuSans-69" transform="translate(107.617188 -16.3125) scale(0.7)"/>
     <use xlink:href="#DejaVuSans-73" transform="translate(127.06543 -16.3125) scale(0.7)"/>
     <use xlink:href="#Calibri-2f" transform="translate(166.269531 0.09375)"/>
     <use xlink:href="#DejaVuSans-Oblique-45" transform="translate(204.892578 0.09375)"/>
     <use xlink:href="#DejaVuSans-69" transform="translate(268.076172 -16.3125) scale(0.7)"/>
    </g>
   </g>
  </g>
 </g>
 <defs>
  <clipPath id="p684d0bc317">
   <rect x="57.6" y="41.472" width="285.696" height="266.112"/>
  </clipPath>
  <clipPath id="pa1ddd6cb72">
   <rect x="361.152" y="41.472" width="13.3056" height="266.112"/>
  </clipPath>
 </defs>
</svg>
