<?xml version="1.0" encoding="utf-8" standalone="no"?>
<!DOCTYPE svg PUBLIC "-//W3C//DTD SVG 1.1//EN"
  "http://www.w3.org/Graphics/SVG/1.1/DTD/svg11.dtd">
<svg xmlns:xlink="http://www.w3.org/1999/xlink" width="460.8pt" height="345.6pt" viewBox="0 0 460.8 345.6" xmlns="http://www.w3.org/2000/svg" version="1.1">
 <metadata>
  <rdf:RDF xmlns:dc="http://purl.org/dc/elements/1.1/" xmlns:cc="http://creativecommons.org/ns#" xmlns:rdf="http://www.w3.org/1999/02/22-rdf-syntax-ns#">
   <cc:Work>
    <dc:type rdf:resource="http://purl.org/dc/dcmitype/StillImage"/>
    <dc:date>2024-01-22T08:43:19.931385</dc:date>
    <dc:format>image/svg+xml</dc:format>
    <dc:creator>
     <cc:Agent>
      <dc:title>Matplotlib v3.7.1, https://matplotlib.org/</dc:title>
     </cc:Agent>
    </dc:creator>
   </cc:Work>
  </rdf:RDF>
 </metadata>
 <defs>
  <style type="text/css">*{stroke-linejoin: round; stroke-linecap: butt}</style>
 </defs>
 <g id="figure_1">
  <g id="patch_1">
   <path d="M 0 345.6 
L 460.8 345.6 
L 460.8 0 
L 0 0 
z
" style="fill: #ffffff"/>
  </g>
  <g id="axes_1">
   <g id="patch_2">
    <path d="M 57.6 307.584 
L 343.296 307.584 
L 343.296 41.472 
L 57.6 41.472 
z
" style="fill: #ffffff"/>
   </g>
   <g id="PathCollection_1">
    <path d="M 57.62857 168.41191 
L 57.860062 168.380569 
L 58.781363 168.210609 
L 59.399051 168.098345 
L 60.59951 167.8752 
L 61.922498 167.62453 
L 62.628012 167.487897 
L 63.952621 167.234989 
L 64.434751 167.140594 
L 65.658908 166.90092 
L 66.268389 166.7783 
L 66.351126 166.760887 
L 67.159528 166.59735 
L 67.377238 166.551382 
L 69.055492 166.209997 
L 69.521907 166.110742 
L 70.09248 165.994031 
L 70.743648 165.855007 
L 71.837264 165.630055 
L 72.695581 165.445346 
L 73.022949 165.377629 
L 74.118049 165.141186 
L 74.613539 165.038111 
L 75.872252 164.764156 
L 75.950855 164.747712 
L 76.86173 164.5488 
L 77.382668 164.430569 
L 77.504157 164.40181 
L 78.873214 164.088564 
L 79.056124 164.045015 
L 80.139548 163.796285 
L 80.913892 163.610853 
L 81.791457 163.407724 
L 82.245203 163.298432 
L 82.890291 163.148604 
L 84.333189 162.799021 
L 84.706786 162.711526 
L 85.437787 162.533375 
L 85.634702 162.487099 
L 86.819339 162.19668 
L 87.474098 162.031718 
L 87.965306 161.907962 
L 89.228344 161.582458 
L 89.849544 161.424071 
L 90.62546 161.2224 
L 91.960843 160.869729 
L 92.209635 160.80254 
L 93.533688 160.444965 
L 93.93336 160.338123 
L 94.262578 160.24812 
L 94.624756 160.146997 
L 94.700265 160.125162 
L 96.509639 159.616863 
L 96.942528 159.490591 
L 97.516834 159.328254 
L 98.205012 159.126786 
L 99.202603 158.843045 
L 100.166851 158.558257 
L 100.405216 158.490034 
L 101.723055 158.099382 
L 101.887663 158.051972 
L 102.40915 157.896 
L 103.28809 157.622784 
L 103.33993 157.603826 
L 103.33993 154.5696 
L 103.33993 151.2432 
L 103.33993 147.9168 
L 103.33993 144.5904 
L 103.33993 141.264 
L 103.33993 137.9376 
L 103.33993 134.6112 
L 103.33993 131.2848 
L 103.33993 127.9584 
L 103.33993 124.632 
L 103.33993 121.3056 
L 103.33993 117.9792 
L 103.33993 114.6528 
L 103.33993 111.3264 
L 103.33993 108 
L 103.33993 104.6736 
L 103.33993 101.3472 
L 103.33993 98.0208 
L 103.33993 94.6944 
L 103.33993 91.368 
L 103.33993 88.0416 
L 103.33993 84.7152 
L 103.33993 81.3888 
L 103.33993 78.0624 
L 103.33993 74.736 
L 103.33993 71.4096 
L 103.33993 68.0832 
L 103.33993 64.7568 
L 103.33993 61.4304 
L 103.33993 58.104 
L 103.33993 54.7776 
L 103.33993 51.4512 
L 103.33993 48.1248 
L 103.33993 44.7984 
L 103.33993 41.472 
L 101.816218 41.472 
L 100.292506 41.472 
L 98.768794 41.472 
L 97.245082 41.472 
L 95.72137 41.472 
L 94.197658 41.472 
L 92.673946 41.472 
L 91.150234 41.472 
L 89.626522 41.472 
L 88.10281 41.472 
L 86.579098 41.472 
L 85.055386 41.472 
L 83.531674 41.472 
L 82.007962 41.472 
L 80.48425 41.472 
L 78.960538 41.472 
L 77.436826 41.472 
L 75.913114 41.472 
L 74.389402 41.472 
L 72.86569 41.472 
L 71.341978 41.472 
L 69.818266 41.472 
L 68.294554 41.472 
L 66.770842 41.472 
L 65.24713 41.472 
L 63.723418 41.472 
L 62.199706 41.472 
L 60.675994 41.472 
L 59.152282 41.472 
L 57.62857 41.472 
L 57.62857 44.7984 
L 57.62857 48.1248 
L 57.62857 51.4512 
L 57.62857 54.7776 
L 57.62857 58.104 
L 57.62857 61.4304 
L 57.62857 64.7568 
L 57.62857 68.0832 
L 57.62857 71.4096 
L 57.62857 74.736 
L 57.62857 78.0624 
L 57.62857 81.3888 
L 57.62857 84.7152 
L 57.62857 88.0416 
L 57.62857 91.368 
L 57.62857 94.6944 
L 57.62857 98.0208 
L 57.62857 101.3472 
L 57.62857 104.6736 
L 57.62857 108 
L 57.62857 111.3264 
L 57.62857 114.6528 
L 57.62857 117.9792 
L 57.62857 121.3056 
L 57.62857 124.632 
L 57.62857 127.9584 
L 57.62857 131.2848 
L 57.62857 134.6112 
L 57.62857 137.9376 
L 57.62857 141.264 
L 57.62857 144.5904 
L 57.62857 147.9168 
L 57.62857 151.2432 
L 57.62857 154.5696 
L 57.62857 157.896 
L 57.62857 161.2224 
L 57.62857 164.5488 
L 57.62857 167.8752 
" clip-path="url(#p4ec466f373)" style="fill: #0000b6"/>
   </g>
   <g id="PathCollection_2">
    <path d="M 103.33993 157.603826 
L 103.28809 157.622784 
L 102.40915 157.896 
L 101.887663 158.051972 
L 101.723055 158.099382 
L 100.405216 158.490034 
L 100.166851 158.558257 
L 99.202603 158.843045 
L 98.205012 159.126786 
L 97.516834 159.328254 
L 96.942528 159.490591 
L 96.509639 159.616863 
L 94.700265 160.125162 
L 94.624756 160.146997 
L 94.262578 160.24812 
L 93.93336 160.338123 
L 93.533688 160.444965 
L 92.209635 160.80254 
L 91.960843 160.869729 
L 90.62546 161.2224 
L 89.849544 161.424071 
L 89.228344 161.582458 
L 87.965306 161.907962 
L 87.474098 162.031718 
L 86.819339 162.19668 
L 85.634702 162.487099 
L 85.437787 162.533375 
L 84.706786 162.711526 
L 84.333189 162.799021 
L 82.890291 163.148604 
L 82.245203 163.298432 
L 81.791457 163.407724 
L 80.913892 163.610853 
L 80.139548 163.796285 
L 79.056124 164.045015 
L 78.873214 164.088564 
L 77.504157 164.40181 
L 77.382668 164.430569 
L 76.86173 164.5488 
L 75.950855 164.747712 
L 75.872252 164.764156 
L 74.613539 165.038111 
L 74.118049 165.141186 
L 73.022949 165.377629 
L 72.695581 165.445346 
L 71.837264 165.630055 
L 70.743648 165.855007 
L 70.09248 165.994031 
L 69.521907 166.110742 
L 69.055492 166.209997 
L 67.377238 166.551382 
L 67.159528 166.59735 
L 66.351126 166.760887 
L 66.268389 166.7783 
L 65.658908 166.90092 
L 64.434751 167.140594 
L 63.952621 167.234989 
L 62.628012 167.487897 
L 61.922498 167.62453 
L 60.59951 167.8752 
L 59.399051 168.098345 
L 58.781363 168.210609 
L 57.860062 168.380569 
L 57.62857 168.41191 
L 57.62857 171.2016 
L 57.62857 174.528 
L 57.62857 177.8544 
L 57.62857 181.1808 
L 57.62857 184.5072 
L 57.62857 187.8336 
L 57.62857 191.16 
L 57.62857 194.4864 
L 57.62857 197.8128 
L 57.62857 201.1392 
L 57.62857 204.4656 
L 57.62857 207.792 
L 57.62857 210.711148 
L 57.705098 210.715062 
L 58.977672 210.737212 
L 59.325427 210.740409 
L 60.608544 210.762912 
L 60.743207 210.764157 
L 62.047954 210.787112 
L 62.350171 210.789921 
L 63.665518 210.813241 
L 63.781113 210.814321 
L 65.118739 210.838112 
L 65.37442 210.840514 
L 66.722702 210.864681 
L 66.818809 210.865589 
L 68.190044 210.890246 
L 68.398158 210.892223 
L 69.780104 210.917269 
L 69.85629 210.917997 
L 71.261887 210.943554 
L 71.421367 210.945086 
L 72.837731 210.971045 
L 72.893546 210.971584 
L 74.334285 210.998076 
L 74.44403 210.999142 
L 75.895591 211.026048 
L 75.930571 211.02639 
L 77.407259 211.053854 
L 77.466127 211.054432 
L 78.953692 211.082323 
L 78.967357 211.082458 
L 80.480828 211.11093 
L 80.48764 211.110998 
L 80.877882 211.1184 
L 82.004062 211.138953 
L 82.011902 211.139167 
L 83.509598 211.166594 
L 83.554312 211.167821 
L 85.040801 211.195269 
L 85.070124 211.196079 
L 86.531115 211.22315 
L 86.628316 211.225849 
L 88.077285 211.252924 
L 88.128606 211.254357 
L 89.552018 211.281047 
L 89.702968 211.28529 
L 91.113507 211.311964 
L 91.187356 211.314052 
L 92.572285 211.340335 
L 92.778291 211.346195 
L 94.149456 211.372441 
L 94.246385 211.375215 
L 95.591891 211.401063 
L 95.854309 211.408619 
L 97.185123 211.434408 
L 97.305703 211.437902 
L 98.610813 211.463285 
L 98.93105 211.472621 
L 100.220496 211.497921 
L 100.365321 211.50217 
L 101.629026 211.527056 
L 102.008541 211.53826 
L 103.255565 211.563038 
L 103.33993 211.561961 
L 103.33993 211.1184 
L 103.33993 207.792 
L 103.33993 204.4656 
L 103.33993 201.1392 
L 103.33993 197.8128 
L 103.33993 194.4864 
L 103.33993 191.16 
L 103.33993 187.8336 
L 103.33993 184.5072 
L 103.33993 181.1808 
L 103.33993 177.8544 
L 103.33993 174.528 
L 103.33993 171.2016 
L 103.33993 167.8752 
L 103.33993 164.5488 
L 103.33993 161.2224 
L 103.33993 157.896 
" clip-path="url(#p4ec466f373)" style="fill: #0018ff"/>
   </g>
   <g id="PathCollection_3">
    <path d="M 103.33993 211.561961 
L 103.255565 211.563038 
L 102.008541 211.53826 
L 101.629026 211.527056 
L 100.365321 211.50217 
L 100.220496 211.497921 
L 98.93105 211.472621 
L 98.610813 211.463285 
L 97.305703 211.437902 
L 97.185123 211.434408 
L 95.854309 211.408619 
L 95.591891 211.401063 
L 94.246385 211.375215 
L 94.149456 211.372441 
L 92.778291 211.346195 
L 92.572285 211.340335 
L 91.187356 211.314052 
L 91.113507 211.311964 
L 89.702968 211.28529 
L 89.552018 211.281047 
L 88.128606 211.254357 
L 88.077285 211.252924 
L 86.628316 211.225849 
L 86.531115 211.22315 
L 85.070124 211.196079 
L 85.040801 211.195269 
L 83.554312 211.167821 
L 83.509598 211.166594 
L 82.011902 211.139167 
L 82.004062 211.138953 
L 80.877882 211.1184 
L 80.48764 211.110998 
L 80.480828 211.11093 
L 78.967357 211.082458 
L 78.953692 211.082323 
L 77.466127 211.054432 
L 77.407259 211.053854 
L 75.930571 211.02639 
L 75.895591 211.026048 
L 74.44403 210.999142 
L 74.334285 210.998076 
L 72.893546 210.971584 
L 72.837731 210.971045 
L 71.421367 210.945086 
L 71.261887 210.943554 
L 69.85629 210.917997 
L 69.780104 210.917269 
L 68.398158 210.892223 
L 68.190044 210.890246 
L 66.818809 210.865589 
L 66.722702 210.864681 
L 65.37442 210.840514 
L 65.118739 210.838112 
L 63.781113 210.814321 
L 63.665518 210.813241 
L 62.350171 210.789921 
L 62.047954 210.787112 
L 60.743207 210.764157 
L 60.608544 210.762912 
L 59.325427 210.740409 
L 58.977672 210.737212 
L 57.705098 210.715062 
L 57.62857 210.711148 
L 57.62857 211.1184 
L 57.62857 214.4448 
L 57.62857 217.7712 
L 57.62857 221.0976 
L 57.62857 224.424 
L 57.62857 227.7504 
L 57.62857 231.0768 
L 57.62857 234.4032 
L 57.62857 235.441332 
L 58.052876 235.493318 
L 58.131081 235.500227 
L 60.100943 235.658587 
L 60.286173 235.675074 
L 61.054038 235.737137 
L 61.296961 235.758827 
L 63.037655 235.900281 
L 63.38221 235.931283 
L 64.054208 235.986189 
L 64.465539 236.023317 
L 65.972028 236.147081 
L 66.479335 236.193229 
L 67.053352 236.240646 
L 67.636908 236.293902 
L 68.903988 236.399151 
L 69.577585 236.461106 
L 70.051436 236.500686 
L 70.811167 236.570793 
L 71.833455 236.65666 
L 72.677 236.73512 
L 73.048427 236.766494 
L 73.988416 236.854213 
L 74.76035 236.919787 
L 75.777619 237.015482 
L 76.044286 237.038264 
L 77.168764 237.144398 
L 77.684586 237.188718 
L 78.879485 237.302417 
L 79.038975 237.316199 
L 80.352323 237.441591 
L 80.606074 237.463647 
L 81.982642 237.596157 
L 82.032454 237.600512 
L 83.368899 237.7296 
L 83.525027 237.74411 
L 83.538974 237.745538 
L 85.025923 237.884883 
L 85.086023 237.891072 
L 86.446529 238.019009 
L 86.724875 238.047844 
L 88.01914 238.170578 
L 88.189855 238.188369 
L 89.365144 238.300211 
L 89.91427 238.35778 
L 91.011072 238.463044 
L 91.295079 238.492998 
L 92.280772 238.587934 
L 93.107294 238.675638 
L 94.001674 238.762523 
L 94.401746 238.805235 
L 95.193307 238.882408 
L 96.304088 239.001727 
L 96.990896 239.069272 
L 97.509911 239.125369 
L 98.10264 239.183873 
L 99.5048 239.336369 
L 99.978688 239.383557 
L 100.619632 239.453702 
L 101.008655 239.492582 
L 102.709587 239.679906 
L 102.964997 239.705662 
L 103.33993 239.731046 
L 103.33993 237.7296 
L 103.33993 234.4032 
L 103.33993 231.0768 
L 103.33993 227.7504 
L 103.33993 224.424 
L 103.33993 221.0976 
L 103.33993 217.7712 
L 103.33993 214.4448 
" clip-path="url(#p4ec466f373)" style="fill: #0080ff"/>
   </g>
   <g id="PathCollection_4">
    <path d="M 103.33993 239.731046 
L 102.964997 239.705662 
L 102.709587 239.679906 
L 101.008655 239.492582 
L 100.619632 239.453702 
L 99.978688 239.383557 
L 99.5048 239.336369 
L 98.10264 239.183873 
L 97.509911 239.125369 
L 96.990896 239.069272 
L 96.304088 239.001727 
L 95.193307 238.882408 
L 94.401746 238.805235 
L 94.001674 238.762523 
L 93.107294 238.675638 
L 92.280772 238.587934 
L 91.295079 238.492998 
L 91.011072 238.463044 
L 89.91427 238.35778 
L 89.365144 238.300211 
L 88.189855 238.188369 
L 88.01914 238.170578 
L 86.724875 238.047844 
L 86.446529 238.019009 
L 85.086023 237.891072 
L 85.025923 237.884883 
L 83.538974 237.745538 
L 83.525027 237.74411 
L 83.368899 237.7296 
L 82.032454 237.600512 
L 81.982642 237.596157 
L 80.606074 237.463647 
L 80.352323 237.441591 
L 79.038975 237.316199 
L 78.879485 237.302417 
L 77.684586 237.188718 
L 77.168764 237.144398 
L 76.044286 237.038264 
L 75.777619 237.015482 
L 74.76035 236.919787 
L 73.988416 236.854213 
L 73.048427 236.766494 
L 72.677 236.73512 
L 71.833455 236.65666 
L 70.811167 236.570793 
L 70.051436 236.500686 
L 69.577585 236.461106 
L 68.903988 236.399151 
L 67.636908 236.293902 
L 67.053352 236.240646 
L 66.479335 236.193229 
L 65.972028 236.147081 
L 64.465539 236.023317 
L 64.054208 235.986189 
L 63.38221 235.931283 
L 63.037655 235.900281 
L 61.296961 235.758827 
L 61.054038 235.737137 
L 60.286173 235.675074 
L 60.100943 235.658587 
L 58.131081 235.500227 
L 58.052876 235.493318 
L 57.62857 235.441332 
L 57.62857 237.7296 
L 57.62857 241.056 
L 57.62857 244.3824 
L 57.62857 247.7088 
L 57.62857 251.0352 
L 57.62857 252.991978 
L 58.011378 253.052772 
L 58.217753 253.07536 
L 60.193746 253.308811 
L 60.243562 253.314305 
L 60.858267 253.38732 
L 61.07248 253.411949 
L 61.161214 253.422528 
L 63.001658 253.636423 
L 63.539602 253.698942 
L 64.664216 253.834491 
L 65.695984 253.955716 
L 68.052677 254.241978 
L 68.178841 254.256965 
L 68.383394 254.281265 
L 69.037487 254.3616 
L 71.069474 254.608015 
L 71.702173 254.687312 
L 73.328785 254.886138 
L 73.750254 254.939559 
L 75.236939 255.127999 
L 76.181023 255.247663 
L 76.423671 255.27776 
L 76.877009 255.33588 
L 78.425752 255.529086 
L 78.55418 255.546313 
L 79.347998 255.645913 
L 79.562034 255.674721 
L 81.305671 255.894763 
L 81.677286 255.945192 
L 82.323084 256.027165 
L 82.800691 256.092199 
L 84.181878 256.268545 
L 84.802223 256.353719 
L 85.296504 256.4172 
L 86.044173 256.520212 
L 87.054247 256.650706 
L 87.929058 256.772251 
L 88.268199 256.816327 
L 89.292666 256.959163 
L 89.922648 257.04153 
L 91.057861 257.201158 
L 91.238107 257.224866 
L 92.546364 257.409478 
L 92.786944 257.441315 
L 94.188708 257.640831 
L 94.206166 257.643155 
L 94.520111 257.688 
L 95.650221 257.843323 
L 95.802832 257.865839 
L 97.175237 258.056112 
L 97.318975 258.07745 
L 98.514217 258.243763 
L 99.060768 258.325405 
L 100.142748 258.477291 
L 100.451057 258.523634 
L 101.373884 258.653655 
L 102.324412 258.797435 
L 103.108285 258.908868 
L 103.33993 258.934063 
L 103.33993 257.688 
L 103.33993 254.3616 
L 103.33993 251.0352 
L 103.33993 247.7088 
L 103.33993 244.3824 
L 103.33993 241.056 
" clip-path="url(#p4ec466f373)" style="fill: #00e4f8"/>
   </g>
   <g id="PathCollection_5">
    <path d="M 103.33993 258.934063 
L 103.108285 258.908868 
L 102.324412 258.797435 
L 101.373884 258.653655 
L 100.451057 258.523634 
L 100.142748 258.477291 
L 99.060768 258.325405 
L 98.514217 258.243763 
L 97.318975 258.07745 
L 97.175237 258.056112 
L 95.802832 257.865839 
L 95.650221 257.843323 
L 94.520111 257.688 
L 94.206166 257.643155 
L 94.188708 257.640831 
L 92.786944 257.441315 
L 92.546364 257.409478 
L 91.238107 257.224866 
L 91.057861 257.201158 
L 89.922648 257.04153 
L 89.292666 256.959163 
L 88.268199 256.816327 
L 87.929058 256.772251 
L 87.054247 256.650706 
L 86.044173 256.520212 
L 85.296504 256.4172 
L 84.802223 256.353719 
L 84.181878 256.268545 
L 82.800691 256.092199 
L 82.323084 256.027165 
L 81.677286 255.945192 
L 81.305671 255.894763 
L 79.562034 255.674721 
L 79.347998 255.645913 
L 78.55418 255.546313 
L 78.425752 255.529086 
L 76.877009 255.33588 
L 76.423671 255.27776 
L 76.181023 255.247663 
L 75.236939 255.127999 
L 73.750254 254.939559 
L 73.328785 254.886138 
L 71.702173 254.687312 
L 71.069474 254.608015 
L 69.037487 254.3616 
L 68.383394 254.281265 
L 68.178841 254.256965 
L 68.052677 254.241978 
L 65.695984 253.955716 
L 64.664216 253.834491 
L 63.539602 253.698942 
L 63.001658 253.636423 
L 61.161214 253.422528 
L 61.07248 253.411949 
L 60.858267 253.38732 
L 60.243562 253.314305 
L 60.193746 253.308811 
L 58.217753 253.07536 
L 58.011378 253.052772 
L 57.62857 252.991978 
L 57.62857 254.3616 
L 57.62857 257.688 
L 57.62857 261.0144 
L 57.62857 264.3408 
L 57.62857 266.609224 
L 58.074044 266.688646 
L 58.076658 266.688984 
L 58.105206 266.69292 
L 59.955193 266.941155 
L 61.032557 267.089976 
L 61.654688 267.17436 
L 62.602548 267.302924 
L 62.864445 267.338447 
L 65.211269 267.6672 
L 65.242386 267.67149 
L 65.25364 267.673087 
L 65.261203 267.67416 
L 67.88276 268.039571 
L 68.861666 268.18002 
L 69.523473 268.274973 
L 70.515273 268.41476 
L 72.077958 268.64148 
L 72.398665 268.686756 
L 72.428857 268.691297 
L 73.279606 268.812078 
L 73.398327 268.829995 
L 75.258801 269.095623 
L 75.561741 269.14171 
L 76.245848 269.239939 
L 76.662677 269.303564 
L 78.114909 269.513282 
L 78.696651 269.602802 
L 79.21027 269.677401 
L 79.932418 269.788903 
L 80.966859 269.94002 
L 81.833661 270.074958 
L 82.172807 270.124791 
L 83.207755 270.286456 
L 83.814514 270.376135 
L 84.972846 270.558581 
L 85.133396 270.58245 
L 86.4889 270.796691 
L 86.657729 270.82194 
L 87.734742 270.9936 
L 88.092403 271.04845 
L 88.11388 271.051947 
L 89.501945 271.265563 
L 89.771312 271.309691 
L 91.052529 271.508545 
L 91.254246 271.54179 
L 92.345014 271.711686 
L 93.056951 271.829734 
L 94.010586 271.979553 
L 94.39696 272.04401 
L 95.183413 272.168008 
L 96.348942 272.363646 
L 96.966497 272.461865 
L 97.542112 272.559083 
L 98.016977 272.634882 
L 99.647543 272.911989 
L 99.920185 272.955894 
L 100.689798 273.087507 
L 100.845539 273.112679 
L 102.199719 273.34572 
L 102.785211 273.443773 
L 102.951697 273.472454 
L 103.33993 273.522752 
L 103.33993 270.9936 
L 103.33993 267.6672 
L 103.33993 264.3408 
L 103.33993 261.0144 
" clip-path="url(#p4ec466f373)" style="fill: #53ffa4"/>
   </g>
   <g id="PathCollection_6">
    <path d="M 103.33993 273.522752 
L 102.951697 273.472454 
L 102.785211 273.443773 
L 102.199719 273.34572 
L 100.845539 273.112679 
L 100.689798 273.087507 
L 99.920185 272.955894 
L 99.647543 272.911989 
L 98.016977 272.634882 
L 97.542112 272.559083 
L 96.966497 272.461865 
L 96.348942 272.363646 
L 95.183413 272.168008 
L 94.39696 272.04401 
L 94.010586 271.979553 
L 93.056951 271.829734 
L 92.345014 271.711686 
L 91.254246 271.54179 
L 91.052529 271.508545 
L 89.771312 271.309691 
L 89.501945 271.265563 
L 88.11388 271.051947 
L 88.092403 271.04845 
L 87.734742 270.9936 
L 86.657729 270.82194 
L 86.4889 270.796691 
L 85.133396 270.58245 
L 84.972846 270.558581 
L 83.814514 270.376135 
L 83.207755 270.286456 
L 82.172807 270.124791 
L 81.833661 270.074958 
L 80.966859 269.94002 
L 79.932418 269.788903 
L 79.21027 269.677401 
L 78.696651 269.602802 
L 78.114909 269.513282 
L 76.662677 269.303564 
L 76.245848 269.239939 
L 75.561741 269.14171 
L 75.258801 269.095623 
L 73.398327 268.829995 
L 73.279606 268.812078 
L 72.428857 268.691297 
L 72.398665 268.686756 
L 72.077958 268.64148 
L 70.515273 268.41476 
L 69.523473 268.274973 
L 68.861666 268.18002 
L 67.88276 268.039571 
L 65.261203 267.67416 
L 65.25364 267.673087 
L 65.242386 267.67149 
L 65.211269 267.6672 
L 62.864445 267.338447 
L 62.602548 267.302924 
L 61.654688 267.17436 
L 61.032557 267.089976 
L 59.955193 266.941155 
L 58.105206 266.69292 
L 58.076658 266.688984 
L 58.074044 266.688646 
L 57.62857 266.609224 
L 57.62857 267.6672 
L 57.62857 270.9936 
L 57.62857 274.32 
L 57.62857 277.6464 
L 57.62857 277.750031 
L 57.648983 277.75399 
L 59.012481 277.951598 
L 59.313267 277.997845 
L 60.57437 278.182004 
L 60.783759 278.214372 
L 61.866858 278.373037 
L 62.583579 278.484431 
L 63.537688 278.625276 
L 63.920497 278.685097 
L 64.717287 278.803095 
L 65.859157 278.982511 
L 66.499207 279.078034 
L 67.059265 279.166518 
L 67.563646 279.242037 
L 69.140188 279.492495 
L 69.458868 279.540585 
L 70.200131 279.659003 
L 70.405808 279.690142 
L 72.32542 279.99852 
L 72.405551 280.011047 
L 73.07502 280.115708 
L 73.521018 280.187551 
L 74.999314 280.421277 
L 75.382183 280.481811 
L 77.22607 280.782221 
L 77.584239 280.839499 
L 78.395824 280.9728 
L 80.16663 281.260012 
L 80.945299 281.389711 
L 82.255466 281.60396 
L 82.742862 281.686095 
L 84.291559 281.94708 
L 84.586916 281.995512 
L 84.61936 282.001149 
L 85.464948 282.140626 
L 85.60121 282.164384 
L 87.418837 282.465974 
L 87.766579 282.527116 
L 88.418397 282.635914 
L 88.903863 282.721571 
L 90.24595 282.946932 
L 90.916291 283.066217 
L 91.369645 283.142803 
L 92.213246 283.293451 
L 93.068093 283.438741 
L 94.068589 283.61895 
L 94.318614 283.661705 
L 95.52963 283.880615 
L 95.885095 283.941774 
L 97.223573 284.185841 
L 97.265222 284.193051 
L 97.845244 284.2992 
L 98.69986 284.449688 
L 98.850604 284.477799 
L 100.212707 284.719772 
L 100.378196 284.750826 
L 101.516383 284.953765 
L 102.172834 285.077727 
L 103.158568 285.255058 
L 103.33993 285.281587 
L 103.33993 284.2992 
L 103.33993 280.9728 
L 103.33993 277.6464 
L 103.33993 274.32 
" clip-path="url(#p4ec466f373)" style="fill: #a4ff53"/>
   </g>
   <g id="PathCollection_7">
    <path d="M 103.33993 285.281587 
L 103.158568 285.255058 
L 102.172834 285.077727 
L 101.516383 284.953765 
L 100.378196 284.750826 
L 100.212707 284.719772 
L 98.850604 284.477799 
L 98.69986 284.449688 
L 97.845244 284.2992 
L 97.265222 284.193051 
L 97.223573 284.185841 
L 95.885095 283.941774 
L 95.52963 283.880615 
L 94.318614 283.661705 
L 94.068589 283.61895 
L 93.068093 283.438741 
L 92.213246 283.293451 
L 91.369645 283.142803 
L 90.916291 283.066217 
L 90.24595 282.946932 
L 88.903863 282.721571 
L 88.418397 282.635914 
L 87.766579 282.527116 
L 87.418837 282.465974 
L 85.60121 282.164384 
L 85.464948 282.140626 
L 84.61936 282.001149 
L 84.586916 281.995512 
L 84.291559 281.94708 
L 82.742862 281.686095 
L 82.255466 281.60396 
L 80.945299 281.389711 
L 80.16663 281.260012 
L 78.395824 280.9728 
L 77.584239 280.839499 
L 77.22607 280.782221 
L 75.382183 280.481811 
L 74.999314 280.421277 
L 73.521018 280.187551 
L 73.07502 280.115708 
L 72.405551 280.011047 
L 72.32542 279.99852 
L 70.405808 279.690142 
L 70.200131 279.659003 
L 69.458868 279.540585 
L 69.140188 279.492495 
L 67.563646 279.242037 
L 67.059265 279.166518 
L 66.499207 279.078034 
L 65.859157 278.982511 
L 64.717287 278.803095 
L 63.920497 278.685097 
L 63.537688 278.625276 
L 62.583579 278.484431 
L 61.866858 278.373037 
L 60.783759 278.214372 
L 60.57437 278.182004 
L 59.313267 277.997845 
L 59.012481 277.951598 
L 57.648983 277.75399 
L 57.62857 277.750031 
L 57.62857 280.9728 
L 57.62857 284.2992 
L 57.62857 287.146967 
L 57.829366 287.187244 
L 58.846334 287.348942 
L 59.368113 287.430431 
L 59.504002 287.451653 
L 60.586313 287.6256 
L 61.809678 287.818492 
L 61.95951 287.842801 
L 62.54494 287.937783 
L 64.111134 288.187417 
L 64.546807 288.258877 
L 66.257805 288.539519 
L 66.400208 288.562466 
L 66.62581 288.59988 
L 67.199653 288.691972 
L 67.264325 288.702918 
L 69.182959 289.012531 
L 69.459218 289.059659 
L 70.155864 289.172704 
L 70.558509 289.241617 
L 72.016468 289.479527 
L 72.60559 289.581157 
L 73.110082 289.663944 
L 73.858743 289.793525 
L 74.845469 289.956363 
L 75.75429 290.11493 
L 76.06224 290.16604 
L 77.165253 290.359132 
L 77.669819 290.443355 
L 78.905403 290.661414 
L 79.012268 290.679355 
L 80.478275 290.938956 
L 80.489367 290.940829 
L 80.551937 290.952 
L 81.962002 291.194229 
L 82.057192 291.211466 
L 83.313615 291.428041 
L 83.789431 291.514707 
L 84.911612 291.709753 
L 85.209516 291.764335 
L 86.133199 291.925436 
L 87.107227 292.104954 
L 87.858965 292.237171 
L 88.364436 292.330889 
L 88.94774 292.433841 
L 90.432127 292.710708 
L 90.803982 292.7769 
L 91.522051 292.911643 
L 91.757068 292.953625 
L 93.613622 293.30412 
L 93.728112 293.325154 
L 94.364868 293.442139 
L 94.910718 293.545356 
L 96.255448 293.795451 
L 98.757155 294.272644 
L 98.763815 294.273898 
L 98.772056 294.27545 
L 98.774013 294.275818 
L 98.787331 294.2784 
L 100.975308 294.69428 
L 101.288534 294.755566 
L 102.635309 295.019076 
L 102.971048 295.083701 
L 103.33993 295.139475 
L 103.33993 294.2784 
L 103.33993 290.952 
L 103.33993 287.6256 
" clip-path="url(#p4ec466f373)" style="fill: #f8f500"/>
   </g>
   <g id="PathCollection_8">
    <path d="M 103.33993 295.139475 
L 102.971048 295.083701 
L 102.635309 295.019076 
L 101.288534 294.755566 
L 100.975308 294.69428 
L 98.787331 294.2784 
L 98.774013 294.275818 
L 98.772056 294.27545 
L 98.763815 294.273898 
L 98.757155 294.272644 
L 96.255448 293.795451 
L 94.910718 293.545356 
L 94.364868 293.442139 
L 93.728112 293.325154 
L 93.613622 293.30412 
L 91.757068 292.953625 
L 91.522051 292.911643 
L 90.803982 292.7769 
L 90.432127 292.710708 
L 88.94774 292.433841 
L 88.364436 292.330889 
L 87.858965 292.237171 
L 87.107227 292.104954 
L 86.133199 291.925436 
L 85.209516 291.764335 
L 84.911612 291.709753 
L 83.789431 291.514707 
L 83.313615 291.428041 
L 82.057192 291.211466 
L 81.962002 291.194229 
L 80.551937 290.952 
L 80.489367 290.940829 
L 80.478275 290.938956 
L 79.012268 290.679355 
L 78.905403 290.661414 
L 77.669819 290.443355 
L 77.165253 290.359132 
L 76.06224 290.16604 
L 75.75429 290.11493 
L 74.845469 289.956363 
L 73.858743 289.793525 
L 73.110082 289.663944 
L 72.60559 289.581157 
L 72.016468 289.479527 
L 70.558509 289.241617 
L 70.155864 289.172704 
L 69.459218 289.059659 
L 69.182959 289.012531 
L 67.264325 288.702918 
L 67.199653 288.691972 
L 66.62581 288.59988 
L 66.400208 288.562466 
L 66.257805 288.539519 
L 64.546807 288.258877 
L 64.111134 288.187417 
L 62.54494 287.937783 
L 61.95951 287.842801 
L 61.809678 287.818492 
L 60.586313 287.6256 
L 59.504002 287.451653 
L 59.368113 287.430431 
L 58.846334 287.348942 
L 57.829366 287.187244 
L 57.62857 287.146967 
L 57.62857 287.6256 
L 57.62857 290.952 
L 57.62857 294.2784 
L 57.62857 295.285797 
L 58.052164 295.37227 
L 58.136153 295.386501 
L 60.02818 295.692634 
L 60.322726 295.742921 
L 61.008107 295.854415 
L 61.431098 295.92686 
L 62.861173 296.160757 
L 63.469344 296.265718 
L 63.962116 296.346754 
L 64.731912 296.480034 
L 65.689796 296.638419 
L 66.61822 296.800414 
L 66.914129 296.849612 
L 68.038808 297.046485 
L 68.513915 297.125914 
L 69.769431 297.347418 
L 69.864081 297.36333 
L 71.228302 297.6048 
L 71.333751 297.622759 
L 71.351679 297.625979 
L 72.814041 297.877012 
L 72.921005 297.896335 
L 74.15825 298.109426 
L 74.662517 298.201035 
L 75.763711 298.392219 
L 76.073247 298.448772 
L 76.978034 298.606383 
L 77.979948 298.790485 
L 78.711203 298.918903 
L 79.227993 299.014411 
L 79.792954 299.113961 
L 81.304224 299.394877 
L 81.656444 299.457452 
L 82.385336 299.593728 
L 82.60285 299.632504 
L 84.327907 299.95692 
L 84.56177 299.99972 
L 85.184636 300.113712 
L 85.803951 300.230262 
L 87.090725 300.468553 
L 89.528568 300.9312 
L 89.609705 300.946407 
L 89.652409 300.954609 
L 91.804188 301.361346 
L 92.128533 301.424398 
L 93.518081 301.694522 
L 94.603271 301.90548 
L 94.642525 301.912951 
L 94.647853 301.914017 
L 96.621748 302.291994 
L 96.882105 302.344551 
L 97.582455 302.47949 
L 97.99234 302.562533 
L 99.418586 302.839045 
L 100.047753 302.967643 
L 100.519786 303.059732 
L 101.345067 303.229035 
L 102.209621 303.398765 
L 103.21652 303.607178 
L 103.33993 303.62658 
L 103.33993 300.9312 
L 103.33993 297.6048 
" clip-path="url(#p4ec466f373)" style="fill: #ff9400"/>
   </g>
   <g id="PathCollection_9">
    <path d="M 103.33993 303.62658 
L 103.21652 303.607178 
L 102.209621 303.398765 
L 101.345067 303.229035 
L 100.519786 303.059732 
L 100.047753 302.967643 
L 99.418586 302.839045 
L 97.99234 302.562533 
L 97.582455 302.47949 
L 96.882105 302.344551 
L 96.621748 302.291994 
L 94.647853 301.914017 
L 94.642525 301.912951 
L 94.603271 301.90548 
L 93.518081 301.694522 
L 92.128533 301.424398 
L 91.804188 301.361346 
L 89.652409 300.954609 
L 89.609705 300.946407 
L 89.528568 300.9312 
L 87.090725 300.468553 
L 85.803951 300.230262 
L 85.184636 300.113712 
L 84.56177 299.99972 
L 84.327907 299.95692 
L 82.60285 299.632504 
L 82.385336 299.593728 
L 81.656444 299.457452 
L 81.304224 299.394877 
L 79.792954 299.113961 
L 79.227993 299.014411 
L 78.711203 298.918903 
L 77.979948 298.790485 
L 76.978034 298.606383 
L 76.073247 298.448772 
L 75.763711 298.392219 
L 74.662517 298.201035 
L 74.15825 298.109426 
L 72.921005 297.896335 
L 72.814041 297.877012 
L 71.351679 297.625979 
L 71.333751 297.622759 
L 71.228302 297.6048 
L 69.864081 297.36333 
L 69.769431 297.347418 
L 68.513915 297.125914 
L 68.038808 297.046485 
L 66.914129 296.849612 
L 66.61822 296.800414 
L 65.689796 296.638419 
L 64.731912 296.480034 
L 63.962116 296.346754 
L 63.469344 296.265718 
L 62.861173 296.160757 
L 61.431098 295.92686 
L 61.008107 295.854415 
L 60.322726 295.742921 
L 60.02818 295.692634 
L 58.136153 295.386501 
L 58.052164 295.37227 
L 57.62857 295.285797 
L 57.62857 297.6048 
L 57.62857 300.9312 
L 57.62857 302.468712 
L 57.95503 302.537006 
L 58.399668 302.614577 
L 59.798025 302.847884 
L 60.429583 302.958904 
L 60.907203 303.039022 
L 61.706044 303.179893 
L 62.622562 303.334466 
L 63.580565 303.504704 
L 63.857364 303.551641 
L 65.018577 303.758649 
L 65.442568 303.83094 
L 66.733907 304.062937 
L 66.805449 304.075202 
L 67.817436 304.2576 
L 68.259441 304.334253 
L 68.336078 304.348251 
L 69.754042 304.596089 
L 69.887128 304.620533 
L 71.079919 304.829697 
L 71.652477 304.935448 
L 72.701883 305.120932 
L 73.041463 305.184006 
L 73.895659 305.335485 
L 74.975543 305.5372 
L 75.647533 305.657326 
L 76.198326 305.760797 
L 76.70651 305.851945 
L 78.305527 306.154054 
L 78.590918 306.205658 
L 79.357807 306.351385 
L 79.512316 306.379418 
L 80.717299 306.60972 
L 81.417629 306.739978 
L 81.640817 306.782491 
L 82.317148 306.909018 
L 82.910688 307.022464 
L 83.938726 307.215917 
L 84.978579 307.416324 
L 85.119936 307.443081 
L 85.848597 307.584 
L 86.579098 307.584 
L 88.10281 307.584 
L 89.626522 307.584 
L 91.150234 307.584 
L 92.673946 307.584 
L 94.197658 307.584 
L 95.72137 307.584 
L 97.245082 307.584 
L 98.768794 307.584 
L 100.292506 307.584 
L 101.816218 307.584 
L 103.33993 307.584 
L 103.33993 304.2576 
" clip-path="url(#p4ec466f373)" style="fill: #ff3800"/>
   </g>
   <g id="PathCollection_10">
    <path d="M 85.848597 307.584 
L 85.119936 307.443081 
L 84.978579 307.416324 
L 83.938726 307.215917 
L 82.910688 307.022464 
L 82.317148 306.909018 
L 81.640817 306.782491 
L 81.417629 306.739978 
L 80.717299 306.60972 
L 79.512316 306.379418 
L 79.357807 306.351385 
L 78.590918 306.205658 
L 78.305527 306.154054 
L 76.70651 305.851945 
L 76.198326 305.760797 
L 75.647533 305.657326 
L 74.975543 305.5372 
L 73.895659 305.335485 
L 73.041463 305.184006 
L 72.701883 305.120932 
L 71.652477 304.935448 
L 71.079919 304.829697 
L 69.887128 304.620533 
L 69.754042 304.596089 
L 68.336078 304.348251 
L 68.259441 304.334253 
L 67.817436 304.2576 
L 66.805449 304.075202 
L 66.733907 304.062937 
L 65.442568 303.83094 
L 65.018577 303.758649 
L 63.857364 303.551641 
L 63.580565 303.504704 
L 62.622562 303.334466 
L 61.706044 303.179893 
L 60.907203 303.039022 
L 60.429583 302.958904 
L 59.798025 302.847884 
L 58.399668 302.614577 
L 57.95503 302.537006 
L 57.62857 302.468712 
L 57.62857 304.2576 
L 57.62857 307.584 
L 59.152282 307.584 
L 60.675994 307.584 
L 62.199706 307.584 
L 63.723418 307.584 
L 65.24713 307.584 
L 66.770842 307.584 
L 68.294554 307.584 
L 69.818266 307.584 
L 71.341978 307.584 
L 72.86569 307.584 
L 74.389402 307.584 
L 75.913114 307.584 
L 77.436826 307.584 
L 78.960538 307.584 
L 80.48425 307.584 
L 82.007962 307.584 
L 83.531674 307.584 
L 85.055386 307.584 
" clip-path="url(#p4ec466f373)" style="fill: #b60000"/>
   </g>
   <g id="PathCollection_11">
    <path d="M 100.4544 158.385042 
L 101.0144 158.268711 
L 105.966479 156.7872 
L 107.949209 156.129802 
L 109.751633 155.469456 
L 115.402175 153.502304 
L 118.301329 152.402219 
L 120.140413 151.748433 
L 123.275204 150.51488 
L 126.994055 148.940582 
L 127.684752 148.64819 
L 129.2848 147.9168 
L 133.329532 146.030486 
L 134.743674 145.31872 
L 135.128492 145.118514 
L 135.653308 144.826542 
L 142.715617 141.005316 
L 146.043036 139.0464 
L 148.433235 137.486885 
L 150.030407 136.380507 
L 152.921038 134.447876 
L 155.236658 132.77408 
L 158.039518 130.594537 
L 158.224369 130.450794 
L 158.552006 130.176 
L 160.186855 128.782775 
L 161.621277 127.57792 
L 162.290133 126.973968 
L 163.518114 125.787294 
L 166.015184 123.430045 
L 168.155812 121.3056 
L 170.726572 118.478033 
L 173.661203 115.03328 
L 175.080932 113.240452 
L 175.689765 112.4352 
L 176.194102 111.718449 
L 176.857496 110.823555 
L 177.588751 109.83712 
L 178.209393 108.937098 
L 180.986004 104.664283 
L 181.51356 103.860998 
L 181.700483 103.5648 
L 184.695885 98.304361 
L 185.239231 97.29248 
L 185.668879 96.431697 
L 186.117337 95.53323 
L 186.560779 94.6944 
L 186.888722 94.047066 
L 187.096656 93.605179 
L 187.806662 92.09632 
L 190.209923 86.605985 
L 190.533699 85.824 
L 191.252786 83.89922 
L 192.913504 79.55168 
L 193.233669 78.650004 
L 193.81015 76.9536 
L 194.176392 75.791775 
L 194.558421 74.655883 
L 194.659441 74.35552 
L 194.802595 73.897951 
L 196.532021 68.0832 
L 196.97172 66.444755 
L 198.181621 61.81088 
L 198.360308 61.031338 
L 198.806924 59.2128 
L 199.365052 56.762894 
L 199.401124 56.61472 
L 199.604176 55.668265 
L 200.717908 50.3424 
L 201.569106 45.831266 
L 201.885537 44.07008 
L 202.043323 43.125323 
L 202.330028 41.472 
L 197.59104 41.472 
L 189.49632 41.472 
L 181.4016 41.472 
L 173.30688 41.472 
L 165.21216 41.472 
L 157.11744 41.472 
L 149.02272 41.472 
L 140.928 41.472 
L 132.83328 41.472 
L 124.73856 41.472 
L 116.64384 41.472 
L 108.54912 41.472 
L 100.4544 41.472 
L 100.4544 50.3424 
L 100.4544 59.2128 
L 100.4544 68.0832 
L 100.4544 76.9536 
L 100.4544 85.824 
L 100.4544 94.6944 
L 100.4544 103.5648 
L 100.4544 112.4352 
L 100.4544 121.3056 
L 100.4544 130.176 
L 100.4544 139.0464 
L 100.4544 147.9168 
L 100.4544 156.7872 
" clip-path="url(#p4ec466f373)" style="fill: #0000b6"/>
   </g>
   <g id="PathCollection_12">
    <path d="M 202.330028 41.472 
L 202.043323 43.125323 
L 201.885537 44.07008 
L 201.569106 45.831266 
L 200.717908 50.3424 
L 199.604176 55.668265 
L 199.401124 56.61472 
L 199.365052 56.762894 
L 198.806924 59.2128 
L 198.360308 61.031338 
L 198.181621 61.81088 
L 196.97172 66.444755 
L 196.532021 68.0832 
L 194.802595 73.897951 
L 194.659441 74.35552 
L 194.558421 74.655883 
L 194.176392 75.791775 
L 193.81015 76.9536 
L 193.233669 78.650004 
L 192.913504 79.55168 
L 191.252786 83.89922 
L 190.533699 85.824 
L 190.209923 86.605985 
L 187.806662 92.09632 
L 187.096656 93.605179 
L 186.888722 94.047066 
L 186.560779 94.6944 
L 186.117337 95.53323 
L 185.668879 96.431697 
L 185.239231 97.29248 
L 184.695885 98.304361 
L 181.700483 103.5648 
L 181.51356 103.860998 
L 180.986004 104.664283 
L 178.209393 108.937098 
L 177.588751 109.83712 
L 176.857496 110.823555 
L 176.194102 111.718449 
L 175.689765 112.4352 
L 175.080932 113.240452 
L 173.661203 115.03328 
L 170.726572 118.478033 
L 168.155812 121.3056 
L 166.015184 123.430045 
L 163.518114 125.787294 
L 162.290133 126.973968 
L 161.621277 127.57792 
L 160.186855 128.782775 
L 158.552006 130.176 
L 158.224369 130.450794 
L 158.039518 130.594537 
L 155.236658 132.77408 
L 152.921038 134.447876 
L 150.030407 136.380507 
L 148.433235 137.486885 
L 146.043036 139.0464 
L 142.715617 141.005316 
L 135.653308 144.826542 
L 135.128492 145.118514 
L 134.743674 145.31872 
L 133.329532 146.030486 
L 129.2848 147.9168 
L 127.684752 148.64819 
L 126.994055 148.940582 
L 123.275204 150.51488 
L 120.140413 151.748433 
L 118.301329 152.402219 
L 115.402175 153.502304 
L 109.751633 155.469456 
L 107.949209 156.129802 
L 105.966479 156.7872 
L 101.0144 158.268711 
L 100.4544 158.385042 
L 100.4544 165.6576 
L 100.4544 174.528 
L 100.4544 183.3984 
L 100.4544 192.2688 
L 100.4544 201.1392 
L 100.4544 210.0096 
L 100.4544 211.420599 
L 101.008011 211.47421 
L 107.1279 211.567009 
L 110.084333 211.691926 
L 115.972498 211.785673 
L 117.337765 211.845419 
L 122.979573 211.937143 
L 126.649535 212.103695 
L 132.007034 212.195482 
L 133.689498 212.274773 
L 138.779515 212.363964 
L 143.277674 212.584432 
L 148.01624 212.672299 
L 150.068811 212.777093 
L 154.51486 212.861573 
L 159.986007 213.153049 
L 163.993353 213.234023 
L 166.483389 213.372709 
L 170.168083 213.449173 
L 176.798735 213.836064 
L 179.928962 213.905548 
L 182.944063 214.090272 
L 185.714693 214.153603 
L 193.750888 214.671864 
L 195.809578 214.722559 
L 199.466602 214.971506 
L 201.119384 215.013551 
L 210.895137 215.718168 
L 211.615161 215.738075 
L 216.074899 216.079614 
L 216.329325 216.086911 
L 218.716555 216.28192 
L 226.325257 216.860094 
L 229.147824 217.074576 
L 235.602616 217.762473 
L 239.729493 218.124314 
L 240.748722 218.213678 
L 246.088787 218.88 
L 252.551546 219.65279 
L 257.747381 220.46563 
L 261.823268 221.019971 
L 264.219168 221.47808 
L 264.691151 221.553579 
L 264.816585 221.584261 
L 274.499901 223.305315 
L 277.144225 224.062453 
L 279.736344 224.580749 
L 285.306524 226.296858 
L 287.501643 226.798475 
L 290.024462 227.7504 
L 294.191426 229.169092 
L 295.505436 229.807997 
L 299.556813 231.328913 
L 304.173678 234.02272 
L 306.165048 235.103553 
L 307.034113 235.575245 
L 308.311312 236.6208 
L 310.852313 238.61422 
L 311.788552 239.21888 
L 312.956669 240.095458 
L 318.2532 245.4912 
L 318.665768 245.870434 
L 322.892781 251.76352 
L 323.370568 252.383148 
L 323.950718 253.135527 
L 324.447691 254.3616 
L 325.085432 255.869365 
L 325.836174 256.95968 
L 327.898716 261.136305 
L 328.640207 263.232 
L 330.612161 268.260874 
L 330.854627 269.50432 
L 330.999443 270.195162 
L 331.190528 271.106734 
L 331.638919 272.1024 
L 332.127127 273.497776 
L 332.35841 274.70048 
L 333.203002 278.783036 
L 333.869503 280.9728 
L 334.228934 282.038321 
L 335.121192 287.24512 
L 335.569053 289.676266 
L 335.577557 289.8432 
L 335.586861 290.018218 
L 336.00244 292.44128 
L 336.830359 296.928414 
L 336.914766 298.7136 
L 337.019153 300.705672 
L 337.691695 304.98592 
L 337.921949 306.349073 
L 337.979903 307.584 
L 343.296 307.584 
L 343.296 298.7136 
L 343.296 289.8432 
L 343.296 280.9728 
L 343.296 272.1024 
L 343.296 263.232 
L 343.296 254.3616 
L 343.296 245.4912 
L 343.296 236.6208 
L 343.296 227.7504 
L 343.296 218.88 
L 343.296 210.0096 
L 343.296 201.1392 
L 343.296 192.2688 
L 343.296 183.3984 
L 343.296 174.528 
L 343.296 165.6576 
L 343.296 156.7872 
L 343.296 147.9168 
L 343.296 139.0464 
L 343.296 130.176 
L 343.296 121.3056 
L 343.296 112.4352 
L 343.296 103.5648 
L 343.296 94.6944 
L 343.296 85.824 
L 343.296 76.9536 
L 343.296 68.0832 
L 343.296 59.2128 
L 343.296 50.3424 
L 343.296 41.472 
L 335.20128 41.472 
L 327.10656 41.472 
L 319.01184 41.472 
L 310.91712 41.472 
L 302.8224 41.472 
L 294.72768 41.472 
L 286.63296 41.472 
L 278.53824 41.472 
L 270.44352 41.472 
L 262.3488 41.472 
L 254.25408 41.472 
L 246.15936 41.472 
L 238.06464 41.472 
L 229.96992 41.472 
L 221.8752 41.472 
L 213.78048 41.472 
L 205.68576 41.472 
" clip-path="url(#p4ec466f373)" style="fill: #0018ff"/>
   </g>
   <g id="PathCollection_13">
    <path d="M 337.979903 307.584 
L 337.921949 306.349073 
L 337.691695 304.98592 
L 337.019153 300.705672 
L 336.914766 298.7136 
L 336.830359 296.928414 
L 336.00244 292.44128 
L 335.586861 290.018218 
L 335.577557 289.8432 
L 335.569053 289.676266 
L 335.121192 287.24512 
L 334.228934 282.038321 
L 333.869503 280.9728 
L 333.203002 278.783036 
L 332.35841 274.70048 
L 332.127127 273.497776 
L 331.638919 272.1024 
L 331.190528 271.106734 
L 330.999443 270.195162 
L 330.854627 269.50432 
L 330.612161 268.260874 
L 328.640207 263.232 
L 327.898716 261.136305 
L 325.836174 256.95968 
L 325.085432 255.869365 
L 324.447691 254.3616 
L 323.950718 253.135527 
L 323.370568 252.383148 
L 322.892781 251.76352 
L 318.665768 245.870434 
L 318.2532 245.4912 
L 312.956669 240.095458 
L 311.788552 239.21888 
L 310.852313 238.61422 
L 308.311312 236.6208 
L 307.034113 235.575245 
L 306.165048 235.103553 
L 304.173678 234.02272 
L 299.556813 231.328913 
L 295.505436 229.807997 
L 294.191426 229.169092 
L 290.024462 227.7504 
L 287.501643 226.798475 
L 285.306524 226.296858 
L 279.736344 224.580749 
L 277.144225 224.062453 
L 274.499901 223.305315 
L 264.816585 221.584261 
L 264.691151 221.553579 
L 264.219168 221.47808 
L 261.823268 221.019971 
L 257.747381 220.46563 
L 252.551546 219.65279 
L 246.088787 218.88 
L 240.748722 218.213678 
L 239.729493 218.124314 
L 235.602616 217.762473 
L 229.147824 217.074576 
L 226.325257 216.860094 
L 218.716555 216.28192 
L 216.329325 216.086911 
L 216.074899 216.079614 
L 211.615161 215.738075 
L 210.895137 215.718168 
L 201.119384 215.013551 
L 199.466602 214.971506 
L 195.809578 214.722559 
L 193.750888 214.671864 
L 185.714693 214.153603 
L 182.944063 214.090272 
L 179.928962 213.905548 
L 176.798735 213.836064 
L 170.168083 213.449173 
L 166.483389 213.372709 
L 163.993353 213.234023 
L 159.986007 213.153049 
L 154.51486 212.861573 
L 150.068811 212.777093 
L 148.01624 212.672299 
L 143.277674 212.584432 
L 138.779515 212.363964 
L 133.689498 212.274773 
L 132.007034 212.195482 
L 126.649535 212.103695 
L 122.979573 211.937143 
L 117.337765 211.845419 
L 115.972498 211.785673 
L 110.084333 211.691926 
L 107.1279 211.567009 
L 101.008011 211.47421 
L 100.4544 211.420599 
L 100.4544 218.88 
L 100.4544 227.7504 
L 100.4544 236.6208 
L 100.4544 239.30554 
L 102.660834 239.653953 
L 103.296001 239.734699 
L 112.895516 240.728309 
L 114.947011 241.002143 
L 118.208507 241.351785 
L 121.352134 241.780269 
L 127.501157 242.463876 
L 131.929395 243.09992 
L 133.661575 243.299899 
L 139.743689 244.193402 
L 141.878413 244.449713 
L 148.577852 245.4912 
L 149.00032 245.55046 
L 149.048279 245.558818 
L 156.127209 246.57632 
L 158.501703 247.008111 
L 164.303559 247.894954 
L 166.261456 248.267173 
L 170.208264 248.886742 
L 177.78201 250.395161 
L 179.442542 250.673998 
L 183.696955 251.563691 
L 183.919697 251.602205 
L 184.652516 251.76352 
L 191.934882 253.254723 
L 196.742589 254.3616 
L 202.696155 255.718599 
L 207.538621 256.95968 
L 210.71832 257.717193 
L 211.819147 258.043182 
L 215.399271 258.949396 
L 218.967249 260.045393 
L 223.633453 261.305262 
L 229.341134 263.232 
L 229.905001 263.403748 
L 230.055706 263.458953 
L 236.104419 265.380061 
L 242.230019 267.796528 
L 244.173801 268.484908 
L 246.559169 269.50432 
L 247.354539 269.796189 
L 252.657365 272.1024 
L 253.489773 272.449323 
L 258.251705 274.70048 
L 259.483824 275.241914 
L 260.363822 275.721427 
L 263.720476 277.343954 
L 270.001084 280.9728 
L 270.300889 281.129099 
L 270.999537 281.582098 
L 276.938102 285.206056 
L 279.733478 287.24512 
L 280.076272 287.451876 
L 283.28191 289.8432 
L 284.583319 290.773544 
L 286.58555 292.44128 
L 289.967372 295.059667 
L 293.67926 298.7136 
L 294.46416 299.410757 
L 295.343941 300.343954 
L 298.507355 303.442136 
L 299.720204 304.98592 
L 301.350006 306.915672 
L 301.961145 307.584 
L 302.8224 307.584 
L 310.91712 307.584 
L 319.01184 307.584 
L 327.10656 307.584 
L 335.20128 307.584 
" clip-path="url(#p4ec466f373)" style="fill: #0080ff"/>
   </g>
   <g id="PathCollection_14">
    <path d="M 301.961145 307.584 
L 301.350006 306.915672 
L 299.720204 304.98592 
L 298.507355 303.442136 
L 295.343941 300.343954 
L 294.46416 299.410757 
L 293.67926 298.7136 
L 289.967372 295.059667 
L 286.58555 292.44128 
L 284.583319 290.773544 
L 283.28191 289.8432 
L 280.076272 287.451876 
L 279.733478 287.24512 
L 276.938102 285.206056 
L 270.999537 281.582098 
L 270.300889 281.129099 
L 270.001084 280.9728 
L 263.720476 277.343954 
L 260.363822 275.721427 
L 259.483824 275.241914 
L 258.251705 274.70048 
L 253.489773 272.449323 
L 252.657365 272.1024 
L 247.354539 269.796189 
L 246.559169 269.50432 
L 244.173801 268.484908 
L 242.230019 267.796528 
L 236.104419 265.380061 
L 230.055706 263.458953 
L 229.905001 263.403748 
L 229.341134 263.232 
L 223.633453 261.305262 
L 218.967249 260.045393 
L 215.399271 258.949396 
L 211.819147 258.043182 
L 210.71832 257.717193 
L 207.538621 256.95968 
L 202.696155 255.718599 
L 196.742589 254.3616 
L 191.934882 253.254723 
L 184.652516 251.76352 
L 183.919697 251.602205 
L 183.696955 251.563691 
L 179.442542 250.673998 
L 177.78201 250.395161 
L 170.208264 248.886742 
L 166.261456 248.267173 
L 164.303559 247.894954 
L 158.501703 247.008111 
L 156.127209 246.57632 
L 149.048279 245.558818 
L 149.00032 245.55046 
L 148.577852 245.4912 
L 141.878413 244.449713 
L 139.743689 244.193402 
L 133.661575 243.299899 
L 131.929395 243.09992 
L 127.501157 242.463876 
L 121.352134 241.780269 
L 118.208507 241.351785 
L 114.947011 241.002143 
L 112.895516 240.728309 
L 103.296001 239.734699 
L 102.660834 239.653953 
L 100.4544 239.30554 
L 100.4544 245.4912 
L 100.4544 254.3616 
L 100.4544 258.373206 
L 102.165759 258.704504 
L 104.809344 259.133859 
L 111.443433 260.060339 
L 115.720687 260.789747 
L 117.471281 261.042957 
L 123.736553 262.133975 
L 125.499281 262.398383 
L 130.042061 263.232 
L 132.668877 263.666937 
L 133.024172 263.737016 
L 139.470874 264.828756 
L 143.0563 265.564245 
L 147.818559 266.417676 
L 150.438492 266.977504 
L 153.231432 267.490386 
L 162.263711 269.50432 
L 162.660128 269.586542 
L 169.064308 271.049184 
L 172.912387 271.923337 
L 173.438213 272.042787 
L 173.675811 272.1024 
L 181.712505 274.034727 
L 183.912612 274.636877 
L 184.145 274.70048 
L 193.133392 276.987204 
L 196.471363 278.010631 
L 198.504354 278.556575 
L 205.504066 280.773695 
L 205.792589 280.855734 
L 206.132664 280.9728 
L 212.976919 283.098666 
L 214.84103 283.778546 
L 218.298311 284.892446 
L 224.345765 287.24512 
L 226.155871 287.900179 
L 227.598735 288.422336 
L 230.986263 289.8432 
L 234.740289 291.352142 
L 237.16866 292.44128 
L 241.964065 294.440511 
L 245.151255 296.046602 
L 246.873452 296.824428 
L 250.443755 298.7136 
L 253.097761 299.980724 
L 257.99719 302.815396 
L 260.321298 304.077472 
L 261.748713 304.98592 
L 263.677604 306.127863 
L 265.942387 307.584 
L 270.44352 307.584 
L 278.53824 307.584 
L 286.63296 307.584 
L 294.72768 307.584 
" clip-path="url(#p4ec466f373)" style="fill: #00e4f8"/>
   </g>
   <g id="PathCollection_15">
    <path d="M 265.942387 307.584 
L 263.677604 306.127863 
L 261.748713 304.98592 
L 260.321298 304.077472 
L 257.99719 302.815396 
L 253.097761 299.980724 
L 250.443755 298.7136 
L 246.873452 296.824428 
L 245.151255 296.046602 
L 241.964065 294.440511 
L 237.16866 292.44128 
L 234.740289 291.352142 
L 230.986263 289.8432 
L 227.598735 288.422336 
L 226.155871 287.900179 
L 224.345765 287.24512 
L 218.298311 284.892446 
L 214.84103 283.778546 
L 212.976919 283.098666 
L 206.132664 280.9728 
L 205.792589 280.855734 
L 205.504066 280.773695 
L 198.504354 278.556575 
L 196.471363 278.010631 
L 193.133392 276.987204 
L 184.145 274.70048 
L 183.912612 274.636877 
L 181.712505 274.034727 
L 173.675811 272.1024 
L 173.438213 272.042787 
L 172.912387 271.923337 
L 169.064308 271.049184 
L 162.660128 269.586542 
L 162.263711 269.50432 
L 153.231432 267.490386 
L 150.438492 266.977504 
L 147.818559 266.417676 
L 143.0563 265.564245 
L 139.470874 264.828756 
L 133.024172 263.737016 
L 132.668877 263.666937 
L 130.042061 263.232 
L 125.499281 262.398383 
L 123.736553 262.133975 
L 117.471281 261.042957 
L 115.720687 260.789747 
L 111.443433 260.060339 
L 104.809344 259.133859 
L 102.165759 258.704504 
L 100.4544 258.373206 
L 100.4544 263.232 
L 100.4544 272.1024 
L 100.4544 272.99157 
L 101.469944 273.215259 
L 104.867864 273.773343 
L 110.038294 274.70048 
L 113.713874 275.313131 
L 114.568572 275.482562 
L 118.464858 276.155195 
L 120.767608 276.62133 
L 127.594227 277.843488 
L 132.006162 278.784613 
L 133.551781 279.071965 
L 140.595825 280.608794 
L 141.160536 280.717981 
L 142.264244 280.9728 
L 148.529385 282.277947 
L 149.615916 282.542134 
L 154.695782 283.626514 
L 160.998343 285.225592 
L 163.398672 285.770486 
L 167.429824 286.839755 
L 167.861193 286.940322 
L 168.958051 287.24512 
L 175.375863 288.904077 
L 176.21554 289.121127 
L 178.690616 289.8432 
L 185.377597 291.712712 
L 187.75177 292.44128 
L 193.677612 294.131634 
L 196.179315 294.978801 
L 198.714256 295.742068 
L 204.97177 297.931192 
L 206.077932 298.283848 
L 207.208249 298.7136 
L 213.026063 300.709453 
L 214.8019 301.415824 
L 218.279859 302.653466 
L 223.777222 304.98592 
L 225.821495 305.792754 
L 229.923629 307.584 
L 229.96992 307.584 
L 238.06464 307.584 
L 246.15936 307.584 
L 254.25408 307.584 
L 262.3488 307.584 
" clip-path="url(#p4ec466f373)" style="fill: #53ffa4"/>
   </g>
   <g id="PathCollection_16">
    <path d="M 229.923629 307.584 
L 225.821495 305.792754 
L 223.777222 304.98592 
L 218.279859 302.653466 
L 214.8019 301.415824 
L 213.026063 300.709453 
L 207.208249 298.7136 
L 206.077932 298.283848 
L 204.97177 297.931192 
L 198.714256 295.742068 
L 196.179315 294.978801 
L 193.677612 294.131634 
L 187.75177 292.44128 
L 185.377597 291.712712 
L 178.690616 289.8432 
L 176.21554 289.121127 
L 175.375863 288.904077 
L 168.958051 287.24512 
L 167.861193 286.940322 
L 167.429824 286.839755 
L 163.398672 285.770486 
L 160.998343 285.225592 
L 154.695782 283.626514 
L 149.615916 282.542134 
L 148.529385 282.277947 
L 142.264244 280.9728 
L 141.160536 280.717981 
L 140.595825 280.608794 
L 133.551781 279.071965 
L 132.006162 278.784613 
L 127.594227 277.843488 
L 120.767608 276.62133 
L 118.464858 276.155195 
L 114.568572 275.482562 
L 113.713874 275.313131 
L 110.038294 274.70048 
L 104.867864 273.773343 
L 101.469944 273.215259 
L 100.4544 272.99157 
L 100.4544 280.9728 
L 100.4544 284.613842 
L 101.972547 284.989144 
L 104.492282 285.418386 
L 113.570337 287.24512 
L 114.067803 287.338238 
L 116.674292 287.826132 
L 123.343651 289.210043 
L 125.277087 289.59876 
L 125.523585 289.648318 
L 126.394969 289.8432 
L 136.266784 291.958953 
L 138.33488 292.44128 
L 145.278209 293.946531 
L 147.428019 294.494728 
L 150.366586 295.158327 
L 154.970974 296.361448 
L 158.504146 297.194013 
L 163.972744 298.7136 
L 165.104866 298.997453 
L 165.3458 299.067152 
L 171.530895 300.659769 
L 176.440727 302.147749 
L 179.758132 303.061487 
L 183.494486 304.250449 
L 184.248492 304.464303 
L 185.805731 304.98592 
L 191.388076 306.725321 
L 193.904871 307.584 
L 197.59104 307.584 
L 205.68576 307.584 
L 213.78048 307.584 
L 221.8752 307.584 
" clip-path="url(#p4ec466f373)" style="fill: #a4ff53"/>
   </g>
   <g id="PathCollection_17">
    <path d="M 193.904871 307.584 
L 191.388076 306.725321 
L 185.805731 304.98592 
L 184.248492 304.464303 
L 183.494486 304.250449 
L 179.758132 303.061487 
L 176.440727 302.147749 
L 171.530895 300.659769 
L 165.3458 299.067152 
L 165.104866 298.997453 
L 163.972744 298.7136 
L 158.504146 297.194013 
L 154.970974 296.361448 
L 150.366586 295.158327 
L 147.428019 294.494728 
L 145.278209 293.946531 
L 138.33488 292.44128 
L 136.266784 291.958953 
L 126.394969 289.8432 
L 125.523585 289.648318 
L 125.277087 289.59876 
L 123.343651 289.210043 
L 116.674292 287.826132 
L 114.067803 287.338238 
L 113.570337 287.24512 
L 104.492282 285.418386 
L 101.972547 284.989144 
L 100.4544 284.613842 
L 100.4544 289.8432 
L 100.4544 294.437189 
L 101.936298 294.793156 
L 105.684803 295.574809 
L 110.578787 296.489439 
L 116.274503 297.736498 
L 116.962816 297.86973 
L 120.737238 298.7136 
L 124.116471 299.395301 
L 125.701617 299.768943 
L 131.933599 301.093756 
L 133.916421 301.579112 
L 137.58514 302.376791 
L 146.294023 304.593825 
L 146.759553 304.700936 
L 147.83424 304.98592 
L 150.739599 305.7026 
L 156.055978 307.102196 
L 157.41068 307.450897 
L 157.886113 307.584 
L 165.21216 307.584 
L 173.30688 307.584 
L 181.4016 307.584 
L 189.49632 307.584 
" clip-path="url(#p4ec466f373)" style="fill: #f8f500"/>
   </g>
   <g id="PathCollection_18">
    <path d="M 100.4544 302.89807 
L 102.211769 303.362819 
L 103.999506 303.699183 
L 109.862749 304.98592 
L 112.904789 305.606937 
L 115.327322 306.141327 
L 117.534492 306.608001 
L 121.867355 307.584 
L 124.73856 307.584 
L 132.83328 307.584 
L 140.928 307.584 
L 149.02272 307.584 
L 157.11744 307.584 
L 157.886113 307.584 
L 157.41068 307.450897 
L 156.055978 307.102196 
L 150.739599 305.7026 
L 147.83424 304.98592 
L 146.759553 304.700936 
L 146.294023 304.593825 
L 137.58514 302.376791 
L 133.916421 301.579112 
L 131.933599 301.093756 
L 125.701617 299.768943 
L 124.116471 299.395301 
L 120.737238 298.7136 
L 116.962816 297.86973 
L 116.274503 297.736498 
L 110.578787 296.489439 
L 105.684803 295.574809 
L 101.936298 294.793156 
L 100.4544 294.437189 
L 100.4544 298.7136 
" clip-path="url(#p4ec466f373)" style="fill: #ff9400"/>
   </g>
   <g id="PathCollection_19">
    <path d="M 121.867355 307.584 
L 117.534492 306.608001 
L 115.327322 306.141327 
L 112.904789 305.606937 
L 109.862749 304.98592 
L 103.999506 303.699183 
L 102.211769 303.362819 
L 100.4544 302.89807 
L 100.4544 307.584 
L 108.54912 307.584 
L 116.64384 307.584 
" clip-path="url(#p4ec466f373)" style="fill: #ff3800"/>
   </g>
   <g id="PathCollection_20">
    <path clip-path="url(#p4ec466f373)" style="fill: #b60000"/>
   </g>
   <g id="matplotlib.axis_1">
    <g id="xtick_1">
     <g id="line2d_1">
      <defs>
       <path id="m921081b5cd" d="M 0 0 
L 0 3.5 
" style="stroke: #000000; stroke-width: 0.8"/>
      </defs>
      <g>
       <use xlink:href="#m921081b5cd" x="57.6" y="307.584" style="stroke: #000000; stroke-width: 0.8"/>
      </g>
     </g>
     <g id="text_1">
      <!-- 0.0 -->
      <g transform="translate(51.26875 321.385562) scale(0.1 -0.1)">
       <defs>
        <path id="Calibri-30" d="M 3022 2031 
Q 3022 1566 2948 1181 
Q 2875 797 2704 520 
Q 2534 244 2259 92 
Q 1984 -59 1581 -59 
Q 1200 -59 939 77 
Q 678 213 518 477 
Q 359 741 292 1127 
Q 225 1513 225 2013 
Q 225 2475 300 2861 
Q 375 3247 544 3523 
Q 713 3800 988 3951 
Q 1263 4103 1663 4103 
Q 2047 4103 2308 3967 
Q 2569 3831 2728 3567 
Q 2888 3303 2955 2917 
Q 3022 2531 3022 2031 
z
M 2472 1994 
Q 2472 2297 2450 2537 
Q 2428 2778 2386 2962 
Q 2344 3147 2276 3280 
Q 2209 3413 2115 3498 
Q 2022 3584 1901 3623 
Q 1781 3663 1631 3663 
Q 1366 3663 1200 3538 
Q 1034 3413 939 3194 
Q 844 2975 809 2681 
Q 775 2388 775 2050 
Q 775 1597 822 1280 
Q 869 963 970 763 
Q 1072 563 1230 472 
Q 1388 381 1613 381 
Q 1788 381 1920 437 
Q 2053 494 2148 598 
Q 2244 703 2306 850 
Q 2369 997 2406 1175 
Q 2444 1353 2458 1561 
Q 2472 1769 2472 1994 
z
" transform="scale(0.015625)"/>
        <path id="Calibri-2e" d="M 1144 341 
Q 1144 119 1070 45 
Q 997 -28 803 -28 
Q 616 -28 544 44 
Q 472 116 472 331 
Q 472 553 545 626 
Q 619 700 813 700 
Q 1000 700 1072 628 
Q 1144 556 1144 341 
z
" transform="scale(0.015625)"/>
       </defs>
       <use xlink:href="#Calibri-30"/>
       <use xlink:href="#Calibri-2e" x="50.683594"/>
       <use xlink:href="#Calibri-30" x="75.927734"/>
      </g>
     </g>
    </g>
    <g id="xtick_2">
     <g id="line2d_2">
      <g>
       <use xlink:href="#m921081b5cd" x="86.1696" y="307.584" style="stroke: #000000; stroke-width: 0.8"/>
      </g>
     </g>
     <g id="text_2">
      <!-- 0.1 -->
      <g transform="translate(79.83835 321.385562) scale(0.1 -0.1)">
       <defs>
        <path id="Calibri-31" d="M 2897 213 
Q 2897 153 2887 112 
Q 2878 72 2862 47 
Q 2847 22 2826 11 
Q 2806 0 2784 0 
L 672 0 
Q 650 0 631 11 
Q 613 22 595 47 
Q 578 72 568 112 
Q 559 153 559 213 
Q 559 269 568 309 
Q 578 350 592 376 
Q 606 403 626 417 
Q 647 431 672 431 
L 1516 431 
L 1516 3506 
L 734 3041 
Q 675 3009 639 3003 
Q 603 2997 581 3017 
Q 559 3038 551 3084 
Q 544 3131 544 3203 
Q 544 3256 548 3293 
Q 553 3331 562 3356 
Q 572 3381 589 3400 
Q 606 3419 634 3438 
L 1566 4034 
Q 1578 4044 1597 4050 
Q 1616 4056 1644 4062 
Q 1672 4069 1709 4070 
Q 1747 4072 1803 4072 
Q 1878 4072 1928 4065 
Q 1978 4059 2006 4048 
Q 2034 4038 2043 4020 
Q 2053 4003 2053 3984 
L 2053 431 
L 2784 431 
Q 2809 431 2831 417 
Q 2853 403 2867 376 
Q 2881 350 2889 309 
Q 2897 269 2897 213 
z
" transform="scale(0.015625)"/>
       </defs>
       <use xlink:href="#Calibri-30"/>
       <use xlink:href="#Calibri-2e" x="50.683594"/>
       <use xlink:href="#Calibri-31" x="75.927734"/>
      </g>
     </g>
    </g>
    <g id="xtick_3">
     <g id="line2d_3">
      <g>
       <use xlink:href="#m921081b5cd" x="114.7392" y="307.584" style="stroke: #000000; stroke-width: 0.8"/>
      </g>
     </g>
     <g id="text_3">
      <!-- 0.2 -->
      <g transform="translate(108.40795 321.385562) scale(0.1 -0.1)">
       <defs>
        <path id="Calibri-32" d="M 2888 231 
Q 2888 175 2880 131 
Q 2872 88 2858 58 
Q 2844 28 2820 14 
Q 2797 0 2769 0 
L 534 0 
Q 491 0 458 11 
Q 425 22 401 47 
Q 378 72 367 119 
Q 356 166 356 234 
Q 356 297 361 344 
Q 366 391 381 427 
Q 397 463 420 498 
Q 444 534 481 575 
L 1266 1406 
Q 1538 1694 1702 1922 
Q 1866 2150 1955 2337 
Q 2044 2525 2072 2678 
Q 2100 2831 2100 2966 
Q 2100 3100 2056 3220 
Q 2013 3341 1930 3431 
Q 1847 3522 1722 3575 
Q 1597 3628 1434 3628 
Q 1244 3628 1092 3575 
Q 941 3522 827 3459 
Q 713 3397 636 3344 
Q 559 3291 522 3291 
Q 500 3291 483 3303 
Q 466 3316 455 3344 
Q 444 3372 437 3419 
Q 431 3466 431 3531 
Q 431 3578 434 3612 
Q 438 3647 445 3672 
Q 453 3697 465 3719 
Q 478 3741 515 3773 
Q 553 3806 645 3862 
Q 738 3919 877 3973 
Q 1016 4028 1183 4065 
Q 1350 4103 1534 4103 
Q 1828 4103 2048 4020 
Q 2269 3938 2414 3794 
Q 2559 3650 2631 3459 
Q 2703 3269 2703 3053 
Q 2703 2859 2668 2667 
Q 2634 2475 2523 2251 
Q 2413 2028 2203 1754 
Q 1994 1481 1647 1125 
L 1006 456 
L 2766 456 
Q 2791 456 2814 442 
Q 2838 428 2855 400 
Q 2872 372 2880 330 
Q 2888 288 2888 231 
z
" transform="scale(0.015625)"/>
       </defs>
       <use xlink:href="#Calibri-30"/>
       <use xlink:href="#Calibri-2e" x="50.683594"/>
       <use xlink:href="#Calibri-32" x="75.927734"/>
      </g>
     </g>
    </g>
    <g id="xtick_4">
     <g id="line2d_4">
      <g>
       <use xlink:href="#m921081b5cd" x="143.3088" y="307.584" style="stroke: #000000; stroke-width: 0.8"/>
      </g>
     </g>
     <g id="text_4">
      <!-- 0.3 -->
      <g transform="translate(136.97755 321.385562) scale(0.1 -0.1)">
       <defs>
        <path id="Calibri-33" d="M 2856 1156 
Q 2856 878 2759 654 
Q 2663 431 2481 272 
Q 2300 113 2034 27 
Q 1769 -59 1434 -59 
Q 1231 -59 1054 -26 
Q 878 6 740 51 
Q 603 97 512 145 
Q 422 194 398 216 
Q 375 238 362 259 
Q 350 281 340 312 
Q 331 344 326 389 
Q 322 434 322 500 
Q 322 613 344 656 
Q 366 700 406 700 
Q 434 700 517 650 
Q 600 600 729 542 
Q 859 484 1032 434 
Q 1206 384 1419 384 
Q 1625 384 1781 437 
Q 1938 491 2044 587 
Q 2150 684 2203 817 
Q 2256 950 2256 1106 
Q 2256 1278 2189 1415 
Q 2122 1553 1992 1653 
Q 1863 1753 1673 1806 
Q 1484 1859 1244 1859 
L 859 1859 
Q 834 1859 811 1870 
Q 788 1881 770 1906 
Q 753 1931 742 1972 
Q 731 2013 731 2078 
Q 731 2138 740 2177 
Q 750 2216 767 2239 
Q 784 2263 806 2273 
Q 828 2284 856 2284 
L 1209 2284 
Q 1416 2284 1580 2337 
Q 1744 2391 1858 2491 
Q 1972 2591 2033 2730 
Q 2094 2869 2094 3041 
Q 2094 3166 2053 3280 
Q 2013 3394 1931 3478 
Q 1850 3563 1723 3611 
Q 1597 3659 1431 3659 
Q 1250 3659 1098 3604 
Q 947 3550 828 3487 
Q 709 3425 631 3370 
Q 553 3316 522 3316 
Q 500 3316 483 3323 
Q 466 3331 455 3354 
Q 444 3378 439 3420 
Q 434 3463 434 3531 
Q 434 3578 437 3614 
Q 441 3650 450 3676 
Q 459 3703 471 3725 
Q 484 3747 514 3776 
Q 544 3806 634 3862 
Q 725 3919 858 3973 
Q 991 4028 1164 4065 
Q 1338 4103 1538 4103 
Q 1819 4103 2031 4031 
Q 2244 3959 2386 3828 
Q 2528 3697 2598 3514 
Q 2669 3331 2669 3109 
Q 2669 2919 2619 2755 
Q 2569 2591 2472 2464 
Q 2375 2338 2234 2248 
Q 2094 2159 1909 2125 
L 1909 2119 
Q 2119 2097 2292 2014 
Q 2466 1931 2591 1806 
Q 2716 1681 2786 1514 
Q 2856 1347 2856 1156 
z
" transform="scale(0.015625)"/>
       </defs>
       <use xlink:href="#Calibri-30"/>
       <use xlink:href="#Calibri-2e" x="50.683594"/>
       <use xlink:href="#Calibri-33" x="75.927734"/>
      </g>
     </g>
    </g>
    <g id="xtick_5">
     <g id="line2d_5">
      <g>
       <use xlink:href="#m921081b5cd" x="171.8784" y="307.584" style="stroke: #000000; stroke-width: 0.8"/>
      </g>
     </g>
     <g id="text_5">
      <!-- 0.4 -->
      <g transform="translate(165.54715 321.385562) scale(0.1 -0.1)">
       <defs>
        <path id="Calibri-34" d="M 3059 1150 
Q 3059 1047 3028 987 
Q 2997 928 2941 928 
L 2484 928 
L 2484 78 
Q 2484 53 2471 36 
Q 2459 19 2428 6 
Q 2397 -6 2347 -12 
Q 2297 -19 2219 -19 
Q 2144 -19 2094 -12 
Q 2044 -6 2014 6 
Q 1984 19 1973 36 
Q 1963 53 1963 78 
L 1963 928 
L 294 928 
Q 256 928 231 937 
Q 206 947 186 972 
Q 166 997 158 1044 
Q 150 1091 150 1166 
Q 150 1225 153 1272 
Q 156 1319 165 1358 
Q 175 1397 190 1433 
Q 206 1469 228 1509 
L 1684 3966 
Q 1700 3991 1729 4009 
Q 1759 4028 1806 4040 
Q 1853 4053 1922 4058 
Q 1991 4063 2084 4063 
Q 2188 4063 2264 4055 
Q 2341 4047 2387 4034 
Q 2434 4022 2459 4001 
Q 2484 3981 2484 3953 
L 2484 1372 
L 2941 1372 
Q 2994 1372 3026 1317 
Q 3059 1263 3059 1150 
z
M 1963 3591 
L 1956 3591 
L 641 1372 
L 1963 1372 
L 1963 3591 
z
" transform="scale(0.015625)"/>
       </defs>
       <use xlink:href="#Calibri-30"/>
       <use xlink:href="#Calibri-2e" x="50.683594"/>
       <use xlink:href="#Calibri-34" x="75.927734"/>
      </g>
     </g>
    </g>
    <g id="xtick_6">
     <g id="line2d_6">
      <g>
       <use xlink:href="#m921081b5cd" x="200.448" y="307.584" style="stroke: #000000; stroke-width: 0.8"/>
      </g>
     </g>
     <g id="text_6">
      <!-- 0.5 -->
      <g transform="translate(194.11675 321.385562) scale(0.1 -0.1)">
       <defs>
        <path id="Calibri-35" d="M 2869 1300 
Q 2869 975 2759 722 
Q 2650 469 2450 295 
Q 2250 122 1973 31 
Q 1697 -59 1359 -59 
Q 1172 -59 1003 -32 
Q 834 -6 703 33 
Q 572 72 487 109 
Q 403 147 379 169 
Q 356 191 347 209 
Q 338 228 330 254 
Q 322 281 319 322 
Q 316 363 316 419 
Q 316 472 320 514 
Q 325 556 337 582 
Q 350 609 367 621 
Q 384 634 406 634 
Q 438 634 503 595 
Q 569 556 680 511 
Q 791 466 955 425 
Q 1119 384 1344 384 
Q 1553 384 1728 434 
Q 1903 484 2029 590 
Q 2156 697 2228 858 
Q 2300 1019 2300 1250 
Q 2300 1444 2239 1592 
Q 2178 1741 2051 1839 
Q 1925 1938 1731 1986 
Q 1538 2034 1269 2034 
Q 1078 2034 940 2015 
Q 803 1997 684 1997 
Q 597 1997 559 2037 
Q 522 2078 522 2194 
L 522 3841 
Q 522 3944 570 3994 
Q 619 4044 709 4044 
L 2500 4044 
Q 2525 4044 2548 4030 
Q 2572 4016 2587 3987 
Q 2603 3959 2611 3915 
Q 2619 3872 2619 3813 
Q 2619 3700 2587 3637 
Q 2556 3575 2500 3575 
L 991 3575 
L 991 2441 
Q 1100 2456 1214 2459 
Q 1328 2463 1478 2463 
Q 1825 2463 2084 2380 
Q 2344 2297 2517 2145 
Q 2691 1994 2780 1778 
Q 2869 1563 2869 1300 
z
" transform="scale(0.015625)"/>
       </defs>
       <use xlink:href="#Calibri-30"/>
       <use xlink:href="#Calibri-2e" x="50.683594"/>
       <use xlink:href="#Calibri-35" x="75.927734"/>
      </g>
     </g>
    </g>
    <g id="xtick_7">
     <g id="line2d_7">
      <g>
       <use xlink:href="#m921081b5cd" x="229.0176" y="307.584" style="stroke: #000000; stroke-width: 0.8"/>
      </g>
     </g>
     <g id="text_7">
      <!-- 0.6 -->
      <g transform="translate(222.68635 321.385562) scale(0.1 -0.1)">
       <defs>
        <path id="Calibri-36" d="M 2991 1309 
Q 2991 1044 2909 795 
Q 2828 547 2659 358 
Q 2491 169 2231 55 
Q 1972 -59 1619 -59 
Q 1366 -59 1172 3 
Q 978 66 834 181 
Q 691 297 595 465 
Q 500 634 442 850 
Q 384 1066 359 1322 
Q 334 1578 334 1872 
Q 334 2131 362 2397 
Q 391 2663 462 2909 
Q 534 3156 657 3373 
Q 781 3591 967 3752 
Q 1153 3913 1412 4006 
Q 1672 4100 2016 4100 
Q 2131 4100 2250 4086 
Q 2369 4072 2469 4048 
Q 2569 4025 2637 3997 
Q 2706 3969 2728 3951 
Q 2750 3934 2761 3914 
Q 2772 3894 2778 3870 
Q 2784 3847 2787 3817 
Q 2791 3788 2791 3744 
Q 2791 3688 2789 3647 
Q 2788 3606 2777 3581 
Q 2766 3556 2748 3543 
Q 2731 3531 2703 3531 
Q 2669 3531 2609 3553 
Q 2550 3575 2465 3601 
Q 2381 3628 2261 3650 
Q 2141 3672 1981 3672 
Q 1691 3672 1481 3553 
Q 1272 3434 1139 3234 
Q 1006 3034 942 2770 
Q 878 2506 869 2219 
Q 950 2266 1051 2312 
Q 1153 2359 1273 2396 
Q 1394 2434 1528 2457 
Q 1663 2481 1816 2481 
Q 2144 2481 2369 2392 
Q 2594 2303 2733 2145 
Q 2872 1988 2931 1773 
Q 2991 1559 2991 1309 
z
M 2447 1259 
Q 2447 1441 2411 1589 
Q 2375 1738 2290 1841 
Q 2206 1944 2065 2000 
Q 1925 2056 1719 2056 
Q 1603 2056 1487 2036 
Q 1372 2016 1264 1980 
Q 1156 1944 1057 1895 
Q 959 1847 878 1791 
Q 878 1388 929 1116 
Q 981 844 1079 680 
Q 1178 516 1325 445 
Q 1472 375 1669 375 
Q 1869 375 2016 450 
Q 2163 525 2259 651 
Q 2356 778 2401 936 
Q 2447 1094 2447 1259 
z
" transform="scale(0.015625)"/>
       </defs>
       <use xlink:href="#Calibri-30"/>
       <use xlink:href="#Calibri-2e" x="50.683594"/>
       <use xlink:href="#Calibri-36" x="75.927734"/>
      </g>
     </g>
    </g>
    <g id="xtick_8">
     <g id="line2d_8">
      <g>
       <use xlink:href="#m921081b5cd" x="257.5872" y="307.584" style="stroke: #000000; stroke-width: 0.8"/>
      </g>
     </g>
     <g id="text_8">
      <!-- 0.7 -->
      <g transform="translate(251.25595 321.385562) scale(0.1 -0.1)">
       <defs>
        <path id="Calibri-37" d="M 2947 3813 
Q 2947 3756 2942 3711 
Q 2938 3666 2930 3623 
Q 2922 3581 2908 3542 
Q 2894 3503 2875 3459 
L 1419 103 
Q 1403 66 1379 42 
Q 1356 19 1320 5 
Q 1284 -9 1228 -14 
Q 1172 -19 1091 -19 
Q 984 -19 925 -9 
Q 866 0 839 20 
Q 813 41 816 70 
Q 819 100 838 141 
L 2369 3572 
L 428 3572 
Q 369 3572 339 3634 
Q 309 3697 309 3809 
Q 309 3869 317 3912 
Q 325 3956 340 3986 
Q 356 4016 378 4030 
Q 400 4044 428 4044 
L 2784 4044 
Q 2828 4044 2861 4034 
Q 2894 4025 2911 3997 
Q 2928 3969 2937 3925 
Q 2947 3881 2947 3813 
z
" transform="scale(0.015625)"/>
       </defs>
       <use xlink:href="#Calibri-30"/>
       <use xlink:href="#Calibri-2e" x="50.683594"/>
       <use xlink:href="#Calibri-37" x="75.927734"/>
      </g>
     </g>
    </g>
    <g id="xtick_9">
     <g id="line2d_9">
      <g>
       <use xlink:href="#m921081b5cd" x="286.1568" y="307.584" style="stroke: #000000; stroke-width: 0.8"/>
      </g>
     </g>
     <g id="text_9">
      <!-- 0.8 -->
      <g transform="translate(279.82555 321.385562) scale(0.1 -0.1)">
       <defs>
        <path id="Calibri-38" d="M 2981 1038 
Q 2981 775 2887 570 
Q 2794 366 2617 225 
Q 2441 84 2181 12 
Q 1922 -59 1588 -59 
Q 1275 -59 1028 6 
Q 781 72 609 200 
Q 438 328 347 515 
Q 256 703 256 944 
Q 256 1134 318 1293 
Q 381 1453 498 1587 
Q 616 1722 787 1839 
Q 959 1956 1175 2063 
Q 988 2159 844 2267 
Q 700 2375 600 2501 
Q 500 2628 448 2772 
Q 397 2916 397 3084 
Q 397 3297 473 3483 
Q 550 3669 704 3806 
Q 859 3944 1098 4023 
Q 1338 4103 1656 4103 
Q 1963 4103 2186 4029 
Q 2409 3956 2554 3829 
Q 2700 3703 2769 3531 
Q 2838 3359 2838 3163 
Q 2838 3003 2786 2856 
Q 2734 2709 2634 2578 
Q 2534 2447 2389 2333 
Q 2244 2219 2056 2119 
Q 2278 2009 2451 1893 
Q 2625 1778 2742 1645 
Q 2859 1513 2920 1364 
Q 2981 1216 2981 1038 
z
M 2306 3113 
Q 2306 3244 2261 3350 
Q 2216 3456 2128 3531 
Q 2041 3606 1911 3645 
Q 1781 3684 1616 3684 
Q 1278 3684 1104 3531 
Q 931 3378 931 3113 
Q 931 2991 973 2886 
Q 1016 2781 1105 2687 
Q 1194 2594 1330 2505 
Q 1466 2416 1653 2319 
Q 1969 2481 2137 2678 
Q 2306 2875 2306 3113 
z
M 2438 981 
Q 2438 1125 2384 1242 
Q 2331 1359 2223 1461 
Q 2116 1563 1955 1658 
Q 1794 1753 1581 1856 
Q 1384 1759 1236 1662 
Q 1088 1566 992 1462 
Q 897 1359 848 1245 
Q 800 1131 800 994 
Q 800 691 1008 525 
Q 1216 359 1628 359 
Q 2028 359 2233 526 
Q 2438 694 2438 981 
z
" transform="scale(0.015625)"/>
       </defs>
       <use xlink:href="#Calibri-30"/>
       <use xlink:href="#Calibri-2e" x="50.683594"/>
       <use xlink:href="#Calibri-38" x="75.927734"/>
      </g>
     </g>
    </g>
    <g id="xtick_10">
     <g id="line2d_10">
      <g>
       <use xlink:href="#m921081b5cd" x="314.7264" y="307.584" style="stroke: #000000; stroke-width: 0.8"/>
      </g>
     </g>
     <g id="text_10">
      <!-- 0.9 -->
      <g transform="translate(308.39515 321.385562) scale(0.1 -0.1)">
       <defs>
        <path id="Calibri-39" d="M 2919 2181 
Q 2919 1919 2887 1650 
Q 2856 1381 2781 1132 
Q 2706 884 2579 667 
Q 2453 450 2261 287 
Q 2069 125 1805 33 
Q 1541 -59 1191 -59 
Q 1056 -59 929 -42 
Q 803 -25 701 0 
Q 600 25 531 53 
Q 463 81 431 109 
Q 400 138 386 186 
Q 372 234 372 316 
Q 372 384 376 425 
Q 381 466 390 487 
Q 400 509 417 517 
Q 434 525 459 525 
Q 494 525 556 501 
Q 619 478 714 450 
Q 809 422 937 398 
Q 1066 375 1225 375 
Q 1528 375 1745 492 
Q 1963 609 2100 806 
Q 2238 1003 2306 1262 
Q 2375 1522 2381 1809 
Q 2216 1713 1984 1638 
Q 1753 1563 1453 1563 
Q 1116 1563 886 1655 
Q 656 1747 517 1906 
Q 378 2066 317 2284 
Q 256 2503 256 2763 
Q 256 3031 334 3273 
Q 413 3516 578 3700 
Q 744 3884 1000 3993 
Q 1256 4103 1613 4103 
Q 1866 4103 2061 4039 
Q 2256 3975 2400 3854 
Q 2544 3734 2644 3564 
Q 2744 3394 2805 3178 
Q 2866 2963 2892 2711 
Q 2919 2459 2919 2181 
z
M 2372 2241 
Q 2372 2641 2319 2914 
Q 2266 3188 2162 3356 
Q 2059 3525 1909 3600 
Q 1759 3675 1563 3675 
Q 1359 3675 1215 3601 
Q 1072 3528 980 3404 
Q 888 3281 844 3125 
Q 800 2969 800 2803 
Q 800 2619 839 2466 
Q 878 2313 965 2206 
Q 1053 2100 1193 2042 
Q 1334 1984 1541 1984 
Q 1775 1984 1994 2054 
Q 2213 2125 2372 2241 
z
" transform="scale(0.015625)"/>
       </defs>
       <use xlink:href="#Calibri-30"/>
       <use xlink:href="#Calibri-2e" x="50.683594"/>
       <use xlink:href="#Calibri-39" x="75.927734"/>
      </g>
     </g>
    </g>
    <g id="xtick_11">
     <g id="line2d_11">
      <g>
       <use xlink:href="#m921081b5cd" x="343.296" y="307.584" style="stroke: #000000; stroke-width: 0.8"/>
      </g>
     </g>
     <g id="text_11">
      <!-- 1.0 -->
      <g transform="translate(336.96475 321.385562) scale(0.1 -0.1)">
       <use xlink:href="#Calibri-31"/>
       <use xlink:href="#Calibri-2e" x="50.683594"/>
       <use xlink:href="#Calibri-30" x="75.927734"/>
      </g>
     </g>
    </g>
    <g id="text_12">
     <!-- $\mathit{p}$ (cm$^2$/cm$^2$) -->
     <g transform="translate(174.148 336.263687) scale(0.1 -0.1)">
      <defs>
       <path id="DejaVuSans-Oblique-70" d="M 3175 2156 
Q 3175 2616 2975 2859 
Q 2775 3103 2400 3103 
Q 2144 3103 1911 2972 
Q 1678 2841 1497 2591 
Q 1319 2344 1212 1994 
Q 1106 1644 1106 1300 
Q 1106 863 1306 627 
Q 1506 391 1875 391 
Q 2147 391 2380 519 
Q 2613 647 2778 891 
Q 2956 1147 3065 1494 
Q 3175 1841 3175 2156 
z
M 1394 2969 
Q 1625 3272 1939 3428 
Q 2253 3584 2638 3584 
Q 3175 3584 3472 3232 
Q 3769 2881 3769 2247 
Q 3769 1728 3584 1258 
Q 3400 788 3053 416 
Q 2822 169 2531 39 
Q 2241 -91 1919 -91 
Q 1547 -91 1294 64 
Q 1041 219 916 525 
L 556 -1331 
L -19 -1331 
L 922 3500 
L 1497 3500 
L 1394 2969 
z
" transform="scale(0.015625)"/>
       <path id="Calibri-20" transform="scale(0.015625)"/>
       <path id="Calibri-28" d="M 1547 4306 
Q 1250 3678 1104 3017 
Q 959 2356 959 1688 
Q 959 1016 1107 356 
Q 1256 -303 1541 -938 
Q 1556 -975 1557 -1001 
Q 1559 -1028 1537 -1045 
Q 1516 -1063 1470 -1070 
Q 1425 -1078 1347 -1078 
Q 1291 -1078 1250 -1075 
Q 1209 -1072 1179 -1062 
Q 1150 -1053 1131 -1040 
Q 1113 -1028 1103 -1013 
Q 934 -694 806 -367 
Q 678 -41 590 296 
Q 503 634 459 979 
Q 416 1325 416 1678 
Q 416 2031 464 2375 
Q 513 2719 602 3058 
Q 691 3397 819 3725 
Q 947 4053 1106 4375 
Q 1109 4388 1123 4397 
Q 1138 4406 1163 4415 
Q 1188 4425 1231 4429 
Q 1275 4434 1344 4434 
Q 1416 4434 1459 4425 
Q 1503 4416 1528 4400 
Q 1553 4384 1556 4359 
Q 1559 4334 1547 4306 
z
" transform="scale(0.015625)"/>
       <path id="Calibri-63" d="M 2500 506 
Q 2500 453 2497 414 
Q 2494 375 2486 348 
Q 2478 322 2467 301 
Q 2456 281 2417 242 
Q 2378 203 2284 145 
Q 2191 88 2073 42 
Q 1956 -3 1818 -31 
Q 1681 -59 1534 -59 
Q 1231 -59 997 41 
Q 763 141 605 333 
Q 447 525 364 804 
Q 281 1084 281 1450 
Q 281 1866 382 2164 
Q 484 2463 661 2653 
Q 838 2844 1077 2936 
Q 1316 3028 1594 3028 
Q 1728 3028 1854 3003 
Q 1981 2978 2087 2937 
Q 2194 2897 2276 2844 
Q 2359 2791 2396 2753 
Q 2434 2716 2448 2694 
Q 2463 2672 2472 2642 
Q 2481 2613 2484 2575 
Q 2488 2538 2488 2481 
Q 2488 2359 2459 2311 
Q 2431 2263 2391 2263 
Q 2344 2263 2283 2314 
Q 2222 2366 2128 2428 
Q 2034 2491 1901 2542 
Q 1769 2594 1588 2594 
Q 1216 2594 1017 2308 
Q 819 2022 819 1478 
Q 819 1206 870 1001 
Q 922 797 1022 659 
Q 1122 522 1267 455 
Q 1413 388 1600 388 
Q 1778 388 1912 444 
Q 2047 500 2145 567 
Q 2244 634 2311 689 
Q 2378 744 2416 744 
Q 2438 744 2453 731 
Q 2469 719 2480 689 
Q 2491 659 2495 614 
Q 2500 569 2500 506 
z
" transform="scale(0.015625)"/>
       <path id="Calibri-6d" d="M 4650 78 
Q 4650 53 4637 36 
Q 4625 19 4597 6 
Q 4569 -6 4519 -12 
Q 4469 -19 4394 -19 
Q 4316 -19 4266 -12 
Q 4216 -6 4186 6 
Q 4156 19 4143 36 
Q 4131 53 4131 78 
L 4131 1788 
Q 4131 1966 4100 2112 
Q 4069 2259 4000 2365 
Q 3931 2472 3825 2528 
Q 3719 2584 3575 2584 
Q 3397 2584 3217 2446 
Q 3038 2309 2822 2044 
L 2822 78 
Q 2822 53 2809 36 
Q 2797 19 2767 6 
Q 2738 -6 2688 -12 
Q 2638 -19 2563 -19 
Q 2491 -19 2439 -12 
Q 2388 -6 2358 6 
Q 2328 19 2317 36 
Q 2306 53 2306 78 
L 2306 1788 
Q 2306 1966 2272 2112 
Q 2238 2259 2169 2365 
Q 2100 2472 1995 2528 
Q 1891 2584 1747 2584 
Q 1569 2584 1387 2446 
Q 1206 2309 994 2044 
L 994 78 
Q 994 53 981 36 
Q 969 19 941 6 
Q 913 -6 863 -12 
Q 813 -19 734 -19 
Q 659 -19 609 -12 
Q 559 -6 529 6 
Q 500 19 489 36 
Q 478 53 478 78 
L 478 2891 
Q 478 2916 487 2933 
Q 497 2950 525 2964 
Q 553 2978 597 2983 
Q 641 2988 713 2988 
Q 781 2988 826 2983 
Q 872 2978 897 2964 
Q 922 2950 933 2933 
Q 944 2916 944 2891 
L 944 2519 
Q 1181 2784 1404 2907 
Q 1628 3031 1856 3031 
Q 2031 3031 2170 2990 
Q 2309 2950 2415 2876 
Q 2522 2803 2597 2701 
Q 2672 2600 2722 2475 
Q 2863 2628 2989 2734 
Q 3116 2841 3233 2906 
Q 3350 2972 3461 3001 
Q 3572 3031 3684 3031 
Q 3956 3031 4140 2936 
Q 4325 2841 4439 2681 
Q 4553 2522 4601 2308 
Q 4650 2094 4650 1856 
L 4650 78 
z
" transform="scale(0.015625)"/>
       <path id="DejaVuSans-32" d="M 1228 531 
L 3431 531 
L 3431 0 
L 469 0 
L 469 531 
Q 828 903 1448 1529 
Q 2069 2156 2228 2338 
Q 2531 2678 2651 2914 
Q 2772 3150 2772 3378 
Q 2772 3750 2511 3984 
Q 2250 4219 1831 4219 
Q 1534 4219 1204 4116 
Q 875 4013 500 3803 
L 500 4441 
Q 881 4594 1212 4672 
Q 1544 4750 1819 4750 
Q 2544 4750 2975 4387 
Q 3406 4025 3406 3419 
Q 3406 3131 3298 2873 
Q 3191 2616 2906 2266 
Q 2828 2175 2409 1742 
Q 1991 1309 1228 531 
z
" transform="scale(0.015625)"/>
       <path id="Calibri-2f" d="M 525 -753 
Q 513 -794 492 -817 
Q 472 -841 440 -853 
Q 409 -866 364 -872 
Q 319 -878 253 -878 
Q 175 -878 123 -867 
Q 72 -856 44 -836 
Q 16 -816 9 -786 
Q 3 -756 22 -716 
L 1913 4469 
Q 1925 4509 1945 4532 
Q 1966 4556 1995 4570 
Q 2025 4584 2072 4589 
Q 2119 4594 2184 4594 
Q 2263 4594 2313 4583 
Q 2363 4572 2391 4553 
Q 2419 4534 2425 4503 
Q 2431 4472 2416 4431 
L 525 -753 
z
" transform="scale(0.015625)"/>
       <path id="Calibri-29" d="M 1522 1678 
Q 1522 1325 1478 979 
Q 1434 634 1346 296 
Q 1259 -41 1132 -367 
Q 1006 -694 838 -1013 
Q 828 -1028 809 -1040 
Q 791 -1053 761 -1062 
Q 731 -1072 690 -1075 
Q 650 -1078 594 -1078 
Q 513 -1078 467 -1070 
Q 422 -1063 401 -1045 
Q 381 -1028 382 -1001 
Q 384 -975 400 -938 
Q 688 -306 834 355 
Q 981 1016 981 1688 
Q 981 2356 834 3017 
Q 688 3678 394 4306 
Q 381 4334 384 4359 
Q 388 4384 413 4400 
Q 438 4416 481 4425 
Q 525 4434 597 4434 
Q 663 4434 706 4429 
Q 750 4425 776 4415 
Q 803 4406 815 4397 
Q 828 4388 834 4375 
Q 1156 3734 1339 3057 
Q 1522 2381 1522 1678 
z
" transform="scale(0.015625)"/>
      </defs>
      <use xlink:href="#DejaVuSans-Oblique-70" transform="translate(0 0.765625)"/>
      <use xlink:href="#Calibri-20" transform="translate(63.476562 0.765625)"/>
      <use xlink:href="#Calibri-28" transform="translate(84.958984 0.765625)"/>
      <use xlink:href="#Calibri-63" transform="translate(115.28125 0.765625)"/>
      <use xlink:href="#Calibri-6d" transform="translate(157.566406 0.765625)"/>
      <use xlink:href="#DejaVuSans-32" transform="translate(238.40625 39.046875) scale(0.7)"/>
      <use xlink:href="#Calibri-2f" transform="translate(285.676758 0.765625)"/>
      <use xlink:href="#Calibri-63" transform="translate(324.299805 0.765625)"/>
      <use xlink:href="#Calibri-6d" transform="translate(366.584961 0.765625)"/>
      <use xlink:href="#DejaVuSans-32" transform="translate(447.424805 39.046875) scale(0.7)"/>
      <use xlink:href="#Calibri-29" transform="translate(494.695312 0.765625)"/>
     </g>
    </g>
   </g>
   <g id="matplotlib.axis_2">
    <g id="ytick_1">
     <g id="line2d_12">
      <defs>
       <path id="m7ee253034b" d="M 0 0 
L -3.5 0 
" style="stroke: #000000; stroke-width: 0.8"/>
      </defs>
      <g>
       <use xlink:href="#m7ee253034b" x="57.6" y="275.65056" style="stroke: #000000; stroke-width: 0.8"/>
      </g>
     </g>
     <g id="text_13">
      <!-- 25 -->
      <g transform="translate(40.4625 279.051341) scale(0.1 -0.1)">
       <use xlink:href="#Calibri-32"/>
       <use xlink:href="#Calibri-35" x="50.683594"/>
      </g>
     </g>
    </g>
    <g id="ytick_2">
     <g id="line2d_13">
      <g>
       <use xlink:href="#m7ee253034b" x="57.6" y="242.38656" style="stroke: #000000; stroke-width: 0.8"/>
      </g>
     </g>
     <g id="text_14">
      <!-- 50 -->
      <g transform="translate(40.4625 245.787341) scale(0.1 -0.1)">
       <use xlink:href="#Calibri-35"/>
       <use xlink:href="#Calibri-30" x="50.683594"/>
      </g>
     </g>
    </g>
    <g id="ytick_3">
     <g id="line2d_14">
      <g>
       <use xlink:href="#m7ee253034b" x="57.6" y="209.12256" style="stroke: #000000; stroke-width: 0.8"/>
      </g>
     </g>
     <g id="text_15">
      <!-- 75 -->
      <g transform="translate(40.4625 212.523341) scale(0.1 -0.1)">
       <use xlink:href="#Calibri-37"/>
       <use xlink:href="#Calibri-35" x="50.683594"/>
      </g>
     </g>
    </g>
    <g id="ytick_4">
     <g id="line2d_15">
      <g>
       <use xlink:href="#m7ee253034b" x="57.6" y="175.85856" style="stroke: #000000; stroke-width: 0.8"/>
      </g>
     </g>
     <g id="text_16">
      <!-- 100 -->
      <g transform="translate(35.39375 179.259341) scale(0.1 -0.1)">
       <use xlink:href="#Calibri-31"/>
       <use xlink:href="#Calibri-30" x="50.683594"/>
       <use xlink:href="#Calibri-30" x="101.367188"/>
      </g>
     </g>
    </g>
    <g id="ytick_5">
     <g id="line2d_16">
      <g>
       <use xlink:href="#m7ee253034b" x="57.6" y="142.59456" style="stroke: #000000; stroke-width: 0.8"/>
      </g>
     </g>
     <g id="text_17">
      <!-- 125 -->
      <g transform="translate(35.39375 145.995341) scale(0.1 -0.1)">
       <use xlink:href="#Calibri-31"/>
       <use xlink:href="#Calibri-32" x="50.683594"/>
       <use xlink:href="#Calibri-35" x="101.367188"/>
      </g>
     </g>
    </g>
    <g id="ytick_6">
     <g id="line2d_17">
      <g>
       <use xlink:href="#m7ee253034b" x="57.6" y="109.33056" style="stroke: #000000; stroke-width: 0.8"/>
      </g>
     </g>
     <g id="text_18">
      <!-- 150 -->
      <g transform="translate(35.39375 112.731341) scale(0.1 -0.1)">
       <use xlink:href="#Calibri-31"/>
       <use xlink:href="#Calibri-35" x="50.683594"/>
       <use xlink:href="#Calibri-30" x="101.367188"/>
      </g>
     </g>
    </g>
    <g id="ytick_7">
     <g id="line2d_18">
      <g>
       <use xlink:href="#m7ee253034b" x="57.6" y="76.06656" style="stroke: #000000; stroke-width: 0.8"/>
      </g>
     </g>
     <g id="text_19">
      <!-- 175 -->
      <g transform="translate(35.39375 79.467341) scale(0.1 -0.1)">
       <use xlink:href="#Calibri-31"/>
       <use xlink:href="#Calibri-37" x="50.683594"/>
       <use xlink:href="#Calibri-35" x="101.367188"/>
      </g>
     </g>
    </g>
    <g id="ytick_8">
     <g id="line2d_19">
      <g>
       <use xlink:href="#m7ee253034b" x="57.6" y="42.80256" style="stroke: #000000; stroke-width: 0.8"/>
      </g>
     </g>
     <g id="text_20">
      <!-- 200 -->
      <g transform="translate(35.39375 46.203341) scale(0.1 -0.1)">
       <use xlink:href="#Calibri-32"/>
       <use xlink:href="#Calibri-30" x="50.683594"/>
       <use xlink:href="#Calibri-30" x="101.367188"/>
      </g>
     </g>
    </g>
    <g id="text_21">
     <!-- $\mathit{Z}$$_{a}$ (nm) -->
     <g transform="translate(29.59375 191.028) rotate(-90) scale(0.1 -0.1)">
      <defs>
       <path id="DejaVuSans-Oblique-5a" d="M 838 4666 
L 4500 4666 
L 4409 4184 
L 794 531 
L 3769 531 
L 3669 0 
L -141 0 
L -50 481 
L 3566 4134 
L 738 4134 
L 838 4666 
z
" transform="scale(0.015625)"/>
       <path id="DejaVuSans-Oblique-61" d="M 3438 1997 
L 3047 0 
L 2472 0 
L 2578 531 
Q 2325 219 2001 64 
Q 1678 -91 1281 -91 
Q 834 -91 548 182 
Q 263 456 263 884 
Q 263 1497 752 1853 
Q 1241 2209 2100 2209 
L 2900 2209 
L 2931 2363 
Q 2938 2388 2941 2417 
Q 2944 2447 2944 2509 
Q 2944 2788 2717 2942 
Q 2491 3097 2081 3097 
Q 1800 3097 1504 3025 
Q 1209 2953 897 2809 
L 997 3341 
Q 1322 3463 1633 3523 
Q 1944 3584 2234 3584 
Q 2853 3584 3176 3315 
Q 3500 3047 3500 2534 
Q 3500 2431 3484 2292 
Q 3469 2153 3438 1997 
z
M 2816 1759 
L 2241 1759 
Q 1534 1759 1195 1570 
Q 856 1381 856 984 
Q 856 709 1029 553 
Q 1203 397 1509 397 
Q 1978 397 2328 733 
Q 2678 1069 2791 1631 
L 2816 1759 
z
" transform="scale(0.015625)"/>
       <path id="Calibri-6e" d="M 2900 78 
Q 2900 53 2887 36 
Q 2875 19 2847 6 
Q 2819 -6 2769 -12 
Q 2719 -19 2644 -19 
Q 2566 -19 2516 -12 
Q 2466 -6 2437 6 
Q 2409 19 2396 36 
Q 2384 53 2384 78 
L 2384 1725 
Q 2384 1966 2346 2112 
Q 2309 2259 2237 2365 
Q 2166 2472 2052 2528 
Q 1938 2584 1788 2584 
Q 1594 2584 1400 2446 
Q 1206 2309 994 2044 
L 994 78 
Q 994 53 981 36 
Q 969 19 941 6 
Q 913 -6 863 -12 
Q 813 -19 734 -19 
Q 659 -19 609 -12 
Q 559 -6 529 6 
Q 500 19 489 36 
Q 478 53 478 78 
L 478 2891 
Q 478 2916 487 2933 
Q 497 2950 525 2964 
Q 553 2978 597 2983 
Q 641 2988 713 2988 
Q 781 2988 826 2983 
Q 872 2978 897 2964 
Q 922 2950 933 2933 
Q 944 2916 944 2891 
L 944 2519 
Q 1181 2784 1417 2907 
Q 1653 3031 1894 3031 
Q 2175 3031 2367 2936 
Q 2559 2841 2678 2681 
Q 2797 2522 2848 2308 
Q 2900 2094 2900 1794 
L 2900 78 
z
" transform="scale(0.015625)"/>
      </defs>
      <use xlink:href="#DejaVuSans-Oblique-5a" transform="translate(0 0.09375)"/>
      <use xlink:href="#DejaVuSans-Oblique-61" transform="translate(69.462891 -16.3125) scale(0.7)"/>
      <use xlink:href="#Calibri-20" transform="translate(115.092773 0.09375)"/>
      <use xlink:href="#Calibri-28" transform="translate(136.575195 0.09375)"/>
      <use xlink:href="#Calibri-6e" transform="translate(166.897461 0.09375)"/>
      <use xlink:href="#Calibri-6d" transform="translate(219.436523 0.09375)"/>
      <use xlink:href="#Calibri-29" transform="translate(299.319336 0.09375)"/>
     </g>
    </g>
   </g>
   <g id="patch_3">
    <path d="M 57.6 307.584 
L 57.6 41.472 
" style="fill: none; stroke: #000000; stroke-width: 0.8; stroke-linejoin: miter; stroke-linecap: square"/>
   </g>
   <g id="patch_4">
    <path d="M 343.296 307.584 
L 343.296 41.472 
" style="fill: none; stroke: #000000; stroke-width: 0.8; stroke-linejoin: miter; stroke-linecap: square"/>
   </g>
   <g id="patch_5">
    <path d="M 57.6 307.584 
L 343.296 307.584 
" style="fill: none; stroke: #000000; stroke-width: 0.8; stroke-linejoin: miter; stroke-linecap: square"/>
   </g>
   <g id="patch_6">
    <path d="M 57.6 41.472 
L 343.296 41.472 
" style="fill: none; stroke: #000000; stroke-width: 0.8; stroke-linejoin: miter; stroke-linecap: square"/>
   </g>
   <g id="text_22">
    <!-- $\theta_m$ = 86 -->
    <g transform="translate(182.298 35.472) scale(0.1 -0.1)">
     <defs>
      <path id="DejaVuSans-Oblique-3b8" d="M 2913 2219 
L 925 2219 
Q 791 1284 928 888 
Q 1100 400 1566 400 
Q 2034 400 2391 891 
Q 2703 1322 2913 2219 
z
M 3009 2750 
Q 3094 3638 2984 3950 
Q 2813 4444 2353 4444 
Q 1875 4444 1525 3956 
Q 1250 3563 1034 2750 
L 3009 2750 
z
M 2444 4913 
Q 3194 4913 3494 4250 
Q 3794 3591 3566 2422 
Q 3341 1256 2781 594 
Q 2225 -72 1475 -72 
Q 722 -72 425 594 
Q 128 1256 353 2422 
Q 581 3591 1134 4250 
Q 1691 4913 2444 4913 
z
" transform="scale(0.015625)"/>
      <path id="DejaVuSans-Oblique-6d" d="M 5747 2113 
L 5338 0 
L 4763 0 
L 5166 2094 
Q 5191 2228 5203 2325 
Q 5216 2422 5216 2491 
Q 5216 2772 5059 2928 
Q 4903 3084 4622 3084 
Q 4203 3084 3875 2770 
Q 3547 2456 3450 1953 
L 3066 0 
L 2491 0 
L 2900 2094 
Q 2925 2209 2937 2307 
Q 2950 2406 2950 2484 
Q 2950 2769 2794 2926 
Q 2638 3084 2363 3084 
Q 1938 3084 1609 2770 
Q 1281 2456 1184 1953 
L 800 0 
L 225 0 
L 909 3500 
L 1484 3500 
L 1375 2956 
Q 1609 3263 1923 3423 
Q 2238 3584 2597 3584 
Q 2978 3584 3223 3384 
Q 3469 3184 3519 2828 
Q 3781 3197 4126 3390 
Q 4472 3584 4856 3584 
Q 5306 3584 5551 3325 
Q 5797 3066 5797 2591 
Q 5797 2488 5784 2364 
Q 5772 2241 5747 2113 
z
" transform="scale(0.015625)"/>
      <path id="Calibri-3d" d="M 2891 2409 
Q 2891 2284 2855 2236 
Q 2819 2188 2772 2188 
L 409 2188 
Q 363 2188 328 2236 
Q 294 2284 294 2409 
Q 294 2522 325 2575 
Q 356 2628 409 2628 
L 2772 2628 
Q 2828 2628 2859 2575 
Q 2891 2522 2891 2409 
z
M 2891 1194 
Q 2891 1069 2855 1022 
Q 2819 975 2772 975 
L 409 975 
Q 363 975 328 1022 
Q 294 1069 294 1194 
Q 294 1309 325 1362 
Q 356 1416 409 1416 
L 2772 1416 
Q 2828 1416 2859 1362 
Q 2891 1309 2891 1194 
z
" transform="scale(0.015625)"/>
      <path id="Calibri-b0" d="M 1847 3541 
Q 1847 3388 1789 3253 
Q 1731 3119 1626 3017 
Q 1522 2916 1380 2859 
Q 1238 2803 1072 2803 
Q 906 2803 770 2854 
Q 634 2906 534 3000 
Q 434 3094 378 3225 
Q 322 3356 322 3516 
Q 322 3675 381 3811 
Q 441 3947 545 4044 
Q 650 4141 790 4197 
Q 931 4253 1097 4253 
Q 1259 4253 1396 4200 
Q 1534 4147 1634 4055 
Q 1734 3963 1790 3831 
Q 1847 3700 1847 3541 
z
M 1453 3528 
Q 1453 3613 1425 3686 
Q 1397 3759 1347 3812 
Q 1297 3866 1228 3895 
Q 1159 3925 1078 3925 
Q 1000 3925 933 3895 
Q 866 3866 816 3812 
Q 766 3759 737 3687 
Q 709 3616 709 3534 
Q 709 3444 737 3369 
Q 766 3294 817 3241 
Q 869 3188 939 3158 
Q 1009 3128 1091 3128 
Q 1166 3128 1233 3159 
Q 1300 3191 1348 3245 
Q 1397 3300 1425 3372 
Q 1453 3444 1453 3528 
z
M 0 4044 
L 0 4044 
z
" transform="scale(0.015625)"/>
     </defs>
     <use xlink:href="#DejaVuSans-Oblique-3b8" transform="translate(0 0.234375)"/>
     <use xlink:href="#DejaVuSans-Oblique-6d" transform="translate(61.181641 -16.171875) scale(0.7)"/>
     <use xlink:href="#Calibri-20" transform="translate(132.104492 0.234375)"/>
     <use xlink:href="#Calibri-3d" transform="translate(154.711914 0.234375)"/>
     <use xlink:href="#Calibri-20" transform="translate(204.516602 0.234375)"/>
     <use xlink:href="#Calibri-38" transform="translate(227.124023 0.234375)"/>
     <use xlink:href="#Calibri-36" transform="translate(277.807617 0.234375)"/>
     <use xlink:href="#Calibri-b0" transform="translate(328.491211 0.234375)"/>
    </g>
   </g>
  </g>
  <g id="axes_2">
   <g id="patch_7">
    <path d="M 361.152 307.584 
L 374.4576 307.584 
L 374.4576 41.472 
L 361.152 41.472 
z
" style="fill: #ffffff"/>
   </g>
   <g id="QuadMesh_1">
    <path d="M 361.152 307.584 
L 374.4576 307.584 
L 374.4576 280.9728 
L 361.152 280.9728 
L 361.152 307.584 
" clip-path="url(#p048d7bcff2)" style="fill: #0000b6"/>
    <path d="M 361.152 280.9728 
L 374.4576 280.9728 
L 374.4576 254.3616 
L 361.152 254.3616 
L 361.152 280.9728 
" clip-path="url(#p048d7bcff2)" style="fill: #0018ff"/>
    <path d="M 361.152 254.3616 
L 374.4576 254.3616 
L 374.4576 227.7504 
L 361.152 227.7504 
L 361.152 254.3616 
" clip-path="url(#p048d7bcff2)" style="fill: #0080ff"/>
    <path d="M 361.152 227.7504 
L 374.4576 227.7504 
L 374.4576 201.1392 
L 361.152 201.1392 
L 361.152 227.7504 
" clip-path="url(#p048d7bcff2)" style="fill: #00e4f8"/>
    <path d="M 361.152 201.1392 
L 374.4576 201.1392 
L 374.4576 174.528 
L 361.152 174.528 
L 361.152 201.1392 
" clip-path="url(#p048d7bcff2)" style="fill: #53ffa4"/>
    <path d="M 361.152 174.528 
L 374.4576 174.528 
L 374.4576 147.9168 
L 361.152 147.9168 
L 361.152 174.528 
" clip-path="url(#p048d7bcff2)" style="fill: #a4ff53"/>
    <path d="M 361.152 147.9168 
L 374.4576 147.9168 
L 374.4576 121.3056 
L 361.152 121.3056 
L 361.152 147.9168 
" clip-path="url(#p048d7bcff2)" style="fill: #f8f500"/>
    <path d="M 361.152 121.3056 
L 374.4576 121.3056 
L 374.4576 94.6944 
L 361.152 94.6944 
L 361.152 121.3056 
" clip-path="url(#p048d7bcff2)" style="fill: #ff9400"/>
    <path d="M 361.152 94.6944 
L 374.4576 94.6944 
L 374.4576 68.0832 
L 361.152 68.0832 
L 361.152 94.6944 
" clip-path="url(#p048d7bcff2)" style="fill: #ff3800"/>
    <path d="M 361.152 68.0832 
L 374.4576 68.0832 
L 374.4576 41.472 
L 361.152 41.472 
L 361.152 68.0832 
" clip-path="url(#p048d7bcff2)" style="fill: #b60000"/>
   </g>
   <g id="matplotlib.axis_3"/>
   <g id="matplotlib.axis_4">
    <g id="ytick_9">
     <g id="line2d_20">
      <defs>
       <path id="m653e9eb6fb" d="M 0 0 
L 3.5 0 
" style="stroke: #000000; stroke-width: 0.8"/>
      </defs>
      <g>
       <use xlink:href="#m653e9eb6fb" x="374.4576" y="307.584" style="stroke: #000000; stroke-width: 0.8"/>
      </g>
     </g>
     <g id="text_23">
      <!-- 0 -->
      <g transform="translate(381.4576 310.984781) scale(0.1 -0.1)">
       <use xlink:href="#Calibri-30"/>
      </g>
     </g>
    </g>
    <g id="ytick_10">
     <g id="line2d_21">
      <g>
       <use xlink:href="#m653e9eb6fb" x="374.4576" y="280.9728" style="stroke: #000000; stroke-width: 0.8"/>
      </g>
     </g>
     <g id="text_24">
      <!-- 0.1 -->
      <g transform="translate(381.4576 284.373581) scale(0.1 -0.1)">
       <use xlink:href="#Calibri-30"/>
       <use xlink:href="#Calibri-2e" x="50.683594"/>
       <use xlink:href="#Calibri-31" x="75.927734"/>
      </g>
     </g>
    </g>
    <g id="ytick_11">
     <g id="line2d_22">
      <g>
       <use xlink:href="#m653e9eb6fb" x="374.4576" y="254.3616" style="stroke: #000000; stroke-width: 0.8"/>
      </g>
     </g>
     <g id="text_25">
      <!-- 0.2 -->
      <g transform="translate(381.4576 257.762381) scale(0.1 -0.1)">
       <use xlink:href="#Calibri-30"/>
       <use xlink:href="#Calibri-2e" x="50.683594"/>
       <use xlink:href="#Calibri-32" x="75.927734"/>
      </g>
     </g>
    </g>
    <g id="ytick_12">
     <g id="line2d_23">
      <g>
       <use xlink:href="#m653e9eb6fb" x="374.4576" y="227.7504" style="stroke: #000000; stroke-width: 0.8"/>
      </g>
     </g>
     <g id="text_26">
      <!-- 0.3 -->
      <g transform="translate(381.4576 231.151181) scale(0.1 -0.1)">
       <use xlink:href="#Calibri-30"/>
       <use xlink:href="#Calibri-2e" x="50.683594"/>
       <use xlink:href="#Calibri-33" x="75.927734"/>
      </g>
     </g>
    </g>
    <g id="ytick_13">
     <g id="line2d_24">
      <g>
       <use xlink:href="#m653e9eb6fb" x="374.4576" y="201.1392" style="stroke: #000000; stroke-width: 0.8"/>
      </g>
     </g>
     <g id="text_27">
      <!-- 0.4 -->
      <g transform="translate(381.4576 204.539981) scale(0.1 -0.1)">
       <use xlink:href="#Calibri-30"/>
       <use xlink:href="#Calibri-2e" x="50.683594"/>
       <use xlink:href="#Calibri-34" x="75.927734"/>
      </g>
     </g>
    </g>
    <g id="ytick_14">
     <g id="line2d_25">
      <g>
       <use xlink:href="#m653e9eb6fb" x="374.4576" y="174.528" style="stroke: #000000; stroke-width: 0.8"/>
      </g>
     </g>
     <g id="text_28">
      <!-- 0.5 -->
      <g transform="translate(381.4576 177.928781) scale(0.1 -0.1)">
       <use xlink:href="#Calibri-30"/>
       <use xlink:href="#Calibri-2e" x="50.683594"/>
       <use xlink:href="#Calibri-35" x="75.927734"/>
      </g>
     </g>
    </g>
    <g id="ytick_15">
     <g id="line2d_26">
      <g>
       <use xlink:href="#m653e9eb6fb" x="374.4576" y="147.9168" style="stroke: #000000; stroke-width: 0.8"/>
      </g>
     </g>
     <g id="text_29">
      <!-- 0.6 -->
      <g transform="translate(381.4576 151.317581) scale(0.1 -0.1)">
       <use xlink:href="#Calibri-30"/>
       <use xlink:href="#Calibri-2e" x="50.683594"/>
       <use xlink:href="#Calibri-36" x="75.927734"/>
      </g>
     </g>
    </g>
    <g id="ytick_16">
     <g id="line2d_27">
      <g>
       <use xlink:href="#m653e9eb6fb" x="374.4576" y="121.3056" style="stroke: #000000; stroke-width: 0.8"/>
      </g>
     </g>
     <g id="text_30">
      <!-- 0.7 -->
      <g transform="translate(381.4576 124.706381) scale(0.1 -0.1)">
       <use xlink:href="#Calibri-30"/>
       <use xlink:href="#Calibri-2e" x="50.683594"/>
       <use xlink:href="#Calibri-37" x="75.927734"/>
      </g>
     </g>
    </g>
    <g id="ytick_17">
     <g id="line2d_28">
      <g>
       <use xlink:href="#m653e9eb6fb" x="374.4576" y="94.6944" style="stroke: #000000; stroke-width: 0.8"/>
      </g>
     </g>
     <g id="text_31">
      <!-- 0.8 -->
      <g transform="translate(381.4576 98.095181) scale(0.1 -0.1)">
       <use xlink:href="#Calibri-30"/>
       <use xlink:href="#Calibri-2e" x="50.683594"/>
       <use xlink:href="#Calibri-38" x="75.927734"/>
      </g>
     </g>
    </g>
    <g id="ytick_18">
     <g id="line2d_29">
      <g>
       <use xlink:href="#m653e9eb6fb" x="374.4576" y="68.0832" style="stroke: #000000; stroke-width: 0.8"/>
      </g>
     </g>
     <g id="text_32">
      <!-- 0.9 -->
      <g transform="translate(381.4576 71.483981) scale(0.1 -0.1)">
       <use xlink:href="#Calibri-30"/>
       <use xlink:href="#Calibri-2e" x="50.683594"/>
       <use xlink:href="#Calibri-39" x="75.927734"/>
      </g>
     </g>
    </g>
    <g id="ytick_19">
     <g id="line2d_30">
      <g>
       <use xlink:href="#m653e9eb6fb" x="374.4576" y="41.472" style="stroke: #000000; stroke-width: 0.8"/>
      </g>
     </g>
     <g id="text_33">
      <!-- 1.0 -->
      <g transform="translate(381.4576 44.872781) scale(0.1 -0.1)">
       <use xlink:href="#Calibri-31"/>
       <use xlink:href="#Calibri-2e" x="50.683594"/>
       <use xlink:href="#Calibri-30" x="75.927734"/>
      </g>
     </g>
    </g>
   </g>
   <g id="LineCollection_1"/>
   <g id="patch_8">
    <path d="M 361.152 307.584 
L 367.8048 307.584 
L 374.4576 307.584 
L 374.4576 41.472 
L 367.8048 41.472 
L 361.152 41.472 
L 361.152 307.584 
z
" style="fill: none; stroke: #000000; stroke-width: 0.8; stroke-linejoin: miter; stroke-linecap: square"/>
   </g>
   <g id="text_34">
    <!-- $\mathit{E}_{\mathrm{dis}}$/$\mathit{E}_{\mathrm{i}}$ -->
    <g transform="translate(353.2548 35.472) scale(0.1 -0.1)">
     <defs>
      <path id="DejaVuSans-Oblique-45" d="M 1081 4666 
L 4031 4666 
L 3928 4134 
L 1606 4134 
L 1338 2753 
L 3566 2753 
L 3463 2222 
L 1234 2222 
L 909 531 
L 3284 531 
L 3181 0 
L 172 0 
L 1081 4666 
z
" transform="scale(0.015625)"/>
      <path id="DejaVuSans-64" d="M 2906 2969 
L 2906 4863 
L 3481 4863 
L 3481 0 
L 2906 0 
L 2906 525 
Q 2725 213 2448 61 
Q 2172 -91 1784 -91 
Q 1150 -91 751 415 
Q 353 922 353 1747 
Q 353 2572 751 3078 
Q 1150 3584 1784 3584 
Q 2172 3584 2448 3432 
Q 2725 3281 2906 2969 
z
M 947 1747 
Q 947 1113 1208 752 
Q 1469 391 1925 391 
Q 2381 391 2643 752 
Q 2906 1113 2906 1747 
Q 2906 2381 2643 2742 
Q 2381 3103 1925 3103 
Q 1469 3103 1208 2742 
Q 947 2381 947 1747 
z
" transform="scale(0.015625)"/>
      <path id="DejaVuSans-69" d="M 603 3500 
L 1178 3500 
L 1178 0 
L 603 0 
L 603 3500 
z
M 603 4863 
L 1178 4863 
L 1178 4134 
L 603 4134 
L 603 4863 
z
" transform="scale(0.015625)"/>
      <path id="DejaVuSans-73" d="M 2834 3397 
L 2834 2853 
Q 2591 2978 2328 3040 
Q 2066 3103 1784 3103 
Q 1356 3103 1142 2972 
Q 928 2841 928 2578 
Q 928 2378 1081 2264 
Q 1234 2150 1697 2047 
L 1894 2003 
Q 2506 1872 2764 1633 
Q 3022 1394 3022 966 
Q 3022 478 2636 193 
Q 2250 -91 1575 -91 
Q 1294 -91 989 -36 
Q 684 19 347 128 
L 347 722 
Q 666 556 975 473 
Q 1284 391 1588 391 
Q 1994 391 2212 530 
Q 2431 669 2431 922 
Q 2431 1156 2273 1281 
Q 2116 1406 1581 1522 
L 1381 1569 
Q 847 1681 609 1914 
Q 372 2147 372 2553 
Q 372 3047 722 3315 
Q 1072 3584 1716 3584 
Q 2034 3584 2315 3537 
Q 2597 3491 2834 3397 
z
" transform="scale(0.015625)"/>
     </defs>
     <use xlink:href="#DejaVuSans-Oblique-45" transform="translate(0 0.09375)"/>
     <use xlink:href="#DejaVuSans-64" transform="translate(63.183594 -16.3125) scale(0.7)"/>
     <use xlink:href="#DejaVuSans-69" transform="translate(107.617188 -16.3125) scale(0.7)"/>
     <use xlink:href="#DejaVuSans-73" transform="translate(127.06543 -16.3125) scale(0.7)"/>
     <use xlink:href="#Calibri-2f" transform="translate(166.269531 0.09375)"/>
     <use xlink:href="#DejaVuSans-Oblique-45" transform="translate(204.892578 0.09375)"/>
     <use xlink:href="#DejaVuSans-69" transform="translate(268.076172 -16.3125) scale(0.7)"/>
    </g>
   </g>
  </g>
 </g>
 <defs>
  <clipPath id="p4ec466f373">
   <rect x="57.6" y="41.472" width="285.696" height="266.112"/>
  </clipPath>
  <clipPath id="p048d7bcff2">
   <rect x="361.152" y="41.472" width="13.3056" height="266.112"/>
  </clipPath>
 </defs>
</svg>
