<?xml version="1.0" encoding="utf-8" standalone="no"?>
<!DOCTYPE svg PUBLIC "-//W3C//DTD SVG 1.1//EN"
  "http://www.w3.org/Graphics/SVG/1.1/DTD/svg11.dtd">
<svg xmlns:xlink="http://www.w3.org/1999/xlink" width="460.8pt" height="345.6pt" viewBox="0 0 460.8 345.6" xmlns="http://www.w3.org/2000/svg" version="1.1">
 <metadata>
  <rdf:RDF xmlns:dc="http://purl.org/dc/elements/1.1/" xmlns:cc="http://creativecommons.org/ns#" xmlns:rdf="http://www.w3.org/1999/02/22-rdf-syntax-ns#">
   <cc:Work>
    <dc:type rdf:resource="http://purl.org/dc/dcmitype/StillImage"/>
    <dc:date>2024-01-22T08:28:09.915582</dc:date>
    <dc:format>image/svg+xml</dc:format>
    <dc:creator>
     <cc:Agent>
      <dc:title>Matplotlib v3.7.1, https://matplotlib.org/</dc:title>
     </cc:Agent>
    </dc:creator>
   </cc:Work>
  </rdf:RDF>
 </metadata>
 <defs>
  <style type="text/css">*{stroke-linejoin: round; stroke-linecap: butt}</style>
 </defs>
 <g id="figure_1">
  <g id="patch_1">
   <path d="M 0 345.6 
L 460.8 345.6 
L 460.8 0 
L 0 0 
z
" style="fill: #ffffff"/>
  </g>
  <g id="axes_1">
   <g id="patch_2">
    <path d="M 57.6 307.584 
L 343.296 307.584 
L 343.296 41.472 
L 57.6 41.472 
z
" style="fill: #ffffff"/>
   </g>
   <g id="PathCollection_1">
    <path clip-path="url(#p94467ef7f4)" style="fill: #0000b6"/>
   </g>
   <g id="PathCollection_2">
    <path clip-path="url(#p94467ef7f4)" style="fill: #0018ff"/>
   </g>
   <g id="PathCollection_3">
    <path clip-path="url(#p94467ef7f4)" style="fill: #0080ff"/>
   </g>
   <g id="PathCollection_4">
    <path clip-path="url(#p94467ef7f4)" style="fill: #00e4f8"/>
   </g>
   <g id="PathCollection_5">
    <path d="M 57.62857 90.538627 
L 57.797231 90.479079 
L 58.612452 90.189504 
L 59.909885 89.714084 
L 60.333426 89.562514 
L 61.070024 89.291286 
L 61.22326 89.236332 
L 61.819141 89.01588 
L 62.851272 88.630789 
L 64.409509 88.0416 
L 64.883036 87.861534 
L 64.998494 87.816767 
L 65.867464 87.480653 
L 66.937112 87.06732 
L 67.197742 86.965156 
L 67.278892 86.932481 
L 68.999677 86.254547 
L 69.57011 86.023089 
L 70.031745 85.84033 
L 71.008548 85.443108 
L 71.572597 85.218663 
L 72.801044 84.7152 
L 72.860974 84.690349 
L 72.871233 84.685983 
L 74.135361 84.160606 
L 74.767234 83.890359 
L 75.683763 83.506422 
L 76.183204 83.291702 
L 76.687736 83.07987 
L 78.34665 82.36308 
L 78.459742 82.313788 
L 78.910724 82.11773 
L 80.415412 81.451048 
L 80.507996 81.410273 
L 80.556155 81.3888 
L 82.542352 80.494191 
L 82.717083 80.41452 
L 84.279824 79.695679 
L 84.791375 79.453855 
L 85.276809 79.229399 
L 86.257372 78.764756 
L 86.787852 78.51813 
L 87.741659 78.0624 
L 88.072459 77.902439 
L 88.139455 77.869263 
L 89.283933 77.314498 
L 90.171505 76.872652 
L 90.860582 76.53581 
L 91.500682 76.215382 
L 91.767905 76.084433 
L 92.511338 75.71028 
L 93.305437 75.307036 
L 94.417098 74.736 
L 95.054819 74.406351 
L 95.245674 74.305845 
L 96.281903 73.76172 
L 96.697845 73.541334 
L 96.857028 73.454817 
L 97.561886 73.079298 
L 98.151002 72.758295 
L 99.143079 72.226698 
L 100.253257 71.616456 
L 100.324473 71.578083 
L 100.630197 71.4096 
L 101.574831 70.882632 
L 102.228968 70.508529 
L 103.078266 70.030515 
L 103.33993 69.876112 
L 103.33993 68.0832 
L 103.33993 64.7568 
L 103.33993 61.4304 
L 103.33993 58.104 
L 103.33993 54.7776 
L 103.33993 51.4512 
L 103.33993 48.1248 
L 103.33993 44.7984 
L 103.33993 41.472 
L 101.816218 41.472 
L 100.292506 41.472 
L 98.768794 41.472 
L 97.245082 41.472 
L 95.72137 41.472 
L 94.197658 41.472 
L 92.673946 41.472 
L 91.150234 41.472 
L 89.626522 41.472 
L 88.10281 41.472 
L 86.579098 41.472 
L 85.055386 41.472 
L 83.531674 41.472 
L 82.007962 41.472 
L 80.48425 41.472 
L 78.960538 41.472 
L 77.436826 41.472 
L 75.913114 41.472 
L 74.389402 41.472 
L 72.86569 41.472 
L 71.341978 41.472 
L 69.818266 41.472 
L 68.294554 41.472 
L 66.770842 41.472 
L 65.24713 41.472 
L 63.723418 41.472 
L 62.199706 41.472 
L 60.675994 41.472 
L 59.152282 41.472 
L 57.62857 41.472 
L 57.62857 44.7984 
L 57.62857 48.1248 
L 57.62857 51.4512 
L 57.62857 54.7776 
L 57.62857 58.104 
L 57.62857 61.4304 
L 57.62857 64.7568 
L 57.62857 68.0832 
L 57.62857 71.4096 
L 57.62857 74.736 
L 57.62857 78.0624 
L 57.62857 81.3888 
L 57.62857 84.7152 
L 57.62857 88.0416 
" clip-path="url(#p94467ef7f4)" style="fill: #53ffa4"/>
   </g>
   <g id="PathCollection_6">
    <path d="M 103.33993 69.876112 
L 103.078266 70.030515 
L 102.228968 70.508529 
L 101.574831 70.882632 
L 100.630197 71.4096 
L 100.324473 71.578083 
L 100.253257 71.616456 
L 99.143079 72.226698 
L 98.151002 72.758295 
L 97.561886 73.079298 
L 96.857028 73.454817 
L 96.697845 73.541334 
L 96.281903 73.76172 
L 95.245674 74.305845 
L 95.054819 74.406351 
L 94.417098 74.736 
L 93.305437 75.307036 
L 92.511338 75.71028 
L 91.767905 76.084433 
L 91.500682 76.215382 
L 90.860582 76.53581 
L 90.171505 76.872652 
L 89.283933 77.314498 
L 88.139455 77.869263 
L 88.072459 77.902439 
L 87.741659 78.0624 
L 86.787852 78.51813 
L 86.257372 78.764756 
L 85.276809 79.229399 
L 84.791375 79.453855 
L 84.279824 79.695679 
L 82.717083 80.41452 
L 82.542352 80.494191 
L 80.556155 81.3888 
L 80.507996 81.410273 
L 80.415412 81.451048 
L 78.910724 82.11773 
L 78.459742 82.313788 
L 78.34665 82.36308 
L 76.687736 83.07987 
L 76.183204 83.291702 
L 75.683763 83.506422 
L 74.767234 83.890359 
L 74.135361 84.160606 
L 72.871233 84.685983 
L 72.860974 84.690349 
L 72.801044 84.7152 
L 71.572597 85.218663 
L 71.008548 85.443108 
L 70.031745 85.84033 
L 69.57011 86.023089 
L 68.999677 86.254547 
L 67.278892 86.932481 
L 67.197742 86.965156 
L 66.937112 87.06732 
L 65.867464 87.480653 
L 64.998494 87.816767 
L 64.883036 87.861534 
L 64.409509 88.0416 
L 62.851272 88.630789 
L 61.819141 89.01588 
L 61.22326 89.236332 
L 61.070024 89.291286 
L 60.333426 89.562514 
L 59.909885 89.714084 
L 58.612452 90.189504 
L 57.797231 90.479079 
L 57.62857 90.538627 
L 57.62857 91.368 
L 57.62857 94.6944 
L 57.62857 98.0208 
L 57.62857 101.3472 
L 57.62857 104.6736 
L 57.62857 108 
L 57.62857 111.3264 
L 57.62857 114.6528 
L 57.62857 117.9792 
L 57.62857 121.3056 
L 57.62857 124.632 
L 57.62857 127.9584 
L 57.62857 131.2848 
L 57.62857 134.6112 
L 57.62857 137.9376 
L 57.62857 141.264 
L 57.62857 144.5904 
L 57.62857 147.9168 
L 57.62857 151.150121 
L 57.646414 151.149154 
L 59.072316 151.068627 
L 59.237212 151.057789 
L 60.62585 150.978923 
L 60.727408 150.972225 
L 62.041372 150.897543 
L 62.367939 150.875931 
L 63.639937 150.803222 
L 63.809029 150.791992 
L 65.009003 150.723347 
L 65.500253 150.690609 
L 66.653406 150.624263 
L 66.891296 150.608353 
L 67.975164 150.545945 
L 68.634203 150.501715 
L 69.666238 150.441945 
L 69.974229 150.421201 
L 70.939812 150.365237 
L 71.769842 150.309134 
L 72.678412 150.256164 
L 73.057851 150.230424 
L 73.902898 150.18112 
L 74.907225 150.112746 
L 75.689908 150.066809 
L 76.142182 150.035906 
L 76.864373 149.993486 
L 78.046408 149.912427 
L 78.700705 149.873764 
L 79.227247 149.837523 
L 79.824186 149.802221 
L 81.187452 149.708045 
L 81.710778 149.67691 
L 82.313069 149.635147 
L 82.782281 149.607209 
L 84.33042 149.499465 
L 84.720104 149.476119 
L 85.399674 149.428646 
L 85.738603 149.408324 
L 87.475377 149.286541 
L 87.728659 149.271261 
L 88.487089 149.217877 
L 88.693092 149.205439 
L 90.622393 149.069124 
L 90.736416 149.062197 
L 91.575341 149.002693 
L 91.645686 148.998416 
L 93.153219 148.89108 
L 93.70739 148.851308 
L 93.854432 148.840111 
L 94.774056 148.773423 
L 96.528357 148.646531 
L 97.433812 148.577028 
L 98.091859 148.528928 
L 99.344716 148.437587 
L 99.760691 148.407352 
L 101.415957 148.278742 
L 102.156308 148.224332 
L 103.23777 148.139823 
L 103.33993 148.131067 
L 103.33993 147.9168 
L 103.33993 144.5904 
L 103.33993 141.264 
L 103.33993 137.9376 
L 103.33993 134.6112 
L 103.33993 131.2848 
L 103.33993 127.9584 
L 103.33993 124.632 
L 103.33993 121.3056 
L 103.33993 117.9792 
L 103.33993 114.6528 
L 103.33993 111.3264 
L 103.33993 108 
L 103.33993 104.6736 
L 103.33993 101.3472 
L 103.33993 98.0208 
L 103.33993 94.6944 
L 103.33993 91.368 
L 103.33993 88.0416 
L 103.33993 84.7152 
L 103.33993 81.3888 
L 103.33993 78.0624 
L 103.33993 74.736 
L 103.33993 71.4096 
" clip-path="url(#p94467ef7f4)" style="fill: #a4ff53"/>
   </g>
   <g id="PathCollection_7">
    <path d="M 103.33993 148.131067 
L 103.23777 148.139823 
L 102.156308 148.224332 
L 101.415957 148.278742 
L 99.760691 148.407352 
L 99.344716 148.437587 
L 98.091859 148.528928 
L 97.433812 148.577028 
L 96.528357 148.646531 
L 94.774056 148.773423 
L 93.854432 148.840111 
L 93.70739 148.851308 
L 93.153219 148.89108 
L 91.645686 148.998416 
L 91.575341 149.002693 
L 90.736416 149.062197 
L 90.622393 149.069124 
L 88.693092 149.205439 
L 88.487089 149.217877 
L 87.728659 149.271261 
L 87.475377 149.286541 
L 85.738603 149.408324 
L 85.399674 149.428646 
L 84.720104 149.476119 
L 84.33042 149.499465 
L 82.782281 149.607209 
L 82.313069 149.635147 
L 81.710778 149.67691 
L 81.187452 149.708045 
L 79.824186 149.802221 
L 79.227247 149.837523 
L 78.700705 149.873764 
L 78.046408 149.912427 
L 76.864373 149.993486 
L 76.142182 150.035906 
L 75.689908 150.066809 
L 74.907225 150.112746 
L 73.902898 150.18112 
L 73.057851 150.230424 
L 72.678412 150.256164 
L 71.769842 150.309134 
L 70.939812 150.365237 
L 69.974229 150.421201 
L 69.666238 150.441945 
L 68.634203 150.501715 
L 67.975164 150.545945 
L 66.891296 150.608353 
L 66.653406 150.624263 
L 65.500253 150.690609 
L 65.009003 150.723347 
L 63.809029 150.791992 
L 63.639937 150.803222 
L 62.367939 150.875931 
L 62.041372 150.897543 
L 60.727408 150.972225 
L 60.62585 150.978923 
L 59.237212 151.057789 
L 59.072316 151.068627 
L 57.646414 151.149154 
L 57.62857 151.150121 
L 57.62857 151.2432 
L 57.62857 154.5696 
L 57.62857 157.896 
L 57.62857 161.2224 
L 57.62857 164.5488 
L 57.62857 167.8752 
L 57.62857 171.2016 
L 57.62857 174.528 
L 57.62857 177.8544 
L 57.62857 181.1808 
L 57.62857 184.5072 
L 57.62857 187.8336 
L 57.62857 191.16 
L 57.62857 194.4864 
L 57.62857 197.8128 
L 57.62857 198.841732 
L 57.828548 198.866776 
L 58.629899 198.953209 
L 59.733488 199.081625 
L 60.421067 199.156377 
L 60.942499 199.217402 
L 61.527087 199.281188 
L 62.948995 199.448567 
L 63.403565 199.498565 
L 64.057971 199.576047 
L 64.421084 199.616132 
L 66.168505 199.824245 
L 66.384632 199.848298 
L 67.175017 199.942986 
L 67.311789 199.958264 
L 69.026603 200.16492 
L 69.331598 200.201436 
L 69.48392 200.22028 
L 70.455951 200.337997 
L 72.018626 200.52733 
L 72.468821 200.581909 
L 73.983493 200.77215 
L 74.698368 200.859813 
L 74.903443 200.884976 
L 76.903187 201.1392 
L 77.371278 201.198472 
L 77.524533 201.21851 
L 79.749179 201.502736 
L 80.039724 201.541169 
L 81.081228 201.679027 
L 81.75663 201.768467 
L 82.700349 201.890938 
L 84.360922 202.11348 
L 84.594838 202.144618 
L 84.615569 202.147571 
L 85.4734 202.262476 
L 85.576687 202.277247 
L 87.464925 202.531759 
L 87.743513 202.571947 
L 88.444076 202.666973 
L 88.828107 202.722589 
L 90.330966 202.927734 
L 90.873482 203.006994 
L 91.412925 203.081102 
L 92.084902 203.179666 
L 93.192821 203.332848 
L 94.005552 203.453119 
L 94.379879 203.50521 
L 95.347288 203.648947 
L 96.050344 203.74742 
L 97.139806 203.910751 
L 97.344872 203.939662 
L 98.615492 204.130929 
L 98.903381 204.171784 
L 100.276329 204.38034 
L 100.307829 204.384841 
L 100.837291 204.4656 
L 101.752874 204.603884 
L 101.889653 204.625916 
L 103.269604 204.83625 
L 103.33993 204.846871 
L 103.33993 204.4656 
L 103.33993 201.1392 
L 103.33993 197.8128 
L 103.33993 194.4864 
L 103.33993 191.16 
L 103.33993 187.8336 
L 103.33993 184.5072 
L 103.33993 181.1808 
L 103.33993 177.8544 
L 103.33993 174.528 
L 103.33993 171.2016 
L 103.33993 167.8752 
L 103.33993 164.5488 
L 103.33993 161.2224 
L 103.33993 157.896 
L 103.33993 154.5696 
L 103.33993 151.2432 
" clip-path="url(#p94467ef7f4)" style="fill: #f8f500"/>
   </g>
   <g id="PathCollection_8">
    <path d="M 103.33993 204.846871 
L 103.269604 204.83625 
L 101.889653 204.625916 
L 101.752874 204.603884 
L 100.837291 204.4656 
L 100.307829 204.384841 
L 100.276329 204.38034 
L 98.903381 204.171784 
L 98.615492 204.130929 
L 97.344872 203.939662 
L 97.139806 203.910751 
L 96.050344 203.74742 
L 95.347288 203.648947 
L 94.379879 203.50521 
L 94.005552 203.453119 
L 93.192821 203.332848 
L 92.084902 203.179666 
L 91.412925 203.081102 
L 90.873482 203.006994 
L 90.330966 202.927734 
L 88.828107 202.722589 
L 88.444076 202.666973 
L 87.743513 202.571947 
L 87.464925 202.531759 
L 85.576687 202.277247 
L 85.4734 202.262476 
L 84.615569 202.147571 
L 84.594838 202.144618 
L 84.360922 202.11348 
L 82.700349 201.890938 
L 81.75663 201.768467 
L 81.081228 201.679027 
L 80.039724 201.541169 
L 79.749179 201.502736 
L 77.524533 201.21851 
L 77.371278 201.198472 
L 76.903187 201.1392 
L 74.903443 200.884976 
L 74.698368 200.859813 
L 73.983493 200.77215 
L 72.468821 200.581909 
L 72.018626 200.52733 
L 70.455951 200.337997 
L 69.48392 200.22028 
L 69.331598 200.201436 
L 69.026603 200.16492 
L 67.311789 199.958264 
L 67.175017 199.942986 
L 66.384632 199.848298 
L 66.168505 199.824245 
L 64.421084 199.616132 
L 64.057971 199.576047 
L 63.403565 199.498565 
L 62.948995 199.448567 
L 61.527087 199.281188 
L 60.942499 199.217402 
L 60.421067 199.156377 
L 59.733488 199.081625 
L 58.629899 198.953209 
L 57.828548 198.866776 
L 57.62857 198.841732 
L 57.62857 201.1392 
L 57.62857 204.4656 
L 57.62857 207.792 
L 57.62857 211.1184 
L 57.62857 214.4448 
L 57.62857 217.7712 
L 57.62857 221.0976 
L 57.62857 224.424 
L 57.62857 227.7504 
L 57.62857 231.0768 
L 57.62857 234.4032 
L 57.62857 237.7296 
L 57.62857 239.203101 
L 57.920699 239.26925 
L 58.400231 239.371394 
L 60.073399 239.740483 
L 60.285809 239.786048 
L 61.100455 239.9667 
L 61.168278 239.981299 
L 61.618712 240.08172 
L 62.950424 240.377152 
L 63.379614 240.472466 
L 65.009598 240.841209 
L 65.390271 240.926562 
L 65.957817 241.056 
L 67.824095 241.481419 
L 69.089409 241.774761 
L 70.19085 242.03028 
L 70.261444 242.046653 
L 70.273357 242.049505 
L 72.204335 242.499796 
L 72.523072 242.576653 
L 73.17912 242.730482 
L 73.689266 242.85394 
L 74.953053 243.151898 
L 75.714885 243.33765 
L 76.094276 243.427596 
L 77.113742 243.677079 
L 77.696294 243.815958 
L 78.909839 244.115194 
L 79.006825 244.138446 
L 79.992508 244.3824 
L 80.434502 244.491004 
L 80.547092 244.519592 
L 81.917552 244.858898 
L 82.107578 244.907421 
L 83.170216 245.171495 
L 83.989518 245.381916 
L 84.825995 245.591392 
L 85.308421 245.716007 
L 85.90009 245.864735 
L 87.441568 246.26525 
L 87.731621 246.338731 
L 88.512731 246.542868 
L 88.62393 246.571146 
L 89.24537 246.73452 
L 90.376795 247.030354 
L 90.7832 247.136754 
L 92.567371 247.612428 
L 92.732272 247.656057 
L 92.928322 247.7088 
L 94.739566 248.19436 
L 95.081253 248.287635 
L 96.527878 248.68308 
L 96.768795 248.748575 
L 96.81361 248.761152 
L 97.633981 248.985529 
L 97.858944 249.048918 
L 99.47496 249.493575 
L 100.029916 249.651234 
L 100.528885 249.789373 
L 101.353262 250.024526 
L 102.174403 250.253248 
L 103.25028 250.562705 
L 103.33993 250.5871 
L 103.33993 247.7088 
L 103.33993 244.3824 
L 103.33993 241.056 
L 103.33993 237.7296 
L 103.33993 234.4032 
L 103.33993 231.0768 
L 103.33993 227.7504 
L 103.33993 224.424 
L 103.33993 221.0976 
L 103.33993 217.7712 
L 103.33993 214.4448 
L 103.33993 211.1184 
L 103.33993 207.792 
" clip-path="url(#p94467ef7f4)" style="fill: #ff9400"/>
   </g>
   <g id="PathCollection_9">
    <path d="M 103.33993 250.5871 
L 103.25028 250.562705 
L 102.174403 250.253248 
L 101.353262 250.024526 
L 100.528885 249.789373 
L 100.029916 249.651234 
L 99.47496 249.493575 
L 97.858944 249.048918 
L 97.633981 248.985529 
L 96.81361 248.761152 
L 96.768795 248.748575 
L 96.527878 248.68308 
L 95.081253 248.287635 
L 94.739566 248.19436 
L 92.928322 247.7088 
L 92.732272 247.656057 
L 92.567371 247.612428 
L 90.7832 247.136754 
L 90.376795 247.030354 
L 89.24537 246.73452 
L 88.62393 246.571146 
L 88.512731 246.542868 
L 87.731621 246.338731 
L 87.441568 246.26525 
L 85.90009 245.864735 
L 85.308421 245.716007 
L 84.825995 245.591392 
L 83.989518 245.381916 
L 83.170216 245.171495 
L 82.107578 244.907421 
L 81.917552 244.858898 
L 80.547092 244.519592 
L 80.434502 244.491004 
L 79.992508 244.3824 
L 79.006825 244.138446 
L 78.909839 244.115194 
L 77.696294 243.815958 
L 77.113742 243.677079 
L 76.094276 243.427596 
L 75.714885 243.33765 
L 74.953053 243.151898 
L 73.689266 242.85394 
L 73.17912 242.730482 
L 72.523072 242.576653 
L 72.204335 242.499796 
L 70.273357 242.049505 
L 70.261444 242.046653 
L 70.19085 242.03028 
L 69.089409 241.774761 
L 67.824095 241.481419 
L 65.957817 241.056 
L 65.390271 240.926562 
L 65.009598 240.841209 
L 63.379614 240.472466 
L 62.950424 240.377152 
L 61.618712 240.08172 
L 61.168278 239.981299 
L 61.100455 239.9667 
L 60.285809 239.786048 
L 60.073399 239.740483 
L 58.400231 239.371394 
L 57.920699 239.26925 
L 57.62857 239.203101 
L 57.62857 241.056 
L 57.62857 244.3824 
L 57.62857 247.7088 
L 57.62857 251.0352 
L 57.62857 254.3616 
L 57.62857 257.688 
L 57.62857 261.0144 
L 57.62857 264.3408 
L 57.62857 267.6672 
L 57.62857 270.9936 
L 57.62857 274.32 
L 57.62857 275.430665 
L 58.026939 275.546815 
L 58.215926 275.602251 
L 59.869516 276.080612 
L 60.409131 276.239915 
L 60.914951 276.386987 
L 61.733987 276.629694 
L 62.555469 276.869737 
L 63.637277 277.192402 
L 63.800464 277.240332 
L 65.156728 277.6464 
L 65.236259 277.670131 
L 65.261522 277.677821 
L 66.683834 278.104967 
L 66.868573 278.161489 
L 67.914218 278.476707 
L 68.799644 278.749057 
L 69.564987 278.981291 
L 70.103114 279.147678 
L 70.586805 279.29501 
L 72.347933 279.842491 
L 72.443452 279.87178 
L 72.849005 279.99852 
L 73.133308 280.086881 
L 73.556923 280.220019 
L 74.793472 280.607413 
L 74.998192 280.671717 
L 75.945921 280.9728 
L 76.855265 281.260416 
L 77.049913 281.322672 
L 78.24903 281.707248 
L 78.995856 281.94708 
L 79.383192 282.071623 
L 79.478108 282.102703 
L 81.230856 282.669291 
L 81.72993 282.833848 
L 82.253691 283.004098 
L 83.060846 283.27134 
L 83.879889 283.539015 
L 84.980799 283.906095 
L 85.121216 283.952244 
L 86.157436 284.2992 
L 86.52322 284.421185 
L 86.655595 284.466202 
L 87.986328 284.913107 
L 88.235455 284.998303 
L 89.163003 285.311103 
L 90.263426 285.68962 
L 90.848702 285.888405 
L 91.494128 286.111676 
L 91.796474 286.214799 
L 93.050927 286.65132 
L 93.557205 286.826899 
L 95.44975 287.491268 
L 95.650663 287.561663 
L 95.752546 287.597408 
L 95.767637 287.602718 
L 95.83192 287.6256 
L 97.543286 288.231686 
L 97.941009 288.374137 
L 98.569294 288.59988 
L 99.666298 288.992668 
L 99.939684 289.092473 
L 100.600185 289.330393 
L 101.168956 289.538971 
L 102.279214 289.941236 
L 103.213665 290.286528 
L 103.33993 290.331952 
L 103.33993 287.6256 
L 103.33993 284.2992 
L 103.33993 280.9728 
L 103.33993 277.6464 
L 103.33993 274.32 
L 103.33993 270.9936 
L 103.33993 267.6672 
L 103.33993 264.3408 
L 103.33993 261.0144 
L 103.33993 257.688 
L 103.33993 254.3616 
L 103.33993 251.0352 
" clip-path="url(#p94467ef7f4)" style="fill: #ff3800"/>
   </g>
   <g id="PathCollection_10">
    <path d="M 103.33993 290.331952 
L 103.213665 290.286528 
L 102.279214 289.941236 
L 101.168956 289.538971 
L 100.600185 289.330393 
L 99.939684 289.092473 
L 99.666298 288.992668 
L 98.569294 288.59988 
L 97.941009 288.374137 
L 97.543286 288.231686 
L 95.83192 287.6256 
L 95.767637 287.602718 
L 95.752546 287.597408 
L 95.650663 287.561663 
L 95.44975 287.491268 
L 93.557205 286.826899 
L 93.050927 286.65132 
L 91.796474 286.214799 
L 91.494128 286.111676 
L 90.848702 285.888405 
L 90.263426 285.68962 
L 89.163003 285.311103 
L 88.235455 284.998303 
L 87.986328 284.913107 
L 86.655595 284.466202 
L 86.52322 284.421185 
L 86.157436 284.2992 
L 85.121216 283.952244 
L 84.980799 283.906095 
L 83.879889 283.539015 
L 83.060846 283.27134 
L 82.253691 283.004098 
L 81.72993 282.833848 
L 81.230856 282.669291 
L 79.478108 282.102703 
L 79.383192 282.071623 
L 78.995856 281.94708 
L 78.24903 281.707248 
L 77.049913 281.322672 
L 76.855265 281.260416 
L 75.945921 280.9728 
L 74.998192 280.671717 
L 74.793472 280.607413 
L 73.556923 280.220019 
L 73.133308 280.086881 
L 72.849005 279.99852 
L 72.443452 279.87178 
L 72.347933 279.842491 
L 70.586805 279.29501 
L 70.103114 279.147678 
L 69.564987 278.981291 
L 68.799644 278.749057 
L 67.914218 278.476707 
L 66.868573 278.161489 
L 66.683834 278.104967 
L 65.261522 277.677821 
L 65.236259 277.670131 
L 65.156728 277.6464 
L 63.800464 277.240332 
L 63.637277 277.192402 
L 62.555469 276.869737 
L 61.733987 276.629694 
L 60.914951 276.386987 
L 60.409131 276.239915 
L 59.869516 276.080612 
L 58.215926 275.602251 
L 58.026939 275.546815 
L 57.62857 275.430665 
L 57.62857 277.6464 
L 57.62857 280.9728 
L 57.62857 284.2992 
L 57.62857 287.6256 
L 57.62857 290.952 
L 57.62857 294.2784 
L 57.62857 297.6048 
L 57.62857 300.9312 
L 57.62857 304.2576 
L 57.62857 307.584 
L 59.152282 307.584 
L 60.675994 307.584 
L 62.199706 307.584 
L 63.723418 307.584 
L 65.24713 307.584 
L 66.770842 307.584 
L 68.294554 307.584 
L 69.818266 307.584 
L 71.341978 307.584 
L 72.86569 307.584 
L 74.389402 307.584 
L 75.913114 307.584 
L 77.436826 307.584 
L 78.960538 307.584 
L 80.48425 307.584 
L 82.007962 307.584 
L 83.531674 307.584 
L 85.055386 307.584 
L 86.579098 307.584 
L 88.10281 307.584 
L 89.626522 307.584 
L 91.150234 307.584 
L 92.673946 307.584 
L 94.197658 307.584 
L 95.72137 307.584 
L 97.245082 307.584 
L 98.768794 307.584 
L 100.292506 307.584 
L 101.816218 307.584 
L 103.33993 307.584 
L 103.33993 304.2576 
L 103.33993 300.9312 
L 103.33993 297.6048 
L 103.33993 294.2784 
L 103.33993 290.952 
" clip-path="url(#p94467ef7f4)" style="fill: #b60000"/>
   </g>
   <g id="PathCollection_11">
    <path clip-path="url(#p94467ef7f4)" style="fill: #0000b6"/>
   </g>
   <g id="PathCollection_12">
    <path clip-path="url(#p94467ef7f4)" style="fill: #0018ff"/>
   </g>
   <g id="PathCollection_13">
    <path clip-path="url(#p94467ef7f4)" style="fill: #0080ff"/>
   </g>
   <g id="PathCollection_14">
    <path clip-path="url(#p94467ef7f4)" style="fill: #00e4f8"/>
   </g>
   <g id="PathCollection_15">
    <path d="M 100.4544 71.506037 
L 100.51757 71.47227 
L 100.630798 71.4096 
L 103.973863 69.529469 
L 104.782088 69.05748 
L 105.558387 68.592267 
L 106.436188 68.0832 
L 106.910123 67.804219 
L 108.073826 67.10892 
L 110.56082 65.583477 
L 111.860058 64.7568 
L 114.755385 62.883295 
L 115.478146 62.40468 
L 115.936266 62.118095 
L 116.970594 61.4304 
L 118.252911 60.52704 
L 118.358591 60.45612 
L 118.745791 60.189311 
L 121.706465 58.104 
L 122.811344 57.31204 
L 124.914902 55.75188 
L 125.923917 54.979365 
L 126.192334 54.7776 
L 126.376815 54.625089 
L 126.582782 54.463686 
L 127.457102 53.80332 
L 128.494097 52.99448 
L 130.407875 51.4512 
L 131.734631 50.361249 
L 133.24069 49.09908 
L 133.449231 48.935707 
L 134.420675 48.1248 
L 135.455721 47.193338 
L 135.504568 47.15052 
L 135.752051 46.925376 
L 138.148293 44.7984 
L 139.016313 44.012822 
L 140.694603 42.44628 
L 141.583221 41.583528 
L 141.697617 41.472 
L 140.928 41.472 
L 132.83328 41.472 
L 124.73856 41.472 
L 116.64384 41.472 
L 108.54912 41.472 
L 100.4544 41.472 
L 100.4544 44.7984 
L 100.4544 48.1248 
L 100.4544 51.4512 
L 100.4544 54.7776 
L 100.4544 58.104 
L 100.4544 61.4304 
L 100.4544 64.7568 
L 100.4544 68.0832 
L 100.4544 71.4096 
" clip-path="url(#p94467ef7f4)" style="fill: #53ffa4"/>
   </g>
   <g id="PathCollection_16">
    <path d="M 141.697617 41.472 
L 141.583221 41.583528 
L 140.694603 42.44628 
L 139.016313 44.012822 
L 138.148293 44.7984 
L 135.752051 46.925376 
L 135.504568 47.15052 
L 135.455721 47.193338 
L 134.420675 48.1248 
L 133.449231 48.935707 
L 133.24069 49.09908 
L 131.734631 50.361249 
L 130.407875 51.4512 
L 128.494097 52.99448 
L 127.457102 53.80332 
L 126.582782 54.463686 
L 126.376815 54.625089 
L 126.192334 54.7776 
L 125.923917 54.979365 
L 124.914902 55.75188 
L 122.811344 57.31204 
L 121.706465 58.104 
L 118.745791 60.189311 
L 118.358591 60.45612 
L 118.252911 60.52704 
L 116.970594 61.4304 
L 115.936266 62.118095 
L 115.478146 62.40468 
L 114.755385 62.883295 
L 111.860058 64.7568 
L 110.56082 65.583477 
L 108.073826 67.10892 
L 106.910123 67.804219 
L 106.436188 68.0832 
L 105.558387 68.592267 
L 104.782088 69.05748 
L 103.973863 69.529469 
L 100.630798 71.4096 
L 100.51757 71.47227 
L 100.4544 71.506037 
L 100.4544 74.736 
L 100.4544 78.0624 
L 100.4544 81.3888 
L 100.4544 84.7152 
L 100.4544 88.0416 
L 100.4544 91.368 
L 100.4544 94.6944 
L 100.4544 98.0208 
L 100.4544 101.3472 
L 100.4544 104.6736 
L 100.4544 108 
L 100.4544 111.3264 
L 100.4544 114.6528 
L 100.4544 117.9792 
L 100.4544 121.3056 
L 100.4544 124.632 
L 100.4544 127.9584 
L 100.4544 131.2848 
L 100.4544 134.6112 
L 100.4544 137.9376 
L 100.4544 141.264 
L 100.4544 144.5904 
L 100.4544 147.9168 
L 100.4544 148.350356 
L 101.355239 148.286986 
L 106.11496 147.9168 
L 107.782229 147.786264 
L 110.810485 147.531883 
L 116.046645 147.107639 
L 117.878506 146.94252 
L 118.923175 146.851691 
L 119.334443 146.811138 
L 128.21518 146.019063 
L 131.761013 145.654178 
L 133.724623 145.474687 
L 140.486211 144.771947 
L 141.205342 144.704369 
L 142.252449 144.5904 
L 148.345324 143.918366 
L 149.893413 143.726599 
L 153.921958 143.277266 
L 162.060872 142.23828 
L 162.504097 142.180888 
L 169.236145 141.264 
L 170.86892 141.037042 
L 171.447829 140.947562 
L 175.821963 140.28972 
L 178.161269 139.932436 
L 179.649131 139.676196 
L 182.671683 139.197628 
L 189.223205 138.049832 
L 189.612913 137.985512 
L 189.869207 137.9376 
L 196.351147 136.707522 
L 199.491132 136.05255 
L 200.583806 135.841031 
L 201.755997 135.58548 
L 205.94387 134.655134 
L 206.008522 134.641247 
L 206.133013 134.6112 
L 207.227239 134.348818 
L 210.251691 133.63692 
L 210.982735 133.46151 
L 211.808978 133.240695 
L 214.953944 132.448974 
L 219.202666 131.2848 
L 220.795648 130.841175 
L 226.963085 128.93268 
L 227.185518 128.862294 
L 229.936266 127.9584 
L 231.673699 127.363445 
L 232.554183 127.020439 
L 232.651729 126.98412 
L 238.423988 124.779668 
L 238.771834 124.632 
L 243.917165 122.407555 
L 244.191993 122.27988 
L 244.284036 122.233746 
L 246.314886 121.3056 
L 247.598602 120.686018 
L 248.235782 120.33132 
L 248.431699 120.23355 
L 252.660563 117.9792 
L 253.346706 117.606329 
L 256.652538 115.62708 
L 257.369296 115.183055 
L 258.204272 114.6528 
L 258.782491 114.231234 
L 259.513195 113.757622 
L 259.639809 113.67852 
L 259.771154 113.593556 
L 260.805598 112.857386 
L 262.613468 111.588973 
L 262.965112 111.3264 
L 265.582897 109.329002 
L 266.003654 108.97428 
L 266.310911 108.703431 
L 267.206092 108 
L 267.74167 107.540105 
L 268.331757 107.02572 
L 270.765338 104.805846 
L 270.896421 104.6736 
L 271.19526 104.364684 
L 273.294652 102.32148 
L 273.704664 101.902295 
L 274.24504 101.3472 
L 274.90171 100.588351 
L 275.117097 100.37292 
L 275.412213 100.062608 
L 277.179108 98.0208 
L 277.798294 97.286712 
L 279.091426 95.66868 
L 279.238289 95.513136 
L 279.893472 94.6944 
L 280.546236 93.753903 
L 280.573796 93.72012 
L 280.717457 93.529966 
L 282.268434 91.368 
L 283.240739 89.974019 
L 283.84775 89.01588 
L 284.17414 88.460127 
L 284.307037 88.258128 
L 284.473412 88.0416 
L 284.59894 87.852246 
L 284.6765 87.708582 
L 285.078338 87.06732 
L 286.385 84.817095 
L 286.450152 84.7152 
L 286.487303 84.655345 
L 287.786872 82.36308 
L 288.159413 81.648625 
L 288.301201 81.3888 
L 288.364136 81.227639 
L 288.435625 81.08196 
L 288.811917 80.41452 
L 289.434537 79.213665 
L 289.97727 78.0624 
L 290.746094 76.372171 
L 291.084431 75.71028 
L 291.177966 75.509627 
L 291.562144 74.736 
L 291.726248 74.261848 
L 291.911686 73.837483 
L 291.9504 73.76172 
L 292.015727 73.621565 
L 292.95847 71.4096 
L 293.47027 70.162144 
L 293.903127 69.05748 
L 293.958538 68.908368 
L 294.333966 68.0832 
L 294.599701 67.31772 
L 294.653801 67.10892 
L 295.312012 65.336506 
L 295.517915 64.7568 
L 295.920248 63.573672 
L 296.33719 62.40468 
L 296.368834 62.336746 
L 296.716525 61.4304 
L 296.981922 60.466979 
L 296.985738 60.45612 
L 297.01408 60.3723 
L 297.750306 58.104 
L 298.323151 56.255103 
L 298.466005 55.75188 
L 298.524007 55.509249 
L 298.784295 54.7776 
L 298.947189 54.117982 
L 299.039489 53.80332 
L 299.260225 52.915021 
L 299.696288 51.4512 
L 300.022444 50.300601 
L 300.336727 49.09908 
L 300.460697 48.526796 
L 300.593946 48.1248 
L 300.644996 47.922098 
L 300.675046 47.759289 
L 300.840698 47.15052 
L 301.225924 45.454447 
L 301.405985 44.7984 
L 301.542849 44.272588 
L 301.984721 42.44628 
L 302.154084 41.585757 
L 302.184795 41.472 
L 294.72768 41.472 
L 286.63296 41.472 
L 278.53824 41.472 
L 270.44352 41.472 
L 262.3488 41.472 
L 254.25408 41.472 
L 246.15936 41.472 
L 238.06464 41.472 
L 229.96992 41.472 
L 221.8752 41.472 
L 213.78048 41.472 
L 205.68576 41.472 
L 197.59104 41.472 
L 189.49632 41.472 
L 181.4016 41.472 
L 173.30688 41.472 
L 165.21216 41.472 
L 157.11744 41.472 
L 149.02272 41.472 
" clip-path="url(#p94467ef7f4)" style="fill: #a4ff53"/>
   </g>
   <g id="PathCollection_17">
    <path d="M 302.184795 41.472 
L 302.154084 41.585757 
L 301.984721 42.44628 
L 301.542849 44.272588 
L 301.405985 44.7984 
L 301.225924 45.454447 
L 300.840698 47.15052 
L 300.675046 47.759289 
L 300.644996 47.922098 
L 300.593946 48.1248 
L 300.460697 48.526796 
L 300.336727 49.09908 
L 300.022444 50.300601 
L 299.696288 51.4512 
L 299.260225 52.915021 
L 299.039489 53.80332 
L 298.947189 54.117982 
L 298.784295 54.7776 
L 298.524007 55.509249 
L 298.466005 55.75188 
L 298.323151 56.255103 
L 297.750306 58.104 
L 297.01408 60.3723 
L 296.985738 60.45612 
L 296.981922 60.466979 
L 296.716525 61.4304 
L 296.368834 62.336746 
L 296.33719 62.40468 
L 295.920248 63.573672 
L 295.517915 64.7568 
L 295.312012 65.336506 
L 294.653801 67.10892 
L 294.599701 67.31772 
L 294.333966 68.0832 
L 293.958538 68.908368 
L 293.903127 69.05748 
L 293.47027 70.162144 
L 292.95847 71.4096 
L 292.015727 73.621565 
L 291.9504 73.76172 
L 291.911686 73.837483 
L 291.726248 74.261848 
L 291.562144 74.736 
L 291.177966 75.509627 
L 291.084431 75.71028 
L 290.746094 76.372171 
L 289.97727 78.0624 
L 289.434537 79.213665 
L 288.811917 80.41452 
L 288.435625 81.08196 
L 288.364136 81.227639 
L 288.301201 81.3888 
L 288.159413 81.648625 
L 287.786872 82.36308 
L 286.487303 84.655345 
L 286.450152 84.7152 
L 286.385 84.817095 
L 285.078338 87.06732 
L 284.6765 87.708582 
L 284.59894 87.852246 
L 284.473412 88.0416 
L 284.307037 88.258128 
L 284.17414 88.460127 
L 283.84775 89.01588 
L 283.240739 89.974019 
L 282.268434 91.368 
L 280.717457 93.529966 
L 280.573796 93.72012 
L 280.546236 93.753903 
L 279.893472 94.6944 
L 279.238289 95.513136 
L 279.091426 95.66868 
L 277.798294 97.286712 
L 277.179108 98.0208 
L 275.412213 100.062608 
L 275.117097 100.37292 
L 274.90171 100.588351 
L 274.24504 101.3472 
L 273.704664 101.902295 
L 273.294652 102.32148 
L 271.19526 104.364684 
L 270.896421 104.6736 
L 270.765338 104.805846 
L 268.331757 107.02572 
L 267.74167 107.540105 
L 267.206092 108 
L 266.310911 108.703431 
L 266.003654 108.97428 
L 265.582897 109.329002 
L 262.965112 111.3264 
L 262.613468 111.588973 
L 260.805598 112.857386 
L 259.771154 113.593556 
L 259.639809 113.67852 
L 259.513195 113.757622 
L 258.782491 114.231234 
L 258.204272 114.6528 
L 257.369296 115.183055 
L 256.652538 115.62708 
L 253.346706 117.606329 
L 252.660563 117.9792 
L 248.431699 120.23355 
L 248.235782 120.33132 
L 247.598602 120.686018 
L 246.314886 121.3056 
L 244.284036 122.233746 
L 244.191993 122.27988 
L 243.917165 122.407555 
L 238.771834 124.632 
L 238.423988 124.779668 
L 232.651729 126.98412 
L 232.554183 127.020439 
L 231.673699 127.363445 
L 229.936266 127.9584 
L 227.185518 128.862294 
L 226.963085 128.93268 
L 220.795648 130.841175 
L 219.202666 131.2848 
L 214.953944 132.448974 
L 211.808978 133.240695 
L 210.982735 133.46151 
L 210.251691 133.63692 
L 207.227239 134.348818 
L 206.133013 134.6112 
L 206.008522 134.641247 
L 205.94387 134.655134 
L 201.755997 135.58548 
L 200.583806 135.841031 
L 199.491132 136.05255 
L 196.351147 136.707522 
L 189.869207 137.9376 
L 189.612913 137.985512 
L 189.223205 138.049832 
L 182.671683 139.197628 
L 179.649131 139.676196 
L 178.161269 139.932436 
L 175.821963 140.28972 
L 171.447829 140.947562 
L 170.86892 141.037042 
L 169.236145 141.264 
L 162.504097 142.180888 
L 162.060872 142.23828 
L 153.921958 143.277266 
L 149.893413 143.726599 
L 148.345324 143.918366 
L 142.252449 144.5904 
L 141.205342 144.704369 
L 140.486211 144.771947 
L 133.724623 145.474687 
L 131.761013 145.654178 
L 128.21518 146.019063 
L 119.334443 146.811138 
L 118.923175 146.851691 
L 117.878506 146.94252 
L 116.046645 147.107639 
L 110.810485 147.531883 
L 107.782229 147.786264 
L 106.11496 147.9168 
L 101.355239 148.286986 
L 100.4544 148.350356 
L 100.4544 151.2432 
L 100.4544 154.5696 
L 100.4544 157.896 
L 100.4544 161.2224 
L 100.4544 164.5488 
L 100.4544 167.8752 
L 100.4544 171.2016 
L 100.4544 174.528 
L 100.4544 177.8544 
L 100.4544 181.1808 
L 100.4544 184.5072 
L 100.4544 187.8336 
L 100.4544 191.16 
L 100.4544 194.4864 
L 100.4544 197.8128 
L 100.4544 201.1392 
L 100.4544 204.407138 
L 100.505798 204.414609 
L 100.836832 204.4656 
L 106.462038 205.323254 
L 113.46549 206.485906 
L 114.448583 206.643479 
L 115.460527 206.81772 
L 116.739499 207.029529 
L 121.042325 207.792 
L 122.861101 208.111571 
L 126.389409 208.76628 
L 129.203263 209.283699 
L 131.432372 209.728582 
L 133.781216 210.177969 
L 138.377789 211.1184 
L 140.086593 211.464163 
L 143.696329 212.256002 
L 147.133736 212.99243 
L 149.224092 213.47052 
L 149.87135 213.612232 
L 153.412197 214.4448 
L 154.977811 214.808996 
L 157.453912 215.41908 
L 160.835012 216.243521 
L 164.702103 217.265181 
L 165.513381 217.472364 
L 166.612272 217.7712 
L 170.660177 218.858822 
L 175.002906 220.12332 
L 176.499475 220.554173 
L 177.140686 220.740698 
L 178.274541 221.0976 
L 180.403188 221.75822 
L 181.456518 222.07188 
L 183.220394 222.619604 
L 188.695626 224.424 
L 189.142462 224.569413 
L 194.107819 226.319024 
L 195.27035 226.726319 
L 195.404266 226.77612 
L 196.35654 227.111758 
L 198.023517 227.7504 
L 199.579693 228.318835 
L 200.409144 228.648557 
L 200.597843 228.72468 
L 206.09111 230.910228 
L 206.476189 231.0768 
L 211.583897 233.255995 
L 211.966163 233.42892 
L 212.715401 233.748786 
L 214.116268 234.4032 
L 216.22194 235.365468 
L 216.246289 235.37748 
L 216.76918 235.63136 
L 221.116884 237.7296 
L 221.468292 237.896812 
L 225.690682 240.08172 
L 226.169021 240.325129 
L 227.493333 241.056 
L 229.055138 241.894726 
L 229.28326 242.03028 
L 231.242504 243.11989 
L 233.384688 244.3824 
L 235.324503 245.508417 
L 237.255786 246.73452 
L 238.658791 247.607667 
L 238.806683 247.7088 
L 239.064635 247.879014 
L 240.309445 248.68308 
L 241.679117 249.549887 
L 243.820824 251.0352 
L 245.206355 251.98066 
L 247.149582 253.38732 
L 247.597349 253.741902 
L 248.454818 254.3616 
L 249.140753 254.837617 
L 249.557122 255.161091 
L 249.773817 255.33588 
L 251.134047 256.405871 
L 252.803703 257.688 
L 253.314891 258.073945 
L 255.677066 260.04012 
L 256.423533 260.645127 
L 256.828641 261.0144 
L 257.121917 261.281377 
L 257.460847 261.560239 
L 257.9669 261.98868 
L 258.636247 262.540016 
L 260.611743 264.3408 
L 261.524999 265.15808 
L 263.136292 266.69292 
L 263.286777 266.826315 
L 264.119485 267.6672 
L 265.083423 268.579567 
L 265.140489 268.64148 
L 265.412127 268.926027 
L 267.457625 270.9936 
L 268.33274 271.860992 
L 269.671684 273.34572 
L 270.564379 274.299428 
L 270.571943 274.308045 
L 270.580868 274.32 
L 270.592178 274.333839 
L 270.604821 274.347456 
L 271.44241 275.29428 
L 272.738121 276.703469 
L 273.50802 277.6464 
L 275.107606 279.563034 
L 275.485972 279.99852 
L 275.576935 280.099018 
L 275.885918 280.466148 
L 276.248853 280.9728 
L 276.711666 281.556324 
L 277.063315 281.94708 
L 278.746163 284.092923 
L 278.896728 284.2992 
L 279.925243 285.675223 
L 280.659981 286.65132 
L 280.942046 287.095813 
L 281.333838 287.6256 
L 281.710955 288.083807 
L 281.949537 288.422787 
L 282.061994 288.59988 
L 282.502269 289.254557 
L 283.702134 290.952 
L 284.37465 291.880018 
L 285.272871 293.30412 
L 285.834545 294.142498 
L 285.924791 294.2784 
L 286.005381 294.385223 
L 286.537901 295.25268 
L 287.770335 297.137413 
L 288.033201 297.6048 
L 288.470445 298.359886 
L 289.448197 299.95692 
L 289.739595 300.402405 
L 289.870539 300.629802 
L 290.010241 300.9312 
L 290.399774 301.572367 
L 290.597855 301.90548 
L 290.962931 302.478265 
L 291.936816 304.2576 
L 292.938644 306.032474 
L 293.237798 306.60972 
L 293.48322 307.072608 
L 293.757316 307.584 
L 294.72768 307.584 
L 302.8224 307.584 
L 310.91712 307.584 
L 319.01184 307.584 
L 327.10656 307.584 
L 335.20128 307.584 
L 343.296 307.584 
L 343.296 304.2576 
L 343.296 300.9312 
L 343.296 297.6048 
L 343.296 294.2784 
L 343.296 290.952 
L 343.296 287.6256 
L 343.296 284.2992 
L 343.296 280.9728 
L 343.296 277.6464 
L 343.296 274.32 
L 343.296 270.9936 
L 343.296 267.6672 
L 343.296 264.3408 
L 343.296 261.0144 
L 343.296 257.688 
L 343.296 254.3616 
L 343.296 251.0352 
L 343.296 247.7088 
L 343.296 244.3824 
L 343.296 241.056 
L 343.296 237.7296 
L 343.296 234.4032 
L 343.296 231.0768 
L 343.296 227.7504 
L 343.296 224.424 
L 343.296 221.0976 
L 343.296 217.7712 
L 343.296 214.4448 
L 343.296 211.1184 
L 343.296 207.792 
L 343.296 204.4656 
L 343.296 201.1392 
L 343.296 197.8128 
L 343.296 194.4864 
L 343.296 191.16 
L 343.296 187.8336 
L 343.296 184.5072 
L 343.296 181.1808 
L 343.296 177.8544 
L 343.296 174.528 
L 343.296 171.2016 
L 343.296 167.8752 
L 343.296 164.5488 
L 343.296 161.2224 
L 343.296 157.896 
L 343.296 154.5696 
L 343.296 151.2432 
L 343.296 147.9168 
L 343.296 144.5904 
L 343.296 141.264 
L 343.296 137.9376 
L 343.296 134.6112 
L 343.296 131.2848 
L 343.296 127.9584 
L 343.296 124.632 
L 343.296 121.3056 
L 343.296 117.9792 
L 343.296 114.6528 
L 343.296 111.3264 
L 343.296 108 
L 343.296 104.6736 
L 343.296 101.3472 
L 343.296 98.0208 
L 343.296 94.6944 
L 343.296 91.368 
L 343.296 88.0416 
L 343.296 84.7152 
L 343.296 81.3888 
L 343.296 78.0624 
L 343.296 74.736 
L 343.296 71.4096 
L 343.296 68.0832 
L 343.296 64.7568 
L 343.296 61.4304 
L 343.296 58.104 
L 343.296 54.7776 
L 343.296 51.4512 
L 343.296 48.1248 
L 343.296 44.7984 
L 343.296 41.472 
L 335.20128 41.472 
L 327.10656 41.472 
L 319.01184 41.472 
L 310.91712 41.472 
L 302.8224 41.472 
" clip-path="url(#p94467ef7f4)" style="fill: #f8f500"/>
   </g>
   <g id="PathCollection_18">
    <path d="M 293.757316 307.584 
L 293.48322 307.072608 
L 293.237798 306.60972 
L 292.938644 306.032474 
L 291.936816 304.2576 
L 290.962931 302.478265 
L 290.597855 301.90548 
L 290.399774 301.572367 
L 290.010241 300.9312 
L 289.870539 300.629802 
L 289.739595 300.402405 
L 289.448197 299.95692 
L 288.470445 298.359886 
L 288.033201 297.6048 
L 287.770335 297.137413 
L 286.537901 295.25268 
L 286.005381 294.385223 
L 285.924791 294.2784 
L 285.834545 294.142498 
L 285.272871 293.30412 
L 284.37465 291.880018 
L 283.702134 290.952 
L 282.502269 289.254557 
L 282.061994 288.59988 
L 281.949537 288.422787 
L 281.710955 288.083807 
L 281.333838 287.6256 
L 280.942046 287.095813 
L 280.659981 286.65132 
L 279.925243 285.675223 
L 278.896728 284.2992 
L 278.746163 284.092923 
L 277.063315 281.94708 
L 276.711666 281.556324 
L 276.248853 280.9728 
L 275.885918 280.466148 
L 275.576935 280.099018 
L 275.485972 279.99852 
L 275.107606 279.563034 
L 273.50802 277.6464 
L 272.738121 276.703469 
L 271.44241 275.29428 
L 270.604821 274.347456 
L 270.592178 274.333839 
L 270.580868 274.32 
L 270.571943 274.308045 
L 270.564379 274.299428 
L 269.671684 273.34572 
L 268.33274 271.860992 
L 267.457625 270.9936 
L 265.412127 268.926027 
L 265.140489 268.64148 
L 265.083423 268.579567 
L 264.119485 267.6672 
L 263.286777 266.826315 
L 263.136292 266.69292 
L 261.524999 265.15808 
L 260.611743 264.3408 
L 258.636247 262.540016 
L 257.9669 261.98868 
L 257.460847 261.560239 
L 257.121917 261.281377 
L 256.828641 261.0144 
L 256.423533 260.645127 
L 255.677066 260.04012 
L 253.314891 258.073945 
L 252.803703 257.688 
L 251.134047 256.405871 
L 249.773817 255.33588 
L 249.557122 255.161091 
L 249.140753 254.837617 
L 248.454818 254.3616 
L 247.597349 253.741902 
L 247.149582 253.38732 
L 245.206355 251.98066 
L 243.820824 251.0352 
L 241.679117 249.549887 
L 240.309445 248.68308 
L 239.064635 247.879014 
L 238.806683 247.7088 
L 238.658791 247.607667 
L 237.255786 246.73452 
L 235.324503 245.508417 
L 233.384688 244.3824 
L 231.242504 243.11989 
L 229.28326 242.03028 
L 229.055138 241.894726 
L 227.493333 241.056 
L 226.169021 240.325129 
L 225.690682 240.08172 
L 221.468292 237.896812 
L 221.116884 237.7296 
L 216.76918 235.63136 
L 216.246289 235.37748 
L 216.22194 235.365468 
L 214.116268 234.4032 
L 212.715401 233.748786 
L 211.966163 233.42892 
L 211.583897 233.255995 
L 206.476189 231.0768 
L 206.09111 230.910228 
L 200.597843 228.72468 
L 200.409144 228.648557 
L 199.579693 228.318835 
L 198.023517 227.7504 
L 196.35654 227.111758 
L 195.404266 226.77612 
L 195.27035 226.726319 
L 194.107819 226.319024 
L 189.142462 224.569413 
L 188.695626 224.424 
L 183.220394 222.619604 
L 181.456518 222.07188 
L 180.403188 221.75822 
L 178.274541 221.0976 
L 177.140686 220.740698 
L 176.499475 220.554173 
L 175.002906 220.12332 
L 170.660177 218.858822 
L 166.612272 217.7712 
L 165.513381 217.472364 
L 164.702103 217.265181 
L 160.835012 216.243521 
L 157.453912 215.41908 
L 154.977811 214.808996 
L 153.412197 214.4448 
L 149.87135 213.612232 
L 149.224092 213.47052 
L 147.133736 212.99243 
L 143.696329 212.256002 
L 140.086593 211.464163 
L 138.377789 211.1184 
L 133.781216 210.177969 
L 131.432372 209.728582 
L 129.203263 209.283699 
L 126.389409 208.76628 
L 122.861101 208.111571 
L 121.042325 207.792 
L 116.739499 207.029529 
L 115.460527 206.81772 
L 114.448583 206.643479 
L 113.46549 206.485906 
L 106.462038 205.323254 
L 100.836832 204.4656 
L 100.505798 204.414609 
L 100.4544 204.407138 
L 100.4544 204.4656 
L 100.4544 207.792 
L 100.4544 211.1184 
L 100.4544 214.4448 
L 100.4544 217.7712 
L 100.4544 221.0976 
L 100.4544 224.424 
L 100.4544 227.7504 
L 100.4544 231.0768 
L 100.4544 234.4032 
L 100.4544 237.7296 
L 100.4544 241.056 
L 100.4544 244.3824 
L 100.4544 247.7088 
L 100.4544 249.767298 
L 101.451666 250.045828 
L 104.885364 251.0352 
L 107.04695 251.652494 
L 112.815895 253.38732 
L 113.346227 253.545062 
L 114.281304 253.827971 
L 115.96194 254.3616 
L 119.06185 255.327859 
L 119.086324 255.33588 
L 125.44899 257.39606 
L 126.303526 257.688 
L 131.173274 259.334865 
L 133.17827 260.04012 
L 133.61141 260.188395 
L 135.906584 261.0144 
L 137.544145 261.590382 
L 138.615795 261.98868 
L 142.863663 263.545369 
L 144.918353 264.3408 
L 147.879751 265.474721 
L 150.938331 266.69292 
L 152.180588 267.207611 
L 153.327759 267.6672 
L 154.464864 268.118707 
L 155.702993 268.64148 
L 159.25332 270.115893 
L 161.249825 270.9936 
L 164.005549 272.190659 
L 166.560285 273.34572 
L 166.738882 273.424306 
L 168.663874 274.32 
L 169.939794 274.893127 
L 170.773034 275.29428 
L 174.615929 277.108467 
L 175.689051 277.6464 
L 179.500776 279.532176 
L 180.405349 279.99852 
L 180.689377 280.152931 
L 182.264353 280.9728 
L 183.401762 281.540164 
L 184.073669 281.895815 
L 184.166508 281.94708 
L 185.426457 282.626753 
L 188.542901 284.2992 
L 188.959578 284.519766 
L 192.742619 286.65132 
L 193.328434 286.973318 
L 194.416672 287.6256 
L 195.351869 288.170713 
L 196.122362 288.59988 
L 198.529853 290.020619 
L 200.041308 290.952 
L 202.320253 292.335003 
L 203.812356 293.30412 
L 205.236363 294.201906 
L 205.298415 294.242341 
L 205.356549 294.2784 
L 205.401786 294.304836 
L 205.429427 294.322032 
L 206.840364 295.25268 
L 208.627644 296.395878 
L 210.39046 297.6048 
L 212.408591 298.965829 
L 213.813143 299.95692 
L 214.091047 300.148723 
L 215.145475 300.9312 
L 215.967365 301.481181 
L 216.480598 301.84944 
L 216.55331 301.90548 
L 217.051488 302.27537 
L 219.749662 304.2576 
L 220.520828 304.814158 
L 222.828214 306.60972 
L 223.712477 307.271268 
L 224.096342 307.584 
L 229.96992 307.584 
L 238.06464 307.584 
L 246.15936 307.584 
L 254.25408 307.584 
L 262.3488 307.584 
L 270.44352 307.584 
L 278.53824 307.584 
L 286.63296 307.584 
" clip-path="url(#p94467ef7f4)" style="fill: #ff9400"/>
   </g>
   <g id="PathCollection_19">
    <path d="M 224.096342 307.584 
L 223.712477 307.271268 
L 222.828214 306.60972 
L 220.520828 304.814158 
L 219.749662 304.2576 
L 217.051488 302.27537 
L 216.55331 301.90548 
L 216.480598 301.84944 
L 215.967365 301.481181 
L 215.145475 300.9312 
L 214.091047 300.148723 
L 213.813143 299.95692 
L 212.408591 298.965829 
L 210.39046 297.6048 
L 208.627644 296.395878 
L 206.840364 295.25268 
L 205.429427 294.322032 
L 205.401786 294.304836 
L 205.356549 294.2784 
L 205.298415 294.242341 
L 205.236363 294.201906 
L 203.812356 293.30412 
L 202.320253 292.335003 
L 200.041308 290.952 
L 198.529853 290.020619 
L 196.122362 288.59988 
L 195.351869 288.170713 
L 194.416672 287.6256 
L 193.328434 286.973318 
L 192.742619 286.65132 
L 188.959578 284.519766 
L 188.542901 284.2992 
L 185.426457 282.626753 
L 184.166508 281.94708 
L 184.073669 281.895815 
L 183.401762 281.540164 
L 182.264353 280.9728 
L 180.689377 280.152931 
L 180.405349 279.99852 
L 179.500776 279.532176 
L 175.689051 277.6464 
L 174.615929 277.108467 
L 170.773034 275.29428 
L 169.939794 274.893127 
L 168.663874 274.32 
L 166.738882 273.424306 
L 166.560285 273.34572 
L 164.005549 272.190659 
L 161.249825 270.9936 
L 159.25332 270.115893 
L 155.702993 268.64148 
L 154.464864 268.118707 
L 153.327759 267.6672 
L 152.180588 267.207611 
L 150.938331 266.69292 
L 147.879751 265.474721 
L 144.918353 264.3408 
L 142.863663 263.545369 
L 138.615795 261.98868 
L 137.544145 261.590382 
L 135.906584 261.0144 
L 133.61141 260.188395 
L 133.17827 260.04012 
L 131.173274 259.334865 
L 126.303526 257.688 
L 125.44899 257.39606 
L 119.086324 255.33588 
L 119.06185 255.327859 
L 115.96194 254.3616 
L 114.281304 253.827971 
L 113.346227 253.545062 
L 112.815895 253.38732 
L 107.04695 251.652494 
L 104.885364 251.0352 
L 101.451666 250.045828 
L 100.4544 249.767298 
L 100.4544 251.0352 
L 100.4544 254.3616 
L 100.4544 257.688 
L 100.4544 261.0144 
L 100.4544 264.3408 
L 100.4544 267.6672 
L 100.4544 270.9936 
L 100.4544 274.32 
L 100.4544 277.6464 
L 100.4544 280.9728 
L 100.4544 284.2992 
L 100.4544 287.6256 
L 100.4544 289.27659 
L 101.691419 289.724774 
L 104.998071 290.952 
L 106.870698 291.641721 
L 111.200316 293.30412 
L 112.155683 293.66451 
L 113.682587 294.2784 
L 115.289302 294.905867 
L 116.195333 295.25268 
L 118.209444 296.05159 
L 122.006603 297.6048 
L 123.38173 298.162368 
L 127.617683 299.95692 
L 128.445404 300.300241 
L 128.985739 300.535815 
L 129.860388 300.9312 
L 131.276788 301.539866 
L 132.146486 301.90548 
L 134.267957 302.83428 
L 137.416413 304.2576 
L 139.097419 305.009849 
L 142.508894 306.60972 
L 143.632724 307.123616 
L 144.588515 307.584 
L 149.02272 307.584 
L 157.11744 307.584 
L 165.21216 307.584 
L 173.30688 307.584 
L 181.4016 307.584 
L 189.49632 307.584 
L 197.59104 307.584 
L 205.68576 307.584 
L 213.78048 307.584 
L 221.8752 307.584 
" clip-path="url(#p94467ef7f4)" style="fill: #ff3800"/>
   </g>
   <g id="PathCollection_20">
    <path d="M 144.588515 307.584 
L 143.632724 307.123616 
L 142.508894 306.60972 
L 139.097419 305.009849 
L 137.416413 304.2576 
L 134.267957 302.83428 
L 132.146486 301.90548 
L 131.276788 301.539866 
L 129.860388 300.9312 
L 128.985739 300.535815 
L 128.445404 300.300241 
L 127.617683 299.95692 
L 123.38173 298.162368 
L 122.006603 297.6048 
L 118.209444 296.05159 
L 116.195333 295.25268 
L 115.289302 294.905867 
L 113.682587 294.2784 
L 112.155683 293.66451 
L 111.200316 293.30412 
L 106.870698 291.641721 
L 104.998071 290.952 
L 101.691419 289.724774 
L 100.4544 289.27659 
L 100.4544 290.952 
L 100.4544 294.2784 
L 100.4544 297.6048 
L 100.4544 300.9312 
L 100.4544 304.2576 
L 100.4544 307.584 
L 108.54912 307.584 
L 116.64384 307.584 
L 124.73856 307.584 
L 132.83328 307.584 
L 140.928 307.584 
" clip-path="url(#p94467ef7f4)" style="fill: #b60000"/>
   </g>
   <g id="matplotlib.axis_1">
    <g id="xtick_1">
     <g id="line2d_1">
      <defs>
       <path id="md9fd0a8603" d="M 0 0 
L 0 3.5 
" style="stroke: #000000; stroke-width: 0.8"/>
      </defs>
      <g>
       <use xlink:href="#md9fd0a8603" x="57.6" y="307.584" style="stroke: #000000; stroke-width: 0.8"/>
      </g>
     </g>
     <g id="text_1">
      <!-- 0.0 -->
      <g transform="translate(51.26875 321.385562) scale(0.1 -0.1)">
       <defs>
        <path id="Calibri-30" d="M 3022 2031 
Q 3022 1566 2948 1181 
Q 2875 797 2704 520 
Q 2534 244 2259 92 
Q 1984 -59 1581 -59 
Q 1200 -59 939 77 
Q 678 213 518 477 
Q 359 741 292 1127 
Q 225 1513 225 2013 
Q 225 2475 300 2861 
Q 375 3247 544 3523 
Q 713 3800 988 3951 
Q 1263 4103 1663 4103 
Q 2047 4103 2308 3967 
Q 2569 3831 2728 3567 
Q 2888 3303 2955 2917 
Q 3022 2531 3022 2031 
z
M 2472 1994 
Q 2472 2297 2450 2537 
Q 2428 2778 2386 2962 
Q 2344 3147 2276 3280 
Q 2209 3413 2115 3498 
Q 2022 3584 1901 3623 
Q 1781 3663 1631 3663 
Q 1366 3663 1200 3538 
Q 1034 3413 939 3194 
Q 844 2975 809 2681 
Q 775 2388 775 2050 
Q 775 1597 822 1280 
Q 869 963 970 763 
Q 1072 563 1230 472 
Q 1388 381 1613 381 
Q 1788 381 1920 437 
Q 2053 494 2148 598 
Q 2244 703 2306 850 
Q 2369 997 2406 1175 
Q 2444 1353 2458 1561 
Q 2472 1769 2472 1994 
z
" transform="scale(0.015625)"/>
        <path id="Calibri-2e" d="M 1144 341 
Q 1144 119 1070 45 
Q 997 -28 803 -28 
Q 616 -28 544 44 
Q 472 116 472 331 
Q 472 553 545 626 
Q 619 700 813 700 
Q 1000 700 1072 628 
Q 1144 556 1144 341 
z
" transform="scale(0.015625)"/>
       </defs>
       <use xlink:href="#Calibri-30"/>
       <use xlink:href="#Calibri-2e" x="50.683594"/>
       <use xlink:href="#Calibri-30" x="75.927734"/>
      </g>
     </g>
    </g>
    <g id="xtick_2">
     <g id="line2d_2">
      <g>
       <use xlink:href="#md9fd0a8603" x="86.1696" y="307.584" style="stroke: #000000; stroke-width: 0.8"/>
      </g>
     </g>
     <g id="text_2">
      <!-- 0.1 -->
      <g transform="translate(79.83835 321.385562) scale(0.1 -0.1)">
       <defs>
        <path id="Calibri-31" d="M 2897 213 
Q 2897 153 2887 112 
Q 2878 72 2862 47 
Q 2847 22 2826 11 
Q 2806 0 2784 0 
L 672 0 
Q 650 0 631 11 
Q 613 22 595 47 
Q 578 72 568 112 
Q 559 153 559 213 
Q 559 269 568 309 
Q 578 350 592 376 
Q 606 403 626 417 
Q 647 431 672 431 
L 1516 431 
L 1516 3506 
L 734 3041 
Q 675 3009 639 3003 
Q 603 2997 581 3017 
Q 559 3038 551 3084 
Q 544 3131 544 3203 
Q 544 3256 548 3293 
Q 553 3331 562 3356 
Q 572 3381 589 3400 
Q 606 3419 634 3438 
L 1566 4034 
Q 1578 4044 1597 4050 
Q 1616 4056 1644 4062 
Q 1672 4069 1709 4070 
Q 1747 4072 1803 4072 
Q 1878 4072 1928 4065 
Q 1978 4059 2006 4048 
Q 2034 4038 2043 4020 
Q 2053 4003 2053 3984 
L 2053 431 
L 2784 431 
Q 2809 431 2831 417 
Q 2853 403 2867 376 
Q 2881 350 2889 309 
Q 2897 269 2897 213 
z
" transform="scale(0.015625)"/>
       </defs>
       <use xlink:href="#Calibri-30"/>
       <use xlink:href="#Calibri-2e" x="50.683594"/>
       <use xlink:href="#Calibri-31" x="75.927734"/>
      </g>
     </g>
    </g>
    <g id="xtick_3">
     <g id="line2d_3">
      <g>
       <use xlink:href="#md9fd0a8603" x="114.7392" y="307.584" style="stroke: #000000; stroke-width: 0.8"/>
      </g>
     </g>
     <g id="text_3">
      <!-- 0.2 -->
      <g transform="translate(108.40795 321.385562) scale(0.1 -0.1)">
       <defs>
        <path id="Calibri-32" d="M 2888 231 
Q 2888 175 2880 131 
Q 2872 88 2858 58 
Q 2844 28 2820 14 
Q 2797 0 2769 0 
L 534 0 
Q 491 0 458 11 
Q 425 22 401 47 
Q 378 72 367 119 
Q 356 166 356 234 
Q 356 297 361 344 
Q 366 391 381 427 
Q 397 463 420 498 
Q 444 534 481 575 
L 1266 1406 
Q 1538 1694 1702 1922 
Q 1866 2150 1955 2337 
Q 2044 2525 2072 2678 
Q 2100 2831 2100 2966 
Q 2100 3100 2056 3220 
Q 2013 3341 1930 3431 
Q 1847 3522 1722 3575 
Q 1597 3628 1434 3628 
Q 1244 3628 1092 3575 
Q 941 3522 827 3459 
Q 713 3397 636 3344 
Q 559 3291 522 3291 
Q 500 3291 483 3303 
Q 466 3316 455 3344 
Q 444 3372 437 3419 
Q 431 3466 431 3531 
Q 431 3578 434 3612 
Q 438 3647 445 3672 
Q 453 3697 465 3719 
Q 478 3741 515 3773 
Q 553 3806 645 3862 
Q 738 3919 877 3973 
Q 1016 4028 1183 4065 
Q 1350 4103 1534 4103 
Q 1828 4103 2048 4020 
Q 2269 3938 2414 3794 
Q 2559 3650 2631 3459 
Q 2703 3269 2703 3053 
Q 2703 2859 2668 2667 
Q 2634 2475 2523 2251 
Q 2413 2028 2203 1754 
Q 1994 1481 1647 1125 
L 1006 456 
L 2766 456 
Q 2791 456 2814 442 
Q 2838 428 2855 400 
Q 2872 372 2880 330 
Q 2888 288 2888 231 
z
" transform="scale(0.015625)"/>
       </defs>
       <use xlink:href="#Calibri-30"/>
       <use xlink:href="#Calibri-2e" x="50.683594"/>
       <use xlink:href="#Calibri-32" x="75.927734"/>
      </g>
     </g>
    </g>
    <g id="xtick_4">
     <g id="line2d_4">
      <g>
       <use xlink:href="#md9fd0a8603" x="143.3088" y="307.584" style="stroke: #000000; stroke-width: 0.8"/>
      </g>
     </g>
     <g id="text_4">
      <!-- 0.3 -->
      <g transform="translate(136.97755 321.385562) scale(0.1 -0.1)">
       <defs>
        <path id="Calibri-33" d="M 2856 1156 
Q 2856 878 2759 654 
Q 2663 431 2481 272 
Q 2300 113 2034 27 
Q 1769 -59 1434 -59 
Q 1231 -59 1054 -26 
Q 878 6 740 51 
Q 603 97 512 145 
Q 422 194 398 216 
Q 375 238 362 259 
Q 350 281 340 312 
Q 331 344 326 389 
Q 322 434 322 500 
Q 322 613 344 656 
Q 366 700 406 700 
Q 434 700 517 650 
Q 600 600 729 542 
Q 859 484 1032 434 
Q 1206 384 1419 384 
Q 1625 384 1781 437 
Q 1938 491 2044 587 
Q 2150 684 2203 817 
Q 2256 950 2256 1106 
Q 2256 1278 2189 1415 
Q 2122 1553 1992 1653 
Q 1863 1753 1673 1806 
Q 1484 1859 1244 1859 
L 859 1859 
Q 834 1859 811 1870 
Q 788 1881 770 1906 
Q 753 1931 742 1972 
Q 731 2013 731 2078 
Q 731 2138 740 2177 
Q 750 2216 767 2239 
Q 784 2263 806 2273 
Q 828 2284 856 2284 
L 1209 2284 
Q 1416 2284 1580 2337 
Q 1744 2391 1858 2491 
Q 1972 2591 2033 2730 
Q 2094 2869 2094 3041 
Q 2094 3166 2053 3280 
Q 2013 3394 1931 3478 
Q 1850 3563 1723 3611 
Q 1597 3659 1431 3659 
Q 1250 3659 1098 3604 
Q 947 3550 828 3487 
Q 709 3425 631 3370 
Q 553 3316 522 3316 
Q 500 3316 483 3323 
Q 466 3331 455 3354 
Q 444 3378 439 3420 
Q 434 3463 434 3531 
Q 434 3578 437 3614 
Q 441 3650 450 3676 
Q 459 3703 471 3725 
Q 484 3747 514 3776 
Q 544 3806 634 3862 
Q 725 3919 858 3973 
Q 991 4028 1164 4065 
Q 1338 4103 1538 4103 
Q 1819 4103 2031 4031 
Q 2244 3959 2386 3828 
Q 2528 3697 2598 3514 
Q 2669 3331 2669 3109 
Q 2669 2919 2619 2755 
Q 2569 2591 2472 2464 
Q 2375 2338 2234 2248 
Q 2094 2159 1909 2125 
L 1909 2119 
Q 2119 2097 2292 2014 
Q 2466 1931 2591 1806 
Q 2716 1681 2786 1514 
Q 2856 1347 2856 1156 
z
" transform="scale(0.015625)"/>
       </defs>
       <use xlink:href="#Calibri-30"/>
       <use xlink:href="#Calibri-2e" x="50.683594"/>
       <use xlink:href="#Calibri-33" x="75.927734"/>
      </g>
     </g>
    </g>
    <g id="xtick_5">
     <g id="line2d_5">
      <g>
       <use xlink:href="#md9fd0a8603" x="171.8784" y="307.584" style="stroke: #000000; stroke-width: 0.8"/>
      </g>
     </g>
     <g id="text_5">
      <!-- 0.4 -->
      <g transform="translate(165.54715 321.385562) scale(0.1 -0.1)">
       <defs>
        <path id="Calibri-34" d="M 3059 1150 
Q 3059 1047 3028 987 
Q 2997 928 2941 928 
L 2484 928 
L 2484 78 
Q 2484 53 2471 36 
Q 2459 19 2428 6 
Q 2397 -6 2347 -12 
Q 2297 -19 2219 -19 
Q 2144 -19 2094 -12 
Q 2044 -6 2014 6 
Q 1984 19 1973 36 
Q 1963 53 1963 78 
L 1963 928 
L 294 928 
Q 256 928 231 937 
Q 206 947 186 972 
Q 166 997 158 1044 
Q 150 1091 150 1166 
Q 150 1225 153 1272 
Q 156 1319 165 1358 
Q 175 1397 190 1433 
Q 206 1469 228 1509 
L 1684 3966 
Q 1700 3991 1729 4009 
Q 1759 4028 1806 4040 
Q 1853 4053 1922 4058 
Q 1991 4063 2084 4063 
Q 2188 4063 2264 4055 
Q 2341 4047 2387 4034 
Q 2434 4022 2459 4001 
Q 2484 3981 2484 3953 
L 2484 1372 
L 2941 1372 
Q 2994 1372 3026 1317 
Q 3059 1263 3059 1150 
z
M 1963 3591 
L 1956 3591 
L 641 1372 
L 1963 1372 
L 1963 3591 
z
" transform="scale(0.015625)"/>
       </defs>
       <use xlink:href="#Calibri-30"/>
       <use xlink:href="#Calibri-2e" x="50.683594"/>
       <use xlink:href="#Calibri-34" x="75.927734"/>
      </g>
     </g>
    </g>
    <g id="xtick_6">
     <g id="line2d_6">
      <g>
       <use xlink:href="#md9fd0a8603" x="200.448" y="307.584" style="stroke: #000000; stroke-width: 0.8"/>
      </g>
     </g>
     <g id="text_6">
      <!-- 0.5 -->
      <g transform="translate(194.11675 321.385562) scale(0.1 -0.1)">
       <defs>
        <path id="Calibri-35" d="M 2869 1300 
Q 2869 975 2759 722 
Q 2650 469 2450 295 
Q 2250 122 1973 31 
Q 1697 -59 1359 -59 
Q 1172 -59 1003 -32 
Q 834 -6 703 33 
Q 572 72 487 109 
Q 403 147 379 169 
Q 356 191 347 209 
Q 338 228 330 254 
Q 322 281 319 322 
Q 316 363 316 419 
Q 316 472 320 514 
Q 325 556 337 582 
Q 350 609 367 621 
Q 384 634 406 634 
Q 438 634 503 595 
Q 569 556 680 511 
Q 791 466 955 425 
Q 1119 384 1344 384 
Q 1553 384 1728 434 
Q 1903 484 2029 590 
Q 2156 697 2228 858 
Q 2300 1019 2300 1250 
Q 2300 1444 2239 1592 
Q 2178 1741 2051 1839 
Q 1925 1938 1731 1986 
Q 1538 2034 1269 2034 
Q 1078 2034 940 2015 
Q 803 1997 684 1997 
Q 597 1997 559 2037 
Q 522 2078 522 2194 
L 522 3841 
Q 522 3944 570 3994 
Q 619 4044 709 4044 
L 2500 4044 
Q 2525 4044 2548 4030 
Q 2572 4016 2587 3987 
Q 2603 3959 2611 3915 
Q 2619 3872 2619 3813 
Q 2619 3700 2587 3637 
Q 2556 3575 2500 3575 
L 991 3575 
L 991 2441 
Q 1100 2456 1214 2459 
Q 1328 2463 1478 2463 
Q 1825 2463 2084 2380 
Q 2344 2297 2517 2145 
Q 2691 1994 2780 1778 
Q 2869 1563 2869 1300 
z
" transform="scale(0.015625)"/>
       </defs>
       <use xlink:href="#Calibri-30"/>
       <use xlink:href="#Calibri-2e" x="50.683594"/>
       <use xlink:href="#Calibri-35" x="75.927734"/>
      </g>
     </g>
    </g>
    <g id="xtick_7">
     <g id="line2d_7">
      <g>
       <use xlink:href="#md9fd0a8603" x="229.0176" y="307.584" style="stroke: #000000; stroke-width: 0.8"/>
      </g>
     </g>
     <g id="text_7">
      <!-- 0.6 -->
      <g transform="translate(222.68635 321.385562) scale(0.1 -0.1)">
       <defs>
        <path id="Calibri-36" d="M 2991 1309 
Q 2991 1044 2909 795 
Q 2828 547 2659 358 
Q 2491 169 2231 55 
Q 1972 -59 1619 -59 
Q 1366 -59 1172 3 
Q 978 66 834 181 
Q 691 297 595 465 
Q 500 634 442 850 
Q 384 1066 359 1322 
Q 334 1578 334 1872 
Q 334 2131 362 2397 
Q 391 2663 462 2909 
Q 534 3156 657 3373 
Q 781 3591 967 3752 
Q 1153 3913 1412 4006 
Q 1672 4100 2016 4100 
Q 2131 4100 2250 4086 
Q 2369 4072 2469 4048 
Q 2569 4025 2637 3997 
Q 2706 3969 2728 3951 
Q 2750 3934 2761 3914 
Q 2772 3894 2778 3870 
Q 2784 3847 2787 3817 
Q 2791 3788 2791 3744 
Q 2791 3688 2789 3647 
Q 2788 3606 2777 3581 
Q 2766 3556 2748 3543 
Q 2731 3531 2703 3531 
Q 2669 3531 2609 3553 
Q 2550 3575 2465 3601 
Q 2381 3628 2261 3650 
Q 2141 3672 1981 3672 
Q 1691 3672 1481 3553 
Q 1272 3434 1139 3234 
Q 1006 3034 942 2770 
Q 878 2506 869 2219 
Q 950 2266 1051 2312 
Q 1153 2359 1273 2396 
Q 1394 2434 1528 2457 
Q 1663 2481 1816 2481 
Q 2144 2481 2369 2392 
Q 2594 2303 2733 2145 
Q 2872 1988 2931 1773 
Q 2991 1559 2991 1309 
z
M 2447 1259 
Q 2447 1441 2411 1589 
Q 2375 1738 2290 1841 
Q 2206 1944 2065 2000 
Q 1925 2056 1719 2056 
Q 1603 2056 1487 2036 
Q 1372 2016 1264 1980 
Q 1156 1944 1057 1895 
Q 959 1847 878 1791 
Q 878 1388 929 1116 
Q 981 844 1079 680 
Q 1178 516 1325 445 
Q 1472 375 1669 375 
Q 1869 375 2016 450 
Q 2163 525 2259 651 
Q 2356 778 2401 936 
Q 2447 1094 2447 1259 
z
" transform="scale(0.015625)"/>
       </defs>
       <use xlink:href="#Calibri-30"/>
       <use xlink:href="#Calibri-2e" x="50.683594"/>
       <use xlink:href="#Calibri-36" x="75.927734"/>
      </g>
     </g>
    </g>
    <g id="xtick_8">
     <g id="line2d_8">
      <g>
       <use xlink:href="#md9fd0a8603" x="257.5872" y="307.584" style="stroke: #000000; stroke-width: 0.8"/>
      </g>
     </g>
     <g id="text_8">
      <!-- 0.7 -->
      <g transform="translate(251.25595 321.385562) scale(0.1 -0.1)">
       <defs>
        <path id="Calibri-37" d="M 2947 3813 
Q 2947 3756 2942 3711 
Q 2938 3666 2930 3623 
Q 2922 3581 2908 3542 
Q 2894 3503 2875 3459 
L 1419 103 
Q 1403 66 1379 42 
Q 1356 19 1320 5 
Q 1284 -9 1228 -14 
Q 1172 -19 1091 -19 
Q 984 -19 925 -9 
Q 866 0 839 20 
Q 813 41 816 70 
Q 819 100 838 141 
L 2369 3572 
L 428 3572 
Q 369 3572 339 3634 
Q 309 3697 309 3809 
Q 309 3869 317 3912 
Q 325 3956 340 3986 
Q 356 4016 378 4030 
Q 400 4044 428 4044 
L 2784 4044 
Q 2828 4044 2861 4034 
Q 2894 4025 2911 3997 
Q 2928 3969 2937 3925 
Q 2947 3881 2947 3813 
z
" transform="scale(0.015625)"/>
       </defs>
       <use xlink:href="#Calibri-30"/>
       <use xlink:href="#Calibri-2e" x="50.683594"/>
       <use xlink:href="#Calibri-37" x="75.927734"/>
      </g>
     </g>
    </g>
    <g id="xtick_9">
     <g id="line2d_9">
      <g>
       <use xlink:href="#md9fd0a8603" x="286.1568" y="307.584" style="stroke: #000000; stroke-width: 0.8"/>
      </g>
     </g>
     <g id="text_9">
      <!-- 0.8 -->
      <g transform="translate(279.82555 321.385562) scale(0.1 -0.1)">
       <defs>
        <path id="Calibri-38" d="M 2981 1038 
Q 2981 775 2887 570 
Q 2794 366 2617 225 
Q 2441 84 2181 12 
Q 1922 -59 1588 -59 
Q 1275 -59 1028 6 
Q 781 72 609 200 
Q 438 328 347 515 
Q 256 703 256 944 
Q 256 1134 318 1293 
Q 381 1453 498 1587 
Q 616 1722 787 1839 
Q 959 1956 1175 2063 
Q 988 2159 844 2267 
Q 700 2375 600 2501 
Q 500 2628 448 2772 
Q 397 2916 397 3084 
Q 397 3297 473 3483 
Q 550 3669 704 3806 
Q 859 3944 1098 4023 
Q 1338 4103 1656 4103 
Q 1963 4103 2186 4029 
Q 2409 3956 2554 3829 
Q 2700 3703 2769 3531 
Q 2838 3359 2838 3163 
Q 2838 3003 2786 2856 
Q 2734 2709 2634 2578 
Q 2534 2447 2389 2333 
Q 2244 2219 2056 2119 
Q 2278 2009 2451 1893 
Q 2625 1778 2742 1645 
Q 2859 1513 2920 1364 
Q 2981 1216 2981 1038 
z
M 2306 3113 
Q 2306 3244 2261 3350 
Q 2216 3456 2128 3531 
Q 2041 3606 1911 3645 
Q 1781 3684 1616 3684 
Q 1278 3684 1104 3531 
Q 931 3378 931 3113 
Q 931 2991 973 2886 
Q 1016 2781 1105 2687 
Q 1194 2594 1330 2505 
Q 1466 2416 1653 2319 
Q 1969 2481 2137 2678 
Q 2306 2875 2306 3113 
z
M 2438 981 
Q 2438 1125 2384 1242 
Q 2331 1359 2223 1461 
Q 2116 1563 1955 1658 
Q 1794 1753 1581 1856 
Q 1384 1759 1236 1662 
Q 1088 1566 992 1462 
Q 897 1359 848 1245 
Q 800 1131 800 994 
Q 800 691 1008 525 
Q 1216 359 1628 359 
Q 2028 359 2233 526 
Q 2438 694 2438 981 
z
" transform="scale(0.015625)"/>
       </defs>
       <use xlink:href="#Calibri-30"/>
       <use xlink:href="#Calibri-2e" x="50.683594"/>
       <use xlink:href="#Calibri-38" x="75.927734"/>
      </g>
     </g>
    </g>
    <g id="xtick_10">
     <g id="line2d_10">
      <g>
       <use xlink:href="#md9fd0a8603" x="314.7264" y="307.584" style="stroke: #000000; stroke-width: 0.8"/>
      </g>
     </g>
     <g id="text_10">
      <!-- 0.9 -->
      <g transform="translate(308.39515 321.385562) scale(0.1 -0.1)">
       <defs>
        <path id="Calibri-39" d="M 2919 2181 
Q 2919 1919 2887 1650 
Q 2856 1381 2781 1132 
Q 2706 884 2579 667 
Q 2453 450 2261 287 
Q 2069 125 1805 33 
Q 1541 -59 1191 -59 
Q 1056 -59 929 -42 
Q 803 -25 701 0 
Q 600 25 531 53 
Q 463 81 431 109 
Q 400 138 386 186 
Q 372 234 372 316 
Q 372 384 376 425 
Q 381 466 390 487 
Q 400 509 417 517 
Q 434 525 459 525 
Q 494 525 556 501 
Q 619 478 714 450 
Q 809 422 937 398 
Q 1066 375 1225 375 
Q 1528 375 1745 492 
Q 1963 609 2100 806 
Q 2238 1003 2306 1262 
Q 2375 1522 2381 1809 
Q 2216 1713 1984 1638 
Q 1753 1563 1453 1563 
Q 1116 1563 886 1655 
Q 656 1747 517 1906 
Q 378 2066 317 2284 
Q 256 2503 256 2763 
Q 256 3031 334 3273 
Q 413 3516 578 3700 
Q 744 3884 1000 3993 
Q 1256 4103 1613 4103 
Q 1866 4103 2061 4039 
Q 2256 3975 2400 3854 
Q 2544 3734 2644 3564 
Q 2744 3394 2805 3178 
Q 2866 2963 2892 2711 
Q 2919 2459 2919 2181 
z
M 2372 2241 
Q 2372 2641 2319 2914 
Q 2266 3188 2162 3356 
Q 2059 3525 1909 3600 
Q 1759 3675 1563 3675 
Q 1359 3675 1215 3601 
Q 1072 3528 980 3404 
Q 888 3281 844 3125 
Q 800 2969 800 2803 
Q 800 2619 839 2466 
Q 878 2313 965 2206 
Q 1053 2100 1193 2042 
Q 1334 1984 1541 1984 
Q 1775 1984 1994 2054 
Q 2213 2125 2372 2241 
z
" transform="scale(0.015625)"/>
       </defs>
       <use xlink:href="#Calibri-30"/>
       <use xlink:href="#Calibri-2e" x="50.683594"/>
       <use xlink:href="#Calibri-39" x="75.927734"/>
      </g>
     </g>
    </g>
    <g id="xtick_11">
     <g id="line2d_11">
      <g>
       <use xlink:href="#md9fd0a8603" x="343.296" y="307.584" style="stroke: #000000; stroke-width: 0.8"/>
      </g>
     </g>
     <g id="text_11">
      <!-- 1.0 -->
      <g transform="translate(336.96475 321.385562) scale(0.1 -0.1)">
       <use xlink:href="#Calibri-31"/>
       <use xlink:href="#Calibri-2e" x="50.683594"/>
       <use xlink:href="#Calibri-30" x="75.927734"/>
      </g>
     </g>
    </g>
    <g id="text_12">
     <!-- $\mathit{p}$ (cm$^2$/cm$^2$) -->
     <g transform="translate(174.148 336.263687) scale(0.1 -0.1)">
      <defs>
       <path id="DejaVuSans-Oblique-70" d="M 3175 2156 
Q 3175 2616 2975 2859 
Q 2775 3103 2400 3103 
Q 2144 3103 1911 2972 
Q 1678 2841 1497 2591 
Q 1319 2344 1212 1994 
Q 1106 1644 1106 1300 
Q 1106 863 1306 627 
Q 1506 391 1875 391 
Q 2147 391 2380 519 
Q 2613 647 2778 891 
Q 2956 1147 3065 1494 
Q 3175 1841 3175 2156 
z
M 1394 2969 
Q 1625 3272 1939 3428 
Q 2253 3584 2638 3584 
Q 3175 3584 3472 3232 
Q 3769 2881 3769 2247 
Q 3769 1728 3584 1258 
Q 3400 788 3053 416 
Q 2822 169 2531 39 
Q 2241 -91 1919 -91 
Q 1547 -91 1294 64 
Q 1041 219 916 525 
L 556 -1331 
L -19 -1331 
L 922 3500 
L 1497 3500 
L 1394 2969 
z
" transform="scale(0.015625)"/>
       <path id="Calibri-20" transform="scale(0.015625)"/>
       <path id="Calibri-28" d="M 1547 4306 
Q 1250 3678 1104 3017 
Q 959 2356 959 1688 
Q 959 1016 1107 356 
Q 1256 -303 1541 -938 
Q 1556 -975 1557 -1001 
Q 1559 -1028 1537 -1045 
Q 1516 -1063 1470 -1070 
Q 1425 -1078 1347 -1078 
Q 1291 -1078 1250 -1075 
Q 1209 -1072 1179 -1062 
Q 1150 -1053 1131 -1040 
Q 1113 -1028 1103 -1013 
Q 934 -694 806 -367 
Q 678 -41 590 296 
Q 503 634 459 979 
Q 416 1325 416 1678 
Q 416 2031 464 2375 
Q 513 2719 602 3058 
Q 691 3397 819 3725 
Q 947 4053 1106 4375 
Q 1109 4388 1123 4397 
Q 1138 4406 1163 4415 
Q 1188 4425 1231 4429 
Q 1275 4434 1344 4434 
Q 1416 4434 1459 4425 
Q 1503 4416 1528 4400 
Q 1553 4384 1556 4359 
Q 1559 4334 1547 4306 
z
" transform="scale(0.015625)"/>
       <path id="Calibri-63" d="M 2500 506 
Q 2500 453 2497 414 
Q 2494 375 2486 348 
Q 2478 322 2467 301 
Q 2456 281 2417 242 
Q 2378 203 2284 145 
Q 2191 88 2073 42 
Q 1956 -3 1818 -31 
Q 1681 -59 1534 -59 
Q 1231 -59 997 41 
Q 763 141 605 333 
Q 447 525 364 804 
Q 281 1084 281 1450 
Q 281 1866 382 2164 
Q 484 2463 661 2653 
Q 838 2844 1077 2936 
Q 1316 3028 1594 3028 
Q 1728 3028 1854 3003 
Q 1981 2978 2087 2937 
Q 2194 2897 2276 2844 
Q 2359 2791 2396 2753 
Q 2434 2716 2448 2694 
Q 2463 2672 2472 2642 
Q 2481 2613 2484 2575 
Q 2488 2538 2488 2481 
Q 2488 2359 2459 2311 
Q 2431 2263 2391 2263 
Q 2344 2263 2283 2314 
Q 2222 2366 2128 2428 
Q 2034 2491 1901 2542 
Q 1769 2594 1588 2594 
Q 1216 2594 1017 2308 
Q 819 2022 819 1478 
Q 819 1206 870 1001 
Q 922 797 1022 659 
Q 1122 522 1267 455 
Q 1413 388 1600 388 
Q 1778 388 1912 444 
Q 2047 500 2145 567 
Q 2244 634 2311 689 
Q 2378 744 2416 744 
Q 2438 744 2453 731 
Q 2469 719 2480 689 
Q 2491 659 2495 614 
Q 2500 569 2500 506 
z
" transform="scale(0.015625)"/>
       <path id="Calibri-6d" d="M 4650 78 
Q 4650 53 4637 36 
Q 4625 19 4597 6 
Q 4569 -6 4519 -12 
Q 4469 -19 4394 -19 
Q 4316 -19 4266 -12 
Q 4216 -6 4186 6 
Q 4156 19 4143 36 
Q 4131 53 4131 78 
L 4131 1788 
Q 4131 1966 4100 2112 
Q 4069 2259 4000 2365 
Q 3931 2472 3825 2528 
Q 3719 2584 3575 2584 
Q 3397 2584 3217 2446 
Q 3038 2309 2822 2044 
L 2822 78 
Q 2822 53 2809 36 
Q 2797 19 2767 6 
Q 2738 -6 2688 -12 
Q 2638 -19 2563 -19 
Q 2491 -19 2439 -12 
Q 2388 -6 2358 6 
Q 2328 19 2317 36 
Q 2306 53 2306 78 
L 2306 1788 
Q 2306 1966 2272 2112 
Q 2238 2259 2169 2365 
Q 2100 2472 1995 2528 
Q 1891 2584 1747 2584 
Q 1569 2584 1387 2446 
Q 1206 2309 994 2044 
L 994 78 
Q 994 53 981 36 
Q 969 19 941 6 
Q 913 -6 863 -12 
Q 813 -19 734 -19 
Q 659 -19 609 -12 
Q 559 -6 529 6 
Q 500 19 489 36 
Q 478 53 478 78 
L 478 2891 
Q 478 2916 487 2933 
Q 497 2950 525 2964 
Q 553 2978 597 2983 
Q 641 2988 713 2988 
Q 781 2988 826 2983 
Q 872 2978 897 2964 
Q 922 2950 933 2933 
Q 944 2916 944 2891 
L 944 2519 
Q 1181 2784 1404 2907 
Q 1628 3031 1856 3031 
Q 2031 3031 2170 2990 
Q 2309 2950 2415 2876 
Q 2522 2803 2597 2701 
Q 2672 2600 2722 2475 
Q 2863 2628 2989 2734 
Q 3116 2841 3233 2906 
Q 3350 2972 3461 3001 
Q 3572 3031 3684 3031 
Q 3956 3031 4140 2936 
Q 4325 2841 4439 2681 
Q 4553 2522 4601 2308 
Q 4650 2094 4650 1856 
L 4650 78 
z
" transform="scale(0.015625)"/>
       <path id="DejaVuSans-32" d="M 1228 531 
L 3431 531 
L 3431 0 
L 469 0 
L 469 531 
Q 828 903 1448 1529 
Q 2069 2156 2228 2338 
Q 2531 2678 2651 2914 
Q 2772 3150 2772 3378 
Q 2772 3750 2511 3984 
Q 2250 4219 1831 4219 
Q 1534 4219 1204 4116 
Q 875 4013 500 3803 
L 500 4441 
Q 881 4594 1212 4672 
Q 1544 4750 1819 4750 
Q 2544 4750 2975 4387 
Q 3406 4025 3406 3419 
Q 3406 3131 3298 2873 
Q 3191 2616 2906 2266 
Q 2828 2175 2409 1742 
Q 1991 1309 1228 531 
z
" transform="scale(0.015625)"/>
       <path id="Calibri-2f" d="M 525 -753 
Q 513 -794 492 -817 
Q 472 -841 440 -853 
Q 409 -866 364 -872 
Q 319 -878 253 -878 
Q 175 -878 123 -867 
Q 72 -856 44 -836 
Q 16 -816 9 -786 
Q 3 -756 22 -716 
L 1913 4469 
Q 1925 4509 1945 4532 
Q 1966 4556 1995 4570 
Q 2025 4584 2072 4589 
Q 2119 4594 2184 4594 
Q 2263 4594 2313 4583 
Q 2363 4572 2391 4553 
Q 2419 4534 2425 4503 
Q 2431 4472 2416 4431 
L 525 -753 
z
" transform="scale(0.015625)"/>
       <path id="Calibri-29" d="M 1522 1678 
Q 1522 1325 1478 979 
Q 1434 634 1346 296 
Q 1259 -41 1132 -367 
Q 1006 -694 838 -1013 
Q 828 -1028 809 -1040 
Q 791 -1053 761 -1062 
Q 731 -1072 690 -1075 
Q 650 -1078 594 -1078 
Q 513 -1078 467 -1070 
Q 422 -1063 401 -1045 
Q 381 -1028 382 -1001 
Q 384 -975 400 -938 
Q 688 -306 834 355 
Q 981 1016 981 1688 
Q 981 2356 834 3017 
Q 688 3678 394 4306 
Q 381 4334 384 4359 
Q 388 4384 413 4400 
Q 438 4416 481 4425 
Q 525 4434 597 4434 
Q 663 4434 706 4429 
Q 750 4425 776 4415 
Q 803 4406 815 4397 
Q 828 4388 834 4375 
Q 1156 3734 1339 3057 
Q 1522 2381 1522 1678 
z
" transform="scale(0.015625)"/>
      </defs>
      <use xlink:href="#DejaVuSans-Oblique-70" transform="translate(0 0.765625)"/>
      <use xlink:href="#Calibri-20" transform="translate(63.476562 0.765625)"/>
      <use xlink:href="#Calibri-28" transform="translate(84.958984 0.765625)"/>
      <use xlink:href="#Calibri-63" transform="translate(115.28125 0.765625)"/>
      <use xlink:href="#Calibri-6d" transform="translate(157.566406 0.765625)"/>
      <use xlink:href="#DejaVuSans-32" transform="translate(238.40625 39.046875) scale(0.7)"/>
      <use xlink:href="#Calibri-2f" transform="translate(285.676758 0.765625)"/>
      <use xlink:href="#Calibri-63" transform="translate(324.299805 0.765625)"/>
      <use xlink:href="#Calibri-6d" transform="translate(366.584961 0.765625)"/>
      <use xlink:href="#DejaVuSans-32" transform="translate(447.424805 39.046875) scale(0.7)"/>
      <use xlink:href="#Calibri-29" transform="translate(494.695312 0.765625)"/>
     </g>
    </g>
   </g>
   <g id="matplotlib.axis_2">
    <g id="ytick_1">
     <g id="line2d_12">
      <defs>
       <path id="maa515e05d5" d="M 0 0 
L -3.5 0 
" style="stroke: #000000; stroke-width: 0.8"/>
      </defs>
      <g>
       <use xlink:href="#maa515e05d5" x="57.6" y="275.65056" style="stroke: #000000; stroke-width: 0.8"/>
      </g>
     </g>
     <g id="text_13">
      <!-- 25 -->
      <g transform="translate(40.4625 279.051341) scale(0.1 -0.1)">
       <use xlink:href="#Calibri-32"/>
       <use xlink:href="#Calibri-35" x="50.683594"/>
      </g>
     </g>
    </g>
    <g id="ytick_2">
     <g id="line2d_13">
      <g>
       <use xlink:href="#maa515e05d5" x="57.6" y="242.38656" style="stroke: #000000; stroke-width: 0.8"/>
      </g>
     </g>
     <g id="text_14">
      <!-- 50 -->
      <g transform="translate(40.4625 245.787341) scale(0.1 -0.1)">
       <use xlink:href="#Calibri-35"/>
       <use xlink:href="#Calibri-30" x="50.683594"/>
      </g>
     </g>
    </g>
    <g id="ytick_3">
     <g id="line2d_14">
      <g>
       <use xlink:href="#maa515e05d5" x="57.6" y="209.12256" style="stroke: #000000; stroke-width: 0.8"/>
      </g>
     </g>
     <g id="text_15">
      <!-- 75 -->
      <g transform="translate(40.4625 212.523341) scale(0.1 -0.1)">
       <use xlink:href="#Calibri-37"/>
       <use xlink:href="#Calibri-35" x="50.683594"/>
      </g>
     </g>
    </g>
    <g id="ytick_4">
     <g id="line2d_15">
      <g>
       <use xlink:href="#maa515e05d5" x="57.6" y="175.85856" style="stroke: #000000; stroke-width: 0.8"/>
      </g>
     </g>
     <g id="text_16">
      <!-- 100 -->
      <g transform="translate(35.39375 179.259341) scale(0.1 -0.1)">
       <use xlink:href="#Calibri-31"/>
       <use xlink:href="#Calibri-30" x="50.683594"/>
       <use xlink:href="#Calibri-30" x="101.367188"/>
      </g>
     </g>
    </g>
    <g id="ytick_5">
     <g id="line2d_16">
      <g>
       <use xlink:href="#maa515e05d5" x="57.6" y="142.59456" style="stroke: #000000; stroke-width: 0.8"/>
      </g>
     </g>
     <g id="text_17">
      <!-- 125 -->
      <g transform="translate(35.39375 145.995341) scale(0.1 -0.1)">
       <use xlink:href="#Calibri-31"/>
       <use xlink:href="#Calibri-32" x="50.683594"/>
       <use xlink:href="#Calibri-35" x="101.367188"/>
      </g>
     </g>
    </g>
    <g id="ytick_6">
     <g id="line2d_17">
      <g>
       <use xlink:href="#maa515e05d5" x="57.6" y="109.33056" style="stroke: #000000; stroke-width: 0.8"/>
      </g>
     </g>
     <g id="text_18">
      <!-- 150 -->
      <g transform="translate(35.39375 112.731341) scale(0.1 -0.1)">
       <use xlink:href="#Calibri-31"/>
       <use xlink:href="#Calibri-35" x="50.683594"/>
       <use xlink:href="#Calibri-30" x="101.367188"/>
      </g>
     </g>
    </g>
    <g id="ytick_7">
     <g id="line2d_18">
      <g>
       <use xlink:href="#maa515e05d5" x="57.6" y="76.06656" style="stroke: #000000; stroke-width: 0.8"/>
      </g>
     </g>
     <g id="text_19">
      <!-- 175 -->
      <g transform="translate(35.39375 79.467341) scale(0.1 -0.1)">
       <use xlink:href="#Calibri-31"/>
       <use xlink:href="#Calibri-37" x="50.683594"/>
       <use xlink:href="#Calibri-35" x="101.367188"/>
      </g>
     </g>
    </g>
    <g id="ytick_8">
     <g id="line2d_19">
      <g>
       <use xlink:href="#maa515e05d5" x="57.6" y="42.80256" style="stroke: #000000; stroke-width: 0.8"/>
      </g>
     </g>
     <g id="text_20">
      <!-- 200 -->
      <g transform="translate(35.39375 46.203341) scale(0.1 -0.1)">
       <use xlink:href="#Calibri-32"/>
       <use xlink:href="#Calibri-30" x="50.683594"/>
       <use xlink:href="#Calibri-30" x="101.367188"/>
      </g>
     </g>
    </g>
    <g id="text_21">
     <!-- $\mathit{Z}$$_{a}$ (nm) -->
     <g transform="translate(29.59375 191.028) rotate(-90) scale(0.1 -0.1)">
      <defs>
       <path id="DejaVuSans-Oblique-5a" d="M 838 4666 
L 4500 4666 
L 4409 4184 
L 794 531 
L 3769 531 
L 3669 0 
L -141 0 
L -50 481 
L 3566 4134 
L 738 4134 
L 838 4666 
z
" transform="scale(0.015625)"/>
       <path id="DejaVuSans-Oblique-61" d="M 3438 1997 
L 3047 0 
L 2472 0 
L 2578 531 
Q 2325 219 2001 64 
Q 1678 -91 1281 -91 
Q 834 -91 548 182 
Q 263 456 263 884 
Q 263 1497 752 1853 
Q 1241 2209 2100 2209 
L 2900 2209 
L 2931 2363 
Q 2938 2388 2941 2417 
Q 2944 2447 2944 2509 
Q 2944 2788 2717 2942 
Q 2491 3097 2081 3097 
Q 1800 3097 1504 3025 
Q 1209 2953 897 2809 
L 997 3341 
Q 1322 3463 1633 3523 
Q 1944 3584 2234 3584 
Q 2853 3584 3176 3315 
Q 3500 3047 3500 2534 
Q 3500 2431 3484 2292 
Q 3469 2153 3438 1997 
z
M 2816 1759 
L 2241 1759 
Q 1534 1759 1195 1570 
Q 856 1381 856 984 
Q 856 709 1029 553 
Q 1203 397 1509 397 
Q 1978 397 2328 733 
Q 2678 1069 2791 1631 
L 2816 1759 
z
" transform="scale(0.015625)"/>
       <path id="Calibri-6e" d="M 2900 78 
Q 2900 53 2887 36 
Q 2875 19 2847 6 
Q 2819 -6 2769 -12 
Q 2719 -19 2644 -19 
Q 2566 -19 2516 -12 
Q 2466 -6 2437 6 
Q 2409 19 2396 36 
Q 2384 53 2384 78 
L 2384 1725 
Q 2384 1966 2346 2112 
Q 2309 2259 2237 2365 
Q 2166 2472 2052 2528 
Q 1938 2584 1788 2584 
Q 1594 2584 1400 2446 
Q 1206 2309 994 2044 
L 994 78 
Q 994 53 981 36 
Q 969 19 941 6 
Q 913 -6 863 -12 
Q 813 -19 734 -19 
Q 659 -19 609 -12 
Q 559 -6 529 6 
Q 500 19 489 36 
Q 478 53 478 78 
L 478 2891 
Q 478 2916 487 2933 
Q 497 2950 525 2964 
Q 553 2978 597 2983 
Q 641 2988 713 2988 
Q 781 2988 826 2983 
Q 872 2978 897 2964 
Q 922 2950 933 2933 
Q 944 2916 944 2891 
L 944 2519 
Q 1181 2784 1417 2907 
Q 1653 3031 1894 3031 
Q 2175 3031 2367 2936 
Q 2559 2841 2678 2681 
Q 2797 2522 2848 2308 
Q 2900 2094 2900 1794 
L 2900 78 
z
" transform="scale(0.015625)"/>
      </defs>
      <use xlink:href="#DejaVuSans-Oblique-5a" transform="translate(0 0.09375)"/>
      <use xlink:href="#DejaVuSans-Oblique-61" transform="translate(69.462891 -16.3125) scale(0.7)"/>
      <use xlink:href="#Calibri-20" transform="translate(115.092773 0.09375)"/>
      <use xlink:href="#Calibri-28" transform="translate(136.575195 0.09375)"/>
      <use xlink:href="#Calibri-6e" transform="translate(166.897461 0.09375)"/>
      <use xlink:href="#Calibri-6d" transform="translate(219.436523 0.09375)"/>
      <use xlink:href="#Calibri-29" transform="translate(299.319336 0.09375)"/>
     </g>
    </g>
   </g>
   <g id="patch_3">
    <path d="M 57.6 307.584 
L 57.6 41.472 
" style="fill: none; stroke: #000000; stroke-width: 0.8; stroke-linejoin: miter; stroke-linecap: square"/>
   </g>
   <g id="patch_4">
    <path d="M 343.296 307.584 
L 343.296 41.472 
" style="fill: none; stroke: #000000; stroke-width: 0.8; stroke-linejoin: miter; stroke-linecap: square"/>
   </g>
   <g id="patch_5">
    <path d="M 57.6 307.584 
L 343.296 307.584 
" style="fill: none; stroke: #000000; stroke-width: 0.8; stroke-linejoin: miter; stroke-linecap: square"/>
   </g>
   <g id="patch_6">
    <path d="M 57.6 41.472 
L 343.296 41.472 
" style="fill: none; stroke: #000000; stroke-width: 0.8; stroke-linejoin: miter; stroke-linecap: square"/>
   </g>
   <g id="text_22">
    <!-- $n_e$ = 1.44 -->
    <g transform="translate(181.348 35.472) scale(0.1 -0.1)">
     <defs>
      <path id="DejaVuSans-Oblique-6e" d="M 3566 2113 
L 3156 0 
L 2578 0 
L 2988 2091 
Q 3016 2238 3031 2350 
Q 3047 2463 3047 2528 
Q 3047 2791 2881 2937 
Q 2716 3084 2419 3084 
Q 1956 3084 1622 2776 
Q 1288 2469 1184 1941 
L 800 0 
L 225 0 
L 903 3500 
L 1478 3500 
L 1363 2950 
Q 1603 3253 1940 3418 
Q 2278 3584 2650 3584 
Q 3113 3584 3367 3334 
Q 3622 3084 3622 2631 
Q 3622 2519 3608 2391 
Q 3594 2263 3566 2113 
z
" transform="scale(0.015625)"/>
      <path id="DejaVuSans-Oblique-65" d="M 3078 2063 
Q 3088 2113 3092 2166 
Q 3097 2219 3097 2272 
Q 3097 2653 2873 2875 
Q 2650 3097 2266 3097 
Q 1838 3097 1509 2826 
Q 1181 2556 1013 2059 
L 3078 2063 
z
M 3578 1613 
L 903 1613 
Q 884 1494 878 1425 
Q 872 1356 872 1306 
Q 872 872 1139 634 
Q 1406 397 1894 397 
Q 2269 397 2603 481 
Q 2938 566 3225 728 
L 3116 159 
Q 2806 34 2476 -28 
Q 2147 -91 1806 -91 
Q 1078 -91 686 257 
Q 294 606 294 1247 
Q 294 1794 489 2264 
Q 684 2734 1063 3103 
Q 1306 3334 1642 3459 
Q 1978 3584 2356 3584 
Q 2950 3584 3301 3228 
Q 3653 2872 3653 2272 
Q 3653 2128 3634 1964 
Q 3616 1800 3578 1613 
z
" transform="scale(0.015625)"/>
      <path id="Calibri-3d" d="M 2891 2409 
Q 2891 2284 2855 2236 
Q 2819 2188 2772 2188 
L 409 2188 
Q 363 2188 328 2236 
Q 294 2284 294 2409 
Q 294 2522 325 2575 
Q 356 2628 409 2628 
L 2772 2628 
Q 2828 2628 2859 2575 
Q 2891 2522 2891 2409 
z
M 2891 1194 
Q 2891 1069 2855 1022 
Q 2819 975 2772 975 
L 409 975 
Q 363 975 328 1022 
Q 294 1069 294 1194 
Q 294 1309 325 1362 
Q 356 1416 409 1416 
L 2772 1416 
Q 2828 1416 2859 1362 
Q 2891 1309 2891 1194 
z
" transform="scale(0.015625)"/>
     </defs>
     <use xlink:href="#DejaVuSans-Oblique-6e" transform="translate(0 0.375)"/>
     <use xlink:href="#DejaVuSans-Oblique-65" transform="translate(63.378906 -16.03125) scale(0.7)"/>
     <use xlink:href="#Calibri-20" transform="translate(109.179688 0.375)"/>
     <use xlink:href="#Calibri-3d" transform="translate(131.787109 0.375)"/>
     <use xlink:href="#Calibri-20" transform="translate(181.591797 0.375)"/>
     <use xlink:href="#Calibri-31" transform="translate(204.199219 0.375)"/>
     <use xlink:href="#Calibri-2e" transform="translate(254.882812 0.375)"/>
     <use xlink:href="#Calibri-34" transform="translate(280.126953 0.375)"/>
     <use xlink:href="#Calibri-34" transform="translate(330.810547 0.375)"/>
    </g>
   </g>
  </g>
  <g id="axes_2">
   <g id="patch_7">
    <path d="M 361.152 307.584 
L 374.4576 307.584 
L 374.4576 41.472 
L 361.152 41.472 
z
" style="fill: #ffffff"/>
   </g>
   <g id="QuadMesh_1">
    <path d="M 361.152 307.584 
L 374.4576 307.584 
L 374.4576 280.9728 
L 361.152 280.9728 
L 361.152 307.584 
" clip-path="url(#p0acbbe615e)" style="fill: #0000b6"/>
    <path d="M 361.152 280.9728 
L 374.4576 280.9728 
L 374.4576 254.3616 
L 361.152 254.3616 
L 361.152 280.9728 
" clip-path="url(#p0acbbe615e)" style="fill: #0018ff"/>
    <path d="M 361.152 254.3616 
L 374.4576 254.3616 
L 374.4576 227.7504 
L 361.152 227.7504 
L 361.152 254.3616 
" clip-path="url(#p0acbbe615e)" style="fill: #0080ff"/>
    <path d="M 361.152 227.7504 
L 374.4576 227.7504 
L 374.4576 201.1392 
L 361.152 201.1392 
L 361.152 227.7504 
" clip-path="url(#p0acbbe615e)" style="fill: #00e4f8"/>
    <path d="M 361.152 201.1392 
L 374.4576 201.1392 
L 374.4576 174.528 
L 361.152 174.528 
L 361.152 201.1392 
" clip-path="url(#p0acbbe615e)" style="fill: #53ffa4"/>
    <path d="M 361.152 174.528 
L 374.4576 174.528 
L 374.4576 147.9168 
L 361.152 147.9168 
L 361.152 174.528 
" clip-path="url(#p0acbbe615e)" style="fill: #a4ff53"/>
    <path d="M 361.152 147.9168 
L 374.4576 147.9168 
L 374.4576 121.3056 
L 361.152 121.3056 
L 361.152 147.9168 
" clip-path="url(#p0acbbe615e)" style="fill: #f8f500"/>
    <path d="M 361.152 121.3056 
L 374.4576 121.3056 
L 374.4576 94.6944 
L 361.152 94.6944 
L 361.152 121.3056 
" clip-path="url(#p0acbbe615e)" style="fill: #ff9400"/>
    <path d="M 361.152 94.6944 
L 374.4576 94.6944 
L 374.4576 68.0832 
L 361.152 68.0832 
L 361.152 94.6944 
" clip-path="url(#p0acbbe615e)" style="fill: #ff3800"/>
    <path d="M 361.152 68.0832 
L 374.4576 68.0832 
L 374.4576 41.472 
L 361.152 41.472 
L 361.152 68.0832 
" clip-path="url(#p0acbbe615e)" style="fill: #b60000"/>
   </g>
   <g id="matplotlib.axis_3"/>
   <g id="matplotlib.axis_4">
    <g id="ytick_9">
     <g id="line2d_20">
      <defs>
       <path id="mebc972112f" d="M 0 0 
L 3.5 0 
" style="stroke: #000000; stroke-width: 0.8"/>
      </defs>
      <g>
       <use xlink:href="#mebc972112f" x="374.4576" y="307.584" style="stroke: #000000; stroke-width: 0.8"/>
      </g>
     </g>
     <g id="text_23">
      <!-- 0 -->
      <g transform="translate(381.4576 310.984781) scale(0.1 -0.1)">
       <use xlink:href="#Calibri-30"/>
      </g>
     </g>
    </g>
    <g id="ytick_10">
     <g id="line2d_21">
      <g>
       <use xlink:href="#mebc972112f" x="374.4576" y="280.9728" style="stroke: #000000; stroke-width: 0.8"/>
      </g>
     </g>
     <g id="text_24">
      <!-- 0.1 -->
      <g transform="translate(381.4576 284.373581) scale(0.1 -0.1)">
       <use xlink:href="#Calibri-30"/>
       <use xlink:href="#Calibri-2e" x="50.683594"/>
       <use xlink:href="#Calibri-31" x="75.927734"/>
      </g>
     </g>
    </g>
    <g id="ytick_11">
     <g id="line2d_22">
      <g>
       <use xlink:href="#mebc972112f" x="374.4576" y="254.3616" style="stroke: #000000; stroke-width: 0.8"/>
      </g>
     </g>
     <g id="text_25">
      <!-- 0.2 -->
      <g transform="translate(381.4576 257.762381) scale(0.1 -0.1)">
       <use xlink:href="#Calibri-30"/>
       <use xlink:href="#Calibri-2e" x="50.683594"/>
       <use xlink:href="#Calibri-32" x="75.927734"/>
      </g>
     </g>
    </g>
    <g id="ytick_12">
     <g id="line2d_23">
      <g>
       <use xlink:href="#mebc972112f" x="374.4576" y="227.7504" style="stroke: #000000; stroke-width: 0.8"/>
      </g>
     </g>
     <g id="text_26">
      <!-- 0.3 -->
      <g transform="translate(381.4576 231.151181) scale(0.1 -0.1)">
       <use xlink:href="#Calibri-30"/>
       <use xlink:href="#Calibri-2e" x="50.683594"/>
       <use xlink:href="#Calibri-33" x="75.927734"/>
      </g>
     </g>
    </g>
    <g id="ytick_13">
     <g id="line2d_24">
      <g>
       <use xlink:href="#mebc972112f" x="374.4576" y="201.1392" style="stroke: #000000; stroke-width: 0.8"/>
      </g>
     </g>
     <g id="text_27">
      <!-- 0.4 -->
      <g transform="translate(381.4576 204.539981) scale(0.1 -0.1)">
       <use xlink:href="#Calibri-30"/>
       <use xlink:href="#Calibri-2e" x="50.683594"/>
       <use xlink:href="#Calibri-34" x="75.927734"/>
      </g>
     </g>
    </g>
    <g id="ytick_14">
     <g id="line2d_25">
      <g>
       <use xlink:href="#mebc972112f" x="374.4576" y="174.528" style="stroke: #000000; stroke-width: 0.8"/>
      </g>
     </g>
     <g id="text_28">
      <!-- 0.5 -->
      <g transform="translate(381.4576 177.928781) scale(0.1 -0.1)">
       <use xlink:href="#Calibri-30"/>
       <use xlink:href="#Calibri-2e" x="50.683594"/>
       <use xlink:href="#Calibri-35" x="75.927734"/>
      </g>
     </g>
    </g>
    <g id="ytick_15">
     <g id="line2d_26">
      <g>
       <use xlink:href="#mebc972112f" x="374.4576" y="147.9168" style="stroke: #000000; stroke-width: 0.8"/>
      </g>
     </g>
     <g id="text_29">
      <!-- 0.6 -->
      <g transform="translate(381.4576 151.317581) scale(0.1 -0.1)">
       <use xlink:href="#Calibri-30"/>
       <use xlink:href="#Calibri-2e" x="50.683594"/>
       <use xlink:href="#Calibri-36" x="75.927734"/>
      </g>
     </g>
    </g>
    <g id="ytick_16">
     <g id="line2d_27">
      <g>
       <use xlink:href="#mebc972112f" x="374.4576" y="121.3056" style="stroke: #000000; stroke-width: 0.8"/>
      </g>
     </g>
     <g id="text_30">
      <!-- 0.7 -->
      <g transform="translate(381.4576 124.706381) scale(0.1 -0.1)">
       <use xlink:href="#Calibri-30"/>
       <use xlink:href="#Calibri-2e" x="50.683594"/>
       <use xlink:href="#Calibri-37" x="75.927734"/>
      </g>
     </g>
    </g>
    <g id="ytick_17">
     <g id="line2d_28">
      <g>
       <use xlink:href="#mebc972112f" x="374.4576" y="94.6944" style="stroke: #000000; stroke-width: 0.8"/>
      </g>
     </g>
     <g id="text_31">
      <!-- 0.8 -->
      <g transform="translate(381.4576 98.095181) scale(0.1 -0.1)">
       <use xlink:href="#Calibri-30"/>
       <use xlink:href="#Calibri-2e" x="50.683594"/>
       <use xlink:href="#Calibri-38" x="75.927734"/>
      </g>
     </g>
    </g>
    <g id="ytick_18">
     <g id="line2d_29">
      <g>
       <use xlink:href="#mebc972112f" x="374.4576" y="68.0832" style="stroke: #000000; stroke-width: 0.8"/>
      </g>
     </g>
     <g id="text_32">
      <!-- 0.9 -->
      <g transform="translate(381.4576 71.483981) scale(0.1 -0.1)">
       <use xlink:href="#Calibri-30"/>
       <use xlink:href="#Calibri-2e" x="50.683594"/>
       <use xlink:href="#Calibri-39" x="75.927734"/>
      </g>
     </g>
    </g>
    <g id="ytick_19">
     <g id="line2d_30">
      <g>
       <use xlink:href="#mebc972112f" x="374.4576" y="41.472" style="stroke: #000000; stroke-width: 0.8"/>
      </g>
     </g>
     <g id="text_33">
      <!-- 1.0 -->
      <g transform="translate(381.4576 44.872781) scale(0.1 -0.1)">
       <use xlink:href="#Calibri-31"/>
       <use xlink:href="#Calibri-2e" x="50.683594"/>
       <use xlink:href="#Calibri-30" x="75.927734"/>
      </g>
     </g>
    </g>
   </g>
   <g id="LineCollection_1"/>
   <g id="patch_8">
    <path d="M 361.152 307.584 
L 367.8048 307.584 
L 374.4576 307.584 
L 374.4576 41.472 
L 367.8048 41.472 
L 361.152 41.472 
L 361.152 307.584 
z
" style="fill: none; stroke: #000000; stroke-width: 0.8; stroke-linejoin: miter; stroke-linecap: square"/>
   </g>
   <g id="text_34">
    <!-- $\mathit{E}_{\mathrm{dis}}$/$\mathit{E}_{\mathrm{i}}$ -->
    <g transform="translate(353.2548 35.472) scale(0.1 -0.1)">
     <defs>
      <path id="DejaVuSans-Oblique-45" d="M 1081 4666 
L 4031 4666 
L 3928 4134 
L 1606 4134 
L 1338 2753 
L 3566 2753 
L 3463 2222 
L 1234 2222 
L 909 531 
L 3284 531 
L 3181 0 
L 172 0 
L 1081 4666 
z
" transform="scale(0.015625)"/>
      <path id="DejaVuSans-64" d="M 2906 2969 
L 2906 4863 
L 3481 4863 
L 3481 0 
L 2906 0 
L 2906 525 
Q 2725 213 2448 61 
Q 2172 -91 1784 -91 
Q 1150 -91 751 415 
Q 353 922 353 1747 
Q 353 2572 751 3078 
Q 1150 3584 1784 3584 
Q 2172 3584 2448 3432 
Q 2725 3281 2906 2969 
z
M 947 1747 
Q 947 1113 1208 752 
Q 1469 391 1925 391 
Q 2381 391 2643 752 
Q 2906 1113 2906 1747 
Q 2906 2381 2643 2742 
Q 2381 3103 1925 3103 
Q 1469 3103 1208 2742 
Q 947 2381 947 1747 
z
" transform="scale(0.015625)"/>
      <path id="DejaVuSans-69" d="M 603 3500 
L 1178 3500 
L 1178 0 
L 603 0 
L 603 3500 
z
M 603 4863 
L 1178 4863 
L 1178 4134 
L 603 4134 
L 603 4863 
z
" transform="scale(0.015625)"/>
      <path id="DejaVuSans-73" d="M 2834 3397 
L 2834 2853 
Q 2591 2978 2328 3040 
Q 2066 3103 1784 3103 
Q 1356 3103 1142 2972 
Q 928 2841 928 2578 
Q 928 2378 1081 2264 
Q 1234 2150 1697 2047 
L 1894 2003 
Q 2506 1872 2764 1633 
Q 3022 1394 3022 966 
Q 3022 478 2636 193 
Q 2250 -91 1575 -91 
Q 1294 -91 989 -36 
Q 684 19 347 128 
L 347 722 
Q 666 556 975 473 
Q 1284 391 1588 391 
Q 1994 391 2212 530 
Q 2431 669 2431 922 
Q 2431 1156 2273 1281 
Q 2116 1406 1581 1522 
L 1381 1569 
Q 847 1681 609 1914 
Q 372 2147 372 2553 
Q 372 3047 722 3315 
Q 1072 3584 1716 3584 
Q 2034 3584 2315 3537 
Q 2597 3491 2834 3397 
z
" transform="scale(0.015625)"/>
     </defs>
     <use xlink:href="#DejaVuSans-Oblique-45" transform="translate(0 0.09375)"/>
     <use xlink:href="#DejaVuSans-64" transform="translate(63.183594 -16.3125) scale(0.7)"/>
     <use xlink:href="#DejaVuSans-69" transform="translate(107.617188 -16.3125) scale(0.7)"/>
     <use xlink:href="#DejaVuSans-73" transform="translate(127.06543 -16.3125) scale(0.7)"/>
     <use xlink:href="#Calibri-2f" transform="translate(166.269531 0.09375)"/>
     <use xlink:href="#DejaVuSans-Oblique-45" transform="translate(204.892578 0.09375)"/>
     <use xlink:href="#DejaVuSans-69" transform="translate(268.076172 -16.3125) scale(0.7)"/>
    </g>
   </g>
  </g>
 </g>
 <defs>
  <clipPath id="p94467ef7f4">
   <rect x="57.6" y="41.472" width="285.696" height="266.112"/>
  </clipPath>
  <clipPath id="p0acbbe615e">
   <rect x="361.152" y="41.472" width="13.3056" height="266.112"/>
  </clipPath>
 </defs>
</svg>
