<?xml version="1.0" encoding="utf-8" standalone="no"?>
<!DOCTYPE svg PUBLIC "-//W3C//DTD SVG 1.1//EN"
  "http://www.w3.org/Graphics/SVG/1.1/DTD/svg11.dtd">
<svg xmlns:xlink="http://www.w3.org/1999/xlink" width="460.8pt" height="345.6pt" viewBox="0 0 460.8 345.6" xmlns="http://www.w3.org/2000/svg" version="1.1">
 <metadata>
  <rdf:RDF xmlns:dc="http://purl.org/dc/elements/1.1/" xmlns:cc="http://creativecommons.org/ns#" xmlns:rdf="http://www.w3.org/1999/02/22-rdf-syntax-ns#">
   <cc:Work>
    <dc:type rdf:resource="http://purl.org/dc/dcmitype/StillImage"/>
    <dc:date>2024-01-22T08:28:27.226959</dc:date>
    <dc:format>image/svg+xml</dc:format>
    <dc:creator>
     <cc:Agent>
      <dc:title>Matplotlib v3.7.1, https://matplotlib.org/</dc:title>
     </cc:Agent>
    </dc:creator>
   </cc:Work>
  </rdf:RDF>
 </metadata>
 <defs>
  <style type="text/css">*{stroke-linejoin: round; stroke-linecap: butt}</style>
 </defs>
 <g id="figure_1">
  <g id="patch_1">
   <path d="M 0 345.6 
L 460.8 345.6 
L 460.8 0 
L 0 0 
z
" style="fill: #ffffff"/>
  </g>
  <g id="axes_1">
   <g id="patch_2">
    <path d="M 57.6 307.584 
L 343.296 307.584 
L 343.296 41.472 
L 57.6 41.472 
z
" style="fill: #ffffff"/>
   </g>
   <g id="PathCollection_1">
    <path clip-path="url(#p6f56255413)" style="fill: #0000b6"/>
   </g>
   <g id="PathCollection_2">
    <path clip-path="url(#p6f56255413)" style="fill: #0018ff"/>
   </g>
   <g id="PathCollection_3">
    <path clip-path="url(#p6f56255413)" style="fill: #0080ff"/>
   </g>
   <g id="PathCollection_4">
    <path clip-path="url(#p6f56255413)" style="fill: #00e4f8"/>
   </g>
   <g id="PathCollection_5">
    <path clip-path="url(#p6f56255413)" style="fill: #53ffa4"/>
   </g>
   <g id="PathCollection_6">
    <path clip-path="url(#p6f56255413)" style="fill: #a4ff53"/>
   </g>
   <g id="PathCollection_7">
    <path d="M 57.62857 56.814679 
L 57.863708 56.864717 
L 58.662208 57.034126 
L 59.558005 57.21827 
L 60.548362 57.431324 
L 60.79393 57.482423 
L 62.038844 57.752825 
L 62.332266 57.814609 
L 63.646123 58.104 
L 63.720342 58.120208 
L 63.72677 58.121671 
L 65.100306 58.42453 
L 65.428584 58.500131 
L 66.64411 58.771933 
L 66.909294 58.833706 
L 67.861792 59.048758 
L 68.832082 59.277473 
L 69.563823 59.445028 
L 70.096822 59.572115 
L 70.614642 59.691838 
L 72.250075 60.086457 
L 72.479342 60.140221 
L 73.28956 60.337986 
L 73.358599 60.354334 
L 73.770648 60.45612 
L 75.104834 60.783459 
L 77.190694 61.308673 
L 77.344837 61.347218 
L 77.488818 61.383385 
L 77.671208 61.4304 
L 79.524067 61.905267 
L 79.861459 61.993568 
L 81.419966 62.40468 
L 81.546493 62.437827 
L 81.569137 62.444 
L 82.404752 62.665536 
L 82.598102 62.718729 
L 84.260967 63.164688 
L 84.780819 63.30971 
L 85.303058 63.451455 
L 86.081569 63.670651 
L 86.965456 63.913344 
L 87.998754 64.20838 
L 88.196442 64.263317 
L 89.583588 64.663073 
L 89.659658 64.68446 
L 89.907165 64.7568 
L 91.085461 65.098183 
L 91.222829 65.139411 
L 92.347969 65.468436 
L 93.10527 65.69842 
L 93.970315 65.954994 
L 94.453138 66.103297 
L 95.026022 66.274807 
L 96.647594 66.778831 
L 96.849777 66.84023 
L 97.690539 67.104561 
L 97.693016 67.10532 
L 97.704332 67.10892 
L 99.291648 67.610401 
L 100.752714 68.0832 
L 101.397142 68.290458 
L 101.536473 68.336163 
L 102.418277 68.627621 
L 103.00259 68.819643 
L 103.33993 68.928625 
L 103.33993 68.0832 
L 103.33993 64.7568 
L 103.33993 61.4304 
L 103.33993 58.104 
L 103.33993 54.7776 
L 103.33993 51.4512 
L 103.33993 48.1248 
L 103.33993 44.7984 
L 103.33993 41.472 
L 101.816218 41.472 
L 100.292506 41.472 
L 98.768794 41.472 
L 97.245082 41.472 
L 95.72137 41.472 
L 94.197658 41.472 
L 92.673946 41.472 
L 91.150234 41.472 
L 89.626522 41.472 
L 88.10281 41.472 
L 86.579098 41.472 
L 85.055386 41.472 
L 83.531674 41.472 
L 82.007962 41.472 
L 80.48425 41.472 
L 78.960538 41.472 
L 77.436826 41.472 
L 75.913114 41.472 
L 74.389402 41.472 
L 72.86569 41.472 
L 71.341978 41.472 
L 69.818266 41.472 
L 68.294554 41.472 
L 66.770842 41.472 
L 65.24713 41.472 
L 63.723418 41.472 
L 62.199706 41.472 
L 60.675994 41.472 
L 59.152282 41.472 
L 57.62857 41.472 
L 57.62857 44.7984 
L 57.62857 48.1248 
L 57.62857 51.4512 
L 57.62857 54.7776 
" clip-path="url(#p6f56255413)" style="fill: #f8f500"/>
   </g>
   <g id="PathCollection_8">
    <path d="M 103.33993 68.928625 
L 103.00259 68.819643 
L 102.418277 68.627621 
L 101.536473 68.336163 
L 101.397142 68.290458 
L 100.752714 68.0832 
L 99.291648 67.610401 
L 97.704332 67.10892 
L 97.693016 67.10532 
L 97.690539 67.104561 
L 96.849777 66.84023 
L 96.647594 66.778831 
L 95.026022 66.274807 
L 94.453138 66.103297 
L 93.970315 65.954994 
L 93.10527 65.69842 
L 92.347969 65.468436 
L 91.222829 65.139411 
L 91.085461 65.098183 
L 89.907165 64.7568 
L 89.659658 64.68446 
L 89.583588 64.663073 
L 88.196442 64.263317 
L 87.998754 64.20838 
L 86.965456 63.913344 
L 86.081569 63.670651 
L 85.303058 63.451455 
L 84.780819 63.30971 
L 84.260967 63.164688 
L 82.598102 62.718729 
L 82.404752 62.665536 
L 81.569137 62.444 
L 81.546493 62.437827 
L 81.419966 62.40468 
L 79.861459 61.993568 
L 79.524067 61.905267 
L 77.671208 61.4304 
L 77.488818 61.383385 
L 77.344837 61.347218 
L 77.190694 61.308673 
L 75.104834 60.783459 
L 73.770648 60.45612 
L 73.358599 60.354334 
L 73.28956 60.337986 
L 72.479342 60.140221 
L 72.250075 60.086457 
L 70.614642 59.691838 
L 70.096822 59.572115 
L 69.563823 59.445028 
L 68.832082 59.277473 
L 67.861792 59.048758 
L 66.909294 58.833706 
L 66.64411 58.771933 
L 65.428584 58.500131 
L 65.100306 58.42453 
L 63.72677 58.121671 
L 63.720342 58.120208 
L 63.646123 58.104 
L 62.332266 57.814609 
L 62.038844 57.752825 
L 60.79393 57.482423 
L 60.548362 57.431324 
L 59.558005 57.21827 
L 58.662208 57.034126 
L 57.863708 56.864717 
L 57.62857 56.814679 
L 57.62857 58.104 
L 57.62857 61.4304 
L 57.62857 64.7568 
L 57.62857 68.0832 
L 57.62857 71.4096 
L 57.62857 74.736 
L 57.62857 78.0624 
L 57.62857 81.3888 
L 57.62857 84.7152 
L 57.62857 88.0416 
L 57.62857 91.368 
L 57.62857 94.6944 
L 57.62857 98.0208 
L 57.62857 101.3472 
L 57.62857 104.6736 
L 57.62857 108 
L 57.62857 111.3264 
L 57.62857 114.6528 
L 57.62857 117.9792 
L 57.62857 121.3056 
L 57.62857 124.632 
L 57.62857 127.9584 
L 57.62857 131.2848 
L 57.62857 134.6112 
L 57.62857 137.9376 
L 57.62857 141.264 
L 57.62857 144.5904 
L 57.62857 147.9168 
L 57.62857 151.2432 
L 57.62857 154.5696 
L 57.62857 157.896 
L 57.62857 161.2224 
L 57.62857 164.5488 
L 57.62857 167.8752 
L 57.62857 169.812286 
L 57.871631 169.920561 
L 58.742561 170.307144 
L 59.424926 170.606392 
L 60.668809 171.163735 
L 60.682066 171.169593 
L 60.753107 171.2016 
L 61.953988 171.738023 
L 62.575285 172.021524 
L 63.489616 172.433836 
L 64.001898 172.669313 
L 64.476284 172.884424 
L 65.921171 173.55372 
L 66.188517 173.676736 
L 66.591712 173.863025 
L 68.012438 174.528 
L 68.19867 174.614704 
L 68.600044 174.804245 
L 70.076309 175.50228 
L 70.249056 175.583943 
L 70.316936 175.616641 
L 71.999863 176.418177 
L 72.653507 176.736104 
L 73.042448 176.922805 
L 74.228382 177.50288 
L 74.492015 177.630386 
L 74.945545 177.8544 
L 75.830862 178.287901 
L 76.012563 178.378544 
L 76.978786 178.854341 
L 78.169002 179.452807 
L 78.615161 179.674686 
L 79.379378 180.061876 
L 79.455614 180.100005 
L 79.664175 180.20652 
L 80.879781 180.823135 
L 81.041195 180.905358 
L 81.574899 181.1808 
L 82.82317 181.821475 
L 83.463946 182.15508 
L 84.389805 182.633821 
L 84.734454 182.81575 
L 85.318548 183.120218 
L 86.144669 183.558804 
L 86.845006 183.926698 
L 87.927458 184.5072 
L 88.086744 184.591874 
L 88.122553 184.611259 
L 89.292359 185.236707 
L 90.183451 185.723026 
L 90.851121 186.083657 
L 91.519052 186.451039 
L 91.730834 186.566096 
L 92.25957 186.85932 
L 93.186699 187.369935 
L 93.387217 187.480845 
L 94.016605 187.8336 
L 95.071353 188.421387 
L 95.755016 188.80788 
L 96.585284 189.273997 
L 96.924065 189.468101 
L 97.503826 189.796301 
L 98.373793 190.297678 
L 99.000092 190.655055 
L 99.86714 191.16 
L 100.250519 191.38129 
L 100.345029 191.436821 
L 101.406974 192.053415 
L 102.530367 192.719051 
L 102.992651 192.990313 
L 103.33993 193.193971 
L 103.33993 191.16 
L 103.33993 187.8336 
L 103.33993 184.5072 
L 103.33993 181.1808 
L 103.33993 177.8544 
L 103.33993 174.528 
L 103.33993 171.2016 
L 103.33993 167.8752 
L 103.33993 164.5488 
L 103.33993 161.2224 
L 103.33993 157.896 
L 103.33993 154.5696 
L 103.33993 151.2432 
L 103.33993 147.9168 
L 103.33993 144.5904 
L 103.33993 141.264 
L 103.33993 137.9376 
L 103.33993 134.6112 
L 103.33993 131.2848 
L 103.33993 127.9584 
L 103.33993 124.632 
L 103.33993 121.3056 
L 103.33993 117.9792 
L 103.33993 114.6528 
L 103.33993 111.3264 
L 103.33993 108 
L 103.33993 104.6736 
L 103.33993 101.3472 
L 103.33993 98.0208 
L 103.33993 94.6944 
L 103.33993 91.368 
L 103.33993 88.0416 
L 103.33993 84.7152 
L 103.33993 81.3888 
L 103.33993 78.0624 
L 103.33993 74.736 
L 103.33993 71.4096 
" clip-path="url(#p6f56255413)" style="fill: #ff9400"/>
   </g>
   <g id="PathCollection_9">
    <path d="M 103.33993 193.193971 
L 102.992651 192.990313 
L 102.530367 192.719051 
L 101.406974 192.053415 
L 100.345029 191.436821 
L 100.250519 191.38129 
L 99.86714 191.16 
L 99.000092 190.655055 
L 98.373793 190.297678 
L 97.503826 189.796301 
L 96.924065 189.468101 
L 96.585284 189.273997 
L 95.755016 188.80788 
L 95.071353 188.421387 
L 94.016605 187.8336 
L 93.387217 187.480845 
L 93.186699 187.369935 
L 92.25957 186.85932 
L 91.730834 186.566096 
L 91.519052 186.451039 
L 90.851121 186.083657 
L 90.183451 185.723026 
L 89.292359 185.236707 
L 88.122553 184.611259 
L 88.086744 184.591874 
L 87.927458 184.5072 
L 86.845006 183.926698 
L 86.144669 183.558804 
L 85.318548 183.120218 
L 84.734454 182.81575 
L 84.389805 182.633821 
L 83.463946 182.15508 
L 82.82317 181.821475 
L 81.574899 181.1808 
L 81.041195 180.905358 
L 80.879781 180.823135 
L 79.664175 180.20652 
L 79.455614 180.100005 
L 79.379378 180.061876 
L 78.615161 179.674686 
L 78.169002 179.452807 
L 76.978786 178.854341 
L 76.012563 178.378544 
L 75.830862 178.287901 
L 74.945545 177.8544 
L 74.492015 177.630386 
L 74.228382 177.50288 
L 73.042448 176.922805 
L 72.653507 176.736104 
L 71.999863 176.418177 
L 70.316936 175.616641 
L 70.249056 175.583943 
L 70.076309 175.50228 
L 68.600044 174.804245 
L 68.19867 174.614704 
L 68.012438 174.528 
L 66.591712 173.863025 
L 66.188517 173.676736 
L 65.921171 173.55372 
L 64.476284 172.884424 
L 64.001898 172.669313 
L 63.489616 172.433836 
L 62.575285 172.021524 
L 61.953988 171.738023 
L 60.753107 171.2016 
L 60.682066 171.169593 
L 60.668809 171.163735 
L 59.424926 170.606392 
L 58.742561 170.307144 
L 57.871631 169.920561 
L 57.62857 169.812286 
L 57.62857 171.2016 
L 57.62857 174.528 
L 57.62857 177.8544 
L 57.62857 181.1808 
L 57.62857 184.5072 
L 57.62857 187.8336 
L 57.62857 191.16 
L 57.62857 194.4864 
L 57.62857 197.8128 
L 57.62857 201.1392 
L 57.62857 204.4656 
L 57.62857 207.792 
L 57.62857 211.1184 
L 57.62857 214.4448 
L 57.62857 217.7712 
L 57.62857 221.0976 
L 57.62857 224.424 
L 57.62857 227.7504 
L 57.62857 231.0768 
L 57.62857 234.4032 
L 57.62857 237.7296 
L 57.62857 241.056 
L 57.62857 244.3824 
L 57.62857 247.7088 
L 57.62857 250.136177 
L 57.783237 250.220035 
L 59.106086 250.934351 
L 59.18028 250.974078 
L 59.292506 251.0352 
L 60.547419 251.712845 
L 60.834415 251.870153 
L 61.621564 252.297336 
L 63.169125 253.151531 
L 63.307499 253.227277 
L 63.595528 253.38732 
L 63.867259 253.536896 
L 65.083472 254.21361 
L 65.286182 254.326286 
L 65.348943 254.3616 
L 66.106073 254.786398 
L 67.086094 255.33588 
L 67.204534 255.402249 
L 67.262675 255.435316 
L 68.902639 256.360495 
L 69.647473 256.787846 
L 69.955817 256.963043 
L 71.212923 257.688 
L 71.315194 257.746471 
L 71.388208 257.788924 
L 72.70268 258.547134 
L 73.069437 258.761839 
L 73.723742 259.141195 
L 75.248212 260.04012 
L 75.380894 260.117828 
L 76.893004 261.0144 
L 77.141075 261.160666 
L 77.221836 261.208808 
L 78.493655 261.970054 
L 78.520026 261.985825 
L 78.524747 261.98868 
L 79.316825 262.463008 
L 79.742629 262.721775 
L 80.904841 263.422612 
L 81.956072 264.067317 
L 82.049126 264.123847 
L 82.40103 264.3408 
L 83.284384 264.880656 
L 83.975813 265.310397 
L 84.777586 265.804926 
L 85.40806 266.199553 
L 85.656968 266.353891 
L 86.194569 266.69292 
L 87.058309 267.233866 
L 87.233067 267.343774 
L 87.741603 267.6672 
L 88.850864 268.368601 
L 89.277031 268.64148 
L 90.38208 269.344148 
L 90.900933 269.679677 
L 91.34549 269.964511 
L 92.566055 270.758065 
L 92.732603 270.865546 
L 92.927701 270.9936 
L 94.058121 271.729019 
L 94.377153 271.93962 
L 95.078033 272.398062 
L 96.502579 273.34572 
L 96.673752 273.458794 
L 97.960999 274.32 
L 98.305512 274.54912 
L 98.425879 274.630086 
L 99.409025 275.29428 
L 99.743456 275.518625 
L 99.910397 275.632516 
L 100.587728 276.090449 
L 101.339812 276.606363 
L 102.066045 277.101005 
L 102.85336 277.6464 
L 103.283851 277.941959 
L 103.33993 277.980403 
L 103.33993 277.6464 
L 103.33993 274.32 
L 103.33993 270.9936 
L 103.33993 267.6672 
L 103.33993 264.3408 
L 103.33993 261.0144 
L 103.33993 257.688 
L 103.33993 254.3616 
L 103.33993 251.0352 
L 103.33993 247.7088 
L 103.33993 244.3824 
L 103.33993 241.056 
L 103.33993 237.7296 
L 103.33993 234.4032 
L 103.33993 231.0768 
L 103.33993 227.7504 
L 103.33993 224.424 
L 103.33993 221.0976 
L 103.33993 217.7712 
L 103.33993 214.4448 
L 103.33993 211.1184 
L 103.33993 207.792 
L 103.33993 204.4656 
L 103.33993 201.1392 
L 103.33993 197.8128 
L 103.33993 194.4864 
" clip-path="url(#p6f56255413)" style="fill: #ff3800"/>
   </g>
   <g id="PathCollection_10">
    <path d="M 103.33993 277.980403 
L 103.283851 277.941959 
L 102.85336 277.6464 
L 102.066045 277.101005 
L 101.339812 276.606363 
L 100.587728 276.090449 
L 99.910397 275.632516 
L 99.743456 275.518625 
L 99.409025 275.29428 
L 98.425879 274.630086 
L 98.305512 274.54912 
L 97.960999 274.32 
L 96.673752 273.458794 
L 96.502579 273.34572 
L 95.078033 272.398062 
L 94.377153 271.93962 
L 94.058121 271.729019 
L 92.927701 270.9936 
L 92.732603 270.865546 
L 92.566055 270.758065 
L 91.34549 269.964511 
L 90.900933 269.679677 
L 90.38208 269.344148 
L 89.277031 268.64148 
L 88.850864 268.368601 
L 87.741603 267.6672 
L 87.233067 267.343774 
L 87.058309 267.233866 
L 86.194569 266.69292 
L 85.656968 266.353891 
L 85.40806 266.199553 
L 84.777586 265.804926 
L 83.975813 265.310397 
L 83.284384 264.880656 
L 82.40103 264.3408 
L 82.049126 264.123847 
L 81.956072 264.067317 
L 80.904841 263.422612 
L 79.742629 262.721775 
L 79.316825 262.463008 
L 78.524747 261.98868 
L 78.520026 261.985825 
L 78.493655 261.970054 
L 77.221836 261.208808 
L 77.141075 261.160666 
L 76.893004 261.0144 
L 75.380894 260.117828 
L 75.248212 260.04012 
L 73.723742 259.141195 
L 73.069437 258.761839 
L 72.70268 258.547134 
L 71.388208 257.788924 
L 71.315194 257.746471 
L 71.212923 257.688 
L 69.955817 256.963043 
L 69.647473 256.787846 
L 68.902639 256.360495 
L 67.262675 255.435316 
L 67.204534 255.402249 
L 67.086094 255.33588 
L 66.106073 254.786398 
L 65.348943 254.3616 
L 65.286182 254.326286 
L 65.083472 254.21361 
L 63.867259 253.536896 
L 63.595528 253.38732 
L 63.307499 253.227277 
L 63.169125 253.151531 
L 61.621564 252.297336 
L 60.834415 251.870153 
L 60.547419 251.712845 
L 59.292506 251.0352 
L 59.18028 250.974078 
L 59.106086 250.934351 
L 57.783237 250.220035 
L 57.62857 250.136177 
L 57.62857 251.0352 
L 57.62857 254.3616 
L 57.62857 257.688 
L 57.62857 261.0144 
L 57.62857 264.3408 
L 57.62857 267.6672 
L 57.62857 270.9936 
L 57.62857 274.32 
L 57.62857 277.6464 
L 57.62857 280.9728 
L 57.62857 284.2992 
L 57.62857 287.6256 
L 57.62857 290.952 
L 57.62857 294.2784 
L 57.62857 297.6048 
L 57.62857 300.9312 
L 57.62857 304.2576 
L 57.62857 307.584 
L 59.152282 307.584 
L 60.675994 307.584 
L 62.199706 307.584 
L 63.723418 307.584 
L 65.24713 307.584 
L 66.770842 307.584 
L 68.294554 307.584 
L 69.818266 307.584 
L 71.341978 307.584 
L 72.86569 307.584 
L 74.389402 307.584 
L 75.913114 307.584 
L 77.436826 307.584 
L 78.960538 307.584 
L 80.48425 307.584 
L 82.007962 307.584 
L 83.531674 307.584 
L 85.055386 307.584 
L 86.579098 307.584 
L 88.10281 307.584 
L 89.626522 307.584 
L 91.150234 307.584 
L 92.673946 307.584 
L 94.197658 307.584 
L 95.72137 307.584 
L 97.245082 307.584 
L 98.768794 307.584 
L 100.292506 307.584 
L 101.816218 307.584 
L 103.33993 307.584 
L 103.33993 304.2576 
L 103.33993 300.9312 
L 103.33993 297.6048 
L 103.33993 294.2784 
L 103.33993 290.952 
L 103.33993 287.6256 
L 103.33993 284.2992 
L 103.33993 280.9728 
" clip-path="url(#p6f56255413)" style="fill: #b60000"/>
   </g>
   <g id="PathCollection_11">
    <path clip-path="url(#p6f56255413)" style="fill: #0000b6"/>
   </g>
   <g id="PathCollection_12">
    <path clip-path="url(#p6f56255413)" style="fill: #0018ff"/>
   </g>
   <g id="PathCollection_13">
    <path clip-path="url(#p6f56255413)" style="fill: #0080ff"/>
   </g>
   <g id="PathCollection_14">
    <path clip-path="url(#p6f56255413)" style="fill: #00e4f8"/>
   </g>
   <g id="PathCollection_15">
    <path clip-path="url(#p6f56255413)" style="fill: #53ffa4"/>
   </g>
   <g id="PathCollection_16">
    <path clip-path="url(#p6f56255413)" style="fill: #a4ff53"/>
   </g>
   <g id="PathCollection_17">
    <path d="M 100.4544 67.984766 
L 100.588182 68.028224 
L 100.752285 68.0832 
L 103.414983 68.957105 
L 103.697401 69.05748 
L 109.46353 71.033837 
L 110.477381 71.4096 
L 114.986373 73.053946 
L 116.821518 73.76172 
L 117.248647 73.926131 
L 119.235785 74.736 
L 120.956453 75.37977 
L 121.734787 75.71028 
L 126.113194 77.497516 
L 127.393838 78.0624 
L 131.17888 79.703703 
L 132.73224 80.41452 
L 133.150305 80.605721 
L 134.763109 81.3888 
L 136.477592 82.146325 
L 136.907273 82.36308 
L 141.38606 84.526967 
L 141.746414 84.7152 
L 145.041609 86.405624 
L 146.334636 87.06732 
L 146.416339 87.107404 
L 147.083654 87.468549 
L 148.077531 88.0416 
L 149.63867 88.852507 
L 149.96587 89.01588 
L 150.890727 89.514781 
L 154.153467 91.368 
L 155.410946 92.069257 
L 158.148755 93.72012 
L 159.219512 94.336597 
L 159.756775 94.6944 
L 160.814551 95.323703 
L 161.373257 95.66868 
L 161.97639 96.02409 
L 165.110499 98.0208 
L 165.172866 98.059783 
L 165.405867 98.212973 
L 168.269909 100.090665 
L 168.66702 100.37292 
L 169.032218 100.61959 
L 170.064741 101.3472 
L 170.755584 101.781468 
L 171.496966 102.32148 
L 174.304556 104.263621 
L 174.851084 104.6736 
L 176.809167 106.11281 
L 178.05898 107.02572 
L 178.250235 107.158569 
L 178.688688 107.498989 
L 179.288446 108 
L 180.155897 108.637599 
L 180.637332 108.97428 
L 182.40403 110.331905 
L 183.634378 111.3264 
L 185.637383 112.912171 
L 186.527933 113.67852 
L 187.256689 114.271582 
L 187.70237 114.6528 
L 187.904162 114.80102 
L 188.032737 114.901923 
L 188.854533 115.62708 
L 190.956055 117.379345 
L 191.617418 117.9792 
L 193.446551 119.602486 
L 194.274706 120.33132 
L 194.435138 120.464941 
L 194.804268 120.811465 
L 195.290096 121.3056 
L 195.973661 121.908598 
L 196.418878 122.27988 
L 198.251326 123.976941 
L 198.923534 124.632 
L 200.96079 126.573653 
L 201.355274 126.98412 
L 201.648806 127.271251 
L 202.311458 127.9584 
L 202.847537 128.441507 
L 203.30724 128.93268 
L 205.627551 131.26088 
L 205.651623 131.2848 
L 205.661767 131.29466 
L 207.871402 133.63692 
L 208.387245 134.151368 
L 208.771755 134.6112 
L 209.069305 134.926186 
L 209.386415 135.241106 
L 209.702992 135.58548 
L 210.192281 136.085715 
L 211.850966 137.9376 
L 212.770003 138.940078 
L 213.945288 140.28972 
L 214.109824 140.479775 
L 214.730976 141.264 
L 215.586115 142.185659 
L 215.638162 142.23828 
L 215.877357 142.510122 
L 217.615692 144.5904 
L 218.723908 145.885375 
L 219.547954 146.94252 
L 220.110429 147.61641 
L 220.344797 147.9168 
L 220.550475 148.142288 
L 221.117914 148.89108 
L 222.740299 150.887701 
L 223.002885 151.2432 
L 223.512693 151.916102 
L 224.802588 153.59532 
L 225.145796 154.012897 
L 225.314301 154.249442 
L 225.520398 154.5696 
L 225.802505 154.935207 
L 226.095427 155.287945 
L 226.286657 155.54388 
L 226.611525 155.94968 
L 228.029147 157.896 
L 228.855196 159.0019 
L 229.737709 160.24812 
L 229.865299 160.459095 
L 230.372555 161.2224 
L 230.898885 161.889485 
L 231.120685 162.19668 
L 231.627801 162.904043 
L 232.745129 164.5488 
L 233.929733 166.247976 
L 234.340808 166.90092 
L 234.602629 167.285915 
L 234.972936 167.8752 
L 235.181794 168.143574 
L 235.323032 168.341862 
L 235.632788 168.84948 
L 236.858916 170.706126 
L 237.191405 171.2016 
L 237.383995 171.4813 
L 238.673642 173.55372 
L 239.198444 174.33501 
L 239.301847 174.528 
L 239.378544 174.650316 
L 239.456879 174.764979 
L 239.901804 175.50228 
L 240.723695 176.761703 
L 241.366204 177.8544 
L 242.457524 179.659588 
L 242.794118 180.20652 
L 242.895072 180.35859 
L 243.33134 181.1808 
L 243.653818 181.701116 
L 243.960365 182.15508 
L 244.192625 182.556034 
L 245.327794 184.5072 
L 245.637456 185.024973 
L 246.674249 186.85932 
L 246.76637 187.023526 
L 247.170555 187.8336 
L 247.721602 188.7326 
L 247.771877 188.80788 
L 248.046852 189.28745 
L 249.060621 191.16 
L 250.02804 192.896626 
L 250.333932 193.51212 
L 250.517609 193.850398 
L 250.832154 194.4864 
L 251.152387 195.014354 
L 251.366455 195.46068 
L 252.147433 196.947106 
L 252.611758 197.8128 
L 252.915336 198.362936 
L 253.803029 200.16492 
L 254.320947 201.127818 
L 254.325658 201.1392 
L 254.332658 201.152575 
L 254.789666 202.11348 
L 255.704091 203.869741 
L 255.979803 204.4656 
L 256.400923 205.347812 
L 257.118949 206.81772 
L 257.356779 207.263875 
L 257.458826 207.493659 
L 257.573811 207.792 
L 257.733615 208.115922 
L 257.895297 208.411789 
L 258.062539 208.76628 
L 258.397728 209.415632 
L 259.179289 211.1184 
L 260.192229 213.257899 
L 260.28682 213.47052 
L 260.461591 213.866921 
L 260.682788 214.4448 
L 261.128774 215.311942 
L 261.177681 215.41908 
L 262.154427 217.578365 
L 262.242257 217.7712 
L 262.276126 217.843298 
L 263.282915 220.12332 
L 263.339182 220.251836 
L 263.660777 221.0976 
L 264.105848 222.014735 
L 264.136564 222.07188 
L 264.316268 222.472107 
L 265.13884 224.424 
L 265.943673 226.273143 
L 266.135411 226.77612 
L 266.245365 227.035812 
L 266.515344 227.7504 
L 266.812974 228.368372 
L 266.943146 228.72468 
L 267.390239 229.822101 
L 267.915426 231.0768 
L 268.296764 231.958976 
L 268.853539 233.42892 
L 269.172248 234.186811 
L 269.253496 234.4032 
L 269.343068 234.590513 
L 269.628818 235.37748 
L 270.561238 237.681225 
L 270.578274 237.7296 
L 270.602063 237.794751 
L 271.463011 240.08172 
L 271.775359 240.829301 
L 271.84445 241.056 
L 271.94837 241.312148 
L 272.207593 242.03028 
L 272.769259 243.426674 
L 273.103872 244.3824 
L 273.570262 245.667286 
L 273.96968 246.73452 
L 274.114765 247.0839 
L 274.304227 247.7088 
L 274.588757 248.41438 
L 274.6852 248.68308 
L 274.894367 249.206193 
L 275.531165 251.0352 
L 276.324039 253.231873 
L 276.376279 253.38732 
L 276.381258 253.407233 
L 276.669146 254.3616 
L 277.027689 255.255788 
L 277.055456 255.33588 
L 277.513016 256.670891 
L 277.865257 257.688 
L 278.042003 258.180309 
L 278.663797 260.04012 
L 278.730814 260.242907 
L 278.94404 261.0144 
L 279.251666 261.834381 
L 279.317297 261.98868 
L 279.719683 263.16871 
L 280.090946 264.3408 
L 280.843578 266.627888 
L 280.865213 266.69292 
L 280.866518 266.696887 
L 281.133429 267.6672 
L 281.329366 268.16093 
L 281.462013 268.547371 
L 281.486915 268.64148 
L 281.5694 268.912808 
L 282.22541 270.9936 
L 282.748276 272.589951 
L 282.958634 273.34572 
L 283.075758 273.714512 
L 283.241545 274.32 
L 283.4433 274.862927 
L 283.55694 275.29428 
L 283.93304 276.53691 
L 284.281263 277.6464 
L 284.559149 278.498601 
L 284.974845 279.99852 
L 285.206155 280.729937 
L 285.272351 280.9728 
L 285.352969 281.190673 
L 285.551396 281.94708 
L 286.207655 284.124428 
L 286.262275 284.2992 
L 286.305913 284.433595 
L 286.918024 286.65132 
L 287.194797 287.529967 
L 287.214757 287.6256 
L 287.230429 287.68122 
L 287.246601 287.730051 
L 287.473838 288.59988 
L 288.010088 290.386091 
L 288.152781 290.952 
L 288.337494 291.652452 
L 288.791575 293.30412 
L 288.972369 293.880198 
L 289.014177 294.056724 
L 289.055141 294.2784 
L 289.120162 294.509942 
L 289.187233 294.713175 
L 289.327611 295.25268 
L 289.659176 296.361223 
L 289.971596 297.6048 
L 290.375736 299.142836 
L 290.598701 299.95692 
L 290.687563 300.241047 
L 290.75973 300.547025 
L 290.83044 300.9312 
L 291.058588 301.684507 
L 291.11586 301.90548 
L 291.251265 302.359779 
L 291.726385 304.2576 
L 292.340604 306.603068 
L 292.34242 306.60972 
L 292.343144 306.612043 
L 292.580669 307.584 
L 294.72768 307.584 
L 302.8224 307.584 
L 310.91712 307.584 
L 319.01184 307.584 
L 327.10656 307.584 
L 335.20128 307.584 
L 343.296 307.584 
L 343.296 304.2576 
L 343.296 300.9312 
L 343.296 297.6048 
L 343.296 294.2784 
L 343.296 290.952 
L 343.296 287.6256 
L 343.296 284.2992 
L 343.296 280.9728 
L 343.296 277.6464 
L 343.296 274.32 
L 343.296 270.9936 
L 343.296 267.6672 
L 343.296 264.3408 
L 343.296 261.0144 
L 343.296 257.688 
L 343.296 254.3616 
L 343.296 251.0352 
L 343.296 247.7088 
L 343.296 244.3824 
L 343.296 241.056 
L 343.296 237.7296 
L 343.296 234.4032 
L 343.296 231.0768 
L 343.296 227.7504 
L 343.296 224.424 
L 343.296 221.0976 
L 343.296 217.7712 
L 343.296 214.4448 
L 343.296 211.1184 
L 343.296 207.792 
L 343.296 204.4656 
L 343.296 201.1392 
L 343.296 197.8128 
L 343.296 194.4864 
L 343.296 191.16 
L 343.296 187.8336 
L 343.296 184.5072 
L 343.296 181.1808 
L 343.296 177.8544 
L 343.296 174.528 
L 343.296 171.2016 
L 343.296 167.8752 
L 343.296 164.5488 
L 343.296 161.2224 
L 343.296 157.896 
L 343.296 154.5696 
L 343.296 151.2432 
L 343.296 147.9168 
L 343.296 144.5904 
L 343.296 141.264 
L 343.296 137.9376 
L 343.296 134.6112 
L 343.296 131.2848 
L 343.296 127.9584 
L 343.296 124.632 
L 343.296 121.3056 
L 343.296 117.9792 
L 343.296 114.6528 
L 343.296 111.3264 
L 343.296 108 
L 343.296 104.6736 
L 343.296 101.3472 
L 343.296 98.0208 
L 343.296 94.6944 
L 343.296 91.368 
L 343.296 88.0416 
L 343.296 84.7152 
L 343.296 81.3888 
L 343.296 78.0624 
L 343.296 74.736 
L 343.296 71.4096 
L 343.296 68.0832 
L 343.296 64.7568 
L 343.296 61.4304 
L 343.296 58.104 
L 343.296 54.7776 
L 343.296 51.4512 
L 343.296 48.1248 
L 343.296 44.7984 
L 343.296 41.472 
L 335.20128 41.472 
L 327.10656 41.472 
L 319.01184 41.472 
L 310.91712 41.472 
L 302.8224 41.472 
L 294.72768 41.472 
L 286.63296 41.472 
L 278.53824 41.472 
L 270.44352 41.472 
L 262.3488 41.472 
L 254.25408 41.472 
L 246.15936 41.472 
L 238.06464 41.472 
L 229.96992 41.472 
L 221.8752 41.472 
L 213.78048 41.472 
L 205.68576 41.472 
L 197.59104 41.472 
L 189.49632 41.472 
L 181.4016 41.472 
L 173.30688 41.472 
L 165.21216 41.472 
L 157.11744 41.472 
L 149.02272 41.472 
L 140.928 41.472 
L 132.83328 41.472 
L 124.73856 41.472 
L 116.64384 41.472 
L 108.54912 41.472 
L 100.4544 41.472 
L 100.4544 44.7984 
L 100.4544 48.1248 
L 100.4544 51.4512 
L 100.4544 54.7776 
L 100.4544 58.104 
L 100.4544 61.4304 
L 100.4544 64.7568 
" clip-path="url(#p6f56255413)" style="fill: #f8f500"/>
   </g>
   <g id="PathCollection_18">
    <path d="M 292.580669 307.584 
L 292.343144 306.612043 
L 292.34242 306.60972 
L 292.340604 306.603068 
L 291.726385 304.2576 
L 291.251265 302.359779 
L 291.11586 301.90548 
L 291.058588 301.684507 
L 290.83044 300.9312 
L 290.75973 300.547025 
L 290.687563 300.241047 
L 290.598701 299.95692 
L 290.375736 299.142836 
L 289.971596 297.6048 
L 289.659176 296.361223 
L 289.327611 295.25268 
L 289.187233 294.713175 
L 289.120162 294.509942 
L 289.055141 294.2784 
L 289.014177 294.056724 
L 288.972369 293.880198 
L 288.791575 293.30412 
L 288.337494 291.652452 
L 288.152781 290.952 
L 288.010088 290.386091 
L 287.473838 288.59988 
L 287.246601 287.730051 
L 287.230429 287.68122 
L 287.214757 287.6256 
L 287.194797 287.529967 
L 286.918024 286.65132 
L 286.305913 284.433595 
L 286.262275 284.2992 
L 286.207655 284.124428 
L 285.551396 281.94708 
L 285.352969 281.190673 
L 285.272351 280.9728 
L 285.206155 280.729937 
L 284.974845 279.99852 
L 284.559149 278.498601 
L 284.281263 277.6464 
L 283.93304 276.53691 
L 283.55694 275.29428 
L 283.4433 274.862927 
L 283.241545 274.32 
L 283.075758 273.714512 
L 282.958634 273.34572 
L 282.748276 272.589951 
L 282.22541 270.9936 
L 281.5694 268.912808 
L 281.486915 268.64148 
L 281.462013 268.547371 
L 281.329366 268.16093 
L 281.133429 267.6672 
L 280.866518 266.696887 
L 280.865213 266.69292 
L 280.843578 266.627888 
L 280.090946 264.3408 
L 279.719683 263.16871 
L 279.317297 261.98868 
L 279.251666 261.834381 
L 278.94404 261.0144 
L 278.730814 260.242907 
L 278.663797 260.04012 
L 278.042003 258.180309 
L 277.865257 257.688 
L 277.513016 256.670891 
L 277.055456 255.33588 
L 277.027689 255.255788 
L 276.669146 254.3616 
L 276.381258 253.407233 
L 276.376279 253.38732 
L 276.324039 253.231873 
L 275.531165 251.0352 
L 274.894367 249.206193 
L 274.6852 248.68308 
L 274.588757 248.41438 
L 274.304227 247.7088 
L 274.114765 247.0839 
L 273.96968 246.73452 
L 273.570262 245.667286 
L 273.103872 244.3824 
L 272.769259 243.426674 
L 272.207593 242.03028 
L 271.94837 241.312148 
L 271.84445 241.056 
L 271.775359 240.829301 
L 271.463011 240.08172 
L 270.602063 237.794751 
L 270.578274 237.7296 
L 270.561238 237.681225 
L 269.628818 235.37748 
L 269.343068 234.590513 
L 269.253496 234.4032 
L 269.172248 234.186811 
L 268.853539 233.42892 
L 268.296764 231.958976 
L 267.915426 231.0768 
L 267.390239 229.822101 
L 266.943146 228.72468 
L 266.812974 228.368372 
L 266.515344 227.7504 
L 266.245365 227.035812 
L 266.135411 226.77612 
L 265.943673 226.273143 
L 265.13884 224.424 
L 264.316268 222.472107 
L 264.136564 222.07188 
L 264.105848 222.014735 
L 263.660777 221.0976 
L 263.339182 220.251836 
L 263.282915 220.12332 
L 262.276126 217.843298 
L 262.242257 217.7712 
L 262.154427 217.578365 
L 261.177681 215.41908 
L 261.128774 215.311942 
L 260.682788 214.4448 
L 260.461591 213.866921 
L 260.28682 213.47052 
L 260.192229 213.257899 
L 259.179289 211.1184 
L 258.397728 209.415632 
L 258.062539 208.76628 
L 257.895297 208.411789 
L 257.733615 208.115922 
L 257.573811 207.792 
L 257.458826 207.493659 
L 257.356779 207.263875 
L 257.118949 206.81772 
L 256.400923 205.347812 
L 255.979803 204.4656 
L 255.704091 203.869741 
L 254.789666 202.11348 
L 254.332658 201.152575 
L 254.325658 201.1392 
L 254.320947 201.127818 
L 253.803029 200.16492 
L 252.915336 198.362936 
L 252.611758 197.8128 
L 252.147433 196.947106 
L 251.366455 195.46068 
L 251.152387 195.014354 
L 250.832154 194.4864 
L 250.517609 193.850398 
L 250.333932 193.51212 
L 250.02804 192.896626 
L 249.060621 191.16 
L 248.046852 189.28745 
L 247.771877 188.80788 
L 247.721602 188.7326 
L 247.170555 187.8336 
L 246.76637 187.023526 
L 246.674249 186.85932 
L 245.637456 185.024973 
L 245.327794 184.5072 
L 244.192625 182.556034 
L 243.960365 182.15508 
L 243.653818 181.701116 
L 243.33134 181.1808 
L 242.895072 180.35859 
L 242.794118 180.20652 
L 242.457524 179.659588 
L 241.366204 177.8544 
L 240.723695 176.761703 
L 239.901804 175.50228 
L 239.456879 174.764979 
L 239.378544 174.650316 
L 239.301847 174.528 
L 239.198444 174.33501 
L 238.673642 173.55372 
L 237.383995 171.4813 
L 237.191405 171.2016 
L 236.858916 170.706126 
L 235.632788 168.84948 
L 235.323032 168.341862 
L 235.181794 168.143574 
L 234.972936 167.8752 
L 234.602629 167.285915 
L 234.340808 166.90092 
L 233.929733 166.247976 
L 232.745129 164.5488 
L 231.627801 162.904043 
L 231.120685 162.19668 
L 230.898885 161.889485 
L 230.372555 161.2224 
L 229.865299 160.459095 
L 229.737709 160.24812 
L 228.855196 159.0019 
L 228.029147 157.896 
L 226.611525 155.94968 
L 226.286657 155.54388 
L 226.095427 155.287945 
L 225.802505 154.935207 
L 225.520398 154.5696 
L 225.314301 154.249442 
L 225.145796 154.012897 
L 224.802588 153.59532 
L 223.512693 151.916102 
L 223.002885 151.2432 
L 222.740299 150.887701 
L 221.117914 148.89108 
L 220.550475 148.142288 
L 220.344797 147.9168 
L 220.110429 147.61641 
L 219.547954 146.94252 
L 218.723908 145.885375 
L 217.615692 144.5904 
L 215.877357 142.510122 
L 215.638162 142.23828 
L 215.586115 142.185659 
L 214.730976 141.264 
L 214.109824 140.479775 
L 213.945288 140.28972 
L 212.770003 138.940078 
L 211.850966 137.9376 
L 210.192281 136.085715 
L 209.702992 135.58548 
L 209.386415 135.241106 
L 209.069305 134.926186 
L 208.771755 134.6112 
L 208.387245 134.151368 
L 207.871402 133.63692 
L 205.661767 131.29466 
L 205.651623 131.2848 
L 205.627551 131.26088 
L 203.30724 128.93268 
L 202.847537 128.441507 
L 202.311458 127.9584 
L 201.648806 127.271251 
L 201.355274 126.98412 
L 200.96079 126.573653 
L 198.923534 124.632 
L 198.251326 123.976941 
L 196.418878 122.27988 
L 195.973661 121.908598 
L 195.290096 121.3056 
L 194.804268 120.811465 
L 194.435138 120.464941 
L 194.274706 120.33132 
L 193.446551 119.602486 
L 191.617418 117.9792 
L 190.956055 117.379345 
L 188.854533 115.62708 
L 188.032737 114.901923 
L 187.904162 114.80102 
L 187.70237 114.6528 
L 187.256689 114.271582 
L 186.527933 113.67852 
L 185.637383 112.912171 
L 183.634378 111.3264 
L 182.40403 110.331905 
L 180.637332 108.97428 
L 180.155897 108.637599 
L 179.288446 108 
L 178.688688 107.498989 
L 178.250235 107.158569 
L 178.05898 107.02572 
L 176.809167 106.11281 
L 174.851084 104.6736 
L 174.304556 104.263621 
L 171.496966 102.32148 
L 170.755584 101.781468 
L 170.064741 101.3472 
L 169.032218 100.61959 
L 168.66702 100.37292 
L 168.269909 100.090665 
L 165.405867 98.212973 
L 165.172866 98.059783 
L 165.110499 98.0208 
L 161.97639 96.02409 
L 161.373257 95.66868 
L 160.814551 95.323703 
L 159.756775 94.6944 
L 159.219512 94.336597 
L 158.148755 93.72012 
L 155.410946 92.069257 
L 154.153467 91.368 
L 150.890727 89.514781 
L 149.96587 89.01588 
L 149.63867 88.852507 
L 148.077531 88.0416 
L 147.083654 87.468549 
L 146.416339 87.107404 
L 146.334636 87.06732 
L 145.041609 86.405624 
L 141.746414 84.7152 
L 141.38606 84.526967 
L 136.907273 82.36308 
L 136.477592 82.146325 
L 134.763109 81.3888 
L 133.150305 80.605721 
L 132.73224 80.41452 
L 131.17888 79.703703 
L 127.393838 78.0624 
L 126.113194 77.497516 
L 121.734787 75.71028 
L 120.956453 75.37977 
L 119.235785 74.736 
L 117.248647 73.926131 
L 116.821518 73.76172 
L 114.986373 73.053946 
L 110.477381 71.4096 
L 109.46353 71.033837 
L 103.697401 69.05748 
L 103.414983 68.957105 
L 100.752285 68.0832 
L 100.588182 68.028224 
L 100.4544 67.984766 
L 100.4544 68.0832 
L 100.4544 71.4096 
L 100.4544 74.736 
L 100.4544 78.0624 
L 100.4544 81.3888 
L 100.4544 84.7152 
L 100.4544 88.0416 
L 100.4544 91.368 
L 100.4544 94.6944 
L 100.4544 98.0208 
L 100.4544 101.3472 
L 100.4544 104.6736 
L 100.4544 108 
L 100.4544 111.3264 
L 100.4544 114.6528 
L 100.4544 117.9792 
L 100.4544 121.3056 
L 100.4544 124.632 
L 100.4544 127.9584 
L 100.4544 131.2848 
L 100.4544 134.6112 
L 100.4544 137.9376 
L 100.4544 141.264 
L 100.4544 144.5904 
L 100.4544 147.9168 
L 100.4544 151.2432 
L 100.4544 154.5696 
L 100.4544 157.896 
L 100.4544 161.2224 
L 100.4544 164.5488 
L 100.4544 167.8752 
L 100.4544 171.2016 
L 100.4544 174.528 
L 100.4544 177.8544 
L 100.4544 181.1808 
L 100.4544 184.5072 
L 100.4544 187.8336 
L 100.4544 191.16 
L 100.4544 191.499283 
L 101.29817 191.99709 
L 103.445306 193.257333 
L 103.856793 193.51212 
L 104.265262 193.757225 
L 105.477309 194.4864 
L 106.164299 194.892332 
L 107.07051 195.46068 
L 109.976311 197.226318 
L 110.890949 197.8128 
L 114.406063 200.032862 
L 114.607976 200.16492 
L 115.159456 200.523821 
L 116.060628 201.1392 
L 117.351966 201.958688 
L 117.604096 202.11348 
L 118.456656 202.667135 
L 121.131074 204.4656 
L 122.512505 205.380363 
L 124.566426 206.81772 
L 125.751919 207.619511 
L 125.982424 207.792 
L 126.171698 207.925416 
L 126.388614 208.072863 
L 127.366444 208.76628 
L 128.527189 209.561521 
L 130.67639 211.1184 
L 131.931401 212.01314 
L 133.90462 213.47052 
L 134.364325 213.833765 
L 135.170096 214.4448 
L 136.27831 215.236245 
L 136.509024 215.41908 
L 138.031106 216.580766 
L 139.599577 217.7712 
L 140.071119 218.123322 
L 142.599377 220.12332 
L 143.339215 220.687176 
L 143.822089 221.0976 
L 144.631514 221.727992 
L 145.060215 222.07188 
L 145.612886 222.498818 
L 147.963849 224.424 
L 148.548337 224.894628 
L 150.802195 226.77612 
L 151.281103 227.207075 
L 151.913069 227.7504 
L 152.463185 228.183681 
L 152.822296 228.481496 
L 153.092532 228.72468 
L 154.63523 230.056774 
L 155.824488 231.0768 
L 156.248184 231.434007 
L 158.475038 233.42892 
L 159.196457 234.049321 
L 159.352403 234.19514 
L 159.561947 234.4032 
L 159.844445 234.657066 
L 160.149387 234.919282 
L 160.653274 235.37748 
L 161.353863 235.988707 
L 163.230085 237.7296 
L 164.263127 238.67112 
L 165.754309 240.08172 
L 165.918385 240.236689 
L 166.735534 241.056 
L 167.773707 241.997827 
L 167.805346 242.03028 
L 167.965885 242.187601 
L 170.223556 244.3824 
L 171.151476 245.26813 
L 172.591627 246.73452 
L 173.550091 247.667402 
L 173.566255 247.684654 
L 173.587437 247.7088 
L 173.645396 247.76642 
L 174.531107 248.68308 
L 175.852268 249.989212 
L 176.842988 251.0352 
L 179.073169 253.345199 
L 179.112288 253.38732 
L 179.119248 253.395562 
L 179.98336 254.3616 
L 180.791869 255.171928 
L 180.945839 255.33588 
L 182.309178 256.787607 
L 183.122325 257.688 
L 184.872291 259.588173 
L 185.26057 260.04012 
L 185.530951 260.339436 
L 185.808834 260.671119 
L 186.113413 261.0144 
L 186.398923 261.302747 
L 186.591112 261.508909 
L 186.995914 261.98868 
L 188.84777 264.074288 
L 189.086641 264.3408 
L 189.198505 264.463182 
L 191.100128 266.69292 
L 191.645814 267.301325 
L 191.770573 267.455482 
L 191.929861 267.6672 
L 192.140174 267.913326 
L 192.357653 268.154241 
L 192.765759 268.64148 
L 193.418495 269.381843 
L 194.742382 270.9936 
L 196.035988 272.536342 
L 196.687577 273.34572 
L 196.915457 273.629327 
L 197.431503 274.32 
L 198.112592 275.122119 
L 198.267001 275.29428 
L 199.024758 276.224032 
L 200.13722 277.6464 
L 201.508512 279.362975 
L 201.979252 279.99852 
L 202.28984 280.394765 
L 202.491141 280.675402 
L 202.718871 280.9728 
L 203.091593 281.414365 
L 203.478186 281.94708 
L 205.102266 284.059422 
L 205.288655 284.2992 
L 205.38635 284.422238 
L 207.027611 286.65132 
L 207.540863 287.309834 
L 207.634116 287.444221 
L 207.750046 287.6256 
L 207.902809 287.831993 
L 208.05832 288.029445 
L 208.469814 288.59988 
L 209.172591 289.519141 
L 210.186411 290.952 
L 211.68836 293.027558 
L 211.879979 293.30412 
L 211.908324 293.350549 
L 212.519395 294.2784 
L 213.022457 294.961399 
L 213.250708 295.25268 
L 214.441833 296.948683 
L 214.88275 297.6048 
L 216.423516 299.845085 
L 216.494258 299.95692 
L 216.538759 300.02286 
L 217.112802 300.9312 
L 217.425943 301.345397 
L 217.641211 301.651887 
L 217.797869 301.90548 
L 218.410763 302.833943 
L 219.362762 304.2576 
L 219.914285 305.063408 
L 220.887719 306.60972 
L 221.499372 307.520029 
L 221.541752 307.584 
L 221.8752 307.584 
L 229.96992 307.584 
L 238.06464 307.584 
L 246.15936 307.584 
L 254.25408 307.584 
L 262.3488 307.584 
L 270.44352 307.584 
L 278.53824 307.584 
L 286.63296 307.584 
" clip-path="url(#p6f56255413)" style="fill: #ff9400"/>
   </g>
   <g id="PathCollection_19">
    <path d="M 221.541752 307.584 
L 221.499372 307.520029 
L 220.887719 306.60972 
L 219.914285 305.063408 
L 219.362762 304.2576 
L 218.410763 302.833943 
L 217.797869 301.90548 
L 217.641211 301.651887 
L 217.425943 301.345397 
L 217.112802 300.9312 
L 216.538759 300.02286 
L 216.494258 299.95692 
L 216.423516 299.845085 
L 214.88275 297.6048 
L 214.441833 296.948683 
L 213.250708 295.25268 
L 213.022457 294.961399 
L 212.519395 294.2784 
L 211.908324 293.350549 
L 211.879979 293.30412 
L 211.68836 293.027558 
L 210.186411 290.952 
L 209.172591 289.519141 
L 208.469814 288.59988 
L 208.05832 288.029445 
L 207.902809 287.831993 
L 207.750046 287.6256 
L 207.634116 287.444221 
L 207.540863 287.309834 
L 207.027611 286.65132 
L 205.38635 284.422238 
L 205.288655 284.2992 
L 205.102266 284.059422 
L 203.478186 281.94708 
L 203.091593 281.414365 
L 202.718871 280.9728 
L 202.491141 280.675402 
L 202.28984 280.394765 
L 201.979252 279.99852 
L 201.508512 279.362975 
L 200.13722 277.6464 
L 199.024758 276.224032 
L 198.267001 275.29428 
L 198.112592 275.122119 
L 197.431503 274.32 
L 196.915457 273.629327 
L 196.687577 273.34572 
L 196.035988 272.536342 
L 194.742382 270.9936 
L 193.418495 269.381843 
L 192.765759 268.64148 
L 192.357653 268.154241 
L 192.140174 267.913326 
L 191.929861 267.6672 
L 191.770573 267.455482 
L 191.645814 267.301325 
L 191.100128 266.69292 
L 189.198505 264.463182 
L 189.086641 264.3408 
L 188.84777 264.074288 
L 186.995914 261.98868 
L 186.591112 261.508909 
L 186.398923 261.302747 
L 186.113413 261.0144 
L 185.808834 260.671119 
L 185.530951 260.339436 
L 185.26057 260.04012 
L 184.872291 259.588173 
L 183.122325 257.688 
L 182.309178 256.787607 
L 180.945839 255.33588 
L 180.791869 255.171928 
L 179.98336 254.3616 
L 179.119248 253.395562 
L 179.112288 253.38732 
L 179.073169 253.345199 
L 176.842988 251.0352 
L 175.852268 249.989212 
L 174.531107 248.68308 
L 173.645396 247.76642 
L 173.587437 247.7088 
L 173.566255 247.684654 
L 173.550091 247.667402 
L 172.591627 246.73452 
L 171.151476 245.26813 
L 170.223556 244.3824 
L 167.965885 242.187601 
L 167.805346 242.03028 
L 167.773707 241.997827 
L 166.735534 241.056 
L 165.918385 240.236689 
L 165.754309 240.08172 
L 164.263127 238.67112 
L 163.230085 237.7296 
L 161.353863 235.988707 
L 160.653274 235.37748 
L 160.149387 234.919282 
L 159.844445 234.657066 
L 159.561947 234.4032 
L 159.352403 234.19514 
L 159.196457 234.049321 
L 158.475038 233.42892 
L 156.248184 231.434007 
L 155.824488 231.0768 
L 154.63523 230.056774 
L 153.092532 228.72468 
L 152.822296 228.481496 
L 152.463185 228.183681 
L 151.913069 227.7504 
L 151.281103 227.207075 
L 150.802195 226.77612 
L 148.548337 224.894628 
L 147.963849 224.424 
L 145.612886 222.498818 
L 145.060215 222.07188 
L 144.631514 221.727992 
L 143.822089 221.0976 
L 143.339215 220.687176 
L 142.599377 220.12332 
L 140.071119 218.123322 
L 139.599577 217.7712 
L 138.031106 216.580766 
L 136.509024 215.41908 
L 136.27831 215.236245 
L 135.170096 214.4448 
L 134.364325 213.833765 
L 133.90462 213.47052 
L 131.931401 212.01314 
L 130.67639 211.1184 
L 128.527189 209.561521 
L 127.366444 208.76628 
L 126.388614 208.072863 
L 126.171698 207.925416 
L 125.982424 207.792 
L 125.751919 207.619511 
L 124.566426 206.81772 
L 122.512505 205.380363 
L 121.131074 204.4656 
L 118.456656 202.667135 
L 117.604096 202.11348 
L 117.351966 201.958688 
L 116.060628 201.1392 
L 115.159456 200.523821 
L 114.607976 200.16492 
L 114.406063 200.032862 
L 110.890949 197.8128 
L 109.976311 197.226318 
L 107.07051 195.46068 
L 106.164299 194.892332 
L 105.477309 194.4864 
L 104.265262 193.757225 
L 103.856793 193.51212 
L 103.445306 193.257333 
L 101.29817 191.99709 
L 100.4544 191.499283 
L 100.4544 194.4864 
L 100.4544 197.8128 
L 100.4544 201.1392 
L 100.4544 204.4656 
L 100.4544 207.792 
L 100.4544 211.1184 
L 100.4544 214.4448 
L 100.4544 217.7712 
L 100.4544 221.0976 
L 100.4544 224.424 
L 100.4544 227.7504 
L 100.4544 231.0768 
L 100.4544 234.4032 
L 100.4544 237.7296 
L 100.4544 241.056 
L 100.4544 244.3824 
L 100.4544 247.7088 
L 100.4544 251.0352 
L 100.4544 254.3616 
L 100.4544 257.688 
L 100.4544 261.0144 
L 100.4544 264.3408 
L 100.4544 267.6672 
L 100.4544 270.9936 
L 100.4544 274.32 
L 100.4544 275.997671 
L 101.439857 276.668744 
L 102.842619 277.6464 
L 104.97957 279.113251 
L 106.207151 279.99852 
L 107.299414 280.760082 
L 107.602751 280.9728 
L 107.790501 281.101928 
L 108.949123 281.94708 
L 110.909662 283.329172 
L 112.218651 284.2992 
L 114.768774 286.159423 
L 115.422153 286.65132 
L 115.817248 286.948985 
L 116.676687 287.6256 
L 117.870889 288.493396 
L 118.022088 288.59988 
L 118.588799 289.022438 
L 121.095768 290.952 
L 122.377032 291.922433 
L 124.108926 293.30412 
L 125.260512 294.189556 
L 125.304149 294.225747 
L 125.364686 294.2784 
L 125.538768 294.414607 
L 126.576304 295.25268 
L 127.919364 296.297698 
L 129.513073 297.6048 
L 131.344377 299.081916 
L 132.394374 299.95692 
L 132.676116 300.192265 
L 133.519876 300.9312 
L 134.674295 301.856152 
L 134.738005 301.90548 
L 134.99256 302.115413 
L 137.506089 304.2576 
L 138.63212 305.201056 
L 140.223296 306.60972 
L 141.295705 307.521411 
L 141.364375 307.584 
L 149.02272 307.584 
L 157.11744 307.584 
L 165.21216 307.584 
L 173.30688 307.584 
L 181.4016 307.584 
L 189.49632 307.584 
L 197.59104 307.584 
L 205.68576 307.584 
L 213.78048 307.584 
" clip-path="url(#p6f56255413)" style="fill: #ff3800"/>
   </g>
   <g id="PathCollection_20">
    <path d="M 141.364375 307.584 
L 141.295705 307.521411 
L 140.223296 306.60972 
L 138.63212 305.201056 
L 137.506089 304.2576 
L 134.99256 302.115413 
L 134.738005 301.90548 
L 134.674295 301.856152 
L 133.519876 300.9312 
L 132.676116 300.192265 
L 132.394374 299.95692 
L 131.344377 299.081916 
L 129.513073 297.6048 
L 127.919364 296.297698 
L 126.576304 295.25268 
L 125.538768 294.414607 
L 125.364686 294.2784 
L 125.304149 294.225747 
L 125.260512 294.189556 
L 124.108926 293.30412 
L 122.377032 291.922433 
L 121.095768 290.952 
L 118.588799 289.022438 
L 118.022088 288.59988 
L 117.870889 288.493396 
L 116.676687 287.6256 
L 115.817248 286.948985 
L 115.422153 286.65132 
L 114.768774 286.159423 
L 112.218651 284.2992 
L 110.909662 283.329172 
L 108.949123 281.94708 
L 107.790501 281.101928 
L 107.602751 280.9728 
L 107.299414 280.760082 
L 106.207151 279.99852 
L 104.97957 279.113251 
L 102.842619 277.6464 
L 101.439857 276.668744 
L 100.4544 275.997671 
L 100.4544 277.6464 
L 100.4544 280.9728 
L 100.4544 284.2992 
L 100.4544 287.6256 
L 100.4544 290.952 
L 100.4544 294.2784 
L 100.4544 297.6048 
L 100.4544 300.9312 
L 100.4544 304.2576 
L 100.4544 307.584 
L 108.54912 307.584 
L 116.64384 307.584 
L 124.73856 307.584 
L 132.83328 307.584 
L 140.928 307.584 
" clip-path="url(#p6f56255413)" style="fill: #b60000"/>
   </g>
   <g id="matplotlib.axis_1">
    <g id="xtick_1">
     <g id="line2d_1">
      <defs>
       <path id="m20d4a43977" d="M 0 0 
L 0 3.5 
" style="stroke: #000000; stroke-width: 0.8"/>
      </defs>
      <g>
       <use xlink:href="#m20d4a43977" x="57.6" y="307.584" style="stroke: #000000; stroke-width: 0.8"/>
      </g>
     </g>
     <g id="text_1">
      <!-- 0.0 -->
      <g transform="translate(51.26875 321.385562) scale(0.1 -0.1)">
       <defs>
        <path id="Calibri-30" d="M 3022 2031 
Q 3022 1566 2948 1181 
Q 2875 797 2704 520 
Q 2534 244 2259 92 
Q 1984 -59 1581 -59 
Q 1200 -59 939 77 
Q 678 213 518 477 
Q 359 741 292 1127 
Q 225 1513 225 2013 
Q 225 2475 300 2861 
Q 375 3247 544 3523 
Q 713 3800 988 3951 
Q 1263 4103 1663 4103 
Q 2047 4103 2308 3967 
Q 2569 3831 2728 3567 
Q 2888 3303 2955 2917 
Q 3022 2531 3022 2031 
z
M 2472 1994 
Q 2472 2297 2450 2537 
Q 2428 2778 2386 2962 
Q 2344 3147 2276 3280 
Q 2209 3413 2115 3498 
Q 2022 3584 1901 3623 
Q 1781 3663 1631 3663 
Q 1366 3663 1200 3538 
Q 1034 3413 939 3194 
Q 844 2975 809 2681 
Q 775 2388 775 2050 
Q 775 1597 822 1280 
Q 869 963 970 763 
Q 1072 563 1230 472 
Q 1388 381 1613 381 
Q 1788 381 1920 437 
Q 2053 494 2148 598 
Q 2244 703 2306 850 
Q 2369 997 2406 1175 
Q 2444 1353 2458 1561 
Q 2472 1769 2472 1994 
z
" transform="scale(0.015625)"/>
        <path id="Calibri-2e" d="M 1144 341 
Q 1144 119 1070 45 
Q 997 -28 803 -28 
Q 616 -28 544 44 
Q 472 116 472 331 
Q 472 553 545 626 
Q 619 700 813 700 
Q 1000 700 1072 628 
Q 1144 556 1144 341 
z
" transform="scale(0.015625)"/>
       </defs>
       <use xlink:href="#Calibri-30"/>
       <use xlink:href="#Calibri-2e" x="50.683594"/>
       <use xlink:href="#Calibri-30" x="75.927734"/>
      </g>
     </g>
    </g>
    <g id="xtick_2">
     <g id="line2d_2">
      <g>
       <use xlink:href="#m20d4a43977" x="86.1696" y="307.584" style="stroke: #000000; stroke-width: 0.8"/>
      </g>
     </g>
     <g id="text_2">
      <!-- 0.1 -->
      <g transform="translate(79.83835 321.385562) scale(0.1 -0.1)">
       <defs>
        <path id="Calibri-31" d="M 2897 213 
Q 2897 153 2887 112 
Q 2878 72 2862 47 
Q 2847 22 2826 11 
Q 2806 0 2784 0 
L 672 0 
Q 650 0 631 11 
Q 613 22 595 47 
Q 578 72 568 112 
Q 559 153 559 213 
Q 559 269 568 309 
Q 578 350 592 376 
Q 606 403 626 417 
Q 647 431 672 431 
L 1516 431 
L 1516 3506 
L 734 3041 
Q 675 3009 639 3003 
Q 603 2997 581 3017 
Q 559 3038 551 3084 
Q 544 3131 544 3203 
Q 544 3256 548 3293 
Q 553 3331 562 3356 
Q 572 3381 589 3400 
Q 606 3419 634 3438 
L 1566 4034 
Q 1578 4044 1597 4050 
Q 1616 4056 1644 4062 
Q 1672 4069 1709 4070 
Q 1747 4072 1803 4072 
Q 1878 4072 1928 4065 
Q 1978 4059 2006 4048 
Q 2034 4038 2043 4020 
Q 2053 4003 2053 3984 
L 2053 431 
L 2784 431 
Q 2809 431 2831 417 
Q 2853 403 2867 376 
Q 2881 350 2889 309 
Q 2897 269 2897 213 
z
" transform="scale(0.015625)"/>
       </defs>
       <use xlink:href="#Calibri-30"/>
       <use xlink:href="#Calibri-2e" x="50.683594"/>
       <use xlink:href="#Calibri-31" x="75.927734"/>
      </g>
     </g>
    </g>
    <g id="xtick_3">
     <g id="line2d_3">
      <g>
       <use xlink:href="#m20d4a43977" x="114.7392" y="307.584" style="stroke: #000000; stroke-width: 0.8"/>
      </g>
     </g>
     <g id="text_3">
      <!-- 0.2 -->
      <g transform="translate(108.40795 321.385562) scale(0.1 -0.1)">
       <defs>
        <path id="Calibri-32" d="M 2888 231 
Q 2888 175 2880 131 
Q 2872 88 2858 58 
Q 2844 28 2820 14 
Q 2797 0 2769 0 
L 534 0 
Q 491 0 458 11 
Q 425 22 401 47 
Q 378 72 367 119 
Q 356 166 356 234 
Q 356 297 361 344 
Q 366 391 381 427 
Q 397 463 420 498 
Q 444 534 481 575 
L 1266 1406 
Q 1538 1694 1702 1922 
Q 1866 2150 1955 2337 
Q 2044 2525 2072 2678 
Q 2100 2831 2100 2966 
Q 2100 3100 2056 3220 
Q 2013 3341 1930 3431 
Q 1847 3522 1722 3575 
Q 1597 3628 1434 3628 
Q 1244 3628 1092 3575 
Q 941 3522 827 3459 
Q 713 3397 636 3344 
Q 559 3291 522 3291 
Q 500 3291 483 3303 
Q 466 3316 455 3344 
Q 444 3372 437 3419 
Q 431 3466 431 3531 
Q 431 3578 434 3612 
Q 438 3647 445 3672 
Q 453 3697 465 3719 
Q 478 3741 515 3773 
Q 553 3806 645 3862 
Q 738 3919 877 3973 
Q 1016 4028 1183 4065 
Q 1350 4103 1534 4103 
Q 1828 4103 2048 4020 
Q 2269 3938 2414 3794 
Q 2559 3650 2631 3459 
Q 2703 3269 2703 3053 
Q 2703 2859 2668 2667 
Q 2634 2475 2523 2251 
Q 2413 2028 2203 1754 
Q 1994 1481 1647 1125 
L 1006 456 
L 2766 456 
Q 2791 456 2814 442 
Q 2838 428 2855 400 
Q 2872 372 2880 330 
Q 2888 288 2888 231 
z
" transform="scale(0.015625)"/>
       </defs>
       <use xlink:href="#Calibri-30"/>
       <use xlink:href="#Calibri-2e" x="50.683594"/>
       <use xlink:href="#Calibri-32" x="75.927734"/>
      </g>
     </g>
    </g>
    <g id="xtick_4">
     <g id="line2d_4">
      <g>
       <use xlink:href="#m20d4a43977" x="143.3088" y="307.584" style="stroke: #000000; stroke-width: 0.8"/>
      </g>
     </g>
     <g id="text_4">
      <!-- 0.3 -->
      <g transform="translate(136.97755 321.385562) scale(0.1 -0.1)">
       <defs>
        <path id="Calibri-33" d="M 2856 1156 
Q 2856 878 2759 654 
Q 2663 431 2481 272 
Q 2300 113 2034 27 
Q 1769 -59 1434 -59 
Q 1231 -59 1054 -26 
Q 878 6 740 51 
Q 603 97 512 145 
Q 422 194 398 216 
Q 375 238 362 259 
Q 350 281 340 312 
Q 331 344 326 389 
Q 322 434 322 500 
Q 322 613 344 656 
Q 366 700 406 700 
Q 434 700 517 650 
Q 600 600 729 542 
Q 859 484 1032 434 
Q 1206 384 1419 384 
Q 1625 384 1781 437 
Q 1938 491 2044 587 
Q 2150 684 2203 817 
Q 2256 950 2256 1106 
Q 2256 1278 2189 1415 
Q 2122 1553 1992 1653 
Q 1863 1753 1673 1806 
Q 1484 1859 1244 1859 
L 859 1859 
Q 834 1859 811 1870 
Q 788 1881 770 1906 
Q 753 1931 742 1972 
Q 731 2013 731 2078 
Q 731 2138 740 2177 
Q 750 2216 767 2239 
Q 784 2263 806 2273 
Q 828 2284 856 2284 
L 1209 2284 
Q 1416 2284 1580 2337 
Q 1744 2391 1858 2491 
Q 1972 2591 2033 2730 
Q 2094 2869 2094 3041 
Q 2094 3166 2053 3280 
Q 2013 3394 1931 3478 
Q 1850 3563 1723 3611 
Q 1597 3659 1431 3659 
Q 1250 3659 1098 3604 
Q 947 3550 828 3487 
Q 709 3425 631 3370 
Q 553 3316 522 3316 
Q 500 3316 483 3323 
Q 466 3331 455 3354 
Q 444 3378 439 3420 
Q 434 3463 434 3531 
Q 434 3578 437 3614 
Q 441 3650 450 3676 
Q 459 3703 471 3725 
Q 484 3747 514 3776 
Q 544 3806 634 3862 
Q 725 3919 858 3973 
Q 991 4028 1164 4065 
Q 1338 4103 1538 4103 
Q 1819 4103 2031 4031 
Q 2244 3959 2386 3828 
Q 2528 3697 2598 3514 
Q 2669 3331 2669 3109 
Q 2669 2919 2619 2755 
Q 2569 2591 2472 2464 
Q 2375 2338 2234 2248 
Q 2094 2159 1909 2125 
L 1909 2119 
Q 2119 2097 2292 2014 
Q 2466 1931 2591 1806 
Q 2716 1681 2786 1514 
Q 2856 1347 2856 1156 
z
" transform="scale(0.015625)"/>
       </defs>
       <use xlink:href="#Calibri-30"/>
       <use xlink:href="#Calibri-2e" x="50.683594"/>
       <use xlink:href="#Calibri-33" x="75.927734"/>
      </g>
     </g>
    </g>
    <g id="xtick_5">
     <g id="line2d_5">
      <g>
       <use xlink:href="#m20d4a43977" x="171.8784" y="307.584" style="stroke: #000000; stroke-width: 0.8"/>
      </g>
     </g>
     <g id="text_5">
      <!-- 0.4 -->
      <g transform="translate(165.54715 321.385562) scale(0.1 -0.1)">
       <defs>
        <path id="Calibri-34" d="M 3059 1150 
Q 3059 1047 3028 987 
Q 2997 928 2941 928 
L 2484 928 
L 2484 78 
Q 2484 53 2471 36 
Q 2459 19 2428 6 
Q 2397 -6 2347 -12 
Q 2297 -19 2219 -19 
Q 2144 -19 2094 -12 
Q 2044 -6 2014 6 
Q 1984 19 1973 36 
Q 1963 53 1963 78 
L 1963 928 
L 294 928 
Q 256 928 231 937 
Q 206 947 186 972 
Q 166 997 158 1044 
Q 150 1091 150 1166 
Q 150 1225 153 1272 
Q 156 1319 165 1358 
Q 175 1397 190 1433 
Q 206 1469 228 1509 
L 1684 3966 
Q 1700 3991 1729 4009 
Q 1759 4028 1806 4040 
Q 1853 4053 1922 4058 
Q 1991 4063 2084 4063 
Q 2188 4063 2264 4055 
Q 2341 4047 2387 4034 
Q 2434 4022 2459 4001 
Q 2484 3981 2484 3953 
L 2484 1372 
L 2941 1372 
Q 2994 1372 3026 1317 
Q 3059 1263 3059 1150 
z
M 1963 3591 
L 1956 3591 
L 641 1372 
L 1963 1372 
L 1963 3591 
z
" transform="scale(0.015625)"/>
       </defs>
       <use xlink:href="#Calibri-30"/>
       <use xlink:href="#Calibri-2e" x="50.683594"/>
       <use xlink:href="#Calibri-34" x="75.927734"/>
      </g>
     </g>
    </g>
    <g id="xtick_6">
     <g id="line2d_6">
      <g>
       <use xlink:href="#m20d4a43977" x="200.448" y="307.584" style="stroke: #000000; stroke-width: 0.8"/>
      </g>
     </g>
     <g id="text_6">
      <!-- 0.5 -->
      <g transform="translate(194.11675 321.385562) scale(0.1 -0.1)">
       <defs>
        <path id="Calibri-35" d="M 2869 1300 
Q 2869 975 2759 722 
Q 2650 469 2450 295 
Q 2250 122 1973 31 
Q 1697 -59 1359 -59 
Q 1172 -59 1003 -32 
Q 834 -6 703 33 
Q 572 72 487 109 
Q 403 147 379 169 
Q 356 191 347 209 
Q 338 228 330 254 
Q 322 281 319 322 
Q 316 363 316 419 
Q 316 472 320 514 
Q 325 556 337 582 
Q 350 609 367 621 
Q 384 634 406 634 
Q 438 634 503 595 
Q 569 556 680 511 
Q 791 466 955 425 
Q 1119 384 1344 384 
Q 1553 384 1728 434 
Q 1903 484 2029 590 
Q 2156 697 2228 858 
Q 2300 1019 2300 1250 
Q 2300 1444 2239 1592 
Q 2178 1741 2051 1839 
Q 1925 1938 1731 1986 
Q 1538 2034 1269 2034 
Q 1078 2034 940 2015 
Q 803 1997 684 1997 
Q 597 1997 559 2037 
Q 522 2078 522 2194 
L 522 3841 
Q 522 3944 570 3994 
Q 619 4044 709 4044 
L 2500 4044 
Q 2525 4044 2548 4030 
Q 2572 4016 2587 3987 
Q 2603 3959 2611 3915 
Q 2619 3872 2619 3813 
Q 2619 3700 2587 3637 
Q 2556 3575 2500 3575 
L 991 3575 
L 991 2441 
Q 1100 2456 1214 2459 
Q 1328 2463 1478 2463 
Q 1825 2463 2084 2380 
Q 2344 2297 2517 2145 
Q 2691 1994 2780 1778 
Q 2869 1563 2869 1300 
z
" transform="scale(0.015625)"/>
       </defs>
       <use xlink:href="#Calibri-30"/>
       <use xlink:href="#Calibri-2e" x="50.683594"/>
       <use xlink:href="#Calibri-35" x="75.927734"/>
      </g>
     </g>
    </g>
    <g id="xtick_7">
     <g id="line2d_7">
      <g>
       <use xlink:href="#m20d4a43977" x="229.0176" y="307.584" style="stroke: #000000; stroke-width: 0.8"/>
      </g>
     </g>
     <g id="text_7">
      <!-- 0.6 -->
      <g transform="translate(222.68635 321.385562) scale(0.1 -0.1)">
       <defs>
        <path id="Calibri-36" d="M 2991 1309 
Q 2991 1044 2909 795 
Q 2828 547 2659 358 
Q 2491 169 2231 55 
Q 1972 -59 1619 -59 
Q 1366 -59 1172 3 
Q 978 66 834 181 
Q 691 297 595 465 
Q 500 634 442 850 
Q 384 1066 359 1322 
Q 334 1578 334 1872 
Q 334 2131 362 2397 
Q 391 2663 462 2909 
Q 534 3156 657 3373 
Q 781 3591 967 3752 
Q 1153 3913 1412 4006 
Q 1672 4100 2016 4100 
Q 2131 4100 2250 4086 
Q 2369 4072 2469 4048 
Q 2569 4025 2637 3997 
Q 2706 3969 2728 3951 
Q 2750 3934 2761 3914 
Q 2772 3894 2778 3870 
Q 2784 3847 2787 3817 
Q 2791 3788 2791 3744 
Q 2791 3688 2789 3647 
Q 2788 3606 2777 3581 
Q 2766 3556 2748 3543 
Q 2731 3531 2703 3531 
Q 2669 3531 2609 3553 
Q 2550 3575 2465 3601 
Q 2381 3628 2261 3650 
Q 2141 3672 1981 3672 
Q 1691 3672 1481 3553 
Q 1272 3434 1139 3234 
Q 1006 3034 942 2770 
Q 878 2506 869 2219 
Q 950 2266 1051 2312 
Q 1153 2359 1273 2396 
Q 1394 2434 1528 2457 
Q 1663 2481 1816 2481 
Q 2144 2481 2369 2392 
Q 2594 2303 2733 2145 
Q 2872 1988 2931 1773 
Q 2991 1559 2991 1309 
z
M 2447 1259 
Q 2447 1441 2411 1589 
Q 2375 1738 2290 1841 
Q 2206 1944 2065 2000 
Q 1925 2056 1719 2056 
Q 1603 2056 1487 2036 
Q 1372 2016 1264 1980 
Q 1156 1944 1057 1895 
Q 959 1847 878 1791 
Q 878 1388 929 1116 
Q 981 844 1079 680 
Q 1178 516 1325 445 
Q 1472 375 1669 375 
Q 1869 375 2016 450 
Q 2163 525 2259 651 
Q 2356 778 2401 936 
Q 2447 1094 2447 1259 
z
" transform="scale(0.015625)"/>
       </defs>
       <use xlink:href="#Calibri-30"/>
       <use xlink:href="#Calibri-2e" x="50.683594"/>
       <use xlink:href="#Calibri-36" x="75.927734"/>
      </g>
     </g>
    </g>
    <g id="xtick_8">
     <g id="line2d_8">
      <g>
       <use xlink:href="#m20d4a43977" x="257.5872" y="307.584" style="stroke: #000000; stroke-width: 0.8"/>
      </g>
     </g>
     <g id="text_8">
      <!-- 0.7 -->
      <g transform="translate(251.25595 321.385562) scale(0.1 -0.1)">
       <defs>
        <path id="Calibri-37" d="M 2947 3813 
Q 2947 3756 2942 3711 
Q 2938 3666 2930 3623 
Q 2922 3581 2908 3542 
Q 2894 3503 2875 3459 
L 1419 103 
Q 1403 66 1379 42 
Q 1356 19 1320 5 
Q 1284 -9 1228 -14 
Q 1172 -19 1091 -19 
Q 984 -19 925 -9 
Q 866 0 839 20 
Q 813 41 816 70 
Q 819 100 838 141 
L 2369 3572 
L 428 3572 
Q 369 3572 339 3634 
Q 309 3697 309 3809 
Q 309 3869 317 3912 
Q 325 3956 340 3986 
Q 356 4016 378 4030 
Q 400 4044 428 4044 
L 2784 4044 
Q 2828 4044 2861 4034 
Q 2894 4025 2911 3997 
Q 2928 3969 2937 3925 
Q 2947 3881 2947 3813 
z
" transform="scale(0.015625)"/>
       </defs>
       <use xlink:href="#Calibri-30"/>
       <use xlink:href="#Calibri-2e" x="50.683594"/>
       <use xlink:href="#Calibri-37" x="75.927734"/>
      </g>
     </g>
    </g>
    <g id="xtick_9">
     <g id="line2d_9">
      <g>
       <use xlink:href="#m20d4a43977" x="286.1568" y="307.584" style="stroke: #000000; stroke-width: 0.8"/>
      </g>
     </g>
     <g id="text_9">
      <!-- 0.8 -->
      <g transform="translate(279.82555 321.385562) scale(0.1 -0.1)">
       <defs>
        <path id="Calibri-38" d="M 2981 1038 
Q 2981 775 2887 570 
Q 2794 366 2617 225 
Q 2441 84 2181 12 
Q 1922 -59 1588 -59 
Q 1275 -59 1028 6 
Q 781 72 609 200 
Q 438 328 347 515 
Q 256 703 256 944 
Q 256 1134 318 1293 
Q 381 1453 498 1587 
Q 616 1722 787 1839 
Q 959 1956 1175 2063 
Q 988 2159 844 2267 
Q 700 2375 600 2501 
Q 500 2628 448 2772 
Q 397 2916 397 3084 
Q 397 3297 473 3483 
Q 550 3669 704 3806 
Q 859 3944 1098 4023 
Q 1338 4103 1656 4103 
Q 1963 4103 2186 4029 
Q 2409 3956 2554 3829 
Q 2700 3703 2769 3531 
Q 2838 3359 2838 3163 
Q 2838 3003 2786 2856 
Q 2734 2709 2634 2578 
Q 2534 2447 2389 2333 
Q 2244 2219 2056 2119 
Q 2278 2009 2451 1893 
Q 2625 1778 2742 1645 
Q 2859 1513 2920 1364 
Q 2981 1216 2981 1038 
z
M 2306 3113 
Q 2306 3244 2261 3350 
Q 2216 3456 2128 3531 
Q 2041 3606 1911 3645 
Q 1781 3684 1616 3684 
Q 1278 3684 1104 3531 
Q 931 3378 931 3113 
Q 931 2991 973 2886 
Q 1016 2781 1105 2687 
Q 1194 2594 1330 2505 
Q 1466 2416 1653 2319 
Q 1969 2481 2137 2678 
Q 2306 2875 2306 3113 
z
M 2438 981 
Q 2438 1125 2384 1242 
Q 2331 1359 2223 1461 
Q 2116 1563 1955 1658 
Q 1794 1753 1581 1856 
Q 1384 1759 1236 1662 
Q 1088 1566 992 1462 
Q 897 1359 848 1245 
Q 800 1131 800 994 
Q 800 691 1008 525 
Q 1216 359 1628 359 
Q 2028 359 2233 526 
Q 2438 694 2438 981 
z
" transform="scale(0.015625)"/>
       </defs>
       <use xlink:href="#Calibri-30"/>
       <use xlink:href="#Calibri-2e" x="50.683594"/>
       <use xlink:href="#Calibri-38" x="75.927734"/>
      </g>
     </g>
    </g>
    <g id="xtick_10">
     <g id="line2d_10">
      <g>
       <use xlink:href="#m20d4a43977" x="314.7264" y="307.584" style="stroke: #000000; stroke-width: 0.8"/>
      </g>
     </g>
     <g id="text_10">
      <!-- 0.9 -->
      <g transform="translate(308.39515 321.385562) scale(0.1 -0.1)">
       <defs>
        <path id="Calibri-39" d="M 2919 2181 
Q 2919 1919 2887 1650 
Q 2856 1381 2781 1132 
Q 2706 884 2579 667 
Q 2453 450 2261 287 
Q 2069 125 1805 33 
Q 1541 -59 1191 -59 
Q 1056 -59 929 -42 
Q 803 -25 701 0 
Q 600 25 531 53 
Q 463 81 431 109 
Q 400 138 386 186 
Q 372 234 372 316 
Q 372 384 376 425 
Q 381 466 390 487 
Q 400 509 417 517 
Q 434 525 459 525 
Q 494 525 556 501 
Q 619 478 714 450 
Q 809 422 937 398 
Q 1066 375 1225 375 
Q 1528 375 1745 492 
Q 1963 609 2100 806 
Q 2238 1003 2306 1262 
Q 2375 1522 2381 1809 
Q 2216 1713 1984 1638 
Q 1753 1563 1453 1563 
Q 1116 1563 886 1655 
Q 656 1747 517 1906 
Q 378 2066 317 2284 
Q 256 2503 256 2763 
Q 256 3031 334 3273 
Q 413 3516 578 3700 
Q 744 3884 1000 3993 
Q 1256 4103 1613 4103 
Q 1866 4103 2061 4039 
Q 2256 3975 2400 3854 
Q 2544 3734 2644 3564 
Q 2744 3394 2805 3178 
Q 2866 2963 2892 2711 
Q 2919 2459 2919 2181 
z
M 2372 2241 
Q 2372 2641 2319 2914 
Q 2266 3188 2162 3356 
Q 2059 3525 1909 3600 
Q 1759 3675 1563 3675 
Q 1359 3675 1215 3601 
Q 1072 3528 980 3404 
Q 888 3281 844 3125 
Q 800 2969 800 2803 
Q 800 2619 839 2466 
Q 878 2313 965 2206 
Q 1053 2100 1193 2042 
Q 1334 1984 1541 1984 
Q 1775 1984 1994 2054 
Q 2213 2125 2372 2241 
z
" transform="scale(0.015625)"/>
       </defs>
       <use xlink:href="#Calibri-30"/>
       <use xlink:href="#Calibri-2e" x="50.683594"/>
       <use xlink:href="#Calibri-39" x="75.927734"/>
      </g>
     </g>
    </g>
    <g id="xtick_11">
     <g id="line2d_11">
      <g>
       <use xlink:href="#m20d4a43977" x="343.296" y="307.584" style="stroke: #000000; stroke-width: 0.8"/>
      </g>
     </g>
     <g id="text_11">
      <!-- 1.0 -->
      <g transform="translate(336.96475 321.385562) scale(0.1 -0.1)">
       <use xlink:href="#Calibri-31"/>
       <use xlink:href="#Calibri-2e" x="50.683594"/>
       <use xlink:href="#Calibri-30" x="75.927734"/>
      </g>
     </g>
    </g>
    <g id="text_12">
     <!-- $\mathit{p}$ (cm$^2$/cm$^2$) -->
     <g transform="translate(174.148 336.263687) scale(0.1 -0.1)">
      <defs>
       <path id="DejaVuSans-Oblique-70" d="M 3175 2156 
Q 3175 2616 2975 2859 
Q 2775 3103 2400 3103 
Q 2144 3103 1911 2972 
Q 1678 2841 1497 2591 
Q 1319 2344 1212 1994 
Q 1106 1644 1106 1300 
Q 1106 863 1306 627 
Q 1506 391 1875 391 
Q 2147 391 2380 519 
Q 2613 647 2778 891 
Q 2956 1147 3065 1494 
Q 3175 1841 3175 2156 
z
M 1394 2969 
Q 1625 3272 1939 3428 
Q 2253 3584 2638 3584 
Q 3175 3584 3472 3232 
Q 3769 2881 3769 2247 
Q 3769 1728 3584 1258 
Q 3400 788 3053 416 
Q 2822 169 2531 39 
Q 2241 -91 1919 -91 
Q 1547 -91 1294 64 
Q 1041 219 916 525 
L 556 -1331 
L -19 -1331 
L 922 3500 
L 1497 3500 
L 1394 2969 
z
" transform="scale(0.015625)"/>
       <path id="Calibri-20" transform="scale(0.015625)"/>
       <path id="Calibri-28" d="M 1547 4306 
Q 1250 3678 1104 3017 
Q 959 2356 959 1688 
Q 959 1016 1107 356 
Q 1256 -303 1541 -938 
Q 1556 -975 1557 -1001 
Q 1559 -1028 1537 -1045 
Q 1516 -1063 1470 -1070 
Q 1425 -1078 1347 -1078 
Q 1291 -1078 1250 -1075 
Q 1209 -1072 1179 -1062 
Q 1150 -1053 1131 -1040 
Q 1113 -1028 1103 -1013 
Q 934 -694 806 -367 
Q 678 -41 590 296 
Q 503 634 459 979 
Q 416 1325 416 1678 
Q 416 2031 464 2375 
Q 513 2719 602 3058 
Q 691 3397 819 3725 
Q 947 4053 1106 4375 
Q 1109 4388 1123 4397 
Q 1138 4406 1163 4415 
Q 1188 4425 1231 4429 
Q 1275 4434 1344 4434 
Q 1416 4434 1459 4425 
Q 1503 4416 1528 4400 
Q 1553 4384 1556 4359 
Q 1559 4334 1547 4306 
z
" transform="scale(0.015625)"/>
       <path id="Calibri-63" d="M 2500 506 
Q 2500 453 2497 414 
Q 2494 375 2486 348 
Q 2478 322 2467 301 
Q 2456 281 2417 242 
Q 2378 203 2284 145 
Q 2191 88 2073 42 
Q 1956 -3 1818 -31 
Q 1681 -59 1534 -59 
Q 1231 -59 997 41 
Q 763 141 605 333 
Q 447 525 364 804 
Q 281 1084 281 1450 
Q 281 1866 382 2164 
Q 484 2463 661 2653 
Q 838 2844 1077 2936 
Q 1316 3028 1594 3028 
Q 1728 3028 1854 3003 
Q 1981 2978 2087 2937 
Q 2194 2897 2276 2844 
Q 2359 2791 2396 2753 
Q 2434 2716 2448 2694 
Q 2463 2672 2472 2642 
Q 2481 2613 2484 2575 
Q 2488 2538 2488 2481 
Q 2488 2359 2459 2311 
Q 2431 2263 2391 2263 
Q 2344 2263 2283 2314 
Q 2222 2366 2128 2428 
Q 2034 2491 1901 2542 
Q 1769 2594 1588 2594 
Q 1216 2594 1017 2308 
Q 819 2022 819 1478 
Q 819 1206 870 1001 
Q 922 797 1022 659 
Q 1122 522 1267 455 
Q 1413 388 1600 388 
Q 1778 388 1912 444 
Q 2047 500 2145 567 
Q 2244 634 2311 689 
Q 2378 744 2416 744 
Q 2438 744 2453 731 
Q 2469 719 2480 689 
Q 2491 659 2495 614 
Q 2500 569 2500 506 
z
" transform="scale(0.015625)"/>
       <path id="Calibri-6d" d="M 4650 78 
Q 4650 53 4637 36 
Q 4625 19 4597 6 
Q 4569 -6 4519 -12 
Q 4469 -19 4394 -19 
Q 4316 -19 4266 -12 
Q 4216 -6 4186 6 
Q 4156 19 4143 36 
Q 4131 53 4131 78 
L 4131 1788 
Q 4131 1966 4100 2112 
Q 4069 2259 4000 2365 
Q 3931 2472 3825 2528 
Q 3719 2584 3575 2584 
Q 3397 2584 3217 2446 
Q 3038 2309 2822 2044 
L 2822 78 
Q 2822 53 2809 36 
Q 2797 19 2767 6 
Q 2738 -6 2688 -12 
Q 2638 -19 2563 -19 
Q 2491 -19 2439 -12 
Q 2388 -6 2358 6 
Q 2328 19 2317 36 
Q 2306 53 2306 78 
L 2306 1788 
Q 2306 1966 2272 2112 
Q 2238 2259 2169 2365 
Q 2100 2472 1995 2528 
Q 1891 2584 1747 2584 
Q 1569 2584 1387 2446 
Q 1206 2309 994 2044 
L 994 78 
Q 994 53 981 36 
Q 969 19 941 6 
Q 913 -6 863 -12 
Q 813 -19 734 -19 
Q 659 -19 609 -12 
Q 559 -6 529 6 
Q 500 19 489 36 
Q 478 53 478 78 
L 478 2891 
Q 478 2916 487 2933 
Q 497 2950 525 2964 
Q 553 2978 597 2983 
Q 641 2988 713 2988 
Q 781 2988 826 2983 
Q 872 2978 897 2964 
Q 922 2950 933 2933 
Q 944 2916 944 2891 
L 944 2519 
Q 1181 2784 1404 2907 
Q 1628 3031 1856 3031 
Q 2031 3031 2170 2990 
Q 2309 2950 2415 2876 
Q 2522 2803 2597 2701 
Q 2672 2600 2722 2475 
Q 2863 2628 2989 2734 
Q 3116 2841 3233 2906 
Q 3350 2972 3461 3001 
Q 3572 3031 3684 3031 
Q 3956 3031 4140 2936 
Q 4325 2841 4439 2681 
Q 4553 2522 4601 2308 
Q 4650 2094 4650 1856 
L 4650 78 
z
" transform="scale(0.015625)"/>
       <path id="DejaVuSans-32" d="M 1228 531 
L 3431 531 
L 3431 0 
L 469 0 
L 469 531 
Q 828 903 1448 1529 
Q 2069 2156 2228 2338 
Q 2531 2678 2651 2914 
Q 2772 3150 2772 3378 
Q 2772 3750 2511 3984 
Q 2250 4219 1831 4219 
Q 1534 4219 1204 4116 
Q 875 4013 500 3803 
L 500 4441 
Q 881 4594 1212 4672 
Q 1544 4750 1819 4750 
Q 2544 4750 2975 4387 
Q 3406 4025 3406 3419 
Q 3406 3131 3298 2873 
Q 3191 2616 2906 2266 
Q 2828 2175 2409 1742 
Q 1991 1309 1228 531 
z
" transform="scale(0.015625)"/>
       <path id="Calibri-2f" d="M 525 -753 
Q 513 -794 492 -817 
Q 472 -841 440 -853 
Q 409 -866 364 -872 
Q 319 -878 253 -878 
Q 175 -878 123 -867 
Q 72 -856 44 -836 
Q 16 -816 9 -786 
Q 3 -756 22 -716 
L 1913 4469 
Q 1925 4509 1945 4532 
Q 1966 4556 1995 4570 
Q 2025 4584 2072 4589 
Q 2119 4594 2184 4594 
Q 2263 4594 2313 4583 
Q 2363 4572 2391 4553 
Q 2419 4534 2425 4503 
Q 2431 4472 2416 4431 
L 525 -753 
z
" transform="scale(0.015625)"/>
       <path id="Calibri-29" d="M 1522 1678 
Q 1522 1325 1478 979 
Q 1434 634 1346 296 
Q 1259 -41 1132 -367 
Q 1006 -694 838 -1013 
Q 828 -1028 809 -1040 
Q 791 -1053 761 -1062 
Q 731 -1072 690 -1075 
Q 650 -1078 594 -1078 
Q 513 -1078 467 -1070 
Q 422 -1063 401 -1045 
Q 381 -1028 382 -1001 
Q 384 -975 400 -938 
Q 688 -306 834 355 
Q 981 1016 981 1688 
Q 981 2356 834 3017 
Q 688 3678 394 4306 
Q 381 4334 384 4359 
Q 388 4384 413 4400 
Q 438 4416 481 4425 
Q 525 4434 597 4434 
Q 663 4434 706 4429 
Q 750 4425 776 4415 
Q 803 4406 815 4397 
Q 828 4388 834 4375 
Q 1156 3734 1339 3057 
Q 1522 2381 1522 1678 
z
" transform="scale(0.015625)"/>
      </defs>
      <use xlink:href="#DejaVuSans-Oblique-70" transform="translate(0 0.765625)"/>
      <use xlink:href="#Calibri-20" transform="translate(63.476562 0.765625)"/>
      <use xlink:href="#Calibri-28" transform="translate(84.958984 0.765625)"/>
      <use xlink:href="#Calibri-63" transform="translate(115.28125 0.765625)"/>
      <use xlink:href="#Calibri-6d" transform="translate(157.566406 0.765625)"/>
      <use xlink:href="#DejaVuSans-32" transform="translate(238.40625 39.046875) scale(0.7)"/>
      <use xlink:href="#Calibri-2f" transform="translate(285.676758 0.765625)"/>
      <use xlink:href="#Calibri-63" transform="translate(324.299805 0.765625)"/>
      <use xlink:href="#Calibri-6d" transform="translate(366.584961 0.765625)"/>
      <use xlink:href="#DejaVuSans-32" transform="translate(447.424805 39.046875) scale(0.7)"/>
      <use xlink:href="#Calibri-29" transform="translate(494.695312 0.765625)"/>
     </g>
    </g>
   </g>
   <g id="matplotlib.axis_2">
    <g id="ytick_1">
     <g id="line2d_12">
      <defs>
       <path id="m81fde3d7cf" d="M 0 0 
L -3.5 0 
" style="stroke: #000000; stroke-width: 0.8"/>
      </defs>
      <g>
       <use xlink:href="#m81fde3d7cf" x="57.6" y="275.65056" style="stroke: #000000; stroke-width: 0.8"/>
      </g>
     </g>
     <g id="text_13">
      <!-- 25 -->
      <g transform="translate(40.4625 279.051341) scale(0.1 -0.1)">
       <use xlink:href="#Calibri-32"/>
       <use xlink:href="#Calibri-35" x="50.683594"/>
      </g>
     </g>
    </g>
    <g id="ytick_2">
     <g id="line2d_13">
      <g>
       <use xlink:href="#m81fde3d7cf" x="57.6" y="242.38656" style="stroke: #000000; stroke-width: 0.8"/>
      </g>
     </g>
     <g id="text_14">
      <!-- 50 -->
      <g transform="translate(40.4625 245.787341) scale(0.1 -0.1)">
       <use xlink:href="#Calibri-35"/>
       <use xlink:href="#Calibri-30" x="50.683594"/>
      </g>
     </g>
    </g>
    <g id="ytick_3">
     <g id="line2d_14">
      <g>
       <use xlink:href="#m81fde3d7cf" x="57.6" y="209.12256" style="stroke: #000000; stroke-width: 0.8"/>
      </g>
     </g>
     <g id="text_15">
      <!-- 75 -->
      <g transform="translate(40.4625 212.523341) scale(0.1 -0.1)">
       <use xlink:href="#Calibri-37"/>
       <use xlink:href="#Calibri-35" x="50.683594"/>
      </g>
     </g>
    </g>
    <g id="ytick_4">
     <g id="line2d_15">
      <g>
       <use xlink:href="#m81fde3d7cf" x="57.6" y="175.85856" style="stroke: #000000; stroke-width: 0.8"/>
      </g>
     </g>
     <g id="text_16">
      <!-- 100 -->
      <g transform="translate(35.39375 179.259341) scale(0.1 -0.1)">
       <use xlink:href="#Calibri-31"/>
       <use xlink:href="#Calibri-30" x="50.683594"/>
       <use xlink:href="#Calibri-30" x="101.367188"/>
      </g>
     </g>
    </g>
    <g id="ytick_5">
     <g id="line2d_16">
      <g>
       <use xlink:href="#m81fde3d7cf" x="57.6" y="142.59456" style="stroke: #000000; stroke-width: 0.8"/>
      </g>
     </g>
     <g id="text_17">
      <!-- 125 -->
      <g transform="translate(35.39375 145.995341) scale(0.1 -0.1)">
       <use xlink:href="#Calibri-31"/>
       <use xlink:href="#Calibri-32" x="50.683594"/>
       <use xlink:href="#Calibri-35" x="101.367188"/>
      </g>
     </g>
    </g>
    <g id="ytick_6">
     <g id="line2d_17">
      <g>
       <use xlink:href="#m81fde3d7cf" x="57.6" y="109.33056" style="stroke: #000000; stroke-width: 0.8"/>
      </g>
     </g>
     <g id="text_18">
      <!-- 150 -->
      <g transform="translate(35.39375 112.731341) scale(0.1 -0.1)">
       <use xlink:href="#Calibri-31"/>
       <use xlink:href="#Calibri-35" x="50.683594"/>
       <use xlink:href="#Calibri-30" x="101.367188"/>
      </g>
     </g>
    </g>
    <g id="ytick_7">
     <g id="line2d_18">
      <g>
       <use xlink:href="#m81fde3d7cf" x="57.6" y="76.06656" style="stroke: #000000; stroke-width: 0.8"/>
      </g>
     </g>
     <g id="text_19">
      <!-- 175 -->
      <g transform="translate(35.39375 79.467341) scale(0.1 -0.1)">
       <use xlink:href="#Calibri-31"/>
       <use xlink:href="#Calibri-37" x="50.683594"/>
       <use xlink:href="#Calibri-35" x="101.367188"/>
      </g>
     </g>
    </g>
    <g id="ytick_8">
     <g id="line2d_19">
      <g>
       <use xlink:href="#m81fde3d7cf" x="57.6" y="42.80256" style="stroke: #000000; stroke-width: 0.8"/>
      </g>
     </g>
     <g id="text_20">
      <!-- 200 -->
      <g transform="translate(35.39375 46.203341) scale(0.1 -0.1)">
       <use xlink:href="#Calibri-32"/>
       <use xlink:href="#Calibri-30" x="50.683594"/>
       <use xlink:href="#Calibri-30" x="101.367188"/>
      </g>
     </g>
    </g>
    <g id="text_21">
     <!-- $\mathit{Z}$$_{a}$ (nm) -->
     <g transform="translate(29.59375 191.028) rotate(-90) scale(0.1 -0.1)">
      <defs>
       <path id="DejaVuSans-Oblique-5a" d="M 838 4666 
L 4500 4666 
L 4409 4184 
L 794 531 
L 3769 531 
L 3669 0 
L -141 0 
L -50 481 
L 3566 4134 
L 738 4134 
L 838 4666 
z
" transform="scale(0.015625)"/>
       <path id="DejaVuSans-Oblique-61" d="M 3438 1997 
L 3047 0 
L 2472 0 
L 2578 531 
Q 2325 219 2001 64 
Q 1678 -91 1281 -91 
Q 834 -91 548 182 
Q 263 456 263 884 
Q 263 1497 752 1853 
Q 1241 2209 2100 2209 
L 2900 2209 
L 2931 2363 
Q 2938 2388 2941 2417 
Q 2944 2447 2944 2509 
Q 2944 2788 2717 2942 
Q 2491 3097 2081 3097 
Q 1800 3097 1504 3025 
Q 1209 2953 897 2809 
L 997 3341 
Q 1322 3463 1633 3523 
Q 1944 3584 2234 3584 
Q 2853 3584 3176 3315 
Q 3500 3047 3500 2534 
Q 3500 2431 3484 2292 
Q 3469 2153 3438 1997 
z
M 2816 1759 
L 2241 1759 
Q 1534 1759 1195 1570 
Q 856 1381 856 984 
Q 856 709 1029 553 
Q 1203 397 1509 397 
Q 1978 397 2328 733 
Q 2678 1069 2791 1631 
L 2816 1759 
z
" transform="scale(0.015625)"/>
       <path id="Calibri-6e" d="M 2900 78 
Q 2900 53 2887 36 
Q 2875 19 2847 6 
Q 2819 -6 2769 -12 
Q 2719 -19 2644 -19 
Q 2566 -19 2516 -12 
Q 2466 -6 2437 6 
Q 2409 19 2396 36 
Q 2384 53 2384 78 
L 2384 1725 
Q 2384 1966 2346 2112 
Q 2309 2259 2237 2365 
Q 2166 2472 2052 2528 
Q 1938 2584 1788 2584 
Q 1594 2584 1400 2446 
Q 1206 2309 994 2044 
L 994 78 
Q 994 53 981 36 
Q 969 19 941 6 
Q 913 -6 863 -12 
Q 813 -19 734 -19 
Q 659 -19 609 -12 
Q 559 -6 529 6 
Q 500 19 489 36 
Q 478 53 478 78 
L 478 2891 
Q 478 2916 487 2933 
Q 497 2950 525 2964 
Q 553 2978 597 2983 
Q 641 2988 713 2988 
Q 781 2988 826 2983 
Q 872 2978 897 2964 
Q 922 2950 933 2933 
Q 944 2916 944 2891 
L 944 2519 
Q 1181 2784 1417 2907 
Q 1653 3031 1894 3031 
Q 2175 3031 2367 2936 
Q 2559 2841 2678 2681 
Q 2797 2522 2848 2308 
Q 2900 2094 2900 1794 
L 2900 78 
z
" transform="scale(0.015625)"/>
      </defs>
      <use xlink:href="#DejaVuSans-Oblique-5a" transform="translate(0 0.09375)"/>
      <use xlink:href="#DejaVuSans-Oblique-61" transform="translate(69.462891 -16.3125) scale(0.7)"/>
      <use xlink:href="#Calibri-20" transform="translate(115.092773 0.09375)"/>
      <use xlink:href="#Calibri-28" transform="translate(136.575195 0.09375)"/>
      <use xlink:href="#Calibri-6e" transform="translate(166.897461 0.09375)"/>
      <use xlink:href="#Calibri-6d" transform="translate(219.436523 0.09375)"/>
      <use xlink:href="#Calibri-29" transform="translate(299.319336 0.09375)"/>
     </g>
    </g>
   </g>
   <g id="patch_3">
    <path d="M 57.6 307.584 
L 57.6 41.472 
" style="fill: none; stroke: #000000; stroke-width: 0.8; stroke-linejoin: miter; stroke-linecap: square"/>
   </g>
   <g id="patch_4">
    <path d="M 343.296 307.584 
L 343.296 41.472 
" style="fill: none; stroke: #000000; stroke-width: 0.8; stroke-linejoin: miter; stroke-linecap: square"/>
   </g>
   <g id="patch_5">
    <path d="M 57.6 307.584 
L 343.296 307.584 
" style="fill: none; stroke: #000000; stroke-width: 0.8; stroke-linejoin: miter; stroke-linecap: square"/>
   </g>
   <g id="patch_6">
    <path d="M 57.6 41.472 
L 343.296 41.472 
" style="fill: none; stroke: #000000; stroke-width: 0.8; stroke-linejoin: miter; stroke-linecap: square"/>
   </g>
   <g id="text_22">
    <!-- $n_e$ = 1.46 -->
    <g transform="translate(181.348 35.472) scale(0.1 -0.1)">
     <defs>
      <path id="DejaVuSans-Oblique-6e" d="M 3566 2113 
L 3156 0 
L 2578 0 
L 2988 2091 
Q 3016 2238 3031 2350 
Q 3047 2463 3047 2528 
Q 3047 2791 2881 2937 
Q 2716 3084 2419 3084 
Q 1956 3084 1622 2776 
Q 1288 2469 1184 1941 
L 800 0 
L 225 0 
L 903 3500 
L 1478 3500 
L 1363 2950 
Q 1603 3253 1940 3418 
Q 2278 3584 2650 3584 
Q 3113 3584 3367 3334 
Q 3622 3084 3622 2631 
Q 3622 2519 3608 2391 
Q 3594 2263 3566 2113 
z
" transform="scale(0.015625)"/>
      <path id="DejaVuSans-Oblique-65" d="M 3078 2063 
Q 3088 2113 3092 2166 
Q 3097 2219 3097 2272 
Q 3097 2653 2873 2875 
Q 2650 3097 2266 3097 
Q 1838 3097 1509 2826 
Q 1181 2556 1013 2059 
L 3078 2063 
z
M 3578 1613 
L 903 1613 
Q 884 1494 878 1425 
Q 872 1356 872 1306 
Q 872 872 1139 634 
Q 1406 397 1894 397 
Q 2269 397 2603 481 
Q 2938 566 3225 728 
L 3116 159 
Q 2806 34 2476 -28 
Q 2147 -91 1806 -91 
Q 1078 -91 686 257 
Q 294 606 294 1247 
Q 294 1794 489 2264 
Q 684 2734 1063 3103 
Q 1306 3334 1642 3459 
Q 1978 3584 2356 3584 
Q 2950 3584 3301 3228 
Q 3653 2872 3653 2272 
Q 3653 2128 3634 1964 
Q 3616 1800 3578 1613 
z
" transform="scale(0.015625)"/>
      <path id="Calibri-3d" d="M 2891 2409 
Q 2891 2284 2855 2236 
Q 2819 2188 2772 2188 
L 409 2188 
Q 363 2188 328 2236 
Q 294 2284 294 2409 
Q 294 2522 325 2575 
Q 356 2628 409 2628 
L 2772 2628 
Q 2828 2628 2859 2575 
Q 2891 2522 2891 2409 
z
M 2891 1194 
Q 2891 1069 2855 1022 
Q 2819 975 2772 975 
L 409 975 
Q 363 975 328 1022 
Q 294 1069 294 1194 
Q 294 1309 325 1362 
Q 356 1416 409 1416 
L 2772 1416 
Q 2828 1416 2859 1362 
Q 2891 1309 2891 1194 
z
" transform="scale(0.015625)"/>
     </defs>
     <use xlink:href="#DejaVuSans-Oblique-6e" transform="translate(0 0.9375)"/>
     <use xlink:href="#DejaVuSans-Oblique-65" transform="translate(63.378906 -15.46875) scale(0.7)"/>
     <use xlink:href="#Calibri-20" transform="translate(109.179688 0.9375)"/>
     <use xlink:href="#Calibri-3d" transform="translate(131.787109 0.9375)"/>
     <use xlink:href="#Calibri-20" transform="translate(181.591797 0.9375)"/>
     <use xlink:href="#Calibri-31" transform="translate(204.199219 0.9375)"/>
     <use xlink:href="#Calibri-2e" transform="translate(254.882812 0.9375)"/>
     <use xlink:href="#Calibri-34" transform="translate(280.126953 0.9375)"/>
     <use xlink:href="#Calibri-36" transform="translate(330.810547 0.9375)"/>
    </g>
   </g>
  </g>
  <g id="axes_2">
   <g id="patch_7">
    <path d="M 361.152 307.584 
L 374.4576 307.584 
L 374.4576 41.472 
L 361.152 41.472 
z
" style="fill: #ffffff"/>
   </g>
   <g id="QuadMesh_1">
    <path d="M 361.152 307.584 
L 374.4576 307.584 
L 374.4576 280.9728 
L 361.152 280.9728 
L 361.152 307.584 
" clip-path="url(#p55cf53c7ed)" style="fill: #0000b6"/>
    <path d="M 361.152 280.9728 
L 374.4576 280.9728 
L 374.4576 254.3616 
L 361.152 254.3616 
L 361.152 280.9728 
" clip-path="url(#p55cf53c7ed)" style="fill: #0018ff"/>
    <path d="M 361.152 254.3616 
L 374.4576 254.3616 
L 374.4576 227.7504 
L 361.152 227.7504 
L 361.152 254.3616 
" clip-path="url(#p55cf53c7ed)" style="fill: #0080ff"/>
    <path d="M 361.152 227.7504 
L 374.4576 227.7504 
L 374.4576 201.1392 
L 361.152 201.1392 
L 361.152 227.7504 
" clip-path="url(#p55cf53c7ed)" style="fill: #00e4f8"/>
    <path d="M 361.152 201.1392 
L 374.4576 201.1392 
L 374.4576 174.528 
L 361.152 174.528 
L 361.152 201.1392 
" clip-path="url(#p55cf53c7ed)" style="fill: #53ffa4"/>
    <path d="M 361.152 174.528 
L 374.4576 174.528 
L 374.4576 147.9168 
L 361.152 147.9168 
L 361.152 174.528 
" clip-path="url(#p55cf53c7ed)" style="fill: #a4ff53"/>
    <path d="M 361.152 147.9168 
L 374.4576 147.9168 
L 374.4576 121.3056 
L 361.152 121.3056 
L 361.152 147.9168 
" clip-path="url(#p55cf53c7ed)" style="fill: #f8f500"/>
    <path d="M 361.152 121.3056 
L 374.4576 121.3056 
L 374.4576 94.6944 
L 361.152 94.6944 
L 361.152 121.3056 
" clip-path="url(#p55cf53c7ed)" style="fill: #ff9400"/>
    <path d="M 361.152 94.6944 
L 374.4576 94.6944 
L 374.4576 68.0832 
L 361.152 68.0832 
L 361.152 94.6944 
" clip-path="url(#p55cf53c7ed)" style="fill: #ff3800"/>
    <path d="M 361.152 68.0832 
L 374.4576 68.0832 
L 374.4576 41.472 
L 361.152 41.472 
L 361.152 68.0832 
" clip-path="url(#p55cf53c7ed)" style="fill: #b60000"/>
   </g>
   <g id="matplotlib.axis_3"/>
   <g id="matplotlib.axis_4">
    <g id="ytick_9">
     <g id="line2d_20">
      <defs>
       <path id="mfd35182d69" d="M 0 0 
L 3.5 0 
" style="stroke: #000000; stroke-width: 0.8"/>
      </defs>
      <g>
       <use xlink:href="#mfd35182d69" x="374.4576" y="307.584" style="stroke: #000000; stroke-width: 0.8"/>
      </g>
     </g>
     <g id="text_23">
      <!-- 0 -->
      <g transform="translate(381.4576 310.984781) scale(0.1 -0.1)">
       <use xlink:href="#Calibri-30"/>
      </g>
     </g>
    </g>
    <g id="ytick_10">
     <g id="line2d_21">
      <g>
       <use xlink:href="#mfd35182d69" x="374.4576" y="280.9728" style="stroke: #000000; stroke-width: 0.8"/>
      </g>
     </g>
     <g id="text_24">
      <!-- 0.1 -->
      <g transform="translate(381.4576 284.373581) scale(0.1 -0.1)">
       <use xlink:href="#Calibri-30"/>
       <use xlink:href="#Calibri-2e" x="50.683594"/>
       <use xlink:href="#Calibri-31" x="75.927734"/>
      </g>
     </g>
    </g>
    <g id="ytick_11">
     <g id="line2d_22">
      <g>
       <use xlink:href="#mfd35182d69" x="374.4576" y="254.3616" style="stroke: #000000; stroke-width: 0.8"/>
      </g>
     </g>
     <g id="text_25">
      <!-- 0.2 -->
      <g transform="translate(381.4576 257.762381) scale(0.1 -0.1)">
       <use xlink:href="#Calibri-30"/>
       <use xlink:href="#Calibri-2e" x="50.683594"/>
       <use xlink:href="#Calibri-32" x="75.927734"/>
      </g>
     </g>
    </g>
    <g id="ytick_12">
     <g id="line2d_23">
      <g>
       <use xlink:href="#mfd35182d69" x="374.4576" y="227.7504" style="stroke: #000000; stroke-width: 0.8"/>
      </g>
     </g>
     <g id="text_26">
      <!-- 0.3 -->
      <g transform="translate(381.4576 231.151181) scale(0.1 -0.1)">
       <use xlink:href="#Calibri-30"/>
       <use xlink:href="#Calibri-2e" x="50.683594"/>
       <use xlink:href="#Calibri-33" x="75.927734"/>
      </g>
     </g>
    </g>
    <g id="ytick_13">
     <g id="line2d_24">
      <g>
       <use xlink:href="#mfd35182d69" x="374.4576" y="201.1392" style="stroke: #000000; stroke-width: 0.8"/>
      </g>
     </g>
     <g id="text_27">
      <!-- 0.4 -->
      <g transform="translate(381.4576 204.539981) scale(0.1 -0.1)">
       <use xlink:href="#Calibri-30"/>
       <use xlink:href="#Calibri-2e" x="50.683594"/>
       <use xlink:href="#Calibri-34" x="75.927734"/>
      </g>
     </g>
    </g>
    <g id="ytick_14">
     <g id="line2d_25">
      <g>
       <use xlink:href="#mfd35182d69" x="374.4576" y="174.528" style="stroke: #000000; stroke-width: 0.8"/>
      </g>
     </g>
     <g id="text_28">
      <!-- 0.5 -->
      <g transform="translate(381.4576 177.928781) scale(0.1 -0.1)">
       <use xlink:href="#Calibri-30"/>
       <use xlink:href="#Calibri-2e" x="50.683594"/>
       <use xlink:href="#Calibri-35" x="75.927734"/>
      </g>
     </g>
    </g>
    <g id="ytick_15">
     <g id="line2d_26">
      <g>
       <use xlink:href="#mfd35182d69" x="374.4576" y="147.9168" style="stroke: #000000; stroke-width: 0.8"/>
      </g>
     </g>
     <g id="text_29">
      <!-- 0.6 -->
      <g transform="translate(381.4576 151.317581) scale(0.1 -0.1)">
       <use xlink:href="#Calibri-30"/>
       <use xlink:href="#Calibri-2e" x="50.683594"/>
       <use xlink:href="#Calibri-36" x="75.927734"/>
      </g>
     </g>
    </g>
    <g id="ytick_16">
     <g id="line2d_27">
      <g>
       <use xlink:href="#mfd35182d69" x="374.4576" y="121.3056" style="stroke: #000000; stroke-width: 0.8"/>
      </g>
     </g>
     <g id="text_30">
      <!-- 0.7 -->
      <g transform="translate(381.4576 124.706381) scale(0.1 -0.1)">
       <use xlink:href="#Calibri-30"/>
       <use xlink:href="#Calibri-2e" x="50.683594"/>
       <use xlink:href="#Calibri-37" x="75.927734"/>
      </g>
     </g>
    </g>
    <g id="ytick_17">
     <g id="line2d_28">
      <g>
       <use xlink:href="#mfd35182d69" x="374.4576" y="94.6944" style="stroke: #000000; stroke-width: 0.8"/>
      </g>
     </g>
     <g id="text_31">
      <!-- 0.8 -->
      <g transform="translate(381.4576 98.095181) scale(0.1 -0.1)">
       <use xlink:href="#Calibri-30"/>
       <use xlink:href="#Calibri-2e" x="50.683594"/>
       <use xlink:href="#Calibri-38" x="75.927734"/>
      </g>
     </g>
    </g>
    <g id="ytick_18">
     <g id="line2d_29">
      <g>
       <use xlink:href="#mfd35182d69" x="374.4576" y="68.0832" style="stroke: #000000; stroke-width: 0.8"/>
      </g>
     </g>
     <g id="text_32">
      <!-- 0.9 -->
      <g transform="translate(381.4576 71.483981) scale(0.1 -0.1)">
       <use xlink:href="#Calibri-30"/>
       <use xlink:href="#Calibri-2e" x="50.683594"/>
       <use xlink:href="#Calibri-39" x="75.927734"/>
      </g>
     </g>
    </g>
    <g id="ytick_19">
     <g id="line2d_30">
      <g>
       <use xlink:href="#mfd35182d69" x="374.4576" y="41.472" style="stroke: #000000; stroke-width: 0.8"/>
      </g>
     </g>
     <g id="text_33">
      <!-- 1.0 -->
      <g transform="translate(381.4576 44.872781) scale(0.1 -0.1)">
       <use xlink:href="#Calibri-31"/>
       <use xlink:href="#Calibri-2e" x="50.683594"/>
       <use xlink:href="#Calibri-30" x="75.927734"/>
      </g>
     </g>
    </g>
   </g>
   <g id="LineCollection_1"/>
   <g id="patch_8">
    <path d="M 361.152 307.584 
L 367.8048 307.584 
L 374.4576 307.584 
L 374.4576 41.472 
L 367.8048 41.472 
L 361.152 41.472 
L 361.152 307.584 
z
" style="fill: none; stroke: #000000; stroke-width: 0.8; stroke-linejoin: miter; stroke-linecap: square"/>
   </g>
   <g id="text_34">
    <!-- $\mathit{E}_{\mathrm{dis}}$/$\mathit{E}_{\mathrm{i}}$ -->
    <g transform="translate(353.2548 35.472) scale(0.1 -0.1)">
     <defs>
      <path id="DejaVuSans-Oblique-45" d="M 1081 4666 
L 4031 4666 
L 3928 4134 
L 1606 4134 
L 1338 2753 
L 3566 2753 
L 3463 2222 
L 1234 2222 
L 909 531 
L 3284 531 
L 3181 0 
L 172 0 
L 1081 4666 
z
" transform="scale(0.015625)"/>
      <path id="DejaVuSans-64" d="M 2906 2969 
L 2906 4863 
L 3481 4863 
L 3481 0 
L 2906 0 
L 2906 525 
Q 2725 213 2448 61 
Q 2172 -91 1784 -91 
Q 1150 -91 751 415 
Q 353 922 353 1747 
Q 353 2572 751 3078 
Q 1150 3584 1784 3584 
Q 2172 3584 2448 3432 
Q 2725 3281 2906 2969 
z
M 947 1747 
Q 947 1113 1208 752 
Q 1469 391 1925 391 
Q 2381 391 2643 752 
Q 2906 1113 2906 1747 
Q 2906 2381 2643 2742 
Q 2381 3103 1925 3103 
Q 1469 3103 1208 2742 
Q 947 2381 947 1747 
z
" transform="scale(0.015625)"/>
      <path id="DejaVuSans-69" d="M 603 3500 
L 1178 3500 
L 1178 0 
L 603 0 
L 603 3500 
z
M 603 4863 
L 1178 4863 
L 1178 4134 
L 603 4134 
L 603 4863 
z
" transform="scale(0.015625)"/>
      <path id="DejaVuSans-73" d="M 2834 3397 
L 2834 2853 
Q 2591 2978 2328 3040 
Q 2066 3103 1784 3103 
Q 1356 3103 1142 2972 
Q 928 2841 928 2578 
Q 928 2378 1081 2264 
Q 1234 2150 1697 2047 
L 1894 2003 
Q 2506 1872 2764 1633 
Q 3022 1394 3022 966 
Q 3022 478 2636 193 
Q 2250 -91 1575 -91 
Q 1294 -91 989 -36 
Q 684 19 347 128 
L 347 722 
Q 666 556 975 473 
Q 1284 391 1588 391 
Q 1994 391 2212 530 
Q 2431 669 2431 922 
Q 2431 1156 2273 1281 
Q 2116 1406 1581 1522 
L 1381 1569 
Q 847 1681 609 1914 
Q 372 2147 372 2553 
Q 372 3047 722 3315 
Q 1072 3584 1716 3584 
Q 2034 3584 2315 3537 
Q 2597 3491 2834 3397 
z
" transform="scale(0.015625)"/>
     </defs>
     <use xlink:href="#DejaVuSans-Oblique-45" transform="translate(0 0.09375)"/>
     <use xlink:href="#DejaVuSans-64" transform="translate(63.183594 -16.3125) scale(0.7)"/>
     <use xlink:href="#DejaVuSans-69" transform="translate(107.617188 -16.3125) scale(0.7)"/>
     <use xlink:href="#DejaVuSans-73" transform="translate(127.06543 -16.3125) scale(0.7)"/>
     <use xlink:href="#Calibri-2f" transform="translate(166.269531 0.09375)"/>
     <use xlink:href="#DejaVuSans-Oblique-45" transform="translate(204.892578 0.09375)"/>
     <use xlink:href="#DejaVuSans-69" transform="translate(268.076172 -16.3125) scale(0.7)"/>
    </g>
   </g>
  </g>
 </g>
 <defs>
  <clipPath id="p6f56255413">
   <rect x="57.6" y="41.472" width="285.696" height="266.112"/>
  </clipPath>
  <clipPath id="p55cf53c7ed">
   <rect x="361.152" y="41.472" width="13.3056" height="266.112"/>
  </clipPath>
 </defs>
</svg>
