<?xml version="1.0" encoding="utf-8" standalone="no"?>
<!DOCTYPE svg PUBLIC "-//W3C//DTD SVG 1.1//EN"
  "http://www.w3.org/Graphics/SVG/1.1/DTD/svg11.dtd">
<svg xmlns:xlink="http://www.w3.org/1999/xlink" width="460.8pt" height="345.6pt" viewBox="0 0 460.8 345.6" xmlns="http://www.w3.org/2000/svg" version="1.1">
 <metadata>
  <rdf:RDF xmlns:dc="http://purl.org/dc/elements/1.1/" xmlns:cc="http://creativecommons.org/ns#" xmlns:rdf="http://www.w3.org/1999/02/22-rdf-syntax-ns#">
   <cc:Work>
    <dc:type rdf:resource="http://purl.org/dc/dcmitype/StillImage"/>
    <dc:date>2024-01-22T08:28:33.393432</dc:date>
    <dc:format>image/svg+xml</dc:format>
    <dc:creator>
     <cc:Agent>
      <dc:title>Matplotlib v3.7.1, https://matplotlib.org/</dc:title>
     </cc:Agent>
    </dc:creator>
   </cc:Work>
  </rdf:RDF>
 </metadata>
 <defs>
  <style type="text/css">*{stroke-linejoin: round; stroke-linecap: butt}</style>
 </defs>
 <g id="figure_1">
  <g id="patch_1">
   <path d="M 0 345.6 
L 460.8 345.6 
L 460.8 0 
L 0 0 
z
" style="fill: #ffffff"/>
  </g>
  <g id="axes_1">
   <g id="patch_2">
    <path d="M 57.6 307.584 
L 343.296 307.584 
L 343.296 41.472 
L 57.6 41.472 
z
" style="fill: #ffffff"/>
   </g>
   <g id="PathCollection_1">
    <path clip-path="url(#p8c97a5708b)" style="fill: #0000b6"/>
   </g>
   <g id="PathCollection_2">
    <path clip-path="url(#p8c97a5708b)" style="fill: #0018ff"/>
   </g>
   <g id="PathCollection_3">
    <path clip-path="url(#p8c97a5708b)" style="fill: #0080ff"/>
   </g>
   <g id="PathCollection_4">
    <path clip-path="url(#p8c97a5708b)" style="fill: #00e4f8"/>
   </g>
   <g id="PathCollection_5">
    <path clip-path="url(#p8c97a5708b)" style="fill: #53ffa4"/>
   </g>
   <g id="PathCollection_6">
    <path clip-path="url(#p8c97a5708b)" style="fill: #a4ff53"/>
   </g>
   <g id="PathCollection_7">
    <path clip-path="url(#p8c97a5708b)" style="fill: #f8f500"/>
   </g>
   <g id="PathCollection_8">
    <path d="M 57.62857 106.87894 
L 58.030137 107.123342 
L 58.488474 107.399742 
L 59.285225 107.879784 
L 59.334635 107.909816 
L 59.481249 108 
L 60.88721 108.858025 
L 61.077943 108.97428 
L 61.117676 108.998537 
L 61.139638 109.012177 
L 62.792858 110.031494 
L 63.570508 110.520497 
L 63.843988 110.690939 
L 64.846352 111.3264 
L 65.157525 111.522016 
L 65.411233 111.684653 
L 66.563686 112.418202 
L 67.036012 112.723968 
L 67.513899 113.030638 
L 68.504039 113.67852 
L 69.009178 114.00659 
L 69.986903 114.6528 
L 70.569547 115.034813 
L 70.771405 115.168749 
L 71.456222 115.62708 
L 72.1947 116.11763 
L 72.559329 116.364545 
L 73.102812 116.729458 
L 74.141823 117.438714 
L 74.519631 117.694898 
L 74.930944 117.9792 
L 75.800089 118.574889 
L 76.060571 118.756366 
L 76.835562 119.291813 
L 78.311735 120.33132 
L 78.425965 120.411156 
L 78.763831 120.649317 
L 79.683744 121.3056 
L 80.013686 121.538322 
L 80.132833 121.623374 
L 81.044686 122.27988 
L 81.43419 122.558195 
L 81.643384 122.710515 
L 82.284661 123.173671 
L 83.1569 123.813835 
L 83.718736 124.223626 
L 84.268206 124.632 
L 84.958823 125.140928 
L 85.183928 125.309476 
L 85.993356 125.910727 
L 87.411649 126.98412 
L 87.545417 127.084591 
L 88.688929 127.9584 
L 89.059186 128.238981 
L 89.198266 128.345657 
L 89.957148 128.93268 
L 90.509666 129.356817 
L 90.832292 129.609107 
L 91.386571 130.039199 
L 92.508401 130.923401 
L 92.752037 131.114319 
L 92.965607 131.2848 
L 94.036799 132.132595 
L 94.416414 132.437742 
L 94.985349 132.8916 
L 95.902617 133.63692 
L 96.376365 134.01891 
L 97.098404 134.6112 
L 97.976373 135.327758 
L 98.286764 135.58548 
L 99.41893 136.518295 
L 100.137634 137.121357 
L 100.405108 137.344134 
L 101.106846 137.9376 
L 101.619367 138.367343 
L 102.265975 138.91946 
L 103.030442 139.568738 
L 103.33993 139.832234 
L 103.33993 137.9376 
L 103.33993 134.6112 
L 103.33993 131.2848 
L 103.33993 127.9584 
L 103.33993 124.632 
L 103.33993 121.3056 
L 103.33993 117.9792 
L 103.33993 114.6528 
L 103.33993 111.3264 
L 103.33993 108 
L 103.33993 104.6736 
L 103.33993 101.3472 
L 103.33993 98.0208 
L 103.33993 94.6944 
L 103.33993 91.368 
L 103.33993 88.0416 
L 103.33993 84.7152 
L 103.33993 81.3888 
L 103.33993 78.0624 
L 103.33993 74.736 
L 103.33993 71.4096 
L 103.33993 68.0832 
L 103.33993 64.7568 
L 103.33993 61.4304 
L 103.33993 58.104 
L 103.33993 54.7776 
L 103.33993 51.4512 
L 103.33993 48.1248 
L 103.33993 44.7984 
L 103.33993 41.472 
L 101.816218 41.472 
L 100.292506 41.472 
L 98.768794 41.472 
L 97.245082 41.472 
L 95.72137 41.472 
L 94.197658 41.472 
L 92.673946 41.472 
L 91.150234 41.472 
L 89.626522 41.472 
L 88.10281 41.472 
L 86.579098 41.472 
L 85.055386 41.472 
L 83.531674 41.472 
L 82.007962 41.472 
L 80.48425 41.472 
L 78.960538 41.472 
L 77.436826 41.472 
L 75.913114 41.472 
L 74.389402 41.472 
L 72.86569 41.472 
L 71.341978 41.472 
L 69.818266 41.472 
L 68.294554 41.472 
L 66.770842 41.472 
L 65.24713 41.472 
L 63.723418 41.472 
L 62.199706 41.472 
L 60.675994 41.472 
L 59.152282 41.472 
L 57.62857 41.472 
L 57.62857 44.7984 
L 57.62857 48.1248 
L 57.62857 51.4512 
L 57.62857 54.7776 
L 57.62857 58.104 
L 57.62857 61.4304 
L 57.62857 64.7568 
L 57.62857 68.0832 
L 57.62857 71.4096 
L 57.62857 74.736 
L 57.62857 78.0624 
L 57.62857 81.3888 
L 57.62857 84.7152 
L 57.62857 88.0416 
L 57.62857 91.368 
L 57.62857 94.6944 
L 57.62857 98.0208 
L 57.62857 101.3472 
L 57.62857 104.6736 
" clip-path="url(#p8c97a5708b)" style="fill: #ff9400"/>
   </g>
   <g id="PathCollection_9">
    <path d="M 103.33993 139.832234 
L 103.030442 139.568738 
L 102.265975 138.91946 
L 101.619367 138.367343 
L 101.106846 137.9376 
L 100.405108 137.344134 
L 100.137634 137.121357 
L 99.41893 136.518295 
L 98.286764 135.58548 
L 97.976373 135.327758 
L 97.098404 134.6112 
L 96.376365 134.01891 
L 95.902617 133.63692 
L 94.985349 132.8916 
L 94.416414 132.437742 
L 94.036799 132.132595 
L 92.965607 131.2848 
L 92.752037 131.114319 
L 92.508401 130.923401 
L 91.386571 130.039199 
L 90.832292 129.609107 
L 90.509666 129.356817 
L 89.957148 128.93268 
L 89.198266 128.345657 
L 89.059186 128.238981 
L 88.688929 127.9584 
L 87.545417 127.084591 
L 87.411649 126.98412 
L 85.993356 125.910727 
L 85.183928 125.309476 
L 84.958823 125.140928 
L 84.268206 124.632 
L 83.718736 124.223626 
L 83.1569 123.813835 
L 82.284661 123.173671 
L 81.643384 122.710515 
L 81.43419 122.558195 
L 81.044686 122.27988 
L 80.132833 121.623374 
L 80.013686 121.538322 
L 79.683744 121.3056 
L 78.763831 120.649317 
L 78.425965 120.411156 
L 78.311735 120.33132 
L 76.835562 119.291813 
L 76.060571 118.756366 
L 75.800089 118.574889 
L 74.930944 117.9792 
L 74.519631 117.694898 
L 74.141823 117.438714 
L 73.102812 116.729458 
L 72.559329 116.364545 
L 72.1947 116.11763 
L 71.456222 115.62708 
L 70.771405 115.168749 
L 70.569547 115.034813 
L 69.986903 114.6528 
L 69.009178 114.00659 
L 68.504039 113.67852 
L 67.513899 113.030638 
L 67.036012 112.723968 
L 66.563686 112.418202 
L 65.411233 111.684653 
L 65.157525 111.522016 
L 64.846352 111.3264 
L 63.843988 110.690939 
L 63.570508 110.520497 
L 62.792858 110.031494 
L 61.139638 109.012177 
L 61.117676 108.998537 
L 61.077943 108.97428 
L 60.88721 108.858025 
L 59.481249 108 
L 59.334635 107.909816 
L 59.285225 107.879784 
L 58.488474 107.399742 
L 58.030137 107.123342 
L 57.62857 106.87894 
L 57.62857 108 
L 57.62857 111.3264 
L 57.62857 114.6528 
L 57.62857 117.9792 
L 57.62857 121.3056 
L 57.62857 124.632 
L 57.62857 127.9584 
L 57.62857 131.2848 
L 57.62857 134.6112 
L 57.62857 137.9376 
L 57.62857 141.264 
L 57.62857 144.5904 
L 57.62857 147.9168 
L 57.62857 151.2432 
L 57.62857 154.5696 
L 57.62857 157.896 
L 57.62857 161.2224 
L 57.62857 164.5488 
L 57.62857 167.8752 
L 57.62857 171.2016 
L 57.62857 174.528 
L 57.62857 177.8544 
L 57.62857 181.1808 
L 57.62857 184.5072 
L 57.62857 187.8336 
L 57.62857 191.16 
L 57.62857 194.4864 
L 57.62857 197.8128 
L 57.62857 201.1392 
L 57.62857 204.4656 
L 57.62857 207.792 
L 57.62857 211.1184 
L 57.62857 214.4448 
L 57.62857 217.7712 
L 57.62857 221.0976 
L 57.62857 224.424 
L 57.62857 227.7504 
L 57.62857 228.980935 
L 57.978013 229.235076 
L 58.473648 229.595283 
L 59.493468 230.33196 
L 60.507886 231.0768 
L 60.655591 231.184329 
L 60.703042 231.219356 
L 61.774808 232.004389 
L 63.064379 232.964459 
L 63.328211 233.159715 
L 63.686959 233.42892 
L 64.477079 234.022364 
L 64.985275 234.4032 
L 65.089805 234.481006 
L 65.128709 234.510284 
L 66.274497 235.37748 
L 66.311738 235.405465 
L 66.332939 235.421658 
L 67.09863 236.002007 
L 67.72296 236.48176 
L 68.569787 237.12874 
L 69.343608 237.7296 
L 69.757769 238.048443 
L 69.899793 238.159287 
L 70.819003 238.8713 
L 72.356602 240.08172 
L 72.390288 240.108049 
L 73.586616 241.056 
L 74.015231 241.39435 
L 74.809834 242.03028 
L 75.291512 242.413012 
L 75.584305 242.649435 
L 76.155115 243.106945 
L 77.266008 244.009491 
L 77.515355 244.210964 
L 77.724137 244.3824 
L 78.795112 245.254267 
L 79.187377 245.577946 
L 79.732188 246.024217 
L 80.585504 246.73452 
L 81.095546 247.156026 
L 81.755278 247.7088 
L 82.678994 248.479849 
L 82.919131 248.68308 
L 84.13944 249.708392 
L 84.932037 250.385096 
L 85.144555 250.565238 
L 85.691609 251.0352 
L 86.330029 251.57894 
L 87.155342 252.293193 
L 87.764595 252.817742 
L 88.41738 253.38732 
L 89.409429 254.254235 
L 89.532681 254.3616 
L 89.580565 254.403157 
L 90.640589 255.33588 
L 90.685841 255.37541 
L 90.716635 255.402741 
L 91.459593 256.057538 
L 92.250749 256.764125 
L 92.852283 257.298673 
L 93.283453 257.688 
L 94.064926 258.387555 
L 94.385576 258.678413 
L 95.010034 259.24091 
L 95.88323 260.04012 
L 96.339918 260.455068 
L 96.94702 261.0144 
L 97.586328 261.599199 
L 97.851108 261.844232 
L 98.006307 261.98868 
L 99.299089 263.183117 
L 100.240541 264.066923 
L 100.328849 264.149256 
L 100.531611 264.3408 
L 101.430577 265.182689 
L 102.797777 266.483632 
L 102.912703 266.592475 
L 103.33993 266.997635 
L 103.33993 264.3408 
L 103.33993 261.0144 
L 103.33993 257.688 
L 103.33993 254.3616 
L 103.33993 251.0352 
L 103.33993 247.7088 
L 103.33993 244.3824 
L 103.33993 241.056 
L 103.33993 237.7296 
L 103.33993 234.4032 
L 103.33993 231.0768 
L 103.33993 227.7504 
L 103.33993 224.424 
L 103.33993 221.0976 
L 103.33993 217.7712 
L 103.33993 214.4448 
L 103.33993 211.1184 
L 103.33993 207.792 
L 103.33993 204.4656 
L 103.33993 201.1392 
L 103.33993 197.8128 
L 103.33993 194.4864 
L 103.33993 191.16 
L 103.33993 187.8336 
L 103.33993 184.5072 
L 103.33993 181.1808 
L 103.33993 177.8544 
L 103.33993 174.528 
L 103.33993 171.2016 
L 103.33993 167.8752 
L 103.33993 164.5488 
L 103.33993 161.2224 
L 103.33993 157.896 
L 103.33993 154.5696 
L 103.33993 151.2432 
L 103.33993 147.9168 
L 103.33993 144.5904 
L 103.33993 141.264 
" clip-path="url(#p8c97a5708b)" style="fill: #ff3800"/>
   </g>
   <g id="PathCollection_10">
    <path d="M 103.33993 266.997635 
L 102.912703 266.592475 
L 102.797777 266.483632 
L 101.430577 265.182689 
L 100.531611 264.3408 
L 100.328849 264.149256 
L 100.240541 264.066923 
L 99.299089 263.183117 
L 98.006307 261.98868 
L 97.851108 261.844232 
L 97.586328 261.599199 
L 96.94702 261.0144 
L 96.339918 260.455068 
L 95.88323 260.04012 
L 95.010034 259.24091 
L 94.385576 258.678413 
L 94.064926 258.387555 
L 93.283453 257.688 
L 92.852283 257.298673 
L 92.250749 256.764125 
L 91.459593 256.057538 
L 90.716635 255.402741 
L 90.685841 255.37541 
L 90.640589 255.33588 
L 89.580565 254.403157 
L 89.532681 254.3616 
L 89.409429 254.254235 
L 88.41738 253.38732 
L 87.764595 252.817742 
L 87.155342 252.293193 
L 86.330029 251.57894 
L 85.691609 251.0352 
L 85.144555 250.565238 
L 84.932037 250.385096 
L 84.13944 249.708392 
L 82.919131 248.68308 
L 82.678994 248.479849 
L 81.755278 247.7088 
L 81.095546 247.156026 
L 80.585504 246.73452 
L 79.732188 246.024217 
L 79.187377 245.577946 
L 78.795112 245.254267 
L 77.724137 244.3824 
L 77.515355 244.210964 
L 77.266008 244.009491 
L 76.155115 243.106945 
L 75.584305 242.649435 
L 75.291512 242.413012 
L 74.809834 242.03028 
L 74.015231 241.39435 
L 73.586616 241.056 
L 72.390288 240.108049 
L 72.356602 240.08172 
L 70.819003 238.8713 
L 69.899793 238.159287 
L 69.757769 238.048443 
L 69.343608 237.7296 
L 68.569787 237.12874 
L 67.72296 236.48176 
L 67.09863 236.002007 
L 66.332939 235.421658 
L 66.311738 235.405465 
L 66.274497 235.37748 
L 65.128709 234.510284 
L 65.089805 234.481006 
L 64.985275 234.4032 
L 64.477079 234.022364 
L 63.686959 233.42892 
L 63.328211 233.159715 
L 63.064379 232.964459 
L 61.774808 232.004389 
L 60.703042 231.219356 
L 60.655591 231.184329 
L 60.507886 231.0768 
L 59.493468 230.33196 
L 58.473648 229.595283 
L 57.978013 229.235076 
L 57.62857 228.980935 
L 57.62857 231.0768 
L 57.62857 234.4032 
L 57.62857 237.7296 
L 57.62857 241.056 
L 57.62857 244.3824 
L 57.62857 247.7088 
L 57.62857 251.0352 
L 57.62857 254.3616 
L 57.62857 257.688 
L 57.62857 261.0144 
L 57.62857 264.3408 
L 57.62857 267.6672 
L 57.62857 270.9936 
L 57.62857 274.32 
L 57.62857 277.6464 
L 57.62857 280.9728 
L 57.62857 284.2992 
L 57.62857 287.6256 
L 57.62857 290.952 
L 57.62857 294.2784 
L 57.62857 297.6048 
L 57.62857 300.9312 
L 57.62857 304.2576 
L 57.62857 307.584 
L 59.152282 307.584 
L 60.675994 307.584 
L 62.199706 307.584 
L 63.723418 307.584 
L 65.24713 307.584 
L 66.770842 307.584 
L 68.294554 307.584 
L 69.818266 307.584 
L 71.341978 307.584 
L 72.86569 307.584 
L 74.389402 307.584 
L 75.913114 307.584 
L 77.436826 307.584 
L 78.960538 307.584 
L 80.48425 307.584 
L 82.007962 307.584 
L 83.531674 307.584 
L 85.055386 307.584 
L 86.579098 307.584 
L 88.10281 307.584 
L 89.626522 307.584 
L 91.150234 307.584 
L 92.673946 307.584 
L 94.197658 307.584 
L 95.72137 307.584 
L 97.245082 307.584 
L 98.768794 307.584 
L 100.292506 307.584 
L 101.816218 307.584 
L 103.33993 307.584 
L 103.33993 304.2576 
L 103.33993 300.9312 
L 103.33993 297.6048 
L 103.33993 294.2784 
L 103.33993 290.952 
L 103.33993 287.6256 
L 103.33993 284.2992 
L 103.33993 280.9728 
L 103.33993 277.6464 
L 103.33993 274.32 
L 103.33993 270.9936 
L 103.33993 267.6672 
" clip-path="url(#p8c97a5708b)" style="fill: #b60000"/>
   </g>
   <g id="PathCollection_11">
    <path clip-path="url(#p8c97a5708b)" style="fill: #0000b6"/>
   </g>
   <g id="PathCollection_12">
    <path clip-path="url(#p8c97a5708b)" style="fill: #0018ff"/>
   </g>
   <g id="PathCollection_13">
    <path clip-path="url(#p8c97a5708b)" style="fill: #0080ff"/>
   </g>
   <g id="PathCollection_14">
    <path clip-path="url(#p8c97a5708b)" style="fill: #00e4f8"/>
   </g>
   <g id="PathCollection_15">
    <path clip-path="url(#p8c97a5708b)" style="fill: #53ffa4"/>
   </g>
   <g id="PathCollection_16">
    <path clip-path="url(#p8c97a5708b)" style="fill: #a4ff53"/>
   </g>
   <g id="PathCollection_17">
    <path d="M 217.926085 41.472 
L 218.234968 42.091621 
L 218.37316 42.44628 
L 218.907923 43.579043 
L 219.471384 44.7984 
L 219.871027 45.621984 
L 220.515488 47.15052 
L 220.923981 47.962889 
L 220.950971 48.03876 
L 220.984831 48.1248 
L 221.031994 48.203297 
L 221.065278 48.262661 
L 221.391676 49.09908 
L 222.398224 51.236271 
L 222.486097 51.4512 
L 222.617554 51.756259 
L 223.480418 53.80332 
L 223.804083 54.449276 
L 223.907766 54.7776 
L 224.006216 54.975984 
L 224.102117 55.156654 
L 224.334743 55.75188 
L 224.863052 56.876188 
L 225.364767 58.104 
L 226.114377 59.846024 
L 226.371489 60.45612 
L 226.467653 60.648697 
L 226.584052 60.992037 
L 226.715858 61.4304 
L 227.176441 62.332749 
L 227.204596 62.40468 
L 227.268317 62.540582 
L 228.173475 64.7568 
L 228.710432 66.006318 
L 229.151655 67.10892 
L 229.193677 67.257371 
L 229.457297 68.0832 
L 229.846119 68.848291 
L 229.944505 69.05748 
L 230.638166 70.746644 
L 230.89137 71.4096 
L 231.503678 72.931216 
L 231.835882 73.76172 
L 231.95127 74.166885 
L 232.133894 74.736 
L 232.400723 75.263274 
L 232.59014 75.66784 
L 232.603621 75.71028 
L 232.65375 75.838879 
L 233.50311 78.0624 
L 234.149987 79.671066 
L 234.407283 80.41452 
L 234.565275 80.793157 
L 234.644708 81.070427 
L 234.747397 81.3888 
L 234.896056 81.683774 
L 235.001592 81.910176 
L 235.145895 82.36308 
L 235.680276 83.735382 
L 236.054626 84.7152 
L 236.339509 85.424116 
L 236.908859 87.06732 
L 237.257247 87.90417 
L 237.275684 87.968153 
L 237.299493 88.0416 
L 237.357903 88.161897 
L 237.630824 89.01588 
L 238.479526 91.197509 
L 238.536603 91.368 
L 238.616872 91.594931 
L 239.354096 93.72012 
L 239.646926 94.425072 
L 239.715694 94.6944 
L 239.781181 94.854199 
L 239.844641 94.997382 
L 240.059823 95.66868 
L 240.573331 96.989892 
L 240.918733 98.0208 
L 241.40407 99.393087 
L 241.744379 100.37292 
L 241.879096 100.697924 
L 241.958675 100.984691 
L 242.04605 101.3472 
L 242.35587 102.07763 
L 242.434267 102.32148 
L 242.62063 102.801387 
L 243.248418 104.6736 
L 244.00445 106.811451 
L 244.074801 107.02572 
L 244.080902 107.052943 
L 244.326111 108 
L 244.702058 108.889231 
L 244.734941 108.97428 
L 245.211211 110.385757 
L 245.526889 111.3264 
L 245.69115 111.790903 
L 246.311403 113.67852 
L 246.365588 113.918433 
L 246.557013 114.6528 
L 246.890279 115.47441 
L 246.957317 115.62708 
L 247.351937 116.796064 
L 247.722431 117.9792 
L 248.48509 120.286519 
L 248.499823 120.33132 
L 248.601796 120.779409 
L 248.739863 121.3056 
L 248.947424 121.799615 
L 249.094925 122.183764 
L 249.119622 122.27988 
L 249.208403 122.558557 
L 249.85854 124.632 
L 250.384381 126.222193 
L 250.598862 126.98412 
L 250.726863 127.358016 
L 250.875738 127.9584 
L 251.092636 128.496524 
L 251.205184 128.93268 
L 251.608125 130.197486 
L 251.949505 131.2848 
L 252.225311 132.118491 
L 252.653712 133.63692 
L 252.908511 134.382164 
L 252.965685 134.6112 
L 253.04817 134.816463 
L 253.247446 135.58548 
L 253.958051 137.815951 
L 253.996295 137.9376 
L 254.027159 138.03085 
L 254.665898 140.28972 
L 254.957694 141.144235 
L 254.982018 141.264 
L 255.005394 141.333942 
L 255.028072 141.395745 
L 255.247304 142.23828 
L 255.794969 143.957195 
L 255.966719 144.5904 
L 256.195842 145.388337 
L 256.6363 146.94252 
L 256.819655 147.480102 
L 256.909093 147.9168 
L 256.994107 148.171879 
L 257.076606 148.397235 
L 257.205631 148.89108 
L 257.526609 149.898405 
L 257.892017 151.2432 
L 258.379176 152.938345 
L 258.565778 153.59532 
L 258.64318 153.822511 
L 258.718136 154.154025 
L 258.797442 154.5696 
L 259.083341 155.391611 
L 259.123283 155.54388 
L 259.222245 155.854409 
L 259.777968 157.896 
L 260.348705 159.880262 
L 260.446531 160.24812 
L 260.454252 160.292464 
L 260.647806 161.2224 
L 260.851426 161.83657 
L 260.982663 162.19668 
L 261.357063 163.564914 
L 261.62535 164.5488 
L 261.786069 165.107076 
L 262.263908 166.90092 
L 262.315264 167.124756 
L 262.46091 167.8752 
L 262.721594 168.66347 
L 262.789238 168.84948 
L 263.201828 170.355325 
L 263.41588 171.2016 
L 263.80164 172.642939 
L 264.044655 173.55372 
L 264.112897 173.93866 
L 264.237464 174.528 
L 264.553785 175.486835 
L 264.55939 175.50228 
L 264.593685 175.627286 
L 265.158187 177.8544 
L 265.682451 179.810888 
L 265.771197 180.20652 
L 265.823055 180.394329 
L 265.887855 180.756697 
L 265.978164 181.1808 
L 266.215052 181.900547 
L 266.267059 182.15508 
L 266.448885 182.865666 
L 266.865834 184.5072 
L 267.2211 185.831404 
L 267.452379 186.85932 
L 267.587059 187.347388 
L 267.683696 187.8336 
L 267.769311 188.082551 
L 267.82979 188.278495 
L 267.938506 188.80788 
L 268.317039 190.286156 
L 268.539459 191.16 
L 268.728741 191.864662 
L 269.100532 193.51212 
L 269.316304 194.294531 
L 269.354728 194.4864 
L 269.388438 194.584621 
L 269.412244 194.661938 
L 269.577096 195.46068 
L 270.148798 197.691689 
L 270.179688 197.8128 
L 270.205945 197.910428 
L 270.716242 200.16492 
L 270.960522 201.051199 
L 270.967449 201.090426 
L 270.97438 201.1392 
L 270.98784 201.189873 
L 271.001028 201.234096 
L 271.183414 202.11348 
L 271.658562 203.966297 
L 271.765659 204.4656 
L 271.902204 205.065024 
L 272.300088 206.81772 
L 272.473307 207.4465 
L 272.500732 207.600487 
L 272.528221 207.792 
L 272.580959 207.990982 
L 272.632649 208.164622 
L 272.758035 208.76628 
L 273.083293 210.033626 
L 273.316533 211.1184 
L 273.613725 212.421147 
L 273.852638 213.47052 
L 273.95627 213.846878 
L 274.004122 214.113331 
L 274.052173 214.4448 
L 274.232568 215.089751 
L 274.301525 215.41908 
L 274.479657 216.112612 
L 274.837132 217.7712 
L 275.292352 219.763753 
L 275.374451 220.12332 
L 275.409936 220.252243 
L 275.546734 221.0976 
L 275.801334 222.009579 
L 275.81444 222.07188 
L 275.848157 222.203048 
L 276.327979 224.424 
L 276.736864 226.211116 
L 276.855553 226.77612 
L 276.923272 227.147177 
L 277.012396 227.7504 
L 277.177488 228.377289 
L 277.28039 228.72468 
L 277.58474 230.130848 
L 277.789589 231.0768 
L 277.928251 231.68196 
L 278.296047 233.42892 
L 278.322286 233.62953 
L 278.449644 234.4032 
L 278.650448 235.167212 
L 278.712637 235.37748 
L 279.101496 237.170802 
L 279.212459 237.7296 
L 279.390703 238.575315 
L 279.708553 240.08172 
L 279.752645 240.415487 
L 279.858956 241.056 
L 280.029665 241.670724 
L 280.117035 242.03028 
L 280.257476 242.676774 
L 280.597051 244.3824 
L 281.078895 246.664757 
L 281.090908 246.73452 
L 281.097828 246.766639 
L 281.155485 247.198883 
L 281.240804 247.7088 
L 281.376473 248.198145 
L 281.470872 248.587463 
L 281.485735 248.68308 
L 281.53695 248.941074 
L 281.954949 251.0352 
L 282.328969 252.803859 
L 282.429793 253.38732 
L 282.487668 253.65601 
L 282.531262 253.979759 
L 282.595655 254.3616 
L 282.69708 254.728005 
L 282.767621 255.019537 
L 282.817074 255.33588 
L 282.986746 256.189645 
L 283.28659 257.688 
L 283.554554 258.953024 
L 283.743062 260.04012 
L 283.850891 260.540851 
L 283.923968 261.0144 
L 284.039165 261.455902 
L 284.122919 261.98868 
L 284.409066 263.426925 
L 284.59241 264.3408 
L 284.756059 265.112083 
L 285.031126 266.69292 
L 285.187932 267.421235 
L 285.226196 267.6672 
L 285.261435 267.79488 
L 285.285922 267.896486 
L 285.403678 268.64148 
L 285.804352 270.653096 
L 285.872836 270.9936 
L 285.93389 271.280872 
L 286.294392 273.34572 
L 286.499217 274.297235 
L 286.502787 274.32 
L 286.508305 274.341218 
L 286.659757 275.29428 
L 287.091232 277.45808 
L 287.121732 277.6464 
L 287.159108 277.862612 
L 287.533262 279.99852 
L 287.70373 280.790539 
L 287.724909 280.9728 
L 287.745786 281.076397 
L 287.766747 281.165787 
L 287.891557 281.94708 
L 288.230096 283.642882 
L 288.33669 284.2992 
L 288.467221 285.052961 
L 288.748132 286.65132 
L 288.875653 287.243861 
L 288.920455 287.6256 
L 288.964098 287.842614 
L 289.007942 288.029857 
L 289.099473 288.59988 
L 289.346693 289.836833 
L 289.528308 290.952 
L 289.750559 292.233129 
L 289.939397 293.30412 
L 290.024815 293.701057 
L 290.060357 293.959332 
L 290.093232 294.2784 
L 290.159117 294.606662 
L 290.225345 294.889877 
L 290.283897 295.25268 
L 290.441391 296.039784 
L 290.696959 297.6048 
L 291.009511 299.403276 
L 291.107443 299.95692 
L 291.151587 300.162064 
L 291.199332 300.506101 
L 291.243594 300.9312 
L 291.419335 301.745911 
L 291.445215 301.90548 
L 291.514549 302.251586 
L 291.843012 304.2576 
L 292.244464 306.563561 
L 292.252655 306.60972 
L 292.256335 306.626819 
L 292.407679 307.584 
L 294.72768 307.584 
L 302.8224 307.584 
L 310.91712 307.584 
L 319.01184 307.584 
L 327.10656 307.584 
L 335.20128 307.584 
L 343.296 307.584 
L 343.296 304.2576 
L 343.296 300.9312 
L 343.296 297.6048 
L 343.296 294.2784 
L 343.296 290.952 
L 343.296 287.6256 
L 343.296 284.2992 
L 343.296 280.9728 
L 343.296 277.6464 
L 343.296 274.32 
L 343.296 270.9936 
L 343.296 267.6672 
L 343.296 264.3408 
L 343.296 261.0144 
L 343.296 257.688 
L 343.296 254.3616 
L 343.296 251.0352 
L 343.296 247.7088 
L 343.296 244.3824 
L 343.296 241.056 
L 343.296 237.7296 
L 343.296 234.4032 
L 343.296 231.0768 
L 343.296 227.7504 
L 343.296 224.424 
L 343.296 221.0976 
L 343.296 217.7712 
L 343.296 214.4448 
L 343.296 211.1184 
L 343.296 207.792 
L 343.296 204.4656 
L 343.296 201.1392 
L 343.296 197.8128 
L 343.296 194.4864 
L 343.296 191.16 
L 343.296 187.8336 
L 343.296 184.5072 
L 343.296 181.1808 
L 343.296 177.8544 
L 343.296 174.528 
L 343.296 171.2016 
L 343.296 167.8752 
L 343.296 164.5488 
L 343.296 161.2224 
L 343.296 157.896 
L 343.296 154.5696 
L 343.296 151.2432 
L 343.296 147.9168 
L 343.296 144.5904 
L 343.296 141.264 
L 343.296 137.9376 
L 343.296 134.6112 
L 343.296 131.2848 
L 343.296 127.9584 
L 343.296 124.632 
L 343.296 121.3056 
L 343.296 117.9792 
L 343.296 114.6528 
L 343.296 111.3264 
L 343.296 108 
L 343.296 104.6736 
L 343.296 101.3472 
L 343.296 98.0208 
L 343.296 94.6944 
L 343.296 91.368 
L 343.296 88.0416 
L 343.296 84.7152 
L 343.296 81.3888 
L 343.296 78.0624 
L 343.296 74.736 
L 343.296 71.4096 
L 343.296 68.0832 
L 343.296 64.7568 
L 343.296 61.4304 
L 343.296 58.104 
L 343.296 54.7776 
L 343.296 51.4512 
L 343.296 48.1248 
L 343.296 44.7984 
L 343.296 41.472 
L 335.20128 41.472 
L 327.10656 41.472 
L 319.01184 41.472 
L 310.91712 41.472 
L 302.8224 41.472 
L 294.72768 41.472 
L 286.63296 41.472 
L 278.53824 41.472 
L 270.44352 41.472 
L 262.3488 41.472 
L 254.25408 41.472 
L 246.15936 41.472 
L 238.06464 41.472 
L 229.96992 41.472 
L 221.8752 41.472 
" clip-path="url(#p8c97a5708b)" style="fill: #f8f500"/>
   </g>
   <g id="PathCollection_18">
    <path d="M 292.407679 307.584 
L 292.256335 306.626819 
L 292.252655 306.60972 
L 292.244464 306.563561 
L 291.843012 304.2576 
L 291.514549 302.251586 
L 291.445215 301.90548 
L 291.419335 301.745911 
L 291.243594 300.9312 
L 291.199332 300.506101 
L 291.151587 300.162064 
L 291.107443 299.95692 
L 291.009511 299.403276 
L 290.696959 297.6048 
L 290.441391 296.039784 
L 290.283897 295.25268 
L 290.225345 294.889877 
L 290.159117 294.606662 
L 290.093232 294.2784 
L 290.060357 293.959332 
L 290.024815 293.701057 
L 289.939397 293.30412 
L 289.750559 292.233129 
L 289.528308 290.952 
L 289.346693 289.836833 
L 289.099473 288.59988 
L 289.007942 288.029857 
L 288.964098 287.842614 
L 288.920455 287.6256 
L 288.875653 287.243861 
L 288.748132 286.65132 
L 288.467221 285.052961 
L 288.33669 284.2992 
L 288.230096 283.642882 
L 287.891557 281.94708 
L 287.766747 281.165787 
L 287.745786 281.076397 
L 287.724909 280.9728 
L 287.70373 280.790539 
L 287.533262 279.99852 
L 287.159108 277.862612 
L 287.121732 277.6464 
L 287.091232 277.45808 
L 286.659757 275.29428 
L 286.508305 274.341218 
L 286.502787 274.32 
L 286.499217 274.297235 
L 286.294392 273.34572 
L 285.93389 271.280872 
L 285.872836 270.9936 
L 285.804352 270.653096 
L 285.403678 268.64148 
L 285.285922 267.896486 
L 285.261435 267.79488 
L 285.226196 267.6672 
L 285.187932 267.421235 
L 285.031126 266.69292 
L 284.756059 265.112083 
L 284.59241 264.3408 
L 284.409066 263.426925 
L 284.122919 261.98868 
L 284.039165 261.455902 
L 283.923968 261.0144 
L 283.850891 260.540851 
L 283.743062 260.04012 
L 283.554554 258.953024 
L 283.28659 257.688 
L 282.986746 256.189645 
L 282.817074 255.33588 
L 282.767621 255.019537 
L 282.69708 254.728005 
L 282.595655 254.3616 
L 282.531262 253.979759 
L 282.487668 253.65601 
L 282.429793 253.38732 
L 282.328969 252.803859 
L 281.954949 251.0352 
L 281.53695 248.941074 
L 281.485735 248.68308 
L 281.470872 248.587463 
L 281.376473 248.198145 
L 281.240804 247.7088 
L 281.155485 247.198883 
L 281.097828 246.766639 
L 281.090908 246.73452 
L 281.078895 246.664757 
L 280.597051 244.3824 
L 280.257476 242.676774 
L 280.117035 242.03028 
L 280.029665 241.670724 
L 279.858956 241.056 
L 279.752645 240.415487 
L 279.708553 240.08172 
L 279.390703 238.575315 
L 279.212459 237.7296 
L 279.101496 237.170802 
L 278.712637 235.37748 
L 278.650448 235.167212 
L 278.449644 234.4032 
L 278.322286 233.62953 
L 278.296047 233.42892 
L 277.928251 231.68196 
L 277.789589 231.0768 
L 277.58474 230.130848 
L 277.28039 228.72468 
L 277.177488 228.377289 
L 277.012396 227.7504 
L 276.923272 227.147177 
L 276.855553 226.77612 
L 276.736864 226.211116 
L 276.327979 224.424 
L 275.848157 222.203048 
L 275.81444 222.07188 
L 275.801334 222.009579 
L 275.546734 221.0976 
L 275.409936 220.252243 
L 275.374451 220.12332 
L 275.292352 219.763753 
L 274.837132 217.7712 
L 274.479657 216.112612 
L 274.301525 215.41908 
L 274.232568 215.089751 
L 274.052173 214.4448 
L 274.004122 214.113331 
L 273.95627 213.846878 
L 273.852638 213.47052 
L 273.613725 212.421147 
L 273.316533 211.1184 
L 273.083293 210.033626 
L 272.758035 208.76628 
L 272.632649 208.164622 
L 272.580959 207.990982 
L 272.528221 207.792 
L 272.500732 207.600487 
L 272.473307 207.4465 
L 272.300088 206.81772 
L 271.902204 205.065024 
L 271.765659 204.4656 
L 271.658562 203.966297 
L 271.183414 202.11348 
L 271.001028 201.234096 
L 270.98784 201.189873 
L 270.97438 201.1392 
L 270.967449 201.090426 
L 270.960522 201.051199 
L 270.716242 200.16492 
L 270.205945 197.910428 
L 270.179688 197.8128 
L 270.148798 197.691689 
L 269.577096 195.46068 
L 269.412244 194.661938 
L 269.388438 194.584621 
L 269.354728 194.4864 
L 269.316304 194.294531 
L 269.100532 193.51212 
L 268.728741 191.864662 
L 268.539459 191.16 
L 268.317039 190.286156 
L 267.938506 188.80788 
L 267.82979 188.278495 
L 267.769311 188.082551 
L 267.683696 187.8336 
L 267.587059 187.347388 
L 267.452379 186.85932 
L 267.2211 185.831404 
L 266.865834 184.5072 
L 266.448885 182.865666 
L 266.267059 182.15508 
L 266.215052 181.900547 
L 265.978164 181.1808 
L 265.887855 180.756697 
L 265.823055 180.394329 
L 265.771197 180.20652 
L 265.682451 179.810888 
L 265.158187 177.8544 
L 264.593685 175.627286 
L 264.55939 175.50228 
L 264.553785 175.486835 
L 264.237464 174.528 
L 264.112897 173.93866 
L 264.044655 173.55372 
L 263.80164 172.642939 
L 263.41588 171.2016 
L 263.201828 170.355325 
L 262.789238 168.84948 
L 262.721594 168.66347 
L 262.46091 167.8752 
L 262.315264 167.124756 
L 262.263908 166.90092 
L 261.786069 165.107076 
L 261.62535 164.5488 
L 261.357063 163.564914 
L 260.982663 162.19668 
L 260.851426 161.83657 
L 260.647806 161.2224 
L 260.454252 160.292464 
L 260.446531 160.24812 
L 260.348705 159.880262 
L 259.777968 157.896 
L 259.222245 155.854409 
L 259.123283 155.54388 
L 259.083341 155.391611 
L 258.797442 154.5696 
L 258.718136 154.154025 
L 258.64318 153.822511 
L 258.565778 153.59532 
L 258.379176 152.938345 
L 257.892017 151.2432 
L 257.526609 149.898405 
L 257.205631 148.89108 
L 257.076606 148.397235 
L 256.994107 148.171879 
L 256.909093 147.9168 
L 256.819655 147.480102 
L 256.6363 146.94252 
L 256.195842 145.388337 
L 255.966719 144.5904 
L 255.794969 143.957195 
L 255.247304 142.23828 
L 255.028072 141.395745 
L 255.005394 141.333942 
L 254.982018 141.264 
L 254.957694 141.144235 
L 254.665898 140.28972 
L 254.027159 138.03085 
L 253.996295 137.9376 
L 253.958051 137.815951 
L 253.247446 135.58548 
L 253.04817 134.816463 
L 252.965685 134.6112 
L 252.908511 134.382164 
L 252.653712 133.63692 
L 252.225311 132.118491 
L 251.949505 131.2848 
L 251.608125 130.197486 
L 251.205184 128.93268 
L 251.092636 128.496524 
L 250.875738 127.9584 
L 250.726863 127.358016 
L 250.598862 126.98412 
L 250.384381 126.222193 
L 249.85854 124.632 
L 249.208403 122.558557 
L 249.119622 122.27988 
L 249.094925 122.183764 
L 248.947424 121.799615 
L 248.739863 121.3056 
L 248.601796 120.779409 
L 248.499823 120.33132 
L 248.48509 120.286519 
L 247.722431 117.9792 
L 247.351937 116.796064 
L 246.957317 115.62708 
L 246.890279 115.47441 
L 246.557013 114.6528 
L 246.365588 113.918433 
L 246.311403 113.67852 
L 245.69115 111.790903 
L 245.526889 111.3264 
L 245.211211 110.385757 
L 244.734941 108.97428 
L 244.702058 108.889231 
L 244.326111 108 
L 244.080902 107.052943 
L 244.074801 107.02572 
L 244.00445 106.811451 
L 243.248418 104.6736 
L 242.62063 102.801387 
L 242.434267 102.32148 
L 242.35587 102.07763 
L 242.04605 101.3472 
L 241.958675 100.984691 
L 241.879096 100.697924 
L 241.744379 100.37292 
L 241.40407 99.393087 
L 240.918733 98.0208 
L 240.573331 96.989892 
L 240.059823 95.66868 
L 239.844641 94.997382 
L 239.781181 94.854199 
L 239.715694 94.6944 
L 239.646926 94.425072 
L 239.354096 93.72012 
L 238.616872 91.594931 
L 238.536603 91.368 
L 238.479526 91.197509 
L 237.630824 89.01588 
L 237.357903 88.161897 
L 237.299493 88.0416 
L 237.275684 87.968153 
L 237.257247 87.90417 
L 236.908859 87.06732 
L 236.339509 85.424116 
L 236.054626 84.7152 
L 235.680276 83.735382 
L 235.145895 82.36308 
L 235.001592 81.910176 
L 234.896056 81.683774 
L 234.747397 81.3888 
L 234.644708 81.070427 
L 234.565275 80.793157 
L 234.407283 80.41452 
L 234.149987 79.671066 
L 233.50311 78.0624 
L 232.65375 75.838879 
L 232.603621 75.71028 
L 232.59014 75.66784 
L 232.400723 75.263274 
L 232.133894 74.736 
L 231.95127 74.166885 
L 231.835882 73.76172 
L 231.503678 72.931216 
L 230.89137 71.4096 
L 230.638166 70.746644 
L 229.944505 69.05748 
L 229.846119 68.848291 
L 229.457297 68.0832 
L 229.193677 67.257371 
L 229.151655 67.10892 
L 228.710432 66.006318 
L 228.173475 64.7568 
L 227.268317 62.540582 
L 227.204596 62.40468 
L 227.176441 62.332749 
L 226.715858 61.4304 
L 226.584052 60.992037 
L 226.467653 60.648697 
L 226.371489 60.45612 
L 226.114377 59.846024 
L 225.364767 58.104 
L 224.863052 56.876188 
L 224.334743 55.75188 
L 224.102117 55.156654 
L 224.006216 54.975984 
L 223.907766 54.7776 
L 223.804083 54.449276 
L 223.480418 53.80332 
L 222.617554 51.756259 
L 222.486097 51.4512 
L 222.398224 51.236271 
L 221.391676 49.09908 
L 221.065278 48.262661 
L 221.031994 48.203297 
L 220.984831 48.1248 
L 220.950971 48.03876 
L 220.923981 47.962889 
L 220.515488 47.15052 
L 219.871027 45.621984 
L 219.471384 44.7984 
L 218.907923 43.579043 
L 218.37316 42.44628 
L 218.234968 42.091621 
L 217.926085 41.472 
L 213.78048 41.472 
L 205.68576 41.472 
L 197.59104 41.472 
L 189.49632 41.472 
L 181.4016 41.472 
L 173.30688 41.472 
L 165.21216 41.472 
L 157.11744 41.472 
L 149.02272 41.472 
L 140.928 41.472 
L 132.83328 41.472 
L 124.73856 41.472 
L 116.64384 41.472 
L 108.54912 41.472 
L 100.4544 41.472 
L 100.4544 44.7984 
L 100.4544 48.1248 
L 100.4544 51.4512 
L 100.4544 54.7776 
L 100.4544 58.104 
L 100.4544 61.4304 
L 100.4544 64.7568 
L 100.4544 68.0832 
L 100.4544 71.4096 
L 100.4544 74.736 
L 100.4544 78.0624 
L 100.4544 81.3888 
L 100.4544 84.7152 
L 100.4544 88.0416 
L 100.4544 91.368 
L 100.4544 94.6944 
L 100.4544 98.0208 
L 100.4544 101.3472 
L 100.4544 104.6736 
L 100.4544 108 
L 100.4544 111.3264 
L 100.4544 114.6528 
L 100.4544 117.9792 
L 100.4544 121.3056 
L 100.4544 124.632 
L 100.4544 127.9584 
L 100.4544 131.2848 
L 100.4544 134.6112 
L 100.4544 137.385385 
L 100.755846 137.63854 
L 101.100776 137.9376 
L 103.531945 139.99933 
L 103.851298 140.28972 
L 104.107206 140.507921 
L 104.969339 141.264 
L 105.569436 141.771186 
L 106.070489 142.23828 
L 108.695453 144.530267 
L 108.759679 144.5904 
L 108.931268 144.747438 
L 111.328409 146.94252 
L 111.815125 147.360878 
L 112.360038 147.9168 
L 112.807455 148.313223 
L 113.287077 148.72327 
L 113.465928 148.89108 
L 113.722868 149.117128 
L 115.978377 151.2432 
L 116.323361 151.561142 
L 118.441244 153.59532 
L 118.837663 154.020265 
L 119.373464 154.5696 
L 119.88846 155.021113 
L 120.232419 155.336611 
L 120.428138 155.54388 
L 121.434185 156.538118 
L 122.807594 157.896 
L 123.383678 158.452768 
L 125.114218 160.24812 
L 125.912276 161.022616 
L 126.084364 161.2224 
L 126.222523 161.360547 
L 126.367106 161.499602 
L 127.022164 162.19668 
L 128.028264 163.196947 
L 129.294674 164.5488 
L 131.019946 166.347779 
L 131.52882 166.90092 
L 131.616658 167.008375 
L 132.360796 167.8752 
L 133.099421 168.60399 
L 133.336532 168.84948 
L 134.233833 169.812134 
L 135.476203 171.2016 
L 136.966633 172.829463 
L 137.582757 173.55372 
L 138.020421 174.033087 
L 138.218147 174.27573 
L 138.434012 174.528 
L 138.647823 174.74027 
L 138.792914 174.891423 
L 139.298845 175.50228 
L 141.268194 177.714603 
L 141.383774 177.8544 
L 141.627234 178.14174 
L 143.376963 180.20652 
L 143.815539 180.689299 
L 144.186356 181.1808 
L 144.477653 181.51125 
L 144.776221 181.835824 
L 145.039769 182.15508 
L 145.470107 182.640691 
L 147.007505 184.5072 
L 147.925827 185.595409 
L 148.948776 186.85932 
L 149.112181 187.088362 
L 149.673358 187.8336 
L 150.45089 188.720119 
L 150.531217 188.80788 
L 150.918242 189.279484 
L 152.398183 191.16 
L 153.572925 192.616564 
L 154.242274 193.51212 
L 154.69448 194.073977 
L 154.996587 194.4864 
L 155.270907 194.800707 
L 155.750617 195.46068 
L 157.478358 197.664486 
L 157.586047 197.8128 
L 157.79273 198.0903 
L 159.339304 200.16492 
L 159.75985 200.689423 
L 159.891134 200.880987 
L 160.056855 201.1392 
L 160.286178 201.434189 
L 160.517324 201.71791 
L 160.80427 202.11348 
L 161.299388 202.747093 
L 162.544009 204.4656 
L 163.675929 205.98967 
L 164.265359 206.81772 
L 164.352808 206.958434 
L 164.902874 207.792 
L 165.480328 208.520601 
L 165.664461 208.76628 
L 166.465377 209.875103 
L 167.325922 211.1184 
L 168.67682 213.021052 
L 168.971519 213.47052 
L 169.162043 213.739288 
L 169.37279 214.078562 
L 169.614321 214.4448 
L 170.042868 215.000383 
L 170.309447 215.41908 
L 171.387647 216.982521 
L 171.93245 217.7712 
L 172.242342 218.208655 
L 173.495787 220.12332 
L 174.090253 220.964258 
L 174.124577 221.021478 
L 174.167061 221.0976 
L 174.225593 221.183126 
L 174.283808 221.263887 
L 174.797765 222.07188 
L 175.730826 223.427917 
L 176.363664 224.424 
L 177.482946 226.14009 
L 177.89872 226.77612 
L 178.020009 226.948156 
L 178.226573 227.292409 
L 178.482302 227.7504 
L 178.833313 228.264875 
L 179.163757 228.72468 
L 179.389376 229.080506 
L 180.655828 231.0768 
L 180.948498 231.526315 
L 182.134841 233.42892 
L 182.221508 233.573306 
L 182.685126 234.4032 
L 183.319167 235.335279 
L 183.349408 235.37748 
L 183.512632 235.635279 
L 184.78214 237.7296 
L 185.742216 239.272291 
L 186.20559 240.08172 
L 186.493253 240.544834 
L 186.624785 240.788679 
L 186.778964 241.056 
L 186.944297 241.293577 
L 187.060225 241.470659 
L 187.370909 242.03028 
L 188.557913 243.996776 
L 188.791431 244.3824 
L 188.934837 244.613133 
L 190.148556 246.73452 
L 190.632673 247.515376 
L 190.676367 247.598945 
L 190.729382 247.7088 
L 190.802151 247.830364 
L 190.873765 247.943261 
L 191.2845 248.68308 
L 192.065861 249.979287 
L 192.651088 251.0352 
L 193.615097 252.727748 
L 193.992259 253.38732 
L 194.109279 253.576407 
L 194.28686 253.915632 
L 194.502389 254.3616 
L 195.087101 255.313233 
L 195.099675 255.33588 
L 195.123569 255.375569 
L 196.404461 257.688 
L 196.832622 258.440414 
L 197.703205 260.04012 
L 197.815477 260.281728 
L 198.182783 261.0144 
L 198.69299 261.87055 
L 198.767603 261.98868 
L 199.190706 262.753797 
L 200.029629 264.3408 
L 201.061964 266.240877 
L 201.286692 266.69292 
L 201.421305 266.941327 
L 201.773107 267.6672 
L 202.132751 268.271974 
L 202.310562 268.64148 
L 202.957866 269.872614 
L 203.550314 270.9936 
L 203.939898 271.711035 
L 204.752713 273.34572 
L 205.238898 274.243938 
L 205.275815 274.32 
L 205.313427 274.383376 
L 205.752126 275.29428 
L 206.756801 277.206272 
L 206.968222 277.6464 
L 207.295118 278.307741 
L 208.136007 279.99852 
L 208.411892 280.508772 
L 208.612061 280.9728 
L 208.760861 281.259072 
L 208.906208 281.520968 
L 209.111599 281.94708 
L 209.519498 282.723785 
L 210.276371 284.2992 
L 211.429171 286.631895 
L 211.438332 286.65132 
L 211.629592 287.072268 
L 211.859404 287.6256 
L 212.172803 288.229501 
L 212.378053 288.59988 
L 213.257082 290.432745 
L 213.506586 290.952 
L 213.596683 291.134342 
L 214.62017 293.30412 
L 214.743427 293.614478 
L 215.031037 294.2784 
L 215.504683 295.192478 
L 215.537998 295.25268 
L 215.735758 295.665001 
L 216.623403 297.6048 
L 217.474775 299.413087 
L 217.707562 299.95692 
L 217.842501 300.244776 
L 218.128836 300.9312 
L 218.306331 301.263438 
L 218.432078 301.51727 
L 218.592617 301.90548 
L 219.152657 303.138813 
L 219.664839 304.2576 
L 220.0232 305.018651 
L 220.704824 306.60972 
L 221.099422 307.451951 
L 221.159192 307.584 
L 221.8752 307.584 
L 229.96992 307.584 
L 238.06464 307.584 
L 246.15936 307.584 
L 254.25408 307.584 
L 262.3488 307.584 
L 270.44352 307.584 
L 278.53824 307.584 
L 286.63296 307.584 
" clip-path="url(#p8c97a5708b)" style="fill: #ff9400"/>
   </g>
   <g id="PathCollection_19">
    <path d="M 221.159192 307.584 
L 221.099422 307.451951 
L 220.704824 306.60972 
L 220.0232 305.018651 
L 219.664839 304.2576 
L 219.152657 303.138813 
L 218.592617 301.90548 
L 218.432078 301.51727 
L 218.306331 301.263438 
L 218.128836 300.9312 
L 217.842501 300.244776 
L 217.707562 299.95692 
L 217.474775 299.413087 
L 216.623403 297.6048 
L 215.735758 295.665001 
L 215.537998 295.25268 
L 215.504683 295.192478 
L 215.031037 294.2784 
L 214.743427 293.614478 
L 214.62017 293.30412 
L 213.596683 291.134342 
L 213.506586 290.952 
L 213.257082 290.432745 
L 212.378053 288.59988 
L 212.172803 288.229501 
L 211.859404 287.6256 
L 211.629592 287.072268 
L 211.438332 286.65132 
L 211.429171 286.631895 
L 210.276371 284.2992 
L 209.519498 282.723785 
L 209.111599 281.94708 
L 208.906208 281.520968 
L 208.760861 281.259072 
L 208.612061 280.9728 
L 208.411892 280.508772 
L 208.136007 279.99852 
L 207.295118 278.307741 
L 206.968222 277.6464 
L 206.756801 277.206272 
L 205.752126 275.29428 
L 205.313427 274.383376 
L 205.275815 274.32 
L 205.238898 274.243938 
L 204.752713 273.34572 
L 203.939898 271.711035 
L 203.550314 270.9936 
L 202.957866 269.872614 
L 202.310562 268.64148 
L 202.132751 268.271974 
L 201.773107 267.6672 
L 201.421305 266.941327 
L 201.286692 266.69292 
L 201.061964 266.240877 
L 200.029629 264.3408 
L 199.190706 262.753797 
L 198.767603 261.98868 
L 198.69299 261.87055 
L 198.182783 261.0144 
L 197.815477 260.281728 
L 197.703205 260.04012 
L 196.832622 258.440414 
L 196.404461 257.688 
L 195.123569 255.375569 
L 195.099675 255.33588 
L 195.087101 255.313233 
L 194.502389 254.3616 
L 194.28686 253.915632 
L 194.109279 253.576407 
L 193.992259 253.38732 
L 193.615097 252.727748 
L 192.651088 251.0352 
L 192.065861 249.979287 
L 191.2845 248.68308 
L 190.873765 247.943261 
L 190.802151 247.830364 
L 190.729382 247.7088 
L 190.676367 247.598945 
L 190.632673 247.515376 
L 190.148556 246.73452 
L 188.934837 244.613133 
L 188.791431 244.3824 
L 188.557913 243.996776 
L 187.370909 242.03028 
L 187.060225 241.470659 
L 186.944297 241.293577 
L 186.778964 241.056 
L 186.624785 240.788679 
L 186.493253 240.544834 
L 186.20559 240.08172 
L 185.742216 239.272291 
L 184.78214 237.7296 
L 183.512632 235.635279 
L 183.349408 235.37748 
L 183.319167 235.335279 
L 182.685126 234.4032 
L 182.221508 233.573306 
L 182.134841 233.42892 
L 180.948498 231.526315 
L 180.655828 231.0768 
L 179.389376 229.080506 
L 179.163757 228.72468 
L 178.833313 228.264875 
L 178.482302 227.7504 
L 178.226573 227.292409 
L 178.020009 226.948156 
L 177.89872 226.77612 
L 177.482946 226.14009 
L 176.363664 224.424 
L 175.730826 223.427917 
L 174.797765 222.07188 
L 174.283808 221.263887 
L 174.225593 221.183126 
L 174.167061 221.0976 
L 174.124577 221.021478 
L 174.090253 220.964258 
L 173.495787 220.12332 
L 172.242342 218.208655 
L 171.93245 217.7712 
L 171.387647 216.982521 
L 170.309447 215.41908 
L 170.042868 215.000383 
L 169.614321 214.4448 
L 169.37279 214.078562 
L 169.162043 213.739288 
L 168.971519 213.47052 
L 168.67682 213.021052 
L 167.325922 211.1184 
L 166.465377 209.875103 
L 165.664461 208.76628 
L 165.480328 208.520601 
L 164.902874 207.792 
L 164.352808 206.958434 
L 164.265359 206.81772 
L 163.675929 205.98967 
L 162.544009 204.4656 
L 161.299388 202.747093 
L 160.80427 202.11348 
L 160.517324 201.71791 
L 160.286178 201.434189 
L 160.056855 201.1392 
L 159.891134 200.880987 
L 159.75985 200.689423 
L 159.339304 200.16492 
L 157.79273 198.0903 
L 157.586047 197.8128 
L 157.478358 197.664486 
L 155.750617 195.46068 
L 155.270907 194.800707 
L 154.996587 194.4864 
L 154.69448 194.073977 
L 154.242274 193.51212 
L 153.572925 192.616564 
L 152.398183 191.16 
L 150.918242 189.279484 
L 150.531217 188.80788 
L 150.45089 188.720119 
L 149.673358 187.8336 
L 149.112181 187.088362 
L 148.948776 186.85932 
L 147.925827 185.595409 
L 147.007505 184.5072 
L 145.470107 182.640691 
L 145.039769 182.15508 
L 144.776221 181.835824 
L 144.477653 181.51125 
L 144.186356 181.1808 
L 143.815539 180.689299 
L 143.376963 180.20652 
L 141.627234 178.14174 
L 141.383774 177.8544 
L 141.268194 177.714603 
L 139.298845 175.50228 
L 138.792914 174.891423 
L 138.647823 174.74027 
L 138.434012 174.528 
L 138.218147 174.27573 
L 138.020421 174.033087 
L 137.582757 173.55372 
L 136.966633 172.829463 
L 135.476203 171.2016 
L 134.233833 169.812134 
L 133.336532 168.84948 
L 133.099421 168.60399 
L 132.360796 167.8752 
L 131.616658 167.008375 
L 131.52882 166.90092 
L 131.019946 166.347779 
L 129.294674 164.5488 
L 128.028264 163.196947 
L 127.022164 162.19668 
L 126.367106 161.499602 
L 126.222523 161.360547 
L 126.084364 161.2224 
L 125.912276 161.022616 
L 125.114218 160.24812 
L 123.383678 158.452768 
L 122.807594 157.896 
L 121.434185 156.538118 
L 120.428138 155.54388 
L 120.232419 155.336611 
L 119.88846 155.021113 
L 119.373464 154.5696 
L 118.837663 154.020265 
L 118.441244 153.59532 
L 116.323361 151.561142 
L 115.978377 151.2432 
L 113.722868 149.117128 
L 113.465928 148.89108 
L 113.287077 148.72327 
L 112.807455 148.313223 
L 112.360038 147.9168 
L 111.815125 147.360878 
L 111.328409 146.94252 
L 108.931268 144.747438 
L 108.759679 144.5904 
L 108.695453 144.530267 
L 106.070489 142.23828 
L 105.569436 141.771186 
L 104.969339 141.264 
L 104.107206 140.507921 
L 103.851298 140.28972 
L 103.531945 139.99933 
L 101.100776 137.9376 
L 100.755846 137.63854 
L 100.4544 137.385385 
L 100.4544 137.9376 
L 100.4544 141.264 
L 100.4544 144.5904 
L 100.4544 147.9168 
L 100.4544 151.2432 
L 100.4544 154.5696 
L 100.4544 157.896 
L 100.4544 161.2224 
L 100.4544 164.5488 
L 100.4544 167.8752 
L 100.4544 171.2016 
L 100.4544 174.528 
L 100.4544 177.8544 
L 100.4544 181.1808 
L 100.4544 184.5072 
L 100.4544 187.8336 
L 100.4544 191.16 
L 100.4544 194.4864 
L 100.4544 197.8128 
L 100.4544 201.1392 
L 100.4544 204.4656 
L 100.4544 207.792 
L 100.4544 211.1184 
L 100.4544 214.4448 
L 100.4544 217.7712 
L 100.4544 221.0976 
L 100.4544 224.424 
L 100.4544 227.7504 
L 100.4544 231.0768 
L 100.4544 234.4032 
L 100.4544 237.7296 
L 100.4544 241.056 
L 100.4544 244.3824 
L 100.4544 247.7088 
L 100.4544 251.0352 
L 100.4544 254.3616 
L 100.4544 257.688 
L 100.4544 261.0144 
L 100.4544 264.267637 
L 100.492294 264.303206 
L 100.531325 264.3408 
L 102.960163 266.637496 
L 103.015503 266.69292 
L 103.056789 266.732325 
L 104.021042 267.6672 
L 104.713338 268.320106 
L 105.028966 268.64148 
L 106.649365 270.212925 
L 107.456892 270.9936 
L 107.786875 271.306833 
L 109.815816 273.34572 
L 110.488096 273.989958 
L 110.617915 274.127409 
L 110.790931 274.32 
L 111.023842 274.55038 
L 111.267521 274.782712 
L 111.768421 275.29428 
L 112.511881 276.017965 
L 114.091541 277.6464 
L 115.355173 278.924865 
L 116.381139 279.99852 
L 116.593545 280.223916 
L 117.264869 280.9728 
L 118.166408 281.868107 
L 118.248912 281.94708 
L 118.62386 282.334854 
L 120.460049 284.2992 
L 121.663711 285.562762 
L 122.641031 286.65132 
L 123.335165 287.386722 
L 123.548865 287.6256 
L 123.722371 287.79857 
L 124.42964 288.59988 
L 126.095756 290.394281 
L 126.583576 290.952 
L 127.650895 292.148779 
L 128.685659 293.30412 
L 128.930942 293.564795 
L 129.185366 293.864431 
L 129.518491 294.2784 
L 130.416339 295.244841 
L 130.423243 295.25268 
L 130.434033 295.264333 
L 132.476372 297.6048 
L 132.643692 297.792887 
L 134.504049 299.95692 
L 134.555274 300.017328 
L 135.289763 300.9312 
L 136.044306 301.762476 
L 136.157735 301.90548 
L 136.657602 302.502746 
L 138.133321 304.2576 
L 138.86147 305.106809 
L 140.073259 306.60972 
L 140.89636 307.578614 
L 140.900861 307.584 
L 140.928 307.584 
L 149.02272 307.584 
L 157.11744 307.584 
L 165.21216 307.584 
L 173.30688 307.584 
L 181.4016 307.584 
L 189.49632 307.584 
L 197.59104 307.584 
L 205.68576 307.584 
L 213.78048 307.584 
" clip-path="url(#p8c97a5708b)" style="fill: #ff3800"/>
   </g>
   <g id="PathCollection_20">
    <path d="M 140.900861 307.584 
L 140.89636 307.578614 
L 140.073259 306.60972 
L 138.86147 305.106809 
L 138.133321 304.2576 
L 136.657602 302.502746 
L 136.157735 301.90548 
L 136.044306 301.762476 
L 135.289763 300.9312 
L 134.555274 300.017328 
L 134.504049 299.95692 
L 132.643692 297.792887 
L 132.476372 297.6048 
L 130.434033 295.264333 
L 130.423243 295.25268 
L 130.416339 295.244841 
L 129.518491 294.2784 
L 129.185366 293.864431 
L 128.930942 293.564795 
L 128.685659 293.30412 
L 127.650895 292.148779 
L 126.583576 290.952 
L 126.095756 290.394281 
L 124.42964 288.59988 
L 123.722371 287.79857 
L 123.548865 287.6256 
L 123.335165 287.386722 
L 122.641031 286.65132 
L 121.663711 285.562762 
L 120.460049 284.2992 
L 118.62386 282.334854 
L 118.248912 281.94708 
L 118.166408 281.868107 
L 117.264869 280.9728 
L 116.593545 280.223916 
L 116.381139 279.99852 
L 115.355173 278.924865 
L 114.091541 277.6464 
L 112.511881 276.017965 
L 111.768421 275.29428 
L 111.267521 274.782712 
L 111.023842 274.55038 
L 110.790931 274.32 
L 110.617915 274.127409 
L 110.488096 273.989958 
L 109.815816 273.34572 
L 107.786875 271.306833 
L 107.456892 270.9936 
L 106.649365 270.212925 
L 105.028966 268.64148 
L 104.713338 268.320106 
L 104.021042 267.6672 
L 103.056789 266.732325 
L 103.015503 266.69292 
L 102.960163 266.637496 
L 100.531325 264.3408 
L 100.492294 264.303206 
L 100.4544 264.267637 
L 100.4544 264.3408 
L 100.4544 267.6672 
L 100.4544 270.9936 
L 100.4544 274.32 
L 100.4544 277.6464 
L 100.4544 280.9728 
L 100.4544 284.2992 
L 100.4544 287.6256 
L 100.4544 290.952 
L 100.4544 294.2784 
L 100.4544 297.6048 
L 100.4544 300.9312 
L 100.4544 304.2576 
L 100.4544 307.584 
L 108.54912 307.584 
L 116.64384 307.584 
L 124.73856 307.584 
L 132.83328 307.584 
" clip-path="url(#p8c97a5708b)" style="fill: #b60000"/>
   </g>
   <g id="matplotlib.axis_1">
    <g id="xtick_1">
     <g id="line2d_1">
      <defs>
       <path id="m2af287eda7" d="M 0 0 
L 0 3.5 
" style="stroke: #000000; stroke-width: 0.8"/>
      </defs>
      <g>
       <use xlink:href="#m2af287eda7" x="57.6" y="307.584" style="stroke: #000000; stroke-width: 0.8"/>
      </g>
     </g>
     <g id="text_1">
      <!-- 0.0 -->
      <g transform="translate(51.26875 321.385562) scale(0.1 -0.1)">
       <defs>
        <path id="Calibri-30" d="M 3022 2031 
Q 3022 1566 2948 1181 
Q 2875 797 2704 520 
Q 2534 244 2259 92 
Q 1984 -59 1581 -59 
Q 1200 -59 939 77 
Q 678 213 518 477 
Q 359 741 292 1127 
Q 225 1513 225 2013 
Q 225 2475 300 2861 
Q 375 3247 544 3523 
Q 713 3800 988 3951 
Q 1263 4103 1663 4103 
Q 2047 4103 2308 3967 
Q 2569 3831 2728 3567 
Q 2888 3303 2955 2917 
Q 3022 2531 3022 2031 
z
M 2472 1994 
Q 2472 2297 2450 2537 
Q 2428 2778 2386 2962 
Q 2344 3147 2276 3280 
Q 2209 3413 2115 3498 
Q 2022 3584 1901 3623 
Q 1781 3663 1631 3663 
Q 1366 3663 1200 3538 
Q 1034 3413 939 3194 
Q 844 2975 809 2681 
Q 775 2388 775 2050 
Q 775 1597 822 1280 
Q 869 963 970 763 
Q 1072 563 1230 472 
Q 1388 381 1613 381 
Q 1788 381 1920 437 
Q 2053 494 2148 598 
Q 2244 703 2306 850 
Q 2369 997 2406 1175 
Q 2444 1353 2458 1561 
Q 2472 1769 2472 1994 
z
" transform="scale(0.015625)"/>
        <path id="Calibri-2e" d="M 1144 341 
Q 1144 119 1070 45 
Q 997 -28 803 -28 
Q 616 -28 544 44 
Q 472 116 472 331 
Q 472 553 545 626 
Q 619 700 813 700 
Q 1000 700 1072 628 
Q 1144 556 1144 341 
z
" transform="scale(0.015625)"/>
       </defs>
       <use xlink:href="#Calibri-30"/>
       <use xlink:href="#Calibri-2e" x="50.683594"/>
       <use xlink:href="#Calibri-30" x="75.927734"/>
      </g>
     </g>
    </g>
    <g id="xtick_2">
     <g id="line2d_2">
      <g>
       <use xlink:href="#m2af287eda7" x="86.1696" y="307.584" style="stroke: #000000; stroke-width: 0.8"/>
      </g>
     </g>
     <g id="text_2">
      <!-- 0.1 -->
      <g transform="translate(79.83835 321.385562) scale(0.1 -0.1)">
       <defs>
        <path id="Calibri-31" d="M 2897 213 
Q 2897 153 2887 112 
Q 2878 72 2862 47 
Q 2847 22 2826 11 
Q 2806 0 2784 0 
L 672 0 
Q 650 0 631 11 
Q 613 22 595 47 
Q 578 72 568 112 
Q 559 153 559 213 
Q 559 269 568 309 
Q 578 350 592 376 
Q 606 403 626 417 
Q 647 431 672 431 
L 1516 431 
L 1516 3506 
L 734 3041 
Q 675 3009 639 3003 
Q 603 2997 581 3017 
Q 559 3038 551 3084 
Q 544 3131 544 3203 
Q 544 3256 548 3293 
Q 553 3331 562 3356 
Q 572 3381 589 3400 
Q 606 3419 634 3438 
L 1566 4034 
Q 1578 4044 1597 4050 
Q 1616 4056 1644 4062 
Q 1672 4069 1709 4070 
Q 1747 4072 1803 4072 
Q 1878 4072 1928 4065 
Q 1978 4059 2006 4048 
Q 2034 4038 2043 4020 
Q 2053 4003 2053 3984 
L 2053 431 
L 2784 431 
Q 2809 431 2831 417 
Q 2853 403 2867 376 
Q 2881 350 2889 309 
Q 2897 269 2897 213 
z
" transform="scale(0.015625)"/>
       </defs>
       <use xlink:href="#Calibri-30"/>
       <use xlink:href="#Calibri-2e" x="50.683594"/>
       <use xlink:href="#Calibri-31" x="75.927734"/>
      </g>
     </g>
    </g>
    <g id="xtick_3">
     <g id="line2d_3">
      <g>
       <use xlink:href="#m2af287eda7" x="114.7392" y="307.584" style="stroke: #000000; stroke-width: 0.8"/>
      </g>
     </g>
     <g id="text_3">
      <!-- 0.2 -->
      <g transform="translate(108.40795 321.385562) scale(0.1 -0.1)">
       <defs>
        <path id="Calibri-32" d="M 2888 231 
Q 2888 175 2880 131 
Q 2872 88 2858 58 
Q 2844 28 2820 14 
Q 2797 0 2769 0 
L 534 0 
Q 491 0 458 11 
Q 425 22 401 47 
Q 378 72 367 119 
Q 356 166 356 234 
Q 356 297 361 344 
Q 366 391 381 427 
Q 397 463 420 498 
Q 444 534 481 575 
L 1266 1406 
Q 1538 1694 1702 1922 
Q 1866 2150 1955 2337 
Q 2044 2525 2072 2678 
Q 2100 2831 2100 2966 
Q 2100 3100 2056 3220 
Q 2013 3341 1930 3431 
Q 1847 3522 1722 3575 
Q 1597 3628 1434 3628 
Q 1244 3628 1092 3575 
Q 941 3522 827 3459 
Q 713 3397 636 3344 
Q 559 3291 522 3291 
Q 500 3291 483 3303 
Q 466 3316 455 3344 
Q 444 3372 437 3419 
Q 431 3466 431 3531 
Q 431 3578 434 3612 
Q 438 3647 445 3672 
Q 453 3697 465 3719 
Q 478 3741 515 3773 
Q 553 3806 645 3862 
Q 738 3919 877 3973 
Q 1016 4028 1183 4065 
Q 1350 4103 1534 4103 
Q 1828 4103 2048 4020 
Q 2269 3938 2414 3794 
Q 2559 3650 2631 3459 
Q 2703 3269 2703 3053 
Q 2703 2859 2668 2667 
Q 2634 2475 2523 2251 
Q 2413 2028 2203 1754 
Q 1994 1481 1647 1125 
L 1006 456 
L 2766 456 
Q 2791 456 2814 442 
Q 2838 428 2855 400 
Q 2872 372 2880 330 
Q 2888 288 2888 231 
z
" transform="scale(0.015625)"/>
       </defs>
       <use xlink:href="#Calibri-30"/>
       <use xlink:href="#Calibri-2e" x="50.683594"/>
       <use xlink:href="#Calibri-32" x="75.927734"/>
      </g>
     </g>
    </g>
    <g id="xtick_4">
     <g id="line2d_4">
      <g>
       <use xlink:href="#m2af287eda7" x="143.3088" y="307.584" style="stroke: #000000; stroke-width: 0.8"/>
      </g>
     </g>
     <g id="text_4">
      <!-- 0.3 -->
      <g transform="translate(136.97755 321.385562) scale(0.1 -0.1)">
       <defs>
        <path id="Calibri-33" d="M 2856 1156 
Q 2856 878 2759 654 
Q 2663 431 2481 272 
Q 2300 113 2034 27 
Q 1769 -59 1434 -59 
Q 1231 -59 1054 -26 
Q 878 6 740 51 
Q 603 97 512 145 
Q 422 194 398 216 
Q 375 238 362 259 
Q 350 281 340 312 
Q 331 344 326 389 
Q 322 434 322 500 
Q 322 613 344 656 
Q 366 700 406 700 
Q 434 700 517 650 
Q 600 600 729 542 
Q 859 484 1032 434 
Q 1206 384 1419 384 
Q 1625 384 1781 437 
Q 1938 491 2044 587 
Q 2150 684 2203 817 
Q 2256 950 2256 1106 
Q 2256 1278 2189 1415 
Q 2122 1553 1992 1653 
Q 1863 1753 1673 1806 
Q 1484 1859 1244 1859 
L 859 1859 
Q 834 1859 811 1870 
Q 788 1881 770 1906 
Q 753 1931 742 1972 
Q 731 2013 731 2078 
Q 731 2138 740 2177 
Q 750 2216 767 2239 
Q 784 2263 806 2273 
Q 828 2284 856 2284 
L 1209 2284 
Q 1416 2284 1580 2337 
Q 1744 2391 1858 2491 
Q 1972 2591 2033 2730 
Q 2094 2869 2094 3041 
Q 2094 3166 2053 3280 
Q 2013 3394 1931 3478 
Q 1850 3563 1723 3611 
Q 1597 3659 1431 3659 
Q 1250 3659 1098 3604 
Q 947 3550 828 3487 
Q 709 3425 631 3370 
Q 553 3316 522 3316 
Q 500 3316 483 3323 
Q 466 3331 455 3354 
Q 444 3378 439 3420 
Q 434 3463 434 3531 
Q 434 3578 437 3614 
Q 441 3650 450 3676 
Q 459 3703 471 3725 
Q 484 3747 514 3776 
Q 544 3806 634 3862 
Q 725 3919 858 3973 
Q 991 4028 1164 4065 
Q 1338 4103 1538 4103 
Q 1819 4103 2031 4031 
Q 2244 3959 2386 3828 
Q 2528 3697 2598 3514 
Q 2669 3331 2669 3109 
Q 2669 2919 2619 2755 
Q 2569 2591 2472 2464 
Q 2375 2338 2234 2248 
Q 2094 2159 1909 2125 
L 1909 2119 
Q 2119 2097 2292 2014 
Q 2466 1931 2591 1806 
Q 2716 1681 2786 1514 
Q 2856 1347 2856 1156 
z
" transform="scale(0.015625)"/>
       </defs>
       <use xlink:href="#Calibri-30"/>
       <use xlink:href="#Calibri-2e" x="50.683594"/>
       <use xlink:href="#Calibri-33" x="75.927734"/>
      </g>
     </g>
    </g>
    <g id="xtick_5">
     <g id="line2d_5">
      <g>
       <use xlink:href="#m2af287eda7" x="171.8784" y="307.584" style="stroke: #000000; stroke-width: 0.8"/>
      </g>
     </g>
     <g id="text_5">
      <!-- 0.4 -->
      <g transform="translate(165.54715 321.385562) scale(0.1 -0.1)">
       <defs>
        <path id="Calibri-34" d="M 3059 1150 
Q 3059 1047 3028 987 
Q 2997 928 2941 928 
L 2484 928 
L 2484 78 
Q 2484 53 2471 36 
Q 2459 19 2428 6 
Q 2397 -6 2347 -12 
Q 2297 -19 2219 -19 
Q 2144 -19 2094 -12 
Q 2044 -6 2014 6 
Q 1984 19 1973 36 
Q 1963 53 1963 78 
L 1963 928 
L 294 928 
Q 256 928 231 937 
Q 206 947 186 972 
Q 166 997 158 1044 
Q 150 1091 150 1166 
Q 150 1225 153 1272 
Q 156 1319 165 1358 
Q 175 1397 190 1433 
Q 206 1469 228 1509 
L 1684 3966 
Q 1700 3991 1729 4009 
Q 1759 4028 1806 4040 
Q 1853 4053 1922 4058 
Q 1991 4063 2084 4063 
Q 2188 4063 2264 4055 
Q 2341 4047 2387 4034 
Q 2434 4022 2459 4001 
Q 2484 3981 2484 3953 
L 2484 1372 
L 2941 1372 
Q 2994 1372 3026 1317 
Q 3059 1263 3059 1150 
z
M 1963 3591 
L 1956 3591 
L 641 1372 
L 1963 1372 
L 1963 3591 
z
" transform="scale(0.015625)"/>
       </defs>
       <use xlink:href="#Calibri-30"/>
       <use xlink:href="#Calibri-2e" x="50.683594"/>
       <use xlink:href="#Calibri-34" x="75.927734"/>
      </g>
     </g>
    </g>
    <g id="xtick_6">
     <g id="line2d_6">
      <g>
       <use xlink:href="#m2af287eda7" x="200.448" y="307.584" style="stroke: #000000; stroke-width: 0.8"/>
      </g>
     </g>
     <g id="text_6">
      <!-- 0.5 -->
      <g transform="translate(194.11675 321.385562) scale(0.1 -0.1)">
       <defs>
        <path id="Calibri-35" d="M 2869 1300 
Q 2869 975 2759 722 
Q 2650 469 2450 295 
Q 2250 122 1973 31 
Q 1697 -59 1359 -59 
Q 1172 -59 1003 -32 
Q 834 -6 703 33 
Q 572 72 487 109 
Q 403 147 379 169 
Q 356 191 347 209 
Q 338 228 330 254 
Q 322 281 319 322 
Q 316 363 316 419 
Q 316 472 320 514 
Q 325 556 337 582 
Q 350 609 367 621 
Q 384 634 406 634 
Q 438 634 503 595 
Q 569 556 680 511 
Q 791 466 955 425 
Q 1119 384 1344 384 
Q 1553 384 1728 434 
Q 1903 484 2029 590 
Q 2156 697 2228 858 
Q 2300 1019 2300 1250 
Q 2300 1444 2239 1592 
Q 2178 1741 2051 1839 
Q 1925 1938 1731 1986 
Q 1538 2034 1269 2034 
Q 1078 2034 940 2015 
Q 803 1997 684 1997 
Q 597 1997 559 2037 
Q 522 2078 522 2194 
L 522 3841 
Q 522 3944 570 3994 
Q 619 4044 709 4044 
L 2500 4044 
Q 2525 4044 2548 4030 
Q 2572 4016 2587 3987 
Q 2603 3959 2611 3915 
Q 2619 3872 2619 3813 
Q 2619 3700 2587 3637 
Q 2556 3575 2500 3575 
L 991 3575 
L 991 2441 
Q 1100 2456 1214 2459 
Q 1328 2463 1478 2463 
Q 1825 2463 2084 2380 
Q 2344 2297 2517 2145 
Q 2691 1994 2780 1778 
Q 2869 1563 2869 1300 
z
" transform="scale(0.015625)"/>
       </defs>
       <use xlink:href="#Calibri-30"/>
       <use xlink:href="#Calibri-2e" x="50.683594"/>
       <use xlink:href="#Calibri-35" x="75.927734"/>
      </g>
     </g>
    </g>
    <g id="xtick_7">
     <g id="line2d_7">
      <g>
       <use xlink:href="#m2af287eda7" x="229.0176" y="307.584" style="stroke: #000000; stroke-width: 0.8"/>
      </g>
     </g>
     <g id="text_7">
      <!-- 0.6 -->
      <g transform="translate(222.68635 321.385562) scale(0.1 -0.1)">
       <defs>
        <path id="Calibri-36" d="M 2991 1309 
Q 2991 1044 2909 795 
Q 2828 547 2659 358 
Q 2491 169 2231 55 
Q 1972 -59 1619 -59 
Q 1366 -59 1172 3 
Q 978 66 834 181 
Q 691 297 595 465 
Q 500 634 442 850 
Q 384 1066 359 1322 
Q 334 1578 334 1872 
Q 334 2131 362 2397 
Q 391 2663 462 2909 
Q 534 3156 657 3373 
Q 781 3591 967 3752 
Q 1153 3913 1412 4006 
Q 1672 4100 2016 4100 
Q 2131 4100 2250 4086 
Q 2369 4072 2469 4048 
Q 2569 4025 2637 3997 
Q 2706 3969 2728 3951 
Q 2750 3934 2761 3914 
Q 2772 3894 2778 3870 
Q 2784 3847 2787 3817 
Q 2791 3788 2791 3744 
Q 2791 3688 2789 3647 
Q 2788 3606 2777 3581 
Q 2766 3556 2748 3543 
Q 2731 3531 2703 3531 
Q 2669 3531 2609 3553 
Q 2550 3575 2465 3601 
Q 2381 3628 2261 3650 
Q 2141 3672 1981 3672 
Q 1691 3672 1481 3553 
Q 1272 3434 1139 3234 
Q 1006 3034 942 2770 
Q 878 2506 869 2219 
Q 950 2266 1051 2312 
Q 1153 2359 1273 2396 
Q 1394 2434 1528 2457 
Q 1663 2481 1816 2481 
Q 2144 2481 2369 2392 
Q 2594 2303 2733 2145 
Q 2872 1988 2931 1773 
Q 2991 1559 2991 1309 
z
M 2447 1259 
Q 2447 1441 2411 1589 
Q 2375 1738 2290 1841 
Q 2206 1944 2065 2000 
Q 1925 2056 1719 2056 
Q 1603 2056 1487 2036 
Q 1372 2016 1264 1980 
Q 1156 1944 1057 1895 
Q 959 1847 878 1791 
Q 878 1388 929 1116 
Q 981 844 1079 680 
Q 1178 516 1325 445 
Q 1472 375 1669 375 
Q 1869 375 2016 450 
Q 2163 525 2259 651 
Q 2356 778 2401 936 
Q 2447 1094 2447 1259 
z
" transform="scale(0.015625)"/>
       </defs>
       <use xlink:href="#Calibri-30"/>
       <use xlink:href="#Calibri-2e" x="50.683594"/>
       <use xlink:href="#Calibri-36" x="75.927734"/>
      </g>
     </g>
    </g>
    <g id="xtick_8">
     <g id="line2d_8">
      <g>
       <use xlink:href="#m2af287eda7" x="257.5872" y="307.584" style="stroke: #000000; stroke-width: 0.8"/>
      </g>
     </g>
     <g id="text_8">
      <!-- 0.7 -->
      <g transform="translate(251.25595 321.385562) scale(0.1 -0.1)">
       <defs>
        <path id="Calibri-37" d="M 2947 3813 
Q 2947 3756 2942 3711 
Q 2938 3666 2930 3623 
Q 2922 3581 2908 3542 
Q 2894 3503 2875 3459 
L 1419 103 
Q 1403 66 1379 42 
Q 1356 19 1320 5 
Q 1284 -9 1228 -14 
Q 1172 -19 1091 -19 
Q 984 -19 925 -9 
Q 866 0 839 20 
Q 813 41 816 70 
Q 819 100 838 141 
L 2369 3572 
L 428 3572 
Q 369 3572 339 3634 
Q 309 3697 309 3809 
Q 309 3869 317 3912 
Q 325 3956 340 3986 
Q 356 4016 378 4030 
Q 400 4044 428 4044 
L 2784 4044 
Q 2828 4044 2861 4034 
Q 2894 4025 2911 3997 
Q 2928 3969 2937 3925 
Q 2947 3881 2947 3813 
z
" transform="scale(0.015625)"/>
       </defs>
       <use xlink:href="#Calibri-30"/>
       <use xlink:href="#Calibri-2e" x="50.683594"/>
       <use xlink:href="#Calibri-37" x="75.927734"/>
      </g>
     </g>
    </g>
    <g id="xtick_9">
     <g id="line2d_9">
      <g>
       <use xlink:href="#m2af287eda7" x="286.1568" y="307.584" style="stroke: #000000; stroke-width: 0.8"/>
      </g>
     </g>
     <g id="text_9">
      <!-- 0.8 -->
      <g transform="translate(279.82555 321.385562) scale(0.1 -0.1)">
       <defs>
        <path id="Calibri-38" d="M 2981 1038 
Q 2981 775 2887 570 
Q 2794 366 2617 225 
Q 2441 84 2181 12 
Q 1922 -59 1588 -59 
Q 1275 -59 1028 6 
Q 781 72 609 200 
Q 438 328 347 515 
Q 256 703 256 944 
Q 256 1134 318 1293 
Q 381 1453 498 1587 
Q 616 1722 787 1839 
Q 959 1956 1175 2063 
Q 988 2159 844 2267 
Q 700 2375 600 2501 
Q 500 2628 448 2772 
Q 397 2916 397 3084 
Q 397 3297 473 3483 
Q 550 3669 704 3806 
Q 859 3944 1098 4023 
Q 1338 4103 1656 4103 
Q 1963 4103 2186 4029 
Q 2409 3956 2554 3829 
Q 2700 3703 2769 3531 
Q 2838 3359 2838 3163 
Q 2838 3003 2786 2856 
Q 2734 2709 2634 2578 
Q 2534 2447 2389 2333 
Q 2244 2219 2056 2119 
Q 2278 2009 2451 1893 
Q 2625 1778 2742 1645 
Q 2859 1513 2920 1364 
Q 2981 1216 2981 1038 
z
M 2306 3113 
Q 2306 3244 2261 3350 
Q 2216 3456 2128 3531 
Q 2041 3606 1911 3645 
Q 1781 3684 1616 3684 
Q 1278 3684 1104 3531 
Q 931 3378 931 3113 
Q 931 2991 973 2886 
Q 1016 2781 1105 2687 
Q 1194 2594 1330 2505 
Q 1466 2416 1653 2319 
Q 1969 2481 2137 2678 
Q 2306 2875 2306 3113 
z
M 2438 981 
Q 2438 1125 2384 1242 
Q 2331 1359 2223 1461 
Q 2116 1563 1955 1658 
Q 1794 1753 1581 1856 
Q 1384 1759 1236 1662 
Q 1088 1566 992 1462 
Q 897 1359 848 1245 
Q 800 1131 800 994 
Q 800 691 1008 525 
Q 1216 359 1628 359 
Q 2028 359 2233 526 
Q 2438 694 2438 981 
z
" transform="scale(0.015625)"/>
       </defs>
       <use xlink:href="#Calibri-30"/>
       <use xlink:href="#Calibri-2e" x="50.683594"/>
       <use xlink:href="#Calibri-38" x="75.927734"/>
      </g>
     </g>
    </g>
    <g id="xtick_10">
     <g id="line2d_10">
      <g>
       <use xlink:href="#m2af287eda7" x="314.7264" y="307.584" style="stroke: #000000; stroke-width: 0.8"/>
      </g>
     </g>
     <g id="text_10">
      <!-- 0.9 -->
      <g transform="translate(308.39515 321.385562) scale(0.1 -0.1)">
       <defs>
        <path id="Calibri-39" d="M 2919 2181 
Q 2919 1919 2887 1650 
Q 2856 1381 2781 1132 
Q 2706 884 2579 667 
Q 2453 450 2261 287 
Q 2069 125 1805 33 
Q 1541 -59 1191 -59 
Q 1056 -59 929 -42 
Q 803 -25 701 0 
Q 600 25 531 53 
Q 463 81 431 109 
Q 400 138 386 186 
Q 372 234 372 316 
Q 372 384 376 425 
Q 381 466 390 487 
Q 400 509 417 517 
Q 434 525 459 525 
Q 494 525 556 501 
Q 619 478 714 450 
Q 809 422 937 398 
Q 1066 375 1225 375 
Q 1528 375 1745 492 
Q 1963 609 2100 806 
Q 2238 1003 2306 1262 
Q 2375 1522 2381 1809 
Q 2216 1713 1984 1638 
Q 1753 1563 1453 1563 
Q 1116 1563 886 1655 
Q 656 1747 517 1906 
Q 378 2066 317 2284 
Q 256 2503 256 2763 
Q 256 3031 334 3273 
Q 413 3516 578 3700 
Q 744 3884 1000 3993 
Q 1256 4103 1613 4103 
Q 1866 4103 2061 4039 
Q 2256 3975 2400 3854 
Q 2544 3734 2644 3564 
Q 2744 3394 2805 3178 
Q 2866 2963 2892 2711 
Q 2919 2459 2919 2181 
z
M 2372 2241 
Q 2372 2641 2319 2914 
Q 2266 3188 2162 3356 
Q 2059 3525 1909 3600 
Q 1759 3675 1563 3675 
Q 1359 3675 1215 3601 
Q 1072 3528 980 3404 
Q 888 3281 844 3125 
Q 800 2969 800 2803 
Q 800 2619 839 2466 
Q 878 2313 965 2206 
Q 1053 2100 1193 2042 
Q 1334 1984 1541 1984 
Q 1775 1984 1994 2054 
Q 2213 2125 2372 2241 
z
" transform="scale(0.015625)"/>
       </defs>
       <use xlink:href="#Calibri-30"/>
       <use xlink:href="#Calibri-2e" x="50.683594"/>
       <use xlink:href="#Calibri-39" x="75.927734"/>
      </g>
     </g>
    </g>
    <g id="xtick_11">
     <g id="line2d_11">
      <g>
       <use xlink:href="#m2af287eda7" x="343.296" y="307.584" style="stroke: #000000; stroke-width: 0.8"/>
      </g>
     </g>
     <g id="text_11">
      <!-- 1.0 -->
      <g transform="translate(336.96475 321.385562) scale(0.1 -0.1)">
       <use xlink:href="#Calibri-31"/>
       <use xlink:href="#Calibri-2e" x="50.683594"/>
       <use xlink:href="#Calibri-30" x="75.927734"/>
      </g>
     </g>
    </g>
    <g id="text_12">
     <!-- $\mathit{p}$ (cm$^2$/cm$^2$) -->
     <g transform="translate(174.148 336.263687) scale(0.1 -0.1)">
      <defs>
       <path id="DejaVuSans-Oblique-70" d="M 3175 2156 
Q 3175 2616 2975 2859 
Q 2775 3103 2400 3103 
Q 2144 3103 1911 2972 
Q 1678 2841 1497 2591 
Q 1319 2344 1212 1994 
Q 1106 1644 1106 1300 
Q 1106 863 1306 627 
Q 1506 391 1875 391 
Q 2147 391 2380 519 
Q 2613 647 2778 891 
Q 2956 1147 3065 1494 
Q 3175 1841 3175 2156 
z
M 1394 2969 
Q 1625 3272 1939 3428 
Q 2253 3584 2638 3584 
Q 3175 3584 3472 3232 
Q 3769 2881 3769 2247 
Q 3769 1728 3584 1258 
Q 3400 788 3053 416 
Q 2822 169 2531 39 
Q 2241 -91 1919 -91 
Q 1547 -91 1294 64 
Q 1041 219 916 525 
L 556 -1331 
L -19 -1331 
L 922 3500 
L 1497 3500 
L 1394 2969 
z
" transform="scale(0.015625)"/>
       <path id="Calibri-20" transform="scale(0.015625)"/>
       <path id="Calibri-28" d="M 1547 4306 
Q 1250 3678 1104 3017 
Q 959 2356 959 1688 
Q 959 1016 1107 356 
Q 1256 -303 1541 -938 
Q 1556 -975 1557 -1001 
Q 1559 -1028 1537 -1045 
Q 1516 -1063 1470 -1070 
Q 1425 -1078 1347 -1078 
Q 1291 -1078 1250 -1075 
Q 1209 -1072 1179 -1062 
Q 1150 -1053 1131 -1040 
Q 1113 -1028 1103 -1013 
Q 934 -694 806 -367 
Q 678 -41 590 296 
Q 503 634 459 979 
Q 416 1325 416 1678 
Q 416 2031 464 2375 
Q 513 2719 602 3058 
Q 691 3397 819 3725 
Q 947 4053 1106 4375 
Q 1109 4388 1123 4397 
Q 1138 4406 1163 4415 
Q 1188 4425 1231 4429 
Q 1275 4434 1344 4434 
Q 1416 4434 1459 4425 
Q 1503 4416 1528 4400 
Q 1553 4384 1556 4359 
Q 1559 4334 1547 4306 
z
" transform="scale(0.015625)"/>
       <path id="Calibri-63" d="M 2500 506 
Q 2500 453 2497 414 
Q 2494 375 2486 348 
Q 2478 322 2467 301 
Q 2456 281 2417 242 
Q 2378 203 2284 145 
Q 2191 88 2073 42 
Q 1956 -3 1818 -31 
Q 1681 -59 1534 -59 
Q 1231 -59 997 41 
Q 763 141 605 333 
Q 447 525 364 804 
Q 281 1084 281 1450 
Q 281 1866 382 2164 
Q 484 2463 661 2653 
Q 838 2844 1077 2936 
Q 1316 3028 1594 3028 
Q 1728 3028 1854 3003 
Q 1981 2978 2087 2937 
Q 2194 2897 2276 2844 
Q 2359 2791 2396 2753 
Q 2434 2716 2448 2694 
Q 2463 2672 2472 2642 
Q 2481 2613 2484 2575 
Q 2488 2538 2488 2481 
Q 2488 2359 2459 2311 
Q 2431 2263 2391 2263 
Q 2344 2263 2283 2314 
Q 2222 2366 2128 2428 
Q 2034 2491 1901 2542 
Q 1769 2594 1588 2594 
Q 1216 2594 1017 2308 
Q 819 2022 819 1478 
Q 819 1206 870 1001 
Q 922 797 1022 659 
Q 1122 522 1267 455 
Q 1413 388 1600 388 
Q 1778 388 1912 444 
Q 2047 500 2145 567 
Q 2244 634 2311 689 
Q 2378 744 2416 744 
Q 2438 744 2453 731 
Q 2469 719 2480 689 
Q 2491 659 2495 614 
Q 2500 569 2500 506 
z
" transform="scale(0.015625)"/>
       <path id="Calibri-6d" d="M 4650 78 
Q 4650 53 4637 36 
Q 4625 19 4597 6 
Q 4569 -6 4519 -12 
Q 4469 -19 4394 -19 
Q 4316 -19 4266 -12 
Q 4216 -6 4186 6 
Q 4156 19 4143 36 
Q 4131 53 4131 78 
L 4131 1788 
Q 4131 1966 4100 2112 
Q 4069 2259 4000 2365 
Q 3931 2472 3825 2528 
Q 3719 2584 3575 2584 
Q 3397 2584 3217 2446 
Q 3038 2309 2822 2044 
L 2822 78 
Q 2822 53 2809 36 
Q 2797 19 2767 6 
Q 2738 -6 2688 -12 
Q 2638 -19 2563 -19 
Q 2491 -19 2439 -12 
Q 2388 -6 2358 6 
Q 2328 19 2317 36 
Q 2306 53 2306 78 
L 2306 1788 
Q 2306 1966 2272 2112 
Q 2238 2259 2169 2365 
Q 2100 2472 1995 2528 
Q 1891 2584 1747 2584 
Q 1569 2584 1387 2446 
Q 1206 2309 994 2044 
L 994 78 
Q 994 53 981 36 
Q 969 19 941 6 
Q 913 -6 863 -12 
Q 813 -19 734 -19 
Q 659 -19 609 -12 
Q 559 -6 529 6 
Q 500 19 489 36 
Q 478 53 478 78 
L 478 2891 
Q 478 2916 487 2933 
Q 497 2950 525 2964 
Q 553 2978 597 2983 
Q 641 2988 713 2988 
Q 781 2988 826 2983 
Q 872 2978 897 2964 
Q 922 2950 933 2933 
Q 944 2916 944 2891 
L 944 2519 
Q 1181 2784 1404 2907 
Q 1628 3031 1856 3031 
Q 2031 3031 2170 2990 
Q 2309 2950 2415 2876 
Q 2522 2803 2597 2701 
Q 2672 2600 2722 2475 
Q 2863 2628 2989 2734 
Q 3116 2841 3233 2906 
Q 3350 2972 3461 3001 
Q 3572 3031 3684 3031 
Q 3956 3031 4140 2936 
Q 4325 2841 4439 2681 
Q 4553 2522 4601 2308 
Q 4650 2094 4650 1856 
L 4650 78 
z
" transform="scale(0.015625)"/>
       <path id="DejaVuSans-32" d="M 1228 531 
L 3431 531 
L 3431 0 
L 469 0 
L 469 531 
Q 828 903 1448 1529 
Q 2069 2156 2228 2338 
Q 2531 2678 2651 2914 
Q 2772 3150 2772 3378 
Q 2772 3750 2511 3984 
Q 2250 4219 1831 4219 
Q 1534 4219 1204 4116 
Q 875 4013 500 3803 
L 500 4441 
Q 881 4594 1212 4672 
Q 1544 4750 1819 4750 
Q 2544 4750 2975 4387 
Q 3406 4025 3406 3419 
Q 3406 3131 3298 2873 
Q 3191 2616 2906 2266 
Q 2828 2175 2409 1742 
Q 1991 1309 1228 531 
z
" transform="scale(0.015625)"/>
       <path id="Calibri-2f" d="M 525 -753 
Q 513 -794 492 -817 
Q 472 -841 440 -853 
Q 409 -866 364 -872 
Q 319 -878 253 -878 
Q 175 -878 123 -867 
Q 72 -856 44 -836 
Q 16 -816 9 -786 
Q 3 -756 22 -716 
L 1913 4469 
Q 1925 4509 1945 4532 
Q 1966 4556 1995 4570 
Q 2025 4584 2072 4589 
Q 2119 4594 2184 4594 
Q 2263 4594 2313 4583 
Q 2363 4572 2391 4553 
Q 2419 4534 2425 4503 
Q 2431 4472 2416 4431 
L 525 -753 
z
" transform="scale(0.015625)"/>
       <path id="Calibri-29" d="M 1522 1678 
Q 1522 1325 1478 979 
Q 1434 634 1346 296 
Q 1259 -41 1132 -367 
Q 1006 -694 838 -1013 
Q 828 -1028 809 -1040 
Q 791 -1053 761 -1062 
Q 731 -1072 690 -1075 
Q 650 -1078 594 -1078 
Q 513 -1078 467 -1070 
Q 422 -1063 401 -1045 
Q 381 -1028 382 -1001 
Q 384 -975 400 -938 
Q 688 -306 834 355 
Q 981 1016 981 1688 
Q 981 2356 834 3017 
Q 688 3678 394 4306 
Q 381 4334 384 4359 
Q 388 4384 413 4400 
Q 438 4416 481 4425 
Q 525 4434 597 4434 
Q 663 4434 706 4429 
Q 750 4425 776 4415 
Q 803 4406 815 4397 
Q 828 4388 834 4375 
Q 1156 3734 1339 3057 
Q 1522 2381 1522 1678 
z
" transform="scale(0.015625)"/>
      </defs>
      <use xlink:href="#DejaVuSans-Oblique-70" transform="translate(0 0.765625)"/>
      <use xlink:href="#Calibri-20" transform="translate(63.476562 0.765625)"/>
      <use xlink:href="#Calibri-28" transform="translate(84.958984 0.765625)"/>
      <use xlink:href="#Calibri-63" transform="translate(115.28125 0.765625)"/>
      <use xlink:href="#Calibri-6d" transform="translate(157.566406 0.765625)"/>
      <use xlink:href="#DejaVuSans-32" transform="translate(238.40625 39.046875) scale(0.7)"/>
      <use xlink:href="#Calibri-2f" transform="translate(285.676758 0.765625)"/>
      <use xlink:href="#Calibri-63" transform="translate(324.299805 0.765625)"/>
      <use xlink:href="#Calibri-6d" transform="translate(366.584961 0.765625)"/>
      <use xlink:href="#DejaVuSans-32" transform="translate(447.424805 39.046875) scale(0.7)"/>
      <use xlink:href="#Calibri-29" transform="translate(494.695312 0.765625)"/>
     </g>
    </g>
   </g>
   <g id="matplotlib.axis_2">
    <g id="ytick_1">
     <g id="line2d_12">
      <defs>
       <path id="m479f6f0edb" d="M 0 0 
L -3.5 0 
" style="stroke: #000000; stroke-width: 0.8"/>
      </defs>
      <g>
       <use xlink:href="#m479f6f0edb" x="57.6" y="275.65056" style="stroke: #000000; stroke-width: 0.8"/>
      </g>
     </g>
     <g id="text_13">
      <!-- 25 -->
      <g transform="translate(40.4625 279.051341) scale(0.1 -0.1)">
       <use xlink:href="#Calibri-32"/>
       <use xlink:href="#Calibri-35" x="50.683594"/>
      </g>
     </g>
    </g>
    <g id="ytick_2">
     <g id="line2d_13">
      <g>
       <use xlink:href="#m479f6f0edb" x="57.6" y="242.38656" style="stroke: #000000; stroke-width: 0.8"/>
      </g>
     </g>
     <g id="text_14">
      <!-- 50 -->
      <g transform="translate(40.4625 245.787341) scale(0.1 -0.1)">
       <use xlink:href="#Calibri-35"/>
       <use xlink:href="#Calibri-30" x="50.683594"/>
      </g>
     </g>
    </g>
    <g id="ytick_3">
     <g id="line2d_14">
      <g>
       <use xlink:href="#m479f6f0edb" x="57.6" y="209.12256" style="stroke: #000000; stroke-width: 0.8"/>
      </g>
     </g>
     <g id="text_15">
      <!-- 75 -->
      <g transform="translate(40.4625 212.523341) scale(0.1 -0.1)">
       <use xlink:href="#Calibri-37"/>
       <use xlink:href="#Calibri-35" x="50.683594"/>
      </g>
     </g>
    </g>
    <g id="ytick_4">
     <g id="line2d_15">
      <g>
       <use xlink:href="#m479f6f0edb" x="57.6" y="175.85856" style="stroke: #000000; stroke-width: 0.8"/>
      </g>
     </g>
     <g id="text_16">
      <!-- 100 -->
      <g transform="translate(35.39375 179.259341) scale(0.1 -0.1)">
       <use xlink:href="#Calibri-31"/>
       <use xlink:href="#Calibri-30" x="50.683594"/>
       <use xlink:href="#Calibri-30" x="101.367188"/>
      </g>
     </g>
    </g>
    <g id="ytick_5">
     <g id="line2d_16">
      <g>
       <use xlink:href="#m479f6f0edb" x="57.6" y="142.59456" style="stroke: #000000; stroke-width: 0.8"/>
      </g>
     </g>
     <g id="text_17">
      <!-- 125 -->
      <g transform="translate(35.39375 145.995341) scale(0.1 -0.1)">
       <use xlink:href="#Calibri-31"/>
       <use xlink:href="#Calibri-32" x="50.683594"/>
       <use xlink:href="#Calibri-35" x="101.367188"/>
      </g>
     </g>
    </g>
    <g id="ytick_6">
     <g id="line2d_17">
      <g>
       <use xlink:href="#m479f6f0edb" x="57.6" y="109.33056" style="stroke: #000000; stroke-width: 0.8"/>
      </g>
     </g>
     <g id="text_18">
      <!-- 150 -->
      <g transform="translate(35.39375 112.731341) scale(0.1 -0.1)">
       <use xlink:href="#Calibri-31"/>
       <use xlink:href="#Calibri-35" x="50.683594"/>
       <use xlink:href="#Calibri-30" x="101.367188"/>
      </g>
     </g>
    </g>
    <g id="ytick_7">
     <g id="line2d_18">
      <g>
       <use xlink:href="#m479f6f0edb" x="57.6" y="76.06656" style="stroke: #000000; stroke-width: 0.8"/>
      </g>
     </g>
     <g id="text_19">
      <!-- 175 -->
      <g transform="translate(35.39375 79.467341) scale(0.1 -0.1)">
       <use xlink:href="#Calibri-31"/>
       <use xlink:href="#Calibri-37" x="50.683594"/>
       <use xlink:href="#Calibri-35" x="101.367188"/>
      </g>
     </g>
    </g>
    <g id="ytick_8">
     <g id="line2d_19">
      <g>
       <use xlink:href="#m479f6f0edb" x="57.6" y="42.80256" style="stroke: #000000; stroke-width: 0.8"/>
      </g>
     </g>
     <g id="text_20">
      <!-- 200 -->
      <g transform="translate(35.39375 46.203341) scale(0.1 -0.1)">
       <use xlink:href="#Calibri-32"/>
       <use xlink:href="#Calibri-30" x="50.683594"/>
       <use xlink:href="#Calibri-30" x="101.367188"/>
      </g>
     </g>
    </g>
    <g id="text_21">
     <!-- $\mathit{Z}$$_{a}$ (nm) -->
     <g transform="translate(29.59375 191.028) rotate(-90) scale(0.1 -0.1)">
      <defs>
       <path id="DejaVuSans-Oblique-5a" d="M 838 4666 
L 4500 4666 
L 4409 4184 
L 794 531 
L 3769 531 
L 3669 0 
L -141 0 
L -50 481 
L 3566 4134 
L 738 4134 
L 838 4666 
z
" transform="scale(0.015625)"/>
       <path id="DejaVuSans-Oblique-61" d="M 3438 1997 
L 3047 0 
L 2472 0 
L 2578 531 
Q 2325 219 2001 64 
Q 1678 -91 1281 -91 
Q 834 -91 548 182 
Q 263 456 263 884 
Q 263 1497 752 1853 
Q 1241 2209 2100 2209 
L 2900 2209 
L 2931 2363 
Q 2938 2388 2941 2417 
Q 2944 2447 2944 2509 
Q 2944 2788 2717 2942 
Q 2491 3097 2081 3097 
Q 1800 3097 1504 3025 
Q 1209 2953 897 2809 
L 997 3341 
Q 1322 3463 1633 3523 
Q 1944 3584 2234 3584 
Q 2853 3584 3176 3315 
Q 3500 3047 3500 2534 
Q 3500 2431 3484 2292 
Q 3469 2153 3438 1997 
z
M 2816 1759 
L 2241 1759 
Q 1534 1759 1195 1570 
Q 856 1381 856 984 
Q 856 709 1029 553 
Q 1203 397 1509 397 
Q 1978 397 2328 733 
Q 2678 1069 2791 1631 
L 2816 1759 
z
" transform="scale(0.015625)"/>
       <path id="Calibri-6e" d="M 2900 78 
Q 2900 53 2887 36 
Q 2875 19 2847 6 
Q 2819 -6 2769 -12 
Q 2719 -19 2644 -19 
Q 2566 -19 2516 -12 
Q 2466 -6 2437 6 
Q 2409 19 2396 36 
Q 2384 53 2384 78 
L 2384 1725 
Q 2384 1966 2346 2112 
Q 2309 2259 2237 2365 
Q 2166 2472 2052 2528 
Q 1938 2584 1788 2584 
Q 1594 2584 1400 2446 
Q 1206 2309 994 2044 
L 994 78 
Q 994 53 981 36 
Q 969 19 941 6 
Q 913 -6 863 -12 
Q 813 -19 734 -19 
Q 659 -19 609 -12 
Q 559 -6 529 6 
Q 500 19 489 36 
Q 478 53 478 78 
L 478 2891 
Q 478 2916 487 2933 
Q 497 2950 525 2964 
Q 553 2978 597 2983 
Q 641 2988 713 2988 
Q 781 2988 826 2983 
Q 872 2978 897 2964 
Q 922 2950 933 2933 
Q 944 2916 944 2891 
L 944 2519 
Q 1181 2784 1417 2907 
Q 1653 3031 1894 3031 
Q 2175 3031 2367 2936 
Q 2559 2841 2678 2681 
Q 2797 2522 2848 2308 
Q 2900 2094 2900 1794 
L 2900 78 
z
" transform="scale(0.015625)"/>
      </defs>
      <use xlink:href="#DejaVuSans-Oblique-5a" transform="translate(0 0.09375)"/>
      <use xlink:href="#DejaVuSans-Oblique-61" transform="translate(69.462891 -16.3125) scale(0.7)"/>
      <use xlink:href="#Calibri-20" transform="translate(115.092773 0.09375)"/>
      <use xlink:href="#Calibri-28" transform="translate(136.575195 0.09375)"/>
      <use xlink:href="#Calibri-6e" transform="translate(166.897461 0.09375)"/>
      <use xlink:href="#Calibri-6d" transform="translate(219.436523 0.09375)"/>
      <use xlink:href="#Calibri-29" transform="translate(299.319336 0.09375)"/>
     </g>
    </g>
   </g>
   <g id="patch_3">
    <path d="M 57.6 307.584 
L 57.6 41.472 
" style="fill: none; stroke: #000000; stroke-width: 0.8; stroke-linejoin: miter; stroke-linecap: square"/>
   </g>
   <g id="patch_4">
    <path d="M 343.296 307.584 
L 343.296 41.472 
" style="fill: none; stroke: #000000; stroke-width: 0.8; stroke-linejoin: miter; stroke-linecap: square"/>
   </g>
   <g id="patch_5">
    <path d="M 57.6 307.584 
L 343.296 307.584 
" style="fill: none; stroke: #000000; stroke-width: 0.8; stroke-linejoin: miter; stroke-linecap: square"/>
   </g>
   <g id="patch_6">
    <path d="M 57.6 41.472 
L 343.296 41.472 
" style="fill: none; stroke: #000000; stroke-width: 0.8; stroke-linejoin: miter; stroke-linecap: square"/>
   </g>
   <g id="text_22">
    <!-- $n_e$ = 1.47 -->
    <g transform="translate(181.348 35.472) scale(0.1 -0.1)">
     <defs>
      <path id="DejaVuSans-Oblique-6e" d="M 3566 2113 
L 3156 0 
L 2578 0 
L 2988 2091 
Q 3016 2238 3031 2350 
Q 3047 2463 3047 2528 
Q 3047 2791 2881 2937 
Q 2716 3084 2419 3084 
Q 1956 3084 1622 2776 
Q 1288 2469 1184 1941 
L 800 0 
L 225 0 
L 903 3500 
L 1478 3500 
L 1363 2950 
Q 1603 3253 1940 3418 
Q 2278 3584 2650 3584 
Q 3113 3584 3367 3334 
Q 3622 3084 3622 2631 
Q 3622 2519 3608 2391 
Q 3594 2263 3566 2113 
z
" transform="scale(0.015625)"/>
      <path id="DejaVuSans-Oblique-65" d="M 3078 2063 
Q 3088 2113 3092 2166 
Q 3097 2219 3097 2272 
Q 3097 2653 2873 2875 
Q 2650 3097 2266 3097 
Q 1838 3097 1509 2826 
Q 1181 2556 1013 2059 
L 3078 2063 
z
M 3578 1613 
L 903 1613 
Q 884 1494 878 1425 
Q 872 1356 872 1306 
Q 872 872 1139 634 
Q 1406 397 1894 397 
Q 2269 397 2603 481 
Q 2938 566 3225 728 
L 3116 159 
Q 2806 34 2476 -28 
Q 2147 -91 1806 -91 
Q 1078 -91 686 257 
Q 294 606 294 1247 
Q 294 1794 489 2264 
Q 684 2734 1063 3103 
Q 1306 3334 1642 3459 
Q 1978 3584 2356 3584 
Q 2950 3584 3301 3228 
Q 3653 2872 3653 2272 
Q 3653 2128 3634 1964 
Q 3616 1800 3578 1613 
z
" transform="scale(0.015625)"/>
      <path id="Calibri-3d" d="M 2891 2409 
Q 2891 2284 2855 2236 
Q 2819 2188 2772 2188 
L 409 2188 
Q 363 2188 328 2236 
Q 294 2284 294 2409 
Q 294 2522 325 2575 
Q 356 2628 409 2628 
L 2772 2628 
Q 2828 2628 2859 2575 
Q 2891 2522 2891 2409 
z
M 2891 1194 
Q 2891 1069 2855 1022 
Q 2819 975 2772 975 
L 409 975 
Q 363 975 328 1022 
Q 294 1069 294 1194 
Q 294 1309 325 1362 
Q 356 1416 409 1416 
L 2772 1416 
Q 2828 1416 2859 1362 
Q 2891 1309 2891 1194 
z
" transform="scale(0.015625)"/>
     </defs>
     <use xlink:href="#DejaVuSans-Oblique-6e" transform="translate(0 0.375)"/>
     <use xlink:href="#DejaVuSans-Oblique-65" transform="translate(63.378906 -16.03125) scale(0.7)"/>
     <use xlink:href="#Calibri-20" transform="translate(109.179688 0.375)"/>
     <use xlink:href="#Calibri-3d" transform="translate(131.787109 0.375)"/>
     <use xlink:href="#Calibri-20" transform="translate(181.591797 0.375)"/>
     <use xlink:href="#Calibri-31" transform="translate(204.199219 0.375)"/>
     <use xlink:href="#Calibri-2e" transform="translate(254.882812 0.375)"/>
     <use xlink:href="#Calibri-34" transform="translate(280.126953 0.375)"/>
     <use xlink:href="#Calibri-37" transform="translate(330.810547 0.375)"/>
    </g>
   </g>
  </g>
  <g id="axes_2">
   <g id="patch_7">
    <path d="M 361.152 307.584 
L 374.4576 307.584 
L 374.4576 41.472 
L 361.152 41.472 
z
" style="fill: #ffffff"/>
   </g>
   <g id="QuadMesh_1">
    <path d="M 361.152 307.584 
L 374.4576 307.584 
L 374.4576 280.9728 
L 361.152 280.9728 
L 361.152 307.584 
" clip-path="url(#p8319f28905)" style="fill: #0000b6"/>
    <path d="M 361.152 280.9728 
L 374.4576 280.9728 
L 374.4576 254.3616 
L 361.152 254.3616 
L 361.152 280.9728 
" clip-path="url(#p8319f28905)" style="fill: #0018ff"/>
    <path d="M 361.152 254.3616 
L 374.4576 254.3616 
L 374.4576 227.7504 
L 361.152 227.7504 
L 361.152 254.3616 
" clip-path="url(#p8319f28905)" style="fill: #0080ff"/>
    <path d="M 361.152 227.7504 
L 374.4576 227.7504 
L 374.4576 201.1392 
L 361.152 201.1392 
L 361.152 227.7504 
" clip-path="url(#p8319f28905)" style="fill: #00e4f8"/>
    <path d="M 361.152 201.1392 
L 374.4576 201.1392 
L 374.4576 174.528 
L 361.152 174.528 
L 361.152 201.1392 
" clip-path="url(#p8319f28905)" style="fill: #53ffa4"/>
    <path d="M 361.152 174.528 
L 374.4576 174.528 
L 374.4576 147.9168 
L 361.152 147.9168 
L 361.152 174.528 
" clip-path="url(#p8319f28905)" style="fill: #a4ff53"/>
    <path d="M 361.152 147.9168 
L 374.4576 147.9168 
L 374.4576 121.3056 
L 361.152 121.3056 
L 361.152 147.9168 
" clip-path="url(#p8319f28905)" style="fill: #f8f500"/>
    <path d="M 361.152 121.3056 
L 374.4576 121.3056 
L 374.4576 94.6944 
L 361.152 94.6944 
L 361.152 121.3056 
" clip-path="url(#p8319f28905)" style="fill: #ff9400"/>
    <path d="M 361.152 94.6944 
L 374.4576 94.6944 
L 374.4576 68.0832 
L 361.152 68.0832 
L 361.152 94.6944 
" clip-path="url(#p8319f28905)" style="fill: #ff3800"/>
    <path d="M 361.152 68.0832 
L 374.4576 68.0832 
L 374.4576 41.472 
L 361.152 41.472 
L 361.152 68.0832 
" clip-path="url(#p8319f28905)" style="fill: #b60000"/>
   </g>
   <g id="matplotlib.axis_3"/>
   <g id="matplotlib.axis_4">
    <g id="ytick_9">
     <g id="line2d_20">
      <defs>
       <path id="m8e4ea8a689" d="M 0 0 
L 3.5 0 
" style="stroke: #000000; stroke-width: 0.8"/>
      </defs>
      <g>
       <use xlink:href="#m8e4ea8a689" x="374.4576" y="307.584" style="stroke: #000000; stroke-width: 0.8"/>
      </g>
     </g>
     <g id="text_23">
      <!-- 0 -->
      <g transform="translate(381.4576 310.984781) scale(0.1 -0.1)">
       <use xlink:href="#Calibri-30"/>
      </g>
     </g>
    </g>
    <g id="ytick_10">
     <g id="line2d_21">
      <g>
       <use xlink:href="#m8e4ea8a689" x="374.4576" y="280.9728" style="stroke: #000000; stroke-width: 0.8"/>
      </g>
     </g>
     <g id="text_24">
      <!-- 0.1 -->
      <g transform="translate(381.4576 284.373581) scale(0.1 -0.1)">
       <use xlink:href="#Calibri-30"/>
       <use xlink:href="#Calibri-2e" x="50.683594"/>
       <use xlink:href="#Calibri-31" x="75.927734"/>
      </g>
     </g>
    </g>
    <g id="ytick_11">
     <g id="line2d_22">
      <g>
       <use xlink:href="#m8e4ea8a689" x="374.4576" y="254.3616" style="stroke: #000000; stroke-width: 0.8"/>
      </g>
     </g>
     <g id="text_25">
      <!-- 0.2 -->
      <g transform="translate(381.4576 257.762381) scale(0.1 -0.1)">
       <use xlink:href="#Calibri-30"/>
       <use xlink:href="#Calibri-2e" x="50.683594"/>
       <use xlink:href="#Calibri-32" x="75.927734"/>
      </g>
     </g>
    </g>
    <g id="ytick_12">
     <g id="line2d_23">
      <g>
       <use xlink:href="#m8e4ea8a689" x="374.4576" y="227.7504" style="stroke: #000000; stroke-width: 0.8"/>
      </g>
     </g>
     <g id="text_26">
      <!-- 0.3 -->
      <g transform="translate(381.4576 231.151181) scale(0.1 -0.1)">
       <use xlink:href="#Calibri-30"/>
       <use xlink:href="#Calibri-2e" x="50.683594"/>
       <use xlink:href="#Calibri-33" x="75.927734"/>
      </g>
     </g>
    </g>
    <g id="ytick_13">
     <g id="line2d_24">
      <g>
       <use xlink:href="#m8e4ea8a689" x="374.4576" y="201.1392" style="stroke: #000000; stroke-width: 0.8"/>
      </g>
     </g>
     <g id="text_27">
      <!-- 0.4 -->
      <g transform="translate(381.4576 204.539981) scale(0.1 -0.1)">
       <use xlink:href="#Calibri-30"/>
       <use xlink:href="#Calibri-2e" x="50.683594"/>
       <use xlink:href="#Calibri-34" x="75.927734"/>
      </g>
     </g>
    </g>
    <g id="ytick_14">
     <g id="line2d_25">
      <g>
       <use xlink:href="#m8e4ea8a689" x="374.4576" y="174.528" style="stroke: #000000; stroke-width: 0.8"/>
      </g>
     </g>
     <g id="text_28">
      <!-- 0.5 -->
      <g transform="translate(381.4576 177.928781) scale(0.1 -0.1)">
       <use xlink:href="#Calibri-30"/>
       <use xlink:href="#Calibri-2e" x="50.683594"/>
       <use xlink:href="#Calibri-35" x="75.927734"/>
      </g>
     </g>
    </g>
    <g id="ytick_15">
     <g id="line2d_26">
      <g>
       <use xlink:href="#m8e4ea8a689" x="374.4576" y="147.9168" style="stroke: #000000; stroke-width: 0.8"/>
      </g>
     </g>
     <g id="text_29">
      <!-- 0.6 -->
      <g transform="translate(381.4576 151.317581) scale(0.1 -0.1)">
       <use xlink:href="#Calibri-30"/>
       <use xlink:href="#Calibri-2e" x="50.683594"/>
       <use xlink:href="#Calibri-36" x="75.927734"/>
      </g>
     </g>
    </g>
    <g id="ytick_16">
     <g id="line2d_27">
      <g>
       <use xlink:href="#m8e4ea8a689" x="374.4576" y="121.3056" style="stroke: #000000; stroke-width: 0.8"/>
      </g>
     </g>
     <g id="text_30">
      <!-- 0.7 -->
      <g transform="translate(381.4576 124.706381) scale(0.1 -0.1)">
       <use xlink:href="#Calibri-30"/>
       <use xlink:href="#Calibri-2e" x="50.683594"/>
       <use xlink:href="#Calibri-37" x="75.927734"/>
      </g>
     </g>
    </g>
    <g id="ytick_17">
     <g id="line2d_28">
      <g>
       <use xlink:href="#m8e4ea8a689" x="374.4576" y="94.6944" style="stroke: #000000; stroke-width: 0.8"/>
      </g>
     </g>
     <g id="text_31">
      <!-- 0.8 -->
      <g transform="translate(381.4576 98.095181) scale(0.1 -0.1)">
       <use xlink:href="#Calibri-30"/>
       <use xlink:href="#Calibri-2e" x="50.683594"/>
       <use xlink:href="#Calibri-38" x="75.927734"/>
      </g>
     </g>
    </g>
    <g id="ytick_18">
     <g id="line2d_29">
      <g>
       <use xlink:href="#m8e4ea8a689" x="374.4576" y="68.0832" style="stroke: #000000; stroke-width: 0.8"/>
      </g>
     </g>
     <g id="text_32">
      <!-- 0.9 -->
      <g transform="translate(381.4576 71.483981) scale(0.1 -0.1)">
       <use xlink:href="#Calibri-30"/>
       <use xlink:href="#Calibri-2e" x="50.683594"/>
       <use xlink:href="#Calibri-39" x="75.927734"/>
      </g>
     </g>
    </g>
    <g id="ytick_19">
     <g id="line2d_30">
      <g>
       <use xlink:href="#m8e4ea8a689" x="374.4576" y="41.472" style="stroke: #000000; stroke-width: 0.8"/>
      </g>
     </g>
     <g id="text_33">
      <!-- 1.0 -->
      <g transform="translate(381.4576 44.872781) scale(0.1 -0.1)">
       <use xlink:href="#Calibri-31"/>
       <use xlink:href="#Calibri-2e" x="50.683594"/>
       <use xlink:href="#Calibri-30" x="75.927734"/>
      </g>
     </g>
    </g>
   </g>
   <g id="LineCollection_1"/>
   <g id="patch_8">
    <path d="M 361.152 307.584 
L 367.8048 307.584 
L 374.4576 307.584 
L 374.4576 41.472 
L 367.8048 41.472 
L 361.152 41.472 
L 361.152 307.584 
z
" style="fill: none; stroke: #000000; stroke-width: 0.8; stroke-linejoin: miter; stroke-linecap: square"/>
   </g>
   <g id="text_34">
    <!-- $\mathit{E}_{\mathrm{dis}}$/$\mathit{E}_{\mathrm{i}}$ -->
    <g transform="translate(353.2548 35.472) scale(0.1 -0.1)">
     <defs>
      <path id="DejaVuSans-Oblique-45" d="M 1081 4666 
L 4031 4666 
L 3928 4134 
L 1606 4134 
L 1338 2753 
L 3566 2753 
L 3463 2222 
L 1234 2222 
L 909 531 
L 3284 531 
L 3181 0 
L 172 0 
L 1081 4666 
z
" transform="scale(0.015625)"/>
      <path id="DejaVuSans-64" d="M 2906 2969 
L 2906 4863 
L 3481 4863 
L 3481 0 
L 2906 0 
L 2906 525 
Q 2725 213 2448 61 
Q 2172 -91 1784 -91 
Q 1150 -91 751 415 
Q 353 922 353 1747 
Q 353 2572 751 3078 
Q 1150 3584 1784 3584 
Q 2172 3584 2448 3432 
Q 2725 3281 2906 2969 
z
M 947 1747 
Q 947 1113 1208 752 
Q 1469 391 1925 391 
Q 2381 391 2643 752 
Q 2906 1113 2906 1747 
Q 2906 2381 2643 2742 
Q 2381 3103 1925 3103 
Q 1469 3103 1208 2742 
Q 947 2381 947 1747 
z
" transform="scale(0.015625)"/>
      <path id="DejaVuSans-69" d="M 603 3500 
L 1178 3500 
L 1178 0 
L 603 0 
L 603 3500 
z
M 603 4863 
L 1178 4863 
L 1178 4134 
L 603 4134 
L 603 4863 
z
" transform="scale(0.015625)"/>
      <path id="DejaVuSans-73" d="M 2834 3397 
L 2834 2853 
Q 2591 2978 2328 3040 
Q 2066 3103 1784 3103 
Q 1356 3103 1142 2972 
Q 928 2841 928 2578 
Q 928 2378 1081 2264 
Q 1234 2150 1697 2047 
L 1894 2003 
Q 2506 1872 2764 1633 
Q 3022 1394 3022 966 
Q 3022 478 2636 193 
Q 2250 -91 1575 -91 
Q 1294 -91 989 -36 
Q 684 19 347 128 
L 347 722 
Q 666 556 975 473 
Q 1284 391 1588 391 
Q 1994 391 2212 530 
Q 2431 669 2431 922 
Q 2431 1156 2273 1281 
Q 2116 1406 1581 1522 
L 1381 1569 
Q 847 1681 609 1914 
Q 372 2147 372 2553 
Q 372 3047 722 3315 
Q 1072 3584 1716 3584 
Q 2034 3584 2315 3537 
Q 2597 3491 2834 3397 
z
" transform="scale(0.015625)"/>
     </defs>
     <use xlink:href="#DejaVuSans-Oblique-45" transform="translate(0 0.09375)"/>
     <use xlink:href="#DejaVuSans-64" transform="translate(63.183594 -16.3125) scale(0.7)"/>
     <use xlink:href="#DejaVuSans-69" transform="translate(107.617188 -16.3125) scale(0.7)"/>
     <use xlink:href="#DejaVuSans-73" transform="translate(127.06543 -16.3125) scale(0.7)"/>
     <use xlink:href="#Calibri-2f" transform="translate(166.269531 0.09375)"/>
     <use xlink:href="#DejaVuSans-Oblique-45" transform="translate(204.892578 0.09375)"/>
     <use xlink:href="#DejaVuSans-69" transform="translate(268.076172 -16.3125) scale(0.7)"/>
    </g>
   </g>
  </g>
 </g>
 <defs>
  <clipPath id="p8c97a5708b">
   <rect x="57.6" y="41.472" width="285.696" height="266.112"/>
  </clipPath>
  <clipPath id="p8319f28905">
   <rect x="361.152" y="41.472" width="13.3056" height="266.112"/>
  </clipPath>
 </defs>
</svg>
