<?xml version="1.0" encoding="utf-8" standalone="no"?>
<!DOCTYPE svg PUBLIC "-//W3C//DTD SVG 1.1//EN"
  "http://www.w3.org/Graphics/SVG/1.1/DTD/svg11.dtd">
<svg xmlns:xlink="http://www.w3.org/1999/xlink" width="460.8pt" height="345.6pt" viewBox="0 0 460.8 345.6" xmlns="http://www.w3.org/2000/svg" version="1.1">
 <metadata>
  <rdf:RDF xmlns:dc="http://purl.org/dc/elements/1.1/" xmlns:cc="http://creativecommons.org/ns#" xmlns:rdf="http://www.w3.org/1999/02/22-rdf-syntax-ns#">
   <cc:Work>
    <dc:type rdf:resource="http://purl.org/dc/dcmitype/StillImage"/>
    <dc:date>2024-01-22T08:28:38.424312</dc:date>
    <dc:format>image/svg+xml</dc:format>
    <dc:creator>
     <cc:Agent>
      <dc:title>Matplotlib v3.7.1, https://matplotlib.org/</dc:title>
     </cc:Agent>
    </dc:creator>
   </cc:Work>
  </rdf:RDF>
 </metadata>
 <defs>
  <style type="text/css">*{stroke-linejoin: round; stroke-linecap: butt}</style>
 </defs>
 <g id="figure_1">
  <g id="patch_1">
   <path d="M 0 345.6 
L 460.8 345.6 
L 460.8 0 
L 0 0 
z
" style="fill: #ffffff"/>
  </g>
  <g id="axes_1">
   <g id="patch_2">
    <path d="M 57.6 307.584 
L 343.296 307.584 
L 343.296 41.472 
L 57.6 41.472 
z
" style="fill: #ffffff"/>
   </g>
   <g id="PathCollection_1">
    <path clip-path="url(#p2421662f7a)" style="fill: #0000b6"/>
   </g>
   <g id="PathCollection_2">
    <path d="M 57.62857 95.653562 
L 57.971983 96.21086 
L 59.085951 98.0208 
L 59.124041 98.082453 
L 59.346359 98.444489 
L 60.300883 99.9978 
L 60.530348 100.37292 
L 60.660455 100.58595 
L 61.126776 101.3472 
L 61.376867 101.754142 
L 61.509567 101.971268 
L 61.723149 102.32148 
L 62.611828 103.773899 
L 63.15895 104.6736 
L 63.589571 105.37903 
L 63.978805 106.019606 
L 64.350722 106.630538 
L 64.589811 107.02572 
L 65.10102 107.867878 
L 65.181253 108 
L 65.204656 108.038408 
L 65.771538 108.97428 
L 66.086878 109.493153 
L 66.576964 110.304578 
L 66.872158 110.792419 
L 67.193766 111.3264 
L 67.820052 112.362279 
L 68.610876 113.67852 
L 68.8794 114.123944 
L 69.196252 114.6528 
L 69.688091 115.470745 
L 69.781566 115.62708 
L 70.14864 116.237982 
L 71.189967 117.9792 
L 71.276189 118.122822 
L 71.842966 119.072903 
L 72.461551 120.109188 
L 72.593519 120.33132 
L 72.757291 120.605644 
L 73.172788 121.3056 
L 73.598788 122.020524 
L 73.752333 122.27988 
L 74.720409 123.909381 
L 75.146959 124.632 
L 75.727295 125.611347 
L 76.275216 126.540442 
L 76.437109 126.81447 
L 76.536688 126.98412 
L 76.738758 127.327162 
L 76.976183 127.730585 
L 77.110682 127.9584 
L 77.184614 128.083133 
L 77.224341 128.150542 
L 77.68393 128.93268 
L 78.151247 129.725154 
L 78.910504 131.021101 
L 78.986124 131.149947 
L 79.064886 131.2848 
L 79.861728 132.64382 
L 80.440207 133.63692 
L 80.828036 134.300326 
L 80.891754 134.409665 
L 81.008513 134.6112 
L 81.22031 134.975225 
L 81.576509 135.58548 
L 82.238559 136.722249 
L 82.942905 137.9376 
L 83.27232 138.503792 
L 84.304507 140.28972 
L 84.409308 140.470386 
L 84.866375 141.264 
L 85.399701 142.18785 
L 85.428908 142.23828 
L 85.483684 142.333078 
L 85.785758 142.858468 
L 86.669067 144.393989 
L 86.781292 144.5904 
L 87.774344 146.32156 
L 88.128769 146.94252 
L 88.221636 147.104468 
L 88.684704 147.9168 
L 89.00603 148.477889 
L 89.240891 148.89108 
L 90.052431 150.313403 
L 90.579335 151.2432 
L 91.007457 151.995699 
L 91.436983 152.754498 
L 91.73827 153.285863 
L 91.912526 153.59532 
L 92.242978 154.179891 
L 92.381285 154.424862 
L 92.463277 154.5696 
L 92.509553 154.650902 
L 92.534764 154.695457 
L 93.012967 155.54388 
L 93.421026 156.265055 
L 94.12637 157.520282 
L 94.233 157.709729 
L 94.337306 157.896 
L 95.099971 159.252568 
L 95.655774 160.24812 
L 96.040238 160.934058 
L 96.200555 161.2224 
L 96.383035 161.549633 
L 96.690092 162.098382 
L 96.74502 162.19668 
L 96.774625 162.24945 
L 96.826465 162.342506 
L 97.451249 163.462204 
L 98.054424 164.5488 
L 98.446526 165.25234 
L 99.358844 166.90092 
L 99.52183 167.194256 
L 99.897053 167.8752 
L 100.309773 168.620226 
L 100.436 168.84948 
L 100.661447 169.257113 
L 101.731245 171.2016 
L 101.777697 171.285694 
L 102.245245 172.138206 
L 102.926594 173.380061 
L 103.33993 174.134967 
L 103.33993 171.2016 
L 103.33993 167.8752 
L 103.33993 164.5488 
L 103.33993 161.2224 
L 103.33993 157.896 
L 103.33993 154.5696 
L 103.33993 151.2432 
L 103.33993 147.9168 
L 103.33993 144.5904 
L 103.33993 141.264 
L 103.33993 137.9376 
L 103.33993 134.6112 
L 103.33993 131.2848 
L 103.33993 127.9584 
L 103.33993 124.632 
L 103.33993 121.3056 
L 103.33993 117.9792 
L 103.33993 114.6528 
L 103.33993 111.3264 
L 103.33993 108 
L 103.33993 104.6736 
L 103.33993 101.3472 
L 103.33993 98.0208 
L 103.33993 94.6944 
L 103.33993 91.368 
L 103.33993 88.0416 
L 103.33993 84.7152 
L 103.33993 81.3888 
L 103.33993 78.0624 
L 103.33993 74.736 
L 103.33993 71.4096 
L 103.33993 68.0832 
L 103.33993 64.7568 
L 103.33993 61.4304 
L 103.33993 58.104 
L 103.33993 54.7776 
L 103.33993 51.4512 
L 103.33993 48.1248 
L 103.33993 44.7984 
L 103.33993 41.472 
L 101.816218 41.472 
L 100.292506 41.472 
L 98.768794 41.472 
L 97.245082 41.472 
L 95.72137 41.472 
L 94.197658 41.472 
L 92.673946 41.472 
L 91.150234 41.472 
L 89.626522 41.472 
L 88.10281 41.472 
L 86.579098 41.472 
L 85.055386 41.472 
L 83.531674 41.472 
L 82.007962 41.472 
L 80.48425 41.472 
L 78.960538 41.472 
L 77.436826 41.472 
L 75.913114 41.472 
L 74.389402 41.472 
L 72.86569 41.472 
L 71.341978 41.472 
L 69.818266 41.472 
L 68.294554 41.472 
L 66.770842 41.472 
L 65.24713 41.472 
L 63.723418 41.472 
L 62.199706 41.472 
L 60.675994 41.472 
L 59.152282 41.472 
L 57.62857 41.472 
L 57.62857 44.7984 
L 57.62857 48.1248 
L 57.62857 51.4512 
L 57.62857 54.7776 
L 57.62857 58.104 
L 57.62857 61.4304 
L 57.62857 64.7568 
L 57.62857 68.0832 
L 57.62857 71.4096 
L 57.62857 74.736 
L 57.62857 78.0624 
L 57.62857 81.3888 
L 57.62857 84.7152 
L 57.62857 88.0416 
L 57.62857 91.368 
L 57.62857 94.6944 
" clip-path="url(#p2421662f7a)" style="fill: #0018ff"/>
   </g>
   <g id="PathCollection_3">
    <path d="M 103.33993 174.134967 
L 102.926594 173.380061 
L 102.245245 172.138206 
L 101.777697 171.285694 
L 101.731245 171.2016 
L 100.661447 169.257113 
L 100.436 168.84948 
L 100.309773 168.620226 
L 99.897053 167.8752 
L 99.52183 167.194256 
L 99.358844 166.90092 
L 98.446526 165.25234 
L 98.054424 164.5488 
L 97.451249 163.462204 
L 96.826465 162.342506 
L 96.774625 162.24945 
L 96.74502 162.19668 
L 96.690092 162.098382 
L 96.383035 161.549633 
L 96.200555 161.2224 
L 96.040238 160.934058 
L 95.655774 160.24812 
L 95.099971 159.252568 
L 94.337306 157.896 
L 94.233 157.709729 
L 94.12637 157.520282 
L 93.421026 156.265055 
L 93.012967 155.54388 
L 92.534764 154.695457 
L 92.509553 154.650902 
L 92.463277 154.5696 
L 92.381285 154.424862 
L 92.242978 154.179891 
L 91.912526 153.59532 
L 91.73827 153.285863 
L 91.436983 152.754498 
L 91.007457 151.995699 
L 90.579335 151.2432 
L 90.052431 150.313403 
L 89.240891 148.89108 
L 89.00603 148.477889 
L 88.684704 147.9168 
L 88.221636 147.104468 
L 88.128769 146.94252 
L 87.774344 146.32156 
L 86.781292 144.5904 
L 86.669067 144.393989 
L 85.785758 142.858468 
L 85.483684 142.333078 
L 85.428908 142.23828 
L 85.399701 142.18785 
L 84.866375 141.264 
L 84.409308 140.470386 
L 84.304507 140.28972 
L 83.27232 138.503792 
L 82.942905 137.9376 
L 82.238559 136.722249 
L 81.576509 135.58548 
L 81.22031 134.975225 
L 81.008513 134.6112 
L 80.891754 134.409665 
L 80.828036 134.300326 
L 80.440207 133.63692 
L 79.861728 132.64382 
L 79.064886 131.2848 
L 78.986124 131.149947 
L 78.910504 131.021101 
L 78.151247 129.725154 
L 77.68393 128.93268 
L 77.224341 128.150542 
L 77.184614 128.083133 
L 77.110682 127.9584 
L 76.976183 127.730585 
L 76.738758 127.327162 
L 76.536688 126.98412 
L 76.437109 126.81447 
L 76.275216 126.540442 
L 75.727295 125.611347 
L 75.146959 124.632 
L 74.720409 123.909381 
L 73.752333 122.27988 
L 73.598788 122.020524 
L 73.172788 121.3056 
L 72.757291 120.605644 
L 72.593519 120.33132 
L 72.461551 120.109188 
L 71.842966 119.072903 
L 71.276189 118.122822 
L 71.189967 117.9792 
L 70.14864 116.237982 
L 69.781566 115.62708 
L 69.688091 115.470745 
L 69.196252 114.6528 
L 68.8794 114.123944 
L 68.610876 113.67852 
L 67.820052 112.362279 
L 67.193766 111.3264 
L 66.872158 110.792419 
L 66.576964 110.304578 
L 66.086878 109.493153 
L 65.771538 108.97428 
L 65.204656 108.038408 
L 65.181253 108 
L 65.10102 107.867878 
L 64.589811 107.02572 
L 64.350722 106.630538 
L 63.978805 106.019606 
L 63.589571 105.37903 
L 63.15895 104.6736 
L 62.611828 103.773899 
L 61.723149 102.32148 
L 61.509567 101.971268 
L 61.376867 101.754142 
L 61.126776 101.3472 
L 60.660455 100.58595 
L 60.530348 100.37292 
L 60.300883 99.9978 
L 59.346359 98.444489 
L 59.124041 98.082453 
L 59.085951 98.0208 
L 57.971983 96.21086 
L 57.62857 95.653562 
L 57.62857 98.0208 
L 57.62857 101.3472 
L 57.62857 104.6736 
L 57.62857 108 
L 57.62857 111.3264 
L 57.62857 114.6528 
L 57.62857 117.9792 
L 57.62857 121.3056 
L 57.62857 124.632 
L 57.62857 127.9584 
L 57.62857 131.2848 
L 57.62857 134.6112 
L 57.62857 137.9376 
L 57.62857 141.264 
L 57.62857 144.5904 
L 57.62857 147.9168 
L 57.62857 151.2432 
L 57.62857 154.5696 
L 57.62857 157.896 
L 57.62857 161.2224 
L 57.62857 164.5488 
L 57.62857 167.8752 
L 57.62857 171.2016 
L 57.62857 174.528 
L 57.62857 177.8544 
L 57.62857 181.1808 
L 57.62857 184.5072 
L 57.62857 187.8336 
L 57.62857 191.16 
L 57.62857 194.4864 
L 57.62857 197.8128 
L 57.62857 201.1392 
L 57.62857 204.4656 
L 57.62857 207.792 
L 57.62857 211.1184 
L 57.62857 214.4448 
L 57.62857 217.7712 
L 57.62857 221.0976 
L 57.62857 224.424 
L 57.62857 227.7504 
L 57.62857 231.0768 
L 57.62857 234.4032 
L 57.62857 237.7296 
L 57.62857 241.056 
L 57.62857 244.3824 
L 57.62857 247.7088 
L 57.62857 251.0352 
L 57.62857 254.3616 
L 57.62857 257.688 
L 57.62857 261.0144 
L 57.62857 264.3408 
L 57.62857 267.6672 
L 57.62857 270.9936 
L 57.62857 274.32 
L 57.62857 277.6464 
L 57.62857 280.9728 
L 57.62857 284.2992 
L 57.62857 287.6256 
L 57.62857 290.952 
L 57.62857 294.2784 
L 57.62857 297.6048 
L 57.62857 300.9312 
L 57.62857 304.2576 
L 57.62857 307.584 
L 59.152282 307.584 
L 60.675994 307.584 
L 62.199706 307.584 
L 63.723418 307.584 
L 65.24713 307.584 
L 66.770842 307.584 
L 68.294554 307.584 
L 69.818266 307.584 
L 71.341978 307.584 
L 72.86569 307.584 
L 74.389402 307.584 
L 75.913114 307.584 
L 77.436826 307.584 
L 78.960538 307.584 
L 80.48425 307.584 
L 82.007962 307.584 
L 83.531674 307.584 
L 85.055386 307.584 
L 86.579098 307.584 
L 88.10281 307.584 
L 89.626522 307.584 
L 91.150234 307.584 
L 92.673946 307.584 
L 94.197658 307.584 
L 95.72137 307.584 
L 97.245082 307.584 
L 98.768794 307.584 
L 100.292506 307.584 
L 101.816218 307.584 
L 103.33993 307.584 
L 103.33993 304.2576 
L 103.33993 300.9312 
L 103.33993 297.6048 
L 103.33993 294.2784 
L 103.33993 290.952 
L 103.33993 287.6256 
L 103.33993 284.2992 
L 103.33993 280.9728 
L 103.33993 277.6464 
L 103.33993 274.32 
L 103.33993 270.9936 
L 103.33993 267.6672 
L 103.33993 264.3408 
L 103.33993 261.0144 
L 103.33993 257.688 
L 103.33993 254.3616 
L 103.33993 251.0352 
L 103.33993 247.7088 
L 103.33993 244.3824 
L 103.33993 241.056 
L 103.33993 237.7296 
L 103.33993 234.4032 
L 103.33993 231.0768 
L 103.33993 227.7504 
L 103.33993 224.424 
L 103.33993 221.0976 
L 103.33993 217.7712 
L 103.33993 214.4448 
L 103.33993 211.1184 
L 103.33993 207.792 
L 103.33993 204.4656 
L 103.33993 201.1392 
L 103.33993 197.8128 
L 103.33993 194.4864 
L 103.33993 191.16 
L 103.33993 187.8336 
L 103.33993 184.5072 
L 103.33993 181.1808 
L 103.33993 177.8544 
L 103.33993 174.528 
" clip-path="url(#p2421662f7a)" style="fill: #0080ff"/>
   </g>
   <g id="PathCollection_4">
    <path clip-path="url(#p2421662f7a)" style="fill: #00e4f8"/>
   </g>
   <g id="PathCollection_5">
    <path clip-path="url(#p2421662f7a)" style="fill: #53ffa4"/>
   </g>
   <g id="PathCollection_6">
    <path clip-path="url(#p2421662f7a)" style="fill: #a4ff53"/>
   </g>
   <g id="PathCollection_7">
    <path clip-path="url(#p2421662f7a)" style="fill: #f8f500"/>
   </g>
   <g id="PathCollection_8">
    <path clip-path="url(#p2421662f7a)" style="fill: #ff9400"/>
   </g>
   <g id="PathCollection_9">
    <path clip-path="url(#p2421662f7a)" style="fill: #ff3800"/>
   </g>
   <g id="PathCollection_10">
    <path clip-path="url(#p2421662f7a)" style="fill: #b60000"/>
   </g>
   <g id="PathCollection_11">
    <path d="M 203.507719 41.472 
L 203.627397 41.822364 
L 203.808294 42.44628 
L 204.412518 44.275181 
L 204.582556 44.7984 
L 204.716323 45.196775 
L 205.314322 47.15052 
L 205.650111 48.118732 
L 205.651831 48.1248 
L 205.653018 48.127848 
L 205.653902 48.130223 
L 205.934993 49.09908 
L 206.590463 51.079426 
L 206.702306 51.4512 
L 206.85197 51.930436 
L 207.425896 53.80332 
L 207.648433 54.443524 
L 207.68703 54.591295 
L 207.731852 54.7776 
L 207.801139 54.974528 
L 207.865205 55.148573 
L 208.04035 55.75188 
L 208.444403 56.970378 
L 208.785918 58.104 
L 209.243234 59.565889 
L 209.516356 60.45612 
L 209.622343 60.760336 
L 209.69972 61.056726 
L 209.789579 61.4304 
L 210.057849 62.174594 
L 210.124686 62.40468 
L 210.279027 62.869268 
L 210.848462 64.7568 
L 211.543789 66.975785 
L 211.58352 67.10892 
L 211.587322 67.125466 
L 211.826234 68.0832 
L 212.03544 68.674314 
L 212.177245 69.05748 
L 212.509254 70.148438 
L 212.890254 71.4096 
L 213.101641 72.083065 
L 213.60332 73.76172 
L 213.651251 73.970404 
L 213.842128 74.736 
L 214.10439 75.459412 
L 214.191013 75.71028 
L 214.646171 77.203562 
L 214.894763 78.0624 
L 215.3709 79.64023 
L 215.602635 80.41452 
L 215.615633 80.464394 
L 215.837575 81.3888 
L 216.035233 81.932463 
L 216.182549 82.357773 
L 216.183876 82.36308 
L 216.18841 82.378302 
L 216.865708 84.7152 
L 217.419176 86.546334 
L 217.559486 87.06732 
L 217.639906 87.320691 
L 217.812885 88.0416 
L 218.045646 88.693446 
L 218.126321 89.01588 
L 218.402372 89.940895 
L 218.816518 91.368 
L 219.154937 92.48585 
L 219.487693 93.72012 
L 219.678716 94.320526 
L 219.718403 94.493616 
L 219.768368 94.6944 
L 219.837723 94.884076 
L 219.889424 95.032408 
L 220.048675 95.66868 
L 220.594589 97.494553 
L 220.747501 98.0208 
L 220.87245 98.432865 
L 221.396023 100.37292 
L 221.697068 101.316879 
L 221.700284 101.330916 
L 221.704333 101.3472 
L 221.709974 101.362581 
L 221.714179 101.374608 
L 221.95124 102.32148 
L 222.570255 104.387978 
L 222.646148 104.6736 
L 222.746027 105.031453 
L 223.284777 107.02572 
L 223.507419 107.722172 
L 223.564151 108 
L 223.617456 108.162193 
L 223.666693 108.304938 
L 223.834317 108.97428 
L 224.247628 110.351487 
L 224.507012 111.3264 
L 224.848615 112.548279 
L 225.154255 113.67852 
L 225.280708 114.073133 
L 225.398916 114.6528 
L 225.510497 114.991223 
L 225.61355 115.289122 
L 225.698207 115.62708 
L 225.907237 116.322297 
L 226.348641 117.9792 
L 226.93038 120.056548 
L 227.004758 120.33132 
L 227.035565 120.42723 
L 227.119579 120.817382 
L 227.21444 121.3056 
L 227.540721 122.269955 
L 227.543207 122.27988 
L 227.549356 122.300293 
L 228.17133 124.632 
L 228.562887 126.027895 
L 228.815223 126.98412 
L 228.836312 127.099303 
L 229.011011 127.9584 
L 229.288296 128.77542 
L 229.338969 128.93268 
L 229.974199 131.280555 
L 229.975276 131.2848 
L 229.977215 131.292037 
L 230.596838 133.63692 
L 230.631015 133.796091 
L 230.788919 134.6112 
L 231.012422 135.267716 
L 231.115164 135.58548 
L 231.374836 136.543806 
L 231.728711 137.9376 
L 232.358049 140.282635 
L 232.359689 140.28972 
L 232.360665 140.2931 
L 232.442343 140.740601 
L 232.548454 141.264 
L 232.718416 141.761699 
L 232.845184 142.152428 
L 232.86308 142.23828 
L 232.927134 142.479221 
L 233.463774 144.5904 
L 233.921425 146.29299 
L 234.071903 146.94252 
L 234.161614 147.252448 
L 234.217409 147.558648 
L 234.289903 147.9168 
L 234.40656 148.257343 
L 234.493583 148.524646 
L 234.569952 148.89108 
L 234.84394 149.919703 
L 235.180749 151.2432 
L 235.46802 152.310241 
L 235.765979 153.59532 
L 235.943965 154.20863 
L 236.013551 154.5696 
L 236.124569 154.899829 
L 236.258768 155.54388 
L 236.741377 157.352226 
L 236.879917 157.896 
L 236.998098 158.334279 
L 237.442196 160.24812 
L 237.708004 161.161695 
L 237.713084 161.189672 
L 237.719686 161.2224 
L 237.730412 161.253514 
L 237.738416 161.277928 
L 237.929807 162.19668 
L 238.50983 164.365856 
L 238.55177 164.5488 
L 238.606295 164.771385 
L 239.10083 166.90092 
L 239.322575 167.661081 
L 239.355868 167.8752 
L 239.393795 167.998936 
L 239.428799 168.1074 
L 239.583344 168.84948 
L 240.000386 170.406135 
L 240.18296 171.2016 
L 240.420507 172.169707 
L 240.742158 173.55372 
L 240.886617 174.047658 
L 240.96109 174.528 
L 241.046479 174.80559 
L 241.125277 175.048965 
L 241.219655 175.50228 
L 241.474859 176.453023 
L 241.796874 177.8544 
L 242.216184 179.560413 
L 242.366454 180.20652 
L 242.434055 180.437062 
L 242.54902 181.1808 
L 242.681713 181.610619 
L 242.804144 181.987533 
L 242.839015 182.15508 
L 242.933504 182.506416 
L 243.393784 184.5072 
L 243.936664 186.7123 
L 243.970146 186.85932 
L 244.039574 187.277373 
L 244.119926 187.8336 
L 244.29977 188.41405 
L 244.428113 188.80788 
L 244.622892 189.635695 
L 244.973958 191.16 
L 245.206963 192.104858 
L 245.527849 193.51212 
L 245.573426 193.787381 
L 245.674071 194.4864 
L 245.90092 195.215907 
L 245.98095 195.46068 
L 246.463987 197.510585 
L 246.529475 197.8128 
L 246.641152 198.290778 
L 247.06903 200.16492 
L 247.091144 200.298891 
L 247.211718 201.1392 
L 247.415159 201.775859 
L 247.51734 202.11348 
L 247.709493 202.927739 
L 248.043074 204.4656 
L 248.587957 206.794006 
L 248.592514 206.81772 
L 248.59541 206.828811 
L 248.653565 207.270629 
L 248.73313 207.792 
L 248.893162 208.291067 
L 249.012602 208.684176 
L 249.026084 208.76628 
L 249.078652 208.991638 
L 249.540432 211.1184 
L 249.954551 212.885225 
L 250.067093 213.47052 
L 250.138772 213.744314 
L 250.180901 214.065614 
L 250.238568 214.4448 
L 250.355361 214.807745 
L 250.442547 215.093579 
L 250.495939 215.41908 
L 250.704809 216.312682 
L 251.021806 217.7712 
L 251.306187 218.982591 
L 251.525632 220.12332 
L 251.665759 220.65703 
L 251.692149 220.859101 
L 251.728293 221.0976 
L 251.802009 221.325872 
L 251.85705 221.50561 
L 251.949828 222.07188 
L 252.314008 223.626758 
L 252.487451 224.424 
L 252.643105 225.086005 
L 252.968382 226.77612 
L 253.176631 227.567002 
L 253.202563 227.7504 
L 253.256356 227.920227 
L 253.388001 228.72468 
L 253.90652 230.933976 
L 253.937622 231.0768 
L 253.965544 231.195369 
L 254.395594 233.42892 
L 254.635724 234.338239 
L 254.639082 234.367359 
L 254.64241 234.4032 
L 254.653038 234.44034 
L 254.662842 234.472777 
L 254.810708 235.37748 
L 255.266078 237.313735 
L 255.345758 237.7296 
L 255.449037 238.220649 
L 255.807515 240.08172 
L 255.987411 240.760962 
L 256.002573 240.893227 
L 256.01758 241.056 
L 256.110752 241.372033 
L 256.218198 242.03028 
L 256.550151 243.438865 
L 256.731111 244.3824 
L 256.965889 245.496776 
L 257.204394 246.73452 
L 257.324369 247.186192 
L 257.351067 247.420491 
L 257.377453 247.7088 
L 257.543161 248.26865 
L 257.610718 248.68308 
L 257.820115 249.569793 
L 258.101434 251.0352 
L 258.466775 252.766342 
L 258.586478 253.38732 
L 258.646837 253.613888 
L 258.684802 253.949129 
L 258.722267 254.3616 
L 258.960319 255.162671 
L 258.988515 255.33588 
L 259.076199 255.706425 
L 259.456972 257.688 
L 259.951955 260.029454 
L 259.954012 260.04012 
L 259.955051 260.044011 
L 260.052257 261.0144 
L 260.213699 261.569202 
L 260.342392 261.98868 
L 260.432259 262.439431 
L 260.797964 264.3408 
L 261.067205 265.612249 
L 261.273444 266.69292 
L 261.308944 267.010438 
L 261.367661 267.6672 
L 261.566593 268.347947 
L 261.656989 268.64148 
L 262.071733 270.718726 
L 262.124651 270.9936 
L 262.16362 271.177314 
L 262.577904 273.34572 
L 262.599821 273.543066 
L 262.668711 274.32 
L 262.905062 275.12535 
L 262.957284 275.29428 
L 263.249014 276.753313 
L 263.408418 277.6464 
L 263.668825 278.955975 
L 263.868227 279.99852 
L 263.895932 280.363262 
L 263.955642 280.9728 
L 264.229346 281.901432 
L 264.243511 281.94708 
L 264.322427 282.341197 
L 264.672166 284.2992 
L 265.108794 286.491423 
L 265.132937 286.65132 
L 265.150157 286.724592 
L 265.181071 287.1357 
L 265.228686 287.6256 
L 265.478836 288.470662 
L 265.493901 288.59988 
L 265.563547 288.94665 
L 265.922006 290.952 
L 266.264591 292.669266 
L 266.36044 293.30412 
L 266.429049 293.595078 
L 266.452251 293.906839 
L 266.488073 294.2784 
L 266.678598 294.919245 
L 266.717354 295.25268 
L 266.897505 296.14762 
L 267.158166 297.6048 
L 267.407461 298.852421 
L 267.574193 299.95692 
L 267.693979 300.463188 
L 267.709701 300.676699 
L 267.734035 300.9312 
L 267.865088 301.370087 
L 267.927122 301.90548 
L 268.217094 303.342685 
L 268.38087 304.2576 
L 268.537619 305.0408 
L 268.774419 306.60972 
L 268.945177 307.32896 
L 268.987246 307.584 
L 270.44352 307.584 
L 278.53824 307.584 
L 286.63296 307.584 
L 294.72768 307.584 
L 302.8224 307.584 
L 310.91712 307.584 
L 319.01184 307.584 
L 327.10656 307.584 
L 335.20128 307.584 
L 343.296 307.584 
L 343.296 304.2576 
L 343.296 300.9312 
L 343.296 297.6048 
L 343.296 294.2784 
L 343.296 290.952 
L 343.296 287.6256 
L 343.296 284.2992 
L 343.296 280.9728 
L 343.296 277.6464 
L 343.296 274.32 
L 343.296 270.9936 
L 343.296 267.6672 
L 343.296 264.3408 
L 343.296 261.0144 
L 343.296 257.688 
L 343.296 254.3616 
L 343.296 251.0352 
L 343.296 247.7088 
L 343.296 244.3824 
L 343.296 241.056 
L 343.296 237.7296 
L 343.296 234.4032 
L 343.296 231.0768 
L 343.296 227.7504 
L 343.296 224.424 
L 343.296 221.0976 
L 343.296 217.7712 
L 343.296 214.4448 
L 343.296 211.1184 
L 343.296 207.792 
L 343.296 204.4656 
L 343.296 201.1392 
L 343.296 197.8128 
L 343.296 194.4864 
L 343.296 191.16 
L 343.296 187.8336 
L 343.296 184.5072 
L 343.296 181.1808 
L 343.296 177.8544 
L 343.296 174.528 
L 343.296 171.2016 
L 343.296 167.8752 
L 343.296 164.5488 
L 343.296 161.2224 
L 343.296 157.896 
L 343.296 154.5696 
L 343.296 151.2432 
L 343.296 147.9168 
L 343.296 144.5904 
L 343.296 141.264 
L 343.296 137.9376 
L 343.296 134.6112 
L 343.296 131.2848 
L 343.296 127.9584 
L 343.296 124.632 
L 343.296 121.3056 
L 343.296 117.9792 
L 343.296 114.6528 
L 343.296 111.3264 
L 343.296 108 
L 343.296 104.6736 
L 343.296 101.3472 
L 343.296 98.0208 
L 343.296 94.6944 
L 343.296 91.368 
L 343.296 88.0416 
L 343.296 84.7152 
L 343.296 81.3888 
L 343.296 78.0624 
L 343.296 74.736 
L 343.296 71.4096 
L 343.296 68.0832 
L 343.296 64.7568 
L 343.296 61.4304 
L 343.296 58.104 
L 343.296 54.7776 
L 343.296 51.4512 
L 343.296 48.1248 
L 343.296 44.7984 
L 343.296 41.472 
L 335.20128 41.472 
L 327.10656 41.472 
L 319.01184 41.472 
L 310.91712 41.472 
L 302.8224 41.472 
L 294.72768 41.472 
L 286.63296 41.472 
L 278.53824 41.472 
L 270.44352 41.472 
L 262.3488 41.472 
L 254.25408 41.472 
L 246.15936 41.472 
L 238.06464 41.472 
L 229.96992 41.472 
L 221.8752 41.472 
L 213.78048 41.472 
L 205.68576 41.472 
" clip-path="url(#p2421662f7a)" style="fill: #0000b6"/>
   </g>
   <g id="PathCollection_12">
    <path d="M 268.987246 307.584 
L 268.945177 307.32896 
L 268.774419 306.60972 
L 268.537619 305.0408 
L 268.38087 304.2576 
L 268.217094 303.342685 
L 267.927122 301.90548 
L 267.865088 301.370087 
L 267.734035 300.9312 
L 267.709701 300.676699 
L 267.693979 300.463188 
L 267.574193 299.95692 
L 267.407461 298.852421 
L 267.158166 297.6048 
L 266.897505 296.14762 
L 266.717354 295.25268 
L 266.678598 294.919245 
L 266.488073 294.2784 
L 266.452251 293.906839 
L 266.429049 293.595078 
L 266.36044 293.30412 
L 266.264591 292.669266 
L 265.922006 290.952 
L 265.563547 288.94665 
L 265.493901 288.59988 
L 265.478836 288.470662 
L 265.228686 287.6256 
L 265.181071 287.1357 
L 265.150157 286.724592 
L 265.132937 286.65132 
L 265.108794 286.491423 
L 264.672166 284.2992 
L 264.322427 282.341197 
L 264.243511 281.94708 
L 264.229346 281.901432 
L 263.955642 280.9728 
L 263.895932 280.363262 
L 263.868227 279.99852 
L 263.668825 278.955975 
L 263.408418 277.6464 
L 263.249014 276.753313 
L 262.957284 275.29428 
L 262.905062 275.12535 
L 262.668711 274.32 
L 262.599821 273.543066 
L 262.577904 273.34572 
L 262.16362 271.177314 
L 262.124651 270.9936 
L 262.071733 270.718726 
L 261.656989 268.64148 
L 261.566593 268.347947 
L 261.367661 267.6672 
L 261.308944 267.010438 
L 261.273444 266.69292 
L 261.067205 265.612249 
L 260.797964 264.3408 
L 260.432259 262.439431 
L 260.342392 261.98868 
L 260.213699 261.569202 
L 260.052257 261.0144 
L 259.955051 260.044011 
L 259.954012 260.04012 
L 259.951955 260.029454 
L 259.456972 257.688 
L 259.076199 255.706425 
L 258.988515 255.33588 
L 258.960319 255.162671 
L 258.722267 254.3616 
L 258.684802 253.949129 
L 258.646837 253.613888 
L 258.586478 253.38732 
L 258.466775 252.766342 
L 258.101434 251.0352 
L 257.820115 249.569793 
L 257.610718 248.68308 
L 257.543161 248.26865 
L 257.377453 247.7088 
L 257.351067 247.420491 
L 257.324369 247.186192 
L 257.204394 246.73452 
L 256.965889 245.496776 
L 256.731111 244.3824 
L 256.550151 243.438865 
L 256.218198 242.03028 
L 256.110752 241.372033 
L 256.01758 241.056 
L 256.002573 240.893227 
L 255.987411 240.760962 
L 255.807515 240.08172 
L 255.449037 238.220649 
L 255.345758 237.7296 
L 255.266078 237.313735 
L 254.810708 235.37748 
L 254.662842 234.472777 
L 254.653038 234.44034 
L 254.64241 234.4032 
L 254.639082 234.367359 
L 254.635724 234.338239 
L 254.395594 233.42892 
L 253.965544 231.195369 
L 253.937622 231.0768 
L 253.90652 230.933976 
L 253.388001 228.72468 
L 253.256356 227.920227 
L 253.202563 227.7504 
L 253.176631 227.567002 
L 252.968382 226.77612 
L 252.643105 225.086005 
L 252.487451 224.424 
L 252.314008 223.626758 
L 251.949828 222.07188 
L 251.85705 221.50561 
L 251.802009 221.325872 
L 251.728293 221.0976 
L 251.692149 220.859101 
L 251.665759 220.65703 
L 251.525632 220.12332 
L 251.306187 218.982591 
L 251.021806 217.7712 
L 250.704809 216.312682 
L 250.495939 215.41908 
L 250.442547 215.093579 
L 250.355361 214.807745 
L 250.238568 214.4448 
L 250.180901 214.065614 
L 250.138772 213.744314 
L 250.067093 213.47052 
L 249.954551 212.885225 
L 249.540432 211.1184 
L 249.078652 208.991638 
L 249.026084 208.76628 
L 249.012602 208.684176 
L 248.893162 208.291067 
L 248.73313 207.792 
L 248.653565 207.270629 
L 248.59541 206.828811 
L 248.592514 206.81772 
L 248.587957 206.794006 
L 248.043074 204.4656 
L 247.709493 202.927739 
L 247.51734 202.11348 
L 247.415159 201.775859 
L 247.211718 201.1392 
L 247.091144 200.298891 
L 247.06903 200.16492 
L 246.641152 198.290778 
L 246.529475 197.8128 
L 246.463987 197.510585 
L 245.98095 195.46068 
L 245.90092 195.215907 
L 245.674071 194.4864 
L 245.573426 193.787381 
L 245.527849 193.51212 
L 245.206963 192.104858 
L 244.973958 191.16 
L 244.622892 189.635695 
L 244.428113 188.80788 
L 244.29977 188.41405 
L 244.119926 187.8336 
L 244.039574 187.277373 
L 243.970146 186.85932 
L 243.936664 186.7123 
L 243.393784 184.5072 
L 242.933504 182.506416 
L 242.839015 182.15508 
L 242.804144 181.987533 
L 242.681713 181.610619 
L 242.54902 181.1808 
L 242.434055 180.437062 
L 242.366454 180.20652 
L 242.216184 179.560413 
L 241.796874 177.8544 
L 241.474859 176.453023 
L 241.219655 175.50228 
L 241.125277 175.048965 
L 241.046479 174.80559 
L 240.96109 174.528 
L 240.886617 174.047658 
L 240.742158 173.55372 
L 240.420507 172.169707 
L 240.18296 171.2016 
L 240.000386 170.406135 
L 239.583344 168.84948 
L 239.428799 168.1074 
L 239.393795 167.998936 
L 239.355868 167.8752 
L 239.322575 167.661081 
L 239.10083 166.90092 
L 238.606295 164.771385 
L 238.55177 164.5488 
L 238.50983 164.365856 
L 237.929807 162.19668 
L 237.738416 161.277928 
L 237.730412 161.253514 
L 237.719686 161.2224 
L 237.713084 161.189672 
L 237.708004 161.161695 
L 237.442196 160.24812 
L 236.998098 158.334279 
L 236.879917 157.896 
L 236.741377 157.352226 
L 236.258768 155.54388 
L 236.124569 154.899829 
L 236.013551 154.5696 
L 235.943965 154.20863 
L 235.765979 153.59532 
L 235.46802 152.310241 
L 235.180749 151.2432 
L 234.84394 149.919703 
L 234.569952 148.89108 
L 234.493583 148.524646 
L 234.40656 148.257343 
L 234.289903 147.9168 
L 234.217409 147.558648 
L 234.161614 147.252448 
L 234.071903 146.94252 
L 233.921425 146.29299 
L 233.463774 144.5904 
L 232.927134 142.479221 
L 232.86308 142.23828 
L 232.845184 142.152428 
L 232.718416 141.761699 
L 232.548454 141.264 
L 232.442343 140.740601 
L 232.360665 140.2931 
L 232.359689 140.28972 
L 232.358049 140.282635 
L 231.728711 137.9376 
L 231.374836 136.543806 
L 231.115164 135.58548 
L 231.012422 135.267716 
L 230.788919 134.6112 
L 230.631015 133.796091 
L 230.596838 133.63692 
L 229.977215 131.292037 
L 229.975276 131.2848 
L 229.974199 131.280555 
L 229.338969 128.93268 
L 229.288296 128.77542 
L 229.011011 127.9584 
L 228.836312 127.099303 
L 228.815223 126.98412 
L 228.562887 126.027895 
L 228.17133 124.632 
L 227.549356 122.300293 
L 227.543207 122.27988 
L 227.540721 122.269955 
L 227.21444 121.3056 
L 227.119579 120.817382 
L 227.035565 120.42723 
L 227.004758 120.33132 
L 226.93038 120.056548 
L 226.348641 117.9792 
L 225.907237 116.322297 
L 225.698207 115.62708 
L 225.61355 115.289122 
L 225.510497 114.991223 
L 225.398916 114.6528 
L 225.280708 114.073133 
L 225.154255 113.67852 
L 224.848615 112.548279 
L 224.507012 111.3264 
L 224.247628 110.351487 
L 223.834317 108.97428 
L 223.666693 108.304938 
L 223.617456 108.162193 
L 223.564151 108 
L 223.507419 107.722172 
L 223.284777 107.02572 
L 222.746027 105.031453 
L 222.646148 104.6736 
L 222.570255 104.387978 
L 221.95124 102.32148 
L 221.714179 101.374608 
L 221.709974 101.362581 
L 221.704333 101.3472 
L 221.700284 101.330916 
L 221.697068 101.316879 
L 221.396023 100.37292 
L 220.87245 98.432865 
L 220.747501 98.0208 
L 220.594589 97.494553 
L 220.048675 95.66868 
L 219.889424 95.032408 
L 219.837723 94.884076 
L 219.768368 94.6944 
L 219.718403 94.493616 
L 219.678716 94.320526 
L 219.487693 93.72012 
L 219.154937 92.48585 
L 218.816518 91.368 
L 218.402372 89.940895 
L 218.126321 89.01588 
L 218.045646 88.693446 
L 217.812885 88.0416 
L 217.639906 87.320691 
L 217.559486 87.06732 
L 217.419176 86.546334 
L 216.865708 84.7152 
L 216.18841 82.378302 
L 216.183876 82.36308 
L 216.182549 82.357773 
L 216.035233 81.932463 
L 215.837575 81.3888 
L 215.615633 80.464394 
L 215.602635 80.41452 
L 215.3709 79.64023 
L 214.894763 78.0624 
L 214.646171 77.203562 
L 214.191013 75.71028 
L 214.10439 75.459412 
L 213.842128 74.736 
L 213.651251 73.970404 
L 213.60332 73.76172 
L 213.101641 72.083065 
L 212.890254 71.4096 
L 212.509254 70.148438 
L 212.177245 69.05748 
L 212.03544 68.674314 
L 211.826234 68.0832 
L 211.587322 67.125466 
L 211.58352 67.10892 
L 211.543789 66.975785 
L 210.848462 64.7568 
L 210.279027 62.869268 
L 210.124686 62.40468 
L 210.057849 62.174594 
L 209.789579 61.4304 
L 209.69972 61.056726 
L 209.622343 60.760336 
L 209.516356 60.45612 
L 209.243234 59.565889 
L 208.785918 58.104 
L 208.444403 56.970378 
L 208.04035 55.75188 
L 207.865205 55.148573 
L 207.801139 54.974528 
L 207.731852 54.7776 
L 207.68703 54.591295 
L 207.648433 54.443524 
L 207.425896 53.80332 
L 206.85197 51.930436 
L 206.702306 51.4512 
L 206.590463 51.079426 
L 205.934993 49.09908 
L 205.653902 48.130223 
L 205.653018 48.127848 
L 205.651831 48.1248 
L 205.650111 48.118732 
L 205.314322 47.15052 
L 204.716323 45.196775 
L 204.582556 44.7984 
L 204.412518 44.275181 
L 203.808294 42.44628 
L 203.627397 41.822364 
L 203.507719 41.472 
L 197.59104 41.472 
L 189.49632 41.472 
L 181.4016 41.472 
L 173.30688 41.472 
L 165.21216 41.472 
L 157.11744 41.472 
L 149.02272 41.472 
L 140.928 41.472 
L 132.83328 41.472 
L 124.73856 41.472 
L 116.64384 41.472 
L 108.54912 41.472 
L 100.4544 41.472 
L 100.4544 44.7984 
L 100.4544 48.1248 
L 100.4544 51.4512 
L 100.4544 54.7776 
L 100.4544 58.104 
L 100.4544 61.4304 
L 100.4544 64.7568 
L 100.4544 68.0832 
L 100.4544 71.4096 
L 100.4544 74.736 
L 100.4544 78.0624 
L 100.4544 81.3888 
L 100.4544 84.7152 
L 100.4544 88.0416 
L 100.4544 91.368 
L 100.4544 94.6944 
L 100.4544 98.0208 
L 100.4544 101.3472 
L 100.4544 104.6736 
L 100.4544 108 
L 100.4544 111.3264 
L 100.4544 114.6528 
L 100.4544 117.9792 
L 100.4544 121.3056 
L 100.4544 124.632 
L 100.4544 127.9584 
L 100.4544 131.2848 
L 100.4544 134.6112 
L 100.4544 137.9376 
L 100.4544 141.264 
L 100.4544 144.5904 
L 100.4544 147.9168 
L 100.4544 151.2432 
L 100.4544 154.5696 
L 100.4544 157.896 
L 100.4544 161.2224 
L 100.4544 164.5488 
L 100.4544 167.8752 
L 100.4544 168.880859 
L 101.281601 170.380948 
L 101.726953 171.2016 
L 102.985488 173.487889 
L 103.020281 173.55372 
L 103.040618 173.590372 
L 103.546446 174.528 
L 103.977835 175.3061 
L 104.07963 175.50228 
L 104.44194 176.166618 
L 105.359026 177.8544 
L 105.948214 178.923202 
L 106.627252 180.20652 
L 107.024629 180.921309 
L 107.164774 181.1808 
L 107.28432 181.396087 
L 107.678462 182.15508 
L 108.887366 184.368203 
L 108.960158 184.5072 
L 109.075191 184.723381 
L 110.206663 186.85932 
L 110.558805 187.491522 
L 110.726399 187.8336 
L 110.845169 188.047347 
L 110.956555 188.243381 
L 111.249924 188.80788 
L 111.804829 189.822117 
L 112.506389 191.16 
L 113.61599 193.242152 
L 113.759163 193.51212 
L 113.803735 193.591987 
L 113.997005 193.979237 
L 114.241993 194.4864 
L 114.553342 195.045354 
L 114.789854 195.46068 
L 115.353541 196.532715 
L 116.025668 197.8128 
L 116.239668 198.213772 
L 117.257276 200.16492 
L 117.335305 200.321263 
L 117.730495 201.1392 
L 118.233931 202.040793 
L 118.275416 202.11348 
L 118.529096 202.595268 
L 119.490549 204.4656 
L 120.419101 206.240615 
L 120.70676 206.81772 
L 120.874721 207.134318 
L 121.19254 207.792 
L 121.501009 208.343079 
L 121.70684 208.76628 
L 122.435897 210.172156 
L 122.922909 211.1184 
L 123.244531 211.732348 
L 124.111864 213.47052 
L 124.618925 214.424436 
L 124.628767 214.4448 
L 124.638339 214.461859 
L 125.10421 215.41908 
L 126.046701 217.23364 
L 126.312307 217.7712 
L 126.723237 218.586773 
L 127.490784 220.12332 
L 127.737785 220.587088 
L 127.840261 220.808852 
L 127.968984 221.0976 
L 128.138002 221.414066 
L 128.295994 221.703127 
L 128.47558 222.07188 
L 128.825512 222.74453 
L 129.656381 224.424 
L 130.716196 226.524325 
L 130.839879 226.77612 
L 131.019845 227.165653 
L 131.280524 227.7504 
L 131.623715 228.391363 
L 131.806313 228.72468 
L 132.92788 230.982949 
L 132.973203 231.0768 
L 133.107292 231.348643 
L 134.130452 233.42892 
L 134.286362 233.784907 
L 134.566319 234.4032 
L 134.872241 234.966952 
L 135.089437 235.37748 
L 135.127342 235.453698 
L 136.227714 237.7296 
L 137.020793 239.335206 
L 137.368948 240.08172 
L 137.572368 240.484822 
L 137.826981 241.056 
L 137.976447 241.33077 
L 138.0872 241.539546 
L 138.308832 242.03028 
L 139.091702 243.627802 
L 139.456964 244.3824 
L 139.705457 244.884785 
L 140.568994 246.73452 
L 141.051043 247.687856 
L 141.054904 247.696986 
L 141.059703 247.7088 
L 141.066267 247.721672 
L 141.072383 247.733376 
L 141.501528 248.68308 
L 142.365983 250.444283 
L 142.63933 251.0352 
L 143.053076 251.908467 
L 143.744158 253.38732 
L 143.975007 253.842955 
L 144.070571 254.069047 
L 144.189389 254.3616 
L 144.35239 254.680388 
L 144.504251 254.97033 
L 144.669518 255.33588 
L 145.002679 256.013574 
L 145.778176 257.688 
L 146.816633 259.876623 
L 146.891793 260.04012 
L 147.062149 260.443351 
L 147.294011 261.0144 
L 147.61306 261.636736 
L 147.797833 261.98868 
L 148.78191 264.101897 
L 148.89269 264.3408 
L 148.934349 264.428472 
L 149.976615 266.69292 
L 150.104501 267.014341 
L 150.374156 267.6672 
L 150.848889 268.59077 
L 150.875575 268.64148 
L 151.039423 268.992862 
L 151.941857 270.9936 
L 152.769198 272.780443 
L 153.013595 273.34572 
L 153.156861 273.645851 
L 153.43041 274.32 
L 153.601014 274.647356 
L 153.727769 274.896972 
L 153.892543 275.29428 
L 154.474855 276.56047 
L 154.965204 277.6464 
L 155.309641 278.389287 
L 156.006029 279.99852 
L 156.41485 280.853209 
L 156.437227 280.909477 
L 156.463359 280.9728 
L 156.493697 281.030866 
L 156.51624 281.075133 
L 156.877987 281.94708 
L 157.827107 284.007573 
L 157.952279 284.2992 
L 158.137579 284.718411 
L 158.974798 286.65132 
L 159.266452 287.259807 
L 159.327408 287.419866 
L 159.402289 287.6256 
L 159.510926 287.848418 
L 159.611797 288.050176 
L 159.839932 288.59988 
L 160.318267 289.63667 
L 160.883491 290.952 
L 161.720871 292.843709 
L 161.920472 293.30412 
L 161.990062 293.449008 
L 162.128159 293.811935 
L 162.297829 294.2784 
L 162.544856 294.783657 
L 162.774211 295.241265 
L 162.77895 295.25268 
L 162.788896 295.274203 
L 163.791553 297.6048 
L 164.225479 298.58367 
L 164.811773 299.95692 
L 164.906501 300.206089 
L 165.170072 300.9312 
L 165.555183 301.716699 
L 165.650037 301.90548 
L 166.231407 303.246422 
L 166.652898 304.2576 
L 167.653004 306.580973 
L 167.664401 306.60972 
L 167.67113 306.624713 
L 168.063407 307.584 
L 173.30688 307.584 
L 181.4016 307.584 
L 189.49632 307.584 
L 197.59104 307.584 
L 205.68576 307.584 
L 213.78048 307.584 
L 221.8752 307.584 
L 229.96992 307.584 
L 238.06464 307.584 
L 246.15936 307.584 
L 254.25408 307.584 
L 262.3488 307.584 
" clip-path="url(#p2421662f7a)" style="fill: #0018ff"/>
   </g>
   <g id="PathCollection_13">
    <path d="M 168.063407 307.584 
L 167.67113 306.624713 
L 167.664401 306.60972 
L 167.653004 306.580973 
L 166.652898 304.2576 
L 166.231407 303.246422 
L 165.650037 301.90548 
L 165.555183 301.716699 
L 165.170072 300.9312 
L 164.906501 300.206089 
L 164.811773 299.95692 
L 164.225479 298.58367 
L 163.791553 297.6048 
L 162.788896 295.274203 
L 162.77895 295.25268 
L 162.774211 295.241265 
L 162.544856 294.783657 
L 162.297829 294.2784 
L 162.128159 293.811935 
L 161.990062 293.449008 
L 161.920472 293.30412 
L 161.720871 292.843709 
L 160.883491 290.952 
L 160.318267 289.63667 
L 159.839932 288.59988 
L 159.611797 288.050176 
L 159.510926 287.848418 
L 159.402289 287.6256 
L 159.327408 287.419866 
L 159.266452 287.259807 
L 158.974798 286.65132 
L 158.137579 284.718411 
L 157.952279 284.2992 
L 157.827107 284.007573 
L 156.877987 281.94708 
L 156.51624 281.075133 
L 156.493697 281.030866 
L 156.463359 280.9728 
L 156.437227 280.909477 
L 156.41485 280.853209 
L 156.006029 279.99852 
L 155.309641 278.389287 
L 154.965204 277.6464 
L 154.474855 276.56047 
L 153.892543 275.29428 
L 153.727769 274.896972 
L 153.601014 274.647356 
L 153.43041 274.32 
L 153.156861 273.645851 
L 153.013595 273.34572 
L 152.769198 272.780443 
L 151.941857 270.9936 
L 151.039423 268.992862 
L 150.875575 268.64148 
L 150.848889 268.59077 
L 150.374156 267.6672 
L 150.104501 267.014341 
L 149.976615 266.69292 
L 148.934349 264.428472 
L 148.89269 264.3408 
L 148.78191 264.101897 
L 147.797833 261.98868 
L 147.61306 261.636736 
L 147.294011 261.0144 
L 147.062149 260.443351 
L 146.891793 260.04012 
L 146.816633 259.876623 
L 145.778176 257.688 
L 145.002679 256.013574 
L 144.669518 255.33588 
L 144.504251 254.97033 
L 144.35239 254.680388 
L 144.189389 254.3616 
L 144.070571 254.069047 
L 143.975007 253.842955 
L 143.744158 253.38732 
L 143.053076 251.908467 
L 142.63933 251.0352 
L 142.365983 250.444283 
L 141.501528 248.68308 
L 141.072383 247.733376 
L 141.066267 247.721672 
L 141.059703 247.7088 
L 141.054904 247.696986 
L 141.051043 247.687856 
L 140.568994 246.73452 
L 139.705457 244.884785 
L 139.456964 244.3824 
L 139.091702 243.627802 
L 138.308832 242.03028 
L 138.0872 241.539546 
L 137.976447 241.33077 
L 137.826981 241.056 
L 137.572368 240.484822 
L 137.368948 240.08172 
L 137.020793 239.335206 
L 136.227714 237.7296 
L 135.127342 235.453698 
L 135.089437 235.37748 
L 134.872241 234.966952 
L 134.566319 234.4032 
L 134.286362 233.784907 
L 134.130452 233.42892 
L 133.107292 231.348643 
L 132.973203 231.0768 
L 132.92788 230.982949 
L 131.806313 228.72468 
L 131.623715 228.391363 
L 131.280524 227.7504 
L 131.019845 227.165653 
L 130.839879 226.77612 
L 130.716196 226.524325 
L 129.656381 224.424 
L 128.825512 222.74453 
L 128.47558 222.07188 
L 128.295994 221.703127 
L 128.138002 221.414066 
L 127.968984 221.0976 
L 127.840261 220.808852 
L 127.737785 220.587088 
L 127.490784 220.12332 
L 126.723237 218.586773 
L 126.312307 217.7712 
L 126.046701 217.23364 
L 125.10421 215.41908 
L 124.638339 214.461859 
L 124.628767 214.4448 
L 124.618925 214.424436 
L 124.111864 213.47052 
L 123.244531 211.732348 
L 122.922909 211.1184 
L 122.435897 210.172156 
L 121.70684 208.76628 
L 121.501009 208.343079 
L 121.19254 207.792 
L 120.874721 207.134318 
L 120.70676 206.81772 
L 120.419101 206.240615 
L 119.490549 204.4656 
L 118.529096 202.595268 
L 118.275416 202.11348 
L 118.233931 202.040793 
L 117.730495 201.1392 
L 117.335305 200.321263 
L 117.257276 200.16492 
L 116.239668 198.213772 
L 116.025668 197.8128 
L 115.353541 196.532715 
L 114.789854 195.46068 
L 114.553342 195.045354 
L 114.241993 194.4864 
L 113.997005 193.979237 
L 113.803735 193.591987 
L 113.759163 193.51212 
L 113.61599 193.242152 
L 112.506389 191.16 
L 111.804829 189.822117 
L 111.249924 188.80788 
L 110.956555 188.243381 
L 110.845169 188.047347 
L 110.726399 187.8336 
L 110.558805 187.491522 
L 110.206663 186.85932 
L 109.075191 184.723381 
L 108.960158 184.5072 
L 108.887366 184.368203 
L 107.678462 182.15508 
L 107.28432 181.396087 
L 107.164774 181.1808 
L 107.024629 180.921309 
L 106.627252 180.20652 
L 105.948214 178.923202 
L 105.359026 177.8544 
L 104.44194 176.166618 
L 104.07963 175.50228 
L 103.977835 175.3061 
L 103.546446 174.528 
L 103.040618 173.590372 
L 103.020281 173.55372 
L 102.985488 173.487889 
L 101.726953 171.2016 
L 101.281601 170.380948 
L 100.4544 168.880859 
L 100.4544 171.2016 
L 100.4544 174.528 
L 100.4544 177.8544 
L 100.4544 181.1808 
L 100.4544 184.5072 
L 100.4544 187.8336 
L 100.4544 191.16 
L 100.4544 194.4864 
L 100.4544 197.8128 
L 100.4544 201.1392 
L 100.4544 204.4656 
L 100.4544 207.792 
L 100.4544 211.1184 
L 100.4544 214.4448 
L 100.4544 217.7712 
L 100.4544 221.0976 
L 100.4544 224.424 
L 100.4544 227.7504 
L 100.4544 231.0768 
L 100.4544 234.4032 
L 100.4544 237.7296 
L 100.4544 241.056 
L 100.4544 244.3824 
L 100.4544 247.7088 
L 100.4544 251.0352 
L 100.4544 254.3616 
L 100.4544 257.688 
L 100.4544 261.0144 
L 100.4544 264.3408 
L 100.4544 267.6672 
L 100.4544 270.9936 
L 100.4544 274.32 
L 100.4544 277.6464 
L 100.4544 280.9728 
L 100.4544 284.2992 
L 100.4544 287.6256 
L 100.4544 290.952 
L 100.4544 294.2784 
L 100.4544 297.6048 
L 100.4544 300.9312 
L 100.4544 304.2576 
L 100.4544 307.584 
L 108.54912 307.584 
L 116.64384 307.584 
L 124.73856 307.584 
L 132.83328 307.584 
L 140.928 307.584 
L 149.02272 307.584 
L 157.11744 307.584 
L 165.21216 307.584 
" clip-path="url(#p2421662f7a)" style="fill: #0080ff"/>
   </g>
   <g id="PathCollection_14">
    <path clip-path="url(#p2421662f7a)" style="fill: #00e4f8"/>
   </g>
   <g id="PathCollection_15">
    <path clip-path="url(#p2421662f7a)" style="fill: #53ffa4"/>
   </g>
   <g id="PathCollection_16">
    <path clip-path="url(#p2421662f7a)" style="fill: #a4ff53"/>
   </g>
   <g id="PathCollection_17">
    <path clip-path="url(#p2421662f7a)" style="fill: #f8f500"/>
   </g>
   <g id="PathCollection_18">
    <path clip-path="url(#p2421662f7a)" style="fill: #ff9400"/>
   </g>
   <g id="PathCollection_19">
    <path clip-path="url(#p2421662f7a)" style="fill: #ff3800"/>
   </g>
   <g id="PathCollection_20">
    <path clip-path="url(#p2421662f7a)" style="fill: #b60000"/>
   </g>
   <g id="matplotlib.axis_1">
    <g id="xtick_1">
     <g id="line2d_1">
      <defs>
       <path id="m2b02f401c4" d="M 0 0 
L 0 3.5 
" style="stroke: #000000; stroke-width: 0.8"/>
      </defs>
      <g>
       <use xlink:href="#m2b02f401c4" x="57.6" y="307.584" style="stroke: #000000; stroke-width: 0.8"/>
      </g>
     </g>
     <g id="text_1">
      <!-- 0.0 -->
      <g transform="translate(51.26875 321.385562) scale(0.1 -0.1)">
       <defs>
        <path id="Calibri-30" d="M 3022 2031 
Q 3022 1566 2948 1181 
Q 2875 797 2704 520 
Q 2534 244 2259 92 
Q 1984 -59 1581 -59 
Q 1200 -59 939 77 
Q 678 213 518 477 
Q 359 741 292 1127 
Q 225 1513 225 2013 
Q 225 2475 300 2861 
Q 375 3247 544 3523 
Q 713 3800 988 3951 
Q 1263 4103 1663 4103 
Q 2047 4103 2308 3967 
Q 2569 3831 2728 3567 
Q 2888 3303 2955 2917 
Q 3022 2531 3022 2031 
z
M 2472 1994 
Q 2472 2297 2450 2537 
Q 2428 2778 2386 2962 
Q 2344 3147 2276 3280 
Q 2209 3413 2115 3498 
Q 2022 3584 1901 3623 
Q 1781 3663 1631 3663 
Q 1366 3663 1200 3538 
Q 1034 3413 939 3194 
Q 844 2975 809 2681 
Q 775 2388 775 2050 
Q 775 1597 822 1280 
Q 869 963 970 763 
Q 1072 563 1230 472 
Q 1388 381 1613 381 
Q 1788 381 1920 437 
Q 2053 494 2148 598 
Q 2244 703 2306 850 
Q 2369 997 2406 1175 
Q 2444 1353 2458 1561 
Q 2472 1769 2472 1994 
z
" transform="scale(0.015625)"/>
        <path id="Calibri-2e" d="M 1144 341 
Q 1144 119 1070 45 
Q 997 -28 803 -28 
Q 616 -28 544 44 
Q 472 116 472 331 
Q 472 553 545 626 
Q 619 700 813 700 
Q 1000 700 1072 628 
Q 1144 556 1144 341 
z
" transform="scale(0.015625)"/>
       </defs>
       <use xlink:href="#Calibri-30"/>
       <use xlink:href="#Calibri-2e" x="50.683594"/>
       <use xlink:href="#Calibri-30" x="75.927734"/>
      </g>
     </g>
    </g>
    <g id="xtick_2">
     <g id="line2d_2">
      <g>
       <use xlink:href="#m2b02f401c4" x="86.1696" y="307.584" style="stroke: #000000; stroke-width: 0.8"/>
      </g>
     </g>
     <g id="text_2">
      <!-- 0.1 -->
      <g transform="translate(79.83835 321.385562) scale(0.1 -0.1)">
       <defs>
        <path id="Calibri-31" d="M 2897 213 
Q 2897 153 2887 112 
Q 2878 72 2862 47 
Q 2847 22 2826 11 
Q 2806 0 2784 0 
L 672 0 
Q 650 0 631 11 
Q 613 22 595 47 
Q 578 72 568 112 
Q 559 153 559 213 
Q 559 269 568 309 
Q 578 350 592 376 
Q 606 403 626 417 
Q 647 431 672 431 
L 1516 431 
L 1516 3506 
L 734 3041 
Q 675 3009 639 3003 
Q 603 2997 581 3017 
Q 559 3038 551 3084 
Q 544 3131 544 3203 
Q 544 3256 548 3293 
Q 553 3331 562 3356 
Q 572 3381 589 3400 
Q 606 3419 634 3438 
L 1566 4034 
Q 1578 4044 1597 4050 
Q 1616 4056 1644 4062 
Q 1672 4069 1709 4070 
Q 1747 4072 1803 4072 
Q 1878 4072 1928 4065 
Q 1978 4059 2006 4048 
Q 2034 4038 2043 4020 
Q 2053 4003 2053 3984 
L 2053 431 
L 2784 431 
Q 2809 431 2831 417 
Q 2853 403 2867 376 
Q 2881 350 2889 309 
Q 2897 269 2897 213 
z
" transform="scale(0.015625)"/>
       </defs>
       <use xlink:href="#Calibri-30"/>
       <use xlink:href="#Calibri-2e" x="50.683594"/>
       <use xlink:href="#Calibri-31" x="75.927734"/>
      </g>
     </g>
    </g>
    <g id="xtick_3">
     <g id="line2d_3">
      <g>
       <use xlink:href="#m2b02f401c4" x="114.7392" y="307.584" style="stroke: #000000; stroke-width: 0.8"/>
      </g>
     </g>
     <g id="text_3">
      <!-- 0.2 -->
      <g transform="translate(108.40795 321.385562) scale(0.1 -0.1)">
       <defs>
        <path id="Calibri-32" d="M 2888 231 
Q 2888 175 2880 131 
Q 2872 88 2858 58 
Q 2844 28 2820 14 
Q 2797 0 2769 0 
L 534 0 
Q 491 0 458 11 
Q 425 22 401 47 
Q 378 72 367 119 
Q 356 166 356 234 
Q 356 297 361 344 
Q 366 391 381 427 
Q 397 463 420 498 
Q 444 534 481 575 
L 1266 1406 
Q 1538 1694 1702 1922 
Q 1866 2150 1955 2337 
Q 2044 2525 2072 2678 
Q 2100 2831 2100 2966 
Q 2100 3100 2056 3220 
Q 2013 3341 1930 3431 
Q 1847 3522 1722 3575 
Q 1597 3628 1434 3628 
Q 1244 3628 1092 3575 
Q 941 3522 827 3459 
Q 713 3397 636 3344 
Q 559 3291 522 3291 
Q 500 3291 483 3303 
Q 466 3316 455 3344 
Q 444 3372 437 3419 
Q 431 3466 431 3531 
Q 431 3578 434 3612 
Q 438 3647 445 3672 
Q 453 3697 465 3719 
Q 478 3741 515 3773 
Q 553 3806 645 3862 
Q 738 3919 877 3973 
Q 1016 4028 1183 4065 
Q 1350 4103 1534 4103 
Q 1828 4103 2048 4020 
Q 2269 3938 2414 3794 
Q 2559 3650 2631 3459 
Q 2703 3269 2703 3053 
Q 2703 2859 2668 2667 
Q 2634 2475 2523 2251 
Q 2413 2028 2203 1754 
Q 1994 1481 1647 1125 
L 1006 456 
L 2766 456 
Q 2791 456 2814 442 
Q 2838 428 2855 400 
Q 2872 372 2880 330 
Q 2888 288 2888 231 
z
" transform="scale(0.015625)"/>
       </defs>
       <use xlink:href="#Calibri-30"/>
       <use xlink:href="#Calibri-2e" x="50.683594"/>
       <use xlink:href="#Calibri-32" x="75.927734"/>
      </g>
     </g>
    </g>
    <g id="xtick_4">
     <g id="line2d_4">
      <g>
       <use xlink:href="#m2b02f401c4" x="143.3088" y="307.584" style="stroke: #000000; stroke-width: 0.8"/>
      </g>
     </g>
     <g id="text_4">
      <!-- 0.3 -->
      <g transform="translate(136.97755 321.385562) scale(0.1 -0.1)">
       <defs>
        <path id="Calibri-33" d="M 2856 1156 
Q 2856 878 2759 654 
Q 2663 431 2481 272 
Q 2300 113 2034 27 
Q 1769 -59 1434 -59 
Q 1231 -59 1054 -26 
Q 878 6 740 51 
Q 603 97 512 145 
Q 422 194 398 216 
Q 375 238 362 259 
Q 350 281 340 312 
Q 331 344 326 389 
Q 322 434 322 500 
Q 322 613 344 656 
Q 366 700 406 700 
Q 434 700 517 650 
Q 600 600 729 542 
Q 859 484 1032 434 
Q 1206 384 1419 384 
Q 1625 384 1781 437 
Q 1938 491 2044 587 
Q 2150 684 2203 817 
Q 2256 950 2256 1106 
Q 2256 1278 2189 1415 
Q 2122 1553 1992 1653 
Q 1863 1753 1673 1806 
Q 1484 1859 1244 1859 
L 859 1859 
Q 834 1859 811 1870 
Q 788 1881 770 1906 
Q 753 1931 742 1972 
Q 731 2013 731 2078 
Q 731 2138 740 2177 
Q 750 2216 767 2239 
Q 784 2263 806 2273 
Q 828 2284 856 2284 
L 1209 2284 
Q 1416 2284 1580 2337 
Q 1744 2391 1858 2491 
Q 1972 2591 2033 2730 
Q 2094 2869 2094 3041 
Q 2094 3166 2053 3280 
Q 2013 3394 1931 3478 
Q 1850 3563 1723 3611 
Q 1597 3659 1431 3659 
Q 1250 3659 1098 3604 
Q 947 3550 828 3487 
Q 709 3425 631 3370 
Q 553 3316 522 3316 
Q 500 3316 483 3323 
Q 466 3331 455 3354 
Q 444 3378 439 3420 
Q 434 3463 434 3531 
Q 434 3578 437 3614 
Q 441 3650 450 3676 
Q 459 3703 471 3725 
Q 484 3747 514 3776 
Q 544 3806 634 3862 
Q 725 3919 858 3973 
Q 991 4028 1164 4065 
Q 1338 4103 1538 4103 
Q 1819 4103 2031 4031 
Q 2244 3959 2386 3828 
Q 2528 3697 2598 3514 
Q 2669 3331 2669 3109 
Q 2669 2919 2619 2755 
Q 2569 2591 2472 2464 
Q 2375 2338 2234 2248 
Q 2094 2159 1909 2125 
L 1909 2119 
Q 2119 2097 2292 2014 
Q 2466 1931 2591 1806 
Q 2716 1681 2786 1514 
Q 2856 1347 2856 1156 
z
" transform="scale(0.015625)"/>
       </defs>
       <use xlink:href="#Calibri-30"/>
       <use xlink:href="#Calibri-2e" x="50.683594"/>
       <use xlink:href="#Calibri-33" x="75.927734"/>
      </g>
     </g>
    </g>
    <g id="xtick_5">
     <g id="line2d_5">
      <g>
       <use xlink:href="#m2b02f401c4" x="171.8784" y="307.584" style="stroke: #000000; stroke-width: 0.8"/>
      </g>
     </g>
     <g id="text_5">
      <!-- 0.4 -->
      <g transform="translate(165.54715 321.385562) scale(0.1 -0.1)">
       <defs>
        <path id="Calibri-34" d="M 3059 1150 
Q 3059 1047 3028 987 
Q 2997 928 2941 928 
L 2484 928 
L 2484 78 
Q 2484 53 2471 36 
Q 2459 19 2428 6 
Q 2397 -6 2347 -12 
Q 2297 -19 2219 -19 
Q 2144 -19 2094 -12 
Q 2044 -6 2014 6 
Q 1984 19 1973 36 
Q 1963 53 1963 78 
L 1963 928 
L 294 928 
Q 256 928 231 937 
Q 206 947 186 972 
Q 166 997 158 1044 
Q 150 1091 150 1166 
Q 150 1225 153 1272 
Q 156 1319 165 1358 
Q 175 1397 190 1433 
Q 206 1469 228 1509 
L 1684 3966 
Q 1700 3991 1729 4009 
Q 1759 4028 1806 4040 
Q 1853 4053 1922 4058 
Q 1991 4063 2084 4063 
Q 2188 4063 2264 4055 
Q 2341 4047 2387 4034 
Q 2434 4022 2459 4001 
Q 2484 3981 2484 3953 
L 2484 1372 
L 2941 1372 
Q 2994 1372 3026 1317 
Q 3059 1263 3059 1150 
z
M 1963 3591 
L 1956 3591 
L 641 1372 
L 1963 1372 
L 1963 3591 
z
" transform="scale(0.015625)"/>
       </defs>
       <use xlink:href="#Calibri-30"/>
       <use xlink:href="#Calibri-2e" x="50.683594"/>
       <use xlink:href="#Calibri-34" x="75.927734"/>
      </g>
     </g>
    </g>
    <g id="xtick_6">
     <g id="line2d_6">
      <g>
       <use xlink:href="#m2b02f401c4" x="200.448" y="307.584" style="stroke: #000000; stroke-width: 0.8"/>
      </g>
     </g>
     <g id="text_6">
      <!-- 0.5 -->
      <g transform="translate(194.11675 321.385562) scale(0.1 -0.1)">
       <defs>
        <path id="Calibri-35" d="M 2869 1300 
Q 2869 975 2759 722 
Q 2650 469 2450 295 
Q 2250 122 1973 31 
Q 1697 -59 1359 -59 
Q 1172 -59 1003 -32 
Q 834 -6 703 33 
Q 572 72 487 109 
Q 403 147 379 169 
Q 356 191 347 209 
Q 338 228 330 254 
Q 322 281 319 322 
Q 316 363 316 419 
Q 316 472 320 514 
Q 325 556 337 582 
Q 350 609 367 621 
Q 384 634 406 634 
Q 438 634 503 595 
Q 569 556 680 511 
Q 791 466 955 425 
Q 1119 384 1344 384 
Q 1553 384 1728 434 
Q 1903 484 2029 590 
Q 2156 697 2228 858 
Q 2300 1019 2300 1250 
Q 2300 1444 2239 1592 
Q 2178 1741 2051 1839 
Q 1925 1938 1731 1986 
Q 1538 2034 1269 2034 
Q 1078 2034 940 2015 
Q 803 1997 684 1997 
Q 597 1997 559 2037 
Q 522 2078 522 2194 
L 522 3841 
Q 522 3944 570 3994 
Q 619 4044 709 4044 
L 2500 4044 
Q 2525 4044 2548 4030 
Q 2572 4016 2587 3987 
Q 2603 3959 2611 3915 
Q 2619 3872 2619 3813 
Q 2619 3700 2587 3637 
Q 2556 3575 2500 3575 
L 991 3575 
L 991 2441 
Q 1100 2456 1214 2459 
Q 1328 2463 1478 2463 
Q 1825 2463 2084 2380 
Q 2344 2297 2517 2145 
Q 2691 1994 2780 1778 
Q 2869 1563 2869 1300 
z
" transform="scale(0.015625)"/>
       </defs>
       <use xlink:href="#Calibri-30"/>
       <use xlink:href="#Calibri-2e" x="50.683594"/>
       <use xlink:href="#Calibri-35" x="75.927734"/>
      </g>
     </g>
    </g>
    <g id="xtick_7">
     <g id="line2d_7">
      <g>
       <use xlink:href="#m2b02f401c4" x="229.0176" y="307.584" style="stroke: #000000; stroke-width: 0.8"/>
      </g>
     </g>
     <g id="text_7">
      <!-- 0.6 -->
      <g transform="translate(222.68635 321.385562) scale(0.1 -0.1)">
       <defs>
        <path id="Calibri-36" d="M 2991 1309 
Q 2991 1044 2909 795 
Q 2828 547 2659 358 
Q 2491 169 2231 55 
Q 1972 -59 1619 -59 
Q 1366 -59 1172 3 
Q 978 66 834 181 
Q 691 297 595 465 
Q 500 634 442 850 
Q 384 1066 359 1322 
Q 334 1578 334 1872 
Q 334 2131 362 2397 
Q 391 2663 462 2909 
Q 534 3156 657 3373 
Q 781 3591 967 3752 
Q 1153 3913 1412 4006 
Q 1672 4100 2016 4100 
Q 2131 4100 2250 4086 
Q 2369 4072 2469 4048 
Q 2569 4025 2637 3997 
Q 2706 3969 2728 3951 
Q 2750 3934 2761 3914 
Q 2772 3894 2778 3870 
Q 2784 3847 2787 3817 
Q 2791 3788 2791 3744 
Q 2791 3688 2789 3647 
Q 2788 3606 2777 3581 
Q 2766 3556 2748 3543 
Q 2731 3531 2703 3531 
Q 2669 3531 2609 3553 
Q 2550 3575 2465 3601 
Q 2381 3628 2261 3650 
Q 2141 3672 1981 3672 
Q 1691 3672 1481 3553 
Q 1272 3434 1139 3234 
Q 1006 3034 942 2770 
Q 878 2506 869 2219 
Q 950 2266 1051 2312 
Q 1153 2359 1273 2396 
Q 1394 2434 1528 2457 
Q 1663 2481 1816 2481 
Q 2144 2481 2369 2392 
Q 2594 2303 2733 2145 
Q 2872 1988 2931 1773 
Q 2991 1559 2991 1309 
z
M 2447 1259 
Q 2447 1441 2411 1589 
Q 2375 1738 2290 1841 
Q 2206 1944 2065 2000 
Q 1925 2056 1719 2056 
Q 1603 2056 1487 2036 
Q 1372 2016 1264 1980 
Q 1156 1944 1057 1895 
Q 959 1847 878 1791 
Q 878 1388 929 1116 
Q 981 844 1079 680 
Q 1178 516 1325 445 
Q 1472 375 1669 375 
Q 1869 375 2016 450 
Q 2163 525 2259 651 
Q 2356 778 2401 936 
Q 2447 1094 2447 1259 
z
" transform="scale(0.015625)"/>
       </defs>
       <use xlink:href="#Calibri-30"/>
       <use xlink:href="#Calibri-2e" x="50.683594"/>
       <use xlink:href="#Calibri-36" x="75.927734"/>
      </g>
     </g>
    </g>
    <g id="xtick_8">
     <g id="line2d_8">
      <g>
       <use xlink:href="#m2b02f401c4" x="257.5872" y="307.584" style="stroke: #000000; stroke-width: 0.8"/>
      </g>
     </g>
     <g id="text_8">
      <!-- 0.7 -->
      <g transform="translate(251.25595 321.385562) scale(0.1 -0.1)">
       <defs>
        <path id="Calibri-37" d="M 2947 3813 
Q 2947 3756 2942 3711 
Q 2938 3666 2930 3623 
Q 2922 3581 2908 3542 
Q 2894 3503 2875 3459 
L 1419 103 
Q 1403 66 1379 42 
Q 1356 19 1320 5 
Q 1284 -9 1228 -14 
Q 1172 -19 1091 -19 
Q 984 -19 925 -9 
Q 866 0 839 20 
Q 813 41 816 70 
Q 819 100 838 141 
L 2369 3572 
L 428 3572 
Q 369 3572 339 3634 
Q 309 3697 309 3809 
Q 309 3869 317 3912 
Q 325 3956 340 3986 
Q 356 4016 378 4030 
Q 400 4044 428 4044 
L 2784 4044 
Q 2828 4044 2861 4034 
Q 2894 4025 2911 3997 
Q 2928 3969 2937 3925 
Q 2947 3881 2947 3813 
z
" transform="scale(0.015625)"/>
       </defs>
       <use xlink:href="#Calibri-30"/>
       <use xlink:href="#Calibri-2e" x="50.683594"/>
       <use xlink:href="#Calibri-37" x="75.927734"/>
      </g>
     </g>
    </g>
    <g id="xtick_9">
     <g id="line2d_9">
      <g>
       <use xlink:href="#m2b02f401c4" x="286.1568" y="307.584" style="stroke: #000000; stroke-width: 0.8"/>
      </g>
     </g>
     <g id="text_9">
      <!-- 0.8 -->
      <g transform="translate(279.82555 321.385562) scale(0.1 -0.1)">
       <defs>
        <path id="Calibri-38" d="M 2981 1038 
Q 2981 775 2887 570 
Q 2794 366 2617 225 
Q 2441 84 2181 12 
Q 1922 -59 1588 -59 
Q 1275 -59 1028 6 
Q 781 72 609 200 
Q 438 328 347 515 
Q 256 703 256 944 
Q 256 1134 318 1293 
Q 381 1453 498 1587 
Q 616 1722 787 1839 
Q 959 1956 1175 2063 
Q 988 2159 844 2267 
Q 700 2375 600 2501 
Q 500 2628 448 2772 
Q 397 2916 397 3084 
Q 397 3297 473 3483 
Q 550 3669 704 3806 
Q 859 3944 1098 4023 
Q 1338 4103 1656 4103 
Q 1963 4103 2186 4029 
Q 2409 3956 2554 3829 
Q 2700 3703 2769 3531 
Q 2838 3359 2838 3163 
Q 2838 3003 2786 2856 
Q 2734 2709 2634 2578 
Q 2534 2447 2389 2333 
Q 2244 2219 2056 2119 
Q 2278 2009 2451 1893 
Q 2625 1778 2742 1645 
Q 2859 1513 2920 1364 
Q 2981 1216 2981 1038 
z
M 2306 3113 
Q 2306 3244 2261 3350 
Q 2216 3456 2128 3531 
Q 2041 3606 1911 3645 
Q 1781 3684 1616 3684 
Q 1278 3684 1104 3531 
Q 931 3378 931 3113 
Q 931 2991 973 2886 
Q 1016 2781 1105 2687 
Q 1194 2594 1330 2505 
Q 1466 2416 1653 2319 
Q 1969 2481 2137 2678 
Q 2306 2875 2306 3113 
z
M 2438 981 
Q 2438 1125 2384 1242 
Q 2331 1359 2223 1461 
Q 2116 1563 1955 1658 
Q 1794 1753 1581 1856 
Q 1384 1759 1236 1662 
Q 1088 1566 992 1462 
Q 897 1359 848 1245 
Q 800 1131 800 994 
Q 800 691 1008 525 
Q 1216 359 1628 359 
Q 2028 359 2233 526 
Q 2438 694 2438 981 
z
" transform="scale(0.015625)"/>
       </defs>
       <use xlink:href="#Calibri-30"/>
       <use xlink:href="#Calibri-2e" x="50.683594"/>
       <use xlink:href="#Calibri-38" x="75.927734"/>
      </g>
     </g>
    </g>
    <g id="xtick_10">
     <g id="line2d_10">
      <g>
       <use xlink:href="#m2b02f401c4" x="314.7264" y="307.584" style="stroke: #000000; stroke-width: 0.8"/>
      </g>
     </g>
     <g id="text_10">
      <!-- 0.9 -->
      <g transform="translate(308.39515 321.385562) scale(0.1 -0.1)">
       <defs>
        <path id="Calibri-39" d="M 2919 2181 
Q 2919 1919 2887 1650 
Q 2856 1381 2781 1132 
Q 2706 884 2579 667 
Q 2453 450 2261 287 
Q 2069 125 1805 33 
Q 1541 -59 1191 -59 
Q 1056 -59 929 -42 
Q 803 -25 701 0 
Q 600 25 531 53 
Q 463 81 431 109 
Q 400 138 386 186 
Q 372 234 372 316 
Q 372 384 376 425 
Q 381 466 390 487 
Q 400 509 417 517 
Q 434 525 459 525 
Q 494 525 556 501 
Q 619 478 714 450 
Q 809 422 937 398 
Q 1066 375 1225 375 
Q 1528 375 1745 492 
Q 1963 609 2100 806 
Q 2238 1003 2306 1262 
Q 2375 1522 2381 1809 
Q 2216 1713 1984 1638 
Q 1753 1563 1453 1563 
Q 1116 1563 886 1655 
Q 656 1747 517 1906 
Q 378 2066 317 2284 
Q 256 2503 256 2763 
Q 256 3031 334 3273 
Q 413 3516 578 3700 
Q 744 3884 1000 3993 
Q 1256 4103 1613 4103 
Q 1866 4103 2061 4039 
Q 2256 3975 2400 3854 
Q 2544 3734 2644 3564 
Q 2744 3394 2805 3178 
Q 2866 2963 2892 2711 
Q 2919 2459 2919 2181 
z
M 2372 2241 
Q 2372 2641 2319 2914 
Q 2266 3188 2162 3356 
Q 2059 3525 1909 3600 
Q 1759 3675 1563 3675 
Q 1359 3675 1215 3601 
Q 1072 3528 980 3404 
Q 888 3281 844 3125 
Q 800 2969 800 2803 
Q 800 2619 839 2466 
Q 878 2313 965 2206 
Q 1053 2100 1193 2042 
Q 1334 1984 1541 1984 
Q 1775 1984 1994 2054 
Q 2213 2125 2372 2241 
z
" transform="scale(0.015625)"/>
       </defs>
       <use xlink:href="#Calibri-30"/>
       <use xlink:href="#Calibri-2e" x="50.683594"/>
       <use xlink:href="#Calibri-39" x="75.927734"/>
      </g>
     </g>
    </g>
    <g id="xtick_11">
     <g id="line2d_11">
      <g>
       <use xlink:href="#m2b02f401c4" x="343.296" y="307.584" style="stroke: #000000; stroke-width: 0.8"/>
      </g>
     </g>
     <g id="text_11">
      <!-- 1.0 -->
      <g transform="translate(336.96475 321.385562) scale(0.1 -0.1)">
       <use xlink:href="#Calibri-31"/>
       <use xlink:href="#Calibri-2e" x="50.683594"/>
       <use xlink:href="#Calibri-30" x="75.927734"/>
      </g>
     </g>
    </g>
    <g id="text_12">
     <!-- $\mathit{p}$ (cm$^2$/cm$^2$) -->
     <g transform="translate(174.148 336.263687) scale(0.1 -0.1)">
      <defs>
       <path id="DejaVuSans-Oblique-70" d="M 3175 2156 
Q 3175 2616 2975 2859 
Q 2775 3103 2400 3103 
Q 2144 3103 1911 2972 
Q 1678 2841 1497 2591 
Q 1319 2344 1212 1994 
Q 1106 1644 1106 1300 
Q 1106 863 1306 627 
Q 1506 391 1875 391 
Q 2147 391 2380 519 
Q 2613 647 2778 891 
Q 2956 1147 3065 1494 
Q 3175 1841 3175 2156 
z
M 1394 2969 
Q 1625 3272 1939 3428 
Q 2253 3584 2638 3584 
Q 3175 3584 3472 3232 
Q 3769 2881 3769 2247 
Q 3769 1728 3584 1258 
Q 3400 788 3053 416 
Q 2822 169 2531 39 
Q 2241 -91 1919 -91 
Q 1547 -91 1294 64 
Q 1041 219 916 525 
L 556 -1331 
L -19 -1331 
L 922 3500 
L 1497 3500 
L 1394 2969 
z
" transform="scale(0.015625)"/>
       <path id="Calibri-20" transform="scale(0.015625)"/>
       <path id="Calibri-28" d="M 1547 4306 
Q 1250 3678 1104 3017 
Q 959 2356 959 1688 
Q 959 1016 1107 356 
Q 1256 -303 1541 -938 
Q 1556 -975 1557 -1001 
Q 1559 -1028 1537 -1045 
Q 1516 -1063 1470 -1070 
Q 1425 -1078 1347 -1078 
Q 1291 -1078 1250 -1075 
Q 1209 -1072 1179 -1062 
Q 1150 -1053 1131 -1040 
Q 1113 -1028 1103 -1013 
Q 934 -694 806 -367 
Q 678 -41 590 296 
Q 503 634 459 979 
Q 416 1325 416 1678 
Q 416 2031 464 2375 
Q 513 2719 602 3058 
Q 691 3397 819 3725 
Q 947 4053 1106 4375 
Q 1109 4388 1123 4397 
Q 1138 4406 1163 4415 
Q 1188 4425 1231 4429 
Q 1275 4434 1344 4434 
Q 1416 4434 1459 4425 
Q 1503 4416 1528 4400 
Q 1553 4384 1556 4359 
Q 1559 4334 1547 4306 
z
" transform="scale(0.015625)"/>
       <path id="Calibri-63" d="M 2500 506 
Q 2500 453 2497 414 
Q 2494 375 2486 348 
Q 2478 322 2467 301 
Q 2456 281 2417 242 
Q 2378 203 2284 145 
Q 2191 88 2073 42 
Q 1956 -3 1818 -31 
Q 1681 -59 1534 -59 
Q 1231 -59 997 41 
Q 763 141 605 333 
Q 447 525 364 804 
Q 281 1084 281 1450 
Q 281 1866 382 2164 
Q 484 2463 661 2653 
Q 838 2844 1077 2936 
Q 1316 3028 1594 3028 
Q 1728 3028 1854 3003 
Q 1981 2978 2087 2937 
Q 2194 2897 2276 2844 
Q 2359 2791 2396 2753 
Q 2434 2716 2448 2694 
Q 2463 2672 2472 2642 
Q 2481 2613 2484 2575 
Q 2488 2538 2488 2481 
Q 2488 2359 2459 2311 
Q 2431 2263 2391 2263 
Q 2344 2263 2283 2314 
Q 2222 2366 2128 2428 
Q 2034 2491 1901 2542 
Q 1769 2594 1588 2594 
Q 1216 2594 1017 2308 
Q 819 2022 819 1478 
Q 819 1206 870 1001 
Q 922 797 1022 659 
Q 1122 522 1267 455 
Q 1413 388 1600 388 
Q 1778 388 1912 444 
Q 2047 500 2145 567 
Q 2244 634 2311 689 
Q 2378 744 2416 744 
Q 2438 744 2453 731 
Q 2469 719 2480 689 
Q 2491 659 2495 614 
Q 2500 569 2500 506 
z
" transform="scale(0.015625)"/>
       <path id="Calibri-6d" d="M 4650 78 
Q 4650 53 4637 36 
Q 4625 19 4597 6 
Q 4569 -6 4519 -12 
Q 4469 -19 4394 -19 
Q 4316 -19 4266 -12 
Q 4216 -6 4186 6 
Q 4156 19 4143 36 
Q 4131 53 4131 78 
L 4131 1788 
Q 4131 1966 4100 2112 
Q 4069 2259 4000 2365 
Q 3931 2472 3825 2528 
Q 3719 2584 3575 2584 
Q 3397 2584 3217 2446 
Q 3038 2309 2822 2044 
L 2822 78 
Q 2822 53 2809 36 
Q 2797 19 2767 6 
Q 2738 -6 2688 -12 
Q 2638 -19 2563 -19 
Q 2491 -19 2439 -12 
Q 2388 -6 2358 6 
Q 2328 19 2317 36 
Q 2306 53 2306 78 
L 2306 1788 
Q 2306 1966 2272 2112 
Q 2238 2259 2169 2365 
Q 2100 2472 1995 2528 
Q 1891 2584 1747 2584 
Q 1569 2584 1387 2446 
Q 1206 2309 994 2044 
L 994 78 
Q 994 53 981 36 
Q 969 19 941 6 
Q 913 -6 863 -12 
Q 813 -19 734 -19 
Q 659 -19 609 -12 
Q 559 -6 529 6 
Q 500 19 489 36 
Q 478 53 478 78 
L 478 2891 
Q 478 2916 487 2933 
Q 497 2950 525 2964 
Q 553 2978 597 2983 
Q 641 2988 713 2988 
Q 781 2988 826 2983 
Q 872 2978 897 2964 
Q 922 2950 933 2933 
Q 944 2916 944 2891 
L 944 2519 
Q 1181 2784 1404 2907 
Q 1628 3031 1856 3031 
Q 2031 3031 2170 2990 
Q 2309 2950 2415 2876 
Q 2522 2803 2597 2701 
Q 2672 2600 2722 2475 
Q 2863 2628 2989 2734 
Q 3116 2841 3233 2906 
Q 3350 2972 3461 3001 
Q 3572 3031 3684 3031 
Q 3956 3031 4140 2936 
Q 4325 2841 4439 2681 
Q 4553 2522 4601 2308 
Q 4650 2094 4650 1856 
L 4650 78 
z
" transform="scale(0.015625)"/>
       <path id="DejaVuSans-32" d="M 1228 531 
L 3431 531 
L 3431 0 
L 469 0 
L 469 531 
Q 828 903 1448 1529 
Q 2069 2156 2228 2338 
Q 2531 2678 2651 2914 
Q 2772 3150 2772 3378 
Q 2772 3750 2511 3984 
Q 2250 4219 1831 4219 
Q 1534 4219 1204 4116 
Q 875 4013 500 3803 
L 500 4441 
Q 881 4594 1212 4672 
Q 1544 4750 1819 4750 
Q 2544 4750 2975 4387 
Q 3406 4025 3406 3419 
Q 3406 3131 3298 2873 
Q 3191 2616 2906 2266 
Q 2828 2175 2409 1742 
Q 1991 1309 1228 531 
z
" transform="scale(0.015625)"/>
       <path id="Calibri-2f" d="M 525 -753 
Q 513 -794 492 -817 
Q 472 -841 440 -853 
Q 409 -866 364 -872 
Q 319 -878 253 -878 
Q 175 -878 123 -867 
Q 72 -856 44 -836 
Q 16 -816 9 -786 
Q 3 -756 22 -716 
L 1913 4469 
Q 1925 4509 1945 4532 
Q 1966 4556 1995 4570 
Q 2025 4584 2072 4589 
Q 2119 4594 2184 4594 
Q 2263 4594 2313 4583 
Q 2363 4572 2391 4553 
Q 2419 4534 2425 4503 
Q 2431 4472 2416 4431 
L 525 -753 
z
" transform="scale(0.015625)"/>
       <path id="Calibri-29" d="M 1522 1678 
Q 1522 1325 1478 979 
Q 1434 634 1346 296 
Q 1259 -41 1132 -367 
Q 1006 -694 838 -1013 
Q 828 -1028 809 -1040 
Q 791 -1053 761 -1062 
Q 731 -1072 690 -1075 
Q 650 -1078 594 -1078 
Q 513 -1078 467 -1070 
Q 422 -1063 401 -1045 
Q 381 -1028 382 -1001 
Q 384 -975 400 -938 
Q 688 -306 834 355 
Q 981 1016 981 1688 
Q 981 2356 834 3017 
Q 688 3678 394 4306 
Q 381 4334 384 4359 
Q 388 4384 413 4400 
Q 438 4416 481 4425 
Q 525 4434 597 4434 
Q 663 4434 706 4429 
Q 750 4425 776 4415 
Q 803 4406 815 4397 
Q 828 4388 834 4375 
Q 1156 3734 1339 3057 
Q 1522 2381 1522 1678 
z
" transform="scale(0.015625)"/>
      </defs>
      <use xlink:href="#DejaVuSans-Oblique-70" transform="translate(0 0.765625)"/>
      <use xlink:href="#Calibri-20" transform="translate(63.476562 0.765625)"/>
      <use xlink:href="#Calibri-28" transform="translate(84.958984 0.765625)"/>
      <use xlink:href="#Calibri-63" transform="translate(115.28125 0.765625)"/>
      <use xlink:href="#Calibri-6d" transform="translate(157.566406 0.765625)"/>
      <use xlink:href="#DejaVuSans-32" transform="translate(238.40625 39.046875) scale(0.7)"/>
      <use xlink:href="#Calibri-2f" transform="translate(285.676758 0.765625)"/>
      <use xlink:href="#Calibri-63" transform="translate(324.299805 0.765625)"/>
      <use xlink:href="#Calibri-6d" transform="translate(366.584961 0.765625)"/>
      <use xlink:href="#DejaVuSans-32" transform="translate(447.424805 39.046875) scale(0.7)"/>
      <use xlink:href="#Calibri-29" transform="translate(494.695312 0.765625)"/>
     </g>
    </g>
   </g>
   <g id="matplotlib.axis_2">
    <g id="ytick_1">
     <g id="line2d_12">
      <defs>
       <path id="m2e58e7e6e1" d="M 0 0 
L -3.5 0 
" style="stroke: #000000; stroke-width: 0.8"/>
      </defs>
      <g>
       <use xlink:href="#m2e58e7e6e1" x="57.6" y="275.65056" style="stroke: #000000; stroke-width: 0.8"/>
      </g>
     </g>
     <g id="text_13">
      <!-- 25 -->
      <g transform="translate(40.4625 279.051341) scale(0.1 -0.1)">
       <use xlink:href="#Calibri-32"/>
       <use xlink:href="#Calibri-35" x="50.683594"/>
      </g>
     </g>
    </g>
    <g id="ytick_2">
     <g id="line2d_13">
      <g>
       <use xlink:href="#m2e58e7e6e1" x="57.6" y="242.38656" style="stroke: #000000; stroke-width: 0.8"/>
      </g>
     </g>
     <g id="text_14">
      <!-- 50 -->
      <g transform="translate(40.4625 245.787341) scale(0.1 -0.1)">
       <use xlink:href="#Calibri-35"/>
       <use xlink:href="#Calibri-30" x="50.683594"/>
      </g>
     </g>
    </g>
    <g id="ytick_3">
     <g id="line2d_14">
      <g>
       <use xlink:href="#m2e58e7e6e1" x="57.6" y="209.12256" style="stroke: #000000; stroke-width: 0.8"/>
      </g>
     </g>
     <g id="text_15">
      <!-- 75 -->
      <g transform="translate(40.4625 212.523341) scale(0.1 -0.1)">
       <use xlink:href="#Calibri-37"/>
       <use xlink:href="#Calibri-35" x="50.683594"/>
      </g>
     </g>
    </g>
    <g id="ytick_4">
     <g id="line2d_15">
      <g>
       <use xlink:href="#m2e58e7e6e1" x="57.6" y="175.85856" style="stroke: #000000; stroke-width: 0.8"/>
      </g>
     </g>
     <g id="text_16">
      <!-- 100 -->
      <g transform="translate(35.39375 179.259341) scale(0.1 -0.1)">
       <use xlink:href="#Calibri-31"/>
       <use xlink:href="#Calibri-30" x="50.683594"/>
       <use xlink:href="#Calibri-30" x="101.367188"/>
      </g>
     </g>
    </g>
    <g id="ytick_5">
     <g id="line2d_16">
      <g>
       <use xlink:href="#m2e58e7e6e1" x="57.6" y="142.59456" style="stroke: #000000; stroke-width: 0.8"/>
      </g>
     </g>
     <g id="text_17">
      <!-- 125 -->
      <g transform="translate(35.39375 145.995341) scale(0.1 -0.1)">
       <use xlink:href="#Calibri-31"/>
       <use xlink:href="#Calibri-32" x="50.683594"/>
       <use xlink:href="#Calibri-35" x="101.367188"/>
      </g>
     </g>
    </g>
    <g id="ytick_6">
     <g id="line2d_17">
      <g>
       <use xlink:href="#m2e58e7e6e1" x="57.6" y="109.33056" style="stroke: #000000; stroke-width: 0.8"/>
      </g>
     </g>
     <g id="text_18">
      <!-- 150 -->
      <g transform="translate(35.39375 112.731341) scale(0.1 -0.1)">
       <use xlink:href="#Calibri-31"/>
       <use xlink:href="#Calibri-35" x="50.683594"/>
       <use xlink:href="#Calibri-30" x="101.367188"/>
      </g>
     </g>
    </g>
    <g id="ytick_7">
     <g id="line2d_18">
      <g>
       <use xlink:href="#m2e58e7e6e1" x="57.6" y="76.06656" style="stroke: #000000; stroke-width: 0.8"/>
      </g>
     </g>
     <g id="text_19">
      <!-- 175 -->
      <g transform="translate(35.39375 79.467341) scale(0.1 -0.1)">
       <use xlink:href="#Calibri-31"/>
       <use xlink:href="#Calibri-37" x="50.683594"/>
       <use xlink:href="#Calibri-35" x="101.367188"/>
      </g>
     </g>
    </g>
    <g id="ytick_8">
     <g id="line2d_19">
      <g>
       <use xlink:href="#m2e58e7e6e1" x="57.6" y="42.80256" style="stroke: #000000; stroke-width: 0.8"/>
      </g>
     </g>
     <g id="text_20">
      <!-- 200 -->
      <g transform="translate(35.39375 46.203341) scale(0.1 -0.1)">
       <use xlink:href="#Calibri-32"/>
       <use xlink:href="#Calibri-30" x="50.683594"/>
       <use xlink:href="#Calibri-30" x="101.367188"/>
      </g>
     </g>
    </g>
    <g id="text_21">
     <!-- $\mathit{Z}$$_{a}$ (nm) -->
     <g transform="translate(29.59375 191.028) rotate(-90) scale(0.1 -0.1)">
      <defs>
       <path id="DejaVuSans-Oblique-5a" d="M 838 4666 
L 4500 4666 
L 4409 4184 
L 794 531 
L 3769 531 
L 3669 0 
L -141 0 
L -50 481 
L 3566 4134 
L 738 4134 
L 838 4666 
z
" transform="scale(0.015625)"/>
       <path id="DejaVuSans-Oblique-61" d="M 3438 1997 
L 3047 0 
L 2472 0 
L 2578 531 
Q 2325 219 2001 64 
Q 1678 -91 1281 -91 
Q 834 -91 548 182 
Q 263 456 263 884 
Q 263 1497 752 1853 
Q 1241 2209 2100 2209 
L 2900 2209 
L 2931 2363 
Q 2938 2388 2941 2417 
Q 2944 2447 2944 2509 
Q 2944 2788 2717 2942 
Q 2491 3097 2081 3097 
Q 1800 3097 1504 3025 
Q 1209 2953 897 2809 
L 997 3341 
Q 1322 3463 1633 3523 
Q 1944 3584 2234 3584 
Q 2853 3584 3176 3315 
Q 3500 3047 3500 2534 
Q 3500 2431 3484 2292 
Q 3469 2153 3438 1997 
z
M 2816 1759 
L 2241 1759 
Q 1534 1759 1195 1570 
Q 856 1381 856 984 
Q 856 709 1029 553 
Q 1203 397 1509 397 
Q 1978 397 2328 733 
Q 2678 1069 2791 1631 
L 2816 1759 
z
" transform="scale(0.015625)"/>
       <path id="Calibri-6e" d="M 2900 78 
Q 2900 53 2887 36 
Q 2875 19 2847 6 
Q 2819 -6 2769 -12 
Q 2719 -19 2644 -19 
Q 2566 -19 2516 -12 
Q 2466 -6 2437 6 
Q 2409 19 2396 36 
Q 2384 53 2384 78 
L 2384 1725 
Q 2384 1966 2346 2112 
Q 2309 2259 2237 2365 
Q 2166 2472 2052 2528 
Q 1938 2584 1788 2584 
Q 1594 2584 1400 2446 
Q 1206 2309 994 2044 
L 994 78 
Q 994 53 981 36 
Q 969 19 941 6 
Q 913 -6 863 -12 
Q 813 -19 734 -19 
Q 659 -19 609 -12 
Q 559 -6 529 6 
Q 500 19 489 36 
Q 478 53 478 78 
L 478 2891 
Q 478 2916 487 2933 
Q 497 2950 525 2964 
Q 553 2978 597 2983 
Q 641 2988 713 2988 
Q 781 2988 826 2983 
Q 872 2978 897 2964 
Q 922 2950 933 2933 
Q 944 2916 944 2891 
L 944 2519 
Q 1181 2784 1417 2907 
Q 1653 3031 1894 3031 
Q 2175 3031 2367 2936 
Q 2559 2841 2678 2681 
Q 2797 2522 2848 2308 
Q 2900 2094 2900 1794 
L 2900 78 
z
" transform="scale(0.015625)"/>
      </defs>
      <use xlink:href="#DejaVuSans-Oblique-5a" transform="translate(0 0.09375)"/>
      <use xlink:href="#DejaVuSans-Oblique-61" transform="translate(69.462891 -16.3125) scale(0.7)"/>
      <use xlink:href="#Calibri-20" transform="translate(115.092773 0.09375)"/>
      <use xlink:href="#Calibri-28" transform="translate(136.575195 0.09375)"/>
      <use xlink:href="#Calibri-6e" transform="translate(166.897461 0.09375)"/>
      <use xlink:href="#Calibri-6d" transform="translate(219.436523 0.09375)"/>
      <use xlink:href="#Calibri-29" transform="translate(299.319336 0.09375)"/>
     </g>
    </g>
   </g>
   <g id="patch_3">
    <path d="M 57.6 307.584 
L 57.6 41.472 
" style="fill: none; stroke: #000000; stroke-width: 0.8; stroke-linejoin: miter; stroke-linecap: square"/>
   </g>
   <g id="patch_4">
    <path d="M 343.296 307.584 
L 343.296 41.472 
" style="fill: none; stroke: #000000; stroke-width: 0.8; stroke-linejoin: miter; stroke-linecap: square"/>
   </g>
   <g id="patch_5">
    <path d="M 57.6 307.584 
L 343.296 307.584 
" style="fill: none; stroke: #000000; stroke-width: 0.8; stroke-linejoin: miter; stroke-linecap: square"/>
   </g>
   <g id="patch_6">
    <path d="M 57.6 41.472 
L 343.296 41.472 
" style="fill: none; stroke: #000000; stroke-width: 0.8; stroke-linejoin: miter; stroke-linecap: square"/>
   </g>
   <g id="text_22">
    <!-- $n_e$ = 1.47 -->
    <g transform="translate(181.348 35.472) scale(0.1 -0.1)">
     <defs>
      <path id="DejaVuSans-Oblique-6e" d="M 3566 2113 
L 3156 0 
L 2578 0 
L 2988 2091 
Q 3016 2238 3031 2350 
Q 3047 2463 3047 2528 
Q 3047 2791 2881 2937 
Q 2716 3084 2419 3084 
Q 1956 3084 1622 2776 
Q 1288 2469 1184 1941 
L 800 0 
L 225 0 
L 903 3500 
L 1478 3500 
L 1363 2950 
Q 1603 3253 1940 3418 
Q 2278 3584 2650 3584 
Q 3113 3584 3367 3334 
Q 3622 3084 3622 2631 
Q 3622 2519 3608 2391 
Q 3594 2263 3566 2113 
z
" transform="scale(0.015625)"/>
      <path id="DejaVuSans-Oblique-65" d="M 3078 2063 
Q 3088 2113 3092 2166 
Q 3097 2219 3097 2272 
Q 3097 2653 2873 2875 
Q 2650 3097 2266 3097 
Q 1838 3097 1509 2826 
Q 1181 2556 1013 2059 
L 3078 2063 
z
M 3578 1613 
L 903 1613 
Q 884 1494 878 1425 
Q 872 1356 872 1306 
Q 872 872 1139 634 
Q 1406 397 1894 397 
Q 2269 397 2603 481 
Q 2938 566 3225 728 
L 3116 159 
Q 2806 34 2476 -28 
Q 2147 -91 1806 -91 
Q 1078 -91 686 257 
Q 294 606 294 1247 
Q 294 1794 489 2264 
Q 684 2734 1063 3103 
Q 1306 3334 1642 3459 
Q 1978 3584 2356 3584 
Q 2950 3584 3301 3228 
Q 3653 2872 3653 2272 
Q 3653 2128 3634 1964 
Q 3616 1800 3578 1613 
z
" transform="scale(0.015625)"/>
      <path id="Calibri-3d" d="M 2891 2409 
Q 2891 2284 2855 2236 
Q 2819 2188 2772 2188 
L 409 2188 
Q 363 2188 328 2236 
Q 294 2284 294 2409 
Q 294 2522 325 2575 
Q 356 2628 409 2628 
L 2772 2628 
Q 2828 2628 2859 2575 
Q 2891 2522 2891 2409 
z
M 2891 1194 
Q 2891 1069 2855 1022 
Q 2819 975 2772 975 
L 409 975 
Q 363 975 328 1022 
Q 294 1069 294 1194 
Q 294 1309 325 1362 
Q 356 1416 409 1416 
L 2772 1416 
Q 2828 1416 2859 1362 
Q 2891 1309 2891 1194 
z
" transform="scale(0.015625)"/>
     </defs>
     <use xlink:href="#DejaVuSans-Oblique-6e" transform="translate(0 0.375)"/>
     <use xlink:href="#DejaVuSans-Oblique-65" transform="translate(63.378906 -16.03125) scale(0.7)"/>
     <use xlink:href="#Calibri-20" transform="translate(109.179688 0.375)"/>
     <use xlink:href="#Calibri-3d" transform="translate(131.787109 0.375)"/>
     <use xlink:href="#Calibri-20" transform="translate(181.591797 0.375)"/>
     <use xlink:href="#Calibri-31" transform="translate(204.199219 0.375)"/>
     <use xlink:href="#Calibri-2e" transform="translate(254.882812 0.375)"/>
     <use xlink:href="#Calibri-34" transform="translate(280.126953 0.375)"/>
     <use xlink:href="#Calibri-37" transform="translate(330.810547 0.375)"/>
    </g>
   </g>
  </g>
  <g id="axes_2">
   <g id="patch_7">
    <path d="M 361.152 307.584 
L 374.4576 307.584 
L 374.4576 41.472 
L 361.152 41.472 
z
" style="fill: #ffffff"/>
   </g>
   <g id="QuadMesh_1">
    <path d="M 361.152 307.584 
L 374.4576 307.584 
L 374.4576 280.9728 
L 361.152 280.9728 
L 361.152 307.584 
" clip-path="url(#p7754d987c7)" style="fill: #0000b6"/>
    <path d="M 361.152 280.9728 
L 374.4576 280.9728 
L 374.4576 254.3616 
L 361.152 254.3616 
L 361.152 280.9728 
" clip-path="url(#p7754d987c7)" style="fill: #0018ff"/>
    <path d="M 361.152 254.3616 
L 374.4576 254.3616 
L 374.4576 227.7504 
L 361.152 227.7504 
L 361.152 254.3616 
" clip-path="url(#p7754d987c7)" style="fill: #0080ff"/>
    <path d="M 361.152 227.7504 
L 374.4576 227.7504 
L 374.4576 201.1392 
L 361.152 201.1392 
L 361.152 227.7504 
" clip-path="url(#p7754d987c7)" style="fill: #00e4f8"/>
    <path d="M 361.152 201.1392 
L 374.4576 201.1392 
L 374.4576 174.528 
L 361.152 174.528 
L 361.152 201.1392 
" clip-path="url(#p7754d987c7)" style="fill: #53ffa4"/>
    <path d="M 361.152 174.528 
L 374.4576 174.528 
L 374.4576 147.9168 
L 361.152 147.9168 
L 361.152 174.528 
" clip-path="url(#p7754d987c7)" style="fill: #a4ff53"/>
    <path d="M 361.152 147.9168 
L 374.4576 147.9168 
L 374.4576 121.3056 
L 361.152 121.3056 
L 361.152 147.9168 
" clip-path="url(#p7754d987c7)" style="fill: #f8f500"/>
    <path d="M 361.152 121.3056 
L 374.4576 121.3056 
L 374.4576 94.6944 
L 361.152 94.6944 
L 361.152 121.3056 
" clip-path="url(#p7754d987c7)" style="fill: #ff9400"/>
    <path d="M 361.152 94.6944 
L 374.4576 94.6944 
L 374.4576 68.0832 
L 361.152 68.0832 
L 361.152 94.6944 
" clip-path="url(#p7754d987c7)" style="fill: #ff3800"/>
    <path d="M 361.152 68.0832 
L 374.4576 68.0832 
L 374.4576 41.472 
L 361.152 41.472 
L 361.152 68.0832 
" clip-path="url(#p7754d987c7)" style="fill: #b60000"/>
   </g>
   <g id="matplotlib.axis_3"/>
   <g id="matplotlib.axis_4">
    <g id="ytick_9">
     <g id="line2d_20">
      <defs>
       <path id="m727f962a7d" d="M 0 0 
L 3.5 0 
" style="stroke: #000000; stroke-width: 0.8"/>
      </defs>
      <g>
       <use xlink:href="#m727f962a7d" x="374.4576" y="307.584" style="stroke: #000000; stroke-width: 0.8"/>
      </g>
     </g>
     <g id="text_23">
      <!-- 0 -->
      <g transform="translate(381.4576 310.984781) scale(0.1 -0.1)">
       <use xlink:href="#Calibri-30"/>
      </g>
     </g>
    </g>
    <g id="ytick_10">
     <g id="line2d_21">
      <g>
       <use xlink:href="#m727f962a7d" x="374.4576" y="280.9728" style="stroke: #000000; stroke-width: 0.8"/>
      </g>
     </g>
     <g id="text_24">
      <!-- 0.1 -->
      <g transform="translate(381.4576 284.373581) scale(0.1 -0.1)">
       <use xlink:href="#Calibri-30"/>
       <use xlink:href="#Calibri-2e" x="50.683594"/>
       <use xlink:href="#Calibri-31" x="75.927734"/>
      </g>
     </g>
    </g>
    <g id="ytick_11">
     <g id="line2d_22">
      <g>
       <use xlink:href="#m727f962a7d" x="374.4576" y="254.3616" style="stroke: #000000; stroke-width: 0.8"/>
      </g>
     </g>
     <g id="text_25">
      <!-- 0.2 -->
      <g transform="translate(381.4576 257.762381) scale(0.1 -0.1)">
       <use xlink:href="#Calibri-30"/>
       <use xlink:href="#Calibri-2e" x="50.683594"/>
       <use xlink:href="#Calibri-32" x="75.927734"/>
      </g>
     </g>
    </g>
    <g id="ytick_12">
     <g id="line2d_23">
      <g>
       <use xlink:href="#m727f962a7d" x="374.4576" y="227.7504" style="stroke: #000000; stroke-width: 0.8"/>
      </g>
     </g>
     <g id="text_26">
      <!-- 0.3 -->
      <g transform="translate(381.4576 231.151181) scale(0.1 -0.1)">
       <use xlink:href="#Calibri-30"/>
       <use xlink:href="#Calibri-2e" x="50.683594"/>
       <use xlink:href="#Calibri-33" x="75.927734"/>
      </g>
     </g>
    </g>
    <g id="ytick_13">
     <g id="line2d_24">
      <g>
       <use xlink:href="#m727f962a7d" x="374.4576" y="201.1392" style="stroke: #000000; stroke-width: 0.8"/>
      </g>
     </g>
     <g id="text_27">
      <!-- 0.4 -->
      <g transform="translate(381.4576 204.539981) scale(0.1 -0.1)">
       <use xlink:href="#Calibri-30"/>
       <use xlink:href="#Calibri-2e" x="50.683594"/>
       <use xlink:href="#Calibri-34" x="75.927734"/>
      </g>
     </g>
    </g>
    <g id="ytick_14">
     <g id="line2d_25">
      <g>
       <use xlink:href="#m727f962a7d" x="374.4576" y="174.528" style="stroke: #000000; stroke-width: 0.8"/>
      </g>
     </g>
     <g id="text_28">
      <!-- 0.5 -->
      <g transform="translate(381.4576 177.928781) scale(0.1 -0.1)">
       <use xlink:href="#Calibri-30"/>
       <use xlink:href="#Calibri-2e" x="50.683594"/>
       <use xlink:href="#Calibri-35" x="75.927734"/>
      </g>
     </g>
    </g>
    <g id="ytick_15">
     <g id="line2d_26">
      <g>
       <use xlink:href="#m727f962a7d" x="374.4576" y="147.9168" style="stroke: #000000; stroke-width: 0.8"/>
      </g>
     </g>
     <g id="text_29">
      <!-- 0.6 -->
      <g transform="translate(381.4576 151.317581) scale(0.1 -0.1)">
       <use xlink:href="#Calibri-30"/>
       <use xlink:href="#Calibri-2e" x="50.683594"/>
       <use xlink:href="#Calibri-36" x="75.927734"/>
      </g>
     </g>
    </g>
    <g id="ytick_16">
     <g id="line2d_27">
      <g>
       <use xlink:href="#m727f962a7d" x="374.4576" y="121.3056" style="stroke: #000000; stroke-width: 0.8"/>
      </g>
     </g>
     <g id="text_30">
      <!-- 0.7 -->
      <g transform="translate(381.4576 124.706381) scale(0.1 -0.1)">
       <use xlink:href="#Calibri-30"/>
       <use xlink:href="#Calibri-2e" x="50.683594"/>
       <use xlink:href="#Calibri-37" x="75.927734"/>
      </g>
     </g>
    </g>
    <g id="ytick_17">
     <g id="line2d_28">
      <g>
       <use xlink:href="#m727f962a7d" x="374.4576" y="94.6944" style="stroke: #000000; stroke-width: 0.8"/>
      </g>
     </g>
     <g id="text_31">
      <!-- 0.8 -->
      <g transform="translate(381.4576 98.095181) scale(0.1 -0.1)">
       <use xlink:href="#Calibri-30"/>
       <use xlink:href="#Calibri-2e" x="50.683594"/>
       <use xlink:href="#Calibri-38" x="75.927734"/>
      </g>
     </g>
    </g>
    <g id="ytick_18">
     <g id="line2d_29">
      <g>
       <use xlink:href="#m727f962a7d" x="374.4576" y="68.0832" style="stroke: #000000; stroke-width: 0.8"/>
      </g>
     </g>
     <g id="text_32">
      <!-- 0.9 -->
      <g transform="translate(381.4576 71.483981) scale(0.1 -0.1)">
       <use xlink:href="#Calibri-30"/>
       <use xlink:href="#Calibri-2e" x="50.683594"/>
       <use xlink:href="#Calibri-39" x="75.927734"/>
      </g>
     </g>
    </g>
    <g id="ytick_19">
     <g id="line2d_30">
      <g>
       <use xlink:href="#m727f962a7d" x="374.4576" y="41.472" style="stroke: #000000; stroke-width: 0.8"/>
      </g>
     </g>
     <g id="text_33">
      <!-- 1.0 -->
      <g transform="translate(381.4576 44.872781) scale(0.1 -0.1)">
       <use xlink:href="#Calibri-31"/>
       <use xlink:href="#Calibri-2e" x="50.683594"/>
       <use xlink:href="#Calibri-30" x="75.927734"/>
      </g>
     </g>
    </g>
   </g>
   <g id="LineCollection_1"/>
   <g id="patch_8">
    <path d="M 361.152 307.584 
L 367.8048 307.584 
L 374.4576 307.584 
L 374.4576 41.472 
L 367.8048 41.472 
L 361.152 41.472 
L 361.152 307.584 
z
" style="fill: none; stroke: #000000; stroke-width: 0.8; stroke-linejoin: miter; stroke-linecap: square"/>
   </g>
   <g id="text_34">
    <!-- $\mathit{E}_{\mathrm{Edis}}$/$\mathit{E}_{\mathrm{i}}$ -->
    <g transform="translate(351.0548 35.472) scale(0.1 -0.1)">
     <defs>
      <path id="DejaVuSans-Oblique-45" d="M 1081 4666 
L 4031 4666 
L 3928 4134 
L 1606 4134 
L 1338 2753 
L 3566 2753 
L 3463 2222 
L 1234 2222 
L 909 531 
L 3284 531 
L 3181 0 
L 172 0 
L 1081 4666 
z
" transform="scale(0.015625)"/>
      <path id="DejaVuSans-45" d="M 628 4666 
L 3578 4666 
L 3578 4134 
L 1259 4134 
L 1259 2753 
L 3481 2753 
L 3481 2222 
L 1259 2222 
L 1259 531 
L 3634 531 
L 3634 0 
L 628 0 
L 628 4666 
z
" transform="scale(0.015625)"/>
      <path id="DejaVuSans-64" d="M 2906 2969 
L 2906 4863 
L 3481 4863 
L 3481 0 
L 2906 0 
L 2906 525 
Q 2725 213 2448 61 
Q 2172 -91 1784 -91 
Q 1150 -91 751 415 
Q 353 922 353 1747 
Q 353 2572 751 3078 
Q 1150 3584 1784 3584 
Q 2172 3584 2448 3432 
Q 2725 3281 2906 2969 
z
M 947 1747 
Q 947 1113 1208 752 
Q 1469 391 1925 391 
Q 2381 391 2643 752 
Q 2906 1113 2906 1747 
Q 2906 2381 2643 2742 
Q 2381 3103 1925 3103 
Q 1469 3103 1208 2742 
Q 947 2381 947 1747 
z
" transform="scale(0.015625)"/>
      <path id="DejaVuSans-69" d="M 603 3500 
L 1178 3500 
L 1178 0 
L 603 0 
L 603 3500 
z
M 603 4863 
L 1178 4863 
L 1178 4134 
L 603 4134 
L 603 4863 
z
" transform="scale(0.015625)"/>
      <path id="DejaVuSans-73" d="M 2834 3397 
L 2834 2853 
Q 2591 2978 2328 3040 
Q 2066 3103 1784 3103 
Q 1356 3103 1142 2972 
Q 928 2841 928 2578 
Q 928 2378 1081 2264 
Q 1234 2150 1697 2047 
L 1894 2003 
Q 2506 1872 2764 1633 
Q 3022 1394 3022 966 
Q 3022 478 2636 193 
Q 2250 -91 1575 -91 
Q 1294 -91 989 -36 
Q 684 19 347 128 
L 347 722 
Q 666 556 975 473 
Q 1284 391 1588 391 
Q 1994 391 2212 530 
Q 2431 669 2431 922 
Q 2431 1156 2273 1281 
Q 2116 1406 1581 1522 
L 1381 1569 
Q 847 1681 609 1914 
Q 372 2147 372 2553 
Q 372 3047 722 3315 
Q 1072 3584 1716 3584 
Q 2034 3584 2315 3537 
Q 2597 3491 2834 3397 
z
" transform="scale(0.015625)"/>
     </defs>
     <use xlink:href="#DejaVuSans-Oblique-45" transform="translate(0 0.09375)"/>
     <use xlink:href="#DejaVuSans-45" transform="translate(63.183594 -16.3125) scale(0.7)"/>
     <use xlink:href="#DejaVuSans-64" transform="translate(107.412109 -16.3125) scale(0.7)"/>
     <use xlink:href="#DejaVuSans-69" transform="translate(151.845703 -16.3125) scale(0.7)"/>
     <use xlink:href="#DejaVuSans-73" transform="translate(171.293945 -16.3125) scale(0.7)"/>
     <use xlink:href="#Calibri-2f" transform="translate(210.498047 0.09375)"/>
     <use xlink:href="#DejaVuSans-Oblique-45" transform="translate(249.121094 0.09375)"/>
     <use xlink:href="#DejaVuSans-69" transform="translate(312.304688 -16.3125) scale(0.7)"/>
    </g>
   </g>
  </g>
 </g>
 <defs>
  <clipPath id="p2421662f7a">
   <rect x="57.6" y="41.472" width="285.696" height="266.112"/>
  </clipPath>
  <clipPath id="p7754d987c7">
   <rect x="361.152" y="41.472" width="13.3056" height="266.112"/>
  </clipPath>
 </defs>
</svg>
